# Blender 4.5.0
# www.blender.org
mtllib sign_pole.lod1.mtl
o SignPole
v -0.016247 0.018000 -0.048000
v -0.018352 -0.000000 -0.044233
v 0.038910 0.018000 -0.025569
v -0.017908 0.018000 -0.043141
v -0.048000 -0.000000 -0.015626
v -0.038910 0.018000 -0.025569
v -0.043235 -0.000000 -0.017320
v -0.048000 0.018000 0.017503
v -0.047078 0.018000 0.005666
v -0.044305 0.000000 0.019649
v -0.016247 0.000000 0.049877
v -0.030010 0.018000 0.038221
v -0.017908 0.000000 0.045019
v 0.016247 0.018000 0.049877
v 0.004637 0.018000 0.048937
v 0.018352 0.000000 0.046110
v 0.048000 0.000000 0.017503
v 0.033090 0.018000 0.034676
v 0.043235 0.000000 0.019197
v 0.048000 0.018000 -0.015626
v 0.047078 0.018000 0.005666
v 0.044305 -0.000000 -0.017772
v 0.016247 -0.000000 -0.048000
v 0.017908 -0.000000 -0.043141
v 0.013732 0.018000 -0.045215
v -0.020602 2.492000 -0.028377
v -0.011470 0.018000 -0.027294
v 0.013937 2.492000 -0.025646
v -0.011470 2.492000 -0.027294
v -0.032853 0.018000 -0.003457
v -0.028293 0.018000 -0.007812
v -0.028293 2.492000 -0.007812
v -0.027022 0.018000 0.012350
v -0.027022 2.492000 0.012350
v -0.014033 2.492000 0.029887
v -0.013937 0.018000 0.027523
v -0.011470 2.492000 0.029171
v 0.002099 0.018000 0.033159
v 0.011470 0.018000 0.029171
v 0.013937 2.492000 0.027523
v 0.033454 2.492000 0.006579
v 0.028529 0.018000 -0.021381
v 0.028293 0.018000 0.009689
v 0.027022 2.492000 0.012350
v 0.028293 2.492000 -0.007812
v 0.027022 0.018000 -0.010473
v 0.013937 0.018000 -0.025646
v -0.021019 2.490606 -0.020691
v -0.011852 2.492000 -0.028235
v 0.026407 2.500000 -0.007228
v -0.021979 2.500000 -0.017452
v -0.027374 2.499179 -0.001689
v -0.029236 2.492000 -0.008104
v -0.026407 2.500000 0.009105
v -0.021789 2.491443 0.022977
v -0.027922 2.492000 0.012731
v -0.002577 2.499179 0.028847
v -0.014402 2.492000 0.028409
v -0.008254 2.500000 0.028679
v 0.021019 2.490606 0.022568
v 0.011852 2.492000 0.030112
v 0.021979 2.500000 0.019329
v 0.027374 2.499179 0.003566
v 0.029236 2.492000 0.009981
v 0.021789 2.491443 -0.021100
v 0.027922 2.492000 -0.010854
v 0.002577 2.499179 -0.026971
v 0.014402 2.492000 -0.026532
v 0.008254 2.500000 -0.026802
v -0.016622 1.914000 -0.033393
v -0.028458 1.946000 -0.021366
v -0.030449 1.914000 -0.015655
v 0.000000 1.914000 -0.033694
v -0.031383 1.946000 -0.012315
v -0.003384 1.946000 -0.034093
v -0.028458 1.914000 0.023243
v -0.021876 1.946000 0.029953
v -0.029551 1.914000 0.017043
v -0.028244 1.946000 0.020179
v -0.003384 1.914000 0.035970
v 0.000000 1.946000 0.035571
v 0.021876 1.914000 0.029953
v 0.028458 1.946000 0.023243
v 0.023439 1.914000 0.024836
v 0.023439 1.946000 0.024836
v 0.033968 1.914000 0.000938
v 0.033968 1.946000 0.000938
v 0.030924 1.914000 -0.014683
v 0.021876 1.946000 -0.028076
v 0.023439 1.914000 -0.022959
v 0.023439 1.946000 -0.022959
v -0.022144 1.948000 0.047564
v 0.022144 1.912000 0.024988
v 0.022144 1.948000 0.024988
v 0.022144 1.912000 0.047564
v -0.022144 1.912000 0.024988
v -0.022144 1.912000 0.047564
v -0.022144 1.948000 0.024988
v 0.022144 1.948000 0.047564
v -0.017111 1.928032 0.046092
v -0.016455 1.926851 0.051000
v -0.012516 1.924804 0.046092
v -0.016848 1.932598 0.046092
v -0.012516 1.924804 0.051000
v -0.016848 1.932598 0.051000
v -0.008577 1.926851 0.046092
v -0.007921 1.928032 0.051000
v -0.008184 1.932598 0.046092
v -0.008184 1.932598 0.051000
v -0.011860 1.935117 0.046092
v -0.013172 1.935117 0.051000
v 0.007921 1.928032 0.046092
v 0.008577 1.926851 0.051000
v 0.012516 1.924804 0.046092
v 0.008184 1.932598 0.046092
v 0.012516 1.924804 0.051000
v 0.008184 1.932598 0.051000
v 0.016455 1.926851 0.046092
v 0.017111 1.928032 0.051000
v 0.016848 1.932598 0.046092
v 0.016848 1.932598 0.051000
v 0.013172 1.935117 0.046092
v 0.011860 1.935117 0.051000
v -0.021876 2.254000 -0.028076
v -0.028458 2.286000 -0.021366
v -0.015796 2.254000 -0.029191
v -0.023439 2.286000 -0.022959
v 0.003384 2.286000 -0.034093
v -0.034360 2.254000 -0.002512
v -0.034360 2.286000 0.004389
v -0.028458 2.254000 0.023243
v -0.021876 2.286000 0.029953
v -0.023439 2.254000 0.024836
v -0.015796 2.286000 0.031068
v 0.003384 2.254000 0.035970
v 0.021876 2.254000 0.029953
v 0.012999 2.286000 0.032935
v 0.028458 2.286000 0.023243
v 0.031383 2.254000 0.014192
v 0.030624 2.286000 0.013872
v 0.028458 2.254000 -0.021366
v 0.031383 2.286000 -0.012315
v 0.021876 2.286000 -0.028076
v 0.030624 2.254000 -0.011995
v 0.012999 2.254000 -0.031058
v -0.022144 2.252000 0.024988
v 0.022144 2.252000 0.024988
v -0.022144 2.252000 0.047564
v 0.022144 2.252000 0.047564
v -0.022144 2.288000 0.047564
v -0.022144 2.288000 0.024988
v 0.022144 2.288000 0.024988
v 0.022144 2.288000 0.047564
v -0.015725 2.266151 0.046092
v -0.014121 2.265189 0.051000
v -0.014923 2.274330 0.046092
v -0.010109 2.265670 0.046092
v -0.014923 2.274330 0.051000
v -0.010109 2.265670 0.051000
v -0.007887 2.272332 0.049364
v -0.012886 2.275329 0.047728
v 0.007887 2.267668 0.049364
v 0.012886 2.264671 0.047728
v 0.014923 2.265670 0.046092
v 0.010109 2.274330 0.046092
v 0.014923 2.274330 0.051000
v 0.010109 2.265670 0.051000
v 0.015725 2.273849 0.046092
v 0.014121 2.274811 0.051000
vn -0.0000 1.0000 -0.0000
vn 0.3608 0.2301 -0.9038
vn -0.9056 0.2322 -0.3549
vn -0.3608 -0.2301 -0.9038
vn -0.9056 -0.2322 0.3549
vn -0.0000 -1.0000 -0.0000
vn -0.3608 0.2301 0.9038
vn 0.3608 -0.2301 0.9038
vn 0.9056 0.2322 0.3549
vn 0.9056 -0.2322 -0.3549
vn 0.7639 -0.0180 -0.6451
vn -0.9661 -0.0114 -0.2579
vn -0.5271 0.0164 -0.8496
vn -0.4798 0.0086 0.8773
vn 0.1539 -0.0091 0.9880
vn 0.9981 0.0124 0.0602
vn -0.5976 0.4861 -0.6376
vn -0.9856 -0.1586 -0.0578
vn 0.0368 -0.1529 -0.9876
vn -0.6123 0.5521 0.5660
vn -0.0368 -0.1529 0.9876
vn 0.5976 0.4861 0.6376
vn 0.9856 -0.1586 0.0578
vn 0.6123 0.5521 -0.5660
vn -0.4414 -0.0638 -0.8950
vn -0.8380 0.0480 -0.5436
vn 0.6014 0.0592 -0.7968
vn -0.8190 -0.0914 0.5665
vn -0.5824 0.0610 0.8106
vn 0.5580 -0.0494 0.8284
vn 0.7990 0.0932 0.5940
vn 0.9052 -0.0620 -0.4205
vn -0.5773 -0.5773 -0.5774
vn -0.5774 0.5773 -0.5774
vn 0.5773 0.5773 -0.5774
vn 0.5774 -0.5773 -0.5773
vn -0.5773 -0.5773 0.5774
vn 0.5774 -0.5773 0.5774
vn 0.5773 0.5773 0.5774
vn -0.5774 0.5773 0.5773
vn -0.9364 -0.3375 -0.0959
vn 0.7535 -0.6509 -0.0925
vn -0.7535 -0.6509 0.0925
vn 0.9364 -0.3375 0.0959
vn 0.1788 0.9791 -0.0969
vn -0.1788 0.9791 0.0969
vn -0.0000 -0.0000 -1.0000
vn -0.0000 -0.0000 1.0000
vn -0.5824 -0.0610 -0.8106
vn -0.8120 0.0618 -0.5804
vn 0.5824 0.0610 -0.8106
vn -0.8120 -0.0618 0.5804
vn 0.5824 -0.0610 0.8106
vn 0.8120 0.0618 0.5804
vn 0.8120 -0.0618 -0.5804
vn -0.8077 -0.5696 0.1524
vn 0.6658 -0.6605 -0.3472
vn -0.0740 -0.9829 -0.1685
vn -0.9132 0.2215 0.3420
vn 0.8077 0.5696 0.1524
vn 0.0740 0.9829 -0.1685
vn 0.9132 -0.2215 0.3420
vn -0.6658 0.6605 -0.3472
vt 0.500000 0.500000
s 1
f 3/1/1 25/1/1 4/1/1
f 23/1/2 5/1/3 1/1/4
f 3/1/1 4/1/1 6/1/1
f 5/1/3 8/1/5 1/1/4
f 3/1/1 6/1/1 9/1/1
f 2/1/6 10/1/6 7/1/6
f 5/1/3 11/1/7 8/1/5
f 3/1/1 9/1/1 12/1/1
f 2/1/6 13/1/6 10/1/6
f 11/1/7 14/1/8 8/1/5
f 3/1/1 12/1/1 15/1/1
f 2/1/6 16/1/6 13/1/6
f 11/1/7 17/1/9 14/1/8
f 3/1/1 15/1/1 18/1/1
f 2/1/6 19/1/6 16/1/6
f 17/1/9 20/1/10 14/1/8
f 3/1/1 18/1/1 21/1/1
f 2/1/6 22/1/6 19/1/6
f 17/1/9 23/1/2 20/1/10
f 2/1/6 24/1/6 22/1/6
f 23/1/2 1/1/4 20/1/10
f 42/1/11 30/1/12 26/1/13
f 28/1/1 29/1/1 32/1/1
f 27/1/6 33/1/6 31/1/6
f 28/1/1 32/1/1 34/1/1
f 30/1/12 35/1/14 26/1/13
f 27/1/6 36/1/6 33/1/6
f 28/1/1 34/1/1 37/1/1
f 30/1/12 38/1/15 35/1/14
f 27/1/6 39/1/6 36/1/6
f 28/1/1 37/1/1 40/1/1
f 38/1/15 41/1/16 35/1/14
f 38/1/15 42/1/11 41/1/16
f 27/1/6 43/1/6 39/1/6
f 28/1/1 40/1/1 44/1/1
f 28/1/1 44/1/1 45/1/1
f 27/1/6 46/1/6 43/1/6
f 27/1/6 47/1/6 46/1/6
f 42/1/11 26/1/13 41/1/16
f 50/1/1 69/1/1 51/1/1
f 48/1/17 52/1/18 67/1/19
f 50/1/1 51/1/1 54/1/1
f 48/1/17 55/1/20 52/1/18
f 49/1/6 56/1/6 53/1/6
f 55/1/20 57/1/21 52/1/18
f 49/1/6 58/1/6 56/1/6
f 50/1/1 54/1/1 59/1/1
f 55/1/20 60/1/22 57/1/21
f 49/1/6 61/1/6 58/1/6
f 50/1/1 59/1/1 62/1/1
f 60/1/22 63/1/23 57/1/21
f 49/1/6 64/1/6 61/1/6
f 60/1/22 65/1/24 63/1/23
f 49/1/6 66/1/6 64/1/6
f 65/1/24 67/1/19 63/1/23
f 49/1/6 68/1/6 66/1/6
f 65/1/24 48/1/17 67/1/19
f 70/1/25 71/1/26 89/1/27
f 70/1/25 76/1/28 71/1/26
f 76/1/28 77/1/29 71/1/26
f 72/1/6 80/1/6 78/1/6
f 74/1/1 79/1/1 81/1/1
f 76/1/28 82/1/30 77/1/29
f 82/1/30 83/1/31 77/1/29
f 72/1/6 84/1/6 80/1/6
f 74/1/1 81/1/1 85/1/1
f 72/1/6 86/1/6 84/1/6
f 74/1/1 85/1/1 87/1/1
f 82/1/30 88/1/32 83/1/31
f 88/1/32 89/1/27 83/1/31
f 72/1/6 90/1/6 86/1/6
f 74/1/1 87/1/1 91/1/1
f 88/1/32 70/1/25 89/1/27
f 72/1/6 73/1/6 90/1/6
f 74/1/1 91/1/1 75/1/1
f 96/1/33 98/1/34 94/1/35
f 96/1/33 94/1/35 93/1/36
f 97/1/37 95/1/38 99/1/39
f 97/1/37 99/1/39 92/1/40
f 96/1/33 97/1/37 92/1/40
f 96/1/33 92/1/40 98/1/34
f 93/1/36 94/1/35 99/1/39
f 93/1/36 99/1/39 95/1/38
f 96/1/33 93/1/36 95/1/38
f 96/1/33 95/1/38 97/1/37
f 98/1/34 92/1/40 99/1/39
f 98/1/34 99/1/39 94/1/35
f 100/1/41 106/1/42 101/1/43
f 106/1/42 107/1/44 101/1/43
f 106/1/42 110/1/45 107/1/44
f 110/1/45 111/1/46 107/1/44
f 102/1/47 103/1/47 108/1/47
f 104/1/48 109/1/48 105/1/48
f 110/1/45 100/1/41 111/1/46
f 100/1/41 101/1/43 111/1/46
f 112/1/41 118/1/42 113/1/43
f 118/1/42 119/1/44 113/1/43
f 118/1/42 122/1/45 119/1/44
f 122/1/45 123/1/46 119/1/44
f 114/1/47 115/1/47 120/1/47
f 116/1/48 121/1/48 117/1/48
f 122/1/45 112/1/41 123/1/46
f 112/1/41 113/1/43 123/1/46
f 124/1/49 125/1/50 143/1/51
f 124/1/49 131/1/52 125/1/50
f 131/1/52 132/1/29 125/1/50
f 126/1/6 133/1/6 129/1/6
f 127/1/1 130/1/1 134/1/1
f 126/1/6 135/1/6 133/1/6
f 131/1/52 136/1/53 132/1/29
f 127/1/1 134/1/1 137/1/1
f 136/1/53 138/1/54 132/1/29
f 126/1/6 139/1/6 135/1/6
f 127/1/1 137/1/1 140/1/1
f 136/1/53 141/1/55 138/1/54
f 127/1/1 140/1/1 142/1/1
f 141/1/55 143/1/51 138/1/54
f 126/1/6 144/1/6 139/1/6
f 126/1/6 145/1/6 144/1/6
f 127/1/1 142/1/1 128/1/1
f 141/1/55 124/1/49 143/1/51
f 146/1/33 151/1/34 152/1/35
f 146/1/33 152/1/35 147/1/36
f 148/1/37 149/1/38 153/1/39
f 148/1/37 153/1/39 150/1/40
f 146/1/33 148/1/37 150/1/40
f 146/1/33 150/1/40 151/1/34
f 147/1/36 152/1/35 153/1/39
f 147/1/36 153/1/39 149/1/38
f 146/1/33 147/1/36 149/1/38
f 146/1/33 149/1/38 148/1/37
f 151/1/34 150/1/40 153/1/39
f 151/1/34 153/1/39 152/1/35
f 154/1/56 160/1/57 155/1/58
f 154/1/56 155/1/58 161/1/59
f 168/1/60 169/1/61 163/1/62
f 168/1/60 162/1/63 169/1/61
l 156 157
l 158 159
l 160 161
l 162 163
l 164 165
l 166 167
