# Blender 4.5.0
# www.blender.org
mtllib sign_pole.lod2.mtl
o SignPole
v -0.047284 0.012039 -0.021493
v -0.004848 -0.000000 -0.047713
v 0.048000 0.018058 0.028173
v -0.048000 0.000000 0.006505
v -0.042552 0.018058 0.025022
v -0.000134 0.009029 0.052675
v 0.004581 0.000000 0.051000
v 0.047016 0.006019 -0.021493
v 0.047732 -0.000000 -0.003218
v -0.014738 0.018058 -0.048000
v -0.019682 2.500000 -0.026489
v 0.021825 0.018058 -0.025947
v 0.021825 2.500000 -0.025947
v -0.031306 0.018058 -0.002575
v -0.022093 0.018058 0.029234
v -0.022093 2.500000 0.029234
v -0.013449 2.500000 0.029423
v 0.001858 0.018058 0.032563
v 0.031609 2.500000 0.007056
v 0.026936 0.018058 -0.019775
v -0.017413 2.494369 0.001978
v -0.003640 2.500000 -0.035061
v 0.020361 2.508026 0.027394
v 0.008315 2.495128 0.006744
v 0.003372 2.500000 0.038347
v 0.016643 2.500759 -0.018067
v -0.020629 2.508026 -0.024108
v -0.015906 1.920144 -0.031302
v -0.027136 1.952247 -0.019760
v -0.011356 1.920144 -0.036503
v -0.011356 1.952247 -0.036503
v -0.024331 1.936196 0.026594
v -0.016933 1.920144 0.034051
v -0.016933 1.952247 0.034051
v 0.036484 1.920144 0.014461
v 0.038781 1.952247 -0.003643
v 0.032468 1.920144 0.011841
v 0.032468 1.952247 0.011841
v -0.021145 1.936196 0.024721
v 0.020877 1.936196 0.024721
v -0.021145 1.936196 0.046387
v 0.020877 1.936196 0.046387
v -0.021145 1.918138 0.035554
v -0.021145 1.954253 0.035554
v 0.020877 1.918138 0.035554
v 0.020877 1.954253 0.035554
v -0.016120 1.933589 0.047329
v -0.009073 1.934334 0.044974
v -0.016120 1.938802 0.044974
v -0.014946 1.934334 0.049683
v -0.007899 1.933589 0.047329
v -0.007899 1.938802 0.049683
v -0.012010 1.941409 0.047329
v 0.007631 1.933589 0.047329
v 0.014678 1.934334 0.044974
v 0.007631 1.938802 0.044974
v 0.014678 1.934334 0.049683
v 0.007631 1.938802 0.049683
v 0.015853 1.933589 0.047329
v 0.011742 1.941409 0.047329
v 0.004993 2.261236 -0.038483
v -0.027136 2.293339 -0.019760
v -0.031563 2.261236 -0.015679
v -0.006929 2.293339 -0.033580
v -0.031563 2.293339 0.018965
v -0.027136 2.261236 0.023047
v 0.004993 2.293339 0.041769
v -0.006929 2.261236 0.036867
v 0.020623 2.261236 0.029486
v 0.035003 2.293339 0.016651
v 0.035003 2.261236 -0.013364
v 0.020623 2.293339 -0.026200
v -0.021145 2.277287 0.024721
v 0.020877 2.277287 0.024721
v -0.021145 2.277287 0.046387
v 0.020877 2.277287 0.046387
v -0.021145 2.259229 0.035554
v 0.020877 2.259230 0.035554
v -0.021145 2.295345 0.035554
v 0.020877 2.295345 0.035554
v -0.014293 2.272943 0.047328
v -0.014293 2.281631 0.044974
v -0.009726 2.272943 0.044974
v -0.014293 2.281631 0.049683
v -0.009726 2.272943 0.049683
v -0.007618 2.279626 0.048113
v -0.012361 2.282634 0.046544
v 0.007350 2.274948 0.048113
v 0.012093 2.271941 0.046544
v 0.014026 2.272943 0.044974
v 0.009458 2.281631 0.044974
v 0.014026 2.281631 0.049683
v 0.009458 2.272943 0.049683
v 0.014026 2.281631 0.047328
vn -0.0000 1.0000 -0.0000
vn -0.0000 -1.0000 -0.0000
vn 0.7615 -0.0171 -0.6480
vn -0.9658 -0.0108 -0.2592
vn -0.5244 0.0157 -0.8513
vn -0.4785 0.0082 0.8781
vn 0.1533 -0.0087 0.9881
vn 0.9981 0.0117 0.0605
vn -0.1888 -0.0137 -0.9819
vn -0.6821 0.0242 -0.7309
vn 0.9336 0.1155 -0.3393
vn -0.9483 -0.3133 -0.0511
vn 0.9463 0.1048 0.3059
vn 0.2881 0.4547 0.8428
vn 0.2522 -0.1624 -0.9540
vn -0.8752 -0.0217 -0.4833
vn 0.8572 -0.2438 -0.4536
vn -0.8752 0.0217 0.4833
vn 0.2522 0.1624 0.9540
vn 0.8572 0.2438 0.4536
vt 0.500000 0.500000
s 1
f 3/1/1 10/1/1 5/1/1
f 2/1/2 7/1/2 4/1/2
f 2/1/2 9/1/2 7/1/2
f 20/1/3 14/1/4 11/1/5
f 14/1/4 17/1/6 11/1/5
f 14/1/4 18/1/7 17/1/6
f 18/1/7 19/1/8 17/1/6
f 18/1/7 20/1/3 19/1/8
f 20/1/3 11/1/5 19/1/8
f 28/1/9 29/1/10 36/1/11
f 28/1/9 32/1/12 29/1/10
f 35/1/13 36/1/11 32/1/14
f 30/1/2 37/1/2 33/1/2
f 31/1/1 34/1/1 38/1/1
f 35/1/13 28/1/9 36/1/11
f 61/1/15 62/1/16 72/1/17
f 61/1/15 66/1/18 62/1/16
f 66/1/18 67/1/19 62/1/16
f 66/1/18 69/1/20 67/1/19
f 64/1/1 65/1/1 70/1/1
f 63/1/2 71/1/2 68/1/2
f 69/1/20 61/1/15 67/1/19
f 61/1/15 72/1/17 67/1/19
l 1 6
l 6 8
l 8 1
l 12 15
l 13 16
l 21 24
l 22 25
l 24 26
l 23 27
l 21 26
l 39 40
l 41 42
l 43 44
l 45 46
l 48 49
l 47 51
l 50 52
l 51 53
l 47 53
l 55 56
l 57 58
l 54 59
l 59 60
l 54 60
l 73 74
l 75 76
l 79 80
l 82 83
l 84 85
l 81 86
l 86 87
l 81 87
l 88 89
l 90 91
l 92 93
l 89 94
l 88 94
l 43 45
l 44 46
l 77 79
l 78 80
l 77 78
