# national_road_sign.obj
o NationalRoadSign
v -0.043276664 0.38825348 0.005
v -0.22380216 0.36846986 0.005
v -0.3251932 0.3313756 0.005
v -0.38948995 0.26955178 0.005
v -0.39938176 0.17434312 0.005
v -0.3400309 -0.008655332 0.005
v -0.21638331 -0.22132921 0.005
v -0.10510047 -0.3449768 0.005
v -0.043276664 -0.37959814 0.005
v 0.012364761 -0.387017 0.005
v 0.04451314 -0.37959814 0.005
v 0.118701704 -0.335085 0.005
v 0.2621329 -0.15703246 0.005
v 0.37341577 0.06800618 0.005
v 0.3981453 0.15703246 0.005
v 0.40061826 0.22998455 0.005
v 0.37588874 0.29180834 0.005
v 0.29180834 0.34868625 0.005
v 0.15085007 0.38083464 0.005
v -0.043276664 0.38825348 -0.005
v -0.22380216 0.36846986 -0.005
v -0.3251932 0.3313756 -0.005
v -0.38948995 0.26955178 -0.005
v -0.39938176 0.17434312 -0.005
v -0.3400309 -0.008655332 -0.005
v -0.21638331 -0.22132921 -0.005
v -0.10510047 -0.3449768 -0.005
v -0.043276664 -0.37959814 -0.005
v 0.012364761 -0.387017 -0.005
v 0.04451314 -0.37959814 -0.005
v 0.118701704 -0.335085 -0.005
v 0.2621329 -0.15703246 -0.005
v 0.37341577 0.06800618 -0.005
v 0.3981453 0.15703246 -0.005
v 0.40061826 0.22998455 -0.005
v 0.37588874 0.29180834 -0.005
v 0.29180834 0.34868625 -0.005
v 0.15085007 0.38083464 -0.005
vn 0 0 1
vn 0 0 1
vn 0 0 1
vn 0 0 1
vn 0 0 1
vn 0 0 1
vn 0 0 1
vn 0 0 1
vn 0 0 1
vn 0 0 1
vn 0 0 1
vn 0 0 1
vn 0 0 1
vn 0 0 1
vn 0 0 1
vn 0 0 1
vn 0 0 1
vn 0 0 1
vn 0 0 1
vn 0 0 -1
vn 0 0 -1
vn 0 0 -1
vn 0 0 -1
vn 0 0 -1
vn 0 0 -1
vn 0 0 -1
vn 0 0 -1
vn 0 0 -1
vn 0 0 -1
vn 0 0 -1
vn 0 0 -1
vn 0 0 -1
vn 0 0 -1
vn 0 0 -1
vn 0 0 -1
vn 0 0 -1
vn 0 0 -1
vn 0 0 -1
vt 0.5540958 0.014683157
vt 0.77975273 0.039412677
vt 0.9064915 0.0857805
vt 0.9868624 0.16306028
vt 0.99922717 0.2820711
vt 0.92503864 0.51081914
vt 0.77047914 0.7766615
vt 0.63137555 0.931221
vt 0.5540958 0.9744977
vt 0.48454404 0.98377126
vt 0.4443586 0.9744977
vt 0.35162288 0.91885626
vt 0.17233387 0.69629055
vt 0.033230305 0.41499227
vt 0.0023183823 0.30370945
vt -0.0007728338 0.21251932
vt 0.030139089 0.13523957
vt 0.13523957 0.0641422
vt 0.31143743 0.023956716
vt 0.5540958 0.014683157
vt 0.77975273 0.039412677
vt 0.9064915 0.0857805
vt 0.9868624 0.16306028
vt 0.99922717 0.2820711
vt 0.92503864 0.51081914
vt 0.77047914 0.7766615
vt 0.63137555 0.931221
vt 0.5540958 0.9744977
vt 0.48454404 0.98377126
vt 0.4443586 0.9744977
vt 0.35162288 0.91885626
vt 0.17233387 0.69629055
vt 0.033230305 0.41499227
vt 0.0023183823 0.30370945
vt -0.0007728338 0.21251932
vt 0.030139089 0.13523957
vt 0.13523957 0.0641422
vt 0.31143743 0.023956716
s off
f 18/18/18 19/19/19 1/1/1
f 1/1/1 2/2/2 3/3/3
f 3/3/3 4/4/4 5/5/5
f 5/5/5 6/6/6 7/7/7
f 7/7/7 8/8/8 9/9/9
f 9/9/9 10/10/10 11/11/11
f 11/11/11 12/12/12 13/13/13
f 13/13/13 14/14/14 15/15/15
f 15/15/15 16/16/16 17/17/17
f 17/17/17 18/18/18 1/1/1
f 1/1/1 3/3/3 5/5/5
f 5/5/5 7/7/7 9/9/9
f 9/9/9 11/11/11 13/13/13
f 13/13/13 15/15/15 17/17/17
f 17/17/17 1/1/1 5/5/5
f 5/5/5 9/9/9 13/13/13
f 13/13/13 17/17/17 5/5/5
f 20/20/20 38/38/38 37/37/37
f 22/22/22 21/21/21 20/20/20
f 24/24/24 23/23/23 22/22/22
f 26/26/26 25/25/25 24/24/24
f 28/28/28 27/27/27 26/26/26
f 30/30/30 29/29/29 28/28/28
f 32/32/32 31/31/31 30/30/30
f 34/34/34 33/33/33 32/32/32
f 36/36/36 35/35/35 34/34/34
f 20/20/20 37/37/37 36/36/36
f 24/24/24 22/22/22 20/20/20
f 28/28/28 26/26/26 24/24/24
f 32/32/32 30/30/30 28/28/28
f 36/36/36 34/34/34 32/32/32
f 24/24/24 20/20/20 36/36/36
f 32/32/32 28/28/28 24/24/24
f 24/24/24 36/36/36 32/32/32
