mtllib office_001.mtl
o office_001
v -4.8 0 -4.6
v 4.8 0 -4.6
v 4.8 0 4.6
v -4.8 0 4.6
v -4.8 15.5 -4.6
v 4.8 15.5 -4.6
v 4.8 15.5 4.6
v -4.8 15.5 4.6
usemtl OfficeWall
f 1 3 2
f 1 4 3
f 5 6 7
f 5 7 8
f 1 2 6
f 1 6 5
f 4 8 7
f 4 7 3
f 1 5 8
f 1 8 4
f 2 3 7
f 2 7 6
v -4.95 2 -4.78
v 4.95 2 -4.78
v 4.95 2 -4.48
v -4.95 2 -4.48
v -4.95 3.1 -4.78
v 4.95 3.1 -4.78
v 4.95 3.1 -4.48
v -4.95 3.1 -4.48
usemtl OfficeGlass
f 9 11 10
f 9 12 11
f 13 14 15
f 13 15 16
f 9 10 14
f 9 14 13
f 12 16 15
f 12 15 11
f 9 13 16
f 9 16 12
f 10 11 15
f 10 15 14
v -4.95 5.2 -4.78
v 4.95 5.2 -4.78
v 4.95 5.2 -4.48
v -4.95 5.2 -4.48
v -4.95 6.3 -4.78
v 4.95 6.3 -4.78
v 4.95 6.3 -4.48
v -4.95 6.3 -4.48
usemtl OfficeGlass
f 17 19 18
f 17 20 19
f 21 22 23
f 21 23 24
f 17 18 22
f 17 22 21
f 20 24 23
f 20 23 19
f 17 21 24
f 17 24 20
f 18 19 23
f 18 23 22
v -4.95 8.4 -4.78
v 4.95 8.4 -4.78
v 4.95 8.4 -4.48
v -4.95 8.4 -4.48
v -4.95 9.5 -4.78
v 4.95 9.5 -4.78
v 4.95 9.5 -4.48
v -4.95 9.5 -4.48
usemtl OfficeGlass
f 25 27 26
f 25 28 27
f 29 30 31
f 29 31 32
f 25 26 30
f 25 30 29
f 28 32 31
f 28 31 27
f 25 29 32
f 25 32 28
f 26 27 31
f 26 31 30
v -4.95 11.6 -4.78
v 4.95 11.6 -4.78
v 4.95 11.6 -4.48
v -4.95 11.6 -4.48
v -4.95 12.7 -4.78
v 4.95 12.7 -4.78
v 4.95 12.7 -4.48
v -4.95 12.7 -4.48
usemtl OfficeGlass
f 33 35 34
f 33 36 35
f 37 38 39
f 37 39 40
f 33 34 38
f 33 38 37
f 36 40 39
f 36 39 35
f 33 37 40
f 33 40 36
f 34 35 39
f 34 39 38
v -5.1 15.5 -4.9
v 5.1 15.5 -4.9
v 5.1 15.5 4.9
v -5.1 15.5 4.9
v -5.1 16 -4.9
v 5.1 16 -4.9
v 5.1 16 4.9
v -5.1 16 4.9
usemtl OfficeRoof
f 41 43 42
f 41 44 43
f 45 46 47
f 45 47 48
f 41 42 46
f 41 46 45
f 44 48 47
f 44 47 43
f 41 45 48
f 41 48 44
f 42 43 47
f 42 47 46
