# Blender 4.5.0
# www.blender.org
mtllib guide.mtl
o pole
v -0.200000 0.000000 0.000000
v -0.200000 7.000000 0.000000
v -0.184776 0.000000 -0.076537
v -0.184776 7.000000 -0.076537
v -0.141421 0.000000 -0.141421
v -0.141421 7.000000 -0.141421
v -0.076537 0.000000 -0.184776
v -0.076537 7.000000 -0.184776
v -0.000000 0.000000 -0.200000
v -0.000000 7.000000 -0.200000
v 0.076537 0.000000 -0.184776
v 0.076537 7.000000 -0.184776
v 0.141421 0.000000 -0.141421
v 0.141421 7.000000 -0.141421
v 0.184776 0.000000 -0.076537
v 0.184776 7.000000 -0.076537
v 0.200000 0.000000 -0.000000
v 0.200000 7.000000 -0.000000
v 0.184776 0.000000 0.076537
v 0.184776 7.000000 0.076537
v 0.141421 0.000000 0.141421
v 0.141421 7.000000 0.141421
v 0.076537 0.000000 0.184776
v 0.076537 7.000000 0.184776
v 0.000000 0.000000 0.200000
v 0.000000 7.000000 0.200000
v -0.076537 0.000000 0.184776
v -0.076537 7.000000 0.184776
v -0.141421 0.000000 0.141421
v -0.141421 7.000000 0.141421
v -0.184776 0.000000 0.076537
v -0.184776 7.000000 0.076537
v -0.000000 5.349999 -0.000000
v 3.000000 5.349998 -0.000000
v -0.000000 5.342387 -0.038268
v 3.000000 5.342387 -0.038268
v -0.000000 5.320709 -0.070711
v 3.000000 5.320709 -0.070711
v -0.000000 5.288267 -0.092388
v 3.000000 5.288267 -0.092388
v -0.000000 5.249999 -0.100000
v 3.000000 5.249999 -0.100000
v -0.000000 5.211730 -0.092388
v 3.000000 5.211730 -0.092388
v -0.000000 5.179288 -0.070711
v 3.000000 5.179288 -0.070711
v -0.000000 5.157611 -0.038268
v 3.000000 5.157611 -0.038268
v -0.000000 5.149999 -0.000000
v 3.000000 5.149999 -0.000000
v 0.000000 5.157611 0.038268
v 3.000000 5.157611 0.038268
v 0.000000 5.179288 0.070711
v 3.000000 5.179288 0.070711
v 0.000000 5.211730 0.092388
v 3.000000 5.211730 0.092388
v 0.000000 5.249999 0.100000
v 3.000000 5.249999 0.100000
v 0.000000 5.288267 0.092388
v 3.000000 5.288267 0.092388
v 0.000000 5.320709 0.070711
v 3.000000 5.320709 0.070711
v 0.000000 5.342387 0.038268
v 3.000000 5.342387 0.038268
v 0.000000 6.349999 -0.000000
v 3.000000 6.349999 -0.000000
v 0.000000 6.342388 -0.038268
v 3.000000 6.342387 -0.038269
v 0.000000 6.320710 -0.070711
v 3.000000 6.320710 -0.070711
v 0.000000 6.288268 -0.092388
v 3.000000 6.288268 -0.092388
v 0.000000 6.250000 -0.100000
v 3.000000 6.250000 -0.100000
v 0.000000 6.211731 -0.092388
v 3.000000 6.211731 -0.092388
v 0.000000 6.179288 -0.070711
v 3.000000 6.179288 -0.070711
v 0.000000 6.157611 -0.038268
v 3.000000 6.157611 -0.038269
v 0.000000 6.149999 -0.000000
v 3.000000 6.149999 -0.000000
v 0.000000 6.157611 0.038268
v 3.000000 6.157611 0.038268
v 0.000000 6.179288 0.070711
v 3.000000 6.179288 0.070711
v 0.000000 6.211731 0.092388
v 3.000000 6.211731 0.092388
v 0.000000 6.250000 0.100000
v 3.000000 6.250000 0.100000
v 0.000000 6.288268 0.092388
v 3.000000 6.288268 0.092388
v 0.000000 6.320710 0.070711
v 3.000000 6.320710 0.070711
v 0.000000 6.342388 0.038268
v 3.000000 6.342387 0.038268
vn -0.9808 -0.0000 -0.1951
vn -0.8315 -0.0000 -0.5556
vn -0.5556 -0.0000 -0.8315
vn -0.1951 -0.0000 -0.9808
vn 0.1951 -0.0000 -0.9808
vn 0.5556 -0.0000 -0.8315
vn 0.8315 -0.0000 -0.5556
vn 0.9808 -0.0000 -0.1951
vn 0.9808 -0.0000 0.1951
vn 0.8315 -0.0000 0.5556
vn 0.5556 -0.0000 0.8315
vn 0.1951 -0.0000 0.9808
vn -0.1951 -0.0000 0.9808
vn -0.5556 -0.0000 0.8315
vn -0.0000 1.0000 -0.0000
vn -0.8315 -0.0000 0.5556
vn -0.9808 -0.0000 0.1951
vn -0.0000 -1.0000 -0.0000
vn -0.0000 0.9808 -0.1951
vn -0.0000 0.8315 -0.5556
vn -0.0000 0.5556 -0.8315
vn -0.0000 0.1951 -0.9808
vn -0.0000 -0.1951 -0.9808
vn -0.0000 -0.5556 -0.8315
vn -0.0000 -0.8315 -0.5556
vn -0.0000 -0.9808 -0.1951
vn -0.0000 -0.9808 0.1951
vn -0.0000 -0.8315 0.5556
vn -0.0000 -0.5556 0.8315
vn -0.0000 -0.1951 0.9808
vn -0.0000 0.1951 0.9808
vn -0.0000 0.5556 0.8315
vn 1.0000 -0.0000 -0.0000
vn -0.0000 0.8315 0.5556
vn -0.0000 0.9808 0.1951
vn -1.0000 -0.0000 -0.0000
vt 1.000000 0.500000
vt 1.000000 1.000000
vt 0.937500 1.000000
vt 0.937500 0.500000
vt 0.875000 1.000000
vt 0.875000 0.500000
vt 0.812500 1.000000
vt 0.812500 0.500000
vt 0.750000 1.000000
vt 0.750000 0.500000
vt 0.687500 1.000000
vt 0.687500 0.500000
vt 0.625000 1.000000
vt 0.625000 0.500000
vt 0.562500 1.000000
vt 0.562500 0.500000
vt 0.500000 1.000000
vt 0.500000 0.500000
vt 0.437500 1.000000
vt 0.437500 0.500000
vt 0.375000 1.000000
vt 0.375000 0.500000
vt 0.312500 1.000000
vt 0.312500 0.500000
vt 0.250000 1.000000
vt 0.250000 0.500000
vt 0.187500 1.000000
vt 0.187500 0.500000
vt 0.125000 1.000000
vt 0.125000 0.500000
vt 0.341844 0.471731
vt 0.250000 0.490000
vt 0.158156 0.471731
vt 0.080294 0.419706
vt 0.028269 0.341844
vt 0.010000 0.250000
vt 0.028269 0.158156
vt 0.080294 0.080294
vt 0.158156 0.028269
vt 0.250000 0.010000
vt 0.341844 0.028269
vt 0.419706 0.080294
vt 0.471731 0.158156
vt 0.490000 0.250000
vt 0.471731 0.341844
vt 0.419706 0.419706
vt 0.062500 1.000000
vt 0.062500 0.500000
vt 0.000000 1.000000
vt 0.000000 0.500000
vt 0.750000 0.490000
vt 0.841844 0.471731
vt 0.919706 0.419706
vt 0.971731 0.341844
vt 0.990000 0.250000
vt 0.971731 0.158156
vt 0.919706 0.080294
vt 0.841844 0.028269
vt 0.750000 0.010000
vt 0.658156 0.028269
vt 0.580294 0.080294
vt 0.528269 0.158156
vt 0.510000 0.250000
vt 0.528269 0.341844
vt 0.580294 0.419706
vt 0.658156 0.471731
s 0
f 1/1/1 2/2/1 4/3/1 3/4/1
f 3/4/2 4/3/2 6/5/2 5/6/2
f 5/6/3 6/5/3 8/7/3 7/8/3
f 7/8/4 8/7/4 10/9/4 9/10/4
f 9/10/5 10/9/5 12/11/5 11/12/5
f 11/12/6 12/11/6 14/13/6 13/14/6
f 13/14/7 14/13/7 16/15/7 15/16/7
f 15/16/8 16/15/8 18/17/8 17/18/8
f 17/18/9 18/17/9 20/19/9 19/20/9
f 19/20/10 20/19/10 22/21/10 21/22/10
f 21/22/11 22/21/11 24/23/11 23/24/11
f 23/24/12 24/23/12 26/25/12 25/26/12
f 25/26/13 26/25/13 28/27/13 27/28/13
f 27/28/14 28/27/14 30/29/14 29/30/14
f 4/31/15 2/32/15 32/33/15 30/34/15 28/35/15 26/36/15 24/37/15 22/38/15 20/39/15 18/40/15 16/41/15 14/42/15 12/43/15 10/44/15 8/45/15 6/46/15
f 29/30/16 30/29/16 32/47/16 31/48/16
f 31/48/17 32/47/17 2/49/17 1/50/17
f 1/51/18 3/52/18 5/53/18 7/54/18 9/55/18 11/56/18 13/57/18 15/58/18 17/59/18 19/60/18 21/61/18 23/62/18 25/63/18 27/64/18 29/65/18 31/66/18
f 33/1/19 34/2/19 36/3/19 35/4/19
f 35/4/20 36/3/20 38/5/20 37/6/20
f 37/6/21 38/5/21 40/7/21 39/8/21
f 39/8/22 40/7/22 42/9/22 41/10/22
f 41/10/23 42/9/23 44/11/23 43/12/23
f 43/12/24 44/11/24 46/13/24 45/14/24
f 45/14/25 46/13/25 48/15/25 47/16/25
f 47/16/26 48/15/26 50/17/26 49/18/26
f 49/18/27 50/17/27 52/19/27 51/20/27
f 51/20/28 52/19/28 54/21/28 53/22/28
f 53/22/29 54/21/29 56/23/29 55/24/29
f 55/24/30 56/23/30 58/25/30 57/26/30
f 57/26/31 58/25/31 60/27/31 59/28/31
f 59/28/32 60/27/32 62/29/32 61/30/32
f 36/31/33 34/32/33 64/33/33 62/34/33 60/35/33 58/36/33 56/37/33 54/38/33 52/39/33 50/40/33 48/41/33 46/42/33 44/43/33 42/44/33 40/45/33 38/46/33
f 61/30/34 62/29/34 64/47/34 63/48/34
f 63/48/35 64/47/35 34/49/35 33/50/35
f 33/51/36 35/52/36 37/53/36 39/54/36 41/55/36 43/56/36 45/57/36 47/58/36 49/59/36 51/60/36 53/61/36 55/62/36 57/63/36 59/64/36 61/65/36 63/66/36
f 65/1/19 66/2/19 68/3/19 67/4/19
f 67/4/20 68/3/20 70/5/20 69/6/20
f 69/6/21 70/5/21 72/7/21 71/8/21
f 71/8/22 72/7/22 74/9/22 73/10/22
f 73/10/23 74/9/23 76/11/23 75/12/23
f 75/12/24 76/11/24 78/13/24 77/14/24
f 77/14/25 78/13/25 80/15/25 79/16/25
f 79/16/26 80/15/26 82/17/26 81/18/26
f 81/18/27 82/17/27 84/19/27 83/20/27
f 83/20/28 84/19/28 86/21/28 85/22/28
f 85/22/29 86/21/29 88/23/29 87/24/29
f 87/24/30 88/23/30 90/25/30 89/26/30
f 89/26/31 90/25/31 92/27/31 91/28/31
f 91/28/32 92/27/32 94/29/32 93/30/32
f 68/31/33 66/32/33 96/33/33 94/34/33 92/35/33 90/36/33 88/37/33 86/38/33 84/39/33 82/40/33 80/41/33 78/42/33 76/43/33 74/44/33 72/45/33 70/46/33
f 93/30/34 94/29/34 96/47/34 95/48/34
f 95/48/35 96/47/35 66/49/35 65/50/35
f 65/51/36 67/52/36 69/53/36 71/54/36 73/55/36 75/56/36 77/57/36 79/58/36 81/59/36 83/60/36 85/61/36 87/62/36 89/63/36 91/64/36 93/65/36 95/66/36
