# Onigiri (national route sign shape, extracted from national_route.png)
# width=0.6m height=0.5814m verts=46 (single-sided)
o Onigiri
v -0.218266 0.260991 0.000000
v -0.249845 0.244272 0.000000
v -0.268421 0.231269 0.000000
v -0.283282 0.216409 0.000000
v -0.294427 0.195975 0.000000
v -0.300000 0.173684 0.000000
v -0.300000 0.129102 0.000000
v -0.296285 0.106811 0.000000
v -0.277709 0.045511 0.000000
v -0.257276 -0.002786 0.000000
v -0.218266 -0.080805 0.000000
v -0.177399 -0.145820 0.000000
v -0.121672 -0.218266 0.000000
v -0.088235 -0.251703 0.000000
v -0.062229 -0.270279 0.000000
v -0.026935 -0.286997 0.000000
v -0.008359 -0.290712 0.000000
v 0.010217 -0.290712 0.000000
v 0.032508 -0.285139 0.000000
v 0.071517 -0.264706 0.000000
v 0.088235 -0.251703 0.000000
v 0.119814 -0.220124 0.000000
v 0.181115 -0.140248 0.000000
v 0.223839 -0.069659 0.000000
v 0.268421 0.023220 0.000000
v 0.292570 0.091950 0.000000
v 0.300000 0.129102 0.000000
v 0.300000 0.173684 0.000000
v 0.292570 0.201548 0.000000
v 0.285139 0.214551 0.000000
v 0.268421 0.231269 0.000000
v 0.244272 0.247988 0.000000
v 0.221981 0.259133 0.000000
v 0.168111 0.275851 0.000000
v 0.112384 0.285139 0.000000
v 0.075232 0.286997 0.000000
v 0.073375 0.288854 0.000000
v 0.036223 0.288854 0.000000
v 0.034365 0.290712 0.000000
v -0.073375 0.288854 0.000000
v -0.075232 0.286997 0.000000
v -0.095666 0.286997 0.000000
v -0.097523 0.285139 0.000000
v -0.112384 0.285139 0.000000
v -0.149536 0.279567 0.000000
v -0.190402 0.270279 0.000000
vt 0.847059 0.085294
vt 0.897059 0.111765
vt 0.926471 0.132353
vt 0.950000 0.155882
vt 0.967647 0.188235
vt 0.976471 0.223529
vt 0.976471 0.294118
vt 0.970588 0.329412
vt 0.941176 0.426471
vt 0.908824 0.502941
vt 0.847059 0.626471
vt 0.782353 0.729412
vt 0.694118 0.844118
vt 0.641176 0.897059
vt 0.600000 0.926471
vt 0.544118 0.952941
vt 0.514706 0.958824
vt 0.485294 0.958824
vt 0.450000 0.950000
vt 0.388235 0.917647
vt 0.361765 0.897059
vt 0.311765 0.847059
vt 0.214706 0.720588
vt 0.147059 0.608824
vt 0.076471 0.461765
vt 0.038235 0.352941
vt 0.026471 0.294118
vt 0.026471 0.223529
vt 0.038235 0.179412
vt 0.050000 0.158824
vt 0.076471 0.132353
vt 0.114706 0.105882
vt 0.150000 0.088235
vt 0.235294 0.061765
vt 0.323529 0.047059
vt 0.382353 0.044118
vt 0.385294 0.041176
vt 0.444118 0.041176
vt 0.447059 0.038235
vt 0.617647 0.041176
vt 0.620588 0.044118
vt 0.652941 0.044118
vt 0.655882 0.047059
vt 0.679412 0.047059
vt 0.738235 0.055882
vt 0.802941 0.070588
vn 0.0 0.0 1.0
f 1/1/1 2/2/1 3/3/1
f 1/1/1 3/3/1 4/4/1
f 1/1/1 4/4/1 5/5/1
f 1/1/1 5/5/1 6/6/1
f 1/1/1 6/6/1 7/7/1
f 1/1/1 7/7/1 8/8/1
f 1/1/1 8/8/1 9/9/1
f 1/1/1 9/9/1 10/10/1
f 1/1/1 10/10/1 11/11/1
f 1/1/1 11/11/1 12/12/1
f 1/1/1 12/12/1 13/13/1
f 1/1/1 13/13/1 14/14/1
f 1/1/1 14/14/1 15/15/1
f 1/1/1 15/15/1 16/16/1
f 1/1/1 16/16/1 17/17/1
f 1/1/1 17/17/1 18/18/1
f 1/1/1 18/18/1 19/19/1
f 1/1/1 19/19/1 20/20/1
f 1/1/1 20/20/1 21/21/1
f 1/1/1 21/21/1 22/22/1
f 1/1/1 22/22/1 23/23/1
f 1/1/1 23/23/1 24/24/1
f 1/1/1 24/24/1 25/25/1
f 1/1/1 25/25/1 26/26/1
f 1/1/1 26/26/1 27/27/1
f 1/1/1 27/27/1 28/28/1
f 1/1/1 28/28/1 29/29/1
f 1/1/1 29/29/1 30/30/1
f 1/1/1 30/30/1 31/31/1
f 1/1/1 31/31/1 32/32/1
f 1/1/1 32/32/1 33/33/1
f 1/1/1 33/33/1 34/34/1
f 1/1/1 34/34/1 35/35/1
f 1/1/1 35/35/1 36/36/1
f 1/1/1 36/36/1 37/37/1
f 1/1/1 37/37/1 38/38/1
f 1/1/1 38/38/1 39/39/1
f 1/1/1 39/39/1 40/40/1
f 1/1/1 40/40/1 41/41/1
f 1/1/1 41/41/1 42/42/1
f 1/1/1 42/42/1 43/43/1
f 1/1/1 43/43/1 44/44/1
f 1/1/1 44/44/1 45/45/1
f 1/1/1 45/45/1 46/46/1
