# Blender 4.5.0
# www.blender.org
mtllib regional_trailer.lod2.mtl
o regional_trailer
v -0.299531 1.994216 9.915550
v -1.456479 1.541904 -9.350000
v 1.456354 1.541920 -9.350000
v -1.456354 1.354892 -9.350000
v -1.445842 1.549741 9.348593
v -1.444286 1.347075 9.348592
v -1.445151 3.217076 -9.251107
v -1.446968 3.129233 -9.251107
v -1.446059 3.173157 9.274192
v -1.464665 0.935324 -6.862423
v -1.492495 3.101075 -6.206438
v -1.461292 0.935324 -5.537577
v -1.484468 1.855740 -6.754499
v -1.486079 2.720087 -6.751212
v -1.483287 1.855740 -6.265501
v -1.484468 1.855740 -6.134499
v -1.481676 2.720087 -6.131212
v -1.483288 1.855740 -5.645501
v -1.495138 3.100288 -6.190153
v -1.494825 0.964999 -6.200000
v -1.494512 3.100288 -6.209847
v -1.492835 0.969596 -5.476143
v -1.540000 0.966937 -6.901956
v -1.445670 0.972255 -6.901956
v -1.461292 0.935324 0.662423
v -1.492495 3.101076 -0.006438
v -1.464665 0.935324 -0.662423
v -1.484468 1.855741 -0.554499
v -1.481676 2.720087 -0.551212
v -1.483288 1.855741 -0.065501
v -1.486079 2.720087 0.551212
v -1.483288 1.855741 0.554499
v -1.484468 1.855741 0.065501
v -1.494512 3.100288 -0.009848
v -1.495138 3.100288 0.009847
v -1.494825 0.964999 -0.000000
v -1.492835 0.969597 0.723857
v -1.540000 0.966938 -0.701956
v -1.445670 0.972256 -0.701956
v -1.492495 3.101076 6.193562
v -1.464665 0.935325 5.537577
v -1.461292 0.935325 6.862423
v -1.483288 2.719486 5.645501
v -1.484468 2.719486 6.134499
v -1.486079 1.855139 6.131212
v -1.481676 1.855139 6.751212
v -1.484468 2.719486 6.754499
v -1.483287 2.719486 6.265501
v -1.494825 3.105674 6.200000
v -1.495138 0.970385 6.190153
v -1.494512 0.970385 6.209847
v -1.492835 0.969597 5.476143
v -1.445670 0.966938 6.901956
v -1.540000 0.972256 6.901956
v -1.450881 1.853695 -7.693406
v -1.453181 2.999549 -7.693406
v -1.469734 2.922126 -9.055000
v -1.472492 1.917410 -9.054462
v -1.469734 1.920821 -7.745000
v -1.471378 2.925536 -9.054462
v -1.453181 2.999549 -3.493406
v -1.450881 1.853696 -3.493406
v -1.472492 2.925537 -3.545539
v -1.479686 2.936324 -5.171212
v -1.471378 1.917411 -3.545539
v -1.450881 2.999549 -2.806595
v -1.453181 1.853696 -2.806595
v -1.469734 2.922127 -1.445000
v -1.471378 2.925537 -2.754462
v -1.474137 1.920821 -1.445000
v -1.472492 1.917411 -2.754462
v -1.469734 2.922127 1.445000
v -1.450881 1.853696 2.806594
v -1.453181 2.999550 2.806594
v -1.474137 1.920822 1.445000
v -1.472492 2.925537 2.754461
v -1.471378 1.917411 2.754461
v -1.453181 1.853696 3.493405
v -1.450881 2.999549 3.493405
v -1.481676 2.716187 5.645000
v -1.471378 2.925537 3.545538
v -1.472492 1.917411 3.545538
v -1.474137 1.920822 4.855000
v -1.450881 2.999550 7.593406
v -1.469734 2.922127 8.955000
v -1.453181 1.853696 7.593406
v -1.469734 1.920822 7.645000
v -1.472492 2.925538 8.954461
v -1.471378 1.917412 8.954461
v -1.483801 3.120930 -4.425350
v -1.481964 2.937064 -4.425350
v -1.486079 2.940224 -5.175000
v 1.445842 1.549739 -9.348593
v 1.456354 1.354894 9.350000
v 1.444286 1.347073 -9.348592
v 1.446968 3.217076 -9.251107
v 1.446060 3.173157 9.274192
v 1.445150 3.129233 -9.251107
v 1.461292 0.935324 -6.862423
v 1.464665 0.935324 -5.537577
v 1.492495 3.101075 -6.193562
v 1.484468 2.719485 -6.754499
v 1.486079 1.855138 -6.751212
v 1.483287 2.719485 -6.265501
v 1.483288 1.855740 -6.134499
v 1.486079 2.720087 -6.131212
v 1.484468 1.855740 -5.645501
v 1.495138 3.100288 -6.209847
v 1.494825 0.964999 -6.200000
v 1.494512 3.100288 -6.190153
v 1.445670 0.966937 -6.901956
v 1.540000 0.972255 -6.901956
v 1.492835 0.969596 -5.476143
v 1.461292 0.935324 -0.662423
v 1.464665 0.935324 0.662423
v 1.492495 3.101076 0.006438
v 1.486079 2.720087 -0.551212
v 1.483288 1.855741 -0.554499
v 1.484468 1.855741 -0.065501
v 1.486079 2.720087 0.551212
v 1.483288 1.855741 0.065501
v 1.484468 1.855741 0.554499
v 1.494825 0.964999 -0.000000
v 1.494512 3.100288 0.009847
v 1.495138 3.100288 -0.009848
v 1.492835 0.969597 -0.723857
v 1.445670 0.972256 0.701955
v 1.540000 0.966938 0.701955
v 1.461292 0.935325 5.537577
v 1.492495 3.101076 6.206438
v 1.464665 0.935325 6.862423
v 1.481676 2.720088 6.131212
v 1.484468 1.855741 6.134499
v 1.483288 1.855741 5.645501
v 1.483287 1.855741 6.265501
v 1.484468 1.855741 6.754499
v 1.486079 2.720088 6.751212
v 1.494825 3.105674 6.200000
v 1.495138 0.970385 6.209847
v 1.494512 0.970385 6.190153
v 1.492835 0.969597 5.476143
v 1.445670 0.972256 6.901956
v 1.540000 0.966938 6.901956
v 1.453181 1.853695 -7.693406
v 1.469734 2.922126 -9.055000
v 1.450881 2.999549 -7.693406
v 1.472492 2.925536 -9.054462
v 1.474137 1.920821 -7.745000
v 1.471378 1.917410 -9.054462
v 1.453181 1.853696 -3.493406
v 1.450881 2.999549 -3.493406
v 1.479686 2.936324 -5.171212
v 1.471378 2.925537 -3.545539
v 1.472492 1.917411 -3.545539
v 1.453181 2.999549 -2.806595
v 1.469734 2.922127 -1.445000
v 1.450881 1.853696 -2.806595
v 1.472492 2.925537 -2.754462
v 1.469734 1.920821 -1.445000
v 1.471378 1.917411 -2.754462
v 1.469734 2.922127 1.445000
v 1.450881 2.999550 2.806594
v 1.453181 1.853696 2.806594
v 1.474137 1.920822 1.445000
v 1.471378 2.925537 2.754461
v 1.472492 1.917411 2.754461
v 1.450881 1.853696 3.493405
v 1.481676 2.716187 5.645000
v 1.453181 2.999549 3.493405
v 1.469734 1.920822 4.855000
v 1.472492 2.925537 3.545538
v 1.471378 1.917411 3.545538
v 1.469734 2.922127 8.955000
v 1.453181 2.999550 7.593406
v 1.450881 1.853696 7.593406
v 1.469734 1.920822 7.645000
v 1.472492 1.917412 8.954461
v 1.471378 2.925538 8.954461
v 1.486079 2.940224 -5.175000
v 1.481964 3.120930 -4.425350
v 1.483801 2.937064 -4.425350
v -0.516000 3.115891 -9.795200
v 0.516000 3.115891 -9.784800
v 0.126647 0.712171 -9.995566
v 0.383166 0.979147 -9.846132
v -0.379391 3.059887 -9.851212
v -0.383166 0.979147 -9.843868
v 0.238769 1.896388 -9.860716
v -0.235084 2.637710 -9.863712
v -0.238769 1.896388 -9.859284
v -0.125088 0.529945 -10.000000
v 0.125088 0.709051 -10.000000
v -0.125067 0.529914 -9.580000
v 0.126647 0.712172 9.584434
v -0.516000 3.115892 9.784800
v 0.516000 3.115892 9.795200
v 0.383166 0.979148 9.843868
v -0.182910 2.864246 9.861788
v -0.383166 0.979148 9.846132
v -0.179140 2.860345 9.861788
v 0.238769 1.896389 9.859284
v -0.238769 1.896389 9.860716
v 0.125067 0.529915 9.580000
v -0.125088 0.709052 10.000000
v 0.125088 0.529946 10.000000
v -1.328374 3.243861 9.816543
v 1.214172 1.972307 9.861788
v -1.328374 1.053347 9.823458
v -1.214172 2.860345 9.861788
v -0.177723 2.865583 9.871101
v -0.177723 1.967070 9.868898
v -1.159435 1.509392 9.899271
v -0.891626 1.503622 9.889230
v -0.891626 1.650619 9.890771
v -0.922432 1.335139 9.889997
v -1.106149 1.381997 9.889621
v -1.106148 1.288286 9.890379
v -0.712142 2.316319 9.913645
v -0.721669 2.301794 9.891297
v -0.292381 1.985699 9.904111
v 0.177723 2.865583 9.868898
v 1.214172 2.860345 9.878212
v 0.177723 1.967070 9.871101
v 1.159435 1.509392 9.880729
v 0.891626 1.650619 9.889230
v 0.891626 1.503622 9.890771
v 1.106148 1.381996 9.890380
v 0.922432 1.335142 9.889997
v 1.106149 1.288285 9.889621
v 0.294278 1.990527 9.914756
v 0.301984 1.984192 9.890304
v 0.723019 2.311129 9.903000
v -0.497169 3.163063 9.868759
v 0.559727 3.065037 9.870003
v -0.497169 2.967011 9.871241
v -0.793327 1.448408 9.910000
v 0.755409 1.379198 9.909349
v 0.755409 1.517618 9.910651
v -1.289824 0.912957 9.730011
v 1.115538 1.203893 9.736331
v 1.115540 0.622041 9.723666
v -0.641919 0.266533 -7.957216
v -1.010857 0.628913 -5.450000
v 1.010857 0.270283 -5.450000
v -0.645689 0.415198 -7.248165
v -0.787433 0.415198 -7.931836
v -0.645689 -0.000001 -7.851630
v -0.802129 0.273688 -7.308476
v -0.806131 0.020268 -7.654830
v -0.810132 0.418056 -7.831726
v -0.800837 0.270526 -7.566360
v -0.797949 0.481386 -7.590809
v -0.786265 0.273410 -7.610546
v -0.809910 0.269090 -7.609578
v -0.813634 0.264414 -7.574975
v -0.796346 0.245268 -7.585510
v -0.798992 0.291806 -7.600137
v -0.798170 0.335861 -7.394467
v -0.774276 0.271889 -7.595537
v -0.774544 0.265631 -7.592099
v -0.774606 0.266258 -7.592911
v -0.778246 0.273573 -7.589730
v -0.774544 0.266179 -7.587168
v -0.774606 0.265579 -7.587998
v -0.777905 0.268199 -7.591605
v -0.774606 0.273703 -7.589438
v -0.777714 0.269400 -7.591605
v -0.795307 0.281854 -7.570502
v -0.810434 0.254005 -7.604135
v -0.793527 0.253444 -7.607662
v -0.825445 0.268440 -7.585227
v -0.821794 0.266179 -7.592833
v -0.821732 0.265579 -7.592002
v -0.821794 0.273720 -7.589547
v -0.818433 0.269400 -7.591985
v -0.821732 0.266258 -7.587089
v -0.818624 0.268428 -7.591299
v -0.790601 0.113697 -7.467489
v -0.798280 0.250429 -7.571068
v -0.799125 0.097871 -7.711032
v -0.797026 0.281936 -7.613688
v -0.810112 0.279416 -7.603388
v -0.788634 0.279445 -7.603426
v -0.796345 0.291643 -7.579860
v -0.798169 0.333979 -7.786128
v -0.798990 0.245138 -7.594584
v 0.645689 0.415198 -7.931836
v 0.787433 0.415198 -7.248165
v 0.787433 -0.000001 -7.851630
v 0.802129 0.265112 -7.308476
v 0.806131 0.518532 -7.654830
v 0.810132 0.120744 -7.831726
v 0.813625 0.264330 -7.574944
v 0.793051 0.277001 -7.560387
v 0.798871 0.457382 -7.611161
v 0.810112 0.269400 -7.606350
v 0.815829 0.267085 -7.600103
v 0.821794 0.273720 -7.590453
v 0.821732 0.273703 -7.589438
v 0.821794 0.265631 -7.592099
v 0.803024 0.255659 -7.602090
v 0.818426 0.268126 -7.588297
v 0.822377 0.272215 -7.592681
v 0.826632 0.269163 -7.590317
v 0.788753 0.269400 -7.606386
v 0.799992 0.245268 -7.585510
v 0.798168 0.335861 -7.394467
v 0.797347 0.291806 -7.600137
v 0.797610 0.281331 -7.565991
v 0.788403 0.279687 -7.576250
v 0.810434 0.278484 -7.571413
v 0.803346 0.096037 -7.470939
v 0.815268 0.116209 -7.540499
v 0.786226 0.259384 -7.603388
v 0.803260 0.255655 -7.569578
v 0.854800 0.214806 -7.629993
v 0.774544 0.265631 -7.587901
v 0.774606 0.266258 -7.587089
v 0.772959 0.269957 -7.593223
v 0.774606 0.273703 -7.590562
v 0.774627 0.265154 -7.593734
v 0.774606 0.265579 -7.592002
v 0.777722 0.270363 -7.591287
v 0.797348 0.245138 -7.594584
v 0.799993 0.291643 -7.579860
v 0.798169 0.333979 -7.786128
v -0.741337 0.256732 -7.582897
v 0.722727 0.299852 -7.525970
v 0.712426 0.226285 -7.654581
v -0.645689 0.415198 -5.568164
v -0.787433 0.415198 -6.251835
v -0.645689 -0.000000 -6.171629
v -0.802129 0.273688 -5.628476
v -0.810132 0.418057 -6.151725
v -0.806131 0.020268 -5.974829
v -0.798093 0.273314 -5.883823
v -0.794361 0.271418 -5.933659
v -0.786226 0.269400 -5.926548
v -0.793988 0.481241 -5.909256
v -0.810372 0.273720 -5.930332
v -0.821789 0.463112 -5.910461
v -0.798991 0.291804 -5.920139
v -0.798172 0.335861 -5.714468
v -0.796346 0.245267 -5.905510
v -0.794727 0.281005 -5.889781
v -0.785904 0.278484 -5.891413
v -0.791572 0.248604 -5.926867
v -0.788634 0.259355 -5.923426
v -0.810434 0.254005 -5.924134
v -0.778642 0.096662 -5.790873
v -0.777159 0.267304 -5.907642
v -0.774544 0.273720 -5.910453
v -0.774606 0.273703 -5.909438
v -0.774544 0.265631 -5.912099
v -0.774606 0.266258 -5.912911
v -0.777472 0.270492 -5.911459
v -0.769706 0.269163 -5.910316
v -0.772399 0.274863 -5.909799
v -0.810035 0.278296 -5.890772
v -0.814436 0.100651 -5.787937
v -0.820169 0.110618 -5.802021
v -0.794825 0.254725 -5.891148
v -0.793491 0.281751 -5.930223
v -0.827880 0.267222 -5.909212
v -0.817479 0.269400 -5.909614
v -0.821794 0.273720 -5.909547
v -0.821990 0.268597 -5.910706
v -0.821732 0.265579 -5.912002
v -0.818624 0.270372 -5.911299
v -0.823939 0.270570 -5.914880
v -0.822377 0.271558 -5.910828
v -0.798951 0.097570 -6.030585
v -0.810434 0.278484 -5.928587
v -0.798991 0.245138 -5.914586
v -0.798171 0.333978 -6.106128
v -0.796345 0.291644 -5.899860
v 0.787433 0.415198 -5.568164
v 0.645689 0.415198 -6.251835
v 0.787433 -0.000000 -6.171629
v 0.806131 0.518532 -5.974829
v 0.810132 0.120744 -6.151725
v 0.802129 0.265113 -5.628476
v 0.795501 0.270525 -5.886360
v 0.782703 0.264414 -5.894976
v 0.770893 0.268440 -5.905226
v 0.774544 0.266179 -5.912832
v 0.774606 0.265579 -5.912002
v 0.774544 0.273720 -5.909547
v 0.786428 0.269090 -5.929578
v 0.777905 0.269400 -5.911984
v 0.774606 0.266258 -5.907089
v 0.777714 0.268428 -5.911298
v 0.798389 0.481386 -5.910808
v 0.810073 0.273410 -5.930545
v 0.797347 0.291804 -5.920139
v 0.798165 0.335861 -5.714468
v 0.799992 0.245267 -5.905511
v 0.805735 0.113697 -5.787488
v 0.785904 0.254005 -5.924134
v 0.802810 0.253446 -5.927660
v 0.822061 0.271889 -5.915537
v 0.821794 0.265631 -5.912099
v 0.821732 0.266258 -5.912911
v 0.818092 0.273573 -5.909729
v 0.821794 0.266179 -5.907167
v 0.821732 0.265579 -5.907998
v 0.818433 0.268199 -5.911605
v 0.821732 0.273703 -5.909438
v 0.818624 0.269400 -5.911605
v 0.801031 0.281854 -5.890501
v 0.798062 0.250426 -5.891064
v 0.799309 0.281937 -5.933689
v 0.807704 0.279445 -5.923426
v 0.797215 0.097872 -6.031034
v 0.786226 0.279416 -5.923388
v 0.797347 0.245138 -5.914586
v 0.798167 0.333978 -6.106128
v 0.799993 0.291644 -5.899860
v -0.741337 0.256733 -5.902896
v 0.712426 0.226285 -5.974581
v 0.722727 0.299852 -5.845970
v 1.010857 0.628914 5.450000
v -1.010857 0.270283 5.450000
v 0.641919 0.266500 7.958117
v -0.645689 0.415199 6.251835
v -0.787433 0.415199 5.568164
v -0.645689 0.000000 5.648370
v -0.802129 0.273689 6.191524
v -0.806131 0.020269 5.845170
v -0.810132 0.418057 5.668275
v -0.797121 0.467509 5.886064
v -0.792765 0.474408 5.929622
v -0.770248 0.271526 5.910671
v -0.774544 0.265632 5.907901
v -0.789313 0.281632 5.890629
v -0.778971 0.269286 5.910153
v -0.761518 0.240059 5.937552
v -0.774606 0.265580 5.912002
v -0.774578 0.274288 5.909487
v -0.774606 0.273704 5.910562
v -0.777714 0.269401 5.908395
v -0.785904 0.273301 5.889777
v -0.796275 0.257898 5.913634
v -0.810372 0.273721 5.889668
v -0.821789 0.463113 5.909538
v -0.798992 0.291807 5.899863
v -0.798170 0.335862 6.105533
v -0.796346 0.245269 5.914490
v -0.793821 0.251351 5.892598
v -0.788740 0.259470 5.896725
v -0.810434 0.254006 5.895865
v -0.820169 0.110619 6.017979
v -0.817838 0.103127 6.030151
v -0.827867 0.267459 5.910872
v -0.817479 0.269401 5.910386
v -0.821794 0.273721 5.910453
v -0.821990 0.268598 5.909294
v -0.821732 0.265580 5.907998
v -0.818624 0.270373 5.908701
v -0.823939 0.270571 5.905119
v -0.822377 0.271629 5.909122
v -0.799969 0.253257 5.929315
v -0.798953 0.097570 5.789417
v -0.810434 0.278485 5.891413
v -0.788403 0.259114 5.923750
v -0.798990 0.245139 5.905416
v -0.796345 0.291644 5.920140
v -0.798169 0.333980 5.713873
v 0.787433 0.415199 6.251835
v 0.787433 0.000000 5.648370
v 0.645689 0.415199 5.568164
v 0.802129 0.265113 6.191524
v 0.806131 0.518533 5.845170
v 0.810132 0.120745 5.668275
v 0.770893 0.268441 5.914773
v 0.774544 0.266180 5.907167
v 0.774606 0.265580 5.907998
v 0.782704 0.264415 5.925025
v 0.774544 0.273721 5.910453
v 0.777905 0.269401 5.908015
v 0.774606 0.266259 5.912911
v 0.777714 0.268429 5.908701
v 0.795501 0.270527 5.933640
v 0.798389 0.481387 5.909192
v 0.810073 0.273411 5.889455
v 0.786428 0.269091 5.890422
v 0.799992 0.245269 5.914490
v 0.797347 0.291807 5.899863
v 0.798168 0.335862 6.105533
v 0.805736 0.113698 6.032512
v 0.785904 0.254006 5.895865
v 0.802811 0.253445 5.892338
v 0.801031 0.281855 5.929498
v 0.822061 0.271890 5.904463
v 0.821794 0.265632 5.907901
v 0.821732 0.266259 5.907089
v 0.818092 0.273574 5.910270
v 0.821794 0.266180 5.912832
v 0.821732 0.265580 5.912002
v 0.818433 0.268200 5.908395
v 0.821732 0.273704 5.910562
v 0.818624 0.269401 5.908395
v 0.799312 0.281937 5.886312
v 0.786226 0.279417 5.896612
v 0.797213 0.097872 5.788968
v 0.807704 0.279446 5.896574
v 0.798058 0.250431 5.928932
v 0.797348 0.245139 5.905417
v 0.798169 0.333980 5.713873
v 0.799993 0.291644 5.920140
v -0.741337 0.256733 5.917103
v 0.712426 0.226286 5.845420
v 0.722727 0.299854 5.974030
v -0.787433 0.415199 7.248165
v -0.645689 0.415199 7.931836
v -0.645689 0.000001 7.328371
v -0.802129 0.273689 7.871525
v -0.806131 0.020269 7.525171
v -0.810132 0.418058 7.348275
v -0.800837 0.270527 7.613640
v -0.786264 0.273411 7.569455
v -0.809910 0.269091 7.570422
v -0.797949 0.481387 7.589192
v -0.813635 0.264415 7.605024
v -0.825445 0.268441 7.594774
v -0.821794 0.266180 7.587168
v -0.821732 0.265580 7.587998
v -0.821794 0.273721 7.590453
v -0.818433 0.269401 7.588016
v -0.821732 0.266259 7.592911
v -0.818624 0.268429 7.588701
v -0.798991 0.291806 7.579861
v -0.796346 0.245269 7.594490
v -0.798172 0.335862 7.785532
v -0.793528 0.253447 7.572340
v -0.790602 0.113698 7.712512
v -0.810434 0.254006 7.575866
v -0.795307 0.281855 7.609499
v -0.797029 0.281938 7.566311
v -0.788634 0.279446 7.576574
v -0.799123 0.097873 7.468967
v -0.810112 0.279417 7.576612
v -0.774276 0.271890 7.584463
v -0.774544 0.265632 7.587901
v -0.774606 0.266259 7.587089
v -0.778246 0.273574 7.590271
v -0.774544 0.266180 7.592833
v -0.774606 0.265580 7.592002
v -0.777905 0.268200 7.588395
v -0.774606 0.273704 7.590562
v -0.777714 0.269401 7.588395
v -0.798275 0.250427 7.608937
v -0.798991 0.245139 7.585415
v -0.796345 0.291645 7.600140
v -0.798171 0.333979 7.393872
v 0.787433 0.000001 7.328371
v 0.787433 0.415199 7.931836
v 0.645689 0.415199 7.248165
v 0.806131 0.518533 7.525171
v 0.802129 0.265114 7.871525
v 0.810132 0.120745 7.348275
v 0.768460 0.267226 7.590792
v 0.778859 0.269401 7.590386
v 0.774544 0.273721 7.590453
v 0.774348 0.268598 7.589294
v 0.774606 0.265580 7.587998
v 0.777722 0.270364 7.588713
v 0.772399 0.270571 7.585120
v 0.773961 0.271559 7.589172
v 0.802350 0.481242 7.590745
v 0.814835 0.266297 7.575291
v 0.802790 0.272044 7.565471
v 0.785966 0.273721 7.569668
v 0.774549 0.463113 7.589539
v 0.798245 0.273315 7.616177
v 0.799992 0.245269 7.594490
v 0.797347 0.291805 7.579861
v 0.798165 0.335862 7.785532
v 0.801290 0.281263 7.610329
v 0.810434 0.278485 7.608587
v 0.799323 0.251576 7.573139
v 0.785904 0.254006 7.575866
v 0.815333 0.116243 7.639458
v 0.776169 0.110619 7.697979
v 0.774758 0.110680 7.702575
v 0.816048 0.103258 7.711010
v 0.786303 0.278297 7.609228
v 0.797387 0.097571 7.469416
v 0.785904 0.278485 7.571413
v 0.807269 0.281579 7.570631
v 0.803259 0.255655 7.610428
v 0.813625 0.264330 7.605056
v 0.821794 0.273721 7.589547
v 0.821732 0.273704 7.590562
v 0.821794 0.265632 7.587901
v 0.818426 0.268127 7.591703
v 0.822377 0.272216 7.587319
v 0.826632 0.269164 7.589684
v 0.797347 0.245139 7.585415
v 0.798167 0.333979 7.393872
v 0.799993 0.291645 7.600140
v -0.741337 0.256734 7.597105
v 0.712426 0.226286 7.525420
v 0.722727 0.299853 7.654030
v 0.641919 0.411452 -5.569671
v 0.861494 0.321960 -2.550000
v -0.861494 0.700799 -2.550000
v -0.861470 0.700913 -0.950000
v 0.861494 0.321961 0.950000
v -0.861494 0.700800 0.950000
v -0.861494 0.321961 2.550000
v 0.861494 0.700800 2.550000
v -0.641919 0.411480 5.570578
v 0.040587 3.946008 -5.470000
v -0.752034 3.923802 -3.100000
v 0.752034 3.606663 -3.100000
v -0.492386 3.951216 -3.331106
v -0.537421 3.951605 -5.494459
v -0.582455 3.952000 -3.331106
v -0.268710 3.951605 -5.494459
v -0.313745 3.952000 -3.331106
v -0.223676 3.951216 -3.331106
v 0.045034 3.951216 -3.331106
v -0.045034 3.952000 -3.331106
v 0.000000 3.951605 -5.494459
v 0.268710 3.951606 -5.494459
v 0.313745 3.951216 -3.331106
v 0.223676 3.952000 -3.331106
v 0.537421 3.951605 -5.494459
v 0.582455 3.951216 -3.331106
v 0.492386 3.952000 -3.331106
v 0.040587 3.946009 3.130000
v 0.752034 3.606664 5.500000
v -0.752034 3.923803 5.500000
v -0.537421 3.951606 3.105541
v -0.492386 3.951217 5.268894
v -0.582455 3.952000 5.268894
v -0.223676 3.952000 3.131106
v -0.268710 3.951607 5.294458
v -0.313745 3.951217 3.131105
v 0.000000 3.951606 3.105541
v -0.045034 3.952000 5.268894
v 0.045034 3.951217 5.268894
v 0.268710 3.951607 5.294458
v 0.223676 3.951217 3.131105
v 0.313745 3.952000 3.131105
v 0.537421 3.951606 3.105541
v 0.492386 3.952000 5.268894
v 0.582455 3.951217 5.268894
vn -0.7667 -0.6417 -0.0199
vn -0.6594 0.7447 -0.1030
vn -0.0115 0.8272 -0.5618
vn -0.9349 -0.3547 -0.0098
vn 0.8328 0.4566 0.3129
vn 0.0347 0.0189 0.9992
vn -0.6598 0.7443 -0.1031
vn -0.7664 -0.6420 -0.0197
vn 0.9996 0.0051 0.0294
vn 0.0418 0.0264 0.9988
vn -0.7665 -0.6419 -0.0197
vn -0.6593 0.7448 -0.1030
vn -0.7665 -0.6420 -0.0201
vn 0.0349 0.0193 0.9992
vn 0.1723 0.8367 -0.5198
vn 0.6103 -0.5477 -0.5724
vn -0.2295 0.1159 -0.9664
vn -0.2298 0.1163 -0.9663
vn 0.3515 -0.8732 -0.3376
vn 0.2191 -0.8997 -0.3774
vn 0.2191 -0.8997 -0.3775
vn -0.6387 0.2763 -0.7181
vn 0.7432 0.5409 -0.3937
vn -0.6866 0.2514 -0.6822
vn 0.6741 -0.2736 -0.6861
vn 0.1981 -0.9709 -0.1345
vn 0.4412 0.2856 -0.8507
vn -0.0182 -0.6555 -0.7549
vn 0.3331 -0.2225 0.9163
vn -0.0912 -0.9733 0.2108
vn -0.2408 0.9176 0.3164
vn 0.2192 -0.8998 -0.3773
vn 0.2191 -0.8998 -0.3774
vn -0.6387 0.2764 -0.7181
vn 0.7432 0.5410 -0.3938
vn 0.1754 -0.9741 -0.1429
vn 0.7571 -0.1836 -0.6270
vn 0.5810 -0.6026 -0.5470
vn -0.7145 -0.6093 0.3440
vn 0.9061 -0.4178 -0.0667
vn -0.2121 0.9195 0.3310
vn 0.2193 -0.8997 -0.3774
vn 0.2192 -0.8997 -0.3775
vn 0.7432 0.5410 -0.3937
vn 0.2194 -0.8997 -0.3775
vn -0.6388 0.2762 -0.7181
vn 0.7431 0.5410 -0.3937
vn 0.1978 -0.9710 -0.1346
vn 0.7729 -0.2473 -0.5843
vn 0.0151 -0.9962 -0.0861
vn 0.2953 -0.7331 -0.6127
vn -0.1642 -0.4036 0.9001
vn -0.2396 0.9175 0.3175
vn -0.0500 0.5207 0.8523
vn 0.7706 0.3485 0.5337
vn 0.1577 0.5190 0.8401
vn 0.3298 -0.6649 -0.6701
vn 0.4835 -0.6145 -0.6234
vn -0.1671 -0.6996 -0.6947
vn 0.9426 -0.2740 0.1908
vn 0.0238 -0.6853 0.7279
vn 0.9908 -0.0590 -0.1219
vn -0.0201 0.2719 0.9621
vn -0.0222 0.2820 0.9592
vn -0.8495 0.1683 0.5001
vn 0.6090 0.2265 0.7601
vn -0.9867 0.0008 0.1628
vn 0.3380 0.4427 -0.8305
vn 0.4808 0.4087 -0.7757
vn -0.1745 0.4754 -0.8623
vn 0.3298 -0.6649 -0.6702
vn 0.4835 -0.6144 -0.6235
vn -0.1670 -0.6995 -0.6948
vn 0.9426 -0.2740 0.1909
vn 0.0238 -0.6854 0.7278
vn 0.9908 -0.0592 -0.1215
vn -0.9867 0.0008 0.1626
vn 0.4693 -0.8817 0.0478
vn 0.4711 -0.0971 0.8767
vn 0.0481 0.7563 0.6525
vn 0.4228 0.4202 -0.8029
vn 0.8013 -0.5847 0.1265
vn -0.1039 0.4836 -0.8691
vn 0.7705 0.3485 0.5337
vn -0.1671 -0.6995 -0.6948
vn 0.9427 -0.2733 0.1914
vn 0.0238 -0.6853 0.7278
vn 0.9908 -0.0589 -0.1216
vn 0.4835 -0.6145 -0.6235
vn -0.1670 -0.6997 -0.6947
vn 0.0239 -0.6853 0.7279
vn 0.9908 -0.0588 -0.1219
vn -0.9867 0.0008 0.1625
vn 0.6089 0.2266 0.7602
vn 0.4268 0.4191 -0.8013
vn 0.7988 -0.5887 0.1240
vn -0.1008 0.4841 -0.8692
vn 0.7807 0.0677 -0.6212
vn 0.0386 0.9781 0.2043
vn -0.0009 0.9716 0.2366
vn -0.3932 -0.0029 -0.9195
vn -0.4081 -0.0008 -0.9129
vn 0.0017 -0.0255 -0.9997
vn -0.7393 0.2575 0.6222
vn 0.0598 0.6218 0.7809
vn -0.1327 0.9011 -0.4127
vn -0.1818 0.9716 0.1518
vn 0.7805 0.0660 -0.6216
vn 0.0386 0.9781 0.2044
vn 0.7797 0.0677 -0.6225
vn 0.0395 0.9782 0.2040
vn 0.7805 0.0663 -0.6216
vn 0.0346 0.6308 0.7752
vn -0.1499 0.9049 -0.3984
vn -0.2016 0.9711 0.1277
vn -0.0000 -0.0000 -0.0000
vn 0.4896 0.0493 -0.8705
vn -0.4155 -0.6122 -0.6727
vn -0.9352 0.1100 -0.3366
vn -0.0246 0.4654 -0.8848
vn -0.9923 -0.1234 -0.0148
vn 0.9567 0.0886 -0.2772
vn 0.8610 0.0501 -0.5061
vn 0.9894 0.1308 0.0629
vn -0.9881 -0.0753 0.1343
vn -0.6033 -0.5341 -0.5922
vn -0.2363 0.2913 -0.9270
vn -0.4515 -0.8679 0.2072
vn 0.5033 0.1009 -0.8582
vn 0.3264 0.1087 -0.9390
vn -0.1875 0.1139 -0.9756
vn 0.9430 0.0906 -0.3201
vn 0.9937 0.0928 0.0625
vn -0.9299 0.1972 0.3105
vn -0.8744 0.1939 -0.4447
vn -0.9839 -0.0072 -0.1787
vn -0.8906 0.1745 -0.4201
vn 0.4895 0.0493 -0.8706
vn -0.4157 -0.6122 -0.6726
vn -0.4157 -0.6121 -0.6727
vn -0.9352 0.1100 -0.3367
vn -0.9923 -0.1234 -0.0149
vn 0.0039 -0.1309 -0.9914
vn -0.0423 -0.1304 -0.9906
vn 0.8399 -0.0674 -0.5386
vn 0.9940 0.0832 0.0710
vn -0.9298 0.1973 0.3107
vn -0.9839 -0.0073 -0.1787
vn -0.4155 -0.6122 -0.6728
vn -0.9352 0.1099 -0.3366
vn -0.9922 -0.1234 -0.0146
vn -0.9353 0.1104 -0.3363
vn -0.0246 0.4653 -0.8848
vn -0.9923 -0.1232 -0.0149
vn 0.9653 0.0922 -0.2443
vn 0.7926 0.0905 -0.6029
vn -0.8745 0.1940 -0.4446
vn -0.9839 -0.0072 -0.1783
vn -0.8906 0.1746 -0.4200
vn 0.7283 -0.0258 -0.6848
vn -0.8102 0.3273 -0.4863
vn 0.8364 0.0428 -0.5464
vn 0.7613 -0.4941 -0.4199
vn -0.4786 0.2999 -0.8252
vn 0.7486 0.6020 -0.2777
vn 0.7282 -0.0258 -0.6849
vn -0.8103 0.3275 -0.4861
vn -0.4846 0.2919 -0.8246
vn 0.7283 -0.0260 -0.6848
vn 0.7282 -0.0259 -0.6849
vn -0.4790 0.2995 -0.8252
vn -0.9916 0.1146 0.0598
vn -0.1617 0.9408 0.2981
vn -0.4689 -0.0673 -0.8807
vn 0.8099 0.3067 0.5000
vn 0.6471 0.4277 0.6312
vn 0.9946 -0.1042 0.0007
vn 0.1237 0.9685 -0.2160
vn 0.8206 0.5695 -0.0483
vn 0.6647 -0.7444 0.0631
vn 0.0778 0.6277 -0.7745
vn 0.2148 0.9349 -0.2824
vn 0.3470 -0.6086 -0.7136
vn 0.5323 -0.5386 -0.6532
vn -0.2873 -0.6522 -0.7015
vn 0.8806 -0.3520 0.3173
vn 0.0229 -0.6642 0.7472
vn 0.9909 -0.0583 -0.1213
vn -0.1616 0.9407 0.2981
vn -0.4688 -0.0677 -0.8807
vn 0.8100 0.3065 0.5000
vn 0.6471 0.4278 0.6311
vn 0.9946 -0.1042 0.0006
vn -0.9009 -0.0611 -0.4297
vn 0.0790 -0.9521 -0.2955
vn 0.6010 -0.5576 -0.5726
vn -0.1782 -0.9770 -0.1173
vn 0.9883 -0.1520 0.0111
vn 0.8102 0.3070 0.4993
vn 0.9946 -0.1041 0.0006
vn -0.1616 0.9408 0.2981
vn 0.8100 0.3066 0.4999
vn 0.6468 0.4278 0.6314
vn 0.9945 -0.1043 0.0008
vn 0.2649 0.9551 -0.1328
vn 0.1361 -0.4224 -0.8961
vn 0.1504 -0.4201 -0.8949
vn -0.2543 -0.4493 -0.8564
vn 0.9912 -0.1307 -0.0195
vn -0.1802 0.4448 0.8773
vn -0.4788 0.3894 0.7868
vn 0.4300 0.4230 0.7976
vn 0.0181 0.4904 0.8713
vn 0.2842 0.4479 0.8477
vn 0.0201 0.4939 0.8693
vn 0.3033 0.4886 0.8181
vn -0.9955 -0.0389 0.0865
vn -0.0000 -0.3754 0.9268
vn -0.2972 0.9510 -0.0848
vn -0.9503 -0.0000 -0.3114
vn -0.9840 -0.1779 -0.0000
vn -0.9839 -0.1789 -0.0000
vn -0.9915 -0.1300 -0.0000
vn -0.9980 0.0624 -0.0097
vn -0.0000 0.9908 -0.1351
vn -0.0000 0.9899 -0.1414
vn -0.0000 -0.9961 -0.0879
vn -0.9990 -0.0449 -0.0059
vn -0.9990 -0.0449 -0.0039
vn -0.0000 -0.0619 -0.9981
vn -0.0000 -0.0624 -0.9981
vn -0.0000 0.0620 0.9981
vn -0.0000 0.0624 0.9981
vn 0.9999 0.0020 -0.0159
vn -0.0000 1.0000 -0.0000
vn -0.0000 -0.0000 1.0000
vn -0.0000 -1.0000 -0.0000
vn -0.0000 0.0070 -1.0000
vn -0.0000 0.0055 -1.0000
vn -0.0000 -0.0096 -1.0000
vn -0.0000 -0.0104 -0.9999
vn -0.0000 -0.0118 -0.9999
vn -0.0000 -0.4310 0.9024
vn 0.9966 -0.0389 0.0730
vn 0.9967 -0.0311 0.0749
vn -0.9992 0.0410 0.0020
vn -0.9983 0.0585 0.0039
vn -0.9992 0.0400 0.0020
vn -1.0000 -0.0000 -0.0000
vn -0.9959 -0.0905 -0.0000
vn -0.0000 0.0457 -0.9990
vn -0.0000 0.0452 -0.9990
vn -0.0000 0.0454 -0.9990
vn -0.9999 -0.0020 -0.0171
vn -0.0000 -0.0000 -1.0000
vn -0.0000 -0.1390 0.9903
vn 0.9514 -0.0446 0.3047
vn 0.9673 -0.0453 0.2494
vn -0.8000 0.6000 0.0001
vn -0.7071 0.7071 0.0001
vn -0.6402 0.7682 0.0001
vn 1.0000 -0.0000 -0.0000
vn 0.0007 0.9962 0.0875
vn 0.0006 0.9968 0.0801
vn 0.0011 0.9973 0.0730
vn 0.0018 -1.0000 -0.0000
vn 0.0013 -1.0000 -0.0000
vn -0.0022 -1.0000 -0.0000
vn -0.0006 -0.9968 -0.0801
vn -0.0007 -0.9962 -0.0874
vn -0.0011 -0.9973 -0.0729
vn -0.0012 -0.9998 0.0192
vn -0.0013 -1.0000 -0.0000
vn 0.0033 -1.0000 -0.0000
vn 0.0002 1.0000 -0.0000
vn 0.0020 1.0000 -0.0000
vn -0.0000 -0.0032 -1.0000
vn -0.0000 -0.0021 -1.0000
vn -0.0000 -0.0016 -1.0000
vn -0.0753 -0.9935 0.0855
vn -0.2515 -0.9439 0.2142
vn 0.0041 -0.9995 0.0324
vn -0.0783 0.1159 0.9902
vn 0.6531 0.0784 0.7532
vn -0.0101 -0.9993 0.0353
vn -0.7183 0.1022 0.6882
vn 0.4878 -0.4617 -0.7409
vn 0.9200 0.0879 -0.3819
vn -0.1129 0.1200 -0.9863
vn -0.2152 0.1143 -0.9699
vn -0.0874 0.1147 -0.9896
vn 0.7960 0.4603 -0.3932
vn 0.7959 0.4603 -0.3932
vn 0.2565 -0.4210 -0.8700
vn 0.0263 0.4671 -0.8838
vn 0.7529 0.3010 -0.5853
vn 0.0708 0.8261 -0.5590
vn 0.2094 0.8906 -0.4037
vn -0.0092 0.7942 -0.6076
vn 0.7663 -0.4469 -0.4615
vn -0.0469 -0.6752 0.7362
vn -0.6431 0.3868 0.6609
vn 0.0808 0.7937 -0.6029
vn -0.9250 -0.3240 -0.1984
vn -0.1618 0.7045 0.6910
vn -0.7426 -0.4613 0.4855
vn -0.8449 -0.3806 0.3758
vn 0.0002 0.7445 0.6676
vn 0.0823 -0.9779 0.1923
vn -0.0003 -0.9866 0.1631
vn 0.7229 0.1804 0.6669
vn 0.8104 0.1673 0.5615
vn -0.4793 0.6385 -0.6021
vn 0.7240 -0.1473 0.6740
vn 0.0753 0.8858 -0.4580
vn 0.1536 0.9448 -0.2893
vn -0.0095 0.7881 -0.6154
vn 0.0444 0.9968 0.0666
vn 0.4050 0.5748 0.7111
vn 0.0049 1.0000 0.0001
vn 0.8780 0.2043 0.4328
vn -0.0603 0.7137 -0.6978
vn -0.3174 0.7714 -0.5516
vn 0.2175 0.7731 -0.5958
vn -0.7428 0.2872 0.6047
vn -0.6197 -0.3857 -0.6835
vn 0.1875 -0.8712 -0.4537
vn -0.0010 -0.9604 -0.2785
vn -0.0010 -0.4041 -0.9147
vn -0.0270 -0.8387 0.5440
vn -0.4556 -0.8679 0.1981
vn 0.5013 0.8652 -0.0035
vn -0.0000 0.1245 0.9922
vn -0.0000 0.1266 0.9919
vn -0.0000 0.1257 0.9921
vn -0.7155 -0.5367 -0.4472
vn -0.8835 -0.3313 -0.3313
vn -0.9284 -0.2321 -0.2901
vn -0.0000 0.0021 1.0000
vn -0.0000 0.0016 1.0000
vn 0.1633 -0.9773 0.1349
vn -0.0506 -0.9909 0.1247
vn -0.0912 -0.9954 0.0310
vn -0.2553 -0.9667 0.0177
vn 0.6929 0.0599 0.7186
vn 0.4959 0.0455 0.8672
vn -0.0369 0.0285 0.9989
vn -0.2810 -0.8948 0.3470
vn 0.0801 0.1195 0.9896
vn -0.0240 0.1029 -0.9944
vn -0.8764 -0.0023 -0.4816
vn -0.6901 0.0917 0.7179
vn 0.9287 0.0635 0.3653
vn 0.8367 -0.3240 -0.4415
vn -0.2341 0.7977 -0.5557
vn -0.0538 0.8353 -0.5472
vn -0.2053 0.4883 -0.8482
vn -0.3149 0.3663 -0.8756
vn 0.2700 0.7364 -0.6204
vn -0.8114 -0.4547 -0.3672
vn -0.8786 -0.3993 -0.2618
vn -0.7127 -0.2784 -0.6438
vn 0.7239 -0.4633 0.5112
vn 0.0747 0.7867 0.6128
vn 0.2499 0.6498 0.7179
vn -0.0060 0.8225 0.5687
vn 0.7651 0.2905 -0.5747
vn 0.8355 0.4638 0.2946
vn 0.8355 0.4637 0.2946
vn -0.8698 0.2631 0.4173
vn 0.1237 -0.6604 0.7407
vn -0.6481 -0.4959 0.5780
vn 0.0573 0.8202 0.5692
vn 0.8644 -0.1344 0.4844
vn -0.7183 0.1021 0.6882
vn -0.0754 -0.9935 0.0855
vn -0.2516 -0.9438 0.2142
vn 0.0262 0.4671 -0.8838
vn 0.0708 0.8262 -0.5590
vn 0.0811 0.7936 -0.6030
vn -0.1618 0.7045 0.6911
vn -0.6431 0.3868 0.6608
vn 0.4878 -0.4615 -0.7410
vn -0.0000 -0.1168 -0.9932
vn -0.0000 -0.1275 -0.9918
vn -0.0000 -0.1203 -0.9927
vn 0.7662 -0.4470 -0.4616
vn 0.2093 0.8906 -0.4037
vn 0.7957 0.4607 -0.3933
vn 0.2562 -0.4210 -0.8701
vn 0.7528 0.3010 -0.5853
vn 0.2408 -0.9631 -0.1204
vn 0.8321 -0.0000 -0.5547
vn 0.4364 -0.8729 -0.2182
vn 0.8902 0.0490 -0.4529
vn 0.7795 0.5944 -0.1975
vn 0.7374 0.6520 -0.1762
vn 0.8655 0.0404 -0.4993
vn -0.6921 0.0339 -0.7210
vn 0.0045 -0.0737 0.9973
vn 0.1936 -0.0754 0.9782
vn -0.4830 -0.0098 0.8756
vn 0.6073 0.3627 -0.7069
vn 0.7677 -0.2119 -0.6048
vn -0.0357 -0.6681 0.7432
vn -0.0146 0.6792 0.7338
vn -0.1098 0.8183 0.5641
vn -0.0135 0.8080 0.5890
vn -0.2000 -0.0643 0.9777
vn -0.0963 0.7296 -0.6771
vn 0.3553 0.4017 -0.8440
vn 0.0214 0.4424 -0.8966
vn 0.5804 0.4817 0.6566
vn -0.3582 -0.9033 -0.2362
vn -0.5656 -0.7051 0.4278
vn -0.1255 0.5906 0.7971
vn 0.0653 0.7960 0.6018
vn -0.7417 -0.4510 0.4965
vn 0.8645 -0.1341 0.4845
vn -0.0000 0.1205 0.9927
vn -0.0000 0.1238 0.9923
vn 0.7663 -0.4469 -0.4616
vn 0.7958 0.4604 -0.3934
vn 0.2566 -0.4210 -0.8700
vn -0.0000 -0.3714 -0.9285
vn -0.0000 -0.4472 -0.8944
vn -0.8296 -0.2074 -0.5185
vn -0.0784 0.1159 0.9902
vn -0.7427 -0.4613 0.4855
vn 0.7663 -0.4470 -0.4616
vn 0.7958 0.4603 -0.3935
vn 0.2566 -0.4208 -0.8701
vn -0.6644 -0.7474 -0.0000
vn -0.5882 -0.8087 -0.0000
vn 0.0830 0.8043 0.5884
vn 0.0043 0.8377 0.5461
vn 0.0170 0.8370 0.5469
vn 0.2562 0.7488 -0.6113
vn -0.8668 0.2869 0.4080
vn 0.1599 -0.6604 0.7337
vn -0.6343 -0.5014 0.5885
vn -0.8472 -0.3539 -0.3962
vn -0.8775 -0.3425 -0.3358
vn 0.0395 0.1205 0.9919
vn -0.0371 0.0315 0.9988
vn 0.0291 -0.9954 0.0915
vn -0.2756 -0.8978 0.3434
vn 0.0969 -0.9947 0.0336
vn 0.7373 0.0826 0.6705
vn 0.8475 0.0787 0.5249
vn 0.0486 -0.9984 0.0294
vn 0.7726 0.0901 -0.6285
vn 0.6552 0.0920 -0.7498
vn 0.8716 0.2679 0.4105
vn 0.4040 -0.6348 0.6587
vn -0.0893 0.4893 0.8675
vn -0.1290 0.7783 -0.6145
vn 0.4573 0.5233 0.7190
vn 0.7653 -0.4494 0.4609
vn 0.9981 -0.0000 0.0624
vn 0.9923 -0.0000 0.1240
vn -0.9701 -0.0000 -0.2425
vn -0.8944 -0.0000 -0.4472
vn 0.0078 1.0000 0.0019
vn 0.0078 1.0000 0.0017
vn 0.0078 1.0000 0.0010
vn 0.0078 1.0000 0.0008
vn 0.0078 1.0000 -0.0000
vn 1.0000 -0.0000 0.0006
vn 1.0000 -0.0000 -0.0001
vn -0.5645 -0.3787 -0.7334
vn 0.9962 0.0867 -0.0096
vn 0.8947 0.4466 -0.0035
vn 0.9925 -0.1218 0.0135
vn 0.6841 -0.1273 -0.7182
vn -0.6803 0.1279 0.7217
vn 0.3775 -0.8224 0.4257
vn -0.6507 0.5907 0.4772
vn -0.3954 -0.9098 0.1259
vn -0.8050 0.1796 0.5654
vn -0.8199 -0.4183 -0.3908
vn -0.8199 -0.4190 -0.3901
vn -0.8199 -0.4189 -0.3902
vn -0.7398 -0.2160 -0.6372
vn 0.8629 -0.5034 0.0451
vn 0.8622 -0.4754 0.1748
vn 0.7950 0.4449 0.4123
vn -0.0984 0.7899 -0.6052
vn -0.0983 0.7902 -0.6049
vn 0.6131 0.2842 -0.7371
vn 0.8335 -0.3315 0.4420
vn -0.5013 -0.2551 -0.8268
vn -0.9743 -0.1359 0.1797
vn -0.8536 0.0060 0.5208
vn -0.8537 0.0059 0.5207
vn -0.9999 0.0022 -0.0126
vn 0.8365 -0.5476 0.0202
vn 0.7664 0.1119 -0.6326
vn 0.9325 -0.3575 0.0515
vn 0.9324 -0.3576 0.0516
vn 0.8247 0.4765 0.3048
vn 0.8247 0.4765 0.3047
vn -0.1718 -0.1691 0.9705
vn 0.6491 -0.5567 -0.5183
vn -0.2881 0.2221 -0.9315
vn -0.3067 0.3534 -0.8838
vn 0.3139 -0.3346 0.8885
vn 0.3140 -0.3346 0.8885
vn 0.3139 -0.3346 0.8886
vn 0.6106 -0.7908 -0.0425
vn 0.3779 -0.8223 0.4255
vn -0.6504 0.5913 0.4769
vn -0.6503 0.5913 0.4769
vn -0.3955 -0.9098 0.1258
vn -0.8204 -0.4172 -0.3909
vn -0.8199 -0.4181 -0.3912
vn -0.8197 -0.4187 -0.3909
vn -0.7397 -0.2162 -0.6372
vn -0.5646 -0.3788 -0.7333
vn 0.9962 0.0868 -0.0096
vn 0.9962 0.0868 -0.0097
vn 0.8947 0.4466 -0.0034
vn 0.9925 -0.1218 0.0136
vn -0.6803 0.1280 0.7217
vn 0.2020 0.2920 -0.9348
vn 0.6655 0.7377 0.1131
vn 0.6657 0.7375 0.1140
vn 0.6656 0.7376 0.1138
vn 0.4038 0.7424 0.5347
vn 0.6423 0.7662 0.0195
vn -0.2927 0.2215 -0.9302
vn -0.3059 0.3536 -0.8840
vn 0.3141 -0.3340 0.8887
vn 0.6001 -0.7996 -0.0228
vn 0.3774 -0.8224 0.4257
vn -0.6503 0.5912 0.4771
vn -0.8050 0.1797 0.5654
vn -0.8203 -0.4175 -0.3910
vn -0.8198 -0.4184 -0.3910
vn -0.8197 -0.4189 -0.3907
vn -0.7399 -0.2160 -0.6371
vn 0.9962 0.0864 -0.0096
vn 0.8947 0.4467 -0.0034
vn 0.9924 -0.1220 0.0136
vn 0.9924 -0.1220 0.0135
vn 0.3775 -0.8225 0.4255
vn -0.6501 0.5912 0.4774
vn -0.3956 -0.9098 0.1259
vn -0.8201 -0.4180 -0.3908
vn -0.8199 -0.4188 -0.3904
vn -0.8199 -0.4189 -0.3903
vn -0.7397 -0.2161 -0.6373
vn -0.5646 -0.3786 -0.7334
vn 0.6841 -0.1274 -0.7182
vn -0.2886 0.2219 -0.9314
vn -0.3072 0.3531 -0.8837
vn -0.3072 0.3532 -0.8837
vn 0.3134 -0.3368 0.8879
vn 0.6104 -0.7909 -0.0425
vn 0.8635 -0.5023 0.0450
vn 0.8622 -0.4755 0.1748
vn 0.6708 0.7331 0.1125
vn 0.6706 0.7332 0.1125
vn 0.6705 0.7334 0.1126
vn 0.6542 0.4304 -0.6219
vn 0.8335 -0.3314 0.4420
vn 0.1295 0.5592 0.8188
vn 0.4166 -0.8355 -0.3583
vn 0.1658 -0.9590 -0.2297
vn -0.1420 0.6119 -0.7781
vn 0.7250 -0.2306 -0.6490
vn -0.7422 0.0229 -0.6698
vn 0.4279 -0.3335 -0.8401
vn -0.1905 -0.9459 -0.2626
vn 0.5187 0.1287 -0.8452
vn -0.1420 0.9203 0.3646
vn -0.1419 0.9204 0.3644
vn -0.1420 0.9204 0.3642
vn 0.1656 -0.9592 -0.2293
vn -0.1421 0.6118 -0.7781
vn 0.7244 -0.2322 -0.6491
vn -0.4135 -0.8526 -0.3196
vn -0.4337 -0.8679 -0.2421
vn -0.4494 -0.6579 0.6043
vn 0.7547 -0.1472 -0.6393
vn -0.1232 0.9196 0.3731
vn 0.1658 -0.9591 -0.2296
vn 0.7247 -0.2308 -0.6493
vn -0.1417 0.6118 -0.7782
vn -0.1418 0.6116 -0.7783
vn -0.1419 0.6116 -0.7784
vn 0.7245 -0.2318 -0.6491
vn -0.1588 -0.9543 -0.2534
vn -0.1588 -0.9543 -0.2531
vn -0.1587 -0.9542 -0.2536
vn 0.4468 -0.3505 -0.8231
vn -0.1194 0.9193 0.3751
vn 0.5418 -0.6560 0.5255
vn 0.5084 0.4979 0.7026
vn -0.5290 0.8474 0.0461
vn 0.9831 0.0361 0.1793
vn -0.5468 0.2362 0.8032
vn -0.0458 0.0052 0.9989
vn -0.5369 0.2289 0.8120
vn 0.5418 -0.6559 0.5255
vn 0.5081 0.4981 0.7027
vn -0.5292 0.8472 0.0463
vn -0.5292 0.8472 0.0462
vn -0.5695 0.0041 0.8220
vn 0.6828 -0.6524 0.3288
vn -0.5906 0.2715 0.7599
vn 0.9996 -0.0249 -0.0145
vn -0.5469 0.2362 0.8032
vn -0.7775 0.4239 0.4644
vn -0.4677 0.8643 0.1851
vn 0.5521 -0.6572 0.5131
vn -0.4748 0.8618 0.1785
vn -0.7389 0.3704 0.5629
vn -0.9376 0.1859 0.2940
vn -0.9364 -0.2053 -0.2846
vn -0.6038 -0.0977 -0.7911
vn 0.7424 0.0273 -0.6694
vn 0.6407 0.4850 -0.5952
vn 0.0693 0.6324 -0.7716
vn 0.0695 0.6323 -0.7716
vn 0.0695 0.6318 -0.7720
vn -0.6039 -0.0978 -0.7910
vn -0.2855 0.9506 -0.1220
vn -0.0702 0.5688 -0.8195
vn -0.6039 -0.0976 -0.7910
vn -0.6040 -0.0976 -0.7910
vn -0.6038 -0.0976 -0.7911
vn -0.6039 -0.0979 -0.7910
vn -0.0613 0.5761 -0.8150
vn 0.4372 0.4186 0.7960
vn 0.5562 0.8283 0.0682
vn -0.5928 -0.6005 0.5367
vn 0.2025 0.9360 -0.2880
vn 0.4373 0.4186 0.7959
vn -0.3142 -0.3276 0.8910
vn 0.4374 0.4185 0.7960
vn -0.5928 -0.6004 0.5367
vn 0.5561 0.8283 0.0682
vn -0.5797 -0.6930 0.4285
vn -0.6623 0.1053 0.7418
vn -0.6623 0.1052 0.7418
vn -0.8907 0.1412 0.4321
vn 0.5707 0.8190 -0.0594
vn 0.0214 0.7412 0.6710
vn 0.9721 -0.1436 -0.1857
vn 0.6651 0.3384 0.6657
vn 0.8947 0.1263 0.4285
vn -0.3369 0.7498 0.5695
vn 0.3390 -0.9408 0.0059
vn 0.0935 -0.9837 0.1538
vn -0.2773 0.3161 0.9073
vn 0.7619 0.0435 0.6463
vn -0.3365 0.7570 -0.5601
vn -0.8188 0.5552 -0.1459
vn -0.1006 0.4713 -0.8762
vn 0.3397 -0.9405 0.0060
vn -0.6619 -0.6554 -0.3637
vn -0.4260 -0.8273 0.3662
vn -0.0177 0.5906 0.8068
vn 0.6159 0.2738 0.7387
vn -0.8230 0.5529 -0.1305
vn -0.8696 0.1995 -0.4517
vn -0.5798 -0.6929 0.4286
vn 0.6647 0.3384 0.6661
vn 0.8947 0.1270 0.4283
vn -0.3368 0.7500 0.5692
vn -0.6629 0.1057 0.7412
vn -0.8907 0.1414 0.4320
vn 0.9721 -0.1436 -0.1855
vn 0.8404 -0.4852 -0.2413
vn 0.7980 -0.4142 -0.4378
vn -0.0390 0.8200 -0.5711
vn 0.6341 0.3403 0.6944
vn -0.6619 -0.6555 -0.3637
vn -0.3838 -0.8446 0.3732
vn -0.8231 0.5527 -0.1305
vn -0.5798 -0.6930 0.4285
vn 0.6647 0.3388 0.6659
vn 0.8947 0.1267 0.4283
vn -0.3369 0.7496 0.5697
vn -0.6630 0.1053 0.7412
vn 0.5707 0.8190 -0.0593
vn 0.9721 -0.1436 -0.1856
vn -0.6624 0.1056 0.7417
vn -0.8907 0.1413 0.4320
vn 0.6650 0.3388 0.6656
vn 0.8946 0.1272 0.4284
vn -0.3368 0.7501 0.5691
vn -0.3369 0.7501 0.5691
vn 0.9721 -0.1437 -0.1855
vn -0.4225 -0.8295 0.3653
vn -0.8221 0.5547 -0.1284
vn 0.1001 -0.9949 -0.0096
vn -0.2777 0.3158 0.9073
vn 0.7619 0.0436 0.6462
vt 0.493837 0.950176
vt 0.493910 0.950281
vt 0.493945 0.950285
vt 0.781047 0.093301
vt 0.781185 0.093284
vt 0.781169 0.093360
vt 0.745297 0.665818
vt 0.745076 0.665892
vt 0.745369 0.665799
vt 0.914120 0.246027
vt 0.914289 0.245961
vt 0.914226 0.246064
vt 0.309640 0.942939
vt 0.309484 0.942913
vt 0.309564 0.942819
vt 0.840871 0.991524
vt 0.840779 0.991453
vt 0.840975 0.991512
vt 0.941559 0.380083
vt 0.941697 0.380065
vt 0.941681 0.380142
vt 0.467341 0.950546
vt 0.467414 0.950651
vt 0.467449 0.950655
vt 0.465967 0.984115
vt 0.465922 0.984061
vt 0.465942 0.984084
vt 0.410870 0.991614
vt 0.410778 0.991543
vt 0.410977 0.991653
vt 0.048379 0.942241
vt 0.048517 0.942223
vt 0.048501 0.942300
vt 0.069684 0.950940
vt 0.069757 0.951045
vt 0.069791 0.951049
vt 0.247424 0.942650
vt 0.247561 0.942632
vt 0.247546 0.942709
vt 0.480024 0.950546
vt 0.480098 0.950651
vt 0.480132 0.950655
vt 0.980253 0.328992
vt 0.980161 0.328922
vt 0.980357 0.328981
vt 0.763249 0.665818
vt 0.763032 0.665891
vt 0.763321 0.665799
vt 0.311599 0.947716
vt 0.309631 0.942717
vt 0.435915 0.956608
vt 0.435587 0.961726
vt 0.435567 0.961726
vt 0.825407 0.180597
vt 0.824947 0.180273
vt 0.825617 0.180544
vt 0.984256 0.493610
vt 0.985197 0.493454
vt 0.985175 0.493597
vt 0.781427 0.093766
vt 0.781004 0.093228
vt 0.963186 0.589028
vt 0.963669 0.588831
vt 0.963705 0.589047
vt 0.914256 0.245844
vt 0.914679 0.246097
vt 0.914268 0.246089
vt 0.069515 0.970369
vt 0.069541 0.966852
vt 0.069915 0.966831
vt 0.816872 0.979978
vt 0.816999 0.980570
vt 0.816872 0.981021
vt 0.263376 0.964465
vt 0.262742 0.964671
vt 0.263324 0.964307
vt 0.422429 0.991819
vt 0.423277 0.991055
vt 0.422668 0.991857
vt 0.599086 0.984723
vt 0.598956 0.985235
vt 0.598956 0.984559
vt 0.153501 0.984405
vt 0.154442 0.984249
vt 0.154419 0.984392
vt 0.941939 0.380548
vt 0.941516 0.380009
vt 0.243058 0.959218
vt 0.243541 0.959022
vt 0.243577 0.959237
vt 0.824364 0.180620
vt 0.824490 0.181212
vt 0.824364 0.181663
vt 0.805090 0.964607
vt 0.804569 0.964710
vt 0.805096 0.964372
vt 0.683589 0.991724
vt 0.684016 0.991047
vt 0.683751 0.991796
vt 0.466844 0.983259
vt 0.466363 0.983039
vt 0.467024 0.983177
vt 0.984256 0.481106
vt 0.985197 0.480951
vt 0.985175 0.481093
vt 0.048759 0.942705
vt 0.048336 0.942167
vt 0.305100 0.959411
vt 0.305583 0.959214
vt 0.305619 0.959429
vt 0.984322 0.514276
vt 0.985263 0.514121
vt 0.985240 0.514264
vt 0.247804 0.943114
vt 0.247381 0.942576
vt 0.963186 0.572431
vt 0.963669 0.572234
vt 0.963705 0.572450
vt 0.790970 0.980185
vt 0.791097 0.980777
vt 0.790970 0.981228
vt 0.479160 0.969974
vt 0.479190 0.966456
vt 0.479560 0.966438
vt 0.991111 0.868090
vt 0.991461 0.867417
vt 0.991175 0.868171
vt 0.850173 0.468483
vt 0.850042 0.468995
vt 0.850042 0.468319
vt 0.854251 0.961224
vt 0.854390 0.956251
vt 0.854807 0.956352
vt 0.781429 0.093786
vt 0.776979 0.096278
vt 0.963733 0.589047
vt 0.963827 0.594106
vt 0.913886 0.245743
vt 0.915693 0.241332
vt 0.745387 0.665963
vt 0.746135 0.669849
vt 0.056956 0.980318
vt 0.056987 0.975241
vt 0.056987 0.980455
vt 0.449361 0.958102
vt 0.448839 0.963197
vt 0.449343 0.958090
vt 0.895366 0.960946
vt 0.895505 0.955973
vt 0.895922 0.956074
vt 0.941942 0.380567
vt 0.937491 0.383060
vt 0.243605 0.959238
vt 0.243699 0.964297
vt 0.979410 0.828683
vt 0.979441 0.823606
vt 0.979441 0.828821
vt 0.528820 0.960293
vt 0.529306 0.960160
vt 0.529390 0.960279
vt 0.045144 0.958739
vt 0.044622 0.963835
vt 0.045126 0.958727
vt 0.554269 0.960250
vt 0.554409 0.955277
vt 0.554826 0.955378
vt 0.048762 0.942725
vt 0.044312 0.945218
vt 0.305646 0.959430
vt 0.305741 0.964489
vt 0.287257 0.960262
vt 0.287396 0.955288
vt 0.287813 0.955389
vt 0.247806 0.943134
vt 0.243356 0.945627
vt 0.963733 0.572450
vt 0.963827 0.577509
vt 0.980530 0.468657
vt 0.980561 0.463580
vt 0.980561 0.468794
vt 0.763339 0.665963
vt 0.764086 0.669848
vt 0.964122 0.533235
vt 0.963599 0.538330
vt 0.964104 0.533223
vt 0.895045 0.989073
vt 0.895117 0.988802
vt 0.895493 0.988680
vt 0.983901 0.755767
vt 0.983953 0.755661
vt 0.984354 0.756149
vt 0.913978 0.245578
vt 0.914104 0.246004
vt 0.913823 0.245571
vt 0.984011 0.731639
vt 0.984333 0.730625
vt 0.984436 0.731299
vt 0.988187 0.572746
vt 0.988259 0.572474
vt 0.988635 0.572352
vt 0.988187 0.585134
vt 0.988259 0.584862
vt 0.988635 0.584740
vt 0.435723 0.989596
vt 0.435795 0.989324
vt 0.436170 0.989202
vt 0.984014 0.744165
vt 0.984333 0.743154
vt 0.984436 0.743828
vt 0.103389 0.955666
vt 0.103030 0.944215
vt 0.103442 0.944171
vt 0.494207 0.944993
vt 0.493944 0.950067
vt 0.493830 0.950208
vt 0.781211 0.093265
vt 0.781196 0.093352
vt 0.782845 0.098191
vt 0.746768 0.661248
vt 0.745395 0.665808
vt 0.909826 0.248698
vt 0.915124 0.247571
vt 0.968573 0.110792
vt 0.968616 0.115909
vt 0.968199 0.115908
vt 0.309610 0.942743
vt 0.311166 0.937908
vt 0.309636 0.942752
vt 0.005761 0.965412
vt 0.005659 0.960177
vt 0.005761 0.960138
vt 0.448739 0.958086
vt 0.448757 0.957999
vt 0.467711 0.945363
vt 0.467448 0.950437
vt 0.467334 0.950578
vt 0.941723 0.380047
vt 0.941708 0.380134
vt 0.943358 0.384973
vt 0.361220 0.964106
vt 0.361185 0.969249
vt 0.360846 0.969222
vt 0.963502 0.554915
vt 0.963833 0.549850
vt 0.963532 0.554930
vt 0.165123 0.791431
vt 0.165021 0.786195
vt 0.165123 0.786157
vt 0.044523 0.958723
vt 0.044540 0.958636
vt 0.070053 0.945757
vt 0.069790 0.950831
vt 0.069677 0.950972
vt 0.048543 0.942204
vt 0.048528 0.942292
vt 0.050178 0.947131
vt 0.480394 0.945363
vt 0.480131 0.950437
vt 0.480018 0.950578
vt 0.247588 0.942613
vt 0.247572 0.942701
vt 0.249222 0.947540
vt 0.764876 0.660964
vt 0.763347 0.665808
vt 0.672113 0.965920
vt 0.672011 0.960686
vt 0.672113 0.960646
vt 0.963500 0.533219
vt 0.963518 0.533132
vt 0.493280 0.950521
vt 0.781619 0.093112
vt 0.335462 0.961822
vt 0.335214 0.961643
vt 0.335704 0.961646
vt 0.309182 0.942728
vt 0.838058 0.468748
vt 0.837893 0.469343
vt 0.837893 0.468404
vt 0.599330 0.985496
vt 0.599963 0.985454
vt 0.599999 0.985536
vt 0.466784 0.950891
vt 0.942131 0.379893
vt 0.837806 0.181167
vt 0.837639 0.181761
vt 0.837639 0.180823
vt 0.069126 0.951285
vt 0.048951 0.942051
vt 0.479467 0.950891
vt 0.247995 0.942460
vt 0.945150 0.467633
vt 0.944986 0.468228
vt 0.944986 0.467289
vt 0.753116 0.955884
vt 0.752794 0.944518
vt 0.753127 0.944427
vt 0.781172 0.093132
vt 0.782895 0.088347
vt 0.781623 0.093305
vt 0.854323 0.956446
vt 0.854295 0.956446
vt 0.850476 0.181804
vt 0.849808 0.181713
vt 0.850446 0.181715
vt 0.745259 0.665991
vt 0.741125 0.668908
vt 0.745000 0.665610
vt 0.983989 0.731796
vt 0.983417 0.731612
vt 0.973989 0.683266
vt 0.973873 0.688328
vt 0.973972 0.683256
vt 0.309500 0.942935
vt 0.305479 0.946008
vt 0.941684 0.379914
vt 0.943407 0.375128
vt 0.942135 0.380087
vt 0.895438 0.956168
vt 0.895410 0.956168
vt 0.361490 0.969235
vt 0.973564 0.797622
vt 0.973448 0.802685
vt 0.973546 0.797613
vt 0.528923 0.965352
vt 0.528355 0.960277
vt 0.048505 0.942071
vt 0.050228 0.937286
vt 0.048955 0.942244
vt 0.554342 0.955472
vt 0.554314 0.955472
vt 0.247549 0.942481
vt 0.249272 0.937695
vt 0.248000 0.942653
vt 0.287329 0.955484
vt 0.287301 0.955484
vt 0.983989 0.744325
vt 0.983328 0.744193
vt 0.974530 0.709763
vt 0.974414 0.714825
vt 0.974513 0.709753
vt 0.763211 0.665991
vt 0.759190 0.669064
vt 0.762951 0.665610
vt 0.943853 0.973225
vt 0.943531 0.977407
vt 0.943574 0.973223
vt 0.448622 0.974603
vt 0.448489 0.978785
vt 0.448602 0.974602
vt 0.979105 0.871156
vt 0.979041 0.875340
vt 0.979084 0.871156
vt 0.162675 0.007577
vt 0.128154 0.542142
vt 0.093717 0.007122
vt 0.077936 0.009009
vt 0.042698 0.541534
vt 0.007735 0.008411
vt 0.402707 0.005697
vt 0.400173 0.518167
vt 0.397655 0.005666
vt 0.350516 0.519532
vt 0.347997 0.005657
vt 0.353049 0.005693
vt 0.527783 0.005692
vt 0.528876 0.512660
vt 0.526878 0.512669
vt 0.513362 0.514023
vt 0.514370 0.005689
vt 0.515360 0.514015
vt 0.667011 0.146088
vt 0.685060 0.204721
vt 0.648953 0.204718
vt 0.109084 0.619143
vt 0.127087 0.677818
vt 0.091058 0.677730
vt 0.311767 0.811670
vt 0.318407 0.834761
vt 0.305124 0.834761
vt 0.473011 0.798105
vt 0.479664 0.821186
vt 0.466376 0.821181
vt 0.797638 0.812369
vt 0.804277 0.835460
vt 0.790994 0.835460
vt 0.803180 0.480838
vt 0.809832 0.503920
vt 0.796543 0.503915
vt 0.863841 0.606752
vt 0.864279 0.606805
vt 0.864063 0.663817
vt 0.286801 0.813731
vt 0.287239 0.813783
vt 0.287023 0.870802
vt 0.318584 0.846192
vt 0.320611 0.846188
vt 0.319599 0.884434
vt 0.450066 0.878900
vt 0.449051 0.840658
vt 0.451079 0.840653
vt 0.666980 0.005771
vt 0.684983 0.064444
vt 0.648954 0.064357
vt 0.667011 0.356461
vt 0.685060 0.415094
vt 0.648953 0.415091
vt 0.179943 0.812581
vt 0.186582 0.835673
vt 0.173299 0.835672
vt 0.225041 0.791613
vt 0.231694 0.814695
vt 0.218406 0.814690
vt 0.500317 0.800764
vt 0.506970 0.823846
vt 0.493681 0.823840
vt 0.354550 0.812557
vt 0.361189 0.835648
vt 0.347906 0.835648
vt 0.861707 0.263243
vt 0.862145 0.263296
vt 0.861929 0.320308
vt 0.864956 0.751572
vt 0.865394 0.751624
vt 0.865178 0.808643
vt 0.646243 0.844795
vt 0.648271 0.844790
vt 0.647259 0.883037
vt 0.877158 0.378737
vt 0.876143 0.340495
vt 0.878170 0.340490
vt 0.280219 0.634973
vt 0.298268 0.693607
vt 0.262160 0.693604
vt 0.666980 0.075941
vt 0.684983 0.134615
vt 0.648954 0.134528
vt 0.752821 0.797149
vt 0.766090 0.797174
vt 0.759464 0.820241
vt 0.435593 0.806135
vt 0.448876 0.806136
vt 0.442232 0.829227
vt 0.528301 0.789274
vt 0.541570 0.789299
vt 0.534944 0.812366
vt 0.714457 0.808793
vt 0.727740 0.808793
vt 0.721096 0.831885
vt 0.867277 0.533156
vt 0.867504 0.590178
vt 0.867055 0.590224
vt 0.334827 0.805906
vt 0.335055 0.862922
vt 0.334605 0.862967
vt 0.880954 0.571429
vt 0.878931 0.571416
vt 0.879941 0.533177
vt 0.883509 0.823666
vt 0.884522 0.861918
vt 0.882499 0.861905
vt 0.078221 0.689204
vt 0.062915 0.727669
vt 0.047763 0.689203
vt 0.711681 0.245899
vt 0.726947 0.284470
vt 0.696435 0.284460
vt 0.441045 0.706057
vt 0.427634 0.741902
vt 0.414166 0.706057
vt 0.104639 0.739049
vt 0.118028 0.774798
vt 0.091146 0.774802
vt 0.711674 0.055606
vt 0.726940 0.094177
vt 0.696428 0.094167
vt 0.374911 0.734067
vt 0.361421 0.769819
vt 0.348035 0.734067
vt 0.751832 0.052856
vt 0.765302 0.088699
vt 0.738417 0.088703
vt 0.726912 0.145995
vt 0.711691 0.184562
vt 0.696450 0.145995
vt 0.021044 0.689204
vt 0.036222 0.727674
vt 0.005713 0.727664
vt 0.757666 0.533108
vt 0.771055 0.568858
vt 0.744172 0.568861
vt 0.699432 0.713603
vt 0.686021 0.749448
vt 0.672553 0.713603
vt 0.611050 0.677461
vt 0.626317 0.716032
vt 0.595804 0.716023
vt 0.726994 0.445404
vt 0.711688 0.483868
vt 0.696536 0.445403
vt 0.765352 0.445404
vt 0.751862 0.481155
vt 0.738476 0.445403
vt 0.751831 0.005654
vt 0.765302 0.041497
vt 0.738417 0.041501
vt 0.378418 0.684116
vt 0.363198 0.722682
vt 0.347957 0.684116
vt 0.106438 0.689198
vt 0.121617 0.727668
vt 0.091108 0.727658
vt 0.751913 0.398295
vt 0.765303 0.434044
vt 0.738420 0.434047
vt 0.245332 0.705918
vt 0.231920 0.741762
vt 0.218453 0.705917
vt 0.444630 0.656105
vt 0.429409 0.694672
vt 0.414168 0.656105
vt 0.148387 0.689198
vt 0.163565 0.727668
vt 0.133056 0.727658
vt 0.156436 0.739049
vt 0.142947 0.774800
vt 0.129560 0.739049
vt 0.751839 0.145995
vt 0.765310 0.181839
vt 0.738425 0.181842
vt 0.891778 0.469470
vt 0.889377 0.449005
vt 0.894197 0.449042
vt 0.910446 0.448970
vt 0.907984 0.469368
vt 0.905539 0.448979
vt 0.383628 0.005681
vt 0.386139 0.518156
vt 0.381101 0.518178
vt 0.364549 0.519540
vt 0.367076 0.005675
vt 0.369588 0.519525
vt 0.499846 0.514024
vt 0.500854 0.005689
vt 0.501844 0.514015
vt 0.541402 0.005691
vt 0.542392 0.512660
vt 0.540394 0.512669
vt 0.667011 0.286336
vt 0.685060 0.344970
vt 0.648953 0.344967
vt 0.641386 0.533225
vt 0.659389 0.591899
vt 0.623360 0.591811
vt 0.553821 0.806004
vt 0.567090 0.806029
vt 0.560464 0.829096
vt 0.410964 0.812163
vt 0.424247 0.812163
vt 0.417603 0.835254
vt 0.828962 0.076092
vt 0.835602 0.099183
vt 0.822319 0.099183
vt 0.717967 0.496677
vt 0.724620 0.519759
vt 0.711331 0.519753
vt 0.864957 0.683124
vt 0.865394 0.683177
vt 0.865179 0.740189
vt 0.873087 0.110734
vt 0.873525 0.110787
vt 0.873308 0.167806
vt 0.816686 0.862189
vt 0.815671 0.823947
vt 0.817698 0.823942
vt 0.411010 0.846685
vt 0.413037 0.846681
vt 0.412025 0.884927
vt 0.667011 0.426585
vt 0.685060 0.485218
vt 0.648953 0.485215
vt 0.023690 0.619149
vt 0.041692 0.677823
vt 0.005664 0.677736
vt 0.268820 0.813761
vt 0.275459 0.836852
vt 0.262176 0.836852
vt 0.814509 0.358890
vt 0.821161 0.381972
vt 0.807873 0.381967
vt 0.392249 0.812556
vt 0.398888 0.835648
vt 0.385605 0.835648
vt 0.050675 0.802410
vt 0.057328 0.825492
vt 0.044040 0.825487
vt 0.862284 0.005675
vt 0.862721 0.005728
vt 0.862505 0.062741
vt 0.739080 0.808763
vt 0.739518 0.808816
vt 0.739302 0.865835
vt 0.306186 0.846190
vt 0.307198 0.884441
vt 0.305176 0.884428
vt 0.555891 0.878796
vt 0.553869 0.878783
vt 0.554879 0.840545
vt 0.667011 0.216212
vt 0.685060 0.274845
vt 0.648953 0.274842
vt 0.365918 0.614061
vt 0.383920 0.672735
vt 0.347892 0.672648
vt 0.622815 0.806004
vt 0.629468 0.829085
vt 0.616180 0.829080
vt 0.585139 0.806008
vt 0.591778 0.829100
vt 0.578495 0.829099
vt 0.827864 0.480830
vt 0.834503 0.503921
vt 0.821220 0.503921
vt 0.804278 0.076100
vt 0.810931 0.099182
vt 0.797642 0.099177
vt 0.603341 0.806005
vt 0.603568 0.863021
vt 0.603118 0.863066
vt 0.374002 0.812553
vt 0.374229 0.869575
vt 0.373781 0.869620
vt 0.715517 0.843313
vt 0.716529 0.881564
vt 0.714507 0.881551
vt 0.437665 0.878907
vt 0.435643 0.878894
vt 0.436653 0.840656
vt 0.207051 0.705917
vt 0.191745 0.744382
vt 0.176593 0.705917
vt 0.711681 0.195947
vt 0.726947 0.234518
vt 0.696435 0.234509
vt 0.728022 0.730304
vt 0.741411 0.766053
vt 0.714528 0.766057
vt 0.741384 0.683103
vt 0.727972 0.718948
vt 0.714505 0.683102
vt 0.726994 0.295851
vt 0.711688 0.334315
vt 0.696536 0.295850
vt 0.507168 0.722160
vt 0.520638 0.758004
vt 0.493753 0.758007
vt 0.765351 0.343052
vt 0.751862 0.378803
vt 0.738475 0.343052
vt 0.717517 0.533108
vt 0.732695 0.571579
vt 0.702186 0.571569
vt 0.584330 0.677462
vt 0.569109 0.716027
vt 0.553869 0.677461
vt 0.754449 0.613700
vt 0.767839 0.649450
vt 0.740956 0.649453
vt 0.580746 0.727413
vt 0.567334 0.763258
vt 0.553867 0.727413
vt 0.711673 0.005654
vt 0.726940 0.044225
vt 0.696427 0.044216
vt 0.726994 0.395553
vt 0.711689 0.434017
vt 0.696536 0.395552
vt 0.765354 0.240306
vt 0.751865 0.276057
vt 0.738479 0.240306
vt 0.605668 0.727413
vt 0.619139 0.763257
vt 0.592254 0.763260
vt 0.703017 0.613700
vt 0.687796 0.652267
vt 0.672556 0.613700
vt 0.277542 0.705006
vt 0.292720 0.743476
vt 0.262211 0.743466
vt 0.657471 0.727413
vt 0.644059 0.763258
vt 0.630592 0.727413
vt 0.019245 0.739055
vt 0.032634 0.774804
vt 0.005751 0.774807
vt 0.319490 0.705005
vt 0.334668 0.743475
vt 0.304159 0.743466
vt 0.703017 0.663652
vt 0.687796 0.702218
vt 0.672556 0.663652
vt 0.765355 0.193198
vt 0.751865 0.228949
vt 0.738479 0.193197
vt 0.751835 0.295850
vt 0.765306 0.331693
vt 0.738421 0.331697
vt 0.440474 0.890268
vt 0.438012 0.910666
vt 0.435567 0.890278
vt 0.900194 0.181888
vt 0.897794 0.161424
vt 0.902613 0.161461
vt 0.053097 0.619183
vt 0.079661 0.619109
vt 0.066377 0.677501
vt 0.176446 0.636142
vt 0.204225 0.636168
vt 0.190339 0.694504
vt 0.148502 0.619137
vt 0.158512 0.674697
vt 0.138501 0.674752
vt 0.325915 0.551898
vt 0.336394 0.607493
vt 0.315445 0.607476
vt 0.224608 0.826167
vt 0.230810 0.845865
vt 0.218398 0.845896
vt 0.835901 0.823688
vt 0.842393 0.843407
vt 0.829404 0.843395
vt 0.893079 0.329032
vt 0.889535 0.317612
vt 0.896595 0.317597
vt 0.887128 0.659988
vt 0.894188 0.659972
vt 0.890672 0.671407
vt 0.309603 0.635031
vt 0.336167 0.634957
vt 0.322883 0.693349
vt 0.215558 0.636142
vt 0.243337 0.636168
vt 0.229451 0.694504
vt 0.680804 0.533218
vt 0.690814 0.588779
vt 0.670802 0.588834
vt 0.240195 0.553065
vt 0.250674 0.608661
vt 0.229724 0.608644
vt 0.690154 0.831286
vt 0.696355 0.850983
vt 0.683944 0.851014
vt 0.534783 0.823837
vt 0.541275 0.843556
vt 0.528286 0.843544
vt 0.912688 0.595331
vt 0.905627 0.595347
vt 0.909143 0.583912
vt 0.890658 0.583912
vt 0.894202 0.595332
vt 0.887142 0.595347
vt 0.553976 0.602342
vt 0.582916 0.533214
vt 0.612042 0.602392
vt 0.443309 0.176239
vt 0.472276 0.248615
vt 0.414159 0.248612
vt 0.750273 0.492512
vt 0.762276 0.519560
vt 0.738392 0.519557
vt 0.755650 0.105557
vt 0.743702 0.133855
vt 0.731822 0.105557
vt 0.948795 0.170999
vt 0.946963 0.178336
vt 0.945144 0.170987
vt 0.948878 0.716642
vt 0.947059 0.709614
vt 0.950710 0.709638
vt 0.936915 0.519397
vt 0.938105 0.515343
vt 0.939292 0.519406
vt 0.936973 0.765138
vt 0.938160 0.769386
vt 0.935784 0.769386
vt 0.242244 0.753119
vt 0.230391 0.780166
vt 0.218415 0.753119
vt 0.708412 0.105557
vt 0.720319 0.133857
vt 0.696435 0.133854
vt 0.087920 0.951049
vt 0.089752 0.944046
vt 0.091571 0.951073
vt 0.947191 0.057187
vt 0.949010 0.064536
vt 0.945359 0.064524
vt 0.890623 0.807757
vt 0.889433 0.812004
vt 0.888247 0.807756
vt 0.946896 0.636610
vt 0.945710 0.632548
vt 0.948087 0.632556
vt 0.528302 0.881026
vt 0.530874 0.855031
vt 0.533436 0.881045
vt 0.831992 0.854878
vt 0.834554 0.882101
vt 0.829420 0.882099
vt 0.847520 0.480786
vt 0.849297 0.520527
vt 0.845942 0.520523
vt 0.836022 0.340457
vt 0.834336 0.382018
vt 0.832641 0.340431
vt 0.721989 0.671706
vt 0.714463 0.613780
vt 0.729524 0.613820
vt 0.471136 0.656188
vt 0.463601 0.716810
vt 0.456076 0.656201
vt 0.442238 0.260062
vt 0.470367 0.331701
vt 0.414164 0.331729
vt 0.470366 0.580961
vt 0.414164 0.580987
vt 0.442238 0.509320
vt 0.350882 0.794151
vt 0.361081 0.782643
vt 0.365043 0.796179
vt 0.501642 0.788842
vt 0.494422 0.780056
vt 0.508089 0.776117
vt 0.102222 0.889688
vt 0.097365 0.897340
vt 0.092498 0.889661
vt 0.878320 0.876764
vt 0.877931 0.885829
vt 0.869908 0.881607
vt 0.984906 0.494373
vt 0.984213 0.494190
vt 0.869506 0.965816
vt 0.868971 0.965763
vt 0.869011 0.960684
vt 0.424024 0.966161
vt 0.423772 0.966253
vt 0.423710 0.961044
vt 0.780835 0.093241
vt 0.968831 0.132537
vt 0.968205 0.132529
vt 0.968581 0.127413
vt 0.868429 0.965775
vt 0.868920 0.965911
vt 0.972876 0.519131
vt 0.972220 0.519129
vt 0.972558 0.514032
vt 0.103590 0.972185
vt 0.102952 0.972179
vt 0.103293 0.967060
vt 0.988896 0.550676
vt 0.988882 0.550694
vt 0.988749 0.550721
vt 0.894944 0.989550
vt 0.894890 0.989501
vt 0.988610 0.550065
vt 0.988259 0.550771
vt 0.853774 0.956468
vt 0.964283 0.589005
vt 0.780766 0.092868
vt 0.987837 0.550055
vt 0.895941 0.988704
vt 0.895729 0.989471
vt 0.781760 0.093187
vt 0.980388 0.242391
vt 0.980868 0.242203
vt 0.980776 0.246563
vt 0.973320 0.628374
vt 0.972666 0.628372
vt 0.973026 0.623290
vt 0.971512 0.948892
vt 0.970886 0.948916
vt 0.971196 0.943766
vt 0.382046 0.794151
vt 0.392245 0.782643
vt 0.396207 0.796179
vt 0.656932 0.516098
vt 0.649712 0.507311
vt 0.663379 0.503372
vt 0.127377 0.893631
vt 0.132237 0.885997
vt 0.137113 0.893665
vt 0.806435 0.881272
vt 0.811314 0.873604
vt 0.816179 0.881254
vt 0.984299 0.756713
vt 0.983472 0.756610
vt 0.745630 0.666172
vt 0.983319 0.755847
vt 0.983332 0.755762
vt 0.968513 0.231699
vt 0.968112 0.231632
vt 0.968447 0.226516
vt 0.850740 0.181237
vt 0.850626 0.181539
vt 0.849788 0.181847
vt 0.991855 0.893597
vt 0.991316 0.893575
vt 0.991361 0.892988
vt 0.745934 0.665849
vt 0.747181 0.670829
vt 0.849817 0.181211
vt 0.753409 0.972507
vt 0.752770 0.972500
vt 0.753111 0.967381
vt 0.920484 0.972871
vt 0.919829 0.972869
vt 0.920166 0.967772
vt 0.850178 0.180737
vt 0.850732 0.180752
vt 0.910394 0.249471
vt 0.914491 0.246383
vt 0.913748 0.246240
vt 0.992185 0.892849
vt 0.980097 0.193650
vt 0.980295 0.193519
vt 0.980776 0.197732
vt 0.493508 0.971270
vt 0.492882 0.971294
vt 0.493192 0.966144
vt 0.973320 0.611899
vt 0.972666 0.611896
vt 0.973026 0.606814
vt 0.848806 0.340491
vt 0.849996 0.379523
vt 0.847707 0.379582
vt 0.495312 0.835226
vt 0.495543 0.874217
vt 0.493655 0.874221
vt 0.094048 0.799133
vt 0.104247 0.787625
vt 0.108210 0.801161
vt 0.561780 0.794095
vt 0.554560 0.785308
vt 0.568227 0.781369
vt 0.504829 0.890656
vt 0.499971 0.898309
vt 0.495105 0.890629
vt 0.762684 0.884789
vt 0.762295 0.893853
vt 0.754272 0.889632
vt 0.817501 0.979723
vt 0.818020 0.979962
vt 0.817683 0.980741
vt 0.817255 0.979753
vt 0.968424 0.468835
vt 0.968054 0.468767
vt 0.968331 0.463651
vt 0.309121 0.942587
vt 0.616761 0.978066
vt 0.616182 0.972992
vt 0.616761 0.972988
vt 0.616153 0.978069
vt 0.056452 0.980312
vt 0.056605 0.975234
vt 0.973211 0.010836
vt 0.972556 0.010834
vt 0.972893 0.005737
vt 0.765395 0.972427
vt 0.764756 0.972422
vt 0.765097 0.967302
vt 0.449262 0.974606
vt 0.310175 0.942793
vt 0.841819 0.961462
vt 0.842436 0.961195
vt 0.842341 0.966508
vt 0.983300 0.731796
vt 0.983368 0.731163
vt 0.983758 0.730713
vt 0.984188 0.730575
vt 0.973374 0.683102
vt 0.973374 0.688338
vt 0.309564 0.942856
vt 0.599860 0.984824
vt 0.309193 0.942483
vt 0.600015 0.985520
vt 0.972211 0.480974
vt 0.972824 0.480779
vt 0.972709 0.486052
vt 0.448230 0.958108
vt 0.243071 0.976071
vt 0.243316 0.975948
vt 0.243750 0.980154
vt 0.467012 0.971640
vt 0.466386 0.971664
vt 0.466696 0.966514
vt 0.599620 0.973251
vt 0.598965 0.973249
vt 0.599325 0.968167
vt 0.717431 0.790388
vt 0.727630 0.778880
vt 0.731592 0.792416
vt 0.592961 0.794095
vt 0.585741 0.785308
vt 0.599408 0.781369
vt 0.045476 0.894866
vt 0.050336 0.887232
vt 0.055212 0.894900
vt 0.797982 0.341686
vt 0.802861 0.334018
vt 0.807726 0.341668
vt 0.968761 0.248253
vt 0.968509 0.248344
vt 0.968447 0.243136
vt 0.941347 0.380022
vt 0.154150 0.985168
vt 0.153458 0.984985
vt 0.942272 0.379969
vt 0.554569 0.988196
vt 0.554217 0.988902
vt 0.553795 0.988186
vt 0.989083 0.572376
vt 0.988871 0.573143
vt 0.941278 0.379649
vt 0.189177 0.969648
vt 0.188552 0.969640
vt 0.188928 0.964524
vt 0.373035 0.965538
vt 0.373617 0.960446
vt 0.373525 0.965674
vt 0.374111 0.965579
vt 0.373576 0.965526
vt 0.971981 0.768969
vt 0.971343 0.768963
vt 0.971683 0.763844
vt 0.959322 0.973157
vt 0.958666 0.973154
vt 0.959004 0.968058
vt 0.894890 0.956189
vt 0.554707 0.988852
vt 0.554855 0.988807
vt 0.554840 0.988825
vt 0.988086 0.573222
vt 0.988032 0.573173
vt 0.244155 0.959195
vt 0.541002 0.976898
vt 0.541482 0.976710
vt 0.541390 0.981070
vt 0.971512 0.965494
vt 0.970886 0.965518
vt 0.971196 0.960367
vt 0.973418 0.653468
vt 0.972763 0.653466
vt 0.973123 0.648384
vt 0.199288 0.826222
vt 0.200478 0.865253
vt 0.198189 0.865313
vt 0.877034 0.480781
vt 0.877265 0.519772
vt 0.875376 0.519776
vt 0.442265 0.497888
vt 0.414137 0.426247
vt 0.470339 0.426221
vt 0.414137 0.343162
vt 0.470340 0.343134
vt 0.442265 0.414801
vt 0.008654 0.799139
vt 0.018852 0.787630
vt 0.022815 0.801166
vt 0.688112 0.516098
vt 0.680892 0.507311
vt 0.694559 0.503372
vt 0.477523 0.887991
vt 0.472666 0.895643
vt 0.467799 0.887964
vt 0.198436 0.879534
vt 0.198047 0.888598
vt 0.190024 0.884377
vt 0.962991 0.549851
vt 0.962991 0.554942
vt 0.628677 0.978066
vt 0.628097 0.972992
vt 0.628677 0.972988
vt 0.964067 0.554983
vt 0.466027 0.983998
vt 0.465995 0.983540
vt 0.880852 0.960704
vt 0.881373 0.960683
vt 0.881678 0.961660
vt 0.466719 0.984018
vt 0.466882 0.983769
vt 0.466009 0.983444
vt 0.628069 0.978069
vt 0.978906 0.828677
vt 0.979059 0.823599
vt 0.973211 0.041930
vt 0.972556 0.041927
vt 0.972893 0.036830
vt 0.741381 0.972575
vt 0.740743 0.972569
vt 0.741084 0.967450
vt 0.466449 0.983160
vt 0.466893 0.983089
vt 0.972949 0.797457
vt 0.972222 0.057356
vt 0.972835 0.057161
vt 0.972768 0.062435
vt 0.972949 0.802694
vt 0.044013 0.958745
vt 0.201183 0.969648
vt 0.200557 0.969672
vt 0.200867 0.964521
vt 0.973332 0.081288
vt 0.972677 0.081286
vt 0.973037 0.076204
vt 0.760781 0.785241
vt 0.753561 0.776454
vt 0.767228 0.772515
vt 0.125213 0.799133
vt 0.135411 0.787625
vt 0.139374 0.801161
vt 0.889655 0.791260
vt 0.894514 0.783626
vt 0.899390 0.791294
vt 0.703589 0.590675
vt 0.708468 0.583007
vt 0.713333 0.590657
vt 0.984906 0.481870
vt 0.984213 0.481686
vt 0.049092 0.942127
vt 0.048167 0.942180
vt 0.287557 0.988208
vt 0.287205 0.988914
vt 0.286783 0.988198
vt 0.989083 0.584764
vt 0.988871 0.585531
vt 0.048098 0.941807
vt 0.541774 0.965260
vt 0.541239 0.965207
vt 0.541280 0.960128
vt 0.968761 0.198394
vt 0.968509 0.198486
vt 0.968447 0.193277
vt 0.540697 0.965219
vt 0.541188 0.965355
vt 0.275316 0.969511
vt 0.274691 0.969502
vt 0.275066 0.964387
vt 0.154041 0.972769
vt 0.153386 0.972767
vt 0.153723 0.967670
vt 0.729395 0.972591
vt 0.728757 0.972585
vt 0.729098 0.967466
vt 0.553793 0.955493
vt 0.287695 0.988864
vt 0.287842 0.988819
vt 0.287828 0.988837
vt 0.988086 0.585610
vt 0.988032 0.585561
vt 0.306196 0.959388
vt 0.528578 0.976909
vt 0.529058 0.976721
vt 0.528966 0.981081
vt 0.971512 0.932291
vt 0.970886 0.932314
vt 0.971196 0.927164
vt 0.973332 0.097764
vt 0.972677 0.097762
vt 0.973037 0.092680
vt 0.862106 0.480846
vt 0.863295 0.519878
vt 0.861007 0.519937
vt 0.509260 0.835226
vt 0.509491 0.874217
vt 0.507602 0.874221
vt 0.752062 0.599698
vt 0.744842 0.590911
vt 0.758509 0.586972
vt 0.619153 0.787590
vt 0.629352 0.776082
vt 0.633315 0.789618
vt 0.028279 0.891071
vt 0.023422 0.898724
vt 0.018555 0.891044
vt 0.738671 0.884789
vt 0.738282 0.893853
vt 0.730259 0.889632
vt 0.984971 0.515040
vt 0.984279 0.514856
vt 0.660660 0.965780
vt 0.660125 0.965727
vt 0.660166 0.960648
vt 0.057110 0.963809
vt 0.056858 0.963901
vt 0.056796 0.958693
vt 0.659584 0.965739
vt 0.660074 0.965875
vt 0.399177 0.969231
vt 0.398552 0.969222
vt 0.398928 0.964107
vt 0.247212 0.942589
vt 0.248136 0.942536
vt 0.988627 0.533439
vt 0.988275 0.534145
vt 0.987853 0.533429
vt 0.436618 0.989226
vt 0.436406 0.989993
vt 0.247143 0.942216
vt 0.973176 0.150393
vt 0.972520 0.150390
vt 0.972857 0.145294
vt 0.971981 0.735775
vt 0.971343 0.735769
vt 0.971683 0.730650
vt 0.988765 0.534095
vt 0.286781 0.955505
vt 0.988913 0.534050
vt 0.988898 0.534068
vt 0.435621 0.990072
vt 0.435567 0.990023
vt 0.964283 0.572408
vt 0.980388 0.226671
vt 0.980868 0.226483
vt 0.980776 0.230843
vt 0.219042 0.971507
vt 0.218416 0.971531
vt 0.218726 0.966381
vt 0.973418 0.669944
vt 0.972763 0.669942
vt 0.973123 0.664860
vt 0.779682 0.371806
vt 0.789881 0.360298
vt 0.793843 0.373834
vt 0.645683 0.696942
vt 0.638463 0.688155
vt 0.652130 0.684216
vt 0.579935 0.896793
vt 0.584794 0.889159
vt 0.589670 0.896827
vt 0.848385 0.083756
vt 0.853264 0.076088
vt 0.858129 0.083738
vt 0.335195 0.978208
vt 0.334587 0.978211
vt 0.334615 0.973134
vt 0.850980 0.468612
vt 0.850509 0.469271
vt 0.983551 0.743481
vt 0.984188 0.743104
vt 0.972211 0.497559
vt 0.972824 0.497364
vt 0.972824 0.502641
vt 0.962991 0.533241
vt 0.973915 0.709599
vt 0.973915 0.714834
vt 0.980026 0.468651
vt 0.980179 0.463573
vt 0.791781 0.980948
vt 0.791392 0.980024
vt 0.763623 0.666109
vt 0.792118 0.980169
vt 0.762832 0.665643
vt 0.436377 0.961854
vt 0.335195 0.973130
vt 0.968481 0.215081
vt 0.968112 0.215013
vt 0.968389 0.209897
vt 0.908498 0.972871
vt 0.907843 0.972869
vt 0.908180 0.967772
vt 0.971981 0.752372
vt 0.971343 0.752366
vt 0.971683 0.747247
vt 0.979745 0.871159
vt 0.763886 0.665849
vt 0.765012 0.670867
vt 0.992039 0.867511
vt 0.972308 0.502621
vt 0.983300 0.744325
vt 0.851096 0.469138
vt 0.980097 0.210269
vt 0.980295 0.210139
vt 0.980776 0.214352
vt 0.231341 0.971507
vt 0.230715 0.971531
vt 0.231025 0.966381
vt 0.973612 0.786148
vt 0.972958 0.786146
vt 0.973318 0.781064
vt 0.045671 0.836873
vt 0.045902 0.875864
vt 0.044013 0.875868
vt 0.855159 0.823665
vt 0.856349 0.862696
vt 0.854060 0.862756
vt 0.541643 0.660822
vt 0.493729 0.660850
vt 0.517659 0.608512
vt 0.029658 0.555336
vt 0.053643 0.607646
vt 0.005728 0.607674
vt 0.601781 0.666075
vt 0.553867 0.666103
vt 0.577797 0.613765
vt 0.438097 0.592409
vt 0.462082 0.644719
vt 0.414167 0.644747
vt 0.637168 0.666089
vt 0.613183 0.613778
vt 0.661097 0.613751
vt 0.091095 0.555345
vt 0.139010 0.555316
vt 0.115080 0.607654
vt 0.520696 0.525426
vt 0.541648 0.597062
vt 0.499796 0.597086
vt 0.218352 0.624664
vt 0.176499 0.624688
vt 0.197399 0.553027
vt 0.799986 0.064727
vt 0.797652 0.064658
vt 0.798828 0.005685
vt 0.825313 0.398326
vt 0.826471 0.457367
vt 0.824136 0.457298
vt 0.798886 0.457368
vt 0.796552 0.457299
vt 0.797729 0.398326
vt 0.199116 0.755799
vt 0.200274 0.814841
vt 0.197939 0.814772
vt 0.803061 0.665803
vt 0.800727 0.665735
vt 0.801903 0.606762
vt 0.812621 0.005685
vt 0.813778 0.064726
vt 0.811443 0.064658
vt 0.818913 0.533140
vt 0.820070 0.592181
vt 0.817736 0.592112
vt 0.812679 0.457368
vt 0.810345 0.457299
vt 0.811521 0.398326
vt 0.812683 0.322657
vt 0.810349 0.322588
vt 0.811525 0.263615
vt 0.815695 0.606762
vt 0.816853 0.665803
vt 0.814519 0.665734
vt 0.304072 0.623496
vt 0.262220 0.623520
vt 0.283120 0.551860
vt 0.368850 0.530924
vt 0.389802 0.602559
vt 0.347950 0.602584
vt 0.806278 0.592182
vt 0.803944 0.592113
vt 0.805121 0.533140
vt 0.816811 0.753520
vt 0.817969 0.812561
vt 0.815635 0.812492
vt 0.824161 0.193254
vt 0.826475 0.193202
vt 0.825308 0.252235
vt 0.811774 0.169752
vt 0.810627 0.110771
vt 0.812941 0.110718
vt 0.798891 0.322657
vt 0.796555 0.322588
vt 0.797733 0.263615
vt 0.816811 0.683133
vt 0.817969 0.742175
vt 0.815635 0.742106
vt 0.811516 0.252236
vt 0.810369 0.193255
vt 0.812683 0.193202
vt 0.824161 0.263641
vt 0.826475 0.263589
vt 0.825308 0.322622
vt 0.695164 0.760836
vt 0.696322 0.819877
vt 0.693988 0.819809
vt 0.798891 0.252270
vt 0.796556 0.252202
vt 0.797733 0.193228
vt 0.493896 0.950112
vt 0.493902 0.950264
vt 0.493955 0.950270
vt 0.493846 0.950065
vt 0.745323 0.665912
vt 0.914257 0.245937
vt 0.840881 0.991551
vt 0.840932 0.991624
vt 0.840827 0.991548
vt 0.840779 0.991618
vt 0.840812 0.991512
vt 0.467400 0.950482
vt 0.467406 0.950634
vt 0.467459 0.950640
vt 0.467350 0.950435
vt 0.465969 0.983983
vt 0.465851 0.984164
vt 0.465893 0.984029
vt 0.410879 0.991641
vt 0.410930 0.991714
vt 0.410825 0.991638
vt 0.410778 0.991708
vt 0.410808 0.991602
vt 0.069743 0.950876
vt 0.069749 0.951028
vt 0.069801 0.951034
vt 0.069692 0.950829
vt 0.480084 0.950482
vt 0.480090 0.950634
vt 0.480142 0.950640
vt 0.480033 0.950435
vt 0.980262 0.329019
vt 0.980313 0.329092
vt 0.980209 0.329016
vt 0.980161 0.329086
vt 0.980193 0.328980
vt 0.763275 0.665912
vt 0.311172 0.947795
vt 0.824976 0.180968
vt 0.984708 0.493283
vt 0.781453 0.093623
vt 0.963295 0.588909
vt 0.068910 0.967106
vt 0.262654 0.964807
vt 0.153953 0.984078
vt 0.941965 0.380404
vt 0.243167 0.959099
vt 0.804410 0.964832
vt 0.984708 0.480779
vt 0.048785 0.942562
vt 0.305209 0.959292
vt 0.984774 0.513949
vt 0.247830 0.942971
vt 0.963295 0.572312
vt 0.478660 0.966663
vt 0.348067 0.938428
vt 0.348389 0.938497
vt 0.348187 0.952254
vt 0.817039 0.937671
vt 0.817498 0.937705
vt 0.817238 0.951849
vt 0.868919 0.965879
vt 0.987835 0.549910
vt 0.747014 0.670882
vt 0.981039 0.193197
vt 0.981127 0.193326
vt 0.244014 0.975619
vt 0.244101 0.975748
vt 0.373525 0.965641
vt 0.553793 0.988042
vt 0.528780 0.960127
vt 0.305473 0.976226
vt 0.306055 0.975811
vt 0.306143 0.975940
vt 0.541187 0.965323
vt 0.286781 0.988053
vt 0.660074 0.965843
vt 0.987851 0.533284
vt 0.764965 0.670882
vt 0.981039 0.209817
vt 0.981127 0.209945
vt 0.963480 0.555046
vt 0.005654 0.965414
vt 0.165016 0.791434
vt 0.672006 0.965923
vt 0.335257 0.961760
vt 0.838003 0.469247
vt 0.218399 0.983580
vt 0.218947 0.982906
vt 0.219275 0.983663
vt 0.837749 0.181660
vt 0.945096 0.468132
vt 0.963557 0.588967
vt 0.816897 0.980633
vt 0.243430 0.959157
vt 0.824388 0.181275
vt 0.305471 0.959350
vt 0.963557 0.572370
vt 0.790994 0.980841
vt 0.984169 0.494296
vt 0.894958 0.989568
vt 0.895927 0.988685
vt 0.984319 0.756693
vt 0.991178 0.893544
vt 0.850715 0.180737
vt 0.818007 0.979937
vt 0.616170 0.978183
vt 0.984244 0.730681
vt 0.448808 0.957975
vt 0.153414 0.985091
vt 0.989069 0.572358
vt 0.988100 0.573240
vt 0.466468 0.984118
vt 0.628085 0.978183
vt 0.466931 0.983201
vt 0.044591 0.958613
vt 0.984169 0.481793
vt 0.989069 0.584746
vt 0.988100 0.585628
vt 0.984235 0.514963
vt 0.436604 0.989208
vt 0.435635 0.990090
vt 0.334603 0.978325
vt 0.984244 0.743210
vt 0.963568 0.533109
vt 0.792105 0.980144
vt 0.851101 0.469279
s 1
usemtl regional_trailer_baked
f 267/1/1 260/2/1 264/3/1
f 276/4/2 277/5/2 273/6/2
f 303/7/3 297/8/3 298/9/3
f 317/10/4 319/11/4 322/12/4
f 351/13/5 355/14/5 356/15/5
f 365/16/6 366/17/6 364/18/6
f 391/19/7 392/20/7 387/21/7
f 409/22/8 402/23/8 406/24/8
f 438/25/9 439/26/9 440/27/9
f 455/28/10 456/29/10 454/30/10
f 481/31/2 482/32/2 477/33/2
f 502/34/11 495/35/11 499/36/11
f 530/37/12 531/38/12 527/39/12
f 551/40/13 544/41/13 548/42/13
f 563/43/14 564/44/14 562/45/14
f 597/46/15 571/47/15 593/48/15
f 360/49/16 351/13/16 358/50/16
f 570/51/17 572/52/18 573/53/18
f 441/54/19 442/55/19 433/56/19
f 254/57/20 259/58/21 267/59/20
f 277/5/22 269/60/22 271/61/22
f 281/62/23 262/63/23 261/64/23
f 320/65/24 305/66/24 321/67/24
f 313/68/25 297/69/25 304/70/25
f 340/71/26 365/72/26 364/73/26
f 357/74/27 348/75/27 358/76/27
f 361/77/28 350/78/29 360/79/30
f 369/80/31 373/81/31 364/82/31
f 389/83/32 401/84/33 409/85/32
f 392/20/34 399/86/34 385/87/34
f 412/88/35 404/89/35 403/90/35
f 444/91/36 455/92/36 454/93/36
f 438/94/37 450/95/37 439/96/37
f 452/97/38 437/98/39 453/99/40
f 459/100/41 464/101/41 454/102/41
f 486/103/42 494/104/43 502/105/43
f 482/32/22 491/106/22 475/107/22
f 503/108/44 497/109/44 496/110/44
f 522/111/45 543/112/45 551/113/45
f 531/38/46 537/114/46 525/115/46
f 539/116/47 546/117/47 545/118/47
f 573/119/48 563/120/48 562/121/48
f 583/122/49 571/123/49 598/124/49
f 584/125/50 583/126/51 585/127/52
f 567/128/53 589/129/53 562/130/53
f 278/131/54 262/132/55 268/133/56
f 270/134/57 278/135/58 269/60/59
f 260/136/60 280/137/61 261/64/62
f 294/138/63 295/139/64 320/65/65
f 302/140/66 313/141/66 303/7/66
f 366/142/67 341/143/67 367/144/67
f 363/145/68 372/146/69 373/147/70
f 398/148/54 404/149/55 410/150/56
f 400/151/71 398/152/72 399/86/73
f 402/153/74 414/154/75 403/90/76
f 456/155/77 445/156/77 457/157/77
f 434/158/78 465/159/79 462/160/80
f 435/161/81 463/162/82 464/163/83
f 490/164/54 497/165/84 493/166/56
f 492/167/71 490/168/72 491/106/85
f 495/169/86 505/170/87 496/110/88
f 536/171/54 546/172/55 538/173/56
f 535/174/57 536/175/89 537/114/90
f 544/176/60 541/177/91 545/118/92
f 564/178/93 574/179/93 565/180/93
f 596/181/94 583/182/94 597/46/94
f 590/183/95 588/184/96 589/185/97
f 283/186/98 281/187/99 282/188/100
f 305/189/101 295/190/102 296/191/103
f 310/192/104 318/193/104 309/194/104
f 345/195/105 364/196/106 359/197/107
f 413/198/108 412/199/109 415/200/100
f 506/201/110 503/202/111 504/203/100
f 540/204/112 539/205/109 542/206/100
f 579/207/113 562/208/114 587/209/115
f 232/210/116 230/211/116 231/212/116
f 252/213/117 266/214/117 265/215/117
f 278/135/118 276/4/118 275/216/118
f 272/217/119 280/218/120 273/6/121
f 298/9/122 295/219/123 299/220/124
f 317/10/125 312/221/125 318/193/125
f 321/67/126 316/222/127 322/12/128
f 339/223/129 337/224/130 340/225/131
f 352/226/132 339/227/129 353/228/133
f 361/229/134 371/230/134 370/231/134
f 372/146/135 368/232/136 367/233/137
f 393/234/138 408/235/138 407/236/138
f 398/152/139 391/19/139 390/237/140
f 386/238/141 414/239/120 387/21/142
f 431/240/143 443/241/144 444/242/145
f 439/243/146 432/244/146 440/245/146
f 452/246/147 461/247/147 460/248/147
f 463/162/135 458/249/148 457/250/137
f 484/251/117 501/252/117 500/253/117
f 490/168/149 481/31/149 480/254/149
f 476/255/150 505/256/120 477/33/151
f 523/257/138 550/258/138 549/259/138
f 536/175/139 530/37/139 529/260/140
f 526/261/152 541/262/153 527/39/154
f 593/48/155 570/263/156 594/264/133
f 584/265/134 569/266/134 568/267/134
f 588/184/157 566/268/158 565/269/159
f 270/270/160 265/215/160 264/3/160
f 282/271/161 272/217/161 271/61/161
f 297/272/162 295/273/123 298/274/122
f 338/275/163 352/226/163 351/13/163
f 371/276/164 349/277/164 364/278/164
f 363/279/165 356/280/165 355/281/165
f 400/282/166 407/236/166 406/24/166
f 415/283/167 386/238/167 385/87/167
f 461/284/168 451/285/168 454/286/168
f 492/287/169 500/253/169 499/36/169
f 504/288/161 476/255/161 475/107/161
f 535/289/170 549/259/170 548/42/170
f 542/290/161 526/261/161 525/115/161
f 569/291/171 582/292/171 562/293/171
f 232/294/116 231/295/116 230/296/116
f 274/297/172 252/298/173 254/299/174
f 263/300/175 278/131/176 264/301/177
f 311/302/178 303/303/178 309/304/178
f 300/305/179 316/306/180 301/307/181
f 346/308/182 356/309/182 345/195/182
f 347/310/183 350/311/184 349/312/185
f 354/313/186 372/314/187 355/14/188
f 388/315/172 393/316/189 389/317/190
f 405/318/191 398/148/192 406/319/193
f 443/241/144 431/240/143 442/320/194
f 449/321/195 437/322/196 451/323/197
f 434/158/198 463/324/82 435/325/81
f 479/326/172 484/327/173 486/328/174
f 498/329/199 490/164/176 499/330/200
f 528/331/172 523/332/201 522/333/190
f 547/334/202 536/171/203 548/335/204
f 580/336/205 597/337/205 579/207/205
f 581/338/206 583/339/207 582/340/208
f 595/341/209 588/342/96 590/343/95
f 309/344/210 312/345/211 311/346/212
f 345/347/105 360/348/213 346/349/214
f 579/350/113 586/351/215 580/352/216
f 3/353/116 1/354/116 2/355/116
f 2/356/116 1/357/116 3/358/116
f 5/359/217 4/360/218 6/361/217
f 4/362/218 5/363/217 6/364/217
f 9/365/116 7/366/116 8/367/116
f 7/368/116 9/369/116 8/370/116
f 11/371/116 12/372/116 10/373/116
f 11/374/116 10/375/116 12/376/116
f 14/377/116 15/378/116 13/379/116
f 14/380/116 13/381/116 15/382/116
f 17/383/116 18/384/116 16/385/116
f 17/386/116 16/387/116 18/388/116
f 19/389/116 21/390/116 20/391/116
f 21/392/116 19/393/116 20/394/116
f 23/395/219 24/396/219 22/397/220
f 22/398/220 24/399/219 23/400/219
f 26/401/116 27/402/116 25/403/116
f 26/404/116 25/405/116 27/406/116
f 29/407/116 30/408/116 28/409/116
f 29/410/116 28/411/116 30/412/116
f 31/413/116 33/414/116 32/415/116
f 31/416/116 32/417/116 33/418/116
f 35/419/116 34/420/116 36/421/116
f 34/422/116 35/423/116 36/424/116
f 38/425/221 39/426/222 37/427/223
f 37/428/223 39/429/222 38/430/221
f 40/431/116 42/432/116 41/433/116
f 40/434/116 41/435/116 42/436/116
f 44/437/224 43/438/225 45/439/226
f 43/440/225 44/441/224 45/442/226
f 47/443/227 48/444/228 46/445/229
f 48/446/228 47/447/227 46/448/229
f 49/449/116 51/450/116 50/451/116
f 49/452/116 50/453/116 51/454/116
f 54/455/116 53/456/116 52/457/116
f 52/458/116 53/459/116 54/460/116
f 56/461/116 57/462/230 55/463/231
f 57/464/230 56/465/116 55/466/231
f 60/467/232 59/468/233 58/469/233
f 59/470/233 60/471/232 58/472/233
f 64/473/234 61/474/234 62/475/234
f 63/476/235 64/477/235 65/478/116
f 64/479/235 63/480/235 65/481/116
f 66/482/235 68/483/235 67/484/116
f 68/485/235 66/486/235 67/487/116
f 70/488/236 69/489/236 71/490/116
f 69/491/236 70/492/236 71/493/116
f 72/494/237 74/495/116 73/496/237
f 74/497/116 72/498/237 73/499/237
f 76/500/238 75/501/116 77/502/239
f 75/503/116 76/504/238 77/505/239
f 79/506/237 80/507/237 78/508/116
f 80/509/237 79/510/237 78/511/116
f 83/512/236 81/513/236 82/514/116
f 81/515/236 83/516/236 82/517/116
f 84/518/235 85/519/235 86/520/116
f 85/521/235 84/522/235 86/523/116
f 88/524/236 87/525/116 89/526/236
f 87/527/116 88/528/236 89/529/236
f 92/530/240 90/531/241 91/532/242
f 90/533/241 92/534/240 91/535/242
f 94/536/243 93/537/244 95/538/245
f 93/539/244 94/540/243 95/541/245
f 96/542/116 97/543/116 98/544/116
f 97/545/116 96/546/116 98/547/116
f 101/548/116 100/549/116 99/550/116
f 101/551/116 99/552/116 100/553/116
f 104/554/246 102/555/247 103/556/248
f 102/557/247 104/558/246 103/559/248
f 106/560/116 107/561/116 105/562/116
f 106/563/116 105/564/116 107/565/116
f 110/566/116 108/567/116 109/568/116
f 108/569/116 110/570/116 109/571/116
f 113/572/220 112/573/219 111/574/219
f 111/575/219 112/576/219 113/577/220
f 116/578/116 115/579/116 114/580/116
f 116/581/116 114/582/116 115/583/116
f 117/584/116 119/585/116 118/586/116
f 117/587/116 118/588/116 119/589/116
f 120/590/116 122/591/116 121/592/116
f 120/593/116 121/594/116 122/595/116
f 124/596/116 125/597/116 123/598/116
f 125/599/116 124/600/116 123/601/116
f 126/602/249 128/603/250 127/604/250
f 127/605/250 128/606/250 126/607/249
f 130/608/116 131/609/116 129/610/116
f 130/611/116 129/612/116 131/613/116
f 132/614/116 134/615/116 133/616/116
f 132/617/116 133/618/116 134/619/116
f 137/620/116 136/621/116 135/622/116
f 137/623/116 135/624/116 136/625/116
f 138/626/116 140/627/116 139/628/116
f 138/629/116 139/630/116 140/631/116
f 141/632/116 143/633/116 142/634/116
f 142/635/116 143/636/116 141/637/116
f 146/638/237 145/639/237 144/640/116
f 145/641/237 146/642/237 144/643/116
f 148/644/251 147/645/252 149/646/253
f 147/647/252 148/648/251 149/649/253
f 151/650/254 152/651/254 150/652/254
f 152/653/235 153/654/116 154/655/235
f 153/656/116 152/657/235 154/658/235
f 156/659/235 155/660/116 157/661/235
f 155/662/116 156/663/235 157/664/235
f 159/665/255 158/666/255 160/667/116
f 158/668/255 159/669/255 160/670/116
f 161/671/237 162/672/116 163/673/237
f 162/674/116 161/675/237 163/676/237
f 165/677/236 164/678/116 166/679/236
f 164/680/116 165/681/236 166/682/236
f 169/683/237 168/684/237 167/685/116
f 168/686/237 169/687/237 167/688/116
f 171/689/255 170/690/116 172/691/255
f 170/692/116 171/693/255 172/694/255
f 173/695/237 174/696/116 175/697/237
f 174/698/116 173/699/237 175/700/237
f 178/701/255 176/702/116 177/703/255
f 176/704/116 178/705/255 177/706/255
f 180/707/256 179/708/257 181/709/258
f 179/710/257 180/711/256 181/712/258
f 182/713/116 183/714/116 184/715/116
f 183/716/116 182/717/116 184/718/116
f 186/719/116 185/720/116 187/721/116
f 186/722/116 187/723/116 185/724/116
f 189/725/116 188/726/116 190/727/116
f 189/728/116 190/729/116 188/730/116
f 193/731/116 192/732/116 191/733/116
f 191/734/116 192/735/116 193/736/116
f 195/737/235 196/738/235 194/739/235
f 196/740/235 195/741/235 194/742/235
f 198/743/116 197/744/116 199/745/116
f 198/746/116 199/747/116 197/748/116
f 200/749/116 201/750/116 202/751/116
f 200/752/116 202/753/116 201/754/116
f 204/755/259 205/756/260 203/757/261
f 203/758/261 205/759/260 204/760/259
f 206/761/262 207/762/262 208/763/262
f 207/764/262 206/765/262 208/766/262
f 209/767/263 210/768/264 211/769/265
f 210/770/264 209/771/263 211/772/265
f 214/773/266 212/774/267 213/775/116
f 212/776/267 214/777/266 213/778/116
f 216/779/268 215/780/268 217/781/116
f 215/782/268 216/783/268 217/784/116
f 221/785/269 222/786/270 223/787/271
f 222/788/270 221/789/269 223/790/271
f 225/791/272 224/792/273 226/793/116
f 224/794/273 225/795/272 226/796/116
f 227/797/237 228/798/237 229/799/116
f 228/800/237 227/801/237 229/802/116
f 233/803/274 234/804/274 235/805/116
f 234/806/274 233/807/274 235/808/116
f 236/809/275 238/810/116 237/811/275
f 238/812/116 236/813/275 237/814/275
f 239/815/276 240/816/276 241/817/276
f 240/818/276 239/819/276 241/820/276
f 242/821/116 244/822/116 243/823/116
f 243/824/116 244/825/116 242/826/116
f 245/827/255 246/828/255 247/829/255
f 247/830/255 246/831/255 245/832/255
f 248/833/277 249/834/278 250/835/279
f 250/836/279 249/837/278 248/838/277
f 251/839/280 275/840/281 254/57/282
f 251/841/283 266/842/284 252/843/173
f 251/839/280 254/57/282 267/59/285
f 255/844/286 251/845/283 252/846/173
f 274/297/172 255/847/286 252/298/173
f 253/848/287 254/849/174 252/850/173
f 253/851/287 252/843/173 265/852/288
f 256/853/289 257/854/290 258/855/291
f 257/856/290 256/857/289 258/858/291
f 263/859/292 264/860/293 265/861/293
f 261/862/294 283/186/294 259/863/294
f 281/62/295 261/64/296 280/137/120
f 268/864/297 265/861/298 270/865/299
f 270/866/57 264/301/300 278/131/58
f 260/136/60 279/867/301 280/137/61
f 268/868/56 276/4/302 278/135/54
f 268/864/297 270/865/299 277/869/303
f 269/60/304 278/135/304 275/216/304
f 282/188/305 273/870/305 279/871/305
f 255/847/306 273/6/307 280/218/61
f 272/217/119 281/872/295 280/218/120
f 279/873/301 255/874/306 280/875/61
f 279/871/308 283/186/308 282/188/308
f 286/876/116 284/877/116 285/878/116
f 284/879/116 286/880/116 285/881/116
f 288/882/236 287/883/236 289/884/236
f 289/885/236 287/886/236 288/887/236
f 290/888/116 291/889/116 292/890/116
f 292/891/116 291/892/116 290/893/116
f 296/191/309 299/894/309 294/895/309
f 294/895/310 305/189/310 296/191/310
f 293/896/311 299/220/312 295/219/64
f 320/897/313 305/189/313 319/898/313
f 294/899/63 293/900/311 295/901/64
f 300/305/179 293/896/314 316/306/180
f 310/902/315 309/903/316 304/904/317
f 315/905/318 302/906/319 301/907/320
f 303/7/321 311/908/321 312/909/321
f 310/902/315 304/904/317 301/910/322
f 308/911/235 306/912/235 307/913/235
f 306/914/235 308/915/235 307/916/235
f 314/917/323 318/918/323 310/902/323
f 310/902/324 301/910/324 314/917/324
f 309/194/210 318/193/325 312/221/211
f 317/10/326 313/919/327 312/221/328
f 317/10/326 301/920/329 313/919/327
f 315/921/330 322/12/331 316/222/180
f 315/905/318 301/907/320 323/922/332
f 293/923/314 315/924/330 316/925/180
f 325/926/333 324/927/334 326/928/335
f 324/929/334 325/930/333 326/931/335
f 327/932/116 329/933/116 328/934/116
f 327/935/116 328/936/116 329/937/116
f 330/938/336 331/939/337 332/940/338
f 332/941/338 331/942/337 330/943/336
f 333/944/236 335/945/339 334/946/340
f 334/947/340 335/948/339 333/949/236
f 338/950/341 353/951/341 336/952/341
f 336/952/342 337/953/343 338/950/344
f 351/13/345 353/228/346 339/227/347
f 336/952/342 365/72/348 337/953/343
f 336/954/349 351/955/345 339/956/347
f 352/226/132 337/957/130 339/227/129
f 340/958/350 341/959/350 339/960/350
f 340/958/351 366/961/351 341/959/351
f 366/142/352 336/962/349 339/963/347
f 344/964/255 342/965/255 343/966/255
f 342/967/255 344/968/255 343/969/255
f 345/347/105 359/970/107 360/348/213
f 356/15/353 346/971/353 360/49/353
f 347/972/183 358/973/354 350/974/184
f 345/195/355 357/975/356 348/976/357
f 345/195/355 348/976/357 347/977/358
f 347/977/359 370/978/359 345/195/359
f 371/979/360 349/312/361 350/311/29
f 371/979/360 350/311/29 361/980/28
f 358/50/362 357/981/362 360/49/362
f 354/313/186 351/13/363 372/314/187
f 362/982/364 356/280/365 363/279/366
f 363/983/68 355/14/367 372/314/69
f 354/984/368 355/281/368 356/280/369
f 359/985/370 370/986/370 360/987/370
f 362/988/371 368/232/372 372/146/187
f 362/982/364 363/279/366 369/80/373
f 351/989/363 362/990/371 372/991/187
f 367/233/374 368/232/374 373/147/374
f 376/992/235 374/993/235 375/994/235
f 374/995/235 376/996/235 375/997/235
f 377/998/236 378/999/236 379/1000/236
f 379/1001/236 378/1002/236 377/1003/236
f 382/1004/255 380/1005/255 381/1006/255
f 381/1007/255 380/1008/255 382/1009/255
f 384/1010/375 383/1011/283 393/1012/189
f 388/315/172 384/1013/375 393/316/189
f 383/1014/376 390/1015/377 389/83/282
f 386/238/141 412/1016/378 414/239/120
f 399/86/304 398/152/304 390/237/304
f 410/1017/379 400/1018/299 392/1019/380
f 415/200/381 387/1020/381 411/1021/381
f 410/1022/56 391/19/382 398/152/54
f 384/1013/306 387/21/307 414/239/75
f 394/1023/383 389/1024/190 393/1025/189
f 394/1026/383 393/1027/189 407/1028/288
f 383/1029/283 408/1030/284 393/1027/189
f 383/1014/376 389/83/282 409/85/285
f 395/1031/384 397/1032/385 396/1033/386
f 397/1034/385 395/1035/384 396/1036/386
f 400/1037/71 406/319/387 398/148/72
f 410/1017/379 407/1038/388 400/1018/299
f 405/1039/389 406/1040/389 407/1038/389
f 403/1041/390 413/198/390 401/1042/390
f 412/88/378 403/90/391 414/154/120
f 402/153/74 411/1043/301 414/154/75
f 411/1021/308 413/198/308 415/200/308
f 411/1044/301 384/1045/306 414/1046/75
f 418/1047/116 416/1048/116 417/1049/116
f 416/1050/116 418/1051/116 417/1052/116
f 419/1053/116 420/1054/116 421/1055/116
f 419/1056/116 421/1057/116 420/1058/116
f 424/1059/392 422/1060/393 423/1061/394
f 423/1062/394 422/1063/393 424/1064/392
f 425/1065/255 426/1066/255 427/1067/255
f 427/1068/255 426/1069/255 425/1070/255
f 428/1071/255 429/1072/255 430/1073/255
f 430/1074/255 429/1075/255 428/1076/255
f 439/243/395 431/1077/396 432/244/397
f 442/1078/398 431/1077/396 439/243/395
f 444/1079/399 445/1080/399 431/1081/399
f 443/1082/400 440/245/401 432/244/402
f 436/1083/403 438/25/403 450/1084/403
f 449/1085/195 438/1086/404 437/1087/196
f 434/158/198 462/160/405 463/324/82
f 454/102/406 437/1088/406 436/1083/406
f 462/1089/80 436/1083/407 435/1090/408
f 444/1079/351 456/1091/351 445/1080/351
f 456/155/409 443/1092/400 432/1093/402
f 448/1094/116 446/1095/116 447/1096/116
f 446/1097/116 448/1098/116 447/1099/116
f 454/102/410 450/1084/411 449/1100/412
f 449/1100/413 460/1101/413 454/102/413
f 461/1102/414 451/323/415 437/322/39
f 437/1103/39 460/1104/416 453/1105/40
f 461/1102/414 437/322/39 452/1106/38
f 462/1089/80 435/1090/408 459/100/417
f 462/1107/405 458/249/418 463/162/82
f 457/250/419 458/249/419 464/163/419
f 467/1108/236 466/1109/236 468/1110/236
f 466/1111/236 467/1112/236 468/1113/236
f 470/1114/236 471/1115/236 469/1116/236
f 469/1117/236 471/1118/236 470/1119/236
f 472/1120/116 473/1121/116 474/1122/116
f 474/1123/116 473/1124/116 472/1125/116
f 483/1126/376 480/1127/281 486/103/282
f 476/255/150 503/1128/295 505/256/120
f 491/106/304 490/168/304 480/254/304
f 479/326/172 478/1129/375 484/327/173
f 493/1130/379 492/1131/299 482/1132/303
f 504/203/305 477/1133/305 507/1134/305
f 493/1135/56 481/31/302 490/168/54
f 478/1129/306 477/33/307 505/256/87
f 483/1136/283 501/1137/284 484/1138/173
f 483/1126/376 486/103/282 502/105/285
f 478/1139/375 483/1140/283 484/1141/173
f 485/1142/287 484/1138/173 500/1143/288
f 485/1144/287 486/1145/174 484/1146/173
f 487/1147/420 488/1148/421 489/1149/335
f 488/1150/421 487/1151/420 489/1152/335
f 492/1153/71 499/330/422 490/164/72
f 493/1130/379 500/1154/388 492/1131/299
f 498/1155/423 499/1156/423 500/1154/423
f 496/1157/424 506/201/424 494/1158/424
f 503/108/295 496/110/296 505/170/120
f 495/169/86 507/1159/301 505/170/87
f 507/1134/308 506/201/308 504/203/308
f 507/1160/301 478/1161/306 505/1162/87
f 510/1163/236 508/1164/236 509/1165/236
f 508/1166/236 510/1167/236 509/1168/236
f 511/1169/116 512/1170/116 513/1171/116
f 511/1172/116 513/1173/116 512/1174/116
f 516/1175/425 514/1176/426 515/1177/427
f 515/1178/427 514/1179/426 516/1180/425
f 517/1181/277 518/1182/278 519/1183/279
f 519/1184/279 518/1185/278 517/1186/277
f 520/1187/376 529/1188/377 522/111/282
f 520/1189/428 550/1190/284 523/1191/201
f 520/1187/376 522/111/282 551/113/285
f 524/1192/375 520/1193/428 523/1194/201
f 521/1195/383 523/1191/201 549/1196/288
f 521/1197/383 522/1198/190 523/1199/201
f 528/331/172 524/1200/375 523/332/201
f 526/261/152 539/1201/378 541/262/153
f 537/114/304 536/175/304 529/260/304
f 538/1202/297 535/1203/299 531/1204/303
f 542/206/381 527/1205/381 552/1206/381
f 538/1207/56 530/37/382 536/175/54
f 524/1200/429 527/39/307 541/262/91
f 533/1208/116 532/1209/116 534/1210/116
f 532/1211/116 533/1212/116 534/1213/116
f 538/1202/297 549/1214/388 535/1203/299
f 535/1215/57 548/335/430 536/171/89
f 547/1216/431 548/1217/431 549/1214/431
f 539/116/378 545/118/296 541/177/153
f 545/1218/432 540/204/432 543/1219/432
f 552/1206/308 540/204/308 542/206/308
f 544/176/60 552/1220/301 541/177/91
f 552/1221/301 524/1222/429 541/1223/91
f 554/1224/433 553/1225/433 555/1226/434
f 553/1227/433 554/1228/433 555/1229/434
f 557/1230/236 558/1231/236 556/1232/236
f 556/1233/236 558/1234/236 557/1235/236
f 560/1236/236 559/1237/236 561/1238/236
f 561/1239/236 559/1240/236 560/1241/236
f 573/1242/351 564/1243/351 574/1244/351
f 591/1245/435 590/1246/436 567/128/437
f 581/1247/438 568/1248/438 579/207/438
f 587/1249/439 568/1250/439 585/1251/439
f 591/1252/440 566/268/441 588/184/96
f 569/1253/442 583/339/51 584/1254/50
f 569/1253/442 582/340/443 583/339/51
f 564/178/352 575/1255/444 570/1256/445
f 575/1257/446 563/120/447 572/1258/448
f 565/269/374 566/268/374 589/185/374
f 592/1259/449 594/264/450 570/263/445
f 572/1258/448 594/1260/451 575/1257/446
f 593/48/155 571/1261/452 570/263/156
f 571/1262/452 572/52/453 570/51/156
f 573/1242/350 574/1244/350 570/1263/350
f 575/1264/444 592/1265/449 570/1266/445
f 576/1267/116 577/1268/116 578/1269/116
f 577/1270/116 576/1271/116 578/1272/116
f 579/350/113 587/1273/115 586/351/215
f 597/46/454 580/1274/454 586/1275/454
f 585/127/52 583/126/51 586/1276/455
f 587/1249/456 585/1251/52 586/1277/455
f 579/207/457 598/1278/457 581/1247/457
f 591/1245/435 596/1279/458 590/1246/436
f 592/1280/459 591/1281/440 588/1282/96
f 595/341/209 592/1259/459 588/342/96
f 601/1283/235 599/1284/235 600/1285/235
f 599/1286/235 601/1287/235 600/1288/235
f 602/1289/116 604/1290/116 603/1291/116
f 602/1292/116 603/1293/116 604/1294/116
f 607/1295/460 606/1296/460 605/1297/460
f 605/1298/460 606/1299/460 607/1300/460
f 610/1301/116 609/1302/116 608/1303/116
f 608/1304/116 609/1305/116 610/1306/116
f 613/1307/461 612/1308/460 611/1309/236
f 611/1310/236 612/1311/460 613/1312/461
f 614/1313/255 616/1314/462 615/1315/463
f 615/1316/463 616/1317/462 614/1318/255
f 619/1319/464 617/1320/464 618/1321/465
f 618/1322/465 617/1323/464 619/1324/464
f 621/1325/466 622/1326/466 620/1327/467
f 620/1328/467 622/1329/466 621/1330/466
f 624/1331/468 623/1332/468 625/1333/468
f 625/1334/468 623/1335/468 624/1336/468
f 626/1337/255 627/1338/255 628/1339/255
f 628/1340/255 627/1341/255 626/1342/255
f 631/1343/116 630/1344/116 629/1345/116
f 629/1346/116 630/1347/116 631/1348/116
f 634/1349/116 633/1350/116 632/1351/116
f 632/1352/116 633/1353/116 634/1354/116
f 637/1355/116 636/1356/469 635/1357/469
f 635/1358/469 636/1359/469 637/1360/116
f 640/1361/116 638/1362/262 639/1363/262
f 639/1364/262 638/1365/262 640/1366/116
f 642/1367/116 643/1368/262 641/1369/262
f 641/1370/262 643/1371/262 642/1372/116
f 644/1373/470 646/1374/116 645/1375/470
f 645/1376/470 646/1377/116 644/1378/470
f 647/1379/469 649/1380/116 648/1381/469
f 648/1382/469 649/1383/116 647/1384/469
f 267/1/471 259/1385/471 260/2/471
f 260/2/472 261/1386/472 263/1387/472
f 261/1386/473 262/1388/473 263/1387/473
f 263/1387/474 264/3/474 260/2/474
f 264/3/475 265/215/475 266/214/475
f 266/214/476 267/1/476 264/3/476
f 277/5/477 271/61/477 272/217/477
f 272/217/478 273/6/478 277/5/478
f 273/6/479 255/847/479 276/4/479
f 255/847/480 274/297/480 276/4/480
f 274/297/481 254/299/482 275/216/483
f 276/4/484 274/297/484 275/216/484
f 298/9/485 299/220/485 302/140/485
f 299/220/486 293/896/486 302/140/486
f 293/896/487 300/305/487 302/140/487
f 300/305/488 301/307/489 302/140/489
f 303/7/490 304/1389/490 297/8/490
f 302/140/491 303/7/491 298/9/491
f 323/1390/492 301/920/492 317/10/492
f 317/10/493 318/193/493 319/11/493
f 319/11/494 294/138/495 320/65/495
f 320/65/496 321/67/496 322/12/496
f 322/12/497 323/1390/497 317/10/497
f 319/11/498 320/65/498 322/12/498
f 351/13/499 352/226/500 353/228/499
f 354/313/501 355/14/502 351/13/502
f 356/15/503 357/981/503 358/50/503
f 356/15/504 358/50/504 351/13/504
f 366/17/505 367/1391/505 364/18/505
f 367/1391/506 368/1392/506 364/18/506
f 368/1392/507 369/1393/508 364/18/509
f 364/18/510 370/1394/510 371/1395/510
f 392/20/511 385/87/511 386/238/511
f 386/238/512 387/21/512 392/20/513
f 387/21/514 384/1013/514 391/19/514
f 384/1013/480 388/315/480 391/19/480
f 388/315/515 389/317/516 390/237/517
f 391/19/518 388/315/518 390/237/518
f 409/22/519 401/1396/519 402/23/519
f 402/23/520 403/1397/520 405/1398/521
f 403/1397/522 404/1399/522 405/1398/522
f 405/1398/523 406/24/474 402/23/474
f 406/24/475 407/236/475 408/235/475
f 408/235/524 409/22/524 406/24/524
f 441/1400/525 433/1401/525 434/1402/525
f 434/1402/526 435/1090/527 436/1083/528
f 436/1083/529 437/1088/529 438/25/529
f 434/1402/530 436/1083/530 438/25/530
f 441/1400/1 434/1402/1 438/25/1
f 441/1400/476 438/25/476 440/27/476
f 456/29/531 457/1403/531 454/30/531
f 457/1403/532 458/1404/532 454/30/532
f 458/1404/533 459/1405/533 454/30/533
f 454/30/534 460/1406/534 461/1407/534
f 482/32/535 475/107/535 476/255/535
f 476/255/536 477/33/536 482/32/536
f 477/33/514 478/1129/514 481/31/514
f 478/1129/537 479/326/537 481/31/537
f 479/326/538 486/328/539 480/254/540
f 481/31/541 479/326/541 480/254/541
f 502/34/519 494/1408/519 495/35/519
f 495/35/542 496/1409/542 498/1410/542
f 496/1409/543 497/1411/543 498/1410/543
f 498/1410/544 499/36/545 495/35/545
f 499/36/475 500/253/475 501/252/475
f 501/252/476 502/34/476 499/36/476
f 531/38/546 525/115/546 526/261/546
f 526/261/547 527/39/547 531/38/547
f 527/39/548 524/1200/548 530/37/548
f 524/1200/480 528/331/480 530/37/480
f 528/331/549 522/333/550 529/260/551
f 530/37/552 528/331/552 529/260/552
f 551/40/553 543/1412/553 544/41/553
f 544/41/472 545/1413/472 547/1414/472
f 545/1413/522 546/1415/522 547/1414/522
f 547/1414/474 548/42/474 544/41/474
f 548/42/554 549/259/554 550/258/554
f 550/258/524 551/40/524 548/42/524
f 564/44/555 565/1416/555 562/45/555
f 565/1416/556 566/1417/556 562/45/557
f 566/1417/558 567/1418/558 562/45/558
f 562/45/559 568/1419/559 569/1420/559
f 593/48/560 594/264/560 596/181/560
f 594/264/561 592/1259/561 596/181/561
f 592/1259/487 595/341/487 596/181/487
f 595/341/562 590/343/563 596/181/564
f 597/46/565 598/1421/565 571/47/565
f 596/181/566 597/46/566 593/48/566
f 360/49/30 350/1422/29 351/13/567
f 441/54/568 443/1423/568 442/55/568
f 254/57/174 253/1424/287 259/58/569
f 277/5/570 270/1425/570 269/60/570
f 281/62/99 283/1426/98 262/63/571
f 320/65/572 295/139/102 305/66/101
f 313/68/327 301/1427/329 297/69/573
f 340/71/574 337/953/574 365/72/574
f 357/74/575 347/1428/358 348/75/357
f 369/80/576 363/279/577 373/81/578
f 389/83/190 394/1429/383 401/84/579
f 392/20/580 400/1430/580 399/86/580
f 412/88/109 413/1431/108 404/89/581
f 444/91/582 443/1423/583 455/92/584
f 438/94/585 449/1432/412 450/95/411
f 459/100/586 435/1090/586 464/101/586
f 486/103/174 485/1433/287 494/104/587
f 482/32/570 492/1434/570 491/106/570
f 503/108/111 506/1435/110 497/109/588
f 522/111/190 521/1436/383 543/112/579
f 531/38/589 535/1437/590 537/114/591
f 539/116/109 540/1438/112 546/117/592
f 573/119/593 572/1258/594 563/120/595
f 583/122/207 581/1439/206 571/123/596
f 567/128/597 590/1246/597 589/129/597
f 219/1440/116 218/1441/116 220/1442/116
f 218/1443/116 219/1444/116 220/1445/116
f 251/841/598 267/1446/598 266/842/598
f 278/131/176 263/300/175 262/132/599
f 268/864/600 277/869/600 276/1447/600
f 302/140/601 312/1448/328 313/141/327
f 315/924/602 323/1449/602 322/1450/602
f 366/142/352 339/963/347 341/143/603
f 362/990/604 369/1451/604 368/1452/604
f 383/1029/605 409/1453/605 408/1030/605
f 398/148/192 405/318/191 404/149/606
f 410/1017/607 392/1019/608 391/1454/607
f 456/155/409 432/1093/402 445/156/609
f 434/158/610 433/1455/610 465/159/610
f 462/1456/611 459/1457/611 458/1458/611
f 483/1136/598 502/1459/598 501/1137/598
f 490/164/176 498/329/199 497/165/599
f 493/1130/600 482/1132/600 481/1460/600
f 520/1189/598 551/1461/598 550/1190/598
f 536/171/203 547/334/202 546/172/599
f 538/1202/600 531/1204/600 530/1462/600
f 564/178/352 570/1256/445 574/179/603
f 596/181/612 586/1463/455 583/182/51
f 591/1281/613 567/1464/613 566/1465/613
f 310/192/614 319/11/614 318/193/614
f 345/195/615 370/978/615 364/196/615
f 443/1082/616 441/1466/616 440/245/616
f 579/207/617 568/1248/617 562/208/617
f 361/229/618 360/1467/618 371/230/618
f 452/246/619 453/1468/619 461/247/619
f 584/265/620 585/1469/620 569/266/620
f 282/271/621 281/872/621 272/217/621
f 297/272/622 296/1470/622 295/273/622
f 338/275/623 337/957/623 352/226/623
f 371/276/624 347/1471/625 349/277/626
f 415/283/627 412/1016/627 386/238/627
f 431/1472/396 445/1473/628 432/1474/397
f 461/284/629 449/1475/629 451/285/629
f 504/288/630 503/1128/631 476/255/632
f 542/290/633 539/1201/633 526/261/633
f 569/291/634 581/1476/634 582/292/634
f 260/136/635 259/1477/635 279/867/635
f 311/302/636 304/904/636 303/303/636
f 336/952/342 366/1478/637 365/72/348
f 346/308/638 357/975/638 356/309/638
f 402/153/639 401/1479/639 411/1043/639
f 443/1423/583 456/1480/640 455/92/584
f 495/169/635 494/1481/635 507/1159/635
f 544/176/641 543/1482/641 552/1220/641
f 575/1257/446 564/1483/642 563/120/447
f 580/336/643 598/1278/643 597/337/643
f 251/839/280 274/1484/644 275/840/281
f 266/842/645 267/1446/646 265/852/645
f 267/1446/647 253/851/647 265/852/647
f 268/864/297 263/859/648 265/861/298
f 283/186/649 279/871/649 259/863/649
f 260/1485/650 261/862/650 259/863/650
f 276/4/651 277/5/651 275/216/651
f 277/5/652 269/60/652 275/216/652
f 282/188/653 272/1486/653 273/870/653
f 296/191/654 298/1487/654 299/894/654
f 305/189/655 294/895/655 319/898/655
f 313/141/656 304/1389/656 303/7/656
f 315/905/318 300/1488/657 302/906/319
f 314/917/658 317/1489/658 318/918/658
f 321/67/659 322/12/659 323/1390/659
f 323/1390/660 316/222/127 321/67/126
f 338/950/661 352/1490/661 353/951/661
f 340/958/662 365/1491/662 366/961/662
f 347/977/663 371/1492/663 370/978/663
f 357/981/664 356/15/664 360/49/664
f 362/982/364 354/984/665 356/280/365
f 368/232/666 369/1493/666 373/147/666
f 373/147/667 372/146/135 367/233/137
f 383/1014/376 388/1494/668 390/1015/377
f 391/19/669 392/20/669 390/237/669
f 392/20/670 399/86/670 390/237/670
f 415/200/671 386/1495/671 387/1020/671
f 408/1030/672 409/1453/672 407/1028/672
f 409/1453/673 394/1026/673 407/1028/673
f 410/1017/379 405/1039/648 407/1038/388
f 413/198/649 411/1021/649 401/1042/649
f 402/1496/674 403/1041/674 401/1042/674
f 439/243/675 440/245/675 441/1466/675
f 441/1466/676 442/1078/676 439/243/676
f 450/1084/411 454/102/410 436/1083/677
f 436/1083/407 462/1089/80 465/1497/79
f 465/1497/678 434/1402/678 436/1083/678
f 444/1079/679 455/1498/679 456/1091/679
f 449/1100/680 461/1499/680 460/1101/680
f 458/249/681 459/1500/681 464/163/681
f 464/163/667 463/162/135 457/250/137
f 483/1126/376 479/1501/682 480/1127/281
f 481/31/683 482/32/683 480/254/683
f 482/32/684 491/106/684 480/254/684
f 504/203/685 476/1502/685 477/1133/685
f 501/1137/686 502/1459/686 500/1143/686
f 502/1459/673 485/1142/673 500/1143/673
f 493/1130/379 498/1155/687 500/1154/388
f 506/201/649 507/1134/649 494/1158/649
f 495/1503/688 496/1157/688 494/1158/688
f 520/1187/376 528/1504/668 529/1188/377
f 550/1190/689 551/1461/689 549/1196/689
f 551/1461/690 521/1195/690 549/1196/690
f 530/37/691 531/38/691 529/260/691
f 531/38/692 537/114/692 529/260/692
f 542/206/693 526/1505/694 527/1205/693
f 538/1202/297 547/1216/648 549/1214/388
f 540/204/649 552/1206/649 543/1219/649
f 544/1506/695 545/1218/695 543/1219/695
f 573/1242/662 563/1507/662 564/1243/662
f 581/1247/696 569/1508/696 568/1248/696
f 566/268/697 567/1509/697 589/185/697
f 589/185/667 588/184/157 565/269/159
f 572/1258/698 593/1510/698 594/1260/698
f 583/182/699 598/1421/699 597/46/699
f 591/1245/435 595/1511/700 596/1279/458
