# Blender 4.5.0
# www.blender.org
mtllib station_002.lod2.mtl
o station_002
v 4.070638 3.176471 2.010335
v 4.070638 2.776914 -1.942110
v 5.439385 1.041913 -13.000000
v 1.845300 0.006919 -13.000000
v 2.337562 1.054901 12.824387
v 2.337562 1.056754 12.824387
v 2.047423 1.055281 -12.753698
v 2.342028 1.056370 -12.753698
v 1.905203 1.055827 13.000000
v 1.953051 1.056185 -12.904707
v 1.857353 1.055466 -12.904707
v 4.315654 1.034430 -10.002947
v 4.167060 1.034430 -9.992002
v 4.294342 3.596004 -10.050714
v 1.963084 3.439230 -9.993111
v 5.106544 3.692214 -10.047229
v 5.092451 3.696696 -9.939370
v 4.315655 1.034430 -4.987152
v 4.188373 3.596004 -5.034921
v 4.167060 1.034430 -4.976209
v 1.963085 3.439231 -4.977317
v 5.094993 3.654067 -5.022499
v 5.104671 3.728657 -4.945462
v 4.294342 3.596004 -0.019127
v 4.315655 1.034430 0.028641
v 4.167060 1.034430 0.039585
v 1.976343 3.476259 0.072845
v 1.995770 3.405611 -0.007400
v 5.122773 3.692375 0.034113
v 4.167060 1.034431 5.055378
v 4.294342 3.596005 5.103146
v 4.315655 1.034431 5.044435
v 1.963085 3.439232 5.054271
v 5.106544 3.692215 5.000152
v 5.092451 3.696697 5.108011
v 4.294342 3.596005 10.012461
v 4.315654 1.034431 10.060229
v 4.167060 1.034431 10.071173
v 1.963084 3.439231 10.070065
v 5.106544 3.692215 10.015946
v 5.092451 3.696698 10.123805
v 1.902135 3.808841 12.072018
v 1.897274 3.747093 -12.018951
v 5.287578 3.764560 -12.018951
v 4.583080 1.469396 -7.840683
v 4.597757 1.504841 -6.134864
v 3.984792 1.511805 -6.134865
v 4.483225 1.468368 -7.666571
v 4.088766 1.045743 -7.638951
v 4.493784 1.045745 -7.641149
v 4.483256 1.468368 -6.309651
v 4.088765 1.045746 -6.334847
v 4.493783 1.045743 -6.337045
v 4.583080 1.547252 3.896274
v 3.984792 1.504842 2.190456
v 4.597757 1.511806 2.190455
v 4.483225 1.468368 2.365017
v 4.493783 1.045742 2.390436
v 4.088767 1.045742 2.392636
v 4.483256 1.468369 3.721936
v 4.493783 1.045741 3.694543
v 4.088767 1.045742 3.696743
v 4.583080 1.469397 7.206698
v 4.597757 1.504842 8.912517
v 3.984793 1.511807 8.912517
v 4.088766 1.045745 7.408430
v 4.493784 1.045746 7.406232
v 4.483225 1.468369 7.380810
v 4.088766 1.471460 8.710338
v 4.483225 1.048835 8.737956
v 4.493783 1.471460 8.712536
v 4.046678 0.246654 0.018492
v 12.300000 0.087456 2.961151
v 12.300000 0.072365 -2.892925
v 3.792097 1.550923 3.164839
v 4.071065 2.400405 -2.195408
v 11.918722 3.249461 -2.607276
v 4.254998 3.372822 2.679290
v 11.915066 3.372822 -2.611064
v 11.911805 3.369328 2.682452
v 11.918549 3.373546 2.674966
v 4.251950 3.256382 2.686389
v 4.251341 3.249462 2.675502
v 4.251341 3.256382 2.682452
v 4.251341 3.263302 2.675502
v 4.251513 3.373545 -2.606741
v 4.258257 3.369328 -2.614226
v 4.251345 3.256058 -2.614226
v 4.251341 3.607635 -2.617952
v 4.258257 3.256382 -2.614226
v 4.251341 3.249461 -2.621176
v 4.251341 3.609062 2.689402
v 4.258300 3.614260 2.684881
v 11.915372 3.612915 2.685638
v 11.918722 3.263302 2.686302
v 11.911805 3.256382 2.682452
v 11.918722 3.249462 2.689402
v 11.918718 3.256058 2.682452
v 11.918722 3.609062 -2.621176
v 11.911402 3.615789 -2.617301
v 11.918722 3.256382 -2.614226
v 11.918722 3.263302 -2.607276
v 11.918114 3.256382 -2.618164
v 11.911805 3.615982 -2.767782
v 12.075734 3.613865 -2.770784
v 11.918722 3.609062 -2.774732
v 11.925639 3.615982 -2.781681
v 4.251341 3.256382 -2.767782
v 4.239926 3.231176 -2.808074
v 4.251341 3.263302 -2.774732
v 4.258257 3.256382 -2.767782
v 11.911805 3.256382 -2.783059
v 11.911805 3.256382 -2.767782
v 11.918722 3.256382 -2.774732
v 4.188373 3.596004 -0.019127
v 4.095312 3.264730 2.842957
v 4.095185 3.256666 2.835640
v 4.258257 3.615982 -2.767782
v 4.251341 3.607689 -2.774732
v 4.251341 3.615982 -2.766403
v 4.251341 3.615983 2.836007
v 4.251341 3.609062 2.842957
v 4.258257 3.615983 2.836007
v 4.251341 3.256382 2.842957
v 4.258257 3.256382 2.851285
v 4.258257 3.256382 2.836007
v 11.930137 3.231178 2.876301
v 11.911805 3.256382 2.836007
v 11.918722 3.263302 2.842957
v 11.925639 3.256382 2.849907
v 12.074753 3.607635 2.842957
v 12.075555 3.613807 2.836981
v 11.925639 3.615983 2.836007
v 11.918722 3.615983 2.834629
v 11.911805 3.615983 2.836007
v 11.918722 3.607690 2.842957
v 12.074753 3.264729 -2.774732
v 12.074880 3.256666 -2.767414
v 4.197862 0.151620 0.978568
v 4.185017 0.151619 -0.910342
v 4.100208 0.239382 -0.818878
v 4.102967 0.239382 0.887104
v 4.089348 2.337403 0.018123
v 4.071637 2.352728 0.034113
v 4.043929 0.237037 0.036136
v 4.099345 0.237036 0.032090
v 3.978261 0.998203 0.156628
v 4.011735 1.416967 0.154492
v 4.045211 0.998203 0.152356
v 4.011735 1.416967 -0.086266
v 3.978261 0.998203 -0.084130
v 4.045211 0.998203 -0.088402
v 4.226382 2.747824 2.032782
v 4.205898 0.650674 1.140065
v 4.216915 0.650674 2.338900
v 4.120335 2.366827 2.240537
v 4.111549 0.689234 1.755831
v 4.122774 2.366827 1.238429
v 4.091604 2.423918 2.241062
v 4.061347 0.686512 2.243055
v 4.121861 0.686512 2.239069
v 4.091604 2.423918 1.739483
v 4.061347 0.686512 1.741476
v 4.121861 0.686512 1.737489
v 4.091604 2.423918 1.237904
v 4.061347 0.686512 1.239897
v 4.121861 0.686512 1.235910
v 3.951318 0.644871 2.362520
v 4.183139 0.612091 1.122540
v 4.191956 0.653686 2.362520
v 4.226382 2.748056 -1.964584
v 4.216916 0.650674 -1.071839
v 4.205898 0.650674 -2.270674
v 4.111549 2.407325 -1.687606
v 4.120335 0.719743 -2.172311
v 4.122774 0.719743 -1.170203
v 4.091604 2.423918 -1.169677
v 4.061347 0.686512 -1.167684
v 4.121861 0.686512 -1.171671
v 4.061347 0.686512 -1.669263
v 4.121861 0.686512 -1.673250
v 4.091604 2.423918 -1.671257
v 4.091604 2.423918 -2.172836
v 4.061347 0.686512 -2.170843
v 4.121861 0.686511 -2.174829
v 4.191956 0.644871 -2.294294
v 4.183139 0.686466 -1.054314
v 3.951318 0.653685 -2.294293
v 4.223516 3.198195 -1.972205
v 4.159933 2.748569 2.055341
v 4.143078 3.204818 2.055341
v 6.138236 0.145408 -6.618567
v 4.840371 0.145313 -6.618619
v 4.847901 -0.000001 -6.625230
v 6.131319 -0.000001 -6.347473
v 6.138236 0.007590 -6.345976
v 6.138236 0.007141 -6.339265
v 6.130202 0.449500 -6.063354
v 4.840371 0.007141 -6.071803
v 4.840371 0.008041 -6.345976
v 4.840371 0.004519 -6.354218
v 4.847836 -0.000001 -6.344361
v 4.840371 0.008334 -5.780301
v 4.840371 0.008283 -5.784208
v 4.840371 0.008047 -5.789338
v 4.847288 -0.000001 -5.782711
v 6.130202 0.599333 -5.782469
v 4.840371 0.441407 -5.789264
v 4.847816 -0.000001 -6.065092
v 4.840371 0.008264 -6.065092
v 6.131319 -0.000001 -6.066588
v 6.138236 0.008041 -6.065092
v 6.138236 0.008047 -6.059962
v 6.138242 -0.000001 -5.784208
v 6.138236 -0.000001 -5.791158
v 6.136779 -0.000001 -5.784208
v 4.848362 0.749167 -5.501384
v 6.138236 0.008334 -5.507229
v 6.138237 -0.000001 -5.503323
v 6.138236 -0.000001 -5.510273
v 6.136406 -0.000001 -5.503323
v 6.131221 0.598300 -5.783929
v 6.138236 0.590999 -5.780301
v 6.130202 0.899000 -5.220699
v 4.840371 0.008341 -5.500195
v 4.840371 0.008138 -5.503323
v 4.840371 0.008280 -5.507347
v 4.847288 -0.000001 -5.501826
v 4.840371 0.008286 -5.230350
v 4.840371 -0.000001 -5.215488
v 4.844210 -0.000001 -5.222438
v 4.840371 0.008272 -5.219853
v 6.138236 0.740825 -5.500195
v 4.840371 0.739855 -5.225930
v 4.848362 1.048834 -4.939615
v 6.138236 0.008272 -4.944138
v 6.138363 -0.000001 -4.941554
v 6.138236 -0.000001 -4.948504
v 6.135958 -0.000001 -4.941554
v 6.131319 -0.000001 -5.223935
v 6.138236 0.008341 -5.225565
v 6.138236 0.008138 -5.222438
v 6.138236 0.008220 -5.219686
v 6.130694 0.006145 -4.660670
v 6.130202 -0.000001 -4.662408
v 4.840371 0.008220 -4.944307
v 4.847288 -0.000001 -4.941554
v 4.840371 0.008183 -4.939363
v 4.840371 0.007545 -4.941554
v 6.138236 1.040650 -4.939363
v 6.131192 1.048088 -4.940900
v 4.840371 0.890728 -4.944138
v -1.848621 1.041913 -13.000000
v -2.340882 1.054901 12.824387
v -5.442706 0.006919 -13.000000
v -2.050743 1.056370 -12.753698
v -2.340882 1.056754 12.824387
v -2.345348 1.055281 -12.753698
v -1.900426 3.747135 12.087202
v -5.390901 3.764519 12.087201
v -1.905455 3.808839 -12.003792
v -4.347580 1.048834 -9.944235
v -4.220297 3.660352 -9.992002
v -4.368892 3.660352 -10.002947
v -4.289151 3.660353 -5.056335
v -4.347580 1.048834 -5.034920
v -4.300042 3.660353 -4.907026
v -4.347580 1.048834 -0.019127
v -4.289151 3.660353 -0.040542
v -4.300042 3.660353 0.108767
v -4.289151 3.660354 4.975252
v -4.347580 1.048835 4.996667
v -4.300042 3.660354 5.124561
v -4.220297 3.660353 10.071173
v -4.368892 3.660354 10.060229
v -4.347580 1.048835 10.012461
v 5.304607 5.287199 9.170955
v -5.485707 5.536922 10.216174
v -5.485707 5.301039 7.908908
v -5.085222 5.294119 9.170955
v -5.301011 1.048835 9.170955
v -5.085222 1.048835 8.954129
v 5.297691 5.294119 8.954129
v 5.297691 1.048835 8.954129
v 5.081902 1.048835 9.170955
v -5.492623 6.635700 7.989735
v 5.496680 6.650001 7.962486
v 5.496680 5.536461 7.955647
v -5.500000 6.650001 10.162596
v 5.489304 5.550762 10.135348
v -5.500000 5.536461 10.169436
v -4.816201 1.074918 2.733112
v -3.790792 1.123463 2.898042
v -3.790792 1.131306 2.587242
v -4.793774 1.358139 3.168520
v -3.790792 1.324274 2.869949
v -3.790792 1.316431 3.180749
v -4.793774 1.475531 3.164887
v -3.790791 1.509398 3.463461
v -3.790791 1.517241 3.152658
v -4.793774 1.668498 3.447596
v -3.790792 1.702364 3.746169
v -3.790792 1.710206 3.435368
v -4.793774 1.861466 3.730304
v -3.790792 1.903174 3.718075
v -3.790792 1.895331 4.028876
v -3.790790 2.096143 4.000784
v -4.805219 2.117076 4.289657
v -3.790790 2.088299 4.311584
v -3.790792 2.281267 4.594293
v -4.793774 2.322976 4.582062
v -3.790792 2.289111 4.283491
v -3.790792 2.474236 4.877002
v -4.793774 2.515760 4.578381
v -3.790791 2.482078 4.566199
v -3.790791 2.675045 4.848911
v -4.793774 2.633336 4.861138
v -3.790791 2.667202 5.159707
v -4.793774 2.826486 5.430236
v -3.790793 2.868011 5.131615
v -3.790792 2.860169 5.442419
v -3.790792 3.053137 5.725128
v -4.793774 3.019271 5.426555
v -3.790792 3.060980 5.414325
v -4.806289 3.178397 5.846415
v -3.790792 3.253948 5.697032
v -3.790792 3.246105 6.007834
v -3.790791 3.446915 5.979741
v -4.793774 3.480597 5.991922
v -3.790791 3.439071 6.290542
v -3.790792 3.639883 6.262448
v -3.790791 3.632039 6.573248
v -4.793774 3.673749 6.561020
v -4.793774 3.791324 6.843778
v -3.790792 3.832849 6.545156
v -3.790791 3.825007 6.855960
v -3.790792 4.025817 6.827866
v -3.790792 4.017974 7.138669
v -4.793774 3.984108 6.840096
v -4.805219 4.239718 7.399448
v -3.790792 4.218785 7.110574
v -3.790792 4.210942 7.421377
v -4.793774 4.445436 7.405465
v -3.790792 4.411753 7.393281
v -3.790793 4.403910 7.704084
v -3.790793 4.596878 7.986791
v -4.793774 4.638586 7.974563
v -3.790793 4.604720 7.675990
v -4.793774 4.831553 8.257272
v -3.790792 4.797686 7.958698
v -3.790792 4.789844 8.269502
v -4.793774 4.948945 8.253638
v -3.790792 4.982811 8.552210
v -3.790791 4.990654 8.241407
v -3.790793 5.175780 8.834919
v -4.793774 5.217305 8.536298
v -3.790792 5.183622 8.524117
v -4.792902 1.035802 2.726234
v -4.777044 5.269670 8.984508
v -4.808820 5.324144 8.947090
v -4.778852 6.253068 8.956196
v -4.793300 1.991899 2.735483
v -4.808276 6.233092 8.969263
v -4.796805 2.000611 2.733532
v -4.793412 1.043054 2.743272
v -4.788348 1.995799 2.755229
v -4.793412 2.104374 4.298168
v -4.796805 3.061932 4.288429
v -4.788349 3.057120 4.310125
v -4.799740 3.172137 5.864184
v -4.793049 4.126204 5.852433
v -4.788515 3.169512 5.843338
v -4.793412 4.227017 7.407959
v -4.786631 5.181083 7.396263
v -4.798983 5.183709 7.416453
v -4.799740 5.294780 8.973977
v -4.793049 6.248846 8.962225
v -4.788515 5.292154 8.953130
v -3.794544 1.035802 2.726233
v -3.810462 5.324145 8.947089
v -3.778688 5.269670 8.984509
v -3.780495 6.253068 8.956196
v -3.794942 1.991899 2.735483
v -3.809919 6.233093 8.969263
v -3.795055 1.043054 2.743272
v -3.788272 1.997120 2.731575
v -3.800626 1.999746 2.751766
v -3.795054 2.104374 4.298168
v -3.788273 3.058441 4.286472
v -3.800627 3.061067 4.306662
v -3.790157 3.169512 5.843338
v -3.794693 4.126204 5.852433
v -3.801383 3.172137 5.864184
v -3.804784 4.229968 7.409246
v -3.781854 4.234780 7.405757
v -3.794693 5.187524 7.407330
v -3.801383 5.294780 8.973977
v -3.794693 6.248846 8.962225
v -3.790157 5.292154 8.953130
v 3.787472 1.123463 2.587242
v 3.787472 1.131306 2.898042
v 4.812881 1.074918 2.733112
v 3.787472 1.316430 2.869949
v 3.787471 1.324273 3.180748
v 4.790454 1.357956 3.168570
v 3.787471 1.509397 3.152658
v 4.790454 1.550923 3.451278
v 3.787471 1.517240 3.463461
v 3.787471 1.702364 3.435368
v 4.790454 1.668681 3.447547
v 3.787472 1.710206 3.746169
v 4.790454 1.861649 3.730255
v 3.787472 1.895331 3.718075
v 3.787472 1.903175 4.028876
v 3.787470 2.088299 4.000784
v 4.801898 2.117076 4.289657
v 3.787470 2.096143 4.311584
v 3.787472 2.281267 4.283491
v 4.790454 2.322976 4.295721
v 3.787471 2.289111 4.594293
v 3.787471 2.474235 4.566199
v 4.790454 2.515944 4.578429
v 3.787472 2.482078 4.877002
v 3.787471 2.667202 4.848911
v 4.790454 2.633336 5.147479
v 3.787470 2.675045 5.159707
v 4.790454 2.826303 5.430188
v 3.787472 2.868011 5.442419
v 3.787472 2.860170 5.131615
v 4.790454 3.019454 5.426506
v 3.787472 3.060979 5.725129
v 3.787471 3.053136 5.414325
v 4.802969 3.178397 5.846415
v 3.787471 3.253948 6.007834
v 3.787472 3.246105 5.697032
v 3.787471 3.439073 5.979741
v 4.790454 3.405389 5.991922
v 3.787471 3.446916 6.290542
v 4.790454 3.673565 6.561069
v 3.787471 3.639883 6.573248
v 3.787472 3.632039 6.262448
v 3.787472 3.825007 6.545156
v 3.787471 3.832849 6.855960
v 4.790454 3.791140 6.843729
v 4.790454 4.059683 6.840096
v 3.787472 4.025816 7.138669
v 3.787472 4.017973 6.827866
v 4.801898 4.239718 7.399448
v 3.787472 4.218785 7.421376
v 3.787472 4.210942 7.110574
v 3.787473 4.403911 7.393281
v 3.787472 4.411754 7.704084
v 4.790454 4.445619 7.405512
v 4.790454 4.638403 7.974611
v 3.787473 4.596878 7.675989
v 3.787472 4.604720 7.986791
v 4.790454 4.755978 8.257272
v 3.787471 4.797686 8.269502
v 3.787472 4.789845 7.958698
v 4.790454 4.948945 8.539979
v 3.787471 4.990654 8.552210
v 3.787472 4.982811 8.241407
v 3.787472 5.175780 8.524117
v 4.790454 5.217305 8.822737
v 3.787472 5.183622 8.834918
v 3.792970 1.035802 2.726233
v 3.777051 5.324145 8.947089
v 3.808826 5.269670 8.984509
v 3.792571 1.991899 2.735483
v 3.807019 6.253068 8.956196
v 3.777595 6.233092 8.969264
v 3.792459 1.043054 2.743272
v 3.797523 1.995799 2.755229
v 3.789066 2.000611 2.733532
v 3.786132 2.110816 4.309288
v 3.797356 2.108190 4.288444
v 3.792821 3.064882 4.297538
v 3.792821 4.126204 5.852433
v 3.797356 3.169512 5.843338
v 3.786131 3.172137 5.864184
v 3.797356 4.230833 7.398234
v 3.786131 4.233459 7.419079
v 3.792821 5.187524 7.407330
v 3.792821 6.248846 8.962225
v 3.786130 5.294780 8.973977
v 3.797356 5.292154 8.953130
v 4.754118 1.043290 2.740925
v 4.827131 1.047837 2.737877
v 4.792199 5.305905 8.979491
v 4.790928 1.991899 2.735483
v 4.805376 6.253068 8.956196
v 4.775952 6.233092 8.969264
v 4.787422 2.000611 2.733532
v 4.795879 1.995799 2.755229
v 4.790815 1.043054 2.743272
v 4.795878 3.057120 4.310125
v 4.790816 2.104375 4.298168
v 4.787422 3.061932 4.288428
v 4.790815 3.165696 5.853063
v 4.787422 4.123253 5.843323
v 4.795879 4.118441 5.865021
v 4.790816 4.227017 7.407959
v 4.797596 5.181083 7.396263
v 4.785244 5.183709 7.416453
v 4.784487 5.294780 8.973977
v 4.795713 5.292154 8.953130
v 4.791178 6.248846 8.962225
vn 0.9768 -0.1517 -0.1509
vn -0.0340 0.7250 -0.6880
vn -0.0220 -0.4693 0.8828
vn -0.9768 0.1521 0.1510
vn 0.7089 0.0001 0.7053
vn -0.0000 -0.7086 -0.7056
vn -0.1392 0.7017 -0.6987
vn -0.0000 0.7087 0.7055
vn 0.7088 -0.0000 -0.7054
vn -0.1392 0.7018 0.6987
vn 0.7428 -0.6680 -0.0447
vn -0.7327 -0.6806 -0.0022
vn -0.7317 -0.6816 -0.0023
vn -0.6929 -0.7210 -0.0003
vn -0.7665 -0.6420 0.0204
vn -0.7384 -0.6651 0.1112
vn 0.7581 -0.6521 0.0007
vn -0.0000 0.0029 -1.0000
vn -0.0000 -0.4245 -0.9054
vn -0.7693 -0.6389 0.0055
vn -1.0000 -0.0000 -0.0000
vn -1.0000 0.0046 -0.0000
vn -1.0000 0.0055 -0.0000
vn -0.0000 -0.2981 -0.9545
vn 0.7684 -0.6398 -0.0131
vn 1.0000 -0.0000 -0.0000
vn 0.9641 -0.2654 0.0001
vn 0.4726 0.0067 0.8813
vn -0.0000 -0.0000 -0.0000
vn 0.7643 -0.6447 -0.0148
vn -0.7698 -0.6383 -0.0001
vn 0.0054 0.6953 0.7187
vn -1.0000 0.0006 -0.0000
vn 0.5754 0.8037 0.1515
vn -0.6866 0.7270 0.0006
vn 0.0002 0.8712 0.4910
vn -0.0000 0.9992 -0.0403
vn -0.0000 0.9999 -0.0114
vn -0.0000 -1.0000 -0.0000
vn -0.0040 0.9998 -0.0205
vn 0.0001 0.7059 -0.7083
vn -0.0018 0.9998 -0.0204
vn -0.0000 -0.3924 0.9198
vn -0.9999 -0.0058 0.0136
vn -0.6041 -0.3127 0.7330
vn 0.0111 0.9984 0.0561
vn -0.0006 0.6908 0.7231
vn 0.0045 0.9984 0.0558
vn -0.0359 -0.6713 0.7404
vn -0.9992 0.0325 -0.0227
vn -0.3033 0.9529 -0.0000
vn -0.3024 0.9532 -0.0000
vn 0.0256 -0.9994 -0.0213
vn -0.0001 -1.0000 -0.0000
vn 0.0290 -0.9993 -0.0241
vn 0.0003 1.0000 -0.0004
vn 0.0129 0.9999 -0.0000
vn 0.9997 0.0023 0.0254
vn 0.9999 0.0124 0.0093
vn 0.4273 0.4927 -0.7580
vn 0.9774 -0.2115 0.0064
vn 0.9995 0.0011 0.0310
vn 0.1744 0.2549 0.9511
vn 0.0633 0.2592 0.9638
vn -0.7430 -0.0000 -0.6693
vn -0.5480 0.0062 -0.8365
vn -0.7073 -0.7069 -0.0000
vn -0.7073 0.7069 -0.0000
vn -0.0256 -0.9994 0.0213
vn 0.0001 -1.0000 -0.0000
vn -0.0290 -0.9993 0.0242
vn 0.0359 -0.6713 -0.7403
vn -0.7696 -0.6386 -0.0001
vn -0.9071 -0.4209 -0.0001
vn 0.7430 -0.0000 0.6692
vn 0.0001 0.6424 0.7664
vn 0.8972 -0.3703 -0.2406
vn -0.7516 0.3245 0.5743
vn 0.8940 -0.3663 -0.2582
vn 0.4726 0.0162 -0.8812
vn 0.0150 0.6318 -0.7750
vn -0.9996 0.0004 -0.0290
vn 0.9995 0.0312 0.0108
vn 0.2219 0.0086 -0.9750
vn -0.9980 -0.0451 0.0449
vn 0.7715 -0.6359 0.0191
vn 0.9957 -0.0879 0.0291
vn -0.0011 1.0000 -0.0011
vn -0.5828 0.7988 0.1489
vn -0.0058 0.0141 0.9999
vn -0.1271 0.9906 0.0505
vn 1.0000 0.0011 -0.0000
vn 0.9980 -0.0451 -0.0449
vn -0.9984 -0.0505 -0.0269
vn -0.9999 -0.0093 -0.0049
vn -0.9984 -0.0495 -0.0264
vn -0.9996 -0.0000 -0.0270
vn -0.9999 -0.0000 -0.0138
vn -0.9997 -0.0000 -0.0264
vn 0.0061 0.0044 1.0000
vn -0.4331 0.0039 0.9014
vn 0.3076 0.0052 0.9515
vn -0.0000 -0.0000 -1.0000
vn -0.0390 0.9988 0.0312
vn -0.0468 0.9984 0.0312
vn -0.7071 -0.0000 0.7071
vn -0.2747 -0.0000 0.9615
vn -0.2425 -0.0000 0.9701
vn -0.0000 1.0000 -0.0000
vn -0.0000 -0.0000 1.0000
vn -0.5754 0.8037 -0.1515
vn -1.0000 0.0018 0.0006
vn -0.0000 0.0003 1.0000
vn -0.0004 0.0272 0.9996
vn -0.0004 0.0269 0.9996
vn -0.9994 0.0334 -0.0001
vn 0.6867 0.7270 -0.0006
vn 1.0000 0.0018 -0.0006
vn 0.9994 0.0334 0.0001
vn -0.0000 0.0003 -1.0000
vn 0.0004 0.0272 -0.9996
vn 0.0004 0.0269 -0.9996
vn 0.0003 0.8440 0.5364
vn -0.0000 -0.7086 0.7056
vn -0.0005 0.3928 0.9196
vn -0.0001 0.0106 0.9999
vn 0.0001 0.0089 -1.0000
vn 0.9999 0.0021 -0.0165
vn 0.9997 -0.0005 -0.0225
vn 1.0000 0.0070 -0.0058
vn 1.0000 0.0096 -0.0000
vn -0.0000 1.0000 0.0012
vn 0.8518 0.5239 -0.0000
vn 0.9997 -0.0014 0.0245
vn 0.0145 0.9999 -0.0000
vn 0.0068 0.4938 -0.8696
vn 0.0386 0.0355 -0.9986
vn 0.9801 0.0034 -0.1984
vn -0.0770 -0.9970 0.0025
vn -0.9233 0.3577 -0.1403
vn -0.0022 -1.0000 0.0045
vn -0.9997 -0.0000 -0.0228
vn -0.9980 0.0579 -0.0260
vn -0.6445 0.6488 -0.4045
vn 0.9336 -0.3582 0.0010
vn 0.0022 -1.0000 -0.0045
vn 0.6946 -0.7192 0.0146
vn -0.9579 0.2866 0.0198
vn -0.9179 0.3963 0.0194
vn -0.9616 0.2743 0.0031
vn 0.1954 -0.0232 -0.9805
vn -0.7709 0.3060 0.5587
vn -0.0520 0.0236 0.9984
vn 0.9989 0.0466 -0.0068
vn -0.0000 -0.9950 0.0995
vn -0.0000 -0.9806 0.1961
vn 0.0003 0.9207 0.3902
vn -0.0000 0.8931 0.4499
vn 0.0003 0.8924 0.4512
vn -0.0000 0.8758 -0.4827
vn 0.1013 -0.8778 -0.4682
vn -0.0028 0.9978 0.0667
vn 0.5641 0.4521 -0.6909
vn 0.0002 0.5388 -0.8424
vn 0.0027 0.9195 -0.3930
vn -0.0062 1.0000 -0.0012
vn 0.0163 0.9988 -0.0459
vn -0.0206 0.1648 0.9861
vn -0.0049 0.0076 1.0000
vn -0.0000 -0.0029 1.0000
vn -0.0000 -0.0639 0.9980
vn -0.3244 0.0010 0.9459
vn -0.9999 0.0108 -0.0000
vn -0.9999 0.0108 0.0002
vn -0.1178 0.9496 0.2906
vn 0.0062 -0.9996 -0.0286
vn 0.0226 0.5019 -0.8646
vn 0.1265 0.9909 0.0453
vn -0.1431 0.1245 -0.9818
vn 0.4034 0.4560 0.7933
vn 0.7996 0.2549 0.5438
vn -0.7005 0.0057 0.7136
vn -0.0000 -0.0026 1.0000
vn 1.0000 0.0055 0.0028
vn -0.0013 0.9994 0.0352
vn -0.0000 -0.0020 1.0000
vn -0.7422 0.5891 -0.3195
vn 0.0001 0.9996 -0.0298
vn 0.0063 -0.9996 -0.0289
vn -0.2891 0.0004 0.9573
vn -1.0000 0.0077 0.0013
vn -0.6613 -0.6552 -0.3653
vn -0.0056 -0.9712 -0.2382
vn 0.1206 0.3964 -0.9101
vn 0.4792 0.5910 0.6489
vn 0.6261 0.7796 -0.0131
vn -0.1279 0.9912 -0.0336
vn -0.1196 0.9840 -0.1323
vn 0.0024 0.0006 -1.0000
vn 0.0069 0.9713 0.2378
vn 0.9997 -0.0002 0.0262
vn -0.2107 -0.1333 0.9684
vn -0.0837 -0.9192 0.3849
vn -0.2624 -0.0745 0.9621
vn -0.2126 0.0012 0.9771
vn -0.0000 0.9981 -0.0624
vn -0.0000 0.9982 -0.0605
vn -0.0000 0.9948 -0.1020
vn 0.3382 -0.9410 0.0147
vn 0.3250 -0.9456 0.0148
vn 0.4007 -0.9158 0.0286
vn -0.9678 -0.0000 -0.2518
vn -0.9671 -0.0000 -0.2545
vn -0.9690 -0.0000 -0.2470
vn 0.9768 0.1517 -0.1509
vn 0.0005 -0.0106 -0.9999
vn 0.0339 0.7249 0.6880
vn -0.9768 -0.1523 0.1504
vn -0.0038 0.7067 -0.7075
vn 0.9709 -0.1697 -0.1690
vn -0.9995 0.0228 -0.0227
vn -0.9995 0.0220 0.0219
vn -0.8029 0.2676 0.5327
vn 0.1392 0.7018 0.6987
vn 0.7328 -0.6072 -0.3070
vn -0.7324 -0.6261 0.2676
vn -1.0000 0.0066 0.0013
vn -1.0000 0.0057 -0.0000
vn -0.5122 -0.4613 0.7245
vn 0.2030 0.0076 -0.9791
vn 1.0000 0.0030 -0.0000
vn 0.8482 0.2472 0.4685
vn -1.0000 0.0046 -0.0001
vn -0.7644 -0.6448 -0.0049
vn 0.7683 -0.6399 -0.0126
vn 0.9989 0.0188 -0.0440
vn 0.9999 0.0126 0.0019
vn 0.3684 0.4033 -0.8376
vn 0.9999 0.0110 0.0056
vn -0.9988 -0.0433 -0.0241
vn 0.0002 0.6422 0.7665
vn -0.9962 -0.0873 0.0002
vn -0.6134 0.7889 -0.0372
vn -0.9998 -0.0197 -0.0000
vn -0.0534 -0.9976 0.0443
vn -0.8080 -0.5892 -0.0010
vn 0.0001 1.0000 -0.0004
vn 0.7184 -0.6957 -0.0000
vn -0.3554 -0.2281 0.9065
vn -0.9990 0.0322 0.0321
vn -0.7088 -0.0000 0.7054
vn -0.9988 0.0179 0.0445
vn 0.9998 0.0095 -0.0191
vn -0.0517 0.1468 0.9878
vn -0.3231 0.9434 -0.0752
vn -0.2819 0.8221 0.4946
vn -0.0612 0.5361 -0.8419
vn -0.5595 0.8271 -0.0536
vn 1.0000 0.0090 0.0003
vn -0.6464 0.0034 0.7630
vn -1.0000 -0.0000 -0.0005
vn -0.0000 -0.0013 -1.0000
vn -0.0000 -0.0029 -1.0000
vn -0.0000 -0.0015 -1.0000
vn -0.5547 0.0004 0.8321
vn -0.5547 0.0005 0.8321
vn -0.8000 0.0004 0.6000
vn -0.5863 0.5591 0.5863
vn -0.0000 0.6366 0.7712
vn -0.5587 0.6130 0.5587
vn 0.7073 -0.7070 -0.0000
vn 0.6767 0.7363 -0.0000
vn -0.0006 -0.7089 -0.7053
vn 0.9109 -0.4125 -0.0000
vn 0.0534 -0.9976 -0.0443
vn -0.0000 0.0455 -0.9990
vn -0.6923 -0.7216 -0.0001
vn -0.7675 -0.6411 -0.0000
vn -0.7666 -0.6421 0.0084
vn 0.7088 -0.0000 -0.7055
vn -0.0000 0.7086 0.7056
vn -0.9988 0.0409 -0.0278
vn 0.5803 0.3576 -0.7317
vn 0.9787 -0.0038 0.2051
vn 0.2406 0.4119 0.8789
vn 0.9671 -0.0035 0.2545
vn 0.5146 0.7479 -0.4192
vn 0.2398 0.2929 0.9256
vn 0.9503 -0.0027 0.3114
vn 0.9990 0.0321 -0.0324
vn -0.0002 0.8712 -0.4910
vn -0.0000 0.6423 -0.7664
vn 0.9998 -0.0026 -0.0206
vn -0.3244 0.9459 0.0031
vn -0.8753 -0.0068 -0.4835
vn 0.9962 -0.0872 -0.0002
vn -0.5178 -0.8555 -0.0001
vn -0.7578 -0.6524 -0.0014
vn 0.7068 -0.7074 0.0008
vn 0.0009 0.0257 -0.9997
vn -0.0009 -0.0203 0.9998
vn -0.0003 0.8439 -0.5364
vn -0.7068 -0.7074 -0.0008
vn -0.0009 0.0273 0.9996
vn 0.0009 -0.0190 -0.9998
vn 0.0001 -0.7086 -0.7056
vn -0.9998 0.0177 -0.0011
vn -0.9998 -0.0193 0.0012
vn -0.9998 -0.0177 0.0011
vn -0.7089 -0.0000 -0.7053
vn -0.7167 0.0164 0.6971
vn -0.9998 0.0192 -0.0012
vn -0.0006 0.7083 0.7059
vn 0.7088 -0.0000 0.7054
vn -0.0685 -0.9366 0.3436
vn -0.0036 -0.9999 0.0166
vn -0.0061 -0.7519 0.6593
vn -0.0003 -0.9195 0.3930
vn 0.0056 -0.9996 -0.0260
vn 0.0067 -0.9070 -0.4210
vn -0.0003 -0.9978 -0.0667
vn -0.0000 -0.0039 1.0000
vn -0.0009 -0.0013 1.0000
vn 0.0009 -0.6361 0.7716
vn 0.1798 -0.5286 -0.8296
vn -0.0064 -1.0000 -0.0000
vn -0.0065 -0.9995 0.0299
vn -0.0063 -0.9994 -0.0352
vn 0.0023 0.3566 -0.9342
vn -0.0063 -0.9996 0.0290
vn -0.0064 -0.9989 0.0459
vn 0.1518 0.1367 -0.9789
vn 0.1217 0.1981 -0.9726
vn 0.9849 -0.1729 0.0003
vn 0.0019 0.2999 -0.9540
vn 0.1911 -0.4290 -0.8829
vn -0.0063 -1.0000 -0.0002
vn -0.2010 -0.3110 0.9289
vn 0.0056 -1.0000 0.0001
vn 0.0018 -1.0000 -0.0000
vn 0.0063 -1.0000 0.0001
vn 0.9904 -0.1381 0.0039
vn 0.0059 0.2691 -0.9631
vn 0.0043 -0.6895 -0.7242
vn -0.0000 -0.0019 1.0000
vn -0.0000 0.3175 0.9482
vn 0.0058 1.0000 0.0019
vn -0.0063 -1.0000 0.0001
vt 0.862785 0.261120
vt 0.862720 0.261120
vt 0.862623 0.260979
vt 0.938050 0.561030
vt 0.938151 0.561016
vt 0.938154 0.561164
vt 0.938738 0.547975
vt 0.938637 0.547984
vt 0.938690 0.547836
vt 0.976587 0.242418
vt 0.976523 0.242416
vt 0.976687 0.242280
vt 0.116203 0.540295
vt 0.116345 0.540154
vt 0.116486 0.540013
vt 0.438292 0.705462
vt 0.438434 0.705462
vt 0.438292 0.705604
vt 0.116345 0.696970
vt 0.116175 0.696970
vt 0.116203 0.696828
vt 0.002141 0.696970
vt 0.002000 0.696971
vt 0.002141 0.696829
vt 0.002283 0.860912
vt 0.002142 0.861053
vt 0.002000 0.861195
vt 0.002169 0.540155
vt 0.002000 0.540155
vt 0.002141 0.540013
vt 0.465075 0.874007
vt 0.465216 0.874037
vt 0.465216 0.874173
vt 0.438671 0.874037
vt 0.438824 0.874070
vt 0.438671 0.877342
vt 0.438671 0.885551
vt 0.438671 0.885367
vt 0.438813 0.885502
vt 0.438824 0.879755
vt 0.438671 0.879754
vt 0.465075 0.879724
vt 0.465216 0.879754
vt 0.465216 0.879858
vt 0.310843 0.975177
vt 0.310843 0.975156
vt 0.311008 0.975106
vt 0.991116 0.716752
vt 0.991117 0.716779
vt 0.990946 0.716700
vt 0.438671 0.891252
vt 0.438671 0.891107
vt 0.438813 0.891220
vt 0.097631 0.925690
vt 0.097464 0.925627
vt 0.097468 0.925480
vt 0.991114 0.675148
vt 0.991129 0.675180
vt 0.990946 0.675180
vt 0.465216 0.896842
vt 0.465216 0.896962
vt 0.465075 0.896876
vt 0.438671 0.902567
vt 0.438671 0.902668
vt 0.438671 0.902623
vt 0.990946 0.204604
vt 0.994809 0.204772
vt 0.990948 0.204773
vt 0.986856 0.967462
vt 0.986780 0.974772
vt 0.986727 0.967563
vt 0.408116 0.955999
vt 0.408339 0.975243
vt 0.408057 0.975241
vt 0.310981 0.971313
vt 0.310816 0.971118
vt 0.995122 0.189480
vt 0.991152 0.189311
vt 0.994992 0.189317
vt 0.002000 0.536964
vt 0.002141 0.536966
vt 0.862763 0.561023
vt 0.750537 0.324493
vt 0.750495 0.481162
vt 0.750403 0.324591
vt 0.005189 0.696829
vt 0.002000 0.704238
vt 0.002142 0.704379
vt 0.005190 0.540250
vt 0.002141 0.540296
vt 0.435246 0.705462
vt 0.113155 0.696889
vt 0.994134 0.220040
vt 0.990946 0.220202
vt 0.991005 0.220058
vt 0.067118 0.700132
vt 0.116486 0.860951
vt 0.116655 0.860809
vt 0.116203 0.536951
vt 0.465216 0.879618
vt 0.995101 0.200604
vt 0.991046 0.200604
vt 0.995017 0.200434
vt 0.964288 0.868419
vt 0.969918 0.868320
vt 0.969927 0.868484
vt 0.938064 0.558710
vt 0.937899 0.558679
vt 0.986873 0.955987
vt 0.986781 0.963273
vt 0.986727 0.956067
vt 0.005330 0.861050
vt 0.113219 0.540154
vt 0.438434 0.862278
vt 0.438293 0.862137
vt 0.324089 0.705462
vt 0.323920 0.705604
vt 0.991096 0.224364
vt 0.994283 0.224202
vt 0.994225 0.224347
vt 0.097634 0.925649
vt 0.097348 0.929485
vt 0.938707 0.545667
vt 0.938542 0.545631
vt 0.943148 0.444358
vt 0.943169 0.451396
vt 0.943049 0.444251
vt 0.322924 0.975177
vt 0.310842 0.975080
vt 0.323063 0.975024
vt 0.280391 0.975099
vt 0.265246 0.975080
vt 0.280532 0.974957
vt 0.276392 0.925544
vt 0.276307 0.946817
vt 0.276265 0.925400
vt 0.653706 0.956004
vt 0.653718 0.975192
vt 0.653416 0.975165
vt 0.675960 0.956004
vt 0.675972 0.975192
vt 0.675670 0.975165
vt 0.417081 0.955999
vt 0.417305 0.975243
vt 0.417023 0.975241
vt 0.372253 0.955999
vt 0.372476 0.975243
vt 0.372194 0.975241
vt 0.684861 0.956004
vt 0.684873 0.975192
vt 0.684572 0.975165
vt 0.376736 0.955999
vt 0.376959 0.975243
vt 0.376677 0.975241
vt 0.689312 0.956004
vt 0.689324 0.975192
vt 0.689022 0.975165
vt 0.399150 0.955999
vt 0.399374 0.975243
vt 0.399092 0.975241
vt 0.324231 0.705604
vt 0.327356 0.705462
vt 0.327497 0.705462
vt 0.465216 0.891189
vt 0.465052 0.908305
vt 0.465219 0.902623
vt 0.465216 0.908295
vt 0.082515 0.925377
vt 0.082355 0.925521
vt 0.938739 0.548119
vt 0.862768 0.547977
vt 0.435167 0.862278
vt 0.435025 0.862279
vt 0.438826 0.868353
vt 0.438671 0.873869
vt 0.438671 0.868489
vt 0.438671 0.879857
vt 0.438765 0.908298
vt 0.438813 0.902624
vt 0.421564 0.955999
vt 0.421788 0.975243
vt 0.421506 0.975241
vt 0.412598 0.955999
vt 0.412822 0.975243
vt 0.412540 0.975241
vt 0.635903 0.956004
vt 0.635915 0.975192
vt 0.635613 0.975165
vt 0.566347 0.956011
vt 0.566459 0.975274
vt 0.566188 0.975178
vt 0.367821 0.956000
vt 0.367994 0.975243
vt 0.367712 0.975241
vt 0.707115 0.956004
vt 0.707127 0.975193
vt 0.706825 0.975165
vt 0.640354 0.956004
vt 0.640366 0.975192
vt 0.640064 0.975165
vt 0.986617 0.925454
vt 0.986830 0.944698
vt 0.986548 0.944696
vt 0.644805 0.956004
vt 0.644817 0.975192
vt 0.644515 0.975165
vt 0.354321 0.956000
vt 0.354565 0.975243
vt 0.354283 0.975242
vt 0.627002 0.956004
vt 0.627014 0.975192
vt 0.626712 0.975165
vt 0.234409 0.002123
vt 0.307787 0.002103
vt 0.271114 0.532772
vt 0.038720 0.002113
vt 0.075426 0.532764
vt 0.002049 0.532783
vt 0.326977 0.002078
vt 0.329975 0.522591
vt 0.324002 0.522606
vt 0.354367 0.002087
vt 0.360340 0.002071
vt 0.357365 0.522597
vt 0.312869 0.002094
vt 0.313812 0.528719
vt 0.311879 0.528698
vt 0.317945 0.002084
vt 0.319877 0.002104
vt 0.318887 0.528707
vt 0.043079 0.868460
vt 0.043902 0.920289
vt 0.042232 0.920243
vt 0.094804 0.868474
vt 0.095627 0.920280
vt 0.093957 0.920263
vt 0.862695 0.595352
vt 0.925784 0.594705
vt 0.925774 0.596041
vt 0.925783 0.606825
vt 0.862751 0.607380
vt 0.862761 0.606220
vt 0.025837 0.868460
vt 0.026586 0.920289
vt 0.024916 0.920243
vt 0.077560 0.868472
vt 0.078310 0.920280
vt 0.076639 0.920263
vt 0.862694 0.589775
vt 0.925784 0.589009
vt 0.925774 0.590344
vt 0.228073 0.914670
vt 0.228467 0.868413
vt 0.229025 0.868320
vt 0.031535 0.868460
vt 0.032358 0.920289
vt 0.030688 0.920243
vt 0.083259 0.868474
vt 0.084082 0.920280
vt 0.082412 0.920263
vt 0.240824 0.914335
vt 0.239706 0.914927
vt 0.240840 0.868370
vt 0.862689 0.584563
vt 0.862700 0.583446
vt 0.925779 0.584035
vt 0.100650 0.868472
vt 0.101399 0.920280
vt 0.099729 0.920263
vt 0.037381 0.868460
vt 0.038130 0.920289
vt 0.036460 0.920243
vt 0.862695 0.572566
vt 0.925784 0.571919
vt 0.925774 0.573255
vt 0.925783 0.623914
vt 0.862751 0.624469
vt 0.862761 0.623310
vt 0.019990 0.868460
vt 0.020813 0.920289
vt 0.019143 0.920243
vt 0.089031 0.868473
vt 0.089855 0.920280
vt 0.088184 0.920263
vt 0.862695 0.578262
vt 0.925784 0.577616
vt 0.925774 0.578951
vt 0.925783 0.601128
vt 0.862751 0.601683
vt 0.862761 0.600524
vt 0.549931 0.002115
vt 0.584602 0.491923
vt 0.515291 0.491945
vt 0.588650 0.002127
vt 0.657961 0.002104
vt 0.623321 0.491932
vt 0.589260 0.868431
vt 0.601312 0.868414
vt 0.595295 0.902930
vt 0.659798 0.868423
vt 0.665833 0.902922
vt 0.653781 0.902939
vt 0.656047 0.980427
vt 0.658933 0.988846
vt 0.653163 0.988844
vt 0.540726 0.980468
vt 0.543609 0.988832
vt 0.537839 0.988938
vt 0.580098 0.980468
vt 0.582981 0.988832
vt 0.577210 0.988938
vt 0.646205 0.980427
vt 0.649091 0.988846
vt 0.643322 0.988844
vt 0.627542 0.868423
vt 0.633576 0.902922
vt 0.621525 0.902939
vt 0.637644 0.868431
vt 0.649696 0.868414
vt 0.643679 0.902930
vt 0.616680 0.980427
vt 0.619566 0.988846
vt 0.613797 0.988844
vt 0.589941 0.980468
vt 0.592824 0.988832
vt 0.587053 0.988938
vt 0.560412 0.980468
vt 0.563295 0.988832
vt 0.557524 0.988938
vt 0.626522 0.980427
vt 0.629408 0.988846
vt 0.623638 0.988844
vt 0.605388 0.868431
vt 0.617440 0.868414
vt 0.611423 0.902930
vt 0.675926 0.868423
vt 0.681961 0.902922
vt 0.669909 0.902939
vt 0.636364 0.980427
vt 0.639249 0.988846
vt 0.633480 0.988844
vt 0.570255 0.980468
vt 0.573138 0.988832
vt 0.567367 0.988938
vt 0.663006 0.980420
vt 0.668772 0.980434
vt 0.665890 0.988845
vt 0.547685 0.980515
vt 0.553453 0.980421
vt 0.550567 0.988885
vt 0.383132 0.526784
vt 0.442262 0.698082
vt 0.324009 0.698095
vt 0.189493 0.536999
vt 0.307747 0.536984
vt 0.248623 0.708296
vt 0.804502 0.163335
vt 0.858552 0.320328
vt 0.750498 0.320351
vt 0.750474 0.002121
vt 0.858528 0.002099
vt 0.804525 0.159115
vt 0.858081 0.481222
vt 0.862623 0.565446
vt 0.937804 0.565164
vt 0.938098 0.567610
vt 0.976407 0.267570
vt 0.862731 0.267625
vt 0.862760 0.265262
vt 0.862708 0.567610
vt 0.862623 0.552401
vt 0.938626 0.554568
vt 0.862655 0.554568
vt 0.938390 0.552119
vt 0.862623 0.271709
vt 0.976257 0.271793
vt 0.976271 0.274159
vt 0.858123 0.324553
vt 0.976446 0.265262
vt 0.327357 0.862137
vt 0.832758 0.987914
vt 0.830377 0.980483
vt 0.830476 0.980345
vt 0.435167 0.705604
vt 0.435247 0.862266
vt 0.832561 0.980561
vt 0.976367 0.261121
vt 0.862623 0.261262
vt 0.327276 0.705475
vt 0.862624 0.274018
vt 0.976361 0.249625
vt 0.862696 0.247729
vt 0.862798 0.242418
vt 0.862808 0.253911
vt 0.976439 0.253869
vt 0.976470 0.261128
vt 0.849505 0.980453
vt 0.851636 0.980342
vt 0.851636 0.987553
vt 0.849390 0.987490
vt 0.323948 0.862419
vt 0.113178 0.540296
vt 0.843160 0.982352
vt 0.845390 0.980515
vt 0.845388 0.987551
vt 0.836758 0.980342
vt 0.838961 0.980367
vt 0.839160 0.987719
vt 0.836758 0.987551
vt 0.978687 0.096493
vt 0.981014 0.103533
vt 0.978699 0.103703
vt 0.981047 0.096494
vt 0.324231 0.702300
vt 0.438296 0.705221
vt 0.862623 0.096481
vt 0.864937 0.096481
vt 0.864949 0.103521
vt 0.862636 0.103520
vt 0.002279 0.861295
vt 0.116347 0.864113
vt 0.908087 0.455632
vt 0.942717 0.462741
vt 0.862860 0.462596
vt 0.865091 0.092214
vt 0.862730 0.092214
vt 0.862896 0.085178
vt 0.865214 0.085007
vt 0.978761 0.092345
vt 0.978883 0.092345
vt 0.979001 0.085142
vt 0.862623 0.444187
vt 0.862691 0.451254
vt 0.981196 0.092178
vt 0.981315 0.085142
vt 0.203552 0.868467
vt 0.216807 0.914307
vt 0.190281 0.913952
vt 0.366405 0.868743
vt 0.378482 0.911772
vt 0.354314 0.910865
vt 0.394774 0.868454
vt 0.406951 0.911218
vt 0.382582 0.910888
vt 0.411367 0.868438
vt 0.411673 0.911058
vt 0.411051 0.911057
vt 0.416103 0.868441
vt 0.416408 0.911049
vt 0.415787 0.911058
vt 0.808062 0.980359
vt 0.808546 0.988258
vt 0.807597 0.988241
vt 0.731815 0.980464
vt 0.732279 0.988396
vt 0.731330 0.988397
vt 0.802949 0.980360
vt 0.803435 0.988258
vt 0.802487 0.988241
vt 0.736929 0.980464
vt 0.737393 0.988396
vt 0.736444 0.988397
vt 0.491035 0.868646
vt 0.499076 0.905365
vt 0.482983 0.904834
vt 0.531688 0.868453
vt 0.539796 0.904999
vt 0.523569 0.904853
vt 0.808688 0.868320
vt 0.822898 0.868808
vt 0.815778 0.901913
vt 0.863701 0.868325
vt 0.878029 0.868475
vt 0.870849 0.901767
vt 0.705584 0.868437
vt 0.705926 0.903299
vt 0.705232 0.903298
vt 0.739250 0.868441
vt 0.739593 0.903291
vt 0.738898 0.903302
vt 0.686346 0.868437
vt 0.686689 0.903299
vt 0.685994 0.903298
vt 0.715203 0.868441
vt 0.715545 0.903291
vt 0.714851 0.903302
vt 0.695965 0.868437
vt 0.696307 0.903299
vt 0.695613 0.903298
vt 0.729631 0.868441
vt 0.729974 0.903291
vt 0.729279 0.903302
vt 0.034903 0.925484
vt 0.032541 0.950378
vt 0.030150 0.925500
vt 0.038997 0.950386
vt 0.041359 0.925492
vt 0.043750 0.950370
vt 0.511328 0.868647
vt 0.519369 0.905365
vt 0.503276 0.904834
vt 0.552115 0.868454
vt 0.560223 0.904999
vt 0.543996 0.904853
vt 0.852449 0.868400
vt 0.859582 0.901851
vt 0.845286 0.901683
vt 0.834091 0.868564
vt 0.841166 0.902167
vt 0.826988 0.901659
vt 0.720012 0.868441
vt 0.720355 0.903291
vt 0.719660 0.903302
vt 0.691156 0.868437
vt 0.691498 0.903299
vt 0.690804 0.903298
vt 0.710393 0.868437
vt 0.710736 0.903299
vt 0.710041 0.903298
vt 0.724822 0.868441
vt 0.725164 0.903291
vt 0.724470 0.903302
vt 0.700775 0.868437
vt 0.701117 0.903299
vt 0.700423 0.903298
vt 0.734441 0.868441
vt 0.734783 0.903291
vt 0.734089 0.903302
vt 0.050207 0.950378
vt 0.047815 0.925500
vt 0.052568 0.925484
vt 0.023693 0.925492
vt 0.026085 0.950370
vt 0.021332 0.950386
vt 0.862623 0.641926
vt 0.919718 0.646601
vt 0.862955 0.651267
vt 0.862676 0.633250
vt 0.920001 0.628620
vt 0.920095 0.637892
vt 0.347258 0.975185
vt 0.350071 0.956077
vt 0.350147 0.975338
vt 0.347223 0.956061
vt 0.465098 0.868549
vt 0.343137 0.966856
vt 0.337226 0.975177
vt 0.337218 0.955922
vt 0.438671 0.885471
vt 0.465179 0.891189
vt 0.284561 0.975128
vt 0.293576 0.956172
vt 0.293686 0.975437
vt 0.438671 0.891189
vt 0.143211 0.945995
vt 0.155268 0.944683
vt 0.155018 0.948560
vt 0.284637 0.956022
vt 0.310964 0.955922
vt 0.465186 0.885472
vt 0.322968 0.955991
vt 0.323013 0.975020
vt 0.517136 0.980515
vt 0.521188 0.992424
vt 0.517118 0.992594
vt 0.249061 0.962397
vt 0.261080 0.956182
vt 0.261247 0.975446
vt 0.013288 0.980501
vt 0.017345 0.995486
vt 0.013263 0.995642
vt 0.521168 0.980394
vt 0.017296 0.980434
vt 0.082357 0.925986
vt 0.097586 0.944851
vt 0.123917 0.948217
vt 0.124077 0.944242
vt 0.139111 0.944775
vt 0.465216 0.896906
vt 0.139015 0.948823
vt 0.465169 0.902623
vt 0.438750 0.896906
vt 0.101731 0.946096
vt 0.119908 0.944842
vt 0.119655 0.948755
vt 0.245000 0.975226
vt 0.245000 0.975185
vt 0.244830 0.975393
vt 0.097361 0.929524
vt 0.097634 0.948789
vt 0.969525 0.956023
vt 0.971424 0.974130
vt 0.967472 0.974111
vt 0.257247 0.925396
vt 0.276370 0.946817
vt 0.257111 0.946649
vt 0.257149 0.946662
vt 0.280406 0.925525
vt 0.284505 0.946286
vt 0.280406 0.946795
vt 0.967099 0.894782
vt 0.156951 0.002123
vt 0.230328 0.002103
vt 0.193657 0.532772
vt 0.116181 0.002113
vt 0.152885 0.532764
vt 0.079508 0.532783
vt 0.344242 0.002087
vt 0.350215 0.002071
vt 0.347240 0.522597
vt 0.337103 0.002078
vt 0.340101 0.522591
vt 0.334127 0.522606
vt 0.364446 0.002126
vt 0.435798 0.002105
vt 0.400137 0.491934
vt 0.475537 0.002116
vt 0.511228 0.491921
vt 0.439876 0.491944
vt 0.862761 0.782486
vt 0.862764 0.780792
vt 0.915590 0.781651
vt 0.862789 0.834211
vt 0.862762 0.832518
vt 0.915595 0.833376
vt 0.862714 0.862957
vt 0.862723 0.861341
vt 0.915515 0.862161
vt 0.862748 0.811212
vt 0.862722 0.809583
vt 0.915559 0.810409
vt 0.002000 0.868411
vt 0.003616 0.868421
vt 0.002796 0.921212
vt 0.862748 0.816939
vt 0.862722 0.815311
vt 0.915559 0.816136
vt 0.007714 0.868411
vt 0.009331 0.868421
vt 0.008511 0.921212
vt 0.862748 0.799758
vt 0.862722 0.798129
vt 0.915559 0.798955
vt 0.862761 0.776714
vt 0.862764 0.775020
vt 0.915590 0.775879
vt 0.862789 0.828439
vt 0.862762 0.826744
vt 0.915595 0.827604
vt 0.657949 0.496142
vt 0.634562 0.720550
vt 0.611146 0.496161
vt 0.464412 0.720559
vt 0.487799 0.496151
vt 0.511216 0.720540
vt 0.862761 0.279899
vt 0.949304 0.278261
vt 0.949254 0.281561
vt 0.862790 0.309321
vt 0.949289 0.307683
vt 0.949300 0.310983
vt 0.862761 0.287301
vt 0.949304 0.285663
vt 0.949254 0.288962
vt 0.862790 0.316723
vt 0.949289 0.315085
vt 0.949300 0.318385
vt 0.174319 0.536898
vt 0.185266 0.699723
vt 0.163045 0.699726
vt 0.562455 0.659024
vt 0.573419 0.496321
vt 0.584626 0.659386
vt 0.142946 0.536887
vt 0.131694 0.699727
vt 0.120769 0.536913
vt 0.547086 0.659205
vt 0.535858 0.496128
vt 0.558072 0.496514
vt 0.562559 0.945685
vt 0.559556 0.925498
vt 0.565536 0.925480
vt 0.824037 0.925489
vt 0.827040 0.945676
vt 0.821060 0.945694
vt 0.135768 0.956034
vt 0.138771 0.976221
vt 0.132791 0.976239
vt 0.441871 0.945685
vt 0.438867 0.925498
vt 0.444847 0.925480
vt 0.974897 0.925489
vt 0.977901 0.945676
vt 0.971920 0.945693
vt 0.361411 0.945685
vt 0.358408 0.925498
vt 0.364388 0.925480
vt 0.653062 0.925489
vt 0.656066 0.945676
vt 0.650085 0.945694
vt 0.341297 0.945685
vt 0.338293 0.925498
vt 0.344274 0.925480
vt 0.371469 0.945685
vt 0.368465 0.925498
vt 0.374446 0.925480
vt 0.934668 0.925489
vt 0.937671 0.945676
vt 0.931691 0.945693
vt 0.451928 0.945685
vt 0.448925 0.925498
vt 0.454905 0.925480
vt 0.381513 0.925489
vt 0.384516 0.945676
vt 0.378536 0.945694
vt 0.894438 0.925489
vt 0.897442 0.945676
vt 0.891461 0.945693
vt 0.572617 0.945685
vt 0.569613 0.925498
vt 0.575593 0.925480
vt 0.683248 0.945685
vt 0.680244 0.925498
vt 0.686225 0.925480
vt 0.045251 0.956034
vt 0.048255 0.976221
vt 0.042275 0.976239
vt 0.165940 0.956034
vt 0.168943 0.976221
vt 0.162963 0.976239
vt 0.542444 0.945685
vt 0.539441 0.925498
vt 0.545421 0.925480
vt 0.512272 0.945685
vt 0.509269 0.925498
vt 0.515249 0.925480
vt 0.954783 0.925489
vt 0.957786 0.945676
vt 0.951806 0.945693
vt 0.582674 0.945685
vt 0.579671 0.925498
vt 0.585651 0.925480
vt 0.904496 0.925489
vt 0.907499 0.945676
vt 0.901519 0.945693
vt 0.055309 0.956034
vt 0.058312 0.976221
vt 0.052332 0.976239
vt 0.773764 0.945685
vt 0.770760 0.925498
vt 0.776741 0.925480
vt 0.834094 0.925489
vt 0.837098 0.945676
vt 0.831118 0.945694
vt 0.693305 0.945685
vt 0.690302 0.925498
vt 0.696282 0.925480
vt 0.105596 0.956034
vt 0.108599 0.976221
vt 0.102619 0.976239
vt 0.461985 0.945685
vt 0.458982 0.925498
vt 0.464962 0.925480
vt 0.175997 0.956034
vt 0.179000 0.976221
vt 0.173020 0.976239
vt 0.391584 0.945685
vt 0.388580 0.925498
vt 0.394560 0.925480
vt 0.783821 0.945685
vt 0.780818 0.925498
vt 0.786798 0.925480
vt 0.095538 0.956034
vt 0.098542 0.976221
vt 0.092562 0.976239
vt 0.502202 0.925489
vt 0.505205 0.945676
vt 0.499225 0.945694
vt 0.401641 0.945685
vt 0.398638 0.925498
vt 0.404618 0.925480
vt 0.331239 0.945685
vt 0.328236 0.925498
vt 0.334216 0.925480
vt 0.703349 0.925489
vt 0.706352 0.945676
vt 0.700372 0.945694
vt 0.005022 0.956034
vt 0.008025 0.976221
vt 0.002045 0.976239
vt 0.311125 0.945685
vt 0.308121 0.925498
vt 0.314101 0.925480
vt 0.874324 0.925489
vt 0.877327 0.945676
vt 0.871347 0.945694
vt 0.472043 0.945685
vt 0.469039 0.925498
vt 0.475020 0.925480
vt 0.713420 0.945685
vt 0.710416 0.925498
vt 0.716396 0.925480
vt 0.844152 0.925489
vt 0.847155 0.945676
vt 0.841175 0.945694
vt 0.612846 0.945685
vt 0.609843 0.925498
vt 0.615823 0.925480
vt 0.884381 0.925489
vt 0.887384 0.945676
vt 0.881404 0.945694
vt 0.675850 0.765740
vt 0.675997 0.641727
vt 0.676685 0.641734
vt 0.985719 0.055828
vt 0.862623 0.055812
vt 0.862629 0.055319
vt 0.767112 0.739983
vt 0.767258 0.615969
vt 0.767947 0.615976
vt 0.985719 0.045007
vt 0.862623 0.044992
vt 0.862629 0.044499
vt 0.720487 0.945694
vt 0.723464 0.925489
vt 0.726467 0.945676
vt 0.128701 0.956025
vt 0.125724 0.976230
vt 0.122720 0.956043
vt 0.529397 0.945694
vt 0.532374 0.925489
vt 0.535377 0.945676
vt 0.068356 0.956025
vt 0.065380 0.976230
vt 0.062376 0.956043
vt 0.408708 0.945694
vt 0.411685 0.925489
vt 0.414688 0.945676
vt 0.018070 0.956025
vt 0.015093 0.976230
vt 0.012089 0.956043
vt 0.619914 0.945694
vt 0.622890 0.925489
vt 0.625894 0.945676
vt 0.088471 0.956025
vt 0.085494 0.976230
vt 0.082491 0.956043
vt 0.348364 0.945694
vt 0.351341 0.925489
vt 0.354344 0.945676
vt 0.028127 0.956025
vt 0.025150 0.976230
vt 0.022147 0.956043
vt 0.660143 0.945694
vt 0.663120 0.925489
vt 0.666123 0.945676
vt 0.927601 0.925480
vt 0.924624 0.945685
vt 0.921620 0.925498
vt 0.519340 0.945694
vt 0.522316 0.925489
vt 0.525320 0.945676
vt 0.917544 0.925480
vt 0.914567 0.945684
vt 0.911563 0.925498
vt 0.790888 0.945694
vt 0.793865 0.925489
vt 0.796868 0.945676
vt 0.148815 0.956025
vt 0.145838 0.976230
vt 0.142835 0.956043
vt 0.589741 0.945694
vt 0.592718 0.925489
vt 0.595721 0.945676
vt 0.189045 0.956025
vt 0.186068 0.976230
vt 0.183064 0.956043
vt 0.549512 0.945694
vt 0.552488 0.925489
vt 0.555492 0.945676
vt 0.118643 0.956025
vt 0.115666 0.976230
vt 0.112663 0.956043
vt 0.199102 0.956025
vt 0.196125 0.976230
vt 0.193122 0.956043
vt 0.730544 0.945694
vt 0.733521 0.925489
vt 0.736524 0.945676
vt 0.800946 0.945694
vt 0.803922 0.925489
vt 0.806926 0.945676
vt 0.078414 0.956025
vt 0.075437 0.976230
vt 0.072434 0.956043
vt 0.640028 0.945694
vt 0.643005 0.925489
vt 0.646008 0.945676
vt 0.209159 0.956025
vt 0.206182 0.976230
vt 0.203179 0.956043
vt 0.479110 0.945694
vt 0.482087 0.925489
vt 0.485090 0.945676
vt 0.947716 0.925480
vt 0.944739 0.945685
vt 0.941735 0.925498
vt 0.599799 0.945694
vt 0.602775 0.925489
vt 0.605779 0.945676
vt 0.857199 0.925480
vt 0.854222 0.945685
vt 0.851219 0.925498
vt 0.811003 0.945694
vt 0.813980 0.925489
vt 0.816983 0.945676
vt 0.967830 0.925480
vt 0.964853 0.945685
vt 0.961850 0.925498
vt 0.418766 0.945694
vt 0.421742 0.925489
vt 0.424746 0.945676
vt 0.867256 0.925480
vt 0.864280 0.945685
vt 0.861276 0.925498
vt 0.318192 0.945694
vt 0.321169 0.925489
vt 0.324172 0.945676
vt 0.746569 0.925480
vt 0.743592 0.945685
vt 0.740588 0.925498
vt 0.428823 0.945694
vt 0.431800 0.925489
vt 0.434803 0.945676
vt 0.038184 0.956025
vt 0.035207 0.976230
vt 0.032204 0.956043
vt 0.489168 0.945694
vt 0.492144 0.925489
vt 0.495148 0.945676
vt 0.158872 0.956025
vt 0.155896 0.976230
vt 0.152892 0.956043
vt 0.750659 0.945694
vt 0.753636 0.925489
vt 0.756639 0.945676
vt 0.676167 0.925480
vt 0.673190 0.945685
vt 0.670187 0.925498
vt 0.629971 0.945694
vt 0.632948 0.925489
vt 0.635951 0.945676
vt 0.766683 0.925480
vt 0.763706 0.945685
vt 0.760703 0.925498
vt 0.771683 0.609644
vt 0.771829 0.485630
vt 0.772518 0.485637
vt 0.985719 0.061238
vt 0.862623 0.061223
vt 0.862629 0.060730
vt 0.675987 0.380691
vt 0.676665 0.380673
vt 0.676056 0.506828
vt 0.520855 0.623050
vt 0.520225 0.623093
vt 0.520972 0.496455
vt 0.938099 0.560882
vt 0.976682 0.242563
vt 0.991117 0.716653
vt 0.991081 0.675057
vt 0.994972 0.204604
vt 0.444035 0.955968
vt 0.444263 0.956063
vt 0.443949 0.975226
vt 0.986927 0.974915
vt 0.363183 0.955998
vt 0.363458 0.956001
vt 0.363404 0.975242
vt 0.990946 0.189480
vt 0.862623 0.561164
vt 0.005126 0.696971
vt 0.994283 0.220202
vt 0.990946 0.200604
vt 0.213658 0.947138
vt 0.213628 0.946646
vt 0.232736 0.932229
vt 0.862660 0.265400
vt 0.986927 0.963420
vt 0.976523 0.260979
vt 0.327235 0.966883
vt 0.333073 0.955972
vt 0.333048 0.956066
vt 0.168372 0.944537
vt 0.160440 0.947736
vt 0.159434 0.944239
vt 0.261079 0.956125
vt 0.139118 0.944731
vt 0.017389 0.995490
vt 0.079256 0.938896
vt 0.292604 0.946654
vt 0.292573 0.946640
vt 0.289999 0.932142
vt 0.530803 0.753070
vt 0.530715 0.627128
vt 0.531124 0.627160
vt 0.434908 0.955998
vt 0.435183 0.956000
vt 0.435077 0.975242
vt 0.403529 0.955998
vt 0.403804 0.956000
vt 0.403697 0.975242
vt 0.631256 0.956064
vt 0.631575 0.955966
vt 0.631279 0.975176
vt 0.390080 0.955998
vt 0.390355 0.956000
vt 0.390301 0.975242
vt 0.657960 0.956064
vt 0.658280 0.955966
vt 0.657983 0.975175
vt 0.394563 0.955998
vt 0.394838 0.956001
vt 0.394784 0.975242
vt 0.759866 0.611241
vt 0.759778 0.485299
vt 0.760187 0.485331
vt 0.425943 0.955998
vt 0.426218 0.956000
vt 0.426112 0.975242
vt 0.524686 0.955967
vt 0.524914 0.956063
vt 0.524599 0.975227
vt 0.430426 0.955998
vt 0.430700 0.956000
vt 0.430594 0.975242
vt 0.381114 0.955998
vt 0.381389 0.956001
vt 0.381283 0.975242
vt 0.488841 0.955968
vt 0.489069 0.956063
vt 0.488754 0.975226
vt 0.385597 0.955998
vt 0.385872 0.956001
vt 0.385766 0.975242
vt 0.358700 0.955999
vt 0.358975 0.956001
vt 0.358941 0.975242
vt 0.005408 0.860909
vt 0.113219 0.540296
vt 0.990946 0.224202
vt 0.438827 0.868320
vt 0.097516 0.929629
vt 0.862822 0.085041
vt 0.337218 0.975271
vt 0.297742 0.961153
vt 0.306711 0.955930
vt 0.306711 0.956002
vt 0.521246 0.992594
vt 0.007599 0.925377
vt 0.007642 0.925541
vt 0.004100 0.943014
vt 0.265247 0.975150
vt 0.226781 0.965544
vt 0.244945 0.955989
vt 0.244947 0.956028
vt 0.971460 0.974300
vt 0.707989 0.609092
vt 0.708240 0.735216
vt 0.707801 0.735248
vt 0.671297 0.609092
vt 0.671548 0.735216
vt 0.671109 0.735248
vt 0.465216 0.891047
vt 0.465216 0.902482
vt 0.976369 0.274018
vt 0.858214 0.481123
vt 0.981091 0.103666
vt 0.350147 0.955962
vt 0.867585 0.986304
vt 0.865276 0.986240
vt 0.865954 0.980382
vt 0.293583 0.956100
vt 0.155273 0.944628
vt 0.119917 0.944693
vt 0.520205 0.955967
vt 0.520433 0.956063
vt 0.520118 0.975226
vt 0.755296 0.741580
vt 0.755208 0.615638
vt 0.755617 0.615670
vt 0.680214 0.956064
vt 0.680533 0.955966
vt 0.680237 0.975175
vt 0.755296 0.611241
vt 0.755208 0.485299
vt 0.755617 0.485331
vt 0.484360 0.955968
vt 0.484589 0.956063
vt 0.484274 0.975226
vt 0.439555 0.955967
vt 0.439783 0.956063
vt 0.439468 0.975226
vt 0.702468 0.956064
vt 0.702787 0.955966
vt 0.702491 0.975175
vt 0.862623 0.548119
vt 0.750723 0.485410
vt 0.750974 0.611534
vt 0.750535 0.611567
vt 0.750723 0.615749
vt 0.750974 0.741874
vt 0.750535 0.741906
vt 0.830377 0.987688
vt 0.435308 0.705463
vt 0.327215 0.862278
vt 0.862900 0.242425
vt 0.845289 0.987689
vt 0.845272 0.980342
vt 0.978692 0.096352
vt 0.862623 0.466879
vt 0.942253 0.466893
vt 0.942712 0.474227
vt 0.942457 0.467027
vt 0.862703 0.372819
vt 0.862623 0.365780
vt 0.862804 0.372961
vt 0.862740 0.365611
vt 0.943275 0.372961
vt 0.862759 0.474079
vt 0.862762 0.474227
vt 0.943092 0.365611
vt 0.943193 0.365752
vt 0.978880 0.092179
vt 0.979203 0.085004
vt 0.333218 0.975326
vt 0.333218 0.956178
vt 0.465216 0.885472
vt 0.306647 0.975257
vt 0.306816 0.975146
vt 0.265298 0.955922
vt 0.280459 0.974469
vt 0.438672 0.897048
vt 0.276406 0.946817
s 1
usemtl station_002_baked
f 82/1/1 84/2/1 85/3/1
f 88/4/2 90/5/2 91/6/2
f 96/7/3 98/8/3 95/9/3
f 101/10/4 103/11/4 77/12/4
f 104/13/5 106/14/5 107/15/5
f 108/16/6 110/17/6 111/18/6
f 119/19/7 120/20/7 118/21/7
f 121/22/8 122/23/8 123/24/8
f 128/25/9 129/26/9 130/27/9
f 134/28/10 136/29/10 133/30/10
f 195/31/11 196/32/11 197/33/11
f 200/34/12 202/35/13 199/36/14
f 203/37/15 205/38/15 206/39/15
f 209/40/16 210/41/16 199/36/16
f 211/42/17 212/43/17 213/44/17
f 214/45/18 216/46/18 207/47/18
f 219/48/19 221/49/19 218/50/19
f 225/51/20 227/52/20 228/53/20
f 230/54/21 232/55/22 229/56/23
f 237/57/24 239/58/24 236/59/24
f 241/60/25 243/61/25 240/62/25
f 246/63/26 248/64/26 249/65/26
f 239/66/27 243/67/27 236/68/27
f 100/69/28 103/70/28 99/71/28
f 477/72/29 475/73/29 476/74/29
f 213/75/30 216/46/30 211/76/30
f 228/77/31 229/78/31 225/79/31
f 133/30/32 131/80/32 132/81/32
f 91/6/33 85/82/33 88/4/33
f 81/83/34 78/84/35 80/85/36
f 93/86/37 121/22/38 123/24/38
f 128/25/39 124/87/39 126/88/39
f 134/28/40 94/89/41 135/90/42
f 111/18/43 89/91/44 108/16/45
f 120/20/46 89/92/47 118/21/48
f 124/93/49 116/94/49 117/95/49
f 120/20/50 115/96/51 121/22/52
f 114/97/53 128/25/54 112/98/55
f 134/28/56 105/99/57 104/13/57
f 211/42/58 197/33/59 198/100/60
f 221/101/61 214/102/61 218/103/61
f 244/104/62 250/105/63 251/106/64
f 87/107/65 90/5/65 86/108/65
f 93/109/66 82/110/66 92/111/66
f 129/26/67 95/112/67 130/27/67
f 106/14/68 99/113/68 107/15/68
f 111/18/39 114/114/39 113/115/39
f 124/116/69 108/16/70 125/117/71
f 114/118/72 137/119/72 138/120/72
f 206/39/73 227/52/73 203/37/73
f 231/121/74 246/122/74 232/55/74
f 80/123/75 96/7/75 81/124/75
f 135/90/76 122/23/76 136/29/76
f 131/125/77 127/126/78 132/127/79
f 223/128/80 215/129/80 222/130/80
f 233/131/81 220/132/82 224/133/83
f 250/134/84 238/135/84 251/136/84
f 371/137/29 372/138/29 370/139/29
f 377/140/29 378/141/29 376/142/29
f 392/143/29 393/144/29 391/145/29
f 398/146/29 397/147/29 399/148/29
f 478/149/29 479/150/29 480/151/29
f 483/152/29 482/153/29 481/154/29
f 484/155/29 486/156/29 485/157/29
f 507/158/29 505/159/29 506/160/29
f 126/161/85 84/162/85 83/163/85
f 240/62/86 219/164/86 241/60/86
f 245/165/87 237/166/87 244/167/87
f 119/19/88 104/13/88 107/15/88
f 234/168/89 230/54/90 224/169/91
f 97/170/92 102/171/92 98/8/92
f 113/115/93 101/172/93 77/173/93
f 194/174/94 201/175/95 193/176/96
f 209/40/97 205/38/98 208/177/99
f 252/178/100 248/64/101 247/179/102
f 371/180/29 370/181/29 372/182/29
f 377/183/29 376/184/29 378/185/29
f 392/186/29 391/187/29 393/188/29
f 396/189/29 395/190/29 394/191/29
f 396/192/29 394/193/29 395/194/29
f 398/195/29 399/196/29 397/197/29
f 477/198/29 476/199/29 475/200/29
f 478/201/29 480/202/29 479/203/29
f 483/204/29 481/205/29 482/206/29
f 484/207/29 485/208/29 486/209/29
f 507/210/29 506/211/29 505/212/29
f 4/213/29 3/214/29 5/215/29
f 5/216/29 3/217/29 4/218/29
f 6/219/29 8/220/103 7/221/29
f 7/222/29 8/223/103 6/224/29
f 9/225/29 10/226/29 11/227/29
f 11/228/29 10/229/29 9/230/29
f 14/231/29 12/232/29 13/233/29
f 14/234/29 13/235/29 12/236/29
f 15/237/29 16/238/29 17/239/29
f 15/240/29 17/241/29 16/242/29
f 19/243/29 18/244/29 20/245/29
f 19/246/29 20/247/29 18/248/29
f 21/249/29 22/250/29 23/251/29
f 21/252/29 23/253/29 22/254/29
f 24/255/29 25/256/29 26/257/29
f 24/258/29 26/259/29 25/260/29
f 28/261/29 27/262/29 29/263/29
f 27/264/29 28/265/29 29/266/29
f 31/267/29 30/268/29 32/269/29
f 31/270/29 32/271/29 30/272/29
f 33/273/29 34/274/29 35/275/29
f 33/276/29 35/277/29 34/278/29
f 36/279/29 37/280/29 38/281/29
f 36/282/29 38/283/29 37/284/29
f 39/285/29 40/286/29 41/287/29
f 39/288/29 41/289/29 40/290/29
f 42/291/29 44/292/29 43/293/29
f 43/294/29 44/295/29 42/296/29
f 47/297/104 46/298/105 45/299/106
f 45/300/106 46/301/105 47/302/104
f 48/303/29 50/304/29 49/305/29
f 48/306/29 49/307/29 50/308/29
f 51/309/29 52/310/29 53/311/29
f 51/312/29 53/313/29 52/314/29
f 54/315/21 56/316/29 55/317/21
f 55/318/21 56/319/29 54/320/21
f 57/321/29 58/322/29 59/323/29
f 57/324/29 59/325/29 58/326/29
f 60/327/29 62/328/29 61/329/29
f 60/330/29 61/331/29 62/332/29
f 65/333/107 64/334/108 63/335/108
f 63/336/108 64/337/108 65/338/107
f 68/339/29 67/340/29 66/341/29
f 68/342/29 66/343/29 67/344/29
f 69/345/109 71/346/109 70/347/109
f 71/348/109 69/349/109 70/350/109
f 72/351/110 74/352/29 73/353/110
f 73/354/110 74/355/29 72/356/110
f 77/357/21 76/358/21 75/359/21
f 75/360/21 76/361/21 77/362/21
f 81/83/34 86/363/111 78/84/35
f 78/364/35 86/365/111 91/366/112
f 80/367/113 78/368/114 84/369/115
f 78/364/35 91/366/112 85/370/116
f 79/371/117 97/372/118 102/373/119
f 79/371/117 81/374/34 97/372/118
f 87/375/120 79/376/121 101/377/122
f 81/83/34 79/378/117 86/363/111
f 80/367/113 84/369/115 96/379/110
f 126/161/39 84/162/39 96/380/39
f 83/381/21 122/382/21 121/383/21
f 90/384/123 77/173/123 103/385/123
f 121/383/21 92/386/21 83/381/21
f 96/387/124 84/2/124 83/388/124
f 82/389/39 103/385/39 96/380/39
f 87/375/120 101/377/122 90/390/103
f 90/384/39 113/115/39 101/172/39
f 90/384/39 111/18/39 113/115/39
f 100/391/125 89/392/47 88/393/126
f 135/90/42 93/86/37 123/24/38
f 135/90/42 94/89/41 93/86/37
f 93/394/37 94/395/41 98/396/127
f 94/397/128 134/398/129 129/399/130
f 94/397/128 129/399/130 95/400/131
f 126/161/39 96/380/39 130/401/39
f 100/402/125 118/21/48 89/92/47
f 89/403/44 119/404/21 110/405/21
f 100/402/132 107/15/132 118/21/132
f 106/406/26 99/407/26 77/408/26
f 106/406/26 77/408/26 114/409/26
f 132/81/133 105/99/134 133/30/135
f 106/410/103 137/411/103 114/412/103
f 106/410/136 105/413/137 137/411/138
f 117/414/139 109/415/140 125/117/141
f 115/416/142 119/417/142 110/418/142
f 115/416/143 110/418/144 109/419/140
f 119/417/103 114/412/103 110/418/103
f 127/420/145 112/98/146 138/421/147
f 115/422/143 109/423/140 117/424/139
f 122/425/148 115/426/149 116/427/150
f 122/425/110 116/427/110 124/428/110
f 134/429/151 133/430/151 129/431/151
f 105/432/134 127/126/145 138/433/147
f 105/432/134 132/127/133 127/126/145
f 131/434/77 129/431/152 127/435/78
f 131/434/153 134/429/153 129/431/153
f 143/436/154 139/437/154 140/438/154
f 143/439/29 141/440/29 142/441/29
f 143/442/29 142/443/29 141/444/29
f 144/445/29 146/446/29 145/447/29
f 144/448/29 145/449/29 146/450/29
f 148/451/29 149/452/29 147/453/29
f 148/454/29 147/455/29 149/456/29
f 150/457/29 152/458/29 151/459/29
f 150/460/29 151/461/29 152/462/29
f 153/463/29 154/464/29 155/465/29
f 153/466/29 155/467/29 154/468/29
f 156/469/155 158/470/155 157/471/156
f 158/472/155 156/473/155 157/474/156
f 159/475/29 161/476/29 160/477/29
f 159/478/29 160/479/29 161/480/29
f 162/481/29 164/482/29 163/483/29
f 162/484/29 163/485/29 164/486/29
f 165/487/29 167/488/29 166/489/29
f 165/490/29 166/491/29 167/492/29
f 170/493/29 169/494/29 168/495/29
f 168/496/29 169/497/29 170/498/29
f 171/499/29 173/500/29 172/501/29
f 171/502/29 172/503/29 173/504/29
f 174/505/29 176/506/29 175/507/29
f 174/508/29 175/509/29 176/510/29
f 177/511/29 178/512/29 179/513/29
f 177/514/29 179/515/29 178/516/29
f 182/517/29 181/518/29 180/519/29
f 182/520/29 180/521/29 181/522/29
f 183/523/29 185/524/29 184/525/29
f 183/526/29 184/527/29 185/528/29
f 187/529/29 188/530/29 186/531/29
f 187/532/29 186/533/29 188/534/29
f 191/535/29 189/536/29 190/537/29
f 189/538/29 191/539/29 190/540/29
f 192/541/157 200/542/158 196/543/159
f 192/541/157 193/544/160 200/542/158
f 194/174/161 192/545/161 195/31/161
f 197/33/162 196/32/162 201/175/162
f 198/546/60 196/547/163 200/548/164
f 201/175/165 200/34/165 197/33/165
f 213/44/166 212/43/166 209/40/166
f 205/38/167 204/549/167 221/550/167
f 207/551/168 204/552/169 214/553/170
f 221/550/171 219/164/171 226/554/171
f 217/555/172 203/556/173 227/557/174
f 207/551/168 208/558/175 204/552/169
f 216/46/110 214/45/110 204/559/110
f 212/43/176 216/560/176 209/40/176
f 217/561/177 222/562/178 216/46/179
f 223/563/180 218/564/181 215/565/26
f 217/566/172 226/567/182 219/568/183
f 233/569/81 241/570/184 220/571/26
f 223/563/180 217/572/177 218/564/181
f 227/52/185 226/554/185 240/62/185
f 233/569/81 224/573/83 241/570/184
f 224/574/186 231/121/186 242/575/186
f 234/576/89 224/577/91 225/578/187
f 228/53/188 243/61/188 242/579/188
f 234/576/89 225/578/187 230/580/21
f 242/579/189 239/581/189 231/582/189
f 235/583/190 232/584/22 246/585/191
f 231/586/192 230/587/192 229/588/192
f 249/589/193 246/122/193 237/590/193
f 235/591/194 236/592/195 243/593/196
f 252/594/197 251/136/198 239/595/199
f 246/596/200 249/597/200 238/135/200
f 250/598/63 244/599/62 238/600/201
f 247/179/202 237/166/39 245/165/203
f 252/601/197 244/104/204 251/106/198
f 247/179/202 245/165/203 252/178/205
f 255/602/103 253/603/103 254/604/103
f 254/605/103 253/606/103 255/607/103
f 258/608/29 256/609/29 257/610/29
f 257/611/29 256/612/29 258/613/29
f 260/614/29 259/615/21 261/616/21
f 261/617/21 259/618/21 260/619/29
f 264/620/109 263/621/109 262/622/109
f 263/623/109 264/624/109 262/625/109
f 267/626/206 265/627/207 266/628/208
f 265/629/207 267/630/206 266/631/208
f 270/632/29 269/633/29 268/634/29
f 269/635/29 270/636/29 268/637/29
f 273/638/29 271/639/29 272/640/29
f 271/641/29 273/642/29 272/643/29
f 275/644/39 274/645/39 276/646/39
f 274/647/39 275/648/39 276/649/39
f 279/650/29 277/651/29 278/652/29
f 278/653/29 277/654/29 279/655/29
f 280/656/29 282/657/29 281/658/29
f 280/659/29 281/660/29 282/661/29
f 283/662/29 284/663/29 285/664/29
f 283/665/29 285/666/29 284/667/29
f 286/668/29 287/669/29 288/670/29
f 287/671/29 286/672/29 288/673/29
f 289/674/21 290/675/29 291/676/21
f 290/677/29 289/678/21 291/679/21
f 292/680/29 293/681/29 294/682/29
f 292/683/29 294/684/29 293/685/29
f 295/686/29 296/687/29 297/688/29
f 295/689/29 297/690/29 296/691/29
f 298/692/29 300/693/29 299/694/29
f 298/695/29 299/696/29 300/697/29
f 301/698/29 303/699/29 302/700/29
f 301/701/29 302/702/29 303/703/29
f 304/704/29 306/705/29 305/706/29
f 304/707/29 305/708/29 306/709/29
f 308/710/29 309/711/29 307/712/29
f 308/713/29 307/714/29 309/715/29
f 311/716/29 312/717/29 310/718/29
f 311/719/29 310/720/29 312/721/29
f 314/722/29 313/723/29 315/724/29
f 314/725/29 315/726/29 313/727/29
f 317/728/29 316/729/29 318/730/29
f 317/731/29 318/732/29 316/733/29
f 319/734/29 321/735/29 320/736/29
f 319/737/29 320/738/29 321/739/29
f 323/740/29 322/741/29 324/742/29
f 323/743/29 324/744/29 322/745/29
f 325/746/29 326/747/29 327/748/29
f 325/749/29 327/750/29 326/751/29
f 329/752/29 328/753/29 330/754/29
f 329/755/29 330/756/29 328/757/29
f 333/758/29 331/759/29 332/760/29
f 333/761/29 332/762/29 331/763/29
f 334/764/29 335/765/29 336/766/29
f 334/767/29 336/768/29 335/769/29
f 339/770/29 338/771/29 337/772/29
f 339/773/29 337/774/29 338/775/29
f 340/776/29 341/777/29 342/778/29
f 340/779/29 342/780/29 341/781/29
f 343/782/29 345/783/29 344/784/29
f 343/785/29 344/786/29 345/787/29
f 347/788/29 348/789/29 346/790/29
f 347/791/29 346/792/29 348/793/29
f 349/794/29 350/795/29 351/796/29
f 349/797/29 351/798/29 350/799/29
f 352/800/29 353/801/29 354/802/29
f 352/803/29 354/804/29 353/805/29
f 356/806/29 355/807/29 357/808/29
f 356/809/29 357/810/29 355/811/29
f 358/812/29 359/813/29 360/814/29
f 358/815/29 360/816/29 359/817/29
f 379/818/29 381/819/29 380/820/29
f 379/821/29 380/822/29 381/823/29
f 401/824/29 402/825/29 400/826/29
f 400/827/29 402/828/29 401/829/29
f 404/830/21 405/831/21 403/832/21
f 403/833/21 405/834/21 404/835/21
f 408/836/21 407/837/21 406/838/21
f 406/839/21 407/840/21 408/841/21
f 411/842/26 410/843/26 409/844/26
f 409/845/26 410/846/26 411/847/26
f 414/848/21 412/849/21 413/850/21
f 413/851/21 412/852/21 414/853/21
f 417/854/21 416/855/21 415/856/21
f 415/857/21 416/858/21 417/859/21
f 420/860/26 419/861/26 418/862/26
f 418/863/26 419/864/26 420/865/26
f 423/866/26 422/867/26 421/868/26
f 421/869/26 422/870/26 423/871/26
f 426/872/26 425/873/26 424/874/26
f 424/875/26 425/876/26 426/877/26
f 428/878/21 427/879/21 429/880/21
f 429/881/21 427/882/21 428/883/21
f 432/884/21 430/885/21 431/886/21
f 431/887/21 430/888/21 432/889/21
f 434/890/21 433/891/21 435/892/21
f 435/893/21 433/894/21 434/895/21
f 438/896/209 437/897/210 436/898/211
f 436/899/211 437/900/210 438/901/209
f 440/902/21 439/903/21 441/904/21
f 441/905/21 439/906/21 440/907/21
f 443/908/26 444/909/26 442/910/26
f 442/911/26 444/912/26 443/913/26
f 446/914/21 445/915/21 447/916/21
f 447/917/21 445/918/21 446/919/21
f 449/920/26 448/921/26 450/922/26
f 450/923/26 448/924/26 449/925/26
f 452/926/26 453/927/26 451/928/26
f 451/929/26 453/930/26 452/931/26
f 456/932/212 454/933/213 455/934/214
f 455/935/214 454/936/213 456/937/212
f 458/938/21 457/939/21 459/940/21
f 459/941/21 457/942/21 458/943/21
f 461/944/26 460/945/26 462/946/26
f 462/947/26 460/948/26 461/949/26
f 465/950/26 464/951/26 463/952/26
f 463/953/26 464/954/26 465/955/26
f 466/956/29 468/957/29 467/958/29
f 466/959/29 467/960/29 468/961/29
f 487/962/29 488/963/29 489/964/29
f 488/965/29 487/966/29 489/967/29
f 82/1/215 83/388/215 84/2/215
f 88/4/216 89/968/216 90/5/216
f 96/7/217 97/170/217 98/8/217
f 101/10/218 102/969/218 103/11/218
f 104/13/219 105/99/137 106/14/136
f 108/16/220 109/415/140 110/17/144
f 119/19/221 115/96/51 120/20/50
f 121/22/222 115/96/149 122/23/148
f 128/25/223 127/420/78 129/26/152
f 134/28/224 135/90/224 136/29/224
f 195/31/225 192/545/225 196/32/225
f 200/34/226 201/175/226 202/35/226
f 203/37/173 204/549/227 205/38/228
f 209/40/229 208/177/229 210/41/229
f 211/42/230 198/100/230 212/43/230
f 214/45/109 215/129/109 216/46/109
f 219/48/109 220/970/109 221/49/109
f 225/51/231 226/554/231 227/52/231
f 230/54/232 231/121/232 232/55/232
f 237/57/109 238/971/109 239/58/109
f 241/60/233 242/579/233 243/61/233
f 246/63/234 247/179/234 248/64/234
f 239/66/235 240/972/235 243/67/235
f 366/973/29 364/974/29 365/975/29
f 100/69/236 77/976/236 103/70/236
f 213/75/237 207/47/238 216/46/239
f 389/977/29 390/978/29 388/979/29
f 228/77/240 230/980/240 229/78/240
f 133/30/241 136/29/241 131/80/241
f 91/6/242 82/981/242 85/82/242
f 93/86/243 92/982/243 121/22/243
f 128/25/39 130/27/39 124/87/39
f 111/18/244 90/384/244 89/91/244
f 124/93/69 125/983/71 116/94/245
f 114/97/246 127/420/246 128/25/246
f 134/28/56 133/30/247 105/99/57
f 211/42/248 195/31/248 197/33/248
f 221/101/39 215/984/39 214/102/39
f 245/985/249 244/986/204 252/987/197
f 85/988/250 84/369/250 78/368/250
f 87/107/251 91/6/251 90/5/251
f 93/109/252 83/989/252 82/110/252
f 95/990/253 98/396/253 94/395/253
f 198/991/254 199/992/255 210/993/256
f 210/994/257 208/995/175 207/996/168
f 217/566/172 227/997/174 226/567/182
f 226/998/258 225/578/187 224/577/91
f 242/999/259 241/570/184 224/573/83
f 235/1000/190 246/122/191 249/589/260
f 249/1001/261 248/1002/101 252/1003/100
f 362/1004/29 363/1005/29 361/1006/29
f 364/1007/29 366/1008/29 365/1009/29
f 368/1010/262 369/1011/263 367/1012/264
f 375/1013/265 374/1014/266 373/1015/267
f 374/1016/266 375/1017/265 373/1018/267
f 387/1019/29 386/1020/29 385/1021/29
f 386/1022/29 387/1023/29 385/1024/29
f 469/1025/29 471/1026/29 470/1027/29
f 474/1028/29 473/1029/29 472/1030/29
f 473/1031/29 474/1032/29 472/1033/29
f 493/1034/29 494/1035/29 495/1036/29
f 498/1037/268 496/1038/269 497/1039/270
f 496/1040/269 498/1041/268 497/1042/270
f 500/1043/29 501/1044/29 499/1045/29
f 503/1046/29 504/1047/29 502/1048/29
f 129/26/271 96/1049/271 95/112/271
f 106/14/272 100/1050/272 99/113/272
f 111/18/273 110/17/273 114/114/273
f 124/116/274 109/415/274 108/16/274
f 114/118/53 112/1051/55 137/119/275
f 194/174/276 193/1052/160 192/545/157
f 202/35/13 209/40/277 199/36/14
f 206/39/278 228/53/278 227/52/278
f 231/121/279 247/1053/279 246/122/279
f 80/123/280 97/170/280 96/7/280
f 135/90/281 123/24/281 122/23/281
f 115/426/149 117/1054/282 116/427/150
f 198/546/60 197/1055/59 196/547/163
f 207/1056/238 213/1057/237 212/1058/283
f 223/128/284 216/46/284 215/129/284
f 217/572/285 219/1059/285 218/564/285
f 223/1060/180 222/1061/178 217/1062/177
f 233/131/286 221/1063/286 220/132/286
f 235/1064/194 243/1065/196 242/1066/287
f 235/591/194 237/1067/288 236/592/195
f 250/134/289 239/595/289 238/135/289
f 362/1068/29 361/1069/29 363/1070/29
f 469/1071/29 470/1072/29 471/1073/29
f 126/161/39 124/116/39 84/162/39
f 240/62/39 220/1074/39 219/164/39
f 245/165/39 238/1075/39 237/166/39
f 102/1076/290 101/377/290 79/376/290
f 79/378/117 87/1077/291 86/363/111
f 119/19/292 118/21/292 104/13/292
f 105/413/137 138/1078/293 137/411/138
f 193/544/96 201/1079/95 200/542/21
f 200/1080/294 199/1081/255 198/1082/254
f 208/558/99 205/1083/98 204/552/21
f 204/1084/227 203/556/173 217/555/172
f 234/168/295 231/121/295 230/54/295
f 229/1085/23 232/584/22 235/583/190
f 369/1086/263 368/1087/262 367/1088/264
f 383/1089/29 384/1090/29 382/1091/29
f 390/1092/29 389/1093/29 388/1094/29
f 490/1095/29 492/1096/29 491/1097/29
f 494/1098/29 493/1099/29 495/1100/29
f 501/1101/29 500/1102/29 499/1103/29
f 504/1104/29 503/1105/29 502/1106/29
f 97/170/296 103/1107/296 102/171/296
f 113/115/39 114/114/39 101/172/39
f 194/174/297 202/35/297 201/175/297
f 209/40/298 206/39/298 205/38/298
f 383/1108/29 382/1109/29 384/1110/29
f 490/1111/29 491/1112/29 492/1113/29
f 124/1114/21 122/382/21 83/381/21
f 82/389/299 91/1115/299 90/384/299
f 90/384/6 101/172/6 77/173/6
f 103/385/39 82/389/39 90/384/39
f 83/388/300 93/394/300 98/396/300
f 83/388/301 98/396/301 96/387/301
f 96/380/302 83/163/302 82/389/302
f 103/385/303 97/1116/303 96/380/303
f 77/12/304 100/391/304 88/393/304
f 77/12/305 88/393/305 90/1117/305
f 108/1118/45 89/403/44 110/405/21
f 89/403/44 120/1119/21 119/404/21
f 119/417/306 107/1120/306 106/410/306
f 114/412/103 119/417/103 106/410/103
f 134/1121/307 104/1122/308 114/1123/309
f 104/1122/310 106/1124/310 114/1123/310
f 110/1125/26 119/1126/26 108/1127/26
f 108/1127/26 119/1126/26 120/1128/26
f 120/1128/26 124/1129/26 108/1127/26
f 129/1130/311 134/1121/311 128/1131/311
f 134/1121/307 114/1123/309 128/1131/312
f 121/1132/26 122/1133/26 124/1129/26
f 120/1128/26 121/1132/26 124/1129/26
f 124/428/110 136/1134/110 122/425/110
f 124/428/313 130/1135/313 129/431/313
f 136/1134/110 124/428/110 129/431/110
f 133/430/314 136/1134/314 129/431/314
f 131/434/315 133/430/315 134/429/315
f 201/175/316 194/174/316 195/31/316
f 201/175/317 195/31/317 197/33/317
f 196/32/318 200/34/318 201/175/318
f 211/42/319 202/35/319 197/33/319
f 202/35/320 201/175/320 197/33/320
f 200/34/321 196/32/321 197/33/321
f 212/1136/322 198/991/254 209/1137/323
f 198/991/254 210/993/256 209/1137/323
f 209/40/39 202/35/39 211/42/39
f 209/40/324 211/42/324 213/44/324
f 221/550/325 206/39/325 205/38/325
f 204/549/326 214/1138/326 221/550/326
f 227/52/327 206/39/327 221/550/327
f 226/554/328 227/52/328 221/550/328
f 204/559/329 217/561/177 216/46/179
f 205/38/330 209/40/330 216/560/330
f 204/549/331 205/38/331 216/560/331
f 210/1139/332 207/1056/238 209/1140/333
f 207/1056/238 212/1058/283 209/1140/333
f 212/43/334 213/44/334 216/560/334
f 226/1141/335 224/1142/335 221/1063/335
f 240/62/336 228/53/336 227/52/336
f 226/554/337 219/164/337 240/62/337
f 228/53/338 240/62/338 243/61/338
f 231/582/339 230/1143/39 228/53/340
f 242/579/341 231/582/339 228/53/340
f 242/579/342 243/61/342 239/581/342
f 247/179/39 231/582/39 239/581/39
f 229/588/343 235/1064/194 242/1066/287
f 242/1066/344 231/586/344 229/588/344
f 237/590/345 235/1000/190 249/589/260
f 246/122/346 247/1053/346 237/590/346
f 249/597/263 252/594/263 239/595/263
f 249/597/347 239/595/347 238/135/347
f 237/1144/348 246/596/348 238/135/348
l 1 2
