# Blender 4.5.0
# www.blender.org
mtllib station_001.lod1.mtl
o station_001
v 4.077217 3.189160 1.970806
v 4.077217 3.189159 -1.970807
v 4.077217 2.788259 -1.970807
v 4.077217 2.788259 1.970806
v 5.444848 1.052599 13.000000
v 1.851401 0.003767 13.000000
v 1.850000 1.053279 12.997734
v 1.850000 0.003085 -12.997734
v 5.446249 1.053277 -12.997734
v 1.851401 1.052597 -13.000000
v 5.444848 0.003765 -13.000000
v 5.446249 0.003087 12.997734
v 2.343022 1.061925 -12.750398
v 2.052602 1.060832 -12.750398
v 2.052602 1.061927 12.750398
v 2.343022 1.060834 12.750398
v 1.862669 1.061042 -12.902486
v 1.862669 1.061717 12.902486
v 1.952829 1.061044 12.902486
v 1.952829 1.061715 -12.902486
v 4.176185 3.622185 -10.009552
v 4.320323 3.622185 -9.998639
v 4.320323 1.042283 -10.009552
v 4.176186 1.042283 -9.998639
v 1.998762 3.511117 -10.021788
v 2.000240 3.420151 -10.044365
v 5.089439 3.758431 -10.027654
v 5.102109 3.669601 -10.043737
v 1.997445 3.458905 -9.947202
v 5.099113 3.710849 -9.947608
v 4.242798 3.622185 -4.929965
v 4.253710 3.622185 -5.074131
v 4.176185 1.042283 -4.996591
v 4.320323 1.042283 -5.007505
v 1.998762 3.511117 -5.019741
v 2.000240 3.420150 -5.042318
v 5.102108 3.669601 -5.041689
v 5.089439 3.758431 -5.025608
v 5.099113 3.710849 -4.945562
v 1.997445 3.458905 -4.945155
v 4.253710 3.622185 -0.072084
v 4.192707 1.058838 -0.053772
v 4.242798 3.622185 0.072083
v 4.253710 1.042283 0.072083
v 4.302497 1.060146 -0.055902
v 1.997445 3.458905 0.056893
v 1.998762 3.511117 -0.017693
v 2.000240 3.420151 -0.040270
v 5.102109 3.669602 -0.039642
v 5.089439 3.758432 -0.023559
v 5.099113 3.710850 0.056486
v 4.176185 3.622186 4.996590
v 4.320323 1.042284 4.996591
v 4.176185 1.042284 5.007504
v 4.320323 3.622186 5.007504
v 1.997445 3.458905 5.058940
v 1.998762 3.511118 4.984354
v 2.000240 3.420151 4.961778
v 5.089439 3.758432 4.978488
v 5.102108 3.669602 4.962406
v 5.099113 3.710850 5.058534
v 4.176185 3.622186 9.998639
v 4.176186 1.042284 10.009552
v 4.320323 3.622186 10.009552
v 4.320323 1.042284 9.998639
v 1.997445 3.458906 10.060989
v 1.998762 3.511118 9.986403
v 5.102109 3.669603 9.964454
v 5.089439 3.758432 9.980537
v 2.000240 3.420152 9.963826
v 5.099114 3.710850 10.060582
v 1.900702 3.779246 12.017307
v 5.295527 3.761687 12.017307
v 5.295527 3.779244 -12.017308
v 1.900702 3.761685 -12.017307
v 4.603460 1.518883 -7.851936
v 3.993071 1.511915 -7.851937
v 3.993071 1.518883 -6.153797
v 4.603460 1.511916 -6.153797
v 4.096906 1.476857 -7.654191
v 4.096906 1.052815 -7.652076
v 4.499624 1.052815 -7.654191
v 4.499623 1.476857 -7.652076
v 4.499623 1.052815 -6.353657
v 4.096906 1.052815 -6.351543
v 4.499623 1.476858 -6.351543
v 4.096906 1.476857 -6.353657
v 4.603460 1.511916 3.850298
v 3.993071 1.518884 3.850299
v 3.993071 1.511916 2.152159
v 4.603460 1.518883 2.152159
v 4.499625 1.476856 2.352020
v 4.499625 1.052818 2.349905
v 4.096905 1.476856 2.349905
v 4.096905 1.052818 2.352020
v 4.096905 1.476856 3.650438
v 4.096905 1.052818 3.652552
v 4.499625 1.476856 3.652552
v 4.499625 1.052818 3.650437
v 3.993071 1.511916 7.154207
v 4.603460 1.518884 7.154207
v 3.993072 1.518885 8.852346
v 4.603459 1.511917 8.852346
v 4.499623 1.476858 7.354067
v 4.499623 1.052816 7.351953
v 4.096906 1.052816 7.354066
v 4.096906 1.476858 7.351953
v 4.096905 1.476857 8.652486
v 4.499625 1.052817 8.652485
v 4.096905 1.052816 8.654601
v 4.499624 1.476859 8.654601
v 12.295477 0.007675 2.895964
v 12.295477 0.156686 -2.895965
v 12.293165 0.158160 2.897156
v 3.905006 0.158160 -2.897156
v 3.902694 0.156686 2.895965
v 3.905006 0.006200 2.897156
v 3.902694 0.007674 -2.895965
v 12.293165 0.006200 -2.897156
v 4.253113 3.265554 2.645618
v 4.255830 0.165362 2.647643
v 11.942340 3.266339 2.647643
v 11.945057 0.166146 2.645619
v 11.942340 0.165361 -2.647643
v 4.253113 0.166146 -2.645618
v 11.945057 3.265553 -2.645619
v 4.255830 3.266338 -2.647643
v 12.237403 3.309530 2.901164
v 3.958673 3.309519 2.901177
v 12.242243 4.409499 -0.001180
v 12.239497 3.309518 -2.901178
v 3.955928 4.409499 0.001180
v 3.960768 3.309530 -2.901164
v 3.946714 3.310642 2.827463
v 3.953125 3.243317 2.924389
v 3.945863 3.360662 2.953311
v 12.251456 3.362515 2.952462
v 12.245046 3.246244 2.931443
v 12.252308 3.308731 2.828171
v 3.946714 3.310642 -2.974913
v 3.945863 3.360662 -2.849064
v 12.251456 3.362514 -2.849913
v 12.245046 3.246244 -2.870932
v 3.953125 3.243316 -2.877986
v 12.252308 3.308731 -2.974205
v 3.945268 4.413628 -0.096163
v 3.952892 4.325781 0.030548
v 12.252902 4.481245 0.066783
v 12.245278 4.329366 0.039186
v 12.254457 4.410897 -0.095060
v 3.943713 4.478533 0.067930
v 3.923156 3.377656 2.921802
v 3.893235 3.256526 2.884670
v 3.863081 4.413418 0.008642
v 3.877274 4.417374 -0.013534
v 3.877274 4.398821 -0.006510
v 3.883126 4.405349 0.002483
v 3.880790 4.438638 0.018079
v 3.880647 4.404904 -0.002651
v 3.975880 4.475861 0.029601
v 3.946342 4.339255 -0.024206
v 4.029695 4.405270 0.005557
v 4.015732 4.404904 -0.002651
v 4.019104 4.417374 0.013533
v 4.019728 4.394138 0.019270
v 4.019104 4.398821 -0.006510
v 4.019104 4.417374 -0.013534
v 4.005335 4.367676 -0.005282
v 3.891044 4.367676 -0.005282
v 4.011399 3.341765 2.913400
v 4.023409 3.299413 2.896674
v 3.947506 4.325738 0.015265
v 3.893049 3.255343 -2.882676
v 4.026702 3.309137 -2.904142
v 3.915707 3.374764 -2.920708
v 3.953939 4.485899 -0.035766
v 3.904558 4.452785 -0.015478
v 4.001234 4.452357 -0.015316
v 12.224948 3.377656 2.921802
v 12.195027 3.256526 2.884671
v 12.216572 4.478030 0.028279
v 12.307126 4.448519 0.025326
v 12.265198 4.337747 -0.024924
v 12.192836 4.367676 -0.005282
v 12.329346 3.307777 2.902514
v 12.338244 4.381941 -0.000000
v 12.329098 4.404068 0.007294
v 12.329098 4.424990 0.006509
v 12.324649 4.425894 -0.014745
v 12.320896 4.398821 0.006509
v 12.317523 4.404904 -0.002651
v 12.164873 4.413418 0.008642
v 12.179066 4.417374 -0.013534
v 12.179066 4.398821 -0.006510
v 12.184917 4.405349 0.002482
v 12.182439 4.404904 -0.002651
v 12.307126 4.367676 0.005282
v 12.234790 4.340583 0.025587
v 12.246990 3.385842 -2.928065
v 12.283779 3.247438 -2.874739
v 12.182466 3.281194 -2.890545
v 12.247995 4.484429 -0.037188
v 12.206349 4.452785 -0.015478
v 12.307126 4.448519 -0.025327
v 12.320896 3.322514 -2.894678
v 12.319807 3.300905 -2.896228
v 4.132291 0.178501 -0.919952
v 4.134424 0.177042 0.921091
v 4.264196 2.421330 -0.919953
v 4.134424 2.422789 -0.921091
v 4.262063 2.422789 0.921091
v 4.132291 2.421330 0.919952
v 4.262063 0.177042 -0.921091
v 4.264196 0.178501 0.919953
v 4.109607 0.244670 0.848425
v 4.106841 2.345139 0.848425
v 4.109607 2.345139 -0.848425
v 4.106841 0.244669 -0.848425
v 4.052866 0.242182 0.002018
v 4.078218 2.359198 -0.000000
v 4.103569 0.242182 -0.002018
v 3.985763 1.403268 0.117892
v 4.050646 1.006136 0.117892
v 3.985763 1.006136 0.122206
v 4.050646 1.403268 0.122206
v 4.050646 1.403268 -0.117892
v 4.050646 1.006136 -0.122206
v 3.985763 1.403268 -0.122206
v 3.985763 1.006136 -0.117892
v 4.144969 0.657234 1.137246
v 4.144969 2.443723 2.264146
v 4.145743 0.656648 2.265261
v 4.291527 2.443723 1.137245
v 4.291527 0.657234 2.264147
v 4.145743 2.444309 1.136131
v 4.290752 2.444309 2.265261
v 4.290752 0.656648 1.136131
v 4.127003 2.374193 2.198385
v 4.127003 0.726764 1.203007
v 4.129454 0.726764 2.198385
v 4.129454 2.374193 1.203007
v 4.070355 2.417841 2.198911
v 4.098222 0.680343 2.200901
v 4.126090 2.417841 2.202890
v 4.070355 2.417841 1.698707
v 4.098222 0.680343 1.700696
v 4.126090 2.417841 1.702685
v 4.070355 2.417841 1.198502
v 4.098222 0.680343 1.200492
v 4.126090 2.417841 1.202480
v 3.958913 0.649014 2.319660
v 3.958913 0.657913 1.081732
v 4.197523 0.649014 1.081732
v 4.197523 0.657913 2.319660
v 4.145744 2.444309 -2.265261
v 4.144969 2.443723 -1.137246
v 4.144969 0.657234 -2.264146
v 4.145743 0.656648 -1.136131
v 4.291527 0.657234 -1.137246
v 4.291527 2.443723 -2.264147
v 4.290752 0.656648 -2.265261
v 4.290752 2.444309 -1.136131
v 4.127003 2.374193 -1.203007
v 4.129454 2.374193 -2.198385
v 4.129454 0.726764 -1.203007
v 4.127003 0.726764 -2.198385
v 4.098222 2.430636 -1.200492
v 4.126090 0.693138 -1.202480
v 4.070355 0.693138 -1.198502
v 4.070355 2.417841 -1.702686
v 4.098222 0.680343 -1.700696
v 4.126090 2.417841 -1.698707
v 4.098222 0.680343 -2.200901
v 4.070355 2.417841 -2.202891
v 4.126090 2.417841 -2.198912
v 3.958913 0.657913 -2.319661
v 3.958913 0.649014 -1.081732
v 4.197523 0.657912 -1.081732
v 4.197523 0.649014 -2.319660
v 4.084298 2.760679 -1.993395
v 4.231397 3.216365 1.995055
v 4.085074 2.761053 1.995055
v 4.232172 2.760679 1.993394
v 4.232172 3.216739 -1.993395
v 4.085073 3.216365 -1.995056
v 4.084298 3.216739 1.993394
v 4.231396 2.761053 -1.995056
v 6.143084 0.149404 -6.363643
v 4.852503 0.149645 -6.365009
v 4.856197 0.150405 -6.641145
v 4.845778 0.000185 -6.626534
v 6.148664 0.013778 -6.362605
v 6.148768 0.009055 -6.159551
v 6.137948 0.002000 -6.362605
v 6.149564 -0.000001 -6.631416
v 6.142872 0.150354 -6.639309
v 4.860765 0.002000 -6.362605
v 4.848383 0.013096 -6.352268
v 4.848383 0.014479 -6.362605
v 4.854836 0.298841 -6.361205
v 6.142265 0.298938 -6.084157
v 6.143621 0.299019 -6.360584
v 4.853427 0.299019 -6.084510
v 4.854157 0.448779 -6.080167
v 6.148664 0.014479 -6.082490
v 6.148664 0.014488 -6.074579
v 6.137948 0.002000 -6.082490
v 4.848383 0.013082 -6.092841
v 4.859100 0.002000 -6.082490
v 4.848383 0.014558 -6.074691
v 4.848383 0.014824 -6.082490
v 6.148664 0.014824 -5.802375
v 6.148664 0.014849 -5.796171
v 6.137948 0.002000 -5.802375
v 6.148664 0.014558 -5.810174
v 6.142808 0.448626 -5.804341
v 6.143781 0.449011 -6.080054
v 4.853268 0.449011 -5.804811
v 4.848383 0.014488 -5.810287
v 4.859100 0.002000 -5.802375
v 4.848383 0.014933 -5.796351
v 4.848383 0.014854 -5.802375
v 4.853749 0.598449 -5.800092
v 6.139937 0.600481 -5.524143
v 4.859232 0.601677 -5.522603
v 4.848383 0.589074 -5.528910
v 6.144252 0.599200 -5.799678
v 4.852321 0.749461 -5.244878
v 6.140311 0.750571 -5.244024
v 4.854648 0.749151 -5.520598
v 4.848383 0.014849 -5.534866
v 4.848383 0.002000 -5.511542
v 4.855464 0.002000 -5.522261
v 4.848383 0.014943 -5.517438
v 6.137749 0.752244 -5.521619
v 6.148664 0.740745 -5.517438
v 6.148664 0.014943 -5.246969
v 6.148728 0.002000 -5.242146
v 6.148664 0.002000 -5.252864
v 6.145429 0.002000 -5.242146
v 6.145831 0.002000 -5.522261
v 6.148664 0.014933 -5.528285
v 6.148666 0.002000 -5.522261
v 6.148664 0.002000 -5.532979
v 4.848383 0.014859 -5.247196
v 4.859100 0.002000 -5.242146
v 4.848383 0.014837 -5.238159
v 4.848383 0.014225 -5.242146
v 6.144696 0.898415 -4.964191
v 4.851946 0.899753 -4.964670
v 4.848383 0.014755 -4.966276
v 4.859100 0.002000 -4.962031
v 4.850532 0.009108 -4.683993
v 4.848383 0.013709 -4.962031
v 6.137734 0.902737 -5.241309
v 6.148664 0.891189 -5.238159
v 4.852353 0.898415 -5.239986
v 6.148664 0.014225 -4.962031
v 6.148664 0.014623 -4.958369
v 6.136283 0.002000 -4.962031
v 6.148664 0.014837 -4.966017
v 4.852022 1.048561 -4.959974
v 4.852649 1.050536 -4.684283
v 6.143171 1.049615 -4.683836
v 6.145372 1.050062 -4.959529
v 6.144400 0.005827 -4.684284
vn -1.0000 -0.0000 -0.0000
vn -0.8630 0.1789 0.4724
vn 0.8631 0.1788 0.4724
vn -0.7198 -0.6704 -0.1800
vn -0.8631 0.1789 0.4723
vn 0.7392 -0.6725 0.0369
vn -0.7092 -0.7036 0.0451
vn 0.7578 -0.6508 0.0468
vn 0.7383 -0.6731 0.0422
vn 0.5620 -0.8271 0.0032
vn -0.7629 -0.6376 0.1073
vn 1.0000 -0.0000 -0.0000
vn 0.9999 0.0127 0.0004
vn 1.0000 0.0046 -0.0001
vn -1.0000 0.0058 -0.0027
vn -1.0000 0.0031 -0.0001
vn -1.0000 0.0045 -0.0006
vn -1.0000 0.0064 -0.0000
vn -0.0000 -0.3492 -0.9371
vn -0.0000 1.0000 -0.0000
vn 0.9994 -0.0336 -0.0083
vn -1.0000 -0.0010 -0.0002
vn 0.5067 -0.0809 -0.8583
vn 0.3755 0.0195 -0.9266
vn 0.9711 -0.2386 0.0112
vn -0.3362 -0.0274 -0.9414
vn 0.1370 0.4300 -0.8924
vn -0.0105 0.2877 -0.9577
vn 0.9669 0.2388 0.0896
vn 0.5679 0.2421 0.7867
vn 0.7182 -0.5586 0.4148
vn 0.8752 0.4364 -0.2088
vn -0.5626 0.3936 -0.7270
vn -0.4858 0.8447 0.2246
vn -0.0626 0.3616 0.9302
vn -0.0125 0.2389 0.9710
vn -0.2027 -0.0067 0.9792
vn -0.6170 -0.3891 0.6840
vn -0.5142 -0.8012 -0.3060
vn -0.9351 -0.3310 0.1265
vn -1.0000 -0.0018 -0.0048
vn 0.8163 -0.2526 -0.5194
vn 0.9311 0.3414 -0.1284
vn 0.9995 0.0303 -0.0088
vn -0.2641 -0.0056 -0.9645
vn -0.0295 0.2817 -0.9590
vn 0.0062 0.2622 -0.9650
vn 0.1557 0.5594 -0.8142
vn 0.7419 -0.3995 -0.5384
vn 0.4206 -0.0269 -0.9069
vn 0.3163 -0.1413 0.9381
vn 0.9136 0.4006 -0.0695
vn -0.6637 0.4799 -0.5737
vn -0.4944 0.8086 0.3190
vn -0.0979 0.4707 0.8768
vn -0.1123 0.3415 0.9332
vn -0.3354 0.0767 0.9390
vn -0.6891 -0.2944 0.6622
vn -0.7622 -0.4664 -0.4490
vn -0.9353 -0.3302 0.1269
vn -1.0000 -0.0004 -0.0010
vn -0.6753 0.1692 -0.7179
vn -0.1174 0.9283 -0.3527
vn 0.5384 0.7877 -0.2995
vn 1.0000 -0.0001 -0.0028
vn 0.2672 -0.9239 -0.2738
vn 0.7382 -0.6307 0.2393
vn -0.2236 -0.9095 0.3504
vn -0.6692 -0.7430 -0.0040
vn -0.7607 -0.6491 -0.0002
vn 0.7607 -0.6491 0.0002
vn -0.5242 0.0252 0.8512
vn -0.9993 0.0332 -0.0185
vn -0.9269 0.3752 -0.0025
vn -0.7597 0.6502 0.0074
vn -0.7701 -0.6380 -0.0002
vn 0.9768 -0.2140 0.0001
vn -0.8773 -0.4799 -0.0002
vn 0.9989 0.0362 0.0292
vn 0.9204 0.3909 0.0104
vn 0.7257 0.6880 -0.0025
vn 0.2922 0.0158 -0.9562
vn -0.7677 -0.6408 -0.0002
vn 0.9995 0.0292 0.0137
vn 0.9232 0.3844 0.0018
vn 0.7273 0.6863 -0.0076
vn 0.7244 -0.6887 0.0322
vn 0.7064 -0.0000 0.7078
vn -0.7064 -0.0000 0.7078
vn 0.7081 -0.0006 0.7061
vn -0.7081 0.0006 0.7061
vn 0.7081 0.0006 -0.7061
vn 0.0002 1.0000 -0.0000
vn -0.0002 1.0000 -0.0000
vn 0.0002 -1.0000 -0.0000
vn -0.0002 -1.0000 -0.0000
vn -0.7081 -0.0006 -0.7061
vn -0.7064 -0.0000 -0.7078
vn 0.7064 -0.0000 -0.7078
vn -0.5418 0.0687 0.8377
vn 0.5418 0.0687 -0.8377
vn -0.5347 -0.0688 -0.8422
vn 0.5347 -0.0688 0.8422
vn -0.4976 -0.0316 0.8668
vn 0.4976 -0.0316 -0.8668
vn -0.5731 0.0303 -0.8189
vn 0.5731 0.0298 0.8190
vn -0.5487 0.8349 -0.0434
vn 0.5488 0.8348 0.0434
vn 0.5488 -0.8349 -0.0433
vn -0.5487 -0.8349 0.0433
vn -0.5179 -0.6602 -0.5440
vn -0.5889 0.7511 -0.2985
vn 0.4627 0.8139 -0.3514
vn -0.5592 -0.1331 0.8183
vn 0.6177 -0.5930 -0.5165
vn 0.5716 -0.0048 0.8205
vn -0.0415 0.8348 0.5490
vn 0.0415 0.8348 -0.5490
vn -0.5490 -0.8348 0.0415
vn 0.5490 -0.8348 -0.0415
vn 0.6177 -0.5931 -0.5165
vn 0.0484 0.8453 -0.5320
vn 0.6987 -0.5148 -0.4969
vn -0.7158 -0.5311 -0.4534
vn -0.0341 0.8361 0.5475
vn 0.0415 -0.6044 0.7956
vn -0.5487 0.8349 -0.0433
vn 0.5487 -0.8349 -0.0433
vn 0.5487 0.8349 0.0433
vn -0.5703 -0.0022 -0.8214
vn 0.5704 -0.0021 0.8214
vn -0.5702 0.0021 0.8215
vn 0.5703 0.0021 -0.8215
vn -0.6166 0.0008 0.7873
vn 0.6166 0.0008 -0.7873
vn -0.6166 -0.0009 -0.7873
vn 0.6166 -0.0009 0.7873
vn 0.7021 0.7119 0.0123
vn -0.7021 0.7120 -0.0123
vn -0.7021 -0.7120 0.0123
vn 0.7021 -0.7120 -0.0123
vn 0.7021 0.7120 0.0123
vn 0.6166 -0.0008 0.7873
vn 0.6166 0.0009 -0.7873
vn -0.7020 0.7120 -0.0123
vn 0.7020 0.7121 0.0123
vn 0.7020 -0.7120 -0.0123
vn -0.7020 -0.7121 0.0123
vn -0.7021 0.7119 -0.0123
vn 0.7022 -0.7119 -0.0123
vn 0.7019 0.7121 0.0123
vn -0.6165 0.0008 0.7873
vn 0.6165 0.0009 -0.7873
vn -0.7019 0.7122 -0.0123
vn 0.7020 0.7120 0.0123
vn 0.7018 -0.7122 -0.0123
vn -0.7020 -0.7120 0.0123
vn 0.7018 0.7123 0.0123
vn -0.7019 -0.7122 0.0123
vn 0.7022 -0.7118 -0.0123
vn 0.5826 0.5752 -0.5742
vn 0.5826 -0.5752 0.5742
vn 0.5720 -0.5793 -0.5807
vn -0.5720 -0.5793 0.5807
vn 0.5720 0.5793 0.5807
vn -0.5720 0.5793 -0.5807
vn -0.5826 0.5752 0.5742
vn -0.5826 -0.5752 -0.5742
vn 0.5769 0.5775 0.5776
vn -0.5777 0.5773 0.5771
vn -0.5769 -0.5775 0.5776
vn -0.5777 -0.5773 -0.5771
vn -0.5769 0.5775 -0.5776
vn 0.5777 -0.5773 0.5771
vn 0.5769 -0.5775 -0.5776
vn 0.5777 0.5773 -0.5771
vn 0.2248 0.9110 -0.3457
vn 0.8398 0.5073 -0.1932
vn 1.0000 -0.0034 0.0004
vn -0.2248 0.9110 0.3457
vn -0.0000 0.9351 0.3544
vn -0.0000 0.9351 0.3545
vn -0.8398 0.5073 0.1932
vn -1.0000 -0.0034 -0.0004
vn -0.0000 0.9351 -0.3545
vn -0.0000 0.9351 -0.3544
vn -0.5286 -0.7944 0.2991
vn -0.5654 0.0885 -0.8200
vn 0.5694 0.0510 -0.8205
vn 0.5286 -0.7734 0.3499
vn -0.5693 0.6165 0.5438
vn 0.5653 0.6427 0.5170
vn -0.5634 0.0893 -0.8213
vn -0.5305 -0.7931 0.2994
vn -0.5698 0.6166 0.5433
vn 0.5634 0.6441 0.5174
vn 0.5699 0.0514 -0.8201
vn 0.5305 -0.7726 0.3487
vn -0.3765 0.5030 0.7780
vn -0.5433 -0.7686 0.3377
vn -0.6601 0.6381 -0.3964
vn 0.2168 0.9372 -0.2732
vn -0.8576 -0.2704 0.4375
vn -0.8778 0.1696 0.4481
vn -0.6954 0.6734 -0.2507
vn 0.0413 0.9352 -0.3518
vn -0.3483 0.5299 -0.7732
vn 0.0191 -0.9380 0.3461
vn 0.0170 0.2958 -0.9551
vn -0.0103 -0.9355 -0.3533
vn 0.7820 -0.5833 -0.2196
vn 0.9680 -0.2334 -0.0919
vn 0.8214 -0.5377 0.1902
vn 0.0992 0.1936 0.9760
vn 0.8346 0.5102 -0.2079
vn -0.1874 0.3050 0.9337
vn 0.8119 -0.2980 0.5019
vn -0.3026 0.5546 0.7752
vn -0.5380 -0.7789 0.3223
vn -0.9165 0.3706 0.1504
vn 0.0095 0.3575 -0.9339
vn -0.9018 0.0596 -0.4280
vn 0.2196 -0.9113 -0.3483
vn -0.8575 -0.2704 0.4376
vn 0.7748 -0.5909 -0.2249
vn 0.9235 -0.3599 0.1326
vn -0.1835 0.4073 0.8947
vn 0.9213 0.3634 -0.1382
vn 0.9241 0.3572 -0.1357
vn 0.6236 0.3527 -0.6976
vn 0.5272 -0.5979 -0.6038
vn -0.8777 0.1696 0.4481
vn -0.7223 0.6465 -0.2457
vn 0.6937 0.6374 -0.3356
vn -0.5829 0.5740 0.5750
vn -0.5829 -0.5740 -0.5750
vn -0.5715 -0.5806 0.5799
vn 0.5715 -0.5806 -0.5799
vn -0.5715 0.5806 -0.5799
vn 0.5715 0.5806 0.5799
vn 0.5829 -0.5740 0.5750
vn 0.5829 0.5740 -0.5750
vn -0.0222 0.7270 0.6862
vn -0.0223 -0.7270 -0.6862
vn 0.0224 -0.7272 0.6861
vn 0.0223 0.7272 -0.6861
vn -0.0000 -0.0000 -0.0000
vn -0.5741 0.8179 -0.0381
vn 0.5742 -0.8178 -0.0381
vn -0.5741 -0.8179 0.0381
vn 0.5742 0.8178 0.0381
vn -0.5806 0.5764 0.5750
vn -0.5806 -0.5764 -0.5750
vn -0.5740 -0.5784 0.5797
vn 0.5740 -0.5784 -0.5797
vn -0.5740 0.5784 -0.5797
vn 0.5740 0.5783 0.5797
vn 0.5806 -0.5764 0.5750
vn 0.5806 0.5764 -0.5750
vn -0.0006 0.7523 0.6588
vn -0.0006 -0.7523 -0.6588
vn 0.0006 -0.7523 0.6588
vn 0.0006 0.7523 -0.6588
vn 0.5816 0.0206 0.8132
vn -0.5816 0.0206 -0.8132
vn -0.5815 -0.0206 0.8133
vn 0.5815 -0.0206 -0.8133
vn 0.5740 0.5784 0.5797
vn -0.5740 0.5783 -0.5797
vn -0.0006 0.7522 0.6589
vn -0.0006 -0.7522 -0.6589
vn 0.0005 -0.7523 0.6588
vn 0.5816 -0.0206 -0.8133
vn -1.0000 -0.0015 0.0002
vn -1.0000 0.0015 -0.0002
vn -1.0000 -0.0017 0.0002
vn 0.0031 -0.7045 0.7097
vn -0.0061 -0.7119 -0.7023
vn -0.0031 -0.7045 -0.7097
vn -1.0000 0.0017 -0.0002
vn 0.0031 0.7045 -0.7097
vn -0.0031 0.7045 0.7097
vn 0.0061 -0.7119 0.7023
vn 0.0061 0.7119 -0.7023
vn -0.0061 0.7119 0.7023
vn 1.0000 -0.0015 -0.0002
vn 1.0000 0.0017 0.0002
vn 1.0000 0.0015 0.0002
vn 1.0000 -0.0017 -0.0002
vn -0.0004 0.0077 1.0000
vn -0.0011 0.0178 0.9998
vn -0.0004 0.0113 0.9999
vn 0.5609 0.5755 -0.5952
vn 0.6949 0.7191 0.0028
vn 0.7179 -0.0076 -0.6961
vn -0.6990 0.7151 0.0028
vn -0.5479 0.5691 -0.6131
vn -0.7313 -0.0239 -0.6816
vn -0.0000 -1.0000 0.0070
vn -0.0001 -1.0000 0.0074
vn -0.0000 -1.0000 0.0069
vn 0.0002 0.0050 -1.0000
vn 0.0005 0.0071 -1.0000
vn -0.0001 0.0043 -1.0000
vn -0.0000 -1.0000 -0.0000
vn -0.7025 0.7116 -0.0023
vn -0.6994 0.7148 -0.0039
vn -0.9998 0.0212 0.0001
vn -0.9998 0.0177 -0.0014
vn 0.7026 0.7116 0.0022
vn -0.0097 1.0000 -0.0011
vn -0.0002 0.0068 1.0000
vn -0.0003 0.0071 1.0000
vn 0.0003 0.0043 1.0000
vn 0.6998 0.7143 0.0030
vn 0.9998 0.0206 0.0013
vn 0.0011 -1.0000 0.0011
vn -0.0000 0.0054 -1.0000
vn 0.0001 0.0056 -1.0000
vn -0.7044 0.7098 -0.0019
vn -0.7031 0.7110 -0.0028
vn -0.9999 0.0126 -0.0004
vn 0.7044 0.7098 0.0024
vn 0.9999 0.0112 -0.0000
vn -0.9999 0.0112 -0.0003
vn 0.7030 0.7111 0.0034
vn 0.0001 0.0041 -1.0000
vn 0.0003 0.0046 -1.0000
vn 0.0002 0.0044 -1.0000
vn 0.7083 0.7059 0.0041
vn 0.9999 0.0096 0.0044
vn 1.0000 0.0076 -0.0000
vn -0.0099 0.9999 -0.0039
vn 0.0002 -1.0000 0.0039
vn -0.0001 0.0047 1.0000
vn -0.0004 0.0056 1.0000
vn 0.0004 0.0033 1.0000
vn -0.0004 0.9999 -0.0107
vn -0.0006 0.9999 -0.0116
vn 0.0003 0.0024 1.0000
vn 0.0009 0.0013 1.0000
vn -0.0000 0.0031 1.0000
vn 0.0012 0.0006 1.0000
vn 0.6957 0.7183 0.0076
vn -0.7074 0.7068 -0.0047
vn -0.0009 1.0000 0.0060
vn -0.0011 1.0000 0.0051
vn -0.0002 0.0029 1.0000
vn -0.0007 0.0037 1.0000
vn -0.0004 0.0033 1.0000
vn -1.0000 0.0054 0.0003
vn -0.7074 0.7068 -0.0067
vn -0.0093 -0.9922 -0.1244
vn 1.0000 0.0025 0.0067
vn -0.0003 0.0018 -1.0000
vn -0.0008 0.0008 -1.0000
vn -0.0005 0.0013 -1.0000
vn -0.0010 0.0009 -1.0000
vn 1.0000 0.0027 0.0016
vn -0.7064 0.7079 -0.0023
vn -0.7078 0.7064 -0.0045
vn -1.0000 0.0043 -0.0006
vn -1.0000 0.0040 0.0005
vn 0.0010 0.9999 0.0156
vn 0.0004 0.9999 0.0129
vn -0.0001 0.0026 1.0000
vn -0.0004 0.0030 1.0000
vn -0.0002 0.0028 1.0000
vn 0.0008 0.9941 -0.1080
vn -0.0022 -0.9997 0.0239
vn -0.0000 -0.9999 0.0138
vn -0.0003 -0.9999 0.0154
vn -0.5759 0.5800 0.5761
vn -0.7093 0.7049 -0.0028
vn -0.7008 0.0023 0.7134
vn -0.0025 -0.9997 0.0255
vn 0.0001 0.0022 -1.0000
vn 0.0003 0.0024 -1.0000
vn 0.0002 0.0022 -1.0000
vn 0.7086 0.7056 0.0068
vn 0.9999 0.0029 0.0144
vn 1.0000 0.0032 0.0076
vn -0.0000 -0.0001 1.0000
vn 0.0002 -0.0004 1.0000
vn 0.7055 0.7087 0.0068
vn -0.6168 -0.6056 -0.5028
vn -0.8837 0.2320 0.4065
vn -0.8590 -0.2654 0.4379
vn 0.3923 -0.6627 -0.6379
vn 0.9818 -0.0203 -0.1889
vn 0.8889 0.4541 0.0610
vn 0.0872 -0.2792 0.9563
vn -0.9787 0.0074 0.2051
vn -0.4425 0.5909 0.6746
vn -0.6169 -0.6056 -0.5027
vn -0.8834 0.2324 0.4070
vn -0.8821 0.2404 0.4051
vn 0.7396 -0.6729 -0.0160
vn -0.7067 -0.7012 -0.0938
vn 0.7586 -0.6515 0.0007
vn -0.7673 -0.6409 -0.0221
vn 0.7647 -0.6442 0.0134
vn -0.7651 -0.6436 0.0205
vn 0.8093 0.2435 0.5346
vn -0.0000 -0.4222 -0.9065
vn -0.7679 -0.6406 -0.0016
vn -0.7645 -0.6446 -0.0071
vn 0.7166 -0.6972 -0.0194
vn 0.3142 -0.0210 -0.9491
vn 0.9668 -0.0054 0.2555
vn -0.5726 -0.1024 -0.8134
vn 0.5779 0.5838 -0.5702
vn -0.5161 -0.7996 -0.3071
vn -0.9980 -0.0604 -0.0206
vn 0.9994 0.0302 0.0139
vn 0.5148 0.2208 -0.8284
vn -0.7435 0.5521 -0.3774
vn 0.6440 0.5159 -0.5649
vn -0.7941 -0.5675 -0.2176
vn -0.9250 0.3519 0.1435
vn 0.6938 0.6712 0.2608
vn 0.3006 0.8874 0.3495
vn 0.5099 0.8010 0.3136
vn 0.9777 -0.1956 -0.0766
vn 0.9151 -0.3464 -0.2062
vn 0.2511 0.6503 0.7170
vn -0.7435 0.5522 -0.3772
vn 0.4411 0.0421 -0.8965
vn 0.9985 -0.0515 0.0164
vn -0.9995 0.0306 0.0082
vn 0.9992 0.0411 0.0012
vn 0.9998 0.0177 -0.0001
vn -0.9997 0.0227 0.0030
vn -0.9998 0.0177 -0.0030
vn 0.9997 0.0225 -0.0002
vn -0.7188 -0.6952 -0.0000
vn 0.5462 -0.8377 -0.0000
vn -0.9999 0.0133 0.0004
vn -0.9999 0.0112 -0.0005
vn -0.7589 -0.6512 -0.0000
vn 0.7589 -0.6512 -0.0000
vn -0.8343 -0.0163 -0.5511
vn 0.9994 0.0147 0.0313
vn -0.9971 -0.0667 -0.0367
vn 0.7729 -0.6341 -0.0218
vn -1.0000 0.0054 0.0006
vn 0.9998 0.0113 0.0169
vn -0.7701 -0.6379 0.0100
vn 0.9573 -0.0048 0.2890
vn -1.0000 0.0045 -0.0008
vn -1.0000 0.0040 0.0010
vn 1.0000 0.0045 0.0005
vn -0.7657 -0.6433 -0.0000
vn 1.0000 0.0032 0.0002
vn -1.0000 0.0035 0.0075
vn 0.7155 -0.6985 -0.0113
vn -0.9789 -0.1908 -0.0726
vn -0.6144 0.5066 0.6048
vn 0.9630 -0.2694 0.0069
vn 0.5144 0.3036 0.8020
vn 0.8961 0.4149 0.1576
vn 0.6060 -0.5414 -0.5828
vn 0.4550 -0.0334 -0.8899
vn -0.0081 0.0073 0.9999
vn -0.0025 0.0071 1.0000
vn 0.0007 0.0010 1.0000
vn 0.0049 0.0048 -1.0000
vn 0.0016 0.0047 -1.0000
vn -0.0008 0.0012 -1.0000
vn -0.0001 0.0059 1.0000
vn 0.0011 0.0009 1.0000
vn -0.0000 -0.5352 0.8447
vn 0.0003 0.9861 -0.1660
vn 0.0111 -0.6768 -0.7361
vn -0.0000 0.0045 1.0000
vn 0.0010 0.0015 1.0000
vn -0.7677 -0.6401 0.0296
vn -0.0000 -0.4349 0.9005
vn -0.0000 0.0039 -1.0000
vn -0.0000 0.9989 -0.0462
vn 0.0094 -0.5295 -0.8483
vn -0.0000 0.0025 1.0000
vn -0.0000 0.3656 0.9308
vn 0.8728 0.0020 -0.4881
vn -0.0000 0.0022 -1.0000
vn -0.5899 -0.7073 -0.3896
vn -0.0000 0.0024 -1.0000
vn -0.0000 0.0244 0.9997
vn -0.0000 0.0024 1.0000
vn -0.0000 0.3157 0.9489
vn -0.0059 -0.2733 0.9619
vn 0.0004 -0.9709 -0.2394
vn -0.0000 0.0020 -1.0000
vt 0.015085 0.787066
vt 0.015085 0.893926
vt 0.004319 0.893937
vt 0.004319 0.787076
vt 0.449019 0.790053
vt 0.449365 0.790349
vt 0.448867 0.790159
vt 0.678259 0.555849
vt 0.677756 0.556037
vt 0.678093 0.555733
vt 0.994285 0.370499
vt 0.994467 0.370256
vt 0.994609 0.370931
vt 0.707387 0.721408
vt 0.707733 0.721703
vt 0.707235 0.721513
vt 0.584448 0.896274
vt 0.584133 0.896314
vt 0.584194 0.889116
vt 0.371129 0.940929
vt 0.371506 0.940930
vt 0.371387 0.947841
vt 0.584468 0.903800
vt 0.584133 0.903840
vt 0.584431 0.901730
vt 0.371100 0.933335
vt 0.371481 0.933335
vt 0.371435 0.933616
vt 0.584479 0.911493
vt 0.584471 0.911117
vt 0.584478 0.911326
vt 0.371438 0.925956
vt 0.371448 0.925578
vt 0.371447 0.925741
vt 0.600367 0.927848
vt 0.600210 0.927532
vt 0.600232 0.927514
vt 0.743106 0.848176
vt 0.743106 0.848263
vt 0.742756 0.848146
vt 0.391408 0.875028
vt 0.391408 0.874953
vt 0.391409 0.874883
vt 0.474108 0.902476
vt 0.473863 0.902476
vt 0.473971 0.902492
vt 0.466492 0.902474
vt 0.458876 0.902608
vt 0.466377 0.902502
vt 0.204119 0.763792
vt 0.204119 0.763584
vt 0.204119 0.763692
vt 0.679098 0.555766
vt 0.678088 0.555563
vt 0.763731 0.913852
vt 0.763637 0.933847
vt 0.763637 0.913703
vt 0.652111 0.229626
vt 0.652111 0.222088
vt 0.652460 0.229484
vt 0.640207 0.460316
vt 0.640410 0.459287
vt 0.641433 0.461287
vt 0.678348 0.555209
vt 0.706990 0.477450
vt 0.708001 0.478090
vt 0.676805 0.556020
vt 0.450224 0.790395
vt 0.450155 0.790665
vt 0.640660 0.224205
vt 0.642474 0.225325
vt 0.642377 0.225548
vt 0.418972 0.868298
vt 0.707632 0.633415
vt 0.628115 0.223839
vt 0.628319 0.222811
vt 0.629640 0.224882
vt 0.994322 0.421176
vt 0.994074 0.422575
vt 0.994067 0.421241
vt 0.702445 0.866829
vt 0.701608 0.866669
vt 0.702517 0.866552
vt 0.180444 0.964127
vt 0.180953 0.962667
vt 0.180775 0.964186
vt 0.877832 0.928472
vt 0.878230 0.929865
vt 0.877832 0.930370
vt 0.708592 0.721749
vt 0.708523 0.722019
vt 0.628960 0.461360
vt 0.631054 0.461223
vt 0.631086 0.461465
vt 0.677340 0.799652
vt 0.948817 0.789828
vt 0.948580 0.706876
vt 0.948945 0.706926
vt 0.950359 0.706613
vt 0.949831 0.789828
vt 0.949823 0.706431
vt 0.951371 0.789922
vt 0.951283 0.706938
vt 0.951677 0.706891
vt 0.371468 0.940650
vt 0.371473 0.933124
vt 0.584134 0.911366
vt 0.584468 0.904013
vt 0.535615 0.968094
vt 0.535223 0.983861
vt 0.535474 0.967816
vt 0.542910 0.967857
vt 0.371066 0.925741
vt 0.371414 0.918489
vt 0.584133 0.918863
vt 0.584482 0.918691
vt 0.481564 0.902848
vt 0.481435 0.902477
vt 0.562956 0.957565
vt 0.555621 0.957855
vt 0.555607 0.957502
vt 0.983743 0.280871
vt 0.983674 0.304936
vt 0.983674 0.280754
vt 0.473969 0.902857
vt 0.065361 0.952082
vt 0.058019 0.952264
vt 0.058028 0.951913
vt 0.203784 0.763695
vt 0.204122 0.756101
vt 0.563684 0.711212
vt 0.535268 0.808208
vt 0.535418 0.711209
vt 0.563665 0.808252
vt 0.801653 0.004599
vt 0.801617 0.702935
vt 0.773219 0.702927
vt 0.101792 0.709256
vt 0.004420 0.709297
vt 0.004386 0.004571
vt 0.110564 0.004571
vt 0.207973 0.709240
vt 0.110598 0.709281
vt 0.764538 0.004351
vt 0.736296 0.708902
vt 0.736305 0.004376
vt 0.764528 0.708877
vt 0.101758 0.004530
vt 0.801617 0.712013
vt 0.773486 0.806451
vt 0.773218 0.711962
vt 0.207939 0.004531
vt 0.801491 0.806484
vt 0.773204 0.004636
vt 0.818281 0.695656
vt 0.810592 0.004363
vt 0.818277 0.004466
vt 0.810578 0.695656
vt 0.827076 0.004363
vt 0.834762 0.004466
vt 0.834778 0.695762
vt 0.827076 0.695785
vt 0.846121 0.703904
vt 0.843876 0.004334
vt 0.846188 0.004537
vt 0.854937 0.004334
vt 0.857203 0.703885
vt 0.854939 0.704055
vt 0.857248 0.004536
vt 0.843855 0.704072
vt 0.201871 0.896226
vt 0.204606 0.896314
vt 0.204606 0.964895
vt 0.201799 0.964897
vt 0.971297 0.798849
vt 0.974084 0.798939
vt 0.974154 0.867612
vt 0.971286 0.867612
vt 0.633318 0.971558
vt 0.631829 0.971361
vt 0.632199 0.890093
vt 0.522512 0.991302
vt 0.523395 0.989767
vt 0.524446 0.991311
vt 0.633405 0.889897
vt 0.972120 0.786031
vt 0.971648 0.784356
vt 0.973643 0.784659
vt 0.111722 0.972440
vt 0.110497 0.888892
vt 0.111822 0.888892
vt 0.961307 0.375554
vt 0.962933 0.459144
vt 0.961184 0.459031
vt 0.962775 0.375401
vt 0.110497 0.972437
vt 0.972407 0.891617
vt 0.975081 0.891617
vt 0.973712 0.959807
vt 0.973583 0.236997
vt 0.974927 0.305711
vt 0.972060 0.305711
vt 0.189995 0.896216
vt 0.192823 0.896231
vt 0.191287 0.964897
vt 0.046260 0.897236
vt 0.047511 0.965858
vt 0.044704 0.965859
vt 0.856329 0.796592
vt 0.855105 0.713045
vt 0.856430 0.713043
vt 0.855105 0.796590
vt 0.133165 0.970336
vt 0.132046 0.888871
vt 0.133252 0.888675
vt 0.131675 0.970139
vt 0.730742 0.991235
vt 0.730269 0.989560
vt 0.732265 0.989863
vt 0.961307 0.190088
vt 0.962775 0.189935
vt 0.962933 0.273678
vt 0.898940 0.991523
vt 0.899711 0.989952
vt 0.900940 0.991560
vt 0.961184 0.273565
vt 0.170555 0.897242
vt 0.171806 0.965863
vt 0.168999 0.965865
vt 0.972674 0.555299
vt 0.975347 0.555299
vt 0.975412 0.623465
vt 0.960515 0.891809
vt 0.963344 0.960492
vt 0.960478 0.960488
vt 0.963343 0.891824
vt 0.972738 0.623508
vt 0.555298 0.986585
vt 0.558071 0.986674
vt 0.556749 0.989601
vt 0.281409 0.952401
vt 0.280185 0.952398
vt 0.280185 0.868853
vt 0.869670 0.992304
vt 0.870619 0.990798
vt 0.871670 0.992342
vt 0.961307 0.097355
vt 0.962775 0.097202
vt 0.962933 0.180945
vt 0.961184 0.180832
vt 0.281510 0.868852
vt 0.610535 0.970552
vt 0.609046 0.970355
vt 0.609416 0.889087
vt 0.610622 0.888892
vt 0.961153 0.991814
vt 0.960681 0.990138
vt 0.962676 0.990442
vt 0.971495 0.706074
vt 0.974230 0.774743
vt 0.971423 0.774744
vt 0.974230 0.706161
vt 0.972070 0.081932
vt 0.974927 0.150695
vt 0.972060 0.150695
vt 0.974857 0.082022
vt 0.856329 0.889387
vt 0.855105 0.805840
vt 0.856430 0.805838
vt 0.855105 0.889385
vt 0.961307 0.004623
vt 0.962775 0.004469
vt 0.962933 0.088212
vt 0.643899 0.971558
vt 0.642409 0.971361
vt 0.642780 0.890093
vt 0.643986 0.889897
vt 0.972363 0.991814
vt 0.971891 0.990138
vt 0.973886 0.990442
vt 0.961184 0.088099
vt 0.858610 0.992304
vt 0.859381 0.990734
vt 0.860610 0.992342
vt 0.004530 0.902777
vt 0.007265 0.971446
vt 0.004458 0.971447
vt 0.007265 0.902864
vt 0.972070 0.159440
vt 0.974927 0.228203
vt 0.972060 0.228203
vt 0.974857 0.159530
vt 0.122311 0.972440
vt 0.121086 0.972437
vt 0.121086 0.888892
vt 0.122411 0.888892
vt 0.216924 0.992788
vt 0.217696 0.991213
vt 0.218925 0.992822
vt 0.961307 0.282821
vt 0.962775 0.282668
vt 0.962933 0.366411
vt 0.961184 0.366298
vt 0.719531 0.991235
vt 0.719059 0.989560
vt 0.721054 0.989863
vt 0.622738 0.971558
vt 0.621619 0.890093
vt 0.622825 0.889897
vt 0.621249 0.971361
vt 0.317478 0.004581
vt 0.409496 0.654988
vt 0.317509 0.655036
vt 0.308743 0.655002
vt 0.216758 0.655050
vt 0.216726 0.004579
vt 0.308711 0.004532
vt 0.409464 0.004534
vt 0.271479 0.914412
vt 0.255596 0.868758
vt 0.271460 0.868723
vt 0.255614 0.914447
vt 0.216746 0.872563
vt 0.232629 0.918214
vt 0.216764 0.918250
vt 0.232611 0.872528
vt 0.718858 0.969010
vt 0.729365 0.969014
vt 0.729364 0.980068
vt 0.718857 0.980064
vt 0.189955 0.974002
vt 0.200158 0.985046
vt 0.189954 0.985058
vt 0.200164 0.973991
vt 0.004477 0.980552
vt 0.014681 0.991596
vt 0.004476 0.991608
vt 0.014686 0.980540
vt 0.858525 0.970670
vt 0.869031 0.981727
vt 0.858524 0.981723
vt 0.869031 0.970673
vt 0.789137 0.914486
vt 0.773273 0.914522
vt 0.773255 0.868833
vt 0.789119 0.868798
vt 0.317498 0.875112
vt 0.333380 0.920763
vt 0.317516 0.920799
vt 0.333362 0.875076
vt 0.169019 0.974969
vt 0.179228 0.974958
vt 0.179223 0.986013
vt 0.169018 0.986025
vt 0.584295 0.971583
vt 0.594801 0.982641
vt 0.584294 0.982637
vt 0.594801 0.971587
vt 0.399179 0.977677
vt 0.409382 0.988721
vt 0.399177 0.988732
vt 0.409388 0.977665
vt 0.216840 0.971148
vt 0.227346 0.982206
vt 0.216839 0.982203
vt 0.227346 0.971152
vt 0.692502 0.911905
vt 0.676620 0.866251
vt 0.692484 0.866216
vt 0.535292 0.870307
vt 0.551157 0.870272
vt 0.551175 0.915959
vt 0.676638 0.911940
vt 0.535310 0.915994
vt 0.431041 0.975239
vt 0.441250 0.975227
vt 0.441244 0.986283
vt 0.431039 0.986295
vt 0.317592 0.973364
vt 0.328098 0.984422
vt 0.317591 0.984418
vt 0.328098 0.973368
vt 0.960480 0.969589
vt 0.970986 0.969593
vt 0.970986 0.980647
vt 0.960479 0.980643
vt 0.676710 0.978133
vt 0.686912 0.989176
vt 0.676708 0.989188
vt 0.686918 0.978121
vt 0.100639 0.718234
vt 0.096569 0.873851
vt 0.096881 0.718212
vt 0.418200 0.004565
vt 0.575084 0.231921
vt 0.418204 0.231934
vt 0.100557 0.873862
vt 0.721829 0.477287
vt 0.717774 0.704206
vt 0.717742 0.477288
vt 0.866133 0.883803
vt 0.866102 0.663357
vt 0.870189 0.663365
vt 0.418199 0.241036
vt 0.575081 0.240995
vt 0.575023 0.468371
vt 0.721761 0.704231
vt 0.418209 0.468401
vt 0.153350 0.787857
vt 0.153350 0.944583
vt 0.149620 0.944586
vt 0.870120 0.883836
vt 0.149620 0.787860
vt 0.575009 0.004539
vt 0.667913 0.477255
vt 0.667893 0.685212
vt 0.584151 0.685245
vt 0.667166 0.694149
vt 0.584132 0.837291
vt 0.584132 0.694229
vt 0.667166 0.837211
vt 0.584044 0.004567
vt 0.727503 0.212913
vt 0.584091 0.212957
vt 0.584132 0.477335
vt 0.584046 0.241041
vt 0.727502 0.449390
vt 0.584095 0.449435
vt 0.727455 0.240996
vt 0.727455 0.004524
vt 0.300442 0.664021
vt 0.300447 0.806251
vt 0.216698 0.806311
vt 0.216694 0.664093
vt 0.317446 0.865875
vt 0.401221 0.663952
vt 0.401199 0.865995
vt 0.317429 0.663885
vt 0.458865 0.711212
vt 0.488588 0.789012
vt 0.458862 0.866256
vt 0.418185 0.702279
vt 0.418186 0.477802
vt 0.496943 0.477495
vt 0.496901 0.702127
vt 0.497288 0.711210
vt 0.526586 0.789016
vt 0.497288 0.866878
vt 0.575494 0.477749
vt 0.575491 0.702225
vt 0.899576 0.712413
vt 0.901511 0.712412
vt 0.901379 0.936950
vt 0.899445 0.936950
vt 0.708753 0.222873
vt 0.707584 0.224808
vt 0.706140 0.222691
vt 0.076023 0.942775
vt 0.074039 0.942623
vt 0.074039 0.718452
vt 0.065120 0.943133
vt 0.063337 0.943179
vt 0.063207 0.718437
vt 0.065237 0.718283
vt 0.075757 0.718284
vt 0.676120 0.459560
vt 0.674929 0.461627
vt 0.673503 0.459470
vt 0.573220 0.711500
vt 0.575155 0.711499
vt 0.575024 0.936037
vt 0.087195 0.942775
vt 0.085211 0.718452
vt 0.086929 0.718284
vt 0.708792 0.459349
vt 0.707623 0.461285
vt 0.706179 0.459168
vt 0.085211 0.942623
vt 0.684976 0.223083
vt 0.683785 0.225150
vt 0.682359 0.222993
vt 0.939661 0.931417
vt 0.937748 0.706722
vt 0.939778 0.706567
vt 0.937877 0.931463
vt 0.573089 0.936037
vt 0.597259 0.459683
vt 0.595703 0.462279
vt 0.593831 0.459492
vt 0.916558 0.931173
vt 0.914183 0.931218
vt 0.913998 0.706477
vt 0.916675 0.706322
vt 0.928111 0.931066
vt 0.925477 0.930917
vt 0.925477 0.706746
vt 0.927780 0.706573
vt 0.597449 0.223418
vt 0.595871 0.226151
vt 0.594022 0.223319
vt 0.815860 0.704584
vt 0.818218 0.929121
vt 0.815685 0.929122
vt 0.818349 0.704583
vt 0.693919 0.459369
vt 0.697070 0.459941
vt 0.694871 0.461412
vt 0.418697 0.711847
vt 0.420754 0.711210
vt 0.449752 0.789457
vt 0.562036 0.948751
vt 0.560777 0.870443
vt 0.562787 0.870320
vt 0.449022 0.789914
vt 0.447984 0.790124
vt 0.640754 0.458611
vt 0.642851 0.225373
vt 0.420753 0.868803
vt 0.447808 0.789777
vt 0.643109 0.459021
vt 0.643569 0.460913
vt 0.963527 0.634001
vt 0.961585 0.633929
vt 0.962230 0.555370
vt 0.677757 0.555310
vt 0.640971 0.221975
vt 0.642504 0.221905
vt 0.676766 0.556337
vt 0.676752 0.554942
vt 0.695585 0.458286
vt 0.560259 0.948704
vt 0.643468 0.222941
vt 0.643473 0.224337
vt 0.098722 0.961003
vt 0.096922 0.961063
vt 0.096889 0.882903
vt 0.099210 0.882860
vt 0.663350 0.461582
vt 0.661342 0.460181
vt 0.663546 0.458767
vt 0.242798 0.950538
vt 0.241713 0.872471
vt 0.243633 0.872444
vt 0.694947 0.222125
vt 0.697032 0.223464
vt 0.694832 0.224936
vt 0.677058 0.643201
vt 0.679122 0.642564
vt 0.708120 0.720811
vt 0.629803 0.222263
vt 0.631478 0.224436
vt 0.799998 0.947278
vt 0.798220 0.947230
vt 0.799838 0.868927
vt 0.702922 0.866023
vt 0.703902 0.866870
vt 0.951017 0.964658
vt 0.949066 0.964583
vt 0.950088 0.886076
vt 0.707390 0.721268
vt 0.706352 0.721478
vt 0.702503 0.949960
vt 0.628275 0.458422
vt 0.630124 0.458509
vt 0.950320 0.790043
vt 0.631401 0.461071
vt 0.679121 0.800157
vt 0.706176 0.721131
vt 0.631401 0.459862
vt 0.962023 0.546359
vt 0.961190 0.468140
vt 0.963289 0.468252
vt 0.673272 0.223542
vt 0.671751 0.225413
vt 0.670481 0.223153
vt 0.672634 0.222092
vt 0.004524 0.718147
vt 0.054216 0.778303
vt 0.004493 0.778214
vt 0.358862 0.968823
vt 0.358863 0.918891
vt 0.362166 0.918915
vt 0.054179 0.718147
vt 0.972637 0.632619
vt 0.975911 0.693050
vt 0.972645 0.693139
vt 0.972066 0.391569
vt 0.975386 0.391579
vt 0.975408 0.452092
vt 0.972060 0.452102
vt 0.362079 0.968769
vt 0.110760 0.718244
vt 0.160022 0.779016
vt 0.110657 0.778950
vt 0.160039 0.718401
vt 0.975911 0.632606
vt 0.497576 0.969055
vt 0.497577 0.919318
vt 0.500793 0.919264
vt 0.500897 0.969067
vt 0.718902 0.783227
vt 0.764525 0.839344
vt 0.718890 0.839326
vt 0.764494 0.783227
vt 0.719116 0.717688
vt 0.764392 0.774395
vt 0.719109 0.774383
vt 0.764350 0.717772
vt 0.855754 0.898481
vt 0.856182 0.955075
vt 0.855321 0.955077
vt 0.666631 0.911718
vt 0.667050 0.968279
vt 0.666202 0.968331
vt 0.984264 0.446916
vt 0.985866 0.457240
vt 0.984317 0.457322
vt 0.985791 0.446833
vt 0.983727 0.369905
vt 0.985313 0.369825
vt 0.985376 0.380232
vt 0.983795 0.380310
vt 0.984114 0.610846
vt 0.985699 0.610767
vt 0.985762 0.621173
vt 0.984182 0.621251
vt 0.418233 0.977763
vt 0.419760 0.977680
vt 0.419835 0.988087
vt 0.418286 0.988169
vt 0.023809 0.787129
vt 0.054122 0.835208
vt 0.023818 0.835213
vt 0.371138 0.987509
vt 0.371112 0.957079
vt 0.374967 0.957046
vt 0.054112 0.787124
vt 0.773293 0.923461
vt 0.777021 0.971798
vt 0.773266 0.971797
vt 0.418295 0.920422
vt 0.422156 0.920429
vt 0.422132 0.968759
vt 0.458935 0.985072
vt 0.462764 0.954609
vt 0.462791 0.985039
vt 0.418274 0.968752
vt 0.374994 0.987476
vt 0.676641 0.808860
vt 0.706683 0.857320
vt 0.676651 0.857315
vt 0.706672 0.808866
vt 0.777039 0.923461
vt 0.458908 0.954642
vt 0.023776 0.844016
vt 0.050372 0.888220
vt 0.023767 0.888161
vt 0.050381 0.844069
vt 0.773266 0.815299
vt 0.799625 0.859851
vt 0.773257 0.859786
vt 0.799698 0.815349
vt 0.307197 0.932138
vt 0.308147 0.932085
vt 0.307669 0.978404
vt 0.983688 0.170382
vt 0.984684 0.170381
vt 0.984180 0.216668
vt 0.983915 0.059802
vt 0.984864 0.059749
vt 0.984386 0.106068
vt 0.983688 0.225666
vt 0.984684 0.225665
vt 0.984180 0.271951
vt 0.983141 0.798938
vt 0.984091 0.798885
vt 0.983612 0.845204
vt 0.983798 0.891812
vt 0.984795 0.891811
vt 0.984290 0.938098
vt 0.913643 0.973084
vt 0.919818 0.940161
vt 0.919849 0.973051
vt 0.751842 0.979114
vt 0.751812 0.946225
vt 0.758017 0.946192
vt 0.758048 0.979080
vt 0.913612 0.940194
vt 0.797917 0.986695
vt 0.801745 0.956232
vt 0.801772 0.986662
vt 0.110583 0.787920
vt 0.140886 0.787915
vt 0.140896 0.835999
vt 0.255635 0.923386
vt 0.259362 0.971723
vt 0.255607 0.971723
vt 0.259380 0.923387
vt 0.797890 0.956265
vt 0.676663 0.920878
vt 0.680524 0.920885
vt 0.680501 0.969215
vt 0.110593 0.836004
vt 0.383749 0.987509
vt 0.383723 0.957079
vt 0.387578 0.957046
vt 0.676642 0.969207
vt 0.387605 0.987476
vt 0.216768 0.815171
vt 0.246810 0.863631
vt 0.216778 0.863626
vt 0.246799 0.815177
vt 0.535277 0.817107
vt 0.561872 0.861312
vt 0.535268 0.861252
vt 0.561881 0.817160
vt 0.255607 0.815224
vt 0.282039 0.815275
vt 0.281967 0.859776
vt 0.255598 0.859712
vt 0.984563 0.555494
vt 0.985042 0.601753
vt 0.984071 0.601805
vt 0.984389 0.004486
vt 0.984879 0.050778
vt 0.983892 0.050779
vt 0.984338 0.468179
vt 0.985335 0.468178
vt 0.984830 0.514464
vt 0.983905 0.314545
vt 0.984855 0.314493
vt 0.984376 0.360811
vt 0.984228 0.391565
vt 0.985224 0.391564
vt 0.984720 0.437850
vt 0.983914 0.115091
vt 0.984864 0.115039
vt 0.984386 0.161357
vt 0.023820 0.973991
vt 0.023790 0.941102
vt 0.029995 0.941069
vt 0.030026 0.973958
vt 0.933670 0.973329
vt 0.939845 0.940405
vt 0.939876 0.973296
vt 0.933639 0.940439
vt 0.181086 0.780102
vt 0.168928 0.888109
vt 0.168949 0.780087
vt 0.290893 0.923279
vt 0.290885 0.815428
vt 0.294931 0.815426
vt 0.181062 0.888123
vt 0.096458 0.970136
vt 0.100128 0.982365
vt 0.096432 0.982368
vt 0.522238 0.968528
vt 0.526209 0.980730
vt 0.522227 0.980757
vt 0.303599 0.923279
vt 0.303591 0.815424
vt 0.307637 0.815423
vt 0.526223 0.968499
vt 0.307645 0.923277
vt 0.202119 0.780086
vt 0.202096 0.887140
vt 0.189868 0.887130
vt 0.294939 0.923278
vt 0.189891 0.780078
vt 0.100114 0.970076
vt 0.902723 0.946210
vt 0.902713 0.980803
vt 0.899030 0.981097
vt 0.588105 0.888890
vt 0.588119 0.896201
vt 0.216816 0.962146
vt 0.216783 0.927309
vt 0.224138 0.927292
vt 0.375089 0.941034
vt 0.375053 0.948160
vt 0.224192 0.962084
vt 0.149652 0.986884
vt 0.153605 0.953228
vt 0.153557 0.986940
vt 0.149620 0.953224
vt 0.169064 0.718610
vt 0.203830 0.725724
vt 0.169197 0.725724
vt 0.203878 0.718468
vt 0.535272 0.958695
vt 0.535263 0.925135
vt 0.543042 0.924825
vt 0.203830 0.733318
vt 0.379057 0.933414
vt 0.379071 0.940801
vt 0.169152 0.733318
vt 0.584203 0.962552
vt 0.591501 0.927734
vt 0.591512 0.962538
vt 0.342087 0.953665
vt 0.342422 0.918741
vt 0.342425 0.918753
vt 0.350178 0.919085
vt 0.350183 0.953635
vt 0.342434 0.953955
vt 0.592139 0.896412
vt 0.592145 0.903712
vt 0.584194 0.927747
vt 0.470730 0.911495
vt 0.470729 0.911547
vt 0.470769 0.945623
vt 0.459014 0.945503
vt 0.458898 0.911812
vt 0.383035 0.925791
vt 0.382911 0.933058
vt 0.811051 0.972769
vt 0.818438 0.938050
vt 0.818387 0.972763
vt 0.596182 0.903923
vt 0.203830 0.740912
vt 0.169152 0.740912
vt 0.596184 0.911228
vt 0.418359 0.911453
vt 0.418214 0.877761
vt 0.434109 0.877441
vt 0.600235 0.911432
vt 0.204044 0.748506
vt 0.023723 0.931909
vt 0.024068 0.896987
vt 0.024070 0.896996
vt 0.434108 0.877482
vt 0.434119 0.911586
vt 0.035882 0.897328
vt 0.035891 0.931866
vt 0.024070 0.932198
vt 0.810997 0.938050
vt 0.542943 0.983482
vt 0.169053 0.748506
vt 0.882614 0.974396
vt 0.890054 0.939811
vt 0.890054 0.974396
vt 0.513525 0.875848
vt 0.497288 0.910532
vt 0.497288 0.875521
vt 0.513493 0.910392
vt 0.600329 0.918764
vt 0.882614 0.939811
vt 0.827103 0.966459
vt 0.827076 0.931714
vt 0.834516 0.931714
vt 0.362315 0.875131
vt 0.362249 0.909907
vt 0.342418 0.910095
vt 0.474093 0.882982
vt 0.481500 0.882921
vt 0.834493 0.966434
vt 0.342437 0.910103
vt 0.342087 0.874892
vt 0.562981 0.977471
vt 0.371098 0.908824
vt 0.371124 0.875265
vt 0.204120 0.748506
vt 0.204032 0.756101
vt 0.555298 0.977847
vt 0.718894 0.882222
vt 0.718747 0.848490
vt 0.065402 0.975967
vt 0.057696 0.976327
vt 0.169151 0.756101
vt 0.466475 0.878938
vt 0.473846 0.878940
vt 0.169151 0.763695
vt 0.290895 0.966698
vt 0.290878 0.931944
vt 0.298318 0.931944
vt 0.645460 0.846088
vt 0.645473 0.880961
vt 0.621566 0.881147
vt 0.621596 0.881153
vt 0.621589 0.845939
vt 0.621580 0.845945
vt 0.298300 0.966706
vt 0.203782 0.771216
vt 0.458862 0.874894
vt 0.466265 0.874895
vt 0.169151 0.771208
vt 0.584336 0.879977
vt 0.584319 0.846083
vt 0.612280 0.845929
vt 0.074060 0.951749
vt 0.081464 0.979894
vt 0.074092 0.979711
vt 0.138806 0.844901
vt 0.110730 0.879825
vt 0.110664 0.844911
vt 0.138805 0.879721
vt 0.317437 0.964370
vt 0.324870 0.929630
vt 0.324860 0.964400
vt 0.317429 0.929630
vt 0.081422 0.951709
vt 0.449306 0.789751
vt 0.994228 0.370398
vt 0.994072 0.369858
vt 0.994609 0.369641
vt 0.707674 0.721105
vt 0.600210 0.927925
vt 0.743107 0.848107
vt 0.391059 0.874913
vt 0.466375 0.902853
vt 0.679167 0.555936
vt 0.481907 0.902480
vt 0.763936 0.933842
vt 0.652111 0.221800
vt 0.640039 0.458836
vt 0.447821 0.790309
vt 0.963809 0.555562
vt 0.627948 0.222360
vt 0.994322 0.423151
vt 0.706188 0.721663
vt 0.704303 0.866915
vt 0.180444 0.962444
vt 0.878134 0.928457
vt 0.470720 0.945691
vt 0.470727 0.945743
vt 0.434109 0.911638
vt 0.434106 0.911678
vt 0.535513 0.983883
vt 0.584132 0.918853
vt 0.371066 0.917859
vt 0.342440 0.874901
vt 0.983973 0.304931
vt 0.742776 0.882374
vt 0.742759 0.882401
vt 0.621598 0.845951
vt 0.204120 0.755810
vt 0.612269 0.845953
vt 0.612294 0.880125
vt 0.612267 0.880148
vt 0.074039 0.980049
vt 0.641445 0.221800
vt 0.627930 0.458870
vt 0.899011 0.945894
vt 0.898692 0.946185
vt 0.898692 0.980762
vt 0.543023 0.959022
vt 0.543360 0.958696
vt 0.543360 0.925107
vt 0.342087 0.919044
vt 0.471068 0.945410
vt 0.024064 0.932211
vt 0.023723 0.897287
vt 0.434456 0.911356
vt 0.168861 0.748797
vt 0.342087 0.909805
vt 0.391062 0.909066
vt 0.391409 0.908964
vt 0.391408 0.909221
vt 0.621249 0.880857
vt 0.621249 0.846280
s 1
usemtl station_001_baked
f 1/1/1 2/2/1 3/3/1
f 1/1/1 3/3/1 4/4/1
f 159/5/2 155/6/2 156/7/2
f 166/8/3 167/9/3 163/10/3
f 190/11/4 191/12/4 186/13/4
f 196/14/5 193/15/5 194/16/5
f 292/17/6 294/18/6 295/19/6
f 297/20/7 299/21/7 291/22/7
f 305/23/8 307/24/9 293/25/10
f 309/26/11 311/27/11 308/28/11
f 313/29/12 315/30/13 312/31/14
f 319/32/1 321/33/15 322/34/16
f 332/35/1 334/36/17 331/37/18
f 338/38/19 340/39/19 337/40/19
f 341/41/20 343/42/20 344/43/20
f 345/44/12 347/45/12 348/46/12
f 351/47/21 353/48/21 354/49/21
f 359/50/22 361/51/22 358/52/22
f 168/53/23 163/10/23 162/54/23
f 336/55/24 344/56/24 335/57/24
f 340/58/25 343/59/25 337/60/25
f 169/61/26 159/62/27 161/63/28
f 165/64/29 170/65/30 171/66/31
f 167/9/32 178/67/32 162/54/32
f 155/6/33 177/68/34 176/69/35
f 172/70/36 157/71/37 156/72/38
f 173/73/39 156/7/40 155/6/41
f 174/74/42 167/9/43 166/8/44
f 184/75/45 196/76/46 183/77/47
f 182/78/48 191/79/48 181/80/48
f 190/81/49 183/82/47 191/83/50
f 197/84/51 188/85/51 198/86/51
f 204/87/52 187/88/52 186/89/52
f 193/15/53 203/90/54 202/91/55
f 198/92/56 195/93/57 194/94/58
f 201/95/59 194/16/60 193/15/61
f 199/96/62 202/97/63 204/98/64
f 187/99/65 205/100/65 188/101/65
f 200/102/66 197/103/67 198/104/68
f 309/26/69 298/105/69 297/20/69
f 309/26/70 319/32/70 310/106/70
f 314/107/71 306/108/71 315/30/71
f 326/109/72 332/110/72 325/111/72
f 323/112/73 326/109/74 325/111/75
f 320/113/76 331/114/76 321/33/76
f 341/115/77 313/29/77 342/116/77
f 333/117/78 345/44/78 334/118/78
f 329/119/79 336/120/80 335/121/81
f 356/122/82 339/123/82 355/124/82
f 346/125/83 351/47/83 347/45/83
f 349/126/84 356/127/85 355/128/86
f 360/129/87 338/130/87 361/51/87
f 5/131/88 6/132/89 12/133/90
f 5/131/88 7/134/91 6/132/89
f 9/135/92 5/136/88 12/137/90
f 7/138/93 5/139/93 9/140/94
f 8/141/95 12/142/96 6/143/96
f 7/144/91 8/145/97 6/146/89
f 7/144/91 10/147/98 8/145/97
f 7/138/93 9/140/94 10/148/94
f 10/149/98 11/150/99 8/151/97
f 8/141/95 11/152/95 12/142/96
f 10/149/98 9/153/92 11/150/99
f 9/135/92 12/137/90 11/154/99
f 15/155/100 13/156/101 14/157/102
f 15/155/100 16/158/103 13/156/101
f 14/159/102 13/160/101 16/161/103
f 14/159/102 16/161/103 15/162/100
f 18/163/104 20/164/105 17/165/106
f 17/166/106 19/167/107 18/168/104
f 17/166/106 20/169/105 19/167/107
f 18/163/104 19/170/107 20/164/105
f 21/171/108 22/172/109 23/173/110
f 21/171/108 23/173/110 24/174/111
f 22/175/109 21/176/108 24/177/111
f 22/175/109 24/177/111 23/178/110
f 26/179/112 25/180/113 27/181/114
f 29/182/115 25/183/113 26/184/112
f 26/179/112 27/181/114 28/185/116
f 28/186/116 27/187/114 30/188/117
f 25/189/113 30/190/117 27/191/114
f 29/192/115 28/193/116 30/194/117
f 29/192/115 26/195/112 28/193/116
f 25/189/113 29/196/115 30/190/117
f 31/197/118 32/198/119 33/199/120
f 31/200/118 33/201/120 34/202/121
f 32/203/119 31/204/118 34/205/121
f 32/206/119 34/207/121 33/208/120
f 35/209/113 39/210/117 38/211/114
f 35/209/113 40/212/115 39/210/117
f 36/213/112 38/214/114 37/215/122
f 36/213/112 35/216/113 38/214/114
f 37/217/122 38/218/114 39/219/117
f 40/220/115 36/221/112 37/222/122
f 40/223/115 35/224/113 36/225/112
f 40/220/115 37/222/122 39/226/117
f 41/227/123 45/228/124 42/229/125
f 43/230/126 41/231/123 42/232/125
f 41/233/123 44/234/127 45/235/124
f 41/233/123 43/236/126 44/234/127
f 43/230/126 42/232/125 44/237/127
f 42/238/125 45/239/124 44/240/127
f 47/241/113 46/242/115 51/243/117
f 46/244/115 47/245/113 48/246/112
f 46/247/115 48/248/112 49/249/122
f 46/247/115 49/249/122 51/250/117
f 47/241/113 51/243/117 50/251/114
f 48/252/112 47/253/113 50/254/114
f 48/252/112 50/254/114 49/255/122
f 49/256/122 50/257/114 51/258/117
f 52/259/128 53/260/129 54/261/111
f 52/259/128 55/262/130 53/260/129
f 55/263/130 54/264/111 53/265/129
f 55/263/130 52/266/128 54/264/111
f 57/267/113 61/268/117 59/269/114
f 57/267/113 56/270/115 61/268/117
f 56/271/115 58/272/112 60/273/122
f 58/274/112 57/275/113 59/276/114
f 58/274/112 59/276/114 60/277/122
f 60/278/122 59/279/114 61/280/117
f 56/271/115 60/273/122 61/281/117
f 56/282/115 57/283/113 58/284/112
f 62/285/108 65/286/110 63/287/111
f 62/285/108 64/288/109 65/286/110
f 64/289/109 63/290/111 65/291/110
f 64/289/109 62/292/108 63/290/111
f 67/293/113 66/294/115 71/295/117
f 67/293/113 71/295/117 69/296/114
f 66/297/115 67/298/113 70/299/112
f 66/300/115 70/301/112 68/302/122
f 66/300/115 68/302/122 71/303/117
f 68/304/122 69/305/114 71/306/117
f 70/307/112 69/308/114 68/309/122
f 70/307/112 67/310/113 69/308/114
f 75/311/131 73/312/132 72/313/133
f 72/314/133 73/315/132 74/316/134
f 72/314/133 74/316/134 75/317/131
f 75/311/131 74/318/134 73/312/132
f 78/319/135 76/320/136 77/321/137
f 78/319/135 79/322/138 76/320/136
f 77/323/137 79/324/138 78/325/135
f 77/323/137 76/326/136 79/324/138
f 83/327/139 80/328/140 81/329/141
f 83/327/139 81/329/141 82/330/142
f 80/331/140 82/332/142 81/333/141
f 80/331/140 83/334/139 82/332/142
f 87/335/140 84/336/142 85/337/141
f 87/335/140 86/338/143 84/336/142
f 86/339/143 85/340/141 84/341/142
f 86/339/143 87/342/140 85/340/141
f 89/343/135 88/344/144 91/345/145
f 89/343/135 91/345/145 90/346/137
f 90/347/137 88/348/144 89/349/135
f 90/347/137 91/350/145 88/348/144
f 94/351/146 92/352/147 93/353/148
f 94/351/146 93/353/148 95/354/149
f 92/355/147 95/356/149 93/357/148
f 92/355/147 94/358/146 95/356/149
f 96/359/150 99/360/151 97/361/149
f 96/359/150 98/362/152 99/360/151
f 98/363/152 97/364/149 99/365/151
f 98/363/152 96/366/150 97/364/149
f 102/367/153 101/368/154 100/369/137
f 100/370/137 101/371/154 103/372/138
f 102/367/153 103/373/138 101/368/154
f 100/370/137 103/372/138 102/374/153
f 107/375/155 104/376/156 105/377/157
f 107/375/155 105/377/157 106/378/158
f 104/379/156 106/380/158 105/381/157
f 104/379/156 107/382/155 106/380/158
f 111/383/159 108/384/150 110/385/160
f 111/383/159 110/385/160 109/386/161
f 108/387/150 109/388/161 110/389/160
f 108/387/150 111/390/159 109/388/161
f 113/391/162 112/392/163 119/393/164
f 117/394/165 119/395/164 112/396/163
f 113/391/162 114/397/166 112/392/163
f 114/398/166 117/399/165 112/400/163
f 115/401/167 113/402/162 119/403/164
f 114/404/166 113/405/162 115/406/167
f 114/398/166 116/407/168 117/399/165
f 114/404/166 115/406/167 116/408/168
f 116/409/168 115/410/167 118/411/169
f 115/401/167 119/403/164 118/412/169
f 116/409/168 118/411/169 117/413/165
f 117/394/165 118/414/169 119/395/164
f 122/415/170 120/416/171 121/417/172
f 120/418/171 125/419/173 121/420/172
f 120/418/171 127/421/174 125/419/173
f 122/422/170 127/423/174 120/424/171
f 122/415/170 121/417/172 123/425/175
f 121/426/172 124/427/176 123/428/175
f 121/426/172 125/429/173 124/427/176
f 122/422/170 126/430/177 127/423/174
f 126/431/177 122/432/170 123/433/175
f 126/431/177 123/433/175 124/434/176
f 127/435/174 124/436/176 125/437/173
f 127/435/174 126/438/177 124/436/176
f 131/439/178 130/440/179 128/441/180
f 129/442/181 128/443/182 130/444/183
f 129/442/181 130/444/183 132/445/184
f 129/446/181 132/447/184 133/448/185
f 132/445/186 130/444/179 131/449/178
f 131/449/178 133/450/187 132/445/186
f 135/451/188 134/452/189 139/453/190
f 135/451/188 139/453/190 138/454/191
f 134/455/189 135/456/188 136/457/192
f 136/458/192 135/459/188 138/460/191
f 134/461/189 136/462/192 137/463/193
f 134/461/189 137/463/193 139/464/190
f 136/458/192 138/460/191 137/465/193
f 137/466/193 138/467/191 139/468/190
f 144/469/188 140/470/189 145/471/190
f 141/472/192 143/473/191 142/474/193
f 140/475/189 144/476/188 141/477/192
f 141/472/192 144/478/188 143/473/191
f 142/479/193 143/480/191 145/481/190
f 140/482/189 142/483/193 145/484/190
f 140/482/189 141/485/192 142/483/193
f 144/469/188 145/471/190 143/486/191
f 146/487/194 147/488/195 151/489/196
f 146/490/194 151/491/196 148/492/197
f 146/490/194 148/492/197 150/493/198
f 151/494/196 147/495/195 149/496/199
f 151/494/196 149/496/199 148/497/197
f 148/498/197 149/499/199 150/500/198
f 147/501/195 150/502/198 149/503/199
f 147/501/195 146/504/194 150/502/198
f 171/505/31 152/506/200 153/507/201
f 153/508/201 152/509/200 158/510/202
f 152/511/200 160/512/203 158/513/202
f 157/514/204 159/5/204 169/515/204
f 161/63/28 159/62/27 158/516/202
f 155/517/205 156/72/205 157/71/205
f 155/6/206 176/69/207 175/518/208
f 172/519/209 156/7/40 173/73/39
f 155/6/206 175/518/208 173/73/39
f 161/63/28 158/516/202 160/520/203
f 161/63/28 160/520/203 163/521/210
f 171/522/31 153/523/201 161/524/211
f 168/53/212 164/525/213 171/66/31
f 166/8/44 165/64/214 174/74/42
f 166/526/215 178/527/215 172/70/215
f 176/528/207 167/9/43 174/74/42
f 170/65/30 164/525/216 160/529/203
f 171/505/31 170/530/30 152/506/200
f 152/511/200 170/531/30 160/512/203
f 172/70/36 178/527/217 176/532/35
f 172/70/36 176/532/35 177/533/34
f 165/534/214 172/535/209 173/536/39
f 165/534/214 173/536/39 174/537/42
f 173/538/39 175/539/208 174/540/42
f 176/541/207 174/542/42 175/543/208
f 185/544/218 179/545/219 180/546/220
f 180/547/220 179/548/219 181/549/221
f 183/77/47 181/550/222 191/551/50
f 179/552/219 185/553/218 181/554/221
f 189/555/223 191/83/223 182/556/223
f 183/77/47 196/76/46 181/550/222
f 185/557/218 180/558/220 183/559/224
f 195/560/225 196/14/225 184/561/225
f 185/562/218 183/82/224 190/81/226
f 188/101/227 197/103/67 200/102/66
f 188/563/228 202/564/55 198/92/56
f 204/98/229 187/99/230 205/100/231
f 188/101/227 200/102/66 206/565/232
f 193/566/233 194/94/233 195/93/233
f 193/15/234 202/91/63 199/567/62
f 198/568/68 194/16/60 201/95/59
f 193/15/234 199/567/62 201/95/59
f 198/92/56 202/564/55 203/569/54
f 198/570/68 201/571/59 200/572/66
f 200/573/66 201/574/59 199/575/62
f 200/573/66 199/575/62 206/576/232
f 204/98/229 205/100/231 199/96/235
f 212/577/236 207/578/237 208/579/238
f 208/580/238 207/581/237 213/582/239
f 212/577/236 210/583/240 207/578/237
f 210/584/240 213/585/239 207/586/237
f 211/587/241 212/588/236 208/589/238
f 211/587/241 208/589/238 214/590/242
f 208/580/238 213/582/239 214/591/242
f 209/592/243 214/593/242 213/594/239
f 209/592/243 211/595/241 214/593/242
f 210/584/240 209/596/243 213/585/239
f 211/597/241 209/598/243 210/599/240
f 211/597/241 210/599/240 212/600/236
f 216/601/244 218/602/245 215/603/246
f 216/601/244 217/604/247 218/602/245
f 217/605/247 215/606/246 218/607/245
f 217/605/247 216/608/244 215/606/246
f 220/609/248 221/610/248 219/611/248
f 220/612/248 219/613/248 221/614/248
f 222/615/249 223/616/250 224/617/251
f 222/615/249 225/618/252 223/616/250
f 225/619/252 222/620/249 224/621/251
f 225/619/252 224/621/251 223/622/250
f 226/623/252 228/624/249 229/625/251
f 226/623/252 229/625/251 227/626/250
f 228/627/249 226/628/252 227/629/250
f 228/627/249 227/629/250 229/630/251
f 231/631/253 230/632/254 232/633/255
f 232/634/255 230/635/254 237/636/256
f 231/631/253 235/637/257 230/632/254
f 235/638/257 237/639/256 230/640/254
f 236/641/258 231/642/253 232/643/255
f 236/644/258 235/645/257 231/646/253
f 236/641/258 232/643/255 234/647/259
f 232/634/255 237/636/256 234/648/259
f 233/649/260 234/650/259 237/651/256
f 233/649/260 236/652/258 234/650/259
f 235/638/257 233/653/260 237/639/256
f 236/644/258 233/654/260 235/645/257
f 238/655/261 239/656/262 240/657/263
f 238/655/261 241/658/264 239/656/262
f 241/659/264 240/660/263 239/661/262
f 241/659/264 238/662/261 240/660/263
f 242/663/248 244/664/248 243/665/248
f 244/666/248 242/667/248 243/668/248
f 245/669/248 247/670/248 246/671/248
f 247/672/248 245/673/248 246/674/248
f 248/675/248 250/676/248 249/677/248
f 250/678/248 248/679/248 249/680/248
f 254/681/265 252/682/266 251/683/267
f 251/684/267 252/685/266 253/686/268
f 251/684/267 253/686/268 254/687/265
f 254/681/265 253/688/268 252/682/266
f 262/689/269 255/690/270 256/691/253
f 256/692/253 255/693/270 257/694/254
f 255/695/270 261/696/256 257/697/254
f 255/695/270 260/698/260 261/696/256
f 262/689/269 260/699/260 255/690/270
f 262/700/269 256/701/253 258/702/255
f 256/692/253 257/694/254 258/703/255
f 258/704/255 257/705/254 261/706/256
f 262/700/269 258/702/255 259/707/259
f 258/704/255 261/706/256 259/708/259
f 260/709/260 259/710/259 261/711/256
f 260/709/260 262/712/269 259/710/259
f 263/713/271 266/714/272 265/715/273
f 263/713/271 264/716/264 266/714/272
f 264/717/264 263/718/271 265/719/273
f 264/717/264 265/719/273 266/720/272
f 267/721/248 269/722/248 268/723/248
f 267/724/248 268/725/248 269/726/248
f 272/727/12 270/728/12 271/729/12
f 270/730/12 272/731/12 271/732/12
f 275/733/12 274/734/12 273/735/12
f 274/736/12 275/737/12 273/738/12
f 277/739/267 276/740/266 279/741/274
f 277/739/267 279/741/274 278/742/265
f 278/743/265 276/744/266 277/745/267
f 278/743/265 279/746/274 276/744/266
f 286/747/275 280/748/276 282/749/277
f 282/750/278 280/751/279 287/752/280
f 286/747/275 285/753/281 280/748/276
f 285/754/282 287/755/280 280/756/279
f 281/757/283 282/758/278 283/759/284
f 281/760/283 284/761/285 285/762/282
f 281/757/283 286/763/286 282/758/278
f 281/760/283 285/762/282 286/764/286
f 284/765/287 281/766/288 283/767/289
f 282/750/278 287/752/280 283/768/284
f 284/765/287 283/767/289 287/769/290
f 285/754/282 284/770/285 287/755/280
f 288/771/291 289/772/292 299/773/293
f 296/774/294 288/775/295 295/19/296
f 289/776/297 288/777/295 296/778/294
f 289/779/297 290/780/298 291/22/299
f 289/776/297 296/778/294 290/781/298
f 290/782/298 295/783/296 291/784/299
f 290/782/298 296/785/294 295/783/296
f 291/786/300 294/787/301 297/788/302
f 291/786/300 295/789/301 294/787/301
f 300/790/303 302/791/304 292/792/305
f 297/788/306 294/787/306 307/793/306
f 303/794/307 300/795/308 298/105/309
f 303/794/307 298/105/309 308/28/310
f 297/788/306 307/793/306 309/796/306
f 303/797/307 302/798/311 300/799/308
f 309/800/312 306/801/312 305/802/312
f 301/803/313 303/804/314 311/805/315
f 302/806/311 301/807/316 293/25/317
f 303/797/307 301/808/316 302/798/311
f 305/809/318 306/810/318 308/811/318
f 304/812/319 317/813/320 305/809/320
f 318/814/321 304/815/322 310/106/323
f 318/816/321 317/817/324 304/818/322
f 317/819/324 315/30/13 306/108/325
f 309/796/306 307/793/306 314/820/306
f 318/814/321 310/106/323 319/32/326
f 309/796/306 314/820/306 320/821/306
f 317/819/324 316/822/327 315/30/13
f 323/823/328 327/824/329 312/825/330
f 327/826/331 342/116/332 313/29/333
f 320/821/306 314/820/306 341/827/306
f 320/828/334 313/829/334 312/830/334
f 312/825/335 313/831/335 319/832/335
f 316/833/336 318/834/337 322/835/338
f 318/816/321 316/836/327 317/817/324
f 326/109/74 323/112/73 321/837/15
f 326/109/74 321/837/15 332/110/1
f 320/821/306 341/827/306 333/838/306
f 325/839/339 327/840/331 323/841/340
f 324/842/341 333/843/342 343/844/343
f 324/842/341 325/845/344 333/843/342
f 327/826/331 324/846/345 342/116/332
f 325/839/339 324/847/345 327/840/331
f 328/848/346 329/849/347 335/850/348
f 329/851/349 328/852/350 348/853/351
f 328/854/346 334/118/17 345/44/352
f 328/854/346 330/855/353 334/118/17
f 328/848/346 335/850/348 330/856/353
f 348/853/354 345/857/354 338/858/354
f 336/120/80 329/119/79 337/859/355
f 330/860/356 335/861/357 341/41/358
f 333/838/306 343/862/306 340/863/306
f 336/120/80 337/859/355 344/864/12
f 357/865/359 355/866/359 340/39/359
f 356/127/85 361/867/360 339/868/12
f 346/869/306 338/130/306 360/129/306
f 350/870/361 357/871/362 347/45/363
f 350/870/361 347/45/363 351/47/364
f 346/869/306 360/129/306 352/872/306
f 350/873/361 349/874/365 355/875/366
f 349/876/367 350/877/368 354/878/369
f 351/879/370 359/880/370 358/881/370
f 356/127/85 349/126/84 361/867/360
f 350/873/361 355/875/366 357/882/362
f 352/872/371 360/129/372 366/883/373
f 363/884/374 362/885/375 353/48/376
f 352/872/371 366/883/373 353/886/377
f 362/887/378 365/888/379 358/889/380
f 365/890/381 366/891/382 359/892/383
f 364/893/384 353/894/376 366/895/385
f 364/893/384 363/896/374 353/894/376
f 363/897/374 365/898/381 362/899/375
f 363/897/374 364/900/386 365/898/381
f 365/890/381 364/901/386 366/891/382
f 159/5/387 154/902/387 155/6/387
f 156/7/388 157/514/388 159/5/388
f 157/514/389 158/510/389 159/5/389
f 167/9/390 162/54/390 163/10/390
f 163/10/391 164/525/391 165/64/391
f 165/64/392 166/8/392 163/10/392
f 186/13/393 187/903/393 190/11/393
f 187/903/394 188/904/394 189/905/394
f 190/11/395 187/903/395 189/905/395
f 196/14/396 192/906/396 193/15/396
f 194/16/397 195/560/397 196/14/397
f 195/560/398 181/549/398 196/14/398
f 292/17/399 293/25/399 294/18/399
f 297/20/400 298/105/400 299/21/400
f 305/23/401 306/108/401 307/24/401
f 309/26/402 310/106/402 311/27/402
f 313/29/403 314/107/403 315/30/403
f 319/32/404 320/113/404 321/33/404
f 332/35/405 333/907/405 334/36/405
f 338/38/20 339/908/20 340/39/20
f 341/41/406 342/909/406 343/42/406
f 345/44/407 346/125/407 347/45/407
f 351/47/408 352/910/408 353/48/408
f 359/50/409 360/129/409 361/51/409
f 168/53/410 161/911/28 163/10/210
f 331/912/18 334/118/17 330/855/353
f 336/55/411 341/913/411 344/56/411
f 340/58/306 344/914/306 343/59/306
f 169/61/412 154/915/412 159/62/412
f 164/525/216 163/10/413 160/529/203
f 153/508/201 169/515/414 161/916/211
f 158/510/202 157/514/415 153/508/201
f 165/64/416 164/525/216 170/65/30
f 171/522/31 161/524/211 168/917/212
f 167/9/417 176/528/417 178/67/417
f 155/6/418 154/902/418 177/68/418
f 184/75/412 192/918/412 196/76/412
f 182/78/419 186/919/419 191/79/419
f 184/561/420 183/920/224 180/547/220
f 181/549/221 195/560/421 180/547/220
f 182/556/422 181/921/423 185/562/424
f 190/81/425 189/555/425 185/562/425
f 197/84/426 189/922/426 188/85/426
f 204/87/427 202/923/427 187/88/427
f 193/15/428 192/906/428 203/90/428
f 205/100/231 206/565/429 199/96/235
f 187/99/430 206/565/430 205/100/430
f 289/779/297 291/22/299 299/21/431
f 292/17/432 295/19/296 288/775/295
f 302/806/311 293/25/317 292/17/433
f 299/21/434 298/105/309 300/795/308
f 303/794/307 308/28/310 311/27/435
f 305/23/436 293/25/317 301/807/316
f 309/26/437 308/28/437 298/105/437
f 307/24/9 294/18/438 293/25/10
f 317/819/324 306/108/325 305/23/325
f 311/924/439 310/925/323 304/812/322
f 318/814/321 319/32/326 322/34/440
f 312/31/14 315/30/13 316/822/327
f 309/26/441 320/113/441 319/32/441
f 314/107/442 307/24/442 306/108/442
f 327/826/331 313/29/333 312/31/333
f 322/926/16 321/927/15 323/823/73
f 326/109/443 333/928/443 332/110/443
f 324/846/444 343/929/444 342/116/444
f 320/113/445 332/930/445 331/114/445
f 341/115/446 314/107/446 313/29/446
f 328/852/346 345/857/352 348/853/447
f 329/851/448 338/858/448 337/931/448
f 333/117/449 346/125/449 345/44/449
f 356/122/450 340/932/450 339/123/450
f 348/933/451 347/934/363 357/865/362
f 350/877/361 351/879/364 354/878/452
f 358/881/453 361/935/360 349/876/84
f 346/125/454 352/910/454 351/47/454
f 360/129/306 339/936/306 338/130/306
f 365/888/381 359/937/383 358/889/455
f 354/938/456 353/939/376 362/887/375
f 366/891/457 360/940/457 359/892/457
f 169/515/458 153/508/458 157/514/458
f 157/71/37 172/70/36 177/533/34
f 177/533/459 155/517/459 157/71/459
f 168/53/460 163/10/460 164/525/460
f 166/526/461 167/941/461 178/527/461
f 182/556/422 185/562/424 189/555/462
f 189/555/463 190/81/463 191/83/463
f 184/561/420 180/547/220 195/560/458
f 188/563/464 187/942/464 202/564/464
f 195/93/57 198/92/56 203/569/54
f 203/569/459 193/566/459 195/93/459
f 292/943/465 288/771/291 294/944/466
f 288/771/291 299/773/293 297/945/467
f 297/945/467 294/944/466 288/771/291
f 299/946/468 300/790/303 297/947/469
f 300/790/303 292/792/305 294/948/470
f 297/947/469 300/790/303 294/948/470
f 305/802/471 301/803/471 309/800/471
f 301/803/313 311/805/315 309/800/472
f 309/800/473 307/949/473 306/801/473
f 311/924/319 304/812/319 305/809/320
f 308/811/474 311/924/474 305/809/474
f 306/810/475 309/950/475 308/811/475
f 312/830/476 316/833/336 320/828/477
f 316/833/336 322/835/338 320/828/477
f 322/835/478 319/951/478 320/828/478
f 320/828/479 314/952/479 313/829/479
f 322/926/480 323/823/328 312/825/330
f 319/832/481 322/926/481 312/825/481
f 313/831/482 320/953/482 319/832/482
f 333/838/306 332/954/306 320/821/306
f 338/858/483 329/851/349 348/853/351
f 345/857/484 346/955/484 338/858/484
f 331/956/485 330/860/485 333/957/485
f 330/860/356 341/41/358 333/957/486
f 333/957/487 332/958/487 331/956/487
f 346/869/306 333/838/306 340/863/306
f 348/933/488 357/865/488 340/39/488
f 348/933/489 340/39/489 338/38/489
f 358/881/490 349/876/367 354/878/369
f 351/879/491 352/959/491 360/960/491
f 351/879/492 360/960/492 359/880/492
f 358/881/493 354/878/493 351/879/493
f 354/938/494 362/887/378 358/889/380
