# Blender 4.5.0
# www.blender.org
mtllib car.lod1.mtl
o Body
v -2.730635 2.247641 0.010694
v 2.901437 0.952185 0.010692
v 1.876399 1.606055 -0.915512
v 1.716383 1.545086 -0.915512
v 1.580727 1.371466 -0.915512
v 1.490084 1.111621 -0.915512
v 1.979253 0.491194 -0.411047
v 1.458256 0.805115 -0.915512
v 1.490084 0.498609 -0.915512
v 1.580727 0.238763 -0.915512
v 1.716383 0.065143 -0.915512
v 1.876399 0.004174 -0.915512
v 2.036416 0.065143 -0.915512
v 2.172072 0.238763 -0.915512
v 2.262713 0.498609 -0.915512
v 2.294543 0.805115 -0.915512
v 2.262713 1.111621 -0.915512
v 2.172071 1.371466 -0.915512
v 2.036416 1.545086 -0.915512
v 1.824522 1.587964 -0.929344
v 1.550726 1.288417 -0.929345
v 1.474777 0.545718 -0.929866
v 2.283756 0.960318 -0.929603
v 2.103655 1.456583 -0.929134
v 1.794828 1.590615 -0.915512
v 1.644107 1.471029 -0.915512
v 1.528748 1.250064 -0.915512
v 1.466317 0.961361 -0.915512
v 1.466317 0.648868 -0.915512
v 1.528748 0.360165 -0.915512
v 1.644107 0.139200 -0.915512
v 1.794828 0.019614 -0.915512
v 1.957970 0.019614 -0.915512
v 2.108692 0.139200 -0.915512
v 2.224051 0.360165 -0.915512
v 2.286482 0.648868 -0.915512
v 2.286482 0.961361 -0.915512
v 2.224051 1.250064 -0.915512
v 2.108692 1.471029 -0.915512
v 1.957970 1.590615 -0.915512
v 1.876399 1.451304 -0.931973
v 2.005500 0.208114 -0.931973
v 2.202071 0.321813 -0.929345
v 1.847817 -0.004889 -0.929866
v 2.114957 0.348165 -0.931973
v 2.188104 0.557805 -0.931973
v 1.564775 1.052361 -0.931973
v 1.539108 0.805115 -0.931973
v 2.213794 0.805115 -0.931973
v 1.564783 0.557876 -0.931973
v 2.188111 1.052431 -0.931973
v 1.637893 0.348264 -0.931973
v 2.114967 1.262084 -0.931973
v 1.747316 0.208185 -0.931973
v 2.005506 1.402149 -0.931973
v 1.876399 0.158967 -0.931973
v 1.747308 1.402079 -0.931973
v 1.637883 1.261984 -0.931973
v 2.156920 0.446082 -0.931973
v 1.545587 0.931158 -0.931973
v 2.207308 0.679035 -0.931973
v 1.545591 0.679074 -0.931973
v 2.207312 0.931197 -0.931973
v 1.595950 0.446174 -0.931973
v 2.156930 1.164159 -0.931973
v 1.689003 0.267905 -0.931973
v 2.063838 1.342445 -0.931973
v 1.810591 0.171401 -0.931973
v 1.810586 1.438867 -0.931973
v 1.942216 1.438906 -0.931973
v 1.942211 0.171362 -0.931973
v 1.688993 1.342353 -0.931973
v 2.063828 0.267813 -0.931973
v 1.595941 1.164067 -0.931973
v 1.878176 0.803173 -0.875708
v -1.869357 1.606055 -0.915511
v -1.709339 1.545086 -0.915511
v -1.573684 1.371466 -0.915511
v -1.483042 1.111621 -0.915511
v -1.927737 0.492758 -0.410973
v -1.451213 0.805115 -0.915511
v -1.483042 0.498609 -0.915511
v -1.573684 0.238763 -0.915511
v -1.709339 0.065143 -0.915511
v -1.869357 0.004174 -0.915511
v -2.029373 0.065143 -0.915511
v -2.165028 0.238763 -0.915511
v -2.255670 0.498609 -0.915511
v -2.287500 0.805115 -0.915511
v -2.255670 1.111621 -0.915511
v -2.165028 1.371466 -0.915511
v -2.029373 1.545086 -0.915511
v -1.665029 1.490350 -0.929344
v -1.543682 0.321815 -0.929343
v -2.276713 0.960317 -0.929602
v -2.029958 1.547783 -0.929426
v -1.787786 1.590615 -0.915511
v -1.637062 1.471029 -0.915511
v -1.521704 1.250064 -0.915511
v -1.459274 0.961361 -0.915511
v -1.459274 0.648868 -0.915511
v -1.521704 0.360165 -0.915511
v -1.637062 0.139200 -0.915511
v -1.787786 0.019614 -0.915511
v -1.950926 0.019614 -0.915511
v -2.101650 0.139200 -0.915511
v -2.217008 0.360165 -0.915511
v -2.279438 0.648868 -0.915511
v -2.279438 0.961361 -0.915511
v -2.217008 1.250064 -0.915511
v -2.101650 1.471029 -0.915511
v -1.950926 1.590615 -0.915511
v -1.869357 1.451304 -0.931972
v -1.998456 0.208114 -0.931972
v -2.195030 0.321815 -0.929344
v -1.461998 0.960319 -0.929601
v -1.869356 0.001253 -0.929426
v -2.107914 0.348165 -0.931972
v -2.181060 0.557805 -0.931972
v -1.557732 1.052361 -0.931972
v -1.532065 0.805115 -0.931972
v -2.206750 0.805115 -0.931972
v -1.557740 0.557876 -0.931972
v -2.181068 1.052431 -0.931972
v -1.630849 0.348264 -0.931972
v -2.107924 1.262084 -0.931972
v -1.740272 0.208185 -0.931972
v -1.998463 1.402149 -0.931972
v -1.869357 0.158967 -0.931972
v -1.740264 1.402079 -0.931972
v -1.630839 1.261984 -0.931972
v -2.149877 0.446082 -0.931972
v -1.538543 0.931158 -0.931972
v -2.200265 0.679035 -0.931972
v -1.538547 0.679074 -0.931972
v -2.200269 0.931197 -0.931972
v -1.588907 0.446174 -0.931972
v -2.149888 1.164159 -0.931972
v -1.681960 0.267905 -0.931972
v -2.056795 1.342445 -0.931972
v -1.803547 0.171401 -0.931972
v -1.803544 1.438867 -0.931972
v -1.935172 1.438906 -0.931972
v -1.935168 0.171362 -0.931972
v -1.681950 1.342353 -0.931972
v -2.056785 0.267813 -0.931972
v -1.588897 1.164067 -0.931972
v -1.871131 0.803174 -0.875706
v 1.876401 1.606055 0.915511
v 1.716383 1.545086 0.915511
v 1.580728 1.371466 0.915511
v 1.490086 1.111621 0.915511
v 1.979254 0.491194 0.432432
v 1.458257 0.805115 0.915511
v 1.490086 0.498609 0.915511
v 1.580728 0.238764 0.915511
v 1.716383 0.065143 0.915511
v 1.876401 0.004175 0.915511
v 2.036417 0.065143 0.915511
v 2.172072 0.238764 0.915511
v 2.262714 0.498609 0.915511
v 2.294544 0.805115 0.915511
v 2.262714 1.111621 0.915511
v 2.172072 1.371466 0.915511
v 2.036417 1.545086 0.915511
v 1.672073 1.490350 0.929343
v 1.550726 0.321816 0.929343
v 2.283757 0.960317 0.929602
v 2.037002 1.547783 0.929426
v 1.794830 1.590615 0.915511
v 1.644107 1.471029 0.915511
v 1.528748 1.250064 0.915511
v 1.466318 0.961361 0.915511
v 1.466318 0.648869 0.915511
v 1.528748 0.360165 0.915511
v 1.644107 0.139201 0.915511
v 1.794830 0.019615 0.915511
v 1.957970 0.019615 0.915511
v 2.108694 0.139201 0.915511
v 2.224052 0.360165 0.915511
v 2.286482 0.648869 0.915511
v 2.286482 0.961361 0.915511
v 2.224052 1.250064 0.915511
v 2.108694 1.471029 0.915511
v 1.957970 1.590615 0.915511
v 1.876401 1.451304 0.931972
v 2.005500 0.208115 0.931972
v 2.202074 0.321815 0.929344
v 1.469042 0.960318 0.929601
v 1.876400 0.001254 0.929426
v 2.114959 0.348165 0.931972
v 2.188104 0.557806 0.931972
v 1.564777 1.052361 0.931972
v 1.539109 0.805115 0.931972
v 2.213794 0.805115 0.931972
v 1.564784 0.557876 0.931972
v 2.188112 1.052431 0.931972
v 1.637893 0.348265 0.931972
v 2.114969 1.262084 0.931972
v 1.747316 0.208185 0.931972
v 2.005507 1.402149 0.931972
v 1.876401 0.158967 0.931972
v 1.747308 1.402079 0.931972
v 1.637883 1.261985 0.931972
v 2.156921 0.446082 0.931972
v 1.545587 0.931158 0.931972
v 2.207309 0.679035 0.931972
v 1.545591 0.679074 0.931972
v 2.207313 0.931197 0.931972
v 1.595951 0.446175 0.931972
v 2.156932 1.164160 0.931972
v 1.689004 0.267905 0.931972
v 2.063839 1.342446 0.931972
v 1.810591 0.171401 0.931972
v 1.810588 1.438867 0.931972
v 1.942216 1.438906 0.931972
v 1.942212 0.171362 0.931972
v 1.688994 1.342354 0.931972
v 2.063829 0.267813 0.931972
v 1.595941 1.164067 0.931972
v 1.878175 0.803174 0.875706
v -1.869355 1.606055 0.915512
v -1.709339 1.545086 0.915512
v -1.573683 1.371466 0.915512
v -1.483040 1.111621 0.915512
v -1.927735 0.492758 0.432360
v -1.451212 0.805115 0.915512
v -1.483040 0.498609 0.915512
v -1.573683 0.238764 0.915512
v -1.709339 0.065143 0.915512
v -1.869355 0.004175 0.915512
v -2.029372 0.065143 0.915512
v -2.165028 0.238764 0.915512
v -2.255669 0.498609 0.915512
v -2.287499 0.805115 0.915512
v -2.255669 1.111621 0.915512
v -2.165026 1.371466 0.915512
v -2.029372 1.545086 0.915512
v -1.817478 1.587964 0.929344
v -1.543682 1.288418 0.929344
v -1.467732 0.545719 0.929866
v -2.276712 0.960318 0.929603
v -2.096611 1.456583 0.929133
v -1.787784 1.590615 0.915512
v -1.637062 1.471029 0.915512
v -1.521704 1.250064 0.915512
v -1.459273 0.961361 0.915512
v -1.459273 0.648869 0.915512
v -1.521704 0.360165 0.915512
v -1.637062 0.139201 0.915512
v -1.787784 0.019615 0.915512
v -1.950926 0.019615 0.915512
v -2.101648 0.139201 0.915512
v -2.217006 0.360165 0.915512
v -2.279438 0.648869 0.915512
v -2.279438 0.961361 0.915512
v -2.217006 1.250064 0.915512
v -2.101648 1.471029 0.915512
v -1.950926 1.590615 0.915512
v -1.869355 1.451304 0.931973
v -1.998456 0.208115 0.931973
v -2.195027 0.321813 0.929345
v -1.840773 -0.004889 0.929866
v -2.107913 0.348165 0.931973
v -2.181060 0.557806 0.931973
v -1.557731 1.052361 0.931973
v -1.532064 0.805115 0.931973
v -2.206750 0.805115 0.931973
v -1.557739 0.557876 0.931973
v -2.181067 1.052431 0.931973
v -1.630849 0.348265 0.931973
v -2.107923 1.262084 0.931973
v -1.740272 0.208185 0.931973
v -1.998462 1.402149 0.931973
v -1.869355 0.158967 0.931973
v -1.740264 1.402079 0.931973
v -1.630839 1.261985 0.931973
v -2.149876 0.446082 0.931973
v -1.538543 0.931158 0.931973
v -2.200264 0.679035 0.931973
v -1.538547 0.679074 0.931973
v -2.200268 0.931197 0.931973
v -1.588906 0.446175 0.931973
v -2.149886 1.164160 0.931973
v -1.681959 0.267905 0.931973
v -2.056794 1.342446 0.931973
v -1.803547 0.171401 0.931973
v -1.803542 1.438867 0.931973
v -1.935172 1.438906 0.931973
v -1.935167 0.171362 0.931973
v -1.681948 1.342354 0.931973
v -2.056784 0.267813 0.931973
v -1.588897 1.164067 0.931973
v -1.871132 0.803174 0.875708
vn -0.0957 0.0934 -0.9910
vn -0.1283 0.0816 -0.9884
vn 0.0864 -0.0734 -0.9936
vn 0.0927 -0.0711 -0.9932
vn 0.1049 -0.0667 -0.9922
vn 0.0782 -0.0763 -0.9940
vn -0.1921 0.0304 -0.9809
vn -0.1995 0.0103 -0.9798
vn 0.1600 -0.0181 -0.9870
vn 0.1608 -0.0160 -0.9869
vn 0.1637 -0.0084 -0.9865
vn 0.1574 -0.0249 -0.9872
vn 0.0590 0.1016 -0.9931
vn 0.0200 0.1058 -0.9942
vn -0.0294 -0.0852 -0.9959
vn -0.0328 -0.0848 -0.9959
vn -0.0163 -0.0865 -0.9961
vn -0.0483 -0.0832 -0.9954
vn 0.1561 -0.0668 -0.9855
vn 0.1560 -0.0668 -0.9855
vn 0.1775 -0.0496 -0.9829
vn -0.1346 0.0508 -0.9896
vn -0.1392 0.0472 -0.9891
vn -0.1469 0.0410 -0.9883
vn -0.1290 0.0553 -0.9901
vn -0.1773 -0.0495 -0.9829
vn -0.1774 -0.0495 -0.9829
vn -0.1559 -0.0668 -0.9855
vn 0.1336 0.0504 -0.9898
vn 0.1380 0.0468 -0.9893
vn 0.1280 0.0549 -0.9903
vn 0.1457 0.0406 -0.9885
vn 0.1998 0.0103 -0.9798
vn 0.1997 0.0103 -0.9798
vn 0.1923 0.0304 -0.9809
vn -0.1616 -0.0183 -0.9867
vn -0.1624 -0.0161 -0.9866
vn -0.1589 -0.0252 -0.9870
vn -0.1653 -0.0085 -0.9862
vn -0.0200 0.1058 -0.9942
vn -0.0590 0.1016 -0.9931
vn -0.0589 0.1016 -0.9931
vn 0.0294 -0.0850 -0.9959
vn 0.0327 -0.0847 -0.9959
vn 0.0482 -0.0830 -0.9954
vn 0.0163 -0.0864 -0.9961
vn -0.0590 -0.1016 -0.9931
vn -0.0590 -0.1015 -0.9931
vn -0.0589 -0.1015 -0.9931
vn -0.0200 -0.1057 -0.9942
vn 0.0296 0.0855 -0.9959
vn 0.0329 0.0852 -0.9958
vn 0.0164 0.0870 -0.9961
vn 0.0485 0.0835 -0.9953
vn -0.1559 0.0668 -0.9855
vn -0.1774 0.0495 -0.9829
vn -0.1773 0.0495 -0.9829
vn 0.1331 -0.0502 -0.9898
vn 0.1376 -0.0467 -0.9894
vn 0.1453 -0.0405 -0.9886
vn 0.1276 -0.0546 -0.9903
vn 0.1284 0.0817 -0.9883
vn 0.1284 0.0817 -0.9884
vn 0.0957 0.0934 -0.9910
vn 0.0957 0.0935 -0.9910
vn -0.0868 -0.0738 -0.9935
vn -0.0932 -0.0715 -0.9931
vn -0.0785 -0.0767 -0.9940
vn -0.1056 -0.0672 -0.9921
vn 0.0957 -0.0934 -0.9910
vn 0.1284 -0.0817 -0.9884
vn 0.1283 -0.0817 -0.9884
vn -0.0873 0.0741 -0.9934
vn -0.0937 0.0719 -0.9930
vn -0.1061 0.0675 -0.9921
vn -0.0789 0.0771 -0.9939
vn -0.1995 -0.0103 -0.9798
vn -0.1921 -0.0304 -0.9809
vn 0.1602 0.0181 -0.9869
vn 0.1610 0.0160 -0.9868
vn 0.1577 0.0250 -0.9872
vn 0.1637 0.0084 -0.9865
vn 0.1923 -0.0304 -0.9809
vn 0.1998 -0.0103 -0.9798
vn 0.1997 -0.0103 -0.9798
vn -0.1618 0.0183 -0.9867
vn -0.1626 0.0162 -0.9866
vn -0.1654 0.0085 -0.9862
vn -0.1592 0.0252 -0.9869
vn -0.1283 -0.0816 -0.9884
vn -0.1282 -0.0816 -0.9884
vn -0.0957 -0.0934 -0.9910
vn -0.0956 -0.0934 -0.9910
vn 0.0869 0.0737 -0.9935
vn 0.0931 0.0715 -0.9931
vn 0.0786 0.0767 -0.9940
vn 0.1054 0.0670 -0.9922
vn 0.0199 -0.1058 -0.9942
vn 0.0200 -0.1057 -0.9942
vn 0.0590 -0.1016 -0.9931
vn -0.0296 0.0857 -0.9959
vn -0.0330 0.0853 -0.9958
vn -0.0486 0.0837 -0.9953
vn -0.0164 0.0870 -0.9961
vn 0.1776 0.0496 -0.9829
vn 0.1775 0.0496 -0.9829
vn 0.1561 0.0669 -0.9855
vn 0.1561 0.0668 -0.9855
vn -0.1341 -0.0507 -0.9897
vn -0.1387 -0.0471 -0.9892
vn -0.1285 -0.0551 -0.9902
vn -0.1465 -0.0409 -0.9884
vn -0.7728 0.2294 -0.5918
vn -0.8561 0.3552 -0.3754
vn -0.7578 0.2116 -0.6172
vn -0.4620 -0.8492 -0.2558
vn -0.1613 -0.7348 0.6588
vn -0.1321 -0.6980 0.7038
vn -0.2917 0.6038 -0.7418
vn -0.1924 0.8013 -0.5665
vn -0.3146 0.5420 -0.7792
vn 0.9750 0.1037 -0.1963
vn 0.9754 0.1001 -0.1962
vn 0.9680 0.1531 -0.1986
vn -0.4992 -0.2102 -0.8406
vn -0.9554 -0.2841 -0.0800
vn -0.4804 -0.2057 -0.8526
vn 0.7727 -0.2294 -0.5918
vn 0.8561 -0.3552 -0.3755
vn 0.7577 -0.2116 -0.6173
vn 0.1006 0.2291 -0.9682
vn 0.0921 0.3070 -0.9472
vn 0.0838 0.4425 -0.8928
vn 0.1176 0.2261 -0.9670
vn -0.2747 0.0289 -0.9611
vn -0.3126 0.0264 -0.9495
vn -0.4326 0.0223 -0.9013
vn -0.3097 0.0398 -0.9500
vn 0.2017 -0.3771 -0.9040
vn 0.2328 -0.9616 -0.1451
vn 0.1947 -0.3355 -0.9217
vn 0.3012 0.1100 -0.9472
vn 0.3350 0.1338 -0.9327
vn 0.3866 0.1655 -0.9073
vn -0.1964 0.1751 -0.9648
vn -0.2975 0.2225 -0.9284
vn -0.4916 0.3129 -0.8126
vn -0.1902 0.1793 -0.9652
vn -0.1405 -0.0990 -0.9851
vn -0.1560 -0.1229 -0.9801
vn -0.2168 -0.2116 -0.9530
vn -0.1393 -0.0928 -0.9859
vn 0.3217 -0.0408 -0.9460
vn 0.4159 -0.0375 -0.9086
vn 0.5996 -0.0309 -0.7997
vn 0.3420 -0.0486 -0.9384
vn -0.9819 -0.0553 -0.1812
vn -0.8787 -0.1358 0.4577
vn -0.8689 -0.1374 0.4756
vn 0.1456 -0.1465 -0.9784
vn 0.2445 -0.1969 -0.9494
vn 0.4916 -0.3129 -0.8127
vn 0.1268 -0.1317 -0.9831
vn 0.5529 0.4614 -0.6938
vn 0.5886 0.4364 -0.6805
vn 0.5047 0.4926 -0.7090
vn 0.0302 -0.0154 -0.9994
vn 0.0259 -0.0140 -0.9996
vn 0.0315 -0.0097 -0.9995
vn -0.0276 -0.0061 -0.9996
vn -0.0620 0.0076 -0.9980
vn -0.2036 0.0321 -0.9785
vn 0.0337 0.0042 -0.9994
vn 0.0552 -0.0080 -0.9984
vn 0.0718 -0.0111 -0.9974
vn -0.0400 0.0018 -0.9992
vn -0.0263 -0.0018 -0.9997
vn 0.0371 -0.0015 -0.9993
vn 0.0299 0.0029 -0.9995
vn -0.0227 -0.0050 -0.9997
vn -0.0260 -0.0105 -0.9996
vn 0.0422 0.0173 -0.9990
vn 0.0210 0.0215 -0.9995
vn 0.0329 0.0085 -0.9994
vn 0.0577 0.0243 -0.9980
vn -0.0010 -0.0187 -0.9998
vn -0.0683 -0.0457 -0.9966
vn -0.1326 -0.0848 -0.9875
vn 0.0231 0.0168 -0.9996
vn -0.0175 -0.0182 -0.9997
vn -0.0060 -0.0132 -0.9999
vn -0.0035 0.0226 -0.9997
vn 0.0010 0.0196 -0.9998
vn -0.0081 0.0184 -0.9998
vn 0.0160 0.0244 -0.9996
vn 0.0158 0.0301 -0.9994
vn 0.0003 -0.0129 -0.9999
vn 0.0081 -0.0163 -0.9998
vn -0.0299 0.0150 -0.9994
vn -0.0252 0.0248 -0.9994
vn -0.0297 0.0273 -0.9992
vn 0.0304 -0.0322 -0.9990
vn 0.0297 -0.0274 -0.9992
vn -0.0259 0.0140 -0.9996
vn -0.0314 0.0097 -0.9995
vn 0.5753 -0.3370 0.7453
vn 0.7240 0.0097 0.6898
vn 0.6901 0.0841 0.7188
vn 0.6770 0.1071 0.7281
vn -0.7828 -0.2729 0.5592
vn -0.7368 -0.3977 0.5468
vn -0.6303 -0.5167 0.5794
vn -0.5763 -0.5625 0.5928
vn -0.2407 0.2960 0.9243
vn -0.7726 0.0958 0.6276
vn -0.8012 0.0413 0.5969
vn 0.1283 0.0816 -0.9884
vn 0.1284 0.0816 -0.9884
vn -0.0864 -0.0734 -0.9936
vn -0.0927 -0.0711 -0.9932
vn -0.0782 -0.0763 -0.9940
vn 0.1921 0.0304 -0.9809
vn 0.1995 0.0103 -0.9798
vn 0.1996 0.0103 -0.9798
vn -0.1600 -0.0181 -0.9869
vn -0.1608 -0.0160 -0.9869
vn -0.1574 -0.0249 -0.9872
vn -0.0199 0.1058 -0.9942
vn 0.0294 -0.0852 -0.9959
vn 0.0328 -0.0848 -0.9959
vn 0.0483 -0.0832 -0.9954
vn -0.1561 -0.0668 -0.9855
vn -0.1775 -0.0496 -0.9829
vn -0.1776 -0.0496 -0.9829
vn 0.1346 0.0508 -0.9896
vn 0.1392 0.0472 -0.9891
vn 0.1290 0.0553 -0.9901
vn 0.1774 -0.0495 -0.9829
vn 0.1773 -0.0495 -0.9829
vn 0.1559 -0.0668 -0.9855
vn -0.1336 0.0504 -0.9898
vn -0.1380 0.0468 -0.9893
vn -0.1457 0.0406 -0.9885
vn -0.1998 0.0103 -0.9798
vn -0.1997 0.0103 -0.9798
vn -0.1923 0.0304 -0.9809
vn -0.1923 0.0305 -0.9809
vn 0.1616 -0.0183 -0.9867
vn 0.1624 -0.0161 -0.9866
vn 0.1653 -0.0085 -0.9862
vn 0.0591 0.1016 -0.9931
vn -0.0294 -0.0850 -0.9959
vn -0.0327 -0.0847 -0.9959
vn -0.0163 -0.0864 -0.9961
vn 0.0590 -0.1015 -0.9931
vn 0.0589 -0.1015 -0.9931
vn -0.0296 0.0855 -0.9959
vn -0.0329 0.0852 -0.9958
vn -0.0485 0.0835 -0.9953
vn 0.1559 0.0668 -0.9855
vn 0.1774 0.0495 -0.9829
vn -0.1331 -0.0502 -0.9898
vn -0.1376 -0.0467 -0.9894
vn -0.1276 -0.0546 -0.9903
vn -0.1284 0.0817 -0.9883
vn -0.1284 0.0817 -0.9884
vn -0.0957 0.0935 -0.9910
vn 0.0868 -0.0738 -0.9935
vn 0.0932 -0.0715 -0.9931
vn 0.1056 -0.0672 -0.9921
vn -0.1284 -0.0817 -0.9884
vn 0.0873 0.0741 -0.9934
vn 0.0937 0.0719 -0.9930
vn 0.0789 0.0771 -0.9939
vn 0.1995 -0.0103 -0.9798
vn 0.1921 -0.0304 -0.9809
vn -0.1602 0.0181 -0.9869
vn -0.1610 0.0160 -0.9868
vn -0.1637 0.0084 -0.9865
vn -0.1923 -0.0304 -0.9809
vn -0.1998 -0.0103 -0.9798
vn 0.1618 0.0183 -0.9867
vn 0.1626 0.0162 -0.9866
vn 0.1592 0.0252 -0.9869
vn 0.1283 -0.0816 -0.9884
vn 0.1282 -0.0816 -0.9884
vn 0.0956 -0.0934 -0.9910
vn -0.0869 0.0737 -0.9935
vn -0.0931 0.0715 -0.9931
vn -0.1054 0.0670 -0.9922
vn -0.0199 -0.1058 -0.9942
vn 0.0296 0.0857 -0.9959
vn 0.0330 0.0853 -0.9958
vn -0.1776 0.0496 -0.9829
vn -0.1775 0.0496 -0.9829
vn -0.1561 0.0669 -0.9855
vn 0.1341 -0.0507 -0.9897
vn 0.1387 -0.0471 -0.9892
vn 0.1465 -0.0409 -0.9884
vn 0.3557 0.1184 -0.9271
vn 0.2723 0.1038 -0.9566
vn 0.5468 0.1527 -0.8232
vn 0.2857 0.1157 -0.9513
vn 0.3206 0.1373 -0.9372
vn 0.2051 -0.9751 0.0841
vn 0.2501 -0.4693 -0.8469
vn 0.1821 -0.9623 0.2020
vn 0.2436 -0.4198 -0.8743
vn 0.0926 0.2465 -0.9647
vn 0.0411 0.1836 -0.9821
vn 0.2423 0.4175 -0.8758
vn 0.0276 0.1640 -0.9861
vn 0.0293 0.1550 -0.9875
vn -0.9755 0.1001 -0.1961
vn -0.9751 0.1037 -0.1963
vn -0.9681 0.1531 -0.1985
vn -0.9798 0.0506 -0.1933
vn 0.8561 -0.3552 -0.3754
vn 0.7728 -0.2294 -0.5918
vn 0.8623 -0.3692 -0.3465
vn 0.7578 -0.2116 -0.6173
vn -0.8561 -0.3552 -0.3754
vn -0.7728 -0.2294 -0.5918
vn -0.7578 -0.2116 -0.6173
vn -0.8623 -0.3692 -0.3465
vn -0.4861 0.8699 0.0833
vn -0.1101 0.4850 -0.8676
vn -0.0842 0.4451 -0.8915
vn -0.4933 0.8499 0.1855
vn 0.9755 0.1001 -0.1960
vn 0.9751 0.1037 -0.1962
vn 0.9799 0.0505 -0.1932
vn 0.9681 0.1531 -0.1985
vn -0.2052 -0.9751 0.0841
vn -0.2501 -0.4693 -0.8469
vn -0.2436 -0.4198 -0.8743
vn -0.1821 -0.9623 0.2020
vn -0.2219 0.0941 -0.9705
vn -0.2293 0.0945 -0.9688
vn -0.2264 0.0969 -0.9692
vn -0.3160 0.1109 -0.9422
vn -0.5468 0.1527 -0.8232
vn 0.6472 0.6015 -0.4683
vn 0.6202 0.4263 -0.6585
vn 0.6099 0.3883 -0.6908
vn 0.6474 0.6318 -0.4263
vn 0.1443 -0.1443 -0.9790
vn 0.1606 -0.1551 -0.9747
vn 0.1397 -0.1364 -0.9808
vn 0.2619 -0.2054 -0.9430
vn -0.4159 -0.0375 -0.9086
vn -0.3217 -0.0408 -0.9460
vn -0.5996 -0.0309 -0.7997
vn -0.3421 -0.0486 -0.9384
vn -0.3891 -0.0615 -0.9191
vn 0.3891 -0.0615 -0.9191
vn -0.2619 -0.2054 -0.9430
vn -0.1606 -0.1551 -0.9747
vn -0.4916 -0.3129 -0.8126
vn -0.1443 -0.1443 -0.9790
vn -0.1397 -0.1364 -0.9808
vn -0.7201 0.6884 0.0869
vn -0.5157 0.3390 -0.7869
vn -0.7061 0.6891 0.1633
vn -0.4940 0.3145 -0.8106
vn -0.0341 0.0043 -0.9994
vn -0.0552 -0.0080 -0.9984
vn -0.0301 -0.0154 -0.9994
vn 0.0551 -0.0080 -0.9985
vn 0.0301 -0.0154 -0.9994
vn -0.0554 0.0240 -0.9982
vn -0.0108 0.0212 -0.9997
vn 0.0289 -0.0302 -0.9991
vn -0.0000 -0.0217 -0.9998
vn 0.0168 0.0218 -0.9996
vn 0.0040 0.0326 -0.9995
vn -0.0290 -0.0303 -0.9991
vn 0.0446 0.0183 -0.9988
vn -0.6780 -0.1630 -0.7168
vn -0.6770 0.0089 -0.7359
vn -0.6683 0.0345 -0.7431
vn 0.5816 -0.4561 -0.6736
vn -0.4244 -0.5520 -0.7178
vn -0.5047 -0.4925 -0.7090
vn 0.1671 0.2782 -0.9459
vn 0.7310 0.1788 -0.6586
vn 0.7930 0.0994 -0.6011
vn 0.8238 0.0425 -0.5653
vn -0.0957 0.0934 0.9910
vn -0.1283 0.0816 0.9884
vn -0.1284 0.0816 0.9884
vn 0.0864 -0.0734 0.9936
vn 0.0927 -0.0711 0.9932
vn 0.0782 -0.0763 0.9940
vn -0.1921 0.0304 0.9809
vn -0.1995 0.0103 0.9798
vn -0.1996 0.0103 0.9798
vn 0.1600 -0.0181 0.9869
vn 0.1608 -0.0160 0.9869
vn 0.1574 -0.0249 0.9872
vn 0.0590 0.1016 0.9931
vn 0.0200 0.1058 0.9942
vn 0.0199 0.1058 0.9942
vn -0.0294 -0.0852 0.9959
vn -0.0328 -0.0848 0.9959
vn -0.0483 -0.0832 0.9954
vn 0.1561 -0.0668 0.9855
vn 0.1560 -0.0668 0.9855
vn 0.1775 -0.0496 0.9829
vn 0.1776 -0.0496 0.9829
vn -0.1346 0.0508 0.9896
vn -0.1392 0.0472 0.9891
vn -0.1290 0.0553 0.9901
vn -0.1774 -0.0495 0.9829
vn -0.1773 -0.0495 0.9829
vn -0.1559 -0.0668 0.9855
vn 0.1336 0.0504 0.9898
vn 0.1380 0.0468 0.9893
vn 0.1457 0.0406 0.9885
vn 0.1998 0.0103 0.9798
vn 0.1997 0.0103 0.9798
vn 0.1923 0.0304 0.9809
vn 0.1923 0.0305 0.9809
vn -0.1616 -0.0183 0.9867
vn -0.1624 -0.0161 0.9866
vn -0.1653 -0.0085 0.9862
vn -0.0200 0.1058 0.9942
vn -0.0590 0.1016 0.9931
vn -0.0591 0.1016 0.9931
vn 0.0294 -0.0850 0.9959
vn 0.0327 -0.0847 0.9959
vn 0.0163 -0.0864 0.9961
vn -0.0590 -0.1015 0.9931
vn -0.0590 -0.1016 0.9931
vn -0.0589 -0.1015 0.9931
vn -0.0200 -0.1057 0.9942
vn 0.0296 0.0855 0.9959
vn 0.0329 0.0852 0.9958
vn 0.0485 0.0835 0.9953
vn -0.1559 0.0668 0.9855
vn -0.1774 0.0495 0.9829
vn 0.1331 -0.0502 0.9898
vn 0.1376 -0.0467 0.9894
vn 0.1276 -0.0546 0.9903
vn 0.1284 0.0817 0.9883
vn 0.1284 0.0817 0.9884
vn 0.0957 0.0934 0.9910
vn 0.0957 0.0935 0.9910
vn -0.0868 -0.0738 0.9935
vn -0.0932 -0.0715 0.9931
vn -0.1056 -0.0672 0.9921
vn 0.0957 -0.0934 0.9910
vn 0.1284 -0.0817 0.9884
vn -0.0873 0.0741 0.9934
vn -0.0937 0.0719 0.9930
vn -0.0789 0.0771 0.9939
vn -0.1995 -0.0103 0.9798
vn -0.1921 -0.0304 0.9809
vn 0.1602 0.0181 0.9869
vn 0.1610 0.0160 0.9868
vn 0.1637 0.0084 0.9865
vn 0.1923 -0.0304 0.9809
vn 0.1998 -0.0103 0.9798
vn -0.1618 0.0183 0.9867
vn -0.1626 0.0162 0.9866
vn -0.1592 0.0252 0.9869
vn -0.1283 -0.0816 0.9884
vn -0.1282 -0.0816 0.9884
vn -0.0957 -0.0934 0.9910
vn -0.0956 -0.0934 0.9910
vn 0.0869 0.0737 0.9935
vn 0.0931 0.0715 0.9931
vn 0.1054 0.0670 0.9922
vn 0.0200 -0.1057 0.9942
vn 0.0199 -0.1058 0.9942
vn 0.0590 -0.1016 0.9931
vn -0.0296 0.0857 0.9959
vn -0.0330 0.0853 0.9958
vn -0.0164 0.0870 0.9961
vn 0.1776 0.0496 0.9829
vn 0.1775 0.0496 0.9829
vn 0.1561 0.0669 0.9855
vn -0.1341 -0.0507 0.9897
vn -0.1387 -0.0471 0.9892
vn -0.1465 -0.0409 0.9884
vn -0.3557 0.1184 0.9271
vn -0.2723 0.1038 0.9566
vn -0.5468 0.1527 0.8232
vn -0.2857 0.1157 0.9513
vn -0.3206 0.1373 0.9372
vn -0.2051 -0.9751 -0.0841
vn -0.2501 -0.4693 0.8469
vn -0.1821 -0.9623 -0.2020
vn -0.2436 -0.4198 0.8743
vn -0.0926 0.2465 0.9647
vn -0.0411 0.1836 0.9821
vn -0.2423 0.4175 0.8758
vn -0.0276 0.1640 0.9861
vn -0.0293 0.1550 0.9875
vn 0.9755 0.1001 0.1960
vn 0.9751 0.1037 0.1962
vn 0.9681 0.1531 0.1986
vn 0.9799 0.0506 0.1932
vn -0.8561 -0.3552 0.3755
vn -0.7728 -0.2294 0.5918
vn -0.8623 -0.3692 0.3465
vn -0.7578 -0.2116 0.6172
vn 0.8561 -0.3552 0.3755
vn 0.7728 -0.2294 0.5918
vn 0.7578 -0.2116 0.6172
vn 0.8623 -0.3692 0.3465
vn 0.4861 0.8699 -0.0833
vn 0.1101 0.4850 0.8676
vn 0.0842 0.4451 0.8915
vn 0.4933 0.8499 -0.1855
vn -0.9755 0.1001 0.1960
vn -0.9751 0.1037 0.1962
vn -0.9799 0.0505 0.1932
vn -0.9681 0.1531 0.1985
vn 0.2052 -0.9751 -0.0841
vn 0.2501 -0.4693 0.8469
vn 0.2436 -0.4198 0.8743
vn 0.1821 -0.9623 -0.2020
vn 0.2219 0.0941 0.9705
vn 0.2293 0.0945 0.9688
vn 0.2264 0.0969 0.9692
vn 0.3160 0.1109 0.9422
vn 0.5468 0.1527 0.8232
vn -0.6472 0.6015 0.4683
vn -0.6202 0.4263 0.6585
vn -0.6099 0.3883 0.6908
vn -0.6474 0.6318 0.4263
vn -0.1443 -0.1443 0.9790
vn -0.1606 -0.1551 0.9747
vn -0.1397 -0.1364 0.9808
vn -0.2619 -0.2054 0.9430
vn -0.4916 -0.3129 0.8126
vn 0.4159 -0.0375 0.9086
vn 0.3217 -0.0408 0.9460
vn 0.5996 -0.0309 0.7997
vn 0.3421 -0.0486 0.9384
vn 0.3891 -0.0615 0.9191
vn -0.3420 -0.0486 0.9384
vn -0.3217 -0.0408 0.9460
vn -0.3891 -0.0615 0.9191
vn -0.4159 -0.0375 0.9086
vn -0.5996 -0.0309 0.7997
vn 0.2619 -0.2054 0.9430
vn 0.1606 -0.1551 0.9747
vn 0.4916 -0.3129 0.8126
vn 0.1443 -0.1443 0.9790
vn 0.1397 -0.1364 0.9808
vn 0.7201 0.6884 -0.0870
vn 0.5157 0.3390 0.7869
vn 0.7061 0.6891 -0.1633
vn 0.4940 0.3145 0.8106
vn 0.0341 0.0043 0.9994
vn 0.0552 -0.0080 0.9984
vn 0.0301 -0.0154 0.9994
vn -0.0551 -0.0080 0.9985
vn -0.0337 0.0042 0.9994
vn -0.0301 -0.0154 0.9994
vn 0.0554 0.0240 0.9982
vn 0.0108 0.0212 0.9997
vn -0.0289 -0.0302 0.9991
vn -0.0000 -0.0217 0.9998
vn -0.0168 0.0218 0.9996
vn -0.0040 0.0326 0.9995
vn 0.0290 -0.0303 0.9991
vn -0.0446 0.0183 0.9988
vn 0.1283 0.0816 0.9884
vn -0.0864 -0.0734 0.9936
vn -0.0927 -0.0711 0.9932
vn -0.1049 -0.0667 0.9922
vn -0.0782 -0.0763 0.9940
vn 0.1921 0.0304 0.9809
vn 0.1995 0.0103 0.9798
vn -0.1600 -0.0181 0.9869
vn -0.1608 -0.0160 0.9869
vn -0.1637 -0.0084 0.9865
vn -0.1574 -0.0249 0.9872
vn 0.0294 -0.0852 0.9959
vn 0.0328 -0.0848 0.9959
vn 0.0163 -0.0865 0.9961
vn 0.0483 -0.0832 0.9954
vn -0.1561 -0.0668 0.9855
vn -0.1560 -0.0668 0.9855
vn -0.1775 -0.0496 0.9829
vn 0.1346 0.0508 0.9896
vn 0.1392 0.0472 0.9891
vn 0.1469 0.0410 0.9883
vn 0.1290 0.0553 0.9901
vn 0.1773 -0.0495 0.9829
vn 0.1774 -0.0495 0.9829
vn 0.1559 -0.0668 0.9855
vn -0.1336 0.0504 0.9898
vn -0.1380 0.0468 0.9893
vn -0.1280 0.0549 0.9903
vn -0.1457 0.0406 0.9885
vn -0.1998 0.0103 0.9798
vn -0.1997 0.0103 0.9798
vn -0.1923 0.0304 0.9809
vn 0.1616 -0.0183 0.9867
vn 0.1624 -0.0161 0.9866
vn 0.1589 -0.0252 0.9870
vn 0.1653 -0.0085 0.9862
vn 0.0589 0.1016 0.9931
vn -0.0294 -0.0850 0.9959
vn -0.0327 -0.0847 0.9959
vn -0.0482 -0.0830 0.9954
vn -0.0163 -0.0864 0.9961
vn 0.0590 -0.1015 0.9931
vn 0.0589 -0.1015 0.9931
vn -0.0296 0.0855 0.9959
vn -0.0329 0.0852 0.9958
vn -0.0485 0.0835 0.9953
vn 0.1559 0.0668 0.9855
vn 0.1774 0.0495 0.9829
vn 0.1773 0.0495 0.9829
vn -0.1331 -0.0502 0.9898
vn -0.1376 -0.0467 0.9894
vn -0.1453 -0.0405 0.9886
vn -0.1276 -0.0546 0.9903
vn -0.1284 0.0817 0.9883
vn -0.1284 0.0817 0.9884
vn -0.0957 0.0935 0.9910
vn 0.0868 -0.0738 0.9935
vn 0.0932 -0.0715 0.9931
vn 0.0785 -0.0767 0.9940
vn 0.1056 -0.0672 0.9921
vn -0.1284 -0.0817 0.9884
vn 0.0873 0.0741 0.9934
vn 0.0937 0.0719 0.9930
vn 0.1061 0.0675 0.9921
vn 0.0789 0.0771 0.9939
vn 0.1995 -0.0103 0.9798
vn 0.1921 -0.0304 0.9809
vn -0.1602 0.0181 0.9869
vn -0.1610 0.0160 0.9868
vn -0.1577 0.0250 0.9872
vn -0.1637 0.0084 0.9865
vn -0.1923 -0.0304 0.9809
vn -0.1998 -0.0103 0.9798
vn -0.1997 -0.0103 0.9798
vn 0.1618 0.0183 0.9867
vn 0.1626 0.0162 0.9866
vn 0.1654 0.0085 0.9862
vn 0.1592 0.0252 0.9869
vn 0.1283 -0.0816 0.9884
vn 0.1282 -0.0816 0.9884
vn 0.0956 -0.0934 0.9910
vn -0.0869 0.0737 0.9935
vn -0.0931 0.0715 0.9931
vn -0.0786 0.0767 0.9940
vn -0.1054 0.0670 0.9922
vn -0.0199 -0.1058 0.9942
vn 0.0296 0.0857 0.9959
vn 0.0330 0.0853 0.9958
vn 0.0486 0.0837 0.9953
vn 0.0164 0.0870 0.9961
vn -0.1776 0.0496 0.9829
vn -0.1775 0.0496 0.9829
vn -0.1561 0.0669 0.9855
vn -0.1561 0.0668 0.9855
vn 0.1341 -0.0507 0.9897
vn 0.1387 -0.0471 0.9892
vn 0.1285 -0.0551 0.9902
vn 0.1465 -0.0409 0.9884
vn 0.7728 0.2294 0.5918
vn 0.8561 0.3552 0.3754
vn 0.7578 0.2116 0.6172
vn 0.4620 -0.8492 0.2558
vn 0.1613 -0.7348 -0.6588
vn 0.1321 -0.6980 -0.7038
vn 0.2917 0.6038 0.7418
vn 0.1924 0.8013 0.5665
vn 0.3146 0.5421 0.7792
vn -0.9750 0.1037 0.1963
vn -0.9754 0.1001 0.1962
vn -0.9680 0.1531 0.1987
vn 0.4992 -0.2102 0.8406
vn 0.9554 -0.2841 0.0800
vn 0.4804 -0.2057 0.8526
vn -0.7727 -0.2294 0.5918
vn -0.7577 -0.2116 0.6173
vn -0.1006 0.2291 0.9682
vn -0.0921 0.3070 0.9472
vn -0.0838 0.4425 0.8928
vn -0.1176 0.2261 0.9670
vn 0.2747 0.0289 0.9611
vn 0.3126 0.0264 0.9495
vn 0.4326 0.0223 0.9013
vn 0.3097 0.0398 0.9500
vn -0.2017 -0.3771 0.9040
vn -0.2328 -0.9616 0.1451
vn -0.1947 -0.3355 0.9217
vn -0.3012 0.1100 0.9472
vn -0.3350 0.1338 0.9327
vn -0.3866 0.1655 0.9073
vn 0.1964 0.1751 0.9648
vn 0.2975 0.2225 0.9284
vn 0.4916 0.3129 0.8126
vn 0.1902 0.1793 0.9652
vn 0.1405 -0.0990 0.9851
vn 0.1560 -0.1229 0.9801
vn 0.2168 -0.2116 0.9530
vn 0.1393 -0.0928 0.9859
vn 0.9819 -0.0553 0.1813
vn 0.8787 -0.1358 -0.4577
vn 0.8689 -0.1374 -0.4755
vn -0.1456 -0.1465 0.9784
vn -0.2445 -0.1969 0.9494
vn -0.4916 -0.3129 0.8127
vn -0.1268 -0.1317 0.9831
vn -0.5529 0.4614 0.6938
vn -0.5886 0.4364 0.6805
vn -0.5047 0.4926 0.7090
vn -0.0302 -0.0154 0.9994
vn -0.0259 -0.0140 0.9996
vn -0.0315 -0.0097 0.9995
vn 0.0276 -0.0061 0.9996
vn 0.0620 0.0076 0.9980
vn 0.2036 0.0321 0.9785
vn -0.0552 -0.0080 0.9984
vn -0.0718 -0.0111 0.9974
vn 0.0400 0.0018 0.9992
vn 0.0263 -0.0018 0.9997
vn -0.0371 -0.0015 0.9993
vn -0.0299 0.0029 0.9995
vn 0.0227 -0.0050 0.9997
vn 0.0260 -0.0105 0.9996
vn -0.0422 0.0173 0.9990
vn -0.0210 0.0215 0.9995
vn -0.0329 0.0085 0.9994
vn -0.0577 0.0243 0.9980
vn 0.0010 -0.0187 0.9998
vn 0.0683 -0.0457 0.9966
vn 0.1326 -0.0848 0.9875
vn -0.0231 0.0168 0.9996
vn 0.0175 -0.0182 0.9997
vn 0.0060 -0.0132 0.9999
vn 0.0035 0.0226 0.9997
vn -0.0010 0.0196 0.9998
vn 0.0081 0.0184 0.9998
vn -0.0160 0.0244 0.9996
vn -0.0158 0.0301 0.9994
vn -0.0003 -0.0129 0.9999
vn -0.0081 -0.0163 0.9998
vn 0.0299 0.0150 0.9994
vn 0.0252 0.0248 0.9994
vn 0.0297 0.0273 0.9992
vn -0.0304 -0.0322 0.9990
vn -0.0297 -0.0274 0.9992
vn 0.0259 0.0140 0.9996
vn 0.0314 0.0097 0.9995
vn -0.1393 0.3936 0.9087
vn -0.2651 0.3617 0.8938
vn 0.6194 -0.0063 0.7850
vn -0.0035 0.4120 0.9112
vn -0.3775 0.3185 0.8695
vn -0.4731 0.2669 0.8396
vn -0.5518 0.2091 0.8073
vn -0.5974 0.1668 0.7844
vn -0.6607 0.0800 0.7464
vn -0.6928 0.0090 0.7211
vn -0.5460 -0.3331 0.7687
vn -0.6481 0.1025 0.7546
vn -0.7101 -0.0675 0.7009
vn -0.7108 -0.1507 0.6870
vn -0.6916 -0.2422 0.6805
vn -0.6459 -0.3431 0.6820
vn -0.5642 -0.4525 0.6906
vn -0.4339 -0.5641 0.7025
vn -0.2470 -0.6612 0.7084
vn -0.0111 -0.7183 0.6957
vn 0.2445 -0.7135 0.6566
vn 0.3944 -0.6795 0.6186
vn 0.6491 -0.5355 0.5402
vn 0.7622 -0.4134 0.4982
vn 0.5943 -0.5800 0.5572
vn 0.8276 -0.2941 0.4780
vn 0.8582 -0.1833 0.4795
vn 0.8623 -0.0812 0.4998
vn 0.8442 0.0131 0.5358
vn 0.8053 0.1006 0.5842
vn 0.7447 0.1818 0.6421
vn 0.6616 0.2553 0.7051
vn 0.5549 0.3188 0.7684
vn 0.4279 0.3684 0.8253
vn 0.2860 0.4011 0.8703
vn 0.1396 0.4152 0.8990
vn -0.1996 0.0103 -0.9798
vn 0.0199 0.1058 -0.9942
vn 0.1561 -0.0669 -0.9855
vn 0.1776 -0.0496 -0.9829
vn 0.1923 0.0305 -0.9809
vn -0.0591 0.1016 -0.9931
vn 0.0957 -0.0935 -0.9910
vn 0.1923 -0.0305 -0.9809
vn -0.1284 -0.0816 -0.9884
vn -0.8624 0.3692 -0.3464
vn -0.4698 -0.8094 -0.3525
vn -0.1603 0.8472 -0.5066
vn 0.9798 0.0505 -0.1934
vn -0.9533 -0.2662 0.1429
vn 0.1523 0.2623 -0.9529
vn -0.3891 0.0615 -0.9191
vn 0.1804 -0.9532 0.2426
vn 0.3806 0.1230 -0.9165
vn -0.2003 0.1955 -0.9600
vn -0.1576 -0.1004 -0.9824
vn 0.3891 -0.0616 -0.9191
vn -0.9757 -0.0503 -0.2133
vn 0.1177 -0.1149 -0.9864
vn 0.6328 0.4028 -0.6612
vn 0.2698 0.3702 0.8889
vn 0.1396 0.3987 0.9064
vn 0.0020 0.4127 0.9109
vn 0.4897 0.2773 0.8266
vn 0.3880 0.3288 0.8610
vn 0.6231 0.1740 0.7626
vn 0.5738 0.2182 0.7894
vn 0.7417 -0.1575 0.6519
vn 0.7418 -0.0705 0.6669
vn 0.6702 -0.3576 0.6503
vn 0.7202 -0.2530 0.6460
vn 0.4425 -0.5805 0.6835
vn 0.5819 -0.4694 0.6642
vn 0.0063 -0.7180 0.6960
vn 0.2466 -0.6718 0.6984
vn -0.3855 -0.6642 0.6406
vn -0.2452 -0.7015 0.6691
vn -0.8263 -0.1762 0.5350
vn -0.7982 -0.2827 0.5319
vn -0.8257 -0.0426 0.5624
vn -0.8290 -0.0783 0.5537
vn -0.7147 0.1736 0.6775
vn -0.5362 0.3068 0.7864
vn -0.6362 0.2445 0.7317
vn -0.1049 -0.0667 -0.9922
vn -0.2817 0.3926 0.8755
vn -0.4166 0.3571 0.8360
vn -0.1398 0.4110 0.9008
vn -0.1637 -0.0084 -0.9865
vn 0.0163 -0.0865 -0.9961
vn -0.1561 -0.0669 -0.9855
vn 0.1469 0.0410 -0.9883
vn -0.1280 0.0548 -0.9903
vn 0.1589 -0.0252 -0.9870
vn 0.0589 0.1016 -0.9931
vn -0.0482 -0.0830 -0.9954
vn 0.1773 0.0495 -0.9829
vn -0.1453 -0.0405 -0.9886
vn 0.0785 -0.0767 -0.9940
vn -0.0957 -0.0935 -0.9910
vn 0.1061 0.0675 -0.9921
vn 0.1996 -0.0103 -0.9798
vn -0.1577 0.0250 -0.9872
vn -0.1923 -0.0305 -0.9809
vn -0.1997 -0.0103 -0.9798
vn 0.1654 0.0085 -0.9862
vn 0.1284 -0.0816 -0.9884
vn -0.0786 0.0767 -0.9940
vn 0.0486 0.0837 -0.9953
vn -0.1561 0.0668 -0.9855
vn 0.1285 -0.0551 -0.9902
vn -0.0315 -0.0097 -0.9995
vn -0.0259 -0.0140 -0.9996
vn 0.0370 -0.0014 -0.9993
vn 0.0299 0.0028 -0.9995
vn -0.0371 -0.0014 -0.9993
vn -0.0718 -0.0111 -0.9974
vn 0.0715 -0.0111 -0.9974
vn -0.0329 0.0085 -0.9994
vn -0.0299 0.0029 -0.9995
vn 0.0314 -0.0097 -0.9995
vn -0.0577 0.0243 -0.9980
vn 0.0296 -0.0273 -0.9992
vn -0.0126 0.0148 -0.9998
vn -0.0226 0.0154 -0.9996
vn -0.0000 -0.0161 -0.9999
vn 0.0088 -0.0184 -0.9998
vn 0.0139 0.0180 -0.9997
vn 0.0077 0.0303 -0.9995
vn -0.0059 0.0183 -0.9998
vn -0.0088 -0.0184 -0.9998
vn 0.0217 0.0153 -0.9996
vn -0.0297 -0.0274 -0.9992
vn 0.0575 0.0242 -0.9981
vn -0.2559 0.3493 -0.9014
vn -0.1343 0.3797 -0.9153
vn -0.0034 0.3973 -0.9177
vn -0.4586 0.2589 -0.8501
vn -0.3651 0.3082 -0.8785
vn -0.5977 0.1430 -0.7889
vn -0.5361 0.2033 -0.8193
vn -0.6321 0.1000 -0.7684
vn -0.6961 -0.1475 -0.7026
vn -0.6948 -0.0660 -0.7162
vn -0.6327 -0.3362 -0.6976
vn -0.6775 -0.2373 -0.6962
vn -0.6035 -0.3842 -0.6987
vn -0.0110 -0.7030 -0.7111
vn -0.2416 -0.6466 -0.7235
vn 0.4672 -0.6350 -0.6153
vn 0.2394 -0.7000 -0.6728
vn 0.7536 -0.4090 -0.5145
vn 0.6404 -0.5289 -0.5570
vn 0.8494 -0.1813 -0.4956
vn 0.8192 -0.2912 -0.4941
vn 0.8494 -0.0438 -0.5259
vn 0.8527 -0.0801 -0.5162
vn 0.5404 0.3107 -0.7819
vn 0.6469 0.2499 -0.7204
vn 0.1049 -0.0667 0.9922
vn 0.2765 0.3880 -0.8792
vn 0.4150 0.3576 -0.8366
vn 0.1347 0.4008 -0.9062
vn 0.1637 -0.0084 0.9865
vn -0.0163 -0.0865 0.9961
vn 0.1561 -0.0669 0.9855
vn -0.1469 0.0410 0.9883
vn 0.1280 0.0548 0.9903
vn -0.1589 -0.0252 0.9870
vn -0.0589 0.1016 0.9931
vn 0.0482 -0.0830 0.9954
vn -0.1773 0.0495 0.9829
vn 0.1453 -0.0405 0.9886
vn -0.0785 -0.0767 0.9940
vn 0.0957 -0.0935 0.9910
vn -0.1061 0.0675 0.9921
vn -0.1996 -0.0103 0.9798
vn 0.1577 0.0250 0.9872
vn 0.1923 -0.0305 0.9809
vn 0.1997 -0.0103 0.9798
vn -0.1654 0.0085 0.9862
vn -0.1284 -0.0816 0.9884
vn 0.0786 0.0767 0.9940
vn -0.0486 0.0837 0.9953
vn 0.1561 0.0668 0.9855
vn -0.1285 -0.0551 0.9902
vn 0.0315 -0.0097 0.9995
vn 0.0259 -0.0140 0.9996
vn -0.0370 -0.0014 0.9993
vn -0.0299 0.0028 0.9995
vn 0.0371 -0.0014 0.9993
vn 0.0718 -0.0111 0.9974
vn -0.0715 -0.0111 0.9974
vn 0.0329 0.0085 0.9994
vn 0.0299 0.0029 0.9995
vn -0.0314 -0.0097 0.9995
vn 0.0577 0.0243 0.9980
vn -0.0296 -0.0273 0.9992
vn 0.0126 0.0148 0.9998
vn 0.0226 0.0154 0.9996
vn -0.0000 -0.0161 0.9999
vn -0.0088 -0.0184 0.9998
vn -0.0139 0.0180 0.9997
vn -0.0077 0.0303 0.9995
vn 0.0059 0.0183 0.9998
vn 0.0088 -0.0184 0.9998
vn -0.0217 0.0153 0.9996
vn 0.0297 -0.0274 0.9992
vn -0.0575 0.0242 0.9981
vn 0.1347 0.3847 -0.9132
vn 0.2605 0.3577 -0.8968
vn 0.3927 0.0670 -0.9172
vn 0.0020 0.3980 -0.9174
vn 0.3755 0.3183 -0.8704
vn 0.4751 0.2692 -0.8378
vn 0.5582 0.2124 -0.8021
vn 0.6242 0.1500 -0.7667
vn 0.6744 0.0823 -0.7338
vn 0.7088 0.0097 -0.7053
vn 0.7273 -0.0689 -0.6829
vn 0.7279 -0.1545 -0.6681
vn 0.7069 -0.2483 -0.6622
vn 0.6577 -0.3510 -0.6665
vn -0.5739 -0.4080 -0.7100
vn 0.5210 -0.5085 -0.6856
vn 0.4333 -0.5687 -0.6992
vn 0.6269 -0.3991 -0.6692
vn 0.2413 -0.6575 -0.7138
vn 0.0063 -0.7028 -0.7114
vn -0.2400 -0.6878 -0.6851
vn -0.4577 -0.6158 -0.6413
vn -0.6207 -0.5093 -0.5961
vn -0.7269 -0.3926 -0.5634
vn -0.7881 -0.2792 -0.5485
vn -0.8158 -0.1739 -0.5516
vn -0.8178 -0.0770 -0.5704
vn -0.7982 0.0122 -0.6022
vn -0.7450 0.1178 -0.6566
vn -0.7001 0.1704 -0.6934
vn -0.7886 0.0407 -0.6135
vn -0.6211 0.2389 -0.7464
vn -0.5215 0.2986 -0.7993
vn 0.1284 0.0816 0.9884
vn -0.4039 0.3464 -0.8467
vn -0.2722 0.3796 -0.8842
vn -0.1349 0.3967 -0.9080
vn 0.1996 0.0103 0.9798
vn -0.0199 0.1058 0.9942
vn -0.1561 -0.0669 0.9855
vn -0.1776 -0.0496 0.9829
vn -0.1923 0.0305 0.9809
vn 0.0591 0.1016 0.9931
vn -0.0957 -0.0935 0.9910
vn -0.1923 -0.0305 0.9809
vn 0.1284 -0.0816 0.9884
vn 0.8624 0.3692 0.3464
vn 0.4698 -0.8094 0.3525
vn 0.1603 0.8472 0.5066
vn -0.9798 0.0505 0.1933
vn 0.9533 -0.2662 -0.1429
vn -0.1523 0.2623 0.9529
vn 0.3891 0.0615 0.9191
vn -0.1804 -0.9532 -0.2426
vn -0.3806 0.1230 0.9165
vn -0.5469 0.1527 0.8232
vn 0.2003 0.1955 0.9600
vn 0.1576 -0.1004 0.9824
vn -0.3891 -0.0616 0.9191
vn 0.9757 -0.0503 0.2134
vn -0.1177 -0.1149 0.9864
vn -0.6328 0.4028 0.6612
vt 0.078405 0.268547
vt 0.070334 0.277590
vt 0.079296 0.277590
vt 0.064182 0.267146
vt 0.061545 0.275842
vt 0.099128 0.073568
vt 0.084015 0.093897
vt 0.102163 0.078111
vt 0.095263 0.069710
vt 0.051579 0.260413
vt 0.039479 0.261104
vt 0.045816 0.267438
vt 0.042516 0.249373
vt 0.034503 0.253656
vt 0.105301 0.093991
vt 0.104219 0.099341
vt 0.105312 0.088529
vt 0.103138 0.255340
vt 0.103818 0.267437
vt 0.110156 0.261103
vt 0.092085 0.264402
vt 0.096366 0.272414
vt 0.080321 0.063521
vt 0.085677 0.064589
vt 0.074858 0.063522
vt 0.085465 0.197084
vt 0.096379 0.191823
vt 0.088100 0.188394
vt 0.098071 0.203817
vt 0.103827 0.196798
vt 0.050888 0.099278
vt 0.049838 0.093935
vt 0.052967 0.104316
vt 0.038372 0.235707
vt 0.029330 0.227640
vt 0.029330 0.236596
vt 0.039775 0.221497
vt 0.031081 0.218857
vt 0.095210 0.112761
vt 0.090664 0.115784
vt 0.099076 0.108908
vt 0.107138 0.214854
vt 0.118570 0.218847
vt 0.115140 0.210574
vt 0.111285 0.228523
vt 0.120317 0.227633
vt 0.052995 0.078100
vt 0.056035 0.073563
vt 0.050905 0.083144
vt 0.088085 0.275842
vt 0.090723 0.066676
vt 0.046512 0.208900
vt 0.045827 0.196800
vt 0.039490 0.203134
vt 0.057561 0.199836
vt 0.053280 0.191822
vt 0.074794 0.118924
vt 0.069436 0.117853
vt 0.080258 0.118926
vt 0.053265 0.272414
vt 0.104258 0.083163
vt 0.109881 0.242741
vt 0.115137 0.253654
vt 0.118567 0.245378
vt 0.069498 0.064582
vt 0.064449 0.066672
vt 0.071240 0.195686
vt 0.079312 0.186647
vt 0.070350 0.186646
vt 0.055991 0.108860
vt 0.059850 0.112722
vt 0.031074 0.245380
vt 0.102121 0.104379
vt 0.110163 0.203128
vt 0.049838 0.088491
vt 0.034510 0.210582
vt 0.085617 0.117869
vt 0.061560 0.188394
vt 0.064389 0.115762
vt 0.120318 0.236591
vt 0.059901 0.069701
vt 0.246726 0.107271
vt 0.240102 0.109949
vt 0.249407 0.093815
vt 0.172902 0.017288
vt 0.165592 0.026038
vt 0.159443 0.019960
vt 0.212734 0.148678
vt 0.206157 0.145886
vt 0.224146 0.141058
vt 0.118016 0.119930
vt 0.123510 0.117110
vt 0.125636 0.131340
vt 0.224163 0.032848
vt 0.230603 0.050556
vt 0.212757 0.025221
vt 0.112774 0.066618
vt 0.119399 0.063940
vt 0.110094 0.080074
vt 0.186597 0.156601
vt 0.200057 0.153929
vt 0.160851 0.149369
vt 0.249408 0.080094
vt 0.246734 0.066637
vt 0.146766 0.025212
vt 0.135354 0.032831
vt 0.135337 0.141043
vt 0.146743 0.148669
vt 0.233849 0.131355
vt 0.241476 0.119949
vt 0.200081 0.019970
vt 0.186623 0.017288
vt 0.110094 0.093796
vt 0.112767 0.107253
vt 0.241484 0.053961
vt 0.233864 0.042551
vt 0.125652 0.042534
vt 0.118025 0.053940
vt 0.159419 0.153920
vt 0.172876 0.156601
vt 0.130911 0.060829
vt 0.126759 0.070863
vt 0.234853 0.092380
vt 0.234852 0.081525
vt 0.124634 0.081507
vt 0.124635 0.092366
vt 0.232737 0.070881
vt 0.228584 0.060854
vt 0.126749 0.103014
vt 0.130901 0.113046
vt 0.222556 0.051828
vt 0.214882 0.044153
vt 0.153633 0.135785
vt 0.136931 0.122074
vt 0.144607 0.129750
vt 0.205859 0.038118
vt 0.195833 0.033966
vt 0.163663 0.139935
vt 0.185187 0.031839
vt 0.174333 0.031844
vt 0.195817 0.139943
vt 0.205843 0.135780
vt 0.174311 0.142060
vt 0.185166 0.142052
vt 0.163683 0.033949
vt 0.153657 0.038109
vt 0.214874 0.129757
vt 0.222545 0.122074
vt 0.144624 0.044129
vt 0.136951 0.051810
vt 0.228582 0.113055
vt 0.232730 0.103022
vt 0.043093 0.109078
vt 0.025745 0.121712
vt 0.025493 0.117422
vt 0.043271 0.053108
vt 0.025269 0.113132
vt 0.026315 0.035751
vt 0.026656 0.031461
vt 0.027025 0.027173
vt 0.025058 0.057228
vt 0.025250 0.052930
vt 0.071224 0.268540
vt 0.079725 0.090798
vt 0.046505 0.255336
vt 0.098055 0.260409
vt 0.092099 0.199835
vt 0.038373 0.228534
vt 0.109883 0.221483
vt 0.085447 0.267141
vt 0.051593 0.203830
vt 0.057549 0.264394
vt 0.107128 0.249369
vt 0.078422 0.195692
vt 0.039771 0.242743
vt 0.103148 0.208888
vt 0.042525 0.214870
vt 0.064198 0.197095
vt 0.111281 0.235699
vt 0.243273 0.080800
vt 0.226704 0.131294
vt 0.161220 0.026235
vt 0.173696 0.150118
vt 0.123510 0.117110
vt 0.217167 0.034300
vt 0.119399 0.063940
vt 0.042860 0.078888
vt 0.043645 0.131365
vt 0.027876 0.147390
vt 0.027455 0.143120
vt 0.024894 0.061528
vt 0.083729 0.091505
vt 0.243273 0.080800
vt 0.226704 0.131294
vt 0.173696 0.150118
vt 0.123510 0.117110
vt 0.119399 0.063940
vt 0.069271 0.086201
vt 0.240102 0.109949
vt 0.206157 0.145886
vt 0.123510 0.117110
vt 0.230603 0.050556
vt 0.119399 0.063940
vt 0.160851 0.149369
vt 0.024593 0.091652
vt 0.024668 0.095953
vt 0.043985 0.126398
vt 0.024545 0.087348
vt 0.024775 0.100254
vt 0.024911 0.104548
vt 0.025077 0.108840
vt 0.026029 0.126000
vt 0.026341 0.130284
vt 0.026684 0.134566
vt 0.027055 0.138845
vt 0.028278 0.014354
vt 0.027844 0.018613
vt 0.042939 0.075466
vt 0.028312 0.151640
vt 0.027423 0.022890
vt 0.026006 0.040042
vt 0.025723 0.044336
vt 0.025472 0.048632
vt 0.024762 0.065830
vt 0.024658 0.070133
vt 0.024585 0.074437
vt 0.024542 0.078742
vt 0.024530 0.083045
vt 0.043118 0.048403
vt 0.042808 0.105626
s 1
usemtl Car
f 57/1/1 26/2/1 4/3/1
f 26/2/2 58/4/2 5/5/2
f 72/6/3 75/7/4 58/8/5
f 75/7/4 72/6/3 57/9/6
f 47/10/7 28/11/7 6/12/7
f 28/11/8 48/13/8 8/14/8
f 60/15/9 75/7/10 48/16/11
f 75/7/10 60/15/9 47/17/12
f 55/18/13 40/19/13 19/20/13
f 40/19/14 41/21/14 3/22/14
f 70/23/15 75/7/16 41/24/17
f 75/7/16 70/23/15 55/25/18
f 45/26/19 35/27/19 14/28/20
f 35/27/21 46/29/21 15/30/21
f 59/31/22 75/7/23 46/32/24
f 75/7/23 59/31/22 45/33/25
f 50/34/26 30/35/27 9/36/26
f 30/35/28 52/37/28 10/38/28
f 64/39/29 75/7/30 52/40/31
f 75/7/30 64/39/29 50/41/32
f 49/42/33 37/43/33 16/44/34
f 37/43/35 51/45/35 17/46/35
f 63/47/36 75/7/37 51/48/38
f 75/7/37 63/47/36 49/49/39
f 41/21/40 25/50/40 3/22/40
f 25/50/41 57/1/41 4/3/42
f 69/51/43 75/7/44 57/9/45
f 75/7/44 69/51/43 41/24/46
f 54/52/47 32/53/48 11/54/49
f 32/53/50 56/55/50 12/56/50
f 68/57/51 75/7/52 56/58/53
f 75/7/52 68/57/51 54/59/54
f 58/4/55 27/60/55 5/5/55
f 27/60/56 47/10/56 6/12/57
f 74/61/58 75/7/59 47/17/60
f 75/7/59 74/61/58 58/8/61
f 53/62/62 39/63/62 18/64/63
f 39/63/64 55/18/65 19/20/64
f 67/65/66 75/7/67 55/25/68
f 75/7/67 67/65/66 53/66/69
f 42/67/70 34/68/70 13/69/70
f 34/68/71 45/26/71 14/28/72
f 73/70/73 75/7/74 45/33/75
f 75/7/74 73/70/73 42/71/76
f 48/13/77 29/72/77 8/14/77
f 29/72/78 50/34/78 9/36/78
f 62/73/79 75/7/80 50/41/81
f 75/7/80 62/73/79 48/16/82
f 46/29/83 36/74/83 15/30/83
f 36/74/84 49/42/84 16/44/85
f 61/75/86 75/7/87 49/49/88
f 75/7/87 61/75/86 46/32/89
f 52/37/90 31/76/90 10/38/91
f 31/76/92 54/52/93 11/54/92
f 66/77/94 75/7/95 54/59/96
f 75/7/95 66/77/94 52/40/97
f 56/55/98 33/78/99 12/56/99
f 33/78/100 42/67/100 13/69/100
f 71/79/101 75/7/102 42/71/103
f 75/7/102 71/79/101 56/58/104
f 51/45/105 38/80/105 17/46/106
f 38/80/107 53/62/107 18/64/108
f 65/81/109 75/7/110 53/66/111
f 75/7/110 65/81/109 51/48/112
f 27/82/113 21/83/114 6/84/115
f 32/85/116 44/86/117 12/87/118
f 25/88/119 20/89/120 4/90/121
f 37/91/122 23/92/123 17/93/124
f 30/94/125 22/95/126 10/96/127
f 35/97/128 43/98/129 15/99/130
f 40/100/131 20/89/132 3/101/133
f 40/100/131 24/102/134 20/89/132
f 28/103/135 22/95/136 8/104/137
f 28/103/135 21/83/138 22/95/136
f 33/105/139 44/86/140 13/106/141
f 38/107/142 24/102/143 18/108/144
f 26/109/145 21/83/146 5/110/147
f 26/109/145 20/89/148 21/83/146
f 31/111/149 44/86/150 11/112/151
f 31/111/149 22/95/152 44/86/150
f 36/113/153 23/92/154 16/114/155
f 36/113/153 43/98/156 23/92/154
f 29/115/157 22/95/158 9/116/159
f 34/117/160 43/98/161 14/118/162
f 34/117/160 44/86/163 43/98/161
f 39/119/164 24/102/165 19/120/166
f 43/98/167 45/121/168 59/122/169
f 22/95/170 47/123/171 60/124/172
f 23/92/173 46/125/174 61/126/175
f 22/95/170 48/127/176 62/128/177
f 23/92/173 49/129/178 63/130/179
f 22/95/170 50/131/180 64/132/181
f 23/92/173 53/133/182 24/102/183
f 23/92/173 51/134/184 65/135/185
f 44/86/186 52/136/187 66/137/188
f 24/102/183 53/133/182 67/138/189
f 44/86/186 54/139/190 68/140/191
f 20/89/192 41/141/193 69/142/194
f 20/89/192 55/143/195 70/144/196
f 44/86/186 56/145/197 71/146/198
f 21/83/199 57/147/200 72/148/201
f 43/98/167 42/149/202 73/150/203
f 21/83/199 58/151/204 74/152/205
f 80/153/206 81/154/207 100/155/208
f 80/156/206 100/155/208 79/157/209
f 80/156/210 87/158/211 106/159/212
f 80/156/210 106/159/212 86/160/213
f 80/156/214 109/161/215 89/162/216
f 98/2/64 130/1/64 77/3/64
f 98/2/217 131/4/217 145/163/218
f 145/6/219 148/164/220 130/9/221
f 100/11/222 120/10/222 79/12/222
f 100/11/223 121/13/223 133/165/224
f 133/15/225 148/164/226 120/17/227
f 112/19/41 128/18/41 92/20/41
f 112/19/40 113/21/40 143/166/228
f 143/23/229 148/164/230 128/25/231
f 107/27/232 118/26/232 87/28/232
f 107/27/233 119/29/233 132/167/234
f 132/31/235 148/164/236 118/33/237
f 102/35/238 123/34/239 82/36/239
f 102/35/240 125/37/240 137/168/240
f 137/39/241 148/164/242 123/41/243
f 109/43/244 122/42/244 89/44/245
f 109/43/246 124/45/246 136/169/247
f 136/47/248 148/164/249 122/49/250
f 97/50/14 113/21/14 76/22/14
f 97/50/13 130/1/13 142/170/251
f 142/51/252 148/164/253 113/24/254
f 104/53/255 127/52/100 84/54/256
f 104/53/99 129/55/99 141/171/99
f 141/57/257 148/164/258 127/59/259
f 99/60/260 131/4/260 78/5/260
f 99/60/261 120/10/261 147/172/261
f 147/61/262 148/164/263 131/8/264
f 111/63/265 126/62/265 91/64/266
f 111/63/1 128/18/267 140/173/267
f 140/65/268 148/164/269 126/66/270
f 106/68/92 114/67/92 86/69/92
f 106/68/271 118/26/271 146/174/271
f 146/70/272 148/164/273 114/71/274
f 101/72/275 121/13/275 81/14/275
f 101/72/276 123/34/276 135/175/276
f 135/73/277 148/164/278 121/16/279
f 108/74/280 119/29/280 88/30/280
f 108/74/281 122/42/281 134/176/281
f 134/75/282 148/164/283 119/32/284
f 103/76/285 125/37/285 83/38/286
f 103/76/70 127/52/287 139/177/287
f 139/77/288 148/164/289 125/40/290
f 105/78/50 129/55/291 85/56/50
f 105/78/47 114/67/47 144/178/47
f 144/79/292 148/164/293 129/58/53
f 110/80/294 124/45/294 90/46/295
f 110/80/296 126/62/296 138/179/296
f 138/81/297 148/164/298 124/48/299
f 116/180/300 99/82/301 79/84/302
f 99/82/301 93/181/303 78/110/304
f 117/182/305 104/85/306 85/87/307
f 104/85/306 117/182/305 84/112/308
f 93/181/309 97/88/310 77/90/311
f 97/88/310 96/183/312 76/101/313
f 95/184/314 109/91/315 90/93/316
f 109/91/315 95/184/314 89/114/317
f 94/185/318 102/94/319 83/96/320
f 102/94/319 94/185/318 82/116/321
f 115/186/322 107/97/323 88/99/324
f 107/97/323 115/186/322 87/118/325
f 96/183/326 112/100/327 76/101/328
f 112/100/327 96/183/326 92/120/329
f 116/180/330 100/103/331 81/104/332
f 100/103/331 116/180/330 79/84/333
f 117/182/334 105/105/335 86/106/336
f 105/105/335 117/182/334 85/87/337
f 96/183/338 110/107/339 91/108/340
f 110/107/339 95/184/341 90/93/342
f 93/181/343 98/109/344 78/110/345
f 98/109/344 93/181/343 77/90/346
f 117/182/347 103/111/348 84/112/349
f 103/111/348 94/185/350 83/96/162
f 95/184/351 108/113/352 89/114/353
f 108/113/352 115/186/354 88/99/355
f 94/185/156 101/115/153 82/116/356
f 101/115/153 116/180/154 81/104/155
f 115/186/357 106/117/358 87/118/359
f 106/117/358 117/182/360 86/106/361
f 96/183/362 111/119/363 92/120/364
f 111/119/363 96/183/362 91/108/365
f 95/184/366 119/125/367 115/186/368
f 123/131/369 116/180/173 94/185/370
f 126/133/371 95/184/366 96/183/372
f 127/139/373 94/185/370 117/182/374
f 93/181/375 113/141/376 96/183/372
f 115/186/368 114/149/377 117/182/374
f 116/180/173 131/151/378 93/181/375
f 153/187/379 154/154/380 173/155/381
f 153/188/382 157/189/383 176/190/384
f 153/187/385 163/191/386 182/161/387
f 153/187/385 182/161/387 162/162/388
f 171/2/389 203/1/389 150/3/389
f 171/2/390 204/4/390 218/163/391
f 218/6/392 221/192/393 203/9/394
f 173/11/395 193/10/395 152/12/395
f 173/11/396 194/13/396 206/165/397
f 206/15/398 221/192/399 193/17/400
f 185/19/401 201/18/401 165/20/401
f 185/19/402 186/21/402 216/166/403
f 216/23/404 221/192/405 201/25/406
f 180/27/407 191/26/407 160/28/408
f 180/27/409 192/29/409 205/167/410
f 205/31/411 221/192/412 191/33/413
f 175/35/414 196/34/415 155/36/415
f 175/35/416 198/37/416 210/168/416
f 210/39/417 221/192/418 196/41/419
f 182/43/420 195/42/420 162/44/421
f 182/43/422 197/45/422 209/169/423
f 209/47/424 221/192/425 195/49/426
f 170/50/427 186/21/427 149/22/427
f 170/50/428 203/1/428 215/170/429
f 215/51/430 221/192/431 186/24/432
f 177/53/433 200/52/434 157/54/435
f 177/53/436 202/55/436 214/171/436
f 214/57/437 221/192/438 200/59/439
f 172/60/440 204/4/440 151/5/440
f 172/60/441 193/10/441 220/172/441
f 220/61/442 221/192/443 204/8/444
f 184/63/445 199/62/445 164/64/446
f 184/63/447 201/18/448 213/173/448
f 213/65/449 221/192/450 199/66/451
f 179/68/452 187/67/452 159/69/452
f 179/68/453 191/26/453 219/174/453
f 219/70/454 221/192/455 187/71/456
f 174/72/457 194/13/457 154/14/457
f 174/72/458 196/34/458 208/175/458
f 208/73/459 221/192/460 194/16/461
f 181/74/462 192/29/462 161/30/462
f 181/74/463 195/42/463 207/176/463
f 207/75/464 221/192/465 192/32/466
f 176/76/467 198/37/467 156/38/468
f 176/76/469 200/52/470 212/177/470
f 212/77/471 221/192/472 198/40/473
f 178/78/474 202/55/475 158/56/474
f 178/78/476 187/67/476 217/178/476
f 217/79/477 221/192/478 202/58/479
f 183/80/480 197/45/480 163/46/481
f 183/80/482 199/62/482 211/179/482
f 211/81/483 221/192/484 197/48/485
f 189/193/486 172/82/487 152/84/488
f 172/82/487 166/194/489 151/110/490
f 190/182/491 177/85/492 158/87/493
f 177/85/492 190/182/491 157/112/494
f 166/194/495 170/88/496 150/90/497
f 170/88/496 169/195/498 149/101/499
f 168/196/500 182/91/501 163/93/502
f 182/91/501 168/196/500 162/114/503
f 167/185/504 175/94/505 156/96/506
f 175/94/505 167/185/504 155/116/507
f 188/197/508 180/97/509 161/99/510
f 180/97/509 188/197/508 160/118/511
f 169/195/512 185/100/513 149/101/514
f 185/100/513 169/195/512 165/120/515
f 189/193/516 173/103/517 154/104/518
f 173/103/517 189/193/516 152/84/519
f 190/182/520 178/105/521 159/106/522
f 178/105/521 190/182/520 158/87/523
f 169/195/524 183/107/525 164/108/526
f 183/107/525 168/196/527 163/93/528
f 166/194/529 171/109/530 151/110/531
f 171/109/530 166/194/529 150/90/532
f 190/182/533 176/111/534 157/112/535
f 176/111/534 167/185/536 156/96/537
f 168/196/538 181/113/539 162/114/540
f 181/113/539 188/197/541 161/99/542
f 167/185/543 174/115/544 155/116/545
f 174/115/544 189/193/546 154/104/547
f 188/197/548 179/117/549 160/118/550
f 179/117/549 190/182/551 159/106/552
f 169/195/553 184/119/554 165/120/555
f 184/119/554 169/195/553 164/108/556
f 168/196/557 192/125/558 188/197/559
f 196/131/560 189/193/561 167/185/562
f 199/133/563 168/196/557 169/195/564
f 200/139/565 167/185/562 190/182/566
f 166/194/567 186/141/568 169/195/564
f 188/197/559 187/149/569 190/182/566
f 189/193/561 204/151/570 166/194/567
f 276/1/447 245/2/447 223/3/447
f 245/2/571 277/4/571 224/5/571
f 291/6/572 294/198/573 277/8/574
f 294/198/573 291/6/572 276/9/575
f 266/10/576 247/11/576 225/12/576
f 247/11/577 267/13/577 227/14/577
f 279/15/578 294/198/579 267/16/580
f 294/198/579 279/15/578 266/17/581
f 274/18/428 259/19/428 238/20/428
f 259/19/427 260/21/427 222/22/427
f 289/23/582 294/198/583 260/24/584
f 294/198/583 289/23/582 274/25/585
f 264/26/586 254/27/586 233/28/587
f 254/27/588 265/29/588 234/30/588
f 278/31/589 294/198/590 265/32/591
f 294/198/590 278/31/589 264/33/592
f 269/34/593 249/35/594 228/36/593
f 249/35/595 271/37/595 229/38/595
f 283/39/596 294/198/597 271/40/598
f 294/198/597 283/39/596 269/41/599
f 268/42/600 256/43/600 235/44/601
f 256/43/602 270/45/602 236/46/602
f 282/47/603 294/198/604 270/48/605
f 294/198/604 282/47/603 268/49/606
f 260/21/402 244/50/402 222/22/402
f 244/50/401 276/1/401 223/3/607
f 288/51/608 294/198/609 276/9/610
f 294/198/609 288/51/608 260/24/611
f 273/52/476 251/53/612 230/54/613
f 251/53/474 275/55/474 231/56/474
f 287/57/614 294/198/615 275/58/479
f 294/198/615 287/57/614 273/59/616
f 277/4/617 246/60/617 224/5/617
f 246/60/618 266/10/618 225/12/619
f 293/61/620 294/198/621 266/17/622
f 294/198/621 293/61/620 277/8/623
f 272/62/624 258/63/624 237/64/625
f 258/63/389 274/18/626 238/20/389
f 286/65/627 294/198/628 274/25/629
f 294/198/628 286/65/627 272/66/630
f 261/67/469 253/68/469 232/69/469
f 253/68/631 264/26/631 233/28/631
f 292/70/632 294/198/633 264/33/634
f 294/198/633 292/70/632 261/71/635
f 267/13/636 248/72/636 227/14/636
f 248/72/637 269/34/637 228/36/637
f 281/73/638 294/198/639 269/41/640
f 294/198/639 281/73/638 267/16/641
f 265/29/642 255/74/642 234/30/642
f 255/74/643 268/42/643 235/44/644
f 280/75/645 294/198/646 268/49/647
f 294/198/646 280/75/645 265/32/648
f 271/37/649 250/76/649 229/38/650
f 250/76/452 273/52/651 230/54/452
f 285/77/652 294/198/653 273/59/654
f 294/198/653 285/77/652 271/40/655
f 275/55/656 252/78/436 231/56/436
f 252/78/434 261/67/434 232/69/434
f 290/79/657 294/198/658 261/71/659
f 294/198/658 290/79/657 275/58/660
f 270/45/661 257/80/661 236/46/662
f 257/80/663 272/62/663 237/64/664
f 284/81/665 294/198/666 272/66/667
f 294/198/666 284/81/665 270/48/668
f 246/82/669 240/199/670 225/84/671
f 251/85/672 263/86/673 231/87/674
f 244/88/675 239/200/676 223/90/677
f 256/91/678 242/201/679 236/93/680
f 249/94/681 241/202/682 229/96/683
f 254/97/684 262/203/504 234/99/685
f 259/100/686 239/200/687 222/101/688
f 259/100/686 243/204/689 239/200/687
f 247/103/690 241/202/691 227/104/692
f 247/103/690 240/199/693 241/202/691
f 252/105/694 263/86/695 232/106/696
f 257/107/697 243/204/698 237/108/699
f 245/109/700 240/199/701 224/110/702
f 245/109/700 239/200/703 240/199/701
f 250/111/704 263/86/705 230/112/706
f 250/111/704 241/202/707 263/86/705
f 255/113/544 242/201/546 235/114/547
f 255/113/544 262/203/543 242/201/546
f 248/115/708 241/202/709 228/116/710
f 253/117/711 262/203/712 233/118/713
f 253/117/711 263/86/714 262/203/712
f 258/119/715 243/204/716 238/120/717
f 262/203/718 264/121/719 278/122/720
f 241/202/721 266/123/722 279/124/723
f 242/201/561 265/125/724 280/126/725
f 241/202/721 267/127/726 281/128/727
f 242/201/561 268/129/728 282/130/729
f 241/202/721 269/131/730 283/132/731
f 242/201/561 272/133/732 243/204/733
f 242/201/561 270/134/734 284/135/735
f 263/86/736 271/136/737 285/137/738
f 243/204/733 272/133/732 286/138/739
f 263/86/736 273/139/740 287/140/741
f 239/200/742 260/141/743 288/142/744
f 239/200/742 274/143/745 289/144/746
f 263/86/736 275/145/747 290/146/748
f 240/199/749 276/147/750 291/148/751
f 262/203/718 261/149/752 292/150/753
f 240/199/749 277/151/754 293/152/755
f 25/205/756 4/206/757 7/207/758
f 3/208/759 25/205/756 7/207/758
f 26/209/760 5/210/761 7/207/758
f 4/206/757 26/209/760 7/207/758
f 27/211/762 6/157/763 7/207/758
f 5/210/761 27/211/762 7/207/758
f 28/155/764 8/154/765 7/207/766
f 7/207/766 6/157/767 28/155/764
f 29/212/768 9/213/769 7/207/766
f 8/154/765 29/212/768 7/207/766
f 30/214/770 10/215/771 7/207/766
f 9/213/769 30/214/770 7/207/766
f 31/190/772 11/189/773 7/207/766
f 10/215/771 31/190/772 7/207/766
f 32/216/774 12/217/775 7/218/766
f 11/189/773 32/219/774 7/207/766
f 33/220/776 13/160/777 7/218/766
f 12/217/775 33/220/776 7/218/766
f 34/159/778 14/158/779 7/218/758
f 7/218/758 13/160/780 34/159/778
f 35/221/781 15/222/782 7/218/758
f 14/158/779 35/221/781 7/218/758
f 36/223/783 16/162/784 7/218/758
f 15/222/782 36/223/783 7/218/758
f 37/161/785 17/191/786 7/218/758
f 16/162/784 37/161/785 7/218/758
f 38/224/787 18/225/788 7/207/758
f 17/191/786 38/224/787 7/207/758
f 57/1/1 72/163/1 26/2/1
f 26/2/2 72/163/266 58/4/2
f 39/226/789 19/227/790 7/207/758
f 18/225/788 39/226/789 7/207/758
f 40/228/791 3/208/759 7/207/758
f 19/227/790 40/228/791 7/207/758
f 47/10/7 60/165/7 28/11/7
f 28/11/8 60/165/792 48/13/8
f 55/18/13 70/166/13 40/19/13
f 40/19/14 70/166/793 41/21/14
f 45/26/19 59/167/794 35/27/19
f 35/27/21 59/167/795 46/29/21
f 50/34/26 64/168/27 30/35/27
f 30/35/28 64/168/28 52/37/28
f 49/42/33 63/169/33 37/43/33
f 37/43/35 63/169/796 51/45/35
f 41/21/40 69/170/40 25/50/40
f 25/50/41 69/170/797 57/1/41
f 54/52/47 68/171/47 32/53/48
f 32/53/50 68/171/50 56/55/50
f 58/4/55 74/172/55 27/60/55
f 27/60/56 74/172/56 47/10/56
f 53/62/62 67/173/62 39/63/62
f 39/63/64 67/173/65 55/18/65
f 42/67/70 73/174/798 34/68/70
f 34/68/71 73/174/71 45/26/71
f 48/13/77 62/175/77 29/72/77
f 29/72/78 62/175/78 50/34/78
f 46/29/83 61/176/799 36/74/83
f 36/74/84 61/176/84 49/42/84
f 52/37/90 66/177/800 31/76/90
f 31/76/92 66/177/93 54/52/93
f 56/55/98 71/178/98 33/78/99
f 33/78/100 71/178/100 42/67/100
f 51/45/105 65/179/105 38/80/105
f 38/80/107 65/179/107 53/62/107
f 27/82/113 5/110/801 21/83/114
f 32/85/116 11/112/802 44/86/117
f 25/88/119 3/101/803 20/89/120
f 37/91/122 16/114/804 23/92/123
f 30/94/125 9/116/805 22/95/126
f 35/97/128 14/118/320 43/98/129
f 40/100/131 19/120/806 24/102/134
f 28/103/135 6/84/807 21/83/138
f 33/105/139 12/87/808 44/86/140
f 38/107/142 23/92/809 24/102/143
f 38/107/142 17/93/302 23/92/809
f 26/109/145 4/90/810 20/89/148
f 31/111/149 10/96/811 22/95/152
f 36/113/153 15/99/812 43/98/156
f 29/115/157 8/104/813 22/95/158
f 34/117/160 13/106/814 44/86/163
f 39/119/164 18/108/815 24/102/165
f 43/98/167 59/122/169 46/125/174
f 22/95/170 60/124/172 48/127/176
f 22/95/170 21/83/199 47/123/171
f 23/92/173 61/126/175 49/129/178
f 23/92/173 43/98/167 46/125/174
f 22/95/170 62/128/177 50/131/180
f 23/92/173 63/130/179 51/134/184
f 22/95/170 64/132/181 52/136/187
f 23/92/173 65/135/185 53/133/182
f 44/86/186 66/137/188 54/139/190
f 44/86/186 22/95/170 52/136/187
f 24/102/183 67/138/189 55/143/195
f 44/86/186 68/140/191 56/145/197
f 20/89/192 69/142/194 57/147/200
f 20/89/192 70/144/196 41/141/193
f 20/89/192 24/102/183 55/143/195
f 44/86/186 71/146/198 42/149/202
f 21/83/199 72/148/201 58/151/204
f 21/83/199 20/89/192 57/147/200
f 43/98/167 73/150/203 45/121/168
f 43/98/167 44/86/186 42/149/202
f 21/83/199 74/152/205 47/123/171
f 80/156/214 77/206/816 97/205/817
f 80/156/214 97/205/817 76/208/818
f 80/156/214 78/210/819 98/209/820
f 80/156/214 98/209/820 77/206/816
f 80/156/214 79/157/821 99/211/822
f 80/156/214 99/211/822 78/210/819
f 80/153/206 82/213/823 101/212/824
f 80/153/206 101/212/824 81/154/207
f 80/153/206 83/215/825 102/214/826
f 80/153/206 102/214/826 82/213/823
f 80/153/206 84/189/827 103/190/828
f 80/153/206 103/190/828 83/215/825
f 80/156/206 85/217/829 104/216/830
f 80/153/206 104/219/830 84/189/827
f 80/156/206 86/160/831 105/220/832
f 80/156/206 105/220/832 85/217/829
f 80/156/210 88/222/833 107/221/834
f 80/156/210 107/221/834 87/158/211
f 80/156/210 89/162/835 108/223/836
f 80/156/210 108/223/836 88/222/833
f 80/156/214 90/191/837 109/161/215
f 80/156/214 91/225/838 110/224/839
f 80/156/214 110/224/839 90/191/837
f 98/2/64 145/163/64 130/1/64
f 98/2/217 78/5/217 131/4/217
f 145/6/219 131/8/840 148/164/220
f 80/156/214 92/227/841 111/226/842
f 80/156/214 111/226/842 91/225/838
f 80/156/214 76/208/818 112/228/843
f 80/156/214 112/228/843 92/227/841
f 100/11/222 133/165/222 120/10/222
f 100/11/223 81/14/223 121/13/223
f 133/15/225 121/16/844 148/164/226
f 112/19/41 143/166/41 128/18/41
f 112/19/40 76/22/40 113/21/40
f 143/23/229 113/24/845 148/164/230
f 107/27/232 132/167/846 118/26/232
f 107/27/233 88/30/233 119/29/233
f 132/31/235 119/32/847 148/164/236
f 102/35/238 137/168/238 123/34/239
f 102/35/240 83/38/240 125/37/240
f 137/39/241 125/40/848 148/164/242
f 109/43/244 136/169/244 122/42/244
f 109/43/246 90/46/246 124/45/246
f 136/47/248 124/48/849 148/164/249
f 97/50/14 142/170/14 113/21/14
f 97/50/13 77/3/850 130/1/13
f 142/51/252 130/9/851 148/164/253
f 104/53/255 141/171/100 127/52/100
f 104/53/99 85/56/99 129/55/99
f 141/57/257 129/58/104 148/164/258
f 99/60/260 147/172/260 131/4/260
f 99/60/261 79/12/852 120/10/261
f 147/61/262 120/17/853 148/164/263
f 111/63/265 140/173/265 126/62/265
f 111/63/1 92/20/1 128/18/267
f 140/65/268 128/25/854 148/164/269
f 106/68/92 146/174/855 114/67/92
f 106/68/271 87/28/271 118/26/271
f 146/70/272 118/33/856 148/164/273
f 101/72/275 135/175/857 121/13/275
f 101/72/276 82/36/276 123/34/276
f 135/73/277 123/41/858 148/164/278
f 108/74/280 134/176/859 119/29/280
f 108/74/281 89/44/860 122/42/281
f 134/75/282 122/49/861 148/164/283
f 103/76/285 139/177/862 125/37/285
f 103/76/70 84/54/70 127/52/287
f 139/77/288 127/59/863 148/164/289
f 105/78/50 144/178/291 129/55/291
f 105/78/47 86/69/47 114/67/47
f 144/79/292 114/71/864 148/164/293
f 110/80/294 138/179/294 124/45/294
f 110/80/296 91/64/865 126/62/296
f 138/81/297 126/66/866 148/164/298
f 99/82/301 116/180/300 93/181/303
f 97/88/310 93/181/309 96/183/312
f 96/183/338 95/184/341 110/107/339
f 117/182/347 94/185/350 103/111/348
f 108/113/352 95/184/351 115/186/354
f 94/185/156 116/180/154 101/115/153
f 106/117/358 115/186/357 117/182/360
f 119/125/367 132/122/867 115/186/368
f 115/186/368 132/122/867 118/121/868
f 121/127/869 133/124/870 116/180/173
f 116/180/173 133/124/870 120/123/184
f 122/129/871 134/126/872 95/184/366
f 95/184/366 134/126/872 119/125/367
f 123/131/369 135/128/873 116/180/173
f 116/180/173 135/128/873 121/127/869
f 124/134/874 136/130/875 95/184/366
f 95/184/366 136/130/875 122/129/871
f 125/136/168 137/132/876 94/185/370
f 94/185/370 137/132/876 123/131/369
f 126/133/371 138/135/877 95/184/366
f 95/184/366 138/135/877 124/134/874
f 127/139/373 139/137/878 94/185/370
f 94/185/370 139/137/878 125/136/168
f 128/143/879 140/138/880 96/183/372
f 96/183/372 140/138/880 126/133/371
f 129/145/881 141/140/882 117/182/374
f 117/182/374 141/140/882 127/139/373
f 130/147/883 142/142/884 93/181/375
f 93/181/375 142/142/884 113/141/376
f 113/141/376 143/144/885 96/183/372
f 96/183/372 143/144/885 128/143/879
f 114/149/377 144/146/886 117/182/374
f 117/182/374 144/146/886 129/145/881
f 131/151/378 145/148/887 93/181/375
f 93/181/375 145/148/887 130/147/883
f 118/121/868 146/150/888 115/186/368
f 115/186/368 146/150/888 114/149/377
f 120/123/184 147/152/889 116/180/173
f 116/180/173 147/152/889 131/151/378
f 153/187/385 150/206/890 170/205/891
f 153/187/385 170/205/891 149/208/892
f 153/187/385 151/210/893 171/209/894
f 153/187/385 171/209/894 150/206/890
f 153/187/385 152/157/895 172/211/896
f 153/187/385 172/211/896 151/210/893
f 153/187/385 173/155/897 152/157/895
f 153/187/379 155/213/898 174/212/899
f 153/187/379 174/212/899 154/154/380
f 153/187/379 156/215/900 175/214/901
f 153/187/379 175/214/901 155/213/898
f 153/188/379 176/190/902 156/215/900
f 153/187/382 158/217/903 177/216/904
f 153/188/382 177/219/904 157/189/383
f 153/187/382 159/160/905 178/220/906
f 153/187/382 178/220/906 158/217/903
f 153/187/382 160/158/907 179/159/908
f 153/187/382 179/159/908 159/160/905
f 153/187/382 161/222/909 180/221/910
f 153/187/382 180/221/910 160/158/907
f 153/187/382 162/162/911 181/223/912
f 153/187/382 181/223/912 161/222/909
f 153/187/385 164/225/913 183/224/914
f 153/187/385 183/224/914 163/191/386
f 171/2/389 218/163/389 203/1/389
f 171/2/390 151/5/390 204/4/390
f 218/6/392 204/8/915 221/192/393
f 153/187/385 165/227/916 184/226/917
f 153/187/385 184/226/917 164/225/913
f 153/187/385 149/208/892 185/228/918
f 153/187/385 185/228/918 165/227/916
f 173/11/395 206/165/395 193/10/395
f 173/11/396 154/14/396 194/13/396
f 206/15/398 194/16/919 221/192/399
f 185/19/401 216/166/401 201/18/401
f 185/19/402 149/22/402 186/21/402
f 216/23/404 186/24/920 221/192/405
f 180/27/407 205/167/921 191/26/407
f 180/27/409 161/30/409 192/29/409
f 205/31/411 192/32/922 221/192/412
f 175/35/414 210/168/414 196/34/415
f 175/35/416 156/38/416 198/37/416
f 210/39/417 198/40/923 221/192/418
f 182/43/420 209/169/420 195/42/420
f 182/43/422 163/46/422 197/45/422
f 209/47/424 197/48/924 221/192/425
f 170/50/427 215/170/427 186/21/427
f 170/50/428 150/3/925 203/1/428
f 215/51/430 203/9/926 221/192/431
f 177/53/433 214/171/434 200/52/434
f 177/53/436 158/56/436 202/55/436
f 214/57/437 202/58/660 221/192/438
f 172/60/440 220/172/440 204/4/440
f 172/60/441 152/12/927 193/10/441
f 220/61/442 193/17/928 221/192/443
f 184/63/445 213/173/445 199/62/445
f 184/63/447 165/20/447 201/18/448
f 213/65/449 201/25/929 221/192/450
f 179/68/452 219/174/930 187/67/452
f 179/68/453 160/28/453 191/26/453
f 219/70/454 191/33/931 221/192/455
f 174/72/457 208/175/932 194/13/457
f 174/72/458 155/36/458 196/34/458
f 208/73/459 196/41/933 221/192/460
f 181/74/462 207/176/934 192/29/462
f 181/74/463 162/44/935 195/42/463
f 207/75/464 195/49/936 221/192/465
f 176/76/467 212/177/937 198/37/467
f 176/76/469 157/54/469 200/52/470
f 212/77/471 200/59/938 221/192/472
f 178/78/474 217/178/475 202/55/475
f 178/78/476 159/69/476 187/67/476
f 217/79/477 187/71/939 221/192/478
f 183/80/480 211/179/480 197/45/480
f 183/80/482 164/64/940 199/62/482
f 211/81/483 199/66/941 221/192/484
f 172/82/487 189/193/486 166/194/489
f 170/88/496 166/194/495 169/195/498
f 169/195/524 168/196/527 183/107/525
f 190/182/533 167/185/536 176/111/534
f 181/113/539 168/196/538 188/197/541
f 167/185/543 189/193/546 174/115/544
f 179/117/549 188/197/548 190/182/551
f 192/125/558 205/122/942 188/197/559
f 188/197/559 205/122/942 191/121/943
f 194/127/944 206/124/945 189/193/561
f 189/193/561 206/124/945 193/123/734
f 195/129/946 207/126/947 168/196/557
f 168/196/557 207/126/947 192/125/558
f 196/131/560 208/128/948 189/193/561
f 189/193/561 208/128/948 194/127/944
f 197/134/949 209/130/950 168/196/557
f 168/196/557 209/130/950 195/129/946
f 198/136/719 210/132/951 167/185/562
f 167/185/562 210/132/951 196/131/560
f 199/133/563 211/135/952 168/196/557
f 168/196/557 211/135/952 197/134/949
f 200/139/565 212/137/953 167/185/562
f 167/185/562 212/137/953 198/136/719
f 201/143/954 213/138/955 169/195/564
f 169/195/564 213/138/955 199/133/563
f 202/145/956 214/140/957 190/182/566
f 190/182/566 214/140/957 200/139/565
f 203/147/958 215/142/959 166/194/567
f 166/194/567 215/142/959 186/141/568
f 186/141/568 216/144/960 169/195/564
f 169/195/564 216/144/960 201/143/954
f 187/149/569 217/146/961 190/182/566
f 190/182/566 217/146/961 202/145/956
f 204/151/570 218/148/962 166/194/567
f 166/194/567 218/148/962 203/147/958
f 191/121/943 219/150/963 188/197/559
f 188/197/559 219/150/963 187/149/569
f 193/123/734 220/152/964 189/193/561
f 189/193/561 220/152/964 204/151/570
f 244/205/965 223/206/966 226/229/967
f 222/208/968 244/205/965 226/229/967
f 245/209/969 224/210/970 226/230/967
f 223/206/966 245/209/969 226/230/967
f 246/211/971 225/157/972 226/230/967
f 224/210/970 246/211/971 226/230/967
f 247/155/973 227/154/974 226/230/967
f 225/157/972 247/155/973 226/230/967
f 248/212/975 228/213/976 226/230/967
f 227/154/974 248/212/975 226/230/967
f 249/214/977 229/215/978 226/230/967
f 228/213/976 249/214/977 226/230/967
f 226/230/979 250/190/980 230/189/981
f 229/215/978 250/190/982 226/230/967
f 251/216/983 231/217/984 226/229/979
f 230/189/981 251/219/983 226/230/979
f 252/220/985 232/160/986 226/229/979
f 231/217/984 252/220/985 226/229/979
f 253/159/987 233/158/988 226/229/979
f 232/160/986 253/159/987 226/229/979
f 254/221/989 234/222/990 226/229/979
f 233/158/988 254/221/989 226/229/979
f 255/223/991 235/162/992 226/229/979
f 234/222/990 255/223/991 226/229/979
f 226/229/967 256/161/993 236/191/994
f 235/162/992 256/161/995 226/229/979
f 257/224/996 237/225/997 226/229/967
f 236/191/994 257/224/996 226/229/967
f 276/1/447 291/163/447 245/2/447
f 245/2/571 291/163/998 277/4/571
f 258/226/999 238/227/1000 226/229/967
f 237/225/997 258/226/999 226/229/967
f 259/228/1001 222/208/968 226/229/967
f 238/227/1000 259/228/1001 226/229/967
f 266/10/576 279/165/576 247/11/576
f 247/11/577 279/165/1002 267/13/577
f 274/18/428 289/166/428 259/19/428
f 259/19/427 289/166/1003 260/21/427
f 264/26/586 278/167/1004 254/27/586
f 254/27/588 278/167/1005 265/29/588
f 269/34/593 283/168/594 249/35/594
f 249/35/595 283/168/595 271/37/595
f 268/42/600 282/169/600 256/43/600
f 256/43/602 282/169/1006 270/45/602
f 260/21/402 288/170/402 244/50/402
f 244/50/401 288/170/1007 276/1/401
f 273/52/476 287/171/476 251/53/612
f 251/53/474 287/171/474 275/55/474
f 277/4/617 293/172/617 246/60/617
f 246/60/618 293/172/618 266/10/618
f 272/62/624 286/173/624 258/63/624
f 258/63/389 286/173/626 274/18/626
f 261/67/469 292/174/1008 253/68/469
f 253/68/631 292/174/631 264/26/631
f 267/13/636 281/175/636 248/72/636
f 248/72/637 281/175/637 269/34/637
f 265/29/642 280/176/1009 255/74/642
f 255/74/643 280/176/643 268/42/643
f 271/37/649 285/177/1010 250/76/649
f 250/76/452 285/177/651 273/52/651
f 275/55/656 290/178/656 252/78/436
f 252/78/434 290/178/434 261/67/434
f 270/45/661 284/179/661 257/80/661
f 257/80/663 284/179/663 272/62/663
f 246/82/669 224/110/1011 240/199/670
f 251/85/672 230/112/1012 263/86/673
f 244/88/675 222/101/1013 239/200/676
f 256/91/678 235/114/1014 242/201/679
f 249/94/681 228/116/1015 241/202/682
f 254/97/684 233/118/506 262/203/504
f 259/100/686 238/120/1016 243/204/689
f 247/103/690 225/84/1017 240/199/693
f 252/105/694 231/87/1018 263/86/695
f 257/107/697 242/201/1019 243/204/698
f 257/107/697 236/93/1020 242/201/1019
f 245/109/700 223/90/1021 239/200/703
f 250/111/704 229/96/1022 241/202/707
f 255/113/544 234/99/1023 262/203/543
f 248/115/708 227/104/1024 241/202/709
f 253/117/711 232/106/1025 263/86/714
f 258/119/715 237/108/1026 243/204/716
f 262/203/718 278/122/720 265/125/724
f 241/202/721 279/124/723 267/127/726
f 241/202/721 240/199/749 266/123/722
f 242/201/561 280/126/725 268/129/728
f 242/201/561 262/203/718 265/125/724
f 241/202/721 281/128/727 269/131/730
f 242/201/561 282/130/729 270/134/734
f 241/202/721 283/132/731 271/136/737
f 242/201/561 284/135/735 272/133/732
f 263/86/736 285/137/738 273/139/740
f 263/86/736 241/202/721 271/136/737
f 243/204/733 286/138/739 274/143/745
f 263/86/736 287/140/741 275/145/747
f 239/200/742 288/142/744 276/147/750
f 239/200/742 289/144/746 260/141/743
f 239/200/742 243/204/733 274/143/745
f 263/86/736 290/146/748 261/149/752
f 240/199/749 291/148/751 277/151/754
f 240/199/749 239/200/742 276/147/750
f 262/203/718 292/150/753 264/121/719
f 262/203/718 263/86/736 261/149/752
f 240/199/749 293/152/755 266/123/722
l 2 1
