# Blender 4.5.0
# www.blender.org
mtllib city_bus.lod1.mtl
o city_bus
v 4.406911 0.288511 0.977740
v 4.406911 0.487863 -0.979953
v 4.405910 0.288470 -0.980589
v -4.411395 0.487863 0.977740
v 4.405910 0.487903 0.978376
v -4.410394 0.487903 -0.980589
v -4.410394 0.288470 0.978376
v -4.411395 0.288510 -0.979953
v 5.247890 2.765406 -1.082095
v 5.248026 2.666166 1.135062
v 5.248038 0.700279 1.135022
v 5.247765 0.568279 -1.035561
v -5.052085 0.550316 -1.126453
v -5.050584 2.998901 1.124503
v 4.948188 0.548568 -1.126589
v 5.248258 0.568679 1.031683
v 4.966599 0.578329 1.176719
v 4.954535 2.957969 1.189706
v 4.949382 2.969065 -1.184367
v 5.247910 2.800783 1.033326
v 5.248465 0.702963 -1.137159
v -5.050963 0.550763 1.125259
v -5.050930 2.871185 1.222703
v -5.051148 0.678057 1.223322
v -5.051834 2.997594 -1.127596
v -5.051213 2.870825 -1.225494
v 4.948797 0.678641 -1.226371
v -5.050421 0.677349 -1.225129
v 5.262152 1.348366 1.055881
v 5.259639 1.348365 -1.058094
v 5.259639 2.500576 1.055881
v 5.262152 2.500576 -1.058094
v 5.281855 1.344768 -0.027847
v 5.281855 2.554215 0.025634
v 5.285947 1.344768 0.025634
v 5.285947 2.554215 -0.027847
v 4.991560 2.452465 -1.237535
v 3.905880 2.452465 -1.240735
v 3.905880 1.496560 -1.237535
v 4.991560 1.496560 -1.240735
v 3.691279 2.452465 -1.237535
v 3.691279 1.496560 -1.240734
v 2.605599 2.452465 -1.240734
v 2.605599 1.496560 -1.237535
v 2.390998 2.452465 -1.237535
v 2.390998 1.496560 -1.240734
v 1.305318 2.452465 -1.240735
v 1.305318 1.496560 -1.237535
v 1.090717 1.496560 -1.240734
v 0.005037 2.452465 -1.240735
v 0.005037 1.496560 -1.237535
v 1.090717 2.452465 -1.237535
v -0.209564 2.452465 -1.237535
v -1.295244 2.452465 -1.240735
v -1.295244 1.496560 -1.237535
v -0.209564 1.496560 -1.240734
v -1.509845 1.496560 -1.240734
v -2.595525 2.452465 -1.240735
v -2.595525 1.496560 -1.237535
v -1.509845 2.452465 -1.237535
v -2.810126 1.496560 -1.240734
v -3.895806 1.496560 -1.237535
v -3.895806 2.452465 -1.240735
v -2.810126 2.452465 -1.237535
v -5.196087 2.452465 -1.240734
v -4.110407 2.452465 -1.237535
v -5.196087 1.496560 -1.237535
v -4.110407 1.496560 -1.240734
v 5.097461 1.145006 -1.253059
v -5.101945 1.352806 -1.253059
v -5.101945 1.145006 -1.251232
v 5.097461 1.352806 -1.251232
v 3.905880 2.452465 1.235322
v 3.905880 1.496560 1.238521
v 4.991560 2.452465 1.238522
v 4.991560 1.496560 1.235321
v 3.691279 2.452465 1.238521
v 3.691279 1.496560 1.235322
v 2.605599 1.496560 1.238521
v 2.605599 2.452465 1.235322
v 2.390998 2.452465 1.238521
v 1.305318 1.496560 1.238521
v 1.305318 2.452465 1.235322
v 2.390998 1.496560 1.235322
v 1.090717 2.452465 1.238521
v 1.090717 1.496560 1.235322
v 0.005037 1.496560 1.238521
v 0.005037 2.452465 1.235322
v -0.209564 2.452465 1.238521
v -0.209564 1.496560 1.235322
v -1.295244 1.496560 1.238521
v -1.295244 2.452465 1.235322
v -2.595525 2.452465 1.235322
v -1.509845 1.496560 1.235322
v -1.509845 2.452465 1.238521
v -2.595525 1.496560 1.238521
v -2.810126 2.452465 1.238521
v -2.810126 1.496560 1.235322
v -3.895806 2.452465 1.235322
v -3.895806 1.496560 1.238522
v -5.196087 1.496560 1.238521
v -5.196087 2.452465 1.235322
v -4.110407 1.496560 1.235322
v -4.110407 2.452465 1.238521
v 5.097461 1.352806 1.250846
v -5.101945 1.145006 1.250846
v 5.097461 1.145006 1.249019
v -5.101945 1.352806 1.249019
v 3.866786 2.554479 1.262144
v 2.730156 2.554479 1.257737
v 2.730156 0.643918 1.262144
v 3.866786 0.643918 1.257737
v 3.280551 0.647937 1.290795
v 3.316392 0.647936 1.289136
v 3.298472 2.559123 1.289965
v -1.934467 2.554479 1.262144
v -3.071097 0.643918 1.262144
v -1.934467 0.643918 1.257737
v -3.071098 2.554479 1.257737
v -2.502782 2.559123 1.289965
v -2.520702 0.647937 1.290795
v -2.484862 0.647937 1.289136
v 0.195292 3.280000 0.748361
v 0.196481 3.279905 -0.749422
v -1.801311 3.279905 0.747209
v -1.800121 3.280000 -0.750575
v 0.196481 3.001068 0.747209
v 0.195292 3.000973 -0.750575
v -1.800121 3.000973 0.748361
v -1.801311 3.001068 -0.749422
v 2.819958 0.172009 -1.303181
v 2.758538 0.452694 -1.296952
v 2.919125 0.710249 -1.295958
v 3.216554 0.777906 -1.295537
v 3.474279 0.612740 -1.295476
v 3.536973 0.311994 -1.295643
v 3.001633 0.028863 -1.296758
v 3.423051 0.112445 -1.296309
v 3.483470 0.597922 -1.098241
v 3.146647 -0.000000 -1.097441
v 3.234555 0.774324 -1.098662
v 2.760340 0.466571 -1.098556
v 2.915551 0.072204 -1.089644
v 3.242754 0.007079 -1.304557
v 3.369239 0.062682 -1.091017
v 3.533330 0.298482 -1.097247
v 2.933283 0.720418 -1.098723
v 2.789274 0.238589 -1.097890
v 2.959719 0.569660 -1.310651
v 3.216645 0.133476 -1.312195
v 3.403725 0.324283 -1.311754
v 3.221193 0.639766 -1.313739
v 2.959287 0.205122 -1.312636
v 2.893804 0.387079 -1.312674
v 3.369512 0.514624 -1.311716
v 3.168719 0.393155 -1.316493
v 3.145048 0.377362 -1.297303
v 3.146421 0.372865 -1.297052
v 3.146253 0.389775 -1.284849
v 3.145109 0.384466 -1.280463
v 3.152338 0.392308 -1.281251
v 3.150346 0.388187 -1.284268
v 3.150190 0.389460 -1.276187
v 3.142370 0.389909 -1.277917
v 3.146310 0.392207 -1.279799
v 3.172238 0.590675 -1.303207
v 3.130622 0.598153 -1.298124
v 3.168589 0.392691 -1.291809
v 3.148957 0.586102 -1.327909
v 3.143512 0.365031 -1.302364
v 2.956578 0.462249 -1.283285
v 3.158120 0.409916 -1.305011
v 2.950032 0.441980 -1.325494
v 3.128832 0.396150 -1.316177
v 3.129628 0.400302 -1.298379
v 3.009918 0.235141 -1.298187
v 3.032541 0.227700 -1.280463
v 3.162094 0.372692 -1.316568
v 3.147563 0.385610 -1.335159
v 3.147981 0.388187 -1.322742
v 3.147930 0.393155 -1.327914
v 3.149242 0.387290 -1.328137
v 3.150829 0.383806 -1.327839
v 3.149982 0.389309 -1.324109
v 3.154239 0.389538 -1.330460
v 3.149550 0.390805 -1.328578
v 3.048777 0.210457 -1.305360
v 3.162037 0.372130 -1.291942
v 3.035272 0.225693 -1.325956
v 3.029840 0.225761 -1.327653
v 3.161229 0.397485 -1.295055
v 3.251586 0.209570 -1.313710
v 3.167386 0.396393 -1.316568
v 3.173458 0.397105 -1.297719
v 3.274908 0.218041 -1.284800
v 3.261605 0.225693 -1.282420
v 3.134554 0.372259 -1.292200
v 3.138824 0.409818 -1.302364
v 3.347163 0.441109 -1.283287
v 3.153370 0.364913 -1.305011
v 3.340554 0.461361 -1.325494
v 2.758538 0.452694 1.095034
v 3.001633 0.028863 1.095228
v 3.474279 0.612740 1.096510
v 3.536973 0.311994 1.096343
v 3.242754 0.007080 1.087429
v 3.533331 0.298482 1.294739
v 3.483470 0.597922 1.293745
v 3.234555 0.774324 1.293324
v 2.933282 0.720419 1.293263
v 3.146647 0.000000 1.294545
v 2.760340 0.466571 1.293430
v 3.423051 0.112446 1.095677
v 3.369239 0.062682 1.300969
v 3.216554 0.777906 1.096449
v 2.919125 0.710249 1.096028
v 2.819958 0.172009 1.088805
v 2.789274 0.238589 1.294096
v 2.915551 0.072204 1.302342
v 2.893804 0.389294 1.310461
v 2.959719 0.206713 1.308438
v 2.959287 0.571251 1.310423
v 3.216645 0.642897 1.309982
v 3.403725 0.452091 1.309541
v 3.369512 0.261750 1.309503
v 3.221193 0.136607 1.311526
v 3.125648 0.388750 1.299857
v 3.167634 0.388240 1.289977
v 3.168465 0.593383 1.312946
v 3.127991 0.593562 1.290057
v 3.168752 0.392667 1.314325
v 3.133052 0.383214 1.287443
v 3.143513 0.365031 1.303804
v 3.158119 0.409916 1.301157
v 2.956578 0.462251 1.322878
v 2.950032 0.441982 1.280669
v 3.124101 0.398488 1.300426
v 3.128941 0.396501 1.313811
v 3.142766 0.387078 1.273904
v 3.151768 0.384467 1.278250
v 3.150829 0.383806 1.278325
v 3.147930 0.393155 1.278250
v 3.150797 0.388187 1.282282
v 3.145014 0.384558 1.278325
v 3.149982 0.387065 1.282055
v 3.010289 0.238173 1.304143
v 3.162094 0.372692 1.289596
v 3.164627 0.367136 1.308313
v 3.032355 0.210741 1.296434
v 3.161229 0.378888 1.311109
v 3.032541 0.227701 1.325701
v 3.155019 0.391060 1.326005
v 3.150945 0.383868 1.325701
v 3.151865 0.384558 1.325626
v 3.148118 0.393007 1.321261
v 3.148799 0.387925 1.331454
v 3.148201 0.394495 1.328247
v 3.151879 0.392802 1.326038
v 3.147799 0.393137 1.325626
v 3.150346 0.388187 1.321896
v 3.130379 0.370556 1.302925
v 3.286342 0.234508 1.312165
v 3.252236 0.209674 1.290859
v 3.170549 0.401826 1.304302
v 3.161183 0.397453 1.289966
v 3.168023 0.396262 1.313990
v 3.153371 0.364914 1.301157
v 3.340554 0.461359 1.280669
v 3.347163 0.441108 1.322876
v 3.138823 0.409818 1.303805
v -3.299728 0.028863 -1.296758
v -3.542823 0.452694 -1.296952
v -3.382237 0.710248 -1.295958
v -2.827082 0.612740 -1.295476
v -2.764388 0.311994 -1.295643
v -3.058607 0.007080 -1.304557
v -3.154714 -0.000000 -1.097441
v -3.066806 0.774324 -1.098662
v -3.541021 0.466571 -1.098556
v -3.385811 0.072204 -1.089644
v -2.878309 0.112446 -1.296309
v -2.932123 0.062682 -1.091017
v -2.768031 0.298482 -1.097247
v -2.817891 0.597922 -1.098241
v -3.084807 0.777906 -1.295537
v -3.368080 0.720418 -1.098723
v -3.481404 0.172010 -1.303179
v -3.512088 0.238589 -1.097890
v -3.342074 0.205122 -1.312636
v -3.084717 0.133476 -1.312195
v -2.897637 0.324283 -1.311754
v -2.931850 0.514624 -1.311716
v -3.341642 0.569661 -1.310651
v -3.080168 0.639766 -1.313739
v -3.407557 0.387079 -1.312674
v -3.168309 0.383159 -1.289657
v -3.177911 0.391838 -1.305159
v -3.137731 0.384983 -1.288685
v -3.129580 0.391120 -1.299839
v -3.172566 0.597290 -1.298862
v -3.129132 0.590680 -1.303118
v -3.132642 0.393155 -1.316493
v -3.152404 0.586102 -1.327909
v -3.152413 0.393155 -1.280463
v -3.153562 0.393137 -1.280538
v -3.150416 0.383868 -1.280463
v -3.154947 0.386715 -1.284504
v -3.149759 0.391454 -1.279799
v -3.152563 0.387924 -1.274710
v -3.143241 0.409916 -1.305012
v -3.351330 0.441980 -1.325494
v -3.344782 0.462251 -1.283286
v -3.157851 0.365031 -1.302365
v -3.137032 0.371158 -1.304225
v -3.139267 0.372692 -1.316568
v -3.172574 0.396161 -1.316129
v -3.172768 0.398874 -1.301841
v -3.256369 0.210046 -1.298888
v -3.280079 0.219118 -1.286686
v -3.153800 0.385616 -1.335157
v -3.153382 0.388187 -1.322742
v -3.153432 0.393155 -1.327914
v -3.152120 0.387290 -1.328137
v -3.150532 0.383806 -1.327839
v -3.151393 0.389299 -1.324099
v -3.147122 0.389538 -1.330460
v -3.151915 0.390663 -1.328578
v -3.139233 0.372006 -1.292179
v -3.171870 0.396393 -1.291809
v -3.266089 0.225693 -1.325956
v -3.271521 0.225761 -1.327653
v -3.172759 0.375671 -1.299895
v -3.015019 0.234506 -1.293998
v -3.049774 0.209571 -1.313711
v -3.133976 0.396393 -1.316568
v -3.133415 0.399573 -1.295147
v -2.954199 0.441109 -1.283287
v -2.960806 0.461359 -1.325495
v -3.147993 0.364913 -1.305012
v -3.162537 0.409818 -1.302365
v -3.382237 0.710248 1.096028
v -3.084807 0.777906 1.096449
v -2.827082 0.612740 1.096510
v -3.299728 0.028863 1.095228
v -2.878309 0.112446 1.095677
v -3.058607 0.007080 1.087429
v -2.768030 0.298482 1.294739
v -3.154714 0.000000 1.294545
v -3.066806 0.774324 1.293324
v -3.368080 0.720418 1.293263
v -3.541021 0.466571 1.293430
v -3.512088 0.238590 1.294096
v -3.385811 0.072204 1.302342
v -2.932123 0.062682 1.300969
v -2.764388 0.311994 1.096343
v -2.817891 0.597922 1.293745
v -3.542823 0.452694 1.095034
v -3.481404 0.172010 1.088807
v -3.341642 0.206713 1.308438
v -3.084717 0.642898 1.309982
v -2.931850 0.261749 1.309503
v -3.080168 0.136607 1.311526
v -2.897637 0.452091 1.309541
v -3.342074 0.571251 1.310423
v -3.407557 0.389294 1.310461
v -3.169210 0.388187 1.292567
v -3.177599 0.389906 1.303733
v -3.133173 0.593719 1.311855
v -3.132433 0.392827 1.313942
v -3.131581 0.389069 1.294716
v -3.173369 0.593560 1.290053
v -3.157849 0.365031 1.303804
v -3.143242 0.409916 1.301156
v -3.351330 0.441982 1.280669
v -3.344781 0.462253 1.322877
v -3.166099 0.397766 1.311384
v -3.181491 0.397559 1.299676
v -3.133809 0.367717 1.302722
v -3.279002 0.218587 1.282227
v -3.266089 0.225693 1.280207
v -3.256373 0.209462 1.312164
v -3.166099 0.397766 1.292566
v -3.171767 0.372857 1.301170
v -3.153075 0.396724 1.323039
v -3.124114 0.401713 1.300182
v -3.146225 0.388176 1.280576
v -3.153283 0.388449 1.272497
v -3.147122 0.389538 1.275704
v -3.156210 0.383932 1.277863
v -3.153432 0.393155 1.278250
v -3.152283 0.393137 1.278325
v -3.150565 0.388187 1.282282
v -3.150532 0.383806 1.278325
v -3.151379 0.389309 1.282055
v -3.016218 0.233514 1.292093
v -3.146342 0.391060 1.326005
v -3.150416 0.383868 1.325701
v -3.149498 0.384558 1.325626
v -3.156252 0.384467 1.325701
v -3.155313 0.383806 1.325626
v -3.151015 0.386800 1.321669
v -3.153562 0.393137 1.325626
v -3.151015 0.388187 1.321896
v -3.048823 0.210009 1.313894
v -3.147991 0.364914 1.301157
v -2.960805 0.461358 1.280668
v -2.954198 0.441108 1.322876
v -3.162539 0.409818 1.303804
v 5.275299 0.904919 -0.915697
v 5.275299 0.732174 -0.606779
v 5.272499 0.904920 -0.606780
v 5.272499 0.732173 -0.915696
v -5.249264 0.946848 -0.893714
v -5.249264 0.780320 -0.628761
v -5.249525 0.780018 -0.894337
v -5.307500 0.946848 -0.628761
v -5.307239 0.947150 -0.894337
v -5.307500 0.780320 -0.893714
v -5.249525 0.947150 -0.628138
v -5.307239 0.780018 -0.628138
v 5.302763 0.739911 0.615984
v 5.244762 0.740171 0.616645
v 5.275299 0.904919 0.604566
v 5.272499 0.904920 0.913483
v 5.275299 0.732174 0.913484
v -5.249264 0.946848 0.626548
v -5.307239 0.947150 0.625925
v -5.307500 0.946848 0.891501
v -5.307500 0.780320 0.626548
v -5.249525 0.947150 0.892124
v -5.249525 0.780018 0.625925
v -5.249263 0.780320 0.891501
v -5.307239 0.780018 0.892124
v 5.291319 0.628417 -0.304682
v 5.291319 0.508258 0.302469
v 5.286482 0.508258 -0.304682
v 5.286482 0.628417 0.302469
v -5.297334 0.517194 0.158585
v -5.299438 0.649505 0.158585
v -5.297334 0.649505 -0.160798
v -5.299438 0.517194 -0.160798
v 5.300904 0.650906 -0.560092
v 5.287308 0.649769 0.551696
v 5.314500 0.652044 0.551696
v 5.302040 0.724561 -0.553909
v 5.300904 0.710956 0.557879
v 5.299767 0.697352 -0.553909
v 5.314500 0.769869 -0.553909
v 5.300904 0.771007 0.557879
v 5.287308 0.772144 -0.553909
vn -0.8679 0.4879 -0.0937
vn -0.9994 0.0203 0.0294
vn 0.0983 0.7604 -0.6420
vn 0.0605 0.0287 0.9978
vn 0.5214 0.8488 0.0877
vn -0.9994 0.0206 0.0294
vn -0.9047 0.3941 -0.1619
vn 0.0154 -0.0029 -0.9999
vn 0.1708 0.6508 0.7398
vn 0.2125 0.5901 0.7789
vn 0.1168 0.9513 -0.2853
vn 0.5697 -0.6496 -0.5035
vn -0.4185 -0.6274 0.6567
vn -0.8006 -0.5795 0.1522
vn -0.7582 0.6519 0.0080
vn -0.8575 0.5141 0.0204
vn -0.8333 0.5149 0.2012
vn 0.1727 -0.9656 0.1946
vn 0.3781 -0.6081 -0.6981
vn -0.0098 -0.8985 -0.4389
vn -0.6747 -0.4095 -0.6140
vn -0.2691 0.9295 -0.2523
vn 0.3773 -0.9036 0.2028
vn 0.7205 0.2727 -0.6375
vn 0.2160 0.5221 0.8251
vn 0.1728 -0.9656 0.1941
vn 0.6317 -0.2689 0.7271
vn 0.4248 -0.7091 -0.5628
vn 0.3231 -0.9354 0.1438
vn -0.8767 -0.2376 -0.4183
vn -0.2702 0.9296 -0.2508
vn 0.3579 -0.9059 0.2265
vn -0.0312 0.9992 0.0239
vn -0.3301 0.8460 0.4187
vn -0.0134 0.9999 -0.0000
vn -0.1638 0.0009 -0.9865
vn 0.4217 -0.3028 0.8547
vn 0.8059 0.4818 0.3441
vn 0.7202 0.4467 0.5308
vn 0.8419 0.4564 -0.2878
vn 0.1428 0.9852 0.0946
vn 0.7345 -0.5761 0.3586
vn 0.7146 -0.6273 0.3096
vn 0.7436 -0.6072 -0.2801
vn 0.0887 -0.0099 0.9960
vn -0.1639 0.0009 -0.9865
vn -0.7894 0.4165 0.4510
vn 0.7318 0.5279 0.4312
vn 0.7034 0.5080 0.4971
vn 0.8083 0.5790 -0.1071
vn -0.6699 0.4691 -0.5755
vn -0.6788 -0.6045 -0.4169
vn -0.1060 -0.9928 -0.0557
vn -0.4070 0.7497 0.5218
vn -0.2593 0.8021 -0.5380
vn -0.2648 -0.2188 0.9391
vn 0.0887 -0.9631 0.2540
vn 0.0923 -0.0137 0.9956
vn 0.2901 0.9290 -0.2297
vn 0.3455 0.9228 -0.1705
vn -0.1722 0.9673 -0.1860
vn 0.9919 -0.1266 0.0056
vn 0.9826 -0.1292 -0.1334
vn 0.6529 -0.0627 0.7549
vn -0.9024 -0.0077 -0.4308
vn -0.9879 -0.0640 0.1416
vn -0.8883 -0.0563 0.4558
vn -0.3166 0.2044 -0.9263
vn -0.5680 -0.6430 0.5136
vn -0.0019 -0.8069 -0.5907
vn 0.5863 -0.7453 -0.3174
vn -0.0366 -0.1022 -0.9941
vn -0.0942 0.0726 0.9929
vn 0.6803 -0.4971 -0.5385
vn -0.0207 -0.0839 -0.9963
vn 0.9834 -0.0052 -0.1815
vn -0.0664 0.0831 0.9943
vn -0.3161 0.2040 -0.9265
vn -0.0367 -0.1016 -0.9941
vn 0.8084 -0.0418 0.5872
vn -0.3605 0.2369 -0.9022
vn 0.6385 0.5185 -0.5687
vn 0.2965 -0.9425 0.1542
vn 0.8407 0.2717 -0.4683
vn -0.0300 0.9260 0.3763
vn 0.8696 0.2782 0.4078
vn 0.4883 0.3622 -0.7939
vn 0.8412 0.2849 -0.4596
vn 0.5104 -0.4219 -0.7493
vn 0.7019 -0.0708 0.7088
vn 0.2639 -0.0603 -0.9627
vn 0.8030 -0.4634 -0.3748
vn 0.8574 -0.5146 -0.0099
vn 0.6952 -0.4468 0.5631
vn 0.3205 0.2074 0.9243
vn -0.0206 0.0568 -0.9982
vn -0.4858 0.8369 -0.2521
vn 0.5217 0.1011 -0.8471
vn 0.3933 -0.2861 0.8738
vn 0.0907 0.9686 0.2314
vn 0.8031 -0.5955 -0.0209
vn 0.8032 -0.5955 -0.0173
vn 0.7815 -0.5859 -0.2144
vn 0.4346 0.3176 0.8428
vn -0.3457 0.0209 -0.9381
vn -0.4853 0.8352 -0.2585
vn 0.0661 0.0652 -0.9957
vn 0.0184 -0.0878 0.9960
vn 0.0184 -0.0877 0.9960
vn 0.7088 -0.0009 -0.7054
vn 0.7088 0.0009 0.7054
vn 0.7051 -0.0013 -0.7091
vn -0.0000 -1.0000 -0.0000
vn 0.7051 0.0013 0.7091
vn -0.7051 -0.0013 0.7091
vn -0.7051 0.0013 -0.7091
vn -0.0000 1.0000 -0.0000
vn -0.7088 0.0008 -0.7054
vn -0.7088 -0.0008 0.7054
vn 0.7482 -0.2077 -0.6301
vn 0.5921 0.6095 -0.5271
vn 0.7960 0.3748 -0.4752
vn 0.5103 0.6513 0.5616
vn 0.8296 0.5190 0.2061
vn 0.7603 0.1089 0.6404
vn 0.7298 -0.1737 0.6612
vn 0.1587 -0.6610 0.7334
vn 0.6705 -0.7017 0.2408
vn 0.8812 -0.2885 -0.3744
vn 0.2931 -0.2962 -0.9090
vn 0.2705 -0.5868 -0.7632
vn 0.0561 -0.9984 0.0015
vn 0.0656 -0.9978 0.0002
vn 0.0002 -0.9998 0.0192
vn -0.6205 -0.7041 -0.3453
vn -0.0002 -0.9999 0.0129
vn -0.0000 -0.6087 -0.7934
vn -0.6344 -0.2483 -0.7320
vn -0.6192 0.7053 0.3451
vn -0.6204 0.7043 -0.3451
vn -0.6191 -0.7052 0.3454
vn -0.6416 0.2463 0.7265
vn -0.6410 -0.2462 0.7270
vn -0.6391 0.2468 -0.7284
vn 0.0038 1.0000 -0.0041
vn 0.0041 1.0000 0.0047
vn 0.0044 0.0016 1.0000
vn 0.0018 -0.3134 -0.9496
vn 0.0046 -0.0054 1.0000
vn 0.0039 0.0183 -0.9998
vn -0.0077 0.6495 -0.7604
vn -0.0076 -0.6495 0.7604
vn 0.0076 -0.6495 -0.7603
vn 0.0077 0.6495 0.7603
vn -0.0437 0.8376 0.5446
vn -0.0437 -0.8376 -0.5446
vn 0.0439 -0.8359 0.5471
vn 0.0439 0.8359 -0.5471
vn -0.7192 0.6947 -0.0145
vn 0.7192 0.6947 0.0145
vn 0.7192 -0.6947 -0.0145
vn -0.7192 -0.6947 0.0145
vn -0.7192 0.6946 -0.0145
vn 0.7192 -0.6946 -0.0145
vn 0.7192 -0.6947 -0.0144
vn 0.8420 0.5384 0.0335
vn -0.8420 -0.5384 0.0329
vn 0.8382 -0.5444 -0.0333
vn -0.8382 0.5444 -0.0335
vn 0.7192 0.6946 0.0145
vn -0.7192 -0.6946 0.0145
vn 0.7192 0.6947 0.0144
vn -0.8411 0.5399 -0.0328
vn 0.8391 0.5429 0.0335
vn 0.8411 -0.5399 -0.0333
vn -0.8391 -0.5429 0.0335
vn -0.6574 0.7536 -0.0015
vn 0.6574 0.7536 0.0014
vn 0.6574 -0.7536 -0.0014
vn -0.6574 -0.7536 0.0014
vn -0.0000 -0.0000 -0.0000
vn -0.6574 0.7536 -0.0014
vn -0.0000 1.0000 -0.0001
vn -0.0000 1.0000 0.0001
vn 0.7090 0.0006 -0.7052
vn 0.7051 0.0006 0.7091
vn 0.7090 -0.0006 0.7052
vn -0.7090 0.0006 0.7052
vn -0.7051 -0.0006 0.7091
vn 0.7051 -0.0006 -0.7091
vn -0.7051 0.0006 -0.7091
vn -0.7090 -0.0006 -0.7052
vn -0.0000 -1.0000 0.0001
vn -0.0000 -1.0000 -0.0001
vn -0.3895 -0.4082 -0.8256
vn -0.2721 -0.7023 -0.6579
vn -0.7121 -0.7020 -0.0093
vn 0.0114 0.0061 -0.9999
vn -0.4528 0.6274 -0.6335
vn -0.9840 0.1758 -0.0295
vn -0.9718 0.2357 0.0049
vn -0.4175 0.6533 0.6315
vn 0.1283 0.7639 -0.6325
vn 0.1739 0.7548 0.6325
vn 0.6357 0.4438 -0.6316
vn 0.6584 0.4064 0.6335
vn 0.9881 -0.1540 -0.0049
vn 0.0013 0.0014 -1.0000
vn 0.9764 -0.2140 0.0295
vn -0.0024 0.0174 -0.9998
vn 0.8401 -0.5409 0.0401
vn -0.0578 -0.2990 -0.9525
vn -0.0175 -0.7529 0.6579
vn -0.0611 -0.2983 0.9525
vn 0.8193 -0.5681 0.0771
vn 0.3892 -0.9211 0.0093
vn 0.5057 -0.8594 -0.0758
vn 0.2036 -0.5262 0.8256
vn -0.0082 0.0100 0.9999
vn -0.0007 0.0018 1.0000
vn 0.0089 0.0152 0.9998
vn -0.9831 -0.1784 -0.0401
vn -0.7961 -0.6004 0.0757
vn -0.9743 -0.2115 -0.0770
vn -0.7017 0.7124 0.0123
vn -0.9941 -0.1084 -0.0090
vn -0.5931 -0.8051 -0.0032
vn 0.9152 0.4030 0.0090
vn 0.2513 0.9678 -0.0122
vn 0.2588 -0.9659 -0.0000
vn 0.9162 -0.4008 0.0032
vn 0.4815 -0.0025 -0.8764
vn 0.7242 0.0334 -0.6888
vn 0.1375 0.0953 0.9859
vn 0.2033 0.6238 0.7547
vn 0.2067 0.6677 0.7151
vn 0.7995 0.5877 0.1245
vn 0.3184 0.8970 0.3067
vn 0.8516 0.5230 0.0355
vn 0.3904 -0.2803 0.8769
vn -0.3891 -0.3801 0.8391
vn -0.6550 -0.5410 0.5275
vn 0.5437 0.0382 0.8384
vn -0.7483 0.6596 -0.0708
vn -0.8179 0.5131 -0.2603
vn -0.3009 0.8795 -0.3687
vn -0.5121 0.3717 0.7743
vn -0.7435 0.5393 0.3954
vn -0.5352 0.3851 0.7518
vn 0.4558 0.3182 0.8312
vn -0.9852 -0.0598 -0.1606
vn 0.9497 0.3114 -0.0322
vn 0.5828 -0.8117 0.0375
vn -0.8471 -0.0015 -0.5315
vn -0.6850 0.5033 0.5268
vn 0.7639 0.4880 0.4223
vn -0.6766 0.4332 -0.5954
vn -0.8677 -0.3641 -0.3384
vn -0.4086 0.2955 -0.8636
vn -0.8057 0.5838 -0.1002
vn 0.5682 -0.4550 0.6857
vn 0.3973 -0.3321 -0.8555
vn 0.3721 -0.3201 -0.8713
vn 0.3025 -0.1336 -0.9437
vn -0.4392 0.8912 -0.1135
vn -0.6217 0.7030 0.3454
vn -0.6281 -0.3327 -0.7034
vn -0.8171 -0.4963 -0.2933
vn 0.5094 0.1618 -0.8452
vn -0.4795 -0.1444 0.8656
vn -0.9486 0.3141 0.0376
vn -0.5853 -0.8102 -0.0322
vn 0.8499 -0.0044 0.5269
vn 0.6843 0.4994 -0.5313
vn -0.7017 -0.7124 -0.0123
vn -0.9941 0.1084 0.0090
vn -0.5931 0.8051 0.0032
vn 0.2588 0.9659 -0.0000
vn 0.9162 0.4008 -0.0032
vn 0.9151 -0.4030 -0.0090
vn 0.2514 -0.9678 0.0122
vn -0.0732 -0.9936 -0.0862
vn -0.1960 -0.9482 -0.2501
vn -0.0111 -0.9999 0.0044
vn -0.7283 0.1091 0.6766
vn -0.7629 0.1190 0.6355
vn -0.2177 0.9707 -0.1020
vn -0.0144 -0.9999 -0.0094
vn -0.7218 -0.0088 -0.6920
vn -0.8616 -0.0144 -0.5074
vn 0.7740 -0.5065 0.3800
vn 0.9649 -0.2626 0.0034
vn 0.9140 0.0041 0.4056
vn 0.5702 0.0065 0.8215
vn 0.9497 0.3115 -0.0322
vn -0.6544 0.4535 0.6051
vn -0.7583 0.5466 0.3554
vn -0.6310 0.4336 0.6432
vn 0.5187 -0.3364 -0.7860
vn 0.5558 0.8313 -0.0004
vn 0.4851 0.8698 -0.0900
vn 0.8382 0.4974 -0.2236
vn -0.5548 0.2877 -0.7807
vn -0.5890 0.3038 -0.7488
vn -0.9364 -0.3382 -0.0941
vn 0.8079 0.5818 -0.0936
vn 0.5503 0.7838 0.2879
vn -0.7799 -0.5369 -0.3218
vn 0.5851 0.3608 -0.7262
vn 0.8937 -0.3827 0.2340
vn 0.0885 -0.9672 -0.2380
vn 0.8106 0.5517 -0.1964
vn 0.2619 -0.2492 -0.9324
vn -0.6908 0.6948 -0.2001
vn -0.5792 -0.4117 -0.7036
vn -0.4258 -0.3092 -0.8503
vn 0.4560 -0.3288 0.8270
vn 0.6890 -0.6024 0.4029
vn 0.0790 -0.2103 0.9744
vn 0.8233 -0.4215 0.3800
vn 0.5932 0.4262 0.6830
vn 0.4112 0.2911 0.8638
vn -0.4896 -0.4358 0.7552
vn -0.7949 -0.6053 0.0429
vn -0.6096 0.7760 0.1615
vn -0.9487 0.3140 0.0376
vn -0.5852 -0.8102 -0.0322
vn 0.8499 -0.0043 0.5268
vn 0.6843 0.4994 -0.5314
vn -0.7016 0.7124 0.0123
vn -0.5931 -0.8052 -0.0032
vn 0.2589 -0.9659 -0.0000
vn -0.0273 -0.9931 0.1142
vn -0.0231 -0.9969 0.0754
vn -0.0939 -0.9951 0.0317
vn -0.7103 0.0161 0.7037
vn -0.5382 0.0255 0.8424
vn -0.8746 0.0109 -0.4847
vn -0.3253 -0.9076 -0.2653
vn -0.9993 0.0268 -0.0278
vn 0.4679 0.0461 0.8826
vn 0.6608 0.0250 0.7501
vn 0.8053 0.0079 0.5929
vn -0.6978 0.0364 -0.7154
vn 0.7256 0.0336 -0.6873
vn 0.4025 -0.3265 0.8552
vn -0.3941 -0.3866 0.8338
vn -0.5130 -0.4515 0.7300
vn 0.0725 -0.9704 -0.2306
vn 0.6213 -0.7825 -0.0414
vn -0.5711 0.8156 0.0934
vn -0.7208 0.5131 0.4660
vn -0.5199 0.8542 0.0076
vn -0.4105 0.2757 0.8692
vn 0.6022 0.7876 -0.1306
vn -0.8471 -0.0015 -0.5314
vn 0.5981 0.7461 0.2926
vn 0.3905 -0.3648 -0.8452
vn 0.3437 -0.3425 -0.8744
vn 0.7925 -0.5809 0.1857
vn -0.8578 0.5047 -0.0974
vn -0.6911 -0.4351 0.5771
vn -0.4091 0.2959 -0.8632
vn -0.5209 0.8533 0.0206
vn -0.7918 -0.5970 0.1288
vn -0.6445 -0.4243 -0.6361
vn 0.4417 0.2010 -0.8743
vn -0.4795 -0.1445 0.8656
vn 0.6843 0.4993 -0.5313
vn 0.8499 -0.0043 0.5269
vn -0.9487 0.3141 0.0375
vn -0.7016 -0.7124 -0.0123
vn 0.2589 0.9659 -0.0000
vn 0.9152 -0.4030 -0.0090
vn 0.2513 -0.9678 0.0122
vn 0.0421 -0.6149 -0.7875
vn -0.9952 0.0615 0.0756
vn -0.6773 0.1187 0.7261
vn -0.1014 0.9808 -0.1665
vn 0.7115 -0.4814 0.5119
vn 0.9607 -0.2612 0.0937
vn 0.8130 0.0090 0.5822
vn 0.6084 0.1064 -0.7865
vn -0.0158 -0.9998 0.0123
vn -0.0285 -0.9982 -0.0528
vn 0.3809 0.0110 0.9246
vn 0.0087 -0.9958 0.0908
vn 0.6302 0.1113 -0.7684
vn 0.3958 0.4723 0.7876
vn -0.6310 0.2770 0.7247
vn -0.8707 0.4833 -0.0911
vn 0.4781 -0.4300 -0.7659
vn 0.7860 -0.6134 -0.0771
vn 0.7876 -0.6161 -0.0102
vn 0.6592 0.7520 0.0084
vn 0.6690 0.7402 -0.0678
vn 0.6846 0.7286 -0.0209
vn 0.5344 -0.3685 0.7606
vn 0.7191 -0.5064 -0.4758
vn -0.4827 0.3416 -0.8064
vn 0.4492 -0.7890 -0.4191
vn 0.6654 0.7422 0.0804
vn -0.4231 0.8951 0.1411
vn -0.3285 0.9061 0.2665
vn 0.3390 0.5031 0.7950
vn -0.5181 0.8553 -0.0063
vn -0.7701 -0.6355 -0.0562
vn 0.3141 -0.9327 -0.1771
vn -0.4960 -0.5078 -0.7044
vn 0.7693 -0.4022 0.4963
vn 0.5825 0.2880 0.7601
vn 0.6624 0.3371 0.6690
vn 0.8419 0.5383 0.0369
vn 0.5531 0.3178 0.7701
vn 0.8358 0.5407 -0.0956
vn 0.4191 0.3099 -0.8534
vn 0.6843 0.4993 -0.5314
vn 0.0106 0.6517 -0.7584
vn -0.0106 0.6517 0.7584
vn 0.0106 -0.6517 0.7584
vn -0.0106 -0.6517 -0.7584
vn 1.0000 -0.0004 -0.0003
vn 1.0000 0.0004 0.0003
vn 1.0000 -0.0016 -0.0010
vn 1.0000 0.0016 0.0010
vn 0.0070 0.7062 -0.7080
vn 0.0113 0.7094 -0.7048
vn -0.0070 -0.7062 -0.7080
vn -0.0070 0.7062 0.7080
vn 0.0113 -0.7094 0.7048
vn 0.0070 -0.7062 0.7080
vn -0.0113 -0.7094 -0.7048
vn -0.0113 0.7094 0.7048
vn -1.0000 -0.0004 0.0003
vn -1.0000 0.0016 -0.0010
vn -1.0000 0.0004 -0.0003
vn -1.0000 -0.0016 0.0010
vn 0.0301 0.8528 -0.5214
vn 0.0341 -0.4942 0.8687
vn 0.6598 -0.5325 -0.5303
vn -0.6481 -0.5381 -0.5389
vn 0.0187 0.6511 0.7587
vn 0.0225 0.5827 -0.8124
vn 0.0225 -0.5827 0.8124
vn -0.0224 -0.5826 -0.8124
vn -0.0224 0.5826 0.8124
vn 0.0067 0.6269 -0.7791
vn 0.0067 -0.6269 0.7791
vn -0.0067 -0.6269 -0.7791
vn -0.0067 0.6269 0.7791
vn 0.9852 -0.0938 0.1435
vn 0.2345 -0.1191 0.9648
vn -0.9670 0.1666 -0.1930
vn -0.9036 0.4282 0.0113
vn -0.9037 0.4281 0.0112
vn 0.1065 -0.7330 -0.6718
vn -0.1118 -0.8451 -0.5228
vn 0.9356 0.2198 -0.2763
vn 0.8777 0.3742 -0.2994
vn -0.8855 -0.3463 0.3098
vn 0.0329 -0.7893 0.6131
vn -0.4190 -0.8294 0.3696
vn -0.4770 0.6055 -0.6370
vn -0.1223 -0.9461 -0.2999
vn -0.6081 0.1995 -0.7684
vn 0.3738 -0.4453 -0.8137
vn 0.3733 -0.4456 -0.8137
vn 0.3734 -0.4455 -0.8137
vn 0.6423 -0.2242 -0.7330
vn 0.7315 -0.3907 -0.5588
vn -0.9248 -0.3156 -0.2125
vn 0.1194 0.8740 -0.4711
vn -0.9649 -0.2551 -0.0625
vn -0.9874 -0.0132 0.1575
vn 0.9024 0.4276 0.0530
vn -0.0477 -0.5176 0.8543
vn -0.2001 -0.4832 0.8523
vn -0.4229 0.4463 0.7886
vn -0.1191 0.7439 0.6576
vn 0.6731 0.3800 0.6344
vn -0.4324 -0.3510 0.8306
vn 0.9355 0.2197 -0.2767
vn 0.8776 0.3744 -0.2994
vn -0.8847 -0.3490 0.3089
vn 0.0478 -0.7991 0.5992
vn 0.1791 0.9760 -0.1235
vn 0.3827 -0.7990 -0.4639
vn 0.0658 0.0219 -0.9976
vn 0.9571 0.1223 -0.2625
vn 0.9378 0.2366 -0.2541
vn -0.9341 -0.2874 0.2118
vn 0.7315 -0.3908 -0.5587
vn 0.0098 0.0957 0.9954
vn 0.0080 0.2103 0.9776
vn -0.0135 -0.1325 0.9911
vn 0.7205 -0.1352 0.6802
vn -0.9248 -0.3156 -0.2126
vn 0.3149 -0.8859 -0.3407
vn 0.2100 -0.9081 -0.3622
vn -0.6972 -0.6272 -0.3472
vn -0.4115 0.9061 0.0983
vn 0.2495 -0.9547 0.1621
vn 0.7344 0.6713 0.0999
vn 0.0440 0.8613 0.5062
vn 0.2769 -0.9464 -0.1665
vn 0.9684 -0.1631 0.1886
vn 0.9684 -0.1629 0.1887
vn 0.9684 -0.1631 0.1884
vn -0.3251 0.9366 -0.1305
vn 0.2890 -0.9371 0.1960
vn -0.8507 0.0045 -0.5256
vn -0.4997 0.3588 0.7884
vn -0.9865 -0.0453 -0.1574
vn -0.5027 -0.6701 0.5461
vn -0.0105 0.8946 0.4467
vn -0.0154 0.8392 -0.5436
vn -0.8207 0.0044 -0.5714
vn 0.3542 -0.2761 0.8935
vn -0.7916 0.2542 -0.5556
vn -0.6927 0.2373 -0.6811
vn -0.4462 -0.6736 0.5893
vn -0.5972 0.3150 0.7376
vn 0.0447 0.9167 -0.3970
vn -0.1996 0.8726 -0.4459
vn -0.1910 0.8698 -0.4549
vn -0.7664 0.2755 -0.5803
vn 0.2887 -0.2146 -0.9331
vn 0.2886 -0.2146 -0.9331
vn -0.2308 0.1460 -0.9620
vn 0.1330 0.9445 -0.3003
vn 0.3939 -0.7794 0.4872
vn -0.4819 -0.8354 0.2643
vn 0.5670 0.6905 0.4492
vn 0.1254 0.8844 0.4496
vn 0.8714 0.1400 0.4702
vn 0.8481 -0.1587 -0.5056
vn 0.8409 0.5344 -0.0859
vn -0.9531 -0.2229 -0.2047
vn -0.1883 0.6494 0.7367
vn 0.2677 0.1704 0.9483
vn -0.7788 0.5448 -0.3108
vn -0.7815 0.4233 0.4583
vn -0.5159 -0.6203 -0.5908
vn -0.0995 0.8424 0.5296
vn -0.7702 0.4159 0.4836
vn 0.3566 -0.6720 -0.6490
vn 0.7588 0.4361 -0.4838
vn 0.7587 0.4360 -0.4839
vn 0.7587 0.4361 -0.4839
vn 0.6902 0.3667 0.6238
vn 0.4205 -0.6594 0.6233
vn -0.4037 -0.7774 -0.4824
vn 0.1204 0.5697 -0.8130
vn 0.4828 0.1370 -0.8650
vn -0.4164 -0.7057 -0.5733
vn -0.1290 -0.6383 0.7589
vn 0.4143 -0.6803 0.6047
vn 0.3209 -0.4145 0.8516
vn -0.5322 0.3518 0.7701
vn -0.6690 0.3530 0.6541
vn -0.4177 0.1206 0.9005
vn -0.5526 0.7423 -0.3790
vn -0.6126 0.7890 -0.0470
vn 0.1911 -0.1490 0.9702
vn 0.0079 -0.9935 0.1135
vn 0.3566 -0.6721 -0.6490
vn -0.8361 -0.1105 -0.5373
vn -0.6597 0.0168 0.7514
vn -0.3644 -0.8227 -0.4362
vn 0.1185 0.5712 -0.8122
vn 0.4491 0.2089 -0.8687
vn -0.3434 -0.7033 -0.6225
vn -0.7485 0.1072 -0.6544
vn -0.4200 0.1468 -0.8956
vn 0.5880 0.8088 -0.0000
vn 0.1359 0.7707 0.6225
vn 0.3919 -0.3889 -0.8338
vn -0.5171 0.8507 -0.0942
vn 0.1915 -0.1492 0.9701
vn 0.7509 0.4453 -0.4878
vn 0.4866 0.1799 -0.8549
vt 0.691000 0.978159
vt 0.690910 0.978350
vt 0.691316 0.978115
vt 0.983846 0.026514
vt 0.983708 0.026767
vt 0.983913 0.026309
vt 0.762637 0.940787
vt 0.762854 0.940565
vt 0.762971 0.940724
vt 0.983152 0.035702
vt 0.983558 0.035305
vt 0.983499 0.035274
vt 0.786327 0.940408
vt 0.785652 0.940486
vt 0.786499 0.940354
vt 0.983846 0.031001
vt 0.983708 0.031253
vt 0.983913 0.030795
vt 0.801391 0.940723
vt 0.801202 0.940986
vt 0.801428 0.940452
vt 0.505266 0.978218
vt 0.505266 0.978219
vt 0.505315 0.977681
vt 0.741532 0.979242
vt 0.739694 0.979106
vt 0.740798 0.977665
vt 0.882273 0.979561
vt 0.883155 0.978171
vt 0.882636 0.979740
vt 0.562941 0.977665
vt 0.563516 0.986881
vt 0.562886 0.977665
vt 0.688758 0.978401
vt 0.689071 0.979621
vt 0.688758 0.980745
vt 0.888440 0.979561
vt 0.888865 0.978243
vt 0.888601 0.979760
vt 0.683901 0.978176
vt 0.682889 0.978611
vt 0.684011 0.977665
vt 0.863462 0.978336
vt 0.865417 0.978014
vt 0.865346 0.978369
vt 0.495364 0.977822
vt 0.495703 0.978702
vt 0.494901 0.977770
vt 0.097474 0.978204
vt 0.098522 0.977665
vt 0.098647 0.978178
vt 0.695465 0.978401
vt 0.695777 0.979621
vt 0.695465 0.980745
vt 0.523557 0.978677
vt 0.523762 0.977871
vt 0.524499 0.977665
vt 0.900773 0.979561
vt 0.901496 0.978180
vt 0.900935 0.979760
vt 0.871495 0.979660
vt 0.871816 0.978606
vt 0.871816 0.980073
vt 0.857110 0.978311
vt 0.859004 0.978014
vt 0.858933 0.978369
vt 0.747790 0.979685
vt 0.747040 0.979874
vt 0.747844 0.979135
vt 0.329625 0.988863
vt 0.329702 0.977671
vt 0.329702 0.989203
vt 0.092374 0.978280
vt 0.092307 0.989470
vt 0.092299 0.977665
vt 0.537151 0.977674
vt 0.536568 0.986896
vt 0.536018 0.977665
vt 0.877348 0.979872
vt 0.876194 0.979577
vt 0.877636 0.979055
vt 0.496806 0.978843
vt 0.495554 0.987764
vt 0.098714 0.978179
vt 0.097816 0.989385
vt 0.334880 0.988863
vt 0.334956 0.977671
vt 0.334956 0.989203
vt 0.786524 0.940750
vt 0.789493 0.951733
vt 0.530434 0.977675
vt 0.529808 0.986896
vt 0.529258 0.977665
vt 0.801362 0.940451
vt 0.800397 0.940742
vt 0.800184 0.940454
vt 0.112504 0.978150
vt 0.111539 0.977665
vt 0.112270 0.977857
vt 0.748197 0.977802
vt 0.105057 0.978179
vt 0.105814 0.989388
vt 0.104991 0.978178
vt 0.716294 0.979697
vt 0.715351 0.977665
vt 0.716460 0.978638
vt 0.678592 0.979787
vt 0.677720 0.977665
vt 0.678830 0.978641
vt 0.350584 0.977861
vt 0.350392 0.989152
vt 0.349820 0.989151
vt 0.130014 0.977953
vt 0.130231 0.989152
vt 0.129259 0.989198
vt 0.287714 0.989414
vt 0.287446 0.977769
vt 0.287714 0.977665
vt 0.915143 0.978038
vt 0.914228 0.979407
vt 0.914778 0.977850
vt 0.141277 0.989137
vt 0.142131 0.977959
vt 0.142176 0.977742
vt 0.134969 0.977953
vt 0.135866 0.989150
vt 0.135632 0.989169
vt 0.760005 0.951719
vt 0.762878 0.940488
vt 0.763012 0.940671
vt 0.771535 0.947955
vt 0.202746 0.977862
vt 0.202035 0.989152
vt 0.201976 0.989151
vt 0.790131 0.929744
vt 0.786563 0.940373
vt 0.291982 0.989414
vt 0.291714 0.977779
vt 0.291982 0.977665
vt 0.147621 0.989137
vt 0.148475 0.977959
vt 0.148520 0.977742
vt 0.116830 0.977953
vt 0.117753 0.989150
vt 0.117589 0.989519
vt 0.794827 0.950164
vt 0.801736 0.940661
vt 0.808795 0.949529
vt 0.801530 0.940994
vt 0.801514 0.940740
vt 0.689988 0.977668
vt 0.957446 0.978429
vt 0.957027 0.979613
vt 0.957027 0.977665
vt 0.683888 0.980955
vt 0.683246 0.979859
vt 0.684342 0.980855
vt 0.498221 0.978063
vt 0.496981 0.978470
vt 0.498075 0.977665
vt 0.763260 0.939802
vt 0.762483 0.940682
vt 0.961854 0.978429
vt 0.961446 0.979613
vt 0.961446 0.977665
vt 0.802446 0.940540
vt 0.503964 0.978560
vt 0.505049 0.978026
vt 0.351251 0.989178
vt 0.619075 0.977815
vt 0.619156 0.987079
vt 0.618485 0.978039
vt 0.283446 0.989439
vt 0.283177 0.977696
vt 0.283446 0.977665
vt 0.762645 0.940260
vt 0.758418 0.929860
vt 0.763529 0.940051
vt 0.153887 0.977714
vt 0.153647 0.989475
vt 0.153649 0.977665
vt 0.678798 0.980049
vt 0.677515 0.980746
vt 0.522729 0.978485
vt 0.523743 0.987696
vt 0.522149 0.978771
vt 0.786242 0.940841
vt 0.776909 0.947106
vt 0.785574 0.940032
vt 0.800547 0.929255
vt 0.111404 0.978178
vt 0.110504 0.989352
vt 0.111337 0.978176
vt 0.120041 0.604057
vt 0.108762 0.717588
vt 0.108784 0.604025
vt 0.765184 0.002210
vt 0.878674 0.002175
vt 0.878698 0.513839
vt 0.120019 0.717621
vt 0.909967 0.002315
vt 0.898397 0.512566
vt 0.898403 0.002316
vt 0.894355 0.002314
vt 0.894350 0.512820
vt 0.882786 0.512820
vt 0.761050 0.513846
vt 0.647537 0.002210
vt 0.761026 0.002175
vt 0.882792 0.002313
vt 0.765208 0.513874
vt 0.647561 0.513881
vt 0.104497 0.604058
vt 0.104475 0.717629
vt 0.093218 0.717596
vt 0.909962 0.512565
vt 0.093240 0.604025
vt 0.426481 0.598868
vt 0.556904 0.581618
vt 0.545578 0.598469
vt 0.262170 0.002032
vt 0.137049 0.019331
vt 0.142218 0.002069
vt 0.267580 0.019333
vt 0.539416 0.734696
vt 0.420324 0.730735
vt 0.417781 0.608830
vt 0.425489 0.602905
vt 0.539583 0.602905
vt 0.402264 0.002000
vt 0.410381 0.019607
vt 0.394492 0.002172
vt 0.274279 0.019606
vt 0.280376 0.002201
vt 0.547193 0.608910
vt 0.272917 0.002074
vt 0.418805 0.598265
vt 0.425135 0.581862
vt 0.417691 0.581522
vt 0.547165 0.728820
vt 0.127320 0.002040
vt 0.002159 0.019385
vt 0.007395 0.002042
vt 0.132684 0.019386
vt 0.002202 0.599802
vt 0.417693 0.002299
vt 0.425094 0.002589
vt 0.585088 0.733431
vt 0.726825 0.602705
vt 0.726841 0.733326
vt 0.132738 0.599751
vt 0.719555 0.597094
vt 0.592293 0.597280
vt 0.585025 0.602884
vt 0.719632 0.738876
vt 0.592290 0.739071
vt 0.267646 0.599759
vt 0.137095 0.599667
vt 0.413689 0.598365
vt 0.406290 0.598792
vt 0.279157 0.598884
vt 0.271817 0.598494
vt 0.552282 0.002506
vt 0.559539 0.002127
vt 0.408618 0.603275
vt 0.342240 0.725287
vt 0.342252 0.603244
vt 0.408607 0.725321
vt 0.338199 0.603276
vt 0.338188 0.725329
vt 0.271820 0.725291
vt 0.271832 0.603239
vt 0.660457 0.518149
vt 0.662548 0.587463
vt 0.660301 0.587462
vt 0.662545 0.518230
vt 0.666639 0.518319
vt 0.668898 0.587462
vt 0.666653 0.587461
vt 0.668895 0.518230
vt 0.408483 0.729729
vt 0.408374 0.791951
vt 0.353727 0.792030
vt 0.353664 0.729708
vt 0.261014 0.857372
vt 0.260902 0.919563
vt 0.206255 0.919641
vt 0.206196 0.857351
vt 0.326797 0.729732
vt 0.326688 0.791955
vt 0.272040 0.792033
vt 0.408483 0.862897
vt 0.353723 0.925167
vt 0.353664 0.862877
vt 0.271978 0.729711
vt 0.408370 0.925089
vt 0.876299 0.597273
vt 0.876187 0.659464
vt 0.821540 0.659542
vt 0.821481 0.597252
vt 0.472689 0.738888
vt 0.472581 0.801111
vt 0.417933 0.801189
vt 0.417871 0.738868
vt 0.056998 0.838567
vt 0.002239 0.900836
vt 0.002179 0.838546
vt 0.056886 0.900759
vt 0.531843 0.738888
vt 0.477086 0.801189
vt 0.477024 0.738868
vt 0.531734 0.801111
vt 0.640023 0.743294
vt 0.639915 0.805517
vt 0.585267 0.805595
vt 0.585205 0.743273
vt 0.878016 0.778128
vt 0.877904 0.840320
vt 0.823257 0.840397
vt 0.823198 0.778107
vt 0.785859 0.825924
vt 0.731100 0.888194
vt 0.731041 0.825904
vt 0.699177 0.743294
vt 0.644420 0.805595
vt 0.644358 0.743273
vt 0.699068 0.805517
vt 0.785747 0.888116
vt 0.914185 0.120461
vt 0.976454 0.175221
vt 0.914164 0.175280
vt 0.976377 0.120574
vt 0.810690 0.518253
vt 0.810581 0.580476
vt 0.755933 0.580554
vt 0.755871 0.518232
vt 0.261015 0.790787
vt 0.260906 0.853009
vt 0.206258 0.853088
vt 0.206196 0.790766
vt 0.914185 0.002155
vt 0.976377 0.002267
vt 0.976454 0.056915
vt 0.914164 0.056974
vt 0.627572 0.002025
vt 0.616442 0.592673
vt 0.616479 0.002063
vt 0.596349 0.002025
vt 0.596346 0.593063
vt 0.585220 0.592969
vt 0.585256 0.002062
vt 0.627569 0.592766
vt 0.914185 0.061308
vt 0.976377 0.061420
vt 0.976454 0.116068
vt 0.914164 0.116127
vt 0.408483 0.796313
vt 0.408374 0.858535
vt 0.353727 0.858614
vt 0.353664 0.796292
vt 0.878016 0.711575
vt 0.877904 0.773767
vt 0.823257 0.773844
vt 0.823198 0.711554
vt 0.640023 0.809878
vt 0.639915 0.872101
vt 0.585267 0.872179
vt 0.585205 0.809858
vt 0.326797 0.796316
vt 0.326688 0.858539
vt 0.272040 0.858617
vt 0.271978 0.796295
vt 0.914185 0.179615
vt 0.976454 0.234374
vt 0.914164 0.234433
vt 0.976377 0.179727
vt 0.191901 0.838526
vt 0.137142 0.900795
vt 0.137083 0.838505
vt 0.191789 0.900718
vt 0.472689 0.805473
vt 0.417933 0.867773
vt 0.417871 0.805452
vt 0.472581 0.867695
vt 0.531843 0.805473
vt 0.531734 0.867695
vt 0.477086 0.867773
vt 0.477024 0.805452
vt 0.878016 0.844680
vt 0.823257 0.906950
vt 0.823198 0.844660
vt 0.877904 0.906872
vt 0.699177 0.809879
vt 0.699065 0.872071
vt 0.644417 0.872148
vt 0.751536 0.518253
vt 0.696780 0.580554
vt 0.696718 0.518232
vt 0.751428 0.580476
vt 0.644358 0.809858
vt 0.914185 0.238768
vt 0.976454 0.293527
vt 0.914164 0.293586
vt 0.976377 0.238880
vt 0.261015 0.724203
vt 0.206258 0.786504
vt 0.206196 0.724182
vt 0.260906 0.786425
vt 0.869843 0.518253
vt 0.815087 0.580554
vt 0.815024 0.518232
vt 0.869734 0.580476
vt 0.132748 0.838526
vt 0.132636 0.900718
vt 0.077989 0.900795
vt 0.077930 0.838505
vt 0.611961 0.002025
vt 0.611957 0.593063
vt 0.600831 0.592969
vt 0.643183 0.002025
vt 0.632053 0.592673
vt 0.632090 0.002063
vt 0.643180 0.592766
vt 0.600868 0.002062
vt 0.002023 0.724239
vt 0.067092 0.724299
vt 0.067078 0.834176
vt 0.730883 0.711593
vt 0.795921 0.711657
vt 0.795906 0.821533
vt 0.002013 0.834116
vt 0.730874 0.821470
vt 0.130942 0.604058
vt 0.131701 0.714151
vt 0.130148 0.714079
vt 0.806713 0.597198
vt 0.807471 0.707290
vt 0.805919 0.707219
vt 0.136927 0.724198
vt 0.201996 0.724258
vt 0.201982 0.834135
vt 0.136917 0.834074
vt 0.730883 0.597267
vt 0.795921 0.597331
vt 0.795906 0.707208
vt 0.730874 0.707144
vt 0.125158 0.604059
vt 0.125917 0.714151
vt 0.124365 0.714079
vt 0.800929 0.597198
vt 0.801687 0.707290
vt 0.800135 0.707219
vt 0.223877 0.719816
vt 0.137014 0.604083
vt 0.223811 0.604023
vt 0.137080 0.719876
vt 0.129409 0.721885
vt 0.129392 0.808490
vt 0.113256 0.808490
vt 0.264310 0.604096
vt 0.264318 0.719462
vt 0.248153 0.719466
vt 0.248156 0.604036
vt 0.113257 0.721824
vt 0.244145 0.604094
vt 0.244153 0.719517
vt 0.227988 0.719521
vt 0.109245 0.721885
vt 0.109233 0.808496
vt 0.093098 0.808496
vt 0.093092 0.721824
vt 0.227991 0.604034
vt 0.002110 0.604126
vt 0.088908 0.604066
vt 0.088974 0.719857
vt 0.002177 0.719918
vt 0.399816 0.961273
vt 0.399808 0.953960
vt 0.411063 0.958455
vt 0.173203 0.973452
vt 0.148733 0.960596
vt 0.148141 0.943605
vt 0.364116 0.929279
vt 0.364194 0.941759
vt 0.352830 0.941008
vt 0.353028 0.929253
vt 0.441894 0.941357
vt 0.430795 0.957369
vt 0.430805 0.940459
vt 0.441882 0.958088
vt 0.159870 0.931224
vt 0.176978 0.930938
vt 0.441876 0.929253
vt 0.430787 0.929253
vt 0.243197 0.949650
vt 0.243410 0.932726
vt 0.254561 0.933555
vt 0.189150 0.943060
vt 0.254563 0.950402
vt 0.190814 0.956014
vt 0.243206 0.961296
vt 0.185185 0.966402
vt 0.410894 0.945307
vt 0.399646 0.939962
vt 0.160199 0.971859
vt 0.254666 0.961370
vt 0.399666 0.929384
vt 0.411048 0.932811
vt 0.958222 0.817139
vt 0.937012 0.834744
vt 0.921048 0.828790
vt 0.914103 0.813211
vt 0.920393 0.797318
vt 0.951770 0.828523
vt 0.936258 0.790746
vt 0.948864 0.794189
vt 0.956301 0.803374
vt 0.352762 0.954036
vt 0.364167 0.957492
vt 0.352761 0.961324
vt 0.699218 0.929367
vt 0.708963 0.933005
vt 0.712851 0.943088
vt 0.684712 0.947004
vt 0.686316 0.936673
vt 0.705841 0.955643
vt 0.691455 0.955492
vt 0.570161 0.929367
vt 0.576772 0.955666
vt 0.562395 0.955528
vt 0.555660 0.947042
vt 0.557265 0.936696
vt 0.579901 0.933004
vt 0.583737 0.943062
vt 0.378155 0.988858
vt 0.376991 0.988863
vt 0.376978 0.977670
vt 0.378075 0.977665
vt 0.128276 0.977953
vt 0.715457 0.980453
vt 0.714610 0.979190
vt 0.091131 0.978258
vt 0.175093 0.977665
vt 0.176249 0.978245
vt 0.176013 0.989456
vt 0.175093 0.989411
vt 0.128276 0.989177
vt 0.684758 0.979044
vt 0.093412 0.978175
vt 0.093158 0.989486
vt 0.122845 0.978304
vt 0.124276 0.977665
vt 0.124100 0.989444
vt 0.328447 0.988865
vt 0.328803 0.977666
vt 0.362080 0.989141
vt 0.360705 0.989141
vt 0.361459 0.977867
vt 0.445687 0.977802
vt 0.446764 0.988603
vt 0.444838 0.988563
vt 0.246825 0.989200
vt 0.245520 0.989253
vt 0.246161 0.977857
vt 0.471140 0.977974
vt 0.472187 0.988629
vt 0.470173 0.988688
vt 0.714995 0.977807
vt 0.158813 0.978275
vt 0.160240 0.989411
vt 0.159071 0.989462
vt 0.160240 0.977665
vt 0.569667 0.977674
vt 0.571045 0.977677
vt 0.570153 0.986882
vt 0.091131 0.989449
vt 0.890206 0.979372
vt 0.295982 0.977665
vt 0.297144 0.978141
vt 0.296905 0.989355
vt 0.619911 0.978085
vt 0.682861 0.979730
vt 0.140959 0.977940
vt 0.295982 0.989313
vt 0.143303 0.989129
vt 0.143303 0.977910
vt 0.516109 0.978767
vt 0.517138 0.978501
vt 0.517397 0.987728
vt 0.273982 0.989209
vt 0.272677 0.989260
vt 0.273319 0.977869
vt 0.407437 0.988759
vt 0.406414 0.977910
vt 0.408355 0.977963
vt 0.214243 0.989223
vt 0.212908 0.989200
vt 0.213620 0.977856
vt 0.413823 0.988582
vt 0.412720 0.977865
vt 0.414707 0.977802
vt 0.221428 0.973452
vt 0.208424 0.971859
vt 0.196958 0.960596
vt 0.348544 0.941759
vt 0.348517 0.957492
vt 0.337112 0.954036
vt 0.337180 0.941008
vt 0.225204 0.930938
vt 0.237375 0.943060
vt 0.196366 0.943605
vt 0.239039 0.956014
vt 0.233410 0.966402
vt 0.384194 0.961273
vt 0.384187 0.953960
vt 0.395441 0.958455
vt 0.395272 0.945307
vt 0.208096 0.931224
vt 0.384025 0.939962
vt 0.487203 0.929253
vt 0.476132 0.940459
vt 0.476114 0.929253
vt 0.487221 0.941357
vt 0.274528 0.949650
vt 0.274741 0.932726
vt 0.285892 0.933555
vt 0.285894 0.950402
vt 0.274536 0.961296
vt 0.395426 0.932811
vt 0.285996 0.961370
vt 0.019611 0.973488
vt 0.008226 0.967035
vt 0.002005 0.952277
vt 0.007959 0.936314
vt 0.023538 0.929369
vt 0.476122 0.957369
vt 0.039432 0.935658
vt 0.487209 0.958087
vt 0.046003 0.951523
vt 0.042561 0.964129
vt 0.033375 0.971566
vt 0.384044 0.929384
vt 0.348466 0.929279
vt 0.337378 0.929253
vt 0.337111 0.961324
vt 0.666190 0.957534
vt 0.656455 0.953887
vt 0.652556 0.943815
vt 0.659563 0.931257
vt 0.673952 0.931401
vt 0.680712 0.939872
vt 0.679102 0.950213
vt 0.530032 0.955443
vt 0.525155 0.936793
vt 0.537478 0.929369
vt 0.549845 0.936689
vt 0.551444 0.947411
vt 0.523446 0.947422
vt 0.544866 0.955561
vt 0.864813 0.979955
vt 0.863343 0.979495
vt 0.136958 0.989153
vt 0.192514 0.989153
vt 0.191927 0.989377
vt 0.191840 0.977864
vt 0.136959 0.977955
vt 0.345815 0.989176
vt 0.344408 0.989151
vt 0.345157 0.977862
vt 0.760294 0.929253
vt 0.762053 0.941041
vt 0.134617 0.989177
vt 0.367511 0.989141
vt 0.366136 0.989141
vt 0.366891 0.977867
vt 0.235962 0.989200
vt 0.234656 0.989252
vt 0.235298 0.977856
vt 0.477487 0.977974
vt 0.478533 0.988629
vt 0.476519 0.988687
vt 0.452034 0.977802
vt 0.453110 0.988603
vt 0.451185 0.988563
vt 0.556168 0.977665
vt 0.557543 0.977676
vt 0.556670 0.986878
vt 0.153647 0.978010
vt 0.154813 0.989446
vt 0.875816 0.980035
vt 0.875923 0.978658
vt 0.761517 0.940448
vt 0.876642 0.977665
vt 0.877437 0.977671
vt 0.758066 0.951093
vt 0.772690 0.946353
vt 0.763643 0.939764
vt 0.763754 0.941151
vt 0.908125 0.977955
vt 0.909029 0.977944
vt 0.908576 0.979589
vt 0.207408 0.978246
vt 0.208843 0.977665
vt 0.208843 0.989428
vt 0.207667 0.989434
vt 0.153895 0.989471
vt 0.906968 0.979757
vt 0.907479 0.978325
vt 0.906828 0.979635
vt 0.099817 0.989398
vt 0.099817 0.978210
vt 0.490073 0.978651
vt 0.490882 0.978924
vt 0.489565 0.987863
vt 0.542801 0.977673
vt 0.544176 0.977677
vt 0.543316 0.986896
vt 0.257688 0.989209
vt 0.256382 0.989260
vt 0.257024 0.977869
vt 0.219675 0.989223
vt 0.218340 0.989200
vt 0.219052 0.977856
vt 0.420170 0.988582
vt 0.419066 0.977865
vt 0.421054 0.977802
vt 0.388396 0.988759
vt 0.387374 0.977910
vt 0.389315 0.977963
vt 0.124975 0.973453
vt 0.099918 0.943603
vt 0.111650 0.931223
vt 0.142589 0.956019
vt 0.136958 0.966404
vt 0.128758 0.930940
vt 0.100507 0.960593
vt 0.140927 0.943065
vt 0.415430 0.953960
vt 0.426516 0.945307
vt 0.426684 0.958455
vt 0.415268 0.939962
vt 0.111972 0.971858
vt 0.415437 0.961273
vt 0.332893 0.941759
vt 0.332867 0.957492
vt 0.321462 0.954037
vt 0.321530 0.941008
vt 0.332816 0.929279
vt 0.321728 0.929253
vt 0.457003 0.941357
vt 0.456991 0.958087
vt 0.445904 0.957369
vt 0.456985 0.929253
vt 0.445914 0.940459
vt 0.445896 0.929253
vt 0.290193 0.949650
vt 0.290406 0.932726
vt 0.301557 0.933555
vt 0.301559 0.950402
vt 0.290202 0.961296
vt 0.426669 0.932811
vt 0.958223 0.768996
vt 0.914103 0.765068
vt 0.920393 0.749175
vt 0.951770 0.780381
vt 0.937012 0.786602
vt 0.936258 0.742604
vt 0.921048 0.780648
vt 0.948864 0.746046
vt 0.956301 0.755232
vt 0.415287 0.929384
vt 0.301662 0.961370
vt 0.321461 0.961324
vt 0.731477 0.929368
vt 0.745110 0.943088
vt 0.738100 0.955643
vt 0.723714 0.955492
vt 0.716971 0.947004
vt 0.718575 0.936673
vt 0.741222 0.933005
vt 0.602399 0.929367
vt 0.612139 0.933004
vt 0.615975 0.943062
vt 0.609010 0.955666
vt 0.594632 0.955528
vt 0.587898 0.947042
vt 0.589503 0.936696
vt 0.696349 0.978096
vt 0.697878 0.978363
vt 0.697111 0.980018
vt 0.787126 0.941093
vt 0.197399 0.989309
vt 0.196562 0.989151
vt 0.197152 0.977865
vt 0.788373 0.929253
vt 0.203372 0.989152
vt 0.333702 0.988865
vt 0.334058 0.977666
vt 0.383333 0.988858
vt 0.382169 0.988863
vt 0.382155 0.977670
vt 0.383253 0.977665
vt 0.785404 0.941309
vt 0.778142 0.948681
vt 0.870476 0.979920
vt 0.869607 0.978335
vt 0.870841 0.978027
vt 0.278024 0.977665
vt 0.279177 0.978183
vt 0.278111 0.989401
vt 0.677679 0.981041
vt 0.676962 0.979207
vt 0.241393 0.989200
vt 0.240088 0.989252
vt 0.240729 0.977856
vt 0.372943 0.989141
vt 0.371568 0.989141
vt 0.372323 0.977867
vt 0.464793 0.977974
vt 0.465840 0.988629
vt 0.463826 0.988688
vt 0.458380 0.977802
vt 0.459457 0.988603
vt 0.457532 0.988563
vt 0.677364 0.977807
vt 0.301144 0.977665
vt 0.302307 0.978131
vt 0.302067 0.989345
vt 0.169666 0.978275
vt 0.171093 0.989411
vt 0.169924 0.989462
vt 0.171093 0.977665
vt 0.564294 0.977676
vt 0.301144 0.989302
vt 0.902687 0.978397
vt 0.147303 0.977940
vt 0.149646 0.989129
vt 0.149646 0.977910
vt 0.583038 0.978543
vt 0.583525 0.978256
vt 0.583188 0.987584
vt 0.426516 0.988582
vt 0.425413 0.977865
vt 0.427401 0.977802
vt 0.394743 0.988759
vt 0.393720 0.977910
vt 0.395662 0.977963
vt 0.225107 0.989223
vt 0.223772 0.989200
vt 0.224484 0.977856
vt 0.263119 0.989209
vt 0.261814 0.989260
vt 0.262455 0.977869
vt 0.472112 0.941357
vt 0.472100 0.958087
vt 0.461013 0.957369
vt 0.076751 0.973453
vt 0.051695 0.943603
vt 0.063426 0.931223
vt 0.461023 0.940459
vt 0.080535 0.930940
vt 0.472094 0.929253
vt 0.461005 0.929253
vt 0.092704 0.943065
vt 0.258862 0.949650
vt 0.259076 0.932726
vt 0.270227 0.933556
vt 0.063748 0.971858
vt 0.052283 0.960593
vt 0.094366 0.956019
vt 0.088735 0.966404
vt 0.368573 0.961273
vt 0.368565 0.953960
vt 0.379820 0.958455
vt 0.379651 0.945307
vt 0.368403 0.939962
vt 0.258871 0.961296
vt 0.270228 0.950402
vt 0.270331 0.961370
vt 0.368423 0.929384
vt 0.379805 0.932811
vt 0.958223 0.865281
vt 0.951770 0.876666
vt 0.937012 0.882887
vt 0.921048 0.876933
vt 0.936258 0.838889
vt 0.948864 0.842331
vt 0.914103 0.861353
vt 0.920393 0.845460
vt 0.956301 0.851517
vt 0.317165 0.929279
vt 0.305880 0.941008
vt 0.306078 0.929253
vt 0.317243 0.941759
vt 0.305812 0.954036
vt 0.317217 0.957492
vt 0.305811 0.961324
vt 0.633902 0.957534
vt 0.627275 0.931257
vt 0.641664 0.931401
vt 0.648424 0.939872
vt 0.646814 0.950213
vt 0.620268 0.943814
vt 0.624167 0.953887
vt 0.497813 0.955443
vt 0.491227 0.947422
vt 0.492937 0.936793
vt 0.505260 0.929369
vt 0.517627 0.936689
vt 0.519225 0.947411
vt 0.512648 0.955561
vt 0.856810 0.979755
vt 0.856780 0.979695
vt 0.856930 0.979496
vt 0.118845 0.989153
vt 0.118845 0.977954
vt 0.340363 0.989167
vt 0.338976 0.989151
vt 0.339745 0.977863
vt 0.802520 0.929256
vt 0.859069 0.979664
vt 0.116504 0.989177
vt 0.252257 0.989200
vt 0.250952 0.989252
vt 0.251593 0.977857
vt 0.483833 0.977974
vt 0.484880 0.988629
vt 0.482866 0.988688
vt 0.356648 0.989141
vt 0.355273 0.989141
vt 0.356028 0.977867
vt 0.439340 0.977802
vt 0.440417 0.988603
vt 0.438491 0.988563
vt 0.746043 0.980020
vt 0.746009 0.979977
vt 0.746009 0.979637
vt 0.112503 0.989341
vt 0.502782 0.977856
vt 0.503051 0.987739
vt 0.746385 0.978437
vt 0.110161 0.978155
vt 0.795562 0.950724
vt 0.164240 0.978275
vt 0.165666 0.977665
vt 0.165515 0.989418
vt 0.801712 0.940797
vt 0.778723 0.978792
vt 0.777214 0.978122
vt 0.777867 0.977665
vt 0.776959 0.978521
vt 0.800569 0.941667
vt 0.807145 0.950724
vt 0.777757 0.980193
vt 0.777573 0.980214
vt 0.104860 0.977668
vt 0.103818 0.989392
vt 0.549431 0.977665
vt 0.550821 0.977677
vt 0.549947 0.986896
vt 0.802449 0.940266
vt 0.106161 0.978210
vt 0.268551 0.989209
vt 0.267245 0.989260
vt 0.267887 0.977869
vt 0.432863 0.988582
vt 0.431760 0.977865
vt 0.433747 0.977802
vt 0.401090 0.988759
vt 0.400067 0.977910
vt 0.402009 0.977963
vt 0.230538 0.989223
vt 0.229204 0.989200
vt 0.229915 0.977856
vt 0.935246 0.929450
vt 0.935238 0.945903
vt 0.926216 0.945890
vt 0.926224 0.929437
vt 0.908668 0.929450
vt 0.899639 0.945891
vt 0.899647 0.929436
vt 0.908660 0.945904
vt 0.025602 0.977856
vt 0.016006 0.993146
vt 0.016012 0.977846
vt 0.025596 0.993157
vt 0.603841 0.977792
vt 0.607143 0.977782
vt 0.607141 0.987409
vt 0.054289 0.977665
vt 0.050948 0.992733
vt 0.050948 0.977665
vt 0.058289 0.992733
vt 0.058289 0.977665
vt 0.061630 0.977665
vt 0.596509 0.977792
vt 0.599807 0.987410
vt 0.596507 0.987420
vt 0.603839 0.987420
vt 0.061630 0.992733
vt 0.054289 0.992733
vt 0.011732 0.977857
vt 0.011727 0.993158
vt 0.002137 0.993147
vt 0.599808 0.977782
vt 0.002143 0.977845
vt 0.921957 0.929450
vt 0.912927 0.945890
vt 0.912935 0.929437
vt 0.961427 0.945486
vt 0.963039 0.929253
vt 0.964778 0.945486
vt 0.647690 0.977782
vt 0.649277 0.986832
vt 0.645972 0.986845
vt 0.895380 0.929450
vt 0.886350 0.945891
vt 0.886358 0.929436
vt 0.895371 0.945904
vt 0.921949 0.945903
vt 0.039471 0.977856
vt 0.029876 0.993146
vt 0.029881 0.977846
vt 0.039466 0.993157
vt 0.611176 0.977792
vt 0.614477 0.977782
vt 0.614475 0.987409
vt 0.068970 0.977665
vt 0.065630 0.992733
vt 0.065630 0.977665
vt 0.068970 0.992733
vt 0.611173 0.987420
vt 0.978510 0.929445
vt 0.978505 0.944746
vt 0.968915 0.944735
vt 0.589176 0.977792
vt 0.592475 0.977782
vt 0.592474 0.987410
vt 0.968920 0.929434
vt 0.043608 0.992733
vt 0.046948 0.977665
vt 0.046948 0.992733
vt 0.589174 0.987420
vt 0.043608 0.977665
vt 0.914212 0.897793
vt 0.948591 0.904505
vt 0.914192 0.904488
vt 0.948612 0.897809
vt 0.914212 0.886955
vt 0.948593 0.893667
vt 0.914192 0.893650
vt 0.948614 0.886971
vt 0.871256 0.929452
vt 0.864094 0.947631
vt 0.864167 0.929317
vt 0.871184 0.947767
vt 0.859969 0.929452
vt 0.859898 0.947768
vt 0.852809 0.947631
vt 0.852881 0.929316
vt 0.914095 0.326765
vt 0.977874 0.326562
vt 0.977904 0.327491
vt 0.977786 0.310658
vt 0.914249 0.311227
vt 0.914145 0.310139
vt 0.914247 0.362735
vt 0.977721 0.363324
vt 0.914089 0.363833
vt 0.914169 0.342515
vt 0.977727 0.342046
vt 0.977726 0.343065
vt 0.914081 0.336683
vt 0.977889 0.337408
vt 0.914110 0.337612
vt 0.977838 0.316654
vt 0.914197 0.316134
vt 0.977734 0.315564
vt 0.691004 0.978570
vt 0.691257 0.978497
vt 0.690946 0.978481
vt 0.691253 0.978415
vt 0.690173 0.979003
vt 0.691465 0.978555
vt 0.983954 0.026519
vt 0.984138 0.026396
vt 0.983914 0.026634
vt 0.984138 0.026788
vt 0.983863 0.026703
vt 0.983341 0.035433
vt 0.983080 0.035274
vt 0.983076 0.035724
vt 0.983068 0.035482
vt 0.983144 0.035669
vt 0.983410 0.035537
vt 0.786448 0.940653
vt 0.983954 0.031006
vt 0.984138 0.030883
vt 0.983914 0.031119
vt 0.984138 0.031274
vt 0.983862 0.031179
vt 0.801467 0.940675
vt 0.505070 0.977948
vt 0.505318 0.977806
vt 0.505264 0.978178
vt 0.505275 0.978181
vt 0.505062 0.977665
vt 0.864433 0.977669
vt 0.097723 0.977925
vt 0.857995 0.977667
vt 0.517903 0.977665
vt 0.518139 0.977970
vt 0.865607 0.978387
vt 0.877798 0.977665
vt 0.790628 0.951328
vt 0.584954 0.977665
vt 0.585150 0.977997
vt 0.859194 0.978387
vt 0.747818 0.977665
vt 0.510720 0.978642
vt 0.511864 0.977770
vt 0.512080 0.978089
vt 0.287464 0.989408
vt 0.291732 0.989408
vt 0.794628 0.950012
vt 0.733312 0.979102
vt 0.734415 0.977665
vt 0.735052 0.979244
vt 0.890494 0.977897
vt 0.957280 0.979329
vt 0.961699 0.979350
vt 0.688815 0.979777
vt 0.092486 0.977983
vt 0.283196 0.989433
vt 0.488880 0.978083
vt 0.488897 0.977665
vt 0.695521 0.979777
vt 0.509332 0.978084
vt 0.509318 0.977665
vt 0.376978 0.989152
vt 0.684113 0.980746
vt 0.129362 0.989438
vt 0.715267 0.977916
vt 0.142268 0.977665
vt 0.863223 0.979755
vt 0.135704 0.989438
vt 0.154783 0.978230
vt 0.908995 0.977901
vt 0.907001 0.979799
vt 0.697847 0.978303
vt 0.382155 0.989152
vt 0.582409 0.977812
vt 0.582650 0.977665
vt 0.677642 0.977916
vt 0.148611 0.977665
vt 0.857988 0.980135
vt 0.117590 0.989438
vt 0.777811 0.980197
s 1
usemtl city_bus_baked
f 161/1/1 162/2/1 163/3/1
f 180/4/2 181/5/2 179/6/2
f 244/7/3 245/8/3 241/9/3
f 259/10/4 253/11/4 254/12/4
f 308/13/5 298/14/5 304/15/5
f 321/16/6 322/17/6 320/18/6
f 387/19/7 389/20/7 391/21/7
f 397/22/8 400/23/8 402/24/8
f 300/25/9 301/26/10 303/27/11
f 380/28/12 381/29/13 379/30/14
f 317/31/15 319/32/16 329/33/17
f 156/34/18 180/35/18 179/36/18
f 189/37/19 187/38/20 190/39/21
f 184/40/22 193/41/22 179/42/22
f 228/43/23 252/44/23 260/45/23
f 245/46/24 247/47/24 239/48/24
f 266/49/25 255/50/25 254/51/25
f 302/52/26 321/53/26 320/54/26
f 328/55/27 298/56/27 309/57/27
f 330/58/28 318/59/29 331/60/30
f 325/61/31 335/62/31 320/63/31
f 370/64/32 396/65/32 403/66/32
f 377/67/33 376/68/34 382/69/35
f 181/70/36 169/71/36 182/72/36
f 160/73/37 177/74/37 161/75/37
f 194/76/38 195/77/39 193/78/40
f 238/79/41 255/80/41 237/81/41
f 248/82/42 249/83/43 247/47/44
f 253/84/45 262/85/45 254/51/45
f 322/86/46 303/87/46 323/88/46
f 307/89/47 318/90/47 308/13/47
f 336/91/48 333/92/49 335/93/50
f 390/94/51 366/95/52 367/96/53
f 377/97/33 384/98/54 376/99/34
f 382/69/55 387/100/55 377/67/55
f 397/101/56 404/102/57 398/103/58
f 175/104/59 179/105/59 174/106/59
f 317/107/15 320/108/60 316/109/61
f 166/110/62 157/111/63 156/112/64
f 167/113/65 157/114/66 161/115/67
f 189/116/68 186/117/68 185/118/68
f 196/119/69 192/120/70 195/121/71
f 192/122/72 183/123/72 182/124/72
f 229/125/73 259/126/73 258/127/73
f 249/128/74 244/7/74 243/129/74
f 240/130/75 263/131/75 241/9/75
f 301/132/76 299/133/76 302/134/76
f 304/15/77 300/135/77 305/136/77
f 330/137/78 327/138/78 326/139/78
f 334/140/79 324/141/79 323/142/79
f 368/143/80 402/144/80 401/145/80
f 380/146/81 389/20/81 388/147/81
f 395/148/82 393/149/82 392/150/82
f 162/2/83 168/151/83 163/3/83
f 186/152/84 178/153/84 179/154/84
f 163/155/85 191/156/85 164/157/85
f 256/158/86 250/159/86 257/160/86
f 265/161/87 240/130/87 239/162/87
f 327/163/88 315/164/88 320/165/88
f 370/166/89 392/150/89 391/21/89
f 378/167/90 401/168/90 400/23/90
f 157/111/63 166/110/62 168/169/91
f 158/170/92 187/171/93 178/172/94
f 196/173/95 165/174/95 164/175/95
f 242/176/96 230/177/97 228/178/98
f 257/179/99 251/180/99 258/181/99
f 329/182/100 308/183/100 317/107/100
f 314/184/101 318/185/102 315/186/103
f 306/187/104 333/188/49 336/189/48
f 390/94/105 371/190/106 391/21/107
f 399/191/108 381/192/109 400/193/109
f 2/194/110 1/195/111 3/196/112
f 3/197/113 1/198/113 7/199/113
f 2/194/110 5/200/114 1/195/111
f 5/201/114 7/202/115 1/203/111
f 6/204/116 2/205/110 3/206/112
f 6/207/117 5/208/117 2/209/117
f 6/204/116 3/206/112 8/210/118
f 3/197/113 7/199/113 8/211/113
f 6/207/117 4/212/117 5/208/117
f 4/213/119 6/214/116 8/215/118
f 5/201/114 4/216/119 7/202/115
f 4/213/119 8/215/118 7/217/115
f 21/218/120 19/219/121 9/220/122
f 9/221/122 18/222/123 20/223/124
f 9/221/122 19/224/121 18/222/123
f 21/225/120 9/226/122 20/227/124
f 21/225/120 10/228/125 11/229/126
f 21/225/120 20/227/124 10/228/125
f 20/230/124 18/231/123 10/232/125
f 10/232/125 17/233/127 11/234/126
f 10/232/125 18/231/123 17/233/127
f 21/225/120 11/229/126 16/235/128
f 11/234/126 17/233/127 16/236/128
f 12/237/129 27/238/130 21/218/120
f 12/237/129 15/239/131 27/238/130
f 21/225/120 16/235/128 12/240/129
f 16/241/128 15/242/132 12/243/133
f 17/244/134 13/245/135 15/242/136
f 15/239/137 13/246/135 28/247/138
f 13/248/135 14/249/139 25/250/140
f 17/244/134 22/251/141 13/245/135
f 13/248/135 23/252/142 14/249/139
f 13/248/135 24/253/143 23/252/142
f 13/248/135 22/254/141 24/253/143
f 13/248/135 26/255/144 28/256/138
f 13/248/135 25/250/140 26/255/144
f 19/224/145 25/257/140 14/258/139
f 19/224/145 14/258/139 18/222/146
f 18/231/147 14/259/139 23/260/142
f 15/239/137 28/247/138 27/238/148
f 16/241/128 17/244/127 15/242/132
f 17/233/134 24/261/143 22/262/141
f 18/231/147 24/261/143 17/233/149
f 18/231/147 23/260/142 24/261/143
f 19/219/145 26/263/144 25/264/140
f 21/218/120 27/238/130 19/219/121
f 27/238/148 26/263/144 19/219/150
f 27/238/148 28/247/138 26/263/144
f 32/265/151 29/266/152 30/267/153
f 32/265/151 31/268/154 29/266/152
f 31/269/154 32/270/151 30/271/153
f 31/269/154 30/271/153 29/272/152
f 34/273/155 33/274/156 35/275/157
f 34/273/155 36/276/158 33/274/156
f 36/277/158 35/278/157 33/279/156
f 36/277/158 34/280/155 35/278/157
f 38/281/159 37/282/160 40/283/161
f 38/281/159 40/283/161 39/284/162
f 37/285/160 38/286/159 39/287/162
f 37/285/160 39/287/162 40/288/161
f 43/289/159 41/290/160 42/291/161
f 41/292/160 44/293/162 42/294/161
f 43/289/159 42/291/161 44/295/162
f 41/292/160 43/296/159 44/293/162
f 45/297/160 47/298/163 48/299/162
f 45/297/160 48/299/162 46/300/164
f 47/301/163 45/302/160 46/303/164
f 47/301/163 46/303/164 48/304/162
f 52/305/160 51/306/162 49/307/161
f 52/305/160 50/308/159 51/306/162
f 50/309/159 49/310/161 51/311/162
f 50/309/159 52/312/160 49/310/161
f 54/313/159 53/314/160 56/315/161
f 54/313/159 56/315/161 55/316/162
f 53/317/160 54/318/159 55/319/162
f 53/317/160 55/319/162 56/320/161
f 60/321/160 59/322/162 57/323/161
f 58/324/159 57/325/161 59/326/162
f 58/324/159 60/327/160 57/325/161
f 60/321/160 58/328/159 59/322/162
f 64/329/160 62/330/162 61/331/161
f 64/329/160 63/332/159 62/330/162
f 63/333/159 64/334/160 61/335/161
f 63/333/159 61/335/161 62/336/162
f 65/337/159 66/338/160 68/339/165
f 65/337/159 68/339/165 67/340/162
f 66/341/160 65/342/159 67/343/162
f 66/341/160 67/343/162 68/344/165
f 72/345/166 71/346/167 69/347/168
f 70/348/169 72/349/166 69/350/168
f 70/348/169 69/350/168 71/351/167
f 72/345/166 70/352/169 71/346/167
f 75/353/160 73/354/159 74/355/162
f 75/353/160 74/355/162 76/356/161
f 73/357/159 75/358/160 76/359/161
f 73/357/159 76/359/161 74/360/162
f 77/361/170 80/362/159 79/363/171
f 77/361/170 79/363/171 78/364/161
f 80/365/159 77/366/170 78/367/161
f 80/365/159 78/367/161 79/368/171
f 83/369/163 81/370/160 84/371/161
f 83/369/163 84/371/161 82/372/162
f 81/373/160 82/374/162 84/375/161
f 81/373/160 83/376/163 82/374/162
f 85/377/172 87/378/162 86/379/164
f 85/377/172 88/380/159 87/378/162
f 88/381/159 86/382/164 87/383/162
f 88/381/159 85/384/172 86/382/164
f 92/385/163 89/386/170 90/387/161
f 92/385/163 90/387/161 91/388/162
f 89/389/170 91/390/162 90/391/161
f 89/389/170 92/392/163 91/390/162
f 95/393/160 93/394/159 96/395/162
f 93/396/159 94/397/161 96/398/162
f 93/396/159 95/399/160 94/397/161
f 95/393/160 96/395/162 94/400/161
f 97/401/160 100/402/162 98/403/161
f 97/401/160 99/404/159 100/402/162
f 99/405/159 98/406/161 100/407/162
f 99/405/159 97/408/160 98/406/161
f 102/409/159 103/410/161 101/411/162
f 102/409/159 104/412/160 103/410/161
f 104/413/160 102/414/159 101/415/162
f 104/413/160 101/415/162 103/416/161
f 108/417/173 105/418/174 107/419/175
f 105/420/174 106/421/176 107/422/175
f 105/420/174 108/423/173 106/421/176
f 108/417/173 107/419/175 106/424/176
f 110/425/177 109/426/178 112/427/179
f 109/428/178 110/429/177 111/430/180
f 110/425/177 112/427/179 111/431/180
f 109/428/178 111/430/180 112/432/179
f 115/433/181 114/434/181 113/435/181
f 115/436/181 113/437/181 114/438/181
f 119/439/182 116/440/178 118/441/179
f 119/439/182 118/441/179 117/442/180
f 116/443/178 119/444/182 117/445/180
f 116/443/178 117/445/180 118/446/179
f 120/447/181 122/448/181 121/449/181
f 120/450/181 121/451/181 122/452/181
f 126/453/117 123/454/117 124/455/183
f 126/453/117 125/456/184 123/454/117
f 124/457/185 123/458/186 127/459/187
f 123/460/186 125/461/188 129/462/189
f 123/460/186 129/462/189 127/463/187
f 124/457/185 127/459/187 128/464/190
f 126/465/191 124/466/185 128/467/190
f 125/468/188 126/469/191 130/470/192
f 125/468/188 130/470/192 129/471/189
f 126/465/191 128/467/190 130/472/192
f 128/473/113 127/474/193 129/475/113
f 128/473/113 129/475/113 130/476/194
f 131/477/195 137/478/196 143/479/197
f 137/480/196 132/481/198 133/482/199
f 133/483/199 132/484/200 142/485/201
f 133/483/199 142/485/201 147/486/202
f 134/487/203 147/488/202 141/489/204
f 134/487/203 133/490/199 147/488/202
f 137/480/196 133/482/199 134/491/203
f 137/480/196 134/491/203 135/492/205
f 135/493/205 134/487/203 141/489/204
f 135/493/205 141/489/204 139/494/206
f 136/495/207 135/496/205 139/497/206
f 137/480/196 135/492/205 136/498/208
f 136/495/207 139/497/206 146/499/209
f 137/480/196 136/498/208 138/500/210
f 138/501/211 136/495/207 146/499/209
f 137/480/196 138/500/210 144/502/212
f 137/478/196 140/503/213 143/479/214
f 137/478/196 144/504/212 140/503/213
f 137/480/196 131/505/195 132/481/198
f 138/501/211 146/499/209 145/506/215
f 144/504/216 138/507/217 145/508/218
f 140/509/213 146/510/219 139/511/206
f 140/509/213 141/512/204 147/513/202
f 140/509/213 145/514/218 146/510/219
f 140/509/213 147/513/202 142/515/220
f 140/509/213 139/511/206 141/512/204
f 140/509/213 148/516/221 143/517/214
f 144/504/216 145/508/218 140/503/213
f 140/509/213 142/515/220 148/516/221
f 132/484/200 148/518/222 142/485/201
f 131/519/195 143/520/197 148/518/223
f 132/484/200 131/519/224 148/518/222
f 149/521/225 154/522/226 153/523/227
f 149/521/225 155/524/228 152/525/229
f 149/521/225 153/523/227 150/526/230
f 149/521/225 151/527/231 155/524/228
f 149/521/225 150/526/230 151/527/231
f 152/528/229 150/529/230 153/530/227
f 152/528/229 153/530/227 154/531/226
f 152/528/229 154/531/226 149/532/225
f 152/528/229 155/533/228 151/534/231
f 152/528/229 151/534/231 150/529/230
f 156/535/232 181/536/232 169/537/232
f 156/535/233 169/537/233 166/538/233
f 161/115/234 166/539/235 167/113/236
f 175/104/237 159/540/238 158/541/239
f 188/542/240 160/73/240 177/74/240
f 165/543/241 197/544/242 192/545/70
f 165/543/241 192/545/70 196/546/69
f 168/547/243 166/539/243 161/115/243
f 158/548/244 163/155/245 191/156/246
f 160/73/247 175/549/248 176/550/249
f 194/551/38 164/552/250 195/553/39
f 181/70/251 157/554/66 167/555/65
f 172/556/252 170/557/253 173/558/254
f 172/559/252 173/560/254 171/561/255
f 170/562/253 172/563/252 171/564/255
f 170/565/253 171/566/255 173/567/254
f 158/541/239 185/568/256 175/104/237
f 174/569/257 190/570/21 176/571/258
f 174/569/259 185/572/259 190/570/259
f 175/573/248 174/574/260 176/575/249
f 188/542/261 177/74/261 187/576/261
f 190/39/21 187/38/20 176/577/258
f 186/578/262 178/579/263 187/580/20
f 158/170/92 188/581/264 187/171/93
f 158/548/244 194/582/265 184/40/266
f 158/583/267 183/123/268 192/122/70
f 186/578/262 187/580/20 189/584/19
f 182/124/269 195/585/71 192/122/70
f 182/124/270 183/123/270 193/586/270
f 158/548/244 191/156/246 194/582/265
f 197/587/242 158/588/267 192/589/70
f 198/590/271 200/591/272 199/592/273
f 198/593/271 199/594/273 201/595/274
f 200/596/272 198/597/271 201/598/274
f 200/599/272 201/600/274 199/601/273
f 203/602/196 217/603/195 202/604/198
f 202/605/200 217/606/224 218/607/222
f 202/605/200 218/607/222 212/608/201
f 203/602/196 204/609/205 205/610/208
f 203/602/196 202/604/198 216/611/199
f 203/602/196 213/612/210 206/613/212
f 203/602/196 205/610/208 213/612/210
f 217/614/195 203/615/196 219/616/197
f 203/615/196 211/617/213 219/616/214
f 203/602/196 215/618/203 204/609/205
f 203/602/196 216/611/199 215/618/203
f 203/615/196 206/619/212 211/617/213
f 204/620/205 209/621/204 208/622/206
f 204/620/205 215/623/203 209/621/204
f 205/624/207 204/625/205 208/626/206
f 205/624/207 208/626/206 207/627/209
f 213/628/211 205/624/207 207/627/209
f 206/619/216 214/629/218 211/617/213
f 213/628/211 207/627/209 214/630/215
f 211/631/213 214/632/218 207/633/219
f 211/631/213 207/633/219 208/634/206
f 211/631/213 208/634/206 209/635/204
f 215/623/203 210/636/202 209/621/204
f 211/631/213 209/635/204 210/637/202
f 215/623/203 216/638/199 210/636/202
f 211/631/213 212/639/220 218/640/221
f 211/631/213 210/637/202 212/639/220
f 211/631/213 218/640/221 219/641/214
f 206/619/216 213/642/217 214/629/218
f 216/643/199 212/608/201 210/644/202
f 216/643/199 202/605/200 212/608/201
f 217/606/195 219/645/197 218/607/223
f 221/646/275 220/647/276 222/648/277
f 221/646/275 223/649/278 224/650/279
f 221/646/275 225/651/280 226/652/281
f 221/646/275 224/650/279 225/651/280
f 221/646/275 222/648/277 223/649/278
f 226/653/281 224/654/279 223/655/278
f 226/653/281 222/656/277 220/657/276
f 226/653/281 223/655/278 222/656/277
f 226/653/281 225/658/280 224/654/279
f 226/653/281 220/657/276 221/659/275
f 227/660/282 243/661/283 228/43/284
f 227/662/285 259/126/286 229/125/287
f 227/660/282 228/43/284 260/45/288
f 232/663/289 227/664/290 230/665/97
f 227/662/285 229/125/287 230/666/97
f 231/667/291 228/668/292 229/669/293
f 228/178/98 230/177/97 229/670/287
f 242/176/96 232/671/289 230/177/97
f 231/672/291 229/125/293 258/127/294
f 234/673/295 233/674/253 236/675/254
f 233/676/253 234/677/295 235/678/255
f 233/679/253 235/680/255 236/681/254
f 234/682/295 236/683/254 235/684/255
f 238/685/296 237/686/297 246/687/298
f 257/179/299 256/688/299 246/689/299
f 237/81/300 256/690/301 250/691/302
f 237/692/303 244/7/304 249/128/305
f 237/81/300 248/693/306 245/694/307
f 237/692/303 249/128/305 246/695/308
f 237/81/300 250/691/302 248/693/306
f 240/130/309 262/696/310 263/131/311
f 240/130/309 264/697/312 262/696/310
f 247/698/313 249/128/313 243/129/313
f 265/699/314 241/700/314 261/701/314
f 232/671/315 241/9/316 263/131/311
f 248/702/42 257/703/317 251/704/318
f 248/702/42 251/704/318 249/705/43
f 258/181/319 246/689/308 249/706/305
f 254/707/320 264/708/320 252/709/320
f 266/49/321 254/51/322 262/85/310
f 253/84/323 263/710/311 262/85/310
f 253/84/323 261/711/324 263/710/311
f 261/712/324 232/713/315 263/714/311
f 261/701/325 264/708/325 265/699/325
f 264/715/312 266/716/321 262/717/310
f 270/718/326 267/719/327 269/720/328
f 267/721/327 270/722/326 268/723/329
f 267/724/327 268/725/329 269/726/328
f 270/727/326 269/728/328 268/729/329
f 271/730/196 273/731/199 285/732/203
f 271/730/196 281/733/210 276/734/212
f 271/730/196 285/732/203 274/735/205
f 271/730/196 272/736/198 273/731/199
f 271/730/196 275/737/208 281/733/210
f 271/738/196 277/739/213 280/740/214
f 271/738/196 276/741/212 277/739/213
f 271/730/196 287/742/195 272/736/198
f 271/730/196 274/735/205 275/737/208
f 287/743/195 271/738/196 280/740/197
f 272/744/200 287/745/224 288/746/222
f 272/744/200 288/746/222 279/747/201
f 273/748/199 279/747/201 286/749/202
f 273/748/199 272/744/200 279/747/201
f 285/750/203 273/751/199 286/752/202
f 274/753/205 285/750/203 278/754/204
f 274/753/205 278/754/204 284/755/206
f 275/756/207 274/757/205 284/758/206
f 275/756/207 284/758/206 283/759/209
f 281/760/211 275/756/207 283/759/209
f 276/741/216 282/761/218 277/739/213
f 277/762/213 278/763/204 286/764/202
f 277/762/213 282/765/218 283/766/219
f 277/762/213 286/764/202 279/767/220
f 277/762/213 284/768/206 278/763/204
f 277/762/213 288/769/221 280/770/214
f 277/762/213 283/766/219 284/768/206
f 277/762/213 279/767/220 288/769/221
f 285/750/203 286/752/202 278/754/204
f 276/741/216 281/771/217 282/761/218
f 281/760/211 283/759/209 282/772/215
f 287/745/195 280/773/197 288/746/223
f 293/774/330 289/775/331 290/776/332
f 293/774/330 290/776/332 291/777/231
f 293/774/330 291/777/231 292/778/228
f 293/774/330 292/778/228 294/779/229
f 293/774/330 295/780/226 289/775/331
f 294/781/229 292/782/228 291/783/231
f 294/781/229 291/783/231 290/784/332
f 294/781/229 290/784/332 289/785/331
f 294/781/229 289/785/331 295/786/226
f 294/781/229 295/786/226 293/787/330
f 299/788/333 305/789/334 297/790/335
f 296/791/336 305/136/337 300/135/338
f 297/790/335 321/53/339 299/788/333
f 297/792/340 296/793/336 300/794/338
f 304/15/341 298/14/342 301/795/10
f 298/796/342 299/133/343 301/132/10
f 322/86/344 297/797/340 300/798/338
f 304/15/341 301/795/10 300/135/9
f 302/799/232 322/800/232 303/801/232
f 302/799/345 303/801/345 301/802/345
f 328/803/346 308/13/346 318/90/346
f 306/187/347 296/791/348 334/804/349
f 306/187/347 334/804/349 333/188/350
f 332/805/351 307/806/352 336/807/353
f 308/808/354 329/809/354 319/810/354
f 317/107/355 309/811/355 314/812/355
f 313/813/253 310/814/252 312/815/255
f 310/816/252 313/817/253 311/818/356
f 313/819/253 312/820/255 311/821/356
f 310/822/252 311/823/356 312/824/255
f 314/812/357 326/825/357 317/107/357
f 327/826/358 315/827/359 318/828/29
f 314/184/101 328/55/360 318/185/102
f 316/829/361 331/830/30 319/831/362
f 316/829/363 326/832/363 331/830/363
f 317/31/15 316/833/61 319/32/16
f 327/826/358 318/828/29 330/834/28
f 331/60/30 318/59/29 319/835/362
f 332/805/351 336/807/353 325/61/364
f 332/836/365 324/141/366 334/140/349
f 323/142/367 333/837/350 334/140/349
f 323/142/368 324/141/368 335/838/368
f 296/839/348 332/840/365 334/841/349
f 339/842/327 338/843/369 337/844/370
f 340/845/371 337/846/370 338/847/369
f 339/848/327 340/849/371 338/850/369
f 340/851/371 339/852/327 337/853/370
f 342/854/203 341/855/199 350/856/202
f 344/857/196 341/858/199 342/859/203
f 342/854/203 350/856/202 349/860/204
f 344/857/196 342/859/203 343/861/205
f 343/862/205 342/854/203 349/860/204
f 343/862/205 349/860/204 356/863/206
f 344/857/196 343/861/205 355/864/208
f 355/865/207 343/866/205 356/867/206
f 344/857/196 358/868/195 357/869/198
f 344/857/196 357/869/198 341/858/199
f 344/857/196 345/870/210 346/871/212
f 344/857/196 355/864/208 345/870/210
f 358/872/195 344/873/196 353/874/197
f 344/873/196 348/875/213 353/874/214
f 344/873/196 346/876/212 348/875/213
f 345/877/211 347/878/209 354/879/215
f 345/877/211 355/865/207 347/878/209
f 346/876/216 345/880/217 354/881/218
f 348/882/213 354/883/218 347/884/219
f 348/882/213 347/884/219 356/885/206
f 348/882/213 351/886/220 352/887/221
f 348/882/213 356/885/206 349/888/204
f 348/882/213 350/889/202 351/886/220
f 348/882/213 352/887/221 353/890/214
f 348/882/213 349/888/204 350/889/202
f 346/876/216 354/881/218 348/875/213
f 341/891/199 351/892/201 350/893/202
f 341/891/199 357/894/200 351/892/201
f 357/894/200 352/895/222 351/892/201
f 357/894/200 358/896/224 352/895/222
f 358/896/195 353/897/197 352/895/223
f 355/865/207 356/867/206 347/878/209
f 359/898/372 360/899/373 363/900/279
f 359/898/372 361/901/374 362/902/375
f 359/898/372 363/900/279 361/901/374
f 359/898/372 364/903/277 360/899/373
f 359/898/372 365/904/276 364/903/277
f 362/905/375 361/906/374 363/907/279
f 362/905/375 363/907/279 360/908/373
f 362/905/375 360/908/373 364/909/277
f 362/905/375 365/910/276 359/911/372
f 362/905/375 364/909/277 365/910/276
f 390/912/376 391/913/376 392/914/376
f 390/94/105 367/96/377 371/190/106
f 367/915/377 402/144/378 368/143/379
f 367/915/377 368/143/379 371/916/106
f 369/917/380 370/918/381 368/919/382
f 370/166/383 371/190/106 368/920/379
f 367/921/53 370/64/384 403/66/385
f 369/922/380 368/143/382 401/145/386
f 367/921/53 392/914/387 370/64/384
f 370/166/383 391/21/388 371/190/106
f 372/923/253 373/924/252 375/925/255
f 372/926/253 375/927/255 374/928/356
f 373/929/252 372/930/253 374/931/356
f 373/932/252 374/933/356 375/934/255
f 399/935/389 400/936/389 401/937/389
f 399/191/390 377/97/391 379/938/14
f 386/939/392 378/167/393 381/940/394
f 382/69/395 401/937/396 378/941/397
f 378/942/393 400/193/398 381/192/394
f 389/20/399 381/943/13 380/146/12
f 377/944/391 388/945/400 379/946/14
f 387/19/401 386/947/401 389/20/401
f 382/69/395 378/941/397 387/100/402
f 399/191/390 379/938/14 381/192/13
f 383/948/403 386/949/404 394/950/405
f 383/948/403 385/951/406 386/949/404
f 383/952/407 395/148/408 404/953/57
f 383/952/407 393/149/409 395/148/408
f 398/954/410 385/951/410 396/955/410
f 384/956/411 398/103/412 404/102/57
f 384/956/411 404/102/57 395/957/408
f 385/958/413 384/959/414 395/960/415
f 385/961/413 395/148/415 392/150/416
f 397/101/56 383/962/407 404/102/57
f 408/963/271 405/964/272 407/965/370
f 405/966/272 406/967/417 407/968/370
f 408/969/271 407/970/370 406/971/417
f 405/972/272 408/973/271 406/974/417
f 409/975/418 411/976/419 410/977/420
f 409/975/418 410/977/420 412/978/421
f 411/979/419 412/980/421 410/981/420
f 411/979/419 409/982/418 412/980/421
f 413/983/422 414/984/423 415/985/424
f 413/983/422 419/986/425 414/984/423
f 417/987/426 413/988/427 415/989/428
f 417/990/426 419/991/429 413/992/427
f 415/993/428 414/994/430 420/995/431
f 419/996/429 420/997/431 414/998/430
f 417/987/426 415/989/428 418/999/432
f 415/993/428 420/995/431 418/1000/432
f 417/990/426 416/1001/433 419/991/429
f 416/1002/434 417/1003/435 418/1004/436
f 419/996/429 416/1005/433 420/997/431
f 416/1002/434 418/1004/436 420/1006/437
f 423/1007/438 425/1008/439 421/1009/440
f 421/1010/440 425/1011/439 422/1012/441
f 423/1013/438 421/1014/440 422/1015/441
f 424/1016/442 422/1017/441 425/1018/439
f 424/1016/442 423/1019/438 422/1017/441
f 423/1007/438 424/1020/442 425/1008/439
f 426/1021/422 432/1022/423 431/1023/424
f 426/1021/422 430/1024/425 432/1022/423
f 427/1025/426 426/1026/427 431/1027/428
f 427/1028/426 430/1029/429 426/1030/427
f 427/1028/426 428/1031/433 430/1029/429
f 427/1025/426 431/1027/428 429/1032/432
f 428/1033/434 427/1034/435 429/1035/436
f 430/1036/429 428/1037/433 433/1038/431
f 428/1033/434 429/1035/436 433/1039/437
f 431/1040/428 433/1041/431 429/1042/432
f 430/1036/429 433/1038/431 432/1043/430
f 431/1040/428 432/1044/430 433/1041/431
f 434/1045/443 435/1046/444 436/1047/445
f 434/1045/443 437/1048/446 435/1046/444
f 437/1049/446 436/1050/445 435/1051/444
f 437/1049/446 434/1052/443 436/1050/445
f 440/1053/447 438/1054/448 441/1055/449
f 440/1053/447 439/1056/450 438/1054/448
f 439/1057/450 440/1058/447 441/1059/449
f 439/1057/450 441/1059/449 438/1060/448
f 442/1061/181 443/1062/181 444/1063/181
f 442/1064/181 444/1065/181 443/1066/181
f 445/1067/181 446/1068/181 447/1069/181
f 446/1070/181 445/1071/181 447/1072/181
f 450/1073/181 449/1074/181 448/1075/181
f 448/1076/181 449/1077/181 450/1078/181
f 159/1079/451 160/1080/451 158/1081/451
f 160/1080/452 161/1/452 165/1082/452
f 158/1081/453 160/1080/453 165/1082/453
f 161/1/454 157/1083/455 162/2/454
f 163/3/456 164/1084/456 165/1082/456
f 163/3/457 165/1082/457 161/1/457
f 181/5/458 182/1085/458 179/6/458
f 182/1085/459 183/1086/459 179/6/459
f 183/1086/460 184/1087/460 179/6/460
f 179/6/461 185/1088/461 186/1089/461
f 245/8/462 239/162/462 240/130/462
f 240/130/463 241/9/463 245/8/463
f 241/9/464 232/671/464 244/7/464
f 232/671/465 242/176/465 244/7/465
f 242/176/466 228/178/467 243/129/468
f 244/7/469 242/176/469 243/129/469
f 260/1090/470 252/1091/470 253/11/470
f 259/10/471 260/1090/471 253/11/471
f 257/1092/472 258/1093/472 259/10/472
f 255/1094/473 256/1095/473 259/10/473
f 256/1095/474 257/1092/474 259/10/474
f 255/1094/475 259/10/475 254/12/475
f 304/15/476 305/136/476 307/89/476
f 305/136/477 296/791/477 307/89/477
f 296/791/478 306/187/478 307/89/478
f 306/187/479 336/189/479 307/89/479
f 308/13/480 309/1096/480 298/14/480
f 307/89/481 308/13/481 304/15/481
f 322/17/482 323/1097/482 320/18/482
f 323/1097/483 324/1098/483 320/18/483
f 324/1098/484 325/1099/484 320/18/484
f 320/18/485 326/1100/485 327/1101/485
f 394/1102/486 386/947/486 387/19/486
f 387/19/487 388/147/487 389/20/487
f 389/20/488 390/94/488 391/21/488
f 391/21/489 392/150/489 387/19/489
f 392/150/490 393/149/490 387/19/490
f 393/149/491 394/1102/491 387/19/491
f 403/1103/492 396/1104/492 397/22/492
f 397/22/493 398/1105/493 399/1106/493
f 398/1105/494 384/1107/494 399/1106/494
f 399/1106/495 400/23/495 397/22/495
f 400/23/496 401/168/496 402/24/496
f 402/24/497 403/1103/497 397/22/497
f 156/34/498 157/1083/499 180/35/500
f 184/40/501 194/582/501 193/41/501
f 228/43/292 231/1108/291 252/44/502
f 245/46/503 248/82/503 247/47/503
f 266/49/504 264/1109/504 255/50/504
f 302/52/505 299/788/505 321/53/505
f 328/55/506 314/184/507 298/56/508
f 325/61/509 336/807/509 335/62/509
f 370/64/381 369/1110/380 396/65/510
f 181/70/251 167/555/65 169/71/511
f 160/73/247 176/550/249 177/74/512
f 158/588/513 184/1111/513 183/1112/513
f 227/660/514 260/45/514 259/1113/514
f 238/79/515 256/690/515 255/80/515
f 237/81/516 245/694/516 244/1114/516
f 322/86/344 300/798/338 303/87/517
f 307/89/518 319/1115/362 318/90/29
f 332/840/519 325/1116/519 324/1117/519
f 390/94/520 389/20/520 366/95/520
f 367/921/521 403/66/521 402/1118/521
f 377/97/522 399/191/522 384/98/522
f 382/69/523 388/1119/523 387/100/523
f 175/104/524 185/568/524 179/105/524
f 317/107/525 326/825/525 320/108/525
f 383/1120/526 394/1121/526 393/1122/526
f 189/116/527 190/1123/527 186/117/527
f 330/137/528 331/1124/528 327/138/528
f 380/146/529 379/1125/529 389/20/529
f 166/1126/235 169/1127/530 167/1128/236
f 162/2/531 157/1083/531 168/151/531
f 187/38/20 177/1129/532 176/577/258
f 186/152/533 158/1130/533 178/153/533
f 163/155/534 194/582/265 191/156/246
f 256/158/535 248/82/306 250/159/302
f 265/161/536 264/697/536 240/130/536
f 327/163/537 314/1131/537 315/164/537
f 157/1083/499 181/1132/538 180/35/500
f 175/549/237 160/73/539 159/1133/238
f 196/173/540 195/1134/540 165/174/540
f 257/179/541 249/706/541 251/180/541
f 253/1135/542 252/1136/542 261/712/542
f 297/790/335 322/1137/543 321/53/339
f 329/182/544 309/811/544 308/183/544
f 397/1138/545 396/1139/545 383/1120/545
f 156/535/546 180/1140/546 181/536/546
f 163/155/547 158/548/548 165/1141/549
f 188/542/550 159/1133/550 160/73/550
f 162/1142/551 168/547/551 161/115/551
f 158/541/552 186/1143/552 185/568/552
f 183/123/553 184/1144/553 193/586/553
f 193/586/554 195/585/71 182/124/269
f 227/660/282 242/1145/555 243/661/283
f 258/127/556 259/126/556 260/1146/556
f 260/1146/557 231/672/557 258/127/557
f 246/689/558 258/181/558 257/179/558
f 256/688/559 238/1147/296 246/689/298
f 244/7/560 245/8/560 243/129/560
f 245/8/561 247/698/561 243/129/561
f 265/699/562 240/1148/562 241/700/562
f 264/708/563 261/701/563 252/709/563
f 253/1149/564 254/707/564 252/709/564
f 299/788/565 304/1150/565 305/789/565
f 302/799/566 321/1151/566 322/800/566
f 328/803/567 309/1096/567 308/13/567
f 332/840/351 306/1152/568 307/1153/352
f 314/812/569 327/1154/569 326/825/569
f 324/141/570 325/1155/570 335/838/570
f 335/838/571 333/837/350 323/142/367
f 392/914/387 367/921/53 366/1156/52
f 366/1156/572 390/912/572 392/914/572
f 402/144/573 403/1157/573 401/145/573
f 403/1157/574 369/922/574 401/145/574
f 401/937/396 382/69/395 376/68/575
f 376/68/576 399/935/576 401/937/576
f 381/943/394 389/20/577 386/947/392
f 385/951/578 383/948/578 396/955/578
f 397/1158/579 398/954/579 396/955/579
f 392/150/580 393/149/580 394/1102/580
f 394/1102/581 385/961/581 392/150/581
