# Blender 4.5.0
# www.blender.org
mtllib kei_wagon.lod1.mtl
o kei_wagon
v 1.495712 0.985083 -0.673969
v 1.094846 1.651360 -0.430356
v 1.094846 1.651360 0.430356
v 1.431432 1.131486 0.521759
v 1.431432 1.131486 -0.521759
v -1.529802 1.149191 -0.521759
v -1.529802 1.149191 0.521759
v -1.177916 1.653774 0.430356
v -1.177916 1.653774 -0.430356
v 1.172551 1.054430 -0.676503
v -1.283401 1.054430 -0.676503
v -1.102225 1.663029 -0.561247
v 1.001440 1.663029 -0.561247
v 1.001440 1.663029 0.561247
v -1.102225 1.663029 0.561247
v -1.283401 1.054430 0.676503
v 1.172551 1.054430 0.676503
v 1.431533 0.480268 -0.590774
v 1.430541 0.280591 -0.591469
v -1.430672 0.280591 0.591469
v 1.431533 0.280622 0.590774
v -1.430672 0.480299 -0.591469
v -1.431664 0.480268 0.590774
v 1.430541 0.480299 0.591469
v -1.431664 0.280622 -0.590774
v 1.705583 0.863636 0.614542
v 1.707463 0.526425 -0.615112
v 1.705613 0.513214 0.601155
v -1.708703 0.578570 0.570117
v -1.705598 0.885971 0.559199
v -1.704532 0.566024 -0.575907
v 1.440287 0.444038 -0.705387
v 1.464584 0.442993 0.686277
v 1.711330 0.868458 -0.600075
v -1.504572 0.421443 0.639943
v 1.445280 1.000911 0.705601
v -1.503463 0.529540 0.740718
v -1.495010 0.987873 0.713235
v 1.455834 1.001441 -0.690072
v -1.512589 0.976146 -0.710279
v -1.495291 0.457510 -0.713304
v -1.709586 0.866234 -0.574940
v 1.494607 0.973007 0.669549
v -1.599602 0.987315 -0.680333
v 1.043188 1.585767 0.550763
v 1.039968 1.023478 0.512338
v -1.121099 1.024134 -0.512694
v -1.125181 1.122871 0.550126
v 1.041588 1.716020 0.450765
v -1.115896 1.693789 0.506714
v 1.032532 1.706281 -0.502427
v 1.042350 0.995025 -0.450497
v 1.044522 1.122832 -0.550124
v -1.592765 0.973792 0.655674
v -1.123064 0.995024 0.450509
v -1.584150 1.053976 0.663215
v -1.122564 1.716634 -0.452272
v -1.122167 1.586943 -0.550307
v -0.049117 1.016918 -0.657069
v -0.027346 1.723299 -0.575977
v -0.073048 1.719606 -0.554334
v -0.052874 1.025162 -0.706781
v 1.022972 0.932117 -0.754487
v 0.870225 0.953836 -0.753675
v 1.022972 0.975554 -0.752862
v -1.080692 0.975554 -0.752862
v -1.233439 0.953836 -0.753675
v -1.080692 0.932117 -0.754487
v 1.191016 1.173218 -0.924226
v 1.191017 1.056356 -0.739470
v 1.190063 1.056014 -0.925000
v 1.033301 1.056356 -0.924226
v 1.033301 1.173218 -0.739470
v 1.034255 1.173560 -0.925000
v 1.190063 1.173561 -0.738697
v 1.034255 1.056014 -0.738697
v -0.049117 1.025273 0.707009
v -0.052874 1.016888 0.657320
v -0.073048 1.723420 0.577134
v -0.027346 1.719868 0.555468
v 0.870225 0.953836 0.753674
v 1.022972 0.975554 0.754487
v 1.022972 0.932117 0.752862
v -1.233439 0.953836 0.753674
v -1.080692 0.975554 0.754487
v -1.080692 0.932117 0.752862
v 1.190063 1.173561 0.925000
v 1.034255 1.173561 0.738696
v 1.033301 1.056356 0.739470
v 1.191016 1.173219 0.739470
v 1.191017 1.056356 0.924226
v 1.033301 1.173219 0.924226
v 1.190063 1.056014 0.738696
v 1.034255 1.056014 0.925000
v 0.794202 0.070242 -0.812606
v 0.711899 0.351139 -0.811399
v 0.840151 0.556933 -0.810434
v 1.077889 0.611092 -0.810033
v 1.283959 0.479285 -0.810003
v 1.334103 0.239101 -0.810244
v 1.158581 0.009033 -0.820588
v 1.331135 0.228035 -0.611763
v 1.092544 0.608179 -0.613129
v 0.851691 0.565220 -0.613159
v 1.147541 -0.000000 -0.610557
v 0.713394 0.362496 -0.612918
v 1.291447 0.467216 -0.612728
v 0.787461 0.082811 -0.602575
v 0.872568 0.445188 -0.824921
v 1.078251 0.096065 -0.826837
v 1.228117 0.248723 -0.826429
v 1.081715 0.501195 -0.828753
v 1.200726 0.400899 -0.826358
v 0.872091 0.153382 -0.827246
v 0.819679 0.298858 -0.827317
v 1.008121 0.294924 -0.804198
v 0.995611 0.307745 -0.825226
v 1.044363 0.305177 -0.806964
v 1.039165 0.299969 -0.806793
v 1.035690 0.297265 -0.802231
v 1.024240 0.305058 -0.795144
v 1.022801 0.305036 -0.795216
v 1.026045 0.295467 -0.795144
v 1.021546 0.298491 -0.799107
v 1.026879 0.303172 -0.794316
v 1.024020 0.299652 -0.789247
v 1.045004 0.464688 -0.828914
v 1.002561 0.464708 -0.807780
v 1.044246 0.305035 -0.830827
v 1.039206 0.299969 -0.827800
v 1.018720 0.276728 -0.816898
v 1.033377 0.321745 -0.819723
v 0.863701 0.341233 -0.840147
v 0.870242 0.361415 -0.797888
v 0.999372 0.310553 -0.820884
v 1.010323 0.309597 -0.828242
v 1.004628 0.308137 -0.806343
v 1.037244 0.283644 -0.806798
v 1.034138 0.283971 -0.816209
v 1.036409 0.290656 -0.830846
v 0.944143 0.154735 -0.813549
v 0.921824 0.156894 -0.814066
v 1.003660 0.287479 -0.814183
v 1.042801 0.308239 -0.831105
v 1.042116 0.312076 -0.810589
v 1.021121 0.295467 -0.842495
v 1.019970 0.296330 -0.842423
v 1.027437 0.300616 -0.844458
v 1.024365 0.305036 -0.842423
v 1.028271 0.295007 -0.842371
v 1.025931 0.295410 -0.842423
v 1.025122 0.301087 -0.838758
v 1.136746 0.178690 -0.831264
v 1.103810 0.154726 -0.806858
v 1.013850 0.321628 -0.816898
v 1.028468 0.276599 -0.819725
v 1.183778 0.340339 -0.797888
v 1.177199 0.360509 -0.840146
v 0.794202 0.070242 0.610556
v 0.711899 0.351139 0.611763
v 0.840151 0.556933 0.612728
v 1.077889 0.611092 0.613129
v 1.334103 0.239102 0.612918
v 1.158581 0.009033 0.602574
v 1.331135 0.228035 0.811399
v 1.291447 0.467216 0.810434
v 1.092544 0.608179 0.810033
v 0.787461 0.082811 0.820587
v 1.147541 0.000000 0.812605
v 1.283959 0.479285 0.613159
v 0.851691 0.565220 0.810003
v 0.713394 0.362497 0.810244
v 0.872091 0.446557 0.827245
v 1.078251 0.503874 0.826837
v 1.228117 0.351215 0.826429
v 1.081715 0.098743 0.828753
v 1.200726 0.199040 0.826358
v 0.819679 0.301081 0.827317
v 0.872568 0.154751 0.824921
v 1.007193 0.299969 0.809397
v 0.995290 0.309354 0.821330
v 1.049162 0.304672 0.812126
v 1.007193 0.299969 0.828241
v 1.021068 0.470861 0.838283
v 1.027507 0.457061 0.840618
v 1.039436 0.299969 0.830846
v 1.045004 0.464688 0.808724
v 1.018720 0.276728 0.820741
v 0.870242 0.361415 0.839750
v 1.033377 0.321745 0.817915
v 0.863701 0.341233 0.797492
v 1.003532 0.307730 0.830789
v 1.003027 0.312850 0.815951
v 1.020971 0.298072 0.837304
v 1.026045 0.295467 0.842495
v 1.027196 0.296330 0.842423
v 1.011655 0.297394 0.850212
v 1.023044 0.299969 0.848392
v 1.027507 0.295442 0.845128
v 1.023389 0.305564 0.842984
v 1.021236 0.295410 0.842423
v 1.021384 0.301566 0.838185
v 1.040860 0.284221 0.823349
v 1.037213 0.284477 0.806343
v 0.942785 0.154979 0.808767
v 0.910277 0.179058 0.829078
v 1.008574 0.295008 0.804022
v 1.005741 0.281669 0.820231
v 1.047511 0.311507 0.819428
v 1.036455 0.309316 0.827966
v 1.103464 0.154345 0.807779
v 1.036409 0.309282 0.806793
v 1.137786 0.179290 0.828919
v 1.017874 0.298855 0.790709
v 1.027107 0.296238 0.795144
v 1.025931 0.295410 0.795216
v 1.022927 0.305059 0.795144
v 1.025956 0.299969 0.799098
v 1.019970 0.296330 0.795216
v 1.024992 0.298946 0.798973
v 1.013850 0.321629 0.820740
v 1.028468 0.276599 0.817913
v 1.183778 0.340339 0.839751
v 1.177199 0.360509 0.797492
v -1.253096 0.070242 -0.812606
v -1.335399 0.351139 -0.811399
v -1.207147 0.556933 -0.810434
v -0.969409 0.611092 -0.810033
v -0.713195 0.239102 -0.810244
v -0.899757 -0.000000 -0.610557
v -1.195607 0.565220 -0.613159
v -0.888718 0.009033 -0.820588
v -0.716163 0.228035 -0.611763
v -0.763339 0.479285 -0.810003
v -0.755851 0.467216 -0.612728
v -0.954754 0.608179 -0.613129
v -1.333904 0.362497 -0.612918
v -1.259837 0.082811 -0.602575
v -1.175207 0.153382 -0.827246
v -1.174730 0.445188 -0.824921
v -0.846572 0.400899 -0.826358
v -0.965583 0.501195 -0.828753
v -1.227619 0.298858 -0.827317
v -0.819181 0.248723 -0.826429
v -0.969047 0.096065 -0.826837
v -1.043852 0.304497 -0.831296
v -1.046077 0.302765 -0.816599
v -1.024692 0.302436 -0.846678
v -1.026177 0.295467 -0.842495
v -1.027327 0.296330 -0.842423
v -1.022954 0.306298 -0.843110
v -1.024152 0.299652 -0.848392
v -1.023203 0.305937 -0.845128
v -1.027162 0.304381 -0.842984
v -1.022933 0.305036 -0.842423
v -1.024176 0.299969 -0.837399
v -1.038558 0.295248 -0.803920
v -1.003645 0.464647 -0.805979
v -1.044261 0.464356 -0.829076
v -1.008500 0.296756 -0.803169
v -0.997038 0.304775 -0.818261
v -1.028578 0.276728 -0.816898
v -1.013922 0.321745 -0.819725
v -1.183597 0.341233 -0.840147
v -1.177056 0.361415 -0.797888
v -1.007059 0.280099 -0.821894
v -1.010889 0.290656 -0.830846
v -1.047925 0.310553 -0.820884
v -1.036975 0.309597 -0.828241
v -1.103155 0.154735 -0.813549
v -1.125474 0.156894 -0.814066
v -1.010051 0.283642 -0.806803
v -1.042670 0.308137 -0.806343
v -1.023058 0.305058 -0.795144
v -1.024497 0.305036 -0.795216
v -1.021253 0.295467 -0.795144
v -1.025752 0.298491 -0.799107
v -1.020419 0.303172 -0.794316
v -1.023278 0.299652 -0.789247
v -1.036975 0.290341 -0.809397
v -1.041085 0.275757 -0.821331
v -0.995969 0.312601 -0.815334
v -0.909243 0.178700 -0.810465
v -0.928419 0.156565 -0.819393
v -0.931868 0.172512 -0.842495
v -1.036975 0.290341 -0.828241
v -1.018831 0.276599 -0.819726
v -0.870099 0.360508 -0.840146
v -0.863521 0.340338 -0.797888
v -1.033450 0.321628 -0.816900
v -1.253096 0.070242 0.610556
v -1.335399 0.351139 0.611763
v -1.207147 0.556933 0.612728
v -0.763339 0.479285 0.613159
v -0.899757 0.000000 0.812605
v -0.755851 0.467216 0.810434
v -0.954754 0.608179 0.810033
v -1.333904 0.362497 0.810244
v -0.888718 0.009033 0.602574
v -0.713195 0.239102 0.612918
v -0.716163 0.228035 0.811399
v -0.969409 0.611092 0.613129
v -1.195607 0.565220 0.810003
v -1.259837 0.082811 0.820588
v -0.969047 0.503874 0.826837
v -0.819181 0.351216 0.826429
v -0.846572 0.199040 0.826358
v -1.174730 0.154751 0.824921
v -0.965583 0.098743 0.828753
v -1.175207 0.446557 0.827246
v -1.227619 0.301081 0.827317
v -1.025989 0.300898 0.847121
v -0.994824 0.307428 0.824023
v -1.003424 0.464403 0.829682
v -1.044232 0.464602 0.806858
v -1.040105 0.299969 0.809397
v -1.044431 0.305274 0.806844
v -1.177056 0.361416 0.839750
v -1.183597 0.341233 0.797492
v -1.013922 0.321746 0.817914
v -1.028578 0.276728 0.820741
v -1.025914 0.301566 0.838185
v -1.027239 0.296238 0.842495
v -1.019791 0.303848 0.841813
v -1.021794 0.299969 0.838768
v -1.029822 0.301701 0.845128
v -1.025745 0.304092 0.843323
v -1.027733 0.297052 0.842423
v -1.010210 0.283874 0.831187
v -1.024334 0.313189 0.815843
v -1.010085 0.284477 0.806343
v -1.099509 0.155198 0.817345
v -1.115561 0.172512 0.842495
v -1.137143 0.172919 0.812949
v -1.029424 0.298855 0.790709
v -1.020191 0.296238 0.795144
v -1.021367 0.295410 0.795216
v -1.037477 0.295500 0.803512
v -1.024371 0.305059 0.795144
v -1.021342 0.299969 0.799098
v -1.027327 0.296330 0.795216
v -1.022305 0.298945 0.798973
v -1.003939 0.307836 0.830897
v -1.003418 0.311929 0.815045
v -1.041634 0.275048 0.821805
v -1.036975 0.290341 0.809397
v -1.010889 0.309282 0.806793
v -0.934498 0.170575 0.840618
v -0.929497 0.171520 0.842288
v -0.948052 0.155185 0.819358
v -0.910626 0.178531 0.805977
v -1.036975 0.290341 0.828241
v -1.018831 0.276599 0.817913
v -0.863521 0.340338 0.839751
v -0.870099 0.360508 0.797492
v -1.033450 0.321628 0.820739
v 1.729769 0.899818 -0.305149
v 1.729769 0.726188 -0.614495
v 1.732589 0.726188 -0.305149
v 1.732589 0.899818 -0.614495
v -1.732724 0.950306 -0.315486
v -1.729897 0.950306 -0.604157
v -1.729897 0.766235 -0.315486
v -1.732724 0.766235 -0.604157
v 1.732589 0.726188 0.614495
v 1.729769 0.726188 0.305148
v 1.732589 0.899818 0.305148
v 1.729770 0.899818 0.614495
v -1.732724 0.950306 0.604157
v -1.729897 0.950306 0.315486
v -1.729897 0.766235 0.604157
v -1.732724 0.766235 0.315486
v 1.743845 0.501129 -0.303998
v 1.748712 0.621902 -0.303998
v 1.743845 0.621903 0.303998
v 1.748712 0.501129 0.303998
v -1.750383 0.643098 -0.159914
v -1.750383 0.510112 0.159914
v -1.752500 0.510112 -0.159914
v -1.752500 0.643098 0.159914
v 1.759500 0.658181 -0.334837
v 1.758356 0.644507 0.341029
v 1.757212 0.630833 -0.334837
v 1.758356 0.704863 0.341029
v 1.757212 0.691190 -0.334837
v 1.759500 0.718538 -0.334837
v 1.757212 0.751547 -0.334837
v 1.758356 0.765220 0.341029
v 1.759500 0.778894 -0.334837
vn 0.8394 0.5435 -0.0000
vn -0.8202 0.5720 -0.0000
vn -0.0000 0.1861 -0.9825
vn -0.0000 0.1861 0.9825
vn 0.5748 0.8177 0.0296
vn 0.0097 -0.3665 -0.9304
vn 0.1443 -0.9351 -0.3237
vn 0.1138 0.7375 -0.6657
vn 0.9482 -0.0114 0.3175
vn 0.5469 0.8258 0.1379
vn 0.0744 -0.8959 0.4380
vn 0.1138 0.7376 -0.6656
vn 0.3783 0.8790 0.2904
vn -0.4854 0.8212 0.2999
vn -0.2783 0.7356 0.6175
vn -0.9538 0.2879 -0.0857
vn -0.1136 0.9759 -0.1863
vn 0.3368 0.7187 -0.6083
vn 0.8147 -0.5360 -0.2213
vn -0.7723 -0.5394 -0.3354
vn -0.4221 -0.7915 -0.4419
vn -0.2663 -0.9518 -0.1525
vn -0.0201 -0.9935 0.1124
vn -0.0523 -0.9980 0.0358
vn 0.7207 0.2773 -0.6354
vn 0.7227 -0.1442 0.6760
vn -0.5673 -0.8198 0.0783
vn -0.0661 -0.8151 0.5755
vn -0.6191 -0.7853 -0.0000
vn 0.2498 -0.9398 0.2334
vn 0.7231 0.2919 -0.6261
vn 0.4078 0.5339 0.7407
vn 0.5046 -0.6672 -0.5480
vn 0.6299 -0.2757 0.7260
vn -0.9425 0.3260 -0.0731
vn -0.5472 0.6168 -0.5658
vn -0.9625 0.2713 -0.0000
vn 0.7231 0.2918 -0.6261
vn 0.0211 0.9408 0.3384
vn -0.4989 0.1369 -0.8558
vn -0.7792 0.3686 0.5070
vn 0.1310 -0.7116 0.6903
vn -0.6911 -0.4762 0.5437
vn 0.6934 -0.6130 0.3788
vn -0.3204 -0.9291 0.1846
vn 0.7934 -0.5819 -0.1789
vn 0.0870 -0.0327 0.9957
vn 0.1159 0.0983 -0.9884
vn -0.3354 0.6514 -0.6806
vn -0.8390 -0.0212 -0.5437
vn -0.7942 -0.5993 0.1005
vn 0.9015 -0.4284 0.0610
vn 0.9029 -0.4297 -0.0091
vn 0.3269 -0.1467 0.9336
vn 0.3031 0.1883 0.9342
vn 0.7082 -0.7060 0.0012
vn 0.7088 -0.7054 0.0008
vn 0.7078 -0.7064 0.0014
vn -0.4650 0.4663 -0.7526
vn 0.3385 0.7065 0.6215
vn -0.0737 0.9851 0.1554
vn -0.1952 0.9808 -0.0011
vn -0.4649 0.4664 -0.7526
vn -0.4902 0.6343 0.5978
vn -0.0511 0.0719 0.9961
vn -0.1387 -0.1026 -0.9850
vn 0.1641 0.0590 -0.9847
vn 0.6558 0.4728 -0.5886
vn 0.0069 -0.0885 -0.9960
vn -0.4118 0.0254 0.9109
vn 0.6597 -0.4200 -0.6233
vn 0.0010 -0.0881 -0.9961
vn 0.2395 0.0367 0.9702
vn 0.6435 -0.0036 0.7655
vn -0.0511 0.0738 0.9960
vn -0.1388 -0.1026 -0.9850
vn -0.3730 -0.2728 -0.8868
vn 0.4987 0.8349 0.2329
vn 0.4701 0.0292 0.8821
vn 0.6530 -0.0093 0.7573
vn 0.6526 -0.6392 -0.4068
vn 0.2633 0.1575 -0.9518
vn 0.6895 0.5092 -0.5152
vn 0.0021 -0.0896 -0.9960
vn 0.5063 -0.0397 0.8615
vn 0.8410 0.1887 0.5070
vn -0.0007 0.7710 -0.6368
vn -0.2982 0.9484 -0.1081
vn 0.7475 0.3644 0.5554
vn 0.4851 0.3641 -0.7951
vn 0.4004 -0.5328 -0.7455
vn -0.9618 0.2322 0.1452
vn -0.9193 0.1225 0.3741
vn -0.9566 0.2914 -0.0000
vn 0.1625 0.9812 0.1043
vn 0.0426 -0.0595 0.9973
vn 0.1002 -0.9611 0.2574
vn 0.5285 0.2266 0.8181
vn 0.5434 -0.0037 -0.8395
vn 0.9995 0.0256 -0.0161
vn 0.9896 0.0227 -0.1419
vn -0.0798 -0.0381 0.9961
vn 0.1624 0.9812 0.1046
vn 0.1623 0.9812 0.1045
vn 0.1627 0.9811 0.1046
vn 0.4486 0.3209 0.8341
vn 0.8378 0.5454 0.0247
vn 0.8391 0.5438 0.0090
vn 0.1481 0.0907 -0.9848
vn -0.4702 0.8305 -0.2986
vn 0.9931 0.1019 0.0581
vn 0.3124 -0.2229 0.9234
vn -0.8442 0.0320 0.5351
vn -0.8743 0.4314 -0.2225
vn -0.7982 0.3822 -0.4656
vn -0.8230 0.4317 0.3692
vn -0.9598 0.0320 0.2788
vn -0.9822 0.0251 0.1860
vn -0.9888 -0.0007 -0.1491
vn 0.7089 -0.0003 -0.7054
vn 0.7089 0.0003 0.7054
vn 0.7050 -0.0013 -0.7092
vn 0.7050 0.0013 0.7092
vn -0.7050 0.0013 -0.7092
vn -0.0000 1.0000 -0.0000
vn -0.0000 -1.0000 -0.0000
vn -0.7089 0.0003 -0.7054
vn -0.7089 -0.0003 0.7054
vn -0.7050 -0.0013 0.7092
vn 0.7819 0.4228 -0.4581
vn 0.2476 0.6875 0.6826
vn 0.7739 0.4021 0.4892
vn 0.7329 -0.4777 -0.4844
vn 0.7344 -0.5041 0.4545
vn 0.2467 0.7051 -0.6648
vn 0.1922 -0.6841 -0.7036
vn 0.2484 -0.8814 0.4017
vn -0.2405 0.5471 0.8018
vn -0.8661 -0.3450 0.3618
vn -0.3246 -0.3123 0.8928
vn -0.8239 -0.4182 -0.3824
vn -1.0000 0.0056 -0.0025
vn -0.6008 0.0344 0.7986
vn -0.3142 0.6610 -0.6815
vn -0.8382 0.3980 -0.3729
vn -0.4393 0.8983 -0.0030
vn -0.4344 0.9007 -0.0021
vn -0.2014 -0.5114 -0.8354
vn -0.3136 -0.8742 0.3708
vn -0.4740 -0.8801 -0.0267
vn 0.0173 -0.0340 0.9993
vn 0.6285 -0.3771 -0.6803
vn 0.4115 0.8379 0.3586
vn 0.6158 -0.4075 0.6744
vn 0.2582 0.4139 0.8730
vn -0.3324 -0.0624 0.9411
vn -0.2907 -0.7439 0.6018
vn 0.1917 -0.9256 0.3263
vn -0.6054 -0.4579 -0.6511
vn 0.2677 -0.7554 -0.5981
vn -0.5180 -0.5645 0.6427
vn -0.5123 0.2337 0.8264
vn -0.3736 0.8780 -0.2992
vn -0.4742 0.5300 -0.7030
vn 0.3343 -0.0622 -0.9404
vn -0.1934 -0.9270 -0.3214
vn -0.0139 -0.2897 0.9570
vn 0.0045 -0.7258 0.6879
vn -0.3438 0.7321 0.5881
vn -0.0000 -0.9079 0.4193
vn -0.3210 -0.2240 -0.9202
vn 0.4479 0.8695 -0.2084
vn -0.0047 -0.7256 -0.6881
vn -0.0002 -0.9077 -0.4195
vn 0.2820 -0.2240 0.9329
vn -0.0157 0.6029 -0.7977
vn 0.0143 -0.2878 -0.9576
vn -0.0090 -0.0424 -0.9991
vn 0.0176 0.0818 -0.9965
vn -0.0424 -0.7304 -0.6817
vn 0.0405 -0.9118 0.4086
vn -0.4996 0.7814 0.3738
vn 0.4998 0.8604 -0.0993
vn -0.6437 -0.7653 -0.0000
vn -0.1603 -0.2109 0.9643
vn -0.5988 -0.8009 -0.0000
vn -1.0000 -0.0000 -0.0000
vn -0.5724 0.5792 -0.5804
vn 0.5814 0.5766 -0.5740
vn 0.5724 -0.5792 -0.5804
vn 0.5814 -0.5766 0.5740
vn 0.5724 0.5792 0.5804
vn -0.5724 -0.5792 0.5804
vn -0.5814 -0.5766 -0.5740
vn -0.5814 0.5766 0.5740
vn -0.0423 -0.9119 -0.4082
vn 0.0406 -0.7301 0.6821
vn -0.4993 0.8605 0.1010
vn 0.5001 0.7819 -0.3721
vn -0.0000 -0.7282 -0.6854
vn -0.0000 -0.8022 -0.5970
vn 0.1142 -0.8318 -0.5432
vn 0.1065 -0.7606 -0.6405
vn 0.1158 -0.8264 -0.5510
vn -0.7714 0.1024 -0.6281
vn -0.5317 -0.5953 -0.6024
vn -0.5440 -0.5430 0.6397
vn -0.9858 0.1674 0.0101
vn -0.4515 0.6293 -0.6325
vn -0.4188 0.6529 0.6311
vn 0.1301 0.7640 -0.6319
vn 0.1721 0.7557 0.6319
vn 0.9748 -0.2228 -0.0101
vn 0.6368 0.4429 -0.6311
vn 0.6580 0.4087 0.6325
vn -0.0006 0.0160 -0.9999
vn 0.7518 -0.2007 0.6281
vn 0.2949 -0.7098 -0.6397
vn 0.2634 -0.7534 0.6024
vn 0.0067 0.0146 0.9999
vn -0.7007 0.7131 0.0201
vn -0.9940 -0.1085 -0.0118
vn -0.5911 -0.8066 -0.0036
vn 0.9151 0.4032 0.0117
vn 0.2504 0.9679 -0.0201
vn 0.2588 -0.9659 -0.0000
vn 0.9152 -0.4029 0.0036
vn -0.2205 -0.9689 0.1123
vn -0.1756 -0.9845 -0.0003
vn -0.7128 -0.0085 0.7013
vn -0.5223 0.0009 0.8527
vn -0.4974 0.8380 0.2245
vn 0.6388 0.6403 -0.4265
vn -0.9296 0.0002 0.3686
vn 0.4920 0.1185 0.8625
vn 0.8481 0.0689 0.5254
vn 0.6773 0.7237 0.1323
vn 0.8633 0.0020 -0.5046
vn 0.3998 -0.3335 0.8538
vn -0.5497 -0.3892 0.7392
vn 0.4385 0.8956 0.0744
vn 0.2017 0.9637 0.1749
vn 0.6480 0.7609 -0.0336
vn -0.5895 0.8018 0.0980
vn -0.7171 0.5002 0.4855
vn -0.5393 0.8421 0.0076
vn -0.4331 0.1922 0.8806
vn 0.7515 0.6525 -0.0975
vn 0.5038 0.0080 -0.8638
vn 0.5693 -0.8211 0.0420
vn -0.6746 0.5042 0.5391
vn -0.8388 -0.0080 -0.5444
vn 0.9445 0.3267 -0.0354
vn 0.5229 0.7703 -0.3650
vn 0.5615 0.7163 0.4143
vn -0.6007 0.2698 -0.7526
vn 0.7422 -0.5254 -0.4161
vn 0.7855 -0.5527 -0.2785
vn 0.1769 -0.9768 -0.1207
vn 0.6414 -0.4748 -0.6027
vn -0.0972 -0.9943 0.0448
vn -0.6414 -0.4496 0.6217
vn -0.5261 -0.5406 -0.6565
vn 0.3914 -0.9001 0.1914
vn -0.5517 -0.5810 -0.5983
vn -0.5386 0.8426 -0.0038
vn -0.9432 0.3297 0.0420
vn 0.8422 -0.0116 0.5390
vn 0.6740 0.4993 -0.5444
vn -0.5721 -0.8194 -0.0355
vn -0.7007 -0.7131 -0.0200
vn -0.5911 0.8066 0.0036
vn 0.2588 0.9659 -0.0000
vn 0.9152 0.4029 -0.0036
vn 0.9150 -0.4032 -0.0117
vn 0.2504 -0.9679 0.0200
vn -0.9940 0.1085 0.0118
vn -0.6753 0.1786 -0.7156
vn -0.9849 0.1478 0.0900
vn 0.0414 -0.9990 -0.0190
vn 0.0901 -0.9944 -0.0556
vn 0.0131 -0.9868 -0.1616
vn 0.1127 -0.9910 0.0725
vn -0.5914 0.0098 0.8063
vn 0.8783 -0.0164 0.4779
vn 0.6759 0.4902 0.5503
vn 0.5693 -0.8210 0.0420
vn -0.7068 0.6600 -0.2546
vn -0.5883 0.4172 0.6927
vn -0.2384 0.7935 0.5600
vn 0.8263 0.5631 -0.0144
vn 0.5289 0.4143 0.7407
vn 0.8990 -0.3720 0.2312
vn -0.4626 -0.4428 0.7681
vn 0.0821 -0.9687 -0.2343
vn 0.5608 0.8260 0.0565
vn -0.1315 0.8359 0.5329
vn 0.6037 0.7972 -0.0020
vn 0.4377 -0.5029 0.7453
vn -0.5455 -0.7912 -0.2764
vn -0.7894 -0.6113 0.0563
vn -0.5917 0.2605 -0.7629
vn -0.6272 0.2725 -0.7296
vn 0.5874 0.8028 0.1026
vn 0.2870 -0.2267 -0.9307
vn -0.7015 0.6873 -0.1886
vn -0.7317 0.6791 0.0584
vn -0.6614 0.7484 -0.0488
vn -0.6691 0.7432 0.0003
vn -0.5787 -0.4092 -0.7054
vn -0.4246 -0.3092 -0.8510
vn 0.5698 0.3208 -0.7566
vn -0.7008 0.7131 0.0201
vn -0.9940 -0.1085 -0.0117
vn 0.9150 0.4032 0.0118
vn 0.2504 0.9679 -0.0200
vn -0.5735 0.0099 -0.8191
vn -0.8456 0.0505 0.5314
vn 0.0448 -0.9916 0.1214
vn 0.3433 0.0800 -0.9358
vn 0.6919 -0.6879 0.2194
vn -0.4616 -0.8616 -0.2112
vn -0.5742 -0.3075 0.7588
vn 0.6454 0.1401 -0.7509
vn 0.6752 0.1509 -0.7220
vn 0.1776 0.9841 -0.0075
vn -0.5011 0.8653 0.0153
vn -0.4760 0.8794 -0.0045
vn -0.4957 0.8644 0.0840
vn 0.5229 0.7703 -0.3649
vn -0.7658 -0.6335 -0.1103
vn -0.4837 -0.3470 -0.8035
vn -0.6677 -0.6227 -0.4078
vn 0.4505 -0.4096 -0.7932
vn 0.1629 -0.9796 -0.1176
vn 0.7489 -0.5937 -0.2944
vn 0.0430 -0.9971 0.0625
vn -0.5643 0.1262 0.8159
vn 0.0935 0.9655 -0.2432
vn -0.5859 0.1305 0.7998
vn 0.6559 -0.0063 0.7549
vn 0.7996 -0.0131 0.6003
vn 0.9445 0.3267 -0.0355
vn 0.5281 0.6525 0.5435
vn 0.7695 -0.5708 0.2865
vn 0.4411 0.8945 0.0732
vn 0.6132 0.7898 -0.0139
vn 0.7078 0.7030 -0.0694
vn 0.2016 0.9637 0.1749
vn 0.3999 -0.3335 0.8537
vn -0.4651 -0.4445 0.7655
vn -0.4906 0.8697 -0.0543
vn 0.6311 0.3910 -0.6700
vn -0.7007 -0.7131 -0.0201
vn 0.9150 -0.4032 -0.0118
vn 0.0671 -0.9956 0.0650
vn 0.1206 -0.9922 0.0309
vn 0.2342 -0.9713 0.0414
vn -0.9606 0.0012 -0.2779
vn -0.9092 0.0011 0.4164
vn 0.5801 0.0024 0.8146
vn -0.8388 -0.0080 -0.5443
vn -0.7442 0.5867 0.3194
vn -0.7789 0.6268 -0.0185
vn -0.7332 0.5391 0.4146
vn 0.3853 -0.2750 0.8809
vn -0.4677 -0.3730 0.8013
vn -0.7275 -0.6741 0.1281
vn -0.3248 -0.9249 -0.1978
vn 0.5654 -0.7931 0.2266
vn 0.4060 0.2940 0.8653
vn -0.2980 -0.6727 0.6773
vn -0.5876 0.8092 -0.0000
vn 0.5651 -0.4655 0.6811
vn 0.4605 -0.2273 -0.8581
vn 0.2519 -0.2537 -0.9339
vn 0.0452 -0.1489 -0.9878
vn -0.2078 -0.6255 -0.7521
vn -0.2354 -0.6726 -0.7015
vn -0.7188 0.5858 -0.3745
vn 0.7632 0.5535 -0.3334
vn -0.5706 0.7356 -0.3650
vn -0.4583 -0.5018 -0.7336
vn 0.8313 -0.2995 -0.4682
vn 0.7532 0.4513 0.4786
vn 0.8878 -0.1657 0.4294
vn -0.5439 0.8388 0.0255
vn -0.5499 0.8297 0.0959
vn -0.5534 0.7959 0.2458
vn 0.8143 0.5549 0.1701
vn 0.0107 0.6521 -0.7581
vn -0.0107 0.6521 0.7581
vn 0.0107 -0.6521 0.7581
vn -0.0107 -0.6521 -0.7581
vn -0.0118 0.6637 0.7479
vn 0.0118 0.6637 -0.7479
vn -0.0118 -0.6637 -0.7479
vn 0.0118 -0.6637 0.7479
vn 0.0107 -0.6520 0.7581
vn -0.0107 -0.6520 -0.7581
vn 0.0225 0.5828 -0.8123
vn 0.0225 -0.5828 0.8123
vn -0.0225 -0.5828 -0.8123
vn -0.0225 0.5828 0.8123
vn 0.0067 0.6272 -0.7788
vn 0.0067 -0.6272 0.7788
vn -0.0067 -0.6272 -0.7788
vn -0.0067 0.6272 0.7788
vn 0.3366 -0.3366 -0.8794
vn -0.0000 -0.3481 -0.9375
vn -0.0000 -0.1880 -0.9822
vn -0.0000 -0.1960 -0.9806
vn -0.0000 0.5320 -0.8467
vn 0.3091 0.5023 -0.8075
vn -0.0354 -0.5057 0.8620
vn -0.2001 -0.4721 0.8586
vn -0.4176 0.4292 0.8009
vn -0.1046 0.7301 0.6753
vn -0.1050 0.7301 0.6753
vn 0.7388 0.2817 0.6122
vn -0.4755 -0.3035 0.8257
vn 0.8225 -0.2438 -0.5139
vn -0.1765 -0.1542 -0.9721
vn -0.5100 0.0408 -0.8592
vn -0.5102 0.0408 -0.8591
vn 0.0229 0.0037 -0.9997
vn -0.0190 -0.5442 0.8387
vn 0.6505 0.1058 0.7521
vn -0.7333 -0.0831 0.6748
vn -0.2587 0.4177 0.8710
vn -0.3960 0.0332 0.9176
vn 0.0874 -0.5663 -0.8196
vn 0.2064 0.9364 0.2838
vn -0.2332 0.4069 -0.8832
vn -0.4115 -0.8357 0.3637
vn -0.4552 0.5889 -0.6678
vn -0.1441 -0.9341 -0.3266
vn -0.6134 0.2015 -0.7636
vn 0.5123 -0.3157 -0.7986
vn 0.6205 -0.2165 -0.7537
vn -0.1868 0.9264 0.3271
vn 0.9154 -0.3735 -0.1502
vn -0.0860 -0.0308 -0.9958
vn 0.9307 -0.3090 -0.1960
vn -0.9522 0.2759 -0.1312
vn 0.2361 -0.4757 0.8474
vn -0.2032 -0.4713 0.8582
vn -0.4113 0.4368 0.8000
vn -0.0281 0.7795 0.6258
vn -0.0284 0.7793 0.6260
vn -0.0283 0.7794 0.6259
vn 0.6741 0.3717 0.6383
vn -0.5613 0.6004 0.5696
vn 0.6494 -0.6479 0.3981
vn -0.2073 -0.9783 0.0046
vn 0.9531 -0.2829 0.1077
vn -0.1593 0.6593 -0.7348
vn -0.5391 0.3365 -0.7721
vn -0.4553 0.5889 -0.6677
vn -0.1466 -0.9504 -0.2745
vn -0.6293 0.2069 -0.7491
vn 0.6985 -0.1311 -0.7035
vn 0.6985 -0.1314 -0.7035
vn 0.6984 -0.1315 -0.7035
vn 0.6206 -0.2164 -0.7537
vn -0.7850 -0.0627 0.6163
vn 0.8715 -0.1543 -0.4656
vn 0.7024 0.5650 0.4328
vn -0.2857 -0.9300 -0.2313
vn 0.3531 -0.7132 -0.6055
vn 0.9312 0.2069 -0.3002
vn 0.4663 0.7699 0.4357
vn 0.7929 0.5876 -0.1612
vn 0.4733 0.4828 0.7368
vn 0.9566 -0.1773 0.2313
vn -0.8042 -0.5050 0.3134
vn -0.5054 -0.8371 0.2094
vn -0.4346 -0.8471 0.3058
vn 0.7973 0.5050 -0.3305
vn -0.1229 0.9619 0.2444
vn -0.0312 -0.0833 0.9960
vn -0.7934 0.2464 -0.5566
vn -0.6380 0.2763 -0.7187
vn -0.4981 -0.7735 0.3919
vn 0.0371 0.7961 -0.6040
vn -0.0311 -0.0833 0.9960
vn -0.3572 -0.5960 0.7191
vn -0.8576 0.3330 -0.3919
vn -0.5033 -0.0644 -0.8617
vn -0.9451 0.3124 0.0957
vn 0.0779 0.7664 -0.6377
vn -0.2746 -0.2067 0.9391
vn 0.7091 -0.7051 0.0007
vn -0.4701 0.4620 -0.7520
vn -0.6764 0.2490 -0.6931
vn -0.0531 -0.7925 0.6076
vn -0.3776 -0.5735 -0.7270
vn -0.2966 0.0229 0.9547
vn -0.2967 0.0227 0.9547
vn -0.2966 0.0231 0.9547
vn 0.7943 0.5489 0.2603
vn 0.7045 -0.6991 0.1222
vn 0.7442 0.0632 -0.6650
vn 0.4251 -0.4907 -0.7606
vn 0.7222 0.0967 -0.6849
vn -0.0983 0.8425 0.5296
vn -0.7250 -0.0424 0.6874
vn -0.8378 0.4219 0.3466
vn -0.6971 0.4977 0.5161
vn -0.8610 0.1824 0.4748
vn -0.0059 -0.9191 0.3940
vn -0.1703 -0.9820 0.0822
vn -0.8359 -0.0986 -0.5399
vn -0.6523 0.0224 0.7576
vn 0.5353 0.7471 -0.3940
vn 0.1133 0.5503 -0.8273
vn 0.1307 0.5556 -0.8211
vn -0.3458 -0.6954 -0.6300
vn 0.7676 0.0336 0.6401
vn -0.7727 -0.4159 -0.4796
vn 0.9521 -0.1886 -0.2407
vn -0.3104 0.2127 0.9265
vn -0.4035 0.5965 0.6938
vn -0.6626 0.5630 0.4940
vn -0.3276 0.1944 0.9246
vn -0.5449 0.7402 -0.3939
vn 0.1996 -0.7142 -0.6709
vn -0.3335 -0.8183 -0.4681
vn -0.2700 -0.4706 -0.8400
vn 0.6406 0.4038 -0.6532
vn 0.5353 0.7473 -0.3937
vn 0.0137 -0.9995 0.0276
vn -0.8360 -0.0986 -0.5399
vn -0.6681 -0.0191 0.7438
vn 0.4872 -0.6809 0.5468
vn 0.6813 0.3505 0.6427
vn -0.5385 0.8424 -0.0205
vn -0.7884 0.2919 -0.5416
vn -0.6628 0.5626 0.4941
vn -0.3277 0.1941 0.9246
vn -0.5450 0.7403 -0.3937
vt 0.619978 0.764439
vt 0.619978 0.872496
vt 0.553452 0.878144
vt 0.553452 0.747136
vt 0.692412 0.747136
vt 0.692412 0.876579
vt 0.629282 0.855812
vt 0.629282 0.749044
vt 0.089542 0.754088
vt 0.089542 0.448157
vt 0.166608 0.472972
vt 0.166608 0.735020
vt 0.874794 0.412901
vt 0.874794 0.669605
vt 0.797614 0.688357
vt 0.797614 0.388664
vt 0.163884 0.934313
vt 0.162888 0.934756
vt 0.164288 0.934191
vt 0.763984 0.924940
vt 0.764892 0.924553
vt 0.764554 0.925131
vt 0.702597 0.831255
vt 0.702702 0.831119
vt 0.702721 0.830931
vt 0.106085 0.928622
vt 0.106857 0.928518
vt 0.106756 0.928961
vt 0.889433 0.682410
vt 0.888917 0.682201
vt 0.889643 0.682505
vt 0.021009 0.938551
vt 0.020035 0.938984
vt 0.021414 0.938428
vt 0.049849 0.939579
vt 0.050057 0.939873
vt 0.049175 0.939645
vt 0.728780 0.924792
vt 0.729552 0.924689
vt 0.729451 0.925131
vt 0.702289 0.820909
vt 0.701715 0.818869
vt 0.702289 0.818365
vt 0.765609 0.926842
vt 0.766562 0.923924
vt 0.767239 0.924293
vt 0.985747 0.274397
vt 0.982112 0.275475
vt 0.985179 0.273834
vt 0.919319 0.853716
vt 0.921733 0.854673
vt 0.918519 0.855453
vt 0.764740 0.923913
vt 0.766599 0.925165
vt 0.764816 0.925270
vt 0.936356 0.520907
vt 0.936889 0.519180
vt 0.938711 0.518772
vt 0.966957 0.161601
vt 0.968547 0.162245
vt 0.966209 0.162251
vt 0.701715 0.791833
vt 0.702351 0.794805
vt 0.701715 0.796118
vt 0.107895 0.930764
vt 0.105843 0.928215
vt 0.749467 0.954512
vt 0.747961 0.953515
vt 0.750749 0.953480
vt 0.922261 0.854275
vt 0.922109 0.857861
vt 0.921638 0.520907
vt 0.922189 0.519162
vt 0.923993 0.518772
vt 0.980767 0.211463
vt 0.979291 0.210648
vt 0.981629 0.210627
vt 0.730590 0.926935
vt 0.728538 0.924386
vt 0.420370 0.984057
vt 0.418412 0.985548
vt 0.420347 0.981055
vt 0.763035 0.923347
vt 0.772399 0.906192
vt 0.164478 0.935112
vt 0.168445 0.954328
vt 0.969346 0.162812
vt 0.701715 0.808763
vt 0.702388 0.805587
vt 0.702278 0.808974
vt 0.239502 0.970245
vt 0.240525 0.985822
vt 0.237418 0.970431
vt 0.749643 0.954522
vt 0.747964 0.973226
vt 0.979543 0.236487
vt 0.981287 0.255709
vt 0.980749 0.255791
vt 0.021604 0.939350
vt 0.025571 0.958565
vt 0.022644 0.941611
vt 0.023044 0.940142
vt 0.022927 0.940827
vt 0.984458 0.209447
vt 0.970771 0.619958
vt 0.971377 0.621175
vt 0.970578 0.620608
vt 0.984046 0.291433
vt 0.980913 0.276048
vt 0.039879 0.957040
vt 0.050307 0.939860
vt 0.958050 0.483500
vt 0.960400 0.484726
vt 0.960017 0.485296
vt 0.763540 0.922897
vt 0.763883 0.924792
vt 0.762682 0.922868
vt 0.914442 0.985778
vt 0.915823 0.985808
vt 0.916514 0.987487
vt 0.553988 0.952979
vt 0.555715 0.953833
vt 0.553455 0.953651
vt 0.731013 0.954682
vt 0.728705 0.956077
vt 0.730276 0.955313
vt 0.172071 0.916257
vt 0.164457 0.934248
vt 0.747720 0.934850
vt 0.772342 0.943037
vt 0.993740 0.105960
vt 0.994238 0.125104
vt 0.993670 0.126388
vt 0.092042 0.941610
vt 0.107014 0.928433
vt 0.106926 0.928906
vt 0.111228 0.947834
vt 0.025958 0.919599
vt 0.021583 0.938485
vt 0.555894 0.953839
vt 0.554167 0.972806
vt 0.982682 0.600225
vt 0.982063 0.620599
vt 0.982205 0.600118
vt 0.046923 0.920286
vt 0.051424 0.939539
vt 0.712958 0.935386
vt 0.729709 0.924603
vt 0.729621 0.925077
vt 0.737213 0.943046
vt 0.571603 0.973507
vt 0.570843 0.972542
vt 0.572698 0.972497
vt 0.981099 0.857792
vt 0.978757 0.860627
vt 0.980340 0.857237
vt 0.242226 0.969000
vt 0.241688 0.968224
vt 0.108769 0.927752
vt 0.557986 0.953072
vt 0.555465 0.953072
vt 0.727939 0.955244
vt 0.731463 0.923922
vt 0.980248 0.580195
vt 0.980744 0.577038
vt 0.980716 0.580065
vt 0.163715 0.935279
vt 0.149899 0.948199
vt 0.162751 0.933574
vt 0.106771 0.927685
vt 0.114601 0.910021
vt 0.108851 0.928512
vt 0.970007 0.025210
vt 0.967820 0.005864
vt 0.968325 0.004652
vt 0.884097 0.680707
vt 0.884827 0.677595
vt 0.884574 0.680613
vt 0.020840 0.939517
vt 0.005134 0.949851
vt 0.019877 0.937811
vt 0.729466 0.923855
vt 0.733911 0.905099
vt 0.731546 0.924683
vt 0.050121 0.940555
vt 0.061861 0.955535
vt 0.726451 0.954367
vt 0.167191 0.934679
vt 0.171364 0.953537
vt 0.167041 0.934635
vt 0.126053 0.973225
vt 0.126211 0.953343
vt 0.127734 0.972821
vt 0.024317 0.938916
vt 0.028490 0.957775
vt 0.024166 0.938872
vt 0.909276 0.388664
vt 0.884196 0.536577
vt 0.884098 0.388736
vt 0.909173 0.536528
vt 0.338889 0.444665
vt 0.338899 0.801181
vt 0.313868 0.801111
vt 0.553683 0.004899
vt 0.703123 0.366350
vt 0.553741 0.366468
vt 0.553683 0.376151
vt 0.703123 0.737582
vt 0.553741 0.737709
vt 0.703065 0.376023
vt 0.313860 0.444618
vt 0.842760 0.004901
vt 0.842770 0.354153
vt 0.817742 0.354161
vt 0.817734 0.004946
vt 0.903597 0.844339
vt 0.928684 0.698327
vt 0.928778 0.844412
vt 0.703065 0.004780
vt 0.903705 0.698232
vt 0.208007 0.434736
vt 0.364547 0.403289
vt 0.351514 0.434765
vt 0.485114 0.586441
vt 0.525469 0.587665
vt 0.524352 0.737546
vt 0.483866 0.736324
vt 0.022607 0.850174
vt 0.075598 0.818709
vt 0.055049 0.850145
vt 0.010122 0.818434
vt 0.160335 0.004884
vt 0.005190 0.041130
vt 0.016623 0.009567
vt 0.171557 0.035536
vt 0.781138 0.778412
vt 0.735817 0.805941
vt 0.725854 0.776913
vt 0.520092 0.428651
vt 0.520562 0.568284
vt 0.485346 0.566265
vt 0.765404 0.805810
vt 0.202201 0.029636
vt 0.220682 0.004699
vt 0.352914 0.004654
vt 0.364442 0.029708
vt 0.486733 0.428211
vt 0.534360 0.407761
vt 0.179417 0.409369
vt 0.017258 0.414510
vt 0.762848 0.388777
vt 0.716974 0.418125
vt 0.730408 0.388888
vt 0.782661 0.417590
vt 0.202116 0.403484
vt 0.036512 0.438853
vt 0.161575 0.434786
vt 0.712802 0.780601
vt 0.727828 0.809056
vt 0.072644 0.449800
vt 0.011626 0.449878
vt 0.479335 0.401842
vt 0.801067 0.698214
vt 0.893993 0.845934
vt 0.800150 0.865432
vt 0.877602 0.858702
vt 0.714470 0.005091
vt 0.791076 0.061729
vt 0.723006 0.064386
vt 0.516216 0.333829
vt 0.375004 0.392101
vt 0.402194 0.333855
vt 0.279974 0.728370
vt 0.282862 0.892328
vt 0.273928 0.892888
vt 0.542191 0.392067
vt 0.189379 0.742403
vt 0.205062 0.730534
vt 0.384085 0.463046
vt 0.376779 0.401863
vt 0.452311 0.461550
vt 0.543169 0.005762
vt 0.402097 0.060555
vt 0.374739 0.004727
vt 0.516131 0.060520
vt 0.733152 0.326795
vt 0.802986 0.328233
vt 0.807348 0.064857
vt 0.717648 0.329673
vt 0.377422 0.784032
vt 0.394740 0.731578
vt 0.465791 0.732550
vt 0.374189 0.783167
vt 0.378990 0.733405
vt 0.712658 0.379361
vt 0.714200 0.379025
vt 0.894285 0.732761
vt 0.189486 0.717947
vt 0.303993 0.444683
vt 0.303841 0.717976
vt 0.189432 0.444767
vt 0.189598 0.854595
vt 0.468883 0.463373
vt 0.722495 0.378821
vt 0.179206 0.732994
vt 0.176375 0.733057
vt 0.177855 0.644822
vt 0.351128 0.797987
vt 0.348423 0.710942
vt 0.352460 0.711267
vt 0.179306 0.634904
vt 0.176239 0.634629
vt 0.177964 0.546681
vt 0.295678 0.912096
vt 0.293654 0.825108
vt 0.297639 0.824961
vt 0.194280 0.968653
vt 0.191868 0.984929
vt 0.189658 0.968597
vt 0.041940 0.966768
vt 0.044151 0.983457
vt 0.039528 0.983365
vt 0.056327 0.966768
vt 0.058538 0.983457
vt 0.053915 0.983364
vt 0.023796 0.968457
vt 0.021384 0.984733
vt 0.019174 0.968401
vt 0.950900 0.359693
vt 0.951040 0.378897
vt 0.936412 0.378784
vt 0.345376 0.927743
vt 0.330799 0.950548
vt 0.330975 0.927740
vt 0.345426 0.950658
vt 0.852669 0.373882
vt 0.872188 0.350518
vt 0.872286 0.373783
vt 0.528661 0.752518
vt 0.528759 0.775783
vt 0.509143 0.775881
vt 0.471384 0.938765
vt 0.456841 0.957504
vt 0.457099 0.938763
vt 0.936613 0.359691
vt 0.509045 0.752615
vt 0.952848 0.832351
vt 0.938394 0.854907
vt 0.938445 0.832351
vt 0.953019 0.855020
vt 0.471468 0.957624
vt 0.852571 0.350616
vt 0.543020 0.669929
vt 0.540014 0.669661
vt 0.541618 0.581657
vt 0.179267 0.536755
vt 0.176237 0.536496
vt 0.177986 0.448483
vt 0.350552 0.701047
vt 0.349091 0.613890
vt 0.352908 0.613731
vt 0.295941 0.815025
vt 0.293654 0.728394
vt 0.297726 0.728286
vt 0.981850 0.355115
vt 0.984060 0.371804
vt 0.979437 0.371712
vt 0.208667 0.968653
vt 0.206255 0.984929
vt 0.204045 0.968597
vt 0.227935 0.968653
vt 0.225523 0.984929
vt 0.223314 0.968597
vt 0.800208 0.966784
vt 0.802418 0.983474
vt 0.797795 0.983381
vt 0.882309 0.373882
vt 0.901827 0.350518
vt 0.901925 0.373783
vt 0.882211 0.350616
vt 0.539425 0.929527
vt 0.539476 0.952442
vt 0.524849 0.952331
vt 0.446831 0.938765
vt 0.446915 0.957624
vt 0.432288 0.957504
vt 0.432546 0.938763
vt 0.388989 0.938765
vt 0.374501 0.957856
vt 0.374702 0.938763
vt 0.812380 0.933952
vt 0.812552 0.956621
vt 0.797927 0.956508
vt 0.389129 0.957969
vt 0.499021 0.752518
vt 0.479504 0.775881
vt 0.479405 0.752615
vt 0.797978 0.933952
vt 0.525025 0.929524
vt 0.499120 0.775783
vt 0.908980 0.568017
vt 0.910174 0.595436
vt 0.886093 0.597975
vt 0.884761 0.566804
vt 0.106708 0.832670
vt 0.089541 0.803242
vt 0.099860 0.775545
vt 0.910926 0.546771
vt 0.886890 0.546591
vt 0.126702 0.763713
vt 0.920593 0.646399
vt 0.920551 0.617313
vt 0.944832 0.618532
vt 0.944867 0.647929
vt 0.553625 0.923013
vt 0.554590 0.893545
vt 0.578789 0.895124
vt 0.154040 0.774896
vt 0.165381 0.802500
vt 0.578216 0.924385
vt 0.149077 0.832682
vt 0.554862 0.943210
vt 0.918975 0.505160
vt 0.918834 0.465989
vt 0.943798 0.467169
vt 0.883086 0.165997
vt 0.856252 0.146138
vt 0.854444 0.116713
vt 0.873512 0.094807
vt 0.902354 0.093929
vt 0.923538 0.114604
vt 0.921005 0.149021
vt 0.943737 0.504578
vt 0.579705 0.943360
vt 0.920526 0.667497
vt 0.944802 0.667497
vt 0.467316 0.884265
vt 0.478347 0.898288
vt 0.475644 0.916725
vt 0.431152 0.897375
vt 0.442169 0.883528
vt 0.454835 0.929098
vt 0.434019 0.915859
vt 0.338678 0.811094
vt 0.325298 0.856369
vt 0.313668 0.841513
vt 0.355247 0.817473
vt 0.362028 0.835014
vt 0.350027 0.856774
vt 0.316292 0.823887
vt 0.959713 0.487806
vt 0.955925 0.487032
vt 0.165847 0.936045
vt 0.955417 0.483631
vt 0.955487 0.483176
vt 0.076860 0.967104
vt 0.074563 0.966521
vt 0.078303 0.947409
vt 0.162380 0.933551
vt 0.168136 0.915232
vt 0.567873 0.972533
vt 0.569526 0.953124
vt 0.162365 0.936344
vt 0.982891 0.581307
vt 0.981583 0.580989
vt 0.980016 0.576936
vt 0.331937 0.989451
vt 0.334333 0.989488
vt 0.334209 0.992148
vt 0.983035 0.577263
vt 0.767277 0.924714
vt 0.768351 0.904879
vt 0.333350 0.961036
vt 0.335693 0.979318
vt 0.331315 0.979480
vt 0.988363 0.895190
vt 0.985454 0.895165
vt 0.987005 0.875782
vt 0.980144 0.436674
vt 0.977806 0.418042
vt 0.982002 0.418110
vt 0.491173 0.994795
vt 0.488174 0.994744
vt 0.489725 0.975954
vt 0.985166 0.578896
vt 0.985070 0.581435
vt 0.934152 0.520750
vt 0.937039 0.536205
vt 0.750299 0.938350
vt 0.979324 0.329521
vt 0.980307 0.328839
vt 0.982609 0.345337
vt 0.762471 0.925961
vt 0.768323 0.944177
vt 0.330494 0.992764
vt 0.981749 0.141756
vt 0.984774 0.141813
vt 0.981442 0.157770
vt 0.147526 0.944751
vt 0.541852 0.962461
vt 0.544059 0.981148
vt 0.539835 0.981020
vt 0.106615 0.976805
vt 0.103786 0.976766
vt 0.106819 0.957747
vt 0.989339 0.517021
vt 0.986342 0.516998
vt 0.988002 0.497829
vt 0.981309 0.198736
vt 0.978916 0.180304
vt 0.983245 0.180181
vt 0.512998 0.901473
vt 0.514192 0.928891
vt 0.490111 0.931430
vt 0.488779 0.900259
vt 0.514944 0.880226
vt 0.476734 0.862667
vt 0.459567 0.833240
vt 0.469885 0.805542
vt 0.256754 0.937823
vt 0.256711 0.908736
vt 0.280993 0.909956
vt 0.496727 0.793711
vt 0.281028 0.939353
vt 0.524066 0.804894
vt 0.535406 0.832498
vt 0.519102 0.862679
vt 0.920922 0.597896
vt 0.945745 0.559905
vt 0.945685 0.597314
vt 0.920781 0.558725
vt 0.256687 0.958920
vt 0.665103 0.921449
vt 0.666069 0.891981
vt 0.690268 0.893559
vt 0.689694 0.922821
vt 0.883086 0.252366
vt 0.856252 0.232506
vt 0.854444 0.203081
vt 0.873512 0.181176
vt 0.280963 0.958921
vt 0.902354 0.180297
vt 0.923538 0.200973
vt 0.921005 0.235389
vt 0.666340 0.941646
vt 0.691183 0.941796
vt 0.490908 0.880046
vt 0.016079 0.906340
vt 0.007564 0.874507
vt 0.028677 0.861565
vt 0.050085 0.874269
vt 0.053171 0.892771
vt 0.041953 0.906879
vt 0.821364 0.924294
vt 0.798107 0.901128
vt 0.809187 0.879132
vt 0.833477 0.879103
vt 0.805123 0.918472
vt 0.845414 0.893477
vt 0.843123 0.911601
vt 0.004786 0.892965
vt 0.104689 0.926996
vt 0.110554 0.908708
vt 0.824065 0.984774
vt 0.825856 0.980291
vt 0.826964 0.981896
vt 0.822799 0.980570
vt 0.983381 0.566293
vt 0.980016 0.567633
vt 0.980395 0.546957
vt 0.827308 0.984916
vt 0.992052 0.105936
vt 0.994106 0.125825
vt 0.992138 0.125206
vt 0.527400 0.962820
vt 0.529743 0.981102
vt 0.525365 0.981264
vt 0.980144 0.465457
vt 0.977806 0.446826
vt 0.982002 0.446894
vt 0.988178 0.974789
vt 0.985269 0.974764
vt 0.986820 0.955381
vt 0.358105 0.992572
vt 0.355105 0.992520
vt 0.356657 0.973730
vt 0.968370 0.005287
vt 0.949828 0.968100
vt 0.952714 0.968030
vt 0.949282 0.983759
vt 0.912294 0.986543
vt 0.912293 0.985524
vt 0.747339 0.954198
vt 0.752384 0.973297
vt 0.990962 0.859064
vt 0.992641 0.856225
vt 0.994504 0.857882
vt 0.965736 0.006127
vt 0.752281 0.954183
vt 0.965745 0.025155
vt 0.104884 0.926698
vt 0.993095 0.861200
vt 0.089541 0.938072
vt 0.916819 0.989447
vt 0.913006 0.988865
vt 0.104673 0.929791
vt 0.252719 0.969171
vt 0.254988 0.968295
vt 0.254883 0.985419
vt 0.109462 0.928187
vt 0.115324 0.946604
vt 0.980452 0.076805
vt 0.982660 0.095492
vt 0.978436 0.095365
vt 0.990185 0.802882
vt 0.987188 0.802859
vt 0.988848 0.783690
vt 0.149919 0.982645
vt 0.147526 0.964214
vt 0.151855 0.964091
vt 0.785469 0.978034
vt 0.782641 0.977995
vt 0.785674 0.958976
vt 0.391356 0.862667
vt 0.374189 0.833240
vt 0.384507 0.805542
vt 0.910926 0.612091
vt 0.908980 0.633337
vt 0.884761 0.632124
vt 0.886890 0.611911
vt 0.411350 0.793710
vt 0.438688 0.804894
vt 0.189375 0.958920
vt 0.189442 0.937822
vt 0.213717 0.939352
vt 0.629454 0.921449
vt 0.630420 0.891981
vt 0.654619 0.893559
vt 0.654046 0.922821
vt 0.450028 0.832497
vt 0.433724 0.862679
vt 0.918975 0.440106
vt 0.943798 0.402115
vt 0.943737 0.439524
vt 0.918834 0.400936
vt 0.213681 0.909955
vt 0.189400 0.908736
vt 0.883086 0.079628
vt 0.873512 0.008439
vt 0.902354 0.007560
vt 0.630692 0.941646
vt 0.655534 0.941796
vt 0.856252 0.059769
vt 0.854444 0.030344
vt 0.213651 0.958920
vt 0.923538 0.028236
vt 0.886093 0.663295
vt 0.921006 0.062652
vt 0.910174 0.660756
vt 0.410353 0.884265
vt 0.421384 0.898288
vt 0.418681 0.916725
vt 0.397872 0.929098
vt 0.374189 0.897375
vt 0.385206 0.883528
vt 0.377056 0.915859
vt 0.114552 0.850230
vt 0.101172 0.895505
vt 0.089541 0.880649
vt 0.092165 0.863022
vt 0.131121 0.856608
vt 0.137902 0.874150
vt 0.125901 0.895910
vt 0.129623 0.972860
vt 0.124691 0.972758
vt 0.984828 0.620878
vt 0.982410 0.621014
vt 0.982063 0.600763
vt 0.983947 0.255697
vt 0.886664 0.682022
vt 0.887750 0.678340
vt 0.889098 0.679779
vt 0.888813 0.682303
vt 0.886650 0.682013
vt 0.293654 0.972327
vt 0.296394 0.970856
vt 0.296394 0.991240
vt 0.558515 0.972819
vt 0.558515 0.953722
vt 0.918350 0.858812
vt 0.029982 0.920770
vt 0.715900 0.974114
vt 0.712292 0.973327
vt 0.713945 0.953919
vt 0.983947 0.236493
vt 0.019506 0.937789
vt 0.988178 0.945166
vt 0.985269 0.945141
vt 0.986820 0.925758
vt 0.980503 0.048456
vt 0.982846 0.066738
vt 0.978468 0.066900
vt 0.980479 0.708460
vt 0.978141 0.689829
vt 0.982338 0.689897
vt 0.993376 0.846849
vt 0.990376 0.846798
vt 0.991928 0.828007
vt 0.887095 0.677991
vt 0.919497 0.520727
vt 0.922322 0.536205
vt 0.884109 0.677440
vt 0.885369 0.681599
vt 0.019491 0.940581
vt 0.007586 0.953094
vt 0.884838 0.678505
vt 0.981907 0.004654
vt 0.984885 0.004709
vt 0.981897 0.020673
vt 0.294162 0.991452
vt 0.092568 0.976805
vt 0.089739 0.976766
vt 0.092772 0.957747
vt 0.975699 0.989566
vt 0.972701 0.989543
vt 0.974362 0.970373
vt 0.164324 0.982645
vt 0.161931 0.964214
vt 0.166260 0.964091
vt 0.980452 0.105626
vt 0.982660 0.124313
vt 0.978436 0.124186
vt 0.172409 0.871475
vt 0.173603 0.898893
vt 0.149521 0.901433
vt 0.174354 0.850229
vt 0.148190 0.870262
vt 0.729403 0.887637
vt 0.712236 0.858210
vt 0.722554 0.830512
vt 0.150318 0.850049
vt 0.223098 0.937823
vt 0.223055 0.908736
vt 0.247337 0.909955
vt 0.749397 0.818681
vt 0.776735 0.829864
vt 0.788076 0.857468
vt 0.771771 0.887649
vt 0.589497 0.938890
vt 0.614320 0.900899
vt 0.614259 0.938307
vt 0.589356 0.899719
vt 0.223031 0.958920
vt 0.247372 0.939352
vt 0.247307 0.958921
vt 0.883086 0.338734
vt 0.856252 0.318875
vt 0.854444 0.289450
vt 0.923538 0.287341
vt 0.921006 0.321758
vt 0.873512 0.267544
vt 0.902354 0.266666
vt 0.912367 0.910945
vt 0.937531 0.883055
vt 0.936958 0.912317
vt 0.913332 0.881477
vt 0.913604 0.931141
vt 0.938446 0.931292
vt 0.325094 0.914611
vt 0.313802 0.901235
vt 0.316580 0.882778
vt 0.337693 0.869836
vt 0.359101 0.882540
vt 0.362187 0.901042
vt 0.350969 0.915149
vt 0.878654 0.924294
vt 0.862413 0.918472
vt 0.855397 0.901128
vt 0.866477 0.879132
vt 0.890767 0.879103
vt 0.902704 0.893477
vt 0.900413 0.911601
vt 0.609663 0.984408
vt 0.605874 0.985461
vt 0.607616 0.981800
vt 0.968017 0.620265
vt 0.969353 0.600552
vt 0.051187 0.919914
vt 0.047536 0.939630
vt 0.738036 0.906426
vt 0.727383 0.923166
vt 0.980479 0.737244
vt 0.978141 0.718613
vt 0.982338 0.718681
vt 0.978671 0.828169
vt 0.981015 0.846451
vt 0.976636 0.846613
vt 0.987787 0.658887
vt 0.984879 0.658862
vt 0.986429 0.639479
vt 0.503627 0.994795
vt 0.500627 0.994744
vt 0.502179 0.975954
vt 0.052158 0.938865
vt 0.063734 0.954490
vt 0.048521 0.942173
vt 0.265764 0.968224
vt 0.268693 0.969312
vt 0.268072 0.988269
vt 0.420403 0.981615
vt 0.992052 0.077442
vt 0.994672 0.076511
vt 0.994672 0.096632
vt 0.265764 0.988332
vt 0.415951 0.982508
vt 0.418031 0.981330
vt 0.420175 0.981456
vt 0.060396 0.957040
vt 0.984030 0.276106
vt 0.715196 0.938350
vt 0.727579 0.922868
vt 0.732157 0.924358
vt 0.417300 0.985527
vt 0.415361 0.985107
vt 0.727368 0.925961
vt 0.992537 0.096373
vt 0.447857 0.967293
vt 0.450838 0.967330
vt 0.447496 0.983284
vt 0.733220 0.944177
vt 0.985613 0.986337
vt 0.989462 0.984986
vt 0.988614 0.988358
vt 0.764794 0.972976
vt 0.761966 0.972936
vt 0.764999 0.953917
vt 0.281110 0.987881
vt 0.278112 0.987859
vt 0.279773 0.968689
vt 0.980459 0.765694
vt 0.978066 0.747263
vt 0.982395 0.747140
vt 0.980536 0.388957
vt 0.982743 0.407645
vt 0.978519 0.407517
vt 0.956150 0.050911
vt 0.956132 0.086575
vt 0.936384 0.086600
vt 0.936384 0.131990
vt 0.956151 0.096840
vt 0.956134 0.132078
vt 0.936401 0.096753
vt 0.936402 0.050936
vt 0.936400 0.349930
vt 0.936412 0.317162
vt 0.957406 0.317247
vt 0.957394 0.350017
vt 0.957404 0.187572
vt 0.957392 0.220736
vt 0.936400 0.220770
vt 0.936412 0.187606
vt 0.956150 0.005065
vt 0.956132 0.040729
vt 0.936384 0.040754
vt 0.936402 0.005090
vt 0.936384 0.177401
vt 0.956151 0.142252
vt 0.956135 0.177490
vt 0.936401 0.142164
vt 0.957404 0.230905
vt 0.957392 0.264069
vt 0.936400 0.264103
vt 0.936400 0.307001
vt 0.936412 0.274233
vt 0.957406 0.274318
vt 0.957395 0.307088
vt 0.936412 0.230939
vt 0.363223 0.444846
vt 0.348529 0.519405
vt 0.348566 0.444844
vt 0.348529 0.603373
vt 0.363223 0.529789
vt 0.363187 0.603458
vt 0.348565 0.529697
vt 0.363186 0.519412
vt 0.540356 0.880329
vt 0.524682 0.919774
vt 0.524840 0.880083
vt 0.540200 0.920034
vt 0.938219 0.822594
vt 0.938377 0.783360
vt 0.953895 0.783709
vt 0.953738 0.822921
vt 0.956312 0.388715
vt 0.954937 0.471599
vt 0.953902 0.388670
vt 0.961682 0.875379
vt 0.962932 0.957470
vt 0.960724 0.957325
vt 0.958259 0.546505
vt 0.956884 0.629388
vt 0.955849 0.546460
vt 0.964694 0.783224
vt 0.965944 0.865316
vt 0.963735 0.865171
vt 0.966945 0.689272
vt 0.968194 0.771363
vt 0.965986 0.771218
vt 0.950813 0.875430
vt 0.949438 0.958314
vt 0.948403 0.875385
vt 0.163921 0.934806
vt 0.764752 0.924436
vt 0.702447 0.830212
vt 0.702847 0.830421
vt 0.702778 0.831030
vt 0.701715 0.830305
vt 0.701715 0.831881
vt 0.701819 0.831281
vt 0.105018 0.928373
vt 0.889408 0.682138
vt 0.888874 0.682331
vt 0.889175 0.681885
vt 0.888598 0.681581
vt 0.888877 0.681747
vt 0.021047 0.939044
vt 0.049549 0.940106
vt 0.048124 0.939686
vt 0.050177 0.940449
vt 0.727713 0.924544
vt 0.701864 0.820772
vt 0.922424 0.853716
vt 0.702072 0.791416
vt 0.108021 0.929954
vt 0.090707 0.988419
vt 0.094264 0.987652
vt 0.092588 0.991070
vt 0.730716 0.926125
vt 0.420369 0.984765
vt 0.170533 0.953785
vt 0.983735 0.327493
vt 0.984187 0.328225
vt 0.970729 0.161624
vt 0.701715 0.805422
vt 0.992460 0.861679
vt 0.027659 0.958023
vt 0.984073 0.208659
vt 0.972759 0.619987
vt 0.541415 0.775908
vt 0.542397 0.778472
vt 0.541763 0.778951
vt 0.039347 0.956733
vt 0.958189 0.482785
vt 0.555731 0.952686
vt 0.989737 0.985448
vt 0.732464 0.954765
vt 0.994238 0.105968
vt 0.570968 0.973172
vt 0.750093 0.953791
vt 0.726420 0.953480
vt 0.959842 0.487677
vt 0.335070 0.989662
vt 0.985166 0.581325
vt 0.822249 0.983219
vt 0.822169 0.980528
vt 0.970775 0.005995
vt 0.912194 0.985631
vt 0.916920 0.989338
vt 0.129664 0.972785
vt 0.129008 0.973425
vt 0.984949 0.601501
vt 0.918486 0.858933
vt 0.884877 0.680434
vt 0.884841 0.677747
vt 0.608189 0.986860
vt 0.605624 0.986041
vt 0.415427 0.985240
s 1
usemtl kei_wagon_baked
f 2/1/1 3/2/1 4/3/1
f 2/1/1 4/3/1 5/4/1
f 6/5/2 7/6/2 8/7/2
f 6/5/2 8/7/2 9/8/2
f 10/9/3 11/10/3 12/11/3
f 10/9/3 12/11/3 13/12/3
f 14/13/4 15/14/4 16/15/4
f 14/13/4 16/15/4 17/16/4
f 125/17/5 120/18/5 121/19/5
f 146/20/6 148/21/6 151/22/6
f 199/23/7 201/24/7 196/25/7
f 219/26/8 220/27/8 216/28/8
f 248/29/9 249/30/9 252/31/9
f 278/32/10 260/33/10 274/34/10
f 327/35/11 322/36/11 324/37/11
f 341/38/12 342/39/12 337/40/12
f 194/41/13 193/42/14 192/43/15
f 139/44/16 145/45/17 144/46/18
f 328/47/19 330/48/20 322/49/21
f 246/50/22 256/51/23 247/52/24
f 149/53/25 130/54/25 150/55/25
f 138/56/26 120/57/26 126/58/26
f 181/59/27 180/60/28 183/61/29
f 186/62/30 198/63/30 197/64/30
f 220/27/31 204/65/31 214/66/31
f 196/67/32 210/68/32 197/69/32
f 255/70/33 261/71/33 256/51/33
f 272/72/34 260/73/34 279/74/34
f 281/75/35 280/76/36 286/77/37
f 342/39/38 331/78/38 335/79/38
f 312/80/39 344/81/39 326/82/39
f 117/83/40 127/84/40 149/53/40
f 124/85/41 141/86/41 125/17/41
f 181/59/27 207/87/42 180/60/28
f 183/88/43 198/89/43 181/90/43
f 203/91/44 205/92/45 204/93/46
f 195/94/47 213/95/47 196/67/47
f 259/96/48 255/97/48 254/98/48
f 277/99/41 270/100/41 278/32/41
f 281/101/35 257/102/49 280/103/36
f 286/77/50 252/104/50 281/75/50
f 317/105/51 338/106/51 316/107/51
f 330/48/52 332/108/53 331/109/54
f 348/110/55 327/35/55 326/111/55
f 130/112/56 118/113/57 119/114/58
f 136/115/59 147/116/59 135/117/59
f 210/118/60 209/119/61 212/120/62
f 269/121/63 250/122/63 268/123/63
f 338/124/64 345/125/64 346/126/64
f 121/19/65 128/127/65 122/128/65
f 146/20/66 142/129/66 147/116/66
f 150/55/67 153/130/68 151/22/69
f 185/131/70 200/132/70 199/133/70
f 205/134/71 219/26/71 218/135/71
f 215/136/72 211/137/72 216/28/72
f 274/34/73 258/138/74 275/139/75
f 249/140/76 271/141/76 250/122/76
f 253/142/77 285/143/77 254/144/77
f 314/145/78 312/146/79 324/37/80
f 334/147/81 341/38/81 340/148/81
f 336/149/82 351/150/83 337/40/84
f 120/151/85 118/152/85 121/153/85
f 185/154/86 187/155/87 184/156/88
f 201/157/89 203/91/89 202/158/89
f 212/159/90 215/136/90 214/66/90
f 267/160/91 249/140/91 248/161/91
f 345/125/92 352/162/93 346/126/94
f 347/163/90 336/149/90 335/79/90
f 137/164/95 125/165/95 135/166/95
f 123/167/96 154/168/97 145/169/98
f 217/170/99 187/171/100 182/172/101
f 206/173/102 201/174/102 200/175/102
f 273/176/103 278/177/104 268/178/105
f 276/179/106 283/180/107 282/181/108
f 339/182/109 315/183/110 313/184/111
f 323/185/112 333/186/112 324/37/112
f 328/187/113 352/162/93 345/125/92
f 135/188/114 142/189/115 137/190/116
f 247/191/117 259/192/118 246/193/119
f 268/194/114 271/195/115 273/196/116
f 18/197/120 21/198/121 19/199/122
f 18/197/120 24/200/123 21/198/121
f 22/201/124 18/202/120 19/203/122
f 22/204/125 24/205/125 18/206/125
f 19/207/126 20/208/126 25/209/126
f 19/207/126 21/210/126 20/208/126
f 22/201/124 19/203/122 25/211/127
f 24/212/123 23/213/128 20/214/129
f 24/212/123 20/214/129 21/215/121
f 23/216/128 25/217/127 20/218/129
f 22/204/125 23/219/125 24/205/125
f 23/216/128 22/220/124 25/217/127
f 34/221/130 36/222/131 26/223/132
f 27/224/133 34/225/130 26/226/132
f 27/224/133 26/226/132 28/227/134
f 27/228/133 39/229/135 34/230/130
f 27/228/133 32/231/136 39/229/135
f 28/232/134 32/233/136 27/234/133
f 28/232/134 33/235/137 32/233/136
f 38/236/138 29/237/139 37/238/140
f 31/239/141 29/240/139 30/241/142
f 38/236/138 30/242/143 29/237/139
f 40/243/144 42/244/145 30/245/146
f 40/243/144 30/245/146 38/246/147
f 31/239/141 30/241/142 42/247/145
f 41/248/148 31/239/141 42/247/145
f 33/235/137 35/249/149 41/250/148
f 26/251/132 33/252/137 28/253/134
f 26/251/132 36/254/131 33/252/137
f 34/221/130 39/255/135 36/222/131
f 35/249/149 31/256/141 41/250/150
f 35/249/149 29/257/139 31/256/141
f 33/252/137 37/238/140 35/258/149
f 37/238/140 29/259/139 35/258/149
f 36/254/131 37/238/140 33/252/151
f 36/254/131 38/236/138 37/238/140
f 39/255/135 40/243/144 38/246/138
f 32/231/136 40/260/144 39/229/135
f 32/231/136 41/261/148 40/260/144
f 41/248/148 42/247/145 40/262/144
f 1/263/152 49/264/153 43/265/154
f 43/265/154 49/264/153 45/266/155
f 43/267/154 45/268/156 46/269/157
f 55/270/158 44/271/159 47/272/160
f 44/273/159 54/274/161 56/275/162
f 55/270/158 54/276/161 44/271/159
f 44/273/159 56/275/162 57/277/163
f 58/278/164 44/273/164 57/277/164
f 47/279/160 44/280/159 58/281/165
f 43/282/154 52/283/166 1/284/152
f 43/282/154 46/285/157 52/283/166
f 45/268/155 48/286/167 46/269/168
f 45/268/155 50/287/169 48/286/167
f 49/288/153 50/287/169 45/268/155
f 46/269/168 48/286/167 55/289/170
f 1/290/152 53/291/171 51/292/172
f 1/293/152 52/294/166 53/291/171
f 46/285/168 55/270/170 47/272/173
f 46/285/168 47/272/173 52/283/174
f 48/286/175 54/295/161 55/289/158
f 50/287/169 54/296/161 48/286/175
f 1/263/152 51/297/172 49/264/153
f 51/298/172 50/299/169 49/300/153
f 51/298/172 57/301/163 50/299/169
f 56/275/162 50/302/169 57/277/163
f 51/292/172 58/281/176 57/303/163
f 53/291/177 58/281/178 51/292/179
f 52/294/174 47/279/173 53/291/177
f 53/291/177 47/279/173 58/281/178
f 50/287/169 56/304/162 54/296/161
f 62/305/180 59/306/181 61/307/182
f 59/308/181 60/309/183 61/310/182
f 59/311/181 62/312/180 60/313/183
f 62/314/180 61/315/182 60/316/183
f 65/317/184 64/318/185 63/319/186
f 64/320/185 65/321/184 63/322/186
f 67/323/187 66/324/187 68/325/187
f 66/326/187 67/327/187 68/328/187
f 74/329/188 69/330/189 71/331/190
f 69/332/189 70/333/191 71/334/190
f 69/332/189 75/335/192 70/333/191
f 74/336/188 75/337/192 69/338/189
f 71/339/190 70/340/191 76/341/193
f 75/342/192 76/343/193 70/344/191
f 74/329/188 71/331/190 72/345/194
f 71/339/190 76/341/193 72/346/194
f 73/347/195 72/348/194 76/349/193
f 73/347/195 74/350/188 72/348/194
f 75/342/192 73/351/195 76/343/193
f 74/336/188 73/352/195 75/337/192
f 78/353/196 77/354/197 79/355/198
f 77/356/197 78/357/196 80/358/199
f 77/359/197 80/360/199 79/361/198
f 78/362/196 79/363/198 80/364/199
f 81/365/200 82/366/201 83/367/201
f 82/368/201 81/369/200 83/370/201
f 85/371/202 84/372/203 86/373/204
f 84/374/203 85/375/202 86/376/204
f 88/377/188 87/378/192 90/379/189
f 88/377/188 92/380/195 87/378/192
f 90/381/189 87/382/192 91/383/191
f 87/384/192 92/385/195 94/386/193
f 87/384/192 94/386/193 91/387/191
f 88/388/188 93/389/190 89/390/194
f 92/391/195 88/392/188 89/393/194
f 88/388/188 90/394/189 93/389/190
f 93/395/190 94/396/193 89/397/194
f 92/391/195 89/393/194 94/398/193
f 90/381/189 91/383/191 93/399/190
f 93/395/190 91/400/191 94/396/193
f 96/401/205 95/402/206 108/403/207
f 96/401/205 108/403/207 106/404/208
f 95/405/206 96/406/205 97/407/209
f 97/408/209 96/401/205 106/404/208
f 97/408/209 106/404/208 104/409/210
f 95/405/206 97/407/209 98/410/211
f 98/411/211 97/412/209 104/413/210
f 98/411/211 104/413/210 103/414/212
f 100/415/213 99/416/214 107/417/215
f 95/405/206 99/418/214 100/419/216
f 100/415/213 107/417/215 102/420/217
f 95/405/206 100/419/216 101/421/218
f 101/422/218 100/415/213 102/420/217
f 95/423/206 101/424/218 105/425/219
f 105/426/219 102/427/217 107/428/215
f 105/426/219 103/429/212 104/430/210
f 105/426/219 104/430/210 106/431/220
f 105/426/219 107/428/215 103/429/212
f 105/426/219 106/431/220 108/432/207
f 95/423/206 105/425/219 108/433/207
f 101/422/218 102/420/217 105/434/219
f 99/435/214 103/414/212 107/436/215
f 99/435/214 98/411/211 103/414/212
f 95/405/206 98/410/211 99/418/214
f 109/437/221 115/438/222 114/439/223
f 109/437/221 113/440/224 112/441/225
f 109/437/221 114/439/223 110/442/226
f 109/437/221 111/443/227 113/440/224
f 109/437/221 110/442/226 111/443/227
f 112/444/225 114/445/223 115/446/222
f 112/444/225 113/447/224 111/448/227
f 112/444/225 110/449/226 114/445/223
f 112/444/225 115/446/222 109/450/221
f 112/444/225 111/448/227 110/449/226
f 119/114/228 122/451/228 117/452/228
f 117/452/229 130/112/229 119/114/229
f 116/453/230 122/128/231 128/127/232
f 149/454/233 130/112/233 148/455/233
f 117/456/234 116/457/230 128/458/232
f 121/19/235 118/459/236 127/460/237
f 118/152/236 129/461/238 127/462/237
f 138/463/239 125/17/239 141/86/239
f 123/167/96 116/453/240 154/168/97
f 121/19/235 127/460/237 128/127/232
f 136/464/241 135/465/242 126/466/243
f 143/467/244 124/468/245 145/469/246
f 125/17/247 137/190/247 142/189/247
f 136/464/241 126/466/243 139/470/248
f 129/471/238 149/53/249 127/84/237
f 117/83/234 128/472/232 127/84/237
f 131/473/250 134/474/251 133/475/252
f 132/476/253 131/477/250 133/478/252
f 132/479/253 133/480/252 134/481/251
f 131/482/250 132/483/253 134/484/251
f 140/485/254 147/486/254 136/464/254
f 136/464/255 139/470/255 140/485/255
f 135/117/114 147/116/256 142/129/115
f 139/487/257 138/56/258 141/488/259
f 146/20/260 139/44/257 141/489/259
f 146/20/260 141/489/259 142/129/261
f 116/490/240 143/491/262 154/492/97
f 143/493/263 153/130/264 154/494/97
f 143/493/263 151/22/265 153/130/264
f 143/467/244 145/469/246 152/495/266
f 144/46/18 153/130/68 150/55/67
f 144/496/18 145/497/17 153/498/68
f 145/169/98 154/168/97 153/499/264
f 155/500/267 157/501/268 158/502/269
f 155/503/267 156/504/270 157/505/268
f 156/506/270 155/507/267 158/508/269
f 156/509/270 158/510/269 157/511/268
f 160/512/205 159/513/206 168/514/207
f 160/512/205 168/514/207 172/515/208
f 161/516/209 160/512/205 172/515/208
f 159/517/206 160/518/205 161/519/209
f 162/520/211 161/521/209 171/522/210
f 159/517/206 161/519/209 162/523/211
f 162/520/211 171/522/210 167/524/212
f 159/517/206 162/523/211 170/525/214
f 159/517/206 170/525/214 163/526/216
f 159/517/206 163/526/216 164/527/218
f 159/528/206 169/529/219 168/530/207
f 159/528/206 164/531/218 169/529/219
f 170/532/214 162/520/211 167/524/212
f 163/533/213 170/534/214 166/535/215
f 163/533/213 166/535/215 165/536/217
f 169/537/219 165/538/217 166/539/215
f 169/537/219 166/539/215 167/540/212
f 170/532/214 167/524/212 166/541/215
f 169/537/219 167/540/212 171/542/210
f 169/537/219 172/543/220 168/544/207
f 169/537/219 171/542/210 172/543/220
f 164/545/218 165/536/217 169/546/219
f 164/545/218 163/533/213 165/536/217
f 161/516/209 172/515/208 171/547/210
f 179/548/271 173/549/272 174/550/273
f 179/548/271 174/550/273 175/551/274
f 179/548/271 177/552/275 176/553/276
f 176/554/276 175/555/274 174/556/273
f 176/554/276 174/556/273 173/557/272
f 176/554/276 177/558/275 175/555/274
f 176/554/276 178/559/277 179/560/271
f 176/554/276 173/557/272 178/559/277
f 179/548/271 175/551/274 177/552/275
f 179/548/271 178/561/277 173/549/272
f 217/170/278 181/562/279 184/563/88
f 183/564/280 182/565/281 186/566/282
f 183/564/280 218/567/283 182/565/281
f 181/568/279 199/569/284 184/570/88
f 183/564/280 186/566/282 198/571/126
f 200/132/285 187/572/87 185/131/86
f 198/573/286 182/574/286 200/132/286
f 217/170/278 184/563/88 187/171/87
f 188/575/287 189/576/251 191/577/252
f 190/578/253 191/579/252 189/580/251
f 190/581/253 188/582/287 191/583/252
f 188/584/287 190/585/253 189/586/251
f 200/175/288 202/587/288 206/173/288
f 192/588/15 193/589/14 206/590/289
f 194/591/290 196/592/290 210/118/290
f 209/593/291 196/67/292 213/95/293
f 195/94/294 211/594/295 213/95/293
f 193/595/296 202/596/297 203/597/298
f 203/598/44 201/174/299 206/173/300
f 195/94/294 208/599/301 211/594/295
f 203/598/44 206/173/300 205/600/45
f 193/601/302 219/26/303 205/134/45
f 193/595/296 203/597/298 220/602/304
f 193/601/302 205/134/45 206/603/300
f 204/65/305 205/134/305 218/135/305
f 212/120/306 216/604/306 208/605/306
f 208/605/307 210/118/308 212/120/309
f 207/606/310 216/28/311 211/137/295
f 208/607/301 207/608/310 211/609/295
f 215/136/312 209/610/291 213/611/293
f 215/136/312 213/611/293 211/137/295
f 221/612/267 223/613/268 224/614/269
f 222/615/270 221/616/267 224/617/269
f 222/618/270 224/619/269 223/620/268
f 221/621/267 222/622/270 223/623/268
f 225/624/206 226/625/205 227/626/209
f 227/627/209 226/628/205 237/629/208
f 227/627/209 237/629/208 231/630/210
f 225/624/206 228/631/211 234/632/214
f 234/633/214 228/634/211 236/635/212
f 229/636/213 234/637/214 235/638/215
f 229/636/213 235/638/215 233/639/217
f 225/624/206 234/632/214 229/640/216
f 225/624/206 227/626/209 228/631/211
f 225/624/206 229/640/216 232/641/218
f 225/642/206 230/643/219 238/644/207
f 225/642/206 232/645/218 230/643/219
f 228/634/211 231/646/210 236/635/212
f 228/634/211 227/647/209 231/646/210
f 230/648/219 236/649/212 231/650/210
f 232/651/218 229/636/213 233/639/217
f 232/651/218 233/639/217 230/652/219
f 230/648/219 233/653/217 235/654/215
f 234/633/214 236/635/212 235/655/215
f 230/648/219 235/654/215 236/649/212
f 230/648/219 231/650/210 237/656/220
f 226/628/205 238/657/207 237/629/208
f 230/648/219 237/656/220 238/658/207
f 226/628/205 225/659/206 238/657/207
f 240/660/313 243/661/314 239/662/223
f 240/660/313 239/662/223 245/663/226
f 240/660/313 241/664/315 242/665/316
f 240/660/313 244/666/227 241/664/315
f 240/660/313 245/663/226 244/666/227
f 242/667/316 239/668/223 243/669/314
f 242/667/316 243/669/314 240/670/313
f 242/667/316 241/671/315 244/672/227
f 242/667/316 244/672/227 245/673/226
f 242/667/316 245/673/226 239/668/223
f 246/193/317 259/192/317 254/674/317
f 247/191/117 257/675/318 259/192/118
f 247/52/24 256/51/23 261/71/319
f 254/144/320 283/676/321 284/677/322
f 253/142/323 252/678/323 283/676/323
f 261/679/324 255/97/325 259/96/326
f 286/680/327 282/681/328 252/31/329
f 267/682/330 250/683/330 269/684/330
f 268/123/114 250/122/256 271/141/115
f 281/685/331 253/686/332 285/687/333
f 249/140/334 270/688/335 271/141/261
f 249/140/334 266/689/336 270/688/335
f 261/71/319 275/690/337 247/52/24
f 257/102/338 258/138/339 259/691/326
f 257/102/338 275/139/340 258/138/339
f 260/692/341 261/693/342 258/694/74
f 261/679/324 259/96/326 258/695/339
f 274/34/73 260/696/341 258/138/74
f 263/697/343 262/698/287 264/699/252
f 262/700/287 265/701/251 264/702/252
f 263/703/343 264/704/252 265/705/251
f 262/706/287 263/707/343 265/708/251
f 269/684/344 266/709/344 267/682/344
f 266/710/336 272/72/345 270/711/335
f 269/684/346 279/712/347 266/709/348
f 269/684/346 268/713/349 279/712/347
f 278/32/247 273/196/247 271/195/247
f 272/714/350 278/32/350 270/100/350
f 276/179/351 281/101/331 284/715/322
f 276/179/351 284/715/322 283/180/321
f 286/680/327 277/716/352 282/681/328
f 251/717/353 282/718/108 283/719/107
f 281/685/331 285/687/333 284/720/322
f 290/721/267 287/722/270 289/723/268
f 287/724/270 290/725/267 288/726/269
f 287/727/270 288/728/269 289/729/268
f 290/730/267 289/731/268 288/732/269
f 292/733/205 291/734/206 304/735/207
f 293/736/209 292/733/205 298/737/208
f 291/738/206 292/739/205 293/740/209
f 293/736/209 298/737/208 303/741/210
f 302/742/211 293/743/209 303/744/210
f 291/738/206 293/740/209 302/745/211
f 291/738/206 294/746/214 300/747/216
f 291/738/206 300/747/216 299/748/218
f 291/749/206 295/750/219 304/751/207
f 291/738/206 302/745/211 294/746/214
f 291/749/206 299/752/218 295/750/219
f 294/753/214 297/754/212 296/755/215
f 294/753/214 302/742/211 297/754/212
f 295/756/219 301/757/217 296/758/215
f 295/756/219 298/759/220 304/760/207
f 295/756/219 296/758/215 297/761/212
f 295/756/219 303/762/210 298/759/220
f 295/756/219 297/761/212 303/762/210
f 300/763/213 296/764/215 301/765/217
f 300/763/213 294/766/214 296/764/215
f 302/742/211 303/744/210 297/754/212
f 292/733/205 304/735/207 298/737/208
f 299/767/218 301/765/217 295/768/219
f 299/767/218 300/763/213 301/765/217
f 308/769/354 311/770/277 310/771/272
f 308/769/354 310/771/272 305/772/273
f 308/769/354 305/772/273 306/773/274
f 308/769/354 307/774/355 309/775/276
f 308/769/354 306/773/274 307/774/355
f 309/776/276 307/777/355 306/778/274
f 309/776/276 305/779/273 310/780/272
f 309/776/276 306/778/274 305/779/273
f 309/776/276 310/780/272 311/781/277
f 309/776/276 311/781/277 308/782/354
f 312/783/356 340/784/357 313/785/358
f 317/105/359 312/786/360 315/787/110
f 312/146/79 314/145/78 315/788/110
f 313/789/111 314/145/78 324/37/361
f 313/184/111 315/183/110 314/790/78
f 339/182/109 317/791/359 315/183/110
f 320/792/343 319/793/362 318/794/251
f 321/795/287 318/796/251 319/797/362
f 320/798/343 321/799/287 319/800/362
f 321/801/287 320/802/343 318/803/251
f 323/185/363 330/804/364 334/805/365
f 329/806/366 323/185/366 333/186/366
f 327/807/367 345/808/368 350/809/369
f 327/810/370 326/82/370 344/81/370
f 343/811/371 326/812/371 349/813/371
f 327/807/367 350/809/369 348/814/372
f 346/815/373 352/816/373 328/817/373
f 329/806/374 333/186/374 332/818/374
f 330/48/52 329/819/375 332/108/53
f 331/78/376 332/820/376 340/148/376
f 340/148/377 332/820/378 334/147/379
f 330/821/364 341/38/380 334/147/365
f 336/149/82 344/822/381 351/150/83
f 347/823/382 337/824/382 346/815/382
f 345/825/368 337/40/383 351/150/384
f 343/811/385 349/813/386 351/826/384
f 346/815/387 344/81/388 347/823/389
f 344/827/381 343/828/390 351/829/83
f 345/825/368 351/150/384 350/830/369
f 351/831/384 349/832/386 350/833/369
f 356/834/267 353/835/270 354/836/268
f 353/837/270 356/838/267 355/839/269
f 353/840/270 355/841/269 354/842/268
f 356/843/267 354/844/268 355/845/269
f 360/846/391 357/847/392 359/848/393
f 357/849/392 358/850/394 359/851/393
f 357/849/392 360/852/391 358/850/394
f 360/846/391 359/848/393 358/853/394
f 361/854/395 362/855/396 364/856/397
f 361/854/395 364/856/397 363/857/398
f 362/858/396 361/859/395 363/860/398
f 362/858/396 363/860/398 364/861/397
f 367/862/391 368/863/392 365/864/399
f 367/862/391 365/864/399 366/865/400
f 368/866/392 366/867/400 365/868/399
f 368/866/392 367/869/391 366/867/400
f 370/870/396 369/871/395 371/872/398
f 369/873/395 370/874/396 372/875/397
f 369/873/395 372/875/397 371/876/398
f 370/870/396 371/872/398 372/877/397
f 374/878/401 376/879/402 373/880/403
f 375/881/404 373/882/403 376/883/402
f 375/881/404 374/884/401 373/882/403
f 374/878/401 375/885/404 376/879/402
f 377/886/405 378/887/406 379/888/407
f 377/886/405 380/889/408 378/887/406
f 380/890/408 377/891/405 379/892/407
f 380/890/408 379/892/407 378/893/406
f 381/894/409 382/895/410 383/896/409
f 382/897/410 381/898/409 383/899/409
f 386/900/411 384/901/412 385/902/411
f 384/903/412 386/904/411 385/905/411
f 388/906/413 389/907/414 387/908/414
f 389/909/414 388/910/413 387/911/414
f 121/19/415 122/128/415 124/85/415
f 122/128/416 116/453/416 124/85/416
f 116/453/417 123/167/417 124/85/417
f 123/167/418 145/169/419 124/85/419
f 125/17/420 126/912/420 120/18/420
f 124/85/421 125/17/421 121/19/421
f 152/913/422 139/44/422 146/20/422
f 146/20/423 147/116/423 148/21/423
f 148/21/424 117/83/424 149/53/425
f 149/53/426 150/55/426 151/22/426
f 151/22/427 152/913/427 146/20/427
f 148/21/428 149/53/428 151/22/428
f 202/914/429 194/915/429 195/916/429
f 202/914/430 195/916/430 196/25/430
f 199/23/431 200/917/431 201/24/431
f 201/24/432 202/914/432 196/25/432
f 196/25/433 197/918/433 199/23/433
f 197/918/434 198/919/434 199/23/434
f 220/27/435 214/66/435 215/136/435
f 215/136/436 216/28/436 220/27/436
f 216/28/437 207/920/437 219/26/437
f 207/920/438 217/170/438 219/26/438
f 217/170/439 182/172/439 218/135/439
f 219/26/440 217/170/440 218/135/440
f 253/921/441 254/922/441 255/923/441
f 255/923/442 256/924/442 248/29/442
f 249/30/443 250/683/443 251/925/443
f 253/921/444 255/923/444 248/29/444
f 249/30/445 251/925/445 252/31/445
f 252/31/446 253/921/446 248/29/446
f 274/34/415 275/139/415 277/99/415
f 275/139/447 257/102/447 277/99/447
f 257/102/448 276/179/448 277/99/448
f 276/179/449 282/181/450 277/99/451
f 278/32/452 279/926/452 260/33/452
f 277/99/421 278/32/421 274/34/421
f 322/36/453 323/185/453 324/37/453
f 324/37/454 312/146/454 325/927/454
f 325/927/455 312/928/455 326/111/455
f 327/35/456 328/929/456 322/36/456
f 324/37/457 325/927/457 327/35/457
f 325/927/458 326/111/458 327/35/458
f 342/39/435 335/79/435 336/149/435
f 336/149/459 337/40/459 342/39/459
f 337/40/460 338/930/460 341/38/460
f 338/930/461 339/182/461 341/38/461
f 339/182/462 313/184/463 340/148/464
f 341/38/465 339/182/465 340/148/465
f 194/41/466 202/931/297 193/42/296
f 139/44/467 152/913/467 145/45/467
f 328/47/468 329/819/468 330/48/468
f 246/50/469 248/932/469 256/51/469
f 149/53/470 129/471/470 130/54/470
f 138/56/471 139/487/471 120/57/471
f 186/62/472 182/933/472 198/63/472
f 220/27/473 203/934/473 204/65/473
f 196/67/474 209/593/61 210/68/60
f 272/72/475 266/710/475 260/73/475
f 312/786/356 317/105/476 316/107/477
f 332/935/378 333/936/478 334/937/379
f 342/39/479 330/938/479 331/78/479
f 312/80/480 343/939/480 344/81/480
f 124/85/481 142/940/261 141/86/259
f 143/491/482 152/941/482 151/942/482
f 181/59/483 217/943/483 207/87/483
f 183/88/484 199/944/484 198/89/484
f 193/595/485 220/602/485 219/945/485
f 277/99/486 271/946/261 270/100/335
f 281/101/487 276/179/487 257/102/487
f 286/77/488 253/947/488 252/104/488
f 317/105/489 339/948/489 338/106/489
f 330/804/20 323/185/490 322/36/21
f 330/949/491 342/950/491 341/951/491
f 348/110/492 349/952/492 327/35/492
f 130/112/56 129/953/493 118/113/57
f 136/115/494 148/21/494 147/116/494
f 269/121/495 251/954/495 250/122/495
f 350/833/369 349/832/496 348/955/372
f 338/124/497 337/956/497 345/125/497
f 185/131/498 184/957/499 200/132/500
f 253/142/501 284/677/501 285/143/501
f 120/151/502 119/958/502 118/152/502
f 212/159/503 209/610/503 215/136/503
f 267/160/504 266/689/504 249/140/504
f 347/163/505 344/822/505 336/149/505
f 137/164/506 126/466/506 125/165/506
f 208/599/307 195/94/507 194/959/508
f 273/176/506 279/712/506 278/177/506
f 323/185/363 334/805/365 333/186/509
f 328/187/510 327/960/510 352/162/510
f 33/235/137 41/250/148 32/233/136
f 39/255/135 38/246/138 36/222/131
f 119/114/511 121/961/511 122/451/511
f 130/112/512 117/452/512 148/455/512
f 138/463/513 126/912/513 125/17/513
f 143/467/244 123/962/514 124/468/245
f 140/485/515 146/963/515 147/486/515
f 150/55/516 151/22/516 152/913/516
f 152/913/517 144/46/517 150/55/517
f 218/567/283 183/564/280 180/964/126
f 180/964/518 217/965/518 218/567/518
f 187/572/100 200/132/519 182/574/101
f 200/132/520 199/133/520 198/573/520
f 201/174/521 202/587/521 200/175/521
f 202/587/522 192/966/15 206/173/289
f 210/118/308 208/605/307 194/591/508
f 194/591/523 195/967/523 196/592/523
f 219/26/524 220/27/524 218/135/524
f 220/27/525 204/65/525 218/135/525
f 212/120/526 215/968/526 216/604/526
f 254/674/527 255/969/527 256/970/527
f 256/970/528 246/193/528 254/674/528
f 283/676/529 254/144/529 253/142/529
f 252/678/530 251/971/353 283/676/107
f 267/682/531 249/30/531 250/683/531
f 261/71/532 274/972/532 275/690/532
f 272/714/533 279/926/533 278/32/533
f 277/716/352 286/680/327 280/973/373
f 280/973/534 276/974/534 277/716/534
f 340/784/357 312/783/356 316/975/477
f 316/975/518 339/976/518 340/784/518
f 325/927/535 313/789/535 324/37/535
f 329/806/536 322/36/536 323/185/536
f 344/81/388 346/815/387 328/817/537
f 344/81/538 328/817/538 327/810/538
f 341/38/539 342/39/539 340/148/539
f 342/39/540 331/78/540 340/148/540
f 347/823/541 336/977/541 337/824/541
