# Blender 4.5.0
# www.blender.org
mtllib patrol_car.lod1.mtl
o patrol_car
v 0.799242 1.419933 0.580510
v 0.799242 1.419933 -0.580510
v 1.134732 1.099120 0.671884
v 1.134732 1.099120 -0.671884
v -1.475747 1.116809 -0.671884
v -1.475747 1.116809 0.671884
v -1.125008 1.422345 0.580510
v -1.125008 1.422345 -0.580510
v -1.230150 1.053491 -0.826580
v 0.876693 1.053491 -0.826580
v -1.049563 1.400234 -0.711360
v 0.706140 1.400234 -0.711360
v -1.049563 1.400234 0.711360
v 0.706140 1.400234 0.711360
v -1.230150 1.053491 0.826580
v 0.876693 1.053491 0.826580
v 1.898492 0.280256 0.710903
v -1.889780 0.479970 -0.711588
v -1.890775 0.280256 -0.710903
v -1.890775 0.479956 0.710903
v -1.889780 0.280242 0.711588
v 1.897497 0.479970 0.711588
v 1.898492 0.479956 -0.710903
v 1.897497 0.280242 -0.711588
v 2.260189 0.530353 -0.697124
v -2.255829 0.577209 0.720191
v -2.252849 0.885889 0.708576
v -2.251768 0.565537 -0.726430
v -2.256920 0.866282 -0.724936
v 2.259036 0.520192 0.695025
v 2.020049 0.451582 0.856935
v 2.010667 0.913238 0.890859
v 2.259975 0.866128 0.698276
v 2.267782 0.867090 -0.676363
v 2.000022 0.991584 -0.851342
v 2.000287 0.445412 -0.856340
v -2.052233 0.529386 0.890300
v -2.053745 0.914548 0.890158
v -2.052628 1.021815 0.790529
v 2.010149 1.022596 0.790190
v -2.052599 0.913949 -0.890200
v -2.052307 0.421702 -0.790712
v -2.052534 0.421122 0.790081
v -2.052428 1.022671 -0.790039
v -2.053730 0.529102 -0.890169
v 1.200958 0.977002 0.822820
v -1.531823 1.033247 -0.815049
v -1.529235 0.964704 -0.816769
v 1.198138 0.981632 -0.820389
v 0.747220 0.993605 0.601531
v -1.076673 1.073350 0.700236
v 0.745950 1.076123 0.700562
v 0.756085 1.418719 0.676155
v -1.065981 1.437191 -0.668848
v 0.751164 1.429542 -0.678751
v -1.069294 1.076109 -0.700572
v 0.753180 1.073352 -0.700303
v -1.070587 0.993607 -0.601490
v -1.535197 0.969343 0.813032
v -1.530456 1.041217 0.817922
v -1.076920 1.427032 0.679410
v -0.148740 1.461364 -0.725567
v -0.194293 1.455606 -0.704385
v -0.170439 1.013692 -0.807966
v -0.174185 1.026677 -0.856644
v 0.736600 0.952986 -0.903728
v 0.584351 0.974685 -0.904541
v 0.584351 0.931287 -0.902915
v -1.019102 0.952986 -0.903728
v -1.171351 0.931287 -0.902916
v -1.171351 0.974685 -0.904540
v 0.895099 1.055415 -0.889528
v 0.895099 1.172173 -1.074227
v 0.894149 1.055073 -1.075000
v 0.737897 1.055415 -1.074226
v 0.738847 1.172515 -1.075000
v 0.737897 1.172173 -0.889528
v 0.738848 1.055073 -0.888754
v 0.894148 1.172515 -0.888754
v -2.028837 0.863630 -0.907872
v 2.036554 0.863630 -0.905595
v -2.028837 0.539816 -0.905595
v 2.036554 0.539816 -0.907872
v -0.170440 1.026809 0.856860
v -0.174186 1.013686 0.808219
v -0.148740 1.455976 0.705488
v -0.194293 1.461595 0.726707
v 0.736600 0.952986 0.903728
v 0.584351 0.931287 0.904540
v 0.584351 0.974685 0.902915
v -1.019102 0.952986 0.903728
v -1.171351 0.974685 0.902915
v -1.171351 0.931287 0.904540
v 0.737897 1.055415 0.889528
v 0.738848 1.172515 0.888754
v 0.894148 1.055074 0.888754
v 0.737897 1.172173 1.074226
v 0.738847 1.055074 1.075000
v 0.894149 1.172515 1.075000
v 0.895099 1.172173 0.889528
v 0.895099 1.055415 1.074226
v -2.028837 0.539816 0.907872
v 2.036554 0.863630 0.907872
v -2.028837 0.863630 0.905595
v 2.036554 0.539816 0.905595
v 0.138456 1.486556 0.397634
v -0.129807 1.605379 -0.398598
v -0.130739 1.486556 -0.397634
v 0.138456 1.605378 -0.397634
v -0.130739 1.605378 0.397634
v 0.137524 1.605379 0.398598
v -0.129807 1.486555 0.398598
v 0.137524 1.486555 -0.398598
v -0.078199 1.575571 -0.292667
v 0.072880 1.575443 -0.413179
v 0.053985 1.572742 -0.261881
v 0.050898 1.677171 -0.258121
v -0.019603 1.677299 -0.437927
v -0.078991 1.680000 -0.297465
v 0.093306 1.675471 -0.359015
v -0.064411 1.577271 -0.401219
v -0.078199 1.575571 0.388636
v -0.064411 1.577271 0.280084
v 0.072880 1.575443 0.268124
v 0.053985 1.572742 0.419421
v 0.050897 1.677171 0.423182
v 0.093306 1.675471 0.322287
v -0.078991 1.680000 0.383838
v -0.019603 1.677299 0.243376
v 1.047589 0.350826 -0.961434
v 1.175423 0.556437 -0.960470
v 1.667766 0.238889 -0.960280
v 1.129624 0.070179 -0.962641
v 1.492815 0.009025 -0.970621
v 1.481811 -0.000000 -0.760654
v 1.664807 0.227832 -0.761860
v 1.625249 0.466799 -0.762825
v 1.426994 0.607637 -0.763226
v 1.186926 0.564717 -0.763255
v 1.122904 0.082737 -0.752675
v 1.617785 0.478858 -0.960039
v 1.412386 0.610548 -0.960069
v 1.049079 0.362174 -0.763015
v 1.207734 0.444791 -0.974952
v 1.207258 0.153245 -0.977276
v 1.412748 0.095979 -0.976867
v 1.562125 0.248502 -0.976459
v 1.534823 0.400542 -0.976388
v 1.416200 0.500749 -0.978783
v 1.155018 0.298591 -0.977347
v 1.378099 0.464318 -0.958799
v 1.337807 0.464188 -0.980811
v 1.364858 0.302588 -0.944797
v 1.360712 0.295203 -0.945184
v 1.361859 0.296066 -0.945256
v 1.357936 0.304542 -0.949546
v 1.354745 0.295974 -0.945184
v 1.355918 0.295147 -0.945256
v 1.360171 0.298309 -0.949137
v 1.357478 0.304764 -0.945256
v 1.360171 0.299702 -0.948910
v 1.378738 0.304390 -0.956878
v 1.377372 0.299684 -0.980923
v 1.352567 0.298588 -0.996954
v 1.361770 0.295974 -0.992520
v 1.360597 0.295147 -0.992448
v 1.342849 0.294714 -0.983472
v 1.357603 0.304787 -0.992520
v 1.360622 0.299702 -0.988567
v 1.354657 0.296066 -0.992448
v 1.359806 0.298575 -0.988794
v 1.335643 0.300199 -0.971351
v 1.368018 0.321459 -0.969758
v 1.198897 0.340929 -0.990173
v 1.205416 0.361093 -0.947928
v 1.353410 0.276482 -0.966932
v 1.277723 0.154841 -0.978902
v 1.371843 0.284223 -0.981325
v 1.375546 0.283958 -0.964247
v 1.245204 0.178671 -0.956890
v 1.340333 0.311307 -0.965267
v 1.338491 0.307744 -0.956992
v 1.340413 0.281904 -0.967940
v 1.382586 0.311079 -0.967700
v 1.371087 0.309040 -0.959709
v 1.371041 0.309007 -0.980875
v 1.437878 0.154207 -0.979889
v 1.472088 0.179131 -0.958756
v 1.511372 0.360187 -0.990172
v 1.363126 0.276353 -0.969758
v 1.348555 0.321341 -0.966933
v 1.517930 0.340034 -0.947927
v 1.047589 0.350826 0.761860
v 1.412387 0.610548 0.763226
v 1.129624 0.070179 0.760654
v 1.617785 0.478858 0.763256
v 1.667766 0.238889 0.763015
v 1.492815 0.009025 0.752674
v 1.625249 0.466799 0.960470
v 1.426994 0.607637 0.960069
v 1.049079 0.362174 0.960279
v 1.481811 0.000000 0.962640
v 1.122904 0.082737 0.970620
v 1.664808 0.227832 0.961435
v 1.186926 0.564717 0.960039
v 1.175423 0.556437 0.762825
v 1.155018 0.300813 0.977347
v 1.207258 0.446159 0.977276
v 1.412748 0.503425 0.976867
v 1.207734 0.154613 0.974952
v 1.562125 0.350902 0.976459
v 1.416200 0.098655 0.978783
v 1.534823 0.198862 0.976388
v 1.333357 0.303602 0.967922
v 1.357267 0.297231 0.937686
v 1.357798 0.299702 0.950279
v 1.357603 0.304787 0.945184
v 1.359240 0.298660 0.944911
v 1.360597 0.295147 0.945256
v 1.359792 0.300819 0.948920
v 1.364076 0.301059 0.942552
v 1.359157 0.302270 0.944356
v 1.382080 0.461286 0.969969
v 1.338635 0.468029 0.974049
v 1.358929 0.456503 0.945193
v 1.373423 0.296491 0.984499
v 1.381482 0.302763 0.973209
v 1.378455 0.304787 0.956451
v 1.342845 0.294661 0.983469
v 1.368018 0.321459 0.967947
v 1.198897 0.340929 0.947531
v 1.205416 0.361094 0.989776
v 1.353410 0.276482 0.970773
v 1.338345 0.310449 0.971189
v 1.339364 0.307862 0.981325
v 1.358912 0.304787 0.992520
v 1.357478 0.304765 0.992448
v 1.360712 0.295204 0.992520
v 1.356227 0.298225 0.988558
v 1.361542 0.302902 0.993348
v 1.358693 0.299386 0.998416
v 1.269332 0.170423 0.947060
v 1.263686 0.170476 0.945494
v 1.371843 0.284223 0.956379
v 1.374082 0.282595 0.968872
v 1.279076 0.154597 0.974122
v 1.371877 0.283389 0.980864
v 1.255114 0.163536 0.986024
v 1.338519 0.307563 0.956919
v 1.338399 0.287223 0.973485
v 1.437234 0.154118 0.959391
v 1.472088 0.179131 0.978948
v 1.377151 0.307862 0.956379
v 1.377716 0.311101 0.977984
v 1.348555 0.321341 0.970771
v 1.363126 0.276353 0.967947
v 1.517930 0.340034 0.989777
v 1.511372 0.360187 0.947532
v -1.579175 0.070180 -0.962641
v -1.661210 0.350826 -0.961434
v -1.533375 0.556437 -0.960470
v -1.296412 0.610548 -0.960069
v -1.091013 0.478858 -0.960039
v -1.041033 0.238888 -0.960280
v -1.215983 0.009025 -0.970620
v -1.226987 -0.000000 -0.760654
v -1.083550 0.466799 -0.762825
v -1.281804 0.607637 -0.763226
v -1.585894 0.082737 -0.752675
v -1.043991 0.227832 -0.761860
v -1.521873 0.564717 -0.763255
v -1.659719 0.362173 -0.763015
v -1.501539 0.153245 -0.977276
v -1.296051 0.095979 -0.976867
v -1.501064 0.444791 -0.974952
v -1.146674 0.248501 -0.976459
v -1.292598 0.500749 -0.978783
v -1.173976 0.400542 -0.976388
v -1.553780 0.298591 -0.977347
v -1.330698 0.464319 -0.958802
v -1.370990 0.464187 -0.980813
v -1.343940 0.302588 -0.944797
v -1.348087 0.295203 -0.945184
v -1.346940 0.296066 -0.945256
v -1.351561 0.308910 -0.947406
v -1.354053 0.295974 -0.945184
v -1.352880 0.295147 -0.945256
v -1.348627 0.298309 -0.949137
v -1.351320 0.304764 -0.945256
v -1.348627 0.299702 -0.948910
v -1.330060 0.304390 -0.956879
v -1.329141 0.300562 -0.975875
v -1.372720 0.298714 -0.974763
v -1.363533 0.300066 -0.979790
v -1.503382 0.361093 -0.947928
v -1.509902 0.340928 -0.990173
v -1.340779 0.321458 -0.969756
v -1.355388 0.276482 -0.966932
v -1.332556 0.283449 -0.965427
v -1.336675 0.283946 -0.981167
v -1.430710 0.154958 -0.979948
v -1.463594 0.178671 -0.956890
v -1.370720 0.309246 -0.970006
v -1.368185 0.275377 -0.971094
v -1.363757 0.290083 -0.978272
v -1.325006 0.309907 -0.967969
v -1.325736 0.313511 -0.968012
v -1.351195 0.304787 -0.992520
v -1.349761 0.304764 -0.992448
v -1.352483 0.299702 -0.988280
v -1.350976 0.299385 -0.998416
v -1.350031 0.305664 -0.995152
v -1.348132 0.296051 -0.993009
v -1.348992 0.298575 -0.988794
v -1.236710 0.179130 -0.958755
v -1.252392 0.160097 -0.988310
v -1.255288 0.175028 -0.990644
v -1.360242 0.321342 -0.966932
v -1.197425 0.360188 -0.990172
v -1.345672 0.276353 -0.969758
v -1.190868 0.340035 -0.947927
v -1.579175 0.070180 0.760654
v -1.661210 0.350826 0.761860
v -1.533375 0.556437 0.762825
v -1.296412 0.610548 0.763226
v -1.226987 0.000000 0.962640
v -1.043991 0.227832 0.961435
v -1.083550 0.466799 0.960470
v -1.281804 0.607637 0.960069
v -1.521873 0.564717 0.960039
v -1.585894 0.082737 0.970620
v -1.215983 0.009025 0.752674
v -1.041033 0.238889 0.763015
v -1.091013 0.478858 0.763256
v -1.659719 0.362174 0.960279
v -1.553780 0.300813 0.977347
v -1.501064 0.154613 0.974952
v -1.173976 0.198862 0.976388
v -1.292598 0.098655 0.978783
v -1.146674 0.350903 0.976459
v -1.296051 0.503425 0.976867
v -1.501539 0.446159 0.977276
v -1.365953 0.294661 0.983469
v -1.375440 0.303602 0.967923
v -1.335376 0.296492 0.984498
v -1.327316 0.302765 0.973209
v -1.326717 0.461286 0.969967
v -1.349869 0.456503 0.945193
v -1.370162 0.468029 0.974049
v -1.330343 0.304787 0.956451
v -1.351531 0.297230 0.937686
v -1.351001 0.299702 0.950279
v -1.351195 0.304787 0.945184
v -1.349558 0.298660 0.944911
v -1.348201 0.295147 0.945256
v -1.349007 0.300819 0.948920
v -1.344723 0.301059 0.942552
v -1.349642 0.302270 0.944356
v -1.355389 0.276482 0.970773
v -1.340779 0.321458 0.967949
v -1.503382 0.361094 0.989777
v -1.509902 0.340928 0.947531
v -1.370453 0.310449 0.971190
v -1.369434 0.307862 0.981325
v -1.336921 0.283389 0.980864
v -1.334717 0.282595 0.968873
v -1.439466 0.170423 0.947060
v -1.445112 0.170476 0.945494
v -1.429722 0.154597 0.974122
v -1.336955 0.284223 0.956379
v -1.453684 0.163536 0.986024
v -1.349886 0.304787 0.992520
v -1.351320 0.304765 0.992448
v -1.348087 0.295204 0.992520
v -1.352571 0.298225 0.988558
v -1.347256 0.302902 0.993348
v -1.350105 0.299386 0.998416
v -1.370279 0.307563 0.956919
v -1.370400 0.287223 0.973486
v -1.236710 0.179130 0.978949
v -1.331647 0.307862 0.956379
v -1.331083 0.311101 0.977984
v -1.271565 0.154118 0.959391
v -1.345672 0.276353 0.967947
v -1.360242 0.321342 0.970773
v -1.197425 0.360188 0.947532
v -1.190868 0.340035 0.989777
v 2.287678 0.899017 -0.707482
v 2.284866 0.725540 -0.707482
v 2.284866 0.899017 -0.398232
v 2.287678 0.725540 -0.398232
v -2.279963 0.949461 -0.408567
v -2.279964 0.765551 -0.697147
v -2.249348 0.941120 -0.685477
v -2.307500 0.773588 -0.419613
v -2.249348 0.773892 -0.420237
v -2.307500 0.941424 -0.686101
v 2.284866 0.899017 0.707482
v 2.287678 0.725540 0.707482
v 2.284866 0.725540 0.398232
v 2.287678 0.899017 0.398232
v -2.249348 0.941120 0.420236
v -2.249348 0.773892 0.685477
v -2.279963 0.949461 0.697146
v -2.279963 0.765551 0.408567
v -2.307500 0.941424 0.419613
v -2.307500 0.773588 0.686101
v 2.303746 0.621348 -0.303904
v 2.298894 0.621348 0.303904
v 2.298894 0.500683 -0.303904
v 2.303746 0.500683 0.303904
v -2.297565 0.642526 -0.159864
v -2.299675 0.642526 0.159864
v -2.297565 0.509657 0.159864
v -2.299675 0.509657 -0.159864
v 2.313360 0.643932 0.408553
v 2.314500 0.657594 -0.402362
v 2.312220 0.630271 -0.402362
v 2.314500 0.690574 0.402362
v 2.313360 0.704235 -0.408553
v 2.312220 0.717897 0.402362
v 2.314500 0.750877 0.402362
v 2.313360 0.764539 -0.408553
v 2.312220 0.778201 0.402362
vn 0.6911 0.7227 -0.0000
vn -0.6568 0.7540 -0.0000
vn -0.0000 0.3153 -0.9490
vn -0.0000 0.3153 0.9490
vn 0.0191 -0.6364 -0.7711
vn 0.1139 0.7367 -0.6665
vn -0.9991 0.0033 0.0415
vn 0.5478 0.8252 0.1377
vn -0.0279 0.8550 -0.5178
vn -0.9991 0.0034 0.0414
vn 0.5478 0.8252 0.1376
vn 0.3567 -0.9057 0.2289
vn 0.4207 -0.7086 -0.5664
vn 0.3163 -0.9388 0.1366
vn -0.8665 -0.2672 -0.4217
vn 0.7318 0.5265 0.4328
vn 0.7035 0.5067 0.4983
vn 0.8091 0.5778 -0.1078
vn 0.8023 -0.5965 -0.0242
vn 0.8024 -0.5964 -0.0205
vn 0.7797 -0.5876 -0.2164
vn 0.3776 -0.9033 0.2034
vn 0.7201 0.2717 -0.6384
vn 0.3936 0.5536 0.7339
vn 0.1834 -0.9661 0.1819
vn 0.6310 -0.2756 0.7252
vn -0.2769 0.9316 -0.2353
vn -0.3095 -0.8827 -0.3537
vn 0.5700 0.3309 0.7521
vn 0.7921 0.3414 -0.5059
vn 0.4536 -0.6239 0.6364
vn 0.3168 -0.9424 0.1074
vn 0.6310 -0.2755 0.7252
vn -0.2768 0.9316 -0.2354
vn -0.0002 0.9185 0.3954
vn 0.6975 -0.6093 0.3771
vn -0.3867 -0.8876 0.2504
vn 0.7937 -0.5808 -0.1811
vn 0.0872 -0.0327 0.9957
vn -0.1584 0.0015 -0.9874
vn -0.7800 0.3681 0.5061
vn 0.0873 -0.0327 0.9956
vn -0.1585 0.0015 -0.9874
vn -0.7800 0.3681 0.5060
vn 0.3755 0.6104 0.6975
vn -0.1484 0.9882 0.0367
vn -0.1754 0.9845 -0.0012
vn -0.7732 0.6341 0.0089
vn 0.3231 0.9284 -0.1838
vn -0.1897 0.9619 -0.1969
vn -0.8424 -0.0094 -0.5388
vn 0.3231 0.9283 -0.1838
vn 0.7814 -0.0482 0.6222
vn 0.6607 -0.4196 -0.6224
vn 0.0009 -0.0883 -0.9961
vn 0.9839 -0.0077 -0.1786
vn 0.9840 -0.0074 -0.1783
vn -0.0516 0.1060 0.9930
vn -0.2983 0.1840 -0.9366
vn 0.0137 -0.0922 -0.9956
vn 0.0136 -0.0922 -0.9956
vn -0.6519 -0.7443 0.1447
vn -0.5746 0.2731 -0.7715
vn -0.5991 0.2813 -0.7496
vn -0.3241 -0.2664 -0.9077
vn 0.9839 -0.0074 -0.1786
vn 0.0137 -0.0923 -0.9956
vn 0.0136 -0.0923 -0.9956
vn 0.6860 -0.0303 0.7269
vn 0.4861 0.3641 -0.7944
vn 0.8420 0.2881 -0.4561
vn 0.3549 -0.7005 -0.6191
vn 0.6910 -0.0436 0.7216
vn -0.2986 0.9515 -0.0741
vn 0.8420 0.2880 -0.4561
vn -0.0132 0.0716 -0.9973
vn -0.4958 0.8336 -0.2434
vn 0.5166 0.1248 -0.8471
vn -0.1985 0.0880 0.9761
vn -0.5441 0.3891 0.7433
vn -0.0053 -0.0944 0.9955
vn 0.0872 0.9673 0.2381
vn 0.4302 0.3138 0.8464
vn -0.3603 0.0237 -0.9325
vn -0.6062 -0.0284 -0.7948
vn 0.0513 0.0795 -0.9955
vn -0.2082 0.0973 0.9732
vn -0.5828 0.4510 0.6759
vn 0.0872 0.9673 0.2382
vn 0.7797 -0.5876 -0.2163
vn -0.8687 0.4947 0.0248
vn -0.8410 0.4978 0.2117
vn 0.7089 -0.0005 -0.7054
vn 0.7089 0.0005 0.7054
vn 0.7050 -0.0012 -0.7092
vn -0.0000 -1.0000 -0.0000
vn 0.7050 0.0012 0.7092
vn -0.7050 -0.0012 0.7092
vn -0.0000 1.0000 -0.0000
vn -0.7050 0.0012 -0.7092
vn -0.7089 0.0005 -0.7054
vn -0.7089 -0.0005 0.7054
vn 0.7815 -0.4860 -0.3912
vn 0.8427 0.3918 0.3691
vn 0.7792 -0.5101 0.3642
vn 0.8654 0.0114 -0.5009
vn 0.5444 0.0272 -0.8384
vn 0.5579 -0.5460 -0.6250
vn -0.2386 0.2671 0.9336
vn -0.6761 0.0342 0.7360
vn -0.8675 -0.3565 0.3470
vn -0.8799 -0.3577 -0.3127
vn -1.0000 0.0061 -0.0021
vn -0.3260 -0.3395 0.8823
vn -0.6067 0.5444 0.5793
vn -0.3167 -0.8699 0.3781
vn -0.5850 -0.8110 -0.0004
vn -0.8650 0.3582 -0.3513
vn -0.3122 0.8709 -0.3796
vn -0.5661 0.8243 -0.0005
vn -0.5618 0.8273 0.0004
vn -0.3181 0.3389 -0.8854
vn 0.5849 -0.5378 0.6072
vn 0.0099 -0.7333 0.6798
vn 0.0068 -1.0000 0.0011
vn 0.0059 -1.0000 0.0035
vn 0.3055 0.3129 0.8993
vn 0.3786 0.7642 0.5221
vn 0.4417 0.8970 -0.0175
vn 0.4321 0.9016 -0.0197
vn 0.0023 0.9995 -0.0311
vn 0.0090 -0.0071 -0.9999
vn 0.0094 0.0092 -0.9999
vn -0.0079 -0.6795 -0.7336
vn -0.2241 -0.2584 -0.9397
vn -0.0001 0.6805 0.7327
vn 0.0052 1.0000 -0.0053
vn -0.0002 0.9998 -0.0189
vn -0.5889 -0.5533 -0.5891
vn 0.6822 -0.3192 0.6578
vn -0.2432 0.0761 0.9670
vn -0.1641 -0.3687 0.9149
vn -0.0678 -0.9620 0.2645
vn -0.0687 -0.8818 -0.4665
vn 0.6604 -0.3583 -0.6600
vn 0.2326 0.0792 -0.9693
vn -0.4693 -0.6002 -0.6477
vn -0.6279 0.3396 -0.7003
vn 0.2322 0.0830 -0.9691
vn 0.7061 0.7081 0.0018
vn 0.5781 0.7062 -0.4089
vn -0.2491 0.0571 -0.9668
vn 0.0765 -0.8789 0.4709
vn 0.0799 -0.9606 -0.2664
vn -0.4753 -0.6175 0.6268
vn 0.0031 0.7333 0.6799
vn 0.0044 0.7240 0.6898
vn 0.0044 1.0000 0.0078
vn -0.6522 0.7581 -0.0018
vn -0.5554 0.3303 0.7631
vn -0.6479 0.7618 0.0005
vn 0.0043 1.0000 0.0076
vn 0.1228 -0.5293 -0.8395
vn -0.0004 0.0842 -0.9964
vn -0.0052 0.0604 -0.9982
vn 0.2389 0.0440 0.9700
vn 0.2262 0.0574 0.9724
vn 0.0408 -0.9431 0.3301
vn -0.0436 -0.6525 -0.7565
vn 0.5087 0.8607 -0.0222
vn -0.5078 0.7345 0.4502
vn -0.0000 -0.0779 -0.9970
vn -0.0000 -0.0933 -0.9956
vn -1.0000 -0.0000 -0.0000
vn 0.5724 -0.5792 -0.5804
vn 0.5814 -0.5766 0.5740
vn -0.5724 -0.5792 0.5804
vn 0.5814 0.5766 -0.5740
vn 0.5724 0.5792 0.5804
vn -0.5724 0.5792 -0.5804
vn -0.5814 -0.5766 -0.5740
vn -0.5814 0.5766 0.5740
vn 0.8312 0.5557 0.0164
vn -0.8310 0.5561 -0.0165
vn -0.8312 -0.5557 0.0165
vn 0.8310 -0.5561 -0.0164
vn -0.0435 -0.9430 -0.3300
vn 0.0409 -0.6526 0.7566
vn -0.5074 0.8614 0.0245
vn 0.5091 0.7350 -0.4478
vn -0.0000 -0.9989 0.0478
vn -0.0000 -0.9982 0.0603
vn -0.0000 -0.0000 -0.0000
vn 0.0175 0.9998 -0.0000
vn 0.0174 0.9998 -0.0000
vn -0.8313 0.5555 -0.0165
vn 0.8313 -0.5555 -0.0166
vn -0.8309 -0.5562 0.0165
vn 0.8309 0.5562 0.0165
vn 0.7116 0.0012 -0.7026
vn 0.7037 0.0028 0.7105
vn 0.7116 -0.0012 0.7026
vn 0.7037 -0.0028 -0.7105
vn -0.7037 -0.0028 0.7105
vn -0.7037 0.0028 -0.7105
vn -0.7116 -0.0012 -0.7026
vn -0.7116 0.0012 0.7026
vn 0.4151 -0.6155 0.6700
vn 0.5840 -0.5712 -0.5768
vn 0.8054 0.5744 -0.1460
vn -0.6726 -0.5803 0.4592
vn 0.3529 0.5804 0.7339
vn -0.2173 0.5713 -0.7915
vn -0.6945 0.6154 0.3727
vn -0.6245 -0.5744 -0.5292
vn -0.7713 0.1022 -0.6282
vn -0.5320 -0.5950 -0.6024
vn -0.5443 -0.5426 0.6397
vn -0.9859 0.1671 0.0101
vn 0.1304 0.7641 -0.6318
vn -0.4520 0.6290 -0.6325
vn -0.4193 0.6526 0.6311
vn 0.6371 0.4424 -0.6311
vn -0.0006 0.0161 -0.9999
vn 0.9749 -0.2224 -0.0101
vn 0.6582 0.4082 0.6326
vn 0.7518 -0.2004 0.6282
vn 0.2951 -0.7097 -0.6397
vn 0.2637 -0.7534 0.6023
vn 0.1723 0.7557 0.6318
vn 0.0067 0.0146 0.9999
vn -0.7011 0.7128 0.0201
vn 0.2589 -0.9659 -0.0000
vn 0.9153 -0.4027 0.0036
vn 0.9153 0.4026 0.0118
vn 0.2506 0.9679 -0.0201
vn -0.5915 -0.8063 -0.0037
vn -0.9940 -0.1085 -0.0118
vn 0.7301 -0.4890 0.4773
vn 0.8806 0.0092 0.4738
vn 0.3812 0.0126 0.9244
vn -0.2372 0.9635 -0.1237
vn -0.7212 -0.0106 -0.6927
vn -0.8629 -0.0177 -0.5050
vn -0.7262 0.1363 0.6738
vn 0.3796 0.4687 0.7976
vn 0.8872 -0.4212 0.1884
vn -0.0746 -0.9932 -0.0895
vn -0.0116 -0.9999 0.0032
vn -0.0139 -0.9999 -0.0069
vn -0.7150 0.5171 0.4705
vn 0.8276 0.5613 -0.0019
vn 0.5210 0.4044 0.7517
vn 0.8984 -0.3730 0.2317
vn -0.4745 -0.4464 0.7586
vn 0.0815 -0.9687 -0.2345
vn -0.7709 0.1521 0.6185
vn 0.5542 0.8279 0.0862
vn 0.4135 0.8869 0.2061
vn 0.6135 0.7896 -0.0093
vn 0.4419 -0.4948 0.7483
vn -0.5552 -0.7635 -0.3299
vn -0.7917 -0.6089 0.0492
vn 0.9630 -0.2696 -0.0020
vn -0.1942 -0.9474 -0.2545
vn 0.5725 0.3228 -0.7537
vn 0.2877 -0.2267 -0.9305
vn 0.6101 0.7885 0.0783
vn -0.6953 0.6905 -0.1995
vn -0.6886 0.3317 -0.6448
vn -0.7364 0.3454 -0.5817
vn -0.5805 -0.4105 -0.7032
vn -0.4234 -0.3081 -0.8520
vn 0.5691 -0.8212 0.0420
vn 0.9444 0.3268 -0.0355
vn -0.6744 0.5045 0.5391
vn -0.8385 -0.0075 -0.5448
vn -0.8084 0.5843 0.0717
vn -0.6626 0.7490 0.0003
vn -0.9431 0.3297 0.0421
vn -0.5719 -0.8196 -0.0355
vn 0.8420 -0.0111 0.5394
vn 0.6737 0.4996 -0.5445
vn -0.7011 -0.7127 -0.0201
vn -0.9940 0.1085 0.0118
vn -0.5915 0.8063 0.0036
vn 0.2589 0.9659 -0.0000
vn 0.9153 0.4027 -0.0036
vn 0.9153 -0.4026 -0.0118
vn 0.2506 -0.9679 0.0201
vn -0.9990 0.0332 -0.0296
vn -0.7108 0.0209 0.7031
vn -0.8838 0.0168 -0.4676
vn -0.7036 0.0437 -0.7092
vn 0.4754 -0.0041 -0.8798
vn -0.5718 0.8146 0.0973
vn -0.5197 0.8543 0.0079
vn -0.5206 0.8536 0.0191
vn 0.5993 0.7444 0.2944
vn -0.4099 0.2956 -0.8629
vn -0.7865 -0.5996 0.1479
vn -0.6533 -0.4182 -0.6311
vn 0.0639 -0.9712 -0.2297
vn 0.3878 -0.3796 -0.8399
vn 0.3270 -0.3539 -0.8763
vn -0.0987 -0.9946 0.0330
vn -0.3319 -0.9070 -0.2593
vn -0.0301 -0.9927 0.1165
vn 0.4510 0.1766 -0.8749
vn 0.6224 -0.7814 -0.0452
vn -0.4964 -0.1072 0.8614
vn 0.6621 0.0312 0.7487
vn 0.8115 0.0089 0.5842
vn 0.2236 0.6050 0.7642
vn 0.7259 0.0425 -0.6865
vn -0.5390 0.0326 0.8417
vn 0.4589 0.0598 0.8865
vn 0.1714 0.6728 0.7197
vn -0.0253 -0.9971 0.0721
vn 0.5691 -0.8212 0.0421
vn 0.9444 0.3267 -0.0355
vn -0.4119 0.2688 0.8707
vn 0.4009 -0.3335 0.8532
vn -0.3832 -0.4030 0.8311
vn -0.5000 -0.4613 0.7329
vn -0.7153 0.5208 0.4659
vn 0.6040 0.7860 -0.1321
vn -0.6820 -0.4671 0.5627
vn -0.8697 0.4832 -0.1012
vn 0.7928 -0.5809 0.1843
vn -0.9432 0.3297 0.0421
vn -0.5915 -0.8063 -0.0036
vn 0.7131 -0.4763 0.5145
vn 0.8106 0.0103 0.5855
vn 0.3813 0.0126 0.9244
vn 0.6095 0.1323 -0.7816
vn -0.0521 0.9260 0.3739
vn -0.2886 0.9157 -0.2798
vn 0.6375 0.1402 -0.7576
vn 0.8031 -0.4004 0.4413
vn -0.0224 -0.9946 -0.1015
vn 0.0422 -0.9991 -0.0044
vn 0.0423 -0.9991 -0.0013
vn -0.5627 0.4328 0.7043
vn 0.8293 0.5585 -0.0191
vn 0.5217 0.4052 0.7508
vn 0.8290 0.5592 -0.0082
vn -0.4357 -0.5388 0.7210
vn -0.7656 0.1336 0.6293
vn -0.8146 0.1528 0.5595
vn 0.4959 0.8650 0.0762
vn 0.3275 0.9340 0.1428
vn 0.5611 0.8276 -0.0145
vn -0.8411 0.4197 0.3411
vn 0.4307 -0.4762 0.7666
vn 0.4480 -0.4998 0.7413
vn -0.5450 -0.8060 -0.2310
vn -0.7093 -0.6999 -0.0838
vn 0.9593 -0.2642 0.0996
vn -0.2515 -0.8622 -0.4396
vn -0.5874 -0.0317 -0.8087
vn -0.4768 -0.0271 -0.8786
vn 0.0290 -0.6445 -0.7641
vn 0.8392 -0.0188 -0.5435
vn 0.9674 0.0182 -0.2526
vn 0.6522 -0.4810 -0.5859
vn 0.5404 0.8270 0.1552
vn 0.4690 -0.3496 -0.8111
vn -0.6489 0.5176 0.5578
vn -0.5298 0.8477 0.0275
vn -0.5270 0.8498 0.0125
vn -0.5339 0.8440 0.0511
vn -0.4739 -0.3558 -0.8055
vn 0.7770 -0.2639 -0.5715
vn 0.7018 0.5291 -0.4770
vn -0.0986 -0.9946 0.0330
vn -0.8838 0.0168 -0.4675
vn -0.3320 -0.9069 -0.2594
vn -0.9990 0.0332 -0.0295
vn 0.4590 0.0598 0.8864
vn 0.2236 0.6050 0.7641
vn 0.8115 0.0089 0.5843
vn -0.5718 0.8146 0.0974
vn -0.7865 -0.5996 0.1480
vn 0.3878 -0.3796 -0.8400
vn -0.7037 0.0436 -0.7092
vn -0.4964 -0.1073 0.8614
vn 0.6040 0.7859 -0.1321
vn 0.7928 -0.5809 0.1842
vn -0.4999 -0.4613 0.7330
vn -0.7152 0.5210 0.4660
vn 0.0106 0.6520 -0.7581
vn 0.0106 -0.6520 0.7581
vn -0.0106 -0.6520 -0.7581
vn -0.0106 0.6520 0.7581
vn -0.9685 0.1669 0.1848
vn -0.9685 -0.1669 -0.1848
vn -0.6587 -0.5330 0.5310
vn -0.6587 0.5330 -0.5310
vn 0.0111 0.7342 -0.6789
vn 0.9984 -0.0477 -0.0301
vn 0.9810 0.1642 0.1035
vn 0.9984 0.0477 0.0301
vn 0.9810 -0.1642 -0.1035
vn 0.0111 -0.7342 0.6789
vn -0.0107 0.6520 0.7581
vn 0.0107 -0.6520 0.7581
vn -0.0107 -0.6520 -0.7581
vn 0.0224 0.5828 -0.8123
vn -0.0224 0.5828 0.8123
vn 0.0224 -0.5828 0.8123
vn -0.0224 -0.5828 -0.8123
vn 0.0067 0.6272 -0.7789
vn 0.0067 -0.6272 0.7789
vn -0.0067 -0.6272 -0.7789
vn -0.0067 0.6272 0.7789
vn 0.3843 0.3843 -0.8394
vn 0.2871 0.3947 -0.8728
vn -0.0000 -0.4424 -0.8968
vn -0.0000 -0.4375 -0.8992
vn -0.0000 -0.4571 -0.8894
vn -0.0000 -0.4579 -0.8890
vn 0.7311 -0.3809 -0.5660
vn 0.0092 0.0717 0.9974
vn 0.0032 0.4528 0.8916
vn -0.0137 -0.1064 0.9942
vn 0.7153 -0.1160 0.6892
vn -0.7159 0.1161 -0.6885
vn -0.4128 -0.8345 0.3649
vn -0.4604 0.5954 -0.6584
vn -0.1443 -0.9328 -0.3302
vn -0.6074 0.1989 -0.7691
vn 0.3769 -0.4187 -0.8262
vn 0.3769 -0.4189 -0.8261
vn 0.3768 -0.4191 -0.8261
vn 0.6217 -0.2163 -0.7528
vn 0.9177 0.2585 -0.3016
vn 0.8973 0.3166 -0.3076
vn -0.8956 -0.3241 0.3047
vn 0.0224 -0.8007 0.5986
vn -0.0356 -0.5059 0.8619
vn -0.2007 -0.4722 0.8583
vn -0.4186 0.4290 0.8005
vn -0.1051 0.7302 0.6751
vn -0.1054 0.7300 0.6753
vn -0.1053 0.7301 0.6752
vn 0.6752 0.3714 0.6373
vn -0.4766 -0.3035 0.8251
vn 0.0092 0.0713 0.9974
vn 0.0078 0.1678 0.9858
vn -0.0137 -0.1063 0.9942
vn 0.2482 -0.8079 0.5346
vn -0.6676 -0.1938 -0.7189
vn 0.0453 0.7374 -0.6739
vn 0.9167 -0.3711 0.1479
vn 0.9067 -0.2936 0.3027
vn -0.8441 -0.2700 -0.4632
vn 0.9177 0.2585 -0.3017
vn -0.8956 -0.3241 0.3048
vn 0.0225 -0.8007 0.5987
vn -0.0360 -0.5060 0.8618
vn -0.1049 0.7303 0.6750
vn -0.1054 0.7302 0.6750
vn -0.1053 0.7303 0.6750
vn 0.6752 0.3714 0.6374
vn 0.2974 -0.9331 0.2024
vn 0.1195 0.9481 -0.2947
vn 0.2710 -0.9475 0.1700
vn 0.7961 0.5826 -0.1636
vn 0.4838 0.3736 0.7914
vn 0.2820 -0.9451 -0.1650
vn 0.9677 -0.1666 0.1890
vn -0.3234 0.9370 -0.1320
vn 0.5077 0.8550 -0.1059
vn 0.9721 0.1955 -0.1294
vn 0.9768 0.1989 0.0798
vn 0.6038 0.1317 0.7862
vn 0.2819 -0.9452 -0.1649
vn 0.9678 -0.1665 0.1889
vn -0.5115 -0.6649 0.5443
vn -0.2335 0.5088 0.8286
vn -0.0559 0.8580 -0.5106
vn -0.8166 0.0072 -0.5771
vn 0.3435 -0.2748 0.8980
vn -0.7943 0.2461 -0.5555
vn -0.5350 -0.6628 0.5239
vn -0.1753 0.8780 -0.4454
vn -0.8582 0.3324 -0.3911
vn -0.1754 0.8780 -0.4455
vn 0.2604 -0.1968 -0.9452
vn -0.2277 -0.1933 -0.9544
vn 0.7458 0.0621 -0.6633
vn 0.8400 0.5365 -0.0809
vn 0.8398 0.5368 -0.0809
vn 0.8399 0.5367 -0.0809
vn 0.5657 0.1049 -0.8179
vn 0.8399 0.5368 -0.0806
vn -0.7856 0.4172 0.4569
vn -0.5246 -0.6126 -0.5913
vn -0.0985 0.8427 0.5294
vn -0.8379 0.4547 0.3020
vn -0.5246 -0.6125 -0.5913
vn -0.7192 0.1125 -0.6856
vn -0.4211 0.1462 -0.8952
vn 0.0675 0.8158 0.5744
vn -0.6683 0.7427 0.0422
vn 0.1723 -0.1478 0.9739
vn -0.4151 -0.6991 -0.5822
vn -0.6480 0.3310 0.6859
vn -0.4167 0.1198 0.9011
vn -0.5461 0.7398 -0.3931
vn 0.3598 -0.6535 -0.6659
vn -0.3633 -0.8220 -0.4386
vn 0.1306 0.5510 -0.8242
vn 0.4598 0.1869 -0.8681
vn 0.0091 -0.9934 0.1147
vn -0.8367 -0.0985 -0.5387
vn -0.6535 0.0223 0.7566
vn -0.7191 0.1127 -0.6857
vn -0.4212 0.1467 -0.8950
vn -0.0239 0.8749 0.4838
vn -0.5228 0.8524 -0.0089
vn 0.1720 -0.1475 0.9740
vn -0.4661 -0.4940 -0.7340
vn 0.7969 0.5759 -0.1822
vn 0.5869 0.3446 -0.7327
vn -0.9023 -0.0840 0.4229
vn 0.0092 -0.9934 0.1147
vn -0.3633 -0.8220 -0.4385
vn -0.6535 0.0228 0.7566
vt 0.581239 0.732534
vt 0.581239 0.857402
vt 0.545227 0.867550
vt 0.545227 0.723028
vt 0.535787 0.723028
vt 0.535787 0.867550
vt 0.498092 0.857417
vt 0.498092 0.732550
vt 0.158451 0.698619
vt 0.158451 0.863020
vt 0.122219 0.838666
vt 0.122219 0.701665
vt 0.443035 0.726939
vt 0.443035 0.860485
vt 0.406008 0.883282
vt 0.406008 0.723028
vt 0.738367 0.388472
vt 0.738711 0.388885
vt 0.739063 0.388813
vt 0.959758 0.270729
vt 0.959922 0.270491
vt 0.960172 0.270925
vt 0.932707 0.076031
vt 0.932164 0.075924
vt 0.931588 0.075654
vt 0.839783 0.396324
vt 0.838392 0.396906
vt 0.839904 0.396114
vt 0.765634 0.388472
vt 0.765977 0.388885
vt 0.766329 0.388813
vt 0.895132 0.396143
vt 0.894711 0.396067
vt 0.895427 0.395955
vt 0.751990 0.954730
vt 0.751447 0.954623
vt 0.750871 0.954353
vt 0.867175 0.396324
vt 0.865784 0.396906
vt 0.867296 0.396114
vt 0.977959 0.182444
vt 0.981498 0.182181
vt 0.981316 0.182828
vt 0.896224 0.981460
vt 0.898939 0.980484
vt 0.896212 0.981950
vt 0.213438 0.973660
vt 0.213363 0.988425
vt 0.213294 0.973582
vt 0.440807 0.964738
vt 0.438618 0.980014
vt 0.440824 0.964958
vt 0.966426 0.349103
vt 0.970080 0.348799
vt 0.969898 0.349446
vt 0.985723 0.478210
vt 0.987745 0.478882
vt 0.984682 0.478739
vt 0.983043 0.397041
vt 0.981083 0.399175
vt 0.980614 0.398754
vt 0.963727 0.852747
vt 0.964310 0.854994
vt 0.963727 0.857095
vt 0.838217 0.398530
vt 0.840412 0.396651
vt 0.727963 0.982532
vt 0.730678 0.981556
vt 0.727951 0.983023
vt 0.932528 0.076219
vt 0.933021 0.078186
vt 0.896652 0.397133
vt 0.895266 0.396076
vt 0.951209 0.079370
vt 0.953533 0.077630
vt 0.953922 0.078127
vt 0.899446 0.410131
vt 0.901475 0.409700
vt 0.899153 0.410515
vt 0.949808 0.852747
vt 0.950392 0.854994
vt 0.949808 0.857095
vt 0.865610 0.398530
vt 0.867804 0.396651
vt 0.751811 0.954919
vt 0.752304 0.956885
vt 0.407300 0.976140
vt 0.406486 0.974070
vt 0.408217 0.975568
vt 0.987835 0.478846
vt 0.987138 0.494058
vt 0.733160 0.402822
vt 0.738600 0.388815
vt 0.530424 0.975210
vt 0.530534 0.958943
vt 0.530568 0.975867
vt 0.986453 0.918249
vt 0.986006 0.933068
vt 0.986006 0.917449
vt 0.760427 0.402822
vt 0.765866 0.388815
vt 0.516651 0.975210
vt 0.516761 0.958943
vt 0.516795 0.975867
vt 0.986751 0.945296
vt 0.986304 0.960115
vt 0.986304 0.944496
vt 0.989729 0.970742
vt 0.989654 0.985508
vt 0.989585 0.970664
vt 0.982182 0.397763
vt 0.984458 0.397769
vt 0.935753 0.074877
vt 0.933732 0.074119
vt 0.553246 0.958992
vt 0.555940 0.959146
vt 0.552499 0.959355
vt 0.755036 0.953577
vt 0.753015 0.952819
vt 0.732642 0.372315
vt 0.738716 0.387834
vt 0.738384 0.388622
vt 0.985251 0.478761
vt 0.985739 0.478064
vt 0.983297 0.871163
vt 0.982717 0.886070
vt 0.983175 0.871199
vt 0.985930 0.253147
vt 0.986058 0.269407
vt 0.985913 0.269402
vt 0.838479 0.379643
vt 0.840007 0.396109
vt 0.921056 0.285514
vt 0.920786 0.269534
vt 0.921056 0.269518
vt 0.977851 0.171875
vt 0.981095 0.157231
vt 0.981234 0.156873
vt 0.759908 0.372315
vt 0.765982 0.387834
vt 0.765651 0.388622
vt 0.886181 0.408892
vt 0.895070 0.395069
vt 0.662273 0.964227
vt 0.662402 0.980487
vt 0.662256 0.980482
vt 0.865872 0.379643
vt 0.867400 0.396109
vt 0.540515 0.974378
vt 0.540244 0.958398
vt 0.540515 0.958381
vt 0.978303 0.713242
vt 0.981547 0.698598
vt 0.981687 0.698240
vt 0.736840 0.390428
vt 0.985368 0.870792
vt 0.982536 0.870400
vt 0.438427 0.963727
vt 0.436599 0.964092
vt 0.895261 0.395223
vt 0.897517 0.395900
vt 0.895224 0.395798
vt 0.763907 0.390253
vt 0.949467 0.076726
vt 0.948366 0.076694
vt 0.647821 0.963705
vt 0.650218 0.964936
vt 0.645993 0.964069
vt 0.605576 0.975303
vt 0.605572 0.959038
vt 0.607610 0.975411
vt 0.739135 0.388707
vt 0.748669 0.400136
vt 0.936307 0.074599
vt 0.937215 0.077155
vt 0.839849 0.397148
vt 0.832316 0.410121
vt 0.837934 0.396173
vt 0.895146 0.395199
vt 0.898942 0.379384
vt 0.766402 0.388707
vt 0.775936 0.400136
vt 0.755590 0.953298
vt 0.756499 0.955854
vt 0.650200 0.964715
vt 0.648012 0.979992
vt 0.867241 0.397148
vt 0.859708 0.410121
vt 0.865327 0.396174
vt 0.988708 0.918248
vt 0.986699 0.933314
vt 0.988562 0.918172
vt 0.989006 0.945295
vt 0.986997 0.960361
vt 0.988860 0.945219
vt 0.819343 0.004720
vt 0.799227 0.112598
vt 0.797960 0.004778
vt 0.568553 0.005101
vt 0.721187 0.004827
vt 0.721330 0.411649
vt 0.820538 0.112728
vt 0.797960 0.400852
vt 0.558890 0.411679
vt 0.406119 0.005100
vt 0.558746 0.004831
vt 0.406262 0.411949
vt 0.171313 0.794846
vt 0.171381 0.499325
vt 0.192636 0.500530
vt 0.192623 0.795860
vt 0.757005 0.728745
vt 0.756995 0.837859
vt 0.735683 0.837671
vt 0.568696 0.411923
vt 0.735621 0.728745
vt 0.818928 0.400609
vt 0.778630 0.423923
vt 0.812267 0.528031
vt 0.778942 0.528024
vt 0.812493 0.425201
vt 0.779893 0.013195
vt 0.735656 0.039547
vt 0.748878 0.008478
vt 0.782928 0.045385
vt 0.850893 0.549126
vt 0.858298 0.519890
vt 0.887998 0.523645
vt 0.066505 0.610319
vt 0.066508 0.501125
vt 0.096120 0.502449
vt 0.891856 0.552541
vt 0.840191 0.540779
vt 0.385796 0.468031
vt 0.231626 0.489079
vt 0.215916 0.467958
vt 0.094801 0.610482
vt 0.370050 0.489032
vt 0.185277 0.468052
vt 0.169273 0.489495
vt 0.031522 0.489458
vt 0.015417 0.468036
vt 0.101322 0.638813
vt 0.112664 0.631159
vt 0.367377 0.004781
vt 0.390800 0.031568
vt 0.211392 0.031663
vt 0.234258 0.004858
vt 0.772018 0.558655
vt 0.819355 0.562542
vt 0.776009 0.871444
vt 0.816522 0.871406
vt 0.830645 0.554956
vt 0.015504 0.031657
vt 0.004720 0.467604
vt 0.004720 0.032143
vt 0.396556 0.467440
vt 0.167163 0.004779
vt 0.033563 0.004958
vt 0.189828 0.031864
vt 0.195867 0.467605
vt 0.746966 0.360717
vt 0.205306 0.467442
vt 0.903906 0.545895
vt 0.787776 0.362061
vt 0.060248 0.638752
vt 0.048689 0.631270
vt 0.086943 0.829952
vt 0.048641 0.784509
vt 0.079834 0.787034
vt 0.569440 0.468840
vt 0.558942 0.468829
vt 0.581879 0.421901
vt 0.422941 0.468372
vt 0.406758 0.421730
vt 0.153866 0.643799
vt 0.161752 0.689178
vt 0.154892 0.688509
vt 0.122490 0.640667
vt 0.757247 0.421504
vt 0.600230 0.474157
vt 0.592353 0.427472
vt 0.742234 0.469060
vt 0.860355 0.929666
vt 0.840229 0.891965
vt 0.863734 0.870466
vt 0.565267 0.664375
vt 0.429358 0.664036
vt 0.406435 0.713076
vt 0.581226 0.713524
vt 0.205598 0.680468
vt 0.238730 0.541987
vt 0.236731 0.680409
vt 0.206881 0.542299
vt 0.607367 0.669059
vt 0.748121 0.664085
vt 0.592041 0.719005
vt 0.757293 0.712809
vt 0.161545 0.501967
vt 0.418809 0.663821
vt 0.129879 0.499105
vt 0.488509 0.757845
vt 0.459851 0.879585
vt 0.452989 0.878194
vt 0.481845 0.756471
vt 0.250023 0.498858
vt 0.242957 0.498517
vt 0.956895 0.145991
vt 0.954070 0.145589
vt 0.954493 0.099149
vt 0.961621 0.917365
vt 0.959796 0.870837
vt 0.962801 0.870895
vt 0.958899 0.917283
vt 0.957595 0.099129
vt 0.984717 0.896692
vt 0.986725 0.907564
vt 0.982624 0.907603
vt 0.672398 0.990873
vt 0.674438 0.980614
vt 0.676496 0.991034
vt 0.006901 0.978695
vt 0.008909 0.989567
vt 0.004808 0.989606
vt 0.974903 0.089021
vt 0.976942 0.078762
vt 0.979000 0.089181
vt 0.568348 0.928801
vt 0.568431 0.948527
vt 0.551800 0.948610
vt 0.779261 0.937571
vt 0.767067 0.951523
vt 0.767049 0.937571
vt 0.779468 0.951639
vt 0.767119 0.963455
vt 0.899489 0.174217
vt 0.911701 0.173518
vt 0.911585 0.185903
vt 0.541668 0.928800
vt 0.525120 0.948607
vt 0.525036 0.928883
vt 0.899489 0.186315
vt 0.551717 0.928884
vt 0.110475 0.809919
vt 0.098166 0.824010
vt 0.098263 0.809919
vt 0.110568 0.824126
vt 0.541752 0.948523
vt 0.779232 0.963455
vt 0.381310 0.499399
vt 0.380831 0.808796
vt 0.347320 0.809024
vt 0.304444 0.815558
vt 0.303801 0.498852
vt 0.337376 0.500473
vt 0.337880 0.817097
vt 0.347728 0.499464
vt 0.072804 0.957786
vt 0.070051 0.957421
vt 0.070395 0.911037
vt 0.958969 0.242866
vt 0.956091 0.242834
vt 0.957026 0.196460
vt 0.960323 0.196586
vt 0.073608 0.911108
vt 0.691758 0.990873
vt 0.693798 0.980614
vt 0.695855 0.991034
vt 0.020651 0.978695
vt 0.022659 0.989567
vt 0.018558 0.989606
vt 0.988642 0.089021
vt 0.990681 0.078762
vt 0.992739 0.089181
vt 0.124401 0.979689
vt 0.126409 0.990561
vt 0.122308 0.990600
vt 0.236166 0.948617
vt 0.223855 0.962708
vt 0.223954 0.948617
vt 0.236258 0.962824
vt 0.899490 0.078572
vt 0.911587 0.090259
vt 0.899490 0.090671
vt 0.179494 0.929481
vt 0.162947 0.949290
vt 0.162863 0.929565
vt 0.911703 0.077873
vt 0.514987 0.928800
vt 0.515070 0.948523
vt 0.498439 0.948607
vt 0.498355 0.928883
vt 0.179578 0.949207
vt 0.801631 0.937571
vt 0.789437 0.951523
vt 0.789420 0.937571
vt 0.801839 0.951639
vt 0.801602 0.963455
vt 0.789489 0.963455
vt 0.260601 0.815558
vt 0.293533 0.500473
vt 0.294037 0.817097
vt 0.259958 0.498852
vt 0.038710 0.499963
vt 0.004720 0.809589
vt 0.005128 0.500029
vt 0.038231 0.809361
vt 0.889786 0.100690
vt 0.889891 0.186158
vt 0.861220 0.186248
vt 0.098020 0.729443
vt 0.097972 0.669013
vt 0.110611 0.669228
vt 0.110771 0.729524
vt 0.110771 0.648847
vt 0.005068 0.967969
vt 0.017368 0.947684
vt 0.017447 0.968439
vt 0.004758 0.947072
vt 0.889787 0.005044
vt 0.889892 0.090508
vt 0.861219 0.090599
vt 0.861114 0.005135
vt 0.110658 0.738964
vt 0.110589 0.800009
vt 0.097948 0.799876
vt 0.861114 0.100781
vt 0.097906 0.738965
vt 0.098369 0.648767
vt 0.352370 0.961995
vt 0.352448 0.953268
vt 0.362717 0.953373
vt 0.951466 0.962134
vt 0.953862 0.946003
vt 0.962530 0.956039
vt 0.309745 0.962146
vt 0.309990 0.952898
vt 0.319793 0.952898
vt 0.362615 0.962125
vt 0.691662 0.963725
vt 0.701466 0.959410
vt 0.701449 0.968895
vt 0.847152 0.957581
vt 0.840374 0.949777
vt 0.849402 0.941338
vt 0.858070 0.951369
vt 0.320094 0.962286
vt 0.197398 0.963928
vt 0.197134 0.956514
vt 0.207245 0.960528
vt 0.944931 0.954500
vt 0.207430 0.950211
vt 0.197014 0.950134
vt 0.406229 0.955805
vt 0.406109 0.949426
vt 0.416525 0.949502
vt 0.416340 0.959819
vt 0.672302 0.963725
vt 0.682106 0.959411
vt 0.682089 0.968895
vt 0.459330 0.963671
vt 0.461727 0.947540
vt 0.470395 0.957576
vt 0.122458 0.964635
vt 0.122537 0.955908
vt 0.132805 0.956013
vt 0.132704 0.964766
vt 0.818547 0.955318
vt 0.811769 0.947514
vt 0.820797 0.939075
vt 0.829465 0.949107
vt 0.330013 0.962146
vt 0.330257 0.952898
vt 0.340060 0.952898
vt 0.406493 0.963219
vt 0.452796 0.956037
vt 0.340361 0.962286
vt 0.020520 0.844635
vt 0.021593 0.862854
vt 0.006474 0.862616
vt 0.005634 0.843378
vt 0.025478 0.908090
vt 0.025417 0.932736
vt 0.004755 0.931701
vt 0.198328 0.881844
vt 0.223145 0.840495
vt 0.242215 0.842978
vt 0.249828 0.861608
vt 0.241588 0.885062
vt 0.601274 0.736124
vt 0.625245 0.728745
vt 0.630352 0.742141
vt 0.606816 0.750176
vt 0.204615 0.855073
vt 0.218744 0.899151
vt 0.767164 0.924504
vt 0.788170 0.892290
vt 0.788156 0.923995
vt 0.767003 0.891306
vt 0.250194 0.897670
vt 0.240383 0.905019
vt 0.593295 0.771776
vt 0.025301 0.890194
vt 0.004798 0.906770
vt 0.004720 0.890194
vt 0.649610 0.749084
vt 0.652649 0.767278
vt 0.638031 0.785254
vt 0.610512 0.791733
vt 0.026518 0.826524
vt 0.011629 0.826221
vt 0.897232 0.875882
vt 0.889014 0.911762
vt 0.875503 0.898872
vt 0.873701 0.883090
vt 0.881108 0.872519
vt 0.902324 0.903205
vt 0.904153 0.888298
vt 0.554204 0.877557
vt 0.564559 0.883791
vt 0.568817 0.898998
vt 0.561340 0.916479
vt 0.545645 0.914073
vt 0.538349 0.901130
vt 0.539995 0.886475
vt 0.736290 0.388419
vt 0.608046 0.959000
vt 0.958340 0.270521
vt 0.956102 0.268938
vt 0.961637 0.253373
vt 0.987019 0.520615
vt 0.984841 0.503826
vt 0.987122 0.503917
vt 0.406008 0.974413
vt 0.406015 0.974287
vt 0.406436 0.973830
vt 0.980571 0.398432
vt 0.968615 0.352323
vt 0.988301 0.051916
vt 0.990773 0.051783
vt 0.990017 0.066721
vt 0.736279 0.388075
vt 0.619078 0.964256
vt 0.622139 0.979029
vt 0.618927 0.979206
vt 0.984691 0.520374
vt 0.407841 0.972660
vt 0.621497 0.964262
vt 0.734545 0.388803
vt 0.966020 0.351224
vt 0.985115 0.885937
vt 0.985783 0.871176
vt 0.960187 0.269868
vt 0.410701 0.973872
vt 0.985688 0.398893
vt 0.983009 0.400562
vt 0.977683 0.630880
vt 0.980119 0.630797
vt 0.981468 0.645864
vt 0.962163 0.285776
vt 0.829449 0.979795
vt 0.826390 0.979362
vt 0.828882 0.966014
vt 0.468914 0.986498
vt 0.466479 0.986515
vt 0.469246 0.974253
vt 0.050927 0.961771
vt 0.052900 0.977569
vt 0.049349 0.977493
vt 0.916015 0.962967
vt 0.917933 0.978454
vt 0.914219 0.978568
vt 0.979116 0.645806
vt 0.746851 0.401875
vt 0.408400 0.985748
vt 0.623141 0.963705
vt 0.981148 0.549447
vt 0.978735 0.549798
vt 0.979773 0.537007
vt 0.985388 0.210199
vt 0.983016 0.210013
vt 0.982570 0.197490
vt 0.164628 0.975062
vt 0.162601 0.959420
vt 0.166270 0.959312
vt 0.593694 0.974787
vt 0.591813 0.958945
vt 0.595399 0.959035
vt 0.876755 0.221620
vt 0.877828 0.239839
vt 0.862709 0.239600
vt 0.861869 0.220363
vt 0.426766 0.910618
vt 0.406043 0.934229
vt 0.406086 0.909297
vt 0.426705 0.935264
vt 0.831485 0.346755
vt 0.856303 0.305408
vt 0.875372 0.307889
vt 0.882985 0.326519
vt 0.426589 0.892722
vt 0.837772 0.319984
vt 0.874745 0.349973
vt 0.851902 0.364062
vt 0.798167 0.924504
vt 0.819173 0.892290
vt 0.819159 0.923995
vt 0.798006 0.891307
vt 0.406008 0.892722
vt 0.883351 0.362582
vt 0.665192 0.771776
vt 0.702250 0.742141
vt 0.721508 0.749084
vt 0.724548 0.767278
vt 0.882754 0.203508
vt 0.867864 0.203206
vt 0.709930 0.785254
vt 0.678714 0.750176
vt 0.682410 0.791733
vt 0.873540 0.369931
vt 0.673173 0.736124
vt 0.697143 0.728745
vt 0.598767 0.912807
vt 0.591754 0.900698
vt 0.593608 0.885525
vt 0.607087 0.876073
vt 0.620453 0.888383
vt 0.622253 0.904186
vt 0.615101 0.915200
vt 0.680193 0.915071
vt 0.672638 0.904805
vt 0.674459 0.889012
vt 0.687947 0.876268
vt 0.701141 0.885048
vt 0.702967 0.900026
vt 0.696161 0.912827
vt 0.528044 0.975330
vt 0.526234 0.975209
vt 0.527354 0.958775
vt 0.983454 0.269446
vt 0.983491 0.253194
vt 0.935385 0.075068
vt 0.935137 0.078171
vt 0.934240 0.077716
vt 0.931779 0.076566
vt 0.632663 0.964732
vt 0.635584 0.963705
vt 0.636477 0.979620
vt 0.977965 0.155988
vt 0.436599 0.979604
vt 0.966813 0.855722
vt 0.965374 0.852164
vt 0.210841 0.973397
vt 0.210979 0.988666
vt 0.210779 0.973787
vt 0.835739 0.396457
vt 0.835437 0.379956
vt 0.195009 0.823259
vt 0.193364 0.822289
vt 0.194739 0.805800
vt 0.968205 0.852673
vt 0.815494 0.979795
vt 0.812435 0.979362
vt 0.814926 0.966014
vt 0.987326 0.457002
vt 0.984891 0.457018
vt 0.987658 0.444757
vt 0.089913 0.960910
vt 0.091887 0.976708
vt 0.088335 0.976632
vt 0.929780 0.962967
vt 0.931698 0.978454
vt 0.927984 0.978568
vt 0.936660 0.064851
vt 0.846365 0.410933
vt 0.977601 0.560113
vt 0.979277 0.559280
vt 0.980816 0.574854
vt 0.977606 0.575064
vt 0.936801 0.076510
vt 0.937805 0.076938
vt 0.732025 0.983357
vt 0.634097 0.979658
vt 0.729074 0.971351
vt 0.731482 0.971351
vt 0.981658 0.559520
vt 0.275352 0.975219
vt 0.273471 0.959377
vt 0.277058 0.959467
vt 0.981129 0.814114
vt 0.978717 0.814465
vt 0.979754 0.801674
vt 0.985769 0.317861
vt 0.983396 0.317675
vt 0.982951 0.305152
vt 0.875253 0.975330
vt 0.873226 0.959688
vt 0.876894 0.959580
vt 0.064441 0.865117
vt 0.065514 0.883336
vt 0.050395 0.883098
vt 0.049555 0.863860
vt 0.280392 0.920127
vt 0.280330 0.944773
vt 0.259669 0.943738
vt 0.323769 0.869616
vt 0.348586 0.828268
vt 0.367655 0.830750
vt 0.280214 0.902231
vt 0.259712 0.918807
vt 0.375269 0.849380
vt 0.259633 0.902231
vt 0.367029 0.872834
vt 0.601274 0.809426
vt 0.625245 0.802048
vt 0.630352 0.815444
vt 0.344185 0.886923
vt 0.375634 0.885443
vt 0.365824 0.892792
vt 0.606816 0.823479
vt 0.593295 0.845079
vt 0.649610 0.822387
vt 0.652649 0.840581
vt 0.070439 0.847006
vt 0.055550 0.846703
vt 0.638031 0.858557
vt 0.330056 0.842845
vt 0.610512 0.865036
vt 0.162963 0.916081
vt 0.162802 0.882883
vt 0.183969 0.883867
vt 0.183955 0.915572
vt 0.146226 0.877942
vt 0.153147 0.890359
vt 0.151318 0.905265
vt 0.138008 0.913822
vt 0.124497 0.900933
vt 0.122694 0.885150
vt 0.130102 0.874579
vt 0.513947 0.877557
vt 0.528560 0.898998
vt 0.521083 0.916478
vt 0.505389 0.914073
vt 0.498092 0.901130
vt 0.499738 0.886475
vt 0.524303 0.883791
vt 0.763556 0.388419
vt 0.901357 0.379924
vt 0.223593 0.974393
vt 0.223600 0.974267
vt 0.224021 0.973810
vt 0.951329 0.078670
vt 0.953907 0.078452
vt 0.979694 0.185817
vt 0.246107 0.975841
vt 0.248578 0.975708
vt 0.247822 0.990646
vt 0.763545 0.388075
vt 0.483723 0.963995
vt 0.486785 0.978768
vt 0.483572 0.978945
vt 0.987043 0.021788
vt 0.984715 0.021546
vt 0.984865 0.004999
vt 0.226158 0.975420
vt 0.225870 0.972641
vt 0.950750 0.075725
vt 0.952744 0.076081
vt 0.487149 0.963660
vt 0.761811 0.388803
vt 0.987146 0.005090
vt 0.977664 0.185011
vt 0.248481 0.965735
vt 0.245964 0.965445
vt 0.247908 0.949039
vt 0.977188 0.185076
vt 0.977130 0.184933
vt 0.250154 0.965445
vt 0.974527 0.917698
vt 0.976500 0.933496
vt 0.972948 0.933420
vt 0.986027 0.291738
vt 0.983591 0.291755
vt 0.986359 0.279493
vt 0.292632 0.962673
vt 0.294550 0.978160
vt 0.290836 0.978274
vt 0.981532 0.788181
vt 0.978473 0.787749
vt 0.980964 0.774401
vt 0.392554 0.972096
vt 0.394963 0.972096
vt 0.393058 0.982530
vt 0.774117 0.401875
vt 0.228287 0.973852
vt 0.896548 0.397806
vt 0.978387 0.671549
vt 0.981474 0.686538
vt 0.979116 0.686499
vt 0.224092 0.974104
vt 0.225985 0.985728
vt 0.553087 0.959694
vt 0.556062 0.958460
vt 0.555733 0.974257
vt 0.894611 0.395642
vt 0.897590 0.395408
vt 0.261587 0.975219
vt 0.259706 0.959378
vt 0.263293 0.959467
vt 0.985769 0.341502
vt 0.983396 0.341316
vt 0.982950 0.328792
vt 0.178394 0.975062
vt 0.176366 0.959420
vt 0.180035 0.959312
vt 0.981129 0.841400
vt 0.978716 0.841751
vt 0.979754 0.828960
vt 0.908591 0.329282
vt 0.909664 0.347501
vt 0.894545 0.347262
vt 0.261048 0.869616
vt 0.267335 0.842845
vt 0.285866 0.828268
vt 0.914589 0.311170
vt 0.893705 0.328025
vt 0.899700 0.310868
vt 0.473234 0.907246
vt 0.452511 0.930857
vt 0.452553 0.905926
vt 0.473172 0.931892
vt 0.304935 0.830750
vt 0.312548 0.849380
vt 0.473056 0.889350
vt 0.665192 0.845079
vt 0.721508 0.822387
vt 0.724547 0.840581
vt 0.709930 0.858557
vt 0.702250 0.815444
vt 0.913969 0.914020
vt 0.913808 0.880823
vt 0.934975 0.881806
vt 0.678714 0.823479
vt 0.682410 0.865037
vt 0.934961 0.913511
vt 0.281465 0.886923
vt 0.312914 0.885443
vt 0.303103 0.892792
vt 0.304308 0.872834
vt 0.673173 0.809426
vt 0.697143 0.802048
vt 0.452475 0.889350
vt 0.639018 0.912807
vt 0.632006 0.900698
vt 0.633859 0.885525
vt 0.662505 0.904186
vt 0.655353 0.915200
vt 0.647339 0.876073
vt 0.660704 0.888383
vt 0.720371 0.915071
vt 0.712816 0.904805
vt 0.714638 0.889012
vt 0.728126 0.876268
vt 0.741319 0.885048
vt 0.743145 0.900026
vt 0.736339 0.912827
vt 0.951456 0.852164
vt 0.954287 0.852673
vt 0.952895 0.855722
vt 0.580921 0.976178
vt 0.579276 0.975209
vt 0.580651 0.958719
vt 0.514271 0.975330
vt 0.512461 0.975209
vt 0.513581 0.958775
vt 0.862829 0.379956
vt 0.863132 0.396457
vt 0.659834 0.964274
vt 0.659797 0.980526
vt 0.754668 0.953767
vt 0.754420 0.956871
vt 0.753523 0.956416
vt 0.751062 0.955265
vt 0.974828 0.052797
vt 0.977750 0.051769
vt 0.978643 0.067685
vt 0.978417 0.697355
vt 0.645993 0.979582
vt 0.987132 0.970479
vt 0.987270 0.985748
vt 0.987070 0.970869
vt 0.987326 0.433790
vt 0.984891 0.433807
vt 0.987658 0.421545
vt 0.974825 0.944745
vt 0.976798 0.960543
vt 0.973247 0.960467
vt 0.036087 0.962377
vt 0.038005 0.977864
vt 0.034291 0.977977
vt 0.981532 0.763358
vt 0.978473 0.762926
vt 0.980964 0.749578
vt 0.755943 0.943550
vt 0.873757 0.410933
vt 0.757088 0.955638
vt 0.897334 0.970278
vt 0.899743 0.970278
vt 0.900285 0.982284
vt 0.976262 0.067722
vt 0.977600 0.591124
vt 0.979276 0.590291
vt 0.980816 0.605864
vt 0.977606 0.606074
vt 0.756084 0.955210
vt 0.981658 0.590530
vt 0.981129 0.739503
vt 0.978717 0.739853
vt 0.979754 0.727062
vt 0.985388 0.233839
vt 0.983016 0.233654
vt 0.982570 0.221130
vt 0.374992 0.975248
vt 0.372965 0.959605
vt 0.376633 0.959497
vt 0.567456 0.974688
vt 0.565575 0.958846
vt 0.569161 0.958935
vt 0.861015 0.293184
vt 0.877825 0.269684
vt 0.878156 0.293332
vt 0.861417 0.269367
vt 0.608919 0.927061
vt 0.608726 0.948739
vt 0.591980 0.948724
vt 0.592061 0.926998
vt 0.690492 0.927103
vt 0.672496 0.947230
vt 0.672601 0.927026
vt 0.690297 0.947242
vt 0.968109 0.735928
vt 0.965162 0.764341
vt 0.961970 0.735952
vt 0.223660 0.938946
vt 0.224059 0.916648
vt 0.241657 0.919176
vt 0.735536 0.848374
vt 0.740214 0.847846
vt 0.737785 0.865563
vt 0.241865 0.939101
vt 0.241401 0.914596
vt 0.964925 0.697406
vt 0.968116 0.725797
vt 0.961977 0.725821
vt 0.196972 0.940464
vt 0.197375 0.916647
vt 0.213783 0.916963
vt 0.214113 0.940612
vt 0.139399 0.924297
vt 0.139206 0.945975
vt 0.122460 0.945960
vt 0.122541 0.924234
vt 0.892857 0.294005
vt 0.910855 0.274235
vt 0.911063 0.294160
vt 0.968109 0.774464
vt 0.965162 0.802878
vt 0.961970 0.774488
vt 0.893257 0.271707
vt 0.391241 0.945135
vt 0.395919 0.944607
vt 0.393490 0.962325
vt 0.910598 0.269655
vt 0.964925 0.813018
vt 0.968116 0.841409
vt 0.961977 0.841433
vt 0.718251 0.927103
vt 0.700255 0.947230
vt 0.700360 0.927026
vt 0.718056 0.947242
vt 0.171222 0.853989
vt 0.171568 0.807035
vt 0.183662 0.807493
vt 0.183914 0.854094
vt 0.944064 0.100365
vt 0.943916 0.145867
vt 0.931488 0.145830
vt 0.931371 0.100367
vt 0.913608 0.952842
vt 0.926934 0.928286
vt 0.927130 0.952953
vt 0.913905 0.927942
vt 0.967690 0.155691
vt 0.967441 0.179850
vt 0.954282 0.179643
vt 0.954166 0.155693
vt 0.579575 0.939158
vt 0.579994 0.877756
vt 0.581299 0.939159
vt 0.951156 0.780366
vt 0.952017 0.841662
vt 0.950145 0.841583
vt 0.037143 0.952363
vt 0.035799 0.890902
vt 0.037601 0.891018
vt 0.953467 0.004720
vt 0.952531 0.065976
vt 0.951743 0.004720
vt 0.951640 0.770926
vt 0.950296 0.709465
vt 0.952098 0.709581
vt 0.438809 0.892722
vt 0.437872 0.953978
vt 0.437085 0.892722
vt 0.738254 0.388175
vt 0.738370 0.387941
vt 0.960002 0.270507
vt 0.960283 0.270859
vt 0.960287 0.269893
vt 0.959992 0.270383
vt 0.932114 0.076093
vt 0.932131 0.076243
vt 0.932053 0.076075
vt 0.839863 0.396828
vt 0.840442 0.397113
vt 0.765520 0.388175
vt 0.765637 0.387941
vt 0.751397 0.954793
vt 0.751414 0.954943
vt 0.751336 0.954774
vt 0.867256 0.396828
vt 0.867834 0.397113
vt 0.979688 0.181394
vt 0.274205 0.985672
vt 0.277316 0.986109
vt 0.275586 0.988604
vt 0.968270 0.348012
vt 0.837163 0.398126
vt 0.864555 0.398126
vt 0.984764 0.520928
vt 0.411091 0.974426
vt 0.986480 0.933333
vt 0.981135 0.156535
vt 0.984788 0.022100
vt 0.986778 0.960381
vt 0.981587 0.697902
vt 0.920549 0.285447
vt 0.540007 0.974311
vt 0.260440 0.985673
vt 0.263551 0.986109
vt 0.261821 0.988603
vt 0.618421 0.963705
vt 0.530048 0.975754
vt 0.483067 0.963444
vt 0.516275 0.975755
vt 0.980605 0.398877
vt 0.965770 0.351694
vt 0.985697 0.398767
vt 0.983848 0.270008
vt 0.211243 0.973368
vt 0.968132 0.852537
vt 0.937149 0.077053
vt 0.953952 0.078007
vt 0.954214 0.852537
vt 0.660192 0.981088
vt 0.987534 0.970450
vt 0.756432 0.955753
s 1
usemtl patrol_car_baked
f 2/1/1 1/2/1 3/3/1
f 2/1/1 3/3/1 4/4/1
f 5/5/2 6/6/2 7/7/2
f 5/5/2 7/7/2 8/8/2
f 10/9/3 9/10/3 11/11/3
f 10/9/3 11/11/3 12/12/3
f 14/13/4 13/14/4 15/15/4
f 14/13/4 15/15/4 16/16/4
f 161/17/5 154/18/5 158/19/5
f 170/20/6 171/21/6 166/22/6
f 216/23/7 217/24/7 215/25/7
f 240/26/8 226/27/8 236/28/8
f 290/29/5 283/30/5 287/31/5
f 313/32/9 303/33/9 314/34/9
f 352/35/10 353/36/10 351/37/10
f 376/38/11 345/39/11 372/40/11
f 292/41/12 282/42/12 290/43/12
f 367/44/13 369/45/14 368/46/15
f 254/47/16 252/48/17 253/49/18
f 245/50/19 246/51/20 244/52/21
f 163/53/22 153/54/22 161/55/22
f 171/56/23 178/57/23 164/58/23
f 184/59/24 156/60/24 155/61/24
f 228/62/25 216/63/25 215/64/25
f 247/65/26 226/27/26 241/66/26
f 242/67/13 246/68/14 243/69/15
f 220/70/27 253/71/27 215/25/27
f 299/72/28 294/73/28 314/34/28
f 306/74/29 285/75/29 284/76/29
f 317/77/30 315/78/31 316/79/32
f 350/80/25 352/81/25 351/82/25
f 365/83/33 345/39/33 377/84/33
f 356/85/34 381/86/34 351/37/34
f 182/87/35 156/88/35 181/89/35
f 179/90/36 177/91/37 178/57/38
f 154/18/39 188/92/39 155/93/39
f 217/94/40 225/95/40 218/96/40
f 239/97/41 246/98/41 240/99/41
f 283/30/42 315/100/42 284/101/42
f 353/102/43 348/103/43 354/104/43
f 375/105/44 369/106/44 376/107/44
f 382/108/16 380/109/17 381/110/18
f 185/111/45 184/59/46 186/112/47
f 234/113/48 215/25/49 249/114/50
f 305/115/51 311/116/51 304/117/51
f 363/118/48 351/37/52 378/119/50
f 151/120/53 160/121/53 159/122/53
f 177/91/54 170/123/54 169/124/54
f 165/125/55 187/126/55 166/127/55
f 223/128/56 227/129/57 228/130/57
f 236/28/58 224/131/58 237/132/58
f 242/133/59 222/134/59 221/135/59
f 251/136/60 219/137/61 218/138/60
f 280/139/53 289/140/53 288/141/53
f 301/142/62 303/33/63 313/32/64
f 317/77/65 313/32/65 312/143/65
f 347/144/66 346/145/66 350/146/66
f 372/40/58 349/147/58 373/148/58
f 367/149/59 358/150/59 357/151/59
f 383/152/67 355/153/61 354/154/68
f 179/155/69 159/122/69 158/19/69
f 186/156/70 165/125/70 164/157/70
f 222/158/71 244/52/71 215/159/71
f 309/160/72 292/161/72 310/162/72
f 299/163/73 288/141/73 287/31/73
f 310/164/74 306/74/74 311/165/74
f 358/166/75 370/167/75 351/168/75
f 168/169/76 152/170/77 163/171/78
f 157/172/79 180/173/80 158/19/81
f 235/174/82 240/175/82 234/113/82
f 238/176/83 252/177/17 254/178/16
f 308/179/84 281/180/85 309/160/86
f 286/181/87 302/182/88 287/31/81
f 364/183/89 376/184/89 363/118/89
f 366/185/19 369/186/20 370/167/90
f 374/187/83 380/188/17 382/189/16
f 234/190/48 248/191/91 235/192/92
f 363/193/48 371/194/91 364/195/92
f 23/196/93 17/197/94 24/198/95
f 24/199/96 17/200/96 21/201/96
f 23/196/93 22/202/97 17/197/94
f 22/202/97 21/203/98 17/197/94
f 18/204/99 22/205/99 23/206/99
f 18/204/99 20/207/99 22/205/99
f 18/208/100 23/209/93 24/210/95
f 18/208/100 24/210/95 19/211/101
f 20/212/102 18/213/100 19/214/101
f 24/199/96 21/201/96 19/215/96
f 20/212/102 19/214/101 21/216/98
f 22/202/97 20/217/102 21/203/98
f 25/218/103 33/219/104 30/220/105
f 25/218/103 34/221/106 33/219/104
f 25/222/103 35/223/107 34/224/106
f 25/222/103 36/225/108 35/223/107
f 38/226/109 27/227/110 26/228/111
f 28/229/112 26/230/111 27/231/113
f 38/226/109 26/228/111 37/232/114
f 39/233/115 27/227/115 38/226/115
f 43/234/116 28/235/112 42/236/117
f 28/229/112 27/231/113 29/237/118
f 43/234/116 26/238/111 28/235/112
f 44/239/119 29/240/118 27/241/120
f 44/239/119 27/241/120 39/242/121
f 41/243/122 29/237/118 44/244/119
f 30/245/105 31/246/123 36/247/108
f 30/245/105 36/247/108 25/248/103
f 31/246/124 42/236/125 36/247/126
f 31/246/124 43/234/116 42/236/125
f 33/219/104 31/249/123 30/220/105
f 32/250/127 37/251/114 31/249/124
f 32/250/127 38/252/109 37/251/114
f 33/219/104 32/250/127 31/249/123
f 33/219/104 40/253/128 32/250/127
f 40/254/128 38/255/109 32/256/127
f 31/246/124 37/257/114 43/234/116
f 34/258/129 40/254/128 33/259/104
f 34/258/129 35/260/130 40/254/128
f 35/260/131 41/261/122 44/239/119
f 36/225/132 41/262/122 35/223/133
f 36/247/132 42/236/134 45/263/135
f 37/232/114 26/228/111 43/264/116
f 40/254/128 39/242/136 38/255/109
f 35/260/131 39/242/137 40/254/138
f 35/260/131 44/239/119 39/242/137
f 36/225/132 45/265/135 41/262/122
f 45/266/135 29/237/118 41/243/122
f 42/267/139 28/229/139 45/266/139
f 45/266/135 28/229/112 29/237/118
f 46/268/140 53/269/141 52/270/142
f 52/271/142 50/272/143 46/273/140
f 46/273/140 57/274/144 49/275/145
f 46/273/140 50/272/143 57/274/144
f 56/276/146 48/277/147 47/278/148
f 56/276/146 47/278/148 54/279/149
f 49/280/145 53/281/150 46/282/140
f 49/280/145 55/283/151 53/281/150
f 49/284/145 57/285/152 55/286/151
f 52/271/142 51/287/153 50/272/143
f 51/287/153 58/288/154 50/272/143
f 48/289/147 58/288/154 51/287/153
f 51/287/153 59/290/155 48/289/147
f 53/291/156 51/292/153 52/293/142
f 53/291/156 61/294/157 51/292/153
f 55/283/158 61/295/157 53/281/156
f 54/296/159 60/297/160 61/295/161
f 54/296/159 47/298/148 60/297/160
f 55/283/158 54/296/162 61/295/157
f 57/299/144 56/276/163 54/279/164
f 57/274/144 58/288/154 56/300/163
f 57/299/144 54/279/164 55/301/165
f 48/302/147 59/303/155 60/304/160
f 48/302/147 60/304/160 47/305/148
f 61/294/166 59/306/155 51/292/167
f 61/294/166 60/307/160 59/306/155
f 64/308/168 65/309/169 62/310/170
f 65/311/169 63/312/171 62/313/170
f 65/311/169 64/314/168 63/312/171
f 64/308/168 62/310/170 63/315/171
f 66/316/172 67/317/173 68/318/173
f 67/319/173 66/320/172 68/321/173
f 69/322/174 71/323/174 70/324/174
f 71/325/174 69/326/174 70/327/174
f 74/328/175 72/329/176 78/330/177
f 73/331/178 72/332/176 74/333/175
f 73/331/178 79/334/179 72/332/176
f 79/334/179 78/335/177 72/332/176
f 76/336/180 73/337/178 74/338/175
f 76/339/180 79/340/179 73/341/178
f 76/336/180 74/338/175 75/342/181
f 74/328/175 78/330/177 75/343/181
f 77/344/182 75/345/181 78/346/177
f 77/344/182 76/347/180 75/345/181
f 76/339/180 77/348/182 79/340/179
f 79/334/179 77/349/182 78/335/177
f 81/350/183 80/351/184 82/352/185
f 80/353/184 81/354/183 83/355/186
f 80/353/184 83/355/186 82/356/185
f 81/350/183 82/352/185 83/357/186
f 85/358/187 84/359/188 87/360/189
f 84/361/188 85/362/187 86/363/190
f 84/361/188 86/363/190 87/364/189
f 85/358/187 87/360/189 86/365/190
f 90/366/191 88/367/192 89/368/193
f 88/369/192 90/370/191 89/371/193
f 92/372/194 91/373/195 93/374/194
f 91/375/195 92/376/194 93/377/194
f 97/378/182 94/379/181 98/380/177
f 97/378/182 95/381/180 94/379/181
f 95/382/180 96/383/175 94/384/181
f 96/385/175 98/386/177 94/387/181
f 95/382/180 100/388/178 96/383/175
f 95/389/180 97/390/182 99/391/179
f 95/389/180 99/391/179 100/392/178
f 96/385/175 101/393/176 98/386/177
f 100/394/178 101/395/176 96/396/175
f 99/397/179 97/398/182 98/399/177
f 99/397/179 98/399/177 101/395/176
f 100/394/178 99/397/179 101/395/176
f 104/400/196 105/401/197 102/402/198
f 104/400/196 103/403/199 105/401/197
f 103/404/199 102/405/198 105/406/197
f 103/404/199 104/407/196 102/405/198
f 113/408/96 106/409/96 112/410/96
f 109/411/200 111/412/201 106/413/202
f 109/411/200 106/413/202 113/414/203
f 111/412/201 112/415/204 106/413/202
f 107/416/205 113/417/203 108/418/206
f 107/416/205 109/419/200 113/417/203
f 107/420/99 110/421/99 111/422/99
f 107/420/99 111/422/99 109/423/99
f 110/424/207 107/425/205 108/426/206
f 113/408/96 112/410/96 108/427/96
f 110/424/207 108/426/206 112/428/204
f 111/412/201 110/429/207 112/415/204
f 116/430/208 115/431/209 120/432/210
f 114/433/211 115/434/209 116/435/208
f 114/436/211 116/437/208 117/438/212
f 116/430/208 120/432/210 117/439/212
f 115/440/209 118/441/213 120/442/210
f 117/443/212 120/444/210 118/445/213
f 117/443/212 118/445/213 119/446/214
f 114/436/211 117/438/212 119/447/214
f 115/448/209 121/449/215 118/450/213
f 114/433/211 121/451/215 115/434/209
f 121/449/215 119/452/214 118/450/213
f 121/449/215 114/453/211 119/452/214
f 123/454/215 122/455/211 128/456/214
f 123/454/215 128/456/214 129/457/213
f 124/458/209 129/459/213 127/460/210
f 122/461/211 124/462/209 125/463/208
f 125/464/208 124/465/209 127/466/210
f 125/464/208 127/466/210 126/467/212
f 126/468/212 127/469/210 129/470/213
f 126/468/212 129/470/213 128/471/214
f 122/472/211 125/473/208 126/474/212
f 124/475/209 123/454/215 129/457/213
f 122/461/211 123/476/215 124/462/209
f 122/472/211 126/474/212 128/477/214
f 130/478/216 133/479/217 140/480/218
f 130/478/216 140/480/218 143/481/219
f 142/482/220 131/483/221 139/484/222
f 133/485/217 131/486/221 142/487/220
f 133/485/217 141/488/223 132/489/224
f 132/490/225 141/491/223 137/492/226
f 132/490/225 137/492/226 136/493/227
f 133/485/217 130/494/216 131/486/221
f 133/485/217 132/489/224 134/495/228
f 133/496/217 135/497/229 140/498/218
f 133/485/217 142/487/220 141/488/223
f 133/496/217 134/499/228 135/497/229
f 134/495/228 136/500/227 135/501/229
f 134/495/228 132/489/225 136/500/227
f 135/502/229 136/493/227 137/492/226
f 141/503/223 138/504/230 137/505/226
f 135/502/229 137/492/226 138/506/230
f 141/503/223 142/482/220 138/504/230
f 142/482/220 139/484/222 138/504/230
f 135/502/229 138/506/230 139/507/222
f 135/502/229 143/508/231 140/509/218
f 135/502/229 139/507/222 143/508/231
f 131/510/221 143/481/219 139/511/222
f 131/510/221 130/478/216 143/481/219
f 144/512/232 146/513/233 147/514/234
f 144/512/232 148/515/235 149/516/236
f 144/512/232 147/514/234 148/515/235
f 144/512/232 145/517/237 146/513/233
f 144/512/232 150/518/238 145/517/237
f 149/519/236 148/520/235 147/521/234
f 149/519/236 147/521/234 146/522/233
f 149/519/236 146/522/233 145/523/237
f 149/519/236 150/524/238 144/525/232
f 149/519/236 145/523/237 150/524/238
f 162/526/239 151/120/240 159/122/241
f 163/171/78 152/170/77 151/527/242
f 167/528/243 172/529/244 152/530/77
f 172/531/245 151/532/242 152/533/77
f 157/534/246 158/535/246 159/536/246
f 155/61/247 185/111/247 153/537/247
f 172/538/248 163/53/249 161/55/250
f 157/539/79 182/540/251 180/541/80
f 184/542/252 155/93/253 188/92/254
f 154/543/255 187/544/256 188/545/254
f 172/531/245 160/546/257 151/532/242
f 181/89/258 159/536/259 179/547/260
f 179/155/36 158/19/261 180/173/262
f 154/543/255 183/548/263 187/544/256
f 162/526/239 163/549/264 151/120/240
f 172/538/248 169/550/265 163/53/249
f 165/125/266 188/551/254 187/126/256
f 165/125/266 184/552/252 188/551/254
f 178/57/267 177/91/267 169/124/267
f 168/553/76 167/528/243 152/530/77
f 181/89/258 179/547/260 171/554/268
f 186/112/269 166/555/269 183/556/269
f 181/557/270 170/558/271 177/559/37
f 167/528/272 166/22/273 187/560/256
f 176/561/274 173/562/275 175/563/276
f 173/564/275 176/565/274 174/566/277
f 173/567/275 174/568/277 175/569/276
f 176/570/274 175/571/276 174/572/277
f 181/557/270 177/559/37 180/573/262
f 179/155/36 180/173/262 177/574/37
f 182/87/251 181/89/278 180/575/80
f 183/548/263 167/576/272 187/544/256
f 183/556/279 185/111/279 186/112/279
f 191/577/280 190/578/281 192/579/282
f 190/580/281 191/581/280 189/582/283
f 190/583/281 189/584/283 192/585/282
f 191/586/280 192/587/282 189/588/283
f 193/589/216 195/590/217 203/591/218
f 193/589/216 203/591/218 201/592/219
f 194/593/220 205/594/222 200/595/230
f 194/593/220 206/596/221 205/594/222
f 195/597/217 206/598/221 194/599/220
f 195/597/217 194/599/220 196/600/223
f 196/601/223 194/593/220 200/595/230
f 195/597/217 193/602/216 206/598/221
f 195/597/217 197/603/224 198/604/228
f 195/605/217 202/606/229 203/607/218
f 195/605/217 198/608/228 202/606/229
f 195/597/217 196/600/223 197/603/224
f 196/601/223 200/595/230 199/609/226
f 198/604/228 197/603/225 204/610/227
f 202/611/229 199/612/226 200/613/230
f 202/611/229 200/613/230 205/614/222
f 206/615/221 201/592/219 205/616/222
f 202/611/229 205/614/222 201/617/231
f 206/615/221 193/589/216 201/592/219
f 202/611/229 204/618/227 199/612/226
f 202/611/229 201/617/231 203/619/218
f 198/604/228 204/610/227 202/620/229
f 197/621/225 199/612/226 204/618/227
f 197/621/225 196/622/223 199/612/226
f 210/623/284 207/624/285 208/625/286
f 210/623/284 208/625/286 209/626/287
f 210/623/284 209/626/287 211/627/288
f 210/623/284 213/628/289 212/629/290
f 210/623/284 211/627/288 213/628/289
f 212/630/290 213/631/289 211/632/288
f 212/630/290 211/632/288 209/633/287
f 212/630/290 209/633/287 208/634/286
f 212/630/290 208/634/286 207/635/285
f 212/630/290 207/635/285 210/636/284
f 214/637/291 229/638/292 224/639/293
f 217/94/294 214/637/291 224/639/293
f 228/130/295 217/640/295 225/641/295
f 250/642/296 254/643/297 220/70/298
f 245/644/299 221/645/299 234/113/299
f 249/646/300 221/647/300 243/648/300
f 250/649/301 219/137/302 251/136/303
f 222/158/304 246/51/14 242/650/13
f 222/158/304 244/52/305 246/51/14
f 214/651/306 216/63/307 227/652/308
f 218/653/309 252/48/310 251/654/303
f 218/653/311 219/655/311 253/49/311
f 226/27/312 227/656/313 223/657/314
f 228/130/315 225/641/315 223/128/315
f 229/658/292 237/659/316 224/660/293
f 236/28/317 223/657/314 224/131/318
f 236/28/317 226/27/312 223/657/314
f 227/652/308 237/661/319 214/651/306
f 233/662/320 230/663/321 232/664/276
f 230/665/321 233/666/320 231/667/277
f 230/668/321 231/669/277 232/670/276
f 233/671/320 232/672/276 231/673/277
f 234/113/48 249/114/50 248/674/91
f 240/99/322 235/192/322 248/191/322
f 247/65/323 240/26/323 246/675/323
f 238/676/324 229/677/325 251/678/303
f 238/676/324 251/678/303 252/679/310
f 250/642/296 239/680/326 254/643/297
f 234/113/327 241/681/327 245/644/327
f 243/69/15 246/68/14 248/682/328
f 249/646/329 243/648/15 248/683/328
f 245/684/19 247/685/330 246/68/20
f 229/677/325 250/686/301 251/678/303
f 255/687/331 257/688/282 258/689/283
f 255/690/331 256/691/281 257/692/282
f 256/693/281 255/694/331 258/695/283
f 256/696/281 258/697/283 257/698/282
f 260/699/216 259/700/217 269/701/218
f 260/699/216 269/701/218 272/702/219
f 262/703/220 261/704/221 271/705/222
f 259/706/217 261/707/221 262/708/220
f 263/709/223 262/703/220 268/710/230
f 259/706/217 262/708/220 263/711/223
f 263/709/223 268/710/230 267/712/226
f 259/706/217 263/711/223 264/713/224
f 264/714/225 263/715/223 267/716/226
f 265/717/228 264/713/225 270/718/227
f 259/706/217 264/713/224 265/717/228
f 265/717/228 270/718/227 266/719/229
f 264/714/225 267/716/226 270/720/227
f 266/721/229 270/720/227 267/716/226
f 266/721/229 267/716/226 268/722/230
f 262/703/220 271/705/222 268/710/230
f 266/721/229 268/722/230 271/723/222
f 261/724/221 272/702/219 271/725/222
f 266/721/229 271/723/222 272/726/231
f 261/724/221 260/699/216 272/702/219
f 259/706/217 260/727/216 261/707/221
f 266/721/229 272/726/231 269/728/218
f 259/729/217 265/730/228 266/731/229
f 259/729/217 266/731/229 269/732/218
f 275/733/232 279/734/238 273/735/332
f 275/733/232 274/736/233 276/737/234
f 275/733/232 278/738/235 277/739/236
f 275/733/232 276/737/234 278/738/235
f 275/733/232 273/735/332 274/736/233
f 277/740/236 276/741/234 274/742/233
f 277/740/236 273/743/332 279/744/238
f 277/740/236 279/744/238 275/745/232
f 277/740/236 274/742/233 273/743/332
f 277/740/236 278/746/235 276/741/234
f 291/747/333 280/139/334 288/141/335
f 292/161/336 281/180/337 280/748/338
f 292/161/336 309/160/339 281/180/337
f 286/749/246 287/750/246 288/751/246
f 284/76/340 307/752/340 282/753/340
f 293/754/341 292/41/342 290/43/343
f 286/755/87 285/756/344 302/757/88
f 306/758/345 284/101/346 315/100/347
f 283/759/348 316/760/32 315/761/31
f 293/762/349 289/763/350 280/764/338
f 303/765/351 288/751/352 299/766/353
f 305/767/354 304/768/354 282/753/354
f 299/163/355 287/31/356 302/182/357
f 283/759/348 304/769/358 316/760/32
f 291/747/333 292/770/359 280/139/334
f 293/762/349 280/764/338 281/771/337
f 293/754/341 310/772/360 292/41/342
f 294/773/361 293/774/362 281/775/85
f 308/776/363 309/777/363 310/772/363
f 308/778/84 294/773/361 281/775/85
f 297/779/275 296/780/277 295/781/276
f 297/782/275 298/783/274 296/784/277
f 298/785/274 295/786/276 296/787/277
f 298/788/274 297/789/275 295/790/276
f 300/791/364 299/792/365 301/793/366
f 299/163/355 302/182/357 301/794/62
f 303/765/351 299/766/353 314/795/367
f 300/796/364 301/142/366 313/32/368
f 303/797/63 301/798/62 302/799/357
f 285/800/344 303/765/369 302/801/88
f 305/767/370 307/752/371 311/165/372
f 304/802/358 312/803/373 316/804/32
f 311/805/374 306/806/374 313/32/374
f 313/32/375 315/78/31 317/77/30
f 318/807/280 321/808/282 319/809/283
f 320/810/281 318/811/280 319/812/283
f 320/813/281 319/814/283 321/815/282
f 318/816/280 320/817/281 321/818/282
f 323/819/216 322/820/217 331/821/218
f 322/822/217 323/823/216 324/824/221
f 324/825/221 323/819/216 335/826/219
f 324/825/221 335/826/219 330/827/222
f 325/828/220 330/829/222 329/830/230
f 325/828/220 324/831/221 330/829/222
f 322/822/217 324/824/221 325/832/220
f 322/822/217 325/832/220 334/833/223
f 334/834/223 325/828/220 329/830/230
f 326/835/229 329/836/230 330/837/222
f 326/835/229 330/837/222 335/838/231
f 326/835/229 328/839/226 329/836/230
f 322/840/217 332/841/228 326/842/229
f 326/835/229 327/843/227 328/839/226
f 326/835/229 335/838/231 331/844/218
f 322/840/217 326/842/229 331/845/218
f 332/846/228 327/847/227 326/848/229
f 332/846/228 333/849/225 327/847/227
f 333/850/225 328/839/226 327/843/227
f 333/850/225 334/851/223 328/839/226
f 334/834/223 329/830/230 328/852/226
f 322/822/217 333/849/224 332/846/228
f 322/822/217 334/833/223 333/849/224
f 323/819/216 331/821/218 335/826/219
f 337/853/284 336/854/285 342/855/286
f 337/853/284 338/856/289 339/857/290
f 337/853/284 342/855/286 341/858/287
f 337/853/284 340/859/288 338/856/289
f 337/853/284 341/858/287 340/859/288
f 339/860/290 338/861/289 340/862/288
f 339/860/290 340/862/288 341/863/287
f 339/860/290 342/864/286 336/865/285
f 339/860/290 341/863/287 342/864/286
f 339/860/290 336/865/285 337/866/284
f 346/867/308 373/868/319 344/869/376
f 343/870/292 373/871/316 349/872/377
f 344/869/376 352/81/378 346/867/308
f 344/873/379 343/874/292 349/875/377
f 372/40/380 345/39/312 347/876/381
f 345/39/312 346/877/382 347/876/381
f 372/40/380 347/876/381 349/147/318
f 350/146/315 348/878/315 347/144/315
f 350/146/295 353/879/295 348/878/295
f 379/880/383 382/881/297 356/85/298
f 366/882/299 357/883/299 363/118/299
f 378/884/300 357/885/300 368/886/300
f 379/887/384 355/153/302 383/152/303
f 358/166/385 369/186/14 367/888/13
f 358/166/385 370/167/305 369/186/14
f 353/102/386 344/873/379 349/875/377
f 354/889/309 380/109/310 383/890/303
f 354/889/387 355/891/387 381/110/387
f 360/892/321 359/893/274 362/894/277
f 360/895/321 362/896/277 361/897/276
f 359/898/274 361/899/276 362/900/277
f 359/901/274 360/902/321 361/903/276
f 363/118/48 378/119/50 371/904/91
f 376/107/322 364/195/322 371/194/322
f 365/83/323 376/38/323 369/905/323
f 363/118/388 377/906/388 366/882/388
f 366/907/19 365/908/389 369/45/20
f 368/46/15 369/45/14 371/909/328
f 378/884/329 368/886/15 371/910/328
f 374/911/324 343/912/390 383/913/303
f 374/911/324 383/913/303 380/914/310
f 379/880/383 375/915/391 382/881/297
f 343/912/390 379/916/384 383/913/303
f 385/917/280 384/918/281 387/919/282
f 384/920/281 385/921/280 386/922/283
f 384/923/281 386/924/283 387/925/282
f 385/926/280 387/927/282 386/928/283
f 388/929/392 391/930/393 389/931/394
f 388/929/392 390/932/395 391/930/393
f 390/933/395 388/934/392 389/935/394
f 390/933/395 389/935/394 391/936/393
f 392/937/396 393/938/397 395/939/398
f 392/937/396 397/940/399 393/938/397
f 397/941/399 392/942/396 394/943/400
f 394/944/401 392/945/402 396/946/403
f 397/947/399 394/948/400 393/949/397
f 394/944/401 396/946/403 393/950/404
f 392/945/396 395/951/398 396/946/405
f 393/952/397 396/953/405 395/954/398
f 401/955/392 398/956/406 399/957/407
f 401/955/392 399/957/407 400/958/408
f 398/959/406 401/960/392 400/961/408
f 398/959/406 400/961/408 399/962/407
f 402/963/401 403/964/403 405/965/404
f 406/966/399 404/967/396 402/968/400
f 402/963/401 404/969/402 403/964/403
f 406/970/399 402/971/400 405/972/397
f 404/969/396 407/973/398 403/964/405
f 405/974/397 403/975/405 407/976/398
f 404/977/396 405/978/397 407/979/398
f 404/977/396 406/980/399 405/978/397
f 408/981/409 409/982/410 411/983/411
f 408/981/409 411/983/411 410/984/412
f 409/985/410 408/986/409 410/987/412
f 409/985/410 410/987/412 411/988/411
f 412/989/413 414/990/414 415/991/415
f 412/989/413 413/992/416 414/990/414
f 413/993/416 412/994/413 415/995/415
f 413/993/416 415/995/415 414/996/414
f 417/997/417 416/998/418 418/999/417
f 416/1000/418 417/1001/417 418/1002/417
f 420/1003/419 421/1004/420 419/1005/420
f 421/1006/420 420/1007/419 419/1008/420
f 423/1009/421 424/1010/422 422/1011/422
f 424/1012/422 423/1013/421 422/1014/422
f 161/17/423 153/1015/423 154/18/423
f 154/18/424 155/93/424 157/172/424
f 155/93/425 156/1016/425 157/172/425
f 157/172/426 158/19/426 154/18/426
f 158/19/427 159/122/427 160/121/427
f 160/121/428 161/17/428 158/19/428
f 171/21/429 164/1017/429 165/1018/429
f 165/1018/430 166/22/430 171/21/430
f 166/22/431 167/528/431 170/20/431
f 167/528/432 168/553/432 170/20/432
f 168/553/433 163/1019/434 169/1020/435
f 170/20/436 168/553/436 169/1020/436
f 217/24/437 218/1021/437 215/25/437
f 218/1021/438 219/1022/438 215/25/438
f 219/1022/439 220/70/439 215/25/439
f 215/25/440 221/645/440 222/1023/440
f 236/28/441 237/132/441 239/1024/441
f 237/132/442 229/1025/442 239/1024/442
f 229/1025/443 238/176/443 239/1024/443
f 238/176/444 254/178/445 239/1024/446
f 240/26/447 241/66/447 226/27/447
f 239/1024/448 240/26/448 236/28/448
f 290/29/423 282/1026/423 283/30/423
f 283/30/449 284/101/449 286/181/449
f 284/101/450 285/1027/450 286/181/450
f 286/181/451 287/31/451 283/30/451
f 287/31/427 288/141/427 289/140/427
f 289/140/428 290/29/428 287/31/428
f 314/34/452 294/73/452 313/32/452
f 294/73/453 308/179/453 313/32/453
f 308/179/454 309/160/454 311/805/454
f 309/160/455 310/162/455 311/805/455
f 311/805/456 312/143/456 308/179/456
f 312/143/457 313/32/457 308/179/457
f 353/36/458 354/1028/458 351/37/458
f 354/1028/438 355/1029/438 351/37/438
f 355/1029/459 356/85/459 351/37/459
f 351/37/460 357/883/460 358/1030/460
f 372/40/461 373/148/461 375/1031/461
f 373/148/442 343/1032/442 375/1031/442
f 343/1032/443 374/187/443 375/1031/443
f 374/187/462 382/189/463 375/1031/464
f 376/38/465 377/84/465 345/39/465
f 375/1031/448 376/38/448 372/40/448
f 292/41/359 291/1033/333 282/42/466
f 347/1034/381 348/1035/467 349/1036/318
f 163/53/264 162/1037/239 153/54/468
f 171/56/469 179/90/469 178/57/469
f 184/59/46 185/111/45 156/60/470
f 228/62/471 227/652/471 216/63/471
f 247/65/472 245/1038/472 226/27/472
f 220/70/473 254/643/473 253/71/473
f 299/72/365 300/796/364 294/73/474
f 306/74/475 307/752/476 285/75/477
f 350/80/478 346/867/478 352/81/478
f 365/83/479 366/1039/479 345/39/479
f 356/85/473 382/881/473 381/86/473
f 172/531/480 161/1040/480 160/546/480
f 182/87/481 157/534/481 156/88/481
f 181/89/482 171/554/482 170/1041/482
f 217/94/294 224/639/293 225/95/483
f 239/97/484 248/1042/328 246/98/14
f 250/649/485 220/1043/485 219/137/485
f 293/762/486 290/1044/486 289/763/486
f 353/102/386 349/875/377 348/103/483
f 375/105/484 371/1045/328 369/106/14
f 379/887/485 356/1046/485 355/153/485
f 234/113/487 221/645/487 215/25/487
f 305/115/488 312/803/488 311/116/488
f 363/118/489 357/883/489 351/37/489
f 242/133/490 243/1047/490 222/134/490
f 317/77/491 316/79/491 313/32/491
f 367/149/490 368/1048/490 358/150/490
f 186/156/492 184/552/492 165/125/492
f 223/1049/314 225/1050/467 224/1051/318
f 222/158/493 245/50/494 244/52/495
f 310/164/496 307/752/476 306/74/475
f 358/166/497 366/185/497 370/167/497
f 154/543/498 153/1052/498 183/548/498
f 214/637/306 217/94/499 216/1053/307
f 235/174/500 241/681/500 240/175/500
f 283/759/501 282/1054/501 304/769/501
f 344/873/376 353/102/502 352/1055/378
f 364/183/500 377/906/500 376/184/500
f 58/288/154 48/289/147 56/300/163
f 50/272/143 58/288/154 57/274/144
f 160/121/503 161/17/503 159/122/503
f 161/17/504 162/526/504 159/122/504
f 181/89/258 157/534/505 159/536/259
f 185/111/506 183/556/506 153/537/506
f 154/1056/507 155/61/507 153/537/507
f 172/538/248 168/1057/508 169/550/265
f 170/123/509 171/56/509 169/124/509
f 171/56/510 178/57/510 169/124/510
f 186/112/511 165/1058/511 166/555/511
f 228/130/512 216/1059/512 217/640/512
f 245/644/513 222/1023/513 221/645/513
f 219/655/514 220/1060/514 253/49/514
f 253/49/515 252/48/310 218/653/309
f 227/652/516 236/1061/516 237/661/516
f 247/65/517 241/66/517 240/26/517
f 250/642/296 238/1062/518 239/680/326
f 289/140/519 290/29/519 288/141/519
f 290/29/520 291/747/520 288/141/520
f 303/765/351 286/749/521 288/751/352
f 307/752/371 305/767/370 282/753/522
f 283/1063/523 284/76/523 282/753/523
f 293/754/341 308/776/524 310/772/360
f 314/34/525 300/796/525 313/32/525
f 315/78/347 313/32/526 306/806/345
f 313/32/527 312/143/527 311/805/527
f 346/867/516 372/1064/528 373/868/516
f 350/146/512 352/1065/512 353/879/512
f 366/882/529 358/1030/529 357/883/529
f 355/891/514 356/1066/514 381/110/514
f 381/110/515 380/109/310 354/889/309
f 365/83/517 377/84/517 376/38/517
f 379/880/383 374/1067/530 375/915/391
