# Blender 4.5.0
# www.blender.org
mtllib sedan.lod1.mtl
o sedan
v 0.796672 1.423605 -0.580510
v 0.796672 1.423605 0.580510
v 1.132731 1.101963 0.671884
v 1.132731 1.101963 -0.671884
v -1.482175 1.119697 0.671884
v -1.130841 1.426023 0.580510
v -1.482175 1.119697 -0.671884
v -1.130841 1.426023 -0.580510
v -1.236161 1.056215 -0.826580
v 0.874255 1.056215 -0.826580
v -1.055268 1.403855 -0.711360
v 0.703412 1.403855 -0.711360
v 0.703412 1.403855 0.711360
v -1.055268 1.403855 0.711360
v -1.236161 1.056216 0.826580
v 0.874255 1.056216 0.826580
v 1.896790 0.481211 0.711588
v 1.896790 0.280967 -0.711588
v -1.897906 0.481198 0.710903
v -1.897906 0.280981 -0.710903
v 1.897786 0.481197 -0.710903
v -1.896910 0.481211 -0.711588
v 1.897786 0.280981 0.710903
v -1.896910 0.280967 0.711588
v 2.267703 0.869332 -0.676363
v 2.259882 0.868367 0.698276
v 2.260097 0.531725 -0.697124
v -2.259511 0.567000 -0.726430
v 2.258942 0.521537 0.695025
v 2.019550 0.452750 0.856935
v 2.009935 0.989765 0.852606
v 1.999489 0.994148 -0.851342
v 1.999754 0.446564 -0.856340
v -2.063061 0.467884 0.865396
v -2.053264 0.986294 0.863636
v -2.263580 0.578702 0.720191
v -2.051913 0.457855 -0.862503
v -2.260595 0.888180 0.708576
v -2.264673 0.868522 -0.724936
v -2.059834 1.025315 -0.790039
v -2.060006 0.916312 -0.890200
v 1.196245 0.984170 -0.820389
v 1.199070 0.979528 0.822820
v -1.538345 1.035919 -0.815049
v -1.535753 0.967198 -0.816769
v 0.750533 1.076128 -0.700303
v 0.753442 1.422388 0.676155
v 0.748513 1.433239 -0.678751
v 0.752517 1.011341 0.672971
v -1.071713 1.440907 -0.668848
v -1.082671 1.430722 0.679410
v -1.085746 1.012254 -0.674087
v -1.082424 1.076126 0.700236
v -1.541725 0.971850 0.813032
v -1.536977 1.043910 0.817922
v -0.178405 1.029332 -0.856644
v -0.174653 1.016313 -0.807966
v -0.152918 1.465142 -0.725567
v -0.198548 1.459371 -0.704385
v 0.724911 0.933695 -0.904541
v 0.572404 0.955450 -0.903728
v 0.724911 0.977206 -0.902915
v -1.024755 0.955450 -0.903728
v -1.177263 0.977206 -0.904540
v -1.177263 0.933695 -0.902916
v 0.892692 1.058144 -0.889528
v 0.892692 1.175204 -1.074227
v 0.735224 1.175204 -0.889528
v 0.736176 1.057802 -0.888754
v 0.735223 1.058144 -1.074226
v 0.891740 1.175547 -0.888754
v 0.736175 1.175547 -1.075000
v 0.891740 1.057802 -1.075000
v -0.174654 1.029465 0.856860
v -0.152917 1.459741 0.705488
v -0.178406 1.016308 0.808219
v -0.198547 1.465375 0.726707
v 0.733924 0.955450 0.903728
v 0.581417 0.977206 0.902915
v 0.581417 0.933695 0.904540
v -1.024756 0.955450 0.903728
v -1.177263 0.977206 0.902915
v -1.177263 0.933695 0.904540
v 0.892692 1.175205 0.889528
v 0.735224 1.175205 1.074226
v 0.735223 1.058144 0.889528
v 0.891740 1.057802 0.888754
v 0.891740 1.175547 1.075000
v 0.736175 1.057802 1.075000
v 0.892692 1.058144 1.074226
v 0.736176 1.175547 0.888754
v 1.045440 0.351734 -0.961434
v 1.173492 0.557876 -0.960470
v 1.410856 0.612127 -0.960069
v 1.616604 0.480097 -0.960039
v 1.666669 0.239506 -0.960280
v 1.491422 0.009048 -0.970621
v 1.480399 -0.000000 -0.760654
v 1.663706 0.228421 -0.761860
v 1.624080 0.468006 -0.762825
v 1.425489 0.609209 -0.763226
v 1.185014 0.566177 -0.763255
v 1.046933 0.363110 -0.763015
v 1.120883 0.082951 -0.752675
v 1.127615 0.070361 -0.962641
v 1.205857 0.445941 -0.974952
v 1.205381 0.153642 -0.977276
v 1.560849 0.249144 -0.976459
v 1.533500 0.401578 -0.976388
v 1.411218 0.096227 -0.976867
v 1.414677 0.502044 -0.978783
v 1.153052 0.299364 -0.977347
v 1.341197 0.295424 -0.954235
v 1.331692 0.304388 -0.969782
v 1.376868 0.305575 -0.981253
v 1.379899 0.303547 -0.964494
v 1.371827 0.297258 -0.953206
v 1.336981 0.469239 -0.963655
v 1.380498 0.462479 -0.967735
v 1.357308 0.457684 -0.992511
v 1.366413 0.322290 -0.969758
v 1.203535 0.362026 -0.947927
v 1.197005 0.341810 -0.990173
v 1.351780 0.277197 -0.966932
v 1.336864 0.308358 -0.980785
v 1.336689 0.311252 -0.966515
v 1.337711 0.308658 -0.956379
v 1.370279 0.284122 -0.956840
v 1.372487 0.283325 -0.968832
v 1.355644 0.297999 -1.000018
v 1.356175 0.300477 -0.987426
v 1.355981 0.305575 -0.992520
v 1.357620 0.299432 -0.992793
v 1.358980 0.295910 -0.992448
v 1.358173 0.301597 -0.988784
v 1.362464 0.301837 -0.995152
v 1.357536 0.303052 -0.993348
v 1.267559 0.170864 -0.990644
v 1.261904 0.170917 -0.992210
v 1.277320 0.154997 -0.963583
v 1.253317 0.163958 -0.951681
v 1.370244 0.284958 -0.981325
v 1.357291 0.305575 -0.945184
v 1.355855 0.305553 -0.945256
v 1.359094 0.295967 -0.945184
v 1.376127 0.311906 -0.959721
v 1.354602 0.298996 -0.949147
v 1.359926 0.303685 -0.944356
v 1.357072 0.300160 -0.939289
v 1.336743 0.287966 -0.964218
v 1.435746 0.154517 -0.978314
v 1.375561 0.308658 -0.981325
v 1.470659 0.179594 -0.958756
v 1.361513 0.277067 -0.969757
v 1.346916 0.322172 -0.966933
v 1.510011 0.361118 -0.990173
v 1.516579 0.340914 -0.947927
v 1.045440 0.351734 0.761860
v 1.173492 0.557876 0.762825
v 1.127615 0.070361 0.760654
v 1.410857 0.612127 0.763226
v 1.616604 0.480097 0.763256
v 1.666669 0.239507 0.763015
v 1.491422 0.009048 0.752674
v 1.663706 0.228421 0.961435
v 1.624080 0.468007 0.960470
v 1.120883 0.082951 0.970620
v 1.480399 0.000000 0.962640
v 1.425489 0.609209 0.960069
v 1.185013 0.566177 0.960039
v 1.046933 0.363110 0.960279
v 1.205857 0.155013 0.974952
v 1.560849 0.351810 0.976459
v 1.414677 0.098910 0.978783
v 1.411218 0.504727 0.976867
v 1.533500 0.199377 0.976388
v 1.205381 0.447312 0.977276
v 1.153052 0.301591 0.977347
v 1.333982 0.300975 0.966352
v 1.376743 0.305013 0.981325
v 1.379056 0.302608 0.959514
v 1.335072 0.465186 0.978310
v 1.378022 0.465475 0.958760
v 1.350794 0.299463 0.940650
v 1.360154 0.296740 0.945184
v 1.358980 0.295910 0.945256
v 1.341013 0.295428 0.954317
v 1.355981 0.305575 0.945184
v 1.359005 0.300477 0.949137
v 1.353029 0.296831 0.945256
v 1.358187 0.299348 0.948910
v 1.366413 0.322290 0.967947
v 1.197005 0.341811 0.947531
v 1.351780 0.277197 0.970773
v 1.203535 0.362027 0.989777
v 1.336962 0.312330 0.963349
v 1.337711 0.308658 0.981325
v 1.372837 0.279387 0.976662
v 1.369487 0.291115 0.977996
v 1.370244 0.284958 0.956379
v 1.275965 0.155241 0.958803
v 1.261222 0.175481 0.990644
v 1.263663 0.171012 0.992313
v 1.242420 0.183621 0.969393
v 1.357014 0.295584 0.997677
v 1.354440 0.298878 0.988212
v 1.359094 0.295967 0.992520
v 1.356819 0.301903 0.992793
v 1.355855 0.305553 0.992448
v 1.358552 0.300477 0.988794
v 1.355000 0.301669 0.994505
v 1.356397 0.306828 0.995152
v 1.359926 0.303686 0.993348
v 1.375993 0.308277 0.981253
v 1.377238 0.312284 0.964977
v 1.470908 0.183478 0.967737
v 1.439666 0.152363 0.963655
v 1.449337 0.173690 0.992511
v 1.369144 0.309588 0.956829
v 1.338807 0.281955 0.970475
v 1.361512 0.277067 0.967947
v 1.516579 0.340914 0.989777
v 1.510011 0.361118 0.947531
v 1.346916 0.322172 0.970771
v -1.585778 0.070361 -0.962641
v -1.667952 0.351733 -0.961434
v -1.539901 0.557876 -0.960470
v -1.302535 0.612127 -0.960069
v -1.096788 0.480096 -0.960039
v -1.221970 0.009048 -0.970620
v -1.089312 0.468006 -0.762825
v -1.232993 -0.000000 -0.760654
v -1.528379 0.566177 -0.763255
v -1.592509 0.082951 -0.752675
v -1.049686 0.228421 -0.761860
v -1.046723 0.239506 -0.960280
v -1.287903 0.609209 -0.763226
v -1.666459 0.363110 -0.763015
v -1.507535 0.445941 -0.974952
v -1.152543 0.249144 -0.976459
v -1.298715 0.502044 -0.978783
v -1.560340 0.299363 -0.977347
v -1.179892 0.401578 -0.976388
v -1.302174 0.096227 -0.976867
v -1.508011 0.153641 -0.977276
v -1.381474 0.304648 -0.969763
v -1.372195 0.295424 -0.954235
v -1.338386 0.469224 -0.962840
v -1.380646 0.462332 -0.969489
v -1.341565 0.297259 -0.953206
v -1.330121 0.305291 -0.968294
v -1.360438 0.297890 -0.995517
v -1.355975 0.305553 -0.992448
v -1.357217 0.300477 -0.987426
v -1.356442 0.305453 -0.991687
v -1.354412 0.295910 -0.992448
v -1.355219 0.301597 -0.988784
v -1.357134 0.295584 -0.997677
v -1.350928 0.301837 -0.995152
v -1.355856 0.303052 -0.993348
v -1.360673 0.457835 -0.990644
v -1.361612 0.277197 -0.966932
v -1.346978 0.322290 -0.969756
v -1.509857 0.362026 -0.947927
v -1.516388 0.341810 -0.990173
v -1.340301 0.279647 -0.972707
v -1.372138 0.310936 -0.962565
v -1.343113 0.284122 -0.956840
v -1.436072 0.154997 -0.963583
v -1.460075 0.163958 -0.951681
v -1.356101 0.305575 -0.945184
v -1.357537 0.305553 -0.945256
v -1.354298 0.295967 -0.945184
v -1.358790 0.298996 -0.949147
v -1.353466 0.303685 -0.944356
v -1.356320 0.300160 -0.939289
v -1.375681 0.308658 -0.956379
v -1.376528 0.308358 -0.980785
v -1.445833 0.170864 -0.990644
v -1.451488 0.170917 -0.992210
v -1.376649 0.287966 -0.964217
v -1.337831 0.308658 -0.981325
v -1.337265 0.311906 -0.959720
v -1.243787 0.179170 -0.979629
v -1.276655 0.154988 -0.956895
v -1.351879 0.277067 -0.969758
v -1.203381 0.361118 -0.990173
v -1.196813 0.340915 -0.947927
v -1.366474 0.322173 -0.966932
v -1.667952 0.351733 0.761860
v -1.539901 0.557876 0.762825
v -1.585778 0.070361 0.760654
v -1.302535 0.612127 0.763226
v -1.046723 0.239506 0.763015
v -1.232993 0.000000 0.962640
v -1.089312 0.468007 0.960470
v -1.287903 0.609209 0.960069
v -1.528379 0.566177 0.960039
v -1.221970 0.009048 0.752674
v -1.049686 0.228421 0.961435
v -1.096788 0.480096 0.763256
v -1.666459 0.363110 0.960279
v -1.592509 0.082951 0.970620
v -1.507535 0.155013 0.974952
v -1.508011 0.447313 0.977276
v -1.298715 0.098910 0.978783
v -1.302174 0.504727 0.976867
v -1.179891 0.199377 0.976388
v -1.152543 0.351810 0.976459
v -1.560340 0.301591 0.977347
v -1.335369 0.465475 0.958760
v -1.363788 0.472468 0.969442
v -1.328033 0.309020 0.970370
v -1.340927 0.300477 0.980875
v -1.372341 0.340370 1.012551
v -1.373121 0.300477 0.959432
v -1.380899 0.305988 0.968061
v -1.359981 0.298128 0.986015
v -1.354298 0.295967 0.992520
v -1.353149 0.296832 0.992448
v -1.357079 0.305330 0.988158
v -1.360274 0.296740 0.992520
v -1.336571 0.277467 0.972385
v -1.357494 0.302947 0.993278
v -1.357537 0.297864 0.993348
v -1.357296 0.300477 0.998416
v -1.509857 0.362027 0.989777
v -1.516388 0.341810 0.947531
v -1.346978 0.322290 0.967949
v -1.361612 0.277197 0.970772
v -1.350017 0.298735 0.949628
v -1.459136 0.163472 0.949393
v -1.445833 0.170864 0.947060
v -1.436178 0.154389 0.978946
v -1.369995 0.310121 0.978272
v -1.385495 0.309691 0.966653
v -1.369995 0.310121 0.959432
v -1.375725 0.285003 0.968234
v -1.329880 0.311819 0.965497
v -1.340788 0.310075 0.974161
v -1.357192 0.300795 0.939289
v -1.350928 0.301837 0.942552
v -1.360093 0.296196 0.944697
v -1.357411 0.305575 0.945184
v -1.355975 0.305553 0.945256
v -1.354387 0.300477 0.949137
v -1.354412 0.295910 0.945256
v -1.355205 0.301607 0.948910
v -1.276655 0.154988 0.980810
v -1.243934 0.178657 0.958803
v -1.351880 0.277067 0.967947
v -1.196813 0.340915 0.989777
v -1.203381 0.361118 0.947531
v -1.366474 0.322173 0.970773
v 2.287632 0.727417 -0.398232
v 2.287632 0.901342 -0.707482
v 2.284816 0.727417 -0.707482
v 2.284816 0.901342 -0.398232
v -2.284932 0.767530 -0.408568
v -2.287756 0.767530 -0.697147
v -2.287755 0.951916 -0.408567
v -2.284931 0.951917 -0.697146
v 2.287632 0.901342 0.398232
v 2.287632 0.727417 0.707482
v 2.284816 0.727417 0.398232
v 2.284816 0.901342 0.707482
v -2.284932 0.951917 0.408568
v -2.287756 0.951917 0.697146
v -2.287755 0.767531 0.408567
v -2.284931 0.767530 0.697146
v 2.298868 0.622955 0.303904
v 2.303729 0.501978 0.303904
v 2.298868 0.501978 -0.303904
v 2.303729 0.622955 -0.303904
v -2.305386 0.644187 -0.159864
v -2.305386 0.510975 0.159864
v -2.307500 0.510975 -0.159864
v -2.307500 0.644187 0.159864
v 2.314500 0.631901 0.402362
v 2.312216 0.659295 0.402362
v 2.313358 0.645597 -0.408553
v 2.314500 0.719754 -0.402362
v 2.312216 0.692360 -0.402362
v 2.313358 0.706057 0.408553
v 2.313358 0.766516 0.408553
v 2.314500 0.780213 -0.402362
v 2.312216 0.752819 -0.402362
vn 0.6914 0.7224 -0.0000
vn -0.6572 0.7537 -0.0000
vn -0.0000 0.3146 -0.9492
vn -0.0000 0.3146 0.9492
vn -0.9991 0.0034 0.0415
vn 0.5481 0.8249 0.1380
vn 0.1139 0.7358 -0.6675
vn 0.3314 0.7213 -0.6082
vn -0.9176 -0.1664 -0.3611
vn 0.5481 0.8249 0.1381
vn 0.8905 0.3806 0.2493
vn -0.9032 0.4059 -0.1394
vn -0.2638 0.8865 0.3802
vn 0.5351 0.0265 -0.8444
vn 0.7600 0.4538 0.4654
vn 0.7661 -0.6225 0.1596
vn 0.8050 0.5832 -0.1087
vn -0.7321 0.0755 0.6770
vn -0.5939 0.3780 0.7103
vn -0.7704 -0.1938 0.6074
vn 0.8025 -0.5961 -0.0242
vn 0.8027 -0.5961 -0.0205
vn 0.7799 -0.5872 -0.2168
vn -0.6584 -0.5290 0.5355
vn -0.3614 0.8907 -0.2758
vn 0.3577 0.7195 0.5952
vn -0.3369 0.9102 -0.2410
vn 0.1836 -0.9659 0.1824
vn 0.6305 -0.2751 0.7258
vn 0.4207 -0.7080 -0.5673
vn 0.3164 -0.9388 0.1365
vn -0.8663 -0.2671 -0.4222
vn -0.2771 0.9314 -0.2359
vn 0.3748 -0.8330 0.4070
vn 0.7192 0.2705 -0.6399
vn 0.5055 -0.6662 -0.5483
vn 0.4207 -0.7079 -0.5673
vn 0.3480 -0.9286 0.1288
vn -0.1067 0.8342 -0.5411
vn 0.4268 -0.8119 0.3983
vn -0.1061 0.9887 0.1056
vn -0.5710 0.3369 0.7486
vn -0.0277 0.9996 -0.0000
vn 0.4478 0.5592 0.6976
vn -0.1582 0.0015 -0.9874
vn -0.7798 0.3679 0.5065
vn 0.7319 0.5261 0.4330
vn 0.7033 0.5062 0.4991
vn 0.8093 0.5774 -0.1080
vn 0.8993 0.0037 -0.4374
vn 0.8668 0.0032 -0.4986
vn 0.9945 0.0068 0.1047
vn 0.1129 0.9744 0.1943
vn 0.7893 -0.5930 -0.1593
vn 0.0749 -0.9131 -0.4008
vn 0.7795 -0.5714 -0.2566
vn -0.1270 -0.0938 0.9875
vn -0.6899 0.1393 -0.7104
vn -0.6899 0.1391 -0.7104
vn -0.6899 0.1392 -0.7104
vn -0.6001 0.0317 0.7993
vn -0.2747 0.7941 -0.5422
vn -0.2601 -0.2213 0.9399
vn 0.1178 -0.9594 0.2563
vn 0.0882 -0.0341 0.9955
vn -0.7732 0.6340 0.0088
vn 0.3233 0.9282 -0.1843
vn -0.1900 0.9617 -0.1974
vn -0.6944 0.7121 -0.1037
vn 0.3947 0.8918 -0.2213
vn -0.2076 0.9743 -0.0878
vn 0.9839 -0.0074 -0.1788
vn -0.0515 0.1057 0.9931
vn -0.2978 0.1836 -0.9368
vn 0.0139 -0.0920 -0.9957
vn -0.0429 0.0825 0.9957
vn 0.6604 -0.4191 -0.6231
vn -0.7806 0.4774 -0.4035
vn -0.5685 -0.2854 -0.7716
vn -0.7929 0.5897 0.1535
vn 0.5782 -0.3197 -0.7506
vn 0.7643 0.5484 -0.3391
vn 0.7899 0.5786 0.2032
vn 0.0206 -0.1157 -0.9931
vn 0.2501 0.0771 0.9652
vn 0.9969 0.0688 0.0374
vn -0.0516 0.1126 0.9923
vn 0.2477 0.1293 -0.9602
vn 0.7922 0.0009 0.6102
vn 0.7945 -0.0005 0.6072
vn 0.7935 0.0042 0.6085
vn -0.3497 0.2221 -0.9101
vn 0.6142 0.5091 -0.6029
vn 0.8418 0.2877 -0.4567
vn 0.6355 -0.2631 0.7259
vn 0.4901 0.3717 -0.7884
vn 0.5533 -0.6884 0.4690
vn 0.6552 -0.3188 -0.6849
vn 0.5704 -0.6462 -0.5071
vn -0.4537 -0.6240 0.6362
vn -0.7981 -0.5929 0.1071
vn 0.0872 0.9671 0.2390
vn 0.0871 0.9671 0.2389
vn 0.0874 0.9671 0.2390
vn 0.4297 0.3132 0.8469
vn 0.5275 -0.0006 -0.8496
vn 0.2729 -0.2298 0.9342
vn 0.0175 0.9350 0.3543
vn 0.0210 -0.0713 0.9972
vn 0.0938 -0.9657 0.2419
vn 0.0512 0.0774 -0.9957
vn 0.4493 -0.3192 0.8344
vn 0.7766 -0.6297 0.0195
vn 0.7766 -0.6296 -0.0217
vn -0.8689 0.4943 0.0248
vn -0.8412 0.4975 0.2121
vn -0.8572 0.5145 0.0227
vn -0.8282 0.4733 -0.3002
vn -0.0000 1.0000 -0.0000
vn 0.7089 -0.0005 -0.7054
vn 0.7050 0.0012 0.7092
vn 0.7089 0.0005 0.7054
vn -0.7089 -0.0005 0.7054
vn -0.7050 -0.0012 0.7092
vn -0.0000 -1.0000 -0.0000
vn 0.7050 -0.0012 -0.7092
vn -0.7050 0.0012 -0.7092
vn -0.7089 0.0005 -0.7054
vn 0.7803 -0.4838 -0.3964
vn 0.5438 0.0271 -0.8388
vn 0.8652 0.0113 -0.5014
vn 0.8157 0.4333 0.3832
vn 0.7792 -0.5100 0.3645
vn 0.5653 -0.5360 0.6270
vn 0.6141 0.5554 0.5608
vn 0.5576 -0.5463 -0.6251
vn -0.3170 -0.6586 0.6825
vn -0.8219 -0.4278 -0.3761
vn -0.4642 -0.8857 0.0021
vn -1.0000 0.0061 -0.0021
vn -0.8635 0.3476 -0.3654
vn -0.8404 -0.4018 0.3637
vn 0.0009 0.7044 0.7098
vn -0.0002 -0.7057 0.7086
vn 0.4235 0.9059 -0.0000
vn 0.4220 0.9066 -0.0003
vn 0.0019 1.0000 -0.0094
vn -0.2261 0.5162 0.8261
vn -0.3090 0.8745 -0.3738
vn -0.3201 0.3111 -0.8948
vn 0.0042 -0.7106 -0.7036
vn 0.0094 0.0091 -0.9999
vn -0.2217 -0.5457 -0.8081
vn -0.6093 0.0356 0.7921
vn -0.4555 0.8900 0.0204
vn -0.4416 0.8969 0.0229
vn 0.6707 -0.3239 0.6673
vn -0.0774 -0.8853 -0.4586
vn 0.6604 -0.3586 -0.6598
vn -0.4495 -0.6006 -0.6613
vn -0.5557 0.3302 0.7630
vn -0.6083 0.3374 -0.7184
vn -0.6525 0.7578 -0.0018
vn 0.1373 -0.7425 -0.6556
vn 0.2975 0.0019 -0.9547
vn -0.1280 -0.7548 0.6434
vn 0.0124 0.7034 0.7107
vn 0.0851 -0.8824 0.4628
vn 0.0044 0.7239 0.6899
vn -0.3186 -0.0066 0.9479
vn 0.7064 0.7078 0.0018
vn 0.5786 0.7058 -0.4088
vn 0.0044 1.0000 0.0078
vn 0.0043 1.0000 0.0076
vn -0.2488 0.0569 -0.9669
vn -0.6482 0.7615 0.0005
vn -0.0136 0.0185 -0.9997
vn -0.0052 0.0602 -0.9982
vn -0.4753 -0.6175 0.6267
vn 0.2386 0.0439 0.9701
vn 0.2258 0.0573 0.9725
vn 0.0408 -0.9431 0.3301
vn -0.0437 -0.6527 -0.7564
vn 0.5086 0.8607 -0.0223
vn -0.5081 0.7347 0.4495
vn -0.0171 0.9999 -0.0000
vn -0.0170 0.9999 -0.0000
vn 1.0000 -0.0000 -0.0000
vn 0.5724 -0.5792 -0.5804
vn 0.5814 -0.5766 0.5740
vn -0.5724 -0.5792 0.5804
vn 0.5814 0.5766 -0.5740
vn 0.5724 0.5792 0.5804
vn -0.5724 0.5792 -0.5804
vn -0.5814 0.5766 0.5740
vn -0.5814 -0.5766 -0.5740
vn -0.0436 -0.9430 -0.3301
vn 0.0410 -0.6527 0.7565
vn -0.5073 0.8614 0.0246
vn 0.5094 0.7353 -0.4471
vn -0.0000 -0.9981 0.0608
vn -0.7713 0.1022 -0.6282
vn -0.5322 -0.5950 -0.6024
vn -0.5445 -0.5425 0.6397
vn -0.9859 0.1671 0.0101
vn -0.4522 0.6289 -0.6325
vn -0.4195 0.6525 0.6310
vn 0.1304 0.7641 -0.6317
vn 0.6372 0.4422 -0.6312
vn 0.1725 0.7557 0.6318
vn 0.6583 0.4079 0.6326
vn -0.0006 0.0160 -0.9999
vn 0.9749 -0.2223 -0.0101
vn 0.2953 -0.7097 -0.6396
vn 0.7518 -0.2003 0.6282
vn 0.2638 -0.7535 0.6022
vn 0.0067 0.0145 0.9999
vn -0.7013 0.7126 0.0200
vn -0.5916 -0.8062 -0.0037
vn 0.2590 -0.9659 -0.0000
vn 0.9153 -0.4026 0.0036
vn 0.9154 0.4024 0.0118
vn 0.2507 0.9679 -0.0200
vn -0.9940 -0.1085 -0.0118
vn -0.0301 -0.9927 0.1168
vn -0.0253 -0.9971 0.0723
vn -0.0988 -0.9946 0.0330
vn -0.7103 0.0209 0.7036
vn -0.5384 0.0326 0.8421
vn -0.8834 0.0168 -0.4683
vn -0.3318 -0.9070 -0.2594
vn -0.9990 0.0331 -0.0292
vn 0.4748 -0.0041 -0.8801
vn 0.7253 0.0424 -0.6871
vn 0.6616 0.0312 0.7492
vn 0.8110 0.0089 0.5849
vn 0.2234 0.6046 0.7646
vn 0.4584 0.0596 0.8867
vn 0.1713 0.6725 0.7200
vn -0.7030 0.0436 -0.7099
vn 0.5690 -0.8213 0.0419
vn 0.9444 0.3268 -0.0355
vn -0.6742 0.5051 0.5387
vn -0.8387 -0.0078 -0.5445
vn 0.5995 0.7440 0.2950
vn -0.8698 0.4828 -0.1014
vn -0.6824 -0.4669 0.5624
vn -0.4094 0.2950 -0.8633
vn 0.6043 0.7857 -0.1324
vn -0.4114 0.2682 0.8711
vn 0.4004 -0.3329 0.8537
vn 0.7930 -0.5805 0.1846
vn -0.5722 0.8143 0.0976
vn -0.5201 0.8541 0.0079
vn -0.5209 0.8534 0.0191
vn -0.7867 -0.5993 0.1483
vn -0.6529 -0.4177 -0.6318
vn 0.0636 -0.9713 -0.2292
vn 0.3874 -0.3788 -0.8405
vn 0.3266 -0.3532 -0.8767
vn 0.4504 0.1763 -0.8753
vn 0.6229 -0.7809 -0.0459
vn -0.4958 -0.1071 0.8618
vn -0.3828 -0.4022 0.8317
vn -0.4996 -0.4606 0.7337
vn -0.7151 0.5210 0.4660
vn -0.9431 0.3297 0.0420
vn -0.5718 -0.8196 -0.0354
vn 0.8421 -0.0114 0.5391
vn 0.6736 0.5002 -0.5441
vn -0.7013 -0.7126 -0.0200
vn -0.5916 0.8062 0.0037
vn 0.2590 0.9659 -0.0000
vn 0.9154 0.4026 -0.0036
vn 0.9154 -0.4024 -0.0118
vn 0.2507 -0.9679 0.0200
vn -0.9940 0.1085 0.0118
vn -0.0317 -0.9955 -0.0897
vn -0.1632 -0.9641 -0.2093
vn 0.0386 -0.9991 0.0158
vn -0.9984 0.0106 -0.0550
vn -0.7621 -0.0420 0.6461
vn -0.5190 0.8234 0.2295
vn 0.0281 -0.9982 -0.0529
vn -0.7190 0.0725 -0.6912
vn -0.4643 -0.2040 -0.8619
vn 0.4682 0.1214 0.8752
vn 0.0440 0.9979 0.0465
vn -0.5456 0.1012 -0.8319
vn 0.4898 0.3172 -0.8121
vn 0.5346 -0.4433 -0.7196
vn 0.2873 -0.2262 -0.9307
vn 0.6790 0.7332 -0.0381
vn 0.8563 0.5144 -0.0456
vn 0.6139 0.7578 0.2210
vn -0.7062 0.6829 -0.1869
vn -0.6034 0.2561 -0.7552
vn -0.5636 -0.4345 -0.7025
vn -0.4159 -0.3418 -0.8428
vn -0.7050 -0.5325 0.4684
vn 0.9444 0.3268 -0.0354
vn 0.3004 -0.1984 0.9330
vn -0.4474 0.2676 0.8534
vn -0.4208 0.2371 0.8756
vn 0.8836 0.4473 -0.1384
vn 0.8136 -0.2090 -0.5425
vn 0.4312 -0.3121 0.8466
vn 0.0808 -0.8901 0.4486
vn 0.3818 0.2817 0.8803
vn -0.5294 -0.4425 0.7238
vn -0.7871 -0.6150 0.0463
vn -0.7036 0.7083 0.0573
vn -0.8431 0.3768 0.3837
vn -0.6050 0.7877 0.1160
vn 0.6120 0.3910 0.6874
vn -0.5627 0.7684 0.3049
vn -0.7012 0.7126 0.0200
vn 0.9154 -0.4026 0.0036
vn -0.9992 0.0053 -0.0407
vn -0.8575 0.0036 0.5145
vn -0.9151 0.0055 -0.4032
vn -0.6589 0.0048 -0.7522
vn 0.0090 -0.9926 0.1215
vn 0.0118 -0.9996 0.0254
vn -0.0611 -0.9975 0.0365
vn -0.5107 0.1413 0.8481
vn -0.2474 0.5870 0.7709
vn -0.7304 0.6195 0.2875
vn -0.5914 0.1542 0.7915
vn -0.3551 -0.8929 -0.2769
vn 0.6558 0.0301 0.7543
vn 0.9986 0.0498 0.0155
vn -0.8507 -0.0200 -0.5252
vn -0.5209 -0.5429 -0.6587
vn -0.5486 -0.5854 -0.5969
vn 0.4901 -0.4192 -0.7643
vn 0.7296 -0.5863 -0.3521
vn 0.6818 0.0586 -0.7292
vn 0.4248 0.2973 -0.8551
vn -0.6742 0.5052 0.5387
vn 0.7677 -0.5682 0.2963
vn 0.6756 0.7271 -0.1225
vn -0.5501 -0.3882 0.7394
vn -0.7151 0.5211 0.4660
vn -0.6421 -0.4486 0.6217
vn 0.8421 -0.0114 0.5392
vn -0.6588 0.0835 -0.7477
vn -0.8881 0.0950 -0.4496
vn -0.6612 0.7464 -0.0755
vn 0.5975 0.7718 -0.2173
vn 0.5628 0.0950 0.8211
vn 0.9872 0.0573 0.1490
vn -0.1050 -0.9896 -0.0980
vn 0.1598 -0.9553 0.2486
vn 0.0645 -0.9794 -0.1914
vn 0.0719 -0.8152 -0.5747
vn 0.0777 -0.9227 0.3776
vn 0.6699 -0.0237 -0.7421
vn -0.9886 0.1007 0.1124
vn 0.0308 -0.6010 -0.7986
vn 0.6988 0.7153 0.0002
vn 0.7171 0.6867 -0.1193
vn 0.7055 0.7078 -0.0359
vn -0.7601 -0.6468 -0.0621
vn -0.2577 0.8569 0.4464
vn -0.6460 0.2453 0.7229
vn -0.8861 0.4560 -0.0827
vn 0.8592 0.4985 -0.1151
vn 0.6404 0.2869 0.7124
vn 0.4987 -0.4483 -0.7418
vn 0.4183 -0.7903 -0.4477
vn 0.6773 0.7299 0.0925
vn 0.7209 -0.5021 -0.4777
vn -0.4849 0.3394 -0.8060
vn -0.6401 0.7643 0.0784
vn -0.5827 0.8127 -0.0034
vn -0.5892 0.8053 0.0663
vn 0.8483 -0.4970 -0.1830
vn -0.4796 -0.5324 -0.6975
vn 0.4218 0.3150 -0.8502
vn 0.0107 0.6522 -0.7579
vn -0.0107 0.6523 0.7579
vn 0.0107 -0.6522 0.7579
vn -0.0107 -0.6523 -0.7579
vn 0.0118 0.6639 -0.7478
vn 0.0118 -0.6639 0.7478
vn -0.0118 -0.6639 -0.7478
vn -0.0118 0.6639 0.7478
vn 0.0118 0.6638 -0.7478
vn 0.0118 -0.6638 0.7478
vn -0.0118 -0.6638 -0.7478
vn -0.0118 0.6638 0.7478
vn 0.0224 0.5829 -0.8122
vn -0.0224 0.5829 0.8122
vn 0.0224 -0.5829 0.8122
vn -0.0224 -0.5829 -0.8122
vn 0.0067 0.6274 -0.7787
vn 0.0067 -0.6274 0.7787
vn -0.0067 -0.6274 -0.7787
vn -0.0067 0.6274 0.7787
vn -0.0000 -0.3803 -0.9249
vn -0.0000 -0.3953 -0.9185
vn -0.0000 -0.4384 -0.8988
vn 0.2871 -0.3947 -0.8728
vn 0.2042 -0.4084 -0.8897
vn -0.0000 0.3125 -0.9499
vn -0.0000 0.2758 -0.9612
vn 0.2138 0.2940 -0.9316
vn 0.9176 0.2583 -0.3021
vn 0.8972 0.3166 -0.3080
vn 0.8971 0.3166 -0.3081
vn -0.8955 -0.3238 0.3053
vn 0.0224 -0.8000 0.5996
vn -0.0356 -0.5049 0.8625
vn -0.2005 -0.4713 0.8589
vn -0.4182 0.4280 0.8012
vn -0.1051 0.7293 0.6761
vn -0.1053 0.7291 0.6762
vn -0.1053 0.7292 0.6761
vn 0.6748 0.3709 0.6381
vn -0.4763 -0.3026 0.8256
vn -0.4179 -0.8331 0.3624
vn -0.4601 0.5950 -0.6590
vn -0.1441 -0.9310 -0.3353
vn -0.6048 0.1978 -0.7714
vn 0.4588 -0.3584 -0.8130
vn 0.6211 -0.2159 -0.7534
vn 0.9348 -0.3536 -0.0329
vn 0.9175 -0.2251 -0.3278
vn -0.9159 -0.2628 -0.3034
vn -0.7431 -0.3120 0.5919
vn -0.9148 -0.2700 -0.3003
vn -0.7872 0.2819 -0.5485
vn 0.9841 -0.0751 -0.1611
vn 0.1795 -0.5162 0.8374
vn -0.7730 0.5653 0.2880
vn -0.5174 -0.5142 0.6840
vn 0.8789 -0.4264 -0.2136
vn 0.4729 0.7671 -0.4335
vn -0.0359 -0.5049 0.8624
vn -0.1049 0.7294 0.6760
vn -0.1053 0.7293 0.6760
vn -0.1053 0.7294 0.6760
vn 0.6748 0.3709 0.6380
vn -0.5983 -0.7536 0.2723
vn -0.2134 0.3599 0.9083
vn -0.9121 0.3950 0.1097
vn 0.4586 -0.3072 0.8339
vn -0.9990 0.0091 0.0429
vn 0.9044 0.3971 0.1561
vn 0.4952 0.8512 -0.1741
vn 0.3789 -0.7954 -0.4731
vn 0.0507 0.0373 -0.9980
vn 0.9583 0.0934 -0.2699
vn 0.9408 0.2166 -0.2609
vn -0.9383 -0.2695 0.2165
vn -0.3364 0.9201 0.2007
vn 0.7736 0.0314 -0.6329
vn -0.8665 -0.4216 0.2675
vn 0.4695 0.7208 -0.5098
vn 0.2821 -0.9450 -0.1654
vn 0.9677 -0.1664 0.1893
vn -0.3237 0.9369 -0.1324
vn 0.2917 -0.9469 0.1353
vn 0.7404 0.6663 0.0884
vn 0.9601 -0.1738 0.2191
vn 0.7068 -0.2557 0.6596
vn 0.5397 0.3733 0.7546
vn -0.8161 0.0072 -0.5778
vn 0.3431 -0.2742 0.8984
vn -0.7939 0.2457 -0.5562
vn -0.5114 -0.6643 0.5452
vn -0.3078 0.5321 0.7887
vn 0.0572 0.7827 -0.6197
vn -0.6565 -0.4845 0.5781
vn -0.6937 0.2338 -0.6813
vn -0.4575 0.5320 0.7125
vn 0.0516 0.9183 -0.3924
vn -0.1754 0.8775 -0.4464
vn -0.5661 0.5145 -0.6441
vn -0.4942 0.6991 -0.5168
vn -0.7665 0.2678 -0.5838
vn 0.2600 -0.1963 -0.9454
vn 0.8724 0.0997 0.4785
vn -0.2539 0.1557 -0.9546
vn 0.1195 0.9479 -0.2953
vn 0.8402 0.5362 -0.0810
vn 0.8400 0.5365 -0.0810
vn 0.8401 0.5363 -0.0810
vn 0.7901 0.1584 0.5921
vn 0.6546 -0.6960 0.2950
vn 0.6642 0.1905 -0.7229
vn 0.6942 0.7187 -0.0380
vn -0.5245 -0.6118 -0.5922
vn -0.0985 0.8420 0.5303
vn -0.2816 0.1970 0.9391
vn -0.7053 -0.0860 0.7037
vn -0.5683 -0.4824 -0.6666
vn -0.7517 0.0083 0.6595
vn -0.8068 0.4474 0.3858
vn 0.0093 -0.9933 0.1152
vn 0.3597 -0.6527 -0.6668
vn -0.3634 -0.8215 -0.4394
vn -0.8363 -0.0983 -0.5394
vn 0.1305 0.5500 -0.8249
vn 0.4592 0.1865 -0.8685
vn -0.6528 0.0224 0.7572
vn -0.4150 -0.6984 -0.5831
vn 0.4301 -0.3657 0.8254
vn 0.4814 0.1183 0.8685
vn -0.6477 0.3304 0.6866
vn -0.4158 0.1196 0.9016
vn -0.5461 0.7393 -0.3940
vn 0.2498 -0.8627 -0.4398
vn -0.1222 0.7562 0.6429
vn 0.0136 -0.9995 0.0274
vn 0.0137 -0.9995 0.0274
vn -0.7851 -0.3279 -0.5255
vn -0.7287 -0.0155 -0.6847
vn -0.1838 -0.9712 0.1515
vn -0.9688 -0.2158 0.1215
vn -0.4960 0.4163 0.7621
vn 0.8703 0.4196 -0.2578
vn 0.3960 -0.5693 0.7205
vn -0.3465 -0.6946 -0.6305
vn 0.4977 0.8673 -0.0000
vn -0.6923 0.2265 0.6851
vn -0.4511 0.6511 0.6103
vn 0.4817 -0.4413 -0.7571
vn 0.7407 0.4329 -0.5139
vn 0.4869 0.1805 -0.8546
vt 0.924774 0.656973
vt 0.924774 0.799302
vt 0.883714 0.810950
vt 0.883714 0.646218
vt 0.189042 0.751174
vt 0.189042 0.915906
vt 0.146086 0.904280
vt 0.146086 0.761951
vt 0.187452 0.558747
vt 0.187452 0.747174
vt 0.146086 0.719509
vt 0.146086 0.562486
vt 0.674095 0.491320
vt 0.674095 0.706268
vt 0.631611 0.728249
vt 0.631611 0.470312
vt 0.982850 0.904263
vt 0.982509 0.904789
vt 0.982858 0.903779
vt 0.560423 0.961334
vt 0.559104 0.961529
vt 0.560795 0.961194
vt 0.611198 0.962974
vt 0.611381 0.962700
vt 0.611667 0.963195
vt 0.981041 0.932388
vt 0.981302 0.932090
vt 0.981854 0.932392
vt 0.981041 0.926690
vt 0.981041 0.927496
vt 0.981917 0.926720
vt 0.532664 0.961334
vt 0.531344 0.961529
vt 0.533035 0.961194
vt 0.495000 0.962062
vt 0.494912 0.960869
vt 0.495059 0.961128
vt 0.630973 0.961111
vt 0.631025 0.961735
vt 0.631694 0.960708
vt 0.983039 0.595265
vt 0.985592 0.594182
vt 0.986123 0.595265
vt 0.945234 0.328490
vt 0.963741 0.327854
vt 0.964692 0.328490
vt 0.945456 0.826572
vt 0.962406 0.827411
vt 0.945366 0.826736
vt 0.993834 0.341901
vt 0.992635 0.340062
vt 0.994323 0.342100
vt 0.945651 0.833605
vt 0.962941 0.834307
vt 0.945602 0.833770
vt 0.982293 0.861917
vt 0.984233 0.860994
vt 0.984163 0.861618
vt 0.632306 0.961749
vt 0.633801 0.960677
vt 0.634269 0.960904
vt 0.983605 0.428268
vt 0.982850 0.430805
vt 0.981041 0.432509
vt 0.946429 0.948740
vt 0.944777 0.948111
vt 0.944527 0.946250
vt 0.985037 0.763154
vt 0.982136 0.761606
vt 0.985461 0.762789
vt 0.981917 0.585911
vt 0.984126 0.586588
vt 0.981041 0.586588
vt 0.985369 0.565019
vt 0.983100 0.564202
vt 0.986160 0.564790
vt 0.982223 0.851838
vt 0.984563 0.852494
vt 0.981041 0.852494
vt 0.963850 0.325168
vt 0.964379 0.327531
vt 0.946429 0.958141
vt 0.944777 0.957512
vt 0.944527 0.955651
vt 0.985037 0.746030
vt 0.982136 0.744481
vt 0.985461 0.745664
vt 0.981917 0.577212
vt 0.984126 0.577888
vt 0.981041 0.577888
vt 0.981415 0.856874
vt 0.984328 0.856494
vt 0.983958 0.856994
vt 0.985010 0.247790
vt 0.984229 0.249213
vt 0.984231 0.246904
vt 0.492542 0.961387
vt 0.494832 0.962014
vt 0.963723 0.341644
vt 0.945182 0.341421
vt 0.964473 0.341484
vt 0.560911 0.962051
vt 0.565727 0.980438
vt 0.944869 0.867067
vt 0.961741 0.867152
vt 0.944779 0.867230
vt 0.963761 0.423248
vt 0.944943 0.422388
vt 0.963774 0.421132
vt 0.992357 0.235812
vt 0.995263 0.234752
vt 0.992275 0.237934
vt 0.945495 0.855471
vt 0.962756 0.856327
vt 0.945452 0.855638
vt 0.945275 0.334872
vt 0.963816 0.335049
vt 0.944527 0.335072
vt 0.533151 0.962051
vt 0.537968 0.980438
vt 0.963723 0.318202
vt 0.964329 0.320797
vt 0.963708 0.320954
vt 0.496949 0.959702
vt 0.496183 0.959745
vt 0.982668 0.244447
vt 0.491792 0.980402
vt 0.992682 0.214411
vt 0.993821 0.219113
vt 0.991823 0.216715
vt 0.992861 0.225632
vt 0.993821 0.230163
vt 0.991823 0.227765
vt 0.945124 0.386603
vt 0.963660 0.386461
vt 0.963655 0.386626
vt 0.566951 0.943622
vt 0.560964 0.961242
vt 0.938437 0.989442
vt 0.938125 0.971226
vt 0.938437 0.971206
vt 0.962274 0.876259
vt 0.945322 0.874217
vt 0.944901 0.874099
vt 0.945144 0.349108
vt 0.963713 0.350847
vt 0.964158 0.350966
vt 0.945322 0.858484
vt 0.944527 0.857929
vt 0.981041 0.342085
vt 0.981055 0.342258
vt 0.996343 0.005422
vt 0.981127 0.003912
vt 0.981083 0.002000
vt 0.945423 0.850588
vt 0.962456 0.851262
vt 0.945463 0.850728
vt 0.536700 0.942959
vt 0.533204 0.961242
vt 0.962763 0.862484
vt 0.944547 0.862796
vt 0.944527 0.862484
vt 0.945593 0.829605
vt 0.944527 0.829158
vt 0.495012 0.955957
vt 0.495286 0.961705
vt 0.620174 0.975207
vt 0.631814 0.961169
vt 0.638111 0.977522
vt 0.631560 0.961876
vt 0.632003 0.961427
vt 0.983002 0.801964
vt 0.985961 0.802790
vt 0.981041 0.802790
vt 0.945638 0.817535
vt 0.946843 0.819950
vt 0.945009 0.817479
vt 0.945013 0.848265
vt 0.944527 0.851466
vt 0.983788 0.866131
vt 0.981041 0.866763
vt 0.981237 0.865916
vt 0.634262 0.961491
vt 0.985037 0.754592
vt 0.982121 0.752709
vt 0.985418 0.753788
vt 0.992364 0.213778
vt 0.995275 0.212736
vt 0.560280 0.962269
vt 0.544721 0.972529
vt 0.558940 0.960596
vt 0.963701 0.459138
vt 0.945130 0.457119
vt 0.963828 0.456816
vt 0.964317 0.519591
vt 0.944583 0.520162
vt 0.944527 0.519591
vt 0.992364 0.224828
vt 0.995275 0.223786
vt 0.532521 0.962269
vt 0.519155 0.975231
vt 0.531181 0.960597
vt 0.631563 0.960680
vt 0.637881 0.943100
vt 0.495649 0.961712
vt 0.510220 0.973351
vt 0.494560 0.963386
vt 0.981041 0.333319
vt 0.992635 0.331296
vt 0.981055 0.333491
vt 0.981041 0.350851
vt 0.992635 0.348828
vt 0.981055 0.351024
vt 0.673967 0.465879
vt 0.499834 0.002433
vt 0.673804 0.002126
vt 0.499996 0.466186
vt 0.649722 0.901897
vt 0.650017 0.732503
vt 0.674003 0.732894
vt 0.880953 0.002641
vt 0.880894 0.466077
vt 0.856601 0.465640
vt 0.856664 0.002209
vt 0.678222 0.002436
vt 0.852368 0.465831
vt 0.678386 0.466145
vt 0.674095 0.901963
vt 0.852204 0.002121
vt 0.747844 0.809249
vt 0.747921 0.470542
vt 0.772156 0.471843
vt 0.772141 0.810332
vt 0.879591 0.646769
vt 0.856495 0.817712
vt 0.856663 0.648108
vt 0.879714 0.816023
vt 0.733951 0.479774
vt 0.683560 0.510006
vt 0.698569 0.474515
vt 0.899625 0.638450
vt 0.862292 0.475092
vt 0.900277 0.475202
vt 0.446829 0.553853
vt 0.489570 0.523846
vt 0.478413 0.553816
vt 0.428660 0.523917
vt 0.861040 0.636310
vt 0.737480 0.516491
vt 0.417941 0.530115
vt 0.242203 0.554074
vt 0.218147 0.529717
vt 0.107429 0.563452
vt 0.054814 0.728906
vt 0.076679 0.561614
vt 0.399442 0.554074
vt 0.087159 0.732478
vt 0.405089 0.002279
vt 0.219155 0.032715
vt 0.245219 0.002155
vt 0.418027 0.032665
vt 0.488289 0.026628
vt 0.175480 0.002068
vt 0.002645 0.032710
vt 0.023197 0.002272
vt 0.201335 0.032944
vt 0.002546 0.530121
vt 0.196159 0.530139
vt 0.208203 0.529627
vt 0.696365 0.878038
vt 0.742894 0.879448
vt 0.429708 0.026286
vt 0.472846 0.002000
vt 0.444807 0.002074
vt 0.013671 0.554413
vt 0.177887 0.554578
vt 0.616574 0.483381
vt 0.584297 0.490817
vt 0.607803 0.470444
vt 0.612291 0.536670
vt 0.584227 0.523217
vt 0.623062 0.558419
vt 0.441892 0.611371
vt 0.423448 0.558225
vt 0.132598 0.753763
vt 0.139731 0.558933
vt 0.139381 0.753266
vt 0.392621 0.834066
vt 0.401039 0.889923
vt 0.212541 0.890399
vt 0.038089 0.724483
vt 0.047130 0.776340
vt 0.039308 0.775599
vt 0.002310 0.721021
vt 0.602912 0.611899
vt 0.776590 0.748974
vt 0.812950 0.526043
vt 0.812575 0.748946
vt 0.776650 0.526585
vt 0.824088 0.802718
vt 0.412578 0.558074
vt 0.231712 0.611817
vt 0.212551 0.558314
vt 0.393679 0.611664
vt 0.232082 0.834127
vt 0.025006 0.847764
vt 0.002091 0.804955
vt 0.028854 0.780416
vt 0.604124 0.834781
vt 0.443047 0.834272
vt 0.046894 0.561924
vt 0.010783 0.558771
vt 0.423080 0.890311
vt 0.132100 0.560001
vt 0.622317 0.890821
vt 0.825646 0.470977
vt 0.817732 0.470615
vt 0.193969 0.715463
vt 0.191452 0.715201
vt 0.192786 0.661387
vt 0.199704 0.874864
vt 0.197068 0.874605
vt 0.198649 0.821905
vt 0.636730 0.884303
vt 0.634392 0.832020
vt 0.638446 0.832097
vt 0.845131 0.523822
vt 0.844010 0.470522
vt 0.846475 0.470833
vt 0.993413 0.384278
vt 0.981436 0.386447
vt 0.981732 0.381992
vt 0.945016 0.928598
vt 0.961275 0.930929
vt 0.944925 0.933065
vt 0.944971 0.921918
vt 0.961321 0.919781
vt 0.961229 0.924250
vt 0.993308 0.368878
vt 0.981584 0.366412
vt 0.993518 0.364063
vt 0.944907 0.171560
vt 0.967391 0.171464
vt 0.967500 0.190270
vt 0.944527 0.249133
vt 0.966210 0.263106
vt 0.944527 0.263052
vt 0.966321 0.248971
vt 0.944527 0.663207
vt 0.962944 0.677015
vt 0.944528 0.677015
vt 0.982090 0.172229
vt 0.981329 0.158233
vt 0.995449 0.158366
vt 0.944904 0.124749
vt 0.967482 0.143612
vt 0.945000 0.143707
vt 0.945102 0.194377
vt 0.967706 0.207797
vt 0.945912 0.207801
vt 0.966757 0.194322
vt 0.962943 0.663207
vt 0.967387 0.124654
vt 0.944979 0.190288
vt 0.995882 0.172229
vt 0.199881 0.930323
vt 0.197073 0.930181
vt 0.199157 0.879528
vt 0.207616 0.817746
vt 0.205133 0.817508
vt 0.206468 0.763833
vt 0.132152 0.888258
vt 0.129992 0.836136
vt 0.133893 0.836047
vt 0.198194 0.817388
vt 0.198554 0.764180
vt 0.201046 0.764243
vt 0.944971 0.913004
vt 0.961321 0.910868
vt 0.961229 0.915336
vt 0.993309 0.377782
vt 0.981584 0.375316
vt 0.993518 0.372967
vt 0.944971 0.939744
vt 0.961321 0.937608
vt 0.961229 0.942076
vt 0.993308 0.395590
vt 0.981584 0.393124
vt 0.993518 0.390775
vt 0.944527 0.230394
vt 0.966210 0.244367
vt 0.944527 0.244313
vt 0.966321 0.230232
vt 0.982090 0.153898
vt 0.981329 0.139902
vt 0.995449 0.140035
vt 0.944904 0.101096
vt 0.967482 0.119959
vt 0.945000 0.120054
vt 0.945102 0.212183
vt 0.967706 0.225603
vt 0.945913 0.225607
vt 0.966757 0.212128
vt 0.944527 0.645400
vt 0.962943 0.645400
vt 0.962944 0.659207
vt 0.967387 0.101001
vt 0.995882 0.153898
vt 0.944907 0.148405
vt 0.967500 0.167115
vt 0.944979 0.167132
vt 0.967391 0.148309
vt 0.944528 0.659207
vt 0.940162 0.430740
vt 0.939445 0.457937
vt 0.915610 0.459187
vt 0.917055 0.428584
vt 0.897257 0.067855
vt 0.885073 0.038934
vt 0.892462 0.013095
vt 0.937596 0.413891
vt 0.914794 0.412508
vt 0.911831 0.002647
vt 0.771422 0.895311
vt 0.771340 0.923402
vt 0.747791 0.922223
vt 0.931438 0.014764
vt 0.771200 0.874909
vt 0.747850 0.893806
vt 0.747741 0.874909
vt 0.939577 0.041925
vt 0.885391 0.330595
vt 0.886759 0.302337
vt 0.909675 0.303718
vt 0.927858 0.070196
vt 0.887641 0.350409
vt 0.908688 0.331855
vt 0.910988 0.350486
vt 0.080815 0.915261
vt 0.054424 0.895538
vt 0.053505 0.867017
vt 0.073150 0.846058
vt 0.101937 0.845584
vt 0.122339 0.866024
vt 0.910297 0.635727
vt 0.910116 0.597894
vt 0.934118 0.599018
vt 0.118895 0.899179
vt 0.934225 0.635149
vt 0.192149 0.946480
vt 0.200347 0.977700
vt 0.179622 0.990210
vt 0.158945 0.977755
vt 0.156162 0.959868
vt 0.167129 0.946237
vt 0.304049 0.943289
vt 0.315922 0.950399
vt 0.320803 0.967732
vt 0.312228 0.987649
vt 0.294236 0.984900
vt 0.285868 0.970146
vt 0.287756 0.953444
vt 0.203193 0.959845
vt 0.985556 0.428671
vt 0.988018 0.430836
vt 0.984964 0.432749
vt 0.563277 0.961845
vt 0.963088 0.525280
vt 0.964049 0.527381
vt 0.944896 0.527621
vt 0.963701 0.389433
vt 0.945175 0.389387
vt 0.963706 0.414334
vt 0.963702 0.417066
vt 0.944939 0.415508
vt 0.563281 0.942640
vt 0.963847 0.344354
vt 0.945153 0.343429
vt 0.963710 0.442151
vt 0.963709 0.445057
vt 0.944950 0.443559
vt 0.944810 0.727990
vt 0.962822 0.725742
vt 0.962731 0.729790
vt 0.945183 0.781435
vt 0.962822 0.779249
vt 0.962953 0.783482
vt 0.995131 0.132635
vt 0.995149 0.135410
vt 0.981093 0.132254
vt 0.981261 0.213370
vt 0.995923 0.216124
vt 0.994617 0.218934
vt 0.945480 0.791572
vt 0.962682 0.788286
vt 0.962549 0.790994
vt 0.944527 0.788179
vt 0.995028 0.212064
vt 0.944527 0.472291
vt 0.945705 0.469753
vt 0.964275 0.472083
vt 0.558643 0.963277
vt 0.945856 0.950373
vt 0.961595 0.947802
vt 0.982476 0.582443
vt 0.985356 0.584513
vt 0.945139 0.876898
vt 0.944527 0.836648
vt 0.962745 0.836648
vt 0.944561 0.870028
vt 0.962008 0.869872
vt 0.945006 0.870099
vt 0.982626 0.759092
vt 0.561795 0.964106
vt 0.547395 0.975814
vt 0.984715 0.581910
vt 0.944563 0.615778
vt 0.945292 0.614456
vt 0.963529 0.615833
vt 0.963706 0.584461
vt 0.963705 0.587365
vt 0.944946 0.585867
vt 0.997262 0.054427
vt 0.997053 0.057134
vt 0.982718 0.057582
vt 0.963226 0.551347
vt 0.945059 0.553500
vt 0.945158 0.549412
vt 0.962774 0.701495
vt 0.944932 0.703806
vt 0.944810 0.699624
vt 0.831357 0.904061
vt 0.830641 0.931257
vt 0.806805 0.932508
vt 0.808251 0.901904
vt 0.828791 0.887211
vt 0.868691 0.887567
vt 0.856508 0.858646
vt 0.863896 0.832807
vt 0.805989 0.885828
vt 0.902872 0.834476
vt 0.911011 0.861637
vt 0.899292 0.889908
vt 0.678506 0.933211
vt 0.702327 0.896502
vt 0.702434 0.932633
vt 0.883265 0.822359
vt 0.678325 0.895378
vt 0.938762 0.374912
vt 0.915130 0.401823
vt 0.915190 0.373406
vt 0.938680 0.403002
vt 0.938540 0.354509
vt 0.915080 0.354509
vt 0.002330 0.886680
vt 0.003698 0.858421
vt 0.026614 0.859802
vt 0.004581 0.906493
vt 0.025627 0.887940
vt 0.027927 0.906571
vt 0.080815 0.836571
vt 0.053504 0.788327
vt 0.073150 0.767368
vt 0.122338 0.787334
vt 0.118895 0.820490
vt 0.054424 0.816848
vt 0.101937 0.766894
vt 0.254600 0.985324
vt 0.248685 0.954229
vt 0.264139 0.943465
vt 0.279464 0.957502
vt 0.281529 0.975512
vt 0.273330 0.988060
vt 0.246559 0.971520
vt 0.076596 0.990208
vt 0.053885 0.967273
vt 0.065579 0.946071
vt 0.089771 0.946302
vt 0.060346 0.984162
vt 0.101064 0.960627
vt 0.098383 0.977913
vt 0.985171 0.568567
vt 0.982065 0.568586
vt 0.981744 0.565890
vt 0.963702 0.348457
vt 0.962631 0.502119
vt 0.963281 0.503257
vt 0.944886 0.505332
vt 0.963766 0.353388
vt 0.945140 0.353387
vt 0.611685 0.961991
vt 0.613137 0.943291
vt 0.615776 0.943887
vt 0.962312 0.848526
vt 0.945446 0.847754
vt 0.609580 0.962750
vt 0.995748 0.239335
vt 0.994242 0.240101
vt 0.981696 0.592460
vt 0.981709 0.590588
vt 0.985301 0.591800
vt 0.944538 0.897608
vt 0.944723 0.894837
vt 0.961953 0.894991
vt 0.614329 0.979972
vt 0.963710 0.449201
vt 0.963708 0.452106
vt 0.944949 0.450609
vt 0.945183 0.772505
vt 0.962822 0.770318
vt 0.962953 0.774552
vt 0.995131 0.106547
vt 0.995149 0.109322
vt 0.981093 0.106166
vt 0.944810 0.736920
vt 0.962822 0.734672
vt 0.962732 0.738720
vt 0.945379 0.817806
vt 0.944527 0.465753
vt 0.945706 0.463216
vt 0.964325 0.463746
vt 0.996140 0.236770
vt 0.994689 0.234519
vt 0.945838 0.382461
vt 0.944527 0.379565
vt 0.964323 0.379565
vt 0.964390 0.381925
vt 0.964270 0.465753
vt 0.983130 0.736686
vt 0.981698 0.733170
vt 0.985143 0.733814
vt 0.961617 0.897650
vt 0.945257 0.337421
vt 0.945084 0.332619
vt 0.963907 0.333230
vt 0.981760 0.593698
vt 0.963801 0.337421
vt 0.944959 0.812431
vt 0.945265 0.810643
vt 0.963017 0.811802
vt 0.997262 0.063275
vt 0.997053 0.065981
vt 0.982718 0.066429
vt 0.962774 0.683634
vt 0.944932 0.685945
vt 0.944810 0.681764
vt 0.963226 0.560278
vt 0.945059 0.562431
vt 0.945158 0.558342
vt 0.963706 0.591510
vt 0.963705 0.594415
vt 0.944946 0.592916
vt 0.897257 0.146692
vt 0.892462 0.091933
vt 0.911831 0.081484
vt 0.931438 0.093601
vt 0.885073 0.117772
vt 0.939577 0.120763
vt 0.927858 0.149033
vt 0.910296 0.520015
vt 0.934118 0.483306
vt 0.934225 0.519437
vt 0.910116 0.482182
vt 0.910429 0.430741
vt 0.909712 0.457937
vt 0.885876 0.459187
vt 0.887322 0.428584
vt 0.907863 0.413891
vt 0.885060 0.412508
vt 0.730357 0.903887
vt 0.730275 0.931978
vt 0.706725 0.930798
vt 0.706784 0.902382
vt 0.730135 0.883485
vt 0.885391 0.388594
vt 0.886759 0.360335
vt 0.909675 0.361716
vt 0.887641 0.408408
vt 0.908688 0.389854
vt 0.910988 0.408485
vt 0.706675 0.883485
vt 0.529356 0.542881
vt 0.502046 0.494637
vt 0.521692 0.473677
vt 0.550478 0.473203
vt 0.570880 0.493644
vt 0.502966 0.523158
vt 0.567437 0.526799
vt 0.141072 0.946481
vt 0.152117 0.959845
vt 0.149270 0.977700
vt 0.105085 0.959868
vt 0.116053 0.946237
vt 0.128546 0.990210
vt 0.107869 0.977755
vt 0.343381 0.943289
vt 0.333567 0.984900
vt 0.325200 0.970146
vt 0.327088 0.953444
vt 0.355254 0.950399
vt 0.360135 0.967732
vt 0.351560 0.987649
vt 0.963118 0.512050
vt 0.964049 0.514139
vt 0.944885 0.514125
vt 0.963738 0.393540
vt 0.963867 0.396235
vt 0.945149 0.396161
vt 0.983212 0.556040
vt 0.986210 0.558289
vt 0.983201 0.560202
vt 0.535517 0.961845
vt 0.540286 0.943909
vt 0.981041 0.558258
vt 0.963705 0.400531
vt 0.963703 0.403264
vt 0.944948 0.401518
vt 0.963726 0.393433
vt 0.945160 0.393881
vt 0.982476 0.573743
vt 0.985356 0.575813
vt 0.945480 0.806548
vt 0.944527 0.803155
vt 0.962682 0.803262
vt 0.945138 0.890639
vt 0.945322 0.887958
vt 0.962144 0.887958
vt 0.944527 0.843692
vt 0.962941 0.841351
vt 0.962745 0.843692
vt 0.945628 0.840726
vt 0.945151 0.326455
vt 0.945183 0.754644
vt 0.962823 0.752457
vt 0.962953 0.756691
vt 0.963710 0.428053
vt 0.963709 0.430958
vt 0.944950 0.429461
vt 0.944810 0.719060
vt 0.962822 0.716811
vt 0.962732 0.720860
vt 0.995131 0.115243
vt 0.995149 0.118018
vt 0.981093 0.114861
vt 0.981261 0.224419
vt 0.962549 0.805969
vt 0.946173 0.960286
vt 0.961594 0.957203
vt 0.530883 0.963277
vt 0.995028 0.223113
vt 0.996140 0.225809
vt 0.982626 0.741968
vt 0.534036 0.964106
vt 0.984715 0.573210
vt 0.944527 0.478829
vt 0.945705 0.476291
vt 0.964275 0.478621
vt 0.944563 0.624442
vt 0.945292 0.623120
vt 0.963529 0.624497
vt 0.962324 0.890770
vt 0.516526 0.971987
vt 0.963706 0.598559
vt 0.963705 0.601464
vt 0.944946 0.599965
vt 0.963226 0.569208
vt 0.945058 0.571361
vt 0.945158 0.567272
vt 0.962774 0.710425
vt 0.944932 0.712736
vt 0.944810 0.708555
vt 0.997262 0.036733
vt 0.997053 0.039439
vt 0.982718 0.039887
vt 0.799058 0.887211
vt 0.801624 0.904061
vt 0.778518 0.901904
vt 0.897257 0.225529
vt 0.885073 0.196609
vt 0.892462 0.170770
vt 0.938762 0.317061
vt 0.938680 0.345152
vt 0.915130 0.343972
vt 0.911831 0.160322
vt 0.931438 0.172439
vt 0.939577 0.199600
vt 0.927858 0.227871
vt 0.910297 0.577871
vt 0.934118 0.541162
vt 0.934225 0.577293
vt 0.910116 0.540038
vt 0.938540 0.296659
vt 0.915190 0.315556
vt 0.885391 0.272597
vt 0.886759 0.244338
vt 0.909675 0.245719
vt 0.908688 0.273857
vt 0.805905 0.879707
vt 0.778595 0.831463
vt 0.798240 0.810504
vt 0.915080 0.296659
vt 0.827028 0.810030
vt 0.779515 0.859984
vt 0.847429 0.830470
vt 0.843986 0.863625
vt 0.887641 0.292410
vt 0.910988 0.292488
vt 0.776256 0.885828
vt 0.800908 0.931257
vt 0.777072 0.932508
vt 0.215274 0.985324
vt 0.209359 0.954229
vt 0.224813 0.943465
vt 0.242204 0.975512
vt 0.234004 0.988060
vt 0.025064 0.990208
vt 0.002353 0.967273
vt 0.014047 0.946071
vt 0.038239 0.946302
vt 0.008814 0.984162
vt 0.049532 0.960627
vt 0.046851 0.977913
vt 0.240138 0.957501
vt 0.207234 0.971520
vt 0.945149 0.320814
vt 0.945163 0.318108
vt 0.964102 0.532833
vt 0.963145 0.535345
vt 0.944527 0.534815
vt 0.986149 0.516401
vt 0.983403 0.513558
vt 0.986320 0.513222
vt 0.982223 0.514112
vt 0.944591 0.532833
vt 0.982126 0.517585
vt 0.963175 0.631028
vt 0.962731 0.632665
vt 0.944937 0.631262
vt 0.982085 0.518189
vt 0.981957 0.518068
vt 0.982701 0.251062
vt 0.981044 0.248135
vt 0.497306 0.962659
vt 0.985380 0.602616
vt 0.985166 0.603746
vt 0.982928 0.602575
vt 0.512526 0.969793
vt 0.944810 0.745850
vt 0.962822 0.743602
vt 0.962732 0.747650
vt 0.945183 0.763574
vt 0.962823 0.761388
vt 0.962953 0.765622
vt 0.995131 0.123939
vt 0.995149 0.126714
vt 0.981093 0.123557
vt 0.963710 0.435102
vt 0.963708 0.438007
vt 0.944950 0.436510
vt 0.946575 0.906527
vt 0.946005 0.904634
vt 0.961894 0.903256
vt 0.621880 0.976823
vt 0.945482 0.799071
vt 0.944527 0.795667
vt 0.962662 0.796135
vt 0.985145 0.600198
vt 0.982242 0.599265
vt 0.945136 0.883762
vt 0.962144 0.881084
vt 0.962324 0.883896
vt 0.945322 0.881084
vt 0.634335 0.960920
vt 0.487759 0.979319
vt 0.963706 0.605609
vt 0.963705 0.608513
vt 0.944946 0.607015
vt 0.997262 0.045580
vt 0.997052 0.048286
vt 0.982718 0.048734
vt 0.963226 0.578139
vt 0.945058 0.580291
vt 0.945158 0.576203
vt 0.962774 0.692564
vt 0.944932 0.694876
vt 0.944810 0.690694
vt 0.784856 0.976691
vt 0.785079 0.943035
vt 0.804167 0.943115
vt 0.804395 0.976743
vt 0.684136 0.943040
vt 0.665750 0.978041
vt 0.665952 0.944331
vt 0.684365 0.976689
vt 0.976182 0.033872
vt 0.944990 0.013358
vt 0.976236 0.013120
vt 0.944912 0.033647
vt 0.841863 0.943027
vt 0.842099 0.974291
vt 0.822328 0.975727
vt 0.822536 0.944406
vt 0.761204 0.976691
vt 0.761427 0.943035
vt 0.780515 0.943115
vt 0.780743 0.976743
vt 0.661409 0.943040
vt 0.643023 0.978041
vt 0.643226 0.944331
vt 0.661639 0.976689
vt 0.976182 0.058752
vt 0.944990 0.038238
vt 0.976236 0.038000
vt 0.944912 0.058528
vt 0.865760 0.943027
vt 0.865996 0.974291
vt 0.846225 0.975727
vt 0.846432 0.944406
vt 0.836977 0.740187
vt 0.837146 0.669527
vt 0.851313 0.669613
vt 0.851445 0.740226
vt 0.850613 0.570267
vt 0.836977 0.641954
vt 0.837113 0.571202
vt 0.850759 0.640951
vt 0.572178 0.980474
vt 0.587328 0.943104
vt 0.587176 0.980785
vt 0.572331 0.942771
vt 0.469478 0.943058
vt 0.468876 0.980789
vt 0.454595 0.981390
vt 0.455169 0.943637
vt 0.831194 0.569786
vt 0.832428 0.664809
vt 0.830293 0.664670
vt 0.632521 0.732482
vt 0.631469 0.827675
vt 0.630453 0.732753
vt 0.832177 0.669070
vt 0.831360 0.764023
vt 0.830211 0.669070
vt 0.638054 0.732618
vt 0.639197 0.827634
vt 0.636876 0.827717
vt 0.831330 0.470634
vt 0.832473 0.565650
vt 0.830153 0.565734
vt 0.838743 0.470266
vt 0.837927 0.565219
vt 0.836778 0.470266
vt 0.983059 0.904243
vt 0.983419 0.903956
vt 0.982990 0.904504
vt 0.983419 0.904795
vt 0.982827 0.904619
vt 0.562205 0.962770
vt 0.560643 0.961842
vt 0.611478 0.962709
vt 0.611793 0.963120
vt 0.611798 0.962020
vt 0.611460 0.962577
vt 0.982184 0.931574
vt 0.982216 0.932683
vt 0.981643 0.932290
vt 0.982216 0.931830
vt 0.981288 0.932578
vt 0.981690 0.932289
vt 0.981115 0.926939
vt 0.982358 0.927045
vt 0.981395 0.927417
vt 0.981756 0.927544
vt 0.981911 0.927023
vt 0.981111 0.927574
vt 0.534446 0.962770
vt 0.532883 0.961842
vt 0.495141 0.961425
vt 0.495559 0.961558
vt 0.631945 0.961274
vt 0.981041 0.860994
vt 0.984161 0.851862
vt 0.981041 0.856494
vt 0.493219 0.960920
vt 0.568045 0.979546
vt 0.944527 0.874252
vt 0.964199 0.506362
vt 0.963522 0.506790
vt 0.994991 0.234163
vt 0.993552 0.240447
vt 0.540286 0.979546
vt 0.944527 0.887992
vt 0.964865 0.318395
vt 0.981902 0.244845
vt 0.983872 0.450681
vt 0.984435 0.454443
vt 0.981269 0.452620
vt 0.994617 0.229983
vt 0.944527 0.881116
vt 0.937857 0.989368
vt 0.962688 0.863064
vt 0.487887 0.943281
vt 0.619776 0.974780
vt 0.984060 0.473518
vt 0.981041 0.471233
vt 0.984336 0.469687
vt 0.985555 0.802161
vt 0.947667 0.820120
vt 0.997404 0.002000
vt 0.998000 0.002739
vt 0.984190 0.866763
vt 0.964341 0.342079
vt 0.964315 0.520152
vt 0.944648 0.334618
vt 0.964341 0.393985
vt 0.945558 0.638101
vt 0.944962 0.641400
vt 0.944527 0.640478
vt 0.988027 0.430660
vt 0.964341 0.388986
vt 0.994056 0.218623
vt 0.944527 0.869571
vt 0.985450 0.581888
vt 0.982006 0.569189
vt 0.964328 0.351173
vt 0.944693 0.857947
vt 0.981594 0.590675
vt 0.944543 0.820729
vt 0.986219 0.558113
vt 0.994056 0.229673
vt 0.945114 0.829076
vt 0.985450 0.573189
vt 0.984687 0.518112
vt 0.983041 0.250978
vt 0.985286 0.603672
s 1
usemtl sedan_baked
f 1/1/1 2/2/1 3/3/1
f 1/1/1 3/3/1 4/4/1
f 7/5/2 5/6/2 6/7/2
f 7/5/2 6/7/2 8/8/2
f 10/9/3 9/10/3 11/11/3
f 10/9/3 11/11/3 12/12/3
f 13/13/4 14/14/4 15/15/4
f 13/13/4 15/15/4 16/16/4
f 131/17/5 132/18/5 130/19/5
f 148/20/6 117/21/6 143/22/6
f 190/23/7 191/24/7 186/25/7
f 212/26/8 213/27/8 210/28/8
f 254/29/9 255/30/9 256/31/9
f 275/32/10 250/33/10 271/34/10
f 319/35/11 321/36/11 324/37/11
f 341/38/12 343/39/12 345/40/12
f 214/41/13 206/42/13 205/43/13
f 261/44/14 253/45/14 252/46/14
f 283/47/15 284/48/16 282/49/17
f 202/50/18 204/51/19 203/52/20
f 129/53/21 140/54/22 142/55/23
f 318/56/24 315/57/24 317/58/24
f 331/59/25 340/60/26 339/61/27
f 115/62/28 131/63/28 130/64/28
f 128/65/29 117/66/29 149/67/29
f 138/68/30 140/69/31 139/70/32
f 135/71/33 152/72/33 130/73/33
f 210/74/34 180/75/34 211/76/34
f 191/77/35 200/78/35 184/79/35
f 253/45/36 251/80/36 254/81/36
f 268/82/29 250/83/29 276/84/29
f 279/85/37 269/86/38 280/87/32
f 257/88/39 282/89/39 258/90/39
f 314/91/40 326/92/40 325/93/40
f 336/94/41 335/95/42 337/96/43
f 339/97/44 321/36/44 320/98/44
f 132/99/45 120/100/45 133/101/45
f 147/102/46 140/103/46 148/20/46
f 146/104/47 153/105/48 152/106/49
f 181/107/50 183/108/51 180/109/52
f 197/110/53 213/111/53 196/112/53
f 198/113/54 201/114/55 200/115/56
f 207/116/57 218/117/57 208/118/57
f 274/119/46 269/120/46 275/32/46
f 344/121/58 316/122/59 317/123/60
f 336/124/41 321/36/61 335/125/42
f 337/96/62 341/126/62 336/94/62
f 319/35/63 349/127/64 320/98/65
f 126/128/66 130/129/67 125/130/68
f 267/131/69 258/132/70 278/133/71
f 119/134/72 116/135/72 115/136/72
f 143/22/73 118/137/73 144/138/73
f 138/139/74 137/140/74 136/141/74
f 151/142/75 134/143/75 133/144/75
f 182/145/76 209/146/76 208/147/76
f 201/114/77 190/148/77 189/149/77
f 196/150/78 204/51/79 197/151/80
f 216/152/81 215/153/82 214/154/83
f 185/155/84 217/156/84 186/157/84
f 271/34/85 248/158/86 272/159/87
f 279/160/74 260/161/74 259/162/74
f 284/48/88 256/163/88 255/164/88
f 324/37/89 315/165/90 325/166/91
f 333/167/92 343/39/92 342/168/92
f 350/169/93 347/170/93 346/171/93
f 137/172/94 142/173/94 130/174/94
f 211/175/95 199/176/95 212/177/95
f 219/178/96 185/155/96 184/179/96
f 267/180/97 252/181/97 260/182/97
f 313/183/98 346/171/98 345/40/98
f 333/184/99 334/185/100 332/186/101
f 127/187/102 148/188/103 126/128/104
f 145/189/105 153/190/48 146/191/47
f 188/192/106 183/193/51 181/194/50
f 202/195/107 213/196/107 212/197/107
f 277/198/108 275/199/108 267/131/108
f 273/200/109 285/201/110 283/202/15
f 344/203/111 311/204/111 345/40/111
f 322/205/112 334/206/113 323/207/114
f 126/208/66 141/209/115 127/210/116
f 267/211/69 270/212/117 277/213/118
f 22/214/119 17/215/119 21/216/119
f 22/214/119 19/217/119 17/215/119
f 21/218/120 17/219/121 23/220/122
f 17/221/121 19/222/123 24/223/124
f 17/221/121 24/223/124 23/224/122
f 18/225/125 24/226/125 20/227/125
f 21/218/120 23/220/122 18/228/126
f 18/225/125 23/229/125 24/226/125
f 22/230/127 21/231/120 18/232/126
f 22/230/127 18/232/126 20/233/128
f 19/234/123 20/235/128 24/236/124
f 19/234/123 22/237/127 20/235/128
f 27/238/129 32/239/130 25/240/131
f 27/241/129 26/242/132 29/243/133
f 26/244/132 30/245/134 29/246/133
f 26/244/132 31/247/135 30/245/134
f 27/241/129 25/248/131 26/242/132
f 27/238/129 33/249/136 32/239/130
f 34/250/137 28/251/138 37/252/139
f 28/253/138 38/254/140 39/255/141
f 34/250/137 36/256/142 28/251/138
f 28/253/138 36/257/142 38/254/140
f 29/258/133 33/259/136 27/260/129
f 29/258/133 30/261/134 33/259/136
f 31/247/143 34/262/137 30/245/144
f 25/263/145 31/264/135 26/265/132
f 25/263/145 32/266/146 31/264/135
f 32/266/147 35/267/148 31/264/143
f 32/266/147 40/268/149 35/267/148
f 32/266/147 41/269/150 40/268/149
f 33/249/151 41/270/150 32/239/152
f 33/249/151 37/271/153 41/270/150
f 30/261/144 37/252/153 33/259/151
f 30/261/144 34/250/137 37/252/153
f 35/272/148 36/273/142 34/262/137
f 35/272/148 38/274/154 36/273/142
f 31/247/143 35/272/148 34/262/137
f 40/268/149 38/275/155 35/267/156
f 40/268/149 39/276/141 38/275/155
f 41/277/150 39/278/141 40/279/149
f 37/280/153 39/278/141 41/277/150
f 37/280/153 28/281/138 39/278/141
f 43/282/157 46/283/158 42/284/159
f 45/285/160 55/286/161 44/287/162
f 50/288/163 44/289/162 55/290/161
f 52/291/164 45/292/160 44/293/162
f 52/291/164 44/293/162 50/294/165
f 43/282/157 49/295/166 46/283/158
f 47/296/167 53/297/168 49/298/166
f 47/296/167 51/299/169 53/297/168
f 43/300/157 47/296/170 49/298/166
f 42/301/159 47/302/171 43/303/157
f 42/301/159 48/304/172 47/302/171
f 48/304/173 51/305/169 47/302/167
f 48/304/173 50/288/174 51/305/169
f 42/306/159 46/307/175 48/308/172
f 53/309/168 52/310/164 49/295/166
f 50/288/163 55/290/161 51/305/176
f 46/311/158 50/294/177 48/312/178
f 46/311/158 52/291/164 50/294/177
f 45/313/160 52/310/164 53/309/168
f 45/285/160 54/314/179 55/286/161
f 53/309/168 54/315/179 45/313/160
f 51/299/180 54/316/179 53/297/181
f 51/299/180 55/317/161 54/316/179
f 57/318/182 56/319/183 58/320/184
f 56/321/183 57/322/182 59/323/185
f 57/324/182 58/325/184 59/326/185
f 56/327/183 59/328/185 58/329/184
f 61/330/186 62/331/187 60/332/186
f 62/333/187 61/334/186 60/335/186
f 63/336/188 64/337/188 65/338/188
f 64/339/188 63/340/188 65/341/188
f 73/342/189 66/343/190 69/344/191
f 67/345/192 66/346/190 73/347/189
f 67/345/192 71/348/193 66/346/190
f 71/349/193 69/350/191 66/351/190
f 72/352/194 67/353/192 73/354/189
f 72/355/194 71/356/193 67/357/192
f 68/358/195 70/359/196 69/360/191
f 68/358/195 72/361/194 70/359/196
f 71/349/193 68/362/195 69/350/191
f 72/355/194 68/363/195 71/356/193
f 73/342/189 69/344/191 70/364/196
f 72/352/194 73/354/189 70/365/196
f 76/366/197 74/367/198 77/368/199
f 74/369/198 76/370/197 75/371/200
f 74/372/198 75/373/200 77/374/199
f 76/375/197 77/376/199 75/377/200
f 78/378/201 79/379/125 80/380/125
f 79/381/125 78/382/201 80/383/125
f 81/384/119 82/385/119 83/386/119
f 82/387/119 81/388/119 83/389/119
f 84/390/192 90/391/190 87/392/189
f 84/390/192 88/393/193 90/391/190
f 91/394/194 84/395/192 87/396/189
f 91/397/194 88/398/193 84/399/192
f 85/400/195 86/401/196 89/402/191
f 85/400/195 91/403/194 86/401/196
f 88/404/193 85/405/195 89/406/191
f 91/397/194 85/407/195 88/398/193
f 91/394/194 87/396/189 86/408/196
f 87/409/189 89/410/191 86/411/196
f 87/409/189 90/412/190 89/410/191
f 88/404/193 89/406/191 90/413/190
f 92/414/202 105/415/203 104/416/204
f 92/414/202 104/416/204 103/417/205
f 105/418/203 92/419/202 93/420/206
f 93/421/206 103/417/205 102/422/207
f 93/421/206 92/414/202 103/417/205
f 105/418/203 93/420/206 94/423/208
f 94/424/208 93/425/206 102/426/207
f 105/418/203 94/423/208 95/427/209
f 95/428/209 94/424/208 101/429/210
f 95/428/209 101/429/210 100/430/211
f 105/418/203 95/427/209 96/431/212
f 96/432/213 95/433/209 100/434/211
f 105/418/203 96/431/212 97/435/214
f 97/436/214 96/432/213 99/437/215
f 97/436/214 99/437/215 98/438/216
f 96/432/213 100/434/211 99/437/215
f 98/439/216 99/440/215 100/441/211
f 98/439/216 100/441/211 101/442/210
f 98/439/216 101/442/210 102/443/207
f 94/424/208 102/426/207 101/429/210
f 98/439/216 102/443/207 103/444/217
f 105/445/203 97/446/214 98/447/216
f 98/439/216 103/444/217 104/448/204
f 105/445/203 98/447/216 104/449/204
f 106/450/218 107/451/219 110/452/220
f 106/450/218 110/452/220 108/453/221
f 106/450/218 108/453/221 109/454/222
f 106/450/218 109/454/222 111/455/223
f 111/456/223 109/457/222 108/458/221
f 111/456/223 108/458/221 110/459/220
f 111/456/223 107/460/219 112/461/224
f 111/456/223 110/459/220 107/460/219
f 111/456/223 112/461/224 106/462/218
f 106/450/218 112/463/224 107/451/219
f 116/464/225 144/465/226 114/466/227
f 113/467/228 144/138/229 118/137/230
f 114/466/227 131/63/231 116/464/225
f 114/468/232 113/469/228 118/470/230
f 115/136/233 132/471/233 120/472/233
f 115/136/234 120/472/234 119/134/234
f 117/473/235 116/474/236 119/475/237
f 143/22/238 117/21/235 119/476/237
f 143/22/238 119/476/237 118/137/239
f 132/99/240 114/477/232 118/478/230
f 124/479/241 121/480/242 122/481/243
f 121/482/242 123/483/244 122/484/243
f 124/485/241 122/486/243 123/487/244
f 121/488/242 124/489/241 123/490/244
f 126/128/66 125/130/68 141/491/115
f 129/492/245 136/493/245 126/128/245
f 125/494/246 139/495/32 141/496/247
f 125/494/248 136/497/248 139/495/248
f 126/128/249 149/498/249 129/492/249
f 148/499/250 127/500/250 141/501/250
f 128/502/251 148/20/251 140/103/251
f 129/503/21 128/65/252 140/504/22
f 150/505/253 146/506/254 135/71/255
f 150/507/256 134/143/257 151/142/258
f 137/508/259 140/54/31 138/509/30
f 137/508/259 142/55/260 140/54/31
f 133/510/261 153/105/262 151/511/258
f 133/510/263 134/512/263 152/106/263
f 139/70/32 140/69/31 141/513/247
f 145/189/264 113/514/265 151/515/258
f 145/189/264 151/515/258 153/190/262
f 150/505/253 147/516/266 146/506/254
f 113/517/265 150/518/256 151/519/258
f 155/520/267 154/521/268 157/522/269
f 154/523/268 155/524/267 156/525/270
f 155/526/267 157/527/269 156/528/270
f 154/529/268 156/530/270 157/531/269
f 158/532/202 160/533/203 167/534/204
f 158/532/202 167/534/204 171/535/205
f 159/536/206 158/532/202 171/535/205
f 160/537/203 158/538/202 159/539/206
f 159/536/206 171/535/205 170/540/207
f 160/537/203 162/541/209 163/542/212
f 160/537/203 163/542/212 164/543/214
f 160/544/203 168/545/216 167/546/204
f 160/537/203 161/547/208 162/541/209
f 160/537/203 159/539/206 161/547/208
f 160/544/203 164/548/214 168/545/216
f 161/549/208 170/550/207 169/551/210
f 161/549/208 159/552/206 170/550/207
f 162/553/209 169/551/210 166/554/211
f 162/553/209 161/549/208 169/551/210
f 163/555/213 162/556/209 166/557/211
f 164/558/214 163/555/213 165/559/215
f 164/558/214 165/559/215 168/560/216
f 168/561/216 166/562/211 169/563/210
f 168/561/216 171/564/217 167/565/204
f 163/555/213 166/557/211 165/559/215
f 168/561/216 165/566/215 166/562/211
f 168/561/216 169/563/210 170/567/207
f 168/561/216 170/567/207 171/564/217
f 172/568/271 177/569/272 175/570/273
f 172/568/271 175/570/273 173/571/274
f 172/568/271 176/572/275 174/573/276
f 172/568/271 173/571/274 176/572/275
f 172/568/271 178/574/277 177/569/272
f 174/575/276 173/576/274 175/577/273
f 174/575/276 175/577/273 177/578/272
f 174/575/276 176/579/275 173/576/274
f 174/575/276 178/580/277 172/581/271
f 174/575/276 177/578/272 178/580/277
f 179/582/278 189/583/279 181/584/280
f 179/585/281 209/146/282 182/145/283
f 179/582/278 181/584/280 210/74/284
f 187/586/285 179/587/281 182/588/283
f 208/147/286 209/146/286 180/589/286
f 208/147/287 183/590/288 182/145/283
f 188/591/289 182/592/283 183/593/288
f 185/155/290 216/594/81 217/156/291
f 185/155/290 215/595/82 216/594/81
f 200/115/292 201/114/292 189/149/292
f 188/591/289 187/596/285 182/592/283
f 196/112/293 198/597/294 191/598/295
f 219/599/296 186/600/296 220/601/296
f 196/602/78 190/603/297 201/604/55
f 187/596/298 186/25/299 217/605/300
f 194/606/241 192/607/301 195/608/243
f 194/609/241 195/610/243 193/611/244
f 192/612/301 194/613/241 193/614/244
f 192/615/301 193/616/244 195/617/243
f 213/618/302 212/177/302 211/175/302
f 213/619/303 197/620/304 204/621/19
f 196/112/293 199/622/305 198/597/294
f 196/112/293 211/623/306 199/622/305
f 198/624/307 212/625/307 203/626/307
f 198/624/54 203/626/308 201/627/55
f 213/619/303 204/621/19 202/628/18
f 201/629/55 203/630/308 204/631/79
f 196/602/78 201/604/55 204/632/79
f 214/633/309 207/116/309 218/117/309
f 207/116/310 220/634/311 217/635/300
f 220/601/312 206/42/313 215/636/314
f 214/633/315 218/117/315 216/637/315
f 220/601/312 215/636/314 219/599/316
f 220/638/311 187/639/298 217/640/300
f 221/641/268 224/642/267 223/643/270
f 221/644/268 223/645/270 222/646/269
f 224/647/267 222/648/269 223/649/270
f 224/650/267 221/651/268 222/652/269
f 225/653/203 227/654/206 228/655/208
f 225/653/203 228/655/208 229/656/209
f 225/653/203 226/657/202 227/654/206
f 225/653/203 236/658/212 230/659/214
f 225/660/203 232/661/216 234/662/204
f 225/660/203 230/663/214 232/661/216
f 225/653/203 229/656/209 236/658/212
f 226/664/202 225/665/203 234/666/204
f 226/664/202 234/666/204 238/667/205
f 227/668/206 238/667/205 233/669/207
f 227/668/206 226/664/202 238/667/205
f 228/670/208 227/671/206 233/672/207
f 228/670/208 233/672/207 237/673/210
f 229/674/209 228/670/208 237/673/210
f 236/675/213 229/676/209 231/677/211
f 230/678/214 235/679/215 232/680/216
f 230/678/214 236/675/213 235/679/215
f 229/674/209 237/673/210 231/681/211
f 232/682/216 231/683/211 237/684/210
f 232/682/216 237/684/210 233/685/207
f 232/682/216 233/685/207 238/686/217
f 232/682/216 235/687/215 231/683/211
f 232/682/216 238/686/217 234/688/204
f 236/675/213 231/677/211 235/679/215
f 239/689/317 242/690/224 245/691/219
f 239/689/317 243/692/222 241/693/223
f 239/689/317 245/691/219 244/694/220
f 239/689/317 240/695/318 243/692/222
f 239/689/317 244/694/220 240/695/318
f 241/696/223 245/697/219 242/698/224
f 241/696/223 242/698/224 239/699/317
f 241/696/223 243/700/222 240/701/318
f 241/696/223 240/701/318 244/702/220
f 241/696/223 244/702/220 245/697/219
f 246/703/319 247/704/320 249/705/321
f 255/706/322 246/707/319 249/708/321
f 251/709/323 272/710/324 246/711/325
f 247/712/326 248/158/327 249/713/328
f 247/712/326 272/159/329 248/158/327
f 246/711/325 254/714/330 251/709/323
f 250/715/331 251/716/332 248/717/86
f 271/34/85 250/33/331 248/158/86
f 253/718/333 255/706/333 261/719/333
f 281/720/253 283/721/254 257/88/255
f 278/722/248 259/723/248 280/724/248
f 281/725/334 256/726/335 284/727/16
f 260/728/336 269/729/38 279/730/37
f 260/728/336 266/731/337 269/729/38
f 251/80/332 253/45/338 248/732/86
f 282/49/339 284/48/339 255/164/339
f 262/733/241 264/734/340 265/735/244
f 262/736/241 263/737/301 264/738/340
f 263/739/301 265/740/244 264/741/340
f 263/742/301 262/743/241 265/744/244
f 267/131/69 278/133/71 270/745/117
f 278/722/246 280/724/32 270/746/247
f 266/747/337 268/82/341 269/748/38
f 268/749/251 275/32/251 269/120/251
f 267/131/342 276/750/342 266/751/342
f 280/87/32 269/86/38 270/752/247
f 273/200/109 247/753/343 285/201/110
f 281/720/253 274/754/344 283/721/254
f 275/755/250 277/756/250 270/757/250
f 247/758/343 281/759/345 285/760/110
f 281/725/334 284/727/16 285/761/110
f 283/202/15 285/201/110 284/762/16
f 289/763/267 286/764/268 288/765/346
f 289/766/267 288/767/346 287/768/270
f 286/769/268 287/770/270 288/771/346
f 286/772/268 289/773/267 287/774/270
f 291/775/206 290/776/202 302/777/205
f 292/778/203 290/779/202 291/780/206
f 293/781/208 291/782/206 298/783/207
f 292/778/203 291/780/206 293/784/208
f 292/778/203 301/785/209 294/786/212
f 292/778/203 294/786/212 299/787/214
f 292/788/203 295/789/216 303/790/204
f 292/778/203 293/784/208 301/785/209
f 292/788/203 299/791/214 295/789/216
f 301/792/209 293/781/208 297/793/210
f 294/794/213 301/795/209 296/796/211
f 294/794/213 296/796/211 300/797/215
f 295/798/216 296/799/211 297/800/210
f 301/792/209 297/793/210 296/801/211
f 293/781/208 298/783/207 297/793/210
f 295/798/216 297/800/210 298/802/207
f 295/798/216 300/803/215 296/799/211
f 295/798/216 302/804/217 303/805/204
f 295/798/216 298/802/207 302/804/217
f 299/806/214 300/797/215 295/807/216
f 299/806/214 294/794/213 300/797/215
f 291/775/206 302/777/205 298/808/207
f 290/776/202 292/809/203 303/810/204
f 290/776/202 303/810/204 302/777/205
f 304/811/271 305/812/272 307/813/273
f 304/811/271 308/814/275 306/815/276
f 306/816/276 309/817/274 307/818/273
f 306/816/276 307/818/273 305/819/272
f 306/816/276 308/820/275 309/817/274
f 306/816/276 310/821/277 304/822/271
f 306/816/276 305/819/272 310/821/277
f 304/811/271 309/823/274 308/814/275
f 304/811/271 307/813/273 309/823/274
f 304/811/271 310/824/277 305/812/272
f 344/121/347 317/123/348 312/825/349
f 344/121/347 312/825/349 311/826/350
f 325/827/351 313/828/352 311/829/350
f 317/830/353 314/831/353 326/832/353
f 317/830/354 313/833/355 314/831/356
f 325/827/351 311/829/350 312/834/349
f 317/830/354 346/835/357 313/833/355
f 313/183/352 345/40/358 311/204/350
f 317/836/348 315/837/359 312/838/349
f 344/839/360 345/840/360 346/835/360
f 337/96/361 324/841/362 323/842/363
f 319/35/63 338/843/364 349/127/64
f 318/844/365 320/845/365 340/846/365
f 322/205/366 336/124/367 332/847/101
f 339/97/368 320/98/369 349/127/64
f 322/205/366 332/847/101 334/206/100
f 329/848/301 328/849/244 327/850/340
f 330/851/241 327/852/340 328/853/244
f 329/854/301 330/855/241 328/856/244
f 330/857/241 329/858/301 327/859/340
f 331/860/370 323/861/114 334/862/113
f 341/38/371 331/59/371 343/39/371
f 337/96/361 323/842/363 341/126/372
f 343/39/373 334/863/100 333/167/99
f 336/864/367 342/865/374 332/866/101
f 338/867/375 340/846/376 348/868/377
f 338/869/364 350/870/378 349/871/64
f 338/869/364 347/872/379 350/870/378
f 339/873/368 350/169/378 346/171/380
f 339/97/368 349/127/64 350/874/378
f 354/875/267 351/876/268 352/877/269
f 351/878/268 354/879/267 353/880/270
f 354/881/267 352/882/269 353/883/270
f 351/884/268 353/885/270 352/886/269
f 356/887/381 358/888/382 355/889/383
f 356/887/381 355/889/383 357/890/384
f 358/891/382 357/892/384 355/893/383
f 358/891/382 356/894/381 357/892/384
f 362/895/385 359/896/386 360/897/387
f 362/895/385 361/898/388 359/896/386
f 361/899/388 362/900/385 360/901/387
f 361/899/388 360/901/387 359/902/386
f 363/903/381 366/904/382 364/905/383
f 363/903/381 364/905/383 365/906/384
f 366/907/382 365/908/384 364/909/383
f 366/907/382 363/910/381 365/908/384
f 367/911/389 370/912/390 369/913/391
f 367/911/389 368/914/392 370/912/390
f 368/915/392 367/916/389 369/917/391
f 368/915/392 369/917/391 370/918/390
f 374/919/393 371/920/394 372/921/395
f 374/919/393 372/921/395 373/922/396
f 371/923/394 373/924/396 372/925/395
f 371/923/394 374/926/393 373/924/396
f 375/927/397 376/928/398 377/929/399
f 375/927/397 378/930/400 376/928/398
f 378/931/400 375/932/397 377/933/399
f 378/931/400 377/933/399 376/934/398
f 381/935/401 380/936/402 379/937/402
f 380/938/402 381/939/401 379/940/402
f 382/941/403 384/942/404 383/943/405
f 384/944/404 382/945/403 383/946/405
f 385/947/406 386/948/407 387/949/408
f 386/950/407 385/951/406 387/952/408
f 132/18/409 133/953/409 130/19/409
f 133/953/410 134/954/411 130/19/410
f 134/954/412 135/955/412 130/19/412
f 130/19/413 136/956/413 137/957/413
f 143/22/414 144/138/414 147/102/414
f 144/138/415 113/958/415 147/102/415
f 113/958/416 145/189/416 147/102/416
f 145/189/417 146/191/418 147/102/419
f 148/20/420 149/959/420 117/21/420
f 147/102/421 148/20/421 143/22/421
f 191/24/422 184/960/422 185/961/422
f 185/961/423 186/25/423 191/24/423
f 186/25/424 187/596/424 190/23/424
f 187/596/425 188/591/425 190/23/425
f 188/591/426 181/962/426 189/963/426
f 190/23/427 188/591/427 189/963/427
f 213/27/428 205/964/428 210/28/428
f 205/964/429 206/965/429 208/966/429
f 210/28/430 205/964/430 208/966/430
f 207/967/431 208/966/431 206/965/431
f 208/966/432 209/968/432 210/28/432
f 211/969/433 212/26/433 210/28/433
f 257/970/434 258/971/434 260/972/434
f 258/971/435 259/973/435 260/972/435
f 257/970/436 260/972/436 252/974/436
f 256/31/437 257/970/437 252/974/437
f 252/974/438 253/975/438 254/29/438
f 256/31/439 252/974/439 254/29/439
f 271/34/440 272/159/440 274/119/440
f 272/159/415 247/976/415 274/119/415
f 247/976/416 273/200/416 274/119/416
f 273/200/441 283/202/442 274/119/443
f 275/32/444 276/977/444 250/33/444
f 274/119/421 275/32/421 271/34/421
f 326/978/445 318/979/445 319/35/445
f 319/35/446 320/98/446 321/36/446
f 321/36/447 322/205/447 324/37/447
f 322/205/448 323/207/448 324/37/448
f 324/37/449 325/166/449 326/978/449
f 326/978/450 319/35/450 324/37/450
f 348/980/451 331/59/451 341/38/451
f 341/38/452 342/168/452 343/39/452
f 343/39/453 344/203/453 345/40/453
f 345/40/454 346/171/454 341/38/454
f 346/171/455 347/170/455 341/38/455
f 347/170/456 348/980/456 341/38/456
f 214/41/457 215/636/457 206/42/457
f 261/44/458 248/732/458 253/45/458
f 318/56/459 326/981/459 315/57/459
f 331/59/460 348/980/460 340/60/460
f 115/62/461 116/464/461 131/63/461
f 128/65/462 129/503/462 117/66/462
f 135/71/463 146/506/463 152/72/463
f 210/74/464 181/584/464 180/75/464
f 191/77/465 198/982/465 200/78/465
f 268/82/466 266/747/466 250/83/466
f 257/88/463 283/721/463 282/89/463
f 314/91/467 313/983/467 326/92/467
f 339/97/27 340/984/26 321/36/468
f 132/99/240 118/478/230 120/100/469
f 147/102/470 141/985/247 140/103/31
f 150/507/471 135/986/471 134/143/471
f 179/587/472 210/987/472 209/988/472
f 197/110/473 205/989/473 213/111/473
f 196/112/474 191/598/474 190/990/474
f 207/116/310 217/635/300 218/117/475
f 274/119/470 270/991/247 269/120/38
f 281/725/471 257/992/471 256/726/471
f 344/121/476 343/993/476 316/122/476
f 336/124/477 322/205/477 321/36/477
f 337/96/478 342/994/478 341/126/478
f 126/128/479 136/493/479 130/129/479
f 249/995/328 248/996/327 261/997/480
f 267/131/481 259/998/481 258/132/481
f 338/869/482 348/999/482 347/872/482
f 138/139/483 139/1000/483 137/140/483
f 279/160/483 280/1001/483 260/161/483
f 324/37/484 312/1002/484 315/165/484
f 333/167/485 332/1003/485 343/39/485
f 119/1004/237 120/1005/486 118/1006/239
f 137/172/487 129/1007/488 142/173/489
f 211/175/490 198/1008/294 199/176/305
f 216/152/81 218/1009/491 217/1010/291
f 219/178/492 215/595/492 185/155/492
f 267/180/493 266/1011/493 252/181/493
f 114/477/227 132/99/494 131/1012/231
f 127/187/495 149/498/495 148/188/495
f 202/195/496 203/1013/496 213/196/496
f 220/634/312 207/116/497 206/1014/313
f 246/707/325 255/706/498 254/1015/330
f 277/198/495 276/750/495 275/199/495
f 338/1016/375 319/1017/499 318/1018/500
f 49/295/166 52/310/164 46/283/158
f 116/464/501 143/1019/501 144/465/501
f 115/136/502 131/1020/502 132/471/502
f 129/492/503 137/1021/503 136/493/503
f 128/502/504 149/959/504 148/20/504
f 134/512/505 135/1022/505 152/106/505
f 152/106/506 153/105/262 133/510/261
f 150/505/253 145/1023/507 147/516/266
f 179/582/278 188/1024/508 189/583/279
f 209/146/509 210/1025/509 180/589/509
f 180/589/510 183/590/288 208/147/287
f 190/148/511 191/1026/511 189/149/511
f 191/1026/512 200/115/512 189/149/512
f 219/599/513 185/1027/513 186/600/513
f 211/175/306 196/1028/293 213/618/514
f 214/633/515 206/1014/515 207/116/515
f 251/709/516 271/1029/517 272/710/516
f 253/718/518 254/1015/518 255/706/518
f 255/706/519 249/708/328 261/719/480
f 267/131/520 260/1030/520 259/998/520
f 256/163/521 257/1031/521 255/164/521
f 257/1031/522 282/49/522 255/164/522
f 268/749/504 276/977/504 275/32/504
f 281/720/253 273/1032/507 274/754/344
f 315/165/523 326/978/523 325/166/523
f 346/835/357 317/830/354 316/1033/524
f 316/1033/525 344/839/525 346/835/525
f 324/841/526 337/96/526 335/95/526
f 335/95/527 322/1034/527 324/841/527
f 340/846/376 338/867/375 318/844/500
f 318/844/528 319/1035/528 320/845/528
f 334/863/113 343/39/529 331/59/370
f 346/171/530 347/170/530 348/980/530
f 348/980/531 339/873/531 346/171/531
