# Blender 4.5.0
# www.blender.org
mtllib signal.mtl
o sub_lamp
v 2.121310 6.000000 0.015000
v 2.109892 6.057402 0.015000
v 2.077376 6.106066 0.015000
v 2.028713 6.138581 0.015000
v 1.971310 6.150000 0.015000
v 1.913908 6.138581 0.015000
v 1.865245 6.106066 0.015000
v 1.832729 6.057402 0.015000
v 1.821311 6.000000 0.015000
v 1.832729 5.942597 0.015000
v 1.865245 5.893933 0.015000
v 1.913908 5.861418 0.015000
v 1.971310 5.849999 0.015000
v 2.028713 5.861418 0.015000
v 2.077376 5.893933 0.015000
v 2.109892 5.942597 0.015000
vn -0.0000 -0.0000 1.0000
vt 0.403806 0.069134
vt 0.430866 0.003806
vt 0.496194 0.030866
vt 0.500000 0.050000
vt 0.496194 0.069134
vt 0.485355 0.085355
vt 0.469134 0.096194
vt 0.450000 0.100000
vt 0.430866 0.096194
vt 0.414645 0.085355
vt 0.400000 0.050000
vt 0.403806 0.030866
vt 0.414645 0.014645
vt 0.450000 -0.000000
vt 0.469134 0.003806
vt 0.485355 0.014645
s 0
usemtl Material.001
f 8/1/1 12/2/1 16/3/1
f 16/3/1 1/4/1 2/5/1
f 2/5/1 3/6/1 4/7/1
f 4/7/1 5/8/1 6/9/1
f 6/9/1 7/10/1 8/1/1
f 8/1/1 9/11/1 10/12/1
f 10/12/1 11/13/1 12/2/1
f 12/2/1 13/14/1 14/15/1
f 14/15/1 15/16/1 16/3/1
f 16/3/1 2/5/1 4/7/1
f 4/7/1 6/9/1 8/1/1
f 8/1/1 10/12/1 12/2/1
f 12/2/1 14/15/1 16/3/1
f 16/3/1 4/7/1 8/1/1
o lamp_0
v 2.121310 6.400000 0.015000
v 2.109892 6.457402 0.015000
v 2.077376 6.506065 0.015000
v 2.028713 6.538581 0.015000
v 1.971310 6.549999 0.015000
v 1.913908 6.538581 0.015000
v 1.865245 6.506065 0.015000
v 1.832729 6.457402 0.015000
v 1.821311 6.400000 0.015000
v 1.832729 6.342597 0.015000
v 1.865245 6.293933 0.015000
v 1.913908 6.261417 0.015000
v 1.971310 6.250000 0.015000
v 2.028713 6.261417 0.015000
v 2.077376 6.293933 0.015000
v 2.109892 6.342597 0.015000
vn -0.0000 -0.0000 1.0000
vt 0.003806 0.069134
vt 0.030866 0.003806
vt 0.096194 0.030866
vt 0.100000 0.050000
vt 0.096194 0.069134
vt 0.085355 0.085355
vt 0.069134 0.096194
vt 0.050000 0.100000
vt 0.030866 0.096194
vt 0.014645 0.085355
vt 0.000000 0.050000
vt 0.003806 0.030866
vt 0.014645 0.014645
vt 0.050000 0.000000
vt 0.069134 0.003806
vt 0.085355 0.014645
s 0
usemtl Material.001
f 24/17/2 28/18/2 32/19/2
f 32/19/2 17/20/2 18/21/2
f 18/21/2 19/22/2 20/23/2
f 20/23/2 21/24/2 22/25/2
f 22/25/2 23/26/2 24/17/2
f 24/17/2 25/27/2 26/28/2
f 26/28/2 27/29/2 28/18/2
f 28/18/2 29/30/2 30/31/2
f 30/31/2 31/32/2 32/19/2
f 32/19/2 18/21/2 20/23/2
f 20/23/2 22/25/2 24/17/2
f 24/17/2 26/28/2 28/18/2
f 28/18/2 30/31/2 32/19/2
f 32/19/2 20/23/2 24/17/2
o lamp_1
v 2.521310 6.400000 0.015000
v 2.509892 6.457402 0.015000
v 2.477376 6.506065 0.015000
v 2.428713 6.538581 0.015000
v 2.371310 6.549999 0.015000
v 2.313908 6.538581 0.015000
v 2.265244 6.506065 0.015000
v 2.232728 6.457402 0.015000
v 2.221311 6.400000 0.015000
v 2.232728 6.342597 0.015000
v 2.265244 6.293933 0.015000
v 2.313908 6.261417 0.015000
v 2.371310 6.250000 0.015000
v 2.428713 6.261417 0.015000
v 2.477376 6.293933 0.015000
v 2.509892 6.342597 0.015000
vn -0.0000 -0.0000 1.0000
vt 0.100000 0.050000
vt 0.150000 -0.000000
vt 0.200000 0.050000
vt 0.196194 0.069134
vt 0.185355 0.085355
vt 0.169134 0.096194
vt 0.150000 0.100000
vt 0.130866 0.096194
vt 0.114645 0.085355
vt 0.103806 0.069134
vt 0.103806 0.030866
vt 0.114645 0.014645
vt 0.130866 0.003806
vt 0.169134 0.003806
vt 0.185355 0.014645
vt 0.196194 0.030866
s 0
usemtl Material.001
f 41/33/3 45/34/3 33/35/3
f 33/35/3 34/36/3 35/37/3
f 35/37/3 36/38/3 37/39/3
f 37/39/3 38/40/3 39/41/3
f 39/41/3 40/42/3 41/33/3
f 41/33/3 42/43/3 43/44/3
f 43/44/3 44/45/3 45/34/3
f 45/34/3 46/46/3 47/47/3
f 47/47/3 48/48/3 33/35/3
f 33/35/3 35/37/3 37/39/3
f 37/39/3 39/41/3 41/33/3
f 41/33/3 43/44/3 45/34/3
f 45/34/3 47/47/3 33/35/3
f 33/35/3 37/39/3 41/33/3
o lamp_2
v 2.921310 6.400000 0.015000
v 2.909893 6.457402 0.015000
v 2.877377 6.506065 0.015000
v 2.828713 6.538581 0.015000
v 2.771311 6.549999 0.015000
v 2.713908 6.538581 0.015000
v 2.665245 6.506065 0.015000
v 2.632729 6.457402 0.015000
v 2.621310 6.400000 0.015000
v 2.632729 6.342597 0.015000
v 2.665245 6.293933 0.015000
v 2.713908 6.261417 0.015000
v 2.771311 6.250000 0.015000
v 2.828713 6.261417 0.015000
v 2.877377 6.293933 0.015000
v 2.909893 6.342597 0.015000
vn -0.0000 -0.0000 1.0000
vt 0.203806 0.069134
vt 0.230866 0.003806
vt 0.296194 0.030866
vt 0.300000 0.050000
vt 0.296194 0.069134
vt 0.285355 0.085355
vt 0.269134 0.096194
vt 0.250000 0.100000
vt 0.230866 0.096194
vt 0.214645 0.085355
vt 0.200000 0.050000
vt 0.203806 0.030866
vt 0.214645 0.014645
vt 0.250000 0.000000
vt 0.269134 0.003806
vt 0.285355 0.014645
s 0
usemtl Material.001
f 56/49/4 60/50/4 64/51/4
f 64/51/4 49/52/4 50/53/4
f 50/53/4 51/54/4 52/55/4
f 52/55/4 53/56/4 54/57/4
f 54/57/4 55/58/4 56/49/4
f 56/49/4 57/59/4 58/60/4
f 58/60/4 59/61/4 60/50/4
f 60/50/4 61/62/4 62/63/4
f 62/63/4 63/64/4 64/51/4
f 64/51/4 50/53/4 52/55/4
f 52/55/4 54/57/4 56/49/4
f 56/49/4 58/60/4 60/50/4
f 60/50/4 62/63/4 64/51/4
f 64/51/4 52/55/4 56/49/4
o sub_body
v 1.821311 6.000000 0.299304
v 1.832729 6.057402 0.370000
v 1.865245 6.106066 0.370000
v 1.913908 6.138581 0.370000
v 1.971310 6.150000 0.370000
v 2.028713 6.138581 0.370000
v 2.077376 6.106066 0.370000
v 2.109892 6.057402 0.370000
v 2.121310 6.000000 0.299304
v 1.821311 6.000000 0.070000
v 1.832729 6.057402 0.070000
v 1.865245 6.106066 0.070000
v 1.913908 6.138581 0.070000
v 1.971310 6.150000 0.070000
v 2.028713 6.138581 0.070000
v 2.077376 6.106066 0.070000
v 2.109892 6.057402 0.070000
v 2.121310 6.000000 0.070000
v 1.811503 6.001950 0.299304
v 1.823812 6.061930 0.370000
v 1.858173 6.113137 0.370000
v 1.910081 6.147820 0.370000
v 1.971310 6.159999 0.370000
v 2.032540 6.147820 0.370000
v 2.084447 6.113137 0.370000
v 2.118809 6.061930 0.370000
v 2.131118 6.001950 0.299304
v 1.811503 6.001950 0.070000
v 1.823490 6.061229 0.070000
v 1.858173 6.113137 0.070000
v 1.910081 6.147820 0.070000
v 1.971310 6.159999 0.070000
v 2.032540 6.147820 0.070000
v 2.084447 6.113137 0.070000
v 2.119131 6.061229 0.070000
v 2.131118 6.001950 0.070000
v 1.774310 5.800499 -0.068750
v 1.774310 6.199500 -0.068750
v 2.179310 5.800499 -0.068750
v 2.179310 6.199500 -0.068750
v 1.774310 5.800499 0.068750
v 1.774310 6.199500 0.068750
v 2.179310 5.800499 0.068750
v 2.179310 6.199500 0.068750
v 2.121310 6.000000 0.040000
v 2.109892 6.057402 0.040000
v 2.077376 6.106066 0.040000
v 2.028713 6.138581 0.040000
v 1.971310 6.150000 0.040000
v 1.913908 6.138581 0.040000
v 1.865245 6.106066 0.040000
v 1.832729 6.057402 0.040000
v 1.821311 6.000000 0.040000
v 1.832729 5.942597 0.040000
v 1.865245 5.893933 0.040000
v 1.913908 5.861418 0.040000
v 1.971310 5.849999 0.040000
v 2.028713 5.861418 0.040000
v 2.077376 5.893933 0.040000
v 2.109892 5.942597 0.040000
v 1.913908 6.138581 0.068750
v 2.028713 6.138581 0.068750
v 1.971310 6.150000 0.068750
v 2.121310 6.000000 0.068750
v 2.109892 5.942597 0.068750
v 2.109892 6.057402 0.068750
v 2.077376 6.106066 0.068750
v 1.821311 6.000000 0.068750
v 1.865245 5.893933 0.068750
v 1.832729 5.942597 0.068750
v 1.832729 6.057402 0.068750
v 1.865245 6.106066 0.068750
v 1.913908 5.861418 0.068750
v 2.028713 5.861418 0.068750
v 2.077376 5.893933 0.068750
v 1.971310 5.849999 0.068750
vn -0.5556 -0.8315 -0.0000
vn -0.8315 -0.5556 -0.0000
vn -0.9808 -0.1951 -0.0000
vn 0.9808 -0.1951 -0.0000
vn 0.8315 -0.5556 -0.0000
vn 0.5556 -0.8315 -0.0000
vn 0.1951 -0.9808 -0.0000
vn -0.1951 -0.9808 -0.0000
vn 0.5556 0.8315 -0.0000
vn 0.8315 0.5556 -0.0004
vn 0.9802 0.1982 -0.0000
vn -0.9802 0.1982 -0.0000
vn -0.8315 0.5556 -0.0004
vn -0.5556 0.8315 -0.0000
vn -0.1951 0.9808 -0.0000
vn 0.1951 0.9808 -0.0000
vn -0.1503 -0.7555 0.6377
vn -0.0000 -0.0000 1.0000
vn 0.3475 -0.6843 0.6411
vn -0.0000 -0.0000 -1.0000
vn 1.0000 -0.0000 -0.0000
vn -1.0000 -0.0000 -0.0000
vn -0.0000 -1.0000 -0.0000
vn -0.0000 1.0000 -0.0000
vn -0.8315 0.5556 -0.0000
vn -0.9808 0.1951 -0.0000
vn 0.9808 0.1951 -0.0000
vn 0.8315 0.5556 -0.0000
vn 0.8304 0.5572 -0.0000
vn 0.9797 0.2004 0.0006
vn -0.9797 0.2004 0.0006
vn -0.8304 0.5572 -0.0000
vn -0.3475 -0.6843 0.6411
vn 0.1503 -0.7555 0.6377
vt 0.441457 0.831974
vt 0.417680 0.963893
vt 0.417680 0.831974
vt 0.467193 0.831974
vt 0.441457 0.963893
vt 0.490970 0.932805
vt 0.467193 0.963893
vt 0.514543 0.831973
vt 0.496377 0.932805
vt 0.496377 0.831974
vt 0.390842 0.963892
vt 0.413503 0.831974
vt 0.413503 0.963892
vt 0.365237 0.963892
vt 0.390842 0.831974
vt 0.340588 0.831974
vt 0.365237 0.831974
vt 0.320645 0.963892
vt 0.340588 0.963893
vt 0.495097 0.831972
vt 0.469716 0.700052
vt 0.495097 0.700053
vt 0.442599 0.831971
vt 0.442264 0.700052
vt 0.417680 0.800885
vt 0.417680 0.700053
vt 0.320645 0.731142
vt 0.339504 0.831972
vt 0.320645 0.831974
vt 0.339793 0.700053
vt 0.364863 0.831971
vt 0.364863 0.700052
vt 0.392315 0.831971
vt 0.417680 0.700053
vt 0.417680 0.831972
vt 0.514543 0.700054
vt 0.593505 0.832218
vt 0.591730 0.731314
vt 0.595940 0.731415
vt 0.492970 0.831973
vt 0.496377 0.932805
vt 0.492970 0.932805
vt 0.559658 0.849931
vt 0.584042 0.840597
vt 0.584900 0.844910
vt 0.538259 0.864229
vt 0.557667 0.846010
vt 0.523961 0.885628
vt 0.535150 0.861120
vt 0.518940 0.910869
vt 0.519898 0.883945
vt 0.523961 0.936111
vt 0.514543 0.910869
vt 0.538259 0.957510
vt 0.519898 0.937794
vt 0.557667 0.975729
vt 0.535150 0.960619
vt 0.589295 0.700159
vt 0.584900 0.700052
vt 0.559658 0.831263
vt 0.584042 0.840597
vt 0.557975 0.835326
vt 0.535150 0.820074
vt 0.538259 0.816965
vt 0.519898 0.797249
vt 0.523961 0.795566
vt 0.514543 0.770325
vt 0.518940 0.770325
vt 0.519898 0.743400
vt 0.523961 0.745083
vt 0.535150 0.720575
vt 0.538259 0.723684
vt 0.559658 0.709386
vt 0.557975 0.705324
vt 0.584042 0.700052
vt 0.584900 0.704365
vt 0.021284 0.853250
vt 0.153179 0.719372
vt 0.153179 0.853250
vt 0.066737 0.983753
vt 0.021284 0.983753
vt 0.285075 0.853250
vt 0.153179 0.853250
vt 0.219127 0.834078
vt 0.153179 0.719372
vt 0.285075 0.719372
vt 0.219127 0.734908
vt 0.157642 0.853250
vt 0.203095 0.926527
vt 0.157642 0.926527
vt 0.066737 0.964566
vt 0.112189 0.853250
vt 0.112189 0.964566
vt 0.212598 0.943904
vt 0.203095 0.935600
vt 0.212598 0.935600
vt 0.222102 0.866931
vt 0.231606 0.884805
vt 0.222102 0.884805
vt 0.212598 0.922026
vt 0.222102 0.935707
vt 0.212598 0.935707
vt 0.222102 0.853250
vt 0.231606 0.866931
vt 0.212598 0.904152
vt 0.222102 0.922026
vt 0.212598 0.866217
vt 0.203095 0.853250
vt 0.212598 0.853250
vt 0.212598 0.884805
vt 0.222102 0.904152
vt 0.212598 0.883691
vt 0.203095 0.866217
vt 0.222102 0.866931
vt 0.222102 0.884805
vt 0.212598 0.903013
vt 0.203095 0.883691
vt 0.222102 0.922026
vt 0.231606 0.935707
vt 0.222102 0.935707
vt 0.212598 0.853250
vt 0.212598 0.866931
vt 0.212598 0.921241
vt 0.203095 0.903013
vt 0.222102 0.904152
vt 0.231606 0.922026
vt 0.203095 0.921241
vt 0.231606 0.904152
vt 0.490970 0.831974
vt 0.514543 0.963892
vt 0.469716 0.831971
vt 0.392315 0.700052
vt 0.589295 0.832116
vt 0.496377 0.831973
vt 0.559658 0.971808
vt 0.584900 0.836284
vt 0.021284 0.719372
vt 0.066737 0.853250
vt 0.264937 0.765518
vt 0.254189 0.749431
vt 0.184065 0.749431
vt 0.173317 0.765518
vt 0.169542 0.784493
vt 0.268712 0.784493
vt 0.173317 0.803468
vt 0.264937 0.803468
vt 0.254189 0.819555
vt 0.184065 0.819555
vt 0.200152 0.830303
vt 0.238102 0.830303
vt 0.200152 0.738683
vt 0.238102 0.738683
vt 0.157642 0.964566
vt 0.203095 0.943904
vt 0.231606 0.853250
vt 0.222102 0.853250
s 0
usemtl Material.001
f 80/65/5 70/66/5 79/67/5
f 81/68/6 71/69/6 80/65/6
f 81/68/7 73/70/7 72/71/7
f 75/72/8 65/73/8 74/74/8
f 76/75/9 66/76/9 75/77/9
f 77/78/10 67/79/10 76/75/10
f 77/78/11 69/80/11 68/81/11
f 79/82/12 69/80/12 78/83/12
f 88/84/13 98/85/13 97/86/13
f 98/85/14 90/87/14 99/88/14
f 99/88/15 91/89/15 100/90/15
f 83/91/16 93/92/16 92/93/16
f 84/94/17 94/95/17 93/92/17
f 85/96/18 95/97/18 94/95/18
f 95/97/19 87/98/19 96/99/19
f 87/72/20 97/86/20 96/100/20
f 82/101/11 91/102/11 73/103/11
f 65/104/12 92/105/12 74/106/12
f 66/107/21 83/108/21 65/109/21
f 67/110/22 84/111/22 66/107/22
f 68/112/22 85/113/22 67/110/22
f 69/114/22 86/115/22 68/112/22
f 70/116/22 87/117/22 69/114/22
f 71/118/22 88/119/22 70/116/22
f 71/118/22 90/120/22 89/121/22
f 72/122/23 91/102/23 90/123/23
f 75/124/24 92/125/24 93/126/24
f 75/124/24 94/127/24 76/128/24
f 76/128/24 95/129/24 77/130/24
f 77/130/24 96/131/24 78/132/24
f 78/132/24 97/133/24 79/134/24
f 79/134/24 98/135/24 80/136/24
f 81/137/24 98/135/24 99/138/24
f 81/137/24 100/139/24 82/140/24
f 102/141/24 103/142/24 101/143/24
f 104/141/25 107/144/25 103/145/25
f 107/146/22 108/147/22 128/148/22
f 106/149/22 105/150/22 132/151/22
f 106/152/26 101/153/26 105/154/26
f 107/155/27 101/156/27 103/157/27
f 104/152/28 106/157/28 108/156/28
f 137/158/13 119/159/13 133/160/13
f 127/161/12 112/162/12 126/163/12
f 140/164/20 120/165/20 137/166/20
f 125/167/11 113/168/11 127/161/11
f 138/169/19 121/170/19 140/164/19
f 136/171/10 114/172/10 125/173/10
f 139/174/18 122/175/18 138/169/18
f 135/176/9 115/177/9 136/171/9
f 139/174/29 124/178/29 123/179/29
f 132/180/8 116/181/8 135/176/8
f 130/182/7 109/183/7 128/184/7
f 128/185/30 124/178/30 129/186/30
f 134/187/31 117/188/31 132/180/31
f 131/189/6 110/190/6 130/182/6
f 133/160/32 118/191/32 134/187/32
f 126/163/5 111/192/5 131/189/5
f 80/65/5 71/69/5 70/66/5
f 81/68/6 72/71/6 71/69/6
f 81/68/7 82/193/7 73/70/7
f 75/72/8 66/194/8 65/73/8
f 76/75/9 67/79/9 66/76/9
f 77/78/10 68/81/10 67/79/10
f 77/78/11 78/83/11 69/80/11
f 79/82/12 70/93/12 69/80/12
f 88/84/13 89/195/13 98/85/13
f 98/85/33 89/195/33 90/87/33
f 99/88/34 90/87/34 91/89/34
f 83/91/35 84/94/35 93/92/35
f 84/94/36 85/96/36 94/95/36
f 85/96/18 86/196/18 95/97/18
f 95/97/19 86/196/19 87/98/19
f 87/72/20 88/84/20 97/86/20
f 82/101/11 100/197/11 91/102/11
f 65/104/12 83/198/12 92/105/12
f 66/107/37 84/111/37 83/108/37
f 67/110/22 85/113/22 84/111/22
f 68/112/22 86/115/22 85/113/22
f 69/114/22 87/117/22 86/115/22
f 70/116/22 88/119/22 87/117/22
f 71/118/22 89/121/22 88/119/22
f 71/118/22 72/199/22 90/120/22
f 72/122/38 73/103/38 91/102/38
f 75/124/24 74/200/24 92/125/24
f 75/124/24 93/126/24 94/127/24
f 76/128/24 94/127/24 95/129/24
f 77/130/24 95/129/24 96/131/24
f 78/132/24 96/131/24 97/133/24
f 79/134/24 97/133/24 98/135/24
f 81/137/24 80/136/24 98/135/24
f 81/137/24 99/138/24 100/139/24
f 102/141/24 104/201/24 103/142/24
f 104/141/25 108/202/25 107/144/25
f 137/203/22 133/204/22 105/150/22
f 106/149/22 136/205/22 125/206/22
f 106/149/22 125/206/22 127/207/22
f 137/203/22 105/150/22 107/146/22
f 140/208/22 137/203/22 107/146/22
f 108/147/22 106/149/22 127/207/22
f 108/147/22 127/207/22 126/209/22
f 138/210/22 140/208/22 107/146/22
f 139/211/22 138/210/22 107/146/22
f 108/147/22 126/209/22 131/212/22
f 108/147/22 131/212/22 130/213/22
f 129/214/22 139/211/22 107/146/22
f 108/147/22 130/213/22 128/148/22
f 128/148/22 129/214/22 107/146/22
f 135/215/22 136/205/22 106/149/22
f 105/150/22 133/204/22 134/216/22
f 132/151/22 135/215/22 106/149/22
f 105/150/22 134/216/22 132/151/22
f 106/152/26 102/172/26 101/153/26
f 107/155/27 105/202/27 101/156/27
f 104/152/28 102/217/28 106/157/28
f 137/158/13 120/218/13 119/159/13
f 127/161/12 113/168/12 112/162/12
f 140/164/20 121/170/20 120/165/20
f 125/167/11 114/219/11 113/168/11
f 138/169/19 122/175/19 121/170/19
f 136/171/10 115/177/10 114/172/10
f 139/174/18 123/179/18 122/175/18
f 135/176/9 116/181/9 115/177/9
f 139/174/29 129/186/29 124/178/29
f 132/180/8 117/188/8 116/181/8
f 130/182/7 110/190/7 109/183/7
f 128/185/30 109/220/30 124/178/30
f 134/187/31 118/191/31 117/188/31
f 131/189/6 111/192/6 110/190/6
f 133/160/32 119/159/32 118/191/32
f 126/163/5 112/162/5 111/192/5
o body
v 2.121310 6.400000 0.070000
v 2.109892 6.457402 0.070000
v 2.077376 6.506065 0.070000
v 2.028713 6.538581 0.070000
v 1.971310 6.549999 0.070000
v 1.913908 6.538581 0.070000
v 1.865245 6.506065 0.070000
v 1.832729 6.457402 0.070000
v 1.821311 6.400000 0.070000
v 2.121310 6.400000 0.299304
v 2.109892 6.457402 0.370000
v 2.077376 6.506065 0.370000
v 2.028713 6.538581 0.370000
v 1.971310 6.549999 0.370000
v 1.913908 6.538581 0.370000
v 1.865245 6.506065 0.370000
v 1.832729 6.457402 0.370000
v 1.821311 6.400000 0.299304
v 2.221311 6.400000 0.299304
v 2.232728 6.457402 0.370000
v 2.265244 6.506065 0.370000
v 2.313908 6.538581 0.370000
v 2.371310 6.549999 0.370000
v 2.428713 6.538581 0.370000
v 2.477376 6.506065 0.370000
v 2.509892 6.457402 0.370000
v 2.521310 6.400000 0.299304
v 2.221311 6.400000 0.070000
v 2.232728 6.457402 0.070000
v 2.265244 6.506065 0.070000
v 2.313908 6.538581 0.070000
v 2.371310 6.549999 0.070000
v 2.428713 6.538581 0.070000
v 2.477376 6.506065 0.070000
v 2.509892 6.457402 0.070000
v 2.521310 6.400000 0.070000
v 2.621310 6.400000 0.299304
v 2.632729 6.457402 0.370000
v 2.665245 6.506065 0.370000
v 2.713908 6.538581 0.370000
v 2.771311 6.549999 0.370000
v 2.828713 6.538581 0.370000
v 2.877377 6.506065 0.370000
v 2.909893 6.457402 0.370000
v 2.921310 6.400000 0.299304
v 2.621310 6.400000 0.070000
v 2.632729 6.457402 0.070000
v 2.665245 6.506065 0.070000
v 2.713908 6.538581 0.070000
v 2.771311 6.549999 0.070000
v 2.828713 6.538581 0.070000
v 2.877377 6.506065 0.070000
v 2.909893 6.457402 0.070000
v 2.921310 6.400000 0.070000
v 2.131118 6.401950 0.070000
v 2.119131 6.461229 0.070000
v 2.084447 6.513137 0.070000
v 2.032540 6.547820 0.070000
v 1.971310 6.559999 0.070000
v 1.910081 6.547820 0.070000
v 1.858173 6.513137 0.070000
v 1.823490 6.461229 0.070000
v 1.811503 6.401950 0.070000
v 2.131118 6.401950 0.299304
v 2.118809 6.461929 0.370000
v 2.084447 6.513137 0.370000
v 2.032540 6.547820 0.370000
v 1.971310 6.559999 0.370000
v 1.910081 6.547820 0.370000
v 1.858173 6.513137 0.370000
v 1.823812 6.461929 0.370000
v 1.811503 6.401950 0.299304
v 2.211503 6.401950 0.299304
v 2.223812 6.461929 0.370000
v 2.258173 6.513137 0.370000
v 2.310081 6.547820 0.370000
v 2.371310 6.559999 0.370000
v 2.432540 6.547820 0.370000
v 2.484447 6.513137 0.370000
v 2.518809 6.461929 0.370000
v 2.531118 6.401950 0.299304
v 2.211503 6.401950 0.070000
v 2.223490 6.461229 0.070000
v 2.258173 6.513137 0.070000
v 2.310081 6.547820 0.070000
v 2.371310 6.559999 0.070000
v 2.432540 6.547820 0.070000
v 2.484447 6.513137 0.070000
v 2.519131 6.461229 0.070000
v 2.531118 6.401950 0.070000
v 2.611503 6.401950 0.299304
v 2.623812 6.461929 0.370000
v 2.658174 6.513137 0.370000
v 2.710081 6.547820 0.370000
v 2.771311 6.559999 0.370000
v 2.832540 6.547820 0.370000
v 2.884448 6.513137 0.370000
v 2.918809 6.461929 0.370000
v 2.931118 6.401950 0.299304
v 2.611503 6.401950 0.070000
v 2.623490 6.461229 0.070000
v 2.658174 6.513137 0.070000
v 2.710081 6.547820 0.070000
v 2.771311 6.559999 0.070000
v 2.832540 6.547820 0.070000
v 2.884448 6.513137 0.070000
v 2.919131 6.461229 0.070000
v 2.931118 6.401950 0.070000
v 2.521310 6.400000 0.040000
v 2.509892 6.457402 0.040000
v 2.477376 6.506065 0.040000
v 2.428713 6.538581 0.040000
v 2.371310 6.549999 0.040000
v 2.313908 6.538581 0.040000
v 2.265244 6.506065 0.040000
v 2.232728 6.457402 0.040000
v 2.221311 6.400000 0.040000
v 1.763310 6.200500 -0.068750
v 2.232728 6.342597 0.040000
v 1.763310 6.599500 -0.068750
v 2.265244 6.293933 0.040000
v 2.979311 6.200500 -0.068750
v 2.313908 6.261417 0.040000
v 2.979311 6.599500 -0.068750
v 2.371310 6.250000 0.040000
v 1.763310 6.200500 0.068750
v 2.428713 6.261417 0.040000
v 1.763310 6.599500 0.068750
v 2.477376 6.293933 0.040000
v 2.979311 6.200500 0.068750
v 2.509892 6.342597 0.040000
v 2.979311 6.599500 0.068750
v 1.746310 6.400000 -0.068750
v 2.996310 6.400000 -0.068750
v 2.996310 6.400000 0.068750
v 1.746310 6.400000 0.068750
v 2.573977 6.200500 -0.068750
v 2.168644 6.200500 -0.068750
v 2.168644 6.599500 -0.068750
v 2.573977 6.599500 -0.068750
v 2.168644 6.200500 0.068750
v 2.573977 6.200500 0.068750
v 2.573977 6.599500 0.068750
v 2.168644 6.599500 0.068750
v 2.579644 6.400000 0.068750
v 2.162977 6.400000 0.068750
v 2.162977 6.400000 -0.068750
v 2.579644 6.400000 -0.068750
v 2.921310 6.400000 0.040000
v 2.909893 6.457402 0.040000
v 2.877377 6.506065 0.040000
v 2.828713 6.538581 0.040000
v 2.771311 6.549999 0.040000
v 2.713908 6.538581 0.040000
v 2.665245 6.506065 0.040000
v 2.632729 6.457402 0.040000
v 2.621310 6.400000 0.040000
v 2.632729 6.342597 0.040000
v 2.665245 6.293933 0.040000
v 2.713908 6.261417 0.040000
v 2.771311 6.250000 0.040000
v 2.828713 6.261417 0.040000
v 2.877377 6.293933 0.040000
v 2.909893 6.342597 0.040000
v 2.121310 6.400000 0.040000
v 2.109892 6.457402 0.040000
v 2.077376 6.506065 0.040000
v 2.028713 6.538581 0.040000
v 1.971310 6.549999 0.040000
v 1.913908 6.538581 0.040000
v 1.865245 6.506065 0.040000
v 1.832729 6.457402 0.040000
v 1.821311 6.400000 0.040000
v 1.832729 6.342597 0.040000
v 1.865245 6.293933 0.040000
v 1.913908 6.261417 0.040000
v 1.971310 6.250000 0.040000
v 2.028713 6.261417 0.040000
v 2.077376 6.293933 0.040000
v 2.109892 6.342597 0.040000
v 1.913908 6.538581 0.068750
v 1.971310 6.549999 0.068750
v 2.077376 6.506065 0.068750
v 2.109892 6.457402 0.068750
v 2.028713 6.538581 0.068750
v 1.832729 6.457402 0.068750
v 1.821311 6.400000 0.068750
v 1.821311 6.400000 0.068750
v 2.121310 6.400000 0.068750
v 2.121310 6.400000 0.068750
v 1.865245 6.506065 0.068750
v 2.109892 6.342597 0.068750
v 2.077376 6.293933 0.068750
v 1.832729 6.342597 0.068750
v 1.865245 6.293933 0.068750
v 1.913908 6.261417 0.068750
v 2.028713 6.261417 0.068750
v 1.971310 6.250000 0.068750
v 2.621310 6.400000 0.068750
v 2.909893 6.342597 0.068750
v 2.921310 6.400000 0.068750
v 2.877377 6.293933 0.068750
v 2.632729 6.342597 0.068750
v 2.665245 6.293933 0.068750
v 2.713908 6.261417 0.068750
v 2.828713 6.261417 0.068750
v 2.771311 6.250000 0.068750
v 2.221311 6.400000 0.068750
v 2.509892 6.342597 0.068750
v 2.521310 6.400000 0.068750
v 2.477376 6.293933 0.068750
v 2.232728 6.342597 0.068750
v 2.265244 6.293933 0.068750
v 2.313908 6.261417 0.068750
v 2.428713 6.261417 0.068750
v 2.371310 6.250000 0.068750
v 2.713908 6.538581 0.068750
v 2.771311 6.549999 0.068750
v 2.877377 6.506065 0.068750
v 2.909893 6.457402 0.068750
v 2.828713 6.538581 0.068750
v 2.632729 6.457402 0.068750
v 2.621310 6.400000 0.068750
v 2.921310 6.400000 0.068750
v 2.665245 6.506065 0.068750
v 2.313908 6.538581 0.068750
v 2.371310 6.549999 0.068750
v 2.477376 6.506065 0.068750
v 2.509892 6.457402 0.068750
v 2.428713 6.538581 0.068750
v 2.232728 6.457402 0.068750
v 2.221311 6.400000 0.068750
v 2.521310 6.400000 0.068750
v 2.265244 6.506065 0.068750
v 0.100000 -0.000000 -0.000000
v 0.100000 9.000000 -0.000000
v 0.092388 -0.000000 0.038268
v 0.092388 9.000000 0.038268
v 0.070711 -0.000000 0.070711
v 0.070711 9.000000 0.070711
v 0.038268 -0.000000 0.092388
v 0.038268 9.000000 0.092388
v 0.000000 -0.000000 0.100000
v 0.000000 9.000000 0.100000
v -0.038268 -0.000000 0.092388
v -0.038268 9.000000 0.092388
v -0.070711 -0.000000 0.070711
v -0.070711 9.000000 0.070711
v -0.092388 -0.000000 0.038268
v -0.092388 9.000000 0.038268
v -0.100000 -0.000000 -0.000000
v -0.100000 9.000000 -0.000000
v -0.092388 -0.000000 -0.038269
v -0.092388 9.000000 -0.038269
v -0.070711 -0.000000 -0.070711
v -0.070711 9.000000 -0.070711
v -0.038268 -0.000000 -0.092388
v -0.038268 9.000000 -0.092388
v 0.000000 -0.000000 -0.100000
v 0.000000 9.000000 -0.100000
v 0.038268 -0.000000 -0.092388
v 0.038268 9.000000 -0.092388
v 0.070711 -0.000000 -0.070711
v 0.070711 9.000000 -0.070711
v 0.092388 -0.000000 -0.038269
v 0.092388 9.000000 -0.038269
v -0.200000 6.539999 -0.140000
v -0.200000 6.536955 -0.155308
v -0.200000 6.528284 -0.168284
v -0.200000 6.515307 -0.176955
v -0.200000 6.500000 -0.180000
v -0.200000 6.484692 -0.176955
v -0.200000 6.471715 -0.168284
v -0.200000 6.463044 -0.155308
v -0.200000 6.460000 -0.140000
v -0.200000 6.463044 -0.124693
v -0.200000 6.471715 -0.111716
v -0.200000 6.484692 -0.103045
v -0.200000 6.500000 -0.100000
v -0.200000 6.515307 -0.103045
v -0.200000 6.528284 -0.111716
v -0.200000 6.536955 -0.124693
v 2.800000 6.539999 -0.140000
v 2.800000 6.536955 -0.155308
v 2.800000 6.528284 -0.168284
v 2.800000 6.515307 -0.176955
v 2.800000 6.500000 -0.180000
v 2.800000 6.484692 -0.176955
v 2.800000 6.471715 -0.168284
v 2.800000 6.463044 -0.155308
v 2.800000 6.460000 -0.140000
v 2.800000 6.463044 -0.124693
v 2.800000 6.471715 -0.111716
v 2.800000 6.484692 -0.103045
v 2.800000 6.500000 -0.100000
v 2.800000 6.515307 -0.103045
v 2.800000 6.528284 -0.111716
v 2.800000 6.536955 -0.124693
v -0.200000 6.340000 -0.140000
v -0.200000 6.336955 -0.155308
v -0.200000 6.328284 -0.168284
v -0.200000 6.315307 -0.176955
v -0.200000 6.299999 -0.180000
v -0.200000 6.284692 -0.176955
v -0.200000 6.271715 -0.168284
v -0.200000 6.263044 -0.155308
v -0.200000 6.259999 -0.140000
v -0.200000 6.263044 -0.124693
v -0.200000 6.271715 -0.111716
v -0.200000 6.284692 -0.103045
v -0.200000 6.299999 -0.100000
v -0.200000 6.315307 -0.103045
v -0.200000 6.328284 -0.111716
v -0.200000 6.336955 -0.124693
v 2.800000 6.340000 -0.140000
v 2.800000 6.336955 -0.155308
v 2.800000 6.328284 -0.168284
v 2.800000 6.315307 -0.176955
v 2.800000 6.299999 -0.180000
v 2.800000 6.284692 -0.176955
v 2.800000 6.271715 -0.168284
v 2.800000 6.263044 -0.155308
v 2.800000 6.259999 -0.140000
v 2.800000 6.263044 -0.124693
v 2.800000 6.271715 -0.111716
v 2.800000 6.284692 -0.103045
v 2.800000 6.299999 -0.100000
v 2.800000 6.315307 -0.103045
v 2.800000 6.328284 -0.111716
v 2.800000 6.336955 -0.124693
vn -0.1951 -0.9808 -0.0000
vn 0.1951 -0.9808 -0.0000
vn 0.5556 -0.8315 -0.0000
vn 0.8315 -0.5556 -0.0000
vn 0.9808 -0.1951 -0.0000
vn -0.9808 -0.1951 -0.0000
vn -0.8315 -0.5556 -0.0000
vn -0.5556 -0.8315 -0.0000
vn 0.1951 0.9808 -0.0000
vn -0.1951 0.9808 -0.0000
vn -0.5556 0.8315 -0.0000
vn -0.8315 0.5556 -0.0004
vn -0.9802 0.1982 -0.0000
vn 0.9802 0.1982 -0.0000
vn 0.8315 0.5556 -0.0004
vn 0.5556 0.8315 -0.0000
vn -0.0000 -0.0000 -1.0000
vn 0.3475 -0.6843 0.6411
vn -0.0000 -0.0000 1.0000
vn -0.1503 -0.7555 0.6377
vn 0.9964 0.0849 -0.0000
vn -0.9964 0.0849 -0.0000
vn -0.0000 -1.0000 -0.0000
vn -0.0000 1.0000 -0.0000
vn -0.9964 -0.0849 -0.0000
vn 0.9964 -0.0849 -0.0000
vn -0.8315 0.5556 -0.0000
vn -0.9808 0.1951 -0.0000
vn 1.0000 -0.0000 -0.0000
vn 0.8315 0.5556 -0.0000
vn 0.9808 -0.0000 0.1951
vn 0.8315 -0.0000 0.5556
vn 0.5556 -0.0000 0.8315
vn 0.1951 -0.0000 0.9808
vn -0.1951 -0.0000 0.9808
vn -0.5556 -0.0000 0.8315
vn -0.8315 -0.0000 0.5556
vn -0.9808 -0.0000 0.1951
vn -0.9808 -0.0000 -0.1951
vn -0.8315 -0.0000 -0.5556
vn -0.5556 -0.0000 -0.8315
vn -0.1951 -0.0000 -0.9808
vn 0.1951 -0.0000 -0.9808
vn 0.5556 -0.0000 -0.8315
vn 0.8315 -0.0000 -0.5556
vn 0.9808 -0.0000 -0.1951
vn -0.0000 -0.9808 -0.1951
vn -0.0000 0.9808 -0.1951
vn -0.0000 0.9808 0.1951
vn -0.0000 -0.9808 0.1951
vn -0.0000 0.8315 -0.5556
vn -0.0000 -0.8315 0.5556
vn -0.0000 0.5556 -0.8315
vn -0.0000 -0.5556 0.8315
vn -0.0000 0.1951 -0.9808
vn -0.0000 -0.1951 0.9808
vn -0.0000 -0.1951 -0.9808
vn -0.0000 0.1951 0.9808
vn -0.0000 -0.5556 -0.8315
vn -0.0000 0.5556 0.8315
vn -0.0000 -0.8315 -0.5556
vn -0.0000 0.8315 0.5556
vn -0.8304 0.5572 -0.0000
vn -0.9797 0.2004 0.0006
vn 0.9797 0.2004 0.0006
vn 0.8304 0.5572 -0.0000
vn 0.1503 -0.7555 0.6377
vn -0.3475 -0.6843 0.6411
vn -1.0000 -0.0000 -0.0000
vn 0.9808 0.1951 -0.0000
vt 0.287815 0.973347
vt 0.304308 0.864247
vt 0.304308 0.973347
vt 0.324693 0.973347
vt 0.324693 0.864247
vt 0.345869 0.864247
vt 0.345869 0.973347
vt 0.364610 0.864247
vt 0.364610 0.973347
vt 0.448172 0.864246
vt 0.433149 0.947637
vt 0.433149 0.864247
vt 0.409013 0.864247
vt 0.428677 0.947637
vt 0.409013 0.973347
vt 0.387729 0.973347
vt 0.387729 0.864247
vt 0.368065 0.973347
vt 0.368065 0.864247
vt 0.494998 0.746080
vt 0.476603 0.851985
vt 0.476603 0.746080
vt 0.509580 0.858911
vt 0.494998 0.964815
vt 0.494998 0.858910
vt 0.528653 0.939859
vt 0.509580 0.964815
vt 0.418690 0.957890
vt 0.439351 0.876942
vt 0.439351 0.957890
vt 0.399613 0.957891
vt 0.418690 0.851985
vt 0.436349 0.746080
vt 0.420618 0.851985
vt 0.420618 0.746080
vt 0.456008 0.851985
vt 0.436348 0.851985
vt 0.456008 0.746080
vt 0.505377 0.754451
vt 0.486747 0.861706
vt 0.486747 0.754451
vt 0.520145 0.868720
vt 0.505377 0.975975
vt 0.505377 0.868719
vt 0.539462 0.950701
vt 0.520145 0.975976
vt 0.428096 0.968962
vt 0.449021 0.886982
vt 0.449021 0.968962
vt 0.408776 0.968963
vt 0.428096 0.861706
vt 0.445980 0.754451
vt 0.430048 0.861706
vt 0.430048 0.754451
vt 0.465890 0.754451
vt 0.445980 0.861706
vt 0.465890 0.861706
vt 0.432090 0.755146
vt 0.448172 0.755147
vt 0.347087 0.864245
vt 0.368065 0.755146
vt 0.368065 0.864246
vt 0.324384 0.755146
vt 0.324384 0.864245
vt 0.303650 0.755146
vt 0.303411 0.864246
vt 0.287815 0.780857
vt 0.287815 0.864247
vt 0.388396 0.755146
vt 0.368065 0.838536
vt 0.368065 0.755146
vt 0.411099 0.755146
vt 0.388673 0.864245
vt 0.432090 0.864246
vt 0.378219 0.851985
vt 0.357858 0.746080
vt 0.378219 0.746080
vt 0.342434 0.851985
vt 0.342274 0.746080
vt 0.528653 0.964815
vt 0.548532 0.883909
vt 0.548364 0.964857
vt 0.399613 0.932933
vt 0.378263 0.851985
vt 0.399613 0.851985
vt 0.377999 0.957890
vt 0.357887 0.851986
vt 0.357887 0.957891
vt 0.342274 0.851986
vt 0.400257 0.746080
vt 0.420618 0.746080
vt 0.400257 0.851985
vt 0.393646 0.754451
vt 0.414266 0.861706
vt 0.393646 0.861706
vt 0.429886 0.754451
vt 0.539462 0.975975
vt 0.559594 0.894038
vt 0.559424 0.976018
vt 0.408776 0.943687
vt 0.387154 0.861706
vt 0.408776 0.861706
vt 0.386886 0.968962
vt 0.366517 0.861707
vt 0.366517 0.968962
vt 0.350706 0.861708
vt 0.350706 0.754451
vt 0.371326 0.861706
vt 0.350706 0.861706
vt 0.371326 0.754451
vt 0.485483 0.762865
vt 0.505649 0.755146
vt 0.506358 0.758712
vt 0.465214 0.772118
vt 0.484091 0.759505
vt 0.455961 0.792387
vt 0.467786 0.774690
vt 0.451809 0.813262
vt 0.452601 0.790995
vt 0.455961 0.834138
vt 0.448172 0.813262
vt 0.467786 0.851835
vt 0.452601 0.835529
vt 0.485483 0.863660
vt 0.465214 0.854406
vt 0.505649 0.871379
vt 0.484091 0.867020
vt 0.509993 0.755233
vt 0.512007 0.780999
vt 0.506358 0.755146
vt 0.467786 0.968068
vt 0.483837 0.983135
vt 0.465214 0.970639
vt 0.452601 0.951762
vt 0.455961 0.950371
vt 0.448172 0.929495
vt 0.451809 0.929495
vt 0.455961 0.908620
vt 0.452601 0.907228
vt 0.467786 0.890923
vt 0.465214 0.888351
vt 0.483837 0.875855
vt 0.485483 0.879098
vt 0.506358 0.874946
vt 0.430331 0.864246
vt 0.433149 0.947636
vt 0.430331 0.947636
vt 0.513476 0.864449
vt 0.515489 0.781083
vt 0.483772 0.958081
vt 0.475570 0.877479
vt 0.478923 0.877278
vt 0.493736 0.932978
vt 0.491479 0.851985
vt 0.494998 0.852040
vt 0.494998 0.957958
vt 0.490217 0.932923
vt 0.456530 0.941498
vt 0.440950 0.956124
vt 0.439351 0.952976
vt 0.468009 0.924319
vt 0.459026 0.943994
vt 0.475570 0.904055
vt 0.471270 0.925670
vt 0.468009 0.883790
vt 0.472040 0.904055
vt 0.459026 0.864115
vt 0.471270 0.882440
vt 0.456530 0.866612
vt 0.440950 0.851985
vt 0.483772 0.851985
vt 0.480836 0.852161
vt 0.515262 0.753573
vt 0.495687 0.746080
vt 0.516613 0.750312
vt 0.534937 0.762556
vt 0.532441 0.765052
vt 0.547181 0.780880
vt 0.543920 0.782231
vt 0.551480 0.802495
vt 0.547950 0.802495
vt 0.547181 0.824110
vt 0.543920 0.822759
vt 0.534937 0.842434
vt 0.532441 0.839938
vt 0.515262 0.851417
vt 0.516613 0.854678
vt 0.495687 0.858910
vt 0.494998 0.855448
vt 0.494008 0.969155
vt 0.485701 0.887526
vt 0.489097 0.887322
vt 0.504099 0.943732
vt 0.501814 0.861706
vt 0.505377 0.861762
vt 0.505377 0.969031
vt 0.500535 0.943677
vt 0.468303 0.876519
vt 0.484083 0.861706
vt 0.485701 0.864894
vt 0.453375 0.892549
vt 0.465775 0.873991
vt 0.456678 0.893917
vt 0.449021 0.914440
vt 0.456678 0.934962
vt 0.452596 0.914440
vt 0.468303 0.952360
vt 0.453375 0.936330
vt 0.484083 0.967173
vt 0.465775 0.954888
vt 0.494008 0.861706
vt 0.491035 0.861885
vt 0.542057 0.861131
vt 0.561882 0.868719
vt 0.540689 0.864434
vt 0.522131 0.852034
vt 0.524659 0.849506
vt 0.509731 0.833476
vt 0.513034 0.832108
vt 0.505377 0.811585
vt 0.508952 0.811585
vt 0.509731 0.789694
vt 0.513034 0.791063
vt 0.522131 0.771137
vt 0.524659 0.773665
vt 0.540689 0.758736
vt 0.542057 0.762039
vt 0.561882 0.754451
vt 0.562580 0.757957
vt 0.284922 0.847788
vt 0.255123 0.788090
vt 0.284922 0.785551
vt 0.415395 0.785551
vt 0.435934 0.814570
vt 0.415395 0.814570
vt 0.314721 0.848634
vt 0.314721 0.788090
vt 0.322115 0.819159
vt 0.374319 0.957111
vt 0.392986 0.936572
vt 0.392986 0.957111
vt 0.394857 0.835891
vt 0.374319 0.785551
vt 0.394857 0.785551
vt 0.394857 0.886232
vt 0.415395 0.936572
vt 0.394857 0.936572
vt 0.392986 0.957111
vt 0.411653 0.936572
vt 0.411653 0.957111
vt 0.374319 0.788090
vt 0.374319 0.848634
vt 0.366925 0.819159
vt 0.435934 0.844394
vt 0.415395 0.844394
vt 0.314721 0.848634
vt 0.314721 0.969722
vt 0.284922 0.910025
vt 0.314721 0.909178
vt 0.374319 0.909178
vt 0.374319 0.969722
vt 0.366925 0.938654
vt 0.366925 0.878906
vt 0.415395 0.835891
vt 0.415395 0.886232
vt 0.374319 0.886232
vt 0.374319 0.835891
vt 0.314721 0.909178
vt 0.322115 0.938654
vt 0.322115 0.878906
vt 0.255123 0.969722
vt 0.284922 0.972262
vt 0.255123 0.909178
vt 0.423984 0.885269
vt 0.419690 0.881627
vt 0.423984 0.881627
vt 0.423984 0.887834
vt 0.428278 0.895911
vt 0.423984 0.895911
vt 0.419690 0.916346
vt 0.423984 0.922528
vt 0.419690 0.922528
vt 0.423984 0.881653
vt 0.428278 0.887834
vt 0.419690 0.908269
vt 0.423984 0.916346
vt 0.423984 0.850343
vt 0.419690 0.844394
vt 0.423984 0.844394
vt 0.423984 0.899527
vt 0.423984 0.908269
vt 0.423984 0.858290
vt 0.419690 0.850343
vt 0.419690 0.891451
vt 0.419690 0.899527
vt 0.423984 0.867026
vt 0.419690 0.858290
vt 0.423984 0.918911
vt 0.428278 0.912730
vt 0.428278 0.918911
vt 0.419690 0.885269
vt 0.423984 0.885269
vt 0.423984 0.891451
vt 0.419690 0.875221
vt 0.423984 0.904653
vt 0.423984 0.912730
vt 0.423984 0.875221
vt 0.428278 0.904653
vt 0.415395 0.881627
vt 0.423984 0.925093
vt 0.428278 0.933169
vt 0.423984 0.933169
vt 0.419690 0.953605
vt 0.423984 0.959786
vt 0.419690 0.959786
vt 0.423984 0.918911
vt 0.428278 0.925093
vt 0.419690 0.945528
vt 0.423984 0.953605
vt 0.423984 0.936786
vt 0.423984 0.945528
vt 0.419690 0.858290
vt 0.415395 0.850343
vt 0.419690 0.928709
vt 0.419690 0.936786
vt 0.419690 0.867026
vt 0.415395 0.858290
vt 0.423984 0.956170
vt 0.428278 0.949988
vt 0.428278 0.956170
vt 0.423984 0.928709
vt 0.415395 0.875221
vt 0.423984 0.941912
vt 0.423984 0.949988
vt 0.419690 0.875221
vt 0.428278 0.941912
vt 0.419690 0.926144
vt 0.415395 0.922502
vt 0.419690 0.922502
vt 0.428278 0.850576
vt 0.432573 0.858652
vt 0.428278 0.858652
vt 0.423984 0.875471
vt 0.428278 0.881653
vt 0.428278 0.844394
vt 0.432573 0.850576
vt 0.423984 0.867394
vt 0.428278 0.875471
vt 0.419690 0.891218
vt 0.415395 0.885269
vt 0.419690 0.885269
vt 0.428278 0.867394
vt 0.419690 0.899165
vt 0.415395 0.891218
vt 0.423984 0.850576
vt 0.423984 0.858652
vt 0.419690 0.907901
vt 0.415395 0.899165
vt 0.432573 0.875471
vt 0.432573 0.881653
vt 0.415395 0.916096
vt 0.419690 0.916096
vt 0.432573 0.867394
vt 0.948631 0.824823
vt 0.036604 0.820945
vt 0.036604 0.824823
vt 0.948631 0.820945
vt 0.036604 0.817658
vt 0.948631 0.817658
vt 0.036604 0.828701
vt 0.948631 0.828701
vt 0.036604 0.831989
vt 0.948631 0.831989
vt 0.485452 0.831989
vt 0.485452 0.817658
vt 0.499783 0.817658
vt 0.483255 0.820945
vt 0.488740 0.834186
vt 0.501980 0.828701
vt 0.631458 0.914561
vt 0.339375 0.913071
vt 0.631458 0.913071
vt 0.339375 0.914561
vt 0.631458 0.911581
vt 0.339375 0.911581
vt 0.339375 0.915825
vt 0.631458 0.915825
vt 0.339375 0.910317
vt 0.631458 0.910317
vt 0.631458 0.900581
vt 0.339375 0.901845
vt 0.631458 0.901845
vt 0.631458 0.906089
vt 0.339375 0.904825
vt 0.631458 0.904825
vt 0.339375 0.903335
vt 0.631458 0.903335
vt 0.339375 0.906089
vt 0.339375 0.900581
vt 0.740900 0.918142
vt 0.249204 0.915633
vt 0.740900 0.915633
vt 0.249204 0.918142
vt 0.740900 0.913124
vt 0.249204 0.913124
vt 0.249204 0.920269
vt 0.740900 0.920269
vt 0.249204 0.910997
vt 0.740900 0.910997
vt 0.740900 0.927387
vt 0.249204 0.929514
vt 0.740900 0.929514
vt 0.740900 0.936659
vt 0.249204 0.934532
vt 0.740900 0.934532
vt 0.249204 0.932023
vt 0.740900 0.932023
vt 0.249204 0.936659
vt 0.249204 0.927387
vt 0.287815 0.864247
vt 0.448172 0.973346
vt 0.428677 0.864247
vt 0.494998 0.851985
vt 0.528653 0.858911
vt 0.399613 0.851986
vt 0.505377 0.861706
vt 0.539462 0.868720
vt 0.408776 0.861707
vt 0.347087 0.755146
vt 0.411099 0.864245
vt 0.357858 0.851985
vt 0.528653 0.858910
vt 0.342274 0.957891
vt 0.414266 0.754451
vt 0.539462 0.868719
vt 0.350706 0.968963
vt 0.506358 0.867812
vt 0.485483 0.979893
vt 0.433149 0.864246
vt 0.509993 0.864365
vt 0.480419 0.958282
vt 0.491686 0.957906
vt 0.439351 0.855133
vt 0.494998 0.749543
vt 0.490612 0.969359
vt 0.502023 0.968978
vt 0.485701 0.963985
vt 0.562580 0.865213
vt 0.255123 0.848634
vt 0.435934 0.785551
vt 0.344520 0.841564
vt 0.344520 0.847788
vt 0.344520 0.785551
vt 0.344520 0.796753
vt 0.335946 0.839859
vt 0.335946 0.798459
vt 0.328677 0.803316
vt 0.328677 0.835002
vt 0.323820 0.827733
vt 0.323820 0.810585
vt 0.374319 0.936572
vt 0.353094 0.798459
vt 0.353094 0.839859
vt 0.360363 0.803316
vt 0.360363 0.835002
vt 0.365220 0.827733
vt 0.365220 0.810585
vt 0.353094 0.917954
vt 0.344520 0.916248
vt 0.344520 0.910025
vt 0.344520 0.972262
vt 0.344520 0.961059
vt 0.353094 0.959353
vt 0.360363 0.922811
vt 0.360363 0.954497
vt 0.365220 0.947228
vt 0.365220 0.930080
vt 0.353094 0.858206
vt 0.344520 0.856501
vt 0.344520 0.901311
vt 0.353094 0.899606
vt 0.360363 0.863063
vt 0.360363 0.894749
vt 0.365220 0.887480
vt 0.365220 0.870332
vt 0.335946 0.959353
vt 0.335946 0.917954
vt 0.328677 0.922811
vt 0.328677 0.954497
vt 0.323820 0.947228
vt 0.323820 0.930080
vt 0.335946 0.899606
vt 0.335946 0.858206
vt 0.328677 0.863063
vt 0.328677 0.894749
vt 0.323820 0.887480
vt 0.323820 0.870332
vt 0.415395 0.885269
vt 0.428278 0.918911
vt 0.415395 0.867026
vt 0.415395 0.926144
vt 0.432573 0.844394
vt 0.415395 0.907901
vt 0.501980 0.820945
vt 0.502751 0.824823
vt 0.499783 0.831989
vt 0.496496 0.834186
vt 0.492618 0.834957
vt 0.483255 0.828701
vt 0.482484 0.824823
vt 0.488740 0.815461
vt 0.492618 0.814690
vt 0.496496 0.815461
s 0
usemtl Material.001
f 144/221/39 154/222/39 145/223/39
f 146/224/40 154/222/40 155/225/40
f 146/224/41 156/226/41 147/227/41
f 147/227/42 157/228/42 148/229/42
f 148/230/43 158/231/43 149/232/43
f 142/233/44 150/234/44 151/235/44
f 142/233/45 152/236/45 143/237/45
f 143/237/46 153/238/46 144/239/46
f 174/240/46 164/241/46 173/242/46
f 175/243/45 165/244/45 174/245/45
f 175/243/44 167/246/44 166/247/44
f 169/248/43 159/249/43 168/250/43
f 170/251/42 160/252/42 169/248/42
f 171/253/41 161/254/41 170/255/41
f 171/253/40 163/256/40 162/257/40
f 173/242/39 163/256/39 172/258/39
f 192/259/46 182/260/46 191/261/46
f 193/262/45 183/263/45 192/264/45
f 193/262/44 185/265/44 184/266/44
f 187/267/43 177/268/43 186/269/43
f 188/270/42 178/271/42 187/267/42
f 189/272/41 179/273/41 188/274/41
f 190/275/40 180/276/40 189/272/40
f 191/261/39 181/277/39 190/275/39
f 208/230/47 198/278/47 199/279/47
f 200/280/48 208/281/48 199/282/48
f 210/283/49 200/280/49 201/284/49
f 211/285/50 201/284/50 202/286/50
f 212/287/51 202/286/51 203/288/51
f 196/289/52 204/290/52 195/291/52
f 197/292/53 205/293/53 196/289/53
f 207/294/54 197/292/54 198/278/54
f 218/295/54 228/296/54 227/297/54
f 228/296/53 220/298/53 229/299/53
f 229/300/52 221/301/52 230/302/52
f 213/303/51 223/304/51 222/305/51
f 214/306/50 224/307/50 223/304/50
f 215/308/49 225/309/49 224/307/49
f 216/254/48 226/310/48 225/311/48
f 217/312/47 227/297/47 226/310/47
f 236/313/54 246/314/54 245/315/54
f 246/314/53 238/316/53 247/273/53
f 247/317/52 239/318/52 248/319/52
f 231/320/51 241/321/51 240/322/51
f 232/323/50 242/324/50 241/321/50
f 233/325/49 243/326/49 242/324/49
f 234/327/48 244/328/48 243/329/48
f 235/330/47 245/315/47 244/328/47
f 142/331/55 195/332/55 141/333/55
f 142/331/55 197/334/55 196/335/55
f 144/336/55 197/334/55 143/337/55
f 145/338/55 198/339/55 144/336/55
f 146/340/55 199/341/55 145/338/55
f 147/342/55 200/343/55 146/340/55
f 148/344/55 201/345/55 147/342/55
f 148/344/55 203/346/55 202/347/55
f 151/348/56 204/349/56 205/350/56
f 152/351/57 205/352/57 206/353/57
f 152/351/57 207/354/57 153/355/57
f 153/355/57 208/356/57 154/357/57
f 155/358/57 208/356/57 209/359/57
f 156/360/57 209/359/57 210/361/57
f 156/360/57 211/362/57 157/363/57
f 157/363/58 212/346/58 158/364/58
f 158/365/39 203/366/39 149/367/39
f 141/368/40 204/349/40 150/369/40
f 176/370/40 221/371/40 167/372/40
f 159/373/39 222/374/39 168/375/39
f 160/376/58 213/377/58 159/373/58
f 161/378/57 214/379/57 160/380/57
f 162/381/57 215/382/57 161/378/57
f 162/381/57 217/383/57 216/384/57
f 164/385/57 217/383/57 163/386/57
f 164/385/57 219/387/57 218/388/57
f 165/389/57 220/390/57 219/387/57
f 166/391/56 221/371/56 220/392/56
f 169/393/55 222/394/55 223/395/55
f 169/393/55 224/396/55 170/397/55
f 170/397/55 225/398/55 171/399/55
f 171/399/55 226/400/55 172/401/55
f 172/401/55 227/402/55 173/403/55
f 173/403/55 228/404/55 174/405/55
f 175/406/55 228/404/55 229/407/55
f 175/406/55 230/408/55 176/409/55
f 194/410/40 239/411/40 185/412/40
f 177/413/39 240/414/39 186/415/39
f 178/416/58 231/417/58 177/413/58
f 179/418/57 232/419/57 178/420/57
f 179/418/57 234/421/57 233/422/57
f 180/423/57 235/424/57 234/421/57
f 182/425/57 235/424/57 181/426/57
f 183/427/57 236/428/57 182/425/57
f 183/427/57 238/429/57 237/430/57
f 184/431/56 239/411/56 238/432/56
f 187/433/55 240/434/55 241/435/55
f 187/433/55 242/436/55 188/437/55
f 188/437/55 243/438/55 189/439/55
f 189/439/55 244/440/55 190/441/55
f 190/441/55 245/442/55 191/443/55
f 191/443/55 246/444/55 192/445/55
f 192/445/55 247/446/55 193/447/55
f 193/447/55 248/448/55 194/449/55
f 288/450/55 264/451/55 274/452/55
f 264/453/59 275/454/59 274/455/59
f 284/456/57 268/457/57 322/458/57
f 268/459/60 273/460/60 276/461/60
f 278/462/61 266/463/61 258/464/61
f 284/465/62 260/466/62 268/467/62
f 276/468/63 258/469/63 266/470/63
f 266/471/57 281/472/57 338/473/57
f 274/455/64 270/474/64 262/475/64
f 288/450/55 262/457/55 277/476/55
f 258/477/55 287/478/55 278/479/55
f 287/478/55 277/476/55 278/479/55
f 282/480/57 270/481/57 347/482/57
f 281/472/57 282/480/57 356/483/57
f 272/464/62 280/484/62 283/462/62
f 283/462/62 279/485/62 284/465/62
f 262/467/61 282/486/61 277/465/61
f 277/465/61 281/487/61 278/462/61
f 272/477/57 283/488/57 358/489/57
f 283/488/57 284/456/57 367/490/57
f 260/491/55 287/478/55 273/492/55
f 279/493/55 288/450/55 287/478/55
f 354/494/54 261/495/54 353/496/54
f 367/497/39 252/498/39 370/499/39
f 356/500/47 263/501/47 354/502/47
f 366/503/40 253/504/40 367/497/40
f 355/505/48 265/506/48 356/500/48
f 374/507/41 254/508/41 366/509/41
f 355/505/49 269/510/49 267/511/49
f 371/512/42 255/513/42 374/507/42
f 349/514/65 269/510/65 351/515/65
f 372/516/43 256/517/43 371/512/43
f 373/518/44 250/519/44 249/520/44
f 350/521/66 249/522/66 271/523/66
f 348/516/67 259/524/67 372/516/67
f 368/525/45 250/519/45 369/526/45
f 353/496/68 259/524/68 352/527/68
f 370/499/46 251/528/46 368/525/46
f 345/521/54 299/529/54 344/495/54
f 358/530/39 292/531/39 361/532/39
f 347/533/47 300/534/47 345/535/47
f 357/536/40 293/537/40 358/530/40
f 346/538/48 301/539/48 347/533/48
f 365/513/41 294/475/41 357/508/41
f 346/538/49 303/540/49 302/541/49
f 362/542/42 295/543/42 365/513/42
f 340/544/65 303/540/65 342/545/65
f 363/546/43 296/547/43 362/542/43
f 364/548/44 290/549/44 289/550/44
f 341/502/66 289/501/66 304/551/66
f 339/546/67 298/552/67 363/546/67
f 359/553/45 290/549/45 360/554/45
f 344/495/68 298/552/68 343/555/68
f 361/532/46 291/556/46 359/553/46
f 336/557/54 315/558/54 335/559/54
f 322/560/39 308/561/39 325/562/39
f 338/563/47 316/564/47 336/503/47
f 321/565/40 309/566/40 322/560/40
f 337/567/48 317/568/48 338/563/48
f 331/569/41 310/570/41 321/571/41
f 337/567/49 319/562/49 318/572/49
f 326/573/42 311/574/42 331/569/42
f 332/575/65 319/562/65 333/576/65
f 327/577/43 312/578/43 326/573/43
f 329/564/44 306/579/44 305/580/44
f 330/509/66 305/565/66 320/560/66
f 328/577/67 314/581/67 327/577/67
f 323/572/45 306/579/45 324/568/45
f 335/559/68 314/581/68 334/582/68
f 325/562/46 307/583/46 323/572/46
f 376/584/69 377/585/69 375/586/69
f 378/587/70 379/588/70 377/585/70
f 380/589/71 381/585/71 379/588/71
f 382/587/72 383/586/72 381/585/72
f 384/584/73 385/590/73 383/586/73
f 386/591/74 387/592/74 385/590/74
f 388/589/75 389/585/75 387/588/75
f 390/587/76 391/586/76 389/585/76
f 392/584/77 393/590/77 391/586/77
f 394/591/78 395/592/78 393/590/78
f 396/593/79 397/590/79 395/592/79
f 398/591/80 399/586/80 397/590/80
f 400/584/81 401/585/81 399/586/81
f 402/587/82 403/588/82 401/585/82
f 396/594/62 388/595/62 380/596/62
f 404/593/83 405/590/83 403/592/83
f 406/591/84 375/586/84 405/590/84
f 389/597/61 397/598/61 405/599/61
f 414/600/85 431/601/85 415/602/85
f 407/602/86 424/603/86 408/600/86
f 422/604/87 423/601/87 407/602/87
f 415/602/88 432/605/88 416/604/88
f 408/600/89 425/606/89 409/607/89
f 416/604/90 433/608/90 417/609/90
f 409/610/91 426/611/91 410/612/91
f 417/613/92 434/614/92 418/615/92
f 410/612/93 427/616/93 411/617/93
f 418/615/94 435/616/94 419/617/94
f 411/617/95 428/614/95 412/615/95
f 419/617/96 436/611/96 420/612/96
f 412/615/97 429/618/97 413/613/97
f 420/612/98 437/619/98 421/610/98
f 413/607/99 430/603/99 414/600/99
f 421/609/100 438/605/100 422/604/100
f 446/620/85 463/621/85 447/622/85
f 439/622/86 456/623/86 440/620/86
f 454/624/87 455/621/87 439/622/87
f 447/622/88 464/625/88 448/624/88
f 440/620/89 457/626/89 441/627/89
f 448/624/90 465/628/90 449/629/90
f 441/630/91 458/631/91 442/632/91
f 449/633/92 466/634/92 450/635/92
f 442/632/93 459/636/93 443/637/93
f 450/635/94 467/636/94 451/637/94
f 443/637/95 460/634/95 444/635/95
f 451/637/96 468/631/96 452/632/96
f 444/635/97 461/638/97 445/633/97
f 452/632/98 469/639/98 453/630/98
f 445/627/99 462/623/99 446/620/99
f 453/629/100 470/625/100 454/624/100
f 144/221/39 153/640/39 154/222/39
f 146/224/40 145/223/40 154/222/40
f 146/224/41 155/225/41 156/226/41
f 147/227/42 156/226/42 157/228/42
f 148/230/43 157/641/43 158/231/43
f 142/233/44 141/642/44 150/234/44
f 142/233/45 151/235/45 152/236/45
f 143/237/46 152/236/46 153/238/46
f 174/240/46 165/643/46 164/241/46
f 175/243/45 166/247/45 165/244/45
f 175/243/44 176/644/44 167/246/44
f 169/248/43 160/252/43 159/249/43
f 170/251/42 161/645/42 160/252/42
f 171/253/41 162/257/41 161/254/41
f 171/253/40 172/258/40 163/256/40
f 173/242/39 164/241/39 163/256/39
f 192/259/46 183/646/46 182/260/46
f 193/262/45 184/266/45 183/263/45
f 193/262/44 194/647/44 185/265/44
f 187/267/43 178/271/43 177/268/43
f 188/270/42 179/648/42 178/271/42
f 189/272/41 180/276/41 179/273/41
f 190/275/40 181/277/40 180/276/40
f 191/261/39 182/260/39 181/277/39
f 208/230/47 207/294/47 198/278/47
f 200/280/48 209/649/48 208/281/48
f 210/283/49 209/649/49 200/280/49
f 211/285/101 210/283/101 201/284/101
f 212/287/102 211/285/102 202/286/102
f 196/289/103 205/293/103 204/290/103
f 197/292/104 206/650/104 205/293/104
f 207/294/54 206/650/54 197/292/54
f 218/295/54 219/651/54 228/296/54
f 228/296/104 219/651/104 220/298/104
f 229/300/103 220/652/103 221/301/103
f 213/303/102 214/306/102 223/304/102
f 214/306/101 215/308/101 224/307/101
f 215/308/49 216/653/49 225/309/49
f 216/254/48 217/312/48 226/310/48
f 217/312/47 218/295/47 227/297/47
f 236/313/54 237/654/54 246/314/54
f 246/314/104 237/654/104 238/316/104
f 247/317/103 238/655/103 239/318/103
f 231/320/102 232/323/102 241/321/102
f 232/323/101 233/325/101 242/324/101
f 233/325/49 234/656/49 243/326/49
f 234/327/48 235/330/48 244/328/48
f 235/330/47 236/313/47 245/315/47
f 142/331/55 196/335/55 195/332/55
f 142/331/55 143/337/55 197/334/55
f 144/336/55 198/339/55 197/334/55
f 145/338/55 199/341/55 198/339/55
f 146/340/55 200/343/55 199/341/55
f 147/342/55 201/345/55 200/343/55
f 148/344/55 202/347/55 201/345/55
f 148/344/55 149/657/55 203/346/55
f 151/348/105 150/369/105 204/349/105
f 152/351/57 151/658/57 205/352/57
f 152/351/57 206/353/57 207/354/57
f 153/355/57 207/354/57 208/356/57
f 155/358/57 154/357/57 208/356/57
f 156/360/57 155/358/57 209/359/57
f 156/360/57 210/361/57 211/362/57
f 157/363/106 211/362/106 212/346/106
f 158/365/39 212/659/39 203/366/39
f 141/368/40 195/660/40 204/349/40
f 176/370/40 230/661/40 221/371/40
f 159/373/39 213/377/39 222/374/39
f 160/376/106 214/662/106 213/377/106
f 161/378/57 215/382/57 214/379/57
f 162/381/57 216/384/57 215/382/57
f 162/381/57 163/386/57 217/383/57
f 164/385/57 218/388/57 217/383/57
f 164/385/57 165/389/57 219/387/57
f 165/389/57 166/663/57 220/390/57
f 166/391/105 167/372/105 221/371/105
f 169/393/55 168/664/55 222/394/55
f 169/393/55 223/395/55 224/396/55
f 170/397/55 224/396/55 225/398/55
f 171/399/55 225/398/55 226/400/55
f 172/401/55 226/400/55 227/402/55
f 173/403/55 227/402/55 228/404/55
f 175/406/55 174/405/55 228/404/55
f 175/406/55 229/407/55 230/408/55
f 194/410/40 248/665/40 239/411/40
f 177/413/39 231/417/39 240/414/39
f 178/416/106 232/666/106 231/417/106
f 179/418/57 233/422/57 232/419/57
f 179/418/57 180/423/57 234/421/57
f 180/423/57 181/426/57 235/424/57
f 182/425/57 236/428/57 235/424/57
f 183/427/57 237/430/57 236/428/57
f 183/427/57 184/667/57 238/429/57
f 184/431/105 185/412/105 239/411/105
f 187/433/55 186/668/55 240/434/55
f 187/433/55 241/435/55 242/436/55
f 188/437/55 242/436/55 243/438/55
f 189/439/55 243/438/55 244/440/55
f 190/441/55 244/440/55 245/442/55
f 191/443/55 245/442/55 246/444/55
f 192/445/55 246/444/55 247/446/55
f 193/447/55 247/446/55 248/448/55
f 288/450/55 280/669/55 264/451/55
f 264/453/59 272/670/59 275/454/59
f 330/671/57 286/672/57 284/456/57
f 268/457/57 276/673/57 328/674/57
f 268/457/107 328/674/107 327/674/107
f 329/671/62 330/671/62 284/456/62
f 324/675/57 329/671/57 284/456/57
f 268/457/57 327/674/57 326/676/57
f 268/457/57 326/676/57 331/677/57
f 323/678/57 324/675/57 284/456/57
f 325/679/57 323/678/57 284/456/57
f 268/457/57 331/677/57 321/680/57
f 322/458/57 325/679/57 284/456/57
f 268/457/57 321/680/57 322/458/57
f 268/459/60 260/681/60 273/460/60
f 278/462/61 281/487/61 266/463/61
f 284/465/62 279/485/62 260/466/62
f 276/468/63 273/460/63 258/469/63
f 334/682/57 328/674/57 276/673/57
f 281/472/57 286/672/57 330/671/57
f 281/472/57 330/671/57 332/683/57
f 334/682/57 276/673/57 266/471/57
f 335/684/57 334/682/57 266/471/57
f 281/472/57 332/683/57 333/685/57
f 281/472/57 333/685/57 337/686/57
f 336/687/57 335/684/57 266/471/57
f 281/472/57 337/686/57 338/473/57
f 338/473/57 336/687/57 266/471/57
f 274/455/64 275/454/64 270/474/64
f 288/450/55 274/452/55 262/457/55
f 258/477/55 273/492/55 287/478/55
f 287/478/55 288/450/55 277/476/55
f 343/688/57 339/689/57 285/690/57
f 270/481/57 275/691/57 341/692/57
f 270/481/57 341/692/57 340/693/57
f 343/688/57 285/690/57 282/480/57
f 344/694/57 343/688/57 282/480/57
f 270/481/57 340/693/57 342/695/57
f 270/481/57 342/695/57 346/696/57
f 345/697/57 344/694/57 282/480/57
f 270/481/57 346/696/57 347/482/57
f 347/482/57 345/697/57 282/480/57
f 352/698/57 348/699/57 286/672/57
f 282/480/57 285/690/57 350/700/57
f 282/480/57 350/700/57 349/701/57
f 352/698/57 286/672/57 281/472/57
f 353/702/57 352/698/57 281/472/57
f 282/480/57 349/701/57 351/703/57
f 282/480/57 351/703/57 355/704/57
f 354/705/57 353/702/57 281/472/57
f 282/480/57 355/704/57 356/483/57
f 356/483/57 354/705/57 281/472/57
f 272/464/62 264/453/62 280/484/62
f 283/462/62 280/484/62 279/485/62
f 262/467/61 270/681/61 282/486/61
f 277/465/61 282/486/61 281/487/61
f 341/692/57 275/691/57 272/477/57
f 283/488/57 285/690/57 339/689/57
f 283/488/107 339/689/107 363/689/107
f 364/692/62 341/692/62 272/477/62
f 360/706/57 364/692/57 272/477/57
f 283/488/57 363/689/57 362/707/57
f 283/488/57 362/707/57 365/708/57
f 359/709/57 360/706/57 272/477/57
f 361/710/57 359/709/57 272/477/57
f 283/488/57 365/708/57 357/711/57
f 358/489/57 361/710/57 272/477/57
f 283/488/57 357/711/57 358/489/57
f 350/700/57 285/690/57 283/488/57
f 284/456/57 286/672/57 348/699/57
f 284/456/107 348/699/107 372/699/107
f 373/700/62 350/700/62 283/488/62
f 369/712/57 373/700/57 283/488/57
f 284/456/57 372/699/57 371/713/57
f 284/456/57 371/713/57 374/714/57
f 368/715/57 369/712/57 283/488/57
f 370/716/57 368/715/57 283/488/57
f 284/456/57 374/714/57 366/717/57
f 367/490/57 370/716/57 283/488/57
f 284/456/57 366/717/57 367/490/57
f 260/491/55 279/493/55 287/478/55
f 279/493/55 280/669/55 288/450/55
f 354/494/54 263/521/54 261/495/54
f 367/497/39 253/504/39 252/498/39
f 356/500/47 265/506/47 263/501/47
f 366/503/40 254/564/40 253/504/40
f 355/505/48 267/511/48 265/506/48
f 374/507/41 255/513/41 254/508/41
f 355/505/49 351/515/49 269/510/49
f 371/512/42 256/517/42 255/513/42
f 349/514/65 271/523/65 269/510/65
f 372/516/43 257/546/43 256/517/43
f 373/518/44 369/526/44 250/519/44
f 271/523/66 349/514/66 350/521/66
f 350/521/107 373/571/107 249/522/107
f 348/516/108 352/527/108 259/524/108
f 259/524/108 257/546/108 372/516/108
f 368/525/45 251/528/45 250/519/45
f 353/496/68 261/495/68 259/524/68
f 370/499/46 252/498/46 251/528/46
f 345/521/54 300/718/54 299/529/54
f 358/530/39 293/537/39 292/531/39
f 347/533/47 301/539/47 300/534/47
f 357/536/40 294/719/40 293/537/40
f 346/538/48 302/541/48 301/539/48
f 365/513/41 295/543/41 294/475/41
f 346/538/49 342/545/49 303/540/49
f 362/542/42 296/547/42 295/543/42
f 340/544/65 304/551/65 303/540/65
f 363/546/43 297/720/43 296/547/43
f 364/548/44 360/554/44 290/549/44
f 304/551/66 340/544/66 341/502/66
f 341/502/107 364/502/107 289/501/107
f 339/546/108 343/555/108 298/552/108
f 298/552/108 297/720/108 363/546/108
f 359/553/45 291/556/45 290/549/45
f 344/495/68 299/529/68 298/552/68
f 361/532/46 292/531/46 291/556/46
f 336/557/54 316/721/54 315/558/54
f 322/560/39 309/566/39 308/561/39
f 338/563/47 317/568/47 316/564/47
f 321/565/40 310/722/40 309/566/40
f 337/567/48 318/572/48 317/568/48
f 331/569/41 311/574/41 310/570/41
f 337/567/49 333/576/49 319/562/49
f 326/573/42 312/578/42 311/574/42
f 332/575/65 320/560/65 319/562/65
f 327/577/43 313/723/43 312/578/43
f 329/564/44 324/568/44 306/579/44
f 320/560/66 332/575/66 330/509/66
f 330/509/107 329/509/107 305/565/107
f 328/577/108 334/582/108 314/581/108
f 314/581/108 313/723/108 327/577/108
f 323/572/45 307/583/45 306/579/45
f 335/559/68 315/558/68 314/581/68
f 325/562/46 308/561/46 307/583/46
f 376/584/69 378/587/69 377/585/69
f 378/587/70 380/589/70 379/588/70
f 380/589/71 382/587/71 381/585/71
f 382/587/72 384/584/72 383/586/72
f 384/584/73 386/591/73 385/590/73
f 386/591/74 388/593/74 387/592/74
f 388/589/75 390/587/75 389/585/75
f 390/587/76 392/584/76 391/586/76
f 392/584/77 394/591/77 393/590/77
f 394/591/78 396/593/78 395/592/78
f 396/593/79 398/591/79 397/590/79
f 398/591/80 400/584/80 399/586/80
f 400/584/81 402/587/81 401/585/81
f 402/587/82 404/589/82 403/588/82
f 380/596/62 378/724/62 376/725/62
f 376/725/62 406/599/62 404/726/62
f 404/726/62 402/727/62 400/728/62
f 400/728/62 398/598/62 396/594/62
f 396/594/62 394/729/62 392/730/62
f 392/730/62 390/597/62 388/595/62
f 388/595/62 386/731/62 384/732/62
f 384/732/62 382/733/62 380/596/62
f 380/596/62 376/725/62 404/726/62
f 404/726/62 400/728/62 396/594/62
f 396/594/62 392/730/62 388/595/62
f 388/595/62 384/732/62 380/596/62
f 380/596/62 404/726/62 396/594/62
f 404/593/83 406/591/83 405/590/83
f 406/591/84 376/584/84 375/586/84
f 405/599/61 375/725/61 377/724/61
f 377/724/61 379/596/61 381/733/61
f 381/733/61 383/732/61 385/731/61
f 385/731/61 387/595/61 389/597/61
f 389/597/61 391/730/61 393/729/61
f 393/729/61 395/594/61 397/598/61
f 397/598/61 399/728/61 401/727/61
f 401/727/61 403/726/61 405/599/61
f 405/599/61 377/724/61 381/733/61
f 381/733/61 385/731/61 389/597/61
f 389/597/61 393/729/61 397/598/61
f 397/598/61 401/727/61 405/599/61
f 405/599/61 381/733/61 389/597/61
f 414/600/85 430/603/85 431/601/85
f 407/602/86 423/601/86 424/603/86
f 422/604/87 438/605/87 423/601/87
f 415/602/88 431/601/88 432/605/88
f 408/600/89 424/603/89 425/606/89
f 416/604/90 432/605/90 433/608/90
f 409/610/91 425/619/91 426/611/91
f 417/613/92 433/618/92 434/614/92
f 410/612/93 426/611/93 427/616/93
f 418/615/94 434/614/94 435/616/94
f 411/617/95 427/616/95 428/614/95
f 419/617/96 435/616/96 436/611/96
f 412/615/97 428/614/97 429/618/97
f 420/612/98 436/611/98 437/619/98
f 413/607/99 429/606/99 430/603/99
f 421/609/100 437/608/100 438/605/100
f 446/620/85 462/623/85 463/621/85
f 439/622/86 455/621/86 456/623/86
f 454/624/87 470/625/87 455/621/87
f 447/622/88 463/621/88 464/625/88
f 440/620/89 456/623/89 457/626/89
f 448/624/90 464/625/90 465/628/90
f 441/630/91 457/639/91 458/631/91
f 449/633/92 465/638/92 466/634/92
f 442/632/93 458/631/93 459/636/93
f 450/635/94 466/634/94 467/636/94
f 443/637/95 459/636/95 460/634/95
f 451/637/96 467/636/96 468/631/96
f 444/635/97 460/634/97 461/638/97
f 452/632/98 468/631/98 469/639/98
f 445/627/99 461/626/99 462/623/99
f 453/629/100 469/628/100 470/625/100
