# Blender 4.5.0
# www.blender.org
mtllib guide_pole.lod2.mtl
o pole
v -0.040362 0.008000 -0.240000
v -0.240000 0.036000 0.049066
v -0.125882 0.036000 -0.187683
v -0.250817 0.022000 -0.021109
v -0.229956 0.008000 0.122187
v -0.013944 0.022000 0.245432
v 0.011934 0.036000 0.240000
v 0.106864 0.008000 0.214430
v 0.274686 0.022000 0.026687
v 0.241115 0.036000 0.090453
v 0.272883 0.008000 -0.020945
v 0.178280 0.036000 -0.184391
v 0.037813 0.022000 -0.239854
v 0.174745 0.043500 0.056248
v 0.171640 0.036000 0.067838
v 0.171640 0.051000 0.067838
v 0.174745 0.043500 0.079427
v 0.196482 0.043500 0.067838
v 0.196482 0.036000 0.067838
v 0.196482 0.051000 0.067838
v 0.175486 0.056000 0.064369
v 0.175136 0.051000 0.071493
v 0.175136 0.061000 0.071493
v 0.181021 0.055444 0.075265
v 0.188472 0.056556 0.063348
v 0.189159 0.051000 0.064016
v 0.189159 0.061000 0.064016
v 0.094450 0.043500 0.153392
v 0.068666 0.045000 0.156350
v 0.094451 0.036000 0.153392
v 0.070298 0.036000 0.166269
v 0.070298 0.051000 0.153392
v 0.086575 0.041000 0.172148
v 0.094451 0.051000 0.166269
v 0.078618 0.056000 0.153823
v 0.086332 0.051000 0.153500
v 0.086332 0.061000 0.153500
v 0.077513 0.055444 0.165815
v 0.078235 0.051000 0.166450
v 0.078235 0.061000 0.166450
v 0.090418 0.056556 0.158935
v -0.044797 0.042000 0.156350
v -0.070582 0.043500 0.153392
v -0.046429 0.036000 0.166269
v -0.070582 0.036000 0.153392
v -0.046429 0.051000 0.153392
v -0.070582 0.051000 0.166269
v -0.062706 0.046000 0.172148
v -0.058505 0.056000 0.152635
v -0.065380 0.055444 0.163371
v -0.062463 0.051000 0.153500
v -0.062463 0.061000 0.153500
v -0.051630 0.056556 0.163371
v -0.054366 0.051000 0.166450
v -0.054366 0.061000 0.166450
v -0.150876 0.043500 0.056248
v -0.172614 0.043500 0.067838
v -0.147771 0.036000 0.067838
v -0.172614 0.036000 0.067838
v -0.147771 0.051000 0.067838
v -0.172614 0.051000 0.067838
v -0.150876 0.043500 0.079427
v -0.165901 0.055444 0.066089
v -0.151267 0.051000 0.071493
v -0.165290 0.051000 0.064016
v -0.151267 0.061000 0.071493
v -0.165290 0.061000 0.064016
v -0.154141 0.056000 0.074206
v -0.154078 0.056714 0.061418
v -0.150876 0.043500 -0.073849
v -0.172614 0.043500 -0.062260
v -0.147771 0.036000 -0.062260
v -0.172614 0.036000 -0.062260
v -0.147771 0.051000 -0.062260
v -0.172614 0.051000 -0.062260
v -0.150876 0.043500 -0.050670
v -0.156073 0.056000 -0.069320
v -0.151267 0.051000 -0.065915
v -0.158122 0.061000 -0.054950
v -0.158122 0.061000 -0.069904
v -0.165290 0.056000 -0.058438
v -0.165290 0.051000 -0.058438
v -0.151617 0.056000 -0.058791
v -0.062706 0.041000 -0.166570
v -0.070582 0.043500 -0.147814
v -0.046429 0.036000 -0.147814
v -0.070582 0.036000 -0.160691
v -0.070582 0.051000 -0.147814
v -0.046429 0.051000 -0.160691
v -0.044797 0.045000 -0.150772
v -0.053644 0.055444 -0.160238
v -0.066549 0.056556 -0.153357
v -0.062463 0.051000 -0.147922
v -0.054366 0.051000 -0.160872
v -0.062463 0.061000 -0.147922
v -0.054366 0.061000 -0.160872
v -0.054749 0.056000 -0.148245
v 0.086575 0.046000 -0.166570
v 0.068666 0.042000 -0.150772
v 0.094451 0.036000 -0.147814
v 0.070298 0.036000 -0.160691
v 0.094451 0.051000 -0.160691
v 0.070298 0.051000 -0.147814
v 0.094450 0.043500 -0.147814
v 0.075499 0.056556 -0.157793
v 0.086332 0.051000 -0.147922
v 0.078235 0.051000 -0.160872
v 0.086332 0.061000 -0.147922
v 0.078235 0.061000 -0.160872
v 0.082374 0.056000 -0.147058
v 0.089249 0.055444 -0.157793
v 0.174745 0.043500 -0.073849
v 0.171640 0.036000 -0.062260
v 0.171640 0.051000 -0.062260
v 0.174745 0.043500 -0.050670
v 0.196482 0.043500 -0.062260
v 0.196482 0.036000 -0.062260
v 0.196482 0.051000 -0.062260
v 0.175136 0.051000 -0.065915
v 0.181991 0.061000 -0.054950
v 0.175486 0.056000 -0.058791
v 0.188472 0.055444 -0.057771
v 0.189159 0.051000 -0.058438
v 0.181021 0.056556 -0.069688
v 0.181991 0.061000 -0.069904
v -0.005307 3.599860 -0.118142
v -0.001987 0.036000 -0.127741
v -0.138021 0.035964 0.025702
v -0.129413 0.036000 0.015645
v -0.064971 3.599995 0.078407
v 0.011934 0.036000 0.131278
v 0.074856 0.035990 0.120327
v 0.097449 3.599987 0.076856
v 0.157134 0.036000 0.002789
v 0.104258 0.035928 -0.116227
v 0.011934 3.600000 -0.105512
v -0.076632 6.500000 0.046505
v 0.011934 6.500000 -0.083852
v -0.091305 6.499934 0.015331
v -0.100446 3.600000 0.002789
v -0.002922 3.599991 0.107798
v 0.011934 3.600000 0.111090
v 0.088046 6.499984 0.056777
v 0.102688 6.500000 0.037503
v 0.125646 3.599991 0.016509
v 0.124315 3.600000 0.002789
v 0.052592 6.499993 -0.073159
v -0.068469 3.599855 -0.093976
v -0.154301 3.594000 -0.079265
v -0.136306 3.580000 0.075961
v -0.098962 3.580000 -0.121998
v -0.038810 3.608000 -0.151689
v -0.149326 3.608000 0.082387
v 0.064083 3.597111 0.163833
v 0.062678 3.580000 0.157267
v 0.122831 3.608000 0.127575
v 0.173195 3.580000 -0.076810
v 0.164804 3.590000 -0.077377
v 0.160175 3.608000 -0.070384
v 0.132551 3.615500 0.034565
v 0.110814 3.615500 0.046154
v 0.135657 3.608000 0.046154
v 0.110814 3.608000 0.046154
v 0.135657 3.623000 0.046154
v 0.110814 3.623000 0.046154
v 0.132551 3.615500 0.057744
v 0.121580 3.628556 0.040098
v 0.132161 3.623000 0.049810
v 0.118137 3.623000 0.042333
v 0.132161 3.633000 0.049810
v 0.118137 3.633000 0.042333
v 0.121580 3.627444 0.052211
v 0.133467 3.628000 0.046154
v 0.046165 3.614000 0.102437
v 0.046818 3.608000 0.101044
v 0.070971 3.623000 0.101044
v 0.046818 3.623000 0.113922
v 0.058894 3.615500 0.120360
v 0.070971 3.608000 0.113922
v 0.071623 3.617000 0.102437
v 0.051219 3.628000 0.105584
v 0.050617 3.623000 0.107483
v 0.050978 3.633000 0.107483
v 0.058894 3.628000 0.115020
v 0.066810 3.623000 0.107483
v 0.065425 3.628000 0.104001
v 0.067172 3.633000 0.107483
v -0.047754 3.614000 0.102437
v -0.022949 3.608000 0.101044
v -0.047102 3.608000 0.113922
v -0.022949 3.623000 0.101044
v -0.047102 3.623000 0.113922
v -0.035025 3.615500 0.120360
v -0.022296 3.617000 0.102437
v -0.041556 3.628000 0.104001
v -0.031067 3.623000 0.113814
v -0.039164 3.623000 0.100863
v -0.042941 3.633000 0.107483
v -0.035025 3.628000 0.115020
v -0.027350 3.628000 0.105584
v -0.026748 3.633000 0.107483
v -0.108682 3.615500 0.034565
v -0.111788 3.608000 0.046154
v -0.111788 3.623000 0.046154
v -0.108682 3.615500 0.057744
v -0.086945 3.615500 0.046154
v -0.086945 3.608000 0.046154
v -0.086945 3.623000 0.046154
v -0.109598 3.628000 0.046154
v -0.108292 3.623000 0.049810
v -0.101437 3.633000 0.053465
v -0.097711 3.628556 0.052211
v -0.097711 3.627444 0.040098
v -0.094268 3.623000 0.042333
v -0.101437 3.633000 0.038511
v -0.108682 3.615500 -0.052167
v -0.111788 3.608000 -0.040577
v -0.111788 3.623000 -0.040577
v -0.108682 3.615500 -0.028988
v -0.086945 3.615500 -0.040577
v -0.086945 3.608000 -0.040577
v -0.086945 3.623000 -0.040577
v -0.108292 3.623000 -0.044232
v -0.101437 3.633000 -0.047887
v -0.107942 3.628000 -0.037109
v -0.101437 3.633000 -0.032933
v -0.094715 3.628556 -0.036391
v -0.094268 3.623000 -0.036755
v -0.102002 3.627444 -0.048046
v -0.048386 3.619250 -0.106563
v -0.047102 3.608000 -0.108344
v -0.022949 3.623000 -0.108344
v -0.047102 3.623000 -0.095467
v -0.035025 3.615500 -0.089028
v -0.022949 3.608000 -0.095467
v -0.021664 3.611750 -0.106563
v -0.031270 3.628000 -0.107913
v -0.043113 3.628556 -0.102428
v -0.031067 3.623000 -0.108236
v -0.038983 3.633000 -0.108236
v -0.039164 3.623000 -0.095286
v -0.030492 3.627444 -0.095699
v -0.030887 3.633000 -0.095286
v 0.045533 3.619250 -0.106563
v 0.046818 3.608000 -0.108344
v 0.070971 3.623000 -0.108344
v 0.046818 3.623000 -0.095467
v 0.058894 3.615500 -0.089028
v 0.070971 3.608000 -0.095467
v 0.072255 3.611750 -0.106563
v 0.058894 3.628000 -0.109101
v 0.051220 3.628556 -0.099601
v 0.050978 3.623000 -0.101906
v 0.054936 3.633000 -0.108236
v 0.063033 3.633000 -0.095286
v 0.066568 3.627444 -0.099601
v 0.067172 3.623000 -0.101906
v 0.132551 3.615500 -0.052167
v 0.110814 3.615500 -0.040577
v 0.135657 3.608000 -0.040577
v 0.110814 3.608000 -0.040577
v 0.135657 3.623000 -0.040577
v 0.110814 3.623000 -0.040577
v 0.132551 3.615500 -0.028988
v 0.121580 3.628556 -0.046633
v 0.132161 3.623000 -0.044232
v 0.132161 3.633000 -0.044232
v 0.121580 3.627444 -0.034521
v 0.118137 3.623000 -0.036755
v 0.118137 3.633000 -0.036755
v 0.133467 3.628000 -0.040577
v -0.044035 6.505684 -0.071237
v -0.036532 6.500000 -0.080947
v 0.050421 6.512000 -0.083014
v -0.086454 6.512000 0.030350
v -0.050117 6.507200 0.070901
v -0.017911 6.500000 0.093647
v 0.112253 6.505600 0.025580
v 0.079856 6.512000 0.065512
v 0.105441 6.500000 -0.005716
v -0.056771 5.310000 -0.107327
v -0.044452 5.190000 0.128500
v -0.087578 5.190000 -0.089108
v 0.055662 5.310000 -0.130329
v -0.128204 5.190000 0.066608
v -0.124195 5.310000 0.054860
v -0.029099 5.310000 0.144261
v 0.111447 5.310000 0.094685
v 0.140126 5.190000 0.056341
v 0.156085 5.190000 -0.037592
v 0.131176 5.310000 -0.060658
v 0.043802 5.190000 -0.123765
v 0.011922 5.199428 0.052424
v 3.000043 5.218685 0.043040
v 0.011934 5.323966 0.002789
v 0.011934 5.222965 0.062823
v 3.000047 5.302065 0.022625
v 3.000047 5.211940 0.037797
v 0.011934 5.202028 -0.050977
v 3.000002 5.246037 -0.052869
v 3.000047 5.233275 -0.047923
v 0.011926 5.226801 -0.060167
v 0.011922 5.322965 0.013890
v 3.000046 5.291949 0.030361
v 3.000047 5.200112 0.033450
v 3.012000 5.200112 0.033450
v 3.007596 5.192021 -0.006078
v 3.005672 5.255456 -0.050760
v 3.000047 5.250000 -0.047752
v 3.012000 5.250000 -0.047752
v 3.005170 5.295982 0.037214
v 3.000047 5.303800 0.017800
v 3.012000 5.303800 0.017800
v 1.261962 5.168140 0.002789
v 1.261962 5.250000 0.074940
v 1.311764 5.168140 0.002789
v 1.311764 5.250000 0.074940
v 1.279890 5.188287 -0.056911
v 1.261962 5.250000 -0.069363
v 1.311764 5.250000 -0.069363
v 1.291390 5.332722 0.026860
v 1.261962 5.331860 0.002789
v 1.311764 5.331860 0.002789
v 1.291257 5.193441 0.064849
v 1.286863 5.300000 0.030383
v 1.286863 5.200000 0.140760
v 1.286863 5.300000 0.140760
v 1.237061 5.250000 0.030383
v 1.237061 5.250000 0.140760
v 1.336665 5.250000 0.030383
v 1.336665 5.250000 0.140760
v 1.286863 5.200000 0.030383
v 1.278894 5.215000 0.143979
v 1.286863 5.206686 0.143979
v 1.291985 5.217969 0.138000
v 1.279691 5.210843 0.138000
v 1.291985 5.217969 0.149958
v 1.279691 5.210843 0.149958
v 1.290847 5.221929 0.143979
v 1.279691 5.289157 0.143979
v 1.286863 5.276686 0.143979
v 1.291985 5.282031 0.138000
v 1.279691 5.289157 0.138000
v 1.291985 5.282031 0.149958
v 1.279691 5.289157 0.149958
v 1.294034 5.289157 0.143979
v 2.726137 5.331860 0.002789
v 2.726137 5.250000 0.074940
v 2.775939 5.168140 0.002789
v 2.744066 5.188287 -0.056911
v 2.726137 5.168140 0.002789
v 2.726137 5.250000 -0.069363
v 2.775939 5.250000 -0.069363
v 2.755566 5.332722 0.026860
v 2.775939 5.331860 0.002789
v 2.755432 5.193441 0.064849
v 2.775939 5.250000 0.074940
v 2.751038 5.300000 0.030383
v 2.701236 5.250000 0.030383
v 2.701236 5.250000 0.140760
v 2.800840 5.250000 0.030383
v 2.800840 5.250000 0.140760
v 2.751038 5.200000 0.030383
v 2.751038 5.200000 0.140760
v 2.751038 5.300000 0.140760
v 2.743070 5.215000 0.143979
v 2.751038 5.206686 0.143979
v 2.756161 5.217969 0.138000
v 2.743867 5.210843 0.138000
v 2.756161 5.217969 0.149958
v 2.743867 5.210843 0.149958
v 2.755023 5.221929 0.143979
v 2.743867 5.289157 0.143979
v 2.751038 5.276686 0.143979
v 2.756161 5.282031 0.138000
v 2.743867 5.289157 0.138000
v 2.756161 5.282031 0.149958
v 2.743867 5.289157 0.149958
v 2.758210 5.289157 0.143979
v -0.056771 6.310000 -0.107327
v 0.068321 6.190000 0.128500
v -0.132216 6.190000 -0.037593
v -0.075397 6.310000 -0.095481
v -0.097743 6.190000 -0.069595
v -0.029099 6.310000 0.144261
v -0.094479 6.310000 0.083436
v 0.022292 6.190000 0.148935
v 0.099266 6.310000 0.101058
v 0.131176 6.310000 -0.060658
v 0.111447 6.190000 -0.089108
v 0.118348 6.310000 -0.077859
v 0.093820 6.190000 -0.102870
v 3.000041 6.200627 0.025210
v 0.011934 6.273098 -0.067250
v 3.000047 6.199189 -0.022193
v 0.011917 6.174549 -0.001774
v 3.000045 6.236330 -0.043963
v 0.011929 6.287334 -0.052356
v 3.000047 6.290700 -0.027934
v 3.000022 6.306581 0.020452
v 0.011922 6.293059 0.058095
v 3.000047 6.266725 0.053500
v 0.011934 6.226902 0.072827
v 3.004530 6.215052 0.041560
v 3.000047 6.196200 -0.012223
v 3.012000 6.206221 0.029695
v 3.007518 6.215052 -0.035983
v 3.012000 6.232927 -0.048980
v 3.004530 6.284948 -0.035983
v 3.000047 6.299888 -0.027873
v 3.012000 6.299888 0.033450
v 3.007518 6.284948 0.041560
v 3.000047 6.250000 0.053329
v 1.285398 6.249577 0.078726
v 1.261962 6.321272 -0.051013
v 1.261962 6.250000 0.074940
v 1.311764 6.168140 0.002788
v 1.261962 6.166331 -0.026182
v 1.261962 6.168140 0.002788
v 1.311764 6.188882 -0.057226
v 1.311764 6.250000 -0.069363
v 1.288048 6.333519 -0.013541
v 1.311764 6.331860 0.002788
v 1.311764 6.250000 0.074940
v 1.286863 6.200000 0.030383
v 1.286863 6.300000 0.030383
v 1.286863 6.200000 0.140760
v 1.237061 6.250000 0.030383
v 1.237061 6.250000 0.140760
v 1.336665 6.250000 0.030383
v 1.336665 6.250000 0.140760
v 1.286863 6.300001 0.140760
v 1.278894 6.215001 0.143979
v 1.286863 6.206686 0.143979
v 1.291985 6.217969 0.138000
v 1.279691 6.210843 0.138000
v 1.291985 6.217969 0.149958
v 1.279691 6.210843 0.149958
v 1.290847 6.221929 0.143979
v 1.278894 6.285000 0.143979
v 1.290847 6.278072 0.143979
v 1.291985 6.282031 0.138000
v 1.279691 6.289157 0.138000
v 1.291985 6.282031 0.149958
v 1.279691 6.289157 0.149958
v 1.286863 6.293314 0.143979
v 2.749573 6.249577 0.078726
v 2.726137 6.168140 0.002788
v 2.726137 6.250000 0.074940
v 2.775939 6.321272 -0.051013
v 2.775939 6.250000 0.074940
v 2.726137 6.166331 -0.026182
v 2.775939 6.168140 0.002788
v 2.775939 6.188882 -0.057226
v 2.726137 6.250000 -0.069363
v 2.752224 6.333519 -0.013541
v 2.726137 6.331860 0.002788
v 2.701236 6.250000 0.030383
v 2.701236 6.250000 0.140760
v 2.800840 6.250000 0.030383
v 2.800840 6.250000 0.140760
v 2.751038 6.200000 0.030383
v 2.751038 6.200000 0.140760
v 2.751038 6.300001 0.030383
v 2.751038 6.300001 0.140760
v 2.743070 6.215000 0.143979
v 2.751038 6.206686 0.143979
v 2.743867 6.210843 0.138000
v 2.745916 6.217969 0.149958
v 2.756161 6.217969 0.138000
v 2.758210 6.210843 0.149958
v 2.755022 6.221929 0.143979
v 2.747054 6.278072 0.143979
v 2.745916 6.282031 0.138000
v 2.745916 6.282031 0.149958
v 2.759006 6.285000 0.143979
v 2.758210 6.289157 0.138000
v 2.758210 6.289157 0.149958
v 2.751038 6.293314 0.143979
v 1.286863 5.200000 0.078673
v 1.286863 6.300000 0.078673
v 1.286863 5.200000 0.110866
v 1.286863 6.300000 0.110866
v 1.266942 6.300000 0.094769
v 1.306783 5.200000 0.094769
v 1.266942 5.200000 0.094769
v 1.306783 6.300001 0.094769
v 2.751038 5.200000 0.078673
v 2.751038 6.300000 0.078673
v 2.751038 5.200000 0.110866
v 2.751038 6.300000 0.110866
v 2.770959 6.300000 0.094769
v 2.731117 5.200000 0.094769
v 2.770959 5.200000 0.094769
v 2.731117 6.300001 0.094769
v 0.743320 6.235925 0.034780
v 0.082962 5.608556 -0.034189
v 0.099807 5.591910 0.037764
v 0.714291 6.264620 -0.033072
v 0.751787 6.227555 -0.014127
v 0.101198 5.590529 -0.033805
v 0.700926 6.277833 -0.015202
v 0.064438 5.626868 0.005128
v 0.743873 6.235380 0.038649
v 0.104809 5.586959 0.037444
v 0.081806 0.832581 -0.114984
v 0.086266 0.841044 -0.106708
v 0.080480 0.839337 -0.114981
v 0.084856 0.848230 -0.106705
v 0.077867 0.845704 -0.114981
v 0.082076 0.855004 -0.106705
v 0.074064 0.851435 -0.114979
v 0.078029 0.861101 -0.106703
v 0.069218 0.856311 -0.114979
v 0.072875 0.866288 -0.106703
v 0.063516 0.860142 -0.114979
v 0.066809 0.870364 -0.106703
v 0.057178 0.862779 -0.114978
v 0.060066 0.873169 -0.106702
v 0.050449 0.864121 -0.114978
v 0.052907 0.874597 -0.106702
v 0.048165 0.869750 -0.110807
v -0.024296 0.869750 -0.110807
v -0.026580 0.864123 -0.114979
v -0.029039 0.874598 -0.106703
v -0.033309 0.862779 -0.114979
v -0.036197 0.873169 -0.106702
v -0.039647 0.860141 -0.114978
v -0.042939 0.870363 -0.106702
v -0.045349 0.856311 -0.114979
v -0.049006 0.866288 -0.106703
v -0.050195 0.851436 -0.114980
v -0.054161 0.861102 -0.106704
v -0.053998 0.845703 -0.114980
v -0.058206 0.855004 -0.106704
v -0.056612 0.839337 -0.114982
v -0.060987 0.848231 -0.106706
v -0.057936 0.832581 -0.114983
v -0.062395 0.841044 -0.106707
v -0.060527 0.833375 -0.110807
v -0.060527 0.566625 -0.110807
v -0.057937 0.567419 -0.114984
v -0.062397 0.558956 -0.106708
v -0.056612 0.560663 -0.114982
v -0.060987 0.551769 -0.106706
v -0.053998 0.554297 -0.114980
v -0.058206 0.544997 -0.106704
v -0.050195 0.548565 -0.114979
v -0.054160 0.538899 -0.106703
v -0.045349 0.543689 -0.114979
v -0.049006 0.533712 -0.106703
v -0.039647 0.539858 -0.114979
v -0.042940 0.529637 -0.106703
v -0.033309 0.537221 -0.114979
v -0.036197 0.526830 -0.106702
v -0.026580 0.535879 -0.114978
v -0.029039 0.525403 -0.106702
v -0.024296 0.530250 -0.110807
v 0.048165 0.530250 -0.110807
v 0.050449 0.535877 -0.114979
v 0.052908 0.525402 -0.106703
v 0.057178 0.537221 -0.114978
v 0.060066 0.526831 -0.106702
v 0.063516 0.539859 -0.114978
v 0.066809 0.529637 -0.106702
v 0.069218 0.543689 -0.114979
v 0.072874 0.533712 -0.106702
v 0.074064 0.548564 -0.114980
v 0.078030 0.538898 -0.106704
v 0.077867 0.554296 -0.114981
v 0.082076 0.544996 -0.106705
v 0.080481 0.560663 -0.114982
v 0.084856 0.551769 -0.106706
v 0.081805 0.567419 -0.114983
v 0.086264 0.558956 -0.106707
v 0.084396 0.566625 -0.110807
v 0.084396 0.833375 -0.110807
v 0.086278 0.841158 -0.106668
v 0.086278 0.841158 -0.013768
v 0.084857 0.848333 -0.106668
v 0.084857 0.848333 -0.013768
v 0.082068 0.855092 -0.106668
v 0.082068 0.855092 -0.013768
v 0.078020 0.861175 -0.106668
v 0.078020 0.861175 -0.013768
v 0.072867 0.866348 -0.106668
v 0.072867 0.866348 -0.013768
v 0.066808 0.870413 -0.106668
v 0.066808 0.870413 -0.013768
v 0.060076 0.873212 -0.106668
v 0.060076 0.873212 -0.013768
v 0.052929 0.874640 -0.106668
v 0.052929 0.874640 -0.013768
v 0.011934 0.875000 -0.106668
v 0.011934 0.875000 -0.013768
v -0.029060 0.874640 -0.106668
v -0.029060 0.874640 -0.013768
v -0.036207 0.873212 -0.106668
v -0.036207 0.873212 -0.013768
v -0.042940 0.870413 -0.106668
v -0.042940 0.870413 -0.013768
v -0.048998 0.866348 -0.106668
v -0.048998 0.866348 -0.013768
v -0.054151 0.861175 -0.106668
v -0.054151 0.861175 -0.013768
v -0.058199 0.855092 -0.106668
v -0.058199 0.855092 -0.013768
v -0.060988 0.848333 -0.106668
v -0.060988 0.848333 -0.013768
v -0.062410 0.841158 -0.106668
v -0.062410 0.841158 -0.013768
v -0.062768 0.837500 -0.060218
v -0.062768 0.562500 -0.060218
v -0.062410 0.558842 -0.106668
v -0.062410 0.558842 -0.013768
v -0.060988 0.551667 -0.106668
v -0.060988 0.551667 -0.013768
v -0.058199 0.544908 -0.106668
v -0.058199 0.544908 -0.013768
v -0.054151 0.538825 -0.106668
v -0.054151 0.538825 -0.013768
v -0.048998 0.533652 -0.106668
v -0.048998 0.533652 -0.013768
v -0.042939 0.529587 -0.106668
v -0.042939 0.529587 -0.013768
v -0.036207 0.526788 -0.106668
v -0.036207 0.526788 -0.013768
v -0.029060 0.525360 -0.106668
v -0.029060 0.525360 -0.013768
v 0.011934 0.525000 -0.106668
v 0.011934 0.525000 -0.013768
v 0.052929 0.525360 -0.106668
v 0.052929 0.525360 -0.013768
v 0.060076 0.526788 -0.106668
v 0.060076 0.526788 -0.013768
v 0.066808 0.529587 -0.106668
v 0.066808 0.529587 -0.013768
v 0.072867 0.533652 -0.106668
v 0.072867 0.533652 -0.013768
v 0.078020 0.538825 -0.106668
v 0.078020 0.538825 -0.013768
v 0.082068 0.544908 -0.106668
v 0.082068 0.544908 -0.013768
v 0.084857 0.551667 -0.106668
v 0.084857 0.551667 -0.013768
v 0.086278 0.558842 -0.106668
v 0.086278 0.558842 -0.013768
v 0.086637 0.562500 -0.060218
v 0.086637 0.837500 -0.060218
v 0.086273 0.841124 -0.013739
v 0.084043 0.836890 -0.003622
v 0.084858 0.848302 -0.013739
v 0.082670 0.843853 -0.003622
v 0.082070 0.855064 -0.013740
v 0.079966 0.850412 -0.003623
v 0.078023 0.861152 -0.013740
v 0.076040 0.856317 -0.003623
v 0.072870 0.866329 -0.013740
v 0.071042 0.861339 -0.003623
v 0.066808 0.870396 -0.013740
v 0.065162 0.865285 -0.003623
v 0.060073 0.873197 -0.013741
v 0.058628 0.868001 -0.003624
v 0.052922 0.874627 -0.013740
v 0.051693 0.869388 -0.003623
v 0.048726 0.872375 -0.008709
v -0.024857 0.872375 -0.008709
v -0.029053 0.874625 -0.013741
v -0.027824 0.869386 -0.003624
v -0.036204 0.873200 -0.013740
v -0.034760 0.868004 -0.003623
v -0.042940 0.870397 -0.013740
v -0.041293 0.865285 -0.003623
v -0.049001 0.866328 -0.013740
v -0.047172 0.861339 -0.003623
v -0.054154 0.861152 -0.013740
v -0.052171 0.856317 -0.003623
v -0.058202 0.855065 -0.013740
v -0.056098 0.850413 -0.003623
v -0.060986 0.848301 -0.013740
v -0.058798 0.843852 -0.003623
v -0.062407 0.841124 -0.013739
v -0.060177 0.836890 -0.003622
v -0.061648 0.835437 -0.008709
v -0.061648 0.564562 -0.008709
v -0.062404 0.558876 -0.013739
v -0.060174 0.563110 -0.003622
v -0.060989 0.551698 -0.013739
v -0.058801 0.556147 -0.003622
v -0.058201 0.544936 -0.013740
v -0.056097 0.549588 -0.003623
v -0.054154 0.538848 -0.013740
v -0.052171 0.543683 -0.003623
v -0.049000 0.533672 -0.013740
v -0.047172 0.538661 -0.003623
v -0.042940 0.529603 -0.013740
v -0.041294 0.534715 -0.003623
v -0.036204 0.526803 -0.013741
v -0.034759 0.531999 -0.003624
v -0.029053 0.525372 -0.013739
v -0.027824 0.530611 -0.003622
v -0.024857 0.527625 -0.008709
v 0.048726 0.527625 -0.008709
v 0.052922 0.525376 -0.013741
v 0.051692 0.530615 -0.003624
v 0.060073 0.526800 -0.013740
v 0.058629 0.531996 -0.003623
v 0.066808 0.529604 -0.013741
v 0.065162 0.534716 -0.003623
v 0.072870 0.533671 -0.013740
v 0.071042 0.538661 -0.003623
v 0.078023 0.538848 -0.013740
v 0.076040 0.543683 -0.003623
v 0.082071 0.544936 -0.013740
v 0.079967 0.549587 -0.003623
v 0.084855 0.551699 -0.013740
v 0.082667 0.556148 -0.003623
v 0.086276 0.558876 -0.013739
v 0.084046 0.563110 -0.003622
v 0.085517 0.564562 -0.008709
v 0.085517 0.835437 -0.008709
v 0.074766 0.542918 -0.114947
v 0.074766 0.857082 -0.114947
v 0.076772 0.862095 -0.003650
v -0.050898 0.857082 -0.114947
v -0.052903 0.862095 -0.003650
v -0.050898 0.542918 -0.114947
v -0.052903 0.537905 -0.003650
v 0.076772 0.537905 -0.003650
vn -0.0000 1.0000 -0.0000
vn -0.0000 -1.0000 -0.0000
vn 0.5528 -0.0215 -0.8331
vn -0.9980 -0.0213 0.0591
vn -0.0959 0.0620 -0.9935
vn -0.7976 0.0294 0.6025
vn 0.4922 -0.0079 0.8705
vn 0.8555 0.0358 0.5166
vn -0.6299 -0.0427 -0.7755
vn -0.9847 0.0635 0.1623
vn 0.3712 0.0348 -0.9279
vn -0.3097 -0.0179 0.9507
vn 0.7223 0.0379 0.6906
vn 0.9988 -0.0160 -0.0469
vn 0.1642 -0.1798 -0.9699
vn -0.9379 -0.0262 0.3459
vn -0.6245 0.0292 -0.7805
vn -0.1924 0.1106 0.9751
vn 0.8750 0.0359 0.4828
vn 0.9000 0.1645 -0.4038
vn -1.0000 -0.0000 -0.0000
vn 0.0048 -0.6862 0.7274
vn 0.0218 -0.1149 -0.9931
vn 0.0069 -0.7428 0.6694
vn 1.0000 -0.0000 -0.0000
vn 0.0045 -0.3343 -0.9425
vn -0.0042 0.9844 0.1760
vn 0.0117 0.9000 0.4358
vn 0.6695 -0.1697 -0.7231
vn -0.9198 -0.0085 -0.3924
vn -0.5903 0.1585 -0.7915
vn -0.3501 0.1431 0.9257
vn 0.1921 -0.1333 0.9723
vn 0.9615 0.0038 -0.2748
vn -0.0088 0.5455 0.8381
vn 0.0235 -0.8420 0.5389
vn 0.0328 0.9392 0.3417
vn -0.0095 -0.9997 -0.0230
vn 0.0205 -0.1758 -0.9842
vn -0.0081 0.5214 -0.8533
vn 0.2831 -0.9327 -0.2233
vn -0.2792 -0.5064 -0.8158
vn 0.5793 -0.6966 0.4233
vn -0.5711 0.1501 -0.8071
vn 0.3744 -0.3675 0.8513
vn 0.5779 -0.5453 -0.6071
vn 0.2238 -0.2163 0.9504
vn 0.2714 -0.3169 -0.9088
vn -0.6462 0.6820 -0.3424
vn -0.7118 0.6983 0.0760
vn -0.0000 -0.0000 -1.0000
vn -0.0000 -0.0000 1.0000
vt 0.500000 0.500000
s 1
f 2/1/1 12/1/1 3/1/1
f 1/1/2 8/1/2 5/1/2
f 2/1/1 7/1/1 10/1/1
f 1/1/2 11/1/2 8/1/2
f 2/1/1 10/1/1 12/1/1
f 135/1/3 128/1/4 126/1/5
f 128/1/4 130/1/6 126/1/5
f 127/1/2 131/1/2 129/1/2
f 128/1/4 132/1/7 130/1/6
f 132/1/7 133/1/8 130/1/6
f 127/1/2 134/1/2 131/1/2
f 132/1/7 135/1/3 133/1/8
f 135/1/3 126/1/5 133/1/8
f 148/1/9 139/1/10 147/1/11
f 148/1/9 141/1/12 139/1/10
f 136/1/2 142/1/2 140/1/2
f 141/1/12 143/1/13 139/1/10
f 141/1/12 145/1/14 143/1/13
f 136/1/2 146/1/2 142/1/2
f 145/1/14 147/1/11 143/1/13
f 145/1/14 148/1/9 147/1/11
f 137/1/1 144/1/1 138/1/1
f 152/1/1 153/1/1 156/1/1
f 150/1/2 157/1/2 155/1/2
f 152/1/1 156/1/1 159/1/1
f 150/1/2 151/1/2 157/1/2
f 274/1/1 275/1/1 279/1/1
f 273/1/2 280/1/2 277/1/2
f 292/1/15 285/1/16 281/1/17
f 285/1/16 287/1/18 281/1/17
f 284/1/1 286/1/1 288/1/1
f 285/1/16 289/1/19 287/1/18
f 289/1/19 291/1/20 287/1/18
f 289/1/19 292/1/15 291/1/20
f 292/1/15 281/1/17 291/1/20
f 282/1/2 283/1/2 290/1/2
f 295/1/21 299/1/21 296/1/21
f 293/1/22 300/1/23 294/1/24
f 297/1/25 298/1/25 301/1/25
f 293/1/22 302/1/26 300/1/23
f 302/1/26 303/1/27 300/1/23
f 303/1/27 304/1/28 300/1/23
f 303/1/27 293/1/22 304/1/28
f 293/1/22 294/1/24 304/1/28
f 305/1/21 312/1/21 309/1/21
f 306/1/25 310/1/25 313/1/25
f 314/1/21 322/1/21 319/1/21
f 316/1/25 320/1/25 323/1/25
f 314/1/21 315/1/21 322/1/21
f 316/1/25 323/1/25 317/1/25
f 347/1/21 351/1/21 348/1/21
f 347/1/21 352/1/21 351/1/21
f 349/1/25 353/1/25 355/1/25
f 349/1/25 355/1/25 357/1/25
f 381/1/2 382/1/2 390/1/2
f 392/1/29 384/1/30 380/1/31
f 384/1/30 385/1/32 380/1/31
f 384/1/30 387/1/33 385/1/32
f 383/1/1 386/1/1 388/1/1
f 387/1/33 389/1/34 385/1/32
f 383/1/1 388/1/1 391/1/1
f 387/1/33 392/1/29 389/1/34
f 392/1/29 380/1/31 389/1/34
f 401/1/35 393/1/36 400/1/37
f 401/1/35 396/1/38 393/1/36
f 396/1/38 397/1/39 393/1/36
f 396/1/38 398/1/40 397/1/39
f 398/1/40 400/1/37 397/1/39
f 398/1/40 401/1/35 400/1/37
f 395/1/25 399/1/25 402/1/25
f 406/1/25 408/1/25 411/1/25
f 405/1/21 413/1/21 410/1/21
f 415/1/21 419/1/21 416/1/21
f 418/1/41 420/1/42 414/1/43
f 418/1/41 422/1/44 420/1/42
f 417/1/25 421/1/25 423/1/25
f 417/1/25 423/1/25 424/1/25
f 450/1/25 451/1/25 453/1/25
f 452/1/41 454/1/42 447/1/43
f 452/1/41 456/1/44 454/1/42
f 448/1/21 457/1/21 455/1/21
f 448/1/21 449/1/21 457/1/21
f 505/1/45 500/1/46 496/1/47
f 505/1/45 501/1/48 500/1/46
f 501/1/48 502/1/49 500/1/46
f 501/1/48 503/1/50 502/1/49
f 503/1/50 505/1/45 502/1/49
f 505/1/45 496/1/47 502/1/49
f 722/1/51 725/1/51 723/1/51
f 722/1/51 727/1/51 725/1/51
f 724/1/52 726/1/52 728/1/52
f 724/1/52 728/1/52 729/1/52
l 17 18
l 22 26
l 29 33
l 33 28
l 35 41
l 51 54
l 57 62
l 62 56
l 63 69
l 78 82
l 99 104
l 106 107
l 149 154
l 160 161
l 173 167
l 175 179
l 184 186
l 188 194
l 195 199
l 203 207
l 216 220
l 225 227
l 227 229
l 231 235
l 238 242
l 250 244
l 260 261
l 268 271
l 311 307
l 308 311
l 342 343
l 354 356
l 359 360
l 363 364
l 366 367
l 366 372
l 404 412
l 430 431
l 435 436
l 474 477
l 506 507
l 510 511
l 514 515
l 518 519
l 522 523
l 526 527
l 530 531
l 534 535
l 538 539
l 542 543
l 546 547
l 550 551
l 554 555
l 558 559
l 562 563
l 566 567
l 570 571
l 574 575
l 578 579
l 582 583
l 586 587
l 590 591
l 594 595
l 598 599
l 602 603
l 606 607
l 610 611
l 614 615
l 618 619
l 622 623
l 626 627
l 630 631
l 634 635
l 638 639
l 642 643
l 646 647
l 650 651
l 654 655
l 658 659
l 662 663
l 666 667
l 670 671
l 674 675
l 678 679
l 682 683
l 686 687
l 690 691
l 694 695
l 698 699
l 702 703
l 706 707
l 710 711
l 714 715
l 718 719
l 16 20
l 46 47
l 48 42
l 74 75
l 85 90
l 91 92
l 102 103
l 154 158
l 170 171
l 198 201
l 216 219
l 224 226
l 244 248
l 254 255
l 252 256
l 256 251
l 337 338
l 377 378
l 469 471
l 14 18
l 21 24
l 30 31
l 35 38
l 42 43
l 58 59
l 63 68
l 68 69
l 70 71
l 83 77
l 86 87
l 97 91
l 98 99
l 113 117
l 122 124
l 161 166
l 166 160
l 178 180
l 182 185
l 188 193
l 205 206
l 210 214
l 234 236
l 239 241
l 266 269
l 321 324
l 328 329
l 333 334
l 333 339
l 367 372
l 373 374
l 394 403
l 404 407
l 409 412
l 442 443
l 456 447
l 458 459
l 462 463
l 466 467
l 466 472
l 476 479
l 482 483
l 490 491
l 497 498
l 13 4
l 4 6
l 6 9
l 9 13
l 14 17
l 23 27
l 52 55
l 53 49
l 79 80
l 108 109
l 105 110
l 124 121
l 167 172
l 176 177
l 204 208
l 232 233
l 251 252
l 262 263
l 344 345
l 407 409
l 437 438
l 475 478
l 36 39
l 43 48
l 64 65
l 71 76
l 76 70
l 93 94
l 115 116
l 119 123
l 162 163
l 172 173
l 174 180
l 181 184
l 189 190
l 199 200
l 200 195
l 202 206
l 209 212
l 212 213
l 217 221
l 229 225
l 236 230
l 242 237
l 245 249
l 258 259
l 271 265
l 307 308
l 334 339
l 340 341
l 356 350
l 350 354
l 361 362
l 368 369
l 374 379
l 379 373
l 422 414
l 425 426
l 428 429
l 433 434
l 433 439
l 441 446
l 467 472
l 473 479
l 508 509
l 512 513
l 516 517
l 520 521
l 524 525
l 528 529
l 532 533
l 536 537
l 540 541
l 544 545
l 548 549
l 552 553
l 556 557
l 560 561
l 564 565
l 568 569
l 572 573
l 576 577
l 580 581
l 584 585
l 588 589
l 592 593
l 596 597
l 600 601
l 604 605
l 608 609
l 612 613
l 616 617
l 620 621
l 624 625
l 628 629
l 632 633
l 636 637
l 640 641
l 644 645
l 648 649
l 652 653
l 656 657
l 660 661
l 664 665
l 668 669
l 672 673
l 676 677
l 680 681
l 684 685
l 688 689
l 692 693
l 696 697
l 700 701
l 704 705
l 708 709
l 712 713
l 716 717
l 720 721
l 21 25
l 32 34
l 49 50
l 60 61
l 77 81
l 88 89
l 104 98
l 114 118
l 183 187
l 202 205
l 211 215
l 230 234
l 240 243
l 267 270
l 444 445
l 499 504
l 15 19
l 24 25
l 28 29
l 38 41
l 44 45
l 56 57
l 72 73
l 81 83
l 84 90
l 100 101
l 112 116
l 121 122
l 149 158
l 168 169
l 174 178
l 181 186
l 193 194
l 196 197
l 213 209
l 219 220
l 223 228
l 237 238
l 248 250
l 253 257
l 259 264
l 264 258
l 272 276
l 276 278
l 278 272
l 324 318
l 318 321
l 326 327
l 330 331
l 335 336
l 341 346
l 346 340
l 375 376
l 434 439
l 440 441
l 440 446
l 460 461
l 464 465
l 468 470
l 473 476
l 480 481
l 488 489
l 493 494
l 37 40
l 50 53
l 66 67
l 84 85
l 95 96
l 92 97
l 110 111
l 111 105
l 112 115
l 120 125
l 164 165
l 191 192
l 218 222
l 246 247
l 265 268
l 370 371
l 363 358
l 427 432
l 426 432
l 332 325
l 332 326
l 462 464
l 485 487
l 484 487
l 494 492
l 495 492
l 364 365
l 358 365
l 425 427
l 325 327
l 463 465
l 486 484
l 486 485
l 493 495
