# Blender 4.5.0
# www.blender.org
mtllib guide_pole.lod1.mtl
o pole
v -0.149881 0.008000 -0.157063
v -0.048733 0.008000 -0.210900
v 0.044256 0.008000 -0.219329
v -0.179897 0.036000 0.123404
v 0.044256 0.036000 -0.219329
v -0.048733 0.036000 -0.210900
v -0.231610 0.036000 -0.062457
v -0.149881 0.036000 -0.157063
v -0.240000 0.008000 0.015941
v -0.208380 0.008000 -0.063976
v -0.208380 0.036000 -0.063976
v -0.217538 0.008000 0.021602
v -0.217538 0.036000 0.021602
v -0.179897 0.008000 0.123404
v -0.047082 0.036000 0.232278
v 0.038105 0.008000 0.240000
v -0.071580 0.008000 0.205213
v -0.092105 0.036000 0.194366
v -0.002690 0.036000 0.219329
v 0.044256 0.008000 0.219329
v 0.113146 0.036000 0.205213
v 0.154873 0.008000 0.184687
v 0.273176 0.036000 0.062457
v 0.221463 0.036000 0.123404
v 0.281566 0.008000 -0.015941
v 0.243766 0.008000 0.085002
v 0.259105 0.036000 0.021602
v 0.259105 0.008000 -0.021602
v 0.249946 0.036000 -0.063976
v 0.221463 0.008000 -0.123404
v 0.088648 0.036000 -0.232278
v 0.205900 0.036000 -0.139814
v 0.003461 0.008000 -0.240000
v 0.133671 0.008000 -0.194366
v 0.133671 0.036000 -0.194366
v 0.184865 0.036000 0.052421
v 0.181581 0.051000 0.054166
v 0.183113 0.036000 0.053119
v 0.183113 0.051000 0.076151
v 0.183113 0.051000 0.053119
v 0.181581 0.036000 0.075104
v 0.184865 0.051000 0.076849
v 0.183113 0.036000 0.076151
v 0.204568 0.036000 0.066380
v 0.204568 0.051000 0.062890
v 0.204787 0.036000 0.064635
v 0.204787 0.051000 0.064635
v 0.184153 0.051000 0.060778
v 0.183616 0.061000 0.061634
v 0.183503 0.051000 0.068267
v 0.183503 0.061000 0.068267
v 0.189624 0.051000 0.072211
v 0.188925 0.061000 0.071773
v 0.197111 0.061000 0.060277
v 0.197485 0.051000 0.060837
v 0.197485 0.061000 0.060837
v 0.196349 0.051000 0.059940
v 0.099772 0.036000 0.145573
v 0.076785 0.036000 0.154297
v 0.077636 0.051000 0.151777
v 0.091015 0.036000 0.143247
v 0.076566 0.036000 0.156042
v 0.091015 0.051000 0.143247
v 0.076566 0.051000 0.156042
v 0.096488 0.036000 0.168256
v 0.091015 0.036000 0.168838
v 0.091015 0.051000 0.168838
v 0.105245 0.051000 0.154297
v 0.105464 0.036000 0.156042
v 0.105464 0.051000 0.156042
v 0.087755 0.051000 0.149856
v 0.086824 0.061000 0.150351
v 0.094961 0.051000 0.149752
v 0.094961 0.061000 0.149752
v 0.086280 0.051000 0.162275
v 0.085913 0.061000 0.161575
v 0.086888 0.051000 0.162620
v 0.086888 0.061000 0.162620
v 0.099248 0.061000 0.155385
v 0.098772 0.051000 0.154742
v -0.036070 0.036000 0.151777
v -0.063679 0.036000 0.154297
v -0.058206 0.051000 0.145573
v -0.049449 0.036000 0.168838
v -0.063898 0.036000 0.156042
v -0.049449 0.036000 0.143247
v -0.049449 0.051000 0.143247
v -0.063898 0.051000 0.156042
v -0.054922 0.051000 0.168256
v -0.049449 0.051000 0.168838
v -0.035219 0.051000 0.154297
v -0.035000 0.036000 0.156042
v -0.035000 0.051000 0.156042
v -0.052709 0.051000 0.149856
v -0.046189 0.061000 0.149856
v -0.057206 0.061000 0.154742
v -0.053395 0.051000 0.149752
v -0.053395 0.061000 0.149752
v -0.054184 0.051000 0.162275
v -0.044714 0.061000 0.162275
v -0.045322 0.051000 0.162620
v -0.045322 0.061000 0.162620
v -0.041692 0.051000 0.154742
v -0.140015 0.036000 0.054166
v -0.163002 0.036000 0.062890
v -0.143299 0.051000 0.052421
v -0.163002 0.051000 0.066380
v -0.141547 0.036000 0.053119
v -0.163221 0.036000 0.064635
v -0.141547 0.051000 0.076151
v -0.141547 0.051000 0.053119
v -0.163221 0.051000 0.064635
v -0.143299 0.036000 0.076849
v -0.140015 0.051000 0.075104
v -0.141547 0.036000 0.076151
v -0.155545 0.051000 0.060277
v -0.147359 0.061000 0.057496
v -0.141937 0.051000 0.068267
v -0.155919 0.051000 0.060837
v -0.141937 0.061000 0.068267
v -0.155919 0.061000 0.060837
v -0.156196 0.061000 0.067078
v -0.147359 0.051000 0.071773
v -0.142760 0.061000 0.069330
v -0.142050 0.051000 0.061634
v -0.140015 0.036000 -0.075104
v -0.163002 0.036000 -0.066380
v -0.143299 0.051000 -0.076849
v -0.163002 0.051000 -0.062890
v -0.141547 0.036000 -0.076151
v -0.163221 0.036000 -0.064635
v -0.141547 0.051000 -0.076151
v -0.163221 0.051000 -0.064635
v -0.143299 0.036000 -0.052421
v -0.140015 0.051000 -0.054166
v -0.141547 0.036000 -0.053119
v -0.141547 0.051000 -0.053119
v -0.146117 0.051000 -0.071467
v -0.147359 0.061000 -0.071774
v -0.141937 0.051000 -0.068267
v -0.148772 0.061000 -0.057371
v -0.148772 0.061000 -0.072230
v -0.156259 0.051000 -0.061416
v -0.155545 0.061000 -0.060277
v -0.155919 0.051000 -0.060837
v -0.142587 0.051000 -0.060778
v -0.142050 0.061000 -0.061634
v -0.054922 0.036000 -0.168256
v -0.049449 0.051000 -0.168838
v -0.063679 0.051000 -0.154297
v -0.049449 0.036000 -0.143247
v -0.063898 0.036000 -0.156042
v -0.049449 0.036000 -0.168838
v -0.049449 0.051000 -0.143247
v -0.063898 0.051000 -0.156042
v -0.058206 0.036000 -0.145573
v -0.036070 0.051000 -0.151777
v -0.035219 0.036000 -0.154297
v -0.035000 0.036000 -0.156042
v -0.035000 0.051000 -0.156042
v -0.044714 0.051000 -0.162275
v -0.057682 0.061000 -0.155385
v -0.053395 0.051000 -0.149752
v -0.045322 0.051000 -0.162620
v -0.053395 0.061000 -0.149752
v -0.045322 0.061000 -0.162620
v -0.057206 0.051000 -0.154742
v -0.046189 0.051000 -0.149856
v -0.045258 0.061000 -0.150351
v -0.044347 0.061000 -0.161575
v 0.077636 0.036000 -0.151777
v 0.096488 0.051000 -0.168256
v 0.076785 0.051000 -0.154297
v 0.091015 0.036000 -0.143247
v 0.076566 0.036000 -0.156042
v 0.091015 0.036000 -0.168838
v 0.091015 0.051000 -0.168838
v 0.076566 0.051000 -0.156042
v 0.099772 0.051000 -0.145573
v 0.091015 0.051000 -0.143247
v 0.105245 0.036000 -0.154297
v 0.105464 0.036000 -0.156042
v 0.105464 0.051000 -0.156042
v 0.095750 0.051000 -0.162275
v 0.086280 0.061000 -0.162275
v 0.094961 0.051000 -0.149752
v 0.086888 0.051000 -0.162620
v 0.094961 0.061000 -0.149752
v 0.086888 0.061000 -0.162620
v 0.083258 0.051000 -0.154742
v 0.087755 0.061000 -0.149856
v 0.094275 0.051000 -0.149856
v 0.098772 0.061000 -0.154742
v 0.184865 0.036000 -0.076849
v 0.181581 0.051000 -0.075104
v 0.183113 0.036000 -0.076151
v 0.183113 0.051000 -0.053119
v 0.183113 0.051000 -0.076151
v 0.181581 0.036000 -0.054166
v 0.184865 0.051000 -0.052421
v 0.183113 0.036000 -0.053119
v 0.204568 0.036000 -0.062890
v 0.204568 0.051000 -0.066380
v 0.204787 0.036000 -0.064635
v 0.204787 0.051000 -0.064635
v 0.188925 0.051000 -0.071774
v 0.183503 0.051000 -0.068267
v 0.190338 0.061000 -0.057371
v 0.183616 0.051000 -0.061634
v 0.184153 0.061000 -0.060778
v 0.197111 0.051000 -0.060277
v 0.196349 0.061000 -0.059940
v 0.197485 0.051000 -0.060837
v 0.189624 0.061000 -0.072211
v 0.190338 0.061000 -0.072230
v -0.001419 0.035998 -0.121532
v -0.064480 3.599987 -0.073596
v -0.051849 0.036000 -0.100038
v 0.008069 0.036000 -0.118803
v -0.029534 3.600000 -0.086635
v -0.128730 0.035964 0.022767
v -0.100000 0.036000 -0.046042
v -0.081362 3.600000 -0.028516
v -0.108308 0.036000 0.011701
v -0.055895 3.599995 0.075137
v -0.076772 3.600000 0.037188
v -0.087918 0.036000 0.066844
v -0.017579 0.036000 0.116386
v 0.083519 0.035990 0.116790
v 0.106046 3.599987 0.073596
v 0.070813 0.036000 0.111157
v 0.129484 0.036000 0.066844
v 0.122928 3.600000 0.028516
v 0.147687 0.035990 -0.057736
v 0.149874 0.036000 0.011701
v 0.097461 3.599995 -0.075137
v 0.137334 0.036000 -0.057333
v 0.118338 3.600000 -0.037189
v 0.062192 3.600000 -0.092004
v 0.070813 0.036000 -0.111157
v -0.064120 6.500000 -0.015543
v -0.012344 6.500000 -0.073603
v -0.061216 6.499993 -0.037307
v -0.092593 3.599991 -0.013633
v -0.076772 3.600000 -0.037189
v -0.081362 3.600000 0.028516
v -0.032895 6.499997 0.064115
v -0.049455 6.500000 0.043191
v 0.005970 3.599991 0.104340
v -0.029534 3.600000 0.086635
v -0.004005 6.500000 0.075203
v 0.096670 6.499984 0.053645
v 0.062192 3.600000 0.092003
v 0.053110 6.500000 0.071824
v 0.134159 3.599991 0.013632
v 0.091021 6.500000 0.043191
v 0.118338 3.600000 0.037188
v 0.105686 6.500000 -0.015543
v 0.122928 3.600000 -0.028516
v 0.061320 6.499993 -0.075464
v 0.035596 3.599991 -0.104341
v 0.061037 6.500000 -0.069308
v -0.069532 3.580000 -0.133284
v -0.092993 3.580000 0.104708
v -0.010608 3.580000 -0.145235
v -0.092993 3.608000 -0.104709
v -0.010608 3.608000 -0.145235
v -0.154958 3.608000 -0.026803
v -0.092993 3.580000 -0.104709
v -0.131992 3.580000 -0.042651
v -0.137029 3.608000 -0.028889
v -0.130436 3.580000 0.086655
v -0.137029 3.580000 0.028889
v -0.131992 3.608000 0.042650
v -0.092993 3.608000 0.104708
v -0.051784 3.608000 0.133886
v -0.010608 3.580000 0.145235
v -0.025561 3.608000 0.140600
v 0.111098 3.580000 0.133284
v 0.120023 3.608000 0.127796
v 0.052174 3.608000 0.145235
v 0.067127 3.580000 0.140600
v 0.134559 3.580000 0.104708
v 0.134559 3.608000 0.104708
v 0.178595 3.580000 0.028889
v 0.173558 3.608000 0.042650
v 0.172002 3.580000 -0.086656
v 0.181396 3.608000 -0.034021
v 0.178595 3.608000 -0.028889
v 0.173558 3.580000 -0.042651
v 0.134559 3.580000 -0.104709
v 0.134559 3.608000 -0.104709
v 0.048800 3.608000 -0.154946
v 0.067127 3.580000 -0.140600
v 0.067127 3.608000 -0.140600
v 0.142577 3.608000 0.032621
v 0.119590 3.608000 0.041345
v 0.139293 3.623000 0.030876
v 0.119590 3.623000 0.044834
v 0.141044 3.608000 0.031574
v 0.119371 3.608000 0.043090
v 0.141044 3.623000 0.031574
v 0.119371 3.623000 0.043090
v 0.139293 3.608000 0.055303
v 0.142577 3.623000 0.053559
v 0.141044 3.608000 0.054605
v 0.141044 3.623000 0.054605
v 0.136475 3.623000 0.036257
v 0.126333 3.633000 0.039870
v 0.140655 3.623000 0.046721
v 0.126672 3.623000 0.039292
v 0.140655 3.633000 0.046721
v 0.126672 3.633000 0.039292
v 0.126333 3.623000 0.046309
v 0.136475 3.633000 0.049922
v 0.140004 3.623000 0.046947
v 0.140004 3.633000 0.039232
v 0.056901 3.608000 0.095498
v 0.078307 3.623000 0.095498
v 0.053374 3.623000 0.105773
v 0.067604 3.608000 0.091233
v 0.053155 3.608000 0.104028
v 0.067604 3.623000 0.091233
v 0.053155 3.623000 0.104028
v 0.067604 3.615500 0.116823
v 0.067604 3.608000 0.116823
v 0.067604 3.623000 0.116823
v 0.081834 3.608000 0.105773
v 0.082053 3.608000 0.104028
v 0.082053 3.623000 0.104028
v 0.062503 3.623000 0.098496
v 0.071102 3.633000 0.097138
v 0.059351 3.623000 0.104028
v 0.059712 3.633000 0.104028
v 0.060180 3.633000 0.106472
v 0.063413 3.623000 0.109719
v 0.071796 3.633000 0.109719
v 0.075497 3.623000 0.104028
v 0.075837 3.623000 0.104685
v 0.075857 3.633000 0.104028
v -0.036741 3.608000 0.095498
v -0.015335 3.623000 0.095498
v -0.040268 3.623000 0.105773
v -0.026038 3.608000 0.091233
v -0.040487 3.608000 0.104028
v -0.026038 3.623000 0.091233
v -0.040487 3.623000 0.104028
v -0.026038 3.615500 0.116823
v -0.026038 3.608000 0.116823
v -0.026038 3.623000 0.116823
v -0.011808 3.608000 0.105773
v -0.011589 3.608000 0.104028
v -0.011589 3.623000 0.104028
v -0.029536 3.623000 0.097138
v -0.034271 3.633000 0.104685
v -0.022092 3.623000 0.110318
v -0.030165 3.623000 0.097450
v -0.033931 3.633000 0.104028
v -0.030230 3.623000 0.109719
v -0.021847 3.633000 0.109719
v -0.018614 3.623000 0.106472
v -0.017785 3.633000 0.104028
v -0.020937 3.633000 0.098496
v -0.097727 3.608000 0.030876
v -0.101010 3.623000 0.032621
v -0.099478 3.608000 0.054605
v -0.099478 3.608000 0.031574
v -0.099478 3.623000 0.054605
v -0.099478 3.623000 0.031574
v -0.101010 3.608000 0.053559
v -0.097727 3.623000 0.055303
v -0.078024 3.608000 0.044834
v -0.078024 3.623000 0.041345
v -0.077805 3.608000 0.043090
v -0.077805 3.623000 0.043090
v -0.098438 3.623000 0.039232
v -0.094909 3.633000 0.036257
v -0.099089 3.623000 0.046721
v -0.092254 3.633000 0.050353
v -0.098438 3.633000 0.046947
v -0.094909 3.623000 0.049922
v -0.084767 3.633000 0.046309
v -0.084767 3.623000 0.039870
v -0.085106 3.623000 0.039292
v -0.092254 3.633000 0.035494
v -0.097727 3.608000 -0.055304
v -0.101010 3.623000 -0.053559
v -0.099478 3.608000 -0.031574
v -0.099478 3.608000 -0.054606
v -0.099478 3.623000 -0.054606
v -0.101010 3.608000 -0.032621
v -0.097727 3.623000 -0.030876
v -0.099478 3.623000 -0.031574
v -0.078024 3.608000 -0.041345
v -0.078024 3.623000 -0.044835
v -0.077805 3.608000 -0.043090
v -0.077805 3.623000 -0.043090
v -0.094909 3.633000 -0.049922
v -0.099089 3.623000 -0.046722
v -0.092254 3.633000 -0.050354
v -0.098976 3.623000 -0.040090
v -0.098438 3.633000 -0.039233
v -0.092254 3.633000 -0.035495
v -0.087152 3.623000 -0.037558
v -0.084767 3.633000 -0.039871
v -0.085106 3.623000 -0.039292
v -0.091540 3.623000 -0.050667
v -0.038079 3.608000 -0.110426
v -0.039417 3.623000 -0.108294
v -0.026038 3.608000 -0.116824
v -0.040487 3.608000 -0.104028
v -0.026038 3.623000 -0.116824
v -0.040487 3.623000 -0.104028
v -0.034795 3.608000 -0.093560
v -0.017281 3.623000 -0.093560
v -0.026038 3.608000 -0.091233
v -0.026038 3.623000 -0.091233
v -0.012660 3.608000 -0.108294
v -0.011589 3.608000 -0.104028
v -0.011589 3.623000 -0.104028
v -0.013997 3.623000 -0.110426
v -0.021847 3.623000 -0.109720
v -0.033462 3.623000 -0.106472
v -0.022778 3.633000 -0.110215
v -0.034271 3.633000 -0.103371
v -0.022092 3.623000 -0.110319
v -0.029984 3.633000 -0.110319
v -0.030165 3.623000 -0.097451
v -0.022540 3.623000 -0.097138
v -0.021912 3.633000 -0.097451
v -0.020027 3.633000 -0.099333
v 0.055564 3.608000 -0.110426
v 0.054226 3.623000 -0.108294
v 0.067604 3.608000 -0.116824
v 0.053155 3.608000 -0.104028
v 0.067604 3.623000 -0.116824
v 0.053155 3.623000 -0.104028
v 0.058847 3.608000 -0.093560
v 0.076361 3.623000 -0.093560
v 0.067604 3.608000 -0.091233
v 0.067604 3.623000 -0.091233
v 0.080983 3.608000 -0.108294
v 0.082053 3.608000 -0.104028
v 0.082053 3.623000 -0.104028
v 0.079645 3.623000 -0.110426
v 0.064344 3.623000 -0.110215
v 0.070865 3.633000 -0.110215
v 0.059372 3.633000 -0.103371
v 0.059712 3.623000 -0.104028
v 0.063658 3.633000 -0.110319
v 0.061593 3.623000 -0.099333
v 0.071731 3.633000 -0.097451
v 0.073616 3.633000 -0.099333
v 0.075837 3.623000 -0.103371
v 0.075857 3.623000 -0.104028
v 0.142577 3.608000 -0.053559
v 0.119590 3.608000 -0.044835
v 0.139293 3.623000 -0.055304
v 0.119590 3.623000 -0.041345
v 0.141044 3.608000 -0.031574
v 0.119371 3.608000 -0.043090
v 0.141044 3.608000 -0.054606
v 0.141044 3.623000 -0.031574
v 0.141044 3.623000 -0.054606
v 0.119371 3.623000 -0.043090
v 0.139293 3.608000 -0.030876
v 0.142577 3.623000 -0.032621
v 0.136475 3.623000 -0.049922
v 0.126333 3.633000 -0.046309
v 0.140655 3.623000 -0.046722
v 0.140655 3.633000 -0.046722
v 0.126333 3.623000 -0.039871
v 0.126672 3.623000 -0.039292
v 0.126672 3.633000 -0.039292
v 0.136475 3.633000 -0.036258
v 0.140004 3.623000 -0.039233
v 0.140004 3.633000 -0.046947
v -0.022587 6.500000 -0.080855
v -0.049061 6.512000 -0.060276
v -0.062878 6.500000 -0.023356
v 0.038073 6.500000 -0.079997
v 0.003493 6.512000 -0.079997
v -0.027266 6.500000 -0.066180
v -0.051127 6.512000 -0.044220
v -0.066141 6.512000 0.015912
v -0.059900 6.500000 0.036791
v -0.029828 6.512000 0.074802
v -0.059119 6.500000 0.030459
v -0.020429 6.500000 0.070957
v -0.020429 6.512000 0.070957
v 0.064153 6.500000 0.080854
v 0.054699 6.500000 0.075355
v 0.054699 6.512000 0.075355
v 0.098627 6.512000 0.044675
v 0.107707 6.500000 0.015912
v 0.104444 6.512000 0.023355
v 0.101466 6.500000 -0.036791
v 0.083581 6.512000 -0.061548
v 0.100685 6.512000 -0.030459
v 0.092693 6.500000 -0.044220
v 0.068832 6.512000 -0.066180
v -0.047719 5.310000 -0.109415
v -0.016399 5.190000 0.112805
v -0.016399 5.190000 -0.112805
v -0.039598 5.310000 -0.103962
v 0.045503 5.310000 -0.114373
v -0.104220 5.190000 -0.038811
v -0.076403 5.190000 -0.073403
v -0.096283 5.310000 -0.044626
v -0.103494 5.190000 -0.022750
v -0.098107 5.310000 0.063043
v -0.103494 5.310000 0.022750
v -0.092181 5.190000 0.055569
v -0.047719 5.190000 0.109415
v -0.051358 5.310000 0.099361
v 0.089285 5.310000 0.109414
v 0.057965 5.310000 0.112805
v 0.069273 5.190000 0.107736
v 0.148597 5.190000 0.053211
v 0.133747 5.190000 0.055569
v 0.117969 5.310000 0.073402
v 0.145060 5.310000 0.022750
v 0.139673 5.310000 -0.063043
v 0.145060 5.190000 -0.022750
v 0.128748 5.310000 -0.066392
v 0.052556 5.190000 -0.125749
v 0.117969 5.190000 -0.073403
v 0.069273 5.190000 -0.107737
v 0.020771 5.199428 0.049319
v 3.000078 5.218685 0.039995
v 0.020783 5.299850 0.037391
v 0.020783 5.250000 0.059750
v 3.000083 5.301579 -0.000000
v 3.000083 5.230938 0.042058
v 0.020783 5.200150 0.037391
v 3.000083 5.202981 0.013036
v 0.020783 5.186203 -0.000000
v 3.000038 5.246037 -0.055304
v 3.000083 5.208584 -0.025292
v 0.020775 5.226801 -0.062556
v 0.020783 5.200150 -0.037392
v 0.020783 5.250000 -0.059751
v 3.000083 5.260063 -0.046235
v 0.020783 5.299850 -0.037392
v 0.020771 5.322965 0.011031
v 0.020783 5.313797 -0.000000
v 3.000081 5.291949 0.027397
v 3.000083 5.273163 0.039604
v 3.000083 5.197347 -0.000000
v 3.000083 5.234997 0.045201
v 3.012000 5.197347 -0.000000
v 3.012000 5.234997 0.045201
v 3.000083 5.202031 0.019797
v 3.012000 5.194303 -0.017272
v 3.000083 5.227359 -0.045745
v 3.000083 5.222433 -0.037707
v 3.012000 5.222433 -0.037707
v 3.000083 5.265003 -0.045201
v 3.012000 5.265003 -0.045201
v 3.012000 5.285392 -0.036950
v 3.000083 5.305539 0.025026
v 3.000083 5.297998 -0.013307
v 3.012000 5.297998 -0.013307
v 3.012000 5.276021 0.048208
v 3.000083 5.289951 0.029965
v 3.012000 5.289951 0.029965
v 1.316778 5.174907 0.033879
v 1.267123 5.180014 -0.026495
v 1.267123 5.228308 0.065355
v 1.316779 5.180014 -0.026495
v 1.316779 5.228308 0.065355
v 1.267123 5.168202 0.002402
v 1.267123 5.184098 0.032194
v 1.316779 5.184098 0.032194
v 1.316778 5.236621 -0.073792
v 1.267123 5.247534 -0.071631
v 1.267123 5.221711 -0.062419
v 1.316779 5.221711 -0.062419
v 1.267123 5.271692 -0.065356
v 1.316779 5.271692 -0.065356
v 1.267123 5.331798 -0.002403
v 1.316778 5.331435 0.033716
v 1.267123 5.319986 -0.026495
v 1.316779 5.319986 -0.026495
v 1.267123 5.315902 0.032194
v 1.316779 5.315902 0.032194
v 1.267123 5.252466 0.071631
v 1.267123 5.278289 0.062419
v 1.316779 5.278289 0.062419
v 1.242296 5.300000 0.027418
v 1.341606 5.200000 0.027418
v 1.341606 5.300000 0.137093
v 1.242296 5.200000 0.137093
v 1.242296 5.300000 0.137093
v 1.341606 5.300000 0.027418
v 1.242296 5.200000 0.027418
v 1.341606 5.200000 0.137093
v 1.284006 5.215000 0.140292
v 1.290868 5.206812 0.134351
v 1.293034 5.206812 0.146232
v 1.297058 5.217969 0.134351
v 1.284801 5.210843 0.134351
v 1.297058 5.217969 0.146232
v 1.284801 5.210843 0.146232
v 1.297248 5.221159 0.134351
v 1.294599 5.222698 0.146232
v 1.285451 5.290039 0.134351
v 1.290868 5.276812 0.134351
v 1.284367 5.288149 0.146232
v 1.293034 5.276812 0.146232
v 1.297058 5.282031 0.134351
v 1.284801 5.289157 0.134351
v 1.297058 5.282031 0.146232
v 1.284801 5.289157 0.146232
v 1.299535 5.288149 0.134351
v 1.298451 5.290039 0.146232
v 2.776635 5.174907 0.033879
v 2.726980 5.315902 0.032194
v 2.726980 5.221711 0.062419
v 2.776636 5.180014 -0.026495
v 2.776636 5.221711 0.062419
v 2.726980 5.168202 0.002402
v 2.726980 5.184098 0.032194
v 2.776636 5.184098 0.032194
v 2.726980 5.180014 -0.026495
v 2.776635 5.236621 -0.073792
v 2.726980 5.247534 -0.071631
v 2.726980 5.221711 -0.062419
v 2.776636 5.221711 -0.062419
v 2.726980 5.271692 -0.065356
v 2.776636 5.271692 -0.065356
v 2.726980 5.331798 -0.002403
v 2.776635 5.331435 0.033716
v 2.726980 5.319986 -0.026495
v 2.776636 5.319986 -0.026495
v 2.776636 5.315902 0.032194
v 2.726980 5.252466 0.071631
v 2.726980 5.271692 0.065355
v 2.776636 5.271692 0.065355
v 2.702153 5.200000 0.027418
v 2.702153 5.300000 0.027418
v 2.702153 5.200000 0.137093
v 2.801463 5.300000 0.027418
v 2.801463 5.300000 0.137093
v 2.801463 5.200000 0.027418
v 2.801463 5.200000 0.137093
v 2.702153 5.300000 0.137093
v 2.743863 5.215000 0.140292
v 2.750725 5.206812 0.134351
v 2.752891 5.206812 0.146232
v 2.756915 5.217969 0.134351
v 2.744658 5.210843 0.134351
v 2.756915 5.217969 0.146232
v 2.744658 5.210843 0.146232
v 2.757104 5.221159 0.134351
v 2.754456 5.222698 0.146232
v 2.745308 5.290039 0.134351
v 2.750725 5.276812 0.134351
v 2.744224 5.288149 0.146232
v 2.752891 5.276812 0.146232
v 2.756915 5.282031 0.134351
v 2.744658 5.289157 0.134351
v 2.756915 5.282031 0.146232
v 2.744658 5.289157 0.146232
v 2.759392 5.288149 0.134351
v 2.758308 5.290039 0.146232
v -0.047719 6.310000 -0.109415
v -0.027707 6.190000 0.107736
v -0.027707 6.190000 -0.107737
v 0.057965 6.190000 -0.112805
v -0.003937 6.310000 -0.114373
v -0.088571 6.190000 -0.071924
v -0.087182 6.310000 -0.066392
v -0.076403 6.190000 -0.073403
v -0.103494 6.190000 -0.022750
v -0.098107 6.310000 0.063043
v -0.103494 6.310000 0.022750
v -0.060861 6.190000 0.104986
v -0.092181 6.190000 0.055569
v -0.051358 6.310000 0.099361
v 0.089285 6.310000 0.109414
v 0.057965 6.190000 0.112805
v 0.045503 6.310000 0.114372
v 0.130137 6.190000 0.071923
v 0.128748 6.310000 0.066391
v 0.133747 6.190000 0.055569
v 0.139673 6.310000 -0.063044
v 0.145060 6.190000 -0.022750
v 0.145060 6.310000 -0.022750
v 0.102427 6.190000 -0.104987
v 0.117969 6.190000 -0.073403
v 0.092924 6.310000 -0.099362
v 3.000076 6.200627 0.022278
v 0.020783 6.200150 -0.037392
v 0.020783 6.250000 0.059750
v 3.000083 6.198421 -0.000000
v 3.000083 6.239937 0.046234
v 0.020765 6.174549 -0.004534
v 0.020783 6.200150 0.037391
v 0.020783 6.186203 -0.000000
v 3.000080 6.236330 -0.046455
v 3.000083 6.230938 -0.042059
v 0.020783 6.250000 -0.059751
v 0.020778 6.287334 -0.054794
v 3.000083 6.273163 -0.039605
v 3.000057 6.306581 0.017551
v 0.020783 6.299850 -0.037392
v 3.000083 6.297019 -0.013036
v 0.020783 6.313797 -0.000000
v 0.020771 6.293059 0.054954
v 3.000083 6.291416 0.025291
v 0.020783 6.299850 0.037391
v 3.000083 6.215762 0.040746
v 3.000083 6.202002 0.013307
v 3.000083 6.234997 0.045201
v 3.012000 6.206221 0.026735
v 3.012000 6.209074 0.028813
v 3.012000 6.215762 -0.040747
v 3.000083 6.209074 -0.028813
v 3.000083 6.210049 -0.029966
v 3.012000 6.210049 -0.029966
v 3.000083 6.284238 -0.040747
v 3.000083 6.265003 -0.045201
v 3.012000 6.265003 -0.045201
v 3.012000 6.290926 -0.028813
v 3.000083 6.302653 -0.000000
v 3.012000 6.302653 -0.000000
v 3.012000 6.284238 0.040746
v 3.000083 6.290926 0.028813
v 3.000083 6.277567 0.037706
v 3.012000 6.265003 0.045201
v 1.267123 6.268536 0.072854
v 1.316778 6.224337 0.069298
v 1.267123 6.315902 0.032194
v 1.267123 6.228308 0.065355
v 1.316779 6.180014 -0.026495
v 1.316779 6.221711 0.062419
v 1.267123 6.166331 -0.028787
v 1.267123 6.184098 0.032194
v 1.316779 6.184098 0.032194
v 1.316778 6.188882 -0.059633
v 1.267123 6.180014 -0.026495
v 1.267123 6.228308 -0.065356
v 1.316779 6.228308 -0.065356
v 1.267123 6.322542 -0.038243
v 1.267123 6.278289 -0.062419
v 1.316779 6.278289 -0.062419
v 1.316778 6.335656 0.002542
v 1.267123 6.319986 -0.026495
v 1.316779 6.319986 -0.026495
v 1.316779 6.315902 0.032194
v 1.267123 6.278289 0.062419
v 1.316779 6.271692 0.065355
v 1.242296 6.300000 0.027418
v 1.242296 6.200000 0.027418
v 1.242296 6.300000 0.137093
v 1.341606 6.200000 0.027418
v 1.341606 6.300000 0.027418
v 1.341606 6.300000 0.137093
v 1.341606 6.200000 0.137093
v 1.242296 6.200000 0.137093
v 1.284006 6.215001 0.140292
v 1.290868 6.206812 0.134351
v 1.293034 6.206812 0.146232
v 1.297058 6.217969 0.134351
v 1.284801 6.210843 0.134351
v 1.297058 6.217969 0.146232
v 1.284801 6.210843 0.146232
v 1.297247 6.221159 0.134351
v 1.294599 6.222698 0.146232
v 1.284006 6.285000 0.140292
v 1.294599 6.277302 0.134351
v 1.297247 6.278841 0.146232
v 1.297058 6.282031 0.134351
v 1.284801 6.289157 0.134351
v 1.297058 6.282031 0.146232
v 1.284801 6.289157 0.146232
v 1.293034 6.293189 0.134351
v 1.290868 6.293189 0.146232
v 2.726980 6.268536 0.072854
v 2.776635 6.224337 0.069298
v 2.726980 6.180014 -0.026495
v 2.726980 6.228308 0.065355
v 2.776636 6.315902 0.032194
v 2.776636 6.228308 0.065355
v 2.726980 6.166331 -0.028787
v 2.726980 6.184098 0.032194
v 2.776636 6.184098 0.032194
v 2.776635 6.188882 -0.059633
v 2.776636 6.180014 -0.026495
v 2.726980 6.221711 -0.062419
v 2.776636 6.221711 -0.062419
v 2.726980 6.271692 -0.065356
v 2.776636 6.271692 -0.065356
v 2.726980 6.322542 -0.038243
v 2.776635 6.335656 0.002542
v 2.726980 6.319986 -0.026495
v 2.776636 6.319986 -0.026495
v 2.726980 6.315902 0.032194
v 2.726980 6.278289 0.062419
v 2.776636 6.278289 0.062419
v 2.801463 6.200000 0.027418
v 2.702153 6.300000 0.137093
v 2.702153 6.300000 0.027418
v 2.801463 6.300000 0.137093
v 2.801463 6.200000 0.137093
v 2.702153 6.200000 0.027418
v 2.702153 6.200000 0.137093
v 2.801463 6.300000 0.027418
v 2.743863 6.215000 0.140292
v 2.750725 6.206812 0.134351
v 2.752891 6.206812 0.146232
v 2.744658 6.210843 0.134351
v 2.746700 6.217969 0.146232
v 2.756915 6.217969 0.134351
v 2.758958 6.210843 0.146232
v 2.757104 6.221159 0.134351
v 2.754456 6.222698 0.146232
v 2.746511 6.278841 0.134351
v 2.749160 6.277302 0.146232
v 2.746700 6.282031 0.134351
v 2.746700 6.282031 0.146232
v 2.759753 6.285000 0.140292
v 2.758958 6.289157 0.134351
v 2.758958 6.289157 0.146232
v 2.752891 6.293189 0.134351
v 2.750725 6.293189 0.146232
v 1.311813 5.200000 0.075401
v 1.272089 6.300000 0.107389
v 1.311813 6.300000 0.107389
v 1.311813 5.200000 0.107389
v 1.272089 5.200000 0.075401
v 1.272089 5.200000 0.107389
v 1.272089 6.300000 0.075401
v 1.311813 6.300000 0.075401
v 2.771670 6.300000 0.075401
v 2.731946 6.300000 0.107389
v 2.731946 6.300000 0.075401
v 2.771670 6.300000 0.107389
v 2.771670 5.200000 0.107389
v 2.731946 5.200000 0.075401
v 2.771670 5.200000 0.075401
v 2.731946 5.200000 0.107389
v 0.750012 6.235925 0.031787
v 0.105423 5.594852 -0.033713
v 0.116804 5.583569 0.026080
v 0.743701 6.242181 -0.033577
v 0.761812 6.224224 0.010185
v 0.125439 5.575008 -0.006477
v 0.758453 6.227555 -0.016808
v 0.109783 5.590529 -0.036361
v 0.707742 6.277833 -0.017876
v 0.078861 5.621188 -0.018442
v 0.709818 6.275776 -0.010186
v 0.073131 5.626868 0.002324
v 0.077193 5.622842 0.015904
v 0.727929 6.257819 0.033577
v 0.113384 5.586959 0.034434
v 0.095338 5.604852 0.031770
v 0.090448 0.832581 -0.117023
v 0.094895 0.841044 -0.108800
v 0.089127 0.839337 -0.117021
v 0.093489 0.848230 -0.108798
v 0.086521 0.845704 -0.117020
v 0.090717 0.855004 -0.108797
v 0.082729 0.851435 -0.117019
v 0.086683 0.861101 -0.108795
v 0.077898 0.856311 -0.117019
v 0.081543 0.866288 -0.108795
v 0.072213 0.860142 -0.117019
v 0.075496 0.870364 -0.108795
v 0.065893 0.862779 -0.117018
v 0.068773 0.873169 -0.108794
v 0.059184 0.864121 -0.117017
v 0.061635 0.874597 -0.108794
v 0.056907 0.869750 -0.112874
v -0.015341 0.869750 -0.112874
v -0.017618 0.864123 -0.117019
v -0.020069 0.874598 -0.108795
v -0.024327 0.862779 -0.117018
v -0.027207 0.873169 -0.108795
v -0.030646 0.860141 -0.117018
v -0.033929 0.870363 -0.108794
v -0.036332 0.856311 -0.117019
v -0.039977 0.866288 -0.108795
v -0.041163 0.851436 -0.117019
v -0.045117 0.861102 -0.108796
v -0.044955 0.845703 -0.117020
v -0.049151 0.855004 -0.108797
v -0.047561 0.839337 -0.117021
v -0.051924 0.848231 -0.108798
v -0.048881 0.832581 -0.117022
v -0.053328 0.841044 -0.108799
v -0.051465 0.833375 -0.112874
v -0.051465 0.566625 -0.112873
v -0.048882 0.567419 -0.117023
v -0.053329 0.558956 -0.108800
v -0.047561 0.560663 -0.117021
v -0.051923 0.551769 -0.108798
v -0.044955 0.554297 -0.117020
v -0.049151 0.544997 -0.108796
v -0.041163 0.548565 -0.117019
v -0.045117 0.538899 -0.108795
v -0.036332 0.543689 -0.117019
v -0.039978 0.533712 -0.108795
v -0.030647 0.539858 -0.117018
v -0.033929 0.529637 -0.108795
v -0.024327 0.537221 -0.117018
v -0.027207 0.526830 -0.108795
v -0.017618 0.535879 -0.117017
v -0.020069 0.525403 -0.108794
v -0.015341 0.530250 -0.112874
v 0.056907 0.530250 -0.112873
v 0.059184 0.535877 -0.117019
v 0.061635 0.525402 -0.108795
v 0.065893 0.537221 -0.117018
v 0.068773 0.526831 -0.108794
v 0.072213 0.539859 -0.117018
v 0.075495 0.529637 -0.108794
v 0.077897 0.543689 -0.117018
v 0.081543 0.533712 -0.108795
v 0.082729 0.548564 -0.117019
v 0.086683 0.538898 -0.108796
v 0.086521 0.554296 -0.117020
v 0.090717 0.544996 -0.108797
v 0.089127 0.560663 -0.117021
v 0.093490 0.551769 -0.108798
v 0.090447 0.567419 -0.117022
v 0.094894 0.558956 -0.108799
v 0.093031 0.566625 -0.112873
v 0.093031 0.833375 -0.112874
v 0.094908 0.841158 -0.108761
v 0.094908 0.841158 -0.016451
v 0.093490 0.848333 -0.108761
v 0.093490 0.848333 -0.016451
v 0.090710 0.855092 -0.108761
v 0.090710 0.855092 -0.016451
v 0.086674 0.861175 -0.108761
v 0.086674 0.861175 -0.016451
v 0.081536 0.866348 -0.108761
v 0.081536 0.866348 -0.016451
v 0.075495 0.870413 -0.108761
v 0.075495 0.870413 -0.016451
v 0.068783 0.873212 -0.108761
v 0.068783 0.873212 -0.016451
v 0.061657 0.874640 -0.108761
v 0.061657 0.874640 -0.016451
v 0.058024 0.875000 -0.108761
v -0.016458 0.875000 -0.108761
v -0.016458 0.875000 -0.016451
v 0.058024 0.875000 -0.016451
v -0.020091 0.874640 -0.108761
v -0.020091 0.874640 -0.016451
v -0.027217 0.873212 -0.108761
v -0.027217 0.873212 -0.016451
v -0.033929 0.870413 -0.108761
v -0.033929 0.870413 -0.016451
v -0.039970 0.866348 -0.108761
v -0.039970 0.866348 -0.016451
v -0.045107 0.861175 -0.108761
v -0.045107 0.861175 -0.016451
v -0.049144 0.855092 -0.108761
v -0.049144 0.855092 -0.016451
v -0.051924 0.848333 -0.108761
v -0.051924 0.848333 -0.016451
v -0.053342 0.841158 -0.108761
v -0.053342 0.841158 -0.016451
v -0.053699 0.837500 -0.108761
v -0.053699 0.562500 -0.108761
v -0.053699 0.562500 -0.016451
v -0.053699 0.837500 -0.016451
v -0.053342 0.558842 -0.108761
v -0.053342 0.558842 -0.016451
v -0.051924 0.551667 -0.108761
v -0.051924 0.551667 -0.016451
v -0.049144 0.544908 -0.108761
v -0.049144 0.544908 -0.016451
v -0.045107 0.538825 -0.108761
v -0.045107 0.538825 -0.016451
v -0.039970 0.533652 -0.108761
v -0.039970 0.533652 -0.016451
v -0.033929 0.529587 -0.108761
v -0.033929 0.529587 -0.016451
v -0.027217 0.526788 -0.108761
v -0.027217 0.526788 -0.016451
v -0.020091 0.525360 -0.108761
v -0.020091 0.525360 -0.016451
v -0.016458 0.525000 -0.108761
v 0.058024 0.525000 -0.108761
v 0.058024 0.525000 -0.016451
v -0.016458 0.525000 -0.016451
v 0.061657 0.525360 -0.108761
v 0.061657 0.525360 -0.016451
v 0.068783 0.526788 -0.108761
v 0.068783 0.526788 -0.016451
v 0.075495 0.529587 -0.108761
v 0.075495 0.529587 -0.016451
v 0.081536 0.533652 -0.108761
v 0.081536 0.533652 -0.016451
v 0.086674 0.538825 -0.108761
v 0.086674 0.538825 -0.016451
v 0.090710 0.544908 -0.108761
v 0.090710 0.544908 -0.016451
v 0.093490 0.551667 -0.108761
v 0.093490 0.551667 -0.016451
v 0.094908 0.558842 -0.108761
v 0.094908 0.558842 -0.016451
v 0.095266 0.562500 -0.108761
v 0.095266 0.837500 -0.108761
v 0.095266 0.837500 -0.016451
v 0.095266 0.562500 -0.016451
v 0.094903 0.841124 -0.016423
v 0.092679 0.836890 -0.006371
v 0.093491 0.848302 -0.016423
v 0.091310 0.843853 -0.006370
v 0.090712 0.855064 -0.016424
v 0.088614 0.850412 -0.006371
v 0.086677 0.861152 -0.016424
v 0.084700 0.856317 -0.006371
v 0.081539 0.866329 -0.016424
v 0.079716 0.861339 -0.006371
v 0.075495 0.870396 -0.016424
v 0.073854 0.865285 -0.006371
v 0.068779 0.873197 -0.016425
v 0.067339 0.868001 -0.006372
v 0.061650 0.874627 -0.016424
v 0.060424 0.869388 -0.006371
v 0.057466 0.872375 -0.011425
v -0.015900 0.872375 -0.011425
v -0.020084 0.874625 -0.016425
v -0.018858 0.869386 -0.006372
v -0.027214 0.873200 -0.016423
v -0.025774 0.868004 -0.006371
v -0.033929 0.870397 -0.016424
v -0.032288 0.865285 -0.006371
v -0.039972 0.866328 -0.016424
v -0.038150 0.861339 -0.006371
v -0.045111 0.861152 -0.016424
v -0.043134 0.856317 -0.006371
v -0.049147 0.855065 -0.016423
v -0.047049 0.850413 -0.006371
v -0.051922 0.848301 -0.016424
v -0.049741 0.843852 -0.006371
v -0.053339 0.841124 -0.016423
v -0.051115 0.836890 -0.006370
v -0.052582 0.835437 -0.011424
v -0.052582 0.564562 -0.011424
v -0.053336 0.558876 -0.016423
v -0.051113 0.563110 -0.006371
v -0.051925 0.551698 -0.016423
v -0.049744 0.556147 -0.006370
v -0.049146 0.544936 -0.016424
v -0.047048 0.549588 -0.006371
v -0.045111 0.538848 -0.016424
v -0.043134 0.543683 -0.006371
v -0.039972 0.533672 -0.016424
v -0.038149 0.538661 -0.006371
v -0.033929 0.529603 -0.016424
v -0.032288 0.534715 -0.006371
v -0.027213 0.526803 -0.016425
v -0.025773 0.531999 -0.006372
v -0.020084 0.525372 -0.016423
v -0.018858 0.530611 -0.006371
v -0.015900 0.527625 -0.011424
v 0.057466 0.527625 -0.011424
v 0.061650 0.525376 -0.016425
v 0.060424 0.530615 -0.006372
v 0.068780 0.526800 -0.016423
v 0.067340 0.531996 -0.006371
v 0.075495 0.529604 -0.016424
v 0.073854 0.534716 -0.006372
v 0.081539 0.533671 -0.016424
v 0.079716 0.538661 -0.006371
v 0.086677 0.538848 -0.016424
v 0.084700 0.543683 -0.006371
v 0.090712 0.544936 -0.016423
v 0.088615 0.549587 -0.006371
v 0.093488 0.551699 -0.016424
v 0.091307 0.556148 -0.006371
v 0.094905 0.558876 -0.016423
v 0.092682 0.563110 -0.006370
v 0.094148 0.564562 -0.011424
v 0.094148 0.835437 -0.011424
v 0.083430 0.542918 -0.116986
v 0.083430 0.857082 -0.116986
v 0.091005 0.848769 -0.006398
v 0.068801 0.868509 -0.006398
v -0.041864 0.857082 -0.116986
v -0.027234 0.868509 -0.006398
v -0.049439 0.848769 -0.006398
v -0.041864 0.542918 -0.116986
v -0.049439 0.551231 -0.006398
v -0.027234 0.531491 -0.006398
v 0.068801 0.531491 -0.006398
v 0.091005 0.551231 -0.006398
vn -0.0000 -1.0000 -0.0000
vn -0.0000 1.0000 -0.0000
vn -0.2178 0.6564 -0.7223
vn -0.6668 -0.6421 -0.3783
vn 0.3479 -0.6614 -0.6645
vn -0.7247 0.6480 0.2346
vn -0.3479 -0.6614 0.6645
vn 0.2178 0.6564 0.7223
vn 0.6668 -0.6421 0.3783
vn 0.7247 0.6480 -0.2346
vn -0.3517 -0.1008 -0.9307
vn -0.6495 -0.0955 0.7543
vn -0.6495 0.0955 -0.7543
vn -0.3517 0.1008 0.9307
vn 0.9805 -0.1034 0.1669
vn 0.9805 0.1034 -0.1669
vn 0.8194 -0.0431 -0.5716
vn -0.8409 -0.0146 -0.5409
vn 0.8699 0.0418 -0.4915
vn -0.8997 0.0068 -0.4365
vn -0.0140 -0.0429 0.9990
vn -0.1084 0.0359 0.9935
vn 0.5226 0.0358 -0.8518
vn -0.9981 0.0510 -0.0335
vn -0.9310 0.1186 -0.3453
vn 0.3048 -0.1298 0.9435
vn -0.2085 -0.1137 0.9714
vn 0.9627 0.1559 -0.2211
vn -0.4560 -0.0137 -0.8899
vn -0.5290 -0.0444 0.8475
vn -0.5607 0.0061 -0.8280
vn -0.6034 0.0337 0.7967
vn 0.9990 0.0430 -0.0115
vn 0.9940 -0.0408 -0.1015
vn 0.9310 -0.1186 -0.3453
vn -0.9627 -0.1559 -0.2211
vn -0.5226 -0.0358 -0.8518
vn -0.3048 0.1298 0.9435
vn 0.2085 0.1137 0.9714
vn 0.9981 -0.0510 -0.0335
vn -0.4529 -0.1761 -0.8740
vn -0.9763 0.1796 -0.1207
vn 0.4529 0.1761 -0.8740
vn -0.5518 -0.1431 0.8216
vn 0.5518 0.1431 0.8216
vn 0.9763 -0.1796 -0.1207
vn 0.6495 -0.0955 -0.7543
vn -0.9805 -0.1034 -0.1669
vn 0.3517 0.1008 -0.9307
vn -0.9805 0.1034 0.1669
vn 0.3517 -0.1008 0.9307
vn 0.6495 0.0955 0.7543
vn -0.8246 -0.2028 -0.5282
vn -0.9220 0.1152 0.3696
vn 0.1905 0.1598 -0.9686
vn 0.0813 -0.1729 0.9816
vn 0.7640 0.2023 0.6127
vn 0.8844 -0.1347 -0.4468
vn 0.2557 -0.0769 -0.9637
vn -0.9386 -0.0801 0.3356
vn 0.0539 0.0633 -0.9965
vn -0.8438 0.0920 0.5287
vn 0.7905 -0.0594 0.6096
vn 0.8823 0.0665 0.4660
vn -0.3048 -0.1298 -0.9435
vn -0.9627 0.1559 0.2211
vn 0.2085 -0.1137 -0.9714
vn -0.5226 0.0358 0.8518
vn 0.9310 0.1186 0.3453
vn 0.9981 0.0510 0.0335
vn 0.5290 -0.0444 -0.8475
vn -0.9990 0.0430 0.0115
vn 0.6034 0.0337 -0.7967
vn -0.9940 -0.0408 0.1015
vn 0.4560 -0.0137 0.8899
vn 0.5607 0.0061 0.8280
vn -0.2085 0.1137 -0.9714
vn -0.9310 -0.1186 0.3453
vn 0.3048 0.1298 -0.9435
vn -0.9981 -0.0510 0.0335
vn 0.5226 -0.0358 0.8518
vn 0.9627 -0.1559 0.2211
vn 0.5518 -0.1431 -0.8216
vn -0.9763 -0.1796 0.1207
vn -0.5518 0.1431 -0.8216
vn -0.4529 0.1761 0.8740
vn 0.4529 -0.1761 0.8740
vn 0.9763 0.1796 0.1207
vn -0.1084 -0.0359 -0.9935
vn -0.8997 -0.0068 0.4365
vn -0.0140 0.0429 -0.9990
vn -0.8409 0.0146 0.5409
vn 0.8699 -0.0418 0.4915
vn 0.8194 0.0431 0.5716
vn -0.2183 -0.0018 -0.9759
vn -0.9769 -0.0074 0.2135
vn -0.7289 0.0231 -0.6843
vn -0.6810 0.0211 0.7319
vn 0.3910 -0.0047 0.9204
vn 0.7300 0.0183 0.6832
vn -0.6682 0.7440 -0.0000
vn 0.9179 -0.0002 -0.3967
vn 0.6827 0.0184 -0.7304
vn -0.0003 1.0000 -0.0000
vn 0.1291 -0.0003 -0.9916
vn -0.8782 0.0169 -0.4780
vn 0.4789 0.0198 -0.8776
vn -0.9916 -0.0011 -0.1294
vn -0.5725 0.0174 0.8197
vn -0.1299 -0.0032 0.9915
vn 0.8183 0.0236 0.5742
vn 0.9918 -0.0027 0.1281
vn -0.4135 0.6095 -0.6764
vn -0.7068 -0.6863 -0.1719
vn 0.1177 -0.6485 -0.7521
vn -0.7084 0.5200 0.4772
vn -0.2319 -0.5559 0.7983
vn 0.4953 -0.0817 0.8649
vn 0.7066 -0.1272 0.6961
vn 0.7320 0.4338 -0.5254
vn 0.8680 -0.4856 0.1034
vn 0.2559 -0.1512 -0.9548
vn -0.8920 -0.1565 0.4242
vn -0.8919 0.1565 -0.4242
vn 0.2559 0.1512 0.9548
vn 0.8076 -0.1722 0.5641
vn 0.8076 0.1722 -0.5641
vn -0.5606 -0.1411 -0.8160
vn -0.9806 -0.1304 -0.1462
vn 0.5606 0.1411 -0.8160
vn -0.6781 -0.5172 0.5222
vn 0.9806 0.1304 -0.1462
vn 0.6781 0.5172 0.5222
vn -0.6101 -0.1112 -0.7845
vn -0.9425 0.2100 0.2599
vn 0.3973 0.1463 -0.9060
vn -0.5035 -0.1806 0.8449
vn 0.5594 0.1444 0.8162
vn 0.9790 -0.1952 0.0581
vn -0.3973 -0.1463 -0.9060
vn -0.9791 0.1952 0.0581
vn 0.6101 0.1112 -0.7845
vn -0.5594 -0.1445 0.8162
vn 0.5035 0.1806 0.8449
vn 0.9425 -0.2101 0.2599
vn 0.8920 -0.1565 -0.4242
vn -0.8076 -0.1722 -0.5641
vn -0.2559 0.1512 -0.9548
vn -0.8076 0.1722 0.5641
vn -0.2559 -0.1512 0.9548
vn 0.8919 0.1565 0.4242
vn 0.1686 -0.1225 -0.9780
vn -0.9142 -0.1125 0.3895
vn -0.3190 0.1132 -0.9410
vn -0.8051 0.1065 0.5834
vn 0.6697 -0.1307 0.7311
vn 0.9345 0.1236 0.3339
vn 0.8562 -0.3240 -0.4025
vn -0.6873 0.0418 -0.7251
vn -0.8562 0.3240 -0.4025
vn -0.4917 0.0645 0.8684
vn 0.4917 -0.0645 0.8684
vn 0.6873 -0.0418 -0.7251
vn 0.5981 -0.1098 -0.7939
vn -0.9433 -0.1295 -0.3056
vn 0.4026 0.1036 -0.9095
vn -0.9790 0.1270 0.1592
vn 0.3597 -0.1261 0.9245
vn 0.7525 0.1126 0.6489
vn -0.3967 -0.1197 -0.9101
vn -0.9664 0.2357 0.1030
vn 0.3967 0.1197 -0.9101
vn -0.6612 -0.1333 0.7382
vn 0.6612 0.1333 0.7382
vn 0.9664 -0.2357 0.1030
vn -0.8919 -0.1565 0.4242
vn -0.1792 0.6441 -0.7437
vn -0.6640 0.7229 0.1912
vn -0.7143 -0.5722 -0.4030
vn -0.3179 -0.7171 0.6203
vn 0.2281 0.7546 0.6152
vn 0.6674 -0.6838 0.2948
vn 0.8534 0.4501 -0.2628
vn 0.4072 -0.6011 -0.6876
vn 0.2556 -0.0729 -0.9640
vn -0.9424 -0.0580 -0.3294
vn -0.5035 0.0884 -0.8595
vn -0.8667 0.1106 0.4863
vn -0.4351 -0.0662 0.8980
vn 0.4583 0.0582 0.8869
vn 0.9147 -0.1046 0.3903
vn 0.8675 0.0323 -0.4964
vn -1.0000 -0.0000 -0.0000
vn 1.0000 -0.0000 -0.0000
vn 0.0048 -0.6874 0.7262
vn 0.0217 -0.1154 -0.9931
vn 0.0069 -0.7438 0.6684
vn 0.0045 -0.3350 -0.9422
vn -0.0042 0.9845 0.1754
vn 0.0117 0.9003 0.4351
vn 0.4691 0.8404 0.2714
vn 0.6453 -0.5819 0.4950
vn -0.5783 0.1547 0.8010
vn -0.3962 -0.8766 -0.2730
vn 0.5214 -0.2167 -0.8253
vn -0.7642 0.4247 -0.4854
vn 0.2609 0.0104 0.9653
vn 0.1580 -0.8497 0.5030
vn 0.1359 0.8924 0.4303
vn 0.0397 -0.9949 -0.0925
vn 0.1251 -0.1426 -0.9818
vn -0.0301 0.0607 -0.9977
vn 0.0941 0.9662 -0.2399
vn -0.5773 -0.5773 -0.5774
vn -0.5773 0.5774 -0.5773
vn 0.5773 0.5773 -0.5774
vn 0.5774 -0.5773 -0.5773
vn -0.5773 -0.5773 0.5774
vn 0.5773 -0.5774 0.5773
vn 0.5773 0.5773 0.5774
vn -0.5774 0.5773 0.5773
vn 0.3365 -0.9397 -0.0614
vn 0.5907 -0.8018 0.0909
vn -0.7116 -0.6905 0.1298
vn 0.8921 0.4406 -0.0999
vn 0.6572 0.7521 0.0491
vn -0.4904 0.8436 -0.2186
vn -0.7732 0.6255 -0.1040
vn -0.1535 -0.9826 -0.1045
vn -0.9275 0.3590 0.1042
vn 0.1535 -0.9826 0.1045
vn 0.9275 0.3590 -0.1042
vn 0.7732 0.6256 0.1040
vn 0.1358 0.8924 0.4303
vn 0.1534 -0.9826 0.1045
vn 0.5512 -0.0629 -0.8320
vn -0.8266 -0.0821 -0.5567
vn -0.4727 0.0653 -0.8788
vn -0.8821 0.0818 0.4638
vn -0.5512 -0.0629 0.8320
vn 0.4727 0.0653 0.8788
vn 0.8266 -0.0821 0.5567
vn 0.8821 0.0818 -0.4638
vn -0.0088 0.5467 0.8373
vn 0.0235 -0.8428 0.5377
vn 0.0328 0.9397 0.3404
vn -0.0096 -0.9997 -0.0229
vn 0.0204 -0.1761 -0.9842
vn -0.0081 0.5222 -0.8528
vn 0.4009 -0.4938 0.7716
vn -0.2333 -0.9289 0.2876
vn -0.4009 0.4938 0.7717
vn -0.4009 -0.4938 -0.7717
vn 0.2332 -0.9289 -0.2876
vn 0.4009 0.4938 -0.7717
vn -0.2333 0.9289 -0.2876
vn 0.2332 0.9289 0.2876
vn -0.0303 0.2482 0.9682
vn -0.0467 -0.9714 -0.2327
vn -0.0486 -0.4481 0.8927
vn 0.0282 -0.5492 -0.8352
vn 0.0593 0.7490 -0.6599
vn 0.0535 0.9969 0.0580
vn 0.3365 -0.9397 -0.0613
vn 0.6572 0.7521 0.0490
vn -0.4905 0.8436 -0.2186
vn 0.6572 -0.7521 -0.0490
vn 0.8921 -0.4406 0.0999
vn -0.4904 -0.8436 0.2186
vn 0.5907 0.8018 -0.0909
vn 0.3365 0.9397 0.0614
vn -0.7117 0.6904 -0.1298
vn -0.8921 -0.4406 -0.0999
vn 0.4905 -0.8436 -0.2186
vn -0.6572 -0.7521 0.0491
vn -0.3365 0.9397 -0.0614
vn -0.5907 0.8018 0.0909
vn 0.7116 0.6905 0.1298
vn -0.5773 -0.5774 -0.5773
vn 0.5773 0.5774 0.5773
vn -0.7041 -0.7101 -0.0000
vn 0.7041 0.7101 -0.0000
vn 0.3765 -0.3686 0.8499
vn 0.5786 -0.5444 -0.6074
vn 0.2235 -0.2154 0.9506
vn 0.2736 -0.3179 -0.9078
vn -0.6477 0.6815 -0.3408
vn -0.7128 0.6972 0.0760
vn -0.0000 -0.0000 -1.0000
vn -0.0000 -0.0000 1.0000
vt 0.500000 0.500000
s 1
f 1/1/1 2/1/1 3/1/1
f 4/1/2 5/1/2 6/1/2
f 33/1/3 7/1/4 31/1/5
f 4/1/2 6/1/2 8/1/2
f 33/1/3 9/1/6 7/1/4
f 4/1/2 8/1/2 11/1/2
f 1/1/1 12/1/1 10/1/1
f 4/1/2 11/1/2 13/1/2
f 1/1/1 14/1/1 12/1/1
f 9/1/6 15/1/7 7/1/4
f 9/1/6 16/1/8 15/1/7
f 1/1/1 17/1/1 14/1/1
f 4/1/2 18/1/2 19/1/2
f 1/1/1 20/1/1 17/1/1
f 4/1/2 19/1/2 21/1/2
f 1/1/1 22/1/1 20/1/1
f 16/1/8 23/1/9 15/1/7
f 4/1/2 21/1/2 24/1/2
f 16/1/8 25/1/10 23/1/9
f 1/1/1 26/1/1 22/1/1
f 4/1/2 24/1/2 27/1/2
f 1/1/1 28/1/1 26/1/1
f 4/1/2 27/1/2 29/1/2
f 1/1/1 30/1/1 28/1/1
f 25/1/10 31/1/5 23/1/9
f 4/1/2 29/1/2 32/1/2
f 25/1/10 33/1/3 31/1/5
f 1/1/1 34/1/1 30/1/1
f 4/1/2 32/1/2 35/1/2
f 1/1/1 3/1/1 34/1/1
f 4/1/2 35/1/2 5/1/2
f 36/1/11 41/1/12 37/1/13
f 41/1/12 42/1/14 37/1/13
f 41/1/12 44/1/15 42/1/14
f 44/1/15 45/1/16 42/1/14
f 38/1/1 46/1/1 43/1/1
f 44/1/15 36/1/11 45/1/16
f 36/1/11 37/1/13 45/1/16
f 39/1/2 47/1/2 40/1/2
f 57/1/17 48/1/18 54/1/19
f 48/1/18 49/1/20 54/1/19
f 48/1/18 52/1/21 49/1/20
f 52/1/21 53/1/22 49/1/20
f 52/1/21 54/1/19 53/1/22
f 52/1/21 57/1/17 54/1/19
f 58/1/23 59/1/24 60/1/25
f 59/1/24 65/1/26 60/1/25
f 65/1/26 67/1/27 60/1/25
f 61/1/1 66/1/1 62/1/1
f 63/1/2 64/1/2 67/1/2
f 65/1/26 68/1/28 67/1/27
f 61/1/1 69/1/1 66/1/1
f 63/1/2 67/1/2 70/1/2
f 65/1/26 58/1/23 68/1/28
f 58/1/23 60/1/25 68/1/28
f 71/1/29 75/1/30 72/1/31
f 75/1/30 76/1/32 72/1/31
f 75/1/30 79/1/33 76/1/32
f 75/1/30 80/1/34 79/1/33
f 80/1/34 71/1/29 79/1/33
f 71/1/29 72/1/31 79/1/33
f 81/1/35 82/1/36 83/1/37
f 84/1/1 85/1/1 86/1/1
f 82/1/36 89/1/38 83/1/37
f 82/1/36 84/1/39 89/1/38
f 87/1/2 88/1/2 90/1/2
f 84/1/39 81/1/35 89/1/38
f 81/1/35 91/1/40 89/1/38
f 87/1/2 90/1/2 93/1/2
f 81/1/35 83/1/37 91/1/40
f 84/1/1 86/1/1 92/1/1
f 94/1/41 96/1/42 95/1/43
f 94/1/41 99/1/44 96/1/42
f 99/1/44 100/1/45 96/1/42
f 99/1/44 103/1/46 100/1/45
f 103/1/46 95/1/43 100/1/45
f 103/1/46 94/1/41 95/1/43
f 104/1/47 105/1/48 106/1/49
f 105/1/48 107/1/50 106/1/49
f 110/1/2 111/1/2 112/1/2
f 105/1/48 113/1/51 107/1/50
f 113/1/51 114/1/52 107/1/50
f 108/1/1 115/1/1 109/1/1
f 113/1/51 104/1/47 114/1/52
f 104/1/47 106/1/49 114/1/52
f 116/1/53 122/1/54 117/1/55
f 116/1/53 123/1/56 122/1/54
f 123/1/56 124/1/57 122/1/54
f 123/1/56 125/1/58 124/1/57
f 125/1/58 117/1/55 124/1/57
f 125/1/58 116/1/53 117/1/55
f 126/1/47 127/1/48 128/1/49
f 127/1/48 129/1/50 128/1/49
f 127/1/48 134/1/51 129/1/50
f 134/1/51 135/1/52 129/1/50
f 130/1/1 136/1/1 131/1/1
f 132/1/2 133/1/2 137/1/2
f 134/1/51 126/1/47 135/1/52
f 126/1/47 128/1/49 135/1/52
f 138/1/59 143/1/60 139/1/61
f 143/1/60 144/1/62 139/1/61
f 143/1/60 146/1/63 144/1/62
f 146/1/63 147/1/64 144/1/62
f 146/1/63 138/1/59 147/1/64
f 138/1/59 139/1/61 147/1/64
f 148/1/65 150/1/66 149/1/67
f 151/1/1 152/1/1 153/1/1
f 154/1/2 149/1/2 155/1/2
f 148/1/65 156/1/68 150/1/66
f 156/1/68 157/1/69 150/1/66
f 156/1/68 158/1/70 157/1/69
f 158/1/70 148/1/65 157/1/69
f 148/1/65 149/1/67 157/1/69
f 151/1/1 153/1/1 159/1/1
f 154/1/2 160/1/2 149/1/2
f 161/1/71 162/1/72 170/1/73
f 161/1/71 167/1/74 162/1/72
f 167/1/74 168/1/75 162/1/72
f 168/1/75 169/1/76 162/1/72
f 168/1/75 161/1/71 169/1/76
f 161/1/71 170/1/73 169/1/76
f 176/1/77 171/1/78 172/1/79
f 171/1/78 173/1/80 172/1/79
f 174/1/1 175/1/1 176/1/1
f 171/1/78 179/1/81 173/1/80
f 177/1/2 178/1/2 180/1/2
f 171/1/78 181/1/82 179/1/81
f 177/1/2 180/1/2 183/1/2
f 181/1/82 172/1/79 179/1/81
f 181/1/82 176/1/77 172/1/79
f 174/1/1 176/1/1 182/1/1
f 184/1/83 190/1/84 185/1/85
f 190/1/84 191/1/86 185/1/85
f 190/1/84 192/1/87 191/1/86
f 192/1/87 193/1/88 191/1/86
f 192/1/87 184/1/83 193/1/88
f 184/1/83 185/1/85 193/1/88
f 194/1/11 199/1/12 195/1/13
f 199/1/12 200/1/14 195/1/13
f 199/1/12 202/1/15 200/1/14
f 202/1/15 203/1/16 200/1/14
f 196/1/1 204/1/1 201/1/1
f 202/1/15 194/1/11 203/1/16
f 194/1/11 195/1/13 203/1/16
f 197/1/2 205/1/2 198/1/2
f 206/1/89 209/1/90 214/1/91
f 209/1/90 210/1/92 214/1/91
f 209/1/90 211/1/93 210/1/92
f 211/1/93 212/1/94 210/1/92
f 211/1/93 214/1/91 212/1/94
f 211/1/93 206/1/89 214/1/91
f 216/1/95 221/1/96 217/1/97
f 218/1/1 224/1/1 222/1/1
f 221/1/96 225/1/98 217/1/97
f 220/1/2 223/1/2 226/1/2
f 218/1/1 227/1/1 224/1/1
f 220/1/2 226/1/2 250/1/2
f 218/1/1 228/1/1 227/1/1
f 221/1/96 229/1/99 225/1/98
f 229/1/99 230/1/100 225/1/98
f 220/1/2 250/1/2 253/1/2
f 218/1/1 231/1/1 228/1/1
f 218/1/1 232/1/1 231/1/1
f 220/1/101 253/1/2 233/1/2
f 229/1/99 234/1/102 230/1/100
f 218/1/1 235/1/1 232/1/1
f 234/1/102 236/1/103 230/1/100
f 218/1/1 237/1/1 235/1/1
f 220/1/101 233/1/2 238/1/2
f 220/1/101 238/1/2 239/1/104
f 218/1/1 240/1/1 237/1/1
f 234/1/102 216/1/95 236/1/103
f 216/1/95 217/1/97 236/1/103
f 218/1/1 219/1/1 240/1/1
f 261/1/105 243/1/106 260/1/107
f 261/1/105 244/1/108 243/1/106
f 220/1/1 246/1/1 245/1/1
f 244/1/108 247/1/109 243/1/106
f 244/1/108 249/1/110 247/1/109
f 220/1/1 250/1/1 246/1/1
f 241/1/2 248/1/2 251/1/2
f 249/1/110 252/1/111 247/1/109
f 241/1/2 251/1/2 254/1/2
f 249/1/110 255/1/112 252/1/111
f 241/1/2 254/1/2 256/1/2
f 220/1/101 257/1/1 253/1/1
f 241/1/2 256/1/2 258/1/2
f 220/1/101 259/1/1 257/1/1
f 255/1/112 260/1/107 252/1/111
f 255/1/112 261/1/105 260/1/107
f 220/1/101 239/1/104 259/1/1
f 241/1/2 258/1/2 262/1/2
f 241/1/2 262/1/2 242/1/2
f 263/1/113 268/1/114 293/1/115
f 264/1/1 269/1/1 265/1/1
f 264/1/1 270/1/1 269/1/1
f 263/1/113 272/1/116 268/1/114
f 264/1/1 273/1/1 270/1/1
f 266/1/2 271/1/2 274/1/2
f 266/1/2 274/1/2 275/1/2
f 272/1/116 276/1/117 268/1/114
f 266/1/2 275/1/2 278/1/2
f 272/1/116 279/1/118 276/1/117
f 279/1/118 280/1/119 276/1/117
f 266/1/2 278/1/2 281/1/2
f 264/1/1 282/1/1 277/1/1
f 264/1/1 283/1/1 282/1/1
f 266/1/2 281/1/2 284/1/2
f 264/1/1 285/1/1 283/1/1
f 266/1/2 284/1/2 286/1/2
f 279/1/118 287/1/120 280/1/119
f 287/1/120 288/1/121 280/1/119
f 266/1/2 286/1/2 289/1/2
f 264/1/1 290/1/1 285/1/1
f 264/1/1 291/1/1 290/1/1
f 266/1/2 289/1/2 292/1/2
f 287/1/120 293/1/115 288/1/121
f 264/1/1 294/1/1 291/1/1
f 266/1/2 292/1/2 295/1/2
f 287/1/120 263/1/113 293/1/115
f 264/1/1 265/1/1 294/1/1
f 266/1/2 295/1/2 267/1/2
f 296/1/47 297/1/48 298/1/49
f 297/1/48 299/1/50 298/1/49
f 297/1/48 304/1/51 299/1/50
f 304/1/51 305/1/52 299/1/50
f 300/1/1 306/1/1 301/1/1
f 302/1/2 303/1/2 307/1/2
f 304/1/51 296/1/47 305/1/52
f 296/1/47 298/1/49 305/1/52
f 308/1/122 314/1/123 309/1/124
f 314/1/123 315/1/125 309/1/124
f 314/1/123 316/1/126 315/1/125
f 316/1/126 317/1/127 315/1/125
f 316/1/126 308/1/122 317/1/127
f 308/1/122 309/1/124 317/1/127
f 318/1/128 320/1/129 319/1/130
f 318/1/128 325/1/131 320/1/129
f 321/1/1 326/1/1 322/1/1
f 323/1/2 324/1/2 327/1/2
f 328/1/132 319/1/130 325/1/133
f 321/1/1 329/1/1 326/1/1
f 323/1/2 327/1/2 330/1/2
f 328/1/132 318/1/128 319/1/130
f 331/1/134 335/1/135 332/1/136
f 331/1/134 336/1/137 335/1/135
f 336/1/137 337/1/138 335/1/135
f 336/1/137 339/1/139 337/1/138
f 339/1/139 332/1/136 337/1/138
f 339/1/139 331/1/134 332/1/136
f 341/1/128 343/1/129 342/1/130
f 341/1/128 348/1/131 343/1/129
f 344/1/1 349/1/1 345/1/1
f 346/1/2 347/1/2 350/1/2
f 351/1/132 342/1/130 348/1/133
f 344/1/1 352/1/1 349/1/1
f 346/1/2 350/1/2 353/1/2
f 351/1/132 341/1/128 342/1/130
f 354/1/140 355/1/141 363/1/142
f 354/1/140 359/1/143 355/1/141
f 359/1/143 360/1/144 355/1/141
f 359/1/143 361/1/145 360/1/144
f 361/1/145 363/1/142 360/1/144
f 361/1/145 354/1/140 363/1/142
f 364/1/11 370/1/12 365/1/13
f 370/1/12 371/1/14 365/1/13
f 370/1/12 372/1/15 371/1/14
f 372/1/15 373/1/16 371/1/14
f 372/1/15 364/1/11 373/1/16
f 364/1/11 365/1/13 373/1/16
f 366/1/1 367/1/1 374/1/1
f 368/1/2 375/1/2 369/1/2
f 383/1/146 376/1/147 377/1/148
f 376/1/147 380/1/149 377/1/148
f 376/1/147 381/1/150 380/1/149
f 381/1/150 382/1/151 380/1/149
f 381/1/150 383/1/146 382/1/151
f 383/1/146 377/1/148 382/1/151
f 386/1/11 391/1/12 387/1/13
f 391/1/12 392/1/14 387/1/13
f 391/1/12 394/1/15 392/1/14
f 394/1/15 395/1/16 392/1/14
f 390/1/2 393/1/2 397/1/2
f 394/1/15 386/1/11 395/1/16
f 386/1/11 387/1/13 395/1/16
f 388/1/1 389/1/1 396/1/1
f 407/1/152 401/1/153 398/1/154
f 401/1/153 402/1/155 398/1/154
f 401/1/153 404/1/156 402/1/155
f 404/1/156 405/1/157 402/1/155
f 404/1/156 407/1/152 405/1/157
f 407/1/152 398/1/154 405/1/157
f 418/1/158 408/1/159 409/1/160
f 408/1/159 414/1/161 409/1/160
f 414/1/161 415/1/162 409/1/160
f 410/1/1 416/1/1 411/1/1
f 412/1/2 413/1/2 417/1/2
f 414/1/161 418/1/158 415/1/162
f 410/1/1 419/1/1 416/1/1
f 412/1/2 417/1/2 420/1/2
f 418/1/158 421/1/163 415/1/162
f 418/1/158 409/1/160 421/1/163
f 422/1/164 423/1/165 424/1/166
f 423/1/165 425/1/167 424/1/166
f 423/1/165 429/1/168 425/1/167
f 429/1/168 431/1/169 425/1/167
f 429/1/168 422/1/164 431/1/169
f 422/1/164 424/1/166 431/1/169
f 442/1/158 432/1/159 433/1/160
f 432/1/159 438/1/161 433/1/160
f 438/1/161 439/1/162 433/1/160
f 434/1/1 440/1/1 435/1/1
f 436/1/2 437/1/2 441/1/2
f 438/1/161 442/1/158 439/1/162
f 434/1/1 443/1/1 440/1/1
f 436/1/2 441/1/2 444/1/2
f 442/1/158 445/1/163 439/1/162
f 442/1/158 433/1/160 445/1/163
f 446/1/170 448/1/171 447/1/172
f 446/1/170 451/1/173 448/1/171
f 451/1/173 453/1/174 448/1/171
f 451/1/173 454/1/175 453/1/174
f 454/1/175 447/1/172 453/1/174
f 454/1/175 446/1/170 447/1/172
f 456/1/47 457/1/48 458/1/49
f 457/1/48 459/1/50 458/1/49
f 460/1/1 461/1/1 462/1/1
f 463/1/2 464/1/2 465/1/2
f 457/1/48 466/1/51 459/1/50
f 466/1/51 467/1/52 459/1/50
f 466/1/51 456/1/47 467/1/52
f 456/1/47 458/1/49 467/1/52
f 468/1/122 472/1/176 469/1/124
f 472/1/176 475/1/125 469/1/124
f 472/1/176 476/1/126 475/1/125
f 476/1/126 477/1/127 475/1/125
f 476/1/126 468/1/122 477/1/127
f 468/1/122 469/1/124 477/1/127
f 480/1/1 483/1/1 481/1/1
f 482/1/2 484/1/2 485/1/2
f 478/1/177 486/1/178 479/1/179
f 486/1/178 487/1/180 479/1/179
f 480/1/1 489/1/1 488/1/1
f 482/1/2 485/1/2 490/1/2
f 486/1/178 491/1/181 487/1/180
f 480/1/1 492/1/1 489/1/1
f 482/1/2 490/1/2 493/1/2
f 491/1/181 494/1/182 487/1/180
f 480/1/1 495/1/1 492/1/1
f 482/1/2 493/1/2 496/1/2
f 491/1/181 497/1/183 494/1/182
f 497/1/183 498/1/184 494/1/182
f 482/1/2 496/1/2 499/1/2
f 480/1/1 500/1/1 495/1/1
f 482/1/2 499/1/2 501/1/2
f 480/1/1 481/1/1 500/1/1
f 497/1/183 478/1/177 498/1/184
f 478/1/177 479/1/179 498/1/184
f 526/1/185 507/1/186 502/1/187
f 503/1/1 508/1/1 504/1/1
f 503/1/1 510/1/1 508/1/1
f 507/1/186 511/1/188 502/1/187
f 505/1/2 509/1/2 512/1/2
f 503/1/1 513/1/1 510/1/1
f 507/1/186 514/1/189 511/1/188
f 505/1/2 512/1/2 515/1/2
f 514/1/189 516/1/190 511/1/188
f 505/1/2 515/1/2 517/1/2
f 514/1/189 519/1/191 516/1/190
f 503/1/1 520/1/1 518/1/1
f 505/1/2 517/1/2 521/1/2
f 505/1/2 521/1/2 522/1/2
f 519/1/191 523/1/192 516/1/190
f 503/1/1 524/1/1 520/1/1
f 505/1/2 522/1/2 525/1/2
f 519/1/191 526/1/185 523/1/192
f 503/1/1 527/1/1 524/1/1
f 503/1/1 528/1/1 527/1/1
f 505/1/2 525/1/2 506/1/2
f 526/1/185 502/1/187 523/1/192
f 503/1/1 504/1/1 528/1/1
f 531/1/193 535/1/193 532/1/193
f 533/1/194 534/1/194 536/1/194
f 531/1/193 537/1/193 535/1/193
f 529/1/195 538/1/196 530/1/197
f 533/1/194 536/1/194 539/1/194
f 529/1/195 540/1/198 538/1/196
f 531/1/193 541/1/193 537/1/193
f 531/1/193 542/1/193 541/1/193
f 533/1/194 539/1/194 543/1/194
f 531/1/193 544/1/193 542/1/193
f 540/1/198 545/1/199 538/1/196
f 531/1/193 546/1/193 544/1/193
f 545/1/199 547/1/200 538/1/196
f 545/1/199 529/1/195 547/1/200
f 529/1/195 530/1/197 547/1/200
f 533/1/194 548/1/194 534/1/194
f 561/1/201 553/1/202 564/1/203
f 553/1/202 554/1/204 564/1/203
f 553/1/202 555/1/205 554/1/204
f 549/1/193 558/1/193 556/1/193
f 551/1/194 557/1/194 559/1/194
f 555/1/205 560/1/206 554/1/204
f 555/1/205 561/1/201 560/1/206
f 549/1/193 562/1/193 558/1/193
f 551/1/194 559/1/194 563/1/194
f 561/1/201 564/1/203 560/1/206
f 549/1/193 565/1/193 562/1/193
f 551/1/194 563/1/194 566/1/194
f 549/1/193 550/1/193 565/1/193
f 551/1/194 566/1/194 552/1/194
f 587/1/207 567/1/208 582/1/209
f 587/1/207 572/1/210 567/1/208
f 568/1/193 573/1/193 569/1/193
f 570/1/194 571/1/194 574/1/194
f 572/1/210 575/1/211 567/1/208
f 572/1/210 576/1/212 575/1/211
f 568/1/193 579/1/193 577/1/193
f 570/1/194 578/1/194 580/1/194
f 576/1/212 581/1/213 575/1/211
f 581/1/213 582/1/209 575/1/211
f 568/1/193 583/1/193 579/1/193
f 570/1/194 580/1/194 584/1/194
f 568/1/193 585/1/193 583/1/193
f 570/1/194 584/1/194 586/1/194
f 581/1/213 587/1/207 582/1/209
f 568/1/193 588/1/193 585/1/193
f 570/1/194 586/1/194 589/1/194
f 568/1/193 569/1/193 588/1/193
f 570/1/194 589/1/194 571/1/194
f 596/1/214 590/1/215 595/1/216
f 596/1/214 595/1/216 591/1/217
f 593/1/218 597/1/219 592/1/220
f 593/1/218 592/1/220 594/1/221
f 596/1/214 593/1/218 594/1/221
f 596/1/214 594/1/221 590/1/215
f 591/1/217 595/1/216 592/1/220
f 591/1/217 592/1/220 597/1/219
f 596/1/214 591/1/217 597/1/219
f 596/1/214 597/1/219 593/1/218
f 590/1/215 594/1/221 592/1/220
f 590/1/215 592/1/220 595/1/216
f 599/1/222 600/1/223 598/1/224
f 599/1/222 605/1/225 600/1/223
f 605/1/225 606/1/226 600/1/223
f 605/1/225 598/1/227 606/1/226
f 607/1/228 608/1/229 609/1/230
f 608/1/229 610/1/231 609/1/230
f 608/1/229 615/1/232 610/1/231
f 615/1/232 616/1/233 610/1/231
f 615/1/232 607/1/228 616/1/233
f 607/1/228 609/1/230 616/1/233
f 637/1/207 617/1/208 633/1/234
f 618/1/193 619/1/193 638/1/193
f 620/1/194 639/1/194 621/1/194
f 637/1/207 622/1/210 617/1/208
f 618/1/193 623/1/193 619/1/193
f 620/1/194 621/1/194 624/1/194
f 618/1/193 625/1/193 623/1/193
f 622/1/210 626/1/211 617/1/208
f 622/1/210 627/1/212 626/1/211
f 618/1/193 628/1/193 625/1/193
f 618/1/193 630/1/193 628/1/193
f 620/1/194 629/1/194 631/1/194
f 627/1/212 632/1/213 626/1/211
f 632/1/213 633/1/234 626/1/211
f 618/1/193 634/1/193 630/1/193
f 620/1/194 631/1/194 635/1/194
f 620/1/194 635/1/194 636/1/194
f 632/1/213 637/1/207 633/1/234
f 620/1/194 636/1/194 639/1/194
f 640/1/214 641/1/215 643/1/216
f 640/1/214 643/1/216 645/1/217
f 642/1/218 646/1/219 644/1/220
f 642/1/218 644/1/220 647/1/221
f 640/1/214 642/1/218 647/1/221
f 640/1/214 647/1/221 641/1/215
f 645/1/217 643/1/216 644/1/220
f 645/1/217 644/1/220 646/1/219
f 640/1/214 645/1/217 646/1/219
f 640/1/214 646/1/219 642/1/218
f 641/1/215 647/1/221 644/1/220
f 641/1/215 644/1/220 643/1/216
f 649/1/222 650/1/223 648/1/224
f 649/1/222 655/1/225 650/1/223
f 655/1/225 656/1/226 650/1/223
f 655/1/225 648/1/227 656/1/226
f 657/1/228 658/1/229 659/1/230
f 658/1/229 660/1/235 659/1/230
f 658/1/229 665/1/232 660/1/235
f 665/1/232 666/1/233 660/1/235
f 665/1/232 657/1/228 666/1/233
f 657/1/228 659/1/230 666/1/233
f 668/1/1 669/1/1 670/1/1
f 690/1/236 672/1/237 667/1/238
f 668/1/1 674/1/1 669/1/1
f 668/1/1 675/1/1 674/1/1
f 672/1/237 676/1/239 667/1/238
f 671/1/2 673/1/2 677/1/2
f 672/1/237 678/1/240 676/1/239
f 668/1/1 679/1/1 675/1/1
f 671/1/2 677/1/2 680/1/2
f 678/1/240 681/1/241 676/1/239
f 671/1/2 680/1/2 683/1/2
f 678/1/240 684/1/242 681/1/241
f 671/1/2 683/1/2 685/1/2
f 668/1/1 686/1/1 682/1/1
f 684/1/242 687/1/243 681/1/241
f 668/1/1 688/1/1 686/1/1
f 671/1/2 685/1/2 689/1/2
f 684/1/242 690/1/236 687/1/243
f 668/1/1 691/1/1 688/1/1
f 671/1/2 689/1/2 692/1/2
f 668/1/1 670/1/1 691/1/1
f 690/1/236 667/1/238 687/1/243
f 710/1/244 693/1/245 706/1/246
f 710/1/244 698/1/247 693/1/245
f 694/1/193 699/1/193 695/1/193
f 694/1/193 700/1/193 699/1/193
f 698/1/247 701/1/248 693/1/245
f 698/1/247 704/1/249 701/1/248
f 696/1/194 702/1/194 705/1/194
f 704/1/249 706/1/246 701/1/248
f 694/1/193 707/1/193 703/1/193
f 696/1/194 705/1/194 708/1/194
f 694/1/193 709/1/193 707/1/193
f 704/1/249 710/1/244 706/1/246
f 696/1/194 708/1/194 711/1/194
f 694/1/193 712/1/193 709/1/193
f 694/1/193 695/1/193 712/1/193
f 696/1/194 711/1/194 697/1/194
f 713/1/250 717/1/251 728/1/252
f 713/1/250 718/1/253 717/1/251
f 713/1/250 719/1/254 718/1/253
f 719/1/254 722/1/255 718/1/253
f 714/1/193 723/1/193 720/1/193
f 716/1/194 721/1/194 724/1/194
f 722/1/255 725/1/256 718/1/253
f 714/1/193 726/1/193 723/1/193
f 716/1/194 724/1/194 727/1/194
f 722/1/255 728/1/252 725/1/256
f 722/1/255 729/1/257 728/1/252
f 714/1/193 730/1/193 726/1/193
f 716/1/194 727/1/194 731/1/194
f 729/1/257 713/1/250 728/1/252
f 714/1/193 715/1/193 730/1/193
f 736/1/194 753/1/194 737/1/194
f 732/1/258 738/1/259 733/1/260
f 734/1/193 739/1/193 735/1/193
f 736/1/194 737/1/194 740/1/194
f 738/1/259 741/1/261 733/1/260
f 734/1/193 742/1/193 739/1/193
f 734/1/193 743/1/193 742/1/193
f 738/1/259 745/1/262 741/1/261
f 734/1/193 746/1/193 743/1/193
f 736/1/194 744/1/194 747/1/194
f 745/1/262 748/1/263 741/1/261
f 734/1/193 749/1/193 746/1/193
f 736/1/194 747/1/194 750/1/194
f 736/1/194 750/1/194 751/1/194
f 745/1/262 732/1/258 748/1/263
f 736/1/194 751/1/194 753/1/194
f 732/1/258 733/1/260 748/1/263
f 734/1/193 735/1/193 752/1/193
f 755/1/214 754/1/215 758/1/216
f 755/1/214 758/1/216 757/1/217
f 761/1/218 760/1/219 759/1/220
f 761/1/218 759/1/220 756/1/221
f 755/1/214 761/1/218 756/1/221
f 755/1/214 756/1/221 754/1/215
f 757/1/217 758/1/216 759/1/220
f 757/1/217 759/1/220 760/1/219
f 755/1/214 757/1/217 760/1/219
f 755/1/214 760/1/219 761/1/218
f 754/1/215 756/1/221 759/1/220
f 754/1/215 759/1/220 758/1/216
f 763/1/264 764/1/223 762/1/224
f 763/1/264 769/1/225 764/1/223
f 769/1/225 770/1/265 764/1/223
f 769/1/225 762/1/266 770/1/265
f 772/1/267 773/1/268 771/1/269
f 772/1/267 778/1/270 773/1/268
f 778/1/270 779/1/271 773/1/268
f 778/1/270 771/1/272 779/1/271
f 780/1/258 786/1/259 781/1/260
f 782/1/193 787/1/193 783/1/193
f 784/1/194 785/1/194 788/1/194
f 786/1/259 789/1/261 781/1/260
f 784/1/194 788/1/194 790/1/194
f 784/1/194 790/1/194 792/1/194
f 782/1/193 793/1/193 791/1/193
f 784/1/194 792/1/194 794/1/194
f 786/1/259 795/1/262 789/1/261
f 795/1/262 796/1/263 789/1/261
f 782/1/193 797/1/193 793/1/193
f 784/1/194 794/1/194 798/1/194
f 782/1/193 799/1/193 797/1/193
f 795/1/262 780/1/258 796/1/263
f 782/1/193 800/1/193 799/1/193
f 780/1/258 781/1/260 796/1/263
f 782/1/193 783/1/193 800/1/193
f 784/1/194 801/1/194 785/1/194
f 807/1/214 804/1/215 809/1/216
f 807/1/214 809/1/216 802/1/217
f 808/1/218 806/1/219 805/1/220
f 808/1/218 805/1/220 803/1/221
f 807/1/214 808/1/218 803/1/221
f 807/1/214 803/1/221 804/1/215
f 802/1/217 809/1/216 805/1/220
f 802/1/217 805/1/220 806/1/219
f 807/1/214 802/1/217 806/1/219
f 807/1/214 806/1/219 808/1/218
f 804/1/215 803/1/221 805/1/220
f 804/1/215 805/1/220 809/1/216
f 811/1/222 812/1/223 810/1/224
f 811/1/222 817/1/225 812/1/223
f 817/1/225 818/1/226 812/1/223
f 817/1/225 810/1/266 818/1/226
f 819/1/273 823/1/274 820/1/275
f 826/1/276 827/1/277 823/1/278
f 826/1/276 819/1/273 827/1/277
f 819/1/273 820/1/275 827/1/277
f 832/1/279 834/1/215 835/1/216
f 832/1/279 835/1/216 828/1/217
f 833/1/218 831/1/219 830/1/280
f 833/1/218 830/1/280 829/1/221
f 832/1/279 833/1/218 829/1/221
f 832/1/279 829/1/221 834/1/215
f 828/1/217 835/1/216 830/1/280
f 828/1/217 830/1/280 831/1/219
f 832/1/279 828/1/217 831/1/219
f 832/1/279 831/1/219 833/1/218
f 834/1/215 829/1/221 830/1/280
f 834/1/215 830/1/280 835/1/216
f 841/1/279 838/1/215 836/1/216
f 841/1/279 836/1/216 842/1/217
f 843/1/218 840/1/219 839/1/280
f 843/1/218 839/1/280 837/1/221
f 841/1/279 843/1/218 837/1/221
f 841/1/279 837/1/221 838/1/215
f 842/1/217 836/1/216 839/1/280
f 842/1/217 839/1/280 840/1/219
f 841/1/279 842/1/217 840/1/219
f 841/1/279 840/1/219 843/1/218
f 838/1/215 837/1/221 839/1/280
f 838/1/215 839/1/280 836/1/216
f 845/1/281 846/1/281 859/1/281
f 847/1/282 857/1/282 848/1/282
f 845/1/281 849/1/281 846/1/281
f 858/1/283 850/1/284 844/1/285
f 858/1/283 851/1/286 850/1/284
f 851/1/286 852/1/287 850/1/284
f 851/1/286 855/1/288 852/1/287
f 845/1/281 856/1/281 853/1/281
f 847/1/282 854/1/282 857/1/282
f 855/1/288 858/1/283 852/1/287
f 858/1/283 844/1/285 852/1/287
f 845/1/281 859/1/281 856/1/281
f 948/1/2 949/1/2 950/1/2
f 948/1/2 950/1/2 951/1/2
f 968/1/193 969/1/193 970/1/193
f 968/1/193 970/1/193 971/1/193
f 988/1/1 989/1/1 990/1/1
f 988/1/1 990/1/1 991/1/1
f 1008/1/194 1009/1/194 1010/1/194
f 1008/1/194 1010/1/194 1011/1/194
f 1084/1/289 1088/1/289 1085/1/289
f 1086/1/290 1087/1/290 1089/1/290
f 1086/1/290 1089/1/290 1090/1/290
f 1084/1/289 1091/1/289 1088/1/289
f 1086/1/290 1090/1/290 1092/1/290
f 1086/1/290 1092/1/290 1093/1/290
f 1086/1/290 1093/1/290 1094/1/290
f 1086/1/290 1094/1/290 1095/1/290
l 50 55
l 97 101
l 140 145
l 186 187
l 611 612
l 765 766
l 821 824
l 860 861
l 864 865
l 868 869
l 872 873
l 876 877
l 880 881
l 884 885
l 888 889
l 892 893
l 896 897
l 900 901
l 904 905
l 908 909
l 912 913
l 916 917
l 920 921
l 924 925
l 928 929
l 932 933
l 936 937
l 940 941
l 944 945
l 954 955
l 958 959
l 962 963
l 966 967
l 972 973
l 976 977
l 980 981
l 984 985
l 994 995
l 998 999
l 1002 1003
l 1006 1007
l 1012 1013
l 1016 1017
l 1020 1021
l 1024 1025
l 1028 1029
l 1032 1033
l 1036 1037
l 1040 1041
l 1044 1045
l 1048 1049
l 1052 1053
l 1056 1057
l 1060 1061
l 1064 1065
l 1068 1069
l 1072 1073
l 1076 1077
l 1080 1081
l 312 313
l 358 362
l 400 403
l 450 452
l 603 604
l 663 664
l 814 816
l 333 338
l 378 384
l 426 428
l 470 473
l 774 775
l 51 56
l 98 102
l 141 142
l 188 189
l 613 614
l 767 768
l 822 825
l 73 77
l 118 119
l 163 164
l 207 213
l 651 652
l 862 863
l 866 867
l 870 871
l 874 875
l 878 879
l 882 883
l 886 887
l 890 891
l 894 895
l 898 899
l 902 903
l 906 907
l 910 911
l 914 915
l 918 919
l 922 923
l 926 927
l 930 931
l 934 935
l 938 939
l 942 943
l 946 947
l 952 953
l 956 957
l 960 961
l 964 965
l 974 975
l 978 979
l 982 983
l 986 987
l 992 993
l 996 997
l 1000 1001
l 1004 1005
l 1014 1015
l 1018 1019
l 1022 1023
l 1026 1027
l 1030 1031
l 1034 1035
l 1038 1039
l 1042 1043
l 1046 1047
l 1050 1051
l 1054 1055
l 1058 1059
l 1062 1063
l 1066 1067
l 1070 1071
l 1074 1075
l 1078 1079
l 1082 1083
l 334 340
l 379 385
l 427 430
l 471 474
l 776 777
l 310 311
l 356 357
l 399 406
l 449 455
l 601 602
l 661 662
l 813 815
l 74 78
l 120 121
l 165 166
l 208 215
l 653 654
