# Blender 4.5.0
# www.blender.org
mtllib onigiri.lod2.mtl
o Onigiri
v -0.198719 0.270292 -0.000000
v -0.262618 0.237709 -0.000000
v -0.283982 0.217333 -0.000000
v -0.299228 0.186418 -0.000000
v -0.300000 0.120802 -0.000000
v -0.272845 0.030758 -0.000000
v -0.200468 -0.112556 0.000000
v -0.122178 -0.217276 0.000000
v -0.075745 -0.261621 0.000000
v -0.027327 -0.285997 0.000000
v 0.002074 -0.290712 0.000000
v 0.032187 -0.284139 0.000000
v 0.077861 -0.259533 0.000000
v 0.119598 -0.219134 0.000000
v 0.202075 -0.108541 0.000000
v 0.268383 0.024174 -0.000000
v 0.298709 0.115813 -0.000000
v 0.300000 0.174615 -0.000000
v 0.289603 0.209600 -0.000000
v 0.268383 0.232191 -0.000000
v 0.232323 0.255890 -0.000000
v 0.143773 0.282565 -0.000000
v 0.073936 0.288889 -0.000000
v 0.034945 0.290712 -0.000000
v -0.074785 0.288823 -0.000000
v -0.097203 0.287047 -0.000000
vn -0.0000 -0.0000 1.0000
vn 0.4486 0.8937 -0.0000
vt 0.814093 0.075595
vt 0.915483 0.124661
vt 0.950000 0.155882
vt 0.971934 0.205382
vt 0.974068 0.308535
vt 0.930918 0.450717
vt 0.815464 0.676736
vt 0.694118 0.844118
vt 0.619436 0.912588
vt 0.544118 0.952941
vt 0.497621 0.958824
vt 0.450000 0.950000
vt 0.378509 0.910082
vt 0.311765 0.847059
vt 0.184203 0.670192
vt 0.076471 0.461765
vt 0.030882 0.316172
vt 0.026471 0.223529
vt 0.044247 0.168892
vt 0.076471 0.132353
vt 0.134162 0.096154
vt 0.273988 0.055316
vt 0.383939 0.042531
vt 0.445626 0.039668
vt 0.619156 0.042686
vt 0.654615 0.045600
s 1
f 1/1/1 2/2/1 3/3/1
f 1/1/1 3/3/1 4/4/1
f 1/1/1 4/4/1 5/5/1
f 1/1/1 5/5/1 6/6/1
f 1/1/1 6/6/1 7/7/1
f 1/1/1 7/7/1 8/8/1
f 1/1/1 8/8/1 9/9/1
f 1/1/1 9/9/1 10/10/1
f 1/1/1 10/10/1 11/11/1
f 1/1/1 11/11/1 12/12/1
f 1/1/1 12/12/1 13/13/1
f 1/1/1 13/13/1 14/14/1
f 1/1/1 14/14/1 15/15/1
f 1/1/1 15/15/1 16/16/1
f 1/1/1 16/16/1 17/17/1
f 1/1/1 17/17/1 18/18/1
f 1/1/1 18/18/1 19/19/1
f 1/1/1 19/19/1 20/20/1
f 1/1/1 20/20/1 21/21/1
f 1/1/1 21/21/1 22/22/1
f 1/1/1 22/22/1 23/23/1
f 1/1/1 23/23/1 24/24/1
f 1/1/1 24/24/1 25/25/2
f 1/1/1 25/25/2 26/26/1
