# Blender 4.5.0
# www.blender.org
mtllib signal.lod2.mtl
o body
v -0.130319 0.008000 -0.169528
v -0.169528 0.036000 -0.130319
v -0.148165 0.008000 -0.148165
v -0.186950 0.036000 -0.077437
v 0.000000 0.036000 -0.209537
v -0.169528 0.008000 0.130319
v -0.186950 0.008000 0.077437
v -0.130319 0.036000 0.169528
v -0.148165 0.036000 0.148165
v -0.075566 0.008000 0.182433
v 0.130319 0.008000 0.169528
v 0.077437 0.008000 0.186950
v 0.057944 0.036000 0.191015
v 0.169528 0.036000 0.130319
v 0.176041 0.036000 0.094096
v 0.209537 0.008000 0.000000
v 0.151916 0.022000 -0.151916
v 0.186950 0.036000 -0.077437
v 0.077437 0.008000 -0.186950
v 0.131446 0.043500 0.044860
v 0.128328 0.036000 0.057460
v 0.128328 0.051000 0.057460
v 0.131446 0.043500 0.070060
v 0.153270 0.043500 0.057460
v 0.153270 0.036000 0.057460
v 0.153270 0.051000 0.057460
v 0.130551 0.054750 0.058069
v 0.138720 0.051000 0.065770
v 0.138720 0.051000 0.049513
v 0.138720 0.061000 0.065770
v 0.138720 0.061000 0.049513
v 0.143535 0.055286 0.063528
v 0.140629 0.057667 0.049520
v 0.050185 0.043500 0.126121
v 0.047068 0.036000 0.138720
v 0.047068 0.051000 0.138720
v 0.050185 0.043500 0.151320
v 0.072009 0.043500 0.138720
v 0.072009 0.036000 0.138720
v 0.072009 0.051000 0.138720
v 0.057460 0.056000 0.130410
v 0.057460 0.051000 0.130773
v 0.057460 0.061000 0.130773
v 0.051392 0.055286 0.143535
v 0.057460 0.051000 0.147031
v 0.057460 0.061000 0.147031
v 0.063528 0.056714 0.143535
v -0.050185 0.043500 0.126120
v -0.072009 0.043500 0.138721
v -0.047068 0.036000 0.138720
v -0.072009 0.036000 0.138720
v -0.047068 0.051000 0.138720
v -0.072009 0.051000 0.138720
v -0.050185 0.043500 0.151320
v -0.062275 0.055286 0.132653
v -0.057460 0.051000 0.130773
v -0.057460 0.061000 0.147031
v -0.062808 0.056000 0.144069
v -0.057460 0.051000 0.147031
v -0.049161 0.056455 0.139873
v -0.057460 0.061000 0.130773
v -0.131446 0.043500 0.044860
v -0.153270 0.043500 0.057460
v -0.128328 0.036000 0.057460
v -0.153270 0.036000 0.057460
v -0.128328 0.051000 0.057460
v -0.153270 0.051000 0.057460
v -0.131446 0.043500 0.070060
v -0.143535 0.055286 0.051392
v -0.138720 0.051000 0.065770
v -0.138720 0.051000 0.049513
v -0.138720 0.061000 0.065770
v -0.144069 0.056000 0.062808
v -0.130422 0.056455 0.058612
v -0.138720 0.061000 0.049513
v -0.131446 0.043500 -0.070060
v -0.153270 0.043500 -0.057460
v -0.128328 0.036000 -0.057460
v -0.153270 0.036000 -0.057460
v -0.128328 0.051000 -0.057460
v -0.153270 0.051000 -0.057460
v -0.131446 0.043500 -0.044860
v -0.144069 0.056000 -0.062808
v -0.138720 0.051000 -0.065407
v -0.138720 0.061000 -0.049150
v -0.139873 0.056455 -0.049161
v -0.138720 0.051000 -0.049150
v -0.132653 0.055286 -0.062275
v -0.138720 0.061000 -0.065407
v -0.050185 0.043500 -0.151320
v -0.072009 0.043500 -0.138721
v -0.047068 0.036000 -0.138720
v -0.072009 0.036000 -0.138720
v -0.047068 0.051000 -0.138720
v -0.072009 0.051000 -0.138720
v -0.050185 0.043500 -0.126120
v -0.063528 0.056714 -0.143535
v -0.057460 0.051000 -0.130773
v -0.057460 0.051000 -0.147031
v -0.057460 0.061000 -0.130773
v -0.057460 0.056000 -0.130410
v -0.051392 0.055286 -0.143535
v -0.057460 0.061000 -0.147031
v 0.050185 0.043500 -0.151320
v 0.047068 0.036000 -0.138720
v 0.047068 0.051000 -0.138720
v 0.050185 0.043500 -0.126121
v 0.072009 0.043500 -0.138720
v 0.072009 0.036000 -0.138720
v 0.072009 0.051000 -0.138720
v 0.049161 0.056455 -0.139873
v 0.057460 0.051000 -0.130773
v 0.057460 0.051000 -0.147031
v 0.057460 0.061000 -0.130773
v 0.057460 0.061000 -0.147031
v 0.062275 0.055286 -0.132653
v 0.062808 0.056000 -0.144069
v 0.131446 0.043500 -0.070060
v 0.128328 0.036000 -0.057460
v 0.128328 0.051000 -0.057460
v 0.131446 0.043500 -0.044860
v 0.153270 0.043500 -0.057460
v 0.153270 0.036000 -0.057460
v 0.153270 0.051000 -0.057460
v 0.130551 0.054750 -0.056851
v 0.138720 0.051000 -0.049150
v 0.138720 0.051000 -0.065407
v 0.138720 0.061000 -0.065407
v 0.138720 0.061000 -0.049150
v 0.143535 0.055286 -0.051392
v 0.140629 0.057667 -0.065400
v -0.104631 0.035920 0.006853
v -0.067153 3.199936 -0.051524
v -0.090604 0.036000 -0.008924
v -0.073563 3.200000 -0.022316
v -0.008924 0.036000 0.090604
v -0.020514 3.200000 0.067624
v 0.024672 3.199991 0.072790
v 0.053404 0.035998 0.069320
v 0.073563 3.200000 0.022315
v 0.090604 0.036000 0.008924
v 0.075511 0.035989 -0.057996
v 0.066932 3.199999 -0.022577
v 0.008924 0.036000 -0.090604
v 0.020514 3.200000 -0.067624
v -0.080152 3.199941 -0.027213
v -0.020514 3.200000 -0.067624
v -0.036185 6.420000 -0.044092
v -0.073563 3.200000 0.022315
v -0.044091 6.420000 0.036184
v -0.014809 6.419997 0.055063
v 0.032555 3.199996 0.065861
v 0.020514 3.200000 0.067624
v 0.036185 6.420000 0.044091
v 0.055064 6.419997 0.014808
v 0.073563 3.200000 -0.022316
v 0.065862 3.199996 -0.032555
v 0.044091 6.420000 -0.036185
v -0.032851 6.419954 -0.056892
v -0.059728 3.240000 -0.068162
v -0.060026 3.170000 -0.060026
v -0.054973 3.240000 -0.066985
v -0.098147 3.170000 0.006432
v -0.066985 3.170000 0.054973
v -0.075739 3.240000 0.031372
v -0.052796 3.240000 0.068680
v 0.000000 3.240000 0.084889
v 0.068162 3.170000 0.059727
v 0.047162 3.170000 0.070583
v 0.098147 3.240000 0.006432
v 0.075739 3.240000 0.031372
v 0.070067 3.170000 -0.057503
v 0.060026 3.240000 -0.060026
v 0.043248 3.170000 -0.075060
v 0.051447 0.851710 -0.084023
v 0.054731 0.860117 -0.075024
v 0.050471 0.856662 -0.084022
v 0.053692 0.865385 -0.075024
v 0.048545 0.861328 -0.084022
v 0.051644 0.870349 -0.075023
v 0.045745 0.865529 -0.084021
v 0.048665 0.874818 -0.075022
v 0.042178 0.869103 -0.084021
v 0.044870 0.878620 -0.075022
v 0.037981 0.871911 -0.084020
v 0.040405 0.881607 -0.075022
v 0.033316 0.873844 -0.084020
v 0.035443 0.883664 -0.075021
v 0.028364 0.874830 -0.084021
v 0.030174 0.884713 -0.075022
v 0.026675 0.880050 -0.079500
v -0.026675 0.880050 -0.079500
v -0.028364 0.874829 -0.084020
v -0.030174 0.884712 -0.075021
v -0.033317 0.873845 -0.084021
v -0.035443 0.883665 -0.075022
v -0.037981 0.871911 -0.084021
v -0.040406 0.881607 -0.075022
v -0.042178 0.869103 -0.084021
v -0.044870 0.878620 -0.075022
v -0.045745 0.865529 -0.084021
v -0.048665 0.874818 -0.075022
v -0.048545 0.861328 -0.084021
v -0.051644 0.870349 -0.075023
v -0.050470 0.856662 -0.084022
v -0.053692 0.865385 -0.075023
v -0.051447 0.851710 -0.084023
v -0.054731 0.860117 -0.075024
v -0.053350 0.853375 -0.079500
v -0.053350 0.586625 -0.079500
v -0.051447 0.588290 -0.084023
v -0.054731 0.579883 -0.075024
v -0.050471 0.583338 -0.084022
v -0.053692 0.574615 -0.075024
v -0.048545 0.578672 -0.084022
v -0.051644 0.569651 -0.075023
v -0.045745 0.574471 -0.084021
v -0.048665 0.565182 -0.075022
v -0.042178 0.570897 -0.084021
v -0.044870 0.561380 -0.075022
v -0.037981 0.568089 -0.084020
v -0.040405 0.558393 -0.075021
v -0.033316 0.566156 -0.084020
v -0.035443 0.556336 -0.075021
v -0.028364 0.565170 -0.084021
v -0.030174 0.555287 -0.075022
v -0.026675 0.559950 -0.079500
v 0.026675 0.559950 -0.079500
v 0.028364 0.565171 -0.084020
v 0.030174 0.555288 -0.075021
v 0.033317 0.566155 -0.084021
v 0.035443 0.556335 -0.075022
v 0.037981 0.568089 -0.084021
v 0.040406 0.558393 -0.075022
v 0.042178 0.570897 -0.084021
v 0.044870 0.561380 -0.075022
v 0.045745 0.574471 -0.084021
v 0.048665 0.565182 -0.075022
v 0.048545 0.578672 -0.084021
v 0.051644 0.569651 -0.075023
v 0.050470 0.583338 -0.084022
v 0.053692 0.574615 -0.075023
v 0.051447 0.588290 -0.084023
v 0.054731 0.579883 -0.075024
v 0.053350 0.586625 -0.079500
v 0.053350 0.853375 -0.079500
v 0.054736 0.860183 -0.075000
v 0.054736 0.860183 -0.018000
v 0.053689 0.865444 -0.075000
v 0.053689 0.865444 -0.018000
v 0.051636 0.870401 -0.075000
v 0.051636 0.870401 -0.018000
v 0.048655 0.874862 -0.075000
v 0.048655 0.874862 -0.018000
v 0.044862 0.878655 -0.075000
v 0.044862 0.878655 -0.018000
v 0.040401 0.881636 -0.075000
v 0.040401 0.881636 -0.018000
v 0.035444 0.883689 -0.075000
v 0.035444 0.883689 -0.018000
v 0.030183 0.884736 -0.075000
v 0.030183 0.884736 -0.018000
v 0.000000 0.885000 -0.075000
v 0.000000 0.885000 -0.018000
v -0.030183 0.884736 -0.075000
v -0.030183 0.884736 -0.018000
v -0.035444 0.883689 -0.075000
v -0.035444 0.883689 -0.018000
v -0.040401 0.881636 -0.075000
v -0.040401 0.881636 -0.018000
v -0.044862 0.878655 -0.075000
v -0.044862 0.878655 -0.018000
v -0.048655 0.874862 -0.075000
v -0.048655 0.874862 -0.018000
v -0.051636 0.870401 -0.075000
v -0.051636 0.870401 -0.018000
v -0.053689 0.865444 -0.075000
v -0.053689 0.865444 -0.018000
v -0.054736 0.860183 -0.075000
v -0.054736 0.860183 -0.018000
v -0.055000 0.857500 -0.046500
v -0.055000 0.582500 -0.046500
v -0.054736 0.579818 -0.075000
v -0.054736 0.579818 -0.018000
v -0.053689 0.574556 -0.075000
v -0.053689 0.574556 -0.018000
v -0.051636 0.569599 -0.075000
v -0.051636 0.569599 -0.018000
v -0.048655 0.565138 -0.075000
v -0.048655 0.565138 -0.018000
v -0.044862 0.561345 -0.075000
v -0.044862 0.561345 -0.018000
v -0.040401 0.558364 -0.075000
v -0.040401 0.558364 -0.018000
v -0.035444 0.556311 -0.075000
v -0.035444 0.556311 -0.018000
v -0.030182 0.555264 -0.075000
v -0.030182 0.555264 -0.018000
v 0.000000 0.555000 -0.075000
v 0.000000 0.555000 -0.018000
v 0.030182 0.555264 -0.075000
v 0.030182 0.555264 -0.018000
v 0.035444 0.556311 -0.075000
v 0.035444 0.556311 -0.018000
v 0.040401 0.558364 -0.075000
v 0.040401 0.558364 -0.018000
v 0.044862 0.561345 -0.075000
v 0.044862 0.561345 -0.018000
v 0.048655 0.565138 -0.075000
v 0.048655 0.565138 -0.018000
v 0.051636 0.569599 -0.075000
v 0.051636 0.569599 -0.018000
v 0.053689 0.574556 -0.075000
v 0.053689 0.574556 -0.018000
v 0.054736 0.579818 -0.075000
v 0.054736 0.579818 -0.018000
v 0.055000 0.582500 -0.046500
v 0.055000 0.857500 -0.046500
v 0.054735 0.860164 -0.017983
v 0.053093 0.855959 -0.006983
v 0.053689 0.865427 -0.017983
v 0.052079 0.861064 -0.006984
v 0.051638 0.870385 -0.017984
v 0.050089 0.865874 -0.006984
v 0.048658 0.874848 -0.017984
v 0.047198 0.870203 -0.006984
v 0.044865 0.878645 -0.017983
v 0.043519 0.873886 -0.006984
v 0.040403 0.881627 -0.017984
v 0.039190 0.876779 -0.006984
v 0.035444 0.883683 -0.017983
v 0.034381 0.878772 -0.006984
v 0.030180 0.884728 -0.017984
v 0.029274 0.879786 -0.006985
v 0.027088 0.882525 -0.012500
v -0.027088 0.882525 -0.012500
v -0.030180 0.884729 -0.017983
v -0.029275 0.879787 -0.006984
v -0.035444 0.883680 -0.017984
v -0.034380 0.878770 -0.006985
v -0.040402 0.881627 -0.017984
v -0.039190 0.876778 -0.006984
v -0.044864 0.878644 -0.017984
v -0.043518 0.873885 -0.006984
v -0.048659 0.874849 -0.017983
v -0.047199 0.870204 -0.006984
v -0.051639 0.870386 -0.017983
v -0.050090 0.865874 -0.006984
v -0.053691 0.865427 -0.017983
v -0.052080 0.861064 -0.006983
v -0.054733 0.860164 -0.017983
v -0.053091 0.855959 -0.006984
v -0.054175 0.855438 -0.012500
v -0.054175 0.584562 -0.012500
v -0.054735 0.579836 -0.017983
v -0.053093 0.584041 -0.006983
v -0.053689 0.574573 -0.017983
v -0.052079 0.578936 -0.006984
v -0.051638 0.569615 -0.017984
v -0.050089 0.574126 -0.006984
v -0.048658 0.565152 -0.017984
v -0.047198 0.569797 -0.006984
v -0.044865 0.561355 -0.017983
v -0.043519 0.566114 -0.006984
v -0.040403 0.558373 -0.017984
v -0.039190 0.563222 -0.006984
v -0.035444 0.556317 -0.017983
v -0.034381 0.561228 -0.006984
v -0.030180 0.555272 -0.017984
v -0.029274 0.560214 -0.006985
v -0.027088 0.557475 -0.012500
v 0.027088 0.557475 -0.012500
v 0.030180 0.555271 -0.017983
v 0.029275 0.560212 -0.006984
v 0.035444 0.556320 -0.017984
v 0.034380 0.561230 -0.006985
v 0.040402 0.558373 -0.017984
v 0.039190 0.563222 -0.006984
v 0.044864 0.561356 -0.017984
v 0.043518 0.566115 -0.006984
v 0.048659 0.565151 -0.017983
v 0.047199 0.569796 -0.006984
v 0.051639 0.569614 -0.017983
v 0.050090 0.574126 -0.006984
v 0.053691 0.574573 -0.017983
v 0.052080 0.578936 -0.006983
v 0.054733 0.579836 -0.017983
v 0.053091 0.584041 -0.006984
v 0.054175 0.584562 -0.012500
v 0.054175 0.855438 -0.012500
v 0.046260 0.869660 -0.084000
v 0.047736 0.874436 -0.007000
v -0.046260 0.869660 -0.084000
v -0.047736 0.874436 -0.007000
v -0.046260 0.570340 -0.084000
v -0.047736 0.565563 -0.007000
v 0.046260 0.570340 -0.084000
v 0.047736 0.565563 -0.007000
v -0.004065 0.604856 -0.088857
v -0.002498 0.593970 -0.088500
v -0.006182 0.602561 -0.091000
v 0.006182 0.602561 -0.086000
v -0.006182 0.597439 -0.086000
v 0.006125 0.597698 -0.088000
v 0.006182 0.597439 -0.091000
v 0.000000 0.833330 -0.088500
v -0.004073 0.835927 -0.091000
v 0.004073 0.835927 -0.086000
v 0.005970 0.842473 -0.088500
v 0.004717 0.844717 -0.091000
v -0.005970 0.842473 -0.088500
v -0.004717 0.844717 -0.086000
v -0.023959 6.300055 0.051917
v 0.066999 6.723631 0.055164
v -0.075625 6.300659 -0.052051
v 0.065150 6.300000 -0.008584
v 0.069352 6.534397 -0.019633
v 0.252093 6.863615 -0.034606
v 0.248444 6.742802 -0.017514
v 2.920000 6.869514 0.038004
v 2.920000 6.829531 -0.057513
v 2.920000 6.760544 0.013847
v 2.922369 6.771923 0.039659
v 2.920000 6.853019 0.049416
v 2.925000 6.853019 0.049416
v 2.920000 6.755102 -0.000001
v 2.925000 6.755102 -0.000001
v 2.922059 6.787446 -0.051102
v 2.920000 6.858578 -0.047008
v 2.925000 6.858578 -0.047008
v 2.922083 6.866080 -0.032014
v 2.923438 6.854151 0.050801
v 1.878000 6.888074 0.020649
v 1.878000 6.787941 0.059977
v 1.942000 6.888074 0.020649
v 1.942000 6.787941 0.059977
v 1.878000 6.748188 -0.011876
v 1.942000 6.749479 -0.009256
v 1.878000 6.758449 -0.025496
v 1.942000 6.758449 -0.025496
v 1.942000 6.841797 -0.064398
v 1.878000 6.832998 -0.065343
v 1.942000 6.832998 -0.065343
v 1.878000 6.843538 -0.062300
v 1.878000 6.870896 0.058035
v 1.942000 6.866992 0.061240
v 1.910000 6.515000 -0.100000
v 1.910000 6.825000 -0.100001
v 1.910000 6.515000 -0.070000
v 1.910000 6.825000 -0.070001
v 1.887500 6.515000 -0.085000
v 1.887500 6.825000 -0.085001
v 1.932500 6.515000 -0.085000
v 1.932500 6.825000 -0.085001
v 1.887500 6.515000 -0.085000
v 1.932500 6.515000 -0.085000
v 1.887500 6.825000 -0.085001
v 1.932500 6.825000 -0.085001
v 1.893986 6.530852 -0.170000
v 1.903125 6.500777 -0.170000
v 1.900943 6.500615 -0.095000
v 1.889108 6.514402 -0.170000
v 1.888630 6.520000 -0.095000
v 1.930436 6.520000 -0.095000
v 1.930892 6.525598 -0.170000
v 1.929385 6.529057 -0.170000
v 1.929223 6.526875 -0.095000
v 1.899148 6.536014 -0.095000
v 2.798000 6.888074 0.020649
v 2.798000 6.787941 0.059977
v 2.862000 6.888074 0.020649
v 2.862000 6.787941 0.059977
v 2.798000 6.748188 -0.011876
v 2.862000 6.749479 -0.009256
v 2.798000 6.758449 -0.025496
v 2.862000 6.758449 -0.025496
v 2.862000 6.841797 -0.064398
v 2.798000 6.832998 -0.065343
v 2.862000 6.832998 -0.065343
v 2.798000 6.843538 -0.062300
v 2.798000 6.870896 0.058035
v 2.862000 6.866992 0.061240
v 2.830000 6.515000 -0.100000
v 2.830000 6.825000 -0.100001
v 2.830000 6.515000 -0.070000
v 2.830000 6.825000 -0.070001
v 2.807500 6.515000 -0.085000
v 2.807500 6.825000 -0.085001
v 2.852500 6.515000 -0.085000
v 2.852500 6.825000 -0.085001
v 2.807500 6.515000 -0.085000
v 2.852500 6.515000 -0.085000
v 2.807500 6.825000 -0.085001
v 2.852500 6.825000 -0.085001
v 2.813986 6.530852 -0.170000
v 2.823125 6.500777 -0.170000
v 2.809915 6.523657 -0.095000
v 2.809108 6.525598 -0.170000
v 2.809108 6.525598 -0.095000
v 2.831392 6.500706 -0.095000
v 2.850892 6.514402 -0.170000
v 2.850892 6.514402 -0.095000
v 2.849385 6.529057 -0.170000
v 2.847536 6.532259 -0.095000
v 2.955925 6.536623 -0.135009
v 2.993240 6.545344 -0.126010
v 2.953956 6.546530 -0.135012
v 2.991146 6.555882 -0.126012
v 2.950088 6.555860 -0.135010
v 2.987031 6.565808 -0.126011
v 2.944472 6.564254 -0.135008
v 2.981057 6.574738 -0.126008
v 2.937325 6.571389 -0.135010
v 2.973454 6.582329 -0.126011
v 2.928923 6.576991 -0.135012
v 2.964515 6.588288 -0.126012
v 2.919590 6.580842 -0.135011
v 2.954587 6.592386 -0.126011
v 2.909686 6.582798 -0.135014
v 2.944050 6.594467 -0.126014
v 2.921785 6.589150 -0.130501
v 1.820835 6.589150 -0.130501
v 1.832934 6.582795 -0.135007
v 1.798570 6.594462 -0.126007
v 1.823030 6.580842 -0.135011
v 1.788033 6.592386 -0.126012
v 1.813697 6.576990 -0.135009
v 1.778105 6.588288 -0.126010
v 1.805294 6.571389 -0.135011
v 1.769166 6.582329 -0.126012
v 1.798147 6.564254 -0.135012
v 1.761562 6.574739 -0.126013
v 1.792532 6.555860 -0.135009
v 1.755589 6.565808 -0.126010
v 1.788665 6.546529 -0.135010
v 1.751475 6.555882 -0.126010
v 1.786695 6.536623 -0.135010
v 1.749379 6.545344 -0.126011
v 1.767485 6.535800 -0.130500
v 1.767485 6.264200 -0.130500
v 1.786695 6.263377 -0.135010
v 1.749379 6.254656 -0.126011
v 1.788665 6.253470 -0.135010
v 1.751475 6.244118 -0.126010
v 1.792532 6.244141 -0.135010
v 1.755589 6.234192 -0.126011
v 1.798148 6.235746 -0.135010
v 1.761563 6.225262 -0.126010
v 1.805294 6.228611 -0.135011
v 1.769166 6.217670 -0.126012
v 1.813697 6.223010 -0.135010
v 1.778105 6.211712 -0.126010
v 1.823030 6.219158 -0.135010
v 1.788034 6.207614 -0.126011
v 1.832934 6.217203 -0.135011
v 1.798570 6.205535 -0.126011
v 1.820835 6.210850 -0.130500
v 2.921784 6.210850 -0.130500
v 2.909686 6.217202 -0.135012
v 2.944050 6.205534 -0.126012
v 2.919590 6.219158 -0.135011
v 2.954587 6.207614 -0.126012
v 2.928923 6.223009 -0.135012
v 2.964515 6.211712 -0.126012
v 2.937325 6.228611 -0.135008
v 2.973454 6.217671 -0.126009
v 2.944473 6.235745 -0.135012
v 2.981058 6.225261 -0.126012
v 2.950088 6.244141 -0.135011
v 2.987031 6.234192 -0.126011
v 2.953955 6.253471 -0.135009
v 2.991145 6.244118 -0.126009
v 2.955925 6.263377 -0.135011
v 2.993241 6.254656 -0.126011
v 2.975135 6.264200 -0.130501
v 2.975135 6.535800 -0.130501
v 2.993282 6.545365 -0.126000
v 2.993282 6.545365 -0.018000
v 2.991189 6.555889 -0.126000
v 2.991189 6.555889 -0.018000
v 2.987082 6.565802 -0.126000
v 2.987082 6.565802 -0.018000
v 2.981121 6.574723 -0.126000
v 2.981121 6.574724 -0.018000
v 2.973534 6.582311 -0.126000
v 2.973534 6.582311 -0.018000
v 2.964612 6.588272 -0.126000
v 2.964612 6.588272 -0.018000
v 2.954699 6.592379 -0.126000
v 2.954699 6.592379 -0.018000
v 2.944175 6.594472 -0.126000
v 2.944175 6.594471 -0.018000
v 2.938810 6.595000 -0.072000
v 1.803810 6.595000 -0.072000
v 1.798445 6.594471 -0.126000
v 1.798445 6.594472 -0.018000
v 1.787921 6.592379 -0.126000
v 1.787921 6.592379 -0.018000
v 1.778008 6.588272 -0.126000
v 1.778008 6.588272 -0.018000
v 1.769086 6.582311 -0.126000
v 1.769086 6.582311 -0.018000
v 1.761499 6.574724 -0.126000
v 1.761499 6.574723 -0.018000
v 1.755538 6.565802 -0.126000
v 1.755538 6.565802 -0.018000
v 1.751432 6.555889 -0.126000
v 1.751432 6.555889 -0.018000
v 1.749339 6.545365 -0.126000
v 1.749339 6.545365 -0.018000
v 1.748810 6.540000 -0.072000
v 1.748810 6.260000 -0.072000
v 1.749339 6.254635 -0.126000
v 1.749339 6.254635 -0.018000
v 1.751432 6.244111 -0.126000
v 1.751432 6.244111 -0.018000
v 1.755538 6.234198 -0.126000
v 1.755538 6.234198 -0.018000
v 1.761499 6.225276 -0.126000
v 1.761499 6.225276 -0.018000
v 1.769086 6.217689 -0.126000
v 1.769086 6.217689 -0.018000
v 1.778008 6.211728 -0.126000
v 1.778008 6.211728 -0.018000
v 1.787921 6.207622 -0.126000
v 1.787921 6.207622 -0.018000
v 1.798445 6.205528 -0.126000
v 1.798445 6.205529 -0.018000
v 1.803810 6.205000 -0.072000
v 2.938810 6.205000 -0.072000
v 2.944175 6.205529 -0.126000
v 2.944175 6.205528 -0.018000
v 2.954699 6.207622 -0.126000
v 2.954699 6.207622 -0.018000
v 2.964612 6.211728 -0.126000
v 2.964612 6.211728 -0.018000
v 2.973534 6.217689 -0.126000
v 2.973534 6.217689 -0.018000
v 2.981121 6.225276 -0.126000
v 2.981121 6.225276 -0.018000
v 2.987082 6.234198 -0.126000
v 2.987082 6.234198 -0.018000
v 2.991189 6.244111 -0.126000
v 2.991189 6.244111 -0.018000
v 2.993282 6.254635 -0.126000
v 2.993282 6.254635 -0.018000
v 2.993810 6.260000 -0.072000
v 2.993810 6.540000 -0.072000
v 2.993250 6.545349 -0.017979
v 2.974592 6.540988 -0.006979
v 2.991153 6.555883 -0.017984
v 2.972557 6.551207 -0.006984
v 2.987042 6.565807 -0.017980
v 2.968570 6.560833 -0.006981
v 2.981072 6.574736 -0.017978
v 2.962779 6.569494 -0.006978
v 2.973472 6.582326 -0.017978
v 2.955407 6.576856 -0.006979
v 2.964535 6.588283 -0.017983
v 2.946738 6.582634 -0.006984
v 2.954611 6.592384 -0.017980
v 2.937112 6.586613 -0.006980
v 2.944078 6.594463 -0.017982
v 2.926895 6.588629 -0.006982
v 2.930298 6.592075 -0.012500
v 1.812322 6.592075 -0.012500
v 1.798542 6.594468 -0.017978
v 1.815725 6.588634 -0.006979
v 1.788009 6.592384 -0.017980
v 1.805508 6.586612 -0.006981
v 1.778083 6.588286 -0.017978
v 1.795880 6.582637 -0.006979
v 1.769150 6.582325 -0.017981
v 1.787214 6.576855 -0.006982
v 1.761550 6.574734 -0.017982
v 1.779843 6.569492 -0.006983
v 1.755578 6.565807 -0.017980
v 1.774050 6.560833 -0.006981
v 1.751465 6.555884 -0.017980
v 1.770061 6.551207 -0.006981
v 1.749371 6.545348 -0.017981
v 1.768029 6.540987 -0.006982
v 1.758148 6.537900 -0.012501
v 1.758148 6.262100 -0.012501
v 1.749371 6.254652 -0.017981
v 1.768029 6.259012 -0.006982
v 1.751466 6.244116 -0.017980
v 1.770061 6.248793 -0.006981
v 1.755577 6.234193 -0.017979
v 1.774050 6.239167 -0.006980
v 1.761550 6.225265 -0.017982
v 1.779843 6.230507 -0.006982
v 1.769150 6.217676 -0.017982
v 1.787215 6.223145 -0.006983
v 1.778084 6.211715 -0.017979
v 1.795880 6.217363 -0.006980
v 1.788009 6.207615 -0.017979
v 1.805508 6.213387 -0.006980
v 1.798542 6.205537 -0.017982
v 1.815725 6.211371 -0.006982
v 1.812322 6.207925 -0.012501
v 2.930298 6.207925 -0.012501
v 2.944078 6.205532 -0.017978
v 2.926895 6.211366 -0.006979
v 2.954611 6.207616 -0.017980
v 2.937112 6.213387 -0.006980
v 2.964536 6.211716 -0.017981
v 2.946739 6.217365 -0.006982
v 2.973471 6.217674 -0.017979
v 2.955406 6.223144 -0.006980
v 2.981071 6.225265 -0.017981
v 2.962778 6.230507 -0.006981
v 2.987041 6.234194 -0.017983
v 2.968569 6.239168 -0.006983
v 2.991155 6.244116 -0.017979
v 2.972560 6.248793 -0.006979
v 2.993248 6.254652 -0.017983
v 2.974590 6.259012 -0.006983
v 2.984473 6.262100 -0.012500
v 2.984473 6.537900 -0.012500
v 1.797040 6.572420 -0.135001
v 2.945580 6.572420 -0.135001
v 2.963908 6.222077 -0.007000
v 2.963908 6.577923 -0.007000
v 1.778712 6.577923 -0.007000
v 1.797040 6.227580 -0.135000
v 1.778712 6.222077 -0.007000
v 2.945580 6.227580 -0.135000
v 1.826659 6.270000 -0.140000
v 1.840000 6.258479 -0.145000
v 1.840000 6.258479 -0.135000
v 1.844829 6.258343 -0.140000
v 1.849434 6.279433 -0.140000
v 1.840000 6.283341 -0.145000
v 1.840000 6.283341 -0.135000
v 1.830566 6.539433 -0.140000
v 1.840000 6.516659 -0.140000
v 1.840000 6.541520 -0.145000
v 1.840000 6.516659 -0.145000
v 1.840000 6.541520 -0.135000
v 1.840000 6.516659 -0.135000
v 1.851657 6.534829 -0.140000
v 2.897751 6.265395 -0.141000
v 2.917771 6.259398 -0.138334
v 2.910000 6.281521 -0.145000
v 2.910000 6.256659 -0.145000
v 2.910000 6.258479 -0.135000
v 2.912228 6.282760 -0.141000
v 2.910000 6.283341 -0.135000
v 2.900567 6.539433 -0.140000
v 2.905172 6.518343 -0.140000
v 2.910000 6.541521 -0.145000
v 2.910000 6.516659 -0.145000
v 2.910000 6.541521 -0.135000
v 2.910000 6.516659 -0.135000
v 2.923341 6.530001 -0.140000
v 2.134484 6.346627 0.008000
v 2.134484 6.346627 0.235000
v 2.131639 6.347558 0.008000
v 2.131638 6.347558 0.235000
v 2.129837 6.337235 0.235000
v 2.138907 6.367004 0.235000
v 2.139758 6.366837 0.008000
v 2.139758 6.366837 0.235000
v 2.136820 6.367415 0.008000
v 2.136820 6.367415 0.235000
v 2.142539 6.387538 0.008000
v 2.142539 6.387538 0.235000
v 2.139552 6.387756 0.008000
v 2.139552 6.387756 0.235000
v 2.141226 6.424101 0.235000
v 2.142785 6.408424 0.008000
v 2.142785 6.408424 0.235000
v 2.139794 6.408278 0.008000
v 2.139794 6.408278 0.235000
v 2.140493 6.429185 0.008000
v 2.140493 6.429185 0.235000
v 2.137542 6.428676 0.008000
v 2.137542 6.428676 0.235000
v 2.135697 6.449514 0.008000
v 2.135697 6.449514 0.235000
v 2.132829 6.448650 0.008000
v 2.132829 6.448650 0.235000
v 2.121589 6.483106 0.235000
v 2.128467 6.469110 0.008000
v 2.128467 6.469110 0.235000
v 2.125726 6.467905 0.008000
v 2.125726 6.467905 0.235000
v 2.118912 6.487683 0.008000
v 2.118912 6.487683 0.235000
v 2.116337 6.486154 0.008000
v 2.116337 6.486154 0.235000
v 2.107172 6.504958 0.008000
v 2.107172 6.504958 0.235000
v 2.104802 6.503128 0.008000
v 2.104802 6.503128 0.235000
v 2.091617 6.521976 0.235000
v 2.093420 6.520680 0.008000
v 2.093420 6.520680 0.235000
v 2.091290 6.518575 0.008000
v 2.091290 6.518575 0.235000
v 2.077862 6.534616 0.008000
v 2.077862 6.534616 0.235000
v 2.076003 6.532268 0.008000
v 2.076003 6.532268 0.235000
v 2.061057 6.547100 0.235000
v 2.060726 6.546559 0.008000
v 2.060726 6.546558 0.235000
v 2.059166 6.544002 0.008000
v 2.059166 6.544002 0.235000
v 2.026725 6.561679 0.235000
v 2.042266 6.556332 0.008000
v 2.042267 6.556333 0.235000
v 2.041029 6.553605 0.008000
v 2.041029 6.553605 0.235000
v 2.022757 6.563792 0.008000
v 2.022757 6.563792 0.235000
v 2.021860 6.560935 0.008000
v 2.021860 6.560935 0.235000
v 2.002486 6.568827 0.008000
v 2.002486 6.568827 0.235000
v 2.001942 6.565883 0.008000
v 2.001942 6.565882 0.235000
v 1.971310 6.571337 0.235000
v 1.981754 6.571364 0.008000
v 1.981754 6.571363 0.235000
v 1.981571 6.568375 0.008000
v 1.981571 6.568375 0.235000
v 1.960866 6.571363 0.008000
v 1.960866 6.571364 0.235000
v 1.961049 6.568375 0.008000
v 1.961049 6.568375 0.235000
v 1.940134 6.568827 0.008000
v 1.940134 6.568827 0.235000
v 1.940678 6.565883 0.008000
v 1.940678 6.565883 0.235000
v 1.908792 6.559796 0.235000
v 1.919863 6.563792 0.008000
v 1.919863 6.563792 0.235000
v 1.920760 6.560935 0.008000
v 1.920760 6.560935 0.235000
v 1.900353 6.556333 0.008000
v 1.900354 6.556332 0.235000
v 1.901591 6.553606 0.008000
v 1.901591 6.553606 0.235000
v 1.868736 6.536709 0.235000
v 1.881894 6.546558 0.008000
v 1.881894 6.546558 0.235000
v 1.883454 6.544002 0.008000
v 1.883454 6.544002 0.235000
v 1.864758 6.534616 0.008000
v 1.864758 6.534616 0.235000
v 1.866617 6.532268 0.008000
v 1.866617 6.532268 0.235000
v 1.849200 6.520680 0.008000
v 1.849200 6.520680 0.235000
v 1.851330 6.518575 0.008000
v 1.851330 6.518575 0.235000
v 1.828651 6.495350 0.235000
v 1.835449 6.504958 0.008000
v 1.835449 6.504958 0.235000
v 1.837818 6.503128 0.008000
v 1.837818 6.503128 0.235000
v 1.823708 6.487683 0.008000
v 1.823708 6.487683 0.235000
v 1.826283 6.486154 0.008000
v 1.826283 6.486154 0.235000
v 1.811464 6.458969 0.235000
v 1.814153 6.469110 0.008000
v 1.814153 6.469110 0.235000
v 1.816894 6.467905 0.008000
v 1.816894 6.467905 0.235000
v 1.806924 6.449514 0.008000
v 1.806924 6.449514 0.235000
v 1.809791 6.448650 0.008000
v 1.809791 6.448650 0.235000
v 1.802121 6.426964 0.235000
v 1.802127 6.429185 0.008000
v 1.802127 6.429185 0.235000
v 1.805078 6.428676 0.008000
v 1.805078 6.428676 0.235000
v 1.799835 6.408424 0.008000
v 1.799835 6.408424 0.235000
v 1.802826 6.408277 0.008000
v 1.802826 6.408277 0.235000
v 1.800611 6.385381 0.235000
v 1.800081 6.387538 0.008000
v 1.800081 6.387538 0.235000
v 1.803068 6.387756 0.008000
v 1.803068 6.387756 0.235000
v 1.802862 6.366838 0.008000
v 1.802862 6.366838 0.235000
v 1.805800 6.367416 0.008000
v 1.805800 6.367416 0.235000
v 1.811458 6.336884 0.235000
v 1.808136 6.346627 0.008000
v 1.808136 6.346627 0.235000
v 1.810982 6.347558 0.008000
v 1.810982 6.347558 0.235000
v 2.123548 6.450648 0.010000
v 2.044044 6.543677 0.010000
v 1.909137 6.548387 0.010000
v 1.819460 6.453974 0.010000
v 1.814914 6.385366 0.010000
v 1.873556 6.268193 0.010000
v 2.013562 6.247030 0.010000
v 2.087909 6.291632 0.010000
v 2.130652 6.360086 0.010000
v 2.534484 6.346627 0.008000
v 2.534484 6.346627 0.235000
v 2.531638 6.347558 0.008000
v 2.531638 6.347558 0.235000
v 2.529837 6.337235 0.235000
v 2.538907 6.367007 0.235000
v 2.539758 6.366837 0.008000
v 2.539758 6.366837 0.235000
v 2.536820 6.367416 0.008000
v 2.536820 6.367415 0.235000
v 2.542539 6.387538 0.008000
v 2.542539 6.387538 0.235000
v 2.539552 6.387756 0.008000
v 2.539552 6.387756 0.235000
v 2.541918 6.408382 0.235000
v 2.542785 6.408424 0.008000
v 2.542785 6.408424 0.235000
v 2.539794 6.408278 0.008000
v 2.539794 6.408278 0.235000
v 2.540493 6.429185 0.008000
v 2.540493 6.429185 0.235000
v 2.537542 6.428676 0.008000
v 2.537542 6.428676 0.235000
v 2.534866 6.449264 0.235000
v 2.535697 6.449514 0.008000
v 2.535697 6.449514 0.235000
v 2.532830 6.448650 0.008000
v 2.532830 6.448650 0.235000
v 2.528467 6.469110 0.008000
v 2.528467 6.469110 0.235000
v 2.525726 6.467905 0.008000
v 2.525726 6.467904 0.235000
v 2.515944 6.491060 0.235000
v 2.518912 6.487683 0.008000
v 2.518912 6.487683 0.235000
v 2.516337 6.486154 0.008000
v 2.516337 6.486154 0.235000
v 2.507172 6.504958 0.008000
v 2.507172 6.504958 0.235000
v 2.504802 6.503128 0.008000
v 2.504802 6.503128 0.235000
v 2.493871 6.521128 0.235000
v 2.493420 6.520680 0.008000
v 2.493420 6.520680 0.235000
v 2.491290 6.518575 0.008000
v 2.491290 6.518575 0.235000
v 2.464067 6.543552 0.235000
v 2.477862 6.534616 0.008000
v 2.477861 6.534616 0.235000
v 2.476003 6.532268 0.008000
v 2.476003 6.532268 0.235000
v 2.460726 6.546558 0.008000
v 2.460726 6.546558 0.235000
v 2.459166 6.544002 0.008000
v 2.459166 6.544002 0.235000
v 2.442266 6.556332 0.008000
v 2.442266 6.556333 0.235000
v 2.441029 6.553605 0.008000
v 2.441029 6.553605 0.235000
v 2.422498 6.562964 0.235000
v 2.422757 6.563792 0.008000
v 2.422757 6.563792 0.235000
v 2.421860 6.560935 0.008000
v 2.421860 6.560935 0.235000
v 2.402486 6.568827 0.008000
v 2.402486 6.568827 0.235000
v 2.401942 6.565883 0.008000
v 2.401942 6.565882 0.235000
v 2.369989 6.571585 0.235000
v 2.381753 6.571364 0.008000
v 2.381753 6.571363 0.235000
v 2.381571 6.568375 0.008000
v 2.381571 6.568375 0.235000
v 2.360867 6.571363 0.008000
v 2.360867 6.571364 0.235000
v 2.361049 6.568375 0.008000
v 2.361049 6.568375 0.235000
v 2.324327 6.564327 0.235000
v 2.340134 6.568827 0.008000
v 2.340134 6.568827 0.235000
v 2.340678 6.565883 0.008000
v 2.340678 6.565883 0.235000
v 2.319863 6.563792 0.008000
v 2.319863 6.563792 0.235000
v 2.320760 6.560935 0.008000
v 2.320760 6.560935 0.235000
v 2.300354 6.556332 0.008000
v 2.300354 6.556332 0.235000
v 2.301591 6.553605 0.008000
v 2.301591 6.553606 0.235000
v 2.278553 6.543552 0.235000
v 2.281894 6.546558 0.008000
v 2.281894 6.546558 0.235000
v 2.283454 6.544002 0.008000
v 2.283454 6.544002 0.235000
v 2.264759 6.534616 0.008000
v 2.264758 6.534616 0.235000
v 2.266617 6.532268 0.008000
v 2.266617 6.532268 0.235000
v 2.248749 6.521128 0.235000
v 2.249200 6.520680 0.008000
v 2.249200 6.520680 0.235000
v 2.251330 6.518575 0.008000
v 2.251329 6.518575 0.235000
v 2.226676 6.491060 0.235000
v 2.235448 6.504958 0.008000
v 2.235448 6.504958 0.235000
v 2.237818 6.503128 0.008000
v 2.237818 6.503128 0.235000
v 2.223708 6.487683 0.008000
v 2.223708 6.487683 0.235000
v 2.226283 6.486154 0.008000
v 2.226283 6.486154 0.235000
v 2.214153 6.469110 0.008000
v 2.214153 6.469110 0.235000
v 2.216894 6.467904 0.008000
v 2.216894 6.467905 0.235000
v 2.207754 6.449264 0.235000
v 2.206923 6.449514 0.008000
v 2.206923 6.449514 0.235000
v 2.209791 6.448650 0.008000
v 2.209791 6.448650 0.235000
v 2.202127 6.429185 0.008000
v 2.202127 6.429185 0.235000
v 2.205078 6.428676 0.008000
v 2.205078 6.428676 0.235000
v 2.200702 6.408382 0.235000
v 2.199835 6.408424 0.008000
v 2.199835 6.408424 0.235000
v 2.202826 6.408277 0.008000
v 2.202826 6.408277 0.235000
v 2.200081 6.387538 0.008000
v 2.200081 6.387538 0.235000
v 2.203068 6.387756 0.008000
v 2.203068 6.387756 0.235000
v 2.203713 6.367007 0.235000
v 2.202862 6.366838 0.008000
v 2.202862 6.366838 0.235000
v 2.205800 6.367415 0.008000
v 2.205800 6.367416 0.235000
v 2.208136 6.346627 0.008000
v 2.208136 6.346627 0.235000
v 2.210982 6.347558 0.008000
v 2.210982 6.347558 0.235000
v 2.212783 6.337235 0.235000
v 2.509900 6.481757 0.010000
v 2.479408 6.508098 0.010000
v 2.429686 6.552495 0.010000
v 2.304891 6.546084 0.010000
v 2.230713 6.471316 0.010000
v 2.212496 6.383169 0.010000
v 2.243684 6.295259 0.010000
v 2.316586 6.249510 0.010000
v 2.433987 6.254146 0.010000
v 2.498936 6.295259 0.010000
v 2.530124 6.383169 0.010000
v 2.934484 6.346627 0.008000
v 2.934484 6.346627 0.235000
v 2.931638 6.347558 0.008000
v 2.931638 6.347558 0.235000
v 2.931162 6.336884 0.235000
v 2.942770 6.392669 0.235000
v 2.939758 6.366838 0.008000
v 2.939758 6.366838 0.235000
v 2.936820 6.367416 0.008000
v 2.936820 6.367415 0.235000
v 2.942539 6.387538 0.008000
v 2.942539 6.387538 0.235000
v 2.939552 6.387756 0.008000
v 2.939552 6.387756 0.235000
v 2.942785 6.408424 0.008000
v 2.942785 6.408424 0.235000
v 2.939794 6.408278 0.008000
v 2.939794 6.408278 0.235000
v 2.940493 6.429185 0.008000
v 2.940493 6.429185 0.235000
v 2.937542 6.428676 0.008000
v 2.937542 6.428676 0.235000
v 2.934866 6.449264 0.235000
v 2.935697 6.449514 0.008000
v 2.935697 6.449514 0.235000
v 2.932829 6.448650 0.008000
v 2.932829 6.448650 0.235000
v 2.928468 6.469110 0.008000
v 2.928468 6.469110 0.235000
v 2.925726 6.467905 0.008000
v 2.925726 6.467905 0.235000
v 2.913020 6.496305 0.235000
v 2.918912 6.487683 0.008000
v 2.918912 6.487683 0.235000
v 2.916337 6.486154 0.008000
v 2.916337 6.486154 0.235000
v 2.907171 6.504959 0.008000
v 2.907171 6.504958 0.235000
v 2.904802 6.503128 0.008000
v 2.904802 6.503128 0.235000
v 2.893420 6.520680 0.008000
v 2.893420 6.520680 0.235000
v 2.891290 6.518575 0.008000
v 2.891290 6.518575 0.235000
v 2.869279 6.540565 0.235000
v 2.877862 6.534616 0.008000
v 2.877861 6.534616 0.235000
v 2.876003 6.532268 0.008000
v 2.876003 6.532268 0.235000
v 2.860726 6.546559 0.008000
v 2.860726 6.546559 0.235000
v 2.859166 6.544002 0.008000
v 2.859166 6.544002 0.235000
v 2.842267 6.556332 0.008000
v 2.842267 6.556333 0.235000
v 2.841029 6.553605 0.008000
v 2.841029 6.553605 0.235000
v 2.822498 6.562964 0.235000
v 2.822757 6.563792 0.008000
v 2.822757 6.563792 0.235000
v 2.821860 6.560935 0.008000
v 2.821860 6.560935 0.235000
v 2.802486 6.568827 0.008000
v 2.802486 6.568827 0.235000
v 2.801942 6.565883 0.008000
v 2.801942 6.565882 0.235000
v 2.771310 6.571337 0.235000
v 2.781754 6.571364 0.008000
v 2.781754 6.571363 0.235000
v 2.781571 6.568375 0.008000
v 2.781571 6.568375 0.235000
v 2.760866 6.571363 0.008000
v 2.760866 6.571364 0.235000
v 2.761049 6.568375 0.008000
v 2.761049 6.568375 0.235000
v 2.740134 6.568827 0.008000
v 2.740134 6.568827 0.235000
v 2.740678 6.565883 0.008000
v 2.740678 6.565883 0.235000
v 2.715895 6.561679 0.235000
v 2.719863 6.563792 0.008000
v 2.719863 6.563792 0.235000
v 2.720760 6.560935 0.008000
v 2.720760 6.560935 0.235000
v 2.700354 6.556333 0.008000
v 2.700354 6.556332 0.235000
v 2.701591 6.553606 0.008000
v 2.701591 6.553606 0.235000
v 2.681563 6.547100 0.235000
v 2.681894 6.546558 0.008000
v 2.681894 6.546558 0.235000
v 2.683454 6.544002 0.008000
v 2.683454 6.544002 0.235000
v 2.651003 6.521976 0.235000
v 2.664758 6.534616 0.008000
v 2.664758 6.534616 0.235000
v 2.666617 6.532268 0.008000
v 2.666617 6.532268 0.235000
v 2.649200 6.520680 0.008000
v 2.649200 6.520680 0.235000
v 2.651330 6.518575 0.008000
v 2.651330 6.518575 0.235000
v 2.621031 6.483107 0.235000
v 2.635448 6.504958 0.008000
v 2.635448 6.504958 0.235000
v 2.637818 6.503128 0.008000
v 2.637818 6.503128 0.235000
v 2.623708 6.487683 0.008000
v 2.623708 6.487683 0.235000
v 2.626283 6.486154 0.008000
v 2.626283 6.486154 0.235000
v 2.614153 6.469110 0.008000
v 2.614153 6.469110 0.235000
v 2.616894 6.467904 0.008000
v 2.616894 6.467905 0.235000
v 2.601394 6.424101 0.235000
v 2.606924 6.449514 0.008000
v 2.606924 6.449514 0.235000
v 2.609791 6.448650 0.008000
v 2.609791 6.448650 0.235000
v 2.602127 6.429185 0.008000
v 2.602127 6.429185 0.235000
v 2.605078 6.428676 0.008000
v 2.605078 6.428676 0.235000
v 2.599835 6.408424 0.008000
v 2.599835 6.408424 0.235000
v 2.602826 6.408277 0.008000
v 2.602826 6.408277 0.235000
v 2.600081 6.387538 0.008000
v 2.600081 6.387538 0.235000
v 2.603068 6.387756 0.008000
v 2.603068 6.387756 0.235000
v 2.603713 6.367004 0.235000
v 2.602862 6.366838 0.008000
v 2.602862 6.366838 0.235000
v 2.605800 6.367416 0.008000
v 2.605800 6.367416 0.235000
v 2.608136 6.346627 0.008000
v 2.608136 6.346627 0.235000
v 2.610982 6.347558 0.008000
v 2.610982 6.347558 0.235000
v 2.612783 6.337235 0.235000
v 2.927624 6.410426 0.010000
v 2.903785 6.488532 0.010000
v 2.842313 6.550125 0.010000
v 2.758208 6.558109 0.010000
v 2.650871 6.506009 0.010000
v 2.611814 6.405971 0.010000
v 2.640563 6.312297 0.010000
v 2.724582 6.245962 0.010000
v 2.858864 6.264396 0.010000
v 2.913932 6.331278 0.010000
vn -0.2744 0.6314 -0.7253
vn -0.8044 -0.4845 -0.3439
vn -0.0039 0.8120 -0.5837
vn -0.8017 0.4904 0.3418
vn -0.3418 -0.4904 0.8017
vn -0.0000 -1.0000 -0.0000
vn 0.3439 0.4845 0.8044
vn -0.0000 1.0000 -0.0000
vn 0.7253 -0.6314 0.2744
vn 0.5837 -0.8120 0.0039
vn 0.6483 -0.0042 -0.7613
vn -0.9996 -0.0234 -0.0126
vn -0.8375 0.0428 -0.5447
vn 0.1168 0.0178 0.9930
vn 0.4927 0.0035 0.8702
vn 0.8933 0.0075 -0.4493
vn -0.9471 -0.0207 -0.3204
vn -0.4278 0.0223 0.9036
vn -0.4986 0.0397 -0.8660
vn 0.2750 -0.0071 0.9614
vn 0.9964 0.0206 0.0819
vn 0.8030 -0.0085 -0.5959
vn 0.4301 0.0837 -0.8989
vn -0.9852 -0.1431 0.0944
vn -0.5573 0.0213 -0.8300
vn -0.4774 -0.0507 0.8772
vn 0.6166 -0.0689 0.7843
vn 0.9878 0.1548 0.0185
vn -0.0000 -0.0000 -1.0000
vn -0.0000 -0.0000 1.0000
vn -0.2925 0.1490 0.9446
vn -0.7275 0.3510 0.5896
vn -0.7812 0.2220 -0.5835
vn 0.9925 -0.0234 -0.1200
vn 0.9202 -0.3768 0.1064
vn -0.1908 0.9163 -0.3522
vn 0.1554 -0.6721 -0.7239
vn 0.0255 0.7687 0.6390
vn 0.0187 0.1863 -0.9823
vn 0.0303 -0.9576 0.2865
vn -1.0000 -0.0000 -0.0000
vn 1.0000 -0.0000 -0.0000
vn -0.0196 0.6249 0.7805
vn -0.0220 -0.9993 -0.0290
vn 0.0078 0.5454 0.8381
vn 0.0193 -0.9996 0.0217
vn 0.0184 0.3949 -0.9185
vn -0.0177 0.4349 -0.9003
vn -0.7965 0.6019 -0.0581
vn -0.2097 -0.9777 -0.0082
vn -0.3505 -0.9355 0.0451
vn 0.9355 0.3505 -0.0451
vn 0.9777 0.2096 0.0082
vn -0.6019 0.7964 0.0581
vn -0.7769 0.6261 -0.0669
vn -0.2260 -0.9679 -0.1102
vn -0.9512 0.2882 0.1102
vn 0.1537 -0.9858 0.0669
vn 0.9180 0.3846 -0.0969
vn 0.7921 0.6027 0.0969
vt 0.500000 0.500000
vt 0.049805 0.950195
vt 0.049805 0.950195
vt 0.049805 0.950195
vt 0.049805 0.950195
s 1
f 1/1/1 2/1/2 17/1/3
f 1/1/1 6/1/4 2/1/2
f 6/1/4 8/1/5 2/1/2
f 3/1/6 10/1/6 7/1/6
f 6/1/4 11/1/7 8/1/5
f 3/1/6 12/1/6 10/1/6
f 4/1/8 9/1/8 13/1/8
f 11/1/7 14/1/9 8/1/5
f 4/1/8 13/1/8 15/1/8
f 3/1/6 16/1/6 12/1/6
f 11/1/7 17/1/10 14/1/9
f 4/1/8 15/1/8 18/1/8
f 3/1/6 19/1/6 16/1/6
f 4/1/8 18/1/8 5/1/8
f 142/1/11 132/1/12 133/1/13
f 132/1/12 138/1/14 133/1/13
f 132/1/12 139/1/15 138/1/14
f 135/1/8 137/1/8 140/1/8
f 134/1/6 141/1/6 136/1/6
f 139/1/15 142/1/11 138/1/14
f 142/1/11 143/1/16 138/1/14
f 134/1/6 144/1/6 141/1/6
f 135/1/8 140/1/8 145/1/8
f 142/1/11 133/1/13 143/1/16
f 146/1/17 151/1/18 159/1/19
f 146/1/17 152/1/20 151/1/18
f 147/1/6 153/1/6 149/1/6
f 148/1/8 150/1/8 154/1/8
f 152/1/20 155/1/21 151/1/18
f 147/1/6 156/1/6 153/1/6
f 152/1/20 157/1/22 155/1/21
f 148/1/8 154/1/8 158/1/8
f 157/1/22 159/1/19 155/1/21
f 157/1/22 146/1/17 159/1/19
f 174/1/23 163/1/24 160/1/25
f 163/1/24 166/1/26 160/1/25
f 162/1/8 165/1/8 167/1/8
f 163/1/24 168/1/27 166/1/26
f 161/1/6 169/1/6 164/1/6
f 168/1/27 170/1/28 166/1/26
f 162/1/8 167/1/8 171/1/8
f 161/1/6 172/1/6 169/1/6
f 162/1/8 171/1/8 173/1/8
f 168/1/27 174/1/23 170/1/28
f 174/1/23 160/1/25 170/1/28
f 391/1/29 395/1/29 393/1/29
f 392/1/30 394/1/30 396/1/30
f 391/1/29 397/1/29 395/1/29
f 392/1/30 396/1/30 398/1/30
f 413/1/31 414/1/32 415/1/33
f 416/1/34 415/1/33 417/1/35
f 416/1/34 417/1/35 413/1/31
f 413/1/31 417/1/35 414/1/32
f 415/1/33 414/1/32 418/1/36
f 415/1/33 418/1/36 417/1/35
f 417/1/35 419/1/37 414/1/32
f 417/1/35 418/1/36 419/1/37
f 414/1/32 420/1/38 418/1/36
f 418/1/36 420/1/38 421/1/39
f 418/1/36 421/1/39 419/1/37
f 419/1/37 421/1/39 422/1/40
f 419/1/37 422/1/40 414/1/32
f 414/1/32 422/1/40 420/1/38
f 424/1/41 429/1/41 426/1/41
f 425/1/42 427/1/42 430/1/42
f 445/1/43 437/1/44 446/1/45
f 437/1/44 438/1/46 446/1/45
f 433/1/41 439/1/41 434/1/41
f 435/1/42 436/1/42 440/1/42
f 437/1/44 441/1/47 438/1/46
f 433/1/41 442/1/41 439/1/41
f 435/1/42 440/1/42 443/1/42
f 437/1/44 444/1/48 441/1/47
f 444/1/48 445/1/43 441/1/47
f 445/1/43 446/1/45 441/1/47
f 459/1/49 460/1/50 461/1/51
f 460/1/50 466/1/52 461/1/51
f 466/1/52 467/1/53 461/1/51
f 466/1/52 468/1/54 467/1/53
f 466/1/52 459/1/49 468/1/54
f 459/1/49 461/1/51 468/1/54
f 481/1/43 473/1/44 482/1/45
f 473/1/44 474/1/46 482/1/45
f 469/1/41 475/1/41 470/1/41
f 471/1/42 472/1/42 476/1/42
f 473/1/44 477/1/47 474/1/46
f 469/1/41 478/1/41 475/1/41
f 471/1/42 476/1/42 479/1/42
f 473/1/44 480/1/48 477/1/47
f 480/1/48 481/1/43 477/1/47
f 481/1/43 482/1/45 477/1/47
f 495/1/55 496/1/56 497/1/57
f 496/1/56 500/1/58 497/1/57
f 496/1/56 503/1/59 500/1/58
f 503/1/59 504/1/60 500/1/58
f 503/1/59 495/1/55 504/1/60
f 495/1/55 497/1/57 504/1/60
f 723/1/30 724/1/30 725/1/30
f 723/1/30 725/1/30 727/1/30
f 721/1/29 728/1/29 726/1/29
f 721/1/29 722/1/29 728/1/29
f 797/2/30 806/2/30 811/2/30
f 907/2/30 908/3/30 900/2/30
f 941/3/30 950/2/30 955/2/30
f 999/2/30 1008/4/30 1013/3/30
f 1055/4/30 1054/3/30 1056/5/30
f 1059/4/30 1060/2/30 1061/2/30
f 1062/2/30 1063/2/30 1064/4/30
f 1144/3/30 1153/2/30 1158/2/30
f 1208/2/30 1209/4/30 1210/2/30
l 23 24
l 28 29
l 56 59
l 63 68
l 68 62
l 69 74
l 84 87
l 91 96
l 96 90
l 102 97
l 107 108
l 112 113
l 131 125
l 175 176
l 179 180
l 183 184
l 187 188
l 191 192
l 195 196
l 199 200
l 203 204
l 207 208
l 211 212
l 215 216
l 219 220
l 223 224
l 227 228
l 231 232
l 235 236
l 239 240
l 243 244
l 247 248
l 251 252
l 255 256
l 259 260
l 263 264
l 267 268
l 271 272
l 275 276
l 279 280
l 283 284
l 287 288
l 291 292
l 295 296
l 299 300
l 303 304
l 307 308
l 311 312
l 315 316
l 319 320
l 323 324
l 327 328
l 331 332
l 335 336
l 339 340
l 343 344
l 347 348
l 351 352
l 355 356
l 359 360
l 363 364
l 367 368
l 371 372
l 375 376
l 379 380
l 383 384
l 387 388
l 404 399
l 407 410
l 431 432
l 505 506
l 509 510
l 513 514
l 517 518
l 521 522
l 525 526
l 529 530
l 533 534
l 537 538
l 541 542
l 545 546
l 549 550
l 553 554
l 557 558
l 561 562
l 565 566
l 569 570
l 573 574
l 577 578
l 581 582
l 585 586
l 589 590
l 593 594
l 597 598
l 601 602
l 605 606
l 609 610
l 613 614
l 617 618
l 621 622
l 625 626
l 629 630
l 633 634
l 637 638
l 641 642
l 645 646
l 649 650
l 653 654
l 657 658
l 661 662
l 665 666
l 669 670
l 673 674
l 677 678
l 681 682
l 685 686
l 689 690
l 693 694
l 697 698
l 701 702
l 705 706
l 709 710
l 713 714
l 717 718
l 732 733
l 738 739
l 750 751
l 767 768
l 778 779
l 785 786
l 795 796
l 802 803
l 814 815
l 820 821
l 831 832
l 838 839
l 849 850
l 855 856
l 866 867
l 873 874
l 884 885
l 891 892
l 911 912
l 915 916
l 914 923
l 926 927
l 933 934
l 932 941
l 944 945
l 951 952
l 962 963
l 969 970
l 968 977
l 980 981
l 987 988
l 997 998
l 1004 1005
l 1016 1017
l 1022 1023
l 1033 1034
l 1040 1041
l 1051 1052
l 1077 1078
l 1083 1084
l 1094 1095
l 1101 1102
l 1096 1109
l 1112 1113
l 1118 1119
l 1129 1130
l 1136 1137
l 1131 1144
l 1147 1148
l 1154 1155
l 1165 1166
l 1172 1173
l 1183 1184
l 1189 1190
l 1200 1201
l 22 26
l 52 53
l 80 81
l 106 110
l 402 403
l 463 464
l 731 735
l 744 748
l 1058 1059
l 1167 1180
l 1180 1197
l 1210 1211
l 1213 1214
l 20 24
l 27 32
l 32 33
l 35 39
l 41 44
l 44 47
l 48 49
l 55 58
l 64 65
l 76 77
l 83 86
l 92 93
l 101 102
l 104 108
l 111 116
l 116 117
l 119 123
l 399 400
l 409 411
l 447 448
l 451 452
l 455 456
l 485 486
l 489 490
l 493 494
l 498 501
l 737 742
l 742 736
l 745 746
l 751 756
l 757 758
l 761 762
l 765 766
l 772 773
l 782 783
l 789 790
l 784 797
l 800 801
l 807 808
l 818 819
l 825 826
l 835 836
l 842 843
l 837 846
l 853 854
l 860 861
l 871 872
l 878 879
l 877 886
l 889 890
l 896 897
l 905 906
l 919 920
l 930 931
l 937 938
l 948 949
l 956 957
l 966 967
l 973 974
l 984 985
l 991 992
l 1002 1003
l 1009 1010
l 1020 1021
l 1027 1028
l 1026 1035
l 1038 1039
l 1045 1046
l 1044 1053
l 1067 1068
l 1071 1072
l 1081 1082
l 1088 1089
l 1087 1096
l 1099 1100
l 1105 1106
l 1116 1117
l 1123 1124
l 1122 1131
l 1134 1135
l 1140 1141
l 1151 1152
l 1159 1160
l 1170 1171
l 1176 1177
l 1187 1188
l 1193 1194
l 1204 1205
l 1214 1215
l 20 23
l 30 31
l 58 60
l 57 61
l 85 89
l 104 107
l 114 115
l 408 412
l 729 732
l 740 741
l 901 902
l 904 905
l 986 999
l 1158 1167
l 1216 1207
l 33 27
l 37 38
l 42 45
l 49 54
l 54 48
l 55 60
l 70 71
l 77 82
l 82 76
l 88 83
l 98 99
l 117 111
l 121 122
l 126 127
l 177 178
l 181 182
l 185 186
l 189 190
l 193 194
l 197 198
l 201 202
l 205 206
l 209 210
l 213 214
l 217 218
l 221 222
l 225 226
l 229 230
l 233 234
l 237 238
l 241 242
l 245 246
l 249 250
l 253 254
l 257 258
l 261 262
l 265 266
l 269 270
l 273 274
l 277 278
l 281 282
l 285 286
l 289 290
l 293 294
l 297 298
l 301 302
l 305 306
l 309 310
l 313 314
l 317 318
l 321 322
l 325 326
l 329 330
l 333 334
l 337 338
l 341 342
l 345 346
l 349 350
l 353 354
l 357 358
l 361 362
l 365 366
l 369 370
l 373 374
l 377 378
l 381 382
l 385 386
l 389 390
l 411 406
l 423 428
l 428 431
l 507 508
l 511 512
l 515 516
l 519 520
l 523 524
l 527 528
l 531 532
l 535 536
l 539 540
l 543 544
l 547 548
l 551 552
l 555 556
l 559 560
l 563 564
l 567 568
l 571 572
l 575 576
l 579 580
l 583 584
l 587 588
l 591 592
l 595 596
l 599 600
l 603 604
l 607 608
l 611 612
l 615 616
l 619 620
l 623 624
l 627 628
l 631 632
l 635 636
l 639 640
l 643 644
l 647 648
l 651 652
l 655 656
l 659 660
l 663 664
l 667 668
l 671 672
l 675 676
l 679 680
l 683 684
l 687 688
l 691 692
l 695 696
l 699 700
l 703 704
l 707 708
l 711 712
l 715 716
l 719 720
l 733 729
l 736 737
l 752 753
l 769 770
l 776 777
l 771 784
l 787 788
l 793 794
l 804 805
l 812 813
l 822 823
l 829 830
l 824 837
l 840 841
l 847 848
l 857 858
l 864 865
l 859 868
l 875 876
l 882 883
l 893 894
l 902 903
l 909 910
l 913 914
l 917 918
l 924 925
l 923 932
l 935 936
l 942 943
l 953 954
l 960 961
l 971 972
l 978 979
l 989 990
l 995 996
l 1006 1007
l 1014 1015
l 1024 1025
l 1031 1032
l 1042 1043
l 1049 1050
l 1075 1076
l 1085 1086
l 1092 1093
l 1103 1104
l 1110 1111
l 1120 1121
l 1127 1128
l 1138 1139
l 1145 1146
l 1156 1157
l 1163 1164
l 1174 1175
l 1181 1182
l 1191 1192
l 1198 1199
l 1197 1206
l 36 40
l 66 67
l 94 95
l 120 124
l 400 404
l 432 423
l 499 502
l 747 749
l 955 968
l 1207 1208
l 1212 1213
l 21 25
l 34 38
l 50 51
l 62 63
l 69 73
l 78 79
l 90 91
l 97 101
l 105 109
l 118 122
l 125 130
l 130 131
l 401 405
l 406 409
l 449 450
l 453 454
l 457 458
l 462 465
l 483 484
l 487 488
l 491 492
l 730 734
l 743 748
l 756 750
l 759 760
l 763 764
l 762 771
l 774 775
l 780 781
l 791 792
l 798 799
l 809 810
l 816 817
l 827 828
l 833 834
l 844 845
l 851 852
l 862 863
l 869 870
l 868 877
l 880 881
l 887 888
l 886 895
l 898 899
l 903 904
l 921 922
l 928 929
l 939 940
l 946 947
l 958 959
l 964 965
l 975 976
l 982 983
l 977 986
l 993 994
l 1000 1001
l 1011 1012
l 1018 1019
l 1029 1030
l 1036 1037
l 1035 1044
l 1047 1048
l 1064 1054
l 1056 1057
l 1057 1058
l 1061 1062
l 1065 1066
l 1069 1070
l 1073 1074
l 1079 1080
l 1090 1091
l 1097 1098
l 1107 1108
l 1114 1115
l 1109 1122
l 1125 1126
l 1132 1133
l 1142 1143
l 1149 1150
l 1161 1162
l 1168 1169
l 1178 1179
l 1185 1186
l 1195 1196
l 1202 1203
l 1211 1212
l 1215 1216
l 34 37
l 43 46
l 47 41
l 73 74
l 72 75
l 86 88
l 100 103
l 118 121
l 128 129
l 743 744
l 754 755
l 811 824
l 846 859
l 900 901
l 906 907
l 1013 1026
l 1070 1087
o lamp_0
v 1.920474 6.257921 0.015000
v 2.121065 6.385251 0.015000
v 2.116228 6.443960 0.015000
v 2.073453 6.512696 0.015000
v 2.000854 6.548529 0.015000
v 1.934644 6.546377 0.015000
v 1.881419 6.521204 0.015000
v 1.841880 6.477579 0.015000
v 1.822044 6.422142 0.015000
v 1.824933 6.363335 0.015000
v 1.858613 6.297858 0.015000
v 1.986156 6.249291 0.015000
v 2.048887 6.270568 0.015000
v 2.101768 6.321806 0.015000
vn -0.0000 -0.0000 1.0000
vt 0.332570 0.032058
vt 0.995992 0.451112
vt 0.973849 0.643838
vt 0.830859 0.865503
vt 0.596515 0.985702
vt 0.379239 0.982098
vt 0.203942 0.899190
vt 0.073717 0.755508
vt 0.008386 0.572926
vt 0.017900 0.379243
vt 0.134684 0.168950
vt 0.548453 0.007178
vt 0.755502 0.073713
vt 0.923028 0.246806
s 1
f 1217/6/61 1218/7/61 1219/8/61
f 1217/6/61 1219/8/61 1220/9/61
f 1217/6/61 1220/9/61 1221/10/61
f 1217/6/61 1221/10/61 1222/11/61
f 1217/6/61 1222/11/61 1223/12/61
f 1217/6/61 1223/12/61 1224/13/61
f 1217/6/61 1224/13/61 1225/14/61
f 1217/6/61 1225/14/61 1226/15/61
f 1217/6/61 1226/15/61 1227/16/61
f 1217/6/61 1228/17/61 1229/18/61
f 1217/6/61 1229/18/61 1230/19/61
f 1217/6/61 1230/19/61 1218/7/61
o lamp_1
v 2.341484 6.250064 0.015000
v 2.521065 6.385251 0.015000
v 2.517687 6.436666 0.015000
v 2.479408 6.508098 0.015000
v 2.407976 6.546377 0.015000
v 2.356561 6.549756 0.015000
v 2.299922 6.533556 0.015000
v 2.250107 6.489891 0.015000
v 2.224933 6.436666 0.015000
v 2.225019 6.355623 0.015000
v 2.269970 6.288192 0.015000
v 2.422146 6.257921 0.015000
v 2.472650 6.288192 0.015000
v 2.507722 6.335483 0.015000
vn -0.0000 -0.0000 1.0000
vt 0.404072 0.019050
vt 0.995992 0.451112
vt 0.982098 0.620762
vt 0.846930 0.846625
vt 0.620761 0.982098
vt 0.451113 0.995992
vt 0.266481 0.936681
vt 0.100812 0.796060
vt 0.017902 0.620762
vt 0.030766 0.357400
vt 0.166234 0.131757
vt 0.667431 0.032059
vt 0.833766 0.131757
vt 0.949278 0.287511
s 1
f 1231/20/62 1232/21/62 1233/22/62
f 1231/20/62 1233/22/62 1234/23/62
f 1231/20/62 1234/23/62 1235/24/62
f 1231/20/62 1235/24/62 1236/25/62
f 1231/20/62 1236/25/62 1237/26/62
f 1231/20/62 1237/26/62 1238/27/62
f 1231/20/62 1238/27/62 1239/28/62
f 1231/20/62 1239/28/62 1240/29/62
f 1231/20/62 1240/29/62 1241/30/62
f 1231/20/62 1242/31/62 1243/32/62
f 1231/20/62 1243/32/62 1244/33/62
f 1231/20/62 1244/33/62 1232/21/62
o lamp_2
v 2.829262 6.260088 0.015000
v 2.923447 6.414985 0.015000
v 2.892514 6.489891 0.015000
v 2.854913 6.525119 0.015000
v 2.807976 6.546377 0.015000
v 2.741766 6.548529 0.015000
v 2.669167 6.512696 0.015000
v 2.626392 6.443960 0.015000
v 2.621555 6.385251 0.015000
v 2.640852 6.321806 0.015000
v 2.693733 6.270568 0.015000
v 2.756464 6.249291 0.015000
v 2.877717 6.293596 0.015000
v 2.907722 6.335484 0.015000
vn -0.0000 -0.0000 1.0000
vt 0.689589 0.042531
vt 0.988077 0.547856
vt 0.899188 0.796060
vt 0.776864 0.914420
vt 0.620760 0.982098
vt 0.403485 0.985702
vt 0.169141 0.865503
vt 0.026151 0.643838
vt 0.004008 0.451112
vt 0.076972 0.246806
vt 0.244498 0.073713
vt 0.451594 0.007178
vt 0.852396 0.147557
vt 0.949278 0.287513
s 1
f 1245/34/63 1246/35/63 1247/36/63
f 1245/34/63 1247/36/63 1248/37/63
f 1245/34/63 1248/37/63 1249/38/63
f 1245/34/63 1249/38/63 1250/39/63
f 1245/34/63 1250/39/63 1251/40/63
f 1245/34/63 1251/40/63 1252/41/63
f 1245/34/63 1252/41/63 1253/42/63
f 1245/34/63 1253/42/63 1254/43/63
f 1245/34/63 1254/43/63 1255/44/63
f 1245/34/63 1255/44/63 1256/45/63
f 1245/34/63 1257/46/63 1258/47/63
f 1245/34/63 1258/47/63 1246/35/63
o sub_body
v 2.154058 6.136510 -0.135053
v 2.165723 6.145224 -0.126056
v 2.152101 6.146427 -0.135050
v 2.163640 6.155773 -0.126053
v 2.148242 6.155768 -0.135047
v 2.159536 6.165711 -0.126050
v 2.142633 6.164176 -0.135050
v 2.153569 6.174655 -0.126054
v 2.135484 6.171320 -0.135044
v 2.145963 6.182256 -0.126047
v 2.127079 6.176934 -0.135050
v 2.137022 6.188228 -0.126053
v 2.117737 6.180792 -0.135051
v 2.127083 6.192332 -0.126055
v 2.107820 6.182745 -0.135048
v 2.116534 6.194409 -0.126052
v 2.107110 6.189150 -0.130500
v 1.835510 6.189150 -0.130500
v 1.834799 6.182750 -0.135055
v 1.826086 6.194415 -0.126059
v 1.824884 6.180789 -0.135046
v 1.815538 6.192328 -0.126049
v 1.815542 6.176932 -0.135047
v 1.805599 6.188226 -0.126049
v 1.807133 6.171324 -0.135051
v 1.796654 6.182260 -0.126055
v 1.799988 6.164175 -0.135047
v 1.789053 6.174654 -0.126050
v 1.794377 6.155768 -0.135049
v 1.783083 6.165711 -0.126052
v 1.790520 6.146426 -0.135049
v 1.778980 6.155773 -0.126052
v 1.788564 6.136510 -0.135051
v 1.776899 6.145224 -0.126054
v 1.782160 6.135800 -0.130500
v 1.782160 5.864200 -0.130500
v 1.788564 5.863490 -0.135051
v 1.776899 5.854776 -0.126054
v 1.790519 5.853573 -0.135050
v 1.778979 5.844227 -0.126054
v 1.794377 5.844232 -0.135048
v 1.783084 5.834289 -0.126051
v 1.799987 5.835824 -0.135049
v 1.789051 5.825345 -0.126052
v 1.807136 5.828679 -0.135045
v 1.796656 5.817744 -0.126047
v 1.815541 5.823066 -0.135050
v 1.805598 5.811772 -0.126053
v 1.824883 5.819208 -0.135051
v 1.815537 5.807668 -0.126055
v 1.834800 5.817255 -0.135048
v 1.826086 5.805591 -0.126051
v 1.835510 5.810850 -0.130500
v 2.107110 5.810850 -0.130500
v 2.107821 5.817251 -0.135055
v 2.116534 5.805586 -0.126059
v 2.117736 5.819211 -0.135046
v 2.127082 5.807672 -0.126049
v 2.127078 5.823068 -0.135047
v 2.137021 5.811774 -0.126049
v 2.135487 5.828676 -0.135052
v 2.145967 5.817740 -0.126055
v 2.142631 5.835825 -0.135045
v 2.153567 5.825346 -0.126048
v 2.148243 5.844231 -0.135049
v 2.159537 5.834289 -0.126052
v 2.152101 5.853574 -0.135049
v 2.163640 5.844227 -0.126052
v 2.154056 5.863490 -0.135050
v 2.165720 5.854776 -0.126053
v 2.160460 5.864200 -0.130501
v 2.160460 6.135800 -0.130501
v 2.165782 6.145365 -0.126000
v 2.165782 6.145365 -0.018000
v 2.163688 6.155889 -0.126000
v 2.163688 6.155889 -0.018000
v 2.159582 6.165802 -0.126000
v 2.159582 6.165802 -0.018000
v 2.153621 6.174724 -0.126000
v 2.153621 6.174724 -0.018000
v 2.146034 6.182311 -0.126000
v 2.146034 6.182311 -0.018000
v 2.137112 6.188272 -0.126000
v 2.137112 6.188272 -0.018000
v 2.127199 6.192378 -0.126000
v 2.127199 6.192378 -0.018000
v 2.116675 6.194472 -0.126000
v 2.116675 6.194471 -0.018000
v 2.111310 6.195001 -0.072000
v 1.831310 6.195000 -0.126000
v 1.831310 6.195000 -0.018000
v 1.825945 6.194471 -0.126000
v 1.825945 6.194471 -0.018000
v 1.815421 6.192378 -0.126000
v 1.815421 6.192378 -0.018000
v 1.805508 6.188272 -0.126000
v 1.805508 6.188272 -0.018000
v 1.796586 6.182311 -0.126000
v 1.796586 6.182311 -0.018000
v 1.788999 6.174724 -0.126000
v 1.788999 6.174724 -0.018000
v 1.783038 6.165802 -0.126000
v 1.783038 6.165802 -0.018000
v 1.778932 6.155889 -0.126000
v 1.778932 6.155889 -0.018000
v 1.776838 6.145365 -0.126000
v 1.776838 6.145365 -0.018000
v 1.776310 6.140000 -0.126000
v 1.776310 5.860000 -0.126000
v 1.776310 5.860000 -0.018000
v 1.776310 6.140000 -0.018000
v 1.776838 5.854635 -0.126000
v 1.776838 5.854635 -0.018000
v 1.778932 5.844111 -0.126000
v 1.778932 5.844111 -0.018000
v 1.783038 5.834198 -0.126000
v 1.783038 5.834198 -0.018000
v 1.788999 5.825276 -0.126000
v 1.788999 5.825276 -0.018000
v 1.796586 5.817689 -0.126000
v 1.796586 5.817689 -0.018000
v 1.805508 5.811728 -0.126000
v 1.805508 5.811728 -0.018000
v 1.815421 5.807622 -0.126000
v 1.815421 5.807622 -0.018000
v 1.825945 5.805529 -0.126000
v 1.825945 5.805529 -0.018000
v 1.831310 5.805000 -0.126000
v 2.111310 5.805000 -0.126000
v 2.111310 5.805000 -0.018000
v 1.831310 5.805000 -0.018000
v 2.116675 5.805529 -0.126000
v 2.116675 5.805529 -0.018000
v 2.127199 5.807622 -0.126000
v 2.127199 5.807622 -0.018000
v 2.137112 5.811728 -0.126000
v 2.137112 5.811728 -0.018000
v 2.146034 5.817689 -0.126000
v 2.146034 5.817689 -0.018000
v 2.153621 5.825276 -0.126000
v 2.153621 5.825276 -0.018000
v 2.159582 5.834198 -0.126000
v 2.159582 5.834198 -0.018000
v 2.163688 5.844111 -0.126000
v 2.163688 5.844111 -0.018000
v 2.165782 5.854635 -0.126000
v 2.165782 5.854635 -0.018000
v 2.166310 5.860000 -0.126000
v 2.166310 6.140000 -0.126000
v 2.166310 6.140000 -0.018000
v 2.166310 5.860000 -0.018000
v 2.165756 6.145306 -0.017945
v 2.159923 6.140946 -0.006947
v 2.163667 6.155839 -0.017946
v 2.157897 6.151164 -0.006948
v 2.159563 6.165763 -0.017946
v 2.153915 6.160790 -0.006947
v 2.153598 6.174694 -0.017946
v 2.148129 6.169453 -0.006948
v 2.146002 6.182286 -0.017948
v 2.140761 6.176818 -0.006950
v 2.137073 6.188253 -0.017946
v 2.132100 6.182606 -0.006948
v 2.127148 6.192352 -0.017949
v 2.122473 6.186582 -0.006951
v 2.116617 6.194458 -0.017939
v 2.112257 6.188624 -0.006941
v 2.109210 6.192075 -0.012500
v 1.833410 6.192075 -0.012500
v 1.826005 6.194439 -0.017949
v 1.830364 6.188606 -0.006951
v 1.815470 6.192361 -0.017943
v 1.820145 6.186591 -0.006945
v 1.805548 6.188252 -0.017947
v 1.810520 6.182604 -0.006948
v 1.796615 6.182290 -0.017945
v 1.801856 6.176821 -0.006947
v 1.789023 6.174694 -0.017947
v 1.794491 6.169453 -0.006949
v 1.783059 6.165762 -0.017947
v 1.788706 6.160789 -0.006949
v 1.778951 6.155839 -0.017946
v 1.784722 6.151164 -0.006947
v 1.776864 6.145306 -0.017945
v 1.782697 6.140946 -0.006947
v 1.779235 6.137900 -0.012500
v 1.779235 5.862100 -0.012500
v 1.776864 5.854694 -0.017945
v 1.782697 5.859054 -0.006947
v 1.778953 5.844161 -0.017946
v 1.784724 5.848836 -0.006948
v 1.783057 5.834237 -0.017946
v 1.788705 5.839210 -0.006948
v 1.789022 5.825306 -0.017947
v 1.794491 5.830547 -0.006948
v 1.796618 5.817714 -0.017948
v 1.801859 5.823182 -0.006950
v 1.805547 5.811747 -0.017946
v 1.810520 5.817395 -0.006948
v 1.815472 5.807648 -0.017950
v 1.820147 5.813418 -0.006951
v 1.826003 5.805543 -0.017939
v 1.830362 5.811377 -0.006941
v 1.833410 5.807925 -0.012500
v 2.109210 5.807925 -0.012500
v 2.116615 5.805561 -0.017949
v 2.112256 5.811394 -0.006951
v 2.127150 5.807639 -0.017944
v 2.122475 5.813409 -0.006945
v 2.137073 5.811748 -0.017947
v 2.132099 5.817396 -0.006948
v 2.146005 5.817710 -0.017945
v 2.140764 5.823179 -0.006947
v 2.153597 5.825306 -0.017947
v 2.148129 5.830547 -0.006949
v 2.159561 5.834238 -0.017947
v 2.153914 5.839211 -0.006949
v 2.163668 5.844161 -0.017945
v 2.157898 5.848836 -0.006947
v 2.165756 5.854694 -0.017945
v 2.159923 5.859054 -0.006947
v 2.163385 5.862100 -0.012500
v 2.163385 6.137900 -0.012500
v 2.143730 5.827580 -0.135000
v 2.143730 6.172420 -0.135000
v 1.793387 5.822076 -0.007000
v 2.149232 6.177924 -0.007000
v 1.798890 6.172420 -0.135000
v 1.793387 6.177924 -0.007000
v 1.798890 5.827580 -0.135000
v 2.149232 5.822076 -0.007000
v 2.134484 5.946627 0.008000
v 2.134484 5.946627 0.235000
v 2.131639 5.947558 0.008000
v 2.131638 5.947558 0.235000
v 2.129741 5.937347 0.235000
v 2.139817 5.969059 0.235000
v 2.139758 5.966837 0.008000
v 2.139758 5.966837 0.235000
v 2.136820 5.967415 0.008000
v 2.136820 5.967415 0.235000
v 2.142539 5.987539 0.008000
v 2.142539 5.987539 0.235000
v 2.139552 5.987756 0.008000
v 2.139552 5.987756 0.235000
v 2.143111 6.018967 0.235000
v 2.142785 6.008424 0.008000
v 2.142785 6.008424 0.235000
v 2.139794 6.008277 0.008000
v 2.139794 6.008277 0.235000
v 2.133525 6.055845 0.235000
v 2.140493 6.029185 0.008000
v 2.140493 6.029185 0.235000
v 2.137542 6.028676 0.008000
v 2.137542 6.028676 0.235000
v 2.135697 6.049514 0.008000
v 2.135697 6.049514 0.235000
v 2.132829 6.048650 0.008000
v 2.132829 6.048650 0.235000
v 2.128467 6.069110 0.008000
v 2.128467 6.069110 0.235000
v 2.125726 6.067904 0.008000
v 2.125726 6.067904 0.235000
v 2.108217 6.102998 0.235000
v 2.118912 6.087683 0.008000
v 2.118912 6.087683 0.235000
v 2.116337 6.086154 0.008000
v 2.116337 6.086154 0.235000
v 2.107171 6.104959 0.008000
v 2.107172 6.104959 0.235000
v 2.104802 6.103127 0.008000
v 2.104802 6.103127 0.235000
v 2.080812 6.131226 0.235000
v 2.093420 6.120680 0.008000
v 2.093420 6.120680 0.235000
v 2.091290 6.118575 0.008000
v 2.091290 6.118575 0.235000
v 2.077861 6.134615 0.008000
v 2.077861 6.134615 0.235000
v 2.076003 6.132268 0.008000
v 2.076003 6.132268 0.235000
v 2.060726 6.146558 0.008000
v 2.060726 6.146558 0.235000
v 2.059166 6.144002 0.008000
v 2.059166 6.144002 0.235000
v 2.041908 6.155542 0.235000
v 2.042266 6.156332 0.008000
v 2.042267 6.156332 0.235000
v 2.041029 6.153605 0.008000
v 2.041029 6.153605 0.235000
v 2.022757 6.163792 0.008000
v 2.022757 6.163792 0.235000
v 2.021860 6.160935 0.008000
v 2.021860 6.160935 0.235000
v 2.002327 6.167974 0.235000
v 2.002486 6.168827 0.008000
v 2.002486 6.168827 0.235000
v 2.001942 6.165883 0.008000
v 2.001942 6.165883 0.235000
v 1.981754 6.171364 0.008000
v 1.981754 6.171364 0.235000
v 1.981571 6.168375 0.008000
v 1.981571 6.168375 0.235000
v 1.949160 6.170155 0.235000
v 1.960866 6.171364 0.008000
v 1.960866 6.171364 0.235000
v 1.961049 6.168375 0.008000
v 1.961049 6.168375 0.235000
v 1.940134 6.168827 0.008000
v 1.940134 6.168827 0.235000
v 1.940678 6.165883 0.008000
v 1.940678 6.165883 0.235000
v 1.904719 6.157405 0.235000
v 1.919863 6.163792 0.008000
v 1.919863 6.163792 0.235000
v 1.920760 6.160935 0.008000
v 1.920760 6.160935 0.235000
v 1.900353 6.156332 0.008000
v 1.900354 6.156332 0.235000
v 1.901591 6.153605 0.008000
v 1.901591 6.153605 0.235000
v 1.881894 6.146558 0.008000
v 1.881894 6.146558 0.235000
v 1.883454 6.144002 0.008000
v 1.883454 6.144002 0.235000
v 1.861809 6.131227 0.235000
v 1.864758 6.134615 0.008000
v 1.864759 6.134615 0.235000
v 1.866617 6.132268 0.008000
v 1.866617 6.132267 0.235000
v 1.849200 6.120680 0.008000
v 1.849200 6.120680 0.235000
v 1.851330 6.118575 0.008000
v 1.851330 6.118575 0.235000
v 1.834947 6.105348 0.235000
v 1.835449 6.104959 0.008000
v 1.835449 6.104959 0.235000
v 1.837818 6.103127 0.008000
v 1.837818 6.103127 0.235000
v 1.815375 6.070966 0.235000
v 1.823709 6.087683 0.008000
v 1.823709 6.087683 0.235000
v 1.826283 6.086154 0.008000
v 1.826283 6.086154 0.235000
v 1.814153 6.069110 0.008000
v 1.814153 6.069110 0.235000
v 1.816894 6.067904 0.008000
v 1.816894 6.067904 0.235000
v 1.803693 6.033398 0.235000
v 1.806924 6.049514 0.008000
v 1.806924 6.049514 0.235000
v 1.809791 6.048650 0.008000
v 1.809791 6.048650 0.235000
v 1.802127 6.029185 0.008000
v 1.802127 6.029185 0.235000
v 1.805078 6.028676 0.008000
v 1.805078 6.028676 0.235000
v 1.799835 6.008424 0.008000
v 1.799835 6.008424 0.235000
v 1.802826 6.008277 0.008000
v 1.802826 6.008277 0.235000
v 1.801428 5.975848 0.235000
v 1.800081 5.987539 0.008000
v 1.800081 5.987539 0.235000
v 1.803068 5.987756 0.008000
v 1.803068 5.987756 0.235000
v 1.802862 5.966837 0.008000
v 1.802862 5.966837 0.235000
v 1.805800 5.967416 0.008000
v 1.805800 5.967416 0.235000
v 1.812879 5.937347 0.235000
v 1.808136 5.946627 0.008000
v 1.808136 5.946627 0.235000
v 1.810982 5.947558 0.008000
v 1.810982 5.947558 0.235000
v 1.971310 6.140000 -0.095000
v 1.971310 6.280000 -0.095000
v 1.971310 6.140000 -0.055000
v 1.971310 6.280000 -0.055000
v 1.951310 6.140000 -0.075000
v 1.951310 6.280000 -0.075000
v 1.991310 6.140000 -0.075000
v 1.991310 6.280000 -0.075000
v 1.971310 6.140000 -0.095000
v 1.971310 6.140000 -0.055000
v 1.971310 6.280000 -0.095000
v 1.971310 6.280000 -0.055000
v 1.829070 6.117696 -0.141286
v 1.833212 6.113211 -0.146000
v 1.833212 6.113211 -0.135000
v 1.848832 6.113794 -0.139400
v 1.847861 6.127861 -0.146000
v 1.847861 6.127861 -0.135000
v 1.844023 6.129714 -0.140500
v 2.089697 6.115732 -0.140500
v 2.093211 6.113212 -0.146000
v 2.093211 6.113212 -0.135000
v 2.109714 6.115976 -0.140500
v 2.107861 6.127861 -0.146000
v 2.107861 6.127861 -0.135000
v 2.104024 6.129714 -0.140500
vn -0.0000 1.0000 -0.0000
vn -1.0000 -0.0000 -0.0000
vn -0.0000 -1.0000 -0.0000
vn 1.0000 -0.0000 -0.0000
vn -0.0000 -0.0000 -1.0000
vn -0.0000 -0.0000 1.0000
vt 0.500000 0.500000
vt 0.049805 0.950195
vt 0.049805 0.950195
vt 0.049805 0.950195
s 1
f 1347/48/64 1348/48/64 1349/48/64
f 1366/48/65 1367/48/65 1368/48/65
f 1366/48/65 1368/48/65 1369/48/65
f 1386/48/66 1387/48/66 1388/48/66
f 1386/48/66 1388/48/66 1389/48/66
f 1406/48/67 1407/48/67 1408/48/67
f 1406/48/67 1408/48/67 1409/48/67
f 1482/48/68 1486/48/68 1483/48/68
f 1484/48/69 1485/48/69 1487/48/69
f 1482/48/68 1488/48/68 1486/48/68
f 1484/48/69 1489/48/69 1485/48/69
f 1495/49/69 1504/49/69 1509/50/69
f 1584/49/69 1593/49/69 1598/51/69
l 1259 1260
l 1261 1262
l 1263 1264
l 1265 1266
l 1267 1268
l 1269 1270
l 1271 1272
l 1273 1274
l 1275 1276
l 1277 1278
l 1279 1280
l 1281 1282
l 1283 1284
l 1285 1286
l 1287 1288
l 1289 1290
l 1291 1292
l 1293 1294
l 1295 1296
l 1297 1298
l 1299 1300
l 1301 1302
l 1303 1304
l 1305 1306
l 1307 1308
l 1309 1310
l 1311 1312
l 1313 1314
l 1315 1316
l 1317 1318
l 1319 1320
l 1321 1322
l 1323 1324
l 1325 1326
l 1327 1328
l 1329 1330
l 1331 1332
l 1333 1334
l 1335 1336
l 1337 1338
l 1339 1340
l 1341 1342
l 1343 1344
l 1345 1346
l 1350 1351
l 1352 1353
l 1354 1355
l 1356 1357
l 1358 1359
l 1360 1361
l 1362 1363
l 1364 1365
l 1370 1371
l 1372 1373
l 1374 1375
l 1376 1377
l 1378 1379
l 1380 1381
l 1382 1383
l 1384 1385
l 1390 1391
l 1392 1393
l 1394 1395
l 1396 1397
l 1398 1399
l 1400 1401
l 1402 1403
l 1404 1405
l 1410 1411
l 1412 1413
l 1414 1415
l 1416 1417
l 1418 1419
l 1420 1421
l 1422 1423
l 1424 1425
l 1426 1427
l 1428 1429
l 1430 1431
l 1432 1433
l 1434 1435
l 1436 1437
l 1438 1439
l 1440 1441
l 1442 1443
l 1444 1445
l 1446 1447
l 1448 1449
l 1450 1451
l 1452 1453
l 1454 1455
l 1456 1457
l 1458 1459
l 1460 1461
l 1462 1463
l 1464 1465
l 1466 1467
l 1468 1469
l 1470 1471
l 1472 1473
l 1474 1475
l 1476 1477
l 1478 1479
l 1480 1481
l 1490 1491
l 1492 1493
l 1494 1495
l 1496 1497
l 1498 1499
l 1500 1501
l 1502 1503
l 1505 1506
l 1507 1508
l 1510 1511
l 1512 1513
l 1514 1515
l 1516 1517
l 1518 1519
l 1520 1521
l 1509 1522
l 1523 1524
l 1525 1526
l 1527 1528
l 1529 1530
l 1522 1531
l 1532 1533
l 1534 1535
l 1536 1537
l 1538 1539
l 1540 1541
l 1542 1543
l 1531 1544
l 1545 1546
l 1547 1548
l 1549 1550
l 1551 1552
l 1544 1553
l 1554 1555
l 1556 1557
l 1558 1559
l 1560 1561
l 1553 1562
l 1563 1564
l 1565 1566
l 1567 1568
l 1569 1570
l 1562 1571
l 1572 1573
l 1574 1575
l 1576 1577
l 1578 1579
l 1580 1581
l 1582 1583
l 1571 1584
l 1585 1586
l 1587 1588
l 1589 1590
l 1591 1592
l 1594 1595
l 1596 1597
l 1599 1600
l 1601 1602
l 1603 1604
l 1605 1606
l 1598 1607
l 1608 1609
l 1610 1611
l 1612 1613
l 1614 1615
l 1616 1617
l 1618 1619
l 1607 1620
l 1621 1622
l 1623 1624
l 1625 1626
l 1627 1628
l 1620 1629
l 1630 1631
l 1632 1633
l 1634 1635
l 1636 1637
l 1638 1639
l 1640 1641
l 1642 1643
l 1644 1645
l 1646 1649
l 1647 1650
l 1648 1651
l 1649 1652
l 1652 1646
l 1653 1656
l 1654 1657
l 1655 1658
l 1656 1659
l 1659 1653
o sub_lamp
v 1.920475 6.142079 0.015000
v 2.122749 6.000000 0.015000
v 2.107722 6.064517 0.015000
v 2.072648 6.111809 0.015000
v 2.001133 6.149936 0.015000
v 1.869972 6.111809 0.015000
v 1.834898 6.064517 0.015000
v 1.819871 6.000000 0.015000
v 1.834898 5.935483 0.015000
v 1.869972 5.888191 0.015000
v 1.920475 5.857921 0.015000
v 2.001133 5.850064 0.015000
v 2.072648 5.888191 0.015000
v 2.107722 5.935483 0.015000
vn -0.0000 -0.0000 1.0000
vt 0.332573 0.967944
vt 0.995194 0.500140
vt 0.949277 0.712490
vt 0.833760 0.868246
vt 0.595461 0.981037
vt 0.166240 0.868247
vt 0.050723 0.712490
vt 0.004806 0.500140
vt 0.050723 0.287510
vt 0.166240 0.131753
vt 0.332573 0.032056
vt 0.595461 0.018963
vt 0.833760 0.131754
vt 0.949277 0.287510
s 1
f 1660/52/70 1661/53/70 1662/54/70
f 1660/52/70 1662/54/70 1663/55/70
f 1660/52/70 1663/55/70 1664/56/70
f 1660/52/70 1665/57/70 1666/58/70
f 1660/52/70 1666/58/70 1667/59/70
f 1660/52/70 1667/59/70 1668/60/70
f 1660/52/70 1668/60/70 1669/61/70
f 1660/52/70 1669/61/70 1670/62/70
f 1660/52/70 1670/62/70 1671/63/70
f 1660/52/70 1671/63/70 1672/64/70
f 1660/52/70 1672/64/70 1673/65/70
f 1660/52/70 1673/65/70 1661/53/70
