# Village covered roadside drain; all coordinates are metres.
# Authored width 0.320 m preserves the existing structural gutter allocation.
# Top Y=0.000 m matches road/shoulder. Recessed cover joints are 0.004 m deep.
# The 1.000 m authored cover module is resampled by the existing road renderer.
# These are game asset dimensions, not a universal construction standard.

o center
v 0.000000 -0.004000 0.000000
v 0.000000 -0.004000 0.004000
v 0.008000 0.000000 0.004000
vn -0.447213595 0.894427191 0.000000000
f 1//1 2//1 3//1
v 0.000000 -0.004000 0.000000
v 0.008000 0.000000 0.004000
v 0.008000 -0.004000 0.000000
vn 0.000000000 0.707106781 -0.707106781
f 4//2 5//2 6//2
v 0.008000 -0.004000 0.000000
v 0.008000 0.000000 0.004000
v 0.312000 0.000000 0.004000
vn 0.000000000 0.707106781 -0.707106781
f 7//3 8//3 9//3
v 0.008000 -0.004000 0.000000
v 0.312000 0.000000 0.004000
v 0.312000 -0.004000 0.000000
vn 0.000000000 0.707106781 -0.707106781
f 10//4 11//4 12//4
v 0.312000 -0.004000 0.000000
v 0.312000 0.000000 0.004000
v 0.320000 -0.004000 0.004000
vn 0.333333333 0.666666667 -0.666666667
f 13//5 14//5 15//5
v 0.312000 -0.004000 0.000000
v 0.320000 -0.004000 0.004000
v 0.320000 -0.004000 0.000000
vn 0.000000000 1.000000000 0.000000000
f 16//6 17//6 18//6
v 0.000000 -0.004000 0.004000
v 0.000000 -0.004000 0.996000
v 0.008000 0.000000 0.996000
vn -0.447213595 0.894427191 0.000000000
f 19//7 20//7 21//7
v 0.000000 -0.004000 0.004000
v 0.008000 0.000000 0.996000
v 0.008000 0.000000 0.004000
vn -0.447213595 0.894427191 0.000000000
f 22//8 23//8 24//8
v 0.008000 0.000000 0.004000
v 0.008000 0.000000 0.996000
v 0.312000 0.000000 0.996000
vn 0.000000000 1.000000000 0.000000000
f 25//9 26//9 27//9
v 0.008000 0.000000 0.004000
v 0.312000 0.000000 0.996000
v 0.312000 0.000000 0.004000
vn 0.000000000 1.000000000 0.000000000
f 28//10 29//10 30//10
v 0.312000 0.000000 0.004000
v 0.312000 0.000000 0.996000
v 0.320000 -0.004000 0.996000
vn 0.447213595 0.894427191 -0.000000000
f 31//11 32//11 33//11
v 0.312000 0.000000 0.004000
v 0.320000 -0.004000 0.996000
v 0.320000 -0.004000 0.004000
vn 0.447213595 0.894427191 0.000000000
f 34//12 35//12 36//12
v 0.000000 -0.004000 0.996000
v 0.000000 -0.004000 1.000000
v 0.008000 -0.004000 1.000000
vn 0.000000000 1.000000000 0.000000000
f 37//13 38//13 39//13
v 0.000000 -0.004000 0.996000
v 0.008000 -0.004000 1.000000
v 0.008000 0.000000 0.996000
vn -0.333333333 0.666666667 0.666666667
f 40//14 41//14 42//14
v 0.008000 0.000000 0.996000
v 0.008000 -0.004000 1.000000
v 0.312000 -0.004000 1.000000
vn 0.000000000 0.707106781 0.707106781
f 43//15 44//15 45//15
v 0.008000 0.000000 0.996000
v 0.312000 -0.004000 1.000000
v 0.312000 0.000000 0.996000
vn -0.000000000 0.707106781 0.707106781
f 46//16 47//16 48//16
v 0.312000 0.000000 0.996000
v 0.312000 -0.004000 1.000000
v 0.320000 -0.004000 1.000000
vn 0.000000000 0.707106781 0.707106781
f 49//17 50//17 51//17
v 0.312000 0.000000 0.996000
v 0.320000 -0.004000 1.000000
v 0.320000 -0.004000 0.996000
vn 0.447213595 0.894427191 0.000000000
f 52//18 53//18 54//18

o center_lod1
v 0.000000 -0.004000 0.000000
v 0.000000 -0.004000 1.000000
v 0.008000 0.000000 1.000000
vn -0.447213595 0.894427191 0.000000000
f 55//19 56//19 57//19
v 0.000000 -0.004000 0.000000
v 0.008000 0.000000 1.000000
v 0.008000 0.000000 0.000000
vn -0.447213595 0.894427191 0.000000000
f 58//20 59//20 60//20
v 0.008000 0.000000 0.000000
v 0.008000 0.000000 1.000000
v 0.312000 0.000000 1.000000
vn 0.000000000 1.000000000 0.000000000
f 61//21 62//21 63//21
v 0.008000 0.000000 0.000000
v 0.312000 0.000000 1.000000
v 0.312000 0.000000 0.000000
vn 0.000000000 1.000000000 0.000000000
f 64//22 65//22 66//22
v 0.312000 0.000000 0.000000
v 0.312000 0.000000 1.000000
v 0.320000 -0.004000 1.000000
vn 0.447213595 0.894427191 -0.000000000
f 67//23 68//23 69//23
v 0.312000 0.000000 0.000000
v 0.320000 -0.004000 1.000000
v 0.320000 -0.004000 0.000000
vn 0.447213595 0.894427191 0.000000000
f 70//24 71//24 72//24
