mtllib residential_004.mtl
o residential_004
v -3.25 0 -3.6
v 3.25 0 -3.6
v 3.25 0 3.6
v -3.25 0 3.6
v -3.25 5.4 -3.6
v 3.25 5.4 -3.6
v 3.25 5.4 3.6
v -3.25 5.4 3.6
usemtl WallA
f 1 3 2
f 1 4 3
f 5 6 7
f 5 7 8
f 1 2 6
f 1 6 5
f 4 8 7
f 4 7 3
f 1 5 8
f 1 8 4
f 2 3 7
f 2 7 6
v -3.6 5.4 -3.9
v 3.6 5.4 -3.9
v 3.6 5.4 3.9
v -3.6 5.4 3.9
v 0 7 -3.9
v 0 7 3.9
usemtl RoofDark
f 9 10 13
f 12 14 11
f 9 13 14
f 9 14 12
f 10 11 14
f 10 14 13
v -4.8 0 0.36
v -3.43 0 0.36
v -3.43 0 4.15
v -4.8 0 4.15
v -4.8 2.05 0.36
v -3.43 2.05 0.36
v -3.43 2.05 4.15
v -4.8 2.05 4.15
usemtl Concrete
f 15 17 16
f 15 18 17
f 19 20 21
f 19 21 22
f 15 16 20
f 15 20 19
f 18 22 21
f 18 21 17
f 15 19 22
f 15 22 18
f 16 17 21
f 16 21 20
v 0.52 0.05 4.08
v 2.47 0.05 4.08
v 2.47 0.05 6.75
v 0.52 0.05 6.75
v 0.52 0.52 4.08
v 2.47 0.52 4.08
v 2.47 0.52 6.75
v 0.52 0.52 6.75
usemtl CarDark
f 23 25 24
f 23 26 25
f 27 28 29
f 27 29 30
f 23 24 28
f 23 28 27
f 26 30 29
f 26 29 25
f 23 27 30
f 23 30 26
f 24 25 29
f 24 29 28
v -4.95 0.02 -4.3
v 4.95 0.02 -4.3
v 4.95 0.02 -3.78
v -4.95 0.02 -3.78
v -4.95 0.05 -4.3
v 4.95 0.05 -4.3
v 4.95 0.05 -3.78
v -4.95 0.05 -3.78
usemtl Soil
f 31 33 32
f 31 34 33
f 35 36 37
f 35 37 38
f 31 32 36
f 31 36 35
f 34 38 37
f 34 37 33
f 31 35 38
f 31 38 34
f 32 33 37
f 32 37 36
v -2.08 1.05 -3.66
v -0.78 1.05 -3.66
v -0.78 1.05 -3.52
v -2.08 1.05 -3.52
v -2.08 1.77 -3.66
v -0.78 1.77 -3.66
v -0.78 1.77 -3.52
v -2.08 1.77 -3.52
usemtl Glass
f 39 41 40
f 39 42 41
f 43 44 45
f 43 45 46
f 39 40 44
f 39 44 43
f 42 46 45
f 42 45 41
f 39 43 46
f 39 46 42
f 40 41 45
f 40 45 44
v 0.52 1.05 -3.66
v 1.95 1.05 -3.66
v 1.95 1.05 -3.52
v 0.52 1.05 -3.52
v 0.52 1.77 -3.66
v 1.95 1.77 -3.66
v 1.95 1.77 -3.52
v 0.52 1.77 -3.52
usemtl Glass
f 47 49 48
f 47 50 49
f 51 52 53
f 51 53 54
f 47 48 52
f 47 52 51
f 50 54 53
f 50 53 49
f 47 51 54
f 47 54 50
f 48 49 53
f 48 53 52
v 3.45 0 -3.1
v 4.45 0 -3.1
v 4.45 0 2.9
v 3.45 0 2.9
v 3.45 1 -3.1
v 4.45 1 -3.1
v 4.45 1 2.9
v 3.45 1 2.9
usemtl Green
f 55 57 56
f 55 58 57
f 59 60 61
f 59 61 62
f 55 56 60
f 55 60 59
f 58 62 61
f 58 61 57
f 55 59 62
f 55 62 58
f 56 57 61
f 56 61 60
