mtllib residential_009.mtl
o residential_009
v -4.9 0 -4.4
v 4.9 0 -4.4
v 4.9 0 4.4
v -4.9 0 4.4
v -4.9 31 -4.4
v 4.9 31 -4.4
v 4.9 31 4.4
v -4.9 31 4.4
usemtl WallB
f 1 3 2
f 1 4 3
f 5 6 7
f 5 7 8
f 1 2 6
f 1 6 5
f 4 8 7
f 4 7 3
f 1 5 8
f 1 8 4
f 2 3 7
f 2 7 6
v -5.15 31 -4.65
v 5.15 31 -4.65
v 5.15 31 4.65
v -5.15 31 4.65
v -5.15 31.55 -4.65
v 5.15 31.55 -4.65
v 5.15 31.55 4.65
v -5.15 31.55 4.65
usemtl RoofTile
f 9 11 10
f 9 12 11
f 13 14 15
f 13 15 16
f 9 10 14
f 9 14 13
f 12 16 15
f 12 15 11
f 9 13 16
f 9 16 12
f 10 11 15
f 10 15 14
v -3.136 1.05 -4.46
v -1.176 1.05 -4.46
v -1.176 1.05 -4.32
v -3.136 1.05 -4.32
v -3.136 1.77 -4.46
v -1.176 1.77 -4.46
v -1.176 1.77 -4.32
v -3.136 1.77 -4.32
usemtl Glass
f 17 19 18
f 17 20 19
f 21 22 23
f 21 23 24
f 17 18 22
f 17 22 21
f 20 24 23
f 20 23 19
f 17 21 24
f 17 24 20
f 18 19 23
f 18 23 22
v 0.784 1.05 -4.46
v 2.94 1.05 -4.46
v 2.94 1.05 -4.32
v 0.784 1.05 -4.32
v 0.784 1.77 -4.46
v 2.94 1.77 -4.46
v 2.94 1.77 -4.32
v 0.784 1.77 -4.32
usemtl Glass
f 25 27 26
f 25 28 27
f 29 30 31
f 29 31 32
f 25 26 30
f 25 30 29
f 28 32 31
f 28 31 27
f 25 29 32
f 25 32 28
f 26 27 31
f 26 31 30
v -4.116 0.92 -4.68
v 4.116 0.92 -4.68
v 4.116 0.92 -4.46
v -4.116 0.92 -4.46
v -4.116 1.09 -4.68
v 4.116 1.09 -4.68
v 4.116 1.09 -4.46
v -4.116 1.09 -4.46
usemtl Concrete
f 33 35 34
f 33 36 35
f 37 38 39
f 37 39 40
f 33 34 38
f 33 38 37
f 36 40 39
f 36 39 35
f 33 37 40
f 33 40 36
f 34 35 39
f 34 39 38
v -4.97 1.05 -1.936
v -4.83 1.05 -1.936
v -4.83 1.05 1.936
v -4.97 1.05 1.936
v -4.97 1.77 -1.936
v -4.83 1.77 -1.936
v -4.83 1.77 1.936
v -4.97 1.77 1.936
usemtl Glass
f 41 43 42
f 41 44 43
f 45 46 47
f 45 47 48
f 41 42 46
f 41 46 45
f 44 48 47
f 44 47 43
f 41 45 48
f 41 48 44
f 42 43 47
f 42 47 46
v -3.136 3.9 -4.46
v -1.176 3.9 -4.46
v -1.176 3.9 -4.32
v -3.136 3.9 -4.32
v -3.136 4.62 -4.46
v -1.176 4.62 -4.46
v -1.176 4.62 -4.32
v -3.136 4.62 -4.32
usemtl Glass
f 49 51 50
f 49 52 51
f 53 54 55
f 53 55 56
f 49 50 54
f 49 54 53
f 52 56 55
f 52 55 51
f 49 53 56
f 49 56 52
f 50 51 55
f 50 55 54
v 0.784 3.9 -4.46
v 2.94 3.9 -4.46
v 2.94 3.9 -4.32
v 0.784 3.9 -4.32
v 0.784 4.62 -4.46
v 2.94 4.62 -4.46
v 2.94 4.62 -4.32
v 0.784 4.62 -4.32
usemtl Glass
f 57 59 58
f 57 60 59
f 61 62 63
f 61 63 64
f 57 58 62
f 57 62 61
f 60 64 63
f 60 63 59
f 57 61 64
f 57 64 60
f 58 59 63
f 58 63 62
v -4.116 3.77 -4.68
v 4.116 3.77 -4.68
v 4.116 3.77 -4.46
v -4.116 3.77 -4.46
v -4.116 3.94 -4.68
v 4.116 3.94 -4.68
v 4.116 3.94 -4.46
v -4.116 3.94 -4.46
usemtl Concrete
f 65 67 66
f 65 68 67
f 69 70 71
f 69 71 72
f 65 66 70
f 65 70 69
f 68 72 71
f 68 71 67
f 65 69 72
f 65 72 68
f 66 67 71
f 66 71 70
v -4.97 3.9 -1.936
v -4.83 3.9 -1.936
v -4.83 3.9 1.936
v -4.97 3.9 1.936
v -4.97 4.62 -1.936
v -4.83 4.62 -1.936
v -4.83 4.62 1.936
v -4.97 4.62 1.936
usemtl Glass
f 73 75 74
f 73 76 75
f 77 78 79
f 77 79 80
f 73 74 78
f 73 78 77
f 76 80 79
f 76 79 75
f 73 77 80
f 73 80 76
f 74 75 79
f 74 79 78
v -3.136 6.75 -4.46
v -1.176 6.75 -4.46
v -1.176 6.75 -4.32
v -3.136 6.75 -4.32
v -3.136 7.47 -4.46
v -1.176 7.47 -4.46
v -1.176 7.47 -4.32
v -3.136 7.47 -4.32
usemtl Glass
f 81 83 82
f 81 84 83
f 85 86 87
f 85 87 88
f 81 82 86
f 81 86 85
f 84 88 87
f 84 87 83
f 81 85 88
f 81 88 84
f 82 83 87
f 82 87 86
v 0.784 6.75 -4.46
v 2.94 6.75 -4.46
v 2.94 6.75 -4.32
v 0.784 6.75 -4.32
v 0.784 7.47 -4.46
v 2.94 7.47 -4.46
v 2.94 7.47 -4.32
v 0.784 7.47 -4.32
usemtl Glass
f 89 91 90
f 89 92 91
f 93 94 95
f 93 95 96
f 89 90 94
f 89 94 93
f 92 96 95
f 92 95 91
f 89 93 96
f 89 96 92
f 90 91 95
f 90 95 94
v -4.116 6.62 -4.68
v 4.116 6.62 -4.68
v 4.116 6.62 -4.46
v -4.116 6.62 -4.46
v -4.116 6.79 -4.68
v 4.116 6.79 -4.68
v 4.116 6.79 -4.46
v -4.116 6.79 -4.46
usemtl Concrete
f 97 99 98
f 97 100 99
f 101 102 103
f 101 103 104
f 97 98 102
f 97 102 101
f 100 104 103
f 100 103 99
f 97 101 104
f 97 104 100
f 98 99 103
f 98 103 102
v -4.97 6.75 -1.936
v -4.83 6.75 -1.936
v -4.83 6.75 1.936
v -4.97 6.75 1.936
v -4.97 7.47 -1.936
v -4.83 7.47 -1.936
v -4.83 7.47 1.936
v -4.97 7.47 1.936
usemtl Glass
f 105 107 106
f 105 108 107
f 109 110 111
f 109 111 112
f 105 106 110
f 105 110 109
f 108 112 111
f 108 111 107
f 105 109 112
f 105 112 108
f 106 107 111
f 106 111 110
v -3.136 9.6 -4.46
v -1.176 9.6 -4.46
v -1.176 9.6 -4.32
v -3.136 9.6 -4.32
v -3.136 10.32 -4.46
v -1.176 10.32 -4.46
v -1.176 10.32 -4.32
v -3.136 10.32 -4.32
usemtl Glass
f 113 115 114
f 113 116 115
f 117 118 119
f 117 119 120
f 113 114 118
f 113 118 117
f 116 120 119
f 116 119 115
f 113 117 120
f 113 120 116
f 114 115 119
f 114 119 118
v 0.784 9.6 -4.46
v 2.94 9.6 -4.46
v 2.94 9.6 -4.32
v 0.784 9.6 -4.32
v 0.784 10.32 -4.46
v 2.94 10.32 -4.46
v 2.94 10.32 -4.32
v 0.784 10.32 -4.32
usemtl Glass
f 121 123 122
f 121 124 123
f 125 126 127
f 125 127 128
f 121 122 126
f 121 126 125
f 124 128 127
f 124 127 123
f 121 125 128
f 121 128 124
f 122 123 127
f 122 127 126
v -4.116 9.47 -4.68
v 4.116 9.47 -4.68
v 4.116 9.47 -4.46
v -4.116 9.47 -4.46
v -4.116 9.64 -4.68
v 4.116 9.64 -4.68
v 4.116 9.64 -4.46
v -4.116 9.64 -4.46
usemtl Concrete
f 129 131 130
f 129 132 131
f 133 134 135
f 133 135 136
f 129 130 134
f 129 134 133
f 132 136 135
f 132 135 131
f 129 133 136
f 129 136 132
f 130 131 135
f 130 135 134
v -4.97 9.6 -1.936
v -4.83 9.6 -1.936
v -4.83 9.6 1.936
v -4.97 9.6 1.936
v -4.97 10.32 -1.936
v -4.83 10.32 -1.936
v -4.83 10.32 1.936
v -4.97 10.32 1.936
usemtl Glass
f 137 139 138
f 137 140 139
f 141 142 143
f 141 143 144
f 137 138 142
f 137 142 141
f 140 144 143
f 140 143 139
f 137 141 144
f 137 144 140
f 138 139 143
f 138 143 142
v -3.136 12.45 -4.46
v -1.176 12.45 -4.46
v -1.176 12.45 -4.32
v -3.136 12.45 -4.32
v -3.136 13.17 -4.46
v -1.176 13.17 -4.46
v -1.176 13.17 -4.32
v -3.136 13.17 -4.32
usemtl Glass
f 145 147 146
f 145 148 147
f 149 150 151
f 149 151 152
f 145 146 150
f 145 150 149
f 148 152 151
f 148 151 147
f 145 149 152
f 145 152 148
f 146 147 151
f 146 151 150
v 0.784 12.45 -4.46
v 2.94 12.45 -4.46
v 2.94 12.45 -4.32
v 0.784 12.45 -4.32
v 0.784 13.17 -4.46
v 2.94 13.17 -4.46
v 2.94 13.17 -4.32
v 0.784 13.17 -4.32
usemtl Glass
f 153 155 154
f 153 156 155
f 157 158 159
f 157 159 160
f 153 154 158
f 153 158 157
f 156 160 159
f 156 159 155
f 153 157 160
f 153 160 156
f 154 155 159
f 154 159 158
v -4.116 12.32 -4.68
v 4.116 12.32 -4.68
v 4.116 12.32 -4.46
v -4.116 12.32 -4.46
v -4.116 12.49 -4.68
v 4.116 12.49 -4.68
v 4.116 12.49 -4.46
v -4.116 12.49 -4.46
usemtl Concrete
f 161 163 162
f 161 164 163
f 165 166 167
f 165 167 168
f 161 162 166
f 161 166 165
f 164 168 167
f 164 167 163
f 161 165 168
f 161 168 164
f 162 163 167
f 162 167 166
v -4.97 12.45 -1.936
v -4.83 12.45 -1.936
v -4.83 12.45 1.936
v -4.97 12.45 1.936
v -4.97 13.17 -1.936
v -4.83 13.17 -1.936
v -4.83 13.17 1.936
v -4.97 13.17 1.936
usemtl Glass
f 169 171 170
f 169 172 171
f 173 174 175
f 173 175 176
f 169 170 174
f 169 174 173
f 172 176 175
f 172 175 171
f 169 173 176
f 169 176 172
f 170 171 175
f 170 175 174
v -3.136 15.3 -4.46
v -1.176 15.3 -4.46
v -1.176 15.3 -4.32
v -3.136 15.3 -4.32
v -3.136 16.02 -4.46
v -1.176 16.02 -4.46
v -1.176 16.02 -4.32
v -3.136 16.02 -4.32
usemtl Glass
f 177 179 178
f 177 180 179
f 181 182 183
f 181 183 184
f 177 178 182
f 177 182 181
f 180 184 183
f 180 183 179
f 177 181 184
f 177 184 180
f 178 179 183
f 178 183 182
v 0.784 15.3 -4.46
v 2.94 15.3 -4.46
v 2.94 15.3 -4.32
v 0.784 15.3 -4.32
v 0.784 16.02 -4.46
v 2.94 16.02 -4.46
v 2.94 16.02 -4.32
v 0.784 16.02 -4.32
usemtl Glass
f 185 187 186
f 185 188 187
f 189 190 191
f 189 191 192
f 185 186 190
f 185 190 189
f 188 192 191
f 188 191 187
f 185 189 192
f 185 192 188
f 186 187 191
f 186 191 190
v -4.116 15.17 -4.68
v 4.116 15.17 -4.68
v 4.116 15.17 -4.46
v -4.116 15.17 -4.46
v -4.116 15.34 -4.68
v 4.116 15.34 -4.68
v 4.116 15.34 -4.46
v -4.116 15.34 -4.46
usemtl Concrete
f 193 195 194
f 193 196 195
f 197 198 199
f 197 199 200
f 193 194 198
f 193 198 197
f 196 200 199
f 196 199 195
f 193 197 200
f 193 200 196
f 194 195 199
f 194 199 198
v -4.97 15.3 -1.936
v -4.83 15.3 -1.936
v -4.83 15.3 1.936
v -4.97 15.3 1.936
v -4.97 16.02 -1.936
v -4.83 16.02 -1.936
v -4.83 16.02 1.936
v -4.97 16.02 1.936
usemtl Glass
f 201 203 202
f 201 204 203
f 205 206 207
f 205 207 208
f 201 202 206
f 201 206 205
f 204 208 207
f 204 207 203
f 201 205 208
f 201 208 204
f 202 203 207
f 202 207 206
v -3.136 18.15 -4.46
v -1.176 18.15 -4.46
v -1.176 18.15 -4.32
v -3.136 18.15 -4.32
v -3.136 18.87 -4.46
v -1.176 18.87 -4.46
v -1.176 18.87 -4.32
v -3.136 18.87 -4.32
usemtl Glass
f 209 211 210
f 209 212 211
f 213 214 215
f 213 215 216
f 209 210 214
f 209 214 213
f 212 216 215
f 212 215 211
f 209 213 216
f 209 216 212
f 210 211 215
f 210 215 214
v 0.784 18.15 -4.46
v 2.94 18.15 -4.46
v 2.94 18.15 -4.32
v 0.784 18.15 -4.32
v 0.784 18.87 -4.46
v 2.94 18.87 -4.46
v 2.94 18.87 -4.32
v 0.784 18.87 -4.32
usemtl Glass
f 217 219 218
f 217 220 219
f 221 222 223
f 221 223 224
f 217 218 222
f 217 222 221
f 220 224 223
f 220 223 219
f 217 221 224
f 217 224 220
f 218 219 223
f 218 223 222
v -4.116 18.02 -4.68
v 4.116 18.02 -4.68
v 4.116 18.02 -4.46
v -4.116 18.02 -4.46
v -4.116 18.19 -4.68
v 4.116 18.19 -4.68
v 4.116 18.19 -4.46
v -4.116 18.19 -4.46
usemtl Concrete
f 225 227 226
f 225 228 227
f 229 230 231
f 229 231 232
f 225 226 230
f 225 230 229
f 228 232 231
f 228 231 227
f 225 229 232
f 225 232 228
f 226 227 231
f 226 231 230
v -4.97 18.15 -1.936
v -4.83 18.15 -1.936
v -4.83 18.15 1.936
v -4.97 18.15 1.936
v -4.97 18.87 -1.936
v -4.83 18.87 -1.936
v -4.83 18.87 1.936
v -4.97 18.87 1.936
usemtl Glass
f 233 235 234
f 233 236 235
f 237 238 239
f 237 239 240
f 233 234 238
f 233 238 237
f 236 240 239
f 236 239 235
f 233 237 240
f 233 240 236
f 234 235 239
f 234 239 238
v -3.136 21 -4.46
v -1.176 21 -4.46
v -1.176 21 -4.32
v -3.136 21 -4.32
v -3.136 21.72 -4.46
v -1.176 21.72 -4.46
v -1.176 21.72 -4.32
v -3.136 21.72 -4.32
usemtl Glass
f 241 243 242
f 241 244 243
f 245 246 247
f 245 247 248
f 241 242 246
f 241 246 245
f 244 248 247
f 244 247 243
f 241 245 248
f 241 248 244
f 242 243 247
f 242 247 246
v 0.784 21 -4.46
v 2.94 21 -4.46
v 2.94 21 -4.32
v 0.784 21 -4.32
v 0.784 21.72 -4.46
v 2.94 21.72 -4.46
v 2.94 21.72 -4.32
v 0.784 21.72 -4.32
usemtl Glass
f 249 251 250
f 249 252 251
f 253 254 255
f 253 255 256
f 249 250 254
f 249 254 253
f 252 256 255
f 252 255 251
f 249 253 256
f 249 256 252
f 250 251 255
f 250 255 254
v -4.116 20.87 -4.68
v 4.116 20.87 -4.68
v 4.116 20.87 -4.46
v -4.116 20.87 -4.46
v -4.116 21.04 -4.68
v 4.116 21.04 -4.68
v 4.116 21.04 -4.46
v -4.116 21.04 -4.46
usemtl Concrete
f 257 259 258
f 257 260 259
f 261 262 263
f 261 263 264
f 257 258 262
f 257 262 261
f 260 264 263
f 260 263 259
f 257 261 264
f 257 264 260
f 258 259 263
f 258 263 262
v -4.97 21 -1.936
v -4.83 21 -1.936
v -4.83 21 1.936
v -4.97 21 1.936
v -4.97 21.72 -1.936
v -4.83 21.72 -1.936
v -4.83 21.72 1.936
v -4.97 21.72 1.936
usemtl Glass
f 265 267 266
f 265 268 267
f 269 270 271
f 269 271 272
f 265 266 270
f 265 270 269
f 268 272 271
f 268 271 267
f 265 269 272
f 265 272 268
f 266 267 271
f 266 271 270
v -3.136 23.85 -4.46
v -1.176 23.85 -4.46
v -1.176 23.85 -4.32
v -3.136 23.85 -4.32
v -3.136 24.57 -4.46
v -1.176 24.57 -4.46
v -1.176 24.57 -4.32
v -3.136 24.57 -4.32
usemtl Glass
f 273 275 274
f 273 276 275
f 277 278 279
f 277 279 280
f 273 274 278
f 273 278 277
f 276 280 279
f 276 279 275
f 273 277 280
f 273 280 276
f 274 275 279
f 274 279 278
v 0.784 23.85 -4.46
v 2.94 23.85 -4.46
v 2.94 23.85 -4.32
v 0.784 23.85 -4.32
v 0.784 24.57 -4.46
v 2.94 24.57 -4.46
v 2.94 24.57 -4.32
v 0.784 24.57 -4.32
usemtl Glass
f 281 283 282
f 281 284 283
f 285 286 287
f 285 287 288
f 281 282 286
f 281 286 285
f 284 288 287
f 284 287 283
f 281 285 288
f 281 288 284
f 282 283 287
f 282 287 286
v -4.116 23.72 -4.68
v 4.116 23.72 -4.68
v 4.116 23.72 -4.46
v -4.116 23.72 -4.46
v -4.116 23.89 -4.68
v 4.116 23.89 -4.68
v 4.116 23.89 -4.46
v -4.116 23.89 -4.46
usemtl Concrete
f 289 291 290
f 289 292 291
f 293 294 295
f 293 295 296
f 289 290 294
f 289 294 293
f 292 296 295
f 292 295 291
f 289 293 296
f 289 296 292
f 290 291 295
f 290 295 294
v -4.97 23.85 -1.936
v -4.83 23.85 -1.936
v -4.83 23.85 1.936
v -4.97 23.85 1.936
v -4.97 24.57 -1.936
v -4.83 24.57 -1.936
v -4.83 24.57 1.936
v -4.97 24.57 1.936
usemtl Glass
f 297 299 298
f 297 300 299
f 301 302 303
f 301 303 304
f 297 298 302
f 297 302 301
f 300 304 303
f 300 303 299
f 297 301 304
f 297 304 300
f 298 299 303
f 298 303 302
v -3.136 26.7 -4.46
v -1.176 26.7 -4.46
v -1.176 26.7 -4.32
v -3.136 26.7 -4.32
v -3.136 27.42 -4.46
v -1.176 27.42 -4.46
v -1.176 27.42 -4.32
v -3.136 27.42 -4.32
usemtl Glass
f 305 307 306
f 305 308 307
f 309 310 311
f 309 311 312
f 305 306 310
f 305 310 309
f 308 312 311
f 308 311 307
f 305 309 312
f 305 312 308
f 306 307 311
f 306 311 310
v 0.784 26.7 -4.46
v 2.94 26.7 -4.46
v 2.94 26.7 -4.32
v 0.784 26.7 -4.32
v 0.784 27.42 -4.46
v 2.94 27.42 -4.46
v 2.94 27.42 -4.32
v 0.784 27.42 -4.32
usemtl Glass
f 313 315 314
f 313 316 315
f 317 318 319
f 317 319 320
f 313 314 318
f 313 318 317
f 316 320 319
f 316 319 315
f 313 317 320
f 313 320 316
f 314 315 319
f 314 319 318
v -4.116 26.57 -4.68
v 4.116 26.57 -4.68
v 4.116 26.57 -4.46
v -4.116 26.57 -4.46
v -4.116 26.74 -4.68
v 4.116 26.74 -4.68
v 4.116 26.74 -4.46
v -4.116 26.74 -4.46
usemtl Concrete
f 321 323 322
f 321 324 323
f 325 326 327
f 325 327 328
f 321 322 326
f 321 326 325
f 324 328 327
f 324 327 323
f 321 325 328
f 321 328 324
f 322 323 327
f 322 327 326
v -4.97 26.7 -1.936
v -4.83 26.7 -1.936
v -4.83 26.7 1.936
v -4.97 26.7 1.936
v -4.97 27.42 -1.936
v -4.83 27.42 -1.936
v -4.83 27.42 1.936
v -4.97 27.42 1.936
usemtl Glass
f 329 331 330
f 329 332 331
f 333 334 335
f 333 335 336
f 329 330 334
f 329 334 333
f 332 336 335
f 332 335 331
f 329 333 336
f 329 336 332
f 330 331 335
f 330 335 334
v 5.1 0 -3.9
v 6.1 0 -3.9
v 6.1 0 3.7
v 5.1 0 3.7
v 5.1 1 -3.9
v 6.1 1 -3.9
v 6.1 1 3.7
v 5.1 1 3.7
usemtl Green
f 337 339 338
f 337 340 339
f 341 342 343
f 341 343 344
f 337 338 342
f 337 342 341
f 340 344 343
f 340 343 339
f 337 341 344
f 337 344 340
f 338 339 343
f 338 343 342
