mtllib residential_007.mtl
o residential_007
v -4.5 0 -4
v 4.5 0 -4
v 4.5 0 4
v -4.5 0 4
v -4.5 16 -4
v 4.5 16 -4
v 4.5 16 4
v -4.5 16 4
usemtl WallD
f 1 3 2
f 1 4 3
f 5 6 7
f 5 7 8
f 1 2 6
f 1 6 5
f 4 8 7
f 4 7 3
f 1 5 8
f 1 8 4
f 2 3 7
f 2 7 6
v -4.75 16 -4.25
v 4.75 16 -4.25
v 4.75 16 4.25
v -4.75 16 4.25
v -4.75 16.5 -4.25
v 4.75 16.5 -4.25
v 4.75 16.5 4.25
v -4.75 16.5 4.25
usemtl RoofMetal
f 9 11 10
f 9 12 11
f 13 14 15
f 13 15 16
f 9 10 14
f 9 14 13
f 12 16 15
f 12 15 11
f 9 13 16
f 9 16 12
f 10 11 15
f 10 15 14
v -2.88 1.05 -4.06
v -1.08 1.05 -4.06
v -1.08 1.05 -3.92
v -2.88 1.05 -3.92
v -2.88 1.77 -4.06
v -1.08 1.77 -4.06
v -1.08 1.77 -3.92
v -2.88 1.77 -3.92
usemtl Glass
f 17 19 18
f 17 20 19
f 21 22 23
f 21 23 24
f 17 18 22
f 17 22 21
f 20 24 23
f 20 23 19
f 17 21 24
f 17 24 20
f 18 19 23
f 18 23 22
v 0.72 1.05 -4.06
v 2.7 1.05 -4.06
v 2.7 1.05 -3.92
v 0.72 1.05 -3.92
v 0.72 1.77 -4.06
v 2.7 1.77 -4.06
v 2.7 1.77 -3.92
v 0.72 1.77 -3.92
usemtl Glass
f 25 27 26
f 25 28 27
f 29 30 31
f 29 31 32
f 25 26 30
f 25 30 29
f 28 32 31
f 28 31 27
f 25 29 32
f 25 32 28
f 26 27 31
f 26 31 30
v -3.78 0.92 -4.28
v 3.78 0.92 -4.28
v 3.78 0.92 -4.06
v -3.78 0.92 -4.06
v -3.78 1.09 -4.28
v 3.78 1.09 -4.28
v 3.78 1.09 -4.06
v -3.78 1.09 -4.06
usemtl Concrete
f 33 35 34
f 33 36 35
f 37 38 39
f 37 39 40
f 33 34 38
f 33 38 37
f 36 40 39
f 36 39 35
f 33 37 40
f 33 40 36
f 34 35 39
f 34 39 38
v -4.57 1.05 -1.76
v -4.43 1.05 -1.76
v -4.43 1.05 1.76
v -4.57 1.05 1.76
v -4.57 1.77 -1.76
v -4.43 1.77 -1.76
v -4.43 1.77 1.76
v -4.57 1.77 1.76
usemtl Glass
f 41 43 42
f 41 44 43
f 45 46 47
f 45 47 48
f 41 42 46
f 41 46 45
f 44 48 47
f 44 47 43
f 41 45 48
f 41 48 44
f 42 43 47
f 42 47 46
v -2.88 3.9 -4.06
v -1.08 3.9 -4.06
v -1.08 3.9 -3.92
v -2.88 3.9 -3.92
v -2.88 4.62 -4.06
v -1.08 4.62 -4.06
v -1.08 4.62 -3.92
v -2.88 4.62 -3.92
usemtl Glass
f 49 51 50
f 49 52 51
f 53 54 55
f 53 55 56
f 49 50 54
f 49 54 53
f 52 56 55
f 52 55 51
f 49 53 56
f 49 56 52
f 50 51 55
f 50 55 54
v 0.72 3.9 -4.06
v 2.7 3.9 -4.06
v 2.7 3.9 -3.92
v 0.72 3.9 -3.92
v 0.72 4.62 -4.06
v 2.7 4.62 -4.06
v 2.7 4.62 -3.92
v 0.72 4.62 -3.92
usemtl Glass
f 57 59 58
f 57 60 59
f 61 62 63
f 61 63 64
f 57 58 62
f 57 62 61
f 60 64 63
f 60 63 59
f 57 61 64
f 57 64 60
f 58 59 63
f 58 63 62
v -3.78 3.77 -4.28
v 3.78 3.77 -4.28
v 3.78 3.77 -4.06
v -3.78 3.77 -4.06
v -3.78 3.94 -4.28
v 3.78 3.94 -4.28
v 3.78 3.94 -4.06
v -3.78 3.94 -4.06
usemtl Concrete
f 65 67 66
f 65 68 67
f 69 70 71
f 69 71 72
f 65 66 70
f 65 70 69
f 68 72 71
f 68 71 67
f 65 69 72
f 65 72 68
f 66 67 71
f 66 71 70
v -4.57 3.9 -1.76
v -4.43 3.9 -1.76
v -4.43 3.9 1.76
v -4.57 3.9 1.76
v -4.57 4.62 -1.76
v -4.43 4.62 -1.76
v -4.43 4.62 1.76
v -4.57 4.62 1.76
usemtl Glass
f 73 75 74
f 73 76 75
f 77 78 79
f 77 79 80
f 73 74 78
f 73 78 77
f 76 80 79
f 76 79 75
f 73 77 80
f 73 80 76
f 74 75 79
f 74 79 78
v -2.88 6.75 -4.06
v -1.08 6.75 -4.06
v -1.08 6.75 -3.92
v -2.88 6.75 -3.92
v -2.88 7.47 -4.06
v -1.08 7.47 -4.06
v -1.08 7.47 -3.92
v -2.88 7.47 -3.92
usemtl Glass
f 81 83 82
f 81 84 83
f 85 86 87
f 85 87 88
f 81 82 86
f 81 86 85
f 84 88 87
f 84 87 83
f 81 85 88
f 81 88 84
f 82 83 87
f 82 87 86
v 0.72 6.75 -4.06
v 2.7 6.75 -4.06
v 2.7 6.75 -3.92
v 0.72 6.75 -3.92
v 0.72 7.47 -4.06
v 2.7 7.47 -4.06
v 2.7 7.47 -3.92
v 0.72 7.47 -3.92
usemtl Glass
f 89 91 90
f 89 92 91
f 93 94 95
f 93 95 96
f 89 90 94
f 89 94 93
f 92 96 95
f 92 95 91
f 89 93 96
f 89 96 92
f 90 91 95
f 90 95 94
v -3.78 6.62 -4.28
v 3.78 6.62 -4.28
v 3.78 6.62 -4.06
v -3.78 6.62 -4.06
v -3.78 6.79 -4.28
v 3.78 6.79 -4.28
v 3.78 6.79 -4.06
v -3.78 6.79 -4.06
usemtl Concrete
f 97 99 98
f 97 100 99
f 101 102 103
f 101 103 104
f 97 98 102
f 97 102 101
f 100 104 103
f 100 103 99
f 97 101 104
f 97 104 100
f 98 99 103
f 98 103 102
v -4.57 6.75 -1.76
v -4.43 6.75 -1.76
v -4.43 6.75 1.76
v -4.57 6.75 1.76
v -4.57 7.47 -1.76
v -4.43 7.47 -1.76
v -4.43 7.47 1.76
v -4.57 7.47 1.76
usemtl Glass
f 105 107 106
f 105 108 107
f 109 110 111
f 109 111 112
f 105 106 110
f 105 110 109
f 108 112 111
f 108 111 107
f 105 109 112
f 105 112 108
f 106 107 111
f 106 111 110
v -2.88 9.6 -4.06
v -1.08 9.6 -4.06
v -1.08 9.6 -3.92
v -2.88 9.6 -3.92
v -2.88 10.32 -4.06
v -1.08 10.32 -4.06
v -1.08 10.32 -3.92
v -2.88 10.32 -3.92
usemtl Glass
f 113 115 114
f 113 116 115
f 117 118 119
f 117 119 120
f 113 114 118
f 113 118 117
f 116 120 119
f 116 119 115
f 113 117 120
f 113 120 116
f 114 115 119
f 114 119 118
v 0.72 9.6 -4.06
v 2.7 9.6 -4.06
v 2.7 9.6 -3.92
v 0.72 9.6 -3.92
v 0.72 10.32 -4.06
v 2.7 10.32 -4.06
v 2.7 10.32 -3.92
v 0.72 10.32 -3.92
usemtl Glass
f 121 123 122
f 121 124 123
f 125 126 127
f 125 127 128
f 121 122 126
f 121 126 125
f 124 128 127
f 124 127 123
f 121 125 128
f 121 128 124
f 122 123 127
f 122 127 126
v -3.78 9.47 -4.28
v 3.78 9.47 -4.28
v 3.78 9.47 -4.06
v -3.78 9.47 -4.06
v -3.78 9.64 -4.28
v 3.78 9.64 -4.28
v 3.78 9.64 -4.06
v -3.78 9.64 -4.06
usemtl Concrete
f 129 131 130
f 129 132 131
f 133 134 135
f 133 135 136
f 129 130 134
f 129 134 133
f 132 136 135
f 132 135 131
f 129 133 136
f 129 136 132
f 130 131 135
f 130 135 134
v -4.57 9.6 -1.76
v -4.43 9.6 -1.76
v -4.43 9.6 1.76
v -4.57 9.6 1.76
v -4.57 10.32 -1.76
v -4.43 10.32 -1.76
v -4.43 10.32 1.76
v -4.57 10.32 1.76
usemtl Glass
f 137 139 138
f 137 140 139
f 141 142 143
f 141 143 144
f 137 138 142
f 137 142 141
f 140 144 143
f 140 143 139
f 137 141 144
f 137 144 140
f 138 139 143
f 138 143 142
v -2.88 12.45 -4.06
v -1.08 12.45 -4.06
v -1.08 12.45 -3.92
v -2.88 12.45 -3.92
v -2.88 13.17 -4.06
v -1.08 13.17 -4.06
v -1.08 13.17 -3.92
v -2.88 13.17 -3.92
usemtl Glass
f 145 147 146
f 145 148 147
f 149 150 151
f 149 151 152
f 145 146 150
f 145 150 149
f 148 152 151
f 148 151 147
f 145 149 152
f 145 152 148
f 146 147 151
f 146 151 150
v 0.72 12.45 -4.06
v 2.7 12.45 -4.06
v 2.7 12.45 -3.92
v 0.72 12.45 -3.92
v 0.72 13.17 -4.06
v 2.7 13.17 -4.06
v 2.7 13.17 -3.92
v 0.72 13.17 -3.92
usemtl Glass
f 153 155 154
f 153 156 155
f 157 158 159
f 157 159 160
f 153 154 158
f 153 158 157
f 156 160 159
f 156 159 155
f 153 157 160
f 153 160 156
f 154 155 159
f 154 159 158
v -3.78 12.32 -4.28
v 3.78 12.32 -4.28
v 3.78 12.32 -4.06
v -3.78 12.32 -4.06
v -3.78 12.49 -4.28
v 3.78 12.49 -4.28
v 3.78 12.49 -4.06
v -3.78 12.49 -4.06
usemtl Concrete
f 161 163 162
f 161 164 163
f 165 166 167
f 165 167 168
f 161 162 166
f 161 166 165
f 164 168 167
f 164 167 163
f 161 165 168
f 161 168 164
f 162 163 167
f 162 167 166
v -4.57 12.45 -1.76
v -4.43 12.45 -1.76
v -4.43 12.45 1.76
v -4.57 12.45 1.76
v -4.57 13.17 -1.76
v -4.43 13.17 -1.76
v -4.43 13.17 1.76
v -4.57 13.17 1.76
usemtl Glass
f 169 171 170
f 169 172 171
f 173 174 175
f 173 175 176
f 169 170 174
f 169 174 173
f 172 176 175
f 172 175 171
f 169 173 176
f 169 176 172
f 170 171 175
f 170 175 174
v 4.7 0 -3.5
v 5.7 0 -3.5
v 5.7 0 3.3
v 4.7 0 3.3
v 4.7 1 -3.5
v 5.7 1 -3.5
v 5.7 1 3.3
v 4.7 1 3.3
usemtl Green
f 177 179 178
f 177 180 179
f 181 182 183
f 181 183 184
f 177 178 182
f 177 182 181
f 180 184 183
f 180 183 179
f 177 181 184
f 177 184 180
f 178 179 183
f 178 183 182
