# Blender 4.5.0
# www.blender.org
mtllib residential_002.lod2.mtl
o residential_002
v -2.488061 0.697066 -3.302625
v -2.243508 0.568220 -3.197060
v -2.348119 0.697066 -3.013611
v -2.064682 0.876730 -3.176221
v -2.142474 0.910357 -3.186486
v -2.087460 0.902616 -3.204824
v -2.038100 0.343624 -3.141819
v -2.091748 0.371090 -3.176220
v -1.905708 0.876731 -3.176220
v -1.983500 0.910356 -3.186486
v -1.928487 0.902617 -3.204824
v -1.932775 0.371090 -3.176220
v -1.640751 0.876731 -3.176220
v -1.630539 0.850523 -3.128548
v -1.725306 0.887668 -3.197546
v -1.636027 0.353016 -3.169971
v -1.667818 0.371090 -3.176220
v -1.481777 0.876731 -3.176220
v -1.477053 0.353016 -3.169971
v -1.508844 0.371090 -3.176220
v -1.216821 0.876731 -3.176220
v -1.281396 0.914671 -3.163588
v -1.243887 0.371090 -3.176220
v -1.221109 0.345204 -3.204824
v 1.485737 0.876730 -3.176220
v 1.421162 0.914671 -3.163588
v 1.458671 0.371090 -3.176220
v 1.481449 0.345205 -3.204823
v 1.750694 0.876730 -3.176220
v 1.760907 0.850523 -3.128548
v 1.666139 0.887668 -3.197546
v 1.755419 0.353016 -3.169971
v 1.723628 0.371090 -3.176220
v 1.793693 0.347402 -3.202585
v 1.909668 0.876730 -3.176220
v 1.919881 0.850523 -3.128548
v 1.825114 0.887668 -3.197546
v 1.914393 0.353016 -3.169971
v 1.882602 0.371090 -3.176220
v 2.174625 0.876731 -3.176220
v 2.184838 0.850523 -3.128548
v 2.179349 0.353017 -3.169971
v 2.147558 0.371090 -3.176220
v 2.333599 0.876730 -3.176220
v 2.269024 0.914670 -3.163587
v 2.302136 0.912781 -3.227080
v 2.306532 0.371090 -3.176220
v 2.329310 0.345205 -3.204823
v 2.598555 0.876730 -3.176220
v 2.608768 0.850524 -3.128548
v 2.514000 0.887667 -3.197546
v 2.603279 0.353017 -3.169971
v 2.571489 0.371090 -3.176220
v -3.733750 0.011031 3.407500
v -3.733750 -0.000000 -3.407500
v 3.517670 0.676508 0.762437
v -3.263741 0.671848 0.950292
v 3.517670 3.552765 0.762437
v -2.099412 6.081264 0.064429
v -2.968470 0.072494 -2.353335
v -2.968470 0.369976 2.821169
v 3.516336 0.671848 0.763187
v -2.907680 5.932997 -2.561451
v 3.157180 5.933422 -2.563551
v 3.162628 5.930740 -2.559182
v -2.904732 5.933422 2.563550
v -2.910180 5.930740 2.559181
v 3.160128 5.932997 2.561450
v -3.074601 6.165500 -2.563729
v 0.682485 5.398498 -2.451581
v -3.079752 6.160840 -2.563729
v -3.074601 6.165500 -2.559182
v -2.915331 6.160840 -2.563729
v -2.911854 6.164250 -2.559143
v -3.074601 5.820349 2.559181
v -3.113535 5.795362 2.572659
v -3.079752 5.825009 2.563728
v -3.084903 5.820349 2.568275
v -3.074601 6.165500 2.559181
v -3.079752 6.159916 2.563728
v -0.568111 6.064964 1.777768
v -3.073579 6.165500 2.563728
v -2.912521 6.163266 2.561908
v -2.913033 5.825009 2.563728
v -2.910180 5.820349 2.559181
v -2.915331 5.815690 2.563728
v -2.910180 5.820044 2.563723
v -2.913903 5.820349 -2.563026
v -2.905029 5.815690 -2.563729
v -2.910180 5.820349 -2.563729
v -2.905029 5.825009 -2.563729
v -3.079752 5.820349 -2.563729
v -3.085925 5.820349 -2.559182
v -3.074601 5.820349 -2.559182
v 3.327049 5.820349 -2.563729
v 3.365983 5.795362 -2.572659
v 3.332200 5.825009 -2.563729
v 3.327049 5.820349 -2.559182
v 3.164807 6.165349 2.558968
v 3.167779 6.160840 2.563728
v 3.157477 5.815690 2.563728
v 3.162628 5.820349 2.563728
v 3.157477 5.825009 2.563728
v 3.166351 5.820349 2.563025
v 3.165390 6.159879 -2.563729
v 3.327049 6.165500 -2.559182
v 3.332200 6.159916 -2.563729
v 3.326027 6.165500 -2.563729
v 3.162628 5.820044 -2.563724
v 3.162628 5.820349 -2.559182
v 3.167779 5.815690 -2.563729
v -3.079752 5.825971 -2.710997
v -3.074401 5.820533 -2.711050
v 3.326849 5.820533 2.711049
v 3.332200 5.825971 2.710996
v 3.327049 6.165500 2.559181
v 3.332200 6.160840 2.563728
v 3.337351 6.165500 2.568275
v 3.338373 5.820349 2.559181
v 3.332200 5.820349 2.563728
v 3.327049 5.820349 2.559181
v -0.716190 5.978409 1.777768
v -0.700372 6.026233 -0.292820
v -2.120679 6.017135 -0.292818
v -0.720573 6.080171 -0.233917
v -2.099783 6.082618 -0.235810
v -2.096447 6.075683 -0.230287
v -2.096447 6.084660 0.061866
v -2.099783 6.077724 0.067389
v -0.720573 6.080171 0.065496
v -2.099783 6.082618 0.363018
v -0.720573 6.080171 0.364910
v -2.096447 6.075683 0.368540
v -2.096447 6.084660 0.660693
v -2.099783 6.077724 0.666216
v -0.720573 6.080171 0.664323
v -2.096447 6.075683 0.967367
v -2.099783 6.082618 0.961845
v -0.720573 6.080171 0.963737
v -2.096447 6.084660 1.259520
v -2.099783 6.077724 1.265043
v -0.720573 6.080171 1.263151
v -0.720573 6.080171 1.562564
v -2.099783 6.082618 1.560672
v -2.096447 6.075683 1.566195
v -0.583929 6.017135 -0.292820
v 0.820559 5.978409 1.777768
v 0.836377 6.026233 -0.292820
v 0.815482 6.082618 -0.232025
v 0.812146 6.075683 -0.237548
v -0.563728 6.080171 -0.233917
v -0.559698 6.084660 0.061866
v 0.816176 6.080171 0.065496
v -0.563034 6.077724 0.067389
v 0.816176 6.080171 0.364910
v -0.563034 6.082618 0.363018
v -0.559697 6.075683 0.368540
v 0.815482 6.082618 0.666216
v 0.812146 6.075683 0.660693
v -0.563728 6.080171 0.664323
v -0.563728 6.080171 0.963737
v 0.815482 6.077724 0.961845
v 0.812146 6.084660 0.967367
v -0.559698 6.084660 1.259520
v -0.563034 6.077724 1.265043
v 0.816176 6.080171 1.263151
v -0.563034 6.082618 1.560672
v 0.816176 6.080171 1.562564
v -0.559697 6.075683 1.566195
v 0.952820 6.017135 -0.292820
v 2.373127 6.026233 -0.292818
v 0.968638 5.978409 1.777768
v 0.973021 6.080171 -0.233917
v 2.348895 6.084660 -0.230287
v 2.352231 6.077724 -0.235810
v 2.352231 6.077724 0.063604
v 0.973021 6.080171 0.065496
v 2.348895 6.084660 0.069127
v 2.348895 6.084660 0.368540
v 2.352231 6.077724 0.363018
v 0.973021 6.080171 0.364910
v 2.352231 6.082618 0.666216
v 2.348895 6.075683 0.660693
v 0.973021 6.080171 0.664323
v 0.973021 6.080171 0.963737
v 2.348895 6.084660 0.967367
v 2.352231 6.077724 0.961845
v 2.348895 6.075683 1.259520
v 0.973021 6.080171 1.263151
v 2.352231 6.082618 1.265043
v 0.973021 6.080171 1.562564
v 2.348895 6.084660 1.566195
v 2.352231 6.077724 1.560672
v -2.369724 0.717310 -2.381401
v -2.369723 2.160394 -2.390504
v -0.019502 1.280137 -2.578671
v -1.588733 0.748548 -2.477438
v -2.259326 2.101071 -2.471185
v -0.879672 2.101071 -2.469139
v -2.258386 2.156666 -2.498232
v -2.260638 0.744399 -2.528020
v -2.256134 0.744399 -2.468444
v -1.571751 0.744399 -2.528020
v -1.567247 0.744399 -2.468444
v -1.569499 2.156665 -2.498232
v -0.882863 0.744399 -2.528020
v -0.880611 2.156666 -2.498232
v -0.878360 0.744399 -2.468444
v -0.758731 0.746577 -2.410087
v -2.387474 0.714489 -2.404661
v -2.387474 0.705908 -2.629230
v -0.746274 2.192130 -2.707396
v -2.332574 2.162843 -2.451580
v -0.746276 2.186018 -2.326493
v 0.271950 1.280162 -2.578811
v 2.463197 0.717306 -2.390503
v 2.463198 2.160391 -2.381401
v 0.973146 2.101071 -2.471185
v 1.643739 0.748548 -2.477438
v 2.352801 2.101071 -2.469139
v 0.971834 0.744399 -2.528020
v 0.976337 0.744399 -2.468444
v 0.974086 2.156666 -2.498232
v 1.660721 0.744399 -2.528020
v 1.662973 2.156665 -2.498232
v 1.665225 0.744399 -2.468444
v 2.349609 0.744399 -2.528019
v 2.351861 2.156666 -2.498232
v 2.354113 0.744399 -2.468444
v 2.480948 0.714489 -2.629230
v 0.852205 0.673819 -2.410087
v 2.480948 0.705907 -2.404661
v 0.839749 2.186017 -2.707396
v 0.839749 2.192129 -2.326493
v 2.426048 2.162843 -2.451580
v -3.093293 1.822351 1.433303
v -2.992910 0.692505 0.972782
v -2.986424 0.692504 1.927783
v -3.083743 1.785011 1.051831
v -3.086359 1.785011 1.848737
v -3.093293 0.748549 1.467266
v -3.116846 1.840279 1.847943
v -3.083342 0.744978 1.846154
v -3.150351 0.744978 1.849732
v -3.150351 0.744978 1.452073
v -3.083342 0.744978 1.448495
v -3.116846 1.840280 1.450284
v -3.116846 1.840280 1.052626
v -3.083342 0.744978 1.050837
v -3.150351 0.744978 1.054415
v -3.008291 0.714266 1.961993
v -3.068264 0.715344 0.987129
v -3.267794 0.706131 1.961993
v -2.986424 0.692504 -0.785652
v -3.093293 1.822351 -1.280132
v -2.992910 0.692505 -1.740653
v -3.093293 0.748548 -1.246170
v -3.083743 1.785011 -1.661604
v -3.086359 1.785011 -0.864698
v -3.150351 0.744978 -0.863704
v -3.083342 0.744978 -0.867281
v -3.116846 1.840279 -0.865492
v -3.150351 0.744978 -1.261362
v -3.083342 0.744978 -1.264940
v -3.116846 1.840279 -1.263151
v -3.150351 0.744978 -1.659021
v -3.083342 0.744978 -1.662599
v -3.116846 1.840279 -1.660810
v -3.267794 0.706131 -0.751443
v -3.068264 0.715344 -1.726306
v -3.008291 0.714266 -0.751443
v 1.749721 1.822351 2.935915
v 1.233077 0.695588 2.847375
v 2.304832 0.695587 2.841481
v 1.317632 1.784680 2.927603
v 2.220279 1.784680 2.929674
v 1.788190 0.748549 2.935915
v 2.221634 0.744399 2.986496
v 2.217130 0.744400 2.926922
v 2.219382 1.840278 2.956709
v 1.768955 1.840278 2.956709
v 1.771207 0.744399 2.986496
v 1.766704 0.744400 2.926922
v 1.320781 0.744399 2.986496
v 1.316277 0.744400 2.926922
v 1.318529 1.840278 2.956709
v 2.341262 0.746578 3.082280
v 1.189520 0.706141 2.861288
v 1.189520 0.714256 3.089556
v -1.323776 1.822351 2.935915
v -1.840421 0.695588 2.847375
v -0.768666 0.695587 2.841481
v -0.853219 1.784680 2.929674
v -1.285308 0.748549 2.935915
v -1.755866 1.784680 2.927603
v -0.851864 0.744399 2.986496
v -0.856368 0.744400 2.926922
v -0.854116 1.840278 2.956709
v -1.304542 1.840278 2.956709
v -1.306794 0.744400 2.926922
v -1.302291 0.744399 2.986496
v -1.754968 1.840278 2.956709
v -1.752717 0.744399 2.986496
v -1.757220 0.744400 2.926922
v -0.725106 0.714256 2.861288
v -0.725106 0.706141 3.089556
v -1.876849 0.673820 3.082280
v 3.345741 1.822351 -1.433303
v 3.245358 0.692505 -0.972782
v 3.238872 0.692504 -1.927784
v 3.336191 1.785011 -1.051832
v 3.338807 1.785011 -1.848737
v 3.345741 0.748548 -1.467266
v 3.402799 0.744978 -1.849732
v 3.369294 1.840279 -1.847943
v 3.335790 0.744978 -1.846154
v 3.369294 1.840279 -1.450285
v 3.335790 0.744978 -1.448496
v 3.402799 0.744978 -1.452073
v 3.369294 1.840279 -1.052626
v 3.402799 0.744978 -1.054415
v 3.335790 0.744978 -1.050837
v 3.320883 0.715363 -1.913440
v 3.520242 0.714266 -0.938576
v 3.260739 0.706131 -0.938576
v 3.345741 1.822351 1.280132
v 3.245358 0.692506 1.740653
v 3.238872 0.692504 0.785652
v 3.336191 1.785011 1.661604
v 3.338807 1.785011 0.864698
v 3.345741 0.748549 1.246169
v 3.369294 1.840280 0.865492
v 3.402799 0.744978 0.863703
v 3.335790 0.744978 0.867281
v 3.402799 0.744978 1.261362
v 3.369294 1.840279 1.263151
v 3.335790 0.744978 1.264940
v 3.369294 1.840279 1.660809
v 3.402799 0.744978 1.659020
v 3.335790 0.744978 1.662598
v 3.320883 0.715364 0.799995
v 3.260739 0.706131 1.774859
v 3.520242 0.714266 1.774859
v -2.602830 3.262344 -2.623769
v -0.399946 3.174864 -3.172410
v -0.399944 3.163933 -2.348028
v -2.689147 3.230642 -3.067405
v -2.654202 3.230493 -3.069819
v -2.670869 4.227640 -3.068990
v -1.936055 4.227640 -3.068990
v -1.919389 3.230493 -3.069819
v -1.954334 3.230642 -3.067405
v -1.219520 3.230642 -3.067405
v -1.184576 3.230493 -3.069819
v -1.201242 4.227640 -3.068990
v -0.449762 3.230493 -3.069819
v -0.466429 4.227640 -3.068990
v -0.484707 3.230642 -3.067405
v -2.674216 3.367456 -3.066944
v -2.674200 3.325862 -3.070037
v -0.455031 3.345749 -3.068989
v -2.663234 4.221631 -3.045106
v -2.671719 4.210897 -3.054899
v -2.664182 4.224319 -3.094559
v -0.467279 4.225416 -3.084898
v -0.472430 4.199510 -3.065051
v -0.471186 4.199277 -3.073608
v -0.462818 4.199510 -3.064442
v -0.471739 4.199510 -3.064442
v -0.467279 4.202561 -3.068989
v -0.464294 4.225597 -3.052419
v -2.666816 4.210928 -3.087173
v -2.666568 4.232588 -3.054291
v -2.650608 4.225599 -2.399856
v -2.677277 4.214260 -2.385861
v -2.674554 4.201067 -3.073056
v -2.671719 4.191800 -3.068989
v -2.676871 4.194851 -3.072927
v -2.686482 4.195725 -3.066528
v -2.695225 4.217706 -3.067201
v -2.667258 4.238953 -3.064442
v -2.671719 4.234868 -3.068989
v -2.676180 4.238953 -3.064746
v -2.671719 4.236442 -3.066261
v -0.462703 4.233738 -2.387826
v -0.487696 4.209061 -2.393360
v -0.489520 4.215011 -3.067731
v -0.471739 4.238953 -2.399856
v -0.483928 4.232588 -3.064442
v -0.439856 4.223381 -3.058664
v -0.449260 4.225416 -3.068989
v -0.461786 4.246560 -3.064922
v -0.472430 4.238953 -3.072927
v -0.472430 4.238953 -3.065051
v -0.465020 4.240766 -3.068989
v -0.471739 4.243613 -3.074411
v -0.462818 4.243613 -3.074411
v -0.563571 3.279399 -2.392131
v -2.575427 3.279399 -2.379776
v -1.550265 5.369735 -2.477439
v -2.481860 5.332067 -2.471194
v -1.588733 3.337180 -2.477438
v -0.657138 5.332067 -2.469131
v -2.478699 5.373886 -2.528020
v -2.480950 3.319254 -2.498232
v -2.483202 5.373886 -2.468445
v -1.569499 3.319254 -2.498232
v -1.571751 5.373886 -2.468445
v -1.567247 5.373886 -2.528020
v -0.655796 5.373886 -2.528020
v -0.658048 3.319254 -2.498232
v -0.660300 5.373886 -2.468445
v -2.610022 3.294422 -2.628262
v -2.610023 3.303238 -2.405631
v -0.485826 3.256514 -2.397437
v -0.512526 3.246374 -2.995498
v -0.528367 4.832834 -2.989589
v -0.506818 3.246374 -2.393946
v -1.550804 3.341839 -2.523963
v -2.597679 3.265139 -2.629226
v -2.634625 3.935889 -2.957749
v -1.731297 3.640147 -2.980833
v -2.081344 3.866383 -2.984783
v -2.260353 3.514105 -2.988768
v -1.791115 3.505638 -3.011827
v -2.244323 3.492977 -3.012850
v -1.791115 3.480317 -3.013872
v -1.791115 3.569874 -3.011827
v -2.244323 3.557214 -3.012850
v -1.791115 3.544553 -3.013872
v -2.244323 3.621450 -3.012850
v -1.791115 3.634110 -3.011827
v -1.791115 3.608790 -3.013872
v -2.244322 3.685685 -3.012850
v -1.791116 3.698347 -3.011827
v -1.791115 3.673026 -3.013872
v -2.244323 3.749923 -3.012850
v -1.791115 3.737262 -3.013872
v -1.791115 3.762583 -3.011827
v -1.791115 3.801499 -3.013872
v -2.244323 3.814159 -3.012850
v -1.791115 3.826820 -3.011827
v -2.539390 3.817080 -2.981489
v -2.491549 3.444964 -2.980103
v -2.443706 3.817080 -2.978713
v -2.451277 3.287436 -3.029657
v -2.553016 3.281456 -3.029654
v -2.502147 3.284447 -2.453021
v -1.917121 3.281456 -3.029654
v -1.866249 3.284447 -2.453021
v -1.815380 3.287435 -3.029657
v -2.100168 5.136268 -2.932930
v -2.099782 5.162317 -2.942595
v -0.820224 5.148519 -2.937996
v -2.098501 5.148749 -2.407758
v -2.119538 5.157207 -2.996107
v -2.079658 5.140324 -2.996164
v -0.807866 5.140324 -2.996164
v -0.847746 5.157207 -2.996107
v -0.826709 5.148749 -2.407759
v 2.746646 3.256477 -2.991914
v 0.493418 3.163933 -3.172410
v 0.493420 3.174864 -2.348028
v 0.543325 3.230642 -3.067405
v 0.578270 3.230493 -3.069819
v 0.561603 4.227640 -3.068990
v 1.278139 3.230642 -3.067405
v 1.313083 3.230493 -3.069819
v 1.296416 4.227640 -3.068990
v 2.012952 3.230642 -3.067405
v 2.047896 3.230493 -3.069819
v 2.031229 4.227640 -3.068990
v 2.766043 4.227640 -3.068990
v 2.782710 3.230493 -3.069819
v 2.747765 3.230642 -3.067405
v 0.558271 3.325862 -3.070037
v 2.777441 3.345749 -3.068989
v 0.558255 3.367456 -3.066944
v 0.568289 4.224319 -3.094559
v 2.761286 4.199277 -3.073608
v 2.765193 4.225416 -3.084898
v 2.768178 4.225597 -3.052419
v 0.565656 4.210928 -3.087173
v 0.569237 4.221631 -3.045105
v 0.565214 4.238953 -3.064442
v 0.560753 4.234868 -3.068989
v 0.556292 4.238953 -3.064746
v 0.560753 4.236442 -3.066261
v 0.560753 4.210897 -3.054899
v 0.565904 4.232588 -3.054291
v 0.555195 4.214260 -2.385861
v 0.557918 4.201067 -3.073056
v 0.560753 4.191800 -3.068989
v 0.555602 4.194851 -3.072927
v 0.545990 4.195725 -3.066528
v 0.581864 4.225599 -2.399856
v 0.537247 4.217706 -3.067201
v 2.769769 4.233737 -2.387826
v 2.760732 4.238953 -2.399856
v 2.744775 4.209062 -2.393360
v 2.748544 4.232588 -3.064442
v 2.742952 4.215011 -3.067731
v 2.770685 4.246559 -3.064922
v 2.760042 4.238953 -3.072927
v 2.760042 4.238953 -3.065051
v 2.767451 4.240766 -3.068989
v 2.760732 4.243613 -3.074411
v 2.769653 4.243613 -3.074411
v 2.792616 4.223381 -3.058664
v 2.783212 4.225416 -3.068989
v 2.760042 4.199510 -3.065051
v 2.769653 4.199510 -3.064442
v 2.760732 4.199510 -3.064442
v 2.765193 4.202561 -3.068989
v 1.682207 5.369735 -2.477439
v 0.657045 3.279399 -2.379776
v 2.668901 3.279399 -2.392131
v 0.750612 5.332067 -2.471194
v 1.643739 3.337180 -2.477438
v 2.575334 5.332067 -2.469131
v 0.753774 5.373886 -2.528020
v 0.749270 5.373886 -2.468445
v 0.751522 3.319254 -2.498232
v 1.665225 5.373886 -2.528020
v 1.660721 5.373886 -2.468445
v 1.662973 3.319254 -2.498232
v 2.574424 3.319254 -2.498232
v 2.572172 5.373886 -2.468445
v 2.576675 5.373886 -2.528020
v 2.703496 3.303238 -2.628262
v 2.703497 3.294422 -2.405630
v 0.552325 3.298831 -2.516945
v 2.704105 4.832834 -2.989589
v 2.725654 3.246374 -2.393946
v 2.719946 3.246374 -2.995498
v 0.629642 3.335209 -2.623804
v 1.498700 3.935889 -2.543975
v 1.498700 3.323309 -2.957749
v 1.501174 3.640147 -2.980833
v 1.151128 3.866383 -2.984783
v 0.972119 3.514105 -2.988768
v 0.988149 3.492977 -3.012850
v 1.441357 3.505638 -3.011827
v 1.441357 3.480317 -3.013872
v 1.447542 3.557214 -3.012850
v 0.994335 3.544553 -3.011827
v 0.994335 3.569874 -3.013872
v 1.447542 3.621450 -3.012850
v 0.994335 3.634110 -3.013872
v 0.994335 3.608790 -3.011827
v 0.994335 3.698347 -3.013872
v 1.447542 3.685685 -3.012850
v 0.994335 3.673026 -3.011827
v 0.994335 3.762583 -3.013872
v 1.447542 3.749923 -3.012850
v 0.994335 3.737262 -3.011827
v 1.441357 3.801499 -3.013872
v 1.441357 3.826820 -3.011827
v 0.988149 3.814159 -3.012850
v 0.740924 3.444964 -2.980101
v 0.693081 3.817080 -2.981489
v 0.788767 3.817080 -2.978714
v 0.730326 3.284447 -2.453020
v 0.679456 3.281456 -3.029655
v 0.781195 3.287435 -3.029657
v 1.417091 3.287435 -3.029657
v 1.366224 3.284448 -2.453021
v 1.315351 3.281456 -3.029654
v 1.132691 5.162317 -2.942595
v 1.132304 5.136268 -2.932930
v 2.412248 5.148519 -2.937996
v 1.133970 5.148749 -2.407759
v 1.112934 5.157207 -2.996107
v 1.152814 5.140324 -2.996164
v 2.405762 5.148749 -2.407758
v 2.424606 5.140324 -2.996164
v 2.384726 5.157207 -2.996107
v -2.992911 4.745066 1.927786
v -3.093293 3.624806 1.467266
v -2.986424 4.745067 0.972785
v -3.093293 4.698608 1.433303
v -3.086359 3.652559 1.051831
v -3.083743 3.652559 1.848737
v -3.116846 4.716537 1.847943
v -3.150351 3.621236 1.849732
v -3.083342 3.621236 1.846154
v -3.150351 3.621236 1.452073
v -3.083341 3.621236 1.448495
v -3.116846 4.716537 1.450284
v -3.116846 4.716537 1.052626
v -3.150351 3.621236 1.054415
v -3.083342 3.621236 1.050837
v -3.267794 3.590523 0.938576
v -3.068435 3.591621 1.913440
v -3.008291 3.582388 0.938576
v -2.992911 4.745066 -0.785649
v -3.093293 3.624806 -1.246170
v -2.986424 4.745067 -1.740651
v -3.083743 3.652559 -0.864698
v -3.093293 4.698608 -1.280133
v -3.086359 3.652559 -1.661604
v -3.116846 4.716537 -0.865493
v -3.150351 3.621236 -0.863704
v -3.083342 3.621236 -0.867282
v -3.116846 4.716537 -1.263151
v -3.083342 3.621236 -1.264940
v -3.150351 3.621236 -1.261362
v -3.116846 4.716537 -1.660810
v -3.150351 3.621235 -1.659021
v -3.083342 3.621235 -1.662599
v -3.267794 3.582388 -0.751443
v -3.008291 3.590523 -0.751443
v -3.068264 3.591602 -1.726307
v 1.233079 4.741985 2.841480
v 1.788190 3.624806 2.935915
v 2.304835 4.741983 2.847373
v 2.220279 3.652890 2.927603
v 1.317632 3.652890 2.929674
v 1.749721 4.698608 2.935915
v 2.221634 3.620657 2.986496
v 2.219382 4.716535 2.956709
v 2.217130 3.620657 2.926921
v 1.771207 3.620657 2.986496
v 1.766704 3.620657 2.926921
v 1.768955 4.716535 2.956709
v 1.318529 4.716535 2.956709
v 1.316277 3.620657 2.926921
v 1.320781 3.620657 2.986496
v 1.189520 3.590513 3.089556
v 2.341262 3.622835 3.082280
v 1.189520 3.582399 2.861288
v -0.768663 4.741983 2.847373
v -1.285308 3.624806 2.935915
v -1.840419 4.741985 2.841480
v -1.755866 3.652890 2.929674
v -0.853219 3.652890 2.927603
v -1.323776 4.698608 2.935915
v -0.851864 3.620657 2.986496
v -0.854116 4.716535 2.956709
v -0.856368 3.620657 2.926921
v -1.304542 4.716535 2.956709
v -1.302290 3.620657 2.986496
v -1.306794 3.620657 2.926921
v -1.752717 3.620657 2.986496
v -1.757220 3.620657 2.926921
v -1.754968 4.716535 2.956709
v -1.876849 3.550077 3.082280
v -0.725106 3.582399 3.089556
v -0.725106 3.590513 2.861288
v 3.345741 3.624806 -1.467266
v 3.245359 4.745066 -1.927787
v 3.238872 4.745067 -0.972786
v 3.345741 4.698608 -1.433303
v 3.336191 3.652559 -1.848737
v 3.338807 3.652559 -1.051832
v 3.402799 3.621235 -1.849732
v 3.369294 4.716537 -1.847943
v 3.335790 3.621235 -1.846154
v 3.369294 4.716537 -1.450285
v 3.402799 3.621236 -1.452074
v 3.335789 3.621236 -1.448496
v 3.369294 4.716537 -1.052626
v 3.335789 3.621236 -1.050837
v 3.402799 3.621236 -1.054415
v 3.320712 3.591602 -0.987129
v 3.520242 3.582388 -1.961993
v 3.260739 3.590523 -1.961993
v 3.238872 4.745067 1.740650
v 3.345741 3.624806 1.246169
v 3.245359 4.745066 0.785649
v 3.345741 4.698608 1.280132
v 3.336191 3.652559 0.864698
v 3.338807 3.652559 1.661604
v 3.402799 3.621236 0.863703
v 3.369294 4.716537 0.865492
v 3.335790 3.621236 0.867281
v 3.369294 4.716537 1.263151
v 3.402799 3.621236 1.261362
v 3.335790 3.621236 1.264940
v 3.402799 3.621236 1.659020
v 3.369294 4.716537 1.660809
v 3.335790 3.621236 1.662598
v 3.520243 3.590524 1.774859
v 3.260739 3.582389 1.774859
v 3.320883 3.591621 0.799995
v 0.107255 0.173297 -2.535745
v 0.727021 2.264124 -2.437053
v -0.474573 2.264124 -2.447131
v 0.145193 2.186677 -2.535745
v -0.372761 0.171924 -2.524855
v 0.625209 0.171924 -2.527749
v 0.126224 2.203373 -2.554372
v 0.123936 0.169194 -2.581767
v 0.128512 0.169194 -2.526977
v 0.001372 1.287976 -2.642220
v -0.000955 0.882430 -2.610512
v -0.003282 1.287976 -2.578804
v 0.255730 1.287976 -2.642220
v 0.253403 0.882430 -2.610512
v 0.251077 1.287976 -2.578804
v -0.754209 2.220233 -2.702695
v 0.919590 2.379798 -2.353882
v 0.919589 2.386646 -3.129131
v 0.901032 0.124775 -2.492652
v -0.642150 0.191340 -2.512858
v 0.901032 0.135530 -3.102639
v 2.860724 0.067834 -3.007744
v 3.114777 1.122462 -3.205099
v 3.114789 0.067834 -3.205088
v 3.162628 1.040279 -3.337122
v 2.812885 1.040311 -3.337071
v 2.784894 0.732859 -3.250331
v -3.367090 0.666562 -2.947352
v -3.428228 0.694982 3.136613
v -3.420164 0.044701 3.136613
v 3.672612 0.694982 3.136613
v 3.680676 0.044701 3.136613
v 3.733750 0.666562 -2.947352
v -2.470834 0.429744 -3.181269
v -1.145568 0.072741 -3.326699
v -1.090537 0.450914 -3.170728
v -2.060288 0.335040 -3.227080
v -1.879130 0.343627 -3.141815
v -1.901312 0.335040 -3.227080
v -1.597753 0.347402 -3.202585
v -1.471565 0.850523 -3.128548
v -1.566332 0.887667 -3.197546
v -1.438778 0.347402 -3.202585
v -1.248283 0.912781 -3.227080
v -1.174860 0.345079 -3.164247
v 1.342984 0.450914 -3.191814
v 2.855278 0.073211 -3.208290
v 1.398016 0.072741 -3.035838
v 1.527699 0.345079 -3.164247
v 1.454274 0.912782 -3.227080
v 1.952667 0.347402 -3.202585
v 2.090070 0.887668 -3.197546
v 2.217624 0.347402 -3.202586
v 2.375560 0.345079 -3.164248
v 2.641554 0.347402 -3.202585
v -2.815979 0.044920 2.920938
v -2.783157 5.626123 2.891212
v -2.752455 0.055760 2.859798
v 3.013068 0.044920 2.920937
v 3.045891 5.626123 2.891212
v 3.076592 0.055760 2.859798
v -0.291914 2.100390 2.937228
v -0.315264 0.372444 2.886303
v 0.567713 0.372445 2.877407
v 1.153403 1.668951 2.958658
v 0.794768 1.668951 2.805052
v 0.794808 1.189575 2.804979
v -2.549839 0.752832 2.843389
v -1.323776 0.748549 2.977503
v -2.759336 0.062906 2.922725
v -1.646511 0.457088 2.820305
v -2.175566 0.331046 2.812369
v -1.996557 0.683326 2.816355
v -1.706329 0.297259 2.787267
v -1.706329 0.322580 2.789311
v -2.159536 0.309919 2.788289
v -1.706329 0.361495 2.787267
v -2.159536 0.374156 2.788289
v -1.706329 0.386816 2.789311
v -1.706329 0.451053 2.789311
v -2.159536 0.438392 2.788289
v -1.706329 0.425732 2.787267
v -1.706329 0.489968 2.787267
v -2.159536 0.502629 2.788289
v -1.706329 0.515289 2.789311
v -2.159536 0.566865 2.788289
v -1.706329 0.554205 2.787267
v -1.706329 0.579526 2.789311
v -2.159536 0.631102 2.788289
v -1.706329 0.643762 2.789311
v -1.706329 0.618441 2.787267
v -2.406762 0.261906 2.821037
v -2.358920 0.634023 2.822425
v -2.454604 0.634023 2.819649
v -2.366491 0.104382 2.771484
v -2.468230 0.098400 2.771484
v -2.417360 0.101391 3.348118
v -1.832333 0.098399 2.771484
v -1.781465 0.101391 3.348117
v -1.730594 0.104382 2.771486
vn -0.6709 0.7415 -0.0000
vn 0.6618 -0.0000 0.7497
vn -0.6633 0.7333 0.1490
vn -0.8666 -0.4979 -0.0334
vn 0.1818 -0.2008 0.9626
vn 0.6709 -0.7415 -0.0000
vn -0.1817 0.2009 -0.9626
vn 0.6633 0.7333 -0.1490
vn 0.6447 0.7627 -0.0513
vn -0.6617 -0.0000 0.7497
vn -0.4019 -0.8756 0.2681
vn -0.2376 0.9714 -0.0000
vn -0.4019 -0.8756 0.2680
vn 0.0077 1.0000 -0.0000
vn -0.9730 -0.0000 -0.2308
vn -0.9800 -0.0000 -0.1989
vn -0.9872 -0.0000 -0.1597
vn -0.0000 -0.7071 -0.7071
vn -0.0000 -0.6839 -0.7295
vn -0.0000 -0.8384 -0.5450
vn -0.0000 -0.8365 -0.5480
vn -0.0000 -0.8376 -0.5463
vn -0.0000 0.0012 -1.0000
vn -0.9997 0.0229 -0.0005
vn -0.7905 0.6124 0.0001
vn -0.4420 0.8970 0.0002
vn -0.0000 -1.0000 -0.0000
vn 0.0138 0.9999 -0.0031
vn 0.7083 0.7060 0.0002
vn 0.0137 0.9999 -0.0013
vn -0.9029 -0.4299 -0.0000
vn -0.0094 -0.0045 -0.9999
vn -0.7000 -0.3333 -0.6316
vn -0.0350 0.9994 0.0079
vn -0.7167 0.6974 -0.0007
vn -0.0348 0.9994 0.0030
vn -0.7126 -0.7010 -0.0268
vn -0.0283 -0.0481 -0.9984
vn -0.0000 -0.1446 -0.9895
vn -0.0000 0.9916 -0.1295
vn 0.0131 -0.9998 0.0179
vn 0.0164 -0.9996 0.0223
vn 0.2583 -0.4085 0.8755
vn 0.0003 -0.9918 0.1279
vn 0.0001 -0.9919 0.1272
vn -0.5122 -0.6073 0.6073
vn -0.5336 -0.6497 0.5414
vn -0.5570 -0.6306 0.5405
vn 0.1880 -0.7582 0.6244
vn 0.1845 -0.7489 0.6365
vn 0.1819 -0.7650 0.6179
vn -0.0000 0.7853 -0.6192
vn -0.0000 0.7796 -0.6263
vn -0.0000 0.7849 -0.6196
vn -0.0000 -0.8000 -0.6000
vn -0.0000 -0.7809 -0.6247
vn -0.0397 -0.7821 -0.6219
vn -0.0397 -0.7826 -0.6212
vn -0.0396 -0.7821 -0.6219
vn -0.0000 0.7719 -0.6357
vn -0.0000 0.7761 -0.6306
vn -0.0000 0.7733 -0.6341
vn 0.1702 -0.8073 -0.5651
vn 0.1664 -0.7765 -0.6077
vn 0.1675 -0.7854 -0.5958
vn -0.4750 -0.6760 -0.5633
vn -0.4456 -0.6330 -0.6330
vn -0.4568 -0.6649 -0.5910
vn -0.0429 -0.7831 -0.6204
vn -0.0429 -0.7844 -0.6188
vn -0.0427 -0.7815 -0.6224
vn 0.0224 -0.7796 -0.6258
vn 0.0224 -0.7780 -0.6279
vn 0.0223 -0.7786 -0.6272
vn -0.9274 -0.0227 -0.3734
vn -0.8842 -0.0674 -0.4621
vn 0.6521 -0.6581 -0.3764
vn -0.5946 -0.4686 -0.6533
vn -0.6175 -0.7849 0.0506
vn -0.5352 0.3168 -0.7830
vn -0.5947 -0.4686 -0.6533
vn -0.5352 0.3169 -0.7830
vn 0.6257 -0.0000 -0.7801
vn 0.7962 0.0021 -0.6050
vn -0.8080 -0.2732 0.5220
vn -0.1751 -0.5845 0.7923
vn -0.7745 0.1293 0.6192
vn -0.5415 0.7001 -0.4654
vn -0.3904 0.9206 0.0020
vn -0.8175 -0.1726 -0.5495
vn -0.7745 0.1294 0.6192
vn -0.5422 0.6997 -0.4653
vn -0.8177 -0.1729 -0.5490
vn -0.0000 -0.6986 -0.7155
vn -0.0000 0.6983 -0.7158
vn -0.0131 -0.9998 -0.0178
vn -0.0164 -0.9996 -0.0223
vn 0.7126 -0.7010 0.0268
vn 0.8327 -0.3904 0.3927
vn 0.9932 -0.1150 -0.0190
vn 0.6944 -0.4773 0.5385
vn 0.0715 -0.4677 -0.8810
vn 0.7158 -0.0753 -0.6942
vn 0.3928 -0.5376 -0.7461
vn 0.8327 -0.3903 0.3927
vn 0.6945 -0.4773 0.5384
vn 0.0715 -0.4678 -0.8809
vn 0.7159 -0.0753 -0.6942
vn -0.6256 -0.0000 0.7801
vn -0.7350 0.6780 0.0001
vn -0.8472 0.0025 0.5313
vn 0.1725 0.7303 0.6610
vn 0.0016 -0.9905 0.1377
vn 0.0062 0.1172 0.9931
vn 0.0020 0.7854 0.6189
vn 0.0003 -0.0802 0.9968
vn 0.6269 0.6437 -0.4389
vn 0.0020 0.7855 0.6189
vn 0.0003 -0.0801 0.9968
vn 0.6270 0.6437 -0.4389
vn -0.0276 -0.0306 -0.9992
vn -0.8115 0.4996 0.3030
vn -0.5087 -0.6429 0.5727
vn 0.2604 -0.3831 0.8862
vn -0.1122 -0.1006 -0.9886
vn -0.2424 -0.6787 -0.6933
vn -0.5087 -0.6429 0.5726
vn 0.0011 1.0000 -0.0011
vn -0.0066 1.0000 -0.0042
vn -0.0835 0.3144 -0.9456
vn -0.0001 0.8977 -0.4406
vn 0.4873 0.8731 0.0125
vn -0.0000 -0.0000 -0.0000
vn -0.0001 0.8977 -0.4407
vn 0.4874 0.8731 0.0125
vn -0.0000 0.0012 1.0000
vn 0.0276 -0.0305 0.9992
vn 0.0002 0.6879 0.7258
vn -0.0002 0.6879 -0.7258
vn -0.0000 0.7197 -0.6943
vn -0.0003 0.0017 -1.0000
vn -0.9998 0.0219 -0.0005
vn -0.0000 0.0211 -0.9998
vn 0.7905 0.6124 -0.0001
vn 0.9998 0.0219 0.0005
vn 1.0000 -0.0000 -0.0000
vn -0.0000 0.7197 0.6943
vn 0.9997 0.0229 0.0006
vn -1.0000 -0.0000 -0.0000
vn 0.0003 0.0017 1.0000
vn -0.0000 0.0211 0.9998
vn 0.0503 0.9987 -0.0000
vn 0.0765 0.2347 -0.9691
vn 0.1044 0.3895 -0.9151
vn 0.0976 0.3153 -0.9440
vn -0.0000 -0.0000 -1.0000
vn 1.0000 0.0068 0.0001
vn -0.6708 -0.7416 -0.0000
vn 0.1594 0.5000 0.8512
vn 0.0039 -1.0000 0.0015
vn 0.0029 -0.9988 0.0479
vn 0.2986 -0.0000 0.9544
vn -0.6557 0.0119 -0.7550
vn 0.0077 0.0013 1.0000
vn 0.0032 0.0038 1.0000
vn -0.0000 0.0054 1.0000
vn -0.0089 0.9553 0.2956
vn -0.0729 0.3629 0.9290
vn -0.4649 0.8854 0.0003
vn -0.0053 -0.9978 0.0666
vn -0.0825 0.3417 -0.9362
vn -0.0039 -1.0000 -0.0015
vn -0.0423 -0.0000 -0.9991
vn -0.0185 0.4042 0.9145
vn 0.0885 0.3786 -0.9213
vn -0.9026 0.4305 -0.0006
vn -1.0000 0.0081 -0.0001
vn -0.0009 1.0000 -0.0000
vn -0.0000 -0.0000 1.0000
vn -0.1864 0.4586 0.8689
vn -0.1890 0.3938 0.8996
vn -0.1977 0.3332 0.9219
vn -0.9999 -0.0000 0.0171
vn -0.9999 -0.0000 0.0111
vn -0.9999 -0.0000 -0.0127
vn -0.9998 -0.0000 -0.0196
vn -0.9999 -0.0000 -0.0157
vn 0.5391 -0.8423 -0.0000
vn 0.7526 -0.6585 -0.0000
vn 0.1592 -0.8489 0.5040
vn 0.1278 -0.9086 0.3975
vn 0.1570 -0.8375 0.5234
vn -0.1300 0.9915 -0.0000
vn -0.2390 0.9710 -0.0000
vn -0.1186 0.9929 -0.0000
vn -0.7399 -0.0000 0.6727
vn -0.7071 -0.0000 0.7071
vn -0.9376 0.2364 0.2549
vn -0.9821 -0.0052 -0.1884
vn -0.0010 -0.7202 0.6937
vn 0.0037 -0.4397 0.8981
vn -0.9826 0.1102 -0.1494
vn -0.4300 -0.4480 -0.7838
vn 0.0097 0.0097 -0.9999
vn 0.0022 0.7101 -0.7041
vn -0.4705 0.6673 -0.5774
vn 0.7686 -0.5993 -0.2240
vn 0.5409 0.1115 -0.8337
vn 0.7153 -0.6979 0.0352
vn 0.9825 0.1836 0.0306
vn -0.9614 -0.2753 0.0002
vn -0.3599 -0.9330 0.0047
vn 0.0023 0.8584 0.5130
vn 0.0001 0.6872 0.7265
vn 0.0036 -0.5216 0.8532
vn -0.0416 -0.0471 -0.9980
vn 0.9344 -0.3546 -0.0344
vn 0.8632 -0.5037 -0.0347
vn 0.9135 -0.4054 -0.0340
vn -0.7545 0.6559 0.0232
vn -0.4207 0.9066 0.0322
vn 0.0232 0.7322 -0.6807
vn -0.4739 0.8802 0.0273
vn -0.7413 0.6708 0.0194
vn 0.5340 0.8455 0.0051
vn -0.4243 -0.7071 0.5657
vn -0.4386 -0.6823 0.5848
vn -0.4558 -0.5698 0.6838
vn 0.0079 0.9949 -0.1007
vn 0.0069 0.9938 -0.1107
vn 0.0073 0.9956 -0.0939
vn -0.0000 -0.4008 0.9162
vn -0.0000 -0.4472 0.8944
vn -0.0000 -0.9987 -0.0503
vn -0.0000 0.8170 0.5767
vn -0.0000 0.7704 0.6376
vn 0.9881 0.1528 -0.0151
vn 0.9969 0.0771 -0.0152
vn 0.9870 0.1603 -0.0150
vn -0.9997 -0.0000 -0.0236
vn -0.9926 -0.1194 -0.0235
vn -0.9376 0.2364 0.2548
vn -0.4702 0.6675 -0.5774
vn -0.4206 0.9067 0.0323
vn 0.9135 -0.4055 -0.0340
vn -0.9613 -0.2756 -0.0000
vn -0.7413 0.6709 0.0194
vn 0.0312 0.0039 0.9995
vn 0.0312 0.0078 0.9995
vn -0.0000 1.0000 -0.0000
vn 0.0044 -0.9977 0.0679
vn 0.0044 -0.9973 0.0731
vn -0.1479 -0.9890 -0.0000
vn -0.1459 -0.9893 -0.0000
vn -0.0000 0.4472 -0.8944
vn -0.0000 0.3511 -0.9363
vn -0.9064 0.4144 0.0817
vn -0.8968 0.4348 0.0815
vn -0.0000 0.9995 -0.0312
vn -0.0000 0.9981 -0.0624
vn -0.0000 0.9956 -0.0933
vn 0.0001 -0.9615 0.2747
vn 0.0001 -0.9459 0.3243
vn 0.0001 -0.9558 0.2941
vn -0.0000 -0.9558 -0.2941
vn -0.0000 -0.9701 -0.2425
vn -0.9303 -0.0696 -0.3601
vn -0.8876 -0.0535 -0.4576
vn 0.9474 -0.1060 0.3019
vn -0.1049 -0.0210 0.9943
vn -0.5461 -0.0016 0.8377
vn 0.9704 0.0870 -0.2252
vn -0.8875 -0.0535 -0.4577
vn 0.9474 -0.1060 0.3018
vn 0.9704 0.0870 -0.2251
vn 0.7454 -0.0614 0.6637
vn -0.9459 0.2533 0.2029
vn -0.6302 -0.0896 0.7713
vn -0.5867 -0.0648 -0.8072
vn -0.3359 0.0818 -0.9383
vn 0.9515 0.2266 -0.2083
vn 0.4236 0.0335 0.9052
vn -0.9993 0.0282 -0.0228
vn -0.9115 -0.0810 -0.4032
vn 0.9731 0.0503 -0.2247
vn -0.1661 0.0213 0.9859
vn 0.9601 0.0725 -0.2700
vn 0.0619 -0.8666 0.4952
vn 0.1178 -0.9421 0.3140
vn 0.1483 -0.9889 -0.0000
vn 0.9515 0.2266 -0.2082
vn -0.5750 -0.7227 -0.3834
vn -0.3910 -0.8332 -0.3910
vn -0.3606 -0.5914 -0.7213
vn -0.0190 -0.9523 0.3047
vn -0.0411 -0.9856 0.1643
vn -0.0209 -0.9420 0.3349
vn 0.9701 0.2425 -0.0000
vn -0.3511 -0.9363 -0.0000
vn 0.3163 -0.0000 -0.9487
vn 0.3023 -0.0000 -0.9532
vn 0.0243 -0.0270 -0.9993
vn -0.4734 0.2887 -0.8322
vn 0.2742 -0.3030 0.9127
vn -0.6447 0.7627 0.0512
vn 0.1817 0.2008 0.9626
vn 0.1316 -0.1454 0.9806
vn -0.1818 -0.2009 -0.9626
vn -0.0321 -0.0354 -0.9989
vn 1.0000 -0.0081 0.0006
vn -0.1744 0.5820 0.7942
vn 0.5647 -0.8186 0.1044
vn -0.9606 -0.2745 0.0442
vn 0.2926 0.9024 0.3163
vn 0.2477 0.9672 -0.0567
vn -0.5622 0.5544 0.6136
vn -0.2739 0.8336 -0.4797
vn 0.3034 0.8256 -0.4756
vn -0.0000 -0.8854 -0.4649
vn 0.8493 -0.5232 0.0701
vn -0.3531 -0.3975 0.8470
vn -0.5625 0.5543 0.6135
vn -0.2737 0.8334 -0.4802
vn 0.3036 0.8256 -0.4757
vn -0.9606 -0.2744 0.0442
vn -0.0000 -0.8853 -0.4649
vn 0.8493 -0.5233 0.0701
vn -0.3528 -0.3978 0.8469
vn 0.0232 0.7938 -0.6078
vn -0.2142 0.2201 0.9517
vn -0.0002 -0.1487 -0.9889
vn 0.0001 -1.0000 -0.0000
vn -0.0000 -0.0134 -0.9999
vn -0.0280 -0.9989 -0.0381
vn 0.0006 -0.4755 -0.8797
vn 0.0001 0.7071 -0.7071
vn -0.0000 0.7071 -0.7071
vn -0.0000 0.8944 -0.4472
vn -0.9515 -0.3078 -0.0000
vn -0.9266 -0.3761 -0.0000
vn 0.0694 0.6755 -0.7341
vn -0.8231 -0.1414 -0.5500
vn -0.5260 0.8267 -0.1996
vn -0.8231 -0.1415 -0.5500
vn -0.5260 0.8268 -0.1995
vn -0.0187 0.0206 -0.9996
vn -0.6618 -0.0000 -0.7497
vn -0.0728 0.0117 -0.9973
vn 0.0111 0.0054 0.9999
vn -0.6953 -0.4265 0.5784
vn -0.9786 -0.2045 0.0204
vn -0.6951 -0.4268 0.5785
vn -0.9786 -0.2046 0.0204
vn -0.0000 -0.6984 0.7158
vn -0.0000 0.7259 0.6878
vn 0.6705 -0.7419 -0.0007
vn -0.0000 -0.3366 0.9417
vn 0.0280 -0.9989 0.0381
vn 0.6925 -0.7207 -0.0318
vn -0.6709 0.7416 -0.0000
vn 0.0727 0.0121 0.9973
vn 0.0783 0.0869 -0.9931
vn 0.0020 -0.9996 0.0275
vn 0.6255 0.6422 -0.4431
vn -0.0000 -0.9999 0.0142
vn -0.3793 0.4343 -0.8170
vn -0.3793 0.4344 -0.8170
vn 0.0187 0.0206 0.9996
vn 0.4420 0.8970 -0.0002
vn 0.7350 0.6781 -0.0000
vn -0.0000 1.0000 0.0069
vn 0.0002 -0.1487 0.9889
vn -0.6618 -0.0000 0.7497
vn -0.0000 -0.0003 1.0000
vn 0.0007 -0.0132 0.9999
vn 0.0007 -0.0127 0.9999
vn 0.9998 0.0196 0.0010
vn -0.9999 -0.0136 -0.0010
vn 0.0110 -0.0038 0.9999
vn 0.0111 -0.0123 0.9999
vn -0.9999 0.0152 -0.0010
vn 0.0007 0.0123 -0.9999
vn -0.0007 -0.0123 -0.9999
vn 0.0007 0.0132 -0.9999
vn -0.0007 -0.0132 -0.9999
vn 0.6617 -0.0000 -0.7497
vn 0.4649 0.8854 -0.0003
vn 0.0005 -0.6986 -0.7155
vn -0.0005 -0.6986 0.7155
vn 0.6708 -0.7416 -0.0000
vn -0.9998 0.0209 -0.0010
vn 0.9999 -0.0136 0.0010
vn 0.6709 -0.7415 0.0001
vn 0.9947 -0.0588 -0.0845
vn 0.9346 0.3556 -0.0000
vn -0.0547 0.0032 -0.9985
vn 0.7211 -0.6893 -0.0691
vn 0.9935 -0.0587 -0.0973
vn -0.5050 -0.8610 -0.0598
vn 0.0008 -0.6891 -0.7247
vn 0.5527 0.2442 0.7968
vn -0.5130 0.2086 0.8326
vn 0.2244 -0.0634 0.9724
vn -0.0015 0.9993 0.0364
vn -0.5050 -0.8610 -0.0599
vn -0.0012 0.9993 0.0363
vn -0.5131 0.2085 0.8326
vn 0.7211 -0.6894 -0.0691
vt 0.119744 0.286339
vt 0.119744 0.286437
vt 0.119646 0.286339
vt 0.263399 0.297024
vt 0.263300 0.296926
vt 0.263202 0.296827
vt 0.008885 0.286396
vt 0.008885 0.286278
vt 0.008984 0.286298
vt 0.861153 0.982212
vt 0.861055 0.982218
vt 0.861054 0.982113
vt 0.569734 0.982113
vt 0.569698 0.982175
vt 0.569564 0.982210
vt 0.245431 0.419193
vt 0.245431 0.419291
vt 0.245333 0.419193
vt 0.581362 0.982248
vt 0.581398 0.982308
vt 0.581228 0.982213
vt 0.119788 0.164047
vt 0.119788 0.164164
vt 0.119690 0.164145
vt 0.849462 0.982218
vt 0.849560 0.982210
vt 0.849456 0.982310
vt 0.872783 0.982113
vt 0.872785 0.982252
vt 0.872647 0.982253
vt 0.523599 0.644039
vt 0.523911 0.643856
vt 0.523632 0.643954
vt 0.301396 0.982287
vt 0.301396 0.982117
vt 0.301255 0.982202
vt 0.549977 0.644039
vt 0.550289 0.643856
vt 0.550009 0.643954
vt 0.313093 0.982287
vt 0.313093 0.982117
vt 0.312952 0.982202
vt 0.119647 0.283251
vt 0.808788 0.840992
vt 0.808735 0.814890
vt 0.808860 0.814889
vt 0.119351 0.795551
vt 0.119396 0.821696
vt 0.119221 0.821696
vt 0.186951 0.806198
vt 0.187007 0.832325
vt 0.186913 0.832244
vt 0.361116 0.675481
vt 0.361215 0.559815
vt 0.361208 0.675383
vt 0.116508 0.546678
vt 0.005845 0.546724
vt 0.005777 0.546625
vt 0.374160 0.296827
vt 0.374061 0.296926
vt 0.008947 0.283211
vt 0.245431 0.416108
vt 0.119731 0.167232
vt 0.245432 0.296900
vt 0.248615 0.296900
vt 0.248595 0.296999
vt 0.122901 0.216367
vt 0.263409 0.419316
vt 0.263507 0.419434
vt 0.005776 0.234069
vt 0.009028 0.164104
vt 0.263296 0.841953
vt 0.263202 0.815852
vt 0.263328 0.815851
vt 0.783709 0.843817
vt 0.783615 0.817716
vt 0.783741 0.817716
vt 0.844491 0.563375
vt 0.844397 0.537274
vt 0.844523 0.537273
vt 0.538272 0.801673
vt 0.538328 0.827800
vt 0.538234 0.827720
vt 0.826220 0.693185
vt 0.826371 0.719233
vt 0.826249 0.719307
vt 0.747543 0.840551
vt 0.747449 0.814450
vt 0.747575 0.814450
vt 0.832868 0.774066
vt 0.833019 0.800114
vt 0.832897 0.800188
vt 0.005798 0.807936
vt 0.005990 0.833986
vt 0.005868 0.834060
vt 0.825105 0.638802
vt 0.825297 0.664852
vt 0.825175 0.664925
vt 0.825181 0.373429
vt 0.825372 0.399479
vt 0.825250 0.399553
vt 0.523750 0.601974
vt 0.524008 0.601876
vt 0.523983 0.601974
vt 0.278038 0.982360
vt 0.278122 0.982123
vt 0.278122 0.982558
vt 0.735931 0.922130
vt 0.735652 0.922257
vt 0.735338 0.914236
vt 0.208110 0.982535
vt 0.208287 0.982113
vt 0.208210 0.982552
vt 0.550128 0.601974
vt 0.550386 0.601876
vt 0.550360 0.601974
vt 0.289615 0.982360
vt 0.289699 0.982122
vt 0.289699 0.982557
vt 0.924661 0.020273
vt 0.924382 0.020401
vt 0.924068 0.012379
vt 0.219810 0.982535
vt 0.219986 0.982113
vt 0.219910 0.982552
vt 0.638440 0.412497
vt 0.636111 0.412500
vt 0.638471 0.412394
vt 0.813204 0.276227
vt 0.813087 0.283462
vt 0.813149 0.276278
vt 0.243183 0.982113
vt 0.243079 0.982607
vt 0.243095 0.982174
vt 0.515722 0.643697
vt 0.523324 0.643954
vt 0.509224 0.644048
vt 0.231585 0.982113
vt 0.231480 0.982607
vt 0.231496 0.982174
vt 0.542099 0.643697
vt 0.549701 0.643954
vt 0.535601 0.644048
vt 0.263303 0.300108
vt 0.008929 0.164006
vt 0.008928 0.167144
vt 0.008831 0.163907
vt 0.134572 0.419291
vt 0.134671 0.419192
vt 0.245333 0.296782
vt 0.610800 0.419223
vt 0.607615 0.419218
vt 0.607636 0.419120
vt 0.981885 0.257405
vt 0.982227 0.256965
vt 0.981978 0.257469
vt 0.981886 0.220280
vt 0.982223 0.220114
vt 0.981977 0.220344
vt 0.981885 0.269769
vt 0.982227 0.269330
vt 0.981978 0.269833
vt 0.981886 0.207857
vt 0.982223 0.207691
vt 0.981977 0.207920
vt 0.968501 0.757322
vt 0.968407 0.759649
vt 0.968404 0.757318
vt 0.361116 0.544870
vt 0.361214 0.434112
vt 0.361234 0.544969
vt 0.005915 0.904239
vt 0.005747 0.911422
vt 0.005817 0.904238
vt 0.523325 0.601894
vt 0.523665 0.601833
vt 0.523580 0.601974
vt 0.053827 0.600657
vt 0.053656 0.642735
vt 0.053688 0.600473
vt 0.759727 0.047788
vt 0.759558 0.005845
vt 0.759995 0.005833
vt 0.981928 0.219474
vt 0.982229 0.219798
vt 0.981793 0.219414
vt 0.549703 0.601894
vt 0.550043 0.601833
vt 0.549958 0.601974
vt 0.149126 0.601838
vt 0.148956 0.643916
vt 0.148988 0.601654
vt 0.759847 0.207105
vt 0.759677 0.165162
vt 0.760115 0.165150
vt 0.981928 0.207051
vt 0.982229 0.207375
vt 0.981793 0.206991
vt 0.245333 0.296999
vt 0.245432 0.300137
vt 0.245432 0.300235
vt 0.981567 0.293790
vt 0.982117 0.293939
vt 0.981568 0.293995
vt 0.981550 0.219997
vt 0.981807 0.220344
vt 0.981567 0.281464
vt 0.982117 0.281613
vt 0.981568 0.281669
vt 0.981550 0.207574
vt 0.981807 0.207920
vt 0.930023 0.493386
vt 0.930193 0.507971
vt 0.930037 0.508024
vt 0.476946 0.879354
vt 0.476826 0.855243
vt 0.477101 0.855309
vt 0.929930 0.845858
vt 0.930100 0.860442
vt 0.929944 0.860496
vt 0.465030 0.879354
vt 0.464910 0.855243
vt 0.465185 0.855309
vt 0.246592 0.675495
vt 0.246690 0.559580
vt 0.246683 0.675397
vt 0.134572 0.416054
vt 0.134573 0.415956
vt 0.393851 0.878932
vt 0.393720 0.854765
vt 0.394007 0.854812
vt 0.381935 0.878932
vt 0.381804 0.854765
vt 0.382091 0.854812
vt 0.152380 0.005845
vt 0.079063 0.152333
vt 0.005812 0.005809
vt 0.163981 0.152358
vt 0.237238 0.005785
vt 0.310473 0.152370
vt 0.134476 0.224586
vt 0.251651 0.163974
vt 0.251674 0.285183
vt 0.263209 0.163942
vt 0.380129 0.224645
vt 0.263206 0.285219
vt 0.391756 0.281986
vt 0.447722 0.163961
vt 0.503661 0.282006
vt 0.497630 0.296891
vt 0.441689 0.414916
vt 0.385751 0.296871
vt 0.116509 0.430908
vt 0.638342 0.296860
vt 0.636012 0.412592
vt 0.642837 0.550572
vt 0.642837 0.439911
vt 0.645166 0.439813
vt 0.636111 0.296925
vt 0.651518 0.124236
vt 0.649188 0.234687
vt 0.649188 0.124236
vt 0.005844 0.430854
vt 0.651518 0.234589
vt 0.645166 0.550572
vt 0.637565 0.124336
vt 0.637626 0.240052
vt 0.635168 0.240252
vt 0.635266 0.124336
vt 0.361214 0.430929
vt 0.368280 0.430928
vt 0.368399 0.434112
vt 0.923414 0.221331
vt 0.926447 0.221431
vt 0.926644 0.228714
vt 0.923316 0.221430
vt 0.578101 0.296933
vt 0.578101 0.407286
vt 0.570910 0.407384
vt 0.570917 0.407286
vt 0.570917 0.296835
vt 0.570818 0.296827
vt 0.134671 0.300137
vt 0.134475 0.296802
vt 0.610796 0.296929
vt 0.610898 0.419341
vt 0.361192 0.548100
vt 0.368300 0.544969
vt 0.368398 0.545068
vt 0.524230 0.005953
vt 0.516946 0.005930
vt 0.517045 0.005839
vt 0.678560 0.928839
vt 0.681776 0.935918
vt 0.678594 0.935918
vt 0.368396 0.545169
vt 0.245416 0.300066
vt 0.134588 0.416125
vt 0.245333 0.416054
vt 0.245632 0.419196
vt 0.559249 0.296882
vt 0.559207 0.300003
vt 0.552140 0.300003
vt 0.107518 0.932260
vt 0.110714 0.930397
vt 0.110714 0.937463
vt 0.552140 0.296829
vt 0.552042 0.410552
vt 0.570582 0.270302
vt 0.570581 0.159641
vt 0.577771 0.159543
vt 0.009027 0.167176
vt 0.929673 0.563197
vt 0.932812 0.563197
vt 0.933008 0.570479
vt 0.929673 0.570381
vt 0.540482 0.366776
vt 0.533363 0.418928
vt 0.533363 0.296925
vt 0.534000 0.211832
vt 0.541119 0.159570
vt 0.541119 0.281833
vt 0.559226 0.410552
vt 0.559226 0.413725
vt 0.552160 0.413727
vt 0.535681 0.590190
vt 0.509134 0.590199
vt 0.522405 0.545854
vt 0.436993 0.599513
vt 0.423718 0.555177
vt 0.450265 0.555168
vt 0.398936 0.599513
vt 0.385660 0.555177
vt 0.412208 0.555168
vt 0.289759 0.586957
vt 0.263211 0.586965
vt 0.276483 0.542621
vt 0.475052 0.599513
vt 0.461775 0.555177
vt 0.488323 0.555168
vt 0.327816 0.586957
vt 0.301269 0.586965
vt 0.314541 0.542621
vt 0.079659 0.573596
vt 0.108575 0.558221
vt 0.108577 0.588960
vt 0.039186 0.558225
vt 0.068074 0.573608
vt 0.039187 0.588964
vt 0.573230 0.597906
vt 0.599317 0.597947
vt 0.586270 0.625741
vt 0.301261 0.598572
vt 0.327365 0.598578
vt 0.314313 0.626418
vt 0.783781 0.062833
vt 0.784247 0.092033
vt 0.783311 0.092050
vt 0.798261 0.582866
vt 0.798725 0.612066
vt 0.797792 0.612083
vt 0.799397 0.005813
vt 0.799862 0.035013
vt 0.798929 0.035030
vt 0.783755 0.240894
vt 0.784221 0.270094
vt 0.783285 0.270111
vt 0.799516 0.165130
vt 0.799981 0.194330
vt 0.799048 0.194347
vt 0.783907 0.296893
vt 0.784373 0.326093
vt 0.783437 0.326110
vt 0.723981 0.122282
vt 0.721616 0.153089
vt 0.719228 0.122294
vt 0.573261 0.736487
vt 0.575626 0.705679
vt 0.578015 0.736475
vt 0.703009 0.254046
vt 0.707002 0.285256
vt 0.699036 0.285270
vt 0.703698 0.153500
vt 0.699705 0.122290
vt 0.707671 0.122276
vt 0.134485 0.559418
vt 0.163403 0.574782
vt 0.134486 0.590157
vt 0.535736 0.127054
vt 0.564628 0.111725
vt 0.564618 0.142410
vt 0.263209 0.598571
vt 0.289296 0.598612
vt 0.276249 0.626406
vt 0.079649 0.600497
vt 0.105754 0.600503
vt 0.092701 0.628343
vt 0.316225 0.775431
vt 0.316690 0.804631
vt 0.315756 0.804648
vt 0.784108 0.373493
vt 0.784573 0.402693
vt 0.783638 0.402710
vt 0.799594 0.693248
vt 0.800059 0.722448
vt 0.799125 0.722465
vt 0.496433 0.611156
vt 0.496899 0.640355
vt 0.495964 0.640372
vt 0.796697 0.774129
vt 0.797162 0.803329
vt 0.796229 0.803346
vt 0.784187 0.736031
vt 0.784653 0.765230
vt 0.783717 0.765247
vt 0.733085 0.296903
vt 0.735473 0.327698
vt 0.730720 0.327711
vt 0.733122 0.613677
vt 0.730734 0.582882
vt 0.735487 0.582869
vt 0.699594 0.417869
vt 0.703566 0.386645
vt 0.707559 0.417855
vt 0.421216 0.659067
vt 0.417244 0.690291
vt 0.413251 0.659081
vt 0.273216 0.638017
vt 0.283175 0.661973
vt 0.263257 0.661977
vt 0.550576 0.655833
vt 0.560507 0.679789
vt 0.540645 0.679792
vt 0.039182 0.690255
vt 0.056192 0.690285
vt 0.047684 0.711395
vt 0.644070 0.674411
vt 0.661065 0.674438
vt 0.652562 0.695537
vt 0.441237 0.847916
vt 0.441700 0.870457
vt 0.440764 0.870470
vt 0.551174 0.839371
vt 0.551637 0.861912
vt 0.550701 0.861924
vt 0.861604 0.332331
vt 0.862067 0.354872
vt 0.861131 0.354885
vt 0.301737 0.848563
vt 0.302201 0.871105
vt 0.301264 0.871117
vt 0.747926 0.852102
vt 0.748390 0.874643
vt 0.747453 0.874655
vt 0.861747 0.240884
vt 0.862210 0.263426
vt 0.861274 0.263437
vt 0.615526 0.783156
vt 0.617893 0.761470
vt 0.620279 0.783145
vt 0.245225 0.764781
vt 0.242858 0.786467
vt 0.240472 0.764792
vt 0.391743 0.659055
vt 0.401675 0.683011
vt 0.381813 0.683014
vt 0.653824 0.005805
vt 0.663784 0.029761
vt 0.643865 0.029765
vt 0.509132 0.691385
vt 0.526142 0.691415
vt 0.517633 0.712525
vt 0.079659 0.675484
vt 0.096653 0.675511
vt 0.088151 0.696611
vt 0.861771 0.062823
vt 0.862234 0.085364
vt 0.861298 0.085376
vt 0.833254 0.849555
vt 0.833717 0.872097
vt 0.832781 0.872109
vt 0.861764 0.582856
vt 0.862226 0.605397
vt 0.861290 0.605410
vt 0.874256 0.240884
vt 0.874720 0.263425
vt 0.873783 0.263438
vt 0.862023 0.638857
vt 0.862485 0.661398
vt 0.861549 0.661410
vt 0.874281 0.062823
vt 0.874744 0.085364
vt 0.873807 0.085376
vt 0.636565 0.761465
vt 0.634198 0.783151
vt 0.631812 0.761476
vt 0.776362 0.461583
vt 0.778729 0.439897
vt 0.781114 0.461572
vt 0.482230 0.652995
vt 0.492173 0.676948
vt 0.472288 0.676941
vt 0.183761 0.613457
vt 0.193725 0.637406
vt 0.173798 0.637408
vt 0.682258 0.538056
vt 0.699268 0.538094
vt 0.690759 0.559205
vt 0.675757 0.197843
vt 0.692766 0.197884
vt 0.684256 0.218978
vt 0.679111 0.832820
vt 0.679577 0.855344
vt 0.678641 0.855361
vt 0.509600 0.839380
vt 0.510065 0.861904
vt 0.509132 0.861921
vt 0.522113 0.839380
vt 0.522578 0.861904
vt 0.521644 0.861922
vt 0.691717 0.832820
vt 0.692183 0.855344
vt 0.691247 0.855361
vt 0.855108 0.439879
vt 0.855574 0.462403
vt 0.854638 0.462420
vt 0.538657 0.839381
vt 0.539122 0.861905
vt 0.538188 0.861922
vt 0.284374 0.760621
vt 0.286755 0.782313
vt 0.282015 0.782325
vt 0.319961 0.763795
vt 0.317580 0.742104
vt 0.322321 0.742091
vt 0.015760 0.615291
vt 0.025724 0.639239
vt 0.005797 0.639242
vt 0.450752 0.652995
vt 0.460694 0.676948
vt 0.440810 0.676941
vt 0.682258 0.472585
vt 0.699268 0.472623
vt 0.690758 0.493734
vt 0.573235 0.672899
vt 0.590244 0.672941
vt 0.581734 0.694034
vt 0.159976 0.835955
vt 0.160440 0.858479
vt 0.159507 0.858496
vt 0.108056 0.833354
vt 0.108522 0.855877
vt 0.107586 0.855895
vt 0.361592 0.836392
vt 0.362057 0.858916
vt 0.361123 0.858933
vt 0.120662 0.833354
vt 0.121128 0.855877
vt 0.120192 0.855895
vt 0.665290 0.833777
vt 0.665756 0.856301
vt 0.664820 0.856318
vt 0.706195 0.836701
vt 0.706660 0.859224
vt 0.705727 0.859242
vt 0.752214 0.747534
vt 0.749855 0.769238
vt 0.747474 0.747546
vt 0.730718 0.361053
vt 0.733077 0.339349
vt 0.735458 0.361041
vt 0.049160 0.654703
vt 0.059092 0.678659
vt 0.039230 0.678662
vt 0.311273 0.638007
vt 0.321232 0.661963
vt 0.301315 0.661967
vt 0.678550 0.671578
vt 0.695545 0.671606
vt 0.687043 0.692705
vt 0.469281 0.688547
vt 0.486292 0.688577
vt 0.477783 0.709687
vt 0.874273 0.582856
vt 0.874736 0.605397
vt 0.873800 0.605410
vt 0.862098 0.373484
vt 0.862560 0.396025
vt 0.861624 0.396037
vt 0.862206 0.201699
vt 0.862668 0.224240
vt 0.861733 0.224252
vt 0.874406 0.290761
vt 0.874870 0.313302
vt 0.873933 0.313314
vt 0.862900 0.005803
vt 0.863363 0.028344
vt 0.862427 0.028356
vt 0.874532 0.638856
vt 0.874995 0.661397
vt 0.874059 0.661410
vt 0.136880 0.786519
vt 0.134495 0.764843
vt 0.139247 0.764832
vt 0.220392 0.757569
vt 0.222778 0.779244
vt 0.218025 0.779256
vt 0.677520 0.261318
vt 0.687451 0.285274
vt 0.667588 0.285277
vt 0.625511 0.638858
vt 0.635469 0.662814
vt 0.615552 0.662818
vt 0.263213 0.673570
vt 0.280208 0.673597
vt 0.271706 0.694696
vt 0.537646 0.691385
vt 0.554657 0.691415
vt 0.546148 0.712525
vt 0.863020 0.158997
vt 0.863482 0.181539
vt 0.862546 0.181550
vt 0.874607 0.373483
vt 0.875071 0.396024
vt 0.874134 0.396037
vt 0.809212 0.852542
vt 0.809675 0.875083
vt 0.808739 0.875095
vt 0.863097 0.693238
vt 0.863560 0.715779
vt 0.862624 0.715791
vt 0.172843 0.841068
vt 0.173305 0.863609
vt 0.172370 0.863621
vt 0.874715 0.201699
vt 0.875179 0.224240
vt 0.874242 0.224252
vt 0.109890 0.783917
vt 0.107504 0.762242
vt 0.112257 0.762231
vt 0.467271 0.757094
vt 0.469656 0.778769
vt 0.464904 0.778780
vt 0.620795 0.062811
vt 0.629290 0.107245
vt 0.612268 0.107214
vt 0.623758 0.050209
vt 0.615263 0.005776
vt 0.632285 0.005807
vt 0.204050 0.910977
vt 0.203722 0.910933
vt 0.203901 0.890250
vt 0.465262 0.911714
vt 0.464930 0.911667
vt 0.465121 0.890983
vt 0.911309 0.603584
vt 0.910977 0.603538
vt 0.911167 0.582853
vt 0.911147 0.353057
vt 0.910819 0.353013
vt 0.910998 0.332329
vt 0.911641 0.394211
vt 0.911309 0.394165
vt 0.911500 0.373481
vt 0.382144 0.911291
vt 0.381816 0.911247
vt 0.381995 0.890563
vt 0.899334 0.428263
vt 0.899006 0.428219
vt 0.899185 0.407535
vt 0.911292 0.428265
vt 0.910960 0.428219
vt 0.911151 0.407534
vt 0.759832 0.693233
vt 0.760233 0.693227
vt 0.760031 0.735209
vt 0.440834 0.721286
vt 0.441261 0.721333
vt 0.441018 0.763170
vt 0.981542 0.195062
vt 0.981848 0.194555
vt 0.982124 0.194869
vt 0.981573 0.194621
vt 0.764436 0.440011
vt 0.764839 0.439813
vt 0.764839 0.481891
vt 0.981799 0.195497
vt 0.764605 0.481892
vt 0.005859 0.719198
vt 0.006249 0.719200
vt 0.005985 0.761015
vt 0.981542 0.256922
vt 0.981978 0.256637
vt 0.981882 0.256599
vt 0.981803 0.257464
vt 0.039273 0.643151
vt 0.053643 0.642918
vt 0.053642 0.643151
vt 0.039217 0.642666
vt 0.053642 0.642515
vt 0.053643 0.642748
vt 0.523373 0.643856
vt 0.053742 0.600755
vt 0.053831 0.642735
vt 0.981542 0.232724
vt 0.981553 0.232061
vt 0.981905 0.231932
vt 0.982126 0.232399
vt 0.735790 0.907645
vt 0.509224 0.644061
vt 0.523592 0.644272
vt 0.523593 0.643869
vt 0.523691 0.643954
vt 0.930548 0.132854
vt 0.930315 0.132850
vt 0.930315 0.118265
vt 0.930716 0.118486
vt 0.930005 0.508026
vt 0.929791 0.493603
vt 0.930193 0.493386
vt 0.281910 0.430989
vt 0.300602 0.475177
vt 0.263207 0.475157
vt 0.330884 0.486795
vt 0.349600 0.531008
vt 0.312161 0.530971
vt 0.509135 0.492828
vt 0.543705 0.492878
vt 0.526414 0.534198
vt 0.535730 0.005784
vt 0.570337 0.005821
vt 0.553031 0.047163
vt 0.372809 0.559714
vt 0.373751 0.559712
vt 0.373278 0.602474
vt 0.745815 0.373495
vt 0.746757 0.373493
vt 0.746284 0.416256
vt 0.732747 0.240895
vt 0.733689 0.240894
vt 0.733216 0.283656
vt 0.734941 0.638868
vt 0.735883 0.638866
vt 0.735410 0.681629
vt 0.734941 0.693249
vt 0.735883 0.693247
vt 0.735410 0.736011
vt 0.733304 0.373494
vt 0.734246 0.373493
vt 0.733773 0.416255
vt 0.704355 0.204443
vt 0.706723 0.165139
vt 0.709116 0.204431
vt 0.704722 0.296896
vt 0.702353 0.336201
vt 0.699960 0.296908
vt 0.682038 0.296912
vt 0.688425 0.330130
vt 0.675637 0.330116
vt 0.682044 0.582884
vt 0.688449 0.616101
vt 0.675625 0.616087
vt 0.388332 0.711686
vt 0.381821 0.694633
vt 0.394845 0.694642
vt 0.691626 0.704346
vt 0.685113 0.721357
vt 0.678602 0.704344
vt 0.645747 0.048345
vt 0.646099 0.041942
vt 0.651705 0.044747
vt 0.682639 0.103610
vt 0.686090 0.098377
vt 0.689590 0.103746
vt 0.573257 0.956472
vt 0.573461 0.948118
vt 0.573632 0.956471
vt 0.952115 0.201645
vt 0.952269 0.209972
vt 0.951899 0.209966
vt 0.948680 0.158943
vt 0.948834 0.167271
vt 0.948464 0.167264
vt 0.955803 0.189849
vt 0.956007 0.181495
vt 0.956178 0.189849
vt 0.949948 0.312378
vt 0.950102 0.320705
vt 0.949732 0.320698
vt 0.413257 0.955516
vt 0.413461 0.947162
vt 0.413632 0.955516
vt 0.956535 0.570381
vt 0.956739 0.562027
vt 0.956910 0.570380
vt 0.339098 0.944357
vt 0.339252 0.952685
vt 0.338882 0.952678
vt 0.091474 0.944406
vt 0.091628 0.952734
vt 0.091258 0.952727
vt 0.586137 0.956472
vt 0.586341 0.948118
vt 0.586512 0.956471
vt 0.950267 0.092208
vt 0.950421 0.100535
vt 0.950051 0.100529
vt 0.661802 0.957676
vt 0.662006 0.949322
vt 0.662177 0.957675
vt 0.941707 0.774100
vt 0.943415 0.774094
vt 0.942566 0.781213
vt 0.941616 0.845945
vt 0.943328 0.845939
vt 0.942476 0.853057
vt 0.077199 0.935293
vt 0.075635 0.935306
vt 0.076405 0.923738
vt 0.062948 0.935396
vt 0.062154 0.923842
vt 0.063718 0.923828
vt 0.382573 0.934486
vt 0.381779 0.922931
vt 0.383343 0.922918
vt 0.490304 0.934958
vt 0.488740 0.934971
vt 0.489510 0.923403
vt 0.938246 0.104579
vt 0.937887 0.092304
vt 0.938413 0.092304
vt 0.628832 0.926046
vt 0.629210 0.938319
vt 0.628690 0.938319
vt 0.641143 0.926046
vt 0.641521 0.938319
vt 0.641001 0.938319
vt 0.938393 0.480673
vt 0.938035 0.468399
vt 0.938561 0.468399
vt 0.615529 0.627246
vt 0.624056 0.582844
vt 0.632551 0.627278
vt 0.235066 0.559471
vt 0.226539 0.603873
vt 0.218044 0.559439
vt 0.911442 0.311489
vt 0.911110 0.311443
vt 0.911301 0.290758
vt 0.051468 0.909366
vt 0.051140 0.909321
vt 0.051318 0.888638
vt 0.218382 0.910625
vt 0.218054 0.910581
vt 0.218233 0.889897
vt 0.911566 0.659584
vt 0.911234 0.659538
vt 0.911425 0.638853
vt 0.394101 0.911291
vt 0.393772 0.911247
vt 0.393951 0.890563
vt 0.911316 0.083551
vt 0.910984 0.083505
vt 0.911175 0.062820
vt 0.911292 0.261612
vt 0.910960 0.261566
vt 0.911151 0.240881
vt 0.910651 0.756747
vt 0.910322 0.756703
vt 0.910501 0.736019
vt 0.759838 0.638852
vt 0.760238 0.638846
vt 0.760036 0.680828
vt 0.017878 0.719154
vt 0.018306 0.719200
vt 0.018062 0.761037
vt 0.452929 0.721331
vt 0.453319 0.721333
vt 0.453054 0.763147
vt 0.981542 0.182587
vt 0.981848 0.182080
vt 0.982124 0.182393
vt 0.981542 0.269287
vt 0.981978 0.269001
vt 0.981882 0.268963
vt 0.981802 0.269828
vt 0.549750 0.643856
vt 0.067689 0.690410
vt 0.068092 0.732291
vt 0.067859 0.732291
vt 0.149041 0.601936
vt 0.149131 0.643916
vt 0.981799 0.183022
vt 0.535601 0.644061
vt 0.549970 0.644272
vt 0.981573 0.182146
vt 0.549970 0.643869
vt 0.550068 0.643954
vt 0.981542 0.245105
vt 0.981904 0.244313
vt 0.982125 0.244780
vt 0.981553 0.244441
vt 0.068092 0.690212
vt 0.924521 0.005788
vt 0.930023 0.788602
vt 0.929790 0.788598
vt 0.929790 0.774013
vt 0.929912 0.860497
vt 0.929698 0.846074
vt 0.930100 0.845858
vt 0.134573 0.644332
vt 0.134516 0.643847
vt 0.148942 0.644099
vt 0.148942 0.644332
vt 0.148942 0.643696
vt 0.148942 0.643929
vt 0.930191 0.774234
vt 0.330867 0.430989
vt 0.349559 0.475177
vt 0.312164 0.475157
vt 0.281927 0.486795
vt 0.300643 0.531008
vt 0.263204 0.530971
vt 0.509135 0.439849
vt 0.543705 0.439899
vt 0.526414 0.481219
vt 0.535730 0.058749
vt 0.570337 0.058787
vt 0.553030 0.100129
vt 0.734362 0.062834
vt 0.735304 0.062832
vt 0.734831 0.105595
vt 0.738815 0.439880
vt 0.739757 0.439878
vt 0.739284 0.482642
vt 0.734741 0.005814
vt 0.735683 0.005812
vt 0.735210 0.048575
vt 0.738815 0.494262
vt 0.739757 0.494260
vt 0.739284 0.537023
vt 0.745258 0.240896
vt 0.746199 0.240894
vt 0.745727 0.283657
vt 0.734860 0.165130
vt 0.735802 0.165129
vt 0.735329 0.207891
vt 0.706237 0.102141
vt 0.703844 0.062848
vt 0.708605 0.062836
vt 0.702366 0.582875
vt 0.704759 0.622168
vt 0.699998 0.622180
vt 0.682037 0.341786
vt 0.688425 0.375004
vt 0.675636 0.374990
vt 0.224426 0.615495
vt 0.230831 0.648712
vt 0.218007 0.648698
vt 0.218058 0.710143
vt 0.224571 0.693099
vt 0.231082 0.710152
vt 0.419799 0.701929
vt 0.426310 0.718943
vt 0.413286 0.718939
vt 0.666180 0.048345
vt 0.666533 0.041942
vt 0.672139 0.044747
vt 0.735717 0.224719
vt 0.739169 0.219486
vt 0.742668 0.224855
vt 0.952605 0.439815
vt 0.952759 0.448143
vt 0.952389 0.448136
vt 0.905729 0.957161
vt 0.905933 0.948806
vt 0.906104 0.957160
vt 0.950602 0.468305
vt 0.950384 0.476626
vt 0.950227 0.468300
vt 0.107705 0.957458
vt 0.107551 0.949116
vt 0.107892 0.949093
vt 0.951230 0.912748
vt 0.951012 0.921070
vt 0.950855 0.912744
vt 0.509346 0.956585
vt 0.509191 0.948243
vt 0.509532 0.948220
vt 0.039648 0.944550
vt 0.039429 0.952872
vt 0.039273 0.944546
vt 0.240673 0.957557
vt 0.240519 0.949215
vt 0.240860 0.949192
vt 0.218469 0.945405
vt 0.218250 0.953727
vt 0.218094 0.945401
vt 0.678760 0.955914
vt 0.678606 0.947572
vt 0.678947 0.947549
vt 0.952008 0.373430
vt 0.952162 0.381757
vt 0.951792 0.381750
vt 0.361149 0.955941
vt 0.361353 0.947587
vt 0.361524 0.955941
vt 0.941753 0.537262
vt 0.943462 0.537257
vt 0.942612 0.544375
vt 0.941709 0.493473
vt 0.943421 0.493467
vt 0.942569 0.500586
vt 0.339628 0.932775
vt 0.338834 0.921220
vt 0.340398 0.921207
vt 0.466472 0.934901
vt 0.464908 0.934914
vt 0.465678 0.923346
vt 0.205261 0.934166
vt 0.203697 0.934178
vt 0.204467 0.922611
vt 0.218812 0.933821
vt 0.218017 0.922265
vt 0.219581 0.922252
vt 0.426635 0.925331
vt 0.427013 0.937604
vt 0.426494 0.937604
vt 0.615855 0.938447
vt 0.615497 0.926173
vt 0.616023 0.926173
vt 0.936486 0.693252
vt 0.936864 0.705525
vt 0.936345 0.705525
vt 0.939021 0.925117
vt 0.938663 0.912842
vt 0.939188 0.912842
vt 0.647073 0.638860
vt 0.666991 0.638856
vt 0.657032 0.662816
vt 0.509179 0.655834
vt 0.529042 0.655831
vt 0.519111 0.679790
vt 0.182260 0.684595
vt 0.190762 0.705736
vt 0.173751 0.705705
vt 0.687048 0.638857
vt 0.695539 0.659970
vt 0.678546 0.659969
vt 0.187341 0.843895
vt 0.187803 0.866436
vt 0.186867 0.866448
vt 0.873616 0.736021
vt 0.874080 0.758562
vt 0.873143 0.758574
vt 0.867624 0.439869
vt 0.868086 0.462410
vt 0.867151 0.462422
vt 0.769595 0.851526
vt 0.770058 0.874067
vt 0.769122 0.874079
vt 0.869123 0.537231
vt 0.869586 0.559772
vt 0.868650 0.559784
vt 0.875529 0.158997
vt 0.875993 0.181538
vt 0.875056 0.181550
vt 0.153166 0.764838
vt 0.155551 0.786513
vt 0.150799 0.786524
vt 0.483576 0.778775
vt 0.481190 0.757099
vt 0.485943 0.757088
vt 0.079702 0.639933
vt 0.099620 0.639930
vt 0.089662 0.663889
vt 0.672407 0.062826
vt 0.692270 0.062823
vt 0.682339 0.086783
vt 0.014259 0.686429
vt 0.022761 0.707570
vt 0.005750 0.707539
vt 0.338330 0.673573
vt 0.346821 0.694687
vt 0.329828 0.694685
vt 0.017964 0.845783
vt 0.018427 0.868325
vt 0.017491 0.868337
vt 0.874113 0.332331
vt 0.874577 0.354872
vt 0.873640 0.354884
vt 0.339290 0.854298
vt 0.339754 0.876839
vt 0.338817 0.876851
vt 0.869141 0.811763
vt 0.869604 0.834304
vt 0.868668 0.834316
vt 0.869239 0.774069
vt 0.869702 0.796610
vt 0.868766 0.796623
vt 0.263680 0.853503
vt 0.264143 0.876044
vt 0.263206 0.876056
vt 0.777779 0.515156
vt 0.780146 0.493470
vt 0.782532 0.515145
vt 0.652860 0.761465
vt 0.650493 0.783152
vt 0.648108 0.761476
vt 0.640882 0.062830
vt 0.660809 0.062828
vt 0.650845 0.086779
vt 0.173798 0.649025
vt 0.193682 0.649032
vt 0.183740 0.672978
vt 0.690763 0.439869
vt 0.699263 0.461018
vt 0.682254 0.460980
vt 0.226512 0.660341
vt 0.235012 0.681462
vt 0.218002 0.681450
vt 0.739286 0.548642
vt 0.739751 0.571166
vt 0.738818 0.571183
vt 0.856724 0.774079
vt 0.857190 0.796603
vt 0.856254 0.796620
vt 0.857250 0.118331
vt 0.857715 0.140854
vt 0.856780 0.140872
vt 0.861102 0.736031
vt 0.861567 0.758555
vt 0.860633 0.758572
vt 0.241024 0.835903
vt 0.241490 0.858427
vt 0.240554 0.858444
vt 0.134950 0.835955
vt 0.135415 0.858479
vt 0.134482 0.858496
vt 0.065697 0.765559
vt 0.063316 0.743867
vt 0.068056 0.743855
vt 0.780625 0.537251
vt 0.783006 0.558942
vt 0.778266 0.558954
vt 0.636062 0.261323
vt 0.655990 0.261321
vt 0.646026 0.285272
vt 0.005797 0.650859
vt 0.025681 0.650866
vt 0.015739 0.674812
vt 0.690763 0.505340
vt 0.699263 0.526488
vt 0.682254 0.526450
vt 0.684262 0.165121
vt 0.692760 0.186242
vt 0.675751 0.186230
vt 0.856526 0.493452
vt 0.856992 0.515976
vt 0.856056 0.515993
vt 0.722079 0.839367
vt 0.722544 0.861891
vt 0.721611 0.861909
vt 0.147463 0.835955
vt 0.147928 0.858479
vt 0.146994 0.858496
vt 0.856608 0.537241
vt 0.857074 0.559765
vt 0.856138 0.559782
vt 0.856626 0.811773
vt 0.857092 0.834297
vt 0.856156 0.834314
vt 0.734592 0.839367
vt 0.735057 0.861891
vt 0.734123 0.861909
vt 0.417989 0.759272
vt 0.415630 0.780976
vt 0.413249 0.759284
vt 0.301296 0.763801
vt 0.303655 0.742098
vt 0.306036 0.763789
vt 0.675386 0.005806
vt 0.695249 0.005803
vt 0.685318 0.029763
vt 0.573278 0.637354
vt 0.593196 0.637350
vt 0.583237 0.661310
vt 0.449272 0.688562
vt 0.457773 0.709702
vt 0.440763 0.709672
vt 0.309768 0.673573
vt 0.318260 0.694687
vt 0.301266 0.694685
vt 0.856535 0.845914
vt 0.856997 0.868455
vt 0.856061 0.868467
vt 0.091666 0.854347
vt 0.092130 0.876888
vt 0.091193 0.876900
vt 0.600187 0.846933
vt 0.600650 0.869474
vt 0.599714 0.869487
vt 0.875606 0.693238
vt 0.876070 0.715779
vt 0.875133 0.715791
vt 0.861897 0.290761
vt 0.862360 0.313302
vt 0.861424 0.313314
vt 0.039652 0.854488
vt 0.040116 0.877030
vt 0.039179 0.877042
vt 0.577996 0.748128
vt 0.575629 0.769815
vt 0.573244 0.748140
vt 0.779973 0.140035
vt 0.782340 0.118348
vt 0.784725 0.140024
vt 0.134529 0.655885
vt 0.154392 0.655882
vt 0.144461 0.679841
vt 0.644148 0.582860
vt 0.664065 0.582856
vt 0.654106 0.606816
vt 0.624005 0.674425
vt 0.632497 0.695538
vt 0.615504 0.695536
vt 0.142987 0.691451
vt 0.151488 0.712591
vt 0.134478 0.712561
vt 0.796699 0.852640
vt 0.797163 0.875181
vt 0.796226 0.875193
vt 0.869041 0.493442
vt 0.869504 0.515984
vt 0.868568 0.515996
vt 0.869047 0.845914
vt 0.869510 0.868455
vt 0.868574 0.868467
vt 0.316226 0.853942
vt 0.316690 0.876483
vt 0.315753 0.876495
vt 0.875410 0.005803
vt 0.875873 0.028344
vt 0.874936 0.028356
vt 0.869765 0.118321
vt 0.870228 0.140862
vt 0.869292 0.140874
vt 0.680945 0.783384
vt 0.678559 0.761708
vt 0.683312 0.761697
vt 0.093585 0.756168
vt 0.095970 0.777843
vt 0.091218 0.777854
vt 0.581871 0.005782
vt 0.603679 0.005774
vt 0.592782 0.051242
vt 0.005783 0.558254
vt 0.027638 0.558235
vt 0.016717 0.603709
vt 0.184342 0.559500
vt 0.193765 0.601812
vt 0.174924 0.601812
vt 0.591287 0.062853
vt 0.600731 0.105160
vt 0.581848 0.105169
vt 0.161277 0.601721
vt 0.161693 0.644069
vt 0.160857 0.644086
vt 0.066073 0.600540
vt 0.066490 0.642887
vt 0.065652 0.642904
vt 0.642868 0.562143
vt 0.644190 0.562152
vt 0.643520 0.570076
vt 0.120113 0.742502
vt 0.121431 0.742512
vt 0.120763 0.750435
vt 0.661421 0.618445
vt 0.662743 0.618455
vt 0.662073 0.626378
vt 0.716518 0.352906
vt 0.717836 0.352916
vt 0.717168 0.360839
vt 0.448787 0.611106
vt 0.456779 0.641418
vt 0.440799 0.641419
vt 0.476340 0.641419
vt 0.468348 0.611106
vt 0.484328 0.611106
vt 0.681957 0.153524
vt 0.675791 0.124265
vt 0.688154 0.124298
vt 0.681851 0.386621
vt 0.688017 0.415880
vt 0.675654 0.415848
vt 0.341334 0.742061
vt 0.343830 0.764136
vt 0.338850 0.764144
vt 0.702460 0.352916
vt 0.704962 0.374990
vt 0.699970 0.375001
vt 0.830796 0.620667
vt 0.827830 0.627185
vt 0.824862 0.620658
vt 0.779368 0.481822
vt 0.776399 0.475279
vt 0.782334 0.475292
vt 0.450700 0.005757
vt 0.456962 0.136867
vt 0.444438 0.136859
vt 0.509136 0.428305
vt 0.515416 0.296850
vt 0.521682 0.428294
vt 0.474935 0.136863
vt 0.468678 0.005753
vt 0.481202 0.005761
vt 0.492817 0.137224
vt 0.499097 0.005770
vt 0.505363 0.137214
vt 0.266847 0.706342
vt 0.270439 0.730408
vt 0.263241 0.730398
vt 0.320075 0.730440
vt 0.323681 0.706333
vt 0.327273 0.730453
vt 0.878607 0.098708
vt 0.877854 0.106482
vt 0.875747 0.098910
vt 0.860113 0.914187
vt 0.856978 0.921959
vt 0.857774 0.914155
vt 0.859345 0.922105
vt 0.572761 0.419012
vt 0.576558 0.422964
vt 0.574651 0.426900
vt 0.875022 0.106647
vt 0.925454 0.472882
vt 0.924767 0.480648
vt 0.922410 0.480613
vt 0.908905 0.472679
vt 0.908152 0.480453
vt 0.906045 0.472882
vt 0.646035 0.618495
vt 0.649832 0.622447
vt 0.647925 0.626382
vt 0.885144 0.914187
vt 0.884376 0.922105
vt 0.882009 0.921959
vt 0.882805 0.914155
vt 0.905320 0.480618
vt 0.751344 0.919169
vt 0.750658 0.926934
vt 0.748300 0.926900
vt 0.921653 0.619237
vt 0.920890 0.626879
vt 0.919315 0.619205
vt 0.917594 0.623196
vt 0.918518 0.627174
vt 0.923901 0.913365
vt 0.925395 0.920844
vt 0.923038 0.920809
vt 0.363522 0.905571
vt 0.362163 0.912698
vt 0.361184 0.908738
vt 0.364969 0.912699
vt 0.444819 0.914871
vt 0.444055 0.922512
vt 0.442480 0.914838
vt 0.440760 0.918829
vt 0.885430 0.620054
vt 0.884071 0.627183
vt 0.883092 0.623222
vt 0.441684 0.922808
vt 0.886877 0.627183
vt 0.810449 0.919895
vt 0.811943 0.927374
vt 0.809586 0.927339
vt 0.300827 0.915518
vt 0.297747 0.923253
vt 0.298488 0.915486
vt 0.888718 0.673625
vt 0.887971 0.681361
vt 0.885927 0.673675
vt 0.926832 0.269503
vt 0.923711 0.277386
vt 0.924503 0.269471
vt 0.926068 0.277421
vt 0.850407 0.619295
vt 0.852298 0.627183
vt 0.848493 0.623224
vt 0.885133 0.681564
vt 0.346057 0.706336
vt 0.342451 0.730393
vt 0.338859 0.706327
vt 0.304897 0.730446
vt 0.301306 0.706326
vt 0.308503 0.706340
vt 0.895892 0.098708
vt 0.895145 0.106444
vt 0.893101 0.098758
vt 0.542240 0.907742
vt 0.539160 0.915477
vt 0.539901 0.907709
vt 0.892306 0.106647
vt 0.768613 0.918441
vt 0.767849 0.926358
vt 0.765492 0.926324
vt 0.766284 0.918408
vt 0.772401 0.415859
vt 0.774291 0.423746
vt 0.770487 0.419787
vt 0.759239 0.219569
vt 0.758476 0.227211
vt 0.756901 0.219537
vt 0.755180 0.223527
vt 0.756104 0.227506
vt 0.898279 0.044021
vt 0.896919 0.051149
vt 0.895940 0.047189
vt 0.924849 0.639421
vt 0.926343 0.646900
vt 0.923985 0.646866
vt 0.899726 0.051150
vt 0.558731 0.907742
vt 0.557968 0.915383
vt 0.556392 0.907709
vt 0.554672 0.911700
vt 0.555596 0.915679
vt 0.902715 0.620054
vt 0.901356 0.627183
vt 0.900376 0.623222
vt 0.904162 0.627183
vt 0.924923 0.374048
vt 0.926418 0.381527
vt 0.924060 0.381493
vt 0.188580 0.912136
vt 0.190156 0.919810
vt 0.186860 0.916127
vt 0.190919 0.912168
vt 0.187784 0.920105
vt 0.925030 0.202264
vt 0.926524 0.209743
vt 0.924167 0.209708
vt 0.910951 0.099519
vt 0.909591 0.106647
vt 0.908612 0.102686
vt 0.912398 0.106648
vt 0.906003 0.673625
vt 0.905256 0.681361
vt 0.903212 0.673675
vt 0.909754 0.912869
vt 0.906676 0.920604
vt 0.907416 0.912836
vt 0.902418 0.681564
vt 0.858655 0.098759
vt 0.860546 0.106647
vt 0.856741 0.102688
vt 0.267175 0.920418
vt 0.266411 0.928335
vt 0.264054 0.928301
vt 0.264846 0.920385
vt 0.920376 0.673586
vt 0.921952 0.681260
vt 0.918656 0.677577
vt 0.922715 0.673619
vt 0.919580 0.681556
vt 0.869207 0.674436
vt 0.870654 0.681564
vt 0.867848 0.681564
vt 0.866869 0.677603
vt 0.317464 0.921393
vt 0.318958 0.928872
vt 0.316601 0.928838
vt 0.664047 0.413658
vt 0.663137 0.413726
vt 0.663609 0.296898
vt 0.670524 0.556692
vt 0.669517 0.556641
vt 0.669927 0.439871
vt 0.340475 0.659368
vt 0.339565 0.659436
vt 0.340037 0.542608
vt 0.664018 0.241115
vt 0.663011 0.241064
vt 0.663422 0.124293
vt 0.393687 0.611121
vt 0.401692 0.647462
vt 0.385699 0.647482
vt 0.421241 0.611124
vt 0.429229 0.647469
vt 0.413271 0.647483
vt 0.747045 0.351290
vt 0.754005 0.351284
vt 0.750526 0.361247
vt 0.424173 0.138703
vt 0.431148 0.138694
vt 0.427661 0.148658
vt 0.720188 0.695887
vt 0.713675 0.712898
vt 0.707164 0.695884
vt 0.555154 0.586227
vt 0.548644 0.569173
vt 0.561668 0.569182
vt 0.663183 0.105365
vt 0.663536 0.098962
vt 0.669142 0.101767
vt 0.685636 0.046590
vt 0.689087 0.041357
vt 0.692587 0.046726
vt 0.951215 0.036710
vt 0.951369 0.045038
vt 0.950999 0.045031
vt 0.142431 0.957610
vt 0.142635 0.949256
vt 0.142806 0.957609
vt 0.797012 0.943405
vt 0.797167 0.951732
vt 0.796797 0.951725
vt 0.922816 0.957161
vt 0.923020 0.948807
vt 0.923191 0.957160
vt 0.952008 0.353549
vt 0.952162 0.361876
vt 0.951792 0.361869
vt 0.154333 0.957610
vt 0.154537 0.949256
vt 0.154708 0.957609
vt 0.316034 0.940462
vt 0.316188 0.948789
vt 0.315818 0.948783
vt 0.282012 0.956726
vt 0.282216 0.948372
vt 0.282387 0.956726
vt 0.951658 0.265076
vt 0.951813 0.273403
vt 0.951443 0.273397
vt 0.426446 0.957595
vt 0.426650 0.949241
vt 0.426820 0.957594
vt 0.130529 0.957610
vt 0.130733 0.949255
vt 0.130904 0.957609
vt 0.951933 0.638803
vt 0.952087 0.647130
vt 0.951717 0.647123
vt 0.941675 0.880096
vt 0.943387 0.880089
vt 0.942535 0.887208
vt 0.941707 0.792878
vt 0.943415 0.792872
vt 0.942565 0.799990
vt 0.785213 0.935053
vt 0.783649 0.935067
vt 0.784418 0.923498
vt 0.039990 0.932966
vt 0.039196 0.921411
vt 0.040760 0.921399
vt 0.092004 0.932824
vt 0.091210 0.921269
vt 0.092774 0.921256
vt 0.396468 0.934480
vt 0.394904 0.934493
vt 0.395673 0.922925
vt 0.263203 0.297024
vt 0.861054 0.982310
vt 0.569734 0.982309
vt 0.581398 0.982113
vt 0.849456 0.982113
vt 0.872785 0.982113
vt 0.053741 0.642833
vt 0.053826 0.642735
vt 0.254677 0.982229
vt 0.254864 0.982252
vt 0.254775 0.982199
vt 0.254860 0.982297
vt 0.254722 0.982480
vt 0.301383 0.982319
vt 0.301213 0.982319
vt 0.301193 0.982113
vt 0.266357 0.982229
vt 0.266544 0.982252
vt 0.266455 0.982199
vt 0.266541 0.982297
vt 0.266402 0.982480
vt 0.313080 0.982319
vt 0.312910 0.982319
vt 0.312890 0.982113
vt 0.149040 0.644014
vt 0.149126 0.643916
vt 0.119745 0.283299
vt 0.134543 0.798195
vt 0.134717 0.798195
vt 0.134630 0.824297
vt 0.541099 0.281931
vt 0.925830 0.092304
vt 0.926177 0.092253
vt 0.926188 0.106702
vt 0.361116 0.559647
vt 0.819493 0.439911
vt 0.819667 0.439911
vt 0.819580 0.466014
vt 0.678608 0.795060
vt 0.678782 0.795060
vt 0.678695 0.821162
vt 0.146280 0.798195
vt 0.146454 0.798195
vt 0.146367 0.824297
vt 0.107553 0.795593
vt 0.107727 0.795593
vt 0.107640 0.821695
vt 0.826198 0.185071
vt 0.826105 0.184991
vt 0.826143 0.158944
vt 0.824705 0.332373
vt 0.824879 0.332373
vt 0.824792 0.358475
vt 0.833545 0.144316
vt 0.833423 0.144390
vt 0.833394 0.118268
vt 0.832725 0.519516
vt 0.832632 0.519436
vt 0.832670 0.493389
vt 0.523578 0.601771
vt 0.278062 0.982113
vt 0.208081 0.982113
vt 0.549955 0.601771
vt 0.289640 0.982113
vt 0.219781 0.982113
vt 0.636012 0.296827
vt 0.813254 0.283562
vt 0.678539 0.936023
vt 0.243183 0.982628
vt 0.231585 0.982629
vt 0.263402 0.300162
vt 0.039175 0.816837
vt 0.039301 0.816836
vt 0.039229 0.842938
vt 0.844316 0.493485
vt 0.844441 0.493484
vt 0.844369 0.519586
vt 0.075602 0.817956
vt 0.075728 0.817955
vt 0.075656 0.844057
vt 0.845039 0.118363
vt 0.845165 0.118362
vt 0.845093 0.144465
vt 0.842898 0.439911
vt 0.843024 0.439911
vt 0.842952 0.466013
vt 0.584862 0.820902
vt 0.584988 0.820901
vt 0.584916 0.847003
vt 0.821783 0.144465
vt 0.821566 0.144465
vt 0.821695 0.118321
vt 0.824978 0.088968
vt 0.824803 0.088968
vt 0.824933 0.062823
vt 0.158123 0.824297
vt 0.157948 0.824297
vt 0.158078 0.798152
vt 0.982005 0.231855
vt 0.982004 0.244236
vt 0.968501 0.759752
vt 0.361117 0.434209
vt 0.005915 0.911522
vt 0.533384 0.296830
vt 0.982209 0.219646
vt 0.982209 0.207223
vt 0.820927 0.493425
vt 0.821085 0.493485
vt 0.820891 0.519587
vt 0.821009 0.537214
vt 0.821167 0.537274
vt 0.820973 0.563376
vt 0.705805 0.798881
vt 0.705962 0.798940
vt 0.705769 0.825042
vt 0.821125 0.774102
vt 0.821283 0.774161
vt 0.821196 0.800263
vt 0.361201 0.798572
vt 0.361359 0.798632
vt 0.361165 0.824734
vt 0.981835 0.231837
vt 0.981835 0.244218
vt 0.635168 0.124238
vt 0.116507 0.430808
vt 0.246592 0.559410
vt 0.690451 0.821162
vt 0.690276 0.821162
vt 0.690406 0.795017
vt 0.824356 0.762165
vt 0.824139 0.762165
vt 0.824268 0.736021
vt 0.824996 0.267029
vt 0.824779 0.267029
vt 0.824908 0.240884
vt 0.664935 0.822119
vt 0.664719 0.822119
vt 0.664912 0.796017
vt 0.240669 0.824245
vt 0.240452 0.824245
vt 0.240646 0.798143
vt 0.825012 0.609001
vt 0.824795 0.609001
vt 0.824989 0.582898
vt 0.926835 0.036806
vt 0.927182 0.036755
vt 0.927193 0.051204
vt 0.923316 0.228614
vt 0.515157 0.281932
vt 0.515157 0.159759
vt 0.515158 0.159759
vt 0.515256 0.159661
vt 0.522440 0.159661
vt 0.681777 0.928851
vt 0.681659 0.928734
vt 0.524112 0.005836
vt 0.516947 0.127965
vt 0.524229 0.127857
vt 0.524131 0.127962
vt 0.134573 0.300039
vt 0.245432 0.416152
vt 0.522342 0.282050
vt 0.515275 0.282049
vt 0.522440 0.281951
vt 0.110616 0.937561
vt 0.110596 0.930279
vt 0.577864 0.270401
vt 0.577765 0.159642
vt 0.559325 0.410643
vt 0.981808 0.256637
vt 0.981963 0.219414
vt 0.982228 0.256922
vt 0.054058 0.600853
vt 0.981725 0.684616
vt 0.981793 0.685094
vt 0.981620 0.685160
vt 0.981542 0.685248
vt 0.981542 0.685045
vt 0.981808 0.269001
vt 0.982228 0.269287
vt 0.149358 0.602034
vt 0.981725 0.672347
vt 0.981793 0.672825
vt 0.981620 0.672891
vt 0.981542 0.672979
vt 0.981542 0.672776
vt 0.981963 0.206991
s 1
usemtl residential_012_baked
f 69/1/1 71/2/1 72/3/1
f 75/4/2 77/5/2 78/6/2
f 80/7/3 82/8/3 79/9/3
f 85/10/4 87/11/4 84/12/4
f 88/13/5 90/14/5 91/15/5
f 95/16/6 97/17/6 98/18/6
f 102/19/7 104/20/7 101/21/7
f 107/22/8 108/23/8 106/24/8
f 109/25/9 110/26/9 111/27/9
f 116/28/10 117/29/10 118/30/10
f 383/31/11 364/32/11 384/33/11
f 393/34/12 394/35/12 395/36/12
f 487/37/13 479/38/13 488/39/13
f 504/40/12 505/41/12 506/42/12
f 74/43/14 69/1/14 72/3/14
f 153/44/15 152/45/16 154/46/17
f 160/47/18 159/48/18 158/49/19
f 184/50/20 182/51/21 183/52/22
f 111/53/23 91/54/23 109/55/23
f 63/56/24 67/57/25 66/58/26
f 75/4/27 92/59/27 94/60/27
f 82/8/28 83/61/29 79/9/30
f 98/18/31 105/62/32 95/16/33
f 108/23/34 105/63/35 106/24/36
f 92/64/37 112/65/37 113/66/37
f 108/23/38 70/67/39 69/1/40
f 120/68/41 75/4/27 119/69/42
f 82/8/43 81/70/44 116/71/45
f 130/72/46 128/73/47 129/74/48
f 136/75/49 134/76/50 135/77/51
f 142/78/52 140/79/53 141/80/54
f 151/81/55 149/82/56 150/83/55
f 161/84/57 163/85/58 162/86/59
f 166/87/60 164/88/61 165/89/62
f 173/90/63 174/91/64 175/92/65
f 181/93/66 179/94/67 180/95/68
f 185/96/69 186/97/70 187/98/71
f 191/99/72 192/100/73 193/101/74
f 393/102/75 365/103/76 367/104/77
f 376/105/78 372/106/78 377/107/78
f 380/108/79 376/109/79 374/110/79
f 389/111/80 397/112/80 387/113/80
f 504/114/75 481/115/76 480/116/77
f 492/117/81 483/118/81 493/119/81
f 497/120/79 492/121/79 496/122/79
f 501/123/82 508/124/82 502/125/82
f 65/126/83 110/127/83 64/128/83
f 74/129/84 88/130/84 73/131/84
f 363/132/85 377/133/86 362/134/87
f 374/135/88 362/136/89 375/137/90
f 489/138/85 493/139/86 484/140/91
f 496/141/92 484/142/89 491/143/93
f 77/5/94 84/144/94 78/6/94
f 117/145/95 100/146/95 118/147/95
f 98/18/27 120/148/27 121/149/27
f 92/64/96 95/16/27 93/150/97
f 120/151/98 115/152/98 114/153/98
f 370/154/99 371/155/100 366/156/101
f 370/157/102 390/158/103 368/159/104
f 514/160/105 482/161/100 511/162/106
f 514/163/107 509/164/108 512/165/104
f 67/166/109 85/167/109 66/168/109
f 79/169/110 71/170/110 80/171/110
f 99/172/111 104/173/111 100/174/111
f 371/175/112 395/176/112 394/177/112
f 378/178/113 366/179/113 379/180/113
f 371/181/114 373/182/115 362/183/116
f 395/184/117 391/185/117 396/186/117
f 482/187/112 506/188/112 505/189/112
f 494/190/113 511/191/113 495/192/113
f 482/193/114 490/194/118 484/195/119
f 506/196/120 510/197/120 507/198/120
f 94/199/121 90/200/121 89/201/121
f 388/202/122 386/203/123 385/204/124
f 387/205/125 370/157/102 369/206/126
f 499/207/122 500/208/127 498/209/124
f 502/210/125 514/163/107 513/211/126
f 107/22/128 116/71/128 118/147/128
f 394/177/129 364/32/130 383/31/131
f 397/212/132 388/213/132 385/214/132
f 454/215/133 452/216/133 453/217/133
f 505/189/129 479/38/130 487/37/134
f 508/218/135 499/219/135 498/220/135
f 571/221/133 570/222/133 569/223/133
f 86/224/136 103/225/136 87/226/136
f 121/149/137 102/227/137 101/228/137
f 454/229/133 453/230/133 452/231/133
f 571/232/133 569/233/133 570/234/133
f 55/235/133 56/236/133 54/237/133
f 54/238/133 56/239/133 55/240/133
f 58/241/133 59/242/133 57/243/133
f 59/244/133 58/245/133 57/246/133
f 61/247/133 62/248/133 60/249/133
f 60/250/133 62/251/133 61/252/133
f 66/58/138 64/253/139 63/56/140
f 63/254/140 64/128/139 111/255/141
f 67/256/25 63/257/24 90/258/142
f 63/254/140 111/255/141 91/259/143
f 65/260/144 102/261/145 110/262/146
f 66/58/138 68/263/147 64/253/139
f 65/260/144 68/264/148 102/261/145
f 67/256/25 90/258/142 85/265/149
f 68/266/147 66/267/138 86/268/150
f 68/266/147 86/268/150 103/269/151
f 79/9/30 74/43/152 72/3/14
f 71/170/153 70/270/154 112/271/155
f 71/170/149 112/271/149 92/272/149
f 69/273/156 73/274/156 89/275/156
f 89/275/156 71/276/156 69/273/156
f 79/9/30 83/61/29 74/43/152
f 74/277/152 83/278/29 87/279/157
f 85/280/158 90/281/158 89/282/158
f 94/199/27 85/283/27 78/284/27
f 76/285/159 119/286/160 114/153/161
f 81/287/162 80/171/162 77/288/162
f 80/171/2 78/289/2 77/288/2
f 82/290/163 75/291/163 77/292/163
f 83/293/164 77/294/165 84/295/166
f 81/287/167 77/288/168 76/296/159
f 94/199/27 90/200/27 85/283/27
f 88/297/27 104/298/27 85/283/27
f 110/299/169 101/228/169 104/298/169
f 113/66/170 96/300/171 93/150/172
f 110/299/27 98/18/27 121/149/27
f 70/301/173 107/302/173 97/303/173
f 105/304/32 107/305/156 97/306/156
f 70/301/174 97/303/175 96/307/171
f 107/302/146 120/308/146 97/303/146
f 99/309/176 105/310/35 109/311/177
f 99/312/178 118/147/178 106/24/178
f 117/313/179 100/314/179 101/315/179
f 99/312/176 106/24/36 105/63/35
f 110/299/27 121/149/27 102/227/27
f 117/313/179 101/315/179 120/316/179
f 70/317/174 96/318/171 113/319/170
f 81/320/167 76/321/159 114/322/161
f 117/323/180 81/324/181 115/325/182
f 117/323/146 115/325/146 120/308/146
f 124/326/133 123/327/183 122/328/184
f 122/329/184 123/330/183 124/331/133
f 147/332/185 148/333/186 146/334/187
f 146/335/187 148/336/186 147/337/185
f 172/338/146 171/339/133 170/340/146
f 170/341/146 171/342/133 172/343/146
f 196/344/188 195/345/188 194/346/189
f 195/347/188 196/348/188 194/349/189
f 198/350/133 199/351/149 197/352/149
f 199/353/149 198/354/133 197/355/149
f 200/356/133 201/357/133 202/358/133
f 200/359/133 202/360/133 201/361/133
f 205/362/133 204/363/133 203/364/133
f 205/365/133 203/366/133 204/367/133
f 207/368/133 208/369/133 206/370/133
f 207/371/133 206/372/133 208/373/133
f 211/374/190 209/375/191 210/376/192
f 210/377/192 209/378/191 211/379/190
f 213/380/133 212/381/133 214/382/133
f 213/383/133 214/384/133 212/385/133
f 217/386/193 215/387/194 216/388/195
f 215/389/194 217/390/193 216/391/195
f 218/392/133 220/393/146 219/394/146
f 220/395/146 218/396/133 219/397/146
f 223/398/133 222/399/133 221/400/133
f 223/401/133 221/402/133 222/403/133
f 225/404/133 226/405/133 224/406/133
f 225/407/133 224/408/133 226/409/133
f 228/410/133 229/411/133 227/412/133
f 228/413/133 227/414/133 229/415/133
f 231/416/133 230/417/133 232/418/133
f 231/419/133 232/420/133 230/421/133
f 234/422/196 235/423/197 233/424/197
f 233/425/197 235/426/197 234/427/196
f 236/428/133 237/429/133 238/430/133
f 236/431/133 238/432/133 237/433/133
f 240/434/146 239/435/133 241/436/146
f 239/437/133 240/438/146 241/439/146
f 242/440/133 244/441/133 243/442/133
f 242/443/133 243/444/133 244/445/133
f 247/446/133 246/447/133 245/448/133
f 247/449/133 245/450/133 246/451/133
f 248/452/133 250/453/133 249/454/133
f 248/455/133 249/456/133 250/457/133
f 251/458/179 252/459/179 253/460/179
f 253/461/179 252/462/179 251/463/179
f 255/464/133 254/465/133 256/466/133
f 255/467/133 256/468/133 254/469/133
f 259/470/27 258/471/27 257/472/27
f 258/473/27 259/474/27 257/475/27
f 262/476/133 261/477/133 260/478/133
f 262/479/133 260/480/133 261/481/133
f 265/482/133 264/483/133 263/484/133
f 265/485/133 263/486/133 264/487/133
f 268/488/133 267/489/133 266/490/133
f 268/491/133 266/492/133 267/493/133
f 269/494/156 270/495/156 271/496/156
f 271/497/156 270/498/156 269/499/156
f 272/500/133 274/501/133 273/502/133
f 272/503/133 273/504/133 274/505/133
f 276/506/133 275/507/133 277/508/133
f 275/509/133 276/510/133 277/511/133
f 280/512/133 279/513/133 278/514/133
f 280/515/133 278/516/133 279/517/133
f 281/518/133 282/519/133 283/520/133
f 281/521/133 283/522/133 282/523/133
f 286/524/133 285/525/133 284/526/133
f 286/527/133 284/528/133 285/529/133
f 287/530/133 288/531/133 289/532/133
f 287/533/133 289/534/133 288/535/133
f 290/536/133 291/537/133 292/538/133
f 290/539/133 292/540/133 291/541/133
f 293/542/133 295/543/133 294/544/133
f 295/545/133 293/546/133 294/547/133
f 298/548/133 296/549/133 297/550/133
f 298/551/133 297/552/133 296/553/133
f 299/554/133 301/555/133 300/556/133
f 299/557/133 300/558/133 301/559/133
f 302/560/133 304/561/133 303/562/133
f 302/563/133 303/564/133 304/565/133
f 305/566/146 307/567/146 306/568/146
f 306/569/146 307/570/146 305/571/146
f 308/572/133 309/573/133 310/574/133
f 308/575/133 310/576/133 309/577/133
f 312/578/27 311/579/27 313/580/27
f 311/581/27 312/582/27 313/583/27
f 315/584/133 316/585/133 314/586/133
f 315/587/133 314/588/133 316/589/133
f 317/590/133 319/591/133 318/592/133
f 317/593/133 318/594/133 319/595/133
f 320/596/133 321/597/133 322/598/133
f 320/599/133 322/600/133 321/601/133
f 323/602/133 324/603/133 325/604/133
f 323/605/133 325/606/133 324/607/133
f 326/608/133 327/609/133 328/610/133
f 326/611/133 328/612/133 327/613/133
f 330/614/149 329/615/133 331/616/149
f 329/617/133 330/618/149 331/619/149
f 332/620/133 333/621/133 334/622/133
f 332/623/133 334/624/133 333/625/133
f 336/626/133 337/627/133 335/628/133
f 336/629/133 335/630/133 337/631/133
f 338/632/133 339/633/133 340/634/133
f 338/635/133 340/636/133 339/637/133
f 341/638/133 343/639/133 342/640/133
f 341/641/133 342/642/133 343/643/133
f 344/644/133 345/645/133 346/646/133
f 344/647/133 346/648/133 345/649/133
f 347/650/149 348/651/149 349/652/149
f 348/653/149 347/654/149 349/655/149
f 351/656/146 352/657/146 350/658/146
f 352/659/146 351/660/146 350/661/146
f 354/662/149 353/663/149 355/664/149
f 353/665/149 354/666/149 355/667/149
f 358/668/149 356/669/149 357/670/149
f 356/671/149 358/672/149 357/673/149
f 359/674/179 360/675/179 361/676/179
f 360/677/179 359/678/179 361/679/179
f 363/680/85 384/681/198 364/682/199
f 363/680/85 362/683/87 384/681/198
f 362/684/116 378/685/200 366/686/201
f 363/680/85 364/682/199 377/687/202
f 362/684/116 366/686/201 371/688/114
f 372/689/203 364/690/130 367/691/204
f 364/32/130 393/102/205 367/104/204
f 365/692/206 394/693/206 395/694/206
f 370/154/207 367/695/77 365/692/76
f 370/157/102 391/185/208 390/158/103
f 385/696/124 368/697/209 390/698/210
f 386/699/123 387/700/211 369/701/212
f 385/696/124 386/699/123 368/697/209
f 370/157/102 395/184/156 391/185/208
f 373/702/115 371/175/114 383/31/213
f 383/31/213 371/175/114 394/177/214
f 379/180/215 377/703/215 367/704/215
f 379/705/216 380/706/216 382/707/216
f 379/705/217 382/707/218 374/708/219
f 375/709/90 380/108/220 374/110/88
f 375/710/90 383/31/221 380/711/220
f 381/712/222 382/713/222 383/31/222
f 386/714/123 388/715/122 397/716/223
f 386/714/123 397/716/223 389/717/224
f 385/718/124 390/719/210 396/720/225
f 400/721/133 398/722/133 399/723/133
f 400/724/133 399/725/133 398/726/133
f 401/727/133 403/728/133 402/729/133
f 403/730/133 401/731/133 402/732/133
f 406/733/133 404/734/133 405/735/133
f 404/736/133 406/737/133 405/738/133
f 408/739/133 409/740/133 407/741/133
f 409/742/133 408/743/133 407/744/133
f 410/745/133 412/746/133 411/747/133
f 412/748/133 410/749/133 411/750/133
f 414/751/133 415/752/133 413/753/133
f 413/754/133 415/755/133 414/756/133
f 417/757/133 418/758/133 416/759/133
f 417/760/133 416/761/133 418/762/133
f 419/763/226 421/764/227 420/765/228
f 421/766/227 419/767/226 420/768/228
f 422/769/229 423/770/230 424/771/231
f 424/772/231 423/773/230 422/774/229
f 425/775/232 426/776/233 427/777/27
f 426/778/233 425/779/232 427/780/27
f 429/781/149 428/782/149 430/783/149
f 428/784/149 429/785/149 430/786/149
f 431/787/233 432/788/232 433/789/27
f 432/790/232 431/791/233 433/792/27
f 435/793/27 434/794/234 436/795/27
f 434/796/234 435/797/27 436/798/27
f 437/799/235 439/800/236 438/801/236
f 439/802/236 437/803/235 438/804/236
f 441/805/133 442/806/133 440/807/133
f 442/808/133 441/809/133 440/810/133
f 443/811/133 445/812/133 444/813/133
f 445/814/133 443/815/133 444/816/133
f 447/817/237 446/818/238 448/819/239
f 448/820/239 446/821/238 447/822/237
f 450/823/240 451/824/241 449/825/241
f 449/826/241 451/827/241 450/828/240
f 455/829/133 457/830/133 456/831/133
f 455/832/133 456/833/133 457/834/133
f 460/835/133 459/836/133 458/837/133
f 460/838/133 458/839/133 459/840/133
f 463/841/146 461/842/146 462/843/146
f 462/844/146 461/845/146 463/846/146
f 465/847/149 464/848/149 466/849/149
f 464/850/149 465/851/149 466/852/149
f 467/853/149 468/854/149 469/855/149
f 468/856/149 467/857/149 469/858/149
f 470/859/133 471/860/133 472/861/133
f 471/862/133 470/863/133 472/864/133
f 474/865/149 475/866/149 473/867/149
f 475/868/149 474/869/149 473/870/149
f 478/871/133 476/872/133 477/873/133
f 476/874/133 478/875/133 477/876/133
f 483/877/203 479/878/130 480/879/204
f 489/880/85 488/881/242 479/882/199
f 479/38/130 504/114/205 480/116/204
f 481/883/243 505/884/243 506/885/243
f 514/160/207 480/886/77 481/883/76
f 490/887/118 482/187/114 487/37/213
f 487/37/213 482/187/114 505/189/214
f 484/888/119 511/889/201 482/890/114
f 495/192/215 493/891/215 480/892/215
f 489/880/85 479/882/199 493/893/202
f 491/894/93 487/37/244 497/895/220
f 489/880/85 484/896/91 488/881/242
f 485/897/222 486/898/222 487/37/222
f 495/899/217 486/900/218 496/901/245
f 495/899/216 497/902/216 486/900/216
f 484/888/119 494/903/200 511/889/201
f 491/904/93 497/120/220 496/122/92
f 500/905/127 499/906/122 508/907/223
f 498/908/124 509/909/210 507/910/225
f 498/911/124 500/912/127 512/913/209
f 498/911/124 512/913/209 509/914/210
f 500/912/127 502/915/246 513/916/212
f 500/905/127 508/907/223 501/917/247
f 514/163/107 506/196/156 510/197/208
f 514/163/107 510/197/208 509/164/108
f 515/918/133 517/919/133 516/920/133
f 515/921/133 516/922/133 517/923/133
f 518/924/133 520/925/133 519/926/133
f 520/927/133 518/928/133 519/929/133
f 522/930/133 521/931/133 523/932/133
f 521/933/133 522/934/133 523/935/133
f 525/936/133 524/937/133 526/938/133
f 524/939/133 525/940/133 526/941/133
f 529/942/133 528/943/133 527/944/133
f 528/945/133 529/946/133 527/947/133
f 532/948/133 531/949/133 530/950/133
f 532/951/133 530/952/133 531/953/133
f 533/954/133 534/955/133 535/956/133
f 533/957/133 535/958/133 534/959/133
f 537/960/149 536/961/149 538/962/149
f 536/963/149 537/964/149 538/965/149
f 539/966/248 540/967/248 541/968/249
f 541/969/249 540/970/248 539/971/248
f 542/972/250 543/973/250 544/974/250
f 543/975/250 542/976/250 544/977/250
f 547/978/146 545/979/146 546/980/146
f 545/981/146 547/982/146 546/983/146
f 549/984/146 548/985/179 550/986/179
f 548/987/179 549/988/146 550/989/179
f 551/990/251 552/991/252 553/992/133
f 552/993/252 551/994/251 553/995/133
f 554/996/253 555/997/254 556/998/253
f 555/999/254 554/1000/253 556/1001/253
f 559/1002/255 558/1003/256 557/1004/256
f 558/1005/256 559/1006/255 557/1007/256
f 561/1008/133 562/1009/133 560/1010/133
f 562/1011/133 561/1012/133 560/1013/133
f 563/1014/149 565/1015/149 564/1016/149
f 564/1017/149 565/1018/149 563/1019/149
f 568/1020/257 566/1021/257 567/1022/258
f 567/1023/258 566/1024/257 568/1025/257
f 572/1026/133 573/1027/133 574/1028/133
f 572/1029/133 574/1030/133 573/1031/133
f 575/1032/133 577/1033/133 576/1034/133
f 575/1035/133 576/1036/133 577/1037/133
f 578/1038/259 580/1039/260 579/1040/261
f 580/1041/260 578/1042/259 579/1043/261
f 581/1044/133 582/1045/133 583/1046/133
f 581/1047/133 583/1048/133 582/1049/133
f 584/1050/133 586/1051/133 585/1052/133
f 584/1053/133 585/1054/133 586/1055/133
f 589/1056/133 588/1057/133 587/1058/133
f 589/1059/133 587/1060/133 588/1061/133
f 590/1062/133 592/1063/133 591/1064/133
f 590/1065/133 591/1066/133 592/1067/133
f 594/1068/133 593/1069/133 595/1070/133
f 594/1071/133 595/1072/133 593/1073/133
f 596/1074/250 598/1075/250 597/1076/250
f 598/1077/250 596/1078/250 597/1079/250
f 600/1080/133 601/1081/133 599/1082/133
f 600/1083/133 599/1084/133 601/1085/133
f 602/1086/133 604/1087/133 603/1088/133
f 602/1089/133 603/1090/133 604/1091/133
f 605/1092/133 607/1093/133 606/1094/133
f 605/1095/133 606/1096/133 607/1097/133
f 608/1098/133 610/1099/133 609/1100/133
f 608/1101/133 609/1102/133 610/1103/133
f 612/1104/179 613/1105/179 611/1106/179
f 611/1107/179 613/1108/179 612/1109/179
f 616/1110/133 614/1111/133 615/1112/133
f 614/1113/133 616/1114/133 615/1115/133
f 619/1116/133 618/1117/133 617/1118/133
f 619/1119/133 617/1120/133 618/1121/133
f 621/1122/133 620/1123/133 622/1124/133
f 621/1125/133 622/1126/133 620/1127/133
f 625/1128/133 624/1129/133 623/1130/133
f 625/1131/133 623/1132/133 624/1133/133
f 626/1134/133 627/1135/133 628/1136/133
f 626/1137/133 628/1138/133 627/1139/133
f 630/1140/133 629/1141/133 631/1142/133
f 630/1143/133 631/1144/133 629/1145/133
f 632/1146/133 634/1147/133 633/1148/133
f 634/1149/133 632/1150/133 633/1151/133
f 637/1152/133 635/1153/133 636/1154/133
f 637/1155/133 636/1156/133 635/1157/133
f 639/1158/133 640/1159/133 638/1160/133
f 639/1161/133 638/1162/133 640/1163/133
f 641/1164/133 642/1165/133 643/1166/133
f 641/1167/133 643/1168/133 642/1169/133
f 646/1170/133 645/1171/133 644/1172/133
f 646/1173/133 644/1174/133 645/1175/133
f 649/1176/149 647/1177/149 648/1178/149
f 648/1179/149 647/1180/149 649/1181/149
f 651/1182/133 652/1183/133 650/1184/133
f 652/1185/133 651/1186/133 650/1187/133
f 653/1188/133 654/1189/133 655/1190/133
f 653/1191/133 655/1192/133 654/1193/133
f 657/1194/133 656/1195/133 658/1196/133
f 657/1197/133 658/1198/133 656/1199/133
f 659/1200/133 660/1201/133 661/1202/133
f 659/1203/133 661/1204/133 660/1205/133
f 662/1206/133 664/1207/133 663/1208/133
f 662/1209/133 663/1210/133 664/1211/133
f 667/1212/179 665/1213/179 666/1214/179
f 666/1215/179 665/1216/179 667/1217/179
f 670/1218/27 668/1219/27 669/1220/27
f 668/1221/27 670/1222/27 669/1223/27
f 671/1224/133 673/1225/133 672/1226/133
f 671/1227/133 672/1228/133 673/1229/133
f 675/1230/133 676/1231/133 674/1232/133
f 675/1233/133 674/1234/133 676/1235/133
f 677/1236/133 678/1237/133 679/1238/133
f 677/1239/133 679/1240/133 678/1241/133
f 681/1242/133 682/1243/133 680/1244/133
f 681/1245/133 680/1246/133 682/1247/133
f 685/1248/133 683/1249/133 684/1250/133
f 685/1251/133 684/1252/133 683/1253/133
f 688/1254/133 687/1255/133 686/1256/133
f 687/1257/133 688/1258/133 686/1259/133
f 689/1260/133 691/1261/133 690/1262/133
f 689/1263/133 690/1264/133 691/1265/133
f 692/1266/133 694/1267/133 693/1268/133
f 692/1269/133 693/1270/133 694/1271/133
f 697/1272/133 695/1273/133 696/1274/133
f 695/1275/133 697/1276/133 696/1277/133
f 700/1278/133 698/1279/133 699/1280/133
f 698/1281/133 700/1282/133 699/1283/133
f 701/1284/133 703/1285/133 702/1286/133
f 701/1287/133 702/1288/133 703/1289/133
f 705/1290/133 704/1291/133 706/1292/133
f 705/1293/133 706/1294/133 704/1295/133
f 708/1296/133 709/1297/133 707/1298/133
f 708/1299/133 707/1300/133 709/1301/133
f 711/1302/262 710/1303/263 712/1304/264
f 710/1305/263 711/1306/262 712/1307/264
f 713/1308/149 714/1309/133 715/1310/133
f 714/1311/133 713/1312/149 715/1313/133
f 718/1314/149 716/1315/133 717/1316/133
f 716/1317/133 718/1318/149 717/1319/133
f 719/1320/265 721/1321/266 720/1322/266
f 721/1323/266 719/1324/265 720/1325/266
f 4/1326/267 7/1327/268 5/1328/269
f 6/1329/270 7/1330/268 4/1331/267
f 6/1329/270 722/1332/271 7/1330/268
f 6/1333/270 5/1334/269 722/1335/271
f 7/1327/268 8/1336/272 5/1328/269
f 5/1337/269 8/1338/272 722/1339/271
f 9/1340/267 723/1341/273 10/1342/274
f 11/1343/270 10/1344/274 724/1345/271
f 11/1346/270 724/1347/271 723/1348/273
f 11/1346/270 723/1348/273 9/1349/267
f 723/1341/273 12/1350/275 10/1342/274
f 10/1351/274 12/1352/275 724/1353/271
f 15/1354/276 725/1355/277 13/1356/278
f 13/1356/278 725/1355/277 14/1357/279
f 725/1355/277 16/1358/280 14/1357/279
f 15/1359/276 17/1360/281 725/1361/277
f 14/1362/279 17/1363/281 15/1364/276
f 14/1362/279 16/1365/280 17/1363/281
f 727/1366/276 728/1367/277 18/1368/278
f 18/1368/278 728/1367/277 726/1369/279
f 726/1370/279 20/1371/281 727/1372/276
f 728/1367/277 19/1373/280 726/1369/279
f 726/1370/279 19/1374/280 20/1371/281
f 727/1375/276 20/1376/281 728/1377/277
f 729/1378/282 730/1379/283 21/1380/284
f 21/1381/284 730/1382/283 22/1383/285
f 22/1384/285 24/1385/286 729/1386/282
f 22/1384/285 23/1387/287 24/1385/286
f 729/1388/282 24/1389/286 730/1390/283
f 730/1382/283 23/1391/287 22/1383/285
f 731/1392/288 732/1393/289 733/1394/290
f 732/1395/289 731/1396/288 733/1397/290
f 25/1398/284 734/1399/283 26/1400/285
f 735/1401/282 734/1402/283 25/1403/284
f 734/1399/283 27/1404/287 26/1400/285
f 26/1405/285 27/1406/287 28/1407/286
f 26/1405/285 28/1407/286 735/1408/282
f 735/1409/282 28/1410/286 734/1411/283
f 31/1412/276 34/1413/277 29/1414/278
f 29/1414/278 34/1413/277 30/1415/279
f 34/1413/277 32/1416/280 30/1415/279
f 30/1417/279 33/1418/281 31/1419/276
f 31/1420/276 33/1421/281 34/1422/277
f 30/1417/279 32/1423/280 33/1418/281
f 37/1424/276 736/1425/277 35/1426/278
f 35/1426/278 736/1425/277 36/1427/279
f 736/1425/277 38/1428/280 36/1427/279
f 36/1429/279 39/1430/281 37/1431/276
f 36/1429/279 38/1432/280 39/1430/281
f 37/1433/276 39/1434/281 736/1435/277
f 40/1436/278 738/1437/277 41/1438/279
f 737/1439/276 738/1437/277 40/1436/278
f 738/1437/277 42/1440/280 41/1438/279
f 737/1441/276 43/1442/291 738/1443/277
f 41/1444/279 43/1445/291 737/1446/276
f 41/1444/279 42/1447/280 43/1445/291
f 44/1448/284 739/1449/283 45/1450/285
f 46/1451/282 739/1452/283 44/1453/284
f 739/1449/283 47/1454/287 45/1450/285
f 46/1455/282 48/1456/286 739/1457/283
f 45/1458/285 47/1459/287 48/1460/286
f 45/1458/285 48/1460/286 46/1461/282
f 49/1462/278 740/1463/277 50/1464/279
f 51/1465/276 740/1463/277 49/1462/278
f 740/1463/277 52/1466/280 50/1464/279
f 50/1467/279 52/1468/280 53/1469/281
f 50/1467/279 53/1469/281 51/1470/276
f 51/1471/276 53/1472/281 740/1473/277
f 741/1474/133 743/1475/133 742/1476/133
f 743/1477/133 741/1478/133 742/1479/133
f 744/1480/133 746/1481/133 745/1482/133
f 746/1483/133 744/1484/133 745/1485/133
f 747/1486/133 748/1487/133 749/1488/133
f 747/1489/133 749/1490/133 748/1491/133
f 751/1492/292 750/1493/293 752/1494/294
f 750/1495/293 751/1496/292 752/1497/294
f 753/1498/295 754/1499/296 755/1500/297
f 754/1501/296 753/1502/295 755/1503/297
f 756/1504/298 758/1505/298 757/1506/298
f 757/1507/298 758/1508/298 756/1509/298
f 761/1510/149 760/1511/149 759/1512/149
f 760/1513/149 761/1514/149 759/1515/149
f 763/1516/133 764/1517/133 762/1518/133
f 764/1519/133 763/1520/133 762/1521/133
f 766/1522/149 765/1523/149 767/1524/149
f 765/1525/149 766/1526/149 767/1527/149
f 769/1528/149 770/1529/149 768/1530/149
f 770/1531/149 769/1532/149 768/1533/149
f 771/1534/149 773/1535/149 772/1536/149
f 773/1537/149 771/1538/149 772/1539/149
f 775/1540/133 774/1541/133 776/1542/133
f 774/1543/133 775/1544/133 776/1545/133
f 778/1546/149 779/1547/149 777/1548/149
f 779/1549/149 778/1550/149 777/1551/149
f 781/1552/299 780/1553/299 782/1554/149
f 782/1555/149 780/1556/299 781/1557/299
f 784/1558/300 785/1559/301 783/1560/301
f 783/1561/301 785/1562/301 784/1563/300
f 69/1/302 70/67/154 71/2/153
f 75/4/303 76/1564/159 77/5/168
f 80/7/304 81/70/44 82/8/43
f 85/10/305 86/1565/305 87/11/305
f 88/13/306 89/1566/306 90/14/306
f 95/16/307 96/300/171 97/17/175
f 102/19/308 103/1567/308 104/20/308
f 107/22/309 70/67/39 108/23/38
f 109/25/310 105/1568/310 110/26/310
f 116/28/311 81/1569/181 117/29/180
f 370/1570/207 366/179/312 367/1571/77
f 368/697/104 369/701/126 370/1570/102
f 374/1572/313 376/1573/313 377/1574/313
f 377/1574/314 378/1575/314 379/1576/314
f 377/1574/315 379/1576/315 374/1572/315
f 384/33/198 362/136/87 381/712/316
f 381/712/317 382/713/317 384/33/317
f 382/713/318 383/31/318 384/33/318
f 395/36/319 396/1577/319 397/1578/319
f 395/36/320 397/1578/320 392/1579/320
f 395/36/321 392/1579/321 393/34/321
f 488/39/242 484/142/91 485/897/322
f 485/897/323 486/898/323 488/39/323
f 486/898/324 487/37/324 488/39/324
f 496/1580/325 492/1581/325 493/1582/325
f 493/1582/314 494/1583/314 495/1584/314
f 493/1582/315 495/1584/315 496/1580/315
f 506/42/326 507/1585/326 508/1586/326
f 506/42/327 508/1586/327 503/1587/327
f 506/42/328 503/1587/328 504/40/328
f 514/1588/207 511/191/312 480/1589/77
f 512/913/104 513/916/126 514/1588/107
f 74/43/329 73/1590/329 69/1/329
f 133/1591/179 131/1592/179 132/1593/133
f 81/320/181 114/322/330 115/1594/182
f 501/1595/247 502/1596/246 500/1597/127
f 111/53/331 88/1598/331 91/54/331
f 75/4/332 78/6/332 92/59/332
f 98/18/333 110/299/333 105/62/333
f 92/64/96 93/150/97 112/65/334
f 120/68/335 76/1564/335 75/4/335
f 127/1599/179 126/1600/179 125/1601/133
f 137/1602/179 138/1603/179 139/1604/133
f 145/1605/146 144/1606/133 143/1607/133
f 157/1608/133 156/1609/133 155/1610/133
f 158/1611/19 159/1612/18 160/1613/18
f 169/1614/146 167/1615/133 168/1616/133
f 178/1617/336 176/1618/337 177/1619/338
f 190/1620/339 188/1621/340 189/1622/133
f 393/102/341 392/1623/341 365/103/341
f 376/105/342 364/1624/130 372/106/203
f 389/111/343 392/1625/343 397/112/343
f 504/114/341 503/1626/341 481/115/341
f 492/117/344 479/1627/130 483/118/203
f 501/123/345 503/1628/345 508/124/345
f 91/259/346 90/1629/346 63/254/346
f 65/126/347 111/255/347 110/127/347
f 74/129/348 89/1630/348 88/130/348
f 84/295/349 87/1631/349 83/293/349
f 363/132/350 378/1632/350 377/133/350
f 374/135/351 381/712/351 362/136/351
f 489/138/352 494/1633/352 493/139/352
f 496/141/353 485/897/353 484/142/353
f 77/5/354 85/1634/354 84/144/354
f 117/145/355 99/312/355 100/146/355
f 98/18/356 97/17/356 120/148/356
f 92/64/357 96/300/357 95/16/357
f 120/151/41 119/286/42 115/152/358
f 126/1635/179 127/1636/179 125/1637/133
f 131/1638/179 133/1639/179 132/1640/133
f 138/1641/179 137/1642/179 139/1643/133
f 144/1644/133 145/1645/146 143/1646/133
f 156/1647/133 157/1648/133 155/1649/133
f 167/1650/133 169/1651/146 168/1652/133
f 176/1653/337 178/1654/336 177/1655/338
f 183/1656/22 182/1657/21 184/1658/20
f 188/1659/340 190/1660/339 189/1661/133
f 382/707/218 381/1662/359 374/708/219
f 486/900/218 485/1663/359 496/901/245
f 67/166/2 86/1664/2 85/167/2
f 79/169/360 72/1665/360 71/170/360
f 99/172/361 101/1666/361 104/173/361
f 70/317/154 113/319/362 112/1667/155
f 378/178/363 367/1571/363 366/179/363
f 395/184/364 390/1668/103 391/185/208
f 369/701/212 368/697/365 386/699/123
f 494/190/363 480/1589/363 511/191/363
f 506/196/364 509/1669/108 510/197/208
f 513/916/212 512/913/365 500/912/127
f 94/199/27 92/64/27 90/200/27
f 129/1670/48 128/1671/47 130/1672/46
f 135/1673/51 134/1674/50 136/1675/49
f 141/1676/54 140/1677/53 142/1678/52
f 154/1679/17 152/1680/16 153/1681/15
f 165/1682/62 164/1683/61 166/1684/60
f 380/706/366 383/1685/366 382/707/366
f 497/902/367 487/1686/367 486/900/367
f 103/269/368 102/1687/368 68/266/368
f 65/1688/144 64/253/369 68/263/148
f 107/22/370 106/24/370 116/71/370
f 394/177/129 393/102/205 364/32/130
f 397/212/371 396/720/371 388/213/371
f 505/189/129 504/114/205 479/38/130
f 508/218/371 507/910/371 499/219/371
f 86/224/372 104/1689/372 103/225/372
f 121/149/27 120/148/27 102/227/27
f 150/1690/55 149/1691/56 151/1692/55
f 162/1693/59 163/1694/58 161/1695/57
f 175/1696/65 174/1697/64 173/1698/63
f 180/1699/68 179/1700/67 181/1701/66
f 187/1702/71 186/1703/70 185/1704/69
f 193/1705/74 192/1706/73 191/1707/72
f 389/1708/224 387/1709/211 386/1710/123
f 92/1711/156 71/276/156 89/275/156
f 92/272/149 80/171/149 71/170/149
f 108/1712/38 69/1713/40 72/1714/250
f 72/1714/373 71/1715/373 92/1716/373
f 108/1712/374 72/1714/375 92/1716/376
f 89/282/377 74/277/377 87/279/377
f 89/282/378 87/279/378 85/280/378
f 77/294/165 83/293/164 80/1717/379
f 83/293/164 82/1718/380 80/1717/379
f 80/171/381 92/272/381 78/289/381
f 77/292/156 80/1719/156 82/290/156
f 82/290/382 120/1720/383 75/291/384
f 82/290/382 116/1721/385 120/1720/383
f 116/1721/386 117/1722/386 120/1720/386
f 85/283/387 89/201/387 88/297/387
f 104/298/388 86/1723/388 85/283/388
f 88/297/389 111/1724/389 110/299/389
f 110/299/390 102/227/390 101/228/390
f 104/298/27 88/297/27 110/299/27
f 97/1725/179 107/1726/179 95/1727/179
f 95/1727/179 107/1726/179 108/1712/374
f 108/1712/374 92/1716/376 95/1727/179
f 95/1728/33 105/304/32 97/306/156
f 105/304/32 108/1729/156 107/305/156
f 101/1730/391 99/309/391 109/311/391
f 101/1730/392 109/311/392 110/1731/392
f 107/302/393 118/1732/393 117/323/393
f 120/308/146 107/302/146 117/323/146
f 395/694/394 370/154/394 365/692/394
f 365/692/395 393/1733/395 394/693/395
f 370/157/102 387/205/125 395/184/396
f 387/205/397 397/1734/397 395/184/397
f 370/154/99 395/694/398 371/1735/100
f 384/33/399 373/702/399 383/31/399
f 377/703/400 372/1736/203 367/704/204
f 380/1737/401 379/1738/401 378/1739/401
f 378/1739/402 377/1740/402 376/1741/402
f 378/1739/403 376/1741/403 380/1737/403
f 375/710/90 381/712/404 383/31/221
f 506/885/394 514/160/394 481/883/394
f 481/883/395 504/1742/395 505/884/395
f 514/160/105 506/885/398 482/1743/100
f 488/39/405 490/887/405 487/37/405
f 493/891/400 483/1744/203 480/892/204
f 491/894/93 485/897/406 487/37/244
f 497/1745/401 495/1746/401 494/1747/401
f 494/1747/407 493/1748/407 492/1749/407
f 494/1747/403 492/1749/403 497/1745/403
f 514/163/107 502/210/125 506/196/396
f 502/210/408 508/1750/408 506/196/408
l 1 2
l 2 3
l 3 1
