# Blender 4.5.0
# www.blender.org
mtllib residential_004.lod2.mtl
o residential_004
v -2.305326 0.949323 -3.174968
v -2.375952 0.994618 -3.160920
v -2.338839 0.990099 -3.230117
v -2.333398 0.404328 -3.174968
v -2.309284 0.377393 -3.205759
v -2.043000 0.949323 -3.174968
v -2.061444 0.936630 -3.180240
v -2.067114 0.976258 -3.205760
v -2.071073 0.404329 -3.174968
v -2.049867 0.756136 -3.296314
v -1.781904 0.615595 -3.201374
v -1.942147 0.689966 -3.081331
v -1.623280 0.949323 -3.174968
v -1.641723 0.936630 -3.180240
v -1.647395 0.976258 -3.205760
v -1.591650 0.368294 -3.138560
v -1.651352 0.404328 -3.174968
v -1.617839 0.363553 -3.230116
v -1.687903 0.756136 -3.183857
v -1.387092 0.616229 -3.229947
v -1.487091 0.597514 -3.064165
v -1.335333 0.738062 -3.201374
v -1.067370 0.597514 -3.296314
v -1.213354 0.597514 -3.012418
v 1.307896 0.756136 -3.296314
v 1.928429 0.597514 -3.183857
v 1.727617 0.756136 -3.064165
v 1.727617 0.756136 -3.296314
v 1.835336 0.689966 -3.081331
v 2.022430 0.738062 -3.201374
v 2.290393 0.597514 -3.296314
v 2.182674 0.663690 -3.081330
v 2.311599 0.949323 -3.174968
v 2.251896 0.985358 -3.138560
v 2.278085 0.990099 -3.230117
v 2.283526 0.404328 -3.174968
v 2.307640 0.377392 -3.205760
v 2.573924 0.949323 -3.174968
v 2.503303 0.994615 -3.160916
v 2.540408 0.990098 -3.230116
v 2.545852 0.404329 -3.174968
v 2.569967 0.377393 -3.205759
v -3.697500 0.012793 3.407500
v -3.697500 -0.000000 -3.407500
v 3.482129 0.728797 0.762232
v -0.928636 6.227353 -2.325014
v -3.230985 0.728797 0.949279
v 3.189469 0.078334 2.820864
v 3.189469 0.402200 -2.353181
v 3.127101 6.433458 -2.586118
v 3.131757 6.430862 -2.582347
v -2.878522 6.433093 -2.584278
v 3.129541 6.433093 2.584277
v -2.880738 6.430862 2.582346
v -2.876082 6.433458 2.586117
v 3.131757 6.310224 -2.586280
v 3.134125 6.679422 -2.586284
v 3.131757 6.310507 -2.582347
v 3.136174 6.306132 -2.586284
v 3.127340 6.306132 2.586283
v 3.131757 6.310507 2.586283
v 3.127340 6.314883 2.586283
v 3.134936 6.310507 2.585682
v -2.883917 6.310507 -2.585683
v -2.876321 6.306132 -2.586284
v -2.880738 6.310507 -2.586284
v -2.876321 6.314883 -2.586284
v -3.048626 6.310507 -2.586284
v -3.053919 6.310507 -2.582347
v -3.044210 6.310507 -2.582347
v -2.882847 6.682745 2.584667
v -3.044210 6.684700 -2.586284
v -3.046091 6.683433 -2.734318
v -3.048626 6.680325 -2.586284
v -3.044210 6.684700 -2.582347
v -2.883185 6.314883 2.586283
v -2.880738 6.310507 2.582346
v -2.885155 6.306132 2.586283
v -2.880738 6.310224 2.586279
v -2.885155 6.680325 -2.586284
v -2.882288 6.683629 -2.582312
v -3.044210 6.310507 2.582346
v -3.080945 6.283442 2.594742
v -3.048626 6.314883 2.586283
v -3.053043 6.310507 2.590220
v 3.133738 6.684594 2.582190
v 3.136174 6.680325 2.586283
v 3.295229 6.684700 2.582346
v 3.297110 6.683433 2.734317
v 3.299645 6.680325 2.586283
v 3.304062 6.684700 2.590220
v 3.295229 6.684700 -2.582347
v 3.299645 6.679457 -2.586284
v 3.299630 6.684468 -2.732373
v 3.294352 6.684700 -2.586284
v 3.331964 6.283442 -2.594743
v -3.048626 6.315784 -2.733831
v -3.044067 6.310637 -2.733774
v 3.295229 6.310507 -2.586284
v 3.299645 6.314883 -2.586284
v 3.295229 6.310507 -2.582347
v -3.044210 6.684700 2.582346
v -3.048626 6.679457 2.586283
v -3.048611 6.684468 2.732372
v -3.043333 6.684700 2.586283
v 3.299645 6.315784 2.733830
v 3.295086 6.310637 2.733773
v 3.304938 6.310507 2.582346
v 3.299645 6.310507 2.586283
v 3.295229 6.310507 2.582346
v -0.912120 6.231863 -2.387922
v -2.299561 6.231858 -2.401138
v -1.138887 0.075632 -3.030581
v -0.761038 2.342313 -2.380603
v -0.761037 0.778354 -2.389750
v -2.351100 0.811951 -2.404584
v -2.236601 2.278746 -2.470359
v -0.870144 2.278747 -2.468368
v -1.533699 0.811951 -2.475989
v -2.233274 2.323922 -2.527375
v -2.237563 2.323923 -2.467474
v -2.235418 0.792501 -2.497422
v -1.551228 2.323922 -2.527375
v -1.555517 2.323923 -2.467474
v -1.553372 0.792501 -2.497422
v -0.869183 2.323923 -2.527375
v -0.871326 0.792501 -2.497422
v -0.873471 2.323923 -2.467474
v -2.365048 0.765604 -2.628064
v -0.750657 0.810100 -2.408582
v -2.365049 0.775143 -2.404202
v -0.446360 2.449867 -2.502841
v -2.369592 2.370293 -2.706538
v -2.369592 2.377079 -2.325724
v 0.854664 2.342319 -2.389750
v 0.854659 0.778360 -2.380602
v 2.828757 1.212248 -3.002521
v 1.627341 0.811951 -2.475976
v 0.963768 2.278747 -2.470359
v 2.330224 2.278746 -2.468368
v 0.964951 0.792501 -2.497422
v 0.962806 2.323923 -2.467474
v 0.967095 2.323922 -2.527375
v 1.649140 2.323923 -2.527375
v 1.644851 2.323923 -2.467474
v 1.646996 0.792501 -2.497422
v 2.331186 2.323922 -2.527374
v 2.329042 0.792501 -2.497422
v 2.326897 2.323923 -2.467475
v 0.844281 0.730647 -2.408582
v 2.458672 0.775143 -2.628064
v 2.458673 0.765604 -2.404202
v 0.696084 2.373682 -2.516131
v 2.463216 2.370293 -2.325724
v 2.463216 2.377079 -2.706538
v -3.061291 0.811951 1.467335
v -2.962689 2.023826 1.927130
v -2.956181 2.023823 0.972499
v -3.061291 1.976106 1.432295
v -3.052629 0.841586 1.848370
v -3.055116 0.841586 1.051261
v -3.118734 0.807751 1.849089
v -3.085353 1.995560 1.847345
v -3.051969 0.807751 1.845602
v -3.085353 1.995559 1.449815
v -3.118734 0.807751 1.451559
v -3.051969 0.807751 1.448072
v -3.051969 0.807751 1.050542
v -3.085353 1.995559 1.052285
v -3.118734 0.807751 1.054029
v -3.037370 0.775205 0.986810
v -2.978178 0.774932 1.963010
v -3.234495 0.765814 1.963010
v -2.962689 0.753838 -1.740057
v -2.956181 0.753840 -0.785426
v -3.055116 0.841586 -1.661297
v -3.061291 1.976106 -1.280263
v -3.052630 0.841586 -0.864188
v -3.085353 1.995559 -0.865213
v -3.118734 0.807751 -0.863469
v -3.051969 0.807751 -0.866955
v -3.085353 1.995559 -1.262743
v -3.051969 0.807751 -1.264485
v -3.118734 0.807751 -1.260999
v -3.085353 1.995559 -1.660273
v -3.118734 0.807751 -1.658529
v -3.051969 0.807751 -1.662015
v -3.037370 0.775204 -1.725748
v -2.978176 0.774932 -0.749547
v -3.234497 0.765815 -0.749547
v 1.220975 2.021226 2.840530
v 2.282876 2.021225 2.846484
v 1.771581 0.811951 2.934305
v 1.732271 1.976107 2.934305
v 1.304841 0.841928 2.928699
v 2.199011 0.841928 2.926684
v 2.197880 1.995556 2.955751
v 2.200024 0.807145 2.985704
v 2.195734 0.807145 2.925802
v 1.751927 1.995556 2.955751
v 1.754071 0.807145 2.985704
v 1.749781 0.807145 2.925802
v 1.308118 0.807145 2.985704
v 1.305974 1.995556 2.955751
v 1.303828 0.807145 2.925802
v 1.232522 0.775205 2.912982
v 2.327444 0.765840 3.088299
v 2.327444 0.774909 2.860624
v -1.271392 0.811951 2.934305
v -0.760096 2.021225 2.846484
v -1.821998 2.021226 2.840531
v -1.310702 1.976107 2.934305
v -1.738132 0.841928 2.928699
v -0.843962 0.841928 2.926684
v -0.845094 1.995556 2.955751
v -0.842950 0.807145 2.985704
v -0.847239 0.807145 2.925802
v -1.291046 1.995556 2.955751
v -1.288903 0.807145 2.985704
v -1.293192 0.807145 2.925802
v -1.737000 1.995556 2.955751
v -1.734856 0.807145 2.985704
v -1.739145 0.807145 2.925802
v -1.866565 0.765839 2.860622
v -0.771643 0.775224 2.913111
v -1.866565 0.774907 3.088300
v 3.213708 0.753838 -0.972501
v 3.312310 1.976106 -1.432295
v 3.207201 0.753840 -1.927131
v 3.306135 0.841586 -1.051261
v 3.303648 0.841586 -1.848370
v 3.336373 1.995559 -1.847345
v 3.302988 0.807751 -1.845603
v 3.369753 0.807751 -1.849089
v 3.336373 1.995559 -1.449815
v 3.369753 0.807751 -1.451559
v 3.302988 0.807751 -1.448073
v 3.336373 1.995559 -1.052285
v 3.302988 0.807751 -1.050542
v 3.369753 0.807751 -1.054029
v 3.288389 0.775204 -0.986810
v 3.229197 0.774932 -1.963010
v 3.485514 0.765814 -1.963010
v 3.213708 2.023826 0.785427
v 3.207201 2.023823 1.740059
v 3.312310 0.811951 1.245222
v 3.312310 1.976106 1.280262
v 3.303649 0.841586 0.864188
v 3.306135 0.841586 1.661297
v 3.336373 1.995559 0.865213
v 3.369753 0.807751 0.863469
v 3.302988 0.807751 0.866955
v 3.336373 1.995559 1.262743
v 3.369753 0.807751 1.260999
v 3.302988 0.807751 1.264485
v 3.369753 0.807751 1.658529
v 3.336373 1.995560 1.660273
v 3.302988 0.807751 1.662015
v 3.288389 0.775205 1.725748
v 3.485516 0.765815 0.749547
v 3.229195 0.774932 0.749547
v -2.576441 3.536994 -2.623651
v -0.393463 3.442625 -3.171404
v -0.393464 3.430370 -2.347249
v -2.627024 3.502413 -3.068806
v -2.662121 3.502470 -3.066426
v -2.643785 4.583878 -3.067997
v -1.934605 3.502469 -3.066426
v -1.899508 3.502413 -3.068805
v -1.916270 4.583877 -3.067997
v -1.171993 3.502412 -3.068806
v -1.188754 4.583877 -3.067997
v -1.207091 3.502469 -3.066426
v -0.479575 3.502469 -3.066426
v -0.461239 4.583878 -3.067997
v -0.444478 3.502413 -3.068806
v -2.647377 3.651496 -3.066026
v -2.647330 3.605871 -3.068997
v -0.449235 3.627699 -3.067996
v -2.641852 4.575312 -3.045596
v -2.644645 4.565240 -3.053303
v -2.635249 4.574485 -3.092524
v -2.644645 4.583827 -3.082273
v -2.644645 4.562715 -3.082223
v -2.644645 4.546385 -3.082690
v -2.663274 4.563817 -3.067890
v -2.644767 4.550692 -3.067997
v -2.647192 4.548573 -3.064587
v -2.644645 4.545709 -3.067997
v -0.463344 4.584241 -3.085364
v -0.467962 4.563152 -3.085892
v -0.462099 4.566212 -3.084204
v -0.472454 4.571609 -3.043094
v -0.462099 4.566212 -3.051789
v -0.462099 4.582074 -3.051728
v -2.643857 4.574644 -2.382200
v -2.661720 4.588809 -3.063344
v -2.644645 4.593576 -3.065400
v -2.640229 4.596387 -3.064587
v -2.640229 4.596387 -3.071406
v -2.646689 4.596387 -3.062742
v -2.640820 4.596387 -3.064059
v -2.644645 4.592550 -3.067997
v -2.621160 4.575902 -3.066909
v -0.461152 4.574126 -2.382200
v -0.457683 4.548573 -3.064587
v -0.457683 4.548573 -3.071406
v -0.462099 4.550761 -3.066421
v -0.482630 4.560277 -3.065571
v -0.462099 4.550761 -3.069572
v -0.438362 4.574764 -3.067199
v -0.480350 4.582074 -3.067997
v -0.466515 4.596387 -3.064587
v -0.457389 4.603961 -3.072196
v -0.465924 4.596387 -3.064059
v -0.458274 4.596387 -3.064059
v -0.462099 4.592550 -3.067997
v -0.466515 4.596387 -3.071406
v -2.635016 4.233467 -3.098982
v -0.466515 3.650510 -3.071406
v -2.635015 3.575011 -3.093138
v -1.533717 5.821978 -2.475976
v -0.557561 3.555768 -2.391188
v -2.549185 3.555770 -2.379160
v -1.805884 3.524849 -2.483114
v -2.456919 5.781608 -2.470367
v -0.649826 5.781608 -2.468360
v -2.455772 3.598947 -2.497423
v -2.457917 5.826785 -2.467475
v -2.453628 5.826785 -2.527375
v -1.553372 3.598947 -2.497422
v -1.551228 5.826785 -2.527375
v -1.555517 5.826785 -2.467475
v -0.650973 3.598947 -2.497423
v -0.653118 5.826785 -2.467475
v -0.648829 5.826785 -2.527375
v -0.521362 3.571932 -2.405192
v -2.654135 3.576820 -2.516131
v -0.521363 3.581708 -2.627073
v -0.506774 3.519605 -2.994664
v -0.523264 5.239900 -2.989231
v -0.501369 3.519606 -2.393036
v -1.716014 4.268254 -2.542666
v -2.512183 3.769064 -2.965106
v -1.716014 3.602590 -2.957279
v -1.711058 3.946743 -2.979831
v -2.059252 4.192341 -2.983814
v -2.236719 3.806922 -2.987789
v -1.765922 3.787304 -3.011875
v -2.215625 3.801499 -3.012869
v -2.215625 3.773108 -3.010880
v -2.222236 3.856945 -3.011875
v -1.772532 3.871140 -3.010880
v -1.772532 3.842750 -3.012869
v -2.215625 3.940781 -3.012869
v -2.215626 3.912392 -3.010880
v -1.765921 3.926585 -3.011875
v -1.765922 3.996228 -3.011875
v -2.215625 3.982033 -3.010880
v -2.215625 4.010424 -3.012869
v -2.215626 4.080064 -3.012869
v -1.765921 4.065870 -3.011875
v -2.215626 4.051674 -3.010880
v -1.765921 4.135512 -3.011875
v -2.215625 4.121316 -3.010880
v -2.215626 4.149706 -3.012869
v -2.513812 4.138948 -2.980508
v -2.418717 4.138948 -2.977767
v -2.466264 3.735547 -2.979139
v -2.476756 3.561229 -3.048494
v -2.425520 3.557794 -2.470448
v -2.527995 3.564662 -2.470447
v -1.847177 3.561229 -3.048494
v -1.898414 3.564663 -2.470447
v -1.795939 3.557794 -2.470447
v -2.079160 5.598073 -2.935640
v -2.079268 5.567642 -2.937773
v -0.810901 5.582158 -2.937045
v -2.079175 5.560835 -2.415568
v -2.075824 5.604830 -2.415592
v -2.078023 5.581877 -3.004814
v -0.816662 5.604830 -2.415592
v -0.818861 5.581877 -3.004814
v -0.820013 5.560835 -2.415568
v 2.806904 3.442624 -3.171402
v 0.623928 3.536994 -2.623651
v 2.806904 3.430371 -2.347250
v 0.573344 3.502413 -3.068806
v 0.538248 3.502470 -3.066426
v 0.556583 4.583878 -3.067997
v 1.300860 3.502413 -3.068805
v 1.284098 4.583877 -3.067997
v 1.265763 3.502469 -3.066426
v 1.993277 3.502470 -3.066426
v 2.011615 4.583877 -3.067997
v 2.028375 3.502412 -3.068806
v 2.720794 3.502469 -3.066426
v 2.755890 3.502413 -3.068806
v 2.739129 4.583878 -3.067997
v 0.553038 3.605871 -3.068997
v 0.552991 3.651496 -3.066026
v 2.751135 3.627699 -3.067996
v 0.566776 4.579322 -3.038347
v 0.555723 4.565240 -3.053303
v 2.734308 4.585319 -3.085810
v 2.738269 4.582074 -3.084265
v 0.553292 4.554410 -3.071518
v 0.555723 4.545709 -3.067997
v 0.551307 4.548573 -3.071406
v 0.543064 4.549394 -3.065866
v 0.576624 4.582245 -2.398470
v 2.740331 4.552408 -3.071964
v 0.559850 4.564918 -3.086118
v 0.562432 4.579515 -3.094902
v 0.555749 4.594261 -3.054135
v 0.559549 4.596387 -3.064059
v 0.555723 4.592550 -3.067997
v 0.551897 4.596387 -3.064324
v 0.555723 4.594028 -3.065634
v 2.737488 4.575953 -3.046829
v 0.550725 4.569236 -2.384163
v 0.532025 4.572938 -3.066583
v 2.717761 4.563272 -2.392135
v 2.742980 4.603528 -3.064475
v 2.733852 4.596387 -3.071406
v 2.733852 4.596387 -3.064587
v 2.740206 4.598090 -3.067997
v 2.734444 4.600762 -3.072691
v 2.742094 4.600762 -3.072691
v 2.733852 4.552949 -3.064587
v 2.738900 4.552171 -3.064325
v 2.738269 4.555813 -3.067997
v 2.715770 4.570151 -3.066937
v 2.721194 4.588809 -3.064059
v 2.742355 4.591618 -2.386576
v 2.765856 4.579434 -3.059086
v 2.756520 4.582074 -3.067997
v 2.734444 4.596387 -2.398470
v 2.728640 4.233467 -3.093138
v 0.560139 3.650510 -3.071406
v 2.728639 3.575011 -3.098982
v 0.651185 3.555768 -2.379160
v 1.666651 5.821978 -2.475976
v 2.642807 3.555768 -2.391188
v 0.743450 5.781608 -2.470367
v 1.394484 3.524849 -2.483114
v 2.550543 5.781608 -2.468360
v 0.746741 5.826785 -2.527375
v 0.742453 5.826785 -2.467475
v 0.744598 3.598947 -2.497423
v 1.644851 5.826785 -2.467475
v 1.646996 3.598947 -2.497423
v 1.649140 5.826785 -2.527375
v 2.551538 5.826785 -2.527375
v 2.549395 3.598947 -2.497423
v 2.547249 5.826785 -2.467475
v 2.679005 3.581708 -2.627071
v 0.546232 3.576820 -2.516131
v 2.679005 3.571932 -2.405193
v 2.699002 3.519606 -2.393037
v 2.715490 5.239900 -2.989231
v 2.693597 3.519606 -2.994664
v 0.592448 4.268254 -2.957279
v 0.628344 3.539619 -2.628375
v 1.445930 3.948097 -2.974460
v 1.489310 3.946743 -2.979831
v 1.141116 4.192341 -2.983814
v 0.963649 3.806922 -2.987789
v 0.984743 3.801499 -3.012869
v 0.984743 3.773108 -3.010880
v 1.434446 3.787304 -3.011875
v 0.984743 3.871140 -3.012869
v 1.434447 3.856945 -3.011875
v 0.984743 3.842750 -3.010880
v 1.434447 3.926585 -3.011875
v 0.984743 3.940781 -3.012869
v 0.984743 3.912392 -3.010880
v 1.434446 3.996228 -3.011875
v 0.984743 4.010424 -3.012869
v 0.984743 3.982033 -3.010880
v 1.434447 4.065870 -3.011875
v 0.984743 4.080064 -3.012870
v 0.984743 4.051674 -3.010880
v 0.984743 4.149706 -3.012869
v 0.984743 4.121316 -3.010880
v 1.434447 4.135512 -3.011875
v 0.686557 4.138948 -2.980508
v 0.734104 3.735546 -2.979139
v 0.781652 4.138948 -2.977767
v 0.723611 3.561229 -3.048494
v 0.672374 3.564663 -2.470447
v 0.774849 3.557794 -2.470447
v 1.353191 3.561229 -3.048494
v 1.404429 3.557794 -2.470447
v 1.301955 3.564663 -2.470448
v 1.121100 5.567642 -2.937774
v 2.389467 5.582158 -2.937045
v 1.121208 5.598073 -2.935640
v 1.121194 5.560835 -2.415568
v 1.124544 5.604830 -2.415592
v 1.122346 5.581877 -3.004814
v 2.383706 5.604830 -2.415592
v 2.380355 5.560835 -2.415568
v 2.381507 5.581877 -3.004814
v -2.956181 3.872114 1.927131
v -2.962689 3.872112 0.972500
v -3.052630 3.959860 1.848370
v -3.061291 5.094380 1.432295
v -3.055116 3.959860 1.051260
v -3.118734 5.098580 1.845601
v -3.051968 5.098580 1.849088
v -3.085353 3.910772 1.847345
v -3.085353 3.910772 1.449815
v -3.051968 5.098580 1.451558
v -3.118734 5.098580 1.448072
v -3.085353 3.910772 1.052285
v -3.051968 5.098580 1.054028
v -3.118734 5.098580 1.050542
v -3.037370 3.893478 0.986809
v -2.978179 3.893206 1.963009
v -3.234493 3.884089 1.963010
v -2.956181 3.872114 -0.785426
v -2.962689 3.872112 -1.740058
v -3.061291 5.094380 -1.280263
v -3.052630 3.959860 -0.864188
v -3.055116 3.959860 -1.661297
v -3.118734 5.098580 -0.866956
v -3.085353 3.910772 -0.865212
v -3.051968 5.098580 -0.863470
v -3.118734 5.098580 -1.264486
v -3.085353 3.910772 -1.262742
v -3.051969 5.098580 -1.261000
v -3.085353 3.910772 -1.660272
v -3.051969 5.098580 -1.658530
v -3.118734 5.098580 -1.662016
v -3.037370 3.893478 -1.725748
v -2.978178 3.893206 -0.749547
v -3.234495 3.884089 -0.749547
v 1.220975 3.874712 2.846484
v 2.282877 3.874712 2.840530
v 2.199011 3.960202 2.926684
v 1.732271 5.094380 2.934304
v 1.304841 3.960202 2.928699
v 2.195735 5.099186 2.985703
v 2.200024 5.099186 2.925802
v 2.197879 3.910775 2.955751
v 1.751926 3.910775 2.955751
v 1.749782 5.099186 2.985703
v 1.754071 5.099186 2.925802
v 1.305973 3.910775 2.955751
v 1.303829 5.099186 2.985703
v 1.308118 5.099186 2.925802
v 1.232522 3.893479 2.912981
v 2.327444 3.893183 2.860625
v 2.327444 3.884114 3.088297
v -0.760096 3.874712 2.840530
v -1.821998 3.874712 2.846484
v -1.310702 5.094380 2.934304
v -0.843962 3.960202 2.926684
v -1.738132 3.960202 2.928699
v -0.845095 3.910775 2.955751
v -0.842949 5.099186 2.925802
v -0.847238 5.099186 2.985703
v -1.293191 5.099186 2.985703
v -1.291047 3.910775 2.955751
v -1.288902 5.099186 2.925802
v -1.734855 5.099186 2.925802
v -1.739144 5.099186 2.985703
v -1.737001 3.910775 2.955751
v -1.866565 3.893182 3.088299
v -1.866565 3.884113 2.860623
v -0.771643 3.893498 2.913110
v 3.213708 3.872112 -0.972501
v 3.207201 3.872114 -1.927132
v 3.312310 5.094380 -1.432296
v 3.303649 3.959860 -1.848371
v 3.306135 3.959860 -1.051261
v 3.369753 5.098580 -1.845602
v 3.302988 5.098580 -1.849089
v 3.336373 3.910772 -1.847346
v 3.369753 5.098580 -1.448072
v 3.302987 5.098580 -1.451559
v 3.336373 3.910772 -1.449816
v 3.369753 5.098580 -1.050542
v 3.336373 3.910772 -1.052286
v 3.302987 5.098580 -1.054029
v 3.485512 3.884088 -1.963010
v 3.288389 3.893478 -0.986810
v 3.229198 3.893206 -1.963010
v 3.213708 3.872112 1.740057
v 3.312310 5.094380 1.280262
v 3.207201 3.872114 0.785426
v 3.306135 3.959860 1.661297
v 3.303649 3.959860 0.864187
v 3.369753 5.098580 0.866956
v 3.336373 3.910772 0.865212
v 3.302987 5.098580 0.863469
v 3.336373 3.910772 1.262742
v 3.369753 5.098580 1.264485
v 3.302988 5.098580 1.260999
v 3.369753 5.098580 1.662015
v 3.302988 5.098580 1.658529
v 3.336373 3.910772 1.660272
v 3.485514 3.884089 0.749547
v 3.229197 3.893206 0.749547
v 3.288389 3.893479 1.725748
v 0.144936 2.371088 -2.534287
v 0.720666 0.115341 -2.446347
v -0.469647 0.115341 -2.436257
v 0.106083 0.188296 -2.534287
v -0.368683 2.373046 -2.526886
v 0.619702 2.373046 -2.524082
v 0.125509 0.170130 -2.553545
v 0.123332 2.375890 -2.526001
v 0.127687 2.375890 -2.581091
v -0.000407 0.957083 -2.609668
v 0.001824 1.396969 -2.641497
v -0.002636 1.396969 -2.577837
v 0.253656 1.396969 -2.641497
v 0.249196 1.396969 -2.577837
v 0.251425 0.957083 -2.609668
v -0.745373 2.407467 -2.702006
v 0.912098 2.580325 -2.352684
v 0.912097 2.588013 -3.128554
v -0.635234 0.075149 -2.511316
v 0.895004 0.135474 -2.491893
v 0.895003 0.147570 -3.101588
v 3.085116 1.217326 -3.006202
v 2.832129 0.073959 -3.006202
v 3.085116 0.073959 -3.204619
v 2.649756 0.887046 -3.252721
v 3.131757 1.129054 -3.173710
v 3.131757 0.827463 -3.336428
v -3.332817 0.078946 -2.946399
v -3.393502 0.754060 3.135166
v -3.385797 0.048697 3.135167
v 3.644521 0.048697 3.135166
v 3.636816 0.754060 3.135166
v 3.697500 0.078946 -2.946399
v -2.446460 0.466606 -3.180240
v -1.079818 0.488068 -3.169916
v -1.133652 0.078567 -3.326196
v -2.257490 0.368329 -3.161326
v -2.037559 0.363552 -3.230116
v -2.011371 0.368294 -3.138560
v 1.330837 0.488068 -3.190564
v 1.384671 0.078567 -3.034284
v 2.827460 0.079008 -3.207392
v 1.575859 0.615595 -3.201374
v 1.453880 0.756136 -3.012418
v 1.627616 0.737428 -3.229945
v 1.995580 0.615595 -3.201374
v 2.301970 0.417022 -3.180240
v 2.621755 0.368331 -3.161324
v -2.787597 0.049218 2.920079
v -2.724433 0.060520 2.858728
v -2.755055 6.099048 2.890278
v 3.046722 0.060520 2.858728
v 2.983559 0.049218 2.920079
v 3.016101 6.099048 2.890278
v 0.540262 0.406575 2.936381
v 0.562977 2.279348 2.885365
v -0.311958 2.279347 2.876480
v 1.143269 1.809799 2.803717
v 0.786599 1.290086 2.958067
v 1.143302 1.290086 2.803779
v -2.934033 0.402201 2.824801
v -1.632070 0.151700 2.841982
v -1.713391 0.816326 2.977537
v -1.627115 0.495852 2.819430
v -2.152775 0.356032 2.811472
v -1.975309 0.741451 2.815448
v -1.688588 0.322219 2.786392
v -2.138293 0.336414 2.787387
v -1.688588 0.350609 2.788382
v -2.138293 0.406056 2.787387
v -1.688588 0.420250 2.788382
v -1.688588 0.391861 2.786392
v -2.138293 0.475697 2.787387
v -1.688588 0.461502 2.786392
v -1.688588 0.489892 2.788382
v -2.131682 0.531144 2.788382
v -2.131682 0.559533 2.786392
v -1.681977 0.545339 2.787387
v -2.138293 0.614980 2.787387
v -1.688588 0.600785 2.786392
v -1.688588 0.629175 2.788382
v -1.681977 0.684622 2.787387
v -2.131682 0.698816 2.786392
v -2.131682 0.670427 2.788382
v -2.382320 0.715588 2.820125
v -2.429868 0.312188 2.821495
v -2.334773 0.312188 2.818754
v -2.444052 0.106905 2.769761
v -2.392810 0.110339 3.347812
v -2.341576 0.113774 2.769762
v -1.814470 0.106905 2.769762
v -1.763233 0.110339 3.347812
v -1.711994 0.113774 2.769762
vn 0.6786 0.7326 -0.0529
vn -0.1828 0.1847 -0.9657
vn 0.1828 -0.1845 0.9657
vn -0.7038 0.7104 0.0014
vn -0.8726 0.4884 -0.0052
vn -0.7038 0.7104 -0.0000
vn -0.8848 -0.4647 -0.0339
vn 0.6654 -0.0001 0.7465
vn -0.6654 0.0001 0.7465
vn 0.6953 0.7019 -0.1549
vn 0.7038 -0.7104 -0.0000
vn -0.6953 0.7019 0.1549
vn -0.1741 0.6069 -0.7755
vn 0.4439 0.8961 -0.0000
vn 0.8173 -0.4634 -0.3424
vn -0.4121 -0.8504 0.3271
vn -0.2589 0.9659 -0.0000
vn 0.1741 0.5221 0.8349
vn 0.4759 0.2251 0.8502
vn 0.6421 -0.0029 0.7666
vn -0.2965 0.1888 -0.9362
vn 0.0912 0.2195 -0.9713
vn -0.0592 0.0526 -0.9969
vn -0.0000 0.0010 -1.0000
vn -0.9998 0.0186 -0.0004
vn -0.8098 0.5867 0.0001
vn -0.4870 0.8734 0.0002
vn 0.0066 1.0000 -0.0000
vn -0.0000 -1.0000 -0.0000
vn 0.0121 0.9999 -0.0032
vn 0.7081 0.7061 0.0002
vn 0.0121 0.9999 -0.0011
vn -0.9164 -0.4002 -0.0000
vn -0.0329 0.9994 0.0078
vn -0.7165 0.6975 -0.0007
vn -0.0328 0.9995 0.0028
vn -0.7482 -0.6631 -0.0237
vn -0.0002 1.0000 -0.0017
vn 0.0149 0.6969 -0.7170
vn -0.0000 1.0000 -0.0043
vn 0.0125 -0.9998 0.0168
vn 0.0156 -0.9997 0.0209
vn 0.0002 1.0000 0.0017
vn -0.0149 0.6971 0.7168
vn -0.0000 1.0000 0.0083
vn -0.6263 0.6242 -0.4670
vn 0.4319 -0.6202 -0.6549
vn 0.6653 0.6020 -0.4415
vn -0.6645 -0.4323 -0.6096
vn -0.6488 -0.7591 0.0539
vn -0.4959 0.2714 -0.8249
vn 0.6296 -0.0000 -0.7769
vn 0.6296 -0.0001 -0.7769
vn 0.8101 0.0018 -0.5863
vn 0.0672 -0.3951 -0.9162
vn 0.0336 0.3871 -0.9214
vn 0.2961 -0.0410 -0.9543
vn 0.4319 -0.6202 0.6549
vn -0.0000 1.0000 -0.0000
vn 0.0389 -0.0056 0.9992
vn 0.9122 -0.2695 0.3088
vn -0.5837 -0.5986 0.5486
vn -0.4667 -0.4455 0.7640
vn -0.3004 -0.5734 0.7622
vn -0.7606 -0.0862 0.6435
vn -0.1439 0.8482 0.5098
vn -0.4352 0.8998 0.0303
vn -0.4494 0.1436 0.8817
vn -0.0000 -0.6689 -0.7433
vn -0.0000 0.6689 -0.7434
vn -0.0125 -0.9998 -0.0168
vn -0.0156 -0.9997 -0.0209
vn 0.7482 -0.6631 0.0237
vn -0.3416 0.5188 -0.7837
vn -0.6344 0.1831 -0.7510
vn -0.7379 -0.0016 -0.6749
vn -0.0425 0.6605 0.7497
vn -0.7269 -0.3709 0.5780
vn -0.0377 -0.6007 0.7986
vn -0.9369 0.1038 0.3337
vn 0.0742 0.0631 -0.9952
vn 0.0149 0.0292 -0.9995
vn 0.1216 -0.3756 -0.9188
vn 0.9170 0.0030 0.3989
vn 0.0494 -0.3796 -0.9238
vn 0.8576 -0.3565 0.3708
vn 0.9856 -0.1027 0.1341
vn 0.7086 -0.4979 0.4999
vn 0.5192 -0.4081 -0.7509
vn 0.6872 -0.0714 -0.7230
vn 0.6224 -0.4997 -0.6025
vn -0.6296 -0.0000 0.7769
vn -0.6296 -0.0001 0.7769
vn -0.7648 0.6443 0.0001
vn -0.8583 0.0020 0.5132
vn -0.0000 -0.8494 -0.5278
vn 0.3659 0.4634 -0.8071
vn 0.2086 0.6624 0.7195
vn 0.0015 -0.9889 0.1487
vn 0.6380 0.6499 -0.4131
vn -0.0241 -0.0244 -0.9994
vn -0.8681 -0.3185 -0.3807
vn -0.3893 0.1420 0.9101
vn -0.5654 0.1494 0.8112
vn -0.3552 -0.0666 -0.9324
vn -0.8334 0.4749 0.2826
vn -0.4717 -0.6675 0.5761
vn 0.2366 -0.3134 0.9197
vn -0.0902 -0.0681 -0.9936
vn -0.3479 -0.4867 -0.8013
vn -0.4547 -0.6701 -0.5867
vn 0.0009 1.0000 -0.0010
vn -0.0077 1.0000 -0.0049
vn -0.0737 0.2726 -0.9593
vn -0.0001 0.8755 -0.4831
vn 0.5037 0.8638 0.0113
vn -0.0000 0.0010 1.0000
vn 0.0241 -0.0243 0.9994
vn 0.0999 -0.9950 0.0019
vn -0.0000 -0.0000 -0.0000
vn 0.0826 0.9946 0.0623
vn 0.0002 0.6918 0.7220
vn -0.0002 0.6918 -0.7220
vn -0.0000 0.7170 -0.6970
vn -0.0003 0.0015 -1.0000
vn 0.8098 0.5866 -0.0001
vn 0.9998 0.0178 0.0004
vn 1.0000 -0.0000 -0.0000
vn -0.0000 0.7170 0.6970
vn 0.9998 0.0186 0.0006
vn -0.9998 0.0178 -0.0004
vn -0.0000 0.0170 -0.9999
vn 0.0003 0.0015 1.0000
vn -0.0000 0.0170 0.9999
vn -1.0000 -0.0000 -0.0000
vn -0.4990 0.8666 0.0003
vn -0.9993 0.0363 0.0044
vn -0.9999 0.0147 -0.0008
vn -0.0000 -0.0000 1.0000
vn -0.0000 -0.0000 -1.0000
vn -0.9141 -0.4054 -0.0000
vn 0.6654 -0.0000 0.7465
vn 0.0122 -0.7145 -0.6995
vn 0.6027 -0.2934 -0.7421
vn -0.0042 -1.0000 -0.0011
vn 0.7062 0.7080 -0.0041
vn 0.9999 0.0140 0.0008
vn 0.0071 0.0010 1.0000
vn 0.0026 0.0032 1.0000
vn -0.0000 0.0044 1.0000
vn -0.9994 0.0229 -0.0259
vn -0.1505 0.0035 -0.9886
vn -0.6566 -0.2115 0.7240
vn 0.0042 -1.0000 0.0011
vn -0.0122 -0.7145 0.6995
vn -1.0000 -0.0000 0.0001
vn -0.6602 0.0094 -0.7511
vn -0.0254 0.5680 0.8226
vn -0.4999 0.2947 -0.8144
vn -0.0006 1.0000 -0.0000
vn 0.8732 0.4874 0.0047
vn 0.9994 0.0227 0.0259
vn 0.1505 0.0035 0.9886
vn 0.0254 0.5680 -0.8226
vn 1.0000 -0.0000 -0.0001
vn 0.3702 0.1332 0.9193
vn 0.9345 0.3560 -0.0000
vn 0.8209 0.5711 -0.0000
vn 0.8517 0.5241 -0.0000
vn -0.0048 0.7883 -0.6153
vn -0.0049 0.7828 -0.6223
vn -0.0098 0.7770 -0.6295
vn -0.4472 -0.8944 -0.0000
vn 0.8087 -0.0000 0.5882
vn 0.8000 -0.0000 0.6000
vn 0.8192 -0.0000 0.5735
vn 0.1557 -0.7666 0.6230
vn 0.1299 -0.8444 0.5197
vn 0.1333 -0.8354 0.5333
vn -0.6585 -0.7526 -0.0000
vn -0.8682 -0.4961 -0.0000
vn -0.7809 -0.6247 -0.0000
vn -0.9965 -0.0829 0.0068
vn 0.9990 -0.0000 0.0442
vn 0.9972 -0.0000 0.0751
vn 0.9992 -0.0000 0.0408
vn 1.0000 -0.0065 -0.0031
vn 1.0000 0.0037 -0.0000
vn 0.8423 0.0032 -0.5391
vn 0.7071 0.0028 -0.7071
vn -0.8637 0.3415 0.3707
vn 0.0003 0.6612 0.7502
vn -0.0021 -0.7762 0.6305
vn -0.0016 -0.1444 0.9895
vn 0.0025 -0.5794 0.8150
vn -0.7763 0.5458 -0.3154
vn 0.0003 0.6693 0.7430
vn -0.0013 -0.0670 -0.9978
vn -0.0000 0.6941 -0.7199
vn -0.0012 0.7538 -0.6571
vn -0.0017 -0.7337 -0.6794
vn 0.9966 -0.0770 0.0302
vn 0.9741 -0.2262 0.0066
vn 0.9988 -0.0358 0.0330
vn -0.0000 -0.8253 -0.5647
vn -0.4439 -0.8961 -0.0000
vn 0.9991 0.0422 0.0107
vn 0.9942 0.0736 0.0778
vn 0.9991 0.0137 -0.0390
vn 0.7542 0.5521 0.3555
vn -0.0000 0.6553 0.7554
vn -0.3265 0.6983 -0.6369
vn 0.7230 0.6904 0.0252
vn 0.0003 -0.0061 1.0000
vn 0.4138 0.9098 0.0314
vn -0.5418 0.8399 0.0312
vn -0.2280 -0.0841 -0.9700
vn 0.0053 -0.0377 -0.9993
vn 0.2395 0.2792 -0.9299
vn 0.0572 0.0303 -0.9979
vn -0.0165 0.9999 -0.0000
vn -0.0136 0.9999 -0.0000
vn -0.0140 0.9999 -0.0000
vn -0.0308 -0.9995 -0.0000
vn -0.0289 -0.9996 -0.0000
vn 0.1240 -0.0000 0.9923
vn 0.0811 0.9816 -0.1726
vn 0.0806 0.9620 -0.2609
vn 0.0777 0.9405 -0.3307
vn 0.0896 0.9775 -0.1907
vn 0.0911 0.9958 -0.0000
vn -0.9664 0.2571 -0.0000
vn -0.9569 0.2904 -0.0000
vn 0.6784 0.1354 -0.7221
vn 0.9801 0.1983 -0.0000
vn 0.9867 -0.1627 -0.0000
vn 0.9855 -0.1696 -0.0000
vn 0.9989 -0.0462 -0.0000
vn 0.9988 -0.0483 -0.0000
vn -0.8599 0.5104 -0.0000
vn -0.8593 0.5116 -0.0000
vn -0.8568 0.5157 -0.0000
vn -0.9916 0.0216 -0.1277
vn -0.9595 0.2681 -0.0864
vn -0.9869 -0.0063 -0.1613
vn -0.9801 0.1987 -0.0018
vn 0.0024 0.1236 0.9923
vn -0.0007 -0.7321 0.6812
vn 0.0021 -0.6129 0.7902
vn -0.9874 0.0952 -0.1266
vn 0.0072 0.0282 0.9996
vn -0.0039 0.9468 -0.3219
vn 0.0028 0.2134 -0.9770
vn -0.4869 0.6507 -0.5826
vn -0.4631 -0.4591 -0.7582
vn 0.0037 -0.3900 -0.9208
vn 0.8534 -0.0831 0.5146
vn 0.0031 -0.4924 0.8703
vn -0.0248 -0.0420 -0.9988
vn 0.9586 -0.2829 -0.0343
vn 0.8931 -0.4485 -0.0352
vn 0.9432 -0.3303 -0.0340
vn -0.7716 0.6356 0.0246
vn -0.4316 0.9014 0.0352
vn 0.0246 0.7039 -0.7099
vn 0.0036 0.8389 0.5442
vn 0.0001 0.6560 0.7548
vn -0.5085 0.8606 0.0292
vn -0.7638 0.6452 0.0206
vn 0.5077 0.1486 -0.8486
vn 0.9872 0.1565 0.0317
vn 0.5604 0.8282 0.0046
vn 0.0122 -0.9997 0.0191
vn -0.9481 -0.3181 -0.0004
vn -0.8321 0.5547 -0.0000
vn -0.7809 0.6247 -0.0000
vn -0.9345 0.3560 -0.0000
vn -0.2425 0.9701 -0.0000
vn 0.9363 0.3511 -0.0000
vn 0.9701 0.2425 -0.0000
vn 0.8828 -0.4698 -0.0000
vn 0.8548 -0.5189 -0.0000
vn 0.8326 -0.5539 -0.0000
vn 0.0532 0.9986 -0.0000
vn 0.0531 0.9986 -0.0000
vn 0.0529 0.9986 -0.0000
vn -0.0081 -0.9978 0.0658
vn -0.0081 -0.9981 0.0605
vn -0.3080 -0.8103 0.4986
vn -0.2816 -0.7493 0.5994
vn -0.3295 -0.8766 0.3507
vn 0.3497 -0.9324 0.0909
vn 0.2970 -0.9504 0.0927
vn 0.2971 -0.9507 0.0887
vn 0.9997 -0.0229 0.0045
vn 0.9989 -0.0457 0.0045
vn 0.9997 -0.0239 0.0045
vn 0.9965 0.0829 -0.0068
vn -0.5882 -0.0000 0.8087
vn -0.4706 -0.0000 0.8824
vn -0.3796 -0.0000 0.9252
vn 0.0056 -0.0741 0.9972
vn 0.0023 -0.0058 1.0000
vn 0.9965 -0.0829 -0.0068
vn -0.1654 0.4411 0.8821
vn -0.1111 0.4444 0.8889
vn -0.0880 0.7044 0.7044
vn -0.9079 -0.0844 -0.4106
vn -0.9989 0.0313 -0.0344
vn 0.9785 0.0512 -0.1998
vn 0.4412 0.0340 0.8968
vn 0.9491 0.0757 -0.3058
vn -0.1851 0.0221 0.9825
vn -0.9672 -0.0369 0.2514
vn -0.9097 -0.0989 -0.4032
vn 0.8101 0.0100 -0.5862
vn -0.3830 0.0397 0.9229
vn -0.5660 -0.0855 0.8200
vn 0.9756 -0.0198 -0.2185
vn -0.0514 0.9773 -0.2057
vn -0.0572 0.9718 -0.2287
vn -0.0380 0.9877 -0.1519
vn -0.9756 0.0198 -0.2185
vn -0.8101 -0.0100 -0.5862
vn 0.9097 0.0989 -0.4032
vn 0.5660 0.0855 0.8200
vn 0.9672 0.0369 0.2514
vn 0.3830 -0.0397 0.9229
vn 0.4413 0.0341 0.8967
vn -0.9079 -0.0844 -0.4105
vn 0.9785 0.0512 -0.1999
vn 0.9491 0.0757 -0.3057
vn -0.0000 0.6449 -0.7643
vn -0.0000 0.7809 -0.6247
vn -0.0000 0.8824 -0.4706
vn -0.3511 -0.9363 -0.0000
vn -0.1240 -0.9923 -0.0000
vn -0.2425 -0.9701 -0.0000
vn 0.1240 0.0310 0.9918
vn 0.0933 0.0233 0.9954
vn -0.0000 -0.9982 -0.0600
vn -0.0000 -0.9969 -0.0789
vn 0.2287 -0.9735 -0.0000
vn 0.2017 -0.9795 -0.0000
vn -0.0000 -0.9983 -0.0591
vn -0.0000 -0.9982 -0.0598
vn 0.4252 0.9051 -0.0000
vn 0.5255 0.8508 -0.0000
vn 0.5309 0.8475 -0.0000
vn -0.0000 -0.9969 -0.0785
vn -0.2593 -0.9658 -0.0000
vn -0.2399 -0.9708 -0.0000
vn -0.2287 -0.9735 -0.0000
vn -0.4491 -0.0000 0.8935
vn -0.4332 -0.0000 0.9013
vn 0.8587 -0.0000 0.5125
vn 0.8872 -0.0000 0.4614
vn 1.0000 -0.0064 0.0005
vn -0.1829 -0.1847 -0.9656
vn 0.1828 0.1846 0.9657
vn -0.6786 0.7326 0.0529
vn -0.4794 0.2680 -0.8357
vn 0.7051 0.7091 -0.0028
vn 0.7035 0.7103 0.0243
vn 0.1298 -0.1310 0.9829
vn -0.7035 0.7103 -0.0243
vn 0.8092 0.0197 0.5872
vn 0.9997 0.0244 0.0011
vn 0.5624 0.7947 -0.2283
vn -0.4847 0.8135 -0.3213
vn 0.2240 -0.5788 0.7841
vn 0.0002 1.0000 -0.0000
vn -0.4204 -0.9073 -0.0000
vn -0.6386 0.7695 -0.0000
vn -0.0000 0.7319 0.6814
vn 0.2848 -0.4324 -0.8555
vn -0.9667 -0.2523 0.0439
vn 0.3150 0.8871 0.3373
vn 0.2695 0.9611 -0.0609
vn -0.5200 0.8540 -0.0161
vn -0.2913 0.8110 -0.5073
vn 0.3229 0.8024 -0.5019
vn -0.0000 -0.8690 -0.4948
vn 0.8692 -0.4893 0.0710
vn -0.3598 -0.3710 0.8561
vn 0.7002 -0.3199 0.6382
vn -0.2907 0.8899 -0.3516
vn -0.0002 -0.1358 -0.9907
vn 0.0209 0.7612 -0.6482
vn -0.0000 -0.0107 -0.9999
vn -0.0267 -0.9990 -0.0357
vn 0.0006 -0.4170 -0.9089
vn -0.1245 0.6739 -0.7282
vn 0.4938 -0.5979 -0.6314
vn -0.8119 0.0174 0.5835
vn 0.0335 0.6737 -0.7383
vn -0.8608 -0.1419 -0.4888
vn -0.5498 0.8078 -0.2126
vn -0.0165 0.0167 -0.9997
vn -0.6653 -0.0000 -0.7466
vn -0.0735 0.0093 -0.9972
vn 0.0100 0.0044 0.9999
vn 0.2437 -0.6667 0.7044
vn 0.2436 -0.6668 0.7043
vn 0.2435 -0.6669 0.7042
vn -0.7095 -0.4237 0.5632
vn -0.4270 0.9037 0.0302
vn -0.0000 -0.6688 0.7434
vn -0.0000 0.6923 0.7216
vn -0.0001 0.6923 0.7217
vn 0.7035 -0.7107 -0.0006
vn -0.0000 -0.2983 0.9545
vn 0.0267 -0.9990 0.0357
vn 0.0515 0.6762 0.7349
vn 0.3709 0.4588 -0.8074
vn 0.7246 -0.6884 -0.0332
vn 0.6653 -0.0000 0.7466
vn 0.0734 0.0095 0.9973
vn 0.0109 -0.0014 -0.9999
vn -0.0010 -1.0000 -0.0000
vn -0.8828 -0.4686 0.0324
vn -0.6699 -0.7419 0.0307
vn -0.9961 0.0770 0.0435
vn 0.0018 -0.9972 0.0747
vn 0.6209 0.6324 -0.4632
vn 0.7510 0.5731 -0.3280
vn -0.0369 -0.6409 -0.7668
vn -0.0367 -0.6411 -0.7666
vn -0.0366 -0.6412 -0.7665
vn -0.6945 0.7169 -0.0612
vn -0.3864 0.4075 -0.8274
vn -0.3863 0.4076 -0.8275
vn -0.3862 0.4076 -0.8275
vn 0.0165 0.0167 0.9997
vn 0.4871 0.8734 -0.0002
vn 0.7648 0.6443 -0.0000
vn -0.0109 -0.0014 0.9999
vn -0.4978 0.6015 0.6249
vn 0.0071 0.9995 0.0319
vn -0.2150 0.9761 0.0321
vn -0.0000 1.0000 0.0065
vn 0.0002 -0.1358 0.9907
vn -0.8559 0.5162 0.0332
vn -0.0004 -0.6691 0.7432
vn 0.7036 -0.7106 -0.0000
vn -0.9999 0.0169 -0.0008
vn 0.9999 -0.0116 0.0008
vn -0.7036 -0.7106 -0.0000
vn 0.4990 0.8666 -0.0003
vn 0.0004 -0.6691 -0.7432
vn 0.9999 0.0158 0.0008
vn -0.9999 -0.0116 -0.0008
vn 0.5076 0.2337 -0.8293
vn -0.6654 -0.0000 0.7465
vn 0.0051 0.0134 0.9999
vn 0.0006 -0.0105 0.9999
vn 0.0006 -0.0097 1.0000
vn 0.6655 -0.0000 0.7464
vn 0.0075 0.0105 0.9999
vn 0.0104 0.0105 0.9999
vn -0.9999 0.0120 -0.0009
vn 0.0098 -0.0033 0.9999
vn 0.0099 -0.0101 0.9999
vn 0.0006 0.0097 -1.0000
vn -0.0006 -0.0097 -1.0000
vn 0.0006 0.0105 -0.9999
vn 0.7037 -0.7105 0.0001
vn -0.0006 -0.0105 -0.9999
vn 0.6654 -0.0000 -0.7465
vn -0.3260 0.5896 -0.7389
vn -0.3261 0.5897 -0.7389
vn -0.3260 0.5897 -0.7389
vn -0.5369 0.8436 -0.0000
vn 0.9993 0.0372 -0.0026
vn 0.9975 -0.0026 -0.0702
vn 0.9995 0.0248 -0.0219
vn 0.6559 0.7548 -0.0000
vn -0.1389 0.7733 -0.6187
vn 0.8639 0.5036 -0.0000
vn -0.2993 0.5215 -0.7990
vn 0.0216 -0.0377 -0.9991
vn -0.0000 0.7161 -0.6980
vn 0.9962 -0.0456 -0.0737
vn 0.9555 0.2949 -0.0000
vn 0.0008 -0.6863 -0.7273
vn 0.5542 0.2837 0.7825
vn -0.5184 0.1923 0.8332
vn 0.1883 -0.0451 0.9811
vn -0.0014 0.9992 0.0399
vn -0.5634 -0.8008 -0.2033
vn 0.9957 -0.0456 0.0802
vn -0.0457 0.0021 -0.9990
vn 0.7493 -0.6582 -0.0733
vt 0.017704 0.994029
vt 0.017753 0.993977
vt 0.017717 0.994138
vt 0.190124 0.632334
vt 0.190124 0.632279
vt 0.190220 0.632396
vt 0.201977 0.536582
vt 0.201976 0.536525
vt 0.202071 0.536461
vt 0.134908 0.319205
vt 0.134908 0.319300
vt 0.134813 0.319205
vt 0.005950 0.994056
vt 0.005878 0.994073
vt 0.005830 0.993977
vt 0.326516 0.182150
vt 0.326420 0.182054
vt 0.326325 0.181959
vt 0.009556 0.182149
vt 0.009460 0.182054
vt 0.009365 0.181958
vt 0.134908 0.182055
vt 0.134908 0.182169
vt 0.134813 0.182150
vt 0.307500 0.319223
vt 0.307500 0.319318
vt 0.307404 0.319223
vt 0.009460 0.319299
vt 0.009460 0.319185
vt 0.009556 0.319204
vt 0.612534 0.650827
vt 0.612566 0.650700
vt 0.612598 0.650783
vt 0.159583 0.656121
vt 0.159461 0.656025
vt 0.159417 0.656121
vt 0.612764 0.603496
vt 0.612566 0.603515
vt 0.612661 0.603598
vt 0.567268 0.942674
vt 0.566865 0.943046
vt 0.567217 0.942752
vt 0.983833 0.981071
vt 0.983833 0.980905
vt 0.983696 0.980988
vt 0.984226 0.006147
vt 0.984301 0.006384
vt 0.984224 0.006493
vt 0.612548 0.651152
vt 0.612661 0.650783
vt 0.612660 0.651178
vt 0.691319 0.589284
vt 0.691408 0.490302
vt 0.691408 0.589211
vt 0.584601 0.460998
vt 0.459314 0.461060
vt 0.459252 0.460963
vt 0.134813 0.315724
vt 0.451869 0.181959
vt 0.451774 0.182054
vt 0.009522 0.315722
vt 0.307500 0.315741
vt 0.134850 0.185633
vt 0.483372 0.782326
vt 0.483483 0.785902
vt 0.483386 0.785861
vt 0.138491 0.319205
vt 0.326524 0.319299
vt 0.326619 0.319414
vt 0.005877 0.182150
vt 0.956986 0.981069
vt 0.957126 0.981343
vt 0.956736 0.981069
vt 0.800890 0.526318
vt 0.801224 0.526085
vt 0.800844 0.526470
vt 0.785171 0.325829
vt 0.785481 0.325734
vt 0.785456 0.325829
vt 0.566352 0.942827
vt 0.566587 0.943184
vt 0.566162 0.942796
vt 0.837285 0.926425
vt 0.836954 0.926551
vt 0.836602 0.917600
vt 0.135283 0.930913
vt 0.135034 0.930455
vt 0.135668 0.930907
vt 0.539714 0.805502
vt 0.539579 0.808125
vt 0.539601 0.805463
vt 0.539673 0.785522
vt 0.539598 0.793646
vt 0.539579 0.785575
vt 0.801169 0.526002
vt 0.801603 0.526037
vt 0.983958 0.006827
vt 0.983804 0.006875
vt 0.612579 0.603693
vt 0.612744 0.650687
vt 0.612579 0.650687
vt 0.983682 0.032087
vt 0.984087 0.031934
vt 0.983793 0.032080
vt 0.811182 0.710391
vt 0.810756 0.710637
vt 0.811478 0.710294
vt 0.932162 0.384123
vt 0.932482 0.375581
vt 0.932528 0.391463
vt 0.326423 0.185631
vt 0.009460 0.185588
vt 0.182051 0.319318
vt 0.182147 0.319223
vt 0.307501 0.182073
vt 0.307406 0.181959
vt 0.670729 0.318654
vt 0.670617 0.315077
vt 0.670714 0.315118
vt 0.957239 0.981558
vt 0.957125 0.981804
vt 0.612266 0.603598
vt 0.612292 0.603693
vt 0.078753 0.810685
vt 0.078327 0.810931
vt 0.078972 0.810601
vt 0.944292 0.981699
vt 0.944863 0.981528
vt 0.944519 0.982066
vt 0.811098 0.193337
vt 0.810479 0.193460
vt 0.811161 0.193249
vt 0.983636 0.244804
vt 0.983981 0.244387
vt 0.983760 0.244870
vt 0.969229 0.982050
vt 0.969590 0.981525
vt 0.969354 0.982113
vt 0.827155 0.534839
vt 0.827020 0.537463
vt 0.827044 0.534801
vt 0.128801 0.836249
vt 0.128715 0.844388
vt 0.128715 0.836317
vt 0.159500 0.608837
vt 0.159417 0.608785
vt 0.944524 0.981153
vt 0.944649 0.981069
vt 0.983636 0.243881
vt 0.983788 0.243922
vt 0.512162 0.620670
vt 0.511996 0.667855
vt 0.512028 0.620492
vt 0.969261 0.981128
vt 0.969529 0.981478
vt 0.969092 0.981069
vt 0.307406 0.182169
vt 0.307501 0.185703
vt 0.307502 0.185799
vt 0.956861 0.982175
vt 0.956763 0.982113
vt 0.612566 0.603680
vt 0.612660 0.603993
vt 0.612565 0.603967
vt 0.984022 0.131502
vt 0.984119 0.132138
vt 0.983828 0.131603
vt 0.136011 0.930620
vt 0.136070 0.930748
vt 0.785005 0.325829
vt 0.785358 0.372823
vt 0.785024 0.373002
vt 0.931543 0.075882
vt 0.931708 0.092234
vt 0.931556 0.092282
vt 0.695753 0.005830
vt 0.695657 0.100764
vt 0.695664 0.005900
vt 0.182051 0.315688
vt 0.182052 0.315593
vt 0.170262 0.170203
vt 0.005909 0.088048
vt 0.170236 0.005896
vt 0.513594 0.182071
vt 0.563639 0.318131
vt 0.463529 0.317876
vt 0.542532 0.006078
vt 0.590532 0.141875
vt 0.494512 0.142145
vt 0.244779 0.463381
vt 0.182022 0.331040
vt 0.307599 0.331076
vt 0.584635 0.331171
vt 0.683806 0.005830
vt 0.683997 0.104666
vt 0.681275 0.104823
vt 0.688365 0.331073
vt 0.685641 0.424822
vt 0.685738 0.331093
vt 0.459285 0.331136
vt 0.688302 0.424794
vt 0.683961 0.267761
vt 0.683928 0.172033
vt 0.686588 0.172024
vt 0.681275 0.005841
vt 0.124797 0.686338
vt 0.127329 0.591407
vt 0.127329 0.686341
vt 0.124607 0.591543
vt 0.686588 0.267763
vt 0.307404 0.315689
vt 0.182066 0.315757
vt 0.182053 0.632257
vt 0.184190 0.536518
vt 0.190130 0.536523
vt 0.043748 0.935419
vt 0.046329 0.935419
vt 0.046443 0.943585
vt 0.307487 0.185634
vt 0.182148 0.185703
vt 0.043723 0.943490
vt 0.839773 0.301991
vt 0.842392 0.302093
vt 0.842537 0.310260
vt 0.839835 0.301991
vt 0.181957 0.181978
vt 0.618650 0.331099
vt 0.618650 0.431266
vt 0.618649 0.431331
vt 0.596423 0.493021
vt 0.604379 0.490292
vt 0.604494 0.493025
vt 0.596442 0.588833
vt 0.604494 0.588971
vt 0.604398 0.588837
vt 0.311056 0.182169
vt 0.307708 0.319225
vt 0.210047 0.536528
vt 0.210072 0.630246
vt 0.201968 0.630326
vt 0.684054 0.938258
vt 0.686666 0.946206
vt 0.684054 0.946214
vt 0.596423 0.490260
vt 0.326212 0.182148
vt 0.322969 0.319206
vt 0.596442 0.591566
vt 0.127328 0.475190
vt 0.119161 0.475132
vt 0.119257 0.475121
vt 0.604398 0.591569
vt 0.009556 0.185615
vt 0.410874 0.937607
vt 0.413599 0.935463
vt 0.413598 0.943420
vt 0.624487 0.102306
vt 0.616529 0.105042
vt 0.616417 0.102367
vt 0.624485 0.105010
vt 0.583534 0.181959
vt 0.575463 0.286410
vt 0.575558 0.181969
vt 0.583423 0.286407
vt 0.624558 0.005830
vt 0.624556 0.008506
vt 0.616600 0.008566
vt 0.616603 0.005891
vt 0.616345 0.590389
vt 0.624225 0.490233
vt 0.624320 0.590406
vt 0.616265 0.490208
vt 0.143190 0.331034
vt 0.165568 0.331075
vt 0.154382 0.457952
vt 0.143189 0.469848
vt 0.164652 0.469772
vt 0.153922 0.596707
vt 0.322808 0.622845
vt 0.346549 0.640009
vt 0.322806 0.657318
vt 0.459235 0.637735
vt 0.483994 0.620579
vt 0.483983 0.655002
vt 0.181957 0.644105
vt 0.204346 0.644114
vt 0.193148 0.675257
vt 0.632003 0.633133
vt 0.653480 0.633025
vt 0.642737 0.664226
vt 0.816867 0.428938
vt 0.817717 0.428910
vt 0.817289 0.461643
vt 0.813545 0.490283
vt 0.814411 0.490248
vt 0.813975 0.522985
vt 0.221801 0.784802
vt 0.222651 0.784774
vt 0.222223 0.817506
vt 0.815025 0.267968
vt 0.815891 0.267933
vt 0.815455 0.300671
vt 0.814194 0.325727
vt 0.815060 0.325692
vt 0.814624 0.358430
vt 0.295172 0.785776
vt 0.296022 0.785748
vt 0.295594 0.818480
vt 0.751873 0.635585
vt 0.754535 0.601018
vt 0.757220 0.635573
vt 0.630010 0.284569
vt 0.627348 0.319136
vt 0.624663 0.284581
vt 0.718311 0.711034
vt 0.722777 0.676002
vt 0.727263 0.711021
vt 0.723066 0.601007
vt 0.718600 0.636039
vt 0.714114 0.601019
vt 0.616432 0.116810
vt 0.641184 0.134104
vt 0.616431 0.151283
vt 0.358322 0.640083
vt 0.382070 0.622797
vt 0.382060 0.657220
vt 0.221801 0.644938
vt 0.244189 0.644947
vt 0.232990 0.676090
vt 0.266914 0.654358
vt 0.288391 0.654250
vt 0.277649 0.685452
vt 0.307757 0.785776
vt 0.308607 0.785748
vt 0.308179 0.818480
vt 0.814579 0.005926
vt 0.815445 0.005891
vt 0.815009 0.038628
vt 0.814579 0.050480
vt 0.815445 0.050445
vt 0.815009 0.083182
vt 0.818116 0.375409
vt 0.818966 0.375381
vt 0.818538 0.408113
vt 0.814761 0.551374
vt 0.815627 0.551339
vt 0.815191 0.584076
vt 0.234709 0.786390
vt 0.235559 0.786362
vt 0.235131 0.819095
vt 0.613181 0.443069
vt 0.615865 0.477624
vt 0.610519 0.477636
vt 0.741658 0.710568
vt 0.738973 0.676013
vt 0.744320 0.676001
vt 0.725306 0.207055
vt 0.720820 0.172035
vt 0.729771 0.172022
vt 0.304747 0.671922
vt 0.309233 0.706942
vt 0.300281 0.706954
vt 0.351564 0.669040
vt 0.368602 0.669031
vt 0.360082 0.695929
vt 0.698262 0.221102
vt 0.714943 0.221242
vt 0.706603 0.248064
vt 0.435066 0.705025
vt 0.442386 0.728672
vt 0.427734 0.728642
vt 0.735601 0.387028
vt 0.742769 0.410739
vt 0.728423 0.410580
vt 0.865826 0.221129
vt 0.866241 0.246361
vt 0.865407 0.246364
vt 0.616493 0.832284
vt 0.616925 0.857518
vt 0.616058 0.857517
vt 0.859740 0.107265
vt 0.860171 0.132499
vt 0.859305 0.132497
vt 0.794024 0.841750
vt 0.794438 0.866982
vt 0.793604 0.866984
vt 0.866602 0.490267
vt 0.867017 0.515498
vt 0.866183 0.515501
vt 0.733007 0.833145
vt 0.733438 0.858379
vt 0.732572 0.858377
vt 0.799578 0.637181
vt 0.796915 0.661524
vt 0.794234 0.637191
vt 0.375544 0.785923
vt 0.378208 0.761580
vt 0.380889 0.785912
vt 0.467754 0.666744
vt 0.476273 0.693631
vt 0.459233 0.693643
vt 0.150497 0.706823
vt 0.157818 0.730470
vt 0.143166 0.730441
vt 0.189136 0.725773
vt 0.196303 0.749484
vt 0.181958 0.749325
vt 0.551988 0.834296
vt 0.552419 0.859530
vt 0.551553 0.859528
vt 0.867251 0.325711
vt 0.867665 0.350943
vt 0.866832 0.350946
vt 0.867315 0.005910
vt 0.867730 0.031142
vt 0.866896 0.031144
vt 0.044158 0.831795
vt 0.044589 0.857029
vt 0.043723 0.857027
vt 0.863687 0.601024
vt 0.864101 0.626256
vt 0.863267 0.626258
vt 0.699360 0.834950
vt 0.699791 0.860184
vt 0.698925 0.860182
vt 0.793440 0.181867
vt 0.796104 0.157524
vt 0.798785 0.181857
vt 0.802506 0.325708
vt 0.799842 0.350051
vt 0.797161 0.325718
vt 0.709506 0.279528
vt 0.725803 0.279477
vt 0.717653 0.306388
vt 0.495414 0.680035
vt 0.512406 0.680072
vt 0.503911 0.706940
vt 0.302189 0.718800
vt 0.309184 0.742395
vt 0.295173 0.742435
vt 0.668074 0.714682
vt 0.675367 0.738315
vt 0.660761 0.738279
vt 0.222234 0.829343
vt 0.222661 0.854577
vt 0.221801 0.854577
vt 0.141052 0.837148
vt 0.141470 0.862384
vt 0.140627 0.862377
vt 0.854663 0.325710
vt 0.855090 0.350943
vt 0.854230 0.350944
vt 0.375941 0.836390
vt 0.376359 0.861626
vt 0.375516 0.861619
vt 0.854727 0.005909
vt 0.855154 0.031142
vt 0.854294 0.031142
vt 0.411299 0.837375
vt 0.411717 0.862611
vt 0.410874 0.862605
vt 0.393856 0.780684
vt 0.396513 0.756326
vt 0.399190 0.780672
vt 0.795314 0.107255
vt 0.792658 0.131613
vt 0.789981 0.107267
vt 0.266929 0.697264
vt 0.283226 0.697213
vt 0.275076 0.724124
vt 0.181971 0.687077
vt 0.198962 0.687114
vt 0.190467 0.713982
vt 0.742642 0.116606
vt 0.749637 0.140202
vt 0.735626 0.140242
vt 0.694415 0.714682
vt 0.701707 0.738315
vt 0.687102 0.738279
vt 0.854727 0.042976
vt 0.855154 0.068210
vt 0.854294 0.068210
vt 0.836958 0.837662
vt 0.837376 0.862898
vt 0.836533 0.862891
vt 0.854904 0.551356
vt 0.855331 0.576590
vt 0.854471 0.576590
vt 0.103970 0.836297
vt 0.104388 0.861533
vt 0.103545 0.861526
vt 0.295605 0.830317
vt 0.296032 0.855551
vt 0.295172 0.855551
vt 0.459644 0.837727
vt 0.460062 0.862963
vt 0.459219 0.862957
vt 0.788296 0.280877
vt 0.790973 0.305223
vt 0.785639 0.305235
vt 0.184659 0.785637
vt 0.181981 0.761290
vt 0.187315 0.761278
vt 0.711422 0.529105
vt 0.719764 0.556065
vt 0.703082 0.555928
vt 0.151701 0.668109
vt 0.160220 0.694996
vt 0.143180 0.695008
vt 0.738645 0.546141
vt 0.745812 0.569852
vt 0.731467 0.569693
vt 0.581989 0.833572
vt 0.582420 0.858806
vt 0.581554 0.858805
vt 0.335777 0.844425
vt 0.336191 0.869657
vt 0.335358 0.869660
vt 0.250943 0.835426
vt 0.251374 0.860661
vt 0.250508 0.860659
vt 0.867315 0.042977
vt 0.867730 0.068209
vt 0.866896 0.068212
vt 0.864108 0.772377
vt 0.864523 0.797609
vt 0.863689 0.797611
vt 0.155671 0.832970
vt 0.156102 0.858204
vt 0.155236 0.858202
vt 0.345207 0.774142
vt 0.342543 0.798485
vt 0.339863 0.774152
vt 0.061303 0.800651
vt 0.063967 0.776308
vt 0.066648 0.800641
vt 0.700039 0.331125
vt 0.716719 0.331265
vt 0.708380 0.358087
vt 0.632019 0.675993
vt 0.649057 0.675983
vt 0.640537 0.702881
vt 0.725453 0.722814
vt 0.732621 0.746525
vt 0.718275 0.746366
vt 0.330123 0.707750
vt 0.337443 0.731397
vt 0.322791 0.731367
vt 0.265498 0.834348
vt 0.265930 0.859583
vt 0.265063 0.859581
vt 0.348343 0.844425
vt 0.348758 0.869657
vt 0.347924 0.869660
vt 0.867491 0.551358
vt 0.867906 0.576589
vt 0.867072 0.576592
vt 0.279750 0.833896
vt 0.280181 0.859130
vt 0.279315 0.859128
vt 0.863686 0.638092
vt 0.864101 0.663323
vt 0.863267 0.663326
vt 0.856838 0.375398
vt 0.857270 0.400632
vt 0.856403 0.400630
vt 0.797737 0.575702
vt 0.800400 0.551359
vt 0.803082 0.575692
vt 0.793820 0.387046
vt 0.791157 0.411389
vt 0.788475 0.387056
vt 0.102881 0.644472
vt 0.093338 0.594637
vt 0.112453 0.594667
vt 0.072044 0.594652
vt 0.081587 0.644487
vt 0.062472 0.644457
vt 0.905128 0.291199
vt 0.904746 0.291143
vt 0.905070 0.267941
vt 0.904710 0.029155
vt 0.904307 0.029100
vt 0.904650 0.005898
vt 0.903221 0.244374
vt 0.902818 0.244320
vt 0.903161 0.221118
vt 0.901834 0.908868
vt 0.901452 0.908812
vt 0.901776 0.885610
vt 0.904689 0.064183
vt 0.904307 0.064127
vt 0.904631 0.040925
vt 0.903997 0.513512
vt 0.903594 0.513457
vt 0.903937 0.490255
vt 0.904866 0.574605
vt 0.904483 0.574548
vt 0.904807 0.551346
vt 0.323194 0.904738
vt 0.322791 0.904683
vt 0.323134 0.881481
vt 0.811975 0.635342
vt 0.811513 0.635353
vt 0.811590 0.600963
vt 0.805800 0.375356
vt 0.806314 0.375352
vt 0.805956 0.411176
vt 0.956589 0.981749
vt 0.956589 0.981301
vt 0.956813 0.981130
vt 0.159130 0.608935
vt 0.159130 0.655929
vt 0.612300 0.650751
vt 0.613030 0.650688
vt 0.612744 0.603693
vt 0.613030 0.603693
vt 0.159868 0.608935
vt 0.159868 0.655929
vt 0.801137 0.490214
vt 0.143224 0.608757
vt 0.159403 0.609209
vt 0.983927 0.006876
vt 0.983901 0.006827
vt 0.983636 0.006486
vt 0.983636 0.006140
vt 0.983932 0.005915
vt 0.984057 0.005832
vt 0.596404 0.650931
vt 0.612565 0.650414
vt 0.596384 0.603556
vt 0.612565 0.603229
vt 0.181957 0.943729
vt 0.182432 0.943374
vt 0.182636 0.943434
vt 0.143224 0.656006
vt 0.159445 0.655770
vt 0.159403 0.656394
vt 0.984000 0.031232
vt 0.984247 0.031519
vt 0.442025 0.657854
vt 0.434874 0.693157
vt 0.427806 0.657871
vt 0.688457 0.150443
vt 0.681328 0.116564
vt 0.695523 0.116615
vt 0.047627 0.475167
vt 0.063648 0.524719
vt 0.031590 0.524610
vt 0.239817 0.475269
vt 0.255188 0.524736
vt 0.224436 0.524795
vt 0.266914 0.475158
vt 0.296568 0.475219
vt 0.281734 0.521508
vt 0.031590 0.536635
vt 0.060036 0.536542
vt 0.045806 0.582908
vt 0.553560 0.680341
vt 0.554426 0.680306
vt 0.553990 0.728242
vt 0.764945 0.065670
vt 0.765795 0.065642
vt 0.765367 0.113573
vt 0.755710 0.157538
vt 0.756576 0.157504
vt 0.756140 0.205440
vt 0.764945 0.005920
vt 0.765795 0.005891
vt 0.765367 0.053823
vt 0.763605 0.490276
vt 0.764454 0.490248
vt 0.764027 0.538179
vt 0.757965 0.221145
vt 0.758831 0.221111
vt 0.758395 0.269047
vt 0.737475 0.645107
vt 0.734787 0.601024
vt 0.740141 0.601012
vt 0.729348 0.221123
vt 0.732037 0.265207
vt 0.726683 0.265218
vt 0.696837 0.601059
vt 0.702348 0.638263
vt 0.691312 0.638266
vt 0.703657 0.172027
vt 0.709052 0.209278
vt 0.698248 0.209184
vt 0.358112 0.156442
vt 0.372667 0.149155
vt 0.372658 0.163786
vt 0.437021 0.149189
vt 0.451006 0.156438
vt 0.437020 0.163772
vt 0.837383 0.719079
vt 0.840272 0.713593
vt 0.843127 0.719989
vt 0.656044 0.155128
vt 0.659041 0.148821
vt 0.662023 0.154312
vt 0.459706 0.955392
vt 0.459487 0.962579
vt 0.459330 0.955392
vt 0.508514 0.957976
vt 0.508724 0.964881
vt 0.508317 0.964864
vt 0.699224 0.955455
vt 0.699397 0.962651
vt 0.698989 0.962633
vt 0.616509 0.957980
vt 0.616326 0.964877
vt 0.616133 0.957980
vt 0.523347 0.955704
vt 0.523128 0.962891
vt 0.522971 0.955704
vt 0.964160 0.885542
vt 0.964369 0.892447
vt 0.963962 0.892430
vt 0.964357 0.682588
vt 0.964138 0.689774
vt 0.963981 0.682588
vt 0.336301 0.958772
vt 0.336511 0.965677
vt 0.336103 0.965660
vt 0.006317 0.955771
vt 0.006098 0.962957
vt 0.005941 0.955771
vt 0.964991 0.157443
vt 0.965201 0.164348
vt 0.964794 0.164331
vt 0.823393 0.201996
vt 0.823173 0.209183
vt 0.823016 0.201996
vt 0.964165 0.775927
vt 0.964374 0.782832
vt 0.963967 0.782816
vt 0.950640 0.663764
vt 0.952121 0.663758
vt 0.951384 0.671775
vt 0.950728 0.813080
vt 0.952149 0.813066
vt 0.951440 0.821087
vt 0.939350 0.748296
vt 0.937587 0.748308
vt 0.938457 0.735314
vt 0.937375 0.170516
vt 0.936482 0.157533
vt 0.938246 0.157522
vt 0.938930 0.614011
vt 0.937167 0.614023
vt 0.938037 0.601029
vt 0.934660 0.145078
vt 0.933767 0.132095
vt 0.935531 0.132084
vt 0.924728 0.208972
vt 0.924424 0.208983
vt 0.924497 0.189173
vt 0.824007 0.900323
vt 0.824362 0.900320
vt 0.824126 0.920942
vt 0.948320 0.016186
vt 0.947882 0.016206
vt 0.947964 0.005851
vt 0.946367 0.243605
vt 0.946849 0.243603
vt 0.946593 0.254147
vt 0.837198 0.948567
vt 0.836760 0.948587
vt 0.836843 0.938232
vt 0.946893 0.551311
vt 0.947375 0.551309
vt 0.947118 0.561854
vt 0.041193 0.594652
vt 0.050735 0.644487
vt 0.031621 0.644457
vt 0.437322 0.646150
vt 0.427779 0.596314
vt 0.446894 0.596345
vt 0.061657 0.906900
vt 0.061275 0.906844
vt 0.061599 0.883642
vt 0.335761 0.904738
vt 0.335358 0.904683
vt 0.335701 0.881481
vt 0.906681 0.452175
vt 0.906299 0.452119
vt 0.906623 0.428917
vt 0.904646 0.348956
vt 0.904242 0.348902
vt 0.904585 0.325700
vt 0.347954 0.904738
vt 0.347551 0.904683
vt 0.347894 0.881481
vt 0.906796 0.398646
vt 0.906414 0.398590
vt 0.906737 0.375388
vt 0.360895 0.904738
vt 0.360491 0.904683
vt 0.360834 0.881481
vt 0.006212 0.907173
vt 0.005830 0.907117
vt 0.006154 0.883915
vt 0.813637 0.255447
vt 0.813174 0.255458
vt 0.813251 0.221068
vt 0.807301 0.107223
vt 0.807815 0.107220
vt 0.807457 0.143043
vt 0.566588 0.942524
vt 0.567042 0.942524
vt 0.736430 0.429040
vt 0.736882 0.428849
vt 0.736882 0.476034
vt 0.736595 0.476034
vt 0.968973 0.981478
vt 0.969210 0.981164
vt 0.810565 0.157461
vt 0.811025 0.157475
vt 0.983793 0.969242
vt 0.983636 0.968904
vt 0.983793 0.968595
vt 0.512079 0.620766
vt 0.512181 0.667855
vt 0.983636 0.019494
vt 0.983636 0.018769
vt 0.983972 0.018597
vt 0.984148 0.019163
vt 0.837114 0.910174
vt 0.932138 0.473102
vt 0.932127 0.456954
vt 0.932414 0.456961
vt 0.931962 0.456960
vt 0.932045 0.456865
vt 0.784743 0.372824
vt 0.784718 0.325830
vt 0.932249 0.445205
vt 0.931962 0.428849
vt 0.932412 0.429063
vt 0.931962 0.445201
vt 0.931519 0.092284
vt 0.931257 0.076093
vt 0.931708 0.075882
vt 0.495841 0.668319
vt 0.511983 0.667964
vt 0.511983 0.668319
vt 0.495788 0.667763
vt 0.511983 0.667581
vt 0.566234 0.693649
vt 0.573312 0.659809
vt 0.580454 0.693679
vt 0.098143 0.656184
vt 0.105198 0.691482
vt 0.091003 0.691477
vt 0.197339 0.475269
vt 0.212709 0.524736
vt 0.181958 0.524795
vt 0.091412 0.475167
vt 0.107434 0.524719
vt 0.075376 0.524610
vt 0.266914 0.533322
vt 0.296568 0.533384
vt 0.281734 0.579673
vt 0.071749 0.536635
vt 0.100195 0.536542
vt 0.085966 0.582909
vt 0.768312 0.157532
vt 0.769161 0.157504
vt 0.768734 0.205435
vt 0.756016 0.676029
vt 0.756882 0.675994
vt 0.756446 0.723930
vt 0.759690 0.325727
vt 0.760556 0.325693
vt 0.760120 0.373629
vt 0.768618 0.676023
vt 0.769468 0.675994
vt 0.769040 0.723925
vt 0.762733 0.428938
vt 0.763583 0.428910
vt 0.763155 0.476840
vt 0.553560 0.620588
vt 0.554426 0.620553
vt 0.553990 0.668489
vt 0.731125 0.331147
vt 0.733814 0.375230
vt 0.728459 0.375242
vt 0.734180 0.534350
vt 0.731490 0.490266
vt 0.736846 0.490255
vt 0.691166 0.436660
vt 0.696678 0.473864
vt 0.685643 0.473867
vt 0.305654 0.622831
vt 0.311049 0.660082
vt 0.300245 0.659988
vt 0.462738 0.156481
vt 0.476728 0.149122
vt 0.476720 0.163753
vt 0.384422 0.149100
vt 0.398974 0.156470
vt 0.384426 0.163783
vt 0.812117 0.653013
vt 0.815006 0.647528
vt 0.817861 0.653923
vt 0.151081 0.312700
vt 0.154078 0.306393
vt 0.157060 0.311885
vt 0.596815 0.955944
vt 0.596595 0.963131
vt 0.596438 0.955944
vt 0.901714 0.958476
vt 0.901923 0.965381
vt 0.901516 0.965364
vt 0.491550 0.956124
vt 0.491331 0.963310
vt 0.491174 0.956124
vt 0.913941 0.958476
vt 0.914151 0.965381
vt 0.913744 0.965364
vt 0.235196 0.956249
vt 0.234977 0.963435
vt 0.234820 0.956249
vt 0.964363 0.405318
vt 0.964573 0.412223
vt 0.964165 0.412206
vt 0.654074 0.958832
vt 0.654283 0.965737
vt 0.653876 0.965720
vt 0.964386 0.812995
vt 0.964167 0.820182
vt 0.964010 0.812995
vt 0.965259 0.297783
vt 0.965468 0.304688
vt 0.965061 0.304671
vt 0.769106 0.956241
vt 0.768886 0.963428
vt 0.768729 0.956241
vt 0.182445 0.955389
vt 0.182225 0.962576
vt 0.182069 0.955389
vt 0.358441 0.957763
vt 0.358651 0.964668
vt 0.358244 0.964651
vt 0.950673 0.776008
vt 0.952154 0.776002
vt 0.951417 0.784019
vt 0.950930 0.405402
vt 0.952352 0.405389
vt 0.951642 0.413409
vt 0.938635 0.933634
vt 0.936872 0.933646
vt 0.937742 0.920652
vt 0.887867 0.935229
vt 0.886974 0.922247
vt 0.888737 0.922235
vt 0.939690 0.863129
vt 0.937927 0.863141
vt 0.938797 0.850147
vt 0.062188 0.931673
vt 0.061295 0.918690
vt 0.063058 0.918678
vt 0.924728 0.177260
vt 0.924424 0.177271
vt 0.924497 0.157461
vt 0.921635 0.107223
vt 0.921990 0.107220
vt 0.921755 0.127842
vt 0.948255 0.353059
vt 0.947817 0.353079
vt 0.947900 0.342724
vt 0.946367 0.221083
vt 0.946849 0.221081
vt 0.946593 0.231626
vt 0.948315 0.051212
vt 0.947876 0.051232
vt 0.947959 0.040877
vt 0.946893 0.573833
vt 0.947375 0.573831
vt 0.947118 0.584375
vt 0.708379 0.369991
vt 0.716721 0.396952
vt 0.700039 0.396814
vt 0.098292 0.703347
vt 0.105612 0.726994
vt 0.090960 0.726964
vt 0.672377 0.640496
vt 0.679545 0.664207
vt 0.665199 0.664048
vt 0.061275 0.846604
vt 0.062114 0.846568
vt 0.061692 0.871819
vt 0.718275 0.833161
vt 0.719145 0.833129
vt 0.718708 0.858378
vt 0.360491 0.844443
vt 0.361330 0.844408
vt 0.360908 0.869658
vt 0.653811 0.833152
vt 0.654682 0.833121
vt 0.654244 0.858369
vt 0.867336 0.267970
vt 0.868174 0.267935
vt 0.867752 0.293185
vt 0.495401 0.834068
vt 0.496271 0.834037
vt 0.495834 0.859286
vt 0.356924 0.798490
vt 0.359588 0.774147
vt 0.362269 0.798480
vt 0.011194 0.776576
vt 0.008531 0.800919
vt 0.005850 0.776586
vt 0.698053 0.675988
vt 0.706572 0.702875
vt 0.689532 0.702887
vt 0.068607 0.701971
vt 0.075927 0.725618
vt 0.061275 0.725588
vt 0.531286 0.718512
vt 0.538454 0.742223
vt 0.524108 0.742064
vt 0.666411 0.833152
vt 0.667281 0.833121
vt 0.666844 0.858370
vt 0.868888 0.428946
vt 0.869727 0.428911
vt 0.869305 0.454161
vt 0.596327 0.844192
vt 0.597166 0.844157
vt 0.596744 0.869407
vt 0.393822 0.831162
vt 0.394692 0.831131
vt 0.394255 0.856379
vt 0.181957 0.836120
vt 0.182828 0.836089
vt 0.182390 0.861337
vt 0.864168 0.813093
vt 0.865007 0.813057
vt 0.864585 0.838307
vt 0.793632 0.759654
vt 0.796297 0.735311
vt 0.798977 0.759644
vt 0.805179 0.428925
vt 0.802516 0.453268
vt 0.799835 0.428935
vt 0.039754 0.701945
vt 0.047902 0.728804
vt 0.031603 0.728857
vt 0.012846 0.702261
vt 0.019841 0.725856
vt 0.005830 0.725896
vt 0.356489 0.707730
vt 0.363781 0.731363
vt 0.349175 0.731327
vt 0.116130 0.836311
vt 0.116980 0.836283
vt 0.116552 0.861529
vt 0.307774 0.830335
vt 0.308640 0.830300
vt 0.308204 0.855551
vt 0.862592 0.157532
vt 0.863442 0.157504
vt 0.863014 0.182750
vt 0.851566 0.813091
vt 0.852432 0.813056
vt 0.851996 0.838307
vt 0.471804 0.837741
vt 0.472654 0.837713
vt 0.472225 0.862960
vt 0.234709 0.830949
vt 0.235575 0.830914
vt 0.235139 0.856165
vt 0.718310 0.782683
vt 0.720966 0.758325
vt 0.723643 0.782671
vt 0.601685 0.773883
vt 0.599028 0.798241
vt 0.596351 0.773895
vt 0.716581 0.436625
vt 0.724730 0.463484
vt 0.708430 0.463537
vt 0.230310 0.687929
vt 0.238808 0.714832
vt 0.221814 0.714797
vt 0.124361 0.703364
vt 0.131355 0.726960
vt 0.117344 0.727000
vt 0.854734 0.267968
vt 0.855600 0.267933
vt 0.855164 0.293184
vt 0.028917 0.836344
vt 0.029767 0.836316
vt 0.029339 0.861562
vt 0.090960 0.836311
vt 0.091810 0.836283
vt 0.091382 0.861530
vt 0.852805 0.221145
vt 0.853671 0.221111
vt 0.853235 0.246361
vt 0.853581 0.490283
vt 0.854447 0.490248
vt 0.854011 0.515499
vt 0.509717 0.838263
vt 0.510567 0.838234
vt 0.510139 0.863482
vt 0.325482 0.774140
vt 0.328159 0.798486
vt 0.322825 0.798498
vt 0.738029 0.782677
vt 0.735352 0.758331
vt 0.740685 0.758319
vt 0.715768 0.044748
vt 0.724109 0.071709
vt 0.707427 0.071571
vt 0.502580 0.718731
vt 0.509747 0.742442
vt 0.495402 0.742283
vt 0.573494 0.705445
vt 0.580814 0.729092
vt 0.566162 0.729062
vt 0.869003 0.375418
vt 0.869842 0.375382
vt 0.869420 0.400633
vt 0.768618 0.834185
vt 0.769488 0.834154
vt 0.769051 0.859403
vt 0.754166 0.834187
vt 0.755036 0.834155
vt 0.754599 0.859404
vt 0.005830 0.846877
vt 0.006669 0.846841
vt 0.006247 0.872092
vt 0.864068 0.676031
vt 0.864907 0.675995
vt 0.864485 0.701246
vt 0.856289 0.428942
vt 0.857159 0.428911
vt 0.856722 0.454160
vt 0.798969 0.771467
vt 0.796305 0.795810
vt 0.793624 0.771477
vt 0.794242 0.625369
vt 0.796906 0.601026
vt 0.799587 0.625359
vt 0.715768 0.005952
vt 0.724109 0.032913
vt 0.707427 0.032775
vt 0.532643 0.679846
vt 0.541162 0.706733
vt 0.524122 0.706745
vt 0.401000 0.720815
vt 0.408168 0.744526
vt 0.393822 0.744367
vt 0.679010 0.833152
vt 0.679880 0.833121
vt 0.679443 0.858369
vt 0.871904 0.107285
vt 0.872743 0.107250
vt 0.872321 0.132500
vt 0.441457 0.836179
vt 0.442327 0.836147
vt 0.441890 0.861396
vt 0.322791 0.844443
vt 0.323629 0.844408
vt 0.323208 0.869659
vt 0.427153 0.831641
vt 0.428023 0.831610
vt 0.427586 0.856858
vt 0.863689 0.735328
vt 0.864528 0.735292
vt 0.864106 0.760543
vt 0.799068 0.676009
vt 0.796404 0.700352
vt 0.793723 0.676019
vt 0.795904 0.245474
vt 0.798567 0.221131
vt 0.801249 0.245464
vt 0.276310 0.591505
vt 0.285662 0.642490
vt 0.266955 0.642477
vt 0.575176 0.597008
vt 0.584144 0.647944
vt 0.566201 0.648029
vt 0.393822 0.622928
vt 0.409363 0.622871
vt 0.401585 0.670315
vt 0.524108 0.620571
vt 0.540309 0.620599
vt 0.532201 0.668001
vt 0.781203 0.676023
vt 0.781969 0.675995
vt 0.781582 0.723472
vt 0.780897 0.157538
vt 0.781677 0.157504
vt 0.781284 0.204986
vt 0.950648 0.601015
vt 0.951764 0.601034
vt 0.951200 0.609947
vt 0.281667 0.939419
vt 0.282806 0.939428
vt 0.282229 0.948346
vt 0.949975 0.194445
vt 0.951115 0.194454
vt 0.950537 0.203372
vt 0.950353 0.920639
vt 0.951468 0.920657
vt 0.950905 0.929570
vt 0.070288 0.690188
vt 0.061311 0.656193
vt 0.079262 0.656192
vt 0.040602 0.656193
vt 0.049578 0.690188
vt 0.031628 0.690189
vt 0.690840 0.312271
vt 0.683910 0.279453
vt 0.697801 0.279484
vt 0.603317 0.662884
vt 0.610248 0.695702
vt 0.596356 0.695671
vt 0.634154 0.781023
vt 0.636300 0.805760
vt 0.632003 0.805750
vt 0.207207 0.783887
vt 0.209266 0.808613
vt 0.205144 0.808625
vt 0.698280 0.263257
vt 0.703858 0.259918
vt 0.703844 0.266601
vt 0.731495 0.581636
vt 0.736843 0.584980
vt 0.731505 0.588375
vt 0.012880 0.475163
vt 0.019918 0.585293
vt 0.005841 0.585408
vt 0.566162 0.585278
vt 0.573213 0.472732
vt 0.580263 0.585286
vt 0.150198 0.294516
vt 0.157249 0.181970
vt 0.164298 0.294523
vt 0.434783 0.474369
vt 0.441821 0.584499
vt 0.427745 0.584614
vt 0.733340 0.083423
vt 0.737346 0.104034
vt 0.729257 0.104025
vt 0.295243 0.774015
vt 0.299259 0.754255
vt 0.303339 0.774026
vt 0.933930 0.005954
vt 0.932196 0.014763
vt 0.931109 0.005951
vt 0.185842 0.910267
vt 0.183236 0.914760
vt 0.183155 0.910284
vt 0.843632 0.478251
vt 0.840670 0.478403
vt 0.842454 0.469439
vt 0.186918 0.919213
vt 0.465187 0.914778
vt 0.464063 0.919252
vt 0.461364 0.919291
vt 0.460367 0.910348
vt 0.933865 0.325755
vt 0.932093 0.334607
vt 0.931045 0.325753
vt 0.478058 0.910326
vt 0.482045 0.914770
vt 0.479047 0.919268
vt 0.094834 0.908852
vt 0.095918 0.917798
vt 0.090960 0.913357
vt 0.092158 0.908890
vt 0.873978 0.088906
vt 0.871025 0.089018
vt 0.872714 0.080216
vt 0.481757 0.919252
vt 0.933924 0.040980
vt 0.932153 0.049831
vt 0.931104 0.040977
vt 0.919747 0.405447
vt 0.923733 0.409891
vt 0.920736 0.414389
vt 0.027134 0.908884
vt 0.028218 0.917831
vt 0.023260 0.913390
vt 0.024458 0.908923
vt 0.878507 0.722337
vt 0.875554 0.722449
vt 0.877242 0.713647
vt 0.923445 0.414373
vt 0.583534 0.298100
vt 0.579448 0.318708
vt 0.575438 0.298104
vt 0.528226 0.773813
vt 0.524150 0.754036
vt 0.532238 0.754061
vt 0.933216 0.511147
vt 0.931526 0.519949
vt 0.930367 0.511259
vt 0.895638 0.469457
vt 0.893033 0.473950
vt 0.892951 0.469473
vt 0.860159 0.469552
vt 0.861334 0.478408
vt 0.858405 0.478403
vt 0.928446 0.307479
vt 0.924623 0.311993
vt 0.923626 0.303050
vt 0.927321 0.311953
vt 0.896715 0.478403
vt 0.445341 0.908738
vt 0.442736 0.913231
vt 0.442655 0.908755
vt 0.933230 0.267996
vt 0.931496 0.276806
vt 0.930409 0.267993
vt 0.861952 0.537158
vt 0.858990 0.537311
vt 0.860774 0.528347
vt 0.875229 0.926736
vt 0.871405 0.931251
vt 0.870408 0.922308
vt 0.874104 0.931211
vt 0.446418 0.917684
vt 0.672004 0.302981
vt 0.670865 0.303032
vt 0.671448 0.172019
vt 0.656558 0.136855
vt 0.655534 0.136855
vt 0.656041 0.005926
vt 0.659149 0.302986
vt 0.658124 0.302986
vt 0.658632 0.172056
vt 0.669413 0.136850
vt 0.668274 0.136901
vt 0.668857 0.005889
vt 0.005867 0.649680
vt 0.019022 0.649644
vt 0.012443 0.690425
vt 0.005868 0.597116
vt 0.019582 0.597151
vt 0.012724 0.637896
vt 0.581629 0.153881
vt 0.584602 0.165086
vt 0.578659 0.165084
vt 0.842315 0.528336
vt 0.845166 0.539526
vt 0.839465 0.539555
vt 0.410736 0.156441
vt 0.425291 0.149155
vt 0.425282 0.163785
vt 0.494512 0.153930
vt 0.508497 0.161177
vt 0.494512 0.168512
vt 0.692127 0.659782
vt 0.695016 0.654296
vt 0.697871 0.660692
vt 0.631193 0.474852
vt 0.634190 0.468544
vt 0.637172 0.474036
vt 0.394121 0.956463
vt 0.394293 0.963659
vt 0.393886 0.963641
vt 0.964606 0.324089
vt 0.964423 0.330986
vt 0.964230 0.324089
vt 0.154237 0.958665
vt 0.154054 0.965562
vt 0.153861 0.958665
vt 0.250807 0.956939
vt 0.250979 0.964134
vt 0.250572 0.964116
vt 0.582004 0.958652
vt 0.581822 0.965549
vt 0.581628 0.958652
vt 0.964169 0.663683
vt 0.964341 0.670879
vt 0.963934 0.670861
vt 0.427640 0.956943
vt 0.427421 0.964130
vt 0.427264 0.956943
vt 0.964427 0.756418
vt 0.964637 0.763323
vt 0.964229 0.763306
vt 0.790872 0.957050
vt 0.791044 0.964245
vt 0.790637 0.964227
vt 0.323241 0.958772
vt 0.323059 0.965669
vt 0.322865 0.958772
vt 0.265551 0.956420
vt 0.265331 0.963606
vt 0.265174 0.956420
vt 0.684316 0.957874
vt 0.684525 0.964779
vt 0.684118 0.964762
vt 0.951381 0.683591
vt 0.952121 0.691603
vt 0.950646 0.691606
vt 0.951438 0.885620
vt 0.952147 0.893629
vt 0.950732 0.893639
vt 0.938846 0.651938
vt 0.937953 0.638956
vt 0.939717 0.638944
vt 0.938257 0.195327
vt 0.936494 0.195339
vt 0.937364 0.182345
vt 0.537248 0.938910
vt 0.536355 0.925928
vt 0.538119 0.925916
vt 0.935542 0.120254
vt 0.933779 0.120266
vt 0.934649 0.107272
vt 0.017610 0.993977
vt 0.190029 0.632396
vt 0.201880 0.536463
vt 0.005830 0.994170
vt 0.138458 0.182151
vt 0.005940 0.319261
vt 0.944532 0.982112
vt 0.944520 0.982175
vt 0.944290 0.982160
vt 0.159538 0.656025
vt 0.566320 0.942705
vt 0.566225 0.942797
vt 0.566243 0.942580
vt 0.567220 0.942524
vt 0.567268 0.942776
vt 0.567184 0.942796
vt 0.983821 0.981101
vt 0.983655 0.981101
vt 0.983636 0.980902
vt 0.512079 0.667950
vt 0.512162 0.667855
vt 0.691312 0.490187
vt 0.134908 0.315766
vt 0.483483 0.782227
vt 0.811815 0.710387
vt 0.785003 0.325632
vt 0.134970 0.930593
vt 0.686493 0.171962
vt 0.539585 0.808221
vt 0.539714 0.793742
vt 0.202070 0.630360
vt 0.810819 0.710763
vt 0.932399 0.375320
vt 0.326519 0.185684
vt 0.009556 0.185588
vt 0.670617 0.318753
vt 0.078343 0.811174
vt 0.984147 0.031201
vt 0.984109 0.018536
vt 0.827020 0.537558
vt 0.128825 0.844483
vt 0.604473 0.490248
vt 0.159403 0.608537
vt 0.159856 0.608840
vt 0.801885 0.526207
vt 0.801802 0.526335
vt 0.566765 0.942495
vt 0.685738 0.424885
vt 0.584572 0.331075
vt 0.616436 0.105089
vt 0.695753 0.100875
vt 0.459999 0.943399
vt 0.459593 0.943432
vt 0.459517 0.931068
vt 0.135384 0.943269
vt 0.307500 0.315784
vt 0.190124 0.536596
vt 0.182053 0.185607
vt 0.201974 0.630255
vt 0.839701 0.310158
vt 0.839701 0.302087
vt 0.610483 0.431226
vt 0.610483 0.331143
vt 0.610483 0.331208
vt 0.610579 0.331073
vt 0.618554 0.431335
vt 0.610598 0.431310
vt 0.686667 0.938249
vt 0.686584 0.938135
vt 0.127214 0.475103
vt 0.119162 0.579630
vt 0.413525 0.943515
vt 0.413512 0.935349
vt 0.624581 0.102314
vt 0.127328 0.579477
vt 0.127233 0.579612
vt 0.159500 0.608840
vt 0.956860 0.981069
vt 0.983934 0.005830
vt 0.983636 0.032069
vt 0.983636 0.031331
vt 0.984030 0.031154
vt 0.969103 0.981165
vt 0.512448 0.620861
vt 0.983879 0.454813
vt 0.983896 0.455346
vt 0.983680 0.455388
vt 0.983686 0.455451
vt 0.983636 0.455265
vt 0.785055 0.372919
vt 0.968929 0.981690
vt 0.969218 0.981070
s 1
usemtl residential_014_baked
f 56/1/1 58/2/1 59/3/1
f 61/4/2 63/5/2 60/6/2
f 64/7/3 66/8/3 67/9/3
f 72/10/4 74/11/5 75/12/6
f 77/13/7 79/14/7 76/15/7
f 82/16/8 84/17/8 85/18/8
f 88/19/9 90/20/9 91/21/9
f 93/22/10 95/23/10 92/24/10
f 99/25/11 100/26/11 101/27/11
f 103/28/12 105/29/12 102/30/12
f 301/31/13 302/32/13 298/33/13
f 307/34/14 308/35/14 306/36/14
f 314/37/15 316/38/15 317/39/15
f 418/40/16 414/41/16 419/42/16
f 425/43/17 426/44/17 427/45/17
f 295/46/18 293/47/19 294/48/20
f 297/49/21 303/50/22 286/51/23
f 59/52/24 67/53/24 56/54/24
f 52/55/25 54/56/26 55/57/27
f 81/58/28 72/10/28 75/12/28
f 82/16/29 68/59/29 70/60/29
f 105/29/30 71/61/31 102/30/32
f 101/27/33 57/62/33 99/25/33
f 95/23/34 57/63/35 92/24/36
f 68/64/37 97/65/37 98/66/37
f 95/23/38 73/67/39 72/10/40
f 109/68/41 82/16/29 108/69/42
f 105/29/43 89/70/44 88/19/45
f 300/71/46 283/72/46 301/73/46
f 310/74/47 292/75/47 306/76/47
f 425/77/48 406/78/48 405/79/48
f 407/80/49 413/81/49 408/82/49
f 422/83/50 407/84/50 411/85/50
f 434/86/51 429/87/51 433/88/51
f 51/89/52 58/90/52 50/91/53
f 81/92/54 64/93/54 80/94/54
f 291/95/55 290/96/56 292/75/57
f 294/48/58 308/97/58 307/98/58
f 313/99/59 300/100/59 299/101/59
f 308/102/60 311/103/61 309/104/62
f 404/105/63 408/106/64 403/107/65
f 411/108/66 415/109/67 421/110/68
f 84/17/69 76/111/69 85/18/69
f 90/20/70 87/112/70 91/21/70
f 101/27/29 109/113/29 110/114/29
f 68/115/71 99/25/29 69/116/72
f 109/117/73 106/118/73 107/119/73
f 283/72/74 282/120/75 284/121/76
f 295/122/18 313/99/77 293/123/19
f 281/124/78 289/125/79 280/126/80
f 286/127/23 304/128/81 287/129/82
f 406/130/83 412/131/84 405/132/85
f 432/133/86 420/134/87 430/135/88
f 432/136/89 436/137/90 431/138/91
f 54/139/92 77/140/92 55/141/93
f 102/30/94 74/11/94 103/28/94
f 86/142/95 63/143/95 87/144/95
f 287/145/96 306/36/96 288/146/96
f 304/128/81 303/147/22 302/148/97
f 420/134/98 427/149/98 426/150/98
f 409/151/99 430/152/99 410/153/99
f 427/154/100 437/155/100 428/156/100
f 70/157/101 66/158/101 65/159/101
f 284/121/102 289/160/102 288/161/102
f 315/162/103 312/163/104 309/164/105
f 438/165/106 423/166/107 435/167/108
f 433/88/109 432/168/110 431/169/111
f 93/22/112 88/19/112 91/21/112
f 426/170/113 414/171/114 418/172/115
f 429/173/116 438/174/116 435/175/116
f 78/176/117 62/177/117 79/178/117
f 110/114/118 61/179/118 60/180/118
f 44/181/119 45/182/119 43/183/119
f 46/184/120 45/185/120 47/186/120
f 46/187/120 47/188/120 45/189/120
f 47/190/121 48/191/121 49/192/121
f 55/57/122 50/193/123 52/55/124
f 52/194/124 50/195/123 59/196/125
f 51/197/126 61/198/127 58/199/128
f 55/57/122 53/200/129 50/193/123
f 51/197/126 53/201/130 61/198/127
f 54/202/26 52/203/25 66/204/131
f 52/194/124 59/196/125 67/205/132
f 53/206/129 78/207/133 62/208/134
f 53/206/129 55/209/122 78/207/133
f 54/202/26 66/204/131 77/210/135
f 58/211/29 110/114/29 61/179/29
f 58/211/136 60/180/136 63/212/136
f 58/211/29 101/27/29 110/114/29
f 86/213/137 57/214/35 56/215/138
f 90/216/139 87/217/139 60/218/139
f 64/219/29 63/212/29 77/220/29
f 90/216/139 60/218/139 109/221/139
f 72/222/140 80/223/140 65/224/140
f 70/157/29 66/158/29 77/220/29
f 75/225/141 72/222/141 65/224/141
f 70/157/29 77/220/29 85/226/29
f 68/227/29 99/228/29 101/229/29
f 74/230/135 97/231/135 68/232/135
f 103/233/142 85/234/142 84/235/142
f 98/236/143 96/237/144 69/116/145
f 102/30/32 71/61/31 81/58/146
f 81/238/146 71/239/31 79/240/147
f 71/241/148 84/242/149 76/243/150
f 102/30/32 81/58/146 75/12/28
f 74/230/5 73/244/151 97/231/152
f 83/245/153 108/69/154 107/246/155
f 104/247/156 103/233/156 84/235/156
f 105/248/157 82/249/157 84/250/157
f 104/247/158 84/235/159 83/251/153
f 86/252/137 92/24/36 57/63/35
f 57/253/140 93/254/140 100/255/140
f 86/252/160 91/21/160 92/24/160
f 90/256/128 106/257/128 109/258/128
f 90/256/161 89/259/162 106/257/163
f 73/260/39 96/261/144 98/262/143
f 73/260/39 94/263/164 96/261/144
f 94/264/165 93/265/165 100/266/165
f 93/265/128 109/258/128 100/266/128
f 94/264/164 100/266/166 96/267/144
f 89/268/44 83/269/153 107/270/155
f 89/268/44 104/271/158 83/269/153
f 112/272/167 111/273/168 113/274/169
f 111/275/168 112/276/167 113/277/169
f 114/278/170 116/279/171 115/280/172
f 116/281/171 114/282/170 115/283/172
f 117/284/173 118/285/173 119/286/173
f 118/287/173 117/288/173 119/289/173
f 120/290/140 121/291/140 122/292/140
f 121/293/140 120/294/140 122/295/140
f 123/296/140 124/297/140 125/298/140
f 124/299/140 123/300/140 125/301/140
f 128/302/140 126/303/140 127/304/140
f 126/305/140 128/306/140 127/307/140
f 131/308/174 130/309/175 129/310/176
f 129/311/176 130/312/175 131/313/174
f 134/314/120 132/315/120 133/316/120
f 133/317/120 132/318/120 134/319/120
f 135/320/177 137/321/178 136/322/179
f 137/323/178 135/324/177 136/325/179
f 139/326/180 140/327/181 138/328/182
f 140/329/181 139/330/180 138/331/182
f 143/332/140 142/333/140 141/334/140
f 142/335/140 143/336/140 141/337/140
f 145/338/140 144/339/140 146/340/140
f 144/341/140 145/342/140 146/343/140
f 149/344/120 147/345/120 148/346/120
f 147/347/120 149/348/120 148/349/120
f 150/350/120 151/351/120 152/352/120
f 150/353/120 152/354/120 151/355/120
f 153/356/120 154/357/120 155/358/120
f 153/359/120 155/360/120 154/361/120
f 157/362/29 158/363/29 156/364/29
f 158/365/29 157/366/29 156/367/29
f 159/368/120 161/369/120 160/370/120
f 159/371/120 160/372/120 161/373/120
f 163/374/120 162/375/120 164/376/120
f 163/377/120 164/378/120 162/379/120
f 165/380/120 167/381/120 166/382/120
f 165/383/120 166/384/120 167/385/120
f 169/386/120 170/387/120 168/388/120
f 169/389/120 168/390/120 170/391/120
f 173/392/139 171/393/139 172/394/139
f 172/395/139 171/396/139 173/397/139
f 177/398/183 174/399/183 175/400/183
f 177/401/120 176/402/120 178/403/120
f 177/404/120 178/405/120 176/406/120
f 179/407/120 181/408/120 180/409/120
f 179/410/120 180/411/120 181/412/120
f 182/413/120 184/414/120 183/415/120
f 182/416/120 183/417/120 184/418/120
f 185/419/120 186/420/120 187/421/120
f 185/422/120 187/423/120 186/424/120
f 189/425/139 188/426/139 190/427/139
f 190/428/139 188/429/139 189/430/139
f 192/431/120 191/432/128 193/433/128
f 191/434/128 192/435/120 193/436/128
f 194/437/120 195/438/120 196/439/120
f 194/440/120 196/441/120 195/442/120
f 197/443/120 199/444/120 198/445/120
f 197/446/120 198/447/120 199/448/120
f 200/449/120 202/450/120 201/451/120
f 200/452/120 201/453/120 202/454/120
f 204/455/120 205/456/120 203/457/120
f 204/458/120 203/459/120 205/460/120
f 207/461/184 206/462/185 208/463/186
f 208/464/186 206/465/185 207/466/184
f 210/467/120 211/468/120 209/469/120
f 211/470/120 210/471/120 209/472/120
f 212/473/120 213/474/120 214/475/120
f 212/476/120 214/477/120 213/478/120
f 215/479/120 217/480/120 216/481/120
f 215/482/120 216/483/120 217/484/120
f 218/485/120 220/486/120 219/487/120
f 218/488/120 219/489/120 220/490/120
f 221/491/120 223/492/120 222/493/120
f 221/494/120 222/495/120 223/496/120
f 225/497/120 224/498/120 226/499/120
f 225/500/120 226/501/120 224/502/120
f 228/503/120 227/504/120 229/505/120
f 228/506/120 229/507/120 227/508/120
f 228/509/187 230/510/187 231/511/187
f 232/512/120 234/513/120 233/514/120
f 232/515/120 233/516/120 234/517/120
f 235/518/120 236/519/120 237/520/120
f 235/521/120 237/522/120 236/523/120
f 238/524/120 239/525/120 240/526/120
f 238/527/120 240/528/120 239/529/120
f 242/530/139 241/531/139 243/532/139
f 243/533/139 241/534/139 242/535/139
f 244/536/29 245/537/29 246/538/29
f 245/539/29 244/540/29 246/541/29
f 247/542/120 249/543/120 248/544/120
f 247/545/120 248/546/120 249/547/120
f 250/548/120 251/549/120 252/550/120
f 250/551/120 252/552/120 251/553/120
f 253/554/120 255/555/120 254/556/120
f 253/557/120 254/558/120 255/559/120
f 257/560/120 258/561/120 256/562/120
f 257/563/120 256/564/120 258/565/120
f 260/566/140 259/567/140 261/568/140
f 261/569/140 259/570/140 260/571/140
f 262/572/120 264/573/120 263/574/120
f 262/575/120 263/576/120 264/577/120
f 266/578/128 265/579/128 267/580/128
f 265/581/128 266/582/128 267/583/128
f 269/584/120 268/585/120 270/586/120
f 268/587/120 269/588/120 270/589/120
f 273/590/135 271/591/135 272/592/135
f 271/593/135 273/594/135 272/595/135
f 274/596/188 276/597/189 275/598/190
f 276/599/189 274/600/188 275/601/190
f 277/602/120 278/603/120 279/604/120
f 278/605/120 277/606/120 279/607/120
f 281/608/78 280/609/80 298/610/191
f 281/608/78 284/121/135 289/160/135
f 281/608/78 283/72/135 284/121/135
f 280/611/192 307/34/193 293/612/194
f 280/611/195 288/146/195 307/34/195
f 298/610/196 300/71/196 283/72/196
f 299/101/197 280/613/192 293/123/194
f 282/614/198 300/100/199 318/615/200
f 282/614/198 318/615/200 290/616/56
f 288/146/201 282/617/198 291/618/55
f 282/619/198 290/96/56 291/95/55
f 296/620/202 287/145/203 304/621/204
f 288/146/201 291/618/55 306/36/205
f 286/127/23 303/147/22 304/128/81
f 306/622/206 310/623/206 307/98/206
f 310/623/207 292/624/208 290/625/209
f 308/97/128 295/46/128 294/48/128
f 317/626/210 313/627/210 295/46/210
f 299/101/197 293/123/194 313/99/211
f 301/31/212 303/50/212 297/49/212
f 296/628/202 304/629/204 302/32/213
f 305/630/214 311/631/61 316/38/215
f 305/630/214 315/162/216 309/164/62
f 310/632/217 309/633/105 312/634/104
f 305/635/214 309/636/62 311/637/61
f 308/102/218 317/638/219 311/639/220
f 319/640/221 320/641/222 321/642/223
f 320/643/222 319/644/221 321/645/223
f 322/646/120 323/647/120 324/648/120
f 322/649/120 324/650/120 323/651/120
f 326/652/224 327/653/224 325/654/225
f 327/655/224 326/656/224 325/657/225
f 329/658/120 330/659/120 328/660/120
f 330/661/120 329/662/120 328/663/120
f 333/664/120 332/665/120 331/666/120
f 332/667/120 333/668/120 331/669/120
f 336/670/120 335/671/120 334/672/120
f 335/673/120 336/674/120 334/675/120
f 338/676/120 337/677/120 339/678/120
f 338/679/120 339/680/120 337/681/120
f 341/682/120 340/683/120 342/684/120
f 341/685/120 342/686/120 340/687/120
f 344/688/226 343/689/226 345/690/226
f 343/691/226 344/692/226 345/693/226
f 346/694/59 347/695/59 348/696/59
f 348/697/59 347/698/59 346/699/59
f 350/700/227 349/701/228 351/702/229
f 349/703/228 350/704/227 351/705/229
f 352/706/29 353/707/29 354/708/29
f 353/709/29 352/710/29 354/711/29
f 355/712/230 357/713/231 356/714/230
f 357/715/231 355/716/230 356/717/230
f 360/718/232 358/719/233 359/720/232
f 358/721/233 360/722/232 359/723/232
f 361/724/234 362/725/235 363/726/234
f 362/727/235 361/728/234 363/729/234
f 366/730/29 364/731/29 365/732/29
f 364/733/29 366/734/29 365/735/29
f 367/736/120 368/737/120 369/738/120
f 368/739/120 367/740/120 369/741/120
f 372/742/236 371/743/236 370/744/237
f 370/745/237 371/746/236 372/747/236
f 374/748/238 375/749/238 373/750/239
f 373/751/239 375/752/238 374/753/238
f 376/754/240 377/755/241 378/756/242
f 377/757/241 376/758/240 378/759/242
f 380/760/29 379/761/29 381/762/29
f 379/763/29 380/764/29 381/765/29
f 382/766/120 384/767/120 383/768/120
f 384/769/120 382/770/120 383/771/120
f 386/772/120 385/773/120 387/774/120
f 386/775/120 387/776/120 385/777/120
f 389/778/128 388/779/128 390/780/128
f 388/781/128 389/782/128 390/783/128
f 393/784/120 391/785/120 392/786/120
f 391/787/120 393/788/120 392/789/120
f 396/790/135 394/791/135 395/792/135
f 394/793/135 396/794/135 395/795/135
f 398/796/128 397/797/128 399/798/128
f 397/799/128 398/800/128 399/801/128
f 401/802/128 400/803/120 402/804/120
f 400/805/120 401/806/128 402/807/120
f 404/808/243 419/42/244 414/41/245
f 404/808/243 415/809/246 419/42/244
f 403/810/247 409/811/248 430/812/249
f 404/808/243 414/41/245 408/82/250
f 403/810/247 430/812/249 420/813/251
f 414/171/114 425/77/252 405/79/253
f 406/814/254 426/815/254 427/154/254
f 413/816/255 414/817/114 405/132/253
f 413/816/255 405/132/253 412/131/256
f 432/818/257 412/819/84 406/820/83
f 410/153/258 408/821/258 412/822/258
f 410/823/259 422/824/259 417/825/259
f 410/823/260 417/825/261 411/826/262
f 421/827/68 422/83/263 411/85/66
f 421/828/68 418/829/264 422/830/263
f 416/831/265 417/832/265 418/829/265
f 403/833/247 420/834/251 418/172/266
f 418/172/266 420/834/251 426/170/267
f 423/835/107 429/836/268 434/837/269
f 432/136/89 427/154/140 437/155/270
f 423/835/107 438/838/106 429/836/268
f 435/839/108 436/840/271 428/841/272
f 432/136/89 437/155/270 436/137/90
f 435/842/108 431/843/273 436/844/271
f 423/845/107 433/846/274 431/843/273
f 435/842/108 423/845/107 431/843/273
f 439/847/59 440/848/59 441/849/120
f 440/850/59 439/851/59 441/852/120
f 443/853/120 442/854/120 444/855/120
f 443/856/120 444/857/120 442/858/120
f 445/859/275 447/860/276 446/861/277
f 447/862/276 445/863/275 446/864/277
f 448/865/120 449/866/120 450/867/120
f 449/868/120 448/869/120 450/870/120
f 451/871/120 453/872/120 452/873/120
f 453/874/120 451/875/120 452/876/120
f 454/877/120 456/878/120 455/879/120
f 456/880/120 454/881/120 455/882/120
f 458/883/120 457/884/120 459/885/120
f 458/886/120 459/887/120 457/888/120
f 461/889/120 462/890/120 460/891/120
f 461/892/120 460/893/120 462/894/120
f 465/895/278 463/896/278 464/897/278
f 463/898/278 465/899/278 464/900/278
f 466/901/279 467/902/280 468/903/280
f 468/904/280 467/905/280 466/906/279
f 469/907/281 471/908/282 470/909/283
f 471/910/282 469/911/281 470/912/283
f 472/913/135 473/914/135 474/915/135
f 473/916/135 472/917/135 474/918/135
f 476/919/284 475/920/285 477/921/286
f 475/922/285 476/923/284 477/924/286
f 478/925/287 479/926/120 480/927/288
f 479/928/120 478/929/287 480/930/288
f 481/931/289 482/932/290 483/933/291
f 482/934/290 481/935/289 483/936/291
f 484/937/29 486/938/29 485/939/29
f 486/940/29 484/941/29 485/942/29
f 487/943/120 489/944/120 488/945/120
f 489/946/120 487/947/120 488/948/120
f 491/949/292 492/950/293 490/951/294
f 490/952/294 492/953/293 491/954/292
f 495/955/295 494/956/296 493/957/297
f 493/958/297 494/959/296 495/960/295
f 498/961/135 496/962/120 497/963/120
f 496/964/120 498/965/135 497/966/120
f 500/967/120 499/968/120 501/969/120
f 499/970/120 500/971/120 501/972/120
f 502/973/59 503/974/59 504/975/59
f 503/976/59 502/977/59 504/978/59
f 508/979/298 505/980/298 506/981/298
f 508/982/120 509/983/120 507/984/120
f 508/985/120 507/986/120 509/987/120
f 511/988/120 510/989/120 512/990/120
f 510/991/120 511/992/120 512/993/120
f 514/994/120 515/995/120 513/996/120
f 515/997/120 514/998/120 513/999/120
f 517/1000/120 518/1001/120 516/1002/120
f 518/1003/120 517/1004/120 516/1005/120
f 520/1006/299 519/1007/300 521/1008/301
f 521/1009/301 519/1010/300 520/1011/299
f 524/1012/183 523/1013/183 522/1014/183
f 524/1015/120 526/1016/120 525/1017/120
f 524/1018/120 525/1019/120 526/1020/120
f 527/1021/120 529/1022/120 528/1023/120
f 529/1024/120 527/1025/120 528/1026/120
f 532/1027/120 530/1028/120 531/1029/120
f 530/1030/120 532/1031/120 531/1032/120
f 535/1033/120 534/1034/120 533/1035/120
f 534/1036/120 535/1037/120 533/1038/120
f 537/1039/139 536/1040/139 538/1041/139
f 538/1042/139 536/1043/139 537/1044/139
f 542/1045/302 539/1046/302 540/1047/302
f 542/1048/120 543/1049/120 541/1050/120
f 542/1051/120 541/1052/120 543/1053/120
f 545/1054/120 544/1055/120 546/1056/120
f 544/1057/120 545/1058/120 546/1059/120
f 549/1060/120 548/1061/120 547/1062/120
f 548/1063/120 549/1064/120 547/1065/120
f 552/1066/120 551/1067/120 550/1068/120
f 551/1069/120 552/1070/120 550/1071/120
f 555/1072/128 553/1073/128 554/1074/128
f 554/1075/128 553/1076/128 555/1077/128
f 558/1078/120 557/1079/120 556/1080/120
f 558/1081/120 556/1082/120 557/1083/120
f 558/1084/303 560/1085/303 559/1086/303
f 563/1087/120 562/1088/120 561/1089/120
f 562/1090/120 563/1091/120 561/1092/120
f 566/1093/120 564/1094/120 565/1095/120
f 564/1096/120 566/1097/120 565/1098/120
f 568/1099/120 567/1100/120 569/1101/120
f 567/1102/120 568/1103/120 569/1104/120
f 572/1105/120 571/1106/120 570/1107/120
f 572/1108/120 570/1109/120 571/1110/120
f 575/1111/304 573/1112/304 574/1113/304
f 575/1114/120 577/1115/120 576/1116/120
f 575/1117/120 576/1118/120 577/1119/120
f 578/1120/120 579/1121/120 580/1122/120
f 579/1123/120 578/1124/120 580/1125/120
f 582/1126/120 581/1127/120 583/1128/120
f 581/1129/120 582/1130/120 583/1131/120
f 584/1132/120 586/1133/120 585/1134/120
f 586/1135/120 584/1136/120 585/1137/120
f 589/1138/139 588/1139/139 587/1140/139
f 587/1141/139 588/1142/139 589/1143/139
f 591/1144/120 590/1145/120 592/1146/120
f 591/1147/120 592/1148/120 590/1149/120
f 591/1150/187 593/1151/187 594/1152/187
f 597/1153/120 595/1154/120 596/1155/120
f 595/1156/120 597/1157/120 596/1158/120
f 600/1159/120 599/1160/120 598/1161/120
f 599/1162/120 600/1163/120 598/1164/120
f 602/1165/120 601/1166/120 603/1167/120
f 601/1168/120 602/1169/120 603/1170/120
f 605/1171/140 606/1172/140 604/1173/140
f 604/1174/140 606/1175/140 605/1176/140
f 607/1177/120 608/1178/120 609/1179/120
f 607/1180/120 609/1181/120 608/1182/120
f 612/1183/120 611/1184/135 610/1185/135
f 611/1186/135 612/1187/120 610/1188/135
f 615/1189/120 614/1190/120 613/1191/120
f 614/1192/120 615/1193/120 613/1194/120
f 617/1195/120 618/1196/120 616/1197/120
f 618/1198/120 617/1199/120 616/1200/120
f 620/1201/120 619/1202/120 621/1203/120
f 619/1204/120 620/1205/120 621/1206/120
f 622/1207/120 623/1208/120 624/1209/120
f 622/1210/120 624/1211/120 623/1212/120
f 625/1213/120 626/1214/120 627/1215/120
f 625/1216/120 627/1217/120 626/1218/120
f 628/1219/120 630/1220/120 629/1221/120
f 628/1222/120 629/1223/120 630/1224/120
f 631/1225/305 632/1226/306 633/1227/307
f 632/1228/306 631/1229/305 633/1230/307
f 634/1231/120 635/1232/120 636/1233/120
f 635/1234/120 634/1235/120 636/1236/120
f 638/1237/140 639/1238/120 637/1239/140
f 639/1240/120 638/1241/140 637/1242/140
f 640/1243/59 641/1244/59 642/1245/59
f 641/1246/59 640/1247/59 642/1248/59
f 1/1249/308 643/1250/309 2/1251/310
f 3/1252/311 643/1253/309 1/1254/308
f 643/1255/309 4/1256/312 2/1257/310
f 3/1252/311 5/1258/313 643/1253/309
f 2/1259/310 4/1260/312 5/1261/313
f 2/1259/310 5/1261/313 3/1262/311
f 6/1263/314 645/1264/315 7/1265/316
f 8/1266/317 7/1267/316 644/1268/318
f 8/1269/317 644/1270/318 645/1271/315
f 8/1269/317 645/1271/315 6/1272/314
f 645/1273/315 9/1274/319 7/1275/316
f 7/1267/316 9/1276/319 644/1268/318
f 13/1277/314 16/1278/315 14/1279/316
f 15/1280/317 14/1281/316 18/1282/318
f 15/1283/317 18/1284/318 16/1285/315
f 15/1283/317 16/1285/315 13/1286/314
f 16/1287/315 17/1288/319 14/1289/316
f 14/1281/316 17/1290/319 18/1282/318
f 646/1291/320 648/1292/321 647/1293/322
f 648/1294/321 646/1295/320 647/1296/322
f 33/1297/323 653/1298/324 34/1299/325
f 35/1300/326 653/1301/324 33/1302/323
f 34/1303/325 653/1304/324 36/1305/327
f 34/1306/325 37/1307/328 35/1308/326
f 34/1306/325 36/1309/327 37/1307/328
f 35/1300/326 37/1310/328 653/1301/324
f 40/1311/329 654/1312/309 38/1313/330
f 38/1314/330 654/1315/309 39/1316/331
f 654/1317/309 41/1318/332 39/1319/331
f 39/1320/331 42/1321/313 40/1322/329
f 39/1320/331 41/1323/332 42/1321/313
f 40/1311/329 42/1324/313 654/1312/309
f 655/1325/120 656/1326/120 657/1327/120
f 656/1328/120 655/1329/120 657/1330/120
f 658/1331/120 659/1332/120 660/1333/120
f 659/1334/120 658/1335/120 660/1336/120
f 662/1337/333 663/1338/334 661/1339/335
f 663/1340/334 662/1341/333 661/1342/335
f 664/1343/120 666/1344/120 665/1345/120
f 664/1346/120 665/1347/120 666/1348/120
f 667/1349/336 669/1350/337 668/1351/338
f 669/1352/337 667/1353/336 668/1354/338
f 670/1355/339 672/1356/340 671/1357/339
f 671/1358/339 672/1359/340 670/1360/339
f 674/1361/341 675/1362/120 673/1363/342
f 675/1364/120 674/1365/341 673/1366/342
f 677/1367/343 676/1368/344 678/1369/343
f 676/1370/344 677/1371/343 678/1372/343
f 681/1373/345 679/1374/346 680/1375/120
f 679/1376/346 681/1377/345 680/1378/120
f 683/1379/347 684/1380/348 682/1381/349
f 684/1382/348 683/1383/347 682/1384/349
f 685/1385/346 687/1386/120 686/1387/350
f 687/1388/120 685/1389/346 686/1390/350
f 689/1391/351 688/1392/352 690/1393/353
f 688/1394/352 689/1395/351 690/1396/353
f 691/1397/120 693/1398/120 692/1399/120
f 691/1400/120 692/1401/120 693/1402/120
f 695/1403/354 696/1404/355 694/1405/355
f 694/1406/355 696/1407/355 695/1408/354
f 698/1409/356 699/1410/357 697/1411/357
f 697/1412/357 699/1413/357 698/1414/356
f 56/1/358 57/1415/358 58/2/358
f 61/4/359 62/1416/359 63/5/359
f 64/7/360 65/1417/360 66/8/360
f 72/10/4 73/67/151 74/11/5
f 77/13/361 78/1418/361 79/14/361
f 82/16/362 83/245/153 84/17/159
f 88/19/363 89/70/162 90/20/161
f 93/22/364 94/1419/364 95/23/364
f 99/25/365 96/237/144 100/26/166
f 103/28/366 104/1420/366 105/29/366
f 287/129/367 288/1421/367 289/1422/367
f 287/129/368 289/1422/368 285/1423/368
f 287/129/369 285/1423/369 286/127/369
f 303/50/370 298/33/370 302/32/370
f 298/33/371 299/101/371 301/31/371
f 299/101/372 300/100/372 301/31/372
f 309/636/373 310/1424/373 308/35/373
f 310/1424/206 306/36/206 308/35/206
f 318/615/374 313/99/374 314/37/374
f 314/37/375 315/162/375 316/38/375
f 317/39/376 318/615/376 314/37/376
f 411/1425/377 407/80/377 408/82/377
f 408/82/378 409/1426/378 410/1427/378
f 408/82/379 410/1427/379 411/1425/379
f 419/42/244 415/1428/246 416/1429/380
f 416/1429/381 417/1430/381 419/42/381
f 417/1430/382 418/40/382 419/42/382
f 427/45/383 428/1431/383 429/1432/383
f 427/45/384 429/1432/384 424/1433/384
f 427/45/385 424/1433/385 425/43/385
f 432/1434/257 430/152/386 412/1435/84
f 297/49/387 298/33/387 303/50/387
f 59/52/388 64/1436/388 67/53/388
f 81/58/389 80/1437/389 72/10/389
f 82/16/29 85/18/29 68/59/29
f 101/27/390 58/211/390 57/62/390
f 68/64/71 69/1438/72 97/65/391
f 95/23/38 94/1419/164 73/67/39
f 109/68/392 83/245/392 82/16/392
f 105/29/43 104/1420/158 89/70/44
f 300/71/393 282/120/75 283/72/74
f 310/74/394 291/95/394 292/75/394
f 403/107/65 415/1439/395 404/105/63
f 425/77/396 424/1440/396 406/78/396
f 407/80/397 414/41/114 413/81/255
f 434/86/398 424/1441/398 429/87/398
f 67/1442/399 66/204/399 52/203/399
f 51/89/400 59/1443/400 58/90/400
f 81/92/401 65/1444/401 64/93/401
f 76/1445/402 79/240/402 71/239/402
f 294/48/403 293/47/404 308/97/405
f 313/99/59 318/615/59 300/100/59
f 316/38/215 315/162/216 305/630/214
f 404/105/406 409/1446/406 408/106/406
f 411/108/407 416/1447/407 415/109/407
f 84/17/408 77/1448/408 76/111/408
f 90/20/409 86/1449/409 87/112/410
f 101/27/411 100/26/411 109/113/411
f 68/115/412 96/237/412 99/25/412
f 109/117/41 108/1450/42 106/118/413
f 295/122/414 314/37/414 313/99/414
f 281/124/135 285/1451/135 289/125/135
f 317/638/219 316/1452/415 311/639/220
f 417/825/261 416/1453/416 411/826/262
f 54/139/417 78/1454/417 77/140/417
f 102/30/6 75/12/6 74/11/6
f 86/142/418 60/1455/418 63/143/418
f 73/244/151 98/1456/419 97/231/152
f 287/145/420 307/34/420 306/36/420
f 286/1457/421 285/1458/422 296/620/423
f 409/151/424 412/1435/424 430/152/424
f 427/154/425 436/137/90 437/155/270
f 70/157/29 68/115/29 66/158/29
f 290/96/426 318/1459/426 317/1460/426
f 284/121/427 282/120/428 289/160/429
f 315/162/430 314/37/430 312/163/430
f 422/1461/431 418/40/432 417/1430/433
f 62/1462/434 61/198/434 53/201/434
f 51/1463/126 50/193/435 53/200/130
f 93/22/436 92/24/436 88/19/436
f 89/259/162 107/1464/437 106/257/163
f 280/613/80 299/101/438 298/33/191
f 296/628/423 302/32/439 301/31/440
f 426/170/113 425/77/252 414/171/114
f 429/173/441 428/841/441 438/174/441
f 78/176/442 63/1465/442 62/177/442
f 110/114/29 109/113/29 61/179/29
f 297/1466/443 286/1467/421 296/1468/423
f 434/86/269 433/88/274 423/1469/107
f 64/219/444 59/1470/444 58/211/444
f 58/211/445 61/179/445 60/180/445
f 63/212/29 64/219/29 58/211/29
f 60/6/446 86/213/137 56/215/138
f 60/6/447 56/215/447 58/1471/447
f 77/220/448 66/158/448 65/159/448
f 77/220/449 65/159/449 64/219/449
f 63/212/450 78/1472/450 77/220/450
f 65/1417/451 81/238/146 79/240/147
f 65/1417/452 79/240/452 77/1473/452
f 68/1474/140 74/1475/140 65/224/140
f 74/1475/453 75/225/453 65/224/453
f 95/1476/38 72/1477/40 75/1478/59
f 75/1478/454 74/1479/454 68/227/454
f 95/1476/455 75/1478/456 68/227/457
f 100/1480/458 93/1481/458 101/229/458
f 101/229/459 93/1481/460 95/1476/455
f 95/1476/455 68/227/457 101/229/459
f 68/232/135 103/233/135 74/230/135
f 103/233/461 68/232/461 85/234/461
f 84/242/149 71/241/148 103/1482/462
f 71/241/148 105/1483/463 103/1482/462
f 84/250/140 103/1484/140 105/248/140
f 105/248/464 109/1485/465 82/249/466
f 99/1486/140 57/253/140 100/255/140
f 57/253/140 95/1487/140 93/254/140
f 93/265/467 91/1488/467 90/256/467
f 109/258/128 93/265/128 90/256/128
f 105/248/464 88/1489/468 109/1485/465
f 88/1489/469 90/1490/469 109/1485/469
f 280/611/470 289/1491/471 288/146/472
f 283/72/135 281/608/78 298/610/191
f 298/610/473 299/1492/473 300/71/473
f 287/145/203 296/620/202 285/1458/474
f 317/626/475 308/97/476 290/625/209
f 308/97/14 307/98/14 310/623/14
f 290/625/209 308/97/476 310/623/207
f 295/46/128 308/97/128 317/626/128
f 317/626/477 318/1493/477 313/627/477
f 297/49/443 296/628/423 301/31/440
f 301/31/478 302/32/478 303/50/478
f 310/1494/479 312/1495/479 308/102/479
f 312/1495/480 315/1496/480 317/638/480
f 308/102/481 312/1495/481 317/638/481
f 315/1496/482 316/1452/482 317/638/482
f 427/154/483 432/136/483 406/814/483
f 406/814/484 425/1497/484 426/815/484
f 408/821/485 413/1498/255 412/822/256
f 422/1499/486 410/1500/486 409/1501/486
f 409/1501/487 408/1502/487 407/1503/487
f 409/1501/488 407/1503/488 422/1499/488
f 421/828/68 416/831/489 418/829/264
f 419/1504/490 403/833/490 418/172/490
f 432/133/86 427/149/491 420/134/87
f 427/154/492 432/136/110 433/1505/109
f 429/1506/493 427/154/493 433/1505/493
l 25 649
l 30 31
l 10 11
l 19 20
l 22 23
l 27 651
l 31 32
l 11 12
l 20 21
l 23 24
l 649 650
l 26 27
l 652 29
l 650 25
l 32 30
l 652 28
l 12 10
l 21 19
l 24 22
l 651 26
l 29 28
