# Blender 4.5.0
# www.blender.org
mtllib residential_014.lod2.mtl
o residential_014
v -2.309084 0.949269 -3.432164
v -2.332134 0.922758 -3.462566
v -2.515937 0.579884 -3.453196
v -2.369333 0.385323 -3.410661
v -2.019258 0.928453 -3.410661
v -2.161642 0.844471 -3.457573
v -1.872655 0.733892 -3.453196
v -2.056457 0.391019 -3.462566
v -2.079507 0.364507 -3.432164
v -1.869986 0.928453 -3.410661
v -2.012371 0.844470 -3.457572
v -1.814855 0.712225 -3.439675
v -1.930235 0.364508 -3.432165
v -1.907185 0.391019 -3.462566
v -1.777620 0.601551 -3.439676
v -1.662240 0.949269 -3.432164
v -1.685290 0.922757 -3.462566
v -1.580104 0.469306 -3.457573
v -1.719820 0.579884 -3.453196
v -1.512968 0.949269 -3.432164
v -1.536018 0.922758 -3.462566
v -1.379562 0.601551 -3.439675
v -1.264181 0.949269 -3.432164
v -1.287232 0.922758 -3.462566
v -1.182047 0.469306 -3.457573
v 1.172095 0.844470 -3.457573
v 1.369610 0.712225 -3.439675
v 1.314479 0.928453 -3.410661
v 1.277280 0.391019 -3.462566
v 1.254230 0.364507 -3.432164
v 1.563265 0.928453 -3.410661
v 1.420882 0.844470 -3.457573
v 1.709869 0.733892 -3.453196
v 1.526067 0.391019 -3.462566
v 1.503016 0.364507 -3.432164
v 1.719352 0.956029 -3.436306
v 1.767669 0.712225 -3.439675
v 1.675339 0.391019 -3.462566
v 1.652288 0.364508 -3.432164
v 1.920284 0.949269 -3.432164
v 1.897233 0.922758 -3.462566
v 1.804904 0.601551 -3.439675
v 1.862703 0.579884 -3.453196
v 2.069556 0.949269 -3.432164
v 2.046505 0.922757 -3.462566
v 2.202962 0.601551 -3.439676
v 2.318342 0.949269 -3.432164
v 2.295292 0.922757 -3.462566
v 1.199139 0.073184 -3.617980
v 3.625000 -0.000000 3.625000
v -3.625000 0.011924 3.625000
v 3.183381 0.707348 0.781399
v -0.999740 6.045957 -2.537646
v -3.183262 0.707348 0.982491
v 2.905825 0.075807 2.994599
v 2.905825 0.390252 -2.567928
v 2.846690 6.245948 -2.818403
v 2.851092 6.243546 -2.814300
v -2.848963 6.245661 -2.816440
v 2.848963 6.245661 2.740313
v -2.851092 6.243546 2.738173
v -2.846690 6.245948 2.742276
v 2.851092 6.126416 -2.818529
v 2.853338 6.484875 -2.818533
v 2.851092 6.126692 -2.814300
v 2.855281 6.122445 -2.818533
v 2.846902 6.122445 2.742406
v 2.851092 6.126692 2.742406
v 2.846902 6.130941 2.742406
v 2.854106 6.126692 2.741759
v -2.854106 6.126692 -2.817886
v -2.846902 6.122445 -2.818533
v -2.851092 6.126692 -2.818533
v -2.846902 6.130941 -2.818533
v -3.010315 6.126692 -2.818533
v -3.015334 6.126692 -2.814300
v -3.006126 6.126692 -2.814300
v -2.853087 6.488035 2.740731
v -3.006126 6.490000 -2.818533
v 0.521664 5.682649 -2.673516
v -3.010315 6.485751 -2.818533
v -3.006126 6.490000 -2.814300
v -2.853412 6.130941 2.742406
v -2.851092 6.126692 2.738173
v -2.855281 6.122445 2.742406
v -2.851092 6.126416 2.742402
v -2.855281 6.485751 -2.818533
v -2.852549 6.488942 -2.814274
v -3.006126 6.126692 2.738173
v -3.045583 6.099487 2.751250
v -3.010315 6.130941 2.742406
v -3.014504 6.126692 2.746639
v 2.852945 6.489872 2.738003
v 2.855281 6.485751 2.742406
v 3.006126 6.490000 2.738173
v -0.855544 4.976216 3.093507
v 3.010315 6.485751 2.742406
v 3.014504 6.490000 2.746639
v 3.006126 6.490000 -2.814300
v 3.010315 6.484910 -2.818533
v 3.005296 6.490000 -2.818533
v 3.045583 6.099487 -2.827377
v -3.010315 6.131815 -2.977158
v -3.005982 6.126834 -2.977185
v 3.006126 6.126692 -2.818533
v 3.010315 6.130941 -2.818533
v 3.006126 6.126692 -2.814300
v -3.006126 6.490000 2.738173
v -3.010315 6.484910 2.742406
v -3.005296 6.490000 2.742406
v 3.010315 6.131815 2.901031
v 3.005982 6.126834 2.901058
v 3.015334 6.126692 2.738173
v 3.010315 6.126692 2.742406
v 3.006126 6.126692 2.738173
v -0.984484 6.051727 -2.605126
v -2.299504 6.051722 -2.619639
v -0.999756 0.394499 -2.537503
v -0.839657 2.274950 -2.597251
v -0.839655 0.754444 -2.607400
v -2.348789 0.788083 -2.623190
v -2.240325 2.212342 -2.693977
v -0.944141 2.212343 -2.691689
v -1.573575 0.788083 -2.699956
v -2.237101 2.255832 -2.755244
v -2.241054 2.255832 -2.690758
v -2.239077 0.768834 -2.722999
v -1.590256 2.255832 -2.755244
v -1.594210 2.255832 -2.690758
v -1.592233 0.768834 -2.722999
v -0.943412 2.255832 -2.755244
v -0.945388 0.768834 -2.722999
v -0.947365 2.255832 -2.690758
v -2.361262 0.743135 -2.864018
v -0.875728 0.751963 -2.673515
v -2.361262 0.752295 -2.622210
v -0.542354 2.378354 -2.728824
v -2.365898 2.301158 -2.948080
v -2.365898 2.307619 -2.538146
v 0.136832 1.348408 -2.809452
v 2.195538 2.274950 -2.597251
v 2.195540 0.754444 -2.607401
v 1.424321 0.788083 -2.699942
v 0.794869 2.212343 -2.693977
v 2.091053 2.212342 -2.691689
v 0.796117 0.768834 -2.722999
v 0.794139 2.255832 -2.690758
v 0.798093 2.255832 -2.755244
v 1.444938 2.255832 -2.755244
v 1.440984 2.255832 -2.690758
v 1.442962 0.768834 -2.722999
v 2.091782 2.255832 -2.755244
v 2.089806 0.768833 -2.722999
v 2.087828 2.255832 -2.690759
v 0.726456 0.751963 -2.673515
v 2.211990 0.752296 -2.864018
v 2.211990 0.743135 -2.622210
v 0.537084 2.304384 -2.743111
v 2.216626 2.301158 -2.538146
v 2.216626 2.307618 -2.948080
v -2.928839 0.731540 1.009741
v -3.022326 1.918375 1.501773
v -2.922614 0.731537 2.031476
v -3.014145 0.817031 1.949168
v -3.016437 0.817031 1.092049
v -3.077053 0.783658 1.949984
v -3.045146 1.937624 1.947986
v -3.013236 0.783658 1.945989
v -3.077053 1.922800 1.518610
v -3.013236 1.922799 1.522606
v -3.045146 0.768834 1.520608
v -3.013236 0.783658 1.091233
v -3.045146 1.937624 1.093230
v -3.077053 0.783658 1.095229
v -2.999640 0.752406 1.022839
v -2.943414 0.752044 2.071414
v -3.186679 0.743386 2.071414
v -2.928838 0.731539 -1.906484
v -2.922614 0.731537 -0.884749
v -3.022326 1.918374 -1.414452
v -3.016436 0.817030 -1.824176
v -3.014145 0.817030 -0.967056
v -3.045146 1.937624 -0.968239
v -3.077053 0.783658 -0.966240
v -3.013236 0.783658 -0.970236
v -3.045146 1.937624 -1.395617
v -3.013236 0.783658 -1.397614
v -3.077053 0.783658 -1.393618
v -3.045146 1.937624 -1.822994
v -3.077053 0.783658 -1.820995
v -3.013236 0.783658 -1.824991
v -2.999640 0.752406 -1.893385
v -2.943412 0.752044 -0.844809
v -3.186681 0.743386 -0.844809
v 2.048033 0.731536 3.015800
v 1.036917 0.731536 3.022090
v 1.523835 1.918375 3.116557
v 1.118369 0.817031 3.110606
v 1.966582 0.817031 3.108290
v 1.965413 1.937624 3.139614
v 1.967389 0.783659 3.171860
v 1.963435 0.783658 3.107373
v 1.542476 1.937624 3.139614
v 1.544452 0.783659 3.171860
v 1.540498 0.783658 3.107373
v 1.121515 0.783659 3.171860
v 1.119539 1.937624 3.139614
v 1.117561 0.783658 3.107373
v 1.049878 0.752406 3.093633
v 2.087558 0.743387 3.282639
v 2.087558 0.752046 3.036819
v -1.849005 0.731536 3.022090
v -1.362086 1.918375 3.116557
v -0.837889 0.731536 3.015800
v -1.767552 0.817031 3.110606
v -0.919340 0.817031 3.108290
v -0.920509 1.937624 3.139614
v -0.918533 0.783659 3.171860
v -0.922487 0.783658 3.107373
v -1.343446 1.937624 3.139614
v -1.341470 0.783659 3.171860
v -1.345424 0.783658 3.107373
v -1.766382 1.937624 3.139614
v -1.764406 0.783659 3.171860
v -1.768360 0.783658 3.107373
v -1.836043 0.752406 3.093633
v -0.798363 0.752046 3.036818
v -0.798363 0.743387 3.282640
v 3.022326 0.788083 -1.615571
v 2.922614 1.964829 -1.085868
v 2.928838 1.964826 -2.107603
v 3.022326 1.918374 -1.577899
v 3.016437 0.817030 -1.168175
v 3.014145 0.817030 -2.025295
v 3.013236 1.922799 -2.026110
v 3.045146 0.768834 -2.024113
v 3.077053 1.922799 -2.022115
v 3.045146 1.937624 -1.596734
v 3.077053 0.783658 -1.598733
v 3.013236 0.783658 -1.594737
v 3.077053 1.922799 -1.167359
v 3.045146 0.768834 -1.169358
v 3.013236 1.922799 -1.171355
v 2.999640 0.752406 -1.098965
v 2.943414 0.752044 -2.147541
v 3.186679 0.743385 -2.147541
v 2.928838 1.964826 0.808621
v 2.922614 1.964829 1.830357
v 3.022326 0.788083 1.300654
v 3.022326 1.918375 1.338325
v 3.014145 0.817031 0.890930
v 3.016437 0.817031 1.748049
v 3.045146 1.937624 0.892112
v 3.077053 0.783658 0.890114
v 3.013236 0.783658 0.894109
v 3.045146 1.937624 1.319490
v 3.077053 0.783658 1.317492
v 3.013236 0.783658 1.321487
v 3.077053 0.783658 1.744869
v 3.045146 1.937624 1.746867
v 3.013236 0.783658 1.748865
v 3.186681 0.752045 1.870296
v 2.999778 0.752424 0.821720
v 2.943412 0.743387 1.870296
v -2.691580 3.342061 -2.561254
v -2.691580 3.330508 -3.447881
v -0.621966 3.433955 -2.858737
v -2.610336 3.400186 -3.337324
v -2.643902 3.400250 -3.334672
v -2.626366 4.450622 -3.336415
v -1.953934 3.400250 -3.334672
v -1.920368 3.400186 -3.337324
v -1.936398 4.450622 -3.336415
v -1.230400 3.400186 -3.337324
v -1.246431 4.450622 -3.336415
v -1.263967 3.400250 -3.334672
v -0.573999 3.400251 -3.334672
v -0.556463 4.450622 -3.336415
v -0.540433 3.400186 -3.337324
v -2.639741 3.522451 -3.335492
v -0.554550 3.532186 -3.356691
v -0.554589 3.512754 -3.316489
v -2.624504 4.441899 -3.312458
v -2.627184 4.432193 -3.320617
v -2.618478 4.440725 -3.362659
v -2.627184 4.450239 -3.351762
v -2.627184 4.429740 -3.351709
v -2.627184 4.413886 -3.352210
v -2.644739 4.430884 -3.336386
v -2.627299 4.418067 -3.336414
v -2.629598 4.416010 -3.332748
v -2.627184 4.413229 -3.336414
v -0.558513 4.450603 -3.355133
v -0.562833 4.430162 -3.355682
v -0.557281 4.433136 -3.353838
v -0.566872 4.438025 -3.309869
v -0.557281 4.433136 -3.318989
v -0.557281 4.448536 -3.318923
v -2.626417 4.441296 -2.599699
v -2.643378 4.455076 -3.331412
v -2.627184 4.459704 -3.333622
v -2.622995 4.462433 -3.332748
v -2.622995 4.462433 -3.340079
v -2.629122 4.462433 -3.330764
v -2.623557 4.462433 -3.332180
v -2.627184 4.458708 -3.336414
v -2.604992 4.442519 -3.335344
v -0.556370 4.440813 -2.599697
v -0.553093 4.416010 -3.332748
v -0.553093 4.416010 -3.340079
v -0.557281 4.418135 -3.334720
v -0.576782 4.427467 -3.333876
v -0.557281 4.418135 -3.338107
v -0.534876 4.441450 -3.335723
v -0.574590 4.448536 -3.336414
v -0.561470 4.462433 -3.332748
v -0.552814 4.469788 -3.340928
v -0.560909 4.462433 -3.332180
v -0.553654 4.462433 -3.332180
v -0.557281 4.458708 -3.336414
v -0.561470 4.462433 -3.340079
v -2.618643 4.109881 -3.369928
v -0.561470 3.544071 -3.340079
v -2.618642 3.470958 -3.363239
v -1.573593 5.652373 -2.699943
v -0.647043 3.450828 -2.609232
v -2.537423 3.450831 -2.595414
v -1.831712 3.422066 -2.707616
v -2.449249 5.613330 -2.693986
v -0.735217 5.613330 -2.691680
v -2.448058 3.493644 -2.723000
v -2.450036 5.656799 -2.690759
v -2.446082 5.656799 -2.755244
v -1.592233 3.493644 -2.723000
v -1.590256 5.656799 -2.755245
v -1.594210 5.656799 -2.690759
v -0.736407 3.493644 -2.723000
v -0.738385 5.656799 -2.690759
v -0.734431 5.656799 -2.755245
v -0.574696 3.427190 -2.614367
v -2.570212 3.477232 -2.623253
v -2.570212 3.467818 -2.862971
v -0.594580 5.091990 -3.257825
v -0.626583 3.432158 -2.863067
v -0.599595 5.091990 -2.610527
v -1.746480 4.143846 -2.771640
v -2.562500 3.511095 -2.858737
v -1.746480 3.497545 -3.217383
v -1.933999 4.093709 -3.246785
v -1.795492 3.713983 -3.243407
v -2.240964 3.696280 -3.250168
v -1.793714 3.676886 -3.276078
v -2.220443 3.675739 -3.289930
v -2.220443 3.678033 -3.262226
v -2.220444 3.743355 -3.289931
v -2.220444 3.745648 -3.262225
v -1.793712 3.744502 -3.276078
v -2.220443 3.810969 -3.289931
v -2.220443 3.813263 -3.262226
v -1.793713 3.812116 -3.276078
v -1.793714 3.879733 -3.276078
v -2.220443 3.880880 -3.262226
v -2.220443 3.878586 -3.289930
v -2.220444 3.946202 -3.289931
v -1.793712 3.947348 -3.276078
v -2.220444 3.948495 -3.262225
v -2.220443 4.016112 -3.262226
v -1.793713 4.014965 -3.276078
v -2.220444 4.013818 -3.289931
v -2.458009 4.045334 -3.240884
v -2.502949 3.652905 -3.239362
v -2.413069 3.652905 -3.242403
v -2.419873 3.460598 -3.294939
v -2.467960 3.457387 -2.674169
v -2.516049 3.454177 -3.294938
v -1.822785 3.460597 -3.294939
v -1.870874 3.457387 -2.674170
v -1.918962 3.454178 -3.294938
v -2.090965 5.435106 -3.194070
v -2.091070 5.405312 -3.196450
v -0.887848 5.419525 -3.195630
v -2.090883 5.398897 -2.635011
v -2.087720 5.441429 -2.634992
v -2.089806 5.419239 -3.267967
v -0.893545 5.441429 -2.634992
v -0.895631 5.419239 -3.267967
v -0.896708 5.398897 -2.635011
v 2.542307 3.342060 -3.447880
v 0.472694 3.433857 -2.858705
v 2.542307 3.330509 -2.561255
v 0.424858 3.400186 -3.337324
v 0.391292 3.400251 -3.334672
v 0.408828 4.450622 -3.336415
v 1.114826 3.400186 -3.337324
v 1.098796 4.450622 -3.336415
v 1.081259 3.400250 -3.334672
v 1.771226 3.400250 -3.334672
v 1.788763 4.450622 -3.336415
v 1.804793 3.400186 -3.337324
v 2.461195 3.400250 -3.334672
v 2.494760 3.400186 -3.337324
v 2.478730 4.450622 -3.336415
v 0.395453 3.522451 -3.335492
v 2.480605 3.512754 -3.316490
v 2.480644 3.532185 -3.356691
v 0.418324 4.445709 -3.304706
v 0.408010 4.432193 -3.320617
v 2.474154 4.451557 -3.355618
v 2.477912 4.448536 -3.353904
v 0.405704 4.421679 -3.340200
v 0.408010 4.413229 -3.336414
v 0.403821 4.416010 -3.340079
v 0.396004 4.416807 -3.334123
v 0.427832 4.448704 -2.616618
v 2.480330 4.419714 -3.340636
v 0.411934 4.431945 -3.355923
v 0.414335 4.445755 -3.365098
v 0.408037 4.460376 -3.321469
v 0.411638 4.462433 -3.332180
v 0.408010 4.458708 -3.336414
v 0.404381 4.462433 -3.332465
v 0.408010 4.460142 -3.333874
v 2.477087 4.442578 -3.313765
v 0.403261 4.436026 -2.601628
v 0.385615 4.439746 -3.334995
v 2.458609 4.430316 -2.609810
v 2.482379 4.469366 -3.332628
v 2.473722 4.462433 -3.340079
v 2.473722 4.462433 -3.332748
v 2.479749 4.464086 -3.336414
v 2.474285 4.466682 -3.341461
v 2.481539 4.466682 -3.341461
v 2.473722 4.420259 -3.332748
v 2.478498 4.419509 -3.332493
v 2.477912 4.423040 -3.336414
v 2.456649 4.436985 -3.335411
v 2.461718 4.455076 -3.332180
v 2.481793 4.457657 -2.604166
v 2.504029 4.445562 -3.326772
v 2.495220 4.448536 -3.336414
v 2.474285 4.462434 -2.616618
v 2.469371 4.109881 -3.363239
v 0.412198 3.544071 -3.340079
v 2.469370 3.470959 -3.369928
v 0.497771 3.450828 -2.595414
v 1.461601 5.652373 -2.699943
v 2.388152 3.450828 -2.609232
v 0.585945 5.613330 -2.693986
v 1.203481 3.422066 -2.707616
v 2.299977 5.613329 -2.691680
v 0.589112 5.656799 -2.755245
v 0.585159 5.656799 -2.690759
v 0.587136 3.493644 -2.723000
v 1.440984 5.656799 -2.690759
v 1.442962 3.493644 -2.723000
v 1.444938 5.656799 -2.755245
v 2.300762 5.656799 -2.755244
v 2.298786 3.493644 -2.723000
v 2.296808 5.656799 -2.690759
v 2.420938 3.477232 -2.862969
v 0.397516 3.472525 -2.743113
v 2.420938 3.467818 -2.623255
v 2.408610 3.432158 -2.863067
v 2.440616 5.091990 -3.257824
v 2.435601 5.091990 -2.610528
v 0.442840 4.143845 -3.217383
v 0.476883 3.436406 -2.863784
v 1.252272 3.833002 -3.235854
v 1.101194 4.093709 -3.246785
v 1.239702 3.713983 -3.243407
v 0.794229 3.696280 -3.250168
v 0.808520 3.676886 -3.276078
v 1.235249 3.675739 -3.262226
v 1.235249 3.678033 -3.289930
v 0.808519 3.744502 -3.276078
v 1.235250 3.758404 -3.274935
v 1.235250 3.730599 -3.277221
v 1.235249 3.813263 -3.289931
v 0.808519 3.812116 -3.276078
v 1.235250 3.810969 -3.262226
v 1.235249 3.880880 -3.289930
v 0.808520 3.879733 -3.276078
v 1.235249 3.878586 -3.262226
v 1.235250 3.946202 -3.262225
v 1.235250 3.948495 -3.289931
v 0.808519 3.947348 -3.276078
v 0.808519 4.014965 -3.276078
v 1.235250 4.013818 -3.262226
v 1.235250 4.016112 -3.289931
v 0.622124 3.652905 -3.242403
v 0.577184 4.045334 -3.240884
v 0.532245 3.652905 -3.239362
v 0.615321 3.460597 -3.294939
v 0.567233 3.457387 -2.674170
v 0.519144 3.454178 -3.294939
v 1.116232 3.454178 -3.294939
v 1.212409 3.460597 -3.294939
v 1.164320 3.457387 -2.674170
v 0.937606 5.419893 -3.194996
v 2.140827 5.413498 -3.182321
v 2.140722 5.426327 -3.209224
v 0.944311 5.398898 -2.635011
v 0.947474 5.441429 -2.634992
v 0.945388 5.419239 -3.267967
v 2.141648 5.441429 -2.634992
v 2.138485 5.398897 -2.635011
v 2.139562 5.419239 -3.267967
v -2.922614 3.759104 2.031475
v -3.022326 4.945941 1.501772
v -2.928839 3.759106 1.009740
v -3.014145 3.844597 1.949168
v -3.016436 3.844597 1.092049
v -3.077053 4.950366 1.945988
v -3.013236 4.950366 1.949984
v -3.045146 3.796401 1.947987
v -3.045146 3.796401 1.520608
v -3.013236 4.950366 1.522606
v -3.077053 4.950366 1.518610
v -3.045146 3.796401 1.093231
v -3.013236 4.950366 1.095228
v -3.077053 4.950366 1.091233
v -2.999640 3.779973 1.022839
v -2.943416 3.779611 2.071414
v -3.186678 3.770952 2.071414
v -2.922614 3.759104 -0.884749
v -2.928839 3.759106 -1.906484
v -3.022326 4.945941 -1.414452
v -3.014145 3.844597 -0.967056
v -3.016436 3.844597 -1.824176
v -3.077053 4.950366 -0.970237
v -3.045146 3.796401 -0.968238
v -3.013236 4.950366 -0.966241
v -3.077053 4.950366 -1.397614
v -3.045146 3.796401 -1.395616
v -3.013236 4.950366 -1.393619
v -3.045146 3.796400 -1.822993
v -3.013236 4.950366 -1.820996
v -3.077054 4.950366 -1.824992
v -2.999640 3.779972 -1.893385
v -2.943414 3.779611 -0.844809
v -3.186679 3.770952 -0.844809
v 1.036917 3.759103 3.022090
v 2.048033 3.759103 3.015800
v 1.523835 4.945941 3.116557
v 1.966581 3.844598 3.108290
v 1.118369 3.844598 3.110606
v 1.963436 4.950367 3.171860
v 1.967390 4.950366 3.107372
v 1.965412 3.796401 3.139614
v 1.542475 3.796401 3.139614
v 1.540498 4.950366 3.171860
v 1.544452 4.950366 3.107372
v 1.119538 3.796401 3.139614
v 1.117562 4.950366 3.171860
v 1.121516 4.950366 3.107372
v 1.049878 3.779973 3.093633
v 2.087558 3.779613 3.036821
v 2.087558 3.770953 3.282637
v -0.837889 3.759103 3.015800
v -1.849005 3.759103 3.022090
v -1.362086 4.945941 3.116557
v -0.919340 3.844598 3.108290
v -1.767552 3.844598 3.110606
v -0.920510 3.796401 3.139614
v -0.918532 4.950366 3.107372
v -0.922486 4.950367 3.171860
v -1.345423 4.950366 3.171860
v -1.343447 3.796401 3.139614
v -1.341469 4.950366 3.107372
v -1.764406 4.950366 3.107372
v -1.768360 4.950367 3.171860
v -1.766383 3.796401 3.139614
v -1.836043 3.779973 3.093633
v -0.798363 3.779612 3.036819
v -0.798363 3.770954 3.282639
v 2.928839 3.759106 -1.085867
v 3.022326 4.945941 -1.577899
v 2.922614 3.759104 -2.107602
v 3.014145 3.844597 -2.025295
v 3.016436 3.844597 -1.168175
v 3.077053 4.950366 -2.022115
v 3.013236 4.950366 -2.026111
v 3.045146 3.796400 -2.024113
v 3.077053 4.950366 -1.594737
v 3.013236 4.950366 -1.598732
v 3.045146 3.796401 -1.596735
v 3.077053 4.950366 -1.167359
v 3.045146 3.796401 -1.169358
v 3.013236 4.950366 -1.171355
v 3.186678 3.770952 -2.147541
v 2.999640 3.779973 -1.098966
v 2.943416 3.779611 -2.147541
v 2.928839 3.759107 1.830357
v 3.022326 4.945941 1.338325
v 2.922614 3.759104 0.808622
v 3.016436 3.844597 1.748049
v 3.014145 3.844597 0.890930
v 3.077053 4.950366 0.894110
v 3.045146 3.796401 0.892111
v 3.013236 4.950366 0.890114
v 3.045146 3.796401 1.319489
v 3.077053 4.950366 1.321487
v 3.013236 4.950366 1.317492
v 3.077053 4.950366 1.748865
v 3.013236 4.950366 1.744869
v 3.045146 3.796401 1.746866
v 3.186679 3.770952 0.768682
v 2.943414 3.779611 0.768683
v 2.999640 3.779973 1.817259
v -0.564476 2.384212 -2.668278
v 0.564476 2.384212 -2.657053
v -0.018424 0.182570 -2.762632
v -0.468668 2.304039 -2.754780
v 0.468667 2.304039 -2.751555
v -0.002007 2.306288 -2.753690
v -0.000000 0.164597 -2.783336
v 0.002007 2.306288 -2.812984
v -0.119418 0.928559 -2.843672
v -0.117315 1.355784 -2.878181
v -0.121519 1.355784 -2.809162
v 0.121519 1.355783 -2.878181
v 0.117316 1.355784 -2.809162
v 0.119417 0.928559 -2.843672
v -0.745535 2.505147 -3.401575
v -0.745536 2.512353 -2.567336
v 0.676635 2.337188 -2.942830
v -0.728944 0.142847 -2.716706
v -0.728944 0.131465 -3.372876
v 1.194175 0.076032 -3.300170
v 2.566928 1.181666 -3.483294
v 2.806847 0.071559 -3.269969
v 2.806857 1.181666 -3.269980
v 2.393968 0.860995 -3.535007
v 2.851092 1.095962 -3.450065
v 2.851092 0.803144 -3.625000
v -3.279968 0.702528 -3.205686
v -3.337400 0.731708 3.331437
v -3.330074 0.047200 3.331437
v 3.337400 0.047200 3.331437
v 3.330074 0.731707 3.331437
v 3.387507 0.702528 -3.205686
v -2.439227 0.452784 -3.457085
v -1.140469 0.476278 -3.445229
v -1.194175 0.076032 -3.614000
v -2.226949 0.469306 -3.457573
v -1.722488 0.385324 -3.410662
v -1.573217 0.385323 -3.410661
v -1.430833 0.469306 -3.457573
v -1.324431 0.385323 -3.410661
v 1.140469 0.476278 -3.468941
v 2.562500 0.076460 -3.486276
v 1.592376 0.904653 -3.422869
v 1.860035 0.385323 -3.410661
v 2.002419 0.469307 -3.457572
v 2.151690 0.469306 -3.457573
v 2.009306 0.385323 -3.410661
v 2.258093 0.385324 -3.410661
v 2.400477 0.469306 -3.457573
v -2.733105 0.033663 3.072806
v -2.762704 5.909800 3.099275
v -2.701822 5.896439 3.035337
v 2.740195 0.033663 3.072806
v 2.771478 5.896439 3.035337
v 2.710596 5.909800 3.099275
v 0.393367 0.394500 2.999682
v 0.414779 2.214182 3.064111
v -0.414779 2.214181 3.054225
v 0.965263 1.756904 3.142105
v 0.626969 1.252310 3.142105
v 0.965263 1.252310 2.976232
v -2.901636 0.390252 2.998832
v -1.666869 0.147038 3.017303
v -1.743992 0.792331 3.163036
v -1.715881 0.363476 2.991280
v -1.854387 0.743203 2.987903
v -2.161353 0.345774 2.984518
v -2.140832 0.312477 2.959752
v -2.140832 0.340282 2.957466
v -1.714101 0.326379 2.958609
v -2.140832 0.407897 2.957466
v -1.714101 0.393995 2.958609
v -2.140832 0.380093 2.959752
v -2.140832 0.447709 2.959752
v -2.140832 0.475513 2.957466
v -1.714101 0.461611 2.958609
v -2.140832 0.515324 2.959752
v -2.140832 0.543129 2.957466
v -1.714101 0.529226 2.958609
v -2.140832 0.610744 2.957466
v -2.140832 0.582940 2.959752
v -1.714101 0.596842 2.958609
v -1.714101 0.664458 2.958609
v -2.140832 0.678360 2.957466
v -2.140832 0.650555 2.959752
v -2.423337 0.668256 2.992284
v -2.333458 0.668256 2.995325
v -2.378398 0.275828 2.993805
v -2.388349 0.106881 2.919832
v -2.340260 0.103673 3.540603
v -2.436438 0.110089 3.540603
v -1.791262 0.106881 2.919832
v -1.743173 0.103672 3.540603
v -1.839350 0.110090 3.540602
vn 0.6875 0.7246 -0.0475
vn -0.2054 0.2028 -0.9574
vn 0.2054 -0.2026 0.9575
vn -0.4058 0.4001 -0.8218
vn -0.0915 0.3885 -0.9169
vn -0.7121 0.7020 -0.0000
vn -0.8894 -0.4561 -0.0299
vn 0.7108 -0.0000 0.7034
vn -0.7108 -0.0000 0.7034
vn 0.7052 0.6954 -0.1384
vn 0.7121 -0.7021 -0.0000
vn -0.7052 0.6954 0.1384
vn -0.1888 0.6430 -0.7422
vn 0.4522 0.8919 -0.0000
vn 0.8324 -0.4610 -0.3076
vn -0.4193 -0.8538 0.3085
vn -0.2645 0.9644 -0.0000
vn 0.1554 0.5587 0.8147
vn 0.5150 0.2369 0.8238
vn 0.6883 -0.0031 0.7254
vn -0.3311 0.2081 -0.9204
vn 0.0982 0.2430 -0.9650
vn -0.0648 0.0569 -0.9963
vn -0.0000 0.0012 -1.0000
vn -0.9998 0.0184 -0.0004
vn -0.8013 0.5983 0.0001
vn -0.4793 0.8777 0.0002
vn 0.0069 1.0000 -0.0000
vn 0.0003 -1.0000 -0.0000
vn 0.0002 -1.0000 -0.0000
vn 0.0129 0.9999 -0.0025
vn 0.7083 0.7059 0.0002
vn 0.0128 0.9999 -0.0011
vn -0.9198 -0.3924 -0.0000
vn -0.0337 0.9994 0.0066
vn -0.7169 0.6972 -0.0006
vn -0.0336 0.9994 0.0026
vn -0.7544 -0.6561 -0.0212
vn -0.0382 -0.0613 -0.9974
vn -0.0000 -0.1767 -0.9843
vn -0.0000 0.9894 -0.1453
vn 0.0130 -0.9998 0.0156
vn -0.0000 -1.0000 0.0003
vn 0.0149 -0.9997 0.0177
vn -0.0702 0.1297 0.9891
vn 0.0006 0.2267 0.9740
vn 0.0007 0.2269 0.9739
vn -0.6481 0.6310 -0.4263
vn 0.4586 -0.6431 -0.6133
vn 0.6777 0.6111 -0.4089
vn -0.6959 -0.4431 -0.5651
vn -0.6610 -0.7488 0.0482
vn -0.5406 0.2923 -0.7889
vn 0.6818 -0.0000 -0.7315
vn 0.8411 0.0018 -0.5409
vn 0.0782 -0.4102 -0.9086
vn 0.0380 0.4106 -0.9110
vn 0.3369 -0.0459 -0.9404
vn 0.4586 -0.6431 0.6133
vn -0.0000 1.0000 -0.0000
vn 0.0442 0.0009 0.9990
vn 0.9105 -0.2768 0.3072
vn -0.5709 -0.6050 0.5550
vn -0.5022 -0.4707 0.7254
vn -0.3274 -0.6048 0.7260
vn -0.7987 -0.0908 0.5949
vn -0.1250 0.8489 0.5135
vn -0.4452 0.8950 0.0273
vn -0.4449 0.1558 0.8819
vn -0.0000 -0.7059 -0.7083
vn -0.0000 0.7059 -0.7084
vn -0.0000 -1.0000 -0.0000
vn -0.0002 -1.0000 -0.0000
vn -0.0129 -0.9998 -0.0156
vn -0.0000 -1.0000 -0.0003
vn -0.0148 -0.9997 -0.0177
vn 0.7544 -0.6561 0.0212
vn -0.3396 0.5585 -0.7568
vn -0.6813 0.1850 -0.7082
vn -0.7820 -0.0016 -0.6233
vn -0.0790 0.6910 0.7185
vn -0.7225 -0.4000 0.5639
vn -0.0214 -0.6399 0.7682
vn -0.9452 0.1021 0.3101
vn 0.0828 0.0694 -0.9941
vn 0.0183 0.0271 -0.9995
vn 0.1601 -0.4045 -0.9004
vn 0.9138 0.0656 0.4008
vn 0.0839 -0.4110 -0.9078
vn 0.8792 -0.3445 0.3292
vn 0.9866 -0.1039 0.1256
vn 0.7339 -0.5009 0.4588
vn 0.5478 -0.4228 -0.7219
vn 0.7324 -0.0826 -0.6758
vn 0.6499 -0.5140 -0.5599
vn -0.6818 -0.0000 0.7315
vn -0.7721 0.6355 0.0001
vn -0.8826 0.0020 0.4702
vn -0.0000 -0.8721 -0.4894
vn 0.3970 0.4931 -0.7741
vn 0.2269 0.6928 0.6845
vn 0.2269 0.6927 0.6846
vn 0.0016 -0.9909 0.1346
vn 0.6571 0.6537 -0.3754
vn -0.0273 -0.0269 -0.9993
vn -0.8846 -0.3169 -0.3421
vn -0.4297 0.1519 0.8901
vn -0.6111 0.1570 0.7759
vn -0.3878 -0.0703 -0.9190
vn -0.8445 0.4680 0.2605
vn -0.4639 -0.6748 0.5740
vn 0.2048 -0.2983 0.9322
vn -0.0955 -0.0742 -0.9927
vn -0.3679 -0.5048 -0.7809
vn -0.4767 -0.6875 -0.5478
vn 0.0008 1.0000 -0.0009
vn -0.0080 1.0000 -0.0052
vn -0.0807 0.2634 -0.9613
vn -0.0001 0.8904 -0.4551
vn 0.5246 0.8513 0.0102
vn -0.0000 0.0011 1.0000
vn 0.0273 -0.0269 0.9993
vn -0.0000 -0.0000 -0.0000
vn 0.0846 0.9948 0.0562
vn 0.0002 0.6921 0.7218
vn -0.0002 0.6921 -0.7218
vn -0.0000 0.7173 -0.6967
vn -0.0003 0.0013 -1.0000
vn 0.8013 0.5982 -0.0001
vn 0.9998 0.0177 0.0004
vn 1.0000 -0.0000 -0.0000
vn -0.0000 0.7173 0.6967
vn 0.9998 0.0184 0.0004
vn -0.9998 0.0177 -0.0004
vn -0.0000 0.0182 -0.9998
vn 0.0003 0.0013 1.0000
vn -0.0000 0.0182 0.9998
vn -1.0000 -0.0000 -0.0000
vn -0.5079 0.8614 0.0003
vn -0.9994 0.0336 0.0046
vn -0.9999 0.0146 -0.0007
vn -0.0000 -0.0000 1.0000
vn -0.0000 -0.0000 -1.0000
vn -0.9176 -0.3975 -0.0000
vn -0.0064 -0.9970 0.0766
vn -0.1077 0.3197 -0.9414
vn -0.0045 -1.0000 -0.0011
vn 0.7067 0.7075 -0.0043
vn 0.9999 0.0139 0.0007
vn 0.0079 0.0010 1.0000
vn 0.0028 0.0035 1.0000
vn -0.0000 0.0047 1.0000
vn 0.1254 0.3956 -0.9098
vn 0.1176 0.3159 -0.9415
vn -0.1054 0.3766 0.9203
vn 0.0045 -1.0000 0.0011
vn 0.0086 -0.9860 -0.1665
vn -0.1608 -0.0000 0.9870
vn -0.7058 0.0099 -0.7084
vn 0.0252 -0.2460 -0.9689
vn -0.5951 0.7491 0.2911
vn -0.0008 1.0000 -0.0000
vn -0.1246 0.5163 0.8473
vn -0.0741 0.4067 0.9106
vn -0.0413 0.3110 0.9495
vn -0.0206 0.4536 0.8910
vn -0.0582 -0.0000 -0.9983
vn 0.0225 0.2938 -0.9556
vn 0.2040 -0.9790 -0.0000
vn 0.2095 -0.9778 -0.0000
vn 0.2425 -0.9701 -0.0000
vn -0.0140 0.4472 0.8943
vn -0.0141 0.4359 0.8999
vn 0.3985 -0.0000 0.9172
vn 0.2049 -0.8531 0.4799
vn 0.2213 -0.8270 0.5169
vn -0.2373 0.9714 -0.0000
vn -0.1472 0.9891 -0.0000
vn -0.1311 0.9914 -0.0000
vn -0.2425 -0.9701 -0.0000
vn -0.0020 -0.0078 -1.0000
vn -1.0000 -0.0063 0.0027
vn 0.0062 -0.0819 0.9966
vn -0.9990 -0.0000 0.0458
vn -0.9991 -0.0000 0.0421
vn 0.0027 -0.0064 1.0000
vn -0.0000 0.9995 0.0312
vn -0.0000 0.9981 0.0624
vn -0.8803 0.3372 0.3337
vn 0.0004 0.6945 0.7195
vn -0.0023 -0.8087 0.5883
vn -0.0018 -0.1542 0.9880
vn 0.0028 -0.6172 0.7868
vn -0.7905 0.5430 -0.2834
vn 0.0004 0.7027 0.7115
vn -0.0014 -0.0795 -0.9968
vn -0.0000 0.7209 -0.6931
vn -0.0015 0.7856 -0.6188
vn -0.0018 -0.7714 -0.6363
vn 0.9968 -0.0752 0.0266
vn 0.9752 -0.2214 0.0058
vn 0.9988 -0.0406 0.0290
vn -0.0000 -0.8510 -0.5251
vn -0.4522 -0.8919 -0.0000
vn 0.9990 0.0431 0.0099
vn 0.9945 0.0755 0.0720
vn 0.9993 0.0158 -0.0325
vn 0.7705 0.5510 0.3205
vn -0.0000 0.6839 0.7296
vn -0.3466 0.7241 -0.5963
vn 0.7330 0.6798 0.0225
vn 0.0004 -0.0081 1.0000
vn 0.4230 0.9057 0.0283
vn -0.5462 0.8372 0.0281
vn -0.2520 -0.0898 -0.9635
vn -0.0013 -0.0417 -0.9991
vn 0.2617 0.3044 -0.9159
vn 0.0571 0.0329 -0.9978
vn -0.0148 0.9999 -0.0000
vn -0.0119 0.9999 -0.0000
vn -0.0126 0.9999 -0.0000
vn 0.9487 -0.0000 -0.3162
vn 0.9285 -0.0000 -0.3714
vn 0.9430 -0.0000 -0.3328
vn -0.0000 0.9487 -0.3162
vn -0.0000 0.8944 -0.4472
vn 0.2182 -0.4364 -0.8729
vn 0.2357 -0.2357 -0.9428
vn 0.9968 0.0796 0.0086
vn 0.9978 0.0662 0.0086
vn 0.9986 0.0534 -0.0000
vn 0.9978 0.0664 -0.0000
vn 0.0005 -0.1843 0.9829
vn 0.0002 -0.1843 0.9829
vn 0.0002 -0.1240 0.9923
vn 0.9829 0.1843 -0.0019
vn 0.9923 0.1240 -0.0010
vn -0.9936 0.0187 -0.1110
vn -0.9635 0.2555 -0.0794
vn -0.9899 -0.0037 -0.1419
vn -0.9838 0.1793 -0.0014
vn 0.0026 0.1170 0.9931
vn -0.0007 -0.7657 0.6432
vn 0.0023 -0.6498 0.7601
vn -0.9893 0.0935 -0.1122
vn 0.0073 0.0285 0.9996
vn -0.0041 0.9539 -0.3002
vn 0.0031 0.2100 -0.9777
vn -0.5118 0.6680 -0.5402
vn -0.4853 -0.4877 -0.7257
vn 0.0041 -0.4281 -0.9037
vn 0.8501 -0.0481 0.5245
vn 0.0034 -0.5313 0.8472
vn -0.0225 -0.0482 -0.9986
vn 0.9604 -0.2768 -0.0303
vn 0.8996 -0.4355 -0.0313
vn 0.9457 -0.3236 -0.0300
vn -0.7784 0.6274 0.0219
vn -0.4398 0.8975 0.0318
vn 0.0261 0.7391 -0.6731
vn 0.0038 0.8593 0.5114
vn 0.0001 0.6911 0.7228
vn -0.5156 0.8564 0.0264
vn -0.7697 0.6381 0.0186
vn 0.5422 0.1565 -0.8255
vn 0.9879 0.1524 0.0278
vn 0.5776 0.8163 0.0041
vn -0.0054 -0.9998 0.0169
vn -0.9480 -0.3182 -0.0004
vn -0.2136 0.9766 -0.0238
vn -0.2425 0.9699 -0.0236
vn -0.3509 0.9357 -0.0379
vn -0.9967 -0.0810 0.0061
vn 0.9997 -0.0000 0.0230
vn 0.9994 -0.0000 0.0340
vn 0.9991 -0.0000 0.0421
vn 1.0000 -0.0063 -0.0027
vn -0.0622 -0.9957 -0.0681
vn -0.0000 -0.9967 -0.0818
vn -0.0623 -0.9961 -0.0623
vn 0.0099 0.0453 -0.9989
vn -0.3622 0.9321 -0.0000
vn -0.4066 0.9136 -0.0000
vn -0.5145 0.8575 -0.0000
vn -0.4991 0.8407 0.2102
vn -0.5879 0.7235 0.3618
vn -0.0000 -0.7071 -0.7071
vn -0.0000 -0.8944 -0.4472
vn -0.0000 -0.7809 -0.6247
vn 0.9700 -0.1977 -0.1411
vn -0.6099 -0.0625 -0.7900
vn -0.0810 -0.0518 -0.9954
vn 0.7571 -0.1145 -0.6432
vn 0.1459 -0.1051 -0.9837
vn -0.0055 -0.0538 0.9985
vn -0.1459 0.1051 -0.9837
vn -0.7571 0.1145 -0.6432
vn 0.0810 0.0518 -0.9954
vn -0.9700 0.1977 -0.1411
vn 0.6099 0.0625 -0.7900
vn 0.0055 0.0538 0.9985
vn 0.1582 0.0341 -0.9868
vn -0.9166 0.1578 -0.3674
vn 0.4759 0.0349 -0.8788
vn -0.0621 0.0422 0.9972
vn -0.1146 0.1034 -0.9880
vn -0.7947 0.1126 -0.5965
vn 0.9166 -0.1578 -0.3674
vn -0.4759 -0.0349 -0.8788
vn -0.1582 -0.0341 -0.9868
vn 0.7947 -0.1126 -0.5965
vn 0.1146 -0.1034 -0.9880
vn 0.0621 -0.0422 0.9972
vn 0.7947 -0.1126 -0.5964
vn -0.1234 -0.3996 -0.9084
vn -0.0983 0.0156 -0.9950
vn -0.9268 0.1000 -0.3619
vn -0.1177 0.0040 -0.9930
vn 0.0873 -0.0075 0.9962
vn 0.1174 0.0370 -0.9924
vn -0.7835 0.0896 -0.6149
vn 0.0665 -0.9978 -0.0000
vn 0.0695 -0.9262 -0.3705
vn 0.0558 -0.8930 -0.4465
vn 0.1004 -0.9949 -0.0000
vn 0.0975 -0.9952 -0.0000
vn 0.0838 -0.9965 -0.0000
vn 0.0416 0.2423 0.9693
vn 0.0590 0.3505 0.9347
vn -0.5251 0.8401 -0.1360
vn -0.5928 0.7904 -0.1541
vn 1.0000 -0.0063 0.0005
vn -0.2054 -0.2028 -0.9574
vn 0.2054 0.2027 0.9575
vn -0.6873 0.7249 0.0473
vn -0.4907 0.3226 -0.8094
vn -0.1671 0.6083 0.7759
vn -0.0441 -0.0435 -0.9981
vn 0.1312 -0.1293 0.9829
vn -0.0955 0.0941 0.9910
vn 0.8419 0.0201 0.5393
vn 0.9997 0.0238 0.0010
vn 0.5795 0.7889 -0.2046
vn -0.4984 0.8165 -0.2914
vn 0.2431 -0.6139 0.7510
vn -0.4317 -0.9020 -0.0000
vn -0.4524 -0.8918 -0.0000
vn -0.6475 0.7621 -0.0000
vn -0.0000 0.7654 0.6435
vn 0.3128 -0.4638 -0.8289
vn -0.9683 -0.2468 0.0388
vn 0.3251 0.8944 0.3071
vn 0.2756 0.9597 -0.0549
vn -0.5287 0.8487 -0.0151
vn -0.3052 0.8293 -0.4681
vn 0.3381 0.8196 -0.4625
vn -0.0000 -0.8893 -0.4574
vn 0.8746 -0.4807 0.0629
vn -0.3947 -0.3973 0.8285
vn 0.7291 -0.2691 0.6293
vn -0.3004 0.8982 -0.3210
vn -0.0002 -0.1502 -0.9887
vn 0.0223 0.7932 -0.6086
vn -0.0000 -0.0118 -0.9999
vn -0.0271 -0.9991 -0.0323
vn 0.0006 -0.4340 -0.9009
vn -0.1041 0.7065 -0.7000
vn 0.5249 -0.6160 -0.5874
vn -0.8455 0.0170 0.5337
vn 0.0363 0.7103 -0.7030
vn -0.8860 -0.1397 -0.4422
vn -0.5611 0.8053 -0.1913
vn -0.0182 0.0179 -0.9997
vn -0.7107 -0.0000 -0.7035
vn -0.0834 0.0103 -0.9965
vn 0.0112 0.0047 0.9999
vn 0.2762 -0.6955 0.6633
vn -0.7392 -0.4311 0.5175
vn -0.4337 0.9006 0.0271
vn -0.0000 -0.7058 0.7084
vn -0.0000 0.7301 0.6833
vn 0.7119 -0.7023 -0.0005
vn -0.0000 -0.3092 0.9510
vn 0.0272 -0.9991 0.0323
vn 0.0555 0.7125 0.6994
vn 0.4010 0.4895 -0.7743
vn 0.7327 -0.6799 -0.0296
vn 0.7107 -0.0000 0.7035
vn -0.7122 0.7020 -0.0000
vn 0.0832 0.0106 0.9965
vn 0.0966 0.0895 -0.9913
vn -0.0010 -1.0000 -0.0000
vn -0.8829 -0.4687 0.0286
vn -0.6825 -0.7303 0.0273
vn -0.9964 0.0752 0.0383
vn 0.0018 -0.9975 0.0704
vn 0.6512 0.6479 -0.3951
vn 0.7664 0.5695 -0.2970
vn -0.0651 -0.6781 -0.7321
vn -0.7032 0.7089 -0.0546
vn -0.4194 0.4358 -0.7964
vn 0.0182 0.0179 0.9997
vn 0.4793 0.8776 -0.0002
vn 0.7722 0.6354 -0.0000
vn 0.0649 -0.0510 0.9966
vn -0.5246 0.6176 0.5860
vn 0.0074 0.9996 0.0289
vn -0.2177 0.9756 0.0290
vn -0.0000 1.0000 0.0059
vn 0.0002 -0.1501 0.9887
vn -0.8621 0.5059 0.0295
vn -0.0004 -0.7061 0.7081
vn 0.7119 -0.7023 -0.0000
vn -0.9999 0.0164 -0.0007
vn 0.9999 -0.0100 0.0008
vn -0.7119 -0.7023 -0.0000
vn 0.5079 0.8614 -0.0003
vn 0.0004 -0.7061 -0.7081
vn 0.9999 0.0154 0.0007
vn -0.9999 -0.0100 -0.0008
vn 0.5523 0.2484 -0.7958
vn 0.0057 0.0148 0.9999
vn 0.0007 -0.0117 0.9999
vn 0.0006 -0.0108 0.9999
vn 0.0081 0.0117 0.9999
vn 0.0118 0.0117 0.9999
vn -0.9999 0.0117 -0.0008
vn 0.0107 -0.0035 0.9999
vn 0.0109 -0.0108 0.9999
vn 0.0006 0.0108 -0.9999
vn -0.0006 -0.0108 -0.9999
vn 0.0007 0.0116 -0.9999
vn 0.7120 -0.7021 0.0001
vn -0.0007 -0.0117 -0.9999
vn 0.7108 -0.0000 -0.7034
vn -0.3523 0.6191 -0.7019
vn -0.5459 0.8379 -0.0000
vn 0.9993 0.0364 -0.0023
vn 0.9979 -0.0027 -0.0645
vn 0.9995 0.0241 -0.0220
vn 0.4524 0.8918 -0.0000
vn 0.6646 0.7472 -0.0000
vn -0.1474 0.8017 -0.5792
vn 0.8692 0.4945 -0.0000
vn -0.3255 0.5539 -0.7663
vn 0.0245 -0.0417 -0.9988
vn -0.0000 0.7507 -0.6606
vn 0.9969 -0.0446 -0.0650
vn 0.9574 0.2887 -0.0000
vn 0.0008 -0.7217 -0.6922
vn 0.5975 0.2989 0.7441
vn -0.5642 0.2044 0.7999
vn 0.2093 -0.0486 0.9766
vn -0.0014 0.9993 0.0361
vn -0.5759 -0.7952 -0.1898
vn 0.9962 -0.0446 0.0748
vn -0.0458 0.0021 -0.9990
vn 0.7583 -0.6487 -0.0643
vt 0.512107 0.991449
vt 0.512176 0.991376
vt 0.512125 0.991602
vt 0.417653 0.761136
vt 0.417653 0.761058
vt 0.417786 0.761222
vt 0.465851 0.627169
vt 0.465850 0.627090
vt 0.465982 0.627000
vt 0.212557 0.428126
vt 0.212556 0.428260
vt 0.212423 0.428126
vt 0.507975 0.991487
vt 0.507876 0.991510
vt 0.507808 0.991376
vt 0.226847 0.236373
vt 0.226713 0.236239
vt 0.226579 0.236106
vt 0.037177 0.236374
vt 0.037043 0.236240
vt 0.036910 0.236106
vt 0.212556 0.236241
vt 0.212557 0.236401
vt 0.212423 0.236375
vt 0.581872 0.428151
vt 0.581871 0.428284
vt 0.581738 0.428151
vt 0.037043 0.428259
vt 0.037044 0.428098
vt 0.037177 0.428125
vt 0.805954 0.142420
vt 0.805999 0.142243
vt 0.806044 0.142358
vt 0.806248 0.213578
vt 0.806079 0.213444
vt 0.806017 0.213578
vt 0.806276 0.076199
vt 0.805999 0.076226
vt 0.806132 0.076342
vt 0.267151 0.984336
vt 0.266576 0.984862
vt 0.267079 0.984445
vt 0.503808 0.991612
vt 0.503808 0.991381
vt 0.503616 0.991496
vt 0.126757 0.991820
vt 0.126863 0.992160
vt 0.126754 0.992304
vt 0.805974 0.142875
vt 0.806132 0.142358
vt 0.806131 0.142911
vt 0.366624 0.571064
vt 0.366749 0.432579
vt 0.366749 0.570962
vt 0.397059 0.808624
vt 0.221768 0.808711
vt 0.221675 0.808577
vt 0.212423 0.423255
vt 0.402227 0.236106
vt 0.402093 0.236240
vt 0.037125 0.423253
vt 0.581871 0.423280
vt 0.212480 0.241247
vt 0.990567 0.415422
vt 0.995571 0.415266
vt 0.995513 0.415402
vt 0.217549 0.318980
vt 0.226857 0.428258
vt 0.226991 0.428418
vt 0.032077 0.345567
vt 0.121537 0.991376
vt 0.121732 0.991759
vt 0.121186 0.991376
vt 0.876618 0.676555
vt 0.876292 0.676087
vt 0.876830 0.676620
vt 0.826344 0.314177
vt 0.826211 0.313742
vt 0.826344 0.313777
vt 0.265869 0.984550
vt 0.266201 0.985051
vt 0.265603 0.984506
vt 0.959699 0.741009
vt 0.959872 0.741473
vt 0.947318 0.741968
vt 0.271588 0.967388
vt 0.271240 0.966747
vt 0.272128 0.967377
vt 0.983561 0.983080
vt 0.983373 0.986751
vt 0.983400 0.983032
vt 0.973650 0.550764
vt 0.985017 0.550870
vt 0.973724 0.550897
vt 0.876176 0.676162
vt 0.876222 0.675558
vt 0.126381 0.992771
vt 0.126165 0.992837
vt 0.806017 0.076476
vt 0.806248 0.142225
vt 0.806017 0.142225
vt 0.145518 0.992682
vt 0.146081 0.992466
vt 0.145672 0.992673
vt 0.874277 0.828133
vt 0.874621 0.828729
vt 0.874139 0.827727
vt 0.949249 0.755836
vt 0.937266 0.755390
vt 0.959485 0.755325
vt 0.226716 0.241244
vt 0.037043 0.241185
vt 0.406358 0.428284
vt 0.406492 0.428150
vt 0.581874 0.236266
vt 0.581740 0.236106
vt 0.995433 0.411110
vt 0.990429 0.411266
vt 0.990487 0.411131
vt 0.121892 0.992074
vt 0.121731 0.992404
vt 0.805579 0.076343
vt 0.805615 0.076476
vt 0.874277 0.822654
vt 0.874621 0.823249
vt 0.874156 0.822351
vt 0.116090 0.992255
vt 0.116885 0.992019
vt 0.116407 0.992771
vt 0.876287 0.691478
vt 0.876458 0.692344
vt 0.876162 0.691395
vt 0.135894 0.992667
vt 0.136379 0.992085
vt 0.136067 0.992760
vt 0.131326 0.992749
vt 0.131831 0.992020
vt 0.131500 0.992836
vt 0.990567 0.419422
vt 0.994237 0.419610
vt 0.990518 0.419581
vt 0.973629 0.554965
vt 0.985016 0.555085
vt 0.973723 0.555085
vt 0.806132 0.147425
vt 0.806017 0.147352
vt 0.116414 0.991493
vt 0.116589 0.991376
vt 0.135894 0.991376
vt 0.136106 0.991434
vt 0.794918 0.761377
vt 0.794686 0.827392
vt 0.794730 0.761127
vt 0.131370 0.991458
vt 0.131746 0.991948
vt 0.131134 0.991376
vt 0.581740 0.236400
vt 0.581874 0.241345
vt 0.581874 0.241479
vt 0.121362 0.992924
vt 0.121224 0.992836
vt 0.805999 0.076458
vt 0.806131 0.076895
vt 0.805998 0.076859
vt 0.165728 0.991376
vt 0.165861 0.992268
vt 0.165455 0.991519
vt 0.272607 0.966979
vt 0.272690 0.967158
vt 0.826344 0.314408
vt 0.892093 0.313903
vt 0.892342 0.314383
vt 0.936900 0.736595
vt 0.959778 0.736364
vt 0.959851 0.736576
vt 0.020349 0.446406
vt 0.020215 0.579227
vt 0.020224 0.446503
vt 0.406358 0.423206
vt 0.406359 0.423073
vt 0.002134 0.232059
vt 0.002087 0.002088
vt 0.232037 0.117076
vt 0.351177 0.231995
vt 0.236237 0.002046
vt 0.466119 0.002089
vt 0.102007 0.432417
vt 0.172023 0.622774
vt 0.031965 0.622419
vt 0.473408 0.432631
vt 0.540563 0.622621
vt 0.406227 0.623000
vt 0.632557 0.617526
vt 0.544748 0.432373
vt 0.720449 0.432420
vt 0.397108 0.626985
vt 0.150518 0.626867
vt 0.150785 0.765148
vt 0.146977 0.765367
vt 0.485084 0.627000
vt 0.481274 0.758163
vt 0.481409 0.627028
vt 0.221724 0.626938
vt 0.484994 0.758128
vt 0.436076 0.761034
vt 0.436031 0.627097
vt 0.439751 0.627088
vt 0.146977 0.626882
vt 0.444018 0.759818
vt 0.447559 0.627000
vt 0.447559 0.759822
vt 0.443751 0.627191
vt 0.439751 0.761036
vt 0.581738 0.423206
vt 0.406379 0.423302
vt 0.406360 0.761028
vt 0.409356 0.627078
vt 0.417661 0.627087
vt 0.973590 0.546673
vt 0.973590 0.543062
vt 0.985016 0.542902
vt 0.581853 0.241248
vt 0.406494 0.241344
vt 0.984883 0.546708
vt 0.973591 0.530988
vt 0.973733 0.527325
vt 0.985159 0.527121
vt 0.973590 0.530902
vt 0.406227 0.236132
vt 0.112126 0.626903
vt 0.112126 0.767045
vt 0.112125 0.767137
vt 0.071251 0.630832
vt 0.082382 0.627014
vt 0.082543 0.630838
vt 0.071278 0.764882
vt 0.082543 0.765076
vt 0.082410 0.764888
vt 0.586852 0.236400
vt 0.582157 0.428154
vt 0.477142 0.627095
vt 0.477174 0.758217
vt 0.465838 0.758326
vt 0.973763 0.599884
vt 0.984883 0.596229
vt 0.984894 0.599884
vt 0.071251 0.626966
vt 0.226428 0.236371
vt 0.221879 0.428128
vt 0.071279 0.768705
vt 0.187550 0.619831
vt 0.176123 0.619750
vt 0.176257 0.619734
vt 0.082410 0.768709
vt 0.037177 0.241223
vt 0.976753 0.538902
vt 0.973751 0.535090
vt 0.984883 0.535092
vt 0.142845 0.761846
vt 0.131711 0.765674
vt 0.131553 0.761932
vt 0.142842 0.765632
vt 0.067029 0.710046
vt 0.055825 0.773000
vt 0.055959 0.626882
vt 0.142944 0.626867
vt 0.142942 0.630611
vt 0.131810 0.630695
vt 0.131814 0.626953
vt 0.116329 0.687280
vt 0.127418 0.626935
vt 0.127552 0.767083
vt 0.370782 0.432522
vt 0.402091 0.432580
vt 0.386442 0.610090
vt 0.724525 0.432482
vt 0.754554 0.432376
vt 0.739542 0.609968
vt 0.039398 0.833301
vt 0.072613 0.857313
vt 0.039397 0.881529
vt 0.850193 0.817913
vt 0.826187 0.783277
vt 0.874352 0.783292
vt 0.555783 0.833255
vt 0.587103 0.833270
vt 0.571437 0.876837
vt 0.673805 0.833418
vt 0.703850 0.833269
vt 0.688820 0.876919
vt 0.428460 0.833312
vt 0.429654 0.833275
vt 0.429053 0.879068
vt 0.396556 0.833321
vt 0.397772 0.833275
vt 0.397160 0.879074
vt 0.444342 0.833312
vt 0.445536 0.833275
vt 0.444935 0.879068
vt 0.401873 0.833321
vt 0.403090 0.833275
vt 0.402478 0.879074
vt 0.407191 0.833321
vt 0.408407 0.833275
vt 0.407795 0.879074
vt 0.433754 0.833312
vt 0.434948 0.833276
vt 0.434347 0.879068
vt 0.154804 0.881646
vt 0.158534 0.833294
vt 0.162293 0.881631
vt 0.150713 0.833288
vt 0.146983 0.881640
vt 0.143224 0.833303
vt 0.126629 0.882290
vt 0.132881 0.833288
vt 0.139161 0.882272
vt 0.089316 0.833279
vt 0.083063 0.882281
vt 0.076784 0.833297
vt 0.850193 0.779123
vt 0.826187 0.744487
vt 0.874352 0.744502
vt 0.002023 0.833301
vt 0.035237 0.857313
vt 0.002021 0.881529
vt 0.591189 0.833255
vt 0.622509 0.833270
vt 0.606842 0.876837
vt 0.639674 0.833418
vt 0.669719 0.833270
vt 0.654691 0.876919
vt 0.439048 0.833312
vt 0.440242 0.833275
vt 0.439641 0.879068
vt 0.417825 0.833321
vt 0.419042 0.833275
vt 0.418430 0.879074
vt 0.423143 0.833321
vt 0.424359 0.833275
vt 0.423747 0.879074
vt 0.449636 0.833312
vt 0.450830 0.833275
vt 0.450229 0.879068
vt 0.412508 0.833321
vt 0.413725 0.833275
vt 0.413112 0.879074
vt 0.454930 0.833312
vt 0.456124 0.833276
vt 0.455523 0.879068
vt 0.170100 0.833295
vt 0.173859 0.881632
vt 0.166370 0.881647
vt 0.181680 0.881639
vt 0.177921 0.833302
vt 0.185410 0.833287
vt 0.116284 0.882281
vt 0.110005 0.833296
vt 0.122537 0.833279
vt 0.099660 0.833288
vt 0.105940 0.882272
vt 0.093408 0.882290
vt 0.342518 0.886465
vt 0.354439 0.924071
vt 0.330592 0.924087
vt 0.801997 0.833364
vt 0.813671 0.871072
vt 0.790325 0.870879
vt 0.262249 0.928617
vt 0.272492 0.961700
vt 0.251989 0.961659
vt 0.897465 0.174912
vt 0.932766 0.174337
vt 0.932770 0.175497
vt 0.897463 0.002707
vt 0.932767 0.002108
vt 0.932764 0.003314
vt 0.897490 0.143886
vt 0.897441 0.142717
vt 0.932768 0.143306
vt 0.897484 0.077712
vt 0.897442 0.076498
vt 0.932765 0.077109
vt 0.897465 0.180181
vt 0.932766 0.179606
vt 0.932770 0.180766
vt 0.897463 0.082419
vt 0.932767 0.081820
vt 0.932764 0.083026
vt 0.078766 0.928570
vt 0.075045 0.962639
vt 0.071297 0.928585
vt 0.036677 0.962646
vt 0.040398 0.928577
vt 0.044147 0.962630
vt 0.370438 0.886465
vt 0.382360 0.924071
vt 0.358513 0.924087
vt 0.774578 0.833364
vt 0.786253 0.871072
vt 0.762906 0.870879
vt 0.188448 0.928617
vt 0.198691 0.961700
vt 0.178188 0.961659
vt 0.897463 0.098362
vt 0.932767 0.097763
vt 0.932764 0.098968
vt 0.897465 0.190718
vt 0.932766 0.190143
vt 0.932770 0.191303
vt 0.897465 0.195987
vt 0.932766 0.195412
vt 0.932770 0.196571
vt 0.897463 0.029278
vt 0.932767 0.028679
vt 0.932764 0.029885
vt 0.897465 0.148570
vt 0.932766 0.147995
vt 0.932770 0.149154
vt 0.897463 0.039906
vt 0.932767 0.039307
vt 0.932764 0.040513
vt 0.931531 0.901714
vt 0.897462 0.897992
vt 0.931515 0.894243
vt 0.124943 0.928570
vt 0.121222 0.962639
vt 0.117474 0.928585
vt 0.315120 0.886495
vt 0.326521 0.924071
vt 0.303717 0.924146
vt 0.674549 0.928642
vt 0.684347 0.961699
vt 0.664735 0.961709
vt 0.529391 0.928589
vt 0.539604 0.961700
vt 0.519161 0.961604
vt 0.833681 0.886494
vt 0.834282 0.921796
vt 0.833073 0.921797
vt 0.897460 0.275054
vt 0.932766 0.274465
vt 0.932757 0.275651
vt 0.838999 0.886494
vt 0.839600 0.921796
vt 0.838390 0.921797
vt 0.897460 0.280348
vt 0.932766 0.279760
vt 0.932757 0.280945
vt 0.870904 0.886493
vt 0.871504 0.921796
vt 0.870295 0.921797
vt 0.897460 0.285642
vt 0.932766 0.285054
vt 0.932757 0.286239
vt 0.931531 0.786271
vt 0.897462 0.782549
vt 0.931515 0.778801
vt 0.897454 0.836536
vt 0.931523 0.840257
vt 0.897470 0.844005
vt 0.261369 0.886495
vt 0.272770 0.924071
vt 0.249965 0.924146
vt 0.207127 0.886487
vt 0.219016 0.924124
vt 0.195240 0.924076
vt 0.698257 0.928642
vt 0.708055 0.961699
vt 0.688443 0.961710
vt 0.876221 0.886493
vt 0.876822 0.921796
vt 0.875613 0.921796
vt 0.897460 0.327994
vt 0.932766 0.327406
vt 0.932757 0.328591
vt 0.844316 0.886494
vt 0.844917 0.921796
vt 0.843708 0.921797
vt 0.897460 0.312112
vt 0.932766 0.311524
vt 0.932757 0.312709
vt 0.849634 0.886494
vt 0.850234 0.921796
vt 0.849025 0.921797
vt 0.897460 0.269760
vt 0.932766 0.269172
vt 0.932757 0.270357
vt 0.931531 0.797815
vt 0.897462 0.794094
vt 0.931515 0.790346
vt 0.897454 0.848080
vt 0.931523 0.851801
vt 0.897470 0.855550
vt 0.002018 0.886461
vt 0.025362 0.886657
vt 0.013691 0.924171
vt 0.498118 0.886472
vt 0.521963 0.886459
vt 0.510039 0.924079
vt 0.456692 0.928550
vt 0.466722 0.961721
vt 0.446647 0.961501
vt 0.139247 0.928617
vt 0.149490 0.961700
vt 0.128988 0.961659
vt 0.897490 0.233452
vt 0.897441 0.232282
vt 0.932768 0.232872
vt 0.897484 0.008628
vt 0.897442 0.007415
vt 0.932765 0.008025
vt 0.897463 0.045220
vt 0.932767 0.044621
vt 0.932764 0.045827
vt 0.897465 0.201255
vt 0.932766 0.200680
vt 0.932770 0.201840
vt 0.897490 0.154423
vt 0.897441 0.153254
vt 0.932768 0.153843
vt 0.897484 0.093654
vt 0.897442 0.092441
vt 0.932765 0.093051
vt 0.897454 0.871168
vt 0.931523 0.874890
vt 0.897470 0.878639
vt 0.048221 0.962646
vt 0.051943 0.928578
vt 0.055691 0.962631
vt 0.029436 0.886461
vt 0.052780 0.886657
vt 0.041109 0.924171
vt 0.414357 0.886472
vt 0.438202 0.886459
vt 0.426278 0.924079
vt 0.480864 0.928550
vt 0.490893 0.961721
vt 0.470818 0.961501
vt 0.163848 0.928617
vt 0.174091 0.961700
vt 0.153588 0.961660
vt 0.897463 0.018650
vt 0.932767 0.018051
vt 0.932764 0.019257
vt 0.897465 0.217061
vt 0.932766 0.216486
vt 0.932770 0.217646
vt 0.897465 0.238136
vt 0.932766 0.237560
vt 0.932770 0.238720
vt 0.897463 0.023964
vt 0.932767 0.023365
vt 0.932764 0.024571
vt 0.897465 0.159107
vt 0.932766 0.158532
vt 0.932770 0.159691
vt 0.897463 0.103675
vt 0.932767 0.103077
vt 0.932764 0.104282
vt 0.005779 0.962639
vt 0.002031 0.928585
vt 0.009500 0.928570
vt 0.897462 0.909536
vt 0.931515 0.905788
vt 0.931531 0.913258
vt 0.809880 0.432372
vt 0.796484 0.502044
vt 0.783132 0.432328
vt 0.783110 0.575848
vt 0.796506 0.506176
vt 0.809858 0.575892
vt 0.865130 0.961101
vt 0.864607 0.961026
vt 0.865059 0.928566
vt 0.827201 0.961099
vt 0.826649 0.961026
vt 0.827127 0.928566
vt 0.850929 0.961098
vt 0.850377 0.961026
vt 0.850855 0.928566
vt 0.869868 0.961101
vt 0.869345 0.961026
vt 0.869798 0.928565
vt 0.860392 0.961101
vt 0.859869 0.961026
vt 0.860321 0.928566
vt 0.822455 0.961098
vt 0.821903 0.961026
vt 0.822381 0.928566
vt 0.874607 0.961101
vt 0.874084 0.961026
vt 0.874536 0.928565
vt 0.831946 0.961098
vt 0.831395 0.961026
vt 0.831873 0.928566
vt 0.826146 0.319301
vt 0.891950 0.318810
vt 0.891950 0.319691
vt 0.892008 0.329452
vt 0.826201 0.329909
vt 0.826201 0.329016
vt 0.120981 0.992327
vt 0.120981 0.991701
vt 0.121295 0.991462
vt 0.805615 0.147561
vt 0.805615 0.213310
vt 0.805626 0.142312
vt 0.806648 0.142225
vt 0.806248 0.076476
vt 0.806648 0.076476
vt 0.806648 0.147561
vt 0.806648 0.213310
vt 0.826103 0.676223
vt 0.783357 0.147313
vt 0.805998 0.147944
vt 0.126338 0.992839
vt 0.126301 0.992771
vt 0.125931 0.992294
vt 0.125931 0.991810
vt 0.126345 0.991495
vt 0.126520 0.991378
vt 0.783385 0.142568
vt 0.805998 0.141842
vt 0.783356 0.076283
vt 0.805998 0.075826
vt 0.276690 0.984560
vt 0.277354 0.984065
vt 0.277640 0.984147
vt 0.783358 0.213418
vt 0.806057 0.213084
vt 0.805998 0.213960
vt 0.145962 0.991486
vt 0.146303 0.991889
vt 0.826067 0.696365
vt 0.875457 0.706370
vt 0.826091 0.716259
vt 0.268132 0.880700
vt 0.258159 0.833302
vt 0.278019 0.833376
vt 0.511518 0.702561
vt 0.533932 0.771885
vt 0.489084 0.771735
vt 0.793467 0.687828
vt 0.814970 0.757034
vt 0.771949 0.757119
vt 0.826119 0.192182
vt 0.826205 0.150698
vt 0.890966 0.171449
vt 0.826336 0.236054
vt 0.826205 0.196262
vt 0.891075 0.216166
vt 0.156650 0.627002
vt 0.157866 0.626956
vt 0.157254 0.694020
vt 0.826192 0.029811
vt 0.826156 0.028617
vt 0.893212 0.029218
vt 0.002664 0.703766
vt 0.003881 0.703720
vt 0.003268 0.770784
vt 0.826192 0.035105
vt 0.826156 0.033911
vt 0.893213 0.034512
vt 0.826192 0.013929
vt 0.826156 0.012735
vt 0.893213 0.013336
vt 0.826201 0.003317
vt 0.826156 0.002101
vt 0.893219 0.002713
vt 0.826167 0.396492
vt 0.887850 0.400226
vt 0.826182 0.403992
vt 0.887858 0.392400
vt 0.826175 0.388666
vt 0.887843 0.384901
vt 0.826236 0.576863
vt 0.826218 0.561400
vt 0.878282 0.569142
vt 0.826101 0.634875
vt 0.826220 0.619736
vt 0.878213 0.627316
vt 0.947221 0.804919
vt 0.937027 0.784555
vt 0.957494 0.784569
vt 0.937074 0.853122
vt 0.947215 0.833558
vt 0.957476 0.853123
vt 0.407026 0.977790
vt 0.408263 0.968583
vt 0.414611 0.976151
vt 0.465140 0.976039
vt 0.471779 0.968560
vt 0.473018 0.977874
vt 0.592374 0.979944
vt 0.592745 0.966858
vt 0.593035 0.979989
vt 0.688857 0.966793
vt 0.688574 0.979967
vt 0.688284 0.966835
vt 0.736265 0.980031
vt 0.736490 0.966815
vt 0.736839 0.979989
vt 0.578607 0.966793
vt 0.578383 0.980009
vt 0.578034 0.966835
vt 0.568407 0.979944
vt 0.568778 0.966858
vt 0.569068 0.979989
vt 0.703237 0.966793
vt 0.702954 0.979967
vt 0.702664 0.966835
vt 0.708031 0.966793
vt 0.707792 0.980010
vt 0.707458 0.966835
vt 0.673950 0.980031
vt 0.674190 0.966814
vt 0.674524 0.979989
vt 0.635515 0.979944
vt 0.635886 0.966858
vt 0.636177 0.979989
vt 0.712824 0.966793
vt 0.712541 0.979967
vt 0.712251 0.966835
vt 0.717618 0.966793
vt 0.717378 0.980010
vt 0.717045 0.966835
vt 0.640396 0.980031
vt 0.640636 0.966814
vt 0.640970 0.979989
vt 0.973700 0.566478
vt 0.984908 0.565441
vt 0.984913 0.567504
vt 0.973701 0.591199
vt 0.984903 0.590207
vt 0.984918 0.592186
vt 0.253803 0.985041
vt 0.252556 0.966870
vt 0.255015 0.966852
vt 0.215798 0.985033
vt 0.213339 0.985050
vt 0.214551 0.966861
vt 0.260342 0.985041
vt 0.259095 0.966870
vt 0.261554 0.966852
vt 0.209259 0.985032
vt 0.206800 0.985050
vt 0.208012 0.966861
vt 0.964622 0.330259
vt 0.964638 0.330679
vt 0.936925 0.330580
vt 0.936948 0.295045
vt 0.936944 0.294559
vt 0.965795 0.294882
vt 0.393205 0.981239
vt 0.392595 0.981269
vt 0.392705 0.966775
vt 0.358785 0.966795
vt 0.359461 0.966791
vt 0.359104 0.981547
vt 0.378089 0.981239
vt 0.377478 0.981269
vt 0.377589 0.966775
vt 0.348259 0.966795
vt 0.348935 0.966791
vt 0.348579 0.981547
vt 0.792344 0.309680
vt 0.805697 0.379395
vt 0.778948 0.379351
vt 0.796693 0.071760
vt 0.783341 0.002044
vt 0.810090 0.002088
vt 0.884084 0.961101
vt 0.883561 0.961026
vt 0.884013 0.928565
vt 0.836692 0.961099
vt 0.836140 0.961026
vt 0.836618 0.928566
vt 0.893561 0.961101
vt 0.893038 0.961026
vt 0.893490 0.928565
vt 0.855675 0.961098
vt 0.855123 0.961026
vt 0.855601 0.928566
vt 0.841438 0.961098
vt 0.840886 0.961026
vt 0.841364 0.928566
vt 0.879345 0.961101
vt 0.878822 0.961026
vt 0.879275 0.928565
vt 0.846183 0.961098
vt 0.845632 0.961026
vt 0.846110 0.928566
vt 0.888822 0.961101
vt 0.888299 0.961026
vt 0.888752 0.928565
vt 0.892008 0.334485
vt 0.826201 0.334942
vt 0.826201 0.334049
vt 0.826146 0.324334
vt 0.891950 0.323843
vt 0.891950 0.324724
vt 0.266199 0.984125
vt 0.266834 0.984125
vt 0.826336 0.339574
vt 0.826067 0.338942
vt 0.892083 0.338942
vt 0.892084 0.339344
vt 0.130968 0.991948
vt 0.131299 0.991509
vt 0.826091 0.692220
vt 0.826110 0.691585
vt 0.315691 0.992281
vt 0.315471 0.991808
vt 0.315691 0.991376
vt 0.794803 0.761511
vt 0.794944 0.827393
vt 0.140479 0.992716
vt 0.140479 0.991703
vt 0.140949 0.991461
vt 0.141196 0.992250
vt 0.936955 0.741250
vt 0.959618 0.751073
vt 0.937025 0.751094
vt 0.937034 0.750692
vt 0.937034 0.751325
vt 0.936900 0.751209
vt 0.892093 0.314775
vt 0.826344 0.314810
vt 0.959784 0.746291
vt 0.936900 0.746692
vt 0.937201 0.746063
vt 0.959779 0.746692
vt 0.959853 0.736628
vt 0.937195 0.736996
vt 0.936900 0.736364
vt 0.772083 0.828042
vt 0.794668 0.827545
vt 0.794667 0.828042
vt 0.772004 0.827264
vt 0.794667 0.827009
vt 0.282181 0.880680
vt 0.292083 0.833339
vt 0.302074 0.880721
vt 0.826079 0.730307
vt 0.875461 0.720435
vt 0.875453 0.740296
vt 0.800427 0.236314
vt 0.821929 0.305520
vt 0.778909 0.305605
vt 0.794383 0.614204
vt 0.816798 0.683527
vt 0.771949 0.683377
vt 0.826119 0.146618
vt 0.826205 0.105134
vt 0.890966 0.125886
vt 0.826336 0.279927
vt 0.826205 0.240134
vt 0.891074 0.260038
vt 0.826192 0.024517
vt 0.826156 0.023323
vt 0.893212 0.023924
vt 0.826201 0.008635
vt 0.826156 0.007418
vt 0.893220 0.008031
vt 0.538030 0.702604
vt 0.539247 0.702559
vt 0.538635 0.769623
vt 0.826192 0.040399
vt 0.826156 0.039205
vt 0.893213 0.039806
vt 0.826192 0.019223
vt 0.826156 0.018029
vt 0.893213 0.018630
vt 0.156650 0.698288
vt 0.157866 0.698242
vt 0.157254 0.765306
vt 0.826175 0.423395
vt 0.887843 0.419630
vt 0.887858 0.427129
vt 0.887851 0.411803
vt 0.826182 0.415569
vt 0.826167 0.408069
vt 0.826237 0.596416
vt 0.826218 0.580952
vt 0.878282 0.588693
vt 0.826101 0.615645
vt 0.826220 0.600506
vt 0.878213 0.608086
vt 0.947276 0.876791
vt 0.936982 0.857220
vt 0.957449 0.857233
vt 0.936953 0.829421
vt 0.947261 0.809061
vt 0.957488 0.829414
vt 0.421524 0.977790
vt 0.422761 0.968583
vt 0.429109 0.976151
vt 0.450217 0.976039
vt 0.456856 0.968560
vt 0.458095 0.977874
vt 0.597542 0.980010
vt 0.597208 0.966835
vt 0.597781 0.966793
vt 0.722124 0.966814
vt 0.722459 0.979989
vt 0.721885 0.980031
vt 0.973590 0.698781
vt 0.983652 0.698519
vt 0.983628 0.699087
vt 0.973590 0.839675
vt 0.983235 0.839907
vt 0.973590 0.840202
vt 0.664651 0.980010
vt 0.664317 0.966835
vt 0.664890 0.966793
vt 0.669397 0.966814
vt 0.669731 0.979989
vt 0.669069 0.979944
vt 0.602292 0.979966
vt 0.602001 0.966835
vt 0.602662 0.966881
vt 0.607081 0.966814
vt 0.607416 0.979989
vt 0.606754 0.979944
vt 0.659857 0.980010
vt 0.659523 0.966835
vt 0.660096 0.966793
vt 0.583114 0.966814
vt 0.583448 0.979989
vt 0.582875 0.980031
vt 0.611879 0.979966
vt 0.611589 0.966835
vt 0.612249 0.966881
vt 0.693408 0.966858
vt 0.693698 0.979989
vt 0.693124 0.980031
vt 0.973700 0.572710
vt 0.984908 0.571673
vt 0.984913 0.573736
vt 0.973701 0.585050
vt 0.984903 0.584058
vt 0.984918 0.586038
vt 0.189642 0.985032
vt 0.187183 0.985050
vt 0.188395 0.966861
vt 0.227647 0.985041
vt 0.226400 0.966870
vt 0.228859 0.966852
vt 0.234186 0.985041
vt 0.232939 0.966870
vt 0.235398 0.966852
vt 0.196181 0.985032
vt 0.193722 0.985050
vt 0.194934 0.966861
vt 0.891702 0.833266
vt 0.892015 0.871139
vt 0.891461 0.871139
vt 0.601344 0.924392
vt 0.601056 0.886516
vt 0.601618 0.886516
vt 0.383128 0.981239
vt 0.382517 0.981269
vt 0.382628 0.966775
vt 0.364048 0.966795
vt 0.364724 0.966791
vt 0.364367 0.981547
vt 0.388167 0.981239
vt 0.387556 0.981269
vt 0.387667 0.966775
vt 0.353522 0.966795
vt 0.354198 0.966791
vt 0.353841 0.981547
vt 0.068527 0.886559
vt 0.080201 0.924268
vt 0.056855 0.924075
vt 0.454200 0.886465
vt 0.466121 0.924071
vt 0.442275 0.924087
vt 0.213048 0.928616
vt 0.223291 0.961700
vt 0.202788 0.961659
vt 0.897490 0.222914
vt 0.897441 0.221745
vt 0.932768 0.222334
vt 0.897484 0.013943
vt 0.897442 0.012729
vt 0.932765 0.013340
vt 0.897490 0.243989
vt 0.897441 0.242820
vt 0.932768 0.243409
vt 0.897484 0.109597
vt 0.897442 0.108383
vt 0.932765 0.108994
vt 0.897490 0.207109
vt 0.897441 0.205940
vt 0.932768 0.206529
vt 0.897484 0.114911
vt 0.897442 0.113697
vt 0.932765 0.114308
vt 0.931531 0.890169
vt 0.897462 0.886448
vt 0.931515 0.882699
vt 0.067222 0.928570
vt 0.063501 0.962639
vt 0.059753 0.928585
vt 0.482121 0.886465
vt 0.494042 0.924071
vt 0.470195 0.924087
vt 0.237649 0.928616
vt 0.247891 0.961700
vt 0.227388 0.961659
vt 0.505035 0.928550
vt 0.515065 0.961721
vt 0.494990 0.961501
vt 0.897484 0.051141
vt 0.897442 0.049928
vt 0.932765 0.050539
vt 0.897490 0.186034
vt 0.897441 0.184865
vt 0.932768 0.185454
vt 0.897490 0.164960
vt 0.897441 0.163791
vt 0.932768 0.164380
vt 0.897485 0.056455
vt 0.897442 0.055242
vt 0.932765 0.055853
vt 0.897484 0.035199
vt 0.897442 0.033985
vt 0.932765 0.034596
vt 0.897490 0.249257
vt 0.897441 0.248088
vt 0.932768 0.248677
vt 0.025133 0.962646
vt 0.028854 0.928577
vt 0.032602 0.962630
vt 0.113399 0.928570
vt 0.109678 0.962639
vt 0.105930 0.928585
vt 0.288245 0.886495
vt 0.299646 0.924071
vt 0.276841 0.924146
vt 0.179277 0.886487
vt 0.191167 0.924124
vt 0.167390 0.924076
vt 0.650841 0.928641
vt 0.660639 0.961699
vt 0.641027 0.961709
vt 0.897478 0.323297
vt 0.897442 0.322103
vt 0.932761 0.322705
vt 0.854343 0.886517
vt 0.855559 0.886471
vt 0.854947 0.921797
vt 0.897478 0.296827
vt 0.897442 0.295633
vt 0.932761 0.296234
vt 0.859660 0.886516
vt 0.860877 0.886471
vt 0.860265 0.921797
vt 0.897478 0.302121
vt 0.897442 0.300927
vt 0.932762 0.301529
vt 0.891565 0.886516
vt 0.892782 0.886470
vt 0.892169 0.921796
vt 0.931531 0.820904
vt 0.897462 0.817182
vt 0.931515 0.813434
vt 0.897454 0.801903
vt 0.931523 0.805624
vt 0.897470 0.809373
vt 0.234493 0.886495
vt 0.245894 0.924070
vt 0.223089 0.924146
vt 0.627133 0.928642
vt 0.636931 0.961699
vt 0.617319 0.961709
vt 0.553930 0.928589
vt 0.564143 0.961700
vt 0.543700 0.961603
vt 0.886248 0.886516
vt 0.887464 0.886470
vt 0.886852 0.921797
vt 0.897478 0.318003
vt 0.897442 0.316809
vt 0.932762 0.317411
vt 0.897478 0.307415
vt 0.897442 0.306221
vt 0.932762 0.306823
vt 0.880930 0.886516
vt 0.882147 0.886471
vt 0.881535 0.921797
vt 0.864978 0.886517
vt 0.866194 0.886470
vt 0.865582 0.921796
vt 0.897478 0.291533
vt 0.897442 0.290339
vt 0.932762 0.290941
vt 0.897454 0.824991
vt 0.931523 0.828713
vt 0.897470 0.832461
vt 0.931531 0.774726
vt 0.897462 0.771005
vt 0.931515 0.767256
vt 0.856834 0.833363
vt 0.868508 0.871072
vt 0.845162 0.870879
vt 0.398359 0.886465
vt 0.410280 0.924071
vt 0.386434 0.924087
vt 0.408350 0.928550
vt 0.418379 0.961721
vt 0.398304 0.961501
vt 0.897490 0.254526
vt 0.897441 0.253357
vt 0.932768 0.253946
vt 0.897484 0.061769
vt 0.897442 0.060556
vt 0.932765 0.061166
vt 0.897484 0.067084
vt 0.897442 0.065870
vt 0.932765 0.066481
vt 0.897490 0.228183
vt 0.897441 0.227014
vt 0.932768 0.227603
vt 0.897490 0.170228
vt 0.897441 0.169059
vt 0.932768 0.169649
vt 0.897484 0.072398
vt 0.897442 0.071184
vt 0.932765 0.071795
vt 0.090310 0.928570
vt 0.086589 0.962638
vt 0.082841 0.928585
vt 0.013588 0.962646
vt 0.017310 0.928578
vt 0.021058 0.962631
vt 0.829415 0.833364
vt 0.841089 0.871072
vt 0.817743 0.870879
vt 0.537962 0.886465
vt 0.549883 0.924071
vt 0.526036 0.924087
vt 0.360007 0.928550
vt 0.370036 0.961722
vt 0.349961 0.961501
vt 0.897484 0.120225
vt 0.897442 0.119011
vt 0.932765 0.119622
vt 0.897490 0.212377
vt 0.897441 0.211208
vt 0.932768 0.211797
vt 0.897484 0.088340
vt 0.897442 0.087126
vt 0.932765 0.087737
vt 0.897490 0.259794
vt 0.897441 0.258625
vt 0.932768 0.259215
vt 0.897484 0.125539
vt 0.897442 0.124325
vt 0.932765 0.124936
vt 0.897490 0.265063
vt 0.897441 0.263894
vt 0.932768 0.264483
vt 0.897454 0.859624
vt 0.931523 0.863345
vt 0.897470 0.867094
vt 0.094398 0.962646
vt 0.098120 0.928577
vt 0.101868 0.962631
vt 0.489133 0.627045
vt 0.515323 0.627111
vt 0.502226 0.698401
vt 0.451559 0.762765
vt 0.473298 0.762685
vt 0.462418 0.829063
vt 0.799318 0.761238
vt 0.821980 0.761277
vt 0.810638 0.827596
vt 0.826193 0.290298
vt 0.826157 0.289221
vt 0.892578 0.289764
vt 0.826201 0.285123
vt 0.826156 0.284026
vt 0.892585 0.284579
vt 0.965935 0.966851
vt 0.967503 0.966876
vt 0.966711 0.979338
vt 0.973695 0.403232
vt 0.973707 0.401630
vt 0.986175 0.402442
vt 0.973695 0.408995
vt 0.973706 0.407393
vt 0.986176 0.408205
vt 0.973694 0.377005
vt 0.973719 0.375437
vt 0.986181 0.376229
vt 0.218727 0.880771
vt 0.231283 0.833212
vt 0.243843 0.880770
vt 0.214623 0.833212
vt 0.202066 0.880770
vt 0.189506 0.833213
vt 0.373056 0.879117
vt 0.382798 0.833255
vt 0.392496 0.879163
vt 0.368980 0.833277
vt 0.359239 0.879140
vt 0.349540 0.833233
vt 0.897353 0.718081
vt 0.897365 0.712063
vt 0.931962 0.715075
vt 0.897372 0.727871
vt 0.897353 0.722098
vt 0.931965 0.724989
vt 0.978364 0.763796
vt 0.973694 0.755991
vt 0.983040 0.756013
vt 0.973676 0.775413
vt 0.978349 0.767931
vt 0.983095 0.775400
vt 0.203847 0.619793
vt 0.213692 0.773876
vt 0.193999 0.774037
vt 0.724493 0.771591
vt 0.734358 0.614128
vt 0.744221 0.771601
vt 0.748221 0.771591
vt 0.758086 0.614128
vt 0.767949 0.771601
vt 0.041829 0.626951
vt 0.051674 0.781035
vt 0.031981 0.781196
vt 0.936903 0.264348
vt 0.965736 0.258743
vt 0.965722 0.270061
vt 0.964686 0.310627
vt 0.937042 0.305009
vt 0.964701 0.299300
vt 0.973760 0.233065
vt 0.984036 0.230502
vt 0.980009 0.234690
vt 0.821424 0.966869
vt 0.819263 0.974768
vt 0.817670 0.966924
vt 0.973766 0.117255
vt 0.985684 0.118929
vt 0.975106 0.121046
vt 0.981491 0.031192
vt 0.980017 0.034317
vt 0.973762 0.033807
vt 0.984918 0.016192
vt 0.986253 0.020028
vt 0.974337 0.018375
vt 0.978406 0.366352
vt 0.986254 0.364526
vt 0.986308 0.368337
vt 0.811826 0.973164
vt 0.810450 0.979418
vt 0.807608 0.969139
vt 0.979992 0.078288
vt 0.986259 0.078629
vt 0.978530 0.081268
vt 0.836825 0.973164
vt 0.835449 0.979417
vt 0.832608 0.969139
vt 0.979992 0.152940
vt 0.986259 0.153281
vt 0.978530 0.155919
vt 0.984918 0.041180
vt 0.986253 0.045016
vt 0.974337 0.043363
vt 0.978406 0.254561
vt 0.986254 0.252736
vt 0.986308 0.256547
vt 0.973760 0.245486
vt 0.984036 0.242922
vt 0.980009 0.247111
vt 0.783926 0.966869
vt 0.781764 0.974768
vt 0.780172 0.966924
vt 0.973766 0.104813
vt 0.985684 0.106486
vt 0.975106 0.108604
vt 0.907706 0.974647
vt 0.904582 0.973174
vt 0.905091 0.966919
vt 0.973760 0.270329
vt 0.984036 0.267765
vt 0.980009 0.271953
vt 0.883923 0.966869
vt 0.881762 0.974768
vt 0.880169 0.966924
vt 0.973766 0.129697
vt 0.985684 0.131370
vt 0.975106 0.133488
vt 0.895212 0.974647
vt 0.892087 0.973174
vt 0.892597 0.966919
vt 0.846424 0.966869
vt 0.844263 0.974768
vt 0.842670 0.966924
vt 0.973766 0.167023
vt 0.985684 0.168696
vt 0.975106 0.170814
vt 0.981491 0.056180
vt 0.980017 0.059305
vt 0.973762 0.058795
vt 0.973760 0.282750
vt 0.984036 0.280186
vt 0.980009 0.284375
vt 0.936900 0.274110
vt 0.965729 0.279827
vt 0.936906 0.285437
vt 0.979992 0.177824
vt 0.986259 0.178165
vt 0.978530 0.180804
vt 0.984918 0.066169
vt 0.986253 0.070004
vt 0.974337 0.068352
vt 0.978406 0.291825
vt 0.986254 0.289999
vt 0.986308 0.293810
vt 0.749328 0.973164
vt 0.747952 0.979418
vt 0.745110 0.969139
vt 0.978406 0.304246
vt 0.986254 0.302420
vt 0.986308 0.306231
vt 0.960189 0.978075
vt 0.956353 0.979410
vt 0.958006 0.967494
vt 0.761827 0.973164
vt 0.760451 0.979418
vt 0.757610 0.969139
vt 0.979992 0.140498
vt 0.986259 0.140839
vt 0.978530 0.143477
vt 0.980004 0.315315
vt 0.986308 0.318652
vt 0.975138 0.320371
vt 0.979987 0.191024
vt 0.986259 0.190607
vt 0.978530 0.193245
vt 0.922706 0.978075
vt 0.918871 0.979410
vt 0.921074 0.967201
vt 0.986254 0.314842
vt 0.932695 0.974647
vt 0.929570 0.973174
vt 0.930079 0.966919
vt 0.973760 0.332435
vt 0.984036 0.329871
vt 0.980009 0.334060
vt 0.858923 0.966869
vt 0.856762 0.974768
vt 0.855169 0.966924
vt 0.973766 0.204349
vt 0.985684 0.206022
vt 0.975106 0.208140
vt 0.973760 0.344856
vt 0.984036 0.342292
vt 0.980009 0.346481
vt 0.871423 0.966869
vt 0.869262 0.974768
vt 0.867669 0.966924
vt 0.973767 0.216791
vt 0.985684 0.218465
vt 0.975106 0.220582
vt 0.945189 0.974647
vt 0.942064 0.973174
vt 0.942574 0.966919
vt 0.981491 0.006204
vt 0.980017 0.009328
vt 0.973762 0.008818
vt 0.771426 0.966869
vt 0.769265 0.974768
vt 0.767672 0.966924
vt 0.973766 0.092371
vt 0.985684 0.094044
vt 0.975106 0.096162
vt 0.973760 0.357277
vt 0.984036 0.354713
vt 0.980010 0.358902
vt 0.359932 0.615758
vt 0.359050 0.432552
vt 0.360514 0.432457
vt 0.195138 0.615576
vt 0.194633 0.432393
vt 0.195938 0.432394
vt 0.201093 0.615576
vt 0.200589 0.432393
vt 0.201894 0.432394
vt 0.216669 0.615600
vt 0.215786 0.432394
vt 0.217250 0.432299
vt 0.826176 0.508117
vt 0.826123 0.489714
vt 0.883180 0.498918
vt 0.826119 0.485533
vt 0.826165 0.466348
vt 0.883173 0.475941
vt 0.311471 0.966857
vt 0.315631 0.982527
vt 0.307316 0.982526
vt 0.323718 0.966859
vt 0.327707 0.982507
vt 0.319731 0.982550
vt 0.947221 0.780419
vt 0.937027 0.760056
vt 0.957494 0.760069
vt 0.937076 0.900459
vt 0.947215 0.880895
vt 0.957477 0.900459
vt 0.436022 0.977790
vt 0.437259 0.968583
vt 0.443607 0.976151
vt 0.480063 0.976040
vt 0.486702 0.968560
vt 0.487941 0.977874
vt 0.973590 0.741638
vt 0.983640 0.741944
vt 0.973590 0.742165
vt 0.973590 0.854319
vt 0.983246 0.854026
vt 0.983223 0.854593
vt 0.973590 0.868699
vt 0.983246 0.868406
vt 0.983223 0.868973
vt 0.973590 0.712878
vt 0.983640 0.713184
vt 0.973590 0.713404
vt 0.973590 0.717671
vt 0.983640 0.717977
vt 0.973590 0.718197
vt 0.973590 0.801591
vt 0.983246 0.801298
vt 0.983223 0.801865
vt 0.973590 0.746432
vt 0.983640 0.746737
vt 0.973590 0.746958
vt 0.973590 0.873493
vt 0.983246 0.873200
vt 0.983223 0.873767
vt 0.973590 0.722465
vt 0.983640 0.722770
vt 0.973590 0.722991
vt 0.973590 0.859113
vt 0.983246 0.858819
vt 0.983223 0.859387
vt 0.973590 0.727258
vt 0.983640 0.727564
vt 0.973590 0.727784
vt 0.973590 0.863906
vt 0.983246 0.863613
vt 0.983223 0.864180
vt 0.973704 0.561282
vt 0.973696 0.559210
vt 0.984910 0.560241
vt 0.973710 0.579895
vt 0.973691 0.577907
vt 0.984911 0.578899
vt 0.201490 0.985041
vt 0.200243 0.966871
vt 0.202703 0.966852
vt 0.241955 0.985032
vt 0.239496 0.985050
vt 0.240708 0.966861
vt 0.221108 0.985041
vt 0.219860 0.966871
vt 0.222320 0.966852
vt 0.248494 0.985032
vt 0.246035 0.985050
vt 0.247247 0.966861
vt 0.511975 0.991376
vt 0.417519 0.761222
vt 0.465715 0.627003
vt 0.507808 0.991646
vt 0.116426 0.992835
vt 0.116410 0.992923
vt 0.116086 0.992902
vt 0.806186 0.213444
vt 0.265824 0.984378
vt 0.265691 0.984508
vt 0.265716 0.984204
vt 0.267084 0.984125
vt 0.267150 0.984479
vt 0.267033 0.984506
vt 0.503790 0.991655
vt 0.503559 0.991655
vt 0.503533 0.991376
vt 0.794802 0.827526
vt 0.794918 0.827393
vt 0.366615 0.432418
vt 0.212556 0.423315
vt 0.990429 0.415266
vt 0.874271 0.827247
vt 0.826067 0.314411
vt 0.271151 0.966940
vt 0.439617 0.627002
vt 0.983381 0.986885
vt 0.985151 0.550708
vt 0.465981 0.758374
vt 0.874797 0.828640
vt 0.936900 0.755505
vt 0.226850 0.241318
vt 0.037177 0.241184
vt 0.995572 0.411266
vt 0.874961 0.823228
vt 0.146168 0.991442
vt 0.141141 0.991376
vt 0.994370 0.419610
vt 0.985149 0.554932
vt 0.082510 0.626950
vt 0.805998 0.147005
vt 0.806631 0.147429
vt 0.876463 0.675163
vt 0.876641 0.675279
vt 0.266450 0.984089
vt 0.481409 0.758251
vt 0.397014 0.626851
vt 0.131585 0.765743
vt 0.020349 0.579382
vt 0.282935 0.984048
vt 0.282371 0.984098
vt 0.282259 0.966797
vt 0.271732 0.984674
vt 0.581872 0.423340
vt 0.417652 0.627189
vt 0.406361 0.241211
vt 0.465847 0.758226
vt 0.985016 0.531090
vt 0.973724 0.531090
vt 0.100700 0.766990
vt 0.100700 0.626965
vt 0.100700 0.627056
vt 0.100834 0.626868
vt 0.111992 0.767142
vt 0.100860 0.767107
vt 0.973751 0.596227
vt 0.973591 0.596344
vt 0.187390 0.619709
vt 0.176124 0.765952
vt 0.985016 0.535194
vt 0.973590 0.535212
vt 0.142977 0.761857
vt 0.187549 0.765738
vt 0.187416 0.765927
vt 0.806133 0.147429
vt 0.121360 0.991376
vt 0.126347 0.991376
vt 0.145453 0.992657
vt 0.145453 0.991625
vt 0.146005 0.991376
vt 0.131149 0.991510
vt 0.795318 0.761643
vt 0.209919 0.991629
vt 0.209944 0.992376
vt 0.209643 0.992435
vt 0.209650 0.992524
vt 0.209581 0.992263
vt 0.892226 0.314338
vt 0.130906 0.992246
vt 0.131310 0.991377
s 1
usemtl residential_014_baked.001
f 63/1/1 65/2/1 66/3/1
f 68/4/2 70/5/2 67/6/2
f 71/7/3 73/8/3 74/9/3
f 79/10/4 81/11/5 82/12/6
f 84/13/7 86/14/7 83/15/7
f 89/16/8 91/17/8 92/18/8
f 95/19/9 97/20/9 98/21/9
f 100/22/10 101/23/10 99/24/10
f 105/25/11 106/26/11 107/27/11
f 109/28/12 110/29/12 108/30/12
f 304/31/13 305/32/13 301/33/13
f 310/34/14 311/35/14 309/36/14
f 317/37/15 319/38/15 320/39/15
f 421/40/16 417/41/16 422/42/16
f 428/43/17 429/44/17 430/45/17
f 298/46/18 296/47/19 297/48/20
f 300/49/21 306/50/22 289/51/23
f 66/52/24 74/53/24 63/54/24
f 59/55/25 61/56/26 62/57/27
f 88/58/28 79/10/28 82/12/28
f 89/16/29 75/59/30 77/60/30
f 110/29/31 78/61/32 108/30/33
f 107/27/34 64/62/34 105/25/34
f 101/23/35 64/63/36 99/24/37
f 75/64/38 103/65/38 104/66/38
f 101/23/39 80/67/40 79/10/41
f 114/68/42 89/16/43 113/69/44
f 110/29/45 96/70/46 95/19/47
f 303/71/48 286/72/48 304/73/48
f 313/74/49 295/75/49 309/76/49
f 428/77/50 409/78/50 408/79/50
f 410/80/51 416/81/51 411/82/51
f 425/83/52 410/84/52 414/85/52
f 437/86/53 432/87/53 436/88/53
f 58/89/54 65/90/54 57/91/54
f 88/92/55 71/93/55 87/94/55
f 294/95/56 293/96/57 295/75/58
f 297/48/59 311/97/59 310/98/59
f 316/99/60 303/100/60 302/101/60
f 311/102/61 314/103/62 312/104/63
f 407/105/64 411/106/65 406/107/66
f 414/108/67 418/109/68 424/110/69
f 91/17/70 83/111/70 92/18/70
f 97/20/71 94/112/71 98/21/71
f 107/27/72 114/113/73 115/114/73
f 75/115/74 105/25/75 76/116/76
f 114/117/77 111/118/77 112/119/77
f 286/72/78 285/120/79 287/121/80
f 298/122/18 316/99/81 296/123/19
f 284/124/82 292/125/83 283/126/84
f 289/127/23 307/128/85 290/129/86
f 409/130/87 415/131/88 408/132/89
f 435/133/90 423/134/91 433/135/92
f 435/136/93 439/137/94 434/138/95
f 61/139/96 84/140/96 62/141/96
f 108/30/97 81/11/97 109/28/97
f 93/142/98 70/143/98 94/144/98
f 290/145/99 309/36/99 291/146/99
f 307/128/85 306/147/22 305/148/100
f 423/134/101 430/149/101 429/150/102
f 412/151/103 433/152/103 413/153/103
f 430/154/104 440/155/104 431/156/104
f 77/157/105 73/158/105 72/159/105
f 287/121/106 292/160/106 291/161/106
f 318/162/107 315/163/108 312/164/109
f 441/165/110 426/166/111 438/167/112
f 436/88/113 435/168/114 434/169/115
f 100/22/116 95/19/116 98/21/116
f 429/170/117 417/171/118 421/172/119
f 432/173/120 441/174/120 438/175/120
f 85/176/121 69/177/121 86/178/121
f 115/114/122 68/179/122 67/180/122
f 51/181/123 50/182/123 49/183/123
f 49/184/123 50/185/123 51/186/123
f 53/187/123 52/188/123 54/189/123
f 53/190/123 54/191/123 52/192/123
f 54/193/124 55/194/124 56/195/124
f 62/57/125 57/196/126 59/55/127
f 59/197/127 57/198/126 66/199/128
f 58/200/129 68/201/130 65/202/131
f 62/57/125 60/203/132 57/196/126
f 58/200/129 60/204/133 68/201/130
f 61/205/26 59/206/25 73/207/134
f 59/197/127 66/199/128 74/208/135
f 60/209/132 85/210/136 69/211/137
f 60/209/132 62/212/125 85/210/136
f 61/205/26 73/207/134 84/213/138
f 65/214/72 115/114/72 68/179/72
f 65/214/139 67/180/139 70/215/139
f 65/214/72 107/27/72 115/114/73
f 93/216/140 64/217/36 63/218/141
f 97/219/142 94/220/142 67/221/142
f 71/222/72 70/215/72 84/223/72
f 97/219/142 67/221/142 114/224/142
f 79/225/143 87/226/143 72/227/143
f 77/157/72 73/158/72 84/223/72
f 82/228/144 79/225/144 72/227/144
f 77/157/72 84/223/72 92/229/72
f 75/230/72 105/231/72 107/232/72
f 81/233/138 103/234/138 75/235/138
f 109/236/8 92/237/8 91/238/8
f 104/239/145 102/240/146 76/116/147
f 108/30/33 78/61/32 88/58/148
f 88/241/148 78/242/32 86/243/149
f 78/244/150 91/245/151 83/246/152
f 108/30/33 88/58/148 82/12/28
f 81/233/5 80/247/153 103/234/154
f 90/248/155 113/69/156 112/249/157
f 96/250/158 109/236/158 91/238/158
f 110/251/159 89/252/159 91/253/159
f 96/250/160 91/238/161 90/254/155
f 93/255/140 99/24/37 64/63/36
f 64/256/143 100/257/143 106/258/143
f 93/255/162 98/21/162 99/24/162
f 97/259/131 111/260/131 114/261/131
f 97/259/163 96/262/164 111/260/165
f 80/263/166 102/264/146 104/265/145
f 80/266/167 100/267/167 106/268/167
f 100/267/131 114/261/131 106/268/131
f 80/266/166 106/268/168 102/269/146
f 96/270/160 90/271/155 112/272/157
f 117/273/169 116/274/170 118/275/171
f 116/276/170 117/277/169 118/278/171
f 119/279/172 121/280/172 120/281/173
f 121/282/172 119/283/172 120/284/173
f 122/285/123 123/286/138 124/287/138
f 123/288/138 122/289/123 124/290/138
f 125/291/142 126/292/142 127/293/142
f 126/294/142 125/295/142 127/296/142
f 128/297/123 129/298/123 130/299/123
f 129/300/123 128/301/123 130/302/123
f 133/303/123 131/304/123 132/305/123
f 131/306/123 133/307/123 132/308/123
f 136/309/174 135/310/175 134/311/176
f 134/312/176 135/313/175 136/314/174
f 139/315/123 137/316/123 138/317/123
f 138/318/123 137/319/123 139/320/123
f 140/321/177 141/322/178 142/323/179
f 141/324/178 140/325/177 142/326/179
f 144/327/180 145/328/181 143/329/181
f 145/330/181 144/331/180 143/332/181
f 148/333/142 147/334/142 146/335/142
f 147/336/142 148/337/142 146/338/142
f 150/339/123 149/340/123 151/341/123
f 149/342/123 150/343/123 151/344/123
f 154/345/123 152/346/123 153/347/123
f 152/348/123 154/349/123 153/350/123
f 155/351/123 156/352/123 157/353/123
f 155/354/123 157/355/123 156/356/123
f 158/357/123 159/358/123 160/359/123
f 158/360/123 160/361/123 159/362/123
f 162/363/123 161/364/123 163/365/123
f 162/366/123 163/367/123 161/368/123
f 162/369/182 165/370/182 164/371/182
f 167/372/123 166/373/123 168/374/123
f 167/375/123 168/376/123 166/377/123
f 170/378/123 169/379/123 171/380/138
f 169/381/123 170/382/123 171/383/138
f 173/384/123 174/385/123 172/386/123
f 173/387/123 172/388/123 174/389/123
f 177/390/142 175/391/142 176/392/142
f 176/393/142 175/394/142 177/395/142
f 180/396/123 178/397/123 179/398/123
f 180/399/123 179/400/123 178/401/123
f 180/402/182 181/403/182 182/404/182
f 183/405/123 185/406/123 184/407/123
f 183/408/123 184/409/123 185/410/123
f 186/411/123 188/412/123 187/413/123
f 186/414/123 187/415/123 188/416/123
f 189/417/123 190/418/123 191/419/123
f 189/420/123 191/421/123 190/422/123
f 193/423/143 192/424/143 194/425/143
f 194/426/143 192/427/143 193/428/143
f 197/429/183 196/430/183 195/431/183
f 197/432/123 198/433/123 199/434/123
f 197/435/123 199/436/123 198/437/123
f 200/438/123 202/439/123 201/440/123
f 200/441/123 201/442/123 202/443/123
f 203/444/123 205/445/123 204/446/123
f 203/447/123 204/448/123 205/449/123
f 207/450/123 208/451/123 206/452/123
f 207/453/123 206/454/123 208/455/123
f 210/456/184 209/457/123 211/458/185
f 211/459/185 209/460/123 210/461/184
f 213/462/123 212/463/123 214/464/123
f 213/465/123 214/466/123 212/467/123
f 213/468/186 215/469/186 216/470/186
f 217/471/123 219/472/123 218/473/123
f 217/474/123 218/475/123 219/476/123
f 220/477/123 222/478/123 221/479/123
f 220/480/123 221/481/123 222/482/123
f 223/483/123 225/484/123 224/485/123
f 223/486/123 224/487/123 225/488/123
f 228/489/138 226/490/138 227/491/138
f 227/492/138 226/493/138 228/494/138
f 231/495/187 230/496/188 229/497/60
f 230/498/188 231/499/187 229/500/60
f 232/501/123 233/502/123 234/503/123
f 232/504/123 234/505/123 233/506/123
f 237/507/123 235/508/123 236/509/123
f 235/510/123 237/511/123 236/512/123
f 238/513/123 239/514/123 240/515/123
f 238/516/123 240/517/123 239/518/123
f 241/519/131 243/520/131 242/521/131
f 243/522/131 241/523/131 242/524/131
f 245/525/142 244/526/142 246/527/142
f 246/528/142 244/529/142 245/530/142
f 247/531/123 248/532/123 249/533/123
f 248/534/123 247/535/123 249/536/123
f 250/537/123 252/538/123 251/539/123
f 250/540/123 251/541/123 252/542/123
f 253/543/123 254/544/123 255/545/123
f 253/546/123 255/547/123 254/548/123
f 256/549/123 258/550/123 257/551/123
f 256/552/123 257/553/123 258/554/123
f 260/555/123 261/556/123 259/557/123
f 260/558/123 259/559/123 261/560/123
f 263/561/123 262/562/123 264/563/123
f 263/564/123 264/565/123 262/566/123
f 266/567/123 267/568/123 265/569/123
f 265/570/123 267/571/123 266/572/123
f 269/573/123 268/574/123 270/575/123
f 268/576/123 269/577/123 270/578/123
f 272/579/138 271/580/138 273/581/138
f 271/582/138 272/583/138 273/584/138
f 276/585/131 274/586/131 275/587/131
f 274/588/131 276/589/131 275/590/131
f 277/591/138 279/592/138 278/593/138
f 279/594/138 277/595/138 278/596/138
f 280/597/123 281/598/123 282/599/123
f 280/600/123 282/601/123 281/602/123
f 284/603/82 283/604/84 301/605/189
f 284/603/82 287/121/138 292/160/138
f 284/603/82 286/72/138 287/121/138
f 283/606/190 310/34/191 296/607/192
f 283/606/193 291/146/193 310/34/193
f 301/605/194 303/71/194 286/72/194
f 302/101/195 283/608/190 296/123/192
f 285/609/196 303/100/197 321/610/198
f 285/609/196 321/610/198 293/611/57
f 291/146/199 285/612/196 294/613/56
f 285/614/196 293/96/57 294/95/56
f 299/615/200 290/145/201 307/616/202
f 291/146/199 294/613/56 309/36/203
f 289/127/23 306/147/22 307/128/85
f 309/617/204 313/618/204 310/98/204
f 313/618/205 295/619/206 293/620/207
f 311/97/131 298/46/131 297/48/131
f 320/621/208 316/622/208 298/46/208
f 302/101/195 296/123/192 316/99/209
f 304/31/210 306/50/210 300/49/210
f 299/623/200 307/624/202 305/32/211
f 308/625/212 314/626/62 319/38/213
f 308/625/212 318/162/214 312/164/63
f 313/627/215 312/628/109 315/629/108
f 308/630/212 312/631/63 314/632/62
f 311/102/216 320/633/217 314/634/218
f 322/635/219 323/636/220 324/637/221
f 323/638/220 322/639/219 324/640/221
f 325/641/123 326/642/123 327/643/123
f 325/644/123 327/645/123 326/646/123
f 329/647/60 330/648/60 328/649/60
f 330/650/60 329/651/60 328/652/60
f 332/653/123 333/654/123 331/655/123
f 333/656/123 332/657/123 331/658/123
f 336/659/123 335/660/123 334/661/123
f 335/662/123 336/663/123 334/664/123
f 339/665/123 338/666/123 337/667/123
f 338/668/123 339/669/123 337/670/123
f 342/671/222 340/672/223 341/673/224
f 341/674/224 340/675/223 342/676/222
f 345/677/225 343/678/225 344/679/226
f 343/680/225 345/681/225 344/682/226
f 347/683/227 346/684/227 348/685/228
f 346/686/227 347/687/227 348/688/228
f 350/689/60 349/690/60 351/691/60
f 351/692/60 349/693/60 350/694/60
f 354/695/123 352/696/123 353/697/123
f 353/698/123 352/699/123 354/700/123
f 356/701/123 357/702/123 355/703/123
f 355/704/123 357/705/123 356/706/123
f 359/707/123 360/708/123 358/709/123
f 358/710/123 360/711/123 359/712/123
f 363/713/123 361/714/123 362/715/123
f 362/716/123 361/717/123 363/718/123
f 366/719/123 365/720/123 364/721/123
f 364/722/123 365/723/123 366/724/123
f 369/725/123 368/726/123 367/727/123
f 367/728/123 368/729/123 369/730/123
f 370/731/123 372/732/123 371/733/123
f 370/734/123 371/735/123 372/736/123
f 374/737/229 373/738/123 375/739/230
f 375/740/230 373/741/123 374/742/229
f 377/743/231 376/744/123 378/745/232
f 378/746/232 376/747/123 377/748/231
f 379/749/233 380/750/234 381/751/235
f 380/752/234 379/753/233 381/754/235
f 383/755/236 382/756/236 384/757/237
f 382/758/236 383/759/236 384/760/237
f 385/761/123 387/762/123 386/763/123
f 387/764/123 385/765/123 386/766/123
f 389/767/123 388/768/123 390/769/123
f 389/770/123 390/771/123 388/772/123
f 392/773/138 391/774/138 393/775/138
f 391/776/138 392/777/138 393/778/138
f 396/779/138 394/780/138 395/781/138
f 394/782/138 396/783/138 395/784/138
f 399/785/138 397/786/138 398/787/138
f 397/788/138 399/789/138 398/790/138
f 401/791/138 400/792/138 402/793/138
f 400/794/138 401/795/138 402/796/138
f 403/797/123 404/798/123 405/799/123
f 403/800/123 405/801/123 404/802/123
f 407/803/238 422/42/239 417/41/240
f 407/803/238 418/804/241 422/42/239
f 406/805/242 412/806/243 433/807/244
f 407/803/238 417/41/240 411/82/245
f 406/805/242 433/807/244 423/808/246
f 417/171/118 428/77/247 408/79/248
f 409/809/249 429/810/249 430/154/249
f 416/811/250 417/812/118 408/132/248
f 416/811/250 408/132/248 415/131/251
f 435/813/252 415/814/88 409/815/87
f 413/153/253 411/816/253 415/817/253
f 413/818/254 425/819/254 420/820/254
f 413/818/255 420/820/256 414/821/257
f 424/822/69 425/83/258 414/85/67
f 424/823/69 421/824/259 425/825/258
f 419/826/260 420/827/260 421/824/260
f 406/828/242 423/829/246 421/172/261
f 421/172/261 423/829/246 429/170/262
f 426/830/111 432/831/263 437/832/264
f 435/136/93 430/154/143 440/155/265
f 426/830/111 441/833/110 432/831/263
f 438/834/112 439/835/266 431/836/267
f 435/136/93 440/155/265 439/137/94
f 438/837/112 434/838/268 439/839/266
f 426/840/111 436/841/269 434/838/268
f 438/837/112 426/840/111 434/838/268
f 442/842/72 443/843/72 444/844/123
f 443/845/72 442/846/72 444/847/123
f 446/848/123 445/849/123 447/850/123
f 446/851/123 447/852/123 445/853/123
f 448/854/123 450/855/131 449/856/131
f 450/857/131 448/858/123 449/859/131
f 451/860/123 452/861/123 453/862/123
f 452/863/123 451/864/123 453/865/123
f 454/866/123 456/867/123 455/868/123
f 456/869/123 454/870/123 455/871/123
f 457/872/123 459/873/123 458/874/123
f 459/875/123 457/876/123 458/877/123
f 461/878/123 460/879/123 462/880/123
f 461/881/123 462/882/123 460/883/123
f 465/884/72 464/885/72 463/886/72
f 464/887/72 465/888/72 463/889/72
f 468/890/60 466/891/60 467/892/60
f 466/893/60 468/894/60 467/895/60
f 470/896/72 469/897/72 471/898/72
f 471/899/72 469/900/72 470/901/72
f 472/902/123 473/903/123 474/904/123
f 472/905/123 474/906/123 473/907/123
f 475/908/72 476/909/72 477/910/72
f 476/911/72 475/912/72 477/913/72
f 479/914/123 480/915/123 478/916/123
f 479/917/123 478/918/123 480/919/123
f 482/920/123 483/921/123 481/922/123
f 482/923/123 481/924/123 483/925/123
f 486/926/123 484/927/123 485/928/123
f 486/929/123 485/930/123 484/931/123
f 487/932/123 488/933/123 489/934/123
f 487/935/123 489/936/123 488/937/123
f 491/938/123 490/939/123 492/940/123
f 491/941/123 492/942/123 490/943/123
f 495/944/270 493/945/271 494/946/272
f 494/947/272 493/948/271 495/949/270
f 498/950/138 497/951/138 496/952/138
f 496/953/138 497/954/138 498/955/138
f 499/956/123 501/957/123 500/958/123
f 499/959/123 500/960/123 501/961/123
f 503/962/72 502/963/72 504/964/72
f 502/965/72 503/966/72 504/967/72
f 505/968/72 506/969/72 507/970/72
f 506/971/72 505/972/72 507/973/72
f 509/974/123 508/975/123 510/976/123
f 509/977/123 510/978/123 508/979/123
f 509/980/182 512/981/182 511/982/182
f 514/983/123 513/984/123 515/985/123
f 513/986/123 514/987/123 515/988/123
f 517/989/123 518/990/123 516/991/123
f 518/992/123 517/993/123 516/994/123
f 520/995/123 521/996/123 519/997/123
f 521/998/123 520/999/123 519/1000/123
f 523/1001/143 522/1002/143 524/1003/143
f 524/1004/143 522/1005/143 523/1006/143
f 527/1007/273 526/1008/273 525/1009/273
f 527/1010/123 529/1011/123 528/1012/123
f 527/1013/123 528/1014/123 529/1015/123
f 530/1016/123 532/1017/123 531/1018/123
f 532/1019/123 530/1020/123 531/1021/123
f 535/1022/123 533/1023/123 534/1024/123
f 533/1025/123 535/1026/123 534/1027/123
f 538/1028/123 537/1029/123 536/1030/123
f 537/1031/123 538/1032/123 536/1033/123
f 540/1034/143 539/1035/143 541/1036/143
f 541/1037/143 539/1038/143 540/1039/143
f 544/1040/123 542/1041/123 543/1042/123
f 544/1043/123 543/1044/123 542/1045/123
f 544/1046/186 546/1047/186 545/1048/186
f 548/1049/123 547/1050/123 549/1051/123
f 547/1052/123 548/1053/123 549/1054/123
f 552/1055/123 551/1056/123 550/1057/123
f 551/1058/123 552/1059/123 550/1060/123
f 555/1061/123 554/1062/123 553/1063/123
f 554/1064/123 555/1065/123 553/1066/123
f 558/1067/274 556/1068/275 557/1069/276
f 557/1070/276 556/1071/275 558/1072/274
f 561/1073/183 560/1074/183 559/1075/183
f 561/1076/123 563/1077/123 562/1078/123
f 561/1079/123 562/1080/123 563/1081/123
f 566/1082/123 565/1083/123 564/1084/123
f 565/1085/123 566/1086/123 564/1087/123
f 569/1088/123 567/1089/123 568/1090/123
f 567/1091/123 569/1092/123 568/1093/123
f 571/1094/123 570/1095/123 572/1096/123
f 570/1097/123 571/1098/123 572/1099/123
f 574/1100/131 573/1101/131 575/1102/131
f 575/1103/131 573/1104/131 574/1105/131
f 577/1106/123 576/1107/123 578/1108/123
f 577/1109/123 578/1110/123 576/1111/123
f 577/1112/277 580/1113/277 579/1114/277
f 581/1115/123 582/1116/123 583/1117/123
f 582/1118/123 581/1119/123 583/1120/123
f 585/1121/123 584/1122/123 586/1123/123
f 584/1124/123 585/1125/123 586/1126/123
f 587/1127/123 589/1128/123 588/1129/123
f 589/1130/123 587/1131/123 588/1132/123
f 592/1133/278 591/1134/279 590/1135/280
f 590/1136/280 591/1137/279 592/1138/278
f 594/1139/123 593/1140/123 595/1141/123
f 594/1142/123 595/1143/123 593/1144/123
f 594/1145/277 596/1146/277 597/1147/277
f 600/1148/123 598/1149/123 599/1150/123
f 598/1151/123 600/1152/123 599/1153/123
f 603/1154/123 602/1155/123 601/1156/123
f 602/1157/123 603/1158/123 601/1159/123
f 605/1160/123 604/1161/123 606/1162/123
f 604/1163/123 605/1164/123 606/1165/123
f 608/1166/142 609/1167/142 607/1168/142
f 607/1169/142 609/1170/142 608/1171/142
f 610/1172/281 611/1173/281 612/1174/281
f 614/1175/123 613/1176/131 612/1177/131
f 613/1178/131 614/1179/123 612/1180/131
f 617/1181/123 615/1182/123 616/1183/123
f 615/1184/123 617/1185/123 616/1186/123
f 619/1187/123 620/1188/123 618/1189/123
f 620/1190/123 619/1191/123 618/1192/123
f 622/1193/123 621/1194/123 623/1195/123
f 621/1196/123 622/1197/123 623/1198/123
f 625/1199/123 626/1200/123 624/1201/123
f 624/1202/123 626/1203/123 625/1204/123
f 627/1205/138 629/1206/138 628/1207/138
f 628/1208/138 629/1209/138 627/1210/138
f 630/1211/282 632/1212/123 631/1213/283
f 632/1214/123 630/1215/282 631/1216/283
f 633/1217/284 634/1218/285 635/1219/286
f 634/1220/285 633/1221/284 635/1222/286
f 636/1223/123 637/1224/123 638/1225/123
f 637/1226/123 636/1227/123 638/1228/123
f 640/1229/123 641/1230/123 639/1231/123
f 641/1232/123 640/1233/123 639/1234/123
f 642/1235/287 643/1236/288 644/1237/289
f 643/1238/288 642/1239/287 644/1240/289
f 1/1241/290 645/1242/291 4/1243/292
f 1/1244/290 4/1245/292 2/1246/293
f 2/1247/293 4/1248/292 3/1249/294
f 3/1250/295 645/1251/291 1/1252/290
f 7/1253/296 8/1254/297 5/1255/298
f 5/1256/298 8/1257/297 9/1258/299
f 5/1259/298 9/1260/299 6/1261/300
f 6/1262/300 9/1263/299 7/1264/301
f 10/1265/302 13/1266/303 11/1267/304
f 11/1268/304 13/1269/303 12/1270/305
f 12/1271/306 14/1272/307 10/1273/302
f 10/1274/302 14/1275/307 13/1276/303
f 16/1277/308 18/1278/309 646/1279/310
f 16/1280/308 646/1281/310 17/1282/311
f 17/1283/311 646/1284/310 15/1285/312
f 15/1286/313 18/1287/309 16/1288/308
f 20/1289/290 648/1290/291 647/1291/292
f 20/1292/290 647/1293/292 21/1294/293
f 21/1295/293 647/1296/292 19/1297/294
f 19/1298/295 648/1299/291 20/1300/290
f 23/1301/308 649/1302/310 24/1303/314
f 24/1304/314 649/1305/310 22/1306/312
f 22/1307/313 25/1308/309 23/1309/308
f 23/1310/308 25/1311/309 649/1312/310
f 650/1313/315 651/1314/315 629/1315/315
f 26/1316/304 30/1317/303 27/1318/305
f 27/1319/306 29/1320/307 28/1321/302
f 28/1322/302 29/1323/307 30/1324/303
f 28/1325/302 30/1326/303 26/1327/304
f 31/1328/298 34/1329/297 35/1330/299
f 33/1331/296 34/1332/297 31/1333/298
f 31/1334/298 35/1335/299 32/1336/300
f 32/1337/300 35/1338/299 33/1339/301
f 36/1340/316 39/1341/317 652/1342/318
f 652/1343/318 39/1344/317 37/1345/319
f 37/1346/320 38/1347/321 36/1348/316
f 36/1340/316 38/1349/321 39/1341/317
f 42/1350/313 654/1351/309 40/1352/308
f 40/1353/308 654/1354/309 653/1355/310
f 40/1356/308 653/1357/310 41/1358/311
f 41/1359/311 653/1360/310 42/1361/312
f 44/1362/290 655/1363/291 656/1364/292
f 44/1365/290 656/1366/292 45/1367/293
f 45/1368/293 656/1369/292 43/1370/294
f 43/1371/295 655/1372/291 44/1373/290
f 46/1374/313 658/1375/309 47/1376/308
f 47/1377/308 657/1378/310 48/1379/311
f 48/1380/311 657/1381/310 46/1382/312
f 47/1383/308 658/1384/309 657/1385/310
f 659/1386/123 661/1387/123 660/1388/123
f 659/1389/123 660/1390/123 661/1391/123
f 662/1392/123 664/1393/123 663/1394/123
f 662/1395/123 663/1396/123 664/1397/123
f 666/1398/60 667/1399/60 665/1400/60
f 667/1401/60 666/1402/60 665/1403/60
f 668/1404/123 670/1405/123 669/1406/123
f 668/1407/123 669/1408/123 670/1409/123
f 671/1410/322 673/1411/323 672/1412/324
f 673/1413/323 671/1414/322 672/1415/324
f 674/1416/60 675/1417/60 676/1418/60
f 676/1419/60 675/1420/60 674/1421/60
f 678/1422/325 679/1423/326 677/1424/327
f 679/1425/326 678/1426/325 677/1427/327
f 681/1428/328 680/1429/329 682/1430/329
f 680/1431/329 681/1432/328 682/1433/329
f 684/1434/131 685/1435/131 683/1436/131
f 685/1437/131 684/1438/131 683/1439/131
f 687/1440/131 688/1441/131 686/1442/131
f 688/1443/131 687/1444/131 686/1445/131
f 689/1446/138 691/1447/138 690/1448/138
f 691/1449/138 689/1450/138 690/1451/138
f 693/1452/123 692/1453/123 694/1454/123
f 692/1455/123 693/1456/123 694/1457/123
f 695/1458/138 696/1459/138 697/1460/138
f 696/1461/138 695/1462/138 697/1463/138
f 698/1464/123 699/1465/123 700/1466/123
f 700/1467/123 699/1468/123 698/1469/123
f 701/1470/330 702/1471/331 703/1472/331
f 703/1473/331 702/1474/331 701/1475/330
f 63/1/332 64/1476/332 65/2/332
f 68/4/333 69/1477/333 70/5/333
f 71/7/334 72/1478/334 73/8/334
f 79/10/4 80/67/153 81/11/5
f 84/13/335 85/1479/335 86/14/335
f 89/16/336 90/248/155 91/17/161
f 95/19/337 96/70/164 97/20/163
f 100/22/338 80/67/40 101/23/39
f 105/25/339 102/240/146 106/26/168
f 109/28/340 96/70/46 110/29/45
f 290/129/341 291/1480/341 292/1481/341
f 290/129/342 292/1481/342 288/1482/342
f 290/129/343 288/1482/343 289/127/343
f 306/50/344 301/33/344 305/32/344
f 301/33/345 302/101/345 304/31/345
f 302/101/60 303/100/60 304/31/60
f 312/631/346 313/1483/346 311/35/346
f 313/1483/347 309/36/347 311/35/347
f 321/610/348 316/99/348 317/37/348
f 317/37/349 318/162/349 319/38/349
f 320/39/350 321/610/350 317/37/350
f 414/1484/351 410/80/351 411/82/351
f 411/82/352 412/1485/352 413/1486/352
f 411/82/353 413/1486/353 414/1484/353
f 422/42/239 418/1487/241 419/1488/354
f 419/1488/355 420/1489/355 422/42/355
f 420/1489/356 421/40/356 422/42/356
f 430/45/357 431/1490/357 432/1491/357
f 430/45/358 432/1491/358 427/1492/358
f 430/45/359 427/1492/359 428/43/359
f 435/1493/252 433/152/360 415/1494/88
f 300/49/361 301/33/361 306/50/361
f 66/52/362 71/1495/362 74/53/362
f 88/58/363 87/1496/363 79/10/363
f 89/16/73 92/18/73 75/59/73
f 107/27/364 65/214/364 64/62/364
f 75/64/74 76/1497/76 103/65/365
f 114/68/366 90/248/366 89/16/366
f 303/71/367 285/120/79 286/72/78
f 313/74/368 294/95/368 295/75/368
f 406/107/66 418/1498/369 407/105/64
f 428/77/370 427/1499/370 409/78/370
f 410/80/371 417/41/118 416/81/250
f 437/86/372 427/1500/372 432/87/372
f 74/1501/373 73/207/373 59/206/373
f 58/89/374 66/1502/374 65/90/374
f 88/92/375 72/1503/375 71/93/375
f 83/1504/376 86/243/376 78/242/376
f 297/48/377 296/47/377 311/97/377
f 316/99/60 321/610/60 303/100/60
f 319/38/213 318/162/214 308/625/212
f 407/105/378 412/1505/378 411/106/378
f 414/108/379 419/1506/379 418/109/379
f 91/17/380 84/1507/380 83/111/380
f 97/20/381 93/1508/381 94/112/381
f 107/27/382 106/26/382 114/113/382
f 75/115/383 102/240/383 105/25/383
f 114/117/42 113/1509/44 111/118/384
f 298/122/385 317/37/385 316/99/385
f 284/124/138 288/1510/138 292/125/138
f 320/633/217 319/1511/386 314/634/218
f 420/820/256 419/1512/387 414/821/257
f 61/139/388 85/1513/388 84/140/388
f 108/30/389 82/12/389 81/11/389
f 93/142/390 67/1514/390 70/143/390
f 80/247/153 104/1515/391 103/234/154
f 290/145/392 310/34/392 309/36/392
f 289/1516/393 288/1517/394 299/615/395
f 412/151/396 415/1494/396 433/152/396
f 430/154/397 439/137/94 440/155/265
f 77/157/30 75/115/30 73/158/72
f 293/96/398 321/1518/398 320/1519/398
f 287/121/399 285/120/399 292/160/399
f 318/162/400 317/37/400 315/163/400
f 425/1520/401 421/40/401 420/1489/401
f 69/1521/402 68/201/402 60/204/402
f 58/1522/129 57/196/403 60/203/133
f 100/22/404 99/24/404 95/19/404
f 96/262/164 112/1523/405 111/260/165
f 283/608/84 302/101/406 301/33/189
f 299/623/395 305/32/407 304/31/408
f 429/170/117 428/77/247 417/171/118
f 432/173/409 431/836/409 441/174/409
f 85/176/410 70/1524/410 69/177/410
f 115/114/73 114/113/73 68/179/72
f 300/1525/411 289/1526/393 299/1527/395
f 437/86/264 436/88/269 426/1528/111
f 71/222/412 66/1529/412 65/214/412
f 65/214/413 68/179/413 67/180/413
f 70/215/72 71/222/72 65/214/72
f 67/6/414 93/216/140 63/218/141
f 67/6/415 63/218/415 65/1530/415
f 84/223/416 73/158/416 72/159/416
f 84/223/417 72/159/417 71/222/417
f 70/215/418 85/1531/418 84/223/418
f 72/1478/419 88/241/148 86/243/149
f 72/1478/420 86/243/420 84/1532/420
f 75/1533/143 81/1534/143 72/227/143
f 81/1534/421 82/228/421 72/227/421
f 101/1535/39 79/1536/41 82/1537/60
f 82/1537/9 81/1538/9 75/230/9
f 101/1535/422 82/1537/423 75/230/424
f 106/1539/8 100/1540/8 107/232/8
f 107/232/425 100/1540/426 101/1535/422
f 101/1535/422 75/230/424 107/232/425
f 75/235/138 109/236/138 81/233/138
f 109/236/427 75/235/427 92/237/427
f 91/245/151 78/244/150 109/1541/428
f 78/244/150 110/1542/429 109/1541/428
f 91/253/143 109/1543/143 110/251/143
f 110/251/430 114/1544/431 89/252/432
f 105/1545/143 64/256/143 106/258/143
f 64/256/143 101/1546/143 100/257/143
f 100/267/433 98/1547/433 97/259/433
f 114/261/131 100/267/131 97/259/131
f 110/251/430 95/1548/434 114/1544/431
f 95/1548/435 97/1549/435 114/1544/435
f 283/606/436 292/1550/436 291/146/436
f 286/72/138 284/603/82 301/605/189
f 301/605/437 302/1551/437 303/71/437
f 290/145/201 299/615/200 288/1517/438
f 320/621/439 311/97/440 293/620/207
f 311/97/441 310/98/441 313/618/441
f 293/620/207 311/97/440 313/618/205
f 298/46/131 311/97/131 320/621/131
f 320/621/442 321/1552/442 316/622/442
f 300/49/411 299/623/395 304/31/408
f 304/31/443 305/32/443 306/50/443
f 313/1553/444 315/1554/444 311/102/444
f 315/1554/445 318/1555/445 320/633/445
f 311/102/446 315/1554/446 320/633/446
f 318/1555/447 319/1511/447 320/633/447
f 430/154/448 435/136/448 409/809/448
f 409/809/449 428/1556/449 429/810/449
f 411/816/450 416/1557/250 415/817/251
f 425/1558/451 413/1559/451 412/1560/451
f 412/1560/452 411/1561/452 410/1562/452
f 412/1560/453 410/1562/453 425/1558/453
f 424/823/69 419/826/454 421/824/259
f 422/1563/455 406/828/455 421/172/455
f 435/133/90 430/149/456 423/134/91
f 430/154/457 435/136/114 436/1564/113
f 432/1565/458 430/154/458 436/1564/458
