# Blender 4.5.0
# www.blender.org
mtllib residential_012.lod2.mtl
o residential_012
v -2.212418 0.928326 -3.337935
v -2.360554 0.844413 -3.384404
v -2.154917 0.712224 -3.366626
v -2.275042 0.364656 -3.359284
v -2.251109 0.391082 -3.389283
v -2.101476 0.844413 -3.384404
v -1.992031 0.391083 -3.389283
v -2.015964 0.364656 -3.359284
v -1.797893 0.928325 -3.337935
v -1.946030 0.844412 -3.384404
v -1.740393 0.712224 -3.366625
v -1.860518 0.364655 -3.359283
v -1.836584 0.391083 -3.389283
v -1.663834 0.904544 -3.350079
v -1.386344 0.733894 -3.379430
v -1.531709 0.955904 -3.363293
v -1.601440 0.364655 -3.359283
v -1.577505 0.391083 -3.389283
v -1.531504 0.844413 -3.384404
v -1.325866 0.712224 -3.366625
v -1.383367 0.928325 -3.337935
v -1.422058 0.391082 -3.389283
v -1.445992 0.364656 -3.359284
v -1.124289 0.928325 -3.337935
v -1.272425 0.844413 -3.384404
v -0.971819 0.733894 -3.379430
v -1.186913 0.364656 -3.359284
v -1.162980 0.391082 -3.389283
v 1.370174 0.844413 -3.384404
v 1.575811 0.712224 -3.366625
v 1.518310 0.928324 -3.337934
v 1.479619 0.391083 -3.389283
v 1.455685 0.364655 -3.359283
v 1.777388 0.928324 -3.337934
v 1.629252 0.844413 -3.384404
v 1.929859 0.733894 -3.379430
v 1.714764 0.364655 -3.359283
v 1.738697 0.391083 -3.389283
v 1.890153 0.949124 -3.359284
v 1.866219 0.922697 -3.389283
v 1.675058 0.579886 -3.379430
v 2.191914 0.928325 -3.337935
v 2.043778 0.844413 -3.384404
v 2.344384 0.733894 -3.379430
v 2.129289 0.364655 -3.359283
v 2.153223 0.391083 -3.389283
v 2.304678 0.949124 -3.359283
v 2.280745 0.922697 -3.389283
v 2.089584 0.579886 -3.379430
v 2.242054 0.385454 -3.337935
v 2.443631 0.601556 -3.366626
v 2.563756 0.949124 -3.359283
v 2.539823 0.922697 -3.389283
v -3.625000 0.011927 3.625000
v -3.625000 -0.000000 -3.625000
v 3.464438 0.707350 0.811792
v 0.708737 0.111928 -2.528643
v 2.325797 6.401333 0.389284
v -2.026720 6.401333 0.068533
v -3.165217 0.707350 1.010813
v 3.175574 0.076466 3.000840
v 3.175574 0.389596 -2.503211
v -2.816932 6.245330 -2.724620
v 3.113254 6.245671 -2.726859
v 3.118577 6.242890 -2.722168
v -2.814177 6.245671 2.726858
v -2.819499 6.242890 2.722167
v 3.116009 6.245330 2.724619
v -2.980273 6.490000 -2.727005
v 0.693458 5.682649 -2.607713
v -2.985310 6.485094 -2.727005
v -2.980273 6.490000 -2.722168
v -2.824536 6.485094 -2.727005
v -2.821252 6.488779 -2.722132
v -2.980273 6.126692 2.722167
v -3.021482 6.099898 2.736384
v -2.985310 6.131598 2.727004
v -2.990346 6.126692 2.731841
v -2.980273 6.490000 2.722167
v -2.985310 6.484123 2.727004
v -0.529392 6.384175 1.890988
v -2.979274 6.490000 2.727004
v -2.821902 6.487730 2.725091
v -2.822289 6.131598 2.727004
v -2.819499 6.126692 2.722167
v -2.824536 6.121788 2.727004
v -2.819499 6.126371 2.726999
v -2.823140 6.126692 -2.726258
v -2.814463 6.121788 -2.727005
v -2.819499 6.126692 -2.727005
v -2.814463 6.131598 -2.727005
v -2.985310 6.126692 -2.727005
v -2.991345 6.126692 -2.722168
v -2.980273 6.126692 -2.722168
v 3.279350 6.126692 -2.727005
v 3.320560 6.099898 -2.736385
v 3.284387 6.131598 -2.727005
v 3.279350 6.126692 -2.722168
v 3.120803 6.489853 2.721952
v 3.123613 6.485094 2.727004
v 3.113540 6.121788 2.727004
v 3.118577 6.126692 2.727004
v 3.113540 6.131598 2.727004
v 3.122217 6.126692 2.726257
v 3.121277 6.484083 -2.727005
v 3.279350 6.490000 -2.722168
v 3.284387 6.484123 -2.727005
v 3.278351 6.490000 -2.727005
v 3.118577 6.126371 -2.727000
v 3.118577 6.126692 -2.722168
v 3.123613 6.121788 -2.727005
v -2.985310 6.132609 -2.883652
v -2.980078 6.126865 -2.883698
v 3.279155 6.126865 2.883697
v 3.284387 6.132609 2.883651
v 3.279350 6.490000 2.722167
v 3.284387 6.485094 2.727004
v 3.289423 6.490000 2.731841
v 3.290422 6.126692 2.722167
v 3.284387 6.126692 2.727004
v 3.279350 6.126692 2.722167
v -0.674186 6.293067 1.890988
v -0.658946 6.343538 -0.311997
v -2.047286 6.333698 -0.311996
v -0.678438 6.400182 -0.248815
v -2.027076 6.402847 -0.250903
v -2.023802 6.395428 -0.244931
v -2.027076 6.402847 0.067579
v -2.023802 6.395428 0.073551
v -0.678438 6.400182 0.069668
v -2.027076 6.402847 0.386062
v -0.678438 6.400182 0.388150
v -2.023802 6.395428 0.392034
v -2.027076 6.402847 0.704544
v -2.023802 6.395428 0.710516
v -0.678438 6.400182 0.706632
v -2.023802 6.395428 1.028998
v -2.027076 6.402847 1.023026
v -0.678438 6.400182 1.025114
v -2.023802 6.404937 1.339713
v -2.027076 6.397518 1.345685
v -0.678438 6.400182 1.343597
v -0.678438 6.400182 1.662079
v -2.027076 6.402847 1.659991
v -2.023802 6.395428 1.665963
v -0.544632 6.333698 -0.311997
v 0.828469 6.293067 1.890988
v 0.843709 6.343538 -0.311997
v 0.823499 6.402847 -0.246727
v 0.820224 6.395428 -0.252699
v -0.525139 6.400182 -0.248815
v -0.524422 6.402847 0.067579
v -0.521147 6.395428 0.073551
v 0.824216 6.400182 0.069668
v 0.824216 6.400182 0.388150
v -0.524422 6.402847 0.386062
v -0.521147 6.395428 0.392034
v 0.824216 6.400182 0.706632
v -0.521147 6.395428 0.710516
v -0.524422 6.402847 0.704544
v -0.525139 6.400182 1.025114
v 0.820224 6.404937 1.028998
v 0.823499 6.397518 1.023026
v -0.521147 6.404937 1.339713
v -0.524422 6.397518 1.345685
v 0.824216 6.400182 1.343597
v 0.823499 6.397518 1.659991
v 0.820224 6.404937 1.665963
v -0.525139 6.400182 1.662079
v 0.958023 6.333698 -0.311997
v 2.346363 6.343538 -0.311996
v 0.973263 6.293067 1.890988
v 2.326153 6.402847 -0.246727
v 0.977515 6.400182 -0.248815
v 2.322879 6.395428 -0.252699
v 2.322879 6.395428 0.065784
v 0.977515 6.400182 0.069668
v 2.326153 6.402847 0.071756
v 2.326153 6.402847 0.390238
v 2.322879 6.395428 0.384266
v 0.977515 6.400182 0.388150
v 0.977515 6.400182 0.706632
v 2.322879 6.404937 0.710516
v 2.326153 6.397518 0.704544
v 0.977515 6.400182 1.025114
v 2.322879 6.404937 1.028998
v 2.326153 6.397518 1.023026
v 2.322879 6.395428 1.339713
v 0.977515 6.400182 1.343597
v 2.326153 6.402847 1.345685
v 0.978233 6.402847 1.659991
v 2.326871 6.400182 1.662079
v 0.981507 6.395428 1.665963
v -2.295656 0.788084 -2.558668
v -0.725350 0.754596 -2.542924
v -0.725348 2.274800 -2.532888
v -0.834074 0.817472 -2.628611
v -1.489755 2.251408 -2.635219
v -2.183052 0.817472 -2.626347
v -2.182167 2.270061 -2.657337
v -2.184225 0.784061 -2.688830
v -2.180108 0.784061 -2.625843
v -1.510622 0.784061 -2.688830
v -1.506505 0.784061 -2.625843
v -1.508563 2.270061 -2.657337
v -0.837018 0.784061 -2.688830
v -0.834959 2.270061 -2.657337
v -0.832901 0.784061 -2.625843
v -0.708147 0.752301 -2.796716
v -0.708147 0.743132 -2.557767
v -2.254709 0.752622 -2.607713
v -0.703243 2.307626 -2.879840
v -2.254709 2.276779 -2.607713
v -0.703244 2.301155 -2.474643
v 0.292032 1.347664 -2.743047
v 2.435407 0.754596 -2.542924
v 2.435410 2.274799 -2.532889
v 1.671001 2.251408 -2.635219
v 0.977704 0.817472 -2.626347
v 2.326682 0.817472 -2.628611
v 0.976531 0.784061 -2.688830
v 0.980648 0.784061 -2.625843
v 0.978589 2.270061 -2.657337
v 1.650135 0.784061 -2.688830
v 1.652193 2.270061 -2.657337
v 1.654252 0.784061 -2.625843
v 2.323739 0.784061 -2.688830
v 2.325798 2.270062 -2.657337
v 2.327856 0.784061 -2.625843
v 2.398339 0.752622 -2.607713
v 0.851777 0.752301 -2.557767
v 0.851777 0.743132 -2.796716
v 0.846874 2.301153 -2.879840
v 0.846874 2.307625 -2.474643
v 2.398339 2.276779 -2.607713
v -2.893989 1.964550 1.037285
v -2.900455 1.964548 2.048014
v -2.998551 0.788085 1.560711
v -2.998551 1.918376 1.524586
v -2.989299 0.817462 1.966421
v -2.991685 0.817462 1.118876
v -3.021581 1.937030 1.965633
v -2.988788 0.784061 1.963656
v -3.054374 0.784061 1.967610
v -3.054374 0.784061 1.544625
v -2.988788 0.784061 1.540672
v -3.021581 1.937030 1.542648
v -3.021581 1.937030 1.119664
v -2.988788 0.784061 1.117687
v -3.054373 0.784061 1.121641
v -2.974243 0.753154 2.035301
v -2.915878 0.743384 0.997905
v -3.168737 0.752050 0.997905
v -2.998551 0.788084 -1.325534
v -2.900455 1.964548 -0.838232
v -2.893989 1.964550 -1.848960
v -2.991685 0.817462 -1.767370
v -2.989299 0.817462 -0.919824
v -2.998551 1.918376 -1.361660
v -3.054374 0.784061 -0.918636
v -2.988788 0.784061 -0.922590
v -3.021581 1.937030 -0.920613
v -3.021581 0.769431 -1.343597
v -2.988788 1.922399 -1.341621
v -3.054374 1.922399 -1.345574
v -3.054374 0.784061 -1.764605
v -2.988788 0.784061 -1.768558
v -3.021581 1.937030 -1.766582
v -2.974243 0.753154 -0.850945
v -2.915878 0.743384 -1.888341
v -3.168737 0.752050 -1.888341
v 1.229611 1.964548 3.022478
v 1.774632 0.788085 3.122895
v 2.282037 1.964547 3.028687
v 1.737016 1.918376 3.122895
v 2.197079 0.817462 3.114009
v 1.314570 0.817462 3.116301
v 2.198316 0.784061 3.176506
v 2.194199 0.784061 3.113519
v 2.196258 1.937030 3.145013
v 1.755825 1.937030 3.145013
v 1.757883 0.784061 3.176506
v 1.753766 0.784061 3.113519
v 1.317450 0.784061 3.176506
v 1.313333 0.784061 3.113519
v 1.315391 1.937030 3.145013
v 2.268800 0.753154 3.099550
v 1.188609 0.743385 3.043497
v 1.188609 0.752050 3.286337
v -0.723272 1.964547 3.028687
v -1.230677 0.788085 3.122895
v -1.775698 1.964548 3.022478
v -0.808230 0.817462 3.114009
v -1.268293 1.918376 3.122895
v -1.690739 0.817462 3.116301
v -0.806993 0.784061 3.176506
v -0.811110 0.784061 3.113519
v -0.809051 1.937030 3.145013
v -1.249485 1.937030 3.145013
v -1.251543 0.784061 3.113519
v -1.247426 0.784061 3.176506
v -1.689918 1.937030 3.145013
v -1.687859 0.784061 3.176506
v -1.691976 0.784061 3.113519
v -0.736510 0.753154 3.099550
v -1.816700 0.752050 3.286337
v -1.816700 0.743385 3.043497
v 3.199532 1.964548 -2.048015
v 3.193067 1.964550 -1.037286
v 3.297628 0.788084 -1.560712
v 3.297628 1.918376 -1.524586
v 3.288376 0.817462 -1.966422
v 3.290762 0.817462 -1.118876
v 3.353451 0.784061 -1.967610
v 3.320658 1.937030 -1.965633
v 3.287865 0.784061 -1.963656
v 3.287865 1.922399 -1.544625
v 3.320658 0.769431 -1.542649
v 3.353451 1.922399 -1.540672
v 3.320658 1.937030 -1.119664
v 3.353451 0.784061 -1.121641
v 3.287865 0.784061 -1.117688
v 3.273320 0.753153 -2.035301
v 3.467814 0.752050 -0.997905
v 3.214956 0.743384 -0.997905
v 3.193067 1.964550 1.848960
v 3.199532 1.964548 0.838231
v 3.297628 0.788085 1.325534
v 3.297628 1.918376 1.361660
v 3.288376 0.817462 0.919824
v 3.290762 0.817462 1.767370
v 3.353451 1.922400 0.922590
v 3.287865 1.922400 0.918636
v 3.320657 0.769431 0.920613
v 3.353451 0.784061 1.341620
v 3.320657 1.937030 1.343597
v 3.287865 0.784061 1.345574
v 3.320658 1.937030 1.766581
v 3.353451 0.784061 1.764604
v 3.287865 0.784061 1.768558
v 3.273320 0.753154 0.850945
v 3.214956 0.743384 1.888341
v 3.467814 0.752050 1.888340
v -2.653090 3.330508 -3.374430
v -0.498157 3.434233 -2.790905
v -2.653088 3.342065 -2.497589
v -2.603420 3.400634 -3.262704
v -2.569126 3.400501 -3.265360
v -2.585480 4.450131 -3.264444
v -1.860043 4.442729 -3.249677
v -1.867394 3.393099 -3.263738
v -1.874794 4.442596 -3.279528
v -1.166398 3.400634 -3.262704
v -1.132105 3.400501 -3.265361
v -1.148459 4.450131 -3.264444
v -0.413594 3.400501 -3.265360
v -0.429948 4.450131 -3.264444
v -0.447888 3.400634 -3.262704
v -2.588781 3.544897 -3.262251
v -2.588810 3.500886 -3.265580
v -0.418225 3.521921 -3.264443
v -2.577848 4.443802 -3.238271
v -2.586329 4.432573 -3.249457
v -2.578490 4.446772 -3.291756
v -0.435315 4.451340 -3.283325
v -0.430797 4.447855 -3.281365
v -0.435833 4.420588 -3.260254
v -0.434854 4.419330 -3.269228
v -0.426435 4.420588 -3.259607
v -0.435159 4.420588 -3.259607
v -0.430797 4.423799 -3.264444
v -0.427814 4.448140 -3.246788
v -2.581525 4.432611 -3.283790
v -2.581293 4.455405 -3.248809
v -2.565687 4.448048 -2.552696
v -2.591816 4.436068 -2.537952
v -2.589101 4.422226 -3.268770
v -2.586329 4.412471 -3.264444
v -2.591367 4.415682 -3.268633
v -2.600765 4.416603 -3.261825
v -2.609381 4.439737 -3.262617
v -2.581967 4.462106 -3.259607
v -2.586329 4.457805 -3.264444
v -2.590692 4.462105 -3.259930
v -2.586329 4.459461 -3.261542
v -0.426235 4.457296 -2.540299
v -0.450613 4.430459 -2.545685
v -0.452568 4.436828 -3.263200
v -0.435159 4.462106 -2.552696
v -0.447076 4.455405 -3.259607
v -0.403822 4.445407 -3.253259
v -0.413178 4.447855 -3.264444
v -0.425426 4.470112 -3.260117
v -0.435833 4.462106 -3.268633
v -0.435833 4.462105 -3.260254
v -0.428589 4.464013 -3.264444
v -0.435159 4.467010 -3.270211
v -0.426435 4.467010 -3.270211
v -2.492456 5.703922 -2.544745
v -0.524671 5.703922 -2.531070
v -2.400632 5.612904 -2.628620
v -1.758054 3.422066 -2.642834
v -0.616494 5.612904 -2.626338
v -2.397734 5.656398 -2.688830
v -2.399792 3.494240 -2.657337
v -2.401851 5.656398 -2.625844
v -1.508563 3.494240 -2.657337
v -1.510621 5.656398 -2.625844
v -1.506505 5.656398 -2.688830
v -0.615275 5.656398 -2.688830
v -0.617333 3.494240 -2.657337
v -0.619392 5.656398 -2.625844
v -2.526568 3.467815 -2.795699
v -2.526568 3.477237 -2.558784
v -0.448932 3.427983 -2.550122
v -0.474862 3.417773 -3.186394
v -0.453969 5.087227 -3.179986
v -0.469637 3.417774 -2.546288
v -1.707400 3.832565 -3.164918
v -2.513932 3.437063 -2.796673
v -2.550058 4.143098 -3.146120
v -1.664321 3.831925 -3.170654
v -2.144686 4.020209 -3.174030
v -2.074806 3.621654 -3.177326
v -1.725289 3.675740 -3.191423
v -2.168638 3.676887 -3.204728
v -1.725289 3.678034 -3.218034
v -1.725289 3.745649 -3.218034
v -1.725289 3.743355 -3.191423
v -2.168638 3.744502 -3.204728
v -2.168638 3.812118 -3.204728
v -1.725289 3.810971 -3.191423
v -1.725289 3.813265 -3.218034
v -2.168638 3.879733 -3.204728
v -1.725289 3.878586 -3.191423
v -1.725289 3.880880 -3.218033
v -2.168638 3.947349 -3.204728
v -1.725289 3.933857 -3.205859
v -1.725289 3.960841 -3.203597
v -1.725289 4.016111 -3.218034
v -2.168638 4.014965 -3.204728
v -1.725289 4.013818 -3.191423
v -2.410156 4.044788 -3.169893
v -2.456702 3.653307 -3.168389
v -2.363609 3.653307 -3.171399
v -2.370600 3.460602 -3.222907
v -2.470438 3.454176 -3.222906
v -2.420519 3.457389 -2.609560
v -1.848650 3.454176 -3.222907
v -1.798731 3.457389 -2.609560
v -1.748812 3.460602 -3.222907
v -2.027480 5.406557 -3.119632
v -2.027086 5.434145 -3.130099
v -0.775544 5.419528 -3.125108
v -2.025816 5.419752 -2.561349
v -2.046363 5.428843 -3.186954
v -2.007449 5.410706 -3.187003
v -0.763873 5.410706 -3.187003
v -0.802787 5.428843 -3.186954
v -0.782240 5.419752 -2.561349
v 2.662599 3.434233 -2.790905
v 0.507667 3.330508 -3.374430
v 0.507668 3.342065 -2.497588
v 0.574851 3.393099 -3.263738
v 0.582202 4.442729 -3.249677
v 0.567452 4.442596 -3.279528
v 1.293362 3.393099 -3.263738
v 1.300713 4.442729 -3.249677
v 1.285962 4.442596 -3.279528
v 1.994358 3.400634 -3.262704
v 2.028651 3.400501 -3.265361
v 2.012297 4.450131 -3.264444
v 2.722984 4.442596 -3.279528
v 2.730384 3.393099 -3.263739
v 2.737735 4.442729 -3.249677
v 0.571946 3.500886 -3.265580
v 2.742531 3.521921 -3.264443
v 0.571975 3.544897 -3.262251
v 0.582267 4.446772 -3.291756
v 2.725441 4.451340 -3.283325
v 2.729959 4.447855 -3.281365
v 2.732943 4.448140 -3.246788
v 2.725903 4.419330 -3.269228
v 0.579231 4.432611 -3.283790
v 0.582907 4.443803 -3.238270
v 0.578789 4.462106 -3.259607
v 0.574427 4.457805 -3.264444
v 0.570064 4.462105 -3.259930
v 0.574427 4.459461 -3.261542
v 0.574427 4.432573 -3.249457
v 0.579464 4.455405 -3.248809
v 0.568939 4.436068 -2.537952
v 0.571655 4.422226 -3.268770
v 0.574427 4.412471 -3.264444
v 0.569391 4.415682 -3.268633
v 0.559991 4.416603 -3.261825
v 0.595069 4.448048 -2.552696
v 0.551376 4.439737 -3.262618
v 2.734521 4.457296 -2.540299
v 2.725597 4.462106 -2.552696
v 2.710143 4.430459 -2.545685
v 2.713680 4.455405 -3.259607
v 2.708188 4.436828 -3.263200
v 2.735330 4.470110 -3.260117
v 2.724923 4.462106 -3.268633
v 2.724923 4.462105 -3.260254
v 2.732167 4.464013 -3.264444
v 2.725597 4.467010 -3.270211
v 2.734321 4.467010 -3.270211
v 2.756934 4.445407 -3.253258
v 2.747579 4.447855 -3.264444
v 2.724923 4.420588 -3.260254
v 2.729959 4.423799 -3.264444
v 2.734321 4.420588 -3.259607
v 2.725597 4.420588 -3.259607
v 0.668301 5.703922 -2.544744
v 2.636086 5.703922 -2.531070
v 0.760124 5.612904 -2.628621
v 1.402702 3.422066 -2.642834
v 2.544262 5.612904 -2.626338
v 0.763022 5.656398 -2.688830
v 0.758905 5.656398 -2.625844
v 0.760964 3.494240 -2.657337
v 1.654252 5.656398 -2.688830
v 1.650135 5.656398 -2.625844
v 1.652193 3.494240 -2.657337
v 2.543423 3.494240 -2.657337
v 2.541365 5.656398 -2.625844
v 2.545481 5.656398 -2.688830
v 2.711824 3.427983 -2.550122
v 0.634188 3.467815 -2.795699
v 0.634188 3.477237 -2.558784
v 2.691119 3.417774 -2.546288
v 2.670226 5.087227 -3.179986
v 2.685894 3.417774 -3.186394
v 0.646824 3.437063 -2.796673
v 1.453356 3.832565 -3.164918
v 0.610698 4.143098 -3.146120
v 1.496435 3.831925 -3.170654
v 1.016070 4.020209 -3.174029
v 1.085950 3.621654 -3.177326
v 0.992118 3.676887 -3.204728
v 1.435468 3.675740 -3.191423
v 1.435467 3.678034 -3.218034
v 1.435467 3.745649 -3.218034
v 1.435468 3.743355 -3.191423
v 0.992118 3.744502 -3.204728
v 1.435467 3.813265 -3.218034
v 1.435468 3.810971 -3.191423
v 0.992118 3.812118 -3.204728
v 0.992118 3.879733 -3.204728
v 1.435467 3.880880 -3.218033
v 1.435467 3.878586 -3.191423
v 0.992118 3.947349 -3.204728
v 1.435468 3.933857 -3.205859
v 1.435468 3.960841 -3.203597
v 1.435467 4.016111 -3.218034
v 1.435468 4.013818 -3.191423
v 0.992118 4.014965 -3.204728
v 0.797148 3.653307 -3.171399
v 0.704053 3.653307 -3.168389
v 0.750601 4.044788 -3.169894
v 0.740236 3.457389 -2.609560
v 0.690318 3.454176 -3.222908
v 0.790157 3.460602 -3.222907
v 1.411944 3.460601 -3.222908
v 1.362026 3.457389 -2.609560
v 1.312106 3.454176 -3.222907
v 1.133671 5.434145 -3.130099
v 1.133276 5.406557 -3.119632
v 2.385213 5.419528 -3.125108
v 1.134940 5.419752 -2.561349
v 1.114393 5.428843 -3.186954
v 1.153307 5.410706 -3.187003
v 2.378516 5.419752 -2.561349
v 2.396883 5.410706 -3.187003
v 2.357969 5.428843 -3.186954
v -2.900455 4.992115 2.048014
v -2.998551 3.815650 1.560711
v -2.893989 4.992117 1.037285
v -2.998551 4.945941 1.524585
v -2.991685 3.845027 1.118875
v -2.989299 3.845028 1.966421
v -3.021581 4.964595 1.965632
v -3.054373 3.811627 1.967610
v -2.988788 3.811627 1.963656
v -3.054373 3.811627 1.544625
v -2.988788 3.811627 1.540671
v -3.021581 4.964595 1.542648
v -3.021581 4.964595 1.119664
v -3.054373 3.811627 1.121641
v -2.988788 3.811627 1.117687
v -3.168737 3.779616 0.997905
v -2.974243 3.780720 2.035301
v -2.915878 3.770951 0.997905
v -2.900455 4.992115 -0.838231
v -2.998551 3.815650 -1.325534
v -2.893989 4.992117 -1.848960
v -2.989299 3.845027 -0.919825
v -2.998551 4.945941 -1.361660
v -2.991685 3.845027 -1.767370
v -3.021581 4.964595 -0.920613
v -3.054373 3.811627 -0.918636
v -2.988788 3.811627 -0.922590
v -3.021580 4.964595 -1.343598
v -2.988788 3.811627 -1.345574
v -3.054373 3.811627 -1.341621
v -3.021581 4.964595 -1.766582
v -3.054373 3.811626 -1.764605
v -2.988788 3.811626 -1.768558
v -2.974243 3.780719 -0.850945
v -2.915878 3.770950 -1.888341
v -3.168737 3.779615 -1.888341
v 1.774632 3.815650 3.122895
v 1.229611 4.992115 3.022477
v 2.282037 4.992115 3.028687
v 2.197079 3.845028 3.114009
v 1.314570 3.845028 3.116300
v 1.737016 4.945941 3.122895
v 2.198316 3.811627 3.176505
v 2.196258 4.964595 3.145013
v 2.194199 3.811627 3.113519
v 1.757883 3.811627 3.176505
v 1.753766 3.811627 3.113519
v 1.755825 4.964595 3.145013
v 1.315391 4.964595 3.145013
v 1.313333 3.811627 3.113519
v 1.317450 3.811627 3.176505
v 1.188609 3.779616 3.286337
v 2.268800 3.780720 3.099550
v 1.188609 3.770951 3.043497
v -1.230677 3.815650 3.122895
v -0.723272 4.992114 3.028687
v -1.775698 4.992115 3.022477
v -1.690739 3.845028 3.116300
v -0.808230 3.845028 3.114009
v -1.268293 4.945941 3.122895
v -0.806993 3.811627 3.176505
v -0.809051 4.964595 3.145013
v -0.811110 3.811627 3.113519
v -1.249485 4.964595 3.145012
v -1.247426 3.811627 3.176505
v -1.251543 3.811627 3.113519
v -1.687859 3.811627 3.176505
v -1.691976 3.811627 3.113519
v -1.689918 4.964595 3.145013
v -1.816700 3.779616 3.286337
v -0.736510 3.780720 3.099550
v -1.816700 3.770951 3.043497
v 3.297628 3.815650 -1.560712
v 3.199532 4.992115 -2.048015
v 3.193067 4.992117 -1.037286
v 3.297628 4.945941 -1.524586
v 3.288376 3.845027 -1.966422
v 3.290762 3.845027 -1.118876
v 3.353451 3.811626 -1.967610
v 3.320658 4.964595 -1.965633
v 3.287865 3.811626 -1.963656
v 3.320658 4.964595 -1.542649
v 3.353451 3.811627 -1.544626
v 3.287865 3.811627 -1.540672
v 3.320658 4.964595 -1.119665
v 3.287865 3.811627 -1.117688
v 3.353451 3.811627 -1.121642
v 3.467814 3.779616 -0.997905
v 3.273320 3.780719 -2.035301
v 3.214955 3.770951 -0.997905
v 3.193067 4.992117 1.848960
v 3.297628 3.815650 1.325534
v 3.199532 4.992116 0.838231
v 3.297628 4.945941 1.361660
v 3.288376 3.845027 0.919824
v 3.290762 3.845027 1.767370
v 3.353451 3.811627 0.918636
v 3.320658 4.964595 0.920613
v 3.287865 3.811627 0.922589
v 3.320657 4.964595 1.343597
v 3.353451 3.811627 1.341620
v 3.287865 3.811627 1.345574
v 3.353451 3.811627 1.764604
v 3.320658 4.964595 1.766581
v 3.287865 3.811627 1.768558
v 3.467814 3.779616 1.888340
v 3.214956 3.770951 1.888340
v 3.273320 3.780719 0.850945
v 0.130991 0.182571 -2.697239
v 0.736974 2.383959 -2.592069
v -0.437897 2.383959 -2.603173
v 0.168086 2.301867 -2.697240
v -0.338215 0.180863 -2.685597
v 0.637292 0.180863 -2.688792
v 0.149539 2.319244 -2.717052
v 0.147449 0.178556 -2.745983
v 0.151628 0.178556 -2.688121
v 0.025181 1.373677 -2.776768
v 0.022987 0.947445 -2.810735
v 0.027375 0.947446 -2.742801
v 0.273896 1.373677 -2.776768
v 0.271702 0.947445 -2.810735
v 0.276090 0.947446 -2.742801
v -0.626610 2.505141 -3.328538
v 0.854956 2.337189 -2.874692
v -0.626610 2.512359 -2.503670
v 1.393115 0.076725 -3.229182
v -0.609244 0.131461 -3.300181
v -0.609244 0.142855 -2.651457
v 2.823371 0.071560 -3.199298
v 3.071787 1.181668 -3.409221
v 3.071798 0.071560 -3.409209
v 3.118577 1.095196 -3.377391
v 2.776593 1.095196 -3.549598
v 2.747611 0.770889 -3.457145
v -3.318301 0.731218 -3.135621
v -3.377951 0.701785 3.334111
v -3.325923 0.047691 -3.135621
v 3.565349 0.701785 3.334111
v 3.617378 0.047691 -3.135621
v 3.625000 0.731218 -3.135621
v -2.393019 0.476051 -3.395592
v -1.052113 0.452509 -3.383874
v -2.337614 0.076725 -3.229182
v -1.953340 0.928324 -3.337934
v -1.800870 0.733894 -3.379430
v 1.340827 0.452509 -3.383874
v 2.818046 0.077220 -3.412616
v 2.692096 0.476051 -3.372160
v 1.952549 0.409236 -3.350079
v 1.820423 0.357876 -3.363293
v 2.390190 0.469367 -3.384404
v 2.501132 0.385454 -3.337935
v 2.649268 0.469367 -3.384404
v -2.699407 0.059828 3.123400
v -2.697593 0.046656 3.036123
v -2.695106 5.921944 3.075344
v 3.000317 0.059828 3.123400
v 3.004618 5.921944 3.075344
v 3.002131 0.046656 3.036123
v 0.558399 2.211041 3.006492
v -0.282025 0.391637 3.070284
v 0.581102 0.391637 3.060499
v 1.153928 1.756906 3.147086
v 0.803250 1.756906 2.983697
v 1.153889 1.252312 3.147164
v -2.467153 0.792593 3.024475
v -1.268293 0.788085 3.167130
v -2.672002 0.066374 3.108865
v -1.581416 0.481419 2.999941
v -2.061781 0.669704 2.996565
v -1.991900 0.271148 2.993269
v -1.636086 0.326381 2.965866
v -2.079436 0.312890 2.966997
v -2.079436 0.339873 2.964735
v -2.079436 0.380505 2.966997
v -2.079436 0.407488 2.964735
v -1.636086 0.393997 2.965866
v -1.636086 0.461612 2.965866
v -2.079436 0.475104 2.964735
v -2.079436 0.448121 2.966997
v -2.079436 0.542719 2.964735
v -2.079436 0.515736 2.966997
v -1.636086 0.529228 2.965866
v -2.079436 0.610335 2.964735
v -1.636086 0.596844 2.965866
v -2.079436 0.583352 2.966997
v -2.079436 0.677951 2.964735
v -2.079436 0.650968 2.966997
v -1.636086 0.664459 2.965866
v -2.327251 0.276373 3.000700
v -2.280704 0.667855 3.002205
v -2.373797 0.667855 2.999195
v -2.287695 0.110095 2.947687
v -2.387533 0.103669 2.947687
v -2.337615 0.106883 3.561035
v -1.765745 0.103670 2.947687
v -1.715827 0.106882 3.561034
v -1.665907 0.110096 2.947688
vn -0.6978 0.7163 -0.0000
vn 0.6927 -0.0000 0.7212
vn -0.6905 0.7092 0.1426
vn -0.8818 -0.4706 -0.0313
vn 0.1968 -0.2017 0.9595
vn 0.1967 -0.2017 0.9595
vn 0.6978 -0.7163 -0.0000
vn -0.1969 0.2025 -0.9593
vn 0.6905 0.7092 -0.1425
vn 0.6722 0.7387 -0.0490
vn -0.6927 -0.0000 0.7212
vn -0.4318 -0.8661 0.2517
vn -0.2546 0.9670 0.0001
vn 0.0077 1.0000 -0.0000
vn 0.8417 -0.3818 0.3818
vn 0.9052 -0.3005 0.3005
vn 0.8529 -0.3692 0.3692
vn 0.1948 0.7952 0.5743
vn 0.1985 0.7736 0.6017
vn 0.1969 0.7843 0.5883
vn -0.0000 0.0010 -1.0000
vn -0.9998 0.0222 -0.0005
vn -0.7962 0.6051 0.0001
vn -0.4630 0.8863 0.0002
vn 0.0001 -1.0000 -0.0000
vn -0.0000 -1.0000 -0.0001
vn 0.0001 -1.0000 0.0001
vn 0.0144 0.9999 -0.0030
vn 0.7083 0.7059 0.0002
vn 0.0143 0.9999 -0.0013
vn -0.9145 -0.4045 -0.0000
vn -0.0095 -0.0042 -0.9999
vn -0.7234 -0.3200 -0.6118
vn -0.0376 0.9993 0.0078
vn -0.7178 0.6963 -0.0007
vn -0.0375 0.9993 0.0030
vn -0.7391 -0.6731 -0.0254
vn -0.0304 -0.0498 -0.9983
vn -0.0000 -0.1461 -0.9893
vn -0.0000 0.9903 -0.1391
vn 0.0144 -0.9997 0.0180
vn -0.0000 -1.0000 -0.0000
vn 0.0169 -0.9996 0.0211
vn 0.2769 -0.4192 0.8646
vn 0.0004 -0.9919 0.1267
vn 0.0001 -0.9920 0.1259
vn -0.0001 1.0000 -0.0000
vn -0.1025 0.7902 -0.6043
vn -0.1054 0.7696 -0.6297
vn -0.1043 0.7677 -0.6322
vn -0.0000 0.7716 -0.6361
vn -0.0000 0.7690 -0.6392
vn -0.0000 0.7651 -0.6439
vn 0.5217 -0.7099 -0.4732
vn 0.5160 -0.6853 -0.5139
vn 0.5395 -0.7006 -0.4671
vn -0.0739 -0.7379 0.6708
vn -0.0744 -0.7412 0.6671
vn -0.0739 -0.7365 0.6724
vn -0.0000 -0.7071 -0.7071
vn -0.0000 -0.7593 -0.6508
vn -0.0000 -0.7894 -0.6139
vn -0.0000 -0.7619 0.6476
vn -0.0000 -0.7756 0.6313
vn -0.0000 -0.7671 0.6416
vn -0.0000 0.7507 0.6606
vn -0.0000 0.7490 0.6626
vn -0.0000 0.7399 0.6727
vn -0.0884 0.7619 0.6416
vn -0.0897 0.7748 0.6258
vn -0.0898 0.7777 0.6222
vn 0.5719 0.7782 0.2594
vn 0.5899 0.7833 0.1958
vn 0.5899 0.7661 0.2554
vn -0.0000 0.7904 0.6126
vn -0.0000 0.7873 0.6166
vn -0.0000 0.7886 0.6149
vn 0.6611 0.6162 -0.4282
vn -0.6252 -0.4579 -0.6320
vn -0.6443 -0.7632 0.0486
vn -0.5678 0.3149 -0.7605
vn 0.6611 0.6161 -0.4282
vn 0.6612 -0.0000 -0.7502
vn 0.8285 0.0021 -0.5600
vn -0.8315 -0.2634 0.4891
vn -0.2571 -0.5776 0.7748
vn -0.8094 0.1189 0.5751
vn -0.5763 0.6490 -0.4966
vn -0.4159 0.9094 0.0017
vn -0.8255 -0.1609 -0.5410
vn -0.8094 0.1189 0.5750
vn -0.5776 0.6481 -0.4963
vn -0.8260 -0.1613 -0.5401
vn -0.0000 -0.7021 -0.7121
vn -0.0000 0.7021 -0.7121
vn -0.0000 -1.0000 0.0001
vn -0.0001 -1.0000 -0.0001
vn -0.0144 -0.9997 -0.0180
vn -0.0169 -0.9996 -0.0211
vn 0.7391 -0.6731 0.0254
vn 0.1732 -0.4088 -0.8961
vn 0.7977 -0.5474 -0.2528
vn 0.0869 -0.4005 -0.9122
vn 0.8502 -0.3734 0.3712
vn 0.9940 -0.1076 -0.0195
vn 0.7224 -0.4618 0.5146
vn 0.0788 -0.4712 -0.8785
vn 0.7434 -0.0784 -0.6642
vn 0.4088 -0.5461 -0.7312
vn 0.7978 -0.5474 -0.2528
vn 0.7224 -0.4618 0.5147
vn -0.6612 -0.0000 0.7502
vn -0.7592 0.6508 0.0001
vn -0.8730 0.0024 0.4877
vn 0.1838 0.7350 0.6527
vn 0.0017 -0.9907 0.1364
vn 0.0067 0.1223 0.9925
vn 0.0021 0.7951 0.6065
vn 0.0004 -0.0689 0.9976
vn 0.6560 0.6257 -0.4222
vn 0.1841 0.7351 0.6525
vn 0.1841 0.7350 0.6525
vn 0.1842 0.7350 0.6526
vn 0.0021 0.7951 0.6064
vn -0.0301 -0.0308 -0.9991
vn -0.8331 0.4715 0.2893
vn -0.4765 -0.6636 0.5767
vn 0.2671 -0.3499 0.8979
vn -0.1163 -0.1001 -0.9882
vn -0.2505 -0.6871 -0.6820
vn 0.0009 1.0000 -0.0011
vn -0.0071 1.0000 -0.0044
vn -0.0829 0.3134 -0.9460
vn -0.0001 0.9009 -0.4341
vn 0.4618 0.8869 0.0117
vn -0.0000 -0.0000 -0.0000
vn -0.0000 0.0010 1.0000
vn 0.0301 -0.0309 0.9991
vn -0.0000 -0.0000 1.0000
vn 0.0003 0.6891 0.7247
vn -0.0003 0.6891 -0.7247
vn -0.0000 0.7191 -0.6949
vn -0.0004 0.0014 -1.0000
vn -0.9998 0.0213 -0.0005
vn -0.0000 0.0210 -0.9998
vn 0.7962 0.6050 -0.0001
vn 0.9998 0.0214 0.0005
vn 1.0000 -0.0000 -0.0000
vn -0.0000 0.7191 0.6949
vn 0.9998 0.0222 0.0005
vn -1.0000 -0.0000 -0.0000
vn 0.0004 0.0014 1.0000
vn -0.0000 0.0210 0.9998
vn 0.7062 0.7080 -0.0049
vn 0.0816 0.2301 -0.9697
vn 0.1133 0.3921 -0.9129
vn 0.1058 0.3147 -0.9433
vn -0.0000 -0.0000 -1.0000
vn 0.9999 0.0163 0.0008
vn -0.6977 -0.7164 -0.0000
vn 0.1809 0.5006 0.8466
vn 0.0042 -1.0000 0.0014
vn 0.0031 -0.9986 0.0520
vn 0.3222 -0.0000 0.9467
vn 0.6927 -0.0000 0.7213
vn -0.6867 0.0116 -0.7268
vn 0.0085 0.0012 1.0000
vn 0.0032 0.0039 1.0000
vn -0.0000 0.0054 1.0000
vn -0.0095 0.9559 0.2935
vn -0.0093 0.2935 0.9559
vn -0.4921 0.8705 0.0003
vn -0.0060 -0.9974 0.0723
vn -0.0913 0.3367 -0.9372
vn -0.0042 -1.0000 -0.0014
vn -0.0460 -0.0000 -0.9989
vn -0.0201 0.4081 0.9127
vn 0.0688 0.3544 -0.9325
vn -0.9993 0.0377 0.0053
vn -0.9999 0.0172 -0.0009
vn -0.0009 1.0000 -0.0000
vn -0.2015 0.4623 0.8635
vn -0.2047 0.3958 0.8952
vn -0.2147 0.3319 0.9185
vn 0.9998 -0.0000 -0.0190
vn 0.9999 -0.0000 -0.0123
vn 0.9999 -0.0000 -0.0172
vn -0.9999 -0.0000 -0.0133
vn -1.0000 -0.0000 -0.0074
vn -0.0234 0.0390 0.9990
vn -0.0312 0.0390 0.9988
vn -0.0467 0.0778 0.9959
vn -0.0000 1.0000 -0.0000
vn 0.7071 -0.0000 -0.7071
vn -0.1240 0.9923 -0.0000
vn 0.9922 0.1240 0.0078
vn -0.0000 0.9829 0.1843
vn 0.9922 0.1240 0.0155
vn -0.0002 0.0933 -0.9956
vn -0.0005 0.2425 -0.9701
vn -0.0002 0.0624 -0.9981
vn -0.9445 0.2295 0.2350
vn -0.9830 -0.0048 -0.1838
vn -0.0010 -0.7335 0.6797
vn 0.0044 -0.4436 0.8962
vn -0.9833 0.1087 -0.1458
vn -0.4634 -0.4354 -0.7718
vn 0.0028 0.2495 -0.9684
vn -0.0034 0.9503 -0.3114
vn -0.4992 0.6583 -0.5634
vn 0.0037 -0.4056 -0.9140
vn 0.8175 -0.5461 -0.1830
vn 0.5579 0.1138 -0.8221
vn 0.7344 -0.6778 0.0344
vn 0.9841 0.1753 0.0280
vn -0.9635 -0.2678 0.0002
vn -0.3777 -0.9259 0.0046
vn 0.0024 0.8606 0.5092
vn 0.0001 0.6942 0.7198
vn 0.0036 -0.5264 0.8502
vn -0.0405 -0.0492 -0.9980
vn 0.9426 -0.3323 -0.0319
vn 0.8784 -0.4768 -0.0325
vn 0.9240 -0.3810 -0.0315
vn -0.7764 0.6298 0.0220
vn -0.4382 0.8983 0.0317
vn 0.0251 0.7358 -0.6768
vn -0.5003 0.8654 0.0270
vn -0.7573 0.6528 0.0191
vn 0.5661 0.8243 0.0040
vn 0.0069 0.0452 -0.9990
vn -0.0880 0.7044 -0.7044
vn -0.1374 0.8242 -0.5494
vn 0.0191 0.9957 0.0903
vn 0.0191 0.9969 0.0763
vn 0.0191 0.9953 0.0952
vn -0.9685 -0.2479 -0.0235
vn -0.9916 -0.1269 -0.0241
vn -0.9891 -0.1452 -0.0241
vn -0.9997 -0.0000 -0.0229
vn -0.9997 -0.0000 -0.0230
vn -0.9997 -0.0000 -0.0228
vn -0.9064 0.4225 0.0011
vn -0.9445 0.2295 0.2349
vn -0.9829 -0.0048 -0.1838
vn 0.0024 0.8607 0.5092
vn -0.4381 0.8983 0.0317
vn 0.0251 0.7357 -0.6768
vn -0.0405 -0.0493 -0.9980
vn -0.0010 -0.7334 0.6797
vn -0.1111 0.4444 -0.8889
vn -0.2182 0.4364 -0.8729
vn -0.0065 -1.0000 -0.0000
vn -0.0108 -0.9999 -0.0000
vn -0.0130 -0.9999 -0.0000
vn -0.0000 0.2425 0.9701
vn -0.0000 0.3511 0.9363
vn 0.9999 -0.0000 -0.0115
vn 0.9999 -0.0000 -0.0114
vn -0.9981 -0.0605 0.0115
vn -0.9975 -0.0691 0.0115
vn -0.0293 0.0145 0.9995
vn 0.1843 -0.9829 -0.0000
vn 0.1240 -0.9923 -0.0000
vn 0.0155 -0.1240 0.9922
vn 0.5298 0.8477 0.0265
vn 0.9989 -0.0000 0.0468
vn -0.7071 -0.0000 -0.7071
vn -0.8944 -0.0000 -0.4472
vn 0.0005 0.9701 -0.2425
vn 0.0003 0.9487 -0.3162
vn 0.0003 0.9615 -0.2747
vn 0.1484 0.0344 -0.9883
vn -0.7794 0.1150 -0.6159
vn -0.9093 0.1632 -0.3827
vn -0.1088 0.1023 -0.9888
vn 0.4633 0.0362 -0.8854
vn -0.0595 0.0416 0.9974
vn 0.0766 0.0517 -0.9957
vn -0.9674 0.2047 -0.1495
vn 0.5960 0.0643 -0.8004
vn 0.0029 0.0528 0.9986
vn -0.7404 0.1166 -0.6619
vn -0.1356 0.1039 -0.9853
vn -0.1044 0.0246 -0.9942
vn -0.9832 0.1151 -0.1414
vn -0.1010 0.0053 -0.9949
vn 0.1020 -0.0052 0.9948
vn -0.7295 0.0903 -0.6780
vn -0.0362 0.0489 -0.9982
vn 0.0020 -0.9673 0.2537
vn 0.0023 -0.9573 0.2890
vn 0.0021 -0.9640 0.2659
vn -0.7404 0.1166 -0.6620
vn 0.9832 -0.1151 -0.1414
vn 0.1010 -0.0053 -0.9949
vn 0.1044 -0.0246 -0.9942
vn 0.7295 -0.0903 -0.6780
vn 0.0362 -0.0489 -0.9982
vn -0.1020 0.0052 0.9948
vn 0.9674 -0.2047 -0.1495
vn -0.5960 -0.0643 -0.8004
vn -0.0766 -0.0517 -0.9957
vn 0.7404 -0.1166 -0.6619
vn -0.0029 -0.0528 0.9986
vn 0.1356 -0.1039 -0.9853
vn 0.9093 -0.1632 -0.3827
vn -0.4633 -0.0362 -0.8854
vn -0.1484 -0.0344 -0.9883
vn 0.7794 -0.1150 -0.6159
vn 0.1088 -0.1023 -0.9888
vn 0.0595 -0.0416 0.9974
vn -0.0130 0.9781 0.2080
vn -0.0137 0.9999 -0.0000
vn -0.0133 0.9999 -0.0000
vn -0.1648 0.9863 -0.0000
vn -0.0709 0.4461 -0.8922
vn 0.9933 -0.0000 0.1159
vn 0.9928 -0.0000 0.1197
vn -0.9722 -0.0000 -0.2344
vn -0.9773 -0.0000 -0.2118
vn -0.9738 -0.0000 -0.2273
vn 0.0265 -0.0272 -0.9993
vn -0.4839 0.3101 -0.8183
vn 0.2959 -0.3039 0.9056
vn -0.6722 0.7387 0.0490
vn 0.1969 0.2022 0.9593
vn 0.1340 -0.1376 0.9814
vn -0.1967 -0.2020 -0.9594
vn -0.0349 -0.0358 -0.9987
vn 1.0000 -0.0075 0.0006
vn -0.1884 0.5846 0.7891
vn 0.6286 -0.7578 0.1748
vn -0.9657 -0.2563 0.0408
vn 0.3133 0.8972 0.3111
vn 0.2653 0.9625 -0.0558
vn -0.5939 0.5503 0.5868
vn -0.2935 0.8303 -0.4737
vn 0.3251 0.8215 -0.4685
vn -0.0000 -0.8874 -0.4611
vn 0.8660 -0.4957 0.0657
vn -0.3791 -0.3966 0.8361
vn -0.5940 0.5504 0.5867
vn -0.2937 0.8304 -0.4736
vn 0.3254 0.8214 -0.4685
vn 0.3133 0.8972 0.3112
vn -0.0000 -0.8873 -0.4611
vn 0.8659 -0.4958 0.0657
vn -0.3790 -0.3968 0.8360
vn 0.6286 -0.7578 0.1749
vn 0.0249 0.7892 -0.6136
vn 0.0001 1.0000 -0.0000
vn -0.2322 0.2190 0.9477
vn -0.0002 -0.1502 -0.9887
vn -0.0001 -1.0000 -0.0000
vn -0.0000 -0.0135 -0.9999
vn -0.0302 -0.9988 -0.0377
vn 0.0007 -0.4695 -0.8829
vn -0.7560 -0.0000 -0.6545
vn -0.8331 -0.0000 -0.5531
vn -0.7407 -0.0000 -0.6719
vn -0.8331 0.5531 -0.0000
vn -0.9177 0.3973 -0.0000
vn -0.9107 0.4130 -0.0000
vn 0.0752 0.6790 -0.7303
vn -0.8599 -0.0975 -0.5011
vn -0.5544 0.8095 -0.1933
vn 0.0753 0.6790 -0.7302
vn -0.5544 0.8095 -0.1932
vn -0.0197 0.0204 -0.9996
vn -0.6927 -0.0000 -0.7213
vn -0.0792 0.0118 -0.9968
vn 0.0118 0.0054 0.9999
vn -0.7234 -0.4127 0.5535
vn -0.9799 -0.1988 0.0186
vn -0.7235 -0.4126 0.5534
vn -0.9799 -0.1988 0.0181
vn -0.9800 -0.1983 0.0187
vn -0.0000 -0.7021 0.7121
vn -0.0000 0.7279 0.6857
vn 0.6975 -0.7165 -0.0006
vn -0.0000 -0.3304 0.9438
vn 0.0302 -0.9988 0.0377
vn 0.7187 -0.6946 -0.0304
vn -0.6977 0.7163 -0.0000
vn 0.0790 0.0121 0.9968
vn 0.0849 0.0852 -0.9927
vn 0.0017 -0.9903 0.1390
vn 0.6588 0.6284 -0.4136
vn -0.0000 -0.9999 0.0138
vn -0.0000 -1.0000 0.0003
vn -0.4043 0.4345 -0.8048
vn 0.0197 0.0204 0.9996
vn 0.4632 0.8863 -0.0002
vn 0.7593 0.6507 -0.0000
vn -0.0000 1.0000 0.0068
vn 0.0002 -0.1502 0.9887
vn -0.0000 -1.0000 -0.0003
vn -0.6926 -0.0000 0.7213
vn -0.0000 -0.0003 1.0000
vn 0.0008 -0.0133 0.9999
vn 0.0007 -0.0128 0.9999
vn 0.9998 0.0185 0.0009
vn -0.9999 -0.0131 -0.0009
vn 0.0118 -0.0039 0.9999
vn 0.0120 -0.0123 0.9999
vn -0.9999 0.0141 -0.0009
vn 0.0007 0.0123 -0.9999
vn -0.0007 -0.0123 -0.9999
vn 0.0008 0.0133 -0.9999
vn -0.0008 -0.0133 -0.9999
vn 0.6927 -0.0000 -0.7213
vn 0.4921 0.8705 -0.0003
vn 0.0005 -0.7024 -0.7118
vn -0.0005 -0.7024 0.7118
vn 0.6977 -0.7164 -0.0000
vn -0.9998 0.0197 -0.0009
vn 0.9999 -0.0131 0.0009
vn 0.6977 -0.7164 0.0001
vn 0.9955 -0.0547 -0.0777
vn 0.9429 0.3332 -0.0000
vn -0.0552 0.0030 -0.9985
vn 0.7468 -0.6618 -0.0650
vn 0.9942 -0.0546 -0.0927
vn -0.5331 -0.8441 -0.0580
vn 0.0006 -0.6928 -0.7211
vn 0.5844 0.2442 0.7738
vn -0.5449 0.2057 0.8129
vn 0.2398 -0.0627 0.9688
vn -0.0016 0.9993 0.0360
vn -0.5330 -0.8441 -0.0581
vn -0.0014 0.9993 0.0360
vn 0.5844 0.2441 0.7739
vn -0.5450 0.2056 0.8128
vn 0.2398 -0.0626 0.9688
vn 0.7469 -0.6618 -0.0650
vt 0.119744 0.286339
vt 0.119744 0.286437
vt 0.119646 0.286339
vt 0.263399 0.297024
vt 0.263300 0.296926
vt 0.263202 0.296827
vt 0.008885 0.286396
vt 0.008885 0.286278
vt 0.008984 0.286298
vt 0.861153 0.982212
vt 0.861055 0.982218
vt 0.861054 0.982113
vt 0.569734 0.982113
vt 0.569698 0.982175
vt 0.569564 0.982210
vt 0.245431 0.419193
vt 0.245431 0.419291
vt 0.245333 0.419193
vt 0.581362 0.982248
vt 0.581398 0.982308
vt 0.581228 0.982213
vt 0.119788 0.164047
vt 0.119788 0.164164
vt 0.119690 0.164145
vt 0.849462 0.982218
vt 0.849560 0.982210
vt 0.849456 0.982310
vt 0.872783 0.982113
vt 0.872785 0.982252
vt 0.872647 0.982253
vt 0.523599 0.644039
vt 0.523912 0.643856
vt 0.523632 0.643954
vt 0.301396 0.982287
vt 0.301396 0.982117
vt 0.301255 0.982202
vt 0.549977 0.644039
vt 0.550290 0.643856
vt 0.550009 0.643954
vt 0.313093 0.982287
vt 0.313093 0.982117
vt 0.312952 0.982202
vt 0.119647 0.283254
vt 0.808826 0.840991
vt 0.808735 0.814890
vt 0.808860 0.814889
vt 0.186913 0.806196
vt 0.187103 0.832246
vt 0.186981 0.832317
vt 0.361116 0.675481
vt 0.361215 0.559815
vt 0.361208 0.675383
vt 0.116508 0.546675
vt 0.005845 0.546724
vt 0.005776 0.546625
vt 0.374160 0.296827
vt 0.374061 0.296926
vt 0.008947 0.283213
vt 0.245431 0.416108
vt 0.119731 0.167230
vt 0.245432 0.296900
vt 0.248615 0.296900
vt 0.248595 0.296999
vt 0.122902 0.216802
vt 0.263409 0.419316
vt 0.263507 0.419434
vt 0.005776 0.233634
vt 0.009028 0.164104
vt 0.263294 0.841953
vt 0.263202 0.815852
vt 0.263328 0.815851
vt 0.783669 0.843817
vt 0.783615 0.817716
vt 0.783741 0.817716
vt 0.844489 0.563375
vt 0.844397 0.537274
vt 0.844523 0.537273
vt 0.538234 0.801671
vt 0.538330 0.827798
vt 0.538234 0.827720
vt 0.844469 0.837907
vt 0.844415 0.811805
vt 0.844541 0.811805
vt 0.826182 0.693183
vt 0.826371 0.719233
vt 0.826249 0.719304
vt 0.747541 0.840551
vt 0.747449 0.814450
vt 0.747575 0.814450
vt 0.831214 0.439814
vt 0.831404 0.465865
vt 0.831282 0.465935
vt 0.832830 0.774064
vt 0.832925 0.800191
vt 0.832830 0.800112
vt 0.005800 0.807936
vt 0.005896 0.834063
vt 0.005800 0.833984
vt 0.825107 0.638802
vt 0.825297 0.664852
vt 0.825175 0.664922
vt 0.523750 0.601974
vt 0.524008 0.601876
vt 0.523983 0.601974
vt 0.278038 0.982360
vt 0.278122 0.982123
vt 0.278122 0.982558
vt 0.735931 0.922129
vt 0.735652 0.922257
vt 0.735341 0.914237
vt 0.208110 0.982535
vt 0.208287 0.982113
vt 0.208210 0.982552
vt 0.550128 0.601974
vt 0.550386 0.601876
vt 0.550360 0.601974
vt 0.289615 0.982360
vt 0.289699 0.982122
vt 0.289699 0.982557
vt 0.924661 0.020272
vt 0.924382 0.020401
vt 0.924071 0.012380
vt 0.219810 0.982535
vt 0.219986 0.982113
vt 0.219910 0.982552
vt 0.638440 0.412497
vt 0.636111 0.412500
vt 0.638470 0.412394
vt 0.813201 0.276224
vt 0.813087 0.283462
vt 0.813149 0.276278
vt 0.243183 0.982113
vt 0.243079 0.982607
vt 0.243095 0.982174
vt 0.515722 0.643700
vt 0.523324 0.643954
vt 0.509224 0.644048
vt 0.231585 0.982113
vt 0.231480 0.982607
vt 0.231496 0.982174
vt 0.542100 0.643700
vt 0.549701 0.643954
vt 0.535601 0.644048
vt 0.263303 0.300108
vt 0.008929 0.164006
vt 0.008928 0.167144
vt 0.008831 0.163907
vt 0.134572 0.419291
vt 0.134671 0.419192
vt 0.245333 0.296782
vt 0.610800 0.419223
vt 0.607615 0.419218
vt 0.607636 0.419120
vt 0.006159 0.761090
vt 0.005819 0.761029
vt 0.006221 0.760990
vt 0.981885 0.257405
vt 0.982227 0.256965
vt 0.981978 0.257469
vt 0.981886 0.220280
vt 0.982222 0.220115
vt 0.981977 0.220344
vt 0.453229 0.763222
vt 0.452889 0.763161
vt 0.453291 0.763122
vt 0.981885 0.269769
vt 0.982227 0.269330
vt 0.981978 0.269833
vt 0.981886 0.207857
vt 0.982222 0.207692
vt 0.981977 0.207920
vt 0.968501 0.757322
vt 0.968407 0.759649
vt 0.968404 0.757318
vt 0.361116 0.544870
vt 0.361214 0.434112
vt 0.361234 0.544969
vt 0.005915 0.904239
vt 0.005747 0.911422
vt 0.005817 0.904238
vt 0.523325 0.601895
vt 0.523665 0.601833
vt 0.523580 0.601974
vt 0.053827 0.600657
vt 0.053656 0.642735
vt 0.053688 0.600473
vt 0.759727 0.047785
vt 0.759558 0.005845
vt 0.759992 0.005833
vt 0.981928 0.219474
vt 0.982229 0.219798
vt 0.981793 0.219414
vt 0.549703 0.601895
vt 0.550043 0.601833
vt 0.549958 0.601974
vt 0.149126 0.601838
vt 0.148956 0.643916
vt 0.148988 0.601654
vt 0.759847 0.207102
vt 0.759677 0.165162
vt 0.760112 0.165150
vt 0.981928 0.207051
vt 0.982229 0.207375
vt 0.981793 0.206991
vt 0.245333 0.296999
vt 0.245432 0.300137
vt 0.245432 0.300235
vt 0.981567 0.293790
vt 0.982120 0.293952
vt 0.981567 0.293993
vt 0.981550 0.219999
vt 0.981807 0.220344
vt 0.981567 0.281464
vt 0.982120 0.281625
vt 0.981567 0.281667
vt 0.981550 0.207576
vt 0.981807 0.207920
vt 0.930023 0.493386
vt 0.930193 0.507971
vt 0.930037 0.508024
vt 0.476946 0.879353
vt 0.476825 0.855246
vt 0.477102 0.855309
vt 0.929930 0.845858
vt 0.930100 0.860442
vt 0.929944 0.860496
vt 0.465030 0.879353
vt 0.464909 0.855246
vt 0.465186 0.855309
vt 0.246592 0.675495
vt 0.246690 0.559580
vt 0.246683 0.675397
vt 0.134572 0.416054
vt 0.134573 0.415956
vt 0.393851 0.878931
vt 0.393718 0.854769
vt 0.394006 0.854814
vt 0.381935 0.878931
vt 0.381802 0.854769
vt 0.382090 0.854814
vt 0.152378 0.005845
vt 0.079065 0.152332
vt 0.005811 0.005812
vt 0.163979 0.152354
vt 0.237238 0.005787
vt 0.310473 0.152367
vt 0.134477 0.163949
vt 0.251647 0.163972
vt 0.193074 0.285204
vt 0.263209 0.163945
vt 0.380129 0.164021
vt 0.321664 0.285243
vt 0.447710 0.281996
vt 0.391782 0.163954
vt 0.503660 0.163941
vt 0.441690 0.296868
vt 0.497628 0.414923
vt 0.385750 0.414936
vt 0.116509 0.430908
vt 0.638342 0.296861
vt 0.636012 0.412592
vt 0.642837 0.550572
vt 0.642837 0.439911
vt 0.645166 0.439813
vt 0.636111 0.296925
vt 0.651518 0.124236
vt 0.649188 0.234687
vt 0.649188 0.124236
vt 0.005844 0.430857
vt 0.651518 0.234589
vt 0.645166 0.550572
vt 0.637564 0.124336
vt 0.637625 0.240052
vt 0.635168 0.240252
vt 0.635266 0.124336
vt 0.361214 0.430929
vt 0.368280 0.430928
vt 0.368399 0.434112
vt 0.923414 0.221331
vt 0.926447 0.221431
vt 0.926644 0.228714
vt 0.923316 0.221430
vt 0.578101 0.296933
vt 0.578101 0.407286
vt 0.570910 0.407384
vt 0.570917 0.407286
vt 0.570917 0.296835
vt 0.570818 0.296827
vt 0.134671 0.300137
vt 0.134475 0.296802
vt 0.610801 0.296929
vt 0.610898 0.419341
vt 0.361190 0.548100
vt 0.368300 0.544969
vt 0.368398 0.545068
vt 0.524230 0.005953
vt 0.516946 0.005930
vt 0.517045 0.005839
vt 0.678560 0.928839
vt 0.681776 0.935918
vt 0.678594 0.935918
vt 0.368396 0.545164
vt 0.245416 0.300066
vt 0.134588 0.416125
vt 0.245333 0.416054
vt 0.245627 0.419195
vt 0.559250 0.296882
vt 0.559207 0.300003
vt 0.552140 0.300003
vt 0.107518 0.932300
vt 0.110714 0.930397
vt 0.110714 0.937463
vt 0.552140 0.296829
vt 0.552042 0.410552
vt 0.570582 0.270302
vt 0.570581 0.159641
vt 0.577771 0.159543
vt 0.009027 0.167173
vt 0.929673 0.563197
vt 0.932812 0.563197
vt 0.933008 0.570479
vt 0.929673 0.570381
vt 0.540483 0.366341
vt 0.533363 0.418925
vt 0.533363 0.296925
vt 0.533999 0.212268
vt 0.541119 0.159573
vt 0.541119 0.281833
vt 0.559226 0.410552
vt 0.559226 0.413725
vt 0.552160 0.413727
vt 0.535680 0.590192
vt 0.509134 0.590202
vt 0.522405 0.545852
vt 0.436993 0.599515
vt 0.423719 0.555175
vt 0.450264 0.555165
vt 0.398936 0.599515
vt 0.385661 0.555175
vt 0.412207 0.555165
vt 0.289758 0.586959
vt 0.263212 0.586968
vt 0.276483 0.542619
vt 0.475052 0.599515
vt 0.461776 0.555175
vt 0.488322 0.555165
vt 0.327815 0.586959
vt 0.301270 0.586968
vt 0.314541 0.542619
vt 0.079658 0.558226
vt 0.108576 0.573590
vt 0.079660 0.588965
vt 0.039186 0.573595
vt 0.068075 0.558262
vt 0.068066 0.588953
vt 0.586271 0.597927
vt 0.599308 0.625734
vt 0.573229 0.625749
vt 0.314313 0.598576
vt 0.327365 0.626419
vt 0.301261 0.626415
vt 0.783782 0.062832
vt 0.784248 0.092035
vt 0.783312 0.092052
vt 0.798262 0.582865
vt 0.798727 0.612068
vt 0.797793 0.612086
vt 0.799399 0.005812
vt 0.799864 0.035015
vt 0.798930 0.035033
vt 0.783756 0.240893
vt 0.784222 0.270096
vt 0.783286 0.270113
vt 0.799518 0.165129
vt 0.799983 0.194332
vt 0.799049 0.194350
vt 0.783908 0.296892
vt 0.784374 0.326095
vt 0.783438 0.326112
vt 0.721605 0.122293
vt 0.723996 0.153080
vt 0.719235 0.153091
vt 0.575638 0.736477
vt 0.573246 0.705689
vt 0.578007 0.705678
vt 0.703009 0.254050
vt 0.707005 0.285252
vt 0.699033 0.285265
vt 0.703698 0.153496
vt 0.699702 0.122294
vt 0.707674 0.122281
vt 0.134485 0.559418
vt 0.163403 0.574782
vt 0.134486 0.590157
vt 0.535736 0.127054
vt 0.564624 0.111721
vt 0.564615 0.142413
vt 0.276250 0.598592
vt 0.289287 0.626399
vt 0.263208 0.626414
vt 0.092701 0.600501
vt 0.105753 0.628343
vt 0.079649 0.628340
vt 0.316226 0.775430
vt 0.316691 0.804633
vt 0.315757 0.804651
vt 0.784109 0.373492
vt 0.784575 0.402695
vt 0.783639 0.402712
vt 0.799595 0.693247
vt 0.800061 0.722450
vt 0.799126 0.722468
vt 0.496434 0.611154
vt 0.496900 0.640357
vt 0.495964 0.640375
vt 0.796699 0.774128
vt 0.797164 0.803331
vt 0.796230 0.803349
vt 0.784188 0.736029
vt 0.784654 0.765232
vt 0.783718 0.765249
vt 0.735466 0.296901
vt 0.733096 0.327700
vt 0.730705 0.296912
vt 0.730741 0.613678
vt 0.733111 0.582880
vt 0.735502 0.613667
vt 0.699590 0.417864
vt 0.703566 0.386650
vt 0.707562 0.417851
vt 0.421219 0.659072
vt 0.417243 0.690287
vt 0.413248 0.659085
vt 0.263256 0.638019
vt 0.283176 0.638016
vt 0.273216 0.661975
vt 0.540644 0.655834
vt 0.560508 0.655832
vt 0.550576 0.679790
vt 0.047687 0.690268
vt 0.056189 0.711414
vt 0.039179 0.711381
vt 0.652569 0.674422
vt 0.661061 0.695540
vt 0.644065 0.695537
vt 0.441234 0.847925
vt 0.441700 0.870452
vt 0.440764 0.870470
vt 0.551171 0.839380
vt 0.551636 0.861907
vt 0.550701 0.861924
vt 0.861601 0.332340
vt 0.862066 0.354867
vt 0.861131 0.354885
vt 0.301735 0.848572
vt 0.302200 0.871100
vt 0.301264 0.871117
vt 0.747924 0.852111
vt 0.748389 0.874638
vt 0.747453 0.874655
vt 0.861744 0.240894
vt 0.862209 0.263421
vt 0.861274 0.263438
vt 0.617903 0.783155
vt 0.615519 0.761472
vt 0.620266 0.761461
vt 0.242848 0.764782
vt 0.245232 0.786465
vt 0.240485 0.786476
vt 0.381812 0.659056
vt 0.401675 0.659054
vt 0.391744 0.683012
vt 0.643865 0.005807
vt 0.663784 0.005804
vt 0.653824 0.029763
vt 0.517637 0.691398
vt 0.526138 0.712544
vt 0.509129 0.712511
vt 0.088158 0.675495
vt 0.096650 0.696613
vt 0.079654 0.696611
vt 0.861768 0.062832
vt 0.862233 0.085359
vt 0.861298 0.085377
vt 0.833251 0.849564
vt 0.833717 0.872092
vt 0.832781 0.872110
vt 0.873782 0.240894
vt 0.874726 0.240893
vt 0.874251 0.263429
vt 0.861288 0.582866
vt 0.862232 0.582865
vt 0.861758 0.605401
vt 0.862019 0.638866
vt 0.862484 0.661393
vt 0.861549 0.661410
vt 0.874278 0.062832
vt 0.874743 0.085359
vt 0.873807 0.085377
vt 0.634188 0.761466
vt 0.636572 0.783149
vt 0.631825 0.783161
vt 0.778738 0.461582
vt 0.776355 0.439899
vt 0.781102 0.439887
vt 0.173802 0.613455
vt 0.193721 0.613452
vt 0.183761 0.637411
vt 0.472292 0.652988
vt 0.492168 0.652994
vt 0.482230 0.676948
vt 0.690762 0.538075
vt 0.699263 0.559222
vt 0.682254 0.559188
vt 0.684260 0.197864
vt 0.692758 0.218984
vt 0.675752 0.218975
vt 0.679112 0.832819
vt 0.679578 0.855346
vt 0.678642 0.855363
vt 0.509602 0.839379
vt 0.510067 0.861906
vt 0.509133 0.861924
vt 0.522114 0.839379
vt 0.522580 0.861906
vt 0.521645 0.861924
vt 0.691718 0.832819
vt 0.692184 0.855346
vt 0.691248 0.855363
vt 0.855109 0.439878
vt 0.855575 0.462405
vt 0.854639 0.462422
vt 0.538658 0.839380
vt 0.539124 0.861907
vt 0.538189 0.861925
vt 0.284375 0.760625
vt 0.286758 0.782309
vt 0.282011 0.782320
vt 0.319961 0.763790
vt 0.317577 0.742108
vt 0.322324 0.742096
vt 0.005801 0.615288
vt 0.025720 0.615286
vt 0.015761 0.639245
vt 0.440814 0.652988
vt 0.460690 0.652994
vt 0.450752 0.676948
vt 0.690762 0.472604
vt 0.699263 0.493750
vt 0.682254 0.493717
vt 0.581738 0.672920
vt 0.590236 0.694041
vt 0.573230 0.694031
vt 0.159977 0.835954
vt 0.160442 0.858481
vt 0.159508 0.858499
vt 0.108057 0.833353
vt 0.108523 0.855879
vt 0.107587 0.855897
vt 0.361593 0.836391
vt 0.362059 0.858918
vt 0.361124 0.858935
vt 0.120663 0.833352
vt 0.121129 0.855879
vt 0.120193 0.855897
vt 0.665291 0.833776
vt 0.665757 0.856303
vt 0.664821 0.856320
vt 0.706197 0.836699
vt 0.706662 0.859226
vt 0.705728 0.859244
vt 0.749845 0.747544
vt 0.752228 0.769228
vt 0.747481 0.769239
vt 0.733088 0.361042
vt 0.730704 0.339359
vt 0.735451 0.339348
vt 0.039229 0.654704
vt 0.059092 0.654702
vt 0.049161 0.678660
vt 0.301314 0.638009
vt 0.321233 0.638006
vt 0.311274 0.661965
vt 0.687049 0.671590
vt 0.695541 0.692708
vt 0.678546 0.692705
vt 0.477787 0.688560
vt 0.486288 0.709706
vt 0.469278 0.709673
vt 0.874270 0.582865
vt 0.874736 0.605392
vt 0.873800 0.605410
vt 0.862094 0.373493
vt 0.862559 0.396020
vt 0.861624 0.396037
vt 0.873932 0.290771
vt 0.874876 0.290770
vt 0.874401 0.313306
vt 0.861730 0.201709
vt 0.862674 0.201708
vt 0.862200 0.224244
vt 0.862897 0.005812
vt 0.863362 0.028339
vt 0.862427 0.028357
vt 0.874529 0.638865
vt 0.874995 0.661392
vt 0.874059 0.661410
vt 0.136880 0.786522
vt 0.134497 0.764839
vt 0.139243 0.764828
vt 0.220392 0.757565
vt 0.222776 0.779248
vt 0.218029 0.779260
vt 0.667588 0.261319
vt 0.687451 0.261317
vt 0.677520 0.285275
vt 0.615551 0.638860
vt 0.635470 0.638857
vt 0.625511 0.662816
vt 0.271712 0.673581
vt 0.280204 0.694699
vt 0.263209 0.694696
vt 0.546152 0.691398
vt 0.554653 0.712544
vt 0.537643 0.712511
vt 0.862544 0.159007
vt 0.863488 0.159007
vt 0.863014 0.181542
vt 0.874133 0.373493
vt 0.875076 0.373492
vt 0.874602 0.396028
vt 0.809209 0.852551
vt 0.809675 0.875078
vt 0.808739 0.875095
vt 0.863094 0.693247
vt 0.863559 0.715774
vt 0.862624 0.715792
vt 0.172839 0.841077
vt 0.173304 0.863604
vt 0.172370 0.863621
vt 0.874713 0.201708
vt 0.875178 0.224235
vt 0.874242 0.224253
vt 0.109890 0.783921
vt 0.107506 0.762238
vt 0.112253 0.762227
vt 0.467271 0.757090
vt 0.469654 0.778773
vt 0.464907 0.778784
vt 0.615245 0.050189
vt 0.623774 0.005796
vt 0.632271 0.050222
vt 0.629308 0.062832
vt 0.620779 0.107225
vt 0.612282 0.062799
vt 0.204048 0.910977
vt 0.203726 0.910933
vt 0.203899 0.890248
vt 0.465260 0.911713
vt 0.464934 0.911667
vt 0.465119 0.890982
vt 0.413428 0.912340
vt 0.413224 0.891659
vt 0.413623 0.891659
vt 0.641141 0.914423
vt 0.640920 0.893743
vt 0.641311 0.893743
vt 0.911639 0.394211
vt 0.911312 0.394165
vt 0.911498 0.373479
vt 0.382142 0.911291
vt 0.381820 0.911247
vt 0.381993 0.890562
vt 0.899332 0.428263
vt 0.899010 0.428219
vt 0.899183 0.407534
vt 0.911290 0.428264
vt 0.910963 0.428219
vt 0.911149 0.407533
vt 0.759833 0.693236
vt 0.760234 0.693231
vt 0.760030 0.735206
vt 0.440835 0.721289
vt 0.441261 0.721333
vt 0.441020 0.763171
vt 0.981542 0.195062
vt 0.981848 0.194555
vt 0.982126 0.194868
vt 0.981573 0.194621
vt 0.764436 0.440011
vt 0.764839 0.439813
vt 0.764839 0.481891
vt 0.981799 0.195497
vt 0.764605 0.481892
vt 0.005859 0.719198
vt 0.006249 0.719200
vt 0.981542 0.256922
vt 0.981978 0.256637
vt 0.981882 0.256599
vt 0.981809 0.257470
vt 0.039273 0.643151
vt 0.053643 0.642918
vt 0.053642 0.643151
vt 0.039216 0.642673
vt 0.053642 0.642515
vt 0.053643 0.642748
vt 0.523373 0.643856
vt 0.053742 0.600755
vt 0.053825 0.642735
vt 0.981542 0.232724
vt 0.981554 0.232060
vt 0.981905 0.231932
vt 0.982120 0.232406
vt 0.735783 0.907644
vt 0.509224 0.644064
vt 0.523592 0.644272
vt 0.523593 0.643869
vt 0.523691 0.643954
vt 0.930548 0.132854
vt 0.930315 0.132850
vt 0.930315 0.118265
vt 0.930716 0.118486
vt 0.930006 0.508026
vt 0.929791 0.493603
vt 0.930193 0.493386
vt 0.263212 0.430966
vt 0.300605 0.431013
vt 0.281903 0.475169
vt 0.509135 0.492830
vt 0.543702 0.492876
vt 0.526413 0.534200
vt 0.535730 0.005786
vt 0.570337 0.005819
vt 0.553031 0.047163
vt 0.372809 0.559712
vt 0.373753 0.559711
vt 0.373279 0.602476
vt 0.745815 0.373493
vt 0.746759 0.373492
vt 0.746285 0.416258
vt 0.732747 0.240893
vt 0.733691 0.240893
vt 0.733217 0.283658
vt 0.734941 0.638866
vt 0.735885 0.638865
vt 0.735411 0.681631
vt 0.734941 0.693247
vt 0.735885 0.693247
vt 0.735411 0.736013
vt 0.733304 0.373492
vt 0.734248 0.373492
vt 0.733774 0.416257
vt 0.704351 0.204438
vt 0.706724 0.165142
vt 0.709119 0.204427
vt 0.704726 0.296901
vt 0.702353 0.336197
vt 0.699957 0.296912
vt 0.682038 0.296911
vt 0.688425 0.330132
vt 0.675637 0.330116
vt 0.682044 0.582883
vt 0.688448 0.616103
vt 0.675626 0.616087
vt 0.388333 0.711682
vt 0.381818 0.694638
vt 0.394847 0.694646
vt 0.691628 0.704350
vt 0.685113 0.721353
vt 0.678599 0.704348
vt 0.645900 0.048411
vt 0.648459 0.041980
vt 0.652414 0.046820
vt 0.683048 0.105731
vt 0.684077 0.099609
vt 0.689491 0.103882
vt 0.395111 0.954509
vt 0.394969 0.946112
vt 0.395278 0.946100
vt 0.947669 0.332356
vt 0.947844 0.340706
vt 0.947435 0.340673
vt 0.954458 0.146169
vt 0.954309 0.137771
vt 0.954617 0.137759
vt 0.796986 0.923493
vt 0.797170 0.931844
vt 0.796826 0.931875
vt 0.947961 0.290786
vt 0.948136 0.299137
vt 0.947727 0.299103
vt 0.203904 0.954196
vt 0.203762 0.945798
vt 0.204071 0.945786
vt 0.947811 0.240910
vt 0.947986 0.249260
vt 0.947641 0.249291
vt 0.954783 0.945123
vt 0.954641 0.936725
vt 0.954950 0.936713
vt 0.091459 0.944406
vt 0.091630 0.952730
vt 0.091257 0.952724
vt 0.586139 0.956472
vt 0.586327 0.948121
vt 0.586512 0.956471
vt 0.942478 0.137806
vt 0.942653 0.146156
vt 0.942309 0.146187
vt 0.488947 0.954987
vt 0.488805 0.946590
vt 0.489114 0.946578
vt 0.942561 0.774094
vt 0.943418 0.781213
vt 0.941715 0.781219
vt 0.942472 0.845939
vt 0.943330 0.853057
vt 0.941623 0.853064
vt 0.077197 0.935295
vt 0.075638 0.935308
vt 0.076405 0.923736
vt 0.062949 0.935398
vt 0.062156 0.923840
vt 0.063715 0.923826
vt 0.382573 0.934488
vt 0.381781 0.922929
vt 0.383340 0.922916
vt 0.490302 0.934960
vt 0.488742 0.934973
vt 0.489509 0.923401
vt 0.938154 0.104591
vt 0.937887 0.092304
vt 0.938407 0.092304
vt 0.628922 0.926034
vt 0.629210 0.938319
vt 0.628697 0.938319
vt 0.641233 0.926034
vt 0.641521 0.938319
vt 0.641008 0.938319
vt 0.938301 0.480685
vt 0.938035 0.468399
vt 0.938555 0.468399
vt 0.615526 0.627242
vt 0.624056 0.582849
vt 0.632553 0.627275
vt 0.235069 0.559475
vt 0.226539 0.603868
vt 0.218042 0.559442
vt 0.615718 0.914522
vt 0.615497 0.893842
vt 0.615887 0.893842
vt 0.075806 0.912101
vt 0.075602 0.891419
vt 0.076001 0.891419
vt 0.912380 0.179721
vt 0.912175 0.159039
vt 0.912575 0.159039
vt 0.628831 0.914423
vt 0.628609 0.893743
vt 0.629000 0.893743
vt 0.394098 0.911291
vt 0.393776 0.911247
vt 0.393950 0.890562
vt 0.911314 0.083550
vt 0.910988 0.083505
vt 0.911173 0.062819
vt 0.916493 0.460591
vt 0.916272 0.439911
vt 0.916662 0.439911
vt 0.063495 0.912199
vt 0.063291 0.891517
vt 0.063690 0.891517
vt 0.759838 0.638854
vt 0.760239 0.638850
vt 0.760035 0.680825
vt 0.017880 0.719157
vt 0.018306 0.719200
vt 0.018065 0.761038
vt 0.452929 0.721331
vt 0.453319 0.721333
vt 0.981542 0.182587
vt 0.981848 0.182080
vt 0.982126 0.182393
vt 0.981542 0.269287
vt 0.981978 0.269001
vt 0.981882 0.268963
vt 0.981809 0.269834
vt 0.549750 0.643856
vt 0.067689 0.690410
vt 0.068092 0.732291
vt 0.067859 0.732291
vt 0.149041 0.601936
vt 0.149125 0.643916
vt 0.981799 0.183022
vt 0.535601 0.644064
vt 0.549970 0.644272
vt 0.981573 0.182146
vt 0.549970 0.643869
vt 0.550068 0.643954
vt 0.981542 0.245105
vt 0.981904 0.244313
vt 0.982120 0.244787
vt 0.981554 0.244440
vt 0.068092 0.690212
vt 0.924513 0.005787
vt 0.930023 0.788602
vt 0.929790 0.788598
vt 0.929790 0.774013
vt 0.929913 0.860498
vt 0.929698 0.846074
vt 0.930100 0.845858
vt 0.134573 0.644332
vt 0.134515 0.643854
vt 0.148942 0.644099
vt 0.148942 0.644332
vt 0.148942 0.643696
vt 0.148942 0.643929
vt 0.930191 0.774234
vt 0.312169 0.430966
vt 0.349562 0.431013
vt 0.330860 0.475169
vt 0.509135 0.439851
vt 0.543702 0.439897
vt 0.526413 0.481221
vt 0.535730 0.058751
vt 0.570337 0.058784
vt 0.553030 0.100129
vt 0.734362 0.062832
vt 0.735306 0.062832
vt 0.734832 0.105597
vt 0.738815 0.439878
vt 0.739759 0.439878
vt 0.739285 0.482644
vt 0.734741 0.005812
vt 0.735685 0.005812
vt 0.735211 0.048577
vt 0.738815 0.494260
vt 0.739759 0.494259
vt 0.739285 0.537025
vt 0.745258 0.240894
vt 0.746202 0.240893
vt 0.745728 0.283659
vt 0.734860 0.165128
vt 0.735804 0.165128
vt 0.735330 0.207893
vt 0.703852 0.102142
vt 0.706225 0.062846
vt 0.708621 0.102131
vt 0.704751 0.582874
vt 0.702378 0.622170
vt 0.699983 0.582885
vt 0.682038 0.341785
vt 0.688425 0.375006
vt 0.675636 0.374990
vt 0.224426 0.615494
vt 0.230830 0.648714
vt 0.218008 0.648698
vt 0.426313 0.701934
vt 0.419798 0.718937
vt 0.413284 0.701932
vt 0.224571 0.710144
vt 0.218056 0.693099
vt 0.231085 0.693107
vt 0.666333 0.048411
vt 0.668893 0.041980
vt 0.672848 0.046820
vt 0.736127 0.226841
vt 0.737155 0.220719
vt 0.742569 0.224991
vt 0.944770 0.562064
vt 0.944945 0.570414
vt 0.944536 0.570381
vt 0.075842 0.955322
vt 0.075700 0.946925
vt 0.076009 0.946913
vt 0.947802 0.407562
vt 0.947986 0.415912
vt 0.947642 0.415943
vt 0.955183 0.782457
vt 0.955033 0.774059
vt 0.955342 0.774047
vt 0.947835 0.062848
vt 0.948010 0.071199
vt 0.947601 0.071165
vt 0.955220 0.126178
vt 0.955078 0.117780
vt 0.955387 0.117768
vt 0.735548 0.933832
vt 0.735723 0.942182
vt 0.735315 0.942149
vt 0.955221 0.545619
vt 0.955079 0.537221
vt 0.955388 0.537209
vt 0.218266 0.945403
vt 0.218437 0.953727
vt 0.218064 0.953720
vt 0.678574 0.955914
vt 0.678762 0.947564
vt 0.678947 0.955914
vt 0.945938 0.515986
vt 0.946113 0.524336
vt 0.945768 0.524367
vt 0.062374 0.955420
vt 0.062231 0.947022
vt 0.062540 0.947010
vt 0.942607 0.537256
vt 0.943464 0.544375
vt 0.941761 0.544382
vt 0.942564 0.493467
vt 0.943423 0.500585
vt 0.941716 0.500593
vt 0.339629 0.932777
vt 0.338836 0.921218
vt 0.340395 0.921205
vt 0.466470 0.934903
vt 0.464911 0.934916
vt 0.465678 0.923344
vt 0.205259 0.934168
vt 0.203700 0.934181
vt 0.204467 0.922609
vt 0.218812 0.933823
vt 0.218019 0.922264
vt 0.219579 0.922250
vt 0.426726 0.925319
vt 0.427013 0.937604
vt 0.426500 0.937604
vt 0.615763 0.938460
vt 0.615497 0.926173
vt 0.616017 0.926173
vt 0.936576 0.693240
vt 0.936864 0.705525
vt 0.936351 0.705525
vt 0.938929 0.925129
vt 0.938663 0.912842
vt 0.939182 0.912842
vt 0.647072 0.638860
vt 0.666991 0.638857
vt 0.657032 0.662816
vt 0.509179 0.655834
vt 0.529042 0.655832
vt 0.519111 0.679790
vt 0.182260 0.684593
vt 0.190762 0.705740
vt 0.173752 0.705706
vt 0.687049 0.638854
vt 0.695541 0.659972
vt 0.678546 0.659970
vt 0.187337 0.843904
vt 0.187802 0.866431
vt 0.186867 0.866449
vt 0.873614 0.736030
vt 0.874079 0.758557
vt 0.873143 0.758574
vt 0.867620 0.439878
vt 0.868085 0.462405
vt 0.867151 0.462423
vt 0.769592 0.851535
vt 0.770058 0.874062
vt 0.769122 0.874080
vt 0.869120 0.537241
vt 0.869585 0.559768
vt 0.868650 0.559785
vt 0.875526 0.159006
vt 0.875992 0.181533
vt 0.875056 0.181551
vt 0.153166 0.764834
vt 0.155549 0.786517
vt 0.150803 0.786528
vt 0.483576 0.778779
vt 0.481192 0.757095
vt 0.485939 0.757084
vt 0.079702 0.639933
vt 0.099621 0.639930
vt 0.089662 0.663889
vt 0.672407 0.062826
vt 0.692270 0.062824
vt 0.682339 0.086783
vt 0.014260 0.686427
vt 0.022761 0.707574
vt 0.005751 0.707540
vt 0.338331 0.673571
vt 0.346823 0.694689
vt 0.329828 0.694686
vt 0.017961 0.845793
vt 0.018426 0.868320
vt 0.017491 0.868337
vt 0.874111 0.332340
vt 0.874576 0.354867
vt 0.873640 0.354885
vt 0.339288 0.854307
vt 0.339753 0.876834
vt 0.338817 0.876852
vt 0.869138 0.811772
vt 0.869603 0.834299
vt 0.868668 0.834316
vt 0.869236 0.774078
vt 0.869701 0.796605
vt 0.868766 0.796623
vt 0.263677 0.853512
vt 0.264142 0.876039
vt 0.263206 0.876057
vt 0.780156 0.515155
vt 0.777772 0.493472
vt 0.782519 0.493461
vt 0.650484 0.761466
vt 0.652867 0.783150
vt 0.648120 0.783161
vt 0.640886 0.062827
vt 0.660805 0.062824
vt 0.650845 0.086783
vt 0.173802 0.649022
vt 0.193678 0.649028
vt 0.183740 0.672982
vt 0.690762 0.439869
vt 0.699263 0.461016
vt 0.682254 0.460982
vt 0.226511 0.660342
vt 0.235009 0.681462
vt 0.218003 0.681453
vt 0.739288 0.548641
vt 0.739753 0.571168
vt 0.738819 0.571185
vt 0.856725 0.774078
vt 0.857191 0.796605
vt 0.856255 0.796622
vt 0.857251 0.118329
vt 0.857717 0.140856
vt 0.856781 0.140874
vt 0.861103 0.736030
vt 0.861569 0.758557
vt 0.860634 0.758574
vt 0.241025 0.835902
vt 0.241491 0.858429
vt 0.240555 0.858446
vt 0.134952 0.835954
vt 0.135417 0.858481
vt 0.134483 0.858499
vt 0.065696 0.765554
vt 0.063313 0.743871
vt 0.068060 0.743860
vt 0.780626 0.537255
vt 0.783009 0.558938
vt 0.778263 0.558949
vt 0.636066 0.261319
vt 0.655986 0.261317
vt 0.646026 0.285276
vt 0.005801 0.650856
vt 0.025677 0.650862
vt 0.015739 0.674816
vt 0.690762 0.505339
vt 0.699263 0.526486
vt 0.682254 0.526453
vt 0.684260 0.165122
vt 0.692758 0.186242
vt 0.675752 0.186233
vt 0.856527 0.493451
vt 0.856993 0.515978
vt 0.856057 0.515995
vt 0.722081 0.839366
vt 0.722546 0.861893
vt 0.721612 0.861911
vt 0.147464 0.835954
vt 0.147930 0.858481
vt 0.146995 0.858499
vt 0.856609 0.537240
vt 0.857075 0.559767
vt 0.856139 0.559784
vt 0.856627 0.811772
vt 0.857093 0.834299
vt 0.856157 0.834316
vt 0.734593 0.839366
vt 0.735059 0.861893
vt 0.734124 0.861911
vt 0.303665 0.763791
vt 0.301282 0.742108
vt 0.306029 0.742097
vt 0.415620 0.759283
vt 0.418003 0.780966
vt 0.413256 0.780977
vt 0.675386 0.005806
vt 0.695249 0.005804
vt 0.685318 0.029763
vt 0.573278 0.637354
vt 0.593197 0.637351
vt 0.583237 0.661310
vt 0.449272 0.688560
vt 0.457773 0.709706
vt 0.440764 0.709673
vt 0.309769 0.673571
vt 0.318262 0.694689
vt 0.301266 0.694686
vt 0.856531 0.845923
vt 0.856996 0.868450
vt 0.856061 0.868468
vt 0.091664 0.854356
vt 0.092129 0.876883
vt 0.091193 0.876901
vt 0.600184 0.846942
vt 0.600649 0.869469
vt 0.599714 0.869487
vt 0.875604 0.693247
vt 0.876069 0.715774
vt 0.875133 0.715792
vt 0.861894 0.290771
vt 0.862359 0.313298
vt 0.861424 0.313315
vt 0.039650 0.854497
vt 0.040115 0.877025
vt 0.039179 0.877042
vt 0.575620 0.748130
vt 0.578003 0.769813
vt 0.573256 0.769824
vt 0.782349 0.140033
vt 0.779966 0.118350
vt 0.784713 0.118339
vt 0.134529 0.655885
vt 0.154392 0.655883
vt 0.144461 0.679841
vt 0.644147 0.582860
vt 0.664066 0.582857
vt 0.654106 0.606816
vt 0.624007 0.674422
vt 0.632499 0.695540
vt 0.615504 0.695537
vt 0.142987 0.691448
vt 0.151488 0.712595
vt 0.134479 0.712562
vt 0.796697 0.852649
vt 0.797162 0.875176
vt 0.796226 0.875193
vt 0.869038 0.493452
vt 0.869503 0.515979
vt 0.868568 0.515996
vt 0.869044 0.845923
vt 0.869509 0.868450
vt 0.868574 0.868468
vt 0.316224 0.853951
vt 0.316689 0.876478
vt 0.315753 0.876495
vt 0.875407 0.005812
vt 0.875872 0.028339
vt 0.874936 0.028357
vt 0.869761 0.118330
vt 0.870227 0.140857
vt 0.869292 0.140875
vt 0.680945 0.783387
vt 0.678561 0.761704
vt 0.683308 0.761693
vt 0.093585 0.756164
vt 0.095968 0.777847
vt 0.091221 0.777858
vt 0.581872 0.005780
vt 0.603678 0.005772
vt 0.592782 0.051244
vt 0.005784 0.558251
vt 0.027637 0.558233
vt 0.016717 0.603711
vt 0.184342 0.559498
vt 0.193765 0.601814
vt 0.174925 0.601815
vt 0.591286 0.062850
vt 0.600730 0.105162
vt 0.581849 0.105172
vt 0.161278 0.601720
vt 0.161695 0.644071
vt 0.160858 0.644089
vt 0.066074 0.600538
vt 0.066492 0.642889
vt 0.065653 0.642906
vt 0.120772 0.742507
vt 0.121422 0.750440
vt 0.120103 0.750430
vt 0.643529 0.562147
vt 0.644180 0.570081
vt 0.642859 0.570071
vt 0.717177 0.352911
vt 0.717827 0.360844
vt 0.716508 0.360834
vt 0.662082 0.618450
vt 0.662733 0.626383
vt 0.661412 0.626373
vt 0.468349 0.641417
vt 0.476338 0.611108
vt 0.484331 0.641416
vt 0.456778 0.611108
vt 0.448789 0.641416
vt 0.440796 0.611109
vt 0.688035 0.386642
vt 0.681835 0.415860
vt 0.675667 0.386609
vt 0.675773 0.153503
vt 0.681973 0.124286
vt 0.688141 0.153536
vt 0.341333 0.742059
vt 0.343828 0.764137
vt 0.338852 0.764146
vt 0.702460 0.352915
vt 0.704960 0.374991
vt 0.699973 0.375003
vt 0.830798 0.620671
vt 0.827831 0.627181
vt 0.824858 0.620662
vt 0.779368 0.481818
vt 0.776396 0.475284
vt 0.782336 0.475296
vt 0.515410 0.428300
vt 0.509137 0.296832
vt 0.521697 0.296869
vt 0.456962 0.005759
vt 0.450700 0.136864
vt 0.444438 0.005752
vt 0.499091 0.137219
vt 0.492818 0.005752
vt 0.505378 0.005788
vt 0.468673 0.136861
vt 0.474940 0.005756
vt 0.481198 0.136868
vt 0.270449 0.706349
vt 0.266841 0.730399
vt 0.263245 0.706342
vt 0.323675 0.730442
vt 0.320079 0.706331
vt 0.327282 0.706343
vt 0.021039 0.914583
vt 0.020774 0.922030
vt 0.018408 0.921994
vt 0.022480 0.918040
vt 0.883132 0.044894
vt 0.882390 0.051150
vt 0.879823 0.044638
vt 0.836192 0.917944
vt 0.836007 0.924485
vt 0.833628 0.924451
vt 0.878519 0.100391
vt 0.877777 0.106648
vt 0.875210 0.100136
vt 0.924973 0.474106
vt 0.924789 0.480648
vt 0.922410 0.480613
vt 0.859609 0.914713
vt 0.859344 0.922160
vt 0.856978 0.922124
vt 0.861051 0.918170
vt 0.908817 0.474362
vt 0.908075 0.480619
vt 0.905508 0.474107
vt 0.750864 0.920393
vt 0.750680 0.926934
vt 0.748300 0.926900
vt 0.886082 0.918171
vt 0.884375 0.922160
vt 0.884640 0.914713
vt 0.882009 0.922124
vt 0.366845 0.908716
vt 0.364918 0.912699
vt 0.362928 0.905630
vt 0.925964 0.913747
vt 0.925417 0.920844
vt 0.923038 0.920809
vt 0.921508 0.619448
vt 0.920884 0.627210
vt 0.918518 0.627174
vt 0.922591 0.623221
vt 0.887568 0.620927
vt 0.886826 0.627183
vt 0.884259 0.620671
vt 0.445756 0.918854
vt 0.444050 0.922844
vt 0.444315 0.915397
vt 0.441684 0.922808
vt 0.812226 0.920832
vt 0.811965 0.927374
vt 0.809586 0.927339
vt 0.926351 0.270879
vt 0.926091 0.277421
vt 0.923711 0.277386
vt 0.301764 0.919501
vt 0.300058 0.923491
vt 0.300323 0.916044
vt 0.297692 0.923455
vt 0.888630 0.675308
vt 0.887888 0.681564
vt 0.885321 0.675053
vt 0.342457 0.706335
vt 0.346053 0.730394
vt 0.338850 0.730384
vt 0.301296 0.730436
vt 0.304904 0.706337
vt 0.308499 0.730448
vt 0.543178 0.911725
vt 0.541471 0.915715
vt 0.541736 0.908268
vt 0.539105 0.915679
vt 0.895803 0.100391
vt 0.895062 0.106647
vt 0.892495 0.100136
vt 0.768132 0.919817
vt 0.767871 0.926358
vt 0.765492 0.926324
vt 0.900416 0.044894
vt 0.899675 0.051150
vt 0.897108 0.044638
vt 0.926625 0.640359
vt 0.926365 0.646900
vt 0.923985 0.646866
vt 0.758735 0.220095
vt 0.758470 0.227542
vt 0.756104 0.227506
vt 0.760177 0.223552
vt 0.902227 0.619239
vt 0.904248 0.626305
vt 0.900380 0.623214
vt 0.927186 0.373556
vt 0.924211 0.381283
vt 0.924852 0.373521
vt 0.923209 0.377516
vt 0.558731 0.907742
vt 0.555821 0.914805
vt 0.556369 0.907709
vt 0.926731 0.203201
vt 0.926547 0.209743
vt 0.924167 0.209708
vt 0.190415 0.912694
vt 0.190150 0.920141
vt 0.187784 0.920105
vt 0.191857 0.916152
vt 0.913088 0.100391
vt 0.912347 0.106648
vt 0.909780 0.100136
vt 0.903289 0.673620
vt 0.905885 0.680129
vt 0.902586 0.679873
vt 0.267180 0.920364
vt 0.264574 0.927776
vt 0.264846 0.920329
vt 0.909754 0.912869
vt 0.907226 0.919379
vt 0.907393 0.912836
vt 0.263202 0.924324
vt 0.868719 0.673620
vt 0.871315 0.680129
vt 0.868016 0.679873
vt 0.317392 0.920866
vt 0.317121 0.928313
vt 0.315749 0.924861
vt 0.319727 0.920901
vt 0.922715 0.673619
vt 0.920187 0.680129
vt 0.920353 0.673586
vt 0.650982 0.413673
vt 0.650087 0.413721
vt 0.650667 0.296926
vt 0.664051 0.413658
vt 0.663127 0.413728
vt 0.663496 0.296903
vt 0.340479 0.659368
vt 0.339555 0.659438
vt 0.339924 0.542613
vt 0.657609 0.556659
vt 0.656714 0.556707
vt 0.657294 0.439912
vt 0.393688 0.611118
vt 0.401691 0.647465
vt 0.385700 0.647485
vt 0.421241 0.611122
vt 0.429228 0.647472
vt 0.413272 0.647484
vt 0.747049 0.351288
vt 0.754001 0.351280
vt 0.750526 0.361249
vt 0.424177 0.138701
vt 0.431144 0.138690
vt 0.427662 0.148661
vt 0.720190 0.695891
vt 0.713675 0.712893
vt 0.707161 0.695889
vt 0.555155 0.586223
vt 0.548640 0.569178
vt 0.561670 0.569186
vt 0.663336 0.105431
vt 0.665896 0.099000
vt 0.669851 0.103840
vt 0.686045 0.048711
vt 0.687074 0.042589
vt 0.692488 0.046862
vt 0.951401 0.036713
vt 0.951185 0.045031
vt 0.951028 0.036708
vt 0.142620 0.957609
vt 0.142463 0.949270
vt 0.142805 0.949246
vt 0.797198 0.943407
vt 0.796982 0.951725
vt 0.796825 0.943403
vt 0.923005 0.957160
vt 0.922848 0.948822
vt 0.923190 0.948797
vt 0.952194 0.353551
vt 0.951977 0.361869
vt 0.951820 0.353547
vt 0.154522 0.957609
vt 0.154365 0.949270
vt 0.154707 0.949246
vt 0.316220 0.940464
vt 0.316004 0.948783
vt 0.315847 0.940460
vt 0.282201 0.956726
vt 0.282044 0.948387
vt 0.282386 0.948363
vt 0.951844 0.265078
vt 0.951628 0.273397
vt 0.951471 0.265074
vt 0.426634 0.957594
vt 0.426477 0.949256
vt 0.426820 0.949231
vt 0.130718 0.957609
vt 0.130561 0.949270
vt 0.130904 0.949246
vt 0.952119 0.638805
vt 0.951903 0.647123
vt 0.951746 0.638801
vt 0.941677 0.880093
vt 0.943384 0.880085
vt 0.942536 0.887211
vt 0.941709 0.792875
vt 0.943413 0.792868
vt 0.942566 0.799994
vt 0.785211 0.935055
vt 0.783651 0.935069
vt 0.784418 0.923496
vt 0.039991 0.932968
vt 0.039198 0.921409
vt 0.040757 0.921396
vt 0.092004 0.932826
vt 0.091212 0.921267
vt 0.092771 0.921254
vt 0.396466 0.934482
vt 0.394906 0.934495
vt 0.395673 0.922923
vt 0.263203 0.297024
vt 0.861054 0.982310
vt 0.569734 0.982309
vt 0.581398 0.982113
vt 0.849456 0.982113
vt 0.872785 0.982113
vt 0.053741 0.642833
vt 0.053826 0.642735
vt 0.254677 0.982227
vt 0.254864 0.982252
vt 0.254775 0.982199
vt 0.254860 0.982297
vt 0.254722 0.982480
vt 0.301383 0.982319
vt 0.301213 0.982319
vt 0.301193 0.982113
vt 0.266357 0.982227
vt 0.266544 0.982252
vt 0.266455 0.982199
vt 0.266541 0.982297
vt 0.266402 0.982480
vt 0.313080 0.982319
vt 0.312910 0.982319
vt 0.312890 0.982113
vt 0.149040 0.644014
vt 0.149126 0.643916
vt 0.119745 0.283299
vt 0.134543 0.798195
vt 0.134717 0.798195
vt 0.134527 0.824297
vt 0.796222 0.814988
vt 0.796348 0.814988
vt 0.796276 0.841090
vt 0.541099 0.281931
vt 0.925830 0.092304
vt 0.926179 0.092251
vt 0.926193 0.106705
vt 0.361116 0.559647
vt 0.819493 0.439911
vt 0.819667 0.439911
vt 0.819477 0.466014
vt 0.678607 0.795060
vt 0.678782 0.795060
vt 0.678690 0.821162
vt 0.146279 0.798195
vt 0.146454 0.798195
vt 0.146362 0.824297
vt 0.107552 0.795593
vt 0.107727 0.795593
vt 0.107536 0.821695
vt 0.833451 0.144393
vt 0.833355 0.144314
vt 0.833356 0.118266
vt 0.832728 0.519514
vt 0.832632 0.519436
vt 0.832670 0.493389
vt 0.824863 0.582898
vt 0.825038 0.582898
vt 0.824946 0.609001
vt 0.523578 0.601771
vt 0.278062 0.982113
vt 0.208081 0.982113
vt 0.549955 0.601771
vt 0.289640 0.982113
vt 0.219781 0.982113
vt 0.636012 0.296827
vt 0.813254 0.283562
vt 0.678539 0.936023
vt 0.243183 0.982628
vt 0.231585 0.982629
vt 0.263402 0.300162
vt 0.039175 0.816837
vt 0.039301 0.816836
vt 0.039267 0.842938
vt 0.844316 0.493485
vt 0.844441 0.493484
vt 0.844407 0.519586
vt 0.075602 0.817956
vt 0.075728 0.817955
vt 0.075656 0.844057
vt 0.845039 0.118363
vt 0.845165 0.118362
vt 0.845093 0.144465
vt 0.842898 0.439911
vt 0.843024 0.439911
vt 0.842990 0.466013
vt 0.821741 0.144465
vt 0.821566 0.144465
vt 0.821757 0.118363
vt 0.825018 0.088968
vt 0.824803 0.088968
vt 0.824994 0.062865
vt 0.158123 0.824297
vt 0.157948 0.824297
vt 0.158079 0.798156
vt 0.982005 0.231855
vt 0.982004 0.244236
vt 0.968501 0.759752
vt 0.361117 0.434209
vt 0.005915 0.911522
vt 0.533384 0.296830
vt 0.982209 0.219646
vt 0.982209 0.207223
vt 0.820910 0.493485
vt 0.821085 0.493485
vt 0.820894 0.519587
vt 0.820992 0.537274
vt 0.821167 0.537274
vt 0.821075 0.563376
vt 0.705804 0.798885
vt 0.705962 0.798940
vt 0.705772 0.825042
vt 0.821108 0.774161
vt 0.821283 0.774161
vt 0.821092 0.800263
vt 0.119289 0.795593
vt 0.119464 0.795593
vt 0.119372 0.821696
vt 0.361200 0.798576
vt 0.361359 0.798632
vt 0.361168 0.824734
vt 0.981835 0.231837
vt 0.981835 0.244218
vt 0.635168 0.124238
vt 0.116507 0.430808
vt 0.246592 0.559410
vt 0.690451 0.821162
vt 0.690276 0.821162
vt 0.690467 0.795060
vt 0.824353 0.762165
vt 0.824139 0.762165
vt 0.824329 0.736063
vt 0.824851 0.358475
vt 0.824636 0.358475
vt 0.824827 0.332373
vt 0.824954 0.267029
vt 0.824779 0.267029
vt 0.824970 0.240927
vt 0.664893 0.822119
vt 0.664719 0.822119
vt 0.664909 0.796017
vt 0.240667 0.824245
vt 0.240452 0.824245
vt 0.240643 0.798143
vt 0.926835 0.036806
vt 0.927185 0.036753
vt 0.927198 0.051207
vt 0.923316 0.228614
vt 0.515157 0.281932
vt 0.515157 0.159759
vt 0.515158 0.159759
vt 0.515256 0.159661
vt 0.522440 0.159661
vt 0.681777 0.928851
vt 0.681659 0.928734
vt 0.524112 0.005836
vt 0.516947 0.127965
vt 0.524229 0.127857
vt 0.524131 0.127962
vt 0.134573 0.300039
vt 0.245432 0.416152
vt 0.522342 0.282050
vt 0.515275 0.282049
vt 0.522440 0.281951
vt 0.110616 0.937561
vt 0.110596 0.930279
vt 0.577864 0.270401
vt 0.577765 0.159642
vt 0.559325 0.410643
vt 0.981808 0.256637
vt 0.981963 0.219414
vt 0.982228 0.256922
vt 0.054058 0.600853
vt 0.981725 0.684615
vt 0.981793 0.685094
vt 0.981620 0.685160
vt 0.981542 0.685248
vt 0.981542 0.685045
vt 0.981808 0.269001
vt 0.982228 0.269287
vt 0.149358 0.602034
vt 0.981725 0.672346
vt 0.981793 0.672825
vt 0.981620 0.672891
vt 0.981542 0.672979
vt 0.981542 0.672776
vt 0.981963 0.206991
s 1
usemtl residential_012_baked.001
f 69/1/1 71/2/1 72/3/1
f 75/4/2 77/5/2 78/6/2
f 80/7/3 82/8/3 79/9/3
f 85/10/4 87/11/4 84/12/4
f 88/13/5 90/14/6 91/15/5
f 95/16/7 97/17/7 98/18/7
f 102/19/8 104/20/8 101/21/8
f 107/22/9 108/23/9 106/24/9
f 109/25/10 110/26/10 111/27/10
f 116/28/11 117/29/11 118/30/11
f 384/31/12 364/32/12 385/33/12
f 394/34/13 395/35/13 396/36/13
f 488/37/12 479/38/12 489/39/12
f 505/40/13 506/41/13 507/42/13
f 74/43/14 69/1/14 72/3/14
f 154/44/15 152/45/16 153/46/17
f 182/47/18 183/48/19 184/49/20
f 111/50/21 91/51/21 109/52/21
f 63/53/22 67/54/23 66/55/24
f 75/4/25 92/56/26 94/57/27
f 82/8/28 83/58/29 79/9/30
f 98/18/31 105/59/32 95/16/33
f 108/23/34 105/60/35 106/24/36
f 92/61/37 112/62/37 113/63/37
f 108/23/38 70/64/39 69/1/40
f 120/65/41 75/4/42 119/66/43
f 82/8/44 81/67/45 116/68/46
f 130/69/47 128/70/47 129/71/47
f 136/72/48 134/73/49 135/74/50
f 142/75/51 140/76/52 141/77/53
f 151/78/54 149/79/55 150/80/56
f 158/81/57 160/82/58 159/83/59
f 161/84/60 162/85/61 163/86/62
f 166/87/63 164/88/64 165/89/65
f 169/90/66 168/91/67 167/92/68
f 174/93/69 173/94/70 175/95/71
f 181/96/72 179/97/73 180/98/74
f 185/99/75 186/100/76 187/101/77
f 394/102/78 366/103/78 365/104/78
f 377/105/79 373/106/79 378/107/79
f 381/108/80 377/109/80 375/110/80
f 390/111/81 398/112/81 388/113/81
f 505/114/82 481/115/82 480/116/82
f 493/117/79 484/118/79 494/119/79
f 498/120/80 493/121/80 497/122/80
f 502/123/81 509/124/81 503/125/81
f 65/126/83 110/127/83 64/128/83
f 74/129/84 88/130/84 73/131/84
f 363/132/85 378/133/86 362/134/87
f 375/135/88 362/136/89 376/137/90
f 490/138/85 494/139/86 485/140/91
f 497/141/92 485/142/89 492/143/93
f 77/5/94 84/144/94 78/6/94
f 117/145/95 100/146/95 118/147/95
f 98/18/42 120/148/96 121/149/97
f 92/61/98 95/16/42 93/150/99
f 120/151/100 115/152/100 114/153/100
f 366/154/101 368/155/102 365/156/103
f 371/157/104 372/158/105 367/159/106
f 371/160/107 391/161/108 369/162/109
f 481/163/101 483/164/110 480/165/103
f 513/166/104 482/167/105 512/168/111
f 513/169/107 510/170/108 514/171/109
f 67/172/112 85/173/112 66/174/112
f 79/175/113 71/176/113 80/177/113
f 99/178/114 104/179/114 100/180/114
f 372/181/115 396/182/115 395/183/115
f 379/184/116 367/185/116 380/186/116
f 372/187/117 374/188/118 362/189/119
f 396/190/120 392/191/120 397/192/120
f 482/193/121 507/194/122 506/195/123
f 495/196/116 512/197/116 496/198/116
f 482/199/117 491/200/124 485/201/119
f 507/202/120 511/203/120 508/204/120
f 94/205/125 90/206/125 89/207/125
f 389/208/126 387/209/127 386/210/128
f 388/211/129 371/160/107 370/212/130
f 500/213/126 501/214/127 499/215/128
f 503/216/129 513/169/107 515/217/130
f 107/22/131 116/68/131 118/147/131
f 395/183/132 364/32/133 384/31/134
f 398/218/135 389/219/135 386/220/135
f 454/221/136 452/222/136 453/223/136
f 506/195/132 479/38/133 488/37/134
f 509/224/135 500/225/135 499/226/135
f 571/227/136 570/228/136 569/229/136
f 86/230/137 103/231/137 87/232/137
f 121/149/138 102/233/138 101/234/138
f 454/235/136 453/236/136 452/237/136
f 571/238/136 569/239/136 570/240/136
f 55/241/139 56/242/139 54/243/136
f 54/244/136 56/245/139 55/246/139
f 58/247/136 59/248/136 57/249/136
f 59/250/136 58/251/136 57/252/136
f 60/253/136 61/254/136 62/255/136
f 60/256/136 62/257/136 61/258/136
f 66/55/140 64/259/141 63/53/142
f 63/260/142 64/128/141 111/261/143
f 67/262/23 63/263/22 90/264/144
f 63/260/142 111/261/143 91/265/145
f 65/266/146 102/267/147 110/268/148
f 66/55/140 68/269/149 64/259/141
f 65/266/146 68/270/150 102/267/147
f 67/262/23 90/264/144 85/271/151
f 68/272/149 66/273/140 86/274/152
f 68/272/149 86/274/152 103/275/153
f 79/9/30 74/43/154 72/3/14
f 71/176/155 70/276/156 112/277/157
f 71/176/151 112/277/151 92/278/151
f 69/279/158 73/280/158 89/281/158
f 89/281/158 71/282/158 69/279/158
f 79/9/30 83/58/29 74/43/154
f 74/283/154 83/284/29 87/285/159
f 85/286/160 90/287/160 89/288/160
f 94/205/42 85/289/42 78/290/42
f 76/291/161 119/292/162 114/153/163
f 81/293/164 80/177/164 77/294/164
f 80/177/165 78/295/165 77/294/165
f 82/296/166 75/297/166 77/298/166
f 83/299/167 77/300/168 84/301/169
f 81/293/170 77/294/171 76/302/161
f 94/205/42 90/206/42 85/289/42
f 88/303/42 104/304/42 85/289/42
f 110/305/172 101/234/172 104/304/172
f 113/63/173 96/306/174 93/150/175
f 110/305/42 98/18/42 121/149/97
f 70/307/176 107/308/176 97/309/176
f 105/310/32 107/311/158 97/312/158
f 70/307/177 97/309/178 96/313/174
f 107/308/148 120/314/148 97/309/148
f 99/315/179 105/316/35 109/317/180
f 99/318/181 118/147/181 106/24/181
f 117/319/139 100/320/139 101/321/139
f 99/318/179 106/24/36 105/60/35
f 110/305/42 121/149/42 102/233/42
f 117/319/139 101/321/139 120/322/139
f 70/323/177 96/324/174 113/325/173
f 81/326/170 76/327/161 114/328/163
f 117/329/182 81/330/183 115/331/184
f 117/329/148 115/331/148 120/314/148
f 124/332/185 123/333/186 122/334/187
f 122/335/187 123/336/186 124/337/185
f 147/338/188 148/339/136 146/340/189
f 146/341/189 148/342/136 147/343/188
f 172/344/151 171/345/136 170/346/151
f 170/347/151 171/348/136 172/349/151
f 196/350/190 194/351/191 195/352/192
f 194/353/191 196/354/190 195/355/192
f 198/356/136 197/357/136 199/358/136
f 198/359/136 199/360/136 197/361/136
f 200/362/136 201/363/136 202/364/136
f 200/365/136 202/366/136 201/367/136
f 205/368/136 204/369/136 203/370/136
f 205/371/136 203/372/136 204/373/136
f 207/374/136 208/375/136 206/376/136
f 207/377/136 206/378/136 208/379/136
f 211/380/136 209/381/136 210/382/136
f 211/383/136 210/384/136 209/385/136
f 213/386/136 212/387/136 214/388/136
f 213/389/136 214/390/136 212/391/136
f 217/392/193 215/393/193 216/394/136
f 215/395/193 217/396/193 216/397/136
f 218/398/136 220/399/136 219/400/136
f 218/401/136 219/402/136 220/403/136
f 223/404/136 222/405/136 221/406/136
f 223/407/136 221/408/136 222/409/136
f 225/410/136 226/411/136 224/412/136
f 225/413/136 224/414/136 226/415/136
f 228/416/136 229/417/136 227/418/136
f 228/419/136 227/420/136 229/421/136
f 232/422/148 230/423/148 231/424/148
f 231/425/148 230/426/148 232/427/148
f 234/428/194 235/429/194 233/430/194
f 233/431/194 235/432/194 234/433/194
f 237/434/136 236/435/136 238/436/136
f 236/437/136 237/438/136 238/439/136
f 239/440/136 241/441/136 240/442/136
f 239/443/136 240/444/136 241/445/136
f 242/446/136 244/447/136 243/448/136
f 242/449/136 243/450/136 244/451/136
f 247/452/136 246/453/136 245/454/136
f 247/455/136 245/456/136 246/457/136
f 248/458/136 250/459/136 249/460/136
f 248/461/136 249/462/136 250/463/136
f 251/464/136 252/465/136 253/466/136
f 251/467/136 253/468/136 252/469/136
f 256/470/136 255/471/136 254/472/136
f 255/473/136 256/474/136 254/475/136
f 259/476/136 257/477/136 258/478/136
f 259/479/136 258/480/136 257/481/136
f 262/482/136 261/483/136 260/484/136
f 262/485/136 260/486/136 261/487/136
f 264/488/136 265/489/136 263/490/136
f 265/491/136 264/492/136 263/493/136
f 268/494/136 267/495/136 266/496/136
f 268/497/136 266/498/136 267/499/136
f 269/500/136 271/501/136 270/502/136
f 269/503/136 270/504/136 271/505/136
f 274/506/195 272/507/195 273/508/151
f 272/509/195 274/510/195 273/511/151
f 275/512/136 277/513/136 276/514/136
f 275/515/136 276/516/136 277/517/136
f 280/518/136 279/519/136 278/520/136
f 280/521/136 278/522/136 279/523/136
f 281/524/136 282/525/136 283/526/136
f 281/527/136 283/528/136 282/529/136
f 286/530/136 285/531/136 284/532/136
f 286/533/136 284/534/136 285/535/136
f 287/536/136 288/537/136 289/538/136
f 287/539/136 289/540/136 288/541/136
f 290/542/136 292/543/136 291/544/136
f 292/545/136 290/546/136 291/547/136
f 294/548/136 295/549/136 293/550/136
f 294/551/136 293/552/136 295/553/136
f 298/554/136 296/555/136 297/556/136
f 298/557/136 297/558/136 296/559/136
f 299/560/136 301/561/136 300/562/136
f 299/563/136 300/564/136 301/565/136
f 302/566/136 304/567/136 303/568/136
f 302/569/136 303/570/136 304/571/136
f 305/572/136 307/573/136 306/574/136
f 305/575/136 306/576/136 307/577/136
f 308/578/196 309/579/197 310/580/198
f 309/581/197 308/582/196 310/583/198
f 311/584/136 313/585/136 312/586/136
f 311/587/136 312/588/136 313/589/136
f 315/590/136 316/591/136 314/592/136
f 315/593/136 314/594/136 316/595/136
f 319/596/136 317/597/136 318/598/136
f 317/599/136 319/600/136 318/601/136
f 320/602/136 321/603/136 322/604/136
f 320/605/136 322/606/136 321/607/136
f 323/608/136 324/609/136 325/610/136
f 323/611/136 325/612/136 324/613/136
f 327/614/42 326/615/42 328/616/42
f 326/617/42 327/618/42 328/619/42
f 329/620/136 331/621/136 330/622/136
f 329/623/136 330/624/136 331/625/136
f 333/626/136 332/627/136 334/628/136
f 332/629/136 333/630/136 334/631/136
f 336/632/136 337/633/136 335/634/136
f 336/635/136 335/636/136 337/637/136
f 338/638/136 339/639/136 340/640/136
f 338/641/136 340/642/136 339/643/136
f 341/644/136 343/645/136 342/646/136
f 341/647/136 342/648/136 343/649/136
f 346/650/136 345/651/136 344/652/136
f 344/653/136 345/654/136 346/655/136
f 347/656/148 348/657/148 349/658/148
f 348/659/148 347/660/148 349/661/148
f 351/662/136 350/663/136 352/664/136
f 351/665/136 352/666/136 350/667/136
f 354/668/148 353/669/148 355/670/148
f 353/671/148 354/672/148 355/673/148
f 358/674/148 356/675/148 357/676/148
f 356/677/148 358/678/148 357/679/148
f 359/680/199 360/681/200 361/682/201
f 360/683/200 359/684/199 361/685/201
f 363/686/85 385/687/202 364/688/203
f 363/686/85 362/689/87 385/687/202
f 362/690/119 379/691/204 367/692/205
f 363/686/85 364/688/203 378/693/206
f 362/690/119 367/692/205 372/694/117
f 373/695/207 364/696/133 365/156/208
f 364/32/133 394/102/209 365/104/208
f 366/697/210 395/698/210 396/699/210
f 373/695/207 365/156/208 368/155/211
f 371/157/212 368/700/102 366/697/101
f 371/160/107 392/191/213 391/161/108
f 386/701/128 369/702/214 391/703/215
f 387/704/127 388/705/216 370/706/217
f 386/701/128 387/704/127 369/702/214
f 371/160/107 396/190/158 392/191/213
f 374/707/118 372/181/117 384/31/218
f 384/31/218 372/181/117 395/183/219
f 380/186/220 378/708/220 368/709/220
f 380/710/221 381/711/221 383/712/221
f 380/710/222 383/712/223 375/713/224
f 376/714/90 381/108/225 375/110/88
f 376/715/90 384/31/226 381/716/225
f 382/717/227 383/718/227 384/31/227
f 387/719/127 389/720/126 398/721/228
f 387/719/127 398/721/228 390/722/229
f 386/723/128 391/724/215 397/725/230
f 399/726/231 400/727/231 402/728/231
f 401/729/42 403/730/42 402/731/42
f 403/732/42 401/733/42 402/734/42
f 406/735/136 404/736/136 405/737/136
f 404/738/136 406/739/136 405/740/136
f 408/741/136 409/742/136 407/743/136
f 409/744/136 408/745/136 407/746/136
f 410/747/136 412/748/136 411/749/136
f 412/750/136 410/751/136 411/752/136
f 414/753/148 415/754/148 413/755/148
f 413/756/148 415/757/148 414/758/148
f 417/759/136 418/760/136 416/761/136
f 417/762/136 416/763/136 418/764/136
f 419/765/193 421/766/232 420/767/233
f 421/768/232 419/769/193 420/770/233
f 422/771/42 423/772/42 424/773/42
f 424/774/42 423/775/42 422/776/42
f 426/777/136 425/778/136 427/779/136
f 426/780/136 427/781/136 425/782/136
f 430/783/136 429/784/136 428/785/136
f 430/786/136 428/787/136 429/788/136
f 431/789/136 433/790/136 432/791/136
f 431/792/136 432/793/136 433/794/136
f 434/795/136 436/796/136 435/797/136
f 434/798/136 435/799/136 436/800/136
f 437/801/234 439/802/235 438/803/236
f 439/804/235 437/805/234 438/806/236
f 441/807/136 440/808/136 442/809/136
f 441/810/136 442/811/136 440/812/136
f 443/813/136 445/814/136 444/815/136
f 443/816/136 444/817/136 445/818/136
f 447/819/237 446/820/238 448/821/239
f 448/822/239 446/823/238 447/824/237
f 450/825/240 451/826/241 449/827/242
f 449/828/242 451/829/241 450/830/240
f 455/831/136 457/832/243 456/833/136
f 455/834/136 456/835/136 457/836/243
f 460/837/136 459/838/136 458/839/136
f 460/840/136 458/841/136 459/842/136
f 463/843/136 461/844/136 462/845/136
f 462/846/136 461/847/136 463/848/136
f 464/849/136 466/850/136 465/851/136
f 464/852/136 465/853/136 466/854/136
f 467/855/136 468/856/136 469/857/136
f 467/858/136 469/859/136 468/860/136
f 470/861/148 471/862/148 472/863/148
f 471/864/148 470/865/148 472/866/148
f 474/867/136 473/868/136 475/869/136
f 474/870/136 475/871/136 473/872/136
f 478/873/136 476/874/136 477/875/136
f 476/876/136 478/877/136 477/878/136
f 484/879/207 479/880/133 480/165/208
f 490/881/85 489/882/244 479/883/245
f 479/38/133 505/114/209 480/116/208
f 481/884/210 506/885/210 507/886/210
f 484/879/207 480/165/208 483/164/211
f 513/166/212 483/887/110 481/884/101
f 491/888/124 482/193/117 488/37/246
f 488/37/246 482/193/117 506/195/219
f 485/889/119 512/890/205 482/891/117
f 496/198/220 494/892/220 483/893/220
f 490/881/85 479/883/245 494/894/206
f 492/895/93 488/37/247 498/896/225
f 490/881/85 485/897/91 489/882/244
f 486/898/248 487/899/248 488/37/248
f 496/900/222 487/901/223 497/902/224
f 496/900/249 498/903/249 487/901/249
f 485/889/119 495/904/250 512/890/205
f 492/905/93 498/120/225 497/122/92
f 501/906/127 500/907/126 509/908/228
f 499/909/128 510/910/215 508/911/230
f 499/912/128 501/913/127 514/914/214
f 499/912/128 514/914/214 510/915/215
f 501/913/127 503/916/216 515/917/217
f 501/906/127 509/908/228 502/918/229
f 513/169/107 507/202/158 511/203/213
f 513/169/107 511/203/213 510/170/108
f 516/919/231 517/920/231 519/921/231
f 518/922/136 520/923/136 519/924/136
f 520/925/136 518/926/136 519/927/136
f 522/928/136 521/929/136 523/930/136
f 521/931/136 522/932/136 523/933/136
f 525/934/136 524/935/136 526/936/136
f 524/937/136 525/938/136 526/939/136
f 529/940/136 528/941/136 527/942/136
f 528/943/136 529/944/136 527/945/136
f 532/946/148 530/947/148 531/948/148
f 531/949/148 530/950/148 532/951/148
f 534/952/136 533/953/136 535/954/136
f 534/955/136 535/956/136 533/957/136
f 538/958/251 537/959/252 536/960/251
f 537/961/252 538/962/251 536/963/251
f 539/964/253 540/965/254 541/966/255
f 541/967/255 540/968/254 539/969/253
f 542/970/136 544/971/136 543/972/136
f 542/973/136 543/974/136 544/975/136
f 547/976/136 545/977/136 546/978/136
f 547/979/136 546/980/136 545/981/136
f 550/982/136 548/983/136 549/984/136
f 550/985/136 549/986/136 548/987/136
f 551/988/136 552/989/136 553/990/136
f 551/991/136 553/992/136 552/993/136
f 554/994/256 556/995/257 555/996/256
f 556/997/257 554/998/256 555/999/256
f 559/1000/136 557/1001/136 558/1002/136
f 559/1003/136 558/1004/136 557/1005/136
f 562/1006/136 560/1007/136 561/1008/136
f 562/1009/136 561/1010/136 560/1011/136
f 563/1012/258 565/1013/259 564/1014/259
f 564/1015/259 565/1016/259 563/1017/258
f 568/1018/136 566/1019/260 567/1020/261
f 567/1021/261 566/1022/260 568/1023/136
f 572/1024/136 573/1025/136 574/1026/136
f 572/1027/136 574/1028/136 573/1029/136
f 575/1030/136 577/1031/136 576/1032/262
f 575/1033/136 576/1034/262 577/1035/136
f 578/1036/136 580/1037/136 579/1038/136
f 580/1039/136 578/1040/136 579/1041/136
f 581/1042/136 582/1043/136 583/1044/136
f 581/1045/136 583/1046/136 582/1047/136
f 584/1048/136 586/1049/136 585/1050/136
f 584/1051/136 585/1052/136 586/1053/136
f 589/1054/136 588/1055/136 587/1056/136
f 589/1057/136 587/1058/136 588/1059/136
f 590/1060/136 592/1061/136 591/1062/136
f 590/1063/136 591/1064/136 592/1065/136
f 594/1066/136 593/1067/136 595/1068/136
f 594/1069/136 595/1070/136 593/1071/136
f 596/1072/136 598/1073/136 597/1074/136
f 598/1075/136 596/1076/136 597/1077/136
f 600/1078/136 601/1079/136 599/1080/136
f 600/1081/136 599/1082/136 601/1083/136
f 602/1084/136 604/1085/136 603/1086/136
f 602/1087/136 603/1088/136 604/1089/136
f 605/1090/136 607/1091/136 606/1092/136
f 605/1093/136 606/1094/136 607/1095/136
f 608/1096/136 610/1097/136 609/1098/136
f 608/1099/136 609/1100/136 610/1101/136
f 611/1102/136 612/1103/136 613/1104/136
f 611/1105/136 613/1106/136 612/1107/136
f 616/1108/263 615/1109/264 614/1110/265
f 615/1111/264 616/1112/263 614/1113/265
f 619/1114/136 618/1115/136 617/1116/136
f 619/1117/136 617/1118/136 618/1119/136
f 621/1120/136 620/1121/136 622/1122/136
f 621/1123/136 622/1124/136 620/1125/136
f 625/1126/136 624/1127/136 623/1128/136
f 625/1129/136 623/1130/136 624/1131/136
f 626/1132/136 627/1133/136 628/1134/136
f 626/1135/136 628/1136/136 627/1137/136
f 630/1138/136 629/1139/136 631/1140/136
f 630/1141/136 631/1142/136 629/1143/136
f 633/1144/136 634/1145/136 632/1146/136
f 634/1147/136 633/1148/136 632/1149/136
f 637/1150/136 635/1151/136 636/1152/136
f 637/1153/136 636/1154/136 635/1155/136
f 639/1156/136 640/1157/136 638/1158/136
f 639/1159/136 638/1160/136 640/1161/136
f 641/1162/136 642/1163/136 643/1164/136
f 641/1165/136 643/1166/136 642/1167/136
f 646/1168/136 645/1169/136 644/1170/136
f 646/1171/136 644/1172/136 645/1173/136
f 648/1174/136 647/1175/136 649/1176/136
f 648/1177/136 649/1178/136 647/1179/136
f 651/1180/136 652/1181/136 650/1182/136
f 652/1183/136 651/1184/136 650/1185/136
f 653/1186/136 654/1187/136 655/1188/136
f 653/1189/136 655/1190/136 654/1191/136
f 657/1192/136 656/1193/136 658/1194/136
f 657/1195/136 658/1196/136 656/1197/136
f 659/1198/136 660/1199/136 661/1200/136
f 659/1201/136 661/1202/136 660/1203/136
f 662/1204/136 664/1205/136 663/1206/136
f 662/1207/136 663/1208/136 664/1209/136
f 666/1210/136 667/1211/136 665/1212/136
f 666/1213/136 665/1214/136 667/1215/136
f 670/1216/42 668/1217/42 669/1218/42
f 668/1219/42 670/1220/42 669/1221/42
f 671/1222/136 673/1223/136 672/1224/136
f 671/1225/136 672/1226/136 673/1227/136
f 675/1228/136 676/1229/136 674/1230/136
f 675/1231/136 674/1232/136 676/1233/136
f 677/1234/136 678/1235/136 679/1236/136
f 677/1237/136 679/1238/136 678/1239/136
f 681/1240/136 682/1241/136 680/1242/136
f 681/1243/136 680/1244/136 682/1245/136
f 685/1246/136 683/1247/136 684/1248/136
f 685/1249/136 684/1250/136 683/1251/136
f 688/1252/136 687/1253/136 686/1254/136
f 687/1255/136 688/1256/136 686/1257/136
f 689/1258/136 691/1259/136 690/1260/136
f 689/1261/136 690/1262/136 691/1263/136
f 692/1264/136 694/1265/136 693/1266/136
f 692/1267/136 693/1268/136 694/1269/136
f 695/1270/136 697/1271/136 696/1272/136
f 695/1273/136 696/1274/136 697/1275/136
f 698/1276/136 700/1277/136 699/1278/136
f 698/1279/136 699/1280/136 700/1281/136
f 703/1282/266 702/1283/267 701/1284/266
f 701/1285/266 702/1286/267 703/1287/266
f 705/1288/268 704/1289/158 706/1290/269
f 706/1291/269 704/1292/158 705/1293/268
f 708/1294/136 709/1295/136 707/1296/136
f 708/1297/136 707/1298/136 709/1299/136
f 711/1300/42 710/1301/42 712/1302/42
f 710/1303/42 711/1304/42 712/1305/42
f 714/1306/136 713/1307/136 715/1308/136
f 713/1309/136 714/1310/136 715/1311/136
f 716/1312/136 718/1313/136 717/1314/136
f 718/1315/136 716/1316/136 717/1317/136
f 719/1318/270 720/1319/271 721/1320/272
f 720/1321/271 719/1322/270 721/1323/272
f 1/1324/273 5/1325/274 4/1326/275
f 3/1327/276 5/1325/274 1/1324/273
f 1/1328/273 4/1329/275 2/1330/277
f 2/1331/277 4/1332/275 3/1333/278
f 722/1334/279 8/1335/280 6/1336/281
f 6/1337/281 8/1338/280 723/1339/282
f 722/1340/279 7/1341/283 8/1342/280
f 723/1343/284 7/1341/283 722/1340/279
f 9/1344/273 12/1345/275 10/1346/277
f 10/1347/277 12/1348/275 11/1349/278
f 11/1350/276 13/1351/274 9/1352/273
f 9/1352/273 13/1351/274 12/1353/275
f 16/1354/285 17/1355/286 14/1356/287
f 14/1357/287 17/1358/286 15/1359/288
f 16/1360/285 18/1361/289 17/1362/286
f 15/1363/290 18/1361/289 16/1360/285
f 21/1364/273 23/1365/275 19/1366/277
f 20/1367/276 22/1368/274 21/1369/273
f 21/1369/273 22/1368/274 23/1370/275
f 19/1371/277 23/1372/275 20/1373/278
f 25/1374/281 27/1375/280 26/1376/282
f 26/1377/284 28/1378/283 24/1379/279
f 24/1379/279 28/1378/283 27/1380/280
f 24/1381/279 27/1382/280 25/1383/281
f 724/1384/291 726/1385/292 725/1386/293
f 726/1387/292 724/1388/291 725/1389/293
f 30/1390/276 32/1391/274 31/1392/273
f 31/1392/273 32/1391/274 33/1393/275
f 31/1394/273 33/1395/275 29/1396/277
f 29/1397/277 33/1398/275 30/1399/278
f 34/1400/279 37/1401/280 35/1402/281
f 35/1403/281 37/1404/280 36/1405/282
f 34/1406/279 38/1407/294 37/1408/280
f 36/1409/284 38/1407/294 34/1406/279
f 39/1410/295 727/1411/296 728/1412/297
f 39/1413/295 728/1414/297 40/1415/298
f 40/1415/298 728/1414/297 41/1416/299
f 41/1417/300 727/1418/296 39/1419/295
f 43/1420/281 45/1421/280 44/1422/282
f 42/1423/279 46/1424/283 45/1425/280
f 44/1426/284 46/1424/283 42/1423/279
f 42/1427/279 45/1428/280 43/1429/281
f 47/1430/301 729/1431/302 50/1432/303
f 47/1433/301 50/1434/303 48/1435/304
f 49/1436/305 729/1437/302 47/1438/301
f 48/1435/304 50/1434/303 49/1439/306
f 52/1440/307 731/1441/308 730/1442/309
f 53/1443/310 730/1444/309 51/1445/311
f 52/1446/307 730/1444/309 53/1443/310
f 51/1447/312 731/1448/308 52/1449/307
f 733/1450/136 732/1451/136 734/1452/136
f 732/1453/136 733/1454/136 734/1455/136
f 735/1456/136 737/1457/136 736/1458/136
f 737/1459/136 735/1460/136 736/1461/136
f 738/1462/136 739/1463/136 740/1464/136
f 738/1465/136 740/1466/136 739/1467/136
f 742/1468/193 741/1469/136 743/1470/193
f 741/1471/136 742/1472/193 743/1473/193
f 744/1474/193 745/1475/193 746/1476/193
f 745/1477/193 744/1478/193 746/1479/193
f 747/1480/313 748/1481/314 749/1482/315
f 749/1483/315 748/1484/314 747/1485/313
f 752/1486/316 750/1487/317 751/1488/316
f 750/1489/317 752/1490/316 751/1491/316
f 754/1492/136 755/1493/136 753/1494/136
f 755/1495/136 754/1496/136 753/1497/136
f 757/1498/136 756/1499/136 758/1500/136
f 756/1501/136 757/1502/136 758/1503/136
f 759/1504/136 761/1505/136 760/1506/136
f 761/1507/136 759/1508/136 760/1509/136
f 762/1510/136 763/1511/136 764/1512/136
f 763/1513/136 762/1514/136 764/1515/136
f 767/1516/151 765/1517/151 766/1518/151
f 765/1519/151 767/1520/151 766/1521/151
f 769/1522/136 770/1523/136 768/1524/136
f 770/1525/136 769/1526/136 768/1527/136
f 772/1528/318 771/1529/318 773/1530/319
f 773/1531/319 771/1532/318 772/1533/318
f 775/1534/320 776/1535/321 774/1536/322
f 774/1537/322 776/1538/321 775/1539/320
f 69/1/323 70/64/156 71/2/155
f 75/4/324 76/1540/161 77/5/171
f 80/7/325 81/67/45 82/8/44
f 85/10/326 86/1541/326 87/11/326
f 88/13/327 89/1542/327 90/14/327
f 95/16/328 96/306/174 97/17/178
f 102/19/329 103/1543/329 104/20/329
f 107/22/330 70/64/39 108/23/38
f 109/25/331 105/1544/331 110/26/331
f 116/28/332 81/1545/183 117/29/182
f 371/1546/212 367/185/333 368/1547/102
f 369/702/109 370/706/130 371/1546/107
f 375/1548/334 377/1549/334 378/1550/334
f 378/1550/335 379/1551/335 380/1552/335
f 378/1550/336 380/1552/336 375/1548/336
f 385/33/202 362/136/87 382/717/337
f 382/717/338 383/718/338 385/33/338
f 383/718/339 384/31/339 385/33/339
f 396/36/340 397/1553/340 398/1554/340
f 396/36/341 398/1554/341 393/1555/341
f 396/36/342 393/1555/342 394/34/342
f 489/39/244 485/142/91 486/898/343
f 486/898/344 487/899/344 489/39/344
f 487/899/345 488/37/345 489/39/345
f 497/1556/334 493/1557/334 494/1558/334
f 494/1558/346 495/1559/346 496/1560/346
f 494/1558/336 496/1560/336 497/1556/336
f 507/42/347 508/1561/347 509/1562/347
f 507/42/348 509/1562/348 504/1563/348
f 507/42/349 504/1563/349 505/40/349
f 513/1564/212 512/197/350 483/1565/110
f 74/43/351 73/1566/351 69/1/351
f 133/1567/352 131/1568/352 132/1569/193
f 191/1570/136 193/1571/136 192/1572/136
f 81/326/183 114/328/353 115/1573/184
f 502/1574/229 503/1575/216 501/1576/127
f 111/50/354 88/1577/354 91/51/354
f 75/4/355 78/6/355 92/56/355
f 98/18/356 110/305/356 105/59/356
f 92/61/98 93/150/99 112/62/357
f 120/65/358 76/1540/358 75/4/358
f 127/1578/359 126/1579/360 125/1580/361
f 137/1581/352 138/1582/352 139/1583/352
f 145/1584/158 144/1585/158 143/1586/158
f 157/1587/136 156/1588/136 155/1589/136
f 178/1590/362 176/1591/363 177/1592/364
f 190/1593/148 188/1594/136 189/1595/136
f 193/1596/136 191/1597/136 192/1598/136
f 394/102/365 393/1599/365 366/103/365
f 377/105/366 364/1600/133 373/106/207
f 390/111/367 393/1601/367 398/112/367
f 505/114/368 504/1602/368 481/115/368
f 493/117/366 479/1603/133 484/118/207
f 502/123/369 504/1604/369 509/124/369
f 91/265/370 90/1605/370 63/260/370
f 65/126/371 111/261/371 110/127/371
f 74/129/372 89/1606/372 88/130/372
f 84/301/373 87/1607/373 83/299/373
f 363/132/374 379/1608/374 378/133/374
f 375/135/375 382/717/375 362/136/375
f 490/138/376 495/1609/376 494/139/376
f 497/141/377 486/898/378 485/142/378
f 77/5/379 85/1610/379 84/144/379
f 117/145/380 99/318/380 100/146/380
f 98/18/381 97/17/381 120/148/381
f 92/61/382 96/306/382 95/16/382
f 120/151/41 119/292/43 115/152/383
f 126/1611/360 127/1612/359 125/1613/361
f 131/1614/352 133/1615/352 132/1616/193
f 138/1617/352 137/1618/352 139/1619/352
f 144/1620/158 145/1621/158 143/1622/158
f 156/1623/136 157/1624/136 155/1625/136
f 176/1626/363 178/1627/362 177/1628/364
f 184/1629/20 183/1630/19 182/1631/18
f 188/1632/136 190/1633/148 189/1634/136
f 383/712/223 382/1635/384 375/713/224
f 487/901/223 486/1636/384 497/902/224
f 67/172/2 86/1637/2 85/173/2
f 79/175/385 72/1638/385 71/176/385
f 99/178/386 101/1639/386 104/179/386
f 70/323/156 113/325/387 112/1640/157
f 379/184/388 368/1547/388 367/185/388
f 396/190/389 391/1641/108 392/191/213
f 370/706/217 369/702/390 387/704/127
f 495/196/388 483/1565/388 512/197/388
f 507/202/389 510/1642/108 511/203/213
f 515/917/217 514/914/390 501/913/127
f 94/205/27 92/61/26 90/206/391
f 129/1643/47 128/1644/47 130/1645/47
f 135/1646/50 134/1647/49 136/1648/48
f 141/1649/53 140/1650/52 142/1651/51
f 153/1652/17 152/1653/16 154/1654/15
f 159/1655/59 160/1656/58 158/1657/57
f 165/1658/65 164/1659/64 166/1660/63
f 381/711/392 384/1661/392 383/712/392
f 498/903/392 488/1662/392 487/901/392
f 103/275/393 102/1663/393 68/272/393
f 65/1664/146 64/259/394 68/269/150
f 107/22/395 106/24/395 116/68/395
f 395/183/132 394/102/209 364/32/133
f 398/218/396 397/725/396 389/219/396
f 506/195/132 505/114/209 479/38/133
f 509/224/396 508/911/396 500/225/396
f 86/230/397 104/1665/397 103/231/397
f 121/149/97 120/148/96 102/233/398
f 150/1666/56 149/1667/55 151/1668/54
f 163/1669/62 162/1670/61 161/1671/60
f 167/1672/68 168/1673/67 169/1674/66
f 175/1675/71 173/1676/70 174/1677/69
f 180/1678/74 179/1679/73 181/1680/72
f 187/1681/77 186/1682/76 185/1683/75
f 390/1684/229 388/1685/216 387/1686/127
f 92/1687/158 71/282/158 89/281/158
f 92/278/151 80/177/151 71/176/151
f 108/1688/38 69/1689/40 72/1690/193
f 72/1690/399 71/1691/399 92/1692/399
f 108/1688/400 72/1690/401 92/1692/402
f 89/288/403 74/283/154 87/285/159
f 89/288/404 87/285/404 85/286/404
f 77/300/168 83/299/167 80/1693/405
f 83/299/167 82/1694/406 80/1693/405
f 80/177/407 92/278/407 78/295/407
f 77/298/158 80/1695/158 82/296/158
f 82/296/408 120/1696/409 75/297/410
f 82/296/408 116/1697/411 120/1696/409
f 116/1697/412 117/1698/412 120/1696/412
f 85/289/413 89/207/413 88/303/413
f 104/304/414 86/1699/414 85/289/414
f 88/303/415 111/1700/415 110/305/415
f 110/305/416 102/233/416 101/234/416
f 104/304/42 88/303/42 110/305/42
f 97/1701/139 107/1702/139 95/1703/139
f 95/1703/139 107/1702/139 108/1688/400
f 108/1688/400 92/1692/402 95/1703/139
f 95/1704/33 105/310/32 97/312/158
f 105/310/32 108/1705/158 107/311/158
f 101/1706/417 99/315/179 109/317/180
f 101/1706/418 109/317/418 110/1707/418
f 107/308/419 118/1708/419 117/329/419
f 120/314/148 107/308/148 117/329/148
f 396/699/420 371/157/420 366/697/420
f 366/697/421 394/1709/421 395/698/421
f 371/160/107 388/211/129 396/190/422
f 388/211/423 398/1710/423 396/190/423
f 371/157/104 396/699/424 372/1711/105
f 385/33/425 374/707/425 384/31/425
f 378/708/426 373/1712/207 368/709/211
f 381/1713/427 380/1714/427 379/1715/427
f 379/1715/428 378/1716/428 377/1717/428
f 379/1715/429 377/1717/429 381/1713/429
f 376/715/90 382/717/430 384/31/226
f 507/886/420 513/166/420 481/884/420
f 481/884/421 505/1718/421 506/885/421
f 513/166/104 507/886/424 482/1719/105
f 489/39/431 491/888/431 488/37/431
f 494/892/426 484/1720/207 483/893/211
f 492/895/93 486/898/432 488/37/247
f 498/1721/433 496/1722/433 495/1723/433
f 495/1723/434 494/1724/434 493/1725/434
f 495/1723/435 493/1725/435 498/1721/435
f 513/169/107 514/171/109 515/217/130
f 513/169/107 503/216/129 507/202/422
f 503/216/436 509/1726/436 507/202/436
