# Blender 4.5.0
# www.blender.org
mtllib rural_house_003.lod2.mtl
o rural_house_003
v 7.192647 1.173328 -2.142728
v 5.973193 1.711319 -2.556771
v 7.080832 1.711296 -2.560919
v 5.973383 1.711225 -4.707499
v 7.271956 1.298725 -2.566808
v 7.080832 1.711327 -4.707499
v 5.782247 1.298725 -2.566824
v 9.346070 0.081415 -0.245108
v -10.000000 -0.000001 -10.000000
v -10.000000 0.011110 10.000000
v 2.500019 0.082353 -9.702536
v 10.000000 0.073593 9.833860
v -9.832468 0.074981 9.833860
v -7.668380 0.071232 -0.494711
v 3.465818 1.145989 4.832327
v -7.668380 0.367540 7.483573
v -9.807162 1.196901 3.838907
v 3.406114 3.035340 -1.592961
v 4.063819 2.958464 8.231621
v -7.538002 2.602078 4.876729
v 3.275736 2.602078 2.112133
v -7.914492 6.181764 -0.892818
v -7.973425 6.232287 7.841058
v -7.872787 6.134079 7.862210
v 3.663388 6.181763 -0.892817
v 3.604457 6.232288 7.841058
v 3.705096 6.134076 7.862209
v -2.031559 7.400091 -0.853638
v -2.212379 7.403241 -0.881205
v -2.131132 7.408278 7.895160
v -2.132685 7.394794 -0.770645
v -2.122251 7.278640 -0.851574
v -2.065328 7.337443 -0.844154
v -7.923131 6.175473 -0.913483
v -2.126696 7.396671 -0.925677
v -2.129782 7.400491 -0.928809
v -2.132832 7.401663 -0.922551
v -2.119795 7.378464 -0.887327
v -2.094225 7.437755 -0.797700
v -2.132687 7.394795 7.915513
v -2.119795 7.378464 7.798830
v -2.132831 7.401664 7.763608
v -2.126696 7.396671 7.760481
v -7.923130 6.175474 7.772674
v -2.094225 7.437755 7.888458
v -6.928403 0.971054 -0.309907
v -4.605966 2.569588 -0.277515
v -4.605967 0.913734 -0.291578
v -6.813756 2.480789 -0.375584
v -3.930738 1.486967 -0.455173
v -6.813757 1.002533 -0.373223
v -6.814624 0.968603 -0.436180
v -6.812624 2.539773 -0.404356
v -6.810626 0.968603 -0.372531
v -5.755513 2.539774 -0.404355
v -5.753513 0.968603 -0.372531
v -5.757512 0.968603 -0.436180
v -4.698402 2.539773 -0.404356
v -4.696403 0.968603 -0.372531
v -4.700402 0.968603 -0.436180
v -6.935977 0.927334 -0.542643
v -6.935977 0.936981 -0.306005
v -4.627928 0.936740 -0.354933
v -0.981587 0.913733 -0.291578
v -3.656665 1.492192 -0.459634
v -0.981587 2.569589 -0.277515
v -3.189377 2.480789 -0.375584
v -0.958243 0.970948 -0.309872
v -3.189377 1.002534 -0.373223
v -3.188244 2.539775 -0.404356
v -3.190243 0.968602 -0.436180
v -3.186244 0.968602 -0.372531
v -2.131134 2.539774 -0.404356
v -2.133133 0.968603 -0.436180
v -2.129134 0.968602 -0.372531
v -1.074022 2.539774 -0.404356
v -1.076021 0.968603 -0.436180
v -1.072023 0.968603 -0.372531
v -3.258718 0.936740 -0.354933
v -0.950669 0.936981 -0.542643
v -0.950669 0.927334 -0.306004
v 2.666137 0.970948 -0.309872
v 0.343701 0.913733 -0.277515
v 0.343701 2.569589 -0.291578
v 0.320357 0.971054 -0.309907
v 2.551491 1.002534 -0.375584
v 2.551491 2.480789 -0.373223
v 0.436136 2.539773 -0.404356
v 0.434137 0.968603 -0.436180
v 0.438135 0.968603 -0.372531
v 1.493247 2.539773 -0.404356
v 1.495246 0.968603 -0.372531
v 1.491248 0.968603 -0.436180
v 2.550359 2.539774 -0.404355
v 2.552358 0.968603 -0.372531
v 2.548358 0.968602 -0.436180
v 0.365662 0.936740 -0.354933
v 2.673711 0.936981 -0.542643
v 2.673711 0.927334 -0.306004
v -6.928403 3.720314 -0.309907
v -4.605966 3.662995 -0.291578
v -4.605968 5.318848 -0.277514
v -4.582623 3.720208 -0.309872
v -6.813757 5.230049 -0.375584
v -6.813756 3.751793 -0.373223
v -6.814624 3.717863 -0.436180
v -6.812624 5.289034 -0.404356
v -6.810626 3.717863 -0.372531
v -5.755513 5.289034 -0.404356
v -5.757512 3.717863 -0.436181
v -5.753513 3.717863 -0.372531
v -4.698402 5.289033 -0.404356
v -4.700402 3.717863 -0.436181
v -4.696403 3.717863 -0.372531
v -4.627928 3.686000 -0.354934
v -6.935977 3.676593 -0.542644
v -6.935977 3.686240 -0.306005
v -3.304023 3.720314 -0.309907
v -0.981588 5.318849 -0.277514
v -0.981587 3.662994 -0.291578
v -0.958243 3.720208 -0.309872
v -3.189377 5.230049 -0.375584
v -3.189377 3.751794 -0.373223
v -3.190243 3.717862 -0.436180
v -3.188244 5.289035 -0.404356
v -3.186244 3.717862 -0.372531
v -2.133133 3.717863 -0.436180
v -2.131134 5.289034 -0.404356
v -2.129134 3.717862 -0.372531
v -1.074022 5.289034 -0.404356
v -1.076021 3.717863 -0.436181
v -1.072023 3.717863 -0.372531
v -0.950669 3.686240 -0.542644
v -3.258718 3.686000 -0.354934
v -0.950669 3.676593 -0.306005
v 2.666137 3.720208 -0.309872
v 0.343702 5.318849 -0.291580
v 0.343701 3.662994 -0.277515
v 2.551491 3.751794 -0.375584
v 0.320357 3.720314 -0.309907
v 2.551491 5.230049 -0.373223
v 0.436136 5.289034 -0.404356
v 0.434137 3.717863 -0.436181
v 0.438135 3.717863 -0.372531
v 1.493247 5.289034 -0.404356
v 1.495246 3.717863 -0.372531
v 1.491248 3.717863 -0.436181
v 2.548358 3.717862 -0.436181
v 2.552358 3.717863 -0.372531
v 2.550359 5.289034 -0.404355
v 2.673711 3.676593 -0.306005
v 0.365662 3.686000 -0.354934
v 2.673711 3.686240 -0.542644
v -3.773946 2.449341 -0.409064
v -4.640021 0.219297 -0.302981
v -2.944596 0.219296 -0.316033
v -4.549001 2.451331 -0.400770
v -3.035614 2.451330 -0.397957
v -3.810669 0.311028 -0.409064
v -3.790277 2.453619 -0.458566
v -3.792307 0.293161 -0.429316
v -3.794338 2.453619 -0.400066
v -3.913120 1.513129 -0.489221
v -3.910991 1.082518 -0.455042
v -3.915249 1.082518 -0.523399
v -3.671494 1.513129 -0.489221
v -3.673624 1.082518 -0.523399
v -3.669366 1.082518 -0.455042
v 3.149890 0.550823 -1.198091
v -7.663848 0.367540 -0.499205
v 3.154421 0.376035 -0.244609
v 4.065047 2.953880 -0.249602
v -7.685373 2.987684 -0.001326
v -7.685373 2.969972 -1.596129
v -7.081937 2.935553 -1.192191
v -7.248052 2.935553 -1.203991
v -7.225903 0.372123 -1.258493
v 2.963637 0.372123 -1.258493
v 2.896779 2.935553 -1.115723
v 2.908677 2.935553 -1.280459
v -7.565071 2.571531 5.672490
v -7.472215 1.151568 4.877761
v -7.461837 1.151568 6.504101
v -7.556480 2.531839 4.941003
v -7.558791 1.256958 4.941003
v -7.492599 1.225616 6.554555
v -7.619930 1.223165 6.441721
v -7.587839 2.590687 6.439737
v -7.555748 1.223164 6.437755
v -7.619930 1.223165 5.692914
v -7.555748 1.223164 5.688949
v -7.587839 2.590687 5.690931
v -7.587839 2.590687 4.942124
v -7.619930 1.223164 4.944108
v -7.555748 1.223164 4.940142
v -7.541844 1.191721 4.872236
v -7.487570 1.191411 6.562125
v -7.728376 1.182026 6.562125
v -7.565071 2.571531 1.279490
v -7.461837 1.151568 2.111102
v -7.472215 1.151568 0.484761
v -7.492599 1.225615 2.161555
v -7.558791 1.256957 0.548004
v -7.556480 2.531839 0.548003
v -7.619930 1.223164 2.048722
v -7.587838 2.590687 2.046737
v -7.555748 1.223164 2.044755
v -7.587838 2.590686 1.297931
v -7.619930 1.223164 1.299914
v -7.555748 1.223164 1.295949
v -7.619930 1.223164 0.551108
v -7.587838 2.590686 0.549125
v -7.555748 1.223164 0.547142
v -7.541998 1.191737 2.116627
v -7.487571 1.182026 0.426738
v -7.728375 1.191411 0.426738
v 3.302806 2.571531 1.316373
v 3.199571 1.151569 0.484756
v 3.209949 1.151569 2.111107
v 3.296525 2.531839 0.548003
v 3.294214 1.256957 0.548004
v 3.225745 1.227448 2.156555
v 3.357663 1.223164 0.547142
v 3.325573 2.590685 0.549125
v 3.293481 1.223164 0.551108
v 3.325573 2.590685 1.297931
v 3.293481 1.223165 1.299914
v 3.357663 1.223164 1.295949
v 3.325574 2.590686 2.046737
v 3.293481 1.223164 2.048722
v 3.357663 1.223164 2.044755
v 3.466110 1.182026 0.426738
v 3.225307 1.191411 0.426738
v 3.279578 1.191721 2.116627
v 3.199571 1.151569 4.877757
v 3.209949 1.151569 6.504106
v 3.302806 2.571531 5.709373
v 3.296525 2.531840 4.941003
v 3.225745 1.227448 6.549554
v 3.294214 1.256958 4.941003
v 3.325573 2.590686 4.942124
v 3.357663 1.223164 4.940142
v 3.293482 1.223165 4.944108
v 3.325573 2.590686 5.690931
v 3.357663 1.223164 5.688949
v 3.293482 1.223165 5.692914
v 3.325573 2.590686 6.439737
v 3.293482 1.223165 6.441721
v 3.357663 1.223164 6.437755
v 3.466111 1.191411 6.562125
v 3.225306 1.182027 6.562125
v 3.279732 1.191737 4.872236
v -7.291928 0.174624 7.360136
v -7.231994 0.186138 7.294170
v -7.260602 5.796677 7.328323
v 3.004314 0.187061 7.376690
v 3.006047 0.173665 7.288847
v 3.008477 5.796675 7.328323
v -1.711672 0.521819 7.313430
v -2.550593 0.521818 7.323247
v -1.733498 2.357700 7.377341
v -1.496454 1.899490 7.400578
v -1.496489 1.390368 7.400507
v -1.154942 1.390368 7.236169
v -9.681924 0.733204 -9.702440
v -4.652595 0.738690 -9.469410
v -4.652595 0.076831 -9.700042
v 2.504550 0.738690 -9.700042
v 9.995941 0.081922 -9.829835
v 2.504550 0.076831 -9.469410
v -9.805533 1.191368 -7.837510
v -9.357049 0.082327 -4.143397
v -9.805446 1.191405 -4.143397
v -9.357049 0.082327 -0.149761
v -9.805446 1.191405 -0.149761
v -9.357049 1.191405 0.149761
v -9.805446 0.082328 4.143397
v -9.805446 0.082327 0.149761
v -9.805533 0.082365 7.837510
v -9.357049 1.191406 4.143397
v 4.094283 0.145791 -0.271673
v 9.362641 0.160609 -0.271674
v 8.983632 0.234152 7.843000
v 4.407394 0.213342 -0.075815
v 4.468761 2.826092 0.055410
v 4.418378 0.213342 0.075815
v 4.468761 2.826092 7.843000
v 4.336435 0.213343 7.793036
v 4.489338 0.213343 7.782144
v 9.120488 0.213340 -0.005446
v 9.099914 2.826092 -0.055411
v 8.967589 0.213340 0.005446
v 9.120487 0.213341 7.782143
v 8.967590 0.213341 7.793036
v 9.099914 2.826092 7.843000
v 4.046277 2.885887 -0.268292
v 8.983632 2.821509 7.843000
v 9.410646 2.898669 -0.268293
v 6.682722 0.628931 -5.343984
v 7.150151 0.485770 -2.163902
v 5.904068 0.502853 -2.163901
v 7.172747 0.940280 -1.905204
v 5.881443 0.680438 -1.905270
v 6.682758 0.756718 -5.343984
v 5.854540 1.145833 -2.124801
v 6.201115 1.059050 -5.283591
v 7.237093 1.146910 -3.646654
v 7.092350 1.862897 -3.644193
v 7.187156 1.138565 -3.642927
v 7.284201 1.074710 -2.570541
v 7.285017 1.096695 -2.722055
v 7.283382 1.052727 -2.722056
v 7.284201 1.074710 -4.657216
v 7.285017 1.096695 -4.808729
v 7.283383 1.052727 -4.808730
v 7.475914 1.232780 -2.394901
v 7.206679 1.176536 -2.431126
v 7.475914 1.242479 -2.587159
v 5.816893 1.147022 -3.642927
v 5.959485 1.863298 -3.644193
v 5.866807 1.138534 -3.646654
v 5.770015 1.074711 -2.570542
v 5.769198 1.052728 -2.722056
v 5.770832 1.096695 -2.722056
v 5.770832 1.096694 -4.808730
v 5.769199 1.052728 -4.808730
v 5.770015 1.074711 -4.657217
v 5.804671 1.232779 -2.394900
v 5.595843 1.180385 -2.565870
v 5.804672 1.242480 -2.587160
v 7.338062 0.412852 -2.888397
v 7.338062 0.728508 -2.578890
v 7.145771 0.292056 -2.292943
v 7.354084 0.416408 -2.814380
v 7.361307 0.536016 -2.376694
v 7.357695 0.206455 -2.524664
v 7.322298 0.409077 -2.574389
v 7.325923 0.454100 -2.577284
v 7.319027 0.405058 -2.576409
v 7.331360 0.418902 -2.583220
v 7.340175 0.412852 -2.595148
v 7.325858 0.571842 -2.579541
v 7.348794 0.409193 -2.566278
v 7.371062 0.454617 -2.737482
v 7.328616 0.475051 -2.730992
v 7.344312 0.409701 -2.587293
v 7.352723 0.362350 -2.615728
v 7.371538 0.281876 -2.667386
v 7.369330 0.409046 -2.580303
v 7.353821 0.428408 -2.560811
v 7.363926 0.387164 -2.584294
v 7.321842 0.410700 -2.577633
v 7.324283 0.407768 -2.577029
v 7.328191 0.410379 -2.580721
v 7.326225 0.404161 -2.587634
v 7.348793 0.408253 -2.591204
v 7.328616 0.453711 -2.419991
v 7.371062 0.474134 -2.426518
v 5.908445 0.412852 -2.888397
v 5.716154 0.292056 -2.292943
v 5.908445 0.728508 -2.578890
v 5.700132 0.409297 -2.814380
v 5.696521 0.619249 -2.524664
v 5.692910 0.289689 -2.376694
v 5.729371 0.408310 -2.583306
v 5.685488 0.411167 -2.576647
v 5.711029 0.454826 -2.578082
v 5.686311 0.401457 -2.593234
v 5.687157 0.406904 -2.576905
v 5.678861 0.418258 -2.578541
v 5.728201 0.408625 -2.580348
v 5.726472 0.571864 -2.582782
v 5.713763 0.412852 -2.563108
v 5.705484 0.434895 -2.569179
v 5.704577 0.468645 -2.744119
v 5.702647 0.389328 -2.583716
v 5.729871 0.414834 -2.580770
v 5.692971 0.343808 -2.617791
v 5.728868 0.407921 -2.581727
v 5.726189 0.410959 -2.581511
v 5.702651 0.434776 -2.588545
v 5.704576 0.466763 -2.413062
v 5.705484 0.389197 -2.574045
v 7.338062 0.412852 -4.919161
v 7.338062 0.728508 -4.609654
v 7.145771 0.292056 -4.323707
v 7.354084 0.416408 -4.845144
v 7.357695 0.206455 -4.555428
v 7.361306 0.536015 -4.407457
v 7.347428 0.429562 -4.609944
v 7.364208 0.397768 -4.611288
v 7.371319 0.434370 -4.605231
v 7.323482 0.409354 -4.612130
v 7.332983 0.410166 -4.589758
v 7.341333 0.404045 -4.618763
v 7.364988 0.397931 -4.604772
v 7.321880 0.415512 -4.609292
v 7.324286 0.418269 -4.608089
v 7.348794 0.409192 -4.597042
v 7.371062 0.454617 -4.768246
v 7.328616 0.475051 -4.761756
v 7.349549 0.266307 -4.713868
v 7.371538 0.281876 -4.698150
v 7.325858 0.283836 -4.700759
v 7.340453 0.403392 -4.596886
v 7.328616 0.453712 -4.450754
v 7.371063 0.474133 -4.457280
v 7.348793 0.408253 -4.621967
v 5.870418 0.358255 -4.999468
v 5.908445 0.728508 -4.609654
v 5.716154 0.292056 -4.323707
v 5.692910 0.289690 -4.407457
v 5.696521 0.619249 -4.555428
v 5.700133 0.409297 -4.845144
v 5.704784 0.417253 -4.616794
v 5.713763 0.412852 -4.593872
v 5.713789 0.593289 -4.610749
v 5.726472 0.571864 -4.613546
v 5.725126 0.411138 -4.615270
v 5.705484 0.434895 -4.599941
v 5.704578 0.468645 -4.774883
v 5.702649 0.389327 -4.614480
v 5.702953 0.388674 -4.624673
v 5.724110 0.404819 -4.618338
v 5.717150 0.394414 -4.610739
v 5.726189 0.410959 -4.612275
v 5.695109 0.422598 -4.622808
v 5.687224 0.412554 -4.612629
v 5.686532 0.407188 -4.587403
v 5.702646 0.434777 -4.619307
v 5.705483 0.389197 -4.604808
v 5.704576 0.466763 -4.443826
v 7.184959 0.932154 -1.877009
v 6.833641 0.844279 -1.875610
v 6.833641 1.020033 -1.878407
v 7.134004 1.071139 -5.310135
v 6.853101 0.896905 -5.283591
v 7.134006 0.884818 -5.312939
v 5.869255 0.932154 -1.877009
v 6.220575 0.844279 -1.878408
v 6.220575 1.020034 -1.875610
v 6.210190 1.071139 -5.310135
v 5.876214 0.977976 -5.311536
v 6.210191 0.884818 -5.312939
v 6.187539 0.677596 -1.862034
v 6.832484 0.616471 -1.864447
v 6.832484 0.738721 -1.859619
v 6.366468 0.625564 -5.330454
v 6.730112 0.692869 -5.331504
v 6.366469 0.760175 -5.332554
v 6.190753 0.775442 -1.851186
v 6.190753 0.747760 -1.848917
v 6.869684 0.761601 -1.850052
v 6.190753 0.836537 -1.851186
v 6.869684 0.822696 -1.850052
v 6.190753 0.808855 -1.848917
v 6.190753 0.884947 -1.836480
v 6.869684 0.883790 -1.850052
v 6.190753 0.882633 -1.863623
v -8.170270 0.245198 -5.688361
v -4.979258 0.170341 -7.108794
v -4.979258 0.156425 -3.873705
v -7.872350 0.239750 -6.321222
v -7.873440 0.650112 -6.305887
v -8.058066 0.654985 -6.675043
v -7.066933 0.239750 -6.321222
v -7.068029 0.650106 -6.305883
v -7.252645 0.654980 -6.675047
v -6.565298 0.191087 -6.472247
v -6.150607 0.195960 -6.498260
v -6.163454 0.606318 -6.489658
v -5.641810 0.654983 -6.675045
v -5.456097 0.239750 -6.321222
v -5.457195 0.650106 -6.305883
v -7.872350 0.239750 -5.522495
v -8.058064 0.654985 -5.876318
v -7.873440 0.650115 -5.507160
v -7.066933 0.239750 -5.522495
v -7.252643 0.654979 -5.876322
v -7.068029 0.650109 -5.507156
v -6.150606 0.195959 -5.699535
v -6.163454 0.606318 -5.690931
v -6.565298 0.191088 -5.673518
v -5.456097 0.239750 -5.522495
v -5.457195 0.650109 -5.507155
v -5.641809 0.654983 -5.876320
v -7.872350 0.239751 -4.723768
v -8.058064 0.654987 -5.077591
v -7.873440 0.650115 -4.708433
v -7.066933 0.239751 -4.723768
v -7.252643 0.654981 -5.077595
v -7.068029 0.650109 -4.708429
v -6.261515 0.239751 -4.723768
v -6.447222 0.654982 -5.077594
v -6.262612 0.650110 -4.708428
v -5.456097 0.239751 -4.723768
v -5.641808 0.654985 -5.077593
v -5.457195 0.650110 -4.708429
v -4.039189 0.076831 -9.555591
v -3.595537 1.359386 -9.372076
v -4.089753 1.359390 -9.398011
v -4.044000 1.293302 -9.558092
v -3.646104 1.298724 -9.555591
v -3.651359 1.069274 -9.655286
v -2.131008 7.401728 7.761161
v -2.065328 7.337443 7.833016
v 5.705043 0.402891 -2.569471
v 5.692494 0.412852 -4.593928
v 7.375152 0.414883 -2.575547
v 5.683722 0.408166 -2.582979
v 5.681321 0.408681 -2.571175
v 5.680840 0.414005 -2.578952
v 5.676277 0.410986 -4.609951
v 5.702199 0.392147 -4.589697
v -2.131008 7.401728 -0.924997
v 5.730093 0.408077 -2.580442
v 7.375151 0.414810 -4.606367
v 7.331099 0.407882 -4.613370
v 5.677994 0.411376 -4.610067
v -2.129782 7.400492 7.757350
v -2.122250 7.278640 7.834584
v 7.324468 0.418326 -4.608257
v 5.679082 0.407842 -2.579930
v 5.719991 0.399903 -2.579929
v 5.730093 0.408076 -4.611206
vn -0.0526 0.6373 -0.7688
vn 0.1940 0.1801 0.9643
vn -0.0823 0.1288 -0.9882
vn -0.1170 -0.2644 -0.9573
vn -0.1045 -0.6971 -0.7093
vn -0.1325 -0.9661 -0.2214
vn -0.0002 -0.8375 0.5464
vn 0.0926 -0.0163 0.9956
vn -0.0000 -0.0000 1.0000
vn -0.0000 -0.0000 -0.0000
vn -0.0000 -0.0000 -1.0000
vn 0.6438 0.6715 0.3669
vn -0.1908 0.8483 0.4939
vn 0.1998 -0.9671 0.1574
vn 0.5367 -0.4278 -0.7273
vn 0.2791 0.9426 -0.1835
vn 0.8457 0.2008 -0.4944
vn 0.1185 -0.5705 -0.8127
vn -0.1908 0.8480 0.4944
vn 0.6421 0.6619 0.3869
vn 0.2700 0.9436 -0.1917
vn 0.8143 0.1643 -0.5567
vn 0.1184 -0.5705 -0.8127
vn 0.4516 -0.4576 -0.7660
vn -0.2873 0.9578 -0.0000
vn -0.0465 0.1239 0.9912
vn -0.0311 0.0933 0.9952
vn -0.0000 1.0000 -0.0000
vn 0.0665 0.9978 -0.0000
vn 0.0937 0.9956 -0.0000
vn -0.9428 -0.0000 -0.3334
vn -0.9482 -0.0000 -0.3177
vn -0.9385 -0.0000 -0.3452
vn -0.0000 0.2812 -0.9597
vn -0.0000 0.2318 -0.9728
vn 0.1240 -0.9923 -0.0000
vn -0.0000 -1.0000 -0.0000
vn 0.1521 -0.9884 -0.0000
vn -1.0000 -0.0000 -0.0000
vn -0.0312 0.0010 -0.9995
vn -0.0468 0.0010 -0.9989
vn -0.9907 -0.0000 0.1363
vn -0.9965 -0.0000 0.0832
vn -0.9961 -0.0000 0.0878
vn -0.0156 -0.0000 0.9999
vn 0.2086 -0.9780 -0.0000
vn 0.1779 -0.9840 -0.0000
vn 0.1311 -0.9914 -0.0000
vn -0.3714 -0.9285 -0.0000
vn -0.0312 -0.0623 0.9976
vn -0.0312 -0.0546 0.9980
vn -0.3383 0.9410 -0.0000
vn -0.3924 0.9198 -0.0000
vn -0.4645 0.8855 -0.0000
vn -0.0000 0.0496 -0.9988
vn -0.0000 0.0502 -0.9987
vn -0.0000 0.0506 -0.9987
vn -0.0776 0.9938 0.0796
vn -0.0467 0.9970 0.0623
vn -0.0622 0.9946 0.0835
vn -0.0000 -0.0004 1.0000
vn -0.0000 -0.0003 1.0000
vn -0.0000 -0.0006 1.0000
vn -0.0000 -0.0026 -1.0000
vn -0.0000 -0.0028 -1.0000
vn -0.0000 -0.9960 -0.0895
vn -0.0000 -0.9979 -0.0653
vn -0.0000 -0.9965 -0.0837
vn -0.0000 0.1393 -0.9903
vn -0.0000 0.1382 -0.9904
vn -0.0000 0.1321 -0.9912
vn 1.0000 -0.0000 -0.0000
vn -0.9271 -0.3748 -0.0000
vn -0.9271 0.3748 -0.0000
vn -0.9285 -0.0000 -0.3714
vn -0.8682 -0.0000 -0.4961
vn -0.8944 -0.0000 -0.4472
vn 0.9977 -0.0000 -0.0671
vn 0.9969 -0.0000 -0.0787
vn 0.9969 -0.0000 -0.0782
vn 0.4472 -0.0000 0.8944
vn -0.0003 0.0001 -1.0000
vn 0.0001 -0.0000 -1.0000
vn 0.9545 0.2983 0.0001
vn 0.9265 0.3764 0.0001
vn -0.0000 -1.0000 0.0003
vn 0.7069 0.7069 0.0221
vn 0.5298 0.8477 0.0265
vn 0.8321 0.5547 -0.0000
vn 0.9700 0.2425 0.0152
vn 0.9805 0.1961 0.0123
vn -0.0989 -0.6132 -0.7837
vn 0.1199 -0.2708 0.9551
vn 0.1067 -0.5133 0.8515
vn 0.1246 0.0537 0.9908
vn -0.4967 0.8571 -0.1367
vn -0.1809 0.8506 -0.4938
vn -0.2601 -0.5251 0.8103
vn 0.0305 0.7242 -0.6889
vn 0.0308 0.7388 -0.6733
vn -0.0797 0.0801 -0.9936
vn 0.0392 0.6099 -0.7915
vn -0.1982 0.9310 -0.3065
vn -0.3423 0.9147 0.2147
vn -0.6069 0.0046 0.7948
vn -0.9760 -0.2117 0.0507
vn -0.0481 -0.5886 0.8070
vn 0.3554 0.7259 0.5889
vn 0.1987 -0.3384 0.9198
vn -0.0233 0.9831 -0.1815
vn -0.0406 0.4783 -0.8772
vn 0.3420 -0.2768 -0.8980
vn -0.0000 -0.1240 -0.9923
vn -0.0000 -0.4472 -0.8944
vn -0.0000 -0.2425 -0.9701
vn -0.0475 -0.2376 -0.9702
vn 0.0384 0.0624 -0.9973
vn -0.0921 -0.2536 0.9629
vn -0.0633 -0.1509 0.9865
vn 0.2967 0.9484 -0.1117
vn -0.1059 0.2358 -0.9660
vn -0.1083 0.0179 -0.9940
vn 0.0233 0.0292 0.9993
vn 0.0239 0.0298 0.9993
vn 0.0315 0.0285 0.9991
vn 0.7380 0.1884 0.6480
vn 0.5708 0.4946 0.6555
vn 0.6156 0.4293 0.6609
vn 0.8147 -0.1326 0.5646
vn -0.0000 0.4798 0.8774
vn -0.0000 0.3511 0.9363
vn -0.0966 0.9906 -0.0966
vn -0.0986 0.9951 -0.0000
vn -0.0971 0.9932 -0.0647
vn 0.0036 1.0000 -0.0000
vn 0.0014 -0.9954 0.0957
vn 0.0014 -0.9987 0.0507
vn -0.0000 -0.6000 0.8000
vn -0.0000 -0.5665 0.8240
vn -0.0603 -0.6573 -0.7512
vn -0.0541 -0.5991 -0.7988
vn -0.0003 0.9615 0.2747
vn -0.0002 1.0000 -0.0000
vn -0.0002 0.9762 0.2169
vn -0.2269 -0.8102 -0.5404
vn -0.2269 -0.8103 -0.5403
vn 0.1493 0.1415 -0.9786
vn 0.1504 0.1413 -0.9785
vn 0.1503 0.1403 -0.9786
vn -0.9941 -0.0142 -0.1078
vn 0.2269 0.0216 -0.9737
vn 0.1409 0.0528 0.9886
vn -0.9803 -0.1973 -0.0000
vn -0.0332 0.5665 -0.8234
vt 0.993511 0.450388
vt 0.993089 0.450449
vt 0.993013 0.449873
vt 0.567893 0.987007
vt 0.568259 0.987015
vt 0.567936 0.987083
vt 0.053610 0.986887
vt 0.054222 0.985446
vt 0.053878 0.987008
vt 0.002730 0.618388
vt 0.155310 0.313142
vt 0.307890 0.618379
vt 0.307821 0.307866
vt 0.002662 0.155231
vt 0.307845 0.002638
vt 0.315200 0.615744
vt 0.315200 0.315095
vt 0.615780 0.465423
vt 0.464105 0.307859
vt 0.313815 0.007199
vt 0.614414 0.007208
vt 0.367656 0.638513
vt 0.535463 0.699510
vt 0.367663 0.760511
vt 0.761826 0.595284
vt 0.700827 0.763091
vt 0.639828 0.595291
vt 0.335466 0.745369
vt 0.175301 0.802584
vt 0.175289 0.688179
vt 0.745371 0.355555
vt 0.802584 0.515720
vt 0.688179 0.515732
vt 0.770989 0.566074
vt 0.638282 0.566821
vt 0.638268 0.565572
vt 0.642502 0.791115
vt 0.774901 0.790580
vt 0.774959 0.791678
vt 0.770989 0.556863
vt 0.638282 0.557611
vt 0.638268 0.556361
vt 0.796770 0.521452
vt 0.797305 0.653850
vt 0.796207 0.653908
vt 0.770972 0.528311
vt 0.771011 0.529774
vt 0.638276 0.529212
vt 0.770984 0.547302
vt 0.771025 0.548661
vt 0.638305 0.547869
vt 0.617047 0.731497
vt 0.616316 0.731524
vt 0.616217 0.641897
vt 0.792834 0.986228
vt 0.791606 0.986729
vt 0.792693 0.984710
vt 0.778935 0.611832
vt 0.778197 0.611830
vt 0.778080 0.522308
vt 0.823702 0.826253
vt 0.823770 0.738607
vt 0.824929 0.738520
vt 0.778935 0.522183
vt 0.169734 0.784198
vt 0.168996 0.784196
vt 0.168879 0.694674
vt 0.822386 0.732834
vt 0.822455 0.645188
vt 0.823614 0.645100
vt 0.626257 0.731497
vt 0.625527 0.731524
vt 0.625427 0.641897
vt 0.169734 0.694549
vt 0.798910 0.986228
vt 0.797681 0.986729
vt 0.798769 0.984710
vt 0.904026 0.367782
vt 0.938128 0.355705
vt 0.938152 0.379850
vt 0.904015 0.130452
vt 0.938140 0.142520
vt 0.904038 0.154596
vt 0.904015 0.861673
vt 0.936002 0.872673
vt 0.904038 0.883682
vt 0.904027 0.690517
vt 0.935991 0.679510
vt 0.936015 0.701518
vt 0.943599 0.823522
vt 0.966710 0.823166
vt 0.966722 0.823882
vt 0.943599 0.895459
vt 0.966710 0.895102
vt 0.966723 0.895818
vt 0.943599 0.862043
vt 0.966710 0.861686
vt 0.966723 0.862402
vt 0.943599 0.760607
vt 0.966710 0.760251
vt 0.966722 0.760967
vt 0.943599 0.813843
vt 0.966710 0.813487
vt 0.966722 0.814203
vt 0.943599 0.905006
vt 0.966709 0.904650
vt 0.966723 0.905365
vt 0.870245 0.905292
vt 0.872039 0.869831
vt 0.873851 0.905284
vt 0.843259 0.869827
vt 0.841465 0.905288
vt 0.839653 0.869835
vt 0.904026 0.311466
vt 0.938128 0.299389
vt 0.938152 0.323534
vt 0.904015 0.214923
vt 0.938140 0.226991
vt 0.904038 0.239067
vt 0.904015 0.913719
vt 0.936002 0.924720
vt 0.904038 0.935729
vt 0.904027 0.716540
vt 0.935991 0.705532
vt 0.936015 0.727540
vt 0.943599 0.828362
vt 0.966710 0.828005
vt 0.966722 0.828722
vt 0.943599 0.866817
vt 0.966710 0.866460
vt 0.966723 0.867176
vt 0.943598 0.909780
vt 0.966710 0.909424
vt 0.966723 0.910139
vt 0.943599 0.765447
vt 0.966710 0.765091
vt 0.966722 0.765807
vt 0.943599 0.914554
vt 0.966710 0.914197
vt 0.966723 0.914913
vt 0.943599 0.770286
vt 0.966710 0.769930
vt 0.966722 0.770646
vt 0.879693 0.905288
vt 0.877882 0.869835
vt 0.881488 0.869827
vt 0.864394 0.869831
vt 0.866205 0.905284
vt 0.862599 0.905292
vt 0.904015 0.327551
vt 0.938140 0.339620
vt 0.904038 0.351696
vt 0.904026 0.255151
vt 0.938128 0.243076
vt 0.938152 0.267219
vt 0.904027 0.794607
vt 0.935991 0.783599
vt 0.936014 0.805608
vt 0.904015 0.627468
vt 0.936003 0.638469
vt 0.904038 0.649477
vt 0.943599 0.775126
vt 0.966710 0.774770
vt 0.966722 0.775486
vt 0.943599 0.847722
vt 0.966710 0.847365
vt 0.966723 0.848081
vt 0.943599 0.852495
vt 0.966710 0.852139
vt 0.966723 0.852854
vt 0.943599 0.779966
vt 0.966710 0.779609
vt 0.966722 0.780326
vt 0.943599 0.871590
vt 0.966710 0.871234
vt 0.966723 0.871949
vt 0.943599 0.842880
vt 0.966710 0.842524
vt 0.966722 0.843240
vt 0.826165 0.869831
vt 0.827976 0.905284
vt 0.824370 0.905292
vt 0.887339 0.905288
vt 0.885528 0.869835
vt 0.889134 0.869827
vt 0.904026 0.395940
vt 0.938128 0.383863
vt 0.938152 0.408008
vt 0.904015 0.186766
vt 0.938140 0.198834
vt 0.904038 0.210910
vt 0.904027 0.742562
vt 0.935991 0.731554
vt 0.936015 0.753562
vt 0.904015 0.809626
vt 0.936002 0.820626
vt 0.904038 0.831636
vt 0.943599 0.833201
vt 0.966710 0.832845
vt 0.966722 0.833561
vt 0.943598 0.876364
vt 0.966710 0.876007
vt 0.966723 0.876723
vt 0.943599 0.838041
vt 0.966710 0.837685
vt 0.966722 0.838401
vt 0.943598 0.881138
vt 0.966710 0.880781
vt 0.966723 0.881497
vt 0.943599 0.885912
vt 0.966709 0.885555
vt 0.966723 0.886271
vt 0.943599 0.818682
vt 0.966710 0.818326
vt 0.966722 0.819042
vt 0.858551 0.869827
vt 0.856756 0.905288
vt 0.854945 0.869835
vt 0.893182 0.905292
vt 0.894977 0.869831
vt 0.896788 0.905284
vt 0.904026 0.452256
vt 0.938127 0.440179
vt 0.938152 0.464324
vt 0.904015 0.158609
vt 0.938140 0.170677
vt 0.904038 0.182753
vt 0.904015 0.887696
vt 0.936002 0.898696
vt 0.904038 0.909706
vt 0.904027 0.664495
vt 0.935991 0.653487
vt 0.936015 0.675495
vt 0.943599 0.784805
vt 0.966710 0.784449
vt 0.966722 0.785165
vt 0.943598 0.890685
vt 0.966710 0.890329
vt 0.966723 0.891044
vt 0.943599 0.789645
vt 0.966710 0.789289
vt 0.966722 0.790005
vt 0.943599 0.919327
vt 0.966709 0.918971
vt 0.966723 0.919687
vt 0.943599 0.794484
vt 0.966710 0.794128
vt 0.966722 0.794844
vt 0.943598 0.900233
vt 0.966710 0.899876
vt 0.966723 0.900592
vt 0.818527 0.905288
vt 0.816716 0.869835
vt 0.820322 0.869827
vt 0.849102 0.869831
vt 0.850913 0.905284
vt 0.847307 0.905292
vt 0.904026 0.283309
vt 0.938128 0.271232
vt 0.938152 0.295376
vt 0.904015 0.412025
vt 0.938140 0.424094
vt 0.904038 0.436170
vt 0.904027 0.846654
vt 0.935991 0.835646
vt 0.936014 0.857655
vt 0.904015 0.757580
vt 0.936003 0.768580
vt 0.904038 0.779589
vt 0.943599 0.799324
vt 0.966710 0.798968
vt 0.966723 0.799684
vt 0.943599 0.924101
vt 0.966710 0.923745
vt 0.966723 0.924460
vt 0.943599 0.857269
vt 0.966710 0.856912
vt 0.966723 0.857628
vt 0.943599 0.809003
vt 0.966710 0.808647
vt 0.966722 0.809363
vt 0.943599 0.804164
vt 0.966710 0.803808
vt 0.966722 0.804524
vt 0.943599 0.928875
vt 0.966710 0.928518
vt 0.966723 0.929234
vt 0.939498 0.003819
vt 0.904045 0.005630
vt 0.904037 0.002024
vt 0.833811 0.869831
vt 0.835622 0.905284
vt 0.832016 0.905292
vt 0.904042 0.022182
vt 0.938276 0.009649
vt 0.938278 0.034714
vt 0.904042 0.051255
vt 0.938275 0.038721
vt 0.938277 0.063787
vt 0.904044 0.623456
vt 0.904041 0.600679
vt 0.935986 0.612067
vt 0.904044 0.596671
vt 0.904040 0.573894
vt 0.935987 0.585282
vt 0.904031 0.945192
vt 0.904032 0.944545
vt 0.936002 0.944870
vt 0.904032 0.940428
vt 0.904031 0.939781
vt 0.936002 0.940105
vt 0.979666 0.509614
vt 0.985662 0.509120
vt 0.985655 0.510122
vt 0.979666 0.524727
vt 0.985662 0.524234
vt 0.985655 0.525234
vt 0.979666 0.519690
vt 0.985661 0.519197
vt 0.985655 0.520197
vt 0.979666 0.514653
vt 0.985661 0.514159
vt 0.985655 0.515161
vt 0.776082 0.784191
vt 0.769291 0.623924
vt 0.782873 0.623924
vt 0.339736 0.774705
vt 0.499962 0.767877
vt 0.499973 0.781503
vt 0.686814 0.182135
vt 0.674634 0.349938
vt 0.662445 0.182140
vt 0.003190 0.662449
vt 0.170994 0.674629
vt 0.003195 0.686818
vt 0.778414 0.869800
vt 0.780289 0.869821
vt 0.779360 0.907867
vt 0.772475 0.869824
vt 0.774373 0.869822
vt 0.773444 0.907866
vt 0.760529 0.869776
vt 0.762400 0.869776
vt 0.761461 0.907828
vt 0.742644 0.869845
vt 0.744514 0.869824
vt 0.743577 0.907897
vt 0.956041 0.386734
vt 0.943566 0.365664
vt 0.968538 0.365665
vt 0.956072 0.215109
vt 0.968581 0.236179
vt 0.943556 0.236178
vt 0.943589 0.735572
vt 0.966353 0.726066
vt 0.966352 0.745059
vt 0.943580 0.564958
vt 0.966413 0.574431
vt 0.943603 0.583909
vt 0.404857 0.957469
vt 0.405213 0.977526
vt 0.404497 0.977538
vt 0.342343 0.957469
vt 0.342709 0.977525
vt 0.341993 0.977538
vt 0.409628 0.957469
vt 0.409985 0.977526
vt 0.409269 0.977538
vt 0.337504 0.957469
vt 0.337869 0.977525
vt 0.337153 0.977538
vt 0.414400 0.957469
vt 0.414756 0.977526
vt 0.414040 0.977538
vt 0.322985 0.957469
vt 0.323351 0.977526
vt 0.322635 0.977538
vt 0.943605 0.150432
vt 0.969906 0.152224
vt 0.943612 0.154032
vt 0.943605 0.119872
vt 0.969906 0.121664
vt 0.943612 0.123472
vt 0.956041 0.336549
vt 0.943566 0.315479
vt 0.968538 0.315480
vt 0.956072 0.240202
vt 0.968581 0.261272
vt 0.943556 0.261271
vt 0.943589 0.666329
vt 0.966354 0.656823
vt 0.966352 0.675817
vt 0.943580 0.587915
vt 0.966413 0.597388
vt 0.943602 0.606865
vt 0.361701 0.957469
vt 0.362067 0.977525
vt 0.361351 0.977538
vt 0.419171 0.957469
vt 0.419527 0.977526
vt 0.418811 0.977538
vt 0.332664 0.957469
vt 0.333030 0.977525
vt 0.332314 0.977538
vt 0.423942 0.957469
vt 0.424299 0.977526
vt 0.423582 0.977538
vt 0.390543 0.957469
vt 0.390900 0.977526
vt 0.390183 0.977538
vt 0.366541 0.957469
vt 0.366907 0.977525
vt 0.366191 0.977538
vt 0.943609 0.129312
vt 0.969902 0.127504
vt 0.969910 0.131104
vt 0.943609 0.167512
vt 0.969902 0.165704
vt 0.969910 0.169304
vt 0.956073 0.265294
vt 0.968581 0.286364
vt 0.943556 0.286363
vt 0.956041 0.361641
vt 0.943566 0.340572
vt 0.968538 0.340573
vt 0.943580 0.610871
vt 0.966413 0.620345
vt 0.943602 0.629822
vt 0.943589 0.712491
vt 0.966353 0.702985
vt 0.966352 0.721978
vt 0.347183 0.957469
vt 0.347549 0.977525
vt 0.346833 0.977538
vt 0.381001 0.957469
vt 0.381357 0.977526
vt 0.380641 0.977538
vt 0.385772 0.957469
vt 0.386128 0.977526
vt 0.385412 0.977538
vt 0.352022 0.957469
vt 0.352388 0.977525
vt 0.351672 0.977538
vt 0.395314 0.957469
vt 0.395671 0.977526
vt 0.394955 0.977538
vt 0.356862 0.957469
vt 0.357228 0.977525
vt 0.356512 0.977538
vt 0.969910 0.161664
vt 0.943609 0.159872
vt 0.969902 0.158064
vt 0.969910 0.115824
vt 0.943609 0.114032
vt 0.969902 0.112224
vt 0.956073 0.290387
vt 0.968581 0.311456
vt 0.943556 0.311455
vt 0.956041 0.411826
vt 0.943566 0.390756
vt 0.968538 0.390758
vt 0.943580 0.633829
vt 0.966413 0.643301
vt 0.943602 0.652779
vt 0.943589 0.689410
vt 0.966353 0.679904
vt 0.966352 0.698897
vt 0.371380 0.957469
vt 0.371746 0.977525
vt 0.371030 0.977538
vt 0.428714 0.957469
vt 0.429070 0.977526
vt 0.428354 0.977538
vt 0.327825 0.957469
vt 0.328190 0.977525
vt 0.327474 0.977538
vt 0.400086 0.957469
vt 0.400442 0.977526
vt 0.399726 0.977538
vt 0.433485 0.957469
vt 0.433841 0.977526
vt 0.433125 0.977538
vt 0.376220 0.957469
vt 0.376586 0.977525
vt 0.375870 0.977538
vt 0.969906 0.144584
vt 0.943612 0.146392
vt 0.943605 0.142792
vt 0.969906 0.136944
vt 0.943612 0.138752
vt 0.943605 0.135152
vt 0.849935 0.822286
vt 0.849239 0.822336
vt 0.849583 0.738774
vt 0.002765 0.953359
vt 0.002000 0.953353
vt 0.002307 0.869815
vt 0.857565 0.817035
vt 0.856899 0.817076
vt 0.857269 0.733510
vt 0.815725 0.839391
vt 0.815029 0.839441
vt 0.815288 0.755878
vt 0.943574 0.074346
vt 0.971003 0.068302
vt 0.971015 0.080378
vt 0.943574 0.090483
vt 0.971001 0.084438
vt 0.971014 0.096515
vt 0.979662 0.049015
vt 0.987186 0.046383
vt 0.987193 0.051646
vt 0.979662 0.058358
vt 0.987185 0.055725
vt 0.987192 0.060989
vt 0.055133 0.869832
vt 0.060058 0.946046
vt 0.050197 0.946040
vt 0.046165 0.869835
vt 0.041229 0.946044
vt 0.036304 0.869830
vt 0.567409 0.640105
vt 0.572307 0.749955
vt 0.562515 0.749965
vt 0.589404 0.640116
vt 0.584516 0.749960
vt 0.579623 0.640096
vt 0.183385 0.926080
vt 0.191765 0.869831
vt 0.200118 0.926097
vt 0.108601 0.869828
vt 0.116953 0.926211
vt 0.100220 0.926198
vt 0.204177 0.926080
vt 0.212556 0.869831
vt 0.220908 0.926097
vt 0.233334 0.926088
vt 0.224981 0.869822
vt 0.241714 0.869840
vt 0.096176 0.869834
vt 0.087795 0.926204
vt 0.079443 0.869821
vt 0.170961 0.926088
vt 0.162608 0.869822
vt 0.179341 0.869840
vt 0.826137 0.188720
vt 0.865771 0.318356
vt 0.786505 0.318363
vt 0.004516 0.865771
vt 0.004509 0.786505
vt 0.134152 0.826135
vt 0.673863 0.869776
vt 0.674716 0.908587
vt 0.673004 0.908596
vt 0.668030 0.869834
vt 0.668883 0.908656
vt 0.667173 0.908665
vt 0.732054 0.869812
vt 0.732856 0.908630
vt 0.731117 0.908631
vt 0.697258 0.869823
vt 0.698070 0.908628
vt 0.696331 0.908629
vt 0.737742 0.869811
vt 0.738620 0.908630
vt 0.736880 0.908631
vt 0.703012 0.869823
vt 0.703902 0.908628
vt 0.702163 0.908629
vt 0.720451 0.869811
vt 0.721329 0.908630
vt 0.719590 0.908631
vt 0.708844 0.869823
vt 0.709734 0.908628
vt 0.707995 0.908629
vt 0.508452 0.817479
vt 0.638089 0.777083
vt 0.638096 0.857875
vt 0.863139 0.132833
vt 0.782347 0.132840
vt 0.822740 0.003197
vt 0.622776 0.913222
vt 0.613799 0.869806
vt 0.631739 0.869791
vt 0.591796 0.869806
vt 0.609737 0.869791
vt 0.600773 0.913222
vt 0.904052 0.556093
vt 0.936865 0.563344
vt 0.904049 0.569827
vt 0.556698 0.870159
vt 0.547208 0.916054
vt 0.536788 0.870180
vt 0.795869 0.968063
vt 0.795498 0.968031
vt 0.795707 0.957460
vt 0.782469 0.968062
vt 0.782117 0.968066
vt 0.782298 0.957460
vt 0.894705 0.986702
vt 0.894440 0.984674
vt 0.894994 0.984686
vt 0.843919 0.984684
vt 0.843630 0.986705
vt 0.843364 0.984673
vt 0.899316 0.986702
vt 0.899050 0.984674
vt 0.899605 0.984686
vt 0.857751 0.984684
vt 0.857462 0.986705
vt 0.857196 0.984673
vt 0.391425 0.984670
vt 0.390259 0.987470
vt 0.389069 0.984682
vt 0.369754 0.987476
vt 0.370920 0.984676
vt 0.372110 0.987464
vt 0.791403 0.968063
vt 0.791033 0.968031
vt 0.791241 0.957460
vt 0.786935 0.968062
vt 0.786583 0.968066
vt 0.786764 0.957460
vt 0.885401 0.986702
vt 0.885136 0.984674
vt 0.885691 0.984686
vt 0.848530 0.984684
vt 0.848240 0.986705
vt 0.847975 0.984673
vt 0.880791 0.986702
vt 0.880526 0.984674
vt 0.881081 0.984686
vt 0.853141 0.984684
vt 0.852851 0.986705
vt 0.852586 0.984673
vt 0.378541 0.984670
vt 0.377374 0.987470
vt 0.376184 0.984682
vt 0.382639 0.987476
vt 0.383805 0.984676
vt 0.384994 0.987464
vt 0.915623 0.964131
vt 0.918322 0.957812
vt 0.922412 0.962905
vt 0.955345 0.964132
vt 0.958037 0.957813
vt 0.962119 0.962905
vt 0.980929 0.472175
vt 0.985122 0.472354
vt 0.983181 0.476083
vt 0.980925 0.412763
vt 0.985125 0.412945
vt 0.983183 0.416675
vt 0.993484 0.523205
vt 0.993074 0.523568
vt 0.993067 0.523136
vt 0.084391 0.986927
vt 0.084058 0.987069
vt 0.084117 0.986377
vt 0.710372 0.984658
vt 0.710652 0.986895
vt 0.710149 0.986886
vt 0.728840 0.984704
vt 0.729112 0.986906
vt 0.728586 0.986921
vt 0.658038 0.984696
vt 0.658384 0.984659
vt 0.658462 0.985947
vt 0.993185 0.440683
vt 0.993491 0.441184
vt 0.993009 0.441011
vt 0.993502 0.440918
vt 0.751850 0.986883
vt 0.751563 0.984676
vt 0.752083 0.984660
vt 0.685055 0.986933
vt 0.684789 0.984687
vt 0.685297 0.984702
vt 0.942108 0.964132
vt 0.944807 0.957812
vt 0.948897 0.962905
vt 0.986318 0.035819
vt 0.979999 0.033127
vt 0.985092 0.029045
vt 0.984232 0.425954
vt 0.980035 0.425766
vt 0.981977 0.422037
vt 0.984236 0.455659
vt 0.980035 0.455478
vt 0.981978 0.451756
vt 0.568084 0.984676
vt 0.993067 0.555212
vt 0.993454 0.555752
vt 0.993054 0.555712
vt 0.993484 0.564656
vt 0.993301 0.564974
vt 0.993100 0.564766
vt 0.482376 0.984795
vt 0.482727 0.984623
vt 0.482621 0.987089
vt 0.676154 0.987007
vt 0.675794 0.987006
vt 0.675993 0.984675
vt 0.616296 0.987026
vt 0.615955 0.987039
vt 0.616123 0.984677
vt 0.993012 0.417761
vt 0.993459 0.418153
vt 0.992891 0.418068
vt 0.875958 0.984623
vt 0.876326 0.984628
vt 0.876127 0.986535
vt 0.060884 0.986915
vt 0.061061 0.987124
vt 0.058975 0.988194
vt 0.861998 0.984862
vt 0.862350 0.984830
vt 0.861954 0.986735
vt 0.550742 0.987007
vt 0.550382 0.987006
vt 0.550581 0.984675
vt 0.598912 0.987022
vt 0.598570 0.987038
vt 0.598738 0.984674
vt 0.928865 0.964132
vt 0.931565 0.957812
vt 0.935655 0.962905
vt 0.986318 0.009382
vt 0.979999 0.006689
vt 0.985091 0.002607
vt 0.980929 0.482079
vt 0.985122 0.482258
vt 0.983181 0.485987
vt 0.980925 0.442485
vt 0.985125 0.442668
vt 0.983183 0.446397
vt 0.993424 0.559882
vt 0.993354 0.560383
vt 0.993078 0.560342
vt 0.993024 0.560323
vt 0.993512 0.122466
vt 0.992916 0.122411
vt 0.993231 0.122128
vt 0.738066 0.984704
vt 0.738338 0.986906
vt 0.737811 0.986921
vt 0.719597 0.984658
vt 0.719878 0.986895
vt 0.719374 0.986886
vt 0.694280 0.986932
vt 0.694014 0.984687
vt 0.694522 0.984702
vt 0.761076 0.986884
vt 0.760789 0.984676
vt 0.761308 0.984660
vt 0.902380 0.964132
vt 0.905080 0.957812
vt 0.909170 0.962905
vt 0.986318 0.022600
vt 0.979999 0.019908
vt 0.985091 0.015826
vt 0.984232 0.435861
vt 0.980035 0.435673
vt 0.981977 0.431944
vt 0.984236 0.465550
vt 0.980035 0.465369
vt 0.981978 0.461647
vt 0.563880 0.987015
vt 0.563557 0.987081
vt 0.563705 0.984676
vt 0.667397 0.987007
vt 0.667036 0.987006
vt 0.667235 0.984675
vt 0.629433 0.987025
vt 0.629091 0.987039
vt 0.629259 0.984677
vt 0.068016 0.986841
vt 0.068264 0.986812
vt 0.068649 0.989159
vt 0.067772 0.986932
vt 0.546364 0.987007
vt 0.546003 0.987006
vt 0.546202 0.984675
vt 0.590154 0.987022
vt 0.589812 0.987038
vt 0.589980 0.984674
vt 0.105747 0.984675
vt 0.104559 0.989000
vt 0.103375 0.984671
vt 0.098119 0.984673
vt 0.099303 0.989002
vt 0.096931 0.988998
vt 0.181518 0.984674
vt 0.180256 0.988695
vt 0.178997 0.984670
vt 0.167067 0.984672
vt 0.168326 0.988697
vt 0.165805 0.988694
vt 0.112189 0.984675
vt 0.111001 0.989000
vt 0.109817 0.984671
vt 0.117445 0.984673
vt 0.118629 0.989002
vt 0.116257 0.988998
vt 0.161733 0.984674
vt 0.160471 0.988695
vt 0.159212 0.984671
vt 0.173662 0.984672
vt 0.174921 0.988697
vt 0.172400 0.988694
vt 0.967627 0.957480
vt 0.968503 0.966528
vt 0.966743 0.966523
vt 0.974306 0.957482
vt 0.973421 0.966526
vt 0.972545 0.957477
vt 0.021939 0.984658
vt 0.022853 0.989492
vt 0.020988 0.989455
vt 0.028787 0.984676
vt 0.027836 0.989474
vt 0.026923 0.984640
vt 0.865999 0.957424
vt 0.865844 0.967488
vt 0.865710 0.957423
vt 0.822710 0.957480
vt 0.822845 0.967548
vt 0.822578 0.967565
vt 0.861686 0.957424
vt 0.861541 0.967487
vt 0.861396 0.957423
vt 0.818386 0.957481
vt 0.818532 0.967548
vt 0.818264 0.967565
vt 0.852881 0.967521
vt 0.852746 0.957469
vt 0.853059 0.957492
vt 0.839816 0.957451
vt 0.839938 0.967557
vt 0.839693 0.967566
vt 0.356948 0.869805
vt 0.381304 0.923169
vt 0.332592 0.923178
vt 0.409664 0.923174
vt 0.385308 0.869810
vt 0.434020 0.869801
vt 0.985063 0.646314
vt 0.979669 0.648718
vt 0.979660 0.644278
vt 0.985051 0.793669
vt 0.979698 0.795923
vt 0.979695 0.791474
vt 0.985051 0.729287
vt 0.979698 0.731540
vt 0.979695 0.727091
vt 0.985063 0.627897
vt 0.979669 0.630301
vt 0.979660 0.625861
vt 0.985051 0.899340
vt 0.985067 0.902357
vt 0.979659 0.900777
vt 0.985023 0.828357
vt 0.985023 0.831388
vt 0.979659 0.829706
vt 0.985051 0.747681
vt 0.979698 0.749935
vt 0.979695 0.745486
vt 0.985063 0.655523
vt 0.979669 0.657926
vt 0.979660 0.653487
vt 0.985051 0.692497
vt 0.979698 0.694750
vt 0.979695 0.690301
vt 0.985063 0.600272
vt 0.979669 0.602675
vt 0.979660 0.598236
vt 0.985063 0.637106
vt 0.979669 0.639509
vt 0.979660 0.635070
vt 0.985051 0.701694
vt 0.979698 0.703948
vt 0.979695 0.699498
vt 0.985051 0.927735
vt 0.985067 0.930751
vt 0.979659 0.929172
vt 0.985023 0.814160
vt 0.985023 0.817191
vt 0.979659 0.815508
vt 0.985063 0.581855
vt 0.979669 0.584258
vt 0.979660 0.579819
vt 0.985051 0.720089
vt 0.979698 0.722343
vt 0.979695 0.717893
vt 0.985063 0.673940
vt 0.979669 0.676343
vt 0.979660 0.671904
vt 0.985051 0.756879
vt 0.979698 0.759133
vt 0.979695 0.754684
vt 0.985063 0.683149
vt 0.979669 0.685552
vt 0.979660 0.681112
vt 0.985051 0.766077
vt 0.979698 0.768330
vt 0.979695 0.763881
vt 0.985051 0.775274
vt 0.979698 0.777528
vt 0.979695 0.773079
vt 0.985063 0.609480
vt 0.979669 0.611884
vt 0.979660 0.607444
vt 0.985063 0.618689
vt 0.979669 0.621092
vt 0.979660 0.616653
vt 0.985051 0.784472
vt 0.979698 0.786726
vt 0.979695 0.782276
vt 0.593737 0.957487
vt 0.599785 0.957479
vt 0.596765 0.975681
vt 0.603843 0.957487
vt 0.609891 0.957479
vt 0.606871 0.975680
vt 0.979668 0.529290
vt 0.985355 0.531310
vt 0.979660 0.533330
vt 0.979664 0.539431
vt 0.985359 0.537412
vt 0.985351 0.541452
vt 0.053816 0.987013
vt 0.054114 0.987006
vt 0.053878 0.987008
vt 0.915830 0.985862
vt 0.915664 0.984724
vt 0.916153 0.984785
vt 0.617064 0.641973
vt 0.626274 0.641973
vt 0.493267 0.870930
vt 0.483799 0.919864
vt 0.475458 0.870545
vt 0.469798 0.871743
vt 0.460844 0.919775
vt 0.451626 0.871198
vt 0.765409 0.984656
vt 0.765694 0.984623
vt 0.765971 0.984732
vt 0.460145 0.984656
vt 0.460428 0.984784
vt 0.460197 0.987092
vt 0.993499 0.450063
s 1
usemtl rural_house_003_baked
f 424/1/1 415/2/2 513/3/3
f 512/4/4 365/5/5 366/6/6
f 371/7/7 367/8/8 366/9/6
f 10/10/9 8/11/9 9/12/10
f 9/13/10 8/14/9 10/15/9
f 13/16/9 12/17/9 11/18/9
f 11/19/9 12/20/9 13/21/9
f 16/22/10 15/23/10 14/24/10
f 14/25/10 15/26/10 16/27/10
f 17/28/10 19/29/10 18/30/10
f 17/31/10 18/32/10 19/33/10
f 22/34/10 23/35/10 24/36/10
f 22/37/10 24/38/10 23/39/10
f 25/40/10 26/41/10 27/42/10
f 25/43/10 27/44/10 26/45/10
f 28/46/11 29/47/10 30/48/10
f 29/49/10 28/50/11 30/51/10
f 31/52/12 34/53/13 38/54/14
f 32/55/15 36/56/16 33/57/17
f 34/58/13 31/59/12 36/60/16
f 31/61/12 33/62/17 36/63/16
f 34/58/18 36/60/18 35/64/18
f 44/65/19 40/66/20 520/67/21
f 40/68/20 506/69/22 520/70/21
f 40/71/20 44/72/19 41/73/14
f 44/65/23 520/67/23 43/74/23
f 521/75/24 520/76/21 506/77/22
f 46/78/25 47/79/26 48/80/27
f 47/81/26 46/82/25 48/83/27
f 49/84/28 50/85/29 51/86/30
f 50/87/29 49/88/28 51/89/30
f 53/90/10 54/91/10 52/92/10
f 53/93/10 52/94/10 54/95/10
f 55/96/10 57/97/10 56/98/10
f 55/99/10 56/100/10 57/101/10
f 58/102/10 59/103/10 60/104/10
f 58/105/10 60/106/10 59/107/10
f 62/108/31 63/109/32 61/110/33
f 61/111/33 63/112/32 62/113/31
f 65/114/28 66/115/10 64/116/28
f 66/117/10 65/118/28 64/119/28
f 67/120/34 68/121/28 69/122/35
f 68/123/28 67/124/34 69/125/35
f 70/126/10 72/127/10 71/128/10
f 70/129/10 71/130/10 72/131/10
f 73/132/10 74/133/10 75/134/10
f 73/135/10 75/136/10 74/137/10
f 76/138/10 77/139/10 78/140/10
f 76/141/10 78/142/10 77/143/10
f 79/144/10 81/145/10 80/146/10
f 79/147/10 80/148/10 81/149/10
f 84/150/36 82/151/37 83/152/38
f 82/153/37 84/154/36 83/155/38
f 85/156/10 87/157/39 86/158/39
f 87/159/39 85/160/10 86/161/39
f 88/162/10 90/163/10 89/164/10
f 88/165/10 89/166/10 90/167/10
f 91/168/10 93/169/10 92/170/10
f 91/171/10 92/172/10 93/173/10
f 94/174/10 96/175/10 95/176/10
f 94/177/10 95/178/10 96/179/10
f 97/180/10 98/181/10 99/182/10
f 97/183/10 99/184/10 98/185/10
f 100/186/28 102/187/10 101/188/28
f 102/189/10 100/190/28 101/191/28
f 103/192/40 104/193/41 105/194/41
f 104/195/41 103/196/40 105/197/41
f 107/198/10 108/199/10 106/200/10
f 107/201/10 106/202/10 108/203/10
f 109/204/10 111/205/10 110/206/10
f 109/207/10 110/208/10 111/209/10
f 112/210/10 113/211/10 114/212/10
f 112/213/10 114/214/10 113/215/10
f 116/216/42 115/217/43 117/218/44
f 117/219/44 115/220/43 116/221/42
f 118/222/39 119/223/45 120/224/45
f 119/225/45 118/226/39 120/227/45
f 122/228/46 121/229/47 123/230/48
f 121/231/47 122/232/46 123/233/48
f 125/234/10 126/235/10 124/236/10
f 125/237/10 124/238/10 126/239/10
f 128/240/10 129/241/10 127/242/10
f 128/243/10 127/244/10 129/245/10
f 130/246/10 132/247/10 131/248/10
f 130/249/10 131/250/10 132/251/10
f 134/252/10 135/253/10 133/254/10
f 134/255/10 133/256/10 135/257/10
f 136/258/49 137/259/50 138/260/51
f 137/261/50 136/262/49 138/263/51
f 140/264/52 141/265/53 139/266/54
f 141/267/53 140/268/52 139/269/54
f 142/270/10 144/271/10 143/272/10
f 142/273/10 143/274/10 144/275/10
f 145/276/10 147/277/10 146/278/10
f 145/279/10 146/280/10 147/281/10
f 150/282/10 149/283/10 148/284/10
f 150/285/10 148/286/10 149/287/10
f 152/288/10 151/289/10 153/290/10
f 152/291/10 153/292/10 151/293/10
f 154/294/10 156/295/10 155/296/10
f 154/297/10 155/298/10 156/299/10
f 158/300/10 157/301/10 159/302/10
f 157/303/10 158/304/10 159/305/10
f 162/306/10 160/307/10 161/308/10
f 160/309/10 162/310/10 161/311/10
f 163/312/10 164/313/10 165/314/10
f 163/315/10 165/316/10 164/317/10
f 166/318/10 167/319/10 168/320/10
f 166/321/10 168/322/10 167/323/10
f 170/324/10 171/325/10 169/326/10
f 170/327/10 169/328/10 171/329/10
f 174/330/39 172/331/39 173/332/39
f 173/333/39 172/334/39 174/335/39
f 176/336/28 175/337/28 177/338/28
f 175/339/28 176/340/28 177/341/28
f 180/342/10 179/343/10 178/344/10
f 179/345/10 180/346/10 178/347/10
f 181/348/10 182/349/10 183/350/10
f 181/351/10 183/352/10 182/353/10
f 186/354/55 184/355/56 185/356/57
f 184/357/56 186/358/55 185/359/57
f 188/360/10 189/361/10 187/362/10
f 188/363/10 187/364/10 189/365/10
f 192/366/10 191/367/10 190/368/10
f 192/369/10 190/370/10 191/371/10
f 193/372/10 195/373/10 194/374/10
f 193/375/10 194/376/10 195/377/10
f 198/378/58 196/379/59 197/380/60
f 197/381/60 196/382/59 198/383/58
f 199/384/10 201/385/10 200/386/10
f 199/387/10 200/388/10 201/389/10
f 202/390/61 204/391/62 203/392/63
f 204/393/62 202/394/61 203/395/63
f 206/396/10 205/397/10 207/398/10
f 206/399/10 207/400/10 205/401/10
f 208/402/10 209/403/10 210/404/10
f 208/405/10 210/406/10 209/407/10
f 212/408/10 213/409/10 211/410/10
f 212/411/10 211/412/10 213/413/10
f 214/414/10 215/415/10 216/416/10
f 214/417/10 216/418/10 215/419/10
f 217/420/10 219/421/10 218/422/10
f 217/423/10 218/424/10 219/425/10
f 220/426/64 222/427/64 221/428/65
f 222/429/64 220/430/64 221/431/65
f 224/432/10 225/433/10 223/434/10
f 224/435/10 223/436/10 225/437/10
f 226/438/10 228/439/10 227/440/10
f 226/441/10 227/442/10 228/443/10
f 229/444/10 231/445/10 230/446/10
f 229/447/10 230/448/10 231/449/10
f 233/450/66 234/451/67 232/452/68
f 232/453/68 234/454/67 233/455/66
f 237/456/10 236/457/10 235/458/10
f 237/459/10 235/460/10 236/461/10
f 238/462/69 239/463/70 240/464/71
f 239/465/70 238/466/69 240/467/71
f 241/468/10 243/469/10 242/470/10
f 241/471/10 242/472/10 243/473/10
f 244/474/10 246/475/10 245/476/10
f 244/477/10 245/478/10 246/479/10
f 247/480/10 249/481/10 248/482/10
f 247/483/10 248/484/10 249/485/10
f 252/486/10 251/487/10 250/488/10
f 252/489/10 250/490/10 251/491/10
f 253/492/72 254/493/72 255/494/72
f 254/495/72 253/496/72 255/497/72
f 257/498/10 256/499/10 258/500/10
f 256/501/10 257/502/10 258/503/10
f 261/504/10 259/505/10 260/506/10
f 261/507/10 260/508/10 259/509/10
f 262/510/10 264/511/10 263/512/10
f 262/513/10 263/514/10 264/515/10
f 265/516/39 266/517/39 267/518/10
f 266/519/39 265/520/39 267/521/10
f 269/522/10 268/523/10 270/524/10
f 268/525/10 269/526/10 270/527/10
f 273/528/73 271/529/73 272/530/73
f 273/531/10 275/532/10 274/533/10
f 275/534/10 273/535/10 274/536/10
f 277/537/9 276/538/9 278/539/10
f 276/540/9 277/541/9 278/542/10
f 279/543/74 280/544/74 277/545/74
f 283/546/75 282/547/76 281/548/77
f 281/549/77 282/550/76 283/551/75
f 285/552/10 286/553/10 284/554/10
f 285/555/10 284/556/10 286/557/10
f 287/558/10 289/559/10 288/560/10
f 287/561/10 288/562/10 289/563/10
f 291/564/10 290/565/10 292/566/10
f 291/567/10 292/568/10 290/569/10
f 295/570/10 293/571/10 294/572/10
f 295/573/10 294/574/10 293/575/10
f 297/576/78 298/577/79 296/578/80
f 296/579/80 298/580/79 297/581/78
f 299/582/81 301/583/81 300/584/81
f 300/585/81 301/586/81 299/587/81
f 1/588/11 306/589/82 305/590/83
f 305/591/83 306/592/82 1/593/11
f 309/594/39 307/595/39 308/596/39
f 307/597/39 309/598/39 308/599/39
f 310/600/84 311/601/85 312/602/85
f 311/603/85 310/604/84 312/605/85
f 313/606/86 314/607/86 315/608/86
f 314/609/86 313/610/86 315/611/86
f 318/612/87 317/613/88 316/614/89
f 316/615/89 317/616/88 318/617/87
f 319/618/28 321/619/28 320/620/28
f 321/621/28 319/622/28 320/623/28
f 322/624/37 324/625/37 323/626/37
f 324/627/37 322/628/37 323/629/37
f 327/630/9 325/631/9 326/632/9
f 325/633/9 327/634/9 326/635/9
f 330/636/90 329/637/72 328/638/91
f 328/639/91 329/640/72 330/641/90
f 331/642/10 332/643/10 333/644/10
f 333/645/10 332/646/10 331/647/10
f 334/648/10 336/649/10 335/650/10
f 335/651/10 336/652/10 334/653/10
f 340/654/92 349/655/93 337/656/94
f 337/657/94 349/658/93 338/659/95
f 343/660/10 344/661/10 345/662/10
f 343/663/10 345/664/10 344/665/10
f 350/666/96 354/667/97 351/668/98
f 349/669/99 354/670/97 350/671/96
f 349/669/99 355/672/100 354/670/97
f 356/673/10 358/674/10 357/675/10
f 356/676/10 357/677/10 358/678/10
f 359/679/10 361/680/10 360/681/10
f 360/682/10 361/683/10 359/684/10
f 362/685/10 363/686/10 364/687/10
f 364/688/10 363/689/10 362/690/10
f 365/5/5 512/4/4 367/691/101
f 366/692/6 365/693/5 371/694/7
f 377/695/102 368/696/103 507/697/104
f 511/698/105 370/699/106 378/700/107
f 374/701/28 376/702/28 375/703/28
f 376/704/28 374/705/28 375/706/28
f 377/707/108 511/708/105 379/709/109
f 512/710/110 377/711/108 378/712/111
f 379/713/109 511/714/105 378/715/107
f 368/716/103 377/717/102 524/718/112
f 383/719/10 381/720/10 382/721/10
f 381/722/10 383/723/10 382/724/10
f 384/725/10 385/726/10 386/727/10
f 386/728/10 385/729/10 384/730/10
f 387/731/113 388/732/114 389/733/115
f 389/734/115 388/735/114 387/736/113
f 393/737/116 390/738/117 391/739/118
f 393/737/116 391/739/118 392/740/119
f 518/741/120 391/742/120 395/743/120
f 399/744/10 401/745/10 400/746/10
f 399/747/10 400/748/10 401/749/10
f 408/750/10 406/751/10 407/752/10
f 408/753/10 407/754/10 406/755/10
f 409/756/37 410/757/37 411/758/37
f 411/759/37 410/760/37 409/761/37
f 414/762/10 413/763/10 412/764/10
f 412/765/10 413/766/10 414/767/10
f 419/768/121 513/769/3 417/770/122
f 420/771/123 422/772/124 421/773/125
f 422/774/124 420/775/123 421/776/125
f 424/777/126 429/778/127 514/779/128
f 425/780/129 424/777/126 514/779/128
f 431/781/37 430/782/37 432/783/37
f 430/784/37 431/785/37 432/786/37
f 435/787/28 433/788/130 434/789/131
f 433/790/130 435/791/28 434/792/131
f 436/793/132 437/794/133 438/795/134
f 437/796/133 436/797/132 438/798/134
f 441/799/10 439/800/10 440/801/10
f 439/802/10 441/803/10 440/804/10
f 442/805/135 443/806/135 444/807/135
f 443/808/135 442/809/135 444/810/135
f 445/811/28 447/812/28 446/813/28
f 447/814/28 445/815/28 446/816/28
f 449/817/136 450/818/137 448/819/137
f 450/820/137 449/821/136 448/822/137
f 451/823/138 453/824/139 452/825/138
f 453/826/139 451/827/138 452/828/138
f 454/829/140 455/830/141 456/831/140
f 455/832/141 454/833/140 456/834/140
f 458/835/10 457/836/10 459/837/10
f 458/838/10 459/839/10 457/840/10
f 460/841/10 461/842/10 462/843/10
f 460/844/10 462/845/10 461/846/10
f 463/847/10 465/848/10 464/849/10
f 463/850/10 464/851/10 465/852/10
f 466/853/10 467/854/10 468/855/10
f 466/856/10 468/857/10 467/858/10
f 469/859/28 470/860/28 471/861/28
f 470/862/28 469/863/28 471/864/28
f 473/865/10 474/866/10 472/867/10
f 473/868/10 472/869/10 474/870/10
f 475/871/10 477/872/10 476/873/10
f 475/874/10 476/875/10 477/876/10
f 478/877/10 479/878/10 480/879/10
f 478/880/10 480/881/10 479/882/10
f 483/883/37 481/884/37 482/885/37
f 481/886/37 483/887/37 482/888/37
f 484/889/10 486/890/10 485/891/10
f 484/892/10 485/893/10 486/894/10
f 487/895/10 488/896/10 489/897/10
f 487/898/10 489/899/10 488/900/10
f 490/901/10 491/902/10 492/903/10
f 490/904/10 492/905/10 491/906/10
f 493/907/10 495/908/10 494/909/10
f 493/910/10 494/911/10 495/912/10
f 496/913/10 497/914/10 498/915/10
f 496/916/10 498/917/10 497/918/10
f 501/919/10 500/920/10 499/921/10
f 500/922/10 501/923/10 499/924/10
f 503/925/142 502/926/143 504/927/144
f 502/928/143 503/929/142 504/930/144
f 511/931/145 512/932/145 366/933/146
f 351/934/147 355/935/148 349/936/149
f 38/54/150 32/937/150 31/52/150
f 41/73/150 521/938/150 40/71/150
f 303/939/151 304/940/152 302/941/153
f 302/942/153 304/943/152 303/944/151
f 377/945/108 512/946/110 511/947/105
f 522/948/154 395/949/154 402/950/154
f 424/1/1 513/3/3 419/951/121
l 41 506
l 508 519
l 428 513
l 2 3
l 5 6
l 20 21
l 347 349
l 510 370
l 415 417
l 365 377
l 346 349
l 506 45
l 395 396
l 338 340
l 348 509
l 347 346
l 33 38
l 418 525
l 38 39
l 419 423
l 34 515
l 366 523
l 517 403
l 372 516
l 339 354
l 394 522
l 41 45
l 427 428
l 33 39
l 518 402
l 42 43
l 392 390
l 423 424
l 505 44
l 341 352
l 524 507
l 342 353
l 373 380
l 35 37
l 416 426
l 391 396
l 425 429
l 397 405
l 398 404
l 368 369
l 4 6
l 4 7
