# Blender 4.5.0
# www.blender.org
mtllib rural_house_002.lod2.mtl
o rural_house_002
v 7.196137 1.167607 -2.142728
v 7.084299 1.702951 -2.560919
v 5.976435 1.702975 -2.556771
v 5.976625 1.702880 -4.707499
v 7.275462 1.292392 -2.566808
v 7.084299 1.702982 -4.707499
v 5.785450 1.292392 -2.566824
v -10.000000 -0.000001 -10.000000
v -10.000000 0.011056 10.000000
v -9.832435 0.073232 -9.833860
v -9.832435 0.074616 9.833860
v 9.349997 0.081018 -0.245108
v 4.974623 0.333781 1.607438
v -7.667907 0.365748 7.483573
v -7.667907 0.070885 -0.494711
v -7.662845 2.903506 -0.000878
v 5.908152 3.162398 1.535053
v -7.298892 3.152265 7.355939
v -7.722888 1.219639 4.827307
v 3.463815 1.219639 2.161555
v -7.842638 3.563696 -0.852196
v -7.982493 3.566211 -0.873348
v -7.919655 3.570085 7.881678
v 3.711082 3.520418 -0.871728
v 3.606246 3.615490 -0.853979
v 3.660580 3.570084 7.881678
v -2.064300 5.585406 -0.879043
v -2.199780 5.708279 -0.856125
v -2.129535 5.649580 7.895162
v -2.143295 5.600402 0.507460
v -2.104693 5.522875 -0.851619
v -7.922599 3.561083 -0.913485
v -2.124958 5.638648 -0.925677
v -2.128532 5.641992 -0.928808
v -2.130701 5.642964 -0.923399
v -2.063718 5.579087 -0.844154
v -2.087431 5.674883 -0.797573
v -2.118976 5.618169 -0.887896
v -2.141795 5.591181 7.892178
v -2.104692 5.522877 7.834539
v -2.118977 5.618172 7.798263
v -2.130702 5.642965 7.762761
v -2.124958 5.638649 7.760481
v -2.063718 5.579088 7.833016
v -7.922598 3.561084 7.772673
v -2.087431 5.674883 7.888585
v -7.931863 3.612540 -0.744626
v -2.102755 5.646686 -0.748807
v -7.900991 3.526537 -0.750917
v -2.155966 5.647684 -0.746995
v 3.650188 3.549950 -0.708511
v 3.664005 3.587663 -0.789683
v -7.931863 3.612540 -0.325295
v -7.900991 3.526537 -0.331585
v -2.102755 5.646686 -0.329475
v -2.155966 5.647684 -0.327664
v 3.664005 3.587663 -0.370351
v 3.650188 3.549949 -0.289179
v -7.931863 3.612540 0.094037
v -7.900991 3.526537 0.087747
v -2.102755 5.646686 0.089856
v -2.155966 5.647684 0.091668
v 3.650188 3.549950 0.130152
v 3.664005 3.587663 0.048980
v -2.102755 5.646686 0.509188
v -7.931863 3.612540 0.513369
v -7.900991 3.526537 0.507079
v -2.155966 5.647684 0.511000
v 3.664005 3.587663 0.468312
v 3.650188 3.549950 0.549484
v -7.931863 3.612540 0.932701
v -2.102755 5.646686 0.928520
v -7.900991 3.526537 0.926410
v -2.155966 5.647684 0.930332
v 3.664005 3.587663 0.887644
v 3.650188 3.549950 0.968816
v -7.900991 3.526537 1.345742
v -2.102755 5.646686 1.347852
v -7.931863 3.612540 1.352033
v -2.155966 5.647684 1.349663
v 3.650188 3.549950 1.388148
v 3.664005 3.587663 1.306976
v -7.900991 3.526537 1.765074
v -7.931863 3.612540 1.771364
v -2.102755 5.646686 1.767183
v -2.155966 5.647684 1.768995
v 3.650188 3.549950 1.807479
v 3.664005 3.587663 1.726308
v -7.931863 3.612540 2.190698
v -7.900992 3.526537 2.184408
v -2.102755 5.646686 2.186516
v -2.155967 5.647684 2.188329
v 3.650188 3.549948 2.226810
v 3.664005 3.587663 2.145639
v -7.931863 3.612540 2.610028
v -2.102755 5.646686 2.605847
v -7.900991 3.526537 2.603738
v -2.155965 5.647684 2.607659
v 3.664005 3.587663 2.564971
v 3.650188 3.549950 2.646143
v -2.102755 5.646686 3.025178
v -7.900992 3.526537 3.023070
v -7.931863 3.612540 3.029360
v -2.155966 5.647685 3.026993
v 3.664006 3.587664 2.984303
v 3.650188 3.549950 3.065475
v -7.900991 3.526537 3.442404
v -2.102755 5.646686 3.444512
v -7.931863 3.612540 3.448694
v -2.155967 5.647685 3.446324
v 3.664005 3.587663 3.403635
v 3.650188 3.549948 3.484806
v -7.900991 3.526537 3.861733
v -7.931863 3.612540 3.868023
v -2.102755 5.646687 3.863842
v -2.155965 5.647685 3.865654
v 3.650188 3.549950 3.904138
v 3.664005 3.587663 3.822966
v -7.935304 3.561944 4.284986
v -2.128720 5.659871 4.242298
v -2.115787 5.621844 4.323471
v -2.155966 5.647685 4.284986
v 3.664006 3.587662 4.242297
v 3.650188 3.549950 4.323470
v -7.935304 3.561944 4.704318
v -2.128720 5.659871 4.661630
v -2.115787 5.621844 4.742803
v -2.155966 5.647685 4.704318
v 3.664006 3.587663 4.661630
v 3.650189 3.549950 4.742802
v -7.935304 3.561944 5.123649
v -2.115787 5.621844 5.162135
v -2.128721 5.659873 5.080963
v -2.155966 5.647685 5.123649
v 3.650189 3.549950 5.162134
v 3.664006 3.587665 5.080962
v -7.935303 3.561944 5.542980
v -2.128721 5.659872 5.500294
v -2.115787 5.621844 5.581467
v -2.155965 5.647684 5.542980
v 3.664005 3.587664 5.500293
v 3.650189 3.549950 5.581466
v -7.935303 3.561944 5.962312
v -2.128720 5.659870 5.919625
v -2.115786 5.621842 6.000797
v -2.155965 5.647684 5.962312
v 3.650188 3.549949 6.000796
v 3.664005 3.587663 5.919624
v -7.935304 3.561944 6.381645
v -2.115787 5.621842 6.420129
v -2.128720 5.659870 6.338956
v -2.155966 5.647684 6.381645
v 3.664005 3.587662 6.338956
v 3.650188 3.549948 6.420127
v -7.935305 3.561943 6.800978
v -2.115787 5.621842 6.839461
v -2.128720 5.659871 6.758288
v -2.155967 5.647685 6.800978
v 3.650188 3.549948 6.839459
v 3.664005 3.587662 6.758288
v -7.931863 3.612540 7.222677
v -7.900991 3.526538 7.216387
v -2.102755 5.646687 7.218496
v -2.155966 5.647685 7.220309
v 3.650188 3.549950 7.258792
v 3.664005 3.587663 7.177620
v -2.115787 5.621844 7.678125
v -7.935304 3.561944 7.639639
v -2.128721 5.659873 7.596953
v -2.155966 5.647685 7.639639
v 3.664006 3.587665 7.596952
v 3.650189 3.549950 7.678124
v -6.927779 0.966319 -0.309907
v -4.604872 0.909279 -0.291578
v -4.604871 2.557058 -0.277515
v -6.813110 0.997645 -0.373223
v -6.813110 2.468692 -0.375584
v -3.929507 1.479716 -0.455173
v -6.811978 2.527389 -0.404356
v -6.813977 0.963880 -0.436180
v -6.809978 0.963880 -0.372531
v -5.756651 0.963879 -0.436180
v -5.754652 2.527390 -0.404355
v -5.752651 0.963880 -0.372531
v -4.697326 2.527388 -0.404356
v -4.695327 0.963880 -0.372531
v -4.699326 0.963880 -0.436180
v -6.935355 0.922812 -0.542643
v -4.626838 0.932172 -0.354933
v -6.935355 0.932412 -0.306005
v -0.979757 2.557059 -0.277515
v -3.655377 1.484915 -0.459634
v -0.979757 0.909278 -0.291578
v -0.956408 0.966213 -0.309872
v -3.187994 2.468692 -0.375584
v -3.187995 0.997645 -0.373223
v -3.186861 2.527390 -0.404356
v -3.188861 0.963879 -0.436180
v -3.184861 0.963879 -0.372531
v -2.131537 0.963880 -0.436180
v -2.127536 0.963879 -0.372531
v -2.129537 2.527390 -0.404356
v -1.074210 0.963880 -0.436180
v -1.072210 2.527389 -0.404356
v -1.070211 0.963880 -0.372531
v -0.948832 0.932412 -0.542643
v -3.257349 0.932172 -0.354933
v -0.948832 0.922812 -0.306004
v 2.668707 0.966213 -0.309872
v 0.345800 0.909278 -0.277515
v 0.345800 2.557059 -0.291578
v 2.554039 0.997645 -0.375584
v 0.322452 0.966319 -0.309907
v 2.554039 2.468692 -0.373223
v 0.438254 2.527389 -0.404356
v 0.436255 0.963880 -0.436180
v 0.440254 0.963880 -0.372531
v 1.495579 2.527389 -0.404356
v 1.493580 0.963880 -0.436180
v 1.497579 0.963880 -0.372531
v 2.552906 2.527390 -0.404355
v 2.554906 0.963880 -0.372531
v 2.550905 0.963879 -0.436180
v 2.676283 0.932412 -0.542643
v 0.367766 0.932172 -0.354933
v 2.676283 0.922812 -0.306004
v -3.772682 2.437397 -0.409064
v -2.943164 0.218227 -0.316033
v -4.638933 0.218228 -0.302981
v -3.809412 0.309511 -0.409064
v -4.547894 2.439377 -0.400770
v -3.034200 2.439377 -0.397957
v -3.789017 2.441655 -0.458566
v -3.791047 0.291732 -0.429316
v -3.793078 2.441654 -0.400066
v -3.911884 1.505750 -0.489221
v -3.914014 1.077239 -0.523399
v -3.909755 1.077239 -0.455042
v -3.670210 1.505750 -0.489221
v -3.672340 1.077239 -0.523399
v -3.668081 1.077239 -0.455042
v 3.157091 0.372706 -0.244214
v -7.663374 0.365747 -0.499205
v 3.152559 0.548137 -1.198091
v 3.664766 3.492953 -0.844154
v -7.684903 2.955490 -1.596129
v -7.684903 2.973115 -0.001326
v -7.225340 0.370308 -1.137688
v -7.081345 2.921238 -1.192191
v -7.247493 2.921238 -1.203991
v 2.899397 2.921238 -1.115723
v 2.966268 0.370308 -1.258493
v 2.911297 2.921238 -1.280459
v -7.564577 2.558991 5.672490
v -7.461320 1.145949 6.504099
v -7.471704 1.145949 4.877764
v -7.492090 1.219639 6.554555
v -7.558296 1.250828 4.941003
v -7.555984 2.519494 4.941003
v -7.619447 1.217200 6.441721
v -7.587349 2.578054 6.439737
v -7.555252 1.217200 6.437755
v -7.587349 2.578054 5.690931
v -7.555252 1.217200 5.688949
v -7.619447 1.217200 5.692914
v -7.587349 2.578054 4.942124
v -7.619447 1.217200 4.944108
v -7.555252 1.217200 4.940142
v -7.727915 1.176262 6.562125
v -7.487060 1.185602 6.562125
v -7.541345 1.185910 4.872236
v -7.471704 1.145949 0.484764
v -7.461319 1.145949 2.111100
v -7.564577 2.558991 1.279490
v -7.555984 2.519493 0.548003
v -7.492090 1.219639 2.161555
v -7.558296 1.250827 0.548004
v -7.619447 1.217200 2.048721
v -7.587348 2.578053 2.046737
v -7.555252 1.217200 2.044755
v -7.619447 1.217200 1.299914
v -7.587348 2.578053 1.297931
v -7.555252 1.217200 1.295949
v -7.619447 1.217200 0.551108
v -7.587348 2.578053 0.549125
v -7.555252 1.217199 0.547142
v -7.487061 1.176262 0.426738
v -7.541499 1.185926 2.116627
v -7.727914 1.185601 0.426738
v 3.305506 2.558991 1.316373
v 3.212632 1.145950 2.111104
v 3.202248 1.145951 0.484759
v 3.299224 2.519493 0.548003
v 3.228429 1.221463 2.156555
v 3.296912 1.250827 0.548004
v 3.360374 1.217199 0.547142
v 3.296180 1.217200 0.551108
v 3.328278 2.578053 0.549125
v 3.328278 2.578053 1.297931
v 3.360374 1.217200 1.295949
v 3.296180 1.217200 1.299914
v 3.360374 1.217200 2.044755
v 3.328278 2.578052 2.046737
v 3.296180 1.217200 2.048721
v 3.282273 1.185910 2.116627
v 3.227991 1.185601 0.426738
v 3.468844 1.176262 0.426738
v 3.212632 1.145950 6.504104
v 3.202248 1.145951 4.877759
v 3.305506 2.558991 5.709373
v 3.299223 2.519494 4.941003
v 3.296912 1.250828 4.941003
v 3.228429 1.221463 6.549554
v 3.328277 2.578053 4.942124
v 3.296180 1.217200 4.944108
v 3.360374 1.217200 4.940142
v 3.360374 1.217200 5.688949
v 3.296180 1.217200 5.692914
v 3.328277 2.578053 5.690931
v 3.360374 1.217200 6.437755
v 3.328277 2.578053 6.439737
v 3.296180 1.217200 6.441721
v 3.227990 1.176262 6.562125
v 3.282427 1.185926 4.872236
v 3.468844 1.185602 6.562125
v -7.291378 0.173774 7.360136
v -7.260046 3.184549 7.328323
v -7.231432 0.185231 7.294170
v 3.009629 0.160197 7.331879
v 3.041183 3.158597 7.294758
v 2.979761 3.171926 7.358089
v -1.731820 2.346203 7.377341
v -2.549081 0.519274 7.323247
v -1.709989 0.519275 7.313430
v -1.153146 1.383588 7.236169
v -1.494728 1.890227 7.400578
v -1.494763 1.383588 7.400507
v -9.681860 0.729628 -9.702440
v -4.651510 0.735088 -9.469410
v -4.651510 0.076456 -9.700042
v 10.000000 0.081523 -9.829835
v 2.507088 0.735088 -9.700042
v 2.507088 0.076456 -9.469410
v -9.805494 1.185558 -7.837510
v -9.356918 0.081925 -4.143397
v -9.805406 1.185595 -4.143397
v -9.805406 1.185596 -0.149761
v -9.356918 0.081926 -0.149761
v -9.356918 1.185596 0.149761
v -9.805406 0.081926 0.149761
v -9.805406 0.081926 4.143397
v -9.356918 1.185596 4.143397
v -9.805494 0.081963 7.837510
v 4.097143 0.145081 -0.271673
v 9.345465 0.081019 8.236874
v 9.366571 0.159825 -0.271674
v 9.354183 3.503086 1.402266
v 3.355969 1.226023 1.279961
v 6.743741 4.328525 7.636705
v 8.489093 3.162954 1.607438
v 3.355969 2.554431 4.924154
v 4.190731 3.573828 1.394225
v 4.113722 3.580217 7.632076
v 4.050878 3.576343 1.373073
v 9.427009 3.573828 1.394225
v 9.349996 3.580217 7.632077
v 9.287156 3.576343 1.373073
v 6.650596 4.388100 1.365216
v 6.731857 4.393114 7.645558
v 6.831453 4.384964 1.392782
v 4.070121 3.559629 1.427291
v 6.732121 4.384364 1.319813
v 6.733781 4.376907 1.476132
v 6.732993 4.382782 1.321090
v 6.736765 4.380005 1.321172
v 6.734272 4.383202 1.474299
v 6.718573 4.371431 1.473341
v 9.396591 3.561728 1.389827
v 4.070123 3.559630 7.617425
v 6.732121 4.384365 7.509949
v 6.734271 4.383202 7.664434
v 6.733780 4.376908 7.666267
v 6.718573 4.371430 7.663477
v 6.736551 4.384027 7.502814
v 6.732992 4.382782 7.511226
v 6.735135 4.379684 7.513522
v 9.396590 3.561730 7.579966
v 4.959487 0.320664 1.571185
v 9.143408 0.232042 1.597454
v 4.959487 3.176071 1.563819
v 4.994534 3.169667 1.516067
v 5.019997 0.315274 1.517583
v 5.045461 3.169667 1.519098
v 5.322091 0.315274 1.517583
v 5.347553 3.169667 1.519098
v 5.296627 3.169667 1.516067
v 5.624184 0.315274 1.517583
v 5.598721 3.169667 1.516067
v 5.649647 3.169667 1.519098
v 5.926276 0.315274 1.517583
v 5.900814 3.169667 1.516067
v 5.951740 3.169667 1.519098
v 6.202906 3.169667 1.516067
v 6.253832 3.169667 1.519098
v 6.228370 0.315274 1.517583
v 6.555926 3.169667 1.519098
v 6.504999 3.169667 1.516067
v 6.530461 0.315274 1.517583
v 6.807092 3.169667 1.516067
v 6.858018 3.169667 1.519098
v 6.832556 0.315274 1.517583
v 7.160112 3.169667 1.519098
v 7.134648 0.315274 1.517583
v 7.109185 3.169667 1.516067
v 7.462205 3.169667 1.519098
v 7.411279 3.169667 1.516067
v 7.436741 0.315274 1.517583
v 7.713371 3.169667 1.516067
v 7.738835 0.315274 1.517583
v 7.764297 3.169667 1.519098
v 8.040927 0.315274 1.517583
v 8.015464 3.169667 1.516067
v 8.066391 3.169667 1.519098
v 8.317556 3.169667 1.516067
v 8.343020 0.315275 1.517583
v 8.368483 3.169667 1.519098
v 5.907296 0.500401 -2.163901
v 6.686108 0.625864 -5.343984
v 7.153632 0.483401 -2.163902
v 7.176232 0.935695 -1.905204
v 5.884666 0.677120 -1.905270
v 6.686144 0.753028 -5.343984
v 5.857758 1.140246 -2.124801
v 6.204403 1.053886 -5.283591
v 7.240592 1.141317 -3.646654
v 7.190644 1.133013 -3.642927
v 7.095820 1.853813 -3.644193
v 7.287709 1.069469 -2.570542
v 7.288526 1.091348 -2.722055
v 7.286890 1.047594 -2.722056
v 7.287709 1.069469 -4.657216
v 7.288526 1.091347 -4.808729
v 7.286891 1.047594 -4.808730
v 7.210171 1.170798 -2.431126
v 7.479461 1.226769 -2.394901
v 7.479461 1.236421 -2.587159
v 5.820103 1.141428 -3.642927
v 5.962724 1.854212 -3.644193
v 5.870028 1.132982 -3.646654
v 5.773216 1.069470 -2.570542
v 5.774033 1.091347 -2.722056
v 5.772399 1.047594 -2.722056
v 5.773216 1.069470 -4.657217
v 5.772400 1.047594 -4.808730
v 5.774033 1.091347 -4.808730
v 5.807880 1.226768 -2.394900
v 5.807880 1.236421 -2.587160
v 5.599009 1.174630 -2.565870
v 7.341581 0.410839 -2.888397
v 7.341581 0.724956 -2.578890
v 7.149251 0.290632 -2.292943
v 7.357606 0.414377 -2.814380
v 7.361218 0.205449 -2.524664
v 7.364830 0.533402 -2.376694
v 7.319764 0.439392 -2.593739
v 7.352857 0.587438 -2.578107
v 7.329423 0.405572 -2.579136
v 7.377129 0.415064 -2.579134
v 7.331268 0.420837 -2.579586
v 7.329447 0.415943 -2.579666
v 7.374588 0.452400 -2.737482
v 7.332133 0.472735 -2.730992
v 7.352315 0.407197 -2.566278
v 7.368078 0.403795 -2.590646
v 7.353468 0.267500 -2.680536
v 7.380181 0.410149 -2.578364
v 7.377774 0.410401 -2.579399
v 7.373785 0.409863 -2.577379
v 7.376877 0.407173 -2.582474
v 7.352092 0.427102 -2.556835
v 7.354140 0.267935 -2.476586
v 7.352314 0.406263 -2.591204
v 7.374588 0.471822 -2.426518
v 7.332133 0.451499 -2.419991
v 5.911674 0.410839 -2.888397
v 5.719344 0.290632 -2.292943
v 5.911674 0.724956 -2.578890
v 5.703319 0.407301 -2.814380
v 5.699707 0.616230 -2.524664
v 5.696095 0.288276 -2.376694
v 5.703256 0.417097 -2.585083
v 5.729389 0.411241 -2.577693
v 5.694083 0.421721 -2.587751
v 5.737998 0.408276 -2.578359
v 5.730382 0.411351 -2.578127
v 5.694696 0.406408 -2.582722
v 5.708672 0.432774 -2.569179
v 5.707765 0.466359 -2.744119
v 5.705834 0.387429 -2.583716
v 5.717568 0.265090 -2.681539
v 5.729664 0.280502 -2.667386
v 5.695227 0.419066 -2.597692
v 5.703103 0.398258 -2.598653
v 5.680971 0.412498 -2.577298
v 5.695065 0.398482 -2.573880
v 5.705838 0.432656 -2.588545
v 5.708672 0.387299 -2.574045
v 5.707764 0.464487 -2.413062
v 7.341581 0.410839 -4.919161
v 7.341581 0.724955 -4.609654
v 7.149251 0.290632 -4.323707
v 7.357605 0.414377 -4.845144
v 7.361218 0.205449 -4.555428
v 7.364830 0.533401 -4.407457
v 7.370672 0.407901 -4.611319
v 7.366057 0.414059 -4.605196
v 7.373919 0.407227 -4.604480
v 7.368017 0.369736 -4.583447
v 7.334814 0.413379 -4.593454
v 7.360855 0.587453 -4.611542
v 7.330651 0.406783 -4.608251
v 7.331268 0.420836 -4.610350
v 7.329447 0.415943 -4.610430
v 7.352315 0.407197 -4.597042
v 7.374588 0.452400 -4.768246
v 7.332133 0.472735 -4.761756
v 7.361610 0.401422 -4.623166
v 7.353850 0.267564 -4.711466
v 7.358395 0.387840 -4.626930
v 7.352314 0.406262 -4.621967
v 7.374588 0.471821 -4.457280
v 7.332133 0.451499 -4.450754
v 5.873639 0.356508 -4.999468
v 5.719344 0.290632 -4.323707
v 5.911674 0.724955 -4.609654
v 5.703320 0.407301 -4.845144
v 5.696095 0.288277 -4.407457
v 5.699707 0.616229 -4.555428
v 5.729389 0.411241 -4.608457
v 5.694085 0.421718 -4.618514
v 5.737998 0.408275 -4.609123
v 5.730382 0.411350 -4.608891
v 5.694696 0.406409 -4.613487
v 5.708672 0.432774 -4.599941
v 5.705835 0.387429 -4.614479
v 5.707766 0.466359 -4.774883
v 5.729664 0.280502 -4.698150
v 5.695227 0.419066 -4.628456
v 5.703104 0.398257 -4.629420
v 5.680972 0.412499 -4.608062
v 5.712659 0.420377 -4.582297
v 5.695065 0.398483 -4.604646
v 5.708671 0.387299 -4.604808
v 5.707764 0.464487 -4.443826
v 5.705834 0.432657 -4.619307
v 7.188447 0.927608 -1.877009
v 6.837057 1.015059 -1.878407
v 6.837057 0.840162 -1.875610
v 7.137483 0.880503 -5.312939
v 7.137482 1.065916 -5.310135
v 6.856522 0.892531 -5.283591
v 6.223868 1.015060 -1.875610
v 6.223868 0.840162 -1.878408
v 5.872476 0.927608 -1.877009
v 6.213480 1.065916 -5.310135
v 5.879436 0.973207 -5.311536
v 6.213481 0.880503 -5.312939
v 6.835901 0.735118 -1.859619
v 6.190825 0.674291 -1.862034
v 6.835901 0.613465 -1.864447
v 6.369791 0.756468 -5.332554
v 6.733507 0.689490 -5.331504
v 6.369790 0.622513 -5.330454
v 6.194038 0.744114 -1.848917
v 6.873108 0.757887 -1.850052
v 6.194038 0.771661 -1.851186
v 6.194038 0.832458 -1.851186
v 6.873108 0.818684 -1.850052
v 6.194038 0.804910 -1.848917
v 6.873108 0.879481 -1.850052
v 6.194038 0.878329 -1.863623
v 6.194038 0.880632 -1.836480
v -4.978239 0.169510 -7.108794
v -8.169899 0.244002 -5.688361
v -4.978239 0.155662 -3.873705
v -8.057672 0.651791 -6.675043
v -7.873008 0.646941 -6.305887
v -7.871918 0.238581 -6.321222
v -7.066337 0.238581 -6.321222
v -7.252087 0.651786 -6.675047
v -7.067434 0.646936 -6.305884
v -6.149826 0.195005 -6.498260
v -6.564601 0.190156 -6.472247
v -6.162675 0.603362 -6.489658
v -5.455174 0.238581 -6.321222
v -5.640926 0.651790 -6.675045
v -5.456273 0.646936 -6.305883
v -7.871918 0.238581 -5.522495
v -8.057670 0.651791 -5.876318
v -7.873008 0.646944 -5.507160
v -7.066337 0.238581 -5.522495
v -7.067434 0.646939 -5.507156
v -7.252085 0.651785 -5.876322
v -6.149825 0.195004 -5.699535
v -6.162675 0.603362 -5.690931
v -6.564601 0.190156 -5.673518
v -5.455174 0.238581 -5.522495
v -5.456273 0.646939 -5.507155
v -5.640924 0.651789 -5.876320
v -7.871918 0.238581 -4.723768
v -7.873008 0.646945 -4.708433
v -8.057670 0.651793 -5.077591
v -7.066337 0.238581 -4.723768
v -7.067434 0.646939 -4.708429
v -7.252085 0.651787 -5.077595
v -6.260756 0.238581 -4.723768
v -6.261854 0.646940 -4.708428
v -6.446501 0.651788 -5.077594
v -5.455174 0.238581 -4.723768
v -5.456273 0.646939 -4.708429
v -5.640924 0.651791 -5.077593
v -4.088553 1.352762 -9.398011
v -4.037979 0.076456 -9.555591
v -3.594237 1.352757 -9.372076
v -4.042791 1.286996 -9.558092
v -3.644814 1.292391 -9.555591
v -3.650070 1.064060 -9.655286
v -2.129329 5.643251 -0.924996
v -2.128532 5.641992 7.757350
v -2.129330 5.643252 7.761161
v 7.378677 0.414614 -4.610464
v 4.110863 3.571398 7.523085
v 6.736765 4.380005 7.511308
v 5.727795 0.411965 -4.608128
v 7.375064 0.285145 -4.514862
v 6.757345 4.378216 7.544019
v 7.332540 0.410727 -2.577103
v 7.375661 0.408791 -2.575017
v 5.703257 0.417096 -4.615847
v 5.733278 0.412787 -4.606367
v 5.717568 0.265090 -4.712303
v 6.757357 4.378221 1.353870
v 5.727795 0.411965 -2.577364
v 5.712658 0.420376 -2.551533
v 4.110862 3.571398 1.332949
v 6.735135 4.379684 1.323386
v 6.736551 4.384027 1.312680
v 7.332540 0.410726 -4.607867
v 5.733278 0.412787 -2.575603
vn 0.0671 0.9971 0.0372
vn -0.9678 0.2277 -0.1072
vn -0.7131 0.0859 0.6958
vn 0.0165 -0.8214 -0.5702
vn 0.5527 0.4168 -0.7217
vn 0.8569 0.2166 -0.4677
vn -0.3459 0.0748 0.9353
vn 0.0039 -1.0000 0.0006
vn -0.0000 -0.0000 -0.0000
vn -1.0000 -0.0000 -0.0000
vn -0.0933 0.9956 -0.0000
vn -0.1240 0.9923 -0.0000
vn -0.0000 1.0000 -0.0000
vn -0.3951 0.7567 0.5209
vn 0.6096 0.6878 0.3940
vn 0.1703 0.9726 -0.1582
vn 0.8489 0.3793 -0.3681
vn 0.6039 -0.3448 -0.7186
vn 0.3341 -0.9425 -0.0062
vn 0.1956 -0.5507 -0.8115
vn 0.4547 0.6898 0.5634
vn -0.2905 0.7960 0.5311
vn 0.3290 -0.9258 -0.1862
vn 0.1956 -0.5509 -0.8114
vn 0.8346 0.3236 -0.4459
vn 0.0697 0.9815 0.1785
vn 0.5109 -0.3931 -0.7645
vn 0.1333 0.9911 -0.0000
vn 0.1068 0.9943 -0.0000
vn 0.0943 0.9955 -0.0000
vn -0.0000 -0.0000 1.0000
vn 0.0897 0.2783 -0.9563
vn 0.3400 0.9404 -0.0000
vn 0.0607 0.2296 -0.9714
vn 0.0995 -0.9950 -0.0000
vn 0.1644 -0.9864 -0.0000
vn -0.0000 -0.0000 -1.0000
vn -0.0000 0.0685 0.9977
vn -0.0000 0.0677 0.9977
vn -0.0000 0.0684 0.9977
vn 0.9997 -0.0000 0.0261
vn 0.9997 -0.0000 0.0263
vn -0.0000 -0.0054 -1.0000
vn -0.0000 -0.0060 -1.0000
vn -0.0000 -0.0056 -1.0000
vn 0.3350 -0.0065 -0.9422
vn 0.4363 -0.0060 -0.8998
vn 0.3714 -0.0065 -0.9285
vn -1.0000 -0.0000 -0.0059
vn -1.0000 -0.0000 -0.0058
vn -1.0000 -0.0000 -0.0057
vn 0.4150 0.0608 -0.9078
vn 0.5306 0.0580 -0.8456
vn 0.4578 0.0590 -0.8871
vn -0.1240 -0.9923 -0.0000
vn -0.2425 -0.9701 -0.0000
vn -0.0000 -1.0000 -0.0000
vn -0.9264 -0.3765 -0.0000
vn -0.9264 0.3765 -0.0000
vn 1.0000 -0.0000 -0.0000
vn 0.3433 -0.9388 0.0303
vn 0.0880 -0.2866 -0.9540
vn -0.2576 0.9660 0.0239
vn 0.7224 0.6914 -0.0079
vn 0.3090 -0.9504 -0.0348
vn 0.7313 -0.6814 -0.0288
vn -0.2616 -0.8130 0.5202
vn 0.0766 0.9937 0.0813
vn -0.4521 -0.8853 -0.1088
vn 0.1632 0.4381 0.8840
vn -0.2656 -0.9601 0.0872
vn 0.2953 0.9553 0.0171
vn 0.3432 -0.9388 0.0303
vn 0.0879 -0.2865 -0.9540
vn -0.2573 0.9660 0.0239
vn 0.3091 -0.9504 -0.0348
vn 0.1632 0.4382 0.8839
vn -0.2656 -0.9602 0.0869
vn 0.2953 0.9553 0.0170
vn 0.0768 0.9937 0.0814
vn -0.4518 -0.8855 -0.1088
vn -0.8944 0.4472 -0.0000
vn -0.1090 0.0272 0.9937
vn 0.9997 0.0204 -0.0134
vn -0.0000 -0.9988 0.0480
vn -0.0000 -0.0325 0.9995
vn -0.0000 -0.0318 0.9995
vn 0.0186 -0.0012 -0.9998
vn -0.0000 -0.0022 -1.0000
vn 0.0186 -0.0017 -0.9998
vn -0.0030 -0.9988 -0.0482
vn -0.0030 -0.9954 -0.0954
vn -0.0041 -0.9978 -0.0659
vn -0.0000 -0.0041 -1.0000
vn -0.0000 -0.0043 -1.0000
vn -0.7069 -0.7069 -0.0221
vn -0.8941 -0.4470 -0.0279
vn -0.0000 -0.4472 -0.8944
vn -0.0000 -0.2425 -0.9701
vn 0.3045 0.0498 -0.9512
vn 0.0751 -0.3771 -0.9231
vn 0.9605 0.0562 0.2724
vn 0.4301 -0.6356 -0.6411
vn 0.6309 -0.0769 -0.7720
vn -0.9472 -0.2799 0.1565
vn -0.4558 0.4424 -0.7723
vn -0.8099 0.2395 0.5354
vn -0.9374 0.0303 -0.3469
vn 0.0105 -0.8385 0.5448
vn 0.0250 -0.5889 0.8078
vn 0.3726 0.0044 -0.9280
vn 0.8026 0.2544 0.5395
vn -0.1559 0.4431 0.8828
vn -0.1899 0.0317 0.9813
vn -0.1827 0.0457 0.9821
vn -0.1710 0.0641 0.9832
vn 0.4597 0.7644 -0.4520
vn 0.2096 0.3123 0.9266
vn -0.1650 0.9053 -0.3915
vn 0.3528 -0.9276 0.1228
vn 0.3574 -0.8638 0.3552
vn -0.2277 -0.7520 0.6186
vn -0.4659 -0.5050 0.7266
vn 0.3936 0.9037 -0.1683
vn -0.9542 0.2982 0.0224
vn -0.9624 0.2707 0.0226
vn -0.9158 0.4007 0.0286
vn 0.6039 0.5938 -0.5316
vn 0.4383 -0.1951 0.8774
vn -0.3923 -0.3876 0.8342
vn -0.0763 -0.0054 -0.9971
vn 0.0558 -0.9177 0.3934
vn 0.6542 -0.5169 0.5521
vn 0.0145 -0.8162 -0.5776
vn 0.8949 0.1831 -0.4069
vn -0.9742 0.2034 0.0980
vn 0.3250 0.5305 -0.7829
vn -0.0752 0.1142 0.9906
vn -0.9792 0.1595 0.1252
vn -0.9073 -0.3373 0.2511
vn -0.6104 0.3716 -0.6995
vn -0.2391 0.3120 0.9195
vn -0.6466 -0.1518 0.7475
vn -0.6956 -0.3637 0.6196
vn 0.0170 0.9516 -0.3068
vn -0.6326 -0.7546 -0.1742
vn -0.0476 0.4383 0.8976
vn 0.3527 -0.9276 0.1229
vn -0.0000 0.0311 0.9995
vn -0.0000 0.0305 0.9995
vn -0.0000 0.0314 0.9995
vn -0.4658 -0.5050 0.7267
vn 0.3935 0.9038 -0.1684
vn -0.0000 0.4692 0.8831
vn -0.0000 0.3382 0.9411
vn -0.1536 0.9881 -0.0000
vn -0.1526 0.9883 -0.0000
vn -0.1503 0.9886 -0.0000
vn -0.0000 -0.3118 -0.9502
vn -0.0000 -0.4359 -0.9000
vn -0.0000 0.9985 -0.0545
vn -0.0000 0.9987 -0.0519
vn -0.0000 0.9985 -0.0544
vn 0.0093 -0.9888 -0.1492
vn -0.0000 -0.9929 -0.1186
vn -0.0000 -0.9925 -0.1222
vn -0.0001 0.9383 0.3457
vn -0.0001 0.9333 0.3590
vn -0.0001 0.9266 0.3760
vn 0.8825 0.0958 0.4604
vn 0.0292 0.8247 -0.5648
vn 0.0293 0.8245 -0.5651
vn 0.0294 0.8245 -0.5651
vn 0.1084 -0.2964 -0.9489
vn -0.9877 -0.1553 -0.0192
vn -0.9217 -0.2508 -0.2960
vn -0.0003 0.0001 -1.0000
vn -0.0011 -0.0001 -1.0000
vn 0.0003 -0.0001 -1.0000
vn -0.0791 0.7561 -0.6497
vn -0.0678 0.6483 -0.7583
vt 0.959280 0.549201
vt 0.959348 0.550982
vt 0.959302 0.551059
vt 0.945010 0.608087
vt 0.946385 0.606980
vt 0.946490 0.607022
vt 0.959565 0.250957
vt 0.959623 0.252828
vt 0.959588 0.252815
vt 0.005087 0.240871
vt 0.122969 0.005078
vt 0.240852 0.240854
vt 0.250955 0.483246
vt 0.367059 0.250983
vt 0.483166 0.483248
vt 0.005054 0.483230
vt 0.121195 0.250997
vt 0.237321 0.483234
vt 0.496772 0.134714
vt 0.543895 0.005076
vt 0.591020 0.134709
vt 0.493236 0.526320
vt 0.540359 0.396683
vt 0.587485 0.526316
vt 0.005071 0.617132
vt 0.049250 0.493379
vt 0.093455 0.617119
vt 0.103583 0.617132
vt 0.147762 0.493379
vt 0.191967 0.617119
vt 0.727833 0.137509
vt 0.728705 0.137479
vt 0.728365 0.240010
vt 0.728928 0.396694
vt 0.729757 0.396659
vt 0.729248 0.499183
vt 0.729710 0.634911
vt 0.728745 0.634915
vt 0.729200 0.534956
vt 0.727056 0.251010
vt 0.727928 0.250980
vt 0.727481 0.353509
vt 0.142146 0.727266
vt 0.140898 0.727274
vt 0.141478 0.627311
vt 0.717136 0.534942
vt 0.718266 0.534911
vt 0.717689 0.637440
vt 0.774459 0.467826
vt 0.773902 0.467786
vt 0.773813 0.396691
vt 0.761089 0.072890
vt 0.761222 0.005123
vt 0.762117 0.005035
vt 0.642626 0.960379
vt 0.641710 0.960740
vt 0.642522 0.959194
vt 0.752312 0.467797
vt 0.751745 0.467831
vt 0.751659 0.396673
vt 0.774459 0.396640
vt 0.752439 0.606045
vt 0.751872 0.606078
vt 0.751785 0.534921
vt 0.774008 0.208642
vt 0.773361 0.137507
vt 0.774008 0.137456
vt 0.761389 0.318813
vt 0.761526 0.251046
vt 0.762421 0.250958
vt 0.373180 0.960310
vt 0.372265 0.960671
vt 0.373076 0.959125
vt 0.773450 0.208601
vt 0.542716 0.822946
vt 0.542210 0.822920
vt 0.542498 0.751953
vt 0.684835 0.780187
vt 0.684340 0.780192
vt 0.684597 0.708634
vt 0.025857 0.883763
vt 0.025494 0.816225
vt 0.026208 0.816206
vt 0.629625 0.868593
vt 0.629247 0.800933
vt 0.629967 0.800953
vt 0.777567 0.716606
vt 0.777072 0.716612
vt 0.777329 0.645054
vt 0.827665 0.467665
vt 0.827159 0.467639
vt 0.827447 0.396672
vt 0.102331 0.879092
vt 0.101968 0.811554
vt 0.102682 0.811535
vt 0.869986 0.072720
vt 0.869608 0.005060
vt 0.870328 0.005079
vt 0.372499 0.794722
vt 0.372003 0.794727
vt 0.372261 0.723168
vt 0.202597 0.820090
vt 0.202090 0.820064
vt 0.202378 0.749097
vt 0.863426 0.712711
vt 0.863048 0.645051
vt 0.863768 0.645071
vt 0.141221 0.886167
vt 0.140858 0.818629
vt 0.141572 0.818610
vt 0.817044 0.605913
vt 0.816537 0.605887
vt 0.816825 0.534920
vt 0.784127 0.076615
vt 0.783632 0.076620
vt 0.783889 0.005062
vt 0.152830 0.883757
vt 0.152467 0.816219
vt 0.153181 0.816200
vt 0.870290 0.318643
vt 0.869912 0.250983
vt 0.870633 0.251003
vt 0.553367 0.822945
vt 0.552860 0.822920
vt 0.553148 0.751953
vt 0.784431 0.322539
vt 0.783936 0.322544
vt 0.784193 0.250986
vt 0.881826 0.464249
vt 0.881462 0.396711
vt 0.882177 0.396692
vt 0.870474 0.205142
vt 0.870096 0.137482
vt 0.870816 0.137502
vt 0.795744 0.606470
vt 0.795250 0.606475
vt 0.795507 0.534917
vt 0.251493 0.822972
vt 0.250986 0.822946
vt 0.251274 0.751979
vt 0.175940 0.887044
vt 0.175577 0.819506
vt 0.176292 0.819487
vt 0.870925 0.464327
vt 0.870546 0.396666
vt 0.871267 0.396686
vt 0.794777 0.076615
vt 0.794282 0.076620
vt 0.794539 0.005062
vt 0.262143 0.822972
vt 0.261637 0.822946
vt 0.261925 0.751979
vt 0.881852 0.602497
vt 0.881489 0.534959
vt 0.882204 0.534940
vt 0.870952 0.602574
vt 0.870573 0.534914
vt 0.871294 0.534934
vt 0.795081 0.322539
vt 0.794586 0.322544
vt 0.794844 0.250986
vt 0.213247 0.820090
vt 0.212741 0.820064
vt 0.213029 0.749097
vt 0.881191 0.318566
vt 0.880828 0.251028
vt 0.881542 0.251009
vt 0.863427 0.794392
vt 0.863049 0.726732
vt 0.863769 0.726752
vt 0.827694 0.605913
vt 0.827187 0.605887
vt 0.827475 0.534920
vt 0.784615 0.209038
vt 0.784120 0.209042
vt 0.784377 0.137484
vt 0.036751 0.883301
vt 0.036388 0.815763
vt 0.037102 0.815744
vt 0.852533 0.794392
vt 0.852128 0.726733
vt 0.852848 0.726752
vt 0.795265 0.209038
vt 0.794770 0.209042
vt 0.795027 0.137484
vt 0.591695 0.824929
vt 0.591189 0.824904
vt 0.591477 0.753937
vt 0.881375 0.205065
vt 0.881012 0.137527
vt 0.881726 0.137508
vt 0.852532 0.712711
vt 0.852127 0.645051
vt 0.852848 0.645071
vt 0.774444 0.606470
vt 0.773949 0.606475
vt 0.774207 0.534917
vt 0.300476 0.822570
vt 0.299969 0.822545
vt 0.300257 0.751577
vt 0.674055 0.857973
vt 0.673649 0.790313
vt 0.674370 0.790332
vt 0.717459 0.879980
vt 0.717096 0.812442
vt 0.717811 0.812423
vt 0.785066 0.468222
vt 0.784571 0.468227
vt 0.784829 0.396669
vt 0.602346 0.824930
vt 0.601839 0.824904
vt 0.602127 0.753937
vt 0.618704 0.868593
vt 0.618326 0.800933
vt 0.619047 0.800953
vt 0.091437 0.879092
vt 0.091074 0.811554
vt 0.091788 0.811535
vt 0.404328 0.879103
vt 0.403942 0.811492
vt 0.404648 0.811471
vt 0.504544 0.827200
vt 0.504160 0.759477
vt 0.504887 0.759516
vt 0.852506 0.872229
vt 0.852128 0.804569
vt 0.852848 0.804588
vt 0.186835 0.887044
vt 0.186472 0.819506
vt 0.187186 0.819487
vt 0.809365 0.875562
vt 0.808978 0.807950
vt 0.809685 0.807930
vt 0.848608 0.205208
vt 0.848253 0.137484
vt 0.848979 0.137524
vt 0.047645 0.883301
vt 0.047282 0.815763
vt 0.047996 0.815744
vt 0.859370 0.318643
vt 0.858991 0.250983
vt 0.859712 0.251003
vt 0.231711 0.828512
vt 0.231327 0.760789
vt 0.232054 0.760829
vt 0.777413 0.876024
vt 0.777027 0.808412
vt 0.777733 0.808392
vt 0.859065 0.072720
vt 0.858687 0.005060
vt 0.859407 0.005079
vt 0.696972 0.880517
vt 0.696609 0.812979
vt 0.697323 0.812960
vt 0.849059 0.464393
vt 0.848703 0.396669
vt 0.849430 0.396709
vt 0.863431 0.872224
vt 0.863044 0.804613
vt 0.863750 0.804592
vt 0.129385 0.884641
vt 0.129022 0.817103
vt 0.129736 0.817084
vt 0.859553 0.205142
vt 0.859175 0.137482
vt 0.859895 0.137502
vt 0.830638 0.712777
vt 0.830282 0.645053
vt 0.831009 0.645093
vt 0.788307 0.876024
vt 0.787921 0.808412
vt 0.788627 0.808392
vt 0.860031 0.602574
vt 0.859653 0.534914
vt 0.860373 0.534934
vt 0.885195 0.872152
vt 0.884832 0.804613
vt 0.885546 0.804594
vt 0.441136 0.877293
vt 0.440749 0.809682
vt 0.441456 0.809662
vt 0.838136 0.464393
vt 0.837781 0.396669
vt 0.838508 0.396709
vt 0.753154 0.863423
vt 0.752776 0.795763
vt 0.753496 0.795783
vt 0.885221 0.712634
vt 0.884858 0.645096
vt 0.885572 0.645077
vt 0.452030 0.877293
vt 0.451644 0.809682
vt 0.452350 0.809661
vt 0.838165 0.602640
vt 0.837810 0.534917
vt 0.838536 0.534957
vt 0.849137 0.602574
vt 0.848732 0.534914
vt 0.849452 0.534934
vt 0.880887 0.072643
vt 0.880524 0.005105
vt 0.881238 0.005086
vt 0.063909 0.829145
vt 0.063403 0.829120
vt 0.063691 0.758153
vt 0.629511 0.790807
vt 0.629016 0.790812
vt 0.629274 0.719254
vt 0.684975 0.857973
vt 0.684570 0.790313
vt 0.685291 0.790333
vt 0.117777 0.887056
vt 0.117414 0.819518
vt 0.118128 0.819499
vt 0.841561 0.794458
vt 0.841206 0.726735
vt 0.841932 0.726775
vt 0.830665 0.872254
vt 0.830278 0.804643
vt 0.830984 0.804623
vt 0.885222 0.794315
vt 0.884858 0.726777
vt 0.885573 0.726758
vt 0.860004 0.464327
vt 0.859625 0.396666
vt 0.860346 0.396686
vt 0.450167 0.691844
vt 0.459465 0.717859
vt 0.440781 0.717867
vt 0.318668 0.680353
vt 0.309311 0.706572
vt 0.300005 0.680353
vt 0.550749 0.717241
vt 0.559242 0.741816
vt 0.542209 0.741813
vt 0.510330 0.724946
vt 0.501781 0.749336
vt 0.493317 0.724954
vt 0.924694 0.221467
vt 0.924963 0.239322
vt 0.924423 0.239331
vt 0.924695 0.165483
vt 0.924967 0.183338
vt 0.924422 0.183347
vt 0.924695 0.193475
vt 0.924967 0.211330
vt 0.924422 0.211339
vt 0.928736 0.833395
vt 0.929006 0.851250
vt 0.928465 0.851259
vt 0.928030 0.299622
vt 0.928300 0.317477
vt 0.927759 0.317485
vt 0.924161 0.396675
vt 0.924433 0.414530
vt 0.923888 0.414539
vt 0.493251 0.864752
vt 0.494638 0.837357
vt 0.496037 0.864746
vt 0.591174 0.862458
vt 0.592561 0.835064
vt 0.593960 0.862453
vt 0.560909 0.680917
vt 0.551551 0.707135
vt 0.542245 0.680917
vt 0.352560 0.707769
vt 0.361858 0.733784
vt 0.343175 0.733791
vt 0.661826 0.722931
vt 0.653277 0.747322
vt 0.644813 0.722939
vt 0.259527 0.717268
vt 0.268019 0.741842
vt 0.250985 0.741839
vt 0.928396 0.089179
vt 0.928666 0.107034
vt 0.928125 0.107042
vt 0.924220 0.005069
vt 0.924493 0.022924
vt 0.923947 0.022932
vt 0.924188 0.590907
vt 0.924460 0.608762
vt 0.923915 0.608771
vt 0.928748 0.804578
vt 0.929018 0.822433
vt 0.928478 0.822441
vt 0.809257 0.910859
vt 0.809527 0.928714
vt 0.808986 0.928722
vt 0.924188 0.534923
vt 0.924460 0.552778
vt 0.923915 0.552787
vt 0.605451 0.862456
vt 0.604051 0.835066
vt 0.606838 0.835061
vt 0.507528 0.864749
vt 0.506128 0.837360
vt 0.508915 0.837354
vt 0.044486 0.698381
vt 0.035111 0.724406
vt 0.025823 0.698391
vt 0.260354 0.680943
vt 0.269670 0.707162
vt 0.250986 0.707160
vt 0.071961 0.723623
vt 0.080434 0.748007
vt 0.063402 0.748012
vt 0.608236 0.719226
vt 0.599704 0.743798
vt 0.591222 0.719225
vt 0.924188 0.562915
vt 0.924460 0.580770
vt 0.923915 0.580779
vt 0.928762 0.645060
vt 0.929032 0.662915
vt 0.928491 0.662924
vt 0.928465 0.862212
vt 0.928735 0.880067
vt 0.928194 0.880076
vt 0.924517 0.250992
vt 0.924789 0.268847
vt 0.924244 0.268856
vt 0.928763 0.726741
vt 0.929032 0.744596
vt 0.928492 0.744605
vt 0.924695 0.137491
vt 0.924967 0.155346
vt 0.924422 0.155355
vt 0.075432 0.863423
vt 0.074032 0.836033
vt 0.076819 0.836027
vt 0.646140 0.865983
vt 0.644741 0.838594
vt 0.647527 0.838589
vt 0.211642 0.677640
vt 0.221217 0.704110
vt 0.202064 0.704069
vt 0.607211 0.493713
vt 0.616860 0.520173
vt 0.597559 0.520155
vt 0.299942 0.716722
vt 0.317353 0.716754
vt 0.308646 0.741418
vt 0.202062 0.714262
vt 0.219607 0.714273
vt 0.210833 0.738949
vt 0.777031 0.886184
vt 0.777525 0.886184
vt 0.777277 0.910883
vt 0.787926 0.886184
vt 0.788417 0.886185
vt 0.788171 0.910883
vt 0.440838 0.947925
vt 0.441214 0.952557
vt 0.440452 0.952552
vt 0.128883 0.949029
vt 0.129256 0.953661
vt 0.128500 0.953656
vt 0.866680 0.379855
vt 0.867056 0.384487
vt 0.866294 0.384482
vt 0.152862 0.948972
vt 0.153235 0.953604
vt 0.152480 0.953598
vt 0.650041 0.660233
vt 0.644767 0.536451
vt 0.655293 0.536443
vt 0.674367 0.374777
vt 0.669172 0.250963
vt 0.679666 0.250966
vt 0.644742 0.526319
vt 0.654152 0.396684
vt 0.663568 0.526315
vt 0.640209 0.380635
vt 0.649619 0.251000
vt 0.659035 0.380631
vt 0.891727 0.290525
vt 0.893160 0.290544
vt 0.892439 0.319942
vt 0.891421 0.044601
vt 0.892864 0.044618
vt 0.892139 0.074018
vt 0.311458 0.864026
vt 0.312875 0.864011
vt 0.312166 0.893402
vt 0.891906 0.177057
vt 0.893334 0.177042
vt 0.892620 0.206433
vt 0.819562 0.342425
vt 0.803284 0.351860
vt 0.803285 0.333014
vt 0.809594 0.098657
vt 0.793316 0.108166
vt 0.793317 0.089149
vt 0.837023 0.332998
vt 0.844345 0.350158
vt 0.829672 0.350156
vt 0.767468 0.617604
vt 0.760142 0.634918
vt 0.752823 0.617604
vt 0.906554 0.920159
vt 0.906827 0.935654
vt 0.906280 0.935662
vt 0.928217 0.619427
vt 0.928492 0.634923
vt 0.927940 0.634932
vt 0.429883 0.919358
vt 0.430158 0.934854
vt 0.429607 0.934863
vt 0.520318 0.921656
vt 0.520591 0.937151
vt 0.520043 0.937160
vt 0.657893 0.919804
vt 0.658168 0.935300
vt 0.657617 0.935309
vt 0.403690 0.920559
vt 0.403963 0.936054
vt 0.403415 0.936063
vt 0.869921 0.633222
vt 0.871306 0.612903
vt 0.872703 0.633215
vt 0.889699 0.239018
vt 0.891084 0.218700
vt 0.892481 0.239012
vt 0.834440 0.230452
vt 0.818162 0.239887
vt 0.818163 0.221041
vt 0.755354 0.230538
vt 0.739077 0.240047
vt 0.739078 0.221030
vt 0.839602 0.616062
vt 0.846924 0.633223
vt 0.832251 0.633221
vt 0.792276 0.617604
vt 0.784950 0.634918
vt 0.777631 0.617604
vt 0.329034 0.921691
vt 0.329307 0.937186
vt 0.328759 0.937194
vt 0.231604 0.919879
vt 0.231879 0.935375
vt 0.231327 0.935384
vt 0.918390 0.920669
vt 0.918664 0.936164
vt 0.918115 0.936173
vt 0.935355 0.221467
vt 0.935630 0.236963
vt 0.935079 0.236972
vt 0.895544 0.920843
vt 0.895817 0.936338
vt 0.895269 0.936346
vt 0.372240 0.919146
vt 0.372515 0.934642
vt 0.371963 0.934651
vt 0.878211 0.239015
vt 0.876814 0.218703
vt 0.879596 0.218697
vt 0.897162 0.794335
vt 0.895765 0.774023
vt 0.898547 0.774017
vt 0.781716 0.230538
vt 0.765438 0.240047
vt 0.765440 0.221030
vt 0.819562 0.371360
vt 0.803284 0.380794
vt 0.803285 0.361948
vt 0.834367 0.089144
vt 0.827041 0.106458
vt 0.819722 0.089143
vt 0.209443 0.830181
vt 0.216765 0.847342
vt 0.202092 0.847340
vt 0.788202 0.921017
vt 0.788474 0.936512
vt 0.787927 0.936520
vt 0.929402 0.918742
vt 0.929676 0.934237
vt 0.929125 0.934246
vt 0.063291 0.921280
vt 0.063564 0.936775
vt 0.063016 0.936784
vt 0.935358 0.191824
vt 0.935633 0.207320
vt 0.935082 0.207328
vt 0.554884 0.918963
vt 0.555159 0.934459
vt 0.554607 0.934468
vt 0.531329 0.921816
vt 0.531602 0.937311
vt 0.531054 0.937319
vt 0.859819 0.612900
vt 0.858433 0.633219
vt 0.857036 0.612906
vt 0.282564 0.884867
vt 0.281179 0.905185
vt 0.279782 0.884873
vt 0.808078 0.230538
vt 0.791800 0.240047
vt 0.791801 0.221030
vt 0.822141 0.625490
vt 0.805863 0.634924
vt 0.805864 0.616078
vt 0.357840 0.825074
vt 0.350514 0.842388
vt 0.343195 0.825074
vt 0.837023 0.360264
vt 0.844345 0.377425
vt 0.829672 0.377423
vt 0.765008 0.918959
vt 0.765283 0.934455
vt 0.764731 0.934464
vt 0.728986 0.921612
vt 0.729259 0.937107
vt 0.728711 0.937115
vt 0.645010 0.919215
vt 0.645285 0.934711
vt 0.644733 0.934720
vt 0.618602 0.921865
vt 0.618876 0.937361
vt 0.618327 0.937369
vt 0.542458 0.919259
vt 0.542733 0.934755
vt 0.542182 0.934764
vt 0.777308 0.921017
vt 0.777580 0.936512
vt 0.777033 0.936520
vt 0.865325 0.218700
vt 0.866723 0.239012
vt 0.863940 0.239018
vt 0.904663 0.299629
vt 0.906060 0.319942
vt 0.903278 0.319948
vt 0.063806 0.873760
vt 0.063229 0.873732
vt 0.063459 0.839276
vt 0.329429 0.874144
vt 0.328887 0.874182
vt 0.329170 0.839682
vt 0.231572 0.873134
vt 0.231322 0.838678
vt 0.231824 0.838650
vt 0.873962 0.123660
vt 0.873614 0.089196
vt 0.874210 0.089168
vt 0.304570 0.832687
vt 0.309185 0.853886
vt 0.299963 0.853876
vt 0.849184 0.218677
vt 0.853835 0.239871
vt 0.844542 0.239872
vt 0.918769 0.673886
vt 0.920780 0.679703
vt 0.916760 0.679700
vt 0.839860 0.518963
vt 0.841886 0.524778
vt 0.837836 0.524779
vt 0.375784 0.654821
vt 0.379589 0.713013
vt 0.371971 0.713025
vt 0.681280 0.639840
vt 0.677467 0.698490
vt 0.673662 0.639843
vt 0.634615 0.493688
vt 0.630839 0.577577
vt 0.627059 0.493688
vt 0.571998 0.144842
vt 0.575783 0.229374
vt 0.568217 0.229387
vt 0.447241 0.638887
vt 0.453693 0.681732
vt 0.440766 0.681726
vt 0.104029 0.677274
vt 0.097555 0.719732
vt 0.091102 0.677277
vt 0.657684 0.670359
vt 0.651209 0.712817
vt 0.644757 0.670361
vt 0.399538 0.677214
vt 0.405991 0.719670
vt 0.393064 0.719671
vt 0.627150 0.666275
vt 0.620676 0.709115
vt 0.614223 0.666270
vt 0.422577 0.677214
vt 0.429030 0.719670
vt 0.416103 0.719671
vt 0.281576 0.593536
vt 0.250957 0.493387
vt 0.312194 0.493381
vt 0.322270 0.493387
vt 0.383507 0.493381
vt 0.352890 0.593535
vt 0.521538 0.604785
vt 0.493263 0.536473
vt 0.549801 0.536463
vt 0.559935 0.536473
vt 0.616473 0.536463
vt 0.588211 0.604784
vt 0.740020 0.534942
vt 0.740892 0.534911
vt 0.740552 0.607960
vt 0.741846 0.645079
vt 0.742675 0.645043
vt 0.742166 0.718086
vt 0.739893 0.396694
vt 0.740765 0.396663
vt 0.740426 0.469712
vt 0.231672 0.677631
vt 0.232501 0.677596
vt 0.231992 0.750639
vt 0.738429 0.005088
vt 0.739499 0.005052
vt 0.738843 0.078095
vt 0.717136 0.647606
vt 0.718266 0.647575
vt 0.717828 0.720625
vt 0.841885 0.914086
vt 0.841325 0.914047
vt 0.841880 0.882379
vt 0.213993 0.888127
vt 0.213768 0.857531
vt 0.214667 0.857461
vt 0.753353 0.905254
vt 0.752771 0.905289
vt 0.752779 0.873574
vt 0.670585 0.385552
vt 0.669496 0.386488
vt 0.670154 0.384916
vt 0.252092 0.889371
vt 0.250953 0.858770
vt 0.251938 0.858750
vt 0.300478 0.960547
vt 0.300796 0.959116
vt 0.300982 0.958989
vt 0.015045 0.657879
vt 0.014501 0.658065
vt 0.005634 0.627393
vt 0.344140 0.883159
vt 0.343161 0.883120
vt 0.343840 0.852549
vt 0.015619 0.657716
vt 0.852807 0.914086
vt 0.852248 0.914046
vt 0.852802 0.882379
vt 0.202634 0.888127
vt 0.202409 0.857531
vt 0.203308 0.857461
vt 0.493814 0.906539
vt 0.493233 0.906574
vt 0.493241 0.874860
vt 0.263450 0.889370
vt 0.262312 0.858770
vt 0.263296 0.858750
vt 0.606663 0.959590
vt 0.605573 0.960526
vt 0.606231 0.958953
vt 0.658275 0.181189
vt 0.657732 0.181375
vt 0.648864 0.150703
vt 0.658849 0.181026
vt 0.315028 0.960649
vt 0.315346 0.959218
vt 0.315532 0.959091
vt 0.355499 0.883159
vt 0.354519 0.883120
vt 0.355198 0.852549
vt 0.235074 0.626728
vt 0.218566 0.667454
vt 0.202151 0.626762
vt 0.365468 0.603646
vt 0.381904 0.644668
vt 0.348953 0.644667
vt 0.892363 0.396658
vt 0.892798 0.396673
vt 0.892581 0.429629
vt 0.902940 0.534906
vt 0.903371 0.534921
vt 0.903156 0.567876
vt 0.902939 0.577991
vt 0.903371 0.578006
vt 0.903156 0.610961
vt 0.892390 0.534906
vt 0.892825 0.534920
vt 0.892608 0.567877
vt 0.895733 0.847645
vt 0.896168 0.847660
vt 0.895950 0.880616
vt 0.903269 0.250975
vt 0.903700 0.250990
vt 0.903485 0.283945
vt 0.895759 0.645043
vt 0.896194 0.645057
vt 0.895977 0.678014
vt 0.903447 0.137474
vt 0.903878 0.137489
vt 0.903663 0.170444
vt 0.903447 0.180558
vt 0.903878 0.180573
vt 0.903663 0.213528
vt 0.895759 0.726724
vt 0.896194 0.726738
vt 0.895977 0.759695
vt 0.164311 0.872429
vt 0.164743 0.872444
vt 0.164527 0.905399
vt 0.900430 0.479841
vt 0.900865 0.479855
vt 0.900648 0.512812
vt 0.591164 0.872583
vt 0.591596 0.872598
vt 0.591381 0.905553
vt 0.892390 0.577991
vt 0.892825 0.578005
vt 0.892608 0.610962
vt 0.601711 0.872583
vt 0.602143 0.872598
vt 0.601928 0.905553
vt 0.895264 0.089161
vt 0.895699 0.089176
vt 0.895482 0.122132
vt 0.905813 0.089161
vt 0.906245 0.089176
vt 0.906029 0.122131
vt 0.895733 0.804560
vt 0.896168 0.804575
vt 0.895951 0.837531
vt 0.074029 0.873550
vt 0.074460 0.873565
vt 0.074245 0.906520
vt 0.673651 0.868141
vt 0.674086 0.868155
vt 0.673869 0.901112
vt 0.900772 0.333016
vt 0.901207 0.333030
vt 0.900990 0.365987
vt 0.902912 0.396658
vt 0.903344 0.396673
vt 0.903128 0.429628
vt 0.902972 0.005051
vt 0.903404 0.005066
vt 0.903188 0.038021
vt 0.684199 0.868141
vt 0.684633 0.868156
vt 0.684417 0.901112
vt 0.531095 0.714856
vt 0.517235 0.714868
vt 0.524159 0.681315
vt 0.500184 0.681315
vt 0.507120 0.714856
vt 0.493259 0.714868
vt 0.818380 0.505204
vt 0.823982 0.479854
vt 0.828991 0.505206
vt 0.064885 0.713256
vt 0.072217 0.677800
vt 0.080267 0.713240
vt 0.949274 0.307805
vt 0.948988 0.307780
vt 0.949149 0.299615
vt 0.949456 0.627611
vt 0.949188 0.627614
vt 0.949325 0.619420
vt 0.969344 0.605227
vt 0.969120 0.606763
vt 0.968915 0.605219
vt 0.969948 0.250994
vt 0.970153 0.252525
vt 0.969724 0.252516
vt 0.969194 0.493040
vt 0.968970 0.494576
vt 0.968765 0.493032
vt 0.970368 0.299624
vt 0.970573 0.301155
vt 0.970145 0.301145
vt 0.951238 0.878051
vt 0.950338 0.880214
vt 0.949419 0.878061
vt 0.946734 0.577863
vt 0.945833 0.580026
vt 0.944914 0.577872
vt 0.949633 0.097359
vt 0.949351 0.097333
vt 0.949501 0.089173
vt 0.809296 0.947036
vt 0.809009 0.947012
vt 0.809170 0.938844
vt 0.969357 0.673884
vt 0.969133 0.675420
vt 0.968928 0.673876
vt 0.970368 0.137493
vt 0.970573 0.139024
vt 0.970145 0.139014
vt 0.969384 0.410995
vt 0.969161 0.412531
vt 0.968956 0.410987
vt 0.970369 0.149170
vt 0.970574 0.150701
vt 0.970145 0.150691
vt 0.705193 0.384355
vt 0.704292 0.386519
vt 0.703373 0.384365
vt 0.951536 0.741979
vt 0.950635 0.744142
vt 0.949716 0.741989
vt 0.794239 0.122455
vt 0.797986 0.118777
vt 0.799377 0.123622
vt 0.819780 0.520553
vt 0.821681 0.515639
vt 0.824882 0.519502
vt 0.934787 0.675699
vt 0.933089 0.678409
vt 0.931381 0.675650
vt 0.179076 0.927613
vt 0.178942 0.930850
vt 0.176095 0.929341
vt 0.968130 0.579669
vt 0.968023 0.579715
vt 0.967997 0.577867
vt 0.984178 0.410216
vt 0.984588 0.409935
vt 0.984294 0.410338
vt 0.451296 0.964045
vt 0.451541 0.962244
vt 0.451485 0.964099
vt 0.946490 0.606964
vt 0.946289 0.606881
vt 0.947097 0.605269
vt 0.967792 0.704037
vt 0.967511 0.704033
vt 0.967668 0.702231
vt 0.005226 0.962324
vt 0.005294 0.962229
vt 0.005214 0.964116
vt 0.440439 0.962718
vt 0.440605 0.962709
vt 0.440707 0.964493
vt 0.251171 0.965382
vt 0.250953 0.963678
vt 0.251360 0.963665
vt 0.882935 0.966273
vt 0.882719 0.964543
vt 0.883108 0.964550
vt 0.819809 0.967880
vt 0.820079 0.967883
vt 0.819778 0.969359
vt 0.946586 0.607230
vt 0.946287 0.607141
vt 0.946492 0.607048
vt 0.947080 0.608755
vt 0.946678 0.606957
vt 0.696760 0.968417
vt 0.697038 0.968428
vt 0.696740 0.969892
vt 0.713294 0.969981
vt 0.713607 0.969864
vt 0.713579 0.971428
vt 0.403662 0.963998
vt 0.403892 0.965700
vt 0.403490 0.965714
vt 0.907829 0.964214
vt 0.908034 0.965947
vt 0.907642 0.965936
vt 0.739222 0.382346
vt 0.742969 0.378668
vt 0.744361 0.383513
vt 0.811822 0.123469
vt 0.813723 0.118555
vt 0.816924 0.122418
vt 0.199615 0.930513
vt 0.201336 0.927790
vt 0.203064 0.930534
vt 0.300968 0.933576
vt 0.301020 0.930343
vt 0.303881 0.931784
vt 0.984559 0.462890
vt 0.984242 0.463100
vt 0.984227 0.462835
vt 0.741496 0.962502
vt 0.741730 0.962444
vt 0.741749 0.964281
vt 0.971082 0.932391
vt 0.970805 0.932387
vt 0.970948 0.930628
vt 0.968669 0.167913
vt 0.968400 0.167911
vt 0.968543 0.166117
vt 0.958118 0.522793
vt 0.958272 0.522679
vt 0.958701 0.524601
vt 0.984611 0.463174
vt 0.958087 0.522658
vt 0.958095 0.523111
vt 0.968979 0.235177
vt 0.968716 0.235194
vt 0.968845 0.233401
vt 0.969599 0.006855
vt 0.969321 0.006852
vt 0.969475 0.005077
vt 0.547052 0.232142
vt 0.550799 0.228464
vt 0.552190 0.233309
vt 0.828854 0.123469
vt 0.830755 0.118556
vt 0.833956 0.122418
vt 0.675439 0.936888
vt 0.673741 0.939597
vt 0.672033 0.936838
vt 0.117236 0.927625
vt 0.117101 0.930862
vt 0.114254 0.929353
vt 0.984566 0.261996
vt 0.984616 0.262255
vt 0.984310 0.262401
vt 0.214114 0.964272
vt 0.213862 0.964292
vt 0.214071 0.962446
vt 0.984185 0.262299
vt 0.050955 0.962993
vt 0.050892 0.964810
vt 0.050946 0.963036
vt 0.984227 0.526481
vt 0.984192 0.526173
vt 0.984482 0.526222
vt 0.050684 0.963032
vt 0.967792 0.692069
vt 0.967507 0.692065
vt 0.967668 0.690264
vt 0.213669 0.964250
vt 0.213858 0.964304
vt 0.463948 0.962175
vt 0.464008 0.962081
vt 0.463933 0.963968
vt 0.429602 0.962851
vt 0.429750 0.962842
vt 0.430055 0.964627
vt 0.984298 0.558826
vt 0.984541 0.559003
vt 0.984364 0.559035
vt 0.463748 0.962197
vt 0.430064 0.962846
vt 0.841419 0.965020
vt 0.841201 0.963316
vt 0.841607 0.963302
vt 0.618545 0.966386
vt 0.618328 0.964656
vt 0.618718 0.964664
vt 0.830324 0.967880
vt 0.830593 0.967883
vt 0.830293 0.969359
vt 0.415005 0.968218
vt 0.415285 0.968231
vt 0.414987 0.969696
vt 0.671789 0.964035
vt 0.671995 0.965767
vt 0.671602 0.965756
vt 0.101876 0.964058
vt 0.102106 0.965759
vt 0.101704 0.965774
vt 0.529947 0.232142
vt 0.533694 0.228464
vt 0.535085 0.233309
vt 0.879526 0.380095
vt 0.881427 0.375181
vt 0.884628 0.379045
vt 0.265547 0.931037
vt 0.267268 0.928314
vt 0.268996 0.931058
vt 0.930222 0.121555
vt 0.930274 0.118321
vt 0.933135 0.119763
vt 0.984559 0.473447
vt 0.984242 0.473657
vt 0.984227 0.473392
vt 0.358480 0.962729
vt 0.358714 0.962671
vt 0.358733 0.964508
vt 0.971038 0.090952
vt 0.970760 0.090948
vt 0.970904 0.089188
vt 0.968615 0.480125
vt 0.968345 0.480122
vt 0.968489 0.478329
vt 0.177018 0.957795
vt 0.177172 0.957681
vt 0.177601 0.959603
vt 0.984611 0.473731
vt 0.176987 0.957660
vt 0.176996 0.958113
vt 0.968928 0.774963
vt 0.968665 0.774980
vt 0.968794 0.773188
vt 0.969705 0.551022
vt 0.969428 0.551019
vt 0.969582 0.549245
vt 0.945908 0.019385
vt 0.946823 0.022714
vt 0.944990 0.022713
vt 0.951521 0.848635
vt 0.950603 0.851939
vt 0.949688 0.848636
vt 0.951650 0.819818
vt 0.950675 0.822913
vt 0.949702 0.819817
vt 0.957671 0.493036
vt 0.958643 0.496107
vt 0.956696 0.496109
vt 0.946765 0.410991
vt 0.945847 0.414321
vt 0.944933 0.410990
vt 0.946159 0.265308
vt 0.947074 0.268611
vt 0.945241 0.268613
vt 0.951663 0.660300
vt 0.950688 0.663396
vt 0.949716 0.660299
vt 0.957861 0.410991
vt 0.958834 0.414062
vt 0.956886 0.414064
vt 0.918107 0.755567
vt 0.917424 0.762527
vt 0.916747 0.755564
vt 0.141554 0.926256
vt 0.142231 0.933166
vt 0.140871 0.933164
vt 0.958810 0.605223
vt 0.958075 0.608889
vt 0.957369 0.605200
vt 0.051431 0.949186
vt 0.052137 0.952905
vt 0.050697 0.952879
vt 0.950999 0.033027
vt 0.951094 0.040768
vt 0.950871 0.040764
vt 0.403685 0.946161
vt 0.403557 0.953839
vt 0.403461 0.946156
vt 0.164467 0.943487
vt 0.164562 0.951228
vt 0.164339 0.951224
vt 0.954156 0.943518
vt 0.954028 0.951197
vt 0.953933 0.943514
vt 0.950236 0.918733
vt 0.950358 0.926525
vt 0.950151 0.926542
vt 0.728799 0.947231
vt 0.728894 0.955038
vt 0.728705 0.955045
vt 0.609974 0.656145
vt 0.591157 0.614919
vt 0.628790 0.614912
vt 0.411865 0.667083
vt 0.393049 0.625857
vt 0.430681 0.625850
vt 0.864687 0.949134
vt 0.863044 0.944994
vt 0.866351 0.944998
vt 0.946645 0.539098
vt 0.944885 0.534949
vt 0.948202 0.534924
vt 0.947036 0.141653
vt 0.945393 0.137513
vt 0.948700 0.137517
vt 0.946645 0.553411
vt 0.944885 0.549263
vt 0.948202 0.549237
vt 0.673887 0.953900
vt 0.671566 0.953909
vt 0.672780 0.949733
vt 0.958546 0.777339
vt 0.956231 0.777333
vt 0.957517 0.773192
vt 0.947036 0.155965
vt 0.945393 0.151825
vt 0.948700 0.151830
vt 0.022852 0.948801
vt 0.021091 0.944653
vt 0.024408 0.944627
vt 0.556363 0.948771
vt 0.554602 0.944622
vt 0.557920 0.944597
vt 0.373601 0.948941
vt 0.371958 0.944801
vt 0.375266 0.944805
vt 0.643047 0.949010
vt 0.641404 0.944870
vt 0.644712 0.944874
vt 0.491321 0.948501
vt 0.489560 0.944353
vt 0.492878 0.944327
vt 0.958604 0.195976
vt 0.956289 0.195970
vt 0.957574 0.191830
vt 0.093431 0.953894
vt 0.091111 0.953903
vt 0.092325 0.949727
vt 0.316130 0.948928
vt 0.314487 0.944788
vt 0.317794 0.944793
vt 0.763118 0.948766
vt 0.761357 0.944618
vt 0.764675 0.944593
vt 0.075781 0.948582
vt 0.074020 0.944434
vt 0.077337 0.944408
vt 0.946528 0.567712
vt 0.944885 0.563571
vt 0.948192 0.563576
vt 0.038148 0.948445
vt 0.036388 0.944297
vt 0.039705 0.944272
vt 0.946529 0.595069
vt 0.944886 0.590929
vt 0.948194 0.590934
vt 0.946548 0.400838
vt 0.944905 0.396697
vt 0.948212 0.396702
vt 0.945905 0.461160
vt 0.944144 0.457012
vt 0.947461 0.456986
vt 0.344903 0.948310
vt 0.343143 0.944162
vt 0.346460 0.944136
vt 0.946607 0.009231
vt 0.944964 0.005090
vt 0.948272 0.005095
vt 0.414865 0.889278
vt 0.419512 0.889276
vt 0.417192 0.903336
vt 0.713288 0.890160
vt 0.717901 0.890164
vt 0.715598 0.904220
vt 0.477760 0.944748
vt 0.479323 0.949078
vt 0.476202 0.949077
vt 0.948556 0.673844
vt 0.946987 0.678207
vt 0.945414 0.673848
vt 0.946319 0.607009
vt 0.984567 0.261994
vt 0.984603 0.262183
vt 0.970674 0.631438
vt 0.970981 0.631300
vt 0.971025 0.631366
vt 0.188118 0.969492
vt 0.188425 0.969354
vt 0.188469 0.969421
vt 0.984476 0.198411
vt 0.984225 0.198206
vt 0.984317 0.197955
vt 0.984476 0.187657
vt 0.984225 0.187452
vt 0.984317 0.187201
vt 0.752328 0.396699
vt 0.752455 0.534946
vt 0.670187 0.386467
vt 0.606265 0.960505
vt 0.092518 0.665645
vt 0.099590 0.628538
vt 0.106557 0.666067
vt 0.066248 0.666617
vt 0.072456 0.628599
vt 0.080126 0.666472
vt 0.984445 0.579938
vt 0.984166 0.579991
vt 0.984562 0.579649
vt 0.741964 0.962488
vt 0.984615 0.526560
vt 0.358948 0.962715
s 1
usemtl rural_house_002_baked
f 466/1/1 465/2/2 637/3/3
f 475/4/4 474/5/5 478/6/6
f 520/7/7 521/8/7 648/9/7
f 8/10/8 12/11/8 9/12/8
f 11/13/9 12/14/9 10/15/9
f 10/16/9 12/17/9 11/18/9
f 15/19/9 13/20/9 14/21/9
f 14/22/9 13/23/9 15/24/9
f 18/25/10 17/26/11 16/27/12
f 16/28/12 17/29/11 18/30/10
f 21/31/9 22/32/9 23/33/9
f 22/34/9 21/35/9 23/36/9
f 25/37/13 24/38/9 26/39/13
f 24/40/9 25/41/13 26/42/13
f 28/43/9 27/44/9 29/45/9
f 27/46/9 28/47/9 29/48/9
f 32/49/14 30/50/15 34/51/16
f 30/52/15 36/53/17 34/54/16
f 31/55/18 34/56/16 36/57/17
f 30/58/15 32/59/14 38/60/19
f 32/49/20 34/51/20 33/61/20
f 39/62/21 45/63/22 41/64/23
f 45/65/24 629/66/24 43/67/24
f 39/68/21 44/69/25 629/70/26
f 40/71/27 629/72/26 44/73/25
f 45/65/22 39/74/21 629/66/26
f 49/75/9 47/76/9 48/77/9
f 47/78/9 49/79/9 48/80/9
f 50/81/9 51/82/9 52/83/9
f 50/84/9 52/85/9 51/86/9
f 53/87/9 54/88/9 55/89/9
f 54/90/9 53/91/9 55/92/9
f 56/93/9 58/94/9 57/95/9
f 56/96/9 57/97/9 58/98/9
f 59/99/9 60/100/9 61/101/9
f 60/102/9 59/103/9 61/104/9
f 62/105/9 64/106/9 63/107/9
f 62/108/9 63/109/9 64/110/9
f 67/111/9 66/112/9 65/113/9
f 66/114/9 67/115/9 65/116/9
f 68/117/9 70/118/9 69/119/9
f 68/120/9 69/121/9 70/122/9
f 73/123/9 71/124/9 72/125/9
f 71/126/9 73/127/9 72/128/9
f 74/129/9 76/130/9 75/131/9
f 74/132/9 75/133/9 76/134/9
f 79/135/9 77/136/9 78/137/9
f 77/138/9 79/139/9 78/140/9
f 80/141/9 81/142/9 82/143/9
f 80/144/9 82/145/9 81/146/9
f 84/147/9 83/148/9 85/149/9
f 83/150/9 84/151/9 85/152/9
f 86/153/9 87/154/9 88/155/9
f 86/156/9 88/157/9 87/158/9
f 89/159/9 90/160/9 91/161/9
f 90/162/9 89/163/9 91/164/9
f 92/165/9 93/166/9 94/167/9
f 92/168/9 94/169/9 93/170/9
f 97/171/9 95/172/9 96/173/9
f 95/174/9 97/175/9 96/176/9
f 98/177/9 100/178/9 99/179/9
f 98/180/9 99/181/9 100/182/9
f 103/183/9 102/184/9 101/185/9
f 102/186/9 103/187/9 101/188/9
f 104/189/9 106/190/9 105/191/9
f 104/192/9 105/193/9 106/194/9
f 109/195/9 107/196/9 108/197/9
f 107/198/9 109/199/9 108/200/9
f 110/201/9 111/202/9 112/203/9
f 110/204/9 112/205/9 111/206/9
f 114/207/9 113/208/9 115/209/9
f 113/210/9 114/211/9 115/212/9
f 116/213/9 118/214/9 117/215/9
f 116/216/9 117/217/9 118/218/9
f 119/219/9 120/220/9 121/221/9
f 119/222/9 121/223/9 120/224/9
f 122/225/9 123/226/9 124/227/9
f 122/228/9 124/229/9 123/230/9
f 125/231/9 126/232/9 127/233/9
f 125/234/9 127/235/9 126/236/9
f 128/237/9 130/238/9 129/239/9
f 128/240/9 129/241/9 130/242/9
f 131/243/9 132/244/9 133/245/9
f 131/246/9 133/247/9 132/248/9
f 134/249/9 136/250/9 135/251/9
f 134/252/9 135/253/9 136/254/9
f 137/255/9 139/256/9 138/257/9
f 137/258/9 138/259/9 139/260/9
f 140/261/9 142/262/9 141/263/9
f 140/264/9 141/265/9 142/266/9
f 143/267/9 145/268/9 144/269/9
f 143/270/9 144/271/9 145/272/9
f 146/273/9 148/274/9 147/275/9
f 146/276/9 147/277/9 148/278/9
f 149/279/9 151/280/9 150/281/9
f 149/282/9 150/283/9 151/284/9
f 152/285/9 153/286/9 154/287/9
f 152/288/9 154/289/9 153/290/9
f 155/291/9 157/292/9 156/293/9
f 155/294/9 156/295/9 157/296/9
f 158/297/9 160/298/9 159/299/9
f 158/300/9 159/301/9 160/302/9
f 162/303/9 161/304/9 163/305/9
f 161/306/9 162/307/9 163/308/9
f 164/309/9 166/310/9 165/311/9
f 164/312/9 165/313/9 166/314/9
f 168/315/9 167/316/9 169/317/9
f 168/318/9 169/319/9 167/320/9
f 170/321/9 172/322/9 171/323/9
f 170/324/9 171/325/9 172/326/9
f 173/327/13 175/328/9 174/329/13
f 175/330/9 173/331/13 174/332/13
f 178/333/28 177/334/29 176/335/30
f 177/336/29 178/337/28 176/338/30
f 179/339/9 180/340/9 181/341/9
f 179/342/9 181/343/9 180/344/9
f 183/345/9 184/346/9 182/347/9
f 183/348/9 182/349/9 184/350/9
f 185/351/9 187/352/9 186/353/9
f 185/354/9 186/355/9 187/356/9
f 190/357/31 189/358/31 188/359/31
f 188/360/31 189/361/31 190/362/31
f 191/363/13 192/364/13 193/365/9
f 192/366/13 191/367/13 193/368/9
f 195/369/32 194/370/33 196/371/34
f 194/372/33 195/373/32 196/374/34
f 197/375/9 198/376/9 199/377/9
f 197/378/9 199/379/9 198/380/9
f 202/381/9 201/382/9 200/383/9
f 202/384/9 200/385/9 201/386/9
f 204/387/9 203/388/9 205/389/9
f 204/390/9 205/391/9 203/392/9
f 207/393/9 206/394/9 208/395/9
f 207/396/9 208/397/9 206/398/9
f 211/399/35 209/400/36 210/401/9
f 209/402/36 211/403/35 210/404/9
f 213/405/9 214/406/9 212/407/9
f 214/408/9 213/409/9 212/410/9
f 215/411/9 217/412/9 216/413/9
f 215/414/9 216/415/9 217/416/9
f 218/417/9 219/418/9 220/419/9
f 218/420/9 220/421/9 219/422/9
f 221/423/9 223/424/9 222/425/9
f 221/426/9 222/427/9 223/428/9
f 225/429/9 224/430/9 226/431/9
f 225/432/9 226/433/9 224/434/9
f 227/435/9 228/436/9 229/437/9
f 227/438/9 229/439/9 228/440/9
f 231/441/9 232/442/9 230/443/9
f 232/444/9 231/445/9 230/446/9
f 233/447/9 235/448/9 234/449/9
f 235/450/9 233/451/9 234/452/9
f 236/453/9 238/454/9 237/455/9
f 236/456/9 237/457/9 238/458/9
f 239/459/9 241/460/9 240/461/9
f 239/462/9 240/463/9 241/464/9
f 243/465/9 244/466/9 242/467/9
f 243/468/9 242/469/9 244/470/9
f 246/471/37 245/472/37 247/473/9
f 247/474/9 245/475/37 246/476/37
f 250/477/13 249/478/13 248/479/13
f 249/480/13 250/481/13 248/482/13
f 251/483/9 253/484/9 252/485/9
f 253/486/9 251/487/9 252/488/9
f 254/489/9 256/490/9 255/491/9
f 254/492/9 255/493/9 256/494/9
f 257/495/38 259/496/39 258/497/40
f 259/498/39 257/499/38 258/500/40
f 261/501/9 262/502/9 260/503/9
f 261/504/9 260/505/9 262/506/9
f 263/507/9 265/508/9 264/509/9
f 263/510/9 264/511/9 265/512/9
f 266/513/9 267/514/9 268/515/9
f 266/516/9 268/517/9 267/518/9
f 270/519/41 271/520/42 269/521/41
f 269/522/41 271/523/42 270/524/41
f 274/525/9 272/526/9 273/527/9
f 274/528/9 273/529/9 272/530/9
f 276/531/43 275/532/44 277/533/45
f 275/534/44 276/535/43 277/536/45
f 279/537/9 280/538/9 278/539/9
f 279/540/9 278/541/9 280/542/9
f 282/543/9 283/544/9 281/545/9
f 282/546/9 281/547/9 283/548/9
f 285/549/9 286/550/9 284/551/9
f 285/552/9 284/553/9 286/554/9
f 288/555/9 287/556/9 289/557/9
f 288/558/9 289/559/9 287/560/9
f 290/561/9 291/562/9 292/563/9
f 290/564/9 292/565/9 291/566/9
f 293/567/46 294/568/47 295/569/48
f 294/570/47 293/571/46 295/572/48
f 298/573/9 296/574/9 297/575/9
f 298/576/9 297/577/9 296/578/9
f 299/579/9 300/580/9 301/581/9
f 299/582/9 301/583/9 300/584/9
f 303/585/9 304/586/9 302/587/9
f 303/588/9 302/589/9 304/590/9
f 306/591/49 305/592/50 307/593/51
f 307/594/51 305/595/50 306/596/49
f 310/597/9 308/598/9 309/599/9
f 310/600/9 309/601/9 308/602/9
f 311/603/52 313/604/53 312/605/54
f 313/606/53 311/607/52 312/608/54
f 314/609/9 315/610/9 316/611/9
f 314/612/9 316/613/9 315/614/9
f 319/615/9 318/616/9 317/617/9
f 319/618/9 317/619/9 318/620/9
f 321/621/9 322/622/9 320/623/9
f 321/624/9 320/625/9 322/626/9
f 324/627/9 323/628/9 325/629/9
f 324/630/9 325/631/9 323/632/9
f 328/633/9 326/634/9 327/635/9
f 326/636/9 328/637/9 327/638/9
f 329/639/9 331/640/9 330/641/9
f 329/642/9 330/643/9 331/644/9
f 332/645/9 334/646/9 333/647/9
f 332/648/9 333/649/9 334/650/9
f 336/651/9 335/652/9 337/653/9
f 336/654/9 337/655/9 335/656/9
f 338/657/10 339/658/9 340/659/10
f 339/660/9 338/661/10 340/662/10
f 342/663/55 341/664/56 343/665/57
f 341/666/56 342/667/55 343/668/57
f 344/669/13 346/670/13 345/671/13
f 346/672/13 344/673/13 345/674/13
f 347/675/58 346/676/58 348/677/58
f 351/678/31 349/679/31 350/680/9
f 349/681/31 351/682/31 350/683/9
f 353/684/59 352/685/59 351/686/59
f 355/687/60 356/688/9 354/689/60
f 354/690/60 356/691/9 355/692/60
f 359/693/10 357/694/10 358/695/10
f 358/696/10 357/697/10 359/698/10
f 362/699/9 364/700/9 363/701/9
f 364/702/9 362/703/9 363/704/9
f 365/705/37 367/706/9 366/707/9
f 367/708/9 365/709/37 366/710/9
f 368/711/31 370/712/31 369/713/9
f 370/714/31 368/715/31 369/716/9
f 645/717/61 371/718/62 374/719/63
f 371/720/62 376/721/64 374/722/63
f 371/723/62 645/724/61 647/725/65
f 373/726/66 374/727/63 376/728/64
f 371/729/62 647/730/65 373/731/66
f 377/732/67 642/733/68 374/734/69
f 376/735/70 377/736/67 378/737/71
f 377/738/67 374/739/69 378/740/71
f 642/741/72 376/735/70 378/737/71
f 632/742/73 379/743/74 385/744/75
f 379/745/74 381/746/64 385/747/75
f 379/748/74 632/749/73 384/750/76
f 379/751/74 384/752/76 382/753/66
f 382/754/66 385/755/75 381/756/64
f 381/757/77 383/758/67 387/759/78
f 636/760/79 381/757/77 387/759/78
f 383/761/67 636/762/80 385/763/81
f 383/764/67 385/765/81 387/766/78
f 390/767/82 389/768/82 388/769/82
f 389/770/82 390/771/82 388/772/82
f 393/773/9 391/774/9 392/775/9
f 391/776/9 393/777/9 392/778/9
f 396/779/10 395/780/10 394/781/10
f 395/782/10 396/783/10 394/784/10
f 399/785/9 398/786/9 397/787/9
f 398/788/9 399/789/9 397/790/9
f 402/791/9 401/792/9 400/793/9
f 401/794/9 402/795/9 400/796/9
f 403/797/10 404/798/10 405/799/10
f 404/800/10 403/801/10 405/802/10
f 407/803/9 406/804/9 408/805/9
f 406/806/9 407/807/9 408/808/9
f 409/809/10 410/810/10 411/811/10
f 410/812/10 409/813/10 411/814/10
f 414/815/9 412/816/9 413/817/9
f 412/818/9 414/819/9 413/820/9
f 416/821/9 415/822/9 417/823/9
f 415/824/9 416/825/9 417/826/9
f 418/827/10 420/828/10 419/829/10
f 420/830/10 418/831/10 419/832/10
f 423/833/9 422/834/9 421/835/9
f 422/836/9 423/837/9 421/838/9
f 424/839/9 426/840/9 425/841/9
f 426/842/9 424/843/9 425/844/9
f 429/845/9 427/846/60 428/847/60
f 428/848/60 427/849/60 429/850/9
f 1/851/9 434/852/83 433/853/84
f 433/854/84 434/855/83 1/856/9
f 436/857/85 435/858/85 437/859/57
f 435/860/85 436/861/85 437/862/57
f 439/863/86 438/864/87 440/865/86
f 438/866/87 439/867/86 440/868/86
f 442/869/88 441/870/89 443/871/90
f 441/872/89 442/873/88 443/874/90
f 445/875/60 444/876/60 446/877/60
f 446/878/60 444/879/60 445/880/60
f 449/881/91 447/882/92 448/883/93
f 447/884/92 449/885/91 448/886/93
f 451/887/94 450/888/95 452/889/94
f 450/890/95 451/891/94 452/892/94
f 455/893/31 453/894/31 454/895/31
f 453/896/31 455/897/31 454/898/31
f 457/899/96 458/900/97 456/901/96
f 456/902/96 458/903/97 457/904/96
f 459/905/9 460/906/9 461/907/9
f 461/908/9 460/909/9 459/910/9
f 462/911/98 463/912/98 464/913/99
f 464/914/99 463/915/98 462/916/98
f 477/917/100 465/918/2 466/919/1
f 465/920/101 468/921/102 467/922/103
f 467/923/103 466/924/1 637/925/104
f 468/926/102 477/927/100 466/928/1
f 467/929/103 468/930/102 466/931/1
f 467/932/105 469/933/106 475/934/4
f 469/935/107 467/936/108 481/937/109
f 473/938/9 472/939/9 471/940/9
f 473/941/9 471/942/9 472/943/9
f 469/944/106 474/945/5 475/946/4
f 467/947/105 475/4/4 478/6/110
f 477/948/111 638/949/112 481/950/109
f 638/949/112 480/951/113 481/950/109
f 480/952/113 469/953/107 481/954/109
f 467/955/108 477/956/111 481/957/109
f 482/958/9 483/959/9 484/960/9
f 482/961/9 484/962/9 483/963/9
f 485/964/114 487/965/115 486/966/116
f 486/967/116 487/968/115 485/969/114
f 488/970/9 489/971/9 490/972/9
f 490/973/9 489/974/9 488/975/9
f 503/976/117 644/977/118 643/978/119
f 503/979/120 495/980/121 505/981/122
f 499/982/13 497/983/13 498/984/13
f 497/985/13 499/986/13 498/987/13
f 491/988/123 493/989/123 500/990/123
f 503/976/117 493/991/124 644/977/118
f 644/992/118 493/989/124 505/993/122
f 506/994/125 507/995/126 508/996/127
f 507/997/126 506/998/125 508/999/127
f 509/1000/9 510/1001/9 511/1002/9
f 511/1003/9 510/1004/9 509/1005/9
f 512/1006/31 513/1007/31 514/1008/31
f 514/1009/31 513/1010/31 512/1011/31
f 515/1012/128 516/1013/129 519/1014/130
f 515/1015/131 521/1016/131 520/1017/131
f 515/1012/128 519/1014/130 521/1018/132
f 517/1019/133 528/1020/134 515/1021/135
f 516/1022/136 527/1023/136 529/1024/136
f 527/1025/137 515/1021/128 528/1020/134
f 519/1026/130 516/1027/129 520/1028/138
f 519/1029/130 520/1017/138 648/1030/139
f 521/1031/140 522/1032/141 528/1033/134
f 522/1034/142 521/1035/143 518/1036/144
f 527/1037/145 521/1038/145 517/1039/145
f 517/1040/133 521/1031/140 528/1033/134
f 521/1035/143 529/1041/146 518/1036/144
f 524/1042/9 526/1043/9 525/1044/9
f 524/1045/9 525/1046/9 526/1047/9
f 522/1048/141 527/1049/137 528/1050/134
f 516/1051/147 522/1052/142 518/1053/144
f 530/1054/9 532/1055/9 531/1056/9
f 530/1057/9 531/1058/9 532/1059/9
f 533/1060/13 535/1061/13 534/1062/13
f 534/1063/13 535/1064/13 533/1065/13
f 536/1066/37 538/1067/37 537/1068/37
f 537/1069/37 538/1070/37 536/1071/37
f 549/1072/117 551/1073/118 634/1074/119
f 549/1075/148 542/1076/121 552/1077/122
f 545/1078/149 544/1079/150 546/1080/151
f 544/1081/150 545/1082/149 546/1083/151
f 639/1084/152 540/1085/152 641/1086/152
f 549/1072/117 540/1087/153 551/1073/118
f 551/1088/118 540/1085/153 552/1089/122
f 555/1090/57 553/1091/57 554/1092/57
f 553/1093/57 555/1094/57 554/1095/57
f 556/1096/154 557/1097/155 558/1098/155
f 557/1099/155 556/1100/154 558/1101/155
f 560/1102/156 561/1103/157 559/1104/158
f 561/1105/157 560/1106/156 559/1107/158
f 562/1108/159 564/1109/160 563/1110/159
f 564/1111/160 562/1112/159 563/1113/159
f 565/1114/13 566/1115/13 567/1116/13
f 566/1117/13 565/1118/13 567/1119/13
f 568/1120/10 569/1121/10 570/1122/10
f 569/1123/10 568/1124/10 570/1125/10
f 571/1126/161 572/1127/162 573/1128/163
f 572/1129/162 571/1130/161 573/1131/163
f 575/1132/10 576/1133/10 574/1134/10
f 576/1135/10 575/1136/10 574/1137/10
f 578/1138/60 577/1139/60 579/1140/60
f 577/1141/60 578/1142/60 579/1143/60
f 580/1144/9 582/1145/9 581/1146/9
f 580/1147/9 581/1148/9 582/1149/9
f 584/1150/9 585/1151/9 583/1152/9
f 584/1153/9 583/1154/9 585/1155/9
f 588/1156/9 587/1157/9 586/1158/9
f 588/1159/9 586/1160/9 587/1161/9
f 589/1162/9 591/1163/9 590/1164/9
f 589/1165/9 590/1166/9 591/1167/9
f 593/1168/13 592/1169/13 594/1170/13
f 592/1171/13 593/1172/13 594/1173/13
f 595/1174/9 597/1175/9 596/1176/9
f 595/1177/9 596/1178/9 597/1179/9
f 598/1180/9 599/1181/9 600/1182/9
f 598/1183/9 600/1184/9 599/1185/9
f 601/1186/9 602/1187/9 603/1188/9
f 601/1189/9 603/1190/9 602/1191/9
f 604/1192/57 606/1193/57 605/1194/57
f 606/1195/57 604/1196/57 605/1197/57
f 607/1198/9 608/1199/9 609/1200/9
f 607/1201/9 609/1202/9 608/1203/9
f 610/1204/9 612/1205/9 611/1206/9
f 610/1207/9 611/1208/9 612/1209/9
f 613/1210/9 615/1211/9 614/1212/9
f 613/1213/9 614/1214/9 615/1215/9
f 616/1216/9 617/1217/9 618/1218/9
f 616/1219/9 618/1220/9 617/1221/9
f 619/1222/9 621/1223/9 620/1224/9
f 619/1225/9 620/1226/9 621/1227/9
f 624/1228/164 622/1229/165 623/1230/166
f 622/1231/165 624/1232/164 623/1233/166
f 625/1234/167 626/1235/168 627/1236/169
f 626/1237/168 625/1238/167 627/1239/169
f 477/1240/170 468/926/170 638/949/170
f 527/1241/137 516/1242/129 515/1012/128
f 503/1243/171 643/1244/171 495/1245/171
f 549/1246/172 634/1247/172 542/1248/173
f 496/1249/174 491/1250/174 494/1251/174
f 543/1252/174 639/1253/174 541/1254/174
f 38/60/175 31/1255/175 30/58/175
f 41/64/176 40/1256/176 39/62/176
f 374/727/63 373/726/66 647/1257/65
f 385/755/75 382/754/66 384/1258/76
f 430/1259/177 432/1260/178 431/1261/179
f 431/1262/179 432/1263/178 430/1264/177
f 480/1265/180 477/1266/111 467/1267/108
f 644/1268/118 505/981/122 495/980/121
f 516/1022/181 529/1024/181 521/1269/181
f 551/1270/118 552/1077/122 542/1076/121
l 631 635
l 42 43
l 2 3
l 5 6
l 41 44
l 539 541
l 630 45
l 19 20
l 360 361
l 467 474
l 32 628
l 640 547
l 543 641
l 37 38
l 505 491
l 639 552
l 44 46
l 476 638
l 492 494
l 38 36
l 649 501
l 37 36
l 496 500
l 41 46
l 33 35
l 380 386
l 632 633
l 648 523
l 637 470
l 478 479
l 502 504
l 372 646
l 645 375
l 548 550
l 4 6
l 7 4
