# Blender 4.5.0
# www.blender.org
mtllib city_hall_001.lod2.mtl
o city_hall_001
v -3.969368 4.067272 -7.920404
v 3.969368 4.067272 -7.920404
v -21.900000 0.064102 21.900000
v 21.900000 0.060926 21.900000
v -3.496511 0.048213 -20.810163
v -17.544708 10.112414 -7.331571
v 17.544708 10.112416 15.039061
v -17.544708 10.112416 15.039061
v -17.102325 2.934508 -7.765221
v -17.102325 1.078001 -7.761096
v 17.541536 2.926303 -7.334770
v -17.097281 2.926303 -7.782639
v -17.524258 2.934510 15.047352
v -17.520168 1.078002 15.047351
v 17.541536 2.926305 15.042262
v -17.102325 1.078003 15.472713
v -17.102325 2.934510 15.468588
v 17.524258 2.934509 -7.339859
v 17.097281 2.926305 15.490129
v 17.520168 1.078001 -7.339859
v 17.102325 4.671057 -7.765221
v 17.102325 6.527565 -7.761096
v -17.541536 6.519358 -7.334771
v -17.097281 6.519358 -7.782639
v -17.524258 6.527567 15.047350
v -17.520168 4.671058 15.047351
v 17.102325 6.527566 15.472712
v 17.102325 4.671058 15.468588
v -17.541536 6.519360 15.042261
v 17.097281 6.519358 -7.782639
v 17.524258 4.671058 15.047351
v 17.520166 6.527567 15.047350
v -17.102325 8.264113 -7.761096
v -17.102325 10.120621 -7.765222
v 17.541536 10.112414 -7.334771
v -17.524258 8.264112 -7.339859
v -17.097281 10.112416 15.490129
v -17.520166 10.120622 -7.339860
v -17.102325 8.264115 15.472712
v 17.541536 10.112416 15.042261
v -17.102325 10.120623 15.468587
v 17.524258 10.120622 -7.339860
v 17.097281 10.112416 15.490129
v 17.520166 8.264112 -7.339859
v -17.102325 13.713676 -7.765222
v 17.541536 13.705469 -7.334771
v -17.102325 11.857170 -7.761097
v -17.520166 13.713678 -7.339860
v -17.524258 11.857169 -7.339860
v -17.097281 13.705471 15.490129
v 17.541536 13.705471 15.042261
v -17.102325 13.713678 15.468587
v -17.102325 11.857171 15.472712
v 17.524258 13.713677 -7.339860
v 17.520166 11.857169 -7.339859
v 17.097281 13.705471 15.490129
v -17.541536 17.298529 -7.334772
v 17.102325 15.450225 -7.765222
v 17.102325 17.306734 -7.761097
v -17.524258 15.450225 -7.339860
v -17.097281 17.298531 15.490129
v -17.520166 17.306734 -7.339861
v -17.541536 17.298531 15.042261
v 17.102325 17.306736 15.472712
v 17.102325 15.450227 15.468587
v 17.524258 17.306734 -7.339861
v 17.520166 15.450225 -7.339860
v 17.097281 17.298531 15.490129
v -16.435328 20.046392 -7.741364
v -16.491585 0.066814 -7.719019
v -16.503164 0.066813 -7.908099
v -16.435328 20.046394 15.593243
v -16.491585 0.066815 15.615589
v -16.503166 0.066815 15.426511
v -13.303674 0.066813 -7.908098
v -13.359941 20.046392 -7.741373
v -13.292094 0.066813 -7.719020
v -13.303675 0.066814 15.426512
v -13.359941 20.046394 15.593234
v -13.292093 0.066814 15.615587
v -10.160451 20.046392 -7.741373
v -10.104182 0.066813 -7.908098
v -10.092604 0.066814 -7.719020
v -10.104184 0.066814 15.426512
v -10.160451 20.046394 15.593234
v -10.092603 0.066815 15.615587
v -6.836854 20.046392 -7.741364
v -6.893112 0.066814 -7.719021
v -6.904689 0.066814 -7.908097
v -6.836854 20.046394 15.593243
v -6.893111 0.066815 15.615586
v -6.904691 0.066815 15.426513
v -3.705204 0.066814 -7.908099
v -3.693626 0.066814 -7.719020
v -3.761469 20.046392 -7.741373
v -3.761469 20.046394 15.593234
v -3.705205 0.066815 15.426512
v -3.693626 0.066815 15.615587
v -0.437872 20.046392 -7.741364
v -0.494131 0.066814 -7.719021
v -0.505709 0.066814 -7.908097
v -0.437872 20.046394 15.593243
v -0.505710 0.066815 15.426513
v -0.494131 0.066815 15.615586
v 2.761619 20.046392 -7.741364
v 2.693786 0.066813 -7.908098
v 2.705363 0.066814 -7.719020
v 2.693785 0.066814 15.426512
v 2.761619 20.046394 15.593243
v 2.705364 0.066815 15.615588
v 5.837004 20.046392 -7.741373
v 5.893271 0.066814 -7.908097
v 5.904849 0.066814 -7.719021
v 5.837004 20.046394 15.593234
v 5.893270 0.066815 15.426513
v 5.904850 0.066815 15.615586
v 9.160601 20.046392 -7.741364
v 9.092763 0.066813 -7.908098
v 9.104342 0.066814 -7.719020
v 9.160601 20.046394 15.593243
v 9.092762 0.066814 15.426512
v 9.104342 0.066815 15.615587
v 12.360091 20.046392 -7.741364
v 12.292253 0.066813 -7.908098
v 12.303833 0.066814 -7.719020
v 12.360091 20.046394 15.593243
v 12.292253 0.066814 15.426512
v 12.303834 0.066815 15.615587
v 15.491742 0.066814 -7.908097
v 15.559581 20.046392 -7.741364
v 15.503326 0.066814 -7.719021
v 15.559581 20.046394 15.593243
v 15.491741 0.066815 15.426513
v 15.503327 0.066816 15.615586
v 14.995144 21.303961 6.873994
v -9.998409 20.007151 -3.198406
v -9.998409 23.000002 12.921843
v -7.024114 3.128280 -6.719769
v -7.024114 3.109951 -11.780073
v 5.939055 3.036090 -7.694440
v -5.955819 3.055992 -7.642657
v -5.802313 3.055993 -7.631661
v -5.822248 0.045046 -7.579885
v 5.822248 0.045046 -7.579885
v 5.873608 3.055993 -7.559786
v 5.884515 3.055992 -7.714542
v 3.969368 5.504494 -7.920404
v -4.022499 5.535643 -7.849180
v -4.022499 4.036124 -7.828330
v -11.997245 0.043219 -12.230067
v -11.995780 0.031309 -12.309569
v -11.993615 8.054441 -12.273847
v -12.000106 7.532214 -12.275034
v -9.998409 7.527410 -12.264446
v -12.000106 6.131644 -12.272657
v 11.998938 0.043219 -12.230066
v 12.000403 0.031309 -12.309570
v 12.002567 8.054441 -12.273847
v 11.998091 7.527410 -12.264446
v 13.999787 6.131644 -12.275033
v 13.999787 7.532213 -12.272658
v 11.002029 20.007776 0.829821
v 14.993834 21.302652 0.829821
v 14.993834 20.007776 6.877667
v -21.542934 0.045853 -21.900000
v -19.446907 0.495787 -19.787117
v -21.542934 0.493368 -19.581659
v -19.450712 1.290964 -21.698406
v -19.250111 0.494177 -19.584858
v -21.342796 1.290964 -19.783255
v -19.250574 0.045856 21.543695
v -21.542934 0.493371 21.543695
v -19.450737 0.495789 19.426950
v -21.346603 1.290967 19.430788
v -19.250111 0.494180 21.540497
v -19.450712 1.290967 19.426950
v 19.446907 0.495786 -21.694544
v 21.542934 0.045853 -19.581659
v 21.542934 0.493368 -21.900000
v 19.450712 1.290964 -19.783255
v 21.346603 1.290964 -19.787092
v 19.250111 0.494176 -21.896801
v 19.446907 0.495789 19.430813
v 21.542934 0.493371 19.225355
v 21.542934 0.045856 21.543695
v 21.342796 1.290967 19.426950
v 19.450712 1.290967 21.342102
v 21.543398 0.494180 21.540497
v -12.037868 0.540244 -20.001076
v -14.347717 0.687401 -19.545786
v -12.037868 0.527955 -19.464638
v -12.043191 0.678120 -19.505392
v -12.043192 1.238440 -19.496653
v -14.061993 0.470544 -19.964689
v -14.020107 0.485200 -19.489265
v -14.015437 0.034063 -19.489260
v -12.333807 0.048715 -19.964689
v -12.375697 0.034067 -19.489262
v -12.380367 0.485200 -19.489267
v 14.347717 0.687384 -19.545687
v 12.037869 0.540244 -19.464638
v 12.037868 0.527955 -20.001076
v 12.043192 1.238440 -19.505392
v 12.043192 0.678120 -19.496651
v 14.347717 0.687401 -19.456257
v 12.333807 0.470544 -19.964689
v 12.375697 0.485193 -19.489262
v 12.380367 0.034060 -19.489267
v 14.061900 0.470564 -19.964689
v 14.015436 0.485196 -19.489260
v 14.020106 0.034059 -19.489265
v -3.443818 0.897394 -20.794617
v -3.541084 0.918926 -20.693172
v -3.493899 -0.000002 -20.735235
v 3.504987 -0.000002 -20.735235
v 3.555069 0.897394 -20.794617
v 3.457803 0.918926 -20.693172
v 13.372752 3.110633 -19.091635
v 18.976980 3.036089 -16.903297
v 13.372752 3.127591 -16.342178
v 13.934608 0.045045 -16.903297
v 13.883246 3.055995 -16.923391
v 13.872337 3.055995 -16.768644
v 18.922443 3.055997 -16.923393
v 18.860174 0.045045 -16.903297
v 18.911537 3.055997 -16.768642
v 14.408113 0.035711 -18.235626
v 14.373446 0.039934 -18.216509
v 14.391039 0.740588 -18.196115
v 14.420999 0.740310 -18.209110
v 14.396224 0.738352 -18.250923
v 14.378819 0.740526 -18.235754
v 14.378819 0.740526 -18.206032
v 14.395899 0.717526 -18.220095
v 14.396265 0.770088 -18.221813
v 14.397141 0.747294 -17.501074
v 14.421491 0.740767 -17.518511
v 14.372713 0.740526 -18.217695
v 14.373928 0.746622 -18.217695
v 14.376392 0.745216 -18.220894
v 14.371357 0.747540 -18.217594
v 14.369277 0.743694 -18.220894
v 14.371498 0.747640 -18.223850
v 14.373928 0.740767 -17.518511
v 14.416599 0.728978 -18.217695
v 14.420299 0.741216 -18.220894
v 14.421491 0.746622 -18.217695
v 14.425879 0.743694 -18.236979
v 14.422286 0.742601 -18.221100
v 15.191431 0.042181 -18.195486
v 15.204570 0.031617 -18.225746
v 15.199773 0.744747 -18.247437
v 15.195388 0.746894 -18.195194
v 15.220172 0.741216 -18.220894
v 15.221363 0.746622 -18.217695
v 15.225753 0.743694 -18.236979
v 15.221916 0.741359 -18.220900
v 15.222158 0.742601 -18.221100
v 15.216472 0.728978 -18.217695
v 15.192628 0.769756 -18.221939
v 15.194855 0.747243 -17.500818
v 15.221363 0.740767 -17.518511
v 15.175903 0.729568 -18.220816
v 15.173800 0.740526 -18.217937
v 15.173800 0.740646 -18.223850
v 15.176266 0.745216 -18.220894
v 15.183150 0.715438 -18.214521
v 16.004444 0.031619 -18.225748
v 16.019266 0.741112 -18.233763
v 15.995172 0.758497 -18.216146
v 15.991302 0.042182 -18.195486
v 15.975776 0.729568 -18.220816
v 15.973674 0.740526 -18.217937
v 15.973673 0.740646 -18.223850
v 15.976138 0.745216 -18.220894
v 15.992351 0.769753 -18.221870
v 15.985538 0.712114 -18.213203
v 15.989301 0.769367 -17.512615
v 16.002144 0.718325 -17.513664
v 16.021235 0.740767 -18.217695
v 16.020044 0.741215 -18.220894
v 16.021843 0.745157 -18.218433
v 16.021235 0.740526 -18.217937
v 16.019407 0.743694 -18.219624
v 16.021282 0.746506 -17.518511
v 16.797457 0.030486 -18.219383
v 16.825130 0.745181 -18.220215
v 16.790607 0.739476 -18.245359
v 16.790693 0.740569 -18.196079
v 16.778437 0.740526 -18.206032
v 16.768894 0.743694 -18.220894
v 16.771116 0.747640 -18.223850
v 16.771591 0.756056 -18.219093
v 16.773546 0.740767 -18.217695
v 16.776558 0.745443 -18.220894
v 16.781296 0.740399 -18.239145
v 16.773546 0.048214 -18.217937
v 16.819958 0.741115 -18.220894
v 16.821110 0.746622 -18.217695
v 16.825497 0.743694 -18.236979
v 16.821905 0.742601 -18.221098
v 16.791828 0.769667 -18.222517
v 16.794674 0.747050 -17.500822
v 16.796270 0.717274 -18.219488
v 16.782440 0.728834 -18.220894
v 16.816217 0.728978 -18.217695
v 16.821110 0.740767 -17.518511
v 17.591047 0.042182 -18.195486
v 17.603647 0.031581 -18.225718
v 17.603792 0.746986 -18.243032
v 17.595402 0.747308 -18.195318
v 17.625370 0.744328 -18.220894
v 17.622156 0.739875 -18.220795
v 17.623411 0.746622 -18.222178
v 17.623411 0.740767 -18.224092
v 17.615105 0.727414 -18.219107
v 17.581556 0.718158 -18.215302
v 17.613808 0.761090 -18.216629
v 17.586496 0.766694 -18.221380
v 17.575521 0.729569 -18.220816
v 17.598967 0.743398 -17.500662
v 17.573420 0.740526 -18.217937
v 17.573421 0.740646 -18.223850
v 17.575886 0.745216 -18.220894
v 17.620981 0.740767 -17.518511
v 18.390921 0.042182 -18.195486
v 18.394915 0.747198 -18.195358
v 18.403830 0.031617 -18.225756
v 18.399689 0.744655 -18.247400
v 18.424524 0.740735 -18.217905
v 18.419729 0.743405 -18.220238
v 18.418894 0.727766 -18.220894
v 18.423283 0.746622 -18.222178
v 18.423283 0.740767 -18.224092
v 18.415962 0.728978 -18.217695
v 18.382460 0.716785 -18.214666
v 18.388180 0.768294 -18.220804
v 18.415962 0.758411 -18.217695
v 18.398838 0.743398 -17.500662
v 18.375393 0.729569 -18.220816
v 18.373291 0.740526 -18.217937
v 18.373293 0.740646 -18.223850
v 18.375757 0.745216 -18.220894
v 18.420853 0.740767 -17.518511
v 19.190794 0.042182 -18.195486
v 19.203936 0.031617 -18.225746
v 19.194752 0.746894 -18.195194
v 19.199137 0.744747 -18.247437
v 19.215836 0.728978 -18.217695
v 19.191994 0.769754 -18.221939
v 19.182512 0.715438 -18.214521
v 19.175264 0.729569 -18.220816
v 19.173162 0.740526 -18.217937
v 19.173162 0.740646 -18.223850
v 19.175629 0.745216 -18.220894
v 19.194220 0.747241 -17.500818
v 19.219536 0.741215 -18.220894
v 19.220728 0.746622 -18.217695
v 19.225115 0.743694 -18.236979
v 19.221279 0.741359 -18.220898
v 19.221519 0.742601 -18.221098
v 19.220728 0.740767 -17.518511
v -20.000372 1.841573 -17.008638
v -20.793150 0.045045 -16.409246
v -20.000357 0.045045 -17.008617
v -20.698355 1.544163 -17.032671
v -20.095158 1.544163 -17.030298
v -20.693535 0.693791 -17.040884
vn 0.1374 -0.6422 -0.7541
vn 0.8827 -0.4698 -0.0096
vn 0.8825 -0.4703 -0.0100
vn 0.5934 0.7907 -0.1509
vn 0.6440 0.7348 0.2128
vn 0.9591 0.2762 -0.0611
vn -0.0570 -0.0150 -0.9983
vn -0.6723 0.3816 -0.6343
vn -0.8462 0.5326 -0.0180
vn 0.7103 0.2345 -0.6637
vn 0.7103 0.2345 -0.6638
vn 0.7104 0.2345 -0.6636
vn 0.8825 -0.4703 -0.0099
vn -0.6247 0.2423 -0.7423
vn 0.8827 -0.4699 -0.0091
vn 0.8828 -0.4697 -0.0096
vn -0.9807 0.1955 0.0016
vn 0.8492 0.5281 -0.0044
vn -0.2115 0.9266 -0.3110
vn 0.2827 -0.3212 -0.9038
vn 0.0121 -0.2564 -0.9665
vn 0.2023 0.0306 0.9788
vn -0.8498 -0.2235 0.4773
vn -0.8125 -0.2157 0.5416
vn -0.5382 -0.5682 0.6225
vn -0.5945 -0.7141 -0.3696
vn -0.0303 -0.1207 -0.9922
vn 0.2711 -0.3230 -0.9067
vn 0.2713 -0.3227 -0.9068
vn 0.2713 -0.3224 -0.9069
vn -0.5482 -0.8348 -0.0514
vn -0.0900 -0.0849 -0.9923
vn 0.4701 -0.6227 -0.6255
vn 0.3242 -0.7474 0.5799
vn 0.0120 -0.2561 -0.9666
vn 0.0118 -0.2563 -0.9665
vn 0.0119 -0.2561 -0.9666
vn -0.4831 -0.0020 -0.8756
vn 0.4652 -0.8330 -0.2995
vn -0.3657 -0.9122 0.1851
vn 0.5758 0.8176 0.0068
vn -0.2240 -0.7528 0.6190
vn -0.9211 -0.0351 -0.3878
vn 0.1242 -0.9041 -0.4090
vn 0.1090 0.9093 0.4017
vn -0.1839 0.9825 -0.0295
vn -0.8399 0.5424 0.0192
vn 0.5757 0.8176 0.0068
vn -0.2273 -0.7470 0.6248
vn 0.1299 -0.9169 0.3774
vn -0.0892 0.9960 0.0002
vn -0.2024 0.9793 -0.0003
vn -0.8415 0.5402 -0.0033
vn -0.0668 -0.0087 -0.9977
vn -0.2888 0.0726 0.9546
vn -0.1258 0.9915 -0.0335
vn -0.9961 -0.0832 0.0301
vn 0.5761 0.8174 0.0068
vn -0.2172 -0.7514 0.6231
vn -0.9268 -0.0347 -0.3740
vn 0.1692 -0.9058 0.3884
vn -0.0024 0.9989 0.0465
vn -0.4968 0.8671 0.0362
vn -0.8943 0.4465 0.0296
vn 1.0000 -0.0011 0.0034
vn -0.2188 -0.7520 0.6218
vn -0.9236 -0.0349 -0.3817
vn 0.1650 -0.9068 0.3879
vn -0.0024 0.9989 0.0464
vn -0.4139 0.9096 0.0372
vn -0.8813 0.4717 0.0291
vn -0.2245 -0.7520 0.6198
vn 0.1234 -0.9049 -0.4074
vn 0.1091 0.9093 0.4017
vn -0.1838 0.9825 -0.0292
vn -0.8400 0.5422 0.0195
vn -0.3895 0.7891 0.4751
vn -0.3882 0.7901 0.4744
vn -0.3880 0.7901 0.4745
vn -0.3881 0.7901 0.4744
vn -0.2807 0.8509 -0.4440
vn -0.3906 -0.9206 0.0058
vn -0.1973 -0.9795 0.0409
vn 0.4806 -0.8762 0.0354
vn 0.0384 0.0842 0.9957
vn 0.8329 0.5257 0.1727
vn 0.4034 0.8869 0.2252
vn -0.3751 -0.9258 0.0474
vn -0.4952 -0.8675 0.0468
vn 0.3791 -0.9247 0.0350
vn 0.1290 0.0883 0.9877
vn 0.1287 0.0885 0.9877
vn 0.1288 0.0884 0.9877
vn -0.1387 -0.9895 0.0410
vn 0.5037 -0.8631 0.0369
vn 0.0457 0.9990 0.0014
vn 0.0063 1.0000 -0.0058
vn 0.3092 0.9498 0.0475
vn -0.3747 -0.9261 0.0431
vn -0.5140 -0.8567 0.0437
vn 0.3440 -0.9386 0.0271
vn 0.0382 0.0843 0.9957
vn 0.8329 0.5257 0.1729
vn 0.4032 0.8870 0.2251
vn -0.4953 -0.8675 0.0468
vn 0.2347 0.3887 -0.8910
vn 0.2461 0.4193 -0.8738
vn 0.2463 0.4189 -0.8740
vn 0.2462 0.4190 -0.8740
vn 0.7112 0.7023 0.0317
vn -0.0001 -1.0000 0.0005
vn -0.0000 -1.0000 0.0010
vn -0.0000 -0.0000 -0.0000
vn 1.0000 -0.0000 -0.0000
vn -0.0000 0.8321 0.5547
vn -0.0000 0.8682 0.4961
vn -0.0000 0.6585 0.7526
vn 0.9995 -0.0312 -0.0000
vn 0.9998 -0.0186 -0.0000
vn 0.9998 -0.0176 -0.0000
vn -0.9969 0.0117 -0.0779
vn -0.0000 0.2040 -0.9790
vn -0.0000 -0.0000 1.0000
vn -0.7295 0.0043 -0.6839
vn -0.6592 0.0039 -0.7519
vn -0.6854 0.0040 -0.7282
vn 0.9980 -0.0078 0.0624
vn 0.9969 -0.0097 0.0779
vn 0.9969 -0.0078 0.0779
vn -1.0000 -0.0000 -0.0000
vn -0.0000 0.0076 -1.0000
vn -0.6247 0.0061 -0.7809
vn -0.6441 0.0063 -0.7649
vn -0.6153 -0.0036 -0.7883
vn -0.6907 -0.0027 -0.7231
vn -0.6392 -0.0037 -0.7690
vn -0.0000 -0.0086 -1.0000
vn -0.6695 -0.0065 -0.7428
vn -0.6907 -0.0067 -0.7231
vn -0.1865 -0.9089 0.3729
vn -0.1826 -0.9129 0.3651
vn -0.1509 -0.7828 0.6036
vn -0.0000 -1.0000 -0.0000
vn -0.9839 0.1789 -0.0000
vn -0.9848 0.1738 -0.0000
vn -0.9873 0.1587 -0.0000
vn 0.6556 0.7493 0.0937
vn 0.9091 0.4041 0.1010
vn 0.8242 0.5494 0.1374
vn 0.1843 -0.0000 -0.9829
vn 0.1240 -0.0000 -0.9923
vn 0.0933 -0.0000 -0.9956
vn -0.0000 0.3162 -0.9487
vn -0.0000 0.2169 -0.9762
vn -0.0000 0.1521 -0.9884
vn -0.6838 0.4558 -0.5698
vn -0.6623 0.5298 -0.5298
vn 0.6000 -0.0000 0.8000
vn 0.5547 -0.0000 0.8321
vn 0.3714 -0.0000 0.9285
vn 0.0176 0.0156 -0.9997
vn 0.3487 0.9372 -0.0000
vn 0.3466 0.9370 -0.0433
vn 0.3251 0.9448 -0.0406
vn -0.1558 0.0495 0.9866
vn -0.1118 0.0489 0.9925
vn -0.7493 0.6556 0.0937
vn -0.7435 0.6622 0.0929
vn -0.7209 0.6871 0.0901
vn -0.3510 0.9323 -0.0877
vn -0.3274 0.9413 -0.0819
vn -0.0000 -0.1240 -0.9923
vn -0.0000 -0.4472 -0.8944
vn 0.9918 -0.0310 0.1240
vn 0.9411 -0.0261 0.3372
vn -0.1275 -0.0257 0.9915
vn 0.8143 0.0567 -0.5777
vn -0.4478 -0.0005 -0.8941
vn -0.9247 0.0014 0.3806
vn -0.8364 -0.0349 -0.5470
vn 0.0663 0.9891 0.1318
vn 0.8999 -0.3514 0.2582
vn 0.1287 -0.0193 -0.9915
vn 0.0198 0.9873 -0.1579
vn 0.0209 0.9941 0.1062
vn -0.7556 -0.6545 0.0265
vn -0.0544 0.0104 -0.9985
vn -0.0029 -0.0327 -0.9995
vn -0.3209 0.2185 -0.9216
vn -0.0010 -0.0327 -0.9995
vn 0.6372 0.6099 -0.4713
vn 0.0087 0.9995 -0.0298
vn 0.2350 0.8935 0.3828
vn -0.2468 -0.9689 0.0181
vn 0.5522 -0.1370 0.8224
vn 0.9637 -0.2672 -0.0022
vn 0.6264 -0.2868 -0.7248
vn -0.7221 0.6914 0.0227
vn 0.0723 -0.0298 -0.9969
vn 0.1301 0.9911 -0.0298
vn -0.9071 -0.0382 -0.4192
vn 0.9001 -0.3510 0.2583
vn -0.7258 0.0038 0.6879
vn 0.0603 -0.1561 -0.9859
vn -0.0867 -0.1199 -0.9890
vn 0.1433 -0.1584 -0.9769
vn 0.5891 0.6518 -0.4776
vn -0.2259 -0.9740 0.0180
vn 0.5329 -0.1104 0.8390
vn 0.2299 -0.1584 -0.9602
vn 0.4432 -0.4261 -0.7887
vn 0.8857 -0.4638 -0.0216
vn 0.0002 -0.0028 -1.0000
vn -0.3745 -0.0138 -0.9271
vn -0.1778 0.0107 -0.9840
vn -0.1551 -0.1420 -0.9776
vn -0.1553 -0.1420 -0.9776
vn -0.0043 0.0288 0.9996
vn -0.1072 0.0292 0.9938
vn 0.1545 -0.0144 -0.9879
vn 0.5169 0.8552 -0.0383
vn 0.8924 -0.4484 -0.0499
vn -0.9691 -0.2445 0.0312
vn 0.0634 -0.1669 -0.9839
vn 0.2113 -0.1487 -0.9660
vn 0.4459 -0.4217 -0.7895
vn 0.1070 0.0274 0.9939
vn 0.1247 -0.1619 -0.9789
vn -0.1051 -0.1357 -0.9852
vn 0.6403 0.7681 0.0032
vn -0.3666 -0.9302 0.0170
vn 0.6253 -0.7803 -0.0079
vn -0.0950 -0.9954 0.0111
vn 0.9904 -0.1288 0.0501
vn 0.0356 -0.0174 0.9992
vn 0.0474 -0.0175 0.9987
vn -0.9185 -0.0003 0.3954
vn -0.4969 -0.0180 0.8676
vn 0.8285 -0.1986 -0.5236
vn -0.7162 -0.0357 -0.6970
vn 0.0279 -0.0363 -0.9989
vn 0.9990 -0.0387 0.0203
vn -0.5669 0.4799 0.6696
vn 0.9050 -0.3387 0.2574
vn -0.9250 -0.0000 0.3801
vn 0.0209 0.9941 0.1068
vn -0.1944 0.9767 -0.0908
vn -0.0108 -0.0329 0.9994
vn 0.0198 0.9881 -0.1528
vn -0.0011 -0.0578 -0.9983
vn 0.9636 -0.2672 -0.0022
vn 0.5873 0.6551 -0.4753
vn -0.2201 -0.9753 0.0180
vn 0.5358 -0.1051 0.8378
vn 0.6965 -0.0050 0.7175
vn -0.0124 -0.0002 0.9999
vn -0.3124 0.2454 0.9177
vn -0.7178 0.0043 0.6962
vn -0.0571 -0.0289 -0.9980
vn -0.8610 -0.0354 -0.5075
vn 0.1422 -0.0241 -0.9895
vn -0.1481 -0.1081 -0.9830
vn 0.1089 -0.1345 -0.9849
vn 0.0235 -0.1377 -0.9902
vn 0.9178 -0.3970 -0.0001
vn 0.7766 -0.0858 0.6242
vn 0.9078 0.4183 0.0292
vn 0.6362 0.7709 0.0322
vn -0.0846 -0.9187 0.3857
vn 0.3256 -0.1366 -0.9356
vn 0.4402 -0.2984 -0.8468
vn 0.8875 -0.4598 -0.0296
vn 0.6365 0.7710 0.0212
vn -0.8077 0.2249 0.5451
vn 0.9172 -0.3985 0.0003
vn 0.9237 -0.3832 -0.0000
vn 0.7762 -0.0872 0.6244
vn 0.1694 0.9823 -0.0798
vn 0.0659 0.3320 0.9410
vn 0.9270 0.3738 0.0300
vn -0.1688 -0.0981 -0.9808
vn 0.1037 -0.1291 -0.9862
vn 0.0169 -0.1306 -0.9913
vn -0.0618 -0.0353 -0.9975
vn -0.9054 -0.0379 -0.4228
vn -0.0565 -0.0304 -0.9979
vn -0.7229 0.0040 0.6910
vn 0.5780 -0.3027 0.7578
vn 0.3104 -0.1331 -0.9412
vn 0.4824 -0.3283 -0.8121
vn 0.8878 -0.4592 -0.0296
vn 0.8878 -0.4592 -0.0297
vn 0.9001 -0.3512 0.2579
vn -0.9071 -0.0383 -0.4192
vn 0.5330 -0.1104 0.8389
vn 0.0603 -0.1562 -0.9859
vn 0.1432 -0.1584 -0.9769
vn 0.2297 -0.1583 -0.9603
vn 0.4428 -0.4266 -0.7887
vn 0.5890 0.6519 -0.4775
vn 0.8853 -0.4645 -0.0216
vn 0.8853 -0.4645 -0.0215
vn -0.0070 1.0000 -0.0000
vn -0.0073 1.0000 -0.0000
vn -0.7506 0.1494 -0.6437
vn 0.1473 -0.6888 0.7098
vn -0.1459 0.6328 0.7604
vn -0.4417 0.5268 -0.7262
vn -0.9753 -0.0055 -0.2210
vn -0.7011 -0.6827 -0.2057
vn -0.7012 -0.6827 -0.2056
vn -0.4425 0.5266 -0.7259
vn -0.9752 -0.0058 -0.2212
vn -0.9652 0.1580 -0.2082
vn -0.9656 0.1576 -0.2067
vn -0.9654 0.1579 -0.2075
vn -0.7790 0.0147 -0.6268
vn -0.3017 0.9532 0.0195
vn 0.8252 -0.5437 0.1531
vn -0.7797 0.0150 -0.6260
vn -0.6416 0.7669 0.0157
vn -0.6417 0.7668 0.0154
vn -0.6418 0.7668 0.0153
vn 0.8282 -0.5411 0.1462
vn 0.8869 0.3697 -0.2771
vn 0.9019 -0.1620 -0.4004
vn 0.5747 0.8173 -0.0413
vn 0.5749 0.8172 -0.0407
vn 0.5748 0.8173 -0.0410
vn 0.1472 -0.6444 -0.7504
vn 0.5553 0.3850 -0.7372
vn 0.6021 0.1486 0.7845
vn -0.4677 0.5148 -0.7185
vn -0.9752 -0.0060 -0.2210
vn 0.6074 -0.7901 0.0826
vn 0.6074 -0.7899 0.0841
vn 0.6073 -0.7901 0.0832
vn -0.6998 0.2659 0.6630
vn -0.7032 -0.2222 0.6753
vn -0.7793 0.0148 -0.6264
vn -0.3127 0.9496 0.0200
vn -0.3125 0.9497 0.0199
vn -0.3124 0.9498 0.0196
vn 0.8948 -0.4424 -0.0594
vn -0.5204 -0.8480 0.1001
vn -0.5205 -0.8480 0.1000
vn 0.5212 -0.0630 0.8511
vn 0.5212 -0.0631 0.8511
vn -0.7788 0.0147 -0.6271
vn -0.3133 0.9495 0.0200
vn -0.3127 0.9496 0.0199
vn 0.8804 -0.4743 -0.0015
vn -0.7793 0.0147 -0.6265
vn -0.3017 0.9532 0.0194
vn 0.8246 -0.5447 0.1531
vn -0.4414 0.5274 -0.7260
vn -0.9753 -0.0045 -0.2209
vn -0.9660 0.1533 -0.2083
vn -0.9660 0.1532 -0.2082
vn -0.9660 0.1531 -0.2082
vn -0.2763 0.9611 0.0080
vn 0.8272 -0.5618 0.0046
vn 0.8276 -0.5613 0.0052
vn 0.7153 -0.0171 -0.6987
vn 0.5864 0.7042 -0.4003
vn -0.0985 0.9522 -0.2893
vn -0.0988 0.9522 -0.2891
vn -0.0987 0.9522 -0.2892
vn -0.6256 -0.4582 -0.6314
vn -0.5985 0.4540 -0.6601
vn 0.0945 -0.2791 -0.9556
vn 0.0946 -0.2795 -0.9555
vn 0.5691 -0.7583 -0.3179
vn -0.4981 -0.1415 -0.8555
vn 0.1196 -0.2884 -0.9500
vn -0.0267 -0.1956 -0.9803
vn -0.0267 -0.1952 -0.9804
vn -0.1591 -0.0296 -0.9868
vn -0.1590 -0.0300 -0.9868
vn -0.1590 -0.0298 -0.9868
vn 0.0958 -0.2792 -0.9554
vn -0.9895 -0.0531 0.1344
vn -0.8703 -0.0378 -0.4911
vn 0.9920 -0.0221 -0.1242
vn -0.8698 -0.0378 -0.4920
vn -0.9946 -0.0026 0.1035
vn -0.8703 -0.0378 -0.4910
vn 0.1256 0.9920 0.0087
vn 0.7395 -0.0113 -0.6731
vn 0.7395 -0.0114 -0.6731
vn -0.8710 -0.0378 -0.4898
vn -0.8701 -0.0378 -0.4914
vn 0.3186 -0.9368 -0.1444
vn 0.3182 -0.9370 -0.1444
vn 0.3180 -0.9370 -0.1447
vn -0.5450 0.6774 0.4941
vn 0.7289 -0.2453 -0.6392
vn 0.7287 -0.2454 -0.6394
vn 0.7286 -0.2453 -0.6395
vn -0.5449 0.6773 0.4942
vn 0.7294 -0.2458 -0.6384
vn 0.7292 -0.2460 -0.6386
vn 0.7288 -0.2461 -0.6389
vn -0.5236 0.7002 -0.4854
vn -0.2064 0.9768 -0.0575
vn -0.2328 0.9714 -0.0475
vn -0.2078 0.9759 -0.0667
vn -0.2061 0.9768 -0.0573
vn -0.2061 0.9768 -0.0572
vn 0.4732 0.3689 -0.8000
vn 0.4324 0.3869 -0.8145
vn 0.3921 0.3515 -0.8501
vn 0.4352 0.3829 -0.8149
vn 0.3158 0.5319 -0.7857
vn 0.8852 0.4311 -0.1749
vn 0.4319 0.3867 -0.8148
vn -0.6305 -0.0068 0.7762
vn -0.6304 -0.0315 0.7757
vn 0.7798 0.0298 0.6253
vn 0.5052 -0.6388 0.5803
vn -0.1494 -0.9681 -0.2010
vn 0.9596 -0.2659 0.0923
vn 0.3366 0.9416 0.0079
vn 0.3272 0.9316 -0.1586
vn 0.4938 -0.6170 0.6128
vn -0.4955 -0.8161 -0.2976
vn 0.9595 -0.2659 0.0928
vn -0.9991 -0.0433 -0.0012
vn -0.9752 -0.2199 0.0258
vn -0.9991 -0.0433 -0.0006
vn -0.9115 0.1880 0.3658
vn 0.4902 0.6713 0.5559
vn -0.9632 -0.2677 0.0252
vn 0.5807 0.8141 -0.0067
vn -0.9038 0.2482 -0.3487
vn -0.8296 -0.0344 -0.5574
vn 0.5225 -0.6027 0.6031
vn 0.5226 -0.6027 0.6030
vn 0.5225 -0.6027 0.6030
vn -0.1598 -0.9646 -0.2096
vn -0.5542 -0.1961 -0.8090
vn 0.9576 -0.2657 0.1112
vn 0.0409 -0.0080 0.9991
vn -0.9991 -0.0426 -0.0013
vn 0.3444 -0.2913 0.8925
vn 0.3445 -0.2912 0.8925
vn 0.3446 -0.2912 0.8925
vn -0.9795 -0.1989 0.0309
vn 0.8054 -0.0133 -0.5926
vn 0.9785 0.0644 -0.1962
vn 0.7419 -0.1730 -0.6478
vn 0.3732 -0.2886 0.8817
vn -0.9991 -0.0430 -0.0011
vn -0.9743 -0.2230 0.0307
vn -0.9991 -0.0434 -0.0010
vn 0.4944 -0.6161 0.6131
vn -0.4955 -0.8160 -0.2976
vn 0.9595 -0.2662 0.0922
vt 0.117476 0.977718
vt 0.117512 0.977729
vt 0.117517 0.977700
vt 0.134279 0.977693
vt 0.134310 0.977692
vt 0.134308 0.977658
vt 0.130026 0.977693
vt 0.130056 0.977692
vt 0.130055 0.977658
vt 0.094849 0.982884
vt 0.094825 0.982786
vt 0.094844 0.982795
vt 0.064099 0.988004
vt 0.064075 0.988010
vt 0.064092 0.988048
vt 0.908407 0.977527
vt 0.908448 0.977727
vt 0.908410 0.977544
vt 0.138533 0.977693
vt 0.138563 0.977692
vt 0.138562 0.977658
vt 0.085445 0.982790
vt 0.085417 0.982803
vt 0.085462 0.982817
vt 0.121518 0.977693
vt 0.121549 0.977692
vt 0.121547 0.977658
vt 0.125772 0.977693
vt 0.125803 0.977692
vt 0.125801 0.977658
vt 0.113541 0.977690
vt 0.117471 0.977707
vt 0.117477 0.977753
vt 0.094805 0.977551
vt 0.094847 0.982770
vt 0.035807 0.987964
vt 0.035759 0.988065
vt 0.035759 0.987932
vt 0.341616 0.977528
vt 0.341524 0.977552
vt 0.341514 0.977535
vt 0.345781 0.977528
vt 0.345689 0.977552
vt 0.345679 0.977535
vt 0.094718 0.977535
vt 0.094908 0.977548
vt 0.023629 0.988033
vt 0.023637 0.988144
vt 0.023643 0.988202
vt 0.349945 0.977528
vt 0.349853 0.977551
vt 0.349844 0.977534
vt 0.929958 0.977866
vt 0.930163 0.977657
vt 0.930153 0.977750
vt 0.925490 0.977664
vt 0.925600 0.977878
vt 0.925602 0.977854
vt 0.354111 0.977528
vt 0.354018 0.977551
vt 0.354008 0.977535
vt 0.117517 0.982979
vt 0.117484 0.982979
vt 0.155207 0.977669
vt 0.155185 0.982889
vt 0.155185 0.977527
vt 0.134278 0.982920
vt 0.134305 0.977790
vt 0.134309 0.982920
vt 0.384946 0.977549
vt 0.385056 0.981491
vt 0.384949 0.981545
vt 0.142808 0.977669
vt 0.142786 0.982889
vt 0.142786 0.977527
vt 0.130025 0.982920
vt 0.130052 0.977789
vt 0.130055 0.982920
vt 0.393568 0.977550
vt 0.393625 0.981491
vt 0.393518 0.981545
vt 0.163580 0.982870
vt 0.163610 0.977591
vt 0.163613 0.982871
vt 0.406351 0.977547
vt 0.406480 0.981490
vt 0.406372 0.981511
vt 0.146941 0.977669
vt 0.146919 0.982889
vt 0.146919 0.977527
vt 0.138532 0.982920
vt 0.138559 0.977789
vt 0.138562 0.982920
vt 0.397800 0.977549
vt 0.397909 0.981491
vt 0.397803 0.981545
vt 0.104189 0.982803
vt 0.104234 0.977551
vt 0.104233 0.982817
vt 0.121517 0.982920
vt 0.121544 0.977789
vt 0.121548 0.982920
vt 0.402084 0.977549
vt 0.402194 0.981491
vt 0.402087 0.981545
vt 0.085463 0.977551
vt 0.125772 0.982920
vt 0.125798 0.977790
vt 0.125803 0.982920
vt 0.389231 0.977549
vt 0.389340 0.981491
vt 0.389234 0.981545
vt 0.151074 0.977669
vt 0.151052 0.982889
vt 0.151052 0.977527
vt 0.117381 0.977753
vt 0.117343 0.977739
vt 0.172061 0.977527
vt 0.171925 0.977581
vt 0.171888 0.977568
vt 0.167747 0.977582
vt 0.167613 0.977528
vt 0.167831 0.977576
vt 0.341550 0.982770
vt 0.912525 0.977672
vt 0.912677 0.977528
vt 0.912823 0.977532
vt 0.345715 0.982770
vt 0.094814 0.982776
vt 0.094835 0.982673
vt 0.094849 0.982772
vt 0.349880 0.982770
vt 0.104235 0.982907
vt 0.104218 0.982670
vt 0.104240 0.982793
vt 0.333221 0.982777
vt 0.333193 0.977537
vt 0.333195 0.977559
vt 0.916857 0.977672
vt 0.917009 0.977528
vt 0.917155 0.977532
vt 0.354044 0.982770
vt 0.930173 0.977617
vt 0.929879 0.977584
vt 0.930043 0.977534
vt 0.085329 0.982772
vt 0.085325 0.982798
vt 0.214716 0.977548
vt 0.214890 0.982778
vt 0.214710 0.982789
vt 0.336010 0.332026
vt 0.336010 0.002011
vt 0.665996 0.167015
vt 0.167001 0.332014
vt 0.002000 0.002008
vt 0.331994 0.002016
vt 0.015398 0.599742
vt 0.102030 0.336054
vt 0.188676 0.599739
vt 0.843286 0.002018
vt 0.756647 0.265707
vt 0.670008 0.002021
vt 0.450620 0.593415
vt 0.443670 0.336034
vt 0.457570 0.336036
vt 0.313964 0.336035
vt 0.307017 0.593530
vt 0.300075 0.336061
vt 0.486482 0.597555
vt 0.493431 0.764571
vt 0.479531 0.764574
vt 0.847322 0.140543
vt 0.973199 0.147511
vt 0.847563 0.154438
vt 0.331861 0.336035
vt 0.324914 0.593530
vt 0.317973 0.336061
vt 0.432680 0.593415
vt 0.425730 0.336034
vt 0.439630 0.336036
vt 0.847442 0.273033
vt 0.973077 0.266111
vt 0.973321 0.279998
vt 0.457570 0.597445
vt 0.450621 0.764463
vt 0.443671 0.597448
vt 0.199633 0.336048
vt 0.206570 0.593521
vt 0.192688 0.593538
vt 0.687953 0.794916
vt 0.694902 0.537540
vt 0.701852 0.794924
vt 0.847322 0.212282
vt 0.973199 0.219250
vt 0.847563 0.226177
vt 0.468537 0.597447
vt 0.475486 0.764462
vt 0.461586 0.764465
vt 0.289122 0.336048
vt 0.296059 0.593521
vt 0.282177 0.593538
vt 0.371912 0.593411
vt 0.378860 0.336035
vt 0.385811 0.593419
vt 0.847322 0.284022
vt 0.973199 0.290989
vt 0.847563 0.297916
vt 0.414694 0.597447
vt 0.421643 0.764462
vt 0.407743 0.764465
vt 0.511320 0.336035
vt 0.504372 0.593530
vt 0.497431 0.336061
vt 0.360921 0.593415
vt 0.353971 0.336034
vt 0.367871 0.336036
vt 0.847442 0.237165
vt 0.973077 0.230242
vt 0.973321 0.244129
vt 0.529245 0.603480
vt 0.522295 0.770499
vt 0.515346 0.603484
vt 0.224475 0.336035
vt 0.217527 0.593530
vt 0.210586 0.336061
vt 0.342982 0.593415
vt 0.336032 0.336034
vt 0.349932 0.336036
vt 0.847442 0.255100
vt 0.973077 0.248177
vt 0.973321 0.262063
vt 0.547161 0.603480
vt 0.540211 0.770499
vt 0.533262 0.603484
vt 0.242373 0.336035
vt 0.235425 0.593530
vt 0.228484 0.336061
vt 0.414741 0.593415
vt 0.407791 0.336034
vt 0.421690 0.336036
vt 0.847443 0.201295
vt 0.973077 0.194372
vt 0.973321 0.208259
vt 0.367895 0.597445
vt 0.360945 0.764463
vt 0.353996 0.597448
vt 0.493422 0.336035
vt 0.486474 0.593530
vt 0.479534 0.336061
vt 0.676962 0.794920
vt 0.670012 0.537539
vt 0.683912 0.537541
vt 0.847442 0.129556
vt 0.973077 0.122633
vt 0.973321 0.136520
vt 0.439630 0.597445
vt 0.432680 0.764463
vt 0.425731 0.597448
vt 0.253327 0.336048
vt 0.260263 0.593521
vt 0.246382 0.593538
vt 0.461611 0.593412
vt 0.468559 0.336035
vt 0.475510 0.593419
vt 0.403727 0.597445
vt 0.396778 0.764463
vt 0.389828 0.597448
vt 0.847442 0.165425
vt 0.973077 0.158503
vt 0.973321 0.172389
vt 0.271224 0.336048
vt 0.278161 0.593521
vt 0.264279 0.593538
vt 0.389852 0.593411
vt 0.396800 0.336035
vt 0.403751 0.593419
vt 0.847442 0.183359
vt 0.973077 0.176437
vt 0.973321 0.190324
vt 0.385811 0.597445
vt 0.378862 0.764463
vt 0.371912 0.597448
vt 0.459556 0.799251
vt 0.460100 0.949920
vt 0.459012 0.949920
vt 0.689449 0.799268
vt 0.689863 0.949897
vt 0.689033 0.949890
vt 0.742771 0.799268
vt 0.743185 0.949896
vt 0.742355 0.949890
vt 0.464662 0.799251
vt 0.465206 0.949920
vt 0.464117 0.949920
vt 0.469768 0.799251
vt 0.470312 0.949920
vt 0.469223 0.949920
vt 0.752466 0.799268
vt 0.752880 0.949897
vt 0.752050 0.949890
vt 0.444238 0.799251
vt 0.444782 0.949920
vt 0.443694 0.949920
vt 0.757314 0.799267
vt 0.757728 0.949897
vt 0.756898 0.949890
vt 0.474875 0.799251
vt 0.475418 0.949920
vt 0.474330 0.949920
vt 0.660364 0.799268
vt 0.660778 0.949897
vt 0.659948 0.949890
vt 0.479981 0.799251
vt 0.480524 0.949920
vt 0.479436 0.949920
vt 0.665211 0.799268
vt 0.665625 0.949897
vt 0.664796 0.949890
vt 0.694296 0.799268
vt 0.694710 0.949897
vt 0.693881 0.949890
vt 0.485087 0.799251
vt 0.485630 0.949920
vt 0.484542 0.949920
vt 0.699144 0.799268
vt 0.699558 0.949897
vt 0.698728 0.949890
vt 0.449344 0.799251
vt 0.449888 0.949920
vt 0.448800 0.949920
vt 0.490193 0.799251
vt 0.490736 0.949920
vt 0.489648 0.949920
vt 0.708839 0.799268
vt 0.709253 0.949897
vt 0.708423 0.949890
vt 0.454450 0.799251
vt 0.454994 0.949920
vt 0.453906 0.949920
vt 0.703991 0.799268
vt 0.704405 0.949897
vt 0.703576 0.949890
vt 0.713686 0.799268
vt 0.714100 0.949897
vt 0.713271 0.949890
vt 0.495299 0.799251
vt 0.495843 0.949920
vt 0.494754 0.949920
vt 0.500405 0.799251
vt 0.500949 0.949920
vt 0.499861 0.949920
vt 0.762161 0.799268
vt 0.762575 0.949896
vt 0.761745 0.949890
vt 0.505511 0.799251
vt 0.506055 0.949920
vt 0.504966 0.949920
vt 0.670059 0.799268
vt 0.670473 0.949897
vt 0.669643 0.949890
vt 0.510617 0.799251
vt 0.511161 0.949920
vt 0.510073 0.949920
vt 0.747619 0.799267
vt 0.748033 0.949897
vt 0.747203 0.949890
vt 0.674906 0.799268
vt 0.675320 0.949897
vt 0.674491 0.949890
vt 0.515723 0.799251
vt 0.516267 0.949920
vt 0.515179 0.949920
vt 0.737924 0.799268
vt 0.738338 0.949897
vt 0.737508 0.949890
vt 0.439132 0.799251
vt 0.439676 0.949920
vt 0.438587 0.949920
vt 0.718534 0.799268
vt 0.718948 0.949897
vt 0.718118 0.949890
vt 0.520829 0.799251
vt 0.521373 0.949920
vt 0.520285 0.949920
vt 0.723381 0.799267
vt 0.723795 0.949897
vt 0.722965 0.949890
vt 0.525936 0.799251
vt 0.526479 0.949920
vt 0.525391 0.949920
vt 0.531041 0.799251
vt 0.531585 0.949920
vt 0.530497 0.949920
vt 0.728229 0.799268
vt 0.728643 0.949897
vt 0.727813 0.949890
vt 0.536148 0.799251
vt 0.536691 0.949920
vt 0.535603 0.949920
vt 0.733076 0.799268
vt 0.733490 0.949897
vt 0.732660 0.949890
vt 0.541254 0.799251
vt 0.541797 0.949920
vt 0.540709 0.949920
vt 0.679754 0.799268
vt 0.680168 0.949897
vt 0.679338 0.949890
vt 0.546360 0.799251
vt 0.546904 0.949920
vt 0.545815 0.949920
vt 0.684601 0.799268
vt 0.685015 0.949897
vt 0.684186 0.949890
vt 0.381393 0.799248
vt 0.321133 0.949922
vt 0.260859 0.799255
vt 0.136305 0.949926
vt 0.196566 0.799251
vt 0.256839 0.949919
vt 0.952772 0.366178
vt 0.847322 0.347357
vt 0.952771 0.328532
vt 0.952772 0.407832
vt 0.847322 0.389010
vt 0.952771 0.370186
vt 0.847311 0.819882
vt 0.847318 0.819017
vt 0.869853 0.819469
vt 0.847319 0.746821
vt 0.847318 0.745956
vt 0.869883 0.746431
vt 0.847302 0.785053
vt 0.847302 0.784188
vt 0.869867 0.784657
vt 0.847325 0.761254
vt 0.847337 0.760597
vt 0.869887 0.760956
vt 0.847302 0.448835
vt 0.907506 0.454474
vt 0.847324 0.460111
vt 0.907470 0.469758
vt 0.847302 0.475402
vt 0.847303 0.464111
vt 0.907555 0.530945
vt 0.907561 0.531156
vt 0.847326 0.531025
vt 0.907558 0.517741
vt 0.907571 0.518043
vt 0.847326 0.517931
vt 0.234059 0.956196
vt 0.228812 0.971226
vt 0.223563 0.956217
vt 0.257810 0.971210
vt 0.252554 0.956196
vt 0.263065 0.956198
vt 0.907555 0.535195
vt 0.907561 0.535407
vt 0.847326 0.535275
vt 0.907558 0.513327
vt 0.907571 0.513628
vt 0.847326 0.513517
vt 0.243307 0.956206
vt 0.248553 0.971212
vt 0.238063 0.971240
vt 0.267068 0.971214
vt 0.272320 0.956197
vt 0.277574 0.971207
vt 0.847318 0.597462
vt 0.892493 0.582399
vt 0.892498 0.612513
vt 0.892493 0.548259
vt 0.892498 0.578373
vt 0.847318 0.563322
vt 0.847319 0.861026
vt 0.855964 0.843721
vt 0.864621 0.861020
vt 0.847313 0.886385
vt 0.864618 0.895030
vt 0.847319 0.903687
vt 0.427734 0.963352
vt 0.413452 0.970499
vt 0.413447 0.956214
vt 0.340186 0.970499
vt 0.340181 0.956215
vt 0.354468 0.963352
vt 0.053324 0.956211
vt 0.061981 0.973509
vt 0.044678 0.973516
vt 0.864621 0.882350
vt 0.847319 0.882357
vt 0.855964 0.865052
vt 0.438906 0.956212
vt 0.446053 0.970495
vt 0.431769 0.970499
vt 0.310695 0.970497
vt 0.303548 0.956214
vt 0.317832 0.956210
vt 0.847316 0.937697
vt 0.864615 0.929040
vt 0.864621 0.946342
vt 0.864618 0.916360
vt 0.847319 0.925018
vt 0.847313 0.907716
vt 0.321870 0.970499
vt 0.329007 0.956212
vt 0.336154 0.970495
vt 0.376814 0.956215
vt 0.391101 0.963352
vt 0.376819 0.970499
vt 0.031993 0.956210
vt 0.040650 0.973510
vt 0.023348 0.973516
vt 0.002014 0.964865
vt 0.019314 0.956208
vt 0.019320 0.973509
vt 0.409420 0.970494
vt 0.395135 0.970499
vt 0.402273 0.956212
vt 0.365640 0.956212
vt 0.372787 0.970494
vt 0.358502 0.970499
vt 0.092099 0.973508
vt 0.090151 0.956217
vt 0.094042 0.956213
vt 0.084194 0.973508
vt 0.082246 0.956217
vt 0.086137 0.956213
vt 0.068055 0.956218
vt 0.070109 0.973498
vt 0.065998 0.973504
vt 0.421909 0.977542
vt 0.423509 0.980977
vt 0.420297 0.980971
vt 0.486594 0.977538
vt 0.489167 0.979193
vt 0.486590 0.980749
vt 0.493186 0.977538
vt 0.495758 0.979193
vt 0.493181 0.980749
vt 0.429149 0.977542
vt 0.430749 0.980977
vt 0.427537 0.980971
vt 0.098058 0.973510
vt 0.100001 0.956215
vt 0.101949 0.973507
vt 0.105963 0.973510
vt 0.107906 0.956215
vt 0.109854 0.973507
vt 0.078234 0.956215
vt 0.076178 0.973501
vt 0.074124 0.956221
vt 0.124055 0.973490
vt 0.121998 0.956213
vt 0.126114 0.956216
vt 0.443629 0.977542
vt 0.445229 0.980977
vt 0.442017 0.980971
vt 0.499777 0.977538
vt 0.502350 0.979193
vt 0.499773 0.980749
vt 0.506369 0.977538
vt 0.508941 0.979193
vt 0.506364 0.980749
vt 0.436389 0.977542
vt 0.437989 0.980977
vt 0.434777 0.980971
vt 0.011964 0.983915
vt 0.011598 0.977552
vt 0.012201 0.977552
vt 0.021327 0.983908
vt 0.021126 0.977551
vt 0.021636 0.977552
vt 0.016698 0.983915
vt 0.016332 0.977552
vt 0.016935 0.977552
vt 0.026028 0.983909
vt 0.025828 0.977551
vt 0.026337 0.977552
vt 0.892493 0.661162
vt 0.847322 0.651007
vt 0.892491 0.640850
vt 0.892493 0.636843
vt 0.847322 0.626688
vt 0.892491 0.616532
vt 0.847302 0.789934
vt 0.847302 0.789068
vt 0.869867 0.789501
vt 0.847325 0.765932
vt 0.847337 0.765275
vt 0.869887 0.765605
vt 0.847325 0.770609
vt 0.847337 0.769952
vt 0.869887 0.770282
vt 0.847302 0.794814
vt 0.847302 0.793949
vt 0.869867 0.794381
vt 0.261720 0.982794
vt 0.261534 0.982778
vt 0.261545 0.977538
vt 0.261711 0.977535
vt 0.167619 0.977557
vt 0.167731 0.982808
vt 0.117477 0.982988
vt 0.904169 0.977532
vt 0.903845 0.977709
vt 0.903957 0.977547
vt 0.904021 0.977527
vt 0.904042 0.977542
vt 0.265903 0.982787
vt 0.265788 0.977551
vt 0.265981 0.977551
vt 0.904047 0.977528
vt 0.904130 0.977771
vt 0.903944 0.977914
vt 0.117483 0.977700
vt 0.117447 0.977841
vt 0.113504 0.977674
vt 0.019313 0.988062
vt 0.019577 0.988170
vt 0.019377 0.988252
vt 0.019530 0.987957
vt 0.155296 0.977667
vt 0.155282 0.982907
vt 0.341657 0.982772
vt 0.341657 0.977552
vt 0.117446 0.977619
vt 0.270284 0.982778
vt 0.270105 0.982791
vt 0.270175 0.977551
vt 0.270043 0.977551
vt 0.912701 0.977528
vt 0.912793 0.977732
vt 0.134331 0.982920
vt 0.134502 0.977693
vt 0.912675 0.977527
vt 0.912696 0.977542
vt 0.316655 0.982791
vt 0.316616 0.977551
vt 0.316726 0.977551
vt 0.973272 0.977574
vt 0.973500 0.977656
vt 0.973323 0.977861
vt 0.345822 0.977552
vt 0.345822 0.982772
vt 0.270284 0.977551
vt 0.142897 0.977667
vt 0.142883 0.982906
vt 0.973231 0.977874
vt 0.973182 0.977752
vt 0.384983 0.981516
vt 0.130078 0.982920
vt 0.130230 0.977693
vt 0.977671 0.977674
vt 0.977744 0.977864
vt 0.977748 0.977858
vt 0.308384 0.982791
vt 0.308345 0.977551
vt 0.308455 0.977551
vt 0.295764 0.982772
vt 0.295675 0.977538
vt 0.295775 0.977533
vt 0.977729 0.977850
vt 0.977633 0.977866
vt 0.393552 0.981516
vt 0.393396 0.977547
vt 0.964634 0.977574
vt 0.964596 0.977874
vt 0.964546 0.977753
vt 0.100076 0.982685
vt 0.100090 0.982864
vt 0.964702 0.977853
vt 0.964863 0.977655
vt 0.094714 0.982772
vt 0.094943 0.982789
vt 0.172061 0.982806
vt 0.171994 0.982826
vt 0.159324 0.982871
vt 0.159324 0.977527
vt 0.159318 0.977620
vt 0.159479 0.977645
vt 0.159580 0.977646
vt 0.329078 0.982772
vt 0.329027 0.977538
vt 0.329129 0.977533
vt 0.899715 0.977528
vt 0.899823 0.977636
vt 0.899805 0.977780
vt 0.899837 0.977531
vt 0.899689 0.977527
vt 0.899710 0.977542
vt 0.899613 0.977914
vt 0.899513 0.977709
vt 0.899625 0.977547
vt 0.248846 0.982784
vt 0.248781 0.977538
vt 0.248946 0.977535
vt 0.406282 0.981489
vt 0.015236 0.988041
vt 0.015155 0.988271
vt 0.014999 0.988215
vt 0.349987 0.977552
vt 0.349987 0.982772
vt 0.147030 0.977667
vt 0.147016 0.982906
vt 0.014962 0.988045
vt 0.109461 0.982685
vt 0.104206 0.982793
vt 0.320790 0.982791
vt 0.320751 0.977551
vt 0.320861 0.977551
vt 0.138585 0.982920
vt 0.138756 0.977693
vt 0.930169 0.977649
vt 0.337350 0.977550
vt 0.337492 0.977527
vt 0.337492 0.982780
vt 0.104100 0.982772
vt 0.104192 0.977533
vt 0.337385 0.982777
vt 0.176305 0.982780
vt 0.176070 0.982787
vt 0.176246 0.977551
vt 0.929876 0.977874
vt 0.929826 0.977753
vt 0.184896 0.982778
vt 0.184709 0.982792
vt 0.184742 0.977548
vt 0.397836 0.981516
vt 0.090690 0.982685
vt 0.090703 0.982864
vt 0.085462 0.982771
vt 0.085560 0.982795
vt 0.333328 0.977527
vt 0.333328 0.982780
vt 0.921382 0.977853
vt 0.921190 0.977767
vt 0.921434 0.977652
vt 0.085464 0.982685
vt 0.085421 0.977533
vt 0.925702 0.977872
vt 0.925775 0.977595
vt 0.121570 0.982920
vt 0.121723 0.977693
vt 0.324925 0.982791
vt 0.324886 0.977551
vt 0.324996 0.977551
vt 0.925479 0.977576
vt 0.925601 0.977527
vt 0.402121 0.981516
vt 0.312519 0.982791
vt 0.312480 0.977551
vt 0.312591 0.977551
vt 0.917007 0.977527
vt 0.917028 0.977542
vt 0.278793 0.982778
vt 0.278684 0.977551
vt 0.278793 0.977551
vt 0.278614 0.982791
vt 0.278552 0.977551
vt 0.917033 0.977528
vt 0.917125 0.977732
vt 0.125825 0.982920
vt 0.125995 0.977693
vt 0.354152 0.982772
vt 0.354152 0.977552
vt 0.968955 0.977574
vt 0.969182 0.977656
vt 0.969006 0.977862
vt 0.968914 0.977874
vt 0.968864 0.977752
vt 0.151163 0.977667
vt 0.151149 0.982907
vt 0.389267 0.981516
vt 0.835767 0.956223
vt 0.838766 0.969731
vt 0.832771 0.969723
vt 0.825764 0.956217
vt 0.828761 0.969738
vt 0.822768 0.969741
vt 0.983414 0.956217
vt 0.987891 0.956224
vt 0.985653 0.962578
vt 0.974936 0.956217
vt 0.979411 0.956215
vt 0.977174 0.962583
vt 0.055983 0.987959
vt 0.055970 0.987949
vt 0.056009 0.987932
vt 0.056009 0.988057
vt 0.055967 0.987957
vt 0.060028 0.987959
vt 0.060016 0.987949
vt 0.060054 0.987932
vt 0.060054 0.988057
vt 0.060012 0.987957
vt 0.134311 0.977669
vt 0.134315 0.977574
vt 0.130058 0.977669
vt 0.130062 0.977574
vt 0.064070 0.988022
vt 0.064054 0.987990
vt 0.064099 0.987932
vt 0.047892 0.987959
vt 0.047879 0.987949
vt 0.047918 0.987932
vt 0.047918 0.988057
vt 0.047876 0.987957
vt 0.908397 0.977549
vt 0.908423 0.977550
vt 0.138565 0.977669
vt 0.138569 0.977574
vt 0.121550 0.977669
vt 0.121554 0.977574
vt 0.125804 0.977669
vt 0.125808 0.977574
vt 0.051938 0.987959
vt 0.051925 0.987949
vt 0.051964 0.987932
vt 0.051964 0.988057
vt 0.051922 0.987957
vt 0.109471 0.982845
vt 0.921413 0.977883
vt 0.035786 0.988094
vt 0.031735 0.988096
vt 0.031721 0.987932
vt 0.031759 0.987962
vt 0.039839 0.988063
vt 0.039807 0.988062
vt 0.039827 0.987946
vt 0.341627 0.977527
vt 0.345791 0.977527
vt 0.023687 0.987932
vt 0.349956 0.977527
vt 0.930152 0.977607
vt 0.925743 0.977855
vt 0.354121 0.977527
vt 0.163580 0.977527
vt 0.104194 0.977532
vt 0.085423 0.977532
vt 0.265919 0.977535
vt 0.270173 0.977535
vt 0.172056 0.977556
vt 0.278683 0.977535
vt 0.912628 0.977886
vt 0.908278 0.977897
vt 0.908203 0.977671
vt 0.921223 0.977545
vt 0.916960 0.977886
vt 0.019495 0.987932
vt 0.973493 0.977613
vt 0.964864 0.977621
vt 0.015198 0.988264
vt 0.969175 0.977613
vt 0.167646 0.977527
vt 0.384859 0.981489
vt 0.977722 0.977858
vt 0.393429 0.981489
vt 0.159345 0.977591
vt 0.015061 0.987956
vt 0.015022 0.987949
vt 0.397713 0.981489
vt 0.085464 0.982923
vt 0.401998 0.981489
vt 0.389144 0.981489
s 1
usemtl city_hall_001_baked
f 240/1/1 242/2/1 243/3/1
f 264/4/2 265/5/2 266/6/2
f 273/7/3 274/8/3 275/9/3
f 269/10/4 284/11/5 281/12/6
f 302/13/7 295/14/8 294/15/9
f 312/16/10 310/17/11 314/18/12
f 322/19/13 323/20/13 324/21/13
f 331/22/14 333/23/14 334/24/14
f 341/25/15 342/26/15 343/27/15
f 353/28/16 354/29/16 355/30/16
f 244/31/17 239/32/17 238/33/17
f 285/34/18 280/35/18 284/11/18
f 295/36/19 296/37/19 291/38/19
f 246/39/20 245/40/20 234/41/20
f 254/42/21 259/43/21 267/44/21
f 285/34/22 278/45/23 279/46/24
f 294/47/25 305/48/26 304/49/27
f 298/50/28 306/51/29 304/52/30
f 317/53/31 313/54/32 316/55/33
f 336/56/34 332/57/34 335/58/34
f 357/59/35 349/60/36 351/61/37
f 238/33/38 227/62/39 228/63/40
f 247/64/41 237/65/41 248/66/41
f 250/67/42 263/68/43 251/69/44
f 261/70/45 260/71/46 265/72/47
f 255/73/48 262/74/48 256/75/48
f 271/76/49 272/77/43 268/78/50
f 278/79/51 276/80/52 274/81/53
f 297/82/54 292/83/54 286/84/54
f 303/85/55 302/86/56 294/87/57
f 299/88/58 307/89/58 300/90/58
f 308/91/59 320/92/60 309/93/61
f 321/94/62 319/95/63 323/96/64
f 314/97/65 325/98/65 315/99/65
f 326/100/66 340/101/67 328/102/68
f 339/103/69 337/104/70 342/105/71
f 333/23/65 344/106/65 334/24/65
f 345/107/72 352/108/43 346/109/73
f 356/110/74 350/111/75 354/112/76
f 358/113/48 362/114/48 359/115/48
f 243/3/77 233/116/77 229/117/77
f 292/118/78 290/119/79 289/120/80
f 232/121/81 241/122/81 231/123/81
f 236/124/82 234/41/83 245/40/84
f 253/125/85 257/126/86 256/127/87
f 261/128/88 267/44/89 259/43/90
f 282/129/91 270/130/92 283/131/93
f 303/132/55 304/52/94 306/51/95
f 310/133/96 311/134/97 313/135/98
f 339/136/99 336/137/100 335/138/101
f 347/139/102 360/140/103 359/141/104
f 356/142/88 351/61/105 349/60/90
f 312/143/106 319/144/106 318/145/106
f 338/146/107 334/24/108 337/147/109
f 339/148/69 338/149/110 337/150/70
f 3/151/111 4/152/111 5/153/112
f 5/154/112 4/155/111 3/156/111
f 8/157/113 7/158/113 6/159/113
f 6/160/113 7/161/113 8/162/113
f 11/163/113 9/164/114 10/165/114
f 9/166/114 11/167/113 10/168/114
f 12/169/115 13/170/116 14/171/117
f 13/172/116 12/173/115 14/174/117
f 17/175/113 15/176/114 16/177/114
f 15/178/114 17/179/113 16/180/114
f 19/181/118 18/182/119 20/183/120
f 18/184/119 19/185/118 20/186/120
f 23/187/113 22/188/114 21/189/114
f 22/190/114 23/191/113 21/192/114
f 25/193/121 24/194/122 26/195/121
f 24/196/122 25/197/121 26/198/121
f 29/199/113 27/200/114 28/201/114
f 27/202/114 29/203/113 28/204/114
f 32/205/123 30/206/123 31/207/123
f 30/208/123 32/209/123 31/210/123
f 34/211/113 35/212/114 33/213/114
f 35/214/114 34/215/113 33/216/114
f 37/217/124 38/218/125 36/219/126
f 38/220/125 37/221/124 36/222/126
f 41/223/113 40/224/113 39/225/113
f 40/226/113 41/227/113 39/228/113
f 43/229/127 42/230/128 44/231/129
f 42/232/128 43/233/127 44/234/129
f 45/235/113 46/236/114 47/237/114
f 46/238/114 45/239/113 47/240/114
f 50/241/113 48/242/113 49/243/113
f 48/244/113 50/245/113 49/246/113
f 52/247/113 51/248/130 53/249/130
f 51/250/130 52/251/113 53/252/130
f 56/253/131 54/254/132 55/255/133
f 54/256/132 56/257/131 55/258/133
f 57/259/113 59/260/130 58/261/130
f 59/262/130 57/263/113 58/264/130
f 62/265/134 61/266/135 60/267/136
f 61/268/135 62/269/134 60/270/136
f 63/271/113 64/272/114 65/273/114
f 64/274/114 63/275/113 65/276/114
f 68/277/137 66/278/138 67/279/139
f 66/280/138 68/281/137 67/282/139
f 69/283/113 70/284/113 71/285/113
f 69/286/113 71/287/113 70/288/113
f 72/289/113 74/290/113 73/291/113
f 72/292/113 73/293/113 74/294/113
f 76/295/113 77/296/113 75/297/113
f 76/298/113 75/299/113 77/300/113
f 79/301/113 80/302/113 78/303/113
f 79/304/113 78/305/113 80/306/113
f 81/307/113 83/308/113 82/309/113
f 81/310/113 82/311/113 83/312/113
f 85/313/113 86/314/113 84/315/113
f 85/316/113 84/317/113 86/318/113
f 87/319/113 89/320/113 88/321/113
f 87/322/113 88/323/113 89/324/113
f 90/325/113 92/326/113 91/327/113
f 90/328/113 91/329/113 92/330/113
f 95/331/113 94/332/113 93/333/113
f 95/334/113 93/335/113 94/336/113
f 96/337/113 98/338/113 97/339/113
f 96/340/113 97/341/113 98/342/113
f 99/343/113 101/344/113 100/345/113
f 99/346/113 100/347/113 101/348/113
f 102/349/113 104/350/113 103/351/113
f 102/352/113 103/353/113 104/354/113
f 105/355/113 107/356/113 106/357/113
f 105/358/113 106/359/113 107/360/113
f 109/361/113 110/362/113 108/363/113
f 109/364/113 108/365/113 110/366/113
f 111/367/113 112/368/113 113/369/113
f 111/370/113 113/371/113 112/372/113
f 114/373/113 115/374/113 116/375/113
f 114/376/113 116/377/113 115/378/113
f 117/379/113 118/380/113 119/381/113
f 117/382/113 119/383/113 118/384/113
f 120/385/113 121/386/113 122/387/113
f 120/388/113 122/389/113 121/390/113
f 123/391/113 125/392/113 124/393/113
f 123/394/113 124/395/113 125/396/113
f 126/397/113 128/398/113 127/399/113
f 126/400/113 127/401/113 128/402/113
f 130/403/113 131/404/113 129/405/113
f 130/406/113 129/407/113 131/408/113
f 132/409/113 134/410/113 133/411/113
f 132/412/113 133/413/113 134/414/113
f 136/415/113 135/416/113 137/417/113
f 137/418/113 135/419/113 136/420/113
f 139/421/130 140/422/130 138/423/130
f 138/424/130 140/425/130 139/426/130
f 141/427/140 142/428/141 143/429/142
f 142/430/141 141/431/140 143/432/142
f 146/433/113 145/434/113 144/435/113
f 145/436/113 146/437/113 144/438/113
f 148/439/143 147/440/143 149/441/113
f 147/442/143 148/443/143 149/444/113
f 151/445/143 150/446/113 152/447/113
f 150/448/113 151/449/143 152/450/113
f 153/451/144 154/452/145 155/453/146
f 154/454/145 153/455/144 155/456/146
f 157/457/143 156/458/113 158/459/113
f 156/460/113 157/461/143 158/462/113
f 159/463/113 161/464/114 160/465/114
f 161/466/114 159/467/113 160/468/114
f 164/469/147 163/470/148 162/471/149
f 162/472/149 163/473/148 164/474/147
f 167/475/150 166/476/151 165/477/152
f 165/478/152 166/479/151 167/480/150
f 168/481/153 169/482/154 170/483/155
f 170/484/155 169/485/154 168/486/153
f 173/487/156 171/488/157 172/489/156
f 172/490/156 171/491/157 173/492/156
f 174/493/113 176/494/113 175/495/113
f 174/496/113 175/497/113 176/498/113
f 177/499/113 179/500/113 178/501/113
f 177/502/113 178/503/113 179/504/113
f 180/505/113 181/506/130 182/507/130
f 182/508/130 181/509/130 180/510/113
f 183/511/113 184/512/113 185/513/113
f 183/514/113 185/515/113 184/516/113
f 187/517/158 188/518/159 186/519/160
f 186/520/160 188/521/159 187/522/158
f 190/523/113 191/524/113 189/525/113
f 190/526/113 189/527/113 191/528/113
f 190/529/161 193/530/161 192/531/161
f 194/532/162 195/533/163 196/534/164
f 195/535/163 194/536/162 196/537/164
f 199/538/165 197/539/166 198/540/166
f 197/541/166 199/542/165 198/543/166
f 202/544/114 200/545/114 201/546/114
f 201/547/114 200/548/114 202/549/114
f 203/550/114 205/551/114 204/552/114
f 205/553/114 203/554/114 204/555/114
f 206/556/167 207/557/168 208/558/169
f 207/559/168 206/560/167 208/561/169
f 210/562/170 209/563/170 211/564/171
f 209/565/170 210/566/170 211/567/171
f 214/568/113 212/569/113 213/570/113
f 214/571/113 213/572/113 212/573/113
f 215/574/113 216/575/113 217/576/113
f 215/577/113 217/578/113 216/579/113
f 218/580/130 219/581/130 220/582/130
f 220/583/130 219/584/130 218/585/130
f 222/586/172 223/587/173 221/588/173
f 223/589/173 222/590/172 221/591/173
f 226/592/174 224/593/123 225/594/174
f 224/595/123 226/596/174 225/597/174
f 228/598/40 227/599/39 230/600/175
f 228/598/40 230/600/175 229/601/176
f 242/602/177 241/122/178 227/603/39
f 228/604/179 233/116/179 243/3/179
f 227/603/39 241/122/178 232/121/180
f 248/605/181 229/606/181 230/607/181
f 248/605/182 247/608/182 246/609/182
f 227/610/39 231/611/183 230/612/175
f 249/613/184 231/614/184 242/615/184
f 249/613/185 242/615/185 229/606/185
f 241/616/186 234/617/83 236/618/82
f 235/619/187 234/620/188 240/621/189
f 235/619/187 246/622/190 234/620/188
f 247/64/191 235/623/192 236/624/193
f 245/40/194 237/625/195 236/124/193
f 245/40/196 247/626/196 237/625/196
f 241/616/186 236/618/82 244/31/197
f 235/627/192 239/32/198 236/618/193
f 250/628/42 251/629/44 257/630/86
f 251/629/44 252/631/199 257/630/86
f 258/632/200 252/633/200 253/125/200
f 251/634/44 265/5/201 252/635/199
f 256/127/202 255/636/202 254/637/202
f 250/638/42 253/639/85 264/640/203
f 260/641/204 254/642/205 267/643/206
f 259/43/196 255/644/196 262/645/196
f 250/628/42 257/630/86 253/646/85
f 255/73/207 260/647/46 261/648/45
f 259/43/208 262/645/209 261/128/45
f 260/641/204 267/643/206 263/649/210
f 260/641/204 263/649/210 266/650/211
f 265/72/212 266/651/212 261/70/212
f 268/652/213 274/8/214 270/653/215
f 270/654/216 282/655/216 280/656/217
f 271/657/49 270/658/218 273/659/219
f 268/660/213 270/661/215 269/662/220
f 284/663/5 269/664/4 270/654/221
f 274/81/222 275/665/222 279/666/222
f 274/81/223 279/666/24 278/79/23
f 276/667/224 272/668/225 275/669/226
f 271/670/49 283/131/227 270/130/218
f 271/670/49 268/671/50 283/131/227
f 276/667/224 277/672/228 272/668/225
f 276/667/224 281/673/229 277/672/228
f 282/129/230 276/674/52 278/45/51
f 277/675/231 280/35/232 279/46/233
f 278/45/234 280/35/234 282/129/234
f 297/676/235 286/677/236 290/119/237
f 286/678/238 293/679/238 291/680/238
f 286/678/239 296/681/240 288/682/241
f 286/683/239 288/684/241 287/685/242
f 301/686/243 287/687/243 288/688/243
f 300/689/244 299/690/244 298/691/244
f 297/676/235 290/119/237 292/118/245
f 301/686/246 291/692/246 289/693/246
f 300/689/247 289/693/247 287/694/247
f 286/695/239 287/696/242 289/697/248
f 294/87/57 304/698/94 303/85/55
f 301/686/249 288/688/249 291/692/249
f 302/699/7 298/700/250 304/701/27
f 306/51/251 299/702/251 307/703/251
f 299/88/252 302/704/56 303/705/55
f 302/699/7 304/701/27 305/706/26
f 306/51/253 307/703/254 303/132/55
f 308/707/59 313/135/255 311/134/256
f 312/708/257 314/97/257 313/135/257
f 308/709/59 311/710/256 322/711/258
f 309/712/259 323/20/260 310/713/261
f 315/714/262 317/53/263 319/144/264
f 316/715/33 314/716/265 325/717/266
f 315/99/267 318/718/268 321/719/62
f 316/715/33 325/717/266 321/720/269
f 317/721/31 316/722/33 321/723/269
f 319/144/264 317/53/263 320/724/270
f 319/144/264 320/724/270 324/725/271
f 318/726/268 319/727/63 321/728/62
f 323/96/272 324/729/272 321/94/272
f 326/730/66 328/731/68 331/22/273
f 330/732/274 333/23/274 332/733/274
f 335/138/275 333/734/276 344/735/277
f 331/736/273 329/737/278 327/738/279
f 326/730/66 331/22/273 327/739/279
f 334/24/280 338/146/110 339/740/69
f 334/741/281 336/56/282 337/742/283
f 328/743/284 342/26/285 329/744/286
f 326/745/66 327/746/279 341/747/287
f 335/138/275 344/735/277 339/136/288
f 337/742/283 336/56/282 340/748/289
f 337/742/283 340/748/289 343/749/290
f 342/105/291 343/750/292 339/103/292
f 345/751/72 347/752/102 353/753/203
f 359/141/293 358/754/293 357/755/293
f 345/756/72 360/757/103 347/758/102
f 346/759/73 348/760/199 360/757/103
f 361/761/200 348/762/200 347/139/200
f 346/763/73 354/29/294 348/764/199
f 345/756/72 346/759/73 360/757/103
f 349/60/208 362/765/295 356/142/74
f 349/60/251 358/766/251 362/765/251
f 350/767/296 357/768/205 351/769/297
f 350/767/296 352/770/298 355/771/299
f 350/767/296 351/769/297 352/770/298
f 358/113/300 350/772/75 356/773/74
f 354/112/301 355/774/301 356/110/302
f 363/775/113 365/776/113 364/777/113
f 363/778/113 364/779/113 365/780/113
f 366/781/303 367/782/304 368/783/113
f 367/784/304 366/785/303 368/786/113
f 238/33/305 239/32/305 240/1/305
f 240/1/306 241/616/306 242/2/306
f 243/3/307 238/33/307 240/1/307
f 249/787/308 246/788/308 247/789/308
f 247/789/309 248/790/309 249/787/309
f 248/790/310 230/791/311 249/787/311
f 258/792/312 254/793/312 255/794/312
f 255/794/313 256/795/313 258/792/313
f 256/795/314 257/796/315 258/792/316
f 266/6/211 263/68/210 264/4/317
f 264/4/318 253/797/318 265/5/318
f 265/5/319 260/798/204 266/6/211
f 275/9/226 272/77/225 273/7/320
f 273/7/321 270/799/322 274/8/323
f 274/8/324 276/800/224 275/9/226
f 284/11/325 280/35/325 281/12/325
f 281/12/326 282/129/326 283/131/326
f 283/131/327 269/10/328 281/12/329
f 295/14/330 291/801/330 292/802/330
f 292/802/331 293/803/331 295/14/331
f 293/803/332 294/15/332 295/14/332
f 301/804/333 298/805/333 299/806/333
f 299/806/334 300/807/334 301/804/334
f 300/807/335 287/808/336 301/804/337
f 310/17/338 313/809/338 314/18/338
f 314/18/339 315/810/339 312/16/339
f 324/21/271 320/92/270 322/19/340
f 322/19/341 311/811/342 323/20/343
f 323/20/344 319/812/264 324/21/271
f 334/24/345 330/732/345 331/22/346
f 331/22/347 332/733/347 333/23/348
f 343/27/290 340/101/289 341/25/349
f 341/25/350 327/813/350 342/26/351
f 342/26/352 337/814/283 343/27/290
f 355/30/299 352/108/298 353/28/353
f 353/28/354 347/815/354 354/29/354
f 354/29/355 350/816/296 355/30/299
f 361/817/356 357/818/356 358/819/356
f 358/819/357 359/820/357 361/817/357
f 359/820/358 360/821/359 361/817/360
f 244/31/197 236/618/82 239/32/361
f 285/34/362 279/46/362 280/35/363
f 310/133/261 312/708/364 309/822/259
f 331/736/273 330/823/365 329/737/278
f 295/36/366 288/824/367 296/37/368
f 234/825/369 241/826/369 240/827/369
f 240/828/189 239/829/370 235/830/187
f 246/39/371 249/831/371 245/40/371
f 254/42/372 258/832/372 259/43/372
f 281/12/373 280/35/373 277/675/373
f 294/47/374 293/833/374 305/48/374
f 298/50/375 301/834/375 306/51/375
f 317/53/376 314/835/377 313/54/377
f 336/56/378 333/836/379 332/57/380
f 357/59/381 361/837/381 349/60/381
f 238/33/382 243/3/382 227/62/382
f 247/64/191 236/624/193 237/65/195
f 250/67/383 264/4/383 263/68/383
f 255/73/207 261/648/45 262/74/209
f 269/10/220 283/131/384 268/671/213
f 271/76/385 273/7/385 272/77/385
f 297/82/386 293/838/386 292/83/386
f 299/88/252 303/705/55 307/89/254
f 308/91/387 322/19/387 320/92/387
f 314/97/388 321/839/269 325/98/266
f 332/733/389 331/22/389 328/731/390
f 326/100/391 341/25/391 340/101/391
f 333/23/388 339/840/288 344/106/277
f 345/107/392 353/28/392 352/108/392
f 358/113/300 356/773/74 362/114/295
f 249/841/393 230/612/394 231/611/395
f 243/3/396 242/2/396 233/116/396
f 258/842/397 257/630/398 252/631/399
f 292/118/400 291/843/400 290/119/400
f 361/844/401 360/757/402 348/760/403
f 232/121/404 242/602/404 241/122/404
f 232/121/180 231/123/183 227/603/39
f 252/633/405 265/845/405 253/125/405
f 310/17/96 323/846/406 311/847/97
f 329/737/407 342/848/407 327/738/407
f 348/762/408 354/849/409 347/139/408
f 247/850/191 246/622/410 235/619/192
f 255/851/207 254/642/411 260/641/46
f 282/852/412 281/673/412 276/667/412
f 299/853/252 298/700/413 302/699/56
f 312/143/414 315/714/414 319/144/414
f 338/146/415 330/732/415 334/24/415
f 358/854/300 357/768/416 350/767/75
f 229/117/176 233/116/417 228/604/40
f 289/120/248 290/119/418 286/677/239
f 243/855/419 242/602/419 227/603/419
f 249/613/420 229/606/420 246/609/420
f 229/606/421 248/605/421 246/609/421
f 245/40/422 246/39/422 247/626/422
f 244/31/423 239/32/423 241/616/423
f 239/32/424 240/1/424 241/616/424
f 258/632/425 253/125/425 254/637/425
f 253/125/426 256/127/426 254/637/426
f 259/43/427 254/42/427 255/644/427
f 251/634/44 264/4/428 265/5/201
f 266/651/429 267/856/89 261/70/88
f 268/652/213 273/7/430 274/8/214
f 282/655/431 281/857/431 280/656/431
f 280/656/432 284/663/5 270/654/221
f 275/665/433 277/858/231 279/666/233
f 285/34/434 280/35/434 278/45/434
f 293/679/435 292/859/435 291/680/435
f 291/680/436 296/681/240 286/678/239
f 301/686/437 289/693/438 298/691/439
f 289/693/440 300/689/440 298/691/440
f 295/860/8 302/699/7 305/706/26
f 305/706/441 294/861/441 295/860/441
f 306/51/442 298/50/442 299/702/442
f 313/135/255 308/707/59 309/822/61
f 313/135/443 309/822/443 312/708/443
f 309/712/259 322/19/444 323/20/260
f 315/714/445 314/835/446 317/53/447
f 324/729/448 317/862/31 321/94/269
f 332/733/449 328/731/284 329/863/286
f 330/732/450 334/24/450 333/23/450
f 332/733/451 329/863/451 330/732/451
f 334/741/452 333/836/452 336/56/452
f 328/743/284 341/25/453 342/26/285
f 343/750/454 336/864/100 339/103/99
f 346/763/73 353/28/455 354/29/294
f 361/761/456 347/139/456 357/755/456
f 347/139/457 359/141/457 357/755/457
f 349/60/458 357/59/458 358/766/458
f 355/774/429 351/865/105 356/110/88
l 1 2
