# Blender 4.5.0
# www.blender.org
mtllib convenience_urban_001.lod2.mtl
o convenience_urban_001
v -2.915631 3.278004 -4.891469
v 2.699109 3.107304 -4.891469
v 6.246327 5.547323 -4.771702
v 5.952748 4.663694 -4.570137
v -6.898651 0.057978 -4.388297
v 7.000000 -0.000001 7.000000
v 7.000000 0.009127 -7.000000
v 6.800628 6.367424 -4.351521
v -6.898651 0.057978 6.384406
v -6.796587 11.140889 -4.293511
v -6.783812 11.169085 6.277663
v -6.787167 11.167226 6.274597
v 6.567414 11.169478 -4.280667
v 6.570644 11.167226 -4.278489
v 6.568933 11.168850 6.276250
v -6.946108 11.411403 -4.278489
v -6.949325 11.408215 -4.439591
v -6.949325 11.408215 -4.281658
v -6.952543 11.411403 -4.284827
v -6.787167 11.049810 6.277765
v -6.788892 11.407557 6.277766
v -6.787167 11.049918 6.274597
v -6.790384 11.046731 6.277766
v -6.949325 11.411403 6.277766
v -6.953181 11.411403 6.274597
v -6.949325 11.411087 6.277766
v -6.946108 11.411403 6.274597
v -6.788583 11.411296 -4.278383
v -6.788949 11.408215 -4.281658
v -6.788892 11.053763 -4.281658
v -6.787167 11.053106 -4.281658
v -6.783158 11.049918 -4.278489
v -6.949325 11.053106 6.279174
v -6.946108 11.049918 6.274597
v -6.946108 11.049918 6.277766
v -6.947498 11.050896 6.436206
v 6.572294 11.409797 -4.280976
v 6.732803 11.053106 -4.283066
v 6.729585 11.049918 -4.278489
v 6.729585 11.049918 -4.281658
v 6.573942 11.410448 6.277632
v 6.570644 11.408215 6.274597
v 6.567426 11.046731 6.277766
v 6.570644 11.049918 6.277766
v 6.567426 11.053106 6.277766
v 6.573153 11.049918 6.277173
v 6.729585 11.411403 6.277766
v 6.769478 11.439170 6.285528
v 6.732803 11.408215 6.277766
v 6.729585 11.411403 6.274597
v 6.729585 11.049918 6.274597
v 6.732803 11.053739 6.277766
v 6.729585 11.049918 6.277766
v 6.570644 11.053106 -4.281658
v 6.572427 11.053106 -4.281658
v 6.570644 11.049918 -4.278489
v 6.567426 11.053106 -4.281658
v 6.729585 11.411403 -4.278489
v 6.732803 11.407583 -4.281658
v 6.732803 11.053106 -4.439591
v 6.728947 11.411403 -4.281658
v -6.946108 11.049918 -4.278489
v -6.949325 11.053739 -4.281658
v -6.945470 11.049918 -4.281658
v -6.946019 11.411310 6.435759
v -6.949325 11.407558 6.435756
v 6.731241 11.051114 6.435998
v -4.943599 0.383465 -4.433375
v -5.803747 2.625325 -4.522146
v -6.624020 0.383463 -4.419364
v -5.763887 2.625325 -4.522135
v -6.535461 0.474479 -4.515026
v -5.032160 0.474478 -4.517374
v -6.533794 2.645417 -4.546141
v -6.535807 0.441340 -4.578809
v -6.531781 0.441340 -4.513474
v -5.783810 2.645418 -4.546142
v -5.785823 0.441340 -4.578809
v -5.781798 0.441340 -4.513473
v -5.033828 2.645418 -4.546141
v -5.035841 0.441340 -4.578809
v -5.031815 0.441340 -4.513473
v -4.908735 0.410824 -4.685878
v -4.908735 0.401600 -4.446327
v -6.604738 0.409400 -4.498060
v -4.091627 2.625325 -4.522135
v -3.271340 0.383463 -4.433376
v -4.951764 0.383465 -4.419365
v -3.359900 0.474478 -4.517374
v -4.863201 0.474479 -4.515026
v -4.861534 2.645417 -4.546142
v -4.863546 0.441340 -4.578809
v -4.859520 0.441340 -4.513473
v -4.113564 0.441340 -4.578810
v -4.111551 2.645417 -4.546142
v -4.109539 0.441340 -4.513473
v -3.359556 0.441340 -4.513473
v -3.361568 2.645417 -4.546141
v -3.363581 0.441340 -4.578810
v -3.236475 0.410824 -4.685878
v -5.056149 0.406212 -4.566102
v -3.236475 0.401600 -4.446327
v -1.599079 0.383464 -4.433377
v -3.279501 0.383463 -4.419365
v -2.419367 2.625325 -4.522135
v -1.687640 0.474478 -4.517375
v -3.190941 0.474478 -4.515026
v -3.189273 2.645417 -4.546142
v -3.187260 0.441340 -4.513473
v -3.191285 0.441340 -4.578810
v -2.437277 0.441340 -4.513473
v -2.441302 0.441340 -4.578810
v -2.439290 2.645417 -4.546142
v -1.689307 2.645417 -4.546142
v -1.687294 0.441340 -4.513473
v -1.691320 0.441340 -4.578809
v -1.494691 0.406212 -4.566102
v -3.314367 0.410824 -4.446327
v -3.314367 0.401600 -4.685878
v -1.607242 0.383464 -4.419364
v 0.073181 0.383464 -4.433377
v -0.747107 2.625325 -4.522135
v -0.015380 0.474479 -4.517375
v -1.518681 0.474479 -4.515026
v -1.519025 0.441340 -4.578810
v -1.517013 2.645417 -4.546142
v -1.515000 0.441340 -4.513473
v -0.767030 2.645417 -4.546142
v -0.765018 0.441340 -4.513473
v -0.769043 0.441340 -4.578809
v -0.019060 0.441340 -4.578809
v -0.017047 2.645417 -4.546142
v -0.015034 0.441340 -4.513473
v 0.177571 0.406212 -4.566102
v -1.642106 0.401600 -4.685878
v -1.642106 0.410824 -4.446327
v 0.065019 0.383464 -4.419364
v 1.745441 0.383464 -4.433377
v 0.153579 0.474479 -4.515026
v 0.925153 2.625325 -4.522135
v 1.656880 0.474479 -4.517375
v 0.153234 0.441340 -4.578809
v 0.157259 0.441340 -4.513473
v 0.155246 2.645417 -4.546142
v 0.903217 0.441340 -4.578809
v 0.905229 2.645417 -4.546142
v 0.907242 0.441340 -4.513473
v 1.655214 2.645417 -4.546142
v 1.657227 0.441340 -4.513473
v 1.653202 0.441340 -4.578810
v -0.039371 0.406212 -4.566102
v 1.780306 0.410824 -4.685878
v 1.780306 0.401600 -4.446327
v 3.417701 0.383464 -4.433377
v 1.737279 0.383464 -4.419365
v 2.726296 3.080367 -4.735772
v 3.329140 0.474478 -4.517375
v 1.825840 0.474479 -4.515026
v 1.825494 0.441340 -4.578809
v 1.827507 2.645417 -4.546142
v 1.829519 0.441340 -4.513473
v 2.577490 2.645417 -4.546142
v 2.579503 0.441340 -4.513473
v 2.575477 0.441340 -4.578809
v 3.327473 2.645417 -4.546142
v 3.325460 0.441340 -4.578809
v 3.329486 0.441340 -4.513473
v 3.522084 0.406212 -4.566102
v 1.702414 0.401600 -4.685878
v 1.702414 0.410824 -4.446327
v 4.269673 2.625325 -4.522135
v 3.409539 0.383464 -4.419364
v 5.089963 0.383465 -4.433377
v 4.229814 2.625325 -4.522146
v 3.498100 0.474478 -4.515026
v 5.001400 0.474478 -4.517374
v 3.497753 0.441340 -4.578810
v 3.499766 2.645417 -4.546141
v 3.501778 0.441340 -4.513473
v 4.249750 2.645417 -4.546142
v 4.247737 0.441340 -4.578809
v 4.251763 0.441340 -4.513473
v 4.997721 0.441340 -4.578809
v 4.999734 2.645417 -4.546142
v 5.001747 0.441340 -4.513473
v 3.305157 0.406212 -4.566102
v 5.124826 0.401600 -4.446327
v 5.124826 0.410824 -4.685878
v 5.941933 2.625325 -4.522135
v 5.081797 0.383464 -4.419365
v 6.762223 0.383465 -4.433377
v 6.673661 0.474479 -4.517375
v 5.902072 2.625325 -4.522146
v 5.170360 0.474478 -4.515026
v 5.170013 0.441340 -4.578809
v 5.174038 0.441340 -4.513474
v 5.172026 2.645417 -4.546142
v 5.919998 0.441340 -4.578809
v 5.922010 2.645417 -4.546141
v 5.924024 0.441340 -4.513473
v 6.671993 2.645417 -4.546142
v 6.669980 0.441340 -4.578809
v 6.674006 0.441340 -4.513473
v 6.742938 0.409400 -4.498060
v 5.046934 0.401600 -4.685878
v 5.046934 0.410824 -4.446327
v -0.036983 2.625325 -4.522146
v -1.039143 0.104234 -4.449874
v 0.822621 0.104234 -4.462758
v -0.128018 0.195346 -4.554451
v -0.946903 2.306832 -4.547526
v 0.730380 2.306832 -4.544757
v -0.106218 2.309049 -4.606165
v -0.108262 0.176515 -4.576084
v -0.110304 2.309048 -4.546000
v -0.227745 1.363376 -4.670514
v -0.232015 1.363376 -4.601419
v -0.229880 0.936727 -4.635966
v 0.011223 1.363376 -4.601419
v 0.015493 1.363376 -4.670514
v 0.013358 0.936727 -4.635966
v 6.783478 3.000686 -4.597860
v -6.996782 2.943456 -4.276666
v -6.996782 2.769089 -5.075110
v -7.000000 3.414771 -4.793788
v 6.780260 3.418582 -4.599213
v 6.780260 2.996850 -4.792486
v -2.967280 3.331523 -4.816857
v 2.729513 3.080875 -4.738167
v -2.967281 3.053790 -4.804394
v -4.829994 4.601700 -4.433180
v -6.534929 4.601700 -4.419562
v -5.662538 6.340580 -4.522136
v -6.444493 4.691861 -4.515065
v -4.920431 4.691861 -4.517337
v -6.440567 6.345618 -4.578809
v -6.444592 6.345618 -4.513474
v -6.442580 4.643600 -4.546142
v -5.680449 6.345618 -4.578809
v -5.682462 4.643600 -4.546142
v -5.684474 6.345617 -4.513474
v -4.924356 6.345618 -4.513474
v -4.922343 4.643600 -4.546142
v -4.920331 6.345618 -4.578809
v -6.567672 4.618910 -4.685827
v -4.851399 4.626718 -4.498060
v -6.567672 4.628146 -4.446379
v -3.371356 4.663694 -4.522136
v -4.203899 6.392537 -4.433184
v -2.498966 6.392537 -4.419558
v -3.371369 6.340580 -4.522147
v -4.113463 4.691861 -4.515065
v -2.589401 4.691862 -4.517337
v -4.113564 6.345618 -4.513474
v -4.109539 6.345618 -4.578810
v -4.111551 4.643600 -4.546142
v -3.353446 6.345618 -4.513474
v -3.351433 4.643600 -4.546142
v -3.349421 6.345618 -4.578810
v -2.591315 4.643600 -4.546142
v -2.593328 6.345618 -4.513474
v -2.589303 6.345618 -4.578810
v -2.520370 4.626718 -4.498060
v -4.236642 4.618909 -4.685825
v -4.236642 4.628148 -4.446381
v -1.040326 4.663694 -4.522136
v -1.872870 6.392536 -4.433183
v -0.167936 6.392536 -4.419559
v -0.258372 4.691862 -4.517337
v -1.000480 6.340580 -4.522136
v -1.782434 4.691862 -4.515065
v -1.778508 6.345618 -4.578810
v -1.780521 4.643600 -4.546142
v -1.782534 6.345618 -4.513474
v -1.018390 6.345618 -4.578810
v -1.020403 4.643600 -4.546142
v -1.022416 6.345618 -4.513474
v -0.258272 6.345618 -4.578810
v -0.262298 6.345618 -4.513474
v -0.260285 4.643600 -4.546142
v -1.851466 4.626718 -4.498060
v -0.135194 4.628147 -4.685826
v -0.135193 4.618909 -4.446381
v 0.458160 4.601700 -4.419561
v 2.163093 4.601699 -4.433181
v 1.330549 6.340580 -4.522136
v 0.548595 4.691861 -4.515065
v 2.072658 4.691861 -4.517337
v 0.552521 6.345618 -4.578810
v 0.548495 6.345618 -4.513474
v 0.550508 4.643600 -4.546142
v 1.312639 6.345618 -4.578810
v 1.310626 4.643600 -4.546142
v 1.308613 6.345618 -4.513474
v 2.070745 4.643599 -4.546142
v 2.068732 6.345618 -4.513474
v 2.072757 6.345618 -4.578810
v 0.425416 4.618909 -4.685826
v 2.141689 4.626718 -4.498060
v 0.425416 4.628147 -4.446380
v 2.789189 6.392537 -4.433184
v 3.621732 4.663694 -4.522136
v 4.494122 6.392537 -4.419558
v 4.403687 4.691861 -4.517337
v 2.879624 4.691861 -4.515065
v 3.661578 6.340580 -4.522136
v 2.883551 6.345618 -4.578810
v 2.881538 4.643600 -4.546142
v 2.879526 6.345618 -4.513474
v 3.639644 6.345618 -4.513474
v 3.643669 6.345618 -4.578810
v 3.641656 4.643600 -4.546142
v 4.401773 4.643599 -4.546143
v 4.399761 6.345618 -4.513474
v 4.403787 6.345618 -4.578810
v 2.810593 4.626718 -4.498060
v 4.526865 4.628148 -4.685826
v 4.526865 4.618909 -4.446381
v 5.120217 4.601700 -4.419562
v 6.825152 4.601700 -4.433180
v 5.992608 6.340580 -4.522136
v 5.210654 4.691861 -4.515065
v 6.734716 4.691861 -4.517337
v 5.214579 6.345618 -4.578809
v 5.210554 6.345618 -4.513474
v 5.212566 4.643600 -4.546142
v 5.970672 6.345618 -4.513474
v 5.972684 4.643600 -4.546142
v 5.974698 6.345618 -4.578809
v 6.732803 4.643600 -4.546142
v 6.730791 6.345618 -4.513474
v 6.734816 6.345618 -4.578809
v 6.857895 4.628146 -4.685827
v 6.857895 4.618910 -4.446379
v 5.141622 4.626718 -4.498060
v -5.662538 10.005630 -4.522136
v -4.829993 8.266749 -4.433179
v -6.534930 8.266749 -4.419563
v -4.920431 9.967423 -4.515066
v -6.444493 9.967423 -4.517337
v -5.702385 8.328745 -4.522136
v -6.440567 10.010668 -4.578810
v -6.442580 8.308649 -4.546142
v -6.444592 10.010668 -4.513474
v -5.684474 10.010668 -4.513474
v -5.680449 10.010668 -4.578810
v -5.682462 8.308649 -4.546142
v -4.922343 8.308649 -4.546142
v -4.924356 10.010668 -4.513474
v -4.920331 10.010668 -4.578810
v -4.851399 8.291768 -4.498060
v -6.567673 8.283964 -4.685827
v -6.567673 8.293199 -4.446379
v -3.331509 10.005630 -4.522136
v -4.203899 8.266748 -4.419561
v -2.498966 8.266747 -4.433181
v -4.113463 9.967424 -4.517337
v -3.371356 8.328745 -4.522136
v -2.589401 9.967423 -4.515066
v -4.109539 10.010668 -4.578811
v -4.113564 10.010668 -4.513474
v -4.111551 8.308650 -4.546142
v -3.349421 10.010668 -4.578811
v -3.351433 8.308650 -4.546142
v -3.353446 10.010668 -4.513474
v -2.589303 10.010668 -4.578811
v -2.593328 10.010668 -4.513474
v -2.591315 8.308650 -4.546142
v -4.236643 8.283962 -4.685825
v -2.520370 8.291768 -4.498060
v -4.236643 8.293200 -4.446381
v -1.000480 10.005630 -4.522136
v -0.167936 8.266748 -4.433180
v -1.872870 8.266748 -4.419562
v -0.258372 9.967423 -4.515066
v -1.040326 8.328745 -4.522136
v -1.782434 9.967423 -4.517337
v -1.778508 10.010668 -4.578811
v -1.780521 8.308649 -4.546142
v -1.782534 10.010668 -4.513474
v -1.022416 10.010668 -4.513474
v -1.018390 10.010668 -4.578811
v -1.020403 8.308649 -4.546142
v -0.260285 8.308649 -4.546142
v -0.258272 10.010668 -4.578811
v -0.262298 10.010668 -4.513474
v -0.135193 8.293200 -4.685826
v -1.851466 8.291768 -4.498060
v -0.135192 8.283963 -4.446381
v 2.163094 8.266748 -4.433180
v 1.330549 10.005630 -4.522136
v 0.458159 8.266748 -4.419562
v 0.548595 9.967423 -4.517337
v 2.072658 9.967424 -4.515066
v 1.330563 8.328745 -4.522147
v 0.548495 10.010668 -4.513474
v 0.550508 8.308649 -4.546142
v 0.552521 10.010668 -4.578811
v 1.310626 8.308649 -4.546142
v 1.312639 10.010668 -4.578811
v 1.308613 10.010668 -4.513474
v 2.072757 10.010668 -4.578811
v 2.070745 8.308649 -4.546142
v 2.068732 10.010668 -4.513474
v 2.141689 8.291768 -4.498060
v 0.425416 8.293200 -4.446380
v 0.425415 8.283963 -4.685826
v 3.661578 10.005630 -4.522136
v 2.789189 8.266748 -4.419561
v 4.494122 8.266747 -4.433181
v 4.403686 9.967423 -4.515066
v 3.661592 8.328745 -4.522147
v 2.879624 9.967423 -4.517337
v 2.883551 10.010668 -4.578811
v 2.879526 10.010668 -4.513474
v 2.881538 8.308650 -4.546142
v 3.641656 10.025725 -4.546143
v 3.639644 8.323708 -4.578811
v 3.643669 8.323708 -4.513473
v 4.401773 8.308649 -4.546143
v 4.399761 10.010668 -4.513474
v 4.403787 10.010668 -4.578810
v 2.810593 8.291768 -4.498060
v 4.526866 8.293200 -4.685826
v 4.526866 8.283962 -4.446381
v 5.992608 10.005630 -4.522136
v 6.825153 8.266749 -4.433179
v 5.120216 8.266749 -4.419563
v 5.210654 9.967423 -4.517337
v 5.952761 8.328745 -4.522136
v 6.734716 9.967423 -4.515066
v 5.214579 10.010668 -4.578810
v 5.212566 8.308649 -4.546142
v 5.210554 10.010668 -4.513474
v 5.974698 10.010668 -4.578810
v 5.972685 8.308649 -4.546142
v 5.970672 10.010668 -4.513474
v 6.734816 10.010668 -4.578810
v 6.732803 8.308649 -4.546142
v 6.730791 10.010668 -4.513474
v 5.141622 8.291768 -4.498060
v 6.857896 8.293199 -4.685827
v 6.857896 8.283964 -4.446379
v -5.454426 11.304579 5.167470
v -6.223733 11.465359 5.159945
v -5.454426 11.950000 5.611524
v -5.448958 11.638630 5.144207
v -5.958452 11.503373 5.135759
v -5.786263 11.876265 5.139984
v -5.944426 11.484202 5.110041
v -5.508220 11.498683 5.111175
v -5.508220 11.469722 5.108907
v -5.508220 11.565960 5.111175
v -5.508219 11.536998 5.108907
v -5.944428 11.551476 5.110041
v -5.508220 11.633236 5.111176
v -5.508220 11.604273 5.108907
v -5.944427 11.618754 5.110041
v -5.508219 11.687171 5.095648
v -5.944428 11.686030 5.110041
v -5.508219 11.684891 5.124436
v -5.944426 11.753307 5.110041
v -5.508220 11.754448 5.095648
v -5.508220 11.752166 5.124436
v -5.508220 11.835064 5.111175
v -5.508220 11.806102 5.108907
v -5.944427 11.820583 5.110041
v -6.179072 11.851663 5.144974
v -6.225234 11.459704 5.146483
v -6.132911 11.459704 5.143464
v -6.189207 11.265805 5.070674
v -6.238428 11.269004 5.688440
v -6.139987 11.262607 5.688440
v -5.581106 11.265805 5.070674
v -5.630335 11.269003 5.688442
v -5.531891 11.262607 5.688440
v 5.237904 11.950000 5.167470
v 6.062661 11.640227 5.149963
v 5.237904 11.304579 5.611524
v 5.595344 11.503372 5.135760
v 6.104840 11.638631 5.144207
v 5.767534 11.876265 5.139984
v 6.045578 11.469722 5.108907
v 6.045578 11.498683 5.111175
v 5.609372 11.484202 5.110041
v 6.045578 11.565960 5.111175
v 5.609370 11.551476 5.110041
v 6.045579 11.536998 5.108907
v 6.045578 11.633236 5.111176
v 5.609371 11.618754 5.110041
v 6.045578 11.604273 5.108907
v 6.045578 11.687171 5.095648
v 5.609370 11.686030 5.110041
v 6.045578 11.684891 5.124436
v 6.045577 11.752166 5.124436
v 5.609372 11.753307 5.110041
v 6.045578 11.754448 5.095648
v 5.609371 11.820583 5.110041
v 6.045578 11.835064 5.111175
v 6.045578 11.806102 5.108907
v 5.374724 11.851662 5.144976
v 5.328563 11.459705 5.146483
v 5.420887 11.459705 5.143464
v 5.364583 11.265805 5.070674
v 5.315369 11.269004 5.688439
v 5.413813 11.262607 5.688442
v 5.972684 11.265805 5.070674
v 6.021906 11.262607 5.688440
v 5.923464 11.269004 5.688440
v -5.688699 0.051889 -5.863368
v -5.675380 0.041258 -5.893336
v -5.659564 0.704956 -5.888525
v -5.658356 0.710394 -5.885356
v -5.653906 0.707449 -5.904455
v -5.657795 0.705098 -5.888530
v -5.657549 0.706349 -5.888728
v -5.680242 0.708508 -5.914807
v -5.684687 0.710667 -5.863078
v -5.697093 0.679020 -5.882215
v -5.663314 0.692643 -5.885356
v -5.687484 0.733668 -5.889561
v -5.704435 0.693238 -5.888448
v -5.685225 0.711020 -5.175533
v -5.706568 0.704261 -5.885598
v -5.706568 0.704383 -5.891453
v -5.704068 0.708980 -5.888525
v -5.658356 0.704504 -5.193056
v -4.759387 0.043959 -5.874603
v -4.794326 0.050125 -5.893080
v -4.789468 0.704261 -5.903242
v -4.747380 0.704856 -5.888525
v -4.746213 0.710394 -5.885356
v -4.741765 0.707449 -5.904455
v -4.746698 0.704143 -5.876869
v -4.744982 0.706385 -5.887467
v -4.787522 0.703999 -5.871181
v -4.777774 0.705256 -5.864831
v -4.771827 0.702030 -5.918256
v -4.796888 0.711418 -5.885598
v -4.799139 0.707449 -5.888525
v -4.798629 0.711156 -5.891905
v -4.794425 0.704504 -5.885356
v -4.791703 0.709072 -5.888525
v -4.773008 0.710827 -5.175537
v -4.776061 0.733564 -5.890257
v -4.771391 0.680869 -5.887135
v -4.785411 0.692499 -5.888525
v -4.751172 0.692643 -5.885356
v -4.746213 0.704504 -5.193056
v -3.864415 0.051889 -5.863368
v -3.851094 0.041259 -5.893339
v -3.855958 0.708508 -5.914808
v -3.860402 0.710667 -5.863078
v -3.835281 0.704956 -5.888525
v -3.834072 0.710394 -5.885356
v -3.829623 0.707449 -5.904454
v -3.833511 0.705099 -5.888529
v -3.833265 0.706349 -5.888728
v -3.863199 0.733668 -5.889561
v -3.839031 0.692643 -5.885356
v -3.880151 0.693238 -5.888448
v -3.882284 0.704261 -5.885598
v -3.882285 0.704383 -5.891453
v -3.879784 0.708980 -5.888525
v -3.860940 0.711020 -5.175533
v -3.834072 0.704504 -5.193056
v -3.872807 0.679020 -5.882215
v 5.949881 6.337392 -4.570420
v 6.289299 4.255522 -4.693978
v 5.250670 4.255522 -4.687741
v -2.029478 0.019622 -5.235442
v -2.066870 0.978226 -5.202872
v -1.989836 0.961405 -5.281446
v 1.821788 0.019623 -5.235442
v 1.861430 0.961405 -5.281446
v 1.784396 0.978225 -5.202871
v -4.564140 0.908274 -4.693716
v -3.854696 0.054769 -5.187029
v -4.564150 0.054769 -4.693728
v -4.021097 0.757656 -5.204858
v -4.466025 0.696762 -5.203948
v -4.466025 0.818548 -5.205768
v -3.253554 0.054769 -5.187017
v -3.253554 0.908274 -4.693728
v -3.963008 0.054769 -4.693716
v -3.756581 0.818549 -5.205768
v -3.311654 0.757656 -5.204858
v -3.756581 0.696762 -5.203948
v 4.676987 0.054769 -4.444180
v 3.822502 1.862191 -5.137137
v 4.676998 1.862191 -4.444193
v 3.919373 1.612351 -5.150899
v 3.923582 0.707449 -5.143153
v 4.580126 1.612350 -5.149028
vn 0.7016 -0.0001 -0.7126
vn -0.6909 0.7226 0.0248
vn 0.7008 -0.0000 0.7134
vn 0.4387 -0.0830 -0.8948
vn -0.9096 -0.4155 0.0032
vn -0.7043 -0.7099 -0.0018
vn -0.9997 -0.0151 0.0189
vn 0.9086 -0.4178 -0.0000
vn 0.7038 -0.7104 -0.0000
vn 0.9998 -0.0174 -0.0000
vn -0.2240 0.2262 -0.9480
vn 0.7039 0.7103 -0.0000
vn 0.7649 -0.6441 -0.0000
vn 0.7649 -0.6442 -0.0000
vn -0.0000 -0.7050 -0.7092
vn -0.0000 -0.7049 -0.7093
vn 0.6969 0.7033 -0.1402
vn -0.6969 -0.7033 -0.1405
vn 0.8811 -0.4727 -0.0099
vn 0.1478 -0.6773 -0.7207
vn 0.8811 -0.4728 -0.0100
vn 0.4464 -0.8389 0.3114
vn -0.4681 -0.0042 0.8837
vn -0.5509 -0.7730 -0.3147
vn -0.6773 0.0005 0.7357
vn -0.0000 -0.6356 -0.7721
vn 0.0003 1.0000 -0.0000
vn -0.0000 0.7283 -0.6852
vn -0.0000 1.0000 0.0007
vn 0.0119 -0.2525 -0.9675
vn -0.5318 -0.5654 0.6304
vn -0.5936 -0.7155 -0.3684
vn -0.0292 -0.1209 -0.9922
vn 0.2655 -0.3184 -0.9100
vn 0.0119 -0.2527 -0.9675
vn 0.5698 0.0228 -0.8215
vn 0.9938 0.0002 -0.1114
vn 0.7037 0.7105 -0.0000
vn -0.2299 -0.7514 0.6185
vn -0.9181 -0.0380 -0.3945
vn 0.1282 -0.9050 -0.4055
vn 0.1051 0.9091 0.4031
vn -0.1833 0.9826 -0.0286
vn -0.8382 0.5450 0.0199
vn 0.5726 0.8198 0.0070
vn -0.2915 0.0727 0.9538
vn -0.1297 0.9910 -0.0326
vn -0.9959 -0.0846 0.0308
vn -0.9181 -0.0380 -0.3946
vn 0.1281 -0.9050 -0.4056
vn 0.1051 0.9091 0.4030
vn -0.0000 0.0004 1.0000
vn 0.0199 -0.0200 0.9996
vn -0.0091 0.5366 -0.8438
vn 0.0104 0.4093 -0.9123
vn 0.0091 -0.5362 -0.8440
vn -0.4169 0.7667 0.4882
vn -0.9943 -0.1066 0.0005
vn -0.8035 0.5953 -0.0007
vn -0.4836 0.8753 -0.0018
vn -1.0000 0.0046 -0.0002
vn -0.5707 0.8212 -0.0000
vn -0.5602 0.8284 0.0001
vn -0.7502 0.6611 0.0148
vn 0.0376 0.0835 0.9958
vn 0.8308 0.5281 0.1759
vn 0.4002 0.8874 0.2287
vn -0.3727 -0.9267 0.0482
vn -0.4953 -0.8674 0.0476
vn 0.3766 -0.9257 0.0356
vn -0.2862 0.8399 -0.4611
vn -0.1382 -0.9895 0.0413
vn 0.5004 -0.8650 0.0376
vn 0.0377 0.0835 0.9958
vn 0.4003 0.8874 0.2287
vn -0.4952 -0.8675 0.0476
vn 0.3767 -0.9257 0.0356
vn -0.0002 -0.1631 -0.9866
vn 0.0004 -0.4403 -0.8979
vn -0.0000 -0.7049 -0.7094
vn -0.7650 -0.6440 -0.0000
vn -0.0203 -0.9998 -0.0000
vn 0.0076 -0.7009 0.7132
vn -0.0000 -1.0000 0.0075
vn 0.0264 -0.5573 0.8299
vn 0.9154 -0.4024 -0.0000
vn 0.7650 -0.6441 -0.0000
vn -0.0104 -0.4095 -0.9123
vn -0.6746 -0.0000 0.7382
vn -0.5550 0.0015 0.8319
vn -0.0023 0.0012 1.0000
vn -0.0000 -0.0000 -0.0000
vn -0.2473 -0.6639 -0.7058
vn -0.0019 0.6873 -0.7264
vn -0.0000 0.7104 -0.7038
vn -0.9944 -0.1058 0.0011
vn -0.0008 0.6962 0.7178
vn -0.0000 0.7145 0.6996
vn -1.0000 -0.0000 -0.0000
vn 0.0001 0.0009 1.0000
vn 0.8510 0.5251 -0.0005
vn 0.9999 0.0144 0.0008
vn 0.9999 0.0143 0.0002
vn 0.7016 -0.0000 -0.7125
vn -0.0000 0.0131 0.9999
vn 0.0242 0.9997 0.0004
vn 0.6993 0.7149 -0.0000
vn 0.0006 1.0000 -0.0000
vn -0.0000 -0.0000 -1.0000
vn -0.8949 0.4463 -0.0000
vn -0.9999 0.0170 -0.0000
vn -1.0000 -0.0090 0.0003
vn -1.0000 -0.0089 0.0003
vn -0.6979 -0.0075 0.7161
vn 0.0200 -0.9998 -0.0003
vn -0.0000 -1.0000 -0.0000
vn 0.0001 -0.7055 -0.7087
vn -0.9999 -0.0135 -0.0000
vn 0.7185 0.6956 0.0003
vn 1.0000 0.0048 -0.0000
vn 0.6349 0.0124 -0.7725
vn -0.0000 -0.0000 1.0000
vn 0.0062 0.7133 0.7008
vn 0.6084 0.2918 0.7380
vn -0.0020 1.0000 0.0007
vn -0.4865 0.8737 0.0001
vn -0.0000 0.0019 -1.0000
vn -0.0062 1.0000 -0.0000
vn -0.0102 0.9999 0.0009
vn -0.0102 0.9999 -0.0000
vn 1.0000 -0.0090 -0.0000
vn 0.0002 -0.0051 1.0000
vn -0.0000 -0.0025 1.0000
vn 0.7034 -0.7108 -0.0004
vn -0.0009 0.0004 1.0000
vn -0.0061 1.0000 -0.0000
vn -0.0000 -0.0001 1.0000
vn -0.0000 0.0001 1.0000
vn 1.0000 -0.0000 0.0099
vn 1.0000 -0.0026 -0.0001
vn 1.0000 -0.0000 -0.0000
vn 1.0000 -0.0063 -0.0002
vn 0.3310 -0.1588 -0.9302
vn -0.0016 -0.0027 -1.0000
vn -0.0083 -0.0426 -0.9991
vn 0.0083 0.0426 0.9991
vn -0.0083 -0.1135 -0.9935
vn -0.7677 -0.0000 -0.6408
vn -0.8111 -0.0000 -0.5849
vn -0.6885 -0.0000 -0.7253
vn -0.0060 1.0000 -0.0000
vn -0.0080 -0.0549 -0.9985
vn -0.9988 -0.0000 -0.0500
vn -0.9989 -0.0000 -0.0461
vn -0.9986 -0.0000 -0.0527
vn 0.9975 -0.0000 0.0702
vn 0.9989 -0.0000 0.0461
vn 0.9978 -0.0000 0.0666
vn 0.0080 0.0549 0.9985
vn 0.8729 -0.4364 0.2182
vn 0.8619 -0.3042 0.4056
vn 0.8745 -0.4036 0.2691
vn -0.0296 -0.9996 -0.0000
vn -0.0297 -0.9996 -0.0000
vn -0.0294 -0.9996 -0.0000
vn -0.0000 -0.9967 -0.0813
vn -0.0000 -0.9978 -0.0658
vn -0.0089 0.9966 0.0813
vn -0.0089 0.9964 0.0845
vn 0.8504 -0.5262 -0.0000
vn 0.8600 -0.5103 -0.0000
vn 0.3180 0.8480 -0.4240
vn 0.3482 0.8704 -0.3482
vn 0.3676 0.8823 -0.2941
vn -0.0115 -0.9968 -0.0790
vn -0.0115 -0.9975 -0.0702
vn -0.9973 0.0728 -0.0000
vn -0.9981 0.0623 -0.0000
vn 0.8978 -0.3530 0.2636
vn 0.0588 -0.1536 -0.9864
vn -0.0847 -0.1181 -0.9894
vn 0.1408 -0.1562 -0.9777
vn 0.0719 -0.0316 -0.9969
vn 0.9631 -0.2690 -0.0023
vn 0.1291 0.9912 -0.0303
vn 0.5846 0.6527 -0.4819
vn -0.9046 -0.0413 -0.4243
vn -0.7178 0.0041 0.6963
vn -0.2243 -0.9743 0.0183
vn 0.5251 -0.1058 0.8445
vn 0.2239 -0.1562 -0.9620
vn 0.4462 -0.4290 -0.7854
vn 0.8842 -0.4666 -0.0220
vn 0.9381 -0.0168 0.3459
vn -0.0975 -0.0174 0.9951
vn -0.7268 -0.0345 0.6860
vn -0.9217 0.0008 -0.3880
vn -0.8240 -0.0027 -0.5666
vn 0.1439 -0.0202 -0.9894
vn 0.0225 0.9870 -0.1592
vn -0.1636 0.9820 -0.0943
vn 0.0270 0.9965 0.0797
vn 0.0872 0.9871 0.1339
vn -0.0558 -0.0169 -0.9983
vn 0.0012 -0.0591 -0.9983
vn 0.9028 -0.3405 0.2628
vn 0.5822 0.6570 -0.4790
vn -0.8470 -0.0388 0.5303
vn -0.2183 -0.9757 0.0183
vn 0.5277 -0.1006 0.8435
vn -0.9046 -0.0412 -0.4242
vn 0.8976 -0.3532 0.2635
vn -0.0848 -0.1181 -0.9894
vn 0.1408 -0.1562 -0.9776
vn 0.9631 -0.2691 -0.0023
vn 0.4461 -0.4291 -0.7854
vn 0.5250 -0.1058 0.8445
vn 0.8841 -0.4668 -0.0220
vn -0.4893 0.8721 -0.0000
vn -0.5905 0.8071 -0.0000
vn -0.7244 0.6894 -0.0000
vn -0.0041 -1.0000 -0.0000
vn -0.7039 0.7103 -0.0000
vn -1.0000 -0.0042 -0.0005
vn -1.0000 -0.0054 -0.0004
vn -1.0000 -0.0044 -0.0008
vn -0.6325 -0.0000 0.7746
vn 0.0533 0.1384 0.9889
vn 0.0537 0.1387 0.9889
vn 0.0538 0.1393 0.9888
vn -0.7040 -0.7102 -0.0000
vn -0.7042 -0.7100 -0.0000
vn 0.7039 -0.7103 -0.0000
vn 0.7036 -0.7106 -0.0000
vn -0.2240 -0.2261 -0.9480
vn 0.1128 0.1140 -0.9871
vn 0.7648 -0.6443 -0.0031
vn -0.0000 -0.7051 -0.7091
vn 0.3737 0.3774 -0.8473
vn -0.3737 -0.3774 -0.8473
vn -0.4355 0.5231 -0.7326
vn -0.9741 -0.0064 -0.2259
vn -0.9645 0.1566 -0.2125
vn -0.9646 0.1564 -0.2122
vn -0.9646 0.1565 -0.2123
vn -0.7722 0.0149 -0.6352
vn -0.2996 0.9539 0.0198
vn 0.8230 -0.5464 0.1554
vn 0.0766 0.4830 -0.8722
vn -0.9618 -0.1926 -0.1944
vn -0.9647 -0.1780 -0.1939
vn 0.1392 -0.6376 0.7577
vn -0.8395 0.5402 0.0578
vn -0.6950 0.4017 -0.5963
vn -0.1788 0.6305 0.7553
vn -0.4354 0.5237 -0.7322
vn -0.9741 -0.0058 -0.2261
vn -0.9646 0.1561 -0.2125
vn -0.7722 0.0149 -0.6353
vn -0.2997 0.9538 0.0198
vn 0.8229 -0.5465 0.1552
vn -0.5058 -0.0426 -0.8616
vn 0.0986 0.0078 0.9951
vn 0.0246 -0.9997 0.0049
vn -0.0000 1.0000 -0.0000
vn -0.0000 0.7050 0.7092
vn -0.0102 0.9999 0.0021
vn -0.0000 0.2692 -0.9631
vn 0.0933 -0.2753 -0.9568
vn -0.8070 -0.5855 -0.0768
vn 0.5609 -0.3669 -0.7422
vn 0.0935 -0.2757 -0.9567
vn -0.0000 0.0085 -1.0000
vn 0.0128 0.0129 0.9998
vn 0.5727 0.8198 -0.0000
vn 0.0038 0.0092 -1.0000
vn 0.7648 0.6442 -0.0000
vn -0.8689 -0.0406 -0.4932
vn -0.8689 -0.0406 -0.4933
vn 0.0001 -0.1825 0.9832
vn 0.0218 0.9924 0.1210
vn -0.0000 0.9998 -0.0198
vn 0.7214 -0.2445 -0.6479
vn 0.3197 -0.9361 -0.1465
vn 0.3196 -0.9362 -0.1466
vn 0.3199 -0.9361 -0.1464
vn -0.6248 0.5711 0.5324
vn 0.7214 -0.2443 -0.6481
vn 0.7213 -0.2443 -0.6481
vn 0.7214 -0.2443 -0.6480
vn 0.0633 0.9977 0.0223
vn -0.2049 0.9770 -0.0584
vn -0.5400 0.6760 -0.5014
vn -0.7043 -0.7099 -0.0000
vn -0.0000 -0.7048 -0.7094
vn -0.0000 -1.0000 0.0062
vn -0.0000 -0.0089 1.0000
vn -0.0000 -0.9998 -0.0202
vn 0.4248 0.3834 -0.8201
vn 0.4288 0.3789 -0.8201
vn 0.4248 0.3833 -0.8201
vn 0.7017 -0.0000 0.7124
vn 0.7019 -0.0000 -0.7123
vn 0.0002 -0.0088 1.0000
vn -0.0000 -0.0001 -1.0000
vn -0.0189 -0.0484 -0.9986
vn 0.3202 0.8399 0.4383
vn -0.6223 -0.7827 -0.0002
vn 1.0000 0.0040 -0.0000
vn -1.0000 -0.0089 -0.0000
vn -0.6355 -0.0124 0.7720
vn 0.7015 -0.0000 -0.7127
vn -0.0002 -0.0088 -1.0000
vn 0.0075 -0.0087 -0.9999
vn 0.0089 -0.0087 -0.9999
vn 0.0104 -0.0088 -0.9999
vn -0.4041 -0.0036 -0.9147
vn 0.7037 -0.7105 -0.0000
vn -0.0042 -0.0000 -1.0000
vn -0.0042 -0.0001 -1.0000
vn -0.0043 -0.0014 -1.0000
vn -0.0043 -0.0043 -1.0000
vn 1.0000 -0.0090 -0.0003
vn 0.4038 -0.0036 0.9148
vn -0.0000 0.9994 -0.0336
vn -0.7039 -0.7103 -0.0000
vn -1.0000 0.0089 -0.0000
vn -0.0000 -0.0002 1.0000
vn 0.4874 -0.6156 0.6193
vn 0.4873 -0.6156 0.6193
vn -0.4920 -0.8164 -0.3025
vn 0.9589 -0.2678 0.0940
vn -0.9989 -0.0470 -0.0009
vn -0.9748 -0.2214 0.0264
vn 0.9568 -0.2673 0.1148
vn 0.0181 0.9969 0.0760
vn 0.3346 -0.8316 0.4433
vn -0.1850 -0.9575 -0.2211
vn 0.8248 -0.0526 -0.5630
vn -0.5660 -0.2149 -0.7959
vn -0.9989 -0.0470 -0.0011
vn 0.4875 -0.6154 0.6194
vn -0.4921 -0.8163 -0.3026
vn 0.9588 -0.2679 0.0941
vn -0.9748 -0.2215 0.0264
vt 0.436449 0.484456
vt 0.436504 0.484511
vt 0.436559 0.484566
vt 0.218511 0.997170
vt 0.218549 0.997130
vt 0.218549 0.997208
vt 0.210374 0.997186
vt 0.210368 0.997186
vt 0.210374 0.997130
vt 0.188902 0.252389
vt 0.188902 0.252474
vt 0.188847 0.252487
vt 0.004760 0.249634
vt 0.004784 0.249689
vt 0.002037 0.249668
vt 0.188927 0.484567
vt 0.188902 0.484511
vt 0.191650 0.484532
vt 0.214449 0.997205
vt 0.214470 0.997242
vt 0.214374 0.997184
vt 0.252388 0.249634
vt 0.252388 0.249579
vt 0.252443 0.249634
vt 0.666387 0.672875
vt 0.666320 0.672864
vt 0.666320 0.672810
vt 0.188902 0.481782
vt 0.188847 0.481782
vt 0.188902 0.481727
vt 0.436505 0.249579
vt 0.436505 0.249645
vt 0.436449 0.249634
vt 0.188902 0.249634
vt 0.188902 0.249700
vt 0.188847 0.249689
vt 0.025992 0.997892
vt 0.025990 0.997890
vt 0.025930 0.997823
vt 0.206366 0.997155
vt 0.206306 0.997130
vt 0.206276 0.997250
vt 0.030746 0.997891
vt 0.030745 0.997890
vt 0.030685 0.997823
vt 0.989698 0.391418
vt 0.978381 0.391121
vt 0.989666 0.391121
vt 0.049046 0.986865
vt 0.048949 0.993074
vt 0.048992 0.986864
vt 0.252387 0.484511
vt 0.252442 0.484456
vt 0.436504 0.481757
vt 0.436449 0.481782
vt 0.252442 0.484577
vt 0.198211 0.997153
vt 0.198219 0.997371
vt 0.198172 0.997386
vt 0.990467 0.289496
vt 0.990522 0.289703
vt 0.990467 0.289701
vt 0.194103 0.997159
vt 0.194162 0.997367
vt 0.194118 0.997393
vt 0.202269 0.997153
vt 0.202276 0.997371
vt 0.202229 0.997386
vt 0.707678 0.488499
vt 0.705670 0.488557
vt 0.705700 0.488499
vt 0.220382 0.490359
vt 0.214200 0.490320
vt 0.220343 0.490307
vt 0.672530 0.672865
vt 0.672585 0.492986
vt 0.672585 0.672799
vt 0.989574 0.445836
vt 0.978563 0.445646
vt 0.989542 0.445595
vt 0.978369 0.294006
vt 0.990467 0.293802
vt 0.990573 0.294085
vt 0.978649 0.335608
vt 0.990446 0.335639
vt 0.978340 0.335661
vt 0.978370 0.289457
vt 0.990467 0.289209
vt 0.978649 0.331024
vt 0.990446 0.331054
vt 0.978340 0.331076
vt 0.989574 0.450216
vt 0.978563 0.450026
vt 0.989542 0.449975
vt 0.978369 0.298591
vt 0.990490 0.298397
vt 0.990573 0.298671
vt 0.978649 0.340193
vt 0.990446 0.340224
vt 0.978340 0.340245
vt 0.715910 0.479029
vt 0.715965 0.249677
vt 0.715963 0.478973
vt 0.004840 0.484511
vt 0.004784 0.481782
vt 0.004784 0.481727
vt 0.439264 0.484456
vt 0.439224 0.249607
vt 0.121172 0.997578
vt 0.121126 0.997175
vt 0.121172 0.997161
vt 0.433650 0.717912
vt 0.249641 0.717942
vt 0.249634 0.717881
vt 0.239404 0.490358
vt 0.239369 0.674366
vt 0.239349 0.674400
vt 0.308151 0.989649
vt 0.308086 0.986895
vt 0.308142 0.986905
vt 0.016229 0.997467
vt 0.016575 0.997131
vt 0.016913 0.997131
vt 0.990467 0.312683
vt 0.978389 0.312724
vt 0.978396 0.312189
vt 0.125173 0.997458
vt 0.125232 0.997130
vt 0.125213 0.997541
vt 0.990467 0.317198
vt 0.978377 0.317185
vt 0.978396 0.316847
vt 0.021002 0.997467
vt 0.021349 0.997131
vt 0.021686 0.997131
vt 0.990467 0.321998
vt 0.978389 0.322039
vt 0.978396 0.321505
vt 0.655011 0.493049
vt 0.655077 0.677111
vt 0.655011 0.677056
vt 0.188847 0.484511
vt 0.188902 0.481813
vt 0.004784 0.484511
vt 0.002026 0.484511
vt 0.004840 0.249689
vt 0.004784 0.252388
vt 0.666320 0.492997
vt 0.191635 0.249689
vt 0.329492 0.986865
vt 0.329438 0.988898
vt 0.329438 0.986864
vt 0.705712 0.249579
vt 0.711855 0.249596
vt 0.705659 0.249634
vt 0.249634 0.123771
vt 0.493186 0.002001
vt 0.493157 0.245560
vt 0.002028 0.123827
vt 0.245598 0.002036
vt 0.245579 0.245615
vt 0.497247 0.235085
vt 0.592491 0.002001
vt 0.687735 0.235093
vt 0.706163 0.717817
vt 0.707678 0.488554
vt 0.226431 0.490307
vt 0.226431 0.674314
vt 0.224453 0.674369
vt 0.433654 0.488638
vt 0.249637 0.488607
vt 0.224398 0.490307
vt 0.714350 0.002038
vt 0.714406 0.231295
vt 0.712299 0.231408
vt 0.210133 0.490369
vt 0.210133 0.670182
vt 0.208100 0.670240
vt 0.208100 0.490373
vt 0.208155 0.490307
vt 0.712354 0.002056
vt 0.230486 0.490363
vt 0.233231 0.674369
vt 0.230431 0.674480
vt 0.002000 0.986864
vt 0.004754 0.986864
vt 0.004755 0.993007
vt 0.661220 0.677111
vt 0.658386 0.679841
vt 0.661276 0.677167
vt 0.661276 0.492994
vt 0.701645 0.249700
vt 0.695380 0.249688
vt 0.695435 0.249633
vt 0.188902 0.252418
vt 0.004840 0.252418
vt 0.004795 0.481825
vt 0.004784 0.252363
vt 0.214187 0.670247
vt 0.214188 0.670193
vt 0.214189 0.490326
vt 0.220398 0.670180
vt 0.661276 0.493049
vt 0.698034 0.002055
vt 0.698034 0.236876
vt 0.691774 0.236931
vt 0.233188 0.490337
vt 0.980094 0.982041
vt 0.978340 0.979275
vt 0.984600 0.979331
vt 0.249658 0.484456
vt 0.252250 0.249633
vt 0.661209 0.490239
vt 0.655066 0.492969
vt 0.655066 0.490240
vt 0.978429 0.975250
vt 0.984605 0.972490
vt 0.984574 0.975189
vt 0.245579 0.490305
vt 0.252408 0.252308
vt 0.436478 0.252327
vt 0.672519 0.492944
vt 0.666320 0.492943
vt 0.695380 0.484487
vt 0.701645 0.484498
vt 0.245579 0.674423
vt 0.245634 0.674423
vt 0.978340 0.968435
vt 0.978395 0.965761
vt 0.984660 0.965651
vt 0.984539 0.968490
vt 0.978396 0.968490
vt 0.666355 0.675550
vt 0.672530 0.675556
vt 0.705689 0.484474
vt 0.711846 0.484487
vt 0.209206 0.721568
vt 0.223254 0.760461
vt 0.195159 0.760464
vt 0.732533 0.045025
vt 0.746585 0.083918
vt 0.718475 0.083924
vt 0.371137 0.877802
vt 0.383968 0.914258
vt 0.358308 0.914261
vt 0.538609 0.723998
vt 0.551445 0.760454
vt 0.525770 0.760461
vt 0.609450 0.877791
vt 0.609873 0.915485
vt 0.609026 0.915484
vt 0.447773 0.877790
vt 0.448203 0.915485
vt 0.447341 0.915485
vt 0.570305 0.877791
vt 0.570728 0.915485
vt 0.569881 0.915484
vt 0.452675 0.877790
vt 0.453105 0.915485
vt 0.452243 0.915485
vt 0.614343 0.877791
vt 0.614766 0.915485
vt 0.613919 0.915484
vt 0.457577 0.877790
vt 0.458007 0.915485
vt 0.457145 0.915485
vt 0.637658 0.919567
vt 0.639727 0.949232
vt 0.635601 0.949238
vt 0.572405 0.949235
vt 0.570336 0.919570
vt 0.574461 0.919564
vt 0.359988 0.721985
vt 0.374035 0.760878
vt 0.345940 0.760881
vt 0.732531 0.088006
vt 0.746585 0.126899
vt 0.718475 0.126906
vt 0.400803 0.877802
vt 0.413634 0.914258
vt 0.387974 0.914261
vt 0.575198 0.877791
vt 0.575621 0.915485
vt 0.574774 0.915484
vt 0.462479 0.877790
vt 0.462909 0.915485
vt 0.462047 0.915485
vt 0.467381 0.877790
vt 0.467811 0.915485
vt 0.466949 0.915485
vt 0.599664 0.877791
vt 0.600087 0.915485
vt 0.599240 0.915484
vt 0.550712 0.877790
vt 0.551142 0.915485
vt 0.550280 0.915485
vt 0.619236 0.877791
vt 0.619659 0.915485
vt 0.618812 0.915484
vt 0.580556 0.919567
vt 0.582625 0.949232
vt 0.578499 0.949238
vt 0.662136 0.949235
vt 0.660068 0.919570
vt 0.664193 0.919564
vt 0.295785 0.721985
vt 0.309833 0.760878
vt 0.281738 0.760881
vt 0.252473 0.877802
vt 0.265303 0.914258
vt 0.239643 0.914262
vt 0.014870 0.877801
vt 0.027707 0.914257
vt 0.002033 0.914264
vt 0.624129 0.877791
vt 0.624552 0.915485
vt 0.623705 0.915484
vt 0.555614 0.877790
vt 0.556043 0.915485
vt 0.555181 0.915485
vt 0.472283 0.877790
vt 0.472712 0.915485
vt 0.471850 0.915485
vt 0.580091 0.877791
vt 0.580514 0.915485
vt 0.579667 0.915484
vt 0.629022 0.877791
vt 0.629445 0.915485
vt 0.628598 0.915484
vt 0.477184 0.877790
vt 0.477614 0.915485
vt 0.476752 0.915485
vt 0.554027 0.949238
vt 0.556083 0.919567
vt 0.558152 0.949232
vt 0.623406 0.919564
vt 0.621350 0.949235
vt 0.619281 0.919570
vt 0.732532 0.130988
vt 0.746585 0.169881
vt 0.718475 0.169887
vt 0.282139 0.877802
vt 0.294969 0.914258
vt 0.269309 0.914262
vt 0.044582 0.877801
vt 0.057418 0.914257
vt 0.031743 0.914264
vt 0.633915 0.877791
vt 0.634338 0.915485
vt 0.633491 0.915484
vt 0.482086 0.877790
vt 0.482516 0.915485
vt 0.481654 0.915485
vt 0.638808 0.877791
vt 0.639231 0.915485
vt 0.638384 0.915484
vt 0.486988 0.877790
vt 0.487418 0.915485
vt 0.486556 0.915485
vt 0.673060 0.877791
vt 0.673483 0.915485
vt 0.672635 0.915484
vt 0.491890 0.877790
vt 0.492320 0.915485
vt 0.491458 0.915485
vt 0.566304 0.919564
vt 0.564247 0.949236
vt 0.562178 0.919570
vt 0.602972 0.949238
vt 0.605028 0.919567
vt 0.607097 0.949232
vt 0.327886 0.721985
vt 0.341934 0.760878
vt 0.313839 0.760881
vt 0.311805 0.877802
vt 0.324635 0.914258
vt 0.298975 0.914262
vt 0.074293 0.877802
vt 0.087128 0.914257
vt 0.061454 0.914264
vt 0.496792 0.877790
vt 0.497222 0.915485
vt 0.496360 0.915485
vt 0.584984 0.877791
vt 0.585407 0.915485
vt 0.584560 0.915484
vt 0.589877 0.877791
vt 0.590300 0.915485
vt 0.589453 0.915484
vt 0.560515 0.877790
vt 0.560945 0.915485
vt 0.560083 0.915485
vt 0.643701 0.877791
vt 0.644124 0.915485
vt 0.643277 0.915484
vt 0.501694 0.877790
vt 0.502123 0.915485
vt 0.501261 0.915485
vt 0.547932 0.949235
vt 0.545863 0.919570
vt 0.549989 0.919564
vt 0.588713 0.919567
vt 0.590782 0.949232
vt 0.586657 0.949238
vt 0.734015 0.421549
vt 0.748063 0.460441
vt 0.719968 0.460444
vt 0.222807 0.877802
vt 0.235636 0.914258
vt 0.209976 0.914262
vt 0.104003 0.877802
vt 0.116839 0.914258
vt 0.091164 0.914264
vt 0.648594 0.877791
vt 0.649017 0.915485
vt 0.648170 0.915484
vt 0.506596 0.877790
vt 0.507025 0.915485
vt 0.506163 0.915485
vt 0.653487 0.877791
vt 0.653910 0.915485
vt 0.653063 0.915484
vt 0.511497 0.877790
vt 0.511927 0.915485
vt 0.511065 0.915485
vt 0.594771 0.877791
vt 0.595194 0.915485
vt 0.594346 0.915484
vt 0.516399 0.877790
vt 0.516829 0.915485
vt 0.515967 0.915485
vt 0.651916 0.949238
vt 0.653973 0.919567
vt 0.656042 0.949232
vt 0.541831 0.919564
vt 0.539775 0.949235
vt 0.537706 0.919570
vt 0.419603 0.721985
vt 0.433651 0.760878
vt 0.405556 0.760881
vt 0.732532 0.002043
vt 0.746585 0.040936
vt 0.718475 0.040943
vt 0.430469 0.877802
vt 0.443300 0.914258
vt 0.417640 0.914261
vt 0.133714 0.877802
vt 0.146549 0.914258
vt 0.120875 0.914264
vt 0.565412 0.877791
vt 0.565835 0.915485
vt 0.564988 0.915484
vt 0.521301 0.877790
vt 0.521731 0.915485
vt 0.520869 0.915485
vt 0.658380 0.877791
vt 0.658803 0.915485
vt 0.657956 0.915484
vt 0.526203 0.877790
vt 0.526633 0.915485
vt 0.525771 0.915485
vt 0.604557 0.877791
vt 0.604980 0.915485
vt 0.604133 0.915484
vt 0.531105 0.877790
vt 0.531534 0.915485
vt 0.530672 0.915485
vt 0.613192 0.949235
vt 0.611123 0.919570
vt 0.615249 0.919564
vt 0.645815 0.919567
vt 0.647884 0.949232
vt 0.643759 0.949238
vt 0.263684 0.721985
vt 0.277732 0.760878
vt 0.249637 0.760881
vt 0.732532 0.173969
vt 0.746585 0.212862
vt 0.718475 0.212869
vt 0.341471 0.877802
vt 0.354301 0.914258
vt 0.328641 0.914262
vt 0.193135 0.877802
vt 0.205970 0.914258
vt 0.180296 0.914264
vt 0.677953 0.877791
vt 0.678376 0.915485
vt 0.677529 0.915484
vt 0.536006 0.877790
vt 0.536436 0.915485
vt 0.535574 0.915485
vt 0.663273 0.877791
vt 0.663696 0.915485
vt 0.662849 0.915484
vt 0.540908 0.877790
vt 0.541338 0.915485
vt 0.540476 0.915485
vt 0.668166 0.877791
vt 0.668589 0.915485
vt 0.667742 0.915484
vt 0.545810 0.877790
vt 0.546240 0.915485
vt 0.545378 0.915485
vt 0.598934 0.919564
vt 0.596877 0.949235
vt 0.594808 0.919570
vt 0.627444 0.949238
vt 0.629500 0.919567
vt 0.631569 0.949232
vt 0.670541 0.692035
vt 0.686149 0.731137
vt 0.654928 0.731119
vt 0.210819 0.678401
vt 0.226427 0.717502
vt 0.195189 0.717486
vt 0.493124 0.723977
vt 0.521735 0.723996
vt 0.507428 0.760469
vt 0.460472 0.724013
vt 0.489117 0.723996
vt 0.474801 0.760470
vt 0.903552 0.012231
vt 0.903542 0.011458
vt 0.940023 0.011846
vt 0.903551 0.017036
vt 0.903543 0.016279
vt 0.940022 0.016658
vt 0.978383 0.911914
vt 0.978389 0.910749
vt 0.985256 0.911337
vt 0.978383 0.901555
vt 0.978391 0.900416
vt 0.985256 0.900991
vt 0.978383 0.906722
vt 0.978391 0.905583
vt 0.985256 0.906158
vt 0.978383 0.917109
vt 0.978389 0.915944
vt 0.985255 0.916532
vt 0.219412 0.486300
vt 0.226316 0.249646
vt 0.233231 0.486282
vt 0.215298 0.249650
vt 0.208393 0.486286
vt 0.201466 0.249659
vt 0.241981 0.249652
vt 0.245572 0.486292
vt 0.238388 0.486282
vt 0.655058 0.486209
vt 0.658655 0.249605
vt 0.662256 0.486225
vt 0.199630 0.491703
vt 0.197687 0.589105
vt 0.195748 0.491693
vt 0.443021 0.594578
vt 0.441065 0.497188
vt 0.444970 0.497184
vt 0.903545 0.583667
vt 0.933775 0.569443
vt 0.933772 0.597873
vt 0.857679 0.919552
vt 0.870684 0.947346
vt 0.844671 0.947332
vt 0.945300 0.405485
vt 0.973102 0.392488
vt 0.973099 0.418482
vt 0.945314 0.734204
vt 0.945305 0.733346
vt 0.974303 0.733776
vt 0.945314 0.577569
vt 0.945306 0.576729
vt 0.974303 0.577149
vt 0.945314 0.876357
vt 0.945305 0.875499
vt 0.974303 0.875929
vt 0.945314 0.582462
vt 0.945306 0.581622
vt 0.974303 0.582042
vt 0.945314 0.587355
vt 0.945306 0.586515
vt 0.974303 0.586935
vt 0.945314 0.739105
vt 0.945305 0.738247
vt 0.974303 0.738678
vt 0.364745 0.949586
vt 0.366802 0.919566
vt 0.368871 0.949580
vt 0.287288 0.919564
vt 0.285232 0.949584
vt 0.283163 0.919570
vt 0.903552 0.208064
vt 0.903537 0.179618
vt 0.933768 0.193842
vt 0.903552 0.792809
vt 0.903537 0.764361
vt 0.933773 0.778577
vt 0.767531 0.919552
vt 0.780535 0.947346
vt 0.754522 0.947332
vt 0.945299 0.435482
vt 0.973102 0.422484
vt 0.973099 0.448479
vt 0.945314 0.744007
vt 0.945305 0.743149
vt 0.974303 0.743579
vt 0.945314 0.592248
vt 0.945306 0.591408
vt 0.974303 0.591829
vt 0.945314 0.597141
vt 0.945306 0.596301
vt 0.974303 0.596722
vt 0.945314 0.748909
vt 0.945305 0.748051
vt 0.974303 0.748481
vt 0.945314 0.753811
vt 0.945305 0.752953
vt 0.974303 0.753383
vt 0.945314 0.548211
vt 0.945306 0.547371
vt 0.974303 0.547791
vt 0.393338 0.919564
vt 0.391281 0.949584
vt 0.389212 0.919570
vt 0.291326 0.949587
vt 0.293383 0.919566
vt 0.295452 0.949581
vt 0.034524 0.919559
vt 0.062972 0.919545
vt 0.048756 0.949780
vt 0.903552 0.500433
vt 0.903537 0.471987
vt 0.933768 0.486211
vt 0.945300 0.315495
vt 0.973102 0.302498
vt 0.973099 0.328493
vt 0.797580 0.919552
vt 0.810585 0.947346
vt 0.784572 0.947332
vt 0.945314 0.602034
vt 0.945306 0.601194
vt 0.974303 0.601615
vt 0.945314 0.714596
vt 0.945305 0.713738
vt 0.974303 0.714168
vt 0.945314 0.758713
vt 0.945305 0.757855
vt 0.974303 0.758285
vt 0.945314 0.675430
vt 0.945306 0.674590
vt 0.974303 0.675011
vt 0.945314 0.881258
vt 0.945305 0.880400
vt 0.974303 0.880831
vt 0.945314 0.680323
vt 0.945306 0.679483
vt 0.974303 0.679904
vt 0.350487 0.919567
vt 0.352556 0.949581
vt 0.348430 0.949587
vt 0.374966 0.949584
vt 0.372897 0.919569
vt 0.377023 0.919563
vt 0.903545 0.356268
vt 0.933775 0.342045
vt 0.933761 0.370494
vt 0.945299 0.345491
vt 0.973102 0.332495
vt 0.973099 0.358489
vt 0.887727 0.919552
vt 0.900733 0.947346
vt 0.874720 0.947332
vt 0.945314 0.763614
vt 0.945305 0.762757
vt 0.974303 0.763187
vt 0.945314 0.606927
vt 0.945306 0.606087
vt 0.974303 0.606508
vt 0.945314 0.768516
vt 0.945305 0.767658
vt 0.974303 0.768088
vt 0.945314 0.611820
vt 0.945306 0.610980
vt 0.974303 0.611401
vt 0.945314 0.773418
vt 0.945305 0.772560
vt 0.974303 0.772990
vt 0.945314 0.616714
vt 0.945306 0.615874
vt 0.974303 0.616294
vt 0.250538 0.949587
vt 0.252595 0.919567
vt 0.254664 0.949581
vt 0.409653 0.919563
vt 0.407597 0.949583
vt 0.405528 0.919569
vt 0.903552 0.467947
vt 0.903537 0.439501
vt 0.933768 0.453726
vt 0.903552 0.890268
vt 0.903537 0.861820
vt 0.933773 0.876036
vt 0.945299 0.465478
vt 0.973102 0.452481
vt 0.973099 0.478475
vt 0.917777 0.919552
vt 0.930782 0.947346
vt 0.904769 0.947332
vt 0.945314 0.719498
vt 0.945305 0.718640
vt 0.974303 0.719070
vt 0.945314 0.553104
vt 0.945306 0.552264
vt 0.974303 0.552684
vt 0.945314 0.621607
vt 0.945306 0.620767
vt 0.974303 0.621187
vt 0.945314 0.778320
vt 0.945305 0.777462
vt 0.974303 0.777892
vt 0.945314 0.783222
vt 0.945305 0.782364
vt 0.974303 0.782794
vt 0.945314 0.557997
vt 0.945306 0.557157
vt 0.974303 0.557577
vt 0.268916 0.949583
vt 0.266847 0.919569
vt 0.270973 0.919563
vt 0.244437 0.919567
vt 0.246506 0.949581
vt 0.242380 0.949587
vt 0.016262 0.919552
vt 0.030485 0.949782
vt 0.002055 0.949779
vt 0.945299 0.495474
vt 0.973102 0.482477
vt 0.973099 0.508472
vt 0.945308 0.015006
vt 0.973102 0.002001
vt 0.973088 0.028014
vt 0.945314 0.788124
vt 0.945305 0.787266
vt 0.974303 0.787696
vt 0.945314 0.685216
vt 0.945306 0.684376
vt 0.974303 0.684797
vt 0.945314 0.660751
vt 0.945306 0.659911
vt 0.974303 0.660331
vt 0.945314 0.793025
vt 0.945305 0.792167
vt 0.974303 0.792598
vt 0.945314 0.797927
vt 0.945305 0.797069
vt 0.974303 0.797500
vt 0.945314 0.562890
vt 0.945306 0.562050
vt 0.974303 0.562470
vt 0.309698 0.919566
vt 0.311767 0.949580
vt 0.307641 0.949586
vt 0.301547 0.949583
vt 0.299478 0.919569
vt 0.303604 0.919563
vt 0.903545 0.843558
vt 0.933775 0.829334
vt 0.933772 0.857765
vt 0.903545 0.226326
vt 0.933775 0.212103
vt 0.933761 0.240552
vt 0.945298 0.538469
vt 0.945301 0.512474
vt 0.973100 0.525472
vt 0.945315 0.058061
vt 0.945301 0.032051
vt 0.973095 0.045057
vt 0.939722 0.919558
vt 0.940562 0.919550
vt 0.940142 0.948547
vt 0.945314 0.802829
vt 0.945305 0.801971
vt 0.974303 0.802401
vt 0.945314 0.807731
vt 0.945305 0.806873
vt 0.974303 0.807303
vt 0.945315 0.626500
vt 0.945306 0.625660
vt 0.974303 0.626080
vt 0.945314 0.812633
vt 0.945305 0.811775
vt 0.974303 0.812205
vt 0.945314 0.690109
vt 0.945306 0.689269
vt 0.974303 0.689690
vt 0.328076 0.919563
vt 0.326020 0.949583
vt 0.323951 0.919569
vt 0.340272 0.949586
vt 0.342329 0.919566
vt 0.344398 0.949580
vt 0.903545 0.648639
vt 0.933775 0.634415
vt 0.933772 0.662846
vt 0.903545 0.421239
vt 0.933775 0.407016
vt 0.933761 0.435465
vt 0.945315 0.238359
vt 0.945301 0.212348
vt 0.973100 0.225346
vt 0.945315 0.088110
vt 0.945301 0.062100
vt 0.973094 0.075106
vt 0.945314 0.817535
vt 0.945305 0.816677
vt 0.974303 0.817107
vt 0.945314 0.695002
vt 0.945306 0.694163
vt 0.974303 0.694583
vt 0.945314 0.822436
vt 0.945305 0.821578
vt 0.974303 0.822009
vt 0.945314 0.567783
vt 0.945306 0.566943
vt 0.974303 0.567363
vt 0.945314 0.724400
vt 0.945305 0.723542
vt 0.974303 0.723972
vt 0.945314 0.631392
vt 0.945306 0.630553
vt 0.974303 0.630973
vt 0.315799 0.949586
vt 0.317856 0.919566
vt 0.319925 0.949580
vt 0.262815 0.919564
vt 0.260758 0.949584
vt 0.258689 0.919570
vt 0.903545 0.746099
vt 0.933775 0.731875
vt 0.933772 0.760305
vt 0.903545 0.518695
vt 0.933775 0.504472
vt 0.933761 0.532921
vt 0.945315 0.208309
vt 0.945301 0.182297
vt 0.973101 0.195295
vt 0.945315 0.118160
vt 0.945301 0.092150
vt 0.973094 0.105156
vt 0.945314 0.636286
vt 0.945306 0.635446
vt 0.974303 0.635866
vt 0.945314 0.827338
vt 0.945305 0.826480
vt 0.974303 0.826911
vt 0.945314 0.832240
vt 0.945305 0.831382
vt 0.974303 0.831812
vt 0.945314 0.665644
vt 0.945306 0.664804
vt 0.974303 0.665225
vt 0.945314 0.837142
vt 0.945305 0.836284
vt 0.974303 0.836714
vt 0.945314 0.572676
vt 0.945306 0.571836
vt 0.974303 0.572256
vt 0.277074 0.949583
vt 0.275005 0.919569
vt 0.279131 0.919563
vt 0.358644 0.919566
vt 0.360713 0.949580
vt 0.356588 0.949586
vt 0.903545 0.681126
vt 0.933775 0.666902
vt 0.933772 0.695333
vt 0.903545 0.258811
vt 0.933775 0.244588
vt 0.933761 0.273037
vt 0.945315 0.268409
vt 0.945301 0.242398
vt 0.973100 0.255395
vt 0.814624 0.919559
vt 0.840634 0.919545
vt 0.827627 0.947339
vt 0.945314 0.670537
vt 0.945306 0.669697
vt 0.974303 0.670117
vt 0.945314 0.842044
vt 0.945305 0.841186
vt 0.974303 0.841616
vt 0.945314 0.699896
vt 0.945306 0.699056
vt 0.974303 0.699476
vt 0.945314 0.709694
vt 0.945305 0.708837
vt 0.974303 0.709267
vt 0.945314 0.704789
vt 0.945306 0.703949
vt 0.974303 0.704369
vt 0.945314 0.846946
vt 0.945305 0.846088
vt 0.974303 0.846518
vt 0.234223 0.949587
vt 0.236279 0.919567
vt 0.238348 0.949581
vt 0.230184 0.919564
vt 0.228128 0.949584
vt 0.226059 0.919570
vt 0.903545 0.551180
vt 0.933775 0.536957
vt 0.933761 0.565406
vt 0.903545 0.811071
vt 0.933775 0.796848
vt 0.933772 0.825278
vt 0.945315 0.148209
vt 0.945301 0.122199
vt 0.973094 0.135206
vt 0.945315 0.298459
vt 0.945301 0.272448
vt 0.973100 0.285445
vt 0.945314 0.851847
vt 0.945305 0.850990
vt 0.974303 0.851420
vt 0.945314 0.641179
vt 0.945306 0.640339
vt 0.974303 0.640759
vt 0.945310 0.645652
vt 0.974304 0.645229
vt 0.974302 0.646076
vt 0.945310 0.728873
vt 0.974303 0.728443
vt 0.974303 0.729305
vt 0.945314 0.856749
vt 0.945305 0.855891
vt 0.974303 0.856321
vt 0.945314 0.650964
vt 0.945306 0.650125
vt 0.974303 0.650545
vt 0.399439 0.949584
vt 0.397370 0.919570
vt 0.401496 0.919563
vt 0.219964 0.919567
vt 0.222033 0.949581
vt 0.217907 0.949587
vt 0.903545 0.713612
vt 0.933775 0.699388
vt 0.933772 0.727819
vt 0.903545 0.291297
vt 0.933775 0.277074
vt 0.933761 0.305523
vt 0.945298 0.388486
vt 0.945301 0.362491
vt 0.973101 0.375489
vt 0.945315 0.178258
vt 0.945301 0.152248
vt 0.973094 0.165255
vt 0.934829 0.919558
vt 0.935669 0.919550
vt 0.935249 0.948547
vt 0.945314 0.861651
vt 0.945305 0.860793
vt 0.974303 0.861223
vt 0.945314 0.866553
vt 0.945305 0.865695
vt 0.974303 0.866125
vt 0.945314 0.543317
vt 0.945306 0.542478
vt 0.974303 0.542898
vt 0.945314 0.655858
vt 0.945306 0.655018
vt 0.974303 0.655438
vt 0.945314 0.871455
vt 0.945305 0.870597
vt 0.974303 0.871027
vt 0.334177 0.949583
vt 0.332108 0.919569
vt 0.336234 0.919563
vt 0.383117 0.919566
vt 0.385186 0.949581
vt 0.381061 0.949587
vt 0.993089 0.032241
vt 0.978381 0.037863
vt 0.978386 0.026619
vt 0.993085 0.068486
vt 0.978383 0.062864
vt 0.993091 0.057242
vt 0.984355 0.643542
vt 0.978881 0.643294
vt 0.981408 0.638429
vt 0.982986 0.609238
vt 0.978364 0.606288
vt 0.982986 0.603338
vt 0.978369 0.730726
vt 0.985594 0.730573
vt 0.985594 0.730897
vt 0.985557 0.717609
vt 0.978340 0.717439
vt 0.985572 0.717268
vt 0.978369 0.739611
vt 0.985594 0.739443
vt 0.985594 0.739767
vt 0.985557 0.735349
vt 0.978340 0.735194
vt 0.985572 0.735008
vt 0.978369 0.744032
vt 0.985594 0.743878
vt 0.985594 0.744203
vt 0.985557 0.815180
vt 0.978340 0.815011
vt 0.985572 0.814839
vt 0.978387 0.681941
vt 0.985613 0.681768
vt 0.985630 0.682112
vt 0.985594 0.823862
vt 0.978366 0.824034
vt 0.978359 0.823709
vt 0.978386 0.686376
vt 0.985613 0.686203
vt 0.985630 0.686547
vt 0.985594 0.837001
vt 0.978366 0.837173
vt 0.978359 0.836849
vt 0.978369 0.766207
vt 0.985594 0.766053
vt 0.985594 0.766378
vt 0.985557 0.722044
vt 0.978340 0.721874
vt 0.985572 0.721703
vt 0.020584 0.986909
vt 0.021338 0.993082
vt 0.019835 0.993086
vt 0.015051 0.986909
vt 0.015805 0.993082
vt 0.014303 0.993086
vt 0.978391 0.529832
vt 0.978384 0.528473
vt 0.988387 0.529145
vt 0.978387 0.523760
vt 0.988383 0.523074
vt 0.988390 0.524433
vt 0.978391 0.540616
vt 0.978384 0.539257
vt 0.988387 0.539930
vt 0.978387 0.518368
vt 0.988383 0.517681
vt 0.988390 0.519041
vt 0.993087 0.053174
vt 0.978384 0.047553
vt 0.993091 0.041931
vt 0.993088 0.078176
vt 0.978381 0.083797
vt 0.978386 0.072554
vt 0.984355 0.631837
vt 0.978881 0.631589
vt 0.981408 0.626724
vt 0.982986 0.620942
vt 0.978364 0.617992
vt 0.982986 0.615042
vt 0.978369 0.770642
vt 0.985594 0.770488
vt 0.985594 0.770813
vt 0.985557 0.819615
vt 0.978340 0.819446
vt 0.985572 0.819274
vt 0.985557 0.775265
vt 0.978340 0.775109
vt 0.985572 0.774923
vt 0.978369 0.779526
vt 0.985594 0.779358
vt 0.985594 0.779683
vt 0.985557 0.726479
vt 0.978340 0.726309
vt 0.985572 0.726138
vt 0.978369 0.783947
vt 0.985594 0.783793
vt 0.985594 0.784118
vt 0.985594 0.863281
vt 0.978366 0.863453
vt 0.978395 0.863092
vt 0.978386 0.704116
vt 0.985613 0.703943
vt 0.985630 0.704287
vt 0.985594 0.850141
vt 0.978366 0.850313
vt 0.978359 0.849989
vt 0.978368 0.708569
vt 0.985613 0.708378
vt 0.985630 0.708722
vt 0.978369 0.806123
vt 0.985594 0.805969
vt 0.985594 0.806293
vt 0.985557 0.810745
vt 0.978340 0.810576
vt 0.985572 0.810404
vt 0.009519 0.986909
vt 0.010273 0.993082
vt 0.008771 0.993086
vt 0.026116 0.986909
vt 0.026870 0.993082
vt 0.025367 0.993086
vt 0.978387 0.534545
vt 0.988383 0.533858
vt 0.988390 0.535217
vt 0.978391 0.551401
vt 0.978384 0.550042
vt 0.988387 0.550714
vt 0.978391 0.546009
vt 0.978384 0.544649
vt 0.988387 0.545322
vt 0.978387 0.556113
vt 0.988383 0.555427
vt 0.988390 0.556786
vt 0.989597 0.432072
vt 0.978395 0.432305
vt 0.978396 0.432072
vt 0.989627 0.432474
vt 0.016571 0.997130
vt 0.016620 0.997163
vt 0.025760 0.997393
vt 0.026259 0.997130
vt 0.026279 0.997780
vt 0.978371 0.432615
vt 0.978633 0.335917
vt 0.016632 0.997130
vt 0.016865 0.997590
vt 0.978588 0.335381
vt 0.990472 0.335414
vt 0.989597 0.458840
vt 0.978393 0.458868
vt 0.978395 0.458662
vt 0.978340 0.445934
vt 0.978341 0.445697
vt 0.990429 0.335845
vt 0.026213 0.997928
vt 0.990522 0.294006
vt 0.989613 0.423260
vt 0.978365 0.423427
vt 0.978353 0.423061
vt 0.978396 0.422899
vt 0.989666 0.409717
vt 0.978340 0.409727
vt 0.978467 0.409420
vt 0.989637 0.395528
vt 0.989605 0.395967
vt 0.978364 0.395844
vt 0.989619 0.436943
vt 0.978371 0.437203
vt 0.978396 0.436762
vt 0.002500 0.997130
vt 0.002635 0.997725
vt 0.002165 0.997997
vt 0.002795 0.997191
vt 0.002000 0.997480
vt 0.002306 0.997160
vt 0.063858 0.997435
vt 0.064348 0.997143
vt 0.064455 0.997634
vt 0.978633 0.331332
vt 0.002458 0.997135
vt 0.002502 0.997175
vt 0.978588 0.330796
vt 0.990472 0.330829
vt 0.978463 0.391418
vt 0.978340 0.391172
vt 0.064300 0.997829
vt 0.990429 0.331261
vt 0.989597 0.427485
vt 0.978395 0.427718
vt 0.978396 0.427485
vt 0.989627 0.427886
vt 0.978371 0.428028
vt 0.989597 0.454532
vt 0.978393 0.454560
vt 0.978395 0.454355
vt 0.978340 0.450314
vt 0.978341 0.450077
vt 0.021405 0.997130
vt 0.021638 0.997590
vt 0.021344 0.997130
vt 0.021394 0.997163
vt 0.030514 0.997393
vt 0.031014 0.997130
vt 0.031034 0.997780
vt 0.978633 0.340501
vt 0.978588 0.339965
vt 0.990472 0.339999
vt 0.030968 0.997928
vt 0.990429 0.340430
vt 0.990522 0.298591
vt 0.858759 0.953835
vt 0.867430 0.976392
vt 0.850088 0.976393
vt 0.837357 0.953835
vt 0.846028 0.976393
vt 0.828687 0.976393
vt 0.993962 0.007733
vt 0.978377 0.008371
vt 0.978398 0.007324
vt 0.954521 0.969423
vt 0.954065 0.953839
vt 0.955038 0.953819
vt 0.993962 0.013041
vt 0.978377 0.013680
vt 0.978398 0.012632
vt 0.949146 0.969423
vt 0.948690 0.953839
vt 0.949664 0.953819
vt 0.978384 0.136296
vt 0.993085 0.131114
vt 0.993091 0.141474
vt 0.978384 0.093052
vt 0.993085 0.087863
vt 0.993091 0.098239
vt 0.978382 0.889331
vt 0.985261 0.888324
vt 0.985258 0.890341
vt 0.978384 0.876228
vt 0.985260 0.877238
vt 0.978381 0.878245
vt 0.978384 0.121899
vt 0.993085 0.116717
vt 0.993091 0.127077
vt 0.978384 0.107493
vt 0.993085 0.102304
vt 0.993091 0.112680
vt 0.978383 0.882275
vt 0.985260 0.883285
vt 0.978381 0.884292
vt 0.978382 0.895378
vt 0.985261 0.894371
vt 0.985258 0.896388
vt 0.903565 0.143576
vt 0.903558 0.128852
vt 0.934792 0.136211
vt 0.903565 0.124816
vt 0.903558 0.110079
vt 0.934792 0.117445
vt 0.933407 0.953848
vt 0.944622 0.953844
vt 0.939014 0.969421
vt 0.918174 0.953846
vt 0.929400 0.953844
vt 0.923786 0.969422
vt 0.218470 0.997130
vt 0.210374 0.997251
vt 0.214470 0.997130
vt 0.181834 0.997198
vt 0.181810 0.997199
vt 0.181894 0.997130
vt 0.181894 0.997467
vt 0.181798 0.997201
vt 0.025958 0.997822
vt 0.185936 0.997177
vt 0.185912 0.997199
vt 0.185999 0.997130
vt 0.185999 0.997467
vt 0.185902 0.997200
vt 0.206287 0.997152
vt 0.206369 0.997250
vt 0.206281 0.997198
vt 0.190043 0.997198
vt 0.190018 0.997199
vt 0.190103 0.997130
vt 0.190103 0.997467
vt 0.190007 0.997201
vt 0.030713 0.997822
vt 0.049046 0.993130
vt 0.198219 0.997130
vt 0.990581 0.289380
vt 0.194128 0.997130
vt 0.202276 0.997130
vt 0.712299 0.002001
vt 0.433647 0.488577
vt 0.715910 0.249579
vt 0.230431 0.490307
vt 0.978358 0.432306
vt 0.978358 0.436870
vt 0.121131 0.997536
vt 0.978358 0.427718
vt 0.984574 0.975220
vt 0.308086 0.989706
vt 0.016486 0.997960
vt 0.125172 0.997152
vt 0.978395 0.396098
vt 0.021260 0.997960
vt 0.666376 0.492930
vt 0.978591 0.335703
vt 0.978592 0.331120
vt 0.978591 0.340288
vt 0.329492 0.988955
vt 0.701579 0.249633
vt 0.002000 0.993008
vt 0.002066 0.993074
vt 0.655011 0.492994
vt 0.661270 0.492994
vt 0.691769 0.236931
vt 0.691769 0.002055
vt 0.691824 0.002000
vt 0.697967 0.002000
vt 0.978406 0.972490
vt 0.978340 0.972557
vt 0.695446 0.484553
vt 0.669224 0.490274
vt 0.245634 0.490360
vt 0.984605 0.968435
vt 0.978396 0.458970
vt 0.990467 0.294289
vt 0.978409 0.391121
vt 0.063994 0.997821
vt 0.064049 0.997894
vt 0.978396 0.454662
vt 0.990467 0.298874
s 1
usemtl convenience_urban_001_baked
f 16/1/1 18/2/1 19/3/1
f 20/4/2 22/5/2 23/6/2
f 24/7/3 26/8/3 27/9/3
f 30/10/4 10/11/4 32/12/4
f 33/13/5 35/14/6 36/15/7
f 38/16/8 40/17/9 60/18/10
f 44/19/11 46/20/11 43/21/11
f 47/22/12 49/23/12 50/24/12
f 52/25/13 53/26/14 51/27/13
f 54/28/15 56/29/16 57/30/15
f 59/31/17 61/32/17 58/33/17
f 63/34/18 64/35/18 62/36/18
f 524/37/19 525/38/19 526/39/19
f 540/40/20 541/41/20 543/42/20
f 562/43/21 563/44/21 564/45/21
f 528/46/22 543/47/23 529/48/24
f 42/49/25 46/50/25 41/51/25
f 62/36/26 30/10/26 32/12/26
f 16/1/27 24/52/27 27/53/27
f 29/54/28 18/2/28 28/55/28
f 24/52/29 47/22/29 25/56/29
f 512/57/30 520/58/30 519/59/30
f 542/60/31 547/61/32 546/62/33
f 531/63/34 548/64/34 546/65/34
f 554/66/35 560/67/35 567/68/35
f 54/69/36 13/70/36 14/71/36
f 28/72/37 30/73/37 29/74/37
f 49/75/38 58/76/38 50/77/38
f 510/78/39 522/79/40 511/80/41
f 523/81/42 521/82/43 525/83/44
f 513/84/45 527/85/45 514/86/45
f 544/87/46 545/88/47 542/60/48
f 532/89/45 549/90/45 533/91/45
f 550/92/39 561/93/49 551/94/50
f 565/95/51 559/96/43 563/97/44
f 555/98/45 566/99/45 556/100/45
f 23/101/52 45/102/52 20/103/52
f 51/104/53 44/105/53 43/106/53
f 17/107/54 61/32/55 60/108/56
f 541/109/57 536/110/57 537/111/57
f 10/112/58 12/113/59 11/114/60
f 37/115/61 42/116/62 41/117/63
f 26/118/64 66/119/64 65/120/64
f 518/121/65 515/122/66 514/123/67
f 523/124/68 519/125/69 520/126/70
f 530/127/71 539/128/71 538/129/71
f 544/130/46 546/131/72 548/132/73
f 553/133/74 557/134/66 556/135/75
f 565/136/68 567/137/76 560/138/77
f 32/12/78 57/30/79 56/29/80
f 34/139/81 63/140/81 62/141/81
f 39/142/82 55/143/82 40/17/82
f 36/15/83 53/144/84 67/145/85
f 34/146/86 21/147/86 35/14/86
f 39/148/87 52/25/13 51/27/13
f 60/18/56 64/35/88 17/149/54
f 12/150/89 22/151/89 11/152/89
f 66/153/90 36/154/7 65/155/91
f 5/156/92 6/157/92 7/158/92
f 5/159/92 7/160/92 6/161/92
f 16/162/93 8/163/93 9/164/93
f 10/165/94 13/70/95 57/166/79
f 12/167/59 10/168/58 31/169/96
f 11/114/97 13/170/95 10/112/94
f 11/114/97 15/171/98 13/170/95
f 12/167/59 31/169/96 22/172/99
f 15/173/98 11/174/97 23/175/100
f 14/176/101 15/177/102 44/178/103
f 14/176/104 56/179/104 57/180/104
f 15/173/98 23/175/100 45/181/105
f 27/182/106 28/183/107 19/184/108
f 18/185/109 29/186/109 30/187/109
f 18/188/110 17/189/111 63/140/99
f 19/190/112 63/140/112 24/191/113
f 64/192/114 16/193/114 18/194/114
f 62/36/115 31/195/115 22/196/115
f 62/36/116 22/196/116 34/146/116
f 46/197/117 23/198/117 22/196/117
f 20/199/118 22/200/118 31/201/118
f 28/72/107 21/202/119 20/199/120
f 25/203/121 24/191/121 34/139/121
f 53/204/109 35/205/109 26/206/109
f 27/182/106 21/207/119 28/183/107
f 21/208/122 26/209/122 35/210/122
f 65/211/123 48/212/124 25/56/125
f 56/29/126 43/106/126 46/197/126
f 66/213/90 33/214/5 36/215/7
f 37/216/127 40/217/127 55/218/127
f 42/116/62 37/115/61 54/219/61
f 41/220/128 58/33/129 37/221/130
f 56/29/116 39/142/116 51/104/116
f 59/222/131 39/148/131 40/223/131
f 61/224/132 64/192/133 40/225/122
f 57/219/134 44/226/134 43/227/134
f 47/228/135 41/229/135 43/230/135
f 41/220/128 50/24/136 58/33/129
f 56/29/116 51/104/116 44/105/116
f 52/231/137 49/232/138 43/230/122
f 49/75/139 67/233/139 52/25/139
f 59/222/140 49/75/141 52/25/142
f 49/75/143 48/234/124 67/233/85
f 48/235/124 65/155/123 36/154/83
f 48/235/124 36/154/83 67/236/85
f 69/237/92 68/238/92 70/239/92
f 69/240/92 70/241/92 68/242/92
f 71/243/92 73/244/92 72/245/92
f 71/246/92 72/247/92 73/248/92
f 74/249/92 76/250/92 75/251/92
f 74/252/92 75/253/92 76/254/92
f 77/255/92 79/256/92 78/257/92
f 77/258/92 78/259/92 79/260/92
f 80/261/92 82/262/92 81/263/92
f 80/264/92 81/265/92 82/266/92
f 85/267/92 83/268/92 84/269/92
f 85/270/92 84/271/92 83/272/92
f 86/273/92 87/274/92 88/275/92
f 86/276/92 88/277/92 87/278/92
f 86/279/144 89/280/144 90/281/144
f 91/282/92 93/283/92 92/284/92
f 91/285/92 92/286/92 93/287/92
f 95/288/92 94/289/92 96/290/92
f 95/291/92 96/292/92 94/293/92
f 98/294/92 99/295/92 97/296/92
f 98/297/92 97/298/92 99/299/92
f 101/300/92 100/301/92 102/302/92
f 101/303/92 102/304/92 100/305/92
f 105/306/145 103/307/145 104/308/145
f 105/309/92 106/310/92 107/311/92
f 105/312/92 107/313/92 106/314/92
f 108/315/92 109/316/92 110/317/92
f 108/318/92 110/319/92 109/320/92
f 113/321/92 112/322/92 111/323/92
f 113/324/92 111/325/92 112/326/92
f 114/327/92 115/328/92 116/329/92
f 114/330/92 116/331/92 115/332/92
f 118/333/122 117/334/122 119/335/122
f 119/336/122 117/337/122 118/338/122
f 122/339/146 120/340/146 121/341/146
f 122/342/92 123/343/92 124/344/92
f 122/345/92 124/346/92 123/347/92
f 126/348/92 127/349/92 125/350/92
f 126/351/92 125/352/92 127/353/92
f 128/354/92 129/355/92 130/356/92
f 128/357/92 130/358/92 129/359/92
f 132/360/92 133/361/92 131/362/92
f 132/363/92 131/364/92 133/365/92
f 135/366/92 134/367/92 136/368/92
f 136/369/92 134/370/92 135/371/92
f 140/372/145 138/373/145 137/374/145
f 140/375/92 141/376/92 139/377/92
f 140/378/92 139/379/92 141/380/92
f 144/381/92 142/382/92 143/383/92
f 144/384/92 143/385/92 142/386/92
f 146/387/92 147/388/92 145/389/92
f 146/390/92 145/391/92 147/392/92
f 148/393/92 149/394/92 150/395/92
f 148/396/92 150/397/92 149/398/92
f 151/399/92 153/400/92 152/401/92
f 151/402/92 152/403/92 153/404/92
f 156/405/147 154/406/147 155/407/147
f 156/408/92 157/409/92 158/410/92
f 156/411/92 158/412/92 157/413/92
f 160/414/92 161/415/92 159/416/92
f 160/417/92 159/418/92 161/419/92
f 162/420/92 163/421/92 164/422/92
f 162/423/92 164/424/92 163/425/92
f 165/426/92 167/427/92 166/428/92
f 165/429/92 166/430/92 167/431/92
f 170/432/92 168/433/92 169/434/92
f 169/435/92 168/436/92 170/437/92
f 171/438/92 173/439/92 172/440/92
f 171/441/92 172/442/92 173/443/92
f 174/444/92 176/445/92 175/446/92
f 174/447/92 175/448/92 176/449/92
f 178/450/92 179/451/92 177/452/92
f 178/453/92 177/454/92 179/455/92
f 180/456/92 182/457/92 181/458/92
f 180/459/92 181/460/92 182/461/92
f 184/462/92 185/463/92 183/464/92
f 184/465/92 183/466/92 185/467/92
f 186/468/92 187/469/92 188/470/92
f 186/471/92 188/472/92 187/473/92
f 189/474/92 191/475/92 190/476/92
f 189/477/92 190/478/92 191/479/92
f 193/480/92 192/481/92 194/482/92
f 193/483/92 194/484/92 192/485/92
f 197/486/92 196/487/92 195/488/92
f 197/489/92 195/490/92 196/491/92
f 199/492/92 200/493/92 198/494/92
f 199/495/92 198/496/92 200/497/92
f 201/498/92 203/499/92 202/500/92
f 201/501/92 202/502/92 203/503/92
f 205/504/148 204/505/149 206/506/150
f 206/507/150 204/508/149 205/509/148
f 207/510/92 209/511/92 208/512/92
f 207/513/92 208/514/92 209/515/92
f 211/516/92 212/517/99 210/518/99
f 212/519/99 211/520/92 210/521/99
f 215/522/92 213/523/92 214/524/92
f 213/525/92 215/526/92 214/527/92
f 217/528/92 216/529/92 218/530/92
f 216/531/92 217/532/92 218/533/92
f 220/534/92 219/535/92 221/536/92
f 219/537/92 220/538/92 221/539/92
f 223/540/92 222/541/92 224/542/92
f 224/543/92 222/544/92 223/545/92
f 225/546/92 226/547/99 227/548/99
f 226/549/99 225/550/92 227/551/99
f 228/552/128 229/553/136 230/554/151
f 229/555/136 228/556/128 230/557/151
f 233/558/152 231/559/152 232/560/152
f 233/561/92 234/562/92 235/563/92
f 233/564/92 235/565/92 234/566/92
f 237/567/92 236/568/92 238/569/92
f 236/570/92 237/571/92 238/572/92
f 241/573/92 239/574/92 240/575/92
f 239/576/92 241/577/92 240/578/92
f 244/579/92 242/580/92 243/581/92
f 242/582/92 244/583/92 243/584/92
f 247/585/153 246/586/154 245/587/155
f 245/588/155 246/589/154 247/590/153
f 250/591/92 249/592/92 248/593/92
f 249/594/92 250/595/92 248/596/92
f 251/597/92 252/598/92 253/599/92
f 251/600/92 253/601/92 252/602/92
f 254/603/92 255/604/92 256/605/92
f 255/606/92 254/607/92 256/608/92
f 259/609/92 257/610/92 258/611/92
f 257/612/92 259/613/92 258/614/92
f 261/615/92 262/616/92 260/617/92
f 262/618/92 261/619/92 260/620/92
f 264/621/156 263/622/157 265/623/158
f 265/624/158 263/625/157 264/626/156
f 267/627/92 268/628/92 266/629/92
f 268/630/92 267/631/92 266/632/92
f 270/633/92 269/634/92 271/635/92
f 270/636/92 271/637/92 269/638/92
f 272/639/92 274/640/92 273/641/92
f 274/642/92 272/643/92 273/644/92
f 277/645/92 275/646/92 276/647/92
f 275/648/92 277/649/92 276/650/92
f 279/651/92 278/652/92 280/653/92
f 278/654/92 279/655/92 280/656/92
f 281/657/92 282/658/92 283/659/92
f 281/660/92 283/661/92 282/662/92
f 286/663/159 284/664/159 285/665/159
f 286/666/92 288/667/92 287/668/92
f 286/669/92 287/670/92 288/671/92
f 290/672/92 289/673/92 291/674/92
f 289/675/92 290/676/92 291/677/92
f 294/678/92 292/679/92 293/680/92
f 292/681/92 294/682/92 293/683/92
f 296/684/92 297/685/92 295/686/92
f 297/687/92 296/688/92 295/689/92
f 300/690/92 299/691/92 298/692/92
f 298/693/92 299/694/92 300/695/92
f 303/696/92 301/697/92 302/698/92
f 301/699/92 303/700/92 302/701/92
f 306/702/92 304/703/92 305/704/92
f 306/705/92 305/706/92 304/707/92
f 309/708/92 307/709/92 308/710/92
f 307/711/92 309/712/92 308/713/92
f 311/714/92 310/715/92 312/716/92
f 310/717/92 311/718/92 312/719/92
f 314/720/92 315/721/92 313/722/92
f 315/723/92 314/724/92 313/725/92
f 316/726/92 318/727/92 317/728/92
f 316/729/92 317/730/92 318/731/92
f 321/732/152 320/733/152 319/734/152
f 321/735/92 323/736/92 322/737/92
f 321/738/92 322/739/92 323/740/92
f 325/741/92 324/742/92 326/743/92
f 324/744/92 325/745/92 326/746/92
f 329/747/92 327/748/92 328/749/92
f 327/750/92 329/751/92 328/752/92
f 331/753/92 332/754/92 330/755/92
f 332/756/92 331/757/92 330/758/92
f 335/759/92 333/760/92 334/761/92
f 335/762/92 334/763/92 333/764/92
f 336/765/92 337/766/92 338/767/92
f 336/768/92 338/769/92 337/770/92
f 340/771/92 339/772/92 341/773/92
f 339/774/92 340/775/92 341/776/92
f 342/777/92 344/778/92 343/779/92
f 344/780/92 342/781/92 343/782/92
f 345/783/92 346/784/92 347/785/92
f 346/786/92 345/787/92 347/788/92
f 349/789/92 350/790/92 348/791/92
f 350/792/92 349/793/92 348/794/92
f 352/795/122 351/796/122 353/797/122
f 353/798/122 351/799/122 352/800/122
f 354/801/92 356/802/92 355/803/92
f 354/804/92 355/805/92 356/806/92
f 357/807/92 359/808/92 358/809/92
f 359/810/92 357/811/92 358/812/92
f 361/813/92 360/814/92 362/815/92
f 360/816/92 361/817/92 362/818/92
f 365/819/92 363/820/92 364/821/92
f 363/822/92 365/823/92 364/824/92
f 367/825/92 366/826/92 368/827/92
f 366/828/92 367/829/92 368/830/92
f 371/831/99 370/832/99 369/833/99
f 369/834/99 370/835/99 371/836/99
f 372/837/92 373/838/92 374/839/92
f 372/840/92 374/841/92 373/842/92
f 377/843/92 375/844/99 376/845/99
f 375/846/99 377/847/92 376/848/99
f 378/849/92 380/850/92 379/851/92
f 380/852/92 378/853/92 379/854/92
f 381/855/92 382/856/92 383/857/92
f 382/858/92 381/859/92 383/860/92
f 386/861/92 385/862/92 384/863/92
f 385/864/92 386/865/92 384/866/92
f 388/867/92 389/868/92 387/869/92
f 388/870/92 387/871/92 389/872/92
f 391/873/92 390/874/92 392/875/92
f 391/876/92 392/877/92 390/878/92
f 393/879/92 394/880/99 395/881/99
f 394/882/99 393/883/92 395/884/99
f 398/885/92 396/886/92 397/887/92
f 396/888/92 398/889/92 397/890/92
f 400/891/92 401/892/92 399/893/92
f 401/894/92 400/895/92 399/896/92
f 402/897/92 404/898/92 403/899/92
f 404/900/92 402/901/92 403/902/92
f 406/903/92 405/904/92 407/905/92
f 407/906/92 405/907/92 406/908/92
f 408/909/92 409/910/92 410/911/92
f 408/912/92 410/913/92 409/914/92
f 411/915/92 413/916/99 412/917/99
f 413/918/99 411/919/92 412/920/99
f 415/921/92 414/922/92 416/923/92
f 414/924/92 415/925/92 416/926/92
f 417/927/92 419/928/92 418/929/92
f 417/930/92 418/931/92 419/932/92
f 421/933/92 422/934/92 420/935/92
f 422/936/92 421/937/92 420/938/92
f 423/939/92 425/940/92 424/941/92
f 423/942/92 424/943/92 425/944/92
f 426/945/92 427/946/92 428/947/92
f 426/948/92 428/949/92 427/950/92
f 429/951/92 431/952/99 430/953/99
f 431/954/99 429/955/92 430/956/99
f 432/957/92 434/958/92 433/959/92
f 434/960/92 432/961/92 433/962/92
f 437/963/92 435/964/92 436/965/92
f 435/966/92 437/967/92 436/968/92
f 438/969/92 440/970/92 439/971/92
f 440/972/92 438/973/92 439/974/92
f 441/975/92 443/976/92 442/977/92
f 441/978/92 442/979/92 443/980/92
f 445/981/160 446/982/161 444/983/162
f 446/984/161 445/985/160 444/986/162
f 447/987/163 449/988/164 448/989/165
f 448/990/165 449/991/164 447/992/163
f 450/993/166 451/994/92 452/995/167
f 451/996/92 450/997/166 452/998/167
f 455/999/168 453/1000/92 454/1001/169
f 453/1002/92 455/1003/168 454/1004/169
f 458/1005/92 456/1006/92 457/1007/92
f 456/1008/92 458/1009/92 457/1010/92
f 460/1011/92 459/1012/92 461/1013/92
f 460/1014/92 461/1015/92 459/1016/92
f 462/1017/92 463/1018/92 464/1019/92
f 462/1020/92 464/1021/92 463/1022/92
f 467/1023/170 465/1024/171 466/1025/171
f 465/1026/171 467/1027/170 466/1028/171
f 468/1029/92 470/1030/92 469/1031/92
f 468/1032/92 469/1033/92 470/1034/92
f 472/1035/122 473/1036/122 471/1037/122
f 471/1038/122 473/1039/122 472/1040/122
f 475/1041/141 476/1042/141 474/1043/141
f 474/1044/141 476/1045/141 475/1046/141
f 477/1047/172 478/1048/173 479/1049/174
f 478/1050/173 477/1051/172 479/1052/174
f 481/1053/92 482/1054/92 480/1055/92
f 480/1056/92 482/1057/92 481/1058/92
f 485/1059/92 484/1060/92 483/1061/92
f 484/1062/92 485/1063/92 483/1064/92
f 486/1065/175 487/1066/176 488/1067/92
f 487/1068/176 486/1069/175 488/1070/92
f 489/1071/92 490/1072/92 491/1073/92
f 490/1074/92 489/1075/92 491/1076/92
f 493/1077/92 494/1078/92 492/1079/92
f 493/1080/92 492/1081/92 494/1082/92
f 496/1083/92 495/1084/92 497/1085/92
f 496/1086/92 497/1087/92 495/1088/92
f 498/1089/141 499/1090/141 500/1091/141
f 499/1092/141 498/1093/141 500/1094/141
f 501/1095/92 503/1096/92 502/1097/92
f 501/1098/92 502/1099/92 503/1100/92
f 504/1101/177 506/1102/92 505/1103/178
f 505/1104/178 506/1105/92 504/1106/177
f 509/1107/92 508/1108/92 507/1109/92
f 507/1110/92 508/1111/92 509/1112/92
f 510/1113/39 515/1114/66 518/1115/65
f 510/1113/39 511/1116/41 515/1114/66
f 514/123/179 513/1117/179 512/1118/179
f 521/1119/180 512/1120/181 519/1121/182
f 511/1116/41 517/1122/183 515/1114/66
f 520/1123/184 513/84/184 527/85/184
f 516/1124/185 517/1125/185 518/121/185
f 513/84/186 521/1126/43 523/1127/42
f 511/1128/41 525/1129/187 517/1130/183
f 510/78/39 518/1131/65 524/1132/188
f 520/1123/189 527/85/190 523/1133/42
f 521/1119/180 519/1121/182 522/1134/191
f 521/1119/180 522/1134/191 526/39/192
f 525/83/193 526/1135/193 523/81/193
f 528/1136/22 534/1137/194 537/1138/195
f 528/1136/22 537/1138/195 536/1139/196
f 529/1140/24 539/1141/197 530/1142/198
f 528/1143/22 529/1144/24 538/1145/199
f 528/1146/22 538/1147/199 534/1148/194
f 535/1149/200 538/1150/200 540/1151/200
f 533/1152/201 537/1153/202 534/1154/203
f 545/1155/204 531/1156/205 546/1157/33
f 548/1158/184 532/89/184 549/90/184
f 533/1152/206 532/1159/206 531/1160/206
f 532/89/207 545/1161/47 544/1162/46
f 536/1163/196 539/1164/208 528/46/22
f 542/60/48 546/62/72 544/87/46
f 545/1155/204 546/1157/33 547/1165/32
f 548/1158/209 549/90/210 544/1166/46
f 550/1167/39 557/1168/66 553/1169/74
f 550/1167/39 551/1170/50 557/1168/66
f 551/1170/50 552/1171/183 557/1168/66
f 551/1172/50 563/1173/211 552/1174/183
f 550/92/39 553/1175/74 562/1176/188
f 558/1177/185 552/1178/185 553/133/185
f 556/135/212 555/1179/212 554/1180/212
f 559/1181/180 554/1182/213 567/1183/214
f 560/1184/215 555/98/215 566/99/215
f 555/98/186 559/1185/43 565/1186/51
f 559/1181/180 567/1183/214 561/1187/191
f 559/1181/180 561/1187/191 564/45/216
f 560/1184/189 566/99/217 565/1188/51
f 563/97/218 564/1189/218 565/95/218
f 568/1190/92 569/1191/92 570/1192/92
f 568/1193/92 570/1194/92 569/1195/92
f 571/1196/92 573/1197/92 572/1198/92
f 571/1199/92 572/1200/92 573/1201/92
f 574/1202/92 575/1203/92 576/1204/92
f 574/1205/92 576/1206/92 575/1207/92
f 577/1208/92 578/1209/92 579/1210/92
f 577/1211/92 579/1212/92 578/1213/92
f 580/1214/99 582/1215/99 581/1216/99
f 582/1217/99 580/1218/99 581/1219/99
f 584/1220/92 583/1221/92 585/1222/92
f 584/1223/92 585/1224/92 583/1225/92
f 586/1226/116 587/1227/116 588/1228/116
f 587/1229/116 586/1230/116 588/1231/116
f 590/1232/219 591/1233/220 589/1234/221
f 591/1235/220 590/1236/219 589/1237/221
f 592/1238/222 594/1239/222 593/1240/92
f 594/1241/222 592/1242/222 593/1243/92
f 16/1/223 17/107/111 18/2/110
f 20/4/224 21/1244/225 22/5/226
f 24/7/227 25/1245/227 26/8/227
f 30/10/228 31/195/229 10/11/230
f 33/13/231 34/146/232 35/14/231
f 38/16/233 39/142/234 40/17/9
f 44/19/235 45/1246/235 46/20/235
f 47/22/236 48/212/124 49/23/143
f 52/25/237 67/233/237 53/26/237
f 54/28/15 55/143/238 56/29/16
f 59/31/239 60/108/239 61/32/239
f 63/34/240 17/149/240 64/35/240
f 516/1247/241 512/1248/241 513/1249/241
f 513/1249/242 514/1250/242 516/1247/242
f 514/1250/243 515/1251/244 516/1247/245
f 526/39/192 522/1134/191 524/37/246
f 524/37/247 518/1252/247 525/38/247
f 525/38/248 521/1119/180 526/39/192
f 535/1253/249 531/1254/249 532/1255/249
f 532/1255/250 533/1256/250 535/1253/250
f 533/1256/251 534/1257/251 535/1253/251
f 543/42/252 539/1258/252 540/40/252
f 542/1259/253 545/1260/204 543/42/254
f 541/41/255 542/1259/255 543/42/255
f 558/1261/256 554/1262/256 555/1263/256
f 555/1263/257 556/1264/257 558/1261/257
f 556/1264/258 557/1265/258 558/1261/258
f 564/45/216 561/1187/191 562/43/259
f 562/43/260 553/1266/260 563/44/260
f 563/44/261 559/1181/180 564/45/216
f 528/46/262 539/1164/262 543/47/262
f 42/49/263 43/1267/263 46/50/263
f 62/36/264 64/35/264 30/10/264
f 16/1/265 19/3/265 24/52/265
f 29/54/266 19/3/266 18/2/266
f 37/221/130 58/33/129 61/32/267
f 47/22/128 50/24/128 41/220/128
f 24/52/268 48/212/268 47/22/268
f 512/57/269 516/1268/269 520/58/269
f 542/60/270 541/1269/270 547/61/270
f 531/63/271 535/1270/271 548/64/271
f 554/66/272 558/1271/272 560/67/272
f 54/69/273 57/166/273 13/70/273
f 45/181/274 44/1272/274 15/173/274
f 14/1273/101 13/170/275 15/171/102
f 28/72/276 31/201/276 30/73/276
f 49/75/277 59/222/277 58/76/277
f 510/78/278 524/1132/278 522/79/278
f 513/84/186 523/1127/42 527/85/190
f 532/89/207 544/1162/46 549/90/210
f 550/92/279 562/1176/279 561/93/279
f 555/98/186 565/1186/51 566/99/217
f 23/101/280 46/1274/280 45/102/280
f 27/182/281 26/1275/281 21/207/281
f 51/104/116 53/144/116 44/105/116
f 17/107/54 16/1/282 61/32/55
f 516/1276/283 515/1114/283 517/1122/283
f 535/1277/284 534/1148/285 538/1147/286
f 541/109/287 540/1278/287 536/110/287
f 558/1279/288 557/1168/289 552/1171/290
f 37/216/127 55/218/127 54/1280/127
f 26/118/291 25/1281/291 66/119/291
f 517/1125/292 525/1282/292 518/121/292
f 530/127/293 540/1283/293 539/128/293
f 530/1284/198 538/1145/199 529/1144/24
f 552/1178/292 563/1285/292 553/133/292
f 32/12/78 10/11/94 57/30/79
f 34/139/232 33/214/231 63/140/294
f 39/142/295 56/29/16 55/143/238
f 36/15/83 35/14/296 53/144/84
f 34/146/297 22/196/297 21/147/297
f 39/148/234 38/1286/233 52/25/233
f 60/18/56 40/17/298 64/35/88
f 513/84/186 512/1287/299 521/1126/43
f 532/89/207 531/1288/300 545/1161/47
f 555/98/186 554/1289/301 559/1185/43
f 12/150/302 23/1290/302 22/151/302
f 14/176/101 44/178/103 56/179/141
f 19/190/303 18/188/303 63/140/303
f 64/192/133 61/224/132 16/193/304
f 18/194/122 63/1291/122 64/192/122
f 63/1292/109 18/185/109 30/187/109
f 30/187/109 64/1293/305 63/1292/109
f 62/36/306 30/10/306 31/195/306
f 30/10/307 32/12/307 31/195/307
f 32/12/116 46/197/116 22/196/116
f 31/195/308 32/12/308 22/196/308
f 31/201/309 28/72/107 20/199/120
f 35/1294/310 26/1295/310 34/139/310
f 26/1295/311 25/203/311 34/139/311
f 24/191/113 63/140/112 34/139/113
f 24/1296/109 53/204/109 26/206/109
f 24/1296/265 47/1297/265 50/1297/265
f 50/1297/312 49/1298/312 52/1299/312
f 24/1296/313 50/1297/314 53/204/315
f 50/1297/314 52/1299/316 53/204/315
f 33/214/5 66/213/90 26/1295/99
f 33/214/317 26/1295/317 35/1294/317
f 46/197/116 32/12/116 56/29/116
f 56/29/318 44/105/318 43/106/318
f 40/217/319 37/216/320 59/1300/321
f 37/216/320 61/1301/322 59/1300/321
f 59/222/140 52/25/142 39/148/323
f 40/225/122 59/1302/122 61/224/132
f 38/1286/8 60/1303/10 59/222/141
f 38/1286/324 59/222/324 40/223/324
f 42/116/325 54/219/325 57/219/325
f 57/219/326 56/1304/326 44/226/326
f 43/227/327 42/116/327 57/219/327
f 47/228/138 43/230/122 49/232/138
f 43/230/122 53/1305/328 52/231/137
f 516/1124/329 518/121/330 512/1118/330
f 518/121/331 514/123/331 512/1118/331
f 520/1123/332 512/1287/332 513/84/332
f 511/1128/41 524/1306/333 525/1129/187
f 526/1135/334 519/1307/69 523/81/68
f 548/1158/335 531/1288/335 532/89/335
f 535/1149/336 540/1151/336 537/1153/336
f 535/1149/337 537/1153/337 531/1160/337
f 537/1153/202 533/1152/201 531/1160/338
f 536/1163/339 540/1308/339 539/1164/339
f 543/1309/254 545/1155/204 547/1165/32
f 547/1165/340 542/1310/340 543/1309/340
f 551/1172/50 562/1311/341 563/1173/211
f 558/1177/342 553/133/342 554/1180/342
f 553/133/343 556/135/343 554/1180/343
f 560/1184/344 554/1289/344 555/98/344
f 564/1189/345 567/1312/76 565/95/68
l 1 2
l 3 4
