# Blender 4.5.0
# www.blender.org
mtllib factory_001.lod1.mtl
o factory_001
v -1.848940 3.591346 -3.141000
v 0.639515 3.591346 -3.141000
v 0.639515 3.171773 -3.141000
v -1.848940 3.171773 -3.141000
v -3.196642 0.168367 -3.195385
v 3.186473 0.001460 -3.195385
v -3.196642 0.001460 3.195385
v 3.187933 0.000000 3.193000
v -3.198103 -0.000000 -3.193000
v -3.198103 0.169827 3.193000
v 3.186473 0.168367 3.195385
v 3.187933 0.169827 -3.193000
v 2.938092 3.767221 -2.942480
v 2.935931 0.179646 -2.945245
v -2.948262 3.767222 2.942480
v -2.946100 0.179647 2.945245
v 2.935931 3.766339 2.945244
v 2.938092 0.178764 2.942480
v -2.946100 3.766338 -2.945245
v -2.948262 0.178764 -2.942480
v 3.142932 3.791256 -3.136096
v -0.004608 5.136340 3.141698
v -3.153102 3.791256 3.136096
v -3.153117 3.791242 -3.138277
v -0.005562 5.136339 -3.141699
v 3.142948 3.791243 3.138276
v -3.089399 3.766810 -3.149245
v -3.215408 3.818986 3.149245
v -3.183237 3.728708 3.144376
v -3.080684 3.790495 3.151703
v -3.204818 3.841891 -3.151703
v -3.176009 3.725715 -3.144376
v -3.109730 3.838005 -3.147125
v -3.150670 3.854956 3.147125
v 3.186362 3.838005 -3.147125
v 3.120083 3.725715 -3.144376
v 3.091274 3.841891 -3.151703
v 3.080684 3.818987 3.149245
v 3.145423 3.854956 3.147125
v 3.215408 3.790495 3.151703
v 3.112855 3.728708 3.144376
v 3.206694 3.766811 -3.149245
v -0.035301 5.054397 -3.144610
v -0.042479 5.220391 -3.150527
v -0.002623 5.223564 3.147125
v 0.054404 5.078883 3.143972
v 0.078386 5.170348 3.150526
v -0.086330 5.175972 3.150394
v -0.090221 5.138764 -3.143973
v -0.044111 5.058044 3.144608
v 0.077972 5.107943 -3.150395
v 0.052448 5.200762 -3.147125
v -3.162727 3.815187 -3.081012
v -3.175766 3.858054 -3.174729
v -3.130630 3.745953 -3.103038
v -3.126855 3.730740 -3.182492
v -0.037647 5.202165 -3.133392
v -0.032621 5.173564 -3.092376
v 0.000406 5.096532 -3.207625
v -0.024805 5.165142 -3.216905
v -3.146987 3.793063 -3.220751
v -0.005085 5.109739 -3.061454
v -0.013609 5.131373 -3.070409
v -0.011744 5.154672 -3.070409
v 0.012281 5.156501 -3.075366
v -0.011744 5.124869 -3.079592
v -0.001790 5.132086 -3.083369
v 0.022299 5.067405 -3.134785
v 0.035614 5.209667 -3.151976
v 0.011644 5.178788 -3.192493
v 3.113874 3.731271 -3.116252
v 3.157243 3.839741 -3.101082
v 3.137013 3.781870 -3.080814
v 3.136302 3.806044 -3.079592
v -0.032903 5.070094 -3.165170
v 3.130736 3.763814 -3.217061
v -0.015507 5.141380 -3.235966
v 0.010303 5.145227 -3.220408
v 0.001574 5.124868 -3.220408
v -0.008025 5.132912 -3.213925
v -0.001790 5.132086 -3.216631
v 3.164353 3.855152 -3.182357
v 0.022451 5.173564 -3.092376
v -0.010575 5.096532 -3.092376
v -3.126855 3.730741 3.117508
v -0.024805 5.165143 3.083095
v 0.022023 5.068929 3.156844
v 0.000406 5.096532 3.092375
v -3.146987 3.793063 3.079249
v -3.175766 3.858054 3.125271
v -0.037772 5.201485 3.177450
v -3.167169 3.823914 3.211291
v -3.137743 3.785686 3.220408
v 0.003874 5.132429 3.231179
v -0.013609 5.131373 3.229592
v -0.011744 5.154673 3.229592
v -0.007777 5.120811 3.219775
v -0.001790 5.132087 3.216630
v -0.020472 5.145228 3.220407
v -3.130630 3.745954 3.196962
v 0.000406 5.096533 3.207624
v 0.022451 5.173564 3.207624
v -0.010272 5.088114 3.202349
v 0.034932 5.210255 3.151144
v 0.011644 5.178789 3.107507
v -0.015507 5.141381 3.064034
v 0.010303 5.145228 3.079592
v 0.001574 5.124869 3.079592
v -0.008025 5.132913 3.086075
v -0.001790 5.132086 3.083369
v 3.164353 3.855153 3.117643
v 3.136302 3.806045 3.220408
v 3.137013 3.781870 3.219186
v -0.029207 5.077275 3.119623
v 3.130736 3.763814 3.082939
v 3.157243 3.839742 3.198918
v 3.113874 3.731272 3.183748
v -2.938639 3.786349 -2.947505
v -2.937276 0.181217 -2.944953
v -2.829320 3.784747 -2.944953
v -2.827958 3.786349 -3.092495
v -2.937276 3.784748 -3.095047
v -2.938639 0.179616 -3.092495
v -2.829320 0.181217 -3.095047
v -2.827958 0.179616 -2.947505
v 2.819151 3.784748 -3.095047
v 2.928469 3.786349 -3.092495
v 2.928469 0.179616 -2.947505
v 2.927107 0.181217 -3.095047
v 2.927107 3.784747 -2.944953
v 2.817788 3.786349 -2.947505
v 2.817788 0.179616 -3.092495
v 2.819151 0.181217 -2.944953
v 1.012477 2.965874 -2.929559
v -2.323457 2.967164 -2.931948
v -2.323457 0.179635 -3.048053
v 1.014094 2.967163 -3.048053
v 1.014094 0.179634 -2.931947
v 1.012477 0.180924 -3.050441
v -2.321841 2.965874 -3.050442
v -2.321841 0.180924 -2.929559
v 0.931251 0.223033 -3.082754
v -2.240614 0.223033 -3.077247
v -2.240614 2.873816 -3.082754
v 0.931250 2.873816 -3.077247
v -2.220813 0.364943 -3.110714
v 0.919796 0.357136 -3.120000
v -2.227994 0.353080 -3.125048
v -2.227994 0.541009 -3.114953
v 0.919796 0.536953 -3.120000
v -2.220813 0.529147 -3.129286
v -2.227994 0.721813 -3.124060
v 0.919796 0.716770 -3.120000
v -2.220813 0.707494 -3.112186
v -2.227994 0.901630 -3.124060
v -2.220813 0.887311 -3.112186
v 0.919796 0.896587 -3.120000
v -2.220813 1.085681 -3.127814
v -2.227994 1.071362 -3.115940
v 0.919796 1.076404 -3.120000
v -2.227994 1.261264 -3.124060
v -2.220813 1.246945 -3.112186
v 0.919796 1.256222 -3.120000
v -2.220813 1.443845 -3.110714
v -2.227994 1.431983 -3.125048
v 0.919796 1.436039 -3.120000
v -2.227994 1.619912 -3.114953
v -2.220813 1.608050 -3.129286
v 0.919796 1.615856 -3.120000
v 0.919796 1.795673 -3.120000
v -2.227994 1.790630 -3.115940
v -2.220813 1.804949 -3.127814
v -2.227994 1.970448 -3.115940
v 0.919796 1.975490 -3.120000
v -2.220813 1.984766 -3.127814
v -2.220813 2.163113 -3.110714
v -2.227994 2.151251 -3.125048
v 0.919796 2.155307 -3.120000
v -2.220813 2.344400 -3.127814
v 0.919796 2.335124 -3.120000
v -2.227994 2.330081 -3.115940
v 0.919796 2.514941 -3.120000
v -2.220813 2.524217 -3.127814
v -2.227994 2.509899 -3.115940
v -2.227994 2.698814 -3.114953
v -2.220813 2.686952 -3.129286
v 0.919796 2.694758 -3.120000
v 0.919796 2.874575 -3.120000
v -2.227994 2.869532 -3.115940
v -2.220813 2.883852 -3.127814
v 1.650294 2.407113 -3.088392
v 2.636869 0.170264 -3.088391
v 2.636869 2.407113 -2.951609
v 1.649592 2.408224 -2.952351
v 1.650294 0.170264 -2.951609
v 2.637571 2.408225 -3.087650
v 2.637571 0.169153 -2.952351
v 1.649592 0.169153 -3.087650
v 1.721416 2.329221 -3.111681
v 2.565747 2.329221 -3.108320
v 1.721416 0.238166 -3.108320
v 2.565747 0.238166 -3.111680
v 2.145598 0.235198 -3.115472
v 2.141565 2.332189 -3.115473
v 2.141565 0.235198 -3.164528
v 2.145598 2.332189 -3.164528
v 2.025821 1.390832 -3.232062
v 2.025821 0.996738 -3.167938
v 2.021491 0.996738 -3.232062
v 2.021491 1.390833 -3.167938
v 2.265672 1.390832 -3.232062
v 2.261342 1.390832 -3.167938
v 2.265672 0.996738 -3.167938
v 2.261342 0.996738 -3.232062
v 0.661500 3.145382 -3.133549
v -1.872738 3.617538 -2.987376
v -1.870925 3.617736 -3.133549
v -1.872738 3.145580 -3.132624
v -1.870925 3.145382 -2.986451
v 0.661500 3.617736 -2.986451
v 0.663313 3.145580 -2.987376
v 0.663313 3.617538 -3.132624
v 3.040634 2.935876 -2.420139
v 3.040990 2.933845 -1.177522
v 2.955112 2.101032 -1.177521
v 2.955468 2.935876 -1.179861
v 3.040634 2.099001 -1.179861
v 2.955112 2.933845 -2.422479
v 2.955468 2.099001 -2.420139
v 3.040991 2.101032 -2.422479
v 3.017704 2.515241 -2.450388
v 3.078337 2.515241 -1.149612
v 3.017704 2.519636 -1.149612
v 3.078337 2.519636 -2.450388
v 3.040991 2.101032 -0.622479
v 3.040990 2.933845 0.622478
v 3.040634 2.099001 0.620139
v 2.955468 2.935876 0.620139
v 3.040634 2.935876 -0.620139
v 2.955112 2.933845 -0.622479
v 2.955468 2.099001 -0.620139
v 2.955112 2.101032 0.622478
v 3.017704 2.515241 -0.650388
v 3.078337 2.519636 -0.650388
v 3.078337 2.515241 0.650388
v 3.017704 2.519636 0.650388
v 2.955112 2.933845 1.177521
v 3.040991 2.101032 1.177521
v 2.955468 2.935876 2.420139
v 3.040634 2.099002 2.420139
v 2.955468 2.099002 1.179861
v 2.955112 2.101032 2.422478
v 3.040990 2.933846 2.422478
v 3.040634 2.935876 1.179861
v 3.078337 2.519636 1.149612
v 3.017704 2.515241 1.149612
v 3.017704 2.519636 2.450388
v 3.078337 2.515241 2.450388
v 1.953276 3.687256 2.022843
v 1.739537 3.694346 1.973872
v 2.089706 3.692769 1.909207
v 2.007684 3.694847 1.603990
v 2.111815 3.686216 1.727211
v 2.056650 5.593301 1.636799
v 1.847077 5.586211 1.572274
v 2.118021 5.587788 1.803468
v 1.671443 5.584327 1.731174
v 1.830888 3.696134 1.575260
v 1.666833 3.696231 1.748388
v 1.727008 5.584424 1.963186
v 2.046227 5.594341 1.972143
v 1.894474 5.585711 2.026758
v 1.709667 5.572584 2.128200
v 1.569878 5.574201 1.991158
v 1.513972 5.581321 1.799999
v 2.219529 5.570858 1.984208
v 1.714676 5.569333 1.481737
v 2.082650 5.572939 1.474093
v 2.255748 5.558524 1.680421
v 2.219373 5.703527 1.608350
v 2.086662 5.707860 1.475820
v 1.564851 5.697204 1.610000
v 1.579633 5.709191 1.986037
v 1.893736 5.697204 1.419999
v 2.147495 5.720000 2.084675
v 1.898825 5.570664 2.177270
v 1.894490 5.705586 2.176758
v 2.079981 5.574997 2.128892
v 2.267927 5.707666 1.803468
v -2.803236 0.115785 3.082339
v -2.832294 3.483355 3.007289
v -2.760978 0.117915 3.034860
v -2.806581 0.120163 2.997298
v -2.773350 3.490547 3.010141
v -2.835809 3.486169 3.067907
v -2.846932 0.122976 3.042648
v -2.777020 3.488416 3.073612
v 2.793289 0.115785 3.082339
v 2.835548 0.117915 3.034860
v 2.789945 0.120163 2.997298
v 2.760716 3.486169 3.067906
v 2.819506 3.488416 3.073613
v 2.823176 3.490547 3.010141
v 2.764232 3.483355 3.007289
v 2.749594 0.122977 3.042648
v -0.398458 2.237211 2.971658
v -0.399156 0.448923 2.972423
v 0.388289 2.237211 3.088341
v -0.399156 2.238343 3.087577
v -0.398459 0.450055 3.088341
v 0.388987 0.448923 3.087577
v 0.388289 0.450055 2.971659
v 0.388987 2.238343 2.972423
v 0.963987 1.785700 3.112089
v 0.624851 1.301160 3.112089
v 0.623926 1.299471 2.949031
v 0.964912 1.299471 3.110969
v 0.623925 1.787388 3.110969
v 0.964912 1.787388 2.949031
v 0.624851 1.785700 2.947910
v 0.963987 1.301160 2.947911
vn -0.0000 -0.0000 -1.0000
vn 0.2498 -0.6965 -0.6727
vn -0.4934 0.2116 -0.8437
vn 0.6532 -0.1393 0.7443
vn -0.4934 0.2115 -0.8437
vn -0.0764 0.1753 0.9816
vn 0.2258 0.6311 0.7421
vn -0.7844 0.1814 0.5932
vn -0.0000 -0.8102 0.5861
vn -0.0000 -0.8064 0.5914
vn -0.0000 -0.7974 0.6034
vn 0.9559 -0.0153 -0.2934
vn 0.8859 0.4535 0.0976
vn 0.9451 0.3268 -0.0025
vn 0.7197 0.6078 0.3356
vn 0.5562 -0.3803 0.7390
vn 0.9344 0.0705 0.3491
vn -0.9296 -0.1465 0.3383
vn 0.0778 0.4073 0.9100
vn 0.4529 0.5594 -0.6942
vn -0.3795 0.8135 -0.4407
vn -0.8497 0.5156 -0.1106
vn -0.9185 0.3752 -0.1247
vn -0.9384 0.1201 -0.3241
vn -0.6810 -0.2613 -0.6841
vn 0.4228 -0.5463 -0.7231
vn -0.1429 -0.3308 -0.9328
vn 0.0009 -0.0004 -1.0000
vn 0.9637 0.2412 0.1145
vn 0.3889 0.9146 -0.1105
vn 0.3305 0.7732 0.5413
vn 0.0028 -0.0002 1.0000
vn 0.2475 -0.9321 0.2645
vn -0.2642 -0.6175 0.7409
vn -0.3881 -0.8960 -0.2159
vn 0.9446 -0.0245 -0.3273
vn 0.8817 0.4591 0.1089
vn 0.9408 0.3384 -0.0206
vn 0.7775 -0.2522 0.5761
vn 0.9643 0.1789 0.1951
vn -0.2299 0.7404 0.6317
vn -0.6539 0.6507 0.3859
vn -0.1052 0.7330 0.6720
vn 0.5263 0.5312 -0.6640
vn -0.3114 0.8076 -0.5009
vn -0.8590 0.5070 -0.0706
vn -0.6546 -0.1917 -0.7313
vn -0.9744 0.2052 -0.0919
vn -0.9460 0.3177 0.0643
vn -0.9723 -0.0477 0.2288
vn 0.4226 -0.5464 -0.7231
vn -0.1258 -0.2916 -0.9482
vn 0.9637 0.2411 0.1146
vn 0.3896 0.9168 -0.0878
vn 0.3245 0.7589 0.5647
vn 0.0028 -0.0003 1.0000
vn -0.0000 -0.0000 -0.0000
vn 0.5791 0.6111 -0.5396
vn 0.8124 -0.5785 -0.0735
vn -0.0758 -0.5672 -0.8201
vn -0.5761 0.5260 -0.6257
vn -0.8498 -0.5260 0.0351
vn -0.6335 0.5672 0.5263
vn 0.0280 -0.6111 0.7911
vn 0.5224 0.5785 0.6264
vn 0.0279 -0.6111 0.7911
vn -0.5740 0.5757 -0.5823
vn 0.5740 -0.5757 -0.5823
vn -0.5808 -0.5788 -0.5723
vn 0.5808 0.5788 -0.5723
vn -0.5808 0.5788 0.5723
vn 0.5808 -0.5788 0.5723
vn 0.5740 0.5758 0.5823
vn -0.5740 -0.5757 0.5823
vn -0.5776 0.5775 0.5769
vn 0.5776 0.5775 -0.5769
vn -0.5771 0.5773 -0.5777
vn 0.5771 -0.5773 -0.5777
vn 0.5776 -0.5775 0.5769
vn 0.5771 0.5773 0.5777
vn -0.5776 -0.5775 -0.5769
vn -0.5771 -0.5773 0.5777
vn -0.3808 0.8905 -0.2490
vn 0.0001 0.7768 -0.6298
vn 0.0003 -0.0034 -1.0000
vn 0.3808 0.8905 0.2490
vn 0.3929 0.9196 -0.0000
vn -0.3929 0.9196 -0.0000
vn -0.0001 0.7768 0.6298
vn -0.0003 -0.0034 1.0000
vn 0.5020 0.6295 -0.5931
vn 0.7178 -0.3303 -0.6129
vn -0.3555 -0.7577 -0.5473
vn 0.7988 -0.0830 0.5958
vn 0.0901 0.8001 0.5931
vn -0.7411 0.2740 0.6129
vn -0.2844 -0.7871 0.5473
vn -0.6236 0.5061 -0.5959
vn -0.2299 -0.7823 -0.5789
vn 0.5479 -0.5886 0.5945
vn -0.3906 -0.7158 0.5789
vn 0.5411 0.5807 -0.6083
vn 0.7156 -0.3310 -0.6151
vn -0.8036 -0.0287 -0.5945
vn -0.3201 0.7031 -0.6349
vn -0.7400 0.2720 0.6151
vn 0.0279 0.7932 0.6083
vn 0.7236 0.2708 0.6349
vn -0.6932 0.0535 0.7188
vn -0.3307 -0.7771 0.5355
vn 0.3822 -0.8987 0.2148
vn 0.2456 -0.5918 0.7677
vn -0.8404 0.4903 -0.2308
vn -0.5556 -0.2124 -0.8039
vn 0.3773 0.6385 -0.6708
vn 0.4273 0.8491 -0.3106
vn -0.3125 -0.8919 -0.3270
vn 0.3803 0.0828 -0.9211
vn -0.4132 -0.2475 -0.8764
vn 0.0395 -0.0894 -0.9952
vn -0.1479 -0.3546 0.9232
vn -0.8709 0.4469 -0.2044
vn 0.1511 0.3527 0.9235
vn 0.1508 0.3521 0.9237
vn 0.5361 0.1881 0.8229
vn 0.6756 -0.6045 0.4220
vn 0.8133 0.4304 -0.3916
vn -0.4371 0.1874 -0.8797
vn 0.2714 0.6424 -0.7167
vn 0.2862 0.3853 0.8773
vn -0.3357 -0.8247 0.4552
vn -0.5531 -0.2135 -0.8053
vn -0.3122 -0.8920 -0.3268
vn 0.3681 0.6548 -0.6601
vn 0.2318 0.9493 0.2123
vn -0.8386 0.4810 -0.2556
vn 0.0938 -0.2150 0.9721
vn -0.3758 -0.5199 0.7671
vn 0.2003 -0.4711 0.8591
vn -0.1592 -0.3790 0.9116
vn -0.2979 -0.6948 0.6546
vn 0.2473 -0.9322 0.2643
vn -0.8709 0.0400 -0.4898
vn 0.3950 -0.9174 0.0481
vn -0.9254 0.3772 0.0359
vn -0.3697 -0.8540 -0.3661
vn 0.2766 0.6556 -0.7026
vn 0.8133 0.4303 -0.3916
vn -0.5839 0.5816 0.5664
vn 0.5724 0.5689 0.5905
vn 0.5839 0.5816 -0.5664
vn -0.5724 -0.5689 0.5905
vn -0.5839 -0.5816 -0.5664
vn -0.5724 0.5689 -0.5905
vn 0.5839 -0.5816 0.5664
vn 0.5724 -0.5689 -0.5905
vn 0.5734 0.5745 0.5840
vn -0.5734 -0.5745 0.5840
vn 0.5812 -0.5803 0.5705
vn -0.5812 0.5803 0.5705
vn 0.5812 0.5803 -0.5705
vn -0.5812 -0.5803 -0.5705
vn -0.5734 0.5745 -0.5840
vn 0.5734 -0.5745 -0.5840
vn 0.7240 0.6895 0.0193
vn -0.7240 -0.6895 0.0193
vn 0.7240 -0.6895 -0.0193
vn -0.7240 0.6895 -0.0193
vn -0.5762 0.5748 -0.5811
vn 0.5762 -0.5748 -0.5811
vn -0.5789 -0.5795 -0.5736
vn 0.5789 0.5795 -0.5736
vn -0.5789 0.5795 0.5736
vn 0.5789 -0.5795 0.5736
vn 0.5762 0.5748 0.5811
vn -0.5762 -0.5748 0.5811
vn -0.6250 0.7805 0.0133
vn 0.6250 -0.7805 0.0133
vn -0.6250 -0.7805 -0.0133
vn 0.6250 0.7805 -0.0133
vn 0.0466 0.8409 -0.5391
vn -0.0469 0.8391 0.5420
vn 0.0466 -0.8409 0.5391
vn -0.0469 -0.8391 -0.5420
vn -0.0387 0.8178 0.5742
vn 0.0387 0.8181 -0.5738
vn -0.0387 -0.8178 -0.5742
vn 0.0387 -0.8181 0.5738
vn -0.0003 -0.0015 -1.0000
vn 0.0003 0.0015 -1.0000
vn -0.0004 -0.0020 -1.0000
vn -0.7097 -0.7045 0.0046
vn 0.7022 -0.7119 -0.0077
vn 0.7097 -0.7045 -0.0046
vn 0.0004 0.0020 -1.0000
vn 0.7096 0.7045 0.0046
vn -0.7096 0.7045 -0.0046
vn -0.7022 0.7119 -0.0077
vn 0.7022 0.7119 0.0077
vn 0.0003 -0.0015 1.0000
vn -0.0004 0.0020 1.0000
vn -0.0003 0.0015 1.0000
vn -0.7022 -0.7119 0.0077
vn 0.0004 -0.0020 1.0000
vn -0.5782 0.5866 0.5671
vn 0.5782 0.5866 -0.5671
vn -0.5767 0.5685 -0.5867
vn 0.5767 -0.5685 -0.5867
vn 0.5782 -0.5866 0.5671
vn 0.5767 0.5685 0.5867
vn -0.5767 -0.5685 0.5867
vn -0.5782 -0.5866 -0.5671
vn -0.5465 0.0417 0.8364
vn 0.5469 0.0417 -0.8362
vn -0.5464 -0.0417 -0.8365
vn 0.5468 -0.0417 0.8362
vn -0.5483 0.0418 0.8352
vn 0.5480 0.0418 -0.8354
vn -0.5452 -0.0416 -0.8373
vn 0.5448 -0.0416 0.8375
vn -0.5767 0.5685 -0.5868
vn -0.5479 0.0418 0.8355
vn 0.5453 -0.0416 0.8372
vn 0.5475 0.0417 -0.8358
vn -0.5457 -0.0416 -0.8369
vn 0.6777 -0.6372 0.3670
vn 0.3559 -0.8429 0.4035
vn -0.5388 -0.6132 0.5777
vn -0.2236 -0.0089 0.9746
vn -0.3456 0.0021 0.9384
vn 0.3575 0.0074 0.9339
vn 0.3382 0.0085 0.9410
vn -0.5934 0.6140 0.5204
vn -0.7746 -0.6070 -0.1775
vn -0.2537 -0.6139 -0.7475
vn -0.0251 -0.9997 -0.0001
vn 0.4685 -0.8790 0.0886
vn 0.7704 0.6373 0.0208
vn 0.4501 0.8790 0.1574
vn 0.7766 -0.0074 -0.6299
vn 0.7635 -0.0085 -0.6458
vn 0.5099 0.8430 -0.1715
vn 0.1702 -0.0021 -0.9854
vn -0.1777 0.6131 -0.7697
vn 0.2940 0.0089 -0.9558
vn -0.7596 0.6070 -0.2335
vn -0.0218 0.9997 -0.0125
vn 0.6977 -0.6302 0.3408
vn -0.0056 -1.0000 -0.0077
vn -0.6731 -0.6303 0.3868
vn -0.6975 0.0774 0.7124
vn -0.6255 0.7310 0.2727
vn -0.4290 0.2830 0.8578
vn -0.3522 0.1523 0.9235
vn -0.4775 0.3732 0.7954
vn -0.0016 -1.0000 -0.0037
vn -0.2511 -0.0044 0.9679
vn -0.8561 -0.5162 -0.0270
vn -0.3994 -0.6072 -0.6869
vn -0.7279 0.5209 -0.4458
vn 0.3521 -0.5893 0.7271
vn -0.0145 -0.9999 -0.0002
vn 0.2259 -0.9719 0.0664
vn 0.7735 0.6317 0.0512
vn 0.5370 -0.0174 0.8434
vn 0.2290 0.9719 0.0554
vn -0.0627 0.5250 -0.8488
vn 0.8868 0.0174 -0.4619
vn 0.7655 -0.0145 -0.6432
vn 0.7455 -0.0648 -0.6634
vn 0.1717 -0.1619 -0.9717
vn 0.2777 0.0040 -0.9607
vn 0.6685 0.5893 -0.4536
vn -0.0512 0.9983 0.0289
vn -0.0127 0.9999 -0.0071
vn 0.3138 0.0648 0.9473
vn 0.3412 0.0145 0.9399
vn -0.5792 0.5799 0.5729
vn -0.5760 0.5742 -0.5818
vn -0.5792 -0.5799 -0.5729
vn 0.5760 -0.5742 -0.5818
vn 0.5792 0.5799 -0.5729
vn -0.5760 -0.5742 0.5818
vn 0.5792 -0.5799 0.5729
vn 0.5760 0.5742 0.5818
vn 0.5762 0.5731 0.5826
vn -0.5762 -0.5731 0.5826
vn 0.5794 -0.5803 0.5723
vn -0.5794 0.5803 0.5723
vn 0.5794 0.5803 -0.5723
vn -0.5794 -0.5803 -0.5723
vn -0.5762 0.5731 -0.5826
vn 0.5762 -0.5731 -0.5826
vn -0.9365 -0.3462 0.0550
vn -0.2033 0.0163 -0.9790
vn -0.6422 0.5580 -0.5256
vn 0.4721 -0.6157 -0.6309
vn -0.3451 0.3038 -0.8880
vn -0.4131 -0.2946 -0.8617
vn 0.0908 -0.0073 -0.9958
vn -0.5146 -0.3041 0.8017
vn 0.2324 0.5591 -0.7958
vn -0.3452 0.3038 -0.8880
vn -0.4130 -0.2946 -0.8617
vn -0.1793 0.4111 0.8938
vn 0.7864 -0.1056 -0.6087
vn 0.5460 0.5442 0.6370
vn 0.2305 -0.5426 -0.8077
vn -0.2486 0.5793 0.7763
vn -0.3261 0.7562 0.5673
vn -0.2709 0.6302 0.7276
vn 0.0788 -0.1905 0.9785
vn 0.2148 -0.3414 0.9150
vn -0.6516 0.7040 0.2825
vn 0.3502 0.5907 -0.7270
vn 0.7265 -0.0134 0.6870
vn -0.0186 -0.0511 0.9985
vn 0.5446 0.6083 0.5773
vn 0.9366 0.1595 0.3120
vn 0.2263 -0.5331 -0.8153
vn 0.3279 -0.7644 0.5551
vn -0.8835 0.4573 0.1018
vn 0.7266 -0.0134 0.6870
vn -0.0186 -0.0510 0.9985
vn -1.0000 -0.0000 -0.0000
vn 1.0000 -0.0000 -0.0000
vn -0.1784 0.4184 0.8906
vn 0.6115 -0.5416 0.5768
vn 0.0605 -0.1567 -0.9858
vn 0.8826 -0.0706 0.4648
vn -0.5777 0.5355 -0.6160
vn 0.0243 -0.2441 0.9695
vn 0.8783 -0.0703 0.4728
vt 0.864899 0.139568
vt 0.864899 0.239323
vt 0.847729 0.239349
vt 0.847729 0.139594
vt 0.621719 0.265308
vt 0.621985 0.264920
vt 0.622295 0.265774
vt 0.680670 0.650445
vt 0.680134 0.649991
vt 0.680967 0.650341
vt 0.631129 0.263779
vt 0.630595 0.265549
vt 0.631078 0.264752
vt 0.700975 0.130971
vt 0.700439 0.130517
vt 0.701271 0.130867
vt 0.046213 0.922542
vt 0.047118 0.785366
vt 0.048073 0.922959
vt 0.836150 0.808863
vt 0.836522 0.936664
vt 0.835785 0.936662
vt 0.682122 0.650284
vt 0.682331 0.649877
vt 0.801114 0.503250
vt 0.802768 0.503713
vt 0.799980 0.504625
vt 0.033210 0.786032
vt 0.031861 0.785918
vt 0.033330 0.785573
vt 0.162298 0.799488
vt 0.160064 0.798633
vt 0.162733 0.799179
vt 0.213302 0.841712
vt 0.213973 0.843751
vt 0.213302 0.844454
vt 0.678753 0.649709
vt 0.678629 0.649183
vt 0.636804 0.254678
vt 0.639711 0.254438
vt 0.639763 0.254896
vt 0.736557 0.524837
vt 0.508843 0.789957
vt 0.510196 0.917419
vt 0.507832 0.917519
vt 0.160967 0.798946
vt 0.160094 0.936920
vt 0.162458 0.937086
vt 0.702427 0.130810
vt 0.702636 0.130404
vt 0.640164 0.264593
vt 0.639709 0.265040
vt 0.639709 0.263779
vt 0.873200 0.183894
vt 0.873840 0.182141
vt 0.873840 0.184215
vt 0.699057 0.130235
vt 0.698934 0.129709
vt 0.623593 0.255059
vt 0.626113 0.254438
vt 0.626165 0.254896
vt 0.621785 0.252744
vt 0.621433 0.253370
vt 0.756861 0.005363
vt 0.493184 0.790177
vt 0.494430 0.917662
vt 0.492173 0.917739
vt 0.263450 0.741403
vt 0.262546 0.879377
vt 0.262547 0.741089
vt 0.524184 0.828381
vt 0.524624 0.956179
vt 0.523827 0.956178
vt 0.232719 0.823527
vt 0.232927 0.951325
vt 0.232006 0.951326
vt 0.321292 0.827761
vt 0.321732 0.955560
vt 0.321109 0.955557
vt 0.845921 0.808863
vt 0.846129 0.936662
vt 0.845334 0.936663
vt 0.542907 0.828382
vt 0.543268 0.956179
vt 0.542471 0.956178
vt 0.250774 0.823526
vt 0.251572 0.951325
vt 0.250651 0.951326
vt 0.311753 0.827762
vt 0.312410 0.955560
vt 0.311488 0.955559
vt 0.864566 0.808863
vt 0.864774 0.936662
vt 0.863979 0.936663
vt 0.330397 0.827762
vt 0.331054 0.955560
vt 0.330257 0.955558
vt 0.954114 0.538918
vt 0.954322 0.666717
vt 0.953701 0.666719
vt 0.386330 0.827762
vt 0.386988 0.955560
vt 0.386066 0.955559
vt 0.274913 0.828250
vt 0.275121 0.956049
vt 0.274326 0.956050
vt 0.919182 0.801401
vt 0.919594 0.939231
vt 0.918223 0.938971
vt 0.942687 0.804695
vt 0.943171 0.941981
vt 0.941580 0.942074
vt 0.931891 0.804633
vt 0.932461 0.941979
vt 0.930917 0.942196
vt 0.945391 0.272789
vt 0.945567 0.410456
vt 0.944050 0.410522
vt 0.939357 0.004419
vt 0.939768 0.142250
vt 0.938398 0.141990
vt 0.944515 0.538833
vt 0.944999 0.676119
vt 0.943409 0.676211
vt 0.905470 0.804636
vt 0.906040 0.941982
vt 0.904497 0.942199
vt 0.747575 0.808599
vt 0.747751 0.946266
vt 0.746234 0.946332
vt 0.897004 0.274112
vt 0.890087 0.529776
vt 0.890626 0.274112
vt 0.896615 0.529901
vt 0.515080 0.523632
vt 0.514848 0.781000
vt 0.508320 0.780997
vt 0.274269 0.004640
vt 0.535253 0.265643
vt 0.274424 0.265477
vt 0.004640 0.004318
vt 0.265474 0.004468
vt 0.265307 0.265636
vt 0.499206 0.523658
vt 0.492661 0.781219
vt 0.492659 0.523642
vt 0.883497 0.261271
vt 0.889532 0.004500
vt 0.889875 0.261272
vt 0.004473 0.265486
vt 0.883004 0.004374
vt 0.508703 0.523632
vt 0.499189 0.781211
vt 0.535255 0.004481
vt 0.274411 0.274490
vt 0.514991 0.514953
vt 0.274464 0.515008
vt 0.151326 0.540381
vt 0.151071 0.775954
vt 0.004417 0.775892
vt 0.690383 0.004152
vt 0.543562 0.241545
vt 0.543917 0.004150
vt 0.690114 0.241481
vt 0.514938 0.274435
vt 0.004858 0.540381
vt 0.523912 0.274491
vt 0.764444 0.274420
vt 0.764498 0.514945
vt 0.274456 0.760565
vt 0.274099 0.524021
vt 0.420647 0.524121
vt 0.670078 0.523624
vt 0.523608 0.761038
vt 0.523612 0.523836
vt 0.670072 0.760719
vt 0.420918 0.760651
vt 0.523967 0.515015
vt 0.159626 0.540381
vt 0.214283 0.665273
vt 0.159626 0.790333
vt 0.261702 0.275012
vt 0.261700 0.531503
vt 0.133369 0.531255
vt 0.004154 0.531576
vt 0.004156 0.275085
vt 0.133409 0.274506
vt 0.483873 0.774674
vt 0.429218 0.649038
vt 0.483873 0.523632
vt 0.694667 0.949665
vt 0.696127 0.951956
vt 0.694177 0.954279
vt 0.913413 0.004642
vt 0.916206 0.004321
vt 0.916106 0.261224
vt 0.944144 0.950831
vt 0.945364 0.953004
vt 0.943241 0.955437
vt 0.928348 0.258079
vt 0.925602 0.004686
vt 0.928004 0.004325
vt 0.941089 0.952189
vt 0.913218 0.261224
vt 0.931707 0.795778
vt 0.930370 0.538691
vt 0.932297 0.538647
vt 0.925149 0.258000
vt 0.691927 0.950894
vt 0.918874 0.272755
vt 0.921643 0.273141
vt 0.920429 0.526656
vt 0.934289 0.795492
vt 0.934160 0.538569
vt 0.904552 0.951141
vt 0.906012 0.953432
vt 0.904061 0.955754
vt 0.901811 0.952371
vt 0.935094 0.529627
vt 0.932511 0.529913
vt 0.933101 0.272782
vt 0.918069 0.538620
vt 0.920838 0.539006
vt 0.919624 0.792521
vt 0.934965 0.272704
vt 0.906766 0.273054
vt 0.909459 0.529637
vt 0.906571 0.529637
vt 0.909559 0.272734
vt 0.879440 0.928784
vt 0.876241 0.928705
vt 0.876694 0.675391
vt 0.879096 0.675030
vt 0.060770 0.952538
vt 0.061990 0.954711
vt 0.059867 0.957144
vt 0.057715 0.953896
vt 0.931175 0.272826
vt 0.877549 0.409481
vt 0.881077 0.666064
vt 0.877289 0.666064
vt 0.596795 0.250501
vt 0.598690 0.253533
vt 0.596031 0.256613
vt 0.881176 0.409160
vt 0.592644 0.254495
vt 0.593347 0.251271
vt 0.903440 0.258199
vt 0.900972 0.257876
vt 0.902329 0.004345
vt 0.611452 0.250179
vt 0.613111 0.253080
vt 0.610277 0.256294
vt 0.607023 0.254709
vt 0.607672 0.250957
vt 0.909025 0.795493
vt 0.906456 0.538647
vt 0.908896 0.538570
vt 0.905551 0.795779
vt 0.903949 0.538694
vt 0.891431 0.538639
vt 0.893641 0.792558
vt 0.890156 0.792517
vt 0.899046 0.004725
vt 0.898547 0.258039
vt 0.895052 0.539049
vt 0.034637 0.923539
vt 0.031802 0.923648
vt 0.773110 0.504874
vt 0.777655 0.505712
vt 0.776270 0.508419
vt 0.735108 0.776385
vt 0.733538 0.776937
vt 0.679560 0.651316
vt 0.681640 0.914384
vt 0.680121 0.785912
vt 0.682763 0.785652
vt 0.695627 0.914042
vt 0.692736 0.913924
vt 0.693433 0.785367
vt 0.775330 0.503221
vt 0.773772 0.507873
vt 0.803601 0.506566
vt 0.799479 0.507242
vt 0.679014 0.914320
vt 0.034000 0.784602
vt 0.035405 0.786098
vt 0.680635 0.650673
vt 0.737050 0.775385
vt 0.800825 0.508729
vt 0.635718 0.250119
vt 0.638482 0.250498
vt 0.756287 0.808883
vt 0.758371 0.808372
vt 0.758371 0.946349
vt 0.160923 0.937285
vt 0.640310 0.252506
vt 0.511760 0.789753
vt 0.640329 0.254278
vt 0.733939 0.523836
vt 0.679186 0.953638
vt 0.678825 0.949885
vt 0.682322 0.949968
vt 0.682951 0.952859
vt 0.681152 0.954427
vt 0.719437 0.913604
vt 0.717735 0.785584
vt 0.720899 0.785684
vt 0.757156 0.946258
vt 0.682122 0.650724
vt 0.700939 0.131199
vt 0.786295 0.504874
vt 0.789455 0.508419
vt 0.786957 0.507873
vt 0.757354 0.255912
vt 0.755413 0.256911
vt 0.915552 0.950822
vt 0.918393 0.947869
vt 0.919730 0.950665
vt 0.753843 0.257464
vt 0.699864 0.131842
vt 0.147040 0.913749
vt 0.145155 0.785219
vt 0.148163 0.785016
vt 0.916405 0.947612
vt 0.790839 0.505712
vt 0.144415 0.913684
vt 0.788800 0.503226
vt 0.048799 0.785498
vt 0.044985 0.785475
vt 0.044806 0.922991
vt 0.918184 0.952688
vt 0.265065 0.741907
vt 0.264910 0.879543
vt 0.622120 0.250119
vt 0.624792 0.250469
vt 0.766672 0.808883
vt 0.768756 0.808372
vt 0.768756 0.946349
vt 0.263375 0.879741
vt 0.708639 0.914042
vt 0.705748 0.913925
vt 0.706240 0.785357
vt 0.767541 0.946258
vt 0.626731 0.254278
vt 0.626712 0.252506
vt 0.734498 0.913540
vt 0.731958 0.913620
vt 0.733911 0.785684
vt 0.754243 0.004362
vt 0.702426 0.131251
vt 0.732484 0.952861
vt 0.732124 0.949107
vt 0.735620 0.949190
vt 0.736250 0.952081
vt 0.496101 0.789973
vt 0.734450 0.953649
vt 0.730747 0.785584
vt 0.685786 0.250522
vt 0.689817 0.250477
vt 0.689823 0.256255
vt 0.415287 0.769444
vt 0.419406 0.769235
vt 0.419385 0.916615
vt 0.443638 0.783189
vt 0.449204 0.930689
vt 0.443632 0.930735
vt 0.449251 0.783305
vt 0.685791 0.256299
vt 0.415287 0.916450
vt 0.648650 0.250525
vt 0.652688 0.256258
vt 0.648656 0.256303
vt 0.650508 0.769828
vt 0.656126 0.769944
vt 0.656078 0.917327
vt 0.470641 0.783462
vt 0.474751 0.783261
vt 0.474729 0.930647
vt 0.650502 0.917374
vt 0.470641 0.930475
vt 0.652683 0.250480
vt 0.457917 0.783462
vt 0.462005 0.930647
vt 0.457917 0.930475
vt 0.462026 0.783261
vt 0.429289 0.783189
vt 0.434902 0.783305
vt 0.434854 0.930688
vt 0.673407 0.250522
vt 0.677444 0.256255
vt 0.673411 0.256300
vt 0.401005 0.769166
vt 0.406575 0.916666
vt 0.400999 0.916712
vt 0.406623 0.769282
vt 0.677438 0.250477
vt 0.664790 0.770105
vt 0.668888 0.917276
vt 0.664790 0.917112
vt 0.661030 0.250525
vt 0.665067 0.256258
vt 0.661035 0.256303
vt 0.665062 0.250480
vt 0.668909 0.769897
vt 0.429283 0.930735
vt 0.859326 0.523625
vt 0.745901 0.657614
vt 0.745748 0.523624
vt 0.859742 0.657628
vt 0.200205 0.798802
vt 0.204661 0.798961
vt 0.204635 0.912805
vt 0.018104 0.920733
vt 0.018077 0.784618
vt 0.022815 0.784621
vt 0.889748 0.801657
vt 0.894226 0.915335
vt 0.889748 0.915145
vt 0.894253 0.801490
vt 0.022764 0.920725
vt 0.004491 0.921225
vt 0.009125 0.784938
vt 0.009150 0.921216
vt 0.859805 0.666286
vt 0.745897 0.799701
vt 0.746224 0.666284
vt 0.004465 0.784947
vt 0.200155 0.912615
vt 0.859743 0.799714
vt 0.873513 0.004152
vt 0.766205 0.130899
vt 0.766068 0.004150
vt 0.881194 0.274114
vt 0.773429 0.400318
vt 0.773745 0.274112
vt 0.873915 0.130912
vt 0.881143 0.400331
vt 0.222786 0.640927
vt 0.261944 0.732603
vt 0.222827 0.732637
vt 0.261904 0.640893
vt 0.812711 0.808575
vt 0.818047 0.808619
vt 0.817997 0.900165
vt 0.200270 0.961893
vt 0.205594 0.921801
vt 0.205642 0.961831
vt 0.171404 0.951674
vt 0.171355 0.911644
vt 0.176728 0.911582
vt 0.798758 0.808575
vt 0.804049 0.900165
vt 0.798714 0.900121
vt 0.222785 0.540646
vt 0.262114 0.632175
vt 0.222826 0.632352
vt 0.262074 0.540470
vt 0.804098 0.808619
vt 0.200221 0.921862
vt 0.812667 0.900121
vt 0.176777 0.951613
vt 0.773324 0.409216
vt 0.806592 0.494673
vt 0.773319 0.494622
vt 0.806598 0.409266
vt 0.766090 0.139857
vt 0.799504 0.225190
vt 0.766085 0.225260
vt 0.799509 0.139787
vt 0.947855 0.150962
vt 0.949079 0.150959
vt 0.949050 0.236157
vt 0.947872 0.236242
vt 0.943427 0.419377
vt 0.944622 0.504573
vt 0.943445 0.504658
vt 0.944651 0.419375
vt 0.869806 0.247955
vt 0.872124 0.248140
vt 0.871981 0.263703
vt 0.847970 0.247956
vt 0.850147 0.263703
vt 0.847796 0.263520
vt 0.850291 0.248140
vt 0.869632 0.263520
vt 0.858887 0.247955
vt 0.861065 0.263703
vt 0.858714 0.263520
vt 0.861209 0.248140
vt 0.943636 0.513505
vt 0.945954 0.513690
vt 0.945811 0.529253
vt 0.943462 0.529070
vt 0.861955 0.409371
vt 0.842803 0.510741
vt 0.842834 0.409362
vt 0.171341 0.902333
vt 0.171316 0.799195
vt 0.177370 0.799189
vt 0.861924 0.510753
vt 0.717670 0.948709
vt 0.722984 0.967946
vt 0.717729 0.967990
vt 0.185774 0.902325
vt 0.191802 0.799182
vt 0.191827 0.902319
vt 0.777314 0.946465
vt 0.782924 0.946503
vt 0.782892 0.965638
vt 0.185749 0.799188
vt 0.815107 0.511205
vt 0.815138 0.409381
vt 0.834258 0.409462
vt 0.777345 0.965745
vt 0.177395 0.902327
vt 0.834227 0.511282
vt 0.723284 0.948740
vt 0.957923 0.210237
vt 0.961226 0.260931
vt 0.957873 0.261011
vt 0.458019 0.939702
vt 0.461304 0.939654
vt 0.461331 0.973594
vt 0.392507 0.769033
vt 0.358786 0.819373
vt 0.358797 0.769036
vt 0.392496 0.819368
vt 0.961275 0.210157
vt 0.875969 0.937825
vt 0.879296 0.971705
vt 0.876015 0.971764
vt 0.879267 0.937767
vt 0.798751 0.908868
vt 0.802054 0.959564
vt 0.798701 0.959644
vt 0.557453 0.769695
vt 0.523731 0.819993
vt 0.523742 0.769697
vt 0.557441 0.819988
vt 0.802104 0.908788
vt 0.458065 0.973641
vt 0.974112 0.419385
vt 0.975722 0.471929
vt 0.974121 0.471877
vt 0.144113 0.922533
vt 0.145887 0.922508
vt 0.145896 0.975001
vt 0.144122 0.975026
vt 0.975726 0.419359
vt 0.470743 0.939702
vt 0.474055 0.973594
vt 0.470790 0.973641
vt 0.261980 0.888351
vt 0.265334 0.888271
vt 0.265284 0.939048
vt 0.474028 0.939654
vt 0.307950 0.769034
vt 0.274228 0.819373
vt 0.274240 0.769036
vt 0.960893 0.939372
vt 0.964220 0.973252
vt 0.960939 0.973311
vt 0.964191 0.939313
vt 0.307938 0.819368
vt 0.957923 0.150834
vt 0.961275 0.150754
vt 0.961226 0.201528
vt 0.261931 0.939128
vt 0.957873 0.201608
vt 0.599732 0.769695
vt 0.566010 0.819993
vt 0.566021 0.769697
vt 0.599720 0.819988
vt 0.707484 0.922935
vt 0.709094 0.975479
vt 0.707493 0.975427
vt 0.963356 0.419387
vt 0.965130 0.419361
vt 0.965139 0.471854
vt 0.709098 0.922908
vt 0.963365 0.471880
vt 0.429320 0.939708
vt 0.432632 0.973600
vt 0.429366 0.973647
vt 0.432605 0.939660
vt 0.642011 0.769695
vt 0.641999 0.819988
vt 0.608289 0.819993
vt 0.185910 0.911385
vt 0.189213 0.962079
vt 0.185860 0.962160
vt 0.814671 0.908868
vt 0.818025 0.908788
vt 0.817975 0.959564
vt 0.350228 0.769033
vt 0.316507 0.819373
vt 0.316518 0.769036
vt 0.189262 0.911305
vt 0.963122 0.480927
vt 0.966420 0.480868
vt 0.966449 0.514806
vt 0.608300 0.769697
vt 0.350217 0.819368
vt 0.963168 0.514866
vt 0.814622 0.959644
vt 0.973721 0.685250
vt 0.975335 0.685223
vt 0.975331 0.737794
vt 0.973730 0.737741
vt 0.962965 0.685251
vt 0.964739 0.685226
vt 0.964748 0.737719
vt 0.962974 0.737744
vt 0.723902 0.922372
vt 0.730746 0.923317
vt 0.735104 0.930569
vt 0.068154 0.861983
vt 0.059634 0.862055
vt 0.061788 0.784862
vt 0.057428 0.784777
vt 0.068727 0.785038
vt 0.730923 0.938670
vt 0.721769 0.938825
vt 0.717414 0.933141
vt 0.718228 0.927019
vt 0.109998 0.861812
vt 0.102485 0.862088
vt 0.105209 0.784799
vt 0.113943 0.861785
vt 0.112357 0.784818
vt 0.092390 0.862114
vt 0.088382 0.862031
vt 0.090273 0.784834
vt 0.081865 0.784837
vt 0.081271 0.861880
vt 0.100714 0.785104
vt 0.689807 0.923146
vt 0.695262 0.927386
vt 0.695353 0.935747
vt 0.687739 0.940774
vt 0.135479 0.861296
vt 0.129351 0.784630
vt 0.135479 0.784602
vt 0.679735 0.936331
vt 0.678804 0.929225
vt 0.682430 0.924441
vt 0.128843 0.861324
vt 0.122243 0.784614
vt 0.122243 0.861308
vt 0.776707 0.234105
vt 0.795388 0.244620
vt 0.795461 0.252625
vt 0.446314 0.939283
vt 0.446546 0.946157
vt 0.441457 0.942565
vt 0.441256 0.954021
vt 0.791263 0.237708
vt 0.446614 0.954129
vt 0.788452 0.261355
vt 0.265472 0.958556
vt 0.265435 0.969423
vt 0.260693 0.969419
vt 0.773252 0.261643
vt 0.265435 0.947556
vt 0.260729 0.957640
vt 0.784836 0.233921
vt 0.765883 0.252385
vt 0.767328 0.241996
vt 0.845769 0.951987
vt 0.846001 0.964403
vt 0.840685 0.959917
vt 0.845746 0.945468
vt 0.840729 0.948061
vt 0.260693 0.947552
vt 0.832022 0.945477
vt 0.831952 0.952132
vt 0.826593 0.952034
vt 0.826704 0.962987
vt 0.831794 0.963887
vt 0.840954 0.967309
vt 0.822886 0.234101
vt 0.830020 0.238009
vt 0.833690 0.244496
vt 0.826815 0.945727
vt 0.832120 0.255331
vt 0.819433 0.263574
vt 0.806126 0.256223
vt 0.804372 0.244516
vt 0.446387 0.960964
vt 0.441180 0.961253
vt 0.810677 0.236353
vt 0.810404 0.222626
vt 0.809864 0.224580
vt 0.808203 0.224219
vt 0.808413 0.221987
vt 0.832652 0.222622
vt 0.832110 0.224579
vt 0.830587 0.223897
vt 0.830662 0.221981
vt 0.821528 0.222626
vt 0.820987 0.224580
vt 0.819327 0.224219
vt 0.819536 0.221987
vt 0.932141 0.951881
vt 0.931599 0.953838
vt 0.930076 0.953156
vt 0.930151 0.951239
vt 0.079266 0.870799
vt 0.083788 0.870843
vt 0.083737 0.943985
vt 0.808106 0.139759
vt 0.839252 0.213016
vt 0.808148 0.213064
vt 0.839211 0.139711
vt 0.962747 0.778667
vt 0.967243 0.746754
vt 0.967291 0.778603
vt 0.079221 0.943941
vt 0.031473 0.964491
vt 0.035969 0.932578
vt 0.036018 0.964429
vt 0.031424 0.932641
vt 0.222785 0.741342
vt 0.254067 0.814483
vt 0.222828 0.814644
vt 0.254026 0.741181
vt 0.057587 0.870792
vt 0.062113 0.870836
vt 0.062062 0.943978
vt 0.962698 0.746816
vt 0.057542 0.943934
vt 0.401208 0.925675
vt 0.414741 0.945290
vt 0.401218 0.945371
vt 0.414742 0.925595
vt 0.854608 0.945805
vt 0.860994 0.945871
vt 0.861002 0.965319
vt 0.558428 0.263605
vt 0.558485 0.250119
vt 0.564854 0.250123
vt 0.543591 0.264195
vt 0.550060 0.250360
vt 0.550069 0.264249
vt 0.156539 0.945691
vt 0.162989 0.964967
vt 0.156539 0.964957
vt 0.162989 0.945701
vt 0.650706 0.926311
vt 0.664185 0.945974
vt 0.650720 0.946007
vt 0.543582 0.250306
vt 0.854547 0.965313
vt 0.564906 0.263665
vt 0.664181 0.926277
vt 0.621640 0.265051
vt 0.621433 0.264117
vt 0.622295 0.263779
vt 0.680294 0.651152
vt 0.631409 0.264856
vt 0.630725 0.264646
vt 0.630595 0.263995
vt 0.700599 0.131679
vt 0.046219 0.784602
vt 0.803947 0.503196
vt 0.036083 0.786199
vt 0.159626 0.799458
vt 0.213815 0.841683
vt 0.682079 0.954265
vt 0.918789 0.952766
vt 0.640154 0.265169
vt 0.044384 0.785589
vt 0.873326 0.182131
vt 0.735377 0.953487
vt 0.827200 0.936664
vt 0.826463 0.936662
vt 0.826828 0.808863
vt 0.533838 0.956178
vt 0.532924 0.956180
vt 0.533738 0.828382
vt 0.241965 0.951327
vt 0.241228 0.951325
vt 0.241452 0.823526
vt 0.340269 0.955559
vt 0.339355 0.955560
vt 0.340016 0.827762
vt 0.855040 0.936664
vt 0.854430 0.936662
vt 0.854876 0.808865
vt 0.377378 0.955558
vt 0.376643 0.955560
vt 0.376867 0.827762
vt 0.293657 0.955559
vt 0.292743 0.955560
vt 0.293557 0.827762
vt 0.952386 0.932580
vt 0.951471 0.932580
vt 0.952285 0.804781
vt 0.552304 0.956177
vt 0.551569 0.956180
vt 0.551933 0.828382
vt 0.949132 0.132440
vt 0.948217 0.132440
vt 0.948879 0.004641
vt 0.358734 0.955558
vt 0.357999 0.955560
vt 0.358223 0.827762
vt 0.223498 0.951326
vt 0.222583 0.951325
vt 0.223397 0.823527
vt 0.302801 0.955558
vt 0.302066 0.955560
vt 0.302430 0.827762
vt 0.955018 0.400853
vt 0.954103 0.400852
vt 0.954765 0.273053
vt 0.349412 0.955558
vt 0.348677 0.955560
vt 0.348901 0.827762
vt 0.284336 0.956050
vt 0.283421 0.956049
vt 0.284235 0.828250
vt 0.368056 0.955558
vt 0.367321 0.955560
vt 0.367686 0.827762
vt 0.943869 0.272854
vt 0.917526 0.801622
vt 0.941285 0.804554
vt 0.930349 0.804371
vt 0.746053 0.808664
vt 0.937701 0.004641
vt 0.943113 0.538691
vt 0.903928 0.804374
vt 0.635114 0.250859
vt 0.046333 0.784916
vt 0.621516 0.250859
s 1
usemtl factory_001_baked
f 1/1/1 2/2/1 3/3/1
f 1/1/1 3/3/1 4/4/1
f 66/5/2 67/6/2 62/7/2
f 81/8/3 78/9/3 79/10/3
f 96/11/4 97/12/4 98/13/4
f 110/14/5 107/15/5 108/16/5
f 93/17/6 99/18/7 92/19/8
f 163/20/9 162/21/10 161/22/11
f 59/23/12 81/8/13 68/24/14
f 58/25/15 67/26/15 57/27/15
f 66/28/16 68/29/14 67/30/17
f 84/31/18 64/32/18 75/33/18
f 83/34/19 63/35/19 62/36/19
f 78/9/20 70/37/21 69/38/22
f 75/39/23 80/40/24 79/41/25
f 76/42/26 79/10/27 78/9/28
f 72/43/29 69/44/30 83/45/31
f 63/46/32 74/47/32 64/32/32
f 71/48/33 84/31/34 75/33/35
f 88/49/36 110/14/37 87/50/38
f 97/51/39 87/52/38 98/53/40
f 94/54/41 104/55/42 95/56/43
f 107/15/44 105/57/45 104/58/46
f 114/59/47 109/60/47 108/61/47
f 97/62/48 114/59/49 103/63/50
f 115/64/51 108/16/52 107/15/28
f 116/65/53 104/66/54 102/67/55
f 95/68/56 112/69/56 96/70/56
f 147/71/57 148/72/57 146/73/57
f 147/74/57 146/75/57 148/76/57
f 150/77/57 151/78/57 149/79/57
f 150/80/57 149/81/57 151/82/57
f 166/83/57 165/84/57 164/85/57
f 166/86/57 164/87/57 165/88/57
f 169/89/57 168/90/57 167/91/57
f 169/92/57 167/93/57 168/94/57
f 178/95/57 177/96/57 176/97/57
f 178/98/57 176/99/57 177/100/57
f 187/101/57 186/102/57 185/103/57
f 187/104/57 185/105/57 186/106/57
f 294/107/58 292/108/59 293/109/60
f 291/110/61 293/111/60 296/112/62
f 295/113/63 296/114/62 290/115/64
f 297/116/65 290/117/64 292/118/59
f 303/119/58 299/120/59 300/121/60
f 304/122/61 300/123/60 305/124/62
f 301/125/63 305/126/62 298/127/66
f 302/128/65 298/129/66 299/130/59
f 5/131/67 6/132/68 9/133/69
f 5/131/67 12/134/70 6/132/68
f 10/135/71 5/136/67 9/137/69
f 10/138/71 12/139/70 5/140/67
f 9/141/69 6/142/68 8/143/72
f 12/144/70 8/145/72 6/146/68
f 11/147/73 7/148/74 8/149/72
f 9/141/69 8/143/72 7/150/74
f 11/147/73 10/151/71 7/148/74
f 10/135/71 9/137/69 7/152/74
f 12/144/70 11/153/73 8/145/72
f 10/138/71 11/154/73 12/139/70
f 15/155/75 13/156/76 19/157/77
f 19/158/77 13/159/76 14/160/78
f 13/161/76 18/162/79 14/163/78
f 13/161/76 17/164/80 18/162/79
f 15/155/75 17/165/80 13/156/76
f 19/158/77 14/160/78 20/166/81
f 20/167/81 14/168/78 18/169/79
f 17/170/80 15/171/75 16/172/82
f 15/173/75 20/174/81 16/175/82
f 15/173/75 19/176/77 20/174/81
f 17/170/80 16/172/82 18/177/79
f 20/167/81 18/169/79 16/178/82
f 24/179/83 25/180/84 21/181/85
f 26/182/86 21/183/87 25/184/84
f 24/185/83 23/186/88 22/187/89
f 24/185/83 22/187/89 25/184/84
f 26/188/86 22/189/89 23/190/90
f 25/184/84 22/187/89 26/182/86
f 33/191/91 27/192/92 32/193/93
f 32/194/93 27/195/92 30/196/94
f 34/197/95 28/198/96 29/199/97
f 31/200/98 29/201/97 28/202/96
f 34/197/95 29/199/97 30/203/94
f 32/194/93 30/196/94 29/204/97
f 31/205/98 28/206/96 34/207/95
f 31/200/98 32/208/93 29/201/97
f 33/191/91 32/193/93 31/209/98
f 27/210/92 33/211/91 30/212/94
f 33/213/91 34/207/95 30/214/94
f 33/213/91 31/205/98 34/207/95
f 35/215/91 42/216/92 36/217/93
f 35/215/91 36/217/93 37/218/98
f 35/219/91 37/220/98 39/221/95
f 42/222/92 35/223/91 40/224/94
f 35/219/91 39/221/95 40/225/94
f 36/226/93 40/227/94 41/228/97
f 36/226/93 42/229/92 40/227/94
f 37/230/98 36/231/93 41/232/97
f 37/230/98 41/232/97 38/233/96
f 39/234/95 38/235/96 41/236/97
f 39/234/95 41/236/97 40/237/94
f 37/220/98 38/238/96 39/221/95
f 43/239/99 46/240/100 50/241/101
f 52/242/102 51/243/103 43/244/99
f 43/239/99 51/245/103 46/240/100
f 52/242/102 49/246/104 44/247/105
f 44/248/105 49/249/104 48/250/106
f 45/251/107 48/252/106 50/253/101
f 45/251/107 50/253/101 46/254/100
f 45/251/107 46/254/100 47/255/108
f 52/256/102 45/257/107 47/258/108
f 44/259/105 48/260/106 45/257/107
f 52/256/102 44/259/105 45/257/107
f 51/261/103 47/262/108 46/263/100
f 49/249/104 50/264/101 48/250/106
f 52/242/102 43/244/99 49/246/104
f 49/249/104 43/265/99 50/264/101
f 51/261/103 52/266/102 47/262/108
f 53/267/109 55/268/110 68/29/111
f 53/267/109 68/29/111 66/28/112
f 55/269/110 54/270/113 61/271/114
f 61/272/114 54/273/113 60/274/115
f 54/275/113 57/276/116 60/277/115
f 55/278/110 56/279/117 68/280/111
f 55/269/110 53/281/109 54/270/113
f 55/269/110 61/271/114 56/282/117
f 68/283/14 60/284/115 57/27/116
f 68/283/14 57/27/116 67/26/17
f 54/275/113 53/285/109 57/276/116
f 65/286/118 67/30/118 58/287/118
f 80/288/119 81/8/119 59/23/119
f 56/289/117 61/272/114 80/288/120
f 68/283/14 81/290/13 60/284/115
f 64/32/121 84/31/34 71/48/33
f 64/291/122 69/292/22 75/39/23
f 83/293/123 63/294/124 74/295/125
f 64/32/121 71/48/33 73/296/126
f 75/39/23 69/292/22 70/297/21
f 69/44/30 72/43/29 82/298/127
f 78/299/128 79/41/128 80/40/128
f 78/9/129 69/38/30 82/300/127
f 71/301/33 76/302/26 82/303/127
f 71/301/33 82/303/127 72/304/29
f 71/301/33 72/304/29 73/305/126
f 75/306/35 76/307/26 71/308/33
f 83/293/123 74/295/125 72/309/130
f 75/310/35 79/10/27 76/42/26
f 78/9/129 82/300/127 76/42/26
f 109/311/119 110/14/119 88/49/119
f 100/312/131 89/313/132 85/314/133
f 85/315/133 89/316/132 109/311/120
f 87/317/38 86/318/134 91/319/135
f 89/316/132 90/320/136 86/321/134
f 90/322/136 91/323/135 86/324/134
f 87/317/38 110/325/37 86/318/134
f 100/312/131 90/326/136 89/313/132
f 90/322/136 92/327/8 91/323/135
f 100/312/131 92/328/8 90/326/136
f 92/19/8 99/18/7 91/329/135
f 101/330/137 99/18/137 93/17/137
f 93/17/138 100/331/131 101/330/139
f 87/317/38 91/319/135 98/332/40
f 96/70/140 103/333/141 117/334/142
f 96/335/143 104/336/46 97/62/48
f 102/337/123 95/338/124 112/339/125
f 96/70/140 117/334/142 113/340/126
f 100/341/131 85/342/133 87/343/144
f 102/337/123 112/339/125 116/344/130
f 107/345/128 108/61/128 109/60/128
f 97/62/48 104/336/46 105/346/45
f 97/62/48 109/60/145 114/59/49
f 103/347/141 114/348/146 117/349/142
f 107/15/147 104/58/54 111/350/148
f 114/351/146 108/16/52 115/64/51
f 107/15/147 111/350/148 115/64/51
f 117/352/142 115/353/51 111/354/148
f 117/352/142 111/354/148 116/355/53
f 104/66/54 116/65/53 111/356/148
f 117/352/142 116/355/53 113/357/126
f 114/348/146 115/358/51 117/349/142
f 118/359/149 120/360/150 121/361/151
f 120/362/150 118/363/149 119/364/152
f 118/365/149 123/366/153 119/367/152
f 118/365/149 122/368/154 123/366/153
f 118/359/149 121/361/151 122/369/154
f 120/362/150 119/364/152 125/370/155
f 123/371/153 125/372/155 119/373/152
f 121/374/151 120/375/150 125/376/155
f 122/377/154 121/378/151 124/379/156
f 121/374/151 125/376/155 124/380/156
f 122/377/154 124/379/156 123/381/153
f 123/371/153 124/382/156 125/372/155
f 126/383/154 129/384/156 132/385/153
f 126/383/154 127/386/151 129/384/156
f 131/387/149 126/388/154 132/389/153
f 131/390/149 127/391/151 126/392/154
f 127/393/151 128/394/155 129/395/156
f 127/393/151 130/396/150 128/394/155
f 131/390/149 130/397/150 127/391/151
f 130/398/150 133/399/152 128/400/155
f 132/401/153 128/402/155 133/403/152
f 132/401/153 129/404/156 128/402/155
f 130/398/150 131/405/149 133/399/152
f 131/387/149 132/389/153 133/406/152
f 134/407/157 141/408/158 138/409/159
f 134/407/157 135/410/160 141/408/158
f 137/411/161 134/412/157 138/413/159
f 135/414/160 134/415/157 137/416/161
f 135/417/160 136/418/162 141/419/158
f 135/417/160 140/420/163 136/418/162
f 135/414/160 137/416/161 140/421/163
f 136/422/162 138/423/159 141/424/158
f 140/425/163 139/426/164 136/427/162
f 136/422/162 139/428/164 138/423/159
f 137/411/161 138/413/159 139/429/164
f 140/425/163 137/430/161 139/426/164
f 145/431/165 143/432/166 142/433/167
f 144/434/168 142/435/167 143/436/166
f 145/431/165 144/437/168 143/432/166
f 144/434/168 145/438/165 142/435/167
f 191/439/169 192/440/170 198/441/171
f 191/439/169 196/442/172 192/440/170
f 194/443/173 191/444/169 198/445/171
f 194/446/173 196/447/172 191/448/169
f 198/449/171 192/450/170 197/451/174
f 196/452/172 197/453/174 192/454/170
f 193/455/175 195/456/176 197/457/174
f 193/455/175 194/458/173 195/456/176
f 196/452/172 193/459/175 197/453/174
f 194/446/173 193/460/175 196/447/172
f 194/443/173 198/445/171 195/461/176
f 198/449/171 197/451/174 195/462/176
f 199/463/177 202/464/178 201/465/179
f 199/463/177 200/466/180 202/464/178
f 200/467/180 201/468/179 202/469/178
f 200/467/180 199/470/177 201/468/179
f 206/471/181 204/472/182 203/473/183
f 206/471/181 203/473/183 205/474/184
f 204/475/182 205/476/184 203/477/183
f 204/475/182 206/478/181 205/476/184
f 210/479/185 207/480/186 209/481/187
f 207/482/186 208/483/188 209/484/187
f 207/482/186 210/485/185 208/483/188
f 210/479/185 209/481/187 208/486/188
f 211/487/186 213/488/188 214/489/187
f 211/487/186 212/490/185 213/488/188
f 212/491/185 211/492/186 214/493/187
f 212/491/185 214/493/187 213/494/188
f 217/495/189 215/496/190 218/497/191
f 218/498/192 215/499/193 221/500/194
f 217/495/189 222/501/195 215/496/190
f 222/502/196 221/503/194 215/504/193
f 216/505/197 222/506/196 217/507/198
f 216/508/197 217/509/198 218/510/192
f 216/505/197 220/511/199 222/506/196
f 220/512/200 216/513/201 219/514/202
f 216/508/197 218/510/192 219/515/203
f 218/498/192 221/500/194 219/516/203
f 220/512/200 219/514/202 221/517/204
f 222/502/196 220/518/199 221/503/194
f 226/519/205 223/520/206 228/521/207
f 228/522/207 223/523/206 230/524/208
f 223/525/206 227/526/209 230/527/208
f 223/525/206 224/528/210 227/526/209
f 226/519/205 224/529/210 223/520/206
f 224/530/210 225/531/211 227/532/209
f 224/530/210 226/533/205 225/531/211
f 229/534/212 227/535/209 225/536/211
f 226/537/205 229/538/212 225/539/211
f 226/537/205 228/540/207 229/538/212
f 229/534/212 230/541/208 227/535/209
f 228/522/207 230/524/208 229/542/212
f 233/543/213 234/544/214 231/545/215
f 231/546/215 234/547/214 232/548/216
f 231/546/215 232/548/216 233/549/213
f 233/543/213 232/550/216 234/544/214
f 240/551/207 235/552/208 241/553/212
f 241/554/212 235/555/208 237/556/209
f 240/551/207 239/557/206 235/552/208
f 239/558/206 237/559/209 235/560/208
f 236/561/210 242/562/211 237/563/209
f 236/561/210 238/564/205 242/562/211
f 239/558/206 236/565/210 237/559/209
f 238/566/205 236/567/210 239/568/206
f 241/554/212 237/556/209 242/569/211
f 238/566/205 239/568/206 240/570/207
f 238/571/205 241/572/212 242/573/211
f 238/571/205 240/574/207 241/572/212
f 246/575/217 244/576/218 243/577/219
f 243/578/219 244/579/218 245/580/220
f 246/575/217 245/581/220 244/576/218
f 243/578/219 245/580/220 246/582/217
f 247/583/221 248/584/208 251/585/212
f 247/583/221 254/586/206 248/584/208
f 249/587/205 247/588/221 251/589/212
f 249/590/205 254/591/206 247/592/221
f 251/593/212 248/594/208 250/595/209
f 254/596/206 250/597/209 248/598/208
f 249/590/205 253/599/210 254/591/206
f 253/600/210 249/601/205 252/602/211
f 249/587/205 251/589/212 252/603/211
f 254/596/206 253/604/210 250/597/209
f 253/600/210 252/602/211 250/605/209
f 251/593/212 250/595/209 252/606/211
f 257/607/222 258/608/223 255/609/224
f 257/607/222 255/609/224 256/610/225
f 256/611/225 255/612/224 258/613/223
f 256/611/225 258/613/223 257/614/222
f 261/615/226 259/616/227 260/617/228
f 260/618/228 259/619/229 272/620/230
f 259/619/227 271/621/231 272/620/232
f 260/618/228 272/620/230 270/622/233
f 261/615/226 260/617/228 269/623/234
f 261/615/226 269/623/234 268/624/235
f 261/615/226 268/624/235 262/625/236
f 261/615/226 262/625/236 263/626/237
f 261/627/226 263/628/237 266/629/238
f 259/630/227 261/627/226 271/631/231
f 261/627/226 266/629/238 271/631/239
f 263/632/240 262/633/241 264/634/242
f 262/633/243 265/635/244 264/634/245
f 262/633/243 268/636/235 265/635/244
f 263/628/240 264/637/242 266/629/238
f 266/638/238 264/639/242 265/640/244
f 266/638/238 265/640/244 267/641/246
f 268/642/235 267/643/246 265/644/244
f 266/638/238 267/641/246 270/645/233
f 266/638/238 270/645/233 272/646/247
f 266/638/238 272/646/247 271/647/239
f 269/648/234 270/649/233 267/643/246
f 268/642/235 269/648/234 267/643/246
f 269/648/234 260/650/228 270/649/233
f 276/651/248 273/652/249 274/653/250
f 274/654/250 273/655/251 283/656/252
f 273/655/253 287/657/254 283/656/255
f 276/651/248 286/658/256 273/652/249
f 273/655/253 286/659/257 287/657/254
f 276/651/248 274/653/250 275/660/258
f 275/661/258 274/662/250 283/663/252
f 276/651/248 275/660/258 277/664/259
f 277/665/259 275/661/258 282/666/260
f 276/651/248 288/667/261 286/658/256
f 276/651/248 277/664/259 278/668/262
f 276/651/248 278/668/262 279/669/263
f 276/670/248 279/671/263 289/672/264
f 288/673/261 276/670/248 285/674/265
f 276/670/248 289/672/264 285/674/266
f 277/665/259 282/666/260 284/675/267
f 279/676/268 278/677/269 281/678/270
f 278/677/271 284/679/267 281/678/272
f 278/677/271 277/680/259 284/679/267
f 279/671/268 280/681/273 289/672/264
f 289/682/264 280/683/273 281/684/274
f 279/676/268 281/678/270 280/685/273
f 289/682/264 281/684/274 284/686/267
f 289/682/264 284/686/267 282/687/260
f 289/682/264 282/687/260 283/688/252
f 275/661/258 283/663/252 282/666/260
f 289/682/264 283/688/252 287/689/275
f 286/659/276 288/690/261 285/691/265
f 289/682/264 287/689/275 285/692/266
f 286/659/276 285/691/265 287/657/277
f 290/693/64 296/694/62 293/695/60
f 290/693/64 293/695/60 292/696/59
f 294/697/58 291/698/61 295/699/63
f 294/697/58 295/699/63 297/700/65
f 298/701/66 305/702/62 300/703/60
f 298/701/66 300/703/60 299/704/59
f 303/705/58 304/706/61 301/707/63
f 303/705/58 301/707/63 302/708/65
f 309/709/278 306/710/279 307/711/280
f 306/712/279 312/713/281 307/714/280
f 306/712/279 313/715/282 312/713/281
f 309/716/278 313/717/282 306/718/279
f 309/709/278 307/711/280 310/719/283
f 307/720/280 311/721/284 310/722/283
f 307/720/280 312/723/281 311/721/284
f 308/724/285 310/725/283 311/726/284
f 308/724/285 309/727/278 310/725/283
f 313/728/282 308/729/285 311/730/284
f 309/716/278 308/731/285 313/717/282
f 313/728/282 311/730/284 312/732/281
f 314/733/286 315/734/287 317/735/288
f 314/733/286 318/736/289 315/734/287
f 319/737/290 314/738/286 317/739/288
f 318/740/289 314/741/286 319/742/290
f 316/743/291 317/744/288 315/745/287
f 318/746/289 316/747/291 315/748/287
f 318/746/289 320/749/292 316/747/291
f 320/750/292 321/751/293 316/752/291
f 316/743/291 321/753/293 317/744/288
f 319/737/290 317/739/288 321/754/293
f 318/740/289 319/742/290 320/755/292
f 320/750/292 319/756/290 321/751/293
f 62/7/294 63/757/294 66/5/294
f 63/757/295 64/758/295 65/759/295
f 66/5/296 63/757/296 65/759/296
f 81/8/297 77/760/297 78/9/297
f 79/10/298 80/288/298 81/8/298
f 80/288/299 60/274/299 81/8/299
f 94/761/300 95/762/300 96/11/300
f 99/763/301 94/761/301 96/11/301
f 98/13/302 99/763/302 96/11/302
f 110/14/297 106/764/297 107/15/297
f 108/16/303 109/311/303 110/14/303
f 109/311/304 86/321/304 110/14/304
f 93/17/305 94/765/305 99/18/305
f 59/23/306 77/760/306 81/8/306
f 58/25/307 62/766/307 67/26/307
f 59/23/308 68/24/111 56/289/117
f 60/274/115 80/288/120 61/272/114
f 58/287/309 57/767/310 53/267/311
f 66/28/312 65/286/312 53/267/312
f 84/31/313 65/768/313 64/32/313
f 83/34/314 69/769/314 63/35/314
f 78/9/315 77/760/315 70/37/315
f 74/770/125 73/305/316 72/304/130
f 63/46/317 73/296/317 74/47/317
f 93/17/138 92/19/8 100/331/131
f 88/49/306 106/764/306 110/14/306
f 99/771/7 98/332/318 91/319/135
f 97/51/319 101/772/319 87/52/319
f 88/49/320 87/50/144 85/315/133
f 86/321/134 109/311/120 89/316/132
f 87/773/144 101/330/321 100/331/131
f 94/54/41 102/774/322 104/55/42
f 107/15/315 106/764/315 105/57/315
f 112/775/125 113/357/323 116/355/130
f 95/68/324 113/340/324 112/69/324
f 154/776/57 152/777/57 153/778/57
f 152/779/57 154/780/57 153/781/57
f 156/782/325 155/783/57 157/784/57
f 155/785/57 156/786/325 157/787/57
f 159/788/326 158/789/57 160/790/57
f 158/791/57 159/792/326 160/793/57
f 161/794/11 162/795/10 163/796/9
f 171/797/325 172/798/57 170/799/57
f 172/800/57 171/801/325 170/802/57
f 173/803/57 175/804/57 174/805/57
f 175/806/57 173/807/57 174/808/57
f 181/809/57 179/810/57 180/811/57
f 179/812/57 181/813/57 180/814/57
f 184/815/326 183/816/57 182/817/57
f 183/818/57 184/819/326 182/820/57
f 189/821/326 190/822/57 188/823/57
f 190/824/57 189/825/326 188/826/57
f 294/827/58 297/116/65 292/118/59
f 291/828/61 294/107/58 293/109/60
f 295/829/63 291/110/61 296/112/62
f 297/830/65 295/113/63 290/115/64
f 303/831/58 302/128/65 299/130/59
f 304/832/61 303/119/58 300/121/60
f 301/833/63 304/122/61 305/124/62
f 302/834/65 301/125/63 298/127/66
f 58/287/309 53/267/311 65/286/327
f 65/286/328 66/28/328 67/30/328
f 59/23/308 56/289/117 80/288/329
f 64/291/330 63/835/330 69/292/330
f 80/40/24 75/39/23 70/297/21
f 70/297/331 78/299/331 80/40/331
f 88/49/320 85/315/133 109/311/329
f 101/330/332 98/836/332 99/18/332
f 96/335/333 95/837/333 104/336/333
f 109/60/145 97/62/48 105/346/45
f 105/346/331 107/345/331 109/60/331
