# Blender 4.5.0
# www.blender.org
mtllib factory_002.lod1.mtl
o factory_002
v -1.121292 4.021603 -2.702373
v 1.121292 4.021603 -2.702373
v 1.121292 3.661123 -2.702373
v -1.121292 3.661123 -2.702373
v -3.248904 0.191672 -3.248360
v 3.248904 0.001096 -3.248360
v -3.250000 -0.000000 -3.246573
v 3.248904 0.191672 3.250000
v -3.248904 0.001096 3.250000
v -3.250000 0.192768 3.248213
v 3.250000 0.192768 -3.246573
v 3.250000 0.000000 3.248213
v -3.023011 4.097902 -2.547791
v 3.023011 0.200325 -2.547791
v -3.023011 0.200325 3.049837
v 3.024557 0.199624 3.047867
v -3.024557 0.199624 -2.545821
v 3.024557 4.098602 -2.545821
v 3.023011 4.097902 3.049837
v -3.024557 4.098603 3.047867
v -2.968420 4.212871 2.759072
v -2.959581 4.219097 2.765115
v -2.963353 4.216749 -2.763697
v 2.968420 4.212871 -2.757432
v 2.959581 4.219097 -2.763476
v 2.963353 4.216748 2.765337
v -2.959423 4.110707 -2.766425
v -2.968420 4.101709 -2.757432
v -2.973242 4.112562 -2.766425
v -2.968420 4.110707 -2.766425
v -2.968420 4.110707 2.768065
v -2.973402 4.110707 2.768065
v -2.968420 4.101709 2.759072
v -2.959423 4.110707 2.768065
v -3.119608 4.101709 -2.757432
v -3.128604 4.112490 -2.766425
v -3.126219 4.103858 -2.920778
v -3.117825 4.101709 -2.766425
v -2.973085 4.457663 2.766129
v -2.975334 4.460096 -2.763052
v -2.968420 4.453190 -2.757432
v 2.959423 4.110707 2.768065
v 2.968420 4.101709 2.759072
v 2.973242 4.112562 2.768065
v 2.968420 4.110707 2.768065
v 2.968420 4.110707 -2.766425
v 2.973402 4.110707 -2.766425
v 2.968420 4.101709 -2.757432
v 2.959423 4.110707 -2.766425
v 2.975334 4.460096 2.764691
v 2.968420 4.453190 2.759072
v 2.973151 4.457594 -2.764790
v 3.119608 4.101709 2.759072
v 3.128604 4.112490 2.768065
v 3.126218 4.103858 2.922418
v 3.117825 4.101709 2.768065
v -3.123494 4.459436 -2.923010
v 3.123494 4.104461 -2.923010
v -3.119608 4.462189 -2.766425
v -3.128604 4.453190 -2.766425
v -3.119608 4.462189 -2.757432
v 3.119608 4.462189 -2.757432
v 3.128604 4.451407 -2.766425
v 3.126219 4.460039 -2.920778
v 3.117825 4.462189 -2.766425
v 3.119608 4.101709 -2.766425
v 3.128604 4.110707 -2.766425
v 3.119608 4.101709 -2.757432
v -3.119608 4.462189 2.759072
v -3.128604 4.451407 2.768065
v -3.126219 4.460039 2.922418
v -3.117825 4.462189 2.768065
v 3.123494 4.459436 2.924650
v -3.128604 4.110707 2.772062
v -3.119608 4.101709 2.759072
v -3.119608 4.101709 2.768065
v -3.123494 4.104461 2.924650
v 3.119608 4.462189 2.768065
v 3.128604 4.453190 2.768065
v 3.119608 4.462189 2.759072
v -2.796685 0.198304 -2.537948
v 2.798130 0.198275 -2.538745
v -2.796686 0.615289 -3.185056
v -2.798130 0.198275 -3.184259
v 2.796686 0.198304 -3.185056
v -2.798130 0.615318 -2.538745
v 2.796685 0.615289 -2.537948
v 2.798130 0.615318 -3.184259
v -0.248987 3.316877 -2.636082
v -2.794519 0.620870 -2.636082
v -0.250043 3.315743 -2.544697
v -0.248987 0.620870 -2.546484
v -2.794519 3.316877 -2.546484
v -2.793463 3.315743 -2.637870
v -2.793463 0.622004 -2.544696
v -0.250043 0.622004 -2.637870
v -0.395140 0.652113 -2.712940
v -0.395140 3.155461 -2.629755
v -2.649389 3.156627 -2.631543
v -2.648366 3.155461 -2.712940
v -2.649388 0.650947 -2.711153
v -0.394118 3.156627 -2.711153
v -0.394118 0.650947 -2.631543
v -2.648366 0.652113 -2.629755
v -2.652272 0.811026 -2.750460
v -0.382419 0.812336 -2.731396
v -2.652272 0.813646 -2.712333
v -0.382419 1.012602 -2.731396
v -2.652272 1.013912 -2.712333
v -2.652272 1.011292 -2.750460
v -0.382419 1.212868 -2.731396
v -2.652272 1.214178 -2.712333
v -2.652272 1.211558 -2.750460
v -0.382419 1.413134 -2.731396
v -2.652272 1.411825 -2.750460
v -2.652272 1.414444 -2.712333
v -0.391234 1.614711 -2.750460
v -2.652272 1.614711 -2.712334
v -0.391234 1.612091 -2.712334
v -2.652272 1.612091 -2.750460
v -0.391234 1.814976 -2.750460
v -2.652272 1.814976 -2.712334
v -0.391234 1.812358 -2.712334
v -2.652272 1.812357 -2.750460
v -0.391234 2.015243 -2.750460
v -2.652272 2.015243 -2.712334
v -2.652272 2.012624 -2.750460
v -0.391234 2.012624 -2.712334
v -0.391234 2.215509 -2.750460
v -2.652272 2.212890 -2.750460
v -2.652272 2.215509 -2.712334
v -0.391234 2.212890 -2.712334
v -0.391234 2.415776 -2.750460
v -2.652272 2.415776 -2.712334
v -0.391234 2.413156 -2.712334
v -2.652272 2.413156 -2.750460
v -2.652272 2.613422 -2.750460
v -2.652272 2.616042 -2.712334
v -0.391234 2.613422 -2.712334
v -0.391234 2.616042 -2.750460
v -2.652272 2.813689 -2.750460
v -0.391234 2.816308 -2.750460
v -0.391234 2.813689 -2.712334
v -2.652272 2.816308 -2.712334
v -2.652272 3.013955 -2.750460
v -0.391234 3.016574 -2.750460
v -2.652272 3.016574 -2.712334
v -0.391234 3.013955 -2.712334
v -2.806373 1.040593 -2.910221
v -2.806372 0.253639 -2.752734
v -2.806428 1.042190 -2.754033
v -2.679893 1.042190 -2.908922
v -2.679948 1.040593 -2.752735
v -2.806428 0.252042 -2.908921
v -2.679948 0.253639 -2.910222
v -2.679892 0.252042 -2.754034
v -0.363558 1.040593 -2.910221
v -0.363613 1.042190 -2.754033
v -0.237134 1.040593 -2.752735
v -0.237079 1.042190 -2.908922
v -0.237134 0.253639 -2.910222
v -0.363614 0.252042 -2.908921
v -0.237078 0.252042 -2.754034
v -0.363558 0.253639 -2.752734
v 0.248987 0.620870 -2.636082
v 0.250043 3.315743 -2.637870
v 2.793463 3.315743 -2.544697
v 2.794519 0.620870 -2.546484
v 2.793463 0.622004 -2.637870
v 0.248987 3.316877 -2.546484
v 2.794519 3.316877 -2.636082
v 0.250043 0.622004 -2.544696
v 0.395140 3.155461 -2.712940
v 2.648366 0.652113 -2.712940
v 0.394118 0.650947 -2.711152
v 0.395140 0.652113 -2.629755
v 0.394118 3.156627 -2.631544
v 2.648366 3.155461 -2.629755
v 2.649389 3.156627 -2.711153
v 2.649388 0.650947 -2.631543
v 0.382419 0.812336 -2.731396
v 2.652272 0.813646 -2.750460
v 2.652272 0.811026 -2.712333
v 0.382419 1.012602 -2.731396
v 2.652272 1.011292 -2.712333
v 2.652272 1.013912 -2.750460
v 2.652272 1.214178 -2.750460
v 0.382419 1.212868 -2.731396
v 2.652272 1.211558 -2.712333
v 0.382419 1.413134 -2.731396
v 2.652272 1.411825 -2.712333
v 2.652272 1.414444 -2.750460
v 0.391234 1.614711 -2.712334
v 0.391234 1.612091 -2.750460
v 2.652272 1.612091 -2.712334
v 2.652272 1.614711 -2.750460
v 2.652272 1.814976 -2.750460
v 2.652272 1.812358 -2.712334
v 0.391234 1.814976 -2.712334
v 0.391234 1.812357 -2.750460
v 2.652272 2.015243 -2.750460
v 0.391234 2.012624 -2.750460
v 2.652272 2.012624 -2.712334
v 0.391234 2.015243 -2.712334
v 2.652272 2.215509 -2.750460
v 0.391234 2.212890 -2.750460
v 2.652272 2.212890 -2.712334
v 0.391234 2.215509 -2.712334
v 0.391234 2.413156 -2.750460
v 2.652272 2.413156 -2.712334
v 0.391234 2.415776 -2.712334
v 2.652272 2.415776 -2.750460
v 2.652272 2.613422 -2.712334
v 0.391234 2.613422 -2.750460
v 0.391234 2.616042 -2.712334
v 2.652272 2.616042 -2.750460
v 0.391234 2.813689 -2.750460
v 0.391234 2.816308 -2.712334
v 2.652272 2.813689 -2.712334
v 2.652272 2.816308 -2.750460
v 2.652272 3.016574 -2.750460
v 2.652272 3.013955 -2.712334
v 0.391234 3.013955 -2.750460
v 0.391234 3.016574 -2.712334
v 0.237134 0.253639 -2.752734
v 0.363614 0.252042 -2.754034
v 0.237134 1.040593 -2.910221
v 0.237078 0.252042 -2.908921
v 0.237079 1.042190 -2.754033
v 0.363558 0.253639 -2.910222
v 0.363558 1.040593 -2.752735
v 0.363613 1.042190 -2.908922
v 2.679892 0.252042 -2.908921
v 2.806373 1.040593 -2.752735
v 2.679893 1.042190 -2.754033
v 2.679948 0.253639 -2.752734
v 2.806428 1.042190 -2.908922
v 2.806372 0.253639 -2.910222
v 2.679948 1.040593 -2.910221
v 2.806428 0.252042 -2.754034
v -3.147366 3.519981 -3.255000
v 3.149023 3.520027 -3.254112
v -3.147366 3.351666 -2.608118
v 3.149023 3.351620 -2.609007
v 3.147366 3.351666 -3.255000
v -3.149023 3.520027 -2.609007
v 3.147366 3.519981 -2.608118
v -3.149023 3.351620 -3.254112
v 1.145214 3.633677 -2.695212
v -1.145214 3.633677 -2.547403
v -1.146599 4.048886 -2.548179
v 1.145214 4.049049 -2.547403
v 1.146599 3.633840 -2.548179
v 1.146599 4.048886 -2.694436
v -1.145214 4.049049 -2.695212
v -1.146599 3.633840 -2.694436
v -2.701939 0.194822 -3.052795
v -2.764790 0.200587 -3.143493
v -2.655356 0.193887 -3.170420
v -2.653533 1.019303 -3.169615
v -2.762131 1.013538 -3.149910
v -2.703797 1.020239 -3.053514
v 2.641438 0.200587 -3.143493
v 2.750873 0.193887 -3.170420
v 2.752695 1.019303 -3.169615
v 2.644097 1.013538 -3.149910
v 2.702431 1.020239 -3.053514
v 2.704289 0.194822 -3.052795
v 2.271917 4.898400 1.324236
v 2.273186 4.255485 1.322990
v 1.431082 4.899199 1.322990
v 1.432351 4.898400 0.879190
v 1.431082 4.255485 0.880436
v 2.273186 4.899199 0.880436
v 2.271917 4.256284 0.879190
v 1.432351 4.256284 1.324236
v 2.125861 4.391958 0.857388
v 1.950697 4.822374 0.851510
v 1.845529 4.424795 0.850021
v 2.014171 4.362025 0.845632
v 1.781411 4.649695 0.851739
v 2.183629 4.757488 0.851281
v 2.240530 4.530654 0.852999
v 1.806714 4.442985 0.831628
v 2.225759 4.434652 0.821486
v 1.800491 4.430086 0.815705
v 1.806714 4.511889 0.813157
v 2.225759 4.501741 0.821486
v 1.800491 4.495957 0.826049
v 1.800491 4.574615 0.816922
v 2.225759 4.568830 0.821486
v 1.806714 4.558682 0.829814
v 1.800491 4.640486 0.827267
v 1.806714 4.627587 0.811343
v 2.225759 4.635920 0.821486
v 1.806714 4.711341 0.831628
v 1.800491 4.698443 0.815705
v 2.225759 4.703009 0.821486
v 1.800491 4.775882 0.816922
v 1.806714 4.759950 0.829814
v 2.225759 4.770098 0.821486
v 1.518384 4.770937 0.855004
v 1.605215 4.770937 0.858025
v 1.605215 4.413785 0.855004
v 1.518384 4.413785 0.858024
v 1.589622 4.183937 0.816846
v 1.513954 4.249788 0.816846
v 1.589622 4.249788 1.386580
v 1.512934 4.250650 1.384726
v 1.590642 4.183074 1.384726
v 1.513954 4.183937 1.386580
v 1.590642 4.250650 0.818700
v 1.512934 4.183074 0.818700
v 2.114646 4.249788 0.816846
v 2.190314 4.249788 1.386580
v 2.113626 4.250650 1.384726
v 2.114646 4.183937 1.386580
v 2.191334 4.183074 1.384726
v 2.190314 4.183937 0.816845
v 2.191334 4.250650 0.818700
v 2.113626 4.183074 0.818700
v -1.823509 4.920000 1.746508
v -0.579259 4.920000 0.456917
v -0.580981 4.919397 1.748663
v -0.580980 4.225273 0.454763
v -1.821787 4.919397 0.454763
v -1.823509 4.224670 0.456917
v -0.579259 4.224670 1.746508
v -1.821788 4.225273 1.748663
v -2.877646 0.116164 3.189838
v -2.920002 0.120715 3.128938
v -2.844973 3.901690 3.110985
v -2.918000 3.897139 3.124106
v -2.845934 0.115932 3.110474
v -2.878686 3.901923 3.189519
v 2.878986 0.116164 3.189838
v 2.836630 0.120715 3.128938
v 2.910698 0.115932 3.110474
v 2.911659 3.901690 3.110985
v 2.877945 3.901923 3.189519
v 2.838632 3.897139 3.124106
v -0.395677 2.245114 3.074555
v -0.396200 2.245963 3.191594
v -0.395677 0.450983 3.192168
v -0.396200 0.450134 3.075129
v 0.396200 0.450134 3.191594
v 0.395677 0.450983 3.074556
v 0.395677 2.245114 3.192167
v 0.396200 2.245963 3.075129
v 0.972131 1.793036 3.216249
v 0.629020 1.794304 3.215409
v 0.629714 1.303593 3.216249
v 0.629714 1.793036 3.050473
v 0.629020 1.302326 3.051314
v 0.972826 1.302326 3.215409
v 0.972826 1.794304 3.051314
v 0.972131 1.303593 3.050474
vn -0.0000 -0.0000 -1.0000
vn -0.0000 -0.7069 -0.7073
vn -0.0000 -0.7069 0.7073
vn -0.7003 -0.7002 -0.1388
vn 0.7003 -0.7002 0.1388
vn -0.7072 0.7070 -0.0000
vn 0.7004 0.7001 -0.1388
vn 0.7072 -0.7070 -0.0000
vn -0.7004 0.7001 0.1388
vn -0.9137 -0.4062 0.0116
vn -0.7083 -0.7059 -0.0052
vn -0.5655 -0.5742 0.5920
vn 0.7072 0.7070 -0.0000
vn -0.9988 0.0487 -0.0011
vn -0.8521 0.5234 0.0002
vn -0.5759 0.8175 -0.0000
vn 0.9988 0.0487 0.0011
vn 0.8521 0.5234 -0.0002
vn 0.5759 0.8175 -0.0000
vn 0.5964 0.0704 -0.7996
vn -0.5964 0.0704 0.7996
vn 0.0148 0.9999 -0.0000
vn 0.0145 0.9999 -0.0000
vn 0.6375 0.0113 -0.7704
vn -0.0000 -0.6381 -0.7700
vn 0.0614 -0.9981 -0.0000
vn -0.7677 0.6408 0.0002
vn -0.7678 -0.6407 -0.0000
vn 0.9999 0.0142 0.0008
vn 0.8996 0.4368 -0.0000
vn 0.7067 0.7075 -0.0000
vn -0.0614 -0.9981 -0.0000
vn -0.0148 0.9999 -0.0000
vn -0.0145 0.9999 -0.0000
vn -0.6374 0.0113 0.7704
vn -0.0000 -0.6381 0.7700
vn -0.9999 0.0144 -0.0008
vn -0.8996 0.4368 -0.0000
vn -0.7066 0.7076 -0.0000
vn 0.7677 0.6408 -0.0002
vn 0.7678 -0.6407 0.0002
vn -0.5658 0.5741 -0.5918
vn -0.0001 0.9999 -0.0140
vn 0.1881 0.6777 -0.7108
vn 0.5658 -0.5741 -0.5918
vn 0.0001 -0.9999 -0.0140
vn -0.1881 -0.6777 -0.7108
vn 0.5658 0.5741 0.5918
vn 0.0001 0.9999 0.0140
vn -0.5653 0.5661 0.6000
vn -0.0001 -0.9999 0.0140
vn 0.1881 -0.6777 0.7108
vn -0.0002 0.6470 0.7625
vn -0.0002 0.6783 0.7348
vn -0.0002 0.6476 0.7619
vn -0.0000 -0.0000 -0.0000
vn -0.5751 0.5763 -0.5806
vn 0.5751 -0.5763 -0.5806
vn -0.5796 -0.5784 -0.5740
vn 0.5796 0.5784 -0.5740
vn -0.5796 0.5784 0.5740
vn 0.5796 -0.5784 0.5740
vn -0.5751 -0.5763 0.5806
vn 0.5751 0.5763 0.5806
vn -0.5772 0.5773 -0.5776
vn 0.5772 -0.5773 -0.5776
vn -0.5775 -0.5775 -0.5770
vn 0.5775 0.5775 -0.5770
vn -0.5775 0.5775 0.5770
vn 0.5775 -0.5775 0.5770
vn 0.5772 0.5773 0.5776
vn -0.5772 -0.5773 0.5776
vn -0.0000 0.6996 0.7145
vn -0.0000 0.6996 -0.7145
vn -0.0003 0.7055 -0.7087
vn -0.9989 0.0471 -0.0009
vn 0.0003 0.7055 0.7087
vn -0.0000 0.0272 0.9996
vn 0.3590 0.9333 0.0015
vn -0.0000 0.0272 -0.9996
vn -0.0000 0.0257 -0.9997
vn 0.9989 0.0471 0.0009
vn -0.3590 0.9333 -0.0015
vn -0.0000 0.0257 0.9997
vn -0.0000 -1.0000 -0.0000
vn 0.0117 0.0049 -0.9999
vn 0.0235 0.0098 -0.9997
vn 0.0056 0.0023 -1.0000
vn 1.0000 -0.0000 -0.0000
vn -0.0003 0.0056 1.0000
vn -0.0002 0.0056 1.0000
vn 1.0000 0.0086 0.0005
vn -0.9999 -0.0000 -0.0155
vn -1.0000 -0.0000 -0.0000
vn -0.9997 -0.0257 -0.0000
vn -0.0000 -0.0000 1.0000
vn 0.0309 0.9995 -0.0026
vn 0.0309 0.9995 0.0002
vn -0.0117 0.0049 0.9999
vn -0.0235 0.0098 0.9997
vn -0.0056 0.0023 1.0000
vn -0.0077 0.0008 -1.0000
vn -0.0015 0.0040 -1.0000
vn 0.0001 0.0047 -1.0000
vn -1.0000 0.0087 -0.0005
vn -0.0313 0.9995 0.0026
vn -0.0313 0.9995 -0.0002
vn -0.0107 -0.0035 -0.9999
vn -0.0046 0.0027 -1.0000
vn 0.9999 -0.0000 0.0155
vn -0.9023 0.4309 -0.0123
vn 0.9023 -0.4309 -0.0123
vn 0.9999 -0.0000 -0.0155
vn 0.9023 0.4309 0.0123
vn -0.5783 -0.5773 -0.5765
vn 0.5782 -0.5773 0.5765
vn -0.5755 -0.5779 0.5787
vn 0.5755 0.5779 0.5787
vn -0.5782 0.5773 0.5765
vn 0.5782 0.5773 -0.5765
vn 0.5755 -0.5779 -0.5787
vn -0.5755 0.5779 -0.5787
vn -0.5805 0.5808 0.5707
vn 0.5805 0.5808 -0.5707
vn -0.5742 0.5739 -0.5839
vn 0.5742 -0.5739 -0.5839
vn 0.5805 -0.5808 0.5707
vn 0.5742 0.5739 0.5839
vn -0.5805 -0.5808 -0.5707
vn -0.5742 -0.5739 0.5839
vn -0.5740 0.5733 -0.5847
vn 0.5740 -0.5733 -0.5847
vn -0.5808 -0.5813 -0.5699
vn 0.5808 -0.5813 0.5699
vn 0.5808 0.5813 -0.5699
vn -0.5808 0.5813 0.5699
vn 0.5740 0.5733 0.5847
vn -0.5740 -0.5733 0.5847
vn -0.8412 -0.0397 -0.5393
vn 0.8412 0.0396 -0.5393
vn 0.8409 -0.0396 0.5397
vn -0.8409 0.0397 0.5397
vn -0.8411 -0.0396 -0.5395
vn 0.8411 0.0396 -0.5395
vn 0.8411 -0.0396 0.5395
vn -0.8411 0.0396 0.5395
vn 0.8410 0.0396 -0.5395
vn -0.8410 0.0396 0.5395
vn -0.8412 -0.0396 -0.5393
vn 0.8412 0.0397 -0.5393
vn -0.8409 0.0396 0.5397
vn 0.8409 -0.0397 0.5397
vn -0.8413 0.0396 0.5391
vn 0.8408 0.0396 -0.5399
vn -0.8408 -0.0397 -0.5399
vn 0.8413 -0.0396 0.5391
vn -0.8410 -0.0396 -0.5395
vn 0.8410 -0.0396 0.5395
vn -0.5784 0.5700 -0.5835
vn 0.5784 -0.5700 -0.5836
vn -0.5783 -0.5812 -0.5725
vn 0.5783 0.5812 -0.5725
vn -0.5783 0.5812 0.5725
vn 0.5784 0.5700 0.5835
vn -0.5784 -0.5700 0.5835
vn 0.5783 -0.5812 0.5725
vn 0.5784 -0.5700 -0.5835
vn -0.0000 1.0000 -0.0001
vn -0.0000 1.0000 0.0001
vn -0.7028 0.0033 -0.7113
vn 0.7099 -0.0010 -0.7043
vn 0.7028 -0.0033 -0.7113
vn -0.7099 0.0010 -0.7043
vn -0.7099 -0.0010 0.7043
vn 0.7099 0.0010 0.7043
vn 0.7028 0.0033 0.7113
vn -0.7028 -0.0033 0.7113
vn -0.0000 -1.0000 0.0001
vn -0.0000 -1.0000 -0.0001
vn -0.0003 -0.0014 -1.0000
vn 0.0003 0.0014 -1.0000
vn -0.0003 -0.0019 -1.0000
vn -0.7091 -0.7051 0.0031
vn 0.7032 -0.7110 -0.0058
vn 0.7091 -0.7051 -0.0031
vn 0.0003 0.0019 -1.0000
vn 0.7091 0.7051 0.0031
vn 0.0003 -0.0014 1.0000
vn -0.0003 0.0014 1.0000
vn 0.0003 -0.0019 1.0000
vn -0.7032 -0.7110 0.0058
vn -0.0003 0.0019 1.0000
vn -0.7091 0.7051 -0.0031
vn 0.7032 0.7110 0.0058
vn -0.7032 0.7110 -0.0058
vn 0.0884 -0.5655 0.8200
vn -0.7930 -0.5315 -0.2976
vn 0.6155 -0.5723 -0.5419
vn 0.6424 0.5655 -0.5172
vn 0.0520 0.5723 0.8184
vn -0.7713 0.5315 -0.3503
vn -0.7713 0.5315 -0.3502
vn 0.6155 -0.5723 -0.5418
vn 0.5784 0.5782 -0.5755
vn 0.5760 0.5768 0.5792
vn 0.5784 -0.5782 0.5755
vn -0.5760 -0.5768 0.5792
vn -0.5784 0.5782 0.5755
vn 0.5760 -0.5768 -0.5792
vn -0.5784 -0.5782 -0.5755
vn -0.5760 0.5768 -0.5792
vn 0.6031 -0.7894 0.1143
vn 0.9990 -0.0440 0.0044
vn 0.6417 0.7669 -0.0050
vn -0.2588 0.9659 -0.0000
vn -0.9392 0.3433 0.0050
vn -0.8432 -0.5376 -0.0044
vn -0.1275 -0.9852 -0.1143
vn -0.5926 0.8053 -0.0189
vn 0.5926 -0.8053 -0.0189
vn -0.5926 -0.8053 0.0189
vn 0.5926 0.8053 0.0189
vn -0.5724 0.5735 -0.5860
vn 0.5724 -0.5735 -0.5860
vn -0.5864 -0.5849 -0.5604
vn 0.5864 -0.5849 0.5604
vn 0.5864 0.5849 -0.5604
vn -0.5864 0.5849 0.5604
vn 0.5724 0.5735 0.5860
vn -0.5724 -0.5735 0.5860
vn -0.5784 0.5779 0.5757
vn 0.5762 0.5772 0.5787
vn 0.5784 0.5779 -0.5757
vn -0.5762 -0.5772 0.5787
vn -0.5784 -0.5779 -0.5757
vn -0.5762 0.5772 -0.5787
vn 0.5784 -0.5779 0.5757
vn 0.5762 -0.5772 -0.5787
vn 0.0875 -0.5683 0.8181
vn -0.7962 -0.5261 -0.2987
vn 0.6162 -0.5691 -0.5445
vn 0.6404 0.5683 -0.5166
vn 0.0506 0.5691 0.8207
vn -0.7743 0.5261 -0.3517
vn -0.5764 0.5750 -0.5806
vn 0.5764 -0.5750 -0.5806
vn -0.5787 -0.5793 -0.5741
vn 0.5787 0.5793 -0.5741
vn -0.5787 0.5793 0.5741
vn 0.5764 0.5750 0.5806
vn -0.5764 -0.5750 0.5806
vn 0.5787 -0.5793 0.5741
vn 0.5765 0.5742 0.5813
vn -0.5765 -0.5742 0.5813
vn 0.5789 -0.5796 0.5736
vn -0.5789 0.5796 0.5736
vn 0.5789 0.5796 -0.5736
vn -0.5789 -0.5796 -0.5736
vn -0.5765 0.5742 -0.5813
vn 0.5765 -0.5742 -0.5813
vn -0.2624 -0.6822 -0.6825
vn -0.7069 -0.7067 0.0286
vn 0.2624 -0.6822 0.6825
vn 0.7069 -0.7067 -0.0286
vn -0.7072 0.7070 0.0051
vn 0.7069 0.7067 0.0286
vn 0.7072 -0.7070 0.0051
vn -0.7069 0.7067 -0.0286
vn -0.7073 -0.7069 -0.0001
vn -0.7073 -0.7069 -0.0002
vn -0.7072 -0.7070 -0.0000
vn 0.7072 0.7070 -0.0051
vn 0.0101 0.0263 -0.9996
vn 0.0748 -0.9971 0.0148
vn 0.0312 0.9995 -0.0062
vn -0.0000 0.0056 1.0000
vn -0.7074 -0.7068 -0.0002
vn -0.0317 0.9995 0.0063
vn -0.0000 0.0047 -1.0000
vn -0.0101 0.0263 0.9996
vn -0.0748 -0.9971 -0.0148
vn -0.0000 0.9998 -0.0176
vn -0.0000 -0.9998 -0.0176
vn -0.0000 0.9998 0.0176
vn -0.0000 -0.9998 0.0176
vn -0.9443 0.1041 -0.3122
vn -0.9473 0.1433 -0.2865
vn -0.9289 0.1656 -0.3312
vn 0.0003 0.9487 -0.3162
vn 0.0003 0.9285 -0.3714
vn -0.9021 0.4094 -0.1365
vn -0.9443 0.3123 -0.1041
vn -0.9015 0.4019 -0.1608
vn -0.7070 -0.0000 0.7072
vn -0.9138 -0.4061 -0.0000
vn 0.7070 -0.0000 -0.7072
vn 0.9138 -0.4061 -0.0000
vn 0.8813 -0.0000 -0.4726
vn -0.9997 -0.0258 0.0016
vn 0.0124 0.0003 0.9999
vn 0.0125 -0.0005 0.9999
vn 0.0126 -0.0039 0.9999
vn 0.0130 -0.0130 0.9998
vn -0.8813 -0.0000 0.4726
vn -0.0110 -0.0110 -0.9999
vn -0.9999 0.0002 0.0154
vn -0.4149 -0.0107 -0.9098
vt 0.440486 0.808536
vt 0.440486 0.894094
vt 0.426736 0.894095
vt 0.426736 0.808537
vt 0.221298 0.267300
vt 0.221641 0.267299
vt 0.221641 0.267643
vt 0.010415 0.267299
vt 0.010759 0.267300
vt 0.010415 0.267643
vt 0.221641 0.261188
vt 0.221641 0.261600
vt 0.221298 0.261531
vt 0.010759 0.493804
vt 0.010415 0.493803
vt 0.010415 0.493460
vt 0.221641 0.493803
vt 0.221298 0.493804
vt 0.221641 0.493460
vt 0.010415 0.499915
vt 0.010416 0.499504
vt 0.010759 0.499572
vt 0.453354 0.499711
vt 0.453353 0.500054
vt 0.453010 0.499711
vt 0.453507 0.261327
vt 0.453507 0.261739
vt 0.453163 0.261670
vt 0.221641 0.499572
vt 0.221641 0.499915
vt 0.221298 0.499572
vt 0.242128 0.499918
vt 0.242128 0.499507
vt 0.242472 0.499575
vt 0.010263 0.261188
vt 0.010416 0.261532
vt 0.004531 0.261401
vt 0.242281 0.261535
vt 0.242281 0.261192
vt 0.242624 0.261535
vt 0.467889 0.501063
vt 0.678434 0.500883
vt 0.678446 0.501238
vt 0.678440 0.727208
vt 0.467895 0.727388
vt 0.467883 0.727033
vt 0.930176 0.487687
vt 0.934254 0.487339
vt 0.934077 0.487689
vt 0.921568 0.261188
vt 0.917489 0.261538
vt 0.917666 0.261189
vt 0.453164 0.494219
vt 0.696503 0.478681
vt 0.696319 0.491678
vt 0.696311 0.478685
vt 0.221641 0.267115
vt 0.010759 0.261532
vt 0.010415 0.267109
vt 0.905390 0.506929
vt 0.905050 0.712862
vt 0.904982 0.506669
vt 0.891640 0.506951
vt 0.892054 0.712883
vt 0.891640 0.712474
vt 0.242261 0.494051
vt 0.453014 0.493942
vt 0.221641 0.493993
vt 0.242471 0.267027
vt 0.831905 0.478677
vt 0.831863 0.491676
vt 0.831694 0.478491
vt 0.010415 0.493987
vt 0.453343 0.267214
vt 0.242621 0.267303
vt 0.872609 0.473411
vt 0.872950 0.266986
vt 0.873018 0.473818
vt 0.886359 0.267271
vt 0.886014 0.473836
vt 0.885946 0.267004
vt 0.459206 0.499903
vt 0.459208 0.261674
vt 0.227525 0.499702
vt 0.227468 0.261363
vt 0.236429 0.261343
vt 0.236427 0.499571
vt 0.004588 0.499740
vt 0.458854 0.920693
vt 0.458652 0.905075
vt 0.459125 0.905338
vt 0.790016 0.975026
vt 0.789934 0.959481
vt 0.790054 0.959238
vt 0.658436 0.962366
vt 0.657951 0.946828
vt 0.658696 0.946828
vt 0.815420 0.977420
vt 0.815202 0.961802
vt 0.815691 0.962065
vt 0.145671 0.973225
vt 0.145128 0.957739
vt 0.145722 0.957551
vt 0.919357 0.004529
vt 0.912301 0.252453
vt 0.912300 0.004438
vt 0.919371 0.252368
vt 0.937543 0.501132
vt 0.937198 0.742983
vt 0.930245 0.742984
vt 0.261188 0.252462
vt 0.508777 0.004422
vt 0.508777 0.252418
vt 0.252373 0.252325
vt 0.004530 0.252358
vt 0.004647 0.004422
vt 0.920962 0.500883
vt 0.914343 0.743481
vt 0.914009 0.500883
vt 0.930485 0.501126
vt 0.252353 0.004526
vt 0.928328 0.251893
vt 0.935506 0.004304
vt 0.935506 0.251892
vt 0.928434 0.004304
vt 0.921400 0.743487
vt 0.261188 0.004466
vt 0.152733 0.508686
vt 0.004318 0.739454
vt 0.004311 0.508775
vt 0.152738 0.739364
vt 0.839167 0.261474
vt 0.838803 0.469696
vt 0.690390 0.469731
vt 0.468138 0.492047
vt 0.681527 0.261416
vt 0.681569 0.492018
vt 0.731029 0.004532
vt 0.731071 0.235134
vt 0.517640 0.235164
vt 0.687603 0.710030
vt 0.835829 0.501175
vt 0.836016 0.710039
vt 0.236360 0.738956
vt 0.384792 0.508674
vt 0.384792 0.738964
vt 0.517599 0.004562
vt 0.236360 0.508666
vt 0.690586 0.261463
vt 0.687248 0.501121
vt 0.468096 0.261446
vt 0.832164 0.719050
vt 0.832164 0.924573
vt 0.828267 0.924914
vt 0.917668 0.487536
vt 0.921568 0.261531
vt 0.828339 0.924954
vt 0.827924 0.719057
vt 0.934170 0.261442
vt 0.930176 0.487344
vt 0.930176 0.261531
vt 0.815076 0.925137
vt 0.815076 0.718977
vt 0.818973 0.718647
vt 0.818901 0.718684
vt 0.819316 0.925143
vt 0.921568 0.487347
vt 0.690733 0.478343
vt 0.908715 0.261580
vt 0.908715 0.467739
vt 0.895308 0.467721
vt 0.690392 0.491681
vt 0.690390 0.478686
vt 0.763992 0.478894
vt 0.769917 0.492081
vt 0.764332 0.491882
vt 0.895368 0.261251
vt 0.908372 0.261243
vt 0.891901 0.718519
vt 0.891640 0.506616
vt 0.844624 0.501227
vt 0.857962 0.500884
vt 0.858373 0.501295
vt 0.749800 0.478344
vt 0.755378 0.478686
vt 0.755384 0.491678
vt 0.793060 0.924545
vt 0.793060 0.719022
vt 0.806468 0.719001
vt 0.749457 0.491682
vt 0.749457 0.478687
vt 0.705265 0.478741
vt 0.710879 0.492088
vt 0.705301 0.491746
vt 0.806468 0.924524
vt 0.793404 0.924879
vt 0.711220 0.478750
vt 0.711223 0.491745
vt 0.886098 0.261298
vt 0.859648 0.242683
vt 0.846310 0.243027
vt 0.845899 0.242616
vt 0.859648 0.004715
vt 0.845899 0.004648
vt 0.903501 0.004517
vt 0.890280 0.242921
vt 0.890336 0.004381
vt 0.903435 0.242853
vt 0.905050 0.718642
vt 0.872867 0.479473
vt 0.886014 0.479634
vt 0.868450 0.242816
vt 0.881669 0.004410
vt 0.881614 0.242954
vt 0.868515 0.004477
vt 0.872950 0.261188
vt 0.905132 0.500978
vt 0.891986 0.506541
vt 0.891986 0.500910
vt 0.418024 0.508934
vt 0.393503 0.722299
vt 0.393472 0.508965
vt 0.867007 0.714063
vt 0.883016 0.500916
vt 0.883019 0.714062
vt 0.867004 0.500917
vt 0.830257 0.227933
vt 0.814525 0.251697
vt 0.814367 0.227908
vt 0.805400 0.227773
vt 0.805624 0.251631
vt 0.789734 0.251607
vt 0.789876 0.227773
vt 0.418056 0.722267
vt 0.863934 0.261482
vt 0.848027 0.474786
vt 0.848045 0.261454
vt 0.863918 0.474815
vt 0.830049 0.251697
vt 0.451361 0.508934
vt 0.426840 0.722298
vt 0.426808 0.508965
vt 0.451392 0.722267
vt 0.654973 0.937656
vt 0.658106 0.840696
vt 0.658106 0.937697
vt 0.687287 0.718879
vt 0.784234 0.718868
vt 0.784334 0.821431
vt 0.769707 0.830730
vt 0.772905 0.933298
vt 0.769707 0.933171
vt 0.772941 0.830614
vt 0.654973 0.840655
vt 0.619005 0.840688
vt 0.622197 0.840822
vt 0.622196 0.943263
vt 0.618968 0.943371
vt 0.634026 0.840694
vt 0.630805 0.937657
vt 0.630805 0.840656
vt 0.687271 0.821557
vt 0.633938 0.937698
vt 0.739898 0.116174
vt 0.836618 0.219037
vt 0.739897 0.219026
vt 0.836618 0.116185
vt 0.236589 0.747808
vt 0.322566 0.843097
vt 0.236565 0.843201
vt 0.540985 0.847933
vt 0.540884 0.933873
vt 0.538132 0.933942
vt 0.322476 0.747819
vt 0.491328 0.848072
vt 0.494197 0.943246
vt 0.491328 0.943256
vt 0.549835 0.933941
vt 0.549835 0.847905
vt 0.552586 0.847836
vt 0.004316 0.748361
vt 0.089972 0.748475
vt 0.089964 0.843963
vt 0.004309 0.843852
vt 0.494188 0.847961
vt 0.503261 0.848076
vt 0.506123 0.943256
vt 0.503268 0.943362
vt 0.506123 0.848072
vt 0.552586 0.933873
vt 0.538133 0.847905
vt 0.687076 0.972090
vt 0.687475 0.886080
vt 0.687873 0.972101
vt 0.056369 0.852972
vt 0.055727 0.938765
vt 0.055166 0.852947
vt 0.873041 0.968088
vt 0.873440 0.882078
vt 0.873838 0.968099
vt 0.318832 0.852324
vt 0.318190 0.938117
vt 0.317629 0.852298
vt 0.783172 0.830656
vt 0.782530 0.916449
vt 0.781969 0.830631
vt 0.696525 0.972090
vt 0.696924 0.886080
vt 0.697322 0.972101
vt 0.237746 0.852324
vt 0.237104 0.938117
vt 0.236543 0.852299
vt 0.705975 0.972090
vt 0.706374 0.886080
vt 0.706771 0.972101
vt 0.066504 0.852972
vt 0.066463 0.938778
vt 0.065261 0.938753
vt 0.968701 0.090468
vt 0.968702 0.004453
vt 0.969499 0.004463
vt 0.969498 0.090479
vt 0.065302 0.852947
vt 0.409571 0.852318
vt 0.409530 0.938124
vt 0.408328 0.938099
vt 0.408368 0.852292
vt 0.968701 0.185400
vt 0.968702 0.099385
vt 0.969499 0.099395
vt 0.969498 0.185410
vt 0.076640 0.852972
vt 0.076599 0.938778
vt 0.075397 0.938753
vt 0.973055 0.347352
vt 0.973055 0.261337
vt 0.973852 0.261347
vt 0.973852 0.347362
vt 0.075437 0.852947
vt 0.973055 0.442284
vt 0.973852 0.356279
vt 0.973852 0.442294
vt 0.973055 0.356268
vt 0.086776 0.852972
vt 0.085533 0.938753
vt 0.085573 0.852947
vt 0.086735 0.938779
vt 0.971080 0.587048
vt 0.971081 0.501032
vt 0.971877 0.501043
vt 0.971877 0.587058
vt 0.005690 0.852972
vt 0.005649 0.938778
vt 0.004446 0.938753
vt 0.004487 0.852947
vt 0.971080 0.681979
vt 0.971877 0.595974
vt 0.971877 0.681989
vt 0.954818 0.261459
vt 0.953575 0.347240
vt 0.953615 0.261434
vt 0.954777 0.347265
vt 0.971081 0.595964
vt 0.668176 0.975143
vt 0.668973 0.889138
vt 0.668972 0.975153
vt 0.668176 0.889128
vt 0.015826 0.852972
vt 0.015785 0.938778
vt 0.014582 0.938753
vt 0.014623 0.852947
vt 0.954818 0.356391
vt 0.953575 0.442172
vt 0.953615 0.356365
vt 0.954777 0.442197
vt 0.677625 0.975143
vt 0.678422 0.889138
vt 0.678422 0.975153
vt 0.677626 0.889128
vt 0.526524 0.942979
vt 0.531302 0.972901
vt 0.526549 0.972943
vt 0.531277 0.942934
vt 0.769834 0.942391
vt 0.775536 0.942447
vt 0.775501 0.972408
vt 0.556274 0.243999
vt 0.560629 0.249363
vt 0.556274 0.249363
vt 0.263279 0.947303
vt 0.268015 0.977228
vt 0.263302 0.977272
vt 0.521740 0.249363
vt 0.517385 0.243999
vt 0.521740 0.243999
vt 0.267991 0.947259
vt 0.769791 0.972358
vt 0.560629 0.243999
vt 0.145234 0.918506
vt 0.150912 0.948508
vt 0.145192 0.948467
vt 0.150963 0.918540
vt 0.517385 0.249363
vt 0.644472 0.946804
vt 0.649250 0.976726
vt 0.644497 0.976769
vt 0.649225 0.946760
vt 0.965131 0.457395
vt 0.970834 0.457451
vt 0.970799 0.487412
vt 0.543311 0.243999
vt 0.547666 0.249363
vt 0.543311 0.249363
vt 0.547666 0.243999
vt 0.408231 0.947298
vt 0.412944 0.947253
vt 0.412968 0.977222
vt 0.965088 0.487363
vt 0.408254 0.977266
vt 0.721852 0.927124
vt 0.727581 0.927159
vt 0.727529 0.957126
vt 0.721810 0.957085
vt 0.612481 0.249363
vt 0.608126 0.249363
vt 0.608126 0.243999
vt 0.612481 0.243999
vt 0.606931 0.840688
vt 0.610123 0.840822
vt 0.610123 0.943263
vt 0.606895 0.943371
vt 0.646110 0.840694
vt 0.642889 0.937656
vt 0.642889 0.840655
vt 0.740125 0.004536
vt 0.837172 0.107089
vt 0.740109 0.107214
vt 0.646022 0.937697
vt 0.837072 0.004525
vt 0.467883 0.944907
vt 0.471016 0.847947
vt 0.471016 0.944948
vt 0.147576 0.806835
vt 0.150810 0.806720
vt 0.150774 0.909404
vt 0.467889 0.736127
vt 0.564609 0.838991
vt 0.467888 0.838980
vt 0.564609 0.736139
vt 0.467883 0.847906
vt 0.147576 0.909276
vt 0.573453 0.736232
vt 0.659209 0.831741
vt 0.573429 0.831624
vt 0.659340 0.736242
vt 0.514960 0.848076
vt 0.517822 0.848072
vt 0.517822 0.943256
vt 0.561194 0.933942
vt 0.563945 0.847836
vt 0.563945 0.933873
vt 0.529283 0.847933
vt 0.529181 0.933873
vt 0.526430 0.933942
vt 0.479624 0.848072
vt 0.482493 0.943246
vt 0.479624 0.943256
vt 0.514967 0.943362
vt 0.526430 0.847905
vt 0.331302 0.747706
vt 0.416950 0.843308
vt 0.331295 0.843197
vt 0.416958 0.747821
vt 0.561194 0.847905
vt 0.482484 0.847961
vt 0.247280 0.852311
vt 0.247841 0.938130
vt 0.246638 0.938105
vt 0.976444 0.838505
vt 0.976046 0.752485
vt 0.976843 0.752495
vt 0.978549 0.185405
vt 0.978151 0.099384
vt 0.978948 0.099395
vt 0.257416 0.852311
vt 0.257976 0.938130
vt 0.256774 0.938105
vt 0.267552 0.852312
vt 0.268112 0.938130
vt 0.266910 0.938105
vt 0.331710 0.979293
vt 0.331313 0.893273
vt 0.332109 0.893283
vt 0.277688 0.852312
vt 0.278248 0.938130
vt 0.277046 0.938105
vt 0.976444 0.933437
vt 0.976046 0.847416
vt 0.976843 0.847427
vt 0.288425 0.852324
vt 0.287181 0.938105
vt 0.287222 0.852298
vt 0.340761 0.979288
vt 0.340762 0.893273
vt 0.341559 0.893283
vt 0.341558 0.979298
vt 0.288384 0.938130
vt 0.298561 0.852324
vt 0.298520 0.938130
vt 0.297317 0.938105
vt 0.350211 0.979288
vt 0.350211 0.893273
vt 0.351008 0.893283
vt 0.351007 0.979298
vt 0.297358 0.852299
vt 0.025961 0.852972
vt 0.025920 0.938778
vt 0.024718 0.938753
vt 0.024759 0.852947
vt 0.978151 0.090468
vt 0.978948 0.004463
vt 0.978947 0.090479
vt 0.978151 0.004453
vt 0.036097 0.852972
vt 0.036056 0.938778
vt 0.034854 0.938753
vt 0.359660 0.979288
vt 0.360457 0.893283
vt 0.360457 0.979298
vt 0.359660 0.893273
vt 0.034894 0.852947
vt 0.369109 0.979288
vt 0.369906 0.893283
vt 0.369906 0.979298
vt 0.369110 0.893273
vt 0.737659 0.871732
vt 0.736415 0.957513
vt 0.736456 0.871706
vt 0.737618 0.957538
vt 0.980529 0.587048
vt 0.980530 0.501032
vt 0.981327 0.501042
vt 0.747794 0.871732
vt 0.747753 0.957538
vt 0.746551 0.957513
vt 0.746592 0.871706
vt 0.981326 0.587058
vt 0.980529 0.681979
vt 0.981327 0.595974
vt 0.981326 0.681990
vt 0.046233 0.852972
vt 0.044989 0.938753
vt 0.045030 0.852947
vt 0.046192 0.938778
vt 0.980530 0.595964
vt 0.982504 0.347352
vt 0.983302 0.261347
vt 0.983301 0.347362
vt 0.982505 0.261337
vt 0.308696 0.852324
vt 0.308655 0.938130
vt 0.307453 0.938105
vt 0.307493 0.852298
vt 0.236406 0.947303
vt 0.241142 0.977228
vt 0.236429 0.977272
vt 0.534703 0.249363
vt 0.530348 0.243999
vt 0.534703 0.243999
vt 0.241118 0.947259
vt 0.957221 0.942467
vt 0.962888 0.972483
vt 0.957177 0.972433
vt 0.217809 0.758049
vt 0.223538 0.758083
vt 0.223486 0.788051
vt 0.217767 0.788009
vt 0.530348 0.249363
vt 0.962923 0.942523
vt 0.630898 0.946804
vt 0.635676 0.976726
vt 0.630924 0.976769
vt 0.635651 0.946760
vt 0.595163 0.243999
vt 0.599518 0.249363
vt 0.595163 0.249363
vt 0.599518 0.243999
vt 0.961720 0.710538
vt 0.967423 0.710594
vt 0.967388 0.740555
vt 0.961677 0.740506
vt 0.586555 0.249363
vt 0.582200 0.244000
vt 0.586555 0.244000
vt 0.547714 0.942979
vt 0.552492 0.972901
vt 0.547740 0.972944
vt 0.582200 0.249363
vt 0.569237 0.243999
vt 0.573592 0.243999
vt 0.573592 0.249363
vt 0.249842 0.947303
vt 0.254555 0.947259
vt 0.254579 0.977228
vt 0.249865 0.977272
vt 0.959321 0.214655
vt 0.965050 0.214689
vt 0.964998 0.244657
vt 0.569237 0.249363
vt 0.552467 0.942935
vt 0.959278 0.244616
vt 0.185966 0.508772
vt 0.161471 0.748911
vt 0.161429 0.508813
vt 0.950574 0.004590
vt 0.950566 0.244685
vt 0.944149 0.244647
vt 0.944157 0.004552
vt 0.010756 0.947809
vt 0.010656 0.971550
vt 0.004384 0.971550
vt 0.321762 0.946984
vt 0.315456 0.970794
vt 0.315490 0.946984
vt 0.321874 0.970831
vt 0.186008 0.748870
vt 0.946502 0.740803
vt 0.952975 0.500913
vt 0.952976 0.740802
vt 0.219312 0.508772
vt 0.194818 0.748911
vt 0.194776 0.508813
vt 0.946502 0.500914
vt 0.004338 0.947772
vt 0.219354 0.748870
vt 0.114390 0.806785
vt 0.098669 0.894046
vt 0.098692 0.806758
vt 0.454787 0.808922
vt 0.454805 0.895997
vt 0.449130 0.896001
vt 0.114367 0.894074
vt 0.867169 0.722840
vt 0.872432 0.738562
vt 0.867182 0.738648
vt 0.138885 0.806786
vt 0.123165 0.894047
vt 0.123188 0.806756
vt 0.449112 0.808926
vt 0.138862 0.894076
vt 0.606755 0.952393
vt 0.612010 0.968128
vt 0.606729 0.968100
vt 0.721971 0.917850
vt 0.721954 0.830774
vt 0.727629 0.830770
vt 0.611989 0.952320
vt 0.727647 0.917846
vt 0.872466 0.722855
vt 0.659929 0.246957
vt 0.661732 0.244165
vt 0.663383 0.247080
vt 0.564236 0.973636
vt 0.561779 0.973884
vt 0.561602 0.943004
vt 0.564331 0.942817
vt 0.033961 0.978671
vt 0.031565 0.978834
vt 0.031668 0.947975
vt 0.976817 0.245527
vt 0.973930 0.245350
vt 0.974087 0.214603
vt 0.976477 0.214528
vt 0.624933 0.245630
vt 0.623332 0.248408
vt 0.621480 0.245507
vt 0.034113 0.947976
vt 0.045912 0.978671
vt 0.043620 0.947975
vt 0.046064 0.947976
vt 0.043516 0.978834
vt 0.647106 0.246957
vt 0.648909 0.244165
vt 0.650560 0.247080
vt 0.306108 0.978136
vt 0.303221 0.977960
vt 0.303378 0.947213
vt 0.305767 0.947138
vt 0.637757 0.245630
vt 0.636155 0.248408
vt 0.634302 0.245507
vt 0.022447 0.978610
vt 0.019813 0.947978
vt 0.022542 0.947791
vt 0.019991 0.978858
vt 0.739892 0.227796
vt 0.756188 0.227773
vt 0.756188 0.251817
vt 0.573433 0.872658
vt 0.597841 0.840760
vt 0.597840 0.872687
vt 0.573434 0.840732
vt 0.348019 0.852309
vt 0.348024 0.884221
vt 0.331310 0.884253
vt 0.739892 0.251840
vt 0.373377 0.852310
vt 0.373382 0.884221
vt 0.356667 0.884253
vt 0.356662 0.852342
vt 0.331305 0.852341
vt 0.764796 0.227773
vt 0.781041 0.227799
vt 0.781041 0.251842
vt 0.764796 0.251817
vt 0.760890 0.830668
vt 0.736481 0.862568
vt 0.736482 0.830642
vt 0.760889 0.862594
vt 0.796033 0.950379
vt 0.790998 0.946352
vt 0.790856 0.938006
vt 0.798259 0.933624
vt 0.805533 0.938130
vt 0.805334 0.946420
vt 0.800596 0.950487
vt 0.384993 0.943997
vt 0.382645 0.937991
vt 0.386696 0.930694
vt 0.395298 0.930600
vt 0.399517 0.938091
vt 0.395153 0.945218
vt 0.388892 0.946374
vt 0.778658 0.478570
vt 0.781620 0.491860
vt 0.778725 0.491953
vt 0.781553 0.478477
vt 0.790491 0.478571
vt 0.793454 0.491860
vt 0.790558 0.491953
vt 0.793386 0.478477
vt 0.395957 0.731298
vt 0.393514 0.734104
vt 0.393475 0.731254
vt 0.494304 0.974043
vt 0.491453 0.974090
vt 0.491408 0.952522
vt 0.395997 0.734150
vt 0.467883 0.975131
vt 0.470407 0.954108
vt 0.470453 0.975135
vt 0.978627 0.710640
vt 0.978674 0.731603
vt 0.976103 0.731607
vt 0.514811 0.952522
vt 0.517707 0.974043
vt 0.514856 0.974089
vt 0.517662 0.952475
vt 0.731242 0.244000
vt 0.731242 0.246327
vt 0.729207 0.246327
vt 0.729207 0.243999
vt 0.467959 0.954051
vt 0.976178 0.710591
vt 0.494258 0.952476
vt 0.720483 0.244124
vt 0.718040 0.246929
vt 0.718001 0.244079
vt 0.720522 0.246975
vt 0.396310 0.955364
vt 0.396357 0.976328
vt 0.393786 0.976332
vt 0.503112 0.952522
vt 0.506008 0.974043
vt 0.503157 0.974090
vt 0.406716 0.731174
vt 0.404681 0.733502
vt 0.404681 0.731174
vt 0.406716 0.733502
vt 0.382607 0.976387
vt 0.382683 0.955308
vt 0.385132 0.955364
vt 0.505962 0.952475
vt 0.393861 0.955315
vt 0.482600 0.974043
vt 0.479704 0.952522
vt 0.482555 0.952476
vt 0.479749 0.974089
vt 0.385178 0.976391
vt 0.098795 0.748497
vt 0.146076 0.748441
vt 0.146122 0.797612
vt 0.713327 0.830386
vt 0.713327 0.877318
vt 0.687054 0.877317
vt 0.222531 0.816246
vt 0.196249 0.864236
vt 0.196249 0.816345
vt 0.222540 0.864194
vt 0.098840 0.797668
vt 0.161349 0.864336
vt 0.161352 0.816299
vt 0.187635 0.816278
vt 0.870911 0.825752
vt 0.870906 0.873087
vt 0.844625 0.873134
vt 0.187641 0.864372
vt 0.687054 0.830384
vt 0.844629 0.825797
vt 0.208886 0.807154
vt 0.161604 0.807210
vt 0.161559 0.758038
vt 0.208840 0.757982
vt 0.706812 0.246082
vt 0.707992 0.244177
vt 0.709120 0.246095
vt 0.896700 0.892252
vt 0.895080 0.892499
vt 0.894972 0.748560
vt 0.896794 0.748375
vt 0.937603 0.896430
vt 0.936100 0.752678
vt 0.937706 0.752678
vt 0.935996 0.896595
vt 0.670314 0.880202
vt 0.668342 0.880025
vt 0.668499 0.736225
vt 0.674887 0.245116
vt 0.673909 0.247002
vt 0.672579 0.245104
vt 0.670064 0.736148
vt 0.695426 0.246082
vt 0.696606 0.244177
vt 0.697734 0.246095
vt 0.915983 0.896371
vt 0.914362 0.896618
vt 0.914254 0.752679
vt 0.916077 0.752494
vt 0.926706 0.896430
vt 0.925099 0.896595
vt 0.925204 0.752678
vt 0.926809 0.752678
vt 0.885575 0.892423
vt 0.883760 0.748446
vt 0.885325 0.748369
vt 0.883603 0.892246
vt 0.686273 0.245116
vt 0.685295 0.247002
vt 0.683966 0.245104
vt 0.426872 0.731308
vt 0.456783 0.799794
vt 0.426901 0.799859
vt 0.456754 0.731243
vt 0.395216 0.852188
vt 0.399466 0.852221
vt 0.399435 0.920661
vt 0.294345 0.947262
vt 0.290048 0.977265
vt 0.290014 0.947306
vt 0.294379 0.977221
vt 0.844759 0.748351
vt 0.874642 0.748283
vt 0.874671 0.816831
vt 0.395180 0.920628
vt 0.844789 0.816899
vt 0.281280 0.947262
vt 0.276983 0.977265
vt 0.276949 0.947306
vt 0.281314 0.977221
vt 0.382148 0.852194
vt 0.386379 0.920655
vt 0.382115 0.920635
vt 0.386416 0.852214
vt 0.943222 0.468874
vt 0.956202 0.487411
vt 0.943227 0.487448
vt 0.956197 0.468836
vt 0.066748 0.947641
vt 0.072824 0.947632
vt 0.072824 0.965908
vt 0.726012 0.478506
vt 0.726018 0.491581
vt 0.719854 0.491543
vt 0.081432 0.947632
vt 0.087489 0.965918
vt 0.081432 0.965908
vt 0.087489 0.947642
vt 0.719848 0.478468
vt 0.740825 0.478506
vt 0.734668 0.491543
vt 0.734662 0.478468
vt 0.815270 0.934297
vt 0.828249 0.952836
vt 0.815275 0.952872
vt 0.828245 0.934260
vt 0.740831 0.491581
vt 0.066748 0.965917
vt 0.943028 0.414511
vt 0.943611 0.414324
vt 0.943579 0.429997
vt 0.930176 0.261188
vt 0.921568 0.487690
vt 0.696503 0.491749
vt 0.908373 0.261205
vt 0.905390 0.712452
vt 0.705111 0.491746
vt 0.831905 0.491745
vt 0.872609 0.267252
vt 0.886359 0.473430
vt 0.943390 0.438972
vt 0.943983 0.439162
vt 0.943239 0.454518
vt 0.979514 0.457126
vt 0.980018 0.457124
vt 0.979619 0.472481
vt 0.881414 0.723047
vt 0.881714 0.722781
vt 0.881356 0.738403
vt 0.721745 0.966015
vt 0.722249 0.966014
vt 0.721850 0.981371
vt 0.621068 0.952555
vt 0.621368 0.952289
vt 0.621010 0.967910
vt 0.833524 0.961723
vt 0.834027 0.961722
vt 0.833629 0.977079
vt 0.828264 0.718647
vt 0.827924 0.924579
vt 0.818975 0.925409
vt 0.819316 0.718983
vt 0.908302 0.468037
vt 0.690803 0.492092
vt 0.844629 0.739197
vt 0.844967 0.500883
vt 0.858035 0.739609
vt 0.845040 0.739609
vt 0.858378 0.739266
vt 0.769917 0.478739
vt 0.769496 0.478338
vt 0.793473 0.718647
vt 0.749868 0.492093
vt 0.710809 0.478339
vt 0.859305 0.243026
vt 0.859237 0.004304
s 1
usemtl factory_002_baked
f 1/1/1 2/2/1 3/3/1
f 1/1/1 3/3/1 4/4/1
f 28/5/2 30/6/2 27/7/2
f 31/8/3 33/9/3 34/10/3
f 36/11/4 38/12/4 35/13/4
f 43/14/3 45/15/3 42/16/3
f 46/17/2 48/18/2 49/19/2
f 54/20/5 56/21/5 53/22/5
f 59/23/6 60/24/6 61/25/6
f 63/26/7 65/27/7 62/28/7
f 66/29/8 67/30/8 68/31/8
f 70/32/9 72/33/9 69/34/9
f 74/35/10 76/36/11 77/37/12
f 78/38/13 79/39/13 80/40/13
f 23/41/14 21/42/15 22/43/16
f 26/44/17 24/45/18 25/46/19
f 46/47/20 25/48/20 24/49/20
f 28/5/2 49/19/2 48/18/2
f 31/50/21 22/51/21 21/52/21
f 43/14/3 34/10/3 33/9/3
f 40/53/22 59/23/23 61/25/23
f 41/54/24 29/55/24 40/56/24
f 35/13/25 29/57/25 28/5/25
f 75/58/26 32/59/26 76/36/26
f 69/60/27 60/61/27 70/62/27
f 75/63/28 36/64/28 35/65/28
f 39/66/29 41/67/30 40/53/31
f 68/31/32 47/68/32 66/29/32
f 50/69/33 78/38/34 80/40/34
f 51/70/35 44/71/35 50/72/35
f 53/22/36 44/73/36 43/14/36
f 52/74/37 51/75/38 50/69/39
f 62/76/40 79/77/40 63/78/40
f 53/79/41 67/80/41 54/81/41
f 57/82/42 65/27/43 64/83/44
f 58/84/45 38/12/46 37/85/47
f 73/86/48 72/33/49 71/87/50
f 77/37/12 56/21/51 55/88/52
f 285/89/53 286/90/54 284/91/55
f 295/92/56 294/93/56 293/94/56
f 295/95/56 293/96/56 294/97/56
f 298/98/56 297/99/56 296/100/56
f 298/101/56 296/102/56 297/103/56
f 5/104/57 6/105/58 7/106/59
f 5/104/57 11/107/60 6/105/58
f 10/108/61 5/109/57 7/110/59
f 10/111/61 11/112/60 5/113/57
f 7/114/59 6/115/58 12/116/62
f 11/117/60 12/118/62 6/119/58
f 10/108/61 7/110/59 9/120/63
f 7/114/59 12/116/62 9/121/63
f 8/122/64 9/123/63 12/124/62
f 8/122/64 10/125/61 9/123/63
f 11/117/60 8/126/64 12/118/62
f 10/111/61 8/127/64 11/112/60
f 13/128/65 14/129/66 17/130/67
f 13/128/65 18/131/68 14/129/66
f 20/132/69 13/133/65 17/134/67
f 20/135/69 18/136/68 13/137/65
f 17/138/67 14/139/66 16/140/70
f 18/141/68 16/142/70 14/143/66
f 19/144/71 15/145/72 16/146/70
f 17/138/67 16/140/70 15/147/72
f 19/144/71 20/148/69 15/145/72
f 20/132/69 17/134/67 15/149/72
f 18/141/68 19/150/71 16/142/70
f 20/135/69 19/151/71 18/136/68
f 22/43/73 25/46/74 23/41/75
f 21/152/15 23/153/14 30/154/76
f 22/43/73 26/44/77 25/46/74
f 26/155/77 22/51/73 34/156/78
f 30/154/79 29/157/79 33/158/79
f 23/159/75 49/160/80 27/161/81
f 23/159/75 25/48/74 49/160/80
f 24/162/18 26/163/17 45/164/82
f 45/164/83 44/165/83 48/166/83
f 26/155/77 34/156/78 42/167/84
f 35/13/85 28/5/85 33/9/85
f 28/5/85 43/14/85 33/9/85
f 59/168/86 40/56/87 29/55/88
f 33/169/89 28/170/89 41/171/30
f 36/172/1 60/173/1 29/55/88
f 28/5/85 48/18/85 43/14/85
f 39/174/90 76/175/90 32/176/91
f 35/13/85 33/9/85 75/58/85
f 41/171/30 39/177/29 31/178/92
f 60/61/93 37/179/93 36/64/93
f 70/62/94 60/61/94 36/64/94
f 70/62/95 75/63/95 76/180/95
f 59/181/96 36/182/96 38/183/96
f 69/34/97 39/66/98 40/53/22
f 69/34/97 40/53/22 61/25/23
f 48/18/85 53/22/85 43/14/85
f 78/184/99 50/185/100 44/186/101
f 48/187/94 43/188/94 51/189/38
f 54/190/96 79/191/96 44/186/101
f 52/192/102 66/193/103 47/194/104
f 48/18/85 68/31/85 53/22/85
f 51/189/38 52/195/37 46/196/105
f 50/69/33 80/40/34 62/28/106
f 50/69/33 62/28/106 52/74/107
f 52/192/102 63/197/108 67/198/109
f 79/77/110 55/199/110 54/81/110
f 63/78/89 79/77/89 54/81/89
f 63/78/89 54/81/89 67/80/89
f 78/200/1 54/201/1 56/202/1
f 72/203/1 56/202/1 76/204/1
f 57/205/42 58/206/45 37/207/47
f 57/205/42 64/208/44 58/206/45
f 60/61/111 57/209/42 37/179/47
f 64/210/44 67/80/112 58/211/45
f 64/210/113 63/78/113 67/80/113
f 73/212/48 77/213/12 55/214/52
f 73/212/48 71/215/50 77/213/12
f 79/77/114 73/216/48 55/199/52
f 71/217/50 74/218/10 77/219/12
f 84/220/115 82/221/116 81/222/117
f 87/223/118 81/224/117 82/225/116
f 87/223/118 86/226/119 81/224/117
f 86/227/119 84/228/115 81/229/117
f 88/230/120 87/231/118 82/232/116
f 88/230/120 82/232/116 85/233/121
f 84/220/115 85/234/121 82/221/116
f 83/235/122 85/236/121 84/237/115
f 83/235/122 88/238/120 85/236/121
f 86/227/119 83/239/122 84/228/115
f 86/240/119 88/241/120 83/242/122
f 86/240/119 87/243/118 88/241/120
f 93/244/123 89/245/124 94/246/125
f 94/247/125 89/248/124 96/249/126
f 89/250/124 92/251/127 96/252/126
f 89/250/124 91/253/128 92/251/127
f 93/244/123 91/254/128 89/245/124
f 93/255/123 94/256/125 90/257/129
f 93/255/123 90/257/129 95/258/130
f 90/259/129 92/260/127 95/261/130
f 94/247/125 96/249/126 90/262/129
f 90/259/129 96/263/126 92/260/127
f 91/264/128 95/265/130 92/266/127
f 91/264/128 93/267/123 95/265/130
f 100/268/131 97/269/132 101/270/133
f 101/271/133 97/272/132 103/273/134
f 100/268/131 102/274/135 97/269/132
f 102/275/135 103/276/134 97/277/132
f 99/278/136 98/279/137 102/280/135
f 98/281/137 99/282/136 104/283/138
f 98/281/137 104/283/138 103/284/134
f 102/275/135 98/285/137 103/276/134
f 99/286/136 101/287/133 104/288/138
f 99/286/136 100/289/131 101/287/133
f 99/278/136 102/280/135 100/290/131
f 101/271/133 103/273/134 104/291/138
f 107/292/56 106/293/56 105/294/56
f 105/295/56 106/296/56 107/297/56
f 109/298/1 108/299/1 110/300/1
f 110/301/1 108/302/1 109/303/1
f 113/304/56 111/305/56 112/306/56
f 112/307/56 111/308/56 113/309/56
f 115/310/1 114/311/1 116/312/1
f 116/313/1 114/314/1 115/315/1
f 120/316/139 117/317/140 119/318/141
f 118/319/142 119/320/141 117/321/140
f 118/319/142 117/321/140 120/322/139
f 120/316/139 119/318/141 118/323/142
f 124/324/143 121/325/144 123/326/145
f 124/324/143 123/326/145 122/327/146
f 122/328/146 123/329/145 121/330/144
f 122/328/146 121/330/144 124/331/143
f 127/332/143 125/333/147 128/334/145
f 126/335/148 128/336/145 125/337/147
f 126/335/148 125/337/147 127/338/143
f 127/332/143 128/334/145 126/339/148
f 131/340/142 129/341/140 130/342/149
f 131/340/142 132/343/141 129/341/140
f 130/344/149 132/345/141 131/346/142
f 130/344/149 129/347/140 132/345/141
f 134/348/142 135/349/141 133/350/150
f 134/348/142 133/350/150 136/351/149
f 136/352/149 133/353/150 135/354/141
f 136/352/149 135/354/141 134/355/142
f 138/356/151 140/357/140 137/358/149
f 137/359/149 139/360/152 138/361/151
f 137/359/149 140/362/140 139/360/152
f 138/356/151 139/363/152 140/357/140
f 144/364/153 142/365/154 141/366/155
f 144/364/153 143/367/156 142/365/154
f 141/368/155 142/369/154 143/370/156
f 141/368/155 143/370/156 144/371/153
f 145/372/157 148/373/158 147/374/148
f 145/372/157 146/375/147 148/373/158
f 147/376/148 146/377/147 145/378/157
f 147/376/148 148/379/158 146/377/147
f 149/380/159 155/381/160 154/382/161
f 149/380/159 152/383/162 155/381/160
f 151/384/163 149/385/159 154/386/161
f 151/387/163 152/388/162 149/389/159
f 153/390/164 150/391/165 156/392/166
f 154/393/161 156/394/166 150/395/165
f 153/390/164 151/396/163 150/391/165
f 151/384/163 154/386/161 150/397/165
f 151/387/163 153/398/164 152/388/162
f 152/399/162 156/400/166 155/401/160
f 152/399/162 153/402/164 156/400/166
f 154/393/161 155/403/160 156/394/166
f 157/404/159 161/405/167 162/406/161
f 157/404/159 160/407/162 161/405/167
f 158/408/163 157/409/159 162/410/161
f 158/411/163 160/412/162 157/413/159
f 158/411/163 159/414/164 160/412/162
f 159/415/164 158/416/163 164/417/165
f 158/408/163 162/410/161 164/418/165
f 159/415/164 164/417/165 163/419/166
f 160/420/162 159/421/164 163/422/166
f 160/420/162 163/422/166 161/423/167
f 162/424/161 161/425/167 163/426/166
f 162/424/161 163/426/166 164/427/165
f 170/428/123 166/429/125 165/430/129
f 170/428/123 165/430/129 172/431/130
f 165/432/129 168/433/127 172/434/130
f 166/435/125 169/436/126 165/437/129
f 165/432/129 169/438/126 168/433/127
f 166/435/125 171/439/124 169/436/126
f 170/440/123 171/441/124 166/442/125
f 171/443/124 167/444/128 168/445/127
f 167/446/128 172/447/130 168/448/127
f 167/446/128 170/449/123 172/447/130
f 170/440/123 167/450/128 171/441/124
f 171/443/124 168/445/127 169/451/126
f 173/452/131 174/453/132 175/454/133
f 173/452/131 179/455/135 174/453/132
f 177/456/136 173/457/131 175/458/133
f 177/459/136 179/460/135 173/461/131
f 175/462/133 174/463/132 180/464/134
f 179/465/135 180/466/134 174/467/132
f 177/456/136 175/458/133 176/468/138
f 175/462/133 180/464/134 176/469/138
f 178/470/137 176/471/138 180/472/134
f 178/470/137 177/473/136 176/471/138
f 177/459/136 178/474/137 179/460/135
f 179/465/135 178/475/137 180/466/134
f 181/476/56 182/477/56 183/478/56
f 181/479/56 183/480/56 182/481/56
f 184/482/56 185/483/56 186/484/56
f 184/485/56 186/486/56 185/487/56
f 188/488/56 187/489/56 189/490/56
f 188/491/56 189/492/56 187/493/56
f 190/494/56 192/495/56 191/496/56
f 190/497/56 191/498/56 192/499/56
f 194/500/149 195/501/152 193/502/142
f 193/503/142 195/504/152 196/505/150
f 193/503/142 196/505/150 194/506/149
f 194/500/149 196/507/150 195/501/152
f 200/508/143 197/509/144 198/510/145
f 199/511/146 198/512/145 197/513/144
f 199/511/146 197/513/144 200/514/143
f 200/508/143 198/510/145 199/515/146
f 202/516/149 201/517/140 203/518/141
f 202/516/149 203/518/141 204/519/151
f 204/520/151 201/521/140 202/522/149
f 204/520/151 203/523/141 201/521/140
f 206/524/157 205/525/147 207/526/158
f 208/527/148 205/528/147 206/529/157
f 208/527/148 207/530/158 205/528/147
f 206/524/157 207/526/158 208/531/148
f 211/532/142 212/533/140 209/534/149
f 211/532/142 210/535/141 212/533/140
f 209/536/149 210/537/141 211/538/142
f 209/536/149 212/539/140 210/537/141
f 215/540/151 213/541/141 216/542/140
f 214/543/149 216/544/140 213/545/141
f 214/543/149 213/545/141 215/546/151
f 215/540/151 216/542/140 214/547/149
f 218/548/151 220/549/140 217/550/149
f 217/551/149 219/552/141 218/553/151
f 217/551/149 220/554/140 219/552/141
f 218/548/151 219/555/141 220/549/140
f 224/556/142 221/557/140 223/558/149
f 224/556/142 222/559/141 221/557/140
f 223/560/149 221/561/140 222/562/141
f 223/560/149 222/562/141 224/563/142
f 231/564/164 225/565/165 226/566/166
f 228/567/161 226/568/166 225/569/165
f 231/564/164 229/570/163 225/565/165
f 229/571/163 228/572/161 225/573/165
f 232/574/162 231/575/164 226/576/166
f 232/574/162 226/576/166 230/577/167
f 228/567/161 230/578/167 226/568/166
f 229/571/163 227/579/159 228/572/161
f 227/580/159 230/581/167 228/582/161
f 227/580/159 232/583/162 230/581/167
f 229/584/163 232/585/162 227/586/159
f 229/584/163 231/587/164 232/585/162
f 235/588/163 239/589/159 233/590/161
f 235/588/163 233/590/161 236/591/165
f 233/592/161 240/593/166 236/594/165
f 239/595/159 238/596/167 233/597/161
f 233/592/161 238/598/167 240/593/166
f 235/599/163 234/600/164 237/601/162
f 234/602/164 235/603/163 236/604/165
f 234/602/164 236/604/165 240/605/166
f 237/606/162 234/607/164 240/608/166
f 235/599/163 237/601/162 239/609/159
f 239/595/159 237/610/162 238/596/167
f 237/606/162 240/608/166 238/611/167
f 246/612/168 242/613/169 241/614/168
f 241/615/170 242/616/171 245/617/172
f 241/615/170 245/617/172 248/618/173
f 246/619/174 241/620/170 248/621/173
f 242/622/171 244/623/175 245/624/172
f 242/622/171 247/625/176 244/623/175
f 246/612/168 247/626/169 242/613/169
f 247/627/176 243/628/177 244/629/175
f 248/630/178 244/631/179 243/632/178
f 247/627/176 246/633/174 243/628/177
f 246/619/174 248/621/173 243/634/177
f 248/630/178 245/635/179 244/631/179
f 255/636/180 249/637/181 256/638/182
f 256/639/183 249/640/184 253/641/185
f 255/636/180 254/642/186 249/637/181
f 254/643/187 253/644/185 249/645/184
f 252/646/188 250/647/189 253/648/190
f 256/639/183 253/641/185 250/649/191
f 252/646/188 251/650/192 250/647/189
f 251/651/193 256/652/183 250/653/191
f 251/654/193 252/655/194 254/656/187
f 251/651/193 255/657/195 256/652/183
f 251/654/193 254/656/187 255/658/195
f 254/643/187 252/659/194 253/644/185
f 257/660/196 258/661/197 259/662/198
f 257/663/196 259/664/198 260/665/199
f 257/663/196 260/665/199 262/666/200
f 258/667/197 257/668/196 262/669/200
f 259/670/198 258/671/197 261/672/201
f 259/670/198 261/672/201 260/673/199
f 260/674/199 261/675/201 262/676/200
f 258/667/197 262/669/200 261/677/201
f 263/678/197 267/679/200 266/680/202
f 263/678/197 268/681/196 267/679/200
f 268/682/196 263/683/197 264/684/203
f 264/685/203 263/686/197 266/687/202
f 264/685/203 266/687/202 265/688/199
f 265/689/199 266/690/202 267/691/200
f 268/692/196 265/693/199 267/694/200
f 268/692/196 264/695/203 265/693/199
f 274/696/204 269/697/205 270/698/206
f 269/699/205 276/700/207 270/701/206
f 269/699/205 271/702/208 276/700/207
f 271/703/208 269/704/205 274/705/204
f 274/696/204 270/698/206 275/706/209
f 273/707/210 275/708/209 270/709/206
f 273/707/210 270/709/206 276/710/207
f 271/703/208 274/705/204 272/711/211
f 271/712/208 272/713/211 273/714/210
f 271/712/208 273/714/210 276/715/207
f 272/716/211 275/717/209 273/718/210
f 272/716/211 274/719/204 275/717/209
f 277/720/212 283/721/213 282/722/214
f 277/720/212 282/722/214 278/723/215
f 277/720/212 278/723/215 281/724/216
f 277/720/212 281/724/216 279/725/217
f 277/720/212 279/725/217 280/726/218
f 280/727/218 279/728/217 281/729/216
f 280/727/218 281/729/216 278/730/215
f 280/727/218 278/730/215 282/731/214
f 280/727/218 282/731/214 283/732/213
f 280/727/218 283/732/213 277/733/212
f 302/734/219 304/735/220 305/736/221
f 302/734/219 303/737/222 304/735/220
f 303/738/222 305/739/221 304/740/220
f 303/738/222 302/741/219 305/739/221
f 307/742/223 306/743/224 313/744/225
f 313/745/225 306/746/224 310/747/226
f 307/742/223 312/748/227 306/743/224
f 312/749/227 310/750/226 306/751/224
f 309/752/228 307/753/223 313/754/225
f 309/755/228 312/756/227 307/757/223
f 309/755/228 308/758/229 312/756/227
f 308/759/229 309/760/228 311/761/230
f 308/759/229 311/761/230 310/762/226
f 312/749/227 308/763/229 310/750/226
f 309/752/228 313/754/225 311/764/230
f 313/745/225 310/747/226 311/765/230
f 314/766/223 319/767/224 321/768/225
f 314/766/223 320/769/227 319/767/224
f 316/770/228 314/771/223 321/772/225
f 316/773/228 320/774/227 314/775/223
f 315/776/229 317/777/230 318/778/226
f 315/776/229 316/779/228 317/777/230
f 320/780/227 315/781/229 318/782/226
f 316/773/228 315/783/229 320/774/227
f 316/770/228 321/772/225 317/784/230
f 321/785/225 318/786/226 317/787/230
f 321/785/225 319/788/224 318/786/226
f 320/780/227 318/782/226 319/789/224
f 322/790/231 324/791/232 323/792/233
f 324/793/232 322/794/231 329/795/234
f 322/796/231 327/797/235 329/798/234
f 322/796/231 326/799/236 327/797/235
f 322/790/231 323/792/233 326/800/236
f 323/801/233 324/802/232 328/803/237
f 326/804/236 323/805/233 325/806/238
f 323/801/233 328/803/237 325/807/238
f 324/793/232 329/795/234 328/808/237
f 326/804/236 325/806/238 327/809/235
f 327/810/235 325/811/238 328/812/237
f 327/810/235 328/812/237 329/813/234
f 330/814/239 331/815/240 334/816/241
f 330/817/239 334/818/241 332/819/242
f 330/817/239 332/819/242 335/820/243
f 331/821/240 335/822/243 333/823/244
f 331/821/240 330/824/239 335/822/243
f 334/825/241 331/826/240 333/827/244
f 332/828/242 333/829/244 335/830/243
f 334/825/241 333/827/244 332/831/242
f 336/832/239 337/833/240 338/834/241
f 336/835/239 338/836/241 339/837/242
f 336/835/239 339/837/242 340/838/243
f 337/839/240 336/840/239 340/841/243
f 337/839/240 340/841/243 341/842/244
f 338/843/241 341/844/244 339/845/242
f 338/843/241 337/846/240 341/844/244
f 339/847/242 341/848/244 340/849/243
f 342/850/245 347/851/246 345/852/247
f 342/850/245 349/853/248 347/851/246
f 343/854/249 342/855/245 345/856/247
f 343/857/249 349/858/248 342/859/245
f 343/857/249 348/860/250 349/858/248
f 348/861/250 343/862/249 344/863/251
f 343/854/249 345/856/247 344/864/251
f 348/861/250 344/863/251 346/865/252
f 345/866/247 346/867/252 344/868/251
f 345/866/247 347/869/246 346/867/252
f 349/870/248 346/871/252 347/872/246
f 349/870/248 348/873/250 346/871/252
f 350/874/253 352/875/254 355/876/255
f 350/874/253 351/877/256 352/875/254
f 356/878/257 350/879/253 355/880/255
f 351/881/256 350/882/253 356/883/257
f 351/884/256 354/885/258 352/886/254
f 351/884/256 353/887/259 354/885/258
f 351/881/256 356/883/257 353/888/259
f 354/889/258 355/890/255 352/891/254
f 353/892/259 357/893/260 354/894/258
f 353/892/259 356/895/257 357/893/260
f 354/889/258 357/896/260 355/890/255
f 356/878/257 355/880/255 357/897/260
f 28/5/261 29/57/261 30/6/261
f 31/8/3 32/59/3 33/9/3
f 36/11/262 37/85/262 38/12/262
f 43/14/263 44/73/263 45/15/263
f 46/17/2 47/68/2 48/18/2
f 54/20/264 55/88/264 56/21/264
f 59/23/265 57/82/42 60/24/111
f 63/26/266 64/83/266 65/27/266
f 66/29/267 58/84/45 67/30/112
f 70/32/268 71/87/268 72/33/268
f 74/35/269 75/58/270 76/36/271
f 78/38/272 73/86/48 79/39/114
f 284/898/55 286/899/54 285/900/53
f 46/47/80 49/160/80 25/48/74
f 23/159/75 27/161/81 30/901/81
f 28/5/2 27/7/2 49/19/2
f 31/50/78 34/156/78 22/51/73
f 26/155/77 42/167/84 45/902/84
f 43/14/3 42/16/3 34/10/3
f 41/54/273 30/903/273 29/55/273
f 35/13/274 38/12/274 29/57/274
f 39/66/98 69/34/97 72/33/275
f 39/177/90 32/904/91 31/178/276
f 75/58/3 33/9/3 32/59/3
f 69/60/6 61/905/6 60/61/6
f 75/63/270 74/218/269 36/64/277
f 52/74/107 62/28/106 65/27/278
f 52/192/102 47/194/104 46/906/279
f 68/31/2 48/18/2 47/68/2
f 51/70/280 45/907/280 44/71/280
f 53/22/281 56/21/281 44/73/281
f 62/76/13 80/908/13 79/77/13
f 53/79/8 68/909/8 67/80/8
f 57/82/42 59/23/282 65/27/43
f 58/84/45 66/29/283 38/12/46
f 73/86/48 78/38/284 72/33/49
f 77/37/12 76/36/285 56/21/51
f 289/910/286 287/911/287 288/912/288
f 287/913/287 289/914/286 288/915/288
f 292/916/289 290/917/289 291/918/290
f 290/919/289 292/920/289 291/921/290
f 300/922/291 299/923/292 301/924/293
f 299/925/292 300/926/291 301/927/293
f 34/928/294 21/152/294 33/158/294
f 21/152/15 30/154/76 33/158/94
f 29/157/295 28/929/295 33/158/295
f 49/930/296 24/162/296 48/166/296
f 24/162/18 45/164/82 48/166/89
f 44/165/297 43/931/297 48/166/297
f 29/932/298 41/171/298 28/170/298
f 41/171/30 31/178/92 33/169/89
f 59/168/86 29/55/88 60/173/1
f 29/55/88 38/933/1 36/172/1
f 70/62/299 36/64/299 75/63/299
f 38/183/96 65/934/96 59/181/96
f 60/935/96 36/182/96 59/181/96
f 67/936/96 63/937/96 66/938/96
f 66/938/96 63/937/96 65/934/96
f 65/934/96 38/183/96 66/938/96
f 76/175/300 39/174/301 70/939/302
f 39/174/301 72/940/303 70/939/302
f 44/941/304 51/189/304 43/188/304
f 51/189/38 46/196/105 48/187/94
f 78/184/99 44/186/101 79/191/96
f 44/186/101 56/942/96 54/190/96
f 66/193/103 52/192/102 67/198/109
f 52/192/102 65/943/305 63/197/108
f 56/202/1 72/203/1 78/200/1
f 79/944/1 54/201/1 78/200/1
f 76/204/1 70/945/1 72/203/1
f 74/218/10 71/217/50 70/62/306
f 74/218/307 70/62/307 76/180/307
