# Blender 4.5.0
# www.blender.org
mtllib factory_003.lod1.mtl
o factory_003
v -3.104776 3.745850 -3.002623
v 3.104776 3.745850 -3.002623
v 3.104776 4.896112 -1.300653
v -3.104776 4.896112 -1.300653
v -3.054699 3.745851 -1.300653
v -3.054699 4.896112 -1.300653
v -3.054699 3.745850 -3.002623
v 3.054699 3.745850 -3.002623
v 3.054699 4.896112 -1.300653
v 3.054699 3.745851 -1.300653
v 3.104776 3.745851 -1.000305
v -3.104776 3.745851 -1.000305
v 3.104776 4.896112 0.701665
v -3.104776 4.896112 0.701665
v -3.054699 3.745851 0.701665
v -3.054699 4.896112 0.701665
v -3.054699 3.745851 -1.000305
v 3.054699 3.745851 -1.000305
v 3.054699 4.896112 0.701665
v 3.054699 3.745851 0.701665
v -3.104776 3.745851 1.002013
v 3.104776 3.745851 1.002013
v 3.104776 4.896112 2.703983
v -3.104776 4.896112 2.703983
v -3.054699 3.745851 2.703983
v -3.054699 4.896112 2.703983
v -3.054699 3.745851 1.002013
v 3.054699 3.745851 1.002013
v 3.054699 4.896112 2.703983
v 3.054699 3.745851 2.703983
v -1.872881 3.465787 -3.163810
v 0.871341 3.465787 -3.163810
v 0.871341 3.125710 -3.163810
v -1.872881 3.125710 -3.163810
v 3.250000 0.140032 -3.245904
v -3.250000 -0.000000 -3.245904
v -3.248536 0.001462 3.250000
v -3.250000 0.140032 3.247612
v -3.248536 0.138570 -3.248292
v 3.248536 0.001462 -3.248292
v 3.248536 0.138570 3.250000
v 3.250000 0.000000 3.247612
v 2.997443 0.149814 -2.997871
v -2.997443 0.149815 2.999580
v -2.999633 3.741936 2.996798
v 2.997443 3.741069 2.999579
v 2.999633 3.741936 -2.995090
v -2.997443 3.741069 -2.997871
v -2.999633 0.148947 -2.995090
v 2.999633 0.148948 2.996798
v -3.045962 4.883127 -1.318317
v 3.045962 3.758836 -1.318316
v -3.045962 3.758836 -1.242943
v 3.045962 4.883127 -1.242943
v -3.048164 4.882917 -1.245189
v 3.048164 4.882917 -1.316071
v -3.048164 3.759046 -1.316071
v 3.048164 3.759046 -1.245188
v -3.078562 4.910556 -1.335428
v -3.080313 4.850372 -1.332764
v 3.078562 4.851662 -1.335428
v 3.078563 4.910556 -1.225832
v 3.080313 4.911845 -1.332763
v -3.080313 4.911845 -1.228496
v 3.080313 4.850372 -1.228496
v -3.078562 4.851662 -1.225832
v -2.020881 4.883881 -1.230572
v -1.987874 4.884796 -1.241327
v -2.018289 3.757166 -1.241327
v -2.004347 4.874042 -1.208019
v -1.987874 3.757166 -1.219817
v -1.019340 4.883881 -1.230572
v -0.986334 4.884796 -1.241327
v -1.002806 4.874042 -1.208019
v -0.986334 3.757166 -1.219817
v -1.016748 3.757166 -1.241327
v -0.017709 4.883791 -1.232956
v 0.001265 4.874042 -1.253124
v 0.017709 4.883791 -1.228188
v -0.001265 4.874042 -1.208019
v 0.001265 3.767920 -1.208019
v 0.017709 3.758172 -1.232956
v -0.017709 3.758172 -1.228188
v -0.001265 3.767920 -1.253124
v 1.016748 4.884796 -1.241327
v 0.986334 3.757166 -1.241327
v 0.986334 4.884796 -1.219817
v 1.016748 3.757166 -1.219817
v 2.020881 3.758081 -1.230572
v 1.987874 3.757166 -1.241327
v 1.987874 4.884796 -1.219817
v 2.004347 3.767920 -1.208019
v 2.018289 4.884796 -1.241327
v -3.017475 3.717709 -2.977852
v -3.087795 3.712629 -2.977648
v -3.053990 3.796591 -3.026150
v -3.008324 3.761863 -3.012545
v -3.100204 4.876995 -1.292638
v -3.051170 4.850180 -1.272709
v -3.021800 4.929269 -1.326253
v -3.007554 4.882302 -1.294698
v -3.091871 4.923856 -1.328950
v -3.101787 3.761085 -3.008197
v 3.007612 3.761086 -3.008197
v 3.055409 3.796591 -3.026150
v 3.101075 3.761863 -3.012545
v 3.059380 4.938572 -1.331449
v 3.010260 4.912237 -1.316313
v 3.015136 4.860209 -1.286573
v 3.107961 4.895158 -1.306120
v 3.073355 4.856840 -1.275262
v 3.021604 3.712629 -2.977648
v 3.091924 3.717709 -2.977852
v 3.100051 3.729812 -1.264410
v -3.100051 3.781893 -1.264409
v -3.102222 3.783172 -0.999258
v -3.102222 3.728534 -1.261653
v -3.100051 3.729812 -0.996502
v 3.102222 3.728534 -0.999258
v 3.100051 3.781893 -0.996502
v 3.102222 3.783172 -1.261653
v -3.045962 4.883127 0.684001
v -3.048164 3.759046 0.686247
v 3.048164 3.759046 0.757129
v 3.045962 4.883127 0.759375
v 3.048164 4.882917 0.686247
v -3.048164 4.882917 0.757129
v 3.045962 3.758836 0.684001
v -3.045962 3.758836 0.759375
v 3.078562 4.851662 0.666890
v -3.080313 4.850372 0.669554
v 3.078562 4.910556 0.776486
v -3.078562 4.851662 0.776486
v 3.080313 4.850372 0.773822
v -3.078563 4.910556 0.666890
v -3.080313 4.911845 0.773822
v 3.080313 4.911845 0.669555
v -2.020881 4.883881 0.771746
v -2.001817 4.874042 0.749194
v -2.004347 3.767920 0.749194
v -1.985282 4.883881 0.771746
v -2.004347 4.874042 0.794299
v -2.020881 3.758081 0.771746
v -1.987874 3.757166 0.782501
v -0.986360 4.884864 0.760937
v -1.002806 4.874042 0.794299
v -1.018911 4.884628 0.770642
v -1.002806 3.767920 0.749194
v -0.986360 3.757098 0.782555
v -1.018911 3.757334 0.772850
v -0.017799 4.883881 0.771746
v -0.001265 4.874042 0.794299
v 0.017799 4.883881 0.771746
v -0.001265 3.767920 0.749194
v -0.017799 3.758081 0.771746
v 0.001265 4.874042 0.749194
v 0.015207 3.757166 0.782501
v 0.986360 4.884864 0.782555
v 1.002806 4.874042 0.749194
v 0.986360 3.757098 0.760937
v 1.002806 3.767920 0.794299
v 1.018911 4.884628 0.772850
v 1.018911 3.757334 0.770643
v 1.985282 4.883881 0.771746
v 2.004347 4.874042 0.749194
v 2.020881 4.883881 0.771746
v 2.001817 4.874042 0.794299
v 2.018289 3.757166 0.782501
v 1.987874 3.757166 0.760991
v -3.017475 3.717709 -0.975534
v -3.087795 3.712629 -0.975330
v -3.101787 3.761086 -1.005879
v -3.008325 3.761864 -1.010228
v -3.050018 4.938572 0.670869
v -3.001438 4.895159 0.696198
v -3.053991 3.796591 -1.023832
v -3.099139 4.912237 0.686005
v -3.094263 4.860208 0.715745
v -3.036043 4.856840 0.727055
v 3.055408 3.796591 -1.023832
v 3.107961 4.895159 0.696197
v 3.010260 4.912237 0.686005
v 3.015136 4.860208 0.715745
v 3.073356 4.856840 0.727055
v 3.101075 3.761863 -1.010228
v 3.059380 4.938572 0.670869
v 3.007612 3.761086 -1.005879
v 3.021604 3.712629 -0.975330
v 3.091924 3.717709 -0.975533
v -3.100051 3.781893 0.737908
v 3.100051 3.729812 0.737908
v 3.100051 3.781893 1.005816
v -3.102222 3.728534 0.740664
v 3.102222 3.728534 1.003060
v -3.102222 3.783172 1.003060
v 3.102222 3.783172 0.740664
v -3.100051 3.729812 1.005816
v -3.045962 4.883127 2.686319
v -3.048164 3.759046 2.688565
v 3.045962 4.883127 2.761693
v 3.048164 4.882917 2.688565
v -3.048164 4.882917 2.759447
v 3.045962 3.758836 2.686320
v 3.048164 3.759046 2.759447
v -3.045962 3.758836 2.761693
v 3.078563 4.910556 2.778804
v -3.080313 4.911845 2.776139
v -3.078562 4.851662 2.778804
v 3.078562 4.851661 2.669208
v 3.080313 4.911845 2.671872
v -3.078562 4.910556 2.669208
v -3.080313 4.850372 2.671872
v 3.080313 4.850372 2.776139
v -2.001816 4.874042 2.751512
v -2.004347 3.767921 2.751512
v -2.020881 3.758081 2.774064
v -1.985282 4.883881 2.774064
v -2.018289 4.884796 2.784819
v -1.987874 3.757167 2.784819
v -1.016748 4.884796 2.784819
v -1.000276 4.874042 2.751512
v -0.983741 4.883881 2.774064
v -1.002806 3.767921 2.751512
v -1.019340 3.758081 2.774064
v -0.986333 3.757167 2.784819
v 0.017709 4.883791 2.776448
v -0.001265 4.874042 2.796617
v -0.017709 3.758172 2.776448
v 0.001265 3.767921 2.796617
v 0.017709 3.758172 2.771681
v -0.017709 4.883791 2.771680
v 0.001265 4.874042 2.751512
v -0.001265 3.767921 2.751512
v 1.002806 4.874042 2.751512
v 1.019340 4.883881 2.774064
v 1.000276 3.767921 2.751512
v 0.986334 4.884796 2.784819
v 0.983741 3.758081 2.774064
v 1.016748 3.757167 2.784819
v 2.020881 4.883881 2.774064
v 2.004347 4.874042 2.751512
v 1.987874 4.884796 2.784819
v 2.001817 3.767921 2.751512
v 1.985282 3.758081 2.774064
v 2.018289 3.757167 2.784819
v -3.056040 3.795770 0.978443
v -3.017417 4.927516 2.682105
v -3.091871 4.923856 2.675686
v -3.095521 4.864649 2.719169
v -3.021800 4.860034 2.725261
v -3.001845 3.752546 1.000629
v -3.101787 3.761086 0.996439
v -3.087795 3.712629 1.026988
v -3.031821 3.711198 1.028873
v 3.021604 3.712629 1.026988
v 3.077577 3.711198 1.028873
v 3.107555 3.752546 1.000629
v 3.010260 4.912237 2.688323
v 3.015136 4.860208 2.718063
v 3.101845 4.906772 2.693369
v 3.087599 4.860034 2.725261
v 3.060679 4.938624 2.672716
v 3.053359 3.795770 0.978443
v 3.007612 3.761086 0.996439
v -3.100051 3.781894 2.740227
v -3.100051 3.729812 3.008134
v -3.102222 3.728534 2.742983
v -3.102222 3.783172 3.005378
v 3.102222 3.783172 2.742982
v 3.100051 3.781894 3.008134
v 3.102222 3.728534 3.005378
v 3.100051 3.729812 2.740227
v -2.296590 2.939706 -3.098226
v 1.295049 0.150996 -3.098226
v -2.298269 0.149778 -3.095831
v 1.295049 2.939705 -3.007135
v -2.298269 2.940923 -3.009530
v 1.296728 2.940923 -3.095832
v 1.296728 0.149778 -3.009530
v -2.296590 0.150996 -3.007135
v -2.255847 0.312157 -3.114021
v -2.247551 0.298555 -3.137509
v 1.246010 0.316584 -3.137509
v 1.254306 0.302982 -3.114021
v 1.246010 0.486622 -3.137509
v 1.254306 0.473021 -3.114021
v -2.247551 0.468594 -3.137509
v -2.255847 0.482196 -3.114021
v 1.246010 0.656661 -3.137509
v 1.254306 0.643059 -3.114021
v -2.255847 0.652234 -3.114021
v -2.247551 0.638633 -3.137509
v -2.247551 0.826700 -3.108015
v -2.255846 0.813098 -3.131503
v 1.254305 0.813098 -3.114021
v 1.246010 0.826700 -3.137509
v -2.255846 0.992312 -3.114021
v -2.247551 0.978710 -3.137509
v 1.254305 0.992312 -3.131503
v 1.246010 0.978710 -3.108015
v -2.247551 1.166777 -3.108015
v 1.246010 1.166777 -3.137509
v 1.254305 1.153175 -3.114021
v -2.255846 1.153175 -3.131503
v 1.254305 1.332389 -3.131503
v -2.255846 1.332389 -3.114021
v -2.247551 1.318787 -3.137509
v 1.246010 1.318787 -3.108015
v -2.255847 1.502427 -3.114021
v -2.247551 1.488826 -3.137509
v 1.246010 1.506854 -3.137509
v 1.254306 1.493252 -3.114021
v -2.255846 1.663291 -3.131503
v 1.246010 1.676893 -3.137509
v -2.247551 1.676893 -3.108015
v 1.254305 1.663291 -3.114021
v -2.247551 1.828903 -3.137509
v -2.255846 1.842505 -3.114021
v 1.246010 1.828903 -3.108015
v 1.254305 1.842505 -3.131503
v -2.255847 2.003368 -3.131503
v 1.254306 2.003368 -3.114021
v -2.247551 2.016970 -3.108015
v 1.246010 2.016970 -3.137509
v 1.254305 2.182582 -3.131503
v -2.255846 2.173407 -3.131503
v -2.247551 2.187008 -3.108015
v 1.246010 2.168980 -3.108015
v -2.255847 2.343445 -3.131503
v 1.254306 2.343445 -3.114021
v -2.247551 2.357047 -3.108015
v 1.246010 2.357047 -3.137509
v 1.246010 2.509057 -3.108015
v -2.247551 2.527086 -3.108015
v 1.254306 2.522659 -3.131503
v -2.255847 2.513484 -3.131503
v 1.246010 2.679096 -3.108015
v 1.254305 2.692698 -3.131503
v -2.247551 2.697124 -3.108015
v -2.255846 2.683522 -3.131504
v -2.255847 2.853561 -3.131503
v -2.247551 2.867163 -3.108015
v 1.246010 2.867163 -3.137509
v 1.254306 2.853561 -3.114021
v 1.884110 2.409895 -3.131181
v 2.823759 2.411079 -3.130441
v 2.823132 2.409895 -2.994205
v 1.883483 0.169507 -3.130441
v 1.883483 2.411079 -2.994944
v 1.884110 0.170690 -2.994205
v 2.823759 0.169507 -2.994944
v 2.823132 0.170690 -3.131180
v 2.751646 0.238488 -3.154516
v 1.955595 0.238488 -3.151078
v 1.955595 2.332095 -3.154516
v 2.751646 2.332095 -3.151078
v 2.337388 2.329060 -3.203121
v 2.371285 2.330571 -3.200663
v 2.371285 0.240012 -3.165000
v 2.335957 2.330571 -3.165000
v 2.369854 2.329060 -3.162542
v 2.335957 0.240012 -3.200663
v 2.369854 0.241524 -3.203121
v 2.337388 0.241524 -3.162542
v 2.231266 0.997979 -3.275000
v 2.231266 1.392564 -3.210802
v 2.235606 0.997979 -3.210802
v 2.235606 1.392564 -3.275000
v 2.471636 1.392564 -3.210802
v 2.475976 1.392564 -3.275000
v 2.475976 0.997979 -3.210802
v 2.471636 0.997979 -3.275000
v 0.893033 3.098722 -3.156379
v 0.893033 3.492774 -3.009053
v -1.894574 3.492774 -3.156379
v -1.896453 3.492433 -3.010085
v 0.894912 3.492433 -3.155346
v -1.896453 3.099063 -3.155346
v 0.894912 3.099063 -3.010085
v -1.894573 3.098722 -3.009053
v -2.880981 0.117575 3.127848
v -2.836803 0.117834 3.129631
v -2.811930 0.118062 3.089289
v -2.855374 0.123291 3.050513
v -2.883400 3.487691 3.061687
v -2.886923 3.490509 3.122374
v -2.828007 3.492759 3.128087
v -2.824329 3.494892 3.064542
v -2.891996 0.119232 3.082087
v 2.816787 0.119232 3.082087
v 2.853408 0.123291 3.050513
v 2.871979 0.117835 3.129631
v 2.896853 0.118062 3.089289
v 2.884454 3.494892 3.064542
v 2.825382 3.487691 3.061687
v 2.821859 3.490508 3.122374
v 2.827802 0.117575 3.127848
v 2.880776 3.492759 3.128087
v -0.394924 0.449482 3.026780
v -0.394224 0.450615 3.142833
v -0.394224 2.239996 3.026015
v 0.394924 2.241129 3.026780
v 0.394224 2.239996 3.142833
v -0.394924 2.241129 3.142067
v 0.394224 0.450615 3.026015
v 0.394924 0.449482 3.142067
v 0.631298 1.787923 3.002239
v 0.631298 1.302780 3.166608
v 0.972095 1.301089 3.165487
v 0.630370 1.789613 3.165486
v 0.971167 1.787923 3.166608
v 0.972095 1.789613 3.003361
v 0.971167 1.302779 3.002239
v 0.630371 1.301089 3.003361
vn -0.0000 -0.8285 0.5600
vn -1.0000 -0.0000 -0.0000
vn 1.0000 -0.0000 -0.0000
vn -0.0000 -0.0000 -1.0000
vn 0.0812 -0.3761 0.9230
vn 0.7436 0.6646 0.0730
vn -0.0812 0.3761 0.9230
vn -0.0812 -0.3761 -0.9230
vn 0.7436 -0.6646 -0.0730
vn -0.7436 -0.6646 0.0730
vn 0.4449 -0.8384 0.3149
vn 0.4450 0.8384 -0.3149
vn -0.4447 0.8385 0.3147
vn 0.7253 -0.6583 -0.2014
vn -0.0668 0.3852 -0.9204
vn 0.7253 0.6583 0.2014
vn -0.7476 0.6640 -0.0174
vn -0.0347 0.3716 0.9277
vn 0.7476 0.6640 0.0174
vn -0.4415 -0.8413 -0.3119
vn -0.7108 0.6230 0.3267
vn -0.0077 0.3830 -0.9237
vn -0.7381 -0.1227 -0.6634
vn 0.0812 0.3761 -0.9230
vn 0.6036 -0.6274 0.4919
vn -0.0807 0.3833 -0.9201
vn 0.7423 0.6444 0.1836
vn 0.4540 -0.1862 0.8713
vn -0.5036 -0.8486 -0.1623
vn 0.3780 -0.9169 -0.1285
vn -0.9010 0.2163 0.3761
vn 0.9010 -0.2163 0.3761
vn 0.7639 0.3242 -0.5579
vn -0.9010 -0.2163 -0.3760
vn 0.9010 0.2163 -0.3760
vn 0.7639 -0.3242 0.5579
vn 0.7628 -0.3249 0.5591
vn -0.7628 0.3249 0.5591
vn -0.9020 -0.2152 -0.3742
vn 0.5792 0.6112 -0.5395
vn 0.7766 -0.6164 -0.1298
vn 0.0084 -0.5452 -0.8383
vn -0.5766 0.5257 -0.6255
vn -0.7419 -0.6154 -0.2662
vn 0.5223 0.5780 0.6270
vn -0.5076 -0.6080 0.6105
vn 0.3728 -0.6253 0.6856
vn -0.4434 -0.8394 -0.3143
vn -0.7423 0.6444 -0.1836
vn 0.6013 0.6298 -0.4918
vn 0.0785 0.3859 0.9192
vn 0.4422 -0.8410 0.3118
vn -0.7436 0.6646 -0.0730
vn -0.4447 -0.8385 -0.3147
vn -0.6013 -0.6298 -0.4918
vn -0.4422 0.8410 0.3118
vn 0.4434 0.8394 -0.3143
vn -0.0785 -0.3859 0.9192
vn 0.7423 -0.6444 -0.1836
vn -0.0092 0.3794 -0.9252
vn 0.4606 0.8741 0.1546
vn 0.6671 -0.1611 -0.7274
vn 0.7514 0.1607 0.6399
vn 0.5442 -0.8245 -0.1552
vn -0.5579 0.8214 0.1186
vn -0.7376 -0.1241 -0.6637
vn -0.7303 0.0938 0.6766
vn -0.4684 -0.8705 -0.1514
vn 0.0484 -0.3212 0.9458
vn 0.8094 0.3777 0.4496
vn 0.6673 -0.1580 -0.7278
vn 0.5434 -0.8251 -0.1544
vn -0.6092 -0.1538 0.7779
vn -0.4683 -0.8707 -0.1503
vn 0.2727 -0.1819 0.9448
vn 0.7476 0.6639 0.0174
vn 0.0338 0.3708 -0.9281
vn -0.7467 0.6649 -0.0191
vn 0.6031 -0.6300 0.4892
vn 0.0831 -0.3865 -0.9185
vn -0.7394 -0.6480 0.1825
vn -0.0321 0.3745 0.9267
vn 0.0668 -0.3852 -0.9204
vn -0.7253 0.6583 -0.2014
vn 0.6106 0.6282 -0.4822
vn -0.7253 -0.6583 0.2014
vn 0.6106 -0.6282 0.4822
vn 0.0668 0.3852 0.9204
vn -0.0322 0.3745 0.9267
vn -0.6106 0.6282 0.4822
vn -0.6106 -0.6282 -0.4822
vn -0.0668 -0.3852 0.9204
vn 0.0347 0.3716 -0.9277
vn 0.4415 -0.8413 0.3119
vn -0.6092 -0.1538 0.7780
vn 0.6673 -0.1580 -0.7279
vn -0.0806 0.3833 -0.9201
vn -0.6036 0.6274 0.4919
vn 0.6036 -0.6274 0.4920
vn 0.0807 -0.3833 -0.9201
vn -0.7423 -0.6445 0.1836
vn -0.7423 -0.6444 0.1836
vn 0.5725 0.7973 0.1914
vn 0.7748 -0.2372 -0.5861
vn 0.0110 0.3808 -0.9246
vn -0.5855 0.8036 0.1063
vn -0.7418 -0.1261 -0.6587
vn -0.6289 -0.1187 0.7684
vn -0.5035 -0.8486 -0.1624
vn 0.5227 -0.1924 0.8305
vn 0.0765 0.9951 0.0633
vn 0.7754 -0.2356 -0.5859
vn 0.0113 0.3832 -0.9236
vn -0.7125 0.6241 0.3208
vn -0.7422 -0.1248 -0.6585
vn -0.5823 -0.1874 0.7911
vn -0.7639 -0.3242 -0.5579
vn -0.7639 -0.3243 -0.5579
vn 0.7635 0.3227 -0.5593
vn -0.9017 -0.2165 -0.3743
vn -0.7635 0.3228 0.5593
vn 0.9017 -0.2165 0.3743
vn 0.9017 0.2165 -0.3743
vn -0.7635 -0.3227 -0.5593
vn -0.9017 0.2165 0.3743
vn 0.7635 -0.3228 0.5593
vn -0.7633 0.3229 0.5596
vn 0.9017 -0.2165 0.3742
vn 0.7635 0.3228 -0.5594
vn -0.9019 -0.2163 -0.3738
vn 0.7635 -0.3227 0.5593
vn 0.7645 0.3239 -0.5574
vn -0.7645 -0.3239 -0.5574
vn -0.9005 0.2169 0.3770
vn 0.9005 -0.2169 0.3770
vn 0.7635 0.3228 -0.5593
vn -0.7635 0.3227 0.5593
vn 0.9016 0.2166 -0.3745
vn -0.7636 -0.3228 -0.5593
vn 0.7637 -0.3227 0.5592
vn -0.7639 0.3242 0.5579
vn 0.9015 0.2157 -0.3751
vn -0.9015 -0.2158 -0.3751
vn -0.7634 0.3246 0.5585
vn 0.7634 -0.3246 0.5585
vn 0.9021 0.2152 -0.3741
vn 0.7631 0.3230 -0.5598
vn -0.9012 -0.2171 -0.3752
vn -0.7641 0.3224 0.5587
vn 0.9021 -0.2161 0.3735
vn -0.6338 0.5663 0.5268
vn -0.6339 0.5663 0.5268
vn 0.3727 -0.6253 0.6856
vn -0.5816 0.5791 0.5713
vn 0.5816 0.5791 -0.5713
vn -0.5732 0.5754 -0.5833
vn 0.5732 -0.5754 -0.5833
vn 0.5816 -0.5791 0.5713
vn 0.5732 0.5754 0.5833
vn -0.5816 -0.5791 -0.5713
vn -0.5732 -0.5754 0.5833
vn -0.5771 0.5773 -0.5777
vn 0.5771 -0.5773 -0.5777
vn -0.5776 -0.5775 -0.5769
vn 0.5776 -0.5775 0.5769
vn 0.5776 0.5775 -0.5769
vn 0.5771 0.5773 0.5777
vn -0.5771 -0.5773 0.5777
vn -0.5776 0.5775 0.5769
vn -0.5670 0.5799 -0.5850
vn 0.5670 -0.5799 -0.5850
vn -0.5865 -0.5759 -0.5695
vn 0.5865 0.5759 -0.5695
vn -0.5865 0.5759 0.5695
vn 0.5865 -0.5759 0.5695
vn 0.5670 0.5799 0.5850
vn -0.5670 -0.5799 0.5850
vn -0.5856 0.5869 0.5592
vn -0.5617 0.5697 -0.6000
vn -0.5856 -0.5869 -0.5591
vn 0.5617 -0.5697 -0.6000
vn 0.5856 0.5869 -0.5592
vn -0.5617 -0.5697 0.6000
vn 0.5856 -0.5869 0.5592
vn 0.5617 0.5697 0.6000
vn 0.0997 0.9920 0.0771
vn -0.5599 0.5724 -0.5990
vn 0.5599 -0.5724 -0.5990
vn -0.5907 -0.5818 -0.5591
vn 0.5907 -0.5818 0.5591
vn 0.5907 0.5818 -0.5591
vn -0.5907 0.5818 0.5591
vn -0.5599 -0.5724 0.5990
vn 0.5599 0.5724 0.5990
vn -0.5856 -0.5869 -0.5592
vn 0.5856 -0.5869 0.5591
vn -0.5599 -0.5725 0.5990
vn -0.5856 0.5869 0.5591
vn 0.7534 0.5286 0.3910
vn -0.5719 0.5739 -0.5862
vn 0.5719 -0.5739 -0.5862
vn -0.5827 -0.5809 -0.5683
vn 0.5827 0.5809 -0.5683
vn -0.5827 0.5809 0.5683
vn 0.5827 -0.5809 0.5683
vn -0.5719 -0.5739 0.5862
vn 0.5719 0.5739 0.5862
vn -0.7063 0.7078 -0.0080
vn 0.7063 0.7078 0.0080
vn -0.7084 0.7057 -0.0094
vn 0.0004 0.0002 -1.0000
vn 0.0008 0.0003 -1.0000
vn -0.0004 -0.0002 -1.0000
vn -0.0008 -0.0003 -1.0000
vn -0.7063 -0.7078 0.0080
vn 0.7063 -0.7078 -0.0080
vn 0.7084 -0.7057 -0.0094
vn 0.7084 0.7057 0.0094
vn -0.0004 0.0002 1.0000
vn 0.0004 -0.0002 1.0000
vn 0.0008 -0.0003 1.0000
vn -0.0008 0.0003 1.0000
vn -0.7084 -0.7057 0.0094
vn -0.6205 0.7841 0.0132
vn 0.6206 -0.7840 0.0132
vn -0.6206 -0.7840 -0.0132
vn 0.6205 0.7841 -0.0132
vn -0.5579 0.5497 -0.6217
vn 0.5579 -0.5497 -0.6217
vn -0.6007 -0.5899 -0.5396
vn 0.6007 0.5899 -0.5396
vn -0.6007 0.5899 0.5396
vn 0.6007 -0.5899 0.5396
vn 0.5579 0.5497 0.6217
vn -0.5579 -0.5497 0.6217
vn 0.0387 0.8180 -0.5740
vn 0.0387 -0.8180 0.5740
vn -0.0387 -0.8180 -0.5740
vn -0.0387 0.8180 0.5740
vn -0.0003 -0.0022 -1.0000
vn 0.0003 0.0022 -1.0000
vn -0.0004 -0.0026 -1.0000
vn -0.7100 -0.7042 0.0035
vn 0.7014 -0.7127 -0.0073
vn 0.7100 -0.7042 -0.0035
vn 0.0004 0.0026 -1.0000
vn 0.7100 0.7042 0.0035
vn 0.0003 -0.0022 1.0000
vn -0.0003 0.0022 1.0000
vn 0.0004 -0.0026 1.0000
vn -0.0004 0.0026 1.0000
vn 0.7014 0.7127 0.0073
vn -0.7100 0.7042 -0.0035
vn -0.7014 0.7127 -0.0074
vn -0.7014 -0.7127 0.0073
vn -0.5792 0.5799 0.5729
vn -0.5760 0.5742 -0.5818
vn -0.5792 -0.5799 -0.5729
vn -0.5760 -0.5742 0.5818
vn 0.5792 -0.5799 0.5729
vn 0.5760 -0.5742 -0.5818
vn 0.5760 0.5742 0.5818
vn 0.5792 0.5799 -0.5729
vn -0.5762 0.5731 -0.5826
vn 0.5762 -0.5731 -0.5826
vn -0.5794 -0.5803 -0.5723
vn 0.5794 0.5803 -0.5723
vn -0.5794 0.5803 0.5723
vn 0.5762 0.5731 0.5826
vn -0.5762 -0.5731 0.5826
vn 0.5794 -0.5803 0.5723
vt 0.232361 0.538605
vt 0.232361 0.794972
vt 0.161826 0.794875
vt 0.161826 0.538509
vt 0.777416 0.488614
vt 0.812721 0.456766
vt 0.812721 0.528756
vt 0.288619 0.776637
vt 0.288619 0.693326
vt 0.327566 0.720599
vt 0.768761 0.281851
vt 0.768761 0.538217
vt 0.698226 0.538121
vt 0.698226 0.281754
vt 0.538500 0.797035
vt 0.573805 0.765187
vt 0.573805 0.837177
vt 0.745773 0.790295
vt 0.698226 0.721884
vt 0.745773 0.722051
vt 0.787221 0.004424
vt 0.787221 0.260791
vt 0.716686 0.260694
vt 0.716686 0.004328
vt 0.582460 0.797035
vt 0.617765 0.765187
vt 0.617765 0.837177
vt 0.241016 0.776637
vt 0.241016 0.693326
vt 0.279964 0.720599
vt 0.282952 0.896539
vt 0.282952 0.785293
vt 0.297011 0.785308
vt 0.297011 0.896554
vt 0.612359 0.995175
vt 0.611499 0.949309
vt 0.612359 0.949447
vt 0.805659 0.271083
vt 0.805775 0.270074
vt 0.806637 0.270849
vt 0.994368 0.708054
vt 0.994038 0.662122
vt 0.994960 0.662232
vt 0.410412 0.994480
vt 0.409745 0.948752
vt 0.410412 0.948749
vt 0.295697 0.961793
vt 0.295506 0.960855
vt 0.296555 0.961011
vt 0.990057 0.875986
vt 0.988975 0.830150
vt 0.989996 0.830012
vt 0.981734 0.552763
vt 0.983312 0.623372
vt 0.981466 0.622936
vt 0.088014 0.914108
vt 0.089592 0.984716
vt 0.087746 0.984280
vt 0.515009 0.994480
vt 0.514342 0.948752
vt 0.515009 0.948749
vt 0.484081 0.994480
vt 0.483414 0.948752
vt 0.484081 0.948749
vt 0.797727 0.879641
vt 0.798691 0.950008
vt 0.796532 0.949821
vt 0.946651 0.734671
vt 0.947223 0.878402
vt 0.945891 0.878402
vt 0.483538 0.795372
vt 0.483498 0.939471
vt 0.482779 0.939102
vt 0.493088 0.939102
vt 0.492767 0.795371
vt 0.493847 0.795372
vt 0.107963 0.788169
vt 0.108243 0.927573
vt 0.106970 0.927255
vt 0.105915 0.788304
vt 0.105312 0.927159
vt 0.129070 0.787985
vt 0.130187 0.927419
vt 0.128910 0.927155
vt 0.992369 0.328160
vt 0.992157 0.282016
vt 0.993340 0.282250
vt 0.958074 0.270631
vt 0.957883 0.269694
vt 0.958993 0.270145
vt 0.822707 0.503096
vt 0.821625 0.457260
vt 0.822646 0.457122
vt 0.572174 0.995268
vt 0.571844 0.949336
vt 0.572766 0.949447
vt 0.462281 0.994659
vt 0.462069 0.948515
vt 0.463253 0.948750
vt 0.172523 0.958214
vt 0.172332 0.957276
vt 0.173442 0.957727
vt 0.990967 0.050658
vt 0.989885 0.004822
vt 0.990906 0.004684
vt 0.994368 0.652678
vt 0.994038 0.606746
vt 0.994960 0.606857
vt 0.442844 0.994480
vt 0.442177 0.948752
vt 0.442844 0.948749
vt 0.442075 0.994484
vt 0.441464 0.948502
vt 0.966837 0.986808
vt 0.965816 0.940944
vt 0.966898 0.940832
vt 0.388612 0.994659
vt 0.388400 0.948515
vt 0.389583 0.948750
vt 0.451972 0.994659
vt 0.451760 0.948515
vt 0.452944 0.948750
vt 0.582664 0.995175
vt 0.581743 0.949336
vt 0.582664 0.949447
vt 0.816107 0.270033
vt 0.817048 0.269840
vt 0.816595 0.270951
vt 0.077322 0.984716
vt 0.078362 0.914474
vt 0.079091 0.984285
vt 0.265928 0.951824
vt 0.266928 0.868952
vt 0.268073 0.951432
vt 0.075987 0.914553
vt 0.075495 0.984280
vt 0.972142 0.155680
vt 0.972876 0.226856
vt 0.970629 0.227094
vt 0.971493 0.551307
vt 0.971899 0.621597
vt 0.969345 0.621524
vt 0.981503 0.354139
vt 0.983271 0.283874
vt 0.983271 0.353708
vt 0.946222 0.270934
vt 0.946619 0.188139
vt 0.948367 0.270542
vt 0.979943 0.283531
vt 0.979675 0.353703
vt 0.977730 0.735296
vt 0.979020 0.806324
vt 0.976773 0.806563
vt 0.307933 0.881031
vt 0.308923 0.951383
vt 0.306369 0.951310
vt 0.960199 0.724309
vt 0.960393 0.725249
vt 0.959341 0.725091
vt 0.400103 0.994480
vt 0.399436 0.948752
vt 0.400103 0.948749
vt 0.399334 0.994484
vt 0.398709 0.948515
vt 0.827182 0.270890
vt 0.826245 0.271083
vt 0.826696 0.269972
vt 0.959150 0.724153
vt 0.366779 0.989611
vt 0.365697 0.943775
vt 0.366718 0.943637
vt 0.524316 0.994570
vt 0.523986 0.948638
vt 0.524907 0.948748
vt 0.493621 0.994484
vt 0.493011 0.948502
vt 0.494161 0.948750
vt 0.786027 0.270868
vt 0.785074 0.271083
vt 0.785524 0.269987
vt 0.795845 0.961074
vt 0.795631 0.960121
vt 0.796727 0.960571
vt 0.990026 0.986752
vt 0.988975 0.940900
vt 0.990023 0.940773
vt 0.152654 0.982678
vt 0.152453 0.936557
vt 0.153138 0.936795
vt 0.958931 0.259557
vt 0.959126 0.260497
vt 0.958074 0.260339
vt 0.473772 0.994480
vt 0.473105 0.948752
vt 0.473772 0.948749
vt 0.473003 0.994484
vt 0.472378 0.948515
vt 0.908491 0.268943
vt 0.907553 0.269136
vt 0.908005 0.268025
vt 0.957883 0.259401
vt 0.378140 0.989611
vt 0.377057 0.943775
vt 0.378079 0.943637
vt 0.539152 0.995269
vt 0.538822 0.949336
vt 0.539743 0.949447
vt 0.960176 0.541106
vt 0.960393 0.542060
vt 0.959402 0.541476
vt 0.409235 0.994638
vt 0.409021 0.948513
vt 0.994711 0.478356
vt 0.993819 0.432501
vt 0.994711 0.432628
vt 0.162237 0.957418
vt 0.163192 0.957202
vt 0.162608 0.958192
vt 0.296749 0.961951
vt 0.420721 0.994480
vt 0.420054 0.948752
vt 0.420721 0.948749
vt 0.419539 0.994659
vt 0.419327 0.948515
vt 0.994368 0.597303
vt 0.994038 0.551371
vt 0.994960 0.551481
vt 0.985062 0.553107
vt 0.985062 0.622941
vt 0.253521 0.951824
vt 0.253918 0.869029
vt 0.255666 0.951432
vt 0.977730 0.897605
vt 0.979020 0.968633
vt 0.976773 0.968872
vt 0.320757 0.881031
vt 0.321747 0.951383
vt 0.319193 0.951310
vt 0.091342 0.914451
vt 0.091342 0.984285
vt 0.017678 0.954748
vt 0.018074 0.871953
vt 0.019822 0.954357
vt 0.972172 0.433254
vt 0.973463 0.504282
vt 0.971216 0.504521
vt 0.947836 0.887812
vt 0.948826 0.958164
vt 0.946272 0.958091
vt 0.253824 0.961032
vt 0.254018 0.961972
vt 0.252906 0.961519
vt 0.673701 0.992723
vt 0.673034 0.946995
vt 0.673701 0.946991
vt 0.672932 0.992727
vt 0.672307 0.946758
vt 0.204271 0.958254
vt 0.203333 0.958446
vt 0.203784 0.957335
vt 0.550714 0.995268
vt 0.550384 0.949336
vt 0.551306 0.949447
vt 0.264116 0.961032
vt 0.264311 0.961972
vt 0.263199 0.961519
vt 0.504700 0.994480
vt 0.504033 0.948752
vt 0.504700 0.948749
vt 0.503931 0.994484
vt 0.503306 0.948515
vt 0.224890 0.958254
vt 0.223952 0.958446
vt 0.224403 0.957335
vt 0.591971 0.995268
vt 0.591641 0.949336
vt 0.592563 0.949447
vt 0.514240 0.994484
vt 0.513628 0.948502
vt 0.661784 0.992854
vt 0.660763 0.946991
vt 0.661846 0.946879
vt 0.562868 0.995175
vt 0.562008 0.949309
vt 0.562868 0.949447
vt 0.317204 0.961653
vt 0.317399 0.962593
vt 0.316287 0.962140
vt 0.483312 0.994484
vt 0.482687 0.948515
vt 0.923678 0.541381
vt 0.922740 0.541573
vt 0.923191 0.540463
vt 0.994120 0.533825
vt 0.993790 0.487893
vt 0.994711 0.488003
vt 0.960164 0.714836
vt 0.959224 0.715030
vt 0.959677 0.713918
vt 0.432535 0.994480
vt 0.431868 0.948752
vt 0.432535 0.948749
vt 0.431766 0.994484
vt 0.431141 0.948515
vt 0.929076 0.268943
vt 0.928138 0.269136
vt 0.928589 0.268025
vt 0.601869 0.995268
vt 0.601539 0.949336
vt 0.602461 0.949447
vt 0.985551 0.156850
vt 0.986178 0.226661
vt 0.984354 0.227096
vt 0.983074 0.156929
vt 0.982582 0.226656
vt 0.977786 0.816337
vt 0.979020 0.887479
vt 0.976773 0.887717
vt 0.970935 0.631684
vt 0.971899 0.702050
vt 0.969740 0.701864
vt 0.040594 0.876632
vt 0.041245 0.959171
vt 0.039135 0.959504
vt 0.983482 0.634399
vt 0.985062 0.704066
vt 0.983238 0.704501
vt 0.981734 0.633889
vt 0.981466 0.704061
vt 0.284313 0.906330
vt 0.285603 0.977358
vt 0.283356 0.977597
vt 0.007233 0.871764
vt 0.007884 0.954303
vt 0.005774 0.954636
vt 0.739785 0.943177
vt 0.739463 0.799447
vt 0.740545 0.799446
vt 0.410123 0.795371
vt 0.410442 0.939102
vt 0.409395 0.939389
vt 0.741117 0.943177
vt 0.408788 0.795371
vt 0.719167 0.943177
vt 0.718845 0.799447
vt 0.719927 0.799446
vt 0.421937 0.795371
vt 0.422256 0.939102
vt 0.421209 0.939389
vt 0.720499 0.943177
vt 0.420602 0.795371
vt 0.945569 0.734672
vt 0.432246 0.795371
vt 0.432565 0.939102
vt 0.431518 0.939389
vt 0.430911 0.795371
vt 0.729476 0.943177
vt 0.729154 0.799447
vt 0.730489 0.799447
vt 0.442301 0.795372
vt 0.442874 0.939102
vt 0.441828 0.939389
vt 0.730808 0.943177
vt 0.441220 0.795371
vt 0.162434 0.948141
vt 0.161826 0.804123
vt 0.162908 0.804122
vt 0.525029 0.795371
vt 0.524735 0.939471
vt 0.524016 0.939102
vt 0.163480 0.947854
vt 0.523694 0.795371
vt 0.173470 0.804123
vt 0.173789 0.947854
vt 0.172457 0.947854
vt 0.452137 0.939389
vt 0.451529 0.795371
vt 0.452610 0.795372
vt 0.183052 0.948141
vt 0.182444 0.804124
vt 0.183526 0.804122
vt 0.514720 0.795371
vt 0.514426 0.939471
vt 0.513706 0.939102
vt 0.184098 0.947854
vt 0.513385 0.795371
vt 0.809067 0.956121
vt 0.808745 0.812391
vt 0.809827 0.812390
vt 0.463174 0.795371
vt 0.463493 0.939102
vt 0.462446 0.939389
vt 0.810399 0.956121
vt 0.461839 0.795371
vt 0.193075 0.947854
vt 0.192753 0.804124
vt 0.194088 0.804123
vt 0.389250 0.795372
vt 0.389823 0.939102
vt 0.388777 0.939389
vt 0.194407 0.947854
vt 0.388169 0.795371
vt 0.203671 0.948141
vt 0.203063 0.804124
vt 0.204145 0.804123
vt 0.699561 0.799446
vt 0.699267 0.943546
vt 0.698547 0.943177
vt 0.698226 0.799446
vt 0.213694 0.947854
vt 0.213372 0.804123
vt 0.214707 0.804123
vt 0.473229 0.795372
vt 0.473802 0.939102
vt 0.472755 0.939389
vt 0.215026 0.947854
vt 0.472148 0.795371
vt 0.224289 0.948141
vt 0.223681 0.804123
vt 0.225016 0.804123
vt 0.225335 0.947854
vt 0.482457 0.795371
vt 0.923205 0.953592
vt 0.922883 0.809862
vt 0.924218 0.809862
vt 0.399560 0.795372
vt 0.400133 0.939102
vt 0.399086 0.939389
vt 0.924537 0.953593
vt 0.398479 0.795371
vt 0.935041 0.955503
vt 0.934433 0.811485
vt 0.935768 0.811485
vt 0.709616 0.799447
vt 0.709577 0.943546
vt 0.708857 0.943177
vt 0.936087 0.955216
vt 0.850444 0.956312
vt 0.849836 0.812294
vt 0.851171 0.812294
vt 0.493808 0.939471
vt 0.851490 0.956025
vt 0.911242 0.956100
vt 0.910920 0.812370
vt 0.912255 0.812370
vt 0.504157 0.795372
vt 0.504730 0.939102
vt 0.503683 0.939389
vt 0.503076 0.795371
vt 0.130293 0.788240
vt 0.131911 0.927152
vt 0.378931 0.795104
vt 0.379089 0.934335
vt 0.377462 0.934394
vt 0.119813 0.788169
vt 0.120093 0.927573
vt 0.118820 0.927255
vt 0.117765 0.788304
vt 0.117162 0.927159
vt 0.141950 0.788240
vt 0.143569 0.927152
vt 0.141844 0.927419
vt 0.140727 0.787985
vt 0.140567 0.927155
vt 0.367571 0.795104
vt 0.367728 0.934335
vt 0.366102 0.934394
vt 0.550020 0.004498
vt 0.282125 0.272801
vt 0.282073 0.004655
vt 0.862431 0.004682
vt 0.862569 0.268078
vt 0.857359 0.268093
vt 0.871061 0.542323
vt 0.875769 0.282127
vt 0.876270 0.542331
vt 0.870411 0.282106
vt 0.550200 0.272772
vt 0.833167 0.485655
vt 0.835971 0.281754
vt 0.841181 0.281760
vt 0.838529 0.485733
vt 0.272927 0.004824
vt 0.004499 0.272605
vt 0.004649 0.004658
vt 0.857069 0.004556
vt 0.272776 0.272772
vt 0.835971 0.659982
vt 0.841181 0.659988
vt 0.559445 0.247517
vt 0.707412 0.004527
vt 0.707777 0.247586
vt 0.529462 0.282068
vt 0.529535 0.529482
vt 0.282135 0.529540
vt 0.559264 0.004595
vt 0.005034 0.778942
vt 0.152913 0.539242
vt 0.153170 0.779242
vt 0.541435 0.630713
vt 0.687070 0.470146
vt 0.689571 0.630885
vt 0.282062 0.282126
vt 0.538751 0.469885
vt 0.689571 0.281927
vt 0.252035 0.282070
vt 0.252111 0.529484
vt 0.004716 0.529539
vt 0.541435 0.281754
vt 0.004639 0.282126
vt 0.004594 0.538862
vt 0.420679 0.785650
vt 0.467021 0.538928
vt 0.466966 0.785800
vt 0.420734 0.538807
vt 0.753622 0.549110
vt 0.753923 0.546872
vt 0.799645 0.547626
vt 0.913728 0.004689
vt 0.910838 0.256197
vt 0.910762 0.004777
vt 0.913605 0.282116
vt 0.913682 0.533536
vt 0.910714 0.533625
vt 0.979675 0.363376
vt 0.982289 0.409351
vt 0.979676 0.409104
vt 0.753602 0.712461
vt 0.799905 0.549961
vt 0.800090 0.713229
vt 0.910638 0.282205
vt 0.982384 0.363054
vt 0.913805 0.256108
vt 0.631591 0.930430
vt 0.631484 0.933604
vt 0.629279 0.933604
vt 0.925038 0.282101
vt 0.923310 0.531478
vt 0.922740 0.282042
vt 0.925212 0.531477
vt 0.889584 0.004590
vt 0.885480 0.258777
vt 0.885388 0.004634
vt 0.629293 0.930335
vt 0.888220 0.551249
vt 0.884116 0.805437
vt 0.884025 0.551293
vt 0.888311 0.805393
vt 0.645003 0.256938
vt 0.642768 0.260933
vt 0.642889 0.256862
vt 0.889675 0.258734
vt 0.628322 0.765187
vt 0.626420 0.765189
vt 0.645066 0.261031
vt 0.704337 0.257797
vt 0.704103 0.259849
vt 0.701957 0.259857
vt 0.701346 0.257848
vt 0.703031 0.256590
vt 0.079033 0.913401
vt 0.076003 0.912984
vt 0.078006 0.912418
vt 0.692387 0.257797
vt 0.690006 0.259856
vt 0.689396 0.257848
vt 0.691081 0.256590
vt 0.983213 0.282824
vt 0.981662 0.284041
vt 0.980447 0.282061
vt 0.982187 0.281841
vt 0.692153 0.259849
vt 0.936652 0.551246
vt 0.935425 0.802333
vt 0.934617 0.551150
vt 0.827231 0.004469
vt 0.827334 0.260472
vt 0.816567 0.260552
vt 0.936914 0.802332
vt 0.609943 0.267473
vt 0.612017 0.257138
vt 0.611958 0.267557
vt 0.949935 0.170783
vt 0.949893 0.178861
vt 0.947674 0.178859
vt 0.847465 0.004470
vt 0.836801 0.260553
vt 0.836698 0.004550
vt 0.947921 0.170646
vt 0.847567 0.260473
vt 0.946767 0.004328
vt 0.816464 0.004549
vt 0.945279 0.004328
vt 0.610005 0.257011
vt 0.365525 0.785650
vt 0.411868 0.538928
vt 0.411812 0.785800
vt 0.365580 0.538807
vt 0.777553 0.283992
vt 0.777854 0.281754
vt 0.823575 0.282508
vt 0.835774 0.669005
vt 0.832884 0.920513
vt 0.832808 0.669093
vt 0.823836 0.284843
vt 0.901765 0.004689
vt 0.898875 0.256198
vt 0.898799 0.004779
vt 0.901842 0.256109
vt 0.819054 0.936814
vt 0.821763 0.936491
vt 0.821668 0.982789
vt 0.819055 0.982542
vt 0.777533 0.447342
vt 0.824021 0.448110
vt 0.835851 0.920424
vt 0.925162 0.004675
vt 0.923434 0.254051
vt 0.922863 0.004616
vt 0.875967 0.004591
vt 0.876057 0.258734
vt 0.871862 0.258778
vt 0.925336 0.254051
vt 0.656553 0.256938
vt 0.654317 0.260933
vt 0.654438 0.256862
vt 0.950327 0.446997
vt 0.950219 0.450171
vt 0.948015 0.450171
vt 0.948028 0.446902
vt 0.871771 0.004634
vt 0.656616 0.261031
vt 0.947057 0.281754
vt 0.945155 0.281756
vt 0.889460 0.282017
vt 0.889551 0.536161
vt 0.885356 0.536204
vt 0.885265 0.282060
vt 0.680437 0.257797
vt 0.680203 0.259849
vt 0.678057 0.259856
vt 0.677461 0.257838
vt 0.679131 0.256590
vt 0.985004 0.552057
vt 0.983442 0.553281
vt 0.982238 0.551294
vt 0.983978 0.551073
vt 0.874727 0.268905
vt 0.871752 0.268946
vt 0.873421 0.267698
vt 0.872347 0.270964
vt 0.091284 0.913401
vt 0.089722 0.914625
vt 0.088517 0.912638
vt 0.090257 0.912418
vt 0.874493 0.270957
vt 0.936238 0.282013
vt 0.935011 0.533101
vt 0.934203 0.281918
vt 0.936500 0.533100
vt 0.950225 0.717442
vt 0.950184 0.725520
vt 0.947964 0.725518
vt 0.860959 0.281896
vt 0.850295 0.537978
vt 0.850192 0.281976
vt 0.819867 0.547014
vt 0.819970 0.803017
vt 0.809203 0.803097
vt 0.620818 0.267473
vt 0.622892 0.257138
vt 0.622833 0.267557
vt 0.947058 0.550987
vt 0.948212 0.717305
vt 0.945569 0.550987
vt 0.620880 0.257011
vt 0.861061 0.537899
vt 0.809100 0.547094
vt 0.475832 0.785650
vt 0.522175 0.538928
vt 0.522120 0.785800
vt 0.475887 0.538807
vt 0.698363 0.549110
vt 0.698664 0.546872
vt 0.744385 0.547626
vt 0.914018 0.551348
vt 0.911128 0.802856
vt 0.911052 0.551436
vt 0.744646 0.549961
vt 0.901642 0.282116
vt 0.898751 0.533625
vt 0.898675 0.282205
vt 0.901718 0.533536
vt 0.698343 0.712461
vt 0.744830 0.713229
vt 0.684263 0.924954
vt 0.686972 0.924632
vt 0.686877 0.970929
vt 0.914095 0.802767
vt 0.684264 0.970682
vt 0.901838 0.551249
vt 0.901928 0.805393
vt 0.897733 0.805436
vt 0.262978 0.281757
vt 0.266248 0.447000
vt 0.263950 0.446905
vt 0.261077 0.281759
vt 0.668102 0.256938
vt 0.668165 0.261031
vt 0.665867 0.260933
vt 0.263936 0.450174
vt 0.266140 0.450174
vt 0.897642 0.551293
vt 0.874603 0.551250
vt 0.870499 0.805437
vt 0.870408 0.551293
vt 0.925452 0.551333
vt 0.923724 0.800710
vt 0.923154 0.551274
vt 0.874694 0.805393
vt 0.925626 0.800710
vt 0.665988 0.256862
vt 0.898627 0.268905
vt 0.895621 0.269010
vt 0.897284 0.267698
vt 0.896248 0.270964
vt 0.983090 0.155360
vt 0.985070 0.154788
vt 0.898393 0.270957
vt 0.886677 0.268905
vt 0.886443 0.270957
vt 0.884298 0.270964
vt 0.883672 0.269010
vt 0.885334 0.267698
vt 0.985004 0.633182
vt 0.982237 0.632419
vt 0.983954 0.632193
vt 0.936361 0.004587
vt 0.935135 0.255674
vt 0.934327 0.004491
vt 0.936624 0.255673
vt 0.688919 0.907723
vt 0.688877 0.915802
vt 0.686658 0.915799
vt 0.860959 0.546918
vt 0.850295 0.803001
vt 0.850192 0.546998
vt 0.685752 0.741268
vt 0.686906 0.907587
vt 0.684263 0.741268
vt 0.806998 0.004469
vt 0.796334 0.260552
vt 0.796231 0.004549
vt 0.807101 0.260472
vt 0.861061 0.802921
vt 0.631693 0.267473
vt 0.633767 0.257138
vt 0.633708 0.267557
vt 0.631754 0.257011
vt 0.356477 0.538892
vt 0.241646 0.684510
vt 0.241322 0.538872
vt 0.356497 0.684381
vt 0.634853 0.639844
vt 0.637582 0.640061
vt 0.637582 0.754835
vt 0.066499 0.788237
vt 0.063046 0.936415
vt 0.063022 0.788252
vt 0.799229 0.722225
vt 0.799253 0.870387
vt 0.795776 0.870402
vt 0.819054 0.812394
vt 0.822338 0.927352
vt 0.819055 0.927169
vt 0.634825 0.754988
vt 0.795751 0.722240
vt 0.538502 0.641623
vt 0.538500 0.756531
vt 0.822365 0.812207
vt 0.066523 0.936400
vt 0.838168 0.929932
vt 0.832789 0.968410
vt 0.832916 0.929748
vt 0.646659 0.639932
vt 0.684399 0.639639
vt 0.684531 0.732210
vt 0.646657 0.732404
vt 0.671486 0.741475
vt 0.675608 0.741808
vt 0.675602 0.833842
vt 0.646448 0.843601
vt 0.651703 0.936193
vt 0.646315 0.935838
vt 0.651759 0.843952
vt 0.838039 0.968595
vt 0.646343 0.742061
vt 0.671426 0.833938
vt 0.646449 0.834623
vt 0.266570 0.459233
vt 0.261191 0.497711
vt 0.261318 0.459049
vt 0.266441 0.497895
vt 0.754706 0.722243
vt 0.786559 0.808487
vt 0.754796 0.808547
vt 0.786560 0.722104
vt 0.305666 0.786250
vt 0.327164 0.871786
vt 0.305673 0.871881
vt 0.327156 0.785832
vt 0.979503 0.004659
vt 0.980849 0.090664
vt 0.979404 0.090666
vt 0.980812 0.004824
vt 0.969902 0.282245
vt 0.971020 0.282255
vt 0.971020 0.368087
vt 0.753857 0.270146
vt 0.755265 0.271347
vt 0.754027 0.271372
vt 0.983214 0.432465
vt 0.984415 0.518624
vt 0.983237 0.518714
vt 0.984445 0.432460
vt 0.755083 0.269985
vt 0.744892 0.271207
vt 0.743511 0.271374
vt 0.743673 0.269816
vt 0.968939 0.282255
vt 0.969870 0.368246
vt 0.968939 0.368088
vt 0.744721 0.269981
vt 0.821627 0.512452
vt 0.823792 0.528367
vt 0.821446 0.528191
vt 0.713432 0.952739
vt 0.715550 0.968573
vt 0.713193 0.968340
vt 0.715712 0.952834
vt 0.823928 0.512625
vt 0.736361 0.952639
vt 0.738662 0.952813
vt 0.738526 0.968554
vt 0.736180 0.968379
vt 0.725078 0.952739
vt 0.727196 0.968573
vt 0.724838 0.968340
vt 0.727358 0.952834
vt 0.336340 0.806555
vt 0.352467 0.693729
vt 0.352429 0.806619
vt 0.081601 0.788276
vt 0.081680 0.903123
vt 0.075532 0.903127
vt 0.336378 0.693671
vt 0.698490 0.952527
vt 0.704018 0.968617
vt 0.698513 0.968743
vt 0.037688 0.867263
vt 0.053932 0.792939
vt 0.054049 0.867544
vt 0.037846 0.792623
vt 0.704066 0.952522
vt 0.096458 0.788275
vt 0.096538 0.903121
vt 0.090389 0.903125
vt 0.038322 0.787897
vt 0.053665 0.788151
vt 0.090419 0.788323
vt 0.075562 0.788324
vt 0.709868 0.270172
vt 0.711181 0.269655
vt 0.712438 0.271170
vt 0.711587 0.272597
vt 0.709899 0.272205
vt 0.698967 0.272600
vt 0.698316 0.270617
vt 0.700082 0.270041
vt 0.700939 0.271837
vt 0.721541 0.270172
vt 0.722853 0.269655
vt 0.724111 0.271170
vt 0.723259 0.272597
vt 0.721572 0.272205
vt 0.677883 0.272201
vt 0.677231 0.270219
vt 0.678998 0.269642
vt 0.679854 0.271438
vt 0.025541 0.788102
vt 0.029033 0.788430
vt 0.029027 0.861858
vt 0.025487 0.862074
vt 0.973015 0.107868
vt 0.968467 0.140145
vt 0.968418 0.107931
vt 0.241470 0.785567
vt 0.273124 0.859528
vt 0.241437 0.859545
vt 0.973064 0.140082
vt 0.004507 0.788449
vt 0.004536 0.862583
vt 0.273081 0.785386
vt 0.974887 0.236262
vt 0.970339 0.268540
vt 0.970290 0.236325
vt 0.945367 0.459046
vt 0.949813 0.533040
vt 0.945318 0.533018
vt 0.949868 0.459068
vt 0.974937 0.268477
vt 0.105492 0.936729
vt 0.119147 0.956583
vt 0.105490 0.956650
vt 0.119137 0.936662
vt 0.138033 0.936646
vt 0.143240 0.936951
vt 0.143240 0.956435
vt 0.581022 0.256829
vt 0.574480 0.270822
vt 0.574470 0.256775
vt 0.129025 0.936837
vt 0.138007 0.956565
vt 0.129051 0.956783
vt 0.565753 0.256830
vt 0.559211 0.270823
vt 0.559202 0.256775
vt 0.261077 0.507379
vt 0.267606 0.507344
vt 0.267563 0.526844
vt 0.261087 0.526863
vt 0.565762 0.270878
vt 0.581031 0.270877
vt 0.611434 0.995285
vt 0.990057 0.931361
vt 0.988907 0.931254
vt 0.989675 0.885430
vt 0.627751 0.988590
vt 0.626601 0.988483
vt 0.627369 0.942659
vt 0.988907 0.875879
vt 0.019978 0.871601
vt 0.306915 0.962433
vt 0.306053 0.961658
vt 0.307033 0.961423
vt 0.799289 0.879823
vt 0.172135 0.804123
vt 0.453183 0.939102
vt 0.204717 0.947854
vt 0.708535 0.799446
vt 0.912574 0.956100
vt 0.993550 0.327981
vt 0.821557 0.502989
vt 0.463463 0.994480
vt 0.989817 0.050551
vt 0.182873 0.958254
vt 0.183649 0.957392
vt 0.183885 0.958372
vt 0.441463 0.994730
vt 0.182641 0.957276
vt 0.965748 0.986673
vt 0.806755 0.269840
vt 0.389793 0.994480
vt 0.453154 0.994480
vt 0.581802 0.995311
vt 0.265213 0.868690
vt 0.973757 0.155158
vt 0.970414 0.155151
vt 0.268229 0.868677
vt 0.979663 0.734768
vt 0.309521 0.881199
vt 0.948523 0.187787
vt 0.398732 0.994739
vt 0.365629 0.989504
vt 0.494391 0.994480
vt 0.493020 0.994740
vt 0.988907 0.986629
vt 0.472401 0.994739
vt 0.376990 0.989504
vt 0.990721 0.106162
vt 0.989817 0.105926
vt 0.990460 0.060042
vt 0.993820 0.478483
vt 0.979663 0.897077
vt 0.322344 0.881199
vt 0.255822 0.868677
vt 0.974106 0.432726
vt 0.949424 0.887980
vt 0.672330 0.992982
vt 0.992527 0.409210
vt 0.991378 0.409103
vt 0.992146 0.363279
vt 0.503329 0.994739
vt 0.647568 0.991408
vt 0.646418 0.991301
vt 0.647186 0.945477
vt 0.193142 0.957434
vt 0.194004 0.958210
vt 0.193024 0.958446
vt 0.513628 0.994730
vt 0.305937 0.962666
vt 0.194120 0.957202
vt 0.660696 0.992720
vt 0.561943 0.995285
vt 0.482710 0.994739
vt 0.064035 0.991741
vt 0.062885 0.991634
vt 0.063653 0.945810
vt 0.431164 0.994739
vt 0.296640 0.951540
vt 0.295490 0.951433
vt 0.296258 0.905609
vt 0.038706 0.876719
vt 0.979901 0.815781
vt 0.972497 0.631866
vt 0.985062 0.634232
vt 0.005345 0.871851
vt 0.286246 0.905802
vt 0.377283 0.795165
vt 0.131911 0.788398
vt 0.365922 0.795165
vt 0.143569 0.788398
s 1
usemtl factory_003_baked
f 1/1/1 2/2/1 3/3/1
f 1/1/1 3/3/1 4/4/1
f 5/5/2 6/6/2 7/7/2
f 8/8/3 9/9/3 10/10/3
f 12/11/1 11/12/1 13/13/1
f 12/11/1 13/13/1 14/14/1
f 15/15/2 16/16/2 17/17/2
f 18/18/3 19/19/3 20/20/3
f 21/21/1 22/22/1 23/23/1
f 21/21/1 23/23/1 24/24/1
f 25/25/2 26/26/2 27/27/2
f 28/28/3 29/29/3 30/30/3
f 31/31/4 32/32/4 33/33/4
f 31/31/4 33/33/4 34/34/4
f 81/35/5 79/36/6 80/37/7
f 84/38/8 82/39/9 83/40/10
f 88/41/11 85/42/12 87/43/13
f 163/44/14 159/45/15 162/46/16
f 164/47/17 167/48/18 166/49/19
f 169/50/20 167/51/18 164/52/17
f 177/53/21 176/54/22 172/55/23
f 182/56/21 180/57/22 187/58/23
f 230/59/9 232/60/24 226/61/6
f 239/62/25 234/63/26 235/64/27
f 261/65/28 255/66/29 256/67/30
f 291/68/31 290/69/32 289/70/33
f 326/71/34 325/72/35 328/73/36
f 337/74/37 339/75/38 340/76/39
f 388/77/40 383/78/41 384/79/42
f 385/80/43 384/79/42 389/81/44
f 387/82/45 381/83/46 382/84/47
f 69/85/48 67/86/49 68/87/50
f 67/88/49 70/89/51 68/90/50
f 69/91/48 70/92/51 67/93/49
f 71/94/52 68/95/50 70/96/51
f 76/97/48 72/98/49 73/99/50
f 72/100/49 74/101/51 73/102/50
f 76/103/48 74/104/51 72/105/49
f 75/106/52 73/107/50 74/108/51
f 82/109/9 78/110/24 79/111/6
f 84/112/8 77/113/53 78/110/24
f 83/114/10 80/115/7 77/116/53
f 86/117/54 87/118/13 85/119/12
f 90/120/55 91/121/56 93/122/57
f 92/123/58 93/124/57 91/125/56
f 89/126/59 92/127/58 90/128/55
f 96/129/60 100/130/61 97/131/62
f 97/132/62 101/133/63 94/134/64
f 102/135/65 96/129/60 103/136/66
f 98/137/67 103/138/66 95/139/68
f 99/140/69 95/141/68 94/142/64
f 105/143/22 110/144/70 106/145/71
f 106/146/71 110/147/70 113/148/72
f 108/149/21 105/143/22 104/150/23
f 109/151/73 104/152/23 112/153/74
f 111/154/75 112/155/74 113/156/72
f 141/157/76 139/158/77 138/159/78
f 144/160/79 139/161/77 141/162/76
f 140/163/80 138/164/78 139/161/77
f 143/165/81 140/166/80 144/167/79
f 138/159/78 142/168/82 141/157/76
f 143/169/81 142/170/82 138/171/78
f 144/172/79 141/173/76 142/174/82
f 148/175/83 147/176/84 145/177/85
f 150/178/86 148/179/83 149/180/87
f 147/181/84 146/182/88 145/183/85
f 150/184/86 146/185/88 147/186/84
f 149/187/87 145/188/85 146/189/88
f 153/190/19 156/191/77 151/192/78
f 157/193/79 156/194/77 153/195/19
f 154/196/80 151/197/78 156/194/77
f 155/198/81 154/199/80 157/200/79
f 151/192/78 152/201/89 153/190/19
f 155/202/81 152/203/89 151/204/78
f 157/205/79 153/206/19 152/207/89
f 162/208/16 159/209/15 158/210/90
f 160/211/91 158/212/90 159/45/15
f 161/213/92 162/214/16 158/215/90
f 163/216/14 161/217/92 160/218/91
f 166/49/19 165/219/93 164/47/17
f 168/220/94 165/221/93 166/222/19
f 169/223/20 164/224/17 165/221/93
f 168/225/94 166/226/19 167/227/18
f 176/54/22 175/228/70 173/229/71
f 173/230/71 175/231/70 170/232/72
f 178/233/95 172/234/23 171/235/74
f 179/236/75 171/237/74 170/238/72
f 180/57/22 181/239/70 185/240/96
f 185/241/96 181/242/70 189/243/72
f 183/244/95 187/245/23 188/246/74
f 184/247/75 188/248/74 189/249/72
f 217/250/27 214/251/97 218/252/98
f 219/253/99 214/254/97 217/255/27
f 215/256/100 218/257/98 214/254/97
f 216/258/101 215/259/100 219/260/99
f 219/261/99 217/262/27 218/263/98
f 222/264/27 221/265/26 220/266/98
f 225/267/25 221/268/26 222/269/27
f 223/270/100 220/271/98 221/268/26
f 224/272/102 223/273/100 225/274/25
f 225/275/25 222/276/27 220/277/98
f 233/278/8 231/279/53 232/60/24
f 228/280/10 227/281/7 231/282/53
f 229/283/5 226/284/6 227/285/7
f 235/286/27 234/287/26 237/288/98
f 236/289/100 237/290/98 234/63/26
f 238/291/101 236/292/100 239/293/25
f 239/294/25 235/295/27 237/296/98
f 240/297/27 241/298/26 242/299/98
f 245/300/25 241/301/26 240/302/27
f 243/303/100 242/304/98 241/301/26
f 244/305/102 243/306/100 245/307/25
f 245/308/25 240/309/27 242/310/98
f 247/311/103 251/312/104 246/313/105
f 248/314/106 246/313/105 252/315/107
f 249/316/108 252/317/107 253/318/109
f 250/319/110 253/320/109 254/321/30
f 250/322/110 254/323/30 251/324/104
f 262/325/111 257/326/112 263/327/113
f 258/328/114 263/327/113 264/329/115
f 259/330/116 264/331/115 255/332/29
f 261/333/28 256/334/30 257/335/112
f 283/336/33 282/337/117 281/338/31
f 282/339/117 283/340/33 284/341/32
f 281/338/31 284/342/32 283/336/33
f 284/341/32 281/343/31 282/339/117
f 285/344/33 287/345/118 288/346/31
f 287/347/118 285/348/33 286/349/32
f 288/346/31 286/350/32 285/344/33
f 286/349/32 288/351/31 287/347/118
f 289/70/33 292/352/117 291/68/31
f 292/353/117 289/354/33 290/355/32
f 290/355/32 291/356/31 292/353/117
f 296/357/119 294/358/120 293/359/121
f 294/360/120 296/361/119 295/362/122
f 293/359/121 295/363/122 296/357/119
f 295/362/122 293/364/121 294/360/120
f 299/365/123 298/366/124 297/367/125
f 298/368/124 299/369/123 300/370/126
f 297/367/125 300/371/126 299/365/123
f 300/370/126 297/372/125 298/368/124
f 301/373/127 303/374/128 302/375/129
f 303/376/128 301/377/127 304/378/130
f 305/379/123 307/380/124 306/381/125
f 307/382/124 305/383/123 308/384/131
f 306/381/125 308/385/131 305/379/123
f 308/384/131 306/386/125 307/382/124
f 311/387/132 310/388/133 309/389/134
f 310/390/133 311/391/132 312/392/135
f 309/389/134 312/393/135 311/387/132
f 312/392/135 309/394/134 310/390/133
f 314/395/136 313/396/120 315/397/137
f 313/398/120 314/399/136 316/400/122
f 315/397/137 316/401/122 314/395/136
f 316/400/122 315/402/137 313/398/120
f 320/403/138 317/404/139 318/405/125
f 317/406/139 320/407/138 319/408/140
f 319/408/140 318/409/125 317/406/139
f 324/410/136 321/411/120 323/412/137
f 321/413/120 324/414/136 322/415/122
f 323/412/137 322/416/122 324/410/136
f 322/415/122 323/417/137 321/413/120
f 325/418/35 326/419/34 327/420/141
f 327/420/141 328/421/36 325/418/35
f 328/73/36 327/422/141 326/71/34
f 332/423/136 329/424/120 331/425/137
f 329/426/120 332/427/136 330/428/122
f 331/425/137 330/429/122 332/423/136
f 330/428/122 331/430/137 329/426/120
f 335/431/142 336/432/143 334/433/144
f 336/434/143 335/435/142 333/436/145
f 334/433/144 333/437/145 335/431/142
f 338/438/146 340/439/39 339/440/38
f 340/76/39 338/441/146 337/74/37
f 339/440/38 337/442/37 338/438/146
f 343/443/147 341/444/148 342/445/149
f 341/446/148 343/447/147 344/448/150
f 344/448/150 342/449/149 341/446/148
f 386/450/151 389/451/44 381/83/46
f 387/452/45 382/453/47 383/454/41
f 394/455/40 393/456/41 391/457/42
f 395/458/43 391/457/42 390/459/44
f 396/460/152 390/461/44 397/462/46
f 398/463/45 397/462/46 392/464/153
f 398/465/45 392/466/153 393/467/41
f 38/468/154 35/469/155 39/470/156
f 39/471/156 35/472/155 40/473/157
f 35/474/155 42/475/158 40/476/157
f 35/474/155 41/477/159 42/475/158
f 38/468/154 41/478/159 35/469/155
f 38/479/154 39/480/156 36/481/160
f 38/479/154 36/481/160 37/482/161
f 36/483/160 42/484/158 37/485/161
f 39/471/156 40/473/157 36/486/160
f 36/483/160 40/487/157 42/484/158
f 41/488/159 37/482/161 42/489/158
f 41/488/159 38/479/154 37/482/161
f 48/490/162 43/491/163 49/492/164
f 49/493/164 43/494/163 50/495/165
f 48/490/162 47/496/166 43/491/163
f 47/497/166 50/498/165 43/499/163
f 46/500/167 44/501/168 50/502/165
f 49/493/164 50/495/165 44/503/168
f 46/500/167 45/504/169 44/501/168
f 45/504/169 49/505/164 44/501/168
f 45/506/169 46/507/167 47/508/166
f 45/504/169 48/509/162 49/505/164
f 45/506/169 47/508/166 48/510/162
f 47/497/166 46/511/167 50/498/165
f 51/512/170 52/513/171 57/514/172
f 51/512/170 56/515/173 52/513/171
f 55/516/174 51/517/170 57/518/172
f 55/519/174 56/520/173 51/521/170
f 57/522/172 52/523/171 58/524/175
f 56/525/173 58/526/175 52/527/171
f 54/528/176 53/529/177 58/530/175
f 57/522/172 58/524/175 53/531/177
f 54/528/176 55/516/174 53/529/177
f 55/516/174 57/518/172 53/529/177
f 56/525/173 54/532/176 58/526/175
f 55/519/174 54/533/176 56/520/173
f 64/534/178 59/535/179 60/536/180
f 59/537/179 61/538/181 60/539/180
f 59/537/179 63/540/182 61/538/181
f 64/541/178 63/542/182 59/543/179
f 64/534/178 60/536/180 66/544/183
f 60/545/180 65/546/184 66/547/183
f 60/545/180 61/548/181 65/546/184
f 63/549/182 65/550/184 61/551/181
f 64/541/178 62/552/185 63/542/182
f 62/553/185 66/544/183 65/554/184
f 62/553/185 64/534/178 66/544/183
f 63/549/182 62/555/185 65/550/184
f 94/556/64 95/557/68 103/558/66
f 94/556/64 103/558/66 96/559/60
f 94/556/64 96/559/60 97/560/62
f 101/561/63 102/135/65 98/562/67
f 101/561/63 98/562/67 99/563/69
f 101/561/63 100/130/61 102/135/65
f 113/564/72 104/565/23 105/566/22
f 113/564/72 105/566/22 106/567/71
f 110/568/70 107/569/186 108/149/21
f 110/568/70 108/149/21 109/570/73
f 110/568/70 109/570/73 111/571/75
f 113/564/72 112/572/74 104/565/23
f 115/573/187 114/574/188 117/575/189
f 117/576/189 114/577/188 119/578/190
f 115/573/187 121/579/191 114/574/188
f 121/580/191 119/581/190 114/582/188
f 116/583/192 115/584/187 117/585/189
f 116/586/192 121/587/191 115/588/187
f 116/583/192 117/585/189 118/589/193
f 116/586/192 120/590/194 121/587/191
f 120/591/194 116/583/192 118/589/193
f 117/576/189 119/578/190 118/592/193
f 120/591/194 118/589/193 119/593/190
f 121/580/191 120/594/194 119/581/190
f 122/595/170 128/596/171 123/597/172
f 122/595/170 126/598/173 128/596/171
f 127/599/174 122/600/170 123/601/172
f 127/602/174 126/603/173 122/604/170
f 127/599/174 123/601/172 129/605/177
f 123/606/172 124/607/175 129/608/177
f 123/606/172 128/609/171 124/607/175
f 126/610/173 125/611/176 124/612/175
f 126/610/173 124/612/175 128/613/171
f 125/614/176 129/605/177 124/615/175
f 127/602/174 125/616/176 126/603/173
f 125/614/176 127/599/174 129/605/177
f 135/617/179 130/618/181 131/619/195
f 131/620/195 130/621/181 134/622/196
f 135/617/179 137/623/182 130/618/181
f 137/624/182 134/625/196 130/626/181
f 136/627/178 135/628/179 131/629/195
f 136/627/178 131/629/195 133/630/183
f 131/620/195 134/622/196 133/631/183
f 137/624/182 132/632/185 134/625/196
f 132/633/185 133/630/183 134/634/196
f 132/633/185 136/627/178 133/630/183
f 136/635/178 132/636/185 137/637/182
f 136/635/178 137/637/182 135/638/179
f 170/639/72 171/640/74 172/641/23
f 170/639/72 172/641/23 176/642/22
f 170/639/72 176/642/22 173/643/71
f 175/644/70 174/645/186 177/53/21
f 175/644/70 177/53/21 178/646/95
f 175/644/70 178/646/95 179/647/75
f 189/648/72 180/649/22 185/650/96
f 189/648/72 187/651/23 180/649/22
f 181/652/70 186/653/186 182/56/21
f 181/652/70 182/56/21 183/654/95
f 181/652/70 183/654/95 184/655/75
f 189/648/72 188/656/74 187/651/23
f 190/657/187 191/658/188 193/659/189
f 190/657/187 196/660/191 191/658/188
f 195/661/192 190/662/187 193/663/189
f 195/664/192 196/665/191 190/666/187
f 193/667/189 191/668/188 194/669/190
f 196/670/191 194/671/190 191/672/188
f 192/673/194 197/674/197 194/675/190
f 192/673/194 195/661/192 197/674/197
f 196/670/191 192/676/194 194/671/190
f 195/664/192 192/677/194 196/665/191
f 195/661/192 193/663/189 197/674/197
f 193/667/189 194/669/190 197/678/197
f 198/679/170 203/680/171 199/681/172
f 198/679/170 201/682/173 203/680/171
f 202/683/174 198/684/170 199/685/172
f 202/686/174 201/687/173 198/688/170
f 202/683/174 199/685/172 205/689/177
f 199/690/172 204/691/175 205/692/177
f 199/690/172 203/693/171 204/691/175
f 200/694/176 205/689/177 204/695/175
f 200/694/176 202/683/174 205/689/177
f 201/696/173 200/697/176 204/698/175
f 202/686/174 200/699/176 201/687/173
f 201/696/173 204/698/175 203/700/171
f 207/701/198 206/702/185 210/703/182
f 206/704/185 207/705/198 208/706/183
f 206/704/185 208/706/183 213/707/196
f 210/708/182 206/709/185 213/710/196
f 207/705/198 212/711/180 208/706/183
f 207/705/198 211/712/179 212/711/180
f 207/701/198 210/703/182 211/713/179
f 212/714/180 213/715/196 208/716/183
f 211/717/179 209/718/181 212/719/180
f 212/714/180 209/720/181 213/715/196
f 211/717/179 210/721/182 209/718/181
f 210/708/182 213/710/196 209/722/181
f 254/723/30 246/724/105 251/725/104
f 254/723/30 252/726/107 246/724/105
f 247/311/103 248/314/106 249/727/108
f 247/311/103 249/727/108 250/728/110
f 254/723/30 253/729/109 252/726/107
f 256/730/30 255/731/29 264/732/115
f 256/730/30 264/732/115 263/733/113
f 256/730/30 263/733/113 257/734/112
f 260/735/199 262/325/111 258/328/114
f 260/735/199 259/736/116 261/737/28
f 260/735/199 258/328/114 259/736/116
f 265/738/187 272/739/188 267/740/189
f 265/738/187 269/741/191 272/739/188
f 268/742/192 265/743/187 267/744/189
f 268/745/192 269/746/191 265/747/187
f 270/748/194 266/749/193 271/750/190
f 267/751/189 271/752/190 266/753/193
f 270/748/194 268/742/192 266/749/193
f 268/742/192 267/744/189 266/749/193
f 267/751/189 272/754/188 271/752/190
f 268/745/192 270/755/194 269/746/191
f 269/756/191 271/757/190 272/758/188
f 269/756/191 270/759/194 271/757/190
f 273/760/200 274/761/201 275/762/202
f 273/760/200 278/763/203 274/761/201
f 277/764/204 273/765/200 275/766/202
f 277/767/204 278/768/203 273/769/200
f 275/770/202 274/771/201 279/772/205
f 278/773/203 279/774/205 274/775/201
f 277/764/204 275/766/202 280/776/206
f 275/770/202 279/772/205 280/777/206
f 276/778/207 280/776/206 279/779/205
f 276/778/207 277/764/204 280/776/206
f 278/773/203 276/780/207 279/774/205
f 277/767/204 276/781/207 278/768/203
f 349/782/208 346/783/209 345/784/210
f 345/785/211 346/786/212 352/787/213
f 345/785/211 352/787/213 348/788/214
f 349/789/208 345/790/210 348/791/215
f 346/792/209 351/793/216 352/794/217
f 346/792/209 347/795/218 351/793/216
f 349/782/208 347/796/218 346/783/209
f 347/797/219 350/798/220 351/799/221
f 347/797/219 349/789/222 350/798/220
f 349/789/208 348/791/215 350/798/223
f 348/800/215 351/801/216 350/802/223
f 348/800/215 352/803/217 351/801/216
f 355/804/224 353/805/225 354/806/226
f 355/804/224 356/807/227 353/805/225
f 356/808/227 354/809/226 353/810/225
f 356/808/227 355/811/224 354/809/226
f 357/812/228 363/813/229 362/814/230
f 357/812/228 358/815/231 363/813/229
f 360/816/232 357/817/228 362/818/230
f 360/819/232 358/820/231 357/821/228
f 358/822/231 359/823/233 363/824/229
f 358/822/231 361/825/234 359/823/233
f 360/819/232 361/826/234 358/820/231
f 362/827/230 363/828/229 359/829/233
f 361/830/234 364/831/235 359/832/233
f 362/827/230 359/829/233 364/833/235
f 361/830/234 360/816/232 364/831/235
f 360/816/232 362/818/230 364/831/235
f 368/834/236 367/835/237 365/836/238
f 366/837/239 365/838/238 367/839/237
f 366/837/239 368/840/236 365/838/238
f 368/834/236 366/841/239 367/835/237
f 370/842/236 369/843/239 371/844/237
f 370/842/236 371/844/237 372/845/238
f 369/846/239 372/847/238 371/848/237
f 369/846/239 370/849/236 372/847/238
f 375/850/240 373/851/241 378/852/242
f 378/853/243 373/854/244 379/855/245
f 375/850/240 377/856/246 373/851/241
f 377/857/247 379/858/245 373/859/244
f 374/860/248 380/861/249 379/862/250
f 374/860/248 376/863/251 380/861/249
f 377/857/247 374/864/252 379/858/245
f 376/865/253 374/866/252 377/867/247
f 376/863/253 375/868/254 378/869/243
f 376/865/253 377/867/247 375/870/254
f 376/863/253 378/869/243 380/861/255
f 378/853/243 379/855/245 380/871/255
f 382/872/47 381/873/46 389/874/44
f 382/872/47 384/875/42 383/876/41
f 382/872/47 389/874/44 384/875/42
f 388/877/40 385/878/43 386/879/151
f 388/877/40 386/879/151 387/880/45
f 392/881/153 397/882/46 390/883/44
f 392/881/153 391/884/42 393/885/41
f 392/881/153 390/883/44 391/884/42
f 394/886/40 395/887/43 396/888/152
f 394/886/40 396/888/152 398/889/45
f 404/890/256 401/891/257 399/892/258
f 404/890/256 399/892/258 400/893/259
f 399/894/258 406/895/260 400/896/259
f 401/897/257 405/898/261 399/899/258
f 399/894/258 405/900/261 406/895/260
f 403/901/262 400/893/259 406/902/260
f 403/901/262 404/890/256 400/893/259
f 401/897/257 402/903/263 405/898/261
f 404/904/256 402/905/263 401/906/257
f 402/907/263 406/908/260 405/909/261
f 402/907/263 403/910/262 406/908/260
f 404/904/256 403/911/262 402/905/263
f 407/912/264 413/913/265 414/914/266
f 407/912/264 412/915/267 413/913/265
f 410/916/268 407/917/264 414/918/266
f 410/919/268 412/920/267 407/921/264
f 411/922/269 408/923/270 409/924/271
f 414/925/266 409/926/271 408/927/270
f 411/922/269 410/916/268 408/923/270
f 410/916/268 414/918/266 408/923/270
f 412/928/267 411/929/269 409/930/271
f 412/928/267 409/930/271 413/931/265
f 414/925/266 413/932/265 409/926/271
f 410/919/268 411/933/269 412/920/267
f 81/35/5 82/934/9 79/36/6
f 86/935/54 88/936/11 87/937/13
f 90/938/55 92/939/58 91/940/56
f 163/44/14 160/211/91 159/45/15
f 169/50/20 168/941/94 167/51/18
f 177/53/21 174/645/186 176/54/22
f 182/56/21 186/653/186 180/57/22
f 189/243/72 181/242/70 184/942/75
f 228/943/10 230/944/9 229/945/5
f 230/59/9 233/278/8 232/60/24
f 239/62/25 236/289/100 234/63/26
f 261/65/28 259/946/116 255/66/29
f 304/947/130 301/373/127 302/375/129
f 302/948/129 303/376/128 304/378/130
f 319/949/140 320/403/138 318/405/125
f 334/950/144 336/434/143 333/436/145
f 344/951/150 343/443/147 342/445/149
f 387/82/45 386/450/151 381/83/46
f 71/952/52 69/85/48 68/87/50
f 69/91/48 71/953/52 70/92/51
f 75/954/52 76/97/48 73/99/50
f 76/103/48 75/955/52 74/104/51
f 77/956/53 79/957/6 78/958/24
f 82/109/9 84/112/8 78/110/24
f 84/112/8 83/959/10 77/113/53
f 79/957/6 77/956/53 80/960/7
f 83/114/10 81/961/5 80/115/7
f 83/40/10 82/39/9 81/962/5
f 88/963/11 86/117/54 85/119/12
f 89/964/59 90/120/55 93/122/57
f 92/123/58 89/965/59 93/124/57
f 97/132/62 100/966/61 101/133/63
f 96/129/60 102/135/65 100/130/61
f 98/137/67 102/967/65 103/138/66
f 99/968/69 98/137/67 95/139/68
f 94/134/64 101/133/63 99/969/69
f 105/143/22 107/569/186 110/144/70
f 108/149/21 107/569/186 105/143/22
f 109/151/73 108/970/21 104/152/23
f 111/154/75 109/971/73 112/155/74
f 113/148/72 110/147/70 111/972/75
f 144/160/79 140/163/80 139/161/77
f 140/163/80 143/973/81 138/164/78
f 143/169/81 144/974/79 142/170/82
f 149/975/87 148/175/83 145/177/85
f 148/175/83 150/976/86 147/176/84
f 150/184/86 149/977/87 146/185/88
f 157/193/79 154/196/80 156/194/77
f 154/196/80 155/978/81 151/197/78
f 155/202/81 157/979/79 152/203/89
f 160/980/91 161/981/92 158/982/90
f 161/213/92 163/983/14 162/214/16
f 168/220/94 169/223/20 165/221/93
f 176/54/22 174/645/186 175/228/70
f 178/233/95 177/984/21 172/234/23
f 179/236/75 178/985/95 171/237/74
f 170/232/72 175/231/70 179/986/75
f 180/57/22 186/653/186 181/239/70
f 183/244/95 182/987/21 187/245/23
f 184/247/75 183/988/95 188/248/74
f 219/253/99 215/256/100 214/254/97
f 215/256/100 216/989/101 218/257/98
f 216/990/101 219/991/99 218/992/98
f 225/267/25 223/270/100 221/268/26
f 223/270/100 224/993/102 220/271/98
f 224/994/102 225/995/25 220/996/98
f 231/997/53 226/998/6 232/999/24
f 233/278/8 228/1000/10 231/279/53
f 230/944/9 228/943/10 233/1001/8
f 226/998/6 231/997/53 227/1002/7
f 228/280/10 229/1003/5 227/281/7
f 229/283/5 230/1004/9 226/284/6
f 236/289/100 238/1005/101 237/290/98
f 238/1006/101 239/1007/25 237/1008/98
f 245/300/25 243/303/100 241/301/26
f 243/303/100 244/1009/102 242/304/98
f 244/1010/102 245/1011/25 242/1012/98
f 247/1013/103 250/322/110 251/324/104
f 246/313/105 248/314/106 247/311/103
f 249/316/108 248/1014/106 252/317/107
f 250/319/110 249/1015/108 253/320/109
f 262/325/111 260/1016/199 257/326/112
f 260/1017/199 261/333/28 257/335/112
f 258/328/114 262/325/111 263/327/113
f 259/330/116 258/1018/114 264/331/115
f 388/1019/40 387/452/45 383/454/41
f 385/80/43 388/77/40 384/79/42
f 386/450/151 385/1020/43 389/451/44
f 394/1021/40 398/465/45 393/467/41
f 395/458/43 394/455/40 391/457/42
f 396/460/152 395/1022/43 390/461/44
f 398/463/45 396/460/152 397/462/46
