# Blender 4.5.0
# www.blender.org
mtllib factory_004.lod1.mtl
o factory_004
v 0.620955 3.498722 -3.105410
v 0.620955 3.158360 -3.105410
v -1.922958 3.498722 -3.105410
v -1.922958 3.158360 -3.105410
v -3.248536 0.138686 -3.250000
v 3.248536 0.138686 3.250000
v -3.248536 0.001463 3.250000
v 3.250000 0.000000 3.247612
v -3.250000 0.140149 3.247612
v -3.250000 -0.000000 -3.247612
v 3.250000 0.140149 -3.247612
v 3.248536 0.001463 -3.250000
v -2.849961 3.644834 2.895882
v -2.848141 0.150399 2.898708
v 1.546138 3.643637 2.898707
v 1.547958 0.149203 2.895882
v 1.547958 3.644833 -2.895882
v -2.848141 3.643637 -2.898708
v 1.546138 0.150399 -2.898708
v -2.849961 0.149203 -2.895882
v -0.649533 4.377036 -3.072247
v 1.702615 3.679023 -3.067613
v -3.004618 3.679023 3.067612
v -0.652470 4.377036 3.072246
v -3.004614 3.679012 -3.067596
v 1.702611 3.679012 3.067596
v -3.027550 3.613349 -3.073741
v -2.961129 3.725874 -3.076494
v -3.069912 3.677905 -3.073337
v -3.033532 3.740799 -3.078727
v -3.034794 3.616349 3.073741
v -3.067034 3.706815 3.078616
v -2.940752 3.654531 -3.078617
v -2.940400 3.702242 3.078726
v -2.959170 3.632056 3.073336
v -3.002155 3.742860 3.076494
v 1.679692 3.613349 -3.073741
v 1.746113 3.725874 -3.076494
v 1.673710 3.740799 -3.078726
v 1.672448 3.616349 3.073741
v 1.705087 3.742861 3.076494
v 1.748072 3.632056 3.073336
v 1.766842 3.702241 3.078726
v 1.640207 3.706815 3.078616
v 1.637330 3.677905 -3.073337
v 1.766490 3.654531 -3.078617
v -0.567765 4.347765 -3.079769
v -0.681283 4.294107 -3.073975
v -0.593344 4.440777 -3.076494
v -0.688477 4.460448 -3.079901
v -0.732422 4.415936 3.079768
v -0.690112 4.297763 3.073974
v -0.648534 4.463627 3.076494
v -0.567350 4.410300 3.079900
v -0.736322 4.378651 -3.073337
v -0.591384 4.318644 3.073337
v -3.019433 3.748128 -3.104136
v -2.981327 3.611769 -3.056145
v -2.996274 3.692980 -3.149881
v -2.989935 3.671707 -3.149881
v -0.666266 4.343303 -3.026473
v -0.647793 4.368853 -3.008292
v -0.665690 4.386867 -3.008865
v -0.669059 4.362006 -3.007971
v -0.644250 4.376532 -3.001755
v -0.644667 4.390714 -3.146867
v -0.663208 4.387141 -3.140985
v -0.638059 4.371933 -3.159079
v -0.652649 4.374130 -3.140547
v -0.642072 4.312329 -3.102345
v -3.015047 3.724044 -3.026336
v -2.995537 3.670031 -3.008476
v -0.669689 4.315720 -3.110420
v 1.717040 3.747389 -3.051884
v 1.694334 3.650035 -3.145464
v 1.709653 3.722376 -3.134298
v -0.639474 4.438093 -3.038718
v -0.639222 4.419186 -3.026265
v 1.695096 3.654906 -3.010302
v 1.680166 3.613653 -3.076907
v -2.998248 3.667831 3.006086
v -2.981327 3.611769 3.102600
v -0.676873 4.458689 3.078402
v -0.666266 4.343303 3.132273
v -0.642072 4.312328 3.056401
v -2.996274 3.692980 3.008865
v -2.989935 3.671707 3.008865
v -3.019433 3.748129 3.054610
v -0.649953 4.389667 2.990499
v -0.663210 4.387141 3.017762
v -3.015047 3.724043 3.132411
v -0.665690 4.386867 3.149881
v -0.669059 4.362006 3.150775
v -0.644250 4.376532 3.156991
v -2.995537 3.670032 3.150270
v -0.644667 4.390714 3.011878
v -0.638059 4.371932 2.999668
v -0.669689 4.315720 3.048326
v 1.694335 3.650035 3.013282
v 1.680166 3.613654 3.081840
v 1.717040 3.747389 3.106862
v 1.695096 3.654907 3.148444
v 1.709653 3.722377 3.024449
v -0.639474 4.438093 3.120028
v -0.639222 4.419186 3.132481
v 1.069783 0.151210 -3.009734
v 1.069784 2.942081 -2.918685
v -2.373431 2.943343 -2.921078
v -2.373431 0.149947 -3.007341
v -2.371786 0.151209 -2.918685
v 1.071428 2.943343 -3.007342
v 1.071428 0.149947 -2.921078
v -2.371786 2.942081 -3.009735
v 1.050905 0.312880 -3.030243
v 1.043709 0.298532 -3.042135
v -2.354076 0.307827 -3.034309
v 1.043709 0.478723 -3.042135
v 1.050905 0.493072 -3.030243
v -2.354076 0.488019 -3.034309
v 1.050905 0.663158 -3.038375
v 1.043710 0.677506 -3.026484
v -2.354076 0.668211 -3.034309
v -2.354076 0.848402 -3.034309
v 1.043710 0.857698 -3.026484
v 1.050905 0.843349 -3.038375
v -2.354076 1.028594 -3.034309
v 1.043709 1.019298 -3.042135
v 1.050905 1.033647 -3.030243
v -2.354076 1.208786 -3.034309
v 1.043709 1.199490 -3.042135
v 1.050905 1.213839 -3.030243
v 1.043710 1.398273 -3.026484
v -2.354076 1.388977 -3.034309
v 1.050905 1.383925 -3.038375
v -2.354076 1.569169 -3.034309
v 1.043709 1.576992 -3.043608
v 1.050905 1.565105 -3.029254
v 1.043710 1.757183 -3.043608
v -2.354076 1.749361 -3.034309
v 1.050905 1.745296 -3.029255
v -2.354076 1.929553 -3.034309
v 1.043710 1.920257 -3.042135
v 1.050905 1.934605 -3.030243
v 1.050905 2.104692 -3.038375
v 1.043710 2.119040 -3.026484
v -2.354076 2.109744 -3.034309
v -2.354076 2.289936 -3.034309
v 1.050905 2.285872 -3.029255
v 1.043710 2.297758 -3.043608
v 1.043710 2.460832 -3.042135
v -2.354076 2.470127 -3.034309
v 1.050905 2.475180 -3.030243
v 1.050905 2.654384 -3.039364
v -2.354076 2.650319 -3.034309
v 1.043710 2.642497 -3.025010
v -2.354076 2.830511 -3.034309
v 1.050905 2.826447 -3.029255
v 1.043709 2.838334 -3.043608
v 2.727069 0.195208 -1.192733
v 2.353621 0.207220 -1.041479
v 1.792758 0.207220 -1.602275
v 1.969666 0.195208 -1.990377
v 2.868348 0.196340 -1.394270
v 2.361278 0.195208 -2.151615
v 2.568254 4.487774 -2.120384
v 2.138988 4.487774 -2.120384
v 1.850356 4.499787 -1.390632
v 2.908776 4.498655 -1.597494
v 2.900040 0.186197 -1.739066
v 2.749500 0.197534 -1.995581
v 2.855386 4.499787 -1.837748
v 1.835451 4.487774 -1.816884
v 1.957031 0.207220 -1.205732
v 2.150447 4.499787 -1.091823
v 2.568836 4.497461 -1.087431
v 2.806093 4.508796 -1.266818
v 2.755397 4.499787 -1.164409
v 2.359416 4.501779 -1.004559
v 1.928703 4.511800 -1.177408
v 1.752696 4.511800 -1.602276
v 1.941339 4.499787 -2.018701
v 2.777829 4.502114 -2.023903
v 2.905360 4.500919 -1.378942
v 2.892398 4.700000 -1.853078
v 2.781772 4.700000 -1.185211
v 2.908803 4.499787 -1.823766
v 2.361278 4.499787 -2.191672
v 2.583585 4.687987 -2.157392
v 2.123657 4.687987 -2.157392
v 1.798439 4.687987 -1.832212
v 1.813344 4.700000 -1.375303
v 2.135116 4.700000 -1.054815
v 2.129835 4.503257 -1.048550
v 2.584170 4.697673 -1.050424
v 2.948838 4.698867 -1.597494
v 2.348481 1.027884 -1.010061
v 1.802948 1.026590 -1.375029
v 1.757660 1.026248 -1.602468
v 2.907124 1.004923 -1.393201
v 1.802951 1.025935 -1.830136
v 2.124195 1.025182 -2.151362
v 2.350204 1.024707 -2.196240
v 2.900841 1.023406 -1.822695
v 2.945009 1.047260 -1.583642
v 2.766513 1.024306 -2.023785
v 2.575531 1.024299 -2.151378
v 1.931839 1.025593 -2.022932
v 1.931508 1.027002 -1.182772
v 2.573761 1.027877 -1.054864
v 2.774825 1.028777 -1.189247
v 2.123136 1.027476 -1.054831
v 1.802951 3.228278 -1.830136
v 1.931839 3.227936 -2.022933
v 2.124195 3.227524 -2.151362
v 2.900841 3.225749 -1.822695
v 2.575531 3.226641 -2.151378
v 1.802948 3.228933 -1.375029
v 2.945009 3.249603 -1.583643
v 2.774826 3.231120 -1.189247
v 2.766513 3.226649 -2.023785
v 2.350204 3.227049 -2.196240
v 1.757660 3.228591 -1.602468
v 1.931508 3.229344 -1.182772
v 2.123135 3.229819 -1.054832
v 2.348481 3.230227 -1.010061
v 2.573761 3.230220 -1.054864
v 2.907124 3.207266 -1.393201
v 2.868348 0.196340 1.309570
v 2.353621 0.207221 1.662361
v 1.957031 0.207221 1.498107
v 1.969666 0.195208 0.713463
v 2.361278 0.195208 0.552225
v 2.749500 0.197534 0.708259
v 2.855386 4.499787 0.866092
v 2.568254 4.487774 0.583455
v 2.138988 4.487774 0.583455
v 2.908776 4.498655 1.106346
v 1.835451 4.487774 0.886956
v 1.850356 4.499787 1.313208
v 2.568836 4.497461 1.616409
v 2.900040 0.186197 0.964773
v 1.792758 0.207221 1.101564
v 2.150447 4.499787 1.612017
v 2.727069 0.195208 1.511107
v 2.806093 4.508796 1.437022
v 2.359416 4.501779 1.699281
v 1.752696 4.511800 1.101564
v 1.941339 4.499787 0.685139
v 2.361278 4.499787 0.512168
v 2.905360 4.500919 1.324898
v 2.908803 4.499787 0.880073
v 2.892398 4.700000 0.850762
v 2.948838 4.698867 1.106346
v 2.583585 4.687987 0.546448
v 2.123657 4.687987 0.546448
v 1.798439 4.687987 0.871627
v 2.135116 4.700000 1.649024
v 2.777829 4.502114 0.679937
v 1.928703 4.511800 1.526431
v 1.813344 4.700000 1.328536
v 2.129835 4.503257 1.655290
v 2.584170 4.697673 1.653415
v 2.755397 4.499787 1.539431
v 2.781772 4.700000 1.518628
v 2.348481 1.027884 1.693779
v 1.931508 1.027002 1.521066
v 2.350204 1.024707 0.507600
v 2.907124 1.004923 1.310637
v 2.900841 1.023406 0.881145
v 2.945009 1.047260 1.120198
v 2.766513 1.024306 0.680056
v 2.575530 1.024299 0.552462
v 1.802951 1.025936 0.873704
v 2.123137 1.027476 1.649009
v 2.124195 1.025182 0.552478
v 1.931839 1.025593 0.680909
v 1.757660 1.026248 1.101372
v 1.802948 1.026590 1.328811
v 2.573759 1.027877 1.648976
v 2.774826 1.028777 1.514591
v 2.348481 3.230227 1.693779
v 2.900841 3.225749 0.881145
v 2.945009 3.249603 1.120197
v 2.766513 3.226650 0.680056
v 2.575530 3.226642 0.552461
v 2.350204 3.227050 0.507600
v 1.931839 3.227936 0.680908
v 1.802951 3.228278 0.873704
v 1.757660 3.228591 1.101372
v 2.573759 3.230220 1.648976
v 2.774826 3.231120 1.514591
v 2.124195 3.227525 0.552478
v 1.931508 3.229344 1.521066
v 1.802948 3.228933 1.328810
v 2.123137 3.229819 1.649009
v 2.907124 3.207266 1.310637
v 2.316528 1.033938 1.101162
v 2.395470 1.028944 1.098955
v 2.388226 0.955257 1.096496
v 2.347292 1.048890 -1.599666
v 2.303351 0.969082 -1.599522
v 2.312932 0.959984 1.093287
v 2.406675 0.980480 -1.604096
v -1.946562 3.525309 -2.951704
v -1.944687 3.131465 -2.950657
v 0.642684 3.525616 -2.950657
v 0.644559 3.131774 -2.951704
v -1.944687 3.525616 -3.097933
v 0.644559 3.525309 -3.096886
v -1.946562 3.131774 -3.096886
v 0.642684 3.131465 -3.097933
v -2.725682 0.118568 2.953922
v -2.683094 3.299223 2.955243
v -2.747899 3.295064 3.007553
v -2.661699 0.118161 2.989105
v -2.716851 0.114409 3.036730
v -2.677776 3.295471 3.027913
v 1.380636 0.118568 2.953922
v 1.444618 0.118161 2.989105
v 1.423224 3.299223 2.955243
v 1.389467 0.114409 3.036731
v 1.358418 3.295064 3.007553
v 1.428542 3.295471 3.027913
v -1.045226 2.241873 2.925813
v -0.256777 0.450993 2.925814
v -1.045925 0.449858 2.926579
v -0.256777 2.241873 3.042662
v -1.045226 0.450993 3.042662
v -0.256078 2.243007 2.926579
v -0.256078 0.449859 3.041897
v -1.045925 2.243007 3.041896
v -0.019704 1.789420 2.902031
v -0.020631 1.302179 2.903154
v -0.020631 1.791112 3.065322
v 0.320166 1.789420 3.066444
v 0.321093 1.302179 3.065322
v 0.320166 1.303871 2.902032
v 0.321093 1.791112 2.903154
v -0.019703 1.303871 3.066444
v -0.650537 4.389682 3.000340
v -0.652649 4.374130 3.018199
v -0.636313 4.386867 3.149881
v -2.998247 3.667830 -3.152660
v -0.650537 4.389682 -3.158405
v -0.636313 4.386867 -3.008865
v -0.650378 4.389616 -3.158243
v -0.651002 4.379659 -3.167487
v -0.649953 4.389666 -3.168247
v -0.647793 4.368853 3.150454
v -0.648644 4.372282 3.146893
v -0.640844 4.366412 3.147945
v -0.676873 4.458689 -3.080343
v -0.651002 4.379659 2.991259
v -0.650378 4.389616 3.000503
v -0.640844 4.366412 -3.010801
v -0.648644 4.372282 -3.011854
vn -0.0000 -0.0000 -1.0000
vn 0.3238 0.5841 -0.7443
vn 0.8288 -0.5517 -0.0935
vn -0.4614 -0.5428 -0.7018
vn -0.0000 -0.0000 -0.0000
vn -0.0017 -0.7550 -0.6557
vn -0.0017 -0.7519 -0.6593
vn -0.0017 -0.7623 -0.6472
vn -0.0000 -0.7550 -0.6557
vn -0.0000 -0.7519 -0.6593
vn -0.0000 -0.7623 -0.6472
vn -0.7851 0.5674 -0.2484
vn -0.6084 0.3385 -0.7178
vn -0.8152 0.1264 -0.5652
vn 0.6263 0.5208 0.5801
vn 0.7569 -0.2957 -0.5828
vn -0.0940 0.8281 -0.5526
vn -0.8225 0.5428 0.1700
vn -0.2973 -0.5841 0.7553
vn -0.0000 0.4961 -0.8682
vn -0.0000 0.4472 -0.8944
vn -0.0000 0.5145 -0.8575
vn -0.0000 0.6435 -0.7655
vn -0.0000 0.6389 -0.7693
vn -0.0000 0.6394 -0.7689
vn -0.0371 0.1126 -0.9929
vn 0.5199 0.5517 0.6522
vn -0.0000 -0.7693 -0.6389
vn -0.0000 -0.7658 -0.6431
vn -0.0000 -0.7682 -0.6402
vn 0.0034 0.7770 0.6295
vn 0.0034 0.7752 0.6317
vn 0.0034 0.7729 0.6345
vn -0.0015 -0.7675 -0.6410
vn -0.0015 -0.7658 -0.6431
vn -0.0015 -0.7682 -0.6402
vn 0.0068 0.7592 0.6508
vn 0.0069 0.7625 0.6470
vn 0.0067 0.7612 0.6485
vn -0.6541 0.2311 0.7202
vn -0.5392 0.5839 0.6069
vn -0.6992 -0.4619 -0.5457
vn -0.0083 -0.6408 0.7677
vn -0.0084 -0.6428 0.7660
vn -0.0083 -0.6443 0.7647
vn 0.5265 -0.3879 0.7565
vn 0.0811 0.2565 0.9631
vn 0.0300 0.0993 0.9946
vn 0.5230 -0.6352 0.5683
vn -0.5732 0.5754 -0.5833
vn 0.5732 -0.5754 -0.5833
vn -0.5816 -0.5791 -0.5713
vn 0.5816 0.5791 -0.5713
vn -0.5816 0.5791 0.5713
vn 0.5732 0.5754 0.5833
vn 0.5816 -0.5791 0.5713
vn -0.5732 -0.5754 0.5833
vn -0.5776 0.5776 0.5768
vn -0.5776 -0.5776 -0.5768
vn -0.5771 -0.5772 0.5777
vn -0.5771 0.5772 -0.5777
vn 0.5771 0.5772 0.5777
vn 0.5776 0.5776 -0.5768
vn 0.5776 -0.5776 0.5768
vn 0.5771 -0.5772 -0.5777
vn 0.2799 0.9429 0.1805
vn 0.2845 0.9587 -0.0000
vn 0.2844 0.9587 -0.0000
vn -0.2799 0.9429 -0.1805
vn -0.1487 0.4959 -0.8556
vn -0.0000 -0.0067 -1.0000
vn -0.2844 0.9587 -0.0000
vn 0.1487 0.4959 0.8556
vn -0.0000 -0.0066 1.0000
vn -0.2845 0.9587 -0.0000
vn -0.2289 -0.7844 -0.5765
vn 0.5456 -0.5928 0.5924
vn -0.3928 -0.7165 0.5765
vn 0.7175 -0.3288 -0.6140
vn 0.5363 0.5815 -0.6117
vn -0.8050 -0.0333 -0.5923
vn 0.0319 0.7904 0.6118
vn 0.7254 0.2673 0.6343
vn -0.3240 0.7019 -0.6343
vn -0.7399 0.2749 0.6140
vn -0.8050 -0.0333 -0.5924
vn 0.7254 0.2672 0.6343
vn 0.7156 -0.3309 -0.6151
vn 0.5411 0.5807 -0.6083
vn 0.7236 0.2709 0.6349
vn 0.5478 -0.5886 0.5945
vn -0.2299 -0.7823 -0.5789
vn -0.3906 -0.7158 0.5789
vn -0.8036 -0.0287 -0.5945
vn 0.0279 0.7932 0.6083
vn -0.3201 0.7031 -0.6349
vn -0.7400 0.2720 0.6151
vn -0.7851 0.5674 -0.2483
vn -0.2156 0.7319 -0.6464
vn -0.3401 -0.9289 0.1462
vn -0.5241 -0.7703 -0.3634
vn 0.3086 0.9477 0.0816
vn -0.7590 0.3474 0.5507
vn 0.7756 -0.6080 -0.1696
vn 0.8169 -0.4679 0.3372
vn -0.6257 -0.5797 0.5220
vn 0.1107 -0.3968 -0.9112
vn -0.0074 0.0245 0.9997
vn -0.8273 -0.0983 0.5531
vn -0.4676 0.4814 0.7413
vn -0.3515 0.9141 0.2023
vn 0.8417 0.4557 0.2896
vn -0.0840 0.2853 0.9547
vn 0.9718 0.2173 0.0914
vn 0.0502 0.1420 -0.9886
vn 0.7204 0.3426 -0.6030
vn 0.5260 -0.4974 -0.6899
vn 0.1982 0.7249 0.6598
vn -0.3230 0.8038 -0.4996
vn -0.7072 -0.0158 -0.7068
vn -0.7459 -0.6125 -0.2618
vn 0.7621 0.5575 0.3292
vn 0.3584 -0.9332 0.0266
vn -0.0840 0.2854 0.9547
vn -0.4676 0.4814 0.7414
vn 0.5260 -0.4974 -0.6898
vn 0.1982 0.7249 0.6597
vn -0.5720 0.5737 -0.5862
vn 0.5720 -0.5737 -0.5862
vn -0.5825 -0.5811 -0.5683
vn 0.5825 0.5811 -0.5683
vn 0.5825 -0.5811 0.5683
vn -0.5825 0.5811 0.5683
vn 0.5720 0.5737 0.5862
vn -0.5720 -0.5737 0.5862
vn 0.4004 -0.8710 0.2846
vn 0.6119 0.0024 0.7909
vn 0.6030 0.0027 0.7977
vn 0.7052 -0.6577 0.2647
vn -0.0116 -0.9998 0.0139
vn -0.0007 -0.0081 1.0000
vn 0.3751 -0.0089 0.9269
vn 0.0119 0.0101 0.9999
vn -0.3866 0.0124 0.9222
vn -0.5506 -0.6287 0.5492
vn -0.7819 -0.6234 -0.0053
vn -0.5376 -0.6424 -0.5462
vn -0.7244 0.6234 -0.2943
vn 0.0022 -1.0000 -0.0000
vn -0.0043 -0.0124 -0.9999
vn -0.2986 0.6287 -0.7181
vn -0.0083 -1.0000 -0.0004
vn 0.4398 -0.8956 0.0668
vn 0.7529 0.6577 0.0253
vn 0.4318 0.8956 0.1066
vn 0.3820 0.0081 -0.9241
vn 0.3936 -0.0101 -0.9192
vn 0.7013 0.0089 -0.7128
vn 0.4788 0.8710 -0.1097
vn -0.0054 0.9998 -0.0173
vn -0.7057 0.6424 0.2989
vn 0.0021 1.0000 0.0008
vn -0.0078 1.0000 -0.0028
vn 0.8680 -0.0024 -0.4965
vn 0.8624 -0.0027 -0.5062
vn 0.1093 0.1059 0.9883
vn 0.3654 -0.2067 0.9076
vn 0.2585 -0.0710 0.9634
vn 0.7345 -0.6235 0.2679
vn 0.4801 -0.7519 0.4519
vn -0.0058 -1.0000 -0.0061
vn 0.6821 -0.0139 0.7311
vn 0.5634 0.0116 0.8261
vn -0.0159 -0.9994 -0.0302
vn -0.3685 0.0395 0.9288
vn -0.1878 0.0363 0.9815
vn -0.4689 0.1164 0.8755
vn -0.0083 0.2369 0.9715
vn -0.6045 -0.5790 0.5471
vn -0.7066 0.6448 0.2913
vn -0.8101 -0.5860 0.0169
vn -0.7420 0.5860 -0.3256
vn -0.5413 -0.6448 -0.5396
vn -0.3137 0.5808 -0.7511
vn 0.0021 -1.0000 -0.0000
vn 0.0019 -0.0289 -0.9996
vn 0.6108 0.0720 -0.7885
vn 0.3749 -0.0597 -0.9252
vn 0.6821 0.2098 -0.7005
vn 0.0026 -1.0000 -0.0024
vn 0.2372 -0.9715 0.0043
vn 0.9100 0.0139 -0.4144
vn 0.8366 -0.0116 -0.5476
vn 0.5985 0.7669 -0.2319
vn 0.7804 0.6245 0.0309
vn 0.2208 0.9715 0.0868
vn 0.0015 1.0000 0.0032
vn -0.0050 0.9999 -0.0162
vn 0.0019 1.0000 0.0008
vn 0.8499 -0.3561 0.3885
vn -0.0958 0.0114 0.9953
vn -0.4504 0.0064 0.8928
vn 0.2683 0.0211 0.9631
vn -0.7437 0.0025 0.6685
vn -0.9356 0.0011 0.3530
vn -0.9999 0.0008 -0.0106
vn -0.9279 -0.0008 -0.3729
vn -0.7293 -0.0011 -0.6842
vn -0.0745 -0.0064 -0.9972
vn 0.2924 -0.0114 -0.9562
vn -0.4313 -0.0025 -0.9022
vn 0.8656 -0.0896 -0.4927
vn 0.9338 0.3561 -0.0337
vn 0.6165 -0.0211 -0.7871
vn 0.6112 0.0896 0.7864
vn 0.6164 -0.0211 -0.7871
vn -0.6247 -0.5730 0.5306
vn -0.7100 0.7042 -0.0036
vn -0.7100 -0.7042 0.0036
vn -0.7015 -0.7127 0.0075
vn 0.7100 0.7042 0.0036
vn -0.7015 0.7127 -0.0075
vn 0.0003 -0.0021 1.0000
vn -0.0004 0.0027 1.0000
vn -0.0003 0.0021 1.0000
vn 0.7015 0.7127 0.0075
vn 0.7100 -0.7042 -0.0036
vn 0.0004 -0.0027 1.0000
vn 0.7015 -0.7127 -0.0075
vn -0.0003 -0.0021 -1.0000
vn 0.0003 0.0021 -1.0000
vn -0.0004 -0.0027 -1.0000
vn 0.0004 0.0027 -1.0000
vn -0.5792 0.5799 0.5729
vn 0.5792 0.5799 -0.5729
vn -0.5760 0.5742 -0.5818
vn 0.5760 -0.5742 -0.5818
vn -0.5792 -0.5799 -0.5729
vn 0.5792 -0.5799 0.5729
vn -0.5760 -0.5742 0.5818
vn 0.5760 0.5742 0.5818
vn -0.5762 0.5731 -0.5826
vn 0.5762 -0.5731 -0.5826
vn -0.5794 -0.5803 -0.5723
vn 0.5794 0.5803 -0.5723
vn -0.5794 0.5803 0.5723
vn 0.5794 -0.5803 0.5723
vn -0.5762 -0.5731 0.5826
vn 0.5762 0.5731 0.5826
vn 0.0579 0.2502 0.9665
vn -0.8153 0.1264 -0.5651
vn 0.8817 -0.2107 -0.4223
vn -0.1848 0.6106 -0.7701
vn -0.1981 0.6655 0.7197
vn 0.8816 -0.2107 -0.4223
vn -0.1981 0.6654 0.7197
vn 0.2046 0.6921 -0.6921
vn 0.1662 0.6973 -0.6973
vn 0.3266 0.9452 -0.0000
vn -0.4306 -0.9025 -0.0000
vn -0.5092 -0.8606 -0.0000
vn -0.3267 -0.9451 -0.0000
vn -1.0000 -0.0000 -0.0000
vn 0.1718 -0.5651 -0.8069
vn -0.0854 -0.3186 -0.9440
vt 0.855777 0.259103
vt 0.962397 0.259103
vt 0.962401 0.273375
vt 0.855781 0.273375
vt 0.856096 0.127241
vt 0.989170 0.126479
vt 0.988855 0.127942
vt 0.293096 0.695664
vt 0.292721 0.553936
vt 0.293244 0.553532
vt 0.855994 0.040343
vt 0.995002 0.040403
vt 0.995098 0.040950
vt 0.855994 0.065586
vt 0.995002 0.065646
vt 0.995098 0.066194
vt 0.842385 0.870349
vt 0.841445 0.873029
vt 0.840537 0.872942
vt 0.968300 0.190390
vt 0.856011 0.192427
vt 0.856341 0.190320
vt 0.856186 0.108814
vt 0.988868 0.107476
vt 0.988773 0.109243
vt 0.797894 0.667591
vt 0.797751 0.525867
vt 0.798276 0.525864
vt 0.774631 0.420102
vt 0.774531 0.278378
vt 0.775056 0.278375
vt 0.856066 0.280244
vt 0.958794 0.279396
vt 0.958613 0.280244
vt 0.856066 0.287113
vt 0.958794 0.286265
vt 0.958613 0.287113
vt 0.856011 0.120277
vt 0.988972 0.120105
vt 0.989043 0.121640
vt 0.816381 0.525870
vt 0.816088 0.667963
vt 0.815949 0.667575
vt 0.829413 0.278379
vt 0.829649 0.420094
vt 0.829123 0.420496
vt 0.820935 0.525870
vt 0.820644 0.667963
vt 0.820504 0.667575
vt 0.510449 0.691356
vt 0.510074 0.549628
vt 0.510600 0.549248
vt 0.825445 0.525870
vt 0.825180 0.667982
vt 0.825058 0.667575
vt 0.090131 0.623668
vt 0.087941 0.623664
vt 0.089872 0.623231
vt 0.127841 0.623668
vt 0.125651 0.623664
vt 0.127582 0.623231
vt 0.855992 0.177991
vt 0.968884 0.176616
vt 0.968632 0.178211
vt 0.856186 0.102361
vt 0.988868 0.101024
vt 0.988773 0.102790
vt 0.801948 0.420102
vt 0.801806 0.278378
vt 0.802330 0.278375
vt 0.788311 0.420102
vt 0.788165 0.278378
vt 0.788689 0.278375
vt 0.806720 0.420100
vt 0.806352 0.278378
vt 0.806876 0.278375
vt 0.119787 0.719600
vt 0.089266 0.623943
vt 0.090136 0.623666
vt 0.157486 0.719605
vt 0.126976 0.623943
vt 0.127846 0.623666
vt 0.968785 0.168488
vt 0.856181 0.170612
vt 0.856000 0.167998
vt 0.856011 0.113823
vt 0.988972 0.113651
vt 0.989042 0.115186
vt 0.856096 0.133650
vt 0.989170 0.132888
vt 0.988855 0.134351
vt 0.283993 0.278380
vt 0.278379 0.550544
vt 0.278373 0.278376
vt 0.283841 0.550419
vt 0.293986 0.278375
vt 0.294122 0.549091
vt 0.288678 0.549097
vt 0.278878 0.002171
vt 0.550743 0.274375
vt 0.278613 0.274364
vt 0.304433 0.278392
vt 0.304416 0.548995
vt 0.298971 0.549008
vt 0.510558 0.545081
vt 0.516010 0.278781
vt 0.516023 0.545090
vt 0.510570 0.278609
vt 0.550742 0.002336
vt 0.002504 0.274705
vt 0.274372 0.002173
vt 0.274372 0.274638
vt 0.288697 0.278375
vt 0.298969 0.278382
vt 0.002326 0.002333
vt 0.700956 0.002000
vt 0.554766 0.243279
vt 0.554743 0.002010
vt 0.700927 0.243333
vt 0.087727 0.279298
vt 0.271821 0.279245
vt 0.271872 0.521945
vt 0.705839 0.182383
vt 0.705218 0.002312
vt 0.851486 0.003179
vt 0.087778 0.521998
vt 0.851777 0.183187
vt 0.539922 0.278798
vt 0.724071 0.521442
vt 0.539973 0.521503
vt 0.686172 0.525867
vt 0.685923 0.767136
vt 0.539663 0.767047
vt 0.539971 0.525864
vt 0.724020 0.278736
vt 0.454912 0.540253
vt 0.455044 0.724117
vt 0.308793 0.724195
vt 0.308885 0.540253
vt 0.506071 0.279083
vt 0.506074 0.536253
vt 0.407614 0.536044
vt 0.690217 0.525867
vt 0.719436 0.624498
vt 0.690217 0.723149
vt 0.308768 0.536244
vt 0.407613 0.278723
vt 0.192216 0.717876
vt 0.163016 0.622733
vt 0.192216 0.526372
vt 0.308768 0.279075
vt 0.003431 0.279294
vt 0.006163 0.536556
vt 0.003198 0.536557
vt 0.006264 0.279053
vt 0.821273 0.868138
vt 0.823953 0.868637
vt 0.823994 0.872257
vt 0.821511 0.873014
vt 0.055001 0.279346
vt 0.056632 0.279456
vt 0.055974 0.535342
vt 0.031794 0.536547
vt 0.029746 0.279102
vt 0.031661 0.279021
vt 0.029142 0.536841
vt 0.819780 0.870445
vt 0.071124 0.279065
vt 0.073969 0.279437
vt 0.073493 0.535476
vt 0.053069 0.279099
vt 0.053505 0.535699
vt 0.868137 0.867815
vt 0.866919 0.872419
vt 0.864680 0.871374
vt 0.027769 0.279147
vt 0.869385 0.870026
vt 0.070779 0.535391
vt 0.865137 0.868366
vt 0.830151 0.868138
vt 0.832831 0.868637
vt 0.832872 0.872257
vt 0.011972 0.279294
vt 0.014805 0.279053
vt 0.014704 0.536556
vt 0.011740 0.536557
vt 0.830389 0.873014
vt 0.828658 0.870445
vt 0.023439 0.536547
vt 0.021391 0.279102
vt 0.023306 0.279021
vt 0.020787 0.536841
vt 0.080316 0.279064
vt 0.083160 0.279444
vt 0.082034 0.535480
vt 0.045185 0.279099
vt 0.047117 0.279346
vt 0.045621 0.535699
vt 0.048749 0.279456
vt 0.048090 0.535342
vt 0.859409 0.867815
vt 0.860657 0.870026
vt 0.858486 0.872540
vt 0.855952 0.871373
vt 0.856409 0.868366
vt 0.019413 0.279147
vt 0.079320 0.535388
vt 0.062357 0.279078
vt 0.066077 0.279468
vt 0.064627 0.535492
vt 0.061050 0.535414
vt 0.745786 0.868138
vt 0.749324 0.868852
vt 0.749400 0.873558
vt 0.522128 0.278791
vt 0.525818 0.278551
vt 0.525717 0.536054
vt 0.521829 0.536055
vt 0.746025 0.874565
vt 0.038640 0.279372
vt 0.040865 0.279459
vt 0.040207 0.535344
vt 0.535639 0.536046
vt 0.532999 0.278600
vt 0.535506 0.278519
vt 0.532070 0.536340
vt 0.743839 0.871248
vt 0.530425 0.278647
vt 0.036833 0.535712
vt 0.758778 0.867816
vt 0.760476 0.870769
vt 0.757287 0.873969
vt 0.036115 0.279100
vt 0.754245 0.872491
vt 0.754903 0.868633
vt 0.958617 0.315684
vt 0.958615 0.317371
vt 0.856709 0.318094
vt 0.846730 0.870767
vt 0.851603 0.870349
vt 0.849756 0.872942
vt 0.955461 0.323537
vt 0.857312 0.326170
vt 0.856417 0.322724
vt 0.849921 0.867795
vt 0.953901 0.370915
vt 0.855868 0.373306
vt 0.855922 0.370622
vt 0.848361 0.867767
vt 0.119149 0.527545
vt 0.120799 0.527583
vt 0.089975 0.623403
vt 0.855777 0.315684
vt 0.954127 0.373455
vt 0.089266 0.622738
vt 0.090245 0.622644
vt 0.765937 0.873930
vt 0.764496 0.871934
vt 0.767749 0.873573
vt 0.785878 0.872996
vt 0.783391 0.869219
vt 0.787006 0.868830
vt 0.117122 0.526472
vt 0.087700 0.622070
vt 0.087950 0.623706
vt 0.787834 0.870193
vt 0.782380 0.873353
vt 0.855859 0.293273
vt 0.958475 0.291754
vt 0.958592 0.294632
vt 0.855886 0.293791
vt 0.767546 0.868595
vt 0.767725 0.867945
vt 0.769429 0.871076
vt 0.856094 0.295635
vt 0.955427 0.326101
vt 0.953592 0.378335
vt 0.855898 0.381240
vt 0.855937 0.378479
vt 0.953891 0.382169
vt 0.954133 0.352357
vt 0.954511 0.355125
vt 0.856305 0.354014
vt 0.856110 0.356138
vt 0.801347 0.871658
vt 0.806219 0.870688
vt 0.803861 0.873360
vt 0.117123 0.720041
vt 0.801808 0.868748
vt 0.804502 0.867938
vt 0.856063 0.351915
vt 0.953901 0.362077
vt 0.954127 0.364617
vt 0.855868 0.364480
vt 0.837511 0.870767
vt 0.840730 0.867800
vt 0.855922 0.361784
vt 0.839142 0.867767
vt 0.156859 0.527545
vt 0.158509 0.527583
vt 0.127685 0.623404
vt 0.955460 0.333642
vt 0.857312 0.336276
vt 0.856417 0.332829
vt 0.126976 0.622738
vt 0.795354 0.872999
vt 0.796490 0.868830
vt 0.797317 0.870193
vt 0.958617 0.308787
vt 0.958615 0.310475
vt 0.856709 0.311198
vt 0.855777 0.308787
vt 0.955427 0.336207
vt 0.791864 0.873353
vt 0.792875 0.869219
vt 0.154812 0.526469
vt 0.125409 0.622070
vt 0.127955 0.622644
vt 0.774879 0.873930
vt 0.773438 0.871934
vt 0.776691 0.873573
vt 0.125660 0.623706
vt 0.776488 0.868595
vt 0.776667 0.867946
vt 0.954133 0.343519
vt 0.856305 0.345176
vt 0.856056 0.343053
vt 0.954511 0.346287
vt 0.778371 0.871076
vt 0.855859 0.302110
vt 0.958475 0.300591
vt 0.958592 0.303469
vt 0.855886 0.302628
vt 0.856094 0.304472
vt 0.810551 0.871658
vt 0.811012 0.868748
vt 0.813706 0.867938
vt 0.815423 0.870688
vt 0.813065 0.873360
vt 0.856110 0.347299
vt 0.154833 0.720041
vt 0.953592 0.387173
vt 0.855897 0.390078
vt 0.855937 0.387317
vt 0.953891 0.391007
vt 0.840273 0.710473
vt 0.723641 0.854547
vt 0.723640 0.710471
vt 0.855953 0.163529
vt 0.973009 0.160200
vt 0.972817 0.163563
vt 0.497047 0.684743
vt 0.497022 0.540609
vt 0.500549 0.540597
vt 0.840374 0.854401
vt 0.531788 0.684544
vt 0.531761 0.540577
vt 0.535370 0.540581
vt 0.856109 0.160173
vt 0.163757 0.863206
vt 0.279988 0.722817
vt 0.280320 0.863762
vt 0.163167 0.722244
vt 0.535315 0.684532
vt 0.856281 0.155832
vt 0.973013 0.152468
vt 0.972820 0.155832
vt 0.856102 0.152442
vt 0.500575 0.684731
vt 0.242935 0.706775
vt 0.239565 0.526878
vt 0.245938 0.526713
vt 0.288974 0.913535
vt 0.275481 0.912010
vt 0.263817 0.900444
vt 0.258127 0.706582
vt 0.258953 0.526668
vt 0.263106 0.882746
vt 0.271827 0.706621
vt 0.275293 0.869899
vt 0.293038 0.869618
vt 0.793748 0.705377
vt 0.780645 0.705380
vt 0.781524 0.525869
vt 0.305566 0.882283
vt 0.065971 0.720156
vt 0.048439 0.719896
vt 0.049258 0.540281
vt 0.307195 0.895725
vt 0.301462 0.906344
vt 0.026955 0.721158
vt 0.017858 0.541326
vt 0.031966 0.541317
vt 0.012400 0.721457
vt 0.035069 0.721102
vt 0.066711 0.540135
vt 0.078162 0.720145
vt 0.078228 0.539946
vt 0.388620 0.868103
vt 0.400502 0.874676
vt 0.406851 0.889823
vt 0.400736 0.906448
vt 0.764394 0.525866
vt 0.384561 0.913653
vt 0.368060 0.907122
vt 0.763754 0.705377
vt 0.272155 0.526992
vt 0.361331 0.890626
vt 0.364970 0.877582
vt 0.374106 0.870080
vt 0.005393 0.541314
vt 0.002247 0.721347
vt 0.793748 0.525866
vt 0.531485 0.886994
vt 0.531582 0.899061
vt 0.523528 0.895843
vt 0.904843 0.506779
vt 0.903189 0.521240
vt 0.894649 0.532152
vt 0.523663 0.902676
vt 0.885687 0.535894
vt 0.531484 0.877195
vt 0.523570 0.881892
vt 0.531635 0.868081
vt 0.524001 0.867763
vt 0.871821 0.534515
vt 0.877177 0.862713
vt 0.859775 0.855321
vt 0.878128 0.855324
vt 0.859081 0.862710
vt 0.858053 0.521453
vt 0.891221 0.862708
vt 0.857749 0.502433
vt 0.891221 0.855319
vt 0.871309 0.488996
vt 0.468843 0.880946
vt 0.468515 0.899722
vt 0.460998 0.898821
vt 0.468867 0.867876
vt 0.460919 0.880126
vt 0.460763 0.867783
vt 0.885715 0.487239
vt 0.897118 0.493403
vt 0.485812 0.878920
vt 0.485914 0.868020
vt 0.493843 0.871400
vt 0.486132 0.894510
vt 0.493843 0.884750
vt 0.493876 0.899866
vt 0.486204 0.903203
vt 0.856118 0.613011
vt 0.866311 0.638385
vt 0.858249 0.628551
vt 0.863180 0.600284
vt 0.879437 0.593461
vt 0.897241 0.600025
vt 0.904962 0.617361
vt 0.897964 0.635048
vt 0.880293 0.642274
vt 0.903608 0.770629
vt 0.893681 0.795356
vt 0.884947 0.799004
vt 0.900354 0.788649
vt 0.875275 0.799237
vt 0.866434 0.795629
vt 0.859659 0.788907
vt 0.855985 0.780101
vt 0.855975 0.770560
vt 0.866405 0.755008
vt 0.875509 0.751556
vt 0.859632 0.761745
vt 0.893705 0.755227
vt 0.899940 0.761413
vt 0.884974 0.751584
vt 0.903825 0.780391
vt 0.238329 0.868103
vt 0.253730 0.878004
vt 0.257372 0.886735
vt 0.247433 0.871640
vt 0.257400 0.896200
vt 0.253915 0.905227
vt 0.247199 0.912014
vt 0.238396 0.915701
vt 0.228856 0.915725
vt 0.220037 0.912084
vt 0.213293 0.905331
vt 0.209660 0.896497
vt 0.213601 0.878029
vt 0.220308 0.871356
vt 0.209953 0.886763
vt 0.227822 0.868262
vt 0.903608 0.718747
vt 0.859659 0.737025
vt 0.855985 0.728220
vt 0.855975 0.718679
vt 0.859632 0.709863
vt 0.866405 0.703127
vt 0.893705 0.703345
vt 0.899940 0.709531
vt 0.884974 0.699703
vt 0.134570 0.868103
vt 0.149971 0.878004
vt 0.153613 0.886735
vt 0.153641 0.896200
vt 0.150156 0.905227
vt 0.143440 0.912014
vt 0.116278 0.912084
vt 0.109534 0.905331
vt 0.125097 0.915725
vt 0.134637 0.915701
vt 0.116549 0.871356
vt 0.124063 0.868262
vt 0.109842 0.878029
vt 0.106194 0.886763
vt 0.105901 0.896497
vt 0.143674 0.871640
vt 0.875509 0.699675
vt 0.866434 0.743747
vt 0.875275 0.747355
vt 0.884947 0.747122
vt 0.893681 0.743474
vt 0.900354 0.736768
vt 0.903825 0.728510
vt 0.338797 0.913535
vt 0.325116 0.869899
vt 0.342861 0.869618
vt 0.325304 0.912010
vt 0.313640 0.900444
vt 0.355389 0.882283
vt 0.312929 0.882746
vt 0.357018 0.895725
vt 0.351285 0.906344
vt 0.748554 0.705962
vt 0.739457 0.526129
vt 0.753565 0.526121
vt 0.733998 0.706261
vt 0.756667 0.705906
vt 0.228495 0.706621
vt 0.214796 0.706582
vt 0.215621 0.526668
vt 0.228823 0.526992
vt 0.761435 0.457888
vt 0.749211 0.278380
vt 0.761435 0.278377
vt 0.748332 0.457891
vt 0.480421 0.720540
vt 0.462889 0.720279
vt 0.463708 0.540664
vt 0.481161 0.540519
vt 0.492612 0.720528
vt 0.723846 0.706151
vt 0.726992 0.526117
vt 0.492678 0.540329
vt 0.438441 0.868103
vt 0.450323 0.874676
vt 0.456672 0.889823
vt 0.450557 0.906448
vt 0.434382 0.913653
vt 0.417880 0.907122
vt 0.411152 0.890626
vt 0.414791 0.877582
vt 0.423927 0.870080
vt 0.202606 0.526713
vt 0.199603 0.706775
vt 0.196233 0.526878
vt 0.732082 0.278377
vt 0.731442 0.457887
vt 0.904844 0.559896
vt 0.894649 0.585269
vt 0.885687 0.589011
vt 0.518827 0.877195
vt 0.518829 0.886994
vt 0.510914 0.881892
vt 0.510871 0.895843
vt 0.518926 0.899061
vt 0.903189 0.574357
vt 0.916621 0.862713
vt 0.899219 0.855322
vt 0.917572 0.855324
vt 0.898525 0.862710
vt 0.871821 0.587632
vt 0.858053 0.574570
vt 0.857749 0.555550
vt 0.930665 0.862708
vt 0.930665 0.855320
vt 0.871309 0.542113
vt 0.885715 0.540356
vt 0.481328 0.867876
vt 0.481303 0.880946
vt 0.473379 0.880126
vt 0.498619 0.894510
vt 0.506330 0.884750
vt 0.506362 0.899866
vt 0.498299 0.878920
vt 0.897118 0.546520
vt 0.498690 0.903203
vt 0.498400 0.868020
vt 0.506329 0.871400
vt 0.473223 0.867783
vt 0.856118 0.666125
vt 0.863180 0.653399
vt 0.879437 0.646575
vt 0.897241 0.653140
vt 0.904962 0.670476
vt 0.866311 0.691500
vt 0.858249 0.681666
vt 0.897964 0.688162
vt 0.880293 0.695389
vt 0.473458 0.898821
vt 0.480976 0.899722
vt 0.518979 0.868081
vt 0.511345 0.867763
vt 0.511007 0.902676
vt 0.030809 0.915593
vt 0.006082 0.905666
vt 0.002434 0.896932
vt 0.012789 0.912339
vt 0.002201 0.887260
vt 0.005809 0.878419
vt 0.046430 0.878390
vt 0.049882 0.887494
vt 0.039693 0.871617
vt 0.021337 0.867971
vt 0.030878 0.867960
vt 0.012531 0.871644
vt 0.046211 0.905691
vt 0.040025 0.911926
vt 0.049854 0.896959
vt 0.021047 0.915810
vt 0.186450 0.868103
vt 0.195553 0.871640
vt 0.201850 0.878004
vt 0.205493 0.886735
vt 0.205520 0.896200
vt 0.161413 0.905331
vt 0.157781 0.896497
vt 0.168158 0.912084
vt 0.202036 0.905227
vt 0.195319 0.912014
vt 0.161722 0.878029
vt 0.168429 0.871356
vt 0.158074 0.886763
vt 0.176976 0.915725
vt 0.186516 0.915701
vt 0.175942 0.868262
vt 0.903608 0.822510
vt 0.893681 0.847237
vt 0.884947 0.850885
vt 0.900354 0.840531
vt 0.893705 0.807108
vt 0.899940 0.813295
vt 0.884974 0.803466
vt 0.082691 0.868103
vt 0.098091 0.878004
vt 0.101734 0.886735
vt 0.091794 0.871640
vt 0.101761 0.896200
vt 0.098277 0.905227
vt 0.091560 0.912014
vt 0.082757 0.915701
vt 0.073217 0.915725
vt 0.064399 0.912084
vt 0.064670 0.871356
vt 0.072183 0.868262
vt 0.057963 0.878029
vt 0.057654 0.905331
vt 0.054315 0.886763
vt 0.054022 0.896497
vt 0.875509 0.803438
vt 0.866405 0.806890
vt 0.859632 0.813627
vt 0.855975 0.822442
vt 0.855985 0.831983
vt 0.859659 0.840788
vt 0.866434 0.847510
vt 0.875275 0.851118
vt 0.903825 0.832273
vt 0.884361 0.868804
vt 0.881566 0.870401
vt 0.881397 0.868160
vt 0.883575 0.871280
vt 0.876290 0.868428
vt 0.875539 0.871493
vt 0.873590 0.869345
vt 0.712513 0.867953
vt 0.718269 0.884299
vt 0.712179 0.884349
vt 0.963862 0.224176
vt 0.855835 0.217963
vt 0.963857 0.217941
vt 0.718302 0.867968
vt 0.962223 0.254980
vt 0.856186 0.254943
vt 0.856365 0.238633
vt 0.855839 0.224198
vt 0.964368 0.234473
vt 0.856338 0.228260
vt 0.964363 0.228238
vt 0.962394 0.238670
vt 0.701939 0.868019
vt 0.708037 0.867977
vt 0.708004 0.884307
vt 0.702279 0.884413
vt 0.856343 0.234495
vt 0.856209 0.197442
vt 0.964485 0.213799
vt 0.856170 0.213762
vt 0.964524 0.197478
vt 0.905128 0.869075
vt 0.903107 0.870560
vt 0.902994 0.868249
vt 0.888961 0.869694
vt 0.890929 0.868470
vt 0.891045 0.870780
vt 0.895860 0.869694
vt 0.897828 0.868470
vt 0.897944 0.870780
vt 0.912025 0.869075
vt 0.910004 0.870560
vt 0.909891 0.868249
vt 0.634691 0.900938
vt 0.639308 0.868168
vt 0.639358 0.900874
vt 0.855974 0.464987
vt 0.855885 0.432396
vt 0.931148 0.432353
vt 0.855986 0.473999
vt 0.856026 0.469317
vt 0.931134 0.469369
vt 0.931237 0.464943
vt 0.625838 0.900941
vt 0.625788 0.868235
vt 0.630455 0.868170
vt 0.855989 0.483011
vt 0.931136 0.478382
vt 0.931092 0.483059
vt 0.630506 0.900877
vt 0.931096 0.474048
vt 0.856227 0.427946
vt 0.931089 0.396001
vt 0.931445 0.427903
vt 0.855871 0.396043
vt 0.856033 0.478330
vt 0.634641 0.868232
vt 0.662093 0.868174
vt 0.676214 0.888346
vt 0.662101 0.888396
vt 0.676207 0.868123
vt 0.691178 0.867762
vt 0.697858 0.867763
vt 0.697858 0.887547
vt 0.733135 0.881610
vt 0.739734 0.867766
vt 0.739787 0.881671
vt 0.722423 0.882215
vt 0.729066 0.868009
vt 0.729075 0.882271
vt 0.722414 0.867953
vt 0.691178 0.887547
vt 0.733194 0.867762
vt 0.643703 0.868275
vt 0.657524 0.868112
vt 0.657523 0.888322
vt 0.680561 0.868126
vt 0.687171 0.868197
vt 0.687178 0.888167
vt 0.643713 0.888487
vt 0.680500 0.888158
vt 0.765435 0.278879
vt 0.765958 0.278475
vt 0.765668 0.420606
vt 0.279493 0.554830
vt 0.279610 0.555229
vt 0.279228 0.696956
vt 0.855863 0.141310
vt 0.856189 0.139599
vt 0.988863 0.140333
vt 0.850663 0.873029
vt 0.995002 0.060597
vt 0.995098 0.061145
vt 0.856320 0.060356
vt 0.995002 0.045451
vt 0.995098 0.045999
vt 0.855994 0.045392
vt 0.995002 0.025257
vt 0.995098 0.025804
vt 0.856320 0.025015
vt 0.298472 0.553848
vt 0.298994 0.553445
vt 0.298847 0.695577
vt 0.995002 0.075743
vt 0.995098 0.076291
vt 0.856023 0.075639
vt 0.785055 0.873393
vt 0.783046 0.872641
vt 0.855777 0.279381
vt 0.958613 0.279313
vt 0.794527 0.873389
vt 0.792529 0.872641
vt 0.855777 0.286250
vt 0.958613 0.286182
vt 0.968154 0.183736
vt 0.968533 0.185223
vt 0.856278 0.183741
vt 0.968224 0.192727
vt 0.856281 0.106956
vt 0.525072 0.829393
vt 0.524932 0.829006
vt 0.525232 0.687298
vt 0.820540 0.420094
vt 0.820013 0.420496
vt 0.820303 0.278379
vt 0.997876 0.002396
vt 0.997489 0.002537
vt 0.855781 0.002237
vt 0.997496 0.006555
vt 0.997899 0.007081
vt 0.855781 0.006791
vt 0.997496 0.011109
vt 0.997899 0.011636
vt 0.855783 0.011259
vt 0.505036 0.829106
vt 0.504915 0.828700
vt 0.505215 0.686992
vt 0.856079 0.115373
vt 0.855863 0.147793
vt 0.856189 0.146082
vt 0.988863 0.146816
vt 0.995002 0.055549
vt 0.995098 0.056096
vt 0.855994 0.055489
vt 0.995002 0.035354
vt 0.995098 0.035902
vt 0.855994 0.035294
vt 0.995002 0.080792
vt 0.995098 0.081340
vt 0.856023 0.080690
vt 0.995002 0.090889
vt 0.995098 0.091437
vt 0.855997 0.090824
vt 0.855957 0.175492
vt 0.968623 0.170787
vt 0.856281 0.100504
vt 0.856079 0.121828
vt 0.856087 0.280185
vt 0.856678 0.277569
vt 0.958795 0.279404
vt 0.856393 0.291607
vt 0.856087 0.287054
vt 0.856678 0.284451
vt 0.958795 0.286273
vt 0.856393 0.300444
s 1
usemtl factory_004_baked
f 3/1/1 1/2/1 2/3/1
f 3/1/1 2/3/1 4/4/1
f 313/5/2 315/6/3 312/7/4
f 147/8/5 149/9/5 148/10/5
f 122/11/6 120/12/7 121/13/8
f 133/14/9 134/15/10 132/16/11
f 88/17/12 86/18/13 81/19/14
f 298/20/15 303/21/16 300/22/17
f 322/23/18 318/24/4 321/25/19
f 139/26/20 140/27/21 138/28/22
f 156/29/23 157/30/24 158/31/25
f 344/32/26 343/33/26 59/34/26
f 340/35/26 81/36/26 86/37/26
f 323/38/27 321/39/19 319/40/3
f 119/41/28 118/42/29 117/43/30
f 123/44/31 124/45/32 125/46/33
f 129/47/34 131/48/35 130/49/36
f 135/50/5 136/51/5 137/52/5
f 141/53/37 143/54/38 142/55/39
f 355/56/40 78/57/40 61/58/40
f 351/59/40 105/60/40 84/61/40
f 297/62/41 300/63/17 301/64/42
f 314/65/18 312/66/4 316/67/19
f 135/68/5 137/69/5 136/70/5
f 147/71/5 148/72/5 149/73/5
f 154/74/43 155/75/44 153/76/45
f 79/77/46 345/78/47 355/79/48
f 102/80/46 342/81/47 351/82/48
f 299/83/49 301/84/42 303/85/16
f 317/86/27 316/87/19 315/88/3
f 320/89/2 319/90/3 318/91/4
f 5/92/50 12/93/51 10/94/52
f 5/92/50 11/95/53 12/93/51
f 9/96/54 5/97/50 10/98/52
f 9/99/54 11/100/53 5/101/50
f 11/102/53 6/103/55 8/104/56
f 6/105/55 7/106/57 8/107/56
f 6/105/55 9/108/54 7/106/57
f 9/99/54 6/109/55 11/100/53
f 10/110/52 8/111/56 7/112/57
f 9/96/54 10/98/52 7/113/57
f 11/102/53 8/104/56 12/114/51
f 10/110/52 12/115/51 8/111/56
f 13/116/58 20/117/59 14/118/60
f 13/116/58 18/119/61 20/117/59
f 13/120/58 15/121/62 17/122/63
f 15/123/62 13/124/58 14/125/60
f 13/120/58 17/122/63 18/126/61
f 15/123/62 14/125/60 16/127/64
f 20/128/59 16/129/64 14/130/60
f 17/131/63 15/132/62 16/133/64
f 17/131/63 16/133/64 19/134/65
f 20/128/59 19/135/65 16/129/64
f 18/136/61 17/137/63 19/138/65
f 18/136/61 19/138/65 20/139/59
f 26/140/66 22/141/67 21/142/68
f 25/143/69 21/144/70 22/145/71
f 25/146/69 24/147/72 21/142/70
f 21/142/68 24/147/73 26/140/66
f 26/148/66 24/149/73 23/150/74
f 25/146/69 23/151/75 24/147/72
f 27/152/76 35/153/77 31/154/78
f 27/152/76 33/155/79 35/153/77
f 28/156/80 33/157/79 27/158/76
f 28/156/80 27/158/76 29/159/81
f 29/160/81 27/161/76 31/162/78
f 28/163/80 36/164/82 34/165/83
f 28/163/80 30/166/84 36/164/82
f 28/156/80 29/159/81 30/167/84
f 33/168/79 28/169/80 34/170/83
f 30/171/84 29/160/81 32/172/85
f 29/160/81 31/162/78 32/172/85
f 36/173/82 31/174/78 35/175/77
f 30/166/84 32/176/85 36/164/82
f 36/173/82 32/177/85 31/174/78
f 33/168/79 34/170/83 35/178/77
f 36/173/82 35/175/77 34/179/83
f 38/180/80 46/181/79 37/182/76
f 37/183/76 46/184/79 42/185/77
f 37/183/76 42/185/77 40/186/78
f 38/180/80 45/187/86 39/188/84
f 38/180/80 37/182/76 45/187/86
f 38/189/80 41/190/82 43/191/87
f 38/189/80 39/192/84 41/190/82
f 46/193/79 38/194/80 43/195/87
f 39/196/84 45/197/86 44/198/85
f 45/197/86 37/199/76 40/200/78
f 45/197/86 40/200/78 44/198/85
f 41/201/82 44/202/85 40/203/78
f 41/201/82 40/203/78 42/204/77
f 41/201/82 42/204/77 43/205/87
f 39/192/84 44/206/85 41/190/82
f 46/193/79 43/195/87 42/207/77
f 47/208/88 49/209/89 54/210/90
f 47/208/88 54/210/90 56/211/91
f 49/212/89 47/213/88 48/214/92
f 48/215/92 47/216/88 56/217/91
f 48/215/92 56/217/91 52/218/93
f 49/212/89 48/214/92 55/219/94
f 55/220/94 48/221/92 52/222/93
f 49/223/89 53/224/95 54/225/90
f 49/223/89 50/226/96 53/224/95
f 49/212/89 55/219/94 50/227/96
f 50/226/96 51/228/97 53/224/95
f 55/220/94 52/222/93 51/229/97
f 53/230/95 51/231/97 52/232/93
f 50/233/96 55/220/94 51/229/97
f 53/230/95 52/232/93 56/234/91
f 53/230/95 56/234/91 54/235/90
f 59/236/13 57/237/98 348/238/99
f 58/239/100 57/240/98 343/241/101
f 57/242/98 352/243/102 348/244/99
f 58/239/100 71/245/103 57/240/98
f 58/246/100 70/247/104 62/248/105
f 58/239/100 72/249/106 71/245/103
f 72/250/106 58/251/100 62/252/105
f 59/236/107 348/238/107 68/253/107
f 58/246/100 343/254/101 70/247/104
f 62/252/108 63/255/108 72/250/108
f 355/79/48 64/256/109 79/77/46
f 65/257/110 77/258/111 64/259/109
f 70/260/104 352/261/102 356/262/112
f 71/263/103 356/255/112 352/264/102
f 77/265/111 345/78/47 79/77/46
f 70/260/104 356/262/112 62/266/105
f 71/263/103 72/250/113 356/255/112
f 70/260/104 347/267/114 352/261/102
f 346/268/115 76/269/116 75/270/117
f 346/268/118 69/271/118 76/269/118
f 64/259/109 66/272/119 346/273/120
f 64/259/109 346/273/120 73/274/121
f 73/275/121 346/268/120 75/270/117
f 57/242/98 71/276/103 352/243/102
f 64/259/109 77/258/111 66/272/119
f 66/277/119 74/278/122 76/279/116
f 66/277/119 77/280/111 74/278/122
f 64/281/109 73/282/121 80/283/123
f 73/282/121 75/284/117 80/283/123
f 80/285/123 74/286/122 79/287/46
f 77/265/111 79/77/46 74/288/122
f 80/285/123 75/289/117 76/290/116
f 80/285/123 76/290/116 74/286/122
f 64/281/109 80/283/123 79/291/46
f 82/292/100 81/293/101 85/294/104
f 82/295/100 91/296/103 88/17/12
f 82/295/100 88/17/12 81/19/101
f 82/292/100 85/294/104 349/297/105
f 82/295/100 95/298/106 91/296/103
f 95/299/106 82/300/100 349/301/105
f 88/302/12 83/303/102 89/304/99
f 349/301/108 92/305/108 95/299/108
f 85/306/104 350/307/112 349/308/105
f 86/309/13 88/310/12 89/311/99
f 86/309/107 89/311/107 97/312/107
f 88/302/12 91/313/103 83/303/102
f 85/306/104 353/314/114 83/315/102
f 91/316/103 350/305/112 83/317/102
f 91/316/103 95/299/124 350/305/112
f 85/306/104 83/315/102 350/307/112
f 351/82/48 93/318/109 102/80/46
f 94/319/125 104/320/111 93/321/109
f 104/322/111 342/81/47 102/80/46
f 93/321/109 96/323/119 354/324/120
f 93/321/109 104/320/111 96/323/119
f 93/325/109 100/326/123 102/327/46
f 93/325/109 98/328/121 100/326/123
f 93/321/109 354/324/120 98/329/121
f 354/330/115 103/331/116 99/332/126
f 354/330/127 341/333/127 103/331/127
f 98/334/121 354/330/120 99/332/126
f 100/335/123 99/336/126 103/337/116
f 100/335/123 101/338/122 102/339/46
f 98/328/121 99/340/126 100/326/123
f 100/335/123 103/337/116 101/338/122
f 104/322/111 102/80/46 101/341/122
f 96/342/119 101/343/122 103/344/116
f 96/342/119 104/345/111 101/343/122
f 113/346/128 106/347/129 109/348/130
f 111/349/131 112/350/132 106/351/129
f 109/352/130 106/353/129 112/354/132
f 113/346/128 111/355/131 106/347/129
f 108/356/133 107/357/134 111/358/131
f 111/349/131 107/359/134 112/350/132
f 107/360/134 110/361/135 112/362/132
f 107/360/134 108/363/133 110/361/135
f 108/356/133 111/358/131 113/364/128
f 108/365/133 109/366/130 110/367/135
f 108/365/133 113/368/128 109/366/130
f 109/352/130 112/354/132 110/369/135
f 159/370/136 176/371/137 175/372/138
f 163/373/139 159/374/136 160/375/140
f 160/376/141 159/370/142 175/372/143
f 160/376/141 175/372/143 174/377/144
f 163/373/139 160/375/140 173/378/145
f 173/379/145 160/376/141 174/377/144
f 163/373/139 161/380/146 162/381/147
f 162/382/147 161/383/146 172/384/148
f 163/373/139 162/381/147 164/385/149
f 164/386/150 162/387/147 166/388/151
f 163/373/139 164/385/149 170/389/152
f 163/373/139 173/378/145 161/380/146
f 163/373/139 170/389/152 169/390/153
f 163/391/139 168/392/154 176/393/155
f 163/391/139 169/394/153 168/392/154
f 159/395/136 163/391/139 176/393/137
f 164/386/150 166/388/151 165/396/156
f 170/397/157 164/386/150 165/396/156
f 170/397/157 165/396/156 171/398/158
f 168/399/154 171/400/159 165/401/160
f 168/399/154 165/401/160 166/402/151
f 161/383/146 167/403/161 172/384/148
f 168/399/154 172/404/148 167/405/161
f 161/383/146 173/406/145 167/403/161
f 173/379/145 174/377/144 167/407/161
f 168/399/154 167/405/161 174/408/162
f 168/399/154 175/409/163 176/410/155
f 168/399/154 174/408/162 175/409/163
f 168/399/154 166/402/151 172/404/148
f 169/394/164 171/411/159 168/392/154
f 169/394/164 170/412/165 171/411/159
f 162/382/147 172/384/148 166/413/151
f 178/414/166 177/415/167 194/416/168
f 183/417/169 177/418/170 178/419/171
f 177/415/170 185/420/172 194/416/173
f 183/417/169 178/419/171 193/421/174
f 193/422/175 178/414/176 192/423/177
f 178/414/166 194/416/168 192/423/178
f 179/424/179 192/423/177 191/425/180
f 179/424/179 193/422/175 192/423/177
f 183/417/169 193/421/174 179/426/179
f 180/427/181 191/428/180 190/429/182
f 180/427/181 179/430/179 191/428/180
f 183/417/169 179/426/179 180/431/181
f 181/432/183 180/427/181 190/429/182
f 183/417/169 180/431/181 181/433/183
f 181/432/183 190/429/182 189/434/184
f 183/417/169 181/433/183 187/435/185
f 187/436/186 181/437/183 189/438/184
f 182/439/187 188/440/188 184/441/189
f 182/439/187 187/436/186 188/440/188
f 183/417/169 187/435/185 182/442/190
f 183/417/169 182/442/190 186/443/191
f 186/444/192 182/445/193 184/446/194
f 183/447/169 195/448/195 185/449/196
f 183/447/169 186/444/191 195/448/195
f 177/450/170 183/447/169 185/449/172
f 186/444/192 184/446/194 195/448/195
f 195/451/195 194/452/197 185/453/196
f 195/451/195 184/454/194 188/455/198
f 187/436/186 189/438/184 188/440/188
f 195/451/195 188/455/198 189/456/184
f 195/451/195 189/456/184 190/457/182
f 195/451/195 190/457/182 191/458/180
f 195/451/195 191/458/180 192/459/199
f 195/451/195 192/459/199 194/452/197
f 199/460/200 196/461/201 211/462/202
f 199/460/200 209/463/203 196/461/201
f 199/460/200 208/464/204 197/465/205
f 199/460/200 197/465/205 198/466/206
f 199/460/200 198/466/206 200/467/207
f 199/460/200 200/467/207 207/468/208
f 199/460/200 202/469/209 206/470/210
f 199/460/200 201/471/211 202/469/209
f 199/460/200 203/472/212 204/473/213
f 199/460/200 205/474/214 203/472/212
f 199/460/200 207/468/208 201/471/211
f 199/460/200 211/462/202 208/464/204
f 199/460/200 206/470/210 205/474/214
f 199/460/200 210/475/215 209/463/203
f 204/476/213 205/477/214 206/478/210
f 204/476/213 203/479/212 205/477/214
f 204/476/213 206/478/210 202/480/209
f 204/476/213 201/481/211 207/482/208
f 204/476/213 202/480/209 201/481/211
f 204/476/213 207/482/208 200/483/207
f 204/476/213 200/483/207 198/484/206
f 204/476/213 198/484/206 197/485/205
f 204/476/213 208/486/204 211/487/202
f 204/476/213 197/485/205 208/486/204
f 204/476/213 209/488/203 210/489/215
f 204/476/213 196/490/201 209/488/203
f 204/476/213 211/487/202 196/490/201
f 204/476/213 210/489/215 199/491/200
f 227/492/200 222/493/206 212/494/207
f 227/492/200 212/494/207 213/495/208
f 227/492/200 213/495/208 214/496/211
f 227/492/200 214/496/211 221/497/209
f 227/492/200 215/498/212 218/499/213
f 227/492/200 220/500/214 215/498/212
f 218/501/213 220/502/214 216/503/210
f 218/501/213 216/503/210 221/504/209
f 218/501/213 214/505/211 213/506/208
f 218/501/213 221/504/209 214/505/211
f 218/501/213 217/507/205 223/508/204
f 218/501/213 222/509/206 217/507/205
f 218/501/213 213/506/208 212/510/207
f 218/501/213 219/511/215 227/512/200
f 218/501/213 226/513/203 219/511/215
f 218/501/213 225/514/201 226/513/203
f 218/501/213 224/515/202 225/514/201
f 218/501/213 215/516/212 220/502/214
f 218/501/213 212/510/207 222/509/206
f 218/501/213 223/508/204 224/515/202
f 227/492/200 216/517/210 220/500/214
f 227/492/200 221/497/209 216/517/210
f 227/492/200 217/518/205 222/493/206
f 227/492/200 223/519/204 217/518/205
f 227/492/200 224/520/202 223/519/204
f 227/492/200 225/521/201 224/520/202
f 227/492/200 226/522/203 225/521/201
f 227/492/200 219/523/215 226/522/203
f 228/524/139 242/525/146 231/526/147
f 228/524/139 244/527/136 229/528/140
f 228/524/139 231/526/147 232/529/149
f 228/524/139 230/530/145 242/525/146
f 228/524/139 233/531/152 241/532/153
f 228/524/139 229/528/140 230/530/145
f 228/524/139 232/529/149 233/531/152
f 228/533/139 237/534/154 245/535/155
f 228/533/139 241/536/153 237/534/154
f 244/537/136 228/533/139 245/535/137
f 230/538/145 229/539/141 243/540/144
f 230/538/145 243/540/144 239/541/161
f 231/542/147 238/543/148 236/544/151
f 231/542/147 242/545/146 238/543/148
f 232/546/150 231/547/147 236/548/151
f 232/546/150 236/548/151 235/549/156
f 233/550/157 232/546/150 235/549/156
f 241/536/164 233/551/165 234/552/159
f 233/550/157 235/549/156 234/553/158
f 241/536/164 234/552/159 237/534/154
f 237/554/154 234/555/159 235/556/160
f 237/554/154 236/557/151 238/558/148
f 237/554/154 239/559/161 243/560/162
f 237/554/154 235/556/160 236/557/151
f 237/554/154 240/561/163 245/562/155
f 237/554/154 243/560/162 240/561/163
f 237/554/154 238/558/148 239/559/161
f 229/539/141 240/563/143 243/540/144
f 229/539/141 244/564/142 240/563/143
f 244/564/136 245/565/137 240/563/138
f 242/545/146 239/566/161 238/543/148
f 242/545/146 230/567/145 239/566/161
f 250/568/169 246/569/171 261/570/174
f 261/571/175 246/572/176 257/573/177
f 246/572/166 262/574/168 257/573/178
f 246/572/166 263/575/167 262/574/168
f 250/568/169 263/576/170 246/569/171
f 247/577/181 260/578/180 256/579/182
f 247/577/181 259/580/179 260/578/180
f 250/568/169 259/581/179 247/582/181
f 250/568/169 247/582/181 248/583/183
f 248/584/183 247/577/181 256/579/182
f 248/584/183 256/579/182 255/585/184
f 250/568/169 249/586/185 258/587/190
f 258/588/187 249/589/186 254/590/188
f 250/568/169 261/570/174 259/581/179
f 250/591/169 253/592/195 264/593/196
f 250/591/169 251/594/191 253/592/195
f 250/568/169 248/583/183 249/586/185
f 250/568/169 258/587/190 251/595/191
f 263/596/170 250/591/169 264/593/172
f 251/594/192 258/597/193 252/598/194
f 258/588/187 254/590/188 252/599/189
f 253/600/195 252/601/194 254/602/198
f 253/600/195 255/603/184 256/604/182
f 253/600/195 262/605/197 264/606/196
f 253/600/195 256/604/182 260/607/180
f 251/594/192 252/598/194 253/592/195
f 253/600/195 254/602/198 255/603/184
f 253/600/195 257/608/199 262/605/197
f 253/600/195 260/607/180 257/608/199
f 249/589/186 255/609/184 254/590/188
f 249/589/186 248/610/183 255/609/184
f 259/611/179 257/573/177 260/612/180
f 259/611/179 261/571/175 257/573/177
f 263/575/170 264/613/172 262/574/173
f 268/614/200 265/615/201 274/616/202
f 268/614/200 279/617/203 265/615/201
f 268/614/200 266/618/204 278/619/205
f 268/614/200 274/616/202 266/618/204
f 268/614/200 267/620/209 272/621/210
f 268/614/200 275/622/211 267/620/209
f 268/614/200 273/623/207 276/624/208
f 268/614/200 277/625/206 273/623/207
f 268/614/200 278/619/205 277/625/206
f 268/614/200 269/626/212 270/627/213
f 268/614/200 271/628/214 269/626/212
f 268/614/200 276/624/208 275/622/211
f 268/614/200 272/621/210 271/628/214
f 268/614/200 280/629/215 279/617/203
f 270/630/213 269/631/212 271/632/214
f 270/630/213 272/633/210 267/634/209
f 270/630/213 271/632/214 272/633/210
f 270/630/213 266/635/204 274/636/202
f 270/630/213 278/637/205 266/635/204
f 270/630/213 275/638/211 276/639/208
f 270/630/213 267/634/209 275/638/211
f 270/630/213 279/640/203 280/641/215
f 270/630/213 265/642/201 279/640/203
f 270/630/213 277/643/206 278/637/205
f 270/630/213 273/644/207 277/643/206
f 270/630/213 274/636/202 265/642/201
f 270/630/213 276/639/208 273/644/207
f 270/630/213 280/641/215 268/645/200
f 296/646/200 281/647/201 295/648/202
f 296/646/200 290/649/203 281/647/201
f 296/646/200 282/650/212 283/651/213
f 296/646/200 284/652/216 282/650/212
f 283/653/213 284/654/216 285/655/210
f 283/653/213 282/656/212 284/654/216
f 283/653/213 285/655/210 286/657/209
f 283/653/213 286/657/209 292/658/211
f 283/653/213 287/659/208 288/660/207
f 283/653/213 292/658/211 287/659/208
f 283/653/213 288/660/207 289/661/206
f 283/653/213 289/661/206 294/662/205
f 283/653/213 291/663/215 296/664/200
f 283/653/213 290/665/203 291/663/215
f 283/653/213 294/662/205 293/666/204
f 283/653/213 281/667/201 290/665/203
f 283/653/213 295/668/202 281/667/201
f 283/653/213 293/666/204 295/668/202
f 296/646/200 285/669/210 284/652/216
f 296/646/200 286/670/209 285/669/210
f 296/646/200 292/671/211 286/670/209
f 296/646/200 287/672/208 292/671/211
f 296/646/200 288/673/207 287/672/208
f 296/646/200 289/674/206 288/673/207
f 296/646/200 294/675/205 289/674/206
f 296/646/200 295/648/202 293/676/204
f 296/646/200 293/676/204 294/675/205
f 296/646/200 291/677/215 290/649/203
f 297/678/41 299/679/49 298/680/15
f 297/678/41 302/681/217 299/679/49
f 303/682/16 301/683/42 300/684/17
f 304/685/218 310/686/219 305/687/220
f 304/688/218 309/689/221 308/690/222
f 304/685/218 308/691/222 310/686/219
f 306/692/223 304/693/224 305/694/225
f 304/688/218 306/695/226 309/689/221
f 310/696/219 307/697/227 305/698/220
f 306/692/223 305/694/225 307/699/228
f 309/700/221 306/701/226 307/702/227
f 309/700/221 307/702/227 311/703/229
f 310/696/219 311/704/229 307/697/227
f 308/705/230 311/706/231 310/707/232
f 308/705/230 309/708/233 311/706/231
f 313/709/2 314/710/18 317/711/27
f 316/712/19 312/713/4 315/714/3
f 321/715/19 318/716/4 319/717/3
f 320/718/2 322/719/18 323/720/27
f 331/721/234 329/722/235 324/723/236
f 324/724/236 329/725/235 325/726/237
f 331/727/234 324/728/236 326/729/238
f 324/724/236 325/726/237 326/730/238
f 326/731/238 325/732/237 330/733/239
f 329/734/235 330/735/239 325/736/237
f 326/731/238 330/733/239 328/737/240
f 331/727/234 326/729/238 328/738/240
f 327/739/241 328/740/240 330/741/239
f 327/739/241 331/742/234 328/740/240
f 329/734/235 327/743/241 330/735/239
f 331/721/234 327/744/241 329/722/235
f 332/745/242 337/746/243 333/747/244
f 332/745/242 338/748/245 337/746/243
f 334/749/246 332/750/242 333/751/244
f 334/752/246 338/753/245 332/754/242
f 333/755/244 336/756/247 339/757/248
f 333/755/244 337/758/243 336/756/247
f 334/749/246 333/751/244 339/759/248
f 334/752/246 335/760/249 338/753/245
f 335/761/249 334/762/246 339/763/248
f 338/764/245 335/765/249 336/766/247
f 335/761/249 339/763/248 336/767/247
f 338/764/245 336/766/247 337/768/243
f 355/79/250 356/255/250 64/256/250
f 351/82/250 350/305/250 93/318/250
f 158/769/25 157/770/24 156/771/23
f 153/772/45 155/773/44 154/774/43
f 317/775/27 314/776/18 316/777/19
f 59/778/13 343/241/251 57/240/98
f 117/779/30 118/780/29 119/781/28
f 125/782/33 124/783/32 123/784/31
f 130/785/36 131/786/35 129/787/34
f 138/788/22 140/789/21 139/790/20
f 142/791/39 143/792/38 141/793/37
f 70/794/252 346/267/252 66/795/252
f 67/32/253 68/796/253 60/797/253
f 64/256/254 356/255/254 72/250/254
f 85/798/255 354/314/255 96/799/255
f 90/35/253 97/800/253 87/801/253
f 93/318/256 350/305/256 95/299/256
f 302/802/217 297/803/41 301/804/42
f 298/20/15 299/805/49 303/21/16
f 322/23/18 320/806/2 318/24/4
f 114/807/5 115/808/5 116/809/5
f 121/810/8 120/811/7 122/812/6
f 128/813/257 127/814/258 126/815/259
f 132/816/11 134/817/10 133/818/9
f 145/819/260 144/820/261 146/821/262
f 152/822/263 150/823/5 151/824/5
f 313/825/2 317/86/27 315/88/3
f 323/826/27 322/827/18 321/828/19
f 115/829/5 114/830/5 116/831/5
f 127/832/258 128/833/257 126/834/259
f 144/835/261 145/836/260 146/837/262
f 150/838/5 152/839/263 151/840/5
f 297/62/41 298/841/15 300/63/17
f 299/83/49 302/842/217 301/84/42
f 314/65/18 313/843/2 312/66/4
f 320/844/2 323/38/27 319/40/3
f 346/845/264 70/846/104 343/847/101
f 69/271/265 66/848/119 76/269/116
f 354/849/264 85/850/104 81/851/101
f 341/333/265 96/852/119 103/331/116
