# Blender 4.5.0
# www.blender.org
mtllib fuel_urban_001.lod1.mtl
o fuel_urban_001
v -1.530000 2.946394 4.869042
v -6.470000 2.946394 4.869042
v -1.530000 2.526557 4.869042
v -6.470000 2.526557 4.869042
v -2.720000 5.455417 -8.640879
v 2.720000 5.455417 -8.640879
v 2.720000 5.315471 -8.640879
v -2.720000 5.315471 -8.640879
v 9.280000 6.614964 -10.580869
v 11.720000 6.614964 -10.580869
v 11.720000 5.025584 -10.580868
v 9.280000 5.025584 -10.580868
v 5.280000 2.616523 9.719013
v 8.720000 2.616523 9.719013
v 8.720000 2.226675 9.719013
v 5.280000 2.226675 9.719013
v -11.998048 0.032329 -11.996171
v -12.000006 0.097486 -11.999865
v -12.006154 0.102498 -11.999859
v 11.996687 0.000853 -11.997493
v 11.997396 0.000066 11.996354
v -12.004516 0.099115 11.997590
v -11.999976 0.097480 -11.998857
v -11.993324 -0.000001 -11.999460
v -11.996707 0.000881 11.997648
v -11.762722 0.275018 -11.996337
v -11.763326 0.100355 -11.996831
v -12.000000 0.274381 12.006154
v -11.997034 0.274450 11.997029
v -11.763585 0.274416 11.997548
v -11.762863 0.100158 11.996955
v -11.996605 0.274330 -11.996976
v 11.763794 0.100610 11.998025
v 11.763206 0.103575 -11.993887
v 11.766154 0.097502 -11.993705
v -12.002906 0.099678 -11.999849
v 12.000065 0.097508 12.000000
v 12.000000 0.097503 12.000000
v 12.000464 0.105106 -12.000000
v 12.002874 0.094509 -11.996699
v 11.993846 0.091350 -11.999859
v 11.993186 0.276344 -11.999668
v 11.763367 0.271405 11.993938
v 11.767162 0.271282 12.000000
v 11.763593 0.274409 -11.997561
v -11.996634 0.274314 11.762491
v -11.997502 0.100020 11.763751
v 11.997360 0.100939 11.762665
v 11.993838 0.277737 12.000000
v 4.496718 0.100571 -11.997319
v -4.496717 0.100571 -11.762401
v 4.496717 0.274362 -11.762401
v 4.497540 0.099873 -11.763709
v -4.497540 0.275060 -11.763709
v 4.497539 0.275060 -11.996011
v -4.496718 0.274362 -11.997319
v -4.497539 0.099873 -11.996011
v -11.298498 0.106680 -11.511365
v -5.701502 0.105317 -11.511365
v -11.298498 0.105317 -11.888358
v -5.701503 0.106680 -11.888358
v 5.701502 0.106680 -11.511365
v 11.298498 0.105317 -11.511365
v 5.701503 0.105317 -11.888358
v 11.298498 0.106680 -11.888358
v -11.067632 0.099988 0.975804
v -10.951830 0.098976 1.046449
v -10.971445 5.796857 0.935745
v -11.064977 5.792799 0.969396
v -10.933141 5.793812 1.001328
v -10.975596 5.796951 1.066027
v -10.936102 0.095836 0.970678
v -11.000517 0.100592 0.932532
v -11.048119 5.792195 1.047451
v -11.025290 0.095930 1.065738
v -10.777838 5.796373 0.052246
v -10.777838 5.914150 1.047888
v -11.222163 5.914150 0.052246
v -11.223636 5.796154 0.053822
v -10.776365 5.796154 1.046311
v -11.223636 5.914371 1.046311
v -10.776365 5.914371 0.053822
v -11.222163 5.796373 1.047888
v 10.974711 0.095930 1.065738
v 11.048171 0.098976 1.046449
v 11.063899 0.095836 0.970678
v 11.028556 5.796857 0.935745
v 10.935024 5.792799 0.969396
v 10.951882 5.792195 1.047451
v 11.024405 5.796951 1.066027
v 10.999483 0.100592 0.932532
v 10.932369 0.099988 0.975804
v 11.066860 5.793811 1.001328
v 10.777838 5.914150 0.052246
v 11.222163 5.914150 1.047888
v 10.776365 5.914371 1.046311
v 10.776365 5.796154 0.053822
v 10.777838 5.796373 1.047888
v 11.223636 5.796154 1.046311
v 11.222163 5.796373 0.052246
v 11.223636 5.914371 0.053822
v 0.497151 3.294558 5.003267
v 0.495815 3.294349 10.998192
v -8.497150 3.294558 10.996779
v 0.497151 0.099203 10.996779
v -8.495815 3.294349 5.001854
v -8.497150 0.099203 5.003267
v -8.495815 0.099413 10.998193
v 0.495816 0.099412 5.001855
v -8.436257 3.412926 5.061779
v 0.439993 3.296499 5.065773
v -8.434180 3.409812 10.934149
v -8.440000 3.410060 10.933853
v -8.439963 3.296099 10.937788
v 0.440575 3.413106 5.065757
v 0.436258 3.412926 10.938268
v 0.441036 3.301389 10.939473
v -8.597946 3.300355 10.941818
v -8.595554 3.654731 10.940106
v -8.442942 3.653268 10.937575
v -8.444314 3.650195 5.066090
v -8.443408 3.649966 5.060040
v 0.443173 3.653021 5.061365
v 0.440715 3.653933 10.933424
v 0.440000 3.649966 10.933853
v 0.599726 3.303087 10.939981
v -8.597820 3.652269 4.902059
v -8.597789 3.299376 4.902782
v -8.599694 3.650829 5.060940
v -8.606154 3.656118 5.053886
v -8.599697 3.303065 5.060046
v 0.599739 3.649271 5.060064
v 0.597788 3.653000 4.902782
v 0.597819 3.300107 4.902059
v 0.593844 3.296255 5.060040
v 0.599941 3.650085 10.940006
v 0.596505 3.654237 11.097581
v -8.597820 3.300107 11.097989
v -8.597788 3.653001 11.097265
v 0.597788 3.299376 11.097266
v -6.796371 2.414213 4.890902
v -5.603629 0.169862 4.890902
v -6.796876 0.169433 4.891294
v -5.603630 2.414214 5.029182
v -6.796876 2.414643 5.028790
v -6.796371 0.169863 5.029182
v -5.603124 2.414643 4.891294
v -5.603124 0.169433 5.028790
v -5.674751 2.337427 4.871592
v -6.725249 2.337426 4.868493
v -6.725249 0.236653 4.871592
v -5.674751 0.236653 4.868493
v -6.202017 0.234271 4.811797
v -6.197983 2.339809 4.811797
v -6.202017 2.339809 4.868287
v -6.197983 0.234271 4.868287
v -6.317875 1.398209 4.746289
v -6.322125 1.398209 4.813797
v -6.322125 0.995941 4.746289
v -6.317875 0.995941 4.813797
v -6.077875 1.398209 4.746289
v -6.082125 0.995941 4.746289
v -6.082125 1.398209 4.813797
v -6.077875 0.995941 4.813797
v -4.466116 2.383929 4.892137
v -4.467102 0.649538 4.893373
v -1.332899 2.384362 4.893373
v -1.332899 0.649538 5.036710
v -1.333884 0.649972 4.892137
v -4.467102 2.384362 5.036709
v -1.333884 2.383929 5.037947
v -4.466116 0.649972 5.037947
v -4.399959 2.316417 4.873775
v -1.400042 0.717484 4.873775
v -1.400042 2.316417 4.876309
v -4.399959 0.717484 4.876309
v -4.398014 2.359820 4.814235
v -4.401987 0.684076 4.814235
v -4.401987 2.359821 4.875850
v -4.398014 0.684076 4.875849
v -2.898014 2.359820 4.814235
v -2.901987 0.684077 4.814235
v -2.901987 2.359820 4.875850
v -2.898014 0.684076 4.875849
v -1.401986 0.684077 4.814235
v -1.398013 0.684076 4.875849
v -1.398014 2.359820 4.814235
v -1.401986 2.359820 4.875850
v -4.512253 0.684914 4.708066
v -4.513306 0.609031 4.709490
v -4.512253 0.609663 4.942019
v -1.286695 0.685546 4.709490
v -1.286695 0.609031 4.940595
v -1.287748 0.684914 4.942019
v -4.513306 0.685546 4.940595
v -1.287748 0.609663 4.708066
v -6.497692 2.972192 4.876700
v -1.502308 2.972192 5.023383
v -6.498063 2.973081 5.022679
v -1.501937 2.973081 4.877404
v -6.498063 2.499871 4.877404
v -1.502308 2.500759 4.876700
v -1.501937 2.499871 5.022679
v -6.497692 2.500759 5.023383
v -1.578904 4.142936 9.223197
v -2.421096 3.499171 9.223197
v -2.421096 4.142936 8.776838
v -2.421964 3.498625 8.777692
v -2.421964 4.143483 9.222344
v -1.578036 4.143483 8.777691
v -1.578904 3.499172 8.776838
v -1.578036 3.498625 9.222344
v -1.640411 3.719712 8.748649
v -1.727021 3.634407 8.756092
v -1.954659 3.635543 8.751390
v -1.836982 3.604955 8.743946
v -2.040818 3.721541 8.750548
v -2.071749 3.836798 8.750422
v -1.724231 4.037093 8.749799
v -1.608811 3.837252 8.749490
v -2.040821 3.952296 8.750239
v -1.901974 4.067246 8.750019
v -1.639674 3.952527 8.749617
v -1.629940 3.666055 8.718884
v -1.629940 3.691164 8.721157
v -2.055768 3.678609 8.720020
v -1.624231 3.745583 8.720020
v -2.050060 3.758138 8.718884
v -2.050060 3.733029 8.721157
v -1.629940 3.800002 8.718884
v -2.055768 3.812557 8.720020
v -1.629940 3.825112 8.721157
v -1.624231 3.879531 8.720020
v -2.050060 3.866977 8.721157
v -2.050060 3.892086 8.718884
v -2.050060 3.959060 8.718884
v -1.624231 3.946505 8.720020
v -2.050060 3.933950 8.721157
v -2.050060 4.026034 8.718884
v -1.624231 4.013479 8.720020
v -2.050060 4.000924 8.721157
v -2.245570 4.016051 8.756531
v -2.334430 4.016051 8.753508
v -2.245570 3.656045 8.753508
v -2.334430 3.656045 8.756531
v -2.338487 3.494730 8.713693
v -2.260816 3.495320 8.714961
v -2.339184 3.427068 8.714961
v -2.338487 3.427658 9.286344
v -2.339184 3.495320 9.285075
v -2.261513 3.494730 9.286343
v -2.261513 3.427658 8.713693
v -2.260816 3.427068 9.285075
v -1.738487 3.494730 8.713693
v -1.661513 3.427658 8.713693
v -1.661513 3.494731 9.286343
v -1.739184 3.495320 9.285075
v -1.738487 3.427658 9.286344
v -1.660816 3.495320 8.714961
v -1.739185 3.427068 8.714961
v -1.660816 3.427068 9.285075
v -9.496235 5.552376 -8.497826
v -9.497060 5.197913 -8.496841
v 9.496235 5.552377 2.498000
v -9.496235 5.198519 2.498000
v 9.497060 5.552983 -8.496841
v 9.497060 5.197913 2.497017
v 9.496235 5.198519 -8.497826
v -9.497060 5.552983 2.497017
v -9.497494 5.521297 -8.548109
v 9.497495 5.521297 -8.451652
v -9.497495 5.259588 -8.451651
v -9.497934 5.258715 -8.547338
v -9.497934 5.522169 -8.452422
v 9.497934 5.522169 -8.547338
v 9.497495 5.259588 -8.548108
v 9.497934 5.258715 -8.452422
v -2.746794 5.481854 -8.632675
v 2.746794 5.289034 -8.632675
v -2.747474 5.482647 -8.488192
v 2.746794 5.481853 -8.487084
v -2.747474 5.288241 -8.631568
v 2.747474 5.482647 -8.631568
v 2.747474 5.288241 -8.488192
v -2.746794 5.289034 -8.487084
v -4.276991 0.276811 -5.746138
v -5.722123 0.098189 -0.252314
v -5.722123 0.276745 -5.747510
v -5.723009 0.098123 -5.746138
v -4.277877 0.276745 -0.252314
v -5.723009 0.276812 -0.253686
v -4.277877 0.098189 -5.747510
v -4.276991 0.098123 -0.253686
v -5.121686 5.192206 -2.022551
v -4.878314 0.280745 -2.022551
v -4.877564 0.279995 -1.778509
v -5.122436 5.192955 -1.778509
v -4.877564 5.192955 -2.021328
v -4.878314 5.192206 -1.777286
v -5.122436 0.279995 -2.021328
v -5.121686 0.280745 -1.777286
v -5.447557 1.922436 -4.148264
v -4.552443 0.281787 -4.148264
v -5.447558 0.281787 -3.451550
v -4.552443 1.922436 -3.451550
v -4.552078 1.923449 -4.147419
v -5.447922 1.923449 -3.452396
v -5.447922 0.280773 -4.147419
v -4.552078 0.280773 -3.452396
v -4.659142 1.096353 -4.161287
v -5.340858 1.096353 -4.158523
v -4.659142 1.647659 -4.158523
v -5.340858 1.647659 -4.161287
v -5.520187 1.712982 -3.801615
v -5.708532 1.088091 -3.830691
v -5.457051 1.688882 -3.796585
v -5.735987 1.098703 -3.769649
v -5.686296 1.100800 -3.796585
v -5.753867 1.101988 -3.801616
v -5.716147 0.562735 -3.830692
v -5.745574 0.563376 -3.769648
v -5.717584 0.555474 -3.771766
v -5.711124 0.544223 -3.817930
v -5.481696 0.719854 -3.799269
v -5.500921 0.747413 -3.765063
v -5.499393 0.745556 -3.834658
v -5.754255 0.592006 -3.797244
v -5.523800 0.771110 -3.800404
v -5.441623 1.013825 -3.857280
v -5.441767 1.012580 -3.741347
v -5.518233 1.012580 -3.858468
v -5.518233 0.751813 -3.741347
v -5.441623 0.750569 -3.742535
v -5.518377 1.013825 -3.742535
v -5.518377 0.750569 -3.857280
v -5.441767 0.751813 -3.858468
v -4.480146 1.712948 -3.796586
v -4.543220 1.688686 -3.801615
v -4.265439 1.098066 -3.830692
v -4.292953 1.087614 -3.769649
v -4.246459 1.102069 -3.796585
v -4.314027 1.100708 -3.801615
v -4.285414 0.562792 -3.769649
v -4.255982 0.563262 -3.830692
v -4.288141 0.537850 -3.797245
v -4.261483 0.582213 -3.771765
v -4.252110 0.591183 -3.817932
v -4.499938 0.746314 -3.765063
v -4.477798 0.771594 -3.799269
v -4.512239 0.737917 -3.831025
v -4.558233 1.012580 -3.858468
v -4.558377 0.750569 -3.857280
v -4.558233 0.751813 -3.741347
v -4.558377 1.013825 -3.742535
v -4.481624 1.013825 -3.857280
v -4.481624 0.750569 -3.742535
v -4.481768 0.751813 -3.858468
v -4.481767 1.012580 -3.741347
v -5.173879 5.166370 -6.249708
v -5.173879 5.169686 -4.750088
v -4.826121 5.166370 -4.750088
v -4.826121 5.169686 -6.249708
v 5.723009 0.276811 -5.746138
v 5.722123 0.098189 -5.747510
v 4.277877 0.098189 -0.252314
v 5.723009 0.098123 -0.253686
v 4.277877 0.276745 -5.747510
v 4.276991 0.276812 -0.253686
v 5.722123 0.276745 -0.252314
v 4.276991 0.098123 -5.746138
v 4.878314 5.192206 -2.022551
v 4.878314 0.280745 -1.777286
v 4.877564 5.192955 -1.778509
v 4.877564 0.279995 -2.021328
v 5.121686 5.192206 -1.777286
v 5.122436 5.192955 -2.021328
v 5.121686 0.280745 -2.022551
v 5.122436 0.279995 -1.778509
v 5.447557 0.281787 -4.148264
v 4.552078 1.923449 -3.452396
v 5.447922 1.923449 -4.147419
v 5.447558 1.922436 -3.451550
v 4.552443 1.922436 -4.148264
v 4.552078 0.280773 -4.147419
v 5.447922 0.280773 -3.452396
v 4.552442 0.281787 -3.451550
v 5.340858 1.647659 -4.158523
v 4.659142 1.647659 -4.161287
v 4.659142 1.096353 -4.158523
v 5.340858 1.096353 -4.161287
v 4.264014 1.098703 -3.769649
v 4.291468 1.088091 -3.830691
v 4.479813 1.712982 -3.801615
v 4.542949 1.688882 -3.796585
v 4.313705 1.100800 -3.796585
v 4.246133 1.101988 -3.801616
v 4.254427 0.563376 -3.769648
v 4.283854 0.562735 -3.830692
v 4.282416 0.555474 -3.771766
v 4.288876 0.544223 -3.817930
v 4.518304 0.719854 -3.799269
v 4.245745 0.592006 -3.797244
v 4.500608 0.745556 -3.834658
v 4.476201 0.771110 -3.800404
v 4.499080 0.747413 -3.765063
v 4.481767 1.012580 -3.858468
v 4.481624 1.013825 -3.742535
v 4.481767 0.751813 -3.741347
v 4.558233 1.012580 -3.741347
v 4.558377 0.750569 -3.742535
v 4.558377 1.013825 -3.857280
v 4.558233 0.751813 -3.858468
v 4.481624 0.750569 -3.857280
v 5.456780 1.688686 -3.801615
v 5.707047 1.087614 -3.769649
v 5.519854 1.712948 -3.796586
v 5.734562 1.098065 -3.830692
v 5.685974 1.100708 -3.801615
v 5.714586 0.562792 -3.769649
v 5.744018 0.563262 -3.830692
v 5.753541 1.102069 -3.796585
v 5.738517 0.582213 -3.771765
v 5.711859 0.537850 -3.797245
v 5.747890 0.591183 -3.817932
v 5.487762 0.737917 -3.831025
v 5.522202 0.771594 -3.799269
v 5.500062 0.746314 -3.765063
v 5.518233 0.751813 -3.858468
v 5.441767 1.012580 -3.858468
v 5.441623 1.013825 -3.742535
v 5.441767 0.751813 -3.741347
v 5.518233 1.012580 -3.741347
v 5.518377 1.013825 -3.857280
v 5.518377 0.750569 -3.742535
v 5.441623 0.750569 -3.857280
v 5.173879 5.169686 -6.249708
v 4.826121 5.166370 -6.249708
v 4.826121 5.169686 -4.750088
v 5.173879 5.166370 -4.750088
v 10.372471 0.099289 -10.546157
v 10.620544 0.092319 -10.554919
v 10.590597 0.098975 -10.411058
v 10.377092 6.993030 -10.557314
v 10.626861 6.993343 -10.498606
v 10.409456 6.991727 -10.410055
v 10.499484 0.100592 -10.627399
v 10.553642 6.999837 -10.621130
v 10.452189 0.092481 -10.376193
v 10.546309 6.999999 -10.375705
v 9.252795 4.997941 -10.571412
v 11.746281 6.642074 -10.427093
v 11.747205 4.997940 -10.428325
v 9.253720 6.642074 -10.572646
v 9.252796 6.642608 -10.428326
v 9.253720 4.998475 -10.427093
v 11.746280 4.998475 -10.572644
v 11.747205 6.642608 -10.571413
v 4.753145 0.244141 5.252526
v 9.246856 0.100807 5.252526
v 9.246856 0.244141 10.747521
v 9.247569 0.100009 10.746237
v 9.247569 0.244939 5.253811
v 4.752431 0.244939 10.746237
v 4.752431 0.100008 5.253811
v 4.753145 0.100807 10.747521
v 4.752090 3.042473 9.850925
v 4.751774 3.043100 10.148682
v 9.248226 0.250701 10.148683
v 4.751774 0.250701 9.851341
v 4.752090 0.251328 10.149097
v 9.248227 3.043100 9.851341
v 9.247910 3.042473 10.149097
v 9.247910 0.251328 9.850925
v 8.745749 2.198181 9.725667
v 5.253298 2.198376 9.726131
v 8.745749 2.645017 9.874359
v 5.253297 2.644822 9.873895
v 5.254251 2.645016 9.725667
v 8.746703 2.644822 9.726131
v 8.746703 2.198376 9.873895
v 5.254251 2.198181 9.874359
v -12.000000 0.097456 -11.999859
v -8.440000 3.296258 10.933853
v -8.442901 3.293593 10.936754
v -8.446154 3.290106 10.940006
v -8.593906 3.296306 10.940016
v -8.602777 3.652916 5.057090
v -8.600000 3.649966 5.060040
v 0.593905 3.296305 5.060031
v 12.006154 0.091350 -11.999859
v 12.000000 0.097502 -11.993705
v -8.600000 3.303629 5.060040
v -8.599988 3.303577 5.060037
v 0.430596 3.301416 5.063935
v -11.993846 0.277433 11.993846
v 0.440901 3.295138 10.941130
v 0.441562 3.298646 10.938223
v 0.441655 3.303055 10.940007
v -8.593842 3.296291 10.938781
v -8.593844 3.296255 10.940005
v 0.593841 3.296290 5.061267
v 0.599720 3.649321 5.060010
v 0.600000 3.648747 5.060040
v -8.589887 3.650342 5.050095
v -8.600000 3.648747 10.940006
v -8.599740 3.649271 10.939981
v -12.000000 0.097503 12.000000
v -12.004017 0.099320 12.000002
v -12.004402 0.099079 11.999957
v -12.002641 0.099101 12.000185
v -11.999967 0.097568 12.000012
v -12.005207 0.100579 12.000000
v -8.440688 3.296959 10.935423
v -11.998781 0.276592 11.996965
v -11.996709 0.276926 11.998637
v -8.437891 3.300248 5.062886
v -8.440843 3.302396 5.060686
v -8.440246 3.302476 5.059950
v -8.440378 3.303086 5.060660
v 0.599798 3.650366 10.940016
v -8.593846 3.296258 5.066195
v -12.000000 0.003692 -11.993705
v 0.599954 3.303433 10.940020
v 0.597945 3.300355 5.058228
v 0.600000 3.303629 10.940006
v 12.000047 0.097701 12.000029
v 12.000073 0.097521 12.000000
v 12.000049 0.097503 12.000000
v 11.993846 0.277433 12.000000
v 11.997702 0.275520 12.001328
v 11.999471 0.277428 12.002911
v 11.993791 0.277466 11.999968
v 11.993791 0.277480 11.999998
v 11.999998 0.272242 11.763732
v 11.999980 0.097499 -11.993721
v 12.006154 0.277433 12.006154
v 0.439587 3.292419 5.061016
vn -0.0000 -0.0000 -1.0000
vn -0.7051 -0.0413 0.7079
vn -0.9961 -0.0881 -0.0001
vn -0.9895 -0.1446 -0.0001
vn -0.2991 0.7226 0.6232
vn -0.5725 0.5804 -0.5792
vn -0.9397 0.3420 -0.0080
vn 0.5683 -0.5921 -0.5713
vn 0.4362 -0.0098 -0.8998
vn 0.7054 0.0036 -0.7088
vn -0.7660 -0.6428 -0.0000
vn 0.5764 0.5834 -0.5722
vn 0.5273 0.8492 0.0276
vn 0.8955 0.4451 -0.0006
vn 0.0001 -0.0040 -1.0000
vn 0.0001 -0.6812 -0.7321
vn 0.0121 -0.9999 -0.0000
vn 0.5808 -0.5735 -0.5777
vn 0.5835 -0.5764 0.5721
vn -0.9998 0.0191 -0.0000
vn 0.0023 0.7042 -0.7100
vn 0.0084 0.0105 -0.9999
vn 0.0044 -1.0000 0.0001
vn 0.0090 -0.7113 0.7028
vn -0.7086 -0.0413 0.7044
vn -0.9996 -0.0300 -0.0000
vn 0.5708 -0.5942 0.5667
vn 0.9994 -0.0341 -0.0000
vn 0.0052 1.0000 -0.0000
vn 0.5842 0.5610 0.5865
vn -0.0000 -1.0000 0.0026
vn -0.0000 -0.0000 1.0000
vn -0.0000 0.0002 1.0000
vn -0.0003 0.0341 0.9994
vn 0.5810 0.5752 0.5758
vn 0.0108 0.7040 0.7101
vn -0.0003 0.0343 0.9994
vn -0.9992 0.0290 -0.0275
vn -0.3818 -0.6588 -0.6482
vn 0.3687 -0.9294 -0.0175
vn -0.0001 -1.0000 -0.0030
vn -0.0000 -0.0243 0.9997
vn 0.5785 0.5782 -0.5753
vn -0.3776 0.9259 -0.0125
vn -0.5730 0.5742 -0.5848
vn -0.0000 0.9997 -0.0233
vn 0.3897 0.6381 -0.6640
vn -0.5926 -0.5666 -0.5725
vn -0.0148 -0.7158 0.6981
vn -0.5830 -0.5701 0.5789
vn -0.0158 0.0094 0.9998
vn -0.7168 0.0191 0.6971
vn -0.5822 0.5717 -0.5781
vn -0.0159 -0.0086 -0.9998
vn -0.0256 -0.9997 -0.0000
vn 0.9991 0.0349 0.0255
vn 0.9993 0.0380 -0.0000
vn 0.9999 0.0132 -0.0002
vn 0.9999 0.0133 -0.0002
vn 0.5693 -0.5757 -0.5869
vn 0.7310 0.0505 0.6805
vn -0.0125 0.6892 -0.7245
vn -0.0248 0.9997 -0.0000
vn -0.5746 0.5758 -0.5816
vn 0.5746 -0.5758 -0.5816
vn -0.5787 -0.5795 -0.5738
vn 0.5787 -0.5795 0.5738
vn 0.5787 0.5795 -0.5738
vn -0.5746 -0.5758 0.5816
vn 0.5746 0.5758 0.5816
vn -0.5787 0.5795 0.5738
vn -0.8327 -0.0316 -0.5528
vn 0.8328 0.0314 -0.5528
vn 0.8327 -0.0315 0.5528
vn -0.8327 0.0316 0.5528
vn -0.8327 -0.0315 -0.5528
vn 0.8327 -0.0316 0.5528
vn 0.8327 0.0315 -0.5528
vn -0.7802 -0.5814 -0.2310
vn -0.3335 -0.6159 0.7137
vn -0.5837 0.5966 0.5508
vn -0.7150 0.5814 -0.3883
vn 0.5798 -0.6039 0.5469
vn -0.0233 -0.5966 -0.8022
vn 0.7048 -0.6352 -0.3159
vn 0.7967 0.6039 0.0232
vn 0.2750 0.6351 0.7218
vn 0.2688 0.6159 -0.7405
vn -0.7016 0.0023 -0.7126
vn 0.7016 -0.0023 -0.7126
vn -0.7137 -0.0018 -0.7004
vn 0.0002 -1.0000 -0.0001
vn 0.0005 -1.0000 -0.0002
vn -0.0002 -1.0000 0.0001
vn 0.7137 0.0018 -0.7004
vn 0.7137 -0.0018 0.7004
vn 0.0002 1.0000 0.0001
vn 0.0005 1.0000 0.0002
vn -0.0002 1.0000 -0.0001
vn 0.7016 0.0023 0.7126
vn -0.7137 0.0018 0.7004
vn -0.7016 -0.0023 0.7126
vn -0.0005 1.0000 -0.0002
vn -0.0005 -1.0000 0.0002
vn -0.5775 0.5774 0.5771
vn 0.5775 0.5774 -0.5771
vn -0.5772 0.5774 -0.5775
vn 0.5772 -0.5774 -0.5775
vn 0.5775 -0.5774 0.5771
vn 0.5772 0.5774 0.5775
vn -0.5772 -0.5774 0.5775
vn -0.5775 -0.5774 -0.5771
vn -0.5647 0.5909 -0.5762
vn -0.0005 -0.6921 -0.7218
vn -0.6961 -0.2250 -0.6817
vn 0.5903 0.5574 -0.5838
vn -0.5458 0.6035 0.5813
vn -0.0013 -1.0000 0.0012
vn -0.5815 0.5923 0.5577
vn -0.5706 0.5858 -0.5756
vn -0.7215 -0.0024 -0.6924
vn -0.0011 -1.0000 0.0015
vn -1.0000 -0.0024 0.0003
vn 0.0521 -0.9986 -0.0002
vn 0.0410 -0.6899 0.7227
vn 0.0331 -0.7145 0.6988
vn -0.0293 -0.0121 -0.9995
vn 0.5639 0.5915 0.5763
vn -0.9987 0.0512 0.0002
vn -0.0005 0.0486 0.9988
vn 0.0444 -0.9990 -0.0012
vn 0.0065 0.0006 1.0000
vn -0.0012 -1.0000 -0.0000
vn 0.9996 0.0279 -0.0001
vn 0.6290 0.6252 0.4619
vn 1.0000 0.0085 -0.0002
vn -0.0000 0.0108 0.9999
vn 0.9992 0.0412 0.0007
vn -0.0048 0.6984 0.7157
vn 0.0280 0.0131 -0.9995
vn 0.0388 0.0181 -0.9991
vn 0.0096 -0.0203 -0.9997
vn -0.5674 -0.5880 -0.5765
vn 0.1901 -0.7037 0.6846
vn -0.5864 -0.5679 0.5776
vn -0.0000 -0.0001 -1.0000
vn 0.4487 -0.7281 -0.5183
vn -0.5764 0.5834 0.5721
vn 0.0366 0.9993 0.0002
vn 0.0186 0.6995 0.7144
vn -0.9996 0.0291 -0.0010
vn -0.9996 0.0278 -0.0009
vn -1.0000 -0.0035 0.0010
vn 0.5680 0.5875 0.5764
vn -0.5272 0.8496 -0.0134
vn 0.0104 0.7022 -0.7119
vn 0.9999 0.0002 0.0141
vn 1.0000 0.0006 -0.0000
vn -0.9999 -0.0001 -0.0138
vn -0.5724 -0.5858 -0.5737
vn 0.5864 -0.5679 -0.5776
vn 0.5674 -0.5880 0.5765
vn -0.7148 -0.6989 0.0249
vn -0.9999 -0.0009 -0.0121
vn -0.0000 -0.0001 1.0000
vn 0.6035 0.7974 -0.0078
vn -0.5784 0.5781 0.5755
vn -0.5763 0.5765 -0.5792
vn -0.5784 -0.5782 -0.5754
vn 0.5763 -0.5765 -0.5792
vn 0.5784 0.5781 -0.5755
vn 0.5784 -0.5781 0.5755
vn -0.5763 -0.5765 0.5792
vn 0.5763 0.5765 0.5792
vn -0.6421 0.7666 0.0095
vn 0.6421 0.7666 -0.0096
vn 0.6421 -0.7666 0.0096
vn -0.6421 -0.7666 -0.0095
vn 0.0417 0.8362 -0.5468
vn 0.0416 -0.8362 0.5468
vn -0.0409 -0.8426 -0.5369
vn -0.0409 0.8426 0.5369
vn 0.0361 0.8171 -0.5753
vn -0.0360 0.8171 0.5753
vn 0.0360 -0.8171 0.5753
vn -0.0360 -0.8171 -0.5753
vn -0.0360 0.8175 0.5748
vn 0.0361 0.8168 -0.5757
vn -0.0360 -0.8175 -0.5748
vn 0.0361 -0.8168 0.5757
vn -0.5752 0.5767 -0.5801
vn 0.5752 -0.5767 -0.5801
vn -0.5793 -0.5782 -0.5745
vn 0.5793 0.5782 -0.5745
vn -0.5793 0.5782 0.5745
vn 0.5793 -0.5782 0.5745
vn -0.5752 -0.5767 0.5801
vn 0.5752 0.5767 0.5801
vn -0.7619 0.6476 0.0140
vn 0.7620 0.6474 -0.0139
vn 0.7619 -0.6475 0.0139
vn -0.7621 -0.6474 -0.0138
vn -0.0380 0.8379 0.5445
vn 0.0378 0.8379 -0.5445
vn -0.0378 -0.8379 -0.5445
vn 0.0380 -0.8379 0.5445
vn -0.0378 0.8386 0.5434
vn 0.0379 0.8372 -0.5457
vn -0.0377 -0.8386 -0.5434
vn 0.0379 -0.8372 0.5457
vn -0.0378 0.8383 0.5439
vn 0.0379 0.8375 -0.5451
vn -0.0378 -0.8383 -0.5439
vn 0.0379 -0.8375 0.5451
vn -0.5817 0.5799 0.5704
vn 0.5817 0.5799 -0.5704
vn -0.5709 0.5753 -0.5858
vn 0.5709 -0.5753 -0.5858
vn -0.5817 -0.5799 -0.5704
vn 0.5817 -0.5799 0.5704
vn -0.5709 -0.5753 0.5858
vn 0.5709 0.5753 0.5858
vn -0.5766 0.5753 -0.5801
vn 0.5766 -0.5753 -0.5801
vn -0.5778 -0.5796 -0.5747
vn 0.5778 0.5796 -0.5747
vn -0.5778 0.5796 0.5747
vn 0.5766 0.5753 0.5801
vn -0.5766 -0.5753 0.5801
vn 0.5778 -0.5796 0.5747
vn 0.5764 0.5770 0.5786
vn -0.5764 -0.5770 0.5786
vn 0.5781 -0.5779 0.5761
vn -0.5781 0.5779 0.5761
vn 0.5781 0.5779 -0.5761
vn -0.5781 -0.5779 -0.5761
vn -0.5764 0.5770 -0.5786
vn 0.5764 -0.5770 -0.5786
vn 0.5271 -0.8329 0.1686
vn 0.9260 -0.3734 -0.0558
vn 0.9905 0.1367 -0.0112
vn -0.9958 0.0916 0.0053
vn -0.9261 -0.3770 0.0112
vn -0.8102 0.5862 0.0019
vn 0.8166 0.5772 -0.0053
vn 0.4086 0.9127 -0.0019
vn -0.6152 -0.7864 0.0558
vn -0.0401 -0.9849 -0.1686
vn -0.2588 0.9659 -0.0000
vn -0.0000 -0.0000 -0.0000
vn -0.0000 -0.1240 0.9923
vn -0.0000 -0.1843 0.9829
vn -0.0000 -0.9966 -0.0825
vn -0.0000 -0.9966 -0.0829
vn -0.0000 0.9956 -0.0938
vn -0.0000 0.9958 -0.0917
vn 0.5934 0.8047 0.0184
vn -0.5934 -0.8047 0.0184
vn 0.5934 -0.8047 -0.0184
vn -0.5934 0.8047 -0.0184
vn -0.5835 0.5825 0.5659
vn 0.5835 0.5825 -0.5659
vn -0.5740 0.5748 -0.5832
vn 0.5740 -0.5748 -0.5832
vn -0.5835 -0.5825 -0.5659
vn 0.5835 -0.5825 0.5659
vn 0.5740 0.5748 0.5832
vn -0.5740 -0.5748 0.5832
vn -0.5782 0.5775 0.5763
vn -0.5765 0.5772 -0.5784
vn -0.5782 -0.5775 -0.5763
vn 0.5765 -0.5772 -0.5784
vn 0.5782 0.5775 -0.5763
vn 0.5782 -0.5775 0.5763
vn -0.5765 -0.5772 0.5784
vn 0.5765 0.5772 0.5784
vn -0.5757 0.5744 -0.5819
vn 0.5757 -0.5744 -0.5819
vn -0.5781 -0.5809 -0.5730
vn 0.5781 0.5809 -0.5730
vn -0.5781 0.5809 0.5730
vn 0.5757 0.5744 0.5819
vn -0.5757 -0.5744 0.5819
vn 0.5781 -0.5809 0.5730
vn -0.5785 0.5802 0.5733
vn -0.5748 0.5752 -0.5820
vn -0.5785 -0.5802 -0.5733
vn 0.5748 -0.5752 -0.5820
vn 0.5785 0.5802 -0.5733
vn 0.5785 -0.5802 0.5733
vn -0.5748 -0.5752 0.5820
vn 0.5748 0.5752 0.5820
vn -0.0000 1.0000 -0.0000
vn -0.7045 -0.0011 -0.7097
vn 0.7102 0.0020 -0.7040
vn 0.7045 0.0011 -0.7097
vn 0.7045 -0.0011 0.7097
vn 0.7102 -0.0020 0.7040
vn -0.0000 -1.0000 -0.0000
vn -0.7102 0.0020 0.7040
vn -0.7045 0.0011 0.7097
vn -0.7102 -0.0020 -0.7040
vn -0.5760 0.5754 -0.5806
vn 0.5760 -0.5754 -0.5806
vn -0.5792 -0.5783 -0.5745
vn -0.5792 0.5783 0.5745
vn 0.5792 0.5783 -0.5745
vn 0.5792 -0.5783 0.5745
vn 0.5760 0.5754 0.5806
vn -0.5760 -0.5754 0.5806
vn -0.5773 0.5766 -0.5781
vn 0.5773 -0.5766 -0.5781
vn -0.5776 -0.5779 -0.5766
vn 0.5776 0.5779 -0.5766
vn -0.5776 0.5779 0.5766
vn 0.5776 -0.5779 0.5766
vn -0.5773 -0.5766 0.5781
vn 0.5773 0.5766 0.5781
vn -0.7271 0.6864 -0.0109
vn 0.7272 0.6863 0.0109
vn 0.7271 -0.6864 -0.0109
vn -0.7272 -0.6863 0.0109
vn 0.8195 0.5715 0.0434
vn -0.2275 0.9729 -0.0408
vn -0.5249 -0.6845 0.5059
vn -0.0694 -0.8590 -0.5072
vn -0.5502 0.8340 -0.0411
vn 0.5814 0.8124 0.0442
vn 0.2291 -0.8278 -0.5121
vn -0.2629 -0.8186 0.5106
vn -0.2088 -0.6149 0.7605
vn -0.0967 -0.8166 -0.5690
vn 0.9625 -0.2702 0.0242
vn -0.9751 0.2172 -0.0438
vn 0.4713 0.3951 0.7885
vn 0.4906 0.3643 -0.7916
vn -0.0744 0.9969 -0.0256
vn -0.5791 0.5829 0.5700
vn 0.5791 0.5829 -0.5700
vn -0.5779 0.5689 -0.5851
vn 0.5779 -0.5689 -0.5851
vn 0.5791 -0.5829 0.5700
vn 0.5779 0.5689 0.5851
vn -0.5779 -0.5689 0.5851
vn -0.5791 -0.5829 -0.5700
vn 0.2275 0.9728 0.0434
vn 0.0674 -0.8599 0.5060
vn 0.5227 -0.6852 -0.5072
vn -0.8195 0.5716 -0.0408
vn 0.5503 0.8338 0.0442
vn -0.5812 0.8127 -0.0411
vn -0.2318 -0.8281 0.5105
vn 0.2602 -0.8185 -0.5122
vn 0.0179 -0.9989 -0.0427
vn 0.6471 -0.0548 0.7605
vn -0.5786 0.1983 0.7911
vn 0.8156 0.1045 -0.5691
vn 0.0876 0.9935 -0.0723
vn -0.7578 0.0536 -0.6503
vn -0.5907 -0.0015 0.8069
vn 0.5907 -0.0015 -0.8069
vn -0.5903 0.0015 -0.8072
vn 0.5903 0.0015 0.8072
vn -0.2628 -0.8187 0.5106
vn 0.2291 -0.8277 -0.5122
vn -0.0744 0.9969 -0.0255
vn 0.5227 -0.6853 -0.5071
vn 0.2603 -0.8184 -0.5123
vn -0.2317 -0.8281 0.5105
vn 0.5788 -0.6007 0.5516
vn -0.3355 -0.6174 0.7115
vn -0.7779 -0.5840 -0.2321
vn -0.5795 0.5989 0.5528
vn -0.7142 0.5840 -0.3859
vn 0.7059 -0.6359 -0.3120
vn -0.0189 -0.5989 -0.8006
vn 0.2659 0.6173 -0.7404
vn 0.2785 0.6359 0.7198
vn 0.7993 0.6007 0.0192
vn -0.5792 -0.5785 -0.5744
vn 0.5754 -0.5765 -0.5802
vn 0.5792 -0.5785 0.5744
vn -0.5792 0.5785 0.5744
vn -0.5754 0.5765 -0.5802
vn -0.5754 -0.5765 0.5802
vn 0.5792 0.5785 -0.5744
vn 0.5754 0.5765 0.5802
vn -0.5754 0.5762 -0.5804
vn 0.5754 -0.5762 -0.5804
vn -0.5794 -0.5784 -0.5742
vn -0.5794 0.5784 0.5742
vn 0.5794 0.5784 -0.5742
vn 0.5794 -0.5784 0.5742
vn 0.5754 0.5762 0.5804
vn -0.5754 -0.5762 0.5804
vn -0.5771 0.5767 -0.5782
vn 0.5771 -0.5767 -0.5782
vn -0.5776 -0.5780 -0.5765
vn 0.5776 0.5780 -0.5765
vn -0.5776 0.5780 0.5765
vn 0.5771 0.5767 0.5782
vn -0.5771 -0.5767 0.5782
vn 0.5776 -0.5780 0.5765
vn -0.7086 -0.7057 0.0018
vn 0.7044 -0.7098 -0.0036
vn 0.7086 -0.7056 -0.0018
vn -0.0001 -0.0009 -1.0000
vn 0.0001 0.0009 -1.0000
vn -0.0001 -0.0010 -1.0000
vn 0.0001 0.0010 -1.0000
vn 0.7086 0.7056 0.0018
vn -0.7086 0.7056 -0.0018
vn -0.7044 0.7098 -0.0036
vn -0.7044 -0.7098 0.0036
vn 0.7044 0.7098 0.0036
vn 0.0001 -0.0009 1.0000
vn -0.0001 0.0009 1.0000
vn 0.0001 -0.0010 1.0000
vn -0.0001 0.0010 1.0000
vn 0.0002 0.7062 -0.7080
vn -0.0049 -0.6461 -0.7632
vn -0.0024 -0.2652 -0.9642
vn 0.0329 0.0033 -0.9995
vn -0.0001 0.9706 0.2407
vn -0.8958 0.4445 0.0006
vn 0.8924 -0.4512 0.0004
vn -0.9990 0.0439 -0.0002
vn 0.9993 0.0381 -0.0000
vn 0.9960 -0.0890 -0.0018
vn 0.0005 -1.0000 -0.0009
vn 0.9999 0.0117 -0.0000
vn 0.0165 -0.0036 0.9999
vn -1.0000 -0.0048 0.0010
vn -0.9997 -0.0173 0.0145
vn -0.0000 0.0001 -1.0000
vn -0.0087 -0.0034 -1.0000
vn 0.9999 -0.0166 -0.0010
vn 0.0001 -0.0026 1.0000
vn 0.9997 -0.0173 -0.0145
vt 0.149708 0.890933
vt 0.149708 0.970029
vt 0.142886 0.970031
vt 0.142886 0.890935
vt 0.039054 0.890933
vt 0.039054 0.978035
vt 0.036780 0.978036
vt 0.036780 0.890934
vt 0.618551 0.890933
vt 0.618551 0.930001
vt 0.592727 0.930008
vt 0.592727 0.890940
vt 0.324746 0.890933
vt 0.324746 0.946012
vt 0.318412 0.946014
vt 0.318412 0.890935
vt 0.785451 0.395901
vt 0.785502 0.785502
vt 0.785402 0.785569
vt 0.285795 0.708539
vt 0.283160 0.708459
vt 0.285695 0.708439
vt 0.006379 0.785838
vt 0.004924 0.785902
vt 0.004824 0.785802
vt 0.063274 0.880003
vt 0.063153 0.786766
vt 0.063273 0.786885
vt 0.079826 0.781005
vt 0.079902 0.783433
vt 0.079783 0.783533
vt 0.059032 0.396001
vt 0.057608 0.780274
vt 0.057427 0.396199
vt 0.059032 0.780273
vt 0.030142 0.785802
vt 0.026344 0.785702
vt 0.026344 0.396101
vt 0.074057 0.776820
vt 0.074156 0.396117
vt 0.076980 0.396022
vt 0.166781 0.984171
vt 0.163953 0.987839
vt 0.163927 0.984110
vt 0.030142 0.396001
vt 0.076979 0.776894
vt 0.076979 0.396022
vt 0.078504 0.396121
vt 0.395801 0.785537
vt 0.395801 0.395901
vt 0.006487 0.396202
vt 0.004924 0.396101
vt 0.050503 0.396005
vt 0.048918 0.785382
vt 0.048940 0.396065
vt 0.078504 0.776798
vt 0.050503 0.396005
vt 0.053427 0.396104
vt 0.050541 0.785548
vt 0.053364 0.781659
vt 0.053338 0.785484
vt 0.050529 0.785527
vt 0.053427 0.785380
vt 0.074145 0.776891
vt 0.076895 0.773194
vt 0.076930 0.776876
vt 0.018523 0.785736
vt 0.022344 0.396001
vt 0.022344 0.785863
vt 0.050572 0.781651
vt 0.050503 0.785484
vt 0.014404 0.785771
vt 0.010617 0.396069
vt 0.014374 0.396058
vt 0.166765 0.987842
vt 0.044874 0.396036
vt 0.042095 0.785702
vt 0.042102 0.396069
vt 0.010621 0.785735
vt 0.044879 0.785702
vt 0.074145 0.773191
vt 0.785552 0.002049
vt 0.785601 0.391701
vt 0.781802 0.391776
vt 0.781769 0.002066
vt 0.037969 0.785702
vt 0.034142 0.396001
vt 0.037991 0.396101
vt 0.053327 0.399783
vt 0.050539 0.399791
vt 0.050506 0.396005
vt 0.082563 0.776736
vt 0.085227 0.396003
vt 0.085361 0.776736
vt 0.091476 0.984169
vt 0.088603 0.988118
vt 0.088672 0.984251
vt 0.034142 0.785702
vt 0.082504 0.396001
vt 0.002000 0.396101
vt 0.004924 0.396101
vt 0.002087 0.399915
vt 0.002000 0.785802
vt 0.002000 0.396021
vt 0.004924 0.396101
vt 0.004849 0.399936
vt 0.018506 0.396101
vt 0.004923 0.785902
vt 0.091536 0.987839
vt 0.785501 0.387972
vt 0.395834 0.391692
vt 0.395867 0.387976
vt 0.785701 0.391901
vt 0.065888 0.396074
vt 0.065756 0.780193
vt 0.063032 0.780193
vt 0.063089 0.396071
vt 0.267880 0.708665
vt 0.265085 0.852616
vt 0.265080 0.708664
vt 0.388080 0.542111
vt 0.388069 0.396066
vt 0.391797 0.396066
vt 0.267809 0.852616
vt 0.129787 0.984132
vt 0.127053 0.987952
vt 0.127049 0.984163
vt 0.391794 0.542133
vt 0.391140 0.699444
vt 0.391140 0.845299
vt 0.388354 0.845297
vt 0.388358 0.699442
vt 0.173717 0.984175
vt 0.170938 0.987814
vt 0.170917 0.984165
vt 0.129792 0.987921
vt 0.382464 0.396066
vt 0.382474 0.542111
vt 0.378720 0.542111
vt 0.378709 0.396066
vt 0.173693 0.987814
vt 0.658720 0.880388
vt 0.658697 0.789602
vt 0.664741 0.789602
vt 0.664741 0.880406
vt 0.872731 0.300469
vt 0.872717 0.391307
vt 0.866661 0.391289
vt 0.866675 0.300451
vt 0.668792 0.880388
vt 0.674813 0.789602
vt 0.674813 0.880406
vt 0.654617 0.789669
vt 0.654604 0.880506
vt 0.648548 0.880489
vt 0.648562 0.789651
vt 0.668769 0.789602
vt 0.638590 0.882097
vt 0.637464 0.882143
vt 0.637494 0.789702
vt 0.638662 0.789702
vt 0.200334 0.984180
vt 0.201463 0.984406
vt 0.201497 0.985842
vt 0.200292 0.986107
vt 0.199776 0.985180
vt 0.616744 0.882080
vt 0.616046 0.789702
vt 0.616744 0.789702
vt 0.615613 0.882137
vt 0.605278 0.882145
vt 0.604132 0.882080
vt 0.604575 0.789645
vt 0.627179 0.882079
vt 0.626408 0.789668
vt 0.627537 0.789632
vt 0.213097 0.986139
vt 0.212044 0.985880
vt 0.211987 0.984455
vt 0.627851 0.882080
vt 0.626361 0.882080
vt 0.213094 0.984129
vt 0.213737 0.985133
vt 0.615256 0.789654
vt 0.605624 0.789673
vt 0.972090 0.661247
vt 0.979130 0.663139
vt 0.972064 0.663152
vt 0.988187 0.111574
vt 0.988209 0.118783
vt 0.972100 0.118807
vt 0.979130 0.661256
vt 0.972099 0.156777
vt 0.988154 0.158690
vt 0.972078 0.158682
vt 0.988186 0.134191
vt 0.988209 0.141400
vt 0.972100 0.141424
vt 0.972084 0.649408
vt 0.979212 0.649416
vt 0.979212 0.651299
vt 0.988154 0.156771
vt 0.972060 0.651314
vt 0.987717 0.170522
vt 0.972022 0.170528
vt 0.972024 0.168609
vt 0.972077 0.134215
vt 0.972077 0.111598
vt 0.987745 0.168617
vt 0.610836 0.882145
vt 0.609690 0.882080
vt 0.610132 0.789645
vt 0.206327 0.984180
vt 0.207456 0.984406
vt 0.207489 0.985842
vt 0.644136 0.882097
vt 0.643010 0.882143
vt 0.643040 0.789702
vt 0.611182 0.789673
vt 0.206406 0.986158
vt 0.205768 0.985180
vt 0.622298 0.882080
vt 0.621601 0.789702
vt 0.622298 0.789702
vt 0.621167 0.882137
vt 0.633405 0.882080
vt 0.632733 0.882079
vt 0.633091 0.789632
vt 0.631962 0.789669
vt 0.219090 0.986139
vt 0.218037 0.985880
vt 0.217979 0.984455
vt 0.631915 0.882080
vt 0.644208 0.789702
vt 0.219086 0.984129
vt 0.219730 0.985133
vt 0.620810 0.789654
vt 0.972090 0.655327
vt 0.979129 0.657222
vt 0.972063 0.657233
vt 0.979130 0.655339
vt 0.987717 0.176442
vt 0.972022 0.176448
vt 0.972024 0.174528
vt 0.988186 0.122883
vt 0.972100 0.130115
vt 0.972077 0.122907
vt 0.988209 0.130091
vt 0.972084 0.643489
vt 0.979212 0.643499
vt 0.979211 0.645383
vt 0.972099 0.162696
vt 0.988154 0.162690
vt 0.988154 0.164609
vt 0.972059 0.645395
vt 0.987745 0.174536
vt 0.988187 0.145500
vt 0.972100 0.152733
vt 0.972077 0.145524
vt 0.988209 0.152709
vt 0.972078 0.164602
vt 0.887084 0.002066
vt 0.789769 0.148109
vt 0.789747 0.002088
vt 0.246005 0.708696
vt 0.246011 0.852598
vt 0.194126 0.852612
vt 0.447678 0.789654
vt 0.395823 0.886933
vt 0.395807 0.789634
vt 0.887106 0.148087
vt 0.447668 0.886933
vt 0.391134 0.549490
vt 0.391140 0.695337
vt 0.339254 0.695340
vt 0.339262 0.549470
vt 0.451695 0.884667
vt 0.503531 0.789648
vt 0.503566 0.884738
vt 0.451686 0.789602
vt 0.789569 0.854603
vt 0.789547 0.708582
vt 0.886885 0.708560
vt 0.886906 0.854581
vt 0.194134 0.708686
vt 0.251797 0.708681
vt 0.250011 0.850690
vt 0.250011 0.708611
vt 0.251769 0.850760
vt 0.048879 0.882781
vt 0.048979 0.789662
vt 0.050728 0.789568
vt 0.885035 0.152224
vt 0.789721 0.296385
vt 0.789707 0.152263
vt 0.092058 0.711192
vt 0.092046 0.708694
vt 0.187524 0.708714
vt 0.517419 0.882833
vt 0.517419 0.789714
vt 0.523158 0.789713
vt 0.092026 0.855429
vt 0.092124 0.711195
vt 0.187427 0.711193
vt 0.523108 0.882891
vt 0.187465 0.711173
vt 0.972181 0.836748
vt 0.977869 0.834227
vt 0.977811 0.836692
vt 0.885043 0.296315
vt 0.050728 0.882785
vt 0.273834 0.708725
vt 0.273937 0.852646
vt 0.271948 0.852855
vt 0.092126 0.857918
vt 0.092026 0.855428
vt 0.187430 0.855420
vt 0.972129 0.830205
vt 0.977869 0.827730
vt 0.977871 0.830226
vt 0.187507 0.857918
vt 0.513419 0.789653
vt 0.513419 0.885003
vt 0.507666 0.885083
vt 0.272048 0.708647
vt 0.070055 0.784379
vt 0.070055 0.879680
vt 0.068296 0.879765
vt 0.972116 0.843343
vt 0.972122 0.840808
vt 0.977749 0.840806
vt 0.977757 0.843341
vt 0.972022 0.869124
vt 0.972023 0.866617
vt 0.977649 0.866615
vt 0.187548 0.857966
vt 0.190026 0.708694
vt 0.190075 0.857974
vt 0.364682 0.396007
vt 0.359062 0.543300
vt 0.358949 0.396101
vt 0.187527 0.708714
vt 0.057504 0.882551
vt 0.063272 0.880101
vt 0.063174 0.882564
vt 0.381194 0.708558
vt 0.285794 0.710967
vt 0.285595 0.708339
vt 0.381135 0.710983
vt 0.057525 0.786758
vt 0.057547 0.880073
vt 0.383731 0.708489
vt 0.383749 0.857762
vt 0.381196 0.708558
vt 0.381111 0.855292
vt 0.285695 0.857742
vt 0.285743 0.855329
vt 0.381196 0.857762
vt 0.079803 0.879035
vt 0.074132 0.881563
vt 0.074175 0.879035
vt 0.079853 0.783592
vt 0.079880 0.878958
vt 0.057526 0.786759
vt 0.057526 0.784274
vt 0.063196 0.784303
vt 0.283159 0.857811
vt 0.368896 0.543273
vt 0.368960 0.396021
vt 0.374591 0.396029
vt 0.374527 0.543282
vt 0.089463 0.857918
vt 0.092026 0.708694
vt 0.092026 0.857898
vt 0.063251 0.786703
vt 0.089477 0.708638
vt 0.285695 0.857742
vt 0.344988 0.396007
vt 0.339365 0.545292
vt 0.339255 0.396101
vt 0.074056 0.783533
vt 0.074136 0.780999
vt 0.079803 0.881578
vt 0.354849 0.396032
vt 0.354833 0.545280
vt 0.349182 0.545257
vt 0.349176 0.396051
vt 0.675371 0.890970
vt 0.677545 0.891048
vt 0.677536 0.927361
vt 0.646009 0.890961
vt 0.665027 0.927454
vt 0.646015 0.927464
vt 0.972101 0.090195
vt 0.991433 0.092392
vt 0.972113 0.092401
vt 0.665021 0.890952
vt 0.991434 0.098637
vt 0.972113 0.098646
vt 0.972101 0.096440
vt 0.669100 0.890970
vt 0.671302 0.927440
vt 0.669092 0.927436
vt 0.991422 0.096431
vt 0.675363 0.927436
vt 0.622585 0.890961
vt 0.641861 0.927451
vt 0.622591 0.927464
vt 0.641856 0.890948
vt 0.671310 0.890974
vt 0.991422 0.090186
vt 0.702484 0.891021
vt 0.719152 0.891018
vt 0.719156 0.924958
vt 0.681570 0.891021
vt 0.698464 0.891014
vt 0.698466 0.924955
vt 0.681572 0.924962
vt 0.702485 0.924962
vt 0.727961 0.891000
vt 0.728598 0.924974
vt 0.727956 0.924975
vt 0.723250 0.891001
vt 0.723875 0.890983
vt 0.723880 0.924974
vt 0.728598 0.890982
vt 0.723244 0.924975
vt 0.972100 0.773366
vt 0.972110 0.772325
vt 0.978441 0.772334
vt 0.978431 0.773375
vt 0.972101 0.788602
vt 0.978441 0.787595
vt 0.978432 0.788611
vt 0.972110 0.787584
vt 0.972101 0.783533
vt 0.972110 0.782515
vt 0.978441 0.782526
vt 0.972100 0.778460
vt 0.978441 0.777428
vt 0.978431 0.778469
vt 0.978432 0.783542
vt 0.972110 0.777419
vt 0.415372 0.891028
vt 0.387229 0.941131
vt 0.387230 0.891009
vt 0.415337 0.941145
vt 0.750909 0.890995
vt 0.753145 0.891031
vt 0.753145 0.919092
vt 0.421802 0.891003
vt 0.419492 0.941862
vt 0.419477 0.891020
vt 0.425928 0.941762
vt 0.428260 0.890944
vt 0.428254 0.941745
vt 0.425899 0.890946
vt 0.750890 0.919137
vt 0.757245 0.890933
vt 0.759518 0.919033
vt 0.757193 0.919037
vt 0.421817 0.941845
vt 0.759481 0.890933
vt 0.377861 0.891028
vt 0.349742 0.941778
vt 0.349754 0.891014
vt 0.377869 0.941776
vt 0.488010 0.891038
vt 0.488005 0.938904
vt 0.462168 0.938897
vt 0.462173 0.891026
vt 0.458152 0.891029
vt 0.432302 0.939505
vt 0.432315 0.891013
vt 0.458160 0.939504
vt 0.898244 0.891001
vt 0.898945 0.890982
vt 0.898950 0.917991
vt 0.912627 0.890999
vt 0.913342 0.917991
vt 0.912621 0.917991
vt 0.913341 0.890981
vt 0.898237 0.917992
vt 0.903041 0.891001
vt 0.903741 0.890982
vt 0.903746 0.917991
vt 0.917420 0.890999
vt 0.918136 0.917991
vt 0.917414 0.917991
vt 0.918134 0.890981
vt 0.903034 0.917992
vt 0.907837 0.891001
vt 0.908538 0.890982
vt 0.908543 0.917991
vt 0.907830 0.917992
vt 0.922214 0.890999
vt 0.922929 0.917991
vt 0.922207 0.917991
vt 0.922927 0.890981
vt 0.340450 0.890971
vt 0.336736 0.943356
vt 0.336715 0.890985
vt 0.383110 0.890993
vt 0.383055 0.942572
vt 0.381955 0.942572
vt 0.177786 0.987697
vt 0.177774 0.984093
vt 0.178991 0.984094
vt 0.381915 0.890975
vt 0.328838 0.943356
vt 0.332528 0.890955
vt 0.332529 0.943372
vt 0.178969 0.987722
vt 0.328817 0.890985
vt 0.345742 0.891038
vt 0.345742 0.943256
vt 0.344581 0.943254
vt 0.344588 0.890972
vt 0.135002 0.984188
vt 0.133810 0.987897
vt 0.133820 0.984167
vt 0.340471 0.943342
vt 0.134993 0.987918
vt 0.075305 0.890962
vt 0.067719 0.970966
vt 0.067739 0.890949
vt 0.075284 0.970978
vt 0.972102 0.604446
vt 0.972114 0.602173
vt 0.979741 0.602184
vt 0.057230 0.890977
vt 0.054906 0.972098
vt 0.054873 0.891033
vt 0.057263 0.972042
vt 0.050736 0.890961
vt 0.050733 0.972061
vt 0.043142 0.972031
vt 0.972100 0.598133
vt 0.972115 0.595810
vt 0.979741 0.595818
vt 0.043130 0.890977
vt 0.979729 0.604451
vt 0.979726 0.598141
vt 0.061321 0.972042
vt 0.063622 0.891033
vt 0.063622 0.972042
vt 0.061331 0.890977
vt 0.972106 0.241294
vt 0.985736 0.251729
vt 0.972099 0.251729
vt 0.985743 0.241294
vt 0.972022 0.369540
vt 0.972022 0.362390
vt 0.982351 0.362390
vt 0.972099 0.255796
vt 0.985743 0.255794
vt 0.985752 0.262965
vt 0.972030 0.380525
vt 0.982351 0.373540
vt 0.982359 0.380525
vt 0.985752 0.274146
vt 0.972099 0.266977
vt 0.985743 0.266976
vt 0.972109 0.278213
vt 0.985559 0.288648
vt 0.972103 0.288648
vt 0.985563 0.278213
vt 0.972022 0.373540
vt 0.972108 0.262967
vt 0.972108 0.274148
vt 0.982351 0.369540
vt 0.979172 0.624019
vt 0.978230 0.625729
vt 0.976650 0.626621
vt 0.974745 0.619548
vt 0.976646 0.619551
vt 0.973023 0.620455
vt 0.974716 0.626647
vt 0.973040 0.625699
vt 0.978290 0.620504
vt 0.979195 0.622051
vt 0.972046 0.623078
vt 0.979173 0.611030
vt 0.979202 0.612962
vt 0.978273 0.614497
vt 0.976607 0.615482
vt 0.974683 0.615503
vt 0.972070 0.611034
vt 0.973045 0.609389
vt 0.972522 0.613759
vt 0.974767 0.608460
vt 0.976666 0.608460
vt 0.978130 0.609298
vt 0.972089 0.698069
vt 0.978741 0.698235
vt 0.972083 0.698341
vt 0.972080 0.763679
vt 0.978665 0.763593
vt 0.978665 0.763799
vt 0.972093 0.754748
vt 0.978665 0.754884
vt 0.972067 0.754985
vt 0.972086 0.702612
vt 0.978742 0.702506
vt 0.978739 0.702778
vt 0.972089 0.706882
vt 0.978741 0.707048
vt 0.972083 0.707153
vt 0.972080 0.768085
vt 0.978665 0.767999
vt 0.978665 0.768205
vt 0.972093 0.750342
vt 0.978665 0.750478
vt 0.972067 0.750579
vt 0.972086 0.711424
vt 0.978742 0.711318
vt 0.978739 0.711590
vt 0.972086 0.693799
vt 0.978742 0.693694
vt 0.978739 0.693965
vt 0.972093 0.745936
vt 0.978665 0.746072
vt 0.972067 0.746173
vt 0.972093 0.759154
vt 0.978665 0.759290
vt 0.972067 0.759391
vt 0.972086 0.715830
vt 0.978742 0.715724
vt 0.978739 0.715996
vt 0.972108 0.857211
vt 0.977784 0.855861
vt 0.977791 0.857206
vt 0.972101 0.855866
vt 0.972108 0.862593
vt 0.972101 0.861266
vt 0.977785 0.861261
vt 0.977791 0.862588
vt 0.981350 0.466190
vt 0.972115 0.467443
vt 0.972101 0.466203
vt 0.298526 0.984134
vt 0.298466 0.985288
vt 0.297516 0.985288
vt 0.981033 0.498479
vt 0.972022 0.498493
vt 0.972023 0.497386
vt 0.297445 0.984119
vt 0.972114 0.487186
vt 0.981332 0.488279
vt 0.972101 0.488257
vt 0.981332 0.487172
vt 0.981363 0.467430
vt 0.981350 0.460890
vt 0.972115 0.462144
vt 0.972101 0.460904
vt 0.981050 0.497408
vt 0.981363 0.462131
vt 0.288252 0.984130
vt 0.287242 0.985290
vt 0.287171 0.984117
vt 0.288193 0.985290
vt 0.293389 0.984134
vt 0.292379 0.985288
vt 0.292308 0.984119
vt 0.293330 0.985288
vt 0.981033 0.493372
vt 0.972022 0.493386
vt 0.972023 0.492279
vt 0.981350 0.471490
vt 0.972115 0.472743
vt 0.972101 0.471502
vt 0.972114 0.482078
vt 0.981332 0.483172
vt 0.972101 0.483150
vt 0.981350 0.476789
vt 0.981363 0.478029
vt 0.972115 0.478042
vt 0.283115 0.984130
vt 0.282105 0.985290
vt 0.282034 0.984117
vt 0.283056 0.985290
vt 0.981332 0.482065
vt 0.981363 0.472730
vt 0.981049 0.492301
vt 0.972101 0.476802
vt 0.329464 0.570424
vt 0.329408 0.396001
vt 0.335055 0.396004
vt 0.315503 0.396089
vt 0.309758 0.700120
vt 0.309770 0.396082
vt 0.267937 0.396080
vt 0.089438 0.704515
vt 0.089435 0.396089
vt 0.315527 0.700115
vt 0.789512 0.704415
vt 0.968012 0.395980
vt 0.968014 0.704406
vt 0.335196 0.570436
vt 0.789510 0.395989
vt 0.297270 0.396084
vt 0.291525 0.704232
vt 0.291537 0.396077
vt 0.267940 0.704505
vt 0.325352 0.396064
vt 0.325308 0.574560
vt 0.319661 0.574560
vt 0.297294 0.704229
vt 0.319619 0.396055
vt 0.305601 0.396036
vt 0.301385 0.700187
vt 0.301445 0.396020
vt 0.305541 0.700201
vt 0.025259 0.984172
vt 0.026728 0.984186
vt 0.026718 0.988401
vt 0.273512 0.396048
vt 0.272007 0.704546
vt 0.271971 0.396101
vt 0.287368 0.396034
vt 0.283183 0.704291
vt 0.283171 0.396048
vt 0.287365 0.704322
vt 0.019735 0.984170
vt 0.021236 0.984186
vt 0.021228 0.988401
vt 0.273549 0.704493
vt 0.025254 0.988387
vt 0.277608 0.704493
vt 0.279096 0.396101
vt 0.279096 0.704493
vt 0.277619 0.396049
vt 0.019727 0.988385
vt 0.183069 0.984163
vt 0.185292 0.984147
vt 0.185297 0.987271
vt 0.009319 0.978924
vt 0.012416 0.890964
vt 0.012389 0.978956
vt 0.022307 0.789886
vt 0.019979 0.879056
vt 0.019972 0.789886
vt 0.009383 0.890963
vt 0.189317 0.984163
vt 0.191572 0.987272
vt 0.189319 0.987287
vt 0.004249 0.879132
vt 0.004271 0.789972
vt 0.006548 0.790003
vt 0.183055 0.987273
vt 0.022280 0.879016
vt 0.005178 0.891003
vt 0.005149 0.980093
vt 0.002036 0.980090
vt 0.191570 0.984147
vt 0.002068 0.890994
vt 0.006548 0.879132
vt 0.757244 0.878852
vt 0.733809 0.789682
vt 0.757236 0.789669
vt 0.733817 0.878865
vt 0.972092 0.076338
vt 0.995147 0.076345
vt 0.995147 0.079237
vt 0.044866 0.789781
vt 0.044866 0.878916
vt 0.041966 0.878915
vt 0.041968 0.789767
vt 0.784730 0.878852
vt 0.761294 0.789682
vt 0.784722 0.789669
vt 0.972072 0.062588
vt 0.995447 0.062539
vt 0.995447 0.065432
vt 0.972059 0.065375
vt 0.016510 0.978053
vt 0.019409 0.890958
vt 0.019407 0.978071
vt 0.972079 0.079235
vt 0.016510 0.890955
vt 0.761302 0.878865
vt 0.095412 0.891002
vt 0.099262 0.970743
vt 0.095386 0.970743
vt 0.076442 0.984127
vt 0.072556 0.988093
vt 0.072547 0.984159
vt 0.099262 0.891034
vt 0.111255 0.891034
vt 0.115074 0.891030
vt 0.115074 0.970738
vt 0.127026 0.890933
vt 0.130926 0.970677
vt 0.127030 0.970674
vt 0.107357 0.984127
vt 0.107392 0.988053
vt 0.103496 0.988053
vt 0.079485 0.891002
vt 0.083377 0.970808
vt 0.079479 0.970777
vt 0.103496 0.984140
vt 0.130926 0.890933
vt 0.111253 0.970773
vt 0.076477 0.988087
vt 0.083380 0.891033
vt 0.800718 0.891021
vt 0.815028 0.917648
vt 0.800721 0.917654
vt 0.815023 0.891015
vt 0.837542 0.891023
vt 0.848545 0.891023
vt 0.848540 0.917654
vt 0.972022 0.226037
vt 0.986419 0.237233
vt 0.972022 0.237233
vt 0.986419 0.191644
vt 0.972022 0.191644
vt 0.972022 0.180448
vt 0.882909 0.891011
vt 0.894150 0.917655
vt 0.882906 0.917643
vt 0.986419 0.180448
vt 0.782175 0.891021
vt 0.796648 0.891010
vt 0.796653 0.917645
vt 0.782178 0.917655
vt 0.837533 0.917655
vt 0.986419 0.226037
vt 0.894153 0.891023
vt 0.972098 0.331572
vt 0.982819 0.331599
vt 0.982819 0.340355
vt 0.972095 0.340379
vt 0.972094 0.292773
vt 0.982953 0.301554
vt 0.972092 0.301580
vt 0.982953 0.292798
vt 0.972079 0.385112
vt 0.972073 0.384610
vt 0.982404 0.384867
vt 0.972074 0.413094
vt 0.972123 0.412573
vt 0.982380 0.412874
vt 0.972129 0.427089
vt 0.981886 0.426684
vt 0.981817 0.427371
vt 0.972122 0.446600
vt 0.981729 0.446327
vt 0.981741 0.447028
vt 0.972076 0.587052
vt 0.972122 0.586534
vt 0.980575 0.586833
vt 0.972081 0.549270
vt 0.980534 0.548903
vt 0.980532 0.549567
vt 0.972081 0.530015
vt 0.980532 0.529657
vt 0.980533 0.530358
vt 0.972077 0.563743
vt 0.972122 0.563218
vt 0.980578 0.563498
vt 0.154893 0.987882
vt 0.154211 0.987782
vt 0.154440 0.984093
vt 0.976684 0.926446
vt 0.976704 0.926981
vt 0.972099 0.926717
vt 0.154916 0.984257
vt 0.417634 0.984344
vt 0.418265 0.984470
vt 0.417785 0.984905
vt 0.153957 0.984261
vt 0.369975 0.984727
vt 0.369265 0.984405
vt 0.369803 0.984154
vt 0.369449 0.984985
vt 0.980015 0.979470
vt 0.983682 0.979052
vt 0.983507 0.979519
vt 0.976654 0.931029
vt 0.976638 0.931571
vt 0.972095 0.931280
vt 0.983693 0.979984
vt 0.224879 0.985812
vt 0.223735 0.984093
vt 0.224879 0.984093
vt 0.062069 0.984184
vt 0.063251 0.984167
vt 0.063259 0.988388
vt 0.972096 0.969075
vt 0.976333 0.967239
vt 0.976316 0.969093
vt 0.223735 0.985812
vt 0.972114 0.967221
vt 0.030754 0.984184
vt 0.031960 0.988388
vt 0.030758 0.988405
vt 0.031954 0.984167
vt 0.972098 0.974982
vt 0.972114 0.973169
vt 0.976333 0.973189
vt 0.062071 0.988405
vt 0.976318 0.974999
vt 0.245458 0.985812
vt 0.244313 0.984093
vt 0.245458 0.984093
vt 0.244313 0.985812
vt 0.972067 0.456381
vt 0.981730 0.456013
vt 0.981709 0.456744
vt 0.972077 0.394444
vt 0.972073 0.393946
vt 0.982403 0.394208
vt 0.972110 0.431898
vt 0.981702 0.431643
vt 0.981769 0.432306
vt 0.972079 0.403779
vt 0.972121 0.403253
vt 0.982389 0.403549
vt 0.972078 0.573075
vt 0.972122 0.572553
vt 0.980578 0.572839
vt 0.972080 0.539638
vt 0.980533 0.539280
vt 0.980532 0.539981
vt 0.972076 0.577741
vt 0.972122 0.577216
vt 0.980579 0.577511
vt 0.972085 0.520438
vt 0.980531 0.520071
vt 0.980535 0.520736
vt 0.976682 0.912696
vt 0.976702 0.913231
vt 0.972097 0.912967
vt 0.139979 0.987797
vt 0.139250 0.987878
vt 0.139497 0.984330
vt 0.139966 0.984186
vt 0.379526 0.984976
vt 0.378922 0.984781
vt 0.379387 0.984297
vt 0.976622 0.940188
vt 0.976629 0.940747
vt 0.972104 0.940441
vt 0.139029 0.984195
vt 0.365265 0.984371
vt 0.364948 0.984926
vt 0.364741 0.984181
vt 0.144532 0.984240
vt 0.144972 0.987784
vt 0.144150 0.987835
vt 0.250603 0.985812
vt 0.249458 0.984093
vt 0.250603 0.984093
vt 0.067278 0.984184
vt 0.068460 0.984167
vt 0.068468 0.988388
vt 0.002054 0.984169
vt 0.003867 0.984185
vt 0.003847 0.988404
vt 0.067280 0.988405
vt 0.255747 0.985812
vt 0.254603 0.985812
vt 0.254603 0.984093
vt 0.255747 0.984093
vt 0.002037 0.988388
vt 0.035980 0.984184
vt 0.037185 0.988388
vt 0.035984 0.988405
vt 0.037179 0.984167
vt 0.249458 0.985812
vt 0.972096 0.951228
vt 0.976334 0.949392
vt 0.976316 0.951246
vt 0.972114 0.949374
vt 0.996294 0.006422
vt 0.972113 0.012017
vt 0.972098 0.006431
vt 0.996295 0.016049
vt 0.972113 0.021645
vt 0.972098 0.016058
vt 0.996310 0.021636
vt 0.996309 0.012009
vt 0.030129 0.789881
vt 0.027230 0.879015
vt 0.027232 0.789867
vt 0.702273 0.878852
vt 0.678846 0.878865
vt 0.678838 0.789682
vt 0.030129 0.879015
vt 0.972092 0.083262
vt 0.995147 0.083268
vt 0.995147 0.086161
vt 0.702265 0.789669
vt 0.972079 0.086159
vt 0.729759 0.878852
vt 0.706331 0.878865
vt 0.706323 0.789683
vt 0.729751 0.789669
vt 0.972072 0.069481
vt 0.995447 0.072325
vt 0.972059 0.072268
vt 0.995447 0.069432
vt 0.023433 0.978053
vt 0.026333 0.890958
vt 0.026330 0.978071
vt 0.023433 0.890955
vt 0.103333 0.891002
vt 0.107183 0.970743
vt 0.103307 0.970743
vt 0.107183 0.891034
vt 0.119146 0.891034
vt 0.122965 0.891030
vt 0.122965 0.970738
vt 0.084569 0.984193
vt 0.080616 0.988093
vt 0.080607 0.984159
vt 0.099462 0.987953
vt 0.095536 0.984093
vt 0.099449 0.984093
vt 0.087447 0.891002
vt 0.091341 0.891033
vt 0.091338 0.970808
vt 0.087441 0.970777
vt 0.119144 0.970773
vt 0.084538 0.988087
vt 0.095536 0.987988
vt 0.134987 0.890933
vt 0.138886 0.890933
vt 0.138886 0.970677
vt 0.134991 0.970674
vt 0.986419 0.206840
vt 0.972022 0.206840
vt 0.972022 0.195644
vt 0.819129 0.891021
vt 0.833433 0.891015
vt 0.833438 0.917647
vt 0.819131 0.917654
vt 0.867645 0.891011
vt 0.878886 0.917655
vt 0.867642 0.917643
vt 0.852615 0.891023
vt 0.863613 0.917654
vt 0.852605 0.917655
vt 0.863618 0.891023
vt 0.972022 0.210840
vt 0.986419 0.210840
vt 0.986419 0.222037
vt 0.763632 0.891021
vt 0.778105 0.891010
vt 0.778111 0.917645
vt 0.972022 0.222037
vt 0.878889 0.891023
vt 0.763635 0.917655
vt 0.986419 0.195644
vt 0.972094 0.305706
vt 0.982953 0.305731
vt 0.982953 0.314487
vt 0.972092 0.314513
vt 0.972098 0.318639
vt 0.982819 0.327422
vt 0.972095 0.327446
vt 0.982819 0.318666
vt 0.972129 0.422246
vt 0.981886 0.421840
vt 0.981817 0.422528
vt 0.972122 0.441703
vt 0.981730 0.441429
vt 0.981741 0.442131
vt 0.972074 0.417754
vt 0.972123 0.417234
vt 0.982380 0.417534
vt 0.972079 0.389780
vt 0.972073 0.389278
vt 0.982405 0.389535
vt 0.972081 0.534827
vt 0.980532 0.534468
vt 0.980533 0.535170
vt 0.972077 0.591711
vt 0.972123 0.591193
vt 0.980575 0.591492
vt 0.972081 0.554063
vt 0.980534 0.553695
vt 0.980532 0.554360
vt 0.972077 0.559075
vt 0.972122 0.558550
vt 0.980578 0.558830
vt 0.422464 0.984344
vt 0.423095 0.984470
vt 0.422614 0.984905
vt 0.159877 0.987882
vt 0.159424 0.984093
vt 0.159900 0.984257
vt 0.159196 0.987782
vt 0.976684 0.921863
vt 0.976704 0.922397
vt 0.972099 0.922134
vt 0.976654 0.935609
vt 0.976638 0.936151
vt 0.972095 0.935861
vt 0.374752 0.984727
vt 0.374226 0.984985
vt 0.374043 0.984405
vt 0.374581 0.984154
vt 0.158942 0.984261
vt 0.972133 0.979470
vt 0.975625 0.979519
vt 0.975811 0.979984
vt 0.975800 0.979052
vt 0.051651 0.984184
vt 0.052841 0.988388
vt 0.051653 0.988405
vt 0.052833 0.984167
vt 0.007959 0.984169
vt 0.009772 0.984185
vt 0.009752 0.988404
vt 0.230024 0.985812
vt 0.228879 0.984093
vt 0.230024 0.984093
vt 0.007942 0.988388
vt 0.046430 0.984184
vt 0.047630 0.984167
vt 0.047635 0.988388
vt 0.228879 0.985812
vt 0.235169 0.985812
vt 0.234024 0.984093
vt 0.235169 0.984093
vt 0.046434 0.988405
vt 0.972096 0.957177
vt 0.972114 0.955323
vt 0.976334 0.955341
vt 0.976316 0.957195
vt 0.234024 0.985812
vt 0.972111 0.436807
vt 0.981702 0.436552
vt 0.981769 0.437215
vt 0.972066 0.451517
vt 0.981730 0.451149
vt 0.981709 0.451879
vt 0.972077 0.399112
vt 0.972073 0.398614
vt 0.982403 0.398876
vt 0.972079 0.408439
vt 0.972121 0.407913
vt 0.982390 0.408209
vt 0.972085 0.525231
vt 0.980531 0.524864
vt 0.980535 0.525529
vt 0.972076 0.582399
vt 0.972122 0.581875
vt 0.980579 0.582170
vt 0.972080 0.544450
vt 0.980533 0.544091
vt 0.980532 0.544793
vt 0.972078 0.568407
vt 0.972122 0.567886
vt 0.980578 0.568171
vt 0.976682 0.917279
vt 0.976702 0.917814
vt 0.972097 0.917550
vt 0.384321 0.984976
vt 0.383717 0.984781
vt 0.384182 0.984297
vt 0.991490 0.979045
vt 0.988023 0.979527
vt 0.987879 0.979058
vt 0.991571 0.979773
vt 0.976622 0.944769
vt 0.976629 0.945327
vt 0.972104 0.945021
vt 0.149517 0.984240
vt 0.149957 0.987784
vt 0.149134 0.987835
vt 0.360508 0.984371
vt 0.360191 0.984926
vt 0.359984 0.984181
vt 0.987888 0.979995
vt 0.056860 0.984184
vt 0.058050 0.988388
vt 0.056862 0.988405
vt 0.260892 0.985812
vt 0.259747 0.985812
vt 0.259747 0.984093
vt 0.058042 0.984167
vt 0.972096 0.963126
vt 0.976334 0.961290
vt 0.976316 0.963144
vt 0.013864 0.984169
vt 0.015677 0.984185
vt 0.015657 0.988404
vt 0.240313 0.985812
vt 0.239169 0.984093
vt 0.240313 0.984093
vt 0.013847 0.988388
vt 0.041205 0.984184
vt 0.042404 0.984167
vt 0.042410 0.988388
vt 0.239169 0.985812
vt 0.260892 0.984093
vt 0.041209 0.988405
vt 0.972114 0.961272
vt 0.996294 0.035304
vt 0.972113 0.040899
vt 0.972098 0.035313
vt 0.996309 0.040890
vt 0.996295 0.025677
vt 0.996310 0.031264
vt 0.972113 0.031272
vt 0.972098 0.025685
vt 0.112629 0.984148
vt 0.114676 0.984655
vt 0.114754 0.987350
vt 0.891239 0.264160
vt 0.889109 0.264207
vt 0.889138 0.152276
vt 0.891380 0.152275
vt 0.258772 0.820563
vt 0.257469 0.820561
vt 0.258161 0.708624
vt 0.112633 0.987958
vt 0.111467 0.986114
vt 0.334542 0.686527
vt 0.332377 0.686462
vt 0.333201 0.574536
vt 0.325407 0.690528
vt 0.324021 0.578659
vt 0.325407 0.578660
vt 0.323212 0.690585
vt 0.255971 0.708660
vt 0.121870 0.987939
vt 0.119823 0.987432
vt 0.119778 0.984724
vt 0.255924 0.820562
vt 0.121867 0.984129
vt 0.123038 0.986000
vt 0.322541 0.578613
vt 0.335246 0.574565
vt 0.586357 0.931369
vt 0.586328 0.890943
vt 0.588679 0.890941
vt 0.954827 0.890995
vt 0.957059 0.891032
vt 0.957059 0.917630
vt 0.575794 0.891025
vt 0.549122 0.930865
vt 0.549118 0.891008
vt 0.588676 0.931353
vt 0.954808 0.917673
vt 0.961095 0.890941
vt 0.963395 0.890956
vt 0.963428 0.917593
vt 0.545051 0.891026
vt 0.518410 0.931395
vt 0.518418 0.891011
vt 0.545056 0.931393
vt 0.582224 0.891002
vt 0.582240 0.931453
vt 0.579921 0.931469
vt 0.961110 0.917595
vt 0.579905 0.891018
vt 0.575767 0.930865
vt 0.278920 0.891002
vt 0.276630 0.962903
vt 0.276649 0.890982
vt 0.030410 0.978058
vt 0.030392 0.890947
vt 0.032714 0.890945
vt 0.600068 0.878894
vt 0.527173 0.789639
vt 0.600071 0.789674
vt 0.278866 0.962903
vt 0.014380 0.789976
vt 0.012076 0.879128
vt 0.012076 0.789970
vt 0.862603 0.389695
vt 0.789705 0.389660
vt 0.789708 0.300439
vt 0.527169 0.878859
vt 0.014398 0.879126
vt 0.272483 0.890999
vt 0.270209 0.963865
vt 0.270213 0.890977
vt 0.272446 0.963865
vt 0.862607 0.300474
vt 0.032714 0.978068
vt 0.248338 0.890954
vt 0.203068 0.962978
vt 0.203070 0.890956
vt 0.248335 0.962976
vt 0.509694 0.891017
vt 0.514391 0.891022
vt 0.514380 0.936332
vt 0.257204 0.890968
vt 0.252404 0.963986
vt 0.252397 0.890969
vt 0.257211 0.963985
vt 0.199008 0.890954
vt 0.199005 0.963952
vt 0.153738 0.963943
vt 0.509687 0.936326
vt 0.261276 0.963986
vt 0.261270 0.890969
vt 0.266077 0.890968
vt 0.153740 0.890945
vt 0.266084 0.963985
vt 0.500855 0.891012
vt 0.505660 0.891023
vt 0.505651 0.936332
vt 0.500846 0.936321
vt 0.294269 0.947570
vt 0.294266 0.890944
vt 0.296693 0.890943
vt 0.314388 0.891023
vt 0.307159 0.946897
vt 0.307167 0.891016
vt 0.314380 0.946903
vt 0.972071 0.633100
vt 0.979282 0.630697
vt 0.979293 0.633105
vt 0.972073 0.639455
vt 0.972050 0.637176
vt 0.979293 0.637171
vt 0.296696 0.947568
vt 0.979294 0.639465
vt 0.303129 0.891043
vt 0.303132 0.947668
vt 0.300705 0.947670
vt 0.972060 0.630692
vt 0.290238 0.891020
vt 0.283010 0.947649
vt 0.283018 0.891011
vt 0.290231 0.947658
vt 0.300702 0.891044
vt 0.070055 0.780279
vt 0.069955 0.780273
vt 0.069975 0.396097
vt 0.092026 0.857982
vt 0.092026 0.855472
vt 0.381196 0.857828
vt 0.195673 0.984093
vt 0.195766 0.987038
vt 0.195578 0.986930
vt 0.785501 0.002100
vt 0.785701 0.002000
vt 0.057427 0.880192
vt 0.074055 0.879035
vt 0.391801 0.002100
vt 0.002099 0.391899
vt 0.002000 0.002086
vt 0.076941 0.776880
vt 0.391801 0.391901
vt 0.068297 0.784288
vt 0.187438 0.855430
vt 0.507773 0.789602
vt 0.977651 0.869122
vt 0.972046 0.827722
vt 0.063274 0.880101
vt 0.364700 0.543301
vt 0.972129 0.834239
vt 0.074055 0.783533
vt 0.345013 0.545290
s 1
usemtl fuel_urban_001_baked
f 2/1/1 1/2/1 3/3/1
f 2/1/1 3/3/1 4/4/1
f 5/5/1 6/6/1 7/7/1
f 5/5/1 7/7/1 8/8/1
f 9/9/1 10/10/1 11/11/1
f 9/9/1 11/11/1 12/12/1
f 13/13/1 14/14/1 15/15/1
f 13/13/1 15/15/1 16/16/1
f 25/17/2 17/18/3 24/19/4
f 129/20/5 127/21/6 488/22/7
f 20/23/8 41/24/9 535/25/10
f 499/26/11 493/27/11 521/28/11
f 133/29/12 132/30/13 503/31/14
f 19/32/15 20/33/8 24/34/16
f 19/32/15 41/35/9 20/33/8
f 23/36/17 27/37/18 31/38/19
f 515/39/20 32/40/20 23/41/20
f 32/42/21 27/43/18 23/44/22
f 23/36/23 31/38/19 510/45/24
f 507/46/25 482/47/26 17/48/3
f 24/19/16 20/49/8 21/50/27
f 535/25/28 21/51/27 20/23/8
f 535/25/29 38/52/30 21/51/27
f 38/53/30 25/54/31 21/55/27
f 24/19/16 21/50/27 25/17/31
f 507/46/25 17/48/3 25/56/2
f 37/57/32 529/58/33 509/59/34
f 30/60/35 515/61/36 510/62/24
f 495/63/37 509/59/34 529/58/33
f 514/64/38 47/65/38 508/66/38
f 47/67/39 527/68/40 508/69/41
f 30/60/35 510/62/24 31/70/19
f 38/53/42 507/71/25 25/54/2
f 515/72/36 26/73/43 32/74/21
f 32/42/21 26/75/43 27/43/18
f 26/76/43 31/77/19 27/78/18
f 515/72/36 30/79/35 26/73/43
f 26/76/43 30/80/35 31/77/19
f 514/64/44 46/81/45 47/65/39
f 514/82/44 49/83/46 534/84/47
f 514/82/44 534/84/47 46/85/45
f 34/86/48 526/87/49 33/88/50
f 529/58/51 43/89/52 33/90/50
f 529/58/51 33/90/50 526/91/49
f 43/92/52 34/93/48 33/94/50
f 45/95/53 490/96/54 34/97/48
f 34/86/48 491/98/55 526/87/49
f 43/92/52 45/99/53 34/93/48
f 533/100/56 527/101/56 534/102/56
f 42/103/57 530/104/58 528/105/59
f 534/102/47 527/101/40 48/106/60
f 47/67/39 48/107/60 527/68/40
f 42/103/61 491/25/61 490/108/61
f 45/95/53 42/109/62 490/96/54
f 43/110/52 42/111/62 45/112/53
f 43/110/63 536/113/63 42/111/63
f 46/114/45 534/115/47 48/116/60
f 46/114/45 48/116/60 47/117/39
f 56/118/64 50/119/65 57/120/66
f 57/121/66 50/122/65 53/123/67
f 56/118/64 55/124/68 50/119/65
f 55/125/68 53/126/67 50/127/65
f 57/121/66 53/123/67 51/128/69
f 52/129/70 54/130/71 51/131/69
f 52/129/70 51/131/69 53/132/67
f 54/133/71 57/134/66 51/135/69
f 55/125/68 52/136/70 53/126/67
f 54/137/71 52/138/70 55/139/68
f 54/137/71 55/139/68 56/140/64
f 54/133/71 56/141/64 57/134/66
f 60/142/72 61/143/73 59/144/74
f 60/142/72 59/144/74 58/145/75
f 58/146/75 59/147/74 61/148/73
f 58/146/75 61/148/73 60/149/72
f 64/150/76 63/151/77 62/152/75
f 62/153/75 63/154/77 65/155/78
f 62/153/75 65/155/78 64/156/76
f 64/150/76 65/157/78 63/151/77
f 66/158/79 75/159/80 74/160/81
f 66/158/79 74/160/81 69/161/82
f 67/162/83 75/163/80 66/164/79
f 67/162/83 73/165/84 72/166/85
f 67/162/83 66/164/79 73/165/84
f 67/167/83 70/168/86 71/169/87
f 67/167/83 72/170/85 70/168/86
f 75/171/80 67/172/83 71/173/87
f 73/174/84 69/175/82 68/176/88
f 70/177/86 68/178/88 69/179/82
f 72/180/85 73/174/84 68/176/88
f 73/174/84 66/181/79 69/175/82
f 70/177/86 74/182/81 71/183/87
f 72/170/85 68/184/88 70/168/86
f 70/177/86 69/179/82 74/182/81
f 75/171/80 71/173/87 74/185/81
f 78/186/89 76/187/90 79/188/91
f 79/189/92 76/190/93 80/191/94
f 78/186/89 82/192/95 76/187/90
f 82/193/95 80/194/96 76/195/90
f 81/196/97 77/197/98 82/198/99
f 77/199/100 81/200/101 83/201/102
f 82/193/95 77/202/100 80/194/96
f 77/199/100 83/201/102 80/203/96
f 81/204/101 78/205/89 79/206/91
f 81/196/97 82/198/99 78/207/103
f 79/189/92 80/191/94 83/208/104
f 81/204/101 79/206/91 83/209/102
f 84/210/80 85/211/83 90/212/87
f 85/213/83 84/214/80 92/215/79
f 92/216/79 84/217/80 89/218/81
f 84/210/80 90/212/87 89/219/81
f 85/213/83 91/220/84 86/221/85
f 85/213/83 92/215/79 91/220/84
f 85/222/83 93/223/86 90/224/87
f 85/222/83 86/225/85 93/223/86
f 86/226/85 91/227/84 87/228/88
f 91/227/84 88/229/82 87/228/88
f 93/230/86 87/231/88 88/232/82
f 91/227/84 92/233/79 88/229/82
f 92/216/79 89/218/81 88/234/82
f 93/230/86 88/232/82 89/235/81
f 93/230/86 89/235/81 90/236/87
f 86/225/85 87/237/88 93/223/86
f 94/238/89 100/239/90 97/240/91
f 94/238/89 101/241/95 100/239/90
f 96/242/101 94/243/89 97/244/91
f 96/245/97 101/246/99 94/247/103
f 96/245/97 95/248/98 101/246/99
f 95/249/100 96/250/101 98/251/102
f 101/252/95 95/253/100 99/254/96
f 95/249/100 98/251/102 99/255/96
f 96/242/101 97/244/91 98/256/102
f 97/257/92 99/258/94 98/259/104
f 97/257/92 100/260/93 99/258/94
f 101/252/95 99/254/96 100/261/90
f 104/262/105 102/263/106 106/264/107
f 106/265/107 102/266/106 109/267/108
f 102/268/106 105/269/109 109/270/108
f 104/262/105 103/271/110 102/263/106
f 102/268/106 103/272/110 105/269/109
f 103/273/110 104/274/105 108/275/111
f 103/273/110 108/275/111 105/276/109
f 104/277/105 107/278/112 108/279/111
f 104/277/105 106/280/107 107/278/112
f 107/281/112 109/282/108 105/283/109
f 107/281/112 105/283/109 108/284/111
f 106/265/107 109/267/108 107/285/112
f 110/286/113 537/287/114 517/288/115
f 110/286/113 115/289/116 537/287/114
f 112/290/117 110/291/113 517/292/115
f 112/293/117 115/294/116 110/295/113
f 111/296/118 501/297/118 523/298/118
f 124/299/119 123/300/120 111/301/121
f 517/302/115 537/303/114 117/304/122
f 111/301/121 497/305/123 124/299/119
f 111/296/124 523/298/125 496/306/126
f 123/307/120 501/308/127 111/309/121
f 112/293/117 116/310/128 115/294/116
f 112/290/117 517/292/115 483/311/129
f 116/312/128 112/313/117 485/314/130
f 521/315/131 519/316/131 114/317/131
f 120/318/132 499/319/132 114/320/132
f 521/315/133 114/317/133 499/321/133
f 121/322/134 120/323/135 114/324/136
f 116/312/128 485/314/130 117/325/137
f 115/326/116 116/327/128 117/328/138
f 520/329/139 124/330/119 496/331/126
f 523/332/125 520/329/139 496/331/126
f 488/333/140 121/334/141 518/335/142
f 486/336/143 140/337/144 138/338/145
f 506/339/146 126/340/147 486/341/143
f 486/336/143 126/342/147 140/337/144
f 139/343/148 486/344/143 138/345/145
f 119/346/149 121/347/149 130/348/149
f 119/346/150 120/349/135 121/347/134
f 504/350/151 492/27/152 119/351/153
f 139/352/148 137/353/154 506/354/155
f 124/355/119 502/356/156 123/357/120
f 124/355/119 520/358/139 502/356/156
f 136/359/157 140/360/157 525/361/157
f 502/362/158 520/363/158 525/361/158
f 488/364/159 127/365/6 128/366/160
f 129/20/5 133/367/12 127/21/6
f 127/368/6 133/369/12 134/370/161
f 127/368/6 134/370/161 128/371/160
f 128/372/160 489/373/162 131/374/163
f 488/364/164 128/366/160 131/375/163
f 128/372/160 134/376/161 489/373/162
f 129/20/5 132/377/13 133/367/12
f 132/378/165 131/379/163 489/380/162
f 133/29/12 489/381/162 134/382/161
f 136/359/166 137/383/154 140/360/144
f 137/384/154 139/385/148 138/386/145
f 137/384/154 138/386/145 140/387/144
f 145/388/167 141/389/168 143/390/169
f 141/391/168 142/392/170 143/393/169
f 145/394/167 147/395/171 141/396/168
f 141/391/168 147/397/171 142/392/170
f 143/398/169 142/399/170 148/400/172
f 147/401/171 148/402/172 142/403/170
f 143/398/169 148/400/172 146/404/173
f 145/388/167 143/390/169 146/405/173
f 144/406/174 146/407/173 148/408/172
f 144/406/174 145/409/167 146/407/173
f 147/401/171 144/410/174 148/402/172
f 145/394/167 144/411/174 147/395/171
f 150/412/175 149/413/176 152/414/177
f 149/415/176 150/416/175 151/417/178
f 149/415/176 151/417/178 152/418/177
f 150/412/175 152/414/177 151/419/178
f 154/420/179 156/421/180 153/422/181
f 155/423/182 154/424/179 153/425/181
f 154/420/179 155/426/182 156/421/180
f 155/423/182 153/425/181 156/427/180
f 157/428/183 158/429/184 160/430/185
f 157/428/183 160/430/185 159/431/186
f 158/432/184 159/433/186 160/434/185
f 158/432/184 157/435/183 159/433/186
f 163/436/187 161/437/188 162/438/189
f 161/439/188 164/440/190 162/441/189
f 163/436/187 162/438/189 164/442/190
f 161/439/188 163/443/187 164/440/190
f 165/444/191 169/445/192 166/446/193
f 165/444/191 167/447/194 169/445/192
f 170/448/195 165/449/191 166/450/193
f 170/451/195 167/452/194 165/453/191
f 166/454/193 168/455/196 172/456/197
f 166/454/193 169/457/192 168/455/196
f 170/448/195 166/450/193 172/458/197
f 167/459/194 168/460/196 169/461/192
f 170/451/195 171/462/198 167/452/194
f 167/459/194 171/463/198 168/460/196
f 171/464/198 172/465/197 168/466/196
f 171/464/198 170/467/195 172/465/197
f 173/468/199 175/469/200 174/470/201
f 173/468/199 174/470/201 176/471/202
f 175/472/200 176/473/202 174/474/201
f 175/472/200 173/475/199 176/473/202
f 179/476/203 177/477/204 178/478/205
f 177/479/204 180/480/206 178/481/205
f 177/479/204 179/482/203 180/480/206
f 179/476/203 178/478/205 180/483/206
f 183/484/207 181/485/208 182/486/209
f 181/487/208 184/488/210 182/489/209
f 181/487/208 183/490/207 184/488/210
f 183/484/207 182/486/209 184/491/210
f 188/492/211 187/493/212 185/494/213
f 188/492/211 185/494/213 186/495/214
f 187/496/212 186/497/214 185/498/213
f 187/496/212 188/499/211 186/497/214
f 195/500/215 192/501/216 189/502/217
f 189/503/217 192/504/216 196/505/218
f 195/506/215 189/507/217 190/508/219
f 189/503/217 196/505/218 190/509/219
f 190/510/219 193/511/220 191/512/221
f 195/506/215 190/508/219 191/513/221
f 190/510/219 196/514/218 193/511/220
f 194/515/222 195/516/215 191/517/221
f 194/515/222 191/517/221 193/518/220
f 192/519/216 193/520/220 196/521/218
f 195/500/215 194/522/222 192/501/216
f 192/519/216 194/523/222 193/520/220
f 197/524/223 202/525/224 201/526/225
f 197/524/223 200/527/226 202/525/224
f 199/528/227 197/529/223 201/530/225
f 199/531/227 200/532/226 197/533/223
f 199/531/227 198/534/228 200/532/226
f 198/535/228 199/536/227 204/537/229
f 200/538/226 198/539/228 203/540/230
f 198/535/228 204/537/229 203/541/230
f 199/528/227 201/530/225 204/542/229
f 200/538/226 203/540/230 202/543/224
f 201/544/225 203/545/230 204/546/229
f 201/544/225 202/547/224 203/545/230
f 205/548/231 206/549/232 212/550/233
f 205/548/231 209/551/234 206/549/232
f 210/552/235 205/553/231 212/554/233
f 209/555/234 205/556/231 210/557/235
f 209/558/234 208/559/236 206/560/232
f 208/561/236 212/562/233 206/563/232
f 207/564/237 211/565/238 208/566/236
f 207/564/237 210/567/235 211/565/238
f 209/558/234 207/568/237 208/559/236
f 209/555/234 210/557/235 207/569/237
f 208/561/236 211/570/238 212/562/233
f 210/552/235 212/554/233 211/571/238
f 214/572/239 213/573/240 220/574/241
f 214/572/239 218/575/242 217/576/243
f 214/572/239 221/577/244 218/575/242
f 214/572/239 223/578/245 219/579/246
f 214/572/239 220/574/241 223/578/245
f 214/572/239 215/580/247 216/581/248
f 214/572/239 222/582/249 221/577/244
f 214/572/239 217/576/243 215/580/247
f 214/572/239 219/579/246 222/582/249
f 216/583/248 215/584/247 217/585/243
f 216/583/248 217/585/243 218/586/242
f 216/583/248 218/586/242 221/587/244
f 216/583/248 219/588/246 223/589/245
f 216/583/248 222/590/249 219/588/246
f 216/583/248 220/591/241 213/592/240
f 216/583/248 223/589/245 220/591/241
f 216/583/248 213/592/240 214/593/239
f 216/583/248 221/587/244 222/590/249
f 225/594/250 226/595/250 224/596/250
f 226/597/250 225/598/250 224/599/250
f 228/600/251 227/601/252 229/602/251
f 227/603/252 228/604/251 229/605/251
f 232/606/253 231/607/254 230/608/250
f 231/609/254 232/610/253 230/611/250
f 235/612/255 233/613/256 234/614/250
f 233/615/256 235/616/255 234/617/250
f 237/618/250 236/619/250 238/620/250
f 236/621/250 237/622/250 238/623/250
f 239/624/250 240/625/250 241/626/250
f 240/627/250 239/628/250 241/629/250
f 242/630/257 245/631/258 244/632/259
f 242/630/257 243/633/260 245/631/258
f 243/634/260 242/635/257 244/636/259
f 243/634/260 244/636/259 245/637/258
f 250/638/261 247/639/262 246/640/263
f 246/641/263 247/642/262 252/643/264
f 250/644/261 246/645/263 248/646/265
f 246/641/263 252/643/264 248/647/265
f 247/648/262 253/649/266 252/650/264
f 247/648/262 251/651/267 253/649/266
f 250/638/261 251/652/267 247/639/262
f 248/653/265 253/654/266 249/655/268
f 250/644/261 248/646/265 249/656/268
f 248/653/265 252/657/264 253/654/266
f 251/658/267 249/659/268 253/660/266
f 251/658/267 250/661/261 249/659/268
f 254/662/263 255/663/264 260/664/265
f 254/662/263 259/665/262 255/663/264
f 257/666/261 254/667/263 260/668/265
f 257/669/261 259/670/262 254/671/263
f 259/672/262 261/673/266 255/674/264
f 260/675/265 255/676/264 261/677/266
f 256/678/267 258/679/268 261/680/266
f 256/678/267 257/681/261 258/679/268
f 259/672/262 256/682/267 261/673/266
f 257/669/261 256/683/267 259/670/262
f 257/666/261 260/668/265 258/684/268
f 260/675/265 261/677/266 258/685/268
f 269/686/269 262/687/270 263/688/271
f 262/689/270 268/690/272 263/691/271
f 269/692/269 266/693/273 262/694/270
f 262/689/270 266/695/273 268/690/272
f 263/696/271 267/697/274 265/698/275
f 269/686/269 263/688/271 265/699/275
f 263/696/271 268/700/272 267/697/274
f 264/701/276 265/702/275 267/703/274
f 269/692/269 264/704/276 266/693/273
f 266/705/273 264/706/276 267/707/274
f 264/701/276 269/708/269 265/702/275
f 266/705/273 267/707/274 268/709/272
f 270/710/277 276/711/278 273/712/279
f 270/710/277 275/713/280 276/711/278
f 274/714/281 270/715/277 273/716/279
f 274/717/281 275/718/280 270/719/277
f 271/720/282 272/721/283 277/722/284
f 271/720/282 274/723/281 272/721/283
f 275/724/280 271/725/282 277/726/284
f 274/717/281 271/727/282 275/718/280
f 274/714/281 273/716/279 272/728/283
f 273/729/279 277/730/284 272/731/283
f 273/729/279 276/732/278 277/730/284
f 275/724/280 277/726/284 276/733/278
f 280/734/285 278/735/286 282/736/287
f 278/737/286 279/738/288 282/739/287
f 280/740/285 283/741/289 278/742/286
f 278/737/286 283/743/289 279/738/288
f 283/744/289 284/745/290 279/746/288
f 282/747/287 279/748/288 284/749/290
f 280/734/285 282/736/287 285/750/291
f 280/740/285 281/751/292 283/741/289
f 281/752/292 280/753/285 285/754/291
f 283/744/289 281/755/292 284/745/290
f 281/752/292 285/754/291 284/756/290
f 282/747/287 284/749/290 285/757/291
f 291/758/293 286/759/293 288/760/293
f 291/758/293 290/761/293 286/759/293
f 288/762/294 286/763/295 292/764/296
f 286/765/295 290/766/297 293/767/298
f 286/765/295 293/767/298 292/768/296
f 289/769/299 293/770/299 287/771/299
f 290/772/297 291/773/300 287/774/301
f 290/772/297 287/774/301 293/775/298
f 291/776/300 289/777/302 287/778/301
f 288/762/294 292/764/296 289/779/302
f 291/776/300 288/780/294 289/777/302
f 289/769/299 292/781/299 293/770/299
f 294/782/303 295/783/304 300/784/305
f 297/785/306 298/786/307 294/787/303
f 294/782/303 298/788/307 295/783/304
f 297/789/306 294/790/303 300/791/305
f 298/792/307 296/793/308 295/794/304
f 300/795/305 295/796/304 296/797/308
f 299/798/309 301/799/310 296/800/308
f 300/795/305 296/797/308 301/801/310
f 298/792/307 299/802/309 296/793/308
f 297/789/306 300/791/305 301/803/310
f 297/785/306 299/804/309 298/786/307
f 299/798/309 297/805/306 301/799/310
f 302/806/311 303/807/312 308/808/313
f 302/806/311 306/809/314 303/807/312
f 307/810/315 302/811/311 308/812/313
f 307/813/315 306/814/314 302/815/311
f 308/816/313 303/817/312 309/818/316
f 306/819/314 309/820/316 303/821/312
f 308/816/313 309/818/316 304/822/317
f 305/823/318 307/824/315 304/825/317
f 305/823/318 304/825/317 309/826/316
f 307/810/315 308/812/313 304/827/317
f 307/813/315 305/828/318 306/814/314
f 306/819/314 305/829/318 309/820/316
f 313/830/319 312/831/320 310/832/321
f 313/830/319 310/832/321 311/833/322
f 312/834/320 311/835/322 310/836/321
f 312/834/320 313/837/319 311/835/322
f 316/838/323 314/839/324 317/840/325
f 314/841/324 316/842/323 315/843/326
f 314/844/324 315/845/326 317/846/325
f 316/847/323 317/848/325 315/849/326
f 319/850/327 318/851/328 320/852/329
f 319/853/327 320/854/329 321/855/330
f 318/856/328 321/857/330 320/858/329
f 318/859/328 319/860/327 321/861/330
f 322/862/331 323/863/332 324/864/333
f 327/865/334 322/866/331 325/867/335
f 322/862/331 324/864/333 325/868/335
f 322/869/331 327/870/334 323/871/332
f 323/863/332 326/872/336 324/864/333
f 324/873/333 328/874/337 325/875/335
f 324/873/333 326/876/336 328/874/337
f 327/877/334 325/878/335 328/879/337
f 323/880/332 327/881/334 326/882/336
f 327/877/334 328/879/337 326/883/336
f 334/884/338 329/885/339 331/886/340
f 331/887/340 329/888/339 336/889/341
f 329/890/339 333/891/342 336/892/341
f 334/884/338 330/893/343 329/885/339
f 329/890/339 330/894/343 333/891/342
f 330/895/343 332/896/344 333/897/342
f 330/895/343 334/898/338 332/896/344
f 334/899/338 331/900/340 335/901/345
f 331/887/340 336/889/341 335/902/345
f 334/899/338 335/901/345 332/903/344
f 335/904/345 333/905/342 332/906/344
f 335/904/345 336/907/341 333/905/342
f 337/908/346 340/909/347 339/910/348
f 337/911/346 338/912/349 340/913/347
f 338/914/349 339/915/348 340/916/347
f 338/917/349 337/918/346 339/919/348
f 341/920/350 342/921/351 343/922/352
f 341/923/350 343/924/352 344/925/353
f 342/926/351 341/927/350 344/928/353
f 342/929/351 344/930/353 343/931/352
f 345/932/354 346/933/355 348/934/356
f 346/935/355 347/936/357 349/937/358
f 346/935/355 349/937/358 348/938/356
f 346/939/355 345/940/354 347/941/357
f 347/942/357 345/943/354 350/944/359
f 347/936/357 350/945/359 349/937/358
f 349/946/358 350/947/359 348/948/356
f 345/949/354 348/950/356 350/951/359
f 354/952/338 355/953/339 351/954/340
f 351/955/340 355/956/339 357/957/341
f 354/958/338 351/959/340 352/960/345
f 351/955/340 357/957/341 352/961/345
f 352/962/345 357/963/341 356/964/342
f 352/962/345 356/964/342 353/965/344
f 354/958/338 352/960/345 353/966/344
f 358/967/343 353/968/344 356/969/342
f 358/967/343 354/970/338 353/968/344
f 354/952/338 358/971/343 355/953/339
f 355/972/339 356/973/342 357/974/341
f 355/972/339 358/975/343 356/973/342
f 360/976/360 362/977/361 359/978/362
f 359/979/362 361/980/363 360/981/360
f 359/979/362 362/982/361 361/980/363
f 360/976/360 361/983/363 362/977/361
f 363/984/295 366/985/298 364/986/296
f 368/987/293 369/988/293 363/989/293
f 363/984/295 369/990/297 366/985/298
f 367/991/294 363/992/295 364/993/296
f 368/987/293 363/989/293 367/994/293
f 367/991/294 364/993/296 370/995/302
f 370/996/299 364/997/299 366/998/299
f 370/996/299 366/998/299 365/999/299
f 369/1000/297 365/1001/301 366/1002/298
f 369/1000/297 368/1003/300 365/1001/301
f 368/1004/300 370/1005/302 365/1006/301
f 368/1004/300 367/1007/294 370/1005/302
f 371/1008/303 377/1009/304 374/1010/305
f 371/1008/303 376/1011/307 377/1009/304
f 373/1012/306 371/1013/303 374/1014/305
f 373/1015/306 376/1016/307 371/1017/303
f 374/1018/305 378/1019/308 372/1020/310
f 375/1021/309 373/1022/306 372/1023/310
f 375/1021/309 372/1023/310 378/1024/308
f 373/1012/306 374/1014/305 372/1025/310
f 373/1015/306 375/1026/309 376/1016/307
f 374/1018/305 377/1027/304 378/1019/308
f 376/1028/307 375/1029/309 378/1030/308
f 376/1028/307 378/1030/308 377/1031/304
f 384/1032/313 379/1033/312 385/1034/316
f 383/1035/311 381/1036/314 379/1037/312
f 383/1035/311 379/1037/312 384/1038/313
f 381/1039/314 385/1040/316 379/1041/312
f 380/1042/315 384/1043/313 386/1044/317
f 380/1042/315 383/1045/311 384/1043/313
f 380/1046/315 382/1047/318 381/1048/314
f 382/1049/318 380/1050/315 386/1051/317
f 380/1046/315 381/1048/314 383/1052/311
f 381/1039/314 382/1053/318 385/1040/316
f 382/1049/318 386/1051/317 385/1054/316
f 384/1032/313 385/1034/316 386/1055/317
f 387/1056/320 388/1057/319 389/1058/322
f 387/1056/320 389/1058/322 390/1059/321
f 388/1060/319 390/1061/321 389/1062/322
f 388/1060/319 387/1063/320 390/1061/321
f 393/1064/324 392/1065/326 391/1066/325
f 394/1067/323 391/1068/325 392/1069/326
f 393/1070/324 394/1071/323 392/1072/326
f 394/1073/323 393/1074/324 391/1075/325
f 395/1076/328 397/1077/364 398/1078/365
f 396/1079/327 395/1080/328 398/1081/365
f 396/1082/327 398/1083/365 397/1084/364
f 395/1085/328 396/1086/327 397/1087/364
f 399/1088/331 402/1089/334 400/1090/332
f 399/1091/331 401/1092/333 405/1093/335
f 399/1091/331 400/1094/332 401/1092/333
f 402/1095/334 399/1096/331 405/1097/335
f 400/1098/332 402/1099/334 403/1100/336
f 401/1101/333 403/1102/336 404/1103/366
f 401/1101/333 404/1103/366 405/1104/335
f 400/1094/332 403/1105/336 401/1092/333
f 402/1106/334 404/1107/366 403/1108/336
f 402/1106/334 405/1109/335 404/1107/366
f 406/1110/340 412/1111/341 413/1112/345
f 406/1110/340 411/1113/339 412/1111/341
f 407/1114/338 406/1115/340 413/1116/345
f 407/1117/338 411/1118/339 406/1119/340
f 407/1114/338 413/1116/345 408/1120/344
f 409/1121/343 407/1122/338 408/1123/344
f 407/1117/338 409/1124/343 411/1118/339
f 413/1125/345 410/1126/342 408/1127/344
f 409/1121/343 408/1123/344 410/1128/342
f 411/1129/339 409/1130/343 410/1131/342
f 411/1129/339 410/1131/342 412/1132/341
f 413/1125/345 412/1133/341 410/1126/342
f 414/1134/349 417/1135/367 415/1136/347
f 416/1137/346 415/1138/347 417/1139/367
f 416/1140/346 414/1141/349 415/1142/347
f 414/1143/349 416/1144/346 417/1145/367
f 418/1146/351 420/1147/368 419/1148/369
f 418/1149/351 421/1150/350 420/1151/368
f 421/1152/350 419/1153/369 420/1154/368
f 421/1155/350 418/1156/351 419/1157/369
f 423/1158/354 422/1159/355 427/1160/356
f 422/1161/355 423/1162/354 424/1163/357
f 422/1164/355 426/1165/358 427/1166/356
f 422/1164/355 424/1167/357 426/1165/358
f 424/1168/357 423/1169/354 425/1170/359
f 423/1171/354 427/1172/356 425/1173/359
f 426/1174/358 425/1175/359 427/1176/356
f 424/1167/357 425/1177/359 426/1165/358
f 429/1178/340 428/1179/341 435/1180/345
f 435/1181/345 428/1182/341 434/1183/342
f 429/1178/340 433/1184/339 428/1179/341
f 433/1185/339 434/1186/342 428/1187/341
f 430/1188/338 429/1189/340 435/1190/345
f 430/1191/338 433/1192/339 429/1193/340
f 430/1188/338 435/1190/345 431/1194/344
f 432/1195/343 430/1196/338 431/1197/344
f 430/1191/338 432/1198/343 433/1192/339
f 435/1181/345 434/1183/342 431/1199/344
f 432/1195/343 431/1197/344 434/1200/342
f 433/1185/339 432/1201/343 434/1186/342
f 438/1202/360 436/1203/361 437/1204/362
f 438/1202/360 439/1205/363 436/1203/361
f 437/1206/362 436/1207/361 439/1208/363
f 437/1206/362 439/1208/363 438/1209/360
f 442/1210/370 448/1211/371 440/1212/372
f 440/1213/372 448/1214/371 445/1215/373
f 440/1213/372 445/1215/373 443/1216/374
f 441/1217/375 446/1218/376 447/1219/377
f 442/1210/370 446/1220/376 441/1221/375
f 442/1210/370 440/1212/372 446/1220/376
f 448/1222/371 442/1223/370 449/1224/378
f 442/1225/370 444/1226/379 449/1227/378
f 442/1225/370 441/1228/375 444/1226/379
f 446/1218/376 443/1229/374 447/1219/377
f 444/1230/379 447/1231/377 443/1232/374
f 446/1218/376 440/1233/372 443/1229/374
f 444/1230/379 443/1232/374 445/1234/373
f 444/1230/379 445/1234/373 449/1235/378
f 441/1228/375 447/1236/377 444/1226/379
f 448/1222/371 449/1224/378 445/1237/373
f 450/1238/380 456/1239/381 452/1240/382
f 454/1241/383 453/1242/384 450/1243/380
f 453/1244/384 456/1245/381 450/1246/380
f 450/1238/380 452/1240/382 455/1247/385
f 454/1241/383 450/1243/380 455/1248/385
f 457/1249/386 451/1250/387 452/1251/382
f 451/1252/387 455/1253/385 452/1254/382
f 451/1252/387 454/1255/383 455/1253/385
f 454/1256/383 451/1257/387 457/1258/386
f 457/1249/386 452/1251/382 456/1259/381
f 454/1256/383 457/1258/386 453/1260/384
f 453/1244/384 457/1261/386 456/1245/381
f 458/1262/388 459/1263/389 464/1264/390
f 463/1265/391 458/1266/388 464/1267/390
f 463/1268/391 462/1269/392 458/1270/388
f 458/1262/388 462/1271/392 459/1263/389
f 462/1272/392 461/1273/393 459/1274/389
f 464/1275/390 459/1276/389 461/1277/393
f 463/1268/391 460/1278/394 462/1269/392
f 462/1272/392 460/1279/394 461/1273/393
f 460/1280/394 465/1281/395 461/1282/393
f 460/1280/394 463/1283/391 465/1281/395
f 464/1275/390 461/1277/393 465/1284/395
f 463/1265/391 464/1267/390 465/1285/395
f 466/1286/396 473/1287/397 469/1288/398
f 466/1286/396 471/1289/399 473/1287/397
f 467/1290/400 466/1291/396 469/1292/398
f 467/1293/400 471/1294/399 466/1295/396
f 467/1293/400 472/1296/401 471/1294/399
f 472/1297/401 467/1298/400 470/1299/402
f 467/1290/400 469/1292/398 470/1300/402
f 469/1301/398 473/1302/397 468/1303/403
f 472/1297/401 470/1299/402 468/1304/403
f 469/1301/398 468/1303/403 470/1305/402
f 471/1306/399 472/1307/401 468/1308/403
f 471/1306/399 468/1308/403 473/1309/397
f 475/1310/404 474/1311/405 480/1312/406
f 478/1313/407 474/1314/408 475/1315/409
f 478/1313/407 479/1316/410 474/1314/408
f 479/1317/411 480/1318/406 474/1319/405
f 477/1320/412 478/1321/413 475/1322/404
f 475/1310/404 480/1312/406 481/1323/414
f 477/1320/412 475/1322/404 481/1324/414
f 477/1325/412 476/1326/415 479/1327/411
f 479/1317/411 476/1328/415 480/1318/406
f 476/1329/416 481/1330/417 480/1331/418
f 476/1329/416 477/1332/419 481/1330/417
f 477/1325/412 479/1327/411 478/1333/413
f 535/1334/420 41/1335/420 18/1336/420
f 521/315/421 493/1337/422 518/1338/142
f 137/353/154 136/1339/166 506/354/155
f 42/1340/423 490/1341/423 39/1342/423
f 495/1343/424 28/1344/424 529/83/424
f 506/1345/155 505/351/425 139/343/148
f 126/1346/147 525/361/426 140/360/144
f 511/1347/293 535/1348/293 18/1349/293
f 23/41/427 22/1350/427 515/39/427
f 535/1348/29 511/1347/293 38/1351/30
f 42/103/57 528/105/59 491/25/428
f 115/326/116 117/328/138 494/1352/429
f 517/302/430 117/304/430 513/1353/430
f 518/1354/431 121/322/134 114/324/136
f 493/1355/422 488/333/140 518/335/142
f 499/319/432 120/318/135 119/1356/150
f 119/351/153 492/27/152 500/1357/433
f 486/344/143 139/343/148 505/351/434
f 126/340/147 506/339/146 136/1358/435
f 501/308/436 123/307/120 502/1359/156
f 502/362/437 525/361/437 135/1360/437
f 131/379/438 132/378/13 129/1361/5
f 489/381/162 133/29/12 503/31/439
l 118 500
l 122 487
l 498 125
l 35 40
l 113 484
l 36 522
l 512 29
l 530 532
l 44 531
l 524 135
l 516 521
