# Blender 4.5.0
# www.blender.org
mtllib hospital_001.lod2.mtl
o hospital_001
v -4.469289 3.867969 -8.928377
v 4.469289 3.867969 -8.928377
v -3.496511 0.048217 -20.810163
v -21.900000 0.064107 21.900000
v 21.900000 0.060931 21.900000
v -17.044788 10.113227 -8.339546
v 17.044788 10.113229 16.047037
v -17.044788 11.866331 16.047037
v -16.602406 2.934744 -8.773196
v 17.041615 2.926538 -8.342745
v -16.602406 1.078088 -8.769072
v -17.020247 2.934745 -8.347834
v -17.024338 1.078087 -8.347834
v -16.597359 2.926540 16.498106
v 16.602407 1.078088 16.476564
v -17.041615 2.926540 16.050236
v 16.602407 2.934747 16.480688
v 17.024338 2.934745 -8.347835
v 16.597359 2.926540 16.498106
v 17.020248 1.078087 -8.347834
v -16.602406 6.528090 -8.773197
v 17.041615 6.519882 -8.342746
v -16.602406 4.671432 -8.769073
v -17.020247 6.528090 -8.347835
v -17.024338 4.671432 -8.347834
v -16.597359 6.519884 16.498106
v 17.041615 6.519884 16.050236
v -16.602407 4.671433 16.480688
v -16.602407 6.528093 16.476564
v 17.024338 6.528090 -8.347835
v 16.597359 6.519884 16.498106
v 17.020248 4.671432 -8.347834
v -16.602406 10.121434 -8.773197
v 17.041615 8.272985 -8.342746
v -16.602406 8.264778 -8.769073
v -17.024338 8.264777 -8.347835
v -16.597359 10.113229 16.498106
v -17.020247 10.121435 -8.347835
v 16.602407 10.121438 16.480688
v -17.041615 10.113229 16.050236
v 16.602407 8.264778 16.476564
v 17.024338 10.121435 -8.347835
v 16.597359 10.113229 16.498106
v 17.020247 8.264777 -8.347835
v 17.041615 13.706571 -8.342746
v -16.602406 13.714780 -8.773197
v -16.602406 11.858123 -8.769073
v -16.597359 11.866331 16.498106
v -17.020247 13.714781 -8.347835
v -17.024338 11.858122 -8.347835
v -17.041615 11.866331 16.050236
v 16.602407 11.858123 16.476566
v 16.602407 13.714782 16.480686
v 17.024338 13.714780 -8.347835
v 17.020247 11.858122 -8.347835
v 16.597359 11.866331 16.498106
v 16.602406 15.451467 -8.773197
v 16.602407 17.308125 -8.769073
v -17.041615 17.299919 -8.342746
v -17.024338 15.451467 -8.347835
v -16.597359 17.299921 16.498104
v -17.020247 17.308125 -8.347836
v 17.041615 17.299921 16.050234
v -16.602406 15.451468 16.480686
v -16.602407 17.308128 16.476562
v 17.024338 17.308125 -8.347836
v 16.597359 17.299921 16.498104
v 17.020247 15.451467 -8.347835
v -17.041615 19.053020 -8.342747
v 16.602406 19.044817 -8.773198
v 16.602406 20.901468 -8.769073
v -17.024338 19.044815 -8.347836
v -17.020247 20.901468 -8.347836
v -16.597359 19.053022 16.498104
v 16.602407 20.901472 16.480686
v -17.041615 20.893265 16.050234
v 16.602407 19.044817 16.476562
v 17.024338 20.901468 -8.347836
v 16.597359 20.893265 16.498104
v 17.020247 19.044815 -8.347836
v -16.059502 21.046154 -8.893729
v -16.003248 0.066819 -8.916070
v -15.991666 0.066818 -8.726995
v -16.059502 21.046156 16.456827
v -15.991665 0.066821 16.623558
v -16.003250 0.066822 16.434492
v -12.860011 21.046154 -8.893729
v -12.792173 0.066818 -8.726995
v -12.803755 0.066818 -8.916070
v -12.860021 21.046156 16.601210
v -12.792172 0.066821 16.623558
v -12.803756 0.066821 16.434490
v -9.604263 0.066818 -8.916070
v -9.592682 0.066818 -8.726995
v -9.660521 21.046154 -8.893729
v -9.604264 0.066821 16.434490
v -9.660530 21.046156 16.601210
v -9.592681 0.066821 16.623558
v -6.336934 21.046154 -8.749339
v -6.404770 0.066819 -8.916069
v -6.393191 0.066819 -8.726996
v -6.404771 0.066821 16.434492
v -6.336934 21.046156 16.601217
v -6.393189 0.066822 16.623556
v -3.205284 0.066819 -8.916070
v -3.261539 21.046154 -8.893729
v -3.193705 0.066818 -8.726995
v -3.261548 21.046156 16.601210
v -3.205285 0.066821 16.434490
v -3.193704 0.066821 16.623558
v -0.005790 0.066819 -8.916069
v 0.005790 0.066819 -8.726996
v -0.062048 21.046154 -8.893729
v 0.062048 21.046156 16.601217
v 0.005791 0.066821 16.623556
v -0.005790 0.066821 16.434492
v 3.261539 21.046154 -8.749339
v 3.205284 0.066818 -8.726995
v 3.193705 0.066818 -8.916070
v 3.261539 21.046156 16.601217
v 3.193704 0.066821 16.434490
v 3.205285 0.066821 16.623558
v 6.336934 21.046154 -8.893729
v 6.404770 0.066819 -8.726996
v 6.393191 0.066819 -8.916069
v 6.393190 0.066821 16.434492
v 6.404771 0.066821 16.623556
v 6.336925 21.046156 16.601210
v 9.660521 21.046154 -8.749339
v 9.592682 0.066818 -8.916070
v 9.604263 0.066818 -8.726995
v 9.660521 21.046156 16.601217
v 9.604265 0.066821 16.623558
v 9.592681 0.066821 16.434490
v 12.860011 21.046154 -8.749339
v 12.792173 0.066818 -8.916070
v 12.803755 0.066818 -8.726995
v 12.860011 21.046156 16.601217
v 12.803756 0.066821 16.623558
v 12.792172 0.066820 16.434490
v 15.991666 0.066818 -8.916070
v 16.059502 21.046154 -8.749339
v 16.003248 0.066819 -8.726995
v 16.059502 21.046156 16.601217
v 16.003250 0.066822 16.623558
v 15.991665 0.066821 16.434490
v -10.998250 24.000000 11.913868
v -10.998250 21.006908 -4.206380
v 10.998250 21.007004 -4.206398
v -10.023516 3.109112 -13.790665
v -10.023516 3.129613 -8.741078
v 11.949708 2.240982 -10.765745
v -8.393210 3.056239 -9.730489
v -8.455480 0.045049 -9.710390
v -8.404118 3.056239 -9.575734
v 8.321910 3.056239 -9.658609
v 8.455480 0.045049 -9.710390
v 8.475417 3.056239 -9.647614
v -4.469289 5.005861 -8.928377
v 4.507155 5.040296 -8.838875
v 4.507155 3.833534 -8.854589
v -11.451719 20.008076 -8.921845
v -12.561255 16.008512 -8.839690
v -11.434927 16.008511 -8.853777
v -10.148385 17.416403 -9.022537
v -13.854383 17.398302 -8.940615
v -13.854383 18.525431 -8.954449
v 12.201843 0.945335 -15.847115
v 11.951200 2.237744 -10.761883
v 14.044663 0.048287 -10.761883
v 12.191773 1.745703 -15.824506
v 13.797805 1.738738 -15.843914
v 12.191775 0.939587 -15.819324
v -19.446907 0.495826 -19.787117
v -21.542934 0.045857 -21.900000
v -21.542934 0.493408 -19.581659
v -19.450712 1.291067 -21.698406
v -21.342796 1.291068 -19.783255
v -19.250111 0.494216 -19.584858
v -19.450737 0.495829 19.426950
v -21.542934 0.493411 21.543695
v -19.250574 0.045860 21.543695
v -19.446907 1.291071 21.338264
v -21.543398 0.494219 19.228554
v -21.342796 1.291071 21.342102
v 19.446907 0.495826 -21.694544
v 21.542934 0.493408 -21.900000
v 21.542934 0.045857 -19.581659
v 21.342796 1.291067 -21.698406
v 21.543398 0.494216 -19.584858
v 19.450712 1.291068 -19.783255
v 21.542934 0.493411 19.225355
v 19.446907 0.495829 19.430813
v 21.542934 0.045860 21.543695
v 19.250111 0.494219 19.228554
v 19.450712 1.291071 21.342102
v 21.342796 1.291070 19.426950
v -14.347717 0.687456 -19.545786
v -12.037868 0.527997 -19.464638
v -12.037868 0.540287 -20.001076
v -12.043192 0.678175 -19.505392
v -12.043192 1.238540 -19.496653
v -14.061993 0.470582 -19.964689
v -14.020107 0.485239 -19.489265
v -14.015437 0.034065 -19.489260
v -12.333807 0.048719 -19.964689
v -12.380367 0.485239 -19.489267
v -12.375697 0.034070 -19.489262
v 14.347717 0.687440 -19.545687
v 12.037868 0.540288 -19.464638
v 12.037868 0.527997 -20.001076
v 14.347717 0.687456 -19.456257
v 12.043192 0.678175 -19.496651
v 12.043192 1.238540 -19.505392
v 12.333807 0.470582 -19.964689
v 12.375697 0.485232 -19.489264
v 12.380367 0.034063 -19.489267
v 14.061900 0.470602 -19.964689
v 14.015436 0.485235 -19.489260
v 14.020106 0.034062 -19.489265
v -3.493899 -0.000002 -20.735235
v -3.541084 0.919000 -20.693172
v -3.443818 0.897466 -20.794617
v 3.504987 -0.000002 -20.735235
v 3.555069 0.897466 -20.794617
v 3.457803 0.919000 -20.693172
v 13.372752 3.110883 -19.091635
v 13.372752 3.127843 -16.342178
v 18.976980 3.036333 -16.903297
v 13.883246 3.056240 -16.923391
v 13.934608 0.045048 -16.903297
v 13.872337 3.056240 -16.768644
v 18.860174 0.045048 -16.903297
v 18.911537 3.056243 -16.768642
v 18.922443 3.056243 -16.923393
v 14.413998 0.037657 -18.236280
v 14.373445 0.039927 -18.216505
v 14.373928 0.048217 -18.223850
v 14.396501 0.739325 -18.250942
v 14.420985 0.740795 -18.222094
v 14.419270 0.743754 -18.220894
v 14.419531 0.743125 -18.220894
v 14.421491 0.746682 -18.217695
v 14.421491 0.740827 -18.217695
v 14.378819 0.740585 -18.206032
v 14.398343 0.737410 -18.189613
v 14.380734 0.740056 -18.238602
v 14.405675 0.717019 -18.218443
v 14.395430 0.770065 -18.221638
v 14.412955 0.758974 -18.220894
v 14.378819 0.729037 -18.217695
v 14.397826 0.746625 -17.500444
v 14.369956 0.747439 -18.217905
v 14.369277 0.743754 -18.220894
v 14.371498 0.747700 -18.223850
v 14.371676 0.740827 -18.218369
v 14.373928 0.746682 -18.217695
v 14.376392 0.745276 -18.220894
v 14.415295 0.727125 -18.218405
v 15.199606 0.030333 -18.218952
v 15.198883 0.747677 -18.195574
v 15.200266 0.744743 -18.247269
v 15.183587 0.743754 -18.237175
v 15.220876 0.740795 -18.222048
v 15.219143 0.743754 -18.220894
v 15.219404 0.743125 -18.220894
v 15.221363 0.746682 -18.217695
v 15.221363 0.740827 -18.217695
v 15.215174 0.727141 -18.218487
v 15.194031 0.772470 -18.216675
v 15.212829 0.758974 -18.220894
v 15.212361 0.729245 -17.507116
v 15.173684 0.747848 -17.510180
v 15.178693 0.758472 -18.217695
v 15.169150 0.743754 -18.220894
v 15.171371 0.740827 -18.224731
v 15.171934 0.745324 -18.207548
v 15.173800 0.740585 -18.223850
v 15.176652 0.743754 -18.220894
v 15.181139 0.725993 -18.217583
v 15.198285 0.711165 -18.214655
v 15.173800 0.740827 -17.518511
v 16.013723 0.037743 -18.236712
v 15.973191 0.039926 -18.216505
v 15.973674 0.048217 -18.223850
v 15.980481 0.740056 -18.238602
v 15.996396 0.739265 -18.250921
v 15.969702 0.747439 -18.217905
v 15.969024 0.743754 -18.220894
v 15.971244 0.747700 -18.223850
v 15.971422 0.740827 -18.218369
v 15.973674 0.746682 -18.217695
v 15.976138 0.745276 -18.220894
v 15.978565 0.740585 -18.206032
v 15.990798 0.740523 -18.196360
v 16.018761 0.742225 -18.207691
v 16.002066 0.747509 -18.234667
v 15.989735 0.769494 -17.512571
v 15.978565 0.729037 -18.217695
v 16.003969 0.717281 -17.514366
v 16.019278 0.743754 -18.220253
v 16.021235 0.740827 -18.217695
v 16.020044 0.741275 -18.220894
v 16.021843 0.745217 -18.218433
v 16.021235 0.740585 -18.223850
v 16.021235 0.746682 -17.518511
v 16.773062 0.039928 -18.216505
v 16.813616 0.037657 -18.236280
v 16.796120 0.739326 -18.250942
v 16.780352 0.740056 -18.238600
v 16.820602 0.740795 -18.222094
v 16.818888 0.743754 -18.220894
v 16.819151 0.743120 -18.220894
v 16.821110 0.746682 -18.217695
v 16.821110 0.740827 -18.217695
v 16.797962 0.737410 -18.189613
v 16.769573 0.747438 -18.217905
v 16.768894 0.743754 -18.220894
v 16.771116 0.747700 -18.223850
v 16.771296 0.740827 -18.218369
v 16.773546 0.746682 -18.217695
v 16.776011 0.745276 -18.220894
v 16.773546 0.048217 -18.223850
v 16.778437 0.740585 -18.206032
v 16.795048 0.770065 -18.221638
v 16.812572 0.758974 -18.220894
v 16.814915 0.727127 -18.218407
v 16.805294 0.717019 -18.218441
v 16.778437 0.729037 -18.217695
v 16.797445 0.746624 -17.500443
v 17.599224 0.030333 -18.218952
v 17.599884 0.744742 -18.247269
v 17.620495 0.740795 -18.222048
v 17.618759 0.743754 -18.220894
v 17.619022 0.743120 -18.220894
v 17.620981 0.746682 -18.217695
v 17.620981 0.740827 -18.217695
v 17.598501 0.747677 -18.195576
v 17.583206 0.743754 -18.237175
v 17.593651 0.772469 -18.216673
v 17.612446 0.758974 -18.220894
v 17.614790 0.727141 -18.218487
v 17.580757 0.725994 -18.217583
v 17.597904 0.711166 -18.214655
v 17.568768 0.743754 -18.220894
v 17.570990 0.740827 -18.224731
v 17.571552 0.745323 -18.207546
v 17.573420 0.740585 -18.223850
v 17.576271 0.743754 -18.220894
v 17.611980 0.729245 -17.507116
v 17.573303 0.747848 -17.510181
v 17.578312 0.758472 -18.217695
v 17.573420 0.740827 -17.518511
v 18.399096 0.030333 -18.218952
v 18.383078 0.743754 -18.237175
v 18.399755 0.744742 -18.247269
v 18.398373 0.747676 -18.195576
v 18.420366 0.740795 -18.222048
v 18.418631 0.743754 -18.220894
v 18.418894 0.743120 -18.220894
v 18.420853 0.746682 -18.217695
v 18.420853 0.740827 -18.217695
v 18.414665 0.727141 -18.218487
v 18.393524 0.772469 -18.216673
v 18.412317 0.758974 -18.220894
v 18.373291 0.740827 -17.518511
v 18.373175 0.747848 -17.510181
v 18.411852 0.729245 -17.507116
v 18.378183 0.758472 -18.217695
v 18.368641 0.743754 -18.220894
v 18.370861 0.740827 -18.224731
v 18.371426 0.745324 -18.207546
v 18.373291 0.740585 -18.223850
v 18.376143 0.743754 -18.220894
v 18.380629 0.725994 -18.217583
v 18.397776 0.711166 -18.214655
v 19.207642 0.034232 -18.207195
v 19.173143 0.040146 -18.224836
v 19.195480 0.738408 -18.250793
v 19.178055 0.740585 -18.235754
v 19.188154 0.741600 -18.196398
v 19.182951 0.743754 -18.204611
v 19.219330 0.741221 -18.208498
v 19.175266 0.729609 -18.220814
v 19.170734 0.747700 -18.217937
v 19.168512 0.743754 -18.220894
v 19.173162 0.742424 -18.228323
v 19.173162 0.746682 -18.217695
v 19.175629 0.745276 -18.220894
v 19.220221 0.740795 -18.222094
v 19.218506 0.743754 -18.220894
v 19.218769 0.743120 -18.220894
v 19.220728 0.746682 -18.217695
v 19.220728 0.740827 -18.217695
v 19.187330 0.702564 -18.211582
v 19.196947 0.746570 -17.500452
v 19.194670 0.770065 -18.221638
v 19.214531 0.727124 -18.218403
v 19.212191 0.758974 -18.220894
v -20.000372 1.841721 -17.008638
v -20.793150 0.045048 -16.409246
v -20.000357 0.045048 -17.008617
v -20.095158 1.544287 -17.030298
v -20.698355 1.544287 -17.032671
v -20.693535 0.693847 -17.040884
vn 0.8527 -0.0000 -0.5224
vn 0.6637 -0.6504 -0.3695
vn 0.8530 -0.0000 -0.5219
vn -0.2599 -0.8340 0.4866
vn 0.6637 -0.6503 -0.3697
vn 0.4659 0.8847 -0.0182
vn 0.4659 0.8846 -0.0185
vn 0.4661 0.8846 -0.0188
vn 0.8528 -0.0000 -0.5222
vn 0.6635 -0.6505 -0.3695
vn 0.8534 -0.0000 -0.5213
vn -0.2597 -0.8333 0.4881
vn 0.8524 -0.0000 -0.5229
vn -0.2599 -0.8334 0.4878
vn -0.2797 -0.4696 0.8374
vn -0.3544 -0.8913 0.2828
vn 0.6787 -0.2873 0.6759
vn 0.1598 0.5301 0.8327
vn -0.0000 -0.1831 -0.9831
vn 0.0115 -0.1802 -0.9836
vn 0.0116 -0.1803 -0.9835
vn 0.0116 -0.1799 -0.9836
vn 0.8337 0.5522 -0.0047
vn 0.3680 -0.7898 -0.4907
vn -0.4558 -0.0038 0.8901
vn -0.5530 -0.7769 -0.3010
vn 0.1596 0.5298 0.8330
vn 0.0083 0.9997 0.0229
vn -0.6743 0.7384 0.0063
vn 0.0405 0.9836 -0.1757
vn 0.5492 0.8346 0.0438
vn 0.6091 0.5749 -0.5463
vn -0.6444 0.5496 -0.5316
vn 0.0035 0.9999 -0.0143
vn 0.6021 0.7966 0.0535
vn 0.6752 0.5752 -0.4617
vn -0.6225 0.7295 -0.2835
vn -0.3532 -0.8931 0.2786
vn 0.6787 -0.2873 0.6758
vn 0.1006 0.9709 -0.2175
vn -0.7246 0.5077 0.4660
vn 0.4434 0.7782 -0.4448
vn -0.6445 0.5493 -0.5319
vn 0.0405 0.9836 -0.1756
vn 0.5514 0.8331 0.0431
vn 0.6093 0.5747 -0.5464
vn -0.6441 0.5499 -0.5318
vn 0.0034 0.9999 -0.0143
vn 0.6027 0.7962 0.0534
vn 0.6751 0.5755 -0.4616
vn -0.6222 0.7298 -0.2833
vn -0.3486 -0.8943 0.2806
vn 0.0035 0.9999 -0.0144
vn 0.6030 0.7960 0.0528
vn 0.6751 0.5755 -0.4615
vn -0.6221 0.7299 -0.2833
vn 0.0395 0.9779 -0.2053
vn 0.4937 0.8544 -0.1619
vn 0.5966 0.5729 -0.5620
vn -0.5447 0.6775 -0.4943
vn -0.5449 0.6774 0.4942
vn 0.1977 0.3732 0.9064
vn 0.6519 0.7218 -0.2324
vn -0.0094 0.0376 -0.9993
vn -0.4736 -0.2377 -0.8480
vn 0.5338 0.5397 0.6510
vn 0.6615 0.5897 -0.4633
vn -0.0060 0.2907 -0.9568
vn -0.5451 0.6771 0.4944
vn -0.4734 -0.2376 -0.8482
vn -0.5449 0.6773 0.4944
vn 0.1977 0.3737 0.9062
vn 0.6515 0.7221 -0.2326
vn -0.0101 0.0383 -0.9992
vn -0.4738 -0.2375 -0.8480
vn 0.5336 0.5401 0.6508
vn 0.6611 0.5901 -0.4635
vn 0.5339 0.5404 0.6503
vn 0.6610 0.5900 -0.4637
vn -0.0060 0.2908 -0.9568
vn 0.1170 0.9877 -0.1037
vn 0.7231 0.6472 -0.2414
vn -0.0118 0.0388 -0.9992
vn 0.9085 -0.4055 -0.1011
vn 0.7767 -0.2913 0.5585
vn -0.6641 -0.7468 0.0359
vn 0.2281 -0.9731 -0.0310
vn 0.9088 -0.4057 -0.0977
vn 0.9088 -0.4057 -0.0976
vn -0.3179 -0.9480 -0.0146
vn 0.0007 -0.9995 -0.0303
vn -0.0673 -0.9976 -0.0142
vn 0.2167 -0.9754 -0.0415
vn 0.9087 -0.4053 -0.1004
vn 0.9087 -0.4052 -0.1004
vn 0.7770 -0.2916 0.5579
vn -0.6641 -0.7468 0.0362
vn 0.2283 -0.9731 -0.0308
vn 0.9087 -0.4056 -0.0988
vn 0.9088 -0.4056 -0.0983
vn 0.9084 -0.4055 -0.1017
vn 0.9084 -0.4055 -0.1018
vn 0.9084 -0.4056 -0.1018
vn -0.3801 0.4740 -0.7942
vn 0.1997 0.0208 0.9796
vn -0.8485 -0.2474 0.4678
vn -0.8198 -0.2414 0.5193
vn -0.3798 0.4744 -0.7942
vn -0.3797 0.4743 -0.7942
vn -0.9976 -0.0027 -0.0685
vn -0.9339 0.3561 0.0311
vn 0.9761 -0.2147 0.0339
vn 0.9072 0.4196 0.0300
vn -0.9937 0.1116 0.0034
vn 0.9772 -0.2120 0.0089
vn 0.9179 0.3962 0.0214
vn -0.9976 -0.0027 -0.0688
vn -0.9337 0.3579 0.0097
vn -0.9342 0.3555 0.0312
vn -0.9938 0.1113 0.0034
vn 0.9179 0.3962 0.0213
vn -0.9937 0.1117 0.0034
vn 0.9772 -0.2119 0.0089
vn 0.0023 0.0123 0.9999
vn -0.9744 0.2225 0.0323
vn -0.9960 -0.0827 0.0330
vn 0.9761 -0.2147 0.0341
vn 0.9072 0.4196 0.0301
vn -0.6743 0.7385 0.0063
vn 0.0084 0.9997 0.0229
vn -0.6742 0.7385 0.0063
vn -0.0001 -1.0000 0.0005
vn -0.0001 -1.0000 0.0002
vn -0.0000 -0.0000 -0.0000
vn -0.0000 -1.0000 -0.0000
vn 1.0000 0.0059 -0.0000
vn -0.0000 1.0000 -0.0000
vn -1.0000 -0.0000 -0.0000
vn 0.9997 -0.0176 0.0156
vn -0.0000 -0.6585 0.7526
vn 0.9994 -0.0176 0.0312
vn 1.0000 -0.0000 -0.0000
vn 0.9998 0.0098 -0.0156
vn 0.9998 0.0117 -0.0156
vn -0.0000 0.6000 -0.8000
vn -0.0000 -0.1758 -0.9844
vn -0.0000 -0.1644 -0.9864
vn -0.0000 -0.1694 -0.9855
vn -0.0000 -0.2195 -0.9756
vn -0.0000 -0.2040 -0.9790
vn -0.0000 -0.2234 -0.9747
vn -0.0096 -1.0000 -0.0000
vn -0.0083 -1.0000 -0.0000
vn -0.9917 -0.0349 -0.1240
vn -0.0000 -0.2800 -0.9600
vn 0.0088 -1.0000 -0.0000
vn 0.0089 -1.0000 -0.0000
vn -0.9916 -0.0368 0.1240
vn -0.9952 -0.0292 0.0933
vn -0.0000 -0.3060 0.9520
vn 0.0468 0.0039 -0.9989
vn 0.0312 0.0039 -0.9995
vn 0.0312 0.0020 -0.9995
vn -0.0000 -0.1843 0.9829
vn -0.0000 -0.1724 0.9850
vn -0.0000 -0.2040 0.9790
vn 0.2890 -0.9573 -0.0000
vn 0.2841 -0.9588 -0.0000
vn 0.3011 -0.9536 -0.0000
vn -0.8944 0.4472 -0.0000
vn -0.0559 0.9760 -0.2103
vn -0.0532 0.9724 -0.2271
vn -0.0543 0.9833 -0.1738
vn -0.0000 -0.0000 1.0000
vn 0.0068 1.0000 -0.0000
vn 0.0057 1.0000 -0.0000
vn 0.0375 -0.0000 -0.9993
vn 0.0208 -0.0000 -0.9998
vn 0.0733 0.2933 -0.9532
vn 0.0507 0.4056 -0.9126
vn -0.6965 0.3980 -0.5970
vn -0.6155 0.4924 -0.6155
vn -0.4472 0.7155 -0.5367
vn -0.0000 0.8944 -0.4472
vn -0.0000 0.9701 -0.2425
vn 0.4472 -0.0000 0.8944
vn 0.7071 -0.0000 0.7071
vn 0.0176 0.0156 -0.9997
vn -0.0000 0.9989 -0.0465
vn -0.0000 0.9991 -0.0430
vn 0.1725 0.0849 -0.9813
vn 0.1864 0.0845 -0.9788
vn -0.0312 0.0156 -0.9994
vn -0.7071 0.7071 -0.0000
vn -0.0156 0.0156 -0.9998
vn -0.0000 0.9906 -0.1366
vn -0.0000 0.9920 -0.1260
vn 0.3487 0.9372 -0.0000
vn 0.5970 0.8022 -0.0000
vn 0.3269 0.9450 -0.0000
vn 0.9922 0.0155 0.1240
vn 0.9918 0.0310 0.1240
vn 0.9970 -0.0467 0.0623
vn -0.0000 -0.7071 0.7071
vn 0.9961 -0.0623 0.0623
vn 0.1871 -0.8136 0.5504
vn 0.7143 -0.6952 -0.0807
vn 0.1505 -0.0197 0.9884
vn -0.3542 -0.2956 -0.8872
vn -0.2947 0.0066 -0.9556
vn -0.9247 0.0014 0.3806
vn -0.0740 -0.0286 -0.9968
vn -0.7938 -0.0396 -0.6069
vn 0.0898 -0.0186 -0.9958
vn -0.0000 0.9997 0.0260
vn 0.0112 0.9786 0.2053
vn -0.0446 0.9985 0.0326
vn 0.2254 -0.0957 -0.9695
vn 0.0746 -0.0711 -0.9947
vn 0.7228 -0.5508 -0.4174
vn 0.8329 -0.0559 0.5506
vn 0.8329 -0.0559 0.5507
vn -0.3257 0.2150 -0.9207
vn -0.2854 -0.2261 -0.9314
vn -0.7338 0.6789 0.0245
vn -0.5884 0.6590 0.4685
vn -0.0260 0.9935 -0.1106
vn -0.4426 -0.0343 -0.8961
vn -0.2989 -0.8687 -0.3951
vn -0.9985 -0.0366 -0.0415
vn 0.0782 -0.0396 -0.9962
vn 0.1275 -0.1661 -0.9778
vn 0.0670 -0.1494 -0.9865
vn 0.5685 -0.5523 -0.6097
vn 0.0239 -0.9990 -0.0366
vn 0.0126 -0.0362 -0.9993
vn -0.2862 -0.9582 -0.0055
vn 0.7742 0.6320 -0.0340
vn -0.9235 0.3835 -0.0008
vn -0.7601 -0.6488 0.0364
vn 0.2077 -0.8056 0.5549
vn 0.6844 -0.6664 -0.2958
vn 0.7745 -0.0289 0.6319
vn -0.3622 -0.2958 -0.8839
vn -0.3042 0.0066 -0.9526
vn -0.9248 0.0014 0.3806
vn 0.8328 -0.0553 0.5508
vn 0.8328 -0.0552 0.5508
vn -0.0196 0.9861 -0.1653
vn -0.7924 -0.0391 -0.6087
vn 0.0721 -0.0184 -0.9972
vn 0.9641 -0.0054 -0.2656
vn -0.0348 0.9864 0.1608
vn -0.9639 -0.2640 0.0357
vn -0.2852 -0.2260 -0.9314
vn 0.0399 0.9988 -0.0297
vn -0.0477 0.9984 -0.0312
vn 0.0298 0.9991 -0.0299
vn -0.1223 -0.0253 0.9922
vn 0.0563 0.9575 0.2828
vn -0.2977 -0.9538 -0.0392
vn 0.1376 0.9901 -0.0278
vn 0.9904 -0.1290 0.0495
vn -0.7938 -0.0396 -0.6068
vn 0.0899 -0.0186 -0.9958
vn -0.0000 0.9997 0.0261
vn 0.8328 -0.0562 0.5508
vn 0.8327 -0.0562 0.5508
vn 0.0152 0.9786 0.2051
vn -0.0446 0.9985 0.0324
vn 0.2257 -0.0958 -0.9695
vn 0.0745 -0.0712 -0.9947
vn 0.7226 -0.5511 -0.4174
vn 0.7143 -0.6951 -0.0807
vn -0.3541 -0.2956 -0.8873
vn -0.3256 0.2149 -0.9208
vn -0.9248 0.0014 0.3805
vn -0.7336 0.6791 0.0245
vn 0.1871 -0.8138 0.5503
vn -0.4427 -0.0339 -0.8960
vn -0.0238 0.9935 -0.1115
vn 0.1270 -0.1662 -0.9779
vn 0.0671 -0.1492 -0.9865
vn 0.5684 -0.5523 -0.6098
vn -0.3000 -0.8684 -0.3948
vn 0.0783 -0.0397 -0.9961
vn 0.7739 0.6324 -0.0340
vn -0.2979 -0.8691 -0.3948
vn 0.0785 -0.0398 -0.9961
vn -0.4424 -0.0338 -0.8962
vn -0.0238 0.9935 -0.1116
vn 0.1270 -0.1663 -0.9779
vn 0.5683 -0.5524 -0.6098
vn 0.0237 -0.9991 -0.0365
vn 0.7742 0.6321 -0.0340
vn -0.9249 0.0006 -0.3801
vn -0.8282 -0.0029 -0.5605
vn 0.0705 -0.0250 -0.9972
vn -0.0000 0.9961 -0.0883
vn -0.2917 0.8974 0.3309
vn 0.0250 0.9710 0.2379
vn -0.3164 -0.0232 0.9483
vn -0.7815 -0.0310 0.6232
vn 0.0638 -0.0251 0.9976
vn 0.8566 -0.0132 0.5158
vn 0.1139 0.9746 0.1929
vn -0.3211 -0.9470 0.0015
vn -0.9460 -0.3225 0.0327
vn 0.0576 -0.1568 -0.9860
vn -0.4589 0.1368 -0.8779
vn -0.0445 0.9985 0.0327
vn 0.0819 -0.1974 -0.9769
vn 0.1657 -0.2313 -0.9587
vn 0.5531 -0.5674 -0.6100
vn 0.8208 0.5625 -0.0997
vn 0.8618 0.3569 0.3605
vn 0.8617 0.3569 0.3606
vn 0.7576 0.3132 0.5727
vn 0.1366 -0.6394 0.7567
vn -0.8728 0.2902 0.3924
vn -0.1802 0.8416 -0.5091
vn 0.8199 0.5646 -0.0947
vn 0.8578 0.3594 0.3674
vn 0.7637 0.3220 0.5595
vn 0.1870 0.9488 -0.2545
vn -0.7549 0.0713 0.6520
vn -0.0000 -0.6825 0.7309
vn 0.1366 -0.6395 0.7565
vn -0.8727 0.2907 0.3923
vn -0.1801 0.8420 -0.5085
vn 0.9241 0.2006 0.3252
vn 0.8935 0.3482 -0.2836
vn 0.8729 -0.4733 0.1183
vn 0.8729 -0.4734 0.1184
vn 0.8205 0.5631 -0.0990
vn 0.8635 0.3661 0.3469
vn 0.8635 0.3662 0.3469
vn 0.7578 0.3083 0.5751
vn 0.1366 -0.6395 0.7566
vn -0.8726 0.2904 0.3926
vn -0.1798 0.8417 -0.5091
vn 0.8192 0.5655 -0.0956
vn 0.8543 0.3545 0.3800
vn 0.7573 0.3190 0.5699
vn 0.1867 0.9485 -0.2558
vn -0.7549 0.0713 0.6519
vn -0.0000 -0.6824 0.7310
vn 0.8191 0.5656 -0.0960
vn 0.8544 0.3545 0.3800
vn 0.7582 0.3194 0.5685
vn 0.1867 0.9489 -0.2546
vn 0.3118 -0.8820 0.3532
vn -0.7881 0.0149 -0.6154
vn 0.1799 0.1988 -0.9634
vn 0.8208 0.5625 -0.0991
vn 0.8629 0.3575 0.3572
vn 0.8629 0.3575 0.3571
vn 0.9222 0.3866 0.0141
vn 0.0120 -0.1801 -0.9836
vn 0.0120 -0.1803 -0.9835
vn -0.0000 -0.1833 -0.9831
vn 0.8626 -0.5059 0.0042
vn -0.6582 -0.0454 -0.7515
vn -0.3243 0.8248 -0.4632
vn -0.1424 -0.9344 -0.3266
vn -0.3150 0.8301 -0.4602
vn -0.3245 0.8247 -0.4633
vn -0.1427 -0.9342 -0.3271
vn -0.1425 -0.9342 -0.3269
vn -0.2870 0.8432 -0.4546
vn -0.2296 0.8677 0.4409
vn 0.6557 0.2721 -0.7043
vn -0.1206 -0.2094 -0.9704
vn -0.3685 0.8013 0.4712
vn 0.6366 0.1771 -0.7506
vn -0.4614 0.3855 -0.7991
vn -0.4552 -0.1243 -0.8817
vn -0.4400 -0.2363 -0.8664
vn -0.2294 0.8681 0.4403
vn -0.2294 0.8681 0.4402
vn -0.2295 0.8681 0.4402
vn 0.6560 0.2715 -0.7043
vn -0.1205 -0.2093 -0.9704
vn 0.6562 0.2719 -0.7039
vn 0.6562 0.2720 -0.7038
vn -0.6063 0.5858 0.5379
vn 0.6555 0.2715 -0.7047
vn -0.6446 -0.0065 0.7645
vn 0.4179 -0.3947 -0.8183
vn 0.0313 -0.2638 -0.9641
vn -0.6206 -0.0070 0.7841
vn -0.6445 -0.0065 0.7646
vn 0.4169 -0.3948 -0.8187
vn 0.0313 -0.2642 -0.9640
vn 0.0316 -0.2644 -0.9639
vn -0.0108 -0.2560 -0.9666
vn -0.6047 0.4446 -0.6608
vn -0.5333 0.4948 -0.6861
vn -0.3800 0.7027 -0.6015
vn -0.6045 0.4445 -0.6611
vn -0.5335 0.4952 -0.6857
vn -0.5337 0.4948 -0.6858
vn -0.6043 0.4443 -0.6613
vn 0.8292 -0.0185 0.5586
vn -0.9996 -0.0035 0.0283
vn 0.7754 -0.0199 0.6311
vn 0.0417 -0.0329 0.9986
vn -0.9998 -0.0196 0.0026
vn -0.9996 -0.0035 0.0278
vn 0.8290 -0.0184 0.5589
vn 0.7747 -0.0195 0.6320
vn 0.0414 -0.0324 0.9986
vn 0.7748 -0.0195 0.6320
vn 0.0415 -0.0324 0.9986
vn 0.9987 -0.0166 -0.0477
vn 0.6157 -0.0220 0.7877
vn 0.7622 0.0055 -0.6473
vn 0.0460 0.0001 -0.9989
vn 0.0460 -0.0000 -0.9989
vn -0.9124 -0.0446 -0.4068
vn -0.8684 -0.3227 -0.3764
vn -0.6702 0.3336 -0.6630
vn -0.8556 -0.5164 0.0353
vn 0.6020 -0.0146 0.7983
vn 0.7720 -0.0259 -0.6350
vn -0.5911 0.7663 -0.2517
vn -0.1309 0.0001 -0.9914
vn -0.1309 -0.0000 -0.9914
vn -0.9946 -0.0873 0.0554
vn -0.8316 -0.5540 0.0391
vn -0.9124 -0.0443 -0.4069
vn -0.8683 -0.3229 -0.3765
vn 0.7843 0.0293 -0.6197
vn -0.7165 -0.3733 0.5893
vn -0.6700 0.3335 -0.6632
vn -0.8556 -0.5171 0.0223
vn 0.5857 0.8105 -0.0068
vn 0.9116 -0.1886 -0.3651
vn 0.9116 -0.1886 -0.3652
vn 0.6178 -0.0221 0.7860
vn 0.7623 0.0055 -0.6472
vn -0.9125 -0.0446 -0.4067
vn -0.8683 -0.3230 -0.3765
vn 0.0464 0.0001 -0.9989
vn 0.0464 -0.0000 -0.9989
vn -0.6708 0.3337 -0.6623
vn -0.8559 -0.5159 0.0353
vn 0.7718 -0.0258 -0.6353
vn -0.5909 0.7665 -0.2517
vn -0.1306 -0.0000 -0.9914
vn -0.9946 -0.0877 0.0554
vn -0.8316 -0.5541 0.0391
vn 0.7718 -0.0258 -0.6354
vn -0.1315 0.0001 -0.9913
vn -0.1315 0.0002 -0.9913
vn -0.9947 -0.0866 0.0555
vn 0.7811 0.0268 -0.6238
vn 0.6412 0.0047 0.7674
vn 0.7582 -0.0272 -0.6514
vn 0.0471 0.9270 -0.3721
vn 0.9139 0.1700 -0.3688
vn -0.1812 0.0003 -0.9834
vn -0.1813 0.0001 -0.9834
vt 0.985353 0.580978
vt 0.985331 0.581003
vt 0.985331 0.580962
vt 0.436814 0.997002
vt 0.436823 0.996972
vt 0.436807 0.996965
vt 0.985353 0.563060
vt 0.985331 0.563084
vt 0.985331 0.563044
vt 0.239871 0.997302
vt 0.239902 0.997298
vt 0.239903 0.997280
vt 0.428731 0.997002
vt 0.428740 0.996972
vt 0.428724 0.996965
vt 0.985373 0.589920
vt 0.985353 0.589924
vt 0.985274 0.589927
vt 0.985353 0.572019
vt 0.985331 0.572044
vt 0.985331 0.572003
vt 0.432772 0.997002
vt 0.432782 0.996972
vt 0.432765 0.996965
vt 0.985353 0.598896
vt 0.985330 0.598921
vt 0.985330 0.598880
vt 0.244184 0.997302
vt 0.244214 0.997298
vt 0.244215 0.997280
vt 0.985353 0.545141
vt 0.985331 0.545166
vt 0.985331 0.545125
vt 0.248496 0.997302
vt 0.248526 0.997298
vt 0.248527 0.997280
vt 0.252778 0.997273
vt 0.252797 0.997298
vt 0.252791 0.997261
vt 0.985353 0.554101
vt 0.985331 0.554125
vt 0.985331 0.554085
vt 0.985362 0.628486
vt 0.985368 0.628406
vt 0.985379 0.628522
vt 0.261396 0.997239
vt 0.261518 0.997270
vt 0.261371 0.997285
vt 0.270000 0.997239
vt 0.270122 0.997270
vt 0.269975 0.997285
vt 0.265821 0.997270
vt 0.265698 0.997239
vt 0.265886 0.997160
vt 0.980523 0.589961
vt 0.985331 0.589921
vt 0.985349 0.589942
vt 0.985376 0.632752
vt 0.980639 0.632638
vt 0.985363 0.632637
vt 0.985379 0.620058
vt 0.980550 0.620170
vt 0.980549 0.620141
vt 0.985470 0.580970
vt 0.985353 0.580982
vt 0.985361 0.580962
vt 0.372405 0.996959
vt 0.372387 0.997118
vt 0.372389 0.996973
vt 0.985470 0.563052
vt 0.985353 0.563064
vt 0.985361 0.563043
vt 0.240014 0.997253
vt 0.239794 0.997248
vt 0.985362 0.620019
vt 0.985368 0.619938
vt 0.985379 0.620055
vt 0.343128 0.997208
vt 0.343342 0.997205
vt 0.343336 0.997233
vt 0.364361 0.996959
vt 0.364343 0.997118
vt 0.364345 0.996973
vt 0.985470 0.572011
vt 0.985353 0.572023
vt 0.985361 0.572003
vt 0.368383 0.996959
vt 0.368365 0.997118
vt 0.368367 0.996973
vt 0.985470 0.598888
vt 0.985353 0.598901
vt 0.985361 0.598880
vt 0.244326 0.997253
vt 0.244106 0.997248
vt 0.985362 0.624252
vt 0.985368 0.624171
vt 0.985379 0.624289
vt 0.985470 0.545134
vt 0.985353 0.545146
vt 0.985361 0.545125
vt 0.248638 0.997253
vt 0.248419 0.997248
vt 0.985470 0.554093
vt 0.985353 0.554105
vt 0.985361 0.554084
vt 0.376429 0.996959
vt 0.376405 0.997090
vt 0.376405 0.996968
vt 0.380430 0.996999
vt 0.380453 0.997130
vt 0.380429 0.997121
vt 0.408616 0.997061
vt 0.408594 0.996959
vt 0.408616 0.996972
vt 0.334563 0.997246
vt 0.334672 0.997279
vt 0.334530 0.997279
vt 0.424705 0.997061
vt 0.424683 0.996959
vt 0.424705 0.996972
vt 0.384453 0.996999
vt 0.384477 0.997130
vt 0.384453 0.997121
vt 0.257103 0.997251
vt 0.257212 0.997282
vt 0.257071 0.997286
vt 0.388477 0.996999
vt 0.388501 0.997130
vt 0.388477 0.997121
vt 0.412638 0.997061
vt 0.412616 0.996959
vt 0.412638 0.996972
vt 0.338861 0.997246
vt 0.338970 0.997279
vt 0.338828 0.997279
vt 0.416661 0.997061
vt 0.416638 0.996959
vt 0.416661 0.996972
vt 0.404594 0.997061
vt 0.404572 0.996959
vt 0.404594 0.996972
vt 0.360290 0.997117
vt 0.360339 0.996975
vt 0.360339 0.997152
vt 0.420683 0.997061
vt 0.420661 0.996959
vt 0.420683 0.996972
vt 0.985332 0.580869
vt 0.980523 0.692273
vt 0.985335 0.692112
vt 0.985348 0.692280
vt 0.985332 0.562951
vt 0.985346 0.589833
vt 0.980523 0.696527
vt 0.985335 0.696366
vt 0.985346 0.696532
vt 0.985332 0.571910
vt 0.980523 0.688019
vt 0.985335 0.687858
vt 0.985348 0.688026
vt 0.985332 0.598787
vt 0.985332 0.545032
vt 0.985332 0.553992
vt 0.400572 0.997127
vt 0.400551 0.996996
vt 0.400572 0.996959
vt 0.980507 0.590040
vt 0.980519 0.589866
vt 0.392525 0.997127
vt 0.392503 0.996996
vt 0.392525 0.996959
vt 0.396548 0.997127
vt 0.396527 0.996996
vt 0.396548 0.996959
vt 0.980549 0.611589
vt 0.985363 0.611552
vt 0.985371 0.611589
vt 0.985346 0.738869
vt 0.980523 0.738887
vt 0.980518 0.738846
vt 0.980513 0.580981
vt 0.980619 0.620050
vt 0.980501 0.620019
vt 0.980517 0.563022
vt 0.980549 0.607356
vt 0.985363 0.607318
vt 0.985371 0.607355
vt 0.985348 0.747395
vt 0.980523 0.747354
vt 0.980518 0.747313
vt 0.980549 0.615823
vt 0.985363 0.615785
vt 0.985371 0.615822
vt 0.985346 0.751569
vt 0.980523 0.751587
vt 0.980518 0.751547
vt 0.980513 0.572022
vt 0.980619 0.624283
vt 0.980501 0.624252
vt 0.980517 0.598858
vt 0.980619 0.628517
vt 0.980501 0.628486
vt 0.980517 0.545103
vt 0.985398 0.603107
vt 0.980574 0.603125
vt 0.980501 0.603096
vt 0.980513 0.554104
vt 0.985379 0.624292
vt 0.980549 0.624404
vt 0.980549 0.624375
vt 0.985379 0.628525
vt 0.980550 0.628637
vt 0.980549 0.628608
vt 0.153934 0.305888
vt 0.002000 0.002008
vt 0.305866 0.002014
vt 0.309881 0.305881
vt 0.309882 0.002010
vt 0.613741 0.153944
vt 0.326846 0.545772
vt 0.413553 0.309899
vt 0.500280 0.545769
vt 0.175446 0.309919
vt 0.088725 0.545792
vt 0.002011 0.309922
vt 0.717258 0.544237
vt 0.710853 0.774548
vt 0.704452 0.544224
vt 0.727724 0.540203
vt 0.721325 0.309881
vt 0.734124 0.309881
vt 0.508858 0.717661
vt 0.502453 0.549789
vt 0.515255 0.549789
vt 0.793169 0.309895
vt 0.786770 0.477602
vt 0.780370 0.309899
vt 0.761365 0.309896
vt 0.767760 0.540215
vt 0.754960 0.540215
vt 0.196312 0.540222
vt 0.202711 0.309903
vt 0.209111 0.540228
vt 0.158082 0.717683
vt 0.151677 0.549810
vt 0.164479 0.549810
vt 0.793169 0.481618
vt 0.786770 0.649325
vt 0.780370 0.481622
vt 0.683630 0.544237
vt 0.677224 0.774548
vt 0.670824 0.544224
vt 0.219547 0.540225
vt 0.213147 0.309903
vt 0.225947 0.309903
vt 0.793122 0.002014
vt 0.786723 0.169721
vt 0.780323 0.002018
vt 0.609875 0.717661
vt 0.603470 0.549789
vt 0.616272 0.549789
vt 0.767766 0.544237
vt 0.761360 0.774548
vt 0.754960 0.544224
vt 0.236383 0.540225
vt 0.229983 0.309903
vt 0.242783 0.309903
vt 0.643547 0.717661
vt 0.637142 0.549789
vt 0.649944 0.549789
vt 0.810005 0.653341
vt 0.803606 0.821047
vt 0.797206 0.653344
vt 0.242775 0.544259
vt 0.236369 0.774570
vt 0.229969 0.544246
vt 0.253220 0.540225
vt 0.246819 0.309903
vt 0.259619 0.309903
vt 0.593040 0.717661
vt 0.586634 0.549789
vt 0.599436 0.549789
vt 0.809958 0.002014
vt 0.803558 0.169721
vt 0.797159 0.002018
vt 0.744542 0.309889
vt 0.750946 0.540215
vt 0.738146 0.540215
vt 0.263656 0.540222
vt 0.270055 0.309903
vt 0.276455 0.540228
vt 0.576203 0.717661
vt 0.569797 0.549789
vt 0.582600 0.549789
vt 0.810005 0.309895
vt 0.803605 0.477602
vt 0.797206 0.309899
vt 0.225939 0.544259
vt 0.219533 0.774570
vt 0.213133 0.544246
vt 0.677217 0.540203
vt 0.670816 0.309881
vt 0.683616 0.309881
vt 0.793169 0.653341
vt 0.786769 0.821047
vt 0.780370 0.653344
vt 0.559367 0.717661
vt 0.552961 0.549789
vt 0.565763 0.549789
vt 0.660413 0.544230
vt 0.666809 0.774548
vt 0.654010 0.774548
vt 0.687653 0.540200
vt 0.694052 0.309881
vt 0.700452 0.540206
vt 0.482916 0.717661
vt 0.476510 0.549788
vt 0.489312 0.549788
vt 0.826794 0.002014
vt 0.820394 0.169721
vt 0.813995 0.002018
vt 0.202716 0.544245
vt 0.209119 0.774570
vt 0.196319 0.774570
vt 0.179476 0.540222
vt 0.185874 0.309903
vt 0.192275 0.540228
vt 0.048486 0.825063
vt 0.042087 0.992770
vt 0.035687 0.825067
vt 0.542530 0.717661
vt 0.536125 0.549789
vt 0.548927 0.549789
vt 0.700444 0.544237
vt 0.694039 0.774548
vt 0.687638 0.544224
vt 0.286891 0.540225
vt 0.280492 0.309903
vt 0.293292 0.309903
vt 0.810005 0.481618
vt 0.803606 0.649325
vt 0.797206 0.481622
vt 0.525694 0.717661
vt 0.519289 0.549789
vt 0.532091 0.549789
vt 0.744549 0.544230
vt 0.750946 0.774548
vt 0.738146 0.774548
vt 0.704489 0.540200
vt 0.710888 0.309881
vt 0.717288 0.540206
vt 0.014814 0.825063
vt 0.008414 0.992770
vt 0.002015 0.825067
vt 0.316299 0.785634
vt 0.309893 0.617762
vt 0.322695 0.617762
vt 0.727735 0.544230
vt 0.734132 0.774548
vt 0.721332 0.774548
vt 0.653981 0.540200
vt 0.660380 0.309881
vt 0.666780 0.540206
vt 0.626712 0.717661
vt 0.620306 0.549789
vt 0.633108 0.549789
vt 0.031650 0.825063
vt 0.025250 0.992770
vt 0.018851 0.825067
vt 0.435635 0.825062
vt 0.436143 0.970741
vt 0.435133 0.970741
vt 0.551551 0.825062
vt 0.552051 0.970740
vt 0.551049 0.970739
vt 0.440677 0.825062
vt 0.441184 0.970741
vt 0.440174 0.970741
vt 0.626831 0.825062
vt 0.627332 0.970740
vt 0.626329 0.970739
vt 0.445718 0.825062
vt 0.446224 0.970741
vt 0.445215 0.970741
vt 0.606756 0.825062
vt 0.607257 0.970740
vt 0.606255 0.970739
vt 0.450758 0.825062
vt 0.451265 0.970741
vt 0.450256 0.970741
vt 0.611775 0.825062
vt 0.612276 0.970740
vt 0.611273 0.970739
vt 0.641887 0.825062
vt 0.642388 0.970740
vt 0.641385 0.970739
vt 0.541492 0.825062
vt 0.541999 0.970741
vt 0.540989 0.970741
vt 0.521329 0.825062
vt 0.521836 0.970741
vt 0.520826 0.970741
vt 0.646906 0.825062
vt 0.647406 0.970740
vt 0.646404 0.970739
vt 0.571626 0.825062
vt 0.572126 0.970740
vt 0.571124 0.970739
vt 0.455799 0.825062
vt 0.456306 0.970741
vt 0.455296 0.970741
vt 0.556569 0.825062
vt 0.557070 0.970740
vt 0.556068 0.970739
vt 0.460840 0.825062
vt 0.461347 0.970741
vt 0.460337 0.970741
vt 0.576644 0.825062
vt 0.577145 0.970740
vt 0.576143 0.970739
vt 0.465880 0.825062
vt 0.466388 0.970741
vt 0.465378 0.970741
vt 0.470921 0.825062
vt 0.471428 0.970741
vt 0.470419 0.970741
vt 0.561588 0.825062
vt 0.562089 0.970740
vt 0.561087 0.970739
vt 0.616794 0.825062
vt 0.617294 0.970740
vt 0.616292 0.970739
vt 0.475962 0.825062
vt 0.476469 0.970741
vt 0.475459 0.970741
vt 0.581663 0.825062
vt 0.582163 0.970740
vt 0.581161 0.970739
vt 0.531410 0.825062
vt 0.531917 0.970741
vt 0.530908 0.970741
vt 0.621812 0.825062
vt 0.622313 0.970740
vt 0.621311 0.970739
vt 0.481003 0.825062
vt 0.481510 0.970741
vt 0.480500 0.970741
vt 0.601737 0.825062
vt 0.602238 0.970740
vt 0.601236 0.970739
vt 0.486044 0.825062
vt 0.486551 0.970741
vt 0.485541 0.970741
vt 0.596719 0.825062
vt 0.597219 0.970740
vt 0.596217 0.970739
vt 0.491084 0.825062
vt 0.491591 0.970741
vt 0.490582 0.970741
vt 0.651924 0.825062
vt 0.652425 0.970740
vt 0.651423 0.970739
vt 0.536451 0.825062
vt 0.536958 0.970741
vt 0.535949 0.970741
vt 0.631850 0.825062
vt 0.632350 0.970740
vt 0.631348 0.970739
vt 0.496124 0.825062
vt 0.496632 0.970741
vt 0.495622 0.970741
vt 0.566607 0.825062
vt 0.567107 0.970740
vt 0.566105 0.970739
vt 0.501166 0.825062
vt 0.501673 0.970741
vt 0.500663 0.970741
vt 0.586681 0.825062
vt 0.587182 0.970740
vt 0.586179 0.970739
vt 0.506207 0.825062
vt 0.506714 0.970741
vt 0.505704 0.970741
vt 0.511247 0.825062
vt 0.511754 0.970741
vt 0.510745 0.970741
vt 0.636868 0.825062
vt 0.637369 0.970740
vt 0.636366 0.970739
vt 0.591700 0.825062
vt 0.592201 0.970740
vt 0.591199 0.970739
vt 0.526370 0.825062
vt 0.526877 0.970741
vt 0.525867 0.970741
vt 0.516288 0.825062
vt 0.516795 0.970741
vt 0.515786 0.970741
vt 0.546532 0.825062
vt 0.547033 0.970740
vt 0.546030 0.970739
vt 0.381487 0.825060
vt 0.325998 0.977681
vt 0.270496 0.825065
vt 0.155488 0.977684
vt 0.210978 0.825063
vt 0.266478 0.977679
vt 0.969567 0.119271
vt 0.830835 0.101937
vt 0.969566 0.084602
vt 0.969567 0.080593
vt 0.830835 0.063259
vt 0.969566 0.045923
vt 0.830830 0.457892
vt 0.830828 0.457097
vt 0.851614 0.457530
vt 0.830838 0.486758
vt 0.830838 0.485961
vt 0.851616 0.486394
vt 0.830838 0.506006
vt 0.830830 0.505204
vt 0.851609 0.505641
vt 0.830831 0.438650
vt 0.830831 0.437855
vt 0.851610 0.438291
vt 0.830834 0.195437
vt 0.893245 0.199591
vt 0.830832 0.203743
vt 0.830833 0.187271
vt 0.893246 0.183120
vt 0.893245 0.191425
vt 0.830832 0.375035
vt 0.858553 0.371232
vt 0.858554 0.378836
vt 0.830832 0.386652
vt 0.858553 0.382849
vt 0.858554 0.390453
vt 0.830833 0.404547
vt 0.856472 0.408349
vt 0.830832 0.412151
vt 0.830832 0.419965
vt 0.856472 0.416163
vt 0.856471 0.423767
vt 0.830837 0.312276
vt 0.865457 0.304657
vt 0.865457 0.319900
vt 0.865488 0.300635
vt 0.830835 0.293012
vt 0.865491 0.285393
vt 0.980521 0.405471
vt 0.991584 0.408231
vt 0.980517 0.410990
vt 0.980519 0.417754
vt 0.991586 0.414996
vt 0.991582 0.420515
vt 0.830826 0.545020
vt 0.846762 0.552980
vt 0.830832 0.560952
vt 0.846759 0.564972
vt 0.838798 0.580907
vt 0.830826 0.564978
vt 0.987090 0.019198
vt 0.993671 0.032349
vt 0.980517 0.032353
vt 0.993671 0.049532
vt 0.980517 0.049536
vt 0.987090 0.036381
vt 0.838793 0.664767
vt 0.846764 0.680696
vt 0.830832 0.680702
vt 0.830832 0.540993
vt 0.830826 0.525061
vt 0.846762 0.533022
vt 0.830833 0.982525
vt 0.837406 0.969370
vt 0.843987 0.982522
vt 0.843982 0.952185
vt 0.837410 0.965341
vt 0.830829 0.952189
vt 0.838798 0.640783
vt 0.830826 0.624853
vt 0.846759 0.624847
vt 0.838793 0.584933
vt 0.846764 0.600863
vt 0.830832 0.600869
vt 0.987090 0.053564
vt 0.993671 0.066715
vt 0.980517 0.066719
vt 0.980513 0.002017
vt 0.993667 0.002013
vt 0.987094 0.015168
vt 0.830829 0.652777
vt 0.846759 0.644806
vt 0.846764 0.660738
vt 0.830829 0.612861
vt 0.846759 0.604889
vt 0.846764 0.620821
vt 0.830831 0.941583
vt 0.843982 0.935001
vt 0.843987 0.948156
vt 0.980514 0.070749
vt 0.993667 0.070745
vt 0.987094 0.083900
vt 0.846757 0.725317
vt 0.830835 0.727111
vt 0.830832 0.723528
vt 0.846758 0.732913
vt 0.830835 0.734707
vt 0.830832 0.731124
vt 0.830833 0.686613
vt 0.846759 0.684719
vt 0.846757 0.688509
vt 0.983676 0.834351
vt 0.980514 0.832866
vt 0.983682 0.831392
vt 0.980515 0.860800
vt 0.983678 0.859327
vt 0.983674 0.862285
vt 0.983676 0.841334
vt 0.980514 0.839850
vt 0.983681 0.838376
vt 0.980515 0.867784
vt 0.983678 0.866310
vt 0.983674 0.869268
vt 0.846759 0.742300
vt 0.830833 0.740511
vt 0.846756 0.738717
vt 0.846759 0.719513
vt 0.830833 0.717724
vt 0.846756 0.715930
vt 0.830833 0.702219
vt 0.846759 0.700325
vt 0.846757 0.704116
vt 0.830834 0.692521
vt 0.846758 0.694417
vt 0.830832 0.696311
vt 0.983676 0.848318
vt 0.980514 0.846833
vt 0.983681 0.845360
vt 0.980515 0.874767
vt 0.983678 0.873294
vt 0.983674 0.876252
vt 0.983676 0.855301
vt 0.980514 0.853817
vt 0.983681 0.852343
vt 0.980515 0.881751
vt 0.983678 0.880277
vt 0.983674 0.883235
vt 0.986382 0.483882
vt 0.980516 0.484217
vt 0.980523 0.483664
vt 0.986382 0.470031
vt 0.980516 0.470271
vt 0.980507 0.469770
vt 0.986382 0.474726
vt 0.980516 0.474966
vt 0.980507 0.474465
vt 0.986382 0.479206
vt 0.980516 0.479541
vt 0.980524 0.478988
vt 0.872429 0.271157
vt 0.830835 0.261806
vt 0.872427 0.252453
vt 0.872429 0.248448
vt 0.830835 0.239096
vt 0.872427 0.229744
vt 0.830830 0.448271
vt 0.830828 0.447476
vt 0.851613 0.447874
vt 0.830838 0.491569
vt 0.830838 0.490772
vt 0.851616 0.491170
vt 0.830830 0.453081
vt 0.830828 0.452287
vt 0.851613 0.452685
vt 0.830838 0.481947
vt 0.830838 0.481150
vt 0.851616 0.481548
vt 0.985351 0.764216
vt 0.985336 0.764387
vt 0.980510 0.764244
vt 0.985363 0.611470
vt 0.985371 0.611593
vt 0.980550 0.611674
vt 0.980501 0.611552
vt 0.985348 0.653873
vt 0.980523 0.654020
vt 0.980506 0.653920
vt 0.351943 0.997023
vt 0.351684 0.997254
vt 0.351736 0.997037
vt 0.985332 0.581085
vt 0.351917 0.997233
vt 0.334690 0.996959
vt 0.334765 0.997144
vt 0.334587 0.996976
vt 0.980528 0.611572
vt 0.980550 0.611470
vt 0.985336 0.692345
vt 0.334507 0.997067
vt 0.980501 0.738877
vt 0.980523 0.738764
vt 0.980523 0.738989
vt 0.240006 0.996982
vt 0.239892 0.997254
vt 0.239858 0.997074
vt 0.240100 0.997135
vt 0.985323 0.772768
vt 0.980501 0.772714
vt 0.980501 0.772632
vt 0.985332 0.563166
vt 0.261531 0.996959
vt 0.261584 0.997160
vt 0.261428 0.996969
vt 0.985351 0.683799
vt 0.985336 0.683838
vt 0.980523 0.683742
vt 0.985348 0.713551
vt 0.980523 0.713574
vt 0.980511 0.713403
vt 0.261334 0.997068
vt 0.980527 0.620039
vt 0.985335 0.683623
vt 0.985351 0.768449
vt 0.985336 0.768620
vt 0.980514 0.768614
vt 0.985363 0.607236
vt 0.985371 0.607360
vt 0.980550 0.607441
vt 0.980501 0.607318
vt 0.980528 0.607338
vt 0.980550 0.607236
vt 0.343364 0.997208
vt 0.343079 0.996976
vt 0.985347 0.658128
vt 0.980523 0.658274
vt 0.980505 0.658170
vt 0.985368 0.585098
vt 0.985471 0.589930
vt 0.343291 0.996981
vt 0.985343 0.747233
vt 0.980501 0.747344
vt 0.980523 0.747231
vt 0.980523 0.747456
vt 0.980510 0.768459
vt 0.343382 0.997082
vt 0.985335 0.589952
vt 0.985332 0.590044
vt 0.985347 0.645365
vt 0.980523 0.645513
vt 0.980506 0.645412
vt 0.356246 0.997023
vt 0.356220 0.997233
vt 0.355987 0.997254
vt 0.980501 0.615785
vt 0.980528 0.615805
vt 0.980550 0.615703
vt 0.356038 0.997038
vt 0.985332 0.572125
vt 0.338988 0.996959
vt 0.339063 0.997144
vt 0.338886 0.996976
vt 0.985363 0.615703
vt 0.980501 0.751578
vt 0.980523 0.751465
vt 0.338805 0.997067
vt 0.985371 0.615827
vt 0.980550 0.615908
vt 0.980523 0.751689
vt 0.985351 0.755749
vt 0.985336 0.755920
vt 0.980510 0.755777
vt 0.985336 0.688092
vt 0.244318 0.996982
vt 0.244412 0.997135
vt 0.244204 0.997254
vt 0.244170 0.997074
vt 0.985332 0.599003
vt 0.265834 0.996959
vt 0.265730 0.996969
vt 0.985323 0.781235
vt 0.980501 0.781181
vt 0.980501 0.781099
vt 0.265673 0.997285
vt 0.985348 0.722076
vt 0.980523 0.722096
vt 0.980511 0.721926
vt 0.265636 0.997068
vt 0.985351 0.700813
vt 0.985336 0.700853
vt 0.980523 0.700757
vt 0.980527 0.624272
vt 0.985335 0.700638
vt 0.985323 0.777002
vt 0.980501 0.776947
vt 0.980501 0.776866
vt 0.248630 0.996982
vt 0.248724 0.997135
vt 0.248516 0.997254
vt 0.248482 0.997074
vt 0.985332 0.545248
vt 0.270136 0.996959
vt 0.270188 0.997160
vt 0.270032 0.996969
vt 0.985351 0.705067
vt 0.985336 0.705106
vt 0.980523 0.705011
vt 0.985348 0.679505
vt 0.980523 0.679528
vt 0.980511 0.679358
vt 0.269938 0.997068
vt 0.980527 0.628506
vt 0.985335 0.704892
vt 0.985363 0.726292
vt 0.980501 0.726297
vt 0.980551 0.726175
vt 0.985352 0.649556
vt 0.985339 0.649732
vt 0.980510 0.649682
vt 0.347640 0.997023
vt 0.347599 0.997239
vt 0.347382 0.997254
vt 0.347382 0.997104
vt 0.347435 0.996995
vt 0.980550 0.632756
vt 0.980501 0.632658
vt 0.985343 0.734675
vt 0.980511 0.734742
vt 0.980516 0.734589
vt 0.347581 0.996979
vt 0.980574 0.603003
vt 0.252824 0.996978
vt 0.252917 0.997299
vt 0.252807 0.997249
vt 0.252746 0.997072
vt 0.980574 0.603227
vt 0.985332 0.554207
vt 0.252926 0.996959
vt 0.252968 0.997205
vt 0.985342 0.666657
vt 0.985336 0.666798
vt 0.980523 0.666723
vt 0.980519 0.382408
vt 0.992970 0.379642
vt 0.992973 0.385172
vt 0.980519 0.372857
vt 0.992970 0.370091
vt 0.992973 0.375621
vt 0.980519 0.465597
vt 0.980518 0.461471
vt 0.986381 0.463534
vt 0.980519 0.457469
vt 0.980518 0.453344
vt 0.986382 0.455406
vt 0.985289 0.580960
vt 0.436788 0.996959
vt 0.436829 0.996981
vt 0.436788 0.997004
vt 0.985289 0.563042
vt 0.428705 0.996959
vt 0.428746 0.996981
vt 0.428705 0.997004
vt 0.985289 0.572001
vt 0.432746 0.996959
vt 0.432788 0.996981
vt 0.432746 0.997004
vt 0.985289 0.598879
vt 0.985289 0.545124
vt 0.252818 0.997273
vt 0.985289 0.554083
vt 0.372405 0.997123
vt 0.364361 0.997123
vt 0.368383 0.997123
vt 0.376421 0.997124
vt 0.380447 0.996967
vt 0.408594 0.997079
vt 0.424683 0.997079
vt 0.384471 0.996967
vt 0.257233 0.996962
vt 0.257253 0.996985
vt 0.257159 0.997106
vt 0.388495 0.996967
vt 0.412616 0.997079
vt 0.416638 0.997079
vt 0.404572 0.997079
vt 0.360320 0.996976
vt 0.420661 0.997079
vt 0.980550 0.611703
vt 0.985354 0.580881
vt 0.985354 0.562962
vt 0.980550 0.607470
vt 0.980550 0.615937
vt 0.985354 0.571922
vt 0.985354 0.598799
vt 0.985354 0.545044
vt 0.985354 0.554004
vt 0.317364 0.997081
vt 0.317511 0.997246
vt 0.317485 0.997280
vt 0.400548 0.997118
vt 0.308772 0.997085
vt 0.308918 0.997246
vt 0.308892 0.997280
vt 0.321661 0.997081
vt 0.321808 0.997246
vt 0.321781 0.997280
vt 0.392501 0.997118
vt 0.396525 0.997118
vt 0.980552 0.603116
vt 0.985369 0.576137
vt 0.985369 0.558219
vt 0.980501 0.772821
vt 0.985369 0.567178
vt 0.985369 0.594056
vt 0.980501 0.781289
vt 0.985369 0.540301
vt 0.980501 0.777055
vt 0.985368 0.549260
vt 0.980523 0.649783
vt 0.334726 0.996977
vt 0.261567 0.996979
vt 0.980549 0.619937
vt 0.343343 0.997212
vt 0.339025 0.996977
vt 0.265869 0.996979
vt 0.980549 0.624170
vt 0.270171 0.996979
vt 0.980549 0.628404
vt 0.980528 0.632637
vt 0.252963 0.996976
s 1
usemtl hospital_001_baked
f 242/1/1 243/2/1 244/3/1
f 254/4/2 255/5/2 257/6/2
f 266/7/3 267/8/3 268/9/3
f 275/10/4 276/11/4 278/12/4
f 289/13/5 290/14/5 292/15/5
f 305/16/6 303/17/7 296/18/8
f 313/19/9 314/20/9 315/21/9
f 318/22/10 319/23/10 321/24/10
f 335/25/11 336/26/11 337/27/11
f 345/28/12 346/29/12 348/30/12
f 360/31/13 361/32/13 362/33/13
f 370/34/14 371/35/14 373/36/14
f 385/37/15 386/38/15 388/39/15
f 392/40/3 393/41/3 394/42/3
f 366/43/16 368/44/17 367/45/18
f 279/46/19 280/47/19 275/48/19
f 374/49/19 375/50/19 370/51/19
f 343/52/20 349/53/21 344/54/22
f 306/55/23 302/56/23 301/57/23
f 377/58/24 384/59/25 378/60/26
f 273/61/27 270/62/28 274/63/29
f 239/64/30 241/65/31 240/66/32
f 253/67/33 247/68/33 254/69/33
f 262/70/34 265/71/35 264/72/36
f 263/73/37 278/12/37 277/74/37
f 282/75/38 272/76/39 273/77/27
f 287/78/40 301/79/41 305/80/42
f 288/81/43 286/82/43 289/83/43
f 309/84/44 312/85/45 311/86/46
f 317/87/47 310/88/47 318/89/47
f 332/90/48 334/91/49 333/92/50
f 339/93/51 348/30/51 347/94/51
f 353/95/52 350/96/17 351/97/18
f 356/98/53 359/99/54 358/100/55
f 355/101/56 373/36/56 372/102/56
f 379/103/57 391/104/58 390/105/59
f 385/106/60 380/107/60 386/108/60
f 245/109/61 255/110/61 254/111/61
f 243/112/62 250/113/63 249/114/64
f 258/115/65 251/116/65 253/117/65
f 267/118/66 271/119/67 270/120/68
f 294/121/69 290/122/69 289/123/69
f 293/124/70 299/125/70 288/126/70
f 324/127/71 319/128/71 318/129/71
f 314/130/72 326/131/73 325/132/74
f 322/133/75 329/134/75 317/135/75
f 336/136/76 341/137/77 340/138/68
f 361/139/78 365/140/79 364/141/80
f 386/142/81 382/143/81 387/144/81
f 393/145/72 399/146/82 397/147/83
f 259/148/84 240/66/84 244/3/84
f 252/149/85 251/150/86 248/151/87
f 269/152/88 264/72/89 268/9/89
f 297/153/90 303/17/90 302/56/90
f 300/154/91 299/155/92 297/156/93
f 327/157/94 311/86/95 315/21/94
f 330/158/96 329/159/97 328/160/98
f 342/161/99 333/92/99 337/27/99
f 363/162/100 358/100/100 362/33/100
f 398/163/101 390/105/102 394/42/103
f 276/164/104 274/165/104 270/166/104
f 306/55/105 298/167/106 300/168/107
f 346/169/108 352/170/108 340/171/108
f 371/172/109 369/173/109 364/174/109
f 256/175/110 238/176/110 237/177/110
f 252/178/111 257/179/111 256/180/111
f 252/181/85 244/3/112 243/2/113
f 282/75/114 277/182/114 276/183/114
f 272/184/39 268/9/115 267/8/116
f 291/185/117 285/186/117 284/187/117
f 298/188/118 292/189/118 291/190/118
f 320/191/117 323/192/117 307/193/117
f 330/194/119 321/195/119 320/196/119
f 330/197/96 315/21/112 314/20/113
f 353/95/120 347/198/120 346/199/120
f 350/200/17 337/27/115 336/26/121
f 366/43/122 372/201/122 371/202/122
f 368/203/17 362/33/123 361/32/116
f 396/204/124 388/205/125 387/206/126
f 396/207/124 394/42/127 393/41/128
f 351/208/18 340/209/28 352/210/129
f 367/211/18 364/212/130 369/213/131
f 3/214/132 5/215/133 4/216/133
f 4/217/133 5/218/133 3/219/132
f 8/220/134 7/221/134 6/222/134
f 6/223/134 7/224/134 8/225/134
f 9/226/134 10/227/134 11/228/134
f 10/229/134 9/230/134 11/231/134
f 14/232/135 12/233/134 13/234/135
f 12/235/134 14/236/135 13/237/135
f 16/238/134 17/239/134 15/240/134
f 17/241/134 16/242/134 15/243/134
f 19/244/136 18/245/136 20/246/137
f 18/247/136 19/248/136 20/249/137
f 21/250/134 22/251/138 23/252/134
f 22/253/138 21/254/134 23/255/134
f 24/256/139 26/257/140 25/258/141
f 26/259/140 24/260/139 25/261/141
f 29/262/134 27/263/142 28/264/142
f 27/265/142 29/266/134 28/267/142
f 31/268/143 30/269/144 32/270/145
f 30/271/144 31/272/143 32/273/145
f 33/274/134 34/275/134 35/276/134
f 34/277/134 33/278/134 35/279/134
f 37/280/135 38/281/134 36/282/135
f 38/283/134 37/284/135 36/285/135
f 40/286/134 39/287/134 41/288/134
f 39/289/134 40/290/134 41/291/134
f 43/292/135 42/293/134 44/294/135
f 42/295/134 43/296/135 44/297/135
f 46/298/134 45/299/142 47/300/142
f 45/301/142 46/302/134 47/303/142
f 49/304/146 48/305/147 50/306/148
f 48/307/147 49/308/146 50/309/148
f 51/310/134 53/311/142 52/312/134
f 53/313/142 51/314/134 52/315/134
f 56/316/149 54/317/150 55/318/151
f 54/319/150 56/320/149 55/321/151
f 59/322/152 58/323/134 57/324/153
f 58/325/134 59/326/152 57/327/153
f 62/328/154 61/329/155 60/330/154
f 61/331/155 62/332/154 60/333/154
f 65/334/156 63/335/157 64/336/134
f 63/337/157 65/338/156 64/339/134
f 66/340/158 67/341/159 68/342/160
f 67/343/159 66/344/158 68/345/160
f 69/346/161 71/347/162 70/348/163
f 71/349/162 69/350/161 70/351/163
f 73/352/164 74/353/165 72/354/166
f 74/355/165 73/356/164 72/357/166
f 76/358/134 75/359/142 77/360/142
f 75/361/142 76/362/134 77/363/142
f 79/364/135 78/365/134 80/366/135
f 78/367/134 79/368/135 80/369/135
f 81/370/134 82/371/134 83/372/134
f 81/373/134 83/374/134 82/375/134
f 84/376/134 86/377/134 85/378/134
f 84/379/134 85/380/134 86/381/134
f 87/382/134 89/383/134 88/384/134
f 87/385/134 88/386/134 89/387/134
f 90/388/134 92/389/134 91/390/134
f 90/391/134 91/392/134 92/393/134
f 95/394/134 94/395/134 93/396/134
f 95/397/134 93/398/134 94/399/134
f 97/400/134 96/401/134 98/402/134
f 97/403/134 98/404/134 96/405/134
f 99/406/134 101/407/134 100/408/134
f 99/409/134 100/410/134 101/411/134
f 103/412/134 104/413/134 102/414/134
f 103/415/134 102/416/134 104/417/134
f 106/418/134 107/419/134 105/420/134
f 106/421/134 105/422/134 107/423/134
f 108/424/134 109/425/134 110/426/134
f 108/427/134 110/428/134 109/429/134
f 113/430/134 112/431/134 111/432/134
f 113/433/134 111/434/134 112/435/134
f 114/436/134 115/437/134 116/438/134
f 114/439/134 116/440/134 115/441/134
f 117/442/134 118/443/134 119/444/134
f 117/445/134 119/446/134 118/447/134
f 120/448/134 122/449/134 121/450/134
f 120/451/134 121/452/134 122/453/134
f 123/454/134 124/455/134 125/456/134
f 123/457/134 125/458/134 124/459/134
f 128/460/134 127/461/134 126/462/134
f 128/463/134 126/464/134 127/465/134
f 129/466/134 131/467/134 130/468/134
f 129/469/134 130/470/134 131/471/134
f 132/472/134 133/473/134 134/474/134
f 132/475/134 134/476/134 133/477/134
f 135/478/134 137/479/134 136/480/134
f 135/481/134 136/482/134 137/483/134
f 138/484/134 140/485/134 139/486/134
f 138/487/134 139/488/134 140/489/134
f 142/490/134 143/491/134 141/492/134
f 142/493/134 141/494/134 143/495/134
f 144/496/134 146/497/134 145/498/134
f 144/499/134 145/500/134 146/501/134
f 148/502/134 149/503/142 147/504/142
f 147/505/142 149/506/142 148/507/134
f 151/508/134 152/509/134 150/510/134
f 150/511/134 152/512/134 151/513/134
f 155/514/134 153/515/134 154/516/134
f 153/517/134 155/518/134 154/519/134
f 156/520/167 158/521/168 157/522/169
f 158/523/168 156/524/167 157/525/169
f 160/526/134 159/527/170 161/528/138
f 159/529/170 160/530/134 161/531/138
f 162/532/134 163/533/134 164/534/134
f 162/535/134 164/536/134 163/537/134
f 167/538/171 165/539/172 166/540/173
f 165/541/172 167/542/171 166/543/173
f 168/544/174 169/545/174 170/546/174
f 169/547/174 168/548/174 170/549/174
f 171/550/175 172/551/176 173/552/134
f 172/553/176 171/554/175 173/555/134
f 176/556/177 174/557/178 175/558/177
f 175/559/177 174/560/178 176/561/177
f 177/562/179 179/563/180 178/564/179
f 178/565/179 179/566/180 177/567/179
f 180/568/181 182/569/182 181/570/183
f 181/571/183 182/572/182 180/573/181
f 185/574/134 183/575/142 184/576/142
f 184/577/142 183/578/142 185/579/134
f 186/580/134 188/581/134 187/582/134
f 186/583/134 187/584/134 188/585/134
f 189/586/184 190/587/185 191/588/137
f 191/589/137 190/590/185 189/591/184
f 193/592/134 192/593/134 194/594/134
f 193/595/134 194/596/134 192/597/134
f 196/598/186 197/599/187 195/600/187
f 195/601/187 197/602/187 196/603/186
f 198/604/134 200/605/134 199/606/134
f 198/607/134 199/608/134 200/609/134
f 198/610/188 202/611/188 201/612/188
f 204/613/137 203/614/189 205/615/190
f 203/616/189 204/617/137 205/618/190
f 207/619/191 206/620/192 208/621/192
f 206/622/192 207/623/191 208/624/192
f 210/625/134 209/626/134 211/627/134
f 211/628/134 209/629/134 210/630/134
f 212/631/193 214/632/194 213/633/195
f 214/634/194 212/635/193 213/636/195
f 216/637/196 215/638/196 217/639/197
f 215/640/196 216/641/196 217/642/197
f 219/643/198 218/644/199 220/645/200
f 218/646/199 219/647/198 220/648/200
f 221/649/134 223/650/134 222/651/134
f 221/652/134 222/653/134 223/654/134
f 224/655/134 226/656/134 225/657/134
f 224/658/134 225/659/134 226/660/134
f 228/661/142 229/662/142 227/663/142
f 227/664/142 229/665/142 228/666/142
f 232/667/201 230/668/202 231/669/201
f 230/670/202 232/671/201 231/672/201
f 234/673/203 235/674/204 233/675/205
f 235/676/204 234/677/203 233/678/205
f 237/679/206 236/680/207 246/681/208
f 236/682/207 238/176/209 256/175/210
f 237/683/211 245/684/211 255/685/211
f 236/686/212 247/687/213 239/688/214
f 241/689/31 254/690/215 246/691/216
f 243/2/113 249/692/217 252/181/85
f 241/689/31 239/693/30 254/690/215
f 243/694/218 248/695/219 250/696/63
f 259/148/220 244/3/112 252/181/85
f 255/685/221 254/697/221 247/698/222
f 248/151/87 259/699/220 252/149/85
f 250/696/63 248/695/219 258/115/223
f 250/696/63 258/115/223 249/700/64
f 256/180/224 258/701/224 251/702/224
f 249/703/217 257/179/225 252/178/85
f 265/704/35 279/705/226 261/706/227
f 265/704/35 262/707/34 263/73/228
f 260/708/229 278/709/230 262/710/231
f 267/8/116 270/711/28 272/184/39
f 267/712/232 281/713/233 271/714/67
f 269/152/234 268/9/115 272/184/39
f 281/715/235 269/716/234 272/717/39
f 271/714/67 281/713/233 275/48/236
f 270/718/28 273/719/27 272/720/39
f 271/714/67 275/48/236 270/721/68
f 277/182/237 272/76/39 282/75/38
f 276/183/238 275/722/238 272/76/238
f 274/63/239 276/183/239 273/61/239
f 280/723/240 281/715/235 272/717/39
f 284/724/241 283/725/242 296/726/243
f 283/727/242 285/186/244 291/185/245
f 284/728/246 294/729/246 290/730/246
f 290/730/247 289/731/248 286/732/247
f 304/733/249 287/78/249 289/734/249
f 283/735/242 286/736/250 287/737/251
f 283/738/242 287/739/251 305/16/252
f 304/733/253 289/734/253 295/740/253
f 291/190/254 300/741/107 298/188/106
f 291/190/255 293/742/255 299/743/255
f 297/744/256 292/189/257 298/188/258
f 284/724/241 296/726/243 295/745/259
f 304/733/260 295/740/260 296/746/260
f 297/153/93 302/56/261 300/168/91
f 304/747/262 297/748/256 298/167/258
f 298/167/263 302/56/263 304/747/263
f 308/749/212 310/750/264 309/751/265
f 312/752/45 309/753/44 318/754/266
f 319/755/267 318/756/267 310/757/268
f 312/752/45 318/754/266 316/758/269
f 314/20/113 325/759/270 330/197/96
f 314/760/271 328/761/272 326/762/73
f 327/157/273 315/21/112 330/197/96
f 308/763/274 323/192/275 320/191/210
f 320/196/224 322/764/224 329/765/224
f 326/762/73 328/761/272 322/133/276
f 326/762/73 322/133/276 325/766/74
f 307/767/277 324/768/277 319/755/277
f 325/769/270 321/195/278 330/194/96
f 307/770/279 308/771/274 316/772/208
f 328/160/98 327/773/273 330/158/96
f 334/774/49 332/775/48 339/93/280
f 334/774/49 349/776/226 338/777/281
f 336/26/121 340/778/28 350/200/17
f 336/779/282 344/54/283 341/780/77
f 342/161/284 337/27/115 350/200/17
f 331/781/285 348/782/230 332/783/286
f 341/780/77 344/54/283 345/784/236
f 340/785/28 351/786/18 350/787/17
f 341/780/77 345/784/236 340/788/68
f 344/789/235 342/790/284 350/791/17
f 346/199/287 345/792/287 350/96/287
f 343/793/240 344/789/235 350/791/17
f 347/198/237 350/96/17 353/95/52
f 352/210/239 346/199/239 351/208/239
f 354/794/288 373/795/230 356/796/289
f 359/797/54 356/798/53 355/101/290
f 359/797/54 374/799/226 357/800/291
f 361/32/116 364/801/130 368/203/17
f 361/802/292 376/803/283 365/804/79
f 363/162/293 362/33/123 368/203/17
f 376/805/294 363/806/293 368/807/17
f 365/804/79 376/803/283 370/51/236
f 364/808/130 367/809/18 368/810/17
f 365/804/79 370/51/236 364/811/80
f 372/201/237 368/44/17 366/43/16
f 369/213/239 371/202/239 367/211/239
f 371/202/295 370/812/295 368/44/295
f 375/813/240 376/805/294 368/807/17
f 378/814/26 385/815/296 380/816/297
f 377/817/24 378/818/26 379/819/298
f 391/820/58 379/821/57 386/822/299
f 391/820/58 382/823/300 381/824/301
f 391/820/58 386/822/299 382/823/300
f 381/825/302 385/826/303 377/58/304
f 377/827/304 383/828/305 381/829/302
f 391/820/58 381/824/301 383/830/306
f 395/831/307 396/204/124 387/206/308
f 399/832/82 384/833/309 389/834/310
f 399/832/82 389/834/310 397/835/83
f 397/836/311 388/205/125 396/204/124
f 393/41/128 397/837/311 396/207/124
f 393/838/312 395/839/313 399/832/82
f 398/163/314 394/42/127 396/207/124
f 399/832/82 395/839/313 384/833/309
f 395/840/307 398/841/314 396/842/124
f 400/843/134 402/844/134 401/845/134
f 400/846/134 401/847/134 402/848/134
f 403/849/137 404/850/134 405/851/137
f 404/852/134 403/853/137 405/854/137
f 244/3/315 240/66/315 242/1/315
f 240/66/316 241/65/316 242/1/317
f 241/65/31 246/855/216 242/1/318
f 258/856/319 253/857/319 254/4/319
f 255/5/320 256/858/320 257/6/320
f 257/6/321 258/856/321 254/4/321
f 268/9/322 264/72/322 266/7/322
f 264/72/323 265/71/323 266/7/323
f 265/71/35 261/859/227 266/7/324
f 276/11/325 277/74/325 278/12/325
f 278/12/326 261/706/227 279/705/226
f 278/12/327 279/705/327 275/10/327
f 293/860/328 288/861/328 289/13/328
f 290/14/329 291/862/329 292/15/329
f 292/15/330 293/860/330 289/13/330
f 305/16/331 301/57/331 303/17/331
f 301/57/332 302/56/332 303/17/332
f 303/17/333 304/747/333 296/18/334
f 315/21/335 311/86/335 313/19/335
f 311/86/336 312/85/337 313/19/336
f 312/85/45 316/863/269 313/19/338
f 322/864/339 317/865/339 318/22/339
f 319/23/340 320/866/340 321/24/340
f 321/24/341 322/864/341 318/22/341
f 337/27/342 333/92/342 335/25/342
f 333/92/343 334/91/343 335/25/343
f 334/91/49 338/867/281 335/25/344
f 346/29/345 347/94/345 348/30/345
f 348/30/346 338/777/281 349/776/226
f 348/30/347 349/776/347 345/28/347
f 362/33/348 358/100/348 360/31/348
f 358/100/349 359/99/349 360/31/349
f 359/99/54 357/868/291 360/31/350
f 371/35/351 372/102/351 373/36/351
f 373/36/346 357/800/291 374/799/226
f 373/36/347 374/799/347 370/34/347
f 386/38/352 387/869/352 388/39/352
f 388/39/353 389/834/310 384/833/309
f 388/39/354 384/833/354 385/37/354
f 394/42/355 390/105/355 392/40/355
f 390/105/356 391/104/357 392/40/357
f 391/104/58 383/870/306 392/40/358
f 279/46/359 281/713/359 280/47/359
f 374/49/360 376/803/360 375/50/360
f 343/52/361 345/784/361 349/53/361
f 306/55/362 300/168/362 302/56/362
f 377/58/363 385/826/363 384/59/363
f 253/67/364 239/871/364 247/68/364
f 263/73/228 262/707/34 278/12/365
f 288/81/366 287/872/366 286/82/366
f 317/87/367 309/873/367 310/88/367
f 339/93/280 332/775/48 348/30/368
f 355/101/290 356/798/53 373/36/369
f 385/106/370 379/874/370 380/107/370
f 245/109/371 246/875/371 255/110/371
f 243/112/372 242/876/372 250/113/372
f 258/115/373 248/695/373 251/116/373
f 267/118/372 266/877/372 271/119/372
f 294/121/374 295/878/374 290/122/374
f 304/879/375 303/880/375 297/881/375
f 293/124/376 297/881/377 299/125/378
f 324/127/379 316/882/380 319/128/381
f 314/130/382 313/883/382 326/131/382
f 322/133/383 328/761/383 329/134/383
f 336/136/384 335/884/384 341/137/384
f 361/139/385 360/885/385 365/140/385
f 386/142/386 381/886/301 382/143/300
f 393/145/387 392/887/387 399/146/387
f 246/888/208 245/684/388 237/683/206
f 259/148/220 248/889/87 240/66/389
f 269/152/234 281/890/235 264/72/390
f 295/891/259 294/729/391 284/728/241
f 316/892/208 324/768/392 307/767/279
f 327/157/273 328/893/98 311/86/393
f 342/161/284 344/894/235 333/92/394
f 363/162/293 376/895/294 358/100/395
f 398/163/314 395/896/307 390/105/396
f 236/897/207 237/898/206 238/899/209
f 258/701/223 257/179/397 249/703/64
f 276/164/398 275/900/398 274/165/398
f 283/901/242 284/902/241 285/903/244
f 293/742/376 292/189/399 297/744/377
f 308/904/274 307/905/279 323/906/275
f 322/764/276 321/195/400 325/769/74
f 346/169/401 345/907/401 352/170/401
f 371/172/402 370/908/402 369/173/402
f 389/909/310 388/205/403 397/836/83
f 236/910/207 242/1/404 246/855/208
f 256/175/405 255/685/405 238/176/405
f 260/911/229 266/7/406 261/859/407
f 261/912/407 278/709/230 260/708/229
f 282/75/408 273/77/408 277/182/408
f 305/16/252 296/18/243 283/738/242
f 291/185/409 290/730/409 285/186/409
f 308/913/274 313/19/410 316/863/208
f 320/191/409 319/755/409 323/192/409
f 331/914/285 335/25/411 338/867/412
f 338/915/412 348/782/230 331/781/285
f 353/95/408 351/97/408 347/198/408
f 354/916/288 360/31/413 357/868/414
f 357/917/414 373/795/230 354/794/288
f 366/43/408 367/45/408 372/201/408
f 377/918/304 392/40/415 383/870/305
f 380/919/297 379/819/298 378/818/26
f 242/1/416 236/910/416 240/66/416
f 236/910/212 239/64/214 240/66/417
f 243/694/418 244/920/419 248/695/418
f 247/698/213 236/682/212 256/175/420
f 247/698/421 256/175/421 255/685/421
f 256/180/422 257/179/422 258/701/422
f 251/702/86 252/178/85 256/180/423
f 266/7/424 260/911/424 264/72/424
f 260/911/229 262/70/231 264/72/425
f 279/705/226 265/704/35 263/73/228
f 263/73/426 278/12/426 279/705/426
f 267/712/427 268/921/428 281/713/427
f 272/76/429 277/182/429 276/183/429
f 275/722/430 280/922/240 272/76/39
f 286/732/250 283/727/242 291/185/431
f 286/732/432 291/185/432 290/730/432
f 287/78/433 304/733/433 303/923/433
f 301/79/41 287/78/40 303/923/434
f 291/190/435 292/189/435 293/742/435
f 299/743/92 300/741/91 291/190/436
f 306/55/437 302/56/437 298/167/437
f 302/56/438 303/17/439 304/747/439
f 313/19/440 308/913/440 311/86/440
f 308/913/212 309/84/265 311/86/441
f 310/757/264 308/763/212 320/191/442
f 310/757/443 320/191/443 319/755/443
f 314/760/444 315/924/445 328/761/444
f 320/196/446 321/195/446 322/764/446
f 329/765/97 330/194/96 320/196/447
f 335/25/424 331/914/424 333/92/424
f 331/914/285 332/90/286 333/92/448
f 349/776/226 334/774/49 339/93/280
f 339/93/449 348/30/449 349/776/449
f 336/779/450 337/925/450 344/54/450
f 350/96/451 347/198/451 346/199/451
f 345/792/452 343/926/240 350/96/17
f 360/31/424 354/916/424 358/100/424
f 354/916/288 356/98/289 358/100/453
f 374/799/226 359/797/54 355/101/290
f 355/101/449 373/36/449 374/799/449
f 361/802/454 362/927/454 376/803/455
f 368/44/456 372/201/456 371/202/456
f 370/812/430 375/928/240 368/44/17
f 381/825/457 386/929/457 385/826/457
f 392/40/458 377/918/458 390/105/458
f 377/918/24 379/103/298 390/105/459
f 388/205/460 389/909/460 387/206/460
f 389/909/461 395/831/461 387/206/461
f 393/838/462 394/930/463 395/839/462
l 1 2
