# Blender 4.5.0
# www.blender.org
mtllib office_tower_001.lod2.mtl
o office_tower_001
v -17.900000 0.061416 -17.900000
v -17.900000 0.064599 17.900000
v 15.729209 3.046759 -12.047400
v -14.507991 4.686034 -12.597282
v 15.729209 3.201548 -12.047400
v -14.507991 4.686036 12.597282
v -14.064160 2.939659 -13.024235
v 14.868314 1.087625 -12.597282
v -14.064160 1.079633 -13.020145
v -14.058681 1.087625 -13.042114
v -14.485801 1.079635 12.602707
v -14.489931 2.939661 12.602707
v -14.064160 1.079635 13.024235
v 14.868314 1.087627 12.597282
v -14.064160 2.939661 13.020145
v 14.850254 2.939659 -12.602707
v 14.846124 1.079633 -12.602707
v 14.419004 1.087627 13.042114
v 14.424483 4.678042 -13.024235
v 14.424483 6.538068 -13.020145
v -14.507991 6.530077 -12.597283
v -14.058681 6.530077 -13.042115
v -14.489931 6.538070 12.602706
v -14.485801 4.678044 12.602706
v -14.064160 6.538069 13.020144
v 14.868314 6.530079 12.597281
v -14.064160 4.678044 13.024235
v 14.846123 6.538070 12.602706
v 14.419004 6.530077 -13.042115
v 14.850254 4.678044 12.602706
v -13.458622 9.100070 -12.978024
v -13.516013 0.085497 -13.144423
v -13.446924 9.100069 -13.166331
v -13.389532 0.085499 13.144423
v -13.458623 9.100071 13.166329
v -13.446925 9.100072 12.978024
v -10.215413 9.100069 -13.166331
v -10.284503 0.085497 -13.144423
v -10.227110 9.100070 -12.978024
v -10.215414 9.100073 12.978024
v -10.284495 0.085499 13.144429
v -10.227112 9.100072 13.166329
v -6.983902 9.100070 -13.166332
v -6.926518 0.085497 -13.144429
v -6.995598 9.100070 -12.978025
v -6.926510 0.085499 13.144423
v -6.995600 9.100071 13.166328
v -6.983903 9.100073 12.978023
v -3.752392 9.100071 -13.166332
v -3.764091 9.100072 -12.978024
v -3.695008 0.085497 -13.144429
v -3.752393 9.100074 12.978023
v -3.764091 9.100073 13.166330
v -3.821475 0.085499 13.144429
v -0.520882 9.100071 -13.166332
v -0.532580 9.100071 -12.978024
v -0.463498 0.085497 -13.144429
v -0.520883 9.100074 12.978023
v -0.589965 0.085499 13.144429
v -0.532581 9.100073 13.166330
v 2.698931 9.100071 -12.978024
v 2.768013 0.085497 -13.144429
v 2.710629 9.100070 -13.166331
v 2.641545 0.085499 13.144429
v 2.710628 9.100074 12.978023
v 2.698929 9.100072 13.166329
v 5.942135 9.100070 -13.166332
v 5.930443 9.100071 -12.978023
v 5.873049 0.085497 -13.144423
v 5.942134 9.100073 12.978022
v 5.873056 0.085499 13.144429
v 5.930441 9.100072 13.166331
v 9.231033 0.085497 -13.144429
v 9.161952 9.100070 -12.978024
v 9.173649 9.100070 -13.166331
v 9.231041 0.085499 13.144423
v 9.161951 9.100072 13.166329
v 9.173648 9.100073 12.978024
v 12.393462 9.100070 -12.978024
v 12.462543 0.085497 -13.144429
v 12.405159 9.100070 -13.166331
v 12.405158 9.100073 12.978024
v 12.462551 0.085499 13.144423
v 12.393461 9.100071 13.166329
v -0.463688 0.088069 12.997195
v 7.754014 99.003166 2.996246
v -7.393691 99.003166 -0.996692
v -10.973526 11.887709 -8.598146
v 10.890018 10.035673 -9.025099
v 10.890018 11.895700 -9.021009
v -10.955467 10.035673 -8.603569
v -10.524217 10.043668 11.042545
v -10.951336 11.895700 -8.603569
v 10.890018 11.895702 11.024666
v -10.973526 10.043668 10.597713
v 10.890018 10.035676 11.020576
v 11.311660 10.035673 -8.603569
v 10.884540 10.043668 11.042545
v 11.315790 11.895700 -8.603569
v 11.333849 13.642075 -8.598146
v -10.529695 15.494110 -9.025099
v -10.529696 13.634085 -9.021008
v -10.951336 15.494109 -8.603569
v -10.524217 13.642076 11.042545
v -10.955468 13.634085 -8.603570
v -10.529695 15.494111 11.020576
v 11.333849 13.642076 10.597713
v -10.529696 13.634087 11.024666
v 11.311659 13.634085 -8.603570
v 11.315790 15.494109 -8.603569
v 10.884540 13.642076 11.042545
v 10.890018 17.232494 -9.025099
v -10.973526 19.084526 -8.598147
v 10.890018 19.092518 -9.021009
v -10.524217 19.084526 -9.042979
v -10.955467 19.092518 10.603135
v -10.951336 17.232494 10.603136
v 11.333849 17.240486 10.597713
v -10.529695 19.092518 11.020575
v -10.529695 17.232494 11.024666
v 10.884540 19.084526 -9.042979
v 11.315790 17.232494 10.603136
v 11.311660 19.092518 10.603135
v -10.529695 20.830902 -9.021009
v 11.333849 22.682936 -8.598147
v -10.529695 22.690928 -9.025100
v -10.524217 22.682936 -9.042979
v -10.955467 22.690928 10.603135
v -10.951336 20.830902 10.603135
v -10.529695 22.690928 11.020575
v -10.529695 20.830902 11.024665
v 11.333849 22.682936 10.597712
v 11.315790 22.690928 -8.603570
v 10.884540 22.682936 11.042544
v 11.311660 20.830902 -8.603570
v -10.529695 26.289337 -9.025100
v 11.333849 26.281345 -8.598147
v -10.529695 24.429310 -9.021009
v -10.955467 24.429310 -8.603570
v -10.524217 26.281345 11.042544
v -10.951336 26.289337 -8.603570
v 10.890018 26.289337 11.024665
v -10.973526 26.281345 10.597712
v 10.890018 24.429310 11.020575
v 10.884540 26.281345 11.042544
v 11.315790 26.289337 -8.603570
v 11.311660 24.429310 -8.603570
v -10.529695 29.887749 -9.025100
v 11.333849 29.879755 -8.598147
v -10.529695 28.027719 -9.021009
v -10.951336 29.887749 -8.603570
v -10.955467 28.027719 -8.603570
v -10.524217 29.879755 11.042544
v -10.973526 29.879755 10.597712
v 10.890018 28.027719 11.020575
v 10.890018 29.887749 11.024665
v 10.884540 29.879755 -9.042979
v 11.311660 29.887749 10.603135
v 11.315790 28.027719 10.603135
v 10.890018 33.486156 -9.021011
v 10.890018 31.626131 -9.025101
v -10.973526 33.478165 -8.598148
v -10.524217 33.478165 -9.042980
v -10.955467 33.486156 10.603133
v -10.951336 31.626131 10.603134
v 11.333849 33.478165 10.597711
v -10.529695 33.486156 11.020575
v -10.529695 31.626131 11.024664
v 10.884540 33.478165 -9.042980
v 11.315790 31.626131 10.603134
v 11.311660 33.486156 10.603133
v -10.973526 35.232533 -8.598148
v 10.890018 37.084564 -9.021010
v 10.890018 35.224545 -9.025101
v -10.524217 37.076572 -9.042980
v -10.951335 35.224545 10.603134
v -10.955467 37.084564 10.603134
v 11.333849 35.232533 10.597711
v -10.529695 37.084564 11.020575
v -10.529695 35.224545 11.024664
v 11.315790 35.224545 10.603134
v 11.311659 37.084564 10.603134
v 10.884540 37.076572 -9.042980
v -10.529695 40.682976 -9.025101
v -10.529695 38.822948 -9.021011
v 11.333849 40.674984 -8.598148
v -10.524217 40.674984 -9.042980
v -10.951336 38.822948 10.603134
v -10.955467 40.682976 10.603134
v -10.973526 40.674984 10.597711
v 10.890018 40.682976 11.024664
v 10.890018 38.822948 11.020575
v 10.884540 40.674984 -9.042980
v 11.311659 40.682976 10.603134
v 11.315790 38.822948 10.603134
v -10.529695 44.281384 -9.025102
v -10.529695 42.421360 -9.021010
v 11.333849 44.273392 -8.598149
v -10.951336 44.281384 -8.603573
v -10.955467 42.421360 -8.603571
v -10.524217 44.273392 11.042542
v -10.973526 42.429352 10.597711
v 10.890018 44.281384 11.024663
v 10.890018 42.421360 11.020575
v 11.311660 42.421360 -8.603571
v 10.884540 44.273392 11.042542
v 11.315790 44.281384 -8.603572
v 10.890018 47.879795 -9.021012
v -10.973526 47.871799 -8.598149
v 10.890018 46.019768 -9.025102
v -10.951336 47.879795 -8.603573
v -10.955467 46.019768 -8.603572
v -10.524217 47.871799 11.042542
v -10.973526 46.027760 10.597710
v 10.890018 47.879795 11.024663
v 10.890018 46.019768 11.020573
v 10.884540 46.027760 -9.042981
v 11.315790 46.019768 10.603133
v 11.311660 47.879795 10.603134
v -10.529695 51.478203 -9.025102
v -10.529695 49.618176 -9.021012
v 11.333849 51.470211 -8.598149
v -10.524217 51.470211 -9.042981
v -10.951336 49.618176 10.603133
v -10.955467 51.478203 10.603133
v 11.333849 51.470211 10.597710
v -10.529695 49.618176 11.024663
v -10.529695 51.478203 11.020574
v 10.884540 51.470211 -9.042981
v 11.311660 51.478203 10.603133
v 11.315790 49.618176 10.603133
v 10.890018 53.216591 -9.025102
v -10.973526 55.068619 -8.598149
v 10.890018 55.076611 -9.021012
v -10.951336 53.216591 10.603133
v -10.955467 55.076611 10.603133
v -10.524217 55.068619 -9.042981
v 10.890018 53.216591 11.020574
v 10.890018 55.076611 11.024663
v -10.973526 55.068619 10.597710
v 11.315790 55.076611 -8.603572
v 11.311660 53.216591 -8.603572
v 10.884540 55.068619 11.042542
v 10.890018 56.814991 -9.025102
v 10.890017 58.675022 -9.021012
v -10.973526 58.667030 -8.598150
v -10.524217 58.667030 -9.042982
v -10.955467 58.675022 10.603131
v -10.951336 56.814991 10.603133
v 11.333849 58.667030 10.597709
v -10.529694 58.675022 11.020572
v -10.529695 56.814991 11.024663
v 10.884540 58.667030 -9.042982
v 11.311659 58.675022 10.603131
v 11.315790 56.814991 10.603133
v 10.890018 60.413403 -9.025103
v 10.890018 62.273430 -9.021012
v -10.973526 62.265438 -8.598150
v -10.951335 62.273430 -8.603573
v -10.524217 62.265438 11.042542
v -10.955467 60.413403 -8.603574
v -10.529695 62.273430 11.020573
v 11.333849 60.421398 10.597709
v -10.529696 60.413403 11.024662
v 11.311660 60.413403 -8.603574
v 10.884540 60.421398 11.042542
v 11.315790 62.273430 -8.603573
v -10.529696 65.871834 -9.025103
v 11.333849 64.019806 -8.598150
v -10.529696 64.011810 -9.021013
v -10.955467 64.011810 -8.603574
v -10.524217 64.019806 11.042542
v -10.951335 65.871834 -8.603572
v -10.529695 65.871834 11.020573
v -10.529696 64.011810 11.024662
v 11.333849 64.019806 10.597709
v 11.311659 65.871834 10.603132
v 10.884540 64.019806 -9.042982
v 11.315790 64.011810 10.603133
v 11.333849 69.462250 -8.598150
v -10.529696 69.470245 -9.025103
v -10.529695 67.610222 -9.021013
v -10.524217 69.462250 11.042542
v -10.951336 69.470245 -8.603574
v -10.955467 67.610222 -8.603572
v -10.529696 69.470245 11.020573
v -10.529695 67.610222 11.024662
v 11.333849 69.462250 10.597709
v 11.315790 69.470245 -8.603574
v 10.884540 69.462250 11.042542
v 11.311660 67.610222 -8.603572
v -10.973526 71.216621 -8.598151
v 10.890018 71.208626 -9.025104
v 10.890018 73.068657 -9.021014
v -10.951336 73.068657 -8.603575
v -10.524217 73.060669 11.042541
v -10.955467 71.208626 -8.603574
v -10.529696 73.068657 11.020572
v 11.333849 73.060669 10.597708
v -10.529695 71.208626 11.024661
v 10.884540 73.060669 -9.042983
v 11.311660 73.068657 10.603132
v 11.315790 71.208626 10.603131
v -10.973526 74.815033 -8.598151
v 10.890018 74.807045 -9.025104
v 10.890016 76.667068 -9.021014
v -10.524217 76.659073 11.042541
v -10.951336 76.667068 -8.603572
v -10.955467 74.807045 -8.603574
v -10.973526 76.659073 10.597708
v 10.890017 76.667068 11.024661
v 10.890018 74.807045 11.020571
v 11.311659 74.807045 -8.603574
v 10.884540 74.815033 11.042541
v 11.315790 76.667068 -8.603572
v 11.333849 80.257484 -8.598151
v -10.529696 80.265472 -9.025104
v -10.529696 78.405457 -9.021014
v -10.524217 80.257484 -9.042983
v -10.955467 80.265472 10.603132
v -10.951336 78.405457 10.603132
v -10.973526 80.257484 10.597708
v 10.890018 78.405457 11.020572
v 10.890018 80.265472 11.024661
v 11.311660 78.405457 -8.603575
v 10.884540 80.257484 11.042541
v 11.315790 80.265472 -8.603575
v 11.333849 82.011848 -8.598151
v -10.529696 82.003860 -9.021014
v -10.529695 83.863884 -9.025105
v -10.951335 83.863884 -8.603575
v -10.955466 82.003860 -8.603574
v -10.524217 82.011848 11.042541
v -10.529695 83.863884 11.020571
v 11.333849 82.011848 10.597708
v -10.529696 82.003860 11.024661
v 11.315790 83.863884 -8.603575
v 11.311660 82.003860 -8.603574
v 10.884540 82.011848 11.042541
v 10.890018 85.602264 -9.025105
v -10.973526 87.454300 -8.598152
v 10.890018 87.462288 -9.021015
v -10.524217 87.454300 -9.042984
v -10.955467 87.462288 10.603131
v -10.951336 85.602264 10.603129
v 11.333849 87.454300 10.597707
v -10.529696 87.462288 11.020570
v -10.529695 85.602264 11.024660
v 10.884540 87.454300 -9.042984
v 11.315790 85.602264 10.603129
v 11.311660 87.462288 10.603131
v 11.333849 89.208664 -8.598152
v -10.529695 91.060715 -9.025105
v -10.529695 89.200676 -9.021014
v -10.955467 91.060715 10.603129
v -10.951335 89.200676 10.603129
v -10.524217 89.208664 -9.042984
v -10.973526 91.052711 10.597707
v 10.890018 89.200676 11.020570
v 10.890018 91.060715 11.024660
v 10.884540 91.052711 -9.042984
v 11.315790 89.200676 10.603129
v 11.311659 91.060715 10.603129
v -10.973526 94.651123 -8.598152
v 10.890016 94.659111 -9.021015
v 10.890018 92.799095 -9.025105
v -10.524217 94.651123 -9.042984
v -10.955467 94.659111 10.603128
v -10.951336 92.799095 10.603131
v -10.529694 94.659111 11.020570
v -10.529696 92.799095 11.024660
v 11.333849 94.651123 10.597707
v 10.884540 94.651123 -9.042984
v 11.311660 94.659111 10.603128
v 11.315790 92.799095 10.603131
v -9.912459 96.021645 -9.167202
v -9.924157 96.021645 -8.978893
v -9.981549 9.041537 -9.145287
v -9.924158 96.021645 11.166754
v -9.912460 96.021645 10.978447
v -9.855067 9.041539 11.144853
v -6.680953 96.021645 -9.167203
v -6.750039 9.041537 -9.145287
v -6.692645 96.021645 -8.978891
v -6.692647 96.021645 11.166756
v -6.750031 9.041539 11.144859
v -6.680953 96.021645 10.978446
v -3.449438 96.021645 -9.167203
v -3.461137 96.021645 -8.978891
v -3.392054 9.041537 -9.145293
v -3.461138 96.021645 11.166756
v -3.449439 96.021645 10.978446
v -3.518521 9.041539 11.144859
v -0.217927 96.021645 -9.167203
v -0.160544 9.041537 -9.145293
v -0.229626 96.021645 -8.978892
v -0.217928 96.021645 10.978446
v -0.160536 9.041539 11.144853
v -0.229627 96.021645 11.166755
v 3.070967 9.041537 -9.145293
v 3.001885 96.021645 -8.978892
v 3.013583 96.021645 -9.167202
v 3.070975 9.041539 11.144853
v 3.001884 96.021645 11.166755
v 3.013582 96.021645 10.978447
v 6.233396 96.021645 -8.978893
v 6.176003 9.041537 -9.145287
v 6.245092 96.021645 -9.167201
v 6.245091 96.021645 10.978448
v 6.302484 9.041539 11.144853
v 6.233395 96.021645 11.166754
v 9.533988 9.041537 -9.145293
v 9.464906 96.021645 -8.978893
v 9.476604 96.021645 -9.167202
v 9.533996 9.041539 11.144853
v 9.464905 96.021645 11.166754
v 9.476604 96.021645 10.978447
v 8.763861 99.001175 -6.495639
v 8.763861 96.003685 8.495193
v -7.393691 99.003212 2.996266
v 6.239244 3.046759 -15.494085
v -5.904718 3.134415 -12.492285
v -5.904719 3.113891 -15.501676
v -4.851473 0.045515 -13.094604
v -4.903959 3.061325 -13.114315
v -4.914976 3.061324 -12.960061
v 5.211796 0.045515 -13.094604
v 5.264282 3.061324 -12.960061
v 5.275299 3.061324 -13.114315
v -4.367187 100.799133 -0.999792
v -7.390655 99.003616 -0.999792
v -7.390655 100.799133 2.999345
v -1.331571 100.799133 2.999345
v -1.331571 99.003616 -0.999792
v 1.691894 100.799133 -0.999792
v 4.727509 99.003616 -0.999792
v 4.727509 100.799133 2.999345
v 7.750978 100.799133 -0.999792
v -8.047496 96.000526 11.497512
v -7.748694 12.040214 11.494433
v -7.749733 96.000526 10.897640
v 8.110057 96.000526 11.497512
v 8.109017 12.040214 10.900732
v 8.407819 96.000526 10.897640
v 8.204696 98.970261 5.064138
v 8.328107 98.993347 4.928594
v 8.347013 103.000000 4.998914
v -17.539677 0.046170 -17.546213
v -15.222980 0.494660 -17.546213
v -17.337551 0.496622 -15.446667
v -15.425088 1.293607 -17.346258
v -17.340685 1.293607 -17.343176
v -15.222602 0.495316 -15.249281
v -15.425108 0.496624 15.446667
v -17.539677 0.494662 17.546213
v -15.222980 0.046173 17.546213
v -15.425088 1.293610 15.446667
v -15.222602 0.495318 17.543642
v -17.340685 0.496672 17.343176
v 17.900000 0.494660 -17.546213
v 15.785431 0.496622 -15.446667
v 15.583303 0.046170 -17.546213
v 15.582925 0.495315 -17.543642
v 15.785411 1.293607 -15.446667
v 17.701008 0.496670 -17.343176
v 15.583303 0.046172 15.246710
v 17.701008 0.496624 17.343155
v 15.583303 0.494662 17.546213
v 15.582925 0.495318 15.249281
v 17.697895 1.293610 15.446667
v 17.697895 0.496672 17.346258
v -11.887509 0.688144 -15.211241
v -9.554194 0.529147 -15.130417
v -9.554194 0.541449 -15.662940
v -11.892768 1.240924 -15.171063
v -9.564861 0.688131 -15.211161
v -11.892768 0.679297 -15.162392
v -11.551899 0.486592 -15.638576
v -11.599073 0.048492 -15.166727
v -11.556626 0.034252 -15.638583
v -9.942924 0.472347 -15.626628
v -9.900475 0.486594 -15.154783
v -9.895748 0.034241 -15.154781
v 12.247833 0.688131 -15.211161
v 9.914518 0.541448 -15.130416
v 9.914517 0.529147 -15.662940
v 9.925184 0.688144 -15.211241
v 12.253091 1.240924 -15.162392
v 12.253091 0.679297 -15.171063
v 10.260798 0.486594 -15.638574
v 10.303247 0.472347 -15.166727
v 10.256072 0.034241 -15.638576
v 11.959396 0.048492 -15.626628
v 11.912222 0.486592 -15.154781
v 11.916949 0.034252 -15.154774
v -3.396528 0.921070 -16.349047
v -3.297905 0.899335 -16.449982
v -3.348701 -0.000001 -16.390907
v 3.720228 -0.000001 -16.390907
v 3.672401 0.921070 -16.349047
v 3.771024 0.899335 -16.449982
v 15.307669 3.041619 -12.590712
v 9.646927 3.115664 -14.760945
v 9.646927 3.132643 -12.033273
v 10.079548 3.061324 -12.538749
v 10.215444 0.045515 -12.590712
v 10.235353 3.061324 -12.527843
v 15.169175 3.061324 -12.538749
v 15.305073 0.045515 -12.590712
v 15.324981 3.061324 -12.527843
v 10.687521 0.030610 -13.895080
v 10.691304 0.747933 -13.919822
v 10.663725 0.742635 -13.881702
v 10.686774 0.746527 -13.871616
v 10.705808 0.742805 -13.894600
v 10.708811 0.747580 -13.897971
v 10.708811 0.742830 -13.899571
v 10.706822 0.754283 -13.895896
v 10.658318 0.048084 -13.894626
v 10.699416 0.762590 -13.893764
v 10.674341 0.770691 -13.894938
v 10.664919 0.727978 -13.893805
v 10.677110 0.725064 -13.886892
v 10.663725 0.760500 -13.894431
v 10.657167 0.748013 -13.195672
v 10.658318 0.742830 -13.199722
v 10.660824 0.745205 -13.897001
v 10.658318 0.742635 -13.899376
v 10.654728 0.745717 -13.897001
v 10.656330 0.742830 -13.900084
v 10.656330 0.747580 -13.899937
v 10.701416 0.729910 -13.894431
v 10.706822 0.742830 -13.199722
v 10.696276 0.744927 -13.185112
v 11.465478 0.039966 -13.893122
v 11.507027 0.037768 -13.912386
v 11.495149 0.745864 -13.922708
v 11.471602 0.742635 -13.912300
v 11.488214 0.735088 -13.864460
v 11.466196 0.048084 -13.899376
v 11.475607 0.745205 -13.880562
v 11.514287 0.742805 -13.897964
v 11.512884 0.745205 -13.897001
v 11.513098 0.744693 -13.897001
v 11.514701 0.747580 -13.894431
v 11.514701 0.742830 -13.894431
v 11.497522 0.714839 -13.894588
v 11.506312 0.760908 -13.897001
v 11.488153 0.771773 -13.898049
v 11.492593 0.748317 -13.182369
v 11.462605 0.745205 -13.897513
v 11.466196 0.747580 -13.894431
v 11.468212 0.746440 -13.897001
v 11.464980 0.745205 -13.894431
v 11.464208 0.748406 -13.899376
v 11.464208 0.748406 -13.894626
v 11.466196 0.742830 -13.199722
v 11.508239 0.728372 -13.895020
v 12.302950 0.030615 -13.895391
v 12.274074 0.048084 -13.894626
v 12.300367 0.746954 -13.923322
v 12.322187 0.742805 -13.897907
v 12.320761 0.745205 -13.897001
v 12.308720 0.747738 -13.873339
v 12.320976 0.744693 -13.897001
v 12.322577 0.747580 -13.894431
v 12.322577 0.742830 -13.894431
v 12.279481 0.742635 -13.881702
v 12.274074 0.742830 -13.199722
v 12.273773 0.748816 -13.191672
v 12.288630 0.768858 -13.895206
v 12.279481 0.760500 -13.894431
v 12.299378 0.717413 -13.887879
v 12.276580 0.745205 -13.897001
v 12.274074 0.742635 -13.899376
v 12.270483 0.745717 -13.897001
v 12.272086 0.742830 -13.900084
v 12.272086 0.747580 -13.899937
v 12.313778 0.726551 -13.894431
v 12.315495 0.762710 -13.894542
v 12.314189 0.760908 -13.897001
v 13.110826 0.030615 -13.895391
v 13.108245 0.746954 -13.923322
v 13.130065 0.742805 -13.897907
v 13.128639 0.745205 -13.897001
v 13.128853 0.744693 -13.897001
v 13.130455 0.747580 -13.894431
v 13.130455 0.742830 -13.894431
v 13.116602 0.747738 -13.873343
v 13.081950 0.048084 -13.894626
v 13.087357 0.742635 -13.881702
v 13.121655 0.726551 -13.894431
v 13.123375 0.762709 -13.894542
v 13.122066 0.760908 -13.897001
v 13.107252 0.717416 -13.887873
v 13.084456 0.745205 -13.897001
v 13.081950 0.742635 -13.899376
v 13.078361 0.745717 -13.897001
v 13.079963 0.742830 -13.900084
v 13.079963 0.747580 -13.899937
v 13.081950 0.742830 -13.199722
v 13.081650 0.748816 -13.191672
v 13.096508 0.768858 -13.895205
v 13.087357 0.760500 -13.894431
v 13.918325 0.030616 -13.895514
v 13.918167 0.746475 -13.871538
v 13.921499 0.748193 -13.919816
v 13.889828 0.048084 -13.894626
v 13.895235 0.742635 -13.881702
v 13.941923 0.753944 -13.897001
v 13.939294 0.742103 -13.896923
v 13.938333 0.747580 -13.894431
v 13.938333 0.742830 -13.894431
v 13.909726 0.774761 -13.892861
v 13.931660 0.760204 -13.897001
v 13.895235 0.760500 -13.894431
v 13.889527 0.748816 -13.191672
v 13.910573 0.723900 -13.885173
v 13.892334 0.745205 -13.897001
v 13.889828 0.742635 -13.899376
v 13.886238 0.745717 -13.897001
v 13.887840 0.742830 -13.900084
v 13.887840 0.747580 -13.899937
v 13.929533 0.726551 -13.894431
v 13.889828 0.742830 -13.199722
v 13.931932 0.729902 -13.897001
v 14.696987 0.039967 -13.893122
v 14.697706 0.048084 -13.899376
v 14.738537 0.037769 -13.912387
v 14.726659 0.745864 -13.922709
v 14.707116 0.745205 -13.880562
v 14.719726 0.735088 -13.864460
v 14.703113 0.742635 -13.912300
v 14.739750 0.728372 -13.895019
v 14.719663 0.771772 -13.898049
v 14.724103 0.748317 -13.182369
v 14.729033 0.714839 -13.894588
v 14.694116 0.745205 -13.897513
v 14.697706 0.747580 -13.894431
v 14.699722 0.746440 -13.897001
v 14.696490 0.745205 -13.894431
v 14.695718 0.748406 -13.899376
v 14.695718 0.748406 -13.894626
v 14.697706 0.742830 -13.199722
v 14.745797 0.742805 -13.897964
v 14.744394 0.745205 -13.897001
v 14.744608 0.744693 -13.897001
v 14.746211 0.747580 -13.894431
v 14.746211 0.742830 -13.894431
v 14.737822 0.760908 -13.897001
v 15.534459 0.030615 -13.895391
v 15.531878 0.746954 -13.923322
v 15.553699 0.742805 -13.897907
v 15.552272 0.745205 -13.897001
v 15.552486 0.744693 -13.897001
v 15.554089 0.747580 -13.894431
v 15.554089 0.742830 -13.894431
v 15.540236 0.747738 -13.873343
v 15.510990 0.742635 -13.881702
v 15.530887 0.717415 -13.887875
v 15.508090 0.745205 -13.897001
v 15.505584 0.742635 -13.899376
v 15.501993 0.745717 -13.897001
v 15.503596 0.742830 -13.900084
v 15.503596 0.747580 -13.899937
v 15.505584 0.048084 -13.894626
v 15.545289 0.726551 -13.894431
v 15.547008 0.762710 -13.894542
v 15.545700 0.760908 -13.897001
v 15.520143 0.768858 -13.895205
v 15.510990 0.760500 -13.894431
v 15.505584 0.742830 -13.199722
v 15.505283 0.748816 -13.191672
v -15.980288 0.045515 -12.695085
v -16.782370 0.045515 -12.099565
v -15.980288 1.844719 -12.099565
v -16.681688 1.544852 -12.727182
v -16.686291 0.692809 -12.716082
v -16.076370 0.692809 -12.718431
vn -0.0693 -0.8247 -0.5613
vn 0.8482 -0.0000 -0.5296
vn -0.1976 0.5652 0.8009
vn 0.8489 -0.0000 -0.5285
vn -0.0693 -0.8246 -0.5614
vn 0.8490 -0.0000 -0.5284
vn 0.8339 -0.0001 -0.5519
vn 0.8339 -0.0002 -0.5519
vn 0.8339 0.0001 -0.5519
vn -0.1976 0.5651 0.8010
vn 0.8487 -0.0000 -0.5288
vn -0.0692 -0.8249 -0.5610
vn 0.0354 0.9994 0.0021
vn 0.0606 0.9976 0.0348
vn 0.2516 0.9665 0.0518
vn 0.9970 0.0487 0.0601
vn -0.2404 0.9704 0.0226
vn -0.6740 0.7387 0.0068
vn 0.0982 0.2654 -0.9591
vn -0.0240 0.1453 -0.9891
vn 0.1859 0.7430 -0.6430
vn -0.5551 0.8318 0.0057
vn -0.2500 0.9460 0.2063
vn -0.4554 0.7149 0.5306
vn -0.7936 -0.0212 0.6081
vn 0.0621 0.8618 0.5035
vn -0.2243 0.9532 0.2026
vn -0.2242 0.9532 0.2027
vn -0.2499 0.9460 0.2063
vn -0.4555 0.7148 0.5306
vn -0.7936 -0.0216 0.6080
vn 0.0620 0.8621 0.5029
vn -0.2242 0.9532 0.2026
vn -0.5432 0.4533 -0.7067
vn -0.1769 0.5896 0.7881
vn -0.2207 0.9752 0.0186
vn -0.6923 0.7215 0.0064
vn 0.6256 0.0292 0.7796
vn -0.0404 -0.9988 0.0294
vn 0.2021 -0.9791 0.0222
vn -0.2985 0.8633 -0.4069
vn -0.2985 0.8633 -0.4070
vn -0.2986 0.8633 -0.4069
vn -0.0023 -0.0005 -1.0000
vn -0.3191 0.2115 -0.9238
vn -0.5990 0.4444 -0.6662
vn -0.5429 0.4533 -0.7069
vn -0.2406 0.9704 0.0223
vn -0.6737 0.7389 0.0068
vn -0.5430 0.4533 -0.7069
vn 0.0497 0.9987 0.0097
vn 0.0692 0.9968 0.0401
vn 0.2624 0.9635 0.0524
vn -0.5430 0.4532 -0.7069
vn 0.9971 0.0487 0.0584
vn 0.1916 0.9437 0.2696
vn -0.7014 0.7127 0.0062
vn -0.2982 0.8635 -0.4067
vn -0.0015 -0.0017 -1.0000
vn -0.3191 0.2116 -0.9238
vn -0.5987 0.4443 -0.6664
vn -0.5426 0.4529 -0.7074
vn 0.0981 0.2655 -0.9591
vn -0.0243 0.1454 -0.9891
vn 0.0981 0.2653 -0.9592
vn -0.0243 0.1453 -0.9891
vn 0.1860 0.7427 -0.6433
vn 0.1662 0.3813 -0.9094
vn 0.1663 0.3811 -0.9095
vn 0.1663 0.3812 -0.9094
vn 0.0893 0.2427 0.9660
vn 0.6459 0.7502 -0.1413
vn -0.4362 -0.4636 -0.7713
vn 0.7124 0.3290 -0.6199
vn 0.7125 0.3289 -0.6199
vn 0.7126 0.3288 -0.6198
vn 0.7126 0.3290 -0.6196
vn 0.4119 0.3857 0.8256
vn 0.0897 0.2420 0.9661
vn 0.6468 0.7495 -0.1411
vn 0.7124 0.3289 -0.6199
vn 0.2025 -0.6465 -0.7356
vn 0.9096 -0.4022 -0.1039
vn 0.5020 -0.8243 0.2618
vn 0.8758 -0.4732 -0.0951
vn 0.4535 -0.2449 0.8570
vn 0.5017 -0.8246 0.2614
vn 0.8757 -0.4735 -0.0946
vn 0.4532 -0.2450 0.8571
vn 0.8661 -0.3601 -0.3467
vn 0.9094 -0.4026 -0.1041
vn 0.5018 -0.8244 0.2619
vn 0.8758 -0.4732 -0.0948
vn 0.4534 -0.2449 0.8570
vn -0.0196 -0.0068 -0.9998
vn -0.5132 -0.0262 -0.8579
vn -0.0137 -0.0086 -0.9999
vn -1.0000 -0.0001 0.0028
vn 1.0000 -0.0006 0.0028
vn -0.9932 -0.0020 -0.1167
vn 0.1215 0.0292 0.9922
vn 0.9768 -0.2117 0.0320
vn 0.9097 0.4143 0.0278
vn -0.0306 -0.0068 -0.9995
vn -0.6586 -0.0309 -0.7518
vn -0.0267 -0.0089 -0.9996
vn -0.0070 0.0029 1.0000
vn -0.0354 -0.0068 -0.9994
vn -0.5288 -0.0258 -0.8483
vn -0.0299 -0.0085 -0.9995
vn -0.2799 -0.3768 -0.8830
vn -0.1117 0.0604 0.9919
vn 0.0326 -0.0136 0.9994
vn -0.9931 -0.0020 -0.1173
vn 0.1210 0.0289 0.9922
vn 0.9768 -0.2116 0.0320
vn -0.6586 -0.0309 -0.7519
vn -0.0268 -0.0089 -0.9996
vn -0.0070 0.0030 1.0000
vn -0.0000 -0.0000 -0.0000
vn -1.0000 -0.0000 -0.0000
vn -0.0000 -0.0156 -0.9999
vn -0.0000 -0.0114 -0.9999
vn -0.0000 -0.0227 -0.9997
vn -0.0000 -0.0060 -1.0000
vn -0.0000 -0.0046 -1.0000
vn -0.0000 -0.0089 -1.0000
vn 0.9923 -0.1240 -0.0000
vn 0.9701 -0.2425 -0.0000
vn -0.0000 1.0000 -0.0000
vn -0.9922 0.0078 -0.1240
vn -0.0000 0.0624 -0.9981
vn -0.9981 -0.0000 -0.0624
vn 1.0000 -0.0000 -0.0000
vn 0.9980 -0.0078 0.0624
vn 0.9979 -0.0156 0.0624
vn -0.2408 -0.1204 -0.9631
vn -0.8944 -0.4472 -0.0000
vn -0.2425 -0.0000 -0.9701
vn -0.0000 0.0312 0.9995
vn -0.0000 0.0624 0.9981
vn -0.0000 -0.0096 1.0000
vn -0.0000 -0.0104 0.9999
vn -0.0000 -0.0089 1.0000
vn -0.0168 -0.9999 -0.0000
vn -0.0153 -0.9999 -0.0000
vn -0.0181 -0.9998 -0.0000
vn -0.0000 -0.0486 -0.9988
vn -0.0000 -0.0416 -0.9991
vn -0.0161 0.9999 -0.0000
vn -0.0176 0.9998 -0.0000
vn -0.0203 0.9998 -0.0000
vn 0.9872 -0.0405 0.1543
vn -0.0000 -0.2234 0.9747
vn -0.9826 0.0230 0.1842
vn -0.0000 0.1138 0.9935
vn 0.9827 0.0173 -0.1843
vn 0.9768 0.0172 -0.2137
vn -0.0000 0.0933 -0.9956
vn -0.2846 0.0037 -0.9586
vn -1.0000 0.0078 -0.0000
vn -0.2707 0.0019 -0.9626
vn -0.2282 0.0038 -0.9736
vn -0.1991 0.0019 -0.9800
vn -0.2137 0.0038 -0.9769
vn -0.0000 -1.0000 -0.0000
vn 0.8936 0.0436 0.4468
vn 0.9046 0.0424 0.4241
vn -0.0000 0.0954 0.9954
vn -0.1544 0.0039 -0.9880
vn -0.1240 0.0019 -0.9923
vn -0.1393 0.0039 -0.9902
vn 0.8938 0.0367 -0.4469
vn 0.8825 0.0379 -0.4688
vn 0.9048 0.0371 -0.4241
vn -0.9542 0.0224 0.2982
vn -0.9455 0.0222 0.3250
vn 0.1382 0.9904 -0.0000
vn 0.1339 0.9910 -0.0000
vn 0.1359 0.9907 -0.0000
vn -0.9623 -0.0263 0.2707
vn -0.0000 -0.1087 0.9941
vn -0.0960 -0.9954 -0.0000
vn -0.0974 -0.9952 -0.0000
vn -0.0991 -0.9951 -0.0000
vn -0.9939 -0.0165 -0.1087
vn -0.9921 -0.0174 -0.1240
vn -0.9764 -0.0305 -0.2136
vn 0.0821 0.9966 -0.0000
vn 0.0803 0.9968 -0.0000
vn 0.0811 0.9967 -0.0000
vn -0.0000 -0.0476 0.9989
vn -0.0000 -0.0482 0.9988
vn -0.0836 0.9965 -0.0000
vn -0.0831 0.9965 -0.0000
vn -0.0840 0.9965 -0.0000
vn -0.0000 0.0748 0.9972
vn 0.0235 0.9997 -0.0000
vn 0.0254 0.9997 -0.0000
vn 0.0215 0.9998 -0.0000
vn 0.9940 0.0068 -0.1087
vn 0.9940 0.0078 -0.1087
vn 0.9768 0.0153 -0.2137
vn 0.0084 1.0000 -0.0000
vn 0.0115 0.9999 -0.0000
vn -0.7509 -0.0660 -0.6571
vn -0.7393 -0.0679 -0.6700
vn 0.1121 0.9937 -0.0000
vn 0.1110 0.9938 -0.0000
vn 0.1111 0.9938 -0.0000
vn -0.8695 -0.0696 0.4891
vn -0.8692 -0.0730 0.4890
vn -0.8691 -0.0747 0.4889
vn -0.0000 -0.0000 1.0000
vn -0.8944 -0.0000 0.4472
vn -0.8831 -0.0000 0.4692
vn 0.1067 0.9943 -0.0000
vn -0.0000 0.1093 -0.9940
vn -0.0000 0.1113 -0.9938
vn -0.0000 0.1075 -0.9942
vn 0.0795 0.9968 -0.0000
vn 0.0794 0.9968 -0.0000
vn 0.0764 0.9971 -0.0000
vn 0.9980 0.0029 0.0624
vn 0.9923 0.0058 0.1240
vn 0.1061 -0.9944 -0.0000
vn 0.0994 -0.9950 -0.0000
vn 0.1068 -0.9943 -0.0000
vn -0.0000 0.1843 -0.9829
vn -0.0000 0.1604 -0.9871
vn -0.0000 0.1694 -0.9855
vn -0.0670 -0.9978 -0.0000
vn -0.0688 -0.9976 -0.0000
vn -0.0687 -0.9976 -0.0000
vn -0.0000 -0.1013 -0.9949
vn -0.0000 -0.1005 -0.9949
vn -0.0000 -0.0981 -0.9952
vn 0.1013 -0.9949 -0.0000
vn 0.1054 -0.9944 -0.0000
vn 0.1016 -0.9948 -0.0000
vn -0.0000 -0.0945 0.9955
vn -0.0000 -0.0957 0.9954
vn -0.0000 -0.0933 0.9956
vn -0.2356 -0.9719 -0.0000
vn -0.2522 -0.9677 -0.0000
vn -0.2506 -0.9681 -0.0000
vn -0.9450 -0.0388 -0.3248
vn -0.9449 -0.0406 -0.3248
vn -0.9537 -0.0391 -0.2980
vn -0.0528 -0.9986 -0.0000
vn -0.0508 -0.9987 -0.0000
vn -0.0483 -0.9988 -0.0000
vn -0.8826 -0.0345 0.4689
vn -0.8825 -0.0379 0.4688
vn -0.8710 -0.0374 0.4899
vn -0.2440 -0.9698 -0.0000
vn -0.2417 -0.9704 -0.0000
vn -0.2459 -0.9693 -0.0000
vn -0.0000 -0.5780 -0.8160
vn -0.0000 -0.5665 -0.8240
vn -0.0000 -0.6000 -0.8000
vn -0.1172 0.9931 -0.0000
vn -0.1225 0.9925 -0.0000
vn -0.1160 0.9932 -0.0000
vn 0.7519 -0.0411 0.6579
vn 0.9106 -0.0258 0.4126
vn 0.9105 -0.0267 0.4126
vn 0.2287 -0.9735 -0.0000
vn 0.2260 -0.9741 -0.0000
vn 0.2276 -0.9738 -0.0000
vn 0.8224 0.0626 0.5654
vn 0.8223 0.0658 0.5653
vn -0.0000 0.1124 0.9937
vn 0.1800 -0.9837 -0.0000
vn 0.1849 -0.9828 -0.0000
vn 0.1797 -0.9837 -0.0000
vn -0.9452 0.0323 -0.3249
vn -0.9788 0.0210 -0.2039
vn -0.9541 0.0298 -0.2981
vn -0.0000 0.0468 -0.9989
vn 1.0000 -0.0051 -0.0000
vn 1.0000 -0.0022 -0.0000
vn 1.0000 -0.0023 -0.0000
vn 0.3122 0.9500 -0.0000
vn 0.2970 0.8925 0.3395
vn 0.2983 0.9017 0.3130
vn -0.0000 -0.0830 -0.9965
vn -0.0000 -0.0779 -0.9970
vn 0.0209 -0.9998 -0.0000
vn 0.0194 -0.9998 -0.0000
vn 0.0221 -0.9998 -0.0000
vn 0.9854 -0.0164 0.1694
vn 0.9879 -0.0164 0.1544
vn 0.9453 -0.0295 0.3249
vn -0.0000 0.0156 -0.9999
vn -0.0000 0.0234 -0.9997
vn 0.9981 0.0010 -0.0624
vn 0.9981 0.0005 -0.0624
vn -0.0000 0.6000 -0.8000
vn -0.0000 0.8347 -0.5507
vn -0.0000 0.7231 -0.6907
vn -0.0000 -0.0000 -1.0000
vn -0.0000 0.0078 -1.0000
vn -0.0000 -0.0078 -1.0000
vn 0.9923 0.0010 0.1240
vn -0.0000 0.0156 0.9999
vn 0.9981 0.0005 0.0624
vn -0.0000 0.0078 1.0000
vn -0.0000 -0.0078 1.0000
vn -0.0000 -0.0156 0.9999
vn 0.9222 0.3458 -0.1729
vn 0.9091 0.3806 -0.1691
vn 0.9045 0.3877 -0.1777
vn 0.8642 0.4609 -0.2017
vn 0.8779 0.4283 -0.2141
vn 0.8681 0.4502 -0.2090
vn -0.0000 0.0429 0.9991
vn -0.0000 0.0546 0.9985
vn -0.9999 -0.0156 -0.0000
vn -0.9999 -0.0117 -0.0000
vn 0.3162 -0.0000 -0.9487
vn 0.2182 -0.8729 -0.4364
vn -0.0000 -0.8944 -0.4472
vn -0.7071 -0.0000 -0.7071
vn 0.8321 0.5547 -0.0000
vn 0.8000 0.6000 -0.0000
vn 0.7071 0.7071 -0.0000
vn -0.1655 0.0009 0.9862
vn -0.1550 0.0008 0.9879
vn -0.3484 0.9363 0.0436
vn -0.3298 0.9431 0.0412
vn 0.0312 0.0623 0.9976
vn 0.4472 0.8944 -0.0000
vn 0.0312 0.0468 0.9984
vn -0.4831 0.8756 -0.0000
vn -0.7410 0.6715 -0.0000
vn -0.7210 0.6929 -0.0000
vn -0.2372 0.4521 0.8598
vn -0.0000 0.4536 0.8912
vn -0.2468 0.4395 0.8637
vn -0.9091 -0.0000 0.4167
vn -0.9055 -0.0000 0.4244
vn -0.9033 -0.0000 0.4291
vn 0.0044 -0.0186 0.9998
vn 0.8753 -0.0228 0.4830
vn 0.3265 -0.0343 -0.9446
vn -0.9562 0.0020 0.2926
vn -0.2673 0.9317 -0.2457
vn 0.9047 0.4258 0.0146
vn 0.6781 0.7347 0.0213
vn -0.2749 -0.1831 -0.9439
vn -0.0461 -0.1762 -0.9833
vn -0.0124 -0.1743 -0.9846
vn 0.9191 -0.3939 0.0002
vn 0.9225 -0.3861 -0.0000
vn 0.8547 -0.1593 0.4940
vn 0.3527 0.6909 0.6311
vn -0.9047 -0.4232 0.0490
vn -0.7518 -0.6576 0.0490
vn -0.9223 0.3865 -0.0017
vn -0.0846 -0.9346 0.3456
vn 0.7415 -0.3327 0.5827
vn 0.1441 -0.8202 0.5537
vn 0.6670 -0.6871 -0.2882
vn -0.0441 -0.0147 0.9989
vn -0.9126 -0.0448 -0.4063
vn -0.7360 -0.0369 -0.6760
vn -0.3537 -0.2657 -0.8968
vn -0.9721 -0.2346 -0.0000
vn 0.5719 0.8096 0.1323
vn -0.8234 0.0035 0.5675
vn 0.0006 0.9999 0.0104
vn -0.0457 0.9984 0.0330
vn 0.1682 -0.0835 -0.9822
vn 0.0572 -0.0631 -0.9964
vn 0.7343 -0.5023 -0.4566
vn 0.1124 -0.9936 -0.0138
vn -0.6736 -0.7385 0.0293
vn -0.7382 0.6740 0.0267
vn -0.4417 -0.4075 0.7993
vn 0.0152 -0.0187 0.9997
vn 0.5938 0.8041 -0.0293
vn 0.0400 0.9986 0.0354
vn -0.0000 1.0000 -0.0084
vn 0.0580 -0.0387 -0.9976
vn 0.0141 0.9947 -0.1019
vn 0.7691 0.5856 0.2559
vn -0.0171 -0.1997 -0.9797
vn 0.0581 -0.2238 -0.9729
vn -0.4498 -0.8931 -0.0048
vn 0.9970 -0.0539 0.0553
vn -0.9224 0.3863 -0.0011
vn 0.0412 -0.1184 -0.9921
vn 0.4253 0.6405 0.6394
vn 0.4253 0.6404 0.6395
vn 0.5942 0.8038 -0.0291
vn 0.0399 0.9986 0.0353
vn 0.0134 0.9949 -0.1002
vn 0.7692 0.5856 0.2559
vn -0.0172 -0.1998 -0.9797
vn 0.0581 -0.2240 -0.9728
vn 0.0412 -0.1185 -0.9921
vn 0.4256 0.6408 0.6390
vn 0.0197 -0.0187 0.9996
vn 0.3132 -0.0301 0.9492
vn 0.3198 -0.0075 0.9475
vn 0.2306 -0.0325 0.9725
vn 0.2264 -0.0335 -0.9734
vn -0.2764 0.9328 -0.2311
vn -0.9329 -0.0000 -0.3600
vn 0.3609 0.0006 -0.9326
vn 0.3612 0.0008 -0.9325
vn 0.3669 0.0033 -0.9303
vn -0.4528 0.2448 -0.8573
vn -0.1171 -0.0554 -0.9916
vn 0.0568 -0.1782 -0.9823
vn -0.0601 0.1882 -0.9803
vn 0.3280 0.7065 0.6271
vn -0.4835 -0.0043 -0.8753
vn -0.1083 -0.2506 -0.9620
vn 0.9970 -0.0538 0.0555
vn 0.1442 -0.8202 0.5536
vn -0.8233 0.0035 0.5675
vn 0.6670 -0.6872 -0.2881
vn -0.3537 -0.2658 -0.8968
vn 0.5728 0.8089 0.1325
vn -0.7359 -0.0367 -0.6761
vn -0.9723 -0.2338 -0.0000
vn 0.7343 -0.5022 -0.4567
vn 0.0572 -0.0630 -0.9964
vn -0.6736 -0.7386 0.0293
vn -0.4429 -0.4074 0.7987
vn 0.5937 0.8041 -0.0291
vn 0.0130 0.9949 -0.0998
vn -0.0172 -0.1997 -0.9797
vn 0.0581 -0.2239 -0.9729
vn 0.0581 -0.0385 -0.9976
vn 0.4256 0.6409 0.6389
vn -0.8439 0.1714 -0.5084
vn -0.7563 -0.3155 0.5732
vn -0.7563 -0.3148 0.5735
vn -0.7563 -0.3150 0.5734
vn 0.1651 0.9807 0.1049
vn 0.1653 0.9807 0.1047
vn 0.1652 0.9807 0.1048
vn -0.5607 -0.0372 0.8272
vn -0.5606 -0.0373 0.8272
vn 0.0544 0.6486 -0.7591
vn 0.8816 -0.0146 0.4717
vn 0.8178 0.5669 -0.0994
vn 0.8627 0.3552 0.3599
vn 0.7140 0.2970 0.6340
vn -0.1438 0.8579 -0.4933
vn -0.0995 -0.8425 -0.5294
vn 0.8941 -0.4478 -0.0000
vn 0.8165 0.5692 -0.0963
vn 0.8484 0.3542 0.3933
vn 0.8501 0.3534 0.3904
vn -0.6232 -0.2689 0.7344
vn 0.0544 0.6485 -0.7593
vn 0.8810 -0.0142 0.4729
vn 0.8163 0.5696 -0.0961
vn 0.8431 0.3554 0.4036
vn 0.8431 0.3554 0.4037
vn 0.8473 0.3535 0.3963
vn -0.6229 -0.2695 0.7344
vn -0.6229 -0.2696 0.7344
vn 0.8814 -0.0146 0.4721
vn -0.7793 -0.3680 0.5072
vn -0.7792 -0.3682 0.5072
vn -0.7795 -0.3675 0.5073
vn -0.7367 0.3692 0.5665
vn -0.5498 -0.0069 0.8353
vn -0.5497 -0.0070 0.8353
vn -0.1440 0.8582 -0.4928
vn -0.0995 -0.8426 -0.5293
vn 0.8940 -0.4481 -0.0000
vn 0.8174 0.5673 -0.0996
vn 0.8586 0.3568 0.3681
vn 0.8586 0.3567 0.3681
vn 0.7160 0.2970 0.6317
vn 0.8162 0.5699 -0.0953
vn 0.8499 0.3565 0.3881
vn 0.8468 0.3563 0.3949
vn -0.6225 -0.2687 0.7350
vn 0.8810 -0.0145 0.4728
vn -0.2077 0.9782 0.0067
vn 0.7477 -0.0251 -0.6636
vn -0.7880 -0.6140 0.0464
vn 0.6785 0.5781 -0.4533
vn 0.0443 0.9990 -0.0050
vn -0.6356 0.5989 0.4871
vn 0.6649 0.5747 -0.4770
vn -0.7793 -0.6252 0.0428
vn 0.6651 0.5745 -0.4772
vn -0.7697 -0.6373 0.0391
vn 0.6789 0.5775 -0.4534
vn 0.0442 0.9990 -0.0053
vn -0.6357 0.5989 0.4870
vn 0.6651 0.5745 -0.4771
vn -0.4027 0.8015 -0.4420
vn -0.4582 0.4391 -0.7728
vn -0.5563 0.6929 -0.4588
vn 0.2460 -0.0100 -0.9692
vn -0.4697 0.8009 -0.3713
vn -0.4676 0.4409 -0.7661
vn -0.4700 0.8009 -0.3711
vn -0.4699 0.8009 -0.3711
vn -0.4674 0.4408 -0.7663
vn -0.4171 0.8018 -0.4280
vn -0.3032 0.4033 -0.8634
vn -0.5564 0.6926 -0.4590
vn 0.2460 -0.0104 -0.9692
vn 0.1360 0.3242 -0.9362
vn 0.6491 0.2719 -0.7105
vn 0.6494 0.2722 -0.7100
vn 0.6490 0.2721 -0.7104
vn 0.8263 0.3467 -0.4438
vn 0.6491 0.2721 -0.7104
vn 0.6495 0.2723 -0.7100
vn 0.2363 -0.0316 0.9712
vn -0.3961 -0.0304 0.9177
vn 0.2930 -0.0310 0.9556
vn -0.3120 0.0937 -0.9455
vn 0.3946 -0.3395 -0.8538
vn 0.4086 -0.0312 0.9122
vn -0.2701 -0.0273 0.9625
vn 0.3461 -0.0315 0.9377
vn -0.4289 0.0290 -0.9029
vn -0.4289 0.0293 -0.9029
vn -0.4289 0.0289 -0.9029
vn 0.4088 -0.0313 0.9121
vn -0.2699 -0.0273 0.9625
vn 0.3462 -0.0316 0.9376
vn -0.4291 0.0295 -0.9028
vn -0.4291 0.0296 -0.9028
vn -0.4290 0.0295 -0.9028
vn -0.4007 -0.0308 0.9157
vn 0.5278 -0.4092 0.7443
vn 0.5279 -0.4088 0.7445
vn 0.5279 -0.4089 0.7444
vn 0.3946 -0.3393 -0.8539
vn 0.4088 -0.0315 0.9121
vn -0.2703 -0.0274 0.9624
vn 0.3462 -0.0315 0.9376
vn -0.4294 0.0294 -0.9026
vn 0.8415 -0.0231 -0.5397
vn -0.5551 -0.0057 -0.8318
vn -0.9760 -0.2176 0.0013
vn 0.2046 0.9788 0.0072
vn 0.7971 -0.0200 0.6036
vn -1.0000 -0.0028 -0.0000
vn 0.8866 -0.0213 0.4620
vn -0.5548 -0.0057 -0.8320
vn -0.9986 -0.0534 0.0025
vn 0.8867 -0.0213 0.4619
vn -0.5550 -0.0057 -0.8318
vn 0.7971 -0.0200 0.6035
vn 0.8869 -0.0214 0.4615
vn -0.0884 -0.3182 0.9439
vn 0.7684 -0.0202 0.6397
vn -0.7391 -0.0105 -0.6735
vn -0.7972 0.5522 0.2440
vn 0.4873 -0.2791 0.8274
vn 0.2894 -0.1491 -0.9455
vn 0.6081 -0.0225 0.7935
vn 0.7912 0.0044 -0.6115
vn 0.6669 0.2053 0.7163
vn 0.0099 -0.0000 -1.0000
vn 0.0099 -0.0001 -1.0000
vn -0.8901 0.4557 0.0031
vn -0.6617 0.3389 -0.6689
vn -0.7971 0.5524 0.2439
vn -0.2711 -0.0001 -0.9626
vn -0.2711 -0.0001 -0.9625
vn -0.2711 -0.0002 -0.9625
vn 0.5867 -0.0130 0.8097
vn 0.7567 -0.0227 -0.6534
vn -0.2711 -0.0003 -0.9625
vn 0.5862 -0.0130 0.8101
vn -0.7973 0.5522 0.2439
vn 0.0240 0.0013 0.9997
vn 0.8945 -0.1964 0.4015
vn 0.3593 -0.0000 -0.9332
vn 0.7913 0.0044 -0.6115
vn 0.6668 0.2053 0.7164
vn -0.8903 0.4554 0.0031
vn -0.6617 0.3389 -0.6688
vn -0.2706 -0.0001 -0.9627
vn -0.2706 -0.0002 -0.9627
vn -0.2706 -0.0004 -0.9627
vn 0.5853 -0.0129 0.8107
vn 0.7564 -0.0227 -0.6537
vt 0.983594 0.014057
vt 0.983594 0.014054
vt 0.983580 0.014046
vt 0.978888 0.076072
vt 0.978877 0.076085
vt 0.978877 0.076063
vt 0.983589 0.034175
vt 0.983591 0.034170
vt 0.983580 0.034161
vt 0.978888 0.083387
vt 0.978877 0.083400
vt 0.978877 0.083378
vt 0.983594 0.022103
vt 0.983594 0.022100
vt 0.983580 0.022092
vt 0.978888 0.090702
vt 0.978877 0.090715
vt 0.978877 0.090693
vt 0.983594 0.030149
vt 0.983594 0.030146
vt 0.983580 0.030138
vt 0.983624 0.010030
vt 0.983607 0.010041
vt 0.983629 0.010046
vt 0.983594 0.026126
vt 0.983594 0.026123
vt 0.983580 0.026115
vt 0.983589 0.038190
vt 0.983591 0.038185
vt 0.983580 0.038176
vt 0.978888 0.098017
vt 0.978877 0.098030
vt 0.978877 0.098008
vt 0.978888 0.105331
vt 0.978877 0.105345
vt 0.978877 0.105323
vt 0.983594 0.018080
vt 0.983594 0.018077
vt 0.983580 0.018069
vt 0.975758 0.120007
vt 0.975751 0.119870
vt 0.975757 0.119938
vt 0.978900 0.132460
vt 0.975675 0.132532
vt 0.975686 0.132520
vt 0.975664 0.861010
vt 0.975751 0.861080
vt 0.975660 0.861023
vt 0.978879 0.153148
vt 0.975674 0.153170
vt 0.975659 0.153159
vt 0.978879 0.157320
vt 0.975674 0.157342
vt 0.975659 0.157331
vt 0.975860 0.852608
vt 0.975820 0.852668
vt 0.975717 0.852649
vt 0.975681 0.945022
vt 0.975663 0.945100
vt 0.975753 0.944965
vt 0.975800 0.949360
vt 0.975730 0.949375
vt 0.975679 0.949265
vt 0.975800 0.953565
vt 0.975730 0.953580
vt 0.975679 0.953470
vt 0.975728 0.961974
vt 0.975668 0.961935
vt 0.975688 0.961831
vt 0.975681 0.940811
vt 0.975663 0.940890
vt 0.975753 0.940755
vt 0.975800 0.957769
vt 0.975730 0.957784
vt 0.975679 0.957675
vt 0.975829 0.848466
vt 0.975892 0.848405
vt 0.975894 0.848420
vt 0.978900 0.124113
vt 0.975675 0.124188
vt 0.975686 0.124176
vt 0.975671 0.211553
vt 0.978882 0.211585
vt 0.978877 0.211642
vt 0.975725 0.945163
vt 0.975661 0.945102
vt 0.975825 0.945141
vt 0.975667 0.153239
vt 0.975662 0.153165
vt 0.975805 0.861083
vt 0.975873 0.861027
vt 0.975873 0.861043
vt 0.978900 0.128288
vt 0.975675 0.128360
vt 0.975686 0.128348
vt 0.975805 0.869491
vt 0.975873 0.869435
vt 0.975873 0.869450
vt 0.975758 0.112709
vt 0.975751 0.112570
vt 0.975761 0.112649
vt 0.975806 0.856880
vt 0.975874 0.856823
vt 0.975874 0.856838
vt 0.978900 0.140804
vt 0.975675 0.140876
vt 0.975686 0.140864
vt 0.975725 0.940952
vt 0.975661 0.940892
vt 0.975825 0.940930
vt 0.975667 0.157411
vt 0.975662 0.157337
vt 0.975805 0.865287
vt 0.975873 0.865231
vt 0.975873 0.865246
vt 0.978900 0.136632
vt 0.975675 0.136704
vt 0.975685 0.136692
vt 0.975664 0.869418
vt 0.975751 0.869487
vt 0.975659 0.869431
vt 0.975664 0.865214
vt 0.975751 0.865283
vt 0.975659 0.865227
vt 0.975659 0.848361
vt 0.975771 0.848462
vt 0.975671 0.848397
vt 0.975731 0.986092
vt 0.975659 0.986104
vt 0.975666 0.986092
vt 0.975856 0.932493
vt 0.975775 0.932358
vt 0.975872 0.932494
vt 0.975731 0.994116
vt 0.975659 0.994128
vt 0.975666 0.994116
vt 0.983652 0.002000
vt 0.983580 0.002012
vt 0.983587 0.002000
vt 0.975736 0.112638
vt 0.975677 0.112650
vt 0.975666 0.112638
vt 0.983652 0.006012
vt 0.983580 0.006024
vt 0.983587 0.006012
vt 0.975856 0.936693
vt 0.975775 0.936558
vt 0.975872 0.936694
vt 0.975731 0.990104
vt 0.975659 0.990116
vt 0.975666 0.990104
vt 0.975816 0.119949
vt 0.975736 0.119954
vt 0.978877 0.076005
vt 0.978893 0.076063
vt 0.976236 0.083381
vt 0.978893 0.083378
vt 0.976236 0.090696
vt 0.978893 0.090693
vt 0.975758 0.112638
vt 0.975816 0.112650
vt 0.975707 0.112650
vt 0.978877 0.097949
vt 0.978893 0.098008
vt 0.976236 0.105325
vt 0.978893 0.105323
vt 0.978877 0.161516
vt 0.975673 0.161494
vt 0.978877 0.161542
vt 0.978891 0.124094
vt 0.975660 0.124115
vt 0.975659 0.124094
vt 0.975758 0.116732
vt 0.975758 0.119961
vt 0.975659 0.148999
vt 0.978890 0.148977
vt 0.978894 0.148997
vt 0.975665 0.076079
vt 0.978877 0.165688
vt 0.975673 0.165666
vt 0.978883 0.165701
vt 0.978891 0.128266
vt 0.975660 0.128288
vt 0.975659 0.128266
vt 0.978877 0.169860
vt 0.975673 0.169838
vt 0.978878 0.169875
vt 0.978891 0.132438
vt 0.975660 0.132460
vt 0.975659 0.132438
vt 0.978877 0.174032
vt 0.975673 0.174010
vt 0.978878 0.174047
vt 0.978891 0.140782
vt 0.975660 0.140804
vt 0.975659 0.140782
vt 0.975741 0.109427
vt 0.975659 0.144902
vt 0.978890 0.144880
vt 0.978894 0.144900
vt 0.975665 0.098024
vt 0.978877 0.178204
vt 0.975673 0.178183
vt 0.978878 0.178219
vt 0.978891 0.136610
vt 0.975660 0.136632
vt 0.975659 0.136610
vt 0.405458 0.572399
vt 0.488015 0.407286
vt 0.570571 0.572399
vt 0.378010 0.572308
vt 0.212969 0.489747
vt 0.378010 0.407187
vt 0.002009 0.541074
vt 0.061964 0.407318
vt 0.121926 0.541070
vt 0.002009 0.678782
vt 0.061964 0.545089
vt 0.121926 0.678780
vt 0.048095 0.682790
vt 0.043834 0.812852
vt 0.039577 0.682790
vt 0.146653 0.537380
vt 0.142396 0.407322
vt 0.150914 0.407318
vt 0.268594 0.799022
vt 0.264337 0.682802
vt 0.272849 0.682802
vt 0.189177 0.799023
vt 0.193435 0.682798
vt 0.197692 0.799024
vt 0.035573 0.682790
vt 0.031312 0.812852
vt 0.027055 0.682790
vt 0.159187 0.537380
vt 0.154930 0.407322
vt 0.163448 0.407318
vt 0.205965 0.799024
vt 0.201708 0.682798
vt 0.210223 0.682799
vt 0.276857 0.799023
vt 0.281112 0.682802
vt 0.285368 0.799020
vt 0.018793 0.682790
vt 0.023047 0.812851
vt 0.014534 0.812854
vt 0.129859 0.537378
vt 0.134121 0.407320
vt 0.138380 0.537383
vt 0.256074 0.799022
vt 0.251818 0.682802
vt 0.260330 0.682802
vt 0.214239 0.799023
vt 0.218496 0.682798
vt 0.222754 0.799024
vt 0.060617 0.682790
vt 0.056356 0.812852
vt 0.052099 0.682790
vt 0.006265 0.812860
vt 0.002008 0.682802
vt 0.010526 0.682798
vt 0.243555 0.799022
vt 0.239299 0.682802
vt 0.247811 0.682802
vt 0.226770 0.799023
vt 0.231027 0.682798
vt 0.235284 0.799024
vt 0.850611 0.909443
vt 0.851282 0.909441
vt 0.850948 0.950928
vt 0.770848 0.909443
vt 0.771523 0.909443
vt 0.771185 0.950928
vt 0.808383 0.909443
vt 0.809058 0.909443
vt 0.808720 0.950928
vt 0.827151 0.909443
vt 0.827821 0.909441
vt 0.827488 0.950928
vt 0.775540 0.909443
vt 0.776215 0.909443
vt 0.775877 0.950928
vt 0.845919 0.909443
vt 0.846589 0.909441
vt 0.846256 0.950928
vt 0.780232 0.909443
vt 0.780907 0.909443
vt 0.780568 0.950928
vt 0.869378 0.909443
vt 0.870049 0.909441
vt 0.869715 0.950928
vt 0.817767 0.909443
vt 0.818442 0.909443
vt 0.818104 0.950928
vt 0.831843 0.909443
vt 0.832513 0.909441
vt 0.832180 0.950928
vt 0.836535 0.909443
vt 0.837206 0.909441
vt 0.836872 0.950928
vt 0.738004 0.909443
vt 0.738680 0.909443
vt 0.738341 0.950928
vt 0.761464 0.909443
vt 0.762139 0.909443
vt 0.761801 0.950928
vt 0.874070 0.909443
vt 0.874741 0.909441
vt 0.874407 0.950928
vt 0.766156 0.909443
vt 0.766831 0.909443
vt 0.766493 0.950928
vt 0.902222 0.909443
vt 0.902893 0.909441
vt 0.902559 0.950928
vt 0.784924 0.909443
vt 0.785599 0.909443
vt 0.785260 0.950928
vt 0.878762 0.909443
vt 0.879434 0.909441
vt 0.879099 0.950928
vt 0.752080 0.909443
vt 0.752755 0.909443
vt 0.752417 0.950928
vt 0.864687 0.909443
vt 0.865358 0.909441
vt 0.865023 0.950928
vt 0.747388 0.909443
vt 0.748063 0.909443
vt 0.747725 0.950928
vt 0.883454 0.909443
vt 0.884125 0.909441
vt 0.883791 0.950928
vt 0.855303 0.909443
vt 0.855973 0.909441
vt 0.855639 0.950928
vt 0.756772 0.909443
vt 0.757447 0.909443
vt 0.757109 0.950928
vt 0.888146 0.909443
vt 0.888817 0.909441
vt 0.888483 0.950928
vt 0.803692 0.909443
vt 0.804367 0.909443
vt 0.804029 0.950928
vt 0.742696 0.909443
vt 0.743371 0.909443
vt 0.743033 0.950928
vt 0.892838 0.909443
vt 0.893509 0.909441
vt 0.893175 0.950928
vt 0.789616 0.909443
vt 0.790291 0.909443
vt 0.789953 0.950928
vt 0.897530 0.909443
vt 0.898201 0.909441
vt 0.897867 0.950928
vt 0.841227 0.909443
vt 0.841897 0.909441
vt 0.841564 0.950928
vt 0.794308 0.909443
vt 0.794983 0.909443
vt 0.794644 0.950928
vt 0.822459 0.909443
vt 0.823130 0.909441
vt 0.822796 0.950929
vt 0.799000 0.909443
vt 0.799675 0.909443
vt 0.799337 0.950928
vt 0.813075 0.909443
vt 0.813750 0.909443
vt 0.813412 0.950928
vt 0.859995 0.909443
vt 0.860666 0.909441
vt 0.860332 0.950928
vt 0.002004 0.002011
vt 0.103476 0.002010
vt 0.052741 0.403300
vt 0.107485 0.002011
vt 0.208956 0.002010
vt 0.158222 0.403300
vt 0.713849 0.620220
vt 0.811621 0.615965
vt 0.811624 0.624479
vt 0.811636 0.023055
vt 0.713859 0.018800
vt 0.811633 0.014541
vt 0.866185 0.905426
vt 0.870440 0.816882
vt 0.874696 0.905423
vt 0.904197 0.638627
vt 0.815647 0.642884
vt 0.815649 0.634369
vt 0.811628 0.035597
vt 0.713859 0.031334
vt 0.811633 0.027075
vt 0.815640 0.006263
vt 0.913411 0.002008
vt 0.913414 0.010522
vt 0.904197 0.613566
vt 0.815647 0.617823
vt 0.815649 0.609308
vt 0.390462 0.905426
vt 0.394717 0.816882
vt 0.398973 0.905423
vt 0.811630 0.081469
vt 0.713861 0.085727
vt 0.713857 0.077209
vt 0.713849 0.465700
vt 0.811622 0.469962
vt 0.713849 0.474218
vt 0.904197 0.651157
vt 0.815647 0.655415
vt 0.815649 0.646900
vt 0.828627 0.905426
vt 0.832883 0.816882
vt 0.837138 0.905423
vt 0.815640 0.114700
vt 0.913412 0.118962
vt 0.815640 0.123218
vt 0.811630 0.169205
vt 0.713861 0.173463
vt 0.713857 0.164945
vt 0.878703 0.905426
vt 0.882959 0.816882
vt 0.887214 0.905423
vt 0.904197 0.663688
vt 0.815647 0.667946
vt 0.815649 0.659431
vt 0.713849 0.482481
vt 0.811621 0.478226
vt 0.811624 0.486740
vt 0.811628 0.323870
vt 0.713859 0.319607
vt 0.811632 0.315348
vt 0.482350 0.905425
vt 0.478093 0.816882
vt 0.486606 0.816882
vt 0.265154 0.905426
vt 0.269412 0.816878
vt 0.273669 0.905427
vt 0.713849 0.490743
vt 0.811622 0.495004
vt 0.713849 0.499261
vt 0.811630 0.106537
vt 0.713861 0.110795
vt 0.713857 0.102277
vt 0.895478 0.905424
vt 0.891221 0.816882
vt 0.899733 0.816882
vt 0.277685 0.905426
vt 0.281943 0.816878
vt 0.286200 0.905427
vt 0.815640 0.014526
vt 0.913412 0.018787
vt 0.815640 0.023044
vt 0.811630 0.231874
vt 0.713861 0.236131
vt 0.713857 0.227613
vt 0.907997 0.905424
vt 0.903740 0.816882
vt 0.912252 0.816882
vt 0.904196 0.680476
vt 0.815648 0.676219
vt 0.904197 0.671962
vt 0.815640 0.177309
vt 0.913412 0.181569
vt 0.815640 0.185826
vt 0.811630 0.344676
vt 0.713861 0.348933
vt 0.713857 0.340415
vt 0.904197 0.601035
vt 0.815647 0.605292
vt 0.815649 0.596777
vt 0.490614 0.905426
vt 0.494869 0.816882
vt 0.499125 0.905423
vt 0.713849 0.590917
vt 0.811622 0.595178
vt 0.713849 0.599435
vt 0.811630 0.119071
vt 0.713861 0.123328
vt 0.713857 0.114810
vt 0.803589 0.905426
vt 0.807844 0.816882
vt 0.812101 0.905423
vt 0.256881 0.905427
vt 0.252624 0.816878
vt 0.261138 0.816879
vt 0.713849 0.770482
vt 0.811621 0.766227
vt 0.811624 0.774740
vt 0.811628 0.223601
vt 0.713859 0.219338
vt 0.811633 0.215079
vt 0.503133 0.905426
vt 0.507388 0.816882
vt 0.511644 0.905423
vt 0.294473 0.905427
vt 0.290216 0.816878
vt 0.298731 0.816879
vt 0.713849 0.628483
vt 0.811622 0.632744
vt 0.713849 0.637001
vt 0.811630 0.043869
vt 0.713861 0.048126
vt 0.713857 0.039609
vt 0.307004 0.905427
vt 0.302747 0.816878
vt 0.311262 0.816879
vt 0.703437 0.905426
vt 0.707692 0.816882
vt 0.711948 0.905423
vt 0.713849 0.645264
vt 0.811621 0.641008
vt 0.811624 0.649522
vt 0.515357 0.780569
vt 0.519620 0.682800
vt 0.523879 0.780574
vt 0.670135 0.905425
vt 0.665878 0.816882
vt 0.674391 0.816882
vt 0.240093 0.905426
vt 0.244350 0.816878
vt 0.248607 0.905427
vt 0.815640 0.131481
vt 0.913411 0.127226
vt 0.913414 0.135740
vt 0.527891 0.780569
vt 0.532153 0.682800
vt 0.536412 0.780574
vt 0.904196 0.630353
vt 0.815648 0.626096
vt 0.904197 0.621839
vt 0.444793 0.905424
vt 0.440536 0.816882
vt 0.449049 0.816882
vt 0.713849 0.778744
vt 0.811622 0.783005
vt 0.713849 0.787262
vt 0.811630 0.357210
vt 0.713861 0.361467
vt 0.713857 0.352949
vt 0.457312 0.905424
vt 0.453055 0.816882
vt 0.461568 0.816882
vt 0.315277 0.905426
vt 0.319535 0.816878
vt 0.323792 0.905427
vt 0.713849 0.532568
vt 0.811621 0.528313
vt 0.811624 0.536826
vt 0.811628 0.135866
vt 0.713859 0.131603
vt 0.811633 0.127344
vt 0.904196 0.693007
vt 0.815648 0.688749
vt 0.904197 0.684492
vt 0.720211 0.905425
vt 0.715954 0.816882
vt 0.724467 0.816882
vt 0.544685 0.780571
vt 0.540428 0.682802
vt 0.548946 0.682798
vt 0.713849 0.553352
vt 0.811622 0.557613
vt 0.713849 0.561870
vt 0.904196 0.793253
vt 0.815648 0.788995
vt 0.904197 0.784738
vt 0.519907 0.905425
vt 0.515650 0.816882
vt 0.524163 0.816882
vt 0.811630 0.181739
vt 0.713861 0.185996
vt 0.713857 0.177479
vt 0.713849 0.503265
vt 0.811622 0.507526
vt 0.713849 0.511783
vt 0.327808 0.905426
vt 0.332066 0.816878
vt 0.336323 0.905427
vt 0.532426 0.905425
vt 0.528169 0.816882
vt 0.536682 0.816882
vt 0.815640 0.031306
vt 0.913411 0.027051
vt 0.913414 0.035565
vt 0.811636 0.148391
vt 0.713859 0.144137
vt 0.811633 0.139878
vt 0.904196 0.705538
vt 0.815648 0.701280
vt 0.904197 0.697023
vt 0.682654 0.905425
vt 0.678397 0.816882
vt 0.686910 0.816882
vt 0.815640 0.189830
vt 0.913412 0.194091
vt 0.815640 0.198348
vt 0.557219 0.780571
vt 0.552962 0.682802
vt 0.561480 0.682798
vt 0.344596 0.905427
vt 0.340339 0.816878
vt 0.348854 0.816879
vt 0.841146 0.905426
vt 0.845401 0.816882
vt 0.849657 0.905423
vt 0.690828 0.780569
vt 0.695091 0.682800
vt 0.699350 0.780574
vt 0.713849 0.757960
vt 0.811621 0.753705
vt 0.811624 0.762219
vt 0.540690 0.905426
vt 0.544945 0.816882
vt 0.549201 0.905423
vt 0.904197 0.713811
vt 0.815647 0.718068
vt 0.815649 0.709553
vt 0.815640 0.043828
vt 0.913411 0.039573
vt 0.913414 0.048087
vt 0.811628 0.198534
vt 0.713859 0.194271
vt 0.811633 0.190012
vt 0.904197 0.801527
vt 0.815647 0.805784
vt 0.815649 0.797269
vt 0.465576 0.905426
vt 0.469831 0.816882
vt 0.474087 0.905423
vt 0.713849 0.432394
vt 0.811621 0.428139
vt 0.811624 0.436653
vt 0.811628 0.098265
vt 0.713859 0.094002
vt 0.811633 0.089743
vt 0.002008 0.905426
vt 0.006266 0.816878
vt 0.010523 0.905427
vt 0.695173 0.905425
vt 0.690916 0.816882
vt 0.699429 0.816882
vt 0.713849 0.578396
vt 0.811622 0.582657
vt 0.713849 0.586914
vt 0.569752 0.780571
vt 0.565495 0.682802
vt 0.574013 0.682798
vt 0.732731 0.905425
vt 0.728474 0.816882
vt 0.736986 0.816882
vt 0.904196 0.730600
vt 0.815648 0.726342
vt 0.904197 0.722085
vt 0.582286 0.780571
vt 0.578029 0.682802
vt 0.586547 0.682798
vt 0.713849 0.653526
vt 0.811622 0.657787
vt 0.713849 0.662044
vt 0.657616 0.905425
vt 0.653359 0.816882
vt 0.661872 0.816882
vt 0.904196 0.743130
vt 0.815648 0.738872
vt 0.904197 0.734615
vt 0.815640 0.144002
vt 0.913411 0.139747
vt 0.913414 0.148261
vt 0.811635 0.273728
vt 0.713859 0.269473
vt 0.811632 0.265214
vt 0.177439 0.905426
vt 0.181697 0.816878
vt 0.185954 0.905427
vt 0.857921 0.905425
vt 0.853664 0.816882
vt 0.862176 0.816882
vt 0.815640 0.156524
vt 0.913411 0.152269
vt 0.913414 0.160783
vt 0.590559 0.780569
vt 0.594822 0.682800
vt 0.599081 0.780574
vt 0.018796 0.905427
vt 0.014539 0.816878
vt 0.023054 0.816879
vt 0.816109 0.905426
vt 0.820363 0.816882
vt 0.824620 0.905423
vt 0.815640 0.056350
vt 0.913411 0.052095
vt 0.913414 0.060609
vt 0.811628 0.248668
vt 0.713859 0.244405
vt 0.811632 0.240146
vt 0.352870 0.905426
vt 0.357127 0.816878
vt 0.361384 0.905427
vt 0.557464 0.905425
vt 0.553207 0.816882
vt 0.561720 0.816882
vt 0.811634 0.369739
vt 0.713861 0.374000
vt 0.713857 0.365483
vt 0.815640 0.064613
vt 0.913412 0.068874
vt 0.815640 0.073131
vt 0.569983 0.905425
vt 0.565726 0.816882
vt 0.574239 0.816882
vt 0.189970 0.905426
vt 0.194227 0.816878
vt 0.198484 0.905427
vt 0.815640 0.081394
vt 0.913411 0.077139
vt 0.913414 0.085652
vt 0.811628 0.286269
vt 0.713859 0.282006
vt 0.811632 0.277747
vt 0.031327 0.905427
vt 0.027070 0.816878
vt 0.035585 0.816879
vt 0.791070 0.905426
vt 0.795325 0.816882
vt 0.799581 0.905423
vt 0.713849 0.540831
vt 0.811622 0.545091
vt 0.713849 0.549348
vt 0.811630 0.056403
vt 0.713861 0.060660
vt 0.713857 0.052142
vt 0.002008 0.997991
vt 0.006263 0.909447
vt 0.010519 0.997988
vt 0.144104 0.905427
vt 0.139847 0.816878
vt 0.148362 0.816879
vt 0.713849 0.515787
vt 0.811622 0.520048
vt 0.713849 0.524305
vt 0.811630 0.382277
vt 0.713861 0.386534
vt 0.713857 0.378016
vt 0.740994 0.905426
vt 0.745249 0.816882
vt 0.749505 0.905423
vt 0.043858 0.905427
vt 0.039601 0.816878
vt 0.048116 0.816879
vt 0.713849 0.666048
vt 0.811622 0.670309
vt 0.713849 0.674566
vt 0.607357 0.780575
vt 0.603096 0.682802
vt 0.611614 0.682798
vt 0.757769 0.905425
vt 0.753512 0.816882
vt 0.762024 0.816882
vt 0.052131 0.905426
vt 0.056389 0.816878
vt 0.060646 0.905427
vt 0.713849 0.678570
vt 0.811622 0.682831
vt 0.713849 0.687088
vt 0.811634 0.256937
vt 0.713861 0.261198
vt 0.713857 0.252680
vt 0.068919 0.905427
vt 0.064662 0.816878
vt 0.073177 0.816879
vt 0.578247 0.905426
vt 0.582502 0.816882
vt 0.586758 0.905423
vt 0.713849 0.415613
vt 0.811622 0.419874
vt 0.713849 0.424131
vt 0.811630 0.394810
vt 0.713861 0.399067
vt 0.713857 0.390550
vt 0.156634 0.905427
vt 0.152377 0.816878
vt 0.160892 0.816879
vt 0.766032 0.905426
vt 0.770287 0.816882
vt 0.774543 0.905423
vt 0.713849 0.795525
vt 0.811621 0.791270
vt 0.811624 0.799784
vt 0.615634 0.780577
vt 0.619889 0.682800
vt 0.624148 0.780574
vt 0.428019 0.905426
vt 0.432274 0.816882
vt 0.436530 0.905423
vt 0.219288 0.905427
vt 0.215031 0.816878
vt 0.223546 0.816879
vt 0.713849 0.691092
vt 0.811622 0.695353
vt 0.713849 0.699610
vt 0.632421 0.780571
vt 0.628164 0.682802
vt 0.636682 0.682798
vt 0.077193 0.905426
vt 0.081450 0.816878
vt 0.085707 0.905427
vt 0.018782 0.997990
vt 0.014525 0.909447
vt 0.023038 0.909447
vt 0.713849 0.444915
vt 0.811621 0.440660
vt 0.811624 0.449174
vt 0.811628 0.411605
vt 0.713859 0.407342
vt 0.811632 0.403083
vt 0.093981 0.905427
vt 0.089724 0.816878
vt 0.098239 0.816879
vt 0.778551 0.905426
vt 0.782806 0.816882
vt 0.787062 0.905423
vt 0.815640 0.169046
vt 0.913411 0.164791
vt 0.913414 0.173305
vt 0.811635 0.336396
vt 0.713859 0.332141
vt 0.811632 0.327882
vt 0.590766 0.905426
vt 0.595021 0.816882
vt 0.599277 0.905423
vt 0.904197 0.751404
vt 0.815647 0.755661
vt 0.815649 0.747146
vt 0.713849 0.565874
vt 0.811622 0.570135
vt 0.713849 0.574392
vt 0.811630 0.068937
vt 0.713861 0.073194
vt 0.713857 0.064676
vt 0.365400 0.905426
vt 0.369658 0.816878
vt 0.373915 0.905427
vt 0.031301 0.997990
vt 0.027044 0.909447
vt 0.035557 0.909447
vt 0.815640 0.093915
vt 0.913411 0.089660
vt 0.913414 0.098174
vt 0.811628 0.298803
vt 0.713859 0.294540
vt 0.811632 0.290281
vt 0.603285 0.905426
vt 0.607540 0.816882
vt 0.611796 0.905423
vt 0.904197 0.763935
vt 0.815647 0.768192
vt 0.815649 0.759677
vt 0.644955 0.780571
vt 0.640697 0.682802
vt 0.649215 0.682798
vt 0.815640 0.102178
vt 0.913412 0.106439
vt 0.815640 0.110696
vt 0.106511 0.905427
vt 0.102254 0.816878
vt 0.110769 0.816879
vt 0.039565 0.997991
vt 0.043820 0.909447
vt 0.048076 0.997988
vt 0.713849 0.603439
vt 0.811622 0.607700
vt 0.713849 0.611957
vt 0.811630 0.206806
vt 0.713861 0.211063
vt 0.713857 0.202546
vt 0.615804 0.905426
vt 0.620059 0.816882
vt 0.624315 0.905423
vt 0.382188 0.905427
vt 0.377931 0.816878
vt 0.386446 0.816879
vt 0.713849 0.457437
vt 0.811621 0.453182
vt 0.811624 0.461696
vt 0.811628 0.160933
vt 0.713859 0.156670
vt 0.811633 0.152411
vt 0.056339 0.997990
vt 0.052082 0.909447
vt 0.060595 0.909447
vt 0.904196 0.780722
vt 0.815648 0.776464
vt 0.904197 0.772208
vt 0.713849 0.703614
vt 0.811622 0.707874
vt 0.713849 0.712132
vt 0.811630 0.006269
vt 0.713861 0.010526
vt 0.713857 0.002008
vt 0.164908 0.905426
vt 0.169166 0.816878
vt 0.173423 0.905427
vt 0.632578 0.905424
vt 0.628321 0.816882
vt 0.636834 0.816882
vt 0.713849 0.803788
vt 0.811622 0.808049
vt 0.713849 0.812306
vt 0.657488 0.780571
vt 0.653231 0.682802
vt 0.661749 0.682798
vt 0.114785 0.905426
vt 0.119043 0.816878
vt 0.123300 0.905427
vt 0.407236 0.905425
vt 0.402979 0.816882
vt 0.411492 0.816882
vt 0.713849 0.720394
vt 0.811621 0.716139
vt 0.811624 0.724653
vt 0.665769 0.780577
vt 0.670024 0.682800
vt 0.674283 0.780574
vt 0.227562 0.905426
vt 0.231820 0.816878
vt 0.236077 0.905427
vt 0.419755 0.905424
vt 0.415498 0.816882
vt 0.424011 0.816882
vt 0.678295 0.780569
vt 0.682557 0.682800
vt 0.686816 0.780574
vt 0.713849 0.732916
vt 0.811621 0.728661
vt 0.811624 0.737175
vt 0.127316 0.905426
vt 0.131574 0.816878
vt 0.135830 0.905427
vt 0.068858 0.997990
vt 0.064601 0.909447
vt 0.073114 0.909447
vt 0.713849 0.741179
vt 0.811622 0.745440
vt 0.713849 0.749697
vt 0.811634 0.307071
vt 0.713861 0.311332
vt 0.713857 0.302815
vt 0.202500 0.905426
vt 0.206758 0.816878
vt 0.211015 0.905427
vt 0.645097 0.905425
vt 0.640840 0.816882
vt 0.649353 0.816882
vt 0.533926 0.002008
vt 0.534601 0.002008
vt 0.534263 0.403169
vt 0.623072 0.002008
vt 0.623743 0.002006
vt 0.623421 0.403159
vt 0.599613 0.002008
vt 0.600284 0.002006
vt 0.599950 0.403159
vt 0.538618 0.002008
vt 0.539293 0.002008
vt 0.538955 0.403169
vt 0.580845 0.002008
vt 0.581520 0.002008
vt 0.581182 0.403169
vt 0.604305 0.002008
vt 0.604975 0.002006
vt 0.604642 0.403159
vt 0.651224 0.002008
vt 0.651894 0.002006
vt 0.651561 0.403159
vt 0.590229 0.002008
vt 0.590904 0.002008
vt 0.590566 0.403169
vt 0.543310 0.002008
vt 0.543985 0.002008
vt 0.543647 0.403169
vt 0.627764 0.002008
vt 0.628435 0.002006
vt 0.628102 0.403159
vt 0.632456 0.002008
vt 0.633127 0.002006
vt 0.632793 0.403159
vt 0.548002 0.002008
vt 0.548677 0.002008
vt 0.548339 0.403169
vt 0.608997 0.002008
vt 0.609668 0.002006
vt 0.609334 0.403159
vt 0.552694 0.002008
vt 0.553369 0.002008
vt 0.553030 0.403169
vt 0.557386 0.002008
vt 0.558061 0.002008
vt 0.557722 0.403169
vt 0.613689 0.002008
vt 0.614359 0.002006
vt 0.614026 0.403159
vt 0.646532 0.002008
vt 0.647202 0.002006
vt 0.646881 0.403159
vt 0.562078 0.002008
vt 0.562753 0.002008
vt 0.562415 0.403169
vt 0.585537 0.002008
vt 0.586212 0.002008
vt 0.585874 0.403169
vt 0.637148 0.002008
vt 0.637819 0.002006
vt 0.637485 0.403159
vt 0.641840 0.002008
vt 0.642511 0.002006
vt 0.642177 0.403159
vt 0.566770 0.002008
vt 0.567445 0.002008
vt 0.567106 0.403169
vt 0.655916 0.002008
vt 0.656587 0.002006
vt 0.656253 0.403159
vt 0.571462 0.002008
vt 0.572137 0.002008
vt 0.571799 0.403169
vt 0.576153 0.002008
vt 0.576829 0.002008
vt 0.576490 0.403169
vt 0.618381 0.002008
vt 0.619051 0.002006
vt 0.618718 0.403159
vt 0.660608 0.002008
vt 0.661278 0.002006
vt 0.660945 0.403159
vt 0.594921 0.002008
vt 0.595596 0.002008
vt 0.595258 0.403169
vt 0.582940 0.987809
vt 0.548347 0.909444
vt 0.617525 0.909442
vt 0.509748 0.987844
vt 0.475156 0.909444
vt 0.544334 0.909441
vt 0.710692 0.964753
vt 0.717604 0.909445
vt 0.724518 0.964752
vt 0.692861 0.964778
vt 0.699773 0.909445
vt 0.706687 0.964778
vt 0.917426 0.510277
vt 0.917426 0.509741
vt 0.931244 0.510010
vt 0.917426 0.542265
vt 0.917424 0.541733
vt 0.931240 0.541998
vt 0.917426 0.537712
vt 0.917424 0.537179
vt 0.931240 0.537444
vt 0.917426 0.505724
vt 0.917426 0.505187
vt 0.931244 0.505457
vt 0.917427 0.207264
vt 0.935859 0.200350
vt 0.935861 0.214175
vt 0.935859 0.289529
vt 0.935861 0.303347
vt 0.917427 0.296440
vt 0.917427 0.225102
vt 0.935859 0.218188
vt 0.935861 0.232013
vt 0.935859 0.253865
vt 0.935861 0.267683
vt 0.917427 0.260776
vt 0.917427 0.242941
vt 0.935859 0.236027
vt 0.935861 0.249851
vt 0.935859 0.271697
vt 0.935861 0.285515
vt 0.917427 0.278608
vt 0.686788 0.002006
vt 0.689537 0.002007
vt 0.688161 0.389336
vt 0.700327 0.002004
vt 0.703068 0.002005
vt 0.701697 0.389329
vt 0.707095 0.002004
vt 0.709836 0.002005
vt 0.708465 0.389329
vt 0.693556 0.002006
vt 0.696305 0.002007
vt 0.694929 0.389336
vt 0.935848 0.394850
vt 0.935858 0.395287
vt 0.917427 0.395067
vt 0.935863 0.385768
vt 0.935857 0.386254
vt 0.917425 0.386055
vt 0.917425 0.570128
vt 0.928019 0.564827
vt 0.928022 0.575422
vt 0.928019 0.652474
vt 0.928022 0.663064
vt 0.917425 0.657771
vt 0.921799 0.955706
vt 0.926175 0.964449
vt 0.917427 0.964451
vt 0.921801 0.875117
vt 0.917425 0.866369
vt 0.926173 0.866367
vt 0.928021 0.643164
vt 0.917427 0.648462
vt 0.917424 0.637872
vt 0.917427 0.590035
vt 0.917424 0.579440
vt 0.928021 0.584734
vt 0.921799 0.930185
vt 0.926175 0.938929
vt 0.917427 0.938931
vt 0.921801 0.887881
vt 0.917425 0.879134
vt 0.926173 0.879132
vt 0.917425 0.599347
vt 0.928019 0.594046
vt 0.928022 0.604641
vt 0.928019 0.623265
vt 0.928022 0.633855
vt 0.917425 0.628563
vt 0.917427 0.900646
vt 0.921799 0.891897
vt 0.926175 0.900644
vt 0.926173 0.942945
vt 0.921801 0.951690
vt 0.917425 0.942947
vt 0.917427 0.619253
vt 0.922722 0.608657
vt 0.928022 0.619250
vt 0.928019 0.667078
vt 0.922724 0.677670
vt 0.917424 0.667081
vt 0.917426 0.909036
vt 0.926173 0.904660
vt 0.926175 0.913409
vt 0.926173 0.917424
vt 0.926176 0.926168
vt 0.917426 0.921798
vt 0.928014 0.721777
vt 0.917428 0.722970
vt 0.917427 0.720585
vt 0.928018 0.715384
vt 0.917428 0.716578
vt 0.917427 0.714193
vt 0.917428 0.681680
vt 0.928019 0.682942
vt 0.917427 0.684203
vt 0.917427 0.689472
vt 0.928019 0.688211
vt 0.928018 0.690734
vt 0.977774 0.373367
vt 0.975665 0.374349
vt 0.975668 0.372380
vt 0.975668 0.408277
vt 0.977774 0.409264
vt 0.975665 0.410246
vt 0.977772 0.380335
vt 0.975667 0.379347
vt 0.977776 0.378366
vt 0.975667 0.415244
vt 0.977776 0.414263
vt 0.977773 0.416232
vt 0.928019 0.710185
vt 0.917427 0.708994
vt 0.928018 0.707800
vt 0.928014 0.729361
vt 0.917427 0.728170
vt 0.928013 0.726976
vt 0.917427 0.696002
vt 0.928019 0.694741
vt 0.928018 0.697264
vt 0.917428 0.701270
vt 0.928019 0.702532
vt 0.917427 0.703794
vt 0.977774 0.397299
vt 0.975665 0.398280
vt 0.975668 0.396311
vt 0.975668 0.384346
vt 0.977774 0.385333
vt 0.975665 0.386314
vt 0.977773 0.404266
vt 0.975667 0.403279
vt 0.977776 0.402297
vt 0.975667 0.391313
vt 0.977776 0.390332
vt 0.977772 0.392300
vt 0.979569 0.046832
vt 0.975670 0.047053
vt 0.975669 0.046686
vt 0.979571 0.024716
vt 0.975667 0.024878
vt 0.975665 0.024543
vt 0.979569 0.042397
vt 0.975670 0.042618
vt 0.975669 0.042251
vt 0.979571 0.029166
vt 0.975667 0.029328
vt 0.975665 0.028993
vt 0.945086 0.170425
vt 0.917428 0.164206
vt 0.945085 0.157987
vt 0.945073 0.186866
vt 0.917429 0.180648
vt 0.945072 0.174428
vt 0.917422 0.492060
vt 0.917426 0.491531
vt 0.931249 0.491796
vt 0.917422 0.528453
vt 0.917426 0.527918
vt 0.931245 0.528184
vt 0.917422 0.514828
vt 0.917426 0.514293
vt 0.931245 0.514559
vt 0.917422 0.487507
vt 0.917426 0.486977
vt 0.931249 0.487242
vt 0.975673 0.161575
vt 0.978968 0.119956
vt 0.975705 0.119944
vt 0.975672 0.161426
vt 0.975767 0.852493
vt 0.975665 0.119937
vt 0.975736 0.116723
vt 0.975672 0.848309
vt 0.975801 0.848283
vt 0.975816 0.119937
vt 0.975883 0.848425
vt 0.978877 0.277963
vt 0.978884 0.278074
vt 0.975671 0.277994
vt 0.975686 0.124028
vt 0.978895 0.124032
vt 0.978877 0.211485
vt 0.975671 0.278105
vt 0.975755 0.116724
vt 0.978884 0.182331
vt 0.978877 0.182445
vt 0.975668 0.182343
vt 0.978890 0.302797
vt 0.975659 0.302863
vt 0.975686 0.302782
vt 0.978890 0.302863
vt 0.975670 0.945122
vt 0.975868 0.945020
vt 0.978894 0.149000
vt 0.975685 0.149066
vt 0.975659 0.148977
vt 0.978877 0.076155
vt 0.975659 0.932412
vt 0.975670 0.932484
vt 0.978883 0.261469
vt 0.978876 0.261518
vt 0.975671 0.261474
vt 0.975674 0.153159
vt 0.975674 0.153081
vt 0.978884 0.153142
vt 0.975735 0.932535
vt 0.975673 0.165748
vt 0.975722 0.949174
vt 0.975841 0.949225
vt 0.975672 0.165597
vt 0.978877 0.083469
vt 0.975660 0.860938
vt 0.975774 0.860893
vt 0.976620 0.128201
vt 0.978877 0.282105
vt 0.975671 0.282211
vt 0.975671 0.282105
vt 0.975863 0.861047
vt 0.978884 0.282216
vt 0.975722 0.953379
vt 0.975840 0.953430
vt 0.978877 0.090784
vt 0.975659 0.869346
vt 0.975774 0.869301
vt 0.975672 0.169770
vt 0.975673 0.169920
vt 0.975863 0.869454
vt 0.978876 0.290387
vt 0.975671 0.290494
vt 0.975671 0.290387
vt 0.978884 0.290499
vt 0.976620 0.132373
vt 0.975673 0.174092
vt 0.978968 0.112666
vt 0.975672 0.173942
vt 0.975844 0.961885
vt 0.975659 0.856801
vt 0.975670 0.856716
vt 0.975723 0.856677
vt 0.975816 0.112638
vt 0.975740 0.856869
vt 0.975831 0.856705
vt 0.975864 0.856842
vt 0.978883 0.286342
vt 0.975671 0.286352
vt 0.975671 0.286246
vt 0.976620 0.140717
vt 0.978895 0.144903
vt 0.975685 0.144969
vt 0.975659 0.144880
vt 0.978890 0.298700
vt 0.978890 0.298766
vt 0.975659 0.298766
vt 0.975868 0.940810
vt 0.978884 0.194847
vt 0.978877 0.194962
vt 0.975668 0.194860
vt 0.975686 0.298685
vt 0.975670 0.940912
vt 0.978884 0.224058
vt 0.978877 0.224107
vt 0.975671 0.224063
vt 0.975659 0.936612
vt 0.975670 0.936684
vt 0.975674 0.157331
vt 0.978884 0.157314
vt 0.975674 0.157253
vt 0.978877 0.098099
vt 0.975735 0.936735
vt 0.975673 0.178264
vt 0.975722 0.957583
vt 0.975840 0.957635
vt 0.978877 0.105414
vt 0.975659 0.865142
vt 0.975774 0.865097
vt 0.975672 0.178114
vt 0.976620 0.136545
vt 0.975863 0.865251
vt 0.978876 0.294528
vt 0.975671 0.294635
vt 0.975671 0.294528
vt 0.978884 0.294640
vt 0.962919 0.978225
vt 0.971202 0.976385
vt 0.971203 0.980064
vt 0.962919 0.970535
vt 0.971201 0.968695
vt 0.971203 0.972374
vt 0.975669 0.003374
vt 0.979571 0.002001
vt 0.979571 0.004748
vt 0.975669 0.010123
vt 0.979571 0.008750
vt 0.979571 0.011496
vt 0.975666 0.852539
vt 0.975659 0.852519
vt 0.975662 0.852513
vt 0.975664 0.852532
vt 0.983606 0.014067
vt 0.983584 0.014069
vt 0.983580 0.014068
vt 0.978888 0.076075
vt 0.978845 0.076063
vt 0.983603 0.034165
vt 0.983603 0.034176
vt 0.983602 0.034161
vt 0.978888 0.083389
vt 0.978845 0.083378
vt 0.983606 0.022114
vt 0.983584 0.022115
vt 0.983580 0.022114
vt 0.978888 0.090704
vt 0.978845 0.090693
vt 0.983606 0.030159
vt 0.983584 0.030161
vt 0.983580 0.030160
vt 0.983634 0.010035
vt 0.983580 0.010024
vt 0.983606 0.026136
vt 0.983584 0.026138
vt 0.983580 0.026137
vt 0.983603 0.038180
vt 0.983603 0.038191
vt 0.983602 0.038176
vt 0.978888 0.098019
vt 0.978845 0.098008
vt 0.978888 0.105334
vt 0.978845 0.105322
vt 0.983606 0.018091
vt 0.983584 0.018092
vt 0.983580 0.018091
vt 0.975862 0.852621
vt 0.978900 0.124114
vt 0.978966 0.076069
vt 0.978966 0.083383
vt 0.975792 0.949370
vt 0.978900 0.128286
vt 0.978966 0.090698
vt 0.975792 0.953575
vt 0.978900 0.132458
vt 0.975715 0.961976
vt 0.978900 0.140802
vt 0.978966 0.098013
vt 0.978966 0.105328
vt 0.975792 0.957780
vt 0.978900 0.136630
vt 0.975875 0.852603
vt 0.975806 0.848468
vt 0.975659 0.945118
vt 0.975685 0.302766
vt 0.975814 0.949366
vt 0.975782 0.861084
vt 0.975814 0.953571
vt 0.975782 0.869491
vt 0.975733 0.961989
vt 0.975783 0.856880
vt 0.975659 0.940907
vt 0.975685 0.298669
vt 0.975814 0.957776
vt 0.975782 0.865287
vt 0.975740 0.986104
vt 0.975740 0.994128
vt 0.983661 0.002012
vt 0.983661 0.006024
vt 0.975740 0.990116
vt 0.975672 0.161591
vt 0.978888 0.076005
vt 0.975672 0.165763
vt 0.978888 0.083319
vt 0.975672 0.169935
vt 0.978888 0.090634
vt 0.975672 0.174107
vt 0.978888 0.097950
vt 0.975672 0.178280
vt 0.978888 0.105264
vt 0.975785 0.907303
vt 0.975795 0.907154
vt 0.975819 0.907151
vt 0.975784 0.928302
vt 0.975795 0.928153
vt 0.975819 0.928150
vt 0.975659 0.161505
vt 0.978896 0.072852
vt 0.978906 0.080167
vt 0.975659 0.165677
vt 0.978906 0.087482
vt 0.975659 0.169849
vt 0.975659 0.174021
vt 0.978896 0.094797
vt 0.978906 0.102111
vt 0.975659 0.178193
vt 0.975661 0.161505
vt 0.975664 0.848329
vt 0.975668 0.932392
vt 0.975661 0.165677
vt 0.975670 0.860919
vt 0.975670 0.869326
vt 0.975661 0.169849
vt 0.975661 0.174021
vt 0.975659 0.856735
vt 0.975668 0.936592
vt 0.975670 0.865122
vt 0.975661 0.178193
s 1
usemtl office_tower_001_baked
f 527/1/1 529/2/1 531/3/1
f 544/4/2 545/5/2 546/6/2
f 551/7/3 553/8/3 555/9/3
f 565/10/4 566/11/4 567/12/4
f 574/13/5 576/14/5 578/15/5
f 586/16/6 587/17/6 588/18/6
f 596/19/1 598/20/1 600/21/1
f 607/22/7 612/23/8 613/24/9
f 619/25/1 621/26/1 623/27/1
f 638/28/10 640/29/10 642/30/10
f 647/31/11 648/32/11 649/33/11
f 655/34/11 656/35/11 657/36/11
f 661/37/12 663/38/12 665/39/12
f 512/40/13 514/41/14 515/42/15
f 602/43/16 603/44/17 604/45/18
f 581/46/19 571/47/20 580/48/21
f 557/49/22 552/50/22 551/51/22
f 644/52/22 639/53/22 638/54/22
f 527/55/23 513/56/23 514/57/23
f 541/58/24 554/59/25 539/60/26
f 574/61/27 568/62/27 564/63/27
f 596/64/28 591/65/28 589/66/28
f 619/67/29 609/68/29 606/69/29
f 631/70/30 641/71/31 632/72/32
f 661/73/33 659/74/33 658/75/33
f 524/76/34 530/77/34 529/78/34
f 525/79/35 521/80/36 524/81/37
f 534/82/38 523/83/39 532/84/40
f 538/85/41 556/86/42 537/87/43
f 549/88/44 553/89/45 552/50/46
f 572/90/47 577/91/47 576/92/47
f 570/93/16 571/94/48 572/95/49
f 604/96/50 599/97/50 598/98/50
f 607/99/51 606/100/52 611/101/53
f 616/102/54 622/103/54 621/104/54
f 617/105/55 614/106/56 616/107/57
f 633/108/58 643/109/58 630/110/58
f 635/111/59 640/112/60 639/53/61
f 671/113/62 664/114/62 663/115/62
f 673/116/16 670/117/17 671/118/18
f 594/119/63 603/120/64 593/121/21
f 669/122/65 670/123/66 668/124/67
f 518/125/68 521/126/69 520/127/70
f 545/128/71 548/129/72 549/130/44
f 553/131/73 547/132/73 554/133/73
f 566/134/74 581/135/75 580/136/76
f 587/137/77 594/138/77 593/139/77
f 612/140/78 615/141/78 614/142/78
f 648/143/79 650/144/80 635/145/59
f 640/146/73 637/147/73 641/148/73
f 656/149/81 669/150/81 668/151/81
f 515/42/82 523/152/82 516/153/82
f 558/154/83 542/155/83 546/6/83
f 579/156/84 562/157/85 567/12/86
f 592/158/87 584/159/88 588/18/89
f 613/160/90 626/161/90 610/162/90
f 634/163/91 645/164/91 649/33/91
f 667/165/92 653/166/93 657/36/94
f 519/167/95 528/168/96 511/169/97
f 526/170/98 531/171/98 530/172/98
f 516/153/99 533/173/99 517/174/99
f 556/175/100 540/176/100 535/177/100
f 550/178/101 546/6/102 545/5/103
f 560/179/104 575/180/105 559/181/106
f 569/182/98 578/183/98 577/184/98
f 579/156/84 567/12/86 566/11/107
f 590/185/104 597/186/105 582/187/106
f 601/188/98 600/189/98 599/190/98
f 592/158/87 588/18/89 587/17/107
f 608/191/108 620/192/109 605/193/110
f 625/194/98 623/195/98 622/196/98
f 624/197/111 613/160/112 612/140/113
f 643/198/114 628/199/114 627/200/114
f 636/201/115 649/33/116 648/32/103
f 666/202/104 662/203/117 651/204/118
f 672/205/98 665/206/98 664/207/98
f 667/165/92 657/36/94 656/35/119
f 2/208/120 3/209/120 1/210/120
f 1/211/120 3/212/120 2/213/120
f 6/214/121 5/215/121 4/216/121
f 4/217/121 5/218/121 6/219/121
f 7/220/120 8/221/120 9/222/120
f 8/223/120 7/224/120 9/225/120
f 10/226/122 12/227/123 11/228/124
f 12/229/123 10/230/122 11/231/124
f 15/232/120 14/233/120 13/234/120
f 14/235/120 15/236/120 13/237/120
f 18/238/125 16/239/126 17/240/127
f 16/241/126 18/242/125 17/243/127
f 21/244/121 20/245/121 19/246/121
f 20/247/121 21/248/121 19/249/121
f 22/250/120 23/251/120 24/252/120
f 23/253/120 22/254/120 24/255/120
f 25/256/128 26/257/129 27/258/128
f 26/259/129 25/260/128 27/261/128
f 29/262/120 28/263/120 30/264/120
f 28/265/120 29/266/120 30/267/120
f 33/268/120 31/269/120 32/270/120
f 31/271/120 33/272/120 32/273/120
f 35/274/120 36/275/120 34/276/120
f 36/277/120 35/278/120 34/279/120
f 39/280/120 37/281/120 38/282/120
f 37/283/120 39/284/120 38/285/120
f 42/286/120 40/287/120 41/288/120
f 40/289/120 42/290/120 41/291/120
f 45/292/121 43/293/121 44/294/120
f 43/295/121 45/296/121 44/297/120
f 48/298/120 47/299/120 46/300/120
f 47/301/120 48/302/120 46/303/120
f 50/304/130 49/305/120 51/306/130
f 49/307/120 50/308/130 51/309/130
f 53/310/131 52/311/132 54/312/133
f 52/313/132 53/314/131 54/315/133
f 56/316/120 55/317/120 57/318/120
f 55/319/120 56/320/120 57/321/120
f 60/322/134 58/323/134 59/324/134
f 58/325/134 60/326/134 59/327/134
f 61/328/120 63/329/120 62/330/120
f 63/331/120 61/332/120 62/333/120
f 65/334/120 66/335/120 64/336/120
f 66/337/120 65/338/120 64/339/120
f 67/340/120 68/341/120 69/342/120
f 68/343/120 67/344/120 69/345/120
f 72/346/135 70/347/136 71/348/120
f 70/349/136 72/350/135 71/351/120
f 74/352/120 75/353/120 73/354/120
f 75/355/120 74/356/120 73/357/120
f 78/358/120 77/359/120 76/360/120
f 77/361/120 78/362/120 76/363/120
f 81/364/120 79/365/120 80/366/120
f 79/367/120 81/368/120 80/369/120
f 84/370/120 82/371/120 83/372/120
f 82/373/120 84/374/120 83/375/120
f 86/376/137 87/377/138 85/378/139
f 87/379/138 86/380/137 85/381/139
f 88/382/134 90/383/134 89/384/134
f 90/385/134 88/386/134 89/387/134
f 93/388/140 92/389/140 91/390/141
f 92/391/140 93/392/140 91/393/141
f 94/394/134 95/395/134 96/396/134
f 95/397/134 94/398/134 96/399/134
f 98/400/142 99/401/143 97/402/144
f 99/403/143 98/404/142 97/405/144
f 100/406/145 101/407/146 102/408/147
f 101/409/146 100/410/145 102/411/147
f 104/412/148 103/413/149 105/414/149
f 103/415/149 104/416/148 105/417/149
f 106/418/150 107/419/151 108/420/152
f 107/421/151 106/422/150 108/423/152
f 110/424/153 111/425/153 109/426/154
f 111/427/153 110/428/153 109/429/154
f 113/430/134 114/431/134 112/432/134
f 114/433/134 113/434/134 112/435/134
f 115/436/155 116/437/155 117/438/156
f 116/439/155 115/440/155 117/441/156
f 119/442/134 118/443/134 120/444/134
f 118/445/134 119/446/134 120/447/134
f 121/448/157 123/449/158 122/450/159
f 123/451/158 121/452/157 122/453/159
f 126/454/160 125/455/161 124/456/162
f 125/457/161 126/458/160 124/459/162
f 127/460/120 128/461/120 129/462/120
f 128/463/120 127/464/120 129/465/120
f 130/466/163 132/467/164 131/468/165
f 132/469/164 130/470/163 131/471/165
f 134/472/120 133/473/120 135/474/120
f 133/475/120 134/476/120 135/477/120
f 136/478/134 137/479/134 138/480/134
f 137/481/134 136/482/134 138/483/134
f 141/484/130 140/485/130 139/486/120
f 140/487/130 141/488/130 139/489/120
f 143/490/121 142/491/121 144/492/121
f 142/493/121 143/494/121 144/495/121
f 146/496/120 145/497/120 147/498/120
f 145/499/120 146/500/120 147/501/120
f 148/502/121 149/503/121 150/504/121
f 149/505/121 148/506/121 150/507/121
f 153/508/130 151/509/120 152/510/130
f 151/511/120 153/512/130 152/513/130
f 154/514/134 156/515/134 155/516/134
f 156/517/134 154/518/134 155/519/134
f 157/520/166 158/521/120 159/522/166
f 158/523/120 157/524/166 159/525/166
f 162/526/134 160/527/134 161/528/134
f 160/529/134 162/530/134 161/531/134
f 164/532/167 163/533/168 165/534/169
f 163/535/168 164/536/167 165/537/169
f 167/538/170 166/539/171 168/540/172
f 166/541/171 167/542/170 168/543/172
f 169/544/173 171/545/174 170/546/175
f 171/547/174 169/548/173 170/549/175
f 172/550/134 173/551/134 174/552/134
f 173/553/134 172/554/134 174/555/134
f 177/556/130 175/557/130 176/558/120
f 175/559/130 177/560/130 176/561/120
f 178/562/121 179/563/121 180/564/121
f 179/565/121 178/566/121 180/567/121
f 182/568/166 183/569/166 181/570/120
f 183/571/166 182/572/166 181/573/120
f 186/574/134 184/575/134 185/576/134
f 184/577/134 186/578/134 185/579/134
f 189/580/166 187/581/166 188/582/120
f 187/583/166 189/584/166 188/585/120
f 190/586/121 191/587/121 192/588/121
f 191/589/121 190/590/121 192/591/121
f 194/592/166 193/593/166 195/594/120
f 193/595/166 194/596/166 195/597/120
f 196/598/121 198/599/121 197/600/121
f 198/601/121 196/602/121 197/603/121
f 201/604/176 199/605/177 200/606/177
f 199/607/177 201/608/176 200/609/177
f 203/610/178 202/611/179 204/612/180
f 202/613/179 203/614/178 204/615/180
f 207/616/181 206/617/181 205/618/182
f 206/619/181 207/620/181 205/621/182
f 209/622/183 208/623/184 210/624/185
f 208/625/184 209/626/183 210/627/185
f 213/628/186 211/629/187 212/630/188
f 211/631/187 213/632/186 212/633/188
f 214/634/189 215/635/190 216/636/191
f 215/637/190 214/638/189 216/639/191
f 219/640/192 217/641/192 218/642/193
f 217/643/192 219/644/192 218/645/193
f 220/646/134 222/647/134 221/648/134
f 222/649/134 220/650/134 221/651/134
f 223/652/166 225/653/120 224/654/166
f 225/655/120 223/656/166 224/657/166
f 226/658/134 228/659/134 227/660/134
f 228/661/134 226/662/134 227/663/134
f 229/664/130 230/665/120 231/666/130
f 230/667/120 229/668/130 231/669/130
f 233/670/121 234/671/121 232/672/121
f 234/673/121 233/674/121 232/675/121
f 236/676/166 237/677/166 235/678/120
f 237/679/166 236/680/166 235/681/120
f 240/682/121 239/683/121 238/684/121
f 239/685/121 240/686/121 238/687/121
f 243/688/130 241/689/120 242/690/130
f 241/691/120 243/692/130 242/693/130
f 246/694/194 245/695/195 244/696/196
f 245/697/195 246/698/194 244/699/196
f 248/700/197 247/701/141 249/702/197
f 247/703/141 248/704/197 249/705/197
f 250/706/198 251/707/199 252/708/200
f 251/709/199 250/710/198 252/711/200
f 253/712/201 254/713/202 255/714/203
f 254/715/202 253/716/201 255/717/203
f 258/718/204 257/719/120 256/720/205
f 257/721/120 258/722/204 256/723/205
f 260/724/206 259/725/207 261/726/206
f 259/727/207 260/728/206 261/729/206
f 262/730/208 263/731/209 264/732/210
f 263/733/209 262/734/208 264/735/210
f 267/736/211 266/737/212 265/738/213
f 266/739/212 267/740/211 265/741/213
f 268/742/134 269/743/134 270/744/134
f 269/745/134 268/746/134 270/747/134
f 273/748/214 272/749/215 271/750/216
f 272/751/215 273/752/214 271/753/216
f 274/754/217 276/755/209 275/756/209
f 276/757/209 274/758/217 275/759/209
f 278/760/218 277/761/219 279/762/220
f 277/763/219 278/764/218 279/765/220
f 281/766/221 280/767/222 282/768/223
f 280/769/222 281/770/221 282/771/223
f 283/772/224 284/773/224 285/774/225
f 284/775/224 283/776/224 285/777/225
f 286/778/226 288/779/227 287/780/228
f 288/781/227 286/782/226 287/783/228
f 290/784/229 289/785/230 291/786/231
f 289/787/230 290/788/229 291/789/231
f 292/790/232 294/791/233 293/792/234
f 294/793/233 292/794/232 293/795/234
f 295/796/235 296/797/236 297/798/237
f 296/799/236 295/800/235 297/801/237
f 298/802/238 299/803/239 300/804/240
f 299/805/239 298/806/238 300/807/240
f 302/808/241 301/809/242 303/810/243
f 301/811/242 302/812/241 303/813/243
f 304/814/244 306/815/245 305/816/246
f 306/817/245 304/818/244 305/819/246
f 307/820/247 308/821/248 309/822/249
f 308/823/248 307/824/247 309/825/249
f 310/826/250 311/827/251 312/828/252
f 311/829/251 310/830/250 312/831/252
f 315/832/253 314/833/254 313/834/255
f 314/835/254 315/836/253 313/837/255
f 317/838/121 316/839/121 318/840/121
f 316/841/121 317/842/121 318/843/121
f 320/844/166 319/845/166 321/846/120
f 319/847/166 320/848/166 321/849/120
f 322/850/134 324/851/134 323/852/134
f 324/853/134 322/854/134 323/855/134
f 327/856/130 326/857/130 325/858/120
f 326/859/130 327/860/130 325/861/120
f 328/862/256 330/863/257 329/864/258
f 330/865/257 328/866/256 329/867/258
f 333/868/259 331/869/260 332/870/261
f 331/871/260 333/872/259 332/873/261
f 334/874/262 335/875/263 336/876/264
f 335/877/263 334/878/262 336/879/264
f 337/880/265 339/881/266 338/882/267
f 339/883/266 337/884/265 338/885/267
f 341/886/268 342/887/269 340/888/270
f 342/889/269 341/890/268 340/891/270
f 343/892/271 344/893/272 345/894/273
f 344/895/272 343/896/271 345/897/273
f 347/898/274 346/899/275 348/900/276
f 346/901/275 347/902/274 348/903/276
f 351/904/277 349/905/278 350/906/279
f 349/907/278 351/908/277 350/909/279
f 353/910/121 352/911/121 354/912/121
f 352/913/121 353/914/121 354/915/121
f 355/916/280 357/917/280 356/918/280
f 357/919/280 355/920/280 356/921/280
f 358/922/281 360/923/282 359/924/283
f 360/925/282 358/926/281 359/927/283
f 363/928/130 361/929/130 362/930/120
f 361/931/130 363/932/130 362/933/120
f 365/934/284 364/935/285 366/936/286
f 364/937/285 365/938/284 366/939/286
f 368/940/287 367/941/288 369/942/288
f 367/943/288 368/944/287 369/945/288
f 370/946/289 372/947/290 371/948/291
f 372/949/290 370/950/289 371/951/291
f 374/952/292 373/953/293 375/954/294
f 373/955/293 374/956/292 375/957/294
f 377/958/120 376/959/120 378/960/120
f 376/961/120 377/962/120 378/963/120
f 380/964/120 379/965/120 381/966/120
f 379/967/120 380/968/120 381/969/120
f 384/970/295 382/971/295 383/972/296
f 382/973/295 384/974/295 383/975/296
f 387/976/297 385/977/297 386/978/298
f 385/979/297 387/980/297 386/981/298
f 389/982/299 388/983/300 390/984/301
f 388/985/300 389/986/299 390/987/301
f 392/988/302 391/989/303 393/990/303
f 391/991/303 392/992/302 393/993/303
f 394/994/304 396/995/304 395/996/304
f 396/997/304 394/998/304 395/999/304
f 399/1000/305 397/1001/306 398/1002/307
f 397/1003/306 399/1004/305 398/1005/307
f 402/1006/120 401/1007/120 400/1008/120
f 401/1009/120 402/1010/120 400/1011/120
f 404/1012/306 405/1013/308 403/1014/308
f 405/1015/308 404/1016/306 403/1017/308
f 408/1018/309 406/1019/310 407/1020/309
f 406/1021/310 408/1022/309 407/1023/309
f 409/1024/120 411/1025/120 410/1026/120
f 411/1027/120 409/1028/120 410/1029/120
f 413/1030/120 414/1031/120 412/1032/120
f 414/1033/120 413/1034/120 412/1035/120
f 417/1036/130 416/1037/120 415/1038/120
f 416/1039/120 417/1040/130 415/1041/120
f 420/1042/120 418/1043/120 419/1044/120
f 420/1045/120 419/1046/120 418/1047/120
f 423/1048/120 421/1049/121 422/1050/121
f 422/1051/121 421/1052/121 423/1053/120
f 426/1054/120 425/1055/120 424/1056/120
f 425/1057/120 426/1058/120 424/1059/120
f 429/1060/120 428/1061/120 427/1062/120
f 428/1063/120 429/1064/120 427/1065/120
f 432/1066/311 430/1067/312 431/1068/313
f 431/1069/313 430/1070/312 432/1071/311
f 433/1072/314 435/1073/315 434/1074/316
f 434/1075/316 435/1076/315 433/1077/314
f 437/1078/311 438/1079/312 436/1080/313
f 436/1081/313 438/1082/312 437/1083/311
f 439/1084/317 441/1085/317 440/1086/318
f 441/1087/317 439/1088/317 440/1089/318
f 444/1090/319 442/1091/120 443/1092/320
f 442/1093/120 444/1094/319 443/1095/320
f 445/1096/166 446/1097/166 447/1098/166
f 446/1099/166 445/1100/166 447/1101/166
f 450/1102/321 449/1103/322 448/1104/323
f 448/1105/323 449/1106/322 450/1107/321
f 452/1108/120 451/1109/120 453/1110/120
f 452/1111/120 453/1112/120 451/1113/120
f 454/1114/324 456/1115/324 455/1116/324
f 455/1117/324 456/1118/324 454/1119/324
f 459/1120/120 457/1121/120 458/1122/120
f 459/1123/120 458/1124/120 457/1125/120
f 461/1126/302 460/1127/302 462/1128/302
f 462/1129/302 460/1130/302 461/1131/302
f 464/1132/302 465/1133/302 463/1134/302
f 463/1135/302 465/1136/302 464/1137/302
f 468/1138/302 467/1139/302 466/1140/302
f 466/1141/302 467/1142/302 468/1143/302
f 471/1144/120 470/1145/120 469/1146/120
f 469/1147/120 470/1148/120 471/1149/120
f 472/1150/120 474/1151/120 473/1152/120
f 472/1153/120 473/1154/120 474/1155/120
f 475/1156/325 476/1157/326 477/1158/327
f 476/1159/326 475/1160/325 477/1161/327
f 479/1162/328 478/1163/329 480/1164/328
f 478/1165/329 479/1166/328 480/1167/328
f 482/1168/330 481/1169/130 483/1170/331
f 481/1171/130 482/1172/330 483/1173/331
f 485/1174/120 484/1175/120 486/1176/120
f 486/1177/120 484/1178/120 485/1179/120
f 487/1180/332 488/1181/333 489/1182/334
f 488/1183/333 487/1184/332 489/1185/334
f 491/1186/335 490/1187/336 492/1188/337
f 490/1189/336 491/1190/335 492/1191/337
f 494/1192/338 493/1193/339 495/1194/340
f 493/1195/339 494/1196/338 495/1197/340
f 498/1198/120 497/1199/120 496/1200/120
f 498/1201/120 496/1202/120 497/1203/120
f 499/1204/120 501/1205/120 500/1206/120
f 499/1207/120 500/1208/120 501/1209/120
f 504/1210/341 502/1211/342 503/1212/343
f 503/1213/343 502/1214/342 504/1215/341
f 507/1216/166 505/1217/166 506/1218/166
f 505/1219/166 507/1220/166 506/1221/166
f 508/1222/130 510/1223/130 509/1224/130
f 510/1225/130 508/1226/130 509/1227/130
f 519/167/344 511/169/344 513/1228/344
f 511/1229/345 518/1230/345 515/42/345
f 511/169/97 528/168/96 512/1231/346
f 513/1228/347 528/168/347 519/167/347
f 512/1232/13 527/55/348 514/57/14
f 517/174/349 520/1233/350 534/1234/38
f 517/1235/351 523/1236/352 521/126/353
f 532/1237/354 516/153/355 533/173/356
f 523/1236/357 531/1238/357 529/78/357
f 520/1239/350 521/1240/36 534/1241/38
f 531/171/358 522/1242/359 534/1243/38
f 522/1244/359 523/83/39 534/82/38
f 524/81/360 530/172/360 525/79/360
f 521/1240/36 525/1245/35 534/1241/38
f 531/171/358 534/1243/38 526/170/361
f 532/1237/354 533/173/356 534/1246/362
f 535/1247/363 536/1248/364 539/1249/365
f 536/1250/364 556/1251/366 538/1252/367
f 536/1250/364 540/1253/368 556/1251/366
f 556/86/369 555/1254/369 554/59/369
f 543/1255/370 541/58/24 539/60/26
f 535/1256/363 539/1257/365 555/1258/371
f 543/1255/370 554/59/372 541/58/24
f 545/5/103 549/1259/373 550/178/101
f 545/1260/374 547/132/375 548/1261/72
f 558/154/376 546/6/102 550/178/101
f 547/1262/377 558/1263/376 550/1264/101
f 548/1261/72 547/132/375 553/131/45
f 554/1265/378 547/1266/377 550/1267/101
f 548/1261/72 553/131/45 549/1268/44
f 549/88/373 552/50/379 550/1267/101
f 554/1265/378 550/1267/101 557/49/380
f 560/179/381 559/181/381 568/1269/381
f 568/1269/347 575/180/347 560/179/347
f 563/1270/382 561/1271/383 574/61/384
f 559/181/106 575/180/105 561/1272/385
f 563/1270/382 574/61/384 564/63/386
f 566/11/107 580/1273/387 579/156/84
f 566/1274/388 573/1275/389 581/46/19
f 578/183/390 579/1276/84 569/182/391
f 572/95/392 577/184/392 570/93/392
f 580/1277/387 570/1278/16 579/1279/84
f 581/46/19 576/92/393 571/47/20
f 573/1275/394 578/1280/395 576/92/394
f 580/1277/387 571/1281/48 570/1278/16
f 585/1282/396 583/1283/397 596/64/384
f 585/1282/396 596/64/384 589/66/398
f 587/17/107 593/1284/399 592/158/87
f 587/1285/400 595/1286/401 594/119/63
f 582/187/106 597/186/105 583/1287/385
f 591/1288/347 597/186/347 590/185/347
f 590/185/381 582/187/381 591/1288/381
f 594/119/63 598/98/402 603/120/64
f 595/1286/403 600/1289/403 598/98/403
f 593/1290/399 602/1291/16 592/1292/87
f 593/1290/399 603/1293/17 602/1291/16
f 600/189/390 592/1294/87 601/188/391
f 604/45/392 599/190/392 602/43/392
f 608/191/404 605/193/404 609/1295/404
f 605/1296/405 611/101/406 606/100/407
f 605/193/110 620/192/109 607/1297/408
f 609/1295/347 620/192/347 608/191/347
f 607/1298/51 619/67/409 606/69/52
f 613/160/410 612/140/410 611/101/410
f 612/140/113 614/142/56 624/197/111
f 615/1299/411 613/1300/412 626/1301/413
f 618/1302/414 613/160/112 624/197/111
f 615/1299/415 621/104/416 614/1303/417
f 618/1304/418 623/1305/418 621/104/418
f 614/1306/56 617/1307/55 624/1308/111
f 615/1299/415 626/1301/419 618/1304/420
f 616/107/392 622/196/392 617/105/392
f 623/195/390 624/1309/111 625/194/421
f 627/1310/422 632/1311/365 642/1312/423
f 629/1313/424 628/1314/425 643/1315/366
f 646/1316/426 641/71/372 631/70/30
f 646/1316/426 631/70/30 632/72/32
f 627/1317/422 629/1318/424 632/1319/365
f 629/1313/424 643/1315/366 633/1320/427
f 643/109/428 642/1321/428 641/71/428
f 637/1322/377 634/1323/429 636/1324/115
f 648/1325/374 637/147/430 650/1326/80
f 634/163/429 649/33/116 636/201/115
f 641/1327/431 636/1328/115 644/52/432
f 641/1327/431 637/1329/377 636/1328/115
f 648/32/103 635/1330/373 636/201/115
f 635/111/373 639/53/379 636/1328/115
f 650/1326/80 640/146/60 635/1331/59
f 650/1326/80 637/147/430 640/146/60
f 666/202/381 651/204/381 659/1332/381
f 654/1333/433 661/73/384 658/75/434
f 654/1333/433 652/1334/397 661/73/384
f 656/35/119 668/1335/399 667/165/92
f 656/1336/435 660/1337/436 669/122/65
f 659/1332/347 662/203/347 666/202/347
f 651/204/118 662/203/117 652/1338/437
f 669/122/65 663/115/402 670/123/66
f 665/206/390 667/1339/92 672/205/421
f 671/118/392 664/207/392 673/116/392
f 660/1337/438 665/1340/438 663/115/438
f 668/1341/399 673/1342/16 667/1343/92
f 668/1341/399 670/1344/17 673/1342/16
f 676/1345/120 674/1346/120 675/1347/120
f 676/1348/120 675/1349/120 674/1350/120
f 677/1351/120 678/1352/120 679/1353/120
f 677/1354/120 679/1355/120 678/1356/120
f 515/1357/439 516/1358/439 517/1359/439
f 517/1359/440 518/1360/441 512/1232/442
f 512/1232/443 515/1357/444 517/1359/445
f 531/3/446 523/1361/447 527/1/447
f 527/1/448 528/1362/448 529/2/448
f 529/2/449 530/1363/449 531/3/449
f 546/6/450 542/155/450 544/4/450
f 542/155/451 543/1364/451 544/4/451
f 543/1364/370 539/1365/26 544/4/452
f 551/7/453 552/1366/453 553/8/453
f 553/8/454 554/1367/454 555/9/454
f 555/9/455 556/1368/455 551/7/455
f 567/12/456 562/157/456 565/10/456
f 562/157/457 563/1369/457 565/10/457
f 563/1369/382 564/1370/386 565/10/458
f 578/15/459 573/1371/459 574/13/459
f 574/13/460 575/1372/460 576/14/460
f 576/14/461 577/1373/461 578/15/461
f 588/18/462 584/159/462 586/16/462
f 584/159/463 585/1374/464 586/16/463
f 585/1374/396 589/1375/398 586/16/465
f 600/21/466 595/1376/467 596/19/467
f 596/19/460 597/1377/460 598/20/460
f 598/20/468 599/1378/468 600/21/468
f 607/22/469 611/1379/470 612/23/471
f 613/24/472 610/1380/472 607/22/472
f 623/27/473 618/1381/474 619/25/474
f 619/25/460 620/1382/460 621/26/460
f 621/26/468 622/1383/468 623/27/468
f 638/28/475 639/1384/475 640/29/475
f 640/29/476 641/1385/476 642/30/476
f 642/30/477 643/1386/477 638/28/477
f 649/33/478 645/164/478 647/31/478
f 645/164/479 646/1387/480 647/31/480
f 646/1387/426 632/1388/32 647/31/481
f 657/36/482 653/166/482 655/34/482
f 653/166/483 654/1389/483 655/34/483
f 654/1389/433 658/1390/434 655/34/484
f 665/39/485 660/1391/485 661/37/485
f 661/37/448 662/1392/448 663/38/448
f 663/38/486 664/1393/486 665/39/486
f 557/49/380 550/1267/101 552/50/487
f 607/99/408 610/162/488 605/1296/110
f 644/52/432 636/1328/115 639/53/487
f 527/55/489 523/1394/489 513/56/489
f 534/1243/38 525/1395/35 526/170/361
f 543/1364/370 542/155/490 537/1396/491
f 541/58/492 555/1254/492 554/59/492
f 563/1369/382 562/157/493 561/1397/383
f 574/61/494 573/1398/494 568/62/494
f 579/1276/84 570/1399/16 569/182/391
f 585/1374/396 584/159/495 583/1400/397
f 596/64/494 595/1401/494 591/65/494
f 592/1294/87 602/1402/16 601/188/391
f 619/67/496 618/1403/496 609/68/496
f 624/1309/111 617/1404/55 625/194/421
f 646/1387/426 645/164/497 630/1405/498
f 631/70/499 642/1321/499 641/71/499
f 654/1389/433 653/166/500 652/1406/397
f 661/73/494 660/1407/494 659/74/494
f 667/1339/92 673/1408/16 672/205/421
f 512/1232/13 528/1409/501 527/55/348
f 524/76/502 521/1410/502 530/77/502
f 538/85/503 551/1411/503 556/86/503
f 538/1252/367 537/1412/504 536/1250/364
f 561/1271/505 575/1413/505 574/61/505
f 572/90/506 571/1414/506 577/91/506
f 583/1283/507 597/1415/508 596/64/508
f 604/96/509 603/1416/509 599/97/509
f 607/1298/51 620/1417/510 619/67/409
f 616/102/511 614/1418/511 622/103/511
f 633/108/512 638/1419/512 643/109/512
f 633/1320/427 630/1420/513 629/1313/424
f 652/1334/505 662/1421/505 661/73/505
f 671/113/509 670/1422/509 664/114/509
f 518/125/514 517/1235/514 521/126/514
f 545/128/515 544/1423/515 548/129/515
f 566/134/516 565/1424/516 581/135/516
f 587/137/517 586/1425/517 594/138/517
f 612/140/518 611/101/518 615/141/518
f 648/143/519 647/1426/519 650/144/519
f 656/149/520 655/1427/520 669/150/520
f 514/1428/521 513/1228/522 511/169/523
f 515/42/524 532/1237/524 523/152/524
f 558/154/376 547/1429/377 542/155/525
f 564/1430/526 568/1269/527 559/181/528
f 579/156/529 573/1431/530 562/157/531
f 589/1432/532 591/1288/533 582/187/534
f 592/158/535 595/1433/536 584/159/537
f 606/1434/407 609/1295/538 605/193/405
f 613/160/539 618/1302/540 626/161/541
f 634/163/429 637/1435/377 645/164/542
f 658/1436/543 659/1332/544 651/204/545
f 667/165/546 660/1437/546 653/166/546
f 536/1438/364 535/1439/363 540/1440/368
f 629/1441/424 627/1442/422 628/1443/425
f 512/40/346 518/1230/547 511/1229/97
f 519/167/548 529/1444/548 528/168/548
f 526/170/549 525/1395/549 531/171/549
f 516/153/550 534/1246/362 533/173/356
f 536/1445/364 544/4/551 539/1365/365
f 556/175/552 555/1258/552 540/176/552
f 559/1446/528 565/10/553 564/1370/526
f 560/179/554 576/1447/554 575/180/554
f 569/182/555 570/1399/555 578/183/555
f 582/1448/534 586/16/556 589/1375/532
f 590/185/554 598/1449/554 597/186/554
f 601/188/555 602/1402/555 600/189/555
f 608/191/557 621/1450/557 620/192/557
f 625/194/555 617/1404/555 623/195/555
f 629/1451/424 647/31/558 632/1388/365
f 643/198/552 642/1312/552 628/199/552
f 651/1452/545 655/34/559 658/1390/543
f 666/202/557 663/1453/557 662/203/557
f 672/205/555 673/1408/555 665/206/555
f 518/1230/560 517/174/560 516/153/560
f 515/42/561 514/41/521 511/1229/523
f 518/1230/562 516/153/562 515/42/562
f 513/1228/563 527/1454/563 528/168/563
f 517/1235/564 516/1455/564 523/1236/564
f 529/78/565 521/126/353 523/1236/352
f 544/4/566 536/1445/566 542/155/566
f 536/1445/364 537/1396/504 542/155/567
f 554/59/372 543/1255/370 537/87/491
f 554/59/568 537/87/568 556/86/568
f 545/1260/569 546/1456/569 547/132/570
f 557/49/571 552/50/571 554/1265/571
f 552/50/572 553/89/572 554/1265/572
f 568/1269/573 574/1457/573 575/180/573
f 566/1274/574 567/1458/575 573/1275/576
f 565/10/577 559/1446/577 562/157/577
f 559/1446/106 561/1397/385 562/157/578
f 576/92/393 581/46/19 573/1275/389
f 587/1285/574 588/1459/574 595/1286/579
f 586/16/580 582/1448/580 584/159/580
f 582/1448/106 583/1400/385 584/159/578
f 591/1288/581 596/1460/581 597/186/581
f 598/98/402 594/119/63 595/1286/401
f 609/1295/581 619/1461/581 620/192/581
f 611/101/406 605/1296/405 610/162/582
f 611/101/583 610/162/583 613/160/583
f 615/1299/411 612/1462/584 613/1300/412
f 621/104/416 615/1299/415 618/1304/420
f 647/31/566 629/1451/566 645/164/566
f 629/1451/424 630/1405/513 645/164/585
f 641/71/372 646/1316/426 630/110/498
f 641/71/568 630/110/568 643/109/586
f 648/1325/569 649/1463/569 637/147/570
f 644/52/587 639/53/587 641/1327/587
f 639/53/588 640/112/588 641/1327/588
f 656/1336/589 657/1464/590 660/1337/591
f 655/34/592 651/1452/592 653/166/592
f 651/1452/118 652/1406/437 653/166/593
f 659/1332/581 661/1465/581 662/203/581
f 663/115/402 669/122/65 660/1337/436
