# Blender 4.5.0
# www.blender.org
mtllib parking_001.lod2.mtl
o parking_001
v -4.196487 2.457193 -4.764242
v -4.984888 3.202686 -4.764242
v -0.638345 1.119159 0.950743
v 0.569065 1.645589 1.360305
v -0.528927 1.645562 1.365109
v -0.528927 1.645598 3.509285
v -0.719148 1.238213 1.370342
v 0.759083 1.238213 1.370360
v 0.568846 1.645481 3.509285
v 2.460937 0.054710 -4.823967
v 5.300000 -0.000000 5.400000
v -5.300000 0.008242 5.400000
v -5.183261 0.229835 -5.400000
v -5.254493 0.055036 5.389179
v -5.195684 0.030261 -5.400000
v 5.195684 0.229835 -5.400000
v 5.183261 0.030261 -5.400000
v 5.254479 0.055024 5.389179
v 5.207919 0.030261 5.283242
v 5.207919 0.229836 5.295658
v -5.189472 0.055024 5.354412
v -3.792306 0.055499 0.061121
v -3.749405 0.055133 5.013190
v -3.835209 0.055866 5.013190
v -1.204567 0.055133 5.013190
v -1.290372 0.055866 5.013190
v -1.247469 0.055499 0.061121
v 1.297368 0.055499 0.061122
v 1.254466 0.055866 5.013190
v 1.340270 0.055133 5.013190
v 3.799304 0.055866 5.013190
v 3.842205 0.055499 0.061121
v 3.885108 0.055133 5.013190
v -3.303943 0.111403 4.614566
v -1.741467 0.063943 4.765031
v -3.303943 0.128546 4.767586
v -2.864190 0.138577 0.655898
v -2.153618 0.101670 0.337375
v -2.153618 0.097981 0.667532
v 0.809004 0.128546 4.614566
v 0.809004 0.111403 4.767586
v -0.753471 0.176005 4.765031
v -0.341321 0.101670 0.667532
v -0.341321 0.097981 0.337375
v 0.369251 0.061074 0.655898
v 1.791366 0.176005 4.765031
v 3.353842 0.111402 4.767586
v 3.353842 0.128546 4.614566
v 2.926079 0.101670 0.337375
v 2.215506 0.138577 0.655898
v 2.926078 0.097980 0.667533
v -4.859544 1.762072 -3.457025
v -4.222032 0.049454 -3.457025
v -4.222032 1.762072 -2.918023
v -4.760814 1.420195 -3.477923
v -4.320763 1.420195 -3.475554
v -4.326440 0.764724 -3.484002
v -4.585553 0.008774 -4.678329
v -4.539933 3.185511 -4.732247
v -4.628663 3.205029 -4.640208
v -4.148478 3.250000 -4.680307
v -4.984888 2.457193 -4.764242
v -4.148475 2.409881 -4.686615
v -2.526816 0.032107 -4.744283
v -2.454067 0.046049 -4.824969
v -2.488796 0.798601 -4.783191
v 2.463061 0.032107 -4.744283
v 2.501082 0.798601 -4.783191
v 2.535811 0.046049 -4.824969
v 0.313344 0.564453 0.644567
v 0.653050 0.482646 3.888256
v -0.597252 0.450797 3.825762
v -0.133473 0.701599 4.145059
v 0.660194 0.626623 0.710719
v -0.620244 0.883575 0.710643
v 0.686341 1.087627 0.929986
v 0.343104 1.000224 4.085052
v -0.634623 1.080156 2.445889
v -0.540439 1.795857 2.447171
v -0.683420 1.088369 2.449646
v -0.730518 1.016580 1.534406
v -0.729707 1.038105 1.384177
v -0.731329 0.995054 1.384177
v -0.729707 1.038105 3.468515
v -0.730518 1.016580 3.618745
v -0.731329 0.995054 3.468515
v -0.696643 1.182569 1.199696
v -0.696644 1.172965 1.390901
v -0.903168 1.233798 1.369255
v 0.674757 1.080194 2.449646
v 0.723555 1.088401 2.445889
v 0.582706 1.796252 2.447171
v 0.769626 0.995054 1.384177
v 0.770437 1.016580 1.534406
v 0.771248 1.038105 1.384177
v 0.770437 1.016580 3.618745
v 0.769626 0.995054 3.468516
v 0.771248 1.038106 3.468516
v 0.736562 1.172967 1.199696
v 0.943087 1.121737 1.369255
v 0.736563 1.182570 1.390901
v -0.783194 0.361755 1.692221
v -0.783194 0.674056 1.383061
v -0.594012 0.242243 1.097434
v -0.803370 0.157955 1.329002
v -0.806953 0.483523 1.181382
v -0.799788 0.365346 1.617992
v -0.802266 0.373128 1.353997
v -0.804038 0.361755 1.368086
v -0.816735 0.518269 1.387567
v -0.818646 0.520807 1.382275
v -0.791638 0.536870 1.382886
v -0.771870 0.518244 1.383815
v -0.795497 0.361347 1.402320
v -0.794009 0.375419 1.414124
v -0.814803 0.363801 1.389514
v -0.814599 0.360446 1.381277
v -0.818902 0.356529 1.385888
v -0.818902 0.357424 1.379014
v -0.818819 0.356463 1.380365
v -0.813685 0.361755 1.386322
v -0.821941 0.355965 1.387567
v -0.819857 0.356500 1.382162
v -0.783422 0.368294 1.401809
v -0.776173 0.361755 1.380856
v -0.771870 0.367663 1.382307
v -0.772658 0.355437 1.384086
v -0.771954 0.357530 1.378911
v -0.776846 0.359902 1.385586
v -0.766102 0.359925 1.380567
v -0.768831 0.369116 1.383336
v -0.770916 0.365474 1.379276
v -0.793458 0.338799 1.388296
v -0.795388 0.416789 1.547594
v -0.796302 0.383496 1.373813
v -0.799237 0.219961 1.484780
v -0.794149 0.335832 1.366368
v -0.786735 0.352864 1.370947
v -0.774038 0.237808 1.477777
v -0.772126 0.232613 1.474973
v -0.796765 0.369144 1.416138
v -0.818902 0.235601 1.474728
v -0.794088 0.373606 1.360845
v -0.807362 0.370356 1.371343
v -0.804324 0.221217 1.295380
v -0.797404 0.345935 1.398461
v -0.782892 0.345729 1.396046
v -0.795388 0.414925 1.217927
v -0.796301 0.338676 1.377894
v -0.793458 0.383436 1.392183
v 0.633931 0.361755 1.692221
v 0.633931 0.674056 1.383061
v 0.823113 0.242243 1.097434
v 0.839707 0.358165 1.617992
v 0.846872 0.239987 1.181382
v 0.843289 0.565556 1.329002
v 0.847800 0.367011 1.363231
v 0.830855 0.364582 1.360276
v 0.838584 0.536655 1.382544
v 0.808330 0.352541 1.387295
v 0.811873 0.367638 1.382162
v 0.817672 0.361755 1.383591
v 0.811646 0.365702 1.383564
v 0.811790 0.356529 1.385888
v 0.811873 0.357530 1.387210
v 0.805059 0.361392 1.374246
v 0.808751 0.368682 1.382473
v 0.810835 0.363671 1.385550
v 0.813958 0.518269 1.387567
v 0.835789 0.363873 1.405899
v 0.837234 0.338799 1.388296
v 0.834390 0.383496 1.373813
v 0.835304 0.416789 1.547594
v 0.837455 0.336154 1.366774
v 0.823330 0.353112 1.371284
v 0.831852 0.373802 1.404827
v 0.826336 0.370973 1.395621
v 0.833820 0.217653 1.477749
v 0.858822 0.234705 1.473508
v 0.843775 0.353051 1.371201
v 0.823541 0.274181 1.495407
v 0.844275 0.352537 1.395621
v 0.818692 0.236252 1.299035
v 0.834692 0.373142 1.378584
v 0.822895 0.345117 1.395783
v 0.822811 0.369278 1.363960
v 0.845261 0.241219 1.270310
v 0.864830 0.364619 1.383982
v 0.858822 0.356529 1.380233
v 0.858738 0.357530 1.378911
v 0.857769 0.361331 1.383639
v 0.865627 0.361388 1.382559
v 0.861860 0.369362 1.383158
v 0.859386 0.366877 1.379102
v 0.858738 0.367638 1.383959
v 0.854519 0.361755 1.380856
v 0.813958 0.237808 1.288344
v 0.837233 0.383436 1.392183
v 0.834390 0.338676 1.377894
v 0.835304 0.414925 1.217927
v -0.594012 0.242243 3.125924
v -0.783194 0.674056 3.411551
v -0.783194 0.361755 3.720711
v -0.799788 0.365345 3.646482
v -0.806953 0.483523 3.209872
v -0.803370 0.157955 3.357492
v -0.809201 0.363301 3.428925
v -0.783072 0.367713 3.431826
v -0.795098 0.364077 3.387018
v -0.794861 0.536587 3.410850
v -0.771870 0.518244 3.412305
v -0.816314 0.364754 3.415786
v -0.818819 0.367638 3.410652
v -0.809539 0.367011 3.428512
v -0.821941 0.363332 3.404847
v -0.819857 0.364738 3.410516
v -0.824136 0.360581 3.418271
v -0.818902 0.357425 3.407504
v -0.818819 0.356463 3.408855
v -0.816735 0.518270 3.416057
v -0.793458 0.338799 3.416785
v -0.796302 0.383496 3.402303
v -0.795388 0.416789 3.576084
v -0.794178 0.369863 3.443177
v -0.784319 0.368685 3.431298
v -0.776173 0.361755 3.409346
v -0.771870 0.367663 3.410797
v -0.772658 0.355437 3.412576
v -0.771954 0.357530 3.407401
v -0.776846 0.359902 3.414076
v -0.766102 0.359925 3.409057
v -0.768832 0.369116 3.411826
v -0.770916 0.365474 3.407766
v -0.816735 0.232458 3.498977
v -0.814556 0.225134 3.512990
v -0.776574 0.221550 3.509198
v -0.788885 0.340069 3.396569
v -0.807881 0.345729 3.398566
v -0.774038 0.237808 3.506268
v -0.786735 0.352864 3.399437
v -0.799370 0.344347 3.428356
v -0.804356 0.352538 3.424112
v -0.791527 0.261690 3.313625
v -0.807362 0.370356 3.399833
v -0.782892 0.345729 3.424536
v -0.793458 0.383437 3.420672
v -0.796302 0.338676 3.406384
v -0.795388 0.414925 3.246418
v 0.670980 0.307683 3.800651
v 0.823113 0.242243 3.125924
v 0.633931 0.674056 3.411551
v 0.839707 0.358166 3.646482
v 0.846872 0.239988 3.209872
v 0.843289 0.565556 3.357492
v 0.815855 0.364620 3.410617
v 0.811790 0.357425 3.407504
v 0.811873 0.356463 3.408855
v 0.839835 0.347049 3.412456
v 0.808751 0.363332 3.404847
v 0.810835 0.364906 3.410396
v 0.811687 0.357018 3.414438
v 0.811873 0.367638 3.410652
v 0.817865 0.361755 3.412414
v 0.857275 0.409703 3.438741
v 0.835572 0.364031 3.432649
v 0.833989 0.365334 3.386689
v 0.847281 0.361755 3.397029
v 0.834390 0.383496 3.402303
v 0.835304 0.416790 3.576084
v 0.837234 0.338799 3.416785
v 0.845762 0.346995 3.396501
v 0.840340 0.219747 3.513429
v 0.812173 0.232511 3.505500
v 0.813958 0.232458 3.498977
v 0.823470 0.345284 3.398343
v 0.835133 0.369289 3.442397
v 0.836605 0.373606 3.389335
v 0.823330 0.370356 3.399833
v 0.837036 0.343185 3.426117
v 0.831675 0.220357 3.309715
v 0.858738 0.357530 3.407401
v 0.853846 0.359902 3.414076
v 0.858983 0.358475 3.409777
v 0.858822 0.367663 3.410797
v 0.858738 0.367638 3.412449
v 0.858690 0.356122 3.416815
v 0.853846 0.363609 3.414076
v 0.856654 0.232458 3.324124
v 0.837234 0.383437 3.420672
v 0.834390 0.338676 3.406384
v 0.835304 0.414925 3.246418
v -0.591487 0.962189 0.680574
v -0.591487 0.788892 0.683357
v -0.244257 0.875541 0.681965
v -0.303185 1.000224 4.140240
v -0.581209 1.012734 4.111250
v -0.581209 0.829016 4.114044
v 0.324255 0.788892 0.683357
v 0.671486 0.875541 0.681965
v 0.324255 0.962189 0.680574
v 0.343104 0.841526 4.140240
v 0.621129 0.829017 4.111251
v 0.621127 1.012735 4.114044
v 0.355973 0.623685 0.667006
v -0.282291 0.683925 0.664594
v -0.282291 0.563445 0.669417
v 0.178860 0.705008 4.133639
v -0.180699 0.638797 4.132593
v 0.178860 0.572585 4.131546
v 0.352930 0.707942 0.641928
v -0.318974 0.706797 0.655038
v 0.352930 0.705653 0.668148
v 0.358893 0.767243 0.655038
v -0.313011 0.768387 0.668148
v -0.313011 0.766098 0.641928
v 0.358893 0.827688 0.655038
v -0.313011 0.814445 0.656172
v -0.313011 0.840931 0.653905
vn 0.6987 -0.6864 0.2015
vn 0.8146 -0.3172 0.4856
vn -0.9801 -0.1237 0.1552
vn 0.0989 -0.1096 -0.9891
vn 0.8145 0.5275 0.2414
vn 0.8147 -0.3172 0.4855
vn 0.4416 0.5905 -0.6755
vn -0.2053 -0.4507 -0.8687
vn -0.4000 -0.5704 0.7174
vn -0.4877 -0.5397 0.6862
vn 0.1175 -0.6363 0.7624
vn -0.8618 0.0301 -0.5063
vn -0.8994 -0.0032 0.4371
vn 0.4698 -0.4947 0.7312
vn -0.2040 -0.6164 0.7605
vn 0.3840 -0.6169 0.6870
vn -0.0423 -0.6395 0.7676
vn -0.6330 0.1103 -0.7662
vn 0.3795 0.4391 0.8143
vn 0.1921 -0.9180 -0.3470
vn -0.1961 -0.9484 0.2492
vn -0.0619 -0.9970 0.0466
vn -0.4864 -0.7395 0.4653
vn -0.7364 -0.4891 -0.4674
vn 0.0813 0.7738 0.6282
vn 0.0813 0.7739 0.6281
vn 0.0412 0.5100 0.8592
vn -0.0502 0.9890 -0.1394
vn -0.9366 0.0691 -0.3436
vn -0.7535 0.3377 -0.5641
vn -0.7885 0.3006 -0.5365
vn 0.3795 0.4392 0.8143
vn 0.6310 0.3639 -0.6851
vn -0.0503 -0.9980 0.0374
vn -0.7424 -0.1061 0.6615
vn -0.4762 -0.7246 0.4982
vn -0.1112 0.7625 -0.6373
vn 0.4363 -0.4456 -0.7817
vn -0.5227 -0.0470 -0.8512
vn 0.9239 -0.0038 0.3826
vn -0.8697 0.2921 0.3979
vn -0.8699 0.2924 0.3972
vn -0.8696 0.2922 0.3979
vn -0.9167 0.1332 -0.3767
vn -0.0464 0.3918 -0.9189
vn -0.9949 -0.1002 -0.0103
vn 0.9865 0.1186 0.1129
vn -0.9960 -0.0295 0.0847
vn -0.9371 -0.2275 0.2647
vn 0.9239 -0.0038 0.3825
vn -0.9370 0.1786 0.3001
vn -0.9766 -0.1992 -0.0817
vn -0.2889 -0.7862 0.5463
vn -0.4468 -0.7399 0.5028
vn 0.2014 -0.7882 0.5815
vn 0.8131 0.3427 -0.4705
vn 0.1264 0.7356 -0.6655
vn 0.9987 0.0030 0.0506
vn -0.9367 0.1792 0.3009
vn -0.9241 0.1238 -0.3615
vn -0.0413 0.4569 -0.8885
vn -0.9919 -0.1242 -0.0276
vn 0.6274 -0.2783 -0.7273
vn -0.0857 0.9866 -0.1388
vn -0.0866 0.9863 -0.1404
vn -0.0867 0.9865 -0.1392
vn -0.6740 -0.1183 -0.7292
vn 0.5343 0.8402 0.0931
vn -0.5937 -0.6871 -0.4190
vn 0.3726 0.2433 -0.8955
vn -0.8810 0.1268 -0.4558
vn -0.0958 -0.0822 0.9920
vn -0.3790 -0.4618 0.8019
vn 0.1295 -0.7776 -0.6153
vn 0.6954 -0.3528 -0.6261
vn -0.8199 -0.1736 -0.5455
vn -0.4704 0.6644 -0.5808
vn -0.5567 -0.7006 -0.4464
vn -0.0377 -0.7828 -0.6211
vn 0.4330 -0.7457 0.5065
vn -0.3953 -0.3430 0.8521
vn -0.7915 0.5565 -0.2526
vn -0.5178 -0.5170 0.6816
vn 0.9680 -0.2488 0.0309
vn 0.8867 -0.2713 -0.3745
vn 0.6691 -0.5561 0.4930
vn 0.6714 -0.5553 0.4907
vn 0.4701 -0.8341 0.2887
vn 0.4819 0.5786 -0.6580
vn 0.4670 0.5830 -0.6648
vn 0.5733 0.5468 -0.6102
vn 0.9387 -0.2485 0.2389
vn 0.3485 -0.6264 -0.6973
vn 0.5335 -0.5529 -0.6401
vn -0.2736 -0.6774 -0.6829
vn 0.9714 -0.2347 0.0371
vn -0.6704 0.2595 0.6951
vn 0.9940 -0.0893 0.0627
vn -0.7625 -0.3866 0.5189
vn 0.2941 0.1399 -0.9455
vn 0.1408 0.1994 -0.9698
vn -0.0032 0.2545 -0.9671
vn -0.7325 0.6357 0.2436
vn -0.2901 0.6187 0.7301
vn -0.7348 -0.0997 0.6709
vn -0.0889 0.4151 0.9054
vn 0.4554 -0.3269 0.8281
vn -0.0886 -0.0902 0.9920
vn -0.2614 -0.0045 0.9652
vn -0.5772 0.7573 -0.3054
vn 0.2927 0.3545 -0.8880
vn 0.4800 0.7292 -0.4878
vn -0.6641 0.3654 0.6523
vn 0.4542 0.8909 0.0078
vn -0.4336 -0.3702 -0.8215
vn 0.3299 -0.7439 -0.5812
vn -0.5966 -0.6240 -0.5047
vn -0.0535 -0.0971 -0.9938
vn -0.2446 -0.9644 -0.1002
vn 0.2927 0.3545 -0.8881
vn -0.0080 -0.6981 -0.7159
vn 0.0863 -0.7380 0.6692
vn -0.2535 -0.6764 0.6915
vn -0.9336 0.0299 -0.3570
vn 0.9341 -0.2322 -0.2713
vn -0.3403 0.1357 -0.9305
vn -0.4606 0.1342 -0.8774
vn 0.1538 0.1200 -0.9808
vn 0.9956 -0.0331 -0.0881
vn 0.9341 -0.2321 -0.2712
vn -0.0000 -0.0000 -0.0000
vn -0.0000 0.2228 0.9749
vn -0.0000 0.1713 0.9852
vn -0.0000 -0.0000 1.0000
vn -0.0000 -1.0000 -0.0013
vn -0.0000 -1.0000 -0.0009
vn -0.9746 -0.0000 -0.2239
vn -0.9870 -0.0000 -0.1609
vn -0.0000 -1.0000 -0.0051
vn -0.0000 -1.0000 -0.0036
vn -1.0000 -0.0000 -0.0000
vn -0.0000 -1.0000 -0.0000
vn 0.2638 -0.9646 -0.0000
vn 0.2628 -0.9649 -0.0000
vn 0.2805 -0.9599 -0.0000
vn -0.9939 -0.0000 0.1104
vn -0.1081 -0.0275 0.9938
vn -0.2986 0.0362 -0.9537
vn -0.0000 -0.0680 -0.9977
vn -0.0000 -0.0633 -0.9980
vn -0.0000 0.1296 0.9916
vn -0.0000 0.1259 0.9920
vn -0.0000 1.0000 -0.0000
vn -0.0000 -0.1185 0.9930
vn -0.0000 -0.1214 0.9926
vn 0.8941 -0.4470 0.0279
vn 0.9135 -0.4060 0.0254
vn 0.7807 -0.6246 0.0195
vn -0.2725 -0.0021 -0.9622
vn -0.3417 -0.0013 -0.9398
vn -0.2736 -0.0021 -0.9618
vn 0.0833 -0.9706 -0.2258
vn 0.0540 -0.8631 -0.5021
vn -0.0123 -0.9193 -0.3934
vn 0.6286 0.0954 -0.7719
vn -0.4078 0.7075 -0.5771
vn 0.2349 0.9719 -0.0138
vn -0.8630 0.0010 -0.5053
vn 0.4790 -0.6744 -0.5619
vn -0.7346 0.1122 0.6692
vn -0.0601 0.3189 0.9459
vn 0.6487 0.0784 -0.7570
vn -0.7677 0.1326 0.6270
vn 0.1300 0.1865 0.9738
vn 0.8202 -0.0057 0.5721
vn -0.2067 -0.9568 -0.2043
vn -0.5828 0.7995 -0.1456
vn -0.8211 0.3379 0.4600
vn -0.7150 -0.4746 -0.5133
vn -0.6953 -0.4985 -0.5177
vn -0.2322 -0.7981 0.5560
vn -0.2608 0.6678 0.6971
vn 0.1780 0.7737 -0.6080
vn -0.0808 0.3868 -0.9186
vn 0.6528 0.7071 -0.2719
vn 0.0448 0.3918 -0.9190
vn 0.0286 0.7229 0.6904
vn -0.1134 0.7585 0.6417
vn 0.0827 0.7993 0.5952
vn 0.7349 0.2985 0.6089
vn 0.7681 0.2571 0.5865
vn 0.7117 0.2364 -0.6616
vn 0.0571 0.2942 0.9540
vn -0.0332 0.8384 -0.5441
vn 0.0417 0.4737 -0.8797
vn 0.7943 -0.3517 -0.4953
vn 0.8279 -0.4319 0.3579
vn -0.1733 -0.1733 0.9695
vn -0.0000 -0.1631 0.9866
vn -0.0000 -0.1769 0.9842
vn -0.1290 0.4163 0.9000
vn 0.4098 -0.9112 -0.0428
vn 0.2761 0.7624 0.5852
vn -0.1872 0.1287 -0.9739
vn -0.1877 0.1290 -0.9737
vn -0.2498 0.1249 -0.9602
vn 1.0000 -0.0000 -0.0000
vn 0.8032 0.1103 -0.5854
vn 0.0074 -0.9998 -0.0163
vn -0.1161 -0.9932 -0.0029
vn -0.0217 0.1343 0.9907
vn 0.6809 0.0873 0.7272
vn -0.0258 0.1596 0.9868
vn -0.7418 0.1187 -0.6600
vn 0.0214 0.0259 -0.9994
vn -0.6145 0.1015 0.7824
vn -0.8122 -0.4060 -0.4190
vn 0.1170 -0.6242 -0.7725
vn 0.1801 -0.8427 -0.5073
vn 0.0139 0.6720 0.7404
vn -0.7676 0.4650 0.4410
vn -0.0302 0.6738 0.7383
vn -0.1972 -0.3248 0.9250
vn -0.8714 -0.3067 0.3829
vn -0.8327 0.2369 -0.5005
vn -0.8798 0.1703 -0.4438
vn -0.4108 0.7585 -0.5059
vn -0.1729 -0.1729 0.9697
vn -0.0000 -0.1763 0.9843
vn 0.0585 0.8806 -0.4702
vn -0.0000 0.8062 -0.5917
vn 0.0237 0.8386 -0.5442
vn 0.1100 0.9297 -0.3515
vn 0.3938 -0.6256 -0.6735
vn 0.8002 -0.3465 -0.4895
vn 0.9381 0.0643 0.3403
vn -0.7755 -0.3257 -0.5409
vn 0.9834 0.1690 0.0657
vn 0.3993 0.6005 -0.6927
vn -0.3678 0.4672 0.8040
vn -0.3893 0.0658 0.9188
vn -0.0394 -0.9928 0.1129
vn -0.3206 -0.9309 0.1749
vn 0.0376 0.1258 0.9913
vn 0.8826 -0.0047 0.4701
vn 0.6668 0.0910 -0.7397
vn 0.0532 0.0438 -0.9976
vn -0.6388 0.7690 0.0216
vn -0.4106 0.7101 0.5720
vn 0.3389 0.7037 -0.6244
vn 0.1175 0.4180 0.9008
vn -0.7847 0.3554 0.5078
vn -0.7284 -0.5785 0.3670
vn -0.7975 -0.4868 -0.3565
vn -0.8817 -0.4177 -0.2193
vn 0.8391 -0.5245 0.1442
vn 0.8375 -0.5234 0.1570
vn 0.8997 -0.4217 0.1125
vn -0.3700 0.8429 -0.3905
vn -0.4727 0.4830 -0.7371
vn -0.5130 0.2689 -0.8152
vn -0.1026 0.8940 -0.4362
vn 0.7343 0.2460 0.6327
vn -0.3770 0.8192 -0.4322
vn 0.4910 0.7000 -0.5186
vn 0.0031 0.4616 0.8871
vn 0.8288 -0.3378 -0.4461
vn 0.8184 -0.4869 0.3052
vn 0.9883 0.1524 -0.0105
vn 0.6404 -0.7000 0.3161
vn -0.8157 -0.4358 -0.3804
vn -0.1796 0.6357 0.7508
vn -0.7889 0.3617 0.4969
vn -0.8984 -0.2402 0.3676
vn -0.2955 -0.5902 0.7512
vn 0.0244 -0.6701 0.7419
vn -0.0819 -0.9963 -0.0254
vn 0.0347 0.4599 -0.8873
vn -0.0658 0.7737 -0.6301
vn -0.4269 0.7735 -0.4684
vn -0.1735 0.9825 -0.0678
vn 0.4281 0.8901 0.1560
vn -0.0770 0.9928 0.0915
vn -0.2461 -0.9691 -0.0190
vn 0.2808 -0.9475 0.1528
vn -0.0000 -0.0577 0.9983
vn -0.0000 -0.0627 0.9980
vn -0.0000 -0.0620 0.9981
vn -0.0154 -0.0845 0.9963
vn 0.7133 0.3208 0.6231
vn -0.0008 0.7036 0.7106
vn 0.0810 0.7685 0.6347
vn 0.2988 0.7371 0.6061
vn 0.7244 0.2994 -0.6210
vn 0.2703 0.3688 0.8893
vn 0.0696 -0.6878 0.7226
vn -0.4685 0.5025 -0.7266
vn 0.6526 -0.5249 0.5464
vn -0.0000 -0.9439 -0.3304
vn -0.0000 -0.9487 -0.3162
vn -0.0062 1.0000 -0.0000
vn -0.0080 1.0000 -0.0000
vn -0.0046 1.0000 -0.0000
vn -0.0132 0.9999 -0.0000
vn -0.0115 0.9999 -0.0000
vn -0.0103 0.9999 -0.0000
vn -0.0013 -1.0000 -0.0000
vn -0.7847 0.5671 -0.2504
vn -0.9452 0.2357 0.2259
vn -0.9452 0.2358 0.2260
vn -0.9452 0.2357 0.2260
vn 0.1641 -0.8034 0.5723
vn -0.5240 0.6219 -0.5820
vn 0.6047 -0.6765 0.4203
vn 0.9922 -0.0470 0.1158
vn -0.5769 0.5651 -0.5898
vn -0.6292 -0.3895 0.6725
vn -0.7494 0.2160 -0.6259
vn 0.3657 0.4999 0.7851
vn -0.3404 -0.5251 -0.7800
vn 0.9103 -0.3078 -0.2769
vn 0.9103 -0.3078 -0.2770
vn -0.8594 -0.1382 -0.4922
vn 0.9615 -0.1844 0.2038
vn 0.8810 0.0801 -0.4663
vn 0.8880 0.0260 -0.4590
vn 0.8181 -0.4325 -0.3791
vn -0.3009 0.7122 -0.6342
vn 0.1362 -0.0101 0.9906
vn -0.5126 0.8352 -0.1991
vn -0.1795 -0.3552 0.9174
vn 0.1150 0.2394 0.9641
vn -0.9108 -0.0656 0.4076
vn -0.8874 -0.0296 0.4601
vn 0.6482 -0.7599 -0.0497
vn 0.8869 -0.0207 -0.4616
vn -0.7645 -0.5466 -0.3417
vn -0.8505 -0.0835 0.5193
vn 0.6034 -0.6684 0.4349
vn -0.6293 -0.3896 0.6724
vn -0.8787 0.3619 0.3114
vn 0.0678 0.5257 0.8480
vn -0.7580 0.2307 0.6101
vn 0.6396 -0.1493 -0.7541
vn -0.9125 0.3231 0.2511
vn 0.5238 0.6849 0.5064
vn 0.3446 -0.3757 0.8603
vn 0.5210 -0.8102 0.2684
vn -0.0473 0.9298 -0.3651
vn 0.5924 -0.0786 0.8018
vn 0.7537 0.2681 -0.6001
vn 0.9986 0.0151 0.0509
vn -0.5342 0.7942 0.2897
vn -0.2269 0.0381 -0.9732
vn -0.2616 0.0382 -0.9644
vn 0.5324 -0.8112 -0.2418
vn 0.2091 0.5396 -0.8156
vn 0.4684 -0.7843 0.4068
vn -0.7681 0.6346 -0.0856
vn 0.1450 0.5467 0.8247
vn 0.3541 -0.8506 -0.3886
vn -0.7924 -0.1615 -0.5883
vn 0.6842 0.4585 0.5671
vn -0.8219 -0.1899 0.5371
vn -0.0517 0.9906 -0.1269
vn -0.7737 0.3981 -0.4928
vn 0.1453 0.5466 0.8247
vn 0.7449 0.0866 -0.6615
vn -0.7173 0.2543 0.6487
vn -0.5163 -0.4340 -0.7383
vn 0.0564 0.0100 -0.9984
vn -0.0588 -0.5910 -0.8045
vn -0.8892 -0.2932 0.3511
vn 0.0714 0.0099 -0.9974
vn -0.9696 0.1198 0.2134
vn -0.9465 -0.1945 -0.2575
vn 0.4387 0.0706 -0.8958
vn -0.9182 -0.1132 0.3796
vn -0.6577 0.2743 0.7015
vn -0.3575 0.9329 0.0439
vn 0.0829 0.5673 -0.8193
vn -0.6330 0.1102 -0.7663
vn -0.5447 -0.3772 0.7490
vn -0.2354 0.5452 0.8046
vn 0.6247 -0.6584 0.4198
vn 0.6280 -0.0734 0.7748
vn -0.3569 -0.5241 0.7732
vn 0.5707 -0.6642 0.4829
vn -0.7245 0.4562 0.5167
vn -0.7302 -0.2947 0.6164
vn 0.9992 0.0105 0.0388
vn -0.8086 -0.4040 -0.4278
vn 0.4015 0.0707 -0.9131
vn 0.3781 0.1415 -0.9149
vn -0.9395 0.0067 0.3425
vn 0.9398 0.1941 0.2813
vn 0.9587 -0.1880 -0.2133
vn -0.2251 0.0213 0.9741
vn -0.0014 0.0005 1.0000
vn 0.0003 0.0001 1.0000
vn 0.6000 -0.5739 0.5574
vn 0.6481 -0.1743 -0.7413
vn -0.6017 0.7910 0.1105
vn -0.4462 0.7159 0.5370
vn -0.1963 -0.3805 -0.9037
vn -0.0760 0.9833 -0.1653
vn 0.7406 0.5819 0.3361
vn 0.5897 0.3014 0.7493
vn 0.7435 -0.6384 0.1991
vn 0.5776 -0.6954 -0.4275
vn -0.2685 -0.0308 0.9628
vn -0.0350 -0.5335 -0.8451
vn -0.4459 0.7268 -0.5224
vn 0.8252 -0.5374 -0.1740
vn 0.7329 -0.2793 0.6204
vn 0.7027 -0.6042 0.3758
vn -0.8874 -0.0043 0.4610
vn -0.4460 0.7161 0.5369
vn -0.4703 -0.8005 0.3715
vn -0.6851 -0.6640 -0.2996
vn 0.7406 0.5818 0.3361
vn -0.0518 -0.3345 -0.9410
vn -0.4458 0.7165 0.5365
vn -0.3061 -0.8795 0.3644
vn 0.4470 -0.8945 0.0090
vn 0.7198 0.5959 0.3561
vn 0.6491 -0.4291 0.6282
vt 0.881372 0.286031
vt 0.881783 0.286283
vt 0.881812 0.286037
vt 0.881404 0.205901
vt 0.881803 0.205808
vt 0.881456 0.206071
vt 0.896932 0.696094
vt 0.896879 0.696108
vt 0.896716 0.696343
vt 0.896870 0.700865
vt 0.896592 0.700599
vt 0.896592 0.700848
vt 0.896694 0.438613
vt 0.896592 0.439234
vt 0.896835 0.438737
vt 0.881404 0.219057
vt 0.881803 0.218964
vt 0.881456 0.219227
vt 0.881757 0.298057
vt 0.881773 0.297634
vt 0.881607 0.297947
vt 0.881404 0.184331
vt 0.881990 0.184231
vt 0.881641 0.184187
vt 0.882637 0.205468
vt 0.885921 0.211491
vt 0.882581 0.205485
vt 0.874899 0.586862
vt 0.881780 0.586593
vt 0.882478 0.586862
vt 0.874596 0.982979
vt 0.881491 0.982727
vt 0.881623 0.982979
vt 0.886148 0.189834
vt 0.881801 0.184612
vt 0.881706 0.184074
vt 0.881926 0.205116
vt 0.881675 0.205040
vt 0.881718 0.204888
vt 0.881799 0.285895
vt 0.881368 0.285153
vt 0.881482 0.284888
vt 0.881701 0.206149
vt 0.897327 0.455631
vt 0.898156 0.455909
vt 0.896891 0.456253
vt 0.897174 0.457305
vt 0.898345 0.457200
vt 0.896996 0.457520
vt 0.875007 0.993520
vt 0.874769 0.992684
vt 0.875083 0.992470
vt 0.897041 0.266163
vt 0.901446 0.265872
vt 0.896927 0.266511
vt 0.874836 0.976738
vt 0.875245 0.978079
vt 0.875013 0.978036
vt 0.897555 0.325288
vt 0.897652 0.324120
vt 0.897738 0.324829
vt 0.874987 0.988063
vt 0.874803 0.987224
vt 0.879900 0.987517
vt 0.882581 0.218641
vt 0.881701 0.219305
vt 0.881730 0.640355
vt 0.882025 0.641072
vt 0.881760 0.641722
vt 0.881977 0.298926
vt 0.881900 0.298167
vt 0.896718 0.682604
vt 0.897518 0.682245
vt 0.897736 0.682505
vt 0.874847 0.203778
vt 0.881964 0.205983
vt 0.881794 0.286128
vt 0.886594 0.290273
vt 0.875318 0.947507
vt 0.881189 0.948666
vt 0.875328 0.947572
vt 0.874759 0.703874
vt 0.881766 0.704259
vt 0.881800 0.704483
vt 0.875115 0.698077
vt 0.881550 0.698137
vt 0.875102 0.698142
vt 0.881361 0.861724
vt 0.874786 0.861978
vt 0.874596 0.861836
vt 0.874847 0.216934
vt 0.881964 0.219139
vt 0.903452 0.017435
vt 0.896662 0.017692
vt 0.896592 0.017435
vt 0.875318 0.941784
vt 0.881594 0.942947
vt 0.875328 0.941848
vt 0.882637 0.218624
vt 0.884847 0.223538
vt 0.880090 0.182916
vt 0.881428 0.184260
vt 0.888066 0.300364
vt 0.881727 0.297894
vt 0.882061 0.297791
vt 0.887594 0.294640
vt 0.882109 0.297835
vt 0.881770 0.674234
vt 0.881730 0.672601
vt 0.881999 0.672810
vt 0.898117 0.258865
vt 0.897869 0.259514
vt 0.898075 0.258310
vt 0.882379 0.285347
vt 0.881685 0.285804
vt 0.896872 0.560990
vt 0.896942 0.559750
vt 0.897254 0.560989
vt 0.881832 0.585598
vt 0.882053 0.586448
vt 0.896972 0.103967
vt 0.897286 0.105118
vt 0.896592 0.104096
vt 0.897668 0.641778
vt 0.896592 0.641419
vt 0.898054 0.641419
vt 0.898485 0.439850
vt 0.897354 0.439677
vt 0.898335 0.439641
vt 0.881810 0.679693
vt 0.881730 0.678412
vt 0.881999 0.678622
vt 0.896839 0.645778
vt 0.897950 0.646142
vt 0.896592 0.646142
vt 0.896872 0.591545
vt 0.896942 0.590304
vt 0.897254 0.591544
vt 0.897135 0.445796
vt 0.896852 0.444477
vt 0.897338 0.445589
vt 0.898075 0.608619
vt 0.897447 0.607677
vt 0.898257 0.608457
vt 0.896633 0.012609
vt 0.896866 0.013435
vt 0.896592 0.013263
vt 0.896715 0.664972
vt 0.896681 0.665224
vt 0.896592 0.664997
vt 0.881801 0.206182
vt 0.874596 0.606119
vt 0.881985 0.606391
vt 0.874600 0.606306
vt 0.874949 0.803214
vt 0.874597 0.802405
vt 0.880898 0.802223
vt 0.875112 0.860810
vt 0.881423 0.860872
vt 0.875074 0.860881
vt 0.881577 0.977786
vt 0.897075 0.007146
vt 0.903432 0.007450
vt 0.897054 0.007218
vt 0.881801 0.219338
vt 0.880082 0.299314
vt 0.882102 0.298020
vt 0.888529 0.182169
vt 0.882163 0.184805
vt 0.874927 0.947742
vt 0.874889 0.948748
vt 0.897639 0.105427
vt 0.897204 0.106002
vt 0.874994 0.699098
vt 0.875154 0.699181
vt 0.874945 0.942759
vt 0.875113 0.943066
vt 0.881929 0.183536
vt 0.881600 0.285926
vt 0.881800 0.285032
vt 0.897288 0.027717
vt 0.897532 0.028787
vt 0.896853 0.027758
vt 0.896855 0.555135
vt 0.897402 0.554178
vt 0.897056 0.555232
vt 0.881508 0.861910
vt 0.881762 0.709544
vt 0.881832 0.708550
vt 0.882037 0.709403
vt 0.897288 0.021692
vt 0.897532 0.022762
vt 0.896853 0.021732
vt 0.898075 0.602916
vt 0.896875 0.601521
vt 0.898241 0.602590
vt 0.896872 0.597302
vt 0.896942 0.596062
vt 0.897254 0.597301
vt 0.874596 0.730986
vt 0.882005 0.730868
vt 0.882027 0.730986
vt 0.888369 0.203595
vt 0.881345 0.205873
vt 0.881755 0.715211
vt 0.874805 0.714626
vt 0.881800 0.714386
vt 0.881660 0.803820
vt 0.874945 0.803288
vt 0.888369 0.216751
vt 0.881345 0.219029
vt 0.500929 0.500008
vt 0.012560 0.499927
vt 0.256824 0.002213
vt 0.012023 0.751512
vt 0.509727 0.507324
vt 0.509648 0.995697
vt 0.644349 0.009142
vt 0.647582 0.375869
vt 0.640685 0.375877
vt 0.587577 0.004090
vt 0.583928 0.483711
vt 0.580681 0.004113
vt 0.657311 0.011302
vt 0.660543 0.378029
vt 0.653647 0.378037
vt 0.572456 0.004090
vt 0.568806 0.483711
vt 0.565560 0.004113
vt 0.631262 0.002290
vt 0.634940 0.453329
vt 0.627902 0.453463
vt 0.667089 0.343464
vt 0.670326 0.014895
vt 0.673986 0.343473
vt 0.654620 0.385388
vt 0.656584 0.613356
vt 0.652691 0.613379
vt 0.632822 0.691123
vt 0.628929 0.691147
vt 0.630909 0.463260
vt 0.643819 0.419952
vt 0.645783 0.647919
vt 0.641890 0.647943
vt 0.691147 0.230998
vt 0.687254 0.231022
vt 0.689234 0.003135
vt 0.682507 0.250440
vt 0.678614 0.250464
vt 0.680594 0.022577
vt 0.665422 0.441554
vt 0.667385 0.669521
vt 0.663492 0.669545
vt 0.676223 0.348665
vt 0.678186 0.576632
vt 0.674293 0.576656
vt 0.688987 0.691123
vt 0.685094 0.691147
vt 0.687075 0.463260
vt 0.796353 0.790450
vt 0.799930 0.719362
vt 0.803549 0.790429
vt 0.708480 0.466607
vt 0.704902 0.537695
vt 0.701283 0.466628
vt 0.817792 0.248706
vt 0.825110 0.280643
vt 0.810597 0.280699
vt 0.869962 0.028102
vt 0.838026 0.035421
vt 0.837970 0.020907
vt 0.713543 0.807721
vt 0.709924 0.736654
vt 0.717120 0.736634
vt 0.795610 0.086421
vt 0.799229 0.157488
vt 0.792033 0.157508
vt 0.869990 0.054114
vt 0.837998 0.046920
vt 0.869934 0.039601
vt 0.555022 0.659119
vt 0.547828 0.691111
vt 0.540509 0.659174
vt 0.812912 0.241746
vt 0.809293 0.170679
vt 0.816490 0.170659
vt 0.799930 0.639435
vt 0.803549 0.710502
vt 0.796353 0.710522
vt 0.688179 0.698030
vt 0.695498 0.729967
vt 0.680985 0.730022
vt 0.869962 0.009346
vt 0.838026 0.016665
vt 0.837970 0.002152
vt 0.788474 0.305888
vt 0.816458 0.306485
vt 0.802479 0.384008
vt 0.786368 0.004031
vt 0.816626 0.004006
vt 0.800820 0.081828
vt 0.838052 0.212365
vt 0.838440 0.193560
vt 0.867785 0.202971
vt 0.838146 0.319477
vt 0.838090 0.305430
vt 0.867563 0.312482
vt 0.551352 0.652151
vt 0.550268 0.509278
vt 0.553014 0.509290
vt 0.576791 0.634923
vt 0.574294 0.491902
vt 0.578328 0.491765
vt 0.754951 0.796670
vt 0.773216 0.832884
vt 0.736687 0.833701
vt 0.780676 0.801413
vt 0.809695 0.819673
vt 0.780662 0.838024
vt 0.870342 0.058608
vt 0.870523 0.061962
vt 0.837979 0.060321
vt 0.870338 0.090429
vt 0.870329 0.092856
vt 0.838088 0.091663
vt 0.870338 0.097571
vt 0.870329 0.099998
vt 0.838088 0.098804
vt 0.870342 0.066921
vt 0.870523 0.070275
vt 0.837979 0.068635
vt 0.776412 0.164723
vt 0.803501 0.295845
vt 0.749371 0.295895
vt 0.788380 0.790533
vt 0.734250 0.790583
vt 0.761290 0.659409
vt 0.763948 0.318544
vt 0.735301 0.457071
vt 0.703731 0.318534
vt 0.820967 0.512581
vt 0.795911 0.630032
vt 0.778414 0.512568
vt 0.869725 0.166601
vt 0.869666 0.167756
vt 0.838033 0.166700
vt 0.869747 0.160616
vt 0.869701 0.161863
vt 0.838012 0.160821
vt 0.896933 0.336600
vt 0.901678 0.335713
vt 0.901683 0.337519
vt 0.896593 0.155255
vt 0.902376 0.156181
vt 0.896600 0.157060
vt 0.896933 0.342444
vt 0.901678 0.341558
vt 0.901683 0.343363
vt 0.896593 0.161099
vt 0.902376 0.162025
vt 0.896600 0.162904
vt 0.883171 0.534116
vt 0.874803 0.537695
vt 0.874761 0.530619
vt 0.874782 0.511402
vt 0.883151 0.507823
vt 0.883192 0.514898
vt 0.869912 0.149085
vt 0.869856 0.150341
vt 0.838015 0.149275
vt 0.869811 0.155085
vt 0.869647 0.156234
vt 0.838027 0.155198
vt 0.896593 0.172788
vt 0.902377 0.173714
vt 0.896600 0.174593
vt 0.896933 0.348289
vt 0.901678 0.347402
vt 0.901683 0.349208
vt 0.896933 0.330755
vt 0.901678 0.329869
vt 0.901683 0.331674
vt 0.896593 0.166943
vt 0.902377 0.167869
vt 0.896600 0.168748
vt 0.883192 0.549031
vt 0.874782 0.545535
vt 0.883151 0.541956
vt 0.874762 0.519242
vt 0.883171 0.522738
vt 0.874803 0.526317
vt 0.854879 0.617044
vt 0.840652 0.604280
vt 0.859778 0.600091
vt 0.857969 0.377332
vt 0.839075 0.369387
vt 0.854602 0.357450
vt 0.848629 0.974516
vt 0.854614 0.985403
vt 0.841885 0.985877
vt 0.880952 0.059734
vt 0.892094 0.065027
vt 0.882405 0.070127
vt 0.897814 0.469216
vt 0.897419 0.467806
vt 0.897491 0.467556
vt 0.881517 0.284911
vt 0.874610 0.284340
vt 0.874837 0.283330
vt 0.896974 0.468649
vt 0.882326 0.599407
vt 0.874785 0.600573
vt 0.874916 0.599407
vt 0.874803 0.673601
vt 0.881720 0.204881
vt 0.874851 0.203304
vt 0.898707 0.468396
vt 0.896689 0.468458
vt 0.896592 0.468708
vt 0.881766 0.600904
vt 0.874792 0.867641
vt 0.874757 0.866556
vt 0.881031 0.866038
vt 0.887129 0.289729
vt 0.897550 0.559463
vt 0.898201 0.559278
vt 0.898165 0.560527
vt 0.896755 0.258136
vt 0.897279 0.257888
vt 0.887705 0.283575
vt 0.881644 0.204875
vt 0.888267 0.202801
vt 0.881133 0.206552
vt 0.896870 0.260091
vt 0.896592 0.259075
vt 0.875282 0.656974
vt 0.874596 0.656038
vt 0.881976 0.656038
vt 0.881755 0.756572
vt 0.881823 0.757655
vt 0.875057 0.757653
vt 0.903135 0.033814
vt 0.903298 0.034842
vt 0.897745 0.034559
vt 0.881230 0.866537
vt 0.882099 0.656778
vt 0.881405 0.779940
vt 0.881400 0.780955
vt 0.874634 0.779866
vt 0.902742 0.057358
vt 0.902547 0.058642
vt 0.896701 0.057583
vt 0.854879 0.555773
vt 0.840652 0.543009
vt 0.859778 0.538819
vt 0.857969 0.470190
vt 0.839075 0.462246
vt 0.854602 0.450309
vt 0.884646 0.034930
vt 0.875038 0.029768
vt 0.886321 0.024608
vt 0.851716 0.964797
vt 0.839052 0.964213
vt 0.845118 0.953284
vt 0.881775 0.713634
vt 0.881885 0.703333
vt 0.874872 0.586095
vt 0.882031 0.661204
vt 0.881850 0.661014
vt 0.874866 0.661217
vt 0.881791 0.662439
vt 0.874779 0.662387
vt 0.881442 0.992607
vt 0.881367 0.993641
vt 0.896766 0.264494
vt 0.897586 0.264106
vt 0.897847 0.264836
vt 0.903135 0.039669
vt 0.903298 0.040697
vt 0.897745 0.040414
vt 0.881755 0.762269
vt 0.881823 0.763352
vt 0.875057 0.763350
vt 0.896592 0.265422
vt 0.898027 0.265074
vt 0.875296 0.647102
vt 0.881990 0.646167
vt 0.882113 0.646907
vt 0.874597 0.646167
vt 0.880973 0.605334
vt 0.882128 0.606202
vt 0.874853 0.606391
vt 0.896902 0.555175
vt 0.874830 0.804043
vt 0.902742 0.063276
vt 0.902547 0.064560
vt 0.896701 0.063502
vt 0.881405 0.785658
vt 0.881400 0.786672
vt 0.874634 0.785584
vt 0.854879 0.586408
vt 0.840652 0.573645
vt 0.859778 0.569455
vt 0.857969 0.408285
vt 0.839075 0.400340
vt 0.854602 0.388403
vt 0.885384 0.004085
vt 0.891369 0.014972
vt 0.878640 0.015446
vt 0.880952 0.077409
vt 0.892094 0.082702
vt 0.882405 0.087803
vt 0.881774 0.667869
vt 0.881761 0.668601
vt 0.874779 0.668201
vt 0.881789 0.667684
vt 0.897951 0.438061
vt 0.898809 0.438821
vt 0.881720 0.218037
vt 0.874836 0.216498
vt 0.874798 0.679516
vt 0.874866 0.667030
vt 0.874864 0.708924
vt 0.897550 0.590018
vt 0.898201 0.589833
vt 0.898378 0.590788
vt 0.897621 0.686604
vt 0.897459 0.687333
vt 0.896592 0.686604
vt 0.875125 0.726698
vt 0.874596 0.725417
vt 0.881493 0.725250
vt 0.896592 0.008293
vt 0.903353 0.008293
vt 0.881755 0.767965
vt 0.881823 0.769048
vt 0.875057 0.769046
vt 0.903135 0.051378
vt 0.903298 0.052406
vt 0.897745 0.052124
vt 0.898431 0.585787
vt 0.897485 0.584757
vt 0.898431 0.584641
vt 0.896592 0.585316
vt 0.881644 0.218031
vt 0.888266 0.215957
vt 0.897828 0.591545
vt 0.875283 0.652038
vt 0.874597 0.651102
vt 0.881996 0.651220
vt 0.902742 0.069195
vt 0.902547 0.070479
vt 0.896701 0.069420
vt 0.881405 0.791375
vt 0.881400 0.792390
vt 0.874634 0.791301
vt 0.854879 0.525137
vt 0.840652 0.512373
vt 0.859778 0.508183
vt 0.857969 0.439237
vt 0.839075 0.431293
vt 0.854602 0.419356
vt 0.884646 0.052478
vt 0.875038 0.047317
vt 0.886321 0.042157
vt 0.851716 0.943572
vt 0.839052 0.942988
vt 0.845118 0.932060
vt 0.896592 0.003147
vt 0.897072 0.002039
vt 0.903440 0.002303
vt 0.897550 0.595775
vt 0.898201 0.595591
vt 0.898065 0.596976
vt 0.875124 0.721033
vt 0.874596 0.719757
vt 0.881489 0.719454
vt 0.903362 0.003147
vt 0.882080 0.298476
vt 0.898319 0.445182
vt 0.896808 0.012380
vt 0.903185 0.012825
vt 0.881750 0.808088
vt 0.881762 0.809103
vt 0.874866 0.808633
vt 0.897587 0.691333
vt 0.897587 0.692076
vt 0.896592 0.691534
vt 0.897342 0.444055
vt 0.898219 0.443919
vt 0.874810 0.641208
vt 0.881755 0.773662
vt 0.881823 0.774745
vt 0.875057 0.774743
vt 0.903135 0.045524
vt 0.903298 0.046551
vt 0.897745 0.046269
vt 0.897266 0.131529
vt 0.897128 0.130558
vt 0.902800 0.130264
vt 0.897719 0.292582
vt 0.897247 0.293352
vt 0.896595 0.292649
vt 0.881517 0.720465
vt 0.881640 0.183316
vt 0.881133 0.184982
vt 0.885519 0.190234
vt 0.902145 0.251737
vt 0.902268 0.252748
vt 0.897427 0.252920
vt 0.881803 0.184238
vt 0.881791 0.184501
vt 0.882507 0.183863
vt 0.886758 0.189306
vt 0.881405 0.797093
vt 0.881400 0.798107
vt 0.874634 0.797019
vt 0.902742 0.075113
vt 0.902547 0.076397
vt 0.896701 0.075338
vt 0.874604 0.341762
vt 0.886855 0.345416
vt 0.874769 0.349074
vt 0.885422 0.455190
vt 0.875562 0.458669
vt 0.875652 0.451704
vt 0.874611 0.420651
vt 0.886000 0.424530
vt 0.874786 0.428417
vt 0.884797 0.499767
vt 0.875563 0.503476
vt 0.875654 0.496054
vt 0.885422 0.466567
vt 0.875563 0.470047
vt 0.875652 0.463081
vt 0.874604 0.353123
vt 0.886855 0.356777
vt 0.874769 0.360436
vt 0.874698 0.412712
vt 0.885920 0.408926
vt 0.886080 0.416491
vt 0.884788 0.491820
vt 0.875609 0.487927
vt 0.884805 0.484038
vt 0.857928 0.913450
vt 0.838536 0.915998
vt 0.838702 0.910878
vt 0.837841 0.655641
vt 0.863511 0.658348
vt 0.837963 0.661044
vt 0.885299 0.479957
vt 0.875031 0.477119
vt 0.885380 0.474385
vt 0.874761 0.246712
vt 0.888428 0.243998
vt 0.888428 0.249558
vt 0.838039 0.280642
vt 0.868392 0.280238
vt 0.868310 0.281153
vt 0.868452 0.290710
vt 0.838000 0.291145
vt 0.837923 0.290388
vt 0.868468 0.295972
vt 0.837961 0.295679
vt 0.868437 0.295301
vt 0.838082 0.275013
vt 0.868352 0.275543
vt 0.838000 0.275928
vt 0.837841 0.746620
vt 0.858951 0.746242
vt 0.858906 0.746951
vt 0.837889 0.633506
vt 0.866448 0.633766
vt 0.837862 0.634341
vt 0.881834 0.285946
vt 0.881656 0.205992
vt 0.896592 0.696461
vt 0.896617 0.696076
vt 0.896648 0.696396
vt 0.897149 0.696076
vt 0.897094 0.696581
vt 0.896639 0.696593
vt 0.897049 0.701017
vt 0.897068 0.700954
vt 0.896685 0.700966
vt 0.896836 0.700593
vt 0.896693 0.700633
vt 0.897032 0.700752
vt 0.896838 0.438800
vt 0.896954 0.439118
vt 0.896838 0.438880
vt 0.897267 0.439706
vt 0.896790 0.438875
vt 0.881718 0.218209
vt 0.881656 0.219148
vt 0.874598 0.982733
vt 0.897427 0.497876
vt 0.898011 0.498823
vt 0.897788 0.498910
vt 0.888495 0.203805
vt 0.882282 0.205396
vt 0.898569 0.455631
vt 0.874596 0.993641
vt 0.875331 0.976592
vt 0.888495 0.216961
vt 0.896592 0.323485
vt 0.874597 0.988442
vt 0.882282 0.218552
vt 0.882152 0.640364
vt 0.881740 0.298985
vt 0.896592 0.682245
vt 0.903363 0.017572
vt 0.887930 0.300454
vt 0.874846 0.978727
vt 0.874596 0.978451
vt 0.896748 0.641580
vt 0.897775 0.645866
vt 0.897752 0.665224
vt 0.874596 0.803348
vt 0.882032 0.704345
vt 0.874596 0.697693
vt 0.874839 0.941902
vt 0.897815 0.029091
vt 0.897856 0.022876
vt 0.874603 0.730740
vt 0.519277 0.702373
vt 0.667011 0.732001
vt 0.518120 0.757012
vt 0.758746 0.009453
vt 0.732240 0.154562
vt 0.704186 0.007851
vt 0.874596 0.866636
vt 0.898152 0.559239
vt 0.896592 0.029094
vt 0.897016 0.027925
vt 0.896672 0.028318
vt 0.881727 0.713586
vt 0.881999 0.713819
vt 0.881761 0.660973
vt 0.898437 0.553559
vt 0.898381 0.553397
vt 0.897527 0.264091
vt 0.897875 0.555070
vt 0.881761 0.666787
vt 0.898152 0.589793
vt 0.897302 0.687217
vt 0.896664 0.022367
vt 0.897016 0.021900
vt 0.898152 0.595551
vt 0.897406 0.692000
vt 0.898153 0.443880
s 1
usemtl parking_001_baked
f 116/1/1 122/2/1 123/3/1
f 126/4/2 129/5/2 132/6/2
f 164/7/3 165/8/3 168/9/3
f 191/10/4 193/11/4 188/12/4
f 215/13/5 217/14/5 218/15/5
f 227/16/6 230/17/6 233/18/6
f 255/19/7 259/20/7 262/21/7
f 284/22/8 286/23/8 287/24/8
f 146/25/9 145/26/10 147/27/11
f 169/28/12 161/29/12 160/30/12
f 220/31/13 213/32/13 212/33/13
f 288/34/14 281/35/14 258/36/14
f 114/37/15 124/38/16 115/39/17
f 119/40/18 144/41/18 143/42/18
f 129/5/19 147/27/19 130/43/19
f 157/44/20 196/45/20 158/46/20
f 162/47/21 170/48/22 163/49/23
f 164/50/24 175/51/24 174/52/24
f 191/53/25 181/54/26 192/55/26
f 167/56/27 185/57/27 184/58/27
f 225/59/28 214/60/28 224/61/28
f 218/62/29 244/63/30 243/64/31
f 230/17/32 245/65/32 231/66/32
f 284/67/33 267/68/33 266/69/33
f 265/70/34 255/19/35 263/71/36
f 261/72/37 271/73/38 275/74/39
f 126/4/40 113/75/40 127/76/40
f 118/77/41 142/78/42 116/1/43
f 119/79/44 145/80/45 120/81/46
f 159/82/47 195/83/47 194/84/47
f 164/85/48 181/86/48 165/87/48
f 197/88/49 168/89/49 167/90/49
f 227/16/50 211/91/50 228/92/50
f 234/93/51 216/94/51 215/95/51
f 218/96/29 243/97/31 219/98/52
f 241/99/53 243/100/54 245/65/55
f 284/22/56 264/101/57 285/102/58
f 274/103/59 260/104/59 259/20/59
f 256/105/60 280/106/61 257/107/62
f 108/108/63 126/109/63 125/110/63
f 141/111/64 124/112/65 116/113/66
f 137/114/67 118/77/67 117/115/67
f 128/116/68 143/117/68 129/118/68
f 161/29/69 158/119/69 162/120/69
f 192/121/70 180/122/70 193/123/70
f 168/124/71 186/125/71 160/126/71
f 208/127/72 207/128/73 225/129/74
f 209/130/75 227/131/75 226/132/75
f 216/133/76 238/134/76 217/135/76
f 229/136/77 243/137/77 230/138/77
f 262/139/78 266/140/78 263/141/78
f 274/142/79 272/143/80 273/144/81
f 278/145/82 256/146/82 255/147/82
f 116/148/83 114/149/15 115/150/17
f 145/26/84 128/151/84 127/76/84
f 193/152/85 179/153/85 194/154/85
f 189/155/86 182/156/87 183/157/88
f 184/158/89 187/159/90 186/160/91
f 185/57/92 183/161/92 184/58/92
f 237/162/93 236/163/94 238/164/95
f 243/100/96 229/165/96 228/92/96
f 264/166/97 262/21/97 261/167/97
f 286/23/98 272/168/80 271/169/38
f 121/170/99 145/80/10 146/171/9
f 180/122/100 174/172/101 175/173/102
f 177/174/103 165/87/103 176/175/103
f 242/176/104 219/98/105 241/177/106
f 286/23/107 264/101/108 265/178/109
f 121/179/110 109/180/110 122/2/110
f 130/181/111 138/182/111 131/183/111
f 190/184/112 184/185/113 191/186/114
f 197/88/115 187/159/116 183/187/88
f 213/188/117 209/189/118 207/190/119
f 231/191/120 240/192/120 232/193/120
f 234/194/121 236/195/122 235/196/123
f 281/197/68 277/198/68 282/199/68
f 110/200/124 123/201/124 122/202/124
f 139/203/125 132/6/125 131/204/125
f 158/205/126 159/206/127 157/207/128
f 189/155/129 187/208/129 190/209/129
f 239/210/130 233/18/130 232/211/130
f 12/212/131 11/213/131 10/214/131
f 10/215/131 11/216/131 12/217/131
f 14/218/132 13/219/133 15/220/133
f 13/221/133 14/222/132 15/223/133
f 18/224/134 16/225/134 17/226/131
f 16/227/134 18/228/134 17/229/131
f 21/230/131 20/231/131 19/232/131
f 20/233/131 21/234/131 19/235/131
f 22/236/131 23/237/131 24/238/131
f 24/239/131 23/240/131 22/241/131
f 27/242/135 25/243/136 26/244/136
f 26/245/136 25/246/136 27/247/135
f 29/248/137 30/249/137 28/250/138
f 28/251/138 30/252/137 29/253/137
f 32/254/139 33/255/140 31/256/140
f 31/257/140 33/258/140 32/259/139
f 36/260/131 35/261/141 34/262/141
f 34/263/141 35/264/141 36/265/131
f 37/266/131 38/267/131 39/268/131
f 37/269/131 39/270/131 38/271/131
f 42/272/131 41/273/131 40/274/131
f 42/275/131 40/276/131 41/277/131
f 43/278/141 45/279/141 44/280/141
f 44/281/141 45/282/141 43/283/141
f 46/284/131 47/285/131 48/286/131
f 46/287/131 48/288/131 47/289/131
f 50/290/131 49/291/131 51/292/131
f 50/293/131 51/294/131 49/295/131
f 52/296/141 54/297/141 53/298/141
f 54/299/141 52/300/141 53/301/141
f 55/302/142 56/303/142 57/304/142
f 56/305/142 55/306/142 57/307/142
f 58/308/131 60/309/131 59/310/131
f 58/311/131 59/312/131 60/313/131
f 62/314/143 61/315/144 63/316/145
f 61/317/144 62/318/143 63/319/145
f 64/320/131 65/321/131 66/322/131
f 65/323/131 64/324/131 66/325/131
f 69/326/131 67/327/131 68/328/131
f 67/329/131 69/330/131 68/331/131
f 70/332/146 71/333/141 72/334/141
f 72/335/141 71/336/141 70/337/146
f 76/338/147 77/339/148 3/340/131
f 3/341/131 77/342/148 76/343/147
f 80/344/131 78/345/131 79/346/131
f 78/347/131 80/348/131 79/349/131
f 81/350/149 82/351/150 83/352/150
f 82/353/150 81/354/149 83/355/150
f 85/356/151 84/357/152 86/358/131
f 84/359/152 85/360/151 86/361/131
f 89/362/131 88/363/131 87/364/131
f 89/365/131 87/366/131 88/367/131
f 91/368/141 90/369/141 92/370/141
f 90/371/141 91/372/141 92/373/141
f 95/374/153 94/375/153 93/376/153
f 94/377/153 95/378/153 93/379/153
f 96/380/154 98/381/155 97/382/155
f 98/383/155 96/384/154 97/385/155
f 101/386/156 100/387/157 99/388/158
f 99/389/158 100/390/157 101/391/156
f 102/392/134 103/393/134 104/394/134
f 104/395/134 103/396/134 102/397/134
f 107/398/159 105/399/160 106/400/161
f 106/401/161 105/402/160 107/403/159
f 114/404/162 109/405/163 108/406/164
f 108/407/165 111/408/166 112/409/167
f 108/407/168 122/2/168 111/408/168
f 114/404/162 121/410/169 109/405/163
f 123/411/170 112/412/167 110/413/171
f 126/109/172 108/108/165 112/414/167
f 115/415/173 113/75/174 112/416/167
f 115/415/175 126/4/175 113/75/175
f 114/404/162 108/406/164 125/417/176
f 123/418/177 122/419/177 121/410/177
f 123/411/170 115/420/173 112/412/167
f 141/421/178 118/422/178 142/423/178
f 118/77/179 137/114/180 136/424/181
f 144/425/182 120/426/182 146/427/182
f 116/113/183 137/428/184 117/429/185
f 119/40/44 143/42/186 145/430/45
f 146/427/187 129/118/188 143/117/189
f 132/6/190 141/431/191 136/432/181
f 143/433/186 128/151/192 145/26/45
f 132/6/190 136/432/181 139/203/193
f 116/113/183 130/434/194 138/435/195
f 137/436/196 131/437/196 140/438/196
f 147/27/197 145/26/197 127/76/197
f 133/439/198 135/440/199 134/441/200
f 135/442/199 133/443/198 134/444/200
f 141/421/191 142/423/201 136/445/181
f 116/113/183 138/435/195 137/428/184
f 137/436/180 140/438/202 136/446/181
f 146/427/187 143/117/189 144/425/203
f 150/447/204 149/448/205 148/449/206
f 149/450/205 150/451/204 148/452/206
f 151/453/131 152/454/131 153/455/131
f 153/456/131 152/457/131 151/458/131
f 154/459/207 156/460/207 155/461/207
f 155/462/207 156/463/207 154/464/207
f 157/207/208 159/206/208 194/465/208
f 170/48/22 158/46/209 196/45/210
f 170/466/211 195/83/212 159/82/213
f 170/48/22 162/47/21 158/46/209
f 158/119/126 161/29/214 159/467/127
f 162/468/215 163/469/215 169/470/215
f 163/469/216 170/471/211 159/472/213
f 164/50/217 174/52/218 178/473/219
f 176/175/220 165/87/221 181/86/222
f 164/50/217 178/473/219 181/474/223
f 185/57/224 167/56/224 183/161/224
f 168/89/225 187/159/116 197/88/115
f 168/89/225 186/160/226 187/159/116
f 175/475/227 165/476/227 177/477/227
f 172/478/199 171/479/228 173/480/229
f 171/481/228 172/482/199 173/483/229
f 177/477/230 180/484/231 175/475/231
f 177/477/230 192/55/232 180/484/231
f 177/477/230 176/485/233 192/55/232
f 174/486/218 179/487/234 178/488/219
f 174/486/218 193/489/235 179/487/234
f 194/154/236 181/490/223 178/491/219
f 193/152/237 192/492/237 181/490/237
f 189/493/238 190/184/238 191/186/238
f 184/494/89 190/209/239 187/208/90
f 189/155/86 183/157/88 187/208/116
f 199/495/131 198/496/131 200/497/131
f 198/498/131 199/499/131 200/500/131
f 203/501/131 202/502/131 201/503/131
f 201/504/131 202/505/131 203/506/131
f 204/507/141 206/508/141 205/509/141
f 205/510/141 206/511/141 204/512/141
f 207/513/73 208/514/72 210/515/240
f 214/516/241 207/513/73 210/515/240
f 225/129/74 209/517/242 226/518/243
f 208/519/244 211/91/244 210/520/244
f 208/519/245 227/16/245 211/91/245
f 225/129/74 207/128/73 209/517/242
f 227/131/246 209/130/118 210/521/247
f 214/516/241 210/515/240 220/522/248
f 209/189/118 213/188/117 210/523/247
f 244/524/249 219/525/249 242/526/249
f 237/527/250 215/528/250 225/529/250
f 224/530/251 215/531/252 235/532/123
f 241/177/53 219/98/253 243/97/54
f 216/533/254 236/163/122 234/534/121
f 216/533/254 238/164/255 236/163/122
f 221/535/256 222/536/257 223/537/258
f 222/538/257 221/539/256 223/540/258
f 225/541/259 240/542/260 237/543/261
f 225/541/259 231/544/262 240/542/260
f 233/18/263 224/545/251 235/546/123
f 242/526/104 241/547/106 230/138/264
f 242/526/104 230/138/264 243/137/265
f 233/18/263 235/546/123 239/210/266
f 237/548/93 232/549/267 236/550/94
f 245/65/268 243/100/268 228/92/268
f 242/526/104 243/137/265 244/524/269
f 247/551/131 246/552/131 248/553/131
f 246/554/131 247/555/131 248/556/131
f 249/557/131 251/558/131 250/559/131
f 250/560/131 251/561/131 249/562/131
f 252/563/131 254/564/131 253/565/131
f 253/566/131 254/567/131 252/568/131
f 261/167/270 263/71/270 264/166/270
f 260/569/271 275/570/39 272/571/80
f 278/572/272 257/573/272 279/574/272
f 276/575/273 259/576/273 273/577/273
f 260/569/271 272/571/80 274/578/79
f 258/579/274 257/107/275 280/106/276
f 265/580/34 263/141/36 266/140/277
f 256/146/60 277/581/278 280/582/61
f 266/583/279 262/584/280 264/585/57
f 271/586/281 259/587/282 258/588/283
f 265/580/34 266/140/277 267/589/284
f 267/589/285 285/590/285 265/580/285
f 284/67/56 266/69/279 264/591/57
f 270/592/286 268/593/287 269/594/288
f 268/595/287 270/596/286 269/597/288
f 275/598/39 271/599/38 272/600/80
f 258/601/283 287/602/289 271/603/281
f 276/575/290 273/577/81 272/604/80
f 276/605/290 272/168/80 286/23/98
f 279/574/291 277/198/292 278/572/293
f 277/606/278 281/35/294 280/607/61
f 279/574/291 282/199/295 277/198/292
f 279/608/296 258/609/274 280/610/276
f 282/611/297 283/612/297 288/34/297
f 283/612/298 279/613/296 280/614/276
f 289/615/299 290/616/299 291/617/300
f 290/618/299 289/619/299 291/620/300
f 292/621/207 294/622/207 293/623/207
f 294/624/207 292/625/207 293/626/207
f 296/627/301 295/628/302 297/629/303
f 295/630/302 296/631/301 297/632/303
f 299/633/153 300/634/153 298/635/153
f 300/636/153 299/637/153 298/638/153
f 301/639/304 303/640/305 302/641/306
f 303/642/305 301/643/304 302/644/306
f 304/645/153 305/646/153 306/647/153
f 305/648/153 304/649/153 306/650/153
f 307/651/307 308/652/307 309/653/307
f 308/654/307 307/655/307 309/656/307
f 311/657/131 310/658/131 312/659/131
f 311/660/131 312/661/131 310/662/131
f 314/663/131 313/664/131 315/665/131
f 315/666/131 313/667/131 314/668/131
f 316/669/131 318/670/131 317/671/131
f 318/672/131 316/673/131 317/674/131
f 117/115/308 118/77/308 116/1/308
f 116/1/309 119/40/310 120/675/311
f 116/1/312 120/675/312 121/179/312
f 116/1/313 121/179/313 122/2/313
f 132/6/314 124/38/314 125/676/314
f 126/4/315 127/76/315 128/151/315
f 132/6/316 125/676/316 126/4/316
f 130/43/317 131/204/317 132/6/317
f 126/4/318 128/151/318 129/5/318
f 129/5/319 130/43/319 132/6/319
f 161/677/320 162/678/320 163/679/320
f 161/677/321 163/679/321 160/680/322
f 163/679/323 164/7/323 168/9/323
f 168/9/324 160/680/324 163/679/324
f 166/681/325 167/682/325 168/9/325
f 165/8/326 166/681/326 168/9/326
f 189/683/327 190/684/327 188/12/327
f 190/684/328 191/10/328 188/12/328
f 191/10/329 192/685/329 193/11/329
f 193/11/330 194/686/330 195/687/330
f 195/687/331 196/688/331 188/12/331
f 193/11/332 195/687/332 188/12/332
f 219/689/333 212/690/333 213/691/333
f 213/691/334 207/128/73 214/692/241
f 215/13/335 216/693/335 217/14/335
f 213/691/336 214/692/336 215/13/336
f 218/15/337 219/689/337 215/13/337
f 219/689/338 213/691/338 215/13/338
f 233/18/339 225/694/339 226/695/339
f 227/16/315 228/92/315 229/165/315
f 233/18/316 226/695/316 227/16/316
f 231/66/340 232/211/340 233/18/340
f 227/16/318 229/165/318 230/17/318
f 230/17/319 231/66/319 233/18/319
f 255/19/341 256/105/341 257/107/341
f 257/107/342 258/579/342 259/20/342
f 260/104/343 261/167/343 262/21/343
f 255/19/344 257/107/344 259/20/344
f 259/20/345 260/104/345 262/21/345
f 263/71/346 255/19/346 262/21/346
f 287/24/289 258/36/283 283/612/347
f 258/36/348 281/35/348 283/612/348
f 282/611/349 283/612/349 281/35/349
f 283/612/350 284/22/350 287/24/350
f 286/23/351 271/169/351 287/24/351
f 284/22/352 285/102/352 286/23/352
f 169/28/353 159/467/213 161/29/354
f 220/31/248 210/696/240 213/32/355
f 288/34/356 280/607/276 281/35/357
f 112/697/167 111/698/166 110/699/171
f 114/37/358 125/676/358 124/38/358
f 136/432/181 140/700/202 139/203/193
f 119/40/359 116/1/359 144/41/359
f 129/5/188 146/701/187 147/27/360
f 157/44/361 188/702/361 196/45/361
f 164/50/362 163/703/362 175/51/362
f 191/53/363 176/485/220 181/54/222
f 167/56/364 166/704/364 185/57/364
f 235/546/123 236/705/122 239/210/266
f 225/59/365 215/706/365 214/60/365
f 218/62/366 217/707/366 244/63/366
f 230/17/367 241/708/367 245/65/367
f 284/67/368 283/709/368 267/68/368
f 265/70/109 264/710/108 255/19/369
f 261/72/370 260/711/370 271/73/370
f 126/4/172 112/416/167 113/75/371
f 118/77/179 136/424/181 142/78/372
f 197/88/373 183/187/373 168/89/373
f 227/16/246 210/520/247 211/91/374
f 234/93/375 235/712/375 216/94/375
f 274/103/376 273/713/376 260/104/376
f 192/121/377 174/172/101 180/122/100
f 184/58/113 183/714/378 182/715/379
f 168/124/380 184/716/380 186/125/380
f 216/133/381 237/717/381 238/134/381
f 278/145/382 277/581/382 256/146/382
f 116/148/383 123/718/383 114/149/383
f 193/152/384 178/491/384 179/153/384
f 189/155/385 188/719/385 182/156/385
f 279/613/291 283/612/386 282/611/295
f 121/170/387 120/81/387 145/80/387
f 170/466/388 196/720/388 195/83/388
f 177/174/389 166/721/389 165/87/389
f 242/176/390 212/722/390 219/98/390
f 286/23/391 285/102/391 264/101/391
f 121/179/392 108/407/164 109/180/163
f 130/181/393 137/723/184 138/182/195
f 231/191/394 237/724/261 240/192/260
f 110/200/395 111/725/395 123/201/395
f 139/203/396 140/700/396 132/6/396
f 239/210/397 236/705/397 233/18/397
f 74/726/398 73/727/399 75/728/400
f 75/729/400 73/730/399 74/731/398
f 115/415/401 125/676/401 126/4/401
f 121/410/169 114/404/162 123/418/402
f 141/421/403 117/732/403 118/422/403
f 144/425/404 119/733/404 120/426/404
f 130/181/405 116/734/405 132/735/405
f 116/734/406 124/736/406 132/735/406
f 127/76/407 128/151/407 129/5/407
f 129/5/408 147/27/408 127/76/408
f 194/465/409 195/737/409 196/738/409
f 196/738/410 157/207/410 194/465/410
f 169/470/411 161/739/411 162/468/411
f 163/469/216 159/472/213 169/470/353
f 184/185/412 168/740/412 167/741/412
f 175/475/413 164/742/413 165/476/413
f 181/490/414 194/154/414 193/152/414
f 191/186/114 184/185/113 182/743/379
f 182/743/415 189/493/415 191/186/415
f 208/519/416 226/695/416 227/16/416
f 220/522/417 213/744/417 214/516/417
f 244/524/418 218/745/418 219/525/418
f 237/527/419 216/746/419 215/528/419
f 231/191/420 225/747/420 233/748/420
f 228/92/421 229/165/421 230/17/421
f 230/17/408 245/65/408 228/92/408
f 262/21/422 263/71/422 261/167/422
f 278/572/423 256/749/423 257/573/423
f 271/586/424 260/750/424 259/587/424
f 267/589/425 284/751/425 285/590/425
f 287/24/426 276/605/426 286/23/426
f 288/34/427 281/35/427 282/611/427
f 283/612/298 280/614/276 288/34/356
l 1 2
l 8 9
l 258 276
l 4 5
l 6 7
l 6 9
