# Blender 4.5.0
# www.blender.org
mtllib parking_002.lod2.mtl
o parking_002
v -4.984888 3.202696 -4.763604
v -4.196487 2.457368 -4.763604
v -0.528927 1.645916 1.371894
v 0.569065 1.645943 1.367086
v -0.528927 1.645952 3.518221
v 0.568846 1.645835 3.518221
v -0.719148 1.238657 1.377133
v 0.759083 1.238657 1.377151
v 5.300000 0.008957 -5.392378
v -1.207767 0.054979 5.025641
v -5.300000 0.000716 -5.392378
v -5.183261 0.230501 -5.400000
v -5.254493 0.055741 5.400000
v -5.195684 0.030972 -5.400000
v 5.254479 0.055729 5.400000
v 5.183261 0.030972 -5.400000
v 5.195684 0.230502 -5.400000
v -5.189472 0.055729 5.365198
v 5.207919 0.230503 5.306385
v 5.207919 0.030972 5.293957
v -3.792306 0.056204 0.066599
v -3.749405 0.055838 5.023634
v -3.835209 0.056571 5.023634
v -1.204567 0.055838 5.023634
v -1.290372 0.056571 5.023634
v -1.247469 0.056204 0.066599
v 1.297368 0.056204 0.066599
v 1.340270 0.055838 5.023634
v 1.254466 0.056571 5.023634
v 3.885108 0.055838 5.023634
v 3.799304 0.056571 5.023634
v 3.842205 0.056204 0.066599
v -3.303943 0.112096 4.624610
v -1.741467 0.064647 4.775227
v -3.303943 0.129235 4.777783
v -2.864190 0.139264 0.661972
v -2.153618 0.098677 0.673618
v -2.153618 0.102365 0.343129
v 0.809004 0.129235 4.624610
v 0.809004 0.112095 4.777783
v -0.753471 0.176684 4.775227
v -0.341321 0.102365 0.673618
v -0.341321 0.098677 0.343129
v 0.369251 0.061778 0.661972
v 1.791366 0.176684 4.775227
v 3.353842 0.129235 4.624610
v 3.353842 0.112095 4.777783
v 2.926079 0.102366 0.343129
v 2.926078 0.098676 0.673618
v 2.215506 0.139264 0.661972
v -4.222032 0.050161 -3.455076
v -4.222032 1.762400 -2.915534
v -4.859544 1.762400 -3.455077
v -4.320763 1.420599 -3.473624
v -4.326440 0.765273 -3.482080
v -4.760814 1.420599 -3.475995
v -4.585553 0.009490 -4.677605
v -4.539933 3.185525 -4.731577
v -4.628663 3.205039 -4.639446
v -4.148478 3.250000 -4.679585
v -4.984888 2.457368 -4.763604
v -4.148475 2.410067 -4.685899
v -2.526816 0.032817 -4.743625
v -2.454067 0.046756 -4.824392
v -2.488796 0.799142 -4.782572
v 2.463061 0.032817 -4.743625
v 2.501082 0.799142 -4.782572
v 2.535811 0.046756 -4.824392
v 0.313344 0.565046 0.650629
v -0.597252 0.451415 3.835015
v 0.653050 0.483257 3.897572
v -0.620244 0.884097 0.716772
v -0.133473 0.702162 4.154632
v 0.660194 0.627202 0.716848
v 0.343104 1.000720 4.094565
v -0.638345 1.119629 0.957112
v 0.686341 1.088105 0.936335
v -0.634623 1.080635 2.453758
v -0.540439 1.796178 2.455041
v -0.683420 1.088846 2.457519
v -0.731329 0.995552 1.390981
v -0.730518 1.017073 1.541361
v -0.729707 1.038594 1.390981
v -0.731329 0.995552 3.477410
v -0.730518 1.017073 3.627790
v -0.729707 1.038594 3.477410
v -0.903168 1.234243 1.376044
v -0.696644 1.173424 1.397712
v -0.696643 1.183025 1.206316
v 0.723555 1.088878 2.453758
v 0.582706 1.796573 2.455041
v 0.674757 1.080673 2.457519
v 0.771248 1.038594 1.390981
v 0.770437 1.017073 1.541361
v 0.769626 0.995552 1.390981
v 0.770437 1.017073 3.627790
v 0.769626 0.995552 3.477410
v 0.771248 1.038594 3.477410
v 0.736562 1.173425 1.206316
v 0.943087 1.122206 1.376044
v 0.736563 1.183027 1.397712
v -0.783194 0.674625 1.389864
v -0.594012 0.242907 1.103950
v -0.783194 0.362393 1.699334
v -0.799788 0.365983 1.625031
v -0.806953 0.484134 1.187983
v -0.803370 0.158638 1.335751
v -0.802266 0.373763 1.360771
v -0.804038 0.362393 1.374874
v -0.791638 0.537469 1.389688
v -0.771870 0.518847 1.390619
v -0.816735 0.518873 1.394374
v -0.818646 0.521409 1.389077
v -0.795497 0.361985 1.409142
v -0.794009 0.376053 1.420959
v -0.796302 0.384129 1.380607
v -0.793458 0.339442 1.395104
v -0.795388 0.417415 1.554562
v -0.796765 0.369781 1.422974
v -0.814803 0.364438 1.396324
v -0.794149 0.336476 1.373154
v -0.786735 0.353503 1.377738
v -0.799237 0.220630 1.491685
v -0.818902 0.236266 1.481623
v -0.774038 0.238473 1.484676
v -0.772126 0.233280 1.481868
v -0.814599 0.361084 1.388078
v -0.818902 0.357168 1.392694
v -0.818902 0.358063 1.385813
v -0.818819 0.357102 1.387165
v -0.813685 0.362393 1.393128
v -0.821941 0.356604 1.394374
v -0.819857 0.357138 1.388964
v -0.783422 0.368930 1.408630
v -0.776173 0.362393 1.387657
v -0.771870 0.368299 1.389109
v -0.772658 0.356076 1.390890
v -0.771954 0.358169 1.385710
v -0.776846 0.360540 1.392392
v -0.766102 0.360563 1.387367
v -0.768831 0.369752 1.390139
v -0.770916 0.366111 1.386075
v -0.804324 0.221886 1.302095
v -0.797404 0.346577 1.405280
v -0.794088 0.374241 1.367625
v -0.807362 0.370991 1.378134
v -0.782892 0.346370 1.402862
v -0.796301 0.339318 1.384692
v -0.795388 0.415551 1.224565
v -0.793458 0.384069 1.398995
v 0.633931 0.362393 1.699334
v 0.823113 0.242907 1.103950
v 0.633931 0.674625 1.389864
v 0.843289 0.566148 1.335751
v 0.846872 0.240652 1.187983
v 0.839707 0.358803 1.625031
v 0.857149 0.410183 1.416715
v 0.835571 0.364666 1.410989
v 0.833971 0.365852 1.365025
v 0.847281 0.362393 1.374940
v 0.834390 0.384129 1.380607
v 0.835304 0.417415 1.554562
v 0.837234 0.339442 1.395104
v 0.834474 0.369538 1.419541
v 0.823469 0.345925 1.376643
v 0.839002 0.345351 1.372520
v 0.812172 0.233177 1.483908
v 0.813958 0.233124 1.477378
v 0.840340 0.220415 1.491844
v 0.814344 0.365473 1.397915
v 0.854068 0.363282 1.399274
v 0.793623 0.268711 1.356333
v 0.865627 0.362762 1.389362
v 0.861860 0.364402 1.396886
v 0.859459 0.359579 1.387406
v 0.858822 0.368299 1.389109
v 0.858738 0.368274 1.390763
v 0.858690 0.356761 1.395134
v 0.858738 0.357102 1.392562
v 0.853846 0.364246 1.392392
v 0.837398 0.370198 1.360752
v 0.843957 0.371283 1.377738
v 0.823330 0.371243 1.377790
v 0.826336 0.353177 1.402436
v 0.815746 0.365256 1.388740
v 0.811790 0.358063 1.385813
v 0.811873 0.357102 1.387165
v 0.808751 0.363969 1.383153
v 0.810835 0.365543 1.388708
v 0.811687 0.357656 1.392754
v 0.811873 0.368274 1.388964
v 0.817672 0.362393 1.390395
v 0.856654 0.233123 1.302350
v 0.858577 0.234225 1.296588
v 0.834390 0.339318 1.384692
v 0.835304 0.415551 1.224565
v 0.837233 0.384069 1.398995
v -0.783194 0.362393 3.729859
v -0.594012 0.242907 3.134475
v -0.783194 0.674625 3.420388
v -0.799788 0.365982 3.655555
v -0.806953 0.484134 3.218507
v -0.803370 0.158638 3.366275
v -0.797439 0.361872 3.439243
v -0.794696 0.375380 3.448728
v -0.810559 0.536355 3.417926
v -0.802265 0.373763 3.391295
v -0.804038 0.362393 3.405399
v -0.816735 0.518873 3.424899
v -0.772038 0.369117 3.421234
v -0.771870 0.358063 3.424439
v -0.771954 0.357102 3.423087
v -0.776530 0.364138 3.422768
v -0.765065 0.362762 3.419886
v -0.768832 0.364403 3.427410
v -0.770916 0.367954 3.423281
v -0.776173 0.362393 3.418181
v -0.771870 0.368299 3.419634
v -0.777301 0.537817 3.421666
v -0.796302 0.384129 3.411131
v -0.795388 0.417415 3.585087
v -0.793458 0.339442 3.425628
v -0.801743 0.369952 3.447752
v -0.815672 0.364049 3.425747
v -0.791189 0.242708 3.475148
v -0.818902 0.236267 3.512147
v -0.786417 0.371609 3.432962
v -0.799280 0.340519 3.436566
v -0.804889 0.225390 3.371970
v -0.793291 0.370198 3.391279
v -0.786735 0.371283 3.408262
v -0.807362 0.371243 3.408315
v -0.796932 0.226888 3.313862
v -0.771870 0.236267 3.328629
v -0.814566 0.361119 3.418649
v -0.818902 0.357168 3.423218
v -0.818902 0.358063 3.416337
v -0.818819 0.357102 3.417690
v -0.813685 0.362393 3.423653
v -0.821941 0.356604 3.424899
v -0.819857 0.357139 3.419489
v -0.805632 0.353177 3.432962
v -0.793458 0.384069 3.429519
v -0.796302 0.339319 3.415216
v -0.795388 0.415551 3.255090
v 0.670980 0.308333 3.809879
v 0.633931 0.674625 3.420388
v 0.823113 0.242907 3.134475
v 0.846872 0.240652 3.218507
v 0.839707 0.358804 3.655555
v 0.843289 0.566149 3.366275
v 0.815746 0.365257 3.419264
v 0.811790 0.358063 3.416337
v 0.811873 0.357102 3.417690
v 0.831190 0.349195 3.434183
v 0.808751 0.363969 3.413678
v 0.810835 0.365375 3.419352
v 0.811687 0.357656 3.423278
v 0.811873 0.368274 3.419489
v 0.817672 0.362393 3.420918
v 0.857866 0.410685 3.445648
v 0.847800 0.367648 3.400538
v 0.830856 0.365219 3.397581
v 0.840445 0.363681 3.442020
v 0.837234 0.339442 3.425628
v 0.834390 0.384129 3.411131
v 0.835304 0.417415 3.585087
v 0.830481 0.370405 3.447770
v 0.835452 0.374006 3.439452
v 0.816899 0.225545 3.522191
v 0.813958 0.233124 3.507903
v 0.833820 0.218322 3.515172
v 0.858822 0.235371 3.510926
v 0.838349 0.337655 3.404198
v 0.823330 0.353543 3.408315
v 0.843957 0.353504 3.408262
v 0.838047 0.260608 3.319736
v 0.823330 0.371243 3.408315
v 0.864830 0.365257 3.421311
v 0.858822 0.357168 3.417558
v 0.858738 0.358169 3.416234
v 0.857769 0.361969 3.420967
v 0.865627 0.362025 3.419886
v 0.861860 0.369752 3.420664
v 0.859386 0.367514 3.416425
v 0.858738 0.368274 3.421288
v 0.854519 0.362393 3.418181
v 0.844275 0.353177 3.432962
v 0.826336 0.353177 3.432962
v 0.837234 0.384069 3.429519
v 0.835304 0.415551 3.255090
v 0.834390 0.339319 3.415216
v -0.244257 0.876065 0.688065
v -0.591487 0.789436 0.689458
v -0.591487 0.962694 0.686672
v -0.303185 1.000720 4.149809
v -0.581209 1.013228 4.120790
v -0.581209 0.829550 4.123586
v 0.671486 0.876065 0.688065
v 0.324255 0.789436 0.689458
v 0.324255 0.962694 0.686672
v 0.343104 0.842058 4.149809
v 0.621127 1.013229 4.123587
v 0.621129 0.829552 4.120791
v -0.282291 0.684492 0.670677
v -0.282291 0.564038 0.675505
v 0.355973 0.624265 0.673091
v -0.180699 0.639374 4.142154
v 0.178860 0.705570 4.143201
v 0.178860 0.573176 4.141105
v 0.352930 0.708503 0.647988
v 0.352930 0.706214 0.674234
v -0.318974 0.707359 0.661111
v -0.313011 0.766646 0.647988
v 0.358893 0.767791 0.661111
v -0.313011 0.768935 0.674234
v -0.318974 0.828223 0.661111
v 0.352930 0.814983 0.659977
v 0.352930 0.841463 0.662246
v -3.867643 2.885922 0.103611
v -3.716970 2.885922 0.114501
v -3.792308 -0.000000 0.109056
v -3.846979 0.050161 5.005458
v -3.716970 2.885922 4.956214
v -3.867643 2.885922 4.945324
v 3.716970 2.885922 0.103611
v 3.792308 -0.000000 0.109056
v 3.867643 2.885922 0.114501
v 3.867643 2.885922 4.956214
v 3.802503 0.052176 5.020432
v 3.716970 2.885922 4.945324
v 3.882125 2.986367 2.399918
v -4.008370 2.904830 -0.103436
v -4.008370 2.916388 5.113348
v -3.867155 3.059997 1.205906
v -1.399425 3.019571 0.001628
v -1.399425 3.013160 2.412725
v -1.421175 3.060681 0.408543
v -3.864153 3.063532 0.413620
v -3.867430 3.059319 0.405592
v -1.421175 3.060681 1.207176
v -3.864153 3.063532 1.212253
v -3.867430 3.059319 1.204225
v -3.868095 3.060682 2.005810
v -1.425117 3.057830 2.010887
v -1.421840 3.062044 2.002858
v -3.867155 3.059998 3.801464
v -1.399425 3.013160 5.008283
v -1.399425 3.019571 2.597185
v -3.864153 3.057830 2.999024
v -3.867430 3.062043 3.007052
v -1.421175 3.060682 3.004101
v -3.867430 3.062044 3.805685
v -3.864153 3.057831 3.797657
v -1.421175 3.060682 3.802734
v -3.868095 3.060682 4.601367
v -1.425117 3.057830 4.606444
v -1.421840 3.062043 4.598415
v -1.427322 3.056653 1.204897
v 1.245210 3.019571 0.001627
v 1.245210 3.013160 2.412726
v 1.222795 3.059319 0.411495
v -1.223460 3.060681 0.408543
v 1.219518 3.063532 0.403466
v 1.223460 3.060681 1.207176
v -1.219518 3.063532 1.212253
v -1.222795 3.059319 1.204225
v -1.223460 3.060682 2.005810
v 1.219518 3.057830 2.010887
v 1.222795 3.062044 2.002858
v -1.427322 3.056653 3.805013
v 1.245210 3.019571 2.597185
v 1.245210 3.013160 5.008283
v -1.222795 3.062044 3.007052
v -1.219518 3.057830 2.999024
v 1.223460 3.060682 3.004101
v 1.223460 3.060682 3.802734
v -1.222795 3.062044 3.805685
v -1.219518 3.057831 3.797657
v 1.219518 3.057830 4.606444
v 1.222795 3.062043 4.598415
v -1.223460 3.060682 4.601367
v 3.867155 3.059997 1.208446
v 1.399425 3.013159 0.001628
v 1.399425 3.019571 2.412725
v 3.867430 3.059319 0.411495
v 1.421175 3.060681 0.408543
v 3.864153 3.063532 0.403466
v 1.425117 3.063532 1.212253
v 3.868095 3.060681 1.207176
v 1.421840 3.059319 1.204225
v 3.867430 3.062044 2.002858
v 3.864153 3.057830 2.010887
v 1.421175 3.060682 2.005810
v 3.867155 3.059998 3.804003
v 1.399425 3.019571 5.008283
v 1.399425 3.013160 2.597185
v 1.421175 3.060682 3.004101
v 3.864153 3.057830 3.009178
v 3.867430 3.062043 3.001149
v 1.421840 3.062044 3.805685
v 1.425117 3.057831 3.797657
v 3.868095 3.060682 3.802734
v 3.864153 3.057830 4.606444
v 3.867430 3.062043 4.598415
v 1.421175 3.060682 4.601367
vn 0.6987 -0.6866 0.2013
vn 0.8148 -0.3173 0.4852
vn -0.8669 0.0792 0.4921
vn 0.4287 0.6004 -0.6751
vn -0.6305 -0.7707 0.0919
vn 0.7339 -0.6429 0.2191
vn 0.5463 0.6631 0.5117
vn 0.0878 -0.0849 -0.9925
vn -0.0788 0.1626 -0.9835
vn 0.9745 0.2242 -0.0125
vn 0.8868 0.1999 -0.4167
vn -0.0000 -0.0000 -0.0000
vn 0.0572 0.2944 0.9540
vn -0.2322 -0.7978 0.5564
vn 0.4097 -0.9112 -0.0428
vn -0.2041 -0.6169 0.7601
vn 0.3842 -0.6173 0.6866
vn -0.0423 -0.6399 0.7673
vn -0.6334 0.1104 -0.7659
vn 0.3797 0.4395 0.8140
vn 0.6098 0.4204 -0.6719
vn -0.0501 -0.9980 0.0392
vn -0.7429 -0.1189 0.6588
vn -0.4721 -0.7320 0.4911
vn -0.1447 0.7465 -0.6494
vn 0.2777 -0.5053 -0.8170
vn -0.5855 -0.0187 -0.8105
vn -0.5418 -0.2312 0.8081
vn -0.1118 -0.5557 0.8238
vn 0.5178 -0.5596 0.6472
vn 0.1117 -0.5861 0.8025
vn -0.7356 0.2643 -0.6237
vn 0.1843 -0.3709 0.9102
vn 0.1921 -0.9181 -0.3466
vn -0.0546 -0.9984 0.0154
vn -0.6784 -0.0323 0.7340
vn -0.4822 -0.6725 0.5614
vn -0.7157 -0.5731 -0.3993
vn -0.0548 0.9351 -0.3501
vn -0.1554 0.4649 0.8716
vn -0.1493 0.4422 0.8844
vn -0.1463 0.5090 0.8483
vn -0.0001 -0.4522 -0.8919
vn -0.0001 -0.5003 -0.8659
vn -0.0001 -0.4771 -0.8789
vn -0.0115 -0.4675 -0.8839
vn -0.0114 -0.4706 -0.8823
vn -0.0115 -0.4706 -0.8823
vn 0.9240 -0.0038 0.3823
vn -0.8698 0.2922 0.3976
vn -0.8700 0.2925 0.3969
vn -0.8698 0.2923 0.3975
vn -0.9169 0.1331 -0.3762
vn -0.0465 0.3922 -0.9187
vn -0.9949 -0.1002 -0.0103
vn -0.4000 -0.5709 0.7170
vn -0.4879 -0.5401 0.6857
vn 0.1175 -0.6368 0.7620
vn 0.8127 0.3430 -0.4711
vn 0.1268 0.7336 -0.6676
vn 0.9987 0.0065 0.0507
vn -0.9367 0.1792 0.3006
vn -0.9115 0.2836 -0.2978
vn -0.8529 -0.4183 -0.3124
vn -0.9760 0.1448 0.1626
vn -0.8842 0.2767 0.3762
vn -0.9948 -0.1014 -0.0111
vn 0.9881 -0.0607 0.1411
vn -0.9371 0.1787 0.2999
vn -0.9413 0.0730 -0.3295
vn -0.7989 0.3009 -0.5207
vn -0.9790 -0.1897 -0.0748
vn 0.6277 -0.2786 -0.7269
vn -0.0856 0.9866 -0.1386
vn -0.0866 0.9863 -0.1402
vn -0.0867 0.9865 -0.1391
vn -0.6743 -0.1184 -0.7289
vn 0.5342 0.8402 0.0930
vn -0.5734 -0.6775 -0.4607
vn 0.5510 0.3593 -0.7532
vn -0.0375 -0.7830 -0.6209
vn 0.4363 -0.7424 0.5084
vn -0.3936 -0.3364 0.8555
vn -0.7992 0.5437 -0.2562
vn -0.0319 0.9964 0.0779
vn 0.5122 0.6144 0.6001
vn -0.2205 0.9680 -0.1201
vn -0.6759 -0.4334 -0.5961
vn -0.4462 -0.4551 -0.7706
vn -0.4130 -0.4570 -0.7878
vn 0.3731 0.9277 -0.0155
vn -0.5937 -0.6872 -0.4186
vn 0.3705 0.2701 -0.8887
vn -0.2247 -0.6548 -0.7216
vn 0.4100 -0.8387 -0.3584
vn -0.0543 -0.7584 0.6495
vn 0.0624 0.1010 0.9929
vn 0.3010 -0.9409 0.1551
vn -0.0000 0.2931 0.9561
vn -0.7992 0.5438 -0.2562
vn -0.5180 -0.5173 0.6812
vn 0.9680 -0.2489 0.0309
vn -0.6682 0.2604 0.6969
vn 0.9709 0.0371 0.2366
vn 0.9911 -0.1328 0.0008
vn -0.5780 -0.3870 0.7184
vn 0.6562 0.2586 0.7089
vn 0.9333 0.2050 -0.2947
vn -0.6499 0.2655 0.7121
vn 0.8867 -0.2714 -0.3743
vn 0.2936 -0.9555 0.0297
vn -0.7626 -0.3867 0.5185
vn 0.4583 -0.3215 0.8286
vn -0.0900 -0.0822 0.9925
vn -0.2600 0.0018 0.9656
vn 0.3135 0.9325 -0.1794
vn 0.1451 0.9821 -0.1199
vn -0.0021 0.9980 -0.0629
vn -0.8483 -0.3017 0.4352
vn 0.3008 0.1368 -0.9438
vn 0.1459 0.1959 -0.9697
vn -0.0020 0.2491 -0.9685
vn 0.3075 0.7924 0.5268
vn -0.8756 0.2395 -0.4195
vn -0.7866 0.5767 -0.2204
vn 0.0187 -0.4582 -0.8886
vn 0.0186 -0.4662 -0.8845
vn 0.0187 -0.4514 -0.8921
vn -0.5772 0.7574 -0.3051
vn 0.2929 0.3549 -0.8878
vn -0.4250 -0.3148 -0.8487
vn -0.3455 0.6959 -0.6295
vn -0.9337 0.0300 -0.3567
vn 0.9341 -0.2323 -0.2711
vn 0.9182 0.2069 -0.3378
vn -0.9336 0.0299 -0.3570
vn 0.8956 0.0446 0.4426
vn 0.7555 0.1959 0.6252
vn 0.9883 -0.1465 0.0432
vn -0.2427 0.7692 -0.5912
vn -0.2813 0.7711 -0.5713
vn 0.0174 0.7215 -0.6922
vn 0.8503 -0.4535 0.2671
vn 0.0409 -0.7932 0.6076
vn 0.9884 -0.0845 -0.1265
vn -0.1240 -0.0000 -0.9923
vn -0.2425 -0.0000 -0.9701
vn -0.0020 1.0000 -0.0078
vn -0.0000 -0.0000 1.0000
vn 0.0078 -0.0624 0.9980
vn 0.1240 -0.9923 -0.0000
vn 0.0156 -0.0624 0.9979
vn -0.0000 1.0000 0.0072
vn -0.0000 1.0000 0.0051
vn 0.0078 1.0000 -0.0018
vn 0.0156 0.9999 -0.0013
vn -0.0000 1.0000 -0.0009
vn -0.0000 1.0000 -0.0013
vn 1.0000 -0.0000 -0.0000
vn -1.0000 -0.0000 -0.0000
vn -0.0000 1.0000 -0.0000
vn 0.1402 -0.9901 -0.0000
vn 0.0703 -0.9975 -0.0000
vn 0.1499 -0.9887 -0.0000
vn -0.9864 -0.0000 0.1644
vn -0.9899 -0.0000 0.1414
vn -0.1080 -0.0275 0.9938
vn -0.2984 0.0361 -0.9538
vn -0.0000 -1.0000 -0.0000
vn -0.0000 -0.0000 -1.0000
vn 0.0833 -0.9707 -0.2255
vn 0.0540 -0.8633 -0.5018
vn -0.0124 -0.9194 -0.3930
vn 0.6289 0.0955 -0.7716
vn -0.4077 0.7076 -0.5771
vn 0.2349 0.9719 -0.0138
vn -0.8632 0.0010 -0.5049
vn 0.4792 -0.6746 -0.5615
vn -0.2067 -0.9569 -0.2041
vn 0.6491 0.0784 -0.7567
vn 0.8204 -0.0057 0.5717
vn -0.7680 0.1327 0.6266
vn 0.1301 0.1867 0.9738
vn -0.7349 0.1123 0.6689
vn -0.0600 0.3190 0.9458
vn -0.5827 0.7996 -0.1454
vn -0.1851 -0.1966 -0.9629
vn -0.1830 -0.1945 -0.9637
vn -0.2456 -0.1842 -0.9517
vn 0.1779 0.7741 -0.6076
vn -0.0808 0.3871 -0.9185
vn 0.6528 0.7072 -0.2716
vn 0.0417 0.4740 -0.8796
vn 0.7683 0.2573 0.5861
vn -0.1291 0.4167 0.8998
vn -0.8213 0.3381 0.4596
vn -0.0332 0.8387 -0.5436
vn -0.6954 -0.4988 -0.5173
vn 0.7945 -0.3518 -0.4949
vn -0.7152 -0.4748 -0.5129
vn 0.7351 0.2987 0.6086
vn -0.2609 0.6682 0.6967
vn 0.0448 0.3922 -0.9188
vn 0.0286 0.7233 0.6900
vn -0.1134 0.7589 0.6412
vn 0.0828 0.7996 0.5948
vn 0.7120 0.2366 -0.6612
vn 0.8280 -0.4320 0.3576
vn 0.2762 0.7628 0.5847
vn 0.1888 -0.1298 0.9734
vn 0.3579 -0.1230 0.9256
vn 0.2505 -0.1331 0.9589
vn -0.7845 -0.1961 0.5883
vn -0.6172 -0.1543 0.7715
vn -0.8296 -0.2074 0.5185
vn -0.2736 -0.0021 0.9618
vn -0.3435 -0.0027 0.9392
vn -0.2759 -0.0022 0.9612
vn -0.0800 -0.9965 -0.0229
vn -0.2398 -0.9707 -0.0167
vn 0.2791 -0.9484 0.1504
vn -0.0657 0.7718 -0.6325
vn -0.4260 0.7723 -0.4713
vn 0.6610 -0.6979 0.2757
vn -0.1825 -0.1939 -0.9639
vn -0.1840 -0.1955 -0.9633
vn -0.2447 -0.1835 -0.9521
vn 0.6905 0.3374 0.6398
vn 0.2317 0.8865 -0.4005
vn 0.0499 0.9893 0.1369
vn -0.0039 0.9700 -0.2432
vn -0.8158 -0.4359 -0.3800
vn 0.0652 0.8120 -0.5801
vn 0.4404 0.8609 -0.2546
vn -0.7858 0.3644 0.4997
vn 0.7540 -0.4494 -0.4790
vn 0.3125 -0.8572 0.4094
vn 0.3188 -0.0139 0.9477
vn 0.3814 -0.5523 0.7413
vn 0.2572 0.2269 0.9393
vn 0.3623 -0.5257 0.7696
vn -0.5322 -0.8441 -0.0650
vn -0.0000 0.8065 0.5912
vn 0.8000 0.3534 -0.4849
vn -0.6730 0.3194 -0.6671
vn -0.7182 -0.1961 -0.6676
vn -0.4102 0.7110 0.5712
vn -0.0000 -0.0586 0.9983
vn -0.0000 -0.0587 0.9983
vn -0.0000 -0.0593 0.9982
vn -0.0000 -0.4472 0.8944
vn -0.0000 -0.1240 0.9923
vn -0.0000 -0.2425 0.9701
vn -0.6924 0.1546 0.7048
vn -0.1503 0.1781 0.9725
vn 0.7290 0.6843 0.0193
vn 0.0953 -0.9689 -0.2282
vn -0.0140 -0.9227 -0.3852
vn -0.1924 -0.9568 -0.2179
vn -0.2187 0.1469 -0.9647
vn 0.0876 -0.8617 -0.4999
vn -0.8703 0.0361 -0.4912
vn 0.4769 -0.7082 -0.5206
vn 0.0367 0.0927 0.9950
vn 0.7887 0.0179 0.6145
vn 0.9543 -0.2719 0.1237
vn -0.1491 -0.9878 -0.0459
vn 0.1780 0.2044 -0.9626
vn -0.7844 0.3944 -0.4787
vn 0.1157 0.5952 0.7952
vn 0.2072 0.3627 0.9086
vn 0.0551 0.7162 0.6958
vn 0.7781 0.4888 -0.3944
vn 0.6753 0.2083 0.7075
vn 0.1153 0.5344 -0.8373
vn 0.7997 0.3545 -0.4845
vn 0.3923 0.4405 -0.8075
vn 0.6874 0.0505 -0.7246
vn -0.0759 0.0590 -0.9954
vn 0.1252 -0.3523 -0.9275
vn 0.9734 0.2210 0.0604
vn 0.7684 0.1950 0.6095
vn -0.8470 0.3150 0.4282
vn -0.8155 0.2653 -0.5144
vn -0.4285 0.7141 0.5535
vn 0.0514 -0.4906 0.8699
vn -0.7789 -0.2776 0.5624
vn -0.0648 -0.4859 0.8716
vn 0.6614 -0.6949 0.2823
vn -0.6911 -0.4673 -0.5514
vn 0.0582 -0.6265 -0.7773
vn -0.1467 0.4629 0.8742
vn -0.8258 0.3171 0.4665
vn -0.0835 0.4616 0.8832
vn -0.0782 -0.7906 0.6073
vn -0.6382 -0.6268 0.4470
vn 0.0072 -0.9993 -0.0361
vn -0.4312 0.7638 -0.4802
vn 0.3052 0.7369 -0.6031
vn 0.7450 0.3917 -0.5400
vn -0.1376 -0.0254 0.9902
vn 0.7443 -0.3211 0.5856
vn 0.1324 -0.1250 0.9833
vn -0.1093 -0.9940 -0.0108
vn -0.0165 0.8334 -0.5524
vn -0.0139 0.8338 -0.5519
vn 0.0002 0.8357 -0.5493
vn -0.0295 0.8316 -0.5547
vn 0.8059 -0.3426 -0.4829
vn 0.3920 -0.6255 -0.6746
vn 0.4947 0.4191 0.7613
vn -0.6841 -0.2651 -0.6795
vn 0.4135 0.8462 -0.3362
vn 0.4081 0.7270 -0.5522
vn 0.9895 0.1438 -0.0152
vn -0.3882 0.8236 -0.4135
vn 0.9834 0.1690 0.0656
vn -0.0000 0.1193 -0.9929
vn -0.0000 0.1306 -0.9914
vn -0.0000 0.1206 -0.9927
vn 0.0115 0.9999 -0.0000
vn 0.0110 0.9999 -0.0000
vn 0.0128 0.9999 -0.0000
vn 0.0207 -0.9998 -0.0000
vn -0.0000 -0.9990 -0.0457
vn -0.0000 -0.9986 -0.0531
vn -0.0000 -0.9994 -0.0357
vn -0.0116 0.9999 -0.0000
vn -0.0111 0.9565 0.2915
vn 0.0054 1.0000 -0.0000
vn 0.2265 -0.9740 -0.0000
vn 0.2040 -0.9790 -0.0000
vn 0.0156 0.9999 0.0039
vn 0.0312 0.9995 0.0039
vn 0.9923 -0.0000 0.1240
vn -0.7847 0.5672 -0.2501
vn -0.9452 0.2357 0.2257
vn -0.9452 0.2358 0.2258
vn -0.9452 0.2357 0.2258
vn 0.1641 -0.8038 0.5718
vn -0.5241 0.6222 -0.5815
vn 0.6048 -0.6767 0.4199
vn 0.9922 -0.0471 0.1157
vn -0.5771 0.5654 -0.5894
vn -0.6295 -0.3898 0.6722
vn -0.7497 0.2161 -0.6255
vn 0.3659 0.5003 0.7848
vn 0.1573 0.9787 0.1320
vn 0.9183 0.2065 -0.3377
vn 0.9967 0.0627 0.0515
vn -0.2680 -0.2060 -0.9411
vn 0.6809 -0.5662 0.4644
vn 0.9998 0.0031 0.0191
vn -0.8809 0.3588 0.3088
vn -0.9093 -0.2002 0.3649
vn -0.7585 0.2307 0.6095
vn 0.6338 -0.1547 -0.7579
vn -0.9125 0.3232 0.2508
vn 0.5464 0.6632 0.5115
vn 0.9982 -0.0023 -0.0602
vn -0.7146 -0.6664 -0.2125
vn 0.8096 -0.5255 -0.2615
vn 0.6066 0.7318 -0.3107
vn 0.3150 0.1468 0.9377
vn -0.2622 -0.2131 -0.9412
vn -0.8019 0.4978 -0.3304
vn -0.9587 0.2008 0.2013
vn 0.0410 -0.7646 0.6432
vn -0.4370 0.4562 -0.7752
vn -0.8809 0.3586 0.3088
vn -0.5918 0.1888 0.7837
vn 0.0269 0.4556 0.8898
vn -0.2985 -0.3162 -0.9005
vn 0.0190 0.9688 -0.2471
vn 0.8184 -0.4321 -0.3787
vn -0.3010 0.7125 -0.6338
vn 0.1365 -0.0331 0.9901
vn -0.4512 0.8706 -0.1962
vn -0.1796 -0.3556 0.9172
vn 0.0978 0.2046 0.9739
vn -0.0846 0.9155 0.3933
vn 0.1114 0.0064 -0.9938
vn 0.4685 -0.7845 0.4064
vn -0.7680 0.6347 -0.0855
vn 0.1451 0.5472 0.8243
vn 0.7236 0.1828 -0.6656
vn -0.7177 0.2589 0.6464
vn -0.6550 -0.3997 -0.6412
vn -0.9810 0.1701 0.0931
vn 0.4352 -0.7965 0.4197
vn -0.7821 0.6114 -0.1205
vn 0.7285 -0.3619 0.5817
vn 0.3541 -0.8508 -0.3882
vn -0.6590 0.1880 0.7283
vn -0.7839 -0.3481 -0.5142
vn 0.7029 0.3954 0.5912
vn 0.0564 0.0100 -0.9984
vn -0.0589 -0.5915 -0.8042
vn -0.9466 -0.1946 -0.2572
vn -0.6840 -0.4322 -0.5876
vn -0.9444 0.1672 0.2831
vn -0.7356 0.2645 -0.6236
vn 0.4615 0.8560 -0.2328
vn 0.4504 0.0689 -0.8902
vn -0.7657 0.3369 -0.5479
vn -0.5450 -0.3775 0.7486
vn -0.5884 -0.3173 0.7437
vn 0.6390 0.2232 0.7361
vn -0.2344 -0.5900 0.7726
vn -0.2355 0.5456 0.8043
vn 0.6248 -0.6586 0.4194
vn -0.3571 -0.5245 0.7729
vn 0.9990 0.0118 0.0421
vn -0.7239 -0.0717 0.6862
vn 0.6272 -0.6645 0.4062
vn -0.6870 -0.0361 0.7258
vn -0.8087 -0.4041 -0.4274
vn 0.4019 0.0708 -0.9130
vn 0.0627 0.9688 -0.2399
vn 0.0616 0.9689 -0.2395
vn 0.0624 0.9691 -0.2385
vn -0.9396 0.0067 0.3422
vn 0.9399 0.1941 0.2810
vn 0.9395 -0.2053 0.2743
vn -0.7908 0.0357 -0.6110
vn -0.0005 0.0004 -1.0000
vn -0.0001 -0.0000 -1.0000
vn 0.0006 -0.0006 -1.0000
vn 0.6001 -0.5742 0.5569
vn 0.6485 -0.1744 -0.7410
vn -0.6017 0.7911 0.1103
vn -0.1965 -0.3809 -0.9035
vn -0.0760 0.9833 -0.1651
vn -0.4463 0.7162 0.5365
vn 0.7406 0.5820 0.3357
vn 0.5900 0.3017 0.7489
vn 0.4468 -0.8946 0.0090
vn -0.1064 -0.3325 -0.9371
vn 0.8207 0.5642 0.0902
vn 0.7037 0.5967 0.3858
vn -0.3833 -0.8409 0.3820
vn 0.6262 -0.6168 0.4769
vn -0.3359 0.8711 -0.3582
vn -0.4456 0.7167 0.5364
vn 0.6704 -0.2277 -0.7062
vn 0.5766 -0.5652 0.5899
vn 0.8786 -0.0380 -0.4761
vn -0.0490 0.7823 -0.6210
vn 0.7343 0.6314 0.2493
vn -0.6427 0.7644 0.0512
vn -0.4457 0.7167 0.5364
vn -0.1063 -0.3326 -0.9371
vn -0.4482 -0.8153 0.3666
vn 0.7435 -0.6385 0.1988
vn 0.5777 -0.6956 -0.4271
vn 0.8541 -0.4500 -0.2609
vn 0.6355 0.3048 0.7094
vn 0.7332 -0.2795 0.6200
vt 0.569040 0.976670
vt 0.568923 0.977040
vt 0.569131 0.977101
vt 0.522967 0.976977
vt 0.523040 0.977303
vt 0.522828 0.977019
vt 0.511651 0.977195
vt 0.511511 0.976996
vt 0.511447 0.977415
vt 0.634901 0.977199
vt 0.635060 0.977242
vt 0.634858 0.977090
vt 0.983976 0.780800
vt 0.983855 0.781025
vt 0.983752 0.780928
vt 0.580459 0.976676
vt 0.580343 0.977040
vt 0.580551 0.977101
vt 0.623328 0.977308
vt 0.623369 0.977199
vt 0.623326 0.977090
vt 0.982531 0.219145
vt 0.982211 0.219212
vt 0.982344 0.219366
vt 0.982385 0.052974
vt 0.988048 0.052555
vt 0.988079 0.052615
vt 0.468874 0.965071
vt 0.468800 0.873786
vt 0.469000 0.873814
vt 0.343646 0.966077
vt 0.343442 0.873983
vt 0.343739 0.873983
vt 0.313062 0.966077
vt 0.312858 0.873983
vt 0.313155 0.873983
vt 0.524852 0.982684
vt 0.525498 0.982601
vt 0.524680 0.982787
vt 0.523604 0.977405
vt 0.523669 0.977199
vt 0.523794 0.977235
vt 0.569259 0.977115
vt 0.569784 0.976798
vt 0.570051 0.976958
vt 0.523302 0.977940
vt 0.522765 0.977219
vt 0.966548 0.977309
vt 0.966030 0.977517
vt 0.965512 0.977275
vt 0.634367 0.977331
vt 0.634860 0.977308
vt 0.634739 0.977495
vt 0.635374 0.977600
vt 0.635433 0.977875
vt 0.982661 0.411828
vt 0.983086 0.412377
vt 0.982891 0.412254
vt 0.983259 0.781964
vt 0.983811 0.781816
vt 0.580679 0.977115
vt 0.581220 0.976795
vt 0.581472 0.976957
vt 0.982261 0.418919
vt 0.987008 0.418829
vt 0.982211 0.419314
vt 0.982813 0.828799
vt 0.983491 0.829026
vt 0.982456 0.829308
vt 0.622836 0.977331
vt 0.623207 0.977495
vt 0.623855 0.977608
vt 0.623901 0.977875
vt 0.982508 0.770554
vt 0.983543 0.771278
vt 0.982211 0.770513
vt 0.230976 0.966078
vt 0.230666 0.873983
vt 0.231018 0.873859
vt 0.240229 0.966077
vt 0.239798 0.873983
vt 0.240259 0.873983
vt 0.290458 0.966077
vt 0.290027 0.873983
vt 0.290488 0.873983
vt 0.524717 0.971613
vt 0.522899 0.977435
vt 0.569010 0.977050
vt 0.564264 0.980022
vt 0.570383 0.982327
vt 0.569200 0.977130
vt 0.523315 0.977986
vt 0.518368 0.980663
vt 0.511453 0.976977
vt 0.512509 0.975880
vt 0.631889 0.982326
vt 0.634866 0.977192
vt 0.634996 0.977465
vt 0.636566 0.979986
vt 0.634949 0.977504
vt 0.580430 0.977050
vt 0.575685 0.980022
vt 0.581647 0.982739
vt 0.580620 0.977130
vt 0.982381 0.057858
vt 0.988078 0.058024
vt 0.988106 0.058208
vt 0.620358 0.982326
vt 0.623330 0.977199
vt 0.623528 0.977242
vt 0.623464 0.977465
vt 0.626508 0.980822
vt 0.623417 0.977504
vt 0.522446 0.976892
vt 0.522890 0.977182
vt 0.983481 0.883588
vt 0.982931 0.883733
vt 0.983619 0.883222
vt 0.569505 0.977594
vt 0.569253 0.976988
vt 0.983472 0.963412
vt 0.983413 0.964428
vt 0.983159 0.963413
vt 0.982478 0.937435
vt 0.982505 0.936332
vt 0.982665 0.937307
vt 0.982479 0.461740
vt 0.982777 0.462528
vt 0.982211 0.461925
vt 0.993609 0.018294
vt 0.993096 0.017523
vt 0.993759 0.018160
vt 0.635349 0.976946
vt 0.988154 0.053137
vt 0.988298 0.052627
vt 0.983338 0.879203
vt 0.982762 0.878932
vt 0.983440 0.878931
vt 0.577367 0.979715
vt 0.580673 0.976986
vt 0.982211 0.776042
vt 0.983030 0.775602
vt 0.982354 0.776326
vt 0.982505 0.830304
vt 0.982687 0.830169
vt 0.982494 0.428909
vt 0.982863 0.429766
vt 0.982211 0.429060
vt 0.993609 0.012899
vt 0.992799 0.012270
vt 0.993740 0.012611
vt 0.983189 0.218339
vt 0.982944 0.218856
vt 0.983112 0.218220
vt 0.623817 0.976946
vt 0.426870 0.964935
vt 0.426792 0.873786
vt 0.426993 0.873814
vt 0.235367 0.873983
vt 0.235798 0.966077
vt 0.235337 0.966077
vt 0.443669 0.965071
vt 0.443595 0.873786
vt 0.443796 0.873814
vt 0.244499 0.873983
vt 0.244931 0.966077
vt 0.244469 0.966077
vt 0.249180 0.873895
vt 0.249497 0.966077
vt 0.249134 0.966078
vt 0.460476 0.964935
vt 0.460398 0.873786
vt 0.460599 0.873814
vt 0.285596 0.873983
vt 0.286027 0.966077
vt 0.285566 0.966077
vt 0.418465 0.965071
vt 0.418391 0.873786
vt 0.418592 0.873814
vt 0.271897 0.873983
vt 0.272328 0.966077
vt 0.271867 0.966077
vt 0.253746 0.873895
vt 0.254063 0.966077
vt 0.253700 0.966077
vt 0.267331 0.873983
vt 0.267762 0.966077
vt 0.267301 0.966077
vt 0.262764 0.873983
vt 0.263196 0.966077
vt 0.262734 0.966077
vt 0.308427 0.873983
vt 0.308858 0.966077
vt 0.308397 0.966077
vt 0.911959 0.977345
vt 0.911471 0.977491
vt 0.911395 0.977266
vt 0.522735 0.977301
vt 0.634550 0.971451
vt 0.511534 0.977456
vt 0.513215 0.982814
vt 0.906467 0.977345
vt 0.906049 0.977498
vt 0.905930 0.977269
vt 0.922109 0.971813
vt 0.922774 0.971652
vt 0.922932 0.971851
vt 0.982247 0.141688
vt 0.988224 0.141908
vt 0.982211 0.141872
vt 0.623140 0.971443
vt 0.916712 0.971416
vt 0.916490 0.977457
vt 0.916557 0.971407
vt 0.982502 0.224249
vt 0.982216 0.223590
vt 0.982456 0.223429
vt 0.982211 0.456491
vt 0.987136 0.456730
vt 0.982597 0.457228
vt 0.512098 0.977407
vt 0.983278 0.775309
vt 0.983811 0.775604
vt 0.982669 0.417625
vt 0.983070 0.418275
vt 0.982903 0.418081
vt 0.983166 0.429961
vt 0.982898 0.430537
vt 0.622926 0.976980
vt 0.623022 0.977338
vt 0.622644 0.977078
vt 0.304036 0.966077
vt 0.303726 0.873983
vt 0.304078 0.873859
vt 0.276759 0.966077
vt 0.276328 0.873983
vt 0.276789 0.873983
vt 0.378599 0.966077
vt 0.378395 0.873983
vt 0.378692 0.873983
vt 0.356655 0.966077
vt 0.356550 0.873983
vt 0.356847 0.873983
vt 0.281204 0.966078
vt 0.280894 0.873983
vt 0.281247 0.873859
vt 0.365492 0.966077
vt 0.365288 0.873983
vt 0.365585 0.873983
vt 0.295024 0.966077
vt 0.294593 0.873983
vt 0.295054 0.873983
vt 0.374230 0.966077
vt 0.374026 0.873983
vt 0.374323 0.873983
vt 0.330440 0.966077
vt 0.330335 0.873983
vt 0.330632 0.873983
vt 0.258373 0.966077
vt 0.258063 0.873983
vt 0.258415 0.873859
vt 0.317431 0.966077
vt 0.317227 0.873983
vt 0.317525 0.873983
vt 0.334908 0.966077
vt 0.334704 0.873983
vt 0.335001 0.873983
vt 0.299591 0.966077
vt 0.299159 0.873983
vt 0.299621 0.873983
vt 0.569104 0.976875
vt 0.569799 0.977151
vt 0.982610 0.423314
vt 0.982913 0.424127
vt 0.982267 0.423415
vt 0.982320 0.797087
vt 0.983202 0.797380
vt 0.982211 0.797386
vt 0.580525 0.976875
vt 0.581220 0.977151
vt 0.982475 0.467169
vt 0.982821 0.468160
vt 0.982211 0.467342
vt 0.982211 0.819181
vt 0.982822 0.818370
vt 0.982309 0.819335
vt 0.571222 0.971407
vt 0.522991 0.976929
vt 0.506927 0.980849
vt 0.511289 0.977268
vt 0.582642 0.971407
vt 0.921992 0.975935
vt 0.922048 0.971814
vt 0.988103 0.063822
vt 0.982361 0.063614
vt 0.988102 0.063184
vt 0.986853 0.224259
vt 0.982499 0.224309
vt 0.002064 0.002199
vt 0.402021 0.002133
vt 0.202043 0.409600
vt 0.606066 0.002099
vt 0.805913 0.409637
vt 0.406153 0.409569
vt 0.033826 0.413704
vt 0.036512 0.813362
vt 0.030810 0.813379
vt 0.061483 0.413699
vt 0.058495 0.807571
vt 0.055837 0.413714
vt 0.023787 0.413704
vt 0.026473 0.813362
vt 0.020771 0.813379
vt 0.071523 0.413699
vt 0.068535 0.807571
vt 0.065877 0.413714
vt 0.104372 0.413715
vt 0.107202 0.801927
vt 0.101429 0.801925
vt 0.119123 0.794421
vt 0.121782 0.413822
vt 0.124769 0.794430
vt 0.602810 0.413820
vt 0.605997 0.413801
vt 0.604376 0.600369
vt 0.371979 0.413808
vt 0.373587 0.600442
vt 0.370399 0.600461
vt 0.384058 0.413817
vt 0.387245 0.413798
vt 0.385624 0.600365
vt 0.393049 0.413808
vt 0.394657 0.600442
vt 0.391469 0.600461
vt 0.588015 0.413820
vt 0.591202 0.413801
vt 0.589581 0.600369
vt 0.400446 0.413808
vt 0.402054 0.600442
vt 0.398867 0.600461
vt 0.595412 0.413820
vt 0.598600 0.413801
vt 0.596978 0.600369
vt 0.364581 0.413808
vt 0.366189 0.600442
vt 0.363002 0.600461
vt 0.972354 0.082187
vt 0.914156 0.079258
vt 0.972337 0.076295
vt 0.914147 0.056335
vt 0.972346 0.059264
vt 0.914164 0.062227
vt 0.940291 0.506214
vt 0.914145 0.512206
vt 0.914099 0.500324
vt 0.914122 0.490185
vt 0.940268 0.484194
vt 0.940314 0.496075
vt 0.914156 0.049292
vt 0.972338 0.046329
vt 0.972355 0.052221
vt 0.972346 0.039286
vt 0.914164 0.042249
vt 0.914147 0.036357
vt 0.940314 0.528235
vt 0.914122 0.522345
vt 0.940268 0.516353
vt 0.914099 0.468164
vt 0.940291 0.474054
vt 0.914145 0.480046
vt 0.914156 0.069269
vt 0.972338 0.066306
vt 0.972355 0.072198
vt 0.972346 0.029297
vt 0.914164 0.032260
vt 0.914147 0.026368
vt 0.940291 0.457974
vt 0.914145 0.463966
vt 0.914099 0.452084
vt 0.914122 0.538425
vt 0.940268 0.532433
vt 0.940314 0.544315
vt 0.829111 0.873971
vt 0.853190 0.874012
vt 0.841163 0.937817
vt 0.857318 0.874012
vt 0.880928 0.873942
vt 0.869132 0.937812
vt 0.914162 0.703564
vt 0.914181 0.687393
vt 0.938398 0.695484
vt 0.914188 0.723572
vt 0.914134 0.707711
vt 0.938391 0.715649
vt 0.505222 0.663866
vt 0.503604 0.546767
vt 0.506374 0.546698
vt 0.553066 0.663831
vt 0.551891 0.546796
vt 0.554265 0.546696
vt 0.914153 0.328727
vt 0.945632 0.313742
vt 0.945709 0.343709
vt 0.945004 0.377909
vt 0.914139 0.362924
vt 0.945069 0.347936
vt 0.940695 0.576263
vt 0.940589 0.578531
vt 0.914139 0.577626
vt 0.940600 0.562272
vt 0.940738 0.564384
vt 0.914117 0.563279
vt 0.940600 0.569074
vt 0.940738 0.571185
vt 0.914117 0.570080
vt 0.940695 0.583101
vt 0.940589 0.585369
vt 0.914139 0.584463
vt 0.362970 0.604645
vt 0.407285 0.604604
vt 0.385147 0.711995
vt 0.469309 0.664732
vt 0.491486 0.772081
vt 0.447170 0.772122
vt 0.496907 0.546526
vt 0.473479 0.659937
vt 0.447715 0.546521
vt 0.790934 0.955049
vt 0.808867 0.873902
vt 0.824897 0.955059
vt 0.940274 0.618603
vt 0.940180 0.619493
vt 0.914109 0.618976
vt 0.940261 0.613458
vt 0.940282 0.614281
vt 0.914103 0.613866
vt 0.982359 0.522132
vt 0.987150 0.522842
vt 0.982336 0.523483
vt 0.982354 0.500768
vt 0.987243 0.500127
vt 0.987211 0.501479
vt 0.982359 0.516622
vt 0.987150 0.517332
vt 0.982336 0.517973
vt 0.982354 0.506278
vt 0.987243 0.505637
vt 0.987211 0.506989
vt 0.832845 0.971559
vt 0.835775 0.978410
vt 0.829983 0.978444
vt 0.812799 0.978427
vt 0.809869 0.971576
vt 0.815661 0.971542
vt 0.940284 0.608323
vt 0.940190 0.609191
vt 0.914104 0.608713
vt 0.940294 0.603138
vt 0.940205 0.604038
vt 0.914098 0.603530
vt 0.982354 0.495258
vt 0.987243 0.494617
vt 0.987211 0.495969
vt 0.982359 0.533152
vt 0.987150 0.533862
vt 0.982336 0.534503
vt 0.982354 0.511788
vt 0.987243 0.511147
vt 0.987211 0.512498
vt 0.982359 0.527642
vt 0.987150 0.528352
vt 0.982336 0.528993
vt 0.819943 0.978444
vt 0.822805 0.971559
vt 0.825735 0.978410
vt 0.845781 0.971542
vt 0.842919 0.978427
vt 0.839989 0.971576
vt 0.031437 0.984883
vt 0.043407 0.973161
vt 0.047854 0.988665
vt 0.930483 0.926094
vt 0.915001 0.919572
vt 0.927704 0.909782
vt 0.296458 0.977405
vt 0.291058 0.986047
vt 0.285630 0.977165
vt 0.351292 0.977372
vt 0.345499 0.985980
vt 0.340311 0.977032
vt 0.983600 0.930848
vt 0.982793 0.931734
vt 0.982627 0.931814
vt 0.987825 0.041765
vt 0.982243 0.042757
vt 0.982211 0.041972
vt 0.988329 0.042757
vt 0.983572 0.931677
vt 0.982644 0.930584
vt 0.524852 0.971590
vt 0.988296 0.111871
vt 0.982211 0.112380
vt 0.982230 0.111871
vt 0.987876 0.112541
vt 0.983563 0.931958
vt 0.983778 0.931917
vt 0.987933 0.396780
vt 0.987916 0.397668
vt 0.982379 0.397209
vt 0.988044 0.121235
vt 0.988037 0.122092
vt 0.982347 0.121637
vt 0.983766 0.808626
vt 0.983531 0.807717
vt 0.983928 0.807978
vt 0.982804 0.808001
vt 0.568681 0.976415
vt 0.563967 0.979440
vt 0.982211 0.808626
vt 0.982769 0.037765
vt 0.988256 0.036992
vt 0.988353 0.037604
vt 0.982211 0.036992
vt 0.564573 0.980532
vt 0.523804 0.977174
vt 0.982916 0.964663
vt 0.982385 0.964814
vt 0.982414 0.963791
vt 0.522427 0.976753
vt 0.987997 0.337769
vt 0.987988 0.338657
vt 0.982373 0.338164
vt 0.987977 0.084833
vt 0.987972 0.085664
vt 0.982357 0.084780
vt 0.927470 0.953841
vt 0.915748 0.941871
vt 0.931252 0.937425
vt 0.930484 0.847712
vt 0.915001 0.841191
vt 0.927704 0.831400
vt 0.395054 0.980181
vt 0.400482 0.971456
vt 0.406104 0.980203
vt 0.378450 0.982886
vt 0.378556 0.972531
vt 0.387688 0.977157
vt 0.983538 0.937173
vt 0.982965 0.936080
vt 0.983700 0.936148
vt 0.510891 0.976793
vt 0.635646 0.977040
vt 0.933935 0.977673
vt 0.933737 0.977496
vt 0.933084 0.975914
vt 0.988044 0.126175
vt 0.988037 0.127032
vt 0.982347 0.126577
vt 0.987933 0.391839
vt 0.987916 0.392728
vt 0.982379 0.392268
vt 0.512274 0.977170
vt 0.983252 0.803426
vt 0.982486 0.803427
vt 0.982211 0.803048
vt 0.982211 0.183071
vt 0.982526 0.182219
vt 0.988135 0.182424
vt 0.982810 0.802506
vt 0.983916 0.802696
vt 0.982911 0.463145
vt 0.987430 0.462222
vt 0.982569 0.151558
vt 0.988211 0.150733
vt 0.988167 0.151385
vt 0.988145 0.183071
vt 0.982211 0.150733
vt 0.510885 0.977677
vt 0.511335 0.977160
vt 0.511796 0.977968
vt 0.982984 0.798506
vt 0.982517 0.798014
vt 0.507356 0.981349
vt 0.982553 0.156347
vt 0.982211 0.155558
vt 0.988192 0.155558
vt 0.988122 0.156183
vt 0.983737 0.797948
vt 0.983779 0.798506
vt 0.635646 0.976986
vt 0.987977 0.079429
vt 0.987972 0.080260
vt 0.982357 0.079377
vt 0.987997 0.342710
vt 0.987988 0.343598
vt 0.982373 0.343105
vt 0.930484 0.873839
vt 0.915001 0.867318
vt 0.927704 0.857527
vt 0.004967 0.984883
vt 0.016937 0.973161
vt 0.021383 0.988665
vt 0.314597 0.977405
vt 0.309197 0.986048
vt 0.303769 0.977165
vt 0.333001 0.977373
vt 0.327207 0.985980
vt 0.322020 0.977032
vt 0.982211 0.781887
vt 0.982253 0.782102
vt 0.982492 0.781896
vt 0.988296 0.116541
vt 0.987876 0.117211
vt 0.982211 0.117049
vt 0.982355 0.780952
vt 0.983585 0.780968
vt 0.982435 0.781117
vt 0.987825 0.046757
vt 0.988329 0.047749
vt 0.982235 0.047553
vt 0.982230 0.116541
vt 0.988077 0.051749
vt 0.982422 0.052389
vt 0.987314 0.141037
vt 0.988220 0.141697
vt 0.982476 0.141908
vt 0.983746 0.776536
vt 0.983004 0.776536
vt 0.982211 0.878611
vt 0.982214 0.878560
vt 0.982387 0.878547
vt 0.982553 0.161137
vt 0.982211 0.160347
vt 0.988192 0.160347
vt 0.983178 0.878002
vt 0.988044 0.131115
vt 0.988037 0.131972
vt 0.982347 0.131517
vt 0.987933 0.401720
vt 0.987916 0.402608
vt 0.982379 0.402149
vt 0.983826 0.878388
vt 0.580102 0.976415
vt 0.988122 0.160973
vt 0.582780 0.982483
vt 0.984245 0.775958
vt 0.580008 0.977336
vt 0.987997 0.327887
vt 0.987988 0.328775
vt 0.982373 0.328282
vt 0.987977 0.068622
vt 0.987972 0.069453
vt 0.982357 0.068570
vt 0.057907 0.984883
vt 0.069877 0.973161
vt 0.074324 0.988665
vt 0.930484 0.899967
vt 0.915001 0.893445
vt 0.927704 0.883654
vt 0.413479 0.980181
vt 0.418907 0.971456
vt 0.424529 0.980203
vt 0.360202 0.982886
vt 0.360307 0.972531
vt 0.369439 0.977157
vt 0.928427 0.977673
vt 0.928230 0.977496
vt 0.927742 0.975794
vt 0.982211 0.213535
vt 0.982519 0.212683
vt 0.988128 0.212888
vt 0.983356 0.818425
vt 0.983887 0.818601
vt 0.983582 0.819335
vt 0.982569 0.146733
vt 0.982211 0.145908
vt 0.988204 0.146007
vt 0.988137 0.213535
vt 0.622950 0.977951
vt 0.983642 0.829899
vt 0.624114 0.977040
vt 0.983810 0.770072
vt 0.984362 0.770273
vt 0.983353 0.771005
vt 0.988097 0.062664
vt 0.988178 0.057279
vt 0.987933 0.406660
vt 0.987916 0.407548
vt 0.982379 0.407089
vt 0.988044 0.136055
vt 0.988037 0.136912
vt 0.982347 0.136457
vt 0.983030 0.770072
vt 0.982769 0.032992
vt 0.982211 0.032218
vt 0.988256 0.032218
vt 0.917339 0.977577
vt 0.916644 0.977574
vt 0.988353 0.032830
vt 0.916490 0.971615
vt 0.982704 0.219198
vt 0.982672 0.219174
vt 0.987997 0.332828
vt 0.987988 0.333716
vt 0.982373 0.333223
vt 0.987977 0.074026
vt 0.987972 0.074857
vt 0.982358 0.073973
vt 0.649183 0.971549
vt 0.646258 0.982102
vt 0.643345 0.971555
vt 0.666336 0.981900
vt 0.663423 0.971548
vt 0.669261 0.971570
vt 0.742580 0.971546
vt 0.739472 0.981359
vt 0.736374 0.971555
vt 0.767504 0.981170
vt 0.764405 0.971544
vt 0.770612 0.971565
vt 0.659222 0.971549
vt 0.656297 0.982102
vt 0.653384 0.971555
vt 0.676376 0.981901
vt 0.673463 0.971548
vt 0.679301 0.971570
vt 0.729060 0.971550
vt 0.732159 0.981354
vt 0.725953 0.981363
vt 0.774818 0.981160
vt 0.777926 0.971555
vt 0.781025 0.981180
vt 0.085796 0.971565
vt 0.083621 0.993658
vt 0.081471 0.971562
vt 0.092053 0.993242
vt 0.089903 0.971570
vt 0.094229 0.971595
vt 0.481870 0.971508
vt 0.484096 0.983314
vt 0.479535 0.983222
vt 0.498131 0.982986
vt 0.500467 0.971510
vt 0.502694 0.983090
vt 0.939055 0.727859
vt 0.914124 0.728216
vt 0.914062 0.727596
vt 0.909523 0.903090
vt 0.909853 0.927940
vt 0.909234 0.928002
vt 0.939068 0.737639
vt 0.914093 0.737400
vt 0.939043 0.737090
vt 0.909784 0.873854
vt 0.909544 0.898829
vt 0.909164 0.873916
vt 0.914004 0.800941
vt 0.938583 0.800660
vt 0.938571 0.801339
vt 0.913994 0.825128
vt 0.938123 0.825387
vt 0.913994 0.825677
vt 0.519557 0.663637
vt 0.523731 0.663708
vt 0.521628 0.769089
vt 0.510496 0.546810
vt 0.514651 0.546803
vt 0.512551 0.652140
vt 0.527873 0.663637
vt 0.532047 0.663708
vt 0.529944 0.769089
vt 0.563351 0.598414
vt 0.567508 0.598407
vt 0.565405 0.703744
vt 0.510515 0.656375
vt 0.514689 0.656446
vt 0.512585 0.761827
vt 0.354360 0.607543
vt 0.358514 0.607536
vt 0.356414 0.712873
vt 0.412332 0.656573
vt 0.416506 0.656644
vt 0.414402 0.762026
vt 0.345830 0.610323
vt 0.349988 0.610317
vt 0.347884 0.715654
vt 0.806093 0.413855
vt 0.708114 0.715543
vt 0.610121 0.413873
vt 0.128785 0.715549
vt 0.226770 0.413860
vt 0.324759 0.715530
vt 0.864695 0.388401
vt 0.819521 0.294992
vt 0.909799 0.294930
vt 0.174099 0.719866
vt 0.219242 0.813192
vt 0.128965 0.813254
vt 0.141707 0.967326
vt 0.096533 0.873916
vt 0.186811 0.873854
vt 0.864724 0.002164
vt 0.909867 0.095491
vt 0.819590 0.095553
vt 0.864695 0.486021
vt 0.819521 0.392612
vt 0.909799 0.392550
vt 0.750039 0.719869
vt 0.795181 0.813195
vt 0.704904 0.813257
vt 0.446296 0.776330
vt 0.491439 0.869656
vt 0.401162 0.869718
vt 0.864695 0.290780
vt 0.819521 0.197371
vt 0.909799 0.197309
vt 0.819590 0.193173
vt 0.864660 0.099720
vt 0.909799 0.193147
vt 0.700642 0.719903
vt 0.655444 0.813226
vt 0.610235 0.719835
vt 0.313902 0.719900
vt 0.268703 0.813223
vt 0.223495 0.719832
vt 0.002196 0.967339
vt 0.047266 0.873885
vt 0.092404 0.967313
vt 0.511568 0.977170
vt 0.511768 0.977290
vt 0.634553 0.977336
vt 0.983778 0.780982
vt 0.983849 0.781083
vt 0.983819 0.781041
vt 0.984005 0.781116
vt 0.983666 0.781122
vt 0.982458 0.219413
vt 0.982327 0.219108
vt 0.982292 0.219121
vt 0.982553 0.219001
vt 0.983586 0.797358
vt 0.439394 0.873786
vt 0.439595 0.873814
vt 0.439472 0.964935
vt 0.982895 0.835022
vt 0.983372 0.835802
vt 0.983190 0.835874
vt 0.523375 0.977695
vt 0.966548 0.977638
vt 0.634171 0.977146
vt 0.993154 0.028666
vt 0.992486 0.027934
vt 0.992644 0.027837
vt 0.982924 0.411568
vt 0.982362 0.857339
vt 0.983357 0.857355
vt 0.983190 0.857722
vt 0.983829 0.828799
vt 0.622639 0.977146
vt 0.631709 0.982219
vt 0.620178 0.982219
vt 0.451997 0.873786
vt 0.452197 0.873814
vt 0.452075 0.964935
vt 0.456197 0.873786
vt 0.456398 0.873814
vt 0.456271 0.965071
vt 0.464599 0.873786
vt 0.464799 0.873814
vt 0.464673 0.965071
vt 0.912490 0.977799
vt 0.906997 0.977799
vt 0.922252 0.971407
vt 0.982211 0.224357
vt 0.982423 0.456258
vt 0.982924 0.417441
vt 0.988296 0.058097
vt 0.570034 0.976981
vt 0.983175 0.424356
vt 0.982955 0.803691
vt 0.581454 0.976981
vt 0.571388 0.971476
vt 0.506795 0.980684
vt 0.582808 0.971476
vt 0.550444 0.416593
vt 0.530529 0.538265
vt 0.506011 0.417064
vt 0.451691 0.536646
vt 0.474332 0.417877
vt 0.496619 0.537988
vt 0.982237 0.424680
vt 0.982410 0.423509
vt 0.982211 0.424009
vt 0.982424 0.964846
vt 0.983655 0.936105
vt 0.933963 0.977276
vt 0.983838 0.802906
vt 0.983818 0.798473
vt 0.984248 0.775907
vt 0.928456 0.977276
vt 0.983872 0.818552
vt 0.984284 0.770488
vt 0.988065 0.062662
vt 0.988287 0.062837
vt 0.917415 0.971905
s 1
usemtl parking_002_baked
f 120/1/1 132/2/1 133/3/1
f 136/4/2 139/5/2 142/6/2
f 174/7/3 177/8/3 179/9/3
f 185/10/4 188/11/4 191/12/4
f 214/13/5 216/14/5 218/15/5
f 224/16/6 240/17/6 241/18/6
f 260/19/7 252/20/7 259/21/7
f 282/22/8 284/23/8 279/24/8
f 206/25/9 210/26/10 218/27/11
f 403/28/12 402/29/12 401/30/12
f 344/31/12 345/32/12 346/33/12
f 406/34/12 404/35/12 405/36/12
f 125/37/13 123/38/14 126/39/15
f 114/40/16 134/41/17 115/42/18
f 129/43/19 146/44/19 145/45/19
f 139/5/20 147/46/20 140/47/20
f 176/48/21 160/49/21 159/50/21
f 158/51/22 185/10/23 192/52/24
f 190/53/25 166/54/26 165/55/27
f 170/56/28 172/57/28 184/58/28
f 204/59/29 216/14/30 205/60/31
f 237/61/32 232/62/32 230/63/32
f 213/64/33 229/65/33 214/66/33
f 262/67/34 287/68/34 263/69/34
f 264/70/35 252/20/36 260/19/37
f 258/71/38 275/72/38 274/73/38
f 282/74/39 268/75/39 283/76/39
f 338/77/40 339/78/41 340/79/42
f 352/80/43 351/81/44 350/82/45
f 376/83/46 374/84/47 375/85/48
f 136/4/49 111/86/49 137/87/49
f 128/88/50 124/89/51 120/1/52
f 129/43/53 143/90/54 130/91/55
f 144/92/56 143/93/57 147/46/58
f 176/94/59 157/95/60 177/8/61
f 168/96/62 189/97/62 188/11/62
f 186/98/63 172/99/64 187/100/65
f 236/101/66 226/102/66 224/16/66
f 237/61/67 229/103/67 238/104/67
f 261/105/68 286/106/68 285/107/68
f 271/108/69 257/109/69 256/110/69
f 253/111/70 277/112/71 254/113/72
f 108/114/73 136/4/73 135/115/73
f 119/116/74 134/117/75 120/118/76
f 121/119/77 128/88/77 127/120/77
f 138/121/78 145/122/78 139/123/78
f 191/124/79 159/125/79 192/126/79
f 179/127/80 166/128/80 180/129/80
f 168/130/81 169/131/82 167/132/83
f 183/133/84 186/98/84 185/10/84
f 207/134/73 218/27/73 217/135/73
f 223/136/85 227/137/86 224/138/87
f 225/139/88 236/101/89 235/140/90
f 214/141/91 231/142/91 215/143/91
f 259/144/92 263/69/92 260/145/92
f 283/146/93 276/147/93 284/148/93
f 271/149/94 272/150/95 270/151/96
f 255/152/97 288/153/98 289/154/99
f 278/155/100 253/111/100 252/20/100
f 341/156/12 343/157/12 342/158/12
f 344/159/12 346/160/12 345/161/12
f 355/162/12 354/163/12 353/164/12
f 356/165/12 358/166/12 357/167/12
f 363/168/12 364/169/12 362/170/12
f 365/171/12 367/172/12 366/173/12
f 368/174/12 370/175/12 369/176/12
f 377/177/12 379/178/12 378/179/12
f 382/180/12 381/181/12 380/182/12
f 387/183/12 388/184/12 386/185/12
f 394/186/12 392/187/12 393/188/12
f 398/189/12 400/190/12 399/191/12
f 406/192/12 405/193/12 404/194/12
f 120/195/101 114/196/16 115/197/18
f 143/93/102 138/198/102 137/87/102
f 157/199/103 191/12/103 190/53/103
f 178/200/104 169/201/82 179/9/105
f 224/202/106 204/203/29 205/204/31
f 211/205/107 227/206/86 223/207/85
f 215/208/108 234/209/108 216/210/108
f 261/211/109 259/21/109 258/71/109
f 284/212/110 273/213/110 285/214/110
f 280/215/111 288/216/98 255/217/97
f 131/218/112 143/219/57 144/220/56
f 178/200/113 157/95/114 158/221/115
f 231/142/116 230/222/117 232/223/118
f 239/224/119 228/225/119 242/226/119
f 276/147/120 274/227/121 275/228/122
f 269/229/123 255/230/124 268/231/125
f 341/232/12 342/233/12 343/234/12
f 355/235/12 353/236/12 354/237/12
f 356/238/12 357/239/12 358/240/12
f 363/241/12 362/242/12 364/243/12
f 365/244/12 366/245/12 367/246/12
f 368/247/12 369/248/12 370/249/12
f 377/250/12 378/251/12 379/252/12
f 382/253/12 380/254/12 381/255/12
f 387/256/12 386/257/12 388/258/12
f 390/259/126 389/260/127 391/261/128
f 394/262/12 393/263/12 392/264/12
f 398/265/12 399/266/12 400/267/12
f 403/268/12 401/269/12 402/270/12
f 131/271/129 109/272/129 132/2/129
f 140/273/130 122/274/130 141/275/130
f 173/276/91 182/277/91 174/278/91
f 239/279/129 208/280/129 240/17/129
f 212/281/131 225/282/131 213/283/131
f 281/284/132 277/285/132 282/286/132
f 112/287/133 133/3/133 132/2/133
f 125/37/134 142/6/134 141/288/134
f 193/289/135 175/290/135 174/7/135
f 209/291/136 241/18/136 240/17/136
f 211/205/137 225/292/138 212/293/139
f 263/294/140 261/295/141 262/296/142
f 280/215/143 277/297/144 281/298/145
f 11/299/146 9/300/147 10/301/148
f 10/302/148 9/303/147 11/304/146
f 13/305/149 12/306/149 14/307/12
f 12/308/149 13/309/149 14/310/12
f 15/311/149 17/312/149 16/313/12
f 17/314/149 15/315/149 16/316/12
f 18/317/150 19/318/151 20/319/152
f 19/320/151 18/321/150 20/322/152
f 23/323/153 22/324/153 21/325/154
f 21/326/154 22/327/153 23/328/153
f 25/329/155 24/330/155 26/331/156
f 26/332/156 24/333/155 25/334/155
f 29/335/157 28/336/157 27/337/158
f 27/338/158 28/339/157 29/340/157
f 31/341/12 30/342/12 32/343/12
f 32/344/12 30/345/12 31/346/12
f 35/347/159 34/348/159 33/349/159
f 33/350/159 34/351/159 35/352/159
f 36/353/12 37/354/12 38/355/12
f 36/356/12 38/357/12 37/358/12
f 41/359/12 39/360/12 40/361/12
f 41/362/12 40/363/12 39/364/12
f 42/365/12 44/366/12 43/367/12
f 43/368/12 44/369/12 42/370/12
f 45/371/12 46/372/12 47/373/12
f 45/374/12 47/375/12 46/376/12
f 50/377/12 49/378/12 48/379/12
f 50/380/12 48/381/12 49/382/12
f 53/383/160 52/384/160 51/385/160
f 52/386/160 53/387/160 51/388/160
f 56/389/161 54/390/161 55/391/161
f 54/392/161 56/393/161 55/394/161
f 57/395/12 58/396/12 59/397/12
f 57/398/12 59/399/12 58/400/12
f 61/401/162 60/402/163 62/403/164
f 60/404/163 61/405/162 62/406/164
f 64/407/12 63/408/12 65/409/12
f 63/410/12 64/411/12 65/412/12
f 66/413/12 68/414/12 67/415/12
f 68/416/12 66/417/12 67/418/12
f 70/419/165 71/420/166 69/421/166
f 69/422/166 71/423/166 70/424/165
f 77/425/167 75/426/168 76/427/12
f 76/428/12 75/429/168 77/430/167
f 78/431/161 80/432/161 79/433/161
f 80/434/161 78/435/161 79/436/161
f 83/437/169 82/438/169 81/439/169
f 82/440/169 83/441/169 81/442/169
f 86/443/169 85/444/169 84/445/169
f 85/446/169 86/447/169 84/448/169
f 87/449/12 89/450/12 88/451/12
f 87/452/12 88/453/12 89/454/12
f 92/455/12 90/456/12 91/457/12
f 90/458/12 92/459/12 91/460/12
f 94/461/161 93/462/161 95/463/161
f 93/464/161 94/465/161 95/466/161
f 96/467/169 98/468/169 97/469/169
f 98/470/169 96/471/169 97/472/169
f 101/473/12 100/474/12 99/475/12
f 99/476/12 100/477/12 101/478/12
f 104/479/149 102/480/149 103/481/149
f 103/482/149 102/483/149 104/484/149
f 105/485/170 107/486/170 106/487/170
f 106/488/170 107/489/170 105/490/170
f 114/491/171 109/492/172 108/493/173
f 108/494/174 113/495/175 110/496/176
f 108/494/177 132/497/177 113/495/177
f 114/491/171 131/498/178 109/492/172
f 114/491/171 108/493/173 135/499/179
f 136/4/180 108/114/174 110/500/176
f 115/42/181 136/4/181 111/86/181
f 115/42/182 111/86/183 110/500/176
f 133/501/184 110/502/176 112/503/185
f 133/501/184 115/504/182 110/502/176
f 133/505/186 132/506/186 131/498/186
f 117/507/187 116/508/188 118/509/189
f 116/510/188 117/511/187 118/512/189
f 120/513/190 121/514/191 127/515/192
f 120/513/190 122/516/193 121/514/191
f 119/517/194 124/89/195 123/518/14
f 119/517/196 128/88/196 124/89/196
f 120/513/190 140/519/197 122/516/193
f 121/520/198 126/521/15 123/522/14
f 121/520/199 141/523/199 126/521/199
f 128/88/200 121/119/198 123/524/14
f 142/6/201 123/38/14 125/37/13
f 142/6/201 119/525/194 123/38/14
f 146/526/202 130/527/202 144/528/202
f 129/43/53 145/45/203 143/90/54
f 144/528/204 139/123/205 145/122/206
f 145/529/203 138/198/207 143/93/54
f 147/46/208 143/93/208 137/87/208
f 144/528/204 145/122/206 146/526/209
f 148/530/210 150/531/211 149/532/212
f 150/533/211 148/534/210 149/535/212
f 151/536/213 153/537/214 152/538/215
f 152/539/215 153/540/214 151/541/213
f 156/542/216 154/543/217 155/544/218
f 155/545/218 154/546/217 156/547/216
f 158/548/22 159/125/219 160/549/220
f 158/548/22 192/126/24 159/125/219
f 160/549/221 177/550/221 158/548/221
f 176/94/59 159/551/222 157/95/60
f 159/552/222 191/12/223 157/199/60
f 190/553/224 192/554/224 157/555/224
f 161/556/225 163/557/226 162/558/227
f 163/559/226 161/560/225 162/561/227
f 164/562/228 169/201/82 178/200/104
f 170/563/229 171/564/230 180/565/231
f 189/566/232 165/567/27 169/568/82
f 166/569/233 188/570/234 170/563/229
f 165/571/27 166/128/26 169/572/82
f 164/573/228 167/574/83 169/575/82
f 189/566/232 169/568/82 168/576/81
f 164/573/235 188/577/235 167/574/235
f 170/563/229 180/565/231 166/569/233
f 166/578/26 179/9/236 169/201/82
f 173/579/237 171/580/237 175/290/237
f 184/581/238 172/582/239 173/276/240
f 175/290/241 172/583/64 193/289/242
f 184/581/238 173/276/240 182/277/243
f 181/584/244 174/585/244 194/586/244
f 181/584/245 194/586/246 172/587/64
f 184/581/238 182/277/243 183/588/243
f 183/588/247 187/589/247 184/581/247
f 186/98/63 181/590/245 172/99/64
f 197/591/248 195/592/249 196/593/250
f 195/594/249 197/595/248 196/596/250
f 199/597/12 200/598/12 198/599/12
f 198/600/12 200/601/12 199/602/12
f 201/603/251 203/604/252 202/605/253
f 202/606/253 203/607/252 201/608/251
f 241/609/186 240/610/186 239/611/186
f 241/612/254 205/613/255 219/614/256
f 204/59/257 207/615/258 217/616/259
f 218/27/11 207/134/260 206/25/9
f 204/59/257 208/617/261 207/615/258
f 207/618/260 240/619/262 206/620/9
f 204/59/257 239/611/263 208/617/261
f 241/612/254 219/614/256 209/621/264
f 205/622/255 218/27/265 219/623/256
f 216/210/266 229/624/267 233/625/268
f 215/208/269 214/626/269 229/624/269
f 242/627/270 228/628/271 214/141/272
f 211/629/273 212/630/273 213/631/273
f 242/627/270 214/141/272 231/142/243
f 211/205/137 223/207/274 225/292/138
f 230/632/275 215/633/276 234/634/277
f 224/138/278 213/631/279 225/635/280
f 220/636/149 222/637/149 221/638/149
f 222/639/149 220/640/149 221/641/149
f 224/138/278 225/635/280 235/642/281
f 223/643/274 226/102/282 225/139/138
f 223/643/283 236/101/283 226/102/283
f 242/627/270 231/142/243 232/223/243
f 230/632/275 234/634/277 233/644/268
f 237/61/284 230/63/275 233/645/268
f 232/223/285 238/646/285 242/627/285
f 237/61/284 233/645/268 229/103/267
f 228/647/286 238/104/287 229/103/288
f 244/648/12 243/649/12 245/650/12
f 243/651/12 244/652/12 245/653/12
f 246/654/169 247/655/169 248/656/169
f 248/657/169 247/658/169 246/659/169
f 250/660/149 251/661/149 249/662/149
f 249/663/149 251/664/149 250/665/149
f 258/666/289 260/667/289 261/668/289
f 257/669/290 274/670/291 272/671/95
f 278/672/247 254/673/247 289/674/247
f 268/675/292 256/676/293 270/677/294
f 257/669/290 272/671/95 271/678/94
f 255/679/295 254/113/296 277/112/144
f 264/680/35 260/145/37 263/69/297
f 263/681/140 259/21/298 261/211/141
f 275/682/299 256/683/299 269/684/299
f 262/296/300 261/295/300 285/685/300
f 264/686/301 286/106/302 261/105/303
f 264/680/35 263/69/297 287/68/304
f 265/687/170 266/688/170 267/689/170
f 266/690/170 265/691/170 267/692/170
f 269/684/305 276/693/306 275/682/307
f 269/684/305 283/76/308 276/693/306
f 274/694/291 284/695/309 273/696/310
f 285/214/311 270/697/96 272/698/95
f 274/694/291 273/696/310 272/699/95
f 284/212/312 283/700/312 270/697/312
f 289/674/313 277/285/314 278/672/315
f 289/674/313 282/286/316 277/285/314
f 280/701/317 281/702/317 282/22/317
f 280/215/143 255/217/295 277/297/144
f 292/703/318 290/704/319 291/705/320
f 290/706/319 292/707/318 291/708/320
f 295/709/169 293/710/169 294/711/169
f 293/712/169 295/713/169 294/714/169
f 297/715/321 296/716/322 298/717/323
f 296/718/322 297/719/321 298/720/323
f 301/721/324 299/722/324 300/723/324
f 299/724/324 301/725/324 300/726/324
f 302/727/325 303/728/326 304/729/327
f 303/730/326 302/731/325 304/732/327
f 305/733/328 307/734/329 306/735/328
f 307/736/329 305/737/328 306/738/328
f 308/739/330 309/740/330 310/741/330
f 309/742/330 308/743/330 310/744/330
f 313/745/12 312/746/12 311/747/12
f 313/748/12 311/749/12 312/750/12
f 316/751/12 315/752/12 314/753/12
f 314/754/12 315/755/12 316/756/12
f 317/757/159 319/758/159 318/759/159
f 319/760/159 317/761/159 318/762/159
f 320/763/12 321/764/12 322/765/12
f 321/766/12 320/767/12 322/768/12
f 325/769/331 324/770/331 323/771/332
f 324/772/331 325/773/331 323/774/332
f 326/775/159 328/776/159 327/777/159
f 328/778/159 326/779/159 327/780/159
f 331/781/12 329/782/12 330/783/12
f 329/784/12 331/785/12 330/786/12
f 333/787/12 332/788/12 334/789/12
f 334/790/12 332/791/12 333/792/12
f 335/793/12 337/794/12 336/795/12
f 335/796/12 336/797/12 337/798/12
f 347/799/12 348/800/12 349/801/12
f 347/802/12 349/803/12 348/804/12
f 359/805/12 361/806/12 360/807/12
f 359/808/12 360/809/12 361/810/12
f 371/811/12 372/812/12 373/813/12
f 371/814/12 373/815/12 372/816/12
f 385/817/12 383/818/12 384/819/12
f 384/820/12 383/821/12 385/822/12
f 397/823/333 395/824/334 396/825/335
f 396/826/335 395/827/334 397/828/333
f 127/120/336 128/88/336 120/1/336
f 120/1/337 129/43/338 130/91/339
f 120/1/340 130/91/340 131/271/340
f 120/1/341 131/271/341 132/2/341
f 142/6/342 134/41/342 135/115/342
f 136/4/343 137/87/343 138/198/343
f 142/6/344 135/115/344 136/4/344
f 140/47/345 141/288/345 142/6/345
f 136/4/346 138/198/346 139/5/346
f 139/5/347 140/47/347 142/6/347
f 180/829/348 171/830/348 173/579/348
f 174/7/349 175/290/349 177/8/349
f 175/290/350 176/94/350 177/8/350
f 179/9/351 180/829/351 173/579/351
f 179/9/352 173/579/352 174/7/352
f 177/8/353 178/200/353 179/9/353
f 185/10/354 186/98/354 187/100/354
f 187/100/355 170/831/355 188/11/355
f 189/97/356 190/53/356 191/12/356
f 185/10/357 187/100/357 188/11/357
f 188/11/358 189/97/358 191/12/358
f 192/52/359 185/10/359 191/12/359
f 210/832/360 211/833/360 212/834/360
f 214/13/361 215/835/361 216/14/361
f 216/14/362 217/616/362 218/15/362
f 218/15/363 210/832/363 214/13/363
f 210/832/364 212/834/364 214/13/364
f 212/834/365 213/836/365 214/13/365
f 235/140/366 236/101/366 224/16/366
f 224/16/367 237/61/367 238/104/367
f 224/16/368 238/104/368 239/279/368
f 224/16/369 239/279/369 240/17/369
f 252/20/370 253/111/370 254/113/370
f 254/113/371 255/230/371 256/110/371
f 257/109/372 258/71/372 252/20/372
f 258/71/373 259/21/373 252/20/373
f 252/20/357 254/113/357 256/110/357
f 256/110/374 257/109/374 252/20/374
f 280/701/375 281/702/375 279/24/375
f 281/702/376 282/22/376 279/24/376
f 282/22/377 283/837/377 284/23/377
f 284/23/378 285/838/378 286/839/378
f 286/839/379 287/840/379 279/24/379
f 284/23/380 286/839/380 279/24/380
f 181/841/117 183/588/118 182/277/116
f 206/25/381 219/623/256 210/26/382
f 391/842/128 389/843/127 390/844/126
f 110/845/176 113/846/175 112/847/185
f 114/40/383 135/115/383 134/41/383
f 129/43/384 120/1/384 146/44/384
f 139/5/205 144/848/204 147/46/385
f 176/48/386 175/849/386 160/49/386
f 158/51/115 157/850/114 185/10/387
f 190/53/388 189/97/388 166/54/388
f 172/851/64 194/852/246 193/853/242
f 170/56/389 187/854/389 172/57/389
f 219/855/256 206/856/381 209/857/264
f 204/59/390 217/616/390 216/14/390
f 237/61/391 224/16/391 232/62/391
f 213/64/392 228/225/286 229/65/288
f 262/67/393 279/858/393 287/68/393
f 264/70/301 261/859/303 252/20/394
f 258/71/395 257/109/395 275/72/395
f 282/74/396 269/684/123 268/75/125
f 136/4/180 110/500/176 111/86/397
f 128/88/200 123/524/14 124/89/398
f 168/96/399 167/860/399 189/97/399
f 236/101/89 225/139/88 226/102/400
f 271/108/401 270/861/401 257/109/401
f 183/133/402 181/590/402 186/98/402
f 214/141/403 230/222/117 231/142/116
f 283/146/404 274/227/121 276/147/120
f 278/155/405 277/112/71 253/111/70
f 340/862/42 339/863/41 338/864/40
f 350/865/45 351/866/44 352/867/43
f 375/868/48 374/869/47 376/870/46
f 120/195/406 133/871/406 114/196/406
f 224/202/407 241/872/407 204/203/407
f 211/205/408 210/873/408 227/206/408
f 215/208/409 233/625/409 234/209/409
f 284/212/410 272/698/410 273/213/410
f 280/215/411 279/874/411 288/216/411
f 131/218/412 130/875/412 143/219/412
f 178/200/413 177/8/413 157/95/413
f 239/224/414 238/876/414 228/225/414
f 264/686/415 287/877/415 286/106/415
f 269/229/416 256/110/416 255/230/416
f 131/271/417 108/878/173 109/272/172
f 140/273/418 121/879/191 122/274/193
f 164/880/419 171/564/420 170/563/421
f 173/276/403 181/841/117 182/277/116
f 239/279/417 207/881/258 208/280/261
f 112/287/422 113/882/422 133/3/422
f 125/37/423 126/39/423 142/6/423
f 193/289/424 194/883/424 175/290/424
f 209/291/425 206/884/425 241/18/425
f 74/885/426 73/886/427 72/887/428
f 72/888/428 73/889/427 74/890/426
f 115/42/429 135/115/429 136/4/429
f 131/498/178 114/491/171 133/505/430
f 119/517/431 127/120/431 128/88/431
f 140/273/432 120/891/432 142/892/432
f 120/891/433 134/893/433 142/892/433
f 146/526/434 129/894/434 130/527/434
f 137/87/435 138/198/435 139/5/435
f 139/5/436 147/46/436 137/87/436
f 160/549/437 176/895/437 177/550/437
f 191/896/438 192/554/438 190/553/438
f 178/200/439 179/9/439 180/829/439
f 180/829/440 164/562/440 178/200/440
f 166/569/441 189/897/441 188/570/441
f 172/583/442 175/290/442 171/580/442
f 175/290/443 174/7/443 173/579/443
f 183/588/444 186/898/444 187/589/444
f 239/611/263 204/59/257 241/609/445
f 205/622/446 217/135/446 218/27/446
f 229/624/447 216/210/447 215/208/447
f 213/631/279 224/138/278 227/137/448
f 227/137/449 211/629/449 213/631/449
f 223/643/450 235/140/450 236/101/450
f 232/223/451 237/899/451 238/646/451
f 259/900/452 260/667/452 258/666/452
f 278/672/451 253/901/451 254/673/451
f 275/682/453 257/902/453 256/683/453
f 285/685/454 286/903/454 287/904/454
f 287/904/455 262/296/455 285/685/455
f 270/697/456 285/214/456 284/212/456
f 283/700/457 268/905/292 270/697/294
f 282/22/316 289/154/313 288/153/243
f 288/153/458 280/701/458 282/22/458
l 1 2
l 5 6
l 3 4
l 6 8
l 5 7
