# Blender 4.5.0
# www.blender.org
mtllib parking_001.lod1.mtl
o parking_001
v -4.206717 3.221807 -4.782765
v -4.206717 2.480892 -4.782764
v -4.997040 3.221807 -4.782765
v -4.997040 2.480892 -4.782764
v -0.656701 1.082599 0.917677
v 0.449584 1.743382 1.312684
v 0.540821 1.225943 0.978161
v -0.409567 1.743382 1.312684
v -0.500804 1.225943 0.978161
v -0.500804 1.243565 3.921247
v 0.540821 1.243565 3.921247
v 0.449584 1.745785 3.571517
v -0.409567 1.745785 3.571517
v -0.655267 1.149248 3.676356
v -0.540221 1.754996 3.496289
v -0.655267 1.149248 1.235456
v -0.540221 1.754996 1.405518
v 0.580237 1.754996 1.405518
v 0.580237 1.754996 3.496289
v 0.695284 1.149248 3.676356
v 0.695284 1.149248 1.235456
v 5.300000 0.085762 -5.398934
v 5.299367 0.000640 -5.399977
v -5.299367 0.085123 -5.399977
v 5.299367 0.085123 5.399977
v -5.300000 0.085763 5.398934
v -5.300000 -0.000000 -5.398934
v -5.299367 0.000640 5.399977
v 5.300000 0.000000 5.398934
v -5.269456 0.245210 -5.400000
v -5.134211 0.245897 -5.398962
v -5.269455 0.090862 5.400000
v -5.270036 0.090174 -5.398962
v -5.134792 0.090861 -5.400000
v -5.270036 0.245898 5.398962
v -5.134792 0.245211 5.400000
v -5.134211 0.090175 5.398962
v 5.134792 0.245210 -5.400000
v 5.269455 0.090861 -5.400000
v 5.134792 0.090862 5.400000
v 5.269456 0.245211 5.400000
v 5.134211 0.245898 5.398962
v 5.270036 0.245897 -5.398962
v 5.270036 0.090175 5.398962
v 5.134211 0.090174 -5.398962
v 5.199341 0.090844 5.233873
v 5.199341 0.245229 5.370039
v -5.199341 0.090844 5.370039
v 5.199950 0.090189 5.369044
v -5.199341 0.245229 5.233873
v -5.199950 0.090189 5.234868
v 5.199950 0.245883 5.234868
v -5.199950 0.245883 5.369044
v -3.758545 0.094309 0.077039
v -3.844559 0.093580 0.077039
v -3.758545 0.093581 5.024844
v -3.844559 0.094309 5.024844
v -1.293517 0.093580 0.077039
v -1.207504 0.093581 5.024844
v -1.293517 0.094309 5.024844
v -1.207504 0.094309 0.077039
v 1.257524 0.093580 0.077039
v 1.343538 0.094309 0.077039
v 1.257524 0.094309 5.024844
v 1.343538 0.093581 5.024844
v 3.808566 0.094309 5.024844
v 3.808566 0.093580 0.077039
v 3.894579 0.093581 5.024844
v 3.894579 0.094309 0.077039
v -3.292542 0.217021 4.622644
v -1.748699 0.217036 4.623082
v -3.293359 0.099012 4.623082
v -1.749517 0.217021 4.780826
v -3.293360 0.217036 4.780387
v -1.749517 0.099027 4.622644
v -1.748699 0.099013 4.780387
v -3.292542 0.099027 4.780826
v -2.868078 0.177290 0.341282
v -2.173981 0.098708 0.341282
v -2.173981 0.177290 0.659087
v -2.868078 0.098708 0.659088
v -2.869346 0.098703 0.342575
v -2.172712 0.177295 0.342575
v -2.172712 0.098703 0.657794
v -2.869346 0.177295 0.657794
v 0.792338 0.217036 4.623082
v 0.791521 0.217021 4.780826
v -0.751504 0.217021 4.622644
v -0.752322 0.217036 4.780387
v 0.791520 0.099027 4.622644
v 0.792339 0.099013 4.780387
v -0.752322 0.099012 4.623082
v -0.751504 0.099027 4.780826
v -0.328309 0.177295 0.657794
v -0.327040 0.177290 0.341282
v -0.327040 0.098708 0.659088
v 0.367057 0.177290 0.659088
v 0.368325 0.177295 0.342575
v 0.368325 0.098703 0.657794
v 0.367057 0.098708 0.341282
v -0.328309 0.098703 0.342575
v 1.799537 0.099027 4.780826
v 3.342562 0.217021 4.780826
v 3.343380 0.099012 4.780387
v 1.799537 0.217021 4.622644
v 1.798719 0.099012 4.623082
v 3.342562 0.099027 4.622644
v 3.343380 0.217036 4.623082
v 1.798719 0.217036 4.780387
v 2.918098 0.098708 0.341282
v 2.224001 0.098708 0.659088
v 2.222732 0.098703 0.342575
v 2.919367 0.098703 0.657794
v 2.919367 0.177295 0.342575
v 2.222732 0.177295 0.657794
v 2.918098 0.177290 0.659087
v 2.224001 0.177290 0.341282
v -4.875333 1.786078 -3.475106
v -4.228383 0.091898 -3.475106
v -4.875521 0.090973 -3.474406
v -4.228383 1.786078 -2.927257
v -4.875522 1.787003 -2.927957
v -4.875333 0.091898 -2.927256
v -4.228195 0.090973 -2.927956
v -4.228194 1.787003 -3.474406
v -4.772419 1.450262 -3.492476
v -4.331296 1.450262 -3.490100
v -4.772419 0.798172 -3.490100
v -4.331296 0.798172 -3.492476
v -4.625453 0.086276 -4.640569
v -4.664886 0.089982 -4.724385
v -4.602316 0.090560 -4.764666
v -4.575293 3.203444 -4.761653
v -4.539514 3.200531 -4.700665
v -4.579114 3.203530 -4.640305
v -4.542343 0.086190 -4.729077
v -4.662449 3.199739 -4.730269
v -4.646688 3.199160 -4.657545
v -4.557024 0.089188 -4.658395
v -5.024656 3.249520 -4.776001
v -4.178590 3.249999 -4.775885
v -5.024656 2.453180 -4.627469
v -5.025167 3.250000 -4.627586
v -5.025167 2.452701 -4.775884
v -4.179101 3.249520 -4.627469
v -4.178591 2.452701 -4.627585
v -4.179101 2.453180 -4.776001
v -2.520838 0.086852 -4.750276
v -2.463240 0.089188 -4.765507
v -2.460050 0.084553 -4.843680
v -2.501685 0.802198 -4.743168
v -2.478620 0.799900 -4.852197
v -2.551934 0.796653 -4.825841
v -2.554043 0.090098 -4.820750
v -2.448661 0.797563 -4.800700
v 2.447999 0.090098 -4.820750
v 2.538802 0.089188 -4.765507
v 2.523422 0.799900 -4.852197
v 2.450108 0.796653 -4.825841
v 2.553381 0.797563 -4.800700
v 2.500357 0.802198 -4.743168
v 2.541992 0.084553 -4.843680
v 2.481204 0.086852 -4.750276
v -0.569290 0.577653 0.978301
v -0.570094 0.379150 0.979444
v 0.609307 0.577653 3.823471
v -0.570094 0.577689 3.822328
v 0.610111 0.577689 0.979444
v 0.609307 0.379186 0.978301
v 0.610111 0.379150 3.822328
v -0.569290 0.379187 3.823471
v -0.619133 0.663758 0.706161
v -0.554762 0.663271 4.094802
v 0.577971 0.981609 4.095783
v -0.620032 0.519112 0.956116
v -0.521085 0.589555 0.708438
v 0.658196 0.519405 0.950809
v 0.560498 0.589028 0.707276
v 0.659876 0.914902 0.707329
v 0.660562 0.661479 0.707472
v 0.559291 0.988307 0.706667
v 0.759405 1.010341 0.956079
v -0.720126 1.010747 0.955365
v -0.578901 0.964185 0.700158
v 0.760138 0.626941 0.955361
v 0.658554 0.519345 3.896130
v 0.758441 1.010892 3.897557
v 0.659357 1.117594 3.895961
v 0.660076 1.118580 0.955777
v -0.618211 1.118143 0.952552
v -0.719377 0.627161 0.956328
v -0.619318 0.520109 3.895996
v 0.589109 0.675693 4.098800
v 0.759234 0.626851 3.894852
v -0.618538 1.118335 3.896130
v -0.719219 1.010852 3.894835
v -0.553831 0.961724 4.099877
v -0.718441 0.626795 3.897531
v 0.683884 1.110572 0.925618
v 0.684433 1.060394 0.924543
v -0.644283 1.129906 3.976262
v 0.468403 1.089650 1.365271
v 0.569414 1.219227 1.365342
v -0.431623 1.808348 1.365718
v -0.551067 1.051111 0.928984
v -0.428282 1.089563 3.516440
v 0.568962 1.217119 3.519552
v 0.469621 1.090270 3.517116
v 0.469919 1.807368 1.365634
v 0.569698 1.677745 1.363791
v -0.529388 1.219217 3.516461
v -0.529021 1.680715 1.367116
v -0.429591 1.090271 1.364754
v -0.528942 1.217072 1.362254
v 0.591497 1.050845 3.973850
v -0.644857 1.063462 3.975673
v 0.569009 1.680809 3.514534
v 0.681651 1.149187 3.975035
v 0.686737 1.068719 3.974660
v 0.470434 1.808095 3.516960
v -0.431645 1.808077 3.516538
v -0.529154 1.679103 3.516075
v -0.636170 1.112310 2.449619
v -0.554810 1.814542 2.428285
v -0.533571 1.811003 2.473114
v -0.685086 1.120472 2.453387
v -0.733112 1.070518 1.526444
v -0.731486 1.027731 1.526444
v -0.731486 1.070518 1.384630
v -0.733112 1.027731 1.384630
v -0.731486 1.070518 3.475402
v -0.733112 1.070518 3.617215
v -0.731486 1.027731 3.617215
v -0.733112 1.027731 3.475402
v -0.717675 1.267569 1.218465
v -0.718571 1.267175 1.373589
v -0.717675 1.151075 1.372491
v -0.902987 1.151075 1.218465
v -0.902091 1.151470 1.373589
v -0.718571 1.151470 1.217367
v -0.902987 1.267569 1.372491
v -0.902091 1.267175 1.217367
v 0.676402 1.112348 2.453387
v 0.725319 1.120505 2.449619
v 0.574719 1.811188 2.428285
v 0.595956 1.814734 2.473115
v 0.771502 1.027731 1.384630
v 0.771502 1.070518 1.526443
v 0.773128 1.070518 1.384630
v 0.773128 1.027731 1.526443
v 0.773128 1.027731 3.617215
v 0.771502 1.070518 3.617215
v 0.771502 1.027731 3.475402
v 0.773128 1.070518 3.475402
v 0.758587 1.267175 1.217367
v 0.942107 1.151470 1.217367
v 0.942107 1.267175 1.373589
v 0.757691 1.151075 1.218465
v 0.757691 1.267569 1.372491
v 0.758587 1.151470 1.373589
v 0.943003 1.267569 1.218465
v 0.943003 1.151075 1.372491
v -0.789749 0.448966 1.693134
v -0.788651 0.653816 1.565823
v -0.789831 0.113060 1.499318
v -0.788199 0.707804 1.329674
v -0.788183 0.576731 1.124933
v -0.788507 0.337741 1.075100
v -0.795713 0.095623 1.308174
v -0.590733 0.090418 1.385587
v -0.592380 0.662190 1.554188
v -0.585967 0.139814 1.207939
v -0.789312 0.179152 1.165636
v -0.590815 0.326517 1.078092
v -0.591913 0.564538 1.117386
v -0.592365 0.704865 1.314914
v -0.592056 0.460482 1.691606
v -0.591253 0.279286 1.668600
v -0.584850 0.147517 1.568846
v -0.794597 0.226740 1.644559
v -0.805329 0.195772 1.329285
v -0.800489 0.574905 1.482726
v -0.804978 0.347527 1.180546
v -0.804944 0.498876 1.207762
v -0.805680 0.252761 1.533908
v -0.806467 0.500250 1.558342
v -0.810168 0.600898 1.385803
v -0.804190 0.574085 1.283023
v -0.805713 0.397454 1.585947
v -0.804221 0.409623 1.354357
v -0.805998 0.398321 1.368490
v -0.818726 0.553874 1.388030
v -0.796222 0.558719 1.359879
v -0.774256 0.557154 1.384193
v -0.771767 0.392610 1.384711
v -0.816564 0.398740 1.388673
v -0.817577 0.397764 1.381466
v -0.823626 0.400690 1.385785
v -0.818171 0.396295 1.386446
v -0.823753 0.392351 1.388020
v -0.797876 0.558686 1.407133
v -0.785008 0.404365 1.402087
v -0.777074 0.397569 1.381530
v -0.782771 0.390050 1.380356
v -0.778740 0.396478 1.386043
v -0.768406 0.396243 1.376838
v -0.771611 0.404409 1.383195
v -0.777420 0.273011 1.476129
v -0.795392 0.375506 1.388761
v -0.818474 0.439332 1.541909
v -0.776603 0.459243 1.535553
v -0.798243 0.419928 1.374234
v -0.796776 0.282478 1.496802
v -0.798580 0.254686 1.458655
v -0.802520 0.384468 1.365588
v -0.820393 0.270223 1.477342
v -0.801110 0.413365 1.366565
v -0.810034 0.277686 1.271497
v -0.787474 0.254330 1.304267
v -0.784800 0.382393 1.396535
v -0.818473 0.458329 1.231278
v -0.776601 0.438483 1.224727
v -0.798243 0.375383 1.378328
v -0.795393 0.419868 1.392660
v 0.625983 0.226740 1.644559
v 0.630831 0.448966 1.693134
v 0.631929 0.653816 1.565823
v 0.632397 0.576731 1.124933
v 0.632073 0.337741 1.075100
v 0.631268 0.179152 1.165636
v 0.630749 0.113060 1.499318
v 0.829847 0.090418 1.385587
v 0.834613 0.139814 1.207939
v 0.829765 0.326517 1.078092
v 0.828667 0.564538 1.117386
v 0.829327 0.279286 1.668600
v 0.835730 0.147517 1.568846
v 0.624867 0.095623 1.308174
v 0.632381 0.707804 1.329674
v 0.828215 0.704865 1.314914
v 0.828200 0.662190 1.554188
v 0.828524 0.460482 1.691606
v 0.840506 0.221736 1.482726
v 0.844961 0.297765 1.207762
v 0.850184 0.195743 1.385803
v 0.845730 0.399188 1.585947
v 0.844207 0.222556 1.283023
v 0.844994 0.449114 1.180546
v 0.845345 0.600870 1.329285
v 0.845696 0.543880 1.533908
v 0.846483 0.296391 1.558342
v 0.853695 0.396416 1.362809
v 0.848310 0.561609 1.363701
v 0.814942 0.395827 1.381452
v 0.810807 0.390886 1.385459
v 0.814166 0.402726 1.383423
v 0.812879 0.393898 1.385450
v 0.807021 0.397959 1.374668
v 0.811783 0.402633 1.384449
v 0.837827 0.400425 1.406419
v 0.836791 0.558686 1.407134
v 0.839275 0.375506 1.388761
v 0.836424 0.419928 1.374234
v 0.816193 0.439332 1.541909
v 0.858065 0.459242 1.535553
v 0.837909 0.410896 1.401905
v 0.836087 0.254686 1.458655
v 0.860465 0.272482 1.482110
v 0.860915 0.272051 1.474237
v 0.869778 0.400587 1.380497
v 0.845832 0.389670 1.371614
v 0.817211 0.277000 1.488219
v 0.859620 0.393932 1.383957
v 0.831201 0.407570 1.355735
v 0.824817 0.405797 1.364350
v 0.837893 0.254683 1.308444
v 0.847322 0.278524 1.270411
v 0.859742 0.393861 1.379277
v 0.859860 0.397899 1.384091
v 0.865390 0.401437 1.382985
v 0.862722 0.404612 1.381603
v 0.815942 0.275134 1.288501
v 0.839275 0.419868 1.392660
v 0.836425 0.375383 1.378328
v 0.816195 0.458329 1.231278
v 0.858066 0.438483 1.224727
v -0.794598 0.226739 3.679309
v -0.789749 0.448968 3.727884
v -0.788183 0.576731 3.159684
v -0.590814 0.326517 3.112843
v -0.590733 0.090418 3.420338
v -0.591913 0.564538 3.152137
v -0.592365 0.704865 3.349665
v -0.592380 0.662191 3.588938
v -0.592057 0.460481 3.726357
v -0.584850 0.147518 3.603598
v -0.795713 0.095623 3.342924
v -0.585967 0.139814 3.242689
v -0.789312 0.179153 3.200387
v -0.788508 0.337740 3.109851
v -0.788199 0.707804 3.364425
v -0.788651 0.653816 3.600574
v -0.591252 0.279285 3.703351
v -0.789831 0.113060 3.534069
v -0.800490 0.574905 3.517477
v -0.804978 0.347527 3.215297
v -0.810168 0.600898 3.420554
v -0.804190 0.574086 3.317773
v -0.804944 0.498876 3.242513
v -0.805329 0.195772 3.364036
v -0.805680 0.252761 3.568658
v -0.805713 0.397454 3.620698
v -0.806467 0.500250 3.593093
v -0.797037 0.400628 3.393652
v -0.774256 0.557154 3.418944
v -0.771766 0.392610 3.419462
v -0.797876 0.558686 3.441884
v -0.796068 0.558730 3.394702
v -0.820694 0.403152 3.420608
v -0.822454 0.403506 3.419308
v -0.813153 0.404253 3.434104
v -0.823944 0.399888 3.411537
v -0.826145 0.397153 3.425002
v -0.822286 0.394692 3.417048
v -0.818726 0.553874 3.422781
v -0.795393 0.375506 3.423512
v -0.798243 0.419928 3.408984
v -0.776603 0.459243 3.570304
v -0.818474 0.439333 3.576661
v -0.786160 0.405266 3.438401
v -0.777074 0.397569 3.416280
v -0.782771 0.390049 3.415106
v -0.778740 0.396478 3.420794
v -0.768293 0.396443 3.415376
v -0.771611 0.404409 3.417946
v -0.777420 0.273011 3.510879
v -0.798580 0.254686 3.493406
v -0.799001 0.370144 3.400026
v -0.809851 0.382393 3.405236
v -0.796776 0.282478 3.531553
v -0.806317 0.389159 3.430861
v -0.810033 0.277686 3.306247
v -0.787473 0.254331 3.339017
v -0.801108 0.413365 3.401315
v -0.784800 0.382393 3.431286
v -0.795392 0.419869 3.427411
v -0.798243 0.375383 3.413078
v -0.818473 0.458329 3.266029
v -0.776601 0.438482 3.259479
v 0.630749 0.113060 3.534069
v 0.632072 0.337740 3.109851
v 0.631268 0.179153 3.200387
v 0.624867 0.095623 3.342924
v 0.834613 0.139814 3.242690
v 0.829765 0.326517 3.112843
v 0.828215 0.704865 3.349664
v 0.828200 0.662191 3.588938
v 0.828523 0.460481 3.726357
v 0.829847 0.090418 3.420338
v 0.632397 0.576731 3.159684
v 0.828667 0.564538 3.152136
v 0.632381 0.707804 3.364425
v 0.631929 0.653816 3.600574
v 0.630831 0.448968 3.727884
v 0.829328 0.279285 3.703351
v 0.835730 0.147518 3.603598
v 0.625982 0.226739 3.679309
v 0.840506 0.221736 3.517477
v 0.844207 0.222556 3.317773
v 0.844961 0.297766 3.242513
v 0.850184 0.195743 3.420554
v 0.845696 0.543880 3.568658
v 0.844994 0.449115 3.215297
v 0.845345 0.600870 3.364036
v 0.845730 0.399188 3.620698
v 0.846483 0.296392 3.593093
v 0.816141 0.399841 3.416652
v 0.813538 0.393490 3.414818
v 0.833360 0.384884 3.431759
v 0.810723 0.399888 3.411537
v 0.813864 0.404137 3.417386
v 0.821783 0.401834 3.432617
v 0.858680 0.397337 3.421577
v 0.850047 0.561812 3.398485
v 0.841132 0.396111 3.395664
v 0.856995 0.402365 3.410834
v 0.827279 0.561439 3.438591
v 0.836424 0.419928 3.408984
v 0.816193 0.439333 3.576661
v 0.858065 0.459243 3.570304
v 0.839275 0.375506 3.423512
v 0.836086 0.254686 3.493405
v 0.815942 0.269817 3.505957
v 0.848823 0.278220 3.530649
v 0.862513 0.404402 3.422409
v 0.822880 0.405174 3.435660
v 0.833559 0.413365 3.401315
v 0.824634 0.277686 3.306247
v 0.837892 0.254684 3.343194
v 0.860883 0.394795 3.415339
v 0.855927 0.396478 3.420794
v 0.861146 0.404259 3.418333
v 0.860756 0.393930 3.423277
v 0.839275 0.419869 3.427411
v 0.836424 0.375383 3.413078
v 0.858066 0.438482 3.259479
v 0.816194 0.458329 3.266029
v -0.580863 0.987089 0.651250
v -0.580863 0.830814 0.709252
v -0.297095 0.987089 0.709252
v -0.297095 0.830814 0.651250
v -0.581629 0.987390 0.708939
v -0.296330 0.987390 0.651563
v -0.581629 0.830513 0.651563
v -0.296330 0.830513 0.708939
v -0.306256 1.037367 4.092843
v -0.306978 0.870997 4.092539
v -0.570981 1.037017 4.092539
v -0.571703 1.037367 4.150199
v -0.571703 0.870648 4.092843
v -0.306256 0.870647 4.150200
v -0.306978 1.037017 4.150502
v -0.570980 0.870997 4.150502
v 0.337112 0.830814 0.709252
v 0.620879 0.987089 0.709252
v 0.337112 0.987089 0.651250
v 0.336346 0.987390 0.708939
v 0.621645 0.987390 0.651563
v 0.336346 0.830513 0.651563
v 0.620879 0.830814 0.651250
v 0.621645 0.830513 0.708939
v 0.346994 1.037017 4.092539
v 0.610997 0.870997 4.092539
v 0.346994 0.870997 4.150502
v 0.346272 0.870647 4.092843
v 0.610997 1.037017 4.150502
v 0.611719 1.037367 4.092843
v 0.346272 1.037367 4.150199
v 0.611719 0.870647 4.150200
v 0.322995 0.718512 0.667664
v -0.282979 0.718512 0.662826
v -0.282979 0.598772 0.667664
v 0.322995 0.598772 0.662826
v 0.179296 0.739466 4.142578
v -0.139280 0.739466 4.140478
v -0.139280 0.607856 4.142578
v 0.179296 0.607856 4.140478
v 0.359768 0.741244 0.653241
v -0.313774 0.754406 0.652104
v -0.313774 0.728082 0.654378
v 0.359768 0.801318 0.653241
v -0.313774 0.802456 0.666391
v -0.313774 0.800180 0.640090
v 0.359768 0.861392 0.653241
v -0.313774 0.848231 0.654378
v -0.313774 0.874554 0.652104
v -0.822895 0.392885 1.385312
v -0.823944 0.392565 1.388030
v -0.821855 0.393097 1.382609
v 0.816066 0.401113 1.383734
v 0.816022 0.556616 1.388006
v 0.850753 0.402751 1.364174
v 0.856602 0.398321 1.381299
v -0.822884 0.400546 3.414453
v -0.821855 0.401285 3.417223
v -0.817093 0.270280 3.509575
v 0.819666 0.398321 1.384043
v -0.779478 0.386180 1.398019
v -0.773836 0.394121 1.379348
v -0.779478 0.386181 3.432769
v -0.773836 0.394122 3.414099
v -0.818726 0.269817 3.505957
v 0.813706 0.394008 3.414230
v 0.859481 0.281957 1.468937
v 0.843741 0.388309 1.399111
v 0.859776 0.393138 1.380448
v -0.821485 0.392700 1.386808
v 0.831859 0.393936 1.382307
v 0.812673 0.393510 1.386990
v -0.816572 0.397440 3.414163
v -0.821997 0.393523 3.414765
v -0.768263 0.396535 1.380710
v -0.778388 0.392112 1.389607
v -0.778391 0.392110 3.424359
v -0.768628 0.403670 1.382434
v -0.772795 0.402016 3.414465
v 0.811782 0.400631 3.414388
v 0.812812 0.401452 3.417103
v 0.817574 0.270277 3.509577
v 0.862518 0.404533 1.381699
v -0.821699 0.403324 3.417717
v -0.818489 0.556710 3.422738
v -0.817643 0.400306 1.373559
v 0.810845 0.404706 1.383426
v 0.824901 0.381784 1.396272
v 0.812812 0.400225 1.386007
v 0.817574 0.271835 1.290059
v -0.779322 0.396458 1.380803
v -0.773752 0.404192 1.382754
v -0.779322 0.396458 3.415554
v -0.773752 0.404192 3.417505
v 0.857738 0.403991 1.382916
v 0.837495 0.376200 3.403975
v 0.860831 0.394122 3.414099
v 0.860803 0.395402 3.415337
v 0.858575 0.267585 3.328880
v -0.817229 0.554186 1.384848
vn -0.0000 -0.0000 -1.0000
vn -0.0000 0.5429 -0.8398
vn -0.0000 0.5715 0.8206
vn -0.9824 0.1866 -0.0000
vn 0.9824 0.1866 -0.0000
vn 0.7374 -0.1968 0.6461
vn 0.0004 0.7454 0.6666
vn -0.6332 0.0088 -0.7739
vn -0.6330 0.0086 -0.7741
vn -0.6331 0.0087 -0.7740
vn 0.0118 0.7434 0.6687
vn 0.6302 -0.2703 -0.7279
vn 0.5410 0.8348 0.1024
vn -0.8688 0.3968 -0.2963
vn 0.6972 -0.3433 -0.6293
vn -0.7102 0.1399 -0.6900
vn -0.6465 -0.2178 -0.7311
vn 0.8905 -0.2309 -0.3921
vn 0.0150 -0.6307 -0.7759
vn 0.6370 0.0036 -0.7708
vn 0.0537 -0.5808 0.8123
vn 0.9579 -0.2026 0.2033
vn 0.3179 -0.0837 0.9444
vn 0.0509 -0.5808 0.8125
vn 0.2804 -0.0495 0.9586
vn 0.7055 0.4228 -0.5688
vn 0.6457 0.6594 -0.3851
vn 0.5803 0.5786 -0.5731
vn 0.5803 -0.5786 0.5731
vn 0.5744 -0.5760 -0.5816
vn -0.5744 0.5760 -0.5816
vn -0.5803 0.5786 0.5731
vn 0.5744 0.5760 0.5816
vn -0.5803 -0.5786 -0.5731
vn -0.5744 -0.5760 0.5816
vn -0.5795 0.5801 0.5724
vn 0.5795 0.5801 -0.5724
vn -0.5764 0.5760 -0.5796
vn -0.5795 -0.5801 -0.5724
vn 0.5764 -0.5760 -0.5796
vn 0.5795 -0.5801 0.5724
vn 0.5764 0.5760 0.5796
vn -0.5764 -0.5760 0.5796
vn -0.5785 -0.5801 -0.5734
vn 0.5747 -0.5754 -0.5820
vn 0.5785 -0.5801 0.5734
vn -0.5747 0.5754 -0.5820
vn 0.5785 0.5801 -0.5734
vn 0.5747 0.5754 0.5820
vn -0.5747 -0.5754 0.5820
vn -0.5785 0.5801 0.5734
vn -0.5412 -0.0329 -0.8402
vn 0.5402 0.0329 -0.8409
vn 0.5413 -0.0329 0.8402
vn -0.5401 0.0329 0.8409
vn -0.5410 0.0331 0.8404
vn 0.5410 0.0333 -0.8404
vn -0.5404 -0.0332 -0.8408
vn 0.5404 -0.0329 0.8408
vn -0.5404 0.0329 0.8408
vn 0.5404 0.0331 -0.8408
vn -0.5410 -0.0329 -0.8404
vn 0.5410 -0.0327 0.8404
vn -0.5407 0.0331 0.8406
vn 0.5407 0.0329 -0.8406
vn -0.5407 -0.0332 -0.8406
vn 0.5407 -0.0331 0.8406
vn -0.5792 0.5773 0.5756
vn 0.5792 0.5773 -0.5756
vn -0.5734 0.5784 -0.5802
vn 0.5734 -0.5784 -0.5802
vn -0.5792 -0.5773 -0.5756
vn 0.5734 0.5784 0.5802
vn 0.5792 -0.5773 0.5756
vn -0.5734 -0.5784 0.5802
vn -0.0000 1.0000 -0.0000
vn -0.6989 0.0012 -0.7152
vn 0.7140 0.0035 -0.7001
vn 0.6989 -0.0012 -0.7152
vn -0.7140 0.0035 0.7001
vn -0.7140 -0.0035 -0.7001
vn -0.0000 -1.0000 -0.0000
vn 0.7140 -0.0035 0.7001
vn 0.6989 0.0012 0.7152
vn -0.6989 -0.0012 0.7152
vn -0.5774 0.5764 -0.5782
vn 0.5774 -0.5764 -0.5782
vn -0.5776 -0.5779 -0.5766
vn 0.5776 0.5779 -0.5766
vn -0.5776 0.5779 0.5766
vn 0.5776 -0.5779 0.5766
vn -0.5774 -0.5764 0.5782
vn 0.5774 0.5764 0.5782
vn -0.6693 0.7430 -0.0068
vn 0.6693 -0.7430 -0.0068
vn -0.6693 -0.7429 0.0068
vn 0.6693 0.7429 0.0068
vn -0.3337 -0.6168 0.7128
vn 0.5794 -0.6038 0.5475
vn 0.2756 0.6358 0.7210
vn -0.0227 -0.5974 -0.8016
vn -0.7793 -0.5823 -0.2314
vn -0.7147 0.5823 -0.3875
vn 0.2681 0.6168 -0.7400
vn 0.7047 -0.6358 -0.3150
vn 0.7969 0.6038 0.0226
vn -0.5829 0.5974 0.5508
vn -0.7071 0.7071 -0.0036
vn 0.7071 0.7071 0.0036
vn -0.7070 0.7072 -0.0047
vn -0.7071 -0.7071 0.0036
vn -0.0001 -0.0001 -1.0000
vn 0.0001 0.0001 -1.0000
vn 0.7071 -0.7071 -0.0036
vn 0.7070 -0.7072 -0.0047
vn 0.7070 0.7072 0.0047
vn -0.0000 -0.0000 1.0000
vn 0.0001 -0.0001 1.0000
vn -0.0001 0.0001 1.0000
vn -0.7070 -0.7072 0.0047
vn 0.6249 -0.5918 0.5092
vn -0.3421 -0.6138 0.7115
vn -0.7585 -0.5490 -0.3512
vn -0.0818 0.6039 0.7929
vn 0.5028 -0.6039 -0.6185
vn 0.8019 0.5918 0.0818
vn 0.2612 0.6138 -0.7450
vn -0.7847 0.5490 -0.2880
vn -0.7096 0.0014 0.7046
vn -0.7051 -0.0004 -0.7091
vn -0.7096 -0.0014 -0.7046
vn 0.7051 0.0004 -0.7091
vn 0.7096 0.0014 -0.7046
vn -0.7051 0.0004 0.7091
vn 0.7051 -0.0004 0.7091
vn 0.7096 -0.0014 0.7046
vn -0.5769 -0.2898 -0.7637
vn 0.5612 0.2495 -0.7891
vn 0.5427 -0.2225 -0.8099
vn 0.1806 0.2372 -0.9545
vn -0.1853 -0.6303 -0.7540
vn -0.9053 -0.1729 -0.3880
vn 0.1607 -0.6152 -0.7718
vn -0.4842 0.0474 -0.8737
vn -0.8962 0.0554 -0.4403
vn 0.3793 -0.8689 0.3180
vn -0.3114 -0.3579 0.8803
vn -0.0005 -0.8114 0.5845
vn 0.3475 -0.3548 0.8680
vn -0.0024 0.0054 1.0000
vn -0.3526 0.3562 0.8653
vn -0.3794 0.8702 0.3142
vn -0.0008 0.8228 0.5683
vn 0.0006 0.8266 0.5628
vn -0.5874 -0.5542 0.5898
vn -0.9384 -0.2630 0.2242
vn -0.2691 -0.9275 -0.2595
vn -0.6624 -0.6081 -0.4376
vn -0.7360 -0.6770 0.0002
vn -0.9314 -0.3640 0.0002
vn -0.7326 -0.6807 0.0004
vn 0.4025 -0.8981 -0.1771
vn 0.0003 -1.0000 0.0004
vn 0.7187 -0.6740 -0.1710
vn 0.6839 -0.6329 -0.3629
vn 0.8853 0.1869 -0.4259
vn 0.9281 0.0024 -0.3724
vn -0.1567 0.8363 -0.5254
vn 0.2327 0.9042 -0.3582
vn 0.1136 0.8608 -0.4961
vn 0.6181 0.5657 -0.5459
vn 0.9315 0.3636 0.0002
vn 0.8820 -0.3426 0.3235
vn 1.0000 0.0019 0.0003
vn 0.9339 0.2670 0.2379
vn 0.7367 0.6763 0.0001
vn -0.7105 0.6683 -0.2203
vn -0.3761 0.8895 -0.2596
vn -0.8838 0.3438 0.3174
vn -1.0000 -0.0020 0.0003
vn 0.7366 0.0335 0.6755
vn 0.7328 0.6805 0.0004
vn 0.5779 0.5457 0.6068
vn -0.0004 1.0000 0.0004
vn -0.7436 -0.3439 -0.5733
vn 0.3655 0.8367 -0.4078
vn 0.7379 0.2436 -0.6295
vn 0.8687 0.4344 -0.2380
vn 0.6553 -0.5826 -0.4808
vn -0.1700 -0.8874 -0.4286
vn -0.3715 -0.9104 0.1823
vn -0.0007 -0.9978 0.0659
vn -0.9016 -0.3131 0.2986
vn -0.8182 0.4466 -0.3619
vn -0.7089 0.5343 0.4603
vn 0.6955 0.2731 0.6646
vn -0.7291 0.2284 0.6452
vn -0.6532 -0.5871 0.4782
vn -0.0031 0.8657 0.5005
vn 0.0001 -1.0000 -0.0000
vn -0.0001 -1.0000 -0.0001
vn -0.0007 -1.0000 -0.0003
vn 0.0008 -1.0000 0.0003
vn 0.9082 -0.2579 0.3296
vn 0.7251 -0.5655 0.3930
vn 0.9457 -0.3249 -0.0000
vn 0.7874 -0.6165 -0.0004
vn 0.7887 -0.6148 -0.0003
vn 0.9678 0.0003 0.2519
vn 0.9454 -0.3259 -0.0001
vn 0.0007 0.8519 -0.5237
vn 0.3681 0.8448 0.3883
vn -0.6917 0.5224 -0.4987
vn -0.7951 0.6065 0.0001
vn -0.7976 0.6032 0.0004
vn -0.7950 0.6066 0.0001
vn -0.7305 -0.5696 -0.3769
vn -0.9116 -0.2616 -0.3171
vn -0.7872 -0.6167 0.0004
vn -0.7886 -0.6149 0.0003
vn -0.9458 -0.3248 -0.0000
vn 0.3736 -0.9111 -0.1743
vn 0.0008 -0.9984 -0.0564
vn 0.9090 -0.3098 -0.2788
vn 0.1359 -0.8066 0.5752
vn 0.6831 -0.5809 0.4426
vn 0.9460 0.3242 -0.0000
vn 0.8374 0.4493 0.3112
vn -0.9454 -0.3259 0.0002
vn -1.0000 0.0004 -0.0002
vn -0.9702 0.0003 -0.2424
vn -0.7977 0.6031 0.0004
vn -1.0000 -0.0002 -0.0001
vn -0.6820 -0.7301 0.0431
vn 0.4077 -0.9122 -0.0413
vn 0.3739 0.7819 0.4988
vn -0.0990 0.8602 -0.5002
vn -0.0215 0.6048 0.7961
vn 0.0215 0.6048 -0.7961
vn -0.0215 -0.6048 -0.7961
vn 0.0215 -0.6048 0.7961
vn -0.5809 0.5795 0.5716
vn 0.5809 0.5795 -0.5716
vn -0.5734 0.5765 -0.5821
vn 0.5734 0.5765 0.5821
vn 0.5734 -0.5765 -0.5821
vn 0.5809 -0.5795 0.5716
vn -0.5734 -0.5765 0.5821
vn -0.5809 -0.5795 -0.5716
vn -0.4084 -0.9118 0.0431
vn 0.1002 0.8609 0.4988
vn -0.3725 0.7816 -0.5003
vn 0.6815 -0.7307 -0.0413
vn -0.0215 -0.6047 -0.7961
vn 0.0215 -0.6047 0.7961
vn -0.6600 -0.7004 0.2716
vn -0.9999 0.0069 -0.0115
vn -0.6333 0.6284 0.4518
vn -0.0266 0.1743 0.9843
vn 0.0062 0.2340 0.9722
vn 0.6315 0.6526 0.4187
vn -0.6323 0.7638 -0.1299
vn -1.0000 0.0025 -0.0018
vn -0.9998 0.0184 0.0021
vn 0.6600 -0.7511 0.0173
vn 0.9427 -0.3260 0.0713
vn -0.9426 -0.3285 0.0590
vn -0.8348 -0.4058 0.3722
vn -0.6315 0.4426 -0.6366
vn 0.0007 -0.6899 0.7239
vn 0.6323 0.7553 -0.1725
vn 0.6333 0.4076 -0.6578
vn -0.0062 -0.1557 -0.9878
vn 0.0254 -0.5357 -0.8440
vn 0.0266 -0.2155 -0.9762
vn -0.0007 -0.9144 -0.4047
vn 0.8347 -0.5174 -0.1885
vn 0.9998 0.0162 -0.0090
vn 0.9999 0.0108 0.0080
vn 1.0000 0.0030 0.0007
vn -0.0610 -0.8600 -0.5067
vn 0.0606 -0.5689 -0.8202
vn -0.0254 -0.1721 0.9847
vn -0.0606 -0.2119 0.9754
vn 0.0609 -0.6006 0.7972
vn 0.1543 0.8346 0.5287
vn -0.0528 0.3730 0.9263
vn -0.0086 -0.1892 0.9819
vn -0.0047 -0.7969 0.6041
vn -0.0000 -0.9659 -0.2589
vn 0.0047 -0.3881 -0.9216
vn 0.0086 0.3268 -0.9450
vn 0.0528 0.7862 -0.6157
vn -0.1543 0.9872 -0.0403
vn -0.3816 -0.6594 0.6478
vn -0.5507 -0.4556 0.6994
vn -0.0608 -0.9945 -0.0851
vn 0.5760 -0.0006 -0.8175
vn -0.8165 0.5744 0.0574
vn -0.0131 0.6421 -0.7665
vn -0.8683 0.0263 -0.4953
vn -0.7591 0.0135 0.6509
vn -0.0553 0.6408 0.7657
vn 0.7859 0.6183 -0.0063
vn 0.6901 -0.0068 -0.7237
vn 0.6974 0.0347 0.7158
vn 0.9302 -0.0225 0.3664
vn -0.5778 -0.8033 0.1441
vn -0.9858 0.1142 0.1230
vn -0.9506 0.1483 -0.2727
vn -0.7654 0.3830 -0.5172
vn -0.2426 -0.3851 -0.8904
vn -0.7541 -0.3973 -0.5229
vn 0.0089 -0.9701 -0.2424
vn -0.8035 -0.4694 0.3661
vn -0.1503 -0.5791 -0.8012
vn -0.3101 0.7127 -0.6292
vn -0.1163 0.8116 -0.5725
vn -0.4754 0.5891 -0.6534
vn 0.0613 0.5158 -0.8545
vn -0.2225 0.1655 0.9608
vn 0.0683 0.7674 0.6375
vn 0.0709 0.7925 0.6057
vn 0.5846 0.3389 -0.7372
vn 0.2495 -0.4528 -0.8560
vn -0.0497 0.9301 -0.3639
vn 0.0389 -0.0591 0.9975
vn 0.8222 -0.4541 0.3432
vn -0.0522 0.8349 -0.5479
vn 0.9478 0.1551 0.2785
vn 0.0429 -0.8214 -0.5687
vn -0.0361 0.3258 -0.9448
vn 0.5390 0.5033 0.6754
vn -0.5458 -0.0069 0.8379
vn 0.0114 0.7400 0.6725
vn -0.6969 0.4212 0.5805
vn 0.4240 -0.5193 -0.7420
vn 0.7667 -0.4359 -0.4714
vn 0.0429 0.3302 0.9429
vn -0.0360 -0.8189 0.5728
vn 0.5392 -0.0099 -0.8421
vn -0.5456 0.4984 -0.6737
vn -0.1543 -0.8346 0.5287
vn 0.0047 0.7969 0.6042
vn -0.0000 0.9659 -0.2589
vn -0.0047 0.3881 -0.9216
vn 0.0086 0.1892 0.9819
vn 0.0528 -0.3730 0.9263
vn -0.0528 -0.7862 -0.6157
vn 0.1543 -0.9872 -0.0403
vn -0.0086 -0.3268 -0.9450
vn 0.2386 -0.5295 -0.8141
vn 0.0609 -0.0020 -0.9981
vn 0.9367 0.0134 -0.3499
vn 0.0319 -0.5362 0.8435
vn -0.2970 -0.9441 -0.1429
vn -0.5854 -0.8065 -0.0826
vn 0.4928 0.7117 -0.5006
vn -0.8549 0.5184 -0.0205
vn 0.2149 0.5550 0.8036
vn 0.7477 0.1242 0.6523
vn -0.6046 0.0365 -0.7957
vn -0.6959 -0.1410 0.7042
vn -0.9419 -0.2653 -0.2061
vn -0.4332 -0.1658 -0.8859
vn -0.4503 -0.8853 -0.1161
vn 0.1526 0.9189 0.3639
vn -0.1722 0.4782 0.8612
vn 0.1278 0.0692 0.9894
vn -0.5509 0.5107 0.6601
vn -0.6666 0.4739 0.5754
vn -0.6503 -0.1956 0.7340
vn -0.8188 0.2560 -0.5139
vn 0.3981 -0.1420 -0.9063
vn -0.8604 -0.3300 -0.3882
vn -0.2656 0.5084 -0.8191
vn -0.1447 0.7899 -0.5959
vn -0.0803 -0.0535 -0.9953
vn 0.7391 -0.4426 -0.5077
vn 0.6400 -0.3911 0.6614
vn 0.1513 -0.9440 0.2931
vn 0.7920 -0.3755 0.4813
vn 0.7031 0.4512 -0.5496
vn 0.5706 0.2607 0.7787
vn -0.7766 -0.3881 0.4963
vn -0.9427 -0.3285 0.0590
vn -0.0047 -0.7969 0.6042
vn -0.3173 -0.7120 0.6265
vn -0.4198 -0.6082 0.6737
vn -0.0045 0.6224 0.7827
vn -0.3811 -0.8784 -0.2884
vn -0.1075 -0.6022 -0.7911
vn -0.4519 -0.8694 0.1999
vn 0.6975 0.0370 0.7157
vn 0.7970 0.6040 -0.0070
vn 0.9220 -0.0227 0.3866
vn 0.7191 0.0013 -0.6949
vn -0.0242 0.6043 -0.7964
vn -0.8203 0.5685 0.0627
vn 0.6276 0.6650 -0.4049
vn -0.9360 0.1843 -0.2999
vn -0.0194 0.5176 -0.8554
vn -0.2454 -0.3794 -0.8921
vn -0.8930 0.2406 0.3805
vn -0.9829 -0.1701 0.0709
vn -0.8148 -0.3639 -0.4513
vn -0.0033 -0.9733 -0.2294
vn -0.7971 -0.5056 0.3302
vn -0.7506 -0.4172 -0.5124
vn 0.3911 0.8480 0.3576
vn -0.1809 0.9768 0.1144
vn 0.0064 -0.0847 0.9964
vn -0.1301 0.7651 -0.6307
vn -0.1924 0.6525 -0.7330
vn -0.7775 0.3259 0.5379
vn 0.8433 0.2801 0.4587
vn -0.3168 0.0821 0.9449
vn -0.0878 0.7384 0.6687
vn -0.0897 0.6993 0.7092
vn 0.5846 0.3389 -0.7371
vn 0.2520 -0.4517 -0.8559
vn 0.8134 -0.4303 0.3915
vn 0.7892 -0.3775 -0.4844
vn -0.0361 -0.8189 0.5728
vn 0.0430 0.3302 0.9429
vn -0.1543 -0.8346 0.5288
vn 0.0047 0.7969 0.6041
vn -0.0000 0.9659 -0.2588
vn -0.8863 0.0132 0.4628
vn -0.3069 -0.5183 0.7982
vn -0.1129 -0.0333 0.9931
vn -0.7253 -0.4046 -0.5570
vn 0.1530 -0.9361 -0.3167
vn -0.0369 0.7299 0.6826
vn -0.2568 0.7066 0.6594
vn -0.1171 -0.0320 0.9926
vn 0.5283 -0.8080 0.2608
vn -0.0729 -0.9893 0.1264
vn -0.8857 0.2494 0.3917
vn -0.8414 -0.3923 0.3716
vn -0.9967 -0.0792 -0.0155
vn -0.4565 -0.1362 -0.8793
vn 0.0553 -0.9984 0.0098
vn -0.0502 0.5798 -0.8132
vn -0.0167 0.0833 -0.9964
vn -0.5866 0.1571 -0.7945
vn -0.1944 0.8869 -0.4190
vn 0.0987 0.7566 -0.6464
vn 0.5618 0.7230 -0.4020
vn 0.3071 0.9505 0.0469
vn 0.7349 -0.4843 -0.4747
vn 0.9986 0.0521 -0.0026
vn 0.2525 0.8329 -0.4925
vn 0.9039 0.0063 -0.4276
vn -0.2323 0.4696 -0.8518
vn 0.4553 -0.1558 0.8766
vn -0.5794 0.4091 0.7050
vn 0.5152 0.8491 -0.1167
vn 0.8536 -0.4020 -0.3314
vn 0.6146 0.4331 -0.6593
vn 0.4935 0.0981 0.8642
vn -0.1941 -0.9253 0.3257
vn -0.5721 0.5770 -0.5829
vn 0.5721 -0.5770 -0.5829
vn -0.5807 -0.5791 -0.5722
vn 0.5807 0.5791 -0.5722
vn -0.5807 0.5791 0.5722
vn 0.5721 0.5770 0.5829
vn -0.5721 -0.5770 0.5829
vn 0.5807 -0.5791 0.5722
vn 0.7081 0.7060 0.0082
vn 0.7081 -0.7060 -0.0082
vn 0.7044 -0.7097 -0.0131
vn 0.7044 0.7097 0.0131
vn -0.7081 0.7060 -0.0082
vn -0.7044 0.7097 -0.0131
vn -0.0003 -0.0005 -1.0000
vn 0.0011 0.0018 -1.0000
vn 0.0003 0.0005 -1.0000
vn -0.0011 -0.0018 -1.0000
vn -0.7081 -0.7060 0.0082
vn -0.7044 -0.7097 0.0131
vn 0.0003 -0.0005 1.0000
vn -0.0011 0.0018 1.0000
vn -0.0003 0.0005 1.0000
vn 0.0011 -0.0018 1.0000
vn 0.8125 0.5826 0.0225
vn -0.8125 -0.5825 0.0225
vn 0.8125 -0.5826 -0.0226
vn -0.8124 0.5826 -0.0225
vn 0.7791 0.6269 0.0067
vn -0.7791 -0.6268 0.0067
vn 0.7795 -0.6264 -0.0067
vn -0.7794 0.6265 -0.0067
vn -0.0056 0.9912 -0.1322
vn -0.0056 0.9865 -0.1636
vn -0.0057 0.9911 -0.1333
vn -0.0000 -0.0000 -0.0000
vn 0.3742 -0.0184 -0.9272
vn -0.3064 0.2509 0.9183
vn 0.0095 -0.9365 0.3505
vn 0.2984 0.7691 -0.5652
vn 0.0046 -0.9326 0.3609
vn -0.6722 -0.0266 0.7399
vn 0.8367 0.5346 0.1190
vn -0.7227 0.1121 0.6820
vn 0.7610 -0.1154 0.6384
vn 0.7469 -0.3164 0.5848
vn -0.7352 -0.6670 0.1208
vn -0.7760 -0.4796 0.4097
vn 0.7620 -0.4974 -0.4147
vn -0.1485 0.2250 -0.9630
vn 0.6308 0.4634 0.6223
vn 0.7235 -0.5375 0.4332
vt 0.833841 0.472589
vt 0.833841 0.506882
vt 0.799795 0.507649
vt 0.799795 0.473357
vt 0.833841 0.653988
vt 0.833841 0.691267
vt 0.809036 0.690573
vt 0.809036 0.645376
vt 0.573599 0.691267
vt 0.573599 0.643257
vt 0.589737 0.647362
vt 0.589737 0.686962
vt 0.676346 0.816560
vt 0.676346 0.734143
vt 0.704229 0.736562
vt 0.704229 0.807157
vt 0.524730 0.771307
vt 0.617609 0.771307
vt 0.624301 0.799278
vt 0.515868 0.799278
vt 0.896867 0.438967
vt 0.896592 0.439234
vt 0.896836 0.438767
vt 0.881706 0.205848
vt 0.882581 0.205485
vt 0.881676 0.206141
vt 0.897041 0.266163
vt 0.897774 0.265422
vt 0.896927 0.266511
vt 0.881706 0.219004
vt 0.882581 0.218641
vt 0.881676 0.219297
vt 0.881770 0.674234
vt 0.881730 0.672601
vt 0.881999 0.672810
vt 0.896872 0.560990
vt 0.897280 0.559633
vt 0.897254 0.560989
vt 0.897668 0.641778
vt 0.896592 0.641419
vt 0.898054 0.641419
vt 0.881810 0.679693
vt 0.881730 0.678412
vt 0.881999 0.678622
vt 0.896839 0.645778
vt 0.897950 0.646142
vt 0.896592 0.646142
vt 0.896872 0.591545
vt 0.897280 0.590188
vt 0.897254 0.591544
vt 0.897135 0.445796
vt 0.897126 0.444280
vt 0.897338 0.445589
vt 0.896945 0.129700
vt 0.897280 0.131076
vt 0.896592 0.129878
vt 0.886552 0.211052
vt 0.881801 0.206182
vt 0.882480 0.205575
vt 0.886552 0.224208
vt 0.881801 0.219338
vt 0.882480 0.218731
vt 0.896855 0.555135
vt 0.897160 0.553677
vt 0.897056 0.555232
vt 0.896872 0.597302
vt 0.897279 0.595945
vt 0.897254 0.597301
vt 0.505660 0.488208
vt 0.509571 0.008583
vt 0.509329 0.488195
vt 0.621661 0.002214
vt 0.621894 0.462067
vt 0.618154 0.462110
vt 0.500929 0.500008
vt 0.012640 0.002173
vt 0.501009 0.002254
vt 0.012560 0.499927
vt 0.505821 0.008606
vt 0.618000 0.002299
vt 0.012064 0.995779
vt 0.011981 0.507244
vt 0.509727 0.507324
vt 0.003209 0.367318
vt 0.003892 0.002727
vt 0.007561 0.002727
vt 0.003892 0.699908
vt 0.006959 0.367337
vt 0.007561 0.699908
vt 0.509648 0.995697
vt 0.559417 0.500928
vt 0.553116 0.003415
vt 0.559370 0.003414
vt 0.647816 0.011281
vt 0.647582 0.375869
vt 0.640685 0.375877
vt 0.874693 0.616276
vt 0.881927 0.610570
vt 0.881719 0.616337
vt 0.874897 0.610551
vt 0.587577 0.004090
vt 0.580445 0.483724
vt 0.580681 0.004113
vt 0.553198 0.501014
vt 0.587410 0.483698
vt 0.647794 0.007007
vt 0.640852 0.011262
vt 0.640927 0.007015
vt 0.527193 0.003423
vt 0.533495 0.500929
vt 0.527276 0.501015
vt 0.533413 0.003337
vt 0.874693 0.626222
vt 0.881927 0.620517
vt 0.881719 0.626284
vt 0.874897 0.620498
vt 0.660778 0.013441
vt 0.660543 0.378029
vt 0.653647 0.378037
vt 0.546304 0.501092
vt 0.540155 0.003414
vt 0.546409 0.003414
vt 0.514232 0.003423
vt 0.520451 0.003337
vt 0.520382 0.501092
vt 0.572456 0.004090
vt 0.565323 0.483724
vt 0.565560 0.004113
vt 0.514315 0.501015
vt 0.660756 0.009167
vt 0.653813 0.013422
vt 0.653888 0.009175
vt 0.540237 0.501014
vt 0.572289 0.483698
vt 0.600450 0.002657
vt 0.600386 0.481727
vt 0.594171 0.481727
vt 0.634783 0.002234
vt 0.634940 0.453329
vt 0.627902 0.453463
vt 0.627741 0.002345
vt 0.874760 0.636325
vt 0.881839 0.630478
vt 0.881850 0.636313
vt 0.667089 0.343464
vt 0.673818 0.017195
vt 0.673986 0.343473
vt 0.666857 0.017143
vt 0.874788 0.630445
vt 0.605338 0.613411
vt 0.605276 0.134193
vt 0.611340 0.134193
vt 0.673744 0.012624
vt 0.594229 0.002583
vt 0.666877 0.012615
vt 0.611331 0.613376
vt 0.652674 0.385400
vt 0.656567 0.385377
vt 0.656584 0.613356
vt 0.632822 0.691123
vt 0.628911 0.463260
vt 0.632907 0.463260
vt 0.652691 0.613379
vt 0.628929 0.691147
vt 0.691147 0.230998
vt 0.687237 0.003135
vt 0.691232 0.003135
vt 0.641873 0.419964
vt 0.645766 0.419940
vt 0.645783 0.647919
vt 0.641890 0.647943
vt 0.687254 0.231022
vt 0.682507 0.250440
vt 0.678596 0.022577
vt 0.682592 0.022577
vt 0.678614 0.250464
vt 0.663475 0.441566
vt 0.667385 0.669521
vt 0.663492 0.669545
vt 0.667368 0.441542
vt 0.688987 0.691123
vt 0.685077 0.463260
vt 0.689072 0.463260
vt 0.674276 0.348677
vt 0.678186 0.576632
vt 0.674293 0.576656
vt 0.685094 0.691147
vt 0.678169 0.348653
vt 0.796353 0.790450
vt 0.803528 0.719352
vt 0.803549 0.790429
vt 0.615650 0.619711
vt 0.615600 0.686595
vt 0.610191 0.686694
vt 0.610146 0.619833
vt 0.716041 0.467846
vt 0.716201 0.462582
vt 0.721329 0.462594
vt 0.796332 0.719372
vt 0.874596 0.832392
vt 0.881422 0.832262
vt 0.881405 0.837681
vt 0.874596 0.837519
vt 0.708480 0.466607
vt 0.701304 0.537706
vt 0.701283 0.466628
vt 0.708500 0.537685
vt 0.721460 0.467881
vt 0.715986 0.516241
vt 0.721502 0.516257
vt 0.869990 0.035359
vt 0.837970 0.020907
vt 0.869934 0.020845
vt 0.837841 0.323477
vt 0.867908 0.323484
vt 0.867917 0.327069
vt 0.848423 0.120873
vt 0.837841 0.120813
vt 0.837849 0.117272
vt 0.837923 0.327089
vt 0.825049 0.248679
vt 0.825110 0.280643
vt 0.810597 0.280699
vt 0.874596 0.253617
vt 0.888440 0.257222
vt 0.874597 0.257158
vt 0.870236 0.120890
vt 0.848512 0.117283
vt 0.870243 0.117269
vt 0.888511 0.253632
vt 0.838026 0.035421
vt 0.810535 0.248734
vt 0.709944 0.807731
vt 0.717120 0.736634
vt 0.717141 0.807710
vt 0.709924 0.736654
vt 0.613490 0.004051
vt 0.613440 0.070935
vt 0.608031 0.071034
vt 0.874596 0.851458
vt 0.881422 0.851328
vt 0.881405 0.856747
vt 0.874596 0.856585
vt 0.733268 0.641533
vt 0.733323 0.593139
vt 0.738742 0.593173
vt 0.738784 0.641549
vt 0.607986 0.004173
vt 0.733483 0.587874
vt 0.738610 0.587886
vt 0.799209 0.086410
vt 0.799229 0.157488
vt 0.792033 0.157508
vt 0.792012 0.086431
vt 0.848423 0.128493
vt 0.837849 0.124893
vt 0.848512 0.124904
vt 0.837841 0.128433
vt 0.869990 0.054114
vt 0.838026 0.054176
vt 0.837970 0.039663
vt 0.870236 0.128510
vt 0.869934 0.039601
vt 0.837841 0.331089
vt 0.867908 0.331096
vt 0.867917 0.334682
vt 0.837923 0.334702
vt 0.870243 0.124890
vt 0.555022 0.659119
vt 0.540571 0.691139
vt 0.540509 0.659174
vt 0.874597 0.261237
vt 0.888510 0.261252
vt 0.888440 0.264842
vt 0.874597 0.264778
vt 0.555084 0.691083
vt 0.803529 0.639424
vt 0.796353 0.710522
vt 0.796332 0.639445
vt 0.715986 0.576727
vt 0.716041 0.528332
vt 0.721460 0.528367
vt 0.721502 0.576743
vt 0.721329 0.523080
vt 0.874596 0.841925
vt 0.881422 0.841795
vt 0.881405 0.847214
vt 0.809314 0.241756
vt 0.809293 0.170679
vt 0.816490 0.170659
vt 0.874596 0.847052
vt 0.803549 0.710502
vt 0.678297 0.585147
vt 0.672838 0.652131
vt 0.672793 0.585270
vt 0.678246 0.652031
vt 0.716201 0.523068
vt 0.816511 0.241735
vt 0.695436 0.698002
vt 0.695498 0.729967
vt 0.680985 0.730022
vt 0.837841 0.338702
vt 0.867908 0.338709
vt 0.867917 0.342294
vt 0.837923 0.342314
vt 0.874597 0.268857
vt 0.888440 0.272462
vt 0.874597 0.272398
vt 0.870236 0.136130
vt 0.848512 0.132524
vt 0.870243 0.132510
vt 0.848423 0.136113
vt 0.837849 0.132513
vt 0.680923 0.698058
vt 0.837841 0.136054
vt 0.888510 0.268872
vt 0.869990 0.016603
vt 0.837970 0.002152
vt 0.869934 0.002090
vt 0.838026 0.016665
vt 0.788474 0.305888
vt 0.816461 0.384308
vt 0.788497 0.383707
vt 0.816458 0.306485
vt 0.806710 0.003988
vt 0.825200 0.004021
vt 0.825200 0.081834
vt 0.867726 0.270795
vt 0.838099 0.245788
vt 0.867752 0.245696
vt 0.837928 0.216443
vt 0.867556 0.216529
vt 0.867698 0.241556
vt 0.792242 0.390486
vt 0.816451 0.468576
vt 0.792226 0.468456
vt 0.806692 0.081799
vt 0.837902 0.241541
vt 0.786368 0.004031
vt 0.786367 0.081841
vt 0.816470 0.390608
vt 0.837942 0.270840
vt 0.838052 0.212365
vt 0.867991 0.193587
vt 0.867580 0.212356
vt 0.838440 0.193560
vt 0.838146 0.319477
vt 0.867560 0.305488
vt 0.867566 0.319476
vt 0.838090 0.305430
vt 0.578936 0.634838
vt 0.577598 0.634860
vt 0.578328 0.491765
vt 0.553014 0.652157
vt 0.550081 0.652147
vt 0.550268 0.509278
vt 0.901922 0.233926
vt 0.896776 0.232806
vt 0.898154 0.230171
vt 0.553014 0.509290
vt 0.901224 0.230849
vt 0.691093 0.397381
vt 0.688872 0.397313
vt 0.690006 0.254466
vt 0.574522 0.635026
vt 0.573778 0.491938
vt 0.575460 0.491820
vt 0.896630 0.284152
vt 0.899145 0.282676
vt 0.901840 0.285292
vt 0.900386 0.287919
vt 0.897350 0.287277
vt 0.591649 0.634942
vt 0.589644 0.491868
vt 0.591760 0.491939
vt 0.899456 0.235419
vt 0.588601 0.634996
vt 0.587627 0.491795
vt 0.641252 0.695444
vt 0.648062 0.656535
vt 0.648062 0.695434
vt 0.807155 0.801360
vt 0.812239 0.801506
vt 0.812239 0.837844
vt 0.773216 0.796263
vt 0.736687 0.833701
vt 0.736686 0.797077
vt 0.773216 0.832884
vt 0.606941 0.078131
vt 0.613500 0.114491
vt 0.606941 0.114466
vt 0.641252 0.656545
vt 0.613500 0.078157
vt 0.780676 0.801413
vt 0.807147 0.837970
vt 0.780662 0.838024
vt 0.691267 0.405951
vt 0.684457 0.444860
vt 0.684457 0.405962
vt 0.691267 0.444850
vt 0.901147 0.356206
vt 0.899019 0.357634
vt 0.896776 0.355426
vt 0.870421 0.075141
vt 0.870475 0.077689
vt 0.837961 0.078014
vt 0.899744 0.353636
vt 0.870355 0.059387
vt 0.837970 0.061175
vt 0.837917 0.058776
vt 0.870523 0.061962
vt 0.870337 0.058266
vt 0.838090 0.062579
vt 0.896630 0.371326
vt 0.898730 0.370100
vt 0.900988 0.372310
vt 0.870338 0.090429
vt 0.838083 0.092705
vt 0.838093 0.090429
vt 0.870329 0.092856
vt 0.838083 0.075030
vt 0.897967 0.374117
vt 0.901147 0.364632
vt 0.896719 0.363992
vt 0.899744 0.362062
vt 0.870338 0.097571
vt 0.870329 0.099998
vt 0.838083 0.099846
vt 0.870355 0.067700
vt 0.837970 0.069488
vt 0.837917 0.067089
vt 0.870523 0.070275
vt 0.899019 0.366060
vt 0.870337 0.066579
vt 0.838090 0.070893
vt 0.896630 0.379754
vt 0.898730 0.378527
vt 0.900927 0.380590
vt 0.838093 0.097571
vt 0.897967 0.382544
vt 0.870421 0.082909
vt 0.837961 0.085782
vt 0.838083 0.082798
vt 0.870475 0.085457
vt 0.781912 0.040062
vt 0.781880 0.135988
vt 0.772765 0.136003
vt 0.756074 0.603135
vt 0.746938 0.654313
vt 0.746971 0.603327
vt 0.788380 0.790533
vt 0.734226 0.659435
vt 0.788355 0.659384
vt 0.755980 0.654163
vt 0.749347 0.164749
vt 0.803501 0.295845
vt 0.749371 0.295895
vt 0.772854 0.040018
vt 0.803477 0.164698
vt 0.734250 0.790583
vt 0.781938 0.301361
vt 0.781917 0.427579
vt 0.772859 0.427562
vt 0.781831 0.003096
vt 0.772708 0.003106
vt 0.772825 0.301398
vt 0.819930 0.155535
vt 0.810234 0.100097
vt 0.821971 0.100204
vt 0.806731 0.104451
vt 0.874597 0.236476
vt 0.888964 0.236476
vt 0.877222 0.239877
vt 0.825057 0.104510
vt 0.823471 0.151292
vt 0.806712 0.153355
vt 0.858521 0.712029
vt 0.842648 0.723500
vt 0.845230 0.710509
vt 0.860284 0.723499
vt 0.662623 0.701360
vt 0.671636 0.753494
vt 0.662593 0.760192
vt 0.671616 0.708066
vt 0.720218 0.694181
vt 0.707021 0.728719
vt 0.708142 0.693913
vt 0.719808 0.729307
vt 0.760070 0.150615
vt 0.705477 0.159708
vt 0.701237 0.150586
vt 0.753321 0.159799
vt 0.727970 0.685168
vt 0.723076 0.682054
vt 0.888965 0.194367
vt 0.878162 0.198781
vt 0.874596 0.194367
vt 0.515791 0.705743
vt 0.527070 0.760227
vt 0.515805 0.755710
vt 0.662366 0.764715
vt 0.527151 0.764715
vt 0.526938 0.701303
vt 0.515777 0.701241
vt 0.527046 0.696742
vt 0.519615 0.518433
vt 0.514861 0.650427
vt 0.514851 0.519630
vt 0.888974 0.232476
vt 0.874596 0.232476
vt 0.886336 0.229093
vt 0.532827 0.508651
vt 0.521221 0.508720
vt 0.537246 0.518429
vt 0.755646 0.003585
vt 0.701193 0.015064
vt 0.705920 0.003674
vt 0.886857 0.386260
vt 0.878028 0.391525
vt 0.874596 0.386260
vt 0.519600 0.649033
vt 0.537187 0.649095
vt 0.542213 0.519548
vt 0.764715 0.015067
vt 0.760105 0.014981
vt 0.764714 0.150391
vt 0.837872 0.720226
vt 0.724776 0.582741
vt 0.705490 0.681686
vt 0.707139 0.582395
vt 0.520332 0.660846
vt 0.523163 0.659662
vt 0.533843 0.659662
vt 0.542188 0.650207
vt 0.700645 0.684812
vt 0.632910 0.770486
vt 0.667376 0.824999
vt 0.634585 0.828299
vt 0.661444 0.829521
vt 0.632152 0.828346
vt 0.631620 0.774799
vt 0.764322 0.317786
vt 0.713203 0.337600
vt 0.707683 0.317494
vt 0.754552 0.337588
vt 0.708660 0.337457
vt 0.703103 0.317342
vt 0.737985 0.164079
vt 0.731659 0.182585
vt 0.710359 0.182631
vt 0.710108 0.255200
vt 0.735261 0.267219
vt 0.704154 0.258265
vt 0.734996 0.308673
vt 0.738004 0.267212
vt 0.825200 0.632942
vt 0.768808 0.632810
vt 0.819914 0.611683
vt 0.713243 0.436751
vt 0.754588 0.436743
vt 0.764356 0.598180
vt 0.757393 0.577444
vt 0.763136 0.576240
vt 0.762949 0.480695
vt 0.762107 0.598275
vt 0.736314 0.577648
vt 0.757338 0.481743
vt 0.819898 0.512583
vt 0.778342 0.611715
vt 0.778414 0.512568
vt 0.667501 0.785968
vt 0.870046 0.140131
vt 0.842734 0.144576
vt 0.837877 0.140196
vt 0.824332 0.512573
vt 0.892111 0.117666
vt 0.874596 0.117666
vt 0.876961 0.111805
vt 0.864675 0.479359
vt 0.865973 0.501349
vt 0.858779 0.482409
vt 0.708667 0.436704
vt 0.703385 0.457865
vt 0.764714 0.462942
vt 0.759170 0.436874
vt 0.764551 0.457871
vt 0.760063 0.457741
vt 0.735976 0.482016
vt 0.764156 0.462939
vt 0.730464 0.576463
vt 0.730143 0.480766
vt 0.863087 0.501312
vt 0.731257 0.255294
vt 0.837841 0.482461
vt 0.824317 0.611588
vt 0.738770 0.306645
vt 0.738184 0.308884
vt 0.761136 0.463018
vt 0.869725 0.166601
vt 0.869666 0.167756
vt 0.837975 0.167384
vt 0.869747 0.160616
vt 0.838050 0.161388
vt 0.837976 0.160275
vt 0.869701 0.161863
vt 0.838093 0.165990
vt 0.896958 0.335868
vt 0.901678 0.335713
vt 0.901683 0.337519
vt 0.896908 0.337331
vt 0.896593 0.155255
vt 0.902395 0.155355
vt 0.902358 0.157006
vt 0.896600 0.157060
vt 0.896958 0.341713
vt 0.901678 0.341558
vt 0.901683 0.343363
vt 0.896908 0.343176
vt 0.896593 0.161099
vt 0.902395 0.161200
vt 0.902358 0.162850
vt 0.896600 0.162904
vt 0.883192 0.537653
vt 0.874761 0.530619
vt 0.883151 0.530578
vt 0.874803 0.537695
vt 0.874598 0.553219
vt 0.882482 0.553340
vt 0.882429 0.558602
vt 0.874597 0.813326
vt 0.881377 0.813277
vt 0.881326 0.818548
vt 0.874596 0.818454
vt 0.874596 0.432629
vt 0.880383 0.432571
vt 0.880325 0.437842
vt 0.874596 0.437805
vt 0.874762 0.507865
vt 0.883151 0.507823
vt 0.883192 0.514898
vt 0.874803 0.514940
vt 0.874597 0.558385
vt 0.885577 0.432650
vt 0.885577 0.437778
vt 0.869811 0.155085
vt 0.837997 0.155855
vt 0.838059 0.154518
vt 0.869912 0.149085
vt 0.869856 0.150341
vt 0.837947 0.149865
vt 0.869647 0.156234
vt 0.838081 0.148706
vt 0.896593 0.172788
vt 0.902358 0.174539
vt 0.896600 0.174593
vt 0.896958 0.347557
vt 0.901683 0.349208
vt 0.896908 0.349020
vt 0.901678 0.347402
vt 0.902395 0.172888
vt 0.896958 0.330024
vt 0.901683 0.331674
vt 0.896908 0.331487
vt 0.901678 0.329869
vt 0.896593 0.166943
vt 0.902358 0.168695
vt 0.896600 0.168748
vt 0.902395 0.167044
vt 0.874598 0.562741
vt 0.882429 0.568124
vt 0.874597 0.567907
vt 0.880383 0.442105
vt 0.885577 0.442184
vt 0.885577 0.447311
vt 0.883192 0.549031
vt 0.874761 0.541997
vt 0.883151 0.541956
vt 0.882482 0.562862
vt 0.874597 0.822859
vt 0.881327 0.828080
vt 0.874596 0.827986
vt 0.874762 0.519242
vt 0.883151 0.519201
vt 0.883192 0.526276
vt 0.874803 0.549073
vt 0.881377 0.822810
vt 0.874597 0.442162
vt 0.880326 0.447376
vt 0.874596 0.447338
vt 0.874803 0.526317
vt 0.865449 0.609689
vt 0.851220 0.617967
vt 0.841621 0.615219
vt 0.851587 0.624037
vt 0.843931 0.622472
vt 0.838243 0.607929
vt 0.845484 0.897999
vt 0.856041 0.897989
vt 0.855606 0.906731
vt 0.853338 0.597405
vt 0.860954 0.598968
vt 0.853371 0.855629
vt 0.847973 0.846557
vt 0.856284 0.846579
vt 0.844589 0.855611
vt 0.860802 0.615059
vt 0.843151 0.600494
vt 0.865014 0.603129
vt 0.858056 0.855470
vt 0.844938 0.906740
vt 0.837841 0.897983
vt 0.837841 0.906724
vt 0.850851 0.760886
vt 0.840111 0.760140
vt 0.840866 0.751887
vt 0.858017 0.759659
vt 0.851530 0.752439
vt 0.840082 0.846587
vt 0.865762 0.366468
vt 0.846807 0.381643
vt 0.839071 0.374508
vt 0.854994 0.355668
vt 0.861475 0.359116
vt 0.839079 0.364074
vt 0.857495 0.381320
vt 0.846818 0.356658
vt 0.864576 0.374581
vt 0.837963 0.855603
vt 0.858260 0.751196
vt 0.859669 0.622445
vt 0.863930 0.619522
vt 0.840290 0.974904
vt 0.844374 0.972452
vt 0.849056 0.972461
vt 0.854389 0.976619
vt 0.854614 0.985403
vt 0.846662 0.989557
vt 0.840357 0.987263
vt 0.837944 0.983304
vt 0.837861 0.978958
vt 0.874596 0.062996
vt 0.876616 0.059768
vt 0.880005 0.058228
vt 0.886647 0.059118
vt 0.892094 0.065027
vt 0.888472 0.070900
vt 0.881917 0.071696
vt 0.877656 0.069825
vt 0.875136 0.066761
vt 0.898365 0.469400
vt 0.897032 0.468654
vt 0.897491 0.467556
vt 0.881517 0.284911
vt 0.874610 0.284340
vt 0.874837 0.283330
vt 0.881783 0.286283
vt 0.882326 0.599407
vt 0.874785 0.600573
vt 0.874916 0.599407
vt 0.896999 0.497070
vt 0.897874 0.498810
vt 0.896776 0.498441
vt 0.898220 0.497474
vt 0.874791 0.673864
vt 0.874850 0.672601
vt 0.881717 0.204892
vt 0.874766 0.203741
vt 0.875061 0.202800
vt 0.881655 0.205992
vt 0.898707 0.468396
vt 0.881789 0.600499
vt 0.881747 0.601232
vt 0.874792 0.867641
vt 0.874597 0.866636
vt 0.881144 0.866069
vt 0.874931 0.947800
vt 0.875319 0.947515
vt 0.881619 0.948127
vt 0.881819 0.286136
vt 0.887360 0.289484
vt 0.886594 0.290273
vt 0.882379 0.285347
vt 0.898179 0.258377
vt 0.896711 0.258392
vt 0.897279 0.257888
vt 0.881611 0.285568
vt 0.881385 0.285113
vt 0.887705 0.283575
vt 0.898372 0.560025
vt 0.897828 0.560990
vt 0.881133 0.206552
vt 0.881461 0.206039
vt 0.888267 0.202801
vt 0.888509 0.203618
vt 0.896870 0.260091
vt 0.875282 0.656974
vt 0.874596 0.656038
vt 0.881976 0.656038
vt 0.881755 0.756572
vt 0.881823 0.757655
vt 0.875057 0.757653
vt 0.903135 0.033814
vt 0.903298 0.034842
vt 0.897745 0.034559
vt 0.874702 0.901773
vt 0.881399 0.900933
vt 0.881377 0.902437
vt 0.874871 0.954046
vt 0.881455 0.953230
vt 0.881502 0.954811
vt 0.898005 0.259467
vt 0.902131 0.259607
vt 0.881189 0.867085
vt 0.897637 0.029441
vt 0.897341 0.027801
vt 0.903281 0.028281
vt 0.882099 0.656778
vt 0.896903 0.631676
vt 0.898170 0.630324
vt 0.898139 0.631437
vt 0.896988 0.630497
vt 0.885279 0.211937
vt 0.881570 0.949204
vt 0.902145 0.239436
vt 0.902268 0.240447
vt 0.897896 0.240193
vt 0.881405 0.779940
vt 0.881400 0.780955
vt 0.874634 0.779866
vt 0.881550 0.884390
vt 0.874822 0.885182
vt 0.874866 0.883668
vt 0.881376 0.931080
vt 0.874751 0.931943
vt 0.874703 0.930384
vt 0.902742 0.057358
vt 0.902547 0.058642
vt 0.896701 0.057583
vt 0.860802 0.553787
vt 0.863930 0.558250
vt 0.859669 0.561173
vt 0.865449 0.548417
vt 0.851220 0.556696
vt 0.841621 0.553947
vt 0.851587 0.562765
vt 0.838243 0.546658
vt 0.845484 0.872481
vt 0.856041 0.872471
vt 0.855606 0.881213
vt 0.837841 0.872465
vt 0.844938 0.881222
vt 0.837841 0.881206
vt 0.843151 0.539223
vt 0.853338 0.536134
vt 0.850851 0.788713
vt 0.840111 0.787967
vt 0.840866 0.779713
vt 0.851530 0.780266
vt 0.858017 0.787486
vt 0.860954 0.537697
vt 0.865014 0.541858
vt 0.844589 0.829161
vt 0.837963 0.829154
vt 0.840082 0.820138
vt 0.858260 0.779022
vt 0.853371 0.829180
vt 0.847973 0.820108
vt 0.856284 0.820130
vt 0.858056 0.829021
vt 0.865762 0.459327
vt 0.864576 0.467439
vt 0.857495 0.474178
vt 0.839079 0.456932
vt 0.846818 0.449516
vt 0.846807 0.474501
vt 0.854994 0.448527
vt 0.861475 0.451974
vt 0.839071 0.467366
vt 0.843931 0.561200
vt 0.892088 0.031462
vt 0.878571 0.035679
vt 0.875038 0.029768
vt 0.880547 0.023946
vt 0.885068 0.036512
vt 0.889337 0.034739
vt 0.890943 0.024892
vt 0.892592 0.027629
vt 0.887196 0.023130
vt 0.855686 0.957640
vt 0.853316 0.966126
vt 0.847006 0.968426
vt 0.855503 0.962567
vt 0.849476 0.951277
vt 0.853378 0.953498
vt 0.844695 0.951259
vt 0.839052 0.964213
vt 0.839335 0.955415
vt 0.881791 0.714411
vt 0.874810 0.714546
vt 0.881836 0.713683
vt 0.898345 0.457200
vt 0.897338 0.455669
vt 0.898156 0.455909
vt 0.896683 0.456501
vt 0.881750 0.715419
vt 0.897864 0.485538
vt 0.897828 0.487048
vt 0.896776 0.486608
vt 0.881885 0.703333
vt 0.874742 0.704263
vt 0.874785 0.703267
vt 0.881766 0.704260
vt 0.881786 0.586479
vt 0.874897 0.586840
vt 0.874861 0.585723
vt 0.897094 0.457401
vt 0.881801 0.661005
vt 0.881791 0.662439
vt 0.874779 0.662387
vt 0.875007 0.993520
vt 0.874816 0.992652
vt 0.881442 0.992607
vt 0.898412 0.553488
vt 0.897958 0.554961
vt 0.874993 0.699098
vt 0.875110 0.698104
vt 0.881550 0.698137
vt 0.881367 0.993641
vt 0.874786 0.861978
vt 0.881423 0.860872
vt 0.881559 0.861765
vt 0.875089 0.860854
vt 0.874871 0.959887
vt 0.881455 0.959071
vt 0.881502 0.960651
vt 0.903135 0.039669
vt 0.903298 0.040697
vt 0.897745 0.040414
vt 0.881755 0.762269
vt 0.881823 0.763352
vt 0.875057 0.763350
vt 0.874702 0.907613
vt 0.881399 0.906773
vt 0.881377 0.908278
vt 0.896865 0.266310
vt 0.897529 0.264111
vt 0.897263 0.106004
vt 0.896976 0.103990
vt 0.903038 0.104532
vt 0.875281 0.647081
vt 0.881990 0.646167
vt 0.882113 0.646907
vt 0.897467 0.637404
vt 0.896988 0.636218
vt 0.898159 0.636141
vt 0.902206 0.265509
vt 0.902023 0.266511
vt 0.902210 0.271094
vt 0.902210 0.272113
vt 0.898090 0.271589
vt 0.874948 0.803225
vt 0.874603 0.802401
vt 0.881689 0.802225
vt 0.874830 0.804043
vt 0.881660 0.803820
vt 0.874843 0.976763
vt 0.881584 0.977645
vt 0.881530 0.978701
vt 0.897284 0.272470
vt 0.896814 0.271346
vt 0.881550 0.878549
vt 0.874822 0.879342
vt 0.874866 0.877828
vt 0.902742 0.063276
vt 0.902547 0.064560
vt 0.896701 0.063502
vt 0.881376 0.919400
vt 0.874751 0.920263
vt 0.874703 0.918703
vt 0.881405 0.785658
vt 0.881400 0.786672
vt 0.874634 0.785584
vt 0.865449 0.579053
vt 0.860802 0.584423
vt 0.851220 0.587332
vt 0.859669 0.591809
vt 0.863930 0.588886
vt 0.851587 0.593401
vt 0.843151 0.569858
vt 0.853338 0.566770
vt 0.850851 0.774800
vt 0.840111 0.774053
vt 0.840866 0.765800
vt 0.858017 0.773573
vt 0.851530 0.766353
vt 0.858260 0.765109
vt 0.865762 0.397421
vt 0.864576 0.405533
vt 0.857495 0.412273
vt 0.846807 0.412596
vt 0.839071 0.405460
vt 0.854994 0.386621
vt 0.861475 0.390068
vt 0.853371 0.815955
vt 0.844589 0.815937
vt 0.847973 0.806883
vt 0.839079 0.395027
vt 0.840082 0.806913
vt 0.846818 0.387610
vt 0.856283 0.806905
vt 0.837841 0.859706
vt 0.844938 0.868462
vt 0.837841 0.868447
vt 0.845484 0.859722
vt 0.855606 0.868454
vt 0.841621 0.584583
vt 0.843931 0.591836
vt 0.860954 0.568332
vt 0.865014 0.572492
vt 0.837963 0.815929
vt 0.838243 0.577293
vt 0.856041 0.859712
vt 0.858056 0.815796
vt 0.877045 0.004473
vt 0.883417 0.019126
vt 0.877112 0.016832
vt 0.885811 0.002030
vt 0.891144 0.006188
vt 0.874699 0.012873
vt 0.874617 0.008527
vt 0.891369 0.014972
vt 0.881130 0.002021
vt 0.874597 0.080672
vt 0.876616 0.077443
vt 0.880005 0.075903
vt 0.886648 0.076793
vt 0.892094 0.082702
vt 0.888473 0.088576
vt 0.881917 0.089371
vt 0.877656 0.087500
vt 0.875136 0.084437
vt 0.881762 0.666831
vt 0.881761 0.668601
vt 0.874779 0.668201
vt 0.898477 0.439838
vt 0.897356 0.439841
vt 0.896839 0.438880
vt 0.897951 0.438061
vt 0.898809 0.438821
vt 0.881717 0.218048
vt 0.874766 0.216897
vt 0.875061 0.215956
vt 0.881655 0.219148
vt 0.874791 0.679669
vt 0.896999 0.479320
vt 0.897829 0.481130
vt 0.896776 0.480691
vt 0.898217 0.479717
vt 0.874850 0.678412
vt 0.874866 0.667030
vt 0.881832 0.708550
vt 0.874872 0.709586
vt 0.874860 0.708552
vt 0.881763 0.709543
vt 0.897621 0.686604
vt 0.897384 0.687277
vt 0.896592 0.686604
vt 0.874987 0.988063
vt 0.874832 0.987191
vt 0.881320 0.987665
vt 0.875125 0.726698
vt 0.874596 0.725417
vt 0.881650 0.725159
vt 0.874943 0.942758
vt 0.875322 0.941810
vt 0.881619 0.942403
vt 0.896592 0.008293
vt 0.903432 0.007450
vt 0.903353 0.008293
vt 0.897062 0.007190
vt 0.874871 0.965727
vt 0.881455 0.964911
vt 0.881502 0.966492
vt 0.881755 0.767965
vt 0.881823 0.769048
vt 0.875057 0.769046
vt 0.903135 0.051378
vt 0.903298 0.052406
vt 0.897745 0.052124
vt 0.874702 0.913454
vt 0.881399 0.912614
vt 0.881377 0.914118
vt 0.897528 0.325400
vt 0.897634 0.324094
vt 0.901814 0.325004
vt 0.898431 0.585787
vt 0.896601 0.585310
vt 0.898431 0.584641
vt 0.881517 0.726126
vt 0.881456 0.219227
vt 0.881728 0.218060
vt 0.888266 0.215957
vt 0.898181 0.589839
vt 0.897828 0.591545
vt 0.881133 0.219708
vt 0.888509 0.216774
vt 0.875283 0.652038
vt 0.874597 0.651102
vt 0.881976 0.651102
vt 0.898150 0.602726
vt 0.897033 0.601378
vt 0.898135 0.601538
vt 0.897068 0.602570
vt 0.882099 0.651843
vt 0.881570 0.943481
vt 0.902145 0.245587
vt 0.902268 0.246598
vt 0.897896 0.246344
vt 0.885279 0.225093
vt 0.902742 0.069195
vt 0.902547 0.070479
vt 0.896701 0.069420
vt 0.881376 0.936921
vt 0.874751 0.937784
vt 0.874703 0.936224
vt 0.881550 0.872709
vt 0.874822 0.873502
vt 0.874866 0.871987
vt 0.881405 0.791375
vt 0.881400 0.792390
vt 0.874634 0.791301
vt 0.865449 0.517782
vt 0.838243 0.516022
vt 0.843151 0.508587
vt 0.860802 0.523151
vt 0.851220 0.526060
vt 0.853338 0.505498
vt 0.841621 0.523311
vt 0.860954 0.507061
vt 0.865015 0.511222
vt 0.853371 0.842405
vt 0.847973 0.833333
vt 0.856283 0.833354
vt 0.844589 0.842386
vt 0.858056 0.842246
vt 0.850851 0.802626
vt 0.840111 0.801880
vt 0.840866 0.793627
vt 0.851530 0.794179
vt 0.858017 0.801399
vt 0.837963 0.842379
vt 0.840082 0.833363
vt 0.858260 0.792936
vt 0.865762 0.428374
vt 0.864576 0.436486
vt 0.857495 0.443226
vt 0.846807 0.443548
vt 0.837841 0.885224
vt 0.844938 0.893981
vt 0.837841 0.893965
vt 0.845484 0.885240
vt 0.839071 0.436413
vt 0.855606 0.893972
vt 0.839079 0.425980
vt 0.856041 0.885230
vt 0.846818 0.418563
vt 0.854994 0.417574
vt 0.859670 0.530537
vt 0.851587 0.532129
vt 0.861475 0.421021
vt 0.843931 0.530565
vt 0.863930 0.527614
vt 0.892088 0.049011
vt 0.885068 0.054060
vt 0.878571 0.053228
vt 0.875038 0.047317
vt 0.880547 0.041494
vt 0.889337 0.052288
vt 0.890943 0.042441
vt 0.892592 0.045178
vt 0.887196 0.040679
vt 0.855686 0.936415
vt 0.853316 0.944901
vt 0.847006 0.947201
vt 0.855503 0.941343
vt 0.849476 0.930053
vt 0.853378 0.932274
vt 0.844695 0.930035
vt 0.839052 0.942988
vt 0.839335 0.934191
vt 0.881608 0.297947
vt 0.881787 0.298739
vt 0.874790 0.299709
vt 0.896592 0.003147
vt 0.897072 0.002039
vt 0.903440 0.002303
vt 0.898175 0.595570
vt 0.898159 0.596847
vt 0.898479 0.444863
vt 0.898236 0.445778
vt 0.875124 0.721033
vt 0.874596 0.719757
vt 0.881650 0.719498
vt 0.903362 0.003147
vt 0.882224 0.298662
vt 0.882062 0.297792
vt 0.887341 0.294297
vt 0.896866 0.013435
vt 0.896660 0.012574
vt 0.903164 0.012653
vt 0.881750 0.808088
vt 0.881762 0.809103
vt 0.874872 0.809146
vt 0.897587 0.691333
vt 0.897459 0.692022
vt 0.896592 0.691534
vt 0.898185 0.443899
vt 0.881739 0.184247
vt 0.874726 0.182168
vt 0.875061 0.181230
vt 0.881405 0.184329
vt 0.881791 0.299752
vt 0.881853 0.640653
vt 0.881921 0.641389
vt 0.874810 0.641208
vt 0.874860 0.808111
vt 0.881755 0.773662
vt 0.881823 0.774745
vt 0.875057 0.774743
vt 0.903135 0.045524
vt 0.903298 0.046551
vt 0.897745 0.046269
vt 0.874702 0.895933
vt 0.881399 0.895093
vt 0.881377 0.896597
vt 0.874871 0.971567
vt 0.881455 0.970751
vt 0.881502 0.972332
vt 0.898001 0.291977
vt 0.897247 0.293352
vt 0.896599 0.292357
vt 0.882262 0.185015
vt 0.881982 0.184248
vt 0.888335 0.181515
vt 0.888762 0.182953
vt 0.898150 0.608429
vt 0.897068 0.608274
vt 0.897764 0.607180
vt 0.881517 0.720465
vt 0.898011 0.293063
vt 0.902130 0.292544
vt 0.881641 0.184159
vt 0.881133 0.184982
vt 0.886104 0.189870
vt 0.885279 0.190367
vt 0.881801 0.184612
vt 0.887982 0.295166
vt 0.896913 0.253222
vt 0.897438 0.251825
vt 0.898115 0.252723
vt 0.881801 0.184563
vt 0.882507 0.183863
vt 0.886758 0.189306
vt 0.881550 0.890230
vt 0.874822 0.891024
vt 0.874866 0.889508
vt 0.881405 0.797093
vt 0.881400 0.798107
vt 0.874634 0.797019
vt 0.902742 0.075113
vt 0.902547 0.076397
vt 0.896701 0.075338
vt 0.881376 0.925240
vt 0.874751 0.926103
vt 0.874703 0.924544
vt 0.874604 0.341762
vt 0.886929 0.348974
vt 0.874769 0.349074
vt 0.886781 0.341858
vt 0.876600 0.458756
vt 0.874596 0.458588
vt 0.874607 0.451788
vt 0.887524 0.327011
vt 0.874597 0.324387
vt 0.887509 0.324404
vt 0.885414 0.458854
vt 0.876624 0.451625
vt 0.885431 0.451526
vt 0.874765 0.311118
vt 0.887802 0.313721
vt 0.874779 0.313725
vt 0.874712 0.693485
vt 0.874727 0.690961
vt 0.881858 0.690964
vt 0.874597 0.327031
vt 0.887788 0.311114
vt 0.881689 0.693494
vt 0.874716 0.581512
vt 0.882314 0.578991
vt 0.882151 0.581528
vt 0.874733 0.578990
vt 0.886602 0.398144
vt 0.874596 0.398160
vt 0.874597 0.395525
vt 0.886589 0.395539
vt 0.874611 0.420651
vt 0.885920 0.420748
vt 0.886080 0.428313
vt 0.874786 0.428417
vt 0.874763 0.373005
vt 0.886870 0.373004
vt 0.886882 0.375608
vt 0.876603 0.503561
vt 0.874597 0.503397
vt 0.874608 0.496135
vt 0.876625 0.495979
vt 0.884788 0.503659
vt 0.874775 0.375610
vt 0.884805 0.495876
vt 0.885414 0.470231
vt 0.876624 0.463002
vt 0.885431 0.462903
vt 0.876601 0.470134
vt 0.874607 0.463166
vt 0.874765 0.304473
vt 0.887802 0.307077
vt 0.874779 0.307080
vt 0.874713 0.686847
vt 0.874727 0.684323
vt 0.881858 0.684326
vt 0.887524 0.320367
vt 0.874597 0.320387
vt 0.874597 0.317742
vt 0.874604 0.353123
vt 0.886929 0.360335
vt 0.874769 0.360436
vt 0.886781 0.353219
vt 0.874597 0.469965
vt 0.887509 0.317759
vt 0.881689 0.686857
vt 0.887788 0.304470
vt 0.876603 0.491722
vt 0.874597 0.491558
vt 0.874608 0.484297
vt 0.874611 0.408829
vt 0.886080 0.416491
vt 0.874786 0.416595
vt 0.886602 0.404779
vt 0.874597 0.402160
vt 0.886590 0.402174
vt 0.885920 0.408926
vt 0.874716 0.574869
vt 0.882314 0.572349
vt 0.882151 0.574885
vt 0.874763 0.379641
vt 0.886870 0.379639
vt 0.886882 0.382243
vt 0.874775 0.382246
vt 0.884788 0.491820
vt 0.876625 0.484141
vt 0.884805 0.484038
vt 0.874597 0.404795
vt 0.874733 0.572348
vt 0.857922 0.916158
vt 0.838702 0.910878
vt 0.857933 0.910742
vt 0.838536 0.915998
vt 0.837841 0.655641
vt 0.863560 0.660984
vt 0.837963 0.661044
vt 0.863462 0.655712
vt 0.885299 0.479957
vt 0.875089 0.474364
vt 0.885380 0.474385
vt 0.874973 0.479874
vt 0.874755 0.243933
vt 0.888428 0.249558
vt 0.874768 0.249491
vt 0.888428 0.243998
vt 0.837889 0.638655
vt 0.866447 0.638885
vt 0.837862 0.639491
vt 0.837841 0.736340
vt 0.858951 0.735936
vt 0.858906 0.736646
vt 0.868468 0.295972
vt 0.837961 0.295679
vt 0.868437 0.295301
vt 0.838082 0.275013
vt 0.868352 0.275543
vt 0.838000 0.275928
vt 0.837841 0.746620
vt 0.858951 0.746242
vt 0.858906 0.746951
vt 0.837889 0.633506
vt 0.866448 0.633766
vt 0.837862 0.634341
vt 0.881320 0.286159
vt 0.881525 0.285924
vt 0.881784 0.286278
vt 0.881742 0.204919
vt 0.896912 0.696099
vt 0.897094 0.696581
vt 0.896655 0.696390
vt 0.881745 0.298032
vt 0.881795 0.184543
vt 0.874836 0.976738
vt 0.875331 0.976592
vt 0.875245 0.978079
vt 0.897867 0.259511
vt 0.896848 0.259863
vt 0.882032 0.704345
vt 0.874945 0.942759
vt 0.874839 0.941902
vt 0.875328 0.941848
vt 0.881638 0.298967
vt 0.898214 0.635772
vt 0.896592 0.029094
vt 0.896672 0.028318
vt 0.897177 0.027802
vt 0.874866 0.661217
vt 0.874704 0.606294
vt 0.875210 0.605254
vt 0.882128 0.606190
vt 0.896856 0.555136
vt 0.896592 0.023069
vt 0.896672 0.022293
vt 0.897470 0.022492
vt 0.886148 0.189834
s 1
usemtl parking_001_baked
f 3/1/1 1/2/1 2/3/1
f 3/1/1 2/3/1 4/4/1
f 8/5/2 6/6/2 7/7/2
f 8/5/2 7/7/2 9/8/2
f 10/9/3 11/10/3 12/11/3
f 10/9/3 12/11/3 13/12/3
f 16/13/4 14/14/4 15/15/4
f 16/13/4 15/15/4 17/16/4
f 18/17/5 19/18/5 20/19/5
f 18/17/5 20/19/5 21/20/5
f 419/21/6 423/22/6 580/23/6
f 598/24/7 320/25/7 582/26/7
f 373/27/8 366/28/9 590/29/10
f 600/30/11 445/31/11 434/32/11
f 290/33/12 599/34/12 598/35/12
f 569/36/13 317/37/13 305/38/13
f 560/39/14 375/40/14 355/41/14
f 414/42/15 601/43/15 600/44/15
f 419/45/16 439/46/16 423/47/16
f 571/48/13 444/49/13 433/50/13
f 481/51/17 485/52/17 477/53/17
f 503/54/18 603/55/19 483/56/20
f 319/57/21 569/58/22 568/59/23
f 443/60/24 571/61/22 570/62/25
f 576/63/26 374/64/26 379/65/26
f 604/66/27 497/67/27 500/68/27
f 22/69/28 29/70/29 23/71/30
f 24/72/31 22/73/28 23/74/30
f 26/75/32 22/76/28 24/77/31
f 26/75/32 25/78/33 22/76/28
f 22/69/28 25/79/33 29/70/29
f 24/72/31 23/74/30 27/80/34
f 27/81/34 23/82/30 29/83/29
f 26/84/32 24/85/31 27/86/34
f 25/87/33 26/84/32 28/88/35
f 25/87/33 28/88/35 29/89/29
f 26/84/32 27/86/34 28/88/35
f 27/81/34 29/83/29 28/90/35
f 35/91/36 31/92/37 30/93/38
f 35/94/36 30/95/38 33/96/39
f 30/97/38 34/98/40 33/99/39
f 30/97/38 31/100/37 34/98/40
f 31/101/37 37/102/41 34/103/40
f 35/91/36 36/104/42 31/92/37
f 31/101/37 36/105/42 37/102/41
f 36/106/42 32/107/43 37/108/41
f 36/106/42 35/94/36 32/107/43
f 35/94/36 33/96/39 32/107/43
f 33/109/39 37/110/41 32/111/43
f 33/109/39 34/112/40 37/110/41
f 38/113/38 39/114/40 45/115/39
f 38/113/38 43/116/37 39/114/40
f 42/117/36 38/118/38 45/119/39
f 42/120/36 43/121/37 38/122/38
f 45/123/39 39/124/40 44/125/41
f 43/126/37 44/127/41 39/128/40
f 45/123/39 44/125/41 40/129/43
f 41/130/42 42/117/36 40/131/43
f 41/130/42 40/131/43 44/132/41
f 42/117/36 45/119/39 40/131/43
f 42/120/36 41/133/42 43/121/37
f 43/126/37 41/134/42 44/127/41
f 51/135/44 46/136/45 49/137/46
f 50/138/47 52/139/48 46/140/45
f 50/138/47 46/140/45 51/141/44
f 52/142/48 49/143/46 46/144/45
f 47/145/49 48/146/50 49/147/46
f 47/145/49 53/148/51 48/146/50
f 52/142/48 47/149/49 49/143/46
f 53/150/51 47/151/49 52/152/48
f 53/148/51 51/153/44 48/146/50
f 51/135/44 49/137/46 48/154/50
f 53/148/51 50/155/47 51/153/44
f 53/150/51 52/152/48 50/156/47
f 55/157/52 54/158/53 56/159/54
f 57/160/55 54/161/53 55/162/52
f 55/157/52 56/159/54 57/163/55
f 57/160/55 56/164/54 54/161/53
f 60/165/56 61/166/57 58/167/58
f 58/168/58 61/169/57 59/170/59
f 58/168/58 59/170/59 60/171/56
f 60/165/56 59/172/59 61/166/57
f 64/173/60 63/174/61 62/175/62
f 64/173/60 65/176/63 63/174/61
f 62/177/62 65/178/63 64/179/60
f 62/177/62 63/180/61 65/178/63
f 66/181/64 69/182/65 67/183/66
f 67/184/66 68/185/67 66/186/64
f 66/181/64 68/187/67 69/182/65
f 67/184/66 69/188/65 68/185/67
f 74/189/68 71/190/69 70/191/70
f 70/192/70 71/193/69 75/194/71
f 70/192/70 75/194/71 72/195/72
f 74/196/68 70/197/70 72/198/72
f 74/189/68 73/199/73 71/190/69
f 71/200/69 73/201/73 76/202/74
f 71/200/69 76/202/74 75/203/71
f 72/204/72 76/205/74 77/206/75
f 72/204/72 75/207/71 76/205/74
f 74/196/68 72/198/72 77/208/75
f 73/209/73 74/196/68 77/208/75
f 73/209/73 77/208/75 76/210/74
f 85/211/76 83/212/76 78/213/76
f 78/214/77 83/215/78 79/216/79
f 85/217/80 78/218/77 82/219/81
f 78/214/77 79/216/79 82/220/81
f 82/221/82 79/222/82 84/223/82
f 83/224/78 84/225/83 79/226/79
f 80/227/84 81/228/85 84/229/83
f 80/227/84 85/217/80 81/228/85
f 83/224/78 80/230/84 84/225/83
f 85/211/76 80/231/76 83/212/76
f 85/217/80 82/219/81 81/228/85
f 82/221/82 84/223/82 81/232/82
f 89/233/68 86/234/69 88/235/70
f 89/233/68 87/236/73 86/234/69
f 88/237/70 86/238/69 90/239/71
f 86/240/69 87/241/73 91/242/74
f 86/240/69 91/242/74 90/243/71
f 87/244/73 89/245/68 93/246/75
f 87/244/73 93/246/75 91/247/74
f 88/237/70 90/239/71 92/248/72
f 89/245/68 88/249/70 92/250/72
f 89/245/68 92/250/72 93/246/75
f 92/251/72 90/252/71 91/253/74
f 92/251/72 91/253/74 93/254/75
f 94/255/80 101/256/81 96/257/85
f 94/255/80 95/258/77 101/256/81
f 94/259/76 97/260/76 98/261/76
f 97/262/84 94/255/80 96/257/85
f 94/259/76 98/261/76 95/263/76
f 95/264/77 98/265/78 100/266/79
f 95/264/77 100/266/79 101/267/81
f 97/262/84 96/257/85 99/268/83
f 101/269/82 99/270/82 96/271/82
f 98/272/78 97/273/84 99/274/83
f 98/272/78 99/274/83 100/275/79
f 101/269/82 100/276/82 99/270/82
f 106/277/72 104/278/74 102/279/75
f 103/280/73 109/281/68 102/282/75
f 103/280/73 102/282/75 104/283/74
f 109/281/68 106/284/72 102/282/75
f 108/285/69 103/286/73 104/287/74
f 109/288/68 103/289/73 108/290/69
f 108/285/69 104/287/74 107/291/71
f 106/277/72 107/292/71 104/278/74
f 105/293/70 107/294/71 106/295/72
f 105/293/70 108/296/69 107/294/71
f 109/281/68 105/297/70 106/284/72
f 109/288/68 108/290/69 105/298/70
f 112/299/82 110/300/82 113/301/82
f 117/302/77 114/303/78 110/304/79
f 117/302/77 110/304/79 112/305/81
f 114/306/78 113/307/83 110/308/79
f 116/309/84 111/310/85 113/311/83
f 116/309/84 115/312/80 111/310/85
f 115/312/80 112/313/81 111/310/85
f 112/299/82 113/301/82 111/314/82
f 115/312/80 117/315/77 112/313/81
f 114/306/78 116/316/84 113/307/83
f 115/317/76 114/318/76 117/319/76
f 115/317/76 116/320/76 114/318/76
f 118/321/86 119/322/87 120/323/88
f 118/321/86 125/324/89 119/322/87
f 122/325/90 118/326/86 120/327/88
f 122/328/90 125/329/89 118/330/86
f 120/331/88 119/332/87 124/333/91
f 125/334/89 124/335/91 119/336/87
f 122/325/90 120/327/88 123/337/92
f 120/331/88 124/333/91 123/338/92
f 121/339/93 123/337/92 124/340/91
f 121/339/93 122/325/90 123/337/92
f 125/334/89 121/341/93 124/335/91
f 122/328/90 121/342/93 125/329/89
f 126/343/94 129/344/95 128/345/96
f 126/343/94 127/346/97 129/344/95
f 127/347/97 128/348/96 129/349/95
f 127/347/97 126/350/94 128/348/96
f 130/351/98 139/352/99 135/353/100
f 132/354/101 131/355/102 137/356/103
f 139/357/99 131/358/102 132/359/101
f 132/354/101 137/356/103 133/360/104
f 139/357/99 132/359/101 136/361/105
f 136/362/105 132/363/101 133/364/104
f 136/365/105 133/366/104 134/367/106
f 134/368/106 133/369/104 137/370/103
f 134/368/106 137/370/103 138/371/107
f 139/352/99 134/367/106 135/353/100
f 139/352/99 136/365/105 134/367/106
f 134/368/106 138/371/107 135/372/100
f 131/373/102 138/374/107 137/375/103
f 139/357/99 130/376/98 131/358/102
f 131/373/102 130/377/98 138/374/107
f 130/377/98 135/378/100 138/374/107
f 143/379/108 141/380/109 140/381/110
f 143/382/108 140/383/110 144/384/111
f 140/385/1 147/386/1 144/387/112
f 140/385/1 141/388/113 147/386/1
f 141/389/109 146/390/114 147/391/115
f 143/379/108 145/392/116 141/380/109
f 141/389/109 145/393/116 146/390/114
f 145/394/117 142/395/117 146/396/118
f 145/394/117 143/382/119 142/395/117
f 143/382/108 144/384/111 142/395/120
f 144/397/111 146/398/114 142/399/120
f 144/397/111 147/400/115 146/398/114
f 149/401/121 148/402/122 154/403/123
f 154/404/123 148/405/122 151/406/124
f 149/401/121 154/403/123 150/407/125
f 149/408/121 155/409/126 151/410/124
f 149/408/121 150/411/125 155/409/126
f 148/412/122 149/408/121 151/410/124
f 150/411/125 152/413/127 155/409/126
f 155/414/126 152/415/127 153/416/128
f 150/417/125 153/418/128 152/419/127
f 150/417/125 154/420/123 153/418/128
f 154/404/123 151/406/124 153/421/128
f 155/414/126 153/416/128 151/422/124
f 157/423/121 156/424/123 162/425/125
f 162/426/125 156/427/123 159/428/128
f 157/429/121 160/430/126 161/431/124
f 157/429/121 162/432/125 160/430/126
f 157/423/121 163/433/122 156/424/123
f 163/434/122 157/429/121 161/431/124
f 162/432/125 158/435/127 160/430/126
f 160/436/126 158/437/127 159/438/128
f 162/426/125 159/428/128 158/439/127
f 160/436/126 159/438/128 161/440/124
f 156/441/123 161/442/124 159/443/128
f 156/441/123 163/444/122 161/442/124
f 167/445/129 164/446/130 165/447/131
f 164/448/130 169/449/132 165/450/131
f 167/451/76 168/452/76 164/453/76
f 164/448/130 168/454/133 169/449/132
f 165/455/82 170/456/82 171/457/82
f 167/445/129 165/447/131 171/458/134
f 165/455/82 169/459/82 170/456/82
f 167/451/76 166/460/76 168/452/76
f 168/461/133 166/462/135 170/463/136
f 166/464/135 171/458/134 170/465/136
f 166/464/135 167/445/129 171/458/134
f 168/461/133 170/463/136 169/466/132
f 172/467/137 179/468/138 180/469/139
f 172/467/137 181/470/140 179/468/138
f 176/471/141 191/472/142 172/473/137
f 172/467/137 178/474/143 176/475/141
f 172/467/137 184/476/144 181/470/140
f 172/477/137 183/478/145 184/479/144
f 172/477/137 191/480/142 183/478/145
f 172/467/137 180/469/139 178/474/143
f 186/481/146 173/482/147 192/483/148
f 186/481/146 193/484/149 173/482/147
f 173/485/147 174/486/150 197/487/151
f 173/485/147 193/488/149 174/486/150
f 195/489/152 174/490/153 188/491/154
f 195/489/152 197/492/151 174/490/153
f 192/493/155 173/485/155 198/494/155
f 198/494/156 173/485/147 197/487/151
f 176/495/141 175/496/157 191/497/158
f 178/498/143 175/499/157 176/500/141
f 175/499/159 198/501/156 191/502/160
f 175/499/159 192/483/161 198/501/156
f 178/498/143 177/503/162 175/499/157
f 177/503/162 178/498/143 180/504/139
f 177/503/162 186/481/146 192/483/163
f 185/505/164 177/503/162 180/504/165
f 185/506/164 186/507/146 177/508/162
f 181/509/140 182/510/166 179/511/138
f 179/512/138 185/506/167 180/513/139
f 179/512/138 182/514/166 185/506/167
f 184/515/168 189/516/169 181/517/170
f 181/518/170 189/519/169 182/520/171
f 182/514/172 194/521/173 185/506/174
f 182/514/172 187/522/175 194/521/173
f 189/523/176 187/522/175 182/514/172
f 183/524/177 195/489/152 190/525/178
f 183/524/177 196/526/179 195/489/152
f 183/478/177 190/527/178 184/479/168
f 191/528/160 196/529/179 183/530/180
f 184/515/168 190/525/178 189/516/169
f 185/506/164 194/521/173 186/507/146
f 194/521/173 193/531/149 186/507/146
f 187/522/175 193/532/149 194/521/173
f 187/522/175 174/533/181 193/532/149
f 189/523/176 188/534/182 187/522/175
f 188/534/183 174/533/183 187/522/183
f 190/525/178 195/489/152 188/491/184
f 191/528/160 198/494/156 196/529/179
f 196/529/179 197/487/151 195/535/152
f 198/494/156 197/487/151 196/529/179
f 5/536/185 209/537/186 199/538/187
f 199/538/187 209/537/186 210/539/188
f 5/536/185 200/540/189 205/541/190
f 200/542/189 213/543/191 205/544/190
f 200/542/189 202/545/192 213/543/191
f 205/544/190 214/546/193 5/547/185
f 5/548/185 214/549/193 212/550/194
f 5/536/185 199/538/187 200/540/189
f 222/551/195 201/552/195 221/553/195
f 218/554/196 201/552/197 216/555/198
f 201/556/197 218/557/196 221/558/199
f 202/545/200 206/559/201 213/543/202
f 202/545/200 208/560/203 206/559/201
f 200/561/189 203/562/204 202/563/205
f 203/562/206 208/564/207 202/563/208
f 199/565/187 203/562/204 200/561/189
f 199/565/187 210/566/209 203/562/204
f 203/562/206 207/567/210 208/564/207
f 210/566/188 207/567/210 203/562/206
f 204/568/211 220/569/212 209/570/186
f 204/568/211 221/558/199 220/569/212
f 5/536/185 204/571/211 209/537/186
f 5/572/185 212/573/194 204/574/213
f 212/575/214 221/558/215 204/568/216
f 205/576/190 213/577/191 214/578/193
f 206/579/217 216/580/198 211/581/218
f 213/543/219 206/559/220 211/582/221
f 208/560/222 216/583/198 206/559/223
f 207/567/224 215/584/225 208/564/222
f 207/585/224 219/586/226 215/587/225
f 210/566/188 217/588/227 207/567/210
f 217/588/228 219/589/226 207/567/224
f 208/560/222 215/587/225 216/583/198
f 209/590/186 217/588/227 210/566/188
f 209/590/186 220/591/212 217/588/227
f 213/543/219 211/582/221 214/546/229
f 211/581/218 216/580/198 201/592/197
f 214/549/229 211/593/221 222/551/230
f 211/581/218 201/592/197 222/594/231
f 212/575/214 222/595/232 221/558/215
f 214/549/229 222/551/230 212/550/233
f 216/555/198 215/596/225 219/597/226
f 216/555/198 219/597/226 218/554/196
f 217/588/228 218/598/196 219/589/226
f 220/591/212 218/598/196 217/588/228
f 218/557/196 220/569/212 221/558/199
f 226/599/234 223/600/235 225/601/236
f 223/602/235 224/603/237 225/604/236
f 223/602/235 226/605/234 224/603/237
f 226/599/234 225/601/236 224/606/237
f 227/607/238 229/608/239 230/609/240
f 227/607/238 230/609/240 228/610/241
f 229/611/239 227/612/238 228/613/241
f 229/611/239 228/613/241 230/614/240
f 232/615/238 231/616/239 234/617/240
f 232/615/238 234/617/240 233/618/241
f 231/619/239 232/620/238 233/621/241
f 231/619/239 233/621/241 234/622/240
f 241/623/242 235/624/243 242/625/244
f 241/623/242 236/626/245 235/624/243
f 242/627/244 235/628/243 240/629/246
f 235/630/243 236/631/245 237/632/247
f 235/630/243 237/632/247 240/633/246
f 236/634/245 241/635/242 239/636/248
f 236/634/245 239/636/248 237/637/247
f 238/638/249 240/639/246 237/640/247
f 238/638/249 237/640/247 239/641/248
f 242/627/244 240/629/246 238/642/249
f 241/635/242 242/643/244 238/644/249
f 241/635/242 238/644/249 239/636/248
f 243/645/250 246/646/251 245/647/252
f 244/648/253 243/649/250 245/650/252
f 243/645/250 244/651/253 246/646/251
f 244/648/253 245/650/252 246/652/251
f 249/653/239 250/654/241 247/655/254
f 248/656/238 247/657/254 250/658/241
f 248/656/238 249/659/239 247/657/254
f 249/653/239 248/660/238 250/654/241
f 252/661/238 253/662/254 251/663/255
f 252/661/238 254/664/239 253/662/254
f 254/665/239 251/666/255 253/667/254
f 254/665/239 252/668/238 251/666/255
f 255/669/244 256/670/246 258/671/249
f 259/672/242 255/673/244 258/674/249
f 259/675/242 261/676/243 255/677/244
f 255/669/244 261/678/243 256/670/246
f 261/679/243 262/680/247 256/681/246
f 258/682/249 256/683/246 262/684/247
f 259/675/242 257/685/245 261/676/243
f 261/679/243 257/686/245 262/680/247
f 257/687/245 260/688/248 262/689/247
f 257/687/245 259/672/242 260/688/248
f 258/682/249 262/684/247 260/690/248
f 259/672/242 258/674/249 260/688/248
f 265/691/256 263/692/257 264/693/258
f 264/693/258 263/692/259 277/694/260
f 264/693/258 277/694/260 271/695/261
f 265/691/256 264/693/258 266/696/262
f 266/697/262 264/698/258 271/699/261
f 265/691/256 268/700/263 273/701/264
f 265/702/256 270/703/265 279/704/266
f 265/702/256 269/705/267 270/703/265
f 265/691/256 280/706/268 263/692/257
f 265/691/256 267/707/269 268/700/263
f 265/691/256 273/701/264 269/708/267
f 280/709/268 265/702/256 279/704/270
f 265/691/256 266/696/262 267/707/269
f 266/697/262 271/699/261 276/710/271
f 267/711/269 266/697/262 276/710/271
f 267/711/269 276/710/271 275/712/272
f 268/713/273 267/714/269 275/715/272
f 273/716/274 268/713/273 274/717/275
f 269/705/276 272/718/277 270/703/265
f 270/719/265 275/720/272 276/721/271
f 270/719/265 278/722/278 279/723/266
f 270/719/265 276/721/271 271/724/261
f 270/719/265 274/725/279 275/720/272
f 270/719/265 277/726/280 278/722/278
f 270/719/265 272/727/277 274/725/279
f 270/719/265 271/724/261 277/726/280
f 269/705/276 273/728/281 272/718/277
f 273/716/274 274/717/275 272/729/282
f 268/713/273 275/715/272 274/717/275
f 263/692/259 278/730/283 277/694/260
f 263/692/259 280/706/284 278/730/283
f 280/706/268 279/731/270 278/730/285
f 282/732/286 286/733/287 289/734/288
f 282/732/286 289/734/288 285/735/289
f 282/732/286 285/735/289 281/736/290
f 282/732/286 283/737/291 284/738/292
f 282/732/286 288/739/293 287/740/294
f 282/732/286 281/736/290 283/737/291
f 282/732/286 284/738/292 288/739/293
f 287/741/294 288/742/293 284/743/292
f 287/741/294 284/743/292 283/744/291
f 287/741/294 283/744/291 281/745/290
f 287/741/294 281/745/290 285/746/289
f 287/741/294 289/747/288 286/748/287
f 287/741/294 286/748/287 282/749/286
f 287/741/294 285/746/289 289/747/288
f 302/750/295 296/751/296 290/752/297
f 290/753/298 607/754/299 293/755/300
f 290/753/301 558/756/301 607/754/301
f 559/757/302 301/758/303 607/759/299
f 294/760/304 607/761/299 301/762/303
f 294/760/304 293/763/300 607/761/299
f 599/34/305 293/764/300 294/765/304
f 599/34/305 290/33/298 293/764/300
f 302/766/306 294/767/304 301/768/303
f 302/766/307 303/769/307 294/767/307
f 302/750/295 290/752/297 598/770/308
f 296/771/296 302/772/295 301/758/303
f 559/757/302 296/771/296 301/758/303
f 296/773/309 297/774/309 316/775/309
f 298/776/310 593/777/311 318/778/312
f 577/779/313 314/780/314 316/781/315
f 577/779/313 315/782/316 314/780/314
f 296/783/317 315/784/318 577/785/319
f 593/786/311 317/787/320 318/788/312
f 298/789/321 568/790/23 305/38/322
f 298/789/321 305/38/322 317/37/323
f 317/791/320 569/58/324 319/57/325
f 585/792/326 313/793/327 308/794/328
f 296/783/317 582/795/329 315/784/318
f 306/796/330 307/797/330 308/798/330
f 309/799/331 312/800/332 311/801/333
f 312/802/332 309/803/331 310/804/334
f 312/805/332 310/806/334 311/807/333
f 309/808/331 311/809/333 310/810/334
f 585/811/326 296/783/335 313/812/327
f 296/773/336 316/775/315 313/813/327
f 315/814/316 306/815/337 314/816/314
f 306/796/338 308/798/328 314/817/314
f 316/818/315 308/819/328 313/820/327
f 316/818/315 314/821/314 308/819/328
f 317/791/320 319/57/325 318/822/312
f 298/776/310 318/778/312 319/823/325
f 568/824/23 298/825/321 319/826/21
f 324/827/339 323/828/340 322/829/341
f 324/830/339 322/831/341 321/832/342
f 323/833/340 321/834/342 322/835/341
f 323/836/340 324/837/339 321/838/342
f 325/839/268 337/840/270 336/841/285
f 331/842/256 325/839/268 326/843/257
f 326/843/259 325/839/284 336/841/283
f 327/844/258 326/843/259 342/845/260
f 331/842/256 326/843/257 327/844/258
f 331/842/256 327/844/258 339/846/262
f 339/847/262 327/848/258 341/849/261
f 328/850/269 340/851/271 335/852/272
f 331/842/256 339/846/262 328/853/269
f 328/850/269 339/847/262 340/851/271
f 331/842/256 328/853/269 329/854/263
f 329/855/273 328/856/269 335/857/272
f 329/855/273 335/857/272 334/858/275
f 330/859/274 329/855/273 334/858/275
f 331/842/256 330/860/264 338/861/267
f 338/862/276 330/863/281 333/864/277
f 330/859/274 334/858/275 333/865/282
f 331/842/256 329/854/263 330/860/264
f 331/866/256 332/867/265 337/868/266
f 331/866/256 338/862/267 332/867/265
f 325/869/268 331/866/256 337/868/270
f 332/870/265 333/871/277 334/872/279
f 332/870/265 341/873/261 342/874/280
f 332/870/265 334/872/279 335/875/272
f 332/870/265 336/876/278 337/877/266
f 332/870/265 342/874/280 336/876/278
f 332/870/265 340/878/271 341/873/261
f 332/870/265 335/875/272 340/878/271
f 338/862/276 333/864/277 332/867/265
f 326/843/259 336/841/283 342/845/260
f 339/847/262 341/849/261 340/851/271
f 327/844/258 342/845/260 341/879/261
f 343/880/343 350/881/344 349/882/345
f 343/880/343 349/882/345 348/883/346
f 343/880/343 346/884/347 350/881/344
f 343/880/343 351/885/348 346/884/347
f 343/880/343 347/886/349 345/887/350
f 343/880/343 344/888/351 347/886/349
f 343/880/343 348/883/346 344/888/351
f 345/889/350 344/890/351 348/891/346
f 345/889/350 347/892/349 344/890/351
f 345/889/350 351/893/348 343/894/343
f 345/889/350 346/895/347 351/893/348
f 345/889/350 348/891/346 349/896/345
f 345/889/350 350/897/344 346/895/347
f 345/889/350 349/896/345 350/897/344
f 562/898/352 353/899/353 602/900/354
f 360/901/355 562/902/352 563/903/356
f 360/901/355 354/904/357 562/902/352
f 562/898/352 354/905/357 353/899/353
f 353/906/358 561/907/359 361/908/360
f 360/909/355 353/910/358 361/911/360
f 360/909/355 602/912/361 353/910/358
f 354/913/362 561/914/359 353/915/358
f 360/901/355 356/916/363 354/904/357
f 356/917/363 360/918/355 361/919/360
f 579/920/364 357/921/365 367/922/366
f 374/64/367 594/923/368 575/924/369
f 366/925/370 579/926/371 372/927/372
f 579/920/364 367/922/366 372/928/372
f 596/929/373 377/930/374 597/931/375
f 596/929/373 374/932/376 377/930/374
f 362/933/331 365/934/333 364/935/334
f 363/936/332 362/937/331 364/938/334
f 362/939/331 363/940/332 365/941/333
f 363/942/332 364/943/334 365/944/333
f 366/28/377 370/945/378 357/946/365
f 357/947/365 370/948/378 367/949/366
f 370/950/379 574/951/379 367/952/379
f 372/953/372 367/954/366 368/955/380
f 366/28/370 372/956/372 368/957/380
f 575/958/369 594/959/368 376/960/381
f 576/961/382 575/962/369 376/963/381
f 374/964/376 576/961/383 377/965/374
f 575/924/369 379/65/384 374/64/367
f 594/966/385 597/967/375 376/968/381
f 576/961/382 376/963/381 377/965/374
f 597/969/375 377/970/374 376/960/381
f 383/971/339 386/972/341 385/973/342
f 384/974/340 383/975/339 385/976/342
f 384/977/340 385/978/342 386/979/341
f 383/980/339 384/981/340 386/982/341
f 404/983/256 387/984/268 388/985/257
f 388/985/259 387/984/284 403/986/283
f 387/984/268 396/987/270 403/986/285
f 388/985/259 403/986/283 395/988/260
f 404/983/256 389/989/269 400/990/263
f 400/991/273 389/992/269 392/993/272
f 399/994/274 390/995/275 398/996/282
f 391/997/265 398/998/277 390/999/279
f 399/994/274 400/991/273 390/995/275
f 400/991/273 392/993/272 390/995/275
f 391/997/265 390/999/279 392/1000/272
f 391/997/265 392/1000/272 393/1001/271
f 391/997/265 403/1002/278 396/1003/266
f 404/1004/256 397/1005/386 391/1006/265
f 391/997/265 393/1001/271 394/1007/261
f 397/1005/276 398/1008/277 391/1006/265
f 391/997/265 395/1009/280 403/1002/278
f 404/1004/256 391/1006/265 396/1010/266
f 391/997/265 394/1007/261 395/1009/280
f 389/1011/269 393/1012/271 392/1013/272
f 389/1011/269 401/1014/262 393/1012/271
f 401/1014/262 394/1015/261 393/1012/271
f 402/1016/258 395/988/260 394/1017/261
f 402/1016/258 388/985/259 395/988/260
f 404/983/256 399/1018/264 397/1019/386
f 397/1005/276 399/1020/281 398/1008/277
f 404/983/256 400/990/263 399/1018/264
f 404/983/256 401/1021/262 389/989/269
f 401/1014/262 402/1022/258 394/1015/261
f 404/983/256 402/1016/258 401/1021/262
f 404/983/256 388/985/257 402/1016/258
f 387/1023/268 404/1004/256 396/1010/270
f 405/1024/286 406/1025/291 409/1026/292
f 405/1024/286 412/1027/288 411/1028/387
f 405/1024/286 408/1029/293 407/1030/294
f 405/1024/286 410/1031/290 406/1025/291
f 405/1024/286 409/1026/292 408/1029/293
f 405/1024/286 411/1028/387 410/1031/290
f 405/1024/286 413/1032/287 412/1027/288
f 407/1033/294 408/1034/293 409/1035/292
f 407/1033/294 409/1035/292 406/1036/291
f 407/1033/294 410/1037/290 411/1038/387
f 407/1033/294 412/1039/288 413/1040/287
f 407/1033/294 411/1038/387 412/1039/288
f 407/1033/294 406/1036/291 410/1037/290
f 407/1033/294 413/1040/287 405/1041/286
f 420/1042/388 430/1043/389 417/1044/390
f 430/1045/389 420/1046/388 591/1047/391
f 430/1045/389 414/1048/392 600/1049/393
f 430/1050/394 415/1051/395 417/1052/390
f 430/1050/396 431/1053/396 415/1051/396
f 430/1045/389 591/1047/391 414/1048/392
f 601/43/397 414/42/392 418/1054/398
f 415/1055/395 592/1056/399 417/1057/390
f 415/1055/395 418/1058/398 592/1056/399
f 601/43/397 418/1054/398 415/1059/395
f 420/1042/388 417/1044/390 592/1060/399
f 414/1061/392 592/1062/399 418/1063/398
f 414/1061/392 591/1064/391 592/1062/399
f 438/1065/400 419/1066/400 421/1067/400
f 581/1068/401 444/1069/402 442/1070/403
f 421/1071/404 422/1072/404 566/1073/404
f 424/1074/405 581/1075/401 442/1076/403
f 565/1077/406 437/1078/407 566/1079/408
f 565/1077/406 438/1080/409 437/1078/407
f 426/1081/331 428/1082/333 429/1083/334
f 426/1084/331 427/1085/332 428/1086/333
f 427/1087/332 426/1088/331 429/1089/334
f 427/1090/332 429/1091/334 428/1092/333
f 430/1093/410 421/1094/411 440/1095/412
f 421/1096/411 434/1097/413 438/1098/414
f 421/1071/415 566/1073/408 440/1099/412
f 586/1100/416 430/1101/410 440/1102/412
f 424/1103/417 570/1104/25 433/50/418
f 424/1103/417 433/50/418 444/49/419
f 444/1105/402 571/61/420 443/60/421
f 586/1100/416 440/1102/412 436/1106/422
f 438/1107/423 435/1108/423 436/1109/423
f 566/1110/408 436/1111/422 440/1112/412
f 566/1110/408 437/1113/407 436/1111/422
f 438/1107/409 436/1109/422 437/1114/407
f 424/1074/405 442/1076/403 443/1115/421
f 570/1116/25 424/1117/417 443/1118/24
f 444/1105/402 443/60/421 442/1119/403
f 447/1120/424 446/1121/425 448/1122/342
f 447/1123/424 448/1124/342 449/1125/341
f 446/1126/425 449/1127/341 448/1128/342
f 446/1129/425 447/1130/424 449/1131/341
f 450/1132/256 462/1133/262 460/1134/269
f 450/1132/256 467/1135/268 464/1136/257
f 450/1132/256 460/1134/269 451/1137/263
f 450/1132/256 463/1138/258 462/1133/262
f 450/1132/256 452/1139/264 453/1140/386
f 450/1132/256 464/1136/257 463/1138/258
f 450/1132/256 451/1137/263 452/1139/264
f 450/1141/256 459/1142/265 466/1143/266
f 450/1141/256 453/1144/386 459/1142/265
f 467/1145/268 450/1141/256 466/1143/270
f 451/1146/273 460/1147/269 461/1148/272
f 451/1146/273 461/1148/272 455/1149/275
f 452/1150/274 451/1146/273 455/1149/275
f 453/1144/276 452/1151/281 454/1152/277
f 452/1150/274 455/1149/275 454/1153/282
f 453/1144/276 454/1152/277 459/1142/265
f 459/1154/265 454/1155/277 455/1156/279
f 459/1154/265 455/1156/279 461/1157/272
f 460/1158/269 456/1159/271 461/1160/272
f 460/1158/269 462/1161/262 456/1159/271
f 459/1154/265 461/1157/272 456/1162/271
f 462/1161/262 457/1163/261 456/1159/271
f 459/1154/265 456/1162/271 457/1164/261
f 462/1161/262 463/1165/258 457/1163/261
f 459/1154/265 458/1166/280 465/1167/278
f 464/1136/259 465/1168/283 458/1169/260
f 459/1154/265 457/1164/261 458/1166/280
f 459/1154/265 465/1167/278 466/1170/266
f 463/1138/258 464/1136/259 458/1169/260
f 463/1138/258 458/1169/260 457/1171/261
f 464/1136/259 467/1135/284 465/1168/283
f 467/1135/268 466/1172/270 465/1168/285
f 468/1173/426 475/1174/347 472/1175/427
f 468/1173/426 472/1175/427 474/1176/428
f 468/1173/426 474/1176/428 473/1177/346
f 468/1173/426 476/1178/348 475/1174/347
f 468/1173/426 469/1179/349 471/1180/350
f 468/1173/426 470/1181/351 469/1179/349
f 468/1173/426 473/1177/346 470/1181/351
f 471/1182/350 470/1183/351 473/1184/346
f 471/1182/350 469/1185/349 470/1183/351
f 471/1182/350 476/1186/348 468/1187/426
f 471/1182/350 475/1188/347 476/1186/348
f 471/1182/350 473/1184/346 474/1189/428
f 471/1182/350 472/1190/427 475/1188/347
f 471/1182/350 474/1189/428 472/1190/427
f 481/1191/429 482/1192/430 487/1193/431
f 588/1194/432 603/1195/19 492/1196/433
f 497/67/434 478/1197/435 479/1198/436
f 483/1199/437 482/1200/430 477/53/438
f 496/1201/439 480/1202/439 589/1203/439
f 588/1194/432 492/1196/433 589/1204/440
f 479/1205/436 573/1206/441 498/1207/442
f 483/1199/437 477/53/438 485/52/443
f 573/1208/441 497/1209/444 498/1210/442
f 485/1211/445 481/1212/446 487/1213/447
f 603/1214/448 477/1215/449 496/1216/450
f 485/52/443 502/1217/451 483/1199/437
f 483/1218/452 484/1219/453 487/1220/447
f 483/1218/452 486/1221/454 484/1219/453
f 482/1192/430 483/1222/437 487/1193/431
f 486/1223/454 485/1224/445 484/1225/453
f 485/1211/445 487/1213/447 484/1226/453
f 491/1227/331 488/1228/332 490/1229/333
f 488/1230/332 491/1231/331 489/1232/334
f 488/1233/332 489/1234/334 490/1235/333
f 491/1236/331 490/1237/333 489/1238/334
f 496/1239/450 483/1240/455 603/1241/448
f 603/1242/19 503/1243/18 494/1244/456
f 603/1242/19 494/1244/456 492/1245/433
f 589/1246/440 492/1247/433 494/1248/456
f 496/1201/457 589/1203/440 494/1249/456
f 495/1250/458 496/1239/450 494/1251/456
f 495/1252/458 494/1244/456 503/1243/18
f 496/1239/450 495/1250/458 483/1240/455
f 497/1253/444 606/1254/459 498/1255/442
f 497/1253/444 604/1256/460 606/1254/459
f 479/1198/436 500/68/461 497/67/434
f 479/1205/436 498/1207/442 499/1257/462
f 498/1258/442 606/1259/459 499/1260/462
f 500/1261/461 479/1262/436 499/1263/462
f 504/1264/425 506/1265/341 507/1266/342
f 504/1267/425 505/1268/424 506/1269/341
f 505/1270/424 504/1271/425 507/1272/342
f 505/1273/424 507/1274/342 506/1275/341
f 508/1276/463 511/1277/464 514/1278/465
f 508/1276/463 513/1279/466 511/1277/464
f 512/1280/467 508/1281/463 514/1282/465
f 512/1283/467 513/1284/466 508/1285/463
f 510/1286/468 509/1287/469 515/1288/470
f 510/1286/468 512/1280/467 509/1287/469
f 512/1280/467 514/1282/465 509/1287/469
f 514/1289/465 515/1290/470 509/1291/469
f 513/1292/466 510/1293/468 515/1294/470
f 512/1283/467 510/1295/468 513/1284/466
f 514/1289/465 511/1296/464 515/1290/470
f 513/1292/466 515/1294/470 511/1297/464
f 516/1298/471 521/1299/472 517/1300/473
f 516/1298/471 522/1301/474 521/1299/472
f 519/1302/475 522/1303/474 516/1304/471
f 519/1302/475 516/1304/471 518/1305/476
f 518/1306/477 516/1307/478 517/1308/479
f 518/1306/477 517/1308/479 520/1309/480
f 520/1310/481 517/1311/473 521/1312/472
f 519/1313/475 518/1314/476 520/1315/481
f 519/1313/475 520/1315/481 523/1316/482
f 522/1317/483 519/1313/484 523/1316/485
f 520/1310/481 521/1312/472 523/1318/482
f 522/1317/483 523/1316/485 521/1319/486
f 525/1320/468 524/1321/469 531/1322/470
f 525/1320/468 527/1323/467 524/1321/469
f 527/1323/467 529/1324/465 524/1321/469
f 529/1325/465 531/1326/470 524/1327/469
f 528/1328/466 525/1329/468 531/1330/470
f 527/1331/467 525/1332/468 528/1333/466
f 526/1334/463 530/1335/464 529/1336/465
f 526/1334/463 528/1337/466 530/1335/464
f 527/1323/467 526/1338/463 529/1324/465
f 527/1331/467 528/1333/466 526/1339/463
f 528/1328/466 531/1330/470 530/1340/464
f 529/1325/465 530/1341/464 531/1326/470
f 538/1342/475 532/1343/476 535/1344/481
f 532/1345/477 533/1346/479 535/1347/480
f 538/1348/475 537/1349/471 532/1350/476
f 532/1345/477 537/1351/478 533/1346/479
f 537/1352/471 539/1353/472 533/1354/473
f 535/1355/481 533/1356/473 539/1357/472
f 535/1355/481 539/1357/472 534/1358/482
f 536/1359/483 534/1360/485 539/1361/486
f 536/1359/483 538/1342/484 534/1360/485
f 538/1342/475 535/1344/481 534/1360/482
f 538/1348/475 536/1362/474 537/1349/471
f 537/1352/471 536/1363/474 539/1353/472
f 540/1364/487 542/1365/488 543/1366/489
f 540/1364/487 541/1367/490 542/1365/488
f 541/1368/490 543/1369/489 542/1370/488
f 541/1368/490 540/1371/487 543/1369/489
f 544/1372/491 546/1373/492 547/1374/493
f 544/1372/491 545/1375/494 546/1373/492
f 545/1376/494 547/1377/493 546/1378/492
f 545/1376/494 544/1379/491 547/1377/493
f 549/1380/495 548/1381/496 550/1382/497
f 548/1383/496 549/1384/495 550/1385/497
f 552/1386/498 551/1387/498 553/1388/498
f 553/1389/498 551/1390/498 552/1391/498
f 554/1392/498 556/1393/498 555/1394/498
f 556/1395/498 554/1396/498 555/1397/498
f 296/1398/499 577/779/499 298/1399/499
f 296/1398/500 298/1399/500 300/1400/500
f 582/26/501 302/1401/501 598/24/501
f 578/1402/502 358/1403/502 560/1404/502
f 434/32/503 430/1101/503 600/30/503
f 573/1206/504 479/1205/504 477/1405/504
f 605/1406/505 486/1221/505 483/1218/505
f 560/1407/506 358/1408/506 595/1409/506
f 302/1410/507 582/1411/507 585/811/507
f 360/909/508 563/1412/508 602/912/508
f 441/1413/509 419/1414/509 580/1415/509
f 496/1416/510 477/1405/510 479/1205/510
f 367/954/366 574/1417/511 368/955/380
f 177/503/162 192/483/163 175/499/157
f 190/525/178 188/491/184 189/516/169
f 296/1418/335 585/1419/326 582/1420/512
f 356/917/363 361/919/360 561/1421/359
f 590/1422/513 366/1423/513 368/1424/513
f 575/924/369 378/1425/514 379/65/384
f 421/1426/411 430/1427/410 434/1428/413
f 500/1261/461 499/1263/462 606/1429/459
l 564 572
l 560 567
l 352 590
l 583 307
l 584 435
l 419 425
l 587 493
l 359 382
l 605 501
l 292 557
l 568 304
l 570 432
l 369 381
l 371 380
l 291 299
l 295 598
l 416 600
