# Blender 4.5.0
# www.blender.org
mtllib public_007.lod2.mtl
o public_007
v -2.949785 2.961273 -4.101298
v 2.985522 2.961273 -4.101298
v -5.050000 -0.000000 -4.500000
v -5.050000 0.014724 4.519691
v 5.041931 0.695402 -2.294630
v 5.041931 3.820701 3.491499
v -5.013153 3.824100 2.320149
v 4.844053 3.896507 -4.143189
v -4.675846 7.235764 -3.931784
v 4.704163 7.151030 -3.920732
v 4.707397 7.151030 -3.920732
v 4.704163 7.145140 -3.914904
v 4.698326 7.151030 -3.920732
v 4.700809 7.262808 3.938699
v 4.704163 7.260230 -3.914904
v 4.698326 7.264368 -3.918880
v -4.662191 7.263658 3.940248
v -4.668426 7.260231 3.934594
v -4.671556 7.152244 -3.920732
v -4.668426 7.151030 -3.920732
v -4.661477 7.145140 -3.914904
v -4.822462 7.145140 -3.914904
v -4.828300 7.152197 -3.920732
v -4.821305 7.145140 -3.920732
v -4.668426 7.144872 3.940419
v -4.671556 7.500976 3.940422
v -4.668426 7.145141 3.934594
v -4.674263 7.139251 3.940422
v -4.822462 7.508079 3.934594
v -4.828300 7.501022 3.940422
v -4.821305 7.508079 3.940422
v -4.670985 7.507890 -3.914602
v -4.671659 7.502188 -3.920732
v 4.707170 7.505112 -3.919479
v 4.708617 7.506707 3.938220
v 4.704163 7.502189 3.934594
v 4.698326 7.151031 3.940422
v 4.704163 7.145141 3.934594
v 4.707293 7.152245 3.940422
v 4.704163 7.151031 3.940422
v 4.864037 7.151030 -4.077121
v -4.822462 7.508078 -3.914904
v -4.828300 7.502188 -4.077121
v -4.828300 7.502188 -3.920732
v -4.834137 7.508078 -3.926560
v 4.858200 7.508078 -3.914904
v 4.864037 7.501021 -3.920732
v 4.857042 7.508078 -3.920732
v 4.864037 7.151030 -3.923322
v 4.858200 7.145140 -3.914904
v 4.858200 7.145140 -3.920732
v 4.858200 7.508079 3.940422
v 4.864037 7.502189 3.940422
v 4.858200 7.508079 3.934594
v -4.828300 7.151031 4.096811
v 4.864037 7.502189 4.096811
v 4.858200 7.145141 3.934594
v 4.864037 7.152198 3.940422
v 4.857042 7.145141 3.940422
v -4.828300 7.151031 3.943012
v -4.822462 7.145141 3.934594
v -4.822462 7.145141 3.940422
v -4.758730 0.734600 2.329412
v -4.747989 2.284443 2.329412
v -4.774714 0.773564 3.484764
v -4.844474 2.215457 3.376902
v -4.852122 0.773564 2.920139
v -4.842101 2.215457 2.428918
v -4.873264 2.273301 3.376774
v -4.904249 0.770148 3.378756
v -4.842279 0.770148 3.374792
v -4.842279 0.770148 2.900928
v -4.904249 0.770148 2.904892
v -4.873264 2.273302 2.902910
v -4.904249 0.770148 2.431028
v -4.873264 2.273301 2.429046
v -4.842279 0.770148 2.427064
v -5.014262 0.737645 2.307587
v -4.822462 0.739128 3.446606
v -4.772234 0.728829 2.307587
v -4.758730 2.284443 -2.309721
v -4.747989 0.734601 -2.309721
v -4.378655 1.449297 -3.994686
v -4.844474 2.215457 -2.409227
v -4.842102 2.215457 -3.357211
v -4.852122 0.773564 -2.865990
v -4.873264 2.273301 -2.409355
v -4.842279 0.770148 -2.411337
v -4.904249 0.770148 -2.407373
v -4.873264 2.273301 -2.883219
v -4.842279 0.770148 -2.885201
v -4.904249 0.770148 -2.881237
v -4.904249 0.770148 -3.355101
v -4.873264 2.273301 -3.357083
v -4.842279 0.770148 -3.359065
v -4.822462 0.739127 -3.426915
v -4.772234 0.737645 -2.287897
v -5.014262 0.728829 -2.287896
v 3.498366 0.773565 4.340836
v 2.341159 0.734603 4.324876
v 2.341159 2.284441 4.314153
v 3.390331 2.215457 4.410483
v 2.932834 0.773565 4.418119
v 2.440825 2.215457 4.408114
v 3.390202 2.273301 4.439227
v 3.392187 0.770148 4.470162
v 3.388217 0.770148 4.408292
v 2.917562 0.770148 4.470162
v 2.913593 0.770148 4.408292
v 2.915578 2.273301 4.439227
v 2.440953 2.273301 4.439227
v 2.438968 0.770148 4.408292
v 2.442938 0.770149 4.470162
v 2.319299 0.737646 4.580000
v 3.460147 0.739128 4.388506
v 2.319299 0.728830 4.338359
v -2.305422 2.284441 4.324876
v -3.462663 0.773565 4.341008
v -2.305422 0.734603 4.314153
v -2.405087 2.215457 4.410483
v -2.862584 0.773565 4.418119
v -3.354594 2.215457 4.408114
v -2.407201 0.770148 4.408292
v -2.403231 0.770148 4.470162
v -2.405216 2.273301 4.439227
v -2.879840 2.273301 4.439227
v -2.881825 0.770148 4.408292
v -2.877855 0.770148 4.470162
v -3.352480 0.770148 4.470162
v -3.354465 2.273301 4.439227
v -3.356450 0.770148 4.408292
v -3.424409 0.739128 4.388506
v -2.283562 0.737646 4.338359
v -2.283562 0.728830 4.579999
v 4.414392 1.449254 -3.994655
v 4.794467 0.734600 -2.309721
v 4.783726 2.284442 -2.309721
v 4.880211 2.215457 -3.357211
v 4.887860 0.773564 -2.900448
v 4.877838 2.215457 -2.409227
v 4.909001 2.273301 -3.357083
v 4.939986 0.770148 -3.359065
v 4.878016 0.770148 -3.355101
v 4.939986 0.770148 -2.885201
v 4.878016 0.770148 -2.881237
v 4.909001 2.273301 -2.883219
v 4.909001 2.273301 -2.409355
v 4.878016 0.770148 -2.407373
v 4.939986 0.770148 -2.411337
v 5.050000 0.737645 -2.287896
v 4.807971 0.728829 -2.287896
v 4.858200 0.739127 -3.426915
v 4.794467 2.284443 2.329412
v 4.810624 0.773564 3.484799
v 4.783726 0.734601 2.329412
v 4.887860 0.773564 2.885681
v 4.877839 2.215457 3.376902
v 4.880212 2.215457 2.428918
v 4.878016 0.770148 2.431028
v 4.909001 2.273301 2.429046
v 4.939986 0.770148 2.427064
v 4.878016 0.770148 2.904892
v 4.939986 0.770148 2.900928
v 4.909001 2.273302 2.902910
v 4.878016 0.770148 3.378756
v 4.909001 2.273301 3.376774
v 4.939986 0.770148 3.374792
v 5.050000 0.728829 2.307587
v 4.858200 0.739128 3.446606
v 4.807971 0.737645 2.307588
v -4.836635 5.334642 -3.357083
v -3.163143 3.862385 -3.896083
v -3.163143 5.558477 -3.885525
v -3.846346 3.898863 -3.989409
v -4.393812 5.491992 -3.981756
v -3.264367 5.491992 -3.979421
v -4.395628 3.895447 -4.041451
v -4.393643 5.549821 -4.010516
v -4.391658 3.895447 -3.979583
v -3.831074 3.895447 -4.041451
v -3.827105 3.895447 -3.979583
v -3.829090 5.549822 -4.010516
v -3.264536 5.549822 -4.010516
v -3.266521 3.895447 -4.041451
v -3.262551 3.895446 -3.979583
v -4.463588 3.864426 -3.959796
v -3.142877 3.863048 -4.150510
v -3.142877 3.854025 -3.910429
v -1.191367 3.935756 -3.968118
v -2.896303 5.558475 -3.896081
v -2.896303 3.862388 -3.885527
v -2.795077 5.491992 -3.981756
v -1.665631 5.491992 -3.979421
v -2.247610 3.898863 -3.989409
v -2.794907 5.549821 -4.010516
v -2.796892 3.895447 -4.041451
v -2.792922 3.895446 -3.979583
v -2.232339 3.895447 -4.041451
v -2.230354 5.549821 -4.010516
v -2.228369 3.895447 -3.979583
v -1.667785 3.895447 -4.041451
v -1.665800 5.549822 -4.010516
v -1.663815 3.895447 -3.979583
v -1.595855 3.864426 -3.959796
v -2.916566 3.863048 -3.910429
v -2.916566 3.854025 -4.150509
v -1.670604 5.485107 -3.968118
v 0.034331 3.862387 -3.896081
v 0.034331 5.558475 -3.885527
v -0.066895 5.491992 -3.979421
v -0.648874 3.898863 -3.989409
v -1.196341 5.491992 -3.981756
v -1.196171 5.549822 -4.010516
v -1.194186 3.895447 -3.979583
v -1.198156 3.895447 -4.041451
v -0.631618 5.549821 -4.010516
v -0.629633 3.895447 -3.979583
v -0.633603 3.895447 -4.041451
v -0.069049 3.895447 -4.041451
v -0.067064 5.549821 -4.010516
v -0.065079 3.895447 -3.979583
v -1.317830 3.854025 -4.150509
v 0.002881 3.864426 -3.959796
v -1.317831 3.863048 -3.910429
v 1.633067 3.862387 -3.896081
v -0.071868 5.485107 -3.968118
v 1.633067 5.558475 -3.885527
v 0.949862 3.898863 -3.989409
v 0.402395 5.491992 -3.981756
v 1.531841 5.491992 -3.979421
v 0.402565 5.549821 -4.010516
v 0.400579 3.895447 -4.041451
v 0.404550 3.895447 -3.979583
v 0.967118 5.549821 -4.010516
v 0.969103 3.895447 -3.979583
v 0.965133 3.895447 -4.041451
v 1.531672 5.549822 -4.010516
v 1.529686 3.895447 -4.041451
v 1.533657 3.895446 -3.979583
v 1.653331 3.863048 -4.150509
v 1.653331 3.854025 -3.910429
v 0.332620 3.864426 -3.959796
v 1.899905 5.558475 -3.896081
v 3.604841 3.935756 -3.968118
v 1.899905 3.862388 -3.885527
v 2.548598 3.898863 -3.989409
v 3.130577 5.491992 -3.979421
v 2.001131 5.491992 -3.981756
v 2.001300 5.549822 -4.010516
v 1.999315 3.895447 -4.041451
v 2.003285 3.895446 -3.979583
v 2.565854 5.549821 -4.010516
v 2.567839 3.895447 -3.979583
v 2.563869 3.895447 -4.041451
v 3.128423 3.895447 -4.041451
v 3.130408 5.549821 -4.010516
v 3.132393 3.895447 -3.979583
v 3.252067 3.863048 -4.150510
v 1.931356 3.864426 -3.959796
v 3.252067 3.854025 -3.910429
v 3.498642 5.558476 -3.896081
v 3.498642 3.862387 -3.885527
v 4.885677 5.334642 -3.357083
v 3.599867 5.491992 -3.981756
v 4.147334 3.898863 -3.989409
v 4.729313 5.491992 -3.979421
v 3.598051 3.895447 -4.041451
v 3.602021 3.895447 -3.979583
v 3.600036 5.549821 -4.010516
v 4.166575 3.895446 -3.979583
v 4.164590 5.549822 -4.010516
v 4.162605 3.895447 -4.041451
v 4.727158 3.895447 -4.041451
v 4.729144 5.549822 -4.010517
v 4.731129 3.895446 -3.979583
v 3.478377 3.863048 -3.910429
v 3.478377 3.854025 -4.150510
v 4.799088 3.864426 -3.959796
v -4.758730 3.859899 2.329412
v -4.774714 3.898863 3.484764
v -4.747989 5.409741 2.329412
v -4.852122 5.380859 2.885681
v -4.842102 3.928885 3.376902
v -4.844474 3.928885 2.428918
v -4.904249 3.895447 3.378756
v -4.842279 3.895447 3.374792
v -4.873264 5.398600 3.376774
v -4.904249 3.895447 2.904891
v -4.873264 5.398599 2.902910
v -4.842279 3.895447 2.900928
v -4.904249 3.895447 2.431028
v -4.873264 5.398599 2.429046
v -4.842279 3.895447 2.427064
v -5.014263 3.862945 2.307587
v -4.822462 3.864426 3.446606
v -4.772233 3.854129 2.307588
v -4.747989 3.859899 -2.309721
v -4.774887 3.898863 -3.465108
v -4.758730 5.409741 -2.309722
v -4.844474 3.928885 -3.357211
v -4.852122 5.380859 -2.900448
v -4.842101 3.928885 -2.409227
v -4.873264 5.398599 -2.409356
v -4.904249 3.895446 -2.407373
v -4.842279 3.895446 -2.411337
v -4.842279 3.895446 -2.885201
v -4.873264 5.398599 -2.883219
v -4.904249 3.895446 -2.881238
v -4.904249 3.895446 -3.355102
v -4.842279 3.895446 -3.359065
v -4.873264 5.398599 -3.357084
v -4.822462 3.864426 -3.426916
v -5.014263 3.854129 -2.287897
v -4.772234 3.862944 -2.287897
v 3.498366 3.898863 4.340835
v 2.341159 3.859901 4.324875
v 2.341160 5.409739 4.314152
v 2.898321 5.380859 4.418119
v 2.440825 3.928885 4.410482
v 3.390331 3.928885 4.408113
v 3.392187 3.895447 4.470161
v 3.390202 5.398599 4.439226
v 3.388217 3.895447 4.408292
v 2.917562 3.895447 4.470161
v 2.913593 3.895447 4.408291
v 2.915578 5.398600 4.439226
v 2.440953 5.398599 4.439226
v 2.438968 3.895447 4.408291
v 2.442938 3.895447 4.470161
v 3.460147 3.864426 4.388506
v 2.319299 3.862945 4.579999
v 2.319299 3.854129 4.338358
v -3.462663 3.898863 4.341007
v -2.305422 3.859901 4.314152
v -2.305422 5.409739 4.324875
v -2.897096 5.380859 4.418119
v -3.354593 3.928885 4.410482
v -2.405087 3.928885 4.408113
v -2.405216 5.398599 4.439226
v -2.407201 3.895447 4.408291
v -2.403231 3.895447 4.470161
v -2.879840 5.398600 4.439226
v -2.877855 3.895447 4.470161
v -2.881825 3.895447 4.408291
v -3.352480 3.895447 4.470161
v -3.354465 5.398599 4.439226
v -3.356450 3.895447 4.408292
v -3.476118 3.862945 4.579999
v -3.476118 3.854129 4.338358
v -2.335271 3.864426 4.388506
v 4.794467 3.859899 -2.309721
v 4.724299 3.935727 -3.968118
v 4.783726 5.409741 -2.309721
v 4.887860 5.380859 -2.865991
v 4.880212 3.928885 -2.409227
v 4.877839 3.928885 -3.357212
v 4.909001 5.398599 -3.357083
v 4.939986 3.895446 -3.359065
v 4.878016 3.895446 -3.355102
v 4.909001 5.398599 -2.883219
v 4.878016 3.895446 -2.881238
v 4.939986 3.895446 -2.885201
v 4.909001 5.398599 -2.409356
v 4.878016 3.895446 -2.407373
v 4.939986 3.895446 -2.411337
v 4.858200 3.864426 -3.426916
v 4.807971 3.854129 -2.287897
v 5.050000 3.862944 -2.287897
v 4.810624 3.898863 3.484799
v 4.783726 3.859899 2.329412
v 4.794467 5.409741 2.329412
v 4.880211 3.928885 3.376902
v 4.887860 5.380859 2.920138
v 4.877839 3.928885 2.428918
v 4.939986 3.895447 2.427064
v 4.878016 3.895447 2.431028
v 4.909001 5.398599 2.429046
v 4.909001 5.398599 2.902910
v 4.878016 3.895447 2.904891
v 4.939986 3.895447 2.900928
v 4.878016 3.895447 3.378756
v 4.909001 5.398600 3.376774
v 4.939986 3.895447 3.374792
v 4.858200 3.864426 3.446606
v 5.050000 3.854129 2.307587
v 4.807971 3.862945 2.307588
v -4.415754 0.076121 -3.941134
v -1.199480 1.440189 -4.015504
v -4.415754 2.721126 -3.950211
v -1.672158 0.241759 -4.005529
v -4.379017 0.240671 -4.023281
v -4.379016 0.242847 -3.987776
v -4.379017 0.412058 -4.023281
v -1.672158 0.413147 -4.005529
v -4.379016 0.414234 -3.987776
v -4.379017 0.583446 -4.023281
v -1.672158 0.584534 -4.005529
v -4.379017 0.585622 -3.987776
v -4.379017 0.754833 -4.023281
v -1.672158 0.755921 -4.005529
v -4.379017 0.757009 -3.987776
v -4.379017 0.926220 -4.023281
v -1.672158 0.927309 -4.005529
v -4.379017 0.928396 -3.987776
v -1.672158 1.098696 -4.005529
v -4.379017 1.097608 -4.023281
v -4.379017 1.099784 -3.987776
v -4.379017 1.268995 -4.023281
v -4.379017 1.271171 -3.987776
v -1.672158 1.270083 -4.005529
v -1.672158 1.441471 -4.005529
v -4.379017 1.442558 -3.987776
v -4.379017 1.440382 -4.023281
v -1.672158 1.612858 -4.005529
v -4.379017 1.611770 -4.023281
v -4.379017 1.613946 -3.987776
v -4.379017 1.783157 -4.023281
v -1.672158 1.784245 -4.005529
v -4.379016 1.785333 -3.987776
v -4.379017 1.954544 -4.023281
v -1.672159 1.955633 -4.005529
v -4.379016 1.956720 -3.987776
v -4.379017 2.125932 -4.023281
v -1.672158 2.127020 -4.005529
v -4.379017 2.128108 -3.987776
v -1.672158 2.298407 -4.005529
v -4.379017 2.297319 -4.023281
v -4.379017 2.299495 -3.987776
v -1.672158 2.469795 -4.005529
v -4.379017 2.470882 -3.987776
v -4.379017 2.468706 -4.023281
v -4.379017 2.640094 -4.023281
v -4.379017 2.642270 -3.987776
v -1.672158 2.641182 -4.005529
v -4.254611 1.891415 -4.032564
v -1.691003 1.665785 -4.030469
v -4.254611 1.440158 -4.028372
v -1.812341 1.440367 -4.015504
v 1.403901 2.721127 -3.941134
v 1.403901 0.076121 -3.950212
v -1.331426 0.240671 -4.023281
v 1.375432 0.241759 -4.005529
v -1.331426 0.242847 -3.987776
v 1.375432 0.413147 -4.005529
v -1.331426 0.414234 -3.987776
v -1.331426 0.412058 -4.023281
v -1.339695 0.584534 -4.005529
v 1.367163 0.583446 -3.987776
v 1.367163 0.585622 -4.023281
v -1.331426 0.757009 -3.987776
v -1.331426 0.754833 -4.023281
v 1.375432 0.755921 -4.005529
v 1.375432 0.927309 -4.005529
v -1.331426 0.926220 -4.023281
v -1.331426 0.928396 -3.987776
v -1.331426 1.097608 -4.023281
v 1.375432 1.098696 -4.005529
v -1.331426 1.099784 -3.987776
v 1.375432 1.270083 -4.005529
v -1.331426 1.268995 -4.023281
v -1.331426 1.271171 -3.987776
v -1.331426 1.440382 -4.023281
v 1.375432 1.441471 -4.005529
v -1.331426 1.442558 -3.987776
v -1.331426 1.611770 -4.023281
v 1.375432 1.612858 -4.005529
v -1.331426 1.613946 -3.987776
v 1.375432 1.784245 -4.005529
v -1.331426 1.783157 -4.023281
v -1.331426 1.785333 -3.987776
v 1.375432 1.955633 -4.005529
v -1.331426 1.954544 -4.023281
v -1.331426 1.956721 -3.987776
v -1.331426 2.125932 -4.023281
v -1.331426 2.128108 -3.987776
v 1.375432 2.127020 -4.005529
v -1.331426 2.299495 -3.987776
v -1.331426 2.297319 -4.023281
v 1.375432 2.298407 -4.005529
v 1.375432 2.469795 -4.005529
v -1.331426 2.468706 -4.023281
v -1.331426 2.470882 -3.987776
v 1.375432 2.641182 -4.005529
v -1.331426 2.640094 -4.023281
v -1.331426 2.642270 -3.987776
v -1.207021 1.891415 -4.032564
v 1.356588 1.665785 -4.030469
v -1.207021 1.440158 -4.028373
v 4.451491 2.721126 -3.941134
v 1.235249 1.440367 -4.015504
v 4.451491 0.076121 -3.950211
v 4.414753 0.240671 -3.987776
v 1.707896 0.241759 -4.005529
v 4.414754 0.242847 -4.023281
v 4.414754 0.414235 -4.023281
v 1.707896 0.413146 -4.005529
v 4.414753 0.412059 -3.987776
v 4.414753 0.583446 -3.987776
v 1.707896 0.584534 -4.005529
v 4.414754 0.585622 -4.023281
v 1.707896 0.755921 -4.005529
v 4.414754 0.757009 -4.023281
v 4.414753 0.754833 -3.987776
v 4.414754 0.928396 -4.023281
v 4.414753 0.926221 -3.987776
v 1.707896 0.927308 -4.005529
v 4.414754 1.099784 -4.023281
v 1.707896 1.098696 -4.005529
v 4.414753 1.097608 -3.987776
v 1.707896 1.270083 -4.005529
v 4.414753 1.268995 -3.987776
v 4.414754 1.271171 -4.023281
v 1.707896 1.441470 -4.005529
v 4.414753 1.440383 -3.987776
v 4.414754 1.442558 -4.023281
v 4.414754 1.613946 -4.023281
v 1.707896 1.612858 -4.005529
v 4.414753 1.611770 -3.987776
v 4.414754 1.785333 -4.023281
v 4.414753 1.783157 -3.987776
v 1.707896 1.784245 -4.005529
v 1.707896 1.955632 -4.005529
v 4.414753 1.954545 -3.987776
v 4.414754 1.956721 -4.023281
v 1.707896 2.127020 -4.005529
v 4.414754 2.128108 -4.023281
v 4.414753 2.125932 -3.987776
v 4.414754 2.299495 -4.023281
v 1.707896 2.298407 -4.005528
v 4.414753 2.297319 -3.987776
v 1.707896 2.469794 -4.005529
v 4.414754 2.468707 -3.987776
v 4.414754 2.470883 -4.023281
v 1.707896 2.641182 -4.005529
v 4.414753 2.640094 -3.987776
v 4.414754 2.642270 -4.023281
v 1.726740 1.665785 -4.030468
v 4.290349 1.891415 -4.028373
v 4.290349 1.440158 -4.032565
v -2.991762 2.931221 -4.012370
v -2.991762 3.586140 -4.028611
v 3.015498 3.579489 -3.947407
v -1.905610 7.353478 2.025340
v -1.093500 7.685622 1.566114
v -1.905610 7.995372 1.585741
v -1.105915 7.568186 1.558566
v -1.244699 7.946169 1.555331
v -1.552122 7.550335 1.551907
v -1.105191 7.530762 1.526210
v -1.531162 7.543621 1.525076
v -1.531162 7.517903 1.527344
v -1.105191 7.598309 1.526210
v -1.531161 7.611168 1.525076
v -1.531162 7.585450 1.527344
v -1.531161 7.678715 1.525076
v -1.531162 7.652997 1.527344
v -1.105190 7.665855 1.526210
v -1.531161 7.732257 1.513486
v -1.531161 7.734548 1.538934
v -1.105191 7.733403 1.526210
v -1.105191 7.800949 1.526210
v -1.531162 7.813807 1.525076
v -1.531161 7.788090 1.527344
v -1.531161 7.855637 1.527344
v -1.105190 7.868496 1.526210
v -1.531162 7.881355 1.525076
v -1.726206 7.871283 1.562634
v -1.770717 7.481624 1.561126
v -1.815228 7.871283 1.559618
v -1.780709 7.311487 1.489133
v -1.732811 7.308270 2.102341
v -1.828607 7.314704 2.102341
v -1.133285 7.308270 2.102341
v -1.229081 7.314704 2.102341
v -1.181183 7.311487 1.489133
v 0.442533 7.995372 2.025340
v 0.442533 7.353478 1.585741
v -0.315150 7.515007 1.576090
v -0.015571 7.873260 1.556945
v 0.446825 7.685544 1.560369
v 0.051551 7.475903 1.553710
v -0.038140 7.530762 1.526210
v 0.387831 7.543621 1.527344
v 0.387831 7.517903 1.525076
v -0.038140 7.598309 1.526210
v 0.387831 7.611168 1.527344
v 0.387831 7.585450 1.525076
v -0.038140 7.665855 1.526210
v 0.387831 7.678715 1.527343
v 0.387831 7.652997 1.525076
v 0.387831 7.734548 1.513486
v 0.387831 7.732257 1.538934
v -0.038140 7.733403 1.526210
v 0.393624 7.800949 1.526210
v -0.032347 7.802095 1.538934
v -0.032347 7.799804 1.513485
v -0.038140 7.868496 1.526210
v 0.387831 7.881355 1.527344
v 0.387831 7.855637 1.525076
v -0.271902 7.481624 1.561126
v -0.227391 7.871283 1.562634
v -0.316413 7.871283 1.559618
v -0.233996 7.308270 2.102341
v -0.329792 7.314704 2.102341
v -0.281894 7.311487 1.489133
v 0.317632 7.311487 1.489133
v 0.269734 7.314704 2.102341
v 0.365529 7.308270 2.102341
v 1.183665 7.515007 1.576090
v 1.941348 7.353478 1.585741
v 1.941348 7.995372 2.025340
v 1.752931 7.946169 1.555331
v 1.445508 7.550335 1.551907
v 1.891715 7.568186 1.558566
v 1.466468 7.517903 1.527344
v 1.892439 7.530762 1.526210
v 1.466468 7.543621 1.525076
v 1.892439 7.598309 1.526210
v 1.466468 7.611168 1.525076
v 1.466468 7.585450 1.527344
v 1.892439 7.665855 1.526210
v 1.466468 7.678715 1.525076
v 1.466468 7.652997 1.527344
v 1.892439 7.733403 1.526210
v 1.466468 7.732257 1.513486
v 1.466468 7.734548 1.538934
v 1.466468 7.813807 1.525076
v 1.892439 7.800949 1.526210
v 1.466468 7.788090 1.527344
v 1.892439 7.868496 1.526210
v 1.466468 7.855637 1.527344
v 1.466468 7.881355 1.525076
v 1.182402 7.871283 1.559618
v 1.271424 7.871283 1.562634
v 1.226913 7.481624 1.561126
v 1.216921 7.311487 1.489133
v 1.264819 7.308270 2.102341
v 1.169023 7.314704 2.102341
v 1.816447 7.311487 1.489133
v 1.864344 7.308270 2.102341
v 1.768549 7.314704 2.102341
v 4.066568 7.173091 1.009350
v 4.085049 8.300000 1.002286
v 4.041150 8.292901 1.014562
v -4.574941 0.021017 4.243257
v -4.574403 6.896335 4.199281
v -4.578981 6.885039 4.286914
v 4.617791 0.021017 4.243256
v 4.648627 6.884329 4.206543
v 4.588521 6.897201 4.269133
v 0.410988 2.195071 4.170856
v 0.433429 0.377930 4.224829
v -0.397692 0.377930 4.234629
v 0.985082 1.741399 4.148335
v 0.649346 1.237319 4.311030
v 0.985127 1.237319 4.148428
vn -0.0000 -0.7034 -0.7108
vn 0.4475 -0.0947 -0.8893
vn -0.7033 -0.6970 -0.1395
vn -0.6932 0.7200 0.0328
vn -0.7033 0.6971 0.1396
vn 0.0003 -0.7032 0.7110
vn -0.0000 -0.7033 0.7109
vn 0.0002 -0.7034 0.7108
vn 0.7065 -0.0000 -0.7077
vn 0.7033 0.6971 -0.1396
vn 0.9108 -0.4129 -0.0000
vn 0.7103 -0.7039 -0.0000
vn 0.9995 -0.0314 -0.0000
vn 0.7103 0.7039 -0.0000
vn 0.7034 -0.6970 0.1398
vn -0.9108 -0.4129 -0.0000
vn -0.7103 -0.7039 -0.0000
vn -0.9995 -0.0314 -0.0000
vn 0.0474 0.9988 -0.0094
vn 0.7207 0.6933 0.0005
vn 0.0472 0.9989 -0.0038
vn -0.0000 -0.6342 -0.7731
vn -0.7705 0.6374 -0.0000
vn -0.0000 0.7322 -0.6811
vn 0.0123 0.5274 0.8495
vn -0.0145 0.4098 0.9121
vn -0.0123 -0.5274 0.8495
vn 0.5832 0.0433 -0.8112
vn 0.9940 0.0003 -0.1094
vn 0.0006 -0.0002 1.0000
vn -0.0000 -0.6343 0.7731
vn -0.0123 0.5285 -0.8488
vn 0.0145 0.4101 -0.9119
vn 0.0123 -0.5274 -0.8495
vn -0.9962 -0.0865 0.0008
vn -0.8023 0.5970 -0.0013
vn -0.4801 0.8772 -0.0023
vn -1.0000 0.0088 -0.0004
vn -0.9017 0.4324 -0.0000
vn -0.7122 0.7020 -0.0000
vn -0.0005 -0.1835 -0.9830
vn 0.0004 -0.3019 -0.9533
vn -0.0000 -0.7033 -0.7109
vn -0.7705 -0.6374 -0.0000
vn -0.0390 -0.9992 -0.0000
vn 0.0145 -0.4098 0.9121
vn 0.9206 -0.3905 -0.0000
vn 0.7706 -0.6374 -0.0000
vn -0.0145 -0.4098 -0.9121
vn -0.6717 -0.0000 0.7408
vn -0.6357 0.0072 0.7719
vn -0.0000 -0.0000 -0.0000
vn -0.0028 0.6830 -0.7304
vn -0.0000 0.7022 -0.7120
vn -0.9963 -0.0863 0.0012
vn -0.0010 0.6873 0.7264
vn -0.0000 -1.0000 -0.0000
vn -1.0000 0.0055 -0.0002
vn -1.0000 -0.0000 -0.0000
vn -0.3614 0.9324 -0.0007
vn 0.0001 0.0035 -1.0000
vn 0.0001 0.7173 0.6968
vn 0.0002 0.0015 1.0000
vn 0.8531 0.5218 -0.0003
vn 0.9995 0.0304 0.0008
vn 0.9996 0.0297 0.0004
vn -0.0000 0.0154 0.9999
vn 0.0382 -0.9993 -0.0007
vn -0.0000 -0.0000 -1.0000
vn -0.9999 -0.0164 0.0007
vn -0.8971 0.4418 -0.0000
vn -0.9995 0.0303 -0.0000
vn -0.6995 -0.0137 0.7145
vn -0.9999 -0.0164 -0.0000
vn -0.0000 -0.0000 1.0000
vn 0.9998 0.0193 -0.0000
vn 1.0000 0.0087 0.0001
vn 0.0012 1.0000 -0.0000
vn -0.0093 1.0000 -0.0000
vn -0.0196 0.9998 0.0017
vn -0.0196 0.9998 -0.0001
vn -0.0092 1.0000 -0.0000
vn -0.0073 0.0031 1.0000
vn -0.0148 0.0063 0.9999
vn -0.0036 0.0015 1.0000
vn 1.0000 -0.0000 -0.0000
vn 0.9999 -0.0164 -0.0000
vn 0.9248 0.3806 -0.0000
vn 0.9995 0.0314 -0.0000
vn 0.5241 -0.0000 -0.8517
vn 0.0623 -0.9968 -0.0506
vn 0.0312 -0.9986 -0.0429
vn -0.0000 -0.8055 -0.5926
vn -0.0000 -0.7404 -0.6721
vn -0.0562 0.6918 -0.7199
vn -0.0547 0.8107 -0.5830
vn -0.0825 0.9966 -0.0000
vn -0.4958 -0.0387 -0.8676
vn -0.6243 -0.0366 -0.7803
vn -0.7522 -0.0323 -0.6582
vn -0.0000 -0.8944 -0.4472
vn -0.0000 -0.7071 -0.7071
vn -0.0000 -0.0428 -0.9991
vn -0.0000 -0.0384 -0.9993
vn -0.0000 -0.0426 -0.9991
vn 0.3285 -0.0000 -0.9445
vn 0.0612 0.9789 -0.1950
vn 0.0616 0.9849 -0.1616
vn -0.9981 -0.0624 -0.0000
vn 0.9992 -0.0000 -0.0411
vn 0.9996 -0.0000 -0.0278
vn -0.0000 1.0000 -0.0000
vn 0.4961 -0.8682 -0.0000
vn 0.4706 -0.8824 -0.0000
vn 0.7295 -0.6839 -0.0000
vn 0.7410 -0.6715 -0.0000
vn 0.7526 -0.6585 -0.0000
vn 0.2398 -0.1499 0.9592
vn -0.0000 -0.1202 0.9927
vn 0.4351 -0.2311 0.8702
vn 0.9752 -0.0152 -0.2209
vn 0.9879 -0.0116 -0.1544
vn 0.9407 -0.0294 -0.3381
vn -0.0000 -0.0830 -0.9965
vn -0.0000 -0.1104 -0.9939
vn -0.0000 -0.1065 -0.9943
vn -0.0187 -0.8021 -0.5969
vn -0.0169 -0.9999 -0.0000
vn -0.0106 -0.7356 -0.6774
vn 0.0470 0.9989 -0.0000
vn 0.0508 0.9987 -0.0000
vn 0.0579 0.9983 -0.0000
vn -0.0000 -0.0197 0.9998
vn -0.0000 -0.0179 0.9998
vn -0.3923 -0.0245 0.9195
vn -0.5062 -0.0218 0.8621
vn -0.5837 -0.0205 0.8117
vn 0.9965 0.0830 -0.0000
vn 0.9923 0.1240 -0.0000
vn -0.0050 -0.0078 -1.0000
vn -0.0047 -0.0156 -0.9999
vn -0.0050 -0.0156 -0.9999
vn -0.0000 -0.9952 -0.0979
vn -0.0000 -0.9946 -0.1034
vn -0.0047 0.0156 0.9999
vn -0.0050 0.0156 0.9999
vn -0.0050 0.0078 1.0000
vn 0.3054 -0.9419 0.1395
vn 0.3023 -0.9469 0.1098
vn 0.3084 -0.9512 -0.0000
vn -0.1477 -0.9867 0.0675
vn -0.1474 -0.9833 0.1070
vn -0.1467 -0.9801 0.1340
vn 0.2828 0.9369 -0.2054
vn 0.2794 0.9256 -0.2553
vn 0.2865 0.9491 -0.1309
vn -0.9974 0.0720 -0.0000
vn -0.9976 0.0689 -0.0000
vn -0.9974 0.0720 0.0014
vn -0.9976 0.0689 0.0014
vn -0.2182 -0.8729 0.4364
vn -0.2673 -0.8018 0.5345
vn -0.2037 -0.8146 0.5431
vn 0.0231 -0.9290 -0.3693
vn 0.0176 -0.8251 -0.5648
vn 0.0145 -0.6683 -0.7438
vn -0.0331 0.9959 0.0842
vn -0.0331 0.9953 0.0907
vn 0.0844 -0.9922 -0.0919
vn 0.0844 -0.9934 -0.0772
vn 0.0845 -0.9897 -0.1159
vn -0.0000 -0.9957 -0.0926
vn -0.0000 -0.9953 -0.0971
vn 0.0372 0.9948 0.0946
vn 0.0373 0.9957 0.0853
vn 0.0372 0.9941 0.1020
vn -0.9963 0.0861 -0.0000
vn -0.9963 0.0857 -0.0000
vn -0.9987 0.0517 -0.0000
vn -0.9983 0.0576 -0.0000
vn 0.1111 0.8889 0.4444
vn 0.1374 0.8242 0.5494
vn 0.2910 -0.9509 0.1057
vn 0.2865 -0.9491 0.1309
vn 0.2890 -0.9573 -0.0000
vn -0.1441 -0.9874 0.0658
vn -0.1436 -0.9841 0.1043
vn -0.1431 -0.9810 0.1308
vn 0.1514 0.9860 -0.0692
vn 0.1510 0.9870 -0.0548
vn -0.9974 0.0720 -0.0029
vn -0.9976 0.0689 -0.0029
vn 0.0520 0.1332 0.9897
vn 0.0523 0.1334 0.9897
vn 0.0524 0.1337 0.9896
vn -0.3806 -0.3773 -0.8443
vn -1.0000 -0.0088 -0.0003
vn -0.3806 0.3773 0.8443
vn 0.2634 -0.6786 0.6857
vn -0.7102 0.7040 -0.0000
vn 0.3806 0.3773 -0.8443
vn 0.7103 -0.7039 0.0001
vn 0.3806 -0.3773 0.8443
vn -0.7103 -0.7039 -0.0001
vn 0.5782 0.8159 -0.0000
vn 0.0474 -0.9988 0.0094
vn -0.0009 1.0000 0.0009
vn -0.0000 0.7034 0.7108
vn -0.0198 0.9998 0.0039
vn -0.0000 0.9993 0.0376
vn -0.0000 0.0163 -0.9999
vn 0.0063 0.0173 -0.9998
vn 0.7705 0.6374 -0.0001
vn 0.0005 -0.7031 0.7111
vn -0.0474 -0.9988 -0.0094
vn -0.0000 0.9993 -0.0363
vn -0.0000 0.0035 -1.0000
vn -0.0000 -0.9993 0.0376
vn -0.0000 -0.0164 0.9999
vn -0.0000 -0.9993 -0.0376
vn 0.7065 -0.0000 0.7077
vn -0.0061 0.0167 0.9998
vn -0.8810 -0.0000 0.4730
vn 0.9151 -0.4031 -0.0000
vn -0.0343 -0.0879 -0.9955
vn -0.0000 0.0001 -1.0000
vn 0.3222 0.8304 0.4546
vn -0.6463 -0.7631 -0.0006
vn 1.0000 0.0072 -0.0000
vn 0.0006 -0.0161 0.9999
vn -0.4112 -0.0067 -0.9115
vn -0.0000 0.0001 1.0000
vn -0.0080 0.0001 -1.0000
vn -0.0080 -0.0002 -1.0000
vn -0.0081 -0.0026 -1.0000
vn -0.0082 -0.0082 -0.9999
vn 0.4113 -0.0067 0.9115
vn 0.9999 -0.0164 -0.0007
vt 0.431539 0.520630
vt 0.431386 0.520630
vt 0.431539 0.520477
vt 0.431539 0.274762
vt 0.431539 0.274998
vt 0.431386 0.275027
vt 0.431539 0.270652
vt 0.431539 0.270836
vt 0.431386 0.270805
vt 0.744146 0.002114
vt 0.744139 0.002006
vt 0.744292 0.002007
vt 0.006192 0.524823
vt 0.006193 0.524639
vt 0.006346 0.524669
vt 0.225212 0.520630
vt 0.225058 0.520630
vt 0.225058 0.520477
vt 0.212520 0.524669
vt 0.212673 0.524823
vt 0.212827 0.524976
vt 0.212673 0.270652
vt 0.212673 0.270835
vt 0.212520 0.270805
vt 0.431607 0.524822
vt 0.431539 0.524670
vt 0.435663 0.524669
vt 0.006193 0.270805
vt 0.006193 0.270652
vt 0.006346 0.270805
vt 0.225058 0.524823
vt 0.225058 0.524639
vt 0.225212 0.524670
vt 0.224990 0.270652
vt 0.225058 0.270805
vt 0.220935 0.270805
vt 0.006286 0.520713
vt 0.212673 0.520715
vt 0.212520 0.520783
vt 0.002069 0.270805
vt 0.002103 0.524669
vt 0.736995 0.002113
vt 0.734074 0.002168
vt 0.734157 0.002000
vt 0.981598 0.236349
vt 0.990802 0.236438
vt 0.981706 0.236440
vt 0.744292 0.174873
vt 0.225058 0.520712
vt 0.216750 0.524753
vt 0.216712 0.270709
vt 0.646130 0.769255
vt 0.439885 0.769368
vt 0.439778 0.769211
vt 0.212616 0.274736
vt 0.006346 0.274844
vt 0.006279 0.274721
vt 0.225212 0.270805
vt 0.431386 0.524670
vt 0.431539 0.520715
vt 0.221020 0.524766
vt 0.225058 0.274760
vt 0.435629 0.270805
vt 0.741148 0.002000
vt 0.741097 0.002186
vt 0.981706 0.229215
vt 0.990801 0.229380
vt 0.981620 0.229349
vt 0.002106 0.266546
vt 0.119910 0.002104
vt 0.237731 0.266550
vt 0.477551 0.002106
vt 0.359747 0.266548
vt 0.241926 0.002102
vt 0.544558 0.519464
vt 0.439815 0.270781
vt 0.649250 0.270759
vt 0.586460 0.002118
vt 0.691198 0.250801
vt 0.481764 0.250823
vt 0.734842 0.175984
vt 0.736995 0.002222
vt 0.810359 0.270652
vt 0.809553 0.418343
vt 0.807367 0.418311
vt 0.646137 0.523741
vt 0.812984 0.523601
vt 0.812803 0.671279
vt 0.803703 0.671283
vt 0.803550 0.671174
vt 0.803704 0.523635
vt 0.814513 0.417667
vt 0.814543 0.417610
vt 0.814515 0.270678
vt 0.981776 0.246257
vt 0.990985 0.243348
vt 0.990870 0.246149
vt 0.439814 0.523695
vt 0.748598 0.174864
vt 0.748292 0.002212
vt 0.751436 0.002000
vt 0.817506 0.270652
vt 0.817395 0.417662
vt 0.751436 0.174867
vt 0.807367 0.270663
vt 0.431539 0.274844
vt 0.225212 0.274845
vt 0.225059 0.274692
vt 0.803693 0.822443
vt 0.803700 0.822334
vt 0.803562 0.675342
vt 0.981712 0.239348
vt 0.797114 0.152701
vt 0.787866 0.152735
vt 0.797033 0.004941
vt 0.796962 0.152699
vt 0.792755 0.155701
vt 0.216865 0.529347
vt 0.207432 0.529408
vt 0.207585 0.529192
vt 0.787784 0.005195
vt 0.787784 0.005085
vt 0.207432 0.707828
vt 0.216865 0.707876
vt 0.812688 0.675342
vt 0.810521 0.822371
vt 0.212520 0.520738
vt 0.426298 0.708611
vt 0.435731 0.528970
vt 0.435731 0.708650
vt 0.426298 0.528931
vt 0.435548 0.528839
vt 0.981561 0.232165
vt 0.990811 0.232271
vt 0.981714 0.232272
vt 0.810544 0.004928
vt 0.810395 0.152027
vt 0.801299 0.152107
vt 0.801297 0.005226
vt 0.801297 0.005117
vt 0.806188 0.155036
vt 0.916439 0.193065
vt 0.896403 0.172802
vt 0.936647 0.172819
vt 0.896284 0.095420
vt 0.916631 0.075255
vt 0.936593 0.095418
vt 0.641893 0.929454
vt 0.659634 0.929524
vt 0.650747 0.965831
vt 0.794340 0.929362
vt 0.812002 0.929525
vt 0.803154 0.965784
vt 0.896382 0.852324
vt 0.934620 0.851883
vt 0.934621 0.852778
vt 0.017495 0.929488
vt 0.017934 0.967725
vt 0.017044 0.967727
vt 0.002451 0.929488
vt 0.002890 0.967725
vt 0.002000 0.967727
vt 0.896382 0.857345
vt 0.934620 0.856904
vt 0.934621 0.857798
vt 0.896382 0.827225
vt 0.934620 0.826784
vt 0.934621 0.827679
vt 0.022510 0.929488
vt 0.022949 0.967725
vt 0.022059 0.967727
vt 0.971665 0.454062
vt 0.941002 0.457142
vt 0.940985 0.451015
vt 0.940994 0.627688
vt 0.971657 0.624608
vt 0.971674 0.630735
vt 0.896283 0.315352
vt 0.916525 0.295096
vt 0.936594 0.315350
vt 0.916438 0.022321
vt 0.896509 0.002149
vt 0.936752 0.002166
vt 0.554554 0.929454
vt 0.572295 0.929524
vt 0.563407 0.965831
vt 0.772585 0.929362
vt 0.790246 0.929525
vt 0.781398 0.965784
vt 0.896382 0.817185
vt 0.934620 0.816744
vt 0.934621 0.817639
vt 0.896382 0.907541
vt 0.934620 0.907103
vt 0.934622 0.907992
vt 0.027525 0.929488
vt 0.027964 0.967725
vt 0.027074 0.967727
vt 0.896382 0.832245
vt 0.934620 0.831804
vt 0.934621 0.832699
vt 0.896382 0.862364
vt 0.934620 0.861923
vt 0.934621 0.862818
vt 0.097732 0.929488
vt 0.098171 0.967725
vt 0.097281 0.967727
vt 0.971674 0.528612
vt 0.940994 0.525564
vt 0.971657 0.522485
vt 0.940985 0.532714
vt 0.971665 0.535761
vt 0.941002 0.538840
vt 0.916566 0.363940
vt 0.896309 0.344001
vt 0.936553 0.344019
vt 0.896320 0.460488
vt 0.916431 0.440451
vt 0.936632 0.460487
vt 0.941092 0.084243
vt 0.941033 0.066804
vt 0.977405 0.075540
vt 0.941076 0.019644
vt 0.941033 0.002094
vt 0.977397 0.010887
vt 0.896380 0.741812
vt 0.934620 0.741366
vt 0.934617 0.742270
vt 0.117827 0.929484
vt 0.118271 0.967725
vt 0.117371 0.967717
vt 0.147977 0.929484
vt 0.148421 0.967725
vt 0.147521 0.967717
vt 0.896380 0.746841
vt 0.934620 0.746395
vt 0.934616 0.747299
vt 0.153002 0.929484
vt 0.153446 0.967725
vt 0.152546 0.967717
vt 0.896380 0.756898
vt 0.934620 0.756452
vt 0.934617 0.757356
vt 0.971665 0.494912
vt 0.941002 0.497991
vt 0.940985 0.491865
vt 0.940994 0.648112
vt 0.971657 0.645033
vt 0.971674 0.651159
vt 0.896483 0.412183
vt 0.916431 0.392230
vt 0.936650 0.412138
vt 0.916476 0.533202
vt 0.896309 0.513157
vt 0.936553 0.513175
vt 0.941092 0.105775
vt 0.941033 0.088337
vt 0.977405 0.097073
vt 0.881252 0.929568
vt 0.898802 0.929524
vt 0.890010 0.965888
vt 0.122852 0.929484
vt 0.123296 0.967725
vt 0.122396 0.967717
vt 0.896380 0.726726
vt 0.934620 0.726279
vt 0.934616 0.727184
vt 0.107777 0.929484
vt 0.108221 0.967725
vt 0.107321 0.967717
vt 0.896380 0.751869
vt 0.934620 0.751424
vt 0.934616 0.752327
vt 0.896380 0.797092
vt 0.934620 0.796647
vt 0.934616 0.797550
vt 0.158027 0.929484
vt 0.158471 0.967725
vt 0.157571 0.967717
vt 0.971674 0.661371
vt 0.940994 0.658324
vt 0.971657 0.655245
vt 0.940985 0.573563
vt 0.971665 0.576610
vt 0.941002 0.579689
vt 0.896284 0.217523
vt 0.916525 0.197267
vt 0.936595 0.217521
vt 0.916438 0.119785
vt 0.896509 0.099613
vt 0.936752 0.099630
vt 0.729074 0.929362
vt 0.746735 0.929525
vt 0.737888 0.965785
vt 0.532719 0.929454
vt 0.550460 0.929524
vt 0.541572 0.965832
vt 0.032540 0.929488
vt 0.032978 0.967725
vt 0.032089 0.967727
vt 0.896382 0.787048
vt 0.934620 0.786607
vt 0.934621 0.787502
vt 0.896382 0.912556
vt 0.934620 0.912117
vt 0.934622 0.913007
vt 0.896382 0.867384
vt 0.934620 0.866943
vt 0.934621 0.867838
vt 0.037554 0.929488
vt 0.037993 0.967725
vt 0.037103 0.967727
vt 0.896382 0.872404
vt 0.934620 0.871963
vt 0.934621 0.872858
vt 0.971665 0.637884
vt 0.941002 0.640963
vt 0.940985 0.634837
vt 0.940994 0.464291
vt 0.971657 0.461212
vt 0.971674 0.467338
vt 0.896284 0.144152
vt 0.916631 0.123987
vt 0.936593 0.144150
vt 0.916439 0.290893
vt 0.896403 0.270631
vt 0.936647 0.270648
vt 0.510885 0.929454
vt 0.528625 0.929524
vt 0.519738 0.965832
vt 0.685562 0.929362
vt 0.703224 0.929525
vt 0.694376 0.965784
vt 0.896382 0.877424
vt 0.934620 0.876983
vt 0.934621 0.877878
vt 0.042569 0.929488
vt 0.043008 0.967725
vt 0.042118 0.967727
vt 0.896382 0.882444
vt 0.934620 0.882003
vt 0.934621 0.882898
vt 0.047584 0.929488
vt 0.048023 0.967725
vt 0.047133 0.967727
vt 0.896382 0.782028
vt 0.934620 0.781587
vt 0.934621 0.782482
vt 0.896382 0.917571
vt 0.934620 0.917132
vt 0.934622 0.918022
vt 0.940985 0.471440
vt 0.971665 0.474487
vt 0.941002 0.477566
vt 0.971674 0.518399
vt 0.940994 0.515352
vt 0.971657 0.512273
vt 0.002040 0.903226
vt 0.025423 0.881086
vt 0.025406 0.925268
vt 0.606108 0.827174
vt 0.629373 0.849083
vt 0.606148 0.871277
vt 0.645814 0.881244
vt 0.666700 0.881196
vt 0.656239 0.921498
vt 0.695771 0.881263
vt 0.716524 0.881196
vt 0.706130 0.921508
vt 0.140146 0.881160
vt 0.140592 0.923330
vt 0.139688 0.923326
vt 0.190420 0.881158
vt 0.190865 0.923329
vt 0.189964 0.923321
vt 0.195446 0.881158
vt 0.195890 0.923329
vt 0.194990 0.923321
vt 0.120032 0.881160
vt 0.120478 0.923330
vt 0.119574 0.923326
vt 0.210521 0.881158
vt 0.210965 0.923329
vt 0.210065 0.923321
vt 0.170319 0.881160
vt 0.170764 0.923330
vt 0.169861 0.923326
vt 0.976381 0.298138
vt 0.941002 0.301222
vt 0.940985 0.295087
vt 0.940993 0.206152
vt 0.976373 0.203068
vt 0.976390 0.209203
vt 0.770689 0.827005
vt 0.794064 0.849083
vt 0.770689 0.871256
vt 0.743245 0.849226
vt 0.766499 0.826991
vt 0.766482 0.871174
vt 0.545901 0.881245
vt 0.566786 0.881196
vt 0.556326 0.921499
vt 0.770307 0.881263
vt 0.791059 0.881196
vt 0.780666 0.921507
vt 0.230621 0.881158
vt 0.231065 0.923329
vt 0.230165 0.923321
vt 0.150204 0.881160
vt 0.150650 0.923330
vt 0.149746 0.923326
vt 0.215546 0.881158
vt 0.215990 0.923329
vt 0.215090 0.923321
vt 0.125060 0.881160
vt 0.125506 0.923330
vt 0.124603 0.923326
vt 0.220571 0.881158
vt 0.221015 0.923329
vt 0.220115 0.923321
vt 0.130089 0.881160
vt 0.130535 0.923330
vt 0.129631 0.923326
vt 0.976390 0.311428
vt 0.940993 0.308376
vt 0.976373 0.305292
vt 0.940985 0.254197
vt 0.976381 0.257248
vt 0.941002 0.260333
vt 0.798262 0.849131
vt 0.821646 0.826991
vt 0.821628 0.871174
vt 0.633532 0.827174
vt 0.656797 0.849082
vt 0.633571 0.871277
vt 0.595857 0.881245
vt 0.616743 0.881196
vt 0.606283 0.921499
vt 0.720617 0.881263
vt 0.741369 0.881196
vt 0.730975 0.921507
vt 0.135118 0.881160
vt 0.135564 0.923330
vt 0.134660 0.923326
vt 0.185395 0.881158
vt 0.185839 0.923329
vt 0.184939 0.923321
vt 0.235646 0.881158
vt 0.236090 0.923329
vt 0.235190 0.923321
vt 0.089860 0.881160
vt 0.090306 0.923330
vt 0.089402 0.923326
vt 0.200471 0.881158
vt 0.200915 0.923329
vt 0.200015 0.923321
vt 0.155232 0.881160
vt 0.155678 0.923330
vt 0.154775 0.923326
vt 0.976390 0.250093
vt 0.940993 0.247042
vt 0.976373 0.243958
vt 0.940985 0.213307
vt 0.976382 0.216358
vt 0.941002 0.219443
vt 0.825835 0.849131
vt 0.849219 0.826991
vt 0.849202 0.871174
vt 0.660955 0.827174
vt 0.684220 0.849083
vt 0.660995 0.871277
vt 0.620836 0.881245
vt 0.641721 0.881196
vt 0.631262 0.921499
vt 0.745462 0.881263
vt 0.766214 0.881196
vt 0.755820 0.921507
vt 0.094888 0.881160
vt 0.095334 0.923330
vt 0.094431 0.923326
vt 0.175345 0.881158
vt 0.175789 0.923329
vt 0.174889 0.923321
vt 0.260771 0.881158
vt 0.261215 0.923329
vt 0.260315 0.923321
vt 0.145175 0.881160
vt 0.145621 0.923330
vt 0.144717 0.923326
vt 0.240671 0.881158
vt 0.241115 0.923329
vt 0.240215 0.923321
vt 0.115003 0.881160
vt 0.115449 0.923330
vt 0.114545 0.923326
vt 0.940994 0.226597
vt 0.976373 0.223513
vt 0.976390 0.229648
vt 0.976381 0.318582
vt 0.941002 0.321667
vt 0.940985 0.315531
vt 0.853408 0.827005
vt 0.876784 0.849083
vt 0.853409 0.871256
vt 0.688398 0.849226
vt 0.711652 0.826991
vt 0.711635 0.871174
vt 0.819998 0.881263
vt 0.840750 0.881196
vt 0.830357 0.921507
vt 0.670793 0.881245
vt 0.691678 0.881196
vt 0.681218 0.921499
vt 0.245696 0.881158
vt 0.246140 0.923329
vt 0.245240 0.923321
vt 0.160261 0.881160
vt 0.160707 0.923330
vt 0.159803 0.923326
vt 0.165290 0.881160
vt 0.165736 0.923330
vt 0.164832 0.923326
vt 0.180370 0.881158
vt 0.180814 0.923329
vt 0.179914 0.923321
vt 0.205496 0.881158
vt 0.205940 0.923329
vt 0.205040 0.923321
vt 0.099917 0.881160
vt 0.100363 0.923330
vt 0.099459 0.923326
vt 0.940993 0.287932
vt 0.976373 0.284847
vt 0.976390 0.290983
vt 0.976381 0.267471
vt 0.941002 0.270555
vt 0.940985 0.264419
vt 0.715822 0.849226
vt 0.739076 0.826991
vt 0.739059 0.871174
vt 0.029613 0.881100
vt 0.052988 0.903177
vt 0.029613 0.925351
vt 0.570879 0.881245
vt 0.591764 0.881196
vt 0.581304 0.921499
vt 0.795153 0.881263
vt 0.815905 0.881196
vt 0.805512 0.921507
vt 0.250721 0.881158
vt 0.251165 0.923329
vt 0.250265 0.923321
vt 0.109974 0.881160
vt 0.110420 0.923330
vt 0.109516 0.923326
vt 0.084831 0.881160
vt 0.085277 0.923330
vt 0.084373 0.923326
vt 0.255746 0.881158
vt 0.256190 0.923329
vt 0.255290 0.923321
vt 0.225596 0.881158
vt 0.226040 0.923329
vt 0.225140 0.923321
vt 0.104946 0.881160
vt 0.105392 0.923330
vt 0.104488 0.923326
vt 0.940985 0.274642
vt 0.976381 0.277693
vt 0.941002 0.280777
vt 0.976390 0.239871
vt 0.940993 0.236820
vt 0.976373 0.233735
vt 0.916439 0.241979
vt 0.896403 0.221716
vt 0.936647 0.221733
vt 0.844888 0.881063
vt 0.865053 0.901410
vt 0.844890 0.921373
vt 0.824927 0.929443
vt 0.833724 0.965875
vt 0.816097 0.965694
vt 0.672598 0.929489
vt 0.681434 0.965876
vt 0.663728 0.965787
vt 0.052599 0.929488
vt 0.053038 0.967725
vt 0.052148 0.967727
vt 0.896382 0.887464
vt 0.934620 0.887023
vt 0.934621 0.887918
vt 0.057614 0.929488
vt 0.058052 0.967725
vt 0.057163 0.967727
vt 0.896382 0.822205
vt 0.934620 0.821764
vt 0.934621 0.822659
vt 0.896382 0.837265
vt 0.934620 0.836824
vt 0.934621 0.837719
vt 0.062628 0.929488
vt 0.063067 0.967725
vt 0.062177 0.967727
vt 0.940994 0.505140
vt 0.971657 0.502061
vt 0.971674 0.508187
vt 0.971665 0.586822
vt 0.941002 0.589901
vt 0.940985 0.583775
vt 0.896284 0.266437
vt 0.916526 0.246182
vt 0.936595 0.266435
vt 0.916439 0.046687
vt 0.896509 0.026515
vt 0.936752 0.026532
vt 0.585259 0.929489
vt 0.594095 0.965876
vt 0.576389 0.965787
vt 0.716149 0.929443
vt 0.724945 0.965875
vt 0.707318 0.965693
vt 0.896382 0.812165
vt 0.934620 0.811724
vt 0.934621 0.812619
vt 0.067643 0.929488
vt 0.068082 0.967725
vt 0.067192 0.967727
vt 0.072658 0.929488
vt 0.073097 0.967725
vt 0.072207 0.967727
vt 0.896382 0.892484
vt 0.934620 0.892043
vt 0.934621 0.892938
vt 0.896382 0.897504
vt 0.934620 0.897063
vt 0.934621 0.897958
vt 0.077673 0.929488
vt 0.078111 0.967725
vt 0.077222 0.967727
vt 0.971674 0.487763
vt 0.940994 0.484716
vt 0.971657 0.481636
vt 0.940985 0.553138
vt 0.971665 0.556185
vt 0.941002 0.559265
vt 0.916566 0.436271
vt 0.896309 0.416332
vt 0.936553 0.416350
vt 0.896320 0.508965
vt 0.916432 0.488928
vt 0.936632 0.508963
vt 0.941062 0.032457
vt 0.977385 0.023772
vt 0.977426 0.041176
vt 0.911671 0.929546
vt 0.920413 0.965876
vt 0.902897 0.965901
vt 0.896380 0.731754
vt 0.934620 0.731309
vt 0.934617 0.732212
vt 0.127877 0.929484
vt 0.128321 0.967725
vt 0.127421 0.967717
vt 0.896380 0.761927
vt 0.934620 0.761481
vt 0.934617 0.762385
vt 0.132902 0.929484
vt 0.133346 0.967725
vt 0.132446 0.967716
vt 0.896380 0.766955
vt 0.934620 0.766510
vt 0.934616 0.767413
vt 0.102752 0.929484
vt 0.103196 0.967725
vt 0.102296 0.967716
vt 0.971665 0.617459
vt 0.941002 0.620538
vt 0.940985 0.614412
vt 0.940994 0.545989
vt 0.971657 0.542910
vt 0.971674 0.549036
vt 0.916476 0.484725
vt 0.896309 0.464681
vt 0.936553 0.464698
vt 0.896483 0.388073
vt 0.916431 0.368120
vt 0.936649 0.388028
vt 0.941062 0.053991
vt 0.977385 0.045305
vt 0.977426 0.062709
vt 0.868383 0.929546
vt 0.877124 0.965876
vt 0.859608 0.965901
vt 0.896380 0.771984
vt 0.934620 0.771538
vt 0.934616 0.772442
vt 0.112802 0.929484
vt 0.113246 0.967725
vt 0.112346 0.967717
vt 0.137927 0.929484
vt 0.138371 0.967725
vt 0.137471 0.967717
vt 0.896380 0.802121
vt 0.934620 0.801675
vt 0.934616 0.802579
vt 0.896380 0.736783
vt 0.934620 0.736337
vt 0.934617 0.737241
vt 0.142952 0.929484
vt 0.143396 0.967725
vt 0.142496 0.967717
vt 0.940994 0.597051
vt 0.971657 0.593971
vt 0.971674 0.600098
vt 0.971665 0.433638
vt 0.941002 0.436717
vt 0.940985 0.430591
vt 0.869255 0.901218
vt 0.889427 0.881289
vt 0.889410 0.921531
vt 0.896284 0.168609
vt 0.916525 0.148353
vt 0.936595 0.168607
vt 0.846683 0.929443
vt 0.855478 0.965875
vt 0.837852 0.965693
vt 0.607094 0.929489
vt 0.615930 0.965876
vt 0.598224 0.965787
vt 0.082687 0.929488
vt 0.083126 0.967725
vt 0.082236 0.967727
vt 0.896382 0.902524
vt 0.934620 0.902083
vt 0.934621 0.902978
vt 0.087702 0.929488
vt 0.088141 0.967725
vt 0.087251 0.967727
vt 0.896382 0.807145
vt 0.934620 0.806704
vt 0.934621 0.807599
vt 0.896382 0.922586
vt 0.934620 0.922147
vt 0.934622 0.923037
vt 0.896382 0.842285
vt 0.934620 0.841843
vt 0.934621 0.842739
vt 0.971665 0.443850
vt 0.941002 0.446929
vt 0.940985 0.440803
vt 0.940994 0.607263
vt 0.971657 0.604184
vt 0.971674 0.610310
vt 0.896283 0.071054
vt 0.916631 0.050889
vt 0.936593 0.071052
vt 0.916439 0.339808
vt 0.896403 0.319545
vt 0.936647 0.319562
vt 0.759660 0.929443
vt 0.768456 0.965875
vt 0.750829 0.965693
vt 0.628929 0.929489
vt 0.637764 0.965876
vt 0.620058 0.965787
vt 0.007466 0.929488
vt 0.007905 0.967725
vt 0.007015 0.967727
vt 0.896383 0.777008
vt 0.934620 0.776567
vt 0.934621 0.777462
vt 0.896382 0.847305
vt 0.934620 0.846864
vt 0.934621 0.847759
vt 0.092717 0.929488
vt 0.093156 0.967725
vt 0.092266 0.967727
vt 0.896382 0.792068
vt 0.934620 0.791627
vt 0.934621 0.792522
vt 0.012481 0.929488
vt 0.012919 0.967725
vt 0.012030 0.967727
vt 0.940985 0.420378
vt 0.971665 0.423425
vt 0.941002 0.426505
vt 0.971674 0.569461
vt 0.940994 0.566414
vt 0.971657 0.563335
vt 0.821748 0.328363
vt 0.855593 0.277456
vt 0.889579 0.328363
vt 0.855709 0.493051
vt 0.821657 0.442457
vt 0.889530 0.442483
vt 0.740632 0.712436
vt 0.740301 0.782986
vt 0.739936 0.712435
vt 0.705533 0.782986
vt 0.705864 0.712436
vt 0.706229 0.782987
vt 0.892155 0.051969
vt 0.821605 0.051638
vt 0.892156 0.051273
vt 0.821605 0.046373
vt 0.892155 0.046704
vt 0.821604 0.047069
vt 0.892155 0.056887
vt 0.821605 0.056555
vt 0.892156 0.056190
vt 0.821605 0.061124
vt 0.892156 0.061456
vt 0.821604 0.061820
vt 0.892155 0.248654
vt 0.821605 0.248323
vt 0.892156 0.247958
vt 0.770135 0.712436
vt 0.769804 0.782986
vt 0.769439 0.712435
vt 0.892155 0.066721
vt 0.821605 0.066390
vt 0.892156 0.066025
vt 0.821605 0.144716
vt 0.892155 0.145047
vt 0.821604 0.145412
vt 0.892155 0.174898
vt 0.821605 0.174566
vt 0.892156 0.174201
vt 0.821606 0.149633
vt 0.892156 0.149964
vt 0.821604 0.150329
vt 0.764539 0.782986
vt 0.764870 0.712436
vt 0.765235 0.782987
vt 0.821605 0.169301
vt 0.892156 0.169632
vt 0.821604 0.169997
vt 0.745636 0.193441
vt 0.745305 0.263991
vt 0.744940 0.193440
vt 0.892155 0.214234
vt 0.821605 0.213903
vt 0.892156 0.213538
vt 0.710450 0.782986
vt 0.710781 0.712436
vt 0.711146 0.782987
vt 0.821605 0.070959
vt 0.892155 0.071290
vt 0.821604 0.071655
vt 0.892155 0.012632
vt 0.821605 0.012301
vt 0.892156 0.011936
vt 0.821605 0.154550
vt 0.892156 0.154881
vt 0.821604 0.155246
vt 0.892155 0.243737
vt 0.821605 0.243406
vt 0.892156 0.243041
vt 0.821605 0.075876
vt 0.892155 0.076207
vt 0.821604 0.076572
vt 0.216068 0.782607
vt 0.216399 0.712057
vt 0.216764 0.782608
vt 0.821605 0.026705
vt 0.892156 0.027036
vt 0.821604 0.027401
vt 0.892155 0.233903
vt 0.821605 0.233571
vt 0.892156 0.233207
vt 0.821605 0.080793
vt 0.892156 0.081124
vt 0.821604 0.081489
vt 0.892155 0.219151
vt 0.821605 0.218820
vt 0.892156 0.218455
vt 0.821605 0.085710
vt 0.892155 0.086041
vt 0.821604 0.086406
vt 0.892155 0.091306
vt 0.821605 0.090975
vt 0.892156 0.090610
vt 0.750554 0.193441
vt 0.750223 0.263991
vt 0.749858 0.193440
vt 0.332048 0.872367
vt 0.337918 0.827117
vt 0.343770 0.872388
vt 0.564802 0.872093
vt 0.558982 0.827089
vt 0.570639 0.827156
vt 0.855663 0.383367
vt 0.821657 0.332448
vt 0.889530 0.332474
vt 0.821794 0.547730
vt 0.855593 0.497149
vt 0.889624 0.547730
vt 0.405784 0.781129
vt 0.406115 0.710579
vt 0.406480 0.781130
vt 0.821606 0.238141
vt 0.892155 0.238472
vt 0.821604 0.238837
vt 0.740040 0.263991
vt 0.740371 0.193440
vt 0.740736 0.263992
vt 0.821605 0.031622
vt 0.892156 0.031953
vt 0.821604 0.032318
vt 0.735367 0.712436
vt 0.735732 0.782987
vt 0.735036 0.782986
vt 0.892155 0.095875
vt 0.821604 0.096240
vt 0.821605 0.095544
vt 0.892155 0.224068
vt 0.821605 0.223737
vt 0.892156 0.223372
vt 0.821605 0.041456
vt 0.892155 0.041787
vt 0.821604 0.042152
vt 0.750466 0.712436
vt 0.750135 0.782986
vt 0.749770 0.712435
vt 0.754704 0.782986
vt 0.755036 0.712436
vt 0.755400 0.782987
vt 0.892155 0.101141
vt 0.821605 0.100810
vt 0.892156 0.100445
vt 0.821605 0.252892
vt 0.892156 0.253223
vt 0.821604 0.253588
vt 0.821605 0.203721
vt 0.892155 0.204052
vt 0.821604 0.204417
vt 0.892155 0.106058
vt 0.821605 0.105727
vt 0.892156 0.105362
vt 0.400867 0.781129
vt 0.401198 0.710579
vt 0.401563 0.781130
vt 0.775052 0.712436
vt 0.774721 0.782986
vt 0.774356 0.712435
vt 0.730119 0.782986
vt 0.730450 0.712436
vt 0.730815 0.782987
vt 0.821605 0.110296
vt 0.892155 0.110627
vt 0.821604 0.110992
vt 0.821605 0.257809
vt 0.892155 0.258140
vt 0.821604 0.258505
vt 0.725202 0.782986
vt 0.725533 0.712436
vt 0.725898 0.782987
vt 0.720964 0.712436
vt 0.720633 0.782986
vt 0.720268 0.712435
vt 0.892155 0.115892
vt 0.821605 0.115561
vt 0.892156 0.115196
vt 0.754792 0.263991
vt 0.755123 0.193440
vt 0.755488 0.263992
vt 0.821605 0.179135
vt 0.892156 0.179467
vt 0.821604 0.179831
vt 0.759622 0.782986
vt 0.759953 0.712436
vt 0.760318 0.782987
vt 0.821605 0.120130
vt 0.892156 0.120461
vt 0.821604 0.120826
vt 0.892154 0.125726
vt 0.821605 0.125395
vt 0.892156 0.125030
vt 0.821605 0.262726
vt 0.892155 0.263057
vt 0.821604 0.263422
vt 0.769543 0.263991
vt 0.769874 0.193440
vt 0.770239 0.263992
vt 0.821606 0.129964
vt 0.892155 0.130295
vt 0.821604 0.130660
vt 0.347770 0.872367
vt 0.353640 0.827117
vt 0.359493 0.872388
vt 0.596247 0.872092
vt 0.590427 0.827089
vt 0.602084 0.827156
vt 0.855663 0.438372
vt 0.821657 0.387452
vt 0.889530 0.387479
vt 0.821794 0.602409
vt 0.855593 0.551828
vt 0.889624 0.602409
vt 0.691130 0.782986
vt 0.690765 0.712435
vt 0.691461 0.712436
vt 0.735454 0.193440
vt 0.735819 0.263992
vt 0.735123 0.263991
vt 0.715716 0.782986
vt 0.715351 0.712435
vt 0.716047 0.712436
vt 0.821605 0.228654
vt 0.892156 0.228290
vt 0.892155 0.228986
vt 0.892156 0.036870
vt 0.821604 0.037235
vt 0.821605 0.036539
vt 0.821605 0.184401
vt 0.892156 0.184036
vt 0.892155 0.184732
vt 0.821605 0.189318
vt 0.892156 0.188953
vt 0.892155 0.189649
vt 0.892156 0.022119
vt 0.821604 0.022483
vt 0.821605 0.021788
vt 0.207899 0.782607
vt 0.207534 0.712056
vt 0.208230 0.712057
vt 0.821605 0.164732
vt 0.892156 0.164367
vt 0.892155 0.165063
vt 0.779638 0.782986
vt 0.779273 0.712435
vt 0.779969 0.712436
vt 0.821605 0.007384
vt 0.892156 0.007019
vt 0.892155 0.007715
vt 0.892155 0.135212
vt 0.821604 0.135577
vt 0.821606 0.134881
vt 0.421831 0.712798
vt 0.422196 0.783350
vt 0.421500 0.783348
vt 0.779725 0.263991
vt 0.779360 0.193439
vt 0.780056 0.193440
vt 0.821605 0.002467
vt 0.892156 0.002102
vt 0.892155 0.002798
vt 0.774808 0.263991
vt 0.774443 0.193439
vt 0.775139 0.193440
vt 0.745201 0.712436
vt 0.745566 0.782987
vt 0.744870 0.782986
vt 0.696030 0.712436
vt 0.696395 0.782987
vt 0.695699 0.782986
vt 0.892155 0.267974
vt 0.821604 0.268339
vt 0.821605 0.267643
vt 0.821605 0.208986
vt 0.892156 0.208621
vt 0.892155 0.209317
vt 0.760057 0.263991
vt 0.759692 0.193439
vt 0.760388 0.193440
vt 0.821605 0.199152
vt 0.892156 0.198787
vt 0.892155 0.199483
vt 0.700964 0.782986
vt 0.700599 0.712435
vt 0.701295 0.712436
vt 0.764974 0.263991
vt 0.764609 0.193439
vt 0.765305 0.193440
vt 0.821605 0.017218
vt 0.892156 0.016853
vt 0.892155 0.017549
vt 0.821605 0.159815
vt 0.892156 0.159450
vt 0.892155 0.160146
vt 0.892155 0.272891
vt 0.821604 0.273256
vt 0.821605 0.272560
vt 0.892156 0.140130
vt 0.821604 0.140495
vt 0.821606 0.139799
vt 0.821605 0.194235
vt 0.892156 0.193870
vt 0.892155 0.194566
vt 0.369354 0.872378
vt 0.363534 0.827089
vt 0.375191 0.827146
vt 0.574663 0.872077
vt 0.580533 0.827122
vt 0.586386 0.872109
vt 0.658708 0.822848
vt 0.650263 0.712436
vt 0.667164 0.712493
vt 0.186441 0.822909
vt 0.194942 0.711829
vt 0.203432 0.822940
vt 0.461926 0.972038
vt 0.477541 0.980394
vt 0.461926 0.988808
vt 0.540755 0.980437
vt 0.556278 0.971972
vt 0.556263 0.988817
vt 0.809249 0.980935
vt 0.810250 0.973416
vt 0.815302 0.979698
vt 0.847019 0.980725
vt 0.849475 0.972993
vt 0.853151 0.979709
vt 0.981553 0.354609
vt 0.989246 0.354793
vt 0.981553 0.354958
vt 0.981553 0.438582
vt 0.989210 0.438387
vt 0.989185 0.438783
vt 0.969762 0.966810
vt 0.977455 0.966994
vt 0.969762 0.967159
vt 0.981553 0.401341
vt 0.989210 0.401146
vt 0.989185 0.401542
vt 0.981553 0.322024
vt 0.989246 0.322208
vt 0.981553 0.322373
vt 0.981553 0.443237
vt 0.989210 0.443042
vt 0.989185 0.443438
vt 0.981606 0.039394
vt 0.992431 0.039592
vt 0.981654 0.039797
vt 0.992506 0.035088
vt 0.981630 0.034941
vt 0.992457 0.034685
vt 0.981553 0.396505
vt 0.989246 0.396689
vt 0.981553 0.396854
vt 0.981553 0.447892
vt 0.989210 0.447697
vt 0.989185 0.448093
vt 0.981553 0.410652
vt 0.989210 0.410456
vt 0.989185 0.410852
vt 0.981553 0.326679
vt 0.989246 0.326863
vt 0.981553 0.327028
vt 0.981737 0.270355
vt 0.981728 0.268740
vt 0.990864 0.269538
vt 0.981687 0.287553
vt 0.981669 0.285992
vt 0.990864 0.286770
vt 0.694965 0.986935
vt 0.692960 0.986956
vt 0.693942 0.972009
vt 0.700058 0.986945
vt 0.699036 0.972020
vt 0.701041 0.971999
vt 0.707157 0.986935
vt 0.705152 0.986956
vt 0.706134 0.972009
vt 0.669577 0.986946
vt 0.668554 0.972020
vt 0.670560 0.971999
vt 0.481659 0.980422
vt 0.497282 0.971972
vt 0.497265 0.988817
vt 0.560389 0.972050
vt 0.575904 0.980395
vt 0.560388 0.988821
vt 0.796596 0.978587
vt 0.801694 0.974027
vt 0.802632 0.982015
vt 0.823310 0.982717
vt 0.821369 0.975077
vt 0.827752 0.977361
vt 0.981553 0.373405
vt 0.989258 0.373216
vt 0.989234 0.373612
vt 0.981553 0.452373
vt 0.989198 0.452550
vt 0.981553 0.452722
vt 0.981553 0.378060
vt 0.989258 0.377871
vt 0.989234 0.378267
vt 0.981553 0.457028
vt 0.989198 0.457205
vt 0.981553 0.457377
vt 0.981553 0.382715
vt 0.989258 0.382526
vt 0.989234 0.382922
vt 0.981553 0.424442
vt 0.989197 0.424620
vt 0.981553 0.424791
vt 0.981680 0.016269
vt 0.992458 0.016064
vt 0.992507 0.016467
vt 0.992432 0.081487
vt 0.981654 0.081692
vt 0.981706 0.081188
vt 0.992506 0.007157
vt 0.981679 0.006968
vt 0.992458 0.006754
vt 0.981706 0.057913
vt 0.992481 0.058155
vt 0.981654 0.058417
vt 0.981553 0.387369
vt 0.989258 0.387181
vt 0.989234 0.387577
vt 0.981553 0.466338
vt 0.989197 0.466515
vt 0.981553 0.466687
vt 0.981687 0.281808
vt 0.981669 0.280246
vt 0.990864 0.281025
vt 0.981737 0.258884
vt 0.981728 0.257268
vt 0.990864 0.258067
vt 0.713253 0.986935
vt 0.711248 0.986956
vt 0.712231 0.972009
vt 0.681770 0.986945
vt 0.680747 0.972020
vt 0.682752 0.971999
vt 0.718347 0.986945
vt 0.717325 0.972020
vt 0.719330 0.971999
vt 0.725446 0.986935
vt 0.723441 0.986956
vt 0.724423 0.972009
vt 0.501390 0.980423
vt 0.517013 0.971972
vt 0.516997 0.988817
vt 0.521124 0.972050
vt 0.536639 0.980395
vt 0.521123 0.988821
vt 0.834624 0.980725
vt 0.837080 0.972994
vt 0.840757 0.979709
vt 0.784492 0.980935
vt 0.785493 0.973417
vt 0.790545 0.979698
vt 0.981553 0.471168
vt 0.989210 0.470972
vt 0.989185 0.471368
vt 0.981553 0.359264
vt 0.989246 0.359449
vt 0.981553 0.359613
vt 0.981553 0.415306
vt 0.989210 0.415111
vt 0.989185 0.415507
vt 0.981553 0.391850
vt 0.989246 0.392034
vt 0.981553 0.392199
vt 0.981553 0.345299
vt 0.989246 0.345483
vt 0.981553 0.345648
vt 0.981553 0.433927
vt 0.989210 0.433732
vt 0.989185 0.434128
vt 0.962969 0.982832
vt 0.963116 0.971955
vt 0.963372 0.982783
vt 0.981706 0.085843
vt 0.992482 0.086091
vt 0.981654 0.086347
vt 0.981553 0.335989
vt 0.989246 0.336173
vt 0.981553 0.336338
vt 0.981553 0.475823
vt 0.989210 0.475627
vt 0.989185 0.476023
vt 0.981553 0.340644
vt 0.989246 0.340828
vt 0.981553 0.340993
vt 0.981553 0.480478
vt 0.989210 0.480282
vt 0.989185 0.480678
vt 0.981687 0.276062
vt 0.981669 0.274500
vt 0.990864 0.275279
vt 0.981737 0.264620
vt 0.981728 0.263004
vt 0.990864 0.263803
vt 0.676676 0.986935
vt 0.674671 0.986956
vt 0.675653 0.972009
vt 0.730540 0.986945
vt 0.729517 0.972020
vt 0.731522 0.971999
vt 0.737638 0.986935
vt 0.735633 0.986956
vt 0.736616 0.972009
vt 0.687866 0.986945
vt 0.686843 0.972020
vt 0.688848 0.971999
vt 0.183015 0.706516
vt 0.182317 0.529129
vt 0.183487 0.529020
vt 0.729493 0.179571
vt 0.728721 0.002141
vt 0.730004 0.002153
vt 0.401025 0.706327
vt 0.400490 0.528951
vt 0.401633 0.528859
vt 0.188938 0.706507
vt 0.188102 0.529129
vt 0.189272 0.529020
vt 0.314316 0.827014
vt 0.321642 0.874030
vt 0.306984 0.874102
vt 0.295446 0.827083
vt 0.302753 0.874030
vt 0.288189 0.874115
vt 0.768776 0.971998
vt 0.771946 0.984855
vt 0.765606 0.984887
vt 0.758346 0.972065
vt 0.761496 0.984855
vt 0.755195 0.984893
vt 0.743986 0.002054
vt 0.646059 0.523582
vt 0.814515 0.417775
vt 0.990833 0.236380
vt 0.941022 0.773559
vt 0.940994 0.773029
vt 0.969600 0.773167
vt 0.744138 0.174874
vt 0.803703 0.671342
vt 0.990833 0.229322
vt 0.940997 0.763781
vt 0.940921 0.763069
vt 0.969579 0.763442
vt 0.803889 0.523582
vt 0.814670 0.270676
vt 0.814360 0.417560
vt 0.990808 0.239348
vt 0.990991 0.239218
vt 0.216682 0.529218
vt 0.207615 0.707958
vt 0.426481 0.708741
vt 0.426451 0.528823
vt 0.787936 0.004929
vt 0.792140 0.002020
vt 0.990985 0.250257
vt 0.984258 0.253119
vt 0.981735 0.250257
vt 0.981553 0.250389
vt 0.981735 0.243348
vt 0.981553 0.243480
vt 0.990994 0.232142
vt 0.801449 0.004959
vt 0.805654 0.002044
s 1
usemtl public_007_baked
f 10/1/1 12/2/1 13/3/1
f 19/4/2 9/5/2 21/6/2
f 23/7/3 24/8/3 22/9/3
f 25/10/4 27/11/4 28/12/4
f 30/13/5 31/14/5 29/15/5
f 38/16/6 40/17/7 37/18/8
f 42/19/9 44/20/9 45/21/9
f 47/22/10 48/23/10 46/24/10
f 49/25/11 51/26/12 41/27/13
f 52/28/14 53/29/14 54/30/14
f 58/31/15 59/32/15 57/33/15
f 60/34/16 62/35/17 55/36/18
f 31/14/19 26/37/20 29/15/21
f 22/9/22 19/4/22 21/6/22
f 42/19/23 30/13/23 29/15/23
f 33/38/24 44/20/24 32/39/24
f 56/40/25 31/14/26 55/41/27
f 10/42/28 16/43/28 15/44/28
f 32/45/29 19/46/29 33/47/29
f 53/29/14 46/24/14 54/30/14
f 38/48/30 25/10/30 28/12/30
f 57/33/31 39/49/31 38/16/31
f 43/50/32 48/23/33 41/51/34
f 9/52/35 18/53/36 17/54/37
f 34/55/38 36/56/39 35/57/40
f 21/6/41 13/3/42 12/2/43
f 61/58/44 23/7/44 22/9/44
f 50/59/45 11/60/45 51/26/45
f 55/36/27 59/32/46 56/61/25
f 61/58/47 26/62/47 62/35/47
f 50/59/48 58/31/48 57/33/48
f 41/27/34 24/8/49 43/63/32
f 18/64/50 27/11/50 17/65/50
f 36/66/51 39/67/51 35/68/51
f 4/69/52 5/70/52 3/71/52
f 3/72/52 5/73/52 4/74/52
f 7/75/52 6/76/52 8/77/52
f 7/78/52 8/79/52 6/80/52
f 9/81/53 16/43/54 13/82/42
f 18/83/36 9/84/35 20/85/55
f 17/54/56 16/86/54 9/52/53
f 12/2/57 50/59/57 57/33/57
f 36/87/39 34/88/38 10/89/58
f 21/6/57 12/2/57 38/16/57
f 12/90/59 38/91/59 36/87/39
f 40/92/60 39/93/60 12/94/60
f 12/2/57 57/33/57 38/16/57
f 34/95/61 51/96/61 11/97/61
f 17/54/56 14/98/62 16/86/54
f 14/99/62 17/100/56 28/101/63
f 15/102/64 14/103/65 40/92/66
f 14/99/62 28/101/63 37/104/67
f 18/83/36 20/85/55 27/105/59
f 22/9/68 20/106/68 27/107/68
f 38/16/43 28/108/43 27/107/43
f 25/109/59 27/110/59 20/111/59
f 44/112/69 33/47/69 19/46/69
f 45/113/70 23/114/70 30/115/70
f 44/116/71 43/117/72 23/114/59
f 22/9/57 27/107/57 61/58/57
f 24/118/73 42/119/73 44/120/73
f 30/115/74 61/121/74 62/122/74
f 48/123/75 24/118/75 51/124/75
f 32/125/76 26/126/20 25/109/77
f 29/15/21 26/37/20 32/127/76
f 31/128/69 59/129/69 62/130/69
f 52/131/69 58/132/69 59/129/69
f 29/15/78 32/127/78 45/21/78
f 35/57/79 46/24/80 34/55/81
f 35/57/79 54/30/82 46/24/80
f 52/133/83 35/68/84 39/67/85
f 58/134/75 53/135/75 39/67/85
f 47/136/86 53/137/86 58/138/86
f 47/136/87 50/139/87 51/140/87
f 53/137/88 56/141/89 58/138/86
f 65/142/69 64/143/69 63/144/69
f 64/145/69 65/146/69 63/147/69
f 66/148/52 68/149/52 67/150/52
f 68/151/52 66/152/52 67/153/52
f 69/154/52 71/155/52 70/156/52
f 69/157/52 70/158/52 71/159/52
f 74/160/52 73/161/52 72/162/52
f 74/163/52 72/164/52 73/165/52
f 76/166/52 77/167/52 75/168/52
f 76/169/52 75/170/52 77/171/52
f 79/172/52 80/173/52 78/174/52
f 79/175/52 78/176/52 80/177/52
f 81/178/57 83/179/57 82/180/52
f 83/181/57 81/182/57 82/183/52
f 84/184/52 85/185/52 86/186/52
f 85/187/52 84/188/52 86/189/52
f 87/190/52 88/191/52 89/192/52
f 87/193/52 89/194/52 88/195/52
f 90/196/52 92/197/52 91/198/52
f 90/199/52 91/200/52 92/201/52
f 94/202/52 95/203/52 93/204/52
f 94/205/52 93/206/52 95/207/52
f 97/208/90 96/209/91 98/210/92
f 98/211/92 96/212/91 97/213/90
f 99/214/93 101/215/52 100/216/94
f 101/217/52 99/218/93 100/219/94
f 102/220/52 104/221/86 103/222/86
f 104/223/86 102/224/52 103/225/86
f 105/226/52 107/227/52 106/228/52
f 105/229/52 106/230/52 107/231/52
f 110/232/52 108/233/52 109/234/52
f 110/235/52 109/236/52 108/237/52
f 111/238/52 113/239/52 112/240/52
f 111/241/52 112/242/52 113/243/52
f 115/244/52 114/245/52 116/246/52
f 115/247/52 116/248/52 114/249/52
f 117/250/95 118/251/96 119/252/97
f 118/253/96 117/254/95 119/255/97
f 120/256/52 122/257/86 121/258/86
f 122/259/86 120/260/52 121/261/86
f 125/262/52 124/263/52 123/264/52
f 125/265/52 123/266/52 124/267/52
f 126/268/52 128/269/52 127/270/52
f 126/271/52 127/272/52 128/273/52
f 130/274/52 131/275/52 129/276/52
f 130/277/52 129/278/52 131/279/52
f 134/280/59 132/281/59 133/282/59
f 133/283/59 132/284/59 134/285/59
f 137/286/98 135/287/99 136/288/100
f 135/289/99 137/290/98 136/291/100
f 138/292/101 140/293/102 139/294/101
f 140/295/102 138/296/101 139/297/101
f 141/298/52 143/299/52 142/300/52
f 141/301/52 142/302/52 143/303/52
f 146/304/52 145/305/52 144/306/52
f 146/307/52 144/308/52 145/309/52
f 147/310/52 148/311/52 149/312/52
f 147/313/52 149/314/52 148/315/52
f 152/316/52 150/317/52 151/318/52
f 152/319/52 151/320/52 150/321/52
f 153/322/103 154/323/104 155/324/105
f 154/325/104 153/326/103 155/327/105
f 157/328/52 158/329/52 156/330/52
f 158/331/52 157/332/52 156/333/52
f 160/334/52 161/335/52 159/336/52
f 160/337/52 159/338/52 161/339/52
f 164/340/52 163/341/52 162/342/52
f 164/343/52 162/344/52 163/345/52
f 166/346/52 167/347/52 165/348/52
f 166/349/52 165/350/52 167/351/52
f 170/352/106 169/353/107 168/354/108
f 168/355/108 169/356/107 170/357/106
f 171/358/86 173/359/86 172/360/86
f 173/361/86 171/362/86 172/363/86
f 175/364/52 176/365/52 174/366/52
f 176/367/52 175/368/52 174/369/52
f 178/370/52 177/371/52 179/372/52
f 178/373/52 179/374/52 177/375/52
f 182/376/52 181/377/52 180/378/52
f 182/379/52 180/380/52 181/381/52
f 183/382/52 185/383/52 184/384/52
f 183/385/52 184/386/52 185/387/52
f 186/388/52 188/389/52 187/390/52
f 186/391/52 187/392/52 188/393/52
f 190/394/109 189/395/59 191/396/59
f 189/397/59 190/398/109 191/399/59
f 192/400/52 193/401/52 194/402/52
f 193/403/52 192/404/52 194/405/52
f 195/406/52 197/407/52 196/408/52
f 195/409/52 196/410/52 197/411/52
f 199/412/52 200/413/52 198/414/52
f 199/415/52 198/416/52 200/417/52
f 202/418/52 203/419/52 201/420/52
f 202/421/52 201/422/52 203/423/52
f 205/424/52 204/425/110 206/426/111
f 206/427/111 204/428/110 205/429/52
f 207/430/112 209/431/52 208/432/112
f 209/433/52 207/434/112 208/435/112
f 212/436/52 210/437/52 211/438/52
f 210/439/52 212/440/52 211/441/52
f 213/442/52 215/443/52 214/444/52
f 213/445/52 214/446/52 215/447/52
f 216/448/52 217/449/52 218/450/52
f 216/451/52 218/452/52 217/453/52
f 220/454/52 221/455/52 219/456/52
f 220/457/52 219/458/52 221/459/52
f 224/460/86 223/461/86 222/462/86
f 222/463/86 223/464/86 224/465/86
f 226/466/113 227/467/52 225/468/114
f 227/469/52 226/470/113 225/471/114
f 229/472/52 230/473/52 228/474/52
f 230/475/52 229/476/52 228/477/52
f 231/478/52 232/479/52 233/480/52
f 231/481/52 233/482/52 232/483/52
f 234/484/52 235/485/52 236/486/52
f 234/487/52 236/488/52 235/489/52
f 237/490/52 239/491/52 238/492/52
f 237/493/52 238/494/52 239/495/52
f 242/496/52 240/497/52 241/498/52
f 242/499/52 241/500/52 240/501/52
f 243/502/115 244/503/116 245/504/117
f 244/505/116 243/506/115 245/507/117
f 247/508/52 248/509/52 246/510/52
f 248/511/52 247/512/52 246/513/52
f 249/514/52 251/515/52 250/516/52
f 249/517/52 250/518/52 251/519/52
f 252/520/52 254/521/52 253/522/52
f 252/523/52 253/524/52 254/525/52
f 256/526/52 257/527/52 255/528/52
f 256/529/52 255/530/52 257/531/52
f 259/532/52 258/533/52 260/534/52
f 259/535/52 260/536/52 258/537/52
f 263/538/118 261/539/119 262/540/120
f 261/541/119 263/542/118 262/543/120
f 264/544/52 266/545/52 265/546/52
f 266/547/52 264/548/52 265/549/52
f 269/550/52 268/551/52 267/552/52
f 269/553/52 267/554/52 268/555/52
f 271/556/52 272/557/52 270/558/52
f 271/559/52 270/560/52 272/561/52
f 274/562/52 275/563/52 273/564/52
f 274/565/52 273/566/52 275/567/52
f 277/568/86 278/569/86 276/570/86
f 276/571/86 278/572/86 277/573/86
f 280/574/121 281/575/122 279/576/123
f 281/577/122 280/578/121 279/579/123
f 282/580/52 283/581/52 284/582/52
f 282/583/52 284/584/52 283/585/52
f 287/586/52 285/587/52 286/588/52
f 287/589/52 286/590/52 285/591/52
f 289/592/52 288/593/52 290/594/52
f 289/595/52 290/596/52 288/597/52
f 292/598/52 293/599/52 291/600/52
f 292/601/52 291/602/52 293/603/52
f 295/604/52 294/605/52 296/606/52
f 295/607/52 296/608/52 294/609/52
f 299/610/124 298/611/125 297/612/126
f 298/613/125 299/614/124 297/615/126
f 301/616/52 300/617/52 302/618/52
f 301/619/52 302/620/52 300/621/52
f 303/622/52 305/623/52 304/624/52
f 303/625/52 304/626/52 305/627/52
f 307/628/52 308/629/52 306/630/52
f 307/631/52 306/632/52 308/633/52
f 311/634/52 310/635/52 309/636/52
f 311/637/52 309/638/52 310/639/52
f 314/640/75 312/641/75 313/642/75
f 313/643/75 312/644/75 314/645/75
f 315/646/127 317/647/128 316/648/129
f 317/649/128 315/650/127 316/651/129
f 318/652/52 319/653/52 320/654/52
f 318/655/52 320/656/52 319/657/52
f 322/658/52 323/659/52 321/660/52
f 322/661/52 321/662/52 323/663/52
f 326/664/52 325/665/52 324/666/52
f 326/667/52 324/668/52 325/669/52
f 327/670/52 328/671/52 329/672/52
f 327/673/52 329/674/52 328/675/52
f 330/676/52 331/677/52 332/678/52
f 330/679/52 332/680/52 331/681/52
f 333/682/130 335/683/131 334/684/132
f 335/685/131 333/686/130 334/687/132
f 336/688/52 337/689/52 338/690/52
f 336/691/52 338/692/52 337/693/52
f 339/694/52 340/695/52 341/696/52
f 339/697/52 341/698/52 340/699/52
f 342/700/52 343/701/52 344/702/52
f 342/703/52 344/704/52 343/705/52
f 346/706/52 347/707/52 345/708/52
f 346/709/52 345/710/52 347/711/52
f 350/712/52 349/713/52 348/714/52
f 350/715/52 348/716/52 349/717/52
f 352/718/133 353/719/134 351/720/133
f 353/721/134 352/722/133 351/723/133
f 354/724/52 355/725/52 356/726/52
f 354/727/52 356/728/52 355/729/52
f 357/730/52 359/731/52 358/732/52
f 357/733/52 358/734/52 359/735/52
f 360/736/52 361/737/52 362/738/52
f 360/739/52 362/740/52 361/741/52
f 363/742/52 364/743/52 365/744/52
f 363/745/52 365/746/52 364/747/52
f 366/748/52 368/749/52 367/750/52
f 366/751/52 367/752/52 368/753/52
f 371/754/135 369/755/136 370/756/137
f 369/757/136 371/758/135 370/759/137
f 373/760/52 372/761/52 374/762/52
f 373/763/52 374/764/52 372/765/52
f 377/766/52 376/767/52 375/768/52
f 377/769/52 375/770/52 376/771/52
f 378/772/52 380/773/52 379/774/52
f 378/775/52 379/776/52 380/777/52
f 382/778/52 383/779/52 381/780/52
f 382/781/52 381/782/52 383/783/52
f 386/784/69 384/785/69 385/786/69
f 385/787/69 384/788/69 386/789/69
f 389/790/138 388/791/139 387/792/139
f 388/793/139 389/794/138 387/795/139
f 391/796/75 390/797/75 392/798/75
f 392/799/75 390/800/75 391/801/75
f 395/802/52 394/803/52 393/804/52
f 393/805/52 394/806/52 395/807/52
f 398/808/69 397/809/69 396/810/69
f 396/811/69 397/812/69 398/813/69
f 401/814/69 400/815/69 399/816/69
f 399/817/69 400/818/69 401/819/69
f 404/820/52 403/821/52 402/822/52
f 402/823/52 403/824/52 404/825/52
f 407/826/69 405/827/69 406/828/69
f 406/829/69 405/830/69 407/831/69
f 409/832/52 410/833/52 408/834/52
f 408/835/52 410/836/52 409/837/52
f 413/838/52 411/839/52 412/840/52
f 412/841/52 411/842/52 413/843/52
f 416/844/69 414/845/69 415/846/69
f 415/847/69 414/848/69 416/849/69
f 419/850/52 418/851/52 417/852/52
f 417/853/52 418/854/52 419/855/52
f 422/856/75 421/857/75 420/858/52
f 420/859/52 421/860/75 422/861/75
f 425/862/52 424/863/52 423/864/52
f 423/865/52 424/866/52 425/867/52
f 428/868/52 426/869/52 427/870/52
f 427/871/52 426/872/52 428/873/52
f 430/874/52 429/875/52 431/876/52
f 431/877/52 429/878/52 430/879/52
f 433/880/52 434/881/52 432/882/52
f 432/883/52 434/884/52 433/885/52
f 435/886/140 436/887/141 437/888/142
f 436/889/141 435/890/140 437/891/142
f 438/892/52 439/893/52 440/894/52
f 439/895/52 438/896/52 440/897/52
f 443/898/52 442/899/52 441/900/52
f 441/901/52 442/902/52 443/903/52
f 445/904/52 444/905/52 446/906/52
f 446/907/52 444/908/52 445/909/52
f 447/910/52 449/911/52 448/912/52
f 447/913/52 448/914/52 449/915/52
f 450/916/52 452/917/52 451/918/52
f 451/919/52 452/920/52 450/921/52
f 454/922/52 453/923/52 455/924/52
f 455/925/52 453/926/52 454/927/52
f 458/928/52 457/929/52 456/930/52
f 456/931/52 457/932/52 458/933/52
f 460/934/52 459/935/52 461/936/52
f 461/937/52 459/938/52 460/939/52
f 464/940/52 463/941/52 462/942/52
f 462/943/52 463/944/52 464/945/52
f 467/946/52 466/947/52 465/948/52
f 465/949/52 466/950/52 467/951/52
f 469/952/52 468/953/52 470/954/52
f 470/955/52 468/956/52 469/957/52
f 472/958/52 471/959/52 473/960/52
f 473/961/52 471/962/52 472/963/52
f 475/964/52 476/965/52 474/966/52
f 474/967/52 476/968/52 475/969/52
f 477/970/52 479/971/52 478/972/52
f 478/973/52 479/974/52 477/975/52
f 482/976/52 480/977/52 481/978/52
f 481/979/52 480/980/52 482/981/52
f 485/982/52 483/983/52 484/984/52
f 484/985/52 483/986/52 485/987/52
f 486/988/143 487/989/144 488/990/143
f 487/991/144 486/992/143 488/993/143
f 490/994/52 489/995/59 491/996/59
f 489/997/59 490/998/52 491/999/59
f 493/1000/52 492/1001/52 494/1002/52
f 493/1003/52 494/1004/52 492/1005/52
f 496/1006/52 497/1007/52 495/1008/52
f 496/1009/52 495/1010/52 497/1011/52
f 499/1012/52 498/1013/52 500/1014/52
f 499/1015/52 500/1016/52 498/1017/52
f 501/1018/52 502/1019/52 503/1020/52
f 501/1021/52 503/1022/52 502/1023/52
f 506/1024/52 505/1025/52 504/1026/52
f 506/1027/52 504/1028/52 505/1029/52
f 508/1030/52 509/1031/52 507/1032/52
f 508/1033/52 507/1034/52 509/1035/52
f 510/1036/52 511/1037/52 512/1038/52
f 510/1039/52 512/1040/52 511/1041/52
f 513/1042/52 514/1043/52 515/1044/52
f 513/1045/52 515/1046/52 514/1047/52
f 517/1048/52 518/1049/52 516/1050/52
f 517/1051/52 516/1052/52 518/1053/52
f 521/1054/52 519/1055/52 520/1056/52
f 521/1057/52 520/1058/52 519/1059/52
f 522/1060/52 524/1061/52 523/1062/52
f 522/1063/52 523/1064/52 524/1065/52
f 525/1066/52 526/1067/52 527/1068/52
f 525/1069/52 527/1070/52 526/1071/52
f 529/1072/52 530/1073/52 528/1074/52
f 529/1075/52 528/1076/52 530/1077/52
f 531/1078/52 533/1079/52 532/1080/52
f 531/1081/52 532/1082/52 533/1083/52
f 534/1084/52 535/1085/52 536/1086/52
f 534/1087/52 536/1088/52 535/1089/52
f 537/1090/145 538/1091/146 539/1092/147
f 538/1093/146 537/1094/145 539/1095/147
f 542/1096/57 541/1097/57 540/1098/57
f 541/1099/57 542/1100/57 540/1101/57
f 545/1102/52 544/1103/59 543/1104/59
f 544/1105/59 545/1106/52 543/1107/59
f 546/1108/112 547/1109/112 548/1110/112
f 548/1111/112 547/1112/112 546/1113/112
f 550/1114/52 549/1115/52 551/1116/52
f 549/1117/52 550/1118/52 551/1119/52
f 553/1120/148 552/1121/149 554/1122/150
f 552/1123/149 553/1124/148 554/1125/150
f 555/1126/151 557/1127/152 556/1128/153
f 557/1129/152 555/1130/151 556/1131/153
f 558/1132/75 560/1133/75 559/1134/75
f 559/1135/75 560/1136/75 558/1137/75
f 562/1138/112 561/1139/112 563/1140/112
f 561/1141/112 562/1142/112 563/1143/112
f 565/1144/154 566/1145/155 564/1146/156
f 566/1147/155 565/1148/154 564/1149/156
f 567/1150/52 569/1151/52 568/1152/52
f 569/1153/52 567/1154/52 568/1155/52
f 572/1156/52 571/1157/157 570/1158/158
f 570/1159/158 571/1160/157 572/1161/52
f 574/1162/52 573/1163/159 575/1164/160
f 575/1165/160 573/1166/159 574/1167/52
f 578/1168/161 576/1169/162 577/1170/163
f 576/1171/162 578/1172/161 577/1173/163
f 580/1174/164 579/1175/165 581/1176/166
f 581/1177/166 579/1178/165 580/1179/164
f 582/1180/167 583/1181/168 584/1182/168
f 583/1183/168 582/1184/167 584/1185/168
f 585/1186/169 586/1187/170 587/1188/171
f 586/1189/170 585/1190/169 587/1191/171
f 588/1192/172 589/1193/52 590/1194/173
f 589/1195/52 588/1196/172 590/1197/173
f 593/1198/52 591/1199/52 592/1200/52
f 593/1201/52 592/1202/52 591/1203/52
f 595/1204/52 594/1205/52 596/1206/52
f 596/1207/52 594/1208/52 595/1209/52
f 597/1210/174 598/1211/175 599/1212/176
f 598/1213/175 597/1214/174 599/1215/176
f 602/1216/52 601/1217/52 600/1218/52
f 601/1219/52 602/1220/52 600/1221/52
f 604/1222/177 603/1223/177 605/1224/178
f 605/1225/178 603/1226/177 604/1227/177
f 606/1228/179 608/1229/52 607/1230/180
f 607/1231/180 608/1232/52 606/1233/179
f 609/1234/181 611/1235/181 610/1236/182
f 611/1237/181 609/1238/181 610/1239/182
f 613/1240/112 612/1241/112 614/1242/112
f 614/1243/112 612/1244/112 613/1245/112
f 616/1246/112 617/1247/112 615/1248/112
f 617/1249/112 616/1250/112 615/1251/112
f 618/1252/183 619/1253/184 620/1254/185
f 619/1255/184 618/1256/183 620/1257/185
f 622/1258/186 621/1259/187 623/1260/188
f 621/1261/187 622/1262/186 623/1263/188
f 626/1264/52 624/1265/52 625/1266/52
f 625/1267/52 624/1268/52 626/1269/52
f 627/1270/112 628/1271/112 629/1272/112
f 628/1273/112 627/1274/112 629/1275/112
f 632/1276/189 630/1277/190 631/1278/189
f 630/1279/190 632/1280/189 631/1281/189
f 633/1282/52 634/1283/52 635/1284/52
f 634/1285/52 633/1286/52 635/1287/52
f 638/1288/52 637/1289/157 636/1290/158
f 636/1291/158 637/1292/157 638/1293/52
f 641/1294/52 640/1295/191 639/1296/192
f 639/1297/192 640/1298/191 641/1299/52
f 645/1300/52 646/1301/52 647/1302/52
f 645/1303/52 647/1304/52 646/1305/52
f 648/1306/52 650/1307/52 649/1308/52
f 648/1309/52 649/1310/52 650/1311/52
f 651/1312/52 652/1313/52 653/1314/52
f 651/1315/52 653/1316/52 652/1317/52
f 654/1318/52 656/1319/52 655/1320/52
f 654/1321/52 655/1322/52 656/1323/52
f 10/1/43 11/60/1 12/2/1
f 19/4/193 20/106/194 9/5/195
f 23/7/196 43/63/196 24/8/196
f 25/10/197 26/1324/197 27/11/197
f 30/13/198 55/41/198 31/14/198
f 38/16/199 39/49/199 40/17/199
f 42/19/200 43/50/72 44/20/71
f 47/22/201 41/51/201 48/23/201
f 49/25/202 50/59/202 51/26/12
f 52/28/14 56/40/89 53/29/88
f 58/31/203 56/61/203 59/32/203
f 60/34/204 61/58/204 62/35/17
f 15/1325/64 16/86/205 14/98/65
f 22/9/206 24/8/206 19/4/206
f 42/19/207 45/21/207 30/13/207
f 33/38/208 45/21/208 44/20/208
f 34/55/81 46/24/80 48/23/209
f 52/28/82 54/30/82 35/57/79
f 56/40/25 52/28/210 31/14/26
f 10/42/211 13/82/42 16/43/54
f 14/103/67 37/1326/67 40/92/67
f 32/45/212 20/1327/212 19/46/212
f 53/29/213 47/22/213 46/24/213
f 643/1328/52 644/1329/52 642/1330/52
f 38/48/6 37/1331/8 25/10/214
f 57/33/215 59/32/215 39/49/215
f 43/50/32 42/19/216 48/23/33
f 34/88/61 11/1332/61 10/89/217
f 21/6/41 9/5/53 13/3/42
f 61/58/204 60/34/204 23/7/204
f 50/59/1 12/2/1 11/60/1
f 55/36/27 62/35/218 59/32/46
f 61/58/219 27/107/219 26/62/219
f 50/59/202 49/25/202 58/31/202
f 41/27/34 51/26/220 24/8/49
f 18/64/221 28/12/221 27/11/221
f 36/66/222 40/1333/222 39/67/222
f 644/1334/52 643/1335/52 642/1336/52
f 39/1337/223 36/87/223 38/91/223
f 36/87/39 10/89/58 12/90/59
f 13/1338/9 15/102/9 12/94/9
f 15/102/64 40/92/66 12/94/86
f 39/93/224 38/1339/224 12/94/224
f 22/9/225 19/4/225 20/106/225
f 23/1340/69 44/112/69 19/46/69
f 19/46/69 24/1341/226 23/1340/69
f 19/4/227 21/6/227 20/106/227
f 21/6/57 38/16/57 27/107/57
f 20/106/228 21/6/228 27/107/228
f 20/111/229 32/125/76 25/109/77
f 45/113/9 44/116/9 23/114/9
f 24/118/230 48/123/230 42/119/230
f 44/120/75 23/1342/75 24/118/75
f 30/115/70 23/114/70 61/121/70
f 51/124/75 47/1343/75 48/123/75
f 62/130/69 30/1344/69 31/128/69
f 59/129/69 31/128/69 52/131/69
f 53/1345/69 58/132/69 52/131/69
f 60/1346/16 55/1347/18 30/115/59
f 60/1346/231 30/115/231 62/122/231
f 62/1348/75 26/1349/75 30/1350/75
f 26/1349/75 31/1351/232 30/1350/75
f 51/96/233 34/95/234 47/1352/235
f 34/95/234 48/1353/236 47/1352/235
f 52/133/83 39/67/85 53/135/75
f 39/67/85 59/1354/75 58/134/75
f 49/1355/11 41/1356/13 47/136/86
f 49/1355/237 47/136/237 51/140/237
f 47/136/238 58/138/238 50/139/238
l 1 2
