# Blender 4.5.0
# www.blender.org
mtllib public_003.lod2.mtl
o public_003
v 1.804232 2.633251 -3.019451
v -1.831042 2.633251 -3.019451
v 3.250000 0.012809 -3.255000
v -3.247611 0.751181 -1.015599
v 3.250000 -0.000000 3.250000
v 0.653341 0.107050 -2.820145
v 3.036372 5.260098 1.055097
v -3.063182 5.260098 -1.060098
v 2.879078 6.232465 2.797400
v -2.909641 6.115149 2.799444
v -2.913263 6.469696 2.799451
v -2.909641 6.115584 2.792717
v -2.916397 6.108776 2.799451
v -2.909641 6.229550 2.792717
v -2.902379 6.233418 2.799264
v -2.916083 6.206158 -2.815352
v 2.876306 6.234208 -2.802236
v 2.882831 6.229550 -2.797719
v -2.913263 6.123797 -2.804452
v -2.909641 6.122394 -2.804452
v -2.902680 6.115584 -2.797719
v -3.062676 6.477908 -2.797719
v -3.069432 6.471100 -2.959981
v -3.069432 6.471100 -2.804452
v -3.076189 6.477908 -2.811186
v -3.062676 6.115584 -2.797719
v -3.069432 6.123743 -2.804452
v -3.061337 6.115584 -2.804452
v -3.069432 6.477908 2.799451
v -3.077528 6.477908 2.792717
v -3.069432 6.477234 2.799451
v -3.062676 6.477908 2.792717
v -2.912601 6.477695 -2.797326
v -2.913383 6.471100 -2.804452
v -3.069432 6.122394 2.802444
v -3.062676 6.115584 2.792717
v -3.062676 6.115584 2.799451
v -3.102725 6.090069 2.810668
v 2.886318 6.474481 -2.803003
v 2.876074 6.122394 2.799451
v 2.882831 6.115584 2.792717
v 2.886453 6.123797 2.799451
v 2.882831 6.122394 2.799451
v 2.882831 6.122394 -2.804452
v 2.886573 6.122394 -2.804452
v 2.882831 6.115584 -2.797719
v 2.876074 6.122394 -2.804452
v 3.035866 6.477908 -2.797719
v 3.042623 6.469750 -2.804452
v 3.042623 6.122394 -2.959981
v 3.034527 6.477908 -2.804452
v 3.042623 6.115584 2.799451
v 3.050718 6.115584 2.792717
v 3.042623 6.116260 2.799451
v 3.035866 6.115584 2.792717
v 3.035866 6.115584 -2.797719
v 3.042623 6.122394 -2.804452
v 3.049379 6.115584 -2.811186
v 2.887996 6.476323 2.796912
v 2.882831 6.471100 2.792717
v 3.075917 6.503422 2.810668
v 3.035518 6.115846 2.955203
v 3.042623 6.123797 2.955099
v -3.062328 6.477647 2.955204
v -3.069432 6.469696 2.955099
v 3.035866 6.477908 2.799451
v 3.042623 6.471100 2.799451
v 3.035866 6.477908 2.792717
v -2.160614 0.244697 -2.950536
v -2.628189 2.411716 -2.796368
v -1.093817 2.411715 -2.782677
v -1.861007 2.639679 -2.879104
v -1.182212 0.660954 -2.880248
v -2.539795 0.660954 -2.877960
v -2.538136 2.364352 -2.939237
v -2.542105 2.364352 -2.878694
v -2.540120 0.613538 -2.908966
v -1.861004 0.613537 -2.908965
v -1.862988 2.364352 -2.878694
v -1.859020 2.364352 -2.939237
v -1.179902 2.364352 -2.939237
v -1.181886 0.613537 -2.908965
v -1.183870 2.364352 -2.878694
v -1.060886 0.594756 -3.047635
v -2.654971 0.552613 -3.040236
v -1.060886 0.585539 -2.810109
v 0.753781 2.411715 -2.782677
v -0.029120 0.184310 -2.983617
v -0.780591 2.411715 -2.796368
v 0.665387 0.660954 -2.880248
v 0.003018 2.361508 -2.888903
v -0.692196 0.660954 -2.877960
v -0.690538 2.364352 -2.939237
v -0.692522 0.613538 -2.908965
v -0.694507 2.364352 -2.878694
v -0.011421 2.364352 -2.939237
v -0.015389 2.364352 -2.878694
v -0.013405 0.613537 -2.908965
v 0.667697 2.364352 -2.939237
v 0.663728 2.364352 -2.878694
v 0.665712 0.613538 -2.908965
v -0.813522 0.585539 -3.047635
v -0.813522 0.594756 -2.810109
v 0.780563 0.627683 -3.040236
v 2.601379 2.411716 -2.782677
v 1.817771 0.630406 -2.888902
v 1.067008 2.411715 -2.796368
v 1.834197 2.639679 -2.879104
v 1.155402 0.660954 -2.877960
v 2.512985 0.660954 -2.880248
v 1.157060 2.364352 -2.939237
v 1.153092 2.364352 -2.878694
v 1.155076 0.613537 -2.908965
v 1.832210 2.364352 -2.878694
v 1.836178 2.364352 -2.939237
v 1.834194 0.613537 -2.908965
v 2.515295 2.364352 -2.939237
v 2.511326 2.364352 -2.878694
v 2.513310 0.613538 -2.908965
v 2.628161 0.627683 -3.040236
v 1.034076 0.585539 -3.047635
v 1.034076 0.594756 -2.810109
v -1.844581 5.380872 -2.888903
v -2.628190 3.589498 -2.782676
v -1.093817 3.589498 -2.796369
v -1.854247 3.126414 -2.870907
v -2.539795 5.340261 -2.880249
v -1.182212 5.340261 -2.877961
v -2.540120 5.397740 -2.908965
v -2.538136 3.646927 -2.878694
v -2.542105 3.646927 -2.939237
v -1.862988 3.646927 -2.939237
v -1.859020 3.646927 -2.878693
v -1.861004 5.397741 -2.908966
v -1.183870 3.646927 -2.939237
v -1.179902 3.646927 -2.878694
v -1.181886 5.397741 -2.908966
v -1.060886 3.614121 -3.047635
v -2.654971 3.646890 -3.040288
v -1.060886 3.604904 -2.810110
v -0.780592 3.589498 -2.782676
v 0.003018 5.380872 -2.888903
v 0.753782 3.589498 -2.796369
v -0.692196 5.340261 -2.880249
v -0.029828 3.649770 -2.888903
v 0.665386 5.340261 -2.877961
v -0.694507 3.646927 -2.939237
v -0.692522 5.397740 -2.908966
v -0.690538 3.646927 -2.878694
v -0.015389 3.646927 -2.939237
v -0.011421 3.646927 -2.878694
v -0.013405 5.397741 -2.908966
v 0.663728 3.646927 -2.939237
v 0.665712 5.397740 -2.908966
v 0.667697 3.646927 -2.878694
v -0.813522 3.604903 -3.047635
v 0.780563 3.647047 -3.040236
v -0.813522 3.614121 -2.810110
v 1.067007 3.589499 -2.782676
v 2.601380 3.589498 -2.796369
v 1.850616 5.380872 -2.888903
v 1.155402 5.340261 -2.880249
v 1.827437 3.126414 -2.870907
v 2.512985 5.340261 -2.877961
v 1.157060 3.646927 -2.878693
v 1.155076 5.397741 -2.908966
v 1.153092 3.646927 -2.939237
v 1.836178 5.383716 -2.939237
v 1.832210 5.383716 -2.878694
v 1.834194 3.632902 -2.908965
v 2.513310 5.397740 -2.908966
v 2.515295 3.646927 -2.878694
v 2.511326 3.646927 -2.939237
v 1.034076 3.604903 -3.047635
v 1.034076 3.614121 -2.810110
v 2.628161 3.647047 -3.040236
v -0.712778 2.368234 -2.894260
v 0.685968 2.368234 -2.883856
v -0.029478 0.177501 -2.990673
v -0.029828 2.361508 -2.929028
v 0.585938 0.177103 -2.980122
v -0.612748 0.177103 -2.977159
v -0.013405 2.306647 -3.008502
v -0.015419 0.174682 -3.036229
v -0.011391 0.174682 -2.980773
v -0.131123 1.345792 -3.101645
v -0.133249 0.923610 -3.068223
v -0.135375 1.345792 -3.034802
v 0.108565 1.345792 -3.101645
v 0.106439 0.923610 -3.068223
v 0.104313 1.345792 -3.034802
v -1.874776 3.126884 -2.946925
v -1.874775 2.602589 -2.930727
v 1.834194 3.118365 -2.866654
v -1.517534 2.376123 -3.243201
v 1.811723 2.354699 -2.929604
v -1.517533 2.387150 -2.793708
v -2.992630 2.254690 2.142478
v -2.986445 2.254696 1.037694
v -3.080589 2.169899 2.062529
v -3.089251 0.831697 1.606451
v -3.078251 2.169899 1.117637
v -3.139754 0.828854 2.064859
v -3.079008 0.828854 2.060904
v -3.109381 2.227408 2.062881
v -3.139754 0.828854 1.592061
v -3.109381 2.227409 1.590083
v -3.079008 0.828854 1.588106
v -3.139754 0.828854 1.119263
v -3.109381 2.227408 1.117285
v -3.079008 0.828854 1.115307
v -3.063440 0.798852 1.047609
v -3.250000 0.787032 2.183494
v -3.008709 0.795847 2.183494
v -2.986445 2.254696 -2.147474
v -2.992630 2.254690 -1.042689
v -3.089251 0.831697 -1.578716
v -3.080589 2.169899 -1.122638
v -3.078251 2.169899 -2.067530
v -3.109381 2.227408 -1.122286
v -3.079008 0.828854 -1.124264
v -3.139754 0.828854 -1.120308
v -3.139754 0.828854 -1.593107
v -3.079008 0.828854 -1.597061
v -3.109381 2.227408 -1.595084
v -3.109380 2.227408 -2.067882
v -3.139754 0.828853 -2.065904
v -3.079008 0.828854 -2.069860
v -3.008709 0.787032 -2.188495
v -3.063670 0.798876 -1.052610
v -3.250000 0.795846 -2.188495
v -3.089251 3.851062 1.606451
v -2.992630 5.274054 2.142478
v -2.986444 5.274060 1.037694
v -3.080589 3.881638 1.117637
v -3.078251 3.881639 2.062530
v -3.089251 5.229905 1.573715
v -3.079008 5.232748 2.064859
v -3.109380 3.834194 2.062881
v -3.139754 5.232749 2.060904
v -3.139754 5.232749 1.588106
v -3.079008 5.232749 1.592060
v -3.109381 3.834193 1.590083
v -3.139754 5.232748 1.115307
v -3.109381 3.834194 1.117285
v -3.079008 5.232748 1.119263
v -3.250000 3.806396 2.183495
v -3.008710 3.815211 2.183494
v -3.063440 3.818216 1.047609
v -2.986444 5.274060 -2.147474
v -2.992630 5.274054 -1.042689
v -3.089251 3.851061 -1.578716
v -3.089251 5.229905 -1.611452
v -3.078251 3.881638 -1.122638
v -3.080589 3.881638 -2.067530
v -3.109381 3.834194 -1.122286
v -3.079008 5.232748 -1.120308
v -3.139754 5.232748 -1.124264
v -3.139754 5.232749 -1.597062
v -3.109381 3.834193 -1.595084
v -3.079008 5.232749 -1.593107
v -3.109381 3.834193 -2.067882
v -3.079008 5.232749 -2.065905
v -3.139754 5.232748 -2.069860
v -3.063670 3.818240 -1.052610
v -3.250000 3.815210 -2.188495
v -3.008710 3.806396 -2.188495
v 2.138765 2.254690 2.966769
v 1.030277 2.254697 2.960605
v 2.058548 2.169899 3.054434
v 1.600941 0.831697 3.063068
v 1.110488 2.169899 3.052104
v 2.058902 2.227408 3.083130
v 2.060886 0.828854 3.113402
v 2.056917 0.828854 3.052859
v 1.586502 0.828854 3.113402
v 1.584518 2.227409 3.083130
v 1.582534 0.828854 3.052859
v 1.110135 2.227408 3.083130
v 1.112119 0.828854 3.113402
v 1.108150 0.828854 3.052859
v 1.040226 0.798852 3.037344
v 2.179919 0.795847 2.982795
v 2.179919 0.787032 3.223280
v -2.165570 2.254697 2.960605
v -1.057081 2.254690 2.966769
v -1.594905 0.831697 3.063068
v -1.137298 2.169899 3.054434
v -2.085358 2.169899 3.052104
v -1.134960 0.828854 3.113402
v -1.138929 0.828854 3.052859
v -1.136945 2.227408 3.083130
v -1.609344 0.828854 3.113402
v -1.613312 0.828854 3.052859
v -1.611328 2.227409 3.083130
v -2.083727 0.828854 3.113402
v -2.085712 2.227408 3.083130
v -2.087696 0.828854 3.052859
v -2.206728 0.795847 3.223280
v -1.067035 0.798876 3.037572
v -2.206728 0.787032 2.982795
v 1.030277 5.274060 2.960604
v 1.600941 3.851062 3.063067
v 2.138765 5.274054 2.966769
v 1.568095 5.229905 3.063067
v 1.110488 3.881639 3.054434
v 2.058549 3.881639 3.052104
v 2.058902 3.834194 3.083130
v 2.060886 5.232748 3.052859
v 2.056918 5.232749 3.113401
v 1.584518 3.834193 3.083130
v 1.586502 5.232749 3.052859
v 1.582534 5.232749 3.113401
v 1.108150 5.232748 3.113401
v 1.112119 5.232748 3.052859
v 1.110135 3.834194 3.083130
v 2.179919 3.806396 3.223279
v 1.040226 3.818216 3.037343
v 2.179919 3.815211 2.982796
v -2.165570 5.274060 2.960604
v -1.594905 3.851062 3.063067
v -1.057081 5.274054 2.966769
v -2.085358 3.881639 3.054434
v -1.627751 5.229905 3.063067
v -1.137298 3.881639 3.052104
v -1.138929 5.232748 3.113401
v -1.136945 3.834194 3.083130
v -1.134960 5.232748 3.052859
v -1.613312 5.232749 3.113401
v -1.611328 3.834193 3.083130
v -1.609344 5.232749 3.052859
v -2.087696 5.232748 3.113401
v -2.085712 3.834194 3.083130
v -2.083727 5.232749 3.052859
v -1.067035 3.818240 3.037572
v -2.206729 3.806396 2.982796
v -2.206729 3.815211 3.223279
v 2.965820 2.254690 -2.147479
v 2.959635 2.254696 -1.042694
v 3.062441 0.831697 -1.611452
v 3.053779 2.169899 -2.067530
v 3.051441 2.169899 -1.122638
v 3.112944 0.828854 -2.069860
v 3.082571 2.227408 -2.067883
v 3.052198 0.828853 -2.065904
v 3.082571 2.227408 -1.595084
v 3.052198 0.828854 -1.593107
v 3.112944 0.828853 -1.597061
v 3.082571 2.227408 -1.122286
v 3.052198 0.828854 -1.120308
v 3.112944 0.828854 -1.124264
v 3.223190 0.787032 -2.188495
v 2.981900 0.795846 -2.188495
v 3.036630 0.798851 -1.052610
v 2.959635 2.254697 2.142473
v 2.965820 2.254690 1.037689
v 3.053779 2.169899 1.117637
v 3.051441 2.169899 2.062529
v 3.062441 0.831697 1.573715
v 3.082571 2.227408 1.117285
v 3.112944 0.828854 1.115307
v 3.052198 0.828854 1.119263
v 3.112944 0.828854 1.588106
v 3.052198 0.828854 1.592061
v 3.082571 2.227409 1.590083
v 3.082571 2.227408 2.062881
v 3.112944 0.828854 2.060904
v 3.052198 0.828854 2.064859
v 3.036860 0.798876 1.047609
v 2.981900 0.787032 2.183494
v 3.223190 0.795847 2.183494
v 2.965820 5.274054 -2.147479
v 3.062441 3.851061 -1.611452
v 2.959635 5.274060 -1.042695
v 3.062441 5.229905 -1.578716
v 3.051441 3.881638 -2.067530
v 3.053779 3.881638 -1.122638
v 3.082571 3.834193 -2.067882
v 3.112944 5.232749 -2.065905
v 3.052198 5.232748 -2.069860
v 3.112944 5.232749 -1.593107
v 3.082571 3.834193 -1.595084
v 3.052198 5.232749 -1.597062
v 3.082571 3.834194 -1.122286
v 3.112944 5.232748 -1.120308
v 3.052198 5.232748 -1.124264
v 3.223190 3.806396 -2.188495
v 2.981900 3.815210 -2.188495
v 3.036630 3.818216 -1.052610
v 2.959635 5.274060 2.142472
v 3.062441 3.851062 1.573715
v 2.965820 5.274054 1.037688
v 3.062441 5.229905 1.606451
v 3.051441 3.881638 1.117637
v 3.053779 3.881639 2.062529
v 3.052198 5.232748 1.115307
v 3.082571 3.834194 1.117285
v 3.112944 5.232748 1.119263
v 3.112944 5.232749 1.592060
v 3.082571 3.834193 1.590083
v 3.052198 5.232749 1.588106
v 3.082571 3.834194 2.062881
v 3.052198 5.232749 2.060904
v 3.112944 5.232748 2.064859
v 3.036860 3.818240 1.047609
v 2.981900 3.806396 2.183495
v 3.223190 3.815211 2.183494
v 1.809226 6.993514 1.510044
v 1.052200 6.516112 1.062540
v 1.809226 6.354820 1.072903
v 1.813136 6.685175 1.046856
v 1.418548 6.476278 1.040241
v 1.351699 6.872220 1.043403
v 1.335164 6.543005 1.011640
v 1.335164 6.518490 1.013902
v 1.759504 6.530747 1.012771
v 1.759504 6.598180 1.012771
v 1.335164 6.585923 1.013902
v 1.335164 6.610436 1.011640
v 1.335164 6.666756 1.024893
v 1.759504 6.665613 1.012771
v 1.335164 6.664468 1.000650
v 1.335164 6.731901 1.000650
v 1.759504 6.733045 1.012771
v 1.335164 6.734188 1.024893
v 1.759504 6.800477 1.012771
v 1.335164 6.799333 1.000650
v 1.335164 6.801620 1.024893
v 1.335164 6.880167 1.011640
v 1.335164 6.855653 1.013902
v 1.759504 6.867910 1.012771
v 1.139297 6.508405 1.046105
v 1.095154 6.896063 1.047609
v 1.051012 6.508405 1.049114
v 1.132823 6.315053 0.996029
v 1.085168 6.311843 1.606385
v 1.037511 6.308635 0.996029
v 1.732045 6.315053 0.996029
v 1.684388 6.311843 1.606385
v 1.636732 6.308635 0.996028
v -1.825653 6.475534 1.211404
v -1.794744 6.475350 1.173874
v -1.808267 8.000000 1.191936
v 2.589195 2.342937 -2.953761
v 2.592900 2.327520 -3.172800
v 2.681089 2.603057 -3.068223
v -2.143723 1.751997 -3.003252
v -2.876597 1.751997 -3.013752
v -2.168320 0.237889 -3.071563
v -2.217305 1.646925 -3.088862
v -2.808146 0.340760 -3.087331
v -2.212174 0.340760 -3.088930
v -2.835270 0.043956 3.054597
v -2.776922 0.055162 2.990033
v -2.804743 5.799393 3.023408
v 2.757461 0.043956 3.054597
v 2.815809 0.055162 2.990033
v 2.787986 5.799392 3.023408
v -0.405320 2.200476 2.955084
v -0.428242 0.386804 3.018342
v 0.401433 0.386805 3.008568
v 0.618853 1.747571 2.932888
v 0.618853 1.244344 3.094022
v 0.952260 1.244344 2.932888
vn -0.6854 0.7267 0.0470
vn 0.4783 -0.0991 -0.8726
vn 0.7059 0.0001 -0.7083
vn -0.7029 -0.6974 -0.1398
vn 0.7063 -0.0000 0.7079
vn -0.5292 0.2266 -0.8177
vn -0.3232 0.0933 -0.9417
vn -0.4945 0.2996 -0.8159
vn 0.0005 -0.7029 0.7113
vn -0.0000 -0.7032 0.7110
vn 0.0002 -0.7031 0.7111
vn -0.0000 -0.7032 -0.7110
vn 0.7029 0.6975 -0.1398
vn -0.7058 -0.0000 0.7084
vn -0.7059 -0.0000 -0.7083
vn 0.7098 0.7044 -0.0000
vn -0.9971 -0.0756 0.0015
vn -0.7970 0.6040 -0.0021
vn -0.4680 0.8837 -0.0031
vn -0.0000 -1.0000 -0.0000
vn -0.0000 -0.6340 -0.7733
vn -0.0001 1.0000 -0.0000
vn -0.0000 0.7339 -0.6793
vn -0.0000 1.0000 -0.0000
vn 0.5926 0.0505 -0.8039
vn 0.9940 0.0003 -0.1094
vn 0.7099 0.7043 -0.0000
vn 0.0012 -0.0001 1.0000
vn -0.0000 -0.6340 0.7733
vn -0.0187 0.5275 -0.8493
vn 0.0227 0.4148 -0.9096
vn 0.0187 -0.5275 -0.8493
vn -0.9999 0.0105 -0.0006
vn -0.9013 0.4332 -0.0000
vn -0.7111 0.7031 -0.0000
vn -0.7455 0.6657 0.0322
vn -0.0000 -0.0000 -0.0000
vn -0.0009 -0.1917 -0.9814
vn 0.0007 -0.3000 -0.9539
vn -0.7702 -0.6378 -0.0000
vn -0.0000 -0.7031 0.7110
vn 0.9213 -0.3888 -0.0000
vn -0.0227 -0.4148 -0.9096
vn 0.7455 -0.6657 0.0322
vn -0.6696 -0.0000 0.7427
vn -0.6355 0.0083 0.7721
vn -0.1485 -0.3853 0.9108
vn 0.3874 -0.3573 0.8499
vn -0.0014 0.6843 0.7292
vn 0.0001 0.7194 0.6946
vn -0.0001 0.7024 -0.7118
vn 0.0003 0.0017 1.0000
vn 0.8538 0.5206 -0.0000
vn 0.9994 0.0348 0.0007
vn 0.9994 0.0336 0.0006
vn -0.0000 0.0186 0.9998
vn 0.0444 -0.9990 -0.0012
vn -0.9971 -0.0756 0.0014
vn -1.0000 -0.0000 -0.0000
vn -1.0000 -0.0016 -0.0000
vn 0.6905 0.7233 -0.0000
vn 0.7323 0.6810 0.0011
vn 0.9999 0.0101 0.0001
vn -0.0046 0.6761 -0.7368
vn -0.3611 0.9325 -0.0011
vn -0.0000 -0.0000 -1.0000
vn 0.0538 0.9985 0.0014
vn 0.0013 1.0000 -0.0000
vn -0.8970 0.4420 -0.0000
vn -0.9994 0.0349 -0.0000
vn -0.9998 -0.0191 0.0012
vn -0.9998 -0.0190 0.0012
vn -0.9998 -0.0187 0.0012
vn -0.6978 -0.0159 0.7162
vn 0.6393 0.0262 -0.7686
vn 0.6977 0.0159 0.7162
vn -0.0000 -0.0000 1.0000
vn 0.0171 0.5603 0.8281
vn -0.0216 0.3392 0.9405
vn -0.0042 1.0000 0.0020
vn 0.0216 -0.3392 0.9405
vn 0.0042 -1.0000 0.0020
vn -0.0171 -0.5603 0.8281
vn -0.0068 0.0008 -1.0000
vn -0.0025 0.0030 -1.0000
vn -0.0000 0.0041 -1.0000
vn -1.0000 0.0063 -0.0004
vn -0.0109 0.9999 -0.0000
vn -0.0229 0.9997 0.0019
vn -0.0229 0.9997 -0.0002
vn -0.0085 0.0036 1.0000
vn -0.0172 0.0073 0.9998
vn -0.0042 0.0018 1.0000
vn 0.9994 -0.0349 -0.0000
vn 1.0000 -0.0000 -0.0000
vn 0.8970 -0.4420 -0.0000
vn -0.0107 0.9999 -0.0000
vn -0.6395 -0.0000 -0.7688
vn 0.4263 -0.1283 -0.8954
vn 0.5251 -0.2557 -0.8117
vn -0.3761 0.3618 0.8530
vn 0.9829 -0.0000 0.1843
vn 0.9956 -0.0000 0.0933
vn 0.9923 -0.0000 0.1240
vn 0.9981 -0.0000 0.0624
vn -0.7894 -0.0000 0.6139
vn -0.7593 -0.0000 0.6508
vn -0.7474 -0.0000 0.6644
vn -0.0447 0.9990 -0.0000
vn -0.0520 0.9986 -0.0000
vn -0.0483 0.9988 -0.0000
vn -0.9975 0.0698 -0.0056
vn -1.0000 0.0078 -0.0020
vn -0.9999 0.0156 -0.0059
vn -1.0000 0.0078 -0.0029
vn 0.9975 -0.0698 0.0056
vn -0.0000 0.9701 -0.2425
vn -0.0000 0.8944 -0.4472
vn -0.0055 0.0696 0.9976
vn -0.0155 0.1240 0.9922
vn -0.1240 0.9923 -0.0000
vn 0.9975 0.0698 0.0056
vn -0.0000 0.9923 0.1240
vn -0.0000 0.9701 0.2425
vn -0.9701 -0.0000 0.2425
vn -0.9981 -0.0000 0.0624
vn -0.9923 -0.0000 0.1240
vn 0.4472 0.8944 -0.0000
vn 0.3846 0.9231 -0.0000
vn 0.3162 0.9487 -0.0000
vn -0.1843 0.9829 -0.0000
vn -0.0624 0.9981 -0.0000
vn -0.9979 -0.0629 0.0126
vn -0.9887 -0.1492 0.0125
vn 0.0526 0.9986 -0.0000
vn 0.0576 0.9983 -0.0000
vn 0.0582 0.9983 -0.0000
vn 0.6844 -0.0003 -0.7291
vn 0.6946 -0.0003 -0.7194
vn 0.6961 -0.0003 -0.7179
vn -0.9999 -0.0102 -0.0007
vn 0.0515 0.1328 0.9898
vn -0.7098 0.7044 -0.0000
vn -0.3808 -0.3779 -0.8439
vn -0.6396 -0.0000 0.7687
vn -0.7099 -0.7043 -0.0001
vn -0.7100 -0.7042 -0.0001
vn -0.7098 -0.7044 -0.0000
vn 0.2630 -0.6784 0.6860
vn -0.0000 -0.7031 -0.7110
vn -0.0000 -0.7031 -0.7111
vn 0.3808 0.3779 -0.8439
vn 0.6387 -0.0000 0.7695
vn 0.7098 -0.7044 -0.0000
vn 0.1668 0.1655 -0.9720
vn 0.0554 -0.9984 0.0110
vn -0.0000 0.7032 0.7110
vn -0.0231 0.9997 0.0046
vn -0.0000 0.4025 -0.9154
vn -0.0000 0.0198 -0.9998
vn 0.5810 0.8139 -0.0000
vn 0.0078 0.0201 -0.9998
vn 0.7701 0.6379 -0.0002
vn -0.3874 0.3573 0.8499
vn 0.0009 -0.7027 0.7115
vn 0.0477 0.9880 0.1468
vn -0.0477 -0.9880 0.1469
vn -0.0000 0.9991 -0.0419
vn 0.0429 0.9979 0.0483
vn -0.7100 -0.7042 -0.0002
vn -0.0000 -0.4025 -0.9154
vn -0.0000 -0.0190 0.9998
vn -0.0000 -0.9991 -0.0419
vn -0.0431 -0.9979 0.0483
vn 0.7059 -0.0000 0.7083
vn -0.0075 0.0193 0.9998
vn -0.0392 -0.1012 -0.9941
vn 0.3141 0.8103 0.4948
vn -0.6989 -0.7152 -0.0009
vn 1.0000 0.0083 -0.0000
vn 0.7059 -0.0000 -0.7083
vn 0.9150 -0.4035 -0.0000
vn 0.0011 -0.0186 0.9998
vn -0.9998 -0.0187 -0.0000
vn -0.6405 -0.0263 0.7675
vn -0.0011 0.0186 0.9998
vn -0.4115 -0.0077 -0.9114
vn -0.0094 -0.0030 -1.0000
vn -0.0096 -0.0095 -0.9999
vn -0.8807 -0.0000 0.4737
vn 0.9998 0.0191 0.0012
vn 0.6395 -0.0000 0.7688
vt 0.801541 0.418472
vt 0.801657 0.418343
vt 0.801652 0.418591
vt 0.080766 0.208521
vt 0.080641 0.208285
vt 0.080792 0.208199
vt 0.154136 0.382290
vt 0.154309 0.382464
vt 0.154483 0.382638
vt 0.566489 0.009756
vt 0.566697 0.009750
vt 0.566697 0.009924
vt 0.685353 0.610443
vt 0.685335 0.610443
vt 0.685353 0.610250
vt 0.566523 0.154238
vt 0.566697 0.154156
vt 0.566692 0.154454
vt 0.696915 0.360995
vt 0.697088 0.361016
vt 0.697088 0.361189
vt 0.011211 0.076848
vt 0.011365 0.076767
vt 0.011292 0.077002
vt 0.154309 0.225432
vt 0.154309 0.225640
vt 0.154136 0.225606
vt 0.685352 0.622270
vt 0.685335 0.622270
vt 0.685352 0.622118
vt 0.009528 0.073291
vt 0.009294 0.073218
vt 0.009059 0.073146
vt 0.009850 0.225606
vt 0.009850 0.225432
vt 0.010024 0.225606
vt 0.527693 0.676585
vt 0.383580 0.676674
vt 0.383458 0.676499
vt 0.137027 0.005745
vt 0.136955 0.005979
vt 0.082712 0.211834
vt 0.009850 0.382464
vt 0.010024 0.382290
vt 0.154309 0.378455
vt 0.154136 0.378481
vt 0.010024 0.382672
vt 0.696915 0.667448
vt 0.699736 0.667286
vt 0.699647 0.667473
vt 0.723029 0.163307
vt 0.722915 0.172162
vt 0.722907 0.163308
vt 0.553384 0.510760
vt 0.553554 0.366474
vt 0.553554 0.510586
vt 0.697077 0.508754
vt 0.696915 0.508927
vt 0.138901 0.009292
vt 0.138791 0.009456
vt 0.158300 0.382356
vt 0.158306 0.225606
vt 0.154244 0.229415
vt 0.010024 0.229538
vt 0.009948 0.229398
vt 0.005838 0.382464
vt 0.005873 0.382290
vt 0.018305 0.851782
vt 0.018569 0.889935
vt 0.017764 0.890034
vt 0.201686 0.859343
vt 0.201788 0.897654
vt 0.201255 0.897543
vt 0.566697 0.153982
vt 0.011166 0.076763
vt 0.738924 0.520625
vt 0.738751 0.677483
vt 0.738751 0.520416
vt 0.210138 0.144523
vt 0.208500 0.141050
vt 0.210292 0.144442
vt 0.005814 0.075252
vt 0.082542 0.211885
vt 0.079105 0.213836
vt 0.765952 0.614155
vt 0.765752 0.610147
vt 0.765930 0.610219
vt 0.835403 0.769172
vt 0.835221 0.772072
vt 0.835252 0.769163
vt 0.667287 0.854433
vt 0.667118 0.863287
vt 0.667116 0.854433
vt 0.199692 0.381322
vt 0.190838 0.381273
vt 0.199728 0.381161
vt 0.388246 0.267435
vt 0.221782 0.350687
vt 0.221782 0.184077
vt 0.221891 0.089144
vt 0.388450 0.005857
vt 0.388390 0.172468
vt 0.221908 0.362435
vt 0.371907 0.362400
vt 0.296898 0.516165
vt 0.383425 0.362355
vt 0.532715 0.362525
vt 0.458059 0.516186
vt 0.383578 0.527942
vt 0.527694 0.528028
vt 0.699868 0.361128
vt 0.700046 0.508572
vt 0.714220 0.005919
vt 0.714220 0.150030
vt 0.711489 0.150204
vt 0.080722 0.208438
vt 0.208302 0.141046
vt 0.711311 0.664648
vt 0.714043 0.520416
vt 0.714216 0.664648
vt 0.208537 0.141119
vt 0.557736 0.328475
vt 0.557747 0.328302
vt 0.557570 0.184017
vt 0.566459 0.184168
vt 0.566808 0.328279
vt 0.711311 0.520590
vt 0.698995 0.520526
vt 0.696915 0.667277
vt 0.711527 0.150204
vt 0.711315 0.005919
vt 0.718946 0.163307
vt 0.557633 0.009756
vt 0.561760 0.005780
vt 0.557460 0.009587
vt 0.557460 0.154160
vt 0.179142 0.225792
vt 0.169905 0.225735
vt 0.170079 0.225584
vt 0.557460 0.153993
vt 0.169905 0.381266
vt 0.179142 0.381281
vt 0.178968 0.381474
vt 0.557633 0.342602
vt 0.561667 0.339965
vt 0.561473 0.349185
vt 0.009947 0.378444
vt 0.190633 0.548195
vt 0.190633 0.393223
vt 0.199853 0.393044
vt 0.199870 0.548016
vt 0.199696 0.548188
vt 0.190650 0.548195
vt 0.009549 0.225606
vt 0.643069 0.517994
vt 0.642943 0.360924
vt 0.647092 0.361314
vt 0.557669 0.158171
vt 0.828460 0.605548
vt 0.832424 0.614406
vt 0.828463 0.614402
vt 0.565216 0.506523
vt 0.565247 0.362319
vt 0.574107 0.362292
vt 0.703646 0.163307
vt 0.707453 0.163480
vt 0.707456 0.172334
vt 0.703473 0.163481
vt 0.574280 0.362465
vt 0.574280 0.506523
vt 0.548578 0.362344
vt 0.553349 0.366301
vt 0.544496 0.366302
vt 0.544326 0.366129
vt 0.544326 0.510588
vt 0.544322 0.510761
vt 0.544531 0.514773
vt 0.544339 0.510760
vt 0.199695 0.225489
vt 0.553384 0.514769
vt 0.190677 0.225601
vt 0.578326 0.298958
vt 0.616085 0.299044
vt 0.597193 0.344712
vt 0.578307 0.075123
vt 0.616248 0.075122
vt 0.597266 0.120833
vt 0.682610 0.005854
vt 0.699705 0.047988
vt 0.665491 0.047955
vt 0.179105 0.617415
vt 0.196281 0.659557
vt 0.161906 0.659509
vt 0.850687 0.005860
vt 0.851849 0.005859
vt 0.851257 0.049763
vt 0.422869 0.831187
vt 0.423920 0.831156
vt 0.423397 0.875097
vt 0.867893 0.623822
vt 0.868944 0.623792
vt 0.868421 0.667732
vt 0.852838 0.784929
vt 0.854000 0.784928
vt 0.853408 0.828832
vt 0.852910 0.727510
vt 0.854072 0.727509
vt 0.853480 0.771413
vt 0.575763 0.828648
vt 0.576814 0.828618
vt 0.576291 0.872558
vt 0.035308 0.805651
vt 0.032291 0.765143
vt 0.038286 0.765123
vt 0.052891 0.805651
vt 0.049874 0.765144
vt 0.055869 0.765124
vt 0.055428 0.556989
vt 0.093369 0.556989
vt 0.074387 0.602700
vt 0.585798 0.362356
vt 0.623557 0.362442
vt 0.604665 0.408110
vt 0.557434 0.660975
vt 0.574529 0.703109
vt 0.540315 0.703076
vt 0.069051 0.614414
vt 0.086227 0.656556
vt 0.051852 0.656507
vt 0.790788 0.777489
vt 0.791949 0.777489
vt 0.791358 0.821393
vt 0.124123 0.827990
vt 0.125174 0.827959
vt 0.124651 0.871899
vt 0.141553 0.827990
vt 0.142604 0.827959
vt 0.142081 0.871899
vt 0.855116 0.623824
vt 0.856278 0.623824
vt 0.855686 0.667728
vt 0.032379 0.817396
vt 0.033541 0.817396
vt 0.032949 0.861300
vt 0.435423 0.831187
vt 0.436474 0.831156
vt 0.435951 0.875097
vt 0.143799 0.654955
vt 0.146777 0.614427
vt 0.149794 0.654935
vt 0.085060 0.805661
vt 0.088038 0.765133
vt 0.091055 0.805641
vt 0.585798 0.419806
vt 0.623557 0.419891
vt 0.604665 0.465559
vt 0.104991 0.556989
vt 0.142932 0.556989
vt 0.123949 0.602700
vt 0.690241 0.291835
vt 0.707335 0.333969
vt 0.673121 0.333936
vt 0.656645 0.583839
vt 0.673821 0.625981
vt 0.639446 0.625932
vt 0.045279 0.817396
vt 0.046441 0.817396
vt 0.045849 0.861300
vt 0.678789 0.828869
vt 0.679840 0.828838
vt 0.679317 0.872778
vt 0.874113 0.182597
vt 0.875164 0.182566
vt 0.874641 0.226506
vt 0.849196 0.430248
vt 0.850358 0.430248
vt 0.849766 0.474152
vt 0.849648 0.095554
vt 0.850810 0.095553
vt 0.850218 0.139457
vt 0.873907 0.277439
vt 0.874958 0.277408
vt 0.874435 0.321348
vt 0.364153 0.779387
vt 0.367131 0.738859
vt 0.370148 0.779367
vt 0.201314 0.799546
vt 0.204292 0.759019
vt 0.207308 0.799526
vt 0.180888 0.559990
vt 0.199846 0.605726
vt 0.161906 0.605677
vt 0.608857 0.526373
vt 0.627726 0.572101
vt 0.589965 0.572065
vt 0.673135 0.184085
vt 0.707346 0.184167
vt 0.690228 0.226243
vt 0.639457 0.637671
vt 0.673833 0.637671
vt 0.656634 0.679789
vt 0.058761 0.817396
vt 0.059330 0.861299
vt 0.058170 0.861300
vt 0.396491 0.831512
vt 0.397019 0.875422
vt 0.395967 0.875453
vt 0.473610 0.831171
vt 0.474138 0.875081
vt 0.473086 0.875112
vt 0.084561 0.817396
vt 0.085131 0.861299
vt 0.083970 0.861300
vt 0.308294 0.831710
vt 0.308822 0.875619
vt 0.307770 0.875650
vt 0.097462 0.817396
vt 0.098031 0.861299
vt 0.096871 0.861300
vt 0.070474 0.805651
vt 0.067458 0.765144
vt 0.073452 0.765124
vt 0.790181 0.136097
vt 0.787164 0.095589
vt 0.793159 0.095569
vt 0.597205 0.241552
vt 0.616074 0.287280
vt 0.578313 0.287244
vt 0.597389 0.184144
vt 0.616347 0.229879
vt 0.578407 0.229830
vt 0.589979 0.641229
vt 0.624189 0.641311
vt 0.607072 0.683388
vt 0.097861 0.614414
vt 0.132238 0.614414
vt 0.115038 0.656532
vt 0.448502 0.831172
vt 0.449030 0.875081
vt 0.447979 0.875112
vt 0.862549 0.520531
vt 0.863119 0.564435
vt 0.861958 0.564435
vt 0.486163 0.831172
vt 0.486692 0.875081
vt 0.485640 0.875112
vt 0.110362 0.817396
vt 0.110932 0.861299
vt 0.109771 0.861300
vt 0.409044 0.831512
vt 0.409573 0.875422
vt 0.408521 0.875453
vt 0.071661 0.817396
vt 0.072231 0.861299
vt 0.071070 0.861300
vt 0.102643 0.805661
vt 0.105621 0.765133
vt 0.108638 0.805641
vt 0.786387 0.470801
vt 0.789365 0.430274
vt 0.792381 0.470781
vt 0.024836 0.556989
vt 0.043794 0.602724
vt 0.005854 0.602675
vt 0.608857 0.583822
vt 0.627726 0.629551
vt 0.589965 0.629515
vt 0.673135 0.237939
vt 0.707346 0.238021
vt 0.690228 0.280098
vt 0.005865 0.614414
vt 0.040241 0.614414
vt 0.023041 0.656532
vt 0.861710 0.277441
vt 0.862280 0.321344
vt 0.861119 0.321345
vt 0.320848 0.831710
vt 0.321376 0.875619
vt 0.320324 0.875650
vt 0.383411 0.831528
vt 0.384462 0.831497
vt 0.383939 0.875437
vt 0.861336 0.182599
vt 0.862497 0.182598
vt 0.861906 0.226502
vt 0.461056 0.831171
vt 0.461584 0.875081
vt 0.460532 0.875112
vt 0.862678 0.430248
vt 0.863248 0.474152
vt 0.862087 0.474152
vt 0.787185 0.046413
vt 0.790163 0.005885
vt 0.793180 0.046393
vt 0.796101 0.317994
vt 0.799079 0.277466
vt 0.802096 0.317974
vt 0.578243 0.005783
vt 0.612109 0.005790
vt 0.595182 0.063463
vt 0.544369 0.526305
vt 0.578399 0.526278
vt 0.561390 0.583970
vt 0.638777 0.005883
vt 0.653879 0.059478
vt 0.623728 0.059493
vt 0.559476 0.595634
vt 0.574629 0.649222
vt 0.544329 0.649241
vt 0.817214 0.361023
vt 0.817680 0.414678
vt 0.816751 0.414709
vt 0.626161 0.743570
vt 0.626671 0.797222
vt 0.625633 0.797222
vt 0.888706 0.067601
vt 0.890335 0.067617
vt 0.889504 0.077584
vt 0.900548 0.400517
vt 0.902177 0.400534
vt 0.901346 0.410498
vt 0.745301 0.339040
vt 0.746929 0.339057
vt 0.746098 0.349023
vt 0.915187 0.408516
vt 0.916816 0.408533
vt 0.915985 0.418498
vt 0.665761 0.075133
vt 0.659157 0.168652
vt 0.652578 0.075129
vt 0.634385 0.169099
vt 0.627806 0.075120
vt 0.640989 0.075137
vt 0.677355 0.151847
vt 0.683024 0.075131
vt 0.688734 0.151826
vt 0.673684 0.541550
vt 0.679353 0.464834
vt 0.685062 0.541529
vt 0.340217 0.690382
vt 0.367989 0.690381
vt 0.354103 0.727128
vt 0.750432 0.671615
vt 0.774477 0.671579
vt 0.762459 0.704794
vt 0.422879 0.736698
vt 0.446931 0.736664
vt 0.434910 0.769871
vt 0.222467 0.888913
vt 0.223020 0.923851
vt 0.221908 0.923852
vt 0.915700 0.430249
vt 0.916242 0.465172
vt 0.915152 0.465202
vt 0.916354 0.361039
vt 0.916896 0.395962
vt 0.915806 0.395992
vt 0.293623 0.889252
vt 0.294176 0.924190
vt 0.293064 0.924191
vt 0.916794 0.095554
vt 0.917336 0.130477
vt 0.916246 0.130507
vt 0.818043 0.888596
vt 0.818595 0.923534
vt 0.817484 0.923535
vt 0.841234 0.727526
vt 0.838265 0.757532
vt 0.835261 0.727546
vt 0.835186 0.361055
vt 0.832217 0.391061
vt 0.829212 0.361075
vt 0.161890 0.671222
vt 0.189672 0.671222
vt 0.175781 0.707961
vt 0.750777 0.361022
vt 0.774822 0.360985
vt 0.762804 0.394201
vt 0.292953 0.738815
vt 0.317005 0.738781
vt 0.304984 0.771988
vt 0.927632 0.005845
vt 0.928185 0.040782
vt 0.927073 0.040783
vt 0.423431 0.886803
vt 0.423974 0.921725
vt 0.422884 0.921756
vt 0.436171 0.886803
vt 0.436713 0.921725
vt 0.435623 0.921756
vt 0.866296 0.892195
vt 0.866848 0.927133
vt 0.865737 0.927133
vt 0.237205 0.889260
vt 0.237758 0.924198
vt 0.236646 0.924199
vt 0.142116 0.883606
vt 0.142658 0.918528
vt 0.141568 0.918558
vt 0.717502 0.809296
vt 0.720507 0.839283
vt 0.714534 0.839302
vt 0.833996 0.626812
vt 0.837001 0.656798
vt 0.831027 0.656817
vt 0.261322 0.690382
vt 0.289094 0.690381
vt 0.275208 0.727128
vt 0.578280 0.132522
vt 0.606062 0.132522
vt 0.592171 0.169260
vt 0.763597 0.005825
vt 0.775624 0.039004
vt 0.751580 0.039040
vt 0.136159 0.725876
vt 0.148190 0.759048
vt 0.124138 0.759083
vt 0.914246 0.277441
vt 0.915356 0.277442
vt 0.914798 0.312379
vt 0.249397 0.889276
vt 0.250491 0.889245
vt 0.249941 0.924199
vt 0.927110 0.277441
vt 0.928205 0.277410
vt 0.927655 0.312364
vt 0.914453 0.182599
vt 0.915562 0.182599
vt 0.915004 0.217537
vt 0.517162 0.888211
vt 0.518256 0.888180
vt 0.517706 0.923134
vt 0.914453 0.229242
vt 0.915562 0.229242
vt 0.915004 0.264180
vt 0.841163 0.784945
vt 0.838194 0.814950
vt 0.835189 0.784965
vt 0.834413 0.182615
vt 0.831444 0.212620
vt 0.828439 0.182635
vt 0.697008 0.679064
vt 0.724790 0.679065
vt 0.710899 0.715803
vt 0.422957 0.688265
vt 0.450729 0.688264
vt 0.436843 0.725011
vt 0.395448 0.736675
vt 0.407479 0.769847
vt 0.383426 0.769882
vt 0.762799 0.405850
vt 0.774825 0.439030
vt 0.750782 0.439066
vt 0.590088 0.892102
vt 0.591182 0.892071
vt 0.590632 0.927025
vt 0.448355 0.886803
vt 0.449465 0.886803
vt 0.448907 0.921741
vt 0.790798 0.888734
vt 0.791892 0.888703
vt 0.791342 0.923657
vt 0.917625 0.623825
vt 0.918734 0.623825
vt 0.918176 0.658763
vt 0.602828 0.892102
vt 0.603922 0.892071
vt 0.603372 0.927024
vt 0.916682 0.831572
vt 0.917791 0.831572
vt 0.917234 0.866510
vt 0.367121 0.791148
vt 0.370125 0.821134
vt 0.364152 0.821154
vt 0.543326 0.808169
vt 0.546331 0.838155
vt 0.540358 0.838175
vt 0.084752 0.716657
vt 0.112333 0.716651
vt 0.098542 0.753400
vt 0.590090 0.743551
vt 0.613994 0.743515
vt 0.602047 0.776735
vt 0.765780 0.565380
vt 0.789578 0.565359
vt 0.777686 0.598570
vt 0.905420 0.623824
vt 0.905990 0.658747
vt 0.904829 0.658747
vt 0.940353 0.229224
vt 0.940882 0.264154
vt 0.939830 0.264185
vt 0.905964 0.677471
vt 0.906534 0.712395
vt 0.905373 0.712395
vt 0.942140 0.095536
vt 0.942668 0.130467
vt 0.941616 0.130498
vt 0.835858 0.878355
vt 0.836428 0.913278
vt 0.835267 0.913278
vt 0.942583 0.878196
vt 0.943111 0.913127
vt 0.942059 0.913158
vt 0.563874 0.808159
vt 0.560906 0.838165
vt 0.557901 0.808179
vt 0.834413 0.224383
vt 0.831444 0.254389
vt 0.828439 0.224403
vt 0.540392 0.714826
vt 0.567972 0.714820
vt 0.554182 0.751570
vt 0.751697 0.095536
vt 0.775600 0.095500
vt 0.763654 0.128719
vt 0.760612 0.277425
vt 0.784410 0.277403
vt 0.772518 0.310614
vt 0.908429 0.576154
vt 0.908998 0.611077
vt 0.907837 0.611077
vt 0.940918 0.520514
vt 0.941446 0.555444
vt 0.940395 0.555476
vt 0.758545 0.877605
vt 0.759115 0.912528
vt 0.757954 0.912529
vt 0.942583 0.784912
vt 0.943111 0.819842
vt 0.942059 0.819873
vt 0.904477 0.878213
vt 0.905047 0.913136
vt 0.903886 0.913136
vt 0.941046 0.430231
vt 0.941575 0.465161
vt 0.940523 0.465193
vt 0.008772 0.809994
vt 0.011776 0.839979
vt 0.005803 0.839999
vt 0.832059 0.520558
vt 0.835063 0.550543
vt 0.829090 0.550564
vt 0.005837 0.716657
vt 0.033417 0.716651
vt 0.019626 0.753400
vt 0.745338 0.184119
vt 0.772785 0.184139
vt 0.759063 0.220875
vt 0.513850 0.745935
vt 0.525811 0.779115
vt 0.501901 0.779158
vt 0.552227 0.763251
vt 0.564128 0.796444
vt 0.540339 0.796458
vt 0.939717 0.277439
vt 0.940768 0.277408
vt 0.940245 0.312370
vt 0.775623 0.879126
vt 0.776784 0.879125
vt 0.776193 0.914049
vt 0.943000 0.623822
vt 0.944051 0.623792
vt 0.943528 0.658753
vt 0.903896 0.784929
vt 0.905058 0.784928
vt 0.904466 0.819852
vt 0.942129 0.727508
vt 0.943180 0.727477
vt 0.942657 0.762438
vt 0.903896 0.831571
vt 0.905058 0.831571
vt 0.904466 0.866494
vt 0.834206 0.319226
vt 0.831237 0.349231
vt 0.828233 0.319246
vt 0.835045 0.562316
vt 0.832076 0.592322
vt 0.829072 0.562336
vt 0.045295 0.716657
vt 0.072875 0.716651
vt 0.059084 0.753400
vt 0.161889 0.719654
vt 0.189336 0.719674
vt 0.175614 0.756410
vt 0.772675 0.232556
vt 0.784636 0.265735
vt 0.760726 0.265778
vt 0.777679 0.520504
vt 0.789580 0.553698
vt 0.765792 0.553712
vt 0.941175 0.361037
vt 0.942226 0.361006
vt 0.941703 0.395967
vt 0.188240 0.879193
vt 0.189402 0.879193
vt 0.188810 0.914116
vt 0.939828 0.182597
vt 0.940879 0.182566
vt 0.940356 0.217528
vt 0.914175 0.005860
vt 0.915337 0.005859
vt 0.914745 0.040783
vt 0.942057 0.831569
vt 0.943108 0.831539
vt 0.942585 0.866500
vt 0.903968 0.727510
vt 0.905130 0.727509
vt 0.904538 0.762433
vt 0.623755 0.808969
vt 0.626760 0.838955
vt 0.620786 0.838974
vt 0.699942 0.809296
vt 0.702946 0.839283
vt 0.696973 0.839303
vt 0.005838 0.668220
vt 0.033620 0.668221
vt 0.019729 0.704959
vt 0.458457 0.736698
vt 0.482509 0.736664
vt 0.470488 0.769871
vt 0.750431 0.626768
vt 0.774477 0.626732
vt 0.762459 0.659948
vt 0.396830 0.887128
vt 0.397384 0.922066
vt 0.396271 0.922067
vt 0.576325 0.884264
vt 0.576868 0.919187
vt 0.575778 0.919217
vt 0.461649 0.886803
vt 0.462192 0.921726
vt 0.461102 0.921756
vt 0.655315 0.888444
vt 0.655869 0.923381
vt 0.654756 0.923382
vt 0.474389 0.886803
vt 0.474931 0.921726
vt 0.473841 0.921756
vt 0.805303 0.888596
vt 0.805857 0.923534
vt 0.804744 0.923535
vt 0.832017 0.167354
vt 0.834986 0.137348
vt 0.837990 0.167334
vt 0.832017 0.125585
vt 0.834986 0.095580
vt 0.837990 0.125565
vt 0.383499 0.688265
vt 0.411281 0.688266
vt 0.397390 0.725004
vt 0.257375 0.738815
vt 0.281427 0.738781
vt 0.269406 0.771988
vt 0.750776 0.450716
vt 0.774822 0.450679
vt 0.762804 0.483895
vt 0.409570 0.887128
vt 0.410123 0.922066
vt 0.409011 0.922067
vt 0.917236 0.784929
vt 0.917779 0.819852
vt 0.916689 0.819882
vt 0.333556 0.887334
vt 0.334109 0.922272
vt 0.332997 0.922273
vt 0.487128 0.886803
vt 0.487670 0.921726
vt 0.486580 0.921756
vt 0.346295 0.887335
vt 0.346848 0.922272
vt 0.345736 0.922273
vt 0.921188 0.576155
vt 0.921730 0.611078
vt 0.920640 0.611108
vt 0.807663 0.715764
vt 0.804658 0.685778
vt 0.810632 0.685758
vt 0.831237 0.307463
vt 0.828233 0.277478
vt 0.834206 0.277458
vt 0.045296 0.668220
vt 0.073078 0.668221
vt 0.059187 0.704959
vt 0.590044 0.695118
vt 0.617815 0.695116
vt 0.603929 0.731863
vt 0.340557 0.738798
vt 0.352589 0.771971
vt 0.328536 0.772006
vt 0.651377 0.739894
vt 0.663404 0.773073
vt 0.639360 0.773110
vt 0.262492 0.887358
vt 0.263587 0.887326
vt 0.263036 0.922281
vt 0.916682 0.878214
vt 0.917791 0.878215
vt 0.917234 0.913152
vt 0.364232 0.888513
vt 0.365326 0.888481
vt 0.364776 0.923436
vt 0.918168 0.677472
vt 0.919278 0.677473
vt 0.918720 0.712410
vt 0.916754 0.727510
vt 0.917863 0.727510
vt 0.917305 0.762448
vt 0.639475 0.888451
vt 0.640569 0.888419
vt 0.640019 0.923374
vt 0.831565 0.502048
vt 0.834534 0.472043
vt 0.837539 0.502028
vt 0.831565 0.460280
vt 0.834534 0.430275
vt 0.837539 0.460260
vt 0.585863 0.477290
vt 0.613645 0.477290
vt 0.599754 0.514028
vt 0.462405 0.688265
vt 0.490176 0.688264
vt 0.476290 0.725011
vt 0.233823 0.738798
vt 0.245855 0.771971
vt 0.221801 0.772006
vt 0.763597 0.050672
vt 0.775624 0.083851
vt 0.751580 0.083887
vt 0.307901 0.887341
vt 0.308995 0.887310
vt 0.308445 0.922264
vt 0.915017 0.520532
vt 0.916127 0.520532
vt 0.915569 0.555470
vt 0.124131 0.883605
vt 0.125240 0.883606
vt 0.124683 0.918543
vt 0.383544 0.887144
vt 0.384638 0.887112
vt 0.384088 0.922067
vt 0.275232 0.887358
vt 0.276326 0.887326
vt 0.275776 0.922281
vt 0.678798 0.884484
vt 0.679907 0.884485
vt 0.679349 0.919422
vt 0.825224 0.715764
vt 0.822219 0.685778
vt 0.828193 0.685758
vt 0.520069 0.820843
vt 0.517064 0.790856
vt 0.523037 0.790837
vt 0.768923 0.322325
vt 0.777156 0.343604
vt 0.760689 0.343602
vt 0.751663 0.161790
vt 0.759897 0.140419
vt 0.768129 0.161808
vt 0.753414 0.504414
vt 0.756625 0.496298
vt 0.761625 0.502478
vt 0.775201 0.504785
vt 0.776544 0.497087
vt 0.783322 0.502491
vt 0.980452 0.623709
vt 0.980270 0.634111
vt 0.980158 0.623709
vt 0.721690 0.968006
vt 0.721812 0.978454
vt 0.721518 0.978454
vt 0.980452 0.645701
vt 0.980270 0.656104
vt 0.980158 0.645701
vt 0.979395 0.784912
vt 0.979517 0.795360
vt 0.979223 0.795360
vt 0.161856 0.973624
vt 0.162144 0.963195
vt 0.162326 0.973684
vt 0.056997 0.969677
vt 0.057158 0.959092
vt 0.057397 0.969667
vt 0.044865 0.969677
vt 0.045084 0.959149
vt 0.045266 0.969667
vt 0.976073 0.152511
vt 0.976361 0.142081
vt 0.976543 0.152570
vt 0.094809 0.969677
vt 0.094970 0.959092
vt 0.095210 0.969667
vt 0.174342 0.973624
vt 0.174630 0.963195
vt 0.174812 0.973684
vt 0.979336 0.969588
vt 0.979154 0.979990
vt 0.979042 0.969588
vt 0.979569 0.853334
vt 0.979691 0.863783
vt 0.979396 0.863783
vt 0.929431 0.408525
vt 0.930481 0.417473
vt 0.928398 0.417484
vt 0.847819 0.409128
vt 0.848875 0.418076
vt 0.846781 0.418088
vt 0.851532 0.165784
vt 0.849583 0.165807
vt 0.850535 0.151210
vt 0.863626 0.485904
vt 0.864623 0.500479
vt 0.862674 0.500501
vt 0.859551 0.349257
vt 0.857601 0.349280
vt 0.858553 0.334683
vt 0.850083 0.485904
vt 0.851081 0.500479
vt 0.849132 0.500502
vt 0.837843 0.977244
vt 0.835683 0.977341
vt 0.836679 0.971177
vt 0.722731 0.347317
vt 0.719349 0.347317
vt 0.722200 0.341249
vt 0.784438 0.182554
vt 0.801841 0.182534
vt 0.793155 0.220927
vt 0.775557 0.727466
vt 0.793043 0.727429
vt 0.784316 0.765831
vt 0.013272 0.765079
vt 0.020730 0.798288
vt 0.005806 0.798267
vt 0.646871 0.538944
vt 0.654363 0.572146
vt 0.639369 0.572140
vt 0.739269 0.506462
vt 0.738239 0.506586
vt 0.738759 0.361098
vt 0.726116 0.506579
vt 0.724912 0.506490
vt 0.725386 0.361052
vt 0.740067 0.151283
vt 0.739038 0.151407
vt 0.739557 0.005919
vt 0.726914 0.151400
vt 0.725710 0.151311
vt 0.726184 0.005873
vt 0.134203 0.668170
vt 0.144237 0.714236
vt 0.124198 0.714273
vt 0.511802 0.688222
vt 0.521788 0.734299
vt 0.501845 0.734316
vt 0.793186 0.331052
vt 0.797526 0.343611
vt 0.788852 0.343623
vt 0.791583 0.071251
vt 0.795944 0.083807
vt 0.787226 0.083827
vt 0.801410 0.418343
vt 0.685353 0.610629
vt 0.697124 0.360924
vt 0.685352 0.622497
vt 0.527692 0.527853
vt 0.723007 0.172198
vt 0.190841 0.225433
vt 0.574107 0.362289
vt 0.738924 0.677483
vt 0.765752 0.614338
vt 0.835403 0.772257
vt 0.667116 0.863323
vt 0.711485 0.005745
vt 0.711315 0.150030
vt 0.718951 0.172163
vt 0.719157 0.172371
vt 0.178934 0.225585
vt 0.557477 0.154160
vt 0.170113 0.381473
vt 0.199870 0.393044
vt 0.832424 0.605550
vt 0.832218 0.605342
vt 0.703473 0.172527
vt 0.574071 0.506694
s 1
usemtl public_003_baked
f 10/1/1 12/2/1 13/3/1
f 19/4/2 16/5/2 21/6/2
f 22/7/3 24/8/3 25/9/3
f 27/10/4 28/11/4 26/12/4
f 29/13/5 31/14/5 32/15/5
f 35/16/6 37/17/7 38/18/8
f 41/19/9 43/20/10 40/21/11
f 44/22/12 46/23/12 47/24/12
f 49/25/13 51/26/13 48/27/13
f 52/28/14 54/29/14 55/30/14
f 56/31/15 57/32/15 58/33/15
f 66/34/16 67/35/16 68/36/16
f 16/37/17 14/38/18 15/39/19
f 56/31/20 52/40/20 55/41/20
f 26/42/21 19/4/21 21/6/21
f 22/7/22 29/43/22 32/44/22
f 34/45/23 24/8/23 33/46/23
f 29/43/24 66/34/24 30/47/24
f 44/48/25 17/49/25 18/50/25
f 33/51/26 19/52/26 34/53/26
f 67/54/27 48/55/27 68/56/27
f 41/19/28 10/57/28 13/58/28
f 55/41/29 42/59/29 41/60/29
f 23/61/30 51/26/31 50/62/32
f 39/63/33 60/64/34 59/65/35
f 31/43/36 65/66/36 64/67/36
f 443/68/37 442/69/37 441/70/37
f 443/71/37 441/72/37 442/73/37
f 21/6/38 47/24/39 46/23/12
f 36/74/40 27/10/40 26/12/40
f 57/32/41 45/75/41 58/33/41
f 52/76/20 37/77/20 53/78/20
f 36/79/42 11/80/42 37/81/42
f 50/82/32 28/83/43 23/84/30
f 54/85/44 63/86/44 62/87/44
f 14/88/45 12/89/45 15/90/45
f 60/91/46 42/92/46 59/93/46
f 65/94/47 38/95/8 64/96/48
f 4/97/37 3/98/37 5/99/37
f 4/100/37 5/101/37 3/102/37
f 7/103/37 8/104/37 6/105/37
f 8/106/37 7/107/37 6/108/37
f 15/39/49 9/109/50 17/110/51
f 9/111/50 15/112/49 13/58/52
f 18/113/53 9/114/54 43/115/55
f 9/111/50 13/58/52 40/21/56
f 26/42/57 20/116/57 12/117/57
f 26/42/20 12/117/20 36/79/20
f 14/118/18 20/119/58 12/120/59
f 41/60/12 13/121/12 12/117/12
f 10/122/60 12/123/60 20/124/60
f 33/125/61 11/126/62 10/122/63
f 15/39/49 17/110/51 16/37/64
f 14/118/18 16/127/17 20/119/58
f 16/128/64 17/49/51 47/129/39
f 43/115/65 42/130/65 46/131/65
f 21/6/20 46/23/20 41/60/20
f 24/132/66 34/53/66 19/52/66
f 32/44/67 33/46/61 25/9/68
f 24/133/69 23/134/70 27/10/59
f 25/135/71 27/10/72 29/136/73
f 28/137/74 22/138/74 24/139/74
f 30/140/75 29/136/75 36/74/75
f 51/141/76 56/142/76 57/143/76
f 11/144/77 31/145/77 37/146/77
f 32/44/67 11/147/62 33/46/61
f 52/148/66 37/149/66 31/150/66
f 66/151/66 67/152/66 54/153/66
f 64/67/78 61/154/79 30/47/80
f 38/155/81 53/156/82 62/157/83
f 65/158/47 35/16/6 38/18/8
f 39/159/84 57/160/85 45/161/86
f 60/162/34 39/163/33 44/164/87
f 59/65/88 48/27/89 39/63/90
f 46/23/20 55/41/20 41/60/20
f 66/165/91 59/166/92 42/167/93
f 42/167/93 67/168/77 66/165/91
f 46/169/59 41/170/59 60/162/34
f 46/23/20 58/33/20 55/41/20
f 50/171/94 49/172/95 57/173/96
f 49/172/15 58/174/15 57/173/15
f 59/65/88 68/36/97 48/27/89
f 67/54/98 53/175/98 52/176/98
f 67/54/95 63/177/95 54/178/95
f 61/179/79 64/96/78 38/95/81
f 67/54/99 61/180/100 63/177/101
f 61/179/79 38/95/81 62/181/83
f 70/182/24 71/183/24 69/184/24
f 71/185/24 70/186/24 69/187/24
f 72/188/37 73/189/37 74/190/37
f 72/191/37 74/192/37 73/193/37
f 76/194/102 75/195/103 77/196/104
f 75/197/103 76/198/102 77/199/104
f 80/200/77 79/201/77 78/202/104
f 79/203/77 80/204/77 78/205/104
f 83/206/77 81/207/102 82/208/104
f 81/209/102 83/210/77 82/211/104
f 85/212/37 86/213/37 84/214/37
f 85/215/37 84/216/37 86/217/37
f 87/218/37 89/219/59 88/220/59
f 89/221/59 87/222/37 88/223/59
f 91/224/37 90/225/37 92/226/37
f 91/227/37 92/228/37 90/229/37
f 95/230/95 93/231/95 94/232/24
f 93/233/95 95/234/95 94/235/24
f 96/236/104 97/237/104 98/238/105
f 97/239/104 96/240/104 98/241/105
f 100/242/66 99/243/66 101/244/66
f 99/245/66 100/246/66 101/247/66
f 102/248/59 104/249/59 103/250/59
f 103/251/59 104/252/59 102/253/59
f 107/254/37 105/255/37 106/256/37
f 105/257/37 107/258/37 106/259/37
f 108/260/37 110/261/37 109/262/37
f 108/263/37 109/264/37 110/265/37
f 112/266/77 111/267/102 113/268/104
f 111/269/102 112/270/77 113/271/104
f 115/272/59 114/273/37 116/274/59
f 114/275/37 115/276/59 116/277/59
f 118/278/95 117/279/95 119/280/95
f 117/281/95 118/282/95 119/283/95
f 122/284/106 120/285/107 121/286/108
f 121/287/108 120/288/107 122/289/106
f 123/290/37 124/291/37 125/292/37
f 123/293/37 125/294/37 124/295/37
f 127/296/37 128/297/95 126/298/95
f 128/299/95 127/300/37 126/301/95
f 129/302/37 131/303/37 130/304/37
f 129/305/37 130/306/37 131/307/37
f 134/308/37 133/309/37 132/310/37
f 134/311/37 132/312/37 133/313/37
f 137/314/37 136/315/37 135/316/37
f 137/317/37 135/318/37 136/319/37
f 139/320/37 138/321/37 140/322/37
f 139/323/37 140/324/37 138/325/37
f 142/326/37 143/327/37 141/328/37
f 142/329/37 141/330/37 143/331/37
f 144/332/37 146/333/37 145/334/37
f 146/335/37 144/336/37 145/337/37
f 148/338/37 149/339/37 147/340/37
f 148/341/37 147/342/37 149/343/37
f 152/344/37 151/345/37 150/346/37
f 152/347/37 150/348/37 151/349/37
f 154/350/37 155/351/37 153/352/37
f 154/353/37 153/354/37 155/355/37
f 158/356/59 157/357/59 156/358/59
f 156/359/59 157/360/59 158/361/59
f 161/362/37 159/363/37 160/364/37
f 161/365/37 160/366/37 159/367/37
f 162/368/37 164/369/95 163/370/95
f 164/371/95 162/372/37 163/373/95
f 166/374/37 167/375/37 165/376/37
f 166/377/37 165/378/37 167/379/37
f 168/380/37 169/381/37 170/382/37
f 169/383/37 168/384/37 170/385/37
f 171/386/37 172/387/37 173/388/37
f 171/389/37 173/390/37 172/391/37
f 175/392/59 176/393/59 174/394/59
f 174/395/59 176/396/59 175/397/59
f 177/398/37 178/399/37 179/400/37
f 178/401/37 177/402/37 179/403/37
f 180/404/37 181/405/37 182/406/37
f 180/407/37 182/408/37 181/409/37
f 183/410/37 185/411/37 184/412/37
f 183/413/37 184/414/37 185/415/37
f 188/416/37 186/417/37 187/418/37
f 186/419/37 188/420/37 187/421/37
f 191/422/37 189/423/37 190/424/37
f 189/425/37 191/426/37 190/427/37
f 192/428/109 194/429/110 193/430/111
f 194/431/110 192/432/109 193/433/111
f 197/434/37 196/435/37 195/436/37
f 195/437/37 196/438/37 197/439/37
f 198/440/112 199/441/112 201/442/112
f 200/443/113 202/444/114 201/445/115
f 202/446/114 200/447/113 201/448/115
f 205/449/37 203/450/37 204/451/37
f 205/452/37 204/453/37 203/454/37
f 207/455/37 208/456/37 206/457/37
f 207/458/37 206/459/37 208/460/37
f 210/461/37 211/462/37 209/463/37
f 210/464/37 209/465/37 211/466/37
f 214/467/77 212/468/77 213/469/77
f 213/470/77 212/471/77 214/472/77
f 215/473/116 216/474/116 217/475/116
f 218/476/117 219/477/118 217/478/66
f 219/479/118 218/480/117 217/481/66
f 220/482/37 222/483/37 221/484/37
f 220/485/37 221/486/37 222/487/37
f 225/488/37 224/489/37 223/490/37
f 225/491/37 223/492/37 224/493/37
f 226/494/37 227/495/37 228/496/37
f 226/497/37 228/498/37 227/499/37
f 230/500/37 229/501/37 231/502/37
f 230/503/37 231/504/37 229/505/37
f 233/506/37 234/507/37 232/508/37
f 234/509/37 233/510/37 232/511/37
f 237/512/37 235/513/37 236/514/37
f 237/515/37 236/516/37 235/517/37
f 240/518/37 238/519/37 239/520/37
f 238/521/37 240/522/37 239/523/37
f 242/524/37 241/525/37 243/526/37
f 241/527/37 242/528/37 243/529/37
f 246/530/37 244/531/37 245/532/37
f 244/533/37 246/534/37 245/535/37
f 248/536/37 249/537/37 247/538/37
f 247/539/37 249/540/37 248/541/37
f 250/542/37 251/543/37 252/544/37
f 251/545/37 250/546/37 252/547/37
f 253/548/37 254/549/37 255/550/37
f 253/551/37 255/552/37 254/553/37
f 257/554/37 258/555/37 256/556/37
f 258/557/37 257/558/37 256/559/37
f 261/560/37 259/561/37 260/562/37
f 259/563/37 261/564/37 260/565/37
f 263/566/37 264/567/37 262/568/37
f 264/569/37 263/570/37 262/571/37
f 265/572/37 266/573/37 267/574/37
f 265/575/37 267/576/37 266/577/37
f 268/578/119 269/579/119 271/580/119
f 270/581/37 272/582/95 271/583/95
f 272/584/95 270/585/37 271/586/95
f 273/587/37 275/588/37 274/589/37
f 273/590/37 274/591/37 275/592/37
f 277/593/37 278/594/37 276/595/37
f 277/596/37 276/597/37 278/598/37
f 279/599/37 281/600/37 280/601/37
f 279/602/37 280/603/37 281/604/37
f 283/605/59 282/606/59 284/607/59
f 284/608/59 282/609/59 283/610/59
f 286/611/119 285/612/119 287/613/119
f 288/614/37 289/615/37 287/616/37
f 289/617/37 288/618/37 287/619/37
f 292/620/37 291/621/37 290/622/37
f 292/623/37 290/624/37 291/625/37
f 295/626/37 294/627/37 293/628/37
f 295/629/37 293/630/37 294/631/37
f 297/632/37 298/633/37 296/634/37
f 297/635/37 296/636/37 298/637/37
f 300/638/37 301/639/37 299/640/37
f 300/641/37 299/642/37 301/643/37
f 304/644/120 302/645/121 303/646/121
f 302/647/121 304/648/120 303/649/121
f 305/650/37 306/651/37 307/652/37
f 305/653/37 307/654/37 306/655/37
f 309/656/37 310/657/37 308/658/37
f 310/659/37 309/660/37 308/661/37
f 312/662/37 313/663/37 311/664/37
f 313/665/37 312/666/37 311/667/37
f 315/668/37 314/669/37 316/670/37
f 314/671/37 315/672/37 316/673/37
f 319/674/77 318/675/77 317/676/77
f 317/677/77 318/678/77 319/679/77
f 322/680/37 320/681/37 321/682/37
f 320/683/37 322/684/37 321/685/37
f 324/686/37 323/687/37 325/688/37
f 324/689/37 325/690/37 323/691/37
f 328/692/37 326/693/37 327/694/37
f 326/695/37 328/696/37 327/697/37
f 331/698/37 329/699/37 330/700/37
f 329/701/37 331/702/37 330/703/37
f 334/704/37 332/705/37 333/706/37
f 332/707/37 334/708/37 333/709/37
f 335/710/37 336/711/37 337/712/37
f 335/713/37 337/714/37 336/715/37
f 338/716/122 339/717/122 340/718/122
f 341/719/123 342/720/124 340/721/124
f 342/722/124 341/723/123 340/724/124
f 344/725/37 345/726/37 343/727/37
f 344/728/37 343/729/37 345/730/37
f 346/731/37 348/732/37 347/733/37
f 346/734/37 347/735/37 348/736/37
f 349/737/37 351/738/37 350/739/37
f 349/740/37 350/741/37 351/742/37
f 352/743/77 354/744/77 353/745/77
f 353/746/77 354/747/77 352/748/77
f 356/749/122 355/750/122 359/751/122
f 357/752/95 358/753/95 359/754/95
f 358/755/95 357/756/95 359/757/95
f 360/758/37 362/759/37 361/760/37
f 360/761/37 361/762/37 362/763/37
f 365/764/37 364/765/37 363/766/37
f 365/767/37 363/768/37 364/769/37
f 366/770/37 368/771/37 367/772/37
f 366/773/37 367/774/37 368/775/37
f 369/776/37 371/777/37 370/778/37
f 369/779/37 370/780/37 371/781/37
f 372/782/37 374/783/37 373/784/37
f 374/785/37 372/786/37 373/787/37
f 375/788/37 377/789/37 376/790/37
f 375/791/37 376/792/37 377/793/37
f 379/794/37 380/795/37 378/796/37
f 380/797/37 379/798/37 378/799/37
f 381/800/37 383/801/37 382/802/37
f 383/803/37 381/804/37 382/805/37
f 386/806/37 385/807/37 384/808/37
f 385/809/37 386/810/37 384/811/37
f 388/812/125 389/813/126 387/814/127
f 387/815/127 389/816/126 388/817/125
f 392/818/37 390/819/37 391/820/37
f 390/821/37 392/822/37 391/823/37
f 393/824/37 395/825/37 394/826/37
f 393/827/37 394/828/37 395/829/37
f 398/830/37 396/831/37 397/832/37
f 396/833/37 398/834/37 397/835/37
f 401/836/37 399/837/37 400/838/37
f 399/839/37 401/840/37 400/841/37
f 404/842/37 403/843/37 402/844/37
f 403/845/37 404/846/37 402/847/37
f 405/848/37 407/849/37 406/850/37
f 405/851/37 406/852/37 407/853/37
f 409/854/128 408/855/129 410/856/130
f 408/857/129 409/858/128 410/859/130
f 411/860/37 413/861/37 412/862/37
f 412/863/37 413/864/37 411/865/37
f 414/866/95 416/867/95 415/868/95
f 416/869/95 414/870/95 415/871/95
f 419/872/24 417/873/24 418/874/24
f 417/875/24 419/876/24 418/877/24
f 422/878/37 421/879/37 420/880/37
f 420/881/37 421/882/37 422/883/37
f 425/884/37 424/885/37 423/886/37
f 423/887/37 424/888/37 425/889/37
f 428/890/37 426/891/37 427/892/37
f 427/893/37 426/894/37 428/895/37
f 429/896/37 431/897/37 430/898/37
f 431/899/37 429/900/37 430/901/37
f 433/902/37 432/903/37 434/904/37
f 433/905/37 434/906/37 432/907/37
f 437/908/131 435/909/131 436/910/132
f 436/911/132 435/912/131 437/913/131
f 440/914/37 438/915/133 439/916/134
f 439/917/134 438/918/133 440/919/37
f 444/920/37 445/921/37 446/922/37
f 445/923/37 444/924/37 446/925/37
f 448/926/135 447/927/136 449/928/137
f 447/929/136 448/930/135 449/931/137
f 450/932/37 452/933/37 451/934/37
f 450/935/37 451/936/37 452/937/37
f 453/938/37 454/939/37 455/940/37
f 454/941/37 453/942/37 455/943/37
f 456/944/138 457/945/139 458/946/140
f 457/947/139 456/948/138 458/949/140
f 459/950/37 460/951/37 461/952/37
f 459/953/37 461/954/37 460/955/37
f 462/956/37 464/957/37 463/958/37
f 462/959/37 463/960/37 464/961/37
f 10/1/141 11/962/141 12/2/141
f 19/4/142 20/116/142 16/5/142
f 22/7/143 23/61/70 24/8/69
f 27/10/144 23/134/144 28/11/144
f 29/13/145 30/963/145 31/14/145
f 35/16/146 36/74/147 37/17/148
f 41/19/149 42/964/149 43/20/149
f 44/22/150 45/75/151 46/23/151
f 49/25/152 50/62/152 51/26/152
f 52/28/153 53/965/153 54/29/153
f 56/31/154 50/82/94 57/32/96
f 66/34/155 61/154/100 67/35/99
f 56/31/20 58/33/20 52/40/20
f 26/42/156 28/83/156 19/4/156
f 22/7/24 25/9/24 29/43/24
f 34/45/157 25/9/157 24/8/157
f 39/63/90 48/27/89 51/26/158
f 66/34/97 68/36/97 59/65/88
f 29/43/159 61/154/159 66/34/159
f 44/48/160 47/129/39 17/49/51
f 9/111/56 40/21/56 43/20/56
f 18/966/53 17/110/161 9/109/54
f 33/51/162 20/967/162 19/52/162
f 67/54/163 49/172/163 48/55/163
f 61/179/100 62/181/164 63/968/101
f 41/19/9 40/21/11 10/57/165
f 32/44/166 31/43/166 11/147/166
f 55/41/167 54/40/167 42/59/167
f 23/61/30 22/7/168 51/26/31
f 39/163/84 45/969/86 44/164/86
f 31/43/169 30/47/169 65/66/169
f 21/6/38 16/5/64 47/24/39
f 36/74/147 35/16/146 27/10/170
f 57/32/151 46/23/151 45/75/151
f 52/76/171 38/970/171 37/77/171
f 36/79/172 12/117/172 11/80/172
f 50/82/32 56/31/173 28/83/43
f 54/85/174 53/971/174 63/86/174
f 14/88/175 13/972/175 12/89/175
f 60/91/176 43/973/176 42/92/176
f 26/42/177 19/4/177 20/116/177
f 19/4/178 21/6/178 20/116/178
f 21/6/20 41/60/20 12/117/20
f 20/116/179 21/6/179 12/117/179
f 20/124/180 33/125/61 10/122/63
f 47/974/181 18/113/181 46/131/181
f 18/113/53 43/115/55 46/131/95
f 42/130/182 41/975/182 46/131/182
f 27/976/66 24/132/66 19/52/66
f 19/52/66 28/977/66 27/976/66
f 25/135/181 24/133/181 27/10/181
f 28/137/183 51/141/183 22/138/183
f 24/139/77 27/978/77 28/137/77
f 37/17/184 31/979/184 36/74/184
f 31/979/185 30/140/185 36/74/185
f 29/136/73 27/10/72 36/74/73
f 57/143/77 49/980/77 51/141/77
f 51/141/186 28/137/186 56/142/186
f 29/981/66 52/148/66 31/150/66
f 52/148/66 29/981/66 54/153/66
f 29/981/66 66/151/66 54/153/66
f 35/16/6 65/158/47 31/979/59
f 35/16/187 31/979/187 37/17/187
f 57/160/85 39/159/84 49/982/188
f 39/159/84 51/983/189 49/982/188
f 54/984/77 67/168/77 42/167/93
f 42/985/190 60/162/190 41/170/190
f 60/162/34 44/164/87 46/169/59
f 49/172/191 52/176/191 58/174/191
f 52/176/95 49/172/95 67/54/95
f 67/54/192 54/178/192 53/175/192
l 1 2
