# Blender 4.5.0
# www.blender.org
mtllib public_001.lod1.mtl
o public_001
v 2.472862 3.530025 -2.923231
v 2.472862 2.989445 -2.923231
v -1.071240 3.530025 -2.923231
v -1.071240 2.989445 -2.923231
v -3.248899 0.141529 -3.249059
v 3.250000 0.142629 -3.247264
v -3.248899 0.001101 3.250000
v -3.250000 -0.000000 -3.247264
v 3.248899 0.141529 3.250000
v -3.250000 0.142630 3.248204
v 3.248899 0.001101 -3.249059
v 3.250000 0.000000 3.248204
v -2.999643 6.048942 2.998090
v -2.998530 0.151267 2.999841
v 2.998529 6.047862 2.999841
v 2.999643 0.150187 2.998091
v 2.999643 6.048942 -2.696873
v -2.998529 6.047862 -2.698624
v 2.998530 0.151266 -2.698623
v -2.999643 0.150186 -2.696872
v -1.923745 0.151334 -2.714508
v -3.022133 0.149000 -2.712086
v -1.923745 6.047794 3.015726
v -3.021979 6.047794 -2.714509
v -3.022133 6.050128 3.013304
v -3.021979 0.151334 3.015726
v -1.923591 0.149001 3.013304
v -1.923591 6.050128 -2.712086
v 2.948357 6.167706 2.815320
v -2.954200 6.168081 2.809425
v -2.958264 6.063634 -2.817133
v 2.954200 6.168081 -2.808485
v -2.948357 6.167706 -2.814380
v -2.958173 6.408504 2.816430
v -2.954436 6.409866 -2.807420
v -2.953418 6.404080 -2.808097
v -2.953408 6.053088 2.809657
v -3.113192 6.404894 -2.817133
v -3.106878 6.056561 -2.817139
v -3.113205 6.062775 -2.817108
v 2.958173 6.408504 -2.815490
v 3.113192 6.404894 2.818073
v 3.106878 6.056561 2.818079
v 3.113604 6.063562 2.818073
v 2.954436 6.409866 2.808360
v 2.953418 6.404080 2.809036
v 2.953408 6.053088 -2.808717
v 2.954770 6.051145 2.819835
v 2.958264 6.063634 2.818073
v 3.113192 6.060957 -2.817133
v 3.106358 6.409848 -2.817159
v 3.113604 6.402289 -2.817133
v 3.110401 6.058387 -2.974319
v 3.110355 6.408538 -2.973256
v -3.110401 6.407464 -2.974319
v -3.110355 6.057313 -2.973256
v -3.113192 6.060957 2.818073
v 3.110401 6.407464 2.975258
v -3.106358 6.409848 2.818099
v -3.113205 6.403077 2.818048
v 3.110355 6.057313 2.974196
v -3.110355 6.408538 2.974196
v -3.110401 6.058387 2.975258
v -0.485547 5.339633 -2.834861
v -0.486735 3.802925 -2.835560
v -0.486735 5.339361 -2.688605
v -0.485547 3.802652 -2.689303
v -1.717002 3.802652 -2.834861
v -1.715814 3.802925 -2.688605
v -1.717002 5.339633 -2.689303
v -1.715814 5.339361 -2.835560
v -0.552293 5.270042 -2.851007
v -1.650257 5.270042 -2.853324
v -1.650257 3.872243 -2.851007
v -0.552293 3.872243 -2.853323
v -1.649922 3.838914 -2.853216
v -1.653902 5.313383 -2.853216
v -1.649922 5.313383 -2.911170
v -1.653902 3.838914 -2.911170
v -1.103265 5.313383 -2.853216
v -1.099285 3.838914 -2.853216
v -1.099285 5.313383 -2.911170
v -1.103265 3.838914 -2.911170
v -0.548647 5.313383 -2.911170
v -0.552627 3.838914 -2.911170
v -0.552627 5.313383 -2.853216
v -0.548647 3.838914 -2.853216
v -0.441735 3.838898 -2.784358
v -1.760814 3.838898 -3.020065
v -1.762468 3.761589 -3.019065
v -0.440081 3.839042 -3.019065
v -0.440081 3.761588 -2.785358
v -0.441735 3.761734 -3.020065
v -1.762468 3.839042 -2.785358
v -1.760814 3.761734 -2.784358
v 1.065061 3.802925 -2.835560
v 1.066249 3.802652 -2.689303
v -0.165206 5.339633 -2.689303
v 1.066249 5.339633 -2.834861
v 1.065061 5.339361 -2.688605
v -0.164018 5.339361 -2.835560
v -0.165206 3.802652 -2.834861
v -0.164018 3.802925 -2.688605
v 0.999503 5.270042 -2.851007
v -0.098461 5.270042 -2.853324
v -0.098460 3.872243 -2.851007
v 0.999503 3.872243 -2.853323
v -0.098126 5.313383 -2.911170
v -0.102106 3.838914 -2.911170
v -0.102106 5.313383 -2.853216
v -0.098126 3.838914 -2.853216
v 0.452512 5.313383 -2.911170
v 0.448531 3.838914 -2.911170
v 0.452512 3.838914 -2.853216
v 0.448531 5.313383 -2.853216
v 1.003149 5.313383 -2.911170
v 0.999169 3.838914 -2.911170
v 1.003149 3.838914 -2.853216
v 0.999169 5.313383 -2.853216
v -0.209018 3.838898 -3.020065
v 1.110061 3.761734 -3.020065
v -0.210672 3.839043 -2.785358
v -0.210672 3.761589 -3.019065
v -0.209018 3.761734 -2.784358
v 1.111715 3.839042 -3.019065
v 1.110061 3.838898 -2.784358
v 1.111715 3.761588 -2.785358
v 1.387778 3.802925 -2.688605
v 1.386590 3.802652 -2.834861
v 2.618045 5.339633 -2.834861
v 1.386590 5.339633 -2.689303
v 2.616857 5.339361 -2.688605
v 1.387778 5.339361 -2.835560
v 2.616857 3.802925 -2.835560
v 2.618045 3.802653 -2.689303
v 1.453336 5.270042 -2.853324
v 2.551300 5.270042 -2.851007
v 1.453336 3.872243 -2.851007
v 2.551299 3.872243 -2.853323
v 1.453670 5.313383 -2.911170
v 1.449690 3.838914 -2.911170
v 1.449690 5.313383 -2.853216
v 1.453670 3.838914 -2.853216
v 2.000328 5.313383 -2.853216
v 2.004308 5.313383 -2.911170
v 2.000328 3.838914 -2.911170
v 2.004308 3.838914 -2.853216
v 2.550965 5.313383 -2.853216
v 2.554945 3.838914 -2.853216
v 2.550965 3.838914 -2.911170
v 2.554945 5.313383 -2.911170
v 2.663511 3.839042 -3.019065
v 2.661857 3.761734 -3.020065
v 2.661857 3.838898 -2.784358
v 1.341124 3.839042 -2.785358
v 1.342778 3.761734 -2.784358
v 1.342778 3.838898 -3.020065
v 1.341124 3.761589 -3.019065
v 2.663511 3.761588 -2.785358
v -0.785938 0.901897 -2.833694
v -0.785938 2.534266 -2.690470
v -0.784760 0.900878 -2.692266
v -2.619179 2.535285 -2.692267
v -2.619179 0.900878 -2.831897
v -0.784760 2.535285 -2.831897
v -2.618002 2.534266 -2.833694
v -2.618002 0.901897 -2.690470
v -0.852780 2.467198 -2.851022
v -2.551160 2.467198 -2.853308
v -2.551160 0.968965 -2.851022
v -0.852780 0.968965 -2.853308
v -2.550965 2.510375 -2.911170
v -2.554945 0.935799 -2.911170
v -2.550965 0.935799 -2.853216
v -2.554945 2.510375 -2.853216
v -1.699980 0.935799 -2.853216
v -1.703960 2.510375 -2.853216
v -1.699980 2.510375 -2.911170
v -1.703960 0.935799 -2.911170
v -0.848995 0.935799 -2.853216
v -0.848995 2.510375 -2.911170
v -0.852975 2.510375 -2.853216
v -0.852975 0.935799 -2.911170
v -0.742211 0.936020 -2.784016
v -2.661728 0.858381 -2.784016
v -0.740583 0.858330 -2.784922
v -2.661728 0.936020 -3.020406
v -2.663356 0.858330 -3.019501
v -0.740583 0.936072 -3.019501
v -2.663356 0.936072 -2.784922
v -0.742211 0.858381 -3.020406
v 0.004248 2.413384 -2.838882
v 1.497491 2.413384 -2.705301
v 0.004248 0.171866 -2.705300
v 0.003454 2.414736 -2.707109
v 0.003454 0.170514 -2.837073
v 1.498284 2.414737 -2.837073
v 1.498284 0.170514 -2.707109
v 1.497491 0.171866 -2.838882
v 1.425672 2.337630 -2.860729
v 1.425672 0.237610 -2.863620
v 0.076066 2.337630 -2.863620
v 0.076066 0.237610 -2.860729
v 0.748849 0.235090 -2.918644
v 0.748849 2.340149 -2.865760
v 0.752889 2.340149 -2.918644
v 0.752889 0.235090 -2.865760
v 0.632877 1.397000 -2.985210
v 0.628583 0.998046 -2.985210
v 0.628583 1.397000 -2.919305
v 0.632877 0.998046 -2.919305
v 0.873155 1.397000 -2.985210
v 0.868862 0.998046 -2.985210
v 0.868862 1.397000 -2.919305
v 0.873155 0.998046 -2.919305
v -0.644769 2.807812 -3.290000
v 2.048113 2.808049 -3.288906
v -0.646491 2.650283 -3.288906
v -0.644769 2.650521 -2.694589
v 2.048114 2.650283 -2.695684
v 2.046391 2.807812 -2.694589
v -0.646491 2.808049 -2.695684
v 2.046391 2.650521 -3.290000
v -1.095323 3.557465 -2.916325
v 2.496945 2.962006 -2.916325
v -1.096675 2.962203 -2.915771
v 2.496945 3.557465 -2.767987
v -1.095323 2.962006 -2.767987
v -1.096675 3.557269 -2.768541
v 2.498297 3.557269 -2.915771
v 2.498297 2.962202 -2.768541
v -2.344929 5.135514 -2.713375
v -2.344772 4.225422 -2.713964
v -2.560905 5.137100 -2.713964
v -2.344772 5.137100 -2.810200
v -2.560748 5.135514 -2.810789
v -2.344929 4.227007 -2.810789
v -2.560906 4.225422 -2.810200
v -2.560749 4.227007 -2.713375
v -2.088493 4.563649 -2.820667
v -2.817185 4.788862 -2.820667
v -2.818718 4.563410 -2.820092
v -2.088493 4.788862 -2.723516
v -2.086960 4.563410 -2.724090
v -2.818718 4.789102 -2.724090
v -2.086960 4.789102 -2.820093
v -2.817185 4.563650 -2.723516
v 1.996355 0.147294 -3.240231
v -0.596504 0.215758 -2.825441
v 1.996355 0.215572 -2.824432
v -0.594733 0.147294 -2.824432
v 1.998126 0.215758 -3.239222
v -0.594733 0.215572 -3.240231
v -0.596504 0.147108 -3.239222
v 1.998126 0.147108 -2.825441
v 1.382328 6.849197 1.379414
v 2.223119 6.850000 1.380666
v 2.223119 6.206485 1.823233
v 1.381052 6.850000 1.823233
v 2.221844 6.849197 1.824485
v 1.381052 6.206485 1.380666
v 2.221843 6.207287 1.379414
v 1.382328 6.207288 1.824485
v 2.192853 6.543506 1.351567
v 2.077688 6.743124 1.351667
v 2.075822 6.342930 1.357594
v 1.847741 6.343188 1.353499
v 1.731532 6.543331 1.351821
v 1.846839 6.743140 1.351732
v 1.964107 6.312998 1.345843
v 1.762458 6.428192 1.351869
v 1.762376 6.658643 1.351770
v 1.962290 6.774072 1.351704
v 2.162061 6.658682 1.351616
v 2.161502 6.427253 1.349937
v 1.756712 6.395723 1.313368
v 1.750475 6.379817 1.326248
v 2.167831 6.395723 1.330013
v 2.174068 6.379817 1.317133
v 1.756712 6.460985 1.331822
v 2.174067 6.448103 1.327462
v 1.750475 6.448103 1.315919
v 2.167831 6.460985 1.311559
v 1.756712 6.528058 1.331822
v 1.750475 6.515176 1.315919
v 2.167831 6.528058 1.311559
v 2.174068 6.515176 1.327462
v 1.756712 6.578483 1.311559
v 1.750475 6.591364 1.327462
v 2.175674 6.586806 1.321690
v 2.167831 6.643744 1.313368
v 1.750475 6.659650 1.317133
v 2.174068 6.659650 1.326248
v 1.756712 6.643744 1.330013
v 2.167831 6.712626 1.331823
v 1.750475 6.726722 1.317133
v 1.756712 6.710815 1.330013
v 2.174068 6.725507 1.315919
v 1.468350 6.721763 1.355212
v 1.468350 6.364755 1.358234
v 1.555150 6.364755 1.355212
v 1.555150 6.721763 1.358234
v 1.539562 6.134949 1.317075
v 1.462890 6.201629 1.884960
v 1.463914 6.200763 1.317075
v 1.462890 6.134083 1.318938
v 1.463914 6.134949 1.886824
v 1.539562 6.200763 1.886824
v 1.540586 6.201629 1.318938
v 1.540586 6.134083 1.884961
v 2.064610 6.200763 1.317075
v 2.141282 6.201629 1.318938
v 2.140258 6.200763 1.886824
v 2.141282 6.134083 1.884960
v 2.063585 6.134083 1.318938
v 2.063585 6.201628 1.884960
v 2.140257 6.134949 1.317075
v 2.064610 6.134949 1.886824
v 1.121845 6.850000 1.380666
v 1.120569 6.849197 1.824485
v 0.279778 6.206485 1.380666
v 1.121845 6.206485 1.823233
v 1.120569 6.207288 1.379414
v 0.279777 6.850000 1.823233
v 0.281053 6.849197 1.379414
v 0.281053 6.207288 1.824485
v 1.060787 6.658682 1.351616
v 0.861015 6.774073 1.351704
v 0.745564 6.743140 1.351732
v 0.661101 6.658643 1.351770
v 0.630257 6.543331 1.351821
v 0.974547 6.342929 1.357594
v 0.746466 6.343188 1.353499
v 0.862832 6.312998 1.345843
v 0.976414 6.743124 1.351667
v 1.091578 6.543506 1.351567
v 0.661183 6.428192 1.351869
v 1.060228 6.427253 1.349937
v 1.066556 6.395723 1.330013
v 0.649200 6.379817 1.326248
v 0.655437 6.395723 1.313368
v 1.072793 6.379817 1.317133
v 1.072793 6.448103 1.327462
v 1.066556 6.460985 1.311559
v 0.655437 6.460985 1.331822
v 0.649200 6.448103 1.315919
v 1.066556 6.528058 1.311559
v 0.649200 6.515176 1.315919
v 0.655437 6.528058 1.331822
v 1.072793 6.515176 1.327462
v 1.072793 6.591364 1.315919
v 1.066556 6.578483 1.331822
v 0.649200 6.591364 1.327462
v 0.655437 6.578483 1.311559
v 0.649200 6.659650 1.317133
v 0.655437 6.643744 1.330013
v 1.072793 6.659650 1.326248
v 1.066556 6.643744 1.313368
v 0.649200 6.726722 1.317133
v 1.072793 6.726722 1.326248
v 1.066556 6.710815 1.313368
v 0.655437 6.710815 1.330013
v 0.453875 6.721763 1.358234
v 0.453875 6.364755 1.355212
v 0.367075 6.721763 1.355212
v 0.367075 6.364755 1.358234
v 0.439312 6.201629 1.318938
v 0.362640 6.134949 1.886824
v 0.362639 6.200763 1.317075
v 0.361615 6.134083 1.318938
v 0.438288 6.200763 1.886824
v 0.361615 6.201629 1.884960
v 0.438287 6.134949 1.317075
v 0.439312 6.134083 1.884960
v 0.963335 6.134949 1.886824
v 1.038983 6.200763 1.886824
v 0.963335 6.200763 1.317075
v 1.040007 6.201629 1.318938
v 0.962310 6.201629 1.884960
v 0.962311 6.134083 1.318938
v 1.038983 6.134949 1.317075
v 1.040007 6.134083 1.884961
v 3.068736 3.905445 -1.847872
v 3.018309 5.146744 -1.847872
v 3.017253 5.147875 -0.755319
v 3.069792 3.904314 -0.755318
v 3.068736 5.146744 -0.753592
v 3.069793 5.147875 -1.846146
v 3.017253 3.904314 -1.846146
v 3.018309 3.905445 -0.753592
v 3.081823 4.520442 -1.901973
v 3.085315 4.520442 -0.699491
v 3.081823 4.571791 -0.699492
v 3.085315 4.571790 -1.901973
v 3.068736 3.905445 -0.046208
v 3.018309 5.146744 -0.046208
v 3.017253 3.904314 -0.044481
v 3.018309 3.905445 1.048072
v 3.068736 5.146744 1.048072
v 3.017253 5.147875 1.046346
v 3.069793 5.147875 -0.044481
v 3.069792 3.904314 1.046346
v 3.085315 4.571790 -0.100308
v 3.085315 4.520442 1.102173
v 3.081823 4.571790 1.102173
v 3.081823 4.520442 -0.100308
v 3.017253 5.147875 2.747918
v 3.069792 5.147875 1.657091
v 3.069792 3.904314 2.747918
v 3.068736 3.905446 1.655365
v 3.068736 5.146744 2.749644
v 3.018309 5.146744 1.655364
v 3.017253 3.904314 1.657091
v 3.018309 3.905445 2.749644
v 3.081823 4.520442 1.601264
v 3.081823 4.571790 2.803745
v 3.085315 4.520442 2.803745
v 3.085315 4.571790 1.601264
v -2.823394 0.118529 3.120606
v -2.820930 0.115905 3.060441
v -2.835520 5.801454 3.053680
v -2.892969 5.798139 3.074065
v -2.853672 5.802923 3.139467
v -2.894974 0.120689 3.078904
v -2.868771 0.117373 3.133933
v -2.812862 5.800299 3.095182
v 2.811631 0.120689 3.078904
v 2.885675 0.115905 3.060441
v 2.871085 5.801454 3.053680
v 2.852933 5.802923 3.139467
v 2.893744 5.800299 3.095182
v 2.813636 5.798139 3.074065
v 2.837834 0.117373 3.133933
v 2.883211 0.118529 3.120606
v 0.395656 0.450870 3.024512
v -0.395656 0.450870 3.142125
v -0.396182 2.245353 3.141549
v -0.396182 0.450017 3.025088
v 0.396183 2.245353 3.025088
v 0.395656 2.244500 3.142125
v 0.396182 0.450017 3.141549
v -0.395656 2.244500 3.024512
v 0.972118 1.303268 3.000431
v 0.972118 1.792531 3.166205
v 0.629736 1.303267 3.166205
v 0.629039 1.793805 3.165361
v 0.629039 1.301994 3.001275
v 0.972815 1.793805 3.001275
v 0.629736 1.792531 3.000431
v 0.972815 1.301994 3.165361
v -3.113332 6.061244 2.818072
v -3.113604 6.061771 2.818073
v -3.113604 6.402289 2.818073
v -3.113604 6.404080 -2.817133
v -3.113604 6.063562 -2.817133
v 3.113304 6.404671 2.818088
v 3.113604 6.404080 2.818073
v 3.113205 6.403077 -2.817108
v 2.956222 6.063126 2.817502
v 2.953418 6.052732 2.809036
v 2.955854 6.062727 2.818072
v -2.952760 6.046994 2.816911
v -2.939497 6.060373 2.812338
v -2.956222 6.063126 -2.816562
v -2.954770 6.051145 -2.818895
v -2.953418 6.052732 -2.808097
v -2.955854 6.062727 -2.817133
v 3.113205 6.062775 2.818048
v 2.952760 6.046994 -2.815972
v 2.939497 6.060373 -2.811398
v 3.113332 6.061244 -2.817132
v 3.113604 6.061771 -2.817133
v -3.113304 6.404671 -2.817148
vn -0.0000 -0.0000 -1.0000
vn -0.7552 0.5050 -0.4178
vn 0.7549 0.5053 0.4180
vn 0.8968 -0.3472 -0.2741
vn 0.8966 0.3476 0.2744
vn -0.8967 0.3474 -0.2742
vn -0.7550 -0.5053 0.4179
vn -0.4571 0.7297 0.5086
vn -0.5701 0.5827 -0.5792
vn -0.8926 0.4507 -0.0085
vn 0.4569 -0.7298 0.5085
vn 0.5701 -0.5827 -0.5792
vn 0.8925 -0.4510 -0.0085
vn -0.4569 -0.7298 -0.5085
vn -0.5701 -0.5827 0.5792
vn -0.8925 -0.4510 0.0085
vn 0.4571 0.7297 -0.5086
vn 0.5701 0.5827 0.5792
vn 0.8926 0.4507 0.0085
vn 0.7542 0.4083 -0.5143
vn -0.8974 -0.2817 -0.3397
vn -0.7542 0.4083 0.5143
vn 0.8974 -0.2817 0.3397
vn 0.8973 -0.2817 0.3397
vn -0.0000 -0.0000 -0.0000
vn -0.7568 -0.5080 0.4114
vn 0.8949 0.2827 -0.3453
vn 0.7575 -0.4109 0.5073
vn -0.8956 0.3443 -0.2816
vn 0.7541 0.4083 -0.5143
vn -0.7541 0.4083 0.5143
vn 0.8973 0.2818 -0.3398
vn -0.7541 -0.4084 -0.5144
vn -0.8974 0.2816 0.3396
vn 0.7542 -0.4083 0.5143
vn -0.5805 0.5787 0.5729
vn 0.5805 0.5787 -0.5729
vn -0.5743 0.5759 -0.5818
vn 0.5743 -0.5759 -0.5818
vn -0.5805 -0.5787 -0.5729
vn 0.5805 -0.5787 0.5729
vn 0.5743 0.5759 0.5818
vn -0.5743 -0.5759 0.5818
vn -0.5775 0.5775 0.5771
vn -0.5775 -0.5775 -0.5771
vn -0.5772 -0.5772 0.5776
vn -0.5772 0.5772 -0.5776
vn 0.5775 0.5775 -0.5771
vn 0.5772 0.5772 0.5776
vn 0.5775 -0.5775 0.5771
vn 0.5772 -0.5772 -0.5776
vn -0.0004 -0.7081 -0.7061
vn 0.0003 -0.7061 -0.7081
vn 0.0004 -0.7081 0.7061
vn -0.0003 0.7061 -0.7081
vn 0.0004 0.7081 -0.7061
vn 1.0000 -0.0000 -0.0000
vn -1.0000 -0.0000 -0.0000
vn -0.0003 -0.7061 0.7081
vn 0.0003 0.7061 0.7081
vn -0.0004 0.7081 0.7061
vn 0.5539 0.6022 0.5749
vn 0.0013 -0.6841 0.7294
vn 0.6909 -0.2757 0.6683
vn -0.5963 0.5475 0.5871
vn 0.5963 0.5475 -0.5871
vn -0.5539 0.6022 -0.5749
vn -0.6909 -0.2757 -0.6683
vn -0.0356 -0.9994 0.0004
vn 0.0027 -1.0000 -0.0029
vn 0.0077 0.6938 -0.7201
vn 0.5778 0.6036 -0.5494
vn 0.0085 0.0085 -0.9999
vn 0.7425 -0.0031 0.6698
vn 1.0000 0.0028 -0.0000
vn -0.0113 -0.0033 -0.9999
vn -0.0013 -0.6841 -0.7294
vn -0.0027 -1.0000 0.0029
vn 0.5789 0.5766 0.5765
vn 0.0410 -0.0136 0.9991
vn 0.0108 -0.0045 0.9999
vn 0.0140 0.5490 0.8357
vn -0.0509 -0.9987 0.0008
vn -0.9998 -0.0185 0.0012
vn 0.5848 0.5657 0.5813
vn 0.5698 0.5902 -0.5718
vn -0.9998 -0.0012 -0.0182
vn -0.5698 -0.5902 -0.5718
vn -0.5848 -0.5657 0.5813
vn -0.9998 -0.0002 -0.0204
vn -0.9998 0.0200 -0.0012
vn -0.5789 0.5766 -0.5765
vn -0.0410 -0.0136 -0.9991
vn -0.7425 -0.0031 -0.6698
vn -0.0108 -0.0046 -0.9999
vn -0.5778 0.6036 0.5494
vn -0.0140 0.5490 -0.8357
vn 0.0113 -0.0033 0.9999
vn -0.0077 0.6938 0.7201
vn -0.0085 0.0085 0.9999
vn 0.9998 -0.0185 -0.0012
vn -0.5698 0.5902 0.5718
vn -0.5848 0.5657 -0.5813
vn 0.9998 -0.0012 0.0182
vn 0.5698 -0.5902 0.5718
vn 0.5848 -0.5657 -0.5813
vn 0.9998 -0.0002 0.0204
vn 0.0356 -0.9994 -0.0004
vn 0.9998 0.0200 0.0012
vn 0.0509 -0.9987 -0.0008
vn -1.0000 0.0028 -0.0000
vn 0.9998 0.0012 -0.0182
vn 0.9998 0.0002 -0.0204
vn -0.9998 0.0012 0.0182
vn -0.9998 0.0002 0.0204
vn 0.5798 0.5778 -0.5745
vn 0.5798 -0.5778 0.5745
vn 0.5746 -0.5773 -0.5802
vn 0.5746 0.5773 0.5802
vn -0.5798 0.5778 0.5745
vn -0.5746 0.5773 -0.5802
vn -0.5798 -0.5778 -0.5745
vn -0.5746 -0.5773 0.5802
vn -0.6835 0.7298 -0.0168
vn 0.6836 0.7296 0.0168
vn 0.6835 -0.7298 -0.0168
vn -0.6836 -0.7296 0.0168
vn -0.0399 0.8371 0.5456
vn -0.0399 -0.8371 -0.5456
vn 0.0400 -0.8379 0.5444
vn 0.0400 0.8379 -0.5444
vn -0.0398 0.8373 0.5453
vn -0.0398 -0.8373 -0.5453
vn 0.0400 -0.8377 0.5447
vn 0.0400 0.8377 -0.5447
vn -0.0398 0.8376 0.5448
vn 0.0400 0.8374 -0.5451
vn -0.0398 -0.8376 -0.5448
vn 0.0400 -0.8374 0.5451
vn 0.6972 0.0063 0.7169
vn -0.6972 -0.0063 0.7169
vn 0.7134 -0.0000 0.7008
vn -0.7134 -0.0000 0.7007
vn 0.7134 -0.0000 -0.7007
vn -0.0001 1.0000 -0.0005
vn 0.0001 1.0000 0.0006
vn 0.0001 1.0000 0.0005
vn -0.6972 0.0063 -0.7169
vn 0.6972 -0.0063 -0.7169
vn -0.7134 -0.0000 -0.7007
vn -0.0001 1.0000 -0.0006
vn -0.0001 -1.0000 0.0005
vn 0.0001 -1.0000 -0.0005
vn -0.0001 -1.0000 0.0006
vn 0.0001 -1.0000 -0.0006
vn -0.6836 0.7297 -0.0168
vn 0.6836 -0.7297 -0.0168
vn -0.6835 -0.7297 0.0168
vn 0.6835 0.7297 0.0168
vn -0.0398 0.8375 0.5450
vn 0.0400 0.8375 -0.5450
vn -0.0398 -0.8375 -0.5450
vn 0.0400 -0.8375 0.5449
vn 0.0400 -0.8375 0.5450
vn 0.6836 0.7297 0.0168
vn 0.6835 -0.7297 -0.0168
vn -0.0398 0.8379 0.5444
vn 0.0400 0.8371 -0.5456
vn -0.0398 -0.8379 -0.5444
vn 0.0400 -0.8371 0.5456
vn 0.0401 0.8367 -0.5462
vn -0.0398 0.8383 0.5438
vn 0.0401 -0.8367 0.5462
vn -0.0398 -0.8383 -0.5438
vn 0.7134 0.0001 0.7007
vn -0.5749 0.5754 -0.5818
vn 0.5749 -0.5754 -0.5818
vn -0.5798 -0.5795 -0.5727
vn 0.5798 -0.5795 0.5727
vn 0.5798 0.5795 -0.5727
vn 0.5749 0.5754 0.5818
vn -0.5749 -0.5754 0.5818
vn -0.5798 0.5795 0.5727
vn -0.7188 0.6947 -0.0269
vn 0.7188 -0.6947 -0.0268
vn -0.7188 -0.6947 0.0269
vn 0.7188 0.6947 0.0268
vn 0.0399 0.8379 -0.5444
vn 0.0399 -0.8379 0.5444
vn -0.0399 0.8383 0.5438
vn -0.0399 -0.8383 -0.5438
vn 0.6974 0.0067 0.7166
vn -0.6974 -0.0067 0.7166
vn 0.7130 0.0007 0.7011
vn -0.7130 -0.0007 0.7011
vn 0.7130 -0.0007 -0.7011
vn -0.0000 1.0000 -0.0002
vn -0.0000 1.0000 0.0002
vn -0.0000 -1.0000 0.0002
vn -0.0000 -1.0000 -0.0002
vn -0.7130 0.0007 -0.7011
vn 0.6974 -0.0067 -0.7166
vn -0.6974 0.0067 -0.7166
vn -0.5759 0.5742 -0.5820
vn 0.5759 -0.5742 -0.5820
vn -0.5792 -0.5803 -0.5725
vn 0.5792 0.5803 -0.5725
vn -0.5792 0.5803 0.5725
vn 0.5759 0.5742 0.5820
vn -0.5759 -0.5742 0.5820
vn 0.5792 -0.5803 0.5725
vn 0.6645 0.7473 0.0048
vn -0.6645 -0.7473 0.0048
vn 0.6645 -0.7473 -0.0048
vn -0.6645 0.7473 -0.0048
vn -0.0438 0.8395 0.5416
vn 0.0438 0.8399 -0.5409
vn -0.0438 -0.8395 -0.5416
vn 0.0438 -0.8399 0.5409
vn -0.0373 0.8176 0.5746
vn 0.0373 0.8175 -0.5747
vn -0.0373 -0.8176 -0.5746
vn 0.0373 -0.8175 0.5747
vn -0.0001 1.0000 -0.0003
vn 0.0001 1.0000 0.0003
vn -0.0001 1.0000 -0.0004
vn -0.7022 0.0031 -0.7119
vn 0.7105 -0.0003 -0.7037
vn 0.7022 -0.0031 -0.7119
vn -0.7105 0.0003 -0.7037
vn -0.7105 -0.0003 0.7037
vn 0.7105 0.0003 0.7037
vn 0.7022 0.0031 0.7119
vn 0.0001 1.0000 0.0004
vn -0.7022 -0.0031 0.7119
vn -0.0001 -1.0000 0.0003
vn 0.0001 -1.0000 -0.0003
vn -0.0001 -1.0000 0.0004
vn 0.0001 -1.0000 -0.0004
vn -0.0001 -0.0007 -1.0000
vn 0.0001 0.0007 -1.0000
vn -0.0002 -0.0009 -1.0000
vn 0.0002 0.0009 -1.0000
vn -0.7090 0.7052 -0.0036
vn -0.7037 0.7104 -0.0055
vn -0.7090 -0.7052 0.0036
vn 0.7090 0.7052 0.0036
vn 0.7037 -0.7104 -0.0055
vn 0.7090 -0.7052 -0.0036
vn -0.7037 -0.7104 0.0055
vn 0.0001 -0.0007 1.0000
vn -0.0001 0.0007 1.0000
vn 0.0002 -0.0009 1.0000
vn -0.0002 0.0009 1.0000
vn 0.7037 0.7104 0.0055
vn 0.5789 0.5700 0.5831
vn -0.5789 -0.5700 0.5831
vn 0.5782 -0.5813 0.5725
vn -0.5782 0.5813 0.5725
vn 0.5782 0.5813 -0.5725
vn 0.5789 -0.5700 -0.5831
vn -0.5782 -0.5813 -0.5725
vn -0.5789 0.5700 -0.5831
vn -0.5704 0.5785 -0.5831
vn 0.5704 -0.5785 -0.5831
vn -0.5812 -0.5784 -0.5724
vn 0.5812 -0.5784 0.5724
vn 0.5812 0.5784 -0.5724
vn -0.5812 0.5784 0.5724
vn -0.5704 -0.5785 0.5831
vn 0.5704 0.5785 0.5831
vn -0.6965 0.0078 -0.7175
vn 0.6965 -0.0078 -0.7175
vn -0.7150 0.0044 -0.6991
vn 0.7150 -0.0044 -0.6991
vn 0.7150 0.0044 0.6991
vn 0.6965 0.0078 0.7175
vn -0.7150 -0.0044 0.6991
vn -0.6965 -0.0078 0.7175
vn -0.5760 0.5768 -0.5792
vn 0.5760 -0.5768 -0.5792
vn -0.5784 -0.5782 -0.5754
vn 0.5784 0.5782 -0.5754
vn -0.5784 0.5782 0.5754
vn 0.5784 -0.5782 0.5754
vn 0.5760 0.5768 0.5792
vn -0.5760 -0.5768 0.5792
vn 0.5217 -0.8368 0.1659
vn 0.9895 0.1440 -0.0085
vn 0.8172 0.5764 -0.0038
vn 0.9248 -0.3739 -0.0698
vn 0.4524 0.8918 -0.0003
vn -0.0181 0.9998 0.0001
vn -0.4842 0.8749 -0.0001
vn -0.8377 0.5461 0.0003
vn -0.9959 0.0906 0.0038
vn -0.9290 -0.3701 0.0085
vn -0.6140 -0.7862 0.0698
vn -0.0334 -0.9856 -0.1659
vn 0.5926 0.8053 0.0189
vn -0.5926 0.8053 -0.0189
vn -0.5926 -0.8053 0.0190
vn 0.5926 -0.8053 -0.0189
vn -0.5724 0.5735 -0.5861
vn 0.5724 -0.5735 -0.5861
vn -0.5865 -0.5849 -0.5603
vn 0.5865 -0.5849 0.5603
vn 0.5865 0.5849 -0.5603
vn -0.5865 0.5849 0.5603
vn 0.5724 0.5735 0.5861
vn -0.5724 -0.5735 0.5861
vn 0.5217 -0.8369 0.1659
vn -0.4843 0.8749 -0.0001
vn -0.8377 0.5462 0.0003
vn -0.9959 0.0905 0.0038
vn -0.5926 -0.8053 0.0189
vn -0.5736 0.5690 -0.5892
vn 0.5736 -0.5691 -0.5892
vn -0.5805 -0.5860 -0.5654
vn 0.5805 -0.5860 0.5654
vn 0.5805 0.5860 -0.5654
vn -0.5805 0.5860 0.5654
vn 0.5736 0.5690 0.5892
vn -0.5736 -0.5690 0.5892
vn -0.0395 0.5457 0.8370
vn 0.0395 0.5457 -0.8370
vn -0.0398 -0.5460 -0.8368
vn 0.0398 -0.5460 0.8368
vn 0.5736 -0.5690 -0.5892
vn 0.0398 0.5458 -0.8370
vn 0.0396 -0.5460 0.8369
vn -0.0395 -0.5460 -0.8369
vn -0.0398 0.5457 0.8370
vn 0.0398 0.5457 -0.8370
vn 0.6298 -0.5958 0.4984
vn -0.3282 -0.6123 0.7193
vn -0.7589 -0.5456 -0.3555
vn 0.5058 -0.5946 -0.6250
vn 0.7978 0.5958 0.0930
vn -0.0843 0.5946 0.7996
vn -0.7880 0.5456 -0.2852
vn 0.2765 0.6123 -0.7407
vn -0.5764 0.5750 -0.5807
vn 0.5764 -0.5750 -0.5807
vn -0.5787 -0.5793 -0.5740
vn 0.5787 -0.5793 0.5740
vn 0.5787 0.5793 -0.5740
vn 0.5764 0.5750 0.5807
vn -0.5764 -0.5750 0.5807
vn -0.5787 0.5793 0.5740
vn -0.5765 0.5742 -0.5813
vn 0.5765 -0.5742 -0.5813
vn -0.5789 -0.5796 -0.5736
vn 0.5789 -0.5796 0.5736
vn 0.5789 0.5796 -0.5736
vn 0.5765 0.5742 0.5813
vn -0.5765 -0.5742 0.5813
vn -0.5789 0.5796 0.5736
vn 0.7551 -0.5051 -0.4178
vn -0.8965 -0.3477 0.2745
vn -0.8968 0.3473 -0.2742
vn -0.7550 -0.5053 0.4180
vn 0.7551 0.5052 0.4179
vn 0.8967 -0.3475 -0.2743
vn -0.7551 0.5052 -0.4179
vn -0.8967 -0.3475 0.2742
vn -0.8968 0.3473 -0.2741
vn -0.9908 -0.1352 0.0029
vn -0.9660 -0.2583 0.0027
vn 0.8830 0.0034 -0.4694
vn -0.0119 -0.0106 -0.9999
vn 0.9908 -0.1352 -0.0029
vn 0.9660 -0.2583 -0.0027
vn 0.0119 -0.0106 0.9999
vn -0.8830 0.0034 0.4694
vt 0.090229 0.676041
vt 0.090229 0.799391
vt 0.071038 0.799420
vt 0.071038 0.676069
vt 0.373054 0.991269
vt 0.372879 0.976984
vt 0.373304 0.976984
vt 0.391267 0.976663
vt 0.391258 0.991194
vt 0.391127 0.990948
vt 0.477372 0.002321
vt 0.471847 0.002142
vt 0.477372 0.002000
vt 0.207771 0.457735
vt 0.213251 0.457993
vt 0.207771 0.458055
vt 0.716552 0.207596
vt 0.716294 0.213078
vt 0.716231 0.207597
vt 0.677456 0.222732
vt 0.682937 0.222990
vt 0.677456 0.223052
vt 0.377676 0.976984
vt 0.377872 0.991269
vt 0.377408 0.991269
vt 0.268884 0.976809
vt 0.269287 0.991269
vt 0.268724 0.991269
vt 0.400495 0.990948
vt 0.400316 0.976663
vt 0.400749 0.976664
vt 0.268398 0.976984
vt 0.327432 0.976984
vt 0.327628 0.991269
vt 0.327164 0.991269
vt 0.312881 0.976809
vt 0.313283 0.991269
vt 0.312720 0.991269
vt 0.312395 0.976984
vt 0.359276 0.976984
vt 0.359601 0.991269
vt 0.359138 0.991269
vt 0.273963 0.991269
vt 0.273533 0.976738
vt 0.273980 0.976985
vt 0.322422 0.976985
vt 0.323060 0.991269
vt 0.322368 0.991269
vt 0.414135 0.991194
vt 0.414043 0.976663
vt 0.414475 0.976664
vt 0.332000 0.976984
vt 0.332196 0.991269
vt 0.331732 0.991269
vt 0.278661 0.976809
vt 0.279064 0.991269
vt 0.278501 0.991269
vt 0.418797 0.990948
vt 0.418618 0.976663
vt 0.419051 0.976664
vt 0.278176 0.976984
vt 0.336567 0.976984
vt 0.336763 0.991269
vt 0.336300 0.991269
vt 0.298215 0.976809
vt 0.298618 0.991269
vt 0.298055 0.991269
vt 0.423372 0.990948
vt 0.423193 0.976663
vt 0.423626 0.976664
vt 0.297729 0.976984
vt 0.341006 0.976984
vt 0.341331 0.991269
vt 0.340867 0.991269
vt 0.293534 0.976985
vt 0.293729 0.991269
vt 0.293037 0.991269
vt 0.427859 0.991124
vt 0.427769 0.976663
vt 0.428202 0.976664
vt 0.293087 0.976738
vt 0.237003 0.232893
vt 0.467365 0.002110
vt 0.467479 0.232792
vt 0.467686 0.237003
vt 0.467363 0.463095
vt 0.462576 0.463013
vt 0.462997 0.237004
vt 0.227992 0.467685
vt 0.227894 0.237211
vt 0.232792 0.237242
vt 0.476619 0.227052
vt 0.472007 0.453978
vt 0.471930 0.227052
vt 0.476794 0.453981
vt 0.237003 0.002152
vt 0.223556 0.237004
vt 0.218661 0.467572
vt 0.218656 0.237004
vt 0.232683 0.232893
vt 0.002321 0.002110
vt 0.232791 0.002207
vt 0.223459 0.467493
vt 0.232834 0.467685
vt 0.002212 0.232796
vt 0.677633 0.458531
vt 0.879656 0.667683
vt 0.677633 0.667558
vt 0.879693 0.458425
vt 0.673632 0.458413
vt 0.471687 0.671229
vt 0.471687 0.458368
vt 0.458233 0.237007
vt 0.458153 0.449706
vt 0.249060 0.449808
vt 0.673631 0.671274
vt 0.249050 0.237019
vt 0.451389 0.454138
vt 0.249284 0.666956
vt 0.249247 0.454154
vt 0.471686 0.675831
vt 0.670643 0.675659
vt 0.670604 0.884917
vt 0.471686 0.884859
vt 0.451426 0.666939
vt 0.002041 0.462176
vt 0.210593 0.462568
vt 0.210571 0.671821
vt 0.002000 0.671414
vt 0.803072 0.430476
vt 0.764127 0.430539
vt 0.764125 0.227268
vt 0.721937 0.227052
vt 0.760122 0.436050
vt 0.721937 0.435993
vt 0.760122 0.227109
vt 0.249279 0.671381
vt 0.449296 0.880692
vt 0.249198 0.880680
vt 0.514530 0.227205
vt 0.717787 0.227282
vt 0.717707 0.436581
vt 0.514450 0.436504
vt 0.803071 0.227205
vt 0.720558 0.002221
vt 0.759507 0.211259
vt 0.720561 0.211258
vt 0.759503 0.002160
vt 0.449376 0.671393
vt 0.780303 0.002002
vt 0.819245 0.002000
vt 0.819251 0.205057
vt 0.780306 0.205119
vt 0.244902 0.237328
vt 0.241100 0.446354
vt 0.241100 0.237003
vt 0.244753 0.446636
vt 0.846137 0.198656
vt 0.846137 0.002315
vt 0.849707 0.002024
vt 0.877084 0.671931
vt 0.877087 0.881398
vt 0.677639 0.881517
vt 0.831554 0.426815
vt 0.831554 0.227373
vt 0.835124 0.227053
vt 0.677637 0.672050
vt 0.207763 0.237386
vt 0.207574 0.242623
vt 0.007789 0.242690
vt 0.207743 0.242555
vt 0.007713 0.452505
vt 0.008001 0.242697
vt 0.575450 0.976966
vt 0.580988 0.976993
vt 0.580836 0.989080
vt 0.852266 0.227378
vt 0.852291 0.423744
vt 0.839818 0.423740
vt 0.575430 0.989074
vt 0.466155 0.467590
vt 0.462355 0.672507
vt 0.462355 0.467243
vt 0.207457 0.452363
vt 0.466004 0.672835
vt 0.585068 0.977050
vt 0.590561 0.989154
vt 0.585074 0.989132
vt 0.590582 0.977048
vt 0.839875 0.227106
vt 0.677456 0.002384
vt 0.677338 0.007459
vt 0.477646 0.007599
vt 0.007688 0.237325
vt 0.703878 0.207376
vt 0.703830 0.007762
vt 0.716435 0.007519
vt 0.477371 0.222668
vt 0.471802 0.222732
vt 0.704079 0.007514
vt 0.716306 0.002054
vt 0.716473 0.007513
vt 0.704079 0.002006
vt 0.716482 0.207595
vt 0.213255 0.237165
vt 0.207772 0.237388
vt 0.594582 0.977043
vt 0.599968 0.989158
vt 0.594588 0.989129
vt 0.599989 0.977048
vt 0.829664 0.201763
vt 0.829721 0.002050
vt 0.842112 0.002296
vt 0.677182 0.217453
vt 0.477372 0.222668
vt 0.477490 0.217593
vt 0.565744 0.989077
vt 0.565763 0.976972
vt 0.571258 0.989074
vt 0.571369 0.976987
vt 0.763627 0.204141
vt 0.763579 0.007625
vt 0.776184 0.007609
vt 0.682822 0.002321
vt 0.677457 0.002384
vt 0.763827 0.007424
vt 0.776054 0.002033
vt 0.776222 0.007132
vt 0.763827 0.002002
vt 0.207668 0.452369
vt 0.007695 0.457674
vt 0.007883 0.452437
vt 0.776231 0.204110
vt 0.207770 0.457735
vt 0.007687 0.237325
vt 0.007686 0.457672
vt 0.002202 0.457894
vt 0.842137 0.201763
vt 0.763753 0.209752
vt 0.763586 0.204604
vt 0.775980 0.204401
vt 0.775980 0.209824
vt 0.699758 0.002087
vt 0.687284 0.218628
vt 0.687658 0.002062
vt 0.699384 0.218657
vt 0.704004 0.213057
vt 0.703837 0.207852
vt 0.002162 0.237146
vt 0.510037 0.227194
vt 0.497826 0.448006
vt 0.497877 0.227124
vt 0.510060 0.447942
vt 0.918895 0.416975
vt 0.973196 0.412123
vt 0.972984 0.416976
vt 0.918673 0.412096
vt 0.441512 0.923157
vt 0.441541 0.966696
vt 0.436444 0.966730
vt 0.918616 0.161801
vt 0.918744 0.119158
vt 0.973267 0.119189
vt 0.436415 0.923191
vt 0.973285 0.161796
vt 0.469215 0.923158
vt 0.469244 0.966696
vt 0.464147 0.966730
vt 0.918616 0.256810
vt 0.973249 0.213434
vt 0.973270 0.256805
vt 0.918595 0.213438
vt 0.464118 0.923192
vt 0.918682 0.380226
vt 0.918673 0.375122
vt 0.973196 0.375144
vt 0.973205 0.380247
vt 0.918701 0.778362
vt 0.918782 0.740530
vt 0.968169 0.740485
vt 0.968166 0.778372
vt 0.918703 0.821217
vt 0.918726 0.782644
vt 0.968190 0.782731
vt 0.968155 0.821216
vt 0.918786 0.463714
vt 0.970603 0.462330
vt 0.970660 0.463709
vt 0.918785 0.462310
vt 0.918786 0.534023
vt 0.918785 0.532622
vt 0.970603 0.532645
vt 0.970661 0.534009
vt 0.918786 0.475623
vt 0.970603 0.474239
vt 0.970660 0.475618
vt 0.918785 0.474219
vt 0.918786 0.551017
vt 0.970603 0.549639
vt 0.970661 0.551004
vt 0.918785 0.549616
vt 0.918786 0.481578
vt 0.918786 0.480174
vt 0.970603 0.480194
vt 0.970660 0.481573
vt 0.918786 0.556682
vt 0.918785 0.555281
vt 0.970603 0.555304
vt 0.970660 0.556668
vt 0.107023 0.922950
vt 0.104231 0.969493
vt 0.104228 0.922952
vt 0.107026 0.969491
vt 0.735707 0.976663
vt 0.735793 0.984586
vt 0.733059 0.984557
vt 0.033737 0.923151
vt 0.033771 0.969898
vt 0.025566 0.969935
vt 0.382676 0.922962
vt 0.379909 0.968700
vt 0.379879 0.922967
vt 0.382643 0.968736
vt 0.683672 0.976793
vt 0.683875 0.985047
vt 0.681141 0.985020
vt 0.025532 0.923187
vt 0.681360 0.976755
vt 0.046124 0.923151
vt 0.037953 0.969935
vt 0.037919 0.923188
vt 0.046158 0.969899
vt 0.733128 0.976663
vt 0.918616 0.067815
vt 0.973267 0.025203
vt 0.973285 0.067810
vt 0.450747 0.923158
vt 0.450775 0.966696
vt 0.445678 0.966730
vt 0.918744 0.025171
vt 0.918895 0.425958
vt 0.973195 0.421105
vt 0.972984 0.425958
vt 0.918673 0.421078
vt 0.918616 0.304311
vt 0.973249 0.260934
vt 0.973270 0.304306
vt 0.445649 0.923192
vt 0.423043 0.923157
vt 0.423072 0.966696
vt 0.417975 0.966730
vt 0.918595 0.260939
vt 0.918682 0.389557
vt 0.973196 0.384475
vt 0.973205 0.389578
vt 0.918673 0.384453
vt 0.417946 0.923191
vt 0.918701 0.736242
vt 0.968168 0.698365
vt 0.968166 0.736252
vt 0.918782 0.698410
vt 0.918702 0.864032
vt 0.968190 0.825547
vt 0.968155 0.864032
vt 0.918726 0.825460
vt 0.918786 0.487532
vt 0.918786 0.486128
vt 0.970603 0.486148
vt 0.918786 0.511364
vt 0.970603 0.509986
vt 0.970661 0.511350
vt 0.918785 0.509963
vt 0.970660 0.487528
vt 0.918786 0.517029
vt 0.970603 0.515651
vt 0.970660 0.517015
vt 0.918785 0.515627
vt 0.918786 0.493487
vt 0.918786 0.492083
vt 0.970603 0.492103
vt 0.970661 0.493482
vt 0.918786 0.499441
vt 0.918786 0.498037
vt 0.970603 0.498057
vt 0.970661 0.499437
vt 0.918786 0.539688
vt 0.918785 0.538287
vt 0.970603 0.538310
vt 0.970661 0.539674
vt 0.389519 0.922963
vt 0.386753 0.968700
vt 0.386723 0.922967
vt 0.389487 0.968736
vt 0.697358 0.976794
vt 0.697562 0.985047
vt 0.694828 0.985020
vt 0.058511 0.923151
vt 0.050340 0.969935
vt 0.050306 0.923187
vt 0.095673 0.923151
vt 0.095707 0.969899
vt 0.087502 0.969935
vt 0.756236 0.976663
vt 0.753589 0.984557
vt 0.753657 0.976663
vt 0.695046 0.976755
vt 0.058545 0.969898
vt 0.113866 0.922950
vt 0.113868 0.969491
vt 0.111073 0.969493
vt 0.087468 0.923188
vt 0.111070 0.922952
vt 0.756322 0.984586
vt 0.918616 0.209310
vt 0.973249 0.165933
vt 0.973270 0.209304
vt 0.459981 0.923158
vt 0.454913 0.966730
vt 0.454884 0.923192
vt 0.918595 0.165938
vt 0.918682 0.398887
vt 0.973196 0.393805
vt 0.973205 0.398909
vt 0.918673 0.393784
vt 0.918616 0.114808
vt 0.973266 0.072196
vt 0.973285 0.114803
vt 0.460009 0.966696
vt 0.432278 0.923157
vt 0.427209 0.966730
vt 0.427181 0.923191
vt 0.918744 0.072164
vt 0.918895 0.407994
vt 0.973196 0.403141
vt 0.972984 0.407994
vt 0.918673 0.403114
vt 0.432307 0.966696
vt 0.918701 0.694123
vt 0.918782 0.656291
vt 0.968169 0.656246
vt 0.968166 0.694133
vt 0.918702 0.906847
vt 0.968190 0.868362
vt 0.968155 0.906847
vt 0.918726 0.868275
vt 0.918786 0.505396
vt 0.918785 0.503992
vt 0.970603 0.504012
vt 0.918786 0.545352
vt 0.970603 0.543974
vt 0.970661 0.545339
vt 0.918785 0.543951
vt 0.970660 0.505391
vt 0.918786 0.457759
vt 0.918785 0.456355
vt 0.970603 0.456375
vt 0.970660 0.457754
vt 0.918786 0.522693
vt 0.970603 0.521315
vt 0.970661 0.522680
vt 0.918785 0.521292
vt 0.918786 0.528358
vt 0.918785 0.526957
vt 0.970603 0.526980
vt 0.918786 0.469668
vt 0.970603 0.468284
vt 0.970660 0.469664
vt 0.970661 0.528345
vt 0.918785 0.468264
vt 0.070898 0.923151
vt 0.062727 0.969935
vt 0.062693 0.923187
vt 0.396362 0.922962
vt 0.396330 0.968736
vt 0.393596 0.968700
vt 0.742550 0.976663
vt 0.739903 0.984557
vt 0.739971 0.976663
vt 0.742636 0.984586
vt 0.070932 0.969898
vt 0.393566 0.922966
vt 0.083286 0.923151
vt 0.083320 0.969899
vt 0.075114 0.969935
vt 0.120708 0.922950
vt 0.120711 0.969491
vt 0.117916 0.969493
vt 0.117913 0.922952
vt 0.704201 0.976793
vt 0.701671 0.985020
vt 0.701889 0.976755
vt 0.704405 0.985047
vt 0.075080 0.923188
vt 0.914364 0.227053
vt 0.856504 0.290660
vt 0.856686 0.227052
vt 0.861447 0.364619
vt 0.861416 0.429462
vt 0.856516 0.429464
vt 0.914374 0.290666
vt 0.918895 0.020891
vt 0.976658 0.016141
vt 0.976538 0.020891
vt 0.911749 0.080615
vt 0.854098 0.145548
vt 0.854087 0.080614
vt 0.911852 0.145451
vt 0.918788 0.016124
vt 0.856515 0.360073
vt 0.856498 0.295119
vt 0.861398 0.295117
vt 0.856498 0.364511
vt 0.918894 0.011900
vt 0.976658 0.007113
vt 0.976691 0.011899
vt 0.918788 0.007095
vt 0.861415 0.360071
vt 0.147321 0.859942
vt 0.094541 0.918767
vt 0.094614 0.859942
vt 0.147322 0.918749
vt 0.211423 0.857927
vt 0.158744 0.917883
vt 0.158731 0.857927
vt 0.211511 0.917851
vt 0.918786 0.315953
vt 0.918786 0.314549
vt 0.974157 0.314569
vt 0.918786 0.339205
vt 0.974157 0.337827
vt 0.974214 0.339191
vt 0.918785 0.337804
vt 0.974214 0.315948
vt 0.918786 0.321907
vt 0.974157 0.320523
vt 0.974214 0.321903
vt 0.918786 0.333540
vt 0.918785 0.332139
vt 0.974157 0.332162
vt 0.918785 0.320503
vt 0.974214 0.333527
vt 0.918786 0.327875
vt 0.918785 0.326474
vt 0.974157 0.326497
vt 0.974214 0.327862
vt 0.918786 0.309998
vt 0.918785 0.308594
vt 0.974157 0.308614
vt 0.974214 0.309994
vt 0.153869 0.776030
vt 0.151055 0.843914
vt 0.151053 0.776032
vt 0.153871 0.843913
vt 0.749393 0.976663
vt 0.749490 0.984604
vt 0.746738 0.984574
vt 0.223561 0.761750
vt 0.223599 0.829825
vt 0.215353 0.829861
vt 0.240360 0.771311
vt 0.232151 0.839422
vt 0.232113 0.771347
vt 0.687976 0.985039
vt 0.690720 0.976817
vt 0.690729 0.985067
vt 0.746814 0.976663
vt 0.240398 0.839386
vt 0.687967 0.976790
vt 0.856910 0.149710
vt 0.854122 0.216366
vt 0.854093 0.149713
vt 0.856875 0.216401
vt 0.215315 0.761786
vt 0.158762 0.774161
vt 0.210579 0.853670
vt 0.158772 0.853606
vt 0.210609 0.774197
vt 0.462518 0.677229
vt 0.467224 0.677239
vt 0.467114 0.756618
vt 0.918762 0.430174
vt 0.971775 0.434612
vt 0.918661 0.434612
vt 0.094249 0.776274
vt 0.147021 0.855678
vt 0.094253 0.855696
vt 0.147017 0.776255
vt 0.219046 0.677869
vt 0.223553 0.677900
vt 0.223489 0.757165
vt 0.971795 0.430279
vt 0.918574 0.447800
vt 0.971454 0.452134
vt 0.918574 0.452134
vt 0.462519 0.756590
vt 0.971474 0.447800
vt 0.219046 0.757190
vt 0.854132 0.002144
vt 0.901526 0.076476
vt 0.854126 0.076452
vt 0.901532 0.002170
vt 0.036605 0.808123
vt 0.083158 0.808198
vt 0.083210 0.882462
vt 0.036598 0.882451
vt 0.179822 0.676255
vt 0.181055 0.676254
vt 0.181040 0.750457
vt 0.179825 0.750513
vt 0.239004 0.692653
vt 0.240218 0.766855
vt 0.239015 0.766912
vt 0.240237 0.692651
vt 0.502024 0.976914
vt 0.504203 0.976946
vt 0.504172 0.990629
vt 0.514733 0.976914
vt 0.516848 0.990628
vt 0.514699 0.990597
vt 0.516875 0.976946
vt 0.501993 0.990597
vt 0.508374 0.976914
vt 0.510553 0.976946
vt 0.510522 0.990629
vt 0.508343 0.990597
vt 0.521046 0.976914
vt 0.523188 0.976946
vt 0.523161 0.990628
vt 0.521012 0.990597
vt 0.115268 0.676277
vt 0.094338 0.771762
vt 0.094304 0.676316
vt 0.210781 0.676101
vt 0.210758 0.769615
vt 0.205181 0.769583
vt 0.205157 0.676111
vt 0.007446 0.976802
vt 0.007633 0.997825
vt 0.002056 0.997799
vt 0.035444 0.976663
vt 0.029929 0.997141
vt 0.029968 0.976663
vt 0.035506 0.997171
vt 0.115302 0.771722
vt 0.002265 0.976762
vt 0.140416 0.676277
vt 0.119486 0.771762
vt 0.119452 0.676317
vt 0.140450 0.771722
vt 0.150177 0.676087
vt 0.144559 0.771309
vt 0.144555 0.676089
vt 0.150180 0.771306
vt 0.066956 0.676289
vt 0.045930 0.801237
vt 0.045950 0.676295
vt 0.066935 0.801232
vt 0.011837 0.976790
vt 0.016660 0.976763
vt 0.016670 0.997862
vt 0.027212 0.803622
vt 0.032489 0.676400
vt 0.032502 0.803619
vt 0.041820 0.676400
vt 0.041833 0.803619
vt 0.036543 0.803623
vt 0.021005 0.976790
vt 0.025762 0.997860
vt 0.021019 0.997888
vt 0.011848 0.997888
vt 0.036530 0.676404
vt 0.023103 0.676309
vt 0.002083 0.803715
vt 0.002104 0.676284
vt 0.023083 0.803740
vt 0.025756 0.976762
vt 0.027199 0.676403
vt 0.629097 0.923176
vt 0.636689 0.955333
vt 0.629118 0.955360
vt 0.636667 0.923148
vt 0.648268 0.922910
vt 0.651681 0.922909
vt 0.651681 0.954902
vt 0.763795 0.976792
vt 0.763806 0.984383
vt 0.760419 0.984358
vt 0.648268 0.954904
vt 0.771261 0.976792
vt 0.771273 0.984383
vt 0.767886 0.984359
vt 0.767874 0.976767
vt 0.760408 0.976767
vt 0.640802 0.922909
vt 0.644268 0.954902
vt 0.640802 0.954902
vt 0.644268 0.922909
vt 0.617431 0.923174
vt 0.624855 0.923156
vt 0.624877 0.955351
vt 0.617456 0.955368
vt 0.878908 0.923145
vt 0.870985 0.948432
vt 0.871005 0.923132
vt 0.886480 0.922909
vt 0.886480 0.948494
vt 0.883033 0.948494
vt 0.878889 0.948447
vt 0.715921 0.976799
vt 0.719233 0.984704
vt 0.715917 0.984729
vt 0.708497 0.976799
vt 0.711869 0.976776
vt 0.711860 0.984706
vt 0.893927 0.922909
vt 0.890480 0.948494
vt 0.890480 0.922909
vt 0.708488 0.984729
vt 0.883033 0.922909
vt 0.719245 0.976774
vt 0.866735 0.923169
vt 0.858814 0.948948
vt 0.858833 0.923143
vt 0.866716 0.948973
vt 0.893927 0.948494
vt 0.175479 0.676091
vt 0.173042 0.766097
vt 0.173026 0.676094
vt 0.168892 0.676265
vt 0.168930 0.768177
vt 0.154326 0.768219
vt 0.175464 0.766138
vt 0.439190 0.976663
vt 0.436811 0.990869
vt 0.436834 0.976663
vt 0.201011 0.676265
vt 0.201048 0.768177
vt 0.186445 0.768219
vt 0.458112 0.659830
vt 0.458113 0.751510
vt 0.455661 0.751512
vt 0.264177 0.976802
vt 0.261945 0.991416
vt 0.262165 0.976760
vt 0.264367 0.991445
vt 0.186407 0.676307
vt 0.455659 0.659832
vt 0.439233 0.990903
vt 0.154289 0.676307
vt 0.811100 0.923148
vt 0.788391 0.952279
vt 0.788392 0.923161
vt 0.811100 0.952275
vt 0.917408 0.922909
vt 0.932890 0.922909
vt 0.932890 0.945277
vt 0.745014 0.923155
vt 0.729468 0.952873
vt 0.729464 0.923184
vt 0.936890 0.922914
vt 0.952131 0.945277
vt 0.936890 0.945282
vt 0.952131 0.922909
vt 0.745018 0.952844
vt 0.764595 0.923156
vt 0.764600 0.952844
vt 0.749050 0.952874
vt 0.678578 0.923174
vt 0.655874 0.952852
vt 0.655876 0.923149
vt 0.749046 0.923185
vt 0.678577 0.952877
vt 0.917408 0.945277
vt 0.193812 0.992309
vt 0.186198 0.990406
vt 0.183893 0.986703
vt 0.189556 0.992403
vt 0.183879 0.982480
vt 0.185993 0.978839
vt 0.189636 0.976710
vt 0.193854 0.976720
vt 0.197502 0.978840
vt 0.199474 0.982728
vt 0.199460 0.986853
vt 0.197539 0.990272
vt 0.248065 0.992310
vt 0.242509 0.982755
vt 0.244506 0.978867
vt 0.242509 0.986877
vt 0.248093 0.976752
vt 0.252238 0.976708
vt 0.244215 0.989873
vt 0.255810 0.978804
vt 0.257857 0.982449
vt 0.257808 0.986673
vt 0.255514 0.990357
vt 0.252252 0.992394
vt 0.617998 0.976881
vt 0.620688 0.976793
vt 0.620752 0.989241
vt 0.618061 0.989327
vt 0.604121 0.976879
vt 0.606821 0.989247
vt 0.604188 0.989330
vt 0.606765 0.976796
vt 0.843349 0.976664
vt 0.841266 0.979053
vt 0.841458 0.976663
vt 0.056014 0.996980
vt 0.053363 0.997024
vt 0.053321 0.976959
vt 0.843575 0.979102
vt 0.127750 0.976664
vt 0.125401 0.996328
vt 0.125358 0.976663
vt 0.067007 0.976959
vt 0.069658 0.976915
vt 0.069700 0.996980
vt 0.882292 0.976663
vt 0.882292 0.978826
vt 0.880402 0.978826
vt 0.102141 0.976956
vt 0.099836 0.996981
vt 0.099863 0.976915
vt 0.102113 0.997023
vt 0.067049 0.997024
vt 0.055972 0.976916
vt 0.880402 0.976663
vt 0.127679 0.996377
vt 0.975447 0.923205
vt 0.978140 0.943225
vt 0.975489 0.943269
vt 0.830374 0.976664
vt 0.830599 0.979102
vt 0.828290 0.979053
vt 0.828483 0.976663
vt 0.095749 0.976956
vt 0.095722 0.997023
vt 0.093444 0.996981
vt 0.114967 0.976664
vt 0.112619 0.996328
vt 0.112576 0.976663
vt 0.114896 0.996377
vt 0.978098 0.923161
vt 0.870512 0.976663
vt 0.868622 0.978826
vt 0.868622 0.976663
vt 0.870512 0.978826
vt 0.978141 0.967838
vt 0.975489 0.967882
vt 0.975447 0.947818
vt 0.978098 0.947774
vt 0.093471 0.976914
vt 0.725431 0.923155
vt 0.709886 0.952873
vt 0.709881 0.923185
vt 0.838200 0.923148
vt 0.838199 0.952275
vt 0.815490 0.952279
vt 0.956131 0.922914
vt 0.971372 0.945277
vt 0.956131 0.945282
vt 0.971372 0.922909
vt 0.725436 0.952844
vt 0.705671 0.923174
vt 0.682968 0.952852
vt 0.682969 0.923149
vt 0.705671 0.952877
vt 0.897927 0.922909
vt 0.913408 0.922909
vt 0.913408 0.945277
vt 0.897927 0.945277
vt 0.784177 0.923156
vt 0.768632 0.952873
vt 0.768628 0.923185
vt 0.815491 0.923161
vt 0.784182 0.952844
vt 0.213445 0.992309
vt 0.203527 0.986703
vt 0.203513 0.982480
vt 0.205832 0.990406
vt 0.205627 0.978839
vt 0.209270 0.976710
vt 0.213488 0.976720
vt 0.217135 0.978840
vt 0.219108 0.982728
vt 0.219094 0.986853
vt 0.217173 0.990272
vt 0.209190 0.992403
vt 0.228664 0.992310
vt 0.223108 0.986877
vt 0.223108 0.982755
vt 0.224814 0.989873
vt 0.225105 0.978867
vt 0.228692 0.976752
vt 0.232836 0.976708
vt 0.236409 0.978804
vt 0.238455 0.982449
vt 0.238407 0.986673
vt 0.236113 0.990357
vt 0.232851 0.992394
vt 0.611064 0.976879
vt 0.613708 0.976796
vt 0.613764 0.989247
vt 0.611131 0.989330
vt 0.624999 0.976881
vt 0.627690 0.976793
vt 0.627753 0.989241
vt 0.625062 0.989327
vt 0.039634 0.976959
vt 0.042327 0.996980
vt 0.039676 0.997024
vt 0.836861 0.976664
vt 0.837087 0.979102
vt 0.834778 0.979053
vt 0.121358 0.976664
vt 0.119010 0.996328
vt 0.118967 0.976663
vt 0.121287 0.996377
vt 0.042286 0.976915
vt 0.876402 0.976663
vt 0.874512 0.978826
vt 0.874512 0.976663
vt 0.076543 0.996980
vt 0.073850 0.976959
vt 0.076501 0.976916
vt 0.876402 0.978826
vt 0.089358 0.976956
vt 0.087052 0.996981
vt 0.087079 0.976914
vt 0.089330 0.997023
vt 0.834971 0.976663
vt 0.073892 0.997024
vt 0.888182 0.976663
vt 0.886292 0.978826
vt 0.886292 0.976663
vt 0.062857 0.996980
vt 0.060164 0.976959
vt 0.062815 0.976916
vt 0.888182 0.978826
vt 0.082966 0.976956
vt 0.080661 0.996981
vt 0.080688 0.976914
vt 0.108575 0.976664
vt 0.108504 0.996377
vt 0.106227 0.996328
vt 0.046477 0.976959
vt 0.049129 0.976915
vt 0.049171 0.996980
vt 0.823886 0.976664
vt 0.821803 0.979053
vt 0.821995 0.976663
vt 0.824111 0.979102
vt 0.082939 0.997023
vt 0.046519 0.997024
vt 0.106184 0.976663
vt 0.060206 0.997024
vt 0.400387 0.923230
vt 0.401983 0.967109
vt 0.400387 0.967011
vt 0.558578 0.961768
vt 0.556963 0.961800
vt 0.556963 0.923027
vt 0.402077 0.923242
vt 0.253146 0.923135
vt 0.291111 0.967122
vt 0.253156 0.967178
vt 0.124741 0.923123
vt 0.163332 0.923132
vt 0.163293 0.967122
vt 0.593271 0.922909
vt 0.594762 0.961563
vt 0.593172 0.961486
vt 0.594762 0.922909
vt 0.473299 0.923031
vt 0.474914 0.923121
vt 0.474991 0.966990
vt 0.124745 0.967166
vt 0.291154 0.923132
vt 0.473298 0.967006
vt 0.558553 0.923104
vt 0.496847 0.965380
vt 0.496741 0.923114
vt 0.498063 0.923132
vt 0.498061 0.965350
vt 0.539966 0.964626
vt 0.541074 0.923109
vt 0.541101 0.964626
vt 0.539860 0.923124
vt 0.406222 0.923230
vt 0.407818 0.967109
vt 0.406222 0.967010
vt 0.564390 0.961768
vt 0.562775 0.961800
vt 0.562775 0.923027
vt 0.407912 0.923242
vt 0.295393 0.923135
vt 0.333358 0.967122
vt 0.295403 0.967178
vt 0.210330 0.923123
vt 0.248921 0.923132
vt 0.248883 0.967122
vt 0.587460 0.922909
vt 0.588950 0.961563
vt 0.587361 0.961486
vt 0.210334 0.967166
vt 0.564365 0.923104
vt 0.479112 0.923031
vt 0.480803 0.966990
vt 0.479111 0.967006
vt 0.480726 0.923121
vt 0.333401 0.923132
vt 0.588950 0.922909
vt 0.545743 0.964626
vt 0.546850 0.923109
vt 0.546878 0.964626
vt 0.545637 0.923124
vt 0.502624 0.965380
vt 0.503840 0.923132
vt 0.503838 0.965350
vt 0.502517 0.923114
vt 0.599083 0.922909
vt 0.600573 0.922909
vt 0.600573 0.961563
vt 0.484924 0.923031
vt 0.486539 0.923121
vt 0.486616 0.966990
vt 0.167536 0.923123
vt 0.206088 0.967122
vt 0.167539 0.967166
vt 0.206127 0.923132
vt 0.598984 0.961486
vt 0.337639 0.923135
vt 0.375605 0.967122
vt 0.337650 0.967178
vt 0.375648 0.923132
vt 0.412057 0.923230
vt 0.413747 0.923242
vt 0.413654 0.967109
vt 0.484923 0.967006
vt 0.570202 0.961768
vt 0.568587 0.923027
vt 0.570177 0.923104
vt 0.568587 0.961800
vt 0.412057 0.967010
vt 0.551520 0.964626
vt 0.552627 0.923109
vt 0.552655 0.964626
vt 0.491070 0.965380
vt 0.492286 0.923132
vt 0.492284 0.965350
vt 0.490964 0.923114
vt 0.551414 0.923124
vt 0.815890 0.979376
vt 0.815150 0.978280
vt 0.816464 0.976829
vt 0.817512 0.978612
vt 0.216885 0.673225
vt 0.215376 0.673456
vt 0.215862 0.472006
vt 0.824588 0.203667
vt 0.823254 0.203485
vt 0.824075 0.002146
vt 0.216970 0.471833
vt 0.820930 0.428751
vt 0.819335 0.227372
vt 0.820674 0.227191
vt 0.819335 0.428586
vt 0.796611 0.976835
vt 0.797592 0.977789
vt 0.796829 0.979384
vt 0.457323 0.655525
vt 0.455798 0.655680
vt 0.456040 0.454250
vt 0.795182 0.977918
vt 0.457450 0.454250
vt 0.215036 0.472007
vt 0.222866 0.673281
vt 0.221583 0.472006
vt 0.222993 0.472006
vt 0.809308 0.979376
vt 0.808567 0.978280
vt 0.809881 0.976829
vt 0.221341 0.673436
vt 0.810929 0.978613
vt 0.814801 0.428751
vt 0.813205 0.428586
vt 0.813205 0.227372
vt 0.808925 0.428592
vt 0.807417 0.428823
vt 0.807902 0.227373
vt 0.807076 0.227374
vt 0.803384 0.976835
vt 0.804365 0.977789
vt 0.803603 0.979384
vt 0.814544 0.227191
vt 0.801956 0.977918
vt 0.809010 0.227200
vt 0.826798 0.428719
vt 0.825465 0.428537
vt 0.826285 0.227198
vt 0.002133 0.808109
vt 0.029417 0.871870
vt 0.002160 0.871892
vt 0.854613 0.923169
vt 0.854645 0.951041
vt 0.850616 0.951082
vt 0.029390 0.808087
vt 0.865755 0.363003
vt 0.869711 0.426706
vt 0.865724 0.426682
vt 0.861051 0.149795
vt 0.888878 0.213500
vt 0.861078 0.213560
vt 0.850585 0.923210
vt 0.888851 0.149734
vt 0.865745 0.295032
vt 0.869764 0.358736
vt 0.865712 0.358711
vt 0.846467 0.923168
vt 0.846499 0.951040
vt 0.842470 0.951081
vt 0.869797 0.295056
vt 0.842439 0.923209
vt 0.869746 0.363026
vt 0.131925 0.976924
vt 0.143765 0.994188
vt 0.131934 0.994206
vt 0.657860 0.976820
vt 0.657866 0.988984
vt 0.652133 0.988948
vt 0.143763 0.976906
vt 0.174158 0.976665
vt 0.179840 0.993664
vt 0.174158 0.993666
vt 0.148129 0.976926
vt 0.160204 0.994169
vt 0.148133 0.994202
vt 0.160200 0.976892
vt 0.179840 0.976663
vt 0.667632 0.976820
vt 0.667638 0.988984
vt 0.661906 0.988948
vt 0.652127 0.976785
vt 0.164386 0.976663
vt 0.170158 0.993664
vt 0.164386 0.993664
vt 0.170158 0.976663
vt 0.661900 0.976785
vt 0.404892 0.976663
vt 0.405324 0.976664
vt 0.405070 0.990948
vt 0.345474 0.976984
vt 0.345899 0.976984
vt 0.345790 0.991269
vt 0.288232 0.976807
vt 0.288841 0.976984
vt 0.288483 0.991269
vt 0.396174 0.990949
vt 0.395723 0.991197
vt 0.395974 0.976663
vt 0.287953 0.991269
vt 0.363744 0.976984
vt 0.364169 0.976984
vt 0.363810 0.991269
vt 0.302868 0.976985
vt 0.303506 0.976984
vt 0.303256 0.991269
vt 0.409583 0.991178
vt 0.409428 0.990948
vt 0.409802 0.976664
vt 0.302618 0.991269
vt 0.323060 0.976984
vt 0.414004 0.990948
vt 0.350041 0.976984
vt 0.350466 0.976984
vt 0.350216 0.991269
vt 0.307786 0.976807
vt 0.308395 0.976984
vt 0.308037 0.991269
vt 0.387023 0.990949
vt 0.386572 0.991197
vt 0.386823 0.976663
vt 0.307506 0.991269
vt 0.368312 0.976984
vt 0.368737 0.976984
vt 0.368378 0.991269
vt 0.283314 0.976985
vt 0.283953 0.976984
vt 0.283703 0.991269
vt 0.432460 0.991178
vt 0.432306 0.990948
vt 0.432679 0.976664
vt 0.283064 0.991269
vt 0.317533 0.976985
vt 0.318172 0.976984
vt 0.317922 0.991269
vt 0.317283 0.991269
vt 0.835205 0.427108
vt 0.835498 0.227373
vt 0.851905 0.424029
vt 0.575807 0.989459
vt 0.849788 0.198895
vt 0.850081 0.002316
vt 0.590198 0.976663
vt 0.481374 0.448077
vt 0.493457 0.227079
vt 0.493508 0.448082
vt 0.481323 0.227075
vt 0.599612 0.976663
vt 0.566128 0.989461
vt 0.228034 0.688412
vt 0.240111 0.471711
vt 0.240172 0.688399
vt 0.227973 0.471725
vt 0.841751 0.202083
s 1
usemtl public_001_baked
f 3/1/1 1/2/1 2/3/1
f 3/1/1 2/3/1 4/4/1
f 276/5/2 278/6/3 279/7/4
f 360/8/5 359/9/6 362/10/7
f 38/11/8 55/12/9 454/13/10
f 50/14/11 53/15/12 472/16/13
f 57/17/14 63/18/15 452/19/16
f 42/20/17 58/21/18 457/22/19
f 283/23/20 282/24/21 280/25/22
f 282/26/21 283/27/20 281/28/23
f 280/29/22 281/30/23 283/31/20
f 281/28/23 280/32/22 282/26/21
f 286/33/20 285/34/21 284/35/22
f 285/36/21 286/37/20 287/38/24
f 287/38/24 284/39/22 285/36/21
f 290/40/25 288/41/25 289/42/25
f 290/43/25 289/44/25 288/45/25
f 297/46/26 298/47/27 295/48/28
f 296/49/29 295/50/28 298/51/27
f 344/52/20 346/53/21 345/54/22
f 346/55/21 344/56/20 343/57/23
f 345/58/22 343/59/23 344/60/20
f 343/57/23 345/61/22 346/55/21
f 347/62/30 348/63/21 349/64/31
f 348/65/21 347/66/30 350/67/23
f 349/68/31 350/69/23 347/70/30
f 350/67/23 349/71/31 348/65/21
f 351/72/32 354/73/33 353/74/34
f 354/75/33 351/76/32 352/77/35
f 353/78/34 352/79/35 351/80/32
f 352/77/35 353/81/34 354/75/33
f 10/82/36 6/83/37 5/84/38
f 5/85/38 6/86/37 11/87/39
f 5/85/38 11/87/39 8/88/40
f 10/89/36 5/90/38 8/91/40
f 6/92/37 12/93/41 11/94/39
f 6/92/37 9/95/42 12/93/41
f 10/82/36 9/96/42 6/83/37
f 9/97/42 7/98/43 12/99/41
f 8/100/40 12/101/41 7/102/43
f 9/97/42 10/103/36 7/98/43
f 10/89/36 8/91/40 7/104/43
f 8/100/40 11/105/39 12/101/41
f 13/106/44 20/107/45 14/108/46
f 13/106/44 18/109/47 20/107/45
f 13/110/44 17/111/48 18/112/47
f 15/113/49 13/114/44 14/115/46
f 13/110/44 15/116/49 17/111/48
f 15/113/49 14/115/46 16/117/50
f 20/118/45 16/119/50 14/120/46
f 17/121/48 15/122/49 16/123/50
f 17/121/48 16/123/50 19/124/51
f 20/118/45 19/125/51 16/119/50
f 18/126/47 17/127/48 19/128/51
f 18/126/47 19/128/51 20/129/45
f 22/130/52 21/131/53 27/132/54
f 24/133/55 21/134/53 22/135/52
f 24/133/55 28/136/56 21/134/53
f 28/137/57 27/138/57 21/139/57
f 25/140/58 24/141/58 22/142/58
f 25/140/58 22/142/58 26/143/58
f 22/130/52 27/132/54 26/144/59
f 23/145/60 26/146/59 27/147/54
f 23/145/60 25/148/61 26/146/59
f 28/137/57 23/149/57 27/138/57
f 25/150/61 23/151/60 28/152/56
f 25/150/61 28/152/56 24/153/55
f 29/154/62 462/155/63 459/156/64
f 29/154/62 30/157/65 462/155/63
f 32/158/66 29/159/62 459/160/64
f 30/161/65 29/162/62 32/163/66
f 30/164/65 33/165/67 464/166/68
f 30/161/65 32/163/66 33/167/67
f 39/168/69 465/169/69 37/170/69
f 464/171/70 459/172/64 462/173/63
f 473/174/71 35/175/72 465/176/73
f 37/177/74 466/178/75 35/179/72
f 455/180/76 473/174/71 465/176/73
f 33/181/67 469/182/77 464/183/68
f 464/171/68 469/184/77 459/172/78
f 33/181/67 32/185/66 469/182/77
f 34/186/79 451/187/80 37/188/74
f 34/186/79 453/189/81 451/187/80
f 35/179/72 34/190/79 37/177/74
f 59/191/82 34/192/79 35/193/72
f 59/191/82 35/193/72 473/11/71
f 39/168/83 37/170/83 451/194/83
f 59/195/84 473/196/84 39/197/84
f 38/11/8 458/198/85 54/199/86
f 454/200/87 56/201/88 40/202/89
f 454/200/90 55/203/9 56/201/88
f 38/11/8 54/199/86 55/12/9
f 59/195/91 39/197/91 451/204/91
f 56/205/88 50/14/11 40/206/89
f 41/207/92 471/208/93 47/209/94
f 41/207/92 52/210/95 471/208/93
f 45/211/96 41/212/92 47/213/94
f 45/214/96 51/215/97 41/216/92
f 44/217/98 456/218/99 48/219/100
f 456/218/99 45/220/96 48/219/100
f 51/221/101 456/222/101 43/223/101
f 45/214/96 456/20/99 51/215/97
f 62/224/102 42/20/17 60/225/103
f 457/226/104 61/227/105 468/228/106
f 457/226/107 58/229/18 61/227/105
f 62/224/102 58/21/18 42/20/17
f 47/230/108 43/231/108 48/232/108
f 51/221/109 43/223/109 471/233/109
f 47/230/110 471/234/110 43/231/110
f 57/235/14 468/236/106 61/237/105
f 47/213/94 460/238/111 45/211/96
f 54/239/86 458/240/85 472/241/112
f 54/239/86 472/241/113 53/242/12
f 56/205/88 53/15/12 50/14/11
f 55/243/9 53/244/12 56/245/88
f 55/243/9 54/246/86 53/244/12
f 62/247/102 60/248/103 452/19/114
f 62/247/102 452/19/115 63/18/15
f 57/235/14 61/237/105 63/249/15
f 58/250/18 63/251/15 61/252/105
f 58/250/18 62/253/102 63/251/15
f 64/254/116 67/255/117 65/256/118
f 64/254/116 66/257/119 67/255/117
f 70/258/120 66/259/119 64/260/116
f 71/261/121 64/262/116 65/263/118
f 70/258/120 64/260/116 71/264/121
f 71/261/121 65/263/118 68/265/122
f 68/266/122 65/267/118 67/268/117
f 66/269/119 69/270/123 67/271/117
f 66/269/119 70/272/120 69/270/123
f 68/266/122 67/268/117 69/273/123
f 70/274/120 71/275/121 68/276/122
f 70/274/120 68/276/122 69/277/123
f 73/278/124 72/279/125 75/280/126
f 73/278/124 75/280/126 74/281/127
f 72/282/125 73/283/124 74/284/127
f 72/282/125 74/284/127 75/285/126
f 77/286/128 79/287/129 76/288/130
f 77/286/128 78/289/131 79/287/129
f 78/290/131 77/291/128 76/292/130
f 78/290/131 76/292/130 79/293/129
f 80/294/132 83/295/133 81/296/134
f 80/294/132 82/297/135 83/295/133
f 82/298/135 81/299/134 83/300/133
f 82/298/135 80/301/132 81/299/134
f 86/302/136 84/303/137 85/304/138
f 86/302/136 85/304/138 87/305/139
f 84/306/137 86/307/136 87/308/139
f 84/306/137 87/308/139 85/309/138
f 88/310/140 95/311/141 92/312/142
f 88/310/140 94/313/143 95/311/141
f 91/314/144 88/315/140 92/316/142
f 94/317/145 88/318/146 91/319/147
f 89/320/148 93/321/149 90/322/150
f 89/320/148 91/323/144 93/321/149
f 94/324/143 89/325/148 90/326/150
f 94/317/145 91/319/147 89/327/151
f 94/324/143 90/326/150 95/328/141
f 90/329/152 92/330/153 95/331/154
f 90/329/152 93/332/155 92/330/153
f 91/314/144 92/316/142 93/333/149
f 101/334/121 96/335/118 102/336/122
f 102/337/122 96/338/118 97/339/117
f 101/334/121 99/340/116 96/335/118
f 99/341/116 97/342/117 96/343/118
f 99/341/116 100/344/119 97/342/117
f 100/345/119 103/346/123 97/347/117
f 102/337/122 97/339/117 103/348/123
f 98/349/120 100/350/119 99/351/116
f 100/345/119 98/352/120 103/346/123
f 98/353/120 102/354/122 103/355/123
f 98/353/120 101/356/121 102/354/122
f 98/349/120 99/351/116 101/357/121
f 105/358/156 107/359/157 106/360/158
f 105/358/156 104/361/159 107/359/157
f 104/362/159 106/363/158 107/364/157
f 104/362/159 105/365/156 106/363/158
f 110/366/160 108/367/161 109/368/162
f 108/369/161 111/370/163 109/371/162
f 108/369/161 110/372/160 111/370/163
f 110/366/160 109/368/162 111/373/163
f 112/374/161 114/375/164 113/376/162
f 112/374/161 115/377/160 114/375/164
f 115/378/160 112/379/161 113/380/162
f 115/378/160 113/380/162 114/381/164
f 119/382/132 116/383/135 117/384/133
f 119/382/132 117/384/133 118/385/134
f 116/386/135 119/387/132 118/388/134
f 116/386/135 118/388/134 117/389/133
f 120/390/148 121/391/149 123/392/150
f 120/390/148 125/393/144 121/391/149
f 122/394/143 120/395/148 123/396/150
f 122/397/145 125/398/147 120/399/151
f 123/400/152 121/401/155 127/402/153
f 125/403/144 127/404/142 121/405/149
f 122/394/143 123/396/150 124/406/141
f 122/397/145 126/407/146 125/398/147
f 126/408/140 122/409/143 124/410/141
f 123/400/152 127/402/153 124/411/154
f 126/408/140 124/410/141 127/412/142
f 125/403/144 126/413/140 127/404/142
f 132/414/119 128/415/123 135/416/117
f 129/417/122 135/418/117 128/419/123
f 132/414/119 131/420/120 128/415/123
f 131/421/120 129/422/122 128/423/123
f 131/421/120 133/424/121 129/422/122
f 133/425/121 134/426/118 129/427/122
f 129/417/122 134/428/118 135/418/117
f 131/429/120 130/430/116 133/431/121
f 133/425/121 130/432/116 134/426/118
f 130/433/116 135/434/117 134/435/118
f 130/433/116 132/436/119 135/434/117
f 131/429/120 132/437/119 130/430/116
f 136/438/156 137/439/165 139/440/166
f 136/438/156 139/440/166 138/441/158
f 137/442/165 138/443/158 139/444/166
f 137/442/165 136/445/156 138/443/158
f 142/446/167 140/447/168 141/448/169
f 140/449/168 143/450/170 141/451/169
f 140/449/168 142/452/167 143/450/170
f 142/446/167 141/448/169 143/453/170
f 144/454/128 145/455/131 146/456/129
f 144/454/128 146/456/129 147/457/130
f 145/458/131 147/459/130 146/460/129
f 145/458/131 144/461/128 147/459/130
f 151/462/171 148/463/172 149/464/173
f 148/465/172 150/466/174 149/467/173
f 151/462/171 149/464/173 150/468/174
f 148/465/172 151/469/171 150/466/174
f 155/470/145 152/471/147 157/472/151
f 157/473/148 152/474/144 153/475/149
f 152/476/144 159/477/175 153/478/149
f 152/476/144 154/479/140 159/477/175
f 155/470/145 154/480/146 152/471/147
f 157/473/148 153/475/149 158/481/150
f 158/482/152 153/483/155 159/484/153
f 154/485/140 155/486/143 156/487/141
f 154/485/140 156/487/141 159/488/175
f 155/489/143 158/490/150 156/491/141
f 155/489/143 157/492/148 158/490/150
f 158/482/152 159/484/153 156/493/154
f 166/494/176 160/495/177 164/496/178
f 164/497/178 160/498/177 162/499/179
f 166/494/176 165/500/180 160/495/177
f 165/501/180 162/502/179 160/503/177
f 161/504/181 167/505/182 162/506/179
f 161/504/181 163/507/183 167/505/182
f 165/501/180 161/508/181 162/502/179
f 163/509/183 161/510/181 165/511/180
f 164/497/178 162/499/179 167/512/182
f 163/513/183 164/514/178 167/515/182
f 163/513/183 166/516/176 164/514/178
f 163/509/183 165/511/180 166/517/176
f 169/518/184 171/519/185 170/520/186
f 169/518/184 168/521/187 171/519/185
f 168/522/187 170/523/186 171/524/185
f 168/522/187 169/525/184 170/523/186
f 175/526/167 172/527/188 173/528/169
f 172/529/188 174/530/189 173/531/169
f 172/529/188 175/532/167 174/530/189
f 175/526/167 173/528/169 174/533/189
f 177/534/190 179/535/191 176/536/164
f 178/537/161 177/538/190 176/539/164
f 177/534/190 178/540/161 179/535/191
f 178/537/161 176/539/164 179/541/191
f 181/542/188 182/543/167 180/544/189
f 181/542/188 180/544/189 183/545/169
f 182/546/167 181/547/188 183/548/169
f 182/546/167 183/548/169 180/549/189
f 184/550/192 185/551/193 186/552/194
f 184/550/192 190/553/195 185/551/193
f 189/554/196 184/555/192 186/556/194
f 190/557/197 184/558/198 189/559/198
f 188/560/199 186/561/200 185/562/199
f 190/563/195 188/564/201 185/565/193
f 189/554/196 186/556/194 191/566/202
f 188/560/199 191/567/200 186/561/200
f 190/563/195 187/568/203 188/564/201
f 187/569/203 191/570/202 188/571/201
f 187/569/203 189/572/196 191/570/202
f 190/557/197 189/559/198 187/573/197
f 192/574/204 199/575/205 196/576/206
f 192/574/204 197/577/207 199/575/205
f 195/578/208 192/579/204 196/580/206
f 195/581/208 197/582/207 192/583/204
f 193/584/209 194/585/210 198/586/211
f 193/584/209 195/587/208 194/585/210
f 197/588/207 193/589/209 198/590/211
f 195/581/208 193/591/209 197/582/207
f 196/592/206 198/593/211 194/594/210
f 195/578/208 196/580/206 194/595/210
f 196/592/206 199/596/205 198/593/211
f 197/588/207 198/590/211 199/597/205
f 200/598/212 203/599/213 201/600/214
f 200/598/212 202/601/215 203/599/213
f 202/602/215 200/603/212 201/604/214
f 202/602/215 201/604/214 203/605/213
f 205/606/216 206/607/217 204/608/218
f 205/606/216 204/608/218 207/609/219
f 206/610/217 207/611/219 204/612/218
f 206/610/217 205/613/216 207/611/219
f 210/614/220 208/615/221 209/616/222
f 208/617/221 211/618/223 209/619/222
f 208/617/221 210/620/220 211/618/223
f 210/614/220 209/616/222 211/621/223
f 214/622/220 212/623/221 213/624/222
f 214/622/220 213/624/222 215/625/223
f 212/626/221 214/627/220 215/628/223
f 212/626/221 215/628/223 213/629/222
f 222/630/224 217/631/225 216/632/226
f 216/633/227 217/634/228 223/635/229
f 216/633/227 223/635/229 218/636/230
f 222/637/231 216/638/227 218/639/230
f 217/640/228 220/641/232 223/642/229
f 217/640/228 221/643/233 220/641/232
f 222/630/224 221/644/234 217/631/225
f 222/637/231 218/639/230 219/645/235
f 218/646/236 220/647/237 219/648/238
f 218/646/236 223/649/239 220/647/237
f 221/650/233 219/651/235 220/652/232
f 221/650/233 222/653/231 219/651/235
f 224/654/240 225/655/241 226/656/242
f 224/654/240 230/657/243 225/655/241
f 229/658/244 224/659/245 226/660/246
f 229/661/244 230/662/247 224/663/245
f 226/664/246 225/665/248 231/666/249
f 230/667/247 231/668/249 225/669/248
f 229/658/244 226/660/246 228/670/250
f 226/664/246 231/666/249 228/671/250
f 227/672/251 228/673/252 231/674/253
f 227/672/251 229/675/254 228/673/252
f 230/667/247 227/676/255 231/668/249
f 229/661/244 227/677/255 230/662/247
f 232/678/256 239/679/257 233/680/258
f 232/678/256 234/681/259 239/679/257
f 235/682/260 232/683/256 233/684/258
f 234/685/259 232/686/256 235/687/260
f 235/682/260 233/684/258 237/688/261
f 238/689/262 237/690/261 233/691/258
f 238/689/262 233/691/258 239/692/257
f 234/685/259 235/687/260 236/693/263
f 234/694/259 238/695/262 239/696/257
f 234/694/259 236/697/263 238/695/262
f 236/698/263 235/699/260 237/700/261
f 236/698/263 237/700/261 238/701/262
f 241/702/264 240/703/265 242/704/266
f 242/705/266 240/706/265 244/707/267
f 241/702/264 246/708/268 240/703/265
f 246/709/268 244/710/267 240/711/265
f 245/712/269 241/713/264 242/714/266
f 245/715/269 246/716/268 241/717/264
f 245/712/269 242/714/266 247/718/270
f 242/705/266 244/707/267 247/719/270
f 246/709/268 243/720/271 244/710/267
f 243/721/271 247/722/270 244/723/267
f 243/721/271 245/724/269 247/722/270
f 245/715/269 243/725/271 246/716/268
f 253/726/272 248/727/273 254/728/274
f 254/729/238 248/730/239 255/731/239
f 253/726/272 252/732/275 248/727/273
f 252/733/275 255/734/276 248/735/273
f 249/736/226 250/737/234 252/738/234
f 250/739/277 249/740/278 251/741/279
f 249/742/278 254/743/274 251/744/279
f 249/742/278 253/745/272 254/743/274
f 249/736/226 252/738/234 253/746/226
f 250/739/277 251/741/279 255/747/276
f 252/733/275 250/748/277 255/734/276
f 254/729/238 255/731/239 251/749/238
f 256/750/280 262/751/281 261/752/282
f 256/750/280 257/753/283 262/751/281
f 259/754/284 256/755/280 261/756/282
f 259/757/284 257/758/283 256/759/280
f 257/760/283 258/761/285 262/762/281
f 257/760/283 260/763/286 258/761/285
f 259/757/284 260/764/286 257/758/283
f 261/765/282 262/766/281 258/767/285
f 260/768/286 263/769/287 258/770/285
f 261/765/282 258/767/285 263/771/287
f 260/768/286 259/772/284 263/769/287
f 259/754/284 261/756/282 263/773/287
f 266/774/288 264/775/289 274/776/290
f 266/774/288 275/777/291 264/775/289
f 266/774/288 265/778/292 273/779/293
f 266/774/288 274/776/290 265/778/292
f 266/774/288 273/779/293 269/780/294
f 266/774/288 269/780/294 272/781/295
f 266/774/288 272/781/295 268/782/296
f 266/774/288 268/782/296 271/783/297
f 266/774/288 271/783/297 267/784/298
f 266/774/288 267/784/298 270/785/299
f 270/786/299 268/787/296 272/788/295
f 270/786/299 271/789/297 268/787/296
f 270/786/299 269/790/294 273/791/293
f 270/786/299 272/788/295 269/790/294
f 270/786/299 267/792/298 271/789/297
f 270/786/299 273/791/293 265/793/292
f 270/786/299 265/793/292 274/794/290
f 270/786/299 274/794/290 264/795/289
f 270/786/299 264/795/289 275/796/291
f 270/786/299 275/796/291 266/797/288
f 302/798/300 299/799/301 300/800/302
f 302/798/300 300/800/302 301/801/303
f 299/802/301 301/803/303 300/804/302
f 299/802/301 302/805/300 301/803/303
f 305/806/304 303/807/305 306/808/306
f 306/809/306 303/810/305 310/811/307
f 305/806/304 309/812/308 303/807/305
f 309/813/308 310/814/307 303/815/305
f 304/816/309 308/817/310 309/818/308
f 308/819/310 304/820/309 307/821/311
f 304/822/309 306/823/306 307/824/311
f 304/822/309 305/825/304 306/823/306
f 304/816/309 309/818/308 305/826/304
f 306/809/306 310/811/307 307/827/311
f 308/819/310 307/821/311 310/828/307
f 309/813/308 308/829/310 310/814/307
f 316/830/309 312/831/308 311/832/304
f 311/833/304 312/834/308 317/835/305
f 311/833/304 317/835/305 315/836/306
f 316/837/309 311/838/304 315/839/306
f 312/840/308 314/841/307 317/842/305
f 312/840/308 313/843/310 314/841/307
f 316/830/309 313/844/310 312/831/308
f 313/845/310 318/846/311 314/847/307
f 313/845/310 316/848/309 318/846/311
f 315/849/306 317/850/305 314/851/307
f 315/849/306 314/851/307 318/852/311
f 316/837/309 315/839/306 318/853/311
f 324/854/284 319/855/283 325/856/280
f 325/857/280 319/858/283 323/859/281
f 319/860/283 322/861/285 323/862/281
f 319/860/283 320/863/286 322/861/285
f 324/854/284 320/864/286 319/855/283
f 320/865/286 326/866/287 322/867/285
f 320/865/286 324/868/284 326/866/287
f 324/869/284 325/870/280 321/871/282
f 324/869/284 321/871/282 326/872/287
f 321/873/282 322/874/285 326/875/287
f 325/857/280 323/859/281 321/876/282
f 321/873/282 323/877/281 322/874/285
f 332/878/312 327/879/290 335/880/292
f 332/878/312 336/881/289 327/879/290
f 332/878/312 328/882/293 329/883/313
f 332/878/312 335/880/292 328/882/293
f 332/878/312 329/883/313 330/884/314
f 332/878/312 330/884/314 331/885/315
f 332/878/312 331/885/315 337/886/297
f 332/878/312 333/887/298 334/888/299
f 332/878/312 338/889/291 336/881/289
f 332/878/312 337/886/297 333/887/298
f 334/890/299 337/891/297 331/892/315
f 334/890/299 333/893/298 337/891/297
f 334/890/299 331/892/315 330/894/314
f 334/890/299 330/894/314 329/895/313
f 334/890/299 329/895/313 328/896/293
f 334/890/299 328/896/293 335/897/292
f 334/890/299 335/897/292 327/898/290
f 334/890/299 327/898/290 336/899/289
f 334/890/299 336/899/289 338/900/291
f 334/890/299 338/900/291 332/901/312
f 365/902/301 363/903/300 364/904/303
f 365/902/301 364/904/303 366/905/316
f 363/906/300 365/907/301 366/908/316
f 363/906/300 366/908/316 364/909/303
f 372/910/309 367/911/308 369/912/304
f 369/913/304 367/914/308 373/915/305
f 367/916/308 374/917/307 373/918/305
f 367/916/308 371/919/310 374/917/307
f 372/910/309 371/920/310 367/911/308
f 371/921/310 368/922/311 374/923/307
f 370/924/306 374/925/307 368/926/311
f 371/921/310 372/927/309 368/922/311
f 372/928/309 370/929/306 368/930/311
f 372/928/309 369/931/304 370/929/306
f 369/913/304 373/915/305 370/932/306
f 370/924/306 373/933/305 374/925/307
f 376/934/310 375/935/311 382/936/307
f 380/937/306 382/938/307 375/939/311
f 376/934/310 379/940/309 375/935/311
f 379/941/309 380/942/306 375/943/311
f 378/944/308 376/945/310 382/946/307
f 379/947/309 376/948/310 378/949/308
f 377/950/304 381/951/305 380/952/306
f 377/950/304 378/953/308 381/951/305
f 379/941/309 377/954/304 380/942/306
f 379/947/309 378/949/308 377/955/304
f 378/944/308 382/946/307 381/956/305
f 380/937/306 381/957/305 382/938/307
f 384/958/317 383/959/318 389/960/319
f 389/961/319 383/962/318 386/963/320
f 384/958/317 388/964/321 383/959/318
f 388/965/321 386/966/320 383/967/318
f 385/968/322 384/969/317 389/970/319
f 385/971/322 388/972/321 384/973/317
f 385/971/322 387/974/323 388/972/321
f 387/975/323 385/976/322 390/977/324
f 385/968/322 389/970/319 390/978/324
f 388/965/321 387/979/323 386/966/320
f 387/975/323 390/977/324 386/980/320
f 389/961/319 386/963/320 390/981/324
f 393/982/325 394/983/326 391/984/327
f 393/982/325 391/984/327 392/985/328
f 394/986/326 392/987/328 391/988/327
f 394/986/326 393/989/325 392/987/328
f 396/990/317 395/991/329 397/992/319
f 397/993/319 395/994/329 402/995/320
f 396/990/317 401/996/321 395/991/329
f 401/997/321 402/998/320 395/999/329
f 400/1000/322 396/1001/317 397/1002/319
f 400/1003/322 401/1004/321 396/1005/317
f 400/1000/322 397/1002/319 398/1006/324
f 397/993/319 402/995/320 398/1007/324
f 399/1008/323 398/1009/324 402/1010/320
f 399/1008/323 400/1011/322 398/1009/324
f 401/997/321 399/1012/323 402/998/320
f 400/1003/322 399/1013/323 401/1004/321
f 403/1014/330 404/1015/331 406/1016/332
f 403/1014/330 405/1017/333 404/1015/331
f 405/1018/333 406/1019/332 404/1020/331
f 405/1018/333 403/1021/330 406/1019/332
f 407/1022/322 411/1023/323 408/1024/321
f 411/1025/323 407/1026/322 414/1027/324
f 407/1028/322 413/1029/319 414/1030/324
f 407/1028/322 412/1031/317 413/1029/319
f 407/1022/322 408/1024/321 412/1032/317
f 408/1033/321 409/1034/320 410/1035/329
f 408/1033/321 411/1036/323 409/1034/320
f 412/1037/317 408/1038/321 410/1039/329
f 411/1025/323 414/1027/324 409/1040/320
f 413/1041/319 409/1042/320 414/1043/324
f 413/1041/319 410/1044/329 409/1042/320
f 412/1037/317 410/1039/329 413/1045/319
f 418/1046/334 417/1047/331 415/1048/332
f 416/1049/333 415/1050/332 417/1051/331
f 416/1049/333 418/1052/334 415/1050/332
f 418/1046/334 416/1053/333 417/1047/331
f 419/1054/335 425/1055/336 424/1056/337
f 419/1054/335 424/1056/337 420/1057/338
f 419/1058/335 420/1059/338 426/1060/339
f 425/1061/336 419/1062/335 423/1063/340
f 419/1058/335 426/1060/339 423/1064/340
f 420/1065/338 422/1066/341 421/1067/342
f 420/1065/338 424/1068/337 422/1066/341
f 426/1069/339 421/1070/342 422/1071/341
f 424/1072/337 425/1073/336 423/1074/340
f 426/1069/339 422/1071/341 423/1075/340
f 424/1072/337 423/1074/340 422/1076/341
f 420/1059/338 421/1077/342 426/1060/339
f 427/1078/337 430/1079/340 432/1080/341
f 434/1081/335 433/1082/336 427/1083/337
f 427/1078/337 433/1084/336 430/1079/340
f 434/1081/335 427/1083/337 428/1085/338
f 428/1086/338 427/1087/337 432/1088/341
f 434/1089/335 428/1090/338 431/1091/339
f 428/1090/338 429/1092/342 431/1091/339
f 431/1093/339 429/1094/342 432/1095/341
f 428/1086/338 432/1088/341 429/1096/342
f 431/1093/339 432/1095/341 430/1097/340
f 434/1089/335 431/1091/339 430/1098/340
f 433/1099/336 434/1100/335 430/1101/340
f 442/1102/343 435/1103/344 438/1104/345
f 438/1105/345 435/1106/344 441/1107/346
f 442/1102/343 439/1108/347 435/1103/344
f 439/1109/347 441/1110/346 435/1111/344
f 440/1112/348 436/1113/349 441/1114/346
f 438/1105/345 441/1107/346 436/1115/349
f 440/1112/348 437/1116/350 436/1113/349
f 437/1117/350 438/1118/345 436/1119/349
f 437/1120/350 440/1121/348 439/1122/347
f 437/1117/350 442/1123/343 438/1118/345
f 437/1120/350 439/1122/347 442/1124/343
f 439/1109/347 440/1125/348 441/1110/346
f 449/1126/351 443/1127/352 447/1128/353
f 447/1129/353 443/1130/352 450/1131/354
f 449/1126/351 448/1132/355 443/1127/352
f 448/1133/355 450/1134/354 443/1135/352
f 444/1136/356 445/1137/357 450/1138/354
f 444/1136/356 446/1139/358 445/1137/357
f 448/1133/355 444/1140/356 450/1134/354
f 446/1141/358 444/1142/356 448/1143/355
f 447/1129/353 450/1131/354 445/1144/357
f 446/1145/358 447/1146/353 445/1147/357
f 446/1145/358 449/1148/351 447/1146/353
f 446/1141/358 448/1143/355 449/1149/351
f 287/1150/24 286/1151/20 284/1152/22
f 360/1153/5 361/1154/359 359/1155/6
f 277/1156/360 276/1157/2 279/1158/4
f 276/1159/2 277/1160/360 278/1161/3
f 279/1158/4 278/1162/3 277/1156/360
f 293/1163/5 291/1164/359 292/1165/361
f 294/1166/362 292/1167/361 291/1168/359
f 292/1169/361 294/1170/362 293/1171/5
f 291/1168/359 293/1172/5 294/1166/362
f 297/46/26 296/1173/29 298/47/27
f 296/49/29 297/1174/26 295/50/28
f 339/1175/363 342/1176/364 341/1177/365
f 340/1178/366 341/1179/365 342/1180/364
f 341/1181/365 340/1182/366 339/1183/363
f 342/1180/364 339/1184/363 340/1178/366
f 357/1185/5 358/1186/359 355/1187/367
f 356/1188/362 355/1189/367 358/1190/359
f 355/1191/367 356/1192/362 357/1193/5
f 358/1190/359 357/1194/5 356/1188/362
f 362/1195/7 359/1196/6 361/1197/359
f 361/1197/359 360/1198/5 362/1195/7
f 30/164/65 464/166/68 463/1199/368
f 464/166/369 466/1200/369 463/1199/369
f 31/1201/370 35/179/370 466/178/370
f 465/176/73 39/1202/371 455/180/76
f 32/158/66 459/160/64 470/1203/372
f 459/160/373 460/1204/373 470/1203/373
f 34/186/79 59/1205/82 453/189/81
f 40/1206/89 458/1207/85 38/1208/8
f 458/1207/85 40/1206/89 50/1209/11
f 41/207/92 51/1210/97 52/210/95
f 48/219/100 43/1211/374 44/217/98
f 468/1212/106 60/1213/103 42/1214/17
f 60/1213/103 468/1212/106 57/1215/14
f 49/1216/375 45/211/375 460/238/375
l 46 461
l 467 36
