# Blender 4.5.0
# www.blender.org
mtllib public_005.lod2.mtl
o public_005
v 2.985522 2.954141 -4.112795
v -2.949785 2.954141 -4.112795
v -5.050000 -0.000000 -4.512025
v -5.050000 0.014689 4.519611
v -5.013153 3.883598 2.317156
v 5.041931 0.693728 -2.303734
v 4.086415 10.581779 0.997331
v 4.700809 9.558502 3.937850
v -4.668426 9.440850 3.939572
v -4.671556 9.796095 3.939575
v -4.668426 9.441118 3.933739
v -4.674263 9.435243 3.939575
v -4.668426 9.555931 3.933739
v -4.662191 9.559350 3.939401
v -4.675847 9.531524 -3.943056
v 4.698325 9.446994 3.939575
v 4.704163 9.441118 3.933739
v 4.707292 9.448206 3.939575
v 4.704163 9.446994 3.939575
v 4.704163 9.446994 -3.931990
v 4.707396 9.446994 -3.931990
v 4.704163 9.441118 -3.926154
v 4.698325 9.446994 -3.931990
v 4.698325 9.560059 -3.930135
v 4.704163 9.555931 -3.926154
v -4.671556 9.448206 -3.931990
v -4.668426 9.446994 -3.931990
v -4.661477 9.441118 -3.926154
v -4.822462 9.441118 -3.926154
v -4.828300 9.448158 -3.931990
v -4.828300 9.797305 -4.088586
v -4.821305 9.441118 -3.931990
v -4.828300 9.446994 3.942168
v -4.822462 9.441118 3.933739
v -4.822462 9.441118 3.939575
v -4.822462 9.803182 -3.926154
v -4.828300 9.797305 -3.931990
v -4.834137 9.803182 -3.937826
v -4.822462 9.803182 3.933739
v -4.828300 9.796142 3.939575
v -4.828300 9.446994 4.096171
v -4.821305 9.803182 3.939575
v -4.670986 9.802994 -3.925852
v -4.671659 9.797305 -3.931990
v 4.858199 9.441118 3.933739
v 4.864036 9.448158 3.939575
v 4.857042 9.441118 3.939575
v 4.858199 9.803182 -3.926154
v 4.864036 9.796142 -3.931990
v 4.864036 9.446994 -4.088586
v 4.857042 9.803182 -3.931990
v 4.708616 9.801813 3.937370
v 4.704163 9.797305 3.933739
v 4.707171 9.800224 -3.930735
v 4.864036 9.446994 -3.934583
v 4.858199 9.441118 -3.926154
v 4.858199 9.441118 -3.931990
v 4.864036 9.797305 4.096171
v 4.858199 9.803182 3.939575
v 4.864036 9.797305 3.939575
v 4.858199 9.803182 3.933739
v -3.163143 2.427320 -3.896736
v -4.836635 2.204024 -3.367594
v -3.163143 0.735312 -3.907307
v -3.811833 2.400988 -4.000758
v -3.264367 0.801638 -3.993094
v -4.393813 0.801638 -3.990756
v -4.393643 2.418685 -4.021892
v -4.391658 0.768293 -3.990918
v -4.395628 0.768293 -4.052868
v -3.829090 2.418685 -4.021892
v -3.827105 0.768293 -3.990917
v -3.831075 0.768293 -4.052868
v -3.266521 0.768293 -4.052868
v -3.264536 2.418685 -4.021892
v -3.262551 0.768293 -3.990917
v -3.142877 0.735971 -4.162071
v -3.142876 0.726970 -3.921673
v -4.463588 0.737347 -3.971105
v -2.896303 2.427318 -3.907306
v -1.191367 0.808506 -3.979438
v -2.896303 0.735314 -3.896738
v -2.213097 2.400988 -4.000758
v -1.665631 0.801638 -3.993094
v -2.795077 0.801638 -3.990756
v -2.796892 0.768293 -4.052868
v -2.794907 2.418685 -4.021892
v -2.792922 0.768293 -3.990917
v -2.230354 2.418685 -4.021892
v -2.232339 0.768293 -4.052868
v -2.228369 0.768293 -3.990917
v -1.665800 2.418685 -4.021892
v -1.663815 0.768293 -3.990917
v -1.667785 0.768293 -4.052868
v -2.916567 0.735972 -3.921673
v -1.595855 0.737347 -3.971105
v -2.916567 0.726970 -4.162070
v -1.670604 2.354126 -3.979439
v 0.034331 0.735314 -3.907305
v 0.034331 2.427318 -3.896738
v -0.066895 0.801638 -3.993094
v -1.196341 0.801638 -3.990756
v -0.614362 2.400988 -4.000758
v -1.198157 0.768293 -4.052868
v -1.196172 2.418685 -4.021892
v -1.194187 0.768293 -3.990917
v -0.629633 0.768293 -3.990917
v -0.631618 2.418685 -4.021892
v -0.633603 0.768293 -4.052868
v -0.067064 2.418685 -4.021892
v -0.069049 0.768293 -4.052868
v -0.065079 0.768293 -3.990917
v -1.317831 0.726970 -4.162070
v 0.002880 0.737347 -3.971105
v -1.317831 0.735972 -3.921673
v 1.633067 2.427318 -3.896738
v 1.633067 0.735314 -3.907305
v 0.120287 1.328213 -4.187881
v 0.984374 2.400988 -4.000758
v 1.531841 0.801638 -3.993094
v 0.402395 0.801638 -3.990756
v 0.400579 0.768293 -4.052868
v 0.404549 0.768293 -3.990917
v 0.402564 2.418685 -4.021892
v 0.967118 2.418685 -4.021892
v 0.969103 0.768293 -3.990917
v 0.965133 0.768293 -4.052868
v 1.531672 2.418686 -4.021892
v 1.529686 0.768293 -4.052868
v 1.533657 0.768292 -3.990917
v 0.332620 0.737347 -3.971105
v 1.653331 0.726970 -3.921673
v 1.653331 0.735972 -4.162071
v 3.604840 0.808506 -3.979438
v 1.899904 0.735314 -3.896738
v 1.899904 2.427318 -3.907306
v 2.583110 2.400988 -4.000758
v 3.130577 0.801638 -3.993094
v 2.001131 0.801638 -3.990756
v 1.999315 0.768293 -4.052868
v 2.001300 2.418686 -4.021892
v 2.003285 0.768293 -3.990917
v 2.563869 0.768293 -4.052868
v 2.565854 2.418685 -4.021892
v 2.567839 0.768293 -3.990917
v 3.130407 2.418685 -4.021892
v 3.132392 0.768293 -3.990917
v 3.128422 0.768293 -4.052868
v 3.252067 0.735971 -4.162071
v 3.252067 0.726970 -3.921673
v 1.931355 0.737347 -3.971105
v 3.498642 2.427318 -3.907306
v 4.885677 2.204024 -3.367594
v 3.498641 0.735314 -3.896738
v 4.729312 0.801638 -3.993094
v 4.181846 2.400988 -4.000758
v 3.599867 0.801638 -3.990756
v 3.600036 2.418685 -4.021892
v 3.598051 0.768293 -4.052868
v 3.602021 0.768293 -3.990917
v 4.164590 2.418685 -4.021892
v 4.166575 0.768293 -3.990917
v 4.162605 0.768293 -4.052868
v 4.729144 2.418685 -4.021892
v 4.731129 0.768292 -3.990917
v 4.727158 0.768293 -4.052868
v 3.478376 0.726970 -4.162071
v 4.799088 0.737347 -3.971105
v 3.478376 0.735972 -3.921673
v -4.747989 2.278941 2.326432
v -4.774715 0.771701 3.483314
v -4.758730 0.732831 2.326432
v -4.844474 2.210122 3.375309
v -4.852122 0.771701 2.917940
v -4.842101 2.210122 2.426069
v -4.873264 2.267827 3.375180
v -4.904249 0.768293 3.377165
v -4.842279 0.768293 3.373196
v -4.904249 0.768293 2.902674
v -4.873264 2.267828 2.900689
v -4.842279 0.768293 2.898704
v -4.904249 0.768293 2.428182
v -4.873264 2.267827 2.426197
v -4.842279 0.768293 2.424213
v -5.014262 0.735869 2.304578
v -4.822462 0.737348 3.445106
v -4.772234 0.727074 2.304578
v -4.758730 2.278941 -2.318846
v -4.747989 0.732831 -2.318845
v -4.774887 0.771701 -3.475762
v -4.852122 0.771701 -2.875851
v -4.842102 2.210122 -3.367723
v -4.844474 2.210121 -2.418483
v -4.873264 2.267826 -2.418611
v -4.904249 0.768293 -2.416627
v -4.842279 0.768293 -2.420595
v -4.904249 0.768292 -2.891118
v -4.873264 2.267827 -2.893103
v -4.842279 0.768292 -2.895087
v -4.904249 0.768293 -3.365610
v -4.873264 2.267826 -3.367594
v -4.842279 0.768293 -3.369578
v -4.772234 0.735869 -2.296992
v -4.822462 0.737347 -3.437519
v -5.014262 0.727074 -2.296991
v 3.498365 0.771702 4.340519
v 2.341159 0.732834 4.324538
v 2.341159 2.278940 4.313800
v 2.440824 2.210122 4.407887
v 2.932833 0.771702 4.417905
v 3.390331 2.210122 4.410258
v 3.390202 2.267826 4.439040
v 3.388217 0.768293 4.408065
v 3.392187 0.768294 4.470016
v 2.915577 2.267827 4.439040
v 2.913592 0.768293 4.408064
v 2.917563 0.768293 4.470016
v 2.440953 2.267826 4.439040
v 2.438968 0.768293 4.408064
v 2.442938 0.768294 4.470016
v 2.319299 0.735869 4.580000
v 3.460146 0.737348 4.388253
v 2.319299 0.727074 4.338039
v -2.305422 2.278940 4.324538
v -3.462663 0.771702 4.340691
v -2.305422 0.732834 4.313800
v -2.405087 2.210122 4.410258
v -2.862584 0.771702 4.417905
v -3.354594 2.210122 4.407887
v -2.405216 2.267826 4.439040
v -2.407200 0.768293 4.408064
v -2.403231 0.768294 4.470016
v -2.877855 0.768293 4.470016
v -2.881825 0.768293 4.408064
v -2.879840 2.267827 4.439040
v -3.354465 2.267826 4.439040
v -3.356450 0.768293 4.408065
v -3.352480 0.768294 4.470016
v -3.476118 0.735869 4.580000
v -2.335271 0.737348 4.388253
v -3.476119 0.727074 4.338039
v 4.794467 0.732831 -2.318845
v 4.724299 0.808477 -3.979438
v 4.783726 2.278941 -2.318845
v 4.887859 0.771701 -2.910354
v 4.877838 2.210121 -2.418483
v 4.880211 2.210122 -3.367723
v 4.909001 2.267826 -3.367594
v 4.939985 0.768293 -3.369578
v 4.878016 0.768293 -3.365610
v 4.939985 0.768292 -2.895087
v 4.878016 0.768292 -2.891118
v 4.909001 2.267827 -2.893103
v 4.909001 2.267826 -2.418611
v 4.878016 0.768293 -2.416627
v 4.939985 0.768293 -2.420595
v 5.049999 0.735868 -2.296992
v 4.858199 0.737347 -3.437519
v 4.807971 0.727074 -2.296992
v 4.810624 0.771701 3.483349
v 4.794467 2.278942 2.326432
v 4.783726 0.732832 2.326432
v 4.880211 2.210122 2.426069
v 4.887859 0.771701 2.883437
v 4.877838 2.210122 3.375309
v 4.909001 2.267827 2.426197
v 4.939985 0.768293 2.424213
v 4.878016 0.768293 2.428182
v 4.939985 0.768293 2.898704
v 4.909001 2.267828 2.900689
v 4.878016 0.768293 2.902674
v 4.939985 0.768293 3.373196
v 4.878016 0.768293 3.377165
v 4.909001 2.267827 3.375180
v 5.049999 0.727074 2.304577
v 4.807971 0.735869 2.304578
v 4.858199 0.737348 3.445106
v -3.163143 3.853084 -3.907308
v -4.836635 5.321795 -3.367594
v -3.163143 5.545091 -3.896736
v -4.393812 5.478765 -3.993095
v -3.264367 5.478765 -3.990757
v -3.846346 3.889473 -4.000758
v -4.395628 3.886065 -4.052869
v -4.393643 5.536456 -4.021893
v -4.391658 3.886065 -3.990918
v -3.829090 5.536457 -4.021892
v -3.831075 3.886065 -4.052869
v -3.827105 3.886065 -3.990918
v -3.264536 5.536457 -4.021893
v -3.266521 3.886065 -4.052869
v -3.262551 3.886065 -3.990918
v -4.463588 3.855119 -3.971105
v -3.142877 3.853744 -4.162072
v -3.142877 3.844744 -3.921673
v -1.191367 3.926278 -3.979439
v -2.896303 3.853086 -3.896738
v -2.896303 5.545089 -3.907306
v -2.795077 5.478765 -3.993095
v -2.247610 3.889473 -4.000758
v -1.665631 5.478765 -3.990757
v -2.794907 5.536456 -4.021893
v -2.796892 3.886065 -4.052869
v -2.792922 3.886065 -3.990918
v -2.230354 5.536456 -4.021892
v -2.232339 3.886065 -4.052869
v -2.228369 3.886065 -3.990918
v -1.663815 3.886065 -3.990918
v -1.665800 5.536457 -4.021893
v -1.667785 3.886065 -4.052869
v -2.916566 3.844743 -4.162071
v -1.595855 3.855119 -3.971105
v -2.916567 3.853745 -3.921673
v -1.670604 5.471898 -3.979439
v 0.034331 5.545089 -3.896738
v 0.034331 3.853086 -3.907306
v -0.066895 5.478765 -3.990757
v -1.196341 5.478765 -3.993095
v -0.648874 3.889473 -4.000758
v -1.196172 5.536457 -4.021893
v -1.198157 3.886065 -4.052869
v -1.194187 3.886065 -3.990918
v -0.631618 5.536456 -4.021892
v -0.629633 3.886065 -3.990918
v -0.633603 3.886065 -4.052869
v -0.067064 5.536457 -4.021893
v -0.065079 3.886065 -3.990918
v -0.069049 3.886065 -4.052869
v -1.317830 3.844743 -4.162071
v 0.002880 3.855119 -3.971105
v -1.317831 3.853745 -3.921674
v -0.071869 5.471898 -3.979439
v 1.633067 5.545089 -3.896738
v 1.633067 3.853086 -3.907306
v 0.402395 5.478765 -3.993095
v 0.949862 3.889473 -4.000758
v 1.531841 5.478765 -3.990757
v 0.400579 3.886065 -4.052869
v 0.402564 5.536457 -4.021893
v 0.404549 3.886065 -3.990918
v 0.967118 5.536456 -4.021892
v 0.965133 3.886065 -4.052869
v 0.969103 3.886065 -3.990918
v 1.531672 5.536457 -4.021893
v 1.533657 3.886065 -3.990918
v 1.529686 3.886065 -4.052869
v 1.653330 3.853745 -4.162071
v 1.653330 3.844743 -3.921673
v 0.332620 3.855119 -3.971105
v 1.899905 5.545089 -3.907306
v 1.899904 3.853086 -3.896738
v 3.604840 3.926278 -3.979439
v 2.548597 3.889473 -4.000758
v 2.001131 5.478765 -3.993095
v 3.130577 5.478765 -3.990757
v 1.999315 3.886065 -4.052869
v 2.001300 5.536457 -4.021892
v 2.003285 3.886065 -3.990918
v 2.565854 5.536456 -4.021892
v 2.563869 3.886065 -4.052869
v 2.567839 3.886065 -3.990918
v 3.128422 3.886065 -4.052869
v 3.132392 3.886065 -3.990918
v 3.130408 5.536456 -4.021893
v 1.931355 3.855119 -3.971105
v 3.252067 3.853744 -4.162072
v 3.252067 3.844744 -3.921673
v 4.885677 5.321795 -3.367594
v 3.498642 5.545090 -3.907306
v 3.498642 3.853086 -3.896738
v 3.599867 5.478765 -3.993095
v 4.147333 3.889473 -4.000758
v 4.729312 5.478765 -3.990757
v 3.598051 3.886065 -4.052869
v 3.600036 5.536456 -4.021893
v 3.602021 3.886065 -3.990918
v 4.164590 5.536457 -4.021893
v 4.166575 3.886065 -3.990918
v 4.162605 3.886065 -4.052869
v 4.729144 5.536457 -4.021893
v 4.727158 3.886065 -4.052869
v 4.731129 3.886065 -3.990918
v 4.799088 3.855119 -3.971105
v 3.478376 3.853745 -3.921673
v 3.478377 3.844744 -4.162072
v -4.774715 3.889473 3.483313
v -4.758730 3.850603 2.326432
v -4.747989 5.396713 2.326431
v -4.852122 5.367900 2.883437
v -4.842102 3.919423 3.375309
v -4.844474 3.919423 2.426069
v -4.873264 5.385598 3.375180
v -4.904249 3.886065 3.377165
v -4.842279 3.886065 3.373196
v -4.904249 3.886065 2.902673
v -4.873264 5.385598 2.900689
v -4.842279 3.886065 2.898704
v -4.873264 5.385597 2.426197
v -4.904249 3.886065 2.428182
v -4.842279 3.886065 2.424213
v -5.014263 3.853642 2.304578
v -4.772233 3.844847 2.304578
v -4.822462 3.855119 3.445105
v -4.774887 3.889473 -3.475762
v -4.747989 3.850603 -2.318845
v -4.758730 5.396713 -2.318846
v -4.844474 3.919423 -3.367723
v -4.852122 5.367900 -2.910354
v -4.842101 3.919423 -2.418483
v -4.873264 5.385597 -2.418612
v -4.842279 3.886065 -2.420595
v -4.904249 3.886065 -2.416627
v -4.873264 5.385598 -2.893103
v -4.904249 3.886064 -2.891118
v -4.842279 3.886065 -2.895087
v -4.873264 5.385597 -3.367595
v -4.904249 3.886065 -3.365610
v -4.842279 3.886065 -3.369579
v -5.014263 3.844847 -2.296992
v -4.772234 3.853641 -2.296992
v -4.822462 3.855119 -3.437519
v 3.498365 3.889473 4.340518
v 2.341159 3.850605 4.324537
v 2.341159 5.396711 4.313800
v 2.898321 5.367901 4.417904
v 3.390331 3.919423 4.407886
v 2.440824 3.919423 4.410258
v 3.390202 5.385598 4.439040
v 3.388217 3.886065 4.408064
v 3.392187 3.886065 4.470016
v 2.917563 3.886065 4.470016
v 2.915577 5.385599 4.439040
v 2.913592 3.886065 4.408064
v 2.438968 3.886065 4.408064
v 2.440953 5.385598 4.439040
v 2.442938 3.886065 4.470016
v 3.460146 3.855119 4.388252
v 2.319299 3.844847 4.338038
v 2.319299 3.853642 4.579999
v -2.305422 5.396711 4.324537
v -2.305422 3.850605 4.313800
v -3.462663 3.889473 4.340691
v -3.354593 3.919423 4.410257
v -2.897096 5.367901 4.417904
v -2.405087 3.919423 4.407886
v -2.405216 5.385598 4.439040
v -2.403230 3.886065 4.470016
v -2.407201 3.886065 4.408064
v -2.879840 5.385599 4.439040
v -2.881826 3.886065 4.408064
v -2.877855 3.886065 4.470016
v -3.354465 5.385598 4.439040
v -3.356450 3.886065 4.408064
v -3.352480 3.886065 4.470016
v -3.476118 3.853642 4.579999
v -2.335271 3.855119 4.388252
v -3.476118 3.844847 4.338038
v 4.724299 3.926249 -3.979439
v 4.794467 3.850603 -2.318846
v 4.783726 5.396713 -2.318846
v 4.877838 3.919423 -3.367723
v 4.887859 5.367900 -2.875851
v 4.880211 3.919423 -2.418483
v 4.909001 5.385597 -3.367594
v 4.878016 3.886065 -3.365610
v 4.939985 3.886065 -3.369579
v 4.939985 3.886064 -2.895087
v 4.909001 5.385598 -2.893103
v 4.878016 3.886065 -2.891118
v 4.909001 5.385597 -2.418612
v 4.939985 3.886065 -2.420596
v 4.878016 3.886065 -2.416627
v 5.050000 3.844847 -3.489214
v 4.807971 3.853641 -3.489213
v 4.858199 3.855119 -2.348686
v 4.794467 5.396713 2.326432
v 4.783726 3.850604 2.326431
v 4.810624 3.889473 3.483348
v 4.887859 5.367900 2.917940
v 4.877838 3.919423 2.426069
v 4.880211 3.919423 3.375309
v 4.939985 3.886065 2.424213
v 4.878016 3.886065 2.428182
v 4.909001 5.385597 2.426197
v 4.909001 5.385598 2.900689
v 4.878016 3.886065 2.902673
v 4.939985 3.886065 2.898704
v 4.939985 3.886065 3.373196
v 4.878016 3.886065 3.377165
v 4.909001 5.385598 3.375180
v 5.050000 3.844847 2.304578
v 4.807971 3.853642 2.304578
v 4.858199 3.855119 3.445105
v -4.836635 8.439568 -3.367595
v -3.163143 8.662864 -3.896737
v -3.163144 6.970855 -3.907308
v -3.264367 8.596538 -3.990757
v -4.393812 8.596538 -3.993095
v -3.846346 7.007245 -4.000758
v -4.395628 7.003837 -4.052868
v -4.393643 8.654229 -4.021893
v -4.391658 7.003837 -3.990918
v -3.827105 8.639940 -4.052869
v -3.829090 6.989547 -4.021893
v -3.831075 8.639940 -3.990918
v -3.262551 8.639940 -4.052868
v -3.266521 8.639940 -3.990918
v -3.264536 6.989547 -4.021893
v -4.463588 6.972891 -3.971106
v -3.142877 6.962515 -3.921673
v -3.142877 6.971516 -4.162072
v -2.896303 8.662862 -3.907306
v -2.896303 6.970858 -3.896738
v -1.191367 7.044049 -3.979439
v -2.795077 8.596538 -3.993095
v -1.665631 8.596538 -3.990757
v -2.247610 7.007245 -4.000758
v -2.796892 7.003837 -4.052868
v -2.794907 8.654229 -4.021893
v -2.792922 7.003837 -3.990918
v -2.230354 8.654229 -4.021893
v -2.228369 7.003837 -3.990918
v -2.232339 7.003837 -4.052868
v -1.667785 7.003837 -4.052869
v -1.665800 8.654229 -4.021893
v -1.663815 7.003837 -3.990918
v -2.916566 6.962515 -4.162072
v -2.916566 6.971517 -3.921673
v -1.595855 6.972891 -3.971106
v -1.670604 8.589669 -3.979439
v 0.034330 6.970858 -3.907306
v 0.034331 8.662862 -3.896738
v -0.648874 7.007245 -4.000758
v -0.066895 8.596538 -3.990757
v -1.196341 8.596538 -3.993095
v -1.198156 7.003837 -4.052868
v -1.196172 8.654229 -4.021893
v -1.194187 7.003837 -3.990918
v -0.629633 8.639940 -4.052868
v -0.631618 6.989547 -4.021893
v -0.633603 8.639940 -3.990918
v -0.069049 7.003837 -4.052868
v -0.065079 7.003837 -3.990918
v -0.067064 8.654229 -4.021893
v -1.317830 6.962515 -4.162072
v 0.002880 6.972891 -3.971106
v -1.317830 6.971517 -3.921674
v -0.071869 8.589669 -3.979439
v 1.633067 8.662861 -3.896739
v 1.633067 6.970858 -3.907306
v 0.402395 8.596538 -3.993095
v 0.949862 7.007245 -4.000758
v 1.531841 8.596538 -3.990757
v 0.400579 8.639940 -3.990918
v 0.402564 6.989548 -4.021893
v 0.404549 8.639940 -4.052868
v 0.967118 8.654229 -4.021893
v 0.965133 7.003837 -4.052868
v 0.969103 7.003837 -3.990918
v 1.531672 6.989547 -4.021893
v 1.529686 8.639941 -3.990918
v 1.533657 8.639940 -4.052869
v 0.332620 6.972891 -3.971106
v 1.653330 6.962515 -3.921673
v 1.653330 6.971516 -4.162072
v 1.899904 8.662862 -3.907306
v 3.604840 7.044049 -3.979439
v 1.899905 6.970858 -3.896738
v 3.130577 8.596538 -3.990757
v 2.001131 8.596538 -3.993095
v 2.548597 7.007245 -4.000758
v 2.001300 8.654230 -4.021892
v 2.003285 7.003837 -3.990918
v 1.999315 7.003837 -4.052869
v 2.563869 8.639940 -3.990918
v 2.567839 8.639940 -4.052869
v 2.565854 6.989548 -4.021893
v 3.132392 7.003837 -3.990918
v 3.130407 8.654229 -4.021893
v 3.128422 7.003837 -4.052869
v 3.252066 6.971516 -4.162072
v 1.931355 6.972891 -3.971106
v 3.252067 6.962515 -3.921673
v 3.498641 8.662862 -3.907306
v 4.885677 8.439568 -3.367595
v 3.498642 6.970857 -3.896738
v 4.147333 7.007245 -4.000758
v 4.729312 8.596538 -3.990757
v 3.599867 8.596538 -3.993095
v 3.600036 8.654229 -4.021893
v 3.602021 7.003837 -3.990918
v 3.598051 7.003837 -4.052868
v 4.162605 8.639940 -3.990918
v 4.166575 8.639940 -4.052869
v 4.164590 6.989547 -4.021892
v 4.729144 8.654229 -4.021893
v 4.731129 7.003837 -3.990918
v 4.727158 7.003837 -4.052868
v 3.478377 6.962515 -4.162072
v 4.799088 6.972891 -3.971106
v 3.478377 6.971516 -3.921673
v -4.758730 6.968375 2.326432
v -4.774715 7.007246 3.483313
v -4.747988 8.514485 2.326432
v -4.844474 8.445665 3.375308
v -4.852122 7.007245 2.917940
v -4.842101 8.445665 2.426069
v -4.904249 8.489081 3.373196
v -4.873264 6.989547 3.375180
v -4.842279 8.489081 3.377164
v -4.904249 8.489081 2.898704
v -4.873264 6.989546 2.900689
v -4.842279 8.489081 2.902673
v -4.873264 8.503370 2.426197
v -4.904249 7.003837 2.428181
v -4.842279 7.003837 2.424213
v -4.822462 6.972891 2.356272
v -5.014263 6.962619 3.496799
v -4.772233 6.971413 3.496799
v -4.758730 8.514486 -2.318847
v -4.747989 6.968376 -2.318846
v -4.774887 7.007245 -3.475763
v -4.852122 7.007245 -2.875851
v -4.844474 8.445665 -2.418484
v -4.842101 8.445665 -3.367723
v -4.842279 7.003837 -2.420596
v -4.904249 7.003837 -2.416627
v -4.873264 8.503370 -2.418612
v -4.842279 8.489081 -2.891118
v -4.904249 8.489081 -2.895088
v -4.873264 6.989546 -2.893103
v -4.842279 8.489080 -3.365611
v -4.873264 6.989547 -3.367594
v -4.904249 8.489081 -3.369579
v -5.014263 6.971412 -3.489213
v -4.822462 6.972891 -2.348686
v -4.772233 6.962618 -3.489213
v 3.498365 7.007246 4.340518
v 2.341159 8.514483 4.313799
v 2.341159 6.968378 4.324537
v 2.932833 7.007246 4.417904
v 2.440824 8.445665 4.407886
v 3.390331 8.445665 4.410258
v 3.390202 8.503370 4.439040
v 3.392187 7.003837 4.470016
v 3.388217 7.003837 4.408064
v 2.913592 7.003837 4.408064
v 2.915577 8.503371 4.439040
v 2.917562 7.003837 4.470016
v 2.438968 8.489080 4.470016
v 2.440953 6.989548 4.439040
v 2.442937 8.489080 4.408064
v 2.319299 6.971413 4.580000
v 2.319299 6.962619 4.338038
v 3.460146 6.972892 4.388252
v -3.462663 7.007246 4.340691
v -2.305422 6.968378 4.313800
v -2.305423 8.514483 4.324537
v -3.354593 8.445665 4.407886
v -2.405087 8.445665 4.410258
v -2.862584 7.007246 4.417904
v -2.405216 8.503370 4.439040
v -2.403230 7.003838 4.470016
v -2.407200 7.003837 4.408064
v -2.879840 8.503371 4.439040
v -2.881825 7.003837 4.408064
v -2.877855 7.003837 4.470016
v -3.356450 8.489080 4.470016
v -3.352480 8.489080 4.408064
v -3.354465 6.989548 4.439040
v -2.283563 6.962619 4.580000
v -3.424409 6.972892 4.388252
v -2.283562 6.971413 4.338038
v 4.794467 6.968375 -2.318846
v 4.724299 7.044021 -3.979439
v 4.783725 8.514485 -2.318846
v 4.877838 8.445665 -2.418484
v 4.887859 7.007245 -2.910354
v 4.880211 8.445665 -3.367723
v 4.939985 8.489081 -3.365611
v 4.909001 6.989547 -3.367595
v 4.878016 8.489080 -3.369579
v 4.939985 8.489081 -2.891118
v 4.909001 6.989546 -2.893103
v 4.878016 8.489081 -2.895088
v 4.939985 7.003837 -2.420596
v 4.909001 8.503370 -2.418612
v 4.878016 7.003837 -2.416627
v 4.858199 6.972891 -2.348686
v 5.050000 6.962618 -3.489213
v 4.807970 6.971412 -3.489213
v 4.794467 8.514486 2.326432
v 4.810624 7.007246 3.483348
v 4.783726 6.968375 2.326432
v 4.887859 7.007245 2.883437
v 4.880211 8.445665 2.426069
v 4.877838 8.445665 3.375308
v 4.909001 6.989547 2.426197
v 4.878016 8.489080 2.424212
v 4.939985 8.489081 2.428181
v 4.939985 8.489081 2.902673
v 4.878016 8.489081 2.898704
v 4.909001 6.989546 2.900689
v 4.939985 8.489081 3.377164
v 4.909001 6.989547 3.375180
v 4.878016 8.489081 3.373196
v 5.050000 6.971413 3.496799
v 4.858199 6.972891 2.356272
v 4.807970 6.962619 3.496799
v 0.883680 0.078619 -4.048371
v -0.847943 0.078619 -4.035374
v -0.757395 0.167196 -4.130375
v -0.003557 2.431160 -3.976181
v 0.793132 0.167196 -4.133175
v 0.017868 2.296723 -4.161743
v 0.015854 0.164870 -4.190157
v 0.019883 0.164870 -4.133329
v -0.102037 0.913061 -4.221679
v -0.104158 1.336344 -4.187871
v -0.099915 1.336344 -4.255486
v 0.137774 0.913061 -4.221679
v 0.139895 1.336344 -4.255486
v 0.135652 1.336344 -4.187871
v -1.682445 2.395113 -4.049363
v 1.672279 2.663853 -4.745000
v 1.672278 2.651046 -3.878161
v -2.979761 3.570831 -3.958536
v 3.027498 2.924162 -4.040010
v 3.027500 3.577504 -4.023749
v -1.093500 9.980300 1.562123
v -1.905611 9.648954 2.021957
v -1.905611 10.289302 1.581775
v -1.244700 10.240218 1.551326
v -1.552122 9.845338 1.547897
v -1.105915 9.863146 1.554564
v -1.105191 9.825811 1.522166
v -1.531161 9.824668 1.509424
v -1.531161 9.826954 1.534907
v -1.110984 9.894340 1.509424
v -1.536955 9.893196 1.522165
v -1.110984 9.892054 1.534907
v -1.531162 9.959436 1.509424
v -1.531162 9.961722 1.534907
v -1.105191 9.960580 1.522166
v -1.105191 10.027964 1.522166
v -1.531161 10.029107 1.534907
v -1.531161 10.026820 1.509424
v -1.531162 10.108176 1.521030
v -1.105191 10.095348 1.522166
v -1.531162 10.082520 1.523301
v -1.531162 10.161590 1.509424
v -1.105191 10.162732 1.522166
v -1.531162 10.163875 1.534907
v -1.726206 10.165512 1.558638
v -1.770717 9.776793 1.557128
v -1.815228 10.165512 1.555618
v -1.780709 9.607064 1.485040
v -1.828608 9.610271 2.099060
v -1.732811 9.603857 2.099060
v -1.229082 9.610271 2.099060
v -1.133285 9.603857 2.099060
v -1.181183 9.607064 1.485040
v 0.405315 9.980300 1.562123
v -0.406796 10.289302 1.581775
v -0.406796 9.648954 2.021957
v 0.446825 9.980223 1.556370
v -0.015571 10.167484 1.552941
v 0.051551 9.771087 1.549703
v -0.038140 9.825811 1.522166
v 0.387831 9.824668 1.534907
v 0.387831 9.826954 1.509424
v 0.393624 9.893196 1.522166
v -0.032347 9.894340 1.534907
v -0.032347 9.892054 1.509425
v -0.038140 9.960580 1.522166
v 0.387831 9.961722 1.509424
v 0.387831 9.959436 1.534907
v -0.038140 10.027964 1.522166
v 0.387831 10.029107 1.509424
v 0.387831 10.026820 1.534907
v 0.387831 10.108176 1.523301
v -0.038140 10.095348 1.522166
v 0.387831 10.082520 1.521030
v -0.038140 10.162731 1.522166
v 0.387831 10.161590 1.534907
v 0.387831 10.163875 1.509424
v -0.316414 10.165512 1.555618
v -0.271902 9.776793 1.557128
v -0.227391 10.165512 1.558638
v -0.281895 9.607064 1.485040
v -0.329793 9.610271 2.099060
v -0.233996 9.603857 2.099060
v 0.317632 9.607064 1.485040
v 0.365530 9.603857 2.099060
v 0.269733 9.610271 2.099060
v 1.092019 10.289302 1.581775
v 1.092019 9.648954 2.021957
v 1.904130 9.980300 1.562123
v 1.752930 10.240218 1.551326
v 1.891715 9.863146 1.554564
v 1.445508 9.845338 1.547897
v 1.892439 9.825811 1.522166
v 1.466468 9.826954 1.534907
v 1.466468 9.824668 1.509424
v 1.466468 9.892054 1.509425
v 1.892439 9.893196 1.522166
v 1.466468 9.894340 1.534907
v 1.466468 9.959436 1.509424
v 1.892439 9.960580 1.522166
v 1.466468 9.961722 1.534907
v 1.466468 10.026820 1.509424
v 1.892439 10.027964 1.522166
v 1.466468 10.029107 1.534907
v 1.466468 10.108176 1.521030
v 1.892439 10.095348 1.522166
v 1.466468 10.082520 1.523301
v 1.466468 10.163875 1.534907
v 1.466468 10.161590 1.509424
v 1.892439 10.162732 1.522166
v 1.182401 10.165512 1.555618
v 1.226912 9.776793 1.557128
v 1.271423 10.165512 1.558638
v 1.216920 9.607064 1.485040
v 1.169022 9.610271 2.099060
v 1.264819 9.603857 2.099060
v 1.816446 9.607064 1.485040
v 1.864345 9.603857 2.099060
v 1.768548 9.610271 2.099060
v 4.050516 9.478761 1.021680
v 4.080464 9.478513 0.985119
v 4.067355 10.600000 1.002722
v -4.574941 0.020966 4.242811
v -4.574403 9.192911 4.198778
v -4.578981 9.181643 4.286527
v 4.617790 0.020966 4.242810
v 4.648627 9.180934 4.206048
v 4.588521 9.193776 4.268721
v -0.375251 2.189785 4.288216
v -0.397692 0.377019 4.234172
v 0.433429 0.377019 4.224359
v 0.985082 1.737205 4.147763
v 0.985127 1.234339 4.147856
v 0.649346 1.234339 4.310674
vn -0.6924 0.7208 0.0330
vn 0.0003 -0.7045 0.7097
vn -0.0000 -0.7047 0.7095
vn -0.0000 -0.7047 -0.7095
vn 0.4477 -0.0949 -0.8891
vn 0.4480 -0.0947 -0.8890
vn -0.7025 -0.6980 -0.1392
vn -0.9105 -0.4136 -0.0000
vn -0.7095 -0.7047 -0.0000
vn -0.9995 -0.0314 -0.0000
vn 0.7070 -0.0000 -0.7072
vn -0.7025 0.6979 0.1392
vn 0.7025 -0.6979 0.1393
vn 0.7025 0.6979 -0.1392
vn 0.9105 -0.4135 -0.0000
vn 0.7095 -0.7047 -0.0000
vn 0.9995 -0.0314 -0.0000
vn 0.7095 0.7047 -0.0000
vn -0.9962 -0.0868 0.0008
vn -0.8017 0.5977 -0.0013
vn -0.4790 0.8778 -0.0023
vn 0.0473 0.9988 -0.0094
vn 0.7206 0.6933 0.0005
vn 0.0470 0.9989 -0.0038
vn -0.0000 -0.6356 -0.7720
vn -0.7697 0.6384 -0.0000
vn -0.0000 0.7335 -0.6797
vn 0.0123 0.5269 0.8498
vn -0.0145 0.4113 0.9114
vn -0.0123 -0.5269 0.8498
vn 0.5836 0.0434 -0.8109
vn 0.9940 0.0003 -0.1093
vn 0.0006 -0.0002 1.0000
vn -0.0000 -0.6356 0.7720
vn -0.0124 0.5280 -0.8491
vn 0.0145 0.4113 -0.9114
vn 0.0123 -0.5269 -0.8498
vn -1.0000 0.0089 -0.0004
vn -0.9013 0.4332 -0.0000
vn -0.7113 0.7029 -0.0000
vn -0.0000 -0.0000 -0.0000
vn -0.0005 -0.1841 -0.9829
vn 0.0004 -0.3026 -0.9531
vn -0.0000 -0.7047 -0.7096
vn -0.7698 -0.6383 -0.0000
vn -0.0389 -0.9992 -0.0000
vn 0.0145 -0.4110 0.9115
vn 0.9203 -0.3912 -0.0000
vn 0.7699 -0.6382 -0.0000
vn -0.0145 -0.4110 -0.9115
vn -0.6723 -0.0000 0.7403
vn -0.6362 0.0072 0.7715
vn -0.0682 0.9977 -0.0016
vn 0.7071 -0.7071 -0.0000
vn 0.0001 0.7173 0.6968
vn 0.0002 0.0015 1.0000
vn -0.0000 0.0155 0.9999
vn -0.0010 0.6872 0.7265
vn 0.8526 0.5226 -0.0003
vn 0.9995 0.0305 0.0008
vn 0.9996 0.0298 0.0004
vn -0.0000 0.7022 -0.7120
vn 0.0381 -0.9993 -0.0007
vn -0.0000 -1.0000 -0.0000
vn -0.9962 -0.0866 0.0012
vn -1.0000 -0.0000 -0.0000
vn 0.9998 0.0193 -0.0000
vn 1.0000 0.0088 0.0001
vn -0.0028 0.6829 -0.7305
vn -0.3613 0.9324 -0.0007
vn -0.0148 0.0063 0.9999
vn -0.0000 -0.0000 1.0000
vn -1.0000 0.0055 -0.0002
vn 0.0001 0.0036 -1.0000
vn -0.0000 -0.0000 -1.0000
vn -0.9999 -0.0164 0.0007
vn -0.9999 -0.0165 0.0007
vn -0.8968 0.4424 -0.0000
vn -0.9995 0.0303 -0.0000
vn -0.6999 -0.0137 0.7141
vn -0.9999 -0.0164 -0.0000
vn 0.0012 1.0000 -0.0000
vn -0.0000 0.9998 0.0190
vn -0.0000 1.0000 -0.0000
vn 0.9999 -0.0164 -0.0000
vn 0.9245 0.3812 -0.0000
vn 0.9995 0.0314 -0.0000
vn 1.0000 -0.0000 -0.0000
vn -0.0093 1.0000 -0.0000
vn -0.0196 0.9998 0.0017
vn -0.0196 0.9998 -0.0001
vn -0.0091 1.0000 -0.0000
vn -0.9923 -0.1240 -0.0000
vn -0.0932 -0.0621 0.9937
vn -0.1231 -0.1231 0.9847
vn -0.0932 -0.0582 0.9939
vn -0.0000 -0.0108 -0.9999
vn -0.0000 -0.0149 -0.9999
vn -0.0000 -0.0136 -0.9999
vn 0.0933 -0.9956 -0.0000
vn 0.0933 -0.9956 -0.0039
vn 0.0276 -0.8084 -0.5879
vn 0.0227 -0.6868 -0.7265
vn 0.0314 -0.7424 -0.6692
vn -0.0454 0.6862 -0.7259
vn -0.0555 0.8043 -0.5917
vn -0.0562 0.9984 -0.0000
vn 0.6643 0.0156 0.7473
vn 0.6246 0.0195 0.7807
vn -0.0000 -0.8944 -0.4472
vn -0.0000 -0.9701 -0.2425
vn -0.0000 -0.7071 -0.7071
vn -0.9231 -0.0000 -0.3846
vn -0.9457 -0.0000 -0.3251
vn -0.9363 -0.0000 -0.3511
vn 0.6000 0.0062 -0.8000
vn 0.6000 -0.0000 -0.8000
vn 0.7071 0.0055 -0.7071
vn 0.0926 0.9957 -0.0000
vn 0.0905 0.9959 -0.0000
vn -0.9999 -0.0000 -0.0129
vn -0.9996 -0.0000 -0.0274
vn -0.9999 -0.0000 -0.0139
vn -0.4961 -0.8682 -0.0000
vn -0.4706 -0.8824 -0.0000
vn -0.4472 -0.8944 -0.0000
vn -0.2577 -0.9662 -0.0000
vn 0.9895 -0.1443 -0.0000
vn 0.9819 -0.1892 -0.0000
vn 0.9719 -0.2354 -0.0000
vn 0.9939 -0.0000 0.1106
vn 0.9940 -0.0000 0.1089
vn 0.9917 -0.0000 0.1284
vn -0.0000 -0.0058 1.0000
vn -0.0000 -0.0084 1.0000
vn -0.0000 -0.0071 1.0000
vn 0.4500 0.0035 0.8930
vn 0.3285 0.0026 0.9445
vn 0.3924 0.0061 0.9198
vn -0.0000 -0.8039 -0.5948
vn -0.0000 -0.7380 -0.6748
vn 0.0512 0.9987 -0.0000
vn 0.0376 0.7983 -0.6011
vn 0.0213 0.7305 -0.6825
vn -0.0000 -0.0231 -0.9997
vn -0.0000 -0.0217 -0.9998
vn -0.0308 -0.9857 -0.1656
vn -0.0307 -0.9831 -0.1805
vn -0.1961 -0.0000 -0.9806
vn -0.0000 -0.0112 -0.9999
vn -0.0000 -0.0116 -0.9999
vn -0.0000 -0.0096 -1.0000
vn 0.2747 0.9615 -0.0000
vn 0.2793 0.9602 -0.0000
vn 0.2890 0.9573 -0.0000
vn -0.9999 -0.0000 0.0129
vn -0.9999 -0.0000 0.0137
vn -0.9999 -0.0000 0.0139
vn 0.3104 -0.9506 -0.0000
vn 0.4626 -0.8866 -0.0000
vn 0.4327 -0.9015 -0.0000
vn -0.9997 -0.0000 -0.0259
vn -0.2873 -0.9578 -0.0000
vn -0.3560 -0.9345 -0.0000
vn -0.3523 -0.9359 -0.0000
vn -0.1414 0.9899 -0.0000
vn -0.1493 0.9888 -0.0000
vn 0.6592 0.7519 -0.0000
vn 0.7127 0.7015 -0.0000
vn -0.9999 -0.0000 -0.0137
vn 0.3541 0.0083 -0.9352
vn -0.0000 0.0086 -1.0000
vn 0.4258 0.0067 -0.9048
vn -0.0000 0.8944 -0.4472
vn 0.6438 0.0302 -0.7646
vn 0.5026 0.0353 -0.8638
vn 0.5792 0.0317 -0.8145
vn -0.0000 0.9231 -0.3846
vn -0.0000 0.9417 -0.3363
vn 0.0367 -0.8082 -0.5878
vn 0.0330 -0.9995 -0.0000
vn -0.0114 0.6869 0.7267
vn -0.0184 0.8070 0.5903
vn -0.7999 0.0156 -0.5999
vn -0.7760 0.0152 -0.6305
vn -0.0000 0.9701 0.2425
vn -0.0000 0.9487 0.3162
vn 0.9991 -0.0000 -0.0416
vn 0.9995 -0.0000 -0.0312
vn -0.3924 0.0031 -0.9198
vn -0.5278 0.0041 -0.8494
vn -0.4645 0.0036 -0.8855
vn -0.0000 0.8944 0.4472
vn -0.0075 0.0278 -0.9996
vn 0.0164 -0.9999 -0.0000
vn 0.0180 -0.9998 -0.0000
vn 0.0166 -0.9999 -0.0000
vn -0.3162 -0.9487 -0.0000
vn -0.0120 -0.9999 -0.0000
vn -0.0103 -0.9999 -0.0000
vn -0.0084 -1.0000 -0.0000
vn -0.9494 -0.0000 0.3141
vn -0.9669 -0.0000 0.2550
vn -0.9299 -0.0000 0.3679
vn -1.0000 -0.0088 -0.0003
vn 0.2637 -0.6794 0.6847
vn 0.0520 0.1336 0.9897
vn 0.0522 0.1338 0.9896
vn 0.0523 0.1341 0.9896
vn -0.3809 -0.3784 -0.8436
vn -0.7093 -0.7049 -0.0001
vn -0.7094 -0.7048 -0.0001
vn -0.7093 -0.7049 -0.0000
vn -0.7095 0.7047 -0.0000
vn -0.3809 0.3784 0.8437
vn 0.3810 -0.3784 0.8436
vn 0.3809 0.3784 -0.8436
vn 0.7094 -0.7048 0.0001
vn 0.7093 -0.7049 -0.0000
vn 0.7094 0.7048 -0.0000
vn 0.0473 -0.9988 0.0094
vn -0.0010 1.0000 0.0009
vn -0.0000 0.7047 0.7095
vn -0.0197 0.9998 0.0039
vn -0.0000 0.0164 -0.9999
vn 0.5772 0.8166 -0.0000
vn 0.0067 0.0173 -0.9998
vn 0.7697 0.6384 -0.0001
vn 0.0005 -0.7044 0.7098
vn -0.0473 -0.9988 -0.0094
vn -0.0000 0.9993 -0.0362
vn -0.0000 0.0036 -1.0000
vn -0.0000 -0.9993 0.0375
vn -0.0000 -0.0164 0.9999
vn -0.0000 -0.9993 -0.0375
vn 0.7070 -0.0000 0.7073
vn -0.0064 0.0167 0.9998
vn -0.0344 -0.0886 -0.9955
vn 0.3224 0.8306 0.4541
vn -0.6453 -0.7639 -0.0006
vn 1.0000 0.0072 -0.0000
vn 0.9148 -0.4039 -0.0000
vn -0.0000 -0.0001 1.0000
vn -0.8813 -0.0000 0.4726
vn 0.0006 -0.0161 0.9999
vn -0.4116 -0.0068 -0.9113
vn 0.0163 -0.0162 -0.9997
vn -0.0006 -0.0161 -0.9999
vn 0.9999 -0.0165 -0.0007
vn 0.4116 -0.0068 0.9113
vn -0.0080 0.0001 -1.0000
vn -0.0080 -0.0002 -1.0000
vn -0.0081 -0.0026 -1.0000
vn -0.0082 -0.0081 -0.9999
vt 0.556547 0.325833
vt 0.556544 0.325769
vt 0.556633 0.325769
vt 0.309782 0.153245
vt 0.309692 0.153245
vt 0.309692 0.153155
vt 0.431476 0.153245
vt 0.431386 0.153245
vt 0.431476 0.153155
vt 0.431476 0.008231
vt 0.431476 0.008370
vt 0.431386 0.008387
vt 0.431476 0.005807
vt 0.431476 0.005915
vt 0.431386 0.005897
vt 0.309652 0.005807
vt 0.309692 0.005897
vt 0.307288 0.005848
vt 0.129973 0.323334
vt 0.130063 0.323425
vt 0.130153 0.323515
vt 0.008279 0.323425
vt 0.008279 0.323317
vt 0.008370 0.323334
vt 0.309692 0.155718
vt 0.309692 0.155610
vt 0.309782 0.155628
vt 0.130063 0.173513
vt 0.130063 0.173621
vt 0.129973 0.173604
vt 0.431516 0.155718
vt 0.431476 0.155628
vt 0.433908 0.155628
vt 0.008279 0.173603
vt 0.008279 0.173513
vt 0.008370 0.173603
vt 0.428955 0.470665
vt 0.307310 0.470731
vt 0.307247 0.470639
vt 0.008335 0.321001
vt 0.130063 0.321002
vt 0.129973 0.321042
vt 0.005848 0.173604
vt 0.005867 0.323334
vt 0.559544 0.447906
vt 0.557821 0.447937
vt 0.557871 0.447839
vt 0.954595 0.382260
vt 0.954542 0.387688
vt 0.954541 0.382323
vt 0.556633 0.427898
vt 0.309692 0.153294
vt 0.132468 0.323384
vt 0.132445 0.173547
vt 0.130029 0.175922
vt 0.008370 0.175986
vt 0.008330 0.175913
vt 0.831811 0.906366
vt 0.831895 0.923274
vt 0.831604 0.923232
vt 0.690351 0.485619
vt 0.690586 0.502517
vt 0.690288 0.502529
vt 0.309782 0.005897
vt 0.431386 0.155628
vt 0.431476 0.153295
vt 0.307280 0.155628
vt 0.309692 0.008229
vt 0.433858 0.005840
vt 0.554779 0.325765
vt 0.554749 0.325875
vt 0.954633 0.399503
vt 0.954535 0.404868
vt 0.954553 0.399452
vt 0.005869 0.161838
vt 0.075351 0.005868
vt 0.144843 0.161840
vt 0.171968 0.404040
vt 0.275800 0.332004
vt 0.275791 0.475613
vt 0.005807 0.335509
vt 0.109175 0.406991
vt 0.005807 0.479059
vt 0.556231 0.269458
vt 0.557905 0.167331
vt 0.557905 0.269460
vt 0.556051 0.167457
vt 0.394115 0.482344
vt 0.394050 0.568852
vt 0.392350 0.568851
vt 0.307268 0.325831
vt 0.428959 0.325859
vt 0.431476 0.008279
vt 0.309782 0.008280
vt 0.407493 0.482344
vt 0.405728 0.569329
vt 0.405729 0.482350
vt 0.309692 0.008189
vt 0.287556 0.535862
vt 0.287560 0.535798
vt 0.287471 0.449302
vt 0.292854 0.449312
vt 0.291583 0.535829
vt 0.407018 0.569349
vt 0.558274 0.550423
vt 0.559544 0.447970
vt 0.392368 0.568817
vt 0.392351 0.482356
vt 0.952890 0.399418
vt 0.952827 0.404873
vt 0.952826 0.399508
vt 0.540603 0.534785
vt 0.540694 0.447870
vt 0.546167 0.447853
vt 0.546061 0.534850
vt 0.540693 0.534849
vt 0.952827 0.416726
vt 0.954542 0.422158
vt 0.952891 0.422090
vt 0.952827 0.382327
vt 0.160354 0.497661
vt 0.154899 0.497679
vt 0.160299 0.410616
vt 0.160264 0.497660
vt 0.157783 0.499428
vt 0.293035 0.332167
vt 0.287471 0.332202
vt 0.287561 0.332075
vt 0.154844 0.410763
vt 0.154844 0.410698
vt 0.287471 0.437612
vt 0.293034 0.437640
vt 0.154791 0.279519
vt 0.160354 0.173602
vt 0.160355 0.279544
vt 0.129973 0.321015
vt 0.154791 0.173577
vt 0.154790 0.173641
vt 0.539278 0.007530
vt 0.533823 0.007693
vt 0.533823 0.007629
vt 0.539190 0.094090
vt 0.536708 0.095855
vt 0.533825 0.094125
vt 0.571181 0.460932
vt 0.584969 0.447869
vt 0.584958 0.473928
vt 0.005807 0.566492
vt 0.019551 0.579413
vt 0.005830 0.592504
vt 0.602827 0.483519
vt 0.608964 0.507264
vt 0.596671 0.507287
vt 0.338042 0.604457
vt 0.344151 0.628198
vt 0.331912 0.628228
vt 0.125718 0.730065
vt 0.125981 0.754937
vt 0.125448 0.754935
vt 0.761239 0.422189
vt 0.761500 0.447061
vt 0.760970 0.447057
vt 0.759937 0.119983
vt 0.760198 0.144855
vt 0.759668 0.144852
vt 0.747374 0.082097
vt 0.747636 0.106969
vt 0.747104 0.106967
vt 0.462519 0.735863
vt 0.462780 0.760736
vt 0.462251 0.760732
vt 0.740241 0.045337
vt 0.740504 0.070209
vt 0.739971 0.070207
vt 0.534098 0.688550
vt 0.535917 0.709417
vt 0.532298 0.709428
vt 0.694520 0.380578
vt 0.692701 0.359711
vt 0.696319 0.359700
vt 0.569541 0.167375
vt 0.583324 0.180391
vt 0.569542 0.193474
vt 0.082173 0.579498
vt 0.095911 0.566383
vt 0.095900 0.592442
vt 0.602827 0.447951
vt 0.608963 0.471696
vt 0.596670 0.471719
vt 0.626783 0.519091
vt 0.632892 0.542832
vt 0.620653 0.542863
vt 0.761569 0.592837
vt 0.761831 0.617709
vt 0.761301 0.617706
vt 0.745182 0.695461
vt 0.745444 0.720333
vt 0.744912 0.720331
vt 0.761569 0.629487
vt 0.761831 0.654359
vt 0.761301 0.654356
vt 0.747486 0.514412
vt 0.747748 0.539284
vt 0.747216 0.539282
vt 0.747719 0.119984
vt 0.747982 0.144856
vt 0.747449 0.144854
vt 0.767887 0.323057
vt 0.768148 0.347930
vt 0.767618 0.347926
vt 0.706884 0.594068
vt 0.705084 0.614945
vt 0.703265 0.594078
vt 0.171998 0.696874
vt 0.173798 0.675996
vt 0.175617 0.696864
vt 0.571181 0.498694
vt 0.584969 0.485631
vt 0.584958 0.511690
vt 0.578910 0.043716
vt 0.592654 0.056637
vt 0.578933 0.069728
vt 0.610518 0.005919
vt 0.616654 0.029663
vt 0.604361 0.029686
vt 0.202026 0.607221
vt 0.208135 0.630962
vt 0.195896 0.630993
vt 0.761782 0.476527
vt 0.762043 0.501399
vt 0.761513 0.501395
vt 0.745628 0.167406
vt 0.745890 0.192278
vt 0.745358 0.192276
vt 0.742849 0.281148
vt 0.743112 0.306020
vt 0.742580 0.306018
vt 0.061779 0.737694
vt 0.062040 0.762566
vt 0.061510 0.762563
vt 0.748662 0.005881
vt 0.748925 0.030753
vt 0.748392 0.030751
vt 0.073995 0.737694
vt 0.074257 0.762566
vt 0.073727 0.762563
vt 0.066970 0.696088
vt 0.068770 0.675210
vt 0.070589 0.696078
vt 0.702393 0.281141
vt 0.700593 0.302019
vt 0.698774 0.281152
vt 0.556074 0.294167
vt 0.569862 0.281104
vt 0.569851 0.307163
vt 0.107612 0.566492
vt 0.121357 0.579413
vt 0.107636 0.592504
vt 0.626783 0.447955
vt 0.632892 0.471695
vt 0.620653 0.471726
vt 0.602827 0.519087
vt 0.608964 0.542832
vt 0.596671 0.542855
vt 0.086212 0.737694
vt 0.086473 0.762566
vt 0.085944 0.762563
vt 0.749021 0.422189
vt 0.749283 0.447061
vt 0.748751 0.447060
vt 0.137937 0.730065
vt 0.138200 0.754937
vt 0.137667 0.754935
vt 0.098429 0.737694
vt 0.098690 0.762566
vt 0.098160 0.762563
vt 0.735154 0.082097
vt 0.735417 0.106969
vt 0.734884 0.106967
vt 0.110646 0.737694
vt 0.110907 0.762566
vt 0.110377 0.762563
vt 0.308239 0.707885
vt 0.306420 0.687017
vt 0.310039 0.687007
vt 0.679227 0.359705
vt 0.681046 0.380573
vt 0.677427 0.380583
vt 0.306422 0.545003
vt 0.320205 0.558019
vt 0.306423 0.571101
vt 0.331923 0.579716
vt 0.345662 0.566602
vt 0.345651 0.592660
vt 0.602827 0.554655
vt 0.608964 0.578400
vt 0.596671 0.578423
vt 0.083722 0.604239
vt 0.089831 0.627980
vt 0.077592 0.628011
vt 0.755068 0.281148
vt 0.755331 0.306020
vt 0.754799 0.306018
vt 0.474736 0.735863
vt 0.474997 0.760736
vt 0.474467 0.760732
vt 0.690134 0.735973
vt 0.690395 0.760845
vt 0.689865 0.760842
vt 0.755069 0.244498
vt 0.755332 0.269370
vt 0.754799 0.269368
vt 0.584694 0.669967
vt 0.584957 0.694839
vt 0.584424 0.694837
vt 0.172236 0.738480
vt 0.172498 0.763352
vt 0.171968 0.763348
vt 0.407568 0.708433
vt 0.405749 0.687566
vt 0.409368 0.687555
vt 0.549381 0.688550
vt 0.551200 0.709417
vt 0.547581 0.709428
vt 0.569541 0.205137
vt 0.583324 0.218153
vt 0.569542 0.231235
vt 0.357375 0.579716
vt 0.371114 0.566601
vt 0.371103 0.592660
vt 0.610518 0.041487
vt 0.616655 0.065231
vt 0.604361 0.065255
vt 0.361970 0.604457
vt 0.368080 0.628198
vt 0.355841 0.628229
vt 0.184453 0.738480
vt 0.184714 0.763352
vt 0.184184 0.763348
vt 0.385249 0.730615
vt 0.385512 0.755487
vt 0.384979 0.755485
vt 0.749352 0.629488
vt 0.749614 0.654360
vt 0.749082 0.654358
vt 0.196670 0.738480
vt 0.196931 0.763352
vt 0.196401 0.763348
vt 0.703402 0.730874
vt 0.703665 0.755746
vt 0.703132 0.755744
vt 0.760880 0.005880
vt 0.761142 0.030753
vt 0.760612 0.030749
vt 0.082253 0.696088
vt 0.084053 0.675210
vt 0.085872 0.696078
vt 0.703007 0.325833
vt 0.701208 0.346711
vt 0.699389 0.325843
vt 0.631024 0.292978
vt 0.642961 0.281155
vt 0.642951 0.304891
vt 0.643981 0.167348
vt 0.655847 0.179324
vt 0.643982 0.191124
vt 0.652008 0.045323
vt 0.662460 0.045359
vt 0.657223 0.066776
vt 0.667552 0.167355
vt 0.677946 0.167428
vt 0.672739 0.188826
vt 0.571424 0.841317
vt 0.571683 0.863869
vt 0.571158 0.863871
vt 0.854414 0.358627
vt 0.854675 0.381180
vt 0.854147 0.381181
vt 0.843930 0.832786
vt 0.844190 0.855339
vt 0.843663 0.855340
vt 0.858331 0.082098
vt 0.858590 0.104651
vt 0.858065 0.104652
vt 0.856147 0.729793
vt 0.856407 0.752346
vt 0.855879 0.752347
vt 0.583644 0.841317
vt 0.583903 0.863869
vt 0.583377 0.863871
vt 0.278410 0.727778
vt 0.276594 0.709693
vt 0.280207 0.709683
vt 0.735632 0.629486
vt 0.737448 0.647572
vt 0.733835 0.647582
vt 0.631639 0.361245
vt 0.643571 0.373177
vt 0.631640 0.385021
vt 0.644277 0.641410
vt 0.656148 0.629629
vt 0.656138 0.653365
vt 0.654662 0.281135
vt 0.665113 0.281170
vt 0.659877 0.302587
vt 0.667552 0.200604
vt 0.677946 0.200677
vt 0.672739 0.222075
vt 0.006073 0.841463
vt 0.006332 0.864015
vt 0.005807 0.864016
vt 0.437006 0.834507
vt 0.437266 0.857060
vt 0.436738 0.857061
vt 0.449220 0.834507
vt 0.449480 0.857060
vt 0.448953 0.857061
vt 0.018286 0.841463
vt 0.018545 0.864015
vt 0.018019 0.864016
vt 0.125715 0.834607
vt 0.125976 0.857160
vt 0.125448 0.857161
vt 0.858677 0.119985
vt 0.858936 0.142537
vt 0.858410 0.142538
vt 0.727932 0.410433
vt 0.729729 0.392338
vt 0.731545 0.410423
vt 0.735572 0.514406
vt 0.733775 0.532501
vt 0.731959 0.514416
vt 0.029314 0.651672
vt 0.041094 0.639723
vt 0.041083 0.663459
vt 0.644607 0.519017
vt 0.656421 0.530875
vt 0.644608 0.542794
vt 0.620653 0.665142
vt 0.630955 0.665106
vt 0.625794 0.686560
vt 0.672362 0.005932
vt 0.682710 0.005903
vt 0.677526 0.027353
vt 0.304980 0.817385
vt 0.305241 0.839940
vt 0.304711 0.839936
vt 0.835533 0.005881
vt 0.835795 0.028435
vt 0.835263 0.028433
vt 0.213355 0.817187
vt 0.213616 0.839742
vt 0.213086 0.839738
vt 0.344401 0.814114
vt 0.344664 0.836668
vt 0.344131 0.836666
vt 0.405997 0.817935
vt 0.406258 0.840489
vt 0.405728 0.840485
vt 0.835891 0.422189
vt 0.836154 0.444743
vt 0.835621 0.444741
vt 0.109179 0.725934
vt 0.107363 0.707848
vt 0.110976 0.707838
vt 0.230871 0.709681
vt 0.232687 0.727766
vt 0.229074 0.727776
vt 0.053663 0.639827
vt 0.065451 0.651591
vt 0.053690 0.663517
vt 0.571184 0.646384
vt 0.583003 0.634485
vt 0.582992 0.658222
vt 0.596670 0.661311
vt 0.607018 0.661281
vt 0.601835 0.682731
vt 0.676782 0.281206
vt 0.687085 0.281169
vt 0.681923 0.302623
vt 0.532536 0.816141
vt 0.532798 0.838695
vt 0.532268 0.838691
vt 0.110650 0.810994
vt 0.110912 0.833547
vt 0.110380 0.833546
vt 0.843931 0.729791
vt 0.844193 0.752345
vt 0.843663 0.752342
vt 0.229314 0.812831
vt 0.229576 0.835385
vt 0.229044 0.835383
vt 0.843931 0.695460
vt 0.844193 0.718014
vt 0.843663 0.718011
vt 0.241533 0.812831
vt 0.241796 0.835385
vt 0.241263 0.835383
vt 0.725073 0.359706
vt 0.726889 0.377791
vt 0.723276 0.377801
vt 0.093902 0.725934
vt 0.092086 0.707848
vt 0.095699 0.707838
vt 0.643981 0.214804
vt 0.655852 0.203024
vt 0.655841 0.226760
vt 0.628370 0.005824
vt 0.640302 0.017756
vt 0.628371 0.029600
vt 0.306399 0.653713
vt 0.316793 0.653786
vt 0.311586 0.675184
vt 0.655277 0.325826
vt 0.665728 0.325862
vt 0.660492 0.347279
vt 0.462517 0.844731
vt 0.462776 0.867284
vt 0.462251 0.867285
vt 0.846230 0.514412
vt 0.846490 0.536965
vt 0.845962 0.536966
vt 0.474730 0.844731
vt 0.474989 0.867284
vt 0.474463 0.867285
vt 0.846463 0.119984
vt 0.846723 0.142537
vt 0.846196 0.142538
vt 0.866628 0.358627
vt 0.866887 0.381180
vt 0.866362 0.381181
vt 0.851407 0.045337
vt 0.851667 0.067890
vt 0.851140 0.067891
vt 0.733821 0.466003
vt 0.732005 0.447917
vt 0.735618 0.447907
vt 0.719659 0.246885
vt 0.721475 0.264971
vt 0.717862 0.264981
vt 0.596697 0.625696
vt 0.608563 0.637672
vt 0.596698 0.649472
vt 0.628370 0.088848
vt 0.640307 0.077024
vt 0.640298 0.100760
vt 0.667552 0.233853
vt 0.677946 0.233927
vt 0.672739 0.255325
vt 0.194088 0.642734
vt 0.204539 0.642770
vt 0.199303 0.664188
vt 0.030512 0.841463
vt 0.030771 0.864015
vt 0.030245 0.864016
vt 0.421279 0.824736
vt 0.421539 0.847288
vt 0.421012 0.847289
vt 0.504884 0.821826
vt 0.505144 0.844379
vt 0.504616 0.844380
vt 0.859963 0.005882
vt 0.860222 0.028435
vt 0.859697 0.028436
vt 0.831717 0.837731
vt 0.831976 0.860284
vt 0.831450 0.860285
vt 0.847749 0.005882
vt 0.848010 0.028435
vt 0.847482 0.028436
vt 0.065144 0.707838
vt 0.063347 0.725933
vt 0.061531 0.707848
vt 0.306429 0.737740
vt 0.308226 0.719644
vt 0.310042 0.737730
vt 0.569541 0.255948
vt 0.583329 0.242885
vt 0.583319 0.268944
vt 0.031258 0.566492
vt 0.045002 0.579413
vt 0.031282 0.592504
vt 0.145017 0.586853
vt 0.157332 0.586820
vt 0.151164 0.610593
vt 0.005807 0.604259
vt 0.018067 0.604218
vt 0.011927 0.627995
vt 0.771808 0.082096
vt 0.772070 0.106969
vt 0.771540 0.106965
vt 0.749352 0.592838
vt 0.749614 0.617710
vt 0.749082 0.617708
vt 0.771920 0.514411
vt 0.772182 0.539283
vt 0.771652 0.539280
vt 0.757401 0.732111
vt 0.757664 0.756983
vt 0.757131 0.756981
vt 0.767887 0.359707
vt 0.768148 0.384580
vt 0.767618 0.384576
vt 0.743449 0.323058
vt 0.743712 0.347930
vt 0.743179 0.347928
vt 0.709803 0.380578
vt 0.707984 0.359711
vt 0.711603 0.359700
vt 0.705074 0.626705
vt 0.706893 0.647572
vt 0.703274 0.647583
vt 0.504639 0.544033
vt 0.518422 0.557049
vt 0.504640 0.570132
vt 0.578921 0.094493
vt 0.592659 0.081378
vt 0.592649 0.107436
vt 0.607015 0.281202
vt 0.619329 0.281169
vt 0.613162 0.304942
vt 0.620026 0.167467
vt 0.632286 0.167427
vt 0.626146 0.191204
vt 0.749564 0.476527
vt 0.749826 0.501399
vt 0.749294 0.501397
vt 0.769619 0.695460
vt 0.769880 0.720333
vt 0.769351 0.720329
vt 0.769619 0.732110
vt 0.769880 0.756982
vt 0.769351 0.756979
vt 0.729905 0.725311
vt 0.730167 0.750183
vt 0.729635 0.750181
vt 0.745700 0.554618
vt 0.745963 0.579490
vt 0.745430 0.579488
vt 0.773998 0.476527
vt 0.774259 0.501399
vt 0.773730 0.501395
vt 0.021120 0.696088
vt 0.022920 0.675210
vt 0.024739 0.696078
vt 0.706188 0.211467
vt 0.704389 0.232345
vt 0.702570 0.211477
vt 0.532292 0.559591
vt 0.546079 0.546528
vt 0.546068 0.572587
vt 0.581563 0.281213
vt 0.595308 0.294134
vt 0.581587 0.307224
vt 0.607629 0.325894
vt 0.619944 0.325860
vt 0.613777 0.349634
vt 0.620653 0.483543
vt 0.632913 0.483502
vt 0.626773 0.507279
vt 0.229312 0.739532
vt 0.229574 0.764404
vt 0.229044 0.764400
vt 0.752461 0.045337
vt 0.752723 0.070209
vt 0.752191 0.070207
vt 0.735500 0.119984
vt 0.735762 0.144856
vt 0.735230 0.144854
vt 0.241529 0.739532
vt 0.241790 0.764404
vt 0.241261 0.764400
vt 0.757847 0.167406
vt 0.758110 0.192278
vt 0.757577 0.192276
vt 0.772153 0.119983
vt 0.772415 0.144855
vt 0.771885 0.144852
vt 0.701649 0.575494
vt 0.703449 0.554616
vt 0.705268 0.575484
vt 0.055296 0.675205
vt 0.053496 0.696083
vt 0.051677 0.675215
vt 0.056710 0.566492
vt 0.070454 0.579413
vt 0.056733 0.592504
vt 0.560688 0.133003
vt 0.574477 0.119940
vt 0.574466 0.145999
vt 0.596670 0.590240
vt 0.608985 0.590206
vt 0.602817 0.613980
vt 0.620026 0.203036
vt 0.632286 0.202995
vt 0.626146 0.226772
vt 0.770065 0.167405
vt 0.770326 0.192278
vt 0.769796 0.192274
vt 0.757919 0.554617
vt 0.758182 0.579490
vt 0.757650 0.579488
vt 0.770138 0.554617
vt 0.770399 0.579489
vt 0.769869 0.579486
vt 0.716653 0.730874
vt 0.716916 0.755746
vt 0.716383 0.755744
vt 0.743449 0.359708
vt 0.743712 0.384580
vt 0.743179 0.384578
vt 0.292118 0.746338
vt 0.292380 0.771211
vt 0.291850 0.771207
vt 0.099336 0.675210
vt 0.101155 0.696078
vt 0.097536 0.696088
vt 0.705296 0.468785
vt 0.703477 0.447917
vt 0.707096 0.447907
vt 0.198929 0.582481
vt 0.212668 0.569366
vt 0.212657 0.595425
vt 0.145040 0.549007
vt 0.158823 0.562023
vt 0.145041 0.575105
vt 0.101520 0.604259
vt 0.113780 0.604218
vt 0.107640 0.627995
vt 0.607630 0.361462
vt 0.619944 0.361428
vt 0.613777 0.385202
vt 0.771065 0.204673
vt 0.771326 0.229545
vt 0.770796 0.229542
vt 0.755669 0.323058
vt 0.755931 0.347930
vt 0.755399 0.347928
vt 0.253746 0.739532
vt 0.254007 0.764404
vt 0.253477 0.764400
vt 0.596940 0.729923
vt 0.597203 0.754794
vt 0.596670 0.754793
vt 0.276841 0.739539
vt 0.277102 0.764411
vt 0.276572 0.764408
vt 0.520169 0.686044
vt 0.520432 0.710916
vt 0.519900 0.710914
vt 0.386809 0.673232
vt 0.388628 0.694099
vt 0.385009 0.694110
vt 0.704389 0.264977
vt 0.702570 0.244109
vt 0.706188 0.244099
vt 0.462274 0.558335
vt 0.476056 0.571351
vt 0.462274 0.584433
vt 0.582190 0.338911
vt 0.595927 0.325796
vt 0.595917 0.351855
vt 0.604361 0.077071
vt 0.616675 0.077038
vt 0.610508 0.100811
vt 0.029735 0.604259
vt 0.041995 0.604218
vt 0.035855 0.627995
vt 0.150969 0.748194
vt 0.151231 0.773066
vt 0.150701 0.773062
vt 0.437008 0.729966
vt 0.437271 0.754838
vt 0.436738 0.754836
vt 0.773097 0.005880
vt 0.773358 0.030753
vt 0.772828 0.030749
vt 0.620923 0.733748
vt 0.621185 0.758620
vt 0.620653 0.758618
vt 0.504885 0.748525
vt 0.505146 0.773398
vt 0.504616 0.773394
vt 0.755669 0.359708
vt 0.755931 0.384580
vt 0.755399 0.384578
vt 0.707096 0.480539
vt 0.705296 0.501417
vt 0.703477 0.480549
vt 0.187281 0.696874
vt 0.189081 0.675996
vt 0.190900 0.696864
vt 0.532295 0.631670
vt 0.544232 0.619847
vt 0.544221 0.643583
vt 0.643981 0.238484
vt 0.655847 0.250460
vt 0.643982 0.262260
vt 0.657234 0.078591
vt 0.662439 0.100049
vt 0.652009 0.100003
vt 0.509813 0.652780
vt 0.514990 0.674257
vt 0.504617 0.674172
vt 0.856147 0.695462
vt 0.856407 0.718014
vt 0.855879 0.718015
vt 0.860322 0.422190
vt 0.860581 0.444743
vt 0.860055 0.444744
vt 0.856663 0.554618
vt 0.856924 0.577171
vt 0.856396 0.577172
vt 0.703399 0.835416
vt 0.703658 0.857969
vt 0.703132 0.857970
vt 0.620919 0.842616
vt 0.621178 0.865169
vt 0.620653 0.865170
vt 0.596938 0.834464
vt 0.597198 0.857017
vt 0.596670 0.857018
vt 0.726521 0.045336
vt 0.728337 0.063421
vt 0.724724 0.063431
vt 0.364303 0.729054
vt 0.362487 0.710969
vt 0.366100 0.710959
vt 0.631639 0.396707
vt 0.643571 0.408640
vt 0.631640 0.420483
vt 0.644344 0.605905
vt 0.656215 0.594124
vt 0.656204 0.617860
vt 0.660502 0.359094
vt 0.665707 0.380552
vt 0.655277 0.380505
vt 0.410925 0.654298
vt 0.416101 0.675775
vt 0.405728 0.675690
vt 0.860653 0.592839
vt 0.860912 0.615391
vt 0.860386 0.615393
vt 0.385246 0.835157
vt 0.385507 0.857710
vt 0.384979 0.857711
vt 0.137930 0.834607
vt 0.138190 0.857160
vt 0.137663 0.857161
vt 0.638372 0.842616
vt 0.638632 0.865168
vt 0.638106 0.865170
vt 0.857589 0.204674
vt 0.857849 0.227227
vt 0.857321 0.227228
vt 0.650585 0.842616
vt 0.650844 0.865168
vt 0.650318 0.865170
vt 0.727332 0.299242
vt 0.729129 0.281147
vt 0.730945 0.299232
vt 0.733715 0.167400
vt 0.731917 0.185495
vt 0.730101 0.167410
vt 0.005820 0.651672
vt 0.017600 0.639723
vt 0.017589 0.663459
vt 0.229070 0.636479
vt 0.240884 0.648337
vt 0.229071 0.660256
vt 0.467402 0.667241
vt 0.472533 0.688663
vt 0.462251 0.688688
vt 0.673023 0.662865
vt 0.678177 0.684291
vt 0.667849 0.684310
vt 0.841600 0.244497
vt 0.841861 0.267052
vt 0.841331 0.267048
vt 0.356621 0.814114
vt 0.356883 0.836668
vt 0.356351 0.836666
vt 0.276843 0.812839
vt 0.277105 0.835393
vt 0.276573 0.835391
vt 0.818150 0.820425
vt 0.818411 0.842979
vt 0.817881 0.842975
vt 0.150969 0.821493
vt 0.151231 0.844047
vt 0.150701 0.844043
vt 0.172238 0.811779
vt 0.172500 0.834333
vt 0.171968 0.834331
vt 0.333749 0.729054
vt 0.331933 0.710969
vt 0.335546 0.710959
vt 0.214913 0.719446
vt 0.216729 0.737532
vt 0.213116 0.737542
vt 0.101085 0.639827
vt 0.112874 0.651591
vt 0.101113 0.663517
vt 0.644607 0.459770
vt 0.656427 0.447871
vt 0.656415 0.471607
vt 0.682548 0.392379
vt 0.687679 0.413802
vt 0.677397 0.413827
vt 0.673301 0.514448
vt 0.678454 0.535874
vt 0.668127 0.535893
vt 0.253753 0.812831
vt 0.254015 0.835385
vt 0.253483 0.835383
vt 0.839191 0.045336
vt 0.839453 0.067890
vt 0.838923 0.067887
vt 0.843931 0.764122
vt 0.844193 0.786676
vt 0.843663 0.786673
vt 0.086101 0.810994
vt 0.086363 0.833547
vt 0.085831 0.833546
vt 0.843931 0.798453
vt 0.844193 0.821008
vt 0.843663 0.821004
vt 0.098430 0.810994
vt 0.098693 0.833547
vt 0.098160 0.833546
vt 0.731462 0.695460
vt 0.733278 0.713545
vt 0.729665 0.713555
vt 0.731990 0.572707
vt 0.730174 0.554621
vt 0.733787 0.554611
vt 0.628370 0.041392
vt 0.640302 0.053324
vt 0.628371 0.065168
vt 0.620679 0.641410
vt 0.632550 0.629629
vt 0.632540 0.653365
vt 0.660502 0.392344
vt 0.665708 0.413802
vt 0.655277 0.413755
vt 0.673045 0.629565
vt 0.678222 0.651042
vt 0.667849 0.650957
vt 0.690132 0.844841
vt 0.690391 0.867394
vt 0.689865 0.867395
vt 0.729902 0.829853
vt 0.730162 0.852406
vt 0.729635 0.852407
vt 0.073653 0.845326
vt 0.073912 0.867879
vt 0.073387 0.867880
vt 0.853816 0.278830
vt 0.854076 0.301383
vt 0.853548 0.301384
vt 0.856147 0.661130
vt 0.856407 0.683683
vt 0.855879 0.683684
vt 0.086097 0.845326
vt 0.086356 0.867879
vt 0.085831 0.867880
vt 0.247955 0.709676
vt 0.246158 0.727771
vt 0.244342 0.709686
vt 0.171998 0.726724
vt 0.173795 0.708629
vt 0.175611 0.726714
vt 0.642208 0.554560
vt 0.654074 0.566536
vt 0.642210 0.578336
vt 0.306426 0.630132
vt 0.318363 0.618308
vt 0.318353 0.642044
vt 0.664436 0.119988
vt 0.669641 0.141447
vt 0.659210 0.141399
vt 0.673112 0.594060
vt 0.678288 0.615537
vt 0.667916 0.615452
vt 0.042731 0.841463
vt 0.042990 0.864015
vt 0.042465 0.864016
vt 0.553384 0.825725
vt 0.553644 0.848278
vt 0.553117 0.848279
vt 0.844376 0.167407
vt 0.844636 0.189959
vt 0.844109 0.189960
vt 0.866029 0.244499
vt 0.866288 0.267052
vt 0.865763 0.267053
vt 0.866029 0.278831
vt 0.866288 0.301383
vt 0.865763 0.301385
vt 0.848108 0.422190
vt 0.848368 0.444743
vt 0.847840 0.444744
vt 0.734046 0.501421
vt 0.735843 0.483326
vt 0.737659 0.501411
vt 0.080422 0.707838
vt 0.078624 0.725933
vt 0.076808 0.707848
vt 0.582178 0.363675
vt 0.595922 0.376595
vt 0.582202 0.389686
vt 0.436761 0.571668
vt 0.450549 0.558605
vt 0.450538 0.584664
vt 0.462251 0.596181
vt 0.474565 0.596148
vt 0.468398 0.619921
vt 0.053663 0.604259
vt 0.065923 0.604218
vt 0.059783 0.627995
vt 0.764679 0.045336
vt 0.764940 0.070208
vt 0.764410 0.070205
vt 0.668119 0.731492
vt 0.668381 0.756364
vt 0.667849 0.756362
vt 0.553117 0.721198
vt 0.553656 0.721169
vt 0.553383 0.746055
vt 0.331912 0.740828
vt 0.332449 0.740801
vt 0.332177 0.765685
vt 0.344128 0.740828
vt 0.344665 0.740801
vt 0.344393 0.765685
vt 0.291850 0.709703
vt 0.292389 0.709674
vt 0.292116 0.734560
vt 0.701198 0.392338
vt 0.703017 0.413205
vt 0.699398 0.413216
vt 0.708542 0.140855
vt 0.706723 0.119988
vt 0.710342 0.119977
vt 0.229067 0.563151
vt 0.242849 0.576167
vt 0.229067 0.589249
vt 0.582190 0.414451
vt 0.595928 0.401336
vt 0.595917 0.427395
vt 0.436738 0.596465
vt 0.449052 0.596432
vt 0.442885 0.620205
vt 0.620026 0.238604
vt 0.632286 0.238563
vt 0.626146 0.262340
vt 0.638374 0.733747
vt 0.638636 0.758620
vt 0.638106 0.758616
vt 0.736442 0.005881
vt 0.736705 0.030753
vt 0.736173 0.030751
vt 0.773455 0.422189
vt 0.773717 0.447061
vt 0.773187 0.447057
vt 0.030515 0.732594
vt 0.030778 0.757466
vt 0.030245 0.757464
vt 0.306668 0.749495
vt 0.306929 0.774367
vt 0.306399 0.774364
vt 0.042735 0.732594
vt 0.042997 0.757466
vt 0.042465 0.757464
vt 0.036403 0.696088
vt 0.038203 0.675210
vt 0.040022 0.696078
vt 0.508255 0.686037
vt 0.506456 0.706915
vt 0.504637 0.686047
vt 0.571181 0.536455
vt 0.584969 0.523392
vt 0.584958 0.549451
vt 0.586178 0.120049
vt 0.599922 0.132969
vt 0.586202 0.146060
vt 0.607629 0.397030
vt 0.619944 0.396997
vt 0.613777 0.420770
vt 0.253026 0.601005
vt 0.265287 0.600964
vt 0.259146 0.624741
vt 0.356614 0.740815
vt 0.356875 0.765687
vt 0.356345 0.765683
vt 0.757401 0.695461
vt 0.757664 0.720333
vt 0.757131 0.720331
vt 0.448958 0.729980
vt 0.449497 0.729951
vt 0.449224 0.754837
vt 0.368562 0.740828
vt 0.369099 0.740801
vt 0.368827 0.765685
vt 0.491264 0.731627
vt 0.491527 0.756499
vt 0.490994 0.756497
vt 0.650591 0.733747
vt 0.650852 0.758620
vt 0.650323 0.758616
vt 0.009446 0.675205
vt 0.007647 0.696083
vt 0.005828 0.675216
vt 0.703441 0.535288
vt 0.705241 0.514410
vt 0.707060 0.535278
vt 0.405728 0.581145
vt 0.419473 0.594066
vt 0.405752 0.607156
vt 0.571181 0.574217
vt 0.584969 0.561154
vt 0.584958 0.587213
vt 0.571158 0.599014
vt 0.583472 0.598981
vt 0.577305 0.622754
vt 0.276955 0.601005
vt 0.289215 0.600964
vt 0.283075 0.624741
vt 0.767018 0.244511
vt 0.767555 0.244483
vt 0.767283 0.269368
vt 0.744912 0.732125
vt 0.745451 0.732096
vt 0.745178 0.756982
vt 0.571427 0.732448
vt 0.571690 0.757320
vt 0.571158 0.757318
vt 0.767287 0.281147
vt 0.767548 0.306020
vt 0.767018 0.306016
vt 0.532268 0.742855
vt 0.532805 0.742828
vt 0.532533 0.767712
vt 0.421012 0.720208
vt 0.421551 0.720179
vt 0.421278 0.745065
vt 0.709485 0.026753
vt 0.707666 0.005885
vt 0.711285 0.005875
vt 0.697975 0.045335
vt 0.699794 0.066203
vt 0.696176 0.066213
vt 0.578921 0.018952
vt 0.592660 0.005837
vt 0.592649 0.031896
vt 0.254579 0.563151
vt 0.268362 0.576167
vt 0.254580 0.589249
vt 0.229044 0.600997
vt 0.241358 0.600964
vt 0.235191 0.624737
vt 0.379768 0.604477
vt 0.392028 0.604436
vt 0.385888 0.628213
vt 0.773786 0.592837
vt 0.774048 0.617709
vt 0.773518 0.617706
vt 0.583647 0.732448
vt 0.583909 0.757320
vt 0.583377 0.757318
vt 0.773518 0.629499
vt 0.774055 0.629472
vt 0.773783 0.654357
vt 0.005807 0.732608
vt 0.006346 0.732579
vt 0.006073 0.757465
vt 0.450275 0.667484
vt 0.450537 0.692356
vt 0.450005 0.692354
vt 0.213355 0.749297
vt 0.213616 0.774169
vt 0.213086 0.774166
vt 0.422852 0.708433
vt 0.421033 0.687566
vt 0.424651 0.687555
vt 0.703376 0.167404
vt 0.705195 0.188272
vt 0.701576 0.188282
vt 0.280092 0.563151
vt 0.293874 0.576167
vt 0.280092 0.589249
vt 0.171979 0.582481
vt 0.185718 0.569366
vt 0.185707 0.595425
vt 0.611629 0.120037
vt 0.623944 0.120004
vt 0.617776 0.143778
vt 0.171968 0.607241
vt 0.184228 0.607201
vt 0.178088 0.630978
vt 0.758848 0.204673
vt 0.759109 0.229545
vt 0.758580 0.229542
vt 0.018296 0.732594
vt 0.018558 0.757466
vt 0.018026 0.757464
vt 0.759323 0.082110
vt 0.759860 0.082083
vt 0.759588 0.106967
vt 0.746360 0.204688
vt 0.746900 0.204659
vt 0.746626 0.229545
vt 0.759704 0.514411
vt 0.759965 0.539283
vt 0.759435 0.539280
vt 0.520170 0.722693
vt 0.520432 0.747565
vt 0.519900 0.747563
vt 0.703162 0.683705
vt 0.704962 0.662827
vt 0.706781 0.683695
vt 0.216726 0.686809
vt 0.214926 0.707687
vt 0.213107 0.686819
vt 0.504643 0.629162
vt 0.516580 0.617338
vt 0.516570 0.641075
vt 0.145044 0.622309
vt 0.156910 0.634285
vt 0.145045 0.646085
vt 0.354032 0.639970
vt 0.364483 0.640006
vt 0.359247 0.661423
vt 0.665780 0.554567
vt 0.676174 0.554640
vt 0.670967 0.576038
vt 0.866363 0.323075
vt 0.866895 0.323043
vt 0.866626 0.345612
vt 0.848381 0.476544
vt 0.848915 0.476512
vt 0.848645 0.499081
vt 0.489194 0.836185
vt 0.489727 0.836152
vt 0.489457 0.858721
vt 0.518100 0.827251
vt 0.518635 0.827219
vt 0.518364 0.849789
vt 0.856591 0.167407
vt 0.856851 0.189959
vt 0.856323 0.189960
vt 0.860862 0.476528
vt 0.861121 0.499081
vt 0.860595 0.499082
vt 0.736743 0.246881
vt 0.734946 0.264976
vt 0.733130 0.246891
vt 0.731697 0.678142
vt 0.733494 0.660046
vt 0.735310 0.678132
vt 0.631639 0.325782
vt 0.643571 0.337714
vt 0.631640 0.349558
vt 0.635639 0.131814
vt 0.647509 0.120034
vt 0.647500 0.143769
vt 0.331912 0.639970
vt 0.342363 0.640006
vt 0.337127 0.661423
vt 0.668127 0.447862
vt 0.678521 0.447936
vt 0.673313 0.469334
vt 0.717304 0.839743
vt 0.717563 0.862296
vt 0.717037 0.862297
vt 0.854415 0.323059
vt 0.854676 0.345612
vt 0.854148 0.345613
vt 0.855879 0.764141
vt 0.856414 0.764109
vt 0.856143 0.786679
vt 0.667849 0.836050
vt 0.668381 0.836017
vt 0.668112 0.858587
vt 0.858177 0.514429
vt 0.858709 0.514396
vt 0.858440 0.536966
vt 0.855877 0.832802
vt 0.856412 0.832770
vt 0.856141 0.855339
vt 0.407555 0.720193
vt 0.409371 0.738278
vt 0.405758 0.738288
vt 0.720364 0.647577
vt 0.718548 0.629492
vt 0.722161 0.629481
vt 0.276586 0.648417
vt 0.288366 0.636469
vt 0.288355 0.660205
vt 0.253053 0.636479
vt 0.264867 0.648337
vt 0.253054 0.660256
vt 0.674128 0.045388
vt 0.684476 0.045358
vt 0.679293 0.066809
vt 0.642624 0.665143
vt 0.652927 0.665106
vt 0.647765 0.686560
vt 0.836222 0.592838
vt 0.836485 0.615392
vt 0.835952 0.615390
vt 0.841600 0.278828
vt 0.841861 0.301383
vt 0.841331 0.301379
vt 0.292118 0.819637
vt 0.292380 0.842192
vt 0.291850 0.842188
vt 0.836222 0.627169
vt 0.836485 0.649723
vt 0.835952 0.649721
vt 0.836164 0.476540
vt 0.836701 0.476513
vt 0.836429 0.499079
vt 0.331912 0.814128
vt 0.332451 0.814099
vt 0.332178 0.836667
vt 0.189088 0.726719
vt 0.187272 0.708634
vt 0.190885 0.708624
vt 0.729729 0.323057
vt 0.731545 0.341142
vt 0.727932 0.341153
vt 0.077592 0.639827
vt 0.089380 0.651591
vt 0.077619 0.663517
vt 0.644607 0.495337
vt 0.656427 0.483439
vt 0.656415 0.507175
vt 0.677397 0.325898
vt 0.687699 0.325861
vt 0.682538 0.347315
vt 0.145017 0.657924
vt 0.155366 0.657894
vt 0.150182 0.679345
vt 0.368838 0.814114
vt 0.369100 0.836668
vt 0.368570 0.836664
vt 0.073657 0.810993
vt 0.073919 0.833547
vt 0.073387 0.833546
vt 0.184457 0.811779
vt 0.184720 0.834333
vt 0.184187 0.834331
vt 0.842200 0.323058
vt 0.842461 0.345612
vt 0.841931 0.345608
vt 0.841930 0.358639
vt 0.842467 0.358611
vt 0.842195 0.381178
vt 0.196407 0.811793
vt 0.196946 0.811764
vt 0.196673 0.834332
vt 0.735406 0.594068
vt 0.733609 0.612163
vt 0.731793 0.594078
vt 0.347219 0.729059
vt 0.349016 0.710964
vt 0.350832 0.729049
vt 0.462277 0.643525
vt 0.474148 0.631745
vt 0.474137 0.655481
vt 0.620679 0.594059
vt 0.632612 0.605992
vt 0.620680 0.617835
vt 0.532268 0.655251
vt 0.542661 0.655325
vt 0.537455 0.676723
vt 0.171968 0.642735
vt 0.182419 0.642770
vt 0.177183 0.664188
vt 0.845107 0.204690
vt 0.845642 0.204658
vt 0.845371 0.227228
vt 0.781567 0.840995
vt 0.782100 0.840963
vt 0.781830 0.863533
vt 0.844181 0.554634
vt 0.844716 0.554603
vt 0.844445 0.577172
vt 0.793780 0.840995
vt 0.794313 0.840963
vt 0.794043 0.863533
vt 0.863621 0.045338
vt 0.863880 0.067890
vt 0.863354 0.067892
vt 0.853816 0.244499
vt 0.854076 0.267052
vt 0.853548 0.267053
vt 0.722373 0.483321
vt 0.720576 0.501416
vt 0.718760 0.483331
vt 0.504646 0.736770
vt 0.506443 0.718675
vt 0.508259 0.736760
vt 0.405755 0.630681
vt 0.417692 0.618857
vt 0.417682 0.642593
vt 0.436765 0.631921
vt 0.448631 0.643897
vt 0.436766 0.655697
vt 0.376152 0.639970
vt 0.386603 0.640006
vt 0.381367 0.661423
vt 0.668127 0.481111
vt 0.678521 0.481185
vt 0.673313 0.502583
vt 0.848171 0.592854
vt 0.848706 0.592822
vt 0.848435 0.615391
vt 0.744912 0.840995
vt 0.745445 0.840963
vt 0.745175 0.863532
vt 0.318616 0.821730
vt 0.319151 0.821698
vt 0.318880 0.844268
vt 0.757131 0.840995
vt 0.757664 0.840963
vt 0.757394 0.863533
vt 0.845850 0.082114
vt 0.846385 0.082082
vt 0.846114 0.104651
vt 0.769351 0.840995
vt 0.769883 0.840962
vt 0.769614 0.863531
vt 0.732920 0.229563
vt 0.731104 0.211477
vt 0.734717 0.211467
vt 0.261425 0.709681
vt 0.263241 0.727766
vt 0.259628 0.727776
vt 0.341185 0.482462
vt 0.350438 0.517020
vt 0.331912 0.517057
vt 0.208959 0.487549
vt 0.217355 0.519784
vt 0.200543 0.519828
vt 0.180422 0.487544
vt 0.188854 0.519784
vt 0.171968 0.519817
vt 0.216449 0.642747
vt 0.216683 0.675038
vt 0.216207 0.675034
vt 0.557506 0.631891
vt 0.557741 0.664181
vt 0.557263 0.664179
vt 0.952859 0.737060
vt 0.953572 0.737070
vt 0.953210 0.743097
vt 0.952859 0.806587
vt 0.953568 0.806601
vt 0.953202 0.812599
vt 0.952859 0.719262
vt 0.953572 0.719273
vt 0.953210 0.725300
vt 0.952859 0.824297
vt 0.953568 0.824311
vt 0.953202 0.830309
vt 0.511161 0.532308
vt 0.504638 0.481448
vt 0.517665 0.481437
vt 0.313754 0.482412
vt 0.320277 0.533272
vt 0.307250 0.533284
vt 0.445626 0.546951
vt 0.440646 0.481433
vt 0.450614 0.481461
vt 0.462251 0.546650
vt 0.467265 0.481450
vt 0.472272 0.546678
vt 0.677397 0.425611
vt 0.686603 0.430537
vt 0.677397 0.435503
vt 0.150701 0.731510
vt 0.159872 0.726516
vt 0.159863 0.736452
vt 0.785469 0.942287
vt 0.786061 0.937852
vt 0.789044 0.941555
vt 0.852073 0.942163
vt 0.853521 0.937602
vt 0.855689 0.941562
vt 0.306152 0.963330
vt 0.305976 0.969656
vt 0.305855 0.963299
vt 0.952857 0.902650
vt 0.953004 0.896294
vt 0.953155 0.902681
vt 0.029983 0.963285
vt 0.030134 0.969671
vt 0.029896 0.969700
vt 0.210009 0.969685
vt 0.209858 0.963299
vt 0.210155 0.963330
vt 0.221889 0.969700
vt 0.221976 0.963285
vt 0.222127 0.969671
vt 0.078159 0.963330
vt 0.078013 0.969685
vt 0.077862 0.963299
vt 0.952857 0.920754
vt 0.953034 0.914429
vt 0.953155 0.920785
vt 0.090159 0.963330
vt 0.090013 0.969685
vt 0.089862 0.963299
vt 0.608493 0.963240
vt 0.608386 0.967775
vt 0.608287 0.963240
vt 0.824380 0.963240
vt 0.824496 0.967763
vt 0.824262 0.967748
vt 0.952917 0.938918
vt 0.953034 0.932533
vt 0.953155 0.938889
vt 0.318151 0.963330
vt 0.318005 0.969685
vt 0.317854 0.963299
vt 0.365817 0.963318
vt 0.366738 0.963308
vt 0.366279 0.968731
vt 0.403722 0.963348
vt 0.404676 0.963343
vt 0.404205 0.968731
vt 0.954042 0.200301
vt 0.952859 0.200313
vt 0.953439 0.191497
vt 0.953451 0.262038
vt 0.952848 0.253234
vt 0.954030 0.253222
vt 0.953451 0.241461
vt 0.952848 0.232657
vt 0.954030 0.232645
vt 0.954042 0.076839
vt 0.952859 0.076851
vt 0.953439 0.068035
vt 0.655277 0.425611
vt 0.664484 0.430537
vt 0.655277 0.435503
vt 0.532268 0.726158
vt 0.541439 0.721164
vt 0.541430 0.731100
vt 0.801870 0.940902
vt 0.804881 0.938210
vt 0.805436 0.942922
vt 0.869273 0.943337
vt 0.868129 0.938831
vt 0.871892 0.940177
vt 0.246008 0.969685
vt 0.245857 0.963299
vt 0.246154 0.963330
vt 0.329973 0.963285
vt 0.330124 0.969671
vt 0.329886 0.969700
vt 0.113893 0.969700
vt 0.114010 0.963315
vt 0.114131 0.969671
vt 0.258153 0.963330
vt 0.258007 0.969685
vt 0.257856 0.963299
vt 0.342002 0.963315
vt 0.342123 0.969671
vt 0.341885 0.969700
vt 0.125982 0.969656
vt 0.125861 0.963299
vt 0.126158 0.963330
vt 0.270005 0.963315
vt 0.270126 0.969671
vt 0.269829 0.969640
vt 0.953036 0.866486
vt 0.952885 0.860100
vt 0.953123 0.860072
vt 0.632390 0.963240
vt 0.632502 0.967783
vt 0.632269 0.967768
vt 0.848482 0.963240
vt 0.848378 0.967755
vt 0.848277 0.963240
vt 0.282004 0.963315
vt 0.282125 0.969671
vt 0.281887 0.969700
vt 0.053984 0.969656
vt 0.053863 0.963299
vt 0.054101 0.963271
vt 0.378460 0.963318
vt 0.379380 0.963308
vt 0.378922 0.968731
vt 0.428999 0.963348
vt 0.429953 0.963343
vt 0.429482 0.968731
vt 0.953451 0.220884
vt 0.952848 0.212080
vt 0.954030 0.212068
vt 0.954042 0.097416
vt 0.952859 0.097428
vt 0.953439 0.088612
vt 0.953450 0.035691
vt 0.952847 0.026887
vt 0.954030 0.026875
vt 0.954042 0.138570
vt 0.952860 0.138582
vt 0.953439 0.129766
vt 0.384839 0.580625
vt 0.394046 0.585551
vt 0.384839 0.590516
vt 0.727902 0.427164
vt 0.737074 0.422170
vt 0.737064 0.432106
vt 0.818595 0.942287
vt 0.819186 0.937852
vt 0.822170 0.941555
vt 0.835511 0.942163
vt 0.836959 0.937602
vt 0.839126 0.941563
vt 0.137833 0.969640
vt 0.137979 0.963285
vt 0.138130 0.969671
vt 0.042101 0.963271
vt 0.042015 0.969685
vt 0.041864 0.963299
vt 0.293887 0.969700
vt 0.294004 0.963315
vt 0.294125 0.969671
vt 0.953182 0.842027
vt 0.953036 0.848382
vt 0.952885 0.841996
vt 0.197890 0.969700
vt 0.197977 0.963285
vt 0.198128 0.969671
vt 0.150157 0.963330
vt 0.150011 0.969685
vt 0.149860 0.963299
vt 0.017896 0.969700
vt 0.018013 0.963315
vt 0.018134 0.969671
vt 0.162157 0.963330
vt 0.162010 0.969685
vt 0.161859 0.963299
vt 0.656492 0.963240
vt 0.656385 0.967775
vt 0.656286 0.963240
vt 0.872379 0.963240
vt 0.872494 0.967763
vt 0.872261 0.967748
vt 0.186156 0.963330
vt 0.186010 0.969685
vt 0.185859 0.963299
vt 0.952917 0.884605
vt 0.953033 0.878220
vt 0.953155 0.884577
vt 0.391102 0.963318
vt 0.392023 0.963308
vt 0.391564 0.968731
vt 0.416360 0.963348
vt 0.417315 0.963343
vt 0.416843 0.968731
vt 0.954042 0.159147
vt 0.952859 0.159159
vt 0.953439 0.150343
vt 0.953450 0.179730
vt 0.952847 0.170926
vt 0.954030 0.170914
vt 0.954042 0.117993
vt 0.952859 0.118005
vt 0.953439 0.109189
vt 0.953450 0.056268
vt 0.952847 0.047464
vt 0.954030 0.047452
vt 0.458714 0.146068
vt 0.458296 0.005898
vt 0.458986 0.005833
vt 0.509253 0.146085
vt 0.508815 0.005845
vt 0.509555 0.005897
vt 0.446160 0.146063
vt 0.445630 0.005898
vt 0.446320 0.005833
vt 0.138667 0.475367
vt 0.138351 0.335204
vt 0.139026 0.335149
vt 0.423469 0.482390
vt 0.427788 0.510119
vt 0.419146 0.510164
vt 0.656335 0.005892
vt 0.660652 0.033581
vt 0.652048 0.033632
vt 0.886002 0.937016
vt 0.887871 0.944599
vt 0.884133 0.944618
vt 0.901411 0.937054
vt 0.903271 0.944598
vt 0.899549 0.944620
vt 0.556453 0.325797
vt 0.392351 0.568915
vt 0.428913 0.325765
vt 0.954576 0.387706
vt 0.556543 0.427898
vt 0.540694 0.534884
vt 0.954569 0.404886
vt 0.392442 0.482355
vt 0.392260 0.568788
vt 0.952903 0.404981
vt 0.540803 0.447839
vt 0.952827 0.387692
vt 0.952903 0.387800
vt 0.292927 0.332090
vt 0.287579 0.437688
vt 0.954534 0.439334
vt 0.952844 0.435367
vt 0.954534 0.433878
vt 0.954457 0.433771
vt 0.154899 0.279596
vt 0.154934 0.410606
vt 0.157413 0.408894
vt 0.154881 0.173513
vt 0.160246 0.173525
vt 0.533913 0.007537
vt 0.536393 0.005826
vt 0.954542 0.416702
vt 0.954464 0.416595
s 1
usemtl public_005_baked
f 9/1/1 11/2/1 12/3/1
f 17/4/2 19/5/3 16/6/2
f 20/7/4 22/8/4 23/9/4
f 26/10/5 15/11/5 28/12/6
f 30/13/7 32/14/7 29/15/7
f 33/16/8 35/17/9 41/18/10
f 36/19/11 37/20/11 38/21/11
f 40/22/12 42/23/12 39/24/12
f 46/25/13 47/26/13 45/27/13
f 49/28/14 51/29/14 48/30/14
f 55/31/15 57/32/16 50/33/17
f 59/34/18 60/35/18 61/36/18
f 15/37/19 13/38/20 14/39/21
f 42/23/22 10/40/23 39/24/24
f 29/15/25 26/10/25 28/12/25
f 36/19/26 40/22/26 39/24/26
f 44/41/27 37/20/27 43/42/27
f 58/43/28 42/23/29 41/44/30
f 20/45/31 24/46/31 25/47/31
f 43/48/32 26/49/32 44/50/32
f 60/35/18 48/30/18 61/36/18
f 17/51/33 9/1/33 12/3/33
f 45/27/34 18/52/34 17/4/34
f 31/53/35 51/29/36 50/54/37
f 54/55/38 53/56/39 52/57/40
f 831/58/41 830/59/41 829/60/41
f 831/61/41 829/62/41 830/63/41
f 28/12/42 23/9/43 22/8/44
f 34/64/45 30/13/45 29/15/45
f 56/65/46 21/66/46 57/32/46
f 41/18/30 47/26/47 58/67/28
f 34/64/48 10/68/48 35/17/48
f 56/65/49 46/25/49 45/27/49
f 50/33/37 32/14/50 31/69/35
f 13/70/51 11/2/51 14/71/51
f 53/72/52 18/73/52 52/74/52
f 4/75/53 6/76/53 3/77/53
f 5/78/54 7/79/54 6/80/54
f 7/81/54 5/82/54 6/83/54
f 8/84/55 12/85/56 16/86/57
f 8/84/55 14/87/58 12/85/56
f 25/88/59 8/89/60 19/90/61
f 14/39/58 8/91/55 24/92/62
f 29/15/63 27/93/63 11/94/63
f 29/15/64 11/94/64 34/64/64
f 13/95/20 27/96/65 11/97/66
f 17/4/4 12/98/4 11/94/4
f 9/99/66 11/100/66 27/101/66
f 43/102/67 10/103/23 9/99/68
f 14/39/58 24/92/62 15/37/69
f 13/95/20 15/104/19 27/96/65
f 15/105/69 24/46/62 23/106/43
f 22/8/64 45/27/64 17/4/64
f 19/90/70 18/107/70 22/108/70
f 28/12/64 22/8/64 17/4/64
f 59/109/71 52/74/71 18/73/71
f 46/110/72 60/111/72 18/73/72
f 22/112/66 17/113/66 53/114/39
f 22/8/64 56/65/64 45/27/64
f 53/114/39 54/115/38 20/116/73
f 54/117/74 57/118/74 21/119/74
f 37/120/75 44/50/75 26/49/75
f 38/121/76 30/122/76 40/123/77
f 37/124/78 31/125/79 30/122/66
f 32/126/80 36/127/80 37/128/80
f 40/123/81 34/129/81 35/130/81
f 51/131/72 32/126/72 57/132/72
f 42/133/75 47/134/75 35/135/75
f 39/24/82 43/136/82 38/21/82
f 39/24/24 10/40/23 43/136/67
f 42/133/29 59/137/83 61/138/84
f 49/139/85 56/140/85 57/141/85
f 60/142/86 58/143/87 46/144/88
f 49/139/88 60/142/88 46/144/88
f 52/57/89 48/30/90 54/55/91
f 52/57/89 61/36/92 48/30/90
f 63/145/64 62/146/41 64/147/64
f 62/148/41 63/149/64 64/150/64
f 65/151/41 66/152/41 67/153/41
f 65/154/41 67/155/41 66/156/41
f 68/157/41 70/158/41 69/159/41
f 68/160/41 69/161/41 70/162/41
f 71/163/41 72/164/41 73/165/41
f 71/166/41 73/167/41 72/168/41
f 75/169/41 76/170/41 74/171/41
f 75/172/41 74/173/41 76/174/41
f 79/175/41 77/176/41 78/177/41
f 79/178/41 78/179/41 77/180/41
f 80/181/64 81/182/66 82/183/93
f 81/184/66 80/185/64 82/186/93
f 83/187/41 84/188/41 85/189/41
f 83/190/41 85/191/41 84/192/41
f 87/193/41 88/194/41 86/195/41
f 87/196/41 86/197/41 88/198/41
f 89/199/41 91/200/41 90/201/41
f 89/202/41 90/203/41 91/204/41
f 92/205/41 94/206/41 93/207/41
f 92/208/41 93/209/41 94/210/41
f 97/211/66 96/212/66 95/213/66
f 95/214/66 96/215/66 97/216/66
f 98/217/64 100/218/41 99/219/64
f 100/220/41 98/221/64 99/222/64
f 103/223/41 101/224/41 102/225/41
f 103/226/41 102/227/41 101/228/41
f 105/229/41 106/230/41 104/231/41
f 105/232/41 104/233/41 106/234/41
f 108/235/41 109/236/41 107/237/41
f 108/238/41 107/239/41 109/240/41
f 110/241/41 111/242/41 112/243/41
f 110/244/41 112/245/41 111/246/41
f 115/247/41 114/248/41 113/249/41
f 113/250/41 114/251/41 115/252/41
f 118/253/64 116/254/41 117/255/64
f 116/256/41 118/257/64 117/258/64
f 119/259/41 121/260/41 120/261/41
f 119/262/41 120/263/41 121/264/41
f 124/265/41 123/266/41 122/267/41
f 124/268/41 122/269/41 123/270/41
f 125/271/41 127/272/41 126/273/41
f 125/274/41 126/275/41 127/276/41
f 128/277/41 129/278/41 130/279/41
f 128/280/41 130/281/41 129/282/41
f 131/283/41 132/284/41 133/285/41
f 131/286/41 133/287/41 132/288/41
f 136/289/94 134/290/95 135/291/96
f 134/292/95 136/293/94 135/294/96
f 137/295/41 138/296/41 139/297/41
f 137/298/41 139/299/41 138/300/41
f 141/301/41 140/302/41 142/303/41
f 141/304/41 142/305/41 140/306/41
f 144/307/41 145/308/41 143/309/41
f 144/310/41 143/311/41 145/312/41
f 146/313/41 148/314/41 147/315/41
f 146/316/41 147/317/41 148/318/41
f 151/319/41 150/320/41 149/321/41
f 151/322/41 149/323/41 150/324/41
f 152/325/64 153/326/64 154/327/41
f 153/328/64 152/329/64 154/330/41
f 156/331/41 155/332/41 157/333/41
f 156/334/41 157/335/41 155/336/41
f 158/337/41 160/338/41 159/339/41
f 158/340/41 159/341/41 160/342/41
f 161/343/41 163/344/41 162/345/41
f 161/346/41 162/347/41 163/348/41
f 164/349/41 166/350/41 165/351/41
f 164/352/41 165/353/41 166/354/41
f 169/355/72 168/356/72 167/357/72
f 167/358/72 168/359/72 169/360/72
f 171/361/72 170/362/72 172/363/72
f 170/364/72 171/365/72 172/366/72
f 173/367/84 175/368/84 174/369/84
f 175/370/84 173/371/84 174/372/84
f 176/373/41 177/374/41 178/375/41
f 176/376/41 178/377/41 177/378/41
f 180/379/41 181/380/41 179/381/41
f 180/382/41 179/383/41 181/384/41
f 183/385/41 184/386/41 182/387/41
f 183/388/41 182/389/41 184/390/41
f 186/391/41 187/392/41 185/393/41
f 186/394/41 185/395/41 187/396/41
f 188/397/97 190/398/98 189/399/99
f 190/400/98 188/401/97 189/402/99
f 193/403/41 192/404/41 191/405/41
f 192/406/41 193/407/41 191/408/41
f 194/409/41 195/410/41 196/411/41
f 194/412/41 196/413/41 195/414/41
f 198/415/41 199/416/41 197/417/41
f 198/418/41 197/419/41 199/420/41
f 201/421/41 202/422/41 200/423/41
f 201/424/41 200/425/41 202/426/41
f 203/427/100 204/428/101 205/429/88
f 205/430/88 204/431/101 203/432/100
f 206/433/102 208/434/103 207/435/104
f 208/436/103 206/437/102 207/438/104
f 211/439/41 209/440/41 210/441/41
f 209/442/41 211/443/41 210/444/41
f 212/445/41 214/446/41 213/447/41
f 212/448/41 213/449/41 214/450/41
f 215/451/41 217/452/41 216/453/41
f 215/454/41 216/455/41 217/456/41
f 218/457/41 220/458/41 219/459/41
f 218/460/41 219/461/41 220/462/41
f 222/463/41 221/464/41 223/465/41
f 222/466/41 223/467/41 221/468/41
f 224/469/105 225/470/106 226/471/107
f 225/472/106 224/473/105 226/474/107
f 229/475/41 227/476/41 228/477/41
f 227/478/41 229/479/41 228/480/41
f 230/481/41 232/482/41 231/483/41
f 230/484/41 231/485/41 232/486/41
f 235/487/41 233/488/41 234/489/41
f 235/490/41 234/491/41 233/492/41
f 236/493/41 238/494/41 237/495/41
f 236/496/41 237/497/41 238/498/41
f 240/499/41 241/500/41 239/501/41
f 240/502/41 239/503/41 241/504/41
f 243/505/108 244/506/109 242/507/108
f 244/508/109 243/509/108 242/510/108
f 247/511/110 246/512/110 245/513/110
f 246/514/110 247/515/110 245/516/110
f 248/517/41 250/518/41 249/519/41
f 248/520/41 249/521/41 250/522/41
f 253/523/41 252/524/41 251/525/41
f 253/526/41 251/527/41 252/528/41
f 254/529/41 255/530/41 256/531/41
f 254/532/41 256/533/41 255/534/41
f 258/535/41 257/536/41 259/537/41
f 258/538/41 259/539/41 257/540/41
f 261/541/72 260/542/72 262/543/72
f 260/544/72 261/545/72 262/546/72
f 263/547/111 265/548/112 264/549/112
f 265/550/112 263/551/111 264/552/112
f 266/553/41 268/554/41 267/555/41
f 266/556/41 267/557/41 268/558/41
f 270/559/41 269/560/41 271/561/41
f 270/562/41 271/563/41 269/564/41
f 274/565/41 273/566/41 272/567/41
f 274/568/41 272/569/41 273/570/41
f 276/571/113 277/572/114 275/573/115
f 275/574/115 277/575/114 276/576/113
f 279/577/116 280/578/117 278/579/118
f 280/580/117 279/581/116 278/582/118
f 281/583/41 282/584/41 283/585/41
f 282/586/41 281/587/41 283/588/41
f 285/589/41 286/590/41 284/591/41
f 285/592/41 284/593/41 286/594/41
f 287/595/41 289/596/41 288/597/41
f 287/598/41 288/599/41 289/600/41
f 290/601/41 292/602/41 291/603/41
f 290/604/41 291/605/41 292/606/41
f 293/607/41 295/608/41 294/609/41
f 293/610/41 294/611/41 295/612/41
f 298/613/66 296/614/66 297/615/66
f 296/616/66 298/617/66 297/618/66
f 299/619/41 301/620/41 300/621/41
f 301/622/41 299/623/41 300/624/41
f 302/625/41 303/626/41 304/627/41
f 302/628/41 304/629/41 303/630/41
f 305/631/41 307/632/41 306/633/41
f 305/634/41 306/635/41 307/636/41
f 309/637/41 310/638/41 308/639/41
f 309/640/41 308/641/41 310/642/41
f 313/643/75 312/644/75 311/645/75
f 311/646/75 312/647/75 313/648/75
f 314/649/119 315/650/41 316/651/120
f 315/652/41 314/653/119 316/654/120
f 318/655/41 317/656/41 319/657/41
f 317/658/41 318/659/41 319/660/41
f 320/661/41 322/662/41 321/663/41
f 320/664/41 321/665/41 322/666/41
f 323/667/41 325/668/41 324/669/41
f 323/670/41 324/671/41 325/672/41
f 326/673/41 328/674/41 327/675/41
f 326/676/41 327/677/41 328/678/41
f 331/679/121 330/680/122 329/681/123
f 329/682/123 330/683/122 331/684/121
f 333/685/124 332/686/125 334/687/126
f 332/688/125 333/689/124 334/690/126
f 335/691/41 337/692/41 336/693/41
f 337/694/41 335/695/41 336/696/41
f 339/697/41 340/698/41 338/699/41
f 339/700/41 338/701/41 340/702/41
f 341/703/41 343/704/41 342/705/41
f 341/706/41 342/707/41 343/708/41
f 344/709/41 346/710/41 345/711/41
f 344/712/41 345/713/41 346/714/41
f 349/715/41 347/716/41 348/717/41
f 349/718/41 348/719/41 347/720/41
f 352/721/127 350/722/125 351/723/124
f 350/724/125 352/725/127 351/726/124
f 355/727/41 354/728/41 353/729/41
f 354/730/41 355/731/41 353/732/41
f 357/733/41 358/734/41 356/735/41
f 357/736/41 356/737/41 358/738/41
f 359/739/41 361/740/41 360/741/41
f 359/742/41 360/743/41 361/744/41
f 364/745/41 363/746/41 362/747/41
f 364/748/41 362/749/41 363/750/41
f 365/751/41 366/752/41 367/753/41
f 365/754/41 367/755/41 366/756/41
f 369/757/128 368/758/129 370/759/130
f 368/760/129 369/761/128 370/762/130
f 371/763/41 373/764/41 372/765/41
f 373/766/41 371/767/41 372/768/41
f 375/769/41 376/770/41 374/771/41
f 375/772/41 374/773/41 376/774/41
f 377/775/41 378/776/41 379/777/41
f 377/778/41 379/779/41 378/780/41
f 380/781/41 382/782/41 381/783/41
f 380/784/41 381/785/41 382/786/41
f 385/787/131 383/788/132 384/789/133
f 384/790/133 383/791/132 385/792/131
f 386/793/134 388/794/135 387/795/136
f 388/796/135 386/797/134 387/798/136
f 389/799/41 391/800/41 390/801/41
f 389/802/41 390/803/41 391/804/41
f 392/805/41 394/806/41 393/807/41
f 392/808/41 393/809/41 394/810/41
f 396/811/41 397/812/41 395/813/41
f 396/814/41 395/815/41 397/816/41
f 398/817/41 399/818/41 400/819/41
f 398/820/41 400/821/41 399/822/41
f 403/823/41 401/824/41 402/825/41
f 403/826/41 402/827/41 401/828/41
f 406/829/137 404/830/138 405/831/139
f 404/832/138 406/833/137 405/834/139
f 408/835/41 407/836/41 409/837/41
f 408/838/41 409/839/41 407/840/41
f 410/841/41 412/842/41 411/843/41
f 410/844/41 411/845/41 412/846/41
f 413/847/41 415/848/41 414/849/41
f 413/850/41 414/851/41 415/852/41
f 416/853/41 418/854/41 417/855/41
f 416/856/41 417/857/41 418/858/41
f 420/859/75 421/860/75 419/861/75
f 419/862/75 421/863/75 420/864/75
f 422/865/140 424/866/41 423/867/141
f 424/868/41 422/869/140 423/870/141
f 425/871/41 427/872/41 426/873/41
f 425/874/41 426/875/41 427/876/41
f 428/877/41 430/878/41 429/879/41
f 428/880/41 429/881/41 430/882/41
f 432/883/41 433/884/41 431/885/41
f 432/886/41 431/887/41 433/888/41
f 435/889/41 436/890/41 434/891/41
f 435/892/41 434/893/41 436/894/41
f 437/895/41 439/896/41 438/897/41
f 437/898/41 438/899/41 439/900/41
f 440/901/142 442/902/143 441/903/144
f 442/904/143 440/905/142 441/906/144
f 444/907/41 443/908/41 445/909/41
f 444/910/41 445/911/41 443/912/41
f 446/913/41 448/914/41 447/915/41
f 446/916/41 447/917/41 448/918/41
f 449/919/41 451/920/41 450/921/41
f 449/922/41 450/923/41 451/924/41
f 452/925/41 454/926/41 453/927/41
f 452/928/41 453/929/41 454/930/41
f 456/931/41 457/932/41 455/933/41
f 456/934/41 455/935/41 457/936/41
f 460/937/145 458/938/146 459/939/146
f 458/940/146 460/941/145 459/942/146
f 462/943/41 461/944/41 463/945/41
f 462/946/41 463/947/41 461/948/41
f 464/949/41 465/950/41 466/951/41
f 464/952/41 466/953/41 465/954/41
f 468/955/41 469/956/41 467/957/41
f 468/958/41 467/959/41 469/960/41
f 470/961/41 471/962/41 472/963/41
f 470/964/41 472/965/41 471/966/41
f 474/967/147 475/968/148 473/969/149
f 473/970/149 475/971/148 474/972/147
f 476/973/150 478/974/151 477/975/152
f 478/976/151 476/977/150 477/978/152
f 479/979/41 480/980/41 481/981/41
f 479/982/41 481/983/41 480/984/41
f 484/985/41 483/986/41 482/987/41
f 484/988/41 482/989/41 483/990/41
f 485/991/41 487/992/41 486/993/41
f 485/994/41 486/995/41 487/996/41
f 490/997/41 489/998/41 488/999/41
f 490/1000/41 488/1001/41 489/1002/41
f 491/1003/75 493/1004/75 492/1005/75
f 492/1006/75 493/1007/75 491/1008/75
f 495/1009/64 494/1010/64 496/1011/41
f 494/1012/64 495/1013/64 496/1014/41
f 498/1015/41 497/1016/88 499/1017/88
f 497/1018/88 498/1019/41 499/1020/88
f 501/1021/41 502/1022/41 500/1023/41
f 501/1024/41 500/1025/41 502/1026/41
f 505/1027/75 503/1028/75 504/1029/75
f 503/1030/75 505/1031/75 504/1032/75
f 506/1033/72 507/1034/72 508/1035/72
f 507/1036/72 506/1037/72 508/1038/72
f 509/1039/41 511/1040/41 510/1041/41
f 509/1042/41 510/1043/41 511/1044/41
f 512/1045/153 514/1046/154 513/1047/155
f 514/1048/154 512/1049/153 513/1050/155
f 515/1051/41 516/1052/88 517/1053/88
f 516/1054/88 515/1055/41 517/1056/88
f 519/1057/41 520/1058/41 518/1059/41
f 519/1060/41 518/1061/41 520/1062/41
f 521/1063/41 522/1064/41 523/1065/41
f 521/1066/41 523/1067/41 522/1068/41
f 525/1069/41 526/1070/41 524/1071/41
f 525/1072/41 524/1073/41 526/1074/41
f 528/1075/156 529/1076/157 527/1077/158
f 527/1078/158 529/1079/157 528/1080/156
f 530/1081/159 532/1082/160 531/1083/161
f 532/1084/160 530/1085/159 531/1086/161
f 535/1087/41 534/1088/88 533/1089/88
f 534/1090/88 535/1091/41 533/1092/88
f 537/1093/41 538/1094/41 536/1095/41
f 537/1096/41 536/1097/41 538/1098/41
f 541/1099/72 539/1100/72 540/1101/72
f 539/1102/72 541/1103/72 540/1104/72
f 544/1105/41 542/1106/41 543/1107/41
f 544/1108/41 543/1109/41 542/1110/41
f 545/1111/123 546/1112/122 547/1113/162
f 547/1114/162 546/1115/122 545/1116/123
f 549/1117/163 548/1118/164 550/1119/165
f 548/1120/164 549/1121/163 550/1122/165
f 551/1123/41 553/1124/88 552/1125/88
f 553/1126/88 551/1127/41 552/1128/88
f 556/1129/72 554/1130/72 555/1131/72
f 554/1132/72 556/1133/72 555/1134/72
f 557/1135/41 558/1136/41 559/1137/41
f 557/1138/41 559/1139/41 558/1140/41
f 562/1141/41 561/1142/41 560/1143/41
f 561/1144/41 562/1145/41 560/1146/41
f 563/1147/41 564/1148/41 565/1149/41
f 563/1150/41 565/1151/41 564/1152/41
f 567/1153/166 566/1154/166 568/1155/167
f 566/1156/166 567/1157/166 568/1158/167
f 570/1159/41 569/1160/88 571/1161/88
f 569/1162/88 570/1163/41 571/1164/88
f 572/1165/41 573/1166/41 574/1167/41
f 572/1168/41 574/1169/41 573/1170/41
f 576/1171/75 575/1172/75 577/1173/75
f 575/1174/75 576/1175/75 577/1176/75
f 579/1177/41 580/1178/41 578/1179/41
f 579/1180/41 578/1181/41 580/1182/41
f 582/1183/41 583/1184/41 581/1185/41
f 582/1186/41 581/1187/41 583/1188/41
f 584/1189/84 585/1190/168 586/1191/169
f 585/1192/168 584/1193/84 586/1194/169
f 589/1195/41 588/1196/88 587/1197/88
f 588/1198/88 589/1199/41 587/1200/88
f 590/1201/41 591/1202/41 592/1203/41
f 590/1204/41 592/1205/41 591/1206/41
f 594/1207/72 593/1208/72 595/1209/72
f 593/1210/72 594/1211/72 595/1212/72
f 596/1213/41 597/1214/41 598/1215/41
f 596/1216/41 598/1217/41 597/1218/41
f 601/1219/121 600/1220/170 599/1221/123
f 599/1222/123 600/1223/170 601/1224/121
f 603/1225/171 604/1226/172 602/1227/173
f 604/1228/172 603/1229/171 602/1230/173
f 605/1231/174 607/1232/174 606/1233/174
f 607/1234/174 605/1235/174 606/1236/174
f 610/1237/41 608/1238/41 609/1239/41
f 608/1240/41 610/1241/41 609/1242/41
f 613/1243/88 611/1244/88 612/1245/88
f 611/1246/88 613/1247/88 612/1248/88
f 614/1249/41 616/1250/41 615/1251/41
f 614/1252/41 615/1253/41 616/1254/41
f 618/1255/75 617/1256/75 619/1257/75
f 619/1258/75 617/1259/75 618/1260/75
f 620/1261/175 622/1262/176 621/1263/177
f 622/1264/176 620/1265/175 621/1266/177
f 624/1267/178 625/1268/179 623/1269/178
f 625/1270/179 624/1271/178 623/1272/178
f 628/1273/41 627/1274/41 626/1275/41
f 628/1276/41 626/1277/41 627/1278/41
f 630/1279/41 629/1280/41 631/1281/41
f 629/1282/41 630/1283/41 631/1284/41
f 632/1285/88 634/1286/88 633/1287/88
f 634/1288/88 632/1289/88 633/1290/88
f 636/1291/41 635/1292/41 637/1293/41
f 636/1294/41 637/1295/41 635/1296/41
f 638/1297/180 639/1298/181 640/1299/104
f 639/1300/181 638/1301/180 640/1302/104
f 642/1303/41 643/1304/88 641/1305/88
f 643/1306/88 642/1307/41 641/1308/88
f 644/1309/41 646/1310/41 645/1311/41
f 644/1312/41 645/1313/41 646/1314/41
f 648/1315/41 649/1316/41 647/1317/41
f 648/1318/41 647/1319/41 649/1320/41
f 652/1321/72 650/1322/72 651/1323/72
f 650/1324/72 652/1325/72 651/1326/72
f 655/1327/41 653/1328/41 654/1329/41
f 655/1330/41 654/1331/41 653/1332/41
f 658/1333/182 656/1334/183 657/1335/41
f 656/1336/183 658/1337/182 657/1338/41
f 660/1339/41 659/1340/66 661/1341/66
f 659/1342/66 660/1343/41 661/1344/66
f 662/1345/41 663/1346/41 664/1347/41
f 662/1348/41 664/1349/41 663/1350/41
f 665/1351/41 666/1352/41 667/1353/41
f 665/1354/41 667/1355/41 666/1356/41
f 669/1357/72 668/1358/72 670/1359/72
f 668/1360/72 669/1361/72 670/1362/72
f 673/1363/75 672/1364/75 671/1365/75
f 671/1366/75 672/1367/75 673/1368/75
f 675/1369/184 676/1370/185 674/1371/184
f 676/1372/185 675/1373/184 674/1374/184
f 679/1375/186 677/1376/41 678/1377/187
f 677/1378/41 679/1379/186 678/1380/187
f 682/1381/66 680/1382/66 681/1383/66
f 680/1384/66 682/1385/66 681/1386/66
f 685/1387/41 683/1388/41 684/1389/41
f 683/1390/41 685/1391/41 684/1392/41
f 687/1393/41 688/1394/41 686/1395/41
f 687/1396/41 686/1397/41 688/1398/41
f 691/1399/188 689/1400/189 690/1401/188
f 690/1402/188 689/1403/189 691/1404/188
f 693/1405/190 692/1406/191 694/1407/192
f 692/1408/191 693/1409/190 694/1410/192
f 697/1411/193 696/1412/193 695/1413/193
f 696/1414/193 697/1415/193 695/1416/193
f 699/1417/41 700/1418/41 698/1419/41
f 700/1420/41 699/1421/41 698/1422/41
f 702/1423/88 701/1424/88 703/1425/88
f 701/1426/88 702/1427/88 703/1428/88
f 706/1429/41 704/1430/41 705/1431/41
f 704/1432/41 706/1433/41 705/1434/41
f 708/1435/41 707/1436/41 709/1437/41
f 708/1438/41 709/1439/41 707/1440/41
f 713/1441/194 710/1442/194 711/1443/194
f 713/1444/41 712/1445/41 714/1446/41
f 713/1447/41 714/1448/41 712/1449/41
f 715/1450/41 717/1451/41 716/1452/41
f 715/1453/41 716/1454/41 717/1455/41
f 719/1456/41 720/1457/41 718/1458/41
f 720/1459/41 719/1460/41 718/1461/41
f 723/1462/41 722/1463/41 721/1464/41
f 722/1465/41 723/1466/41 721/1467/41
f 724/1468/41 726/1469/41 725/1470/41
f 724/1471/41 725/1472/41 726/1473/41
f 727/1474/195 729/1475/196 728/1476/197
f 729/1477/196 727/1478/195 728/1479/197
f 732/1480/198 730/1481/126 731/1482/126
f 730/1483/126 732/1484/198 731/1485/126
f 735/1486/84 733/1487/84 734/1488/84
f 734/1489/84 733/1490/84 735/1491/84
f 737/1492/72 736/1493/72 738/1494/72
f 738/1495/72 736/1496/72 737/1497/72
f 740/1498/41 739/1499/41 741/1500/41
f 740/1501/41 741/1502/41 739/1503/41
f 743/1504/72 744/1505/72 742/1506/72
f 742/1507/72 744/1508/72 743/1509/72
f 746/1510/41 745/1511/41 747/1512/41
f 747/1513/41 745/1514/41 746/1515/41
f 748/1516/64 749/1517/64 750/1518/64
f 749/1519/64 748/1520/64 750/1521/64
f 753/1522/41 752/1523/41 751/1524/41
f 751/1525/41 752/1526/41 753/1527/41
f 756/1528/41 754/1529/41 755/1530/41
f 754/1531/41 756/1532/41 755/1533/41
f 758/1534/75 759/1535/75 757/1536/75
f 757/1537/75 759/1538/75 758/1539/75
f 762/1540/75 761/1541/75 760/1542/75
f 760/1543/75 761/1544/75 762/1545/75
f 764/1546/41 763/1547/41 765/1548/41
f 763/1549/41 764/1550/41 765/1551/41
f 766/1552/199 767/1553/200 768/1554/201
f 768/1555/201 767/1556/200 766/1557/199
f 769/1558/41 770/1559/41 771/1560/41
f 769/1561/41 771/1562/41 770/1563/41
f 773/1564/41 772/1565/41 774/1566/41
f 774/1567/41 772/1568/41 773/1569/41
f 775/1570/41 776/1571/41 777/1572/41
f 775/1573/41 777/1574/41 776/1575/41
f 778/1576/41 779/1577/41 780/1578/41
f 778/1579/41 780/1580/41 779/1581/41
f 782/1582/84 781/1583/84 783/1584/84
f 781/1585/84 782/1586/84 783/1587/84
f 784/1588/41 786/1589/41 785/1590/41
f 784/1591/41 785/1592/41 786/1593/41
f 787/1594/41 789/1595/41 788/1596/41
f 789/1597/41 787/1598/41 788/1599/41
f 790/1600/41 792/1601/41 791/1602/41
f 791/1603/41 792/1604/41 790/1605/41
f 793/1606/202 794/1607/203 795/1608/204
f 795/1609/204 794/1610/203 793/1611/202
f 796/1612/41 798/1613/41 797/1614/41
f 798/1615/41 796/1616/41 797/1617/41
f 800/1618/41 799/1619/41 801/1620/41
f 801/1621/41 799/1622/41 800/1623/41
f 803/1624/41 802/1625/41 804/1626/41
f 804/1627/41 802/1628/41 803/1629/41
f 807/1630/41 806/1631/41 805/1632/41
f 805/1633/41 806/1634/41 807/1635/41
f 810/1636/41 809/1637/41 808/1638/41
f 808/1639/41 809/1640/41 810/1641/41
f 813/1642/41 812/1643/41 811/1644/41
f 811/1645/41 812/1646/41 813/1647/41
f 814/1648/41 815/1649/41 816/1650/41
f 815/1651/41 814/1652/41 816/1653/41
f 818/1654/41 819/1655/41 817/1656/41
f 817/1657/41 819/1658/41 818/1659/41
f 820/1660/41 822/1661/41 821/1662/41
f 822/1663/41 820/1664/41 821/1665/41
f 824/1666/41 825/1667/41 823/1668/41
f 823/1669/41 825/1670/41 824/1671/41
f 828/1672/41 827/1673/41 826/1674/41
f 826/1675/41 827/1676/41 828/1677/41
f 832/1678/41 833/1679/41 834/1680/41
f 832/1681/41 834/1682/41 833/1683/41
f 835/1684/41 836/1685/41 837/1686/41
f 835/1687/41 837/1688/41 836/1689/41
f 838/1690/41 840/1691/41 839/1692/41
f 838/1693/41 839/1694/41 840/1695/41
f 841/1696/41 842/1697/41 843/1698/41
f 841/1699/41 843/1700/41 842/1701/41
f 9/1/205 10/1702/205 11/2/205
f 17/4/206 18/52/206 19/5/206
f 20/7/4 21/66/4 22/8/4
f 26/10/207 27/93/208 15/11/209
f 30/13/210 31/69/210 32/14/210
f 33/16/211 34/64/212 35/17/213
f 36/19/214 31/53/79 37/20/78
f 40/22/215 41/44/215 42/23/215
f 46/25/216 58/67/216 47/26/216
f 49/28/217 50/54/217 51/29/217
f 55/31/218 56/65/218 57/32/219
f 59/34/220 58/43/87 60/35/86
f 29/15/221 32/14/221 26/10/221
f 36/19/222 38/21/222 40/22/222
f 44/41/223 38/21/223 37/20/223
f 54/55/91 48/30/90 51/29/224
f 59/34/92 61/36/92 52/57/92
f 58/43/28 59/34/83 42/23/29
f 20/45/225 23/106/43 24/46/62
f 8/89/57 16/1703/57 19/90/57
f 25/1704/59 24/92/226 8/91/60
f 43/48/227 27/1705/227 26/49/227
f 60/35/228 49/28/228 48/30/228
f 17/51/2 16/1706/2 9/1/229
f 45/27/230 47/26/230 18/52/230
f 31/53/35 36/19/231 51/29/36
f 54/115/74 21/1707/74 20/116/232
f 28/12/42 15/11/69 23/9/43
f 34/64/212 33/16/211 30/13/212
f 56/65/4 22/8/4 21/66/4
f 41/18/30 35/17/233 47/26/47
f 34/64/234 11/94/234 10/68/234
f 56/65/218 55/31/218 46/25/218
f 50/33/37 57/32/235 32/14/50
f 13/70/236 12/3/236 11/2/236
f 53/72/237 19/1708/237 18/73/237
f 29/15/238 26/10/238 27/93/238
f 26/10/239 28/12/239 27/93/239
f 28/12/64 17/4/64 11/94/64
f 27/93/240 28/12/240 11/94/240
f 27/101/241 43/102/67 9/99/68
f 23/1709/11 25/88/11 22/108/11
f 25/88/59 19/90/61 22/108/88
f 18/107/242 17/1710/242 22/108/242
f 59/109/72 18/73/72 60/111/72
f 18/73/72 47/1711/243 46/110/72
f 18/1712/244 53/114/244 17/113/244
f 53/114/39 20/116/73 22/112/66
f 30/1713/75 37/120/75 26/49/75
f 26/49/75 32/1714/75 30/1713/75
f 38/121/11 37/124/11 30/122/11
f 32/126/245 51/131/245 36/127/245
f 37/128/72 30/1715/72 32/126/72
f 40/123/77 30/122/76 34/129/77
f 57/132/72 49/1716/72 51/131/72
f 35/1717/72 10/1718/72 40/1719/72
f 10/1718/72 42/1720/72 40/1719/72
f 35/135/75 40/1721/75 42/133/75
f 33/1722/8 41/1723/10 40/123/66
f 33/1722/246 40/123/246 35/130/246
f 60/1724/11 46/1725/11 61/138/11
f 61/138/247 46/1725/247 47/134/247
f 47/134/248 42/133/248 61/138/248
f 49/139/249 46/144/249 56/140/249
f 55/1726/15 50/1727/17 49/139/88
f 55/1726/250 49/139/250 57/141/250
f 57/118/251 54/117/252 49/1728/253
f 54/117/252 51/1729/254 49/1728/253
l 1 2
