# Blender 4.5.0
# www.blender.org
mtllib public_004.lod2.mtl
o public_004
v -1.831342 2.644267 -3.025638
v 1.805223 2.644267 -3.025638
v -3.247848 0.754323 -1.022102
v 3.250000 -0.000000 3.250000
v 3.250000 0.012862 -3.259977
v 3.037350 5.282103 1.056572
v -3.063470 5.282103 -1.066550
v 0.651298 0.107497 -2.826359
v -2.915272 6.231246 -2.820487
v 2.879092 6.257153 2.797603
v 2.875293 6.259548 -2.807351
v 2.884203 6.253178 -2.801235
v -2.900266 6.258461 2.800178
v -2.910322 6.253178 2.791257
v -3.061008 6.141168 -2.801235
v -3.070171 6.152275 -2.810376
v -3.070171 6.495738 -2.964766
v -3.059192 6.141168 -2.810376
v -3.061008 6.505007 -2.801235
v -3.070171 6.495738 -2.810376
v -3.079334 6.505007 -2.819517
v -2.915235 6.493826 2.800398
v -2.915235 6.152349 -2.810376
v -2.910322 6.150437 -2.810376
v -2.900882 6.141168 -2.801235
v -2.914333 6.504737 -2.800550
v -2.915399 6.495738 -2.810376
v -2.910322 6.140576 2.800389
v -2.910322 6.141168 2.791257
v -2.919486 6.131898 2.800398
v 2.884203 6.150437 -2.810376
v 2.889279 6.150437 -2.810376
v 2.884203 6.141168 -2.801235
v 2.875040 6.150437 -2.810376
v 3.034889 6.505007 2.800398
v 3.044052 6.495738 2.954787
v 3.044052 6.495738 2.800398
v 3.034889 6.505007 2.791257
v 2.875040 6.150437 2.800398
v 2.884203 6.141168 2.791257
v 2.889115 6.152349 2.800398
v 2.884203 6.150437 2.800398
v 2.891250 6.502851 2.796970
v 2.884203 6.495738 2.791257
v 2.888958 6.500346 -2.808408
v 3.044052 6.150437 -2.964766
v 3.034889 6.505007 -2.801235
v 3.044052 6.493900 -2.810376
v 3.033072 6.505007 -2.810376
v 3.044052 6.150437 -2.814439
v 3.034889 6.141168 -2.801235
v 3.034889 6.141168 -2.810376
v -3.064966 6.144003 2.956248
v 3.034889 6.141168 2.791257
v 3.044052 6.152275 2.800398
v 3.033072 6.141168 2.800398
v -3.070171 6.493826 2.954951
v -3.062292 6.502093 2.956011
v -3.061008 6.505007 2.809538
v -3.059192 6.505007 2.800398
v -3.061008 6.505007 2.791257
v -3.070171 6.493900 2.800398
v -3.070171 6.150437 2.804461
v -3.061008 6.141168 2.791257
v -3.061008 6.141168 2.800398
v -1.861313 2.624905 -2.873538
v -1.095286 0.574100 -2.802283
v -2.627341 0.574100 -2.788573
v -1.737147 0.450880 -2.915017
v -1.183705 2.329019 -2.883974
v -2.538922 2.329020 -2.886266
v -2.538686 2.372757 -2.943776
v -2.540672 0.618309 -2.915017
v -2.542657 2.372757 -2.886258
v -1.861313 0.618309 -2.915017
v -1.859327 2.372757 -2.943776
v -1.863299 2.372757 -2.886258
v -1.179970 2.372757 -2.943776
v -1.181956 0.618309 -2.915017
v -1.183942 2.372757 -2.886258
v -2.660558 0.559415 -2.885952
v -1.062437 0.597261 -3.053168
v -1.062437 0.587972 -2.816728
v 0.001216 2.371387 -2.897535
v -0.779087 0.574100 -2.788573
v 0.752968 0.574100 -2.802283
v 0.000256 0.187514 -2.989761
v -0.690668 2.329020 -2.886266
v 0.664549 2.329020 -2.883974
v -0.692418 0.618309 -2.915017
v -0.690432 2.372757 -2.943776
v -0.694404 2.372757 -2.886258
v -0.013060 0.618309 -2.915017
v -0.011074 2.372757 -2.943776
v -0.015045 2.372757 -2.886258
v 0.668284 2.372757 -2.943776
v 0.666299 0.618309 -2.915017
v 0.664313 2.372757 -2.886258
v 0.785817 0.597261 -3.053169
v 0.785817 0.587972 -2.816728
v -0.807309 0.629122 -3.043640
v 2.601222 0.574100 -2.802283
v 1.069167 0.574100 -2.788572
v 1.835194 2.624973 -2.873307
v 1.820919 0.633043 -2.897535
v 1.157586 2.329019 -2.886266
v 2.512803 2.329019 -2.883974
v 1.153850 2.372757 -2.886258
v 1.155836 0.618309 -2.915017
v 1.157822 2.372757 -2.943776
v 1.837180 2.372757 -2.943776
v 1.835194 0.618309 -2.915017
v 1.833208 2.372757 -2.886258
v 2.516538 2.372757 -2.943776
v 2.514552 0.618309 -2.915017
v 2.512567 2.372757 -2.886258
v 1.036318 0.587972 -3.053168
v 1.036318 0.597261 -2.816728
v 2.629444 0.556111 -3.043640
v -1.095286 5.452219 -2.788573
v -1.851106 3.137735 -2.870171
v -2.627341 5.452219 -2.802283
v -1.847038 5.403382 -2.897535
v -2.538922 3.697299 -2.883974
v -1.183705 3.697299 -2.886266
v -2.540672 5.418116 -2.915017
v -2.542657 3.663668 -2.943776
v -2.538686 3.663668 -2.886258
v -1.863299 3.663668 -2.943776
v -1.861313 5.418116 -2.915017
v -1.859327 3.663668 -2.886258
v -1.183942 3.663668 -2.943776
v -1.181956 5.418116 -2.915018
v -1.179970 3.663668 -2.886258
v -1.062437 3.629256 -3.053169
v -1.062437 3.619967 -2.816729
v -2.655563 3.661117 -3.043640
v -0.027335 3.665038 -2.897535
v -0.779087 5.452219 -2.802283
v 0.752968 5.452219 -2.788573
v 0.001216 5.403382 -2.897535
v -0.690668 3.697299 -2.883974
v 0.664549 3.697299 -2.886266
v -0.694404 3.663668 -2.943776
v -0.690432 3.663668 -2.886258
v -0.692418 5.418116 -2.915017
v -0.013060 5.418116 -2.915017
v -0.015045 3.663668 -2.943776
v -0.011074 3.663668 -2.886258
v 0.664313 3.663668 -2.943776
v 0.666299 5.418116 -2.915017
v 0.668284 3.663668 -2.886258
v 0.785817 3.629256 -3.053169
v -0.807309 3.661117 -3.043640
v 0.785817 3.619967 -2.816729
v 1.069167 5.452219 -2.802283
v 2.601222 5.452219 -2.788573
v 1.824946 3.138035 -2.870171
v 1.157586 3.697299 -2.883974
v 1.849469 5.403382 -2.897535
v 2.512803 3.697299 -2.886266
v 1.155836 5.418116 -2.915017
v 1.153850 3.663668 -2.943776
v 1.157822 3.663668 -2.886258
v 1.833208 3.663668 -2.943776
v 1.835194 5.418116 -2.915017
v 1.837180 3.663668 -2.886258
v 2.514552 5.418116 -2.915017
v 2.512567 3.663668 -2.943776
v 2.516538 3.663668 -2.886258
v 2.629444 3.588106 -3.043640
v 1.036318 3.619967 -3.053169
v 1.036318 3.629256 -2.816729
v -0.026862 0.178244 -2.999338
v -0.711129 2.377372 -2.900283
v 0.685009 2.377373 -2.889888
v -0.611385 0.179522 -2.983292
v 0.585266 0.179522 -2.986264
v -0.027335 2.371387 -2.932499
v -0.015075 2.301966 -2.988439
v -0.013060 0.164797 -3.014676
v -0.011044 2.301966 -3.040912
v -0.135090 0.947193 -3.107239
v -0.132946 1.367467 -3.074471
v -0.130803 0.947193 -3.041703
v 0.104684 0.947193 -3.107239
v 0.106827 1.367467 -3.074471
v 0.108970 0.947193 -3.041703
v 1.847474 3.139278 -2.936807
v 1.847474 2.614163 -2.953022
v 1.490179 2.397157 -3.248943
v -1.838835 2.362117 -2.933283
v 1.490178 2.386046 -2.800339
v -3.092608 2.219788 1.575307
v -2.993315 0.781737 1.037394
v -2.987180 0.781735 2.141694
v -3.081332 0.867501 1.117884
v -3.078992 0.867501 2.061210
v -3.110133 2.234522 2.062925
v -3.138964 0.833806 2.064906
v -3.081304 0.833806 2.060944
v -3.138964 2.221158 1.587566
v -3.081304 2.221158 1.591528
v -3.110134 0.820443 1.589547
v -3.110134 0.820442 1.116169
v -3.081304 2.221158 1.118150
v -3.138964 2.221158 1.114189
v -3.239006 0.831468 1.001562
v -3.010230 0.799193 2.182193
v -3.250000 0.790307 2.182193
v -2.993315 2.263120 -1.047372
v -3.092608 0.835176 -1.585285
v -2.987180 2.263123 -2.151672
v -3.081332 0.867501 -2.071188
v -3.092608 2.219787 -1.613764
v -3.078992 0.867501 -1.127862
v -3.138964 0.833806 -1.124166
v -3.081304 0.833806 -1.128128
v -3.110134 2.234522 -1.126147
v -3.138964 0.833806 -1.597544
v -3.110134 2.234521 -1.599525
v -3.081304 0.833806 -1.601506
v -3.110134 2.234522 -2.072903
v -3.138964 0.833806 -2.070922
v -3.081304 0.833806 -2.074883
v -3.010230 0.790307 -2.192170
v -3.064134 0.804876 -1.056386
v -3.250000 0.799193 -2.192170
v -2.987180 5.295119 1.037400
v -3.092608 3.867172 1.603786
v -2.993315 5.295116 2.141700
v -3.092608 5.251783 1.575307
v -3.081332 3.899496 1.117884
v -3.078992 3.899496 2.061210
v -3.110134 3.852438 2.062925
v -3.081304 5.253153 2.064905
v -3.138964 5.253153 2.060944
v -3.138964 5.253153 1.587566
v -3.110134 3.852438 1.589547
v -3.081304 5.253153 1.591528
v -3.138964 5.253153 1.114188
v -3.081304 5.253153 1.118150
v -3.110134 3.852437 1.116169
v -3.239076 3.790240 1.001562
v -3.250000 3.822302 2.182193
v -3.010230 3.831188 2.182193
v -2.993315 5.295116 -1.047372
v -3.092608 3.867172 -1.585285
v -2.987180 5.295119 -2.151672
v -3.092608 5.251783 -1.613764
v -3.081332 3.899496 -2.071188
v -3.078992 3.899496 -1.127862
v -3.138964 5.253153 -1.128128
v -3.081304 5.253153 -1.124166
v -3.110134 3.852437 -1.126147
v -3.138964 5.253153 -1.601506
v -3.110133 3.852437 -1.599525
v -3.081304 5.253153 -1.597544
v -3.138964 5.253153 -2.074884
v -3.081304 5.253153 -2.070922
v -3.110133 3.852437 -2.072903
v -3.010230 3.822302 -2.192171
v -3.064134 3.836870 -1.056386
v -3.250000 3.831188 -2.192171
v 2.138946 0.781735 2.961775
v 1.571155 2.219788 3.066942
v 1.031908 0.781737 2.967896
v 1.112598 0.867501 3.055695
v 2.058263 0.867501 3.053360
v 2.057996 0.833806 3.055666
v 2.059982 2.234522 3.084425
v 2.061968 0.833806 3.113183
v 1.587416 0.833806 3.113184
v 1.583444 0.833807 3.055666
v 1.585430 2.234522 3.084424
v 1.110878 2.234522 3.084425
v 1.112864 0.833806 3.113184
v 1.108893 0.833806 3.055666
v 0.995987 0.831469 3.212978
v 2.179545 0.799193 2.984768
v 2.179545 0.790307 3.223945
v -1.058034 0.781735 2.961775
v -2.165072 0.781737 2.967896
v -2.084382 0.867501 3.055695
v -1.625824 2.219788 3.066942
v -1.138717 0.867501 3.053360
v -1.136998 2.234522 3.084425
v -1.135012 0.833806 3.113184
v -1.138984 0.833806 3.055666
v -1.611549 2.234522 3.084425
v -1.613535 0.833806 3.055666
v -1.609563 0.833807 3.113184
v -2.086101 0.820442 3.084425
v -2.084115 2.221158 3.055666
v -2.088087 2.221158 3.113183
v -1.067064 0.804876 3.038539
v -2.205664 0.799193 3.223945
v -2.205664 0.790307 2.984768
v 2.138953 5.295116 2.967895
v 1.031914 5.295119 2.961775
v 1.599705 3.867172 3.066942
v 1.571155 5.251783 3.066942
v 2.058263 3.899497 3.053360
v 1.112598 3.899497 3.055695
v 2.059982 3.852437 3.084425
v 2.061967 5.253153 3.055666
v 2.057996 5.253153 3.113183
v 1.583444 5.253153 3.113183
v 1.585430 3.852438 3.084425
v 1.587416 5.253153 3.055666
v 1.110878 3.852437 3.084425
v 1.108893 5.253153 3.113183
v 1.112864 5.253153 3.055666
v 2.179545 3.822302 3.223945
v 0.995987 3.790240 3.213048
v 2.179545 3.831188 2.984768
v -2.165066 5.295119 2.961775
v -1.597274 3.867172 3.066942
v -1.058027 5.295116 2.967895
v -1.625824 5.251783 3.066942
v -2.084382 3.899497 3.055694
v -1.138717 3.899497 3.053360
v -1.138984 5.253153 3.113183
v -1.136998 3.852437 3.084425
v -1.135012 5.253153 3.055666
v -1.613535 5.253153 3.113183
v -1.609563 5.253153 3.055666
v -1.611549 3.852438 3.084424
v -2.088087 5.253153 3.113183
v -2.084115 5.253153 3.055666
v -2.086101 3.852437 3.084425
v -2.205664 3.831188 3.223945
v -1.067064 3.836870 3.038539
v -2.205664 3.822302 2.984768
v 2.961061 2.263123 -1.047378
v 3.066489 0.835176 -1.613764
v 2.967196 2.263120 -2.151678
v 3.055213 0.867501 -1.127862
v 3.052872 0.867501 -2.071188
v 3.066489 2.219787 -1.585285
v 3.112845 2.221158 -2.070922
v 3.084014 0.820442 -2.072903
v 3.055184 2.221158 -2.074884
v 3.112845 0.833806 -1.601506
v 3.084014 2.234521 -1.599525
v 3.055184 0.833806 -1.597544
v 3.112845 2.221158 -1.124166
v 3.084014 0.820442 -1.126147
v 3.055184 2.221158 -1.128128
v 3.212886 0.831468 -1.011540
v 3.223881 0.790307 -2.192170
v 2.984110 0.799193 -2.192170
v 3.066489 2.219788 1.603786
v 2.967196 0.781737 2.141701
v 2.961061 0.781735 1.037400
v 3.052872 0.867501 1.117884
v 3.055213 0.867501 2.061210
v 3.084014 2.234522 1.116169
v 3.055184 0.833806 1.118150
v 3.112844 0.833806 1.114188
v 3.112845 2.221158 1.591528
v 3.084014 0.820442 1.589547
v 3.055184 2.221158 1.587566
v 3.084014 2.234522 2.062925
v 3.055184 0.833806 2.064906
v 3.112845 0.833806 2.060944
v 3.038015 0.804876 1.046408
v 3.223881 0.799193 2.182193
v 2.984110 0.790307 2.182193
v 2.961061 5.295119 -1.047378
v 3.066489 3.867172 -1.613764
v 2.967196 5.295116 -2.151679
v 3.066489 5.251783 -1.585285
v 3.055213 3.899496 -1.127862
v 3.052872 3.899496 -2.071188
v 3.084014 3.852437 -2.072903
v 3.055184 5.253153 -2.074884
v 3.112844 5.253153 -2.070922
v 3.112844 5.253153 -1.597544
v 3.055184 5.253153 -1.601506
v 3.084014 3.852437 -1.599524
v 3.084014 3.852437 -1.126147
v 3.112844 5.253153 -1.124166
v 3.055184 5.253153 -1.128128
v 3.223881 3.822302 -2.192171
v 3.212956 3.790240 -1.011540
v 2.984110 3.831188 -2.192171
v 2.967196 5.295116 1.037393
v 2.961060 5.295119 2.141694
v 3.066489 3.867172 1.575307
v 3.066489 5.251783 1.603786
v 3.052872 3.899496 1.117884
v 3.055213 3.899496 2.061210
v 3.112844 5.253153 1.118150
v 3.084014 3.852437 1.116169
v 3.055184 5.253153 1.114188
v 3.112844 5.253153 1.591528
v 3.084014 3.852438 1.589547
v 3.055184 5.253153 1.587566
v 3.112844 5.253153 2.064906
v 3.084014 3.852437 2.062925
v 3.055184 5.253153 2.060944
v 3.038015 3.836870 1.046408
v 2.984111 3.822302 2.182193
v 3.223881 3.831188 2.182193
v 1.810218 7.020000 1.507490
v 1.053630 6.546233 1.061357
v 1.810218 6.384174 1.073653
v 1.813138 6.712899 1.045662
v 1.419671 6.504151 1.039113
v 1.353423 6.899800 1.042109
v 1.334226 6.562645 1.017239
v 1.340496 6.549689 1.001480
v 1.758292 6.558067 1.011528
v 1.758292 6.625782 1.011528
v 1.334226 6.631574 1.007014
v 1.340496 6.615592 1.019790
v 1.758292 6.693496 1.011528
v 1.340496 6.701876 1.021575
v 1.334226 6.688919 1.005816
v 1.340496 6.769589 1.021575
v 1.334226 6.756634 1.005816
v 1.758292 6.761211 1.011528
v 1.334226 6.834718 1.007014
v 1.758292 6.828925 1.011528
v 1.340496 6.818736 1.019790
v 1.334226 6.902433 1.007014
v 1.340496 6.886451 1.019790
v 1.758292 6.896640 1.011528
v 1.139148 6.537122 1.044904
v 1.095893 6.922894 1.046408
v 1.052637 6.537122 1.047912
v 1.133006 6.341482 0.996578
v 1.038798 6.335011 0.996577
v 1.085902 6.338247 1.603821
v 1.638232 6.335011 0.996577
v 1.685335 6.338247 1.603821
v 1.732439 6.341482 0.996578
v -1.561597 0.464111 -2.885952
v -2.665813 0.506978 -3.260000
v -2.665813 0.516548 -2.869009
v -2.512043 0.073593 -3.216215
v -2.645252 0.552190 -3.052986
v -2.509357 0.073593 -2.912795
v -1.685904 0.461230 -3.203527
v -1.712798 0.073592 -3.216212
v -1.710112 0.073592 -2.912798
v -2.780482 0.050576 2.991149
v -2.805388 5.822016 3.024629
v -2.837351 0.051245 3.060646
v 2.804820 0.045688 3.058996
v 2.789326 5.822015 3.024629
v 2.762102 0.058882 2.983469
v 0.400585 0.389445 3.009779
v 0.376300 2.209681 3.072624
v -0.426704 0.389446 3.019549
v 0.622294 1.249549 3.093890
v 0.950076 1.249549 2.935437
v 0.622366 1.754882 3.094037
vn -0.7042 -0.6961 -0.1399
vn 0.7062 -0.0000 -0.7080
vn 0.4703 -0.1120 -0.8754
vn -0.6868 0.7253 0.0470
vn -0.0000 -0.7021 -0.7120
vn 0.7112 0.7030 -0.0000
vn 0.0001 -0.7019 0.7123
vn -0.0000 -0.7021 0.7120
vn -0.0000 -0.7020 0.7122
vn 0.7042 0.6961 -0.1399
vn 0.9113 -0.4117 -0.0000
vn 0.7112 -0.7030 -0.0000
vn 0.9988 -0.0489 -0.0000
vn 0.7042 -0.6961 0.1399
vn -0.7042 0.6961 -0.1399
vn -0.8876 -0.4604 0.0109
vn -0.7123 -0.7018 -0.0053
vn -0.9977 -0.0488 0.0476
vn -0.7243 0.6894 0.0074
vn -0.0000 -0.6329 -0.7742
vn -0.7713 0.6364 -0.0000
vn -0.0000 0.7374 -0.6754
vn -0.0000 0.9982 0.0599
vn 0.0015 1.0000 0.0012
vn 0.0015 1.0000 0.0003
vn -0.8109 0.4313 0.3954
vn -0.8183 0.4488 0.3591
vn -0.8227 0.4316 0.3699
vn 0.3269 0.7680 -0.5507
vn 0.3257 0.7593 -0.5634
vn 0.3213 0.7597 -0.5654
vn -0.6626 -0.4994 -0.5581
vn -0.6762 -0.4815 -0.5575
vn -0.6764 -0.4824 -0.5566
vn -0.3440 0.7620 -0.5486
vn -0.3368 0.7593 -0.5568
vn -0.3384 0.7438 -0.5764
vn 0.5984 0.0710 -0.7980
vn 0.9941 0.0005 -0.1082
vn 0.7111 0.7031 -0.0000
vn -0.0000 -0.0000 -0.0000
vn 0.0016 -0.0006 1.0000
vn -0.0000 -0.6329 0.7742
vn -0.0183 0.5193 -0.8544
vn 0.0224 0.4134 -0.9103
vn 0.0182 -0.5166 -0.8560
vn -0.9982 -0.0597 0.0011
vn -0.7954 0.6061 -0.0021
vn -0.4628 0.8864 -0.0031
vn -0.9999 0.0144 -0.0008
vn -0.9010 0.4337 -0.0000
vn -0.7104 0.7038 -0.0000
vn -0.0012 -0.2099 -0.9777
vn 0.0007 -0.2948 -0.9556
vn -0.0000 -0.7021 -0.7121
vn -0.7714 -0.6363 -0.0000
vn -0.0635 -0.9980 -0.0000
vn 0.0008 -0.6963 0.7177
vn 0.0231 -0.4130 0.9104
vn 0.0226 -0.3723 0.9278
vn 0.9242 -0.3820 -0.0000
vn 0.7714 -0.6364 -0.0000
vn -0.0224 -0.4126 -0.9106
vn -0.6636 -0.0000 0.7481
vn -0.6367 0.0114 0.7710
vn -0.3019 -0.0047 0.9533
vn -0.1351 0.0017 0.9908
vn -0.0049 0.6735 -0.7392
vn -0.0001 0.7005 -0.7137
vn -0.9982 -0.0603 0.0011
vn -0.0013 0.6761 0.7368
vn 0.0001 0.7242 0.6896
vn 0.0004 0.0020 1.0000
vn 0.8543 0.5198 -0.0000
vn 0.9988 0.0488 0.0009
vn 0.9989 0.0472 0.0009
vn -0.0001 0.0262 0.9997
vn -0.3628 0.9319 -0.0015
vn -1.0000 -0.0000 -0.0000
vn 0.0613 -0.9981 -0.0017
vn -0.9997 -0.0259 0.0016
vn -0.9997 -0.0259 0.0007
vn -0.8975 0.4410 -0.0000
vn -0.9989 0.0464 -0.0000
vn -0.0000 -1.0000 -0.0000
vn -0.6951 -0.0215 0.7186
vn -0.0000 -0.0000 1.0000
vn 0.0016 1.0000 -0.0000
vn -0.0000 -0.0000 -1.0000
vn 0.9996 0.0277 0.0001
vn 0.7293 0.6842 0.0010
vn 0.9999 0.0138 0.0002
vn 0.0768 0.9970 -0.0058
vn -1.0000 0.0087 -0.0005
vn 0.0003 0.0056 -1.0000
vn 0.0004 0.0056 -1.0000
vn 0.0002 0.0056 -1.0000
vn -0.0153 0.9999 -0.0000
vn -0.0150 0.9999 -0.0000
vn -0.0319 0.9995 0.0026
vn 0.9250 0.3800 -0.0000
vn 0.9988 0.0489 -0.0000
vn 1.0000 -0.0000 -0.0000
vn -0.0120 0.0049 0.9999
vn -0.0240 0.0099 0.9997
vn -0.0056 0.0023 1.0000
vn 0.0009 0.6968 0.7172
vn 0.0010 0.9998 0.0199
vn -0.0319 0.9995 -0.0002
vn 0.9997 -0.0260 -0.0000
vn -0.9923 -0.0000 -0.1240
vn -0.9956 -0.0000 -0.0933
vn -0.9981 -0.0000 -0.0624
vn -0.2747 -0.0000 0.9615
vn -0.3162 -0.0000 0.9487
vn -0.3511 -0.0000 0.9363
vn -0.0213 0.0309 -0.9993
vn -1.0000 -0.0092 0.0025
vn -0.9544 0.2983 -0.0112
vn -0.9363 0.3511 -0.0073
vn -0.0025 0.0092 -1.0000
vn 0.8654 -0.0000 0.5010
vn 0.8619 -0.0000 0.5070
vn 0.0055 -0.0708 0.9975
vn 0.9934 -0.0000 -0.1146
vn 0.9926 -0.0000 -0.1213
vn 0.9923 -0.0000 -0.1240
vn -0.0039 0.0624 -0.9980
vn -0.0624 0.9981 -0.0000
vn -0.0555 -0.0000 -0.9985
vn -0.0476 -0.0000 -0.9989
vn -0.0499 -0.0000 -0.9988
vn 1.0000 -0.0092 -0.0025
vn -0.9558 0.2941 -0.0000
vn -0.9456 0.1455 -0.2910
vn -0.9200 0.1752 -0.3505
vn -1.0000 -0.0000 0.0054
vn -1.0000 -0.0000 0.0053
vn 0.7295 -0.0000 0.6839
vn 0.7328 -0.0000 0.6805
vn 0.7071 -0.0000 0.7071
vn -0.3831 -0.3787 -0.8425
vn -0.7111 0.7031 -0.0000
vn 0.0494 0.1270 0.9907
vn -0.9999 -0.0139 -0.0009
vn 0.2636 -0.6773 0.6869
vn 0.3832 0.3787 -0.8425
vn 0.7113 -0.7029 0.0001
vn 0.7113 -0.7029 0.0002
vn 0.3831 -0.3787 0.8425
vn -0.7042 0.6961 0.1399
vn -0.7112 -0.7030 -0.0000
vn -0.7715 0.6362 0.0003
vn 0.0774 -0.9969 0.0154
vn -0.0020 1.0000 0.0020
vn -0.0000 0.7021 0.7121
vn -0.0322 0.9995 0.0064
vn -0.0000 0.0277 -0.9996
vn -0.0000 0.0262 0.9997
vn 0.5817 0.8134 -0.0000
vn 0.0108 0.0278 -0.9996
vn 0.7713 0.6365 -0.0002
vn 0.0012 -0.7015 0.7126
vn 0.0774 0.9969 -0.0154
vn -0.0774 -0.9969 -0.0154
vn -0.0001 0.9984 -0.0566
vn -0.0000 0.0056 -1.0000
vn -0.7113 -0.7029 -0.0002
vn -0.0000 -0.9998 0.0182
vn -0.0000 -0.0259 0.9997
vn -0.0000 -0.9982 -0.0599
vn 0.7062 -0.0000 0.7080
vn -0.0103 0.0265 0.9996
vn 0.9155 -0.4022 -0.0000
vn -0.0518 -0.1331 -0.9897
vn 0.7063 -0.0000 -0.7079
vn 0.0015 -0.0251 0.9997
vn -0.9997 -0.0260 0.0008
vn -0.9997 -0.0260 -0.0000
vn 0.3148 0.8094 0.4957
vn -0.7001 -0.7141 -0.0012
vn 0.9999 0.0113 -0.0000
vn -0.8809 -0.0000 0.4734
vn -0.0127 0.0003 -0.9999
vn -0.0127 -0.0005 -0.9999
vn -0.0129 -0.0040 -0.9999
vn -0.0132 -0.0131 -0.9998
vn 0.4144 -0.0108 0.9100
vn 0.9997 -0.0260 -0.0016
vn -0.9978 0.0267 -0.0608
vn -0.9808 0.0049 -0.1949
vn -0.8114 0.0293 -0.5837
vt 0.454206 0.243049
vt 0.454206 0.243450
vt 0.453871 0.243384
vt 0.212822 0.465906
vt 0.213156 0.466241
vt 0.213491 0.466575
vt 0.454206 0.248705
vt 0.454206 0.249219
vt 0.453871 0.249229
vt 0.946757 0.963616
vt 0.946810 0.963384
vt 0.947125 0.963488
vt 0.454206 0.460405
vt 0.453871 0.460406
vt 0.454206 0.460071
vt 0.007835 0.243384
vt 0.007835 0.243049
vt 0.008170 0.243384
vt 0.249219 0.460406
vt 0.248884 0.460405
vt 0.248884 0.460071
vt 0.213156 0.243050
vt 0.213157 0.243450
vt 0.212822 0.243384
vt 0.454354 0.466241
vt 0.454206 0.465906
vt 0.459889 0.465906
vt 0.248884 0.466241
vt 0.248884 0.465840
vt 0.249219 0.465906
vt 0.007835 0.465839
vt 0.007835 0.466241
vt 0.007501 0.465906
vt 0.248736 0.243049
vt 0.248884 0.243384
vt 0.243302 0.243201
vt 0.002179 0.466241
vt 0.002185 0.465906
vt 0.008170 0.465906
vt 0.213156 0.460591
vt 0.212822 0.460740
vt 0.002152 0.243384
vt 0.967905 0.680053
vt 0.953257 0.680253
vt 0.953257 0.679542
vt 0.967905 0.645315
vt 0.953257 0.645614
vt 0.953257 0.644959
vt 0.967905 0.664962
vt 0.953257 0.665518
vt 0.953257 0.664704
vt 0.967905 0.699344
vt 0.953257 0.699643
vt 0.953257 0.698988
vt 0.339444 0.971784
vt 0.339087 0.967917
vt 0.339444 0.968066
vt 0.732020 0.156898
vt 0.744648 0.157131
vt 0.732257 0.157118
vt 0.224769 0.243331
vt 0.225134 0.449861
vt 0.223690 0.450032
vt 0.239049 0.609463
vt 0.238737 0.454434
vt 0.239049 0.454193
vt 0.248884 0.460585
vt 0.218739 0.466089
vt 0.218691 0.243174
vt 0.953257 0.669865
vt 0.967905 0.669518
vt 0.967905 0.670228
vt 0.830606 0.454324
vt 0.625800 0.454570
vt 0.625565 0.454235
vt 0.213030 0.248647
vt 0.008170 0.248884
vt 0.008024 0.248615
vt 0.249219 0.243384
vt 0.453871 0.465906
vt 0.454206 0.460591
vt 0.243237 0.465906
vt 0.967905 0.674647
vt 0.953257 0.675341
vt 0.953257 0.674528
vt 0.248884 0.248699
vt 0.459740 0.243174
vt 0.946891 0.954982
vt 0.946457 0.959000
vt 0.946873 0.954990
vt 0.953251 0.937653
vt 0.965646 0.937780
vt 0.953069 0.937949
vt 0.953343 0.854506
vt 0.965128 0.858337
vt 0.953033 0.854650
vt 0.231869 0.243200
vt 0.231944 0.449970
vt 0.230692 0.449860
vt 0.224434 0.454418
vt 0.224659 0.661160
vt 0.223224 0.660968
vt 0.658828 0.002232
vt 0.658963 0.208982
vt 0.657556 0.208808
vt 0.479821 0.120575
vt 0.243270 0.238833
vt 0.243384 0.002115
vt 0.120474 0.238772
vt 0.002216 0.002220
vt 0.238934 0.002335
vt 0.243298 0.470645
vt 0.395450 0.470241
vt 0.319344 0.688632
vt 0.464292 0.245792
vt 0.621466 0.243049
vt 0.542847 0.462570
vt 0.767009 0.151497
vt 0.766184 0.002000
vt 0.769891 0.002012
vt 0.460041 0.629594
vt 0.459707 0.775168
vt 0.455999 0.775418
vt 0.830618 0.243387
vt 0.625647 0.243295
vt 0.215187 0.625502
vt 0.214618 0.471004
vt 0.218991 0.470575
vt 0.455999 0.625101
vt 0.455999 0.470590
vt 0.459706 0.470359
vt 0.218990 0.625367
vt 0.459639 0.470241
vt 0.460041 0.625124
vt 0.455999 0.629607
vt 0.454206 0.248885
vt 0.249219 0.248885
vt 0.761455 0.148996
vt 0.748726 0.148559
vt 0.761448 0.002474
vt 0.761119 0.148524
vt 0.755382 0.152561
vt 0.449004 0.470789
vt 0.435889 0.470275
vt 0.436214 0.470264
vt 0.435880 0.633307
vt 0.449004 0.633594
vt 0.212822 0.460641
vt 0.952935 0.933649
vt 0.952923 0.929647
vt 0.965314 0.929647
vt 0.956616 0.866593
vt 0.952923 0.862579
vt 0.966047 0.862740
vt 0.731592 0.002234
vt 0.744406 0.002000
vt 0.008060 0.460587
vt 0.248885 0.248550
vt 0.744386 0.002252
vt 0.744718 0.157014
vt 0.786685 0.002295
vt 0.786685 0.147870
vt 0.774225 0.148177
vt 0.773891 0.147941
vt 0.773891 0.002366
vt 0.953319 0.874857
vt 0.966052 0.871052
vt 0.965722 0.874816
vt 0.697738 0.006265
vt 0.703467 0.002033
vt 0.710132 0.006341
vt 0.952928 0.883052
vt 0.953191 0.879163
vt 0.965580 0.879159
vt 0.697738 0.161282
vt 0.680610 0.002236
vt 0.693338 0.002042
vt 0.693739 0.002327
vt 0.965658 0.883297
vt 0.953266 0.883297
vt 0.710463 0.161327
vt 0.710463 0.161579
vt 0.669554 0.165215
vt 0.663482 0.002000
vt 0.675938 0.002200
vt 0.966359 0.854504
vt 0.680608 0.159805
vt 0.693737 0.159896
vt 0.680607 0.160088
vt 0.693739 0.159660
vt 0.262554 0.693458
vt 0.281818 0.758016
vt 0.243250 0.758158
vt 0.098000 0.690038
vt 0.117896 0.754289
vt 0.078061 0.755022
vt 0.657958 0.790613
vt 0.692944 0.790636
vt 0.675437 0.850152
vt 0.456454 0.790898
vt 0.492584 0.790389
vt 0.474503 0.850161
vt 0.154097 0.790722
vt 0.155248 0.790727
vt 0.154659 0.852839
vt 0.055664 0.790725
vt 0.056873 0.790719
vt 0.056258 0.852835
vt 0.159521 0.790722
vt 0.160672 0.790727
vt 0.160083 0.852839
vt 0.121438 0.790725
vt 0.122647 0.790719
vt 0.122032 0.852835
vt 0.164945 0.790722
vt 0.166096 0.790727
vt 0.165507 0.852839
vt 0.061145 0.790725
vt 0.062354 0.790719
vt 0.061739 0.852835
vt 0.835057 0.159526
vt 0.892485 0.155270
vt 0.892523 0.163708
vt 0.892504 0.172117
vt 0.835076 0.176373
vt 0.835038 0.167936
vt 0.571615 0.691847
vt 0.590880 0.756404
vt 0.552312 0.756547
vt 0.142035 0.690038
vt 0.161931 0.754289
vt 0.122096 0.755022
vt 0.835011 0.076142
vt 0.835034 0.041155
vt 0.894550 0.058663
vt 0.496755 0.790898
vt 0.532885 0.790389
vt 0.514804 0.850161
vt 0.132401 0.790722
vt 0.133552 0.790727
vt 0.132963 0.852839
vt 0.066626 0.790725
vt 0.067835 0.790719
vt 0.067220 0.852835
vt 0.077589 0.790725
vt 0.078798 0.790719
vt 0.078183 0.852835
vt 0.170369 0.790722
vt 0.171520 0.790727
vt 0.170931 0.852839
vt 0.033739 0.790725
vt 0.034948 0.790719
vt 0.034333 0.852835
vt 0.197488 0.790722
vt 0.198639 0.790727
vt 0.198050 0.852838
vt 0.892504 0.260515
vt 0.835076 0.264771
vt 0.835038 0.256334
vt 0.835057 0.121641
vt 0.892485 0.117385
vt 0.892523 0.125822
vt 0.305323 0.693458
vt 0.324587 0.758016
vt 0.286019 0.758158
vt 0.189978 0.690038
vt 0.209874 0.754289
vt 0.170039 0.755022
vt 0.835011 0.036987
vt 0.835034 0.002000
vt 0.894550 0.019507
vt 0.617659 0.790898
vt 0.653790 0.790389
vt 0.635709 0.850161
vt 0.099513 0.790725
vt 0.100722 0.790719
vt 0.100107 0.852835
vt 0.202912 0.790722
vt 0.204063 0.790727
vt 0.203474 0.852838
vt 0.083070 0.790725
vt 0.084279 0.790719
vt 0.083664 0.852835
vt 0.208336 0.790722
vt 0.209487 0.790727
vt 0.208898 0.852839
vt 0.137825 0.790722
vt 0.138976 0.790727
vt 0.138387 0.852839
vt 0.072107 0.790725
vt 0.073317 0.790719
vt 0.072702 0.852835
vt 0.892523 0.201592
vt 0.835057 0.197411
vt 0.892485 0.193155
vt 0.835038 0.180564
vt 0.892504 0.184745
vt 0.835076 0.189001
vt 0.464283 0.692202
vt 0.504076 0.691613
vt 0.484159 0.756525
vt 0.328826 0.693459
vt 0.367355 0.693457
vt 0.348072 0.758087
vt 0.714606 0.790625
vt 0.732099 0.850084
vt 0.697084 0.850220
vt 0.434218 0.790644
vt 0.452283 0.849826
vt 0.416121 0.850496
vt 0.111080 0.790722
vt 0.111685 0.852776
vt 0.110455 0.852894
vt 0.181791 0.790725
vt 0.182367 0.852784
vt 0.181190 0.852893
vt 0.089156 0.790722
vt 0.089760 0.852776
vt 0.088530 0.852894
vt 0.187215 0.790725
vt 0.187791 0.852784
vt 0.186614 0.852893
vt 0.192639 0.790725
vt 0.193215 0.852784
vt 0.192038 0.852893
vt 0.050788 0.790722
vt 0.051392 0.852776
vt 0.050162 0.852894
vt 0.835057 0.134270
vt 0.892485 0.130014
vt 0.892523 0.138451
vt 0.892504 0.222630
vt 0.835076 0.226886
vt 0.835038 0.218449
vt 0.766817 0.687731
vt 0.805346 0.687729
vt 0.786063 0.752359
vt 0.663724 0.170009
vt 0.703517 0.169419
vt 0.683600 0.234331
vt 0.595423 0.790644
vt 0.613488 0.849826
vt 0.577327 0.850496
vt 0.792915 0.790625
vt 0.810409 0.850084
vt 0.775394 0.850220
vt 0.045307 0.790722
vt 0.045911 0.852776
vt 0.044681 0.852894
vt 0.219759 0.790725
vt 0.220335 0.852784
vt 0.219158 0.852893
vt 0.127524 0.790722
vt 0.128128 0.852776
vt 0.126898 0.852894
vt 0.176368 0.790725
vt 0.176943 0.852784
vt 0.175767 0.852893
vt 0.143824 0.790725
vt 0.144400 0.852784
vt 0.143223 0.852893
vt 0.039825 0.790722
vt 0.040430 0.852776
vt 0.039200 0.852894
vt 0.892504 0.235258
vt 0.835076 0.239514
vt 0.835038 0.231077
vt 0.835057 0.210039
vt 0.892485 0.205783
vt 0.892523 0.214221
vt 0.508318 0.692202
vt 0.548111 0.691613
vt 0.528194 0.756525
vt 0.769140 0.156818
vt 0.807669 0.156815
vt 0.788386 0.221445
vt 0.753760 0.790625
vt 0.771254 0.850084
vt 0.736239 0.850220
vt 0.555122 0.790644
vt 0.573187 0.849826
vt 0.537025 0.850496
vt 0.116562 0.790722
vt 0.117166 0.852776
vt 0.115936 0.852894
vt 0.149248 0.790725
vt 0.149824 0.852784
vt 0.148647 0.852893
vt 0.094637 0.790722
vt 0.095241 0.852776
vt 0.094011 0.852894
vt 0.225183 0.790725
vt 0.225759 0.852784
vt 0.224582 0.852893
vt 0.105599 0.790722
vt 0.106203 0.852776
vt 0.104973 0.852894
vt 0.214335 0.790725
vt 0.214911 0.852784
vt 0.213734 0.852893
vt 0.892523 0.252105
vt 0.835057 0.247924
vt 0.892485 0.243668
vt 0.835038 0.142679
vt 0.892504 0.146860
vt 0.835076 0.151116
vt 0.722821 0.687732
vt 0.757287 0.687527
vt 0.740038 0.769513
vt 0.682741 0.688261
vt 0.718344 0.687527
vt 0.700527 0.769762
vt 0.053707 0.690003
vt 0.069159 0.765830
vt 0.038244 0.765970
vt 0.018132 0.689945
vt 0.034085 0.765523
vt 0.002158 0.766134
vt 0.421741 0.643206
vt 0.422765 0.643211
vt 0.422239 0.719180
vt 0.438468 0.641797
vt 0.439543 0.641792
vt 0.438995 0.717765
vt 0.953203 0.724041
vt 0.967248 0.723222
vt 0.967228 0.724913
vt 0.952971 0.744869
vt 0.966922 0.744114
vt 0.966884 0.745708
vt 0.953203 0.717945
vt 0.967248 0.717126
vt 0.967228 0.718817
vt 0.952971 0.738866
vt 0.966922 0.738111
vt 0.966884 0.739705
vt 0.648160 0.782674
vt 0.638748 0.687496
vt 0.657596 0.687558
vt 0.407574 0.653456
vt 0.415658 0.762321
vt 0.399570 0.762362
vt 0.223175 0.774447
vt 0.215092 0.665583
vt 0.231179 0.665542
vt 0.016093 0.859941
vt 0.030058 0.912136
vt 0.002131 0.911988
vt 0.835065 0.529016
vt 0.887100 0.514200
vt 0.887272 0.543841
vt 0.014427 0.916703
vt 0.026683 0.963502
vt 0.002142 0.963397
vt 0.619812 0.860002
vt 0.620386 0.909293
vt 0.619212 0.909409
vt 0.864299 0.859998
vt 0.864888 0.909273
vt 0.863686 0.909403
vt 0.575880 0.860003
vt 0.577027 0.860000
vt 0.576440 0.909351
vt 0.781947 0.860007
vt 0.783125 0.859989
vt 0.782524 0.909338
vt 0.624659 0.860003
vt 0.625806 0.860000
vt 0.625219 0.909351
vt 0.869161 0.860007
vt 0.870339 0.859989
vt 0.869738 0.909338
vt 0.387803 0.916589
vt 0.383639 0.959100
vt 0.379406 0.916628
vt 0.530467 0.959119
vt 0.534631 0.916609
vt 0.538864 0.959081
vt 0.034232 0.859862
vt 0.062169 0.860019
vt 0.048203 0.912062
vt 0.835147 0.712985
vt 0.834984 0.683336
vt 0.887186 0.698165
vt 0.899327 0.828575
vt 0.946126 0.816319
vt 0.946020 0.840860
vt 0.899188 0.768981
vt 0.945847 0.755983
vt 0.946023 0.782010
vt 0.581873 0.860002
vt 0.582447 0.909293
vt 0.581273 0.909409
vt 0.787987 0.859998
vt 0.788576 0.909273
vt 0.787374 0.909403
vt 0.630652 0.860002
vt 0.631226 0.909293
vt 0.630052 0.909409
vt 0.899291 0.002589
vt 0.948566 0.002000
vt 0.948696 0.003202
vt 0.771634 0.859998
vt 0.772223 0.909273
vt 0.771021 0.909403
vt 0.636072 0.860002
vt 0.636646 0.909293
vt 0.635472 0.909409
vt 0.547251 0.959100
vt 0.543018 0.916628
vt 0.551415 0.916589
vt 0.660486 0.916609
vt 0.664719 0.959081
vt 0.656322 0.959119
vt 0.098448 0.859862
vt 0.126385 0.860019
vt 0.112419 0.912062
vt 0.835147 0.746814
vt 0.834984 0.717165
vt 0.887186 0.731994
vt 0.043110 0.916703
vt 0.055366 0.963502
vt 0.030825 0.963396
vt 0.899188 0.678478
vt 0.945847 0.665479
vt 0.946023 0.691506
vt 0.640919 0.860003
vt 0.642066 0.860000
vt 0.641479 0.909351
vt 0.776496 0.860007
vt 0.777674 0.859989
vt 0.777073 0.909338
vt 0.874612 0.860007
vt 0.875790 0.859989
vt 0.875189 0.909338
vt 0.602979 0.860003
vt 0.604126 0.860000
vt 0.603539 0.909351
vt 0.792848 0.860007
vt 0.794027 0.859989
vt 0.793426 0.909338
vt 0.586720 0.860003
vt 0.587867 0.860000
vt 0.587280 0.909351
vt 0.450730 0.916590
vt 0.446567 0.959100
vt 0.442334 0.916628
vt 0.467540 0.959119
vt 0.471703 0.916609
vt 0.475936 0.959081
vt 0.834982 0.812759
vt 0.835138 0.784822
vt 0.887182 0.798788
vt 0.835147 0.780643
vt 0.834984 0.750994
vt 0.887186 0.765823
vt 0.899188 0.618141
vt 0.945847 0.605143
vt 0.946023 0.631170
vt 0.071793 0.916703
vt 0.084049 0.963502
vt 0.059508 0.963397
vt 0.798299 0.860007
vt 0.799478 0.859989
vt 0.798877 0.909338
vt 0.646339 0.860003
vt 0.647485 0.860000
vt 0.646899 0.909351
vt 0.803750 0.860007
vt 0.804928 0.859989
vt 0.804327 0.909338
vt 0.651759 0.860003
vt 0.652905 0.860000
vt 0.652319 0.909351
vt 0.809201 0.860007
vt 0.810379 0.859989
vt 0.809778 0.909338
vt 0.657178 0.860003
vt 0.658325 0.860000
vt 0.657738 0.909351
vt 0.484324 0.959100
vt 0.480090 0.916628
vt 0.488487 0.916589
vt 0.371019 0.916609
vt 0.375252 0.959081
vt 0.366856 0.959119
vt 0.835241 0.429821
vt 0.887091 0.415462
vt 0.887616 0.444191
vt 0.208682 0.859908
vt 0.222582 0.911982
vt 0.194771 0.912078
vt 0.243531 0.916597
vt 0.255738 0.963289
vt 0.231299 0.963399
vt 0.510710 0.860001
vt 0.511314 0.909290
vt 0.510084 0.909409
vt 0.706533 0.860003
vt 0.707109 0.909299
vt 0.705932 0.909408
vt 0.766196 0.860003
vt 0.766772 0.909299
vt 0.765595 0.909408
vt 0.538116 0.860001
vt 0.538720 0.909290
vt 0.537490 0.909409
vt 0.554559 0.860001
vt 0.555163 0.909290
vt 0.553933 0.909409
vt 0.749924 0.860003
vt 0.750500 0.909299
vt 0.749323 0.909408
vt 0.492711 0.959119
vt 0.496874 0.916609
vt 0.501107 0.959081
vt 0.564000 0.916590
vt 0.559837 0.959100
vt 0.555603 0.916628
vt 0.835241 0.495647
vt 0.887091 0.481287
vt 0.887616 0.510016
vt 0.214950 0.916597
vt 0.227157 0.963289
vt 0.202718 0.963400
vt 0.899109 0.499446
vt 0.945608 0.486843
vt 0.946089 0.512079
vt 0.755348 0.860003
vt 0.755924 0.909299
vt 0.754747 0.909408
vt 0.543597 0.860001
vt 0.544201 0.909290
vt 0.542971 0.909409
vt 0.728228 0.860003
vt 0.728804 0.909299
vt 0.727627 0.909408
vt 0.549078 0.860001
vt 0.549682 0.909290
vt 0.548452 0.909409
vt 0.733077 0.860001
vt 0.734228 0.860006
vt 0.733639 0.909353
vt 0.564917 0.860004
vt 0.566126 0.859998
vt 0.565511 0.909349
vt 0.509495 0.959100
vt 0.505261 0.916628
vt 0.513658 0.916589
vt 0.572387 0.916609
vt 0.576620 0.959081
vt 0.568224 0.959119
vt 0.835499 0.477103
vt 0.834983 0.448365
vt 0.887353 0.462739
vt 0.226761 0.859952
vt 0.254580 0.859864
vt 0.240666 0.912030
vt 0.899109 0.528823
vt 0.945608 0.516220
vt 0.946089 0.541456
vt 0.157789 0.916597
vt 0.169996 0.963289
vt 0.145557 0.963400
vt 0.515586 0.860004
vt 0.516795 0.859998
vt 0.516180 0.909349
vt 0.711382 0.860001
vt 0.712533 0.860006
vt 0.711944 0.909353
vt 0.716806 0.860001
vt 0.717957 0.860006
vt 0.717368 0.909353
vt 0.570398 0.860003
vt 0.571607 0.859998
vt 0.570992 0.909349
vt 0.559435 0.860004
vt 0.560644 0.859998
vt 0.560029 0.909350
vt 0.738501 0.860001
vt 0.739652 0.860006
vt 0.739063 0.909353
vt 0.589171 0.916589
vt 0.585007 0.959100
vt 0.580774 0.916628
vt 0.392026 0.959119
vt 0.396190 0.916609
vt 0.400423 0.959081
vt 0.835498 0.411277
vt 0.834983 0.382540
vt 0.887353 0.396913
vt 0.290740 0.859952
vt 0.318559 0.859864
vt 0.304645 0.912030
vt 0.899109 0.558201
vt 0.945608 0.545598
vt 0.946089 0.570834
vt 0.186370 0.916597
vt 0.198576 0.963289
vt 0.174138 0.963400
vt 0.521067 0.860003
vt 0.522276 0.859998
vt 0.521661 0.909350
vt 0.743925 0.860001
vt 0.745076 0.860006
vt 0.744487 0.909353
vt 0.526548 0.860003
vt 0.527758 0.859998
vt 0.527143 0.909349
vt 0.760197 0.860001
vt 0.761348 0.860006
vt 0.760759 0.909353
vt 0.532030 0.860003
vt 0.533239 0.859998
vt 0.532624 0.909349
vt 0.722229 0.860001
vt 0.723380 0.860006
vt 0.722792 0.909353
vt 0.408810 0.959100
vt 0.404577 0.916628
vt 0.412974 0.916589
vt 0.597558 0.916609
vt 0.601792 0.959081
vt 0.593395 0.959119
vt 0.835147 0.577670
vt 0.834984 0.548020
vt 0.887186 0.562849
vt 0.066340 0.859862
vt 0.094277 0.860019
vt 0.080311 0.912062
vt 0.899188 0.708645
vt 0.945847 0.695647
vt 0.946023 0.721674
vt 0.899327 0.857258
vt 0.946126 0.845002
vt 0.946020 0.869543
vt 0.695118 0.860003
vt 0.696265 0.860000
vt 0.695678 0.909351
vt 0.814652 0.860007
vt 0.815830 0.859989
vt 0.815229 0.909338
vt 0.820692 0.859998
vt 0.821281 0.909273
vt 0.820079 0.909403
vt 0.592713 0.860001
vt 0.593286 0.909293
vt 0.592113 0.909409
vt 0.662598 0.860003
vt 0.663745 0.860000
vt 0.663158 0.909351
vt 0.825554 0.860007
vt 0.826732 0.859989
vt 0.826131 0.909338
vt 0.639513 0.916590
vt 0.635350 0.959100
vt 0.631117 0.916628
vt 0.517882 0.959119
vt 0.522045 0.916609
vt 0.526278 0.959081
vt 0.835065 0.596674
vt 0.887100 0.581857
vt 0.887272 0.611498
vt 0.144525 0.859941
vt 0.158491 0.912136
vt 0.130563 0.911988
vt 0.899188 0.648309
vt 0.945847 0.635311
vt 0.946023 0.661338
vt 0.598132 0.860001
vt 0.598706 0.909293
vt 0.597532 0.909409
vt 0.891554 0.859998
vt 0.892143 0.909273
vt 0.890941 0.909403
vt 0.831005 0.860007
vt 0.832183 0.859989
vt 0.831582 0.909338
vt 0.608399 0.860003
vt 0.609546 0.860000
vt 0.608959 0.909351
vt 0.837045 0.859998
vt 0.837634 0.909273
vt 0.836432 0.909403
vt 0.668591 0.860001
vt 0.669165 0.909293
vt 0.667991 0.909409
vt 0.647901 0.916609
vt 0.652134 0.959081
vt 0.643737 0.959119
vt 0.459152 0.959100
vt 0.454919 0.916628
vt 0.463316 0.916589
vt 0.835147 0.645327
vt 0.834984 0.615678
vt 0.887186 0.630507
vt 0.834982 0.844867
vt 0.835138 0.816930
vt 0.887182 0.830896
vt 0.899188 0.799149
vt 0.945847 0.786151
vt 0.946023 0.812178
vt 0.100476 0.916703
vt 0.112732 0.963502
vt 0.088191 0.963397
vt 0.700538 0.860003
vt 0.701685 0.860000
vt 0.701098 0.909351
vt 0.885514 0.860007
vt 0.886692 0.859989
vt 0.886091 0.909338
vt 0.613819 0.860003
vt 0.614966 0.860000
vt 0.614379 0.909351
vt 0.841907 0.860007
vt 0.843085 0.859989
vt 0.842484 0.909338
vt 0.673438 0.860003
vt 0.674585 0.860000
vt 0.673998 0.909351
vt 0.847357 0.860007
vt 0.848536 0.859989
vt 0.847935 0.909338
vt 0.614342 0.916590
vt 0.610179 0.959100
vt 0.605946 0.916628
vt 0.417198 0.959119
vt 0.421361 0.916609
vt 0.425594 0.959081
vt 0.835147 0.679156
vt 0.834984 0.649507
vt 0.887186 0.664336
vt 0.162664 0.859862
vt 0.190601 0.860019
vt 0.176635 0.912062
vt 0.129159 0.916703
vt 0.141415 0.963502
vt 0.116874 0.963397
vt 0.899188 0.738814
vt 0.945847 0.725815
vt 0.946023 0.751842
vt 0.880063 0.860007
vt 0.881241 0.859989
vt 0.880640 0.909338
vt 0.678858 0.860003
vt 0.680005 0.859999
vt 0.679418 0.909351
vt 0.852808 0.860007
vt 0.853987 0.859989
vt 0.853386 0.909338
vt 0.684278 0.860003
vt 0.685425 0.860000
vt 0.684838 0.909351
vt 0.689698 0.860003
vt 0.690845 0.860000
vt 0.690258 0.909351
vt 0.858259 0.860007
vt 0.859437 0.859989
vt 0.858836 0.909338
vt 0.622730 0.916609
vt 0.626963 0.959081
vt 0.618566 0.959119
vt 0.433982 0.959100
vt 0.429748 0.916628
vt 0.438145 0.916590
vt 0.964775 0.467508
vt 0.953137 0.445882
vt 0.976271 0.445882
vt 0.953238 0.441605
vt 0.964487 0.419289
vt 0.976531 0.441642
vt 0.962346 0.617632
vt 0.955937 0.610349
vt 0.966858 0.608832
vt 0.966828 0.601166
vt 0.955899 0.599934
vt 0.962388 0.592734
vt 0.953131 0.895106
vt 0.965827 0.893989
vt 0.965869 0.896066
vt 0.953145 0.888583
vt 0.965823 0.887433
vt 0.965895 0.889573
vt 0.973767 0.510941
vt 0.973812 0.513659
vt 0.953209 0.512344
vt 0.973789 0.519218
vt 0.953231 0.520620
vt 0.953186 0.517903
vt 0.973767 0.504024
vt 0.973812 0.506742
vt 0.953209 0.505426
vt 0.973789 0.526135
vt 0.953231 0.527538
vt 0.953186 0.524820
vt 0.769477 0.956214
vt 0.776147 0.916600
vt 0.782876 0.956171
vt 0.765273 0.916578
vt 0.758604 0.956192
vt 0.751875 0.916621
vt 0.953143 0.766055
vt 0.966624 0.762153
vt 0.966576 0.770061
vt 0.953143 0.777911
vt 0.966665 0.774228
vt 0.966534 0.781681
vt 0.953143 0.753974
vt 0.966624 0.750072
vt 0.966576 0.757980
vt 0.953143 0.789531
vt 0.966665 0.785848
vt 0.966534 0.793301
vt 0.801177 0.002147
vt 0.811333 0.067514
vt 0.791008 0.067571
vt 0.382183 0.693526
vt 0.392674 0.758725
vt 0.371679 0.759094
vt 0.953252 0.552568
vt 0.970890 0.548052
vt 0.971078 0.557082
vt 0.953185 0.565667
vt 0.970893 0.561294
vt 0.970948 0.570038
vt 0.946457 0.963384
vt 0.967905 0.684364
vt 0.967905 0.685165
vt 0.953257 0.684453
vt 0.967905 0.659805
vt 0.967905 0.660606
vt 0.953257 0.659894
vt 0.339225 0.971797
vt 0.218991 0.625611
vt 0.830452 0.243050
vt 0.238723 0.608985
vt 0.967905 0.689165
vt 0.967905 0.689741
vt 0.953257 0.689542
vt 0.967905 0.649871
vt 0.967905 0.650581
vt 0.953257 0.650071
vt 0.953257 0.655438
vt 0.953257 0.654782
vt 0.967905 0.655138
vt 0.965722 0.874948
vt 0.967905 0.694187
vt 0.967905 0.694988
vt 0.953257 0.694276
vt 0.946891 0.959384
vt 0.965712 0.937653
vt 0.459703 0.625594
vt 0.460041 0.470613
vt 0.965328 0.933653
vt 0.965728 0.933369
vt 0.448604 0.470488
vt 0.748718 0.002513
vt 0.748718 0.002275
vt 0.761846 0.002191
vt 0.436281 0.633608
vt 0.774293 0.002000
vt 0.680944 0.002000
vt 0.966053 0.883004
vt 0.953323 0.870790
vt 0.952923 0.871073
vt 0.448666 0.633934
vt 0.436133 0.637461
vt 0.693402 0.160237
vt 0.680985 0.164083
s 1
usemtl public_004_baked
f 16/1/1 18/2/1 15/3/1
f 19/4/2 20/5/2 21/6/2
f 23/7/3 9/8/3 25/9/3
f 28/10/4 29/11/4 30/12/4
f 31/13/5 33/14/5 34/15/5
f 35/16/6 37/17/6 38/18/6
f 40/19/7 42/20/8 39/21/9
f 48/22/10 49/23/10 47/24/10
f 50/25/11 52/26/12 46/27/13
f 55/28/14 56/29/14 54/30/14
f 60/31/15 62/32/15 59/33/15
f 63/34/16 65/35/17 53/36/18
f 59/33/19 57/37/19 58/38/19
f 15/3/20 23/7/20 25/9/20
f 19/4/21 62/32/21 61/39/21
f 27/40/22 20/5/22 26/41/22
f 36/42/23 60/31/24 59/33/25
f 414/43/26 412/44/27 413/45/28
f 415/46/29 417/47/30 416/48/31
f 418/49/32 419/50/33 420/51/34
f 429/52/35 428/53/36 427/54/37
f 31/55/38 11/56/38 12/57/38
f 26/58/39 23/59/39 27/60/39
f 37/17/40 47/24/40 38/18/40
f 452/61/41 453/62/41 451/63/41
f 40/64/42 28/65/42 30/66/42
f 54/30/43 41/67/43 40/19/43
f 17/68/44 49/23/45 46/69/46
f 423/70/41 422/71/41 421/72/41
f 9/73/47 14/74/48 13/75/49
f 45/76/50 44/77/51 43/78/52
f 25/9/53 34/15/54 33/14/55
f 64/79/56 16/1/56 15/3/56
f 51/80/57 32/81/57 52/26/57
f 53/36/58 56/29/59 36/82/60
f 423/83/41 421/84/41 422/85/41
f 64/79/61 22/86/61 65/35/61
f 51/80/62 55/28/62 54/30/62
f 46/27/46 18/2/63 17/87/44
f 14/88/64 29/89/64 13/90/64
f 44/91/65 41/92/65 43/93/65
f 57/94/66 53/95/18 58/96/67
f 449/97/41 448/98/41 450/99/41
f 449/100/41 450/101/41 448/102/41
f 452/103/41 451/104/41 453/105/41
f 3/106/41 5/107/41 4/108/41
f 3/109/41 4/110/41 5/111/41
f 7/112/41 6/113/41 8/114/41
f 6/115/41 7/116/41 8/117/41
f 9/118/68 11/119/69 34/120/54
f 14/121/48 9/122/47 24/123/70
f 13/75/71 11/124/69 9/73/68
f 13/75/71 10/125/72 11/124/69
f 10/126/72 13/127/71 30/128/73
f 12/129/74 10/130/75 42/131/76
f 10/126/72 30/128/73 39/132/77
f 42/131/78 41/133/78 33/134/78
f 14/121/48 24/123/70 29/135/79
f 15/3/80 24/136/80 29/137/80
f 21/138/81 16/139/81 62/140/82
f 20/141/83 17/142/84 16/139/79
f 15/3/85 29/137/85 64/79/85
f 18/143/86 19/144/86 20/145/86
f 49/146/87 18/143/87 52/147/87
f 61/39/88 26/148/88 21/6/88
f 20/149/89 27/150/89 23/151/89
f 22/152/87 60/153/87 65/154/87
f 26/58/90 22/155/91 28/156/92
f 61/39/93 22/157/91 26/148/90
f 40/19/5 30/158/5 29/137/5
f 28/156/79 29/159/79 24/160/79
f 25/9/85 33/14/85 40/19/85
f 33/14/85 51/80/85 54/30/85
f 44/161/51 45/162/50 31/163/94
f 33/164/79 40/165/79 44/161/51
f 33/14/85 54/30/85 40/19/85
f 45/166/95 52/167/96 32/168/97
f 43/78/98 38/18/99 47/24/100
f 37/169/101 36/170/102 55/171/103
f 35/172/104 43/173/105 41/174/106
f 58/38/107 36/42/60 59/33/108
f 48/175/103 37/169/103 55/171/103
f 35/176/89 55/177/89 56/178/89
f 55/179/87 37/180/87 41/174/106
f 43/78/98 47/24/100 45/76/109
f 48/175/110 51/181/110 52/182/110
f 36/183/60 58/184/107 53/185/58
f 57/94/66 63/186/16 53/95/18
f 60/187/89 56/178/89 65/188/89
f 59/189/103 65/188/103 64/190/103
f 66/191/41 67/192/41 68/193/41
f 66/194/41 68/195/41 67/196/41
f 71/197/85 70/198/85 69/199/85
f 70/200/85 71/201/85 69/202/85
f 74/203/79 72/204/79 73/205/79
f 72/206/79 74/207/79 73/208/79
f 77/209/41 76/210/41 75/211/41
f 76/212/41 77/213/41 75/214/41
f 80/215/111 78/216/112 79/217/111
f 78/218/112 80/219/111 79/220/111
f 81/221/41 82/222/41 83/223/41
f 81/224/41 83/225/41 82/226/41
f 84/227/41 86/228/41 85/229/41
f 84/230/41 85/231/41 86/232/41
f 88/233/41 89/234/41 87/235/41
f 89/236/41 88/237/41 87/238/41
f 92/239/41 91/240/41 90/241/41
f 91/242/41 92/243/41 90/244/41
f 94/245/41 95/246/41 93/247/41
f 95/248/41 94/249/41 93/250/41
f 96/251/41 98/252/41 97/253/41
f 98/254/41 96/255/41 97/256/41
f 101/257/41 100/258/41 99/259/41
f 101/260/41 99/261/41 100/262/41
f 104/263/41 102/264/41 103/265/41
f 104/266/41 103/267/41 102/268/41
f 106/269/41 107/270/41 105/271/41
f 107/272/41 106/273/41 105/274/41
f 110/275/41 108/276/41 109/277/41
f 108/278/41 110/279/41 109/280/41
f 111/281/111 113/282/113 112/283/113
f 113/284/113 111/285/111 112/286/113
f 116/287/41 114/288/41 115/289/41
f 114/290/41 116/291/41 115/292/41
f 118/293/114 119/294/115 117/295/116
f 117/296/116 119/297/115 118/298/114
f 120/299/41 122/300/41 121/301/41
f 122/302/41 120/303/41 121/304/41
f 123/305/41 125/306/41 124/307/41
f 123/308/41 124/309/41 125/310/41
f 126/311/41 128/312/41 127/313/41
f 126/314/41 127/315/41 128/316/41
f 130/317/41 131/318/41 129/319/41
f 130/320/41 129/321/41 131/322/41
f 133/323/41 132/324/41 134/325/41
f 133/326/41 134/327/41 132/328/41
f 137/329/41 135/330/41 136/331/41
f 137/332/41 136/333/41 135/334/41
f 139/335/41 140/336/41 138/337/41
f 140/338/41 139/339/41 138/340/41
f 141/341/41 142/342/41 143/343/41
f 141/344/41 143/345/41 142/346/41
f 146/347/41 145/348/41 144/349/41
f 146/350/41 144/351/41 145/352/41
f 147/353/41 149/354/41 148/355/41
f 147/356/41 148/357/41 149/358/41
f 151/359/41 150/360/41 152/361/41
f 151/362/41 152/363/41 150/364/41
f 154/365/41 155/366/41 153/367/41
f 154/368/41 153/369/41 155/370/41
f 157/371/41 156/372/41 158/373/41
f 156/374/41 157/375/41 158/376/41
f 160/377/41 161/378/41 159/379/41
f 160/380/41 159/381/41 161/382/41
f 162/383/41 164/384/41 163/385/41
f 162/386/41 163/387/41 164/388/41
f 166/389/41 167/390/41 165/391/41
f 166/392/41 165/393/41 167/394/41
f 168/395/41 170/396/41 169/397/41
f 168/398/41 169/399/41 170/400/41
f 173/401/103 171/402/103 172/403/103
f 172/404/103 171/405/103 173/406/103
f 175/407/41 176/408/41 174/409/41
f 176/410/41 175/411/41 174/412/41
f 179/413/41 178/414/41 177/415/41
f 179/416/41 177/417/41 178/418/41
f 180/419/103 182/420/103 181/421/103
f 182/422/103 180/423/103 181/424/103
f 184/425/41 185/426/41 183/427/41
f 184/428/41 183/429/41 185/430/41
f 187/431/41 188/432/41 186/433/41
f 187/434/41 186/435/41 188/436/41
f 66/437/117 189/438/117 190/439/117
f 192/440/41 191/441/41 193/442/41
f 192/443/41 193/444/41 191/445/41
f 194/446/41 195/447/41 196/448/41
f 194/449/41 196/450/41 195/451/41
f 194/452/118 197/453/118 198/454/118
f 199/455/41 201/456/41 200/457/41
f 199/458/41 200/459/41 201/460/41
f 202/461/41 203/462/41 204/463/41
f 203/464/41 202/465/41 204/466/41
f 207/467/41 206/468/41 205/469/41
f 206/470/41 207/471/41 205/472/41
f 210/473/41 208/474/41 209/475/41
f 209/476/41 208/477/41 210/478/41
f 211/479/119 213/480/119 212/481/120
f 213/482/119 211/483/119 212/484/120
f 215/485/41 214/486/41 216/487/41
f 215/488/41 216/489/41 214/490/41
f 219/491/41 218/492/41 217/493/41
f 219/494/41 217/495/41 218/496/41
f 221/497/41 222/498/41 220/499/41
f 221/500/41 220/501/41 222/502/41
f 223/503/41 224/504/41 225/505/41
f 223/506/41 225/507/41 224/508/41
f 227/509/41 226/510/41 228/511/41
f 227/512/41 228/513/41 226/514/41
f 231/515/41 229/516/41 230/517/41
f 229/518/41 231/519/41 230/520/41
f 232/521/41 233/522/41 234/523/41
f 232/524/41 234/525/41 233/526/41
f 237/527/41 236/528/41 235/529/41
f 236/530/41 237/531/41 235/532/41
f 240/533/41 238/534/41 239/535/41
f 238/536/41 240/537/41 239/538/41
f 242/539/41 241/540/41 243/541/41
f 241/542/41 242/543/41 243/544/41
f 245/545/41 244/546/41 246/547/41
f 246/548/41 244/549/41 245/550/41
f 247/551/41 249/552/41 248/553/41
f 249/554/41 247/555/41 248/556/41
f 250/557/41 252/558/41 251/559/41
f 250/560/41 251/561/41 252/562/41
f 254/563/41 253/564/41 255/565/41
f 253/566/41 254/567/41 255/568/41
f 258/569/41 256/570/41 257/571/41
f 256/572/41 258/573/41 257/574/41
f 260/575/41 259/576/41 261/577/41
f 259/578/41 260/579/41 261/580/41
f 263/581/41 262/582/41 264/583/41
f 263/584/41 264/585/41 262/586/41
f 266/587/41 267/588/41 265/589/41
f 266/590/41 265/591/41 267/592/41
f 266/593/121 269/594/121 268/595/121
f 271/596/41 272/597/41 270/598/41
f 271/599/41 270/600/41 272/601/41
f 275/602/41 274/603/41 273/604/41
f 275/605/41 273/606/41 274/607/41
f 276/608/41 277/609/41 278/610/41
f 276/611/41 278/612/41 277/613/41
f 281/614/122 279/615/122 280/616/123
f 280/617/123 279/618/122 281/619/122
f 285/620/124 283/621/124 282/622/124
f 285/623/41 286/624/41 284/625/41
f 285/626/41 284/627/41 286/628/41
f 287/629/41 289/630/41 288/631/41
f 287/632/41 288/633/41 289/634/41
f 290/635/41 291/636/41 292/637/41
f 290/638/41 292/639/41 291/640/41
f 295/641/41 294/642/41 293/643/41
f 294/644/41 295/645/41 293/646/41
f 296/647/41 297/648/41 298/649/41
f 296/650/41 298/651/41 297/652/41
f 299/653/41 300/654/41 301/655/41
f 300/656/41 299/657/41 301/658/41
f 302/659/41 304/660/41 303/661/41
f 302/662/41 303/663/41 304/664/41
f 306/665/41 307/666/41 305/667/41
f 307/668/41 306/669/41 305/670/41
f 308/671/41 310/672/41 309/673/41
f 310/674/41 308/675/41 309/676/41
f 313/677/41 312/678/41 311/679/41
f 312/680/41 313/681/41 311/682/41
f 316/683/125 315/684/126 314/685/127
f 314/686/127 315/687/126 316/688/125
f 319/689/128 317/690/128 318/691/129
f 317/692/128 319/693/128 318/694/129
f 320/695/41 321/696/41 322/697/41
f 320/698/41 322/699/41 321/700/41
f 325/701/41 323/702/41 324/703/41
f 323/704/41 325/705/41 324/706/41
f 327/707/41 326/708/41 328/709/41
f 326/710/41 327/711/41 328/712/41
f 330/713/41 329/714/41 331/715/41
f 329/716/41 330/717/41 331/718/41
f 333/719/41 332/720/41 334/721/41
f 333/722/41 334/723/41 332/724/41
f 337/725/79 335/726/41 336/727/79
f 335/728/41 337/729/79 336/730/79
f 340/731/41 338/732/41 339/733/41
f 340/734/41 339/735/41 338/736/41
f 343/737/41 341/738/41 342/739/41
f 341/740/41 343/741/41 342/742/41
f 345/743/41 346/744/41 344/745/41
f 345/746/41 344/747/41 346/748/41
f 349/749/41 347/750/41 348/751/41
f 347/752/41 349/753/41 348/754/41
f 352/755/130 350/756/131 351/757/132
f 351/758/132 350/759/131 352/760/130
f 353/761/41 354/762/41 355/763/41
f 353/764/41 355/765/41 354/766/41
f 353/767/133 357/768/133 356/769/133
f 358/770/41 360/771/41 359/772/41
f 358/773/41 359/774/41 360/775/41
f 361/776/41 363/777/41 362/778/41
f 363/779/41 361/780/41 362/781/41
f 364/782/41 365/783/41 366/784/41
f 364/785/41 366/786/41 365/787/41
f 367/788/41 369/789/41 368/790/41
f 367/791/41 368/792/41 369/793/41
f 372/794/41 370/795/41 371/796/41
f 370/797/41 372/798/41 371/799/41
f 373/800/41 374/801/41 375/802/41
f 373/803/41 375/804/41 374/805/41
f 377/806/41 378/807/41 376/808/41
f 378/809/41 377/810/41 376/811/41
f 380/812/41 379/813/41 381/814/41
f 379/815/41 380/816/41 381/817/41
f 384/818/41 383/819/41 382/820/41
f 383/821/41 384/822/41 382/823/41
f 387/824/41 386/825/41 385/826/41
f 385/827/41 386/828/41 387/829/41
f 388/830/41 389/831/41 390/832/41
f 389/833/41 388/834/41 390/835/41
f 391/836/41 392/837/41 393/838/41
f 391/839/41 393/840/41 392/841/41
f 394/842/41 396/843/41 395/844/41
f 396/845/41 394/846/41 395/847/41
f 397/848/41 399/849/41 398/850/41
f 399/851/41 397/852/41 398/853/41
f 402/854/41 400/855/41 401/856/41
f 400/857/41 402/858/41 401/859/41
f 403/860/41 404/861/41 405/862/41
f 403/863/41 405/864/41 404/865/41
f 407/866/134 406/867/135 408/868/136
f 406/869/135 407/870/134 408/871/136
f 409/872/85 411/873/85 410/874/85
f 410/875/85 411/876/85 409/877/85
f 431/878/41 430/879/41 432/880/41
f 431/881/41 432/882/41 430/883/41
f 434/884/137 433/885/138 435/886/138
f 435/887/138 433/888/138 434/889/137
f 436/890/79 438/891/79 437/892/79
f 437/893/79 438/894/79 436/895/79
f 441/896/139 439/897/140 440/898/141
f 440/899/141 439/900/140 441/901/139
f 443/902/41 444/903/41 442/904/41
f 443/905/41 442/906/41 444/907/41
f 445/908/41 447/909/41 446/910/41
f 445/911/41 446/912/41 447/913/41
f 455/914/41 454/915/41 456/916/41
f 455/917/41 456/918/41 454/919/41
f 459/920/41 457/921/41 458/922/41
f 459/923/41 458/924/41 457/925/41
f 16/1/142 17/87/142 18/2/142
f 19/4/143 17/68/84 20/5/83
f 23/7/144 24/136/144 9/8/144
f 28/10/145 22/926/145 29/11/145
f 31/13/55 32/81/55 33/14/55
f 35/16/40 36/42/102 37/17/101
f 40/19/146 41/67/146 42/20/146
f 48/22/147 46/69/147 49/23/147
f 50/25/148 51/80/149 52/26/12
f 55/28/150 36/82/150 56/29/150
f 60/31/151 61/39/151 62/32/151
f 63/34/152 64/79/152 65/35/152
f 59/33/153 62/32/153 57/37/153
f 15/3/154 18/2/154 23/7/154
f 19/4/155 21/6/155 62/32/155
f 27/40/156 21/6/156 20/5/156
f 45/76/109 47/24/100 49/23/157
f 35/16/99 38/18/99 43/78/98
f 36/42/23 35/16/23 60/31/24
f 416/927/31 417/928/30 415/929/29
f 427/930/37 428/931/36 429/932/35
f 31/55/158 34/933/54 11/56/69
f 10/126/159 39/132/159 42/934/159
f 12/935/74 11/124/160 10/125/75
f 26/58/161 24/160/161 23/59/161
f 37/17/162 48/22/162 47/24/162
f 40/64/7 39/936/9 28/65/163
f 22/157/91 61/39/93 60/31/164
f 54/30/165 56/29/165 41/67/165
f 17/68/44 19/4/166 49/23/45
f 413/937/28 412/938/27 414/939/26
f 420/940/34 419/941/33 418/942/32
f 426/943/41 424/944/41 425/945/41
f 45/166/95 32/168/97 31/946/167
f 25/9/53 9/8/68 34/15/54
f 64/79/168 63/34/168 16/1/168
f 51/80/55 33/14/55 32/81/55
f 53/36/58 65/35/169 56/29/59
f 424/947/41 426/948/41 425/949/41
f 64/79/170 29/137/170 22/86/170
f 51/80/149 50/25/148 55/28/149
f 46/27/46 52/26/171 18/2/63
f 14/88/172 30/950/172 29/89/172
f 44/91/173 42/951/173 41/92/173
f 34/952/2 12/129/2 33/134/2
f 12/129/74 42/131/76 33/134/103
f 41/133/174 40/953/174 33/134/174
f 15/3/175 23/7/175 24/136/175
f 21/138/176 20/141/176 16/139/176
f 16/954/89 20/149/89 23/151/89
f 23/151/89 18/955/89 16/954/89
f 18/143/177 49/146/177 19/144/177
f 20/145/87 16/956/87 18/143/87
f 62/140/82 16/139/81 64/957/178
f 64/957/178 65/958/179 62/140/82
f 65/958/87 60/959/87 62/140/87
f 52/147/87 48/960/87 49/146/87
f 23/7/180 25/9/180 24/136/180
f 25/9/85 40/19/85 29/137/85
f 24/136/181 25/9/181 29/137/181
f 24/160/182 26/58/90 28/156/92
f 41/961/183 44/161/183 40/165/183
f 44/161/51 31/163/94 33/164/79
f 56/178/89 60/187/89 35/176/89
f 37/962/89 55/177/89 35/176/89
f 35/172/104 41/174/106 37/180/87
f 41/174/106 56/963/87 55/179/87
f 52/167/184 45/166/185 48/964/186
f 45/166/185 49/965/187 48/964/186
f 50/966/11 46/967/13 48/960/103
f 50/966/188 48/960/188 52/147/188
f 48/175/189 55/171/189 51/181/189
f 63/968/190 57/969/190 59/189/190
f 59/189/191 60/187/191 65/188/191
f 64/190/192 63/968/192 59/189/192
l 1 2
