# Blender 4.5.0
# www.blender.org
mtllib public_002.lod1.mtl
o public_002
v 0.820712 3.677294 -2.893317
v -2.121840 3.677294 -2.893317
v 0.820712 3.257281 -2.893317
v -2.121840 3.257281 -2.893317
v -3.249176 0.163543 -3.250000
v -3.249176 0.000824 3.250000
v -3.250000 -0.000000 -3.248654
v 3.250000 0.000000 3.248654
v 3.249176 0.000824 -3.250000
v 3.249176 0.163544 3.250000
v 3.250000 0.164367 -3.248654
v -3.250000 0.164368 3.248654
v -2.898740 3.864335 -2.674281
v 2.098046 3.864336 2.974521
v -2.899817 3.864956 2.972977
v -2.899817 0.169530 -2.672736
v 2.099123 3.864956 -2.672737
v 2.098046 0.170151 -2.674281
v 2.099122 0.169530 2.972977
v -2.898740 0.170151 2.974521
v -2.388783 3.983884 -2.763773
v -2.392075 3.874065 2.767215
v -2.395825 3.874065 2.767215
v -2.392075 3.867300 2.760445
v -2.385304 3.874065 2.767215
v 2.388479 3.983406 2.765079
v -2.386369 3.985164 2.764724
v -2.392075 3.980539 2.760445
v 2.384781 3.984652 -2.767031
v 2.392075 3.980538 -2.760445
v -2.396502 3.867300 -2.766392
v -2.385304 3.860534 -2.767216
v -2.392075 3.867300 -2.767216
v -2.385304 3.874065 -2.767216
v 2.392075 3.866860 -2.767209
v 2.395825 3.874065 -2.767216
v 2.392075 3.867300 -2.760445
v 2.398846 3.860534 -2.767216
v -2.399108 4.225353 -2.766865
v -2.392075 4.220546 -2.760445
v -2.545443 4.227311 -2.767216
v -2.548368 4.225242 -2.924675
v -2.552214 4.220546 -2.767216
v -2.545443 4.227311 -2.760445
v -2.395619 4.223854 2.765984
v -2.545443 4.227311 2.760445
v -2.552214 4.219204 2.767215
v -2.550933 4.226023 2.922552
v -2.544101 4.227311 2.767215
v -2.545443 3.867300 -2.760445
v -2.552214 3.875406 -2.767216
v -2.545443 3.867300 -2.773986
v -2.545443 3.867300 -2.767216
v 2.397251 4.225737 2.764662
v 2.392075 4.220546 2.760445
v 2.385304 3.874065 2.767215
v 2.392075 3.867300 2.760445
v 2.395705 3.875460 2.767215
v 2.392075 3.874065 2.767215
v 2.395315 4.224175 -2.764542
v 2.548368 3.869369 -2.924675
v -2.549779 3.870728 -2.924328
v 2.545443 3.867300 -2.767216
v 2.552214 3.874065 -2.767216
v 2.545443 3.867300 -2.760445
v 2.552214 4.219151 -2.923714
v 2.546391 4.225184 -2.924500
v 2.545443 4.227311 -2.773986
v 2.544101 4.227311 -2.767216
v 2.545443 4.227311 -2.760445
v 2.552214 4.219204 -2.767216
v 2.548368 4.225242 2.924675
v 2.550933 3.868588 2.922552
v -2.548368 3.869370 2.924675
v 2.545443 3.867300 2.760445
v 2.552214 3.875407 2.767215
v 2.544101 3.867300 2.767215
v 2.545443 4.227311 2.767215
v 2.552214 4.220546 2.767215
v 2.545443 4.227311 2.760445
v -2.545443 3.867300 2.767215
v -2.552214 3.874065 2.767215
v -2.545443 3.867300 2.760445
v 2.926206 0.171505 -0.749052
v 1.677743 0.169890 -0.747408
v 2.926206 7.463092 2.950814
v 1.677787 7.463092 -0.749052
v 1.677787 0.171505 2.950814
v 2.926250 7.464707 -0.747408
v 1.677743 7.464707 2.949170
v 2.926250 0.169890 2.949170
v 3.038948 7.468364 -0.873425
v 3.039974 7.468353 3.073696
v 1.564019 7.666474 3.073696
v 1.565045 7.666463 -0.873425
v 1.564019 7.468352 -0.871934
v 3.039974 7.666474 -0.871934
v 3.038948 7.666463 3.075187
v 1.565045 7.468364 3.075187
v 1.137822 3.087945 -2.737593
v 1.137822 0.166516 -2.746798
v -2.438951 3.087946 -2.746797
v -2.438951 0.166516 -2.737594
v -2.307335 2.902078 -2.835030
v 1.006206 2.902078 -2.829507
v -2.307335 0.192379 -2.829507
v 1.006206 0.192379 -2.835029
v 0.990694 0.409012 -2.869463
v -2.297661 0.410194 -2.882308
v 0.990694 0.411376 -2.895152
v -2.297661 0.630200 -2.882308
v 0.990694 0.631382 -2.895152
v 0.990694 0.629019 -2.869463
v 0.990694 0.851389 -2.895152
v 0.990694 0.849025 -2.869463
v -2.297661 0.850207 -2.882308
v 0.990694 1.071396 -2.895152
v 0.990694 1.069032 -2.869463
v -2.297661 1.070214 -2.882308
v 0.990694 1.291402 -2.895152
v -2.297661 1.290221 -2.882308
v 0.990694 1.289039 -2.869463
v 0.990694 1.511409 -2.895152
v -2.297661 1.510228 -2.882308
v 0.990694 1.509046 -2.869463
v -2.297661 1.730234 -2.882308
v 0.990694 1.743069 -2.881125
v 0.990694 1.717399 -2.883491
v 0.990694 1.951423 -2.895152
v -2.297661 1.950241 -2.882308
v 0.990694 1.949059 -2.869463
v 0.990694 2.171429 -2.895152
v -2.297661 2.170248 -2.882308
v 0.990694 2.169066 -2.869463
v 0.990694 2.391436 -2.895152
v 0.990694 2.389073 -2.869463
v -2.297661 2.390254 -2.882308
v 0.990694 2.623096 -2.881125
v -2.297661 2.610261 -2.882308
v 0.990694 2.597426 -2.883491
v 0.990694 2.831450 -2.895152
v -2.297661 2.830268 -2.882308
v 0.990694 2.829086 -2.869463
v -2.126161 2.235537 -2.904182
v 0.825032 2.235537 -2.900465
v -2.126161 1.838950 -2.900465
v 0.825032 1.838950 -2.904182
v 0.846155 3.705446 -2.737949
v 0.847190 3.229290 -2.738452
v -2.147283 3.705446 -2.886555
v -2.148318 3.229290 -2.886051
v -2.147283 3.229129 -2.737949
v 0.847190 3.705285 -2.886051
v 0.846155 3.229129 -2.886555
v -2.148318 3.705285 -2.738452
v 1.329655 2.414069 -2.831370
v 2.273470 0.170372 -2.831369
v 2.273470 2.414069 -2.693054
v 1.329301 2.414736 -2.693471
v 2.273824 2.414736 -2.830953
v 1.329301 0.169705 -2.830952
v 2.273824 0.169706 -2.693470
v 1.329655 0.170372 -2.693053
v 1.401654 0.236876 -2.850580
v 2.201472 0.236876 -2.853987
v 1.401654 2.337565 -2.853987
v 2.201472 2.337565 -2.850580
v 1.801563 2.352744 -2.882308
v 1.799544 0.234387 -2.910187
v 1.803581 0.234387 -2.854429
v 1.679328 0.996414 -2.975960
v 1.679328 1.398022 -2.908751
v 1.683589 0.996414 -2.908751
v 1.683589 1.398022 -2.975960
v 1.923797 1.398022 -2.975960
v 1.919536 1.398022 -2.908751
v 1.919536 0.996414 -2.975960
v 1.923797 0.996414 -2.908751
v 2.730083 5.304909 -0.884728
v 2.729518 5.304225 -0.736468
v 1.873910 5.304909 -0.736571
v 1.874476 4.250431 -0.736468
v 1.873910 4.249747 -0.884728
v 1.874476 5.304225 -0.884831
v 2.729518 4.250431 -0.884831
v 2.730083 4.249747 -0.736571
v 1.942020 5.236979 -0.901880
v 2.661973 5.236979 -0.899563
v 1.942020 4.317678 -0.899563
v 2.661974 4.317678 -0.901879
v 1.943673 5.280169 -0.961182
v 1.939695 5.280169 -0.900309
v 1.941684 4.270554 -0.930745
v 2.303985 5.280169 -0.961182
v 2.300008 4.284488 -0.961182
v 2.303986 4.284488 -0.900308
v 2.300008 5.280169 -0.900309
v 2.664298 5.280169 -0.961182
v 2.662309 4.270554 -0.930746
v 2.660320 5.280169 -0.900309
v 1.820449 4.243119 -1.073019
v 2.783544 4.251504 -1.073018
v 2.783544 4.243119 -0.828505
v 1.820449 4.251505 -0.828504
v 1.874476 6.704268 -0.884831
v 1.874475 5.650474 -0.736468
v 2.730084 5.649791 -0.736571
v 2.729518 5.650474 -0.884831
v 2.729518 6.704268 -0.736468
v 2.730083 6.704952 -0.884728
v 1.873910 6.704952 -0.736571
v 1.873910 5.649790 -0.884728
v 2.661973 5.717721 -0.901880
v 1.942020 5.717721 -0.899563
v 1.942020 6.637022 -0.901880
v 2.661973 6.637022 -0.899563
v 1.943673 6.680211 -0.961183
v 1.939695 6.680211 -0.900309
v 1.941684 5.670597 -0.930746
v 2.303986 6.680212 -0.961183
v 2.301996 5.670597 -0.930745
v 2.300008 6.680211 -0.900309
v 2.664298 6.680211 -0.961183
v 2.662309 5.670597 -0.930746
v 2.660320 6.680211 -0.900309
v 2.783544 5.651547 -1.073018
v 1.820449 5.651547 -0.828504
v 2.783544 5.643162 -0.828505
v 1.820449 5.643162 -1.073019
v 1.687357 7.656856 -0.602995
v 1.682856 8.341120 -0.602867
v 1.665135 8.350606 -0.631824
v 1.654391 8.351916 -0.566794
v 1.679692 8.346091 -0.600481
v 1.683871 8.353688 -0.593711
v 1.683871 8.341187 -0.593711
v 1.624071 8.340672 -0.618995
v 1.624287 7.659283 -0.625611
v 1.639363 7.658099 -0.568820
v 1.687415 7.656881 2.799580
v 1.624288 7.659283 2.777114
v 1.660410 8.348469 2.768756
v 1.681224 8.341120 2.795920
v 1.658512 8.350833 2.834052
v 1.693233 8.348784 2.802243
v 1.689054 8.341187 2.809013
v 1.689054 8.353688 2.807742
v 1.624071 8.340672 2.783729
v 1.611163 8.341120 2.808566
v 1.618993 8.353688 2.795472
v 1.618993 8.341187 2.795472
v 1.618993 8.355547 2.799115
v 1.618993 8.340672 2.808498
v 1.625527 8.347438 2.802243
v 1.639364 7.658099 2.833905
v 1.649003 8.383593 -0.599344
v 1.671020 8.367009 -0.600481
v 1.644209 8.313824 2.801649
v 1.676310 8.325404 2.793730
v 1.640484 8.379380 2.800129
v 1.631844 8.367009 2.802243
v 1.649380 8.315289 -0.589933
v 1.618993 8.341187 -0.593711
v 1.618993 8.353688 -0.593711
v 1.618993 8.332489 -0.603609
v 1.625527 8.347438 -0.600481
v 1.632609 8.328629 -0.600481
v 1.675938 8.324817 -0.595354
v 1.677785 8.367092 2.794870
v 1.671020 8.367009 2.802243
v 2.925416 7.659283 -0.625610
v 2.988486 7.656856 -0.602995
v 2.966263 8.350606 -0.631826
v 2.950508 8.315289 -0.589933
v 2.920122 8.341187 -0.593711
v 2.920122 8.353688 -0.593711
v 2.920122 8.332489 -0.603609
v 2.955520 8.351916 -0.566794
v 2.926656 8.347438 -0.600481
v 2.925199 8.340672 -0.618995
v 2.940492 7.658099 -0.568820
v 2.940492 7.658099 2.833905
v 2.988544 7.656881 2.799580
v 2.925416 7.659283 2.777114
v 2.959641 8.350833 2.834052
v 2.961540 8.348469 2.768756
v 2.925199 8.340672 2.783729
v 2.982352 8.341120 2.795920
v 2.994362 8.348783 2.802243
v 2.990182 8.341187 2.809013
v 2.990182 8.353688 2.807742
v 2.933738 8.328629 -0.600481
v 2.950132 8.383593 -0.599344
v 2.945336 8.313824 2.801650
v 2.941613 8.379380 2.800129
v 2.977438 8.325404 2.793730
v 2.912292 8.341120 2.808566
v 2.920122 8.353688 2.795472
v 2.920122 8.341187 2.795472
v 2.920122 8.355547 2.799115
v 2.920122 8.340672 2.808498
v 2.926656 8.347438 2.802243
v 2.932973 8.367009 2.802243
v 2.983983 8.341120 -0.602867
v 2.980820 8.346092 -0.600481
v 2.985000 8.353688 -0.593711
v 2.985000 8.341187 -0.593711
v 2.977066 8.324817 -0.595354
v 2.972149 8.367009 -0.600481
v 2.979189 8.366951 2.795024
v 2.972149 8.367009 2.802243
v 2.300723 9.000000 1.825850
v 2.305504 8.999817 1.777267
v 2.290074 7.669383 1.779086
v 2.313075 7.661996 1.820078
v -0.575934 3.866406 -1.874227
v -0.763321 3.866142 -2.108760
v -0.528124 3.861994 -2.079418
v -0.801797 4.068465 -1.965176
v -0.522240 4.068201 -2.074601
v -0.679170 4.065606 -2.140460
v -0.744773 3.869000 -1.895652
v -0.583438 4.072612 -1.872997
v -0.979187 4.684637 1.579202
v -0.980142 4.040595 1.578264
v -0.980142 4.684035 2.024620
v -1.822289 4.040595 2.024620
v -1.822289 4.684036 1.578264
v -1.823244 4.039994 1.579202
v -1.823244 4.684637 2.023682
v -0.979187 4.039994 2.023682
v -1.069296 4.543284 1.550836
v -1.303012 4.608270 1.551242
v -1.127906 4.175931 1.557276
v -1.472897 4.435230 1.551647
v -1.408445 4.209683 1.549749
v -1.238308 4.146375 1.545207
v -1.012245 4.315756 1.552735
v -1.456477 4.219810 1.521217
v -1.031216 4.218674 1.533405
v -1.031216 4.220947 1.509030
v -1.031216 4.298991 1.522355
v -1.031216 4.274634 1.520080
v -1.456477 4.286813 1.521217
v -1.450937 4.365994 1.520080
v -1.450937 4.341636 1.522355
v -1.025676 4.353816 1.521217
v -1.031216 4.421954 1.509030
v -1.456477 4.420817 1.521217
v -1.031216 4.419681 1.533405
v -1.450937 4.488955 1.533406
v -1.450937 4.486683 1.509030
v -1.025676 4.487819 1.521217
v -1.031216 4.555958 1.509030
v -1.456477 4.554821 1.521217
v -1.031216 4.553685 1.533405
v -1.735705 4.557020 1.554733
v -1.647229 4.557020 1.557758
v -1.735705 4.197611 1.557758
v -1.647229 4.197611 1.554733
v -1.749235 3.999116 1.504384
v -1.653716 3.999117 2.098499
v -1.749235 4.005492 2.098499
v -1.653717 4.005493 1.504385
v -1.148714 3.999116 1.504384
v -1.148714 4.005492 2.098499
v -1.053195 3.999117 2.098499
v -1.053196 4.005493 1.504385
v -2.701559 0.116195 3.139943
v -2.744831 0.120291 3.077524
v -2.669424 0.115631 3.058918
v -2.668221 3.498279 3.059466
v -2.742959 3.494183 3.073005
v -2.702797 3.498844 3.139480
v 2.703129 0.116195 3.139943
v 2.735264 0.115631 3.058918
v 2.736467 3.498279 3.059466
v 2.659857 0.120291 3.077525
v 2.661729 3.494183 3.073005
v 2.701891 3.498844 3.139480
v 0.396746 0.450303 3.023356
v 0.396746 2.244143 3.141580
v -0.396746 0.450302 3.141581
v -0.397140 2.244781 3.141149
v -0.397140 0.449664 3.023787
v 0.397140 2.244781 3.023787
v -0.396746 2.244143 3.023355
v 0.397140 0.449664 3.141149
v 0.972841 1.301440 2.999041
v 0.972841 1.793018 3.165894
v 0.628026 1.793971 3.165261
v 0.628548 1.301440 3.165894
v 0.628026 1.300487 2.999674
v 0.973364 1.793971 2.999674
v 0.973364 1.300487 3.165261
v 0.628548 1.793018 2.999041
vn -0.0000 -0.0000 -1.0000
vn -0.0000 -0.7074 0.7068
vn 0.1799 -0.1802 0.9670
vn 0.6819 0.7299 -0.0474
vn -0.7068 0.7074 -0.0000
vn -0.7000 0.7006 0.1387
vn -0.7675 -0.6411 -0.0001
vn -0.7675 -0.6410 -0.0000
vn 0.7068 -0.7074 -0.0000
vn 0.7000 0.7006 0.1387
vn 0.7000 -0.7006 0.1387
vn 0.7068 0.7074 -0.0000
vn -0.7068 -0.7074 -0.0000
vn 0.8509 -0.0000 -0.5253
vn 0.6443 -0.2583 0.7198
vn -0.7060 0.7077 0.0280
vn 0.8143 -0.4360 0.3832
vn 0.8143 -0.4361 0.3832
vn 0.6445 -0.2578 0.7198
vn 0.6443 -0.2579 0.7200
vn 0.6444 -0.2578 0.7199
vn -0.0003 -0.1203 -0.9927
vn 0.7199 0.6941 -0.0053
vn 0.0552 0.8375 -0.5437
vn 0.2390 -0.8718 0.4275
vn -0.2942 -0.7989 -0.5246
vn 0.6702 -0.0000 -0.7422
vn -0.6247 0.0496 0.7793
vn -0.2227 0.8188 0.5292
vn -0.0005 0.7251 -0.6886
vn -0.6298 0.7768 0.0001
vn 0.1512 0.8046 -0.5743
vn 0.0006 0.7070 0.7072
vn 0.4914 0.8709 -0.0001
vn 0.0135 0.9999 -0.0000
vn 0.0134 0.9999 -0.0000
vn 0.6756 0.0039 -0.7373
vn -0.0441 -0.0441 -0.9981
vn 0.0452 -0.9990 -0.0000
vn -0.7674 0.6411 0.0002
vn -0.7674 -0.6411 -0.0002
vn 0.9999 0.0109 0.0006
vn 0.5832 0.8123 -0.0001
vn 0.5644 0.8255 -0.0001
vn -0.0452 -0.9990 -0.0000
vn -0.0108 0.9999 -0.0000
vn -0.0106 0.9999 -0.0000
vn -0.6367 0.0084 0.7710
vn -0.0000 -0.6385 0.7696
vn -1.0000 0.0096 -0.0006
vn -0.9020 0.4318 0.0051
vn -0.7081 0.7061 -0.0000
vn 0.7674 0.6411 -0.0002
vn 0.7674 -0.6411 0.0002
vn 0.3068 -0.0045 -0.9517
vn 0.9988 -0.0349 -0.0353
vn 0.1351 0.0012 -0.9908
vn -0.0000 0.9999 -0.0131
vn -0.0004 1.0000 -0.0003
vn -0.0004 1.0000 -0.0001
vn -0.0000 -0.9999 -0.0131
vn 0.0004 -1.0000 -0.0003
vn 0.0004 -1.0000 -0.0000
vn 0.5681 0.5750 0.5888
vn 0.0001 1.0000 0.0084
vn -0.1878 0.6827 0.7062
vn -0.5681 -0.5750 0.5888
vn -0.0001 -1.0000 0.0084
vn 0.1878 -0.6827 0.7062
vn -0.3127 0.8998 -0.3042
vn -0.5655 0.7857 0.2507
vn -0.0297 0.9964 -0.0800
vn 0.1422 0.9893 -0.0317
vn 0.0201 0.9993 0.0315
vn 0.3598 0.9327 -0.0233
vn -0.3178 0.8984 -0.3033
vn -0.2820 0.9400 0.1921
vn -0.4569 0.8003 0.3883
vn 0.5730 0.7360 0.3605
vn 0.5958 0.7975 -0.0949
vn 0.0790 0.1722 -0.9819
vn 0.8994 -0.4262 -0.0969
vn 0.8994 -0.4263 -0.0969
vn -0.5092 0.3641 -0.7798
vn -0.7582 0.5803 0.2973
vn -0.4503 -0.2195 0.8655
vn 0.3092 -0.2254 0.9239
vn -0.2062 -0.9712 0.1191
vn 0.6521 -0.6313 0.4199
vn 0.3945 0.4808 0.7830
vn -1.0000 -0.0000 -0.0000
vn 1.0000 -0.0000 -0.0015
vn -0.0300 0.9963 -0.0802
vn 0.0197 0.9993 0.0320
vn 0.8995 -0.4261 -0.0968
vn -0.7582 0.5803 0.2974
vn -0.4503 -0.2196 0.8654
vn 0.6521 -0.6313 0.4198
vn -0.0528 0.8384 0.5425
vn -0.5754 0.5764 -0.5802
vn 0.5754 -0.5764 -0.5802
vn -0.5794 -0.5782 -0.5744
vn 0.5794 0.5782 -0.5744
vn -0.5794 0.5782 0.5744
vn 0.5754 0.5764 0.5802
vn -0.5754 -0.5764 0.5802
vn 0.5794 -0.5782 0.5744
vn -0.5772 0.5773 -0.5776
vn 0.5772 -0.5773 -0.5776
vn -0.5775 -0.5775 -0.5771
vn 0.5775 0.5775 -0.5771
vn -0.5775 0.5775 0.5771
vn 0.5772 0.5773 0.5776
vn -0.5772 -0.5773 0.5776
vn 0.5775 -0.5775 0.5771
vn -0.0007 0.0019 -1.0000
vn 0.0001 0.0313 -0.9995
vn -1.0000 0.0004 -0.0000
vn -0.9996 0.0282 -0.0006
vn -0.9996 0.0279 -0.0006
vn -0.0001 0.0224 0.9997
vn -0.0000 0.0195 0.9998
vn 0.5170 0.8560 -0.0004
vn -0.7068 -0.7074 0.0017
vn 0.0058 0.0007 1.0000
vn 0.0012 0.0030 1.0000
vn -0.0001 0.0035 1.0000
vn -0.0000 -1.0000 -0.0000
vn 0.9999 0.0101 0.0006
vn -0.7071 -0.0000 0.7071
vn 1.0000 0.0004 -0.0000
vn 0.9995 0.0329 0.0006
vn 0.9995 0.0325 0.0006
vn -0.3587 0.9335 -0.0011
vn 0.0012 0.0005 -1.0000
vn 0.0024 0.0011 -1.0000
vn 0.0006 0.0003 -1.0000
vn 0.9999 0.0109 -0.0007
vn -0.0132 0.0017 -0.9999
vn -0.0025 0.0064 -1.0000
vn 0.0003 0.0076 -1.0000
vn -1.0000 0.0012 -0.0000
vn 0.0231 0.9997 -0.0020
vn 0.0231 0.9997 0.0001
vn -0.7001 0.0341 -0.7133
vn -0.0000 0.9999 -0.0141
vn -0.0000 0.6996 -0.7145
vn -0.9999 -0.0000 -0.0155
vn -0.9010 0.4338 -0.0091
vn -0.2064 -0.6857 -0.6980
vn 0.0079 -0.0026 1.0000
vn 0.0034 0.0020 1.0000
vn -1.0000 -0.0000 0.0082
vn -0.0000 -0.0184 -0.9998
vn -0.4830 -0.8756 -0.0059
vn -0.0208 0.9998 0.0018
vn -0.0085 0.0036 1.0000
vn -0.0173 0.0074 0.9998
vn -0.0042 0.0018 1.0000
vn -0.0209 0.9998 -0.0001
vn -0.0000 -0.0000 1.0000
vn 0.8994 -0.4370 -0.0089
vn 0.9985 0.0229 0.0506
vn 1.0000 -0.0000 -0.0000
vn 0.9009 0.4339 0.0091
vn 1.0000 -0.0000 0.0082
vn -0.9009 -0.4340 0.0091
vn -0.0002 0.7064 -0.7078
vn 0.0002 -0.7064 -0.7078
vn -0.0004 -0.7077 -0.7065
vn 0.0004 -0.7077 0.7065
vn 0.0004 0.7077 -0.7065
vn -0.0002 -0.7064 0.7078
vn 0.0002 0.7064 0.7078
vn -0.0004 0.7077 0.7065
vn -0.7045 -0.0008 -0.7098
vn 0.7045 0.0008 -0.7098
vn -0.7102 -0.0019 -0.7040
vn 0.7102 0.0019 -0.7040
vn 0.7102 -0.0019 0.7040
vn 0.7045 -0.0008 0.7098
vn -0.7045 0.0008 0.7098
vn -0.0000 1.0000 -0.0000
vn -0.7102 0.0019 0.7040
vn -0.7262 0.6874 -0.0137
vn 0.7262 0.6873 0.0136
vn 0.7262 -0.6874 -0.0137
vn -0.7262 -0.6873 0.0137
vn -0.7260 0.6874 -0.0188
vn 0.7260 -0.6874 -0.0188
vn -0.7261 -0.6874 0.0189
vn 0.7261 0.6874 0.0189
vn -0.0000 -0.0000 -0.0000
vn -0.0921 -0.0000 -0.9957
vn -0.0720 -0.0000 -0.9974
vn -0.0000 0.9956 0.0941
vn -0.0000 0.9961 0.0882
vn -0.8227 0.5684 -0.0057
vn 0.8226 -0.5685 -0.0055
vn -0.8222 -0.5691 0.0057
vn 0.8223 0.5690 0.0058
vn 0.7086 0.7056 0.0023
vn 0.7043 0.7099 0.0042
vn 0.7086 -0.7056 -0.0023
vn 0.0001 -0.0008 1.0000
vn -0.0001 0.0008 1.0000
vn 0.0002 -0.0011 1.0000
vn -0.0002 0.0011 1.0000
vn -0.7086 0.7056 -0.0023
vn 0.7043 -0.7099 -0.0042
vn -0.7086 -0.7056 0.0023
vn -0.7043 -0.7099 0.0042
vn -0.7043 0.7099 -0.0042
vn -0.0001 -0.0008 -1.0000
vn 0.0001 0.0008 -1.0000
vn -0.0002 -0.0011 -1.0000
vn 0.0002 0.0011 -1.0000
vn 0.0002 0.0001 -1.0000
vn -0.0002 -0.0001 -1.0000
vn -0.0004 -0.0002 -1.0000
vn 0.0004 0.0002 -1.0000
vn -0.7067 0.7075 -0.0045
vn -0.7079 0.7063 -0.0052
vn -0.7067 -0.7075 0.0045
vn 0.7067 0.7075 0.0045
vn 0.7079 -0.7063 -0.0052
vn 0.7067 -0.7075 -0.0045
vn -0.0002 0.0001 1.0000
vn 0.0002 -0.0001 1.0000
vn 0.0004 -0.0002 1.0000
vn -0.0004 0.0002 1.0000
vn 0.7079 0.7063 0.0052
vn -0.7079 -0.7063 0.0052
vn -0.6206 0.7840 0.0136
vn 0.6206 -0.7840 0.0136
vn -0.6206 -0.7840 -0.0136
vn 0.6206 0.7840 -0.0135
vn -0.0363 0.8171 0.5753
vn 0.0363 0.8173 -0.5751
vn -0.0363 -0.8171 -0.5753
vn 0.0363 -0.8173 0.5751
vn -0.0363 0.8172 0.5752
vn 0.0363 0.8172 -0.5752
vn -0.0363 -0.8172 -0.5752
vn 0.0363 -0.8172 0.5752
vn -0.7070 0.7072 -0.0048
vn 0.7070 0.7072 0.0048
vn -0.7074 0.7068 -0.0060
vn 0.0001 0.0001 -1.0000
vn 0.7070 -0.7072 -0.0048
vn 0.7074 -0.7068 -0.0060
vn 0.7074 0.7068 0.0060
vn -0.0001 0.0001 1.0000
vn 0.0001 -0.0001 1.0000
vn -0.7070 -0.7072 0.0048
vn -0.7074 -0.7068 0.0060
vn -0.0001 -0.0001 -1.0000
vn -0.6833 0.7300 -0.0124
vn 0.6833 -0.7300 -0.0123
vn -0.6833 -0.7300 0.0124
vn 0.6833 0.7301 0.0124
vn -0.0379 0.8337 0.5509
vn 0.0379 0.8344 -0.5498
vn -0.0379 -0.8337 -0.5509
vn 0.0379 -0.8344 0.5498
vn -0.8036 0.0186 0.5949
vn 0.8036 0.0186 -0.5949
vn -0.8036 -0.0186 -0.5949
vn 0.8036 -0.0186 0.5949
vn -0.6833 0.7301 -0.0124
vn 0.6833 -0.7301 -0.0124
vn 0.6833 0.7300 0.0124
vn 0.8050 -0.5827 -0.1119
vn -0.5795 -0.5410 -0.6094
vn 0.3401 0.0077 -0.9404
vn -0.1234 0.9871 0.1021
vn 0.6512 0.7589 -0.0018
vn -0.0346 0.9994 -0.0012
vn 0.3160 0.9488 0.0019
vn 0.2064 -0.2777 -0.9382
vn 0.2905 -0.3064 -0.9065
vn 0.2364 -0.2882 -0.9279
vn 0.4288 -0.7271 -0.5362
vn 0.8999 -0.4362 0.0002
vn 0.9117 -0.4109 -0.0000
vn 0.9170 0.3989 0.0001
vn -0.9072 0.4131 -0.0796
vn -0.2945 -0.5586 0.7754
vn 0.1533 -0.0130 0.9881
vn 0.8041 -0.5858 -0.1015
vn -0.2961 -0.5570 0.7759
vn -0.5822 -0.5396 -0.6082
vn 0.1217 -0.0293 0.9921
vn 0.2571 0.0064 -0.9664
vn -0.0855 0.7104 -0.6986
vn -0.3719 0.5344 -0.7591
vn -0.0153 0.0990 0.9950
vn -0.0410 -0.0016 0.9992
vn 0.0943 0.3894 0.9162
vn 0.7984 0.5426 -0.2611
vn -0.9195 -0.0252 0.3923
vn 0.0166 0.2458 -0.9692
vn -0.7665 0.6422 -0.0011
vn -0.2741 0.9617 0.0005
vn -0.0684 0.0192 0.9975
vn -0.0408 0.0208 0.9989
vn -0.7059 0.7084 -0.0000
vn -0.6492 -0.7606 -0.0013
vn -0.7354 -0.6776 -0.0000
vn 0.3138 -0.3141 -0.8960
vn -0.3117 -0.4020 0.8610
vn 0.0077 0.0786 -0.9969
vn -0.1601 -0.9825 -0.0952
vn 0.8049 -0.5827 -0.1119
vn -0.1231 0.9872 0.1018
vn -0.1600 -0.9825 -0.0952
vn -0.0346 0.9994 -0.0013
vn -0.7059 0.7083 -0.0000
vn 0.8041 -0.5857 -0.1015
vn -0.3719 0.5343 -0.7591
vn -0.0524 0.0069 0.9986
vn -0.1336 -0.1629 0.9775
vn 0.8999 -0.4361 0.0002
vn 0.9197 0.3925 -0.0000
vn -0.2285 0.9732 0.0262
vn -0.0684 0.0193 0.9975
vn -0.0408 0.0209 0.9989
vn 0.0166 0.2459 -0.9692
vn 0.3265 0.9401 0.0980
vn 0.6512 0.7589 -0.0019
vn -0.5372 -0.5856 0.6070
vn 0.4578 -0.5818 0.6723
vn 0.3685 0.6135 0.6985
vn -0.5656 -0.5863 -0.5799
vn 0.6684 -0.6135 -0.4207
vn 0.7326 0.5818 -0.3533
vn -0.7798 0.5863 0.2194
vn -0.1617 0.5856 -0.7943
vn 0.5782 0.5780 -0.5759
vn 0.5782 -0.5780 0.5759
vn 0.5764 -0.5770 -0.5787
vn 0.5764 0.5770 0.5787
vn -0.5782 0.5780 0.5759
vn -0.5764 0.5770 -0.5787
vn -0.5782 -0.5780 -0.5759
vn -0.5764 -0.5770 0.5787
vn 0.6033 -0.7887 0.1182
vn 0.9990 -0.0436 0.0050
vn 0.6423 0.7665 -0.0057
vn -0.2588 0.9659 -0.0000
vn -0.9395 0.3426 0.0057
vn -0.8433 -0.5374 -0.0050
vn -0.1283 -0.9847 -0.1182
vn -0.0000 0.9879 -0.1550
vn -0.0000 0.9912 -0.1322
vn -0.5932 0.8048 -0.0185
vn 0.5932 -0.8048 -0.0185
vn -0.5932 -0.8048 0.0185
vn 0.5932 0.8048 0.0185
vn -0.5738 0.0382 0.8181
vn 0.5738 0.0382 -0.8181
vn -0.5734 -0.0382 -0.8184
vn 0.5734 -0.0382 0.8184
vn 0.5738 0.0383 -0.8181
vn -0.7942 -0.5289 -0.2992
vn 0.0885 -0.5653 0.8201
vn 0.0511 0.5696 0.8203
vn -0.7731 0.5289 -0.3500
vn 0.6162 -0.5696 -0.5439
vn 0.6425 0.5653 -0.5173
vn -0.5766 0.5756 -0.5798
vn 0.5766 -0.5756 -0.5798
vn -0.5784 -0.5788 -0.5749
vn 0.5784 -0.5788 0.5749
vn 0.5784 0.5788 -0.5749
vn 0.5766 0.5756 0.5798
vn -0.5766 -0.5756 0.5798
vn -0.5784 0.5788 0.5749
vn -0.5767 0.5750 -0.5803
vn 0.5767 -0.5750 -0.5803
vn -0.5785 -0.5790 -0.5745
vn 0.5785 -0.5790 0.5745
vn 0.5785 0.5790 -0.5745
vn 0.5767 0.5750 0.5803
vn -0.5767 -0.5750 0.5803
vn -0.5785 0.5790 0.5745
vn 0.1799 0.1802 0.9670
vn 0.8866 -0.4615 0.0300
vn -0.7068 0.7074 0.0038
vn -0.7066 0.7071 -0.0252
vn 0.2624 -0.6825 0.6821
vn 0.7068 -0.7074 0.0038
vn 0.7000 0.7006 -0.1387
vn 0.7066 -0.7072 -0.0252
vn 0.7068 0.7074 -0.0038
vn -0.7068 -0.7074 -0.0038
vn 0.8184 0.5667 -0.0951
vn 0.7525 0.6036 -0.2634
vn 0.7528 0.6034 -0.2630
vn 0.7521 0.6039 -0.2637
vn 0.2523 0.9674 0.0222
vn -0.4766 0.7413 -0.4726
vn -0.8191 -0.0580 -0.5707
vn -0.8582 -0.0000 -0.5132
vn 0.4891 -0.8233 0.2879
vn -0.3350 -0.5091 -0.7928
vn -0.3352 -0.5090 -0.7928
vn -0.7570 0.2007 0.6219
vn -0.3351 -0.5090 -0.7928
vn -0.3352 -0.5089 -0.7929
vn -0.7569 0.2008 0.6219
vn -0.4765 0.7413 -0.4726
vn -0.8583 -0.0000 -0.5132
vn 0.4892 -0.8232 0.2881
vn 0.8187 0.5663 -0.0949
vn 0.7530 0.6028 -0.2637
vn 0.7534 0.6027 -0.2630
vn 0.7525 0.6033 -0.2643
vn 0.2528 0.9673 0.0212
vn -0.0000 0.0010 -1.0000
vn 0.7676 0.6409 -0.0002
vn -0.7071 -0.0000 -0.7071
vn -0.0303 0.0304 -0.9991
vn -0.0000 0.0224 0.9997
vn -0.0628 0.0176 -0.9979
vn 0.0232 0.9997 -0.0046
vn -0.0000 0.0035 1.0000
vn -0.0210 0.9998 0.0042
vn -0.0165 0.0076 -0.9998
vn -0.0000 -0.7074 -0.7068
vn -0.0075 0.0195 0.9998
vn -0.0549 -0.9984 -0.0109
vn -0.7645 -0.6446 0.0073
vn -0.0000 0.9999 0.0131
vn -0.0000 -0.9999 0.0131
vn -0.8147 -0.5210 0.2545
vn 0.8001 0.0067 0.5998
vn -0.6126 0.0075 -0.7904
vn -0.9755 -0.0148 0.2196
vn -0.4839 0.8336 -0.2665
vn 0.6752 -0.0085 0.7376
vn -0.7730 0.0059 -0.6344
vn -0.9999 -0.0072 -0.0115
vn 0.6532 0.2708 -0.7071
vn -0.0419 -0.4035 -0.9140
vn -0.7505 0.6399 0.1655
vn 0.5872 -0.7178 0.3741
vn 0.3368 0.8859 0.3190
vn 0.5461 0.6657 0.5086
vn 1.0000 -0.0002 -0.0015
vn -0.8148 -0.5210 0.2545
vn -0.7730 0.0059 -0.6343
vn 0.6533 0.2708 -0.7070
vn -0.7505 0.6399 0.1654
vn 0.3364 0.8853 0.3210
vn 0.5409 0.6593 0.5222
vn -0.7068 -0.7075 -0.0000
vn -0.0000 0.9980 0.0626
vn 0.9998 0.0188 -0.0000
vn 0.9137 -0.4064 -0.0000
vn -0.0009 -0.7078 0.7064
vn -0.9999 -0.0105 0.0007
vn 0.6989 -0.0134 0.7151
vn 0.0081 -0.0081 0.9999
vn -0.0074 0.0043 -1.0000
vn -0.0180 -0.0004 -0.9998
vn 0.3350 -0.9399 0.0663
vn 0.6060 0.0038 0.7955
vn 0.8538 0.0057 -0.5206
vn -0.1089 -0.0000 -0.9941
vn 0.7943 0.0039 -0.6075
vn 0.4661 -0.0005 -0.8847
vn -0.9488 0.0028 -0.3158
vn 0.2493 0.5167 0.8191
vn 0.6143 -0.5291 -0.5854
vn -0.4661 -0.0000 0.8847
vn 0.1735 -0.1736 -0.9694
vn -0.4452 -0.0000 -0.8954
vn 0.6061 0.0038 0.7954
vt 0.237500 0.811551
vt 0.237500 0.918187
vt 0.222268 0.918190
vt 0.222268 0.811554
vt 0.428349 0.255207
vt 0.428348 0.255453
vt 0.428103 0.255207
vt 0.991574 0.369714
vt 0.991491 0.369851
vt 0.991154 0.369934
vt 0.004697 0.993897
vt 0.004883 0.994058
vt 0.004542 0.994058
vt 0.004788 0.455796
vt 0.004542 0.455797
vt 0.004788 0.455551
vt 0.004542 0.255206
vt 0.004836 0.255206
vt 0.004788 0.255451
vt 0.221054 0.452559
vt 0.220760 0.452602
vt 0.220760 0.452360
vt 0.254962 0.255453
vt 0.254962 0.255207
vt 0.255208 0.255207
vt 0.198621 0.255075
vt 0.198873 0.255077
vt 0.198621 0.255321
vt 0.189242 0.455796
vt 0.189536 0.455797
vt 0.189291 0.456042
vt 0.198922 0.455664
vt 0.198621 0.455662
vt 0.198622 0.455417
vt 0.189291 0.255206
vt 0.189536 0.255206
vt 0.189291 0.255451
vt 0.433907 0.255208
vt 0.434152 0.255207
vt 0.433907 0.255453
vt 0.868049 0.678450
vt 0.868328 0.678697
vt 0.867875 0.678697
vt 0.096488 0.980147
vt 0.097925 0.979783
vt 0.097676 0.979753
vt 0.993997 0.379880
vt 0.993833 0.379437
vt 0.993689 0.379731
vt 0.416732 0.583999
vt 0.416493 0.584408
vt 0.417011 0.584231
vt 0.224417 0.589665
vt 0.224178 0.590074
vt 0.224696 0.589897
vt 0.391073 0.980052
vt 0.392510 0.979689
vt 0.392261 0.979659
vt 0.993997 0.389508
vt 0.993833 0.389065
vt 0.993689 0.389359
vt 0.417431 0.600207
vt 0.417710 0.600453
vt 0.417257 0.600453
vt 0.189348 0.744277
vt 0.189103 0.917651
vt 0.189103 0.743872
vt 0.211674 0.254828
vt 0.211385 0.249403
vt 0.211674 0.249515
vt 0.936374 0.381219
vt 0.936946 0.429060
vt 0.936166 0.429112
vt 0.987085 0.796144
vt 0.986857 0.800245
vt 0.986847 0.796062
vt 0.934722 0.455057
vt 0.930736 0.455292
vt 0.930860 0.455056
vt 0.923134 0.004795
vt 0.923025 0.201833
vt 0.922888 0.004740
vt 0.919159 0.677475
vt 0.919052 0.877547
vt 0.918919 0.677460
vt 0.010101 0.455703
vt 0.990016 0.049788
vt 0.989615 0.062597
vt 0.989770 0.049693
vt 0.433907 0.455553
vt 0.428349 0.455798
vt 0.428103 0.455799
vt 0.428484 0.255207
vt 0.233819 0.255273
vt 0.233572 0.452553
vt 0.233524 0.254989
vt 0.221005 0.254995
vt 0.010186 0.255320
vt 0.010346 0.455552
vt 0.249404 0.455553
vt 0.254827 0.455798
vt 0.249404 0.455798
vt 0.183930 0.255344
vt 0.050007 0.961646
vt 0.049875 0.974162
vt 0.049870 0.961645
vt 0.249404 0.255453
vt 0.254831 0.255207
vt 0.183866 0.455647
vt 0.183732 0.255452
vt 0.211674 0.255318
vt 0.211437 0.455662
vt 0.211387 0.255075
vt 0.897721 0.628440
vt 0.885205 0.628367
vt 0.897907 0.628195
vt 0.004653 0.461415
vt 0.432671 0.894585
vt 0.427030 0.709989
vt 0.427275 0.709989
vt 0.189384 0.249565
vt 0.004788 0.249710
vt 0.434041 0.249589
vt 0.249452 0.255208
vt 0.249284 0.249622
vt 0.028586 0.984665
vt 0.029224 0.984449
vt 0.028927 0.985814
vt 0.867973 0.800981
vt 0.867847 0.802372
vt 0.867865 0.801548
vt 0.096665 0.982052
vt 0.096219 0.981547
vt 0.097599 0.981435
vt 0.095892 0.981560
vt 0.005866 0.982157
vt 0.005238 0.982391
vt 0.004726 0.982824
vt 0.867296 0.678695
vt 0.867872 0.678365
vt 0.417177 0.583910
vt 0.417862 0.584032
vt 0.393325 0.465300
vt 0.393768 0.465046
vt 0.393767 0.465243
vt 0.749409 0.530293
vt 0.748351 0.530156
vt 0.749759 0.529906
vt 0.867447 0.801776
vt 0.867309 0.801530
vt 0.747600 0.528281
vt 0.748640 0.528332
vt 0.747527 0.528586
vt 0.392880 0.465389
vt 0.868328 0.801979
vt 0.159218 0.985816
vt 0.159856 0.985600
vt 0.159559 0.986965
vt 0.417355 0.722737
vt 0.417229 0.724128
vt 0.417247 0.723305
vt 0.391251 0.981957
vt 0.390804 0.981453
vt 0.392185 0.981341
vt 0.390477 0.981466
vt 0.878651 0.978562
vt 0.878023 0.978795
vt 0.877511 0.979228
vt 0.416678 0.600451
vt 0.417253 0.600121
vt 0.224862 0.589575
vt 0.225547 0.589698
vt 0.201010 0.470965
vt 0.201453 0.470712
vt 0.201452 0.470909
vt 0.760820 0.530293
vt 0.759762 0.530156
vt 0.761170 0.529906
vt 0.416829 0.723532
vt 0.416691 0.723287
vt 0.759011 0.528281
vt 0.760051 0.528332
vt 0.758938 0.528586
vt 0.200565 0.471055
vt 0.417710 0.723735
vt 0.915068 0.887019
vt 0.915746 0.934932
vt 0.914887 0.934886
vt 0.909609 0.004544
vt 0.903775 0.239972
vt 0.903772 0.004543
vt 0.909534 0.239911
vt 0.905593 0.677460
vt 0.905558 0.909308
vt 0.899807 0.909306
vt 0.484444 0.004626
vt 0.249159 0.240235
vt 0.249159 0.004658
vt 0.432950 0.464970
vt 0.427200 0.700497
vt 0.427274 0.464980
vt 0.239829 0.240234
vt 0.004542 0.004626
vt 0.239911 0.004701
vt 0.433035 0.700512
vt 0.899918 0.677460
vt 0.004543 0.240160
vt 0.913272 0.249628
vt 0.907510 0.484972
vt 0.907479 0.249629
vt 0.913272 0.484909
vt 0.484444 0.240203
vt 0.719938 0.677460
vt 0.586158 0.858291
vt 0.586158 0.677489
vt 0.719938 0.858262
vt 0.809909 0.004542
vt 0.809857 0.205982
vt 0.675923 0.205950
vt 0.443390 0.463626
vt 0.624450 0.668181
vt 0.443408 0.668212
vt 0.577055 0.677461
vt 0.443243 0.858441
vt 0.443254 0.677460
vt 0.577061 0.858383
vt 0.767460 0.249493
vt 0.767467 0.454154
vt 0.633695 0.454237
vt 0.624432 0.463594
vt 0.676072 0.004542
vt 0.624450 0.454153
vt 0.443390 0.249598
vt 0.624432 0.249567
vt 0.443408 0.454184
vt 0.633691 0.249578
vt 0.926467 0.249460
vt 0.922357 0.423005
vt 0.922602 0.249631
vt 0.926708 0.422507
vt 0.918781 0.202064
vt 0.493782 0.004674
vt 0.666693 0.205057
vt 0.493779 0.204955
vt 0.930785 0.628263
vt 0.934722 0.455302
vt 0.934722 0.628197
vt 0.428509 0.455769
vt 0.212932 0.604882
vt 0.212945 0.805471
vt 0.213183 0.805470
vt 0.968921 0.381801
vt 0.974368 0.394571
vt 0.968946 0.394326
vt 0.200137 0.805213
vt 0.200375 0.605116
vt 0.212938 0.604884
vt 0.918781 0.004742
vt 0.919027 0.004542
vt 0.915059 0.877802
vt 0.666698 0.004688
vt 0.915113 0.877803
vt 0.914813 0.677461
vt 0.254962 0.455553
vt 0.907349 0.499048
vt 0.912661 0.499295
vt 0.913152 0.512351
vt 0.907104 0.511811
vt 0.907104 0.499294
vt 0.222497 0.802423
vt 0.222512 0.802182
vt 0.222564 0.604882
vt 0.969189 0.094704
vt 0.974321 0.107587
vt 0.968907 0.107216
vt 0.235081 0.605080
vt 0.235388 0.802277
vt 0.894687 0.004787
vt 0.894687 0.004788
vt 0.881629 0.004788
vt 0.189291 0.461355
vt 0.220948 0.458121
vt 0.233572 0.458135
vt 0.974614 0.381807
vt 0.974614 0.394326
vt 0.233632 0.249522
vt 0.890469 0.862195
vt 0.877707 0.862442
vt 0.877413 0.862148
vt 0.432678 0.709868
vt 0.189291 0.455551
vt 0.044448 0.961400
vt 0.044203 0.974164
vt 0.044202 0.961646
vt 0.897883 0.443613
vt 0.885245 0.443517
vt 0.198759 0.249458
vt 0.211673 0.255073
vt 0.211437 0.461329
vt 0.198812 0.461230
vt 0.898127 0.249535
vt 0.885449 0.434300
vt 0.885488 0.249436
vt 0.898081 0.434251
vt 0.221005 0.249413
vt 0.776561 0.249382
vt 0.821796 0.513589
vt 0.776561 0.513579
vt 0.876098 0.526748
vt 0.830897 0.526810
vt 0.830902 0.392826
vt 0.821796 0.249392
vt 0.249314 0.465027
vt 0.383212 0.729462
vt 0.249252 0.729382
vt 0.004698 0.470693
vt 0.136637 0.470812
vt 0.136580 0.735262
vt 0.004636 0.735143
vt 0.876103 0.392764
vt 0.145814 0.470550
vt 0.191052 0.734787
vt 0.145814 0.734787
vt 0.191052 0.470549
vt 0.383274 0.465106
vt 0.830902 0.249528
vt 0.876103 0.249465
vt 0.876098 0.383449
vt 0.830897 0.383512
vt 0.102865 0.872201
vt 0.095736 0.925392
vt 0.095693 0.872202
vt 0.872487 0.147632
vt 0.819215 0.147768
vt 0.819143 0.004734
vt 0.102738 0.925514
vt 0.130778 0.744777
vt 0.123620 0.887483
vt 0.123643 0.744583
vt 0.130749 0.887675
vt 0.756767 0.465445
vt 0.749679 0.518693
vt 0.749767 0.465323
vt 0.872415 0.004597
vt 0.356008 0.738884
vt 0.409352 0.881781
vt 0.356080 0.881918
vt 0.935451 0.677710
vt 0.935425 0.818473
vt 0.928290 0.818377
vt 0.409280 0.738747
vt 0.756679 0.518815
vt 0.928317 0.677540
vt 0.833790 0.677461
vt 0.833832 0.805788
vt 0.729043 0.805860
vt 0.729052 0.677460
vt 0.738425 0.539701
vt 0.633705 0.668279
vt 0.633697 0.539780
vt 0.738433 0.668200
vt 0.346670 0.738693
vt 0.249179 0.858025
vt 0.249185 0.738692
vt 0.346714 0.857953
vt 0.845009 0.539701
vt 0.747544 0.659211
vt 0.747536 0.539780
vt 0.845018 0.659131
vt 0.620527 0.867481
vt 0.620752 0.986230
vt 0.620300 0.986264
vt 0.586618 0.867535
vt 0.586943 0.986107
vt 0.586304 0.986107
vt 0.679220 0.867476
vt 0.679446 0.986236
vt 0.678994 0.986268
vt 0.299806 0.867410
vt 0.300082 0.985937
vt 0.299381 0.985937
vt 0.259695 0.867410
vt 0.259971 0.985937
vt 0.259270 0.985937
vt 0.630309 0.867476
vt 0.630535 0.986236
vt 0.630082 0.986268
vt 0.689002 0.867476
vt 0.689229 0.986236
vt 0.688776 0.986268
vt 0.309833 0.867410
vt 0.310109 0.985937
vt 0.309408 0.985937
vt 0.596695 0.867579
vt 0.596971 0.986107
vt 0.596270 0.986107
vt 0.640091 0.867476
vt 0.640317 0.986236
vt 0.639865 0.986268
vt 0.319861 0.867410
vt 0.320137 0.985937
vt 0.319436 0.985937
vt 0.698785 0.867476
vt 0.699010 0.986236
vt 0.698558 0.986268
vt 0.502258 0.867637
vt 0.502491 0.986213
vt 0.501955 0.986274
vt 0.772565 0.862822
vt 0.772185 0.981397
vt 0.771954 0.862672
vt 0.269642 0.867329
vt 0.269999 0.985937
vt 0.269298 0.985937
vt 0.708567 0.867476
vt 0.708793 0.986236
vt 0.708340 0.986268
vt 0.279750 0.867410
vt 0.280027 0.985937
vt 0.279325 0.985937
vt 0.659656 0.867476
vt 0.659881 0.986236
vt 0.659429 0.986268
vt 0.339916 0.867410
vt 0.340192 0.985937
vt 0.339491 0.985937
vt 0.718349 0.867476
vt 0.718575 0.986236
vt 0.718123 0.986268
vt 0.978339 0.118788
vt 0.977959 0.237364
vt 0.977728 0.118639
vt 0.512045 0.867637
vt 0.512278 0.986213
vt 0.511741 0.986274
vt 0.289778 0.867410
vt 0.290054 0.985937
vt 0.289353 0.985937
vt 0.443463 0.867736
vt 0.443689 0.986497
vt 0.443237 0.986529
vt 0.213183 0.814555
vt 0.198855 0.921137
vt 0.198759 0.814559
vt 0.213039 0.921210
vt 0.921435 0.521584
vt 0.907198 0.628294
vt 0.907250 0.521509
vt 0.921383 0.628370
vt 0.675984 0.215340
vt 0.681021 0.215317
vt 0.681189 0.232524
vt 0.871365 0.539814
vt 0.854172 0.648216
vt 0.854189 0.539793
vt 0.871348 0.648237
vt 0.814998 0.815315
vt 0.815009 0.923585
vt 0.809598 0.923588
vt 0.675823 0.232547
vt 0.829524 0.815315
vt 0.829534 0.923585
vt 0.824124 0.923588
vt 0.824113 0.815318
vt 0.690447 0.215342
vt 0.695590 0.215353
vt 0.695575 0.232533
vt 0.860321 0.811744
vt 0.843131 0.920143
vt 0.843148 0.811727
vt 0.860304 0.920159
vt 0.809588 0.815318
vt 0.690464 0.232586
vt 0.004601 0.744671
vt 0.038687 0.825921
vt 0.004665 0.826044
vt 0.038623 0.744549
vt 0.606313 0.867479
vt 0.611166 0.867666
vt 0.611134 0.948890
vt 0.431962 0.904022
vt 0.427086 0.938083
vt 0.427150 0.903930
vt 0.748314 0.902696
vt 0.748251 0.936848
vt 0.743438 0.936757
vt 0.932311 0.142498
vt 0.937205 0.223878
vt 0.932264 0.223692
vt 0.145872 0.744053
vt 0.179960 0.825308
vt 0.145936 0.825438
vt 0.179897 0.743923
vt 0.937252 0.142680
vt 0.431898 0.938175
vt 0.606254 0.948704
vt 0.743502 0.902604
vt 0.085736 0.744714
vt 0.114455 0.820443
vt 0.085746 0.820462
vt 0.047863 0.744711
vt 0.076583 0.820445
vt 0.047873 0.820470
vt 0.076574 0.744686
vt 0.114445 0.744695
vt 0.018628 0.877807
vt 0.019309 0.953654
vt 0.017941 0.953696
vt 0.944701 0.586884
vt 0.945442 0.662725
vt 0.944059 0.662768
vt 0.222352 0.967468
vt 0.224618 0.967494
vt 0.224597 0.981596
vt 0.222326 0.981570
vt 0.159294 0.961887
vt 0.161597 0.961912
vt 0.161574 0.976009
vt 0.159271 0.975983
vt 0.017189 0.963094
vt 0.019455 0.963120
vt 0.019434 0.977221
vt 0.017163 0.977196
vt 0.074213 0.962353
vt 0.076493 0.976475
vt 0.074189 0.976450
vt 0.076516 0.962378
vt 0.904921 0.918696
vt 0.899567 0.949626
vt 0.899575 0.918687
vt 0.729158 0.815193
vt 0.760079 0.815192
vt 0.760081 0.853340
vt 0.889332 0.198620
vt 0.894682 0.236643
vt 0.889336 0.236633
vt 0.894688 0.198621
vt 0.904914 0.949634
vt 0.709492 0.465378
vt 0.740415 0.465371
vt 0.740417 0.503525
vt 0.709494 0.503533
vt 0.123572 0.896852
vt 0.128847 0.934756
vt 0.123572 0.934754
vt 0.128847 0.896855
vt 0.848421 0.929570
vt 0.843072 0.960352
vt 0.843074 0.929561
vt 0.729160 0.853341
vt 0.848408 0.960354
vt 0.004565 0.835286
vt 0.030212 0.868462
vt 0.004553 0.868373
vt 0.030222 0.835378
vt 0.085723 0.829843
vt 0.111461 0.829918
vt 0.111530 0.862862
vt 0.085713 0.862934
vt 0.388751 0.934766
vt 0.390316 0.934766
vt 0.389530 0.970374
vt 0.965792 0.587631
vt 0.967277 0.587589
vt 0.966579 0.623227
vt 0.367051 0.934766
vt 0.368616 0.934766
vt 0.368598 0.970352
vt 0.809825 0.933104
vt 0.811390 0.968679
vt 0.809835 0.968722
vt 0.811311 0.933062
vt 0.367061 0.970395
vt 0.377901 0.934766
vt 0.379466 0.934766
vt 0.378680 0.970374
vt 0.210993 0.930530
vt 0.212479 0.930488
vt 0.211779 0.966127
vt 0.399700 0.891243
vt 0.391305 0.925333
vt 0.391281 0.891271
vt 0.867840 0.157094
vt 0.867864 0.191155
vt 0.859445 0.191183
vt 0.859421 0.157122
vt 0.399724 0.925305
vt 0.769436 0.815193
vt 0.800358 0.853340
vt 0.769436 0.853341
vt 0.800357 0.815192
vt 0.729023 0.902496
vt 0.734297 0.902498
vt 0.734297 0.940400
vt 0.151173 0.917082
vt 0.145819 0.948011
vt 0.145826 0.917073
vt 0.227619 0.927407
vt 0.222278 0.958191
vt 0.222272 0.927400
vt 0.819222 0.157060
vt 0.850146 0.195206
vt 0.819223 0.195214
vt 0.850145 0.157052
vt 0.729023 0.940397
vt 0.408864 0.891057
vt 0.414219 0.891058
vt 0.414213 0.929080
vt 0.408868 0.929070
vt 0.227614 0.958191
vt 0.151165 0.948020
vt 0.145837 0.834672
vt 0.171484 0.867849
vt 0.145825 0.867760
vt 0.171494 0.834764
vt 0.819108 0.204540
vt 0.844914 0.237559
vt 0.819098 0.237631
vt 0.844845 0.204615
vt 0.965792 0.632613
vt 0.967277 0.632571
vt 0.966579 0.668210
vt 0.968927 0.004705
vt 0.970491 0.004705
vt 0.969705 0.040313
vt 0.968830 0.403819
vt 0.970395 0.403819
vt 0.969609 0.439426
vt 0.356199 0.934762
vt 0.357684 0.934719
vt 0.356986 0.970358
vt 0.824350 0.932859
vt 0.825836 0.932817
vt 0.825138 0.968455
vt 0.095713 0.934861
vt 0.097278 0.934860
vt 0.096492 0.970468
vt 0.364425 0.891243
vt 0.364449 0.925305
vt 0.356030 0.925333
vt 0.356006 0.891271
vt 0.382063 0.891243
vt 0.373668 0.925333
vt 0.373644 0.891271
vt 0.382087 0.925305
vt 0.782808 0.240027
vt 0.781455 0.240053
vt 0.782123 0.215376
vt 0.030307 0.985148
vt 0.966361 0.455059
vt 0.966800 0.455056
vt 0.967246 0.577891
vt 0.006457 0.983730
vt 0.966361 0.578388
vt 0.416899 0.584919
vt 0.956359 0.983997
vt 0.957890 0.984786
vt 0.956543 0.985748
vt 0.392786 0.589477
vt 0.392584 0.588472
vt 0.416668 0.583774
vt 0.706105 0.240170
vt 0.704853 0.240031
vt 0.705599 0.215401
vt 0.729556 0.984242
vt 0.731048 0.985019
vt 0.729797 0.985936
vt 0.739309 0.240169
vt 0.738057 0.240031
vt 0.738867 0.215372
vt 0.772057 0.240027
vt 0.770705 0.240053
vt 0.771383 0.215379
vt 0.868155 0.801780
vt 0.747832 0.528250
vt 0.749657 0.528809
vt 0.171577 0.951677
vt 0.172229 0.951923
vt 0.171648 0.951384
vt 0.171932 0.976461
vt 0.170907 0.951923
vt 0.171313 0.951923
vt 0.749693 0.529285
vt 0.392451 0.465508
vt 0.170907 0.976460
vt 0.005943 0.984228
vt 0.004909 0.984305
vt 0.005615 0.984624
vt 0.059976 0.952910
vt 0.059735 0.829996
vt 0.061036 0.829997
vt 0.956294 0.578245
vt 0.955387 0.455305
vt 0.956436 0.455303
vt 0.955613 0.578143
vt 0.416369 0.584283
vt 0.044747 0.983901
vt 0.046227 0.984672
vt 0.044976 0.985589
vt 0.200471 0.595143
vt 0.200269 0.594138
vt 0.224353 0.589440
vt 0.224584 0.590585
vt 0.750555 0.240027
vt 0.749203 0.240053
vt 0.749870 0.215376
vt 0.728241 0.240170
vt 0.726989 0.240031
vt 0.727734 0.215401
vt 0.160938 0.986299
vt 0.878728 0.980633
vt 0.877694 0.980709
vt 0.878400 0.981028
vt 0.224054 0.589949
vt 0.200137 0.471174
vt 0.717173 0.240170
vt 0.715921 0.240031
vt 0.716731 0.215372
vt 0.059625 0.984298
vt 0.061116 0.985075
vt 0.059865 0.985992
vt 0.730048 0.974561
vt 0.729023 0.974561
vt 0.729023 0.950023
vt 0.729693 0.949778
vt 0.730345 0.950023
vt 0.729764 0.949484
vt 0.417536 0.723537
vt 0.729429 0.950024
vt 0.761306 0.240027
vt 0.759954 0.240053
vt 0.760632 0.215379
vt 0.759242 0.528250
vt 0.761066 0.528809
vt 0.966839 0.677463
vt 0.967724 0.800295
vt 0.966839 0.800791
vt 0.879242 0.980135
vt 0.761103 0.529285
vt 0.071044 0.952910
vt 0.070799 0.829996
vt 0.072110 0.829997
vt 0.956772 0.800648
vt 0.956091 0.800547
vt 0.955865 0.677709
vt 0.956914 0.677707
vt 0.967278 0.677460
vt 0.854269 0.665135
vt 0.854266 0.659638
vt 0.861252 0.659692
vt 0.715375 0.513275
vt 0.718930 0.517366
vt 0.714201 0.521787
vt 0.709657 0.516533
vt 0.799554 0.529453
vt 0.795484 0.529588
vt 0.795296 0.522685
vt 0.799554 0.522692
vt 0.808641 0.528022
vt 0.815404 0.524594
vt 0.815407 0.529827
vt 0.782914 0.529724
vt 0.777828 0.529756
vt 0.778146 0.522818
vt 0.782552 0.522798
vt 0.808641 0.522673
vt 0.736300 0.514480
vt 0.731028 0.521266
vt 0.729719 0.514443
vt 0.861161 0.665349
vt 0.737305 0.519753
vt 0.493773 0.214218
vt 0.509705 0.237230
vt 0.493773 0.237227
vt 0.509705 0.214221
vt 0.901202 0.637716
vt 0.901202 0.668150
vt 0.885218 0.668172
vt 0.752447 0.862778
vt 0.752447 0.893222
vt 0.729171 0.893208
vt 0.885217 0.637737
vt 0.729172 0.862764
vt 0.161809 0.877219
vt 0.161812 0.907653
vt 0.145828 0.907676
vt 0.854225 0.235072
vt 0.877504 0.204646
vt 0.877504 0.235092
vt 0.854226 0.204626
vt 0.145824 0.877242
vt 0.518790 0.214218
vt 0.534482 0.237243
vt 0.518790 0.237236
vt 0.534482 0.214226
vt 0.549499 0.230211
vt 0.544704 0.226348
vt 0.544585 0.218432
vt 0.551618 0.214274
vt 0.558650 0.218429
vt 0.558475 0.226357
vt 0.553836 0.230294
vt 0.578953 0.230211
vt 0.572869 0.229263
vt 0.568898 0.222520
vt 0.572819 0.215350
vt 0.580986 0.215433
vt 0.584755 0.222463
vt 0.582751 0.228113
vt 0.987389 0.858615
vt 0.987597 0.873634
vt 0.987181 0.873666
vt 0.987327 0.701738
vt 0.987585 0.716524
vt 0.986920 0.716523
vt 0.987800 0.118544
vt 0.988014 0.133386
vt 0.987514 0.133446
vt 0.984518 0.379582
vt 0.984156 0.394416
vt 0.983944 0.379433
vt 0.987919 0.587475
vt 0.987611 0.602344
vt 0.987341 0.587473
vt 0.186886 0.970371
vt 0.187192 0.985367
vt 0.186617 0.985352
vt 0.986850 0.538856
vt 0.987108 0.553642
vt 0.986443 0.553641
vt 0.987389 0.907254
vt 0.987597 0.922272
vt 0.987181 0.922304
vt 0.858332 0.972983
vt 0.857926 0.987727
vt 0.857668 0.972899
vt 0.867917 0.972821
vt 0.867709 0.987872
vt 0.867501 0.972853
vt 0.987327 0.677664
vt 0.987585 0.692450
vt 0.986920 0.692449
vt 0.987389 0.834296
vt 0.987597 0.849314
vt 0.987181 0.849346
vt 0.843130 0.969650
vt 0.846123 0.982288
vt 0.843143 0.982306
vt 0.846111 0.969632
vt 0.922417 0.432299
vt 0.925410 0.444940
vt 0.922430 0.444958
vt 0.925398 0.432281
vt 0.004599 0.952248
vt 0.007387 0.972833
vt 0.004631 0.972867
vt 0.794837 0.236060
vt 0.792049 0.215474
vt 0.794805 0.215440
vt 0.792081 0.236093
vt 0.007355 0.952214
vt 0.145871 0.957455
vt 0.148659 0.978040
vt 0.145903 0.978073
vt 0.806824 0.236060
vt 0.804036 0.215473
vt 0.806791 0.215440
vt 0.804068 0.236093
vt 0.148627 0.957421
vt 0.945960 0.799819
vt 0.944582 0.799818
vt 0.944582 0.677705
vt 0.946081 0.677706
vt 0.982162 0.439966
vt 0.981128 0.441694
vt 0.979914 0.439849
vt 0.930421 0.949983
vt 0.928965 0.950156
vt 0.928853 0.827911
vt 0.930421 0.827914
vt 0.946680 0.126904
vt 0.944931 0.126885
vt 0.944951 0.004708
vt 0.946413 0.004654
vt 0.932937 0.239836
vt 0.932428 0.237734
vt 0.934628 0.238317
vt 0.948892 0.443242
vt 0.947858 0.444970
vt 0.946644 0.443125
vt 0.050007 0.952068
vt 0.048552 0.952242
vt 0.048439 0.829997
vt 0.050007 0.829999
vt 0.945960 0.931508
vt 0.944582 0.931507
vt 0.944582 0.809394
vt 0.935364 0.444776
vt 0.934855 0.442675
vt 0.937055 0.443258
vt 0.949123 0.371744
vt 0.947393 0.249548
vt 0.948856 0.249494
vt 0.947373 0.371725
vt 0.946081 0.809395
vt 0.671621 0.465323
vt 0.700176 0.530422
vt 0.671642 0.530463
vt 0.914506 0.637726
vt 0.914530 0.666317
vt 0.910358 0.666348
vt 0.700155 0.465281
vt 0.171001 0.877129
vt 0.175166 0.942195
vt 0.170976 0.942176
vt 0.633785 0.465323
vt 0.662342 0.530425
vt 0.633806 0.530473
vt 0.662321 0.465275
vt 0.175191 0.877149
vt 0.922986 0.211388
vt 0.923010 0.239979
vt 0.918838 0.240010
vt 0.910334 0.637757
vt 0.004642 0.877745
vt 0.008746 0.942835
vt 0.004620 0.942815
vt 0.008771 0.877766
vt 0.918813 0.211419
vt 0.615763 0.214419
vt 0.628180 0.232156
vt 0.615767 0.232180
vt 0.034530 0.962769
vt 0.034500 0.975052
vt 0.028624 0.975050
vt 0.628177 0.214394
vt 0.637404 0.214218
vt 0.643346 0.231885
vt 0.637416 0.231854
vt 0.593983 0.214418
vt 0.606401 0.232155
vt 0.593987 0.232182
vt 0.606398 0.214391
vt 0.643364 0.214219
vt 0.065035 0.962284
vt 0.065039 0.974770
vt 0.059109 0.974742
vt 0.652449 0.214218
vt 0.658319 0.231770
vt 0.652449 0.231767
vt 0.658319 0.214221
vt 0.059104 0.962257
vt 0.028599 0.962739
vt 0.991574 0.370188
vt 0.004883 0.993709
vt 0.220760 0.452843
vt 0.867997 0.677739
vt 0.867855 0.678801
vt 0.097788 0.980256
vt 0.097644 0.979722
vt 0.994099 0.379337
vt 0.993997 0.379879
vt 0.993951 0.379755
vt 0.392373 0.980161
vt 0.392229 0.979627
vt 0.994099 0.388965
vt 0.993997 0.389507
vt 0.993951 0.389383
vt 0.417379 0.599496
vt 0.417237 0.600558
vt 0.189332 0.917405
vt 0.946262 0.381213
vt 0.946778 0.381311
vt 0.946677 0.429182
vt 0.987085 0.800508
vt 0.922357 0.249386
vt 0.934722 0.628443
vt 0.990016 0.062851
vt 0.433907 0.455798
vt 0.968810 0.394326
vt 0.233819 0.452354
vt 0.220760 0.255279
vt 0.222758 0.802447
vt 0.050007 0.974213
vt 0.211676 0.455415
vt 0.427030 0.894492
vt 0.028933 0.984435
vt 0.843192 0.678363
vt 0.417026 0.585219
vt 0.095693 0.981762
vt 0.843183 0.801686
vt 0.172548 0.951858
vt 0.006058 0.982412
vt 0.867423 0.678450
vt 0.392775 0.464884
vt 0.748859 0.528150
vt 0.748406 0.528172
vt 0.867875 0.802025
vt 0.159565 0.985586
vt 0.392574 0.600120
vt 0.224711 0.590885
vt 0.390278 0.981668
vt 0.392564 0.723442
vt 0.730664 0.949958
vt 0.878843 0.978817
vt 0.416805 0.600206
vt 0.200460 0.470549
vt 0.760270 0.528150
vt 0.759817 0.528172
vt 0.417257 0.723781
vt 0.915759 0.887089
vt 0.213183 0.605129
vt 0.914813 0.877557
vt 0.254717 0.455799
vt 0.907349 0.512105
vt 0.881629 0.189241
vt 0.881874 0.004542
vt 0.894393 0.004542
vt 0.974320 0.381513
vt 0.877663 0.677462
vt 0.890180 0.677460
vt 0.877417 0.677708
vt 0.890474 0.677754
vt 0.890224 0.862440
vt 0.894442 0.189535
vt 0.894687 0.189290
vt 0.044497 0.974459
vt 0.974572 0.107347
vt 0.974572 0.094533
vt 0.006280 0.982342
vt 0.749713 0.529957
vt 0.005323 0.984489
vt 0.878108 0.980894
vt 0.761124 0.529957
vt 0.879065 0.978746
s 1
usemtl public_002_baked
f 2/1/1 1/2/1 3/3/1
f 2/1/1 3/3/1 4/4/1
f 22/5/2 24/6/2 25/7/2
f 31/8/3 33/9/3 34/10/3
f 35/11/4 37/12/4 38/13/4
f 41/14/5 43/15/5 44/16/5
f 47/17/6 49/18/6 46/19/6
f 51/20/7 53/21/8 50/22/7
f 57/23/2 59/24/2 56/25/2
f 63/26/9 64/27/9 65/28/9
f 69/29/10 71/30/10 68/31/10
f 76/32/11 77/33/11 75/34/11
f 78/35/12 79/36/12 80/37/12
f 81/38/13 82/39/13 83/40/13
f 234/41/14 235/42/14 236/43/14
f 244/44/15 245/45/15 247/46/15
f 251/47/16 253/48/16 254/49/16
f 263/50/17 265/51/17 266/52/17
f 275/53/18 277/54/18 279/55/18
f 285/56/19 289/57/20 291/58/21
f 299/59/16 301/60/16 302/61/16
f 305/62/14 306/63/14 307/64/14
f 34/65/22 38/66/22 31/67/22
f 68/68/23 66/69/23 67/70/23
f 313/71/24 315/72/25 314/73/26
f 30/74/27 37/75/27 29/76/27
f 22/77/28 27/78/28 28/79/28
f 57/23/2 25/7/2 24/6/2
f 27/80/29 21/81/30 28/82/31
f 29/83/32 26/84/33 30/85/34
f 39/86/35 41/14/36 44/16/36
f 40/87/37 31/88/37 39/89/37
f 50/90/38 33/91/38 32/92/38
f 83/40/39 23/93/39 81/38/39
f 46/94/40 43/95/40 47/96/40
f 50/22/7 82/97/41 51/20/7
f 45/98/42 40/99/43 39/86/44
f 65/100/45 36/101/45 63/102/45
f 54/103/46 78/35/47 80/37/47
f 55/104/48 58/105/48 54/106/48
f 75/107/49 58/108/49 57/23/49
f 60/109/50 55/110/51 54/103/52
f 70/111/53 79/112/53 71/113/53
f 75/34/54 64/27/54 76/32/54
f 66/114/55 61/115/56 67/116/57
f 42/117/58 69/29/59 68/31/60
f 61/118/61 53/119/62 52/120/63
f 72/121/64 49/18/65 48/122/66
f 74/123/67 77/124/68 73/125/69
f 237/126/70 266/127/71 232/128/72
f 242/129/73 244/130/74 243/131/75
f 248/132/76 254/133/76 242/134/76
f 244/44/74 254/133/77 253/135/78
f 235/136/79 257/137/80 256/138/81
f 268/139/82 231/140/82 236/43/83
f 264/141/84 256/142/84 265/51/84
f 250/143/85 261/144/85 260/145/85
f 251/146/86 258/147/86 252/148/86
f 243/131/87 258/149/88 259/150/89
f 245/151/90 270/152/90 246/153/90
f 251/154/91 264/141/91 263/50/91
f 247/155/92 236/43/92 235/42/92
f 280/156/70 279/157/71 273/158/93
f 286/159/73 285/160/94 288/161/75
f 287/162/76 302/163/76 286/164/76
f 285/56/94 302/163/77 301/165/78
f 306/166/79 309/167/80 293/168/81
f 308/169/95 304/170/95 307/64/95
f 276/171/84 293/172/84 277/54/84
f 298/173/96 303/174/96 295/175/96
f 299/176/97 294/177/97 300/178/97
f 288/161/87 294/179/88 296/180/98
f 289/181/90 311/182/90 290/183/90
f 299/184/91 276/171/91 275/53/91
f 291/185/92 307/64/92 306/63/92
f 312/186/99 314/187/26 315/188/25
f 5/189/100 9/190/101 7/191/102
f 5/189/100 11/192/103 9/190/101
f 12/193/104 5/194/100 7/195/102
f 12/196/104 11/197/103 5/198/100
f 10/199/105 6/200/106 8/201/107
f 7/202/102 8/203/107 6/204/106
f 10/199/105 12/205/104 6/200/106
f 12/193/104 7/195/102 6/206/106
f 7/202/102 9/207/101 8/203/107
f 11/208/103 8/209/107 9/210/101
f 11/208/103 10/211/105 8/209/107
f 12/196/104 10/212/105 11/197/103
f 13/213/108 18/214/109 16/215/110
f 13/213/108 17/216/111 18/214/109
f 15/217/112 13/218/108 16/219/110
f 15/220/112 17/221/111 13/222/108
f 14/223/113 20/224/114 19/225/115
f 14/223/113 15/226/112 20/224/114
f 17/227/111 14/228/113 19/229/115
f 15/220/112 14/230/113 17/221/111
f 15/217/112 16/219/110 20/231/114
f 16/232/110 19/233/115 20/234/114
f 16/232/110 18/235/109 19/233/115
f 17/227/111 19/229/115 18/236/109
f 21/237/30 38/238/116 34/239/117
f 21/237/30 29/240/32 38/238/116
f 28/82/118 21/81/119 33/241/120
f 27/242/29 29/243/32 21/244/30
f 26/245/33 25/246/121 56/247/122
f 32/92/123 31/248/123 24/6/123
f 25/249/124 33/250/124 32/251/124
f 45/252/125 81/253/126 23/254/127
f 50/90/128 24/6/128 83/40/128
f 40/255/43 45/256/42 22/257/129
f 50/90/128 33/91/128 24/6/128
f 26/245/33 27/78/29 25/246/121
f 28/82/130 24/258/130 25/259/130
f 30/85/131 26/84/132 59/260/133
f 27/242/29 26/261/33 29/243/32
f 59/260/134 58/262/134 37/263/134
f 31/248/128 37/264/128 57/23/128
f 41/265/135 39/266/136 32/267/137
f 51/268/1 43/269/1 32/267/137
f 35/270/138 37/271/138 58/272/138
f 60/273/139 63/274/140 36/275/141
f 37/264/128 65/100/128 75/107/128
f 55/276/51 60/277/50 35/270/142
f 37/264/128 75/107/128 57/23/128
f 46/19/143 39/86/35 44/16/36
f 46/19/143 45/98/144 39/86/35
f 47/96/91 43/95/91 51/20/91
f 52/278/91 53/279/91 41/280/91
f 42/117/145 68/31/146 67/281/147
f 43/95/148 62/282/148 51/20/148
f 43/95/149 42/283/145 62/282/150
f 45/252/125 47/284/151 82/285/152
f 48/286/153 47/96/153 82/97/153
f 47/96/91 51/20/91 82/97/91
f 78/287/1 76/288/1 77/289/1
f 62/290/150 61/118/154 52/120/155
f 54/103/46 80/37/47 70/291/156
f 78/292/157 54/106/158 58/105/159
f 54/103/46 70/291/156 60/109/160
f 76/293/161 79/294/161 58/105/159
f 42/295/145 61/115/154 62/296/150
f 42/295/145 67/116/147 61/115/154
f 66/69/55 64/27/162 61/297/56
f 66/69/163 69/298/163 64/27/163
f 71/113/164 79/112/164 76/32/164
f 79/112/165 72/299/64 73/300/69
f 72/301/64 74/302/67 73/303/69
f 72/301/64 48/304/66 74/302/67
f 79/112/166 73/300/166 76/32/166
f 48/286/66 82/97/167 74/305/67
f 87/306/168 84/307/169 85/308/170
f 85/309/170 84/310/169 91/311/171
f 87/306/168 89/312/172 84/307/169
f 89/313/164 91/314/164 84/315/164
f 90/316/91 87/317/91 85/318/91
f 90/316/91 85/318/91 88/319/91
f 85/309/170 91/311/171 88/320/173
f 86/321/174 88/322/173 91/323/171
f 86/321/174 90/324/175 88/322/173
f 89/313/164 86/325/164 91/314/164
f 90/326/175 86/327/174 89/328/172
f 90/326/175 89/328/172 87/329/168
f 95/330/176 92/331/177 96/332/178
f 96/333/128 92/334/128 93/335/128
f 95/330/176 97/336/179 92/331/177
f 97/337/179 93/338/180 92/339/177
f 97/337/179 98/340/181 93/338/180
f 98/341/181 99/342/182 93/343/180
f 96/333/128 93/335/128 99/344/128
f 94/345/183 97/346/183 95/347/183
f 94/348/184 95/349/176 96/350/178
f 94/345/183 98/351/183 97/346/183
f 98/341/181 94/352/184 99/342/182
f 94/348/184 96/350/178 99/353/182
f 102/354/185 100/355/186 101/356/187
f 102/354/185 101/356/187 103/357/188
f 100/358/186 103/359/188 101/360/187
f 100/358/186 102/361/185 103/359/188
f 104/362/189 107/363/190 106/364/191
f 104/362/189 105/365/192 107/363/190
f 105/366/192 106/367/191 107/368/190
f 105/366/192 104/369/189 106/367/191
f 109/370/193 108/371/193 110/372/193
f 109/373/193 110/374/193 108/375/193
f 111/376/193 113/377/193 112/378/193
f 111/379/193 112/380/193 113/381/193
f 116/382/193 114/383/193 115/384/193
f 116/385/193 115/386/193 114/387/193
f 119/388/193 118/389/193 117/390/193
f 119/391/193 117/392/193 118/393/193
f 121/394/193 120/395/193 122/396/193
f 121/397/193 122/398/193 120/399/193
f 124/400/193 123/401/193 125/402/193
f 124/403/193 125/404/193 123/405/193
f 126/406/194 127/407/195 128/408/195
f 127/409/195 126/410/194 128/411/195
f 130/412/193 129/413/193 131/414/193
f 130/415/193 131/416/193 129/417/193
f 133/418/193 132/419/193 134/420/193
f 133/421/193 134/422/193 132/423/193
f 137/424/193 135/425/193 136/426/193
f 137/427/193 136/428/193 135/429/193
f 138/430/196 139/431/197 140/432/193
f 139/433/197 138/434/196 140/435/193
f 142/436/193 141/437/193 143/438/193
f 142/439/193 143/440/193 141/441/193
f 144/442/198 147/443/199 146/444/200
f 144/442/198 145/445/201 147/443/199
f 145/446/201 146/447/200 147/448/199
f 145/446/201 144/449/198 146/447/200
f 153/450/202 148/451/203 149/452/204
f 148/453/205 152/454/206 149/455/207
f 148/453/205 155/456/208 152/454/206
f 155/457/209 148/458/203 153/459/202
f 153/450/202 149/452/204 154/460/210
f 151/461/211 154/462/210 149/463/204
f 151/461/211 149/463/204 152/464/212
f 155/465/209 150/466/213 151/467/211
f 150/468/214 154/469/215 151/470/216
f 150/468/214 153/471/217 154/469/215
f 155/457/209 153/459/202 150/472/213
f 155/465/209 151/467/211 152/473/212
f 156/474/218 157/475/219 161/476/220
f 156/474/218 160/477/221 157/475/219
f 159/478/222 156/479/223 161/480/224
f 159/481/222 160/482/225 156/483/223
f 161/484/224 157/485/226 162/486/227
f 160/487/225 162/488/227 157/489/226
f 158/490/228 163/491/229 162/492/230
f 158/490/228 159/493/231 163/491/229
f 160/487/225 158/494/232 162/488/227
f 159/481/222 158/495/232 160/482/225
f 159/478/222 161/480/224 163/496/233
f 161/484/224 162/486/227 163/497/233
f 166/498/234 165/499/235 164/500/236
f 167/501/237 164/502/236 165/503/235
f 167/501/237 166/504/234 164/502/236
f 166/498/234 167/505/237 165/499/235
f 168/506/193 169/507/193 170/508/193
f 168/509/193 170/510/193 169/511/193
f 172/512/238 174/513/239 171/514/240
f 172/512/238 171/514/240 173/515/241
f 174/516/239 172/517/238 173/518/241
f 174/516/239 173/518/241 171/519/240
f 176/520/242 175/521/243 177/522/244
f 176/520/242 177/522/244 178/523/245
f 175/524/243 178/525/245 177/526/244
f 175/524/243 176/527/242 178/525/245
f 181/528/246 179/529/247 184/530/248
f 184/531/1 179/532/249 185/533/1
f 179/534/247 186/535/250 185/536/251
f 179/534/247 180/537/252 186/535/250
f 181/528/246 180/538/252 179/529/247
f 180/539/161 181/540/253 182/541/161
f 180/539/161 182/541/161 186/542/254
f 181/543/246 183/544/255 182/545/256
f 181/543/246 184/546/248 183/544/255
f 183/547/255 186/548/250 182/549/256
f 184/531/1 185/533/1 183/550/257
f 183/547/255 185/551/251 186/548/250
f 187/552/258 190/553/259 189/554/260
f 187/552/258 188/555/261 190/553/259
f 188/556/261 187/557/258 189/558/260
f 188/556/261 189/558/260 190/559/259
f 192/560/193 191/561/193 193/562/193
f 191/563/193 192/564/193 193/565/193
f 197/566/262 194/567/263 195/568/264
f 194/569/263 196/570/265 195/571/264
f 194/569/263 197/572/262 196/570/265
f 197/566/262 195/568/264 196/573/265
f 200/574/193 198/575/193 199/576/193
f 198/577/193 200/578/193 199/579/193
f 204/580/266 202/581/267 201/582/268
f 201/583/268 202/584/267 203/585/269
f 201/583/268 203/585/269 204/586/266
f 204/580/266 203/587/269 202/581/267
f 205/588/1 208/589/1 212/590/257
f 205/588/1 210/591/249 208/589/1
f 211/592/246 205/593/248 212/594/255
f 211/595/246 210/596/247 205/597/248
f 212/598/255 207/599/250 206/600/256
f 209/601/161 206/602/161 207/603/254
f 209/601/161 211/604/253 206/602/161
f 211/592/246 212/594/255 206/605/256
f 210/606/247 209/607/252 207/608/250
f 210/606/247 207/608/250 208/609/251
f 212/598/255 208/610/251 207/599/250
f 211/595/246 209/611/252 210/596/247
f 215/612/270 213/613/271 214/614/260
f 215/612/270 216/615/272 213/613/271
f 216/616/272 214/617/260 213/618/271
f 216/616/272 215/619/270 214/617/260
f 217/620/193 218/621/193 219/622/193
f 218/623/193 217/624/193 219/625/193
f 222/626/193 220/627/193 221/628/193
f 220/629/193 222/630/193 221/631/193
f 223/632/193 225/633/193 224/634/193
f 225/635/193 223/636/193 224/637/193
f 229/638/268 226/639/267 228/640/269
f 229/638/268 228/640/269 227/641/266
f 227/642/266 226/643/267 229/644/268
f 227/642/266 228/645/269 226/643/267
f 230/646/273 238/647/274 232/648/275
f 232/128/72 266/127/71 233/649/276
f 235/650/277 256/651/278 269/652/279
f 235/136/280 262/653/281 257/137/282
f 268/139/283 236/43/284 247/155/285
f 235/650/286 269/652/286 246/654/286
f 265/51/287 266/52/287 237/655/287
f 230/656/273 239/657/288 238/658/274
f 238/659/274 239/660/288 233/661/289
f 239/662/288 230/663/273 233/664/289
f 240/665/290 255/666/291 241/667/292
f 255/668/291 240/669/290 244/670/293
f 240/671/290 241/672/292 242/673/294
f 244/44/74 242/134/73 254/133/77
f 243/131/295 247/155/295 245/674/295
f 258/147/296 247/675/296 245/151/296
f 268/139/283 247/155/285 259/150/89
f 260/676/297 245/151/298 270/152/299
f 254/677/300 248/678/300 252/679/300
f 241/680/292 244/681/293 253/682/301
f 261/683/302 251/146/302 252/148/302
f 256/142/278 250/143/303 260/145/304
f 260/676/297 252/148/305 258/147/306
f 256/142/278 264/141/307 250/143/303
f 263/50/308 258/684/88 251/154/309
f 241/680/292 255/685/291 244/681/293
f 257/137/282 262/653/281 267/686/310
f 267/686/311 264/687/311 265/688/311
f 257/137/80 265/688/312 256/138/81
f 256/689/278 260/690/304 269/691/279
f 262/692/313 259/693/89 258/694/88
f 262/692/313 268/695/283 259/693/89
f 263/50/308 262/696/313 258/684/88
f 272/697/314 281/698/288 271/699/274
f 271/700/274 281/701/288 278/702/289
f 277/54/287 279/55/287 280/703/287
f 272/704/314 271/705/274 273/706/275
f 281/707/288 272/708/314 278/709/289
f 273/158/93 279/157/71 278/710/315
f 292/711/311 276/712/311 277/713/311
f 275/53/308 274/714/316 294/715/88
f 309/167/80 277/713/312 293/168/81
f 293/172/317 276/171/318 298/173/303
f 275/53/308 294/715/88 299/184/309
f 282/716/291 283/717/319 285/718/293
f 283/719/319 282/720/291 284/721/292
f 284/722/292 282/723/291 285/724/293
f 302/725/300 287/726/300 300/727/300
f 288/161/295 291/185/295 289/728/295
f 284/722/292 285/724/293 301/729/301
f 283/730/319 284/731/292 286/732/294
f 285/56/94 286/164/73 302/163/77
f 294/177/320 291/733/320 289/181/320
f 308/169/283 291/185/285 296/180/98
f 295/734/321 289/181/298 311/182/322
f 308/169/283 307/64/323 291/185/285
f 306/735/324 310/736/324 290/737/324
f 309/167/282 274/738/281 292/711/310
f 293/172/317 298/173/303 295/175/325
f 295/734/321 300/178/326 294/177/327
f 303/739/328 299/176/328 300/178/328
f 293/740/317 295/741/325 310/742/329
f 274/743/316 308/744/283 296/745/98
f 274/743/316 296/745/98 294/746/88
f 306/735/330 293/747/317 310/736/329
f 306/166/280 274/738/281 309/167/282
f 322/748/331 316/749/332 323/750/333
f 316/751/332 322/752/331 317/753/334
f 316/751/332 317/753/334 318/754/335
f 316/755/332 318/756/335 320/757/336
f 316/755/332 320/757/336 323/758/333
f 317/759/334 319/760/337 321/761/338
f 318/762/335 317/763/334 321/764/338
f 318/762/335 321/764/338 320/765/336
f 317/759/334 322/766/331 319/760/337
f 320/767/336 319/768/337 323/769/333
f 322/748/331 323/750/333 319/770/337
f 320/767/336 321/771/338 319/768/337
f 324/772/339 331/773/340 325/774/341
f 324/772/339 326/775/342 331/773/340
f 330/776/343 326/777/342 324/778/339
f 328/779/344 324/780/339 325/781/341
f 330/776/343 324/778/339 328/782/344
f 328/779/344 325/781/341 329/783/345
f 329/784/345 325/785/341 331/786/340
f 326/787/342 327/788/346 331/789/340
f 326/787/342 330/790/343 327/788/346
f 329/784/345 331/786/340 327/791/346
f 330/792/343 329/793/345 327/794/346
f 330/792/343 328/795/344 329/793/345
f 334/796/347 338/797/348 332/798/349
f 334/796/347 332/798/349 333/799/350
f 334/796/347 333/799/350 335/800/351
f 334/796/347 335/800/351 336/801/352
f 334/796/347 336/801/352 337/802/353
f 337/803/353 336/804/352 335/805/351
f 337/803/353 335/805/351 333/806/350
f 337/803/353 333/806/350 332/807/349
f 337/803/353 332/807/349 338/808/348
f 337/803/353 338/808/348 334/809/347
f 339/810/193 340/811/193 341/812/193
f 339/813/193 341/814/193 340/815/193
f 344/816/164 342/817/164 343/818/164
f 342/819/164 344/820/164 343/821/164
f 345/822/354 347/823/355 346/824/354
f 347/825/355 345/826/354 346/827/354
f 349/828/193 348/829/193 350/830/193
f 349/831/193 350/832/193 348/833/193
f 352/834/193 353/835/193 351/836/193
f 351/837/193 353/838/193 352/839/193
f 355/840/193 354/841/193 356/842/193
f 355/843/193 356/844/193 354/845/193
f 357/846/356 360/847/357 359/848/358
f 357/846/356 358/849/359 360/847/357
f 358/850/359 359/851/358 360/852/357
f 358/850/359 357/853/356 359/851/358
f 363/854/360 364/855/361 361/856/362
f 361/857/362 362/858/363 363/859/360
f 361/857/362 364/860/361 362/858/363
f 363/854/360 362/861/363 364/855/361
f 366/862/360 368/863/364 365/864/362
f 365/865/362 367/866/363 366/867/360
f 365/865/362 368/868/364 367/866/363
f 366/862/360 367/869/363 368/863/364
f 370/870/365 369/871/366 374/872/367
f 370/870/365 374/872/367 373/873/368
f 369/874/366 370/875/365 371/876/369
f 369/877/366 371/878/369 372/879/370
f 369/877/366 372/879/370 374/880/367
f 371/881/369 370/882/365 373/883/368
f 371/881/369 373/883/368 372/884/370
f 372/885/370 373/886/368 374/887/367
f 375/888/366 378/889/365 376/890/369
f 375/891/366 376/892/369 377/893/370
f 375/891/366 377/893/370 380/894/367
f 378/895/365 375/896/366 380/897/367
f 377/898/370 379/899/368 380/900/367
f 376/901/369 379/902/368 377/903/370
f 376/901/369 378/904/365 379/902/368
f 378/895/365 380/897/367 379/905/368
f 387/906/371 381/907/372 385/908/373
f 385/909/373 381/910/372 388/911/374
f 387/906/371 386/912/375 381/907/372
f 386/913/375 388/914/374 381/915/372
f 382/916/376 383/917/377 388/918/374
f 382/916/376 384/919/378 383/917/377
f 386/913/375 382/920/376 388/914/374
f 384/921/378 382/922/376 386/923/375
f 385/909/373 388/911/374 383/924/377
f 384/925/378 385/926/373 383/927/377
f 384/925/378 387/928/371 385/926/373
f 384/921/378 386/923/375 387/929/371
f 396/930/379 389/931/380 393/932/381
f 393/933/381 389/934/380 395/935/382
f 396/930/379 394/936/383 389/931/380
f 394/937/383 395/938/382 389/939/380
f 390/940/384 392/941/385 395/942/382
f 390/940/384 391/943/386 392/941/385
f 394/937/383 390/944/384 395/938/382
f 391/945/386 390/946/384 394/947/383
f 391/948/386 393/949/381 392/950/385
f 391/948/386 396/951/379 393/949/381
f 391/945/386 394/947/383 396/952/379
f 393/933/381 395/935/382 392/953/385
f 22/5/2 23/93/2 24/6/2
f 31/8/387 32/954/387 33/9/387
f 35/11/388 36/955/388 37/12/388
f 41/14/389 42/117/145 43/15/149
f 47/17/390 48/122/390 49/18/390
f 51/20/8 52/956/8 53/21/8
f 57/23/391 58/108/391 59/24/391
f 63/26/392 61/297/56 64/27/162
f 69/29/393 70/291/393 71/30/393
f 76/32/394 73/300/394 77/33/394
f 78/35/395 72/121/64 79/36/165
f 81/38/396 74/123/67 82/39/167
f 236/43/397 231/140/397 234/41/397
f 231/140/398 232/957/399 234/41/400
f 232/957/72 233/958/276 234/41/401
f 247/46/402 243/959/402 244/44/402
f 245/45/403 246/960/403 247/46/403
f 249/961/404 250/962/404 251/47/404
f 251/47/164 252/963/164 253/48/164
f 254/49/405 249/961/405 251/47/405
f 266/52/406 262/696/407 263/50/407
f 263/50/91 264/141/91 265/51/91
f 265/51/408 233/661/276 266/52/71
f 279/55/409 274/714/410 275/53/407
f 275/53/91 276/171/91 277/54/91
f 277/54/411 278/702/315 279/55/71
f 291/58/412 288/964/412 285/56/412
f 289/57/403 290/965/403 291/58/403
f 297/966/413 298/967/413 299/59/413
f 299/59/164 300/968/164 301/60/164
f 302/61/414 297/966/414 299/59/414
f 307/64/415 304/170/415 305/62/415
f 304/170/416 273/969/417 305/62/418
f 273/969/93 278/970/315 305/62/419
f 34/65/420 35/971/420 38/66/420
f 68/68/421 71/113/421 66/69/421
f 313/972/24 312/973/99 315/974/25
f 30/74/422 38/975/422 37/75/422
f 34/239/423 33/976/423 21/237/423
f 22/77/424 25/246/424 27/78/424
f 26/245/33 56/247/122 59/977/122
f 57/23/2 56/25/2 25/7/2
f 40/87/425 32/978/425 31/88/425
f 50/90/128 53/979/128 33/91/128
f 45/98/144 46/19/143 49/18/426
f 45/252/125 23/254/127 22/980/427
f 83/40/2 24/6/2 23/93/2
f 46/94/5 44/981/5 43/95/5
f 50/22/13 83/982/13 82/97/13
f 60/109/160 70/291/156 69/29/428
f 36/983/429 35/270/429 60/277/429
f 65/100/430 37/264/430 36/101/430
f 55/104/431 59/984/431 58/105/431
f 75/107/432 77/124/432 58/108/432
f 70/111/12 80/985/12 79/112/12
f 75/34/9 65/28/9 64/27/9
f 42/117/58 41/14/58 69/29/59
f 61/118/61 63/986/61 53/119/62
f 52/956/155 51/20/433 62/282/150
f 72/121/64 78/35/434 49/18/65
f 74/123/67 81/38/435 77/124/68
f 237/126/436 262/987/436 266/127/436
f 230/988/273 234/41/437 233/958/289
f 237/655/438 232/989/275 238/659/274
f 238/659/274 233/661/289 265/51/439
f 248/132/440 249/990/440 254/133/440
f 240/991/290 245/674/441 244/130/293
f 248/678/442 242/992/294 241/680/292
f 253/682/301 252/679/443 241/680/292
f 235/136/444 234/993/444 257/137/444
f 268/139/283 262/994/313 231/140/445
f 250/143/446 249/995/446 261/144/446
f 243/131/447 247/155/447 258/149/447
f 270/152/299 269/996/448 260/676/297
f 245/151/449 269/997/449 270/152/449
f 251/154/91 250/143/91 264/141/91
f 247/155/450 246/998/450 236/43/450
f 280/156/451 274/999/451 279/157/451
f 272/1000/314 305/62/437 278/970/289
f 280/703/438 273/1001/275 271/700/274
f 271/700/274 278/702/289 277/54/439
f 287/162/440 297/1002/440 302/163/440
f 283/1003/319 289/728/441 285/160/293
f 287/726/452 286/1004/294 284/722/292
f 301/729/301 300/727/443 284/722/292
f 306/166/453 305/1005/453 309/167/453
f 308/169/283 274/1006/316 304/170/445
f 298/173/454 297/1007/454 303/174/454
f 288/161/447 291/185/447 294/179/447
f 295/734/325 311/182/455 310/1008/329
f 289/181/456 310/1009/456 311/182/456
f 299/184/91 298/173/91 276/171/91
f 291/185/450 290/1010/450 307/64/450
f 312/186/99 313/1011/24 314/187/26
f 24/6/457 33/91/457 32/92/457
f 31/248/128 57/23/128 24/6/128
f 40/255/458 22/257/458 25/249/458
f 25/249/9 24/1012/9 33/250/9
f 32/251/459 40/255/459 25/249/459
f 28/82/118 33/241/120 24/258/91
f 37/263/164 30/85/131 59/260/133
f 58/262/460 57/1013/460 37/263/460
f 31/248/461 38/1014/461 37/264/461
f 41/265/135 32/267/137 43/269/1
f 32/267/137 53/1015/1 51/268/1
f 58/272/462 55/276/51 35/270/142
f 53/279/161 69/1016/161 41/280/161
f 43/1017/161 51/1018/161 41/280/161
f 51/1018/463 52/278/463 41/280/463
f 81/253/126 45/252/125 82/285/152
f 45/252/125 49/1019/464 47/284/151
f 82/1020/1 47/1021/1 81/1022/1
f 81/1022/1 47/1021/1 49/1023/1
f 49/1023/1 77/289/1 81/1022/1
f 77/289/1 49/1023/1 78/287/1
f 79/1024/1 76/288/1 78/287/1
f 64/1025/161 69/1016/161 63/1026/161
f 69/1016/161 53/279/161 63/1026/161
f 78/292/157 58/105/159 79/294/161
f 58/105/159 77/1027/161 76/293/161
f 63/274/140 60/273/139 64/1028/465
f 60/273/139 69/1029/466 64/1028/465
f 66/69/467 68/68/467 69/298/467
f 71/113/164 76/32/164 64/27/164
f 71/113/1 64/27/1 69/298/1
f 234/41/468 230/988/468 231/140/468
f 230/988/273 232/957/275 231/140/469
f 235/136/470 236/1030/470 262/653/470
f 237/655/438 238/659/274 265/51/439
f 240/991/290 242/129/294 243/131/471
f 245/674/472 240/991/472 243/131/472
f 245/151/298 260/676/297 258/147/306
f 248/678/442 241/680/292 252/679/473
f 253/682/474 254/677/474 252/679/474
f 252/148/475 260/676/475 261/683/475
f 261/683/476 250/1031/476 251/146/476
f 265/688/477 257/137/477 267/686/477
f 267/686/478 263/1032/478 264/687/478
f 280/703/438 271/700/274 277/54/439
f 277/713/477 309/167/477 292/711/477
f 292/711/478 275/1033/478 276/712/478
f 305/62/479 272/1000/479 304/170/479
f 272/1000/314 273/969/275 304/170/469
f 287/726/452 284/722/292 300/727/473
f 301/729/474 302/725/474 300/727/474
f 283/1003/319 286/159/294 288/161/471
f 289/728/472 283/1003/472 288/161/472
f 289/181/298 295/734/321 294/177/327
f 300/178/475 295/734/475 303/739/475
f 303/739/476 298/1034/476 299/176/476
f 306/166/470 307/1035/470 274/738/470
