# Blender 4.5.0
# www.blender.org
mtllib public_006.lod2.mtl
o public_006
v -2.634712 2.966641 -2.813270
v 2.599699 2.966641 -2.813270
v 3.200000 0.014690 -3.212646
v -3.197585 0.694144 -1.012323
v 3.200000 -0.000000 3.220134
v -3.013099 5.420938 -1.056977
v 2.201639 7.090977 0.996339
v 0.574707 0.098245 -2.673303
v -2.850837 6.063600 -2.630569
v -2.847990 5.952696 -2.632526
v -2.854477 5.946137 -2.626041
v -2.857955 5.954050 -2.632526
v -2.854477 5.952696 -2.632526
v -2.854477 5.945691 2.640006
v -2.857955 6.301826 2.640013
v -2.854477 5.946137 2.633529
v -2.860964 5.939578 2.640013
v 2.815825 6.063600 2.638057
v -2.847518 6.064527 2.639829
v -2.854477 6.060778 2.633529
v 2.813131 6.065297 -2.630413
v 2.819465 6.060778 -2.626041
v 2.819465 5.952696 -2.632526
v 2.823058 5.952696 -2.632526
v 2.819465 5.946137 -2.626041
v 2.812978 5.952696 -2.632526
v 2.812978 5.952696 2.640013
v 2.819465 5.946137 2.633529
v 2.822942 5.954050 2.640013
v 2.819465 5.952696 2.640013
v -3.014307 6.309737 2.640013
v -3.022080 6.309737 2.633529
v -3.014307 6.309086 2.640013
v -3.007819 6.309737 2.633529
v -2.858070 6.303178 -2.632526
v -2.860964 6.309737 -2.626041
v -2.854477 6.303178 -2.626041
v 2.972807 6.309737 2.640013
v 3.012825 6.335511 2.651006
v 2.979294 6.303178 2.640013
v 2.972807 6.309737 2.633529
v 2.822811 6.306436 -2.631131
v 2.972807 5.946137 2.633529
v 2.979294 5.953997 2.640013
v 1.036369 5.414379 3.087886
v 2.971520 5.946137 2.640013
v 2.824421 6.308210 2.637567
v 2.819465 6.303178 2.633529
v -3.014307 6.303178 -2.788708
v 2.972807 6.309737 -2.626041
v 2.979294 6.301877 -2.632526
v 2.979294 5.952696 -2.788708
v 2.971520 6.309737 -2.632526
v 2.979294 5.952696 -2.635408
v 2.972807 5.946137 -2.626041
v 2.972807 5.946137 -2.632526
v -3.007819 6.309737 -2.626041
v -3.014307 6.303178 -2.632526
v -3.020794 6.309737 -2.639011
v -3.007819 5.946137 -2.626041
v -3.014307 5.953997 -2.632526
v -3.006533 5.946137 -2.632526
v -3.007496 6.309489 2.796404
v -3.014307 6.301826 2.796311
v -3.014307 5.952696 2.642895
v -3.007819 5.946137 2.633529
v -3.007819 5.946137 2.640013
v -0.976138 0.812649 -2.679958
v -2.680681 2.437401 -2.607847
v -2.680681 0.738585 -2.597288
v -1.451176 2.370539 -2.691272
v -2.032041 0.774944 -2.701978
v -2.579570 2.370539 -2.693610
v -2.579771 2.428316 -2.722399
v -2.581755 0.771924 -2.752943
v -2.577785 0.771924 -2.691854
v -2.015373 2.428316 -2.722399
v -2.017358 0.771924 -2.752943
v -2.013388 0.771924 -2.691854
v -1.450976 2.428316 -2.722399
v -1.452960 0.771924 -2.752943
v -1.448991 0.771924 -2.691854
v -2.700987 0.730018 -2.862326
v -2.700988 0.739070 -2.622414
v -1.381050 0.741103 -2.670977
v -1.456315 2.363336 -2.679959
v 0.248229 0.738585 -2.607847
v 0.248228 2.437401 -2.597288
v -0.433748 0.774944 -2.701978
v 0.147118 2.370539 -2.691272
v -0.981277 2.370539 -2.693610
v -0.981477 2.428316 -2.722399
v -0.983462 0.771924 -2.752943
v -0.979492 0.771924 -2.691854
v -0.417080 2.428316 -2.722399
v -0.419064 0.771924 -2.752943
v -0.415095 0.771924 -2.691854
v 0.147318 2.428316 -2.722399
v 0.145333 0.771924 -2.752943
v 0.149303 0.771924 -2.691854
v -1.102694 0.730018 -2.862326
v -1.102694 0.739070 -2.622414
v 0.217243 0.741103 -2.670977
v 0.119847 1.333100 -2.888659
v 1.846522 0.738585 -2.607847
v 1.846522 2.437401 -2.597288
v 1.745411 2.370539 -2.691272
v 1.164546 0.774944 -2.701978
v 0.617017 2.370539 -2.693610
v 0.614832 0.771924 -2.752943
v 0.616817 2.428316 -2.722399
v 0.618801 0.771924 -2.691854
v 1.181214 2.428316 -2.722399
v 1.179229 0.771924 -2.752943
v 1.183199 0.771924 -2.691854
v 1.743626 0.771924 -2.752943
v 1.745611 2.428316 -2.722399
v 1.747596 0.771924 -2.691854
v 1.866828 0.739070 -2.862326
v 0.546891 0.741103 -2.670977
v 1.866828 0.730018 -2.622414
v -2.960890 0.774944 2.183156
v -2.934021 2.288373 1.027865
v -2.944752 0.736114 1.027865
v -3.038831 0.774944 1.618146
v -3.030477 2.219022 2.075581
v -3.028104 2.219022 1.127385
v -3.059258 2.276816 2.075812
v -3.089813 0.771924 2.077796
v -3.028703 0.771924 2.073828
v -3.089813 2.262662 1.599499
v -3.028703 2.262662 1.603467
v -3.059258 0.757770 1.601483
v -3.089813 2.262662 1.125170
v -3.059258 0.757770 1.127155
v -3.028703 2.262662 1.129139
v -2.958474 0.730123 1.005982
v -3.191324 0.696768 2.190650
v -3.200000 0.738966 1.005982
v -2.961080 0.774944 -2.175706
v -2.944751 2.288373 -1.020377
v -2.934021 0.736113 -1.020377
v -3.030477 2.219022 -1.119897
v -3.028105 2.219022 -2.068093
v -3.038831 0.774944 -1.577332
v -3.089813 2.262662 -1.121650
v -3.059258 0.757770 -1.119666
v -3.028703 2.262662 -1.117682
v -3.089813 0.771924 -1.592011
v -3.028703 0.771924 -1.595979
v -3.059258 2.276816 -1.593995
v -3.059258 2.276816 -2.068324
v -3.089813 0.771924 -2.066339
v -3.028703 0.771924 -2.070308
v -3.191324 0.696768 -1.004829
v -2.958474 0.730123 -2.189497
v -3.200000 0.738965 -2.189497
v 1.006971 0.736114 3.024840
v 2.162661 0.774944 3.040973
v 1.006970 2.288373 3.014114
v 2.055050 2.219022 3.110535
v 1.106525 2.219022 3.108164
v 1.597456 0.774944 3.118887
v 2.057266 0.771924 3.169852
v 2.053296 0.771924 3.108763
v 2.055281 2.276816 3.139307
v 1.580787 2.276816 3.139307
v 1.582772 0.771924 3.169852
v 1.578803 0.771924 3.108763
v 1.106294 2.276816 3.139307
v 1.108279 0.771924 3.169852
v 1.104309 0.771924 3.108763
v 2.176496 0.730123 3.280000
v 2.176496 0.738966 3.038558
v 0.991417 0.772320 3.271327
v -1.041982 2.288373 3.024840
v -2.197712 0.774944 3.041163
v -1.041983 0.736114 3.014114
v -1.599131 0.774944 3.118887
v -2.090062 2.219022 3.108164
v -1.141537 2.219022 3.110535
v -1.141306 2.276816 3.139307
v -1.139321 0.771924 3.169852
v -1.143291 0.771924 3.108763
v -1.617785 0.771924 3.108763
v -1.615800 2.276816 3.139307
v -1.613815 0.771924 3.169852
v -2.090293 2.276816 3.139307
v -2.088308 0.771924 3.169852
v -2.092278 0.771924 3.108763
v -2.211508 0.738966 3.280000
v -1.026429 0.696768 3.271327
v -2.211508 0.730123 3.038558
v 2.909739 0.736113 -1.020377
v 2.899009 2.288373 -1.020377
v 2.925877 0.774944 -2.175667
v 2.995465 2.219022 -2.068093
v 3.003819 0.774944 -1.610657
v 2.993092 2.219022 -1.119897
v 3.024246 2.276816 -2.068324
v 3.054801 0.771924 -2.070308
v 2.993691 0.771924 -2.066339
v 3.024246 2.276816 -1.593995
v 2.993691 0.771924 -1.592011
v 3.054801 0.771924 -1.595979
v 2.993691 2.262662 -1.121650
v 3.054801 2.262662 -1.117682
v 3.024246 0.757770 -1.119666
v 3.164988 0.730122 -2.189497
v 3.156312 0.772320 -1.004829
v 2.923461 0.738965 -2.189497
v 2.926068 0.774944 2.183194
v 2.909739 2.288373 1.027865
v 2.899009 0.736113 1.027866
v 2.995465 2.219022 1.127385
v 2.993092 2.219022 2.075581
v 3.003819 0.774944 1.584821
v 3.054801 2.262662 1.129139
v 3.024246 0.757770 1.127154
v 2.993691 2.262662 1.125170
v 3.054801 2.262662 1.603467
v 3.024246 0.757770 1.601483
v 2.993691 2.262662 1.599499
v 3.054801 0.771924 2.073828
v 2.993691 0.771924 2.077796
v 3.024246 2.276816 2.075812
v 2.923461 0.730123 2.196985
v 3.156362 0.772169 1.012317
v 3.164988 0.738966 2.196985
v -0.976138 3.943645 -2.679959
v -2.680681 5.568397 -2.607848
v -2.680681 3.869581 -2.597288
v -2.032041 3.905940 -2.701978
v -2.579570 5.501535 -2.693610
v -1.451176 5.501535 -2.691272
v -2.579771 5.559312 -2.722399
v -2.581755 3.902920 -2.752943
v -2.577785 3.902920 -2.691854
v -2.015373 5.559312 -2.722399
v -2.013388 3.902920 -2.691854
v -2.017358 3.902920 -2.752943
v -1.450976 5.559312 -2.722399
v -1.452960 3.902920 -2.752943
v -1.448991 3.902920 -2.691854
v -1.381050 3.872098 -2.670977
v -2.700987 3.861014 -2.862327
v -2.700987 3.870065 -2.622413
v -1.456315 5.494332 -2.679959
v 0.248228 5.568397 -2.597287
v 0.248229 3.869581 -2.607847
v 0.147118 5.501535 -2.691272
v -0.981277 5.501535 -2.693610
v -0.433748 3.905940 -2.701978
v -0.981477 5.559312 -2.722399
v -0.983462 3.902920 -2.752943
v -0.979492 3.902920 -2.691854
v -0.419064 3.902920 -2.752943
v -0.417080 5.559312 -2.722399
v -0.415095 3.902920 -2.691854
v 0.145333 3.902920 -2.752943
v 0.147318 5.559312 -2.722399
v 0.149303 3.902920 -2.691854
v 0.217243 3.872098 -2.670977
v -1.102693 3.861014 -2.862327
v -1.102693 3.870065 -2.622413
v 1.846522 3.869581 -2.607847
v 0.141979 5.494332 -2.679959
v 1.846522 5.568397 -2.597287
v 0.617017 5.501535 -2.693610
v 1.164546 3.905940 -2.701978
v 1.745411 5.501535 -2.691272
v 0.614832 3.902920 -2.752943
v 0.616817 5.559312 -2.722399
v 0.618801 3.902920 -2.691854
v 1.181214 5.559312 -2.722399
v 1.179229 3.902920 -2.752943
v 1.183199 3.902920 -2.691854
v 1.745611 5.559312 -2.722399
v 1.743626 3.902920 -2.752943
v 1.747596 3.902920 -2.691854
v 0.546891 3.872098 -2.670977
v 1.866827 3.861014 -2.622413
v 1.866827 3.870065 -2.862327
v -2.960890 3.905940 2.183155
v -2.944752 3.867109 1.027865
v -2.934021 5.419368 1.027865
v -3.030477 5.350018 2.075581
v -3.038831 3.905940 1.618146
v -3.028104 5.350018 1.127385
v -3.089813 3.902920 2.077796
v -3.059258 5.407812 2.075812
v -3.028703 3.902920 2.073828
v -3.028703 5.393657 1.603467
v -3.089813 5.393657 1.599499
v -3.059258 3.888766 1.601484
v -3.028703 3.902920 1.125170
v -3.059258 5.407812 1.127154
v -3.089813 3.902920 1.129139
v -2.958474 3.869961 2.196984
v -3.191324 3.903316 1.012317
v -3.200000 3.861119 2.196984
v -2.944752 5.419368 -1.020377
v -2.961080 3.905940 -2.175706
v -2.934021 3.867109 -1.020377
v -3.030477 5.350018 -1.119897
v -3.038831 3.905940 -1.577333
v -3.028104 5.350018 -2.068093
v -3.089813 3.902920 -1.117682
v -3.059258 5.407812 -1.119667
v -3.028703 3.902920 -1.121650
v -3.089813 3.902920 -1.592011
v -3.028703 3.902920 -1.595979
v -3.059258 5.407812 -1.593995
v -3.059258 5.407812 -2.068324
v -3.028703 3.902920 -2.070308
v -3.089813 3.902920 -2.066340
v -3.200000 3.869960 -2.189496
v -3.191324 3.827764 -1.004829
v -2.958474 3.861119 -2.189496
v 1.006970 5.419368 3.014113
v 1.006970 3.867110 3.024840
v 2.162661 3.905940 3.040972
v 1.106525 5.350018 3.108163
v 1.597456 3.905940 3.118887
v 2.055050 5.350018 3.110535
v 2.057266 5.393657 3.108763
v 2.053296 5.393658 3.169852
v 2.055281 3.888766 3.139307
v 1.580788 3.888766 3.139307
v 1.582772 5.393657 3.108763
v 1.578803 5.393658 3.169852
v 1.104309 5.393658 3.169851
v 1.106294 3.888766 3.139307
v 1.108279 5.393657 3.108763
v 0.991417 3.903316 3.271327
v 2.176495 3.869961 3.038557
v 2.176495 3.861119 3.280000
v -1.041983 3.867110 3.014114
v -1.041983 5.419368 3.024840
v -2.197712 3.905940 3.041163
v -1.141537 5.350018 3.110535
v -2.090062 5.350018 3.108163
v -1.599131 3.905940 3.118887
v -1.143291 5.393658 3.169851
v -1.141306 3.888766 3.139307
v -1.139322 5.393657 3.108763
v -1.617785 5.393658 3.169852
v -1.615800 3.888766 3.139307
v -1.613815 5.393657 3.108763
v -2.092278 5.393658 3.169851
v -2.090293 3.888766 3.139307
v -2.088308 5.393657 3.108763
v -1.026429 3.827764 3.271327
v -2.211507 3.861120 3.038557
v -2.211507 3.869961 3.280000
v 2.899009 5.419368 -1.020377
v 2.925877 3.905940 -2.175667
v 2.909739 3.867109 -1.020377
v 2.995465 5.350018 -2.068093
v 2.993092 5.350018 -1.119897
v 3.003819 3.905940 -1.610658
v 3.024246 5.407812 -2.068324
v 3.054801 3.902920 -2.070308
v 2.993691 3.902920 -2.066340
v 3.024246 5.407812 -1.593995
v 3.054801 3.902920 -1.595979
v 2.993691 3.902920 -1.592011
v 3.054801 3.902920 -1.121650
v 3.024246 5.407812 -1.119666
v 2.993691 3.902920 -1.117682
v 3.156312 3.903316 -1.004829
v 2.923461 3.869960 -2.189496
v 3.164988 3.861119 -2.189496
v 2.909739 5.419368 1.027865
v 2.899009 3.867109 1.027865
v 2.926068 3.905940 2.183194
v 2.993092 5.350018 2.075581
v 3.003819 3.905940 1.584821
v 2.995465 5.350018 1.127385
v 3.054801 3.902920 1.125170
v 2.993691 3.902920 1.129139
v 3.024246 5.407812 1.127154
v 3.054801 5.393657 1.603467
v 3.024246 3.888766 1.601483
v 2.993691 5.393657 1.599499
v 2.993691 3.902920 2.077796
v 3.024246 5.407812 2.075812
v 3.054801 3.902920 2.073828
v 3.164988 3.861119 1.005982
v 3.156312 3.903316 2.190650
v 2.923461 3.869961 1.005983
v -0.033840 0.168944 -2.844031
v -0.639830 2.369689 -2.747775
v 0.604817 2.369689 -2.736965
v -0.542033 0.168382 -2.830695
v 0.130650 2.411142 -2.742818
v 0.507020 0.168382 -2.833791
v -0.017506 2.305835 -2.862201
v -0.019521 0.165947 -2.890190
v -0.015491 0.165947 -2.834211
v -0.137378 1.359634 -2.922116
v -0.139502 0.935552 -2.955724
v -0.135254 0.935552 -2.888507
v 0.102366 1.359634 -2.922116
v 0.104490 0.935552 -2.888507
v 0.100242 0.935552 -2.955724
v -2.195181 2.761100 -3.091876
v 1.636108 2.662255 -2.578978
v 1.636107 2.675127 -3.445000
v 2.641283 2.935839 -2.740431
v -2.664680 2.943963 -2.659421
v 2.641283 3.593343 -2.724338
v -1.128818 6.487166 1.561539
v -1.940453 6.797169 1.581706
v -1.940453 6.155604 2.020695
v -1.087337 6.487459 1.555790
v -1.482159 6.277713 1.549145
v -1.549095 6.675267 1.552337
v -1.571307 6.332462 1.521596
v -1.146453 6.344933 1.522731
v -1.146453 6.319991 1.520461
v -1.571307 6.400132 1.521596
v -1.146453 6.401279 1.509266
v -1.146453 6.398984 1.533926
v -1.571307 6.467802 1.521596
v -1.146453 6.480273 1.522731
v -1.146453 6.455331 1.520461
v -1.571307 6.535472 1.521596
v -1.146453 6.547943 1.522731
v -1.146453 6.523001 1.520461
v -1.146453 6.604289 1.509266
v -1.571307 6.603142 1.521596
v -1.146453 6.601994 1.533926
v -1.146453 6.669664 1.533926
v -1.571307 6.670812 1.521596
v -1.146453 6.671959 1.509266
v -1.805597 6.699291 1.556546
v -1.761343 6.309874 1.555037
v -1.849852 6.309874 1.558056
v -1.863316 6.109566 1.504596
v -1.767856 6.116008 1.504596
v -1.815586 6.112787 2.117363
v -1.263956 6.109566 1.504596
v -1.216226 6.112787 2.117363
v -1.168496 6.116008 1.504596
v 0.369583 6.487166 1.561539
v -0.442053 6.797169 1.581706
v -0.442053 6.155604 2.020695
v 0.411063 6.487459 1.555790
v -0.050695 6.675267 1.552337
v 0.016241 6.277713 1.549146
v -0.067301 6.344933 1.520461
v -0.067300 6.319991 1.522731
v 0.357553 6.332462 1.521596
v 0.351947 6.398984 1.533926
v -0.072907 6.400132 1.521596
v 0.351947 6.401279 1.509266
v -0.067301 6.466654 1.509266
v -0.067301 6.468949 1.533926
v 0.357553 6.467802 1.521596
v -0.072907 6.535472 1.521596
v 0.351947 6.547943 1.522731
v 0.351947 6.523001 1.520461
v 0.351947 6.604289 1.509266
v 0.351947 6.601994 1.533926
v -0.072907 6.603142 1.521596
v 0.351947 6.669664 1.533926
v -0.072907 6.670812 1.521596
v 0.351947 6.671959 1.509266
v -0.307197 6.699291 1.556547
v -0.351451 6.309874 1.558056
v -0.262942 6.309874 1.555037
v -0.364917 6.109566 1.504596
v -0.269456 6.116008 1.504596
v -0.317186 6.112787 2.117362
v 0.234443 6.109566 1.504596
v 0.282174 6.112787 2.117362
v 0.329904 6.116008 1.504596
v 1.905441 6.797169 2.020695
v 1.148159 6.317454 1.571525
v 1.905441 6.155604 1.581706
v 1.447705 6.675267 1.552337
v 1.514641 6.277713 1.549145
v 1.909463 6.487459 1.555790
v 1.855954 6.332462 1.521596
v 1.431100 6.344933 1.520461
v 1.431100 6.319991 1.522731
v 1.431100 6.398984 1.509266
v 1.855954 6.400132 1.521596
v 1.431100 6.401279 1.533926
v 1.855954 6.467802 1.521596
v 1.431100 6.468949 1.533926
v 1.431100 6.466654 1.509266
v 1.425493 6.535472 1.521596
v 1.850347 6.523001 1.520461
v 1.850347 6.547943 1.522731
v 1.425493 6.603142 1.521596
v 1.850347 6.601994 1.533926
v 1.850347 6.604289 1.509266
v 1.431100 6.669664 1.509266
v 1.431100 6.671959 1.533926
v 1.855954 6.670812 1.521596
v 1.235458 6.309874 1.555037
v 1.191203 6.699291 1.556546
v 1.146949 6.309874 1.558056
v 1.133484 6.109566 1.504596
v 1.228944 6.116008 1.504596
v 1.181214 6.112787 2.117363
v 1.732844 6.109566 1.504596
v 1.780574 6.112787 2.117363
v 1.828304 6.116008 1.504596
v 2.182050 5.974583 1.004233
v 2.183508 7.099823 0.979174
v 2.178927 7.100000 1.025712
v -2.308253 2.744421 -2.960296
v -2.201897 2.956541 -3.091876
v -2.304088 2.726502 -3.212115
v -2.763775 0.046654 2.987075
v -2.761896 0.033948 2.900826
v -2.759545 5.709814 2.939590
v 2.732238 0.033948 2.900826
v 2.734589 5.709814 2.939590
v 2.730359 0.046654 2.987075
v -0.409783 0.381045 2.870782
v -0.432589 2.201218 2.924701
v 0.397578 2.201216 2.934506
v 0.614626 1.744543 3.010697
v 0.948706 1.239544 2.848615
v 0.614575 1.239544 3.010594
vn -0.0000 -0.7031 -0.7111
vn -0.0000 -0.7030 -0.7111
vn -0.6849 0.7269 0.0501
vn 0.0005 -0.7028 0.7114
vn -0.0000 -0.7030 0.7112
vn 0.0002 -0.7030 0.7112
vn 0.7069 -0.0000 0.7073
vn 0.6615 0.6542 -0.3665
vn 0.7110 0.7032 -0.0000
vn 0.7040 -0.6963 0.1397
vn 0.7040 0.6963 -0.1397
vn 0.9110 -0.4123 -0.0000
vn 0.7110 -0.7032 -0.0000
vn 0.9994 -0.0348 -0.0000
vn 0.7070 -0.0000 -0.7073
vn -0.7040 -0.6963 -0.1397
vn -0.3174 -0.4221 0.8492
vn -0.1617 -0.5265 0.8346
vn -0.1529 -0.3888 0.9086
vn -0.0000 -0.6339 -0.7734
vn -0.0003 1.0000 -0.0000
vn -0.0000 0.7031 -0.7111
vn -0.0000 1.0000 -0.0000
vn 0.5906 0.0483 -0.8055
vn 0.8747 0.0003 -0.4847
vn 0.0011 -0.0000 1.0000
vn -0.0000 -0.6339 0.7734
vn -0.0192 0.5287 -0.8486
vn 0.0233 0.4151 -0.9095
vn 0.0191 -0.5274 -0.8494
vn -0.9994 0.0336 -0.0007
vn -0.8001 0.5998 0.0001
vn -0.4742 0.8804 0.0001
vn -0.9999 0.0101 -0.0006
vn -0.9017 0.4323 -0.0000
vn -0.7124 0.7018 -0.0000
vn -0.7473 0.6638 0.0308
vn -0.0000 -0.7030 -0.7112
vn -0.7712 -0.6366 -0.0000
vn -0.0438 -0.9990 -0.0000
vn 0.9215 -0.3883 -0.0000
vn 0.7712 -0.6366 -0.0000
vn -0.0233 -0.4145 -0.9097
vn -0.6712 -0.0000 0.7413
vn -0.6365 0.0080 0.7712
vn -0.5320 -0.1821 0.8270
vn -0.0623 0.0433 0.9971
vn -0.0000 -0.0000 -0.0000
vn -0.0000 -0.4472 0.8944
vn 0.1111 -0.4444 0.8889
vn -0.0000 -0.2425 0.9701
vn -0.9995 0.0324 -0.0007
vn -0.0002 0.7059 -0.7083
vn -0.0000 0.0188 -0.9998
vn -0.0000 0.0176 -0.9998
vn -0.0000 0.7018 -0.7124
vn 0.0002 0.6841 0.7294
vn -0.0000 -0.0000 -1.0000
vn -0.0000 -1.0000 -0.0000
vn 0.3628 0.9319 0.0012
vn -0.7110 0.7032 -0.0000
vn -1.0000 0.0095 0.0007
vn 0.0001 0.7187 0.6953
vn 0.0003 0.0017 1.0000
vn 0.9260 0.3774 -0.0032
vn 0.9999 0.0105 0.0007
vn 1.0000 0.0021 0.0001
vn -0.0000 0.0176 0.9998
vn 0.8538 0.5207 -0.0001
vn 0.9994 0.0335 0.0007
vn 0.9995 0.0324 0.0007
vn -0.3628 0.9319 -0.0012
vn -1.0000 0.0060 -0.0004
vn -1.0000 -0.0000 -0.0000
vn 0.0002 0.0039 -1.0000
vn 0.0001 0.0039 -1.0000
vn -0.0166 0.0070 0.9998
vn -0.0000 -0.0000 1.0000
vn 0.0517 0.9987 0.0014
vn 0.0527 0.9986 0.0015
vn 0.0009 1.0000 -0.0000
vn 0.6404 0.0251 -0.7676
vn -0.9998 -0.0182 0.0012
vn -0.9998 -0.0179 0.0012
vn -0.0012 0.9917 0.1289
vn 0.4351 -0.1866 0.8808
vn -0.0043 1.0000 0.0019
vn -0.0105 0.9999 -0.0000
vn -0.0103 0.9999 -0.0000
vn -0.0219 0.9998 0.0018
vn 0.6924 -0.7214 0.0098
vn 0.0225 0.3885 0.9212
vn 0.2246 -0.0000 0.9744
vn 1.0000 -0.0000 -0.0000
vn -0.0220 0.9998 -0.0002
vn 0.9998 -0.0182 -0.0000
vn -0.8974 0.4412 -0.0000
vn -0.9994 0.0334 -0.0000
vn -0.6991 -0.0152 0.7148
vn -0.0753 0.9972 -0.0000
vn -0.0797 0.9968 -0.0000
vn -0.9946 -0.0000 0.1033
vn -0.9768 -0.0000 0.2141
vn -0.9939 -0.0000 0.1104
vn 0.1479 0.9890 -0.0000
vn 0.1311 0.9914 -0.0000
vn 0.1061 0.9944 -0.0000
vn -0.0000 -0.0050 1.0000
vn -0.4015 -0.0000 0.9159
vn -0.4768 -0.0037 0.8790
vn -1.0000 -0.0000 -0.0059
vn -0.0070 -0.8937 0.4486
vn -0.0000 -0.8071 0.5904
vn -0.0097 -1.0000 -0.0000
vn -0.3162 -0.0000 0.9487
vn -0.3417 -0.0000 0.9398
vn -0.2631 -0.0000 0.9648
vn -0.0000 0.8937 0.4486
vn -0.0000 0.8494 0.5278
vn -0.8321 -0.0000 0.5547
vn -0.0929 -0.9913 0.0929
vn -0.0000 -0.0097 1.0000
vn 0.2724 -0.0128 0.9621
vn 0.3285 -0.0103 0.9444
vn 1.0000 0.0078 0.0029
vn 0.9999 0.0156 0.0039
vn 1.0000 0.0078 0.0020
vn 0.5098 -0.8603 -0.0000
vn 0.4125 -0.9110 -0.0000
vn 0.4258 -0.9048 -0.0000
vn 0.1550 -0.9879 -0.0000
vn 0.3162 -0.9487 -0.0000
vn 0.2993 -0.9541 -0.0000
vn 0.1644 -0.9864 -0.0000
vn 0.1160 -0.9932 -0.0000
vn 0.1089 -0.9940 -0.0000
vn -0.9918 0.0310 -0.1240
vn -0.9955 0.0156 -0.0933
vn -0.9938 0.0233 -0.1087
vn 0.8887 0.0139 -0.4582
vn 0.9363 0.0110 -0.3511
vn 0.8598 0.0134 -0.5105
vn 0.0468 0.0078 0.9989
vn 0.0312 0.0078 0.9995
vn -0.0624 -0.0078 0.9980
vn -0.0624 -0.0000 0.9981
vn -0.7525 0.0118 0.6585
vn -0.8598 0.0067 0.5105
vn -0.8120 0.0063 0.5836
vn 0.0265 0.8477 0.5298
vn 0.0522 0.8349 0.5479
vn 0.0272 0.8713 0.4901
vn 0.4557 0.0071 0.8901
vn 0.5711 0.0045 0.8209
vn 0.3969 0.0031 0.9179
vn 0.0093 -1.0000 -0.0000
vn 0.0063 -1.0000 -0.0000
vn 0.0059 -1.0000 -0.0000
vn -0.9994 -0.0000 -0.0349
vn -0.9994 -0.0000 -0.0350
vn 0.9264 0.3753 0.0312
vn 0.9853 0.1677 0.0334
vn -0.0000 0.9678 0.2518
vn 0.0035 1.0000 -0.0000
vn 0.0027 0.9395 0.3426
vn 0.0271 -0.9970 0.0719
vn 0.0272 -0.9965 0.0785
vn 0.0271 -0.9950 0.0959
vn 0.0278 -0.9924 -0.1203
vn 0.0277 -0.9921 -0.1225
vn -0.9345 -0.0000 -0.3560
vn 0.0187 -0.9998 -0.0000
vn 0.0215 -0.9998 -0.0000
vn 0.0218 -0.9998 -0.0000
vn -0.9179 -0.3969 -0.0000
vn -0.9839 -0.1789 -0.0000
vn 0.0192 0.9998 -0.0000
vn 0.0136 0.4902 -0.8715
vn -0.2639 -0.6781 -0.6859
vn -1.0000 -0.0098 -0.0007
vn 0.2639 -0.6781 0.6860
vn -0.6405 -0.0000 0.7679
vn 0.1633 0.1615 -0.9733
vn 0.2902 -0.2869 0.9130
vn 0.0003 -0.6449 -0.7643
vn 0.3092 -0.3976 0.8639
vn 0.3816 0.3774 -0.8438
vn 0.7111 -0.7031 0.0001
vn -0.3816 -0.3774 -0.8438
vn -0.7111 -0.7031 -0.0001
vn -0.7110 -0.7032 -0.0000
vn 0.0532 -0.9985 0.0106
vn 0.0001 1.0000 -0.0000
vn -0.0000 0.7031 0.7111
vn -0.0221 0.9997 0.0044
vn -0.0000 0.3923 -0.9198
vn 0.5808 0.8141 -0.0000
vn 0.0072 0.0185 -0.9998
vn 0.7712 0.6366 -0.0002
vn 0.0009 -0.7026 0.7116
vn 0.0459 0.9884 0.1450
vn -0.0532 -0.9985 -0.0106
vn -0.0000 0.9992 -0.0403
vn -0.0000 0.0039 -1.0000
vn 0.0448 0.9979 0.0464
vn -0.7112 -0.7030 -0.0002
vn -0.0000 -0.6442 -0.7649
vn 0.7110 0.7032 0.0007
vn -0.0000 -0.0182 0.9998
vn 0.7112 -0.7030 0.0002
vn -0.0000 -0.9991 -0.0420
vn 0.7070 -0.0000 0.7072
vn -0.0072 0.0185 0.9998
vn -0.9155 -0.4024 -0.0000
vn 0.0012 -1.0000 -0.0012
vn 1.0000 -0.0099 -0.0007
vn 0.7070 -0.0000 -0.7072
vn 0.9155 -0.4024 -0.0000
vn -0.8813 -0.0000 0.4726
vn -0.9998 -0.0179 -0.0000
vn -0.6416 -0.0252 0.7666
vn 0.0181 -0.0179 -0.9997
vn -0.0011 -0.0178 -0.9998
vn -0.4122 -0.0074 -0.9111
vn -0.0089 0.0002 -1.0000
vn -0.0089 -0.0002 -1.0000
vn -0.0090 -0.0028 -1.0000
vn -0.0092 -0.0091 -0.9999
vn 0.9998 -0.0183 -0.0012
vn 0.4123 -0.0075 0.9110
vn 0.0011 -0.0178 0.9998
vt 0.695798 0.615189
vt 0.695580 0.615151
vt 0.695581 0.614936
vt 0.987558 0.382917
vt 0.987700 0.382750
vt 0.987700 0.383057
vt 0.436312 0.417614
vt 0.436094 0.417614
vt 0.436312 0.417395
vt 0.643399 0.432181
vt 0.643618 0.432182
vt 0.643618 0.432400
vt 0.987650 0.378750
vt 0.987650 0.378729
vt 0.987869 0.378750
vt 0.185134 0.418173
vt 0.184915 0.418270
vt 0.184915 0.418052
vt 0.007386 0.221670
vt 0.007386 0.221452
vt 0.007605 0.221670
vt 0.659777 0.609799
vt 0.659513 0.609799
vt 0.659513 0.609580
vt 0.185134 0.221452
vt 0.185134 0.221714
vt 0.184915 0.221670
vt 0.659733 0.431954
vt 0.659513 0.432051
vt 0.665101 0.426852
vt 0.184915 0.423219
vt 0.185134 0.423438
vt 0.185353 0.423656
vt 0.687491 0.432051
vt 0.687759 0.432051
vt 0.687758 0.432269
vt 0.687536 0.609896
vt 0.687759 0.609798
vt 0.687637 0.615019
vt 0.436094 0.221233
vt 0.436312 0.226283
vt 0.436094 0.226401
vt 0.007386 0.423438
vt 0.007605 0.423219
vt 0.007605 0.423700
vt 0.695798 0.426782
vt 0.692082 0.427013
vt 0.692195 0.426813
vt 0.965569 0.966381
vt 0.965568 0.978020
vt 0.965350 0.966386
vt 0.671415 0.609799
vt 0.671632 0.432270
vt 0.671632 0.609580
vt 0.643597 0.623395
vt 0.643394 0.623614
vt 0.258783 0.422782
vt 0.258565 0.417731
vt 0.258783 0.417615
vt 0.190355 0.423339
vt 0.190323 0.221563
vt 0.812744 0.193100
vt 0.635430 0.193409
vt 0.635277 0.193189
vt 0.185029 0.226695
vt 0.007605 0.226838
vt 0.007509 0.226662
vt 0.002117 0.423438
vt 0.002162 0.423219
vt 0.687759 0.609579
vt 0.436094 0.422782
vt 0.436312 0.417735
vt 0.436313 0.422782
vt 0.258783 0.221234
vt 0.258565 0.226280
vt 0.258565 0.221234
vt 0.659513 0.432270
vt 0.215881 0.423084
vt 0.210640 0.221496
vt 0.215886 0.221452
vt 0.970153 0.477392
vt 0.973968 0.477599
vt 0.970141 0.477610
vt 0.655300 0.432168
vt 0.643663 0.432064
vt 0.655300 0.432047
vt 0.210025 0.629686
vt 0.198313 0.514715
vt 0.210070 0.629467
vt 0.436466 0.109579
vt 0.221452 0.217092
vt 0.221452 0.002000
vt 0.002138 0.109736
vt 0.217308 0.002142
vt 0.217320 0.217289
vt 0.002164 0.427978
vt 0.194143 0.427788
vt 0.098146 0.622906
vt 0.453666 0.426934
vt 0.453680 0.621893
vt 0.258745 0.524440
vt 0.784225 0.786732
vt 0.784225 0.609422
vt 0.787826 0.609204
vt 0.691917 0.615007
vt 0.695798 0.426998
vt 0.812639 0.002222
vt 0.970142 0.117900
vt 0.970141 0.112713
vt 0.981778 0.112713
vt 0.258783 0.226401
vt 0.787779 0.609204
vt 0.788045 0.786732
vt 0.258565 0.226183
vt 0.768310 0.786952
vt 0.768324 0.786734
vt 0.768367 0.609204
vt 0.647281 0.432338
vt 0.647501 0.623170
vt 0.780005 0.609408
vt 0.780225 0.786719
vt 0.635215 0.002309
vt 0.746110 0.609423
vt 0.746110 0.786733
vt 0.742508 0.786952
vt 0.742554 0.786952
vt 0.742289 0.609423
vt 0.752207 0.786732
vt 0.752207 0.609422
vt 0.763886 0.609204
vt 0.764105 0.609423
vt 0.764105 0.786732
vt 0.970491 0.027896
vt 0.982258 0.022680
vt 0.982133 0.027655
vt 0.655513 0.427001
vt 0.643655 0.426795
vt 0.655294 0.426782
vt 0.973603 0.037339
vt 0.970141 0.032024
vt 0.982238 0.032243
vt 0.007508 0.418159
vt 0.675632 0.609580
vt 0.675638 0.609798
vt 0.675632 0.431833
vt 0.252126 0.440731
vt 0.252126 0.639239
vt 0.240029 0.639447
vt 0.240007 0.639447
vt 0.240007 0.440681
vt 0.240008 0.440643
vt 0.007003 0.221666
vt 0.671415 0.615064
vt 0.659680 0.614972
vt 0.671372 0.432051
vt 0.675855 0.432051
vt 0.681276 0.426828
vt 0.206640 0.221714
vt 0.194521 0.423176
vt 0.194521 0.221671
vt 0.206640 0.423220
vt 0.206421 0.423438
vt 0.210070 0.427767
vt 0.675901 0.615067
vt 0.002210 0.627174
vt 0.043919 0.655514
vt 0.002188 0.683922
vt 0.048025 0.716453
vt 0.090306 0.688011
vt 0.090310 0.744857
vt 0.816928 0.039669
vt 0.816914 0.002012
vt 0.868756 0.020839
vt 0.571956 0.798605
vt 0.609106 0.798575
vt 0.590522 0.850433
vt 0.047046 0.798534
vt 0.047840 0.852799
vt 0.046303 0.852799
vt 0.174933 0.798532
vt 0.175635 0.852785
vt 0.174237 0.852825
vt 0.076304 0.798534
vt 0.077098 0.852799
vt 0.075560 0.852799
vt 0.225623 0.798532
vt 0.226325 0.852785
vt 0.224927 0.852825
vt 0.099710 0.798534
vt 0.100504 0.852799
vt 0.098967 0.852799
vt 0.163669 0.798532
vt 0.164371 0.852785
vt 0.162973 0.852825
vt 0.546149 0.960870
vt 0.550056 0.915428
vt 0.554010 0.960845
vt 0.613909 0.915415
vt 0.610003 0.960858
vt 0.606049 0.915440
vt 0.048174 0.655548
vt 0.089891 0.627091
vt 0.089895 0.683937
vt 0.297695 0.700784
vt 0.339980 0.729189
vt 0.297699 0.757631
vt 0.816928 0.081348
vt 0.816914 0.043692
vt 0.868756 0.062518
vt 0.654627 0.798605
vt 0.691776 0.798575
vt 0.673192 0.850433
vt 0.082156 0.798534
vt 0.082949 0.852799
vt 0.081412 0.852799
vt 0.231255 0.798532
vt 0.231957 0.852785
vt 0.230559 0.852825
vt 0.242520 0.798532
vt 0.243222 0.852785
vt 0.241824 0.852825
vt 0.123116 0.798534
vt 0.123910 0.852799
vt 0.122373 0.852799
vt 0.105562 0.798534
vt 0.106355 0.852799
vt 0.104818 0.852799
vt 0.208726 0.798532
vt 0.209428 0.852785
vt 0.208030 0.852825
vt 0.558134 0.960870
vt 0.562041 0.915428
vt 0.565995 0.960845
vt 0.625894 0.915415
vt 0.621988 0.960858
vt 0.618034 0.915440
vt 0.140122 0.655548
vt 0.181840 0.627091
vt 0.181843 0.683937
vt 0.407264 0.690663
vt 0.449549 0.719068
vt 0.407268 0.747510
vt 0.695811 0.798589
vt 0.733467 0.798575
vt 0.714641 0.850417
vt 0.447951 0.798605
vt 0.485100 0.798575
vt 0.466517 0.850433
vt 0.128968 0.798534
vt 0.129761 0.852799
vt 0.128224 0.852799
vt 0.169301 0.798532
vt 0.170003 0.852785
vt 0.168605 0.852825
vt 0.214358 0.798532
vt 0.215061 0.852785
vt 0.213662 0.852825
vt 0.088007 0.798534
vt 0.088801 0.852799
vt 0.087264 0.852799
vt 0.052898 0.798534
vt 0.053691 0.852799
vt 0.052154 0.852799
vt 0.219991 0.798532
vt 0.220693 0.852785
vt 0.219295 0.852825
vt 0.526110 0.960857
vt 0.522156 0.915440
vt 0.530017 0.915415
vt 0.633949 0.915428
vt 0.637903 0.960845
vt 0.630042 0.960870
vt 0.816790 0.205003
vt 0.842658 0.168777
vt 0.868572 0.204996
vt 0.123080 0.885217
vt 0.159300 0.859307
vt 0.159305 0.911078
vt 0.322757 0.915431
vt 0.354367 0.915414
vt 0.338564 0.962192
vt 0.873111 0.871114
vt 0.873097 0.839505
vt 0.919883 0.855307
vt 0.640839 0.859433
vt 0.641593 0.908630
vt 0.640056 0.908631
vt 0.847353 0.859415
vt 0.848083 0.908631
vt 0.846616 0.908632
vt 0.534742 0.859434
vt 0.536279 0.859433
vt 0.535497 0.908630
vt 0.807109 0.859435
vt 0.808551 0.859395
vt 0.807827 0.908631
vt 0.645921 0.859433
vt 0.647459 0.859433
vt 0.646676 0.908630
vt 0.733707 0.859435
vt 0.735150 0.859395
vt 0.734425 0.908631
vt 0.926593 0.077818
vt 0.965950 0.073872
vt 0.965975 0.081719
vt 0.926593 0.149639
vt 0.965950 0.145693
vt 0.965976 0.153540
vt 0.163417 0.859332
vt 0.199643 0.885192
vt 0.163422 0.911103
vt 0.842681 0.407592
vt 0.816767 0.371372
vt 0.868549 0.371365
vt 0.144566 0.915431
vt 0.176176 0.915414
vt 0.160373 0.962191
vt 0.873111 0.906753
vt 0.873097 0.875143
vt 0.919883 0.890946
vt 0.750646 0.859435
vt 0.752088 0.859395
vt 0.751364 0.908631
vt 0.558149 0.859434
vt 0.559686 0.859433
vt 0.558904 0.908630
vt 0.757014 0.859415
vt 0.757744 0.908631
vt 0.756276 0.908632
vt 0.541363 0.859433
vt 0.542117 0.908630
vt 0.540580 0.908631
vt 0.547214 0.859433
vt 0.547969 0.908630
vt 0.546432 0.908631
vt 0.740075 0.859415
vt 0.740805 0.908631
vt 0.739338 0.908632
vt 0.887294 0.915428
vt 0.891240 0.954785
vt 0.883393 0.954810
vt 0.926593 0.161609
vt 0.965950 0.157663
vt 0.965975 0.165510
vt 0.842681 0.769877
vt 0.816768 0.733656
vt 0.868551 0.733651
vt 0.816813 0.648652
vt 0.842657 0.612965
vt 0.868596 0.648646
vt 0.873112 0.657285
vt 0.873097 0.625675
vt 0.919885 0.641478
vt 0.873124 0.479737
vt 0.873097 0.448549
vt 0.919900 0.464151
vt 0.873052 0.030870
vt 0.922257 0.030167
vt 0.922297 0.031566
vt 0.705167 0.859414
vt 0.705960 0.908629
vt 0.704423 0.908629
vt 0.670057 0.859414
vt 0.670851 0.908629
vt 0.669314 0.908629
vt 0.873052 0.036502
vt 0.922257 0.035800
vt 0.922297 0.037198
vt 0.873052 0.025237
vt 0.922257 0.024535
vt 0.922297 0.025933
vt 0.664206 0.859414
vt 0.665000 0.908629
vt 0.663462 0.908629
vt 0.879247 0.915416
vt 0.875346 0.954798
vt 0.871400 0.915441
vt 0.965976 0.069749
vt 0.926593 0.065848
vt 0.965950 0.061901
vt 0.816790 0.689198
vt 0.842659 0.652973
vt 0.868573 0.689193
vt 0.842704 0.528612
vt 0.816766 0.492930
vt 0.868549 0.492925
vt 0.873112 0.692923
vt 0.873097 0.661314
vt 0.919885 0.677116
vt 0.873124 0.550487
vt 0.873097 0.519299
vt 0.919900 0.534901
vt 0.873052 0.042134
vt 0.922257 0.041432
vt 0.922297 0.042830
vt 0.687612 0.859414
vt 0.688406 0.908629
vt 0.686869 0.908629
vt 0.693464 0.859414
vt 0.694257 0.908629
vt 0.692720 0.908629
vt 0.873052 0.019605
vt 0.922257 0.018903
vt 0.922297 0.020301
vt 0.873052 0.013973
vt 0.922257 0.013271
vt 0.922297 0.014669
vt 0.699315 0.859414
vt 0.700109 0.908629
vt 0.698572 0.908629
vt 0.926593 0.137669
vt 0.965950 0.133723
vt 0.965975 0.141570
vt 0.965963 0.173558
vt 0.926606 0.177504
vt 0.926581 0.169657
vt 0.842681 0.448110
vt 0.816767 0.411891
vt 0.868549 0.411884
vt 0.203757 0.859332
vt 0.239982 0.885192
vt 0.203763 0.911103
vt 0.073289 0.915432
vt 0.104899 0.915418
vt 0.089097 0.962204
vt 0.108928 0.915431
vt 0.140538 0.915414
vt 0.124735 0.962192
vt 0.768306 0.859415
vt 0.769036 0.908631
vt 0.767569 0.908632
vt 0.553066 0.859433
vt 0.553820 0.908630
vt 0.552283 0.908631
vt 0.773952 0.859415
vt 0.774682 0.908631
vt 0.773215 0.908632
vt 0.564769 0.859433
vt 0.565524 0.908630
vt 0.563986 0.908631
vt 0.569852 0.859434
vt 0.571389 0.859433
vt 0.570607 0.908630
vt 0.745000 0.859435
vt 0.746442 0.859395
vt 0.745718 0.908631
vt 0.895363 0.954810
vt 0.899264 0.915428
vt 0.903210 0.954785
vt 0.965976 0.129600
vt 0.926593 0.125699
vt 0.965950 0.121753
vt 0.816790 0.245522
vt 0.842658 0.209295
vt 0.868572 0.245515
vt 0.042399 0.885217
vt 0.078619 0.859307
vt 0.078625 0.911078
vt 0.873111 0.799838
vt 0.873097 0.768228
vt 0.919883 0.784031
vt 0.180204 0.915431
vt 0.211814 0.915414
vt 0.196011 0.962192
vt 0.812755 0.859435
vt 0.814197 0.859395
vt 0.813473 0.908631
vt 0.651773 0.859433
vt 0.653310 0.859433
vt 0.652528 0.908630
vt 0.863570 0.859435
vt 0.865012 0.859395
vt 0.864288 0.908631
vt 0.593258 0.859434
vt 0.594795 0.859433
vt 0.594013 0.908630
vt 0.762660 0.859415
vt 0.763390 0.908631
vt 0.761923 0.908632
vt 0.599878 0.859433
vt 0.600633 0.908630
vt 0.599096 0.908631
vt 0.965963 0.005974
vt 0.926606 0.009920
vt 0.926581 0.002073
vt 0.965963 0.209468
vt 0.926606 0.213414
vt 0.926581 0.205567
vt 0.140133 0.688093
vt 0.181842 0.716434
vt 0.140110 0.744841
vt 0.360882 0.719103
vt 0.403163 0.690661
vt 0.403167 0.747507
vt 0.613291 0.798605
vt 0.650441 0.798575
vt 0.631857 0.850433
vt 0.816928 0.123028
vt 0.816914 0.085371
vt 0.868756 0.104198
vt 0.093858 0.798534
vt 0.094652 0.852799
vt 0.093115 0.852799
vt 0.236887 0.798532
vt 0.237590 0.852785
vt 0.236191 0.852825
vt 0.180565 0.798532
vt 0.181267 0.852785
vt 0.179869 0.852825
vt 0.134819 0.798534
vt 0.135613 0.852799
vt 0.134076 0.852799
vt 0.058749 0.798534
vt 0.059543 0.852799
vt 0.058006 0.852799
vt 0.152404 0.798532
vt 0.153106 0.852785
vt 0.151708 0.852825
vt 0.570119 0.960870
vt 0.574025 0.915428
vt 0.577979 0.960845
vt 0.542001 0.915415
vt 0.538095 0.960858
vt 0.534141 0.915440
vt 0.002199 0.716467
vt 0.043917 0.688010
vt 0.043920 0.744856
vt 0.610453 0.705557
vt 0.652738 0.733962
vt 0.610457 0.762403
vt 0.530621 0.798605
vt 0.567771 0.798575
vt 0.549187 0.850433
vt 0.816928 0.164707
vt 0.816914 0.127050
vt 0.868756 0.145877
vt 0.140671 0.798534
vt 0.141464 0.852799
vt 0.139927 0.852799
vt 0.186197 0.798532
vt 0.186900 0.852785
vt 0.185501 0.852825
vt 0.248152 0.798532
vt 0.248854 0.852785
vt 0.247456 0.852825
vt 0.064601 0.798534
vt 0.065395 0.852799
vt 0.063857 0.852799
vt 0.111413 0.798534
vt 0.112207 0.852799
vt 0.110670 0.852799
vt 0.191830 0.798532
vt 0.192532 0.852785
vt 0.191134 0.852825
vt 0.518032 0.915415
vt 0.514125 0.960858
vt 0.510171 0.915440
vt 0.582103 0.960870
vt 0.586010 0.915428
vt 0.589964 0.960845
vt 0.094148 0.655549
vt 0.135865 0.627092
vt 0.135869 0.683937
vt 0.212228 0.700766
vt 0.254514 0.729171
vt 0.212233 0.757612
vt 0.489286 0.798605
vt 0.526436 0.798575
vt 0.507852 0.850433
vt 0.737490 0.798589
vt 0.775146 0.798575
vt 0.756320 0.850417
vt 0.146522 0.798534
vt 0.147316 0.852799
vt 0.145779 0.852799
vt 0.197462 0.798532
vt 0.198164 0.852785
vt 0.196766 0.852825
vt 0.070452 0.798534
vt 0.071246 0.852799
vt 0.069709 0.852799
vt 0.158036 0.798532
vt 0.158739 0.852785
vt 0.157340 0.852825
vt 0.117265 0.798534
vt 0.118058 0.852799
vt 0.116521 0.852799
vt 0.203094 0.798532
vt 0.203796 0.852785
vt 0.202398 0.852825
vt 0.645957 0.960857
vt 0.642003 0.915440
vt 0.649864 0.915415
vt 0.597995 0.915428
vt 0.601949 0.960845
vt 0.594088 0.960870
vt 0.002059 0.885218
vt 0.038279 0.859307
vt 0.038284 0.911078
vt 0.816790 0.286040
vt 0.842658 0.249814
vt 0.868572 0.286033
vt 0.287119 0.915431
vt 0.318729 0.915414
vt 0.302926 0.962192
vt 0.873111 0.764200
vt 0.873097 0.732590
vt 0.919883 0.748393
vt 0.819122 0.859415
vt 0.819852 0.908631
vt 0.818385 0.908632
vt 0.523808 0.859434
vt 0.524563 0.908630
vt 0.523026 0.908631
vt 0.801462 0.859435
vt 0.802904 0.859395
vt 0.802180 0.908631
vt 0.528891 0.859433
vt 0.530428 0.859433
vt 0.529646 0.908630
vt 0.605730 0.859433
vt 0.606484 0.908630
vt 0.604947 0.908631
vt 0.824768 0.859415
vt 0.825498 0.908631
vt 0.824031 0.908632
vt 0.926581 0.217537
vt 0.965963 0.221438
vt 0.926606 0.225385
vt 0.926581 0.014043
vt 0.965963 0.017944
vt 0.926606 0.021890
vt 0.082737 0.859332
vt 0.118962 0.885193
vt 0.082742 0.911103
vt 0.842681 0.488629
vt 0.816767 0.452409
vt 0.868549 0.452402
vt 0.215842 0.915431
vt 0.247452 0.915414
vt 0.231649 0.962192
vt 0.002013 0.915432
vt 0.033623 0.915418
vt 0.017820 0.962204
vt 0.830414 0.859415
vt 0.831144 0.908631
vt 0.829677 0.908632
vt 0.576472 0.859433
vt 0.577227 0.908630
vt 0.575689 0.908631
vt 0.779599 0.859415
vt 0.780329 0.908631
vt 0.778861 0.908632
vt 0.658393 0.859433
vt 0.659148 0.908630
vt 0.657611 0.908631
vt 0.623284 0.859433
vt 0.624039 0.908630
vt 0.622502 0.908631
vt 0.858645 0.859415
vt 0.859375 0.908631
vt 0.857908 0.908632
vt 0.926593 0.113729
vt 0.965950 0.109782
vt 0.965976 0.117630
vt 0.926593 0.185550
vt 0.965950 0.181604
vt 0.965975 0.189451
vt 0.842682 0.729536
vt 0.816768 0.693316
vt 0.868551 0.693310
vt 0.816813 0.568627
vt 0.842658 0.532940
vt 0.868596 0.568621
vt 0.873112 0.621647
vt 0.873097 0.590037
vt 0.919885 0.605839
vt 0.873124 0.585861
vt 0.873097 0.554674
vt 0.919899 0.570276
vt 0.873071 0.003407
vt 0.873033 0.002009
vt 0.922277 0.002705
vt 0.710288 0.859433
vt 0.711748 0.859394
vt 0.711043 0.908629
vt 0.873071 0.048465
vt 0.873033 0.047067
vt 0.922277 0.047763
vt 0.675179 0.859433
vt 0.676638 0.859394
vt 0.675934 0.908629
vt 0.681031 0.859433
vt 0.682490 0.859394
vt 0.681786 0.908629
vt 0.873071 0.009040
vt 0.873033 0.007641
vt 0.922277 0.008338
vt 0.965976 0.033838
vt 0.926593 0.029937
vt 0.965950 0.025991
vt 0.926581 0.085865
vt 0.965963 0.089766
vt 0.926606 0.093712
vt 0.842704 0.608637
vt 0.816766 0.572955
vt 0.868549 0.572950
vt 0.816790 0.810219
vt 0.842660 0.773993
vt 0.868574 0.810214
vt 0.873112 0.728561
vt 0.873097 0.696952
vt 0.919885 0.712754
vt 0.873124 0.515112
vt 0.873097 0.483924
vt 0.919900 0.499526
vt 0.873071 0.065362
vt 0.873033 0.063964
vt 0.922277 0.064660
vt 0.716140 0.859433
vt 0.717599 0.859394
vt 0.716895 0.908629
vt 0.721991 0.859433
vt 0.723451 0.859394
vt 0.722746 0.908629
vt 0.873071 0.054098
vt 0.873033 0.052699
vt 0.922277 0.053396
vt 0.727843 0.859433
vt 0.729302 0.859394
vt 0.728598 0.908629
vt 0.873071 0.059730
vt 0.873033 0.058332
vt 0.922277 0.059028
vt 0.926593 0.101759
vt 0.965950 0.097812
vt 0.965976 0.105659
vt 0.965963 0.041885
vt 0.926606 0.045831
vt 0.926581 0.037984
vt 0.842681 0.326555
vt 0.816767 0.290336
vt 0.868549 0.290329
vt 0.816792 0.850559
vt 0.842652 0.814334
vt 0.868563 0.850554
vt 0.873111 0.835476
vt 0.873097 0.803866
vt 0.919883 0.819669
vt 0.251480 0.915431
vt 0.283091 0.915414
vt 0.267288 0.962192
vt 0.611581 0.859434
vt 0.612336 0.908630
vt 0.610799 0.908631
vt 0.796537 0.859415
vt 0.797267 0.908631
vt 0.795800 0.908632
vt 0.629135 0.859433
vt 0.629890 0.908630
vt 0.628353 0.908631
vt 0.841707 0.859415
vt 0.842437 0.908631
vt 0.840970 0.908632
vt 0.634987 0.859433
vt 0.635742 0.908630
vt 0.634205 0.908631
vt 0.836060 0.859415
vt 0.836790 0.908631
vt 0.835323 0.908632
vt 0.965976 0.201421
vt 0.926593 0.197520
vt 0.965950 0.193574
vt 0.907333 0.954811
vt 0.911234 0.915428
vt 0.915181 0.954785
vt 0.816790 0.367077
vt 0.842658 0.330850
vt 0.868572 0.367070
vt 0.244100 0.885218
vt 0.280320 0.859307
vt 0.280326 0.911078
vt 0.358395 0.915431
vt 0.390005 0.915414
vt 0.374202 0.962192
vt 0.037651 0.915432
vt 0.069261 0.915418
vt 0.053458 0.962204
vt 0.785245 0.859415
vt 0.785975 0.908631
vt 0.784508 0.908632
vt 0.617433 0.859434
vt 0.618187 0.908630
vt 0.616650 0.908631
vt 0.852278 0.859435
vt 0.853720 0.859395
vt 0.852996 0.908631
vt 0.587406 0.859434
vt 0.588943 0.859433
vt 0.588161 0.908630
vt 0.582323 0.859434
vt 0.583078 0.908630
vt 0.581541 0.908631
vt 0.790891 0.859415
vt 0.791621 0.908631
vt 0.790154 0.908632
vt 0.859452 0.954811
vt 0.863353 0.915428
vt 0.867299 0.954785
vt 0.965976 0.057778
vt 0.926593 0.053877
vt 0.965950 0.049931
vt 0.566957 0.625867
vt 0.606313 0.625809
vt 0.586646 0.701492
vt 0.522846 0.625842
vt 0.562797 0.625810
vt 0.542833 0.701481
vt 0.314912 0.626229
vt 0.332173 0.696538
vt 0.297662 0.696580
vt 0.276103 0.626219
vt 0.293623 0.696540
vt 0.258593 0.696559
vt 0.628671 0.625905
vt 0.629291 0.696310
vt 0.628054 0.696349
vt 0.214880 0.619673
vt 0.215594 0.690094
vt 0.214219 0.690095
vt 0.934996 0.966562
vt 0.936047 0.979675
vt 0.933901 0.979653
vt 0.941258 0.966561
vt 0.942310 0.979671
vt 0.940164 0.979649
vt 0.947521 0.966561
vt 0.948573 0.979671
vt 0.946427 0.979650
vt 0.928733 0.966562
vt 0.929785 0.979675
vt 0.927639 0.979653
vt 0.472067 0.736710
vt 0.457871 0.625959
vt 0.486219 0.625930
vt 0.504521 0.625945
vt 0.518717 0.736696
vt 0.490369 0.736725
vt 0.723050 0.794227
vt 0.712223 0.618781
vt 0.733910 0.618814
vt 0.764049 0.426964
vt 0.753189 0.605032
vt 0.742361 0.426945
vt 0.039872 0.994380
vt 0.050680 0.966547
vt 0.061487 0.994414
vt 0.926588 0.857921
vt 0.954867 0.847114
vt 0.954849 0.868729
vt 0.492681 0.978177
vt 0.496942 0.967471
vt 0.503510 0.975557
vt 0.551024 0.980579
vt 0.547371 0.970869
vt 0.558647 0.972579
vt 0.757687 0.966510
vt 0.757864 0.980132
vt 0.757460 0.980132
vt 0.670774 0.966525
vt 0.670434 0.980368
vt 0.670228 0.966513
vt 0.886259 0.966381
vt 0.886468 0.980083
vt 0.885987 0.980083
vt 0.583367 0.980382
vt 0.583077 0.966525
vt 0.583615 0.966517
vt 0.767354 0.966506
vt 0.767548 0.980132
vt 0.767143 0.980132
vt 0.680457 0.966525
vt 0.680137 0.980372
vt 0.679911 0.966512
vt 0.685299 0.966525
vt 0.685030 0.980439
vt 0.684753 0.966513
vt 0.801262 0.966510
vt 0.801439 0.980132
vt 0.801035 0.980132
vt 0.660833 0.980382
vt 0.660542 0.966525
vt 0.661081 0.966517
vt 0.904750 0.966381
vt 0.904959 0.980083
vt 0.904478 0.980083
vt 0.694723 0.980382
vt 0.694434 0.966525
vt 0.694972 0.966517
vt 0.895504 0.966381
vt 0.895714 0.980083
vt 0.895232 0.980083
vt 0.970320 0.063532
vt 0.982073 0.062153
vt 0.982091 0.064889
vt 0.970320 0.056654
vt 0.982074 0.055255
vt 0.982090 0.058031
vt 0.339045 0.966568
vt 0.340355 0.985705
vt 0.337792 0.985734
vt 0.266730 0.985705
vt 0.264168 0.985734
vt 0.265420 0.966568
vt 0.332352 0.966568
vt 0.333662 0.985705
vt 0.331099 0.985734
vt 0.286810 0.985705
vt 0.284247 0.985734
vt 0.285500 0.966568
vt 0.065753 0.994380
vt 0.076561 0.966547
vt 0.087369 0.994414
vt 0.926588 0.806158
vt 0.954867 0.795350
vt 0.954849 0.816966
vt 0.473833 0.978177
vt 0.478094 0.967471
vt 0.484662 0.975557
vt 0.569701 0.980579
vt 0.566047 0.970869
vt 0.577323 0.972579
vt 0.796656 0.966536
vt 0.796395 0.980132
vt 0.796185 0.966484
vt 0.651135 0.966519
vt 0.651341 0.980434
vt 0.650936 0.980443
vt 0.602733 0.980382
vt 0.602443 0.966525
vt 0.602982 0.966517
vt 0.909372 0.966381
vt 0.909582 0.980083
vt 0.909100 0.980083
vt 0.699296 0.980388
vt 0.699538 0.966519
vt 0.699834 0.980376
vt 0.858798 0.966381
vt 0.858498 0.980083
vt 0.858251 0.966381
vt 0.806103 0.966510
vt 0.806281 0.980132
vt 0.805876 0.980132
vt 0.714349 0.966525
vt 0.714009 0.980368
vt 0.713802 0.966513
vt 0.718932 0.980382
vt 0.718642 0.966525
vt 0.719180 0.966517
vt 0.900127 0.966381
vt 0.900337 0.980083
vt 0.899855 0.980083
vt 0.636625 0.980382
vt 0.636335 0.966525
vt 0.636873 0.966517
vt 0.881636 0.966381
vt 0.881846 0.980083
vt 0.881364 0.980083
vt 0.970320 0.077237
vt 0.982073 0.075858
vt 0.982091 0.078594
vt 0.970320 0.042864
vt 0.982074 0.041464
vt 0.982090 0.044241
vt 0.292193 0.966568
vt 0.293503 0.985705
vt 0.290940 0.985734
vt 0.306889 0.985705
vt 0.304327 0.985734
vt 0.305579 0.966568
vt 0.312272 0.966568
vt 0.313582 0.985705
vt 0.311020 0.985734
vt 0.320275 0.985705
vt 0.317713 0.985734
vt 0.318965 0.966568
vt 0.102443 0.994396
vt 0.091636 0.966532
vt 0.113251 0.966561
vt 0.926597 0.821232
vt 0.954858 0.832040
vt 0.926579 0.842847
vt 0.511529 0.978177
vt 0.515790 0.967471
vt 0.522358 0.975557
vt 0.532348 0.980579
vt 0.528694 0.970869
vt 0.539971 0.972579
vt 0.723759 0.966519
vt 0.723965 0.980434
vt 0.723561 0.980443
vt 0.782131 0.966536
vt 0.781870 0.980132
vt 0.781660 0.966484
vt 0.752555 0.980388
vt 0.752803 0.966521
vt 0.753092 0.980376
vt 0.868040 0.966381
vt 0.867737 0.980083
vt 0.867496 0.966381
vt 0.872666 0.966381
vt 0.872366 0.980083
vt 0.872119 0.966381
vt 0.621831 0.980388
vt 0.622072 0.966519
vt 0.622369 0.980376
vt 0.825470 0.966510
vt 0.825647 0.980132
vt 0.825243 0.980132
vt 0.733715 0.966526
vt 0.733446 0.980438
vt 0.733169 0.966513
vt 0.631783 0.980382
vt 0.631493 0.966525
vt 0.632032 0.966517
vt 0.923241 0.966381
vt 0.923450 0.980083
vt 0.922969 0.980083
vt 0.742871 0.980388
vt 0.743119 0.966521
vt 0.743409 0.980376
vt 0.877285 0.966381
vt 0.876983 0.980083
vt 0.876742 0.966381
vt 0.970320 0.070385
vt 0.982073 0.069005
vt 0.982091 0.071742
vt 0.970320 0.049759
vt 0.982074 0.048359
vt 0.982090 0.051136
vt 0.272113 0.966568
vt 0.273423 0.985705
vt 0.270861 0.985734
vt 0.300196 0.985705
vt 0.297633 0.985734
vt 0.298886 0.966568
vt 0.278806 0.966568
vt 0.280116 0.985705
vt 0.277554 0.985734
vt 0.326969 0.985705
vt 0.324406 0.985734
vt 0.325659 0.966568
vt 0.976440 0.470468
vt 0.976447 0.473392
vt 0.970150 0.471822
vt 0.976653 0.459832
vt 0.976774 0.463784
vt 0.970318 0.461828
vt 0.737802 0.614404
vt 0.736387 0.614517
vt 0.737027 0.427001
vt 0.720219 0.614407
vt 0.718806 0.614532
vt 0.719329 0.426960
vt 0.726243 0.614407
vt 0.724830 0.614532
vt 0.725353 0.426960
vt 0.731779 0.614404
vt 0.730364 0.614517
vt 0.731004 0.427001
vt 0.346313 0.626121
vt 0.372814 0.626079
vt 0.359582 0.686570
vt 0.377000 0.626136
vt 0.403106 0.626077
vt 0.390071 0.686576
vt 0.441479 0.966550
vt 0.447162 0.983035
vt 0.435800 0.983066
vt 0.425783 0.966547
vt 0.431551 0.983035
vt 0.420020 0.983059
vt 0.695535 0.615266
vt 0.987389 0.382753
vt 0.987389 0.378750
vt 0.436313 0.221277
vt 0.812530 0.002000
vt 0.965569 0.978064
vt 0.926495 0.449982
vt 0.926634 0.449290
vt 0.963291 0.449932
vt 0.926530 0.454758
vt 0.926631 0.454314
vt 0.963256 0.454616
vt 0.258565 0.422739
vt 0.982135 0.027774
vt 0.436312 0.226619
vt 0.626077 0.116727
vt 0.631211 0.002000
vt 0.631211 0.203505
vt 0.210640 0.423001
vt 0.974198 0.477392
vt 0.788045 0.609423
vt 0.981781 0.117903
vt 0.982043 0.117645
vt 0.742507 0.609204
vt 0.742289 0.786734
vt 0.763844 0.786951
vt 0.643394 0.427057
vt 0.675659 0.609798
vt 0.240226 0.440466
vt 0.251864 0.440473
vt 0.970399 0.022680
vt 0.970142 0.022943
vt 0.206378 0.221452
vt 0.194783 0.423438
s 1
usemtl public_006_baked
f 11/1/1 13/2/2 10/3/1
f 14/4/3 16/5/3 17/6/3
f 23/7/2 25/8/2 26/9/2
f 28/10/4 30/11/5 27/12/6
f 31/13/7 33/14/7 34/15/7
f 35/16/8 36/17/8 37/18/8
f 38/19/9 40/20/9 41/21/9
f 44/22/10 46/23/10 43/24/10
f 51/25/11 53/26/11 50/27/11
f 54/28/12 56/29/13 52/30/14
f 57/31/15 58/32/15 59/33/15
f 61/34/16 62/35/16 60/36/16
f 65/37/17 67/38/18 45/39/19
f 60/40/20 12/41/20 11/42/20
f 57/31/21 31/43/21 34/44/21
f 35/16/22 58/32/22 36/17/22
f 31/43/23 38/19/23 32/45/23
f 23/46/24 21/47/24 22/48/24
f 37/49/25 12/50/25 35/51/25
f 40/52/9 50/53/9 41/54/9
f 28/10/26 14/55/26 17/56/26
f 43/57/27 29/58/27 28/59/27
f 49/60/28 53/26/29 52/61/30
f 9/62/31 20/63/32 19/64/33
f 42/65/34 48/66/35 47/67/36
f 33/43/37 64/68/37 63/69/37
f 11/42/1 26/9/38 25/8/38
f 66/70/39 61/34/39 60/36/39
f 55/71/40 24/72/40 56/73/40
f 66/74/41 15/75/41 67/76/41
f 55/77/42 44/22/42 43/24/42
f 52/78/30 62/79/43 49/80/28
f 20/81/44 16/82/44 19/83/44
f 48/84/45 29/85/45 47/86/45
f 64/87/46 45/88/19 63/89/47
f 4/90/48 3/91/48 5/92/48
f 4/93/48 5/94/48 3/95/48
f 6/96/49 7/97/50 8/98/51
f 7/99/50 6/100/49 8/101/51
f 20/102/32 9/103/31 13/104/52
f 9/105/53 26/106/54 10/3/55
f 9/105/53 21/47/56 26/106/54
f 19/64/57 21/107/56 9/62/53
f 58/108/58 35/109/58 12/110/58
f 60/40/59 11/42/59 16/111/59
f 13/104/60 12/112/60 16/113/60
f 11/42/61 17/114/61 16/111/61
f 14/115/62 16/116/62 12/117/62
f 11/42/59 25/8/59 28/59/59
f 60/40/59 16/111/59 66/74/59
f 18/118/63 19/119/57 17/56/64
f 37/120/65 15/121/66 14/115/67
f 18/118/63 17/56/64 27/12/68
f 19/64/57 18/122/63 21/107/56
f 22/123/69 18/124/70 30/125/71
f 30/125/72 29/126/72 25/127/72
f 25/8/59 55/71/59 43/57/59
f 48/128/35 42/129/34 23/130/73
f 25/131/74 28/132/74 48/128/35
f 25/8/59 43/57/59 28/59/59
f 42/133/75 56/134/75 24/135/76
f 38/136/77 47/86/77 29/85/77
f 44/137/78 40/138/78 29/85/78
f 15/139/78 33/140/78 67/141/78
f 34/44/79 15/142/80 36/17/81
f 34/44/79 36/17/81 59/33/23
f 32/143/82 31/144/82 66/70/82
f 59/145/83 61/34/83 31/144/84
f 46/146/58 67/147/58 33/148/58
f 31/149/23 38/150/23 41/151/23
f 63/69/85 39/152/86 32/45/87
f 47/67/88 41/21/89 50/27/90
f 40/52/91 39/153/86 45/154/92
f 40/52/93 45/154/93 44/22/93
f 51/155/94 40/52/94 44/22/94
f 47/67/88 50/27/90 42/65/95
f 51/155/96 55/77/96 56/29/96
f 58/156/97 49/157/98 61/34/74
f 53/158/78 62/159/78 56/160/78
f 62/159/99 57/161/99 58/162/99
f 39/163/86 63/89/85 45/88/92
f 64/164/46 65/37/17 45/39/19
f 69/165/23 68/166/23 70/167/48
f 68/168/23 69/169/23 70/170/48
f 71/171/48 73/172/74 72/173/74
f 73/174/74 71/175/48 72/176/74
f 74/177/48 76/178/48 75/179/48
f 74/180/48 75/181/48 76/182/48
f 77/183/48 79/184/48 78/185/48
f 77/186/48 78/187/48 79/188/48
f 80/189/48 82/190/48 81/191/48
f 80/192/48 81/193/48 82/194/48
f 84/195/74 85/196/74 83/197/74
f 83/198/74 85/199/74 84/200/74
f 86/201/100 88/202/101 87/203/23
f 88/204/101 86/205/100 87/206/23
f 90/207/48 91/208/74 89/209/74
f 91/210/74 90/211/48 89/212/74
f 92/213/48 94/214/48 93/215/48
f 92/216/48 93/217/48 94/218/48
f 95/219/48 96/220/48 97/221/48
f 95/222/48 97/223/48 96/224/48
f 98/225/48 100/226/48 99/227/48
f 98/228/48 99/229/48 100/230/48
f 102/231/102 103/232/103 101/233/104
f 101/234/104 103/235/103 102/236/102
f 104/237/105 106/238/106 105/239/107
f 106/240/106 104/241/105 105/242/107
f 107/243/48 109/244/74 108/245/74
f 109/246/74 107/247/48 108/248/74
f 111/249/48 112/250/48 110/251/48
f 111/252/48 110/253/48 112/254/48
f 113/255/48 114/256/48 115/257/48
f 113/258/48 115/259/48 114/260/48
f 117/261/48 118/262/48 116/263/48
f 117/264/48 116/265/48 118/266/48
f 120/267/48 121/268/48 119/269/48
f 120/270/48 119/271/48 121/272/48
f 123/273/58 122/274/58 124/275/58
f 122/276/58 123/277/58 124/278/58
f 126/279/48 127/280/48 125/281/48
f 127/282/48 126/283/48 125/284/48
f 128/285/48 129/286/48 130/287/48
f 128/288/48 130/289/48 129/290/48
f 132/291/74 131/292/74 133/293/74
f 131/294/74 132/295/74 133/296/74
f 136/297/94 134/298/94 135/299/94
f 134/300/94 136/301/94 135/302/94
f 138/303/48 137/304/48 139/305/48
f 138/306/48 139/307/48 137/308/48
f 141/309/108 140/310/109 142/311/110
f 140/312/109 141/313/108 142/314/110
f 143/315/48 144/316/111 145/317/58
f 144/318/111 143/319/48 145/320/58
f 146/321/94 148/322/94 147/323/94
f 148/324/94 146/325/94 147/326/94
f 151/327/48 150/328/48 149/329/48
f 151/330/48 149/331/48 150/332/48
f 152/333/48 153/334/48 154/335/48
f 152/336/48 154/337/48 153/338/48
f 155/339/48 156/340/48 157/341/48
f 155/342/48 157/343/48 156/344/48
f 159/345/112 160/346/113 158/347/114
f 160/348/113 159/349/112 158/350/114
f 161/351/48 162/352/48 163/353/48
f 162/354/48 161/355/48 163/356/48
f 166/357/48 165/358/48 164/359/48
f 166/360/48 164/361/48 165/362/48
f 167/363/48 168/364/48 169/365/48
f 167/366/48 169/367/48 168/368/48
f 170/369/48 172/370/48 171/371/48
f 170/372/48 171/373/48 172/374/48
f 174/375/115 175/376/116 173/377/117
f 173/378/117 175/379/116 174/380/115
f 176/381/23 177/382/118 178/383/119
f 177/384/118 176/385/23 178/386/119
f 181/387/48 180/388/48 179/389/48
f 180/390/48 181/391/48 179/392/48
f 182/393/48 184/394/48 183/395/48
f 182/396/48 183/397/48 184/398/48
f 186/399/48 187/400/48 185/401/48
f 186/402/48 185/403/48 187/404/48
f 188/405/48 190/406/48 189/407/48
f 188/408/48 189/409/48 190/410/48
f 192/411/48 193/412/48 191/413/48
f 192/414/48 191/415/48 193/416/48
f 196/417/78 195/418/78 194/419/78
f 195/420/78 196/421/78 194/422/78
f 197/423/48 199/424/48 198/425/48
f 199/426/48 197/427/48 198/428/48
f 200/429/48 201/430/48 202/431/48
f 200/432/48 202/433/48 201/434/48
f 203/435/48 205/436/48 204/437/48
f 203/438/48 204/439/48 205/440/48
f 207/441/48 206/442/48 208/443/48
f 206/444/48 207/445/48 208/446/48
f 211/447/120 210/448/121 209/449/121
f 209/450/121 210/451/121 211/452/120
f 213/453/122 212/454/123 214/455/124
f 212/456/123 213/457/122 214/458/124
f 215/459/125 216/460/126 217/461/127
f 216/462/126 215/463/125 217/464/127
f 220/465/48 218/466/48 219/467/48
f 218/468/48 220/469/48 219/470/48
f 223/471/74 221/472/74 222/473/74
f 221/474/74 223/475/74 222/476/74
f 226/477/48 224/478/48 225/479/48
f 226/480/48 225/481/48 224/482/48
f 228/483/48 227/484/48 229/485/48
f 228/486/48 229/487/48 227/488/48
f 231/489/128 230/490/129 232/491/130
f 230/492/129 231/493/128 232/494/130
f 234/495/48 235/496/48 233/497/48
f 235/498/48 234/499/48 233/500/48
f 236/501/48 238/502/48 237/503/48
f 236/504/48 237/505/48 238/506/48
f 239/507/48 241/508/48 240/509/48
f 239/510/48 240/511/48 241/512/48
f 242/513/48 244/514/48 243/515/48
f 242/516/48 243/517/48 244/518/48
f 247/519/78 245/520/78 246/521/78
f 246/522/78 245/523/78 247/524/78
f 248/525/131 249/526/132 250/527/133
f 249/528/132 248/529/131 250/530/133
f 252/531/48 251/532/48 253/533/48
f 251/534/48 252/535/48 253/536/48
f 254/537/48 256/538/48 255/539/48
f 254/540/48 255/541/48 256/542/48
f 258/543/48 257/544/48 259/545/48
f 258/546/48 259/547/48 257/548/48
f 261/549/48 262/550/48 260/551/48
f 261/552/48 260/553/48 262/554/48
f 264/555/78 263/556/78 265/557/78
f 265/558/78 263/559/78 264/560/78
f 267/561/134 268/562/135 266/563/136
f 268/564/135 267/565/134 266/566/136
f 269/567/48 271/568/48 270/569/48
f 271/570/48 269/571/48 270/572/48
f 273/573/48 274/574/48 272/575/48
f 273/576/48 272/577/48 274/578/48
f 275/579/48 277/580/48 276/581/48
f 275/582/48 276/583/48 277/584/48
f 278/585/48 280/586/48 279/587/48
f 278/588/48 279/589/48 280/590/48
f 281/591/48 282/592/48 283/593/48
f 281/594/48 283/595/48 282/596/48
f 284/597/137 286/598/138 285/599/139
f 286/600/138 284/601/137 285/602/139
f 287/603/59 289/604/59 288/605/59
f 289/606/59 287/607/59 288/608/59
f 291/609/48 292/610/48 290/611/48
f 291/612/48 290/613/48 292/614/48
f 294/615/48 293/616/48 295/617/48
f 293/618/48 294/619/48 295/620/48
f 297/621/48 298/622/48 296/623/48
f 297/624/48 296/625/48 298/626/48
f 301/627/78 300/628/78 299/629/78
f 299/630/78 300/631/78 301/632/78
f 302/633/140 303/634/141 304/635/142
f 303/636/141 302/637/140 304/638/142
f 305/639/59 307/640/59 306/641/59
f 307/642/59 305/643/59 306/644/59
f 309/645/48 310/646/48 308/647/48
f 309/648/48 308/649/48 310/650/48
f 313/651/48 312/652/48 311/653/48
f 313/654/48 311/655/48 312/656/48
f 314/657/48 316/658/48 315/659/48
f 314/660/48 315/661/48 316/662/48
f 318/663/48 319/664/48 317/665/48
f 318/666/48 317/667/48 319/668/48
f 322/669/143 320/670/94 321/671/144
f 320/672/94 322/673/143 321/674/144
f 325/675/48 323/676/48 324/677/48
f 323/678/48 325/679/48 324/680/48
f 327/681/48 326/682/48 328/683/48
f 326/684/48 327/685/48 328/686/48
f 331/687/48 330/688/48 329/689/48
f 330/690/48 331/691/48 329/692/48
f 334/693/48 332/694/48 333/695/48
f 332/696/48 334/697/48 333/698/48
f 337/699/94 335/700/94 336/701/94
f 336/702/94 335/703/94 337/704/94
f 340/705/145 339/706/74 338/707/146
f 339/708/74 340/709/145 338/710/146
f 341/711/48 342/712/48 343/713/48
f 342/714/48 341/715/48 343/716/48
f 344/717/48 346/718/48 345/719/48
f 346/720/48 344/721/48 345/722/48
f 349/723/48 347/724/48 348/725/48
f 347/726/48 349/727/48 348/728/48
f 352/729/48 350/730/48 351/731/48
f 350/732/48 352/733/48 351/734/48
f 353/735/48 354/736/48 355/737/48
f 353/738/48 355/739/48 354/740/48
f 357/741/147 356/742/148 358/743/149
f 356/744/148 357/745/147 358/746/149
f 359/747/59 360/748/59 361/749/59
f 360/750/59 359/751/59 361/752/59
f 362/753/48 364/754/48 363/755/48
f 362/756/48 363/757/48 364/758/48
f 365/759/48 367/760/48 366/761/48
f 365/762/48 366/763/48 367/764/48
f 369/765/48 370/766/48 368/767/48
f 369/768/48 368/769/48 370/770/48
f 373/771/150 371/772/151 372/773/152
f 372/774/152 371/775/151 373/776/150
f 374/777/153 376/778/154 375/779/155
f 376/780/154 374/781/153 375/782/155
f 377/783/48 379/784/48 378/785/48
f 379/786/48 377/787/48 378/788/48
f 382/789/48 380/790/48 381/791/48
f 382/792/48 381/793/48 380/794/48
f 385/795/48 383/796/48 384/797/48
f 383/798/48 385/799/48 384/800/48
f 387/801/48 386/802/48 388/803/48
f 387/804/48 388/805/48 386/806/48
f 391/807/48 390/808/48 389/809/48
f 389/810/48 390/811/48 391/812/48
f 393/813/48 394/814/74 392/815/74
f 394/816/74 393/817/48 392/818/74
f 396/819/48 397/820/48 395/821/48
f 396/822/48 395/823/48 397/824/48
f 398/825/48 399/826/48 400/827/48
f 398/828/48 400/829/48 399/830/48
f 401/831/48 403/832/48 402/833/48
f 401/834/48 402/835/48 403/836/48
f 404/837/48 406/838/48 405/839/48
f 404/840/48 405/841/48 406/842/48
f 407/843/48 408/844/48 409/845/48
f 407/846/48 409/847/48 408/848/48
f 411/849/156 412/850/157 410/851/158
f 412/852/157 411/853/156 410/854/158
f 414/855/48 413/856/48 415/857/48
f 413/858/48 414/859/48 415/860/48
f 416/861/59 418/862/59 417/863/59
f 417/864/59 418/865/59 416/866/59
f 419/867/94 420/868/94 421/869/94
f 420/870/94 419/871/94 421/872/94
f 422/873/48 423/874/48 424/875/48
f 422/876/48 424/877/48 423/878/48
f 425/879/23 426/880/23 427/881/23
f 426/882/23 425/883/23 427/884/23
f 429/885/94 428/886/94 430/887/94
f 428/888/94 429/889/94 430/890/94
f 432/891/48 433/892/48 431/893/48
f 432/894/48 431/895/48 433/896/48
f 435/897/48 434/898/48 436/899/48
f 435/900/48 436/901/48 434/902/48
f 437/903/48 438/904/48 439/905/48
f 437/906/48 439/907/48 438/908/48
f 442/909/159 441/910/160 440/911/160
f 440/912/160 441/913/160 442/914/159
f 444/915/161 445/916/162 443/917/162
f 443/918/162 445/919/162 444/920/161
f 447/921/48 446/922/48 448/923/48
f 446/924/48 447/925/48 448/926/48
f 449/927/163 450/928/164 451/929/165
f 451/930/165 450/931/164 449/932/163
f 452/933/166 454/934/167 453/935/168
f 454/936/167 452/937/166 453/938/168
f 456/939/48 455/940/48 457/941/48
f 456/942/48 457/943/48 455/944/48
f 459/945/48 460/946/48 458/947/48
f 458/948/48 460/949/48 459/950/48
f 461/951/169 462/952/170 463/953/170
f 462/954/170 461/955/169 463/956/170
f 466/957/48 465/958/48 464/959/48
f 466/960/48 464/961/48 465/962/48
f 468/963/48 467/964/48 469/965/48
f 468/966/48 469/967/48 467/968/48
f 470/969/48 472/970/48 471/971/48
f 470/972/48 471/973/48 472/974/48
f 475/975/48 474/976/48 473/977/48
f 473/978/48 474/979/48 475/980/48
f 477/981/78 478/982/78 476/983/78
f 476/984/78 478/985/78 477/986/78
f 480/987/171 479/988/171 481/989/74
f 479/990/171 480/991/171 481/992/74
f 484/993/172 482/994/173 483/995/174
f 483/996/174 482/997/173 484/998/172
f 485/999/94 486/1000/94 487/1001/94
f 486/1002/94 485/1003/94 487/1004/94
f 490/1005/48 489/1006/48 488/1007/48
f 488/1008/48 489/1009/48 490/1010/48
f 493/1011/48 491/1012/48 492/1013/48
f 492/1014/48 491/1015/48 493/1016/48
f 494/1017/74 496/1018/74 495/1019/74
f 496/1020/74 494/1021/74 495/1022/74
f 497/1023/48 498/1024/48 499/1025/48
f 497/1026/48 499/1027/48 498/1028/48
f 501/1029/48 502/1030/48 500/1031/48
f 500/1032/48 502/1033/48 501/1034/48
f 504/1035/48 503/1036/48 505/1037/48
f 504/1038/48 505/1039/48 503/1040/48
f 508/1041/175 507/1042/176 506/1043/176
f 506/1044/176 507/1045/176 508/1046/175
f 510/1047/161 511/1048/162 509/1049/162
f 509/1050/162 511/1051/162 510/1052/161
f 517/1053/58 515/1054/58 516/1055/58
f 515/1056/58 517/1057/58 516/1058/58
f 519/1059/48 518/1060/48 520/1061/48
f 518/1062/48 519/1063/48 520/1064/48
f 523/1065/23 521/1066/48 522/1067/48
f 521/1068/48 523/1069/23 522/1070/48
f 526/1071/177 525/1072/178 524/1073/23
f 525/1074/178 526/1075/177 524/1076/23
f 527/1077/48 528/1078/48 529/1079/48
f 527/1080/48 529/1081/48 528/1082/48
f 11/1/179 12/1083/179 13/2/179
f 14/4/180 15/1084/180 16/5/180
f 23/7/38 24/72/38 25/8/38
f 28/10/181 29/85/181 30/11/181
f 31/13/182 32/1085/182 33/14/182
f 38/19/183 39/152/86 40/20/91
f 44/22/184 45/154/185 46/23/186
f 51/25/187 52/61/187 53/26/187
f 54/28/188 55/77/188 56/29/13
f 57/31/61 49/60/98 58/32/97
f 61/34/189 49/157/189 62/35/189
f 65/37/190 66/70/190 67/38/191
f 9/105/53 10/3/55 13/2/55
f 60/40/192 62/1086/192 12/41/192
f 57/31/193 59/33/193 31/43/193
f 35/16/194 59/33/194 58/32/194
f 42/65/95 50/27/90 53/26/195
f 38/19/89 41/21/89 47/67/89
f 31/43/196 39/152/196 38/19/196
f 23/46/54 26/106/54 21/47/56
f 18/118/68 27/12/68 30/11/68
f 22/1087/69 21/107/197 18/122/70
f 37/49/198 13/1088/198 12/50/198
f 40/52/199 51/155/199 50/53/199
f 513/1089/48 514/1090/48 512/1091/48
f 514/1092/48 513/1093/48 512/1094/48
f 28/10/4 27/12/6 14/55/200
f 34/44/201 33/43/201 15/142/201
f 43/57/202 46/1095/202 29/58/202
f 49/60/28 57/31/203 53/26/29
f 42/133/75 24/135/76 23/1096/204
f 33/43/205 32/45/205 64/68/205
f 11/42/1 10/1097/1 26/9/38
f 66/70/190 65/37/190 61/34/206
f 55/71/38 25/8/38 24/72/38
f 45/1098/185 67/1099/207 46/1100/186
f 37/18/65 36/17/208 15/142/66
f 66/74/209 16/111/209 15/75/209
f 55/77/188 54/28/188 44/22/210
f 52/78/30 56/1101/211 62/79/43
f 20/81/212 17/1102/212 16/82/212
f 48/84/213 30/11/213 29/85/213
f 16/113/74 20/102/32 13/104/52
f 12/112/214 11/1103/214 16/113/214
f 61/1104/58 58/108/58 12/110/58
f 12/110/58 62/1105/58 61/1104/58
f 11/42/215 28/59/215 17/114/215
f 12/117/216 37/120/65 14/115/67
f 26/1106/217 22/123/217 25/127/217
f 22/123/69 30/125/71 25/127/94
f 29/126/218 28/1107/218 25/127/218
f 29/1108/219 48/128/219 28/132/219
f 48/128/35 23/130/73 25/131/74
f 38/136/78 29/85/78 40/138/78
f 29/85/78 46/1109/78 44/137/78
f 67/38/220 33/1110/220 66/70/220
f 33/1110/221 32/143/221 66/70/221
f 31/144/84 61/34/83 66/70/84
f 59/145/217 58/156/217 61/34/217
f 31/149/58 46/146/58 33/148/58
f 40/1111/217 44/1112/217 41/151/217
f 41/151/222 44/1112/222 46/146/222
f 46/146/223 31/149/223 41/151/223
f 65/37/17 64/164/46 33/1110/74
f 65/37/224 33/1110/224 67/38/224
f 56/134/225 42/133/226 51/1113/227
f 42/133/226 53/1114/228 51/1113/227
f 51/155/229 44/22/229 55/77/229
f 54/28/12 52/30/14 51/155/94
f 54/28/230 51/155/230 56/29/230
f 56/160/78 51/1115/78 53/158/78
f 62/159/231 53/158/231 57/161/231
f 58/162/78 61/1116/78 62/159/78
l 1 2
