# Blender 4.5.0
# www.blender.org
mtllib school_001.lod2.mtl
o school_001
v -25.900000 0.064255 25.900000
v -25.900000 0.061088 -25.900000
v 23.335306 0.086216 4.496229
v -21.010725 4.658926 7.901715
v 23.836670 8.038863 4.996302
v 21.366985 4.661047 20.097004
v 20.924503 1.073877 7.471840
v -21.008137 1.081826 7.898822
v 20.924503 2.923984 7.475931
v -20.991335 1.079881 7.893116
v -20.560192 1.081827 20.541866
v -20.984808 2.917981 7.893116
v -21.008137 1.081827 20.097004
v 20.924503 2.923986 20.523985
v 20.924503 1.073878 20.519896
v 21.350185 2.917982 7.893116
v 21.343658 1.079881 7.893116
v 20.919041 1.081827 20.541866
v 20.924503 6.503203 7.475930
v -21.008137 6.495255 7.898822
v 20.924503 4.653097 7.471840
v -20.560192 6.495256 20.541866
v -20.991335 4.659100 7.893116
v -20.984808 6.497199 7.893115
v -20.565655 6.503204 20.519896
v -20.565655 4.653098 20.523985
v 21.366985 6.495256 20.097004
v 20.919041 6.495256 20.541866
v 21.350185 6.497199 7.893115
v 21.343658 4.659100 7.893116
v -21.008137 10.074475 7.898821
v 20.924503 8.232317 7.471840
v 20.924503 10.082425 7.475930
v -20.991337 8.238325 7.893116
v -20.560192 8.240267 20.541866
v -20.984808 10.076420 7.893115
v -21.008137 8.240267 20.097004
v 20.924503 8.232319 20.519896
v 20.924503 10.082426 20.523985
v 21.350185 10.076420 7.893115
v 21.343657 8.238325 7.893116
v 20.919041 8.240267 20.541866
v -19.950296 11.040002 7.329729
v -19.893074 0.085042 7.496141
v -19.961954 11.040002 7.518056
v -19.950294 11.040001 20.477770
v -20.019167 0.085043 20.644186
v -19.961956 11.040002 20.666096
v -16.728607 11.040001 7.329729
v -16.740267 11.040001 7.518055
v -16.797478 0.085042 7.496148
v -16.728605 11.040001 20.477770
v -16.740267 11.040001 20.666096
v -16.797478 0.085043 20.644186
v -13.506918 11.039999 7.329730
v -13.575789 0.085042 7.496148
v -13.518579 11.040000 7.518054
v -13.575789 0.085043 20.644186
v -13.518581 11.040000 20.666094
v -13.506917 11.039999 20.477770
v -10.285231 11.039999 7.329730
v -10.296891 11.040000 7.518054
v -10.354102 0.085042 7.496148
v -10.285230 11.039999 20.477770
v -10.354102 0.085043 20.644186
v -10.296893 11.040000 20.666094
v -7.006324 0.085042 7.496141
v -7.063544 11.040000 7.329728
v -7.075200 11.040000 7.518056
v -7.063542 11.040000 20.477768
v -7.075201 11.040000 20.666096
v -7.006324 0.085043 20.644180
v -3.853512 11.039999 7.518054
v -3.784636 0.085042 7.496141
v -3.841852 11.040000 7.329730
v -3.784636 0.085043 20.644180
v -3.853513 11.040000 20.666094
v -3.841851 11.040000 20.477770
v -0.689039 0.085042 7.496148
v -0.631828 11.040001 7.518055
v -0.620166 11.040001 7.329729
v -0.620165 11.040000 20.477770
v -0.689039 0.085043 20.644186
v -0.631829 11.040001 20.666094
v 2.532649 0.085042 7.496148
v 2.601522 11.040001 7.329729
v 2.589860 11.040001 7.518056
v 2.601523 11.040001 20.477770
v 2.532649 0.085043 20.644186
v 2.589859 11.040001 20.666096
v 5.823207 11.039999 7.329731
v 5.811548 11.040000 7.518055
v 5.754329 0.085042 7.351645
v 5.823209 11.039999 20.477772
v 5.754329 0.085043 20.499683
v 5.811547 11.040000 20.666096
v 9.102115 0.085042 7.496141
v 9.033236 11.039999 7.518054
v 9.044896 11.039999 7.329730
v 9.044899 11.039999 20.477770
v 8.976025 0.085043 20.644186
v 9.033235 11.040000 20.666094
v 12.323803 0.085042 7.496141
v 12.254925 11.039999 7.518054
v 12.266585 11.039999 7.329730
v 12.266587 11.039999 20.477770
v 12.254924 11.039999 20.666094
v 12.197714 0.085043 20.644186
v 15.488274 11.039999 7.329730
v 15.476613 11.039999 7.518054
v 15.545491 0.085042 7.496141
v 15.419401 0.085043 20.644186
v 15.476611 11.040000 20.666094
v 15.488275 11.039999 20.477770
v 18.698299 11.040002 7.518056
v 18.709959 11.040002 7.329728
v 18.767179 0.085042 7.496141
v 18.641087 0.085043 20.644186
v 18.698299 11.040002 20.666096
v 18.709961 11.040001 20.477768
v 17.697351 3.184474 -22.744038
v 8.739081 8.038863 4.996317
v 21.369574 2.918155 7.901716
v 17.700474 3.187031 -20.048405
v 23.836107 8.041420 4.999254
v 8.739622 8.732266 4.999254
v 7.228422 0.095888 -18.998652
v -14.966552 0.047828 -9.996134
v 7.228422 0.094079 5.000739
v -14.914554 0.017244 -16.994856
v -14.908635 2.437556 -17.039213
v -14.966552 0.047828 -16.995090
v -14.955263 2.428862 -16.968023
v -14.914839 2.434579 -16.950825
v -14.970131 2.445216 -16.997465
v -14.966552 2.429056 -16.994894
v -14.966552 2.433780 -16.994894
v -14.967360 2.429538 -16.996626
v -14.964053 2.431418 -16.997465
v -14.966552 2.428862 -16.999840
v -14.903049 0.025132 -10.024121
v -14.912899 2.434881 -10.046588
v -14.968575 0.027252 -9.993383
v -14.955263 2.428862 -9.969069
v -14.908640 2.437586 -9.954839
v -14.877514 2.430297 -9.998509
v -14.877923 2.429056 -10.001080
v -14.877923 2.433781 -10.001080
v -14.877923 2.427106 -9.997277
v -14.874344 2.440109 -16.997465
v -14.876949 2.428334 -16.997423
v -14.877923 2.433780 -16.994894
v -14.877923 2.429056 -16.994894
v -14.902978 2.389072 -16.996519
v -14.953597 2.399935 -16.994965
v -14.951999 2.402028 -16.997465
v -14.890454 2.460390 -16.997465
v -14.924850 2.480378 -16.998758
v -14.955263 2.460693 -10.001080
v -14.932693 2.475252 -9.999421
v -14.969545 2.429031 -10.000910
v -14.964053 2.431419 -9.998509
v -14.966552 2.428862 -10.000884
v -14.964953 2.418567 -9.998509
v -14.968534 2.433781 -9.996421
v -14.968534 2.429056 -9.995938
v -14.932019 2.373686 -10.007205
v -14.953145 2.402471 -9.998509
v -14.890203 2.402136 -16.997465
v -14.892184 2.461098 -9.998509
v -14.890370 2.462386 -10.000971
v 3.209309 0.017257 -16.995207
v 3.218735 2.436970 -16.954231
v 3.203142 2.435454 -17.045696
v 3.155443 0.047828 -16.995090
v 3.166731 2.428862 -16.968023
v 3.153419 0.027252 -9.993383
v 3.218957 0.025128 -10.024096
v 3.204374 2.434620 -10.047386
v 3.166731 2.428862 -9.969069
v 3.224734 2.438852 -9.956367
v 3.243324 2.433135 -9.998509
v 3.244071 2.429056 -10.001080
v 3.242579 2.431419 -9.999530
v 3.242768 2.431419 -10.000788
v 3.152450 2.429031 -10.000910
v 3.157941 2.431419 -9.998509
v 3.155443 2.428862 -10.000884
v 3.157041 2.418566 -9.998509
v 3.153461 2.433781 -9.996327
v 3.153461 2.429056 -9.995938
v 3.202155 2.478326 -9.999264
v 3.189233 2.373866 -10.006960
v 3.180611 2.472748 -16.999084
v 3.166731 2.460693 -10.001080
v 3.156455 2.429031 -16.995064
v 3.157941 2.431418 -16.997465
v 3.155443 2.428862 -16.999840
v 3.154949 2.429056 -16.994894
v 3.155443 2.433780 -16.994894
v 3.157454 2.432646 -16.997465
v 3.167136 2.400964 -16.994844
v 3.222125 2.384160 -16.996563
v 3.168901 2.402596 -9.998509
v 3.243659 2.429031 -16.998428
v 3.242260 2.431418 -16.997465
v 3.242474 2.430910 -16.997465
v 3.244111 2.433687 -16.994894
v 3.244071 2.429056 -16.994894
v 3.231753 2.400638 -16.995510
v 3.231115 2.462889 -16.995005
v 3.229811 2.461098 -16.997465
v 3.232784 2.460693 -10.001591
v -23.978659 1.550549 -24.010439
v -24.030983 1.534060 23.996422
v -23.987812 0.031334 -24.010439
v 24.337507 0.031334 -24.010439
v 24.346663 1.550549 -24.010439
v 24.389833 1.534060 23.996422
v -23.231117 0.492021 -25.546190
v -25.339260 0.493973 -23.446505
v -25.540771 0.045923 -25.546190
v -25.342384 1.286756 -23.449608
v -23.432611 1.286708 -25.346220
v -23.230740 0.492673 -23.249104
v -23.432632 0.493976 23.446505
v -23.231117 0.045927 25.546190
v -25.540771 0.492025 25.546190
v -25.342384 1.286760 25.343119
v -23.230740 0.492677 25.543619
v -23.432611 1.286712 23.446505
v 23.589968 0.045923 -25.546190
v 23.791481 0.493973 -23.446505
v 25.899622 0.492021 -25.546190
v 23.791481 1.286756 -25.346220
v 23.791460 1.286708 -23.446505
v 25.900000 0.492673 -23.249104
v 25.698109 0.493976 23.446505
v 23.589968 0.492025 25.546190
v 25.899622 0.045927 25.546190
v 23.589590 0.492677 23.249104
v 25.698109 1.286760 25.346220
v 25.698132 1.286712 23.446505
v -14.357878 0.538559 -23.662804
v -16.684097 0.684474 -23.211061
v -14.357877 0.526325 -23.130219
v -16.689341 0.675674 -23.162210
v -14.368509 0.684461 -23.210981
v -16.689341 1.234305 -23.170881
v -16.396538 0.469827 -23.626476
v -16.349506 0.034050 -23.154610
v -16.354216 0.484010 -23.154610
v -14.656069 0.048233 -23.626476
v -14.698390 0.034063 -23.154602
v -14.703103 0.483997 -23.154602
v 17.042948 0.684461 -23.210981
v 14.716727 0.526325 -23.662804
v 14.716727 0.538559 -23.130219
v 17.048189 1.234305 -23.162210
v 14.727359 0.684474 -23.211061
v 17.048189 0.675674 -23.170881
v 15.104273 0.048233 -23.626476
v 15.061953 0.034062 -23.154602
v 15.057240 0.483997 -23.154602
v 16.755388 0.048233 -23.626476
v 16.708357 0.484010 -23.154610
v 16.713064 0.034050 -23.154610
v -3.338712 -0.000002 -24.390806
v -3.288070 0.894538 -24.449884
v -3.386393 0.916157 -24.348944
v 3.708731 -0.000002 -24.390806
v 3.759372 0.894538 -24.449884
v 3.661050 0.916157 -24.348944
v 18.120199 3.025398 -20.590359
v 23.763737 3.115936 -22.760731
v 23.763737 3.099049 -20.032887
v 18.102940 3.044999 -20.538393
v 18.238424 0.045271 -20.590359
v 18.258272 3.044999 -20.527485
v 23.260256 3.044998 -20.610071
v 23.249273 3.044999 -20.455809
v 23.196947 0.045271 -20.590359
v 18.711527 0.744202 -21.919550
v 18.731888 0.749923 -21.896734
v 18.729265 0.738145 -21.896656
v 18.728308 0.743593 -21.894163
v 18.728308 0.738868 -21.894163
v 18.708366 0.030451 -21.895245
v 18.700638 0.720037 -21.884903
v 18.682449 0.741230 -21.896734
v 18.679951 0.738674 -21.899109
v 18.676373 0.741738 -21.896734
v 18.677969 0.738868 -21.899818
v 18.677969 0.743593 -21.899670
v 18.679951 0.047827 -21.894360
v 18.708204 0.742494 -21.871271
v 18.685341 0.738674 -21.881433
v 18.719536 0.722676 -21.894163
v 18.699785 0.770627 -21.892595
v 18.721655 0.756150 -21.896734
v 18.679651 0.744822 -21.191359
v 18.685341 0.756444 -21.894163
v 18.679951 0.738868 -21.199411
v 18.721928 0.726009 -21.896734
v 19.514168 0.030450 -21.895121
v 19.511587 0.742970 -21.923056
v 19.510599 0.713590 -21.887608
v 19.487871 0.741230 -21.896734
v 19.485373 0.738674 -21.899109
v 19.481792 0.741738 -21.896734
v 19.483391 0.738868 -21.899818
v 19.483391 0.743593 -21.899670
v 19.533342 0.738843 -21.897640
v 19.531919 0.741230 -21.896734
v 19.532133 0.740723 -21.896734
v 19.533731 0.743593 -21.894163
v 19.533731 0.738868 -21.894163
v 19.519918 0.743749 -21.873074
v 19.485373 0.047827 -21.894360
v 19.490763 0.738674 -21.881433
v 19.524960 0.722676 -21.894163
v 19.485073 0.744822 -21.191359
v 19.499884 0.764756 -21.894941
v 19.490763 0.756444 -21.894163
v 19.485373 0.738868 -21.199411
v 19.526674 0.758641 -21.894272
v 19.525370 0.756849 -21.896734
v 20.290796 0.047827 -21.894360
v 20.319551 0.030447 -21.895069
v 20.312540 0.718821 -21.885071
v 20.293295 0.741230 -21.896734
v 20.290796 0.738674 -21.899109
v 20.287216 0.741738 -21.896734
v 20.288815 0.738868 -21.899818
v 20.288815 0.743593 -21.899670
v 20.296186 0.738674 -21.881433
v 20.319178 0.741646 -21.870947
v 20.316956 0.742906 -21.923147
v 20.330379 0.722676 -21.894163
v 20.310333 0.770560 -21.893414
v 20.296186 0.756444 -21.894163
v 20.290796 0.738868 -21.199411
v 20.302364 0.743916 -21.184320
v 20.339151 0.738868 -21.894163
v 20.338213 0.739152 -21.896734
v 20.339647 0.742411 -21.894756
v 20.339424 0.738625 -21.896004
v 20.337261 0.741230 -21.897921
v 20.339045 0.743849 -21.199411
v 21.125010 0.030451 -21.895121
v 21.122431 0.742970 -21.923056
v 21.101606 0.738674 -21.881433
v 21.130762 0.743750 -21.873074
v 21.121443 0.713591 -21.887608
v 21.098715 0.741230 -21.896734
v 21.096216 0.738674 -21.899109
v 21.092638 0.741738 -21.896734
v 21.094234 0.738868 -21.899818
v 21.094234 0.743593 -21.899670
v 21.096216 0.047827 -21.894360
v 21.144188 0.738843 -21.897640
v 21.142765 0.741230 -21.896734
v 21.142977 0.740723 -21.896734
v 21.144575 0.743593 -21.894163
v 21.144575 0.738868 -21.894163
v 21.137516 0.758640 -21.894272
v 21.136215 0.756849 -21.896734
v 21.095917 0.744822 -21.191359
v 21.110729 0.764756 -21.894941
v 21.101606 0.756444 -21.894163
v 21.096216 0.738868 -21.199411
v 21.135803 0.722676 -21.894163
v 21.930431 0.030450 -21.895121
v 21.927853 0.742970 -21.923056
v 21.907030 0.738674 -21.881433
v 21.936184 0.743750 -21.873074
v 21.949608 0.738843 -21.897640
v 21.948185 0.741230 -21.896734
v 21.948399 0.740723 -21.896734
v 21.949997 0.743593 -21.894163
v 21.949997 0.738868 -21.894163
v 21.901640 0.047827 -21.894360
v 21.926865 0.713592 -21.887608
v 21.941225 0.722676 -21.894163
v 21.904139 0.741230 -21.896734
v 21.901640 0.738674 -21.899109
v 21.898060 0.741738 -21.896734
v 21.899658 0.738868 -21.899818
v 21.899658 0.743593 -21.899670
v 21.901340 0.744822 -21.191359
v 21.916151 0.764756 -21.894941
v 21.901640 0.738868 -21.199411
v 21.907030 0.756444 -21.894163
v 21.942938 0.758640 -21.894272
v 21.941635 0.756849 -21.896734
v 22.706345 0.039754 -21.892855
v 22.707062 0.047827 -21.899109
v 22.747770 0.037567 -21.912117
v 22.712452 0.738674 -21.912035
v 22.755005 0.738843 -21.897697
v 22.753607 0.741230 -21.896734
v 22.753820 0.740723 -21.896734
v 22.755417 0.743593 -21.894163
v 22.755417 0.738868 -21.894163
v 22.729012 0.731168 -21.864191
v 22.735928 0.741885 -21.922441
v 22.716444 0.741230 -21.880293
v 22.738291 0.711029 -21.894323
v 22.728952 0.767656 -21.897783
v 22.733379 0.744326 -21.182056
v 22.703482 0.741230 -21.897243
v 22.707062 0.743593 -21.894163
v 22.709072 0.742458 -21.896734
v 22.705851 0.741230 -21.894163
v 22.705080 0.744414 -21.899109
v 22.705080 0.744414 -21.894360
v 22.707062 0.738868 -21.199411
v 22.748978 0.724487 -21.894751
v 22.747057 0.756849 -21.896734
v 23.541277 0.030450 -21.895121
v 23.538698 0.742971 -21.923056
v 23.537708 0.713590 -21.887608
v 23.514980 0.741230 -21.896734
v 23.512482 0.738674 -21.899109
v 23.508904 0.741738 -21.896734
v 23.510500 0.738868 -21.899818
v 23.510500 0.743593 -21.899670
v 23.517872 0.738674 -21.881433
v 23.547028 0.743749 -21.873074
v 23.512482 0.047827 -21.894360
v 23.560453 0.738843 -21.897640
v 23.559031 0.741230 -21.896734
v 23.559242 0.740723 -21.896734
v 23.560841 0.743593 -21.894163
v 23.560841 0.738868 -21.894163
v 23.553783 0.758640 -21.894272
v 23.552481 0.756849 -21.896734
v 23.526995 0.764756 -21.894941
v 23.512182 0.744822 -21.191359
v 23.517872 0.756444 -21.894163
v 23.512482 0.738868 -21.199411
v 23.552069 0.722676 -21.894163
v -24.785767 0.045271 -20.099180
v -23.986122 0.045271 -20.694738
v -24.785767 1.834881 -20.694738
v -24.081913 0.689114 -20.718086
v -24.689980 0.689115 -20.715736
v -24.685390 1.536613 -20.726837
vn -0.7172 -0.0000 -0.6968
vn 0.7480 -0.3209 -0.5810
vn 0.7479 -0.3208 -0.5812
vn 0.8217 0.0001 -0.5699
vn 0.8217 0.0003 -0.5699
vn 0.8217 -0.0002 -0.5699
vn 0.4592 0.0906 0.8837
vn -0.8560 -0.4383 -0.2741
vn 0.4674 0.0726 0.8811
vn 0.0126 0.9992 -0.0380
vn 0.8472 -0.0073 -0.5313
vn 0.8344 -0.0000 -0.5511
vn 0.8344 -0.0001 -0.5511
vn -0.0693 -0.8258 -0.5596
vn 0.8492 -0.0000 -0.5281
vn -0.0692 -0.8257 -0.5599
vn -0.3856 0.3148 0.8673
vn -0.3847 0.3151 0.8676
vn -0.3854 0.3149 0.8674
vn -0.0692 -0.8258 -0.5597
vn 0.8501 -0.0000 -0.5266
vn 0.8496 -0.0000 -0.5274
vn -0.0693 -0.8260 -0.5594
vn -0.1972 0.5688 0.7985
vn -0.0689 -0.8260 -0.5594
vn 0.9970 0.0486 0.0600
vn -0.2401 0.9705 0.0224
vn -0.6732 0.7394 0.0068
vn 0.9970 0.0487 0.0598
vn -0.2401 0.9705 0.0223
vn -0.6729 0.7397 0.0068
vn 0.0033 -0.0020 -1.0000
vn -0.5548 -0.0137 -0.8319
vn 0.0040 -0.0025 -1.0000
vn -0.1981 0.9696 0.1433
vn 0.7841 0.6206 -0.0043
vn -0.5541 0.8324 0.0057
vn -0.1338 0.9906 0.0296
vn -0.2257 0.9624 0.1510
vn -0.0233 0.9997 0.0057
vn -0.8064 -0.5913 -0.0007
vn 0.6880 0.2970 0.6621
vn -0.1888 0.9719 0.1408
vn -0.4666 0.8583 0.2138
vn 0.7216 0.3189 -0.6144
vn -0.3307 -0.4568 -0.8258
vn -0.3307 -0.4569 -0.8258
vn -0.2494 0.9464 0.2053
vn -0.2243 0.9534 0.2019
vn -0.2243 0.9534 0.2018
vn -0.2149 0.9559 0.2003
vn -0.2236 0.9536 0.2015
vn -0.2236 0.9536 0.2016
vn -0.2239 0.9535 0.2017
vn -0.4563 0.7151 0.5296
vn -0.7945 -0.0213 0.6069
vn 0.0611 0.8626 0.5022
vn -0.5220 0.4055 -0.7504
vn -0.5220 0.4054 -0.7504
vn 0.9135 -0.3933 -0.1036
vn 0.0494 0.9987 0.0099
vn 0.0692 0.9968 0.0399
vn 0.2622 0.9636 0.0524
vn -0.5433 0.4552 -0.7054
vn 0.9971 0.0486 0.0581
vn 0.1917 0.9438 0.2692
vn -0.7010 0.7132 0.0061
vn -0.5436 0.4556 -0.7049
vn 0.7379 -0.2517 0.6262
vn 0.7376 -0.2517 0.6266
vn 0.7377 -0.2517 0.6264
vn -0.5437 0.4560 -0.7046
vn 0.3069 0.9509 0.0392
vn -0.0058 0.9993 0.0375
vn -0.7065 0.7075 0.0186
vn -0.5438 0.4560 -0.7045
vn -0.5436 0.4557 -0.7049
vn 0.9970 0.0487 0.0599
vn -0.6736 0.7391 0.0068
vn -0.2977 0.8646 -0.4048
vn -0.0057 -0.0002 -1.0000
vn -0.3203 0.2123 -0.9232
vn -0.5997 0.4460 -0.6644
vn -0.5431 0.4550 -0.7057
vn -0.6731 0.7395 0.0068
vn -0.8963 0.4054 0.1798
vn -0.1121 -0.4882 -0.8655
vn -0.0171 -0.0337 -0.9993
vn -0.1714 -0.6987 -0.6946
vn 0.6844 -0.6935 0.2251
vn 0.6843 -0.6936 0.2250
vn 0.8612 0.2823 -0.4227
vn 0.0983 0.2660 -0.9589
vn -0.0242 0.1458 -0.9890
vn 0.1857 0.7451 -0.6406
vn 0.0984 0.2658 -0.9590
vn -0.0241 0.1458 -0.9890
vn 0.1863 0.7445 -0.6411
vn 0.1860 0.7448 -0.6409
vn 0.0984 0.2663 -0.9589
vn -0.0243 0.1459 -0.9890
vn 0.1861 0.7451 -0.6404
vn -0.4244 -0.0013 -0.9055
vn 0.4728 -0.8498 -0.2330
vn -0.3035 -0.9383 0.1659
vn -0.1606 0.2236 0.9614
vn -0.9946 0.1039 -0.0003
vn 1.0000 -0.0082 -0.0000
vn 0.0256 0.1084 0.9938
vn 0.0258 0.1082 0.9938
vn 0.0259 0.1080 0.9938
vn -0.6052 -0.2541 -0.7544
vn -0.7993 -0.5934 0.0951
vn 0.4114 0.3867 0.8254
vn 0.4115 0.3882 0.8246
vn 0.4112 0.3874 0.8252
vn 0.7131 0.3297 -0.6187
vn 0.7132 0.3295 -0.6187
vn 0.7134 0.3293 -0.6186
vn 0.7142 0.3304 -0.6170
vn 0.7133 0.3302 -0.6182
vn 0.0895 0.2438 0.9657
vn 0.6457 0.7503 -0.1420
vn -0.4378 -0.4651 -0.7695
vn -0.4376 -0.4654 -0.7694
vn -0.4377 -0.4652 -0.7694
vn 0.7128 0.3294 -0.6192
vn 0.7129 0.3291 -0.6192
vn 0.7132 0.3288 -0.6191
vn 0.0358 0.9992 0.0201
vn 0.0402 0.9985 0.0363
vn 0.2199 0.9743 0.0483
vn 0.8649 -0.3612 -0.3485
vn 0.8660 -0.3608 -0.3462
vn 0.5022 -0.8244 0.2611
vn 0.8757 -0.4734 -0.0953
vn 0.4537 -0.2450 0.8568
vn 0.5154 -0.8106 -0.2779
vn 0.5022 -0.8245 0.2608
vn 0.8758 -0.4738 -0.0923
vn 0.4537 -0.2444 0.8570
vn 0.5023 -0.8244 0.2611
vn 0.8758 -0.4736 -0.0931
vn 0.4536 -0.2445 0.8570
vn 0.9089 -0.4038 -0.1043
vn 0.9089 -0.4038 -0.1042
vn 0.5022 -0.8242 0.2618
vn 0.8758 -0.4735 -0.0938
vn 0.4535 -0.2449 0.8570
vn 0.7025 -0.7113 0.0254
vn 0.5704 -0.6188 0.5401
vn 0.3634 -0.4479 0.8169
vn 0.1225 0.3516 -0.9281
vn 0.0028 -0.0114 -0.9999
vn 0.1962 0.7410 -0.6422
vn -0.4247 -0.0013 -0.9053
vn 0.4709 -0.8511 -0.2320
vn -0.2906 -0.9429 0.1629
vn -1.0000 -0.0000 -0.0003
vn 1.0000 -0.0000 -0.0000
vn -0.0033 -0.0020 -1.0000
vn -0.6851 -0.0167 -0.7283
vn -0.0026 -0.0026 -1.0000
vn -0.0353 -0.0069 -0.9994
vn -0.5300 -0.0259 -0.8476
vn -0.0297 -0.0088 -0.9995
vn -1.0000 -0.0001 0.0028
vn -0.2828 -0.3758 -0.8825
vn -0.1120 0.0608 0.9918
vn 0.0326 -0.0136 0.9994
vn -0.0306 -0.0069 -0.9995
vn -0.6597 -0.0311 -0.7509
vn -0.0267 -0.0090 -0.9996
vn -0.0069 0.0030 1.0000
vn -0.0288 -0.0069 -0.9996
vn -0.6619 -0.0311 -0.7489
vn -0.0036 -0.0115 -0.9999
vn -0.0266 -0.0089 -0.9996
vn -0.0069 0.0029 1.0000
vn -0.9932 -0.0020 -0.1162
vn 0.1226 0.0289 0.9920
vn 0.9768 -0.2119 0.0318
vn 0.9094 0.4149 0.0277
vn -1.0000 0.0002 0.0028
vn -0.0000 -0.0000 -0.0000
vn -0.0000 0.0125 -0.9999
vn -0.0000 0.0156 -0.9999
vn -0.0000 0.0170 -0.9999
vn -0.0000 0.0064 1.0000
vn -0.0000 0.0051 1.0000
vn -0.0000 0.0071 1.0000
vn -0.0000 0.0830 -0.9965
vn -0.0000 0.1240 -0.9923
vn 0.9995 0.0312 -0.0000
vn 0.9965 0.0830 -0.0000
vn -0.0000 0.1240 0.9923
vn -0.0000 0.0830 0.9965
vn 0.8338 0.1824 -0.5211
vn 0.8831 0.1587 -0.4415
vn 0.8081 0.1957 -0.5556
vn -1.0000 -0.0000 -0.0000
vn -0.9698 0.0890 0.2273
vn -0.9572 0.1066 0.2692
vn -0.9757 0.0813 0.2033
vn -0.0000 -1.0000 -0.0000
vn -0.0000 0.0624 -0.9981
vn -0.0000 0.0312 -0.9995
vn -0.0000 -0.0000 -1.0000
vn -0.0000 0.9466 0.3223
vn -0.0000 0.9858 0.1678
vn -0.0000 0.9719 0.2356
vn -0.0000 -0.2425 0.9701
vn -0.0000 -0.0624 0.9981
vn -0.0000 -0.1240 0.9923
vn -0.9980 0.0078 0.0624
vn -0.0000 0.0624 0.9981
vn -0.0000 1.0000 -0.0000
vn -0.0000 -0.0000 1.0000
vn -0.9829 -0.0000 0.1843
vn -0.4411 -0.8821 0.1654
vn 0.0605 0.9684 -0.2421
vn 0.0836 0.8913 -0.4456
vn 0.0874 0.9327 -0.3498
vn 0.3432 -0.0159 0.9391
vn 0.3146 -0.0035 0.9492
vn 0.2454 -0.0177 0.9693
vn -0.9327 -0.0000 -0.3606
vn 0.1944 -0.0187 -0.9808
vn -0.0112 -0.0113 0.9999
vn -0.9424 0.0007 0.3345
vn -0.2819 0.9296 -0.2375
vn -0.9063 -0.0000 0.4226
vn 0.0089 -0.0493 -0.9987
vn -0.8546 -0.5193 0.0001
vn -0.9137 -0.4065 0.0013
vn -0.6273 -0.7788 -0.0010
vn 0.7107 -0.7035 0.0014
vn -0.0290 0.9996 -0.0011
vn -0.7452 0.6669 0.0002
vn -0.9215 0.3883 -0.0029
vn 0.3150 -0.0143 0.9490
vn -0.9875 -0.0000 0.1575
vn -0.9424 0.0018 0.3344
vn -0.7562 -0.0134 -0.6542
vn 0.1059 -0.0089 -0.9943
vn 0.0189 0.9994 -0.0303
vn 0.8522 0.4058 -0.3303
vn 0.3892 -0.9212 -0.0018
vn 0.8474 -0.5310 -0.0000
vn 0.7159 -0.6982 0.0014
vn 0.0358 -0.0302 0.9989
vn 0.0924 -0.0755 0.9929
vn -0.0670 -0.0621 0.9958
vn 0.7054 0.7088 -0.0016
vn 0.6612 0.7502 0.0006
vn 0.9170 0.3990 -0.0000
vn 0.2016 0.0002 -0.9795
vn 0.2015 0.0002 -0.9795
vn 0.2031 0.0009 -0.9792
vn -0.0043 -0.0125 -0.9999
vn -0.0735 -0.0003 -0.9973
vn -0.1347 0.9909 0.0006
vn -0.7723 0.6353 -0.0016
vn -0.7108 -0.0712 -0.6998
vn 0.0927 -0.0367 0.9950
vn 0.2150 -0.0482 0.9754
vn -0.0043 -0.0113 0.9999
vn 0.5964 0.8024 -0.0232
vn 0.0210 0.9976 0.0665
vn -0.0000 1.0000 -0.0076
vn 0.0454 -0.0207 -0.9988
vn -0.9424 0.0007 0.3344
vn 0.0066 0.9922 -0.1244
vn 0.3572 -0.0069 -0.9340
vn 0.7507 -0.0045 0.6606
vn 0.4970 0.8570 0.1363
vn -0.0004 0.9994 -0.0337
vn 0.0254 0.9869 -0.1594
vn -0.0888 0.9864 0.1383
vn 0.0495 -0.0271 0.9984
vn 0.1021 -0.0857 0.9911
vn -0.0382 -0.0181 0.9991
vn 0.8367 -0.4305 -0.3384
vn 0.9175 -0.3977 -0.0000
vn 0.9418 0.3361 0.0002
vn -0.7885 -0.0149 -0.6148
vn -0.3896 0.9210 -0.0008
vn -0.9219 0.3874 -0.0012
vn -0.7378 0.6750 -0.0003
vn -0.8586 -0.5126 0.0002
vn 0.0851 -0.0517 0.9950
vn 0.1739 -0.0666 0.9825
vn -0.6911 -0.0593 -0.7203
vn -0.8400 0.5426 0.0001
vn 0.6128 0.7903 -0.0008
vn 0.0269 0.9996 0.0005
vn -0.6641 -0.7477 -0.0008
vn 0.3826 -0.9233 -0.0326
vn -0.3479 0.1718 -0.9217
vn -0.5206 -0.2270 -0.8231
vn 0.0349 -0.0152 -0.9993
vn 0.9136 0.4066 -0.0001
vn 0.5004 0.8658 0.0002
vn 0.1309 -0.0247 -0.9911
vn -0.5007 -0.3081 -0.8089
vn -0.4749 -0.4071 -0.7802
vn -0.5105 -0.3603 -0.7807
vn -0.5774 0.5774 -0.5774
vn -0.4685 0.6247 -0.6247
vn -0.9737 -0.0000 0.2280
vn -0.9788 -0.0000 0.2050
vn -0.9792 -0.0000 0.2031
vn -0.8000 -0.6000 -0.0000
vn -0.7761 -0.6306 -0.0000
vn -0.8137 -0.5812 -0.0000
vn -0.2166 0.9748 0.0542
vn -0.4044 0.9132 0.0506
vn -0.3812 0.9233 0.0477
vn 0.0737 0.0674 -0.9950
vn 0.1035 0.0680 -0.9923
vn 0.0740 0.0683 -0.9949
vn -0.7433 -0.6690 -0.0000
vn -0.6508 -0.7593 -0.0000
vn -0.7071 -0.7071 -0.0000
vn 0.0737 0.0720 -0.9947
vn 0.0395 0.0715 -0.9967
vn 0.0791 0.0723 -0.9942
vn 0.1795 -0.1620 -0.9703
vn 0.1276 -0.1635 -0.9783
vn 0.1364 -0.1626 -0.9772
vn -0.9332 -0.0000 -0.3593
vn 0.3620 0.0006 -0.9322
vn 0.3623 0.0008 -0.9321
vn 0.3679 0.0033 -0.9299
vn -0.4540 0.2459 -0.8564
vn -0.2756 0.9334 -0.2298
vn 0.3140 -0.0297 0.9489
vn 0.3200 -0.0081 0.9474
vn 0.2309 -0.0327 0.9724
vn 0.2262 -0.0342 -0.9735
vn 0.3286 0.7074 0.6258
vn -0.1178 -0.0558 -0.9915
vn 0.0570 -0.1789 -0.9822
vn -0.0604 0.1896 -0.9800
vn -0.4490 -0.8935 -0.0048
vn 0.9969 -0.0550 0.0569
vn -0.9565 0.0020 0.2918
vn -0.9220 0.3871 -0.0011
vn 0.0196 -0.0189 0.9996
vn -0.4849 -0.0044 -0.8746
vn -0.1084 -0.2520 -0.9616
vn 0.0151 -0.0188 0.9997
vn 0.5933 0.8045 -0.0291
vn -0.0000 1.0000 -0.0084
vn 0.0134 0.9952 -0.0972
vn 0.4266 0.6427 0.6364
vn 0.0582 -0.0390 -0.9975
vn 0.0413 -0.1191 -0.9920
vn 0.9970 -0.0539 0.0551
vn 0.0395 0.9986 0.0353
vn 0.7690 0.5858 0.2561
vn -0.0171 -0.2008 -0.9795
vn 0.0583 -0.2252 -0.9726
vn 0.0133 -0.0188 0.9997
vn -0.9565 0.0020 0.2916
vn 0.9995 -0.0281 -0.0135
vn 0.2331 -0.0328 0.9719
vn 0.0645 -0.0391 -0.9972
vn -0.0259 0.9996 0.0099
vn 0.3436 0.6975 0.6289
vn -0.4270 -0.9043 -0.0031
vn 0.3366 -0.9409 0.0388
vn -0.9238 0.3827 0.0148
vn -0.0460 -0.9946 -0.0928
vn 0.0136 -0.1585 -0.9873
vn -0.2976 -0.1643 -0.9404
vn -0.0208 -0.1600 -0.9869
vn -0.4825 0.2615 -0.8359
vn 0.6930 0.7200 0.0348
vn 0.9900 -0.1311 0.0521
vn 0.9900 -0.1311 0.0522
vn 0.5951 0.8032 -0.0287
vn 0.0395 0.9986 0.0347
vn 0.0580 -0.0389 -0.9976
vn 0.0141 0.9950 -0.0986
vn 0.4262 0.6419 0.6374
vn 0.9970 -0.0537 0.0554
vn -0.0172 -0.2008 -0.9795
vn 0.0583 -0.2251 -0.9726
vn 0.5922 0.8052 -0.0290
vn 0.0396 0.9986 0.0347
vn 0.0121 0.9950 -0.0994
vn 0.4261 0.6424 0.6370
vn 0.4261 0.6423 0.6370
vn 0.9969 -0.0552 0.0569
vn 0.6668 -0.6870 -0.2888
vn -0.3529 -0.2675 -0.8966
vn -0.9131 -0.0450 -0.4052
vn 0.1455 -0.8194 0.5544
vn -0.0442 -0.0147 0.9989
vn -0.8242 0.0035 0.5663
vn -0.9716 -0.2365 -0.0000
vn -0.7367 -0.0370 -0.6752
vn 0.5714 0.8099 0.1326
vn 0.0006 0.9999 0.0103
vn -0.0456 0.9984 0.0328
vn 0.1692 -0.0839 -0.9820
vn 0.0573 -0.0636 -0.9963
vn 0.7340 -0.5038 -0.4555
vn -0.6728 -0.7393 0.0292
vn 0.1123 -0.9936 -0.0141
vn -0.4431 -0.4071 0.7987
vn -0.7374 0.6749 0.0266
vn 0.5954 0.8029 -0.0290
vn 0.0135 0.9952 -0.0972
vn 0.4265 0.6420 0.6372
vn 0.9969 -0.0552 0.0570
vn 0.7690 0.5857 0.2561
vn -0.0171 -0.2007 -0.9795
vn 0.4359 -0.4102 0.8011
vn 0.5325 0.2348 -0.8132
vn 0.5685 0.2504 0.7836
vn 0.1780 0.9833 -0.0372
vn -0.9842 0.1573 0.0810
vn -0.7761 -0.3743 0.5074
vn -0.7763 -0.3739 0.5075
vn -0.7761 -0.3744 0.5074
vn -0.7289 0.3700 0.5761
vn 0.4270 -0.9005 -0.0828
vn -0.7142 0.0500 0.6981
vn -0.4100 0.0285 -0.9116
vn 0.7178 0.4607 -0.5220
vn 0.8827 0.3589 0.3032
vn 0.4273 -0.9003 -0.0825
vn -0.7146 0.0501 0.6978
vn -0.4250 0.0298 -0.9047
vn -0.7704 0.6218 0.1412
vn -0.1142 0.0123 -0.9934
vn -0.8099 -0.1525 -0.5665
vn -0.8099 -0.1525 -0.5664
vn 0.8176 0.5671 -0.0993
vn 0.8604 0.3639 0.3568
vn 0.8406 0.3525 0.4112
vn -0.7790 -0.3684 0.5073
vn -0.7794 -0.3679 0.5071
vn -0.7792 -0.3682 0.5073
vn -0.7367 0.3704 0.5657
vn -0.7368 0.3701 0.5658
vn -0.7368 0.3702 0.5658
vn -0.5509 -0.0052 0.8346
vn -0.5512 -0.0054 0.8344
vn -0.5510 -0.0052 0.8345
vn 0.0542 0.6516 -0.7566
vn 0.8822 -0.0154 0.4706
vn -0.6230 -0.2699 0.7342
vn -0.6232 -0.2700 0.7339
vn -0.6231 -0.2699 0.7341
vn 0.0542 0.6514 -0.7568
vn 0.8819 -0.0156 0.4712
vn 0.8165 0.5694 -0.0955
vn 0.8568 0.3515 0.3772
vn 0.8567 0.3516 0.3774
vn 0.8568 0.3516 0.3773
vn 0.8449 0.3636 0.3923
vn -0.5699 -0.0641 0.8192
vn -0.5694 -0.0636 0.8196
vn -0.5692 -0.0631 0.8198
vn 0.8819 -0.0158 0.4712
vn 0.9193 0.2448 -0.3080
vn 0.5725 0.2267 -0.7879
vn -0.6221 -0.2718 0.7343
vn -0.6218 -0.2714 0.7346
vn -0.6217 -0.2711 0.7349
vn 0.8823 -0.0158 0.4705
vn 0.8165 0.5694 -0.0954
vn 0.8451 0.3553 0.3994
vn 0.8471 0.3534 0.3968
vn 0.8503 0.3556 0.3881
vn 0.8475 0.3589 0.3912
vn -0.6234 -0.2707 0.7335
vn -0.6237 -0.2709 0.7333
vn -0.6235 -0.2707 0.7334
vn 0.0542 0.6511 -0.7571
vn 0.8826 -0.0153 0.4699
vn 0.8171 0.5678 -0.1002
vn 0.8518 0.3668 0.3740
vn 0.8517 0.3669 0.3742
vn 0.7143 0.3004 0.6320
vn -0.1439 0.8587 -0.4919
vn -0.0993 -0.8434 -0.5281
vn 0.8935 -0.4490 -0.0000
vn -0.6237 -0.2698 0.7336
vn -0.6240 -0.2700 0.7333
vn -0.6238 -0.2699 0.7335
vn 0.8823 -0.0146 0.4705
vn 0.8166 0.5695 -0.0946
vn 0.8529 0.3517 0.3858
vn 0.8529 0.3517 0.3859
vn 0.8477 0.3563 0.3929
vn -0.5585 -0.0016 -0.8295
vn -0.4431 0.8720 0.2080
vn -0.4016 -0.0309 0.9153
vn 0.7491 -0.0259 -0.6620
vn 0.8793 -0.4763 0.0035
vn -0.2073 0.9783 0.0067
vn -0.4669 0.8581 0.2137
vn -0.2607 -0.1914 0.9463
vn 0.7410 0.3322 0.5835
vn 0.6560 0.5795 -0.4836
vn -0.6790 0.6856 0.2623
vn -0.1984 0.9696 0.1434
vn 0.6505 0.2727 -0.7088
vn -0.0380 -0.0223 -0.9990
vn -0.7688 -0.6383 0.0386
vn 0.6642 0.5772 -0.4751
vn -0.7788 -0.6258 0.0427
vn -0.7789 -0.6258 0.0426
vn -0.7788 -0.6258 0.0425
vn 0.6876 0.5080 -0.5187
vn 0.7707 0.1924 -0.6074
vn 0.0392 0.9987 0.0333
vn -0.7677 -0.6396 0.0383
vn 0.1456 -0.9887 0.0354
vn 0.0107 -0.9995 0.0303
vn 0.6651 0.5753 -0.4761
vn -0.7786 -0.6260 0.0425
vn 0.6651 0.5754 -0.4760
vn -0.7787 -0.6260 0.0427
vn 0.6781 0.5798 -0.4516
vn 0.0439 0.9990 -0.0049
vn -0.6352 0.6009 0.4852
vn 0.6641 0.5771 -0.4752
vn -0.3894 -0.0168 0.9209
vn -0.4361 0.8030 -0.4062
vn -0.4362 0.8030 -0.4061
vn -0.4677 0.8021 -0.3713
vn -0.2125 -0.0087 0.9771
vn 0.6665 -0.3474 -0.6597
vn -0.4166 0.8029 -0.4264
vn -0.3042 0.4047 -0.8624
vn -0.4689 0.8023 -0.3694
vn -0.4687 0.4428 -0.7643
vn -0.4688 0.4427 -0.7644
vn -0.4686 0.4429 -0.7643
vn -0.4697 0.8018 -0.3694
vn -0.4697 0.8019 -0.3693
vn -0.3787 0.4236 -0.8229
vn -0.3788 0.4235 -0.8229
vn -0.4694 0.8018 -0.3700
vn -0.4695 0.8018 -0.3698
vn -0.4695 0.8018 -0.3697
vn -0.4677 0.4422 -0.7653
vn -0.4678 0.4421 -0.7653
vn -0.4691 0.8021 -0.3696
vn -0.4691 0.8021 -0.3695
vn -0.4692 0.8021 -0.3695
vn -0.4684 0.4426 -0.7647
vn -0.5563 0.6937 -0.4575
vn 0.2462 -0.0101 -0.9692
vn -0.4690 0.4431 -0.7640
vn -0.4691 0.4431 -0.7640
vn -0.4689 0.4432 -0.7640
vn -0.2300 0.2492 0.9407
vn 0.1744 0.1751 0.9690
vn -0.6558 0.3516 -0.6680
vn 0.7734 -0.0137 -0.6337
vn -0.8811 -0.0278 0.4721
vn -0.8962 0.4052 0.1805
vn -1.0000 -0.0000 -0.0002
vn 0.8456 0.5339 0.0004
vn 0.8310 0.3497 -0.4326
vn -0.6721 -0.2973 -0.6781
vn -0.5313 0.6937 0.4863
vn -0.1878 -0.9783 0.0875
vn -0.2666 -0.1980 0.9433
vn 0.8269 0.3468 -0.4426
vn 0.6508 0.2727 -0.7085
vn 0.3266 0.3814 -0.8648
vn 0.3266 0.3813 -0.8648
vn 0.3265 0.3814 -0.8648
vn 0.6504 0.2730 -0.7088
vn 0.6509 0.2732 -0.7083
vn 0.6512 0.2733 -0.7080
vn -0.4128 0.8030 -0.4299
vn -0.2905 -0.0081 0.9568
vn 0.2986 -0.2249 0.9275
vn 0.1136 0.3841 0.9163
vn 0.2547 0.7670 0.5889
vn 0.3995 -0.0169 0.9166
vn -0.2541 -0.0154 0.9671
vn 0.3624 -0.0170 0.9319
vn -0.4577 0.8027 -0.3822
vn 0.5278 -0.4111 0.7432
vn 0.5281 -0.4113 0.7429
vn 0.5282 -0.4113 0.7429
vn 0.4087 -0.0316 0.9121
vn -0.2711 -0.0276 0.9622
vn 0.3471 -0.0314 0.9373
vn -0.4303 0.0283 -0.9023
vn -0.4304 0.0283 -0.9022
vn -0.4307 0.0287 -0.9020
vn -0.4119 -0.0311 0.9107
vn 0.4089 -0.0318 0.9120
vn -0.2716 -0.0276 0.9620
vn 0.3471 -0.0313 0.9373
vn -0.4311 0.0281 -0.9019
vn -0.4313 0.0287 -0.9018
vn -0.4311 0.0291 -0.9018
vn 0.4091 -0.0315 0.9120
vn 0.3471 -0.0315 0.9373
vn -0.4301 0.0286 -0.9024
vn -0.4299 0.0288 -0.9024
vn -0.4303 0.0284 -0.9022
vn 0.3956 -0.3418 -0.8524
vn 0.4090 -0.0315 0.9120
vn -0.2711 -0.0276 0.9621
vn -0.4308 0.0278 -0.9020
vn -0.4311 0.0284 -0.9018
vn -0.4311 0.0289 -0.9018
vn 0.9996 -0.0106 0.0245
vn -0.8811 -0.0278 0.4720
vn 0.8756 -0.0113 0.4828
vn -0.9951 -0.0002 -0.0992
vn -0.5565 -0.0057 -0.8308
vn -0.9986 -0.0536 0.0025
vn 0.8872 -0.0214 0.4608
vn -0.5562 -0.0057 -0.8310
vn -0.5559 -0.0057 -0.8312
vn -0.4079 0.9130 0.0073
vn 0.8874 -0.0215 0.4604
vn -0.5562 -0.0057 -0.8311
vn 0.8873 -0.0214 0.4608
vn -0.5558 -0.0057 -0.8313
vn 0.7983 -0.0201 0.6020
vn -1.0000 -0.0028 -0.0000
vn -0.5564 -0.0057 -0.8309
vn 0.0104 0.0009 0.9999
vn 0.8954 -0.1963 0.3997
vn -0.8047 0.5205 0.2855
vn 0.3380 -0.8540 -0.3955
vn -0.0595 0.0627 -0.9963
vn 0.8179 0.1127 0.5643
vn 0.8179 0.1127 0.5642
vn 0.7783 -0.3103 -0.5459
vn 0.1773 -0.0000 0.9842
vn 0.2018 -0.0000 -0.9794
vn 0.2730 -0.1400 0.9518
vn 0.7584 -0.0117 -0.6517
vn 0.9932 -0.0143 -0.1159
vn -0.8451 0.0121 0.5344
vn -0.8046 0.5207 0.2855
vn -0.8043 0.5212 0.2854
vn 0.8752 0.4657 0.1307
vn 0.9142 0.3224 -0.2454
vn 0.2260 -0.1585 0.9611
vn -0.7678 0.0801 -0.6357
vn -0.9174 -0.3980 0.0014
vn 0.0772 -0.0006 -0.9970
vn 0.0253 0.0012 0.9997
vn 0.8954 -0.1960 0.3999
vn 0.3604 -0.0000 -0.9328
vn -0.7967 0.5535 0.2429
vn 0.5878 -0.0131 0.8089
vn 0.5878 -0.0132 0.8089
vn 0.7579 -0.0229 -0.6519
vn -0.7966 0.5535 0.2430
vn -0.2710 -0.0001 -0.9626
vn -0.2710 -0.0002 -0.9626
vn -0.2711 -0.0005 -0.9626
vn 0.3081 -0.1385 -0.9412
vn 0.0236 0.5119 -0.8587
vn 0.0142 0.8496 0.5272
vn 0.0018 0.9979 0.0649
vn -0.0011 1.0000 -0.0072
vn 0.9163 -0.1873 -0.3541
vn 0.5878 -0.0130 0.8089
vn 0.7577 -0.0228 -0.6522
vn -0.2709 -0.0001 -0.9626
vn -0.2709 -0.0002 -0.9626
vn -0.2710 -0.0005 -0.9626
vn -0.2718 -0.0001 -0.9624
vn -0.2718 -0.0003 -0.9624
vn 0.5869 -0.0131 0.8095
vn 0.6681 0.2044 0.7154
vn 0.6682 0.2044 0.7154
vn 0.0094 -0.0000 -1.0000
vn 0.6097 -0.0225 0.7923
vn 0.7921 0.0044 -0.6104
vn -0.8899 0.4562 0.0031
vn -0.6614 0.3392 -0.6690
vn -0.2712 -0.0001 -0.9625
vn -0.2712 -0.0002 -0.9625
vn -0.2712 -0.0005 -0.9625
vt 0.936974 0.739047
vt 0.936940 0.739053
vt 0.936960 0.739070
vt 0.629010 0.951635
vt 0.629023 0.951460
vt 0.629033 0.951626
vt 0.936932 0.755181
vt 0.936904 0.755199
vt 0.936938 0.755207
vt 0.936875 0.743083
vt 0.936859 0.743118
vt 0.936894 0.743119
vt 0.589747 0.900497
vt 0.589738 0.900250
vt 0.589730 0.900494
vt 0.936875 0.747119
vt 0.936859 0.747154
vt 0.936894 0.747154
vt 0.845014 0.900386
vt 0.845034 0.900387
vt 0.845005 0.900386
vt 0.589709 0.951767
vt 0.589688 0.951749
vt 0.589722 0.951749
vt 0.936932 0.751154
vt 0.936904 0.751173
vt 0.936938 0.751181
vt 0.936878 0.759224
vt 0.936882 0.759220
vt 0.936859 0.759207
vt 0.936878 0.763261
vt 0.936882 0.763257
vt 0.936859 0.763244
vt 0.915357 0.828372
vt 0.915336 0.828354
vt 0.915371 0.828354
vt 0.936878 0.767297
vt 0.936882 0.767293
vt 0.936859 0.767280
vt 0.915373 0.791339
vt 0.915354 0.791352
vt 0.915370 0.791344
vt 0.936878 0.771333
vt 0.936882 0.771329
vt 0.936859 0.771316
vt 0.915357 0.819114
vt 0.915336 0.819096
vt 0.915371 0.819097
vt 0.915352 0.837629
vt 0.915331 0.837611
vt 0.915366 0.837611
vt 0.936878 0.775370
vt 0.936882 0.775366
vt 0.936859 0.775353
vt 0.915357 0.800599
vt 0.915336 0.800581
vt 0.915370 0.800582
vt 0.936873 0.783449
vt 0.936874 0.783440
vt 0.936859 0.783425
vt 0.936878 0.779406
vt 0.936882 0.779402
vt 0.936859 0.779389
vt 0.915357 0.809857
vt 0.915336 0.809839
vt 0.915371 0.809839
vt 0.915245 0.905963
vt 0.920375 0.905962
vt 0.920362 0.906034
vt 0.915245 0.876041
vt 0.920375 0.876040
vt 0.920362 0.876112
vt 0.849467 0.917867
vt 0.849498 0.900249
vt 0.849809 0.917866
vt 0.937047 0.557615
vt 0.936872 0.557473
vt 0.936931 0.557189
vt 0.915349 0.786234
vt 0.915372 0.791325
vt 0.937100 0.053436
vt 0.940979 0.053341
vt 0.941014 0.053357
vt 0.936889 0.529850
vt 0.936865 0.529626
vt 0.937142 0.529491
vt 0.709724 0.900493
vt 0.709845 0.900546
vt 0.709684 0.900386
vt 0.629261 0.951635
vt 0.629059 0.951607
vt 0.629269 0.951616
vt 0.936879 0.566648
vt 0.936859 0.566423
vt 0.937168 0.566297
vt 0.936859 0.552645
vt 0.936888 0.552869
vt 0.936859 0.552902
vt 0.937266 0.570826
vt 0.937039 0.570847
vt 0.937032 0.570834
vt 0.845194 0.900658
vt 0.845032 0.900359
vt 0.936880 0.635974
vt 0.936859 0.635861
vt 0.936996 0.635770
vt 0.936880 0.661885
vt 0.936859 0.661773
vt 0.937033 0.661697
vt 0.936880 0.644611
vt 0.936859 0.644499
vt 0.936994 0.644408
vt 0.936880 0.648930
vt 0.936859 0.648817
vt 0.937033 0.648742
vt 0.936880 0.653248
vt 0.936859 0.653136
vt 0.937032 0.653060
vt 0.915256 0.841917
vt 0.915255 0.841789
vt 0.915274 0.841908
vt 0.936880 0.657567
vt 0.936859 0.657454
vt 0.937032 0.657379
vt 0.937094 0.670314
vt 0.936869 0.670314
vt 0.937122 0.670299
vt 0.589921 0.951742
vt 0.589722 0.951775
vt 0.915384 0.782191
vt 0.915370 0.781934
vt 0.915388 0.782099
vt 0.936887 0.706848
vt 0.937013 0.706818
vt 0.937000 0.706848
vt 0.915245 0.880315
vt 0.920373 0.880288
vt 0.920362 0.880386
vt 0.936887 0.710877
vt 0.937014 0.710848
vt 0.937000 0.710877
vt 0.915345 0.791330
vt 0.915360 0.791180
vt 0.936887 0.714907
vt 0.937013 0.714877
vt 0.937000 0.714907
vt 0.915242 0.884520
vt 0.920373 0.884566
vt 0.920362 0.884661
vt 0.936887 0.726995
vt 0.937013 0.726965
vt 0.937000 0.726995
vt 0.936887 0.718936
vt 0.937013 0.718907
vt 0.937000 0.718936
vt 0.915245 0.888864
vt 0.920375 0.888863
vt 0.920362 0.888935
vt 0.915274 0.846171
vt 0.915231 0.846301
vt 0.915272 0.846076
vt 0.936870 0.735031
vt 0.936987 0.735022
vt 0.936986 0.735047
vt 0.936887 0.722965
vt 0.937013 0.722936
vt 0.937000 0.722965
vt 0.915245 0.897413
vt 0.920375 0.897412
vt 0.920362 0.897484
vt 0.709924 0.900547
vt 0.710155 0.900507
vt 0.709924 0.900579
vt 0.937181 0.575500
vt 0.937343 0.575434
vt 0.937182 0.575524
vt 0.628817 0.951622
vt 0.629024 0.951607
vt 0.589513 0.900493
vt 0.589717 0.900478
vt 0.936879 0.584056
vt 0.937027 0.584154
vt 0.936867 0.584064
vt 0.936879 0.579741
vt 0.937027 0.579839
vt 0.936867 0.579749
vt 0.936879 0.597000
vt 0.937027 0.597098
vt 0.936866 0.597008
vt 0.936879 0.592685
vt 0.937027 0.592783
vt 0.936867 0.592693
vt 0.915308 0.145377
vt 0.932847 0.145356
vt 0.932846 0.145383
vt 0.714802 0.900502
vt 0.714571 0.900542
vt 0.714849 0.900331
vt 0.714868 0.939629
vt 0.714606 0.900543
vt 0.714903 0.939626
vt 0.629067 0.900355
vt 0.629264 0.900345
vt 0.629266 0.900363
vt 0.936964 0.575471
vt 0.936859 0.575413
vt 0.714372 0.900487
vt 0.714493 0.900541
vt 0.714332 0.900386
vt 0.915348 0.782080
vt 0.915255 0.782095
vt 0.915253 0.782077
vt 0.936859 0.583943
vt 0.936859 0.579628
vt 0.936859 0.596887
vt 0.936859 0.666085
vt 0.936880 0.666198
vt 0.936983 0.666273
vt 0.936869 0.702752
vt 0.936988 0.702812
vt 0.936859 0.702781
vt 0.936859 0.592572
vt 0.629031 0.900164
vt 0.629045 0.900642
vt 0.629026 0.900336
vt 0.629032 0.900355
vt 0.628833 0.900345
vt 0.629114 0.900334
vt 0.915383 0.782080
vt 0.915478 0.782095
vt 0.915301 0.782102
vt 0.915384 0.824156
vt 0.915371 0.828379
vt 0.915467 0.791338
vt 0.915384 0.814899
vt 0.915371 0.819122
vt 0.915384 0.833414
vt 0.915366 0.837636
vt 0.915465 0.800578
vt 0.915371 0.800607
vt 0.915384 0.805642
vt 0.915371 0.809864
vt 0.589955 0.900482
vt 0.936860 0.571138
vt 0.915308 0.149409
vt 0.932847 0.149383
vt 0.932846 0.149409
vt 0.710221 0.939632
vt 0.709959 0.900549
vt 0.710256 0.939631
vt 0.845009 0.918004
vt 0.845282 0.918004
vt 0.920366 0.850557
vt 0.915254 0.850526
vt 0.920366 0.850367
vt 0.937100 0.040377
vt 0.941019 0.040281
vt 0.941021 0.040316
vt 0.915367 0.776976
vt 0.920366 0.863325
vt 0.915254 0.863294
vt 0.920366 0.863135
vt 0.937100 0.031670
vt 0.941020 0.031575
vt 0.941021 0.031609
vt 0.920366 0.854813
vt 0.915254 0.854782
vt 0.920366 0.854659
vt 0.937100 0.044730
vt 0.941019 0.044634
vt 0.941021 0.044669
vt 0.920366 0.859069
vt 0.915254 0.859038
vt 0.920366 0.858879
vt 0.937100 0.036023
vt 0.941019 0.035928
vt 0.941021 0.035963
vt 0.920366 0.871837
vt 0.915254 0.871806
vt 0.920366 0.871647
vt 0.937100 0.049083
vt 0.941019 0.048987
vt 0.941021 0.049022
vt 0.915231 0.961350
vt 0.920385 0.961323
vt 0.920385 0.961350
vt 0.915367 0.795477
vt 0.920366 0.867581
vt 0.915254 0.867550
vt 0.920366 0.867391
vt 0.937100 0.027317
vt 0.941020 0.027221
vt 0.941021 0.027256
vt 0.395184 0.002805
vt 0.204662 0.383859
vt 0.014138 0.002811
vt 0.011646 0.771519
vt 0.202162 0.390459
vt 0.392685 0.771517
vt 0.521074 0.312118
vt 0.473260 0.003171
vt 0.568881 0.003168
vt 0.523589 0.317821
vt 0.571401 0.626769
vt 0.475780 0.626771
vt 0.443796 0.372438
vt 0.450568 0.674533
vt 0.437013 0.674600
vt 0.454635 0.576150
vt 0.461405 0.378833
vt 0.468202 0.576442
vt 0.777819 0.534896
vt 0.771016 0.624251
vt 0.764216 0.534898
vt 0.504259 0.900342
vt 0.511061 0.968454
vt 0.497462 0.968670
vt 0.423658 0.364886
vt 0.430431 0.666981
vt 0.416875 0.667049
vt 0.718943 0.513219
vt 0.725713 0.315902
vt 0.732509 0.513512
vt 0.486660 0.900342
vt 0.493462 0.968454
vt 0.479864 0.968670
vt 0.383875 0.791652
vt 0.377072 0.881007
vt 0.370272 0.791654
vt 0.670346 0.313283
vt 0.677118 0.615378
vt 0.663562 0.615446
vt 0.736563 0.518254
vt 0.743333 0.320937
vt 0.750130 0.518546
vt 0.521859 0.900342
vt 0.528660 0.968454
vt 0.515061 0.968670
vt 0.735026 0.529862
vt 0.728224 0.619217
vt 0.721424 0.529864
vt 0.702296 0.002373
vt 0.695513 0.304536
vt 0.688739 0.002441
vt 0.760967 0.523435
vt 0.754169 0.325815
vt 0.767738 0.326127
vt 0.539457 0.900342
vt 0.546259 0.968454
vt 0.532660 0.968670
vt 0.033982 0.796686
vt 0.027180 0.886042
vt 0.020380 0.796688
vt 0.690483 0.312025
vt 0.697255 0.614119
vt 0.683699 0.614187
vt 0.771804 0.528323
vt 0.778574 0.331006
vt 0.785371 0.528615
vt 0.055379 0.796686
vt 0.048576 0.886042
vt 0.041776 0.796688
vt 0.557055 0.900342
vt 0.563857 0.968454
vt 0.550259 0.968670
vt 0.675380 0.002407
vt 0.682152 0.304502
vt 0.668596 0.304570
vt 0.213671 0.790367
vt 0.016354 0.783597
vt 0.213963 0.776801
vt 0.574654 0.900342
vt 0.581456 0.968454
vt 0.567857 0.968670
vt 0.405272 0.791652
vt 0.398469 0.881007
vt 0.391669 0.791654
vt 0.766650 0.630228
vt 0.767750 0.630235
vt 0.767173 0.711106
vt 0.222475 0.900141
vt 0.223542 0.900141
vt 0.223008 0.981041
vt 0.029501 0.900153
vt 0.030601 0.900160
vt 0.030024 0.981030
vt 0.161492 0.900141
vt 0.162559 0.900141
vt 0.162025 0.981041
vt 0.083837 0.900153
vt 0.084937 0.900160
vt 0.084360 0.981031
vt 0.146246 0.900141
vt 0.147313 0.900141
vt 0.146779 0.981041
vt 0.034935 0.900153
vt 0.036035 0.900160
vt 0.035458 0.981031
vt 0.166574 0.900141
vt 0.167641 0.900141
vt 0.167107 0.981041
vt 0.040369 0.900153
vt 0.041469 0.900160
vt 0.040892 0.981031
vt 0.207229 0.900141
vt 0.208296 0.900141
vt 0.207762 0.981041
vt 0.045802 0.900153
vt 0.046902 0.900160
vt 0.046325 0.981031
vt 0.171655 0.900141
vt 0.172723 0.900141
vt 0.172189 0.981041
vt 0.141164 0.900141
vt 0.142231 0.900141
vt 0.141697 0.981041
vt 0.051236 0.900153
vt 0.052336 0.900160
vt 0.051759 0.981031
vt 0.176737 0.900141
vt 0.177805 0.900141
vt 0.177271 0.981041
vt 0.056669 0.900153
vt 0.057769 0.900160
vt 0.057192 0.981031
vt 0.062103 0.900153
vt 0.063203 0.900160
vt 0.062626 0.981031
vt 0.181819 0.900141
vt 0.182887 0.900141
vt 0.182353 0.981041
vt 0.227556 0.900141
vt 0.228624 0.900141
vt 0.228090 0.981041
vt 0.776719 0.631487
vt 0.777819 0.631493
vt 0.777242 0.712364
vt 0.187691 0.795105
vt 0.188791 0.795112
vt 0.188214 0.875983
vt 0.232638 0.900141
vt 0.233706 0.900141
vt 0.233172 0.981041
vt 0.156410 0.900141
vt 0.157477 0.900141
vt 0.156943 0.981041
vt 0.196501 0.795105
vt 0.197601 0.795112
vt 0.197024 0.875983
vt 0.186901 0.900141
vt 0.187969 0.900141
vt 0.187435 0.981041
vt 0.067536 0.900153
vt 0.068636 0.900160
vt 0.068059 0.981030
vt 0.206570 0.795105
vt 0.207670 0.795112
vt 0.207093 0.875983
vt 0.110672 0.900141
vt 0.111740 0.900141
vt 0.111206 0.981041
vt 0.191983 0.900141
vt 0.193050 0.900141
vt 0.192516 0.981041
vt 0.124761 0.797623
vt 0.125861 0.797630
vt 0.125284 0.878500
vt 0.072970 0.900153
vt 0.074070 0.900160
vt 0.073493 0.981031
vt 0.212311 0.900141
vt 0.213378 0.900141
vt 0.212844 0.981041
vt 0.078404 0.900153
vt 0.079504 0.900160
vt 0.078927 0.981031
vt 0.237720 0.900141
vt 0.238788 0.900141
vt 0.238254 0.981041
vt 0.002334 0.900153
vt 0.003434 0.900160
vt 0.002857 0.981031
vt 0.115754 0.900141
vt 0.116822 0.900141
vt 0.116288 0.981041
vt 0.197065 0.900141
vt 0.198132 0.900141
vt 0.197598 0.981041
vt 0.007767 0.900153
vt 0.008867 0.900160
vt 0.008290 0.981030
vt 0.013201 0.900153
vt 0.014301 0.900160
vt 0.013724 0.981030
vt 0.120836 0.900141
vt 0.121904 0.900141
vt 0.121370 0.981041
vt 0.018634 0.900153
vt 0.019734 0.900160
vt 0.019157 0.981030
vt 0.202147 0.900141
vt 0.203214 0.900141
vt 0.202680 0.981041
vt 0.151328 0.900141
vt 0.152395 0.900141
vt 0.151861 0.981041
vt 0.089271 0.900153
vt 0.090371 0.900160
vt 0.089794 0.981030
vt 0.094704 0.900153
vt 0.095804 0.900160
vt 0.095227 0.981031
vt 0.125918 0.900141
vt 0.126986 0.900141
vt 0.126452 0.981041
vt 0.131000 0.900141
vt 0.132068 0.900141
vt 0.131534 0.981041
vt 0.024068 0.900153
vt 0.025168 0.900160
vt 0.024591 0.981031
vt 0.136082 0.900141
vt 0.137149 0.900141
vt 0.136615 0.981041
vt 0.100138 0.900153
vt 0.101238 0.900160
vt 0.100661 0.981030
vt 0.105571 0.900153
vt 0.106671 0.900160
vt 0.106094 0.981030
vt 0.217393 0.900141
vt 0.218460 0.900141
vt 0.217926 0.981041
vt 0.784334 0.734102
vt 0.887306 0.734099
vt 0.835825 0.888562
vt 0.842113 0.490842
vt 0.790627 0.336382
vt 0.893599 0.336379
vt 0.582720 0.785587
vt 0.420903 0.840749
vt 0.420901 0.730426
vt 0.721710 0.309606
vt 0.721709 0.199283
vt 0.883527 0.254444
vt 0.802812 0.002561
vt 0.891082 0.193813
vt 0.714539 0.193807
vt 0.779064 0.807853
vt 0.587816 0.896116
vt 0.587810 0.719586
vt 0.611404 0.900368
vt 0.849872 0.900249
vt 0.900708 0.939418
vt 0.900516 0.939432
vt 0.900503 0.921802
vt 0.900734 0.921803
vt 0.937389 0.557341
vt 0.936873 0.562095
vt 0.936859 0.562064
vt 0.936866 0.562096
vt 0.937282 0.561659
vt 0.937043 0.561706
vt 0.727567 0.939246
vt 0.727366 0.900128
vt 0.727602 0.900162
vt 0.727366 0.939195
vt 0.719135 0.939195
vt 0.718938 0.939252
vt 0.718903 0.900166
vt 0.611405 0.951976
vt 0.611395 0.951613
vt 0.629036 0.951927
vt 0.904984 0.921802
vt 0.905215 0.921803
vt 0.905169 0.939419
vt 0.904960 0.961074
vt 0.904734 0.943457
vt 0.905076 0.943457
vt 0.937299 0.529939
vt 0.709913 0.900128
vt 0.709904 0.900145
vt 0.710144 0.900193
vt 0.628833 0.900363
vt 0.710224 0.900390
vt 0.937462 0.561830
vt 0.937462 0.562050
vt 0.937296 0.562227
vt 0.937052 0.562235
vt 0.647200 0.951606
vt 0.646849 0.951609
vt 0.647017 0.900144
vt 0.633512 0.951611
vt 0.633456 0.900140
vt 0.633755 0.900147
vt 0.719135 0.900128
vt 0.896226 0.917763
vt 0.896010 0.917777
vt 0.896022 0.900147
vt 0.937452 0.566421
vt 0.937272 0.566774
vt 0.845375 0.900387
vt 0.896253 0.900149
vt 0.900503 0.900147
vt 0.900734 0.900149
vt 0.900688 0.917764
vt 0.607376 0.900497
vt 0.589733 0.900696
vt 0.937456 0.552624
vt 0.937196 0.552507
vt 0.937294 0.552972
vt 0.714582 0.900128
vt 0.909393 0.961074
vt 0.909168 0.943457
vt 0.909509 0.943457
vt 0.607366 0.900134
vt 0.723366 0.939195
vt 0.723135 0.900166
vt 0.723366 0.900128
vt 0.714369 0.900512
vt 0.723169 0.939252
vt 0.638235 0.951606
vt 0.637883 0.951617
vt 0.638015 0.900139
vt 0.642725 0.951606
vt 0.642333 0.951621
vt 0.642540 0.900144
vt 0.937030 0.571413
vt 0.714894 0.939631
vt 0.714666 0.939578
vt 0.937429 0.571098
vt 0.642258 0.951606
vt 0.589488 0.951741
vt 0.404780 0.391119
vt 0.410268 0.659336
vt 0.399274 0.659510
vt 0.468202 0.018346
vt 0.462687 0.370017
vt 0.457205 0.018347
vt 0.440805 0.364996
vt 0.446320 0.013325
vt 0.451802 0.364995
vt 0.709363 0.311827
vt 0.714851 0.580044
vt 0.703857 0.580218
vt 0.932138 0.043850
vt 0.932143 0.060747
vt 0.915242 0.052303
vt 0.915242 0.094144
vt 0.932138 0.085691
vt 0.932143 0.102588
vt 0.922222 0.301492
vt 0.915242 0.287541
vt 0.929194 0.287538
vt 0.915244 0.312495
vt 0.929195 0.305515
vt 0.929198 0.319467
vt 0.932143 0.123509
vt 0.915245 0.123513
vt 0.923689 0.106613
vt 0.932141 0.073219
vt 0.915245 0.081673
vt 0.915240 0.064775
vt 0.922222 0.337447
vt 0.915242 0.323496
vt 0.929194 0.323493
vt 0.922218 0.413384
vt 0.929198 0.427335
vt 0.915246 0.427338
vt 0.853943 0.908591
vt 0.870838 0.900137
vt 0.870842 0.917035
vt 0.891758 0.900137
vt 0.891763 0.917035
vt 0.874862 0.908591
vt 0.915246 0.355427
vt 0.915242 0.341474
vt 0.929196 0.348447
vt 0.922218 0.395406
vt 0.929198 0.409356
vt 0.915245 0.409360
vt 0.923689 0.002011
vt 0.932143 0.018907
vt 0.915245 0.018911
vt 0.932143 0.039827
vt 0.915245 0.039832
vt 0.923689 0.022931
vt 0.915242 0.359453
vt 0.929195 0.359449
vt 0.922222 0.373403
vt 0.922222 0.391380
vt 0.915242 0.377430
vt 0.929195 0.377426
vt 0.932137 0.155316
vt 0.915248 0.157220
vt 0.915246 0.153415
vt 0.932137 0.178761
vt 0.915248 0.180665
vt 0.915245 0.176860
vt 0.915246 0.184674
vt 0.932095 0.186683
vt 0.915266 0.188690
vt 0.926781 0.650832
vt 0.915461 0.652830
vt 0.915595 0.648819
vt 0.936878 0.159267
vt 0.938481 0.156518
vt 0.940009 0.159290
vt 0.936870 0.099739
vt 0.940220 0.098173
vt 0.940216 0.101315
vt 0.936870 0.092576
vt 0.940220 0.091010
vt 0.940216 0.094151
vt 0.936878 0.145303
vt 0.938481 0.142554
vt 0.940009 0.145326
vt 0.932138 0.165033
vt 0.915247 0.163133
vt 0.932136 0.161229
vt 0.932138 0.172848
vt 0.915247 0.170948
vt 0.932136 0.169044
vt 0.915256 0.194709
vt 0.932086 0.192702
vt 0.932105 0.196717
vt 0.926737 0.660880
vt 0.915528 0.658861
vt 0.926824 0.656857
vt 0.936878 0.152285
vt 0.938481 0.149536
vt 0.940009 0.152308
vt 0.936870 0.078249
vt 0.940220 0.076683
vt 0.940216 0.079825
vt 0.936870 0.085413
vt 0.940220 0.083847
vt 0.940216 0.086988
vt 0.936878 0.166249
vt 0.938481 0.163500
vt 0.940009 0.166272
vt 0.921466 0.717299
vt 0.915251 0.717496
vt 0.915252 0.716994
vt 0.921472 0.702980
vt 0.915251 0.703409
vt 0.915237 0.702715
vt 0.921466 0.721993
vt 0.915251 0.722189
vt 0.915252 0.721688
vt 0.921472 0.698097
vt 0.915251 0.698526
vt 0.915237 0.697832
vt 0.684977 0.944252
vt 0.675058 0.900145
vt 0.694895 0.900143
vt 0.661135 0.944253
vt 0.651216 0.900145
vt 0.671053 0.900143
vt 0.781857 0.900135
vt 0.782707 0.900145
vt 0.782281 0.922140
vt 0.766914 0.900159
vt 0.767834 0.900152
vt 0.767345 0.922185
vt 0.762004 0.900152
vt 0.762914 0.900157
vt 0.762433 0.922185
vt 0.772132 0.900147
vt 0.772981 0.900141
vt 0.772557 0.922179
vt 0.936860 0.601296
vt 0.936875 0.601161
vt 0.936963 0.601099
vt 0.915478 0.782077
vt 0.937108 0.636007
vt 0.920504 0.782082
vt 0.915255 0.850331
vt 0.937121 0.601145
vt 0.937186 0.601365
vt 0.937200 0.601359
vt 0.936986 0.601405
vt 0.939786 0.040413
vt 0.915250 0.948627
vt 0.915251 0.948502
vt 0.920362 0.948529
vt 0.940951 0.040188
vt 0.937083 0.040342
vt 0.920376 0.948631
vt 0.915237 0.880123
vt 0.920362 0.935707
vt 0.920376 0.935808
vt 0.915250 0.935805
vt 0.937180 0.661770
vt 0.937028 0.583854
vt 0.937201 0.584083
vt 0.937215 0.584076
vt 0.915255 0.863099
vt 0.939786 0.031707
vt 0.915251 0.935681
vt 0.940951 0.031482
vt 0.937083 0.031635
vt 0.937089 0.661955
vt 0.915240 0.828350
vt 0.920362 0.905773
vt 0.915236 0.905771
vt 0.920362 0.952803
vt 0.920375 0.952918
vt 0.915250 0.952900
vt 0.915251 0.952776
vt 0.920491 0.791284
vt 0.915360 0.791462
vt 0.937190 0.644476
vt 0.937041 0.588172
vt 0.937201 0.588398
vt 0.937215 0.588391
vt 0.915255 0.854587
vt 0.939876 0.044782
vt 0.940951 0.044541
vt 0.937059 0.044674
vt 0.937186 0.644493
vt 0.937185 0.644473
vt 0.937008 0.588457
vt 0.936880 0.588229
vt 0.915444 0.786224
vt 0.915242 0.791322
vt 0.915258 0.786216
vt 0.937180 0.648814
vt 0.937089 0.648999
vt 0.915255 0.858843
vt 0.915250 0.940079
vt 0.915251 0.939955
vt 0.920362 0.939981
vt 0.920376 0.940082
vt 0.937028 0.579539
vt 0.937201 0.579769
vt 0.937215 0.579761
vt 0.939786 0.036060
vt 0.940951 0.035835
vt 0.937083 0.035989
vt 0.915240 0.819093
vt 0.920362 0.875851
vt 0.915237 0.875849
vt 0.937180 0.653132
vt 0.937089 0.653318
vt 0.915255 0.871611
vt 0.915250 0.944353
vt 0.915251 0.944228
vt 0.920362 0.944255
vt 0.920376 0.944356
vt 0.915236 0.837607
vt 0.937028 0.596798
vt 0.937201 0.597027
vt 0.937215 0.597020
vt 0.939786 0.049119
vt 0.940951 0.048894
vt 0.937083 0.049048
vt 0.920362 0.888675
vt 0.915237 0.888673
vt 0.920387 0.846134
vt 0.920385 0.846301
vt 0.920392 0.841767
vt 0.915271 0.841956
vt 0.915232 0.841758
vt 0.936859 0.640299
vt 0.936873 0.640330
vt 0.936863 0.640295
vt 0.937189 0.640168
vt 0.936892 0.640170
vt 0.936953 0.640122
vt 0.915240 0.800578
vt 0.937032 0.665995
vt 0.920484 0.800425
vt 0.920494 0.800623
vt 0.915357 0.800432
vt 0.937175 0.666206
vt 0.940986 0.053358
vt 0.940958 0.053472
vt 0.936976 0.053399
vt 0.940951 0.053247
vt 0.920374 0.927318
vt 0.920362 0.927397
vt 0.915246 0.927324
vt 0.937180 0.657451
vt 0.937028 0.592483
vt 0.937201 0.592713
vt 0.937215 0.592705
vt 0.915255 0.867355
vt 0.939786 0.027354
vt 0.915250 0.957174
vt 0.915251 0.957050
vt 0.920362 0.957076
vt 0.940951 0.027129
vt 0.937083 0.027282
vt 0.937089 0.657636
vt 0.920376 0.957177
vt 0.915240 0.809835
vt 0.920362 0.897224
vt 0.915237 0.897222
vt 0.915309 0.519561
vt 0.928473 0.516987
vt 0.928531 0.522368
vt 0.915263 0.629487
vt 0.928459 0.626564
vt 0.928432 0.632408
vt 0.915252 0.684571
vt 0.921467 0.682374
vt 0.921459 0.686741
vt 0.915283 0.692282
vt 0.921464 0.690827
vt 0.921524 0.693748
vt 0.936973 0.739060
vt 0.936981 0.739083
vt 0.936859 0.739083
vt 0.936946 0.755199
vt 0.936859 0.755191
vt 0.936893 0.743098
vt 0.936893 0.743083
vt 0.936970 0.743083
vt 0.589730 0.900485
vt 0.936893 0.747134
vt 0.936893 0.747119
vt 0.936970 0.747119
vt 0.845034 0.900369
vt 0.845008 0.900351
vt 0.589705 0.951767
vt 0.589712 0.951518
vt 0.936946 0.751173
vt 0.936859 0.751164
vt 0.936897 0.759241
vt 0.936863 0.759244
vt 0.936859 0.759242
vt 0.936897 0.763278
vt 0.936863 0.763280
vt 0.936859 0.763279
vt 0.915353 0.828372
vt 0.915361 0.828237
vt 0.936897 0.767314
vt 0.936863 0.767316
vt 0.936859 0.767315
vt 0.936897 0.771350
vt 0.936863 0.771352
vt 0.936859 0.771351
vt 0.915353 0.819114
vt 0.915361 0.818980
vt 0.915348 0.837629
vt 0.915356 0.837494
vt 0.936897 0.775387
vt 0.936863 0.775389
vt 0.936859 0.775388
vt 0.915353 0.800599
vt 0.936894 0.783431
vt 0.936895 0.783449
vt 0.936894 0.783425
vt 0.936897 0.779423
vt 0.936863 0.779425
vt 0.936859 0.779424
vt 0.915353 0.809857
vt 0.915361 0.809722
vt 0.849467 0.900128
vt 0.937032 0.557635
vt 0.915240 0.948732
vt 0.936859 0.529882
vt 0.589712 0.951985
vt 0.936863 0.566636
vt 0.937281 0.570847
vt 0.845070 0.900592
vt 0.936863 0.635961
vt 0.915360 0.828490
vt 0.936863 0.661873
vt 0.936863 0.644599
vt 0.915359 0.819233
vt 0.936863 0.648917
vt 0.915356 0.837748
vt 0.936863 0.653236
vt 0.915359 0.800718
vt 0.915359 0.809976
vt 0.936863 0.657554
vt 0.900327 0.921792
vt 0.936879 0.529874
vt 0.633283 0.900147
vt 0.936869 0.566671
vt 0.900327 0.900137
vt 0.589920 0.951760
vt 0.638249 0.900151
vt 0.936869 0.635997
vt 0.936860 0.706820
vt 0.936869 0.661908
vt 0.936860 0.710850
vt 0.937090 0.644680
vt 0.936869 0.644634
vt 0.936860 0.714879
vt 0.936869 0.648953
vt 0.936860 0.726967
vt 0.936869 0.653271
vt 0.936860 0.718909
vt 0.915255 0.846295
vt 0.936869 0.657590
vt 0.936860 0.722938
vt 0.589504 0.900478
vt 0.845087 0.900140
vt 0.915231 0.145356
vt 0.714571 0.900574
vt 0.936880 0.583927
vt 0.936859 0.588248
vt 0.936880 0.579612
vt 0.936880 0.596871
vt 0.936879 0.666069
vt 0.936880 0.592556
vt 0.937056 0.557639
vt 0.904808 0.921792
vt 0.633744 0.900128
vt 0.895846 0.900137
vt 0.936879 0.552893
vt 0.637766 0.900147
vt 0.915240 0.935910
vt 0.915466 0.828369
vt 0.915240 0.953006
vt 0.915240 0.940184
vt 0.915465 0.819111
vt 0.915240 0.944458
vt 0.915461 0.837626
vt 0.915464 0.800597
vt 0.915240 0.957279
vt 0.915465 0.809854
vt 0.936989 0.623003
vt 0.937174 0.622835
vt 0.937199 0.622866
vt 0.915231 0.149388
vt 0.607348 0.951647
vt 0.915232 0.850557
vt 0.920493 0.828369
vt 0.915231 0.863325
vt 0.915232 0.854813
vt 0.920493 0.819111
vt 0.915232 0.859069
vt 0.920488 0.837631
vt 0.915231 0.871837
vt 0.915232 0.961323
vt 0.920493 0.809854
vt 0.915231 0.867581
vt 0.900709 0.921784
vt 0.905190 0.921784
vt 0.709939 0.900144
vt 0.937448 0.561799
vt 0.896228 0.900130
vt 0.900709 0.900130
vt 0.937471 0.552630
vt 0.937461 0.552632
vt 0.937298 0.570839
vt 0.936859 0.601192
vt 0.915232 0.948527
vt 0.915232 0.935706
vt 0.936872 0.583910
vt 0.915232 0.952801
vt 0.937182 0.644504
vt 0.915232 0.939980
vt 0.936872 0.579596
vt 0.915232 0.944253
vt 0.936872 0.596854
vt 0.937121 0.640357
vt 0.936872 0.666052
vt 0.940984 0.053350
vt 0.915232 0.957075
vt 0.936872 0.592540
s 1
usemtl school_001_baked
f 136/1/1 137/2/1 139/3/1
f 149/4/2 142/5/2 146/6/3
f 131/7/4 152/8/5 153/9/6
f 162/10/7 165/11/7 166/12/7
f 183/13/8 181/14/8 185/15/8
f 187/16/9 190/17/9 191/18/9
f 196/19/10 198/20/10 199/21/10
f 207/22/11 208/23/11 209/24/11
f 283/25/12 286/26/13 287/27/12
f 290/28/14 292/29/14 294/30/14
f 308/31/14 310/32/14 312/33/14
f 315/34/15 316/35/15 317/36/15
f 331/37/16 333/38/16 335/39/16
f 347/40/17 348/41/18 345/42/19
f 355/43/20 357/44/20 359/45/20
f 363/46/21 364/47/21 365/48/21
f 379/49/22 380/50/22 381/51/22
f 385/52/23 387/53/23 389/54/23
f 402/55/21 403/56/21 404/57/21
f 411/58/24 413/59/24 415/60/24
f 423/61/25 425/62/25 427/63/25
f 433/64/22 434/65/22 435/66/22
f 322/67/26 323/68/27 324/69/28
f 368/70/29 369/71/30 370/72/31
f 132/73/32 140/74/33 130/75/34
f 139/76/35 133/77/35 134/78/35
f 349/79/36 344/80/36 348/41/36
f 417/81/37 412/82/37 411/83/37
f 162/84/38 144/85/39 145/86/40
f 168/87/41 164/88/41 167/89/41
f 170/90/42 148/91/42 171/92/42
f 197/93/43 176/94/43 173/95/43
f 180/96/44 187/97/44 186/98/44
f 208/99/45 212/100/45 211/101/45
f 203/102/46 196/19/47 201/103/46
f 290/104/48 297/105/48 296/106/48
f 308/107/49 320/108/50 318/109/50
f 331/110/51 336/111/51 337/112/51
f 355/113/52 352/114/53 353/115/52
f 385/116/54 375/117/54 376/118/54
f 407/119/55 414/120/56 405/121/57
f 423/122/49 428/123/50 429/124/50
f 137/125/58 158/126/59 138/127/59
f 210/128/60 205/129/60 209/24/60
f 283/130/61 296/131/62 285/132/63
f 302/133/64 293/134/64 292/135/64
f 301/136/65 299/137/66 302/138/67
f 324/139/68 311/140/68 310/141/68
f 346/142/69 337/143/70 347/40/71
f 341/144/72 334/145/72 333/146/72
f 343/147/73 340/148/74 341/149/75
f 370/150/76 358/151/76 357/152/76
f 393/153/77 388/154/77 387/155/77
f 390/156/78 391/157/27 393/158/79
f 399/159/80 416/160/80 406/161/80
f 409/162/81 413/163/82 412/164/83
f 440/165/84 426/166/84 425/167/84
f 439/168/78 438/169/27 440/170/85
f 166/171/86 159/172/86 161/173/86
f 156/174/87 154/175/88 155/176/89
f 167/177/90 147/178/90 146/6/91
f 213/179/92 182/180/92 185/15/92
f 327/181/93 323/182/94 326/183/95
f 367/184/96 369/185/97 366/186/98
f 395/187/96 391/188/94 394/189/99
f 437/190/100 438/191/101 436/192/102
f 189/193/103 178/194/104 177/195/105
f 195/196/106 191/197/106 192/198/106
f 199/199/107 190/200/107 200/201/107
f 208/23/108 183/13/108 209/24/108
f 152/202/109 157/203/110 158/204/111
f 156/174/112 136/205/112 135/206/112
f 204/207/113 189/208/113 193/209/113
f 286/210/114 300/211/115 299/212/116
f 316/213/117 327/181/118 326/183/119
f 364/214/120 367/184/120 366/186/120
f 380/215/121 395/187/121 394/189/121
f 403/216/122 419/217/123 409/218/81
f 413/219/124 408/220/125 414/221/126
f 434/222/127 437/190/128 436/192/129
f 131/223/130 134/224/131 151/225/132
f 153/226/133 169/227/133 150/228/133
f 287/229/134 304/230/134 284/231/134
f 321/232/135 313/233/136 317/36/137
f 330/234/138 345/42/138 344/80/138
f 372/235/139 361/236/140 365/48/141
f 384/237/142 377/238/143 381/51/144
f 418/239/145 400/240/145 404/57/146
f 442/241/147 431/242/148 435/66/149
f 193/243/150 183/13/151 182/180/152
f 212/100/153 194/244/154 211/101/155
f 164/245/156 141/246/157 143/247/158
f 136/248/159 165/249/159 137/250/159
f 148/91/160 153/226/160 152/202/160
f 175/251/161 198/20/162 172/252/163
f 295/253/164 291/254/165 288/255/166
f 303/256/167 294/257/167 293/258/167
f 298/259/168 287/229/169 286/210/170
f 319/260/171 309/261/172 305/262/173
f 325/263/167 312/264/167 311/265/167
f 321/232/135 317/36/137 316/35/174
f 328/266/175 332/267/176 329/268/177
f 342/269/167 335/270/167 334/271/167
f 360/272/171 356/273/172 350/274/178
f 371/275/167 359/276/167 358/277/167
f 372/235/139 365/48/141 364/47/179
f 382/278/171 386/279/172 373/280/178
f 392/281/167 389/282/167 388/283/167
f 384/237/142 381/51/144 380/50/179
f 416/284/180 397/285/180 396/286/180
f 410/287/181 404/57/182 403/56/183
f 430/288/171 424/289/172 420/290/178
f 441/291/184 427/292/184 426/293/184
f 442/241/147 435/66/149 434/65/174
f 2/294/185 3/295/185 1/296/185
f 1/297/185 3/298/185 2/299/185
f 4/300/185 6/301/185 5/302/185
f 4/303/185 5/304/185 6/305/185
f 8/306/160 9/307/160 7/308/185
f 9/309/160 8/310/160 7/311/185
f 12/312/186 11/313/187 10/314/188
f 11/315/187 12/316/186 10/317/188
f 13/318/160 14/319/160 15/320/185
f 14/321/160 13/322/160 15/323/185
f 18/324/189 16/325/190 17/326/191
f 16/327/190 18/328/189 17/329/191
f 20/330/185 19/331/160 21/332/160
f 19/333/160 20/334/185 21/335/160
f 22/336/192 24/337/192 23/338/193
f 24/339/192 22/340/192 23/341/193
f 25/342/194 27/343/185 26/344/195
f 27/345/185 25/346/194 26/347/195
f 28/348/196 29/349/196 30/350/197
f 29/351/196 28/352/196 30/353/197
f 31/354/185 33/355/160 32/356/160
f 33/357/160 31/358/185 32/359/160
f 36/360/198 35/361/199 34/362/200
f 35/363/199 36/364/198 34/365/200
f 37/366/201 39/367/201 38/368/185
f 39/369/201 37/370/201 38/371/185
f 42/372/202 40/373/203 41/374/204
f 40/375/203 42/376/202 41/377/204
f 45/378/205 43/379/205 44/380/185
f 43/381/205 45/382/205 44/383/185
f 48/384/193 46/385/206 47/386/207
f 46/387/206 48/388/193 47/389/207
f 50/390/185 49/391/185 51/392/185
f 49/393/185 50/394/185 51/395/185
f 53/396/193 52/397/208 54/398/206
f 52/399/208 53/400/193 54/401/206
f 57/402/209 55/403/210 56/404/211
f 55/405/210 57/406/209 56/407/211
f 59/408/185 60/409/185 58/410/185
f 60/411/185 59/412/185 58/413/185
f 61/414/212 62/415/213 63/416/214
f 62/417/213 61/418/212 63/419/214
f 64/420/185 66/421/185 65/422/185
f 66/423/185 64/424/185 65/425/185
f 69/426/185 68/427/185 67/428/185
f 68/429/185 69/430/185 67/431/185
f 70/432/185 71/433/185 72/434/185
f 71/435/185 70/436/185 72/437/185
f 73/438/215 75/439/196 74/440/216
f 75/441/196 73/442/215 74/443/216
f 78/444/217 77/445/185 76/446/217
f 77/447/185 78/448/217 76/449/217
f 81/450/205 80/451/185 79/452/205
f 80/453/185 81/454/205 79/455/205
f 84/456/205 82/457/205 83/458/185
f 82/459/205 84/460/205 83/461/185
f 86/462/217 87/463/185 85/464/217
f 87/465/185 86/466/217 85/467/217
f 90/468/193 88/469/193 89/470/193
f 88/471/193 90/472/193 89/473/193
f 92/474/212 91/475/213 93/476/214
f 91/477/213 92/478/212 93/479/214
f 96/480/185 94/481/185 95/482/185
f 94/483/185 96/484/185 95/485/185
f 99/486/185 98/487/185 97/488/185
f 98/489/185 99/490/185 97/491/185
f 102/492/185 100/493/185 101/494/185
f 100/495/185 102/496/185 101/497/185
f 104/498/217 105/499/217 103/500/185
f 105/501/217 104/502/217 103/503/185
f 106/504/185 107/505/185 108/506/185
f 107/507/185 106/508/185 108/509/185
f 110/510/217 109/511/217 111/512/185
f 109/513/217 110/514/217 111/515/185
f 114/516/185 113/517/185 112/518/185
f 113/519/185 114/520/185 112/521/185
f 116/522/205 115/523/185 117/524/205
f 115/525/185 116/526/205 117/527/205
f 119/528/214 120/529/214 118/530/213
f 120/531/214 119/532/214 118/533/213
f 122/534/218 123/535/219 121/536/220
f 121/537/220 123/538/219 122/539/218
f 124/540/221 125/541/222 126/542/223
f 126/543/223 125/544/222 124/545/221
f 128/546/185 127/547/185 129/548/185
f 128/549/185 129/550/185 127/551/185
f 130/552/224 151/225/225 134/224/226
f 153/226/227 152/202/227 151/225/227
f 130/75/34 140/74/33 131/553/228
f 132/554/229 130/555/229 133/556/229
f 133/556/230 140/557/230 132/554/230
f 131/558/130 139/76/231 134/78/131
f 136/559/232 137/560/232 138/561/232
f 157/562/233 138/561/233 158/563/233
f 136/564/234 167/565/234 165/566/234
f 136/564/235 155/567/236 167/565/237
f 158/568/238 137/569/239 166/570/240
f 143/571/158 141/572/157 145/573/241
f 147/178/242 146/6/242 148/91/242
f 144/574/243 163/575/243 143/576/243
f 141/577/157 163/578/244 142/579/245
f 145/86/40 142/580/246 162/84/38
f 146/581/247 147/582/247 170/583/247
f 154/584/248 153/226/249 147/178/250
f 160/585/251 167/89/252 146/581/253
f 154/584/248 147/178/250 167/177/237
f 152/202/254 171/92/255 148/91/256
f 152/202/254 158/204/238 171/92/255
f 157/562/257 153/586/258 169/587/259
f 157/562/260 169/587/261 154/588/88
f 157/562/260 154/588/88 156/589/87
f 155/590/236 154/591/248 167/592/237
f 158/593/238 160/594/262 171/595/255
f 158/568/238 166/570/240 159/596/263
f 166/171/264 165/249/264 164/88/264
f 160/585/251 164/88/265 168/87/266
f 160/585/251 168/87/266 167/89/252
f 175/597/267 172/598/267 176/599/267
f 206/600/268 174/601/269 197/93/270
f 172/252/163 198/20/162 174/602/271
f 176/599/272 198/603/272 175/597/272
f 206/600/268 197/93/270 173/95/273
f 180/604/243 188/605/243 177/606/243
f 178/607/104 179/608/274 181/14/275
f 184/609/276 187/97/277 181/610/278
f 184/609/276 179/611/279 187/97/277
f 192/198/280 193/209/281 182/612/282
f 210/128/283 209/24/284 183/13/151
f 213/179/285 183/13/285 208/23/285
f 210/128/283 183/13/151 193/243/150
f 178/613/104 188/614/286 179/615/274
f 177/616/105 178/607/104 181/14/275
f 194/617/287 191/618/288 195/619/289
f 199/199/290 193/620/290 190/200/290
f 192/198/280 189/208/291 204/207/292
f 191/197/293 190/200/293 189/208/293
f 194/617/287 200/621/294 191/618/288
f 192/198/280 204/207/292 193/209/281
f 211/622/295 194/623/287 192/624/296
f 202/625/297 203/626/298 193/627/150
f 212/100/153 201/628/299 194/244/154
f 199/199/300 201/629/300 202/630/300
f 212/100/153 203/631/301 201/628/299
f 203/626/298 210/632/283 193/627/150
f 208/23/302 211/633/295 213/179/303
f 208/99/304 203/631/301 212/100/153
f 215/634/185 214/635/185 216/636/185
f 214/637/185 215/638/185 216/639/185
f 218/640/185 219/641/185 217/642/185
f 219/643/185 218/644/185 217/645/185
f 222/646/305 220/647/306 221/648/307
f 221/649/307 220/650/306 222/651/305
f 223/652/185 225/653/185 224/654/185
f 223/655/185 224/656/185 225/657/185
f 228/658/185 227/659/185 226/660/185
f 226/661/185 227/662/185 228/663/185
f 229/664/185 230/665/185 231/666/185
f 229/667/185 231/668/185 230/669/185
f 233/670/218 234/671/218 232/672/218
f 232/673/218 234/674/218 233/675/218
f 236/676/201 237/677/201 235/678/201
f 235/679/201 237/680/201 236/681/201
f 238/682/308 240/683/309 239/684/309
f 239/685/309 240/686/309 238/687/308
f 241/688/310 243/689/311 242/690/312
f 242/691/312 243/692/311 241/693/310
f 245/694/185 246/695/185 244/696/185
f 245/697/185 244/698/185 246/699/185
f 249/700/313 248/701/314 247/702/315
f 248/703/314 249/704/313 247/705/315
f 252/706/316 250/707/317 251/708/318
f 250/709/317 252/710/316 251/711/318
f 253/712/319 255/713/320 254/714/321
f 255/715/320 253/716/319 254/717/321
f 258/718/160 256/719/160 257/720/160
f 257/721/160 256/722/160 258/723/160
f 260/724/322 259/725/323 261/726/324
f 259/727/323 260/728/322 261/729/324
f 264/730/325 262/731/326 263/732/327
f 262/733/326 264/734/325 263/735/327
f 265/736/328 266/737/329 267/738/330
f 266/739/329 265/740/328 267/741/330
f 268/742/185 270/743/185 269/744/185
f 268/745/185 269/746/185 270/747/185
f 271/748/185 273/749/185 272/750/185
f 271/751/185 272/752/185 273/753/185
f 274/754/185 276/755/185 275/756/185
f 274/757/185 275/758/185 276/759/185
f 277/760/217 279/761/217 278/762/217
f 279/763/217 277/764/217 278/765/217
f 281/766/185 280/767/185 282/768/185
f 280/769/185 281/770/185 282/771/185
f 287/229/331 286/210/331 285/132/331
f 286/210/170 299/212/66 298/259/168
f 300/772/332 287/773/333 304/774/334
f 289/775/335 287/229/169 298/259/168
f 283/776/61 290/104/336 296/106/62
f 288/777/337 285/132/338 296/131/339
f 288/255/166 291/254/165 283/778/340
f 289/779/341 294/780/341 292/781/341
f 300/772/342 292/781/343 299/782/344
f 294/257/345 298/783/168 303/256/346
f 297/784/347 291/785/347 295/786/347
f 302/787/348 293/258/348 301/788/348
f 295/786/349 288/789/349 297/784/349
f 300/772/342 304/774/350 289/779/351
f 299/137/66 301/136/65 298/790/168
f 319/791/352 305/792/352 320/793/352
f 314/794/353 308/107/354 318/109/355
f 307/795/356 312/796/356 310/797/356
f 305/262/173 309/261/172 306/798/357
f 327/181/93 310/797/358 323/182/94
f 312/264/345 321/799/135 325/263/359
f 320/793/347 309/800/347 319/791/347
f 324/801/348 311/265/348 322/802/348
f 314/794/353 306/803/360 308/107/354
f 316/35/174 326/804/361 321/232/135
f 316/213/362 307/795/363 327/181/93
f 326/805/361 323/68/27 322/67/26
f 326/805/361 322/67/26 321/806/135
f 328/807/364 329/808/364 336/809/364
f 336/809/365 332/810/365 328/807/365
f 329/811/177 347/40/366 337/143/367
f 329/811/177 338/812/368 347/40/366
f 346/813/369 331/110/369 337/112/369
f 330/814/370 335/815/370 333/816/370
f 329/268/177 332/267/176 338/817/368
f 335/270/345 339/818/371 342/269/372
f 341/819/373 334/271/373 343/820/373
f 331/110/374 345/821/374 344/822/374
f 340/823/375 345/824/376 330/814/377
f 330/234/378 344/80/378 339/825/378
f 346/142/379 340/826/74 343/827/73
f 343/827/380 344/80/380 346/142/381
f 362/828/382 351/829/383 355/113/354
f 350/274/178 356/273/172 351/830/384
f 352/831/365 356/832/365 360/833/365
f 362/828/382 355/113/354 353/115/385
f 360/833/352 350/834/352 352/831/352
f 354/835/386 359/836/386 357/837/386
f 367/184/96 357/837/358 369/185/97
f 359/276/345 372/838/139 371/275/387
f 370/839/348 358/277/348 368/840/348
f 364/47/179 366/841/361 372/235/139
f 364/214/388 354/835/389 367/184/96
f 366/842/361 368/70/29 372/843/139
f 366/842/361 369/71/30 368/70/29
f 378/844/390 374/845/391 385/116/354
f 373/280/178 386/279/172 374/846/384
f 375/847/347 386/848/347 382/849/347
f 378/844/390 385/116/354 376/118/392
f 382/849/352 373/850/352 375/847/352
f 380/50/179 394/851/361 384/237/142
f 380/215/388 383/852/389 395/187/96
f 383/852/393 389/853/393 387/854/394
f 395/187/96 387/854/358 391/188/94
f 389/282/345 384/855/142 392/281/395
f 393/856/348 388/283/348 390/857/348
f 394/858/361 391/157/27 390/156/78
f 394/858/361 390/156/78 384/859/142
f 398/860/396 397/861/397 416/160/398
f 396/862/399 405/863/400 415/864/401
f 416/865/402 415/866/402 414/867/402
f 398/860/396 416/160/398 399/159/403
f 401/868/404 414/867/405 407/869/55
f 401/868/404 407/869/55 405/870/57
f 403/56/183 409/871/406 410/287/181
f 403/216/407 408/872/408 419/217/123
f 418/239/409 404/57/182 410/287/181
f 396/873/399 398/874/396 405/875/400
f 419/217/123 408/872/408 413/876/82
f 414/877/410 408/878/411 410/879/181
f 414/877/410 410/879/181 417/81/412
f 409/880/406 412/82/413 410/879/181
f 419/217/123 413/876/82 409/218/81
f 408/881/411 418/882/409 410/883/181
f 432/884/414 423/122/354 429/124/415
f 422/885/416 427/886/416 425/887/416
f 420/290/178 424/289/172 421/888/384
f 437/190/100 425/887/358 438/191/101
f 427/292/345 442/889/147 441/291/417
f 428/890/365 424/891/365 430/892/365
f 440/893/348 426/293/348 439/894/348
f 432/884/414 421/895/360 423/122/354
f 430/892/352 420/896/352 428/890/352
f 434/65/174 436/897/418 442/241/147
f 434/222/419 422/885/389 437/190/100
f 436/898/418 439/168/78 442/899/147
f 436/898/418 438/169/27 439/168/78
f 445/900/185 443/901/185 444/902/185
f 445/903/185 444/904/185 443/905/185
f 448/906/185 446/907/185 447/908/185
f 448/909/185 447/910/185 446/911/185
f 137/2/420 138/912/420 139/3/420
f 139/3/421 140/913/421 135/914/421
f 139/3/422 135/914/422 136/1/422
f 145/573/40 146/6/423 142/5/246
f 146/6/424 147/178/424 149/4/424
f 147/178/160 148/91/160 149/4/160
f 131/7/425 151/915/426 152/8/427
f 153/9/428 150/916/428 131/7/428
f 166/12/429 161/917/429 162/10/429
f 162/10/430 163/918/430 164/919/430
f 162/10/431 164/919/431 165/11/431
f 185/15/432 182/180/432 183/13/432
f 183/13/433 184/920/276 181/14/278
f 191/18/434 186/921/434 187/16/434
f 187/16/435 188/922/435 189/923/435
f 187/16/436 189/923/436 190/17/436
f 196/19/437 197/924/437 198/20/437
f 199/21/438 200/925/438 196/19/438
f 200/925/439 201/103/440 196/19/440
f 209/24/441 205/129/441 207/22/441
f 205/129/442 206/926/442 207/22/442
f 206/926/268 173/927/273 207/22/443
f 283/25/444 285/928/445 286/26/446
f 287/27/447 284/929/448 283/25/449
f 294/30/450 289/930/451 290/28/452
f 290/28/453 291/931/453 292/29/453
f 292/29/454 293/932/454 294/30/454
f 312/33/455 307/933/456 308/31/457
f 308/31/458 309/934/458 310/32/458
f 310/32/459 311/935/459 312/33/459
f 317/36/460 313/233/460 315/34/460
f 313/233/461 314/936/462 315/34/463
f 314/936/353 318/937/355 315/34/464
f 335/39/465 330/938/466 331/37/467
f 331/37/458 332/939/458 333/38/458
f 333/38/468 334/940/468 335/39/468
f 348/41/469 344/80/469 345/42/469
f 345/42/470 346/142/470 347/40/470
f 359/45/471 354/941/472 355/43/473
f 355/43/458 356/942/458 357/44/458
f 357/44/474 358/943/474 359/45/474
f 365/48/475 361/236/475 363/46/475
f 361/236/476 362/944/476 363/46/476
f 362/944/382 353/945/385 363/46/477
f 381/51/475 377/238/475 379/49/475
f 377/238/478 378/946/478 379/49/478
f 378/946/390 376/947/392 379/49/479
f 389/54/480 383/948/481 385/52/482
f 385/52/483 386/949/483 387/53/483
f 387/53/484 388/950/484 389/54/484
f 404/57/485 400/240/485 402/55/485
f 400/240/486 401/951/487 402/55/487
f 401/951/404 405/875/57 402/55/488
f 411/58/489 412/952/489 413/59/489
f 413/59/490 414/953/490 415/60/490
f 415/60/491 416/954/491 411/58/491
f 427/63/492 422/955/493 423/61/494
f 423/61/458 424/956/458 425/62/458
f 425/62/495 426/957/495 427/63/495
f 435/66/496 431/242/496 433/64/496
f 431/242/497 432/958/498 433/64/497
f 432/958/414 429/959/415 433/64/499
f 132/73/500 135/960/500 140/74/500
f 139/76/501 138/961/501 133/77/501
f 296/962/339 297/784/502 288/789/337
f 283/130/340 284/231/503 288/777/166
f 349/79/504 339/825/504 344/80/504
f 417/81/412 410/879/181 412/82/505
f 162/84/506 161/963/506 144/85/506
f 168/87/507 165/249/507 164/88/507
f 170/90/508 149/4/508 148/91/508
f 206/926/268 205/129/509 174/964/269
f 197/93/510 196/965/510 176/94/510
f 180/96/511 181/610/511 187/97/511
f 208/99/512 207/966/512 212/100/512
f 203/102/513 202/967/513 196/19/513
f 290/104/514 289/968/514 297/105/514
f 298/783/168 301/788/65 303/256/346
f 314/936/353 313/233/515 306/969/360
f 308/107/516 307/970/517 320/108/518
f 321/799/135 322/802/26 325/263/359
f 348/41/519 347/40/520 338/812/521
f 331/110/522 330/971/522 336/111/522
f 339/818/371 343/820/523 342/269/372
f 343/827/523 339/825/371 349/79/524
f 362/944/382 361/236/525 351/972/383
f 355/113/526 354/973/526 352/114/526
f 372/838/139 368/840/29 371/275/387
f 378/946/390 377/238/527 374/974/391
f 385/116/528 383/975/528 375/117/528
f 384/855/142 390/857/78 392/281/395
f 401/951/404 400/240/529 406/976/530
f 407/119/531 415/864/531 414/120/531
f 432/958/414 431/242/532 421/977/360
f 423/122/526 422/978/526 428/123/526
f 442/889/147 439/894/78 441/291/417
f 134/979/226 133/556/533 130/555/224
f 142/580/534 163/980/534 162/84/535
f 159/981/263 160/594/262 158/593/238
f 174/601/536 198/982/536 197/93/536
f 181/983/275 180/604/537 177/606/105
f 210/128/283 203/984/298 205/129/538
f 211/622/295 192/624/296 213/985/303
f 283/776/61 291/986/539 290/104/336
f 302/133/540 299/987/540 293/134/540
f 306/803/541 309/988/541 308/107/541
f 324/139/542 323/989/543 311/140/544
f 338/990/545 332/991/546 331/110/546
f 341/144/547 340/992/548 334/145/548
f 351/829/549 356/993/550 355/113/551
f 370/150/552 369/994/553 358/151/553
f 374/845/554 386/995/555 385/116/556
f 393/153/557 391/996/557 388/154/557
f 399/159/558 411/997/558 416/160/558
f 399/159/403 406/161/559 398/860/396
f 421/895/541 424/998/541 423/122/541
f 440/165/560 438/999/561 426/166/562
f 166/171/563 160/585/563 159/172/563
f 213/179/564 192/1000/280 182/180/282
f 201/103/299 200/925/565 194/1001/154
f 131/223/228 150/228/566 130/552/34
f 189/193/567 188/1002/286 178/194/104
f 195/196/568 186/1003/568 191/197/568
f 199/199/569 191/197/569 190/200/569
f 208/23/570 184/920/570 183/13/570
f 152/202/571 151/225/571 157/203/571
f 156/174/572 155/176/572 136/205/572
f 185/15/573 181/14/574 179/608/279
f 204/207/575 190/200/575 189/208/575
f 286/210/576 285/132/576 300/211/576
f 316/213/577 315/1004/577 327/181/577
f 346/1005/578 345/824/579 340/823/580
f 364/214/581 363/1006/581 367/184/581
f 380/215/577 379/1007/577 395/187/577
f 403/216/582 402/1008/582 419/217/582
f 434/222/583 433/1009/583 437/190/583
f 131/558/130 140/1010/584 139/76/231
f 145/1011/241 144/574/585 143/576/158
f 153/226/586 154/584/586 169/227/586
f 170/1012/587 171/595/588 160/594/251
f 173/1013/589 176/599/590 172/598/591
f 179/611/592 188/1014/592 187/97/592
f 195/1015/289 192/624/296 194/623/287
f 287/229/593 289/775/594 304/230/595
f 318/1016/596 320/793/597 305/792/598
f 321/232/599 307/1017/600 313/233/601
f 337/1018/367 336/809/602 329/808/177
f 353/1019/603 352/831/604 350/834/605
f 372/235/606 354/1020/607 361/236/608
f 376/1021/609 375/847/597 373/850/610
f 384/237/611 383/1022/612 377/238/613
f 418/239/409 408/1023/411 400/240/614
f 429/1024/615 428/890/616 420/896/598
f 442/241/617 422/1025/618 431/242/619
f 398/1026/396 396/1027/399 397/1028/397
f 141/572/157 142/5/245 149/4/620
f 164/245/621 163/1029/244 141/246/157
f 136/248/159 166/171/159 165/249/159
f 148/91/160 147/178/160 153/226/160
f 172/1030/591 207/22/622 173/927/589
f 175/251/623 199/21/623 198/20/623
f 295/253/624 292/1031/624 291/254/624
f 303/256/625 301/788/625 294/257/625
f 305/1032/598 315/34/626 318/937/596
f 319/260/627 310/1033/627 309/261/627
f 325/263/625 322/802/625 312/264/625
f 328/266/628 333/1034/628 332/267/628
f 342/269/629 343/820/629 335/270/629
f 350/1035/605 363/46/630 353/945/603
f 360/272/631 357/1036/631 356/273/631
f 371/275/625 368/840/625 359/276/625
f 373/1037/610 379/49/632 376/947/609
f 382/278/633 387/1038/633 386/279/633
f 392/281/625 390/857/625 389/282/625
f 398/874/396 402/55/634 405/875/400
f 416/284/635 415/1039/635 397/285/635
f 420/1040/598 433/64/626 429/959/615
f 430/288/636 425/1041/636 424/289/636
f 441/291/625 439/894/625 427/292/625
f 151/225/225 130/552/224 150/228/637
f 151/225/638 150/228/638 153/226/638
f 133/556/639 139/1042/639 140/557/639
f 138/561/640 157/562/640 136/559/640
f 157/562/641 156/589/641 136/559/641
f 145/573/241 141/572/157 149/4/620
f 145/573/642 149/4/643 146/6/643
f 149/4/644 148/91/644 146/6/644
f 144/574/639 162/1043/639 163/575/639
f 170/583/587 160/585/251 146/581/253
f 147/582/645 148/1044/645 170/583/645
f 157/562/257 152/1045/646 153/586/258
f 164/88/265 160/585/251 166/171/647
f 172/1030/163 174/964/271 205/129/648
f 172/1030/649 205/129/649 209/24/649
f 207/22/650 172/1030/650 209/24/650
f 176/599/651 197/1046/651 198/603/651
f 180/604/652 187/1047/652 188/605/652
f 184/609/653 183/1048/653 185/1049/653
f 179/611/279 184/609/276 185/1049/573
f 213/179/654 182/180/654 183/13/654
f 189/208/291 192/198/280 191/197/655
f 199/199/656 200/201/656 201/629/656
f 202/630/297 193/620/150 199/199/657
f 208/99/658 209/1050/658 203/631/658
f 285/132/338 288/777/337 284/231/659
f 285/132/660 284/231/660 287/229/660
f 300/772/332 286/1051/661 287/773/333
f 292/781/343 300/772/342 289/779/351
f 297/784/662 290/1052/662 291/785/662
f 315/34/663 305/1032/664 313/233/664
f 305/1032/173 306/969/357 313/233/665
f 310/797/358 327/181/93 307/795/363
f 320/793/666 308/1053/666 309/800/666
f 316/213/667 317/1054/668 307/795/669
f 336/809/662 331/1055/662 332/810/662
f 333/816/670 340/823/375 330/814/377
f 331/110/671 346/813/671 345/821/671
f 344/822/672 348/1056/672 331/110/672
f 348/1056/519 338/990/521 331/110/673
f 349/79/674 344/80/674 343/827/674
f 344/80/675 345/42/675 346/142/675
f 352/831/662 355/1057/662 356/832/662
f 363/46/676 350/1035/663 361/236/676
f 350/1035/178 351/972/384 361/236/677
f 357/837/358 367/184/96 354/835/389
f 364/214/678 365/1058/679 354/835/680
f 375/847/666 385/1059/666 386/848/666
f 380/215/681 381/1060/681 383/852/682
f 379/49/683 373/1037/683 377/238/683
f 373/1037/178 374/974/384 377/238/677
f 387/854/358 395/187/96 383/852/389
f 414/867/405 401/868/404 406/1061/530
f 414/867/684 406/1061/684 416/865/685
f 403/216/686 404/1062/686 408/872/686
f 402/55/687 398/874/687 400/240/687
f 398/874/396 406/976/559 400/240/688
f 417/81/689 412/82/689 414/877/689
f 412/82/690 413/1063/690 414/877/690
f 433/64/683 420/1040/683 431/242/683
f 420/1040/178 421/977/384 431/242/677
f 425/887/358 437/190/100 422/885/389
f 428/890/662 423/1064/662 424/891/662
f 434/222/691 435/1065/692 422/885/693
