# Blender 4.5.0
# www.blender.org
mtllib shop_005.lod1.mtl
o shop_005
v 2.372014 2.961580 -3.083525
v 2.372014 2.530882 -3.083525
v -2.372014 2.961580 -3.083525
v -2.372014 2.530882 -3.083525
v -3.874041 0.132861 -3.550000
v 3.874041 0.132861 3.550000
v -3.874041 0.000916 3.550000
v 3.875000 0.000000 3.548504
v -3.875000 0.133777 3.548504
v -3.875000 -0.000000 -3.548504
v 3.875000 0.133776 -3.548504
v 3.874041 0.000915 -3.550000
v 3.548043 0.139535 -2.749672
v 3.548044 3.039177 3.049918
v -3.548043 0.139536 3.049918
v -3.548044 3.039176 -2.749672
v -3.549713 0.139198 -2.747811
v 3.549714 3.039513 -2.747812
v 3.549713 0.139199 3.048057
v -3.549713 3.039513 3.048057
v -3.488486 3.157577 -2.865066
v -3.484567 3.158712 2.867136
v -3.492966 3.154171 2.859620
v 3.493646 3.157889 -2.860038
v 3.492957 3.042013 -2.860151
v 3.488486 3.157577 2.865065
v -3.483552 3.041709 -2.859621
v 3.494936 3.044734 2.865133
v -3.657721 3.402295 2.863489
v -3.662361 3.402295 2.859620
v -3.645374 3.402295 2.859620
v -3.652721 3.050268 -2.867341
v -3.495547 3.396682 2.863996
v -3.492918 3.041505 2.864542
v -3.496349 3.402059 -2.859119
v -3.497246 3.394560 -2.867348
v -3.645449 3.041771 2.867360
v -3.643401 3.041749 2.867277
v 3.496963 3.398403 -2.865685
v 3.650526 3.399717 2.867348
v 3.645374 3.402295 2.875075
v 3.493849 3.399528 2.859060
v 3.492966 3.394561 2.859620
v 3.653102 3.393027 -2.867348
v -3.650363 3.397456 -3.024946
v 3.650364 3.046548 -3.024946
v -3.650324 3.045629 -3.024038
v 3.650324 3.398374 -3.024038
v -3.646198 3.394581 -2.874034
v 3.653102 3.049443 -2.870783
v 3.645368 3.041746 -2.865807
v 3.653102 3.050977 2.867348
v 3.650364 3.397456 3.024946
v -3.650364 3.046548 3.024946
v 3.650324 3.045630 3.024037
v -3.653019 3.392861 3.024909
v -3.645374 3.402295 3.019751
v -3.653102 3.392966 3.023336
v -2.101616 0.500374 -2.896124
v -3.202888 2.287704 -2.896125
v -3.203665 0.499925 -2.895568
v -2.101616 2.287704 -2.748497
v -3.202888 0.500374 -2.748497
v -2.100838 0.499925 -2.749054
v -3.203665 2.288153 -2.749054
v -2.100838 2.288153 -2.895568
v -3.136711 2.219279 -2.913618
v -3.136711 0.568799 -2.911151
v -2.167793 2.219279 -2.911151
v -2.167793 0.568799 -2.913618
v -3.135675 2.262688 -2.972229
v -3.139653 0.535406 -2.972229
v -3.135674 0.535406 -2.912590
v -3.139653 2.262688 -2.912590
v -2.650263 2.262688 -2.972229
v -2.654241 0.535406 -2.972229
v -2.650263 0.535406 -2.912590
v -2.654241 2.262688 -2.912590
v -2.164850 2.262688 -2.972229
v -2.168829 0.535406 -2.972229
v -2.168829 2.262688 -2.912590
v -2.164850 0.535406 -2.912590
v -2.055602 0.536482 -3.079611
v -3.247482 0.458844 -2.844357
v -2.057022 0.536328 -2.844357
v -3.247482 0.536329 -3.080495
v -3.248902 0.536482 -2.845241
v -3.248901 0.458691 -3.079611
v -2.055602 0.458691 -2.845241
v -2.057022 0.458844 -3.080495
v -1.751656 2.287704 -2.896125
v -0.650384 0.500374 -2.896124
v -1.751656 0.500374 -2.748497
v -1.752433 2.288153 -2.749054
v -1.752433 0.499925 -2.895568
v -0.650384 2.287704 -2.748497
v -0.649606 2.288153 -2.895568
v -0.649606 0.499925 -2.749054
v -1.685478 2.219279 -2.913619
v -1.685478 0.568799 -2.911151
v -0.716561 2.219279 -2.911151
v -0.716561 0.568799 -2.913618
v -1.688421 0.535406 -2.972229
v -1.688421 2.262688 -2.912590
v -1.684443 0.535406 -2.912590
v -1.684443 2.262688 -2.972229
v -1.203009 0.535406 -2.972229
v -1.199031 0.535406 -2.912590
v -1.203009 2.262688 -2.912590
v -1.199031 2.262688 -2.972229
v -0.713618 2.262688 -2.972229
v -0.717597 2.262688 -2.912590
v -0.717597 0.535406 -2.972229
v -0.713618 0.535406 -2.912590
v -0.605790 0.458844 -3.080495
v -1.797669 0.458691 -3.079611
v -1.796250 0.536329 -3.080495
v -1.796250 0.458844 -2.844357
v -0.604370 0.536482 -3.079611
v -0.605790 0.536328 -2.844357
v -1.797669 0.536482 -2.845241
v -0.604370 0.458691 -2.845241
v 1.050723 2.287704 -2.896125
v 2.151995 2.287704 -2.748497
v 1.050724 0.500374 -2.748497
v 2.152773 0.499925 -2.749054
v 1.049946 2.288153 -2.749054
v 1.049946 0.499925 -2.895568
v 2.152773 2.288153 -2.895568
v 2.151996 0.500374 -2.896124
v 1.116901 2.219279 -2.913618
v 2.085819 0.568799 -2.913618
v 2.085819 2.219279 -2.911151
v 1.116901 0.568799 -2.911151
v 1.117937 2.262688 -2.972229
v 1.113958 0.535406 -2.972229
v 1.113958 2.262688 -2.912590
v 1.117937 0.535406 -2.912590
v 1.599370 0.535406 -2.972229
v 1.599370 2.262688 -2.912590
v 1.603349 0.535406 -2.912590
v 1.603349 2.262688 -2.972229
v 2.088761 2.262688 -2.972229
v 2.084782 2.262688 -2.912590
v 2.088761 0.535406 -2.912590
v 2.084782 0.535406 -2.972229
v 1.004323 0.534462 -3.078892
v 1.004618 0.457581 -3.080635
v 1.008577 0.465255 -3.082524
v 1.009766 0.457521 -3.080740
v 1.008577 0.529917 -2.842327
v 1.009766 0.537651 -2.844111
v 2.201870 0.460438 -2.844537
v 1.004323 0.460710 -2.845959
v 2.251743 0.500374 -2.748497
v 2.251743 2.287704 -2.896125
v 2.250966 0.499925 -2.895568
v 3.353793 2.288153 -2.895568
v 3.353793 0.499925 -2.749054
v 3.353015 2.287704 -2.748497
v 2.250966 2.288153 -2.749054
v 3.353015 0.500374 -2.896124
v 3.286838 2.219279 -2.911151
v 2.317920 0.568799 -2.911151
v 2.317920 2.219279 -2.913619
v 3.286838 0.568799 -2.913618
v 2.314978 0.535406 -2.972229
v 2.318956 0.535406 -2.912590
v 2.314978 2.262688 -2.912590
v 2.318956 2.262688 -2.972229
v 2.800390 2.262688 -2.912590
v 2.804369 2.262688 -2.972229
v 2.800390 0.535406 -2.972229
v 2.804369 0.535406 -2.912590
v 3.289781 2.262688 -2.972229
v 3.285802 2.262688 -2.912590
v 3.289781 0.535406 -2.912590
v 3.285802 0.535406 -2.972229
v 3.399015 0.536651 -3.079550
v 3.399442 0.534439 -2.845965
v 2.201869 0.452052 -3.077060
v 3.399015 0.458521 -2.845302
v 2.201870 0.534734 -3.080314
v 3.399443 0.460733 -3.078886
v 0.846799 2.418243 -2.900805
v 0.846165 0.170052 -2.901298
v 0.846165 2.417702 -2.763341
v -0.346374 2.418243 -2.763834
v -0.345740 0.170052 -2.763341
v -0.345740 2.417702 -2.901298
v -0.346374 0.169511 -2.900805
v 0.846799 0.169511 -2.763834
v 0.775158 0.237467 -2.923946
v -0.274733 2.340271 -2.923947
v -0.274733 0.237467 -2.920839
v 0.775158 2.340271 -2.920840
v 0.252231 2.342786 -2.979689
v 0.248194 0.234951 -2.979689
v 0.248194 2.342786 -2.925147
v 0.252231 0.234951 -2.925146
v 0.127974 0.998248 -3.045794
v 0.127974 1.399197 -2.979139
v 0.132247 0.998248 -2.979139
v 0.132247 1.399197 -3.045794
v 0.368177 1.399197 -2.979139
v 0.372451 1.399197 -3.045794
v 0.368177 0.998248 -3.045794
v 0.372451 0.998248 -2.979139
v -2.396695 2.502550 -2.928117
v -2.397888 2.989620 -2.928632
v -2.397888 2.502841 -3.076285
v 2.397888 2.502841 -2.928632
v 2.396695 2.502550 -3.076801
v 2.396695 2.989911 -2.928117
v 2.397888 2.989620 -3.076285
v -2.396695 2.989911 -3.076801
v -3.650372 2.388404 -3.363666
v -3.650373 2.302758 -2.721317
v -3.651772 2.389254 -2.723037
v 3.651772 2.301909 -2.723037
v 3.650373 2.388404 -2.721317
v 3.651772 2.389254 -3.361947
v -3.651772 2.301909 -3.361947
v 3.650372 2.302758 -3.363666
v -2.057290 0.139810 -3.400572
v -2.057290 0.635005 -2.804510
v -3.147129 0.635005 -3.400572
v -3.148567 0.635375 -2.805932
v -2.055852 0.635376 -3.399149
v -3.148567 0.139440 -3.399149
v -2.055852 0.139440 -2.805932
v -3.147129 0.139810 -2.804510
v -2.818221 0.617245 -3.226056
v -2.961677 0.550359 -3.219087
v -3.024890 0.702917 -2.989033
v -2.970712 0.554106 -2.996002
v -2.921197 0.764516 -2.994571
v -2.968706 0.759731 -3.226199
v -3.030053 0.657545 -3.218016
v -2.846630 0.581508 -2.997074
v -2.817807 0.697181 -2.988892
v -2.848022 0.734183 -3.220518
v -2.497949 0.617245 -3.226056
v -2.641405 0.550359 -3.219088
v -2.527750 0.734183 -3.220518
v -2.709782 0.657544 -3.218015
v -2.497535 0.697180 -2.988891
v -2.648434 0.759731 -3.226199
v -2.704618 0.702918 -2.989033
v -2.600924 0.764516 -2.994571
v -2.650440 0.554106 -2.996002
v -2.526358 0.581508 -2.997074
v -2.207478 0.734183 -3.220518
v -2.177677 0.617245 -3.226056
v -2.328162 0.759731 -3.226199
v -2.206086 0.581508 -2.997073
v -2.280653 0.764516 -2.994571
v -2.177263 0.697180 -2.988891
v -2.384346 0.702918 -2.989033
v -2.321133 0.550359 -3.219087
v -2.330168 0.554107 -2.996002
v -2.389509 0.657545 -3.218015
v -1.745939 0.635005 -3.400572
v -1.745939 0.139810 -2.804510
v -1.747377 0.635375 -2.805932
v -0.654662 0.635375 -3.399149
v -0.654662 0.139440 -2.805932
v -0.656100 0.139810 -3.400572
v -0.656100 0.635005 -2.804510
v -1.747377 0.139440 -3.399149
v -1.446832 0.734183 -3.220518
v -1.623702 0.702916 -2.989033
v -1.569522 0.554107 -2.996002
v -1.416617 0.697180 -2.988891
v -1.567516 0.759731 -3.226199
v -1.520007 0.764516 -2.994571
v -1.628863 0.657543 -3.218016
v -1.560487 0.550359 -3.219087
v -1.445441 0.581508 -2.997073
v -1.417031 0.617245 -3.226057
v -1.096761 0.617244 -3.226057
v -1.240215 0.550359 -3.219087
v -1.308591 0.657543 -3.218016
v -1.126560 0.734183 -3.220518
v -1.247244 0.759731 -3.226199
v -1.199735 0.764516 -2.994571
v -1.096347 0.697181 -2.988891
v -1.303430 0.702916 -2.989033
v -1.249250 0.554106 -2.996002
v -1.125169 0.581508 -2.997073
v -0.926972 0.759731 -3.226199
v -0.806288 0.734183 -3.220518
v -0.983156 0.702918 -2.989033
v -0.928978 0.554106 -2.996002
v -0.804897 0.581508 -2.997073
v -0.776073 0.697180 -2.988891
v -0.879463 0.764516 -2.994571
v -0.988320 0.657545 -3.218015
v -0.919943 0.550359 -3.219087
v -0.776487 0.617245 -3.226056
v -1.522484 3.235092 1.279401
v -1.522483 3.880000 1.723057
v -1.521393 3.235779 1.724128
v -1.521393 3.879313 1.278330
v -0.680476 3.879313 1.724128
v -0.679386 3.880000 1.279401
v -0.680476 3.235779 1.278330
v -0.679386 3.235092 1.723057
v -0.740721 3.688614 1.250785
v -0.825195 3.773216 1.250896
v -0.938425 3.341650 1.245057
v -1.141113 3.457618 1.251347
v -0.709890 3.573253 1.250701
v -1.055413 3.372058 1.252618
v -1.172048 3.572950 1.251263
v -1.141160 3.688487 1.251152
v -1.056530 3.773217 1.251062
v -0.940818 3.804245 1.250986
v -0.741361 3.456273 1.249430
v -0.827483 3.371400 1.256991
v -1.153526 3.420907 1.216226
v -0.728072 3.408723 1.216226
v -0.733886 3.425322 1.229541
v -1.147711 3.404307 1.229541
v -0.728072 3.475831 1.216226
v -0.733886 3.492431 1.229541
v -1.153526 3.477146 1.214913
v -1.147711 3.490472 1.231499
v -1.153526 3.555124 1.216226
v -1.147711 3.538524 1.229541
v -0.733886 3.540483 1.231499
v -0.728072 3.553810 1.214913
v -1.153526 3.622233 1.216226
v -1.147711 3.605633 1.229541
v -0.728072 3.611364 1.227087
v -0.733886 3.624689 1.210500
v -0.728072 3.677157 1.216226
v -1.147711 3.691798 1.231499
v -1.153526 3.678472 1.214913
v -0.733886 3.693758 1.229541
v -0.728072 3.755136 1.214913
v -1.153526 3.756450 1.216226
v -1.147711 3.739851 1.229541
v -0.733886 3.741810 1.231499
v -1.435060 3.751974 1.254517
v -1.347303 3.751974 1.257540
v -1.347303 3.393166 1.254517
v -1.435060 3.393166 1.257540
v -1.363056 3.163728 1.215604
v -1.439324 3.230195 1.215604
v -1.363056 3.230195 1.786854
v -1.362180 3.230937 1.217197
v -1.362180 3.162987 1.785261
v -1.440199 3.230937 1.785261
v -1.440199 3.162987 1.217197
v -1.439324 3.163728 1.786854
v -0.838814 3.230195 1.215604
v -0.762546 3.230196 1.786854
v -0.839690 3.230937 1.785261
v -0.839690 3.162987 1.217197
v -0.761670 3.162987 1.785261
v -0.762546 3.163728 1.215604
v -0.761670 3.230937 1.217197
v -0.838814 3.163728 1.786854
v -0.320373 3.879313 1.278330
v 0.521634 3.880000 1.279401
v 0.520543 3.235779 1.278330
v -0.320373 3.235779 1.724128
v 0.520543 3.879313 1.724128
v -0.321464 3.880000 1.723057
v -0.321464 3.235092 1.279401
v 0.521634 3.235092 1.723057
v 0.491129 3.573253 1.250701
v 0.375825 3.773216 1.250896
v 0.059860 3.688487 1.251152
v 0.028972 3.572950 1.251263
v 0.144490 3.773217 1.251062
v 0.460299 3.688614 1.250785
v 0.459659 3.456273 1.249430
v 0.145607 3.372058 1.252618
v 0.059907 3.457618 1.251347
v 0.260201 3.804245 1.250986
v 0.373536 3.371400 1.256991
v 0.262594 3.341650 1.245057
v 0.472948 3.408723 1.216226
v 0.467133 3.425322 1.229541
v 0.047494 3.420907 1.216226
v 0.053309 3.404307 1.229541
v 0.047494 3.477146 1.214913
v 0.467133 3.492431 1.229541
v 0.472948 3.475831 1.216226
v 0.053309 3.490472 1.231499
v 0.472948 3.553810 1.214913
v 0.047494 3.555124 1.216226
v 0.053309 3.538524 1.229541
v 0.467133 3.540483 1.231499
v 0.467133 3.624689 1.210500
v 0.047494 3.622233 1.216226
v 0.472948 3.611364 1.227087
v 0.053309 3.605633 1.229541
v 0.047494 3.678472 1.214913
v 0.472948 3.677157 1.216226
v 0.053309 3.691798 1.231499
v 0.467133 3.693758 1.229541
v 0.047494 3.756450 1.216226
v 0.467133 3.741810 1.231499
v 0.472948 3.755136 1.214913
v 0.053309 3.739851 1.229541
v -0.234040 3.751974 1.254517
v -0.146283 3.751974 1.257540
v -0.234040 3.393166 1.257540
v -0.146283 3.393166 1.254517
v -0.238304 3.163728 1.786854
v -0.162036 3.230196 1.786854
v -0.238304 3.230195 1.215604
v -0.239180 3.162987 1.217197
v -0.161160 3.230937 1.217197
v -0.239180 3.230937 1.785261
v -0.162036 3.163728 1.215604
v -0.161160 3.162987 1.785261
v 0.438474 3.230196 1.786854
v 0.362206 3.163728 1.786854
v 0.362206 3.230195 1.215604
v 0.438474 3.163728 1.215604
v 0.361330 3.230937 1.785261
v 0.439350 3.230937 1.217197
v 0.361330 3.162987 1.217197
v 0.439350 3.162987 1.785261
v -3.402154 0.116299 3.189612
v -3.445026 0.120595 3.127846
v -3.370207 0.115875 3.109301
v -3.369107 2.801992 3.109832
v -3.443098 2.797695 3.123192
v -3.403307 2.802414 3.189210
v 3.403624 0.116299 3.189612
v 3.435572 0.115876 3.109301
v 3.436671 2.801991 3.109832
v 3.402471 2.802414 3.189210
v 3.360752 0.120595 3.127848
v 3.362680 2.797696 3.123193
v 0.396680 2.247605 3.074076
v 0.396230 0.451058 3.073584
v 0.396230 2.246875 3.191546
v -0.396680 2.247605 3.191053
v -0.396230 2.246875 3.073583
v -0.396680 0.450328 3.074076
v 0.396680 0.450328 3.191054
v -0.396230 0.451058 3.191546
v 0.628962 1.794874 3.049369
v 0.628365 1.302619 3.050091
v 0.628365 1.795963 3.215039
v 0.628961 1.303708 3.215761
v 0.972995 1.302619 3.215039
v 0.972398 1.303708 3.049370
v 0.972398 1.794874 3.215760
v 0.972995 1.795963 3.050091
v -3.493863 3.042533 2.861634
v -3.492966 3.041710 2.859620
v 3.645449 3.041770 -2.867361
v 2.201869 0.532182 -2.836863
v 2.201870 0.542961 -2.847649
v 2.201869 0.543120 -2.847792
v -3.500693 3.033977 2.867348
v -3.653085 3.050910 -2.867352
v -3.653102 3.050977 -2.867348
v 3.495303 3.050026 2.866863
v 3.494110 3.040329 2.868810
v 3.492966 3.041710 2.859620
v 3.495046 3.050259 2.867347
v -3.645368 3.041747 2.865806
v -3.645370 3.041706 2.867346
v 3.645370 3.041705 -2.867347
v 3.645370 3.041705 -2.867348
v 2.201869 0.462990 -3.087987
v 2.201870 0.452211 -3.077203
v 3.653042 3.050728 2.867364
v 3.652761 3.050303 2.867326
v -3.653102 3.394560 -2.867348
v 2.201869 0.537519 -3.078216
v 2.201864 0.533293 -3.082711
v 1.004618 0.537591 -2.844216
v -3.497108 3.051038 -2.867348
v -3.494373 3.049463 -2.866548
v -3.493278 3.049528 -2.867495
v -3.493477 3.050375 -2.866313
v -3.653141 3.401915 2.867312
v -3.653111 3.401912 2.867340
v -3.653102 3.402295 2.867348
v -3.653107 3.402294 2.867348
v -3.653102 3.401528 2.867348
v -3.652717 3.395637 -2.866226
v -3.645374 3.041709 -2.859621
v 3.652847 3.395065 2.867360
v 3.651318 3.398725 2.867348
v 3.645374 3.402295 2.867348
v 3.492424 3.036836 -2.866247
v 3.481107 3.048223 -2.862452
v 3.652754 3.393745 -2.867387
v 3.652779 3.393681 -2.867319
v 2.201869 0.457653 -2.846636
v 2.201864 0.461880 -2.842141
v -3.653102 3.049443 2.870782
v -3.660829 3.402294 -2.875075
vn -0.0000 -0.0000 -1.0000
vn 0.8898 -0.3544 -0.2875
vn -0.7656 0.4031 0.5014
vn -0.8900 -0.2876 -0.3538
vn -0.0000 -0.6379 -0.7701
vn -0.0501 0.9987 -0.0013
vn -0.0000 0.7392 -0.6735
vn -0.2999 0.7221 0.6234
vn -0.5713 0.5811 -0.5796
vn -0.9382 0.3459 -0.0100
vn 0.0160 0.9993 0.0325
vn -0.0003 0.4870 0.8734
vn -0.0003 0.4800 0.8773
vn -0.0049 0.2366 0.9716
vn -0.8939 0.3492 -0.2809
vn 0.8938 -0.2813 0.3493
vn 0.7607 0.4087 -0.5043
vn -0.7605 -0.5048 0.4084
vn -0.8902 0.3538 -0.2870
vn 0.7659 -0.4028 0.5012
vn 0.8897 0.2878 -0.3543
vn -0.7654 -0.5019 0.4028
vn 0.8921 -0.3492 -0.2867
vn -0.7626 -0.5085 0.3998
vn -0.8921 0.3492 -0.2867
vn 0.8896 -0.3548 -0.2877
vn -0.7654 0.4032 0.5016
vn -0.8901 -0.2873 -0.3537
vn -0.8893 0.3552 -0.2882
vn 0.7654 -0.4032 0.5016
vn 0.8902 0.2873 -0.3535
vn -0.7664 -0.5010 0.4021
vn 0.9929 0.0115 -0.1187
vn -0.8922 0.3491 -0.2866
vn 0.7625 0.5086 0.3999
vn 0.8922 -0.3491 -0.2866
vn 0.7655 0.5018 0.4028
vn -0.8898 -0.2878 -0.3542
vn -0.7658 0.4029 0.5012
vn -0.7666 -0.5008 0.4019
vn 0.8906 0.2868 -0.3529
vn 0.7649 -0.4035 0.5021
vn 0.7658 0.5015 0.4026
vn 0.7660 0.5014 0.4023
vn -0.7606 -0.5047 0.4083
vn 0.8939 -0.2813 0.3491
vn 0.7662 0.5011 0.4022
vn -0.8903 -0.2871 -0.3534
vn -0.7652 0.4033 0.5018
vn -0.7655 -0.5018 0.4027
vn 0.8898 0.2878 -0.3542
vn 0.7658 -0.4029 0.5012
vn -0.5605 0.5951 -0.5759
vn -0.8011 0.5985 0.0006
vn -0.4757 0.8796 0.0002
vn -0.7668 0.6409 0.0357
vn -0.7664 -0.6423 -0.0000
vn -0.0011 -0.7068 -0.7074
vn 0.8901 -0.3540 -0.2872
vn -0.8890 0.3556 -0.2884
vn -0.8939 0.3493 -0.2810
vn 0.8894 -0.3551 -0.2880
vn -0.8901 0.3540 -0.2871
vn 0.5761 0.5849 -0.5710
vn 0.5300 0.8473 0.0347
vn 0.8966 0.4429 -0.0008
vn -0.6669 -0.0000 0.7452
vn -0.0150 -0.0524 0.9985
vn -0.2848 -0.0318 0.9581
vn -0.4593 -0.0184 0.8881
vn -0.5745 0.5762 -0.5813
vn 0.5745 -0.5762 -0.5813
vn -0.5802 -0.5784 -0.5734
vn 0.5802 0.5784 -0.5734
vn -0.5802 0.5784 0.5734
vn 0.5745 0.5762 0.5813
vn -0.5745 -0.5762 0.5813
vn 0.5802 -0.5784 0.5734
vn -0.5776 -0.5775 -0.5770
vn 0.5771 -0.5774 -0.5776
vn 0.5776 -0.5775 0.5770
vn -0.5771 0.5774 -0.5776
vn 0.5776 0.5775 -0.5770
vn 0.5771 0.5774 0.5776
vn -0.5771 -0.5774 0.5776
vn -0.5776 0.5775 0.5770
vn -0.0008 -0.6878 -0.7259
vn -0.6918 -0.2587 -0.6742
vn 0.5936 0.5521 -0.5856
vn 0.0002 0.6796 0.7336
vn 0.5577 0.5981 0.5756
vn -1.0000 -0.0000 0.0002
vn 0.0003 0.0018 1.0000
vn 0.9981 0.0611 0.0009
vn -0.0018 -1.0000 0.0023
vn -0.7253 -0.0029 -0.6885
vn -1.0000 -0.0031 0.0003
vn -0.5824 0.5962 0.5526
vn 0.0653 -0.9979 -0.0003
vn 0.0515 -0.6867 0.7251
vn 0.0417 -0.7161 0.6968
vn -0.5687 0.5880 -0.5751
vn -0.0371 -0.0151 -0.9992
vn -0.0017 -1.0000 0.0016
vn -0.0000 0.0167 0.9999
vn 0.0569 -0.9984 -0.0016
vn -0.0002 0.0003 -1.0000
vn -0.0000 0.0004 -1.0000
vn -0.0009 -0.0314 -0.9995
vn -0.0063 0.6963 0.7177
vn -0.9998 0.0201 -0.0012
vn -0.9998 0.0182 -0.0011
vn -0.9997 -0.0252 0.0015
vn 0.5858 -0.5659 -0.5802
vn -0.5628 -0.5918 -0.5771
vn 0.0368 0.9993 0.0009
vn 0.7244 0.6894 0.0005
vn 0.6886 0.7251 -0.0000
vn 0.0209 -0.0037 0.9998
vn -0.0000 1.0000 -0.0000
vn 0.0014 1.0000 -0.0000
vn -0.9999 -0.0011 -0.0153
vn -0.5712 -0.5880 -0.5727
vn -0.7168 -0.6965 0.0312
vn -0.0016 -1.0000 -0.0000
vn 0.5648 -0.5907 0.5762
vn -0.0000 -0.0001 1.0000
vn 1.0000 0.0075 -0.0001
vn 0.0083 0.0016 1.0000
vn 0.5724 -0.5872 0.5723
vn -0.5864 -0.5682 0.5773
vn -0.7237 -0.0128 0.6900
vn 0.0131 0.7009 -0.7132
vn 1.0000 -0.0001 0.0061
vn 0.7064 -0.0019 0.7078
vn 0.9999 0.0041 0.0157
vn 0.2151 0.9657 -0.1452
vn 1.0000 0.0007 -0.0000
vn -0.9998 -0.0002 -0.0174
vn 0.5888 -0.5655 -0.5776
vn -0.5790 -0.5781 -0.5750
vn 0.5757 -0.5766 -0.5797
vn 0.5790 -0.5781 0.5750
vn -0.5757 0.5766 -0.5797
vn 0.5790 0.5781 -0.5750
vn -0.5790 0.5781 0.5750
vn -0.5757 -0.5766 0.5797
vn 0.5757 0.5766 0.5797
vn -0.6562 0.7546 0.0012
vn 0.6562 -0.7546 0.0012
vn -0.6562 -0.7546 -0.0012
vn 0.6562 0.7546 -0.0011
vn -0.0388 0.8383 0.5439
vn 0.0388 0.8383 -0.5439
vn -0.0388 -0.8383 -0.5439
vn 0.0388 -0.8383 0.5439
vn -0.0389 0.8375 0.5451
vn 0.0388 0.8390 -0.5427
vn -0.0389 -0.8375 -0.5451
vn 0.0388 -0.8390 0.5427
vn 0.0389 0.8379 -0.5445
vn 0.0389 -0.8379 0.5445
vn -0.0388 -0.8386 -0.5433
vn -0.0388 0.8386 0.5433
vn -0.0001 1.0000 -0.0005
vn 0.0001 1.0000 0.0005
vn -0.0001 1.0000 -0.0007
vn 0.0001 1.0000 0.0007
vn -0.6986 0.0053 -0.7155
vn 0.7126 0.0002 -0.7016
vn 0.6986 -0.0053 -0.7155
vn 0.6986 0.0053 0.7155
vn 0.7126 -0.0002 0.7016
vn -0.0001 -1.0000 0.0005
vn 0.0001 -1.0000 -0.0005
vn -0.0001 -1.0000 0.0007
vn -0.7126 0.0002 0.7016
vn -0.6986 -0.0053 0.7155
vn -0.7126 -0.0002 -0.7016
vn 0.0001 -1.0000 -0.0007
vn -0.6562 0.7546 0.0011
vn 0.6562 -0.7546 0.0011
vn -0.6561 -0.7547 -0.0012
vn 0.6561 0.7546 -0.0012
vn 0.0387 -0.8390 0.5427
vn 0.0389 0.8383 -0.5439
vn -0.0389 -0.8383 -0.5439
vn -0.6562 -0.7546 -0.0011
vn 0.6562 0.7546 -0.0012
vn -0.0389 0.8379 0.5445
vn 0.0388 0.8386 -0.5433
vn -0.0389 -0.8379 -0.5445
vn 0.0388 -0.8386 0.5433
vn -0.0150 0.0524 -0.9985
vn 0.0052 0.0527 -0.9986
vn -0.2848 0.0318 -0.9581
vn 0.0006 -0.0135 -0.9999
vn -1.0000 0.0023 -0.0008
vn -1.0000 -0.0039 0.0013
vn -1.0000 -0.0023 0.0008
vn -0.0025 0.9999 -0.0133
vn -0.0025 -0.9999 0.0133
vn 0.0044 -0.9997 -0.0221
vn -1.0000 0.0039 -0.0013
vn 0.0044 0.9997 0.0221
vn 0.0052 -0.0527 0.9986
vn -0.0027 -0.9992 0.0411
vn -0.9997 -0.0214 0.0087
vn 0.9991 -0.0264 -0.0327
vn -0.9996 0.0214 -0.0157
vn 0.0006 0.0135 0.9999
vn -0.0000 0.1878 0.9822
vn -0.0009 0.0678 0.9977
vn 0.0070 0.9986 0.0524
vn 0.9993 0.0264 0.0250
vn 0.7277 0.0019 0.6859
vn 0.0027 0.0087 1.0000
vn 0.7037 0.0038 0.7105
vn 0.0389 0.8375 -0.5450
vn -0.0387 0.8391 0.5427
vn 0.0389 -0.8375 0.5450
vn -0.0388 -0.8391 -0.5427
vn -0.0027 0.9992 -0.0411
vn 0.0071 0.9999 0.0095
vn 0.0027 -0.0087 -1.0000
vn 0.7037 -0.0038 -0.7105
vn 0.7277 -0.0019 -0.6859
vn -0.0000 -0.1878 -0.9822
vn 0.0070 -0.9986 -0.0524
vn 0.0071 -0.9999 -0.0095
vn 0.5787 0.5784 -0.5750
vn 0.5787 -0.5784 0.5750
vn 0.5761 -0.5763 -0.5797
vn -0.5787 0.5784 0.5750
vn 0.5761 0.5763 0.5797
vn -0.5761 0.5763 -0.5797
vn -0.5787 -0.5784 -0.5750
vn -0.5761 -0.5763 0.5797
vn -0.6419 0.7667 0.0097
vn 0.6419 -0.7667 0.0097
vn -0.6419 -0.7667 -0.0097
vn 0.6419 0.7667 -0.0097
vn -0.0423 0.8395 0.5417
vn 0.0423 0.8397 -0.5413
vn -0.0423 -0.8395 -0.5417
vn 0.0423 -0.8397 0.5413
vn -0.0367 0.8174 0.5749
vn 0.0367 0.8174 -0.5749
vn -0.0367 -0.8174 -0.5749
vn 0.0367 -0.8174 0.5749
vn -0.7090 -0.7052 0.0022
vn 0.7090 -0.7052 -0.0022
vn -0.7037 -0.7104 0.0043
vn 0.0001 -0.0009 1.0000
vn -0.0001 0.0011 1.0000
vn -0.0001 0.0009 1.0000
vn 0.0001 -0.0011 1.0000
vn -0.7090 0.7052 -0.0022
vn 0.7090 0.7052 0.0022
vn -0.7037 0.7104 -0.0043
vn 0.7037 0.7104 0.0043
vn -0.0001 -0.0009 -1.0000
vn 0.0001 0.0009 -1.0000
vn -0.0001 -0.0011 -1.0000
vn 0.7037 -0.7104 -0.0043
vn 0.0001 0.0011 -1.0000
vn -0.5707 0.5759 -0.5853
vn 0.5707 -0.5759 -0.5853
vn -0.5829 -0.5788 -0.5703
vn 0.5829 0.5788 -0.5703
vn -0.5829 0.5788 0.5703
vn 0.5707 0.5759 0.5853
vn -0.5707 -0.5759 0.5853
vn 0.5829 -0.5788 0.5703
vn -0.5757 0.5774 -0.5790
vn 0.5757 -0.5774 -0.5790
vn -0.5785 -0.5779 -0.5757
vn 0.5785 0.5779 -0.5757
vn 0.5785 -0.5779 0.5757
vn -0.5785 0.5779 0.5757
vn 0.5757 0.5774 0.5790
vn -0.5757 -0.5774 0.5789
vn 0.5353 0.5713 -0.6222
vn 0.6426 0.0986 -0.7598
vn -0.2462 -0.7636 -0.5969
vn 0.4173 -0.9044 -0.0894
vn 0.5368 -0.5886 0.6045
vn 0.7045 0.2756 0.6540
vn -0.7957 -0.0368 -0.6045
vn -0.3660 -0.7140 0.5969
vn -0.9346 -0.3444 0.0893
vn 0.0256 0.7825 0.6221
vn -0.3848 0.5240 0.7598
vn -0.3033 0.6931 -0.6539
vn -0.5757 0.5774 -0.5789
vn -0.5757 -0.5774 0.5790
vn 0.5757 0.5774 0.5789
vn -0.9345 -0.3444 0.0893
vn -0.5783 0.5780 0.5757
vn -0.5762 0.5769 -0.5789
vn -0.5783 -0.5780 -0.5757
vn 0.5783 -0.5780 0.5757
vn -0.5762 -0.5769 0.5789
vn 0.5762 -0.5769 -0.5789
vn 0.5783 0.5780 -0.5757
vn 0.5762 0.5769 0.5789
vn 0.5245 -0.8349 0.1670
vn 0.9900 0.1405 -0.0098
vn 0.8171 0.5765 -0.0045
vn 0.4521 0.8920 -0.0006
vn -0.0183 0.9998 -0.0000
vn -0.8375 0.5465 0.0006
vn -0.9958 0.0909 0.0045
vn -0.4843 0.8749 -0.0000
vn 0.9255 -0.3734 -0.0634
vn -0.6149 -0.7861 0.0634
vn -0.0365 -0.9853 -0.1669
vn -0.9277 -0.3731 0.0098
vn -0.5929 0.8051 -0.0187
vn 0.5929 -0.8051 -0.0187
vn -0.5929 -0.8051 0.0187
vn 0.5929 0.8051 0.0187
vn -0.5851 -0.5838 -0.5629
vn 0.5732 -0.5741 -0.5848
vn 0.5851 -0.5838 0.5629
vn -0.5732 0.5741 -0.5848
vn 0.5851 0.5838 -0.5629
vn -0.5851 0.5838 0.5629
vn 0.5732 0.5741 0.5848
vn -0.5732 -0.5741 0.5848
vn -0.8375 0.5464 0.0006
vn -0.9278 -0.3731 0.0098
vn -0.6148 -0.7861 0.0634
vn -0.7950 -0.5278 -0.2989
vn 0.0880 -0.5666 0.8192
vn 0.0509 0.5696 0.8204
vn 0.6161 -0.5696 -0.5441
vn 0.6415 0.5667 -0.5170
vn -0.7735 0.5278 -0.3508
vn 0.6416 0.5666 -0.5170
vn 0.5785 0.5790 -0.5745
vn 0.5785 -0.5790 0.5745
vn 0.5765 -0.5754 -0.5802
vn 0.5765 0.5754 0.5802
vn -0.5785 0.5790 0.5745
vn -0.5765 0.5754 -0.5802
vn -0.5785 -0.5790 -0.5745
vn -0.5765 -0.5754 0.5802
vn -0.5767 0.5747 -0.5807
vn 0.5767 -0.5747 -0.5807
vn -0.5787 -0.5793 -0.5741
vn 0.5787 0.5793 -0.5741
vn -0.5787 0.5793 0.5741
vn 0.5787 -0.5793 0.5741
vn -0.5767 -0.5747 0.5807
vn 0.5767 0.5747 0.5807
vn -0.0063 -0.6464 -0.7630
vn -0.0032 -0.2650 -0.9642
vn -0.0000 0.7068 0.7074
vn 0.0004 0.9079 -0.4191
vn 0.2407 0.9383 -0.2483
vn -0.0011 0.7068 0.7074
vn -0.7625 -0.5086 0.3998
vn 0.7626 0.5085 0.3998
vn 0.0348 0.9958 0.0843
vn 0.0369 0.9978 0.0548
vn -0.4593 0.0184 -0.8881
vn -0.7074 -0.7068 -0.0002
vn -0.0049 -0.2365 -0.9716
vn 0.7074 -0.7068 0.0002
vn 0.7071 -0.0000 0.7071
vn 0.9935 -0.1135 -0.0024
vn 0.9632 -0.2687 -0.0023
vn 0.0011 -1.0000 -0.0012
vn 1.0000 0.0087 -0.0001
vn -0.9996 -0.0270 0.0016
vn -0.0000 0.0001 -1.0000
vn -0.9998 -0.0213 -0.0007
vn 0.0001 -0.0032 1.0000
vn -0.0111 -0.0043 -0.9999
vn 0.9996 -0.0218 -0.0185
vn 0.9998 -0.0210 -0.0013
vn -1.0000 -0.0000 -0.0000
vn -0.0009 -0.0678 -0.9977
vt 0.853084 0.538793
vt 0.853084 0.671476
vt 0.835757 0.671783
vt 0.835757 0.539100
vt 0.782687 0.950301
vt 0.782085 0.933993
vt 0.782736 0.933994
vt 0.239110 0.318727
vt 0.239421 0.324697
vt 0.239110 0.325244
vt 0.529767 0.612840
vt 0.298616 0.612665
vt 0.298928 0.612354
vt 0.529573 0.606368
vt 0.529573 0.612645
vt 0.529258 0.606504
vt 0.529258 0.612331
vt 0.535822 0.612583
vt 0.292232 0.318730
vt 0.292479 0.612354
vt 0.292172 0.612357
vt 0.961213 0.552828
vt 0.928753 0.553048
vt 0.928668 0.552737
vt 0.792699 0.950298
vt 0.792101 0.933993
vt 0.792885 0.933992
vt 0.753047 0.950300
vt 0.752324 0.933993
vt 0.753047 0.933993
vt 0.817737 0.950298
vt 0.817139 0.933993
vt 0.817786 0.933991
vt 0.768070 0.950300
vt 0.767347 0.933993
vt 0.768070 0.933993
vt 0.757648 0.950301
vt 0.757332 0.933993
vt 0.758054 0.933993
vt 0.772671 0.950301
vt 0.772070 0.933993
vt 0.772721 0.933994
vt 0.832760 0.950298
vt 0.832162 0.933993
vt 0.832809 0.933991
vt 0.778085 0.950300
vt 0.777362 0.933994
vt 0.778085 0.933993
vt 0.820544 0.171273
vt 0.834647 0.171646
vt 0.820765 0.171475
vt 0.802714 0.950298
vt 0.802399 0.933992
vt 0.803123 0.933993
vt 0.807406 0.933992
vt 0.808131 0.950300
vt 0.807342 0.950299
vt 0.732293 0.933993
vt 0.733016 0.950300
vt 0.732229 0.950300
vt 0.788101 0.950300
vt 0.787376 0.933992
vt 0.788101 0.933993
vt 0.828162 0.950300
vt 0.827437 0.933992
vt 0.828162 0.933993
vt 0.762339 0.933994
vt 0.763062 0.950300
vt 0.762167 0.950300
vt 0.797391 0.933992
vt 0.798116 0.950300
vt 0.797327 0.950299
vt 0.747316 0.933993
vt 0.748039 0.950300
vt 0.747252 0.950300
vt 0.770807 0.889725
vt 0.540333 0.889978
vt 0.540116 0.889657
vt 0.600382 0.978212
vt 0.600027 0.971945
vt 0.600349 0.972066
vt 0.008512 0.318727
vt 0.239421 0.318527
vt 0.929195 0.508362
vt 0.962742 0.508049
vt 0.962434 0.508501
vt 0.727602 0.950301
vt 0.727000 0.933993
vt 0.727651 0.933993
vt 0.812729 0.950298
vt 0.812131 0.933993
vt 0.812779 0.933991
vt 0.837767 0.950298
vt 0.837169 0.933993
vt 0.837954 0.933992
vt 0.742625 0.950301
vt 0.742024 0.933993
vt 0.742674 0.933994
vt 0.842775 0.950298
vt 0.842177 0.933993
vt 0.842824 0.933992
vt 0.535802 0.318508
vt 0.529570 0.318767
vt 0.529574 0.318397
vt 0.604777 0.971945
vt 0.604382 0.976453
vt 0.604793 0.971946
vt 0.578554 0.972250
vt 0.581268 0.971945
vt 0.581540 0.972117
vt 0.286614 0.553906
vt 0.281187 0.770710
vt 0.281501 0.553938
vt 0.286206 0.770629
vt 0.808307 0.534508
vt 0.807995 0.318396
vt 0.813015 0.318416
vt 0.002100 0.314099
vt 0.288069 0.002315
vt 0.287972 0.314179
vt 0.813422 0.539017
vt 0.808468 0.751402
vt 0.808306 0.538968
vt 0.813489 0.751402
vt 0.817956 0.528248
vt 0.817638 0.318396
vt 0.822656 0.318508
vt 0.002197 0.002235
vt 0.813422 0.534576
vt 0.578060 0.002111
vt 0.292273 0.314081
vt 0.292370 0.002208
vt 0.823066 0.528411
vt 0.578168 0.314188
vt 0.815933 0.002196
vt 0.816003 0.287927
vt 0.582593 0.287999
vt 0.118703 0.617059
vt 0.118550 0.815424
vt 0.002000 0.817390
vt 0.002142 0.618879
vt 0.808140 0.926754
vt 0.924444 0.758042
vt 0.924661 0.929541
vt 0.408777 0.617377
vt 0.292317 0.811818
vt 0.292184 0.617324
vt 0.408900 0.811818
vt 0.807995 0.755402
vt 0.540248 0.604410
vt 0.540178 0.318686
vt 0.773570 0.318591
vt 0.413050 0.793499
vt 0.529424 0.617541
vt 0.529639 0.794150
vt 0.582522 0.002268
vt 0.773639 0.604315
vt 0.412909 0.617038
vt 0.164030 0.616935
vt 0.159735 0.812140
vt 0.159735 0.616970
vt 0.163948 0.812065
vt 0.238200 0.791057
vt 0.238511 0.616877
vt 0.242726 0.616672
vt 0.770686 0.608653
vt 0.540187 0.608857
vt 0.242726 0.791090
vt 0.192646 0.616935
vt 0.193181 0.808158
vt 0.188345 0.808593
vt 0.827278 0.487769
vt 0.827278 0.318639
vt 0.831474 0.318479
vt 0.239417 0.324821
vt 0.239117 0.606216
vt 0.008761 0.606223
vt 0.234175 0.617094
vt 0.234018 0.791458
vt 0.220000 0.791216
vt 0.239321 0.606222
vt 0.008452 0.612555
vt 0.008641 0.606287
vt 0.951538 0.934045
vt 0.955960 0.948196
vt 0.951693 0.947876
vt 0.239359 0.612361
vt 0.220000 0.617036
vt 0.188345 0.616909
vt 0.239421 0.324833
vt 0.008753 0.324860
vt 0.037654 0.971945
vt 0.042012 0.972022
vt 0.042016 0.985844
vt 0.959989 0.933973
vt 0.964248 0.933995
vt 0.964236 0.947820
vt 0.959976 0.947844
vt 0.201798 0.621413
vt 0.215627 0.621493
vt 0.201497 0.796063
vt 0.789827 0.825735
vt 0.789480 0.621633
vt 0.803987 0.621160
vt 0.280383 0.318729
vt 0.286367 0.318587
vt 0.286612 0.549052
vt 0.942844 0.933944
vt 0.947254 0.933682
vt 0.947134 0.948164
vt 0.298305 0.318728
vt 0.298928 0.613038
vt 0.280071 0.549682
vt 0.201801 0.621418
vt 0.215625 0.616742
vt 0.245651 0.318529
vt 0.239487 0.612511
vt 0.239422 0.318718
vt 0.261913 0.816923
vt 0.275725 0.616718
vt 0.276071 0.816736
vt 0.820160 0.002000
vt 0.834367 0.002106
vt 0.942960 0.948204
vt 0.008383 0.318577
vt 0.002114 0.612361
vt 0.002199 0.318476
vt 0.008449 0.612375
vt 0.929947 0.934055
vt 0.930003 0.948630
vt 0.925496 0.947149
vt 0.298885 0.324782
vt 0.529571 0.318615
vt 0.529456 0.324624
vt 0.298617 0.318658
vt 0.817638 0.543402
vt 0.817640 0.538793
vt 0.831456 0.539124
vt 0.831456 0.543737
vt 0.817638 0.712991
vt 0.201801 0.616672
vt 0.136917 0.616776
vt 0.122716 0.821147
vt 0.123082 0.616974
vt 0.136601 0.820923
vt 0.245809 0.612360
vt 0.938554 0.934042
vt 0.938639 0.948514
vt 0.934225 0.947181
vt 0.155423 0.616776
vt 0.141687 0.816835
vt 0.141585 0.616750
vt 0.155576 0.816835
vt 0.928914 0.743273
vt 0.973132 0.743244
vt 0.973167 0.749061
vt 0.292507 0.815937
vt 0.323197 0.816392
vt 0.323206 0.888428
vt 0.292474 0.887847
vt 0.867923 0.175865
vt 0.872197 0.247476
vt 0.867881 0.247762
vt 0.843449 0.454047
vt 0.847851 0.454223
vt 0.847842 0.525753
vt 0.973165 0.818655
vt 0.928912 0.812867
vt 0.973128 0.812838
vt 0.928950 0.749090
vt 0.843408 0.525966
vt 0.872205 0.175969
vt 0.036860 0.821531
vt 0.066948 0.893469
vt 0.036825 0.893451
vt 0.066942 0.821423
vt 0.928948 0.818684
vt 0.928878 0.315917
vt 0.995272 0.288853
vt 0.994833 0.315929
vt 0.929503 0.288856
vt 0.928880 0.470431
vt 0.994791 0.443899
vt 0.994846 0.470441
vt 0.929013 0.443902
vt 0.928981 0.037260
vt 0.928974 0.035868
vt 0.997682 0.035868
vt 0.928985 0.128456
vt 0.997644 0.127100
vt 0.997775 0.128478
vt 0.997794 0.037279
vt 0.928957 0.127100
vt 0.928981 0.042905
vt 0.928974 0.041513
vt 0.997682 0.041513
vt 0.997794 0.042924
vt 0.928985 0.150897
vt 0.928957 0.149541
vt 0.997644 0.149541
vt 0.997775 0.150919
vt 0.928985 0.156508
vt 0.997644 0.155151
vt 0.997775 0.156529
vt 0.928957 0.155151
vt 0.928981 0.031615
vt 0.928974 0.030224
vt 0.997682 0.030224
vt 0.997794 0.031634
vt 0.976805 0.593727
vt 0.928903 0.584414
vt 0.976768 0.584382
vt 0.928939 0.593760
vt 0.929013 0.925484
vt 0.962229 0.925454
vt 0.962282 0.928624
vt 0.585641 0.978806
vt 0.585580 0.971945
vt 0.588548 0.971956
vt 0.588751 0.978856
vt 0.928903 0.570894
vt 0.976806 0.580207
vt 0.928939 0.580240
vt 0.053556 0.966314
vt 0.053527 0.933760
vt 0.056699 0.933767
vt 0.056667 0.966357
vt 0.567203 0.972126
vt 0.564203 0.979183
vt 0.564092 0.972088
vt 0.929026 0.928595
vt 0.567171 0.979183
vt 0.976770 0.570861
vt 0.327641 0.815937
vt 0.358340 0.888428
vt 0.327607 0.887847
vt 0.973165 0.788830
vt 0.928912 0.783042
vt 0.973128 0.783013
vt 0.358331 0.816392
vt 0.521200 0.798404
vt 0.525601 0.798580
vt 0.525593 0.870109
vt 0.871107 0.538908
vt 0.875381 0.610519
vt 0.871065 0.610805
vt 0.928914 0.753215
vt 0.973131 0.753186
vt 0.973167 0.759004
vt 0.864614 0.413202
vt 0.894702 0.485141
vt 0.864579 0.485123
vt 0.894696 0.413094
vt 0.521158 0.870323
vt 0.928950 0.759033
vt 0.928948 0.788859
vt 0.875390 0.539012
vt 0.928877 0.347139
vt 0.995272 0.320076
vt 0.994833 0.347151
vt 0.929503 0.320078
vt 0.928880 0.409052
vt 0.929013 0.382523
vt 0.994791 0.382520
vt 0.994846 0.409062
vt 0.928985 0.139677
vt 0.997644 0.138321
vt 0.997775 0.139699
vt 0.928957 0.138321
vt 0.928981 0.048549
vt 0.997682 0.047158
vt 0.997794 0.048568
vt 0.928974 0.047158
vt 0.928985 0.162118
vt 0.997644 0.160761
vt 0.997775 0.162140
vt 0.852103 0.454245
vt 0.853495 0.522947
vt 0.852084 0.523058
vt 0.928957 0.160761
vt 0.853495 0.454239
vt 0.928981 0.003392
vt 0.928974 0.002000
vt 0.997682 0.002000
vt 0.928985 0.190169
vt 0.928957 0.188813
vt 0.997644 0.188813
vt 0.997794 0.003411
vt 0.997775 0.190191
vt 0.049447 0.934026
vt 0.046306 0.967296
vt 0.046336 0.934040
vt 0.928903 0.557373
vt 0.976770 0.557340
vt 0.976806 0.566686
vt 0.049477 0.967243
vt 0.592864 0.978806
vt 0.595771 0.971956
vt 0.595974 0.978856
vt 0.928939 0.566719
vt 0.574427 0.972126
vt 0.574396 0.979183
vt 0.571427 0.979183
vt 0.571316 0.972088
vt 0.976804 0.607248
vt 0.928903 0.597935
vt 0.976768 0.597903
vt 0.060781 0.966314
vt 0.060752 0.933760
vt 0.063924 0.933767
vt 0.063892 0.966357
vt 0.928939 0.607280
vt 0.592804 0.971945
vt 0.973165 0.798772
vt 0.928912 0.792984
vt 0.973128 0.792956
vt 0.362775 0.815937
vt 0.393465 0.816392
vt 0.393474 0.888428
vt 0.529728 0.798404
vt 0.534129 0.798580
vt 0.534121 0.870109
vt 0.362741 0.887847
vt 0.238328 0.795205
vt 0.242611 0.795309
vt 0.242603 0.866816
vt 0.002337 0.821531
vt 0.032425 0.893469
vt 0.002302 0.893451
vt 0.032419 0.821423
vt 0.928948 0.798801
vt 0.529686 0.870323
vt 0.928914 0.763158
vt 0.973167 0.768946
vt 0.928950 0.768975
vt 0.238286 0.867101
vt 0.973132 0.763129
vt 0.928877 0.284694
vt 0.995272 0.257631
vt 0.994833 0.284706
vt 0.929503 0.257634
vt 0.928880 0.439739
vt 0.929014 0.413210
vt 0.994792 0.413210
vt 0.994846 0.439752
vt 0.928981 0.009036
vt 0.928974 0.007645
vt 0.997682 0.007645
vt 0.928985 0.167728
vt 0.997644 0.166372
vt 0.997775 0.167750
vt 0.928957 0.166372
vt 0.997794 0.009055
vt 0.928985 0.145287
vt 0.997644 0.143931
vt 0.997775 0.145309
vt 0.928981 0.014681
vt 0.997682 0.013289
vt 0.997794 0.014700
vt 0.928974 0.013289
vt 0.928957 0.143931
vt 0.928981 0.020326
vt 0.928974 0.018934
vt 0.997682 0.018934
vt 0.928985 0.134067
vt 0.997644 0.132710
vt 0.997775 0.134088
vt 0.928957 0.132710
vt 0.997794 0.020345
vt 0.928850 0.505341
vt 0.929207 0.508049
vt 0.962529 0.505363
vt 0.581489 0.979183
vt 0.578520 0.979183
vt 0.857467 0.736030
vt 0.866736 0.687904
vt 0.866749 0.736108
vt 0.866589 0.539037
vt 0.857324 0.587164
vt 0.857309 0.538960
vt 0.866979 0.587164
vt 0.857084 0.687906
vt 0.961535 0.553269
vt 0.928670 0.550134
vt 0.866699 0.587165
vt 0.857262 0.635302
vt 0.857396 0.587164
vt 0.935709 0.836423
vt 0.928883 0.837092
vt 0.928769 0.833821
vt 0.961376 0.550135
vt 0.961523 0.553252
vt 0.961423 0.550071
vt 0.994342 0.552868
vt 0.935595 0.833152
vt 0.994264 0.549885
vt 0.071383 0.821531
vt 0.101471 0.893469
vt 0.071348 0.893451
vt 0.101465 0.821423
vt 0.843495 0.675897
vt 0.847888 0.747603
vt 0.843453 0.747816
vt 0.928914 0.773100
vt 0.973167 0.778889
vt 0.928950 0.778918
vt 0.847896 0.676073
vt 0.973165 0.808713
vt 0.928912 0.802925
vt 0.973128 0.802897
vt 0.160071 0.816259
vt 0.190761 0.816714
vt 0.190769 0.888750
vt 0.160037 0.888168
vt 0.973132 0.773071
vt 0.867718 0.318511
vt 0.871993 0.390122
vt 0.867676 0.390407
vt 0.928948 0.808742
vt 0.872001 0.318615
vt 0.928877 0.378361
vt 0.929503 0.351300
vt 0.995272 0.351298
vt 0.994833 0.378373
vt 0.928880 0.501120
vt 0.929013 0.474591
vt 0.994791 0.474589
vt 0.994846 0.501131
vt 0.928985 0.173338
vt 0.997644 0.171982
vt 0.997775 0.173360
vt 0.928981 0.054194
vt 0.928974 0.052803
vt 0.997682 0.052803
vt 0.997794 0.054213
vt 0.928957 0.171982
vt 0.928985 0.178949
vt 0.928957 0.177592
vt 0.997644 0.177592
vt 0.928981 0.059839
vt 0.928974 0.058447
vt 0.997682 0.058447
vt 0.997794 0.059858
vt 0.997775 0.178971
vt 0.928981 0.025971
vt 0.928974 0.024579
vt 0.997682 0.024579
vt 0.928985 0.184559
vt 0.928957 0.183202
vt 0.997644 0.183202
vt 0.997794 0.025990
vt 0.997775 0.184581
vt 0.857361 0.687903
vt 0.866802 0.639767
vt 0.866664 0.687904
vt 0.857532 0.639702
vt 0.995904 0.505278
vt 0.995956 0.507879
vt 0.961495 0.834065
vt 0.968351 0.833864
vt 0.968399 0.836831
vt 0.961666 0.837028
vt 0.559872 0.979077
vt 0.556596 0.979104
vt 0.560038 0.972028
vt 0.866535 0.635369
vt 0.859599 0.318512
vt 0.863581 0.408665
vt 0.859560 0.408935
vt 0.976791 0.626381
vt 0.928949 0.626411
vt 0.928913 0.620980
vt 0.863590 0.318622
vt 0.413246 0.798417
vt 0.446465 0.798914
vt 0.446477 0.889471
vt 0.976755 0.620951
vt 0.413215 0.888856
vt 0.928916 0.611428
vt 0.976759 0.611399
vt 0.976794 0.616829
vt 0.450920 0.798441
vt 0.483489 0.888897
vt 0.450886 0.888894
vt 0.483479 0.798329
vt 0.857957 0.002116
vt 0.862049 0.092363
vt 0.857918 0.092567
vt 0.862058 0.002292
vt 0.928951 0.616859
vt 0.487855 0.798642
vt 0.517073 0.883063
vt 0.487795 0.882577
vt 0.517069 0.799171
vt 0.201756 0.800707
vt 0.230393 0.800699
vt 0.230396 0.884604
vt 0.201697 0.884654
vt 0.533898 0.617350
vt 0.535141 0.617345
vt 0.535141 0.701370
vt 0.286705 0.775027
vt 0.287916 0.859002
vt 0.286682 0.859129
vt 0.533878 0.701479
vt 0.287916 0.775003
vt 0.853756 0.933933
vt 0.855686 0.933955
vt 0.855653 0.949561
vt 0.853740 0.949544
vt 0.878150 0.933965
vt 0.880024 0.933954
vt 0.880103 0.949444
vt 0.878109 0.949495
vt 0.884387 0.933965
vt 0.886261 0.933954
vt 0.886340 0.949444
vt 0.847466 0.933933
vt 0.849363 0.949561
vt 0.847449 0.949544
vt 0.849395 0.933955
vt 0.884346 0.949495
vt 0.174254 0.616905
vt 0.168297 0.809924
vt 0.168284 0.616935
vt 0.835877 0.449677
vt 0.835801 0.318396
vt 0.855473 0.318410
vt 0.855372 0.449716
vt 0.563348 0.933783
vt 0.567961 0.952993
vt 0.563324 0.953277
vt 0.178345 0.809916
vt 0.184302 0.616903
vt 0.184314 0.809886
vt 0.178332 0.616932
vt 0.567955 0.933983
vt 0.839748 0.175995
vt 0.820159 0.310308
vt 0.820259 0.176316
vt 0.174267 0.809894
vt 0.572058 0.933784
vt 0.576540 0.933908
vt 0.576547 0.952912
vt 0.572034 0.953272
vt 0.839825 0.309959
vt 0.781229 0.616815
vt 0.778312 0.821085
vt 0.777846 0.616798
vt 0.781316 0.821028
vt 0.555780 0.953055
vt 0.555732 0.933682
vt 0.559253 0.933700
vt 0.778075 0.612576
vt 0.803710 0.318468
vt 0.803771 0.612522
vt 0.257469 0.616837
vt 0.254513 0.816963
vt 0.254086 0.616758
vt 0.257518 0.816962
vt 0.559162 0.953153
vt 0.275790 0.318486
vt 0.250152 0.612600
vt 0.250092 0.318539
vt 0.778015 0.318523
vt 0.275850 0.612547
vt 0.580593 0.952497
vt 0.580547 0.933682
vt 0.584066 0.933765
vt 0.583972 0.952657
vt 0.129551 0.934017
vt 0.109546 0.964689
vt 0.109707 0.934185
vt 0.413049 0.933971
vt 0.430576 0.953268
vt 0.412981 0.953811
vt 0.928902 0.687013
vt 0.972725 0.686966
vt 0.972775 0.710822
vt 0.129350 0.964454
vt 0.972775 0.654453
vt 0.928953 0.654500
vt 0.928901 0.630646
vt 0.430576 0.933682
vt 0.153704 0.934017
vt 0.133892 0.963849
vt 0.133856 0.933951
vt 0.153700 0.963849
vt 0.474913 0.933843
vt 0.492958 0.933867
vt 0.492959 0.953459
vt 0.972722 0.630599
vt 0.474847 0.953689
vt 0.928952 0.710869
vt 0.480429 0.973833
vt 0.479739 0.978216
vt 0.475593 0.979254
vt 0.377087 0.980918
vt 0.372583 0.981064
vt 0.372629 0.972317
vt 0.075172 0.983964
vt 0.075188 0.976915
vt 0.079384 0.978367
vt 0.474704 0.975076
vt 0.245262 0.981448
vt 0.242268 0.980736
vt 0.242118 0.974101
vt 0.246703 0.974374
vt 0.073889 0.973340
vt 0.077249 0.972147
vt 0.081160 0.975613
vt 0.248277 0.980599
vt 0.377405 0.972318
vt 0.337170 0.981081
vt 0.332550 0.981024
vt 0.334217 0.972093
vt 0.331095 0.972197
vt 0.337323 0.972176
vt 0.477497 0.972191
vt 0.528789 0.978352
vt 0.525679 0.979242
vt 0.527342 0.972281
vt 0.508042 0.978352
vt 0.504933 0.979242
vt 0.506596 0.972281
vt 0.291644 0.981447
vt 0.288649 0.980736
vt 0.288500 0.974101
vt 0.490356 0.973833
vt 0.485520 0.979254
vt 0.484631 0.975076
vt 0.487425 0.972191
vt 0.489666 0.978216
vt 0.357926 0.981081
vt 0.354973 0.972093
vt 0.358080 0.972176
vt 0.353306 0.981024
vt 0.294659 0.980599
vt 0.293085 0.974374
vt 0.050511 0.973340
vt 0.056006 0.978367
vt 0.051811 0.976915
vt 0.051795 0.983964
vt 0.351851 0.972197
vt 0.053871 0.972147
vt 0.057782 0.975613
vt 0.387465 0.980918
vt 0.382962 0.981064
vt 0.383007 0.972317
vt 0.387783 0.972318
vt 0.497669 0.978352
vt 0.494559 0.979242
vt 0.496222 0.972281
vt 0.450647 0.973833
vt 0.445811 0.979254
vt 0.444922 0.975076
vt 0.368304 0.981081
vt 0.365351 0.972093
vt 0.368458 0.972176
vt 0.363684 0.981024
vt 0.449957 0.978216
vt 0.447715 0.972191
vt 0.259872 0.980599
vt 0.256857 0.981447
vt 0.258299 0.974374
vt 0.085578 0.973340
vt 0.091073 0.978367
vt 0.086877 0.976915
vt 0.397843 0.980918
vt 0.393340 0.981064
vt 0.393385 0.972317
vt 0.398162 0.972319
vt 0.086861 0.983964
vt 0.092849 0.975613
vt 0.362229 0.972197
vt 0.088938 0.972147
vt 0.253714 0.974101
vt 0.253863 0.980736
vt 0.497192 0.933843
vt 0.515237 0.933867
vt 0.515237 0.953459
vt 0.105401 0.934017
vt 0.085396 0.964689
vt 0.085557 0.934185
vt 0.972775 0.682637
vt 0.928901 0.658830
vt 0.972722 0.658783
vt 0.105200 0.964454
vt 0.928902 0.715198
vt 0.972775 0.739008
vt 0.928952 0.739055
vt 0.177858 0.934017
vt 0.158046 0.963849
vt 0.158011 0.933951
vt 0.177854 0.963849
vt 0.497125 0.953689
vt 0.928953 0.682684
vt 0.434810 0.933971
vt 0.452336 0.953268
vt 0.434742 0.953811
vt 0.452336 0.933682
vt 0.972725 0.715151
vt 0.440719 0.973833
vt 0.435883 0.979254
vt 0.434994 0.975077
vt 0.326792 0.981081
vt 0.323839 0.972093
vt 0.326945 0.972175
vt 0.322172 0.981024
vt 0.440030 0.978216
vt 0.437788 0.972191
vt 0.518416 0.978352
vt 0.515306 0.979242
vt 0.516969 0.972281
vt 0.303239 0.981447
vt 0.300095 0.974101
vt 0.304680 0.974374
vt 0.097267 0.973340
vt 0.100627 0.972147
vt 0.104538 0.975613
vt 0.306254 0.980599
vt 0.300245 0.980736
vt 0.320716 0.972197
vt 0.102761 0.978367
vt 0.098566 0.976915
vt 0.408221 0.980918
vt 0.403763 0.972317
vt 0.408540 0.972318
vt 0.403718 0.981064
vt 0.098550 0.983964
vt 0.549536 0.978352
vt 0.546426 0.979242
vt 0.548089 0.972281
vt 0.470502 0.973833
vt 0.469812 0.978216
vt 0.465665 0.979254
vt 0.428978 0.980918
vt 0.424474 0.981064
vt 0.424520 0.972317
vt 0.429296 0.972319
vt 0.268453 0.981448
vt 0.265459 0.980736
vt 0.265309 0.974101
vt 0.464776 0.975076
vt 0.467570 0.972191
vt 0.271468 0.980599
vt 0.269894 0.974374
vt 0.347548 0.981081
vt 0.344595 0.972093
vt 0.347702 0.972176
vt 0.342928 0.981024
vt 0.062200 0.973340
vt 0.065560 0.972147
vt 0.069471 0.975613
vt 0.067695 0.978367
vt 0.063499 0.976915
vt 0.341473 0.972197
vt 0.063483 0.983964
vt 0.283063 0.980599
vt 0.280048 0.981447
vt 0.281489 0.974374
vt 0.460574 0.973833
vt 0.454849 0.975076
vt 0.457643 0.972191
vt 0.455738 0.979254
vt 0.316414 0.981081
vt 0.313461 0.972093
vt 0.316567 0.972176
vt 0.311793 0.981024
vt 0.459884 0.978216
vt 0.539163 0.978352
vt 0.536053 0.979242
vt 0.537716 0.972281
vt 0.276905 0.974101
vt 0.108956 0.973340
vt 0.112316 0.972147
vt 0.116226 0.975613
vt 0.418599 0.980918
vt 0.414142 0.972317
vt 0.418918 0.972319
vt 0.114450 0.978367
vt 0.110255 0.976915
vt 0.414096 0.981064
vt 0.110239 0.983964
vt 0.310338 0.972197
vt 0.277054 0.980736
vt 0.292193 0.933873
vt 0.305745 0.933965
vt 0.305748 0.959455
vt 0.042110 0.933915
vt 0.024307 0.967712
vt 0.024286 0.933940
vt 0.292161 0.959694
vt 0.182257 0.933869
vt 0.205734 0.960023
vt 0.182226 0.959687
vt 0.042131 0.967688
vt 0.962698 0.899124
vt 0.928900 0.881323
vt 0.962671 0.881301
vt 0.928926 0.899145
vt 0.237714 0.933871
vt 0.260728 0.933931
vt 0.260728 0.959600
vt 0.237682 0.959693
vt 0.205734 0.934357
vt 0.327704 0.933875
vt 0.340871 0.933733
vt 0.340873 0.959215
vt 0.327673 0.959688
vt 0.626387 0.951097
vt 0.621538 0.944112
vt 0.621445 0.939398
vt 0.622981 0.935600
vt 0.625808 0.933747
vt 0.632162 0.937351
vt 0.633903 0.941620
vt 0.629267 0.934570
vt 0.623273 0.948341
vt 0.632491 0.949940
vt 0.630089 0.951517
vt 0.634023 0.946229
vt 0.592964 0.951631
vt 0.588156 0.946289
vt 0.588132 0.941567
vt 0.589845 0.949646
vt 0.599051 0.948593
vt 0.596565 0.951015
vt 0.600713 0.944306
vt 0.592726 0.934341
vt 0.596085 0.933741
vt 0.589800 0.937183
vt 0.600722 0.939676
vt 0.599074 0.935946
vt 0.975223 0.933941
vt 0.977527 0.947961
vt 0.975223 0.947952
vt 0.977506 0.933960
vt 0.988544 0.933946
vt 0.990798 0.947927
vt 0.988538 0.947958
vt 0.990782 0.933923
vt 0.372620 0.956774
vt 0.369580 0.956816
vt 0.369539 0.933969
vt 0.661683 0.972049
vt 0.663791 0.974507
vt 0.661625 0.974697
vt 0.663791 0.972265
vt 0.699789 0.950435
vt 0.702448 0.933739
vt 0.702435 0.950549
vt 0.686147 0.950932
vt 0.686078 0.933682
vt 0.688807 0.933689
vt 0.383989 0.933966
vt 0.387069 0.956770
vt 0.384030 0.956812
vt 0.686711 0.972049
vt 0.688783 0.974475
vt 0.686653 0.974697
vt 0.688783 0.972233
vt 0.699721 0.933682
vt 0.387027 0.933925
vt 0.372579 0.933927
vt 0.688795 0.950997
vt 0.672504 0.950932
vt 0.672435 0.933682
vt 0.675164 0.933689
vt 0.680454 0.972049
vt 0.682562 0.974507
vt 0.680396 0.974697
vt 0.391213 0.933966
vt 0.394293 0.956770
vt 0.391254 0.956812
vt 0.682561 0.972265
vt 0.394252 0.933925
vt 0.706609 0.950435
vt 0.706541 0.933682
vt 0.709268 0.933739
vt 0.692932 0.972049
vt 0.695005 0.974475
vt 0.692874 0.974697
vt 0.695004 0.972233
vt 0.675152 0.950996
vt 0.989452 0.925501
vt 0.989493 0.928540
vt 0.966646 0.928581
vt 0.966604 0.925542
vt 0.709255 0.950549
vt 0.962698 0.921261
vt 0.928899 0.903460
vt 0.962671 0.903439
vt 0.209986 0.933869
vt 0.233463 0.934357
vt 0.233463 0.960023
vt 0.209955 0.959687
vt 0.309949 0.933873
vt 0.323502 0.933965
vt 0.323504 0.959455
vt 0.928926 0.921283
vt 0.345073 0.933875
vt 0.358240 0.933733
vt 0.358242 0.959215
vt 0.345041 0.959688
vt 0.019971 0.933915
vt 0.019992 0.967688
vt 0.002168 0.967712
vt 0.264978 0.933871
vt 0.287992 0.959600
vt 0.264946 0.959693
vt 0.287992 0.933931
vt 0.309917 0.959694
vt 0.002147 0.933940
vt 0.643033 0.951097
vt 0.639919 0.948341
vt 0.638183 0.944112
vt 0.638091 0.939398
vt 0.639627 0.935600
vt 0.642454 0.933747
vt 0.648808 0.937351
vt 0.650549 0.941620
vt 0.645913 0.934570
vt 0.650669 0.946229
vt 0.609620 0.951631
vt 0.604788 0.941567
vt 0.606456 0.937183
vt 0.604812 0.946288
vt 0.609382 0.934341
vt 0.612741 0.933741
vt 0.615729 0.935946
vt 0.617378 0.939676
vt 0.617369 0.944306
vt 0.615706 0.948593
vt 0.613220 0.951015
vt 0.606501 0.949646
vt 0.649137 0.949940
vt 0.646735 0.951517
vt 0.968543 0.933941
vt 0.970848 0.947962
vt 0.968544 0.947952
vt 0.970827 0.933960
vt 0.981909 0.933946
vt 0.984148 0.933923
vt 0.984163 0.947927
vt 0.981903 0.947958
vt 0.365395 0.956774
vt 0.362314 0.933969
vt 0.365354 0.933927
vt 0.699153 0.972049
vt 0.701226 0.974475
vt 0.699095 0.974697
vt 0.701226 0.972233
vt 0.679326 0.950932
vt 0.681985 0.933689
vt 0.681974 0.950997
vt 0.398438 0.933966
vt 0.401477 0.933925
vt 0.401518 0.956770
vt 0.713429 0.950434
vt 0.713361 0.933682
vt 0.716088 0.933739
vt 0.679257 0.933682
vt 0.674197 0.972049
vt 0.676305 0.974507
vt 0.674139 0.974697
vt 0.398479 0.956812
vt 0.676305 0.972265
vt 0.362355 0.956816
vt 0.716075 0.950548
vt 0.705375 0.972049
vt 0.707447 0.974475
vt 0.705317 0.974697
vt 0.707447 0.972233
vt 0.720249 0.950435
vt 0.720181 0.933682
vt 0.722907 0.933739
vt 0.405663 0.933966
vt 0.408702 0.933925
vt 0.408743 0.956770
vt 0.692969 0.950932
vt 0.695628 0.933689
vt 0.695617 0.950997
vt 0.379845 0.956774
vt 0.376764 0.933969
vt 0.379803 0.933927
vt 0.667940 0.972049
vt 0.670048 0.974507
vt 0.667882 0.974697
vt 0.670048 0.972265
vt 0.692900 0.933682
vt 0.405704 0.956812
vt 0.376805 0.956816
vt 0.722895 0.950548
vt 0.248818 0.724499
vt 0.247186 0.724611
vt 0.247130 0.616807
vt 0.633376 0.974119
vt 0.634631 0.972183
vt 0.635832 0.974188
vt 0.840474 0.109822
vt 0.838652 0.002311
vt 0.840288 0.002133
vt 0.838652 0.109717
vt 0.847192 0.109706
vt 0.845489 0.109700
vt 0.845575 0.002309
vt 0.847251 0.002115
vt 0.650254 0.973190
vt 0.648940 0.975145
vt 0.647789 0.973045
vt 0.249217 0.616991
vt 0.640610 0.974119
vt 0.641865 0.972183
vt 0.643066 0.974188
vt 0.845647 0.283573
vt 0.843825 0.176062
vt 0.845461 0.175883
vt 0.843825 0.283468
vt 0.852365 0.283456
vt 0.850748 0.176059
vt 0.852424 0.175866
vt 0.850662 0.283450
vt 0.657265 0.973190
vt 0.655952 0.975145
vt 0.654800 0.973046
vt 0.248817 0.836532
vt 0.247186 0.836644
vt 0.247130 0.728840
vt 0.249217 0.729024
vt 0.835930 0.454063
vt 0.839314 0.526083
vt 0.835892 0.526314
vt 0.839322 0.454173
vt 0.076748 0.965676
vt 0.076716 0.933972
vt 0.081325 0.933932
vt 0.081355 0.965635
vt 0.858161 0.096846
vt 0.880191 0.097140
vt 0.880215 0.169506
vt 0.858131 0.169110
vt 0.072602 0.933934
vt 0.072632 0.965639
vt 0.068024 0.965679
vt 0.866390 0.002168
vt 0.888003 0.074435
vt 0.866357 0.074443
vt 0.887983 0.002058
vt 0.835884 0.675912
vt 0.839360 0.748010
vt 0.835845 0.748186
vt 0.839368 0.676078
vt 0.067993 0.933974
vt 0.519335 0.934043
vt 0.528888 0.953753
vt 0.519361 0.953611
vt 0.528955 0.934200
vt 0.546694 0.934054
vt 0.551728 0.934029
vt 0.551732 0.953438
vt 0.016492 0.985903
vt 0.023038 0.972096
vt 0.023044 0.985938
vt 0.033632 0.972097
vt 0.027084 0.985904
vt 0.027079 0.972062
vt 0.033638 0.985939
vt 0.546653 0.953472
vt 0.016487 0.972062
vt 0.533088 0.933940
vt 0.542396 0.933891
vt 0.542412 0.953590
vt 0.533072 0.953621
vt 0.465725 0.934161
vt 0.470680 0.934202
vt 0.470680 0.953605
vt 0.465746 0.953727
vt 0.782085 0.950300
vt 0.529880 0.612954
vt 0.298618 0.318538
vt 0.737617 0.950301
vt 0.737016 0.950300
vt 0.737301 0.933994
vt 0.792101 0.950300
vt 0.752152 0.950300
vt 0.817139 0.950300
vt 0.767283 0.950300
vt 0.822745 0.950298
vt 0.822146 0.950300
vt 0.822429 0.933992
vt 0.772070 0.950300
vt 0.832162 0.950300
vt 0.777298 0.950300
vt 0.280071 0.318418
vt 0.738024 0.933993
vt 0.808131 0.933993
vt 0.733016 0.933993
vt 0.787312 0.950299
vt 0.823154 0.933993
vt 0.827373 0.950299
vt 0.763062 0.933993
vt 0.798116 0.933993
vt 0.748039 0.933993
vt 0.600027 0.978544
vt 0.929044 0.508325
vt 0.008450 0.318727
vt 0.008311 0.318415
vt 0.239421 0.318415
vt 0.802116 0.950300
vt 0.727000 0.950300
vt 0.812131 0.950300
vt 0.757047 0.950301
vt 0.837169 0.950300
vt 0.742024 0.950300
vt 0.842177 0.950300
vt 0.239421 0.612361
vt 0.239559 0.612672
vt 0.008449 0.612672
vt 0.604793 0.976802
vt 0.831507 0.488272
vt 0.831801 0.318747
vt 0.037658 0.985776
vt 0.008702 0.324806
vt 0.216000 0.796348
vt 0.803832 0.825398
vt 0.789485 0.621628
vt 0.803457 0.616647
vt 0.803956 0.621160
vt 0.261836 0.616686
vt 0.955932 0.934025
vt 0.276066 0.816741
vt 0.261928 0.821540
vt 0.261933 0.816937
vt 0.831756 0.713544
vt 0.866539 0.587165
vt 0.857519 0.687902
vt 0.556762 0.972055
vt 0.962446 0.508484
s 1
usemtl shop_005_baked
f 3/1/1 1/2/1 2/3/1
f 3/1/1 2/3/1 4/4/1
f 337/5/2 338/6/3 339/7/4
f 492/8/5 482/9/5 27/10/5
f 49/11/6 486/12/6 31/13/6
f 36/14/7 478/15/7 35/16/7
f 491/17/8 45/18/9 478/15/10
f 53/19/11 57/20/12 56/21/13
f 460/22/14 481/23/14 151/24/14
f 333/25/15 335/26/16 336/27/17
f 336/28/17 334/29/18 333/30/15
f 342/31/19 344/32/20 341/33/21
f 341/34/21 343/35/22 342/36/19
f 385/37/23 388/38/24 387/39/25
f 391/40/26 392/41/27 389/42/28
f 394/43/29 396/44/30 393/45/31
f 393/46/31 395/47/32 394/48/29
f 35/49/33 484/50/33 36/51/33
f 321/52/34 323/53/35 322/54/36
f 326/55/37 327/56/38 328/57/39
f 330/58/40 332/59/41 331/60/42
f 339/61/4 340/62/43 337/63/2
f 389/64/28 390/65/44 391/66/26
f 400/67/45 397/68/17 399/69/46
f 404/70/47 401/71/48 403/72/49
f 408/73/50 407/74/51 406/75/52
f 21/76/53 23/77/54 22/78/55
f 490/79/56 56/80/56 57/81/56
f 470/82/57 464/83/57 492/8/57
f 150/84/58 474/85/58 181/86/58
f 325/87/59 328/88/39 327/89/38
f 329/90/60 331/91/42 332/92/41
f 398/93/61 399/94/46 397/95/17
f 402/96/62 403/97/49 401/98/48
f 405/99/63 406/100/52 407/101/51
f 48/102/64 499/103/65 44/104/66
f 23/105/67 458/106/67 22/107/67
f 154/108/68 151/109/69 481/110/70
f 5/111/71 12/112/72 10/113/73
f 5/111/71 11/114/74 12/112/72
f 9/115/75 5/116/71 10/117/73
f 9/118/75 11/119/74 5/120/71
f 6/121/76 7/122/77 8/123/78
f 6/121/76 9/124/75 7/122/77
f 11/125/74 6/126/76 8/127/78
f 9/118/75 6/128/76 11/119/74
f 9/115/75 10/117/73 7/129/77
f 10/130/73 8/131/78 7/132/77
f 11/125/74 8/127/78 12/133/72
f 10/130/73 12/134/72 8/131/78
f 17/135/79 13/136/80 19/137/81
f 16/138/82 18/139/83 13/140/80
f 16/138/82 13/140/80 17/141/79
f 18/142/83 19/143/81 13/144/80
f 14/145/84 15/146/85 19/147/81
f 14/145/84 20/148/86 15/146/85
f 18/142/83 14/149/84 19/143/81
f 20/150/86 14/151/84 18/152/83
f 20/153/86 17/154/79 15/155/85
f 17/135/79 19/137/81 15/156/85
f 20/150/86 18/152/83 16/157/82
f 20/153/86 16/158/82 17/154/79
f 21/159/53 496/160/87 483/161/88
f 21/159/53 24/162/89 496/160/87
f 23/163/54 21/164/53 483/165/88
f 22/78/90 24/166/89 21/76/53
f 22/78/90 26/167/91 24/166/89
f 23/163/54 483/165/88 458/168/92
f 26/169/91 22/170/90 463/171/93
f 24/172/89 26/173/91 466/174/94
f 483/175/88 496/176/87 466/177/95
f 25/178/96 28/179/97 42/180/98
f 25/181/99 476/182/100 467/183/101
f 39/184/102 51/185/103 25/186/96
f 25/181/104 51/187/104 476/182/104
f 42/180/98 39/188/102 25/178/96
f 26/169/91 463/171/93 466/189/105
f 492/8/106 485/190/106 34/191/106
f 478/192/107 36/193/108 484/194/109
f 493/195/110 42/196/98 467/197/101
f 476/198/100 493/195/110 467/197/101
f 49/199/111 465/200/112 486/201/113
f 477/202/114 37/203/115 489/204/1
f 31/205/116 33/206/117 35/207/118
f 33/208/119 486/209/119 470/210/119
f 57/20/120 41/211/120 30/212/120
f 31/205/116 35/207/118 503/213/121
f 478/214/122 47/215/123 32/200/124
f 492/8/125 34/191/125 470/82/125
f 47/216/123 459/217/126 32/218/124
f 499/219/127 32/220/124 459/221/126
f 35/49/118 33/222/117 34/223/128
f 33/208/129 470/210/129 34/224/129
f 37/225/115 55/226/130 54/227/131
f 37/225/115 477/228/114 55/226/130
f 56/229/132 37/230/115 54/231/131
f 42/232/98 498/233/133 39/234/102
f 42/232/98 493/235/110 498/233/133
f 494/236/134 53/237/135 55/238/130
f 494/236/136 55/238/130 477/239/114
f 57/20/12 53/19/11 41/211/137
f 498/240/138 493/236/138 52/239/138
f 491/17/8 499/103/65 48/102/64
f 478/214/139 45/241/9 47/215/123
f 45/242/9 46/243/140 47/244/123
f 491/17/8 48/102/64 45/18/9
f 45/242/9 48/245/64 46/243/140
f 47/216/123 46/246/140 459/217/126
f 48/247/64 459/248/126 46/249/140
f 53/250/135 54/251/131 55/252/130
f 53/250/135 56/253/132 54/251/131
f 61/254/141 59/255/142 64/256/143
f 60/257/144 66/258/145 59/259/142
f 60/257/144 59/259/142 61/260/141
f 66/261/145 64/262/143 59/263/142
f 65/264/146 60/265/144 61/266/141
f 65/267/146 66/268/145 60/269/144
f 61/254/141 64/256/143 63/270/147
f 65/264/146 61/266/141 63/271/147
f 66/261/145 62/272/148 64/262/143
f 62/273/148 63/274/147 64/275/143
f 62/273/148 65/276/146 63/274/147
f 65/267/146 62/277/148 66/268/145
f 67/278/149 70/279/150 68/280/151
f 67/278/149 69/281/152 70/279/150
f 69/282/152 68/283/151 70/284/150
f 69/282/152 67/285/149 68/283/151
f 74/286/153 71/287/154 72/288/155
f 71/289/154 73/290/156 72/291/155
f 74/286/153 72/288/155 73/292/156
f 71/289/154 74/293/153 73/290/156
f 78/294/157 75/295/158 76/296/159
f 78/294/157 76/296/159 77/297/160
f 75/298/158 78/299/157 77/300/160
f 75/298/158 77/300/160 76/301/159
f 79/302/161 82/303/162 80/304/163
f 79/302/161 81/305/164 82/303/162
f 81/306/164 79/307/161 80/308/163
f 81/306/164 80/308/163 82/309/162
f 87/310/165 83/311/166 86/312/167
f 87/310/165 85/313/168 83/311/166
f 86/314/169 83/315/170 90/316/171
f 83/317/170 85/318/172 89/319/173
f 83/317/170 89/319/173 90/320/171
f 88/321/174 89/322/175 84/323/176
f 85/324/172 87/325/177 84/326/178
f 85/324/172 84/326/178 89/327/173
f 87/328/177 88/329/179 84/330/178
f 86/314/169 90/316/171 88/331/179
f 87/328/177 86/332/169 88/329/179
f 88/321/174 90/333/180 89/322/175
f 91/334/144 92/335/142 95/336/141
f 94/337/146 97/338/145 91/339/144
f 91/334/144 97/340/145 92/335/142
f 94/341/146 91/342/144 95/343/141
f 97/344/145 98/345/143 92/346/142
f 95/347/141 92/348/142 98/349/143
f 96/350/148 93/351/147 98/352/143
f 96/350/148 94/353/146 93/351/147
f 94/341/146 95/343/141 93/354/147
f 95/347/141 98/349/143 93/355/147
f 94/337/146 96/356/148 97/338/145
f 97/344/145 96/357/148 98/345/143
f 99/358/181 102/359/182 100/360/183
f 99/358/181 101/361/184 102/359/182
f 101/362/184 99/363/181 100/364/183
f 101/362/184 100/364/183 102/365/182
f 106/366/158 105/367/185 103/368/159
f 106/366/158 104/369/157 105/367/185
f 104/370/157 103/371/159 105/372/185
f 104/370/157 106/373/158 103/371/159
f 110/374/161 108/375/162 107/376/163
f 109/377/164 107/378/163 108/379/162
f 110/374/161 109/380/164 108/375/162
f 109/377/164 110/381/161 107/378/163
f 112/382/153 111/383/186 113/384/187
f 111/385/186 112/386/153 114/387/156
f 112/382/153 113/384/187 114/388/156
f 111/385/186 114/387/156 113/389/187
f 117/390/169 115/391/171 116/392/179
f 116/393/174 115/394/180 122/395/175
f 117/390/169 119/396/170 115/391/171
f 119/397/170 122/398/173 115/399/171
f 116/393/174 122/395/175 118/400/176
f 121/401/177 117/402/169 116/403/179
f 121/401/177 116/403/179 118/404/178
f 121/405/165 119/406/166 117/407/167
f 120/408/172 121/409/177 118/410/178
f 120/408/172 118/410/178 122/411/173
f 121/405/165 120/412/168 119/406/166
f 119/397/170 120/413/172 122/398/173
f 127/414/146 129/415/145 123/416/144
f 123/417/144 129/418/145 130/419/142
f 127/420/146 123/421/144 128/422/141
f 123/417/144 130/419/142 128/423/141
f 129/424/145 124/425/148 126/426/143
f 124/427/148 125/428/147 126/429/143
f 124/427/148 127/430/146 125/428/147
f 127/414/146 124/431/148 129/415/145
f 127/420/146 128/422/141 125/432/147
f 128/433/141 126/434/143 125/435/147
f 129/424/145 126/426/143 130/436/142
f 128/433/141 130/437/142 126/434/143
f 131/438/181 132/439/182 134/440/188
f 131/438/181 133/441/189 132/439/182
f 133/442/189 131/443/181 134/444/188
f 133/442/189 134/444/188 132/445/182
f 137/446/190 135/447/191 136/448/192
f 135/449/191 138/450/193 136/451/192
f 135/449/191 137/452/190 138/450/193
f 137/446/190 136/448/192 138/453/193
f 142/454/154 141/455/156 139/456/187
f 140/457/153 139/458/187 141/459/156
f 140/457/153 142/460/154 139/458/187
f 142/454/154 140/461/153 141/455/156
f 144/462/190 143/463/191 146/464/192
f 143/465/191 145/466/193 146/467/192
f 143/465/191 144/468/190 145/466/193
f 144/462/190 146/464/192 145/469/193
f 147/470/194 181/86/195 149/471/196
f 147/470/197 479/472/197 181/86/197
f 481/110/198 147/473/199 148/474/200
f 481/475/201 479/476/201 147/477/201
f 148/478/202 500/479/202 154/480/202
f 474/481/203 500/479/203 148/478/203
f 481/110/198 148/474/200 154/108/204
f 460/482/205 479/476/205 481/475/205
f 462/483/206 151/24/69 154/484/68
f 475/485/207 182/486/207 501/487/207
f 153/488/208 181/489/209 183/490/210
f 462/483/211 154/484/211 500/491/211
f 461/492/212 501/493/213 180/494/214
f 183/490/210 462/495/215 153/488/208
f 180/494/216 501/493/217 182/496/218
f 160/497/148 155/498/147 159/499/143
f 160/497/148 161/500/146 155/498/147
f 161/501/146 157/502/141 155/503/147
f 157/504/141 159/505/143 155/506/147
f 161/501/146 156/507/144 157/502/141
f 161/508/146 158/509/145 156/510/144
f 156/511/144 158/512/145 162/513/142
f 156/511/144 162/513/142 157/514/141
f 157/504/141 162/515/142 159/505/143
f 158/516/145 159/517/143 162/518/142
f 161/508/146 160/519/148 158/509/145
f 158/516/145 160/520/148 159/517/143
f 165/521/149 163/522/189 166/523/150
f 165/521/149 166/523/150 164/524/188
f 163/525/189 165/526/149 164/527/188
f 163/525/189 164/527/188 166/528/150
f 170/529/191 168/530/193 167/531/192
f 169/532/190 170/533/191 167/534/192
f 169/532/190 167/534/192 168/535/193
f 170/529/191 169/536/190 168/530/193
f 172/537/219 171/538/220 174/539/221
f 171/540/220 172/541/219 173/542/222
f 171/540/220 173/542/222 174/543/221
f 172/537/219 174/539/221 173/544/222
f 176/545/153 175/546/154 178/547/155
f 175/548/154 176/549/153 177/550/156
f 176/545/153 178/547/155 177/551/156
f 175/548/154 177/550/156 178/552/155
f 461/553/223 179/554/223 480/555/223
f 461/553/212 180/556/214 179/554/224
f 480/472/225 179/557/226 184/558/227
f 179/559/226 180/560/216 182/561/218
f 179/559/226 182/561/218 184/562/227
f 183/563/210 181/564/209 462/565/215
f 475/485/228 184/566/229 182/486/230
f 185/567/231 192/568/232 186/569/233
f 188/570/234 187/571/235 185/572/231
f 185/567/231 187/573/235 192/568/232
f 190/574/236 185/575/231 186/576/233
f 188/570/234 185/572/231 190/577/236
f 190/574/236 186/576/233 191/578/237
f 191/579/237 186/580/233 192/581/232
f 187/582/235 189/583/238 192/584/232
f 187/582/235 188/585/234 189/583/238
f 188/586/234 191/587/237 189/588/238
f 188/586/234 190/589/236 191/587/237
f 191/579/237 192/581/232 189/590/238
f 194/591/239 193/592/240 195/593/241
f 194/591/239 196/594/242 193/592/240
f 196/595/242 194/596/239 195/597/241
f 196/595/242 195/597/241 193/598/240
f 199/599/243 197/600/244 198/601/245
f 197/602/244 200/603/246 198/604/245
f 199/599/243 198/601/245 200/605/246
f 197/602/244 199/606/243 200/603/246
f 202/607/247 204/608/248 201/609/249
f 202/607/247 201/609/249 203/610/250
f 204/611/248 202/612/247 203/613/250
f 204/611/248 203/613/250 201/614/249
f 206/615/248 205/616/247 208/617/250
f 205/618/247 207/619/249 208/620/250
f 205/618/247 206/621/248 207/619/249
f 206/615/248 208/617/250 207/622/249
f 211/623/251 212/624/252 209/625/253
f 214/626/254 210/627/255 209/628/256
f 214/626/254 209/628/256 212/629/257
f 210/630/258 211/631/251 209/632/253
f 210/633/258 215/634/259 216/635/260
f 210/633/258 214/636/261 215/634/259
f 210/630/258 216/637/260 211/631/251
f 216/638/262 213/639/263 211/640/264
f 211/623/251 213/641/265 212/624/252
f 215/642/259 214/643/261 212/644/252
f 215/642/259 212/644/252 213/645/265
f 216/638/262 215/646/266 213/639/263
f 217/647/267 224/648/268 223/649/269
f 217/647/267 222/650/270 224/648/268
f 219/651/271 217/652/267 223/653/269
f 219/654/271 222/655/270 217/656/267
f 221/657/272 218/658/273 220/659/274
f 221/657/272 219/660/271 218/658/273
f 219/651/271 223/653/269 218/661/273
f 223/662/269 220/663/274 218/664/273
f 219/654/271 221/665/272 222/655/270
f 223/662/269 224/666/268 220/663/274
f 222/667/270 221/668/272 220/669/274
f 222/667/270 220/669/274 224/670/268
f 227/671/275 225/672/276 230/673/277
f 229/674/278 231/675/279 225/676/276
f 230/677/277 225/678/276 231/679/279
f 227/671/275 229/680/278 225/672/276
f 228/681/280 226/682/281 229/683/278
f 229/674/278 226/684/281 231/675/279
f 226/685/281 232/686/282 231/687/279
f 226/685/281 228/688/280 232/686/282
f 228/689/280 227/690/275 230/691/277
f 228/681/280 229/683/278 227/692/275
f 228/689/280 230/691/277 232/693/282
f 230/677/277 231/679/279 232/694/282
f 242/695/283 233/696/284 234/697/285
f 234/698/285 233/699/286 240/700/287
f 233/701/284 241/702/288 240/703/287
f 242/695/283 234/697/285 239/704/289
f 239/705/289 234/706/285 236/707/290
f 239/705/289 236/707/290 235/708/291
f 237/709/292 235/710/293 236/711/290
f 238/712/294 239/705/289 235/708/293
f 234/698/285 240/700/287 236/713/290
f 237/709/292 236/711/290 240/703/287
f 237/709/292 240/703/287 241/702/288
f 242/714/283 238/715/294 237/716/292
f 238/715/294 235/717/293 237/716/292
f 242/714/283 237/716/292 241/718/288
f 242/695/283 239/704/289 238/719/294
f 233/720/284 242/721/283 241/722/288
f 243/723/284 245/724/283 247/725/288
f 246/726/289 244/727/285 251/728/290
f 245/729/283 244/730/285 246/731/289
f 245/729/283 246/731/289 248/732/294
f 245/729/283 243/733/284 244/730/285
f 245/734/283 250/735/292 247/736/288
f 245/734/283 248/737/294 250/735/292
f 248/738/294 246/726/289 249/739/293
f 246/726/289 251/728/290 249/739/291
f 250/740/292 252/741/287 247/742/288
f 243/743/284 247/742/288 252/741/287
f 248/737/294 249/744/293 250/735/292
f 250/740/292 249/745/293 251/746/290
f 250/740/292 251/746/290 252/741/287
f 244/747/285 243/748/286 252/749/287
f 244/747/285 252/749/287 251/750/290
f 254/751/284 253/752/283 258/753/288
f 253/754/283 260/755/285 262/756/289
f 253/757/283 257/758/292 258/759/288
f 253/757/283 255/760/294 257/758/292
f 253/754/283 254/761/284 260/755/285
f 253/754/283 262/756/289 255/762/294
f 255/763/294 262/764/289 259/765/293
f 257/766/292 256/767/287 258/768/288
f 260/769/285 254/770/286 256/771/287
f 260/769/285 256/771/287 261/772/290
f 254/773/284 258/768/288 256/767/287
f 257/766/292 261/774/290 256/767/287
f 255/760/294 259/775/293 257/758/292
f 257/766/292 259/776/293 261/774/290
f 262/764/289 261/777/290 259/765/291
f 262/764/289 260/778/285 261/777/290
f 265/779/280 263/780/295 270/781/277
f 263/782/295 268/783/276 270/784/277
f 265/785/280 266/786/278 263/787/295
f 263/782/295 266/788/278 268/783/276
f 270/789/277 267/790/279 264/791/296
f 269/792/297 264/793/296 267/794/279
f 269/792/297 265/795/280 264/793/296
f 265/779/280 270/781/277 264/796/296
f 265/785/280 269/797/297 266/786/278
f 266/798/278 267/799/279 268/800/276
f 266/798/278 269/801/297 267/799/279
f 270/789/277 268/802/276 267/790/279
f 271/803/283 278/804/285 277/805/289
f 271/806/283 276/807/292 274/808/288
f 271/806/283 275/809/294 276/807/292
f 271/803/283 280/810/284 278/804/285
f 271/803/283 277/805/289 275/811/294
f 280/812/284 271/813/283 274/814/288
f 277/815/289 273/816/290 272/817/298
f 276/818/292 272/819/293 273/820/290
f 275/821/294 277/815/289 272/817/293
f 277/815/289 278/822/285 273/816/290
f 275/809/294 272/823/293 276/807/292
f 276/818/292 279/824/287 274/825/288
f 276/818/292 273/820/290 279/824/287
f 278/826/285 279/827/287 273/828/290
f 278/826/285 280/829/286 279/827/287
f 280/830/284 274/825/288 279/824/287
f 281/831/284 284/832/283 287/833/288
f 284/834/283 281/835/284 282/836/285
f 282/837/285 281/838/286 290/839/287
f 282/837/285 290/839/287 289/840/290
f 283/841/289 282/842/285 289/843/290
f 284/834/283 283/844/289 285/845/294
f 285/846/294 283/841/289 288/847/293
f 283/841/289 289/843/290 288/847/298
f 284/834/283 282/836/285 283/844/289
f 284/848/283 286/849/292 287/850/288
f 284/848/283 285/851/294 286/849/292
f 286/852/292 288/853/293 289/854/290
f 286/852/292 290/855/287 287/856/288
f 286/852/292 289/854/290 290/855/287
f 285/851/294 288/857/293 286/849/292
f 281/858/284 287/856/288 290/855/287
f 291/859/294 298/860/289 293/861/293
f 292/862/283 298/863/289 291/864/294
f 292/862/283 299/865/285 298/863/289
f 292/866/283 297/867/292 296/868/288
f 292/866/283 291/869/294 297/867/292
f 292/862/283 300/870/284 299/865/285
f 300/871/284 292/872/283 296/873/288
f 298/860/289 294/874/290 293/861/291
f 297/875/292 293/876/293 294/877/290
f 299/878/285 295/879/287 294/880/290
f 297/875/292 294/877/290 295/881/287
f 297/875/292 295/881/287 296/882/288
f 299/878/285 300/883/286 295/879/287
f 300/884/284 296/882/288 295/881/287
f 291/869/294 293/885/293 297/867/292
f 298/860/289 299/886/285 294/874/290
f 302/887/299 304/888/300 301/889/301
f 301/890/301 308/891/302 303/892/303
f 302/887/299 301/889/301 303/893/303
f 304/894/300 307/895/304 301/896/301
f 301/890/301 307/897/304 308/891/302
f 302/898/299 306/899/305 304/900/300
f 302/898/299 305/901/306 306/899/305
f 305/902/306 302/903/299 303/904/303
f 305/902/306 303/904/303 308/905/302
f 304/894/300 306/906/305 307/895/304
f 306/907/305 305/908/306 308/909/302
f 306/907/305 308/909/302 307/910/304
f 320/911/307 313/912/308 309/913/309
f 320/911/307 310/914/310 318/915/311
f 320/911/307 309/913/309 310/914/310
f 320/911/307 316/916/312 315/917/313
f 320/911/307 317/918/314 316/916/312
f 320/911/307 319/919/315 313/912/308
f 320/911/307 314/920/316 311/921/317
f 320/911/307 312/922/318 314/920/316
f 320/911/307 318/915/311 317/918/314
f 320/911/307 315/917/313 312/922/318
f 311/923/317 312/924/318 315/925/313
f 311/923/317 314/926/316 312/924/318
f 311/923/317 319/927/315 320/928/307
f 311/923/317 313/929/308 319/927/315
f 311/923/317 317/930/314 318/931/311
f 311/923/317 316/932/312 317/930/314
f 311/923/317 309/933/309 313/929/308
f 311/923/317 310/934/310 309/933/309
f 311/923/317 315/925/313 316/932/312
f 311/923/317 318/931/311 310/934/310
f 345/935/319 347/936/320 348/937/321
f 345/935/319 346/938/322 347/936/320
f 346/939/322 348/940/321 347/941/320
f 346/939/322 345/942/319 348/940/321
f 355/943/323 349/944/324 353/945/325
f 350/946/326 349/947/324 355/948/323
f 350/946/326 352/949/327 349/947/324
f 352/950/327 353/951/325 349/952/324
f 354/953/328 350/954/326 355/955/323
f 354/956/328 352/957/327 350/958/326
f 351/959/329 356/960/330 353/961/325
f 351/959/329 354/962/328 356/960/330
f 352/950/327 351/963/329 353/951/325
f 354/956/328 351/964/329 352/957/327
f 355/943/323 353/945/325 356/965/330
f 354/953/328 355/955/323 356/966/330
f 359/967/328 357/968/326 360/969/323
f 357/970/326 362/971/324 360/972/323
f 359/973/328 363/974/327 357/975/326
f 357/970/326 363/976/327 362/971/324
f 359/973/328 358/977/329 363/974/327
f 363/978/327 358/979/329 361/980/325
f 358/981/329 364/982/330 361/983/325
f 358/981/329 359/984/328 364/982/330
f 359/967/328 360/969/323 364/985/330
f 360/986/323 362/987/324 361/988/325
f 360/986/323 361/988/325 364/989/330
f 363/978/327 361/980/325 362/990/324
f 370/991/299 366/992/305 365/993/300
f 365/994/300 366/995/305 367/996/304
f 365/994/300 367/996/304 371/997/301
f 370/998/299 365/999/300 371/1000/301
f 370/991/299 369/1001/306 366/992/305
f 366/1002/305 369/1003/306 372/1004/302
f 366/1002/305 372/1004/302 367/1005/304
f 371/1006/301 367/1007/304 372/1008/302
f 369/1009/306 368/1010/303 372/1011/302
f 369/1009/306 370/1012/299 368/1010/303
f 370/998/299 371/1000/301 368/1013/303
f 371/1006/301 372/1008/302 368/1014/303
f 383/1015/307 379/1016/315 373/1017/308
f 383/1015/307 373/1017/308 378/1018/309
f 383/1015/307 374/1019/310 382/1020/311
f 383/1015/307 378/1018/309 374/1019/310
f 383/1015/307 375/1021/331 376/1022/313
f 383/1015/307 377/1023/314 375/1021/331
f 383/1015/307 376/1022/313 381/1024/332
f 384/1025/317 376/1026/313 375/1027/331
f 384/1025/317 381/1028/332 376/1026/313
f 384/1025/317 377/1029/314 382/1030/311
f 384/1025/317 375/1027/331 377/1029/314
f 384/1025/317 374/1031/310 378/1032/309
f 384/1025/317 382/1030/311 374/1031/310
f 384/1025/317 378/1032/309 373/1033/308
f 384/1025/317 373/1033/308 379/1034/315
f 384/1025/317 379/1034/315 383/1035/307
f 384/1025/317 380/1036/333 381/1028/332
f 383/1015/307 381/1024/332 380/1037/333
f 383/1015/307 380/1037/333 384/1038/317
f 383/1015/307 382/1020/311 377/1023/314
f 409/1039/319 412/1040/320 411/1041/321
f 409/1039/319 410/1042/322 412/1040/320
f 410/1043/322 409/1044/319 411/1045/321
f 410/1043/322 411/1045/321 412/1046/320
f 416/1047/323 420/1048/325 413/1049/330
f 414/1050/329 413/1051/330 420/1052/325
f 414/1050/329 418/1053/328 413/1051/330
f 418/1054/328 416/1055/323 413/1056/330
f 418/1057/328 414/1058/329 417/1059/327
f 417/1060/327 414/1061/329 420/1062/325
f 418/1054/328 415/1063/326 416/1055/323
f 415/1064/326 419/1065/324 416/1066/323
f 418/1057/328 417/1059/327 415/1067/326
f 415/1064/326 417/1068/327 419/1065/324
f 416/1047/323 419/1069/324 420/1048/325
f 417/1060/327 420/1062/325 419/1070/324
f 421/1071/329 422/1072/330 428/1073/325
f 421/1071/329 425/1074/328 422/1072/330
f 426/1075/327 421/1076/329 428/1077/325
f 425/1078/328 421/1079/329 426/1080/327
f 425/1081/328 427/1082/323 422/1083/330
f 427/1084/323 428/1085/325 422/1086/330
f 423/1087/326 424/1088/324 427/1089/323
f 423/1087/326 426/1090/327 424/1088/324
f 425/1081/328 423/1091/326 427/1082/323
f 425/1078/328 426/1080/327 423/1092/326
f 427/1084/323 424/1093/324 428/1085/325
f 426/1075/327 428/1077/325 424/1094/324
f 430/1095/334 429/1096/335 434/1097/336
f 429/1098/335 430/1099/334 431/1100/337
f 429/1101/335 432/1102/338 434/1103/336
f 429/1101/335 431/1104/337 432/1102/338
f 431/1105/337 430/1106/334 433/1107/339
f 431/1105/337 433/1107/339 432/1108/338
f 432/1109/338 433/1110/339 434/1111/336
f 430/1095/334 434/1097/336 433/1112/339
f 435/1113/335 439/1114/334 436/1115/337
f 435/1116/335 437/1117/340 438/1118/336
f 435/1116/335 436/1119/337 437/1117/340
f 436/1120/337 440/1121/339 437/1122/340
f 436/1120/337 439/1123/334 440/1121/339
f 437/1124/340 440/1125/339 438/1126/336
f 439/1127/334 435/1128/335 438/1129/336
f 439/1127/334 438/1129/336 440/1130/339
f 441/1131/341 447/1132/342 442/1133/343
f 441/1131/341 443/1134/344 447/1132/342
f 444/1135/345 443/1136/344 441/1137/341
f 444/1135/345 441/1137/341 445/1138/346
f 445/1139/346 441/1140/341 442/1141/343
f 445/1139/346 442/1141/343 446/1142/347
f 446/1143/347 442/1144/343 447/1145/342
f 443/1146/344 448/1147/348 447/1148/342
f 443/1146/344 444/1149/345 448/1147/348
f 444/1150/345 446/1151/347 448/1152/348
f 444/1150/345 445/1153/346 446/1151/347
f 446/1143/347 447/1145/342 448/1154/348
f 449/1155/349 454/1156/350 450/1157/351
f 449/1155/349 456/1158/352 454/1156/350
f 451/1159/353 449/1160/349 450/1161/351
f 451/1162/353 456/1163/352 449/1164/349
f 450/1165/351 453/1166/354 452/1167/355
f 450/1165/351 454/1168/350 453/1166/354
f 451/1159/353 450/1161/351 452/1169/355
f 451/1162/353 455/1170/356 456/1163/352
f 455/1171/356 451/1172/353 452/1173/355
f 455/1171/356 452/1173/355 453/1174/354
f 456/1175/352 455/1176/356 453/1177/354
f 456/1175/352 453/1177/354 454/1178/350
f 337/5/2 340/1179/43 338/6/3
f 492/8/357 464/83/358 484/9/109
f 36/14/359 503/1180/359 478/15/359
f 488/12/360 41/211/137 494/1181/361
f 460/22/362 462/483/362 152/23/362
f 322/1182/36 323/1183/35 324/1184/363
f 333/25/15 334/1185/18 335/26/16
f 336/28/17 335/1186/16 334/29/18
f 342/31/19 343/1187/22 344/32/20
f 341/34/21 344/1188/20 343/35/22
f 387/1189/25 388/1190/24 386/1191/364
f 391/40/26 390/1192/44 392/41/27
f 394/43/29 395/1193/32 396/44/30
f 393/46/31 396/1194/30 395/47/32
f 53/19/11 494/1181/361 41/211/137
f 31/205/365 486/1195/365 33/206/365
f 324/1184/363 321/1196/34 322/1182/36
f 326/55/37 325/1197/59 327/56/38
f 330/58/40 329/1198/60 332/59/41
f 339/61/4 338/1199/3 340/62/43
f 386/1191/364 385/1200/23 387/1189/25
f 389/64/28 392/1201/27 390/65/44
f 400/67/45 398/1202/61 397/68/17
f 404/70/47 402/1203/62 401/71/48
f 408/73/50 405/1204/63 407/74/51
f 490/79/366 30/1205/366 58/80/366
f 149/471/196 148/1206/367 147/470/194
f 471/1207/368 502/1208/368 465/1209/368
f 148/1206/369 149/471/369 474/85/369
f 321/52/34 324/1210/363 323/53/35
f 325/87/59 326/1211/37 328/88/39
f 329/90/60 330/1212/40 331/91/42
f 385/37/23 386/1213/364 388/38/24
f 398/93/61 400/1214/45 399/94/46
f 402/96/62 404/1215/47 403/97/49
f 405/99/63 408/1216/50 406/100/52
f 472/1217/370 50/1218/370 52/1219/370
f 23/105/371 463/1220/371 458/106/371
f 24/172/89 466/174/94 497/1221/372
f 466/174/373 468/1222/373 497/1221/373
f 464/1223/358 478/192/107 484/194/109
f 483/175/374 466/177/374 457/1224/374
f 484/50/375 35/49/118 34/223/128
f 486/201/113 465/200/112 38/1225/376
f 477/202/114 489/204/1 40/1226/377
f 37/1227/115 56/1228/132 490/1229/378
f 32/220/379 499/219/65 491/1230/8
f 51/185/380 39/184/102 498/1231/133
f 459/1232/126 48/1233/64 44/1234/381
f 498/240/382 52/239/382 473/1235/382
f 474/481/383 181/1236/383 500/479/383
f 460/482/383 462/1237/383 479/476/383
f 462/565/215 181/564/209 153/1238/208
f 480/472/384 184/558/229 475/1239/228
l 469 43
l 487 30
l 29 495
