# Blender 4.5.0
# www.blender.org
mtllib shop_004.lod1.mtl
o shop_004
v -2.372014 2.961580 -3.083525
v 2.372014 2.961580 -3.083525
v 2.372014 2.530882 -3.083525
v -2.372014 2.530882 -3.083525
v 3.874041 0.000915 -3.550000
v -3.874041 0.000916 3.550000
v -3.875000 -0.000000 -3.548504
v 3.874041 0.132861 3.550000
v 3.875000 0.000000 3.548504
v -3.875000 0.133777 3.548504
v 3.875000 0.133776 -3.548504
v -3.874041 0.132861 -3.550000
v 3.548043 0.139535 -2.749672
v -3.549713 0.139198 -2.747811
v -3.549713 3.039513 3.048057
v 3.549714 3.039513 -2.747812
v 3.548044 3.039177 3.049918
v -3.548044 3.039176 -2.749672
v 3.549713 0.139199 3.048057
v -3.548043 0.139536 3.049918
v -3.484567 3.158712 2.867136
v -3.492966 3.154171 2.859620
v 3.488486 3.157577 2.865065
v -3.497108 3.051038 -2.867348
v -3.492966 3.049443 -2.867348
v -3.499247 3.131013 -2.877787
v -3.483552 3.041709 -2.859621
v 3.485154 3.159652 -2.864895
v 3.492966 3.154171 -2.859621
v 3.485238 3.049443 2.867348
v 3.492966 3.041710 2.859620
v 3.497108 3.051038 2.867348
v 3.492966 3.049443 2.867348
v -3.653102 3.049443 2.870782
v -3.645374 3.041710 2.859620
v -3.645374 3.041710 2.867348
v -3.648712 3.044076 3.024433
v -3.495547 3.396682 2.863996
v -3.492966 3.041225 2.867339
v -3.497246 3.049443 2.867348
v -3.492966 3.041710 2.859620
v -3.500693 3.033977 2.867348
v -3.653102 3.402295 2.867348
v -3.662361 3.402295 2.859620
v -3.653102 3.401528 2.867348
v -3.645374 3.402295 2.859620
v -3.496349 3.402059 -2.859119
v -3.497246 3.394560 -2.867348
v 3.498887 3.400495 2.864440
v 3.492966 3.394561 2.859620
v 3.645374 3.402295 2.867348
v 3.645374 3.402295 2.875075
v 3.653102 3.394561 2.867348
v 3.645374 3.402295 2.859620
v 3.645374 3.402294 -2.859621
v 3.653102 3.393027 -2.867348
v 3.651346 3.400634 -3.022263
v 3.643842 3.402294 -2.867348
v 3.496963 3.398403 -2.865685
v 3.492966 3.049443 -2.867348
v 3.497246 3.049443 -2.867348
v 3.492966 3.041709 -2.859621
v 3.485238 3.049443 -2.867348
v 3.648712 3.044075 -3.024433
v -3.645374 3.041709 -2.859621
v -3.653102 3.050977 -2.867348
v -3.651346 3.043370 -3.022263
v -3.643842 3.041709 -2.867348
v -3.648712 3.399929 -3.024433
v 3.653102 3.049443 -2.870783
v 3.645374 3.041709 -2.859621
v 3.645374 3.041709 -2.867348
v -3.645374 3.402294 -2.859621
v -3.653102 3.394560 -2.867348
v -3.660829 3.402294 -2.875075
v 3.645374 3.041710 2.859620
v 3.653102 3.050977 2.867348
v 3.651346 3.043370 3.022263
v 3.643842 3.041710 2.867348
v -3.644924 3.401978 3.023485
v -3.653102 3.392966 3.023336
v 3.650364 3.397456 3.024946
v -2.101616 0.500374 -2.896124
v -3.203665 2.288153 -2.749054
v -3.202888 0.500374 -2.748497
v -3.202888 2.287704 -2.896125
v -3.203665 0.499925 -2.895568
v -2.101616 2.287704 -2.748497
v -2.100838 2.288153 -2.895568
v -2.100838 0.499925 -2.749054
v -2.167793 2.219279 -2.911151
v -3.136711 0.568799 -2.911151
v -2.167793 0.568799 -2.913618
v -3.136711 2.219279 -2.913618
v -3.135675 2.262688 -2.972229
v -3.139653 2.262688 -2.912590
v -3.139653 0.535406 -2.972229
v -3.135674 0.535406 -2.912590
v -2.654241 0.535406 -2.972229
v -2.650263 0.535406 -2.912590
v -2.650263 2.262688 -2.972229
v -2.654241 2.262688 -2.912590
v -2.164850 2.262688 -2.972229
v -2.168829 0.535406 -2.972229
v -2.164850 0.535406 -2.912590
v -2.168829 2.262688 -2.912590
v -3.247482 0.536329 -3.080495
v -2.057022 0.458844 -3.080495
v -2.057022 0.536328 -2.844357
v -2.055602 0.458691 -2.845241
v -2.055602 0.536482 -3.079611
v -3.248902 0.536482 -2.845241
v -3.248901 0.458691 -3.079611
v -3.247482 0.458844 -2.844357
v -1.751656 2.287704 -2.896125
v -0.650384 0.500374 -2.896124
v -0.650384 2.287704 -2.748497
v -1.751656 0.500374 -2.748497
v -1.752433 2.288153 -2.749054
v -0.649606 2.288153 -2.895568
v -1.752433 0.499925 -2.895568
v -0.649606 0.499925 -2.749054
v -0.716561 0.568799 -2.913618
v -1.685478 2.219279 -2.913619
v -0.716561 2.219279 -2.911151
v -1.685478 0.568799 -2.911151
v -1.684443 2.262688 -2.972229
v -1.688421 0.535406 -2.972229
v -1.684443 0.535406 -2.912590
v -1.688421 2.262688 -2.912590
v -1.203009 0.535406 -2.972229
v -1.203009 2.262688 -2.912590
v -1.199031 0.535406 -2.912590
v -1.199031 2.262688 -2.972229
v -0.717597 0.535406 -2.972229
v -0.713618 0.535406 -2.912590
v -0.717597 2.262688 -2.912590
v -0.713618 2.262688 -2.972229
v -1.796250 0.536329 -3.080495
v -0.604370 0.536482 -3.079611
v -0.605790 0.458844 -3.080495
v -1.797669 0.458691 -3.079611
v -0.605790 0.536328 -2.844357
v -1.797669 0.536482 -2.845241
v -0.604370 0.458691 -2.845241
v -1.796250 0.458844 -2.844357
v 2.151996 0.500374 -2.896124
v 1.050723 2.287704 -2.896125
v 2.151995 2.287704 -2.748497
v 1.050724 0.500374 -2.748497
v 1.049946 2.288153 -2.749054
v 2.152773 2.288153 -2.895568
v 1.049946 0.499925 -2.895568
v 2.152773 0.499925 -2.749054
v 2.085819 2.219279 -2.911151
v 1.116901 2.219279 -2.913618
v 2.085819 0.568799 -2.913618
v 1.116901 0.568799 -2.911151
v 1.117937 2.262688 -2.972229
v 1.113958 0.535406 -2.972229
v 1.117937 0.535406 -2.912590
v 1.113958 2.262688 -2.912590
v 1.603349 2.262688 -2.972229
v 1.599370 0.535406 -2.972229
v 1.599370 2.262688 -2.912590
v 1.603349 0.535406 -2.912590
v 2.088761 2.262688 -2.972229
v 2.084782 0.535406 -2.972229
v 2.084782 2.262688 -2.912590
v 2.088761 0.535406 -2.912590
v 1.004323 0.534462 -3.078892
v 2.201869 0.532182 -2.836863
v 2.201869 0.543120 -2.847792
v 1.003572 0.529744 -2.844023
v 1.009766 0.537651 -2.844111
v 1.003572 0.465428 -3.080827
v 1.009766 0.457521 -3.080740
v 1.004323 0.460710 -2.845959
v 2.201869 0.457521 -2.850055
v 2.201869 0.465255 -2.842327
v 3.353015 2.287704 -2.748497
v 2.251743 0.500374 -2.748497
v 3.353793 2.288153 -2.895568
v 2.250966 2.288153 -2.749054
v 2.251743 2.287704 -2.896125
v 2.250966 0.499925 -2.895568
v 3.353015 0.500374 -2.896124
v 3.353793 0.499925 -2.749054
v 2.317920 0.568799 -2.911151
v 2.317920 2.219279 -2.913619
v 3.286838 2.219279 -2.911151
v 3.286838 0.568799 -2.913618
v 2.314978 2.262688 -2.912590
v 2.318956 0.535406 -2.912590
v 2.314978 0.535406 -2.972229
v 2.318956 2.262688 -2.972229
v 2.804369 2.262688 -2.972229
v 2.804369 0.535406 -2.912590
v 2.800390 0.535406 -2.972229
v 2.800390 2.262688 -2.912590
v 3.289781 2.262688 -2.972229
v 3.285802 0.535406 -2.972229
v 3.289781 0.535406 -2.912590
v 3.285802 2.262688 -2.912590
v 2.201869 0.462990 -3.087987
v 2.201869 0.452052 -3.077060
v 3.399015 0.458521 -2.845302
v 2.201869 0.537651 -3.074797
v 2.201869 0.529917 -3.082524
v 3.399442 0.534439 -2.845965
v 3.399015 0.536651 -3.079550
v 3.399443 0.460733 -3.078886
v -0.345740 2.417702 -2.901298
v 0.846165 0.170052 -2.901298
v -0.346374 0.169511 -2.900805
v -0.345740 0.170052 -2.763341
v -0.346374 2.418243 -2.763834
v 0.846165 2.417702 -2.763341
v 0.846799 2.418243 -2.900805
v 0.846799 0.169511 -2.763834
v -0.274733 2.340271 -2.923947
v -0.274733 0.237467 -2.920839
v 0.775158 2.340271 -2.920840
v 0.775158 0.237467 -2.923946
v 0.252231 2.342786 -2.979689
v 0.248194 2.342786 -2.925147
v 0.248194 0.234951 -2.979689
v 0.252231 0.234951 -2.925146
v 0.132247 1.399197 -3.045794
v 0.132247 0.998248 -2.979139
v 0.127974 0.998248 -3.045794
v 0.127974 1.399197 -2.979139
v 0.372451 1.399197 -3.045794
v 0.368177 1.399197 -2.979139
v 0.372451 0.998248 -2.979139
v 0.368177 0.998248 -3.045794
v 2.396695 2.502550 -3.076801
v -2.396695 2.989911 -3.076801
v 2.396695 2.989911 -2.928117
v -2.397888 2.989620 -2.928632
v 2.397888 2.989620 -3.076285
v -2.397888 2.502841 -3.076285
v 2.397888 2.502841 -2.928632
v -2.396695 2.502550 -2.928117
v 3.650372 2.302758 -3.363666
v 3.650373 2.388404 -2.721317
v -3.650373 2.302758 -2.721317
v -3.651772 2.389254 -2.723037
v 3.651772 2.301909 -2.723037
v 3.651772 2.389254 -3.361947
v -3.650372 2.388404 -3.363666
v -3.651772 2.301909 -3.361947
v 0.039581 2.290043 -3.091259
v -0.439921 1.820178 -3.091259
v 0.039581 1.820178 -3.093806
v -0.439920 2.290043 -3.093806
v 0.060504 2.290043 -3.093806
v 0.060504 1.820178 -3.091259
v 0.540006 2.290043 -3.091259
v 0.540006 1.820178 -3.093806
v 1.040430 1.820178 -3.093806
v 0.560929 1.820178 -3.091259
v 1.040430 2.290043 -3.091259
v 0.560929 2.290043 -3.093806
v -3.178393 1.899151 -2.955323
v -3.390972 1.903109 -3.113889
v -3.130475 1.894872 -3.160218
v -3.124754 2.231103 -3.155499
v -3.281080 2.228355 -3.221153
v -3.388139 2.227145 -3.124463
v -3.354318 2.227220 -2.983205
v -3.291054 1.903034 -3.219314
v -3.346600 1.901899 -2.976626
v -3.185705 2.235382 -2.954098
v 3.327131 1.899151 -2.955323
v 3.114551 1.903109 -3.113889
v 3.214470 1.903034 -3.219314
v 3.375049 1.894872 -3.160218
v 3.380769 2.231103 -3.155499
v 3.224444 2.228355 -3.221153
v 3.151205 2.227220 -2.983205
v 3.319818 2.235382 -2.954098
v 3.117384 2.227145 -3.124463
v 3.158924 1.901899 -2.976626
v 2.687796 0.198994 3.031062
v 2.634125 0.200224 2.863990
v 2.947735 0.198083 2.983716
v 2.951132 0.190479 2.807822
v 2.767491 3.801049 2.733642
v 2.637472 3.799819 2.851497
v 2.678748 3.799845 3.023351
v 2.968932 3.801960 2.904610
v 2.883924 3.809565 3.058637
v 2.923151 3.806279 2.781540
v 2.755800 0.200198 2.735795
v 2.846551 0.193764 3.067408
v -0.680476 3.235779 1.278330
v -1.521393 3.235779 1.724128
v -0.680476 3.879313 1.724128
v -0.679386 3.235092 1.723057
v -1.522483 3.880000 1.723057
v -0.679386 3.880000 1.279401
v -1.521393 3.879313 1.278330
v -1.522484 3.235092 1.279401
v -1.107894 3.404793 1.249533
v -1.002590 3.803357 1.251024
v -0.769245 3.738348 1.250695
v -0.938425 3.341650 1.245057
v -1.172194 3.630293 1.251354
v -0.712266 3.510883 1.252515
v -0.827483 3.371400 1.256991
v -0.728072 3.408723 1.216226
v -0.733886 3.425322 1.229541
v -1.155325 3.414815 1.221000
v -1.155325 3.481923 1.221000
v -0.728072 3.475831 1.216226
v -0.733886 3.492431 1.229541
v -0.728072 3.553810 1.214913
v -0.733886 3.540483 1.231499
v -1.155325 3.549032 1.221000
v -1.155325 3.616141 1.221000
v -0.733886 3.624689 1.210500
v -0.728072 3.611364 1.227087
v -0.733886 3.693758 1.229541
v -1.155325 3.683249 1.221000
v -0.728072 3.677157 1.216226
v -0.728072 3.755136 1.214913
v -1.155325 3.750359 1.221000
v -0.733886 3.741810 1.231499
v -1.347303 3.751974 1.257540
v -1.435060 3.751974 1.254517
v -1.347303 3.393166 1.254517
v -1.435060 3.393166 1.257540
v -1.363056 3.230195 1.786854
v -1.448721 3.200165 1.797568
v -1.448721 3.193760 1.204890
v -1.353658 3.200162 1.204889
v -1.362180 3.162987 1.785261
v -0.848211 3.193759 1.204890
v -0.848211 3.200165 1.797567
v -0.753148 3.193760 1.797567
v -0.753149 3.200165 1.204890
v 0.520543 3.235779 1.278330
v 0.520543 3.879313 1.724128
v -0.320373 3.235779 1.724128
v -0.321464 3.235092 1.279401
v 0.521634 3.880000 1.279401
v -0.321464 3.880000 1.723057
v -0.320373 3.879313 1.278330
v 0.521634 3.235092 1.723057
v 0.488754 3.510884 1.252515
v 0.431775 3.738348 1.250695
v 0.198429 3.803357 1.251024
v 0.028826 3.630293 1.251354
v 0.262594 3.341650 1.245057
v 0.093126 3.404793 1.249533
v 0.373536 3.371400 1.256991
v 0.472948 3.408723 1.216226
v 0.045694 3.414815 1.221000
v 0.467133 3.425322 1.229541
v 0.472948 3.475831 1.216226
v 0.467133 3.492431 1.229541
v 0.045694 3.481923 1.221000
v 0.472948 3.553810 1.214913
v 0.045694 3.549032 1.221000
v 0.467133 3.540483 1.231499
v 0.045694 3.616141 1.221000
v 0.467133 3.624689 1.210500
v 0.472948 3.611364 1.227087
v 0.467133 3.693758 1.229541
v 0.472948 3.677157 1.216226
v 0.045694 3.683249 1.221000
v 0.045694 3.750359 1.221000
v 0.467133 3.741810 1.231499
v 0.472948 3.755136 1.214913
v -0.146283 3.393166 1.254517
v -0.234040 3.393166 1.257540
v -0.234040 3.751974 1.254517
v -0.146283 3.751974 1.257540
v -0.238304 3.230195 1.215604
v -0.152639 3.193760 1.797568
v -0.239180 3.162987 1.217197
v -0.247702 3.200163 1.797569
v -0.152639 3.200165 1.204890
v 0.352808 3.193762 1.204889
v 0.352808 3.200163 1.797569
v 0.447871 3.193760 1.797568
v 0.447871 3.200165 1.204890
v -3.445026 0.120595 3.127846
v -3.402154 0.116299 3.189612
v -3.443098 2.797695 3.123192
v -3.403307 2.802414 3.189210
v -3.370207 0.115875 3.109301
v -3.369107 2.801992 3.109832
v 3.360752 0.120595 3.127848
v 3.435572 0.115876 3.109301
v 3.436671 2.801991 3.109832
v 3.362680 2.797696 3.123193
v 3.402471 2.802414 3.189210
v 3.403624 0.116299 3.189612
v -0.396230 2.246875 3.073583
v -0.396680 0.450328 3.074076
v -0.396680 2.247605 3.191053
v -0.396230 0.451058 3.191546
v 0.396230 2.246875 3.191546
v 0.396680 2.247605 3.074076
v 0.396230 0.451058 3.073584
v 0.396680 0.450328 3.191054
v 0.972398 1.794874 3.215760
v 0.628365 1.795963 3.215039
v 0.628962 1.794874 3.049369
v 0.628365 1.302619 3.050091
v 0.972995 1.795963 3.050091
v 0.972398 1.303708 3.049370
v 0.972995 1.302619 3.215039
v 0.628961 1.303708 3.215761
vn -0.0000 -0.0000 -1.0000
vn 0.4370 -0.1049 -0.8933
vn 0.0001 -0.7068 0.7075
vn -0.0000 -0.7068 0.7074
vn 0.0002 -0.7067 0.7075
vn -0.9123 -0.4095 0.0079
vn -0.7083 -0.7059 -0.0044
vn -0.9982 -0.0406 0.0432
vn -0.6834 0.7286 0.0457
vn 0.7073 -0.0000 0.7069
vn 0.7074 0.7068 -0.0000
vn 0.7005 0.7000 -0.1388
vn -0.0000 -0.7068 -0.7074
vn -0.7005 -0.7000 -0.1388
vn 0.9130 -0.4078 -0.0096
vn 0.7084 -0.7058 0.0044
vn 0.5669 -0.5746 -0.5903
vn 0.7071 -0.0001 -0.7071
vn 0.7005 -0.7000 0.1388
vn -0.7871 -0.6168 -0.0099
vn -0.0000 -0.0000 -0.0000
vn -0.0000 -0.6379 -0.7701
vn 0.0001 1.0000 -0.0000
vn -0.0000 0.7392 -0.6735
vn -0.0000 1.0000 -0.0000
vn -0.0060 0.0158 0.9999
vn -0.0022 0.7068 -0.7074
vn 0.0065 0.3435 0.9391
vn 0.0072 0.0701 0.9975
vn 0.0040 0.7068 0.7074
vn 0.2691 -0.6308 0.7278
vn 0.2734 -0.6158 0.7390
vn 0.2723 -0.6117 0.7428
vn -0.0002 0.6357 -0.7719
vn -0.0003 0.6321 -0.7749
vn -0.0003 0.6317 -0.7752
vn 0.5869 0.0596 -0.8074
vn 0.9941 0.0004 -0.1087
vn 0.7073 0.7069 -0.0000
vn 0.0011 -0.0001 1.0000
vn -0.0000 -0.6379 0.7701
vn -0.5670 0.5748 -0.5900
vn -0.0001 0.9999 -0.0108
vn 0.5676 0.5681 -0.5958
vn -0.0022 -0.7068 0.7074
vn -0.0002 0.7954 0.6060
vn -0.0001 0.7962 0.6051
vn -0.0001 0.8027 0.5963
vn -0.0002 0.7772 0.6292
vn -0.0002 0.7546 0.6562
vn -0.0002 0.7399 0.6727
vn 0.0002 -0.7857 -0.6186
vn 0.0002 -0.7853 -0.6192
vn 0.0002 -0.7911 -0.6117
vn -0.9971 -0.0756 0.0009
vn -0.7997 0.6004 -0.0017
vn -0.4735 0.8808 -0.0030
vn -0.9999 0.0121 -0.0007
vn -0.9000 0.4359 -0.0000
vn -0.7079 0.7063 -0.0000
vn -0.7404 0.6712 0.0368
vn -0.7871 0.6168 0.0099
vn -0.0009 -0.2000 -0.9798
vn 0.0006 -0.3005 -0.9538
vn -0.7680 -0.6404 -0.0000
vn -0.0521 -0.9986 -0.0000
vn -0.0001 -0.6984 0.7157
vn -0.0001 -0.9999 0.0108
vn 0.1881 -0.6814 0.7073
vn -0.0011 -0.7068 -0.7074
vn 0.0521 -0.9986 -0.0000
vn 0.7680 -0.6404 -0.0000
vn 0.0001 -0.9999 -0.0108
vn -0.1877 -0.6806 -0.7082
vn -0.6669 -0.0000 0.7452
vn -0.6371 0.0097 0.7707
vn -0.5761 0.0019 0.8174
vn -0.0214 0.0029 0.9998
vn -0.5745 0.5762 -0.5813
vn 0.5745 -0.5762 -0.5813
vn -0.5802 -0.5784 -0.5734
vn 0.5802 -0.5784 0.5734
vn 0.5802 0.5784 -0.5734
vn -0.5745 -0.5762 0.5813
vn 0.5745 0.5762 0.5813
vn -0.5802 0.5784 0.5734
vn -0.5776 -0.5775 -0.5770
vn 0.5771 -0.5774 -0.5776
vn 0.5776 -0.5775 0.5770
vn -0.5771 0.5774 -0.5776
vn 0.5776 0.5775 -0.5770
vn -0.5776 0.5775 0.5770
vn -0.5771 -0.5774 0.5776
vn 0.5771 0.5774 0.5776
vn -0.0013 0.6809 0.7324
vn -0.0000 0.7005 -0.7137
vn -0.0040 0.6818 -0.7316
vn 0.0001 0.7208 0.6931
vn -0.9971 -0.0757 0.0014
vn -1.0000 -0.0000 -0.0000
vn 0.0003 0.0019 1.0000
vn 0.8517 0.5240 -0.0003
vn 0.9991 0.0423 0.0012
vn 0.9992 0.0409 0.0007
vn -0.0000 0.0211 0.9998
vn 0.0506 -0.9987 -0.0013
vn -1.0000 0.0015 -0.0000
vn -0.0000 -1.0000 -0.0000
vn -0.3593 0.9332 -0.0013
vn -0.0099 0.0042 0.9999
vn -0.0199 0.0084 0.9998
vn -0.0048 0.0020 1.0000
vn -0.0000 -0.0000 1.0000
vn 0.0213 0.0005 0.9998
vn 0.6404 0.0302 -0.7674
vn -0.0005 0.0097 1.0000
vn 0.6883 0.7255 -0.0000
vn 0.7261 0.6876 0.0005
vn 1.0000 0.0074 -0.0001
vn 0.0368 0.9993 0.0009
vn -0.9998 -0.0220 0.0013
vn -0.9998 -0.0219 0.0013
vn -0.9998 -0.0215 0.0013
vn -0.0000 1.0000 0.0019
vn 0.0014 1.0000 -0.0000
vn -0.0125 0.9999 -0.0000
vn -0.0262 0.9997 0.0022
vn -0.0262 0.9997 -0.0002
vn -0.0123 0.9999 -0.0000
vn -1.0000 0.0073 -0.0004
vn 0.9998 0.0026 0.0173
vn 0.5728 0.5668 0.5921
vn 0.9999 -0.0000 0.0113
vn -0.0002 0.0156 0.9999
vn 0.5021 0.8648 0.0114
vn 1.0000 -0.0000 -0.0000
vn 0.9998 -0.0220 -0.0000
vn -0.6977 -0.0183 0.7161
vn 0.0002 0.0048 -1.0000
vn 0.0001 0.0048 -1.0000
vn -0.9999 -0.0000 -0.0113
vn -0.8723 0.4889 -0.0077
vn -0.5790 -0.5781 -0.5750
vn 0.5757 -0.5766 -0.5797
vn 0.5790 -0.5781 0.5750
vn -0.5757 0.5766 -0.5797
vn 0.5790 0.5781 -0.5750
vn -0.5790 0.5781 0.5750
vn -0.5757 -0.5766 0.5797
vn 0.5757 0.5766 0.5797
vn -0.6562 0.7546 0.0012
vn 0.6562 0.7546 -0.0011
vn 0.6562 -0.7546 0.0012
vn -0.6562 -0.7546 -0.0012
vn -0.0388 0.8383 0.5439
vn 0.0388 0.8383 -0.5439
vn -0.0388 -0.8383 -0.5439
vn 0.0389 -0.8383 0.5439
vn 0.0388 0.8390 -0.5427
vn 0.0388 -0.8390 0.5427
vn -0.0389 -0.8375 -0.5451
vn -0.0389 0.8375 0.5451
vn -0.0388 0.8386 0.5433
vn 0.0389 0.8379 -0.5445
vn -0.0388 -0.8386 -0.5433
vn 0.0389 -0.8379 0.5445
vn -0.6986 0.0053 -0.7155
vn 0.6986 -0.0053 -0.7155
vn -0.7126 -0.0002 -0.7016
vn 0.7126 0.0002 -0.7016
vn -0.7126 0.0002 0.7016
vn -0.0001 1.0000 -0.0005
vn 0.0001 1.0000 0.0005
vn -0.0001 1.0000 -0.0007
vn -0.0001 -1.0000 0.0005
vn 0.0001 -1.0000 -0.0007
vn 0.0001 -1.0000 -0.0005
vn 0.7126 -0.0002 0.7016
vn 0.0001 1.0000 0.0007
vn 0.6986 0.0053 0.7155
vn -0.6986 -0.0053 0.7155
vn -0.0001 -1.0000 0.0007
vn -0.6562 0.7546 0.0011
vn 0.6562 -0.7546 0.0011
vn -0.6561 -0.7547 -0.0012
vn 0.6561 0.7546 -0.0012
vn 0.0387 -0.8390 0.5427
vn 0.0389 0.8383 -0.5439
vn 0.0388 -0.8383 0.5439
vn -0.0389 -0.8383 -0.5439
vn -0.6562 -0.7546 -0.0011
vn 0.6562 0.7546 -0.0012
vn -0.0389 0.8379 0.5445
vn 0.0388 0.8386 -0.5433
vn -0.0389 -0.8379 -0.5445
vn 0.0388 -0.8386 0.5433
vn -0.0389 0.8371 0.5457
vn 0.0387 0.8394 -0.5421
vn -0.0390 -0.8371 -0.5457
vn 0.0387 -0.8394 0.5421
vn -0.7196 0.0273 -0.6939
vn 0.0035 0.0280 -0.9996
vn -0.7033 0.0248 -0.7105
vn -0.0033 -0.0700 -0.9975
vn -0.7033 -0.0248 0.7105
vn -0.0026 0.9999 -0.0135
vn 0.0044 0.9997 0.0230
vn 0.0035 -0.0280 0.9996
vn -0.7196 -0.0273 0.6939
vn 0.0007 0.9997 -0.0241
vn 0.0072 0.9999 0.0095
vn 0.0077 -0.0814 0.9967
vn -0.0033 0.0700 0.9975
vn -0.0026 -0.9999 0.0135
vn 0.0044 -0.9997 -0.0230
vn 0.0007 -0.9997 0.0241
vn 0.7270 0.0019 0.6867
vn 0.0025 0.0087 1.0000
vn 0.7043 0.0038 0.7099
vn 0.0389 0.8375 -0.5451
vn -0.0388 0.8390 0.5427
vn 0.0389 -0.8375 0.5451
vn -0.0388 -0.8390 -0.5427
vn -0.0387 0.8390 0.5427
vn 0.0389 0.8375 -0.5450
vn 0.0389 -0.8375 0.5450
vn 0.0072 -0.9999 -0.0095
vn 0.7043 -0.0038 -0.7099
vn 0.7270 -0.0019 -0.6867
vn 0.0025 -0.0087 -1.0000
vn -0.5787 0.5784 0.5750
vn -0.5761 0.5763 -0.5797
vn -0.5787 -0.5784 -0.5750
vn 0.5761 -0.5763 -0.5797
vn 0.5787 0.5784 -0.5750
vn 0.5787 -0.5784 0.5750
vn -0.5761 -0.5763 0.5797
vn 0.5761 0.5763 0.5797
vn -0.6419 0.7667 0.0097
vn 0.6419 -0.7667 0.0097
vn -0.6419 -0.7667 -0.0097
vn 0.6419 0.7667 -0.0097
vn -0.0423 0.8395 0.5417
vn 0.0423 0.8397 -0.5413
vn -0.0423 -0.8395 -0.5417
vn 0.0423 -0.8397 0.5413
vn -0.0367 0.8174 0.5749
vn 0.0367 0.8174 -0.5749
vn -0.0367 -0.8174 -0.5749
vn 0.0367 -0.8174 0.5749
vn -0.0001 -0.0009 -1.0000
vn 0.0001 0.0009 -1.0000
vn -0.0001 -0.0011 -1.0000
vn -0.7090 -0.7052 0.0022
vn 0.7037 -0.7104 -0.0043
vn 0.7090 -0.7052 -0.0022
vn 0.0001 0.0011 -1.0000
vn 0.7090 0.7052 0.0022
vn -0.7090 0.7052 -0.0022
vn -0.7037 0.7104 -0.0043
vn 0.7037 0.7104 0.0043
vn 0.0001 -0.0009 1.0000
vn -0.0001 0.0011 1.0000
vn -0.0001 0.0009 1.0000
vn 0.0001 -0.0011 1.0000
vn -0.7037 -0.7104 0.0043
vn -0.5829 -0.5788 -0.5703
vn 0.5707 -0.5759 -0.5853
vn 0.5829 -0.5788 0.5703
vn -0.5707 0.5759 -0.5853
vn 0.5829 0.5788 -0.5703
vn 0.5707 0.5759 0.5853
vn -0.5707 -0.5759 0.5853
vn -0.5829 0.5788 0.5703
vn -0.7090 0.7051 -0.0123
vn 0.7090 0.7051 0.0123
vn 0.7090 -0.7051 -0.0123
vn -0.7090 -0.7051 0.0123
vn 0.4551 -0.5891 0.6677
vn -0.5101 -0.6040 0.6124
vn -0.7741 -0.6077 -0.1771
vn 0.7280 0.5891 -0.3507
vn 0.4099 0.6127 0.6757
vn 0.6928 -0.6127 -0.3802
vn -0.1912 -0.5980 -0.7783
vn -0.7590 0.6077 -0.2337
vn -0.1356 0.6040 -0.7854
vn -0.5548 0.5980 0.5784
vn -0.5384 -0.6098 0.5816
vn -0.1535 0.0016 0.9882
vn -0.5526 0.5977 0.5809
vn 0.1735 -0.6494 0.7404
vn 0.7022 -0.6247 0.3416
vn -0.7749 -0.6065 -0.1781
vn -0.1881 -0.5977 -0.7793
vn -0.7602 0.6065 -0.2332
vn 0.7789 0.6247 0.0553
vn 0.5300 0.8095 0.2525
vn 0.5853 -0.8095 0.0463
vn 0.3612 -0.0016 -0.9325
vn -0.1755 0.6098 -0.7729
vn 0.5204 0.6494 -0.5545
vn -0.5762 0.5769 -0.5789
vn 0.5762 -0.5769 -0.5789
vn -0.5783 -0.5780 -0.5757
vn 0.5783 0.5780 -0.5757
vn 0.5783 -0.5780 0.5757
vn -0.5762 -0.5769 0.5789
vn 0.5762 0.5769 0.5789
vn -0.5783 0.5780 0.5757
vn 0.6035 -0.7888 0.1165
vn 0.6421 0.7666 -0.0054
vn -0.2589 0.9659 -0.0000
vn -0.9394 0.3428 0.0054
vn 0.9990 -0.0437 0.0047
vn -0.8434 -0.5372 -0.0047
vn -0.1280 -0.9849 -0.1164
vn -0.5929 0.8051 -0.0187
vn 0.5929 0.8051 0.0187
vn 0.5929 -0.8051 -0.0187
vn -0.5929 -0.8051 0.0187
vn 0.4859 0.7013 0.5216
vn -0.8057 0.0420 0.5908
vn 0.4821 -0.7050 0.5201
vn 0.5249 0.0551 -0.8494
vn -0.5715 -0.0181 -0.8204
vn -0.5735 0.0386 0.8183
vn 0.5735 0.0386 -0.8183
vn -0.5735 -0.0386 -0.8183
vn 0.5735 -0.0386 0.8183
vn 0.6422 0.7666 -0.0054
vn -0.9394 0.3429 0.0054
vn -0.5250 0.0551 0.8493
vn -0.4859 0.7013 -0.5216
vn -0.4821 -0.7050 -0.5201
vn 0.8057 0.0420 -0.5908
vn 0.5715 -0.0181 0.8204
vn -0.7950 -0.5278 -0.2989
vn 0.0880 -0.5666 0.8192
vn 0.0509 0.5696 0.8204
vn -0.7735 0.5278 -0.3508
vn 0.6161 -0.5696 -0.5441
vn 0.6415 0.5667 -0.5170
vn 0.6416 0.5666 -0.5170
vn -0.5785 0.5790 0.5745
vn -0.5765 0.5754 -0.5802
vn -0.5785 -0.5790 -0.5745
vn 0.5765 -0.5754 -0.5802
vn 0.5785 0.5790 -0.5745
vn 0.5785 -0.5790 0.5745
vn -0.5765 -0.5754 0.5802
vn 0.5765 0.5754 0.5802
vn 0.5767 0.5747 0.5807
vn -0.5767 -0.5747 0.5807
vn 0.5787 -0.5793 0.5741
vn -0.5787 0.5793 0.5741
vn 0.5787 0.5793 -0.5741
vn -0.5767 0.5747 -0.5807
vn -0.5787 -0.5793 -0.5741
vn 0.5767 -0.5747 -0.5807
vn 0.0503 0.1306 0.9902
vn 0.2626 -0.6820 0.6825
vn -0.7074 -0.7068 -0.0001
vn -0.7074 -0.7068 -0.0000
vn -0.8865 -0.4618 -0.0290
vn -0.6410 -0.0000 0.7676
vn 0.7072 0.7071 -0.0004
vn 0.7071 0.7066 0.0267
vn -0.7071 -0.7066 0.0267
vn 0.7074 -0.7068 0.0001
vn 0.7073 -0.7069 -0.0000
vn -0.7095 0.7047 0.0043
vn 0.7071 -0.7066 -0.0267
vn 0.0634 -0.9979 0.0126
vn -0.0000 0.7068 0.7074
vn -0.0264 0.9996 0.0052
vn 0.0005 0.7068 -0.7074
vn -0.0011 0.7068 0.7074
vn -0.0000 0.0223 -0.9998
vn 0.5744 0.8186 -0.0000
vn 0.0090 0.0234 -0.9997
vn 0.7679 0.6405 -0.0002
vn 0.0008 -0.7064 0.7078
vn 0.0333 0.9908 0.1315
vn -0.0634 -0.9979 -0.0126
vn -0.0000 0.9999 -0.0144
vn 0.0005 -0.7068 0.7074
vn -0.0000 0.0048 -1.0000
vn 0.0369 0.9978 0.0548
vn -0.7075 -0.7068 -0.0002
vn -0.0000 -0.9999 0.0151
vn -0.0060 -0.0157 -0.9999
vn 0.0074 -0.0701 -0.9975
vn 0.0040 -0.7068 -0.7074
vn 0.0065 -0.3434 -0.9392
vn 0.0203 0.0095 0.9997
vn 0.7075 -0.7068 0.0002
vn -0.0000 -0.9999 -0.0151
vn 0.7071 -0.0000 0.7071
vn -0.0086 0.0224 0.9997
vn -0.0445 -0.1153 -0.9923
vn 0.3219 0.8359 0.4445
vn -0.6343 -0.7731 -0.0010
vn 1.0000 0.0096 -0.0000
vn 0.7071 -0.0000 -0.7071
vn 0.9139 -0.4058 -0.0000
vn -0.8813 -0.0000 0.4725
vn -0.9998 -0.0215 -0.0000
vn -0.6422 -0.0304 0.7659
vn -0.4135 -0.0089 -0.9105
vn 0.9999 0.0001 -0.0113
vn 0.4137 -0.0091 0.9104
vn -0.0106 0.0002 -0.9999
vn -0.0107 -0.0003 -0.9999
vn -0.0108 -0.0034 -0.9999
vn -0.0110 -0.0110 -0.9999
vn 0.9998 -0.0220 -0.0013
vn 0.0011 -0.0214 0.9998
vn 0.0077 0.0814 -0.9967
vt 0.197702 0.755169
vt 0.197702 0.581056
vt 0.213643 0.581066
vt 0.213643 0.755179
vt 0.494681 0.306466
vt 0.494681 0.306906
vt 0.494395 0.306969
vt 0.817405 0.290235
vt 0.817693 0.290236
vt 0.817694 0.290522
vt 0.251008 0.799051
vt 0.251295 0.798923
vt 0.251138 0.804639
vt 0.993944 0.372710
vt 0.994230 0.372692
vt 0.993942 0.372978
vt 0.483744 0.903488
vt 0.483715 0.903488
vt 0.483740 0.903200
vt 0.010482 0.301259
vt 0.010482 0.300974
vt 0.010768 0.301259
vt 0.222916 0.300974
vt 0.222916 0.301316
vt 0.222630 0.301259
vt 0.494681 0.565397
vt 0.494395 0.565397
vt 0.494681 0.565110
vt 0.250952 0.586492
vt 0.251295 0.586490
vt 0.251295 0.586777
vt 0.494808 0.571328
vt 0.494682 0.571043
vt 0.500424 0.571151
vt 0.222630 0.571328
vt 0.222916 0.571614
vt 0.223202 0.571900
vt 0.282247 0.571329
vt 0.282247 0.570986
vt 0.282533 0.571043
vt 0.820201 0.845702
vt 0.828426 0.845634
vt 0.828704 0.845964
vt 0.156722 0.978490
vt 0.156861 0.993489
vt 0.156369 0.993489
vt 0.494395 0.300974
vt 0.010482 0.571614
vt 0.010768 0.571328
vt 0.222916 0.565841
vt 0.222630 0.565968
vt 0.010768 0.571957
vt 0.382682 0.894592
vt 0.382882 0.938749
vt 0.382651 0.938885
vt 0.940501 0.856878
vt 0.940764 0.900625
vt 0.940477 0.900664
vt 0.237947 0.858291
vt 0.238356 0.813954
vt 0.238352 0.858290
vt 0.985345 0.945085
vt 0.985250 0.929784
vt 0.985671 0.929983
vt 0.985335 0.969756
vt 0.984947 0.954654
vt 0.985531 0.954503
vt 0.985750 0.226856
vt 0.985352 0.211754
vt 0.985922 0.211604
vt 0.894055 0.463807
vt 0.890021 0.464120
vt 0.890178 0.463843
vt 0.860323 0.573570
vt 0.847407 0.573341
vt 0.860121 0.573300
vt 0.133935 0.794464
vt 0.134218 0.586927
vt 0.134218 0.794124
vt 0.817669 0.549011
vt 0.817401 0.549297
vt 0.282247 0.565550
vt 0.282533 0.565397
vt 0.228632 0.571485
vt 0.228602 0.301120
vt 0.379972 0.850314
vt 0.380203 0.894592
vt 0.379915 0.894590
vt 0.984876 0.363124
vt 0.984750 0.348021
vt 0.985415 0.348022
vt 0.380417 0.978780
vt 0.380556 0.993779
vt 0.380064 0.993779
vt 0.985848 0.422166
vt 0.985413 0.407167
vt 0.986077 0.407168
vt 0.986050 0.202082
vt 0.985615 0.187083
vt 0.986279 0.187084
vt 0.906114 0.978342
vt 0.906252 0.993341
vt 0.905761 0.993341
vt 0.298911 0.977499
vt 0.299049 0.992498
vt 0.298558 0.992498
vt 0.721620 0.831922
vt 0.509743 0.832078
vt 0.509713 0.831766
vt 0.222809 0.306702
vt 0.010768 0.306905
vt 0.010643 0.306675
vt 0.004703 0.571614
vt 0.004761 0.571328
vt 0.246841 0.902626
vt 0.238493 0.902779
vt 0.238216 0.902449
vt 0.251295 0.798636
vt 0.494395 0.571043
vt 0.494681 0.565555
vt 0.276602 0.300975
vt 0.276666 0.571043
vt 0.943445 0.944388
vt 0.943242 0.900599
vt 0.943645 0.900654
vt 0.985549 0.397599
vt 0.985151 0.382497
vt 0.985720 0.382347
vt 0.986662 0.836630
vt 0.986567 0.821329
vt 0.986988 0.821528
vt 0.988012 0.646439
vt 0.987624 0.631337
vt 0.988208 0.631187
vt 0.282533 0.300975
vt 0.282247 0.306461
vt 0.282247 0.300975
vt 0.120872 0.586951
vt 0.121218 0.794487
vt 0.120872 0.794148
vt 0.494682 0.301031
vt 0.500442 0.300974
vt 0.762216 0.556919
vt 0.761932 0.561072
vt 0.761932 0.556897
vt 0.830465 0.290220
vt 0.817752 0.290082
vt 0.830467 0.290063
vt 0.818422 0.275188
vt 0.805577 0.275010
vt 0.818482 0.274902
vt 0.260594 0.864944
vt 0.265485 0.580748
vt 0.265397 0.864964
vt 0.539272 0.004652
vt 0.539274 0.291734
vt 0.276610 0.291773
vt 0.260584 0.580730
vt 0.854647 0.004754
vt 0.849741 0.261762
vt 0.849941 0.004751
vt 0.276608 0.004691
vt 0.740762 0.277066
vt 0.740772 0.564020
vt 0.735970 0.564006
vt 0.735959 0.277052
vt 0.224230 0.843707
vt 0.228848 0.581056
vt 0.228848 0.843707
vt 0.224230 0.581056
vt 0.004757 0.291698
vt 0.004829 0.004690
vt 0.267493 0.004651
vt 0.854359 0.261759
vt 0.267496 0.291734
vt 0.724534 0.301154
vt 0.724599 0.563953
vt 0.509921 0.564020
vt 0.276610 0.840651
vt 0.276601 0.580428
vt 0.383827 0.580496
vt 0.383815 0.840793
vt 0.111763 0.581243
vt 0.004550 0.791261
vt 0.004560 0.581338
vt 0.500094 0.580429
vt 0.500094 0.794771
vt 0.392927 0.794770
vt 0.509857 0.301221
vt 0.392927 0.580428
vt 0.548588 0.267596
vt 0.548524 0.004796
vt 0.763202 0.004730
vt 0.837949 0.573555
vt 0.837947 0.836337
vt 0.730743 0.836276
vt 0.763266 0.267529
vt 0.111713 0.791089
vt 0.730745 0.573492
vt 0.721635 0.573611
vt 0.509728 0.573455
vt 0.915537 0.675947
vt 0.915823 0.464088
vt 0.919699 0.463807
vt 0.919699 0.675953
vt 0.821649 0.290442
vt 0.821947 0.548711
vt 0.919699 0.685385
vt 0.919699 0.892582
vt 0.915823 0.892869
vt 0.494681 0.306620
vt 0.282533 0.306620
vt 0.282247 0.306334
vt 0.847329 0.781130
vt 0.847347 0.780850
vt 0.847349 0.573373
vt 0.766916 0.966153
vt 0.772636 0.966151
vt 0.772636 0.978866
vt 0.915883 0.892901
vt 0.915537 0.685392
vt 0.891067 0.719987
vt 0.894055 0.464090
vt 0.830747 0.284576
vt 0.817744 0.284304
vt 0.830461 0.284290
vt 0.840642 0.004836
vt 0.840642 0.216696
vt 0.827582 0.216695
vt 0.170578 0.958012
vt 0.176443 0.957728
vt 0.176155 0.971046
vt 0.237947 0.798639
vt 0.237948 0.798924
vt 0.785856 0.284638
vt 0.785856 0.552163
vt 0.772538 0.552438
vt 0.170668 0.970759
vt 0.238293 0.804702
vt 0.860407 0.780809
vt 0.874862 0.539561
vt 0.880367 0.539427
vt 0.880591 0.751416
vt 0.237947 0.586207
vt 0.772509 0.284573
vt 0.785513 0.284298
vt 0.010195 0.301259
vt 0.874575 0.751996
vt 0.827582 0.004836
vt 0.840356 0.004550
vt 0.133935 0.800110
vt 0.121091 0.800005
vt 0.004694 0.301100
vt 0.133878 0.586707
vt 0.120872 0.586671
vt 0.763410 0.277218
vt 0.750061 0.547170
vt 0.750063 0.277161
vt 0.763410 0.547228
vt 0.763122 0.547513
vt 0.185702 0.958186
vt 0.191458 0.971071
vt 0.186017 0.970907
vt 0.808015 0.284384
vt 0.808154 0.552381
vt 0.795426 0.552358
vt 0.795287 0.284359
vt 0.134003 0.581145
vt 0.121161 0.586606
vt 0.121161 0.581084
vt 0.238234 0.586492
vt 0.251078 0.580827
vt 0.238234 0.580719
vt 0.818481 0.004638
vt 0.805632 0.004695
vt 0.960787 0.679474
vt 0.960814 0.720142
vt 0.955463 0.720175
vt 0.864112 0.004642
vt 0.904286 0.004580
vt 0.904297 0.070844
vt 0.864123 0.070905
vt 0.052336 0.875925
vt 0.057599 0.941870
vt 0.052309 0.942071
vt 0.887282 0.376935
vt 0.892620 0.443088
vt 0.887259 0.443083
vt 0.892644 0.376940
vt 0.795515 0.956826
vt 0.795488 0.916157
vt 0.800838 0.916124
vt 0.800865 0.956793
vt 0.840142 0.463875
vt 0.880689 0.463837
vt 0.880704 0.530100
vt 0.955436 0.679507
vt 0.840157 0.530138
vt 0.057575 0.875939
vt 0.731000 0.845756
vt 0.766133 0.845771
vt 0.766090 0.906672
vt 0.730960 0.906658
vt 0.643747 0.841304
vt 0.679205 0.841321
vt 0.679200 0.902222
vt 0.643742 0.902205
vt 0.868974 0.905957
vt 0.870499 0.905907
vt 0.870503 0.969345
vt 0.933739 0.113197
vt 0.935252 0.176584
vt 0.933718 0.176583
vt 0.935239 0.113148
vt 0.869057 0.969396
vt 0.962552 0.748564
vt 0.964065 0.811952
vt 0.962531 0.811950
vt 0.968579 0.463996
vt 0.970108 0.527384
vt 0.968662 0.527435
vt 0.970104 0.463946
vt 0.964051 0.748516
vt 0.969377 0.080572
vt 0.970903 0.080521
vt 0.970906 0.143960
vt 0.156820 0.884911
vt 0.158333 0.948299
vt 0.156799 0.948298
vt 0.158319 0.884863
vt 0.969461 0.144011
vt 0.962982 0.973180
vt 0.965896 0.929746
vt 0.965899 0.973179
vt 0.962979 0.929745
vt 0.986955 0.909710
vt 0.986943 0.918405
vt 0.984450 0.918372
vt 0.827677 0.270354
vt 0.836243 0.226296
vt 0.836273 0.270321
vt 0.013211 0.887533
vt 0.013241 0.931558
vt 0.004646 0.931591
vt 0.055140 0.982052
vt 0.052338 0.990310
vt 0.052279 0.982026
vt 0.827648 0.226330
vt 0.963922 0.551007
vt 0.963949 0.594925
vt 0.961032 0.594926
vt 0.055068 0.990310
vt 0.961060 0.550976
vt 0.004616 0.887566
vt 0.984461 0.909678
vt 0.688425 0.957952
vt 0.693749 0.917251
vt 0.693776 0.957919
vt 0.847139 0.790321
vt 0.887314 0.790260
vt 0.887325 0.856523
vt 0.915703 0.373672
vt 0.921064 0.373677
vt 0.921041 0.439825
vt 0.847151 0.856585
vt 0.412860 0.920172
vt 0.412887 0.960841
vt 0.407536 0.960874
vt 0.066874 0.875925
vt 0.072138 0.941870
vt 0.066848 0.942071
vt 0.393222 0.803939
vt 0.433784 0.870164
vt 0.393237 0.870202
vt 0.433769 0.803901
vt 0.072114 0.875939
vt 0.688398 0.917284
vt 0.915679 0.439820
vt 0.407509 0.920205
vt 0.276867 0.850230
vt 0.311958 0.911146
vt 0.276827 0.911132
vt 0.312001 0.850245
vt 0.599087 0.841304
vt 0.634545 0.841321
vt 0.634539 0.902222
vt 0.599081 0.902205
vt 0.509926 0.911640
vt 0.511452 0.911589
vt 0.511455 0.975028
vt 0.510010 0.975079
vt 0.953154 0.382400
vt 0.954667 0.445788
vt 0.953133 0.445786
vt 0.954653 0.382351
vt 0.953356 0.186986
vt 0.954869 0.250374
vt 0.953334 0.250373
vt 0.954855 0.186938
vt 0.969474 0.004739
vt 0.971004 0.068127
vt 0.969558 0.068178
vt 0.971000 0.004689
vt 0.955627 0.606569
vt 0.957140 0.669957
vt 0.955606 0.669956
vt 0.847272 0.905957
vt 0.848801 0.969345
vt 0.847356 0.969396
vt 0.957126 0.606521
vt 0.848798 0.905907
vt 0.969983 0.722730
vt 0.972897 0.679296
vt 0.972900 0.722729
vt 0.969980 0.679296
vt 0.368356 0.981502
vt 0.368345 0.990196
vt 0.365851 0.990164
vt 0.120968 0.928996
vt 0.129533 0.884938
vt 0.129563 0.928963
vt 0.120938 0.884971
vt 0.965868 0.982809
vt 0.965796 0.991068
vt 0.963065 0.991068
vt 0.963006 0.982783
vt 0.147390 0.884939
vt 0.147420 0.928964
vt 0.138825 0.928997
vt 0.138795 0.884972
vt 0.365863 0.981469
vt 0.352537 0.920618
vt 0.352564 0.964536
vt 0.349647 0.964538
vt 0.349675 0.920587
vt 0.786273 0.916125
vt 0.786300 0.956793
vt 0.780950 0.956827
vt 0.864112 0.080127
vt 0.904286 0.080065
vt 0.904297 0.146329
vt 0.864123 0.146390
vt 0.081413 0.875925
vt 0.086675 0.941870
vt 0.081385 0.942071
vt 0.702990 0.957952
vt 0.708314 0.917251
vt 0.708340 0.957919
vt 0.260506 0.874354
vt 0.265868 0.874359
vt 0.265844 0.940507
vt 0.443267 0.803939
vt 0.483829 0.870164
vt 0.443282 0.870202
vt 0.483814 0.803901
vt 0.086652 0.875939
vt 0.702963 0.917284
vt 0.260483 0.940502
vt 0.780923 0.916158
vt 0.321436 0.850230
vt 0.356526 0.911146
vt 0.321396 0.911132
vt 0.356569 0.850245
vt 0.509766 0.841304
vt 0.545224 0.841321
vt 0.545219 0.902222
vt 0.509761 0.902205
vt 0.973405 0.748565
vt 0.974930 0.748514
vt 0.974934 0.811953
vt 0.973488 0.812004
vt 0.963342 0.295448
vt 0.964855 0.358835
vt 0.963321 0.358834
vt 0.964841 0.295399
vt 0.858123 0.905957
vt 0.859649 0.905907
vt 0.859652 0.969346
vt 0.957726 0.463996
vt 0.959239 0.527383
vt 0.957705 0.527382
vt 0.858206 0.969396
vt 0.959225 0.463947
vt 0.964006 0.382400
vt 0.965532 0.382350
vt 0.965535 0.445788
vt 0.958525 0.080571
vt 0.960038 0.143959
vt 0.958504 0.143958
vt 0.960024 0.080523
vt 0.964090 0.445839
vt 0.940765 0.944421
vt 0.943159 0.944422
vt 0.066907 0.981676
vt 0.066962 0.990249
vt 0.064410 0.990355
vt 0.246761 0.858290
vt 0.958558 0.738045
vt 0.955392 0.738205
vt 0.958558 0.729633
vt 0.955392 0.729793
vt 0.955671 0.729500
vt 0.383084 0.894591
vt 0.382597 0.938794
vt 0.380023 0.938766
vt 0.246884 0.814016
vt 0.984321 0.810067
vt 0.984042 0.801555
vt 0.986928 0.801423
vt 0.382699 0.850209
vt 0.064355 0.981781
vt 0.820125 0.890117
vt 0.828939 0.890123
vt 0.828534 0.890123
vt 0.819969 0.934391
vt 0.987207 0.809935
vt 0.052524 0.800428
vt 0.093086 0.866653
vt 0.052539 0.866691
vt 0.093071 0.800390
vt 0.393034 0.879435
vt 0.398273 0.879450
vt 0.398296 0.945380
vt 0.766385 0.956826
vt 0.766358 0.916157
vt 0.771709 0.916124
vt 0.880367 0.865819
vt 0.885705 0.931972
vt 0.880344 0.931967
vt 0.757144 0.916125
vt 0.751820 0.956826
vt 0.751793 0.916158
vt 0.771736 0.956793
vt 0.120953 0.809329
vt 0.161128 0.809267
vt 0.161139 0.875531
vt 0.393006 0.945582
vt 0.885729 0.865824
vt 0.120965 0.875593
vt 0.757171 0.956793
vt 0.775568 0.845756
vt 0.810659 0.906672
vt 0.775529 0.906658
vt 0.810702 0.845771
vt 0.554426 0.841304
vt 0.589879 0.902222
vt 0.554421 0.902205
vt 0.589884 0.841321
vt 0.963191 0.857019
vt 0.964690 0.856970
vt 0.964704 0.920406
vt 0.964208 0.186987
vt 0.965737 0.250375
vt 0.964292 0.250426
vt 0.963170 0.920405
vt 0.965734 0.186936
vt 0.966479 0.606570
vt 0.968005 0.606519
vt 0.968008 0.669958
vt 0.966563 0.670009
vt 0.958622 0.004739
vt 0.960135 0.068126
vt 0.958601 0.068125
vt 0.960121 0.004690
vt 0.915751 0.902189
vt 0.917276 0.902139
vt 0.917280 0.965578
vt 0.915834 0.965628
vt 0.493251 0.896576
vt 0.494750 0.896527
vt 0.494764 0.959963
vt 0.493230 0.959962
vt 0.828497 0.934459
vt 0.943264 0.983911
vt 0.943207 0.992167
vt 0.940477 0.992172
vt 0.940538 0.983993
vt 0.943157 0.856831
vt 0.493121 0.803977
vt 0.498127 0.803988
vt 0.498103 0.887181
vt 0.839942 0.284396
vt 0.883456 0.367625
vt 0.839957 0.367695
vt 0.930321 0.447980
vt 0.935289 0.403944
vt 0.935316 0.447947
vt 0.883442 0.284326
vt 0.951837 0.550988
vt 0.951864 0.594992
vt 0.946870 0.595024
vt 0.365834 0.850207
vt 0.370708 0.933417
vt 0.365808 0.933397
vt 0.946843 0.551021
vt 0.493096 0.887170
vt 0.170610 0.766563
vt 0.214528 0.849820
vt 0.170625 0.849861
vt 0.214514 0.766522
vt 0.930294 0.403976
vt 0.370727 0.850227
vt 0.839867 0.377107
vt 0.878031 0.454434
vt 0.839871 0.454483
vt 0.878021 0.377057
vt 0.004580 0.800611
vt 0.043091 0.800588
vt 0.043098 0.877963
vt 0.004587 0.877987
vt 0.892665 0.284481
vt 0.893935 0.284431
vt 0.893937 0.361954
vt 0.892668 0.362004
vt 0.947028 0.463998
vt 0.948357 0.463949
vt 0.948369 0.541469
vt 0.947010 0.541469
vt 0.796115 0.966375
vt 0.798435 0.966404
vt 0.798408 0.980758
vt 0.796087 0.980730
vt 0.688431 0.967500
vt 0.690673 0.981887
vt 0.688407 0.981854
vt 0.690703 0.967533
vt 0.978868 0.153677
vt 0.981110 0.168063
vt 0.978844 0.168031
vt 0.981140 0.153710
vt 0.807687 0.966375
vt 0.809979 0.980758
vt 0.807659 0.980730
vt 0.810007 0.966404
vt 0.170580 0.757123
vt 0.188532 0.581295
vt 0.188509 0.757161
vt 0.921140 0.186823
vt 0.921147 0.364157
vt 0.915603 0.364158
vt 0.170603 0.581259
vt 0.422091 0.946973
vt 0.427268 0.964908
vt 0.422074 0.964904
vt 0.448313 0.946603
vt 0.453804 0.946571
vt 0.453793 0.964503
vt 0.900888 0.921192
vt 0.906425 0.743857
vt 0.906431 0.921191
vt 0.900881 0.743858
vt 0.161340 0.581298
vt 0.161317 0.758795
vt 0.143388 0.758771
vt 0.427246 0.946926
vt 0.143411 0.581273
vt 0.448302 0.964535
vt 0.915596 0.186825
vt 0.796061 0.004615
vt 0.796117 0.275076
vt 0.772541 0.275174
vt 0.906357 0.186927
vt 0.903624 0.454707
vt 0.903241 0.186872
vt 0.906389 0.454707
vt 0.969647 0.153757
vt 0.966453 0.176776
vt 0.966535 0.153699
vt 0.906355 0.463910
vt 0.903520 0.734335
vt 0.903242 0.463875
vt 0.906437 0.734160
vt 0.969692 0.176770
vt 0.238207 0.571549
vt 0.238151 0.301088
vt 0.261786 0.301039
vt 0.965511 0.821502
vt 0.962317 0.845020
vt 0.962400 0.821447
vt 0.772539 0.004568
vt 0.261842 0.571500
vt 0.965556 0.845020
vt 0.276804 0.920571
vt 0.293985 0.920646
vt 0.293985 0.937504
vt 0.919617 0.155623
vt 0.902763 0.173213
vt 0.902764 0.155633
vt 0.919617 0.173203
vt 0.276729 0.937513
vt 0.448475 0.920144
vt 0.465657 0.937078
vt 0.448400 0.937086
vt 0.465657 0.920220
vt 0.439170 0.920049
vt 0.422316 0.937639
vt 0.422317 0.920059
vt 0.439170 0.937629
vt 0.303287 0.920570
vt 0.320469 0.937504
vt 0.303212 0.937513
vt 0.320469 0.920646
vt 0.886646 0.763438
vt 0.869792 0.781028
vt 0.869792 0.763448
vt 0.886646 0.781018
vt 0.630565 0.286366
vt 0.626955 0.282204
vt 0.629259 0.277733
vt 0.211037 0.969124
vt 0.206059 0.957352
vt 0.211037 0.957462
vt 0.205980 0.969274
vt 0.634308 0.277649
vt 0.636405 0.283061
vt 0.706225 0.288877
vt 0.702752 0.288820
vt 0.702753 0.277158
vt 0.710052 0.288956
vt 0.706554 0.277010
vt 0.710101 0.276935
vt 0.673140 0.278646
vt 0.674152 0.283998
vt 0.669954 0.286775
vt 0.785492 0.977814
vt 0.781735 0.966153
vt 0.785761 0.966153
vt 0.665539 0.284323
vt 0.781735 0.977815
vt 0.616524 0.288933
vt 0.610969 0.277012
vt 0.616742 0.277122
vt 0.666430 0.278588
vt 0.610926 0.288934
vt 0.598435 0.288933
vt 0.592837 0.288934
vt 0.592880 0.277012
vt 0.649548 0.286366
vt 0.648242 0.277733
vt 0.653291 0.277649
vt 0.722690 0.288877
vt 0.719217 0.288820
vt 0.719217 0.277158
vt 0.723019 0.277010
vt 0.655388 0.283061
vt 0.726516 0.288956
vt 0.726565 0.276935
vt 0.227467 0.969124
vt 0.222410 0.969274
vt 0.222489 0.957352
vt 0.692122 0.278646
vt 0.688937 0.286775
vt 0.684522 0.284323
vt 0.227467 0.957462
vt 0.685412 0.278588
vt 0.693135 0.283998
vt 0.159976 0.969390
vt 0.156220 0.969391
vt 0.156220 0.957729
vt 0.160246 0.957729
vt 0.645937 0.282204
vt 0.598653 0.277122
vt 0.922967 0.137839
vt 0.916213 0.004688
vt 0.923230 0.004799
vt 0.917405 0.137884
vt 0.556049 0.288863
vt 0.551452 0.288207
vt 0.548514 0.283331
vt 0.551323 0.277896
vt 0.557469 0.277788
vt 0.106526 0.933595
vt 0.102320 0.933538
vt 0.102273 0.800645
vt 0.937700 0.596991
vt 0.934794 0.464089
vt 0.937700 0.464101
vt 0.931546 0.597140
vt 0.913489 0.137746
vt 0.560036 0.284363
vt 0.111180 0.933673
vt 0.106872 0.800498
vt 0.111182 0.800420
vt 0.577181 0.277062
vt 0.580834 0.279929
vt 0.580907 0.285563
vt 0.933353 0.739275
vt 0.928799 0.606382
vt 0.933694 0.606381
vt 0.575790 0.288924
vt 0.570413 0.285944
vt 0.928799 0.739276
vt 0.930174 0.463943
vt 0.571477 0.278966
vt 0.847232 0.896406
vt 0.871042 0.865755
vt 0.870982 0.896447
vt 0.840020 0.539441
vt 0.856008 0.563063
vt 0.839996 0.563190
vt 0.449183 0.879551
vt 0.449187 0.910601
vt 0.432898 0.910627
vt 0.847148 0.865745
vt 0.432894 0.879578
vt 0.887955 0.231591
vt 0.864205 0.262631
vt 0.864206 0.231569
vt 0.887954 0.262653
vt 0.203707 0.899054
vt 0.219934 0.922498
vt 0.203707 0.922498
vt 0.143334 0.799406
vt 0.143330 0.768356
vt 0.159619 0.768330
vt 0.856005 0.539619
vt 0.159623 0.799380
vt 0.219934 0.899053
vt 0.214113 0.947931
vt 0.203751 0.940030
vt 0.207849 0.932756
vt 0.216195 0.932842
vt 0.207908 0.946974
vt 0.220029 0.940043
vt 0.217999 0.945798
vt 0.131234 0.954641
vt 0.125084 0.953676
vt 0.120929 0.946732
vt 0.124971 0.939466
vt 0.133245 0.939563
vt 0.137097 0.946761
vt 0.135243 0.952144
vt 0.892581 0.969065
vt 0.895558 0.969042
vt 0.895573 0.981922
vt 0.892595 0.981945
vt 0.880326 0.969064
vt 0.883331 0.969043
vt 0.883346 0.981923
vt 0.880340 0.981944
vt 0.965606 0.368230
vt 0.964488 0.370790
vt 0.963171 0.368193
vt 0.088873 0.951571
vt 0.090021 0.972065
vt 0.087511 0.972069
vt 0.276668 0.947161
vt 0.279463 0.947122
vt 0.279500 0.968135
vt 0.276705 0.968175
vt 0.263293 0.970950
vt 0.260499 0.970989
vt 0.260462 0.949976
vt 0.263256 0.949936
vt 0.379982 0.948442
vt 0.382814 0.969417
vt 0.380019 0.969456
vt 0.971181 0.280903
vt 0.968349 0.259929
vt 0.971144 0.259890
vt 0.968387 0.280942
vt 0.382777 0.948403
vt 0.423767 0.879551
vt 0.423770 0.910601
vt 0.407481 0.910627
vt 0.203881 0.889692
vt 0.227691 0.859041
vt 0.227630 0.889732
vt 0.203797 0.859031
vt 0.022579 0.887491
vt 0.038567 0.911112
vt 0.022556 0.911239
vt 0.194434 0.859237
vt 0.170684 0.890277
vt 0.170685 0.859215
vt 0.194433 0.890299
vt 0.038565 0.887668
vt 0.458315 0.910627
vt 0.458311 0.879577
vt 0.474600 0.879551
vt 0.170510 0.899613
vt 0.186737 0.923058
vt 0.170510 0.923058
vt 0.407477 0.879578
vt 0.186737 0.899613
vt 0.474604 0.910600
vt 0.032813 0.936847
vt 0.026608 0.935890
vt 0.022450 0.928946
vt 0.026548 0.921671
vt 0.034894 0.921757
vt 0.038729 0.928959
vt 0.036698 0.934714
vt 0.180871 0.948486
vt 0.170566 0.940577
vt 0.174608 0.933311
vt 0.182882 0.933408
vt 0.186734 0.940606
vt 0.174721 0.947521
vt 0.184881 0.945989
vt 0.493081 0.969499
vt 0.496074 0.982356
vt 0.493095 0.982379
vt 0.496059 0.969476
vt 0.699941 0.967522
vt 0.702962 0.980381
vt 0.699956 0.980401
vt 0.702947 0.967501
vt 0.077265 0.951525
vt 0.078412 0.972467
vt 0.075903 0.972467
vt 0.918090 0.449145
vt 0.916971 0.451710
vt 0.915654 0.449103
vt 0.300799 0.947161
vt 0.303631 0.968135
vt 0.300836 0.968175
vt 0.303594 0.947122
vt 0.291566 0.968136
vt 0.288734 0.947161
vt 0.291529 0.947122
vt 0.288771 0.968174
vt 0.312864 0.947161
vt 0.315696 0.968135
vt 0.312901 0.968175
vt 0.055127 0.972519
vt 0.052296 0.951545
vt 0.055090 0.951506
vt 0.052333 0.972558
vt 0.315659 0.947122
vt 0.945778 0.705501
vt 0.944261 0.705676
vt 0.944201 0.606669
vt 0.945613 0.606665
vt 0.751966 0.557317
vt 0.752468 0.559448
vt 0.750366 0.558887
vt 0.943820 0.394330
vt 0.942155 0.295448
vt 0.943820 0.295547
vt 0.942347 0.394491
vt 0.932227 0.394331
vt 0.930429 0.394330
vt 0.930563 0.295450
vt 0.932069 0.295345
vt 0.866002 0.272360
vt 0.866511 0.274487
vt 0.864284 0.273884
vt 0.943506 0.285918
vt 0.941929 0.187086
vt 0.943342 0.187082
vt 0.941989 0.286093
vt 0.942711 0.847446
vt 0.941046 0.748565
vt 0.942711 0.748664
vt 0.941238 0.847608
vt 0.819308 0.558817
vt 0.819810 0.560947
vt 0.817608 0.560345
vt 0.935480 0.103622
vt 0.933683 0.103622
vt 0.933816 0.004741
vt 0.935323 0.004636
vt 0.851713 0.271255
vt 0.852222 0.273382
vt 0.849994 0.272779
vt 0.944948 0.004668
vt 0.949208 0.004690
vt 0.949179 0.071164
vt 0.688461 0.841304
vt 0.717314 0.907798
vt 0.688485 0.907872
vt 0.365806 0.972052
vt 0.370015 0.942855
vt 0.370044 0.972016
vt 0.717289 0.841231
vt 0.008826 0.941139
vt 0.004616 0.970336
vt 0.004588 0.941175
vt 0.944919 0.071142
vt 0.008855 0.970299
vt 0.365777 0.942892
vt 0.864144 0.155631
vt 0.893240 0.155577
vt 0.893264 0.222143
vt 0.864168 0.222198
vt 0.944934 0.080500
vt 0.949098 0.080530
vt 0.949073 0.147001
vt 0.944905 0.146972
vt 0.944541 0.158471
vt 0.957192 0.176542
vt 0.944544 0.176573
vt 0.957188 0.158440
vt 0.032147 0.946085
vt 0.038075 0.946096
vt 0.038075 0.963947
vt 0.751769 0.978991
vt 0.751764 0.966260
vt 0.757791 0.966292
vt 0.757796 0.979022
vt 0.953121 0.259664
vt 0.959183 0.259664
vt 0.959183 0.277516
vt 0.953121 0.277516
vt 0.880419 0.941417
vt 0.892952 0.959481
vt 0.880420 0.959519
vt 0.892947 0.941378
vt 0.126915 0.964023
vt 0.120893 0.976722
vt 0.120887 0.963991
vt 0.126920 0.976754
vt 0.032147 0.963936
vt 0.993942 0.372406
vt 0.483744 0.903829
vt 0.990788 0.259751
vt 0.990978 0.259952
vt 0.990624 0.274949
vt 0.990440 0.053977
vt 0.990631 0.054178
vt 0.990276 0.069175
vt 0.247048 0.858291
vt 0.975325 0.977525
vt 0.975515 0.977725
vt 0.975226 0.992723
vt 0.858550 0.993633
vt 0.858058 0.993634
vt 0.858411 0.978635
vt 0.990324 0.128108
vt 0.990514 0.128309
vt 0.990160 0.143306
vt 0.847699 0.993633
vt 0.847208 0.993633
vt 0.847561 0.978634
vt 0.721604 0.573300
vt 0.874575 0.539275
vt 0.407727 0.970484
vt 0.408392 0.970485
vt 0.408163 0.985484
vt 0.985413 0.431838
vt 0.986077 0.431838
vt 0.985538 0.446940
vt 0.987886 0.606666
vt 0.988551 0.606667
vt 0.988322 0.621665
vt 0.185860 0.970910
vt 0.943214 0.944528
vt 0.436834 0.977213
vt 0.437025 0.977414
vt 0.436735 0.992411
vt 0.990441 0.004637
vt 0.990631 0.004837
vt 0.990277 0.019835
vt 0.170510 0.971063
vt 0.762199 0.561375
vt 0.766911 0.978870
vt 0.767250 0.979213
vt 0.915820 0.685052
vt 0.915537 0.892589
vt 0.817401 0.284647
vt 0.840297 0.216981
vt 0.237976 0.798924
vt 0.772509 0.552438
vt 0.772795 0.284290
vt 0.191458 0.958064
vt 0.191111 0.957729
vt 0.763067 0.276875
vt 0.750404 0.547513
vt 0.958278 0.738338
vt 0.984042 0.809781
vt 0.987207 0.801709
s 1
usemtl shop_004_baked
f 1/1/1 2/2/1 3/3/1
f 1/1/1 3/3/1 4/4/1
f 24/5/2 26/6/2 27/7/2
f 31/8/3 33/9/4 30/10/5
f 34/11/6 36/12/7 37/13/8
f 39/14/9 41/15/9 42/16/9
f 43/17/10 45/18/10 46/19/10
f 51/20/11 53/21/11 54/22/11
f 56/23/12 58/24/12 55/25/12
f 60/26/13 62/27/13 63/28/13
f 66/29/14 68/30/14 65/31/14
f 70/32/15 72/33/16 64/34/17
f 73/35/18 74/36/18 75/37/18
f 77/38/19 79/39/19 76/40/19
f 178/41/20 176/42/20 177/43/20
f 328/44/21 327/45/21 329/46/21
f 65/47/22 24/5/22 27/7/22
f 73/35/23 43/48/23 46/49/23
f 48/50/24 74/36/24 47/51/24
f 43/48/25 51/20/25 44/52/25
f 172/53/26 175/54/26 174/55/26
f 211/56/27 209/57/27 208/58/27
f 172/59/28 210/60/29 173/61/30
f 321/62/31 323/63/32 322/64/33
f 328/65/21 329/66/21 327/67/21
f 365/68/34 366/69/35 364/70/36
f 60/71/37 28/72/37 29/73/37
f 47/74/38 24/75/38 48/76/38
f 53/77/39 55/78/39 54/79/39
f 31/8/40 39/80/40 42/81/40
f 76/40/41 32/82/41 31/83/41
f 69/84/42 58/24/43 57/85/44
f 207/86/45 180/87/45 179/88/45
f 314/89/46 313/90/47 312/91/48
f 320/92/21 318/93/21 319/94/21
f 325/95/49 324/96/50 326/97/51
f 363/98/52 362/99/53 361/100/54
f 367/101/21 368/102/21 369/103/21
f 373/104/21 375/105/21 374/106/21
f 26/107/55 22/108/56 21/109/57
f 59/110/58 50/111/59 49/112/60
f 45/48/61 81/113/61 80/114/61
f 171/115/62 174/116/62 175/117/62
f 27/7/63 63/28/64 62/27/13
f 35/118/65 66/29/65 65/31/65
f 71/119/66 61/120/66 72/33/66
f 37/121/67 79/39/68 78/122/69
f 177/123/70 205/124/70 206/125/70
f 320/126/21 319/127/21 318/128/21
f 367/129/21 369/130/21 368/131/21
f 373/132/21 374/133/21 375/134/21
f 35/135/71 40/136/71 36/137/71
f 71/138/72 77/139/72 76/140/72
f 64/34/17 68/141/73 67/142/74
f 22/143/75 41/144/75 21/145/75
f 50/146/76 32/147/76 49/148/76
f 81/149/77 37/150/8 80/151/78
f 12/152/79 5/153/80 7/154/81
f 7/155/81 5/156/80 9/157/82
f 12/152/79 11/158/83 5/153/80
f 11/159/83 9/160/82 5/161/80
f 7/155/81 9/157/82 6/162/84
f 8/163/85 10/164/86 6/165/84
f 8/163/85 6/165/84 9/166/82
f 10/167/86 7/168/81 6/169/84
f 10/167/86 12/170/79 7/168/81
f 10/171/86 8/172/85 11/173/83
f 11/159/83 8/174/85 9/160/82
f 10/171/86 11/173/83 12/175/79
f 14/176/87 13/177/88 19/178/89
f 18/179/90 16/180/91 13/181/88
f 18/179/90 13/181/88 14/182/87
f 16/183/91 19/184/89 13/185/88
f 15/186/92 18/187/90 14/188/87
f 14/176/87 19/178/89 20/189/93
f 15/186/92 14/188/87 20/190/93
f 15/191/92 17/192/94 16/193/91
f 17/194/94 15/195/92 20/196/93
f 15/191/92 16/193/91 18/197/90
f 16/183/91 17/198/94 19/184/89
f 17/194/94 20/196/93 19/199/89
f 21/109/95 28/200/96 26/107/97
f 21/109/95 23/201/98 28/200/96
f 22/202/56 26/203/55 25/204/99
f 22/202/56 25/204/99 41/205/100
f 23/206/98 21/207/95 42/81/101
f 29/208/102 23/209/103 33/210/104
f 23/206/98 42/81/101 30/10/105
f 65/47/106 25/211/106 41/212/106
f 31/83/13 42/213/13 41/212/13
f 39/214/107 41/215/107 25/216/107
f 27/7/108 62/27/108 31/83/108
f 74/217/1 48/218/1 24/219/1
f 33/210/109 32/220/109 62/221/109
f 26/222/97 28/72/96 63/223/64
f 62/27/108 76/40/108 31/83/108
f 51/224/110 49/148/111 32/147/112
f 77/225/113 53/226/113 32/147/112
f 62/227/100 31/228/100 50/229/59
f 38/230/114 45/231/114 36/232/114
f 44/233/115 43/234/115 35/118/115
f 79/235/1 36/236/1 45/237/1
f 65/47/108 41/212/108 35/135/108
f 38/230/116 36/232/116 40/238/116
f 81/239/77 34/11/6 37/13/8
f 47/74/117 38/240/118 39/214/119
f 46/241/120 38/242/118 47/243/117
f 75/244/121 66/29/122 43/234/123
f 51/245/1 77/246/1 79/235/1
f 80/114/124 52/247/124 44/52/124
f 46/241/120 47/243/117 75/248/125
f 49/112/126 55/25/127 59/110/128
f 49/112/126 54/22/129 55/25/127
f 50/229/59 59/249/58 60/250/130
f 53/77/131 82/251/132 78/252/69
f 53/77/133 78/252/133 77/139/133
f 80/114/134 82/253/132 52/247/135
f 56/254/136 53/77/136 77/139/136
f 56/254/137 71/138/137 72/255/137
f 58/256/113 68/257/113 72/258/113
f 68/257/138 73/259/138 74/260/138
f 59/261/139 72/262/139 61/263/140
f 62/27/108 71/119/108 76/40/108
f 69/264/42 57/265/44 64/266/17
f 69/264/42 64/266/17 67/267/74
f 57/268/44 70/269/15 64/270/17
f 74/271/141 67/272/141 66/29/141
f 74/271/142 69/273/42 67/272/74
f 82/274/132 80/151/134 37/150/67
f 82/274/132 37/150/67 78/275/69
f 87/276/143 83/277/144 90/278/145
f 86/279/146 89/280/147 83/281/144
f 86/279/146 83/281/144 87/282/143
f 89/283/147 90/284/145 83/285/144
f 84/286/148 87/287/143 85/288/149
f 84/286/148 86/289/146 87/287/143
f 84/290/148 88/291/150 89/292/147
f 84/290/148 89/292/147 86/293/146
f 88/294/150 84/295/148 85/296/149
f 87/276/143 90/278/145 85/297/149
f 88/294/150 85/296/149 90/298/145
f 89/283/147 88/299/150 90/284/145
f 94/300/151 91/301/152 93/302/153
f 94/300/151 93/302/153 92/303/154
f 91/304/152 94/305/151 92/306/154
f 91/304/152 92/306/154 93/307/153
f 96/308/155 95/309/156 97/310/157
f 95/311/156 98/312/158 97/313/157
f 95/311/156 96/314/155 98/312/158
f 96/308/155 97/310/157 98/315/158
f 101/316/159 100/317/160 99/318/161
f 102/319/162 99/320/161 100/321/160
f 102/319/162 101/322/159 99/320/161
f 101/316/159 102/323/162 100/317/160
f 106/324/163 103/325/164 104/326/165
f 103/327/164 105/328/166 104/329/165
f 103/327/164 106/330/163 105/328/166
f 106/324/163 104/326/165 105/331/166
f 107/332/167 108/333/168 113/334/169
f 107/332/167 111/335/170 108/333/168
f 112/336/171 107/337/167 113/338/169
f 112/339/172 111/340/173 107/341/174
f 113/342/175 108/343/176 110/344/177
f 111/345/170 110/346/178 108/347/168
f 112/339/172 109/348/179 111/340/173
f 109/349/180 112/350/171 114/351/181
f 111/345/170 109/352/180 110/346/178
f 109/349/180 114/351/181 110/353/178
f 113/342/175 110/344/177 114/354/182
f 112/336/171 113/338/169 114/355/181
f 119/356/148 120/357/147 115/358/146
f 115/359/146 120/360/147 116/361/144
f 119/362/148 115/363/146 121/364/143
f 115/359/146 116/361/144 121/365/143
f 121/366/143 116/367/144 122/368/145
f 120/369/147 122/370/145 116/371/144
f 117/372/150 118/373/149 122/374/145
f 117/372/150 119/375/148 118/373/149
f 120/369/147 117/376/150 122/370/145
f 119/356/148 117/377/150 120/357/147
f 119/362/148 121/364/143 118/378/149
f 121/366/143 122/368/145 118/379/149
f 124/380/183 123/381/184 126/382/185
f 124/380/183 125/383/186 123/381/184
f 125/384/186 124/385/183 126/386/185
f 125/384/186 126/386/185 123/387/184
f 130/388/162 127/389/159 128/390/161
f 130/388/162 128/390/161 129/391/187
f 127/392/159 129/393/187 128/394/161
f 127/392/159 130/395/162 129/393/187
f 134/396/164 133/397/166 131/398/165
f 134/396/164 132/399/163 133/397/166
f 132/400/163 131/401/165 133/402/166
f 132/400/163 134/403/164 131/401/165
f 138/404/188 136/405/189 135/406/190
f 137/407/155 135/408/190 136/409/189
f 138/404/188 137/410/155 136/405/189
f 137/407/155 138/411/188 135/408/190
f 139/412/167 141/413/168 142/414/169
f 139/412/167 140/415/170 141/413/168
f 144/416/171 139/417/167 142/418/169
f 144/419/172 140/420/173 139/421/174
f 144/419/172 143/422/179 140/420/173
f 140/423/170 143/424/180 145/425/178
f 140/423/170 145/425/178 141/426/168
f 142/427/175 141/428/176 145/429/177
f 142/427/175 145/429/177 146/430/182
f 144/416/171 142/418/169 146/431/181
f 143/432/180 144/433/171 146/434/181
f 143/432/180 146/434/181 145/435/178
f 153/436/143 147/437/144 154/438/145
f 148/439/146 152/440/147 147/441/144
f 148/439/146 147/441/144 153/442/143
f 152/443/147 154/444/145 147/445/144
f 151/446/148 152/447/147 148/448/146
f 151/449/148 148/450/146 153/451/143
f 149/452/150 150/453/149 154/454/145
f 149/452/150 151/455/148 150/453/149
f 152/443/147 149/456/150 154/444/145
f 151/446/148 149/457/150 152/447/147
f 151/449/148 153/451/143 150/458/149
f 153/436/143 154/438/145 150/459/149
f 156/460/183 157/461/184 158/462/191
f 156/460/183 155/463/192 157/461/184
f 155/464/192 156/465/183 158/466/191
f 155/464/192 158/466/191 157/467/184
f 162/468/193 159/469/194 160/470/195
f 162/468/193 160/470/195 161/471/196
f 159/472/194 161/473/196 160/474/195
f 159/472/194 162/475/193 161/473/196
f 165/476/155 163/477/156 164/478/190
f 163/479/156 166/480/189 164/481/190
f 165/476/155 164/478/190 166/482/189
f 163/479/156 165/483/155 166/480/189
f 169/484/197 167/485/198 168/486/199
f 167/487/198 170/488/200 168/489/199
f 167/487/198 169/490/197 170/488/200
f 169/484/197 168/486/199 170/491/200
f 171/492/201 206/125/202 176/493/203
f 171/492/204 209/57/204 206/125/204
f 174/494/205 171/495/201 176/496/203
f 175/117/206 208/497/206 171/115/206
f 172/59/207 208/497/207 175/117/207
f 208/498/100 206/499/100 173/500/100
f 173/500/100 179/501/100 180/502/100
f 173/503/208 174/504/205 178/505/209
f 173/61/210 211/506/210 208/497/210
f 173/61/211 210/60/211 211/506/211
f 209/507/136 173/508/136 180/509/136
f 172/53/28 180/87/212 210/510/29
f 173/503/213 178/505/213 180/87/213
f 174/494/205 176/496/203 178/511/209
f 177/43/214 179/512/214 178/41/214
f 205/513/215 179/512/215 177/43/215
f 206/514/216 207/515/216 179/512/216
f 180/509/136 206/516/136 209/507/136
f 210/510/217 180/87/218 207/86/219
f 181/517/150 182/518/149 188/519/145
f 181/517/150 184/520/148 182/518/149
f 183/521/147 181/522/150 188/523/145
f 184/524/148 181/525/150 183/526/147
f 184/527/148 186/528/143 182/529/149
f 186/530/143 188/531/145 182/532/149
f 184/524/148 183/526/147 185/533/146
f 185/534/146 183/535/147 187/536/144
f 183/521/147 188/523/145 187/537/144
f 184/527/148 185/538/146 186/528/143
f 185/534/146 187/536/144 186/539/143
f 186/530/143 187/540/144 188/531/145
f 190/541/183 192/542/184 189/543/191
f 190/541/183 191/544/192 192/542/184
f 191/545/192 189/546/191 192/547/184
f 191/545/192 190/548/183 189/546/191
f 196/549/220 193/550/221 194/551/222
f 193/552/221 195/553/223 194/554/222
f 196/549/220 194/551/222 195/555/223
f 193/552/221 196/556/220 195/553/223
f 200/557/224 197/558/225 199/559/223
f 200/557/224 199/559/223 198/560/226
f 197/561/225 198/562/226 199/563/223
f 197/561/225 200/564/224 198/562/226
f 204/565/155 201/566/156 202/567/157
f 204/565/155 202/567/157 203/568/189
f 201/569/156 204/570/155 203/571/189
f 201/569/156 203/571/189 202/572/157
f 206/514/227 212/573/227 207/515/227
f 209/57/100 205/124/100 206/125/100
f 211/574/228 210/575/217 207/576/219
f 211/574/228 207/576/219 212/577/229
f 209/57/230 211/56/228 212/578/229
f 217/579/231 213/580/232 215/581/233
f 213/582/232 214/583/234 215/584/233
f 217/585/231 219/586/235 213/587/232
f 213/582/232 219/588/235 214/583/234
f 215/589/233 214/590/234 220/591/236
f 219/592/235 220/593/236 214/594/234
f 215/589/233 220/591/236 216/595/237
f 217/579/231 215/581/233 216/596/237
f 218/597/238 216/598/237 220/599/236
f 218/597/238 217/600/231 216/598/237
f 217/585/231 218/601/238 219/586/235
f 219/592/235 218/602/238 220/593/236
f 221/603/239 224/604/240 222/605/241
f 221/603/239 223/606/242 224/604/240
f 223/607/242 221/608/239 222/609/241
f 223/607/242 222/609/241 224/610/240
f 226/611/243 225/612/244 227/613/245
f 226/611/243 227/613/245 228/614/246
f 225/615/244 226/616/243 228/617/246
f 225/615/244 228/617/246 227/618/245
f 232/619/247 229/620/248 231/621/249
f 232/619/247 231/621/249 230/622/250
f 229/623/248 230/624/250 231/625/249
f 229/623/248 232/626/247 230/624/250
f 233/627/248 235/628/250 236/629/249
f 233/627/248 234/630/247 235/628/250
f 234/631/247 236/632/249 235/633/250
f 234/631/247 233/634/248 236/632/249
f 238/635/251 237/636/252 242/637/253
f 242/638/254 237/639/255 243/640/256
f 238/635/251 241/641/257 237/636/252
f 241/642/258 243/643/256 237/644/255
f 240/645/259 238/646/260 242/647/254
f 240/648/259 241/649/258 238/650/260
f 240/648/259 239/651/261 241/649/258
f 239/652/262 240/653/263 244/654/264
f 241/642/258 239/655/261 243/643/256
f 239/652/262 244/654/264 243/656/265
f 240/645/259 242/647/254 244/657/266
f 242/638/254 243/640/256 244/658/266
f 252/659/267 245/660/268 249/661/269
f 251/662/270 245/663/268 252/664/267
f 251/662/270 250/665/271 245/663/268
f 250/666/271 249/667/269 245/668/268
f 246/669/272 247/670/273 249/671/269
f 246/669/272 248/672/274 247/670/273
f 250/666/271 246/673/272 249/667/269
f 248/674/274 246/675/272 250/676/271
f 248/677/274 252/678/267 247/679/273
f 252/659/267 249/661/269 247/680/273
f 248/674/274 250/676/271 251/681/270
f 248/677/274 251/682/270 252/678/267
f 256/683/275 253/684/276 255/685/277
f 253/686/276 254/687/278 255/688/277
f 253/686/276 256/689/275 254/687/278
f 256/683/275 255/685/277 254/690/278
f 257/691/275 260/692/277 258/693/278
f 257/691/275 259/694/276 260/692/277
f 259/695/276 258/696/278 260/697/277
f 259/695/276 257/698/275 258/696/278
f 264/699/275 261/700/277 262/701/278
f 264/699/275 263/702/276 261/700/277
f 263/703/276 262/704/278 261/705/277
f 263/703/276 264/706/275 262/704/278
f 265/707/279 273/708/280 266/709/281
f 265/710/279 268/711/282 274/712/283
f 265/710/279 267/713/284 268/711/282
f 265/707/279 266/709/281 272/714/285
f 265/707/279 272/714/285 267/715/284
f 272/716/285 266/717/281 270/718/286
f 267/719/284 269/720/287 268/721/282
f 272/716/285 270/718/286 269/720/287
f 268/722/282 269/723/287 270/724/286
f 266/725/281 271/726/288 270/727/286
f 268/722/282 270/724/286 271/728/288
f 266/725/281 273/729/280 271/726/288
f 273/730/280 274/731/283 271/732/288
f 268/722/282 271/728/288 274/733/283
f 267/719/284 272/716/285 269/720/287
f 273/730/280 265/734/279 274/731/283
f 284/735/280 275/736/279 282/737/283
f 275/738/279 276/739/281 277/740/285
f 277/741/285 276/742/281 283/743/286
f 277/741/285 283/743/286 280/744/287
f 275/738/279 277/740/285 278/745/284
f 278/746/284 277/741/285 280/744/287
f 278/746/284 280/744/287 279/747/282
f 275/748/279 278/749/284 279/750/282
f 279/751/282 283/752/286 281/753/288
f 275/748/279 279/750/282 282/754/283
f 279/751/282 281/753/288 282/755/283
f 279/751/282 280/756/287 283/752/286
f 276/757/281 284/758/280 281/759/288
f 276/757/281 281/759/288 283/760/286
f 275/738/279 284/761/280 276/739/281
f 284/735/280 282/737/283 281/762/288
f 285/763/289 293/764/290 291/765/291
f 285/763/289 296/766/292 293/764/290
f 287/767/293 296/768/292 285/769/289
f 287/767/293 286/770/294 295/771/295
f 295/772/295 286/773/294 290/774/296
f 287/767/293 285/769/289 286/770/294
f 287/775/293 292/776/297 293/777/298
f 287/775/293 288/778/299 292/776/297
f 296/766/292 287/779/293 293/764/290
f 287/767/293 295/771/295 288/780/299
f 288/781/300 295/772/295 289/782/301
f 288/781/300 289/782/301 294/783/302
f 292/784/297 294/785/302 289/786/301
f 286/787/294 291/788/291 290/789/296
f 292/784/297 290/790/296 291/791/291
f 286/787/294 285/792/289 291/788/291
f 292/784/297 289/786/301 290/790/296
f 288/778/300 294/793/302 292/776/297
f 292/784/297 291/791/291 293/794/298
f 295/772/295 290/774/296 289/782/301
f 303/795/303 297/796/304 304/797/305
f 302/798/306 300/799/307 297/800/304
f 304/801/305 297/802/304 300/803/307
f 303/795/303 302/804/306 297/796/304
f 304/801/305 300/803/307 298/805/308
f 299/806/309 298/807/308 300/808/307
f 299/806/309 301/809/310 298/807/308
f 301/810/310 304/811/305 298/812/308
f 301/813/310 299/814/309 302/815/306
f 302/798/306 299/816/309 300/799/307
f 301/813/310 302/815/306 303/817/303
f 301/810/310 303/818/303 304/811/305
f 311/819/311 307/820/312 306/821/313
f 311/819/311 306/821/313 309/822/314
f 311/819/311 310/823/315 307/820/312
f 311/819/311 305/824/316 308/825/317
f 311/819/311 309/822/314 305/824/316
f 308/826/317 305/827/316 309/828/314
f 308/826/317 309/828/314 306/829/313
f 308/826/317 306/829/313 307/830/312
f 308/826/317 307/830/312 310/831/315
f 308/826/317 310/831/315 311/832/311
f 331/833/318 330/834/319 332/835/320
f 331/833/318 332/835/320 333/836/321
f 330/837/319 331/838/318 333/839/321
f 330/837/319 333/839/321 332/840/320
f 334/841/322 335/842/323 338/843/324
f 337/844/325 334/845/322 338/846/324
f 335/847/323 334/848/322 337/849/325
f 335/847/323 337/849/325 336/850/326
f 336/851/326 337/852/325 338/853/324
f 336/851/326 338/853/324 335/854/323
f 340/855/327 342/856/328 339/857/329
f 339/858/329 341/859/330 340/860/327
f 339/858/329 342/861/328 341/859/330
f 340/855/327 341/862/330 342/856/328
f 346/863/305 343/864/304 350/865/307
f 349/866/303 343/867/304 346/868/305
f 349/866/303 347/869/306 343/867/304
f 347/870/306 350/871/307 343/872/304
f 344/873/309 345/874/308 350/875/307
f 344/873/309 348/876/310 345/874/308
f 347/870/306 344/877/309 350/871/307
f 348/878/310 344/879/309 347/880/306
f 348/881/310 346/882/305 345/883/308
f 346/863/305 350/865/307 345/884/308
f 348/881/310 349/885/303 346/882/305
f 348/878/310 347/880/306 349/886/303
f 357/887/311 351/888/315 352/889/331
f 357/887/311 352/889/331 353/890/313
f 357/887/311 354/891/332 356/892/316
f 357/887/311 356/892/316 355/893/317
f 357/887/311 353/890/313 354/891/332
f 355/894/317 354/895/332 353/896/313
f 355/894/317 353/896/313 352/897/331
f 355/894/317 352/897/331 351/898/315
f 355/894/317 356/899/316 354/895/332
f 355/894/317 351/898/315 357/900/311
f 378/901/318 376/902/320 377/903/321
f 378/901/318 379/904/319 376/902/320
f 379/905/319 377/906/321 376/907/320
f 379/905/319 378/908/318 377/906/321
f 383/909/333 380/910/334 382/911/335
f 380/912/334 384/913/336 382/914/335
f 383/915/333 384/916/336 380/917/334
f 383/915/333 381/918/337 384/916/336
f 382/919/335 381/920/337 383/921/333
f 382/919/335 384/922/336 381/920/337
f 386/923/327 388/924/328 385/925/329
f 385/926/329 387/927/330 386/928/327
f 385/926/329 388/929/328 387/927/330
f 386/923/327 387/930/330 388/924/328
f 389/931/338 390/932/339 392/933/340
f 389/931/338 392/933/340 391/934/341
f 390/935/339 389/936/338 393/937/342
f 390/938/339 394/939/343 392/940/340
f 390/938/339 393/941/342 394/939/343
f 393/942/342 389/943/338 391/944/341
f 393/942/342 391/944/341 394/945/343
f 394/946/343 391/947/341 392/948/340
f 395/949/338 399/950/340 398/951/341
f 395/949/338 400/952/339 399/950/340
f 400/953/339 397/954/344 399/955/340
f 400/953/339 396/956/342 397/954/344
f 400/957/339 395/958/338 396/959/342
f 396/960/342 395/961/338 398/962/341
f 396/960/342 398/962/341 397/963/344
f 397/964/344 398/965/341 399/966/340
f 403/967/345 401/968/346 402/969/347
f 401/970/346 407/971/348 402/972/347
f 403/973/345 406/974/349 401/975/346
f 401/970/346 406/976/349 407/971/348
f 402/977/347 408/978/350 404/979/351
f 403/967/345 402/969/347 404/980/351
f 402/977/347 407/981/348 408/978/350
f 403/973/345 405/982/352 406/974/349
f 405/983/352 403/984/345 404/985/351
f 405/983/352 404/985/351 408/986/350
f 406/987/349 405/988/352 408/989/350
f 406/987/349 408/989/350 407/990/348
f 409/991/353 416/992/354 415/993/355
f 409/991/353 410/994/356 416/992/354
f 413/995/357 409/996/353 415/997/355
f 410/998/356 409/999/353 413/1000/357
f 410/998/356 413/1000/357 411/1001/358
f 410/1002/356 411/1003/358 412/1004/359
f 410/1002/356 412/1004/359 416/1005/354
f 411/1006/358 414/1007/360 412/1008/359
f 411/1006/358 413/1009/357 414/1007/360
f 412/1010/359 415/1011/355 416/1012/354
f 412/1010/359 414/1013/360 415/1011/355
f 413/995/357 415/997/355 414/1014/360
f 24/5/361 25/211/361 26/6/361
f 31/8/362 32/147/362 33/9/362
f 34/11/363 35/118/363 36/12/364
f 39/14/365 40/1015/365 41/15/365
f 43/17/366 44/1016/366 45/18/366
f 51/20/11 52/247/135 53/21/367
f 56/23/368 57/85/368 58/24/368
f 60/26/13 61/120/13 62/27/13
f 66/29/369 67/272/369 68/30/369
f 70/32/370 71/119/370 72/33/371
f 73/35/372 69/84/42 74/36/142
f 77/38/373 78/122/373 79/39/373
f 326/1017/51 324/1018/50 325/1019/49
f 316/1020/21 317/1021/21 315/1022/21
f 65/47/374 68/141/374 24/5/374
f 73/35/25 75/37/25 43/48/25
f 48/50/375 75/37/375 74/36/375
f 59/110/128 55/25/127 58/24/376
f 51/20/129 54/22/129 49/112/126
f 43/48/25 52/247/25 51/20/25
f 171/115/377 208/497/377 209/1023/377
f 172/53/378 173/503/378 175/54/378
f 312/1024/48 313/1025/47 314/1026/46
f 322/1027/33 323/1028/32 321/1029/31
f 361/1030/54 362/1031/53 363/1032/52
f 364/1033/36 366/1034/35 365/1035/34
f 60/71/379 63/223/64 28/72/96
f 23/206/105 30/10/105 33/9/105
f 29/1036/102 28/200/380 23/201/103
f 47/74/381 25/216/381 24/75/381
f 53/77/382 56/254/382 55/78/382
f 82/253/132 53/21/367 52/247/135
f 31/8/3 30/10/5 39/80/383
f 46/241/384 45/1037/384 38/242/384
f 76/40/385 79/39/385 32/82/385
f 69/84/42 73/35/386 58/24/43
f 178/505/387 179/88/387 180/87/387
f 317/1038/21 316/1039/21 315/1040/21
f 360/1041/21 358/1042/21 359/1043/21
f 370/1044/21 371/1045/21 372/1046/21
f 59/261/139 61/263/140 60/1047/388
f 45/48/389 44/52/389 81/113/389
f 27/7/63 26/6/97 63/28/64
f 35/118/363 34/11/363 66/29/390
f 71/119/13 62/27/13 61/120/13
f 37/121/67 36/137/391 79/39/68
f 177/123/392 176/1048/392 205/124/392
f 212/573/393 206/514/394 205/513/395
f 358/1049/21 360/1050/21 359/1051/21
f 371/1052/21 370/1053/21 372/1054/21
f 40/238/396 39/1055/396 38/230/396
f 35/135/4 41/212/4 40/136/4
f 71/138/370 70/269/370 77/139/397
f 64/34/17 72/33/398 68/141/73
f 22/143/399 42/1056/399 41/144/399
f 50/146/400 33/9/400 32/147/400
f 65/47/401 24/5/401 25/211/401
f 66/1057/1 74/217/1 24/219/1
f 24/219/1 68/1058/1 66/1057/1
f 24/5/402 27/7/402 25/211/402
f 27/7/108 31/83/108 41/212/108
f 25/211/403 27/7/403 41/212/403
f 25/216/404 47/74/117 39/214/119
f 63/1059/405 29/208/405 62/221/405
f 29/208/102 33/210/104 62/221/136
f 32/220/406 31/1060/406 62/221/406
f 51/224/110 32/147/112 53/226/113
f 32/147/112 79/1061/113 77/225/113
f 32/1062/407 50/229/407 31/228/407
f 50/229/59 60/250/130 62/227/100
f 36/12/408 45/1063/408 35/118/408
f 45/1063/409 44/233/409 35/118/409
f 43/234/123 66/29/122 35/118/123
f 43/1064/1 79/235/1 45/237/1
f 34/11/6 81/239/77 45/1063/100
f 34/11/410 45/1063/410 36/12/410
f 75/244/405 74/271/405 66/29/405
f 79/235/1 43/1064/1 51/245/1
f 53/1065/1 77/246/1 51/245/1
f 70/269/15 57/268/44 56/254/411
f 70/269/412 56/254/412 72/255/412
f 72/262/413 59/261/414 56/1066/415
f 59/261/414 58/1067/416 56/1066/415
f 56/254/417 77/139/417 71/138/417
f 72/258/113 56/1068/113 58/256/113
f 68/257/418 58/256/418 73/259/418
f 74/260/113 66/1069/113 68/257/113
f 172/59/100 173/61/100 208/497/100
f 208/498/100 209/1070/100 206/499/100
f 173/500/100 206/499/100 179/501/100
f 209/507/136 208/1071/136 173/508/136
f 172/53/100 173/503/100 180/87/100
f 205/513/100 206/514/100 179/512/100
f 180/509/136 179/1072/136 206/516/136
f 209/57/419 212/578/393 205/124/395
