# Blender 4.5.0
# www.blender.org
mtllib shop_009.lod2.mtl
o shop_009
v -4.396449 3.124147 -4.379408
v -0.305101 3.124147 -4.379408
v -0.860284 5.527337 -4.343504
v -0.550181 3.334426 -4.343504
v 4.396449 3.124147 -4.379408
v 0.305101 3.124147 -4.379408
v 4.461471 5.527337 -4.343504
v 4.151368 3.334426 -4.343504
v -3.296086 1.271688 -4.529007
v -2.705892 0.180239 -4.529007
v -4.919728 0.072757 -4.115654
v 4.979263 3.364466 -0.684637
v -4.919728 0.087456 4.095420
v -2.689831 0.150199 -4.519460
v -0.876322 5.557377 -4.334889
v -0.393483 2.238593 4.118817
v -4.717042 6.249424 -4.096257
v 0.015494 6.267190 -4.096257
v -4.415043 5.395162 4.089629
v -2.983125 2.421668 -4.113584
v -4.119216 2.421667 -4.124628
v -3.751236 0.003206 -4.023374
v -4.023772 0.243678 -4.207255
v -3.078569 0.243677 -4.210475
v -3.540029 2.343110 -4.226392
v -3.551170 2.353860 -4.238785
v -3.549152 0.240757 -4.214323
v -3.553189 0.240757 -4.263247
v -3.669043 1.399105 -4.330601
v -3.671210 0.986990 -4.298625
v -3.673377 1.399105 -4.266648
v -3.433298 1.399105 -4.266648
v -3.428964 1.399105 -4.330601
v -3.431130 0.986990 -4.298625
v -0.739248 2.298928 -4.072413
v -0.739248 0.304527 -4.086013
v -3.413625 1.388226 -4.266475
v -0.828881 0.394102 -4.170105
v -3.312068 1.301728 -4.376651
v -0.828881 2.209353 -4.167839
v -2.673892 2.252619 -4.225851
v -2.677871 2.252620 -4.171934
v -2.675882 0.348446 -4.198892
v -1.750577 0.348446 -4.198892
v -1.748587 2.252619 -4.225851
v -1.752566 2.252619 -4.171934
v -0.827261 2.252620 -4.171934
v -0.825272 0.348446 -4.198892
v -0.823283 2.252619 -4.225851
v -2.790920 0.285178 -4.324156
v -0.707479 0.325176 -4.335494
v -0.707479 0.315673 -4.102184
v -4.434773 3.155055 -4.306458
v -0.275091 3.140146 -4.370197
v -4.434773 2.502455 -4.290792
v -0.098314 2.419471 -4.845000
v -4.426459 2.517365 -4.370197
v -0.098313 2.406934 -3.991610
v -3.462898 3.294373 -4.154539
v -4.179526 4.704392 -4.052363
v -2.722749 4.704392 -4.046224
v -4.097756 4.622542 -4.140186
v -2.800923 4.614124 -4.139552
v -4.097757 3.328011 -4.137920
v -4.101352 3.282341 -4.168972
v -4.099362 4.665823 -4.195931
v -4.103341 4.665823 -4.142015
v -3.451138 3.282341 -4.168972
v -3.453127 4.665823 -4.142015
v -3.449148 4.665823 -4.195931
v -2.798934 4.665823 -4.195931
v -2.800923 3.282341 -4.168972
v -2.802913 4.665823 -4.142015
v -4.219241 3.249719 -4.306558
v -2.685885 3.289567 -4.294237
v -4.219240 3.258920 -4.071281
v -1.775585 3.791305 -3.964025
v -0.522024 4.704392 -4.046224
v -0.522024 3.246161 -4.052363
v -0.214694 3.318634 -4.178946
v -1.897032 3.328011 -4.137920
v -1.897031 4.622542 -4.140186
v -1.900626 3.282341 -4.168972
v -1.902616 4.665823 -4.142015
v -1.898637 4.665823 -4.195931
v -1.248423 4.665823 -4.195931
v -1.252402 4.665823 -4.142015
v -1.250412 3.282341 -4.168972
v -0.598208 4.665823 -4.195931
v -0.600198 3.282341 -4.168972
v -0.602187 4.665823 -4.142015
v -0.485160 3.289567 -4.294237
v -2.018515 3.258920 -4.071281
v -2.018515 3.249719 -4.306558
v -0.899808 5.566148 -4.266145
v -0.498653 3.214267 -4.306100
v -0.200555 5.566148 -4.251320
v -4.107035 1.755290 -4.317105
v -2.910959 2.140841 -4.318072
v -4.107035 2.149894 -4.320038
v -2.990986 2.140841 -4.318072
v -1.794911 2.149893 -4.317105
v -1.794911 1.755290 -4.320038
v -0.590194 2.140841 -4.319070
v -1.706243 1.755290 -4.317105
v -1.706243 2.149893 -4.320038
v -0.925305 3.791371 -3.964121
v -1.900626 3.336429 -4.139552
v -0.876322 3.304386 -4.182575
v -1.381630 3.674145 -4.427698
v -1.316032 3.284421 -4.430494
v -0.923545 3.490046 -4.424028
v -1.399750 3.340995 -4.453164
v -1.392563 3.329105 -4.467459
v -0.979869 3.336929 -4.458198
v -1.399750 3.398964 -4.454149
v -0.979868 3.404018 -4.458198
v -1.392563 3.413316 -4.465991
v -1.392563 3.463283 -4.467459
v -1.399750 3.475173 -4.453164
v -0.979869 3.471107 -4.458198
v -1.392563 3.547495 -4.465991
v -0.979868 3.538196 -4.458198
v -1.399750 3.533142 -4.454149
v -1.392563 3.614584 -4.465991
v -0.979868 3.605286 -4.458198
v -1.399750 3.600232 -4.454149
v -0.979869 3.672375 -4.458198
v -1.392563 3.681673 -4.465991
v -1.399750 3.667320 -4.454149
v -1.598294 3.671366 -4.421790
v -1.640541 3.293241 -4.423292
v -1.682788 3.671366 -4.424793
v -1.650544 3.119140 -4.490021
v -1.697037 3.122358 -3.886868
v -1.604051 3.115923 -3.886868
v -1.096839 3.122358 -3.886868
v -1.050346 3.119140 -4.490021
v -1.003853 3.115923 -3.886868
v 4.724613 4.555192 -3.157558
v 4.718498 3.395363 -3.157559
v 4.755874 3.439488 -1.815280
v 4.811086 4.463926 -1.929973
v 4.812730 4.472466 -3.073193
v 4.810442 3.478088 -3.073193
v 4.868635 4.515624 -3.074916
v 4.814557 4.515624 -3.078883
v 4.841596 3.432540 -3.076899
v 4.868635 4.515624 -2.501452
v 4.841596 3.432540 -2.503436
v 4.814557 4.515624 -2.505419
v 4.868635 4.515624 -1.927989
v 4.841596 3.432540 -1.929973
v 4.814557 4.515624 -1.931956
v 4.980000 3.399983 -3.194463
v 4.967237 3.439766 -1.815280
v 4.743204 3.409055 -3.194463
v 4.755967 3.439766 -0.698273
v 4.724613 3.395361 0.644004
v 4.718498 4.555191 0.644005
v 4.812086 4.463926 -0.583581
v 4.812730 3.478088 0.559639
v 4.810442 4.472466 0.559639
v 4.868635 4.515624 -0.581597
v 4.841596 3.432540 -0.583581
v 4.814557 4.515624 -0.585564
v 4.868635 4.515624 -0.008134
v 4.814557 4.515624 -0.012101
v 4.841596 3.432540 -0.010118
v 4.814557 4.515624 0.561362
v 4.841596 3.432540 0.563346
v 4.868635 4.515624 0.565329
v 4.980000 3.409055 0.680910
v 4.967237 3.369272 -0.698273
v 4.743204 3.399983 0.680910
v 4.724613 4.555192 1.829079
v 4.718498 3.395363 1.829078
v 4.409453 3.923208 3.787206
v 4.812730 4.472466 1.913444
v 4.810442 3.478088 1.913444
v 4.812086 4.463926 3.056664
v 4.868635 4.515624 1.911721
v 4.841596 3.432541 1.909737
v 4.814557 4.515624 1.907754
v 4.841596 3.432541 2.483201
v 4.814557 4.515624 2.481217
v 4.868635 4.515624 2.485184
v 4.841596 3.432541 3.056664
v 4.814557 4.515624 3.054680
v 4.868635 4.515624 3.058647
v 4.980000 3.399983 1.792173
v 4.967237 3.439766 3.171356
v 4.743204 3.409056 1.792173
v 2.743969 7.499955 -4.122324
v 1.687244 0.170226 -4.050982
v 0.012004 9.040000 4.053990
v 2.789162 7.469915 -4.183406
v -0.015494 8.970780 4.076021
v 4.717042 8.953013 4.076022
v 1.139238 0.240319 -4.226392
v 0.582333 2.421667 -4.124628
v 1.718425 2.421668 -4.113584
v 1.161520 2.343110 -4.226392
v 0.677778 0.243677 -4.207255
v 1.622981 0.243677 -4.210475
v 1.150379 2.353860 -4.238785
v 1.148361 0.240757 -4.263247
v 1.152398 0.240757 -4.214323
v 1.030340 0.986990 -4.298625
v 1.028172 1.399105 -4.266648
v 1.032507 1.399105 -4.330601
v 1.272586 1.004084 -4.266648
v 1.268252 1.004084 -4.330601
v 1.270419 1.416200 -4.298625
v 4.471474 1.818046 -4.005041
v 1.939644 2.298928 -4.086013
v 1.939644 0.304527 -4.072413
v 3.872668 2.209353 -4.167839
v 3.872668 0.394102 -4.170105
v 1.287925 1.388226 -4.266475
v 2.023678 2.252620 -4.171934
v 2.027657 2.252619 -4.225851
v 2.025668 0.348446 -4.198892
v 2.952962 2.252619 -4.225851
v 2.950973 0.348446 -4.198892
v 2.948983 2.252620 -4.171934
v 3.876277 0.348446 -4.198892
v 3.874288 2.252619 -4.171934
v 3.878267 2.252619 -4.225851
v 3.991315 0.355672 -4.324156
v 1.907874 0.325177 -4.102184
v 1.907875 0.315674 -4.335494
v 4.434773 3.155055 -4.290792
v 4.434773 2.502455 -4.306458
v 0.275091 3.140223 -4.369861
v 0.098314 2.406935 -4.845000
v 0.098313 2.419472 -3.991610
v 4.426459 2.517286 -4.369861
v 0.522024 3.246161 -4.046224
v 2.925964 3.791305 -3.964025
v 0.522024 4.704392 -4.052363
v 0.600198 4.614124 -4.139552
v 1.897031 4.622542 -4.137920
v 1.897031 3.328011 -4.140186
v 0.602187 4.665823 -4.195931
v 0.600198 3.282341 -4.168972
v 0.598208 4.665823 -4.142015
v 1.248423 4.665823 -4.142015
v 1.252401 4.665823 -4.195931
v 1.250412 3.282341 -4.168972
v 1.902616 4.665823 -4.195931
v 1.898637 4.665823 -4.142015
v 1.900627 3.282341 -4.168972
v 0.485160 3.219073 -4.294237
v 2.018515 3.249719 -4.071281
v 2.018515 3.258920 -4.306558
v 2.722749 3.246161 -4.046224
v 4.486856 3.318634 -4.178946
v 2.722750 4.704392 -4.052363
v 4.097756 3.328011 -4.140186
v 4.097756 4.622542 -4.137920
v 2.800923 3.282341 -4.168972
v 2.802913 4.665823 -4.195931
v 2.798934 4.665823 -4.142015
v 3.453127 4.665823 -4.195931
v 3.451138 3.282341 -4.168972
v 3.449148 4.665823 -4.142015
v 4.103341 4.665823 -4.195931
v 4.099362 4.665823 -4.142015
v 4.101352 3.282341 -4.168973
v 2.685885 3.219073 -4.294237
v 4.219241 3.249719 -4.071281
v 4.219240 3.258920 -4.306558
v 2.015664 6.093010 -4.083510
v 0.522023 6.049882 -4.046224
v 0.522024 7.508114 -4.052363
v -0.008191 6.348427 -4.060066
v 1.897032 6.131733 -4.140186
v 1.897032 7.426264 -4.137920
v 0.598208 6.098466 -4.195931
v 0.600198 7.481948 -4.168972
v 0.602187 6.098465 -4.142015
v 1.248423 6.098466 -4.195931
v 1.250412 7.481948 -4.168972
v 1.252402 6.098465 -4.142015
v 1.898637 6.098465 -4.195931
v 1.900626 7.481948 -4.168972
v 1.902616 6.098465 -4.142015
v 0.485160 6.022795 -4.294237
v 2.018515 6.053440 -4.071281
v 2.018515 6.062642 -4.306557
v 4.216390 6.093010 -4.083510
v 2.722750 7.508114 -4.052363
v 2.722749 6.049882 -4.046224
v 4.097757 6.131733 -4.140186
v 2.800923 7.417846 -4.139552
v 4.097757 7.426264 -4.137920
v 2.800923 7.481948 -4.168972
v 2.798934 6.098465 -4.195931
v 2.802913 6.098465 -4.142015
v 3.449148 6.098466 -4.195931
v 3.453127 6.098465 -4.142015
v 3.451138 7.481948 -4.168972
v 4.101352 7.481948 -4.168972
v 4.103341 6.098465 -4.142015
v 4.099362 6.098465 -4.195931
v 2.685885 6.022795 -4.294237
v 4.219241 6.062642 -4.306558
v 4.219241 6.053441 -4.071281
v 3.801743 5.566148 -4.266146
v 4.202896 3.214267 -4.306100
v 4.500996 5.566148 -4.251319
v 0.590194 2.140841 -4.319070
v 1.706243 2.149893 -4.317105
v 1.706243 1.755290 -4.320038
v 2.990986 2.140841 -4.319070
v 1.794911 1.755290 -4.317105
v 1.794911 2.149893 -4.320038
v 4.107035 2.149893 -4.317105
v 2.910959 2.140841 -4.318072
v 4.107035 1.755290 -4.320038
v 2.800923 3.336429 -4.139552
v 3.776245 3.791371 -3.964121
v 3.825228 3.304386 -4.182575
v 3.385517 3.284421 -4.430494
v 3.778004 3.490046 -4.424028
v 3.319920 3.674145 -4.427698
v 3.300633 3.336929 -4.458198
v 3.713327 3.344754 -4.467459
v 3.720515 3.332864 -4.453164
v 3.301799 3.398964 -4.454149
v 3.721681 3.404018 -4.458198
v 3.308987 3.413316 -4.465991
v 3.300633 3.471107 -4.458198
v 3.720515 3.476162 -4.454149
v 3.713327 3.461809 -4.465991
v 3.301799 3.533142 -4.454149
v 3.721681 3.538196 -4.458198
v 3.308987 3.547495 -4.465991
v 3.308987 3.614584 -4.465991
v 3.721681 3.605286 -4.458198
v 3.301799 3.600232 -4.454149
v 3.720515 3.677429 -4.454149
v 3.300633 3.672375 -4.458198
v 3.713327 3.663076 -4.465991
v 3.103256 3.671366 -4.421790
v 3.018762 3.671366 -4.424793
v 3.061009 3.293241 -4.423292
v 3.051006 3.119140 -4.490021
v 3.004513 3.122358 -3.886868
v 3.097498 3.115923 -3.886868
v 3.651204 3.119140 -4.490021
v 3.604710 3.122358 -3.886868
v 3.697696 3.115923 -3.886868
v -4.755967 3.439766 3.171356
v -4.724613 3.395361 1.829079
v -4.718498 4.555191 1.829078
v -4.810442 3.478088 3.052957
v -4.812730 4.472466 3.052958
v -4.812086 4.463926 1.909737
v -4.841596 3.432541 3.056664
v -4.868635 4.515624 3.054680
v -4.814557 4.515624 3.058647
v -4.814557 4.515624 2.485184
v -4.841596 3.432541 2.483201
v -4.868635 4.515624 2.481217
v -4.868635 4.515624 1.907754
v -4.814557 4.515624 1.911721
v -4.841596 3.432541 1.909737
v -4.980000 3.399983 3.174228
v -4.967237 3.439766 1.795045
v -4.743204 3.409056 3.174228
v -4.724613 3.395361 -0.664240
v -4.755967 3.439766 0.678038
v -4.718498 4.555191 -0.664241
v -4.812086 4.463926 -0.583581
v -4.812730 4.472466 0.559639
v -4.810442 3.478088 0.559639
v -4.814557 4.515624 0.565329
v -4.841596 3.432540 0.563346
v -4.868635 4.515624 0.561362
v -4.814557 4.515624 -0.008134
v -4.841596 3.432540 -0.010118
v -4.868635 4.515624 -0.012101
v -4.868635 4.515624 -0.585564
v -4.841596 3.432540 -0.583581
v -4.814557 4.515624 -0.581597
v -4.967237 3.369272 0.678038
v -4.980000 3.409055 -0.701145
v -4.743204 3.399983 -0.701145
v -4.718498 4.555191 -3.157558
v -4.724613 3.395361 -3.157558
v -4.755967 3.439766 -1.815280
v -4.812086 4.463926 -1.929973
v -4.810442 4.472466 -3.073193
v -4.812730 3.478088 -3.073193
v -4.868635 4.515624 -1.931956
v -4.814557 4.515624 -1.927989
v -4.841596 3.432540 -1.929973
v -4.814557 4.515624 -2.501452
v -4.841596 3.432540 -2.503436
v -4.868635 4.515624 -2.505419
v -4.841596 3.432540 -3.076899
v -4.868635 4.515624 -3.078883
v -4.814557 4.515624 -3.074916
v -4.980000 3.409055 -3.194463
v -4.967237 3.369272 -1.815280
v -4.743204 3.399983 -3.194463
v 3.703954 1.832432 -4.666479
v 4.458708 -0.000000 -4.010523
v 4.458736 1.832432 -4.010556
v 3.764455 0.634832 -4.686371
v 4.389447 1.652193 -4.687084
v 4.398235 0.634832 -4.688794
v 3.889488 0.821597 -4.718650
v 3.813051 0.821597 -4.716354
v 3.851269 0.968777 -4.717502
v 4.039537 0.821596 -4.718650
v 3.963100 0.821597 -4.716354
v 4.001318 0.968777 -4.717502
v 4.151368 0.968777 -4.717502
v 4.189587 0.821597 -4.718650
v 4.113150 0.821597 -4.716354
v 4.339636 0.821597 -4.718650
v 4.301417 0.968777 -4.717503
v 4.263199 0.821597 -4.716354
v 3.813051 1.051902 -4.716354
v 3.851269 1.199083 -4.717502
v 3.889488 1.051902 -4.718650
v 4.001318 1.199083 -4.717502
v 4.039537 1.051902 -4.718650
v 3.963100 1.051902 -4.716354
v 4.151368 1.199083 -4.717502
v 4.113150 1.051902 -4.716354
v 4.189587 1.051902 -4.718650
v 4.301417 1.199083 -4.717503
v 4.339636 1.051903 -4.718650
v 4.263199 1.051902 -4.716354
v 3.889488 1.282208 -4.718650
v 3.813051 1.282208 -4.716354
v 3.851269 1.429388 -4.717502
v 4.001318 1.429388 -4.717502
v 4.039537 1.282208 -4.718650
v 3.963100 1.282208 -4.716354
v 4.151368 1.429388 -4.717502
v 4.113150 1.282208 -4.716354
v 4.189587 1.282208 -4.718650
v 4.301417 1.429389 -4.717503
v 4.263199 1.282208 -4.716354
v 4.339636 1.282208 -4.718650
v -3.765348 0.156107 -4.707529
v -4.088087 0.170226 -4.051378
v -4.337323 0.004105 -4.707529
v -4.401451 0.170486 -4.669293
v -3.540667 0.252335 -4.263718
v -4.401451 0.650603 -4.047635
v -3.005433 1.757491 -4.331038
v -3.336492 0.130707 -4.445225
v -2.665484 0.130709 -4.451221
v 4.476475 1.037716 4.293749
v 4.618844 0.174492 3.979192
v 3.719755 0.574881 3.849539
v 4.020151 0.920490 3.830173
v 4.085748 0.530766 3.827376
v 4.478235 0.736391 3.833843
v 4.000864 0.583275 3.799673
v 4.413558 0.575450 3.808934
v 4.420746 0.587340 3.794639
v 4.420746 0.654429 3.794639
v 4.413558 0.642539 3.808934
v 4.000864 0.650364 3.799673
v 4.420746 0.721518 3.794639
v 4.413558 0.709628 3.808934
v 4.000864 0.717453 3.799673
v 4.000864 0.784542 3.799673
v 4.413558 0.792366 3.790412
v 4.420746 0.780476 3.804707
v 4.000864 0.851631 3.799673
v 4.420746 0.855696 3.794639
v 4.413558 0.843806 3.808934
v 4.000864 0.918720 3.799673
v 4.413558 0.910895 3.808934
v 4.420746 0.922785 3.794639
v 3.761240 0.942382 3.834579
v 3.718992 0.564257 3.836081
v 3.803487 0.564257 3.833078
v 3.797729 0.368704 3.786848
v 3.704743 0.362267 3.786848
v 3.751236 0.365485 4.389999
v 4.397927 0.368704 3.786849
v 4.304941 0.362267 3.786848
v 4.351436 0.365485 4.390000
v 3.719755 3.578869 3.849539
v 4.476475 4.041704 4.293748
v 4.476475 3.418200 3.864100
v 4.478235 3.740379 3.833843
v 4.020151 3.924478 3.830173
v 4.085748 3.534753 3.827376
v 4.000864 3.587262 3.799672
v 4.420746 3.592316 3.803722
v 4.413558 3.577964 3.791879
v 4.413558 3.663649 3.807466
v 4.420746 3.649297 3.795623
v 4.000864 3.654351 3.799672
v 4.000864 3.721440 3.799672
v 4.420746 3.716386 3.795623
v 4.413558 3.730739 3.807466
v 4.420746 3.784464 3.804707
v 4.413558 3.796354 3.790411
v 4.000864 3.788529 3.799672
v 4.413558 3.863443 3.790411
v 4.000864 3.855618 3.799672
v 4.420746 3.851553 3.804707
v 4.420746 3.918642 3.804707
v 4.413558 3.930532 3.790411
v 4.000864 3.922707 3.799672
v 3.761240 3.543573 3.834579
v 3.803487 3.921699 3.836080
v 3.718992 3.921699 3.833078
v 3.797729 3.372692 3.786848
v 3.751236 3.369473 4.389999
v 3.704744 3.366254 3.786848
v 4.304942 3.366255 3.786848
v 4.397927 3.372692 3.786849
v 4.351436 3.369473 4.389999
v -4.422003 0.115475 4.036322
v -4.446417 5.429521 4.068952
v -4.477799 0.115825 4.104117
v 4.455038 0.097817 4.072511
v 4.457788 5.411514 4.025521
v 4.449160 5.411864 4.112795
v 0.412594 0.450758 4.054098
v -0.412594 0.450757 4.063859
v -0.386631 2.252991 4.116798
v 0.960985 1.802393 4.136571
v 0.960985 1.301728 3.981385
v 0.639543 1.301728 4.136571
vn -0.3338 0.6949 -0.6370
vn -0.3305 0.6885 -0.6455
vn -0.3343 0.7005 -0.6305
vn 0.0762 0.7682 0.6357
vn 0.0764 0.7699 0.6336
vn 0.0764 0.7668 0.6373
vn -0.0000 -0.0000 -0.0000
vn -0.0429 -0.7699 0.6367
vn -0.0429 -0.7675 0.6396
vn -0.0430 -0.7704 0.6361
vn -0.0510 -0.7712 0.6346
vn -0.0510 -0.7661 0.6407
vn -0.0509 -0.7694 0.6367
vn -0.0002 -0.7733 0.6341
vn -0.0002 -0.7758 0.6310
vn -0.0002 -0.7758 0.6309
vn 0.0221 -0.7677 -0.6404
vn 0.0221 -0.7692 -0.6387
vn 0.0221 -0.7652 -0.6434
vn 0.0193 0.6246 -0.7807
vn 0.0192 0.6270 -0.7787
vn 0.0193 0.6296 -0.7767
vn -0.0003 -0.6524 0.7578
vn -0.0003 -0.6533 0.7571
vn -0.0003 -0.6483 0.7614
vn 0.0552 -0.6249 0.7787
vn 0.0552 -0.6266 0.7774
vn 0.0554 -0.6220 0.7811
vn 0.0759 -0.7617 -0.6435
vn 0.0762 -0.7619 -0.6432
vn 0.0760 -0.7621 -0.6430
vn -0.0005 -0.5547 0.8321
vn -0.0005 -0.5882 0.8087
vn 0.0597 0.6385 0.7673
vn 0.0594 0.6378 0.7679
vn 0.0593 0.6375 0.7681
vn 0.1497 -0.6240 -0.7670
vn 0.1506 -0.6156 -0.7735
vn 0.1483 -0.6178 -0.7722
vn -0.0000 -0.0000 1.0000
vn -0.9701 -0.2425 -0.0000
vn 0.3432 -0.8965 -0.2802
vn 0.3544 -0.9072 -0.2268
vn 0.4444 -0.8012 -0.4006
vn -0.0587 -0.9983 -0.0000
vn -0.0644 -0.9979 -0.0000
vn -0.0680 -0.9977 -0.0000
vn -0.0000 1.0000 -0.0000
vn -1.0000 -0.0000 -0.0000
vn 0.0465 -0.9989 -0.0000
vn 0.0434 -0.9991 -0.0000
vn 0.0499 -0.9988 -0.0000
vn -0.0071 1.0000 -0.0000
vn -0.0070 1.0000 -0.0000
vn -0.9591 -0.0000 0.2830
vn -0.9652 -0.0000 0.2614
vn -0.9659 -0.0000 0.2587
vn -0.4895 0.8720 -0.0000
vn -0.5241 0.8517 -0.0000
vn -0.4472 0.8944 -0.0000
vn -0.3768 0.9263 -0.0000
vn -0.3523 0.9359 -0.0000
vn -0.2967 0.9550 -0.0000
vn 1.0000 -0.0000 -0.0000
vn -0.0000 -1.0000 -0.0000
vn -0.0914 0.9306 0.3545
vn -0.0885 0.9102 0.4045
vn -0.0008 0.9988 0.0481
vn -0.0006 0.9967 0.0812
vn -0.0005 0.9978 0.0662
vn -0.8749 -0.0000 0.4843
vn -0.8768 -0.0000 0.4809
vn -0.0000 -0.0347 -0.9994
vn -0.0000 -0.0345 -0.9994
vn -0.0000 -0.0312 -0.9995
vn -0.0000 -0.0000 -1.0000
vn -0.9999 -0.0137 -0.0078
vn -0.0000 -0.8944 -0.4472
vn -0.9998 -0.0156 -0.0078
vn -0.0000 0.0503 -0.9987
vn -0.0000 0.0507 -0.9987
vn -0.0000 0.0520 -0.9986
vn 0.7071 -0.0000 -0.7071
vn 0.0312 -0.9990 -0.0312
vn 0.0623 -0.9976 -0.0312
vn -0.9631 0.1204 0.2408
vn -0.0000 0.4472 0.8944
vn -0.9701 0.2425 -0.0000
vn 0.0624 0.0010 -0.9981
vn 0.0933 0.0019 -0.9956
vn 0.0933 0.0029 -0.9956
vn 0.9981 -0.0000 0.0624
vn 0.0349 -0.9994 -0.0000
vn 0.0294 -0.9996 -0.0000
vn 0.0384 -0.9993 -0.0000
vn 0.0495 -0.9988 -0.0000
vn 0.0511 -0.9987 -0.0000
vn 0.0665 -0.9978 -0.0000
vn -0.2425 -0.9701 -0.0000
vn -0.4472 -0.8944 -0.0000
vn -0.6748 0.7380 -0.0000
vn -0.7643 0.6449 -0.0000
vn -0.4831 0.8756 -0.0000
vn -0.1480 0.0017 -0.9890
vn 0.0442 -0.9343 0.3538
vn 0.0366 -0.9993 -0.0000
vn 0.0462 -0.9279 0.3700
vn -0.3924 0.9198 -0.0000
vn -0.4061 0.9138 -0.0000
vn -0.4109 0.9117 -0.0000
vn 0.0061 -1.0000 -0.0000
vn 0.0060 -1.0000 -0.0000
vn -0.1018 0.8472 0.5214
vn -0.0903 0.7967 0.5976
vn -0.0978 0.8281 0.5520
vn 0.0081 -1.0000 -0.0000
vn 0.0077 -1.0000 -0.0000
vn 0.0076 -1.0000 -0.0000
vn -0.0000 -0.0155 0.9999
vn -0.0000 -0.0150 0.9999
vn -0.0000 -0.0146 0.9999
vn -0.8944 -0.0000 0.4472
vn -0.7071 -0.0000 0.7071
vn -0.0000 -0.0195 0.9998
vn -0.0000 -0.0192 0.9998
vn -0.0000 -0.0196 0.9998
vn 0.0692 -0.8301 -0.5534
vn 0.1111 -0.4444 -0.8889
vn 0.0692 -0.5534 -0.8301
vn 0.2276 0.9671 0.1138
vn 0.2952 0.9349 0.1968
vn 0.2532 0.9621 0.1013
vn -0.0121 0.9999 -0.0000
vn -0.0116 0.9999 -0.0000
vn -0.0115 0.9999 -0.0000
vn -0.9490 -0.0000 0.3152
vn -0.9440 -0.0000 0.3300
vn -0.9460 -0.0000 0.3243
vn -0.0558 -0.4465 -0.8930
vn -0.1111 -0.4444 -0.8889
vn -0.0411 -0.1643 -0.9856
vn -0.0126 0.9999 -0.0000
vn 0.9922 0.1245 -0.0000
vn 0.9917 0.1286 -0.0000
vn -0.9989 -0.0477 -0.0000
vn -0.9983 -0.0591 -0.0000
vn -0.9909 -0.0527 -0.1239
vn -0.9974 -0.0356 -0.0623
vn -0.0002 -0.7809 0.6247
vn -0.0002 -0.7071 0.7071
vn -0.0002 -0.6000 0.8000
vn 0.0003 -0.7071 -0.7071
vn 0.0002 -0.7071 -0.7071
vn 0.0002 -0.5547 -0.8321
vt 0.978995 0.725464
vt 0.989222 0.725228
vt 0.989221 0.725560
vt 0.979170 0.310794
vt 0.989531 0.310686
vt 0.989531 0.311071
vt 0.989222 0.694897
vt 0.978995 0.695156
vt 0.978996 0.694828
vt 0.978995 0.669031
vt 0.989222 0.668771
vt 0.989221 0.669103
vt 0.978995 0.699430
vt 0.989222 0.699171
vt 0.989221 0.699503
vt 0.978995 0.742859
vt 0.989222 0.742600
vt 0.989221 0.742932
vt 0.989531 0.405683
vt 0.979305 0.405824
vt 0.979305 0.405503
vt 0.989221 0.703698
vt 0.978995 0.703842
vt 0.978996 0.703514
vt 0.989221 0.729755
vt 0.978995 0.729899
vt 0.978996 0.729571
vt 0.989222 0.760040
vt 0.978995 0.760299
vt 0.978996 0.759971
vt 0.979172 0.287563
vt 0.989531 0.287198
vt 0.989531 0.287700
vt 0.979172 0.296855
vt 0.989531 0.296489
vt 0.989531 0.296991
vt 0.979305 0.301638
vt 0.989531 0.301134
vt 0.989531 0.301637
vt 0.989531 0.375333
vt 0.979305 0.375474
vt 0.979305 0.375153
vt 0.979172 0.352600
vt 0.989531 0.352235
vt 0.989531 0.352627
vt 0.979305 0.315575
vt 0.989531 0.315071
vt 0.989531 0.315463
vt 0.979305 0.334157
vt 0.989531 0.333653
vt 0.989531 0.334235
vt 0.989221 0.738441
vt 0.978995 0.738585
vt 0.978996 0.738257
vt 0.989221 0.677641
vt 0.978995 0.677785
vt 0.978996 0.677457
vt 0.989222 0.681869
vt 0.978995 0.682128
vt 0.978996 0.681800
vt 0.989221 0.716727
vt 0.978995 0.716871
vt 0.978996 0.716543
vt 0.989531 0.329426
vt 0.979305 0.329653
vt 0.979306 0.329151
vt 0.989531 0.259839
vt 0.979305 0.259970
vt 0.979306 0.259467
vt 0.269491 0.270247
vt 0.405263 0.269477
vt 0.405439 0.270886
vt 0.480515 0.486456
vt 0.481111 0.622458
vt 0.480153 0.622497
vt 0.432695 0.002785
vt 0.327109 0.255435
vt 0.221535 0.002717
vt 0.213999 0.002777
vt 0.108335 0.255434
vt 0.002760 0.002717
vt 0.687733 0.207013
vt 0.765110 0.003593
vt 0.842439 0.207042
vt 0.614586 0.742226
vt 0.818028 0.664982
vt 0.818043 0.819540
vt 0.619283 0.012577
vt 0.679735 0.222507
vt 0.558795 0.222558
vt 0.472435 0.484531
vt 0.472453 0.605469
vt 0.262488 0.545035
vt 0.325079 0.787419
vt 0.352364 0.787364
vt 0.338793 0.845343
vt 0.443344 0.613206
vt 0.471126 0.613155
vt 0.457255 0.671117
vt 0.483703 0.802746
vt 0.495490 0.856704
vt 0.471902 0.856676
vt 0.514867 0.802771
vt 0.526870 0.856707
vt 0.502853 0.856696
vt 0.225024 0.617172
vt 0.225392 0.670986
vt 0.224648 0.671040
vt 0.256441 0.545768
vt 0.256849 0.599582
vt 0.256003 0.599583
vt 0.979188 0.599194
vt 0.979302 0.597710
vt 0.989076 0.598552
vt 0.979188 0.616127
vt 0.979302 0.614661
vt 0.989075 0.615495
vt 0.979188 0.604847
vt 0.979302 0.603362
vt 0.989076 0.604205
vt 0.979188 0.610474
vt 0.979302 0.609007
vt 0.989075 0.609841
vt 0.871829 0.256336
vt 0.846871 0.206261
vt 0.896960 0.206340
vt 0.846562 0.139799
vt 0.897328 0.164941
vt 0.846566 0.189987
vt 0.870024 0.536380
vt 0.846760 0.489869
vt 0.893250 0.489832
vt 0.846562 0.439189
vt 0.893713 0.462412
vt 0.846566 0.485712
vt 0.846767 0.624580
vt 0.846766 0.623687
vt 0.895189 0.624139
vt 0.846766 0.608405
vt 0.846766 0.607446
vt 0.895161 0.607945
vt 0.846766 0.603003
vt 0.846767 0.602044
vt 0.895161 0.602543
vt 0.846767 0.629726
vt 0.846766 0.628832
vt 0.895189 0.629284
vt 0.846766 0.619209
vt 0.846766 0.618250
vt 0.895161 0.618749
vt 0.846767 0.650307
vt 0.846766 0.649413
vt 0.895189 0.649865
vt 0.846810 0.069269
vt 0.900008 0.066267
vt 0.900043 0.072198
vt 0.846810 0.049052
vt 0.900008 0.046051
vt 0.900043 0.051981
vt 0.813920 0.436221
vt 0.805658 0.540980
vt 0.797436 0.436210
vt 0.797112 0.211538
vt 0.805332 0.318227
vt 0.788852 0.318202
vt 0.771662 0.212486
vt 0.782506 0.328202
vt 0.760889 0.328243
vt 0.768806 0.482391
vt 0.779649 0.598108
vt 0.758033 0.598148
vt 0.534536 0.861017
vt 0.570717 0.861039
vt 0.552628 0.897867
vt 0.408633 0.861013
vt 0.408636 0.897856
vt 0.371802 0.879433
vt 0.905075 0.664069
vt 0.921519 0.631485
vt 0.938024 0.664069
vt 0.921499 0.885216
vt 0.904874 0.852267
vt 0.938048 0.852267
vt 0.904994 0.204248
vt 0.904994 0.203289
vt 0.939962 0.203787
vt 0.904995 0.257210
vt 0.904994 0.256316
vt 0.939989 0.256768
vt 0.904994 0.209650
vt 0.904994 0.208691
vt 0.939962 0.209189
vt 0.904995 0.262355
vt 0.904994 0.261461
vt 0.939989 0.261914
vt 0.904994 0.144826
vt 0.904994 0.143867
vt 0.939962 0.144365
vt 0.904995 0.246920
vt 0.904994 0.246026
vt 0.939989 0.246478
vt 0.111261 0.861075
vt 0.108345 0.900102
vt 0.105360 0.861111
vt 0.091105 0.861075
vt 0.088189 0.900102
vt 0.085204 0.861110
vt 0.575056 0.879436
vt 0.611237 0.861039
vt 0.611237 0.897882
vt 0.367456 0.861013
vt 0.349044 0.897855
vt 0.330627 0.861013
vt 0.905075 0.553903
vt 0.921519 0.521320
vt 0.938024 0.553903
vt 0.921499 0.774365
vt 0.904875 0.741415
vt 0.938049 0.741415
vt 0.904994 0.155630
vt 0.904994 0.154671
vt 0.939962 0.155169
vt 0.904995 0.252065
vt 0.904994 0.251171
vt 0.939989 0.251623
vt 0.904994 0.150228
vt 0.904994 0.149269
vt 0.939962 0.149767
vt 0.904995 0.267501
vt 0.904994 0.266607
vt 0.939989 0.267059
vt 0.904994 0.177238
vt 0.904995 0.176279
vt 0.939961 0.176777
vt 0.904994 0.272646
vt 0.904994 0.271752
vt 0.939989 0.272204
vt 0.070950 0.861075
vt 0.068034 0.900102
vt 0.065049 0.861111
vt 0.121339 0.861075
vt 0.118423 0.900102
vt 0.115438 0.861111
vt 0.819914 0.434821
vt 0.836767 0.434816
vt 0.828351 0.492434
vt 0.822456 0.322032
vt 0.839616 0.322015
vt 0.831046 0.379624
vt 0.945415 0.518238
vt 0.973551 0.523155
vt 0.945419 0.528075
vt 0.945437 0.260871
vt 0.974087 0.255952
vt 0.974083 0.265786
vt 0.945417 0.466933
vt 0.973550 0.462013
vt 0.973553 0.471850
vt 0.945439 0.213794
vt 0.974085 0.218710
vt 0.945435 0.223629
vt 0.945415 0.490126
vt 0.973551 0.495043
vt 0.945419 0.499963
vt 0.945437 0.232765
vt 0.974087 0.227846
vt 0.974083 0.237680
vt 0.203242 0.950844
vt 0.195040 0.972293
vt 0.186840 0.950820
vt 0.339200 0.950817
vt 0.347403 0.971901
vt 0.330995 0.971885
vt 0.986084 0.253888
vt 0.980651 0.247034
vt 0.988521 0.245799
vt 0.988313 0.147306
vt 0.980664 0.145910
vt 0.986071 0.139181
vt 0.979204 0.870293
vt 0.979121 0.868487
vt 0.988127 0.869330
vt 0.979205 0.900930
vt 0.979120 0.899096
vt 0.988125 0.899952
vt 0.882072 0.950874
vt 0.883953 0.950832
vt 0.883053 0.965300
vt 0.937646 0.965300
vt 0.936665 0.950874
vt 0.938546 0.950832
vt 0.876007 0.950874
vt 0.877887 0.950832
vt 0.876988 0.965300
vt 0.949778 0.965300
vt 0.948797 0.950874
vt 0.950678 0.950832
vt 0.169590 0.944558
vt 0.184138 0.912018
vt 0.198687 0.944569
vt 0.451642 0.912022
vt 0.466191 0.944551
vt 0.437094 0.944554
vt 0.945299 0.002292
vt 0.974212 0.014860
vt 0.945299 0.027540
vt 0.713676 0.911977
vt 0.726329 0.941023
vt 0.701108 0.941065
vt 0.945508 0.883817
vt 0.945452 0.883039
vt 0.972748 0.883424
vt 0.945505 0.658180
vt 0.945505 0.657288
vt 0.972752 0.657739
vt 0.945505 0.616990
vt 0.945505 0.616097
vt 0.972752 0.616548
vt 0.945508 0.922221
vt 0.945452 0.921443
vt 0.972748 0.921828
vt 0.945508 0.907819
vt 0.945452 0.907041
vt 0.972748 0.907426
vt 0.945505 0.622138
vt 0.945505 0.621246
vt 0.972752 0.621697
vt 0.940192 0.114037
vt 0.905040 0.111126
vt 0.940157 0.108148
vt 0.940192 0.103972
vt 0.905040 0.101061
vt 0.940157 0.098082
vt 0.217576 0.944564
vt 0.203028 0.912014
vt 0.232125 0.912023
vt 0.399315 0.912019
vt 0.384766 0.944553
vt 0.370218 0.912025
vt 0.945299 0.044739
vt 0.974195 0.032023
vt 0.974229 0.057343
vt 0.815804 0.911961
vt 0.803188 0.941044
vt 0.790484 0.911994
vt 0.945508 0.912620
vt 0.945452 0.911842
vt 0.972748 0.912227
vt 0.945505 0.632436
vt 0.945505 0.631544
vt 0.972752 0.631995
vt 0.945505 0.663329
vt 0.945505 0.662437
vt 0.972752 0.662888
vt 0.945508 0.927021
vt 0.945452 0.926243
vt 0.972748 0.926628
vt 0.945508 0.931822
vt 0.945452 0.931044
vt 0.972748 0.931429
vt 0.945505 0.627287
vt 0.945505 0.626395
vt 0.972752 0.626846
vt 0.940175 0.131223
vt 0.905058 0.134200
vt 0.905023 0.128312
vt 0.940175 0.030572
vt 0.905058 0.033549
vt 0.905023 0.027661
vt 0.236466 0.944558
vt 0.251014 0.912018
vt 0.265563 0.944569
vt 0.317890 0.912022
vt 0.332439 0.944551
vt 0.303342 0.944554
vt 0.945300 0.061937
vt 0.974213 0.074506
vt 0.945299 0.087185
vt 0.743499 0.911978
vt 0.756152 0.941023
vt 0.730931 0.941065
vt 0.945508 0.888617
vt 0.945452 0.887839
vt 0.972748 0.888224
vt 0.945505 0.596394
vt 0.945505 0.595502
vt 0.972752 0.595953
vt 0.945505 0.637585
vt 0.945505 0.636693
vt 0.972752 0.637143
vt 0.945508 0.874216
vt 0.945452 0.873438
vt 0.972748 0.873822
vt 0.945505 0.647883
vt 0.945505 0.646991
vt 0.972752 0.647442
vt 0.945508 0.917420
vt 0.945452 0.916642
vt 0.972748 0.917027
vt 0.940192 0.043581
vt 0.905040 0.040670
vt 0.940157 0.037692
vt 0.940192 0.124102
vt 0.905040 0.121191
vt 0.940157 0.118213
vt 0.256730 0.479594
vt 0.256841 0.276082
vt 0.481007 0.377885
vt 0.008314 0.483891
vt 0.008324 0.280286
vt 0.232541 0.382137
vt 0.487439 0.466721
vt 0.608321 0.466686
vt 0.547863 0.676659
vt 0.223960 0.549285
vt 0.014021 0.609760
vt 0.013988 0.488878
vt 0.290806 0.787419
vt 0.318091 0.787364
vt 0.304519 0.845343
vt 0.407642 0.758869
vt 0.435425 0.758818
vt 0.421553 0.816780
vt 0.453713 0.802746
vt 0.465501 0.856704
vt 0.441913 0.856677
vt 0.546285 0.802771
vt 0.558287 0.856707
vt 0.534270 0.856696
vt 0.846768 0.002611
vt 0.900582 0.002243
vt 0.900636 0.002987
vt 0.255013 0.485789
vt 0.255421 0.539603
vt 0.254575 0.539604
vt 0.979188 0.593541
vt 0.979302 0.592057
vt 0.989075 0.592899
vt 0.979188 0.627434
vt 0.979302 0.625968
vt 0.989075 0.626802
vt 0.979245 0.621047
vt 0.989132 0.620405
vt 0.989018 0.621890
vt 0.979245 0.587146
vt 0.989133 0.586514
vt 0.989018 0.587979
vt 0.846564 0.110594
vt 0.897327 0.085596
vt 0.897329 0.135688
vt 0.846830 0.310554
vt 0.871916 0.260519
vt 0.896827 0.310554
vt 0.870024 0.587047
vt 0.846760 0.540537
vt 0.893250 0.540499
vt 0.846562 0.388504
vt 0.893713 0.411728
vt 0.846566 0.435028
vt 0.846767 0.634871
vt 0.846766 0.633977
vt 0.895189 0.634429
vt 0.846766 0.613807
vt 0.846766 0.612848
vt 0.895161 0.613347
vt 0.846766 0.592199
vt 0.846767 0.591240
vt 0.895161 0.591739
vt 0.846767 0.640016
vt 0.846766 0.639123
vt 0.895189 0.639575
vt 0.846767 0.645162
vt 0.846766 0.644268
vt 0.895189 0.644720
vt 0.846766 0.597601
vt 0.846767 0.596642
vt 0.895161 0.597141
vt 0.846792 0.035978
vt 0.900025 0.038907
vt 0.846827 0.041909
vt 0.846793 0.056195
vt 0.900025 0.059124
vt 0.846828 0.062126
vt 0.161568 0.785995
vt 0.268232 0.794254
vt 0.161543 0.802474
vt 0.805678 0.547605
vt 0.813900 0.652375
vt 0.797416 0.652362
vt 0.162482 0.758033
vt 0.278240 0.768806
vt 0.162523 0.779649
vt 0.285296 0.760889
vt 0.401054 0.771663
vt 0.285337 0.782506
vt 0.453496 0.861017
vt 0.489676 0.879461
vt 0.453495 0.897856
vt 0.184342 0.861013
vt 0.202762 0.897856
vt 0.165928 0.897854
vt 0.904951 0.811316
vt 0.921462 0.778365
vt 0.938047 0.811315
vt 0.921549 0.480460
vt 0.904988 0.447895
vt 0.938049 0.447857
vt 0.904994 0.182640
vt 0.904994 0.181681
vt 0.939962 0.182179
vt 0.904995 0.277791
vt 0.904994 0.276897
vt 0.939989 0.277350
vt 0.904994 0.161032
vt 0.904994 0.160073
vt 0.939962 0.160571
vt 0.904995 0.282937
vt 0.904994 0.282043
vt 0.939989 0.282495
vt 0.904994 0.139424
vt 0.904994 0.138465
vt 0.939962 0.138963
vt 0.904995 0.288082
vt 0.904994 0.287188
vt 0.939989 0.287640
vt 0.148623 0.861093
vt 0.151608 0.900084
vt 0.145707 0.900119
vt 0.047844 0.861093
vt 0.050829 0.900084
vt 0.044928 0.900119
vt 0.615577 0.861017
vt 0.651757 0.879461
vt 0.615577 0.897857
vt 0.225517 0.861013
vt 0.243937 0.897856
vt 0.207107 0.897858
vt 0.921549 0.627347
vt 0.904988 0.594782
vt 0.938049 0.594744
vt 0.904994 0.215052
vt 0.904994 0.214093
vt 0.939962 0.214591
vt 0.904995 0.236629
vt 0.904994 0.235735
vt 0.939989 0.236187
vt 0.904995 0.293227
vt 0.904994 0.292333
vt 0.939989 0.292785
vt 0.904994 0.220454
vt 0.904994 0.219495
vt 0.939962 0.219993
vt 0.904994 0.166434
vt 0.904994 0.165475
vt 0.939962 0.165973
vt 0.904995 0.298372
vt 0.904994 0.297478
vt 0.939989 0.297931
vt 0.128467 0.861093
vt 0.131452 0.900084
vt 0.125551 0.900119
vt 0.078077 0.861093
vt 0.081062 0.900084
vt 0.075161 0.900119
vt 0.494020 0.861013
vt 0.530197 0.879461
vt 0.494016 0.897857
vt 0.266693 0.861016
vt 0.285112 0.897856
vt 0.248278 0.897854
vt 0.921549 0.517182
vt 0.904988 0.484617
vt 0.938049 0.484579
vt 0.904951 0.737415
vt 0.921462 0.704464
vt 0.938047 0.737414
vt 0.904994 0.303071
vt 0.939962 0.302646
vt 0.940017 0.303506
vt 0.904994 0.192964
vt 0.939961 0.192501
vt 0.939962 0.193466
vt 0.904994 0.308216
vt 0.939961 0.307791
vt 0.940017 0.308651
vt 0.904994 0.198366
vt 0.939961 0.197903
vt 0.939962 0.198868
vt 0.904994 0.313361
vt 0.939961 0.312937
vt 0.940017 0.313796
vt 0.904994 0.225376
vt 0.939961 0.224913
vt 0.939962 0.225878
vt 0.158701 0.861093
vt 0.161686 0.900084
vt 0.155785 0.900119
vt 0.138545 0.861093
vt 0.141530 0.900084
vt 0.135629 0.900119
vt 0.412976 0.861017
vt 0.449158 0.879459
vt 0.412976 0.897857
vt 0.307868 0.861016
vt 0.326286 0.897856
vt 0.289456 0.897858
vt 0.921549 0.590625
vt 0.904988 0.558060
vt 0.938049 0.558022
vt 0.002000 0.912002
vt 0.034951 0.928511
vt 0.002002 0.945098
vt 0.904994 0.318507
vt 0.939961 0.318082
vt 0.940017 0.318942
vt 0.904994 0.171356
vt 0.939961 0.170892
vt 0.939962 0.171858
vt 0.904994 0.241327
vt 0.939962 0.240903
vt 0.940017 0.241762
vt 0.904994 0.230778
vt 0.939961 0.230315
vt 0.939962 0.231280
vt 0.904994 0.323652
vt 0.939962 0.323227
vt 0.940017 0.324087
vt 0.904994 0.187562
vt 0.939961 0.187099
vt 0.939962 0.188065
vt 0.057922 0.861093
vt 0.060907 0.900084
vt 0.055006 0.900119
vt 0.098233 0.861093
vt 0.101218 0.900084
vt 0.095317 0.900119
vt 0.819600 0.563376
vt 0.836760 0.563359
vt 0.828190 0.620968
vt 0.819914 0.499084
vt 0.836767 0.499080
vt 0.828351 0.556697
vt 0.945439 0.241901
vt 0.974085 0.246816
vt 0.945435 0.251735
vt 0.945417 0.537212
vt 0.973550 0.532292
vt 0.973553 0.542129
vt 0.945415 0.504182
vt 0.973551 0.509099
vt 0.945419 0.514019
vt 0.945437 0.190605
vt 0.974087 0.185686
vt 0.974083 0.195521
vt 0.945417 0.480988
vt 0.973550 0.476069
vt 0.973553 0.485905
vt 0.945439 0.199741
vt 0.974085 0.204657
vt 0.945435 0.209576
vt 0.359985 0.950817
vt 0.368188 0.971901
vt 0.351780 0.971885
vt 0.161682 0.950844
vt 0.153480 0.972293
vt 0.145279 0.950820
vt 0.986084 0.223453
vt 0.980651 0.216599
vt 0.988521 0.215364
vt 0.988313 0.177674
vt 0.980664 0.176279
vt 0.986071 0.169550
vt 0.979204 0.864198
vt 0.979121 0.862392
vt 0.988127 0.863235
vt 0.979205 0.888664
vt 0.979120 0.886829
vt 0.988125 0.887686
vt 0.942731 0.950874
vt 0.944612 0.950832
vt 0.943712 0.965300
vt 0.955844 0.965300
vt 0.954862 0.950874
vt 0.956743 0.950832
vt 0.960928 0.950874
vt 0.962809 0.950832
vt 0.961909 0.965300
vt 0.913383 0.965300
vt 0.912402 0.950874
vt 0.914283 0.950832
vt 0.485080 0.912022
vt 0.499629 0.944551
vt 0.470532 0.944554
vt 0.269904 0.944558
vt 0.284452 0.912018
vt 0.299001 0.944569
vt 0.845627 0.911961
vt 0.833010 0.941044
vt 0.820307 0.911994
vt 0.945300 0.104384
vt 0.974196 0.091668
vt 0.974230 0.116988
vt 0.945508 0.941422
vt 0.945452 0.940645
vt 0.972748 0.941030
vt 0.945505 0.601543
vt 0.945505 0.600651
vt 0.972752 0.601102
vt 0.945508 0.893418
vt 0.945452 0.892640
vt 0.972748 0.893024
vt 0.945505 0.606692
vt 0.945505 0.605800
vt 0.972752 0.606251
vt 0.945508 0.903019
vt 0.945452 0.902241
vt 0.972748 0.902626
vt 0.945505 0.668478
vt 0.945505 0.667586
vt 0.972752 0.668037
vt 0.905023 0.077986
vt 0.940175 0.080897
vt 0.905058 0.083875
vt 0.905023 0.047791
vt 0.940175 0.050702
vt 0.905059 0.053679
vt 0.418204 0.912022
vt 0.432753 0.944551
vt 0.403656 0.944554
vt 0.136152 0.944558
vt 0.150700 0.912018
vt 0.165249 0.944569
vt 0.785982 0.911961
vt 0.773365 0.941044
vt 0.760661 0.911994
vt 0.945300 0.134206
vt 0.974196 0.121491
vt 0.974230 0.146811
vt 0.945508 0.879016
vt 0.945452 0.878238
vt 0.972748 0.878623
vt 0.945505 0.611841
vt 0.945505 0.610948
vt 0.972752 0.611399
vt 0.945508 0.946223
vt 0.945452 0.945445
vt 0.972748 0.945830
vt 0.945505 0.673627
vt 0.945505 0.672735
vt 0.972752 0.673186
vt 0.945508 0.898218
vt 0.945452 0.897440
vt 0.972748 0.897825
vt 0.945505 0.683925
vt 0.945505 0.683033
vt 0.972752 0.683483
vt 0.905041 0.060800
vt 0.940157 0.057822
vt 0.940192 0.063711
vt 0.905040 0.090995
vt 0.940157 0.088018
vt 0.940192 0.093906
vt 0.351328 0.912022
vt 0.365877 0.944551
vt 0.336780 0.944554
vt 0.102714 0.944558
vt 0.117262 0.912018
vt 0.131811 0.944569
vt 0.945299 0.151406
vt 0.974212 0.163974
vt 0.945299 0.176654
vt 0.862790 0.911977
vt 0.875443 0.941023
vt 0.850222 0.941065
vt 0.945508 0.869415
vt 0.945452 0.868637
vt 0.972748 0.869022
vt 0.945505 0.642734
vt 0.945505 0.641842
vt 0.972752 0.642293
vt 0.945505 0.678776
vt 0.945505 0.677884
vt 0.972752 0.678335
vt 0.945508 0.936622
vt 0.945452 0.935844
vt 0.972748 0.936229
vt 0.002009 0.950797
vt 0.002787 0.950741
vt 0.002403 0.978036
vt 0.945505 0.653032
vt 0.945505 0.652139
vt 0.972752 0.652590
vt 0.905041 0.070865
vt 0.940157 0.067887
vt 0.940192 0.073776
vt 0.905040 0.020540
vt 0.940157 0.017562
vt 0.940192 0.023451
vt 0.846845 0.703351
vt 0.846822 0.683854
vt 0.893561 0.693586
vt 0.846851 0.727260
vt 0.846814 0.707540
vt 0.893547 0.717385
vt 0.014775 0.950725
vt 0.022699 0.976737
vt 0.006881 0.976770
vt 0.034907 0.950730
vt 0.042880 0.976806
vt 0.026911 0.976766
vt 0.334882 0.982456
vt 0.335683 0.985312
vt 0.334103 0.985335
vt 0.305282 0.982457
vt 0.306096 0.985313
vt 0.304486 0.985336
vt 0.328979 0.982455
vt 0.329779 0.985312
vt 0.328200 0.985335
vt 0.275599 0.982457
vt 0.276413 0.985313
vt 0.274803 0.985335
vt 0.340785 0.982455
vt 0.341586 0.985312
vt 0.340007 0.985335
vt 0.251852 0.982457
vt 0.252666 0.985313
vt 0.251056 0.985335
vt 0.346689 0.982455
vt 0.347489 0.985312
vt 0.345910 0.985335
vt 0.287472 0.982457
vt 0.288287 0.985313
vt 0.286676 0.985336
vt 0.257788 0.982457
vt 0.258603 0.985313
vt 0.256993 0.985335
vt 0.352592 0.982455
vt 0.353393 0.985312
vt 0.351813 0.985335
vt 0.358495 0.982455
vt 0.359296 0.985312
vt 0.357717 0.985335
vt 0.281535 0.982457
vt 0.282349 0.985313
vt 0.280740 0.985335
vt 0.388013 0.982455
vt 0.388813 0.985312
vt 0.387234 0.985335
vt 0.311219 0.982457
vt 0.312033 0.985313
vt 0.310423 0.985336
vt 0.364399 0.982455
vt 0.365200 0.985312
vt 0.363620 0.985335
vt 0.293409 0.982457
vt 0.294223 0.985313
vt 0.292613 0.985335
vt 0.323075 0.982455
vt 0.323876 0.985312
vt 0.322296 0.985335
vt 0.263725 0.982457
vt 0.264540 0.985313
vt 0.262929 0.985335
vt 0.370302 0.982455
vt 0.371103 0.985312
vt 0.369524 0.985335
vt 0.317155 0.982457
vt 0.317970 0.985313
vt 0.316360 0.985336
vt 0.269662 0.982457
vt 0.270476 0.985313
vt 0.268866 0.985335
vt 0.376206 0.982455
vt 0.377006 0.985312
vt 0.375427 0.985335
vt 0.382109 0.982455
vt 0.382910 0.985312
vt 0.381330 0.985335
vt 0.299345 0.982457
vt 0.300160 0.985313
vt 0.298550 0.985335
vt 0.566618 0.950788
vt 0.574260 0.968423
vt 0.559130 0.968504
vt 0.554767 0.968423
vt 0.539636 0.968504
vt 0.547124 0.950788
vt 0.498074 0.968455
vt 0.506223 0.950806
vt 0.514436 0.968436
vt 0.535188 0.950797
vt 0.527039 0.968445
vt 0.518827 0.950816
vt 0.887993 0.912045
vt 0.896086 0.941343
vt 0.879915 0.941341
vt 0.908628 0.912040
vt 0.916866 0.941325
vt 0.900401 0.941334
vt 0.380770 0.950817
vt 0.388972 0.971901
vt 0.372565 0.971885
vt 0.140901 0.950844
vt 0.132699 0.972293
vt 0.124499 0.950820
vt 0.986084 0.238671
vt 0.980651 0.231816
vt 0.988521 0.230582
vt 0.988313 0.192859
vt 0.980664 0.191463
vt 0.986071 0.184734
vt 0.979163 0.893879
vt 0.988083 0.892902
vt 0.988167 0.894736
vt 0.979162 0.875485
vt 0.988086 0.874528
vt 0.988169 0.876324
vt 0.968916 0.965279
vt 0.967035 0.965321
vt 0.967935 0.950853
vt 0.919408 0.950853
vt 0.920389 0.965279
vt 0.918508 0.965321
vt 0.890060 0.965279
vt 0.888179 0.965321
vt 0.889079 0.950853
vt 0.901211 0.950853
vt 0.902192 0.965279
vt 0.900311 0.965321
vt 0.401554 0.950817
vt 0.409757 0.971901
vt 0.393350 0.971885
vt 0.182462 0.950844
vt 0.174260 0.972293
vt 0.166060 0.950820
vt 0.986084 0.208236
vt 0.980651 0.201381
vt 0.988521 0.200147
vt 0.988313 0.162490
vt 0.980664 0.161094
vt 0.986071 0.154365
vt 0.979204 0.858103
vt 0.979121 0.856297
vt 0.988127 0.857140
vt 0.979205 0.882530
vt 0.979120 0.880696
vt 0.988125 0.881552
vt 0.907277 0.950853
vt 0.908258 0.965279
vt 0.906377 0.965321
vt 0.896126 0.965279
vt 0.894245 0.965322
vt 0.895145 0.950853
vt 0.931540 0.950853
vt 0.932521 0.965279
vt 0.930640 0.965321
vt 0.926455 0.965279
vt 0.924574 0.965321
vt 0.925474 0.950853
vt 0.846660 0.828952
vt 0.892940 0.819081
vt 0.892984 0.838771
vt 0.012147 0.860934
vt 0.022198 0.907194
vt 0.002149 0.907253
vt 0.979233 0.100090
vt 0.991661 0.095823
vt 0.991688 0.104346
vt 0.979232 0.113045
vt 0.991653 0.108700
vt 0.991686 0.117382
vt 0.989531 0.347590
vt 0.989531 0.347981
vt 0.979172 0.347956
vt 0.248691 0.426497
vt 0.249652 0.426457
vt 0.249289 0.562498
vt 0.978995 0.747271
vt 0.978996 0.746943
vt 0.989221 0.747127
vt 0.989531 0.383825
vt 0.989780 0.384146
vt 0.979305 0.383968
vt 0.989531 0.388160
vt 0.989780 0.388482
vt 0.979305 0.388391
vt 0.979060 0.268939
vt 0.979305 0.268615
vt 0.989531 0.269130
vt 0.978995 0.751613
vt 0.978996 0.751286
vt 0.989221 0.751552
vt 0.979060 0.366496
vt 0.979305 0.366172
vt 0.989531 0.366590
vt 0.979305 0.449182
vt 0.979305 0.448861
vt 0.989709 0.449092
vt 0.979060 0.338623
vt 0.979305 0.338299
vt 0.989531 0.338813
vt 0.989531 0.291843
vt 0.989531 0.292346
vt 0.979172 0.292209
vt 0.989531 0.305780
vt 0.989531 0.306282
vt 0.979172 0.306146
vt 0.989531 0.361787
vt 0.989531 0.362172
vt 0.979170 0.361805
vt 0.989531 0.324362
vt 0.989531 0.324754
vt 0.979305 0.324866
vt 0.246913 0.283724
vt 0.248289 0.283819
vt 0.247773 0.419632
vt 0.989222 0.673114
vt 0.989221 0.673446
vt 0.978995 0.673374
vt 0.989222 0.686143
vt 0.989221 0.686475
vt 0.978995 0.686379
vt 0.989531 0.278086
vt 0.989531 0.278552
vt 0.979305 0.278410
vt 0.989222 0.720885
vt 0.989221 0.721217
vt 0.978995 0.721144
vt 0.979305 0.427503
vt 0.979305 0.427182
vt 0.989719 0.427441
vt 0.979305 0.470860
vt 0.979305 0.470539
vt 0.989699 0.470805
vt 0.979305 0.320294
vt 0.979305 0.319717
vt 0.989531 0.320135
vt 0.979305 0.264547
vt 0.979305 0.263970
vt 0.989531 0.264484
vt 0.979305 0.273838
vt 0.979305 0.273261
vt 0.989531 0.273775
vt 0.979305 0.343522
vt 0.979305 0.342944
vt 0.989531 0.343459
vt 0.989531 0.357060
vt 0.989531 0.357527
vt 0.979127 0.357198
vt 0.989531 0.282732
vt 0.989531 0.283198
vt 0.979305 0.282967
s 1
usemtl shop_009_baked
f 117/1/1 118/2/2 116/3/3
f 505/4/4 506/5/5 507/6/6
f 516/7/7 514/8/7 515/9/7
f 123/10/8 122/11/9 124/12/10
f 128/13/11 129/14/12 130/15/13
f 341/16/14 340/17/15 342/18/16
f 344/19/17 343/20/18 345/21/19
f 471/22/20 470/23/21 469/24/22
f 475/25/23 477/26/24 476/27/25
f 512/28/26 513/29/27 511/30/28
f 466/31/7 468/32/7 467/33/7
f 474/34/7 472/35/7 473/36/7
f 478/37/7 479/38/7 480/39/7
f 504/40/29 502/41/30 503/42/31
f 510/43/7 509/44/7 508/45/7
f 516/46/7 515/47/7 514/48/7
f 328/49/32 329/50/33 330/51/32
f 466/52/7 467/53/7 468/54/7
f 474/55/7 473/56/7 472/57/7
f 478/58/7 480/59/7 479/60/7
f 510/61/7 508/62/7 509/63/7
f 115/64/34 113/65/35 114/66/36
f 121/67/37 120/68/38 119/69/39
f 527/70/7 526/71/7 528/72/7
f 527/73/7 528/74/7 526/75/7
f 13/76/40 12/77/40 11/78/7
f 11/79/7 12/80/40 13/81/40
f 15/82/41 16/83/41 14/84/41
f 16/85/41 15/86/41 14/87/41
f 19/88/42 18/89/43 17/90/44
f 17/91/44 18/92/43 19/93/42
f 21/94/45 20/95/46 22/96/47
f 20/97/46 21/98/45 22/99/47
f 25/100/7 24/101/7 23/102/7
f 25/103/7 23/104/7 24/105/7
f 26/106/7 27/107/7 28/108/7
f 26/109/7 28/110/7 27/111/7
f 31/112/7 29/113/7 30/114/7
f 29/115/7 31/116/7 30/117/7
f 32/118/7 33/119/7 34/120/7
f 33/121/7 32/122/7 34/123/7
f 37/124/48 35/125/7 36/126/48
f 35/127/7 37/128/48 36/129/48
f 39/130/7 40/131/7 38/132/7
f 40/133/7 39/134/7 38/135/7
f 41/136/49 42/137/7 43/138/49
f 42/139/7 41/140/49 43/141/49
f 46/142/7 45/143/7 44/144/7
f 45/145/7 46/146/7 44/147/7
f 47/148/49 49/149/49 48/150/49
f 49/151/49 47/152/49 48/153/49
f 50/154/7 51/155/7 52/156/7
f 50/157/7 52/158/7 51/159/7
f 53/160/50 54/161/51 55/162/52
f 54/163/51 53/164/50 55/165/52
f 57/166/7 56/167/7 58/168/7
f 57/169/7 58/170/7 56/171/7
f 60/172/7 61/173/7 59/174/7
f 61/175/7 60/176/7 59/177/7
f 62/178/53 63/179/54 64/180/7
f 63/181/54 62/182/53 64/183/7
f 67/184/7 66/185/7 65/186/7
f 66/187/7 67/188/7 65/189/7
f 69/190/7 70/191/7 68/192/7
f 70/193/7 69/194/7 68/195/7
f 73/196/7 71/197/7 72/198/7
f 71/199/7 73/200/7 72/201/7
f 74/202/55 75/203/56 76/204/57
f 76/205/57 75/206/56 74/207/55
f 77/208/58 78/209/59 79/210/60
f 78/211/59 77/212/58 79/213/60
f 82/214/61 80/215/62 81/216/63
f 80/217/62 82/218/61 81/219/63
f 84/220/7 85/221/7 83/222/7
f 85/223/7 84/224/7 83/225/7
f 87/226/7 86/227/7 88/228/7
f 86/229/7 87/230/7 88/231/7
f 91/232/7 89/233/7 90/234/7
f 89/235/7 91/236/7 90/237/7
f 93/238/49 92/239/49 94/240/49
f 94/241/49 92/242/49 93/243/49
f 95/244/7 97/245/7 96/246/7
f 97/247/7 95/248/7 96/249/7
f 100/250/7 99/251/64 98/252/64
f 99/253/64 100/254/7 98/255/64
f 101/256/65 102/257/7 103/258/65
f 102/259/7 101/260/65 103/261/65
f 106/262/7 104/263/64 105/264/64
f 104/265/64 106/266/7 105/267/64
f 107/268/66 108/269/67 109/270/7
f 108/271/67 107/272/66 109/273/7
f 112/274/68 110/275/69 111/276/70
f 111/277/70 110/278/69 112/279/68
f 133/280/7 131/281/7 132/282/7
f 131/283/7 133/284/7 132/285/7
f 135/286/71 136/287/71 134/288/72
f 134/289/72 136/290/71 135/291/71
f 137/292/40 139/293/40 138/294/40
f 138/295/40 139/296/40 137/297/40
f 140/298/73 142/299/74 141/300/75
f 142/301/74 140/302/73 141/303/75
f 144/304/65 143/305/65 145/306/7
f 143/307/65 144/308/65 145/309/7
f 146/310/7 147/311/7 148/312/7
f 147/313/7 146/314/7 148/315/7
f 151/316/7 149/317/7 150/318/7
f 149/319/7 151/320/7 150/321/7
f 152/322/7 154/323/7 153/324/7
f 154/325/7 152/326/7 153/327/7
f 155/328/7 156/329/7 157/330/7
f 157/331/7 156/332/7 155/333/7
f 158/334/76 160/335/76 159/336/76
f 160/337/76 158/338/76 159/339/76
f 161/340/77 163/341/78 162/342/79
f 163/343/78 161/344/77 162/345/79
f 164/346/7 166/347/7 165/348/7
f 166/349/7 164/350/7 165/351/7
f 168/352/7 167/353/7 169/354/7
f 167/355/7 168/356/7 169/357/7
f 172/358/7 170/359/7 171/360/7
f 170/361/7 172/362/7 171/363/7
f 174/364/7 173/365/7 175/366/7
f 174/367/7 175/368/7 173/369/7
f 176/370/80 178/371/81 177/372/82
f 178/373/81 176/374/80 177/375/82
f 179/376/7 181/377/7 180/378/7
f 181/379/7 179/380/7 180/381/7
f 182/382/7 184/383/7 183/384/7
f 184/385/7 182/386/7 183/387/7
f 186/388/7 187/389/7 185/390/7
f 187/391/7 186/392/7 185/393/7
f 189/394/7 190/395/7 188/396/7
f 190/397/7 189/398/7 188/399/7
f 193/400/83 192/401/84 191/402/85
f 191/403/85 192/404/84 193/405/83
f 196/406/86 194/407/87 195/408/88
f 194/409/87 196/410/86 195/411/88
f 198/412/7 199/413/64 197/414/64
f 197/415/64 199/416/64 198/417/7
f 201/418/7 202/419/49 200/420/49
f 202/421/49 201/422/7 200/423/49
f 203/424/7 205/425/7 204/426/7
f 203/427/7 204/428/7 205/429/7
f 206/430/7 208/431/7 207/432/7
f 206/433/7 207/434/7 208/435/7
f 210/436/7 211/437/7 209/438/7
f 211/439/7 210/440/7 209/441/7
f 214/442/7 212/443/7 213/444/7
f 214/445/7 213/446/7 212/447/7
f 215/448/65 216/449/7 217/450/65
f 216/451/7 215/452/65 217/453/65
f 220/454/89 218/455/90 219/456/91
f 218/457/90 220/458/89 219/459/91
f 222/460/40 221/461/92 223/462/64
f 221/463/92 222/464/40 223/465/64
f 226/466/40 224/467/40 225/468/40
f 224/469/40 226/470/40 225/471/40
f 229/472/7 228/473/7 227/474/7
f 228/475/7 229/476/7 227/477/7
f 231/478/64 230/479/64 232/480/64
f 232/481/64 230/482/64 231/483/64
f 233/484/93 235/485/94 234/486/95
f 235/487/94 233/488/93 234/489/95
f 237/490/49 238/491/49 236/492/49
f 236/493/49 238/494/49 237/495/49
f 241/496/96 240/497/97 239/498/98
f 240/499/97 241/500/96 239/501/98
f 243/502/99 242/503/100 244/504/7
f 242/505/100 243/506/99 244/507/7
f 247/508/7 245/509/7 246/510/7
f 245/511/7 247/512/7 246/513/7
f 248/514/7 249/515/7 250/516/7
f 249/517/7 248/518/7 250/519/7
f 252/520/7 251/521/7 253/522/7
f 251/523/7 252/524/7 253/525/7
f 254/526/7 256/527/7 255/528/7
f 254/529/7 255/530/7 256/531/7
f 259/532/101 258/533/102 257/534/103
f 258/535/102 259/536/101 257/537/103
f 240/538/104 261/539/104 260/540/104
f 264/541/7 263/542/7 262/543/7
f 263/544/7 264/545/7 262/546/7
f 265/547/7 267/548/7 266/549/7
f 267/550/7 265/551/7 266/552/7
f 269/553/7 268/554/7 270/555/7
f 268/556/7 269/557/7 270/558/7
f 271/559/7 272/560/7 273/561/7
f 271/562/7 273/563/7 272/564/7
f 276/565/105 274/566/106 275/567/107
f 274/568/106 276/569/105 275/570/107
f 277/571/64 279/572/64 278/573/64
f 279/574/64 277/575/64 278/576/64
f 281/577/7 282/578/7 280/579/7
f 281/580/7 280/581/7 282/582/7
f 284/583/7 285/584/7 283/585/7
f 284/586/7 283/587/7 285/588/7
f 287/589/7 288/590/7 286/591/7
f 287/592/7 286/593/7 288/594/7
f 289/595/7 291/596/7 290/597/7
f 289/598/7 290/599/7 291/600/7
f 293/601/108 292/602/109 294/603/110
f 292/604/109 293/605/108 294/606/110
f 296/607/7 297/608/64 295/609/64
f 297/610/64 296/611/7 295/612/64
f 298/613/7 300/614/7 299/615/7
f 298/616/7 299/617/7 300/618/7
f 303/619/7 302/620/7 301/621/7
f 303/622/7 301/623/7 302/624/7
f 304/625/7 305/626/7 306/627/7
f 304/628/7 306/629/7 305/630/7
f 307/631/7 309/632/7 308/633/7
f 307/634/7 308/635/7 309/636/7
f 312/637/64 310/638/64 311/639/64
f 310/640/64 312/641/64 311/642/64
f 314/643/111 313/644/112 315/645/7
f 313/646/112 314/647/111 315/648/7
f 318/649/48 316/650/48 317/651/7
f 316/652/48 318/653/48 317/654/7
f 320/655/7 319/656/49 321/657/49
f 319/658/49 320/659/7 321/660/49
f 322/661/113 323/662/114 324/663/115
f 323/664/114 322/665/113 324/666/115
f 326/667/116 327/668/117 325/669/118
f 325/670/118 327/671/117 326/672/116
f 347/673/7 346/674/7 348/675/7
f 346/676/7 347/677/7 348/678/7
f 350/679/49 351/680/49 349/681/49
f 349/682/49 351/683/49 350/684/49
f 353/685/49 354/686/49 352/687/49
f 352/688/49 354/689/49 353/690/49
f 355/691/119 357/692/120 356/693/121
f 357/694/120 355/695/119 356/696/121
f 359/697/7 360/698/7 358/699/7
f 360/700/7 359/701/7 358/702/7
f 363/703/7 362/704/7 361/705/7
f 362/706/7 363/707/7 361/708/7
f 364/709/7 366/710/7 365/711/7
f 366/712/7 364/713/7 365/714/7
f 368/715/7 367/716/7 369/717/7
f 367/718/7 368/719/7 369/720/7
f 372/721/122 371/722/123 370/723/123
f 370/724/123 371/725/123 372/726/122
f 374/727/40 375/728/40 373/729/40
f 375/730/40 374/731/40 373/732/40
f 377/733/7 376/734/7 378/735/7
f 376/736/7 377/737/7 378/738/7
f 379/739/7 381/740/7 380/741/7
f 381/742/7 379/743/7 380/744/7
f 382/745/7 384/746/7 383/747/7
f 384/748/7 382/749/7 383/750/7
f 387/751/7 385/752/7 386/753/7
f 385/754/7 387/755/7 386/756/7
f 388/757/7 389/758/7 390/759/7
f 388/760/7 390/761/7 389/762/7
f 393/763/124 391/764/125 392/765/126
f 391/766/125 393/767/124 392/768/126
f 395/769/7 394/770/7 396/771/7
f 394/772/7 395/773/7 396/774/7
f 398/775/7 397/776/7 399/777/7
f 397/778/7 398/779/7 399/780/7
f 402/781/7 400/782/7 401/783/7
f 400/784/7 402/785/7 401/786/7
f 405/787/7 404/788/7 403/789/7
f 404/790/7 405/791/7 403/792/7
f 407/793/7 406/794/7 408/795/7
f 407/796/7 408/797/7 406/798/7
f 409/799/48 411/800/7 410/801/48
f 411/802/7 409/803/48 410/804/48
f 413/805/7 414/806/7 412/807/7
f 413/808/7 412/809/7 414/810/7
f 417/811/7 415/812/7 416/813/7
f 417/814/7 416/815/7 415/816/7
f 420/817/7 418/818/7 419/819/7
f 420/820/7 419/821/7 418/822/7
f 421/823/7 422/824/7 423/825/7
f 421/826/7 423/827/7 422/828/7
f 425/829/7 424/830/7 426/831/7
f 425/832/7 426/833/7 424/834/7
f 428/835/7 427/836/7 429/837/7
f 428/838/7 429/839/7 427/840/7
f 430/841/7 431/842/7 432/843/7
f 430/844/7 432/845/7 431/846/7
f 433/847/7 435/848/7 434/849/7
f 433/850/7 434/851/7 435/852/7
f 436/853/7 437/854/7 438/855/7
f 436/856/7 438/857/7 437/858/7
f 441/859/7 439/860/7 440/861/7
f 441/862/7 440/863/7 439/864/7
f 442/865/7 443/866/7 444/867/7
f 442/868/7 444/869/7 443/870/7
f 445/871/7 446/872/7 447/873/7
f 445/874/7 447/875/7 446/876/7
f 448/877/7 450/878/7 449/879/7
f 448/880/7 449/881/7 450/882/7
f 452/883/76 451/884/76 453/885/76
f 453/886/76 451/887/76 452/888/76
f 456/889/127 455/890/128 454/891/129
f 454/892/129 455/893/128 456/894/127
f 457/895/7 459/896/7 458/897/7
f 457/898/7 458/899/7 459/900/7
f 462/901/130 460/902/131 461/903/132
f 460/904/131 462/905/130 461/906/132
f 465/907/133 463/908/134 464/909/135
f 464/910/135 463/911/134 465/912/133
f 484/913/7 485/914/7 486/915/7
f 484/916/7 486/917/7 485/918/7
f 488/919/49 487/920/49 489/921/49
f 489/922/49 487/923/49 488/924/49
f 491/925/136 490/926/137 492/927/138
f 492/928/138 490/929/137 491/930/136
f 493/931/139 494/932/140 495/933/141
f 494/934/140 493/935/139 495/936/141
f 496/937/133 497/938/134 498/939/142
f 498/940/142 497/941/134 496/942/133
f 519/943/7 518/944/7 517/945/7
f 518/946/7 519/947/7 517/948/7
f 521/949/143 520/950/144 522/951/144
f 522/952/144 520/953/144 521/954/143
f 525/955/145 524/956/7 523/957/146
f 523/958/146 524/959/7 525/960/145
f 534/961/7 532/962/7 533/963/7
f 534/964/7 533/965/7 532/966/7
f 535/967/7 536/968/7 537/969/7
f 535/970/7 537/971/7 536/972/7
f 476/973/25 477/974/24 475/975/23
f 530/976/147 531/977/147 529/978/148
f 482/979/149 483/980/150 481/981/151
f 114/982/36 113/983/35 115/984/34
f 119/985/39 120/986/38 121/987/37
f 127/988/7 125/989/7 126/990/7
f 330/991/32 329/992/33 328/993/32
f 331/994/49 333/995/49 332/996/49
f 335/997/152 336/998/153 334/999/154
f 337/1000/49 339/1001/49 338/1002/49
f 469/1003/22 470/1004/21 471/1005/20
f 483/1006/150 482/1007/149 481/1008/151
f 503/1009/31 502/1010/30 504/1011/29
f 511/1012/28 513/1013/27 512/1014/26
f 531/1015/147 530/1016/147 529/1017/148
f 125/1018/7 127/1019/7 126/1020/7
f 333/1021/49 331/1022/49 332/1023/49
f 336/1024/153 335/1025/152 334/1026/154
f 339/1027/49 337/1028/49 338/1029/49
f 500/1030/64 501/1031/64 499/1032/64
f 507/1033/6 506/1034/5 505/1035/4
f 116/1036/3 118/1037/2 117/1038/1
f 124/1039/10 122/1040/9 123/1041/8
f 130/1042/13 129/1043/12 128/1044/11
f 342/1045/16 340/1046/15 341/1047/14
f 501/1048/64 500/1049/64 499/1050/64
f 345/1051/19 343/1052/18 344/1053/17
l 1 2
l 5 6
l 9 10
l 3 4
l 7 8
