# Blender 4.5.0
# www.blender.org
mtllib shop_006.lod1.mtl
o shop_006
v -2.372014 2.961580 -3.083525
v 2.372014 2.961580 -3.083525
v 2.372014 2.530882 -3.083525
v -2.372014 2.530882 -3.083525
v -3.875000 -0.000000 -3.548504
v -3.875000 0.133777 3.548504
v -3.874041 0.132861 -3.550000
v 3.875000 0.133776 -3.548504
v 3.875000 0.000000 3.548504
v 3.874041 0.000915 -3.550000
v 3.874041 0.132861 3.550000
v -3.874041 0.000916 3.550000
v 3.549714 3.039513 -2.747812
v -3.548044 3.039176 -2.749672
v 3.548043 0.139535 -2.749672
v 3.548044 3.039177 3.049918
v -3.548043 0.139536 3.049918
v 3.549713 0.139199 3.048057
v -3.549713 3.039513 3.048057
v -3.549713 0.139198 -2.747811
v 3.485154 3.159652 -2.864895
v 3.492966 3.154171 -2.859621
v -3.488486 3.157577 -2.865066
v 3.488486 3.157577 2.865065
v 3.485238 3.049443 2.867348
v 3.492966 3.041710 2.859620
v 3.497108 3.051038 2.867348
v 3.492966 3.049443 2.867348
v -3.484567 3.158712 2.867136
v -3.492966 3.154171 2.859620
v -3.645374 3.041709 -2.859621
v -3.653102 3.050977 -2.867348
v -3.651346 3.043370 -3.022263
v -3.643842 3.041709 -2.867348
v -3.496778 3.398597 2.864774
v -3.497246 3.049443 2.867348
v -3.492966 3.041710 2.859620
v -3.500693 3.033977 2.867348
v -3.492966 3.041225 2.867339
v -3.645374 3.402294 -2.867348
v -3.648712 3.399929 -3.024433
v -3.653102 3.394560 -2.867348
v -3.645374 3.402294 -2.859621
v -3.498887 3.400494 -2.864441
v -3.492966 3.394560 -2.859621
v -3.485238 3.049443 -2.867348
v -3.492966 3.041709 -2.859621
v -3.497108 3.051038 -2.867348
v -3.492966 3.049443 -2.867348
v -3.645374 3.041710 2.867348
v -3.648712 3.044076 3.024433
v -3.653102 3.049443 2.867348
v -3.645374 3.041710 2.859620
v 3.498887 3.400495 2.864440
v 3.492966 3.394561 2.859620
v 3.645374 3.402294 -2.859621
v 3.653102 3.393027 -2.867348
v 3.651346 3.400634 -3.022263
v 3.643842 3.402294 -2.867348
v 3.497019 3.398343 -2.865943
v 3.492966 3.049443 -2.867348
v 3.497246 3.049443 -2.867348
v 3.492966 3.041709 -2.859621
v 3.485238 3.049443 -2.867348
v 3.648712 3.044075 -3.024433
v 3.645374 3.041709 -2.867348
v 3.653102 3.049443 -2.867348
v 3.645374 3.041709 -2.859621
v 3.645374 3.402295 2.867348
v 3.648712 3.399929 3.024433
v 3.653102 3.394561 2.867348
v 3.645374 3.402295 2.859620
v -3.645374 3.402295 2.859620
v -3.653102 3.393028 2.867348
v -3.651346 3.400634 3.022263
v -3.643842 3.402295 2.867348
v 3.651346 3.043370 3.022263
v 3.645374 3.041710 2.859620
v 3.653102 3.050977 2.867348
v 3.643842 3.041710 2.867348
v -3.202888 0.500374 -2.748497
v -3.203665 0.499925 -2.895568
v -2.100838 0.499925 -2.749054
v -2.101616 0.500374 -2.896124
v -3.203665 2.288153 -2.749054
v -2.101616 2.287704 -2.748497
v -2.100838 2.288153 -2.895568
v -3.202888 2.287704 -2.896125
v -3.136711 2.219279 -2.913618
v -2.167793 2.219279 -2.911151
v -3.136711 0.568799 -2.911151
v -2.167793 0.568799 -2.913618
v -3.139653 0.535406 -2.972229
v -3.139653 2.262688 -2.912590
v -3.135675 2.262688 -2.972229
v -3.135675 0.535406 -2.912590
v -2.650263 2.262688 -2.972229
v -2.650263 0.535406 -2.912590
v -2.654241 2.262688 -2.912590
v -2.654241 0.535406 -2.972229
v -2.164850 2.262688 -2.972229
v -2.168829 2.262688 -2.912590
v -2.168829 0.535406 -2.972229
v -2.164850 0.535406 -2.912590
v -3.247482 0.536329 -3.080495
v -3.248901 0.458691 -3.079611
v -3.247482 0.458844 -2.844357
v -2.055602 0.458691 -2.845241
v -2.057022 0.536328 -2.844357
v -2.057022 0.458844 -3.080495
v -2.055602 0.536482 -3.079611
v -3.248902 0.536482 -2.845241
v -1.751656 2.287704 -2.896125
v -0.650384 2.287704 -2.748497
v -1.751656 0.500374 -2.748497
v -0.650384 0.500374 -2.896124
v -1.752433 2.288153 -2.749054
v -0.649606 2.288153 -2.895568
v -1.752433 0.499925 -2.895568
v -0.649606 0.499925 -2.749054
v -1.685478 2.219279 -2.913619
v -1.685478 0.568799 -2.911151
v -0.716561 2.219279 -2.911151
v -0.716561 0.568799 -2.913618
v -1.688421 0.535406 -2.972229
v -1.688421 2.262688 -2.912590
v -1.684443 0.535406 -2.912590
v -1.684443 2.262688 -2.972229
v -1.199031 2.262688 -2.972229
v -1.199031 0.535406 -2.912590
v -1.203009 2.262688 -2.912590
v -1.203009 0.535406 -2.972229
v -0.713618 2.262688 -2.972229
v -0.717597 0.535406 -2.972229
v -0.717597 2.262688 -2.912590
v -0.713618 0.535406 -2.912590
v -1.796250 0.536329 -3.080495
v -1.797669 0.458691 -3.079611
v -0.604370 0.458691 -2.845241
v -0.605790 0.458844 -3.080495
v -0.605790 0.536328 -2.844357
v -1.797669 0.536482 -2.845241
v -0.604370 0.536482 -3.079611
v -1.796250 0.458844 -2.844357
v 1.050723 2.287704 -2.896125
v 1.049946 0.499925 -2.895568
v 2.152773 2.288153 -2.895568
v 2.151995 2.287704 -2.748497
v 2.152773 0.499925 -2.749054
v 1.049946 2.288153 -2.749054
v 2.151996 0.500374 -2.896124
v 1.050724 0.500374 -2.748497
v 1.116901 2.219279 -2.913619
v 2.085819 2.219279 -2.911151
v 1.116901 0.568799 -2.911151
v 2.085819 0.568799 -2.913618
v 1.113958 2.262688 -2.912590
v 1.117937 0.535406 -2.912590
v 1.113958 0.535406 -2.972229
v 1.117937 2.262688 -2.972229
v 1.603349 2.262688 -2.972229
v 1.603349 0.535406 -2.912590
v 1.599370 0.535406 -2.972229
v 1.599370 2.262688 -2.912590
v 2.088761 2.262688 -2.972229
v 2.088761 0.535406 -2.912590
v 2.084782 0.535406 -2.972229
v 2.084782 2.262688 -2.912590
v 2.201869 0.537651 -3.074797
v 2.201869 0.529917 -3.082524
v 2.201869 0.462990 -3.087987
v 2.201869 0.452052 -3.077060
v 1.003572 0.465428 -3.080827
v 1.009766 0.457521 -3.080740
v 1.004323 0.460710 -2.845959
v 1.003572 0.529744 -2.844023
v 1.009766 0.537651 -2.844111
v 1.004323 0.534462 -3.078892
v 2.251743 2.287704 -2.896125
v 2.251743 0.500374 -2.748497
v 3.353015 0.500374 -2.896124
v 2.250966 2.288153 -2.749054
v 3.353015 2.287704 -2.748497
v 3.353793 2.288153 -2.895568
v 2.250966 0.499925 -2.895568
v 3.353793 0.499925 -2.749054
v 3.286838 2.219279 -2.911151
v 2.317920 0.568799 -2.911151
v 2.317920 2.219279 -2.913619
v 3.286838 0.568799 -2.913618
v 2.314978 0.535406 -2.972229
v 2.318956 0.535406 -2.912590
v 2.318956 2.262688 -2.972229
v 2.314978 2.262688 -2.912590
v 2.804369 2.262688 -2.972229
v 2.800390 0.535406 -2.972229
v 2.804369 0.535406 -2.912590
v 2.800390 2.262688 -2.912590
v 3.289781 2.262688 -2.972229
v 3.285802 0.535406 -2.972229
v 3.289781 0.535406 -2.912590
v 3.285802 2.262688 -2.912590
v 3.399015 0.536651 -3.079550
v 3.399443 0.460733 -3.078886
v 2.201869 0.457521 -2.850055
v 2.201869 0.465255 -2.842327
v 2.201869 0.532182 -2.836863
v 2.201869 0.543120 -2.847792
v 3.399442 0.534439 -2.845965
v 3.399015 0.458521 -2.845302
v 0.846165 0.170052 -2.901298
v -0.346374 2.418243 -2.763834
v -0.345740 0.170052 -2.763341
v -0.345740 2.417702 -2.901298
v 0.846799 2.418243 -2.900805
v 0.846165 2.417702 -2.763341
v -0.346374 0.169511 -2.900805
v 0.846799 0.169511 -2.763834
v 0.775158 0.237467 -2.923946
v -0.274733 2.340271 -2.923947
v -0.274733 0.237467 -2.920839
v 0.775158 2.340271 -2.920840
v 0.248194 0.234951 -2.979689
v 0.252231 2.342786 -2.979689
v 0.248194 2.342786 -2.925147
v 0.252231 0.234951 -2.925146
v 0.132247 0.998248 -2.979139
v 0.127974 0.998248 -3.045794
v 0.132247 1.399197 -3.045794
v 0.127974 1.399197 -2.979139
v 0.372451 1.399197 -3.045794
v 0.368177 1.399197 -2.979139
v 0.372451 0.998248 -2.979139
v 0.368177 0.998248 -3.045794
v 2.397888 2.989620 -3.076285
v -2.396695 2.989911 -3.076801
v -2.397888 2.502841 -3.076285
v -2.397888 2.989620 -2.928632
v 2.397888 2.502841 -2.928632
v 2.396695 2.989911 -2.928117
v 2.396695 2.502550 -3.076801
v -2.396695 2.502550 -2.928117
v 3.650373 2.388404 -2.721317
v -3.651772 2.389254 -2.723037
v 3.650372 2.302758 -3.363666
v 3.651772 2.389254 -3.361947
v -3.650372 2.388404 -3.363666
v 3.651772 2.301909 -2.723037
v -3.651772 2.301909 -3.361947
v -3.650373 2.302758 -2.721317
v -2.801971 0.170491 -3.121850
v -2.805805 0.851395 -3.132802
v -2.796248 0.845955 -3.108398
v -2.801971 0.170491 -3.301998
v -2.805805 0.851395 -3.312950
v -2.796248 0.845954 -3.288545
v -2.472919 0.439986 -3.340850
v -3.133281 0.439713 -3.339563
v -2.472919 0.685397 -3.064395
v -3.131840 0.439986 -3.064395
v -3.133282 0.685670 -3.065681
v -3.131840 0.685397 -3.340850
v -2.471477 0.439713 -3.065682
v -2.471477 0.685670 -3.339563
v -1.650994 0.170491 -3.121850
v -1.645271 0.845955 -3.108398
v -1.654828 0.851395 -3.132802
v -1.650994 0.170491 -3.301998
v -1.645271 0.845954 -3.288545
v -1.654828 0.851395 -3.312950
v -1.321941 0.685397 -3.064395
v -1.982304 0.439713 -3.339563
v -1.980863 0.439986 -3.064395
v -1.320500 0.685670 -3.339563
v -1.320500 0.439713 -3.065682
v -1.321942 0.439986 -3.340850
v -1.982304 0.685670 -3.065681
v -1.980862 0.685397 -3.340849
v 3.079638 1.833705 -3.341257
v 3.079484 0.141642 -3.340121
v 3.079638 0.143058 -2.863824
v 3.526125 1.835121 -3.340121
v 3.525971 1.833705 -2.863825
v 3.526125 0.141642 -2.864960
v 3.525971 0.143058 -3.341256
v 3.079484 1.835121 -2.864960
v -1.521393 3.235779 1.724128
v -0.679386 3.880000 1.279401
v -0.680476 3.879313 1.724128
v -0.679386 3.235092 1.723057
v -0.680476 3.235779 1.278330
v -1.522483 3.880000 1.723057
v -1.521393 3.879313 1.278330
v -1.522484 3.235092 1.279401
v -1.002590 3.803357 1.251024
v -0.827483 3.371400 1.256991
v -1.172194 3.630293 1.251354
v -1.107894 3.404793 1.249533
v -0.769245 3.738348 1.250695
v -0.712266 3.510883 1.252515
v -0.938425 3.341650 1.245057
v -1.155325 3.414815 1.221000
v -0.733886 3.425322 1.229541
v -0.728072 3.408723 1.216226
v -1.155325 3.481923 1.221000
v -0.733886 3.492431 1.229541
v -0.728072 3.475831 1.216226
v -1.155325 3.549032 1.221000
v -0.728072 3.553810 1.214913
v -0.733886 3.540483 1.231499
v -1.155325 3.616141 1.221000
v -0.733886 3.624689 1.210500
v -0.728072 3.611364 1.227087
v -1.155325 3.683249 1.221000
v -0.728072 3.677157 1.216226
v -0.733886 3.693758 1.229541
v -1.155325 3.750359 1.221000
v -0.728072 3.755136 1.214913
v -0.733886 3.741810 1.231499
v -1.347303 3.751974 1.257540
v -1.435060 3.393166 1.257540
v -1.347303 3.393166 1.254517
v -1.435060 3.751974 1.254517
v -1.439324 3.230195 1.215604
v -1.363056 3.230195 1.786854
v -1.440199 3.230937 1.785261
v -1.440199 3.162987 1.217197
v -1.439324 3.163728 1.786854
v -1.362180 3.230937 1.217197
v -1.363056 3.163728 1.215604
v -1.362180 3.162987 1.785261
v -0.838814 3.230195 1.215604
v -0.753149 3.200165 1.204890
v -0.839690 3.162987 1.217197
v -0.848211 3.200165 1.797567
v -0.762546 3.230196 1.786854
v -0.761670 3.162987 1.785261
v -0.321464 3.880000 1.723057
v -0.320373 3.879313 1.278330
v -0.320373 3.235779 1.724128
v 0.521634 3.880000 1.279401
v 0.520543 3.879313 1.724128
v -0.321464 3.235092 1.279401
v 0.520543 3.235779 1.278330
v 0.521634 3.235092 1.723057
v 0.373536 3.371400 1.256991
v 0.431775 3.738348 1.250695
v 0.028826 3.630293 1.251354
v 0.488754 3.510884 1.252515
v 0.262594 3.341650 1.245057
v 0.093126 3.404793 1.249533
v 0.198429 3.803357 1.251024
v 0.467133 3.425322 1.229541
v 0.472948 3.408723 1.216226
v 0.045694 3.414815 1.221000
v 0.045694 3.481923 1.221000
v 0.472948 3.475831 1.216226
v 0.467133 3.492431 1.229541
v 0.045694 3.549032 1.221000
v 0.472948 3.553810 1.214913
v 0.467133 3.540483 1.231499
v 0.045694 3.616141 1.221000
v 0.472948 3.611364 1.227087
v 0.467133 3.624689 1.210500
v 0.045694 3.683249 1.221000
v 0.472948 3.677157 1.216226
v 0.467133 3.693758 1.229541
v 0.472948 3.755136 1.214913
v 0.467133 3.741810 1.231499
v 0.045694 3.750359 1.221000
v -0.146283 3.393166 1.254517
v -0.234040 3.393166 1.257540
v -0.146283 3.751974 1.257540
v -0.234040 3.751974 1.254517
v -0.238304 3.230195 1.215604
v -0.162036 3.230196 1.786854
v -0.239180 3.230937 1.785261
v -0.239180 3.162987 1.217197
v -0.161160 3.162987 1.785261
v -0.161160 3.230937 1.217197
v -0.162036 3.163728 1.215604
v -0.238304 3.163728 1.786854
v 0.438474 3.163728 1.215604
v 0.362206 3.230195 1.215604
v 0.438474 3.230196 1.786854
v 0.439350 3.162987 1.785261
v 0.439350 3.230937 1.217197
v 0.361330 3.230937 1.785261
v 0.361330 3.162987 1.217197
v 0.362206 3.163728 1.786854
v -3.402154 0.116299 3.189612
v -3.443098 2.797695 3.123192
v -3.369107 2.801992 3.109832
v -3.370207 0.115875 3.109301
v -3.445026 0.120595 3.127846
v -3.403307 2.802414 3.189210
v 3.403624 0.116299 3.189612
v 3.360752 0.120595 3.127848
v 3.435572 0.115876 3.109301
v 3.436671 2.801991 3.109832
v 3.362680 2.797696 3.123193
v 3.402471 2.802414 3.189210
v 0.396230 0.451058 3.073584
v 0.396230 2.246875 3.191546
v -0.396230 0.451058 3.191546
v -0.396230 2.246875 3.073583
v -0.396680 2.247605 3.191053
v 0.396680 2.247605 3.074076
v 0.396680 0.450328 3.191054
v -0.396680 0.450328 3.074076
v 0.628962 1.794874 3.049369
v 0.628961 1.303708 3.215761
v 0.972995 1.302619 3.215039
v 0.628365 1.795963 3.215039
v 0.628365 1.302619 3.050091
v 0.972995 1.795963 3.050091
v 0.972398 1.303708 3.049370
v 0.972398 1.794874 3.215760
vn -0.0000 -0.0000 -1.0000
vn 0.0001 -0.7068 0.7075
vn -0.0000 -0.7068 0.7074
vn 0.0002 -0.7067 0.7075
vn -0.7005 -0.7000 -0.1388
vn -0.8865 -0.4618 -0.0290
vn -0.7074 0.7068 -0.0000
vn -0.0000 -0.7068 -0.7074
vn -0.7073 -0.7069 -0.0000
vn 0.7005 0.7000 -0.1388
vn 0.7073 -0.7069 -0.0000
vn 0.7074 0.7068 -0.0000
vn -0.7005 0.7000 0.1388
vn 0.7005 -0.7000 0.1388
vn -0.0268 0.9996 0.0053
vn -0.0266 0.9996 -0.0002
vn -0.0266 0.9996 0.0022
vn -0.7871 0.6167 0.0099
vn -0.0002 0.7954 0.6060
vn -0.0002 0.7855 0.6189
vn -0.0002 0.8000 0.6000
vn 0.5869 0.0596 -0.8074
vn -0.6669 -0.0000 0.7452
vn 0.0011 -0.0001 1.0000
vn -0.9991 0.0423 -0.0012
vn -0.8012 0.5984 0.0005
vn -0.4757 0.8796 0.0002
vn 0.9991 0.0423 0.0012
vn 0.8517 0.5240 -0.0004
vn 0.5744 0.8186 -0.0000
vn 0.0125 0.9999 -0.0000
vn 0.0123 0.9999 -0.0000
vn 0.6370 0.0097 -0.7708
vn -0.0000 -0.6379 -0.7701
vn 0.0521 -0.9986 -0.0000
vn -0.7679 0.6405 0.0002
vn -0.7679 -0.6405 -0.0002
vn 0.9999 0.0113 0.0007
vn 0.9021 0.4314 -0.0058
vn 0.7079 0.7064 -0.0000
vn -0.0521 -0.9986 -0.0000
vn -0.0125 0.9999 -0.0000
vn -0.0123 0.9999 -0.0000
vn -0.6371 0.0097 0.7707
vn -0.0000 -0.6379 0.7701
vn -0.9999 0.0123 -0.0007
vn -0.9000 0.4359 -0.0000
vn -0.7079 0.7063 -0.0000
vn 0.7679 0.6405 -0.0002
vn 0.7679 -0.6405 0.0002
vn -0.5671 0.5746 -0.5901
vn -0.0001 0.9999 -0.0108
vn 0.1877 0.6806 -0.7082
vn 0.5671 -0.5746 -0.5901
vn 0.0001 -0.9999 -0.0108
vn -0.1877 -0.6806 -0.7082
vn 0.5671 0.5746 0.5901
vn 0.0001 0.9999 0.0108
vn -0.1877 0.6806 0.7082
vn -0.5671 -0.5746 0.5901
vn -0.0001 -0.9999 0.0108
vn 0.1877 -0.6806 0.7082
vn -0.0011 -0.7068 -0.7074
vn -0.0011 0.7068 0.7074
vn -0.7871 -0.6168 -0.0099
vn -0.0022 0.7068 -0.7074
vn -0.0022 -0.7068 0.7074
vn -0.0000 -0.0000 -0.0000
vn -0.5802 0.5784 0.5734
vn -0.5745 0.5762 -0.5813
vn -0.5802 -0.5784 -0.5734
vn -0.5745 -0.5762 0.5813
vn 0.5802 -0.5784 0.5734
vn 0.5745 -0.5762 -0.5813
vn 0.5745 0.5762 0.5813
vn 0.5802 0.5784 -0.5734
vn -0.5776 0.5775 0.5770
vn 0.5776 0.5775 -0.5770
vn -0.5771 0.5774 -0.5776
vn 0.5771 -0.5774 -0.5776
vn 0.5776 -0.5775 0.5770
vn 0.5771 0.5774 0.5776
vn -0.5776 -0.5775 -0.5770
vn -0.5771 -0.5774 0.5776
vn 0.0002 0.6796 0.7336
vn -0.0000 0.7000 -0.7142
vn -0.0002 0.7053 -0.7089
vn -0.0000 0.0222 -0.9998
vn -0.3593 0.9332 -0.0013
vn 0.9992 0.0409 0.0007
vn 0.0001 0.7208 0.6931
vn -0.0000 0.0211 -0.9998
vn -0.9992 0.0409 -0.0007
vn 0.0003 0.0019 1.0000
vn -0.0000 0.0211 0.9998
vn -0.0000 -1.0000 -0.0000
vn -0.0099 0.0042 0.9999
vn -0.0199 0.0084 0.9998
vn -0.0048 0.0020 1.0000
vn -1.0000 -0.0000 -0.0000
vn -0.0000 -0.0000 1.0000
vn -0.7074 0.7069 -0.0000
vn 0.3593 0.9332 0.0013
vn -0.9999 -0.0000 -0.0113
vn 0.0048 0.0020 -1.0000
vn 1.0000 0.0016 0.0001
vn 0.0121 0.0013 0.9999
vn 0.0024 0.0062 1.0000
vn -0.0004 0.0074 1.0000
vn 0.0167 -0.0054 0.9998
vn 0.0071 0.0042 1.0000
vn 0.0248 0.9997 -0.0021
vn 0.0249 0.9997 0.0001
vn -0.9999 0.0124 0.0007
vn 0.0099 0.0042 -0.9999
vn 0.0199 0.0084 -0.9998
vn -0.9017 0.4323 -0.0104
vn -0.9999 -0.0000 0.0113
vn -0.9017 -0.4323 0.0104
vn -1.0000 0.0074 -0.0004
vn 0.9999 -0.0000 -0.0113
vn -0.0066 0.0007 -1.0000
vn -0.0091 -0.0030 -1.0000
vn -0.0039 0.0023 -1.0000
vn 1.0000 -0.0000 -0.0000
vn -0.0013 0.0034 -1.0000
vn 0.0001 0.0040 -1.0000
vn 0.9017 -0.4323 -0.0104
vn 0.9999 -0.0000 0.0113
vn 0.9017 0.4323 0.0104
vn 0.5757 0.5766 0.5797
vn -0.5757 -0.5766 0.5797
vn 0.5790 -0.5781 0.5750
vn -0.5790 -0.5781 -0.5750
vn -0.5790 0.5781 0.5750
vn -0.5757 0.5766 -0.5797
vn 0.5757 -0.5766 -0.5797
vn 0.5790 0.5781 -0.5750
vn -0.6562 0.7546 0.0012
vn 0.6562 -0.7546 0.0012
vn -0.6562 -0.7546 -0.0012
vn 0.6562 0.7546 -0.0011
vn -0.0388 0.8390 0.5427
vn 0.0389 0.8375 -0.5451
vn -0.0387 -0.8390 -0.5427
vn 0.0389 -0.8375 0.5451
vn -0.0389 0.8375 0.5451
vn 0.0388 0.8390 -0.5427
vn -0.0389 -0.8375 -0.5451
vn 0.0388 -0.8390 0.5427
vn -0.0388 0.8386 0.5433
vn 0.0389 0.8379 -0.5445
vn -0.0388 -0.8386 -0.5433
vn 0.0389 -0.8379 0.5445
vn -0.6986 0.0053 -0.7155
vn 0.6986 -0.0053 -0.7155
vn -0.7126 -0.0002 -0.7016
vn 0.7126 0.0002 -0.7016
vn -0.7126 0.0002 0.7016
vn -0.0001 1.0000 -0.0005
vn 0.0001 1.0000 0.0005
vn -0.0001 1.0000 -0.0007
vn -0.6986 -0.0053 0.7155
vn -0.0001 -1.0000 0.0005
vn 0.0001 -1.0000 -0.0005
vn -0.0001 -1.0000 0.0007
vn 0.0001 -1.0000 -0.0007
vn 0.6986 0.0053 0.7155
vn 0.7126 -0.0002 0.7016
vn 0.0001 1.0000 0.0007
vn -0.6562 0.7546 0.0011
vn 0.6562 -0.7546 0.0011
vn -0.6561 -0.7547 -0.0012
vn 0.6561 0.7546 -0.0012
vn 0.0387 -0.8390 0.5427
vn -0.0388 0.8384 0.5436
vn 0.0388 0.8381 -0.5442
vn -0.0388 -0.8384 -0.5436
vn 0.0388 -0.8381 0.5442
vn -0.6561 -0.7547 -0.0011
vn 0.0388 0.8382 -0.5439
vn -0.0388 0.8382 0.5439
vn 0.0388 -0.8382 0.5439
vn -0.0389 -0.8382 -0.5439
vn -0.0388 0.8383 0.5439
vn 0.0388 0.8383 -0.5439
vn -0.0389 -0.8383 -0.5439
vn 0.0388 -0.8383 0.5439
vn -0.0389 0.8379 0.5445
vn 0.0388 0.8386 -0.5433
vn -0.0389 -0.8379 -0.5445
vn 0.0388 -0.8386 0.5433
vn -0.0033 -0.0700 -0.9975
vn -0.0026 0.9999 -0.0135
vn 0.0007 0.9997 -0.0241
vn 0.0044 0.9997 0.0230
vn 0.0025 -0.0087 -1.0000
vn 0.7043 -0.0038 -0.7099
vn 0.7270 -0.0019 -0.6867
vn 0.0007 -0.9997 0.0241
vn -0.7196 0.0273 -0.6939
vn 0.0035 0.0280 -0.9996
vn -0.7033 0.0248 -0.7105
vn 0.0044 -0.9997 -0.0230
vn 0.0072 -0.9999 -0.0095
vn -0.7033 -0.0248 0.7105
vn -0.7196 -0.0273 0.6939
vn -0.0026 -0.9999 0.0135
vn -0.0033 0.0700 0.9975
vn 0.0035 -0.0280 0.9996
vn 0.6562 0.7546 -0.0012
vn -0.6562 -0.7546 -0.0011
vn 0.0389 0.8375 -0.5450
vn 0.0389 -0.8375 0.5450
vn -0.0388 -0.8390 -0.5427
vn -0.0387 0.8390 0.5427
vn -0.0388 -0.8383 -0.5439
vn 0.0389 -0.8383 0.5439
vn 0.7043 0.0038 0.7099
vn 0.7270 0.0019 0.6867
vn 0.0072 0.9999 0.0095
vn 0.0065 0.3435 0.9391
vn 0.0077 -0.0814 0.9967
vn 0.0073 0.0701 0.9975
vn 0.0025 0.0087 1.0000
vn -0.5761 0.5763 -0.5797
vn 0.5761 -0.5763 -0.5797
vn -0.5787 -0.5784 -0.5750
vn 0.5787 -0.5784 0.5750
vn 0.5787 0.5784 -0.5750
vn -0.5787 0.5784 0.5750
vn 0.5761 0.5763 0.5797
vn -0.5761 -0.5763 0.5797
vn -0.6419 0.7667 0.0097
vn 0.6419 -0.7667 0.0097
vn -0.6419 -0.7667 -0.0097
vn 0.6419 0.7667 -0.0097
vn 0.0423 0.8397 -0.5413
vn 0.0423 -0.8397 0.5413
vn -0.0423 -0.8395 -0.5417
vn -0.0423 0.8395 0.5417
vn 0.0367 0.8174 -0.5749
vn -0.0367 0.8174 0.5749
vn 0.0367 -0.8174 0.5749
vn -0.0367 -0.8174 -0.5749
vn -0.7090 0.7052 -0.0022
vn 0.7090 0.7052 0.0022
vn -0.7037 0.7104 -0.0043
vn -0.0001 -0.0009 -1.0000
vn 0.0001 0.0011 -1.0000
vn 0.0001 0.0009 -1.0000
vn 0.7090 -0.7052 -0.0022
vn 0.7037 -0.7104 -0.0043
vn 0.7037 0.7104 0.0043
vn -0.7090 -0.7052 0.0022
vn -0.0001 -0.0011 -1.0000
vn -0.7037 -0.7104 0.0043
vn 0.0001 -0.0009 1.0000
vn -0.0001 0.0011 1.0000
vn -0.0001 0.0009 1.0000
vn 0.0001 -0.0011 1.0000
vn 0.5707 0.5759 0.5853
vn -0.5707 -0.5759 0.5853
vn 0.5829 -0.5788 0.5703
vn -0.5829 0.5788 0.5703
vn 0.5829 0.5788 -0.5703
vn -0.5829 -0.5788 -0.5703
vn -0.5707 0.5759 -0.5853
vn 0.5707 -0.5759 -0.5853
vn -0.5739 0.5776 -0.5805
vn 0.5739 -0.5776 -0.5805
vn -0.5795 -0.5782 -0.5743
vn 0.5795 -0.5782 0.5743
vn 0.5795 0.5782 -0.5743
vn -0.5795 0.5782 0.5743
vn -0.5739 -0.5776 0.5805
vn 0.5739 0.5776 0.5805
vn -0.5776 0.5754 -0.5790
vn 0.5776 -0.5754 -0.5790
vn -0.5777 -0.5784 -0.5759
vn 0.5777 0.5784 -0.5759
vn -0.5777 0.5784 0.5759
vn -0.5776 -0.5754 0.5790
vn 0.5777 -0.5784 0.5759
vn 0.5776 0.5754 0.5790
vn 0.5762 0.5769 0.5789
vn -0.5762 -0.5769 0.5789
vn 0.5783 -0.5780 0.5757
vn -0.5783 -0.5780 -0.5757
vn -0.5783 0.5780 0.5757
vn 0.5783 0.5780 -0.5757
vn 0.5762 -0.5769 -0.5789
vn -0.5762 0.5769 -0.5789
vn 0.6035 -0.7888 0.1165
vn 0.9990 -0.0437 0.0047
vn 0.6421 0.7666 -0.0054
vn -0.2589 0.9659 -0.0000
vn -0.9394 0.3428 0.0054
vn -0.8434 -0.5372 -0.0047
vn -0.1280 -0.9849 -0.1164
vn -0.5929 0.8051 -0.0187
vn 0.5929 0.8051 0.0187
vn 0.5929 -0.8051 -0.0187
vn -0.5929 -0.8051 0.0187
vn -0.5732 0.5741 -0.5848
vn 0.5732 -0.5741 -0.5848
vn -0.5851 -0.5838 -0.5629
vn 0.5851 0.5838 -0.5629
vn -0.5851 0.5838 0.5629
vn 0.5732 0.5741 0.5848
vn -0.5732 -0.5741 0.5848
vn 0.5851 -0.5838 0.5629
vn -0.4859 0.7013 -0.5216
vn 0.7872 0.0523 -0.6145
vn -0.4880 -0.6907 -0.5337
vn -0.7872 0.0523 0.6145
vn 0.4880 -0.6907 0.5337
vn 0.4859 0.7013 0.5216
vn 0.9990 -0.0436 0.0047
vn 0.6422 0.7666 -0.0054
vn 0.0880 -0.5666 0.8192
vn -0.7950 -0.5278 -0.2989
vn 0.6161 -0.5696 -0.5441
vn 0.6415 0.5667 -0.5170
vn 0.0509 0.5696 0.8204
vn -0.7735 0.5278 -0.3508
vn 0.6416 0.5666 -0.5170
vn -0.5765 0.5754 -0.5802
vn 0.5765 -0.5754 -0.5802
vn -0.5785 -0.5790 -0.5745
vn 0.5785 -0.5790 0.5745
vn 0.5785 0.5790 -0.5745
vn 0.5765 0.5754 0.5802
vn -0.5765 -0.5754 0.5802
vn -0.5785 0.5790 0.5745
vn -0.5767 0.5747 -0.5807
vn 0.5767 -0.5747 -0.5807
vn -0.5787 -0.5793 -0.5741
vn 0.5787 0.5793 -0.5741
vn -0.5787 0.5793 0.5741
vn 0.5787 -0.5793 0.5741
vn -0.5767 -0.5747 0.5807
vn 0.5767 0.5747 0.5807
vn 0.2626 -0.6820 0.6825
vn -0.7071 -0.7066 0.0267
vn -0.6834 0.7286 0.0458
vn -0.7074 0.7068 0.0044
vn -0.2626 -0.6820 -0.6825
vn -0.7074 -0.7068 -0.0044
vn 0.7071 0.7066 0.0267
vn 0.7074 -0.7068 0.0044
vn 0.7073 0.7069 -0.0044
vn -0.7071 0.7066 -0.0267
vn 0.7071 -0.7066 -0.0267
vn 0.0161 0.0073 0.9998
vn -0.0000 0.0223 -0.9998
vn 0.7071 -0.0000 0.7071
vn 0.0008 -0.7064 0.7078
vn 0.0086 0.0224 -0.9997
vn 0.0634 -0.9979 0.0126
vn 0.0250 0.9997 -0.0050
vn -0.7074 -0.7068 -0.0000
vn -0.0000 0.0040 -1.0000
vn -0.0086 0.0224 0.9997
vn -0.0634 -0.9979 -0.0126
vn 0.7074 0.7069 -0.0000
vn 0.7074 -0.7068 -0.0000
vn -0.0000 0.9999 -0.0151
vn -0.0000 -0.9999 -0.0151
vn -0.0000 0.9999 0.0151
vn -0.0000 -0.9999 0.0151
vn 0.0005 0.7068 -0.7074
vn -0.0060 -0.0157 -0.9999
vn -0.0060 0.0158 0.9999
vn 0.0005 -0.7068 0.7074
vn 0.0074 -0.0701 -0.9975
vn 0.0040 -0.7068 -0.7074
vn 0.0065 -0.3434 -0.9392
vn 0.0040 0.7068 0.7074
vn 0.7071 -0.0000 -0.7071
vn 0.9139 -0.4058 -0.0000
vn -0.8813 -0.0000 0.4725
vn 0.0011 -1.0000 -0.0013
vn -0.9139 -0.4058 -0.0000
vn 0.0171 -0.0170 0.9997
vn 0.9999 -0.0120 -0.0007
vn -0.0093 -0.0093 -0.9999
vn 0.0077 0.0814 -0.9967
vt 0.882627 0.002000
vt 0.882627 0.188110
vt 0.865645 0.188143
vt 0.865645 0.002033
vt 0.008625 0.594166
vt 0.008320 0.594165
vt 0.008320 0.593860
vt 0.826866 0.606841
vt 0.827235 0.606839
vt 0.827234 0.607145
vt 0.976661 0.828790
vt 0.976680 0.829095
vt 0.976354 0.829096
vt 0.802695 0.598083
vt 0.802695 0.598388
vt 0.802390 0.598083
vt 0.234354 0.318451
vt 0.234659 0.318451
vt 0.234659 0.318755
vt 0.827235 0.833176
vt 0.826927 0.833178
vt 0.827235 0.832871
vt 0.802695 0.310033
vt 0.802695 0.310399
vt 0.802390 0.310338
vt 0.234659 0.594165
vt 0.234354 0.594165
vt 0.234659 0.593860
vt 0.234659 0.600181
vt 0.234659 0.600485
vt 0.234354 0.600181
vt 0.576356 0.310338
vt 0.576356 0.310033
vt 0.576661 0.310338
vt 0.576356 0.598388
vt 0.576356 0.598023
vt 0.576661 0.598083
vt 0.008320 0.600485
vt 0.008320 0.600120
vt 0.008625 0.600181
vt 0.802553 0.316154
vt 0.868292 0.875278
vt 0.859529 0.875350
vt 0.859234 0.874998
vt 0.934037 0.944222
vt 0.950017 0.944069
vt 0.950017 0.944658
vt 0.857206 0.276061
vt 0.861506 0.275751
vt 0.861340 0.276086
vt 0.854190 0.583929
vt 0.849755 0.583936
vt 0.854295 0.583592
vt 0.284721 0.312131
vt 0.285006 0.585963
vt 0.284721 0.586266
vt 0.336948 0.596751
vt 0.562692 0.596586
vt 0.562725 0.596918
vt 0.562709 0.872137
vt 0.336965 0.872302
vt 0.336932 0.871970
vt 0.802523 0.592314
vt 0.976671 0.163009
vt 0.990221 0.163205
vt 0.976676 0.163211
vt 0.234354 0.312436
vt 0.234659 0.318287
vt 0.008625 0.312436
vt 0.008320 0.318282
vt 0.008321 0.312436
vt 0.813015 0.832871
vt 0.813317 0.606840
vt 0.813378 0.833177
vt 0.576530 0.592234
vt 0.802390 0.592068
vt 0.234659 0.594334
vt 0.576528 0.316107
vt 0.976641 0.173325
vt 0.990187 0.173487
vt 0.976640 0.173528
vt 0.008320 0.594329
vt 0.576661 0.316353
vt 0.289028 0.829524
vt 0.289330 0.608790
vt 0.289390 0.829888
vt 0.303247 0.609053
vt 0.302939 0.829917
vt 0.302879 0.608820
vt 0.808813 0.598199
vt 0.808641 0.310338
vt 0.240748 0.600347
vt 0.234659 0.312496
vt 0.240717 0.312286
vt 0.570238 0.310222
vt 0.570218 0.598083
vt 0.002138 0.312436
vt 0.002262 0.600330
vt 0.878614 0.192202
vt 0.878825 0.238937
vt 0.878401 0.238985
vt 0.881982 0.310417
vt 0.882198 0.357184
vt 0.881769 0.357134
vt 0.872863 0.780712
vt 0.881758 0.780549
vt 0.882054 0.780901
vt 0.881716 0.285866
vt 0.881468 0.238956
vt 0.881778 0.238989
vt 0.885120 0.403891
vt 0.884838 0.357161
vt 0.885145 0.357126
vt 0.934037 0.923945
vt 0.950017 0.923721
vt 0.950017 0.924491
vt 0.950467 0.864513
vt 0.934342 0.864858
vt 0.934342 0.864335
vt 0.934037 0.933920
vt 0.950017 0.933696
vt 0.950017 0.934572
vt 0.950467 0.879476
vt 0.934342 0.879821
vt 0.934342 0.879297
vt 0.934037 0.938907
vt 0.950017 0.938683
vt 0.950017 0.939454
vt 0.950467 0.894452
vt 0.934342 0.894783
vt 0.934342 0.894260
vt 0.934037 0.953870
vt 0.950017 0.953646
vt 0.950017 0.954416
vt 0.950467 0.909401
vt 0.934342 0.909746
vt 0.934342 0.909222
vt 0.934037 0.978807
vt 0.950017 0.978583
vt 0.950017 0.979460
vt 0.950467 0.914388
vt 0.934342 0.914733
vt 0.934342 0.914210
vt 0.934037 0.958858
vt 0.950017 0.958633
vt 0.950017 0.959404
vt 0.950467 0.919390
vt 0.934342 0.919721
vt 0.934342 0.919197
vt 0.853193 0.002000
vt 0.853205 0.281949
vt 0.848285 0.281964
vt 0.848273 0.002000
vt 0.566026 0.002108
vt 0.286173 0.308023
vt 0.286171 0.002150
vt 0.575456 0.002028
vt 0.570246 0.305819
vt 0.570234 0.002025
vt 0.566029 0.307981
vt 0.282155 0.002108
vt 0.282156 0.307981
vt 0.002300 0.308022
vt 0.579671 0.305782
vt 0.579766 0.002197
vt 0.584882 0.002218
vt 0.002299 0.002149
vt 0.575363 0.305827
vt 0.850063 0.861932
vt 0.854676 0.588428
vt 0.854983 0.861937
vt 0.849664 0.588415
vt 0.584893 0.305799
vt 0.589317 0.282263
vt 0.817977 0.002192
vt 0.818046 0.282192
vt 0.684263 0.602388
vt 0.684254 0.880616
vt 0.570047 0.880759
vt 0.120303 0.828005
vt 0.234465 0.604915
vt 0.234479 0.828238
vt 0.120248 0.604601
vt 0.589248 0.002262
vt 0.570036 0.602608
vt 0.116200 0.604488
vt 0.116230 0.833128
vt 0.002014 0.833057
vt 0.565814 0.312323
vt 0.565883 0.592323
vt 0.337154 0.592394
vt 0.688263 0.880641
vt 0.802497 0.602763
vt 0.802507 0.880719
vt 0.688276 0.602608
vt 0.337085 0.312394
vt 0.002025 0.604485
vt 0.861509 0.002326
vt 0.857206 0.275757
vt 0.252435 0.604485
vt 0.252370 0.604520
vt 0.252740 0.825286
vt 0.248305 0.825276
vt 0.248305 0.604774
vt 0.857206 0.002303
vt 0.274654 0.828527
vt 0.274654 0.602800
vt 0.278784 0.602495
vt 0.853755 0.310362
vt 0.849453 0.584204
vt 0.849454 0.310336
vt 0.976354 0.179336
vt 0.270654 0.604792
vt 0.270654 0.830518
vt 0.256740 0.830518
vt 0.990210 0.179603
vt 0.976660 0.179638
vt 0.008321 0.318147
vt 0.008625 0.318451
vt 0.278720 0.602496
vt 0.279089 0.828527
vt 0.827001 0.600805
vt 0.990211 0.169325
vt 0.976664 0.169325
vt 0.822201 0.002303
vt 0.836055 0.002009
vt 0.836421 0.002372
vt 0.307866 0.825339
vt 0.307491 0.604674
vt 0.321492 0.604551
vt 0.976728 0.189753
vt 0.990576 0.183941
vt 0.990275 0.189748
vt 0.976721 0.183638
vt 0.990271 0.183638
vt 0.321473 0.604849
vt 0.321415 0.825613
vt 0.976359 0.169022
vt 0.813317 0.600689
vt 0.813244 0.839212
vt 0.827066 0.839267
vt 0.256794 0.604533
vt 0.270349 0.604487
vt 0.289257 0.835759
vt 0.976711 0.199873
vt 0.976720 0.193753
vt 0.990268 0.193753
vt 0.990572 0.194056
vt 0.990256 0.199868
vt 0.827064 0.310225
vt 0.813316 0.596585
vt 0.813365 0.310122
vt 0.827006 0.596508
vt 0.302939 0.835926
vt 0.303246 0.598452
vt 0.289393 0.598782
vt 0.289028 0.598419
vt 0.303014 0.602900
vt 0.289330 0.602782
vt 0.831719 0.596369
vt 0.845147 0.310132
vt 0.845280 0.596394
vt 0.831586 0.310104
vt 0.886725 0.002100
vt 0.929649 0.072632
vt 0.886736 0.072700
vt 0.893194 0.930300
vt 0.887522 0.973665
vt 0.887494 0.930335
vt 0.929637 0.002032
vt 0.897488 0.588315
vt 0.903176 0.658793
vt 0.897464 0.658789
vt 0.903201 0.588320
vt 0.882357 0.674922
vt 0.925379 0.745510
vt 0.882371 0.745513
vt 0.893223 0.973630
vt 0.094226 0.837538
vt 0.099650 0.907815
vt 0.094226 0.907631
vt 0.099679 0.837341
vt 0.925403 0.675043
vt 0.853902 0.930300
vt 0.848229 0.973665
vt 0.848200 0.930335
vt 0.853930 0.973630
vt 0.655843 0.930197
vt 0.693518 0.995091
vt 0.655964 0.995076
vt 0.693458 0.930198
vt 0.488484 0.930218
vt 0.526004 0.995097
vt 0.488476 0.995105
vt 0.526008 0.930210
vt 0.190487 0.930259
vt 0.192136 0.930260
vt 0.192117 0.997794
vt 0.190491 0.997848
vt 0.096377 0.930263
vt 0.098009 0.930260
vt 0.097987 0.997794
vt 0.096391 0.997851
vt 0.161142 0.930259
vt 0.162792 0.930260
vt 0.162772 0.997794
vt 0.114045 0.930263
vt 0.115678 0.930260
vt 0.115655 0.997794
vt 0.114059 0.997851
vt 0.161147 0.997848
vt 0.219831 0.930259
vt 0.221480 0.930260
vt 0.221461 0.997794
vt 0.149382 0.930263
vt 0.151015 0.930259
vt 0.150993 0.997794
vt 0.219836 0.997848
vt 0.149397 0.997851
vt 0.812822 0.930107
vt 0.809744 0.976634
vt 0.809715 0.930115
vt 0.812793 0.976664
vt 0.976480 0.359058
vt 0.985690 0.358869
vt 0.985665 0.361917
vt 0.746714 0.930290
vt 0.737588 0.977231
vt 0.737556 0.930325
vt 0.976443 0.361714
vt 0.773375 0.930290
vt 0.764249 0.977231
vt 0.764217 0.930325
vt 0.773407 0.977196
vt 0.831198 0.976832
vt 0.834302 0.930439
vt 0.834305 0.976833
vt 0.831195 0.930440
vt 0.976354 0.402220
vt 0.985172 0.402127
vt 0.985144 0.405176
vt 0.976354 0.405129
vt 0.746746 0.977196
vt 0.885876 0.192216
vt 0.928897 0.262803
vt 0.885890 0.262806
vt 0.928922 0.192336
vt 0.887563 0.588315
vt 0.893275 0.588320
vt 0.893251 0.658793
vt 0.873547 0.930300
vt 0.867876 0.973665
vt 0.867847 0.930335
vt 0.886725 0.076833
vt 0.929648 0.147364
vt 0.886736 0.147433
vt 0.929637 0.076764
vt 0.907295 0.588517
vt 0.912748 0.588320
vt 0.912719 0.658794
vt 0.873576 0.973630
vt 0.903017 0.930300
vt 0.897346 0.973665
vt 0.897317 0.930335
vt 0.887538 0.658789
vt 0.903046 0.973630
vt 0.907295 0.658610
vt 0.572026 0.930197
vt 0.609700 0.995091
vt 0.572147 0.995076
vt 0.609641 0.930198
vt 0.363579 0.930218
vt 0.401103 0.930210
vt 0.401099 0.995097
vt 0.363571 0.995105
vt 0.102266 0.930263
vt 0.103876 0.997794
vt 0.102280 0.997851
vt 0.103899 0.930260
vt 0.202224 0.930259
vt 0.203854 0.997794
vt 0.202229 0.997848
vt 0.203874 0.930260
vt 0.225700 0.930259
vt 0.227349 0.930260
vt 0.227330 0.997793
vt 0.225704 0.997848
vt 0.131714 0.930263
vt 0.133347 0.930260
vt 0.133324 0.997794
vt 0.131728 0.997851
vt 0.196355 0.930259
vt 0.198005 0.930260
vt 0.197986 0.997794
vt 0.143493 0.930263
vt 0.145103 0.997794
vt 0.143507 0.997851
vt 0.145126 0.930260
vt 0.196360 0.997848
vt 0.976480 0.366217
vt 0.985690 0.366029
vt 0.985665 0.369077
vt 0.819982 0.930107
vt 0.816904 0.976634
vt 0.816875 0.930115
vt 0.819953 0.976664
vt 0.786705 0.930290
vt 0.777579 0.977231
vt 0.777547 0.930325
vt 0.976443 0.368874
vt 0.760045 0.930290
vt 0.750918 0.977231
vt 0.750886 0.930325
vt 0.760077 0.977196
vt 0.976354 0.395060
vt 0.985144 0.398016
vt 0.976354 0.397969
vt 0.824038 0.976832
vt 0.827142 0.930439
vt 0.827145 0.976833
vt 0.985172 0.394967
vt 0.824035 0.930440
vt 0.786737 0.977196
vt 0.886437 0.780622
vt 0.929458 0.851210
vt 0.886451 0.851212
vt 0.929483 0.780742
vt 0.899189 0.310144
vt 0.904901 0.310149
vt 0.904877 0.380623
vt 0.863724 0.930300
vt 0.858053 0.973665
vt 0.858024 0.930335
vt 0.899164 0.380618
vt 0.912840 0.930300
vt 0.907169 0.973665
vt 0.907140 0.930335
vt 0.912869 0.973630
vt 0.863753 0.973630
vt 0.103764 0.837538
vt 0.109217 0.837341
vt 0.109187 0.907815
vt 0.103764 0.907631
vt 0.886437 0.855427
vt 0.929360 0.925959
vt 0.886448 0.926027
vt 0.929349 0.855359
vt 0.530117 0.930197
vt 0.567792 0.995091
vt 0.530238 0.995076
vt 0.567732 0.930198
vt 0.446849 0.930218
vt 0.484373 0.930210
vt 0.484369 0.995097
vt 0.446841 0.995105
vt 0.119935 0.930263
vt 0.121568 0.930260
vt 0.121545 0.997794
vt 0.172880 0.930259
vt 0.174510 0.997794
vt 0.172885 0.997848
vt 0.174529 0.930260
vt 0.119949 0.997851
vt 0.178749 0.930259
vt 0.180398 0.930260
vt 0.180379 0.997794
vt 0.178753 0.997848
vt 0.137603 0.930263
vt 0.139236 0.930260
vt 0.139214 0.997794
vt 0.137618 0.997851
vt 0.208093 0.930259
vt 0.209743 0.930260
vt 0.209723 0.997794
vt 0.108156 0.930263
vt 0.109766 0.997794
vt 0.108170 0.997851
vt 0.109788 0.930260
vt 0.208098 0.997848
vt 0.985458 0.380171
vt 0.985628 0.383543
vt 0.976496 0.380171
vt 0.881662 0.192191
vt 0.868374 0.827956
vt 0.976354 0.387841
vt 0.985415 0.387543
vt 0.985544 0.390618
vt 0.859414 0.827949
vt 0.868540 0.780784
vt 0.976482 0.390915
vt 0.858983 0.827949
vt 0.878812 0.285989
vt 0.881908 0.827950
vt 0.872818 0.875121
vt 0.872949 0.827950
vt 0.878918 0.192147
vt 0.882339 0.827949
vt 0.976666 0.383543
vt 0.976354 0.383246
vt 0.881904 0.875187
vt 0.976471 0.373263
vt 0.985605 0.373203
vt 0.985718 0.375923
vt 0.976583 0.375981
vt 0.884837 0.310380
vt 0.882287 0.310379
vt 0.046927 0.837298
vt 0.089949 0.907885
vt 0.046942 0.907889
vt 0.089973 0.837419
vt 0.889264 0.310144
vt 0.894976 0.310149
vt 0.894952 0.380623
vt 0.844077 0.930300
vt 0.838406 0.973665
vt 0.838377 0.930335
vt 0.887026 0.494980
vt 0.929949 0.565512
vt 0.887037 0.565580
vt 0.883371 0.930300
vt 0.877699 0.973665
vt 0.877670 0.930335
vt 0.929937 0.494912
vt 0.889239 0.380618
vt 0.883400 0.973630
vt 0.813016 0.843647
vt 0.818439 0.913924
vt 0.813015 0.913740
vt 0.844106 0.973630
vt 0.818468 0.843450
vt 0.613935 0.930197
vt 0.651549 0.930198
vt 0.651609 0.995091
vt 0.614056 0.995076
vt 0.405214 0.930218
vt 0.442738 0.930210
vt 0.442734 0.995097
vt 0.405206 0.995105
vt 0.090487 0.930263
vt 0.092097 0.997794
vt 0.090501 0.997851
vt 0.167011 0.930259
vt 0.168641 0.997794
vt 0.167016 0.997848
vt 0.092120 0.930260
vt 0.168661 0.930260
vt 0.155272 0.930263
vt 0.156882 0.997794
vt 0.155286 0.997851
vt 0.156905 0.930260
vt 0.213962 0.930259
vt 0.215612 0.930260
vt 0.215592 0.997794
vt 0.213967 0.997848
vt 0.184618 0.930259
vt 0.186267 0.930260
vt 0.186248 0.997794
vt 0.125824 0.930263
vt 0.127434 0.997794
vt 0.125838 0.997851
vt 0.184622 0.997848
vt 0.127457 0.930260
vt 0.976354 0.409253
vt 0.985142 0.412208
vt 0.976354 0.412162
vt 0.985060 0.409302
vt 0.859453 0.780711
vt 0.882290 0.403939
vt 0.120350 0.832324
vt 0.166867 0.921105
vt 0.120369 0.921063
vt 0.805616 0.930301
vt 0.805645 0.977185
vt 0.800323 0.977219
vt 0.166847 0.832366
vt 0.327080 0.798139
vt 0.332309 0.886542
vt 0.327053 0.886312
vt 0.796174 0.930301
vt 0.796203 0.977185
vt 0.790882 0.977219
vt 0.171307 0.832354
vt 0.217771 0.832276
vt 0.217787 0.921027
vt 0.839639 0.793562
vt 0.844947 0.882208
vt 0.839614 0.882196
vt 0.844973 0.793574
vt 0.790853 0.930335
vt 0.171322 0.921105
vt 0.800294 0.930335
vt 0.332338 0.797908
vt 0.229837 0.835096
vt 0.270631 0.917577
vt 0.229847 0.917525
vt 0.270626 0.835147
vt 0.002041 0.837518
vt 0.042807 0.919904
vt 0.002052 0.919959
vt 0.042802 0.837464
vt 0.283356 0.590471
vt 0.284784 0.673008
vt 0.283369 0.673064
vt 0.283336 0.677418
vt 0.284795 0.677418
vt 0.284779 0.759958
vt 0.283339 0.760011
vt 0.284803 0.590467
vt 0.976595 0.122471
vt 0.976620 0.120060
vt 0.991914 0.120085
vt 0.991888 0.122503
vt 0.976592 0.109274
vt 0.991915 0.106832
vt 0.991884 0.109304
vt 0.976622 0.106802
vt 0.976595 0.129044
vt 0.991914 0.126658
vt 0.991888 0.129076
vt 0.976620 0.126633
vt 0.976592 0.115908
vt 0.976622 0.113436
vt 0.991915 0.113466
vt 0.991884 0.115938
vt 0.327020 0.793758
vt 0.332919 0.604816
vt 0.332926 0.793757
vt 0.877695 0.310278
vt 0.877671 0.498262
vt 0.858570 0.498271
vt 0.934160 0.711785
vt 0.953247 0.706275
vt 0.953294 0.711984
vt 0.934143 0.706257
vt 0.327013 0.604818
vt 0.934178 0.721880
vt 0.934144 0.716030
vt 0.953248 0.716042
vt 0.858595 0.310289
vt 0.953283 0.721892
vt 0.845440 0.600482
vt 0.839541 0.789424
vt 0.839534 0.600483
vt 0.845447 0.789423
vt 0.859057 0.776291
vt 0.859082 0.588440
vt 0.878185 0.588481
vt 0.878160 0.776330
vt 0.843466 0.002000
vt 0.840567 0.288024
vt 0.840521 0.002000
vt 0.843885 0.288082
vt 0.958849 0.545607
vt 0.934292 0.545517
vt 0.934367 0.542203
vt 0.245256 0.600415
vt 0.245196 0.312251
vt 0.270316 0.312147
vt 0.934037 0.534706
vt 0.959095 0.538109
vt 0.934037 0.538156
vt 0.959154 0.534796
vt 0.270317 0.600466
vt 0.278098 0.312151
vt 0.274796 0.598361
vt 0.274954 0.312136
vt 0.332655 0.312201
vt 0.332715 0.600364
vt 0.307533 0.600416
vt 0.278116 0.598413
vt 0.958857 0.542156
vt 0.307473 0.312252
vt 0.934291 0.317546
vt 0.960035 0.327125
vt 0.934249 0.327052
vt 0.934274 0.257345
vt 0.960220 0.257303
vt 0.960265 0.268077
vt 0.960090 0.317568
vt 0.976354 0.304773
vt 0.986735 0.314193
vt 0.976354 0.314073
vt 0.976355 0.332216
vt 0.986773 0.332216
vt 0.986772 0.341516
vt 0.976354 0.341516
vt 0.934319 0.268119
vt 0.959997 0.488127
vt 0.934351 0.478566
vt 0.960003 0.478532
vt 0.934296 0.488076
vt 0.986785 0.304595
vt 0.960265 0.298197
vt 0.934319 0.298240
vt 0.934274 0.287466
vt 0.960219 0.287423
vt 0.959997 0.474532
vt 0.934351 0.464972
vt 0.960003 0.464938
vt 0.934296 0.474481
vt 0.976354 0.318648
vt 0.986785 0.318470
vt 0.986735 0.328068
vt 0.960265 0.313258
vt 0.934319 0.313300
vt 0.934274 0.302526
vt 0.934274 0.272406
vt 0.960265 0.283137
vt 0.934319 0.283179
vt 0.976355 0.345516
vt 0.986772 0.354817
vt 0.976354 0.354817
vt 0.934291 0.331285
vt 0.960035 0.340864
vt 0.934249 0.340792
vt 0.960220 0.272363
vt 0.986773 0.345516
vt 0.976354 0.327948
vt 0.960219 0.302484
vt 0.960090 0.331308
vt 0.047349 0.930348
vt 0.064777 0.996952
vt 0.047380 0.996961
vt 0.064762 0.930339
vt 0.024511 0.930302
vt 0.043200 0.930342
vt 0.043158 0.996961
vt 0.934037 0.753418
vt 0.952368 0.736233
vt 0.952368 0.753418
vt 0.024489 0.996919
vt 0.952368 0.757418
vt 0.934037 0.774603
vt 0.934037 0.757418
vt 0.952368 0.774603
vt 0.068934 0.930352
vt 0.086344 0.996923
vt 0.068958 0.996974
vt 0.086336 0.930302
vt 0.934037 0.736233
vt 0.002087 0.930340
vt 0.020346 0.930342
vt 0.020305 0.996961
vt 0.002055 0.996957
vt 0.967054 0.235805
vt 0.934316 0.210437
vt 0.967066 0.210347
vt 0.934272 0.137824
vt 0.967381 0.155174
vt 0.934300 0.155178
vt 0.934272 0.235740
vt 0.934037 0.509416
vt 0.959015 0.492126
vt 0.959015 0.509416
vt 0.934419 0.383301
vt 0.959524 0.366285
vt 0.959397 0.383298
vt 0.934221 0.366260
vt 0.934271 0.095053
vt 0.967380 0.112403
vt 0.934299 0.112407
vt 0.934276 0.035878
vt 0.967175 0.035879
vt 0.967197 0.061179
vt 0.967352 0.095048
vt 0.967353 0.137819
vt 0.934303 0.061178
vt 0.934037 0.492126
vt 0.951418 0.827499
vt 0.950378 0.834091
vt 0.943050 0.838411
vt 0.935263 0.834184
vt 0.935389 0.825325
vt 0.943077 0.821255
vt 0.949160 0.823372
vt 0.951438 0.789653
vt 0.947056 0.794925
vt 0.938740 0.794895
vt 0.934099 0.787330
vt 0.938624 0.779727
vt 0.947257 0.779956
vt 0.951540 0.784949
vt 0.976616 0.214489
vt 0.976600 0.211305
vt 0.990321 0.211291
vt 0.976614 0.221834
vt 0.990313 0.218637
vt 0.990337 0.221818
vt 0.976590 0.218652
vt 0.990337 0.214473
vt 0.976355 0.505145
vt 0.979090 0.507525
vt 0.976354 0.507343
vt 0.979134 0.504930
vt 0.934037 0.626908
vt 0.956372 0.626976
vt 0.956331 0.629541
vt 0.934318 0.559856
vt 0.956666 0.556838
vt 0.956707 0.559816
vt 0.976355 0.464556
vt 0.979090 0.466934
vt 0.976354 0.466753
vt 0.979134 0.464339
vt 0.956156 0.636255
vt 0.934319 0.636187
vt 0.934372 0.633622
vt 0.934277 0.556878
vt 0.934037 0.629581
vt 0.956666 0.599798
vt 0.956707 0.602777
vt 0.934319 0.602817
vt 0.934277 0.599838
vt 0.956162 0.633581
vt 0.976355 0.491616
vt 0.979114 0.492595
vt 0.976354 0.493813
vt 0.934037 0.614791
vt 0.956371 0.613629
vt 0.956331 0.616193
vt 0.934318 0.595656
vt 0.956666 0.592638
vt 0.956707 0.595617
vt 0.956666 0.549678
vt 0.956707 0.552656
vt 0.934318 0.552696
vt 0.934277 0.549718
vt 0.976355 0.471321
vt 0.979114 0.472299
vt 0.976354 0.473518
vt 0.934277 0.592678
vt 0.956159 0.655045
vt 0.934319 0.656207
vt 0.934372 0.653643
vt 0.934271 0.116438
vt 0.967380 0.133788
vt 0.934299 0.133793
vt 0.934037 0.530706
vt 0.934037 0.513416
vt 0.959015 0.513416
vt 0.967352 0.116433
vt 0.967054 0.206130
vt 0.934272 0.206065
vt 0.934316 0.180762
vt 0.959015 0.530706
vt 0.934276 0.065550
vt 0.967197 0.090851
vt 0.934303 0.090849
vt 0.967175 0.065551
vt 0.967066 0.180672
vt 0.934271 0.159209
vt 0.967381 0.176559
vt 0.934299 0.176563
vt 0.934419 0.362100
vt 0.959523 0.345085
vt 0.959397 0.362098
vt 0.934221 0.345059
vt 0.967353 0.159204
vt 0.951418 0.848807
vt 0.950378 0.855399
vt 0.943050 0.859719
vt 0.935263 0.855492
vt 0.935389 0.846632
vt 0.943077 0.842563
vt 0.949160 0.844680
vt 0.951438 0.810979
vt 0.947057 0.816252
vt 0.938740 0.816221
vt 0.934099 0.808656
vt 0.938624 0.801053
vt 0.947257 0.801282
vt 0.951540 0.806275
vt 0.976616 0.207142
vt 0.990320 0.203943
vt 0.990337 0.207126
vt 0.976600 0.203958
vt 0.976614 0.229179
vt 0.990313 0.225982
vt 0.990337 0.229163
vt 0.976590 0.225997
vt 0.976355 0.498381
vt 0.979090 0.500761
vt 0.976354 0.500578
vt 0.979134 0.498165
vt 0.934037 0.606888
vt 0.956371 0.606956
vt 0.956331 0.609520
vt 0.934318 0.567016
vt 0.956665 0.563998
vt 0.956707 0.566976
vt 0.976355 0.478086
vt 0.979090 0.480464
vt 0.976354 0.480283
vt 0.979134 0.477869
vt 0.956156 0.649602
vt 0.934319 0.649534
vt 0.934372 0.646969
vt 0.934277 0.564038
vt 0.934037 0.609561
vt 0.956666 0.571158
vt 0.934319 0.574176
vt 0.934277 0.571198
vt 0.956707 0.574136
vt 0.956162 0.646928
vt 0.976355 0.511910
vt 0.979090 0.514290
vt 0.976354 0.514107
vt 0.956666 0.585478
vt 0.956707 0.588456
vt 0.934319 0.588496
vt 0.979134 0.511695
vt 0.956156 0.642928
vt 0.934372 0.640296
vt 0.956162 0.640255
vt 0.934037 0.620234
vt 0.956372 0.620302
vt 0.956331 0.622867
vt 0.934318 0.581336
vt 0.956666 0.578318
vt 0.956707 0.581296
vt 0.934319 0.642860
vt 0.976355 0.484850
vt 0.979090 0.487229
vt 0.976354 0.487048
vt 0.979134 0.484634
vt 0.934277 0.578358
vt 0.934277 0.585518
vt 0.934037 0.622908
vt 0.978456 0.439155
vt 0.976502 0.437859
vt 0.978557 0.436731
vt 0.835255 0.706008
vt 0.833543 0.706228
vt 0.833423 0.600763
vt 0.835340 0.600598
vt 0.977577 0.450630
vt 0.979481 0.451738
vt 0.977435 0.453045
vt 0.243437 0.710088
vt 0.241675 0.604793
vt 0.243299 0.604788
vt 0.867472 0.297838
vt 0.865645 0.192446
vt 0.867205 0.192276
vt 0.865645 0.297682
vt 0.241739 0.710277
vt 0.243437 0.819951
vt 0.241739 0.820140
vt 0.241675 0.714656
vt 0.243299 0.714652
vt 0.978456 0.446109
vt 0.976502 0.444812
vt 0.978558 0.443684
vt 0.873850 0.297838
vt 0.872023 0.297682
vt 0.872023 0.192446
vt 0.873584 0.192276
vt 0.977577 0.457583
vt 0.979481 0.458692
vt 0.977435 0.459999
vt 0.835255 0.815869
vt 0.833423 0.710624
vt 0.835340 0.710459
vt 0.833543 0.816089
vt 0.289162 0.840045
vt 0.320002 0.910960
vt 0.289187 0.910960
vt 0.934284 0.248624
vt 0.965353 0.248594
vt 0.965392 0.253110
vt 0.319976 0.840045
vt 0.858624 0.502671
vt 0.863025 0.573506
vt 0.858594 0.573492
vt 0.887391 0.408078
vt 0.918210 0.478922
vt 0.887417 0.479003
vt 0.918184 0.407998
vt 0.863059 0.502685
vt 0.934284 0.239997
vt 0.965353 0.239967
vt 0.965392 0.244483
vt 0.934323 0.253141
vt 0.867244 0.502662
vt 0.871750 0.573505
vt 0.867212 0.573483
vt 0.871781 0.502685
vt 0.934323 0.244513
vt 0.934286 0.673848
vt 0.953562 0.660449
vt 0.953569 0.673841
vt 0.934277 0.660451
vt 0.934037 0.702210
vt 0.934037 0.695751
vt 0.953206 0.695772
vt 0.976503 0.253968
vt 0.990034 0.260383
vt 0.976469 0.260389
vt 0.976356 0.264451
vt 0.989666 0.270842
vt 0.976354 0.270805
vt 0.934293 0.691580
vt 0.953538 0.678192
vt 0.953580 0.691574
vt 0.934251 0.678193
vt 0.953169 0.702194
vt 0.934051 0.732232
vt 0.934037 0.725923
vt 0.953056 0.725923
vt 0.953070 0.732232
vt 0.989703 0.264421
vt 0.990067 0.253962
vt 0.976963 0.829096
vt 0.321169 0.604514
vt 0.949954 0.993545
vt 0.950108 0.994146
vt 0.934047 0.993866
vt 0.857206 0.002000
vt 0.849453 0.310033
vt 0.285028 0.312398
vt 0.990284 0.163043
vt 0.813015 0.607144
vt 0.270351 0.604486
vt 0.990250 0.173325
vt 0.289028 0.609022
vt 0.303247 0.829555
vt 0.882229 0.310268
vt 0.872643 0.827949
vt 0.934201 0.437244
vt 0.934339 0.436793
vt 0.960332 0.437135
vt 0.934205 0.393009
vt 0.934342 0.392310
vt 0.960275 0.393031
vt 0.934201 0.427870
vt 0.934339 0.427419
vt 0.960332 0.427761
vt 0.934204 0.403028
vt 0.934342 0.402329
vt 0.960274 0.403050
vt 0.934201 0.441931
vt 0.934340 0.441480
vt 0.960332 0.441822
vt 0.934204 0.388000
vt 0.934342 0.387301
vt 0.960275 0.388022
vt 0.934201 0.432557
vt 0.934340 0.432106
vt 0.960332 0.432448
vt 0.934205 0.398018
vt 0.934342 0.397319
vt 0.960275 0.398041
vt 0.992271 0.041899
vt 0.992425 0.042499
vt 0.976379 0.042011
vt 0.950017 0.969006
vt 0.950017 0.969596
vt 0.934037 0.968832
vt 0.950017 0.929106
vt 0.950017 0.929696
vt 0.934037 0.929260
vt 0.992271 0.011975
vt 0.992425 0.012575
vt 0.976365 0.012295
vt 0.950017 0.964019
vt 0.950017 0.964608
vt 0.934037 0.964172
vt 0.992271 0.021950
vt 0.992425 0.022550
vt 0.976379 0.022062
vt 0.950017 0.949056
vt 0.950017 0.949646
vt 0.934037 0.948882
vt 0.992271 0.026937
vt 0.992425 0.027537
vt 0.976365 0.027257
vt 0.950017 0.973994
vt 0.950017 0.974583
vt 0.934037 0.974147
vt 0.949954 0.983571
vt 0.950108 0.984171
vt 0.934047 0.983891
vt 0.252438 0.825518
vt 0.252740 0.604784
vt 0.270288 0.830823
vt 0.990574 0.179239
vt 0.279089 0.602800
vt 0.990578 0.168962
vt 0.822202 0.288060
vt 0.822506 0.002000
vt 0.836118 0.288432
vt 0.822568 0.288423
vt 0.836422 0.288129
vt 0.976356 0.184001
vt 0.289338 0.312157
vt 0.302886 0.312131
vt 0.289033 0.312460
vt 0.303251 0.312493
vt 0.976354 0.194117
vt 0.302941 0.598756
vt 0.985770 0.380468
vt 0.976660 0.387543
vt 0.985238 0.390915
s 1
usemtl shop_006_baked
f 1/1/1 2/2/1 3/3/1
f 1/1/1 3/3/1 4/4/1
f 26/5/2 28/6/3 25/7/4
f 32/8/5 34/9/5 31/10/5
f 37/11/6 39/12/6 36/13/6
f 40/14/7 42/15/7 43/16/7
f 47/17/8 49/18/8 46/19/8
f 50/20/9 52/21/9 53/22/9
f 57/23/10 59/24/10 56/25/10
f 61/26/8 63/27/8 64/28/8
f 66/29/11 67/30/11 68/31/11
f 69/32/12 71/33/12 72/34/12
f 74/35/13 76/36/13 73/37/13
f 79/38/14 80/39/14 78/40/14
f 59/24/15 60/41/16 56/25/17
f 178/42/18 176/43/18 177/44/18
f 365/45/19 366/46/20 367/47/21
f 61/48/22 21/49/22 22/50/22
f 47/17/8 64/28/8 63/27/8
f 30/51/23 37/52/23 29/53/23
f 26/54/24 39/55/24 38/56/24
f 23/57/25 30/58/26 29/59/27
f 24/60/28 22/61/29 21/62/30
f 44/63/31 40/14/32 43/16/32
f 45/64/33 48/65/33 44/66/33
f 31/67/34 48/68/34 47/17/34
f 53/69/35 36/70/35 50/71/35
f 73/72/36 42/73/36 74/74/36
f 31/10/37 52/21/37 32/8/37
f 35/75/38 45/76/39 44/63/40
f 68/31/41 62/77/41 66/29/41
f 54/78/42 69/32/43 72/34/43
f 55/79/44 27/80/44 54/81/44
f 78/40/45 27/82/45 26/5/45
f 60/41/46 55/83/47 54/78/48
f 56/84/49 71/85/49 57/86/49
f 78/87/50 67/88/50 79/89/50
f 41/90/51 59/24/52 58/91/53
f 65/92/54 34/93/55 33/94/56
f 70/95/57 76/36/58 75/96/59
f 51/97/60 80/39/61 77/98/62
f 174/99/63 171/100/63 172/101/63
f 177/102/64 207/103/64 208/104/64
f 175/105/65 173/106/65 174/107/65
f 203/108/66 170/109/66 169/110/66
f 210/111/67 206/112/67 205/113/67
f 308/114/68 309/115/68 310/116/68
f 308/117/68 310/118/68 309/119/68
f 311/120/68 312/121/68 313/122/68
f 311/123/68 313/124/68 312/125/68
f 317/126/68 318/127/68 319/128/68
f 317/129/68 319/130/68 318/131/68
f 359/132/68 360/133/68 361/134/68
f 359/135/68 361/136/68 360/137/68
f 362/138/68 364/139/68 363/140/68
f 362/141/68 363/142/68 364/143/68
f 370/144/68 368/145/68 369/146/68
f 370/147/68 369/148/68 368/149/68
f 6/150/69 7/151/70 5/152/71
f 6/150/69 5/152/71 12/153/72
f 5/154/71 9/155/73 12/156/72
f 7/157/70 10/158/74 5/159/71
f 5/154/71 10/160/74 9/155/73
f 6/161/69 11/162/75 8/163/76
f 11/164/75 6/165/69 12/166/72
f 6/161/69 8/163/76 7/167/70
f 7/157/70 8/168/76 10/158/74
f 8/169/76 9/170/73 10/171/74
f 8/169/76 11/172/75 9/170/73
f 11/164/75 12/166/72 9/173/73
f 19/174/77 13/175/78 14/176/79
f 14/177/79 13/178/78 15/179/80
f 13/180/78 18/181/81 15/182/80
f 13/180/78 16/183/82 18/181/81
f 19/174/77 16/184/82 13/175/78
f 14/177/79 15/179/80 20/185/83
f 19/186/77 14/187/79 20/188/83
f 20/189/83 15/190/80 18/191/81
f 16/192/82 17/193/84 18/194/81
f 16/192/82 19/195/77 17/193/84
f 20/189/83 18/191/81 17/196/84
f 19/186/77 20/188/83 17/197/84
f 29/59/85 21/62/86 23/57/87
f 23/198/87 21/49/86 64/199/88
f 28/200/89 27/201/89 63/202/89
f 22/203/29 24/204/28 28/200/90
f 29/59/85 24/60/91 21/62/86
f 23/198/87 64/199/88 46/205/92
f 30/206/26 23/207/25 49/208/93
f 24/209/91 38/210/94 25/211/95
f 24/209/91 29/53/85 38/210/94
f 63/27/96 78/40/96 26/5/96
f 47/17/96 63/27/96 26/5/96
f 69/212/97 54/81/98 27/80/99
f 63/213/100 26/214/100 55/215/47
f 79/216/101 71/217/101 27/80/99
f 47/17/102 38/218/102 37/219/102
f 49/208/103 48/220/103 37/221/103
f 42/73/104 33/222/104 32/8/104
f 32/223/1 42/224/1 48/65/105
f 31/67/96 47/17/96 37/219/96
f 74/74/100 42/73/100 32/8/100
f 74/74/100 32/8/100 52/21/100
f 31/67/96 37/219/96 53/69/96
f 40/225/101 32/226/101 34/227/101
f 45/228/39 35/229/38 39/230/106
f 35/231/107 50/232/108 36/233/109
f 35/231/107 74/234/110 52/235/111
f 73/37/112 35/75/113 44/63/31
f 39/230/114 37/236/114 48/237/114
f 40/238/115 44/66/116 48/65/105
f 73/37/112 44/63/31 43/16/32
f 42/73/117 41/239/51 33/222/56
f 75/240/118 74/74/118 52/21/118
f 75/240/59 52/21/119 51/241/60
f 54/78/42 72/34/43 56/25/17
f 55/215/47 60/242/46 61/243/120
f 54/78/42 56/25/17 60/41/16
f 58/244/121 57/86/121 67/88/121
f 60/245/122 57/246/123 67/247/124
f 57/86/125 79/89/125 67/88/125
f 57/86/125 71/85/125 79/89/125
f 60/245/122 66/248/126 62/249/127
f 63/27/96 68/31/96 78/40/96
f 41/250/51 65/251/54 33/252/56
f 41/250/51 58/253/53 65/251/54
f 58/244/53 67/88/128 65/254/54
f 69/255/1 79/256/1 80/257/1
f 71/85/129 77/258/129 79/89/129
f 71/85/130 70/259/57 77/258/62
f 70/260/57 51/261/60 77/262/62
f 70/260/57 75/263/59 51/261/60
f 86/264/131 81/265/132 83/266/133
f 82/267/134 83/268/133 81/269/132
f 86/264/131 85/270/135 81/265/132
f 85/271/135 82/272/134 81/273/132
f 85/271/135 88/274/136 82/272/134
f 88/275/136 84/276/137 82/277/134
f 82/267/134 84/278/137 83/268/133
f 87/279/138 83/280/133 84/281/137
f 87/279/138 86/282/131 83/280/133
f 88/275/136 87/283/138 84/276/137
f 85/284/135 87/285/138 88/286/136
f 85/284/135 86/287/131 87/285/138
f 89/288/139 92/289/140 91/290/141
f 89/288/139 90/291/142 92/289/140
f 90/292/142 91/293/141 92/294/140
f 90/292/142 89/295/139 91/293/141
f 94/296/143 95/297/144 93/298/145
f 94/296/143 93/298/145 96/299/146
f 95/300/144 94/301/143 96/302/146
f 95/300/144 96/302/146 93/303/145
f 99/304/147 97/305/148 100/306/149
f 97/307/148 99/308/147 98/309/150
f 97/307/148 98/309/150 100/310/149
f 99/304/147 100/306/149 98/311/150
f 102/312/151 101/313/152 103/314/153
f 101/315/152 102/316/151 104/317/154
f 102/312/151 103/314/153 104/318/154
f 101/315/152 104/317/154 103/319/153
f 105/320/155 110/321/156 106/322/157
f 105/320/155 111/323/158 110/321/156
f 112/324/159 105/325/155 106/326/157
f 112/327/160 111/328/161 105/329/162
f 112/324/159 106/326/157 107/330/163
f 106/331/164 108/332/165 107/333/166
f 106/331/164 110/334/167 108/332/165
f 109/335/168 107/336/163 108/337/169
f 109/335/168 112/338/159 107/336/163
f 111/339/158 109/340/168 108/341/169
f 111/339/158 108/341/169 110/342/156
f 112/327/160 109/343/170 111/328/161
f 113/344/136 116/345/137 119/346/134
f 113/344/136 118/347/138 116/345/137
f 117/348/135 113/349/136 119/350/134
f 117/351/135 118/352/138 113/353/136
f 114/354/131 115/355/132 120/356/133
f 114/354/131 117/357/135 115/355/132
f 118/358/138 114/359/131 120/360/133
f 117/351/135 114/361/131 118/352/138
f 119/362/134 120/363/133 115/364/132
f 117/348/135 119/350/134 115/365/132
f 119/362/134 116/366/137 120/363/133
f 118/358/138 120/360/133 116/367/137
f 121/368/171 124/369/172 122/370/173
f 121/368/171 123/371/174 124/369/172
f 123/372/174 121/373/171 122/374/173
f 123/372/174 122/374/173 124/375/172
f 128/376/148 127/377/175 125/378/149
f 128/376/148 126/379/147 127/377/175
f 126/380/147 125/381/149 127/382/175
f 126/380/147 128/383/148 125/381/149
f 131/384/151 129/385/152 132/386/153
f 131/384/151 132/386/153 130/387/154
f 129/388/152 131/389/151 130/390/154
f 129/388/152 130/390/154 132/391/153
f 135/392/176 133/393/177 134/394/178
f 133/395/177 136/396/179 134/397/178
f 133/395/177 135/398/176 136/396/179
f 135/392/176 134/394/178 136/399/179
f 142/400/159 137/401/155 138/402/157
f 137/403/155 140/404/156 138/405/157
f 137/403/155 143/406/158 140/404/156
f 142/407/160 143/408/161 137/409/162
f 142/400/159 138/402/157 144/410/163
f 138/411/164 139/412/165 144/413/166
f 138/411/164 140/414/167 139/412/165
f 143/415/158 139/416/169 140/417/156
f 141/418/168 144/419/163 139/420/169
f 143/415/158 141/421/168 139/416/169
f 141/418/168 142/422/159 144/419/163
f 142/407/160 141/423/170 143/408/161
f 145/424/136 151/425/137 146/426/134
f 145/424/136 147/427/138 151/425/137
f 150/428/135 145/429/136 146/430/134
f 150/431/135 147/432/138 145/433/136
f 150/428/135 146/430/134 152/434/132
f 146/435/134 149/436/133 152/437/132
f 146/435/134 151/438/137 149/436/133
f 150/431/135 148/439/131 147/432/138
f 147/440/138 148/441/131 149/442/133
f 147/440/138 149/442/133 151/443/137
f 148/444/131 152/445/132 149/446/133
f 148/444/131 150/447/135 152/445/132
f 153/448/171 156/449/172 155/450/180
f 153/448/171 154/451/174 156/449/172
f 154/452/174 153/453/171 155/454/180
f 154/452/174 155/454/180 156/455/172
f 160/456/181 157/457/182 158/458/183
f 157/459/182 159/460/184 158/461/183
f 157/459/182 160/462/181 159/460/184
f 160/456/181 158/458/183 159/463/184
f 164/464/185 161/465/186 163/466/187
f 164/464/185 163/466/187 162/467/188
f 161/468/186 164/469/185 162/470/188
f 161/468/186 162/470/188 163/471/187
f 168/472/189 165/473/190 167/474/191
f 165/475/190 166/476/192 167/477/191
f 165/475/190 168/478/189 166/476/192
f 168/472/189 167/474/191 166/479/192
f 169/480/100 172/481/100 208/482/100
f 178/483/193 170/109/193 172/101/193
f 177/44/194 169/484/194 178/42/194
f 206/485/125 172/486/125 170/487/125
f 208/488/195 203/489/195 169/484/195
f 170/487/125 208/490/125 206/485/125
f 207/491/196 169/484/196 177/44/196
f 170/109/100 171/100/100 172/101/100
f 170/109/197 203/108/198 204/492/199
f 172/493/200 210/494/200 205/495/200
f 178/483/201 172/101/202 173/496/203
f 171/497/204 205/495/204 174/107/204
f 208/482/100 205/498/100 206/499/100
f 172/493/205 204/500/205 210/494/205
f 176/501/206 178/502/201 173/503/203
f 176/501/206 173/503/203 175/504/207
f 174/107/208 205/495/208 175/105/208
f 208/104/209 175/505/209 206/112/209
f 208/104/210 176/506/206 175/505/207
f 179/507/136 181/508/137 185/509/134
f 179/507/136 184/510/138 181/508/137
f 182/511/135 179/512/136 185/513/134
f 182/514/135 184/515/138 179/516/136
f 183/517/131 180/518/132 186/519/133
f 185/520/134 186/521/133 180/522/132
f 183/517/131 182/523/135 180/518/132
f 182/511/135 185/513/134 180/524/132
f 185/520/134 181/525/137 186/521/133
f 184/526/138 186/527/133 181/528/137
f 182/514/135 183/529/131 184/515/138
f 184/526/138 183/530/131 186/527/133
f 189/531/139 187/532/211 190/533/140
f 189/531/139 190/533/140 188/534/212
f 187/535/211 189/536/139 188/537/212
f 187/535/211 188/537/212 190/538/140
f 193/539/152 192/540/154 191/541/153
f 194/542/151 191/543/153 192/544/154
f 193/539/152 194/545/151 192/540/154
f 194/542/151 193/546/152 191/543/153
f 195/547/213 197/548/214 196/549/215
f 195/547/213 198/550/216 197/548/214
f 198/551/216 195/552/213 196/553/215
f 198/551/216 196/553/215 197/554/214
f 202/555/185 199/556/186 200/557/217
f 199/558/186 201/559/218 200/560/217
f 202/555/185 200/557/217 201/561/218
f 199/558/186 202/562/185 201/559/218
f 203/563/198 210/564/219 204/565/199
f 203/563/198 209/566/220 210/564/219
f 208/488/221 209/567/221 203/489/221
f 207/103/222 206/112/223 209/568/224
f 209/568/220 206/112/225 210/111/219
f 214/569/226 211/570/227 217/571/228
f 217/572/228 211/573/227 218/574/229
f 214/569/226 215/575/230 211/570/227
f 215/576/230 218/577/229 211/578/227
f 212/579/231 216/580/232 215/581/230
f 216/582/232 212/583/231 213/584/233
f 212/585/231 217/586/228 213/587/233
f 212/585/231 214/588/226 217/586/228
f 212/579/231 215/581/230 214/589/226
f 216/582/232 213/584/233 218/590/229
f 217/572/228 218/574/229 213/591/233
f 215/576/230 216/592/232 218/577/229
f 220/593/234 219/594/235 221/595/236
f 220/593/234 222/596/237 219/594/235
f 222/597/237 221/598/236 219/599/235
f 222/597/237 220/600/234 221/598/236
f 224/601/238 226/602/239 223/603/240
f 225/604/241 224/605/238 223/606/240
f 225/604/241 223/606/240 226/607/239
f 224/601/238 225/608/241 226/602/239
f 229/609/242 230/610/243 227/611/244
f 229/609/242 227/611/244 228/612/245
f 230/613/243 228/614/245 227/615/244
f 230/613/243 229/616/242 228/614/245
f 231/617/242 233/618/244 234/619/245
f 231/617/242 232/620/243 233/618/244
f 232/621/243 231/622/242 234/623/245
f 232/621/243 234/623/245 233/624/244
f 238/625/246 235/626/247 236/627/248
f 236/628/249 235/629/250 241/630/251
f 235/631/247 239/632/252 241/633/253
f 235/631/247 240/634/254 239/632/252
f 238/625/246 240/635/254 235/626/247
f 238/636/246 236/637/248 237/638/255
f 236/628/249 241/630/251 237/639/256
f 238/636/246 237/638/255 242/640/257
f 237/641/255 239/642/252 242/643/257
f 237/641/255 241/644/253 239/642/252
f 240/645/258 238/646/259 242/647/260
f 240/645/258 242/647/260 239/648/261
f 243/649/262 250/650/263 248/651/264
f 243/649/262 244/652/265 250/650/263
f 246/653/266 243/654/262 248/655/264
f 244/656/265 243/657/262 246/658/266
f 244/659/265 249/660/267 250/661/263
f 244/659/265 247/662/268 249/660/267
f 244/656/265 246/658/266 247/663/268
f 247/664/268 245/665/269 249/666/267
f 249/667/267 245/668/269 248/669/264
f 247/664/268 246/670/266 245/665/269
f 246/653/266 248/655/264 245/671/269
f 249/667/267 248/669/264 250/672/263
f 262/673/270 257/674/271 258/675/272
f 258/676/272 257/677/271 263/678/273
f 262/673/270 264/679/274 257/674/271
f 264/680/274 263/681/273 257/682/271
f 261/683/275 262/684/270 258/685/272
f 261/683/275 258/685/272 260/686/276
f 258/676/272 263/678/273 260/687/276
f 259/688/277 260/689/276 263/690/273
f 259/688/277 261/691/275 260/689/276
f 264/680/274 259/692/277 263/681/273
f 261/693/275 259/694/277 264/695/274
f 261/693/275 264/695/274 262/696/270
f 271/697/277 273/698/276 275/699/273
f 271/697/277 277/700/275 273/698/276
f 274/701/274 271/702/277 275/703/273
f 277/704/275 271/705/277 274/706/274
f 272/707/272 275/708/273 273/709/276
f 277/710/275 272/711/272 273/712/276
f 278/713/270 276/714/271 272/715/272
f 272/707/272 276/716/271 275/708/273
f 277/710/275 278/717/270 272/711/272
f 274/701/274 275/703/273 276/718/271
f 277/704/275 274/706/274 278/719/270
f 278/713/270 274/720/274 276/714/271
f 279/721/278 285/722/279 280/723/280
f 279/721/278 282/724/281 285/722/279
f 286/725/282 279/726/278 280/727/280
f 286/728/282 282/729/281 279/730/278
f 286/725/282 280/727/280 281/731/283
f 280/732/280 284/733/284 281/734/283
f 280/732/280 285/735/279 284/733/284
f 283/736/285 281/737/283 284/738/284
f 283/736/285 286/739/282 281/737/283
f 286/728/282 283/740/285 282/729/281
f 282/741/281 283/742/285 284/743/284
f 282/741/281 284/743/284 285/744/279
f 289/745/286 287/746/287 290/747/288
f 294/748/289 290/749/288 287/750/287
f 289/745/286 292/751/290 287/746/287
f 292/752/290 294/753/289 287/754/287
f 288/755/291 290/756/288 291/757/292
f 288/755/291 289/758/286 290/756/288
f 292/759/290 288/760/291 293/761/293
f 293/762/293 288/763/291 291/764/292
f 292/759/290 289/765/286 288/760/291
f 294/748/289 291/766/292 290/749/288
f 293/762/293 291/764/292 294/767/289
f 292/752/290 293/768/293 294/753/289
f 296/769/294 300/770/295 299/771/296
f 296/769/294 299/771/296 295/772/297
f 296/769/294 295/772/297 297/773/298
f 296/769/294 297/773/298 298/774/299
f 296/769/294 298/774/299 301/775/300
f 301/776/300 298/777/299 297/778/298
f 301/776/300 295/779/297 299/780/296
f 301/776/300 299/780/296 300/781/295
f 301/776/300 300/781/295 296/782/294
f 301/776/300 297/778/298 295/779/297
f 323/783/301 320/784/302 322/785/303
f 320/786/302 321/787/304 322/788/303
f 320/786/302 323/789/301 321/787/304
f 323/783/301 322/785/303 321/790/304
f 324/791/305 330/792/306 327/793/307
f 324/791/305 329/794/308 330/792/306
f 326/795/309 324/796/305 327/797/307
f 326/798/309 329/799/308 324/800/305
f 325/801/310 328/802/311 331/803/312
f 325/801/310 326/804/309 328/802/311
f 329/805/308 325/806/310 331/807/312
f 326/798/309 325/808/310 329/799/308
f 326/795/309 327/797/307 328/809/311
f 327/810/307 330/811/306 331/812/312
f 327/810/307 331/812/312 328/813/311
f 329/805/308 331/807/312 330/814/306
f 332/815/313 333/816/314 334/817/315
f 335/818/316 332/819/313 334/820/315
f 335/821/316 333/822/314 332/823/313
f 334/824/315 333/825/314 337/826/317
f 334/824/315 337/826/317 335/827/316
f 336/828/318 335/829/316 337/830/317
f 335/821/316 336/831/318 333/822/314
f 333/832/314 336/833/318 337/834/317
f 338/835/290 341/836/291 339/837/293
f 338/838/290 339/839/293 343/840/289
f 338/835/290 342/841/286 341/836/291
f 342/842/286 338/843/290 340/844/287
f 338/838/290 343/840/289 340/845/287
f 339/846/293 344/847/292 343/848/289
f 339/846/293 341/849/291 344/847/292
f 342/842/286 340/844/287 345/850/288
f 343/851/289 345/852/288 340/853/287
f 341/854/291 345/855/288 344/856/292
f 341/854/291 342/857/286 345/855/288
f 343/851/289 344/858/292 345/852/288
f 346/859/294 349/860/319 347/861/320
f 346/859/294 347/861/320 352/862/297
f 346/859/294 352/862/297 348/863/298
f 346/859/294 348/863/298 351/864/299
f 346/859/294 351/864/299 350/865/300
f 350/866/300 351/867/299 348/868/298
f 350/866/300 348/868/298 352/869/297
f 350/866/300 347/870/320 349/871/319
f 350/866/300 349/871/319 346/872/294
f 350/866/300 352/869/297 347/870/320
f 374/873/301 371/874/303 372/875/304
f 374/873/301 373/876/302 371/874/303
f 373/877/302 372/878/304 371/879/303
f 373/877/302 374/880/301 372/878/304
f 375/881/305 381/882/306 378/883/307
f 375/881/305 380/884/308 381/882/306
f 377/885/309 375/886/305 378/887/307
f 377/888/309 380/889/308 375/890/305
f 376/891/310 382/892/311 379/893/312
f 376/891/310 377/894/309 382/892/311
f 380/895/308 376/896/310 379/897/312
f 377/888/309 376/898/310 380/889/308
f 377/885/309 378/887/307 382/899/311
f 378/900/307 379/901/312 382/902/311
f 378/900/307 381/903/306 379/901/312
f 380/895/308 379/897/312 381/904/306
f 384/905/305 383/906/306 389/907/307
f 389/908/307 383/909/306 386/910/312
f 384/905/305 387/911/308 383/906/306
f 387/912/308 386/913/312 383/914/306
f 388/915/309 384/916/305 389/917/307
f 388/918/309 387/919/308 384/920/305
f 387/912/308 385/921/310 386/913/312
f 385/922/310 390/923/311 386/924/312
f 385/922/310 388/925/309 390/923/311
f 388/918/309 385/926/310 387/919/308
f 389/908/307 386/910/312 390/927/311
f 388/915/309 389/917/307 390/928/311
f 391/929/321 395/930/322 394/931/323
f 391/932/321 394/933/323 393/934/324
f 391/932/321 393/934/324 396/935/325
f 393/936/324 392/937/326 396/938/325
f 395/939/322 396/940/325 392/941/326
f 394/942/323 392/943/326 393/944/324
f 394/942/323 395/945/322 392/943/326
f 395/939/322 391/946/321 396/940/325
f 398/947/322 397/948/321 402/949/325
f 398/947/322 402/949/325 401/950/326
f 397/951/321 398/952/322 399/953/323
f 399/954/323 398/955/322 401/956/326
f 399/954/323 401/956/326 400/957/327
f 400/958/327 401/959/326 402/960/325
f 397/961/321 400/962/327 402/963/325
f 397/961/321 399/964/323 400/962/327
f 406/965/328 403/966/329 410/967/330
f 410/968/330 403/969/329 409/970/331
f 406/965/328 408/971/332 403/966/329
f 408/972/332 409/973/331 403/974/329
f 404/975/333 405/976/334 409/977/331
f 404/975/333 407/978/335 405/976/334
f 408/972/332 404/979/333 409/973/331
f 407/980/335 404/981/333 408/982/332
f 410/968/330 409/970/331 405/983/334
f 407/984/335 410/985/330 405/986/334
f 407/984/335 406/987/328 410/985/330
f 407/980/335 408/982/332 406/988/328
f 411/989/336 417/990/337 415/991/338
f 411/989/336 416/992/339 417/990/337
f 414/993/340 411/994/336 415/995/338
f 414/996/340 416/997/339 411/998/336
f 415/999/338 413/1000/341 412/1001/342
f 418/1002/343 412/1003/342 413/1004/341
f 418/1002/343 414/1005/340 412/1003/342
f 414/993/340 415/995/338 412/1006/342
f 416/1007/339 418/1008/343 413/1009/341
f 416/1007/339 413/1009/341 417/1010/337
f 415/999/338 417/1011/337 413/1000/341
f 414/996/340 418/1012/343 416/997/339
f 26/5/344 27/82/344 28/6/344
f 32/8/345 33/222/345 34/9/345
f 37/11/346 38/1013/346 39/12/346
f 40/14/347 41/90/51 42/15/117
f 47/17/348 48/68/348 49/18/348
f 50/20/349 51/241/60 52/21/119
f 57/23/350 58/91/350 59/24/350
f 61/26/8 62/77/8 63/27/8
f 66/29/351 65/92/54 67/30/128
f 69/32/352 70/95/57 71/33/130
f 74/35/353 75/96/353 76/36/353
f 79/38/354 77/98/354 80/39/354
f 36/1014/355 39/230/355 35/229/355
f 306/1015/68 307/1016/68 305/1017/68
f 61/48/356 64/199/88 21/49/86
f 23/198/87 46/205/92 49/1018/92
f 47/17/8 46/19/8 64/28/8
f 30/51/357 38/210/357 37/52/357
f 24/209/95 25/211/95 28/1019/95
f 26/54/2 25/1020/4 39/55/358
f 45/64/359 49/1021/359 48/65/359
f 31/67/360 34/93/360 48/68/360
f 35/75/113 73/37/112 76/36/361
f 53/69/3 37/219/3 36/70/3
f 73/72/102 43/1022/102 42/73/102
f 31/10/362 53/22/362 52/21/362
f 60/242/122 62/1023/127 61/243/363
f 68/31/8 63/27/8 62/77/8
f 55/79/364 28/1024/364 27/80/364
f 78/40/365 80/39/365 27/82/365
f 56/84/366 72/1025/366 71/85/366
f 78/87/367 68/1026/367 67/88/367
f 41/90/51 40/14/368 59/24/52
f 65/92/54 66/29/369 34/93/55
f 70/95/57 69/32/370 76/36/58
f 51/97/60 50/71/371 80/39/61
f 178/483/372 169/110/372 170/109/372
f 174/99/373 173/496/373 171/100/373
f 177/102/374 176/1027/374 207/103/374
f 175/105/375 205/495/375 206/1028/375
f 204/500/376 172/493/377 171/497/378
f 209/567/224 208/488/379 207/491/222
f 252/1029/96 253/1030/96 251/1031/96
f 253/1032/96 252/1033/96 251/1034/96
f 255/1035/68 256/1036/68 254/1037/68
f 256/1038/68 255/1039/68 254/1040/68
f 267/1041/68 266/1042/68 265/1043/68
f 266/1044/68 267/1045/68 265/1046/68
f 270/1047/96 269/1048/96 268/1049/96
f 269/1050/96 270/1051/96 268/1052/96
f 303/1053/68 304/1054/68 302/1055/68
f 304/1056/68 303/1057/68 302/1058/68
f 307/1059/68 306/1060/68 305/1061/68
f 316/1062/68 315/1063/68 314/1064/68
f 315/1065/68 316/1066/68 314/1067/68
f 353/1068/68 354/1069/68 355/1070/68
f 354/1071/68 353/1072/68 355/1073/68
f 358/1074/1 357/1075/68 356/1076/1
f 357/1077/68 358/1078/1 356/1079/1
f 367/1080/21 366/1081/20 365/1082/19
f 64/1083/380 22/203/380 63/202/380
f 22/203/29 28/200/90 63/202/125
f 27/201/381 26/1084/381 63/202/381
f 27/1085/382 55/215/382 26/214/382
f 55/215/47 61/243/120 63/213/100
f 69/212/97 27/80/99 71/217/101
f 27/80/99 80/1086/101 79/216/101
f 47/17/383 26/5/383 38/218/383
f 37/221/100 30/206/26 49/208/93
f 48/220/384 47/1087/384 37/221/384
f 40/238/115 48/65/105 42/224/1
f 48/65/105 34/1088/1 32/223/1
f 34/227/101 59/1089/101 40/225/101
f 42/1090/101 32/226/101 40/225/101
f 67/1091/101 57/1092/101 66/1093/101
f 66/1093/101 57/1092/101 59/1089/101
f 59/1089/101 34/227/101 66/1093/101
f 50/232/108 35/231/107 52/235/111
f 35/231/107 76/1094/385 74/234/110
f 48/237/386 45/228/39 39/230/106
f 52/1095/1 74/1096/1 50/1097/1
f 50/1097/1 74/1096/1 76/1098/1
f 76/1098/1 80/257/1 50/1097/1
f 66/248/126 60/245/122 67/247/124
f 60/245/122 59/1099/387 57/246/123
f 80/257/1 76/1098/1 69/255/1
f 71/1100/1 79/256/1 69/255/1
f 169/480/100 170/1101/100 172/481/100
f 206/485/125 205/1102/125 172/486/125
f 170/487/125 169/1103/125 208/490/125
f 207/491/100 208/488/100 169/484/100
f 170/109/388 204/492/376 171/100/378
f 171/497/100 172/493/100 205/495/100
f 208/482/100 172/481/100 205/498/100
f 207/103/100 208/104/100 206/112/100
