# Blender 4.5.0
# www.blender.org
mtllib shop_003.lod1.mtl
o shop_003
v -3.353052 2.651244 -2.652340
v -3.353052 2.250552 -3.302914
v 3.373070 2.250552 -3.302914
v 3.373070 2.651244 -2.652340
v -1.221112 3.272316 -3.183809
v 1.221112 3.272316 -3.183809
v 1.221112 3.031901 -3.183809
v -1.221112 3.031901 -3.183809
v 3.749005 0.000944 -3.400000
v 3.749005 0.172693 3.400000
v -3.749005 0.000945 3.400000
v 3.750000 0.173638 -3.398458
v -3.750000 0.173638 3.398458
v -3.749005 0.172693 -3.400000
v 3.750000 0.000000 3.398458
v -3.750000 -0.000000 -3.398458
v -3.397996 2.979193 -2.599591
v -3.399727 0.179242 -2.597650
v -3.397996 0.179597 3.100032
v 3.399727 2.979547 -2.597650
v -3.399728 2.979548 3.098091
v 3.397995 2.979193 3.100032
v 3.397996 0.179596 -2.599590
v 3.399727 0.179242 3.098092
v 3.368768 3.097848 -2.834927
v 3.368057 2.982128 -2.835060
v -3.368057 2.982129 2.835060
v -3.363459 3.097524 -2.840133
v -3.369389 2.987524 -2.841638
v 3.363459 3.097525 2.840132
v -3.368768 3.097849 2.834927
v -3.521806 3.339536 2.842530
v -3.527859 3.333545 2.842486
v -3.368977 3.339570 -2.833928
v -3.368066 3.334434 -2.834512
v -3.372262 3.338349 2.841054
v 3.527848 2.989096 -2.842508
v 3.372262 3.338349 -2.841054
v 3.368977 3.339571 2.833928
v 3.368066 3.334434 2.834512
v 3.369389 2.987524 2.841637
v 3.521806 3.339535 -2.842531
v -3.527947 3.334956 -2.842521
v -3.522282 2.985224 -2.842513
v -3.528212 2.991404 -2.842508
v 3.525337 3.338380 -2.999088
v -3.525378 3.337430 -3.000028
v -3.525337 2.985871 -2.999088
v 3.525378 2.986821 -3.000028
v -3.525378 2.986821 3.000028
v -3.527848 2.989097 2.842508
v -3.525337 3.338381 2.999088
v 3.525378 3.337430 3.000028
v 3.527848 3.335155 2.842508
v 3.522282 2.985225 2.842513
v 3.528212 2.991405 2.842508
v 3.525337 2.985871 2.999088
v -3.167582 0.499982 -2.588585
v -3.167582 2.358288 -2.736113
v -3.168538 2.358591 -2.589168
v -1.836973 2.358288 -2.588585
v -1.836018 0.499679 -2.589167
v -1.836973 0.499982 -2.736113
v -1.836018 2.358591 -2.735531
v -3.168538 0.499679 -2.735530
v -1.902785 0.568865 -2.753611
v -3.101771 2.289405 -2.753611
v -1.902785 2.289405 -2.751246
v -3.101771 0.568865 -2.751246
v -3.100836 2.332772 -2.812103
v -3.104814 0.535515 -2.812103
v -3.104813 2.332772 -2.752807
v -3.100836 0.535515 -2.752807
v -2.500289 2.332772 -2.812103
v -2.504267 0.535515 -2.812103
v -2.500289 0.535515 -2.752807
v -2.504267 2.332772 -2.752807
v -1.903720 2.332772 -2.752808
v -1.899742 0.535515 -2.752807
v -1.903720 0.535515 -2.812103
v -1.899742 2.332772 -2.812103
v -3.223334 0.492996 -2.922005
v -1.781222 0.502059 -2.922005
v -1.781222 0.492996 -2.682940
v -3.223333 0.502059 -2.682940
v -0.454761 2.358591 -2.735531
v -1.786325 0.499982 -2.588585
v -1.786325 2.358288 -2.736113
v -0.455716 2.358288 -2.588585
v -0.454761 0.499679 -2.589167
v -0.455716 0.499982 -2.736113
v -1.787280 2.358591 -2.589168
v -1.787280 0.499679 -2.735530
v -1.720513 2.289405 -2.753611
v -1.720513 0.568865 -2.751246
v -0.521527 2.289405 -2.751246
v -0.521527 0.568865 -2.753611
v -1.719578 2.332772 -2.812103
v -1.723556 0.535515 -2.812103
v -1.723556 2.332772 -2.752807
v -1.719578 0.535515 -2.752807
v -1.119031 2.332772 -2.812103
v -1.123010 0.535515 -2.812103
v -1.119032 0.535515 -2.752807
v -1.123009 2.332772 -2.752808
v -0.518485 0.535515 -2.752807
v -0.518485 2.332772 -2.812103
v -0.522463 2.332772 -2.752807
v -0.522463 0.535515 -2.812103
v -0.399965 0.502059 -2.922005
v -1.842076 0.492996 -2.922005
v -1.842076 0.502059 -2.682940
v -0.399965 0.492996 -2.682940
v 0.455125 2.417741 -2.741303
v 1.647444 0.169503 -2.603923
v 1.646788 0.170063 -2.741303
v 1.646788 2.417740 -2.603413
v 0.454469 2.418301 -2.603923
v 1.647444 2.418301 -2.740793
v 0.454469 0.169503 -2.740793
v 0.455125 0.170063 -2.603413
v 0.526108 2.340217 -2.763992
v 0.526108 0.237569 -2.760883
v 1.575806 0.237569 -2.763991
v 1.575806 2.340217 -2.760883
v 1.052975 2.342755 -2.819567
v 1.048938 0.235031 -2.819566
v 1.048938 2.342755 -2.765362
v 1.052975 0.235031 -2.765362
v 0.932986 1.399051 -2.885769
v 0.928708 1.399051 -2.819264
v 0.928708 0.998424 -2.885769
v 0.932986 0.998424 -2.819265
v 1.168927 1.399051 -2.819264
v 1.173205 0.998424 -2.819265
v 1.173205 1.399051 -2.885769
v 1.168927 0.998424 -2.885769
v -3.348021 2.093337 -3.268990
v -3.350898 2.242436 -3.276213
v -3.343606 2.242550 -3.267884
v -3.343606 2.098279 -3.317928
v -2.792428 2.250549 -3.267880
v -2.792542 2.093210 -3.273498
v -2.792542 2.098279 -3.267884
v -2.792542 2.247619 -3.312313
v -3.348021 2.247492 -3.316822
v -2.792658 2.090279 -3.317929
v -2.232146 2.250556 -3.267887
v -2.232032 2.247619 -3.312313
v -2.232146 2.090272 -3.317924
v -2.232032 2.093210 -3.273498
v -1.671521 2.247619 -3.312313
v -1.671635 2.250556 -3.267887
v -1.111125 2.250556 -3.267887
v -1.111125 2.090272 -3.317924
v -1.671635 2.090272 -3.317924
v -1.671521 2.093210 -3.273498
v -1.111011 2.247619 -3.312313
v -0.550615 2.090272 -3.317924
v -1.111011 2.095705 -3.267826
v -0.550615 2.250556 -3.267887
v 0.009895 2.250556 -3.267887
v -0.550501 2.093210 -3.273498
v -0.550501 2.098279 -3.267884
v 0.010009 2.093210 -3.273498
v -0.550501 2.247619 -3.312313
v 0.010009 2.247619 -3.312313
v 0.009895 2.090272 -3.317924
v 0.570519 2.093210 -3.273498
v 0.570519 2.098279 -3.267884
v 0.570519 2.247619 -3.312313
v 1.131029 2.247619 -3.312313
v 0.570405 2.090272 -3.317924
v 0.570519 2.084617 -3.312274
v 1.130916 2.250556 -3.267887
v 0.570405 2.250556 -3.267887
v 1.131029 2.093210 -3.273498
v 1.130916 2.090272 -3.317924
v 1.691426 2.250556 -3.267887
v 1.691540 2.256211 -3.273537
v 1.691540 2.247619 -3.312313
v 1.691540 2.093210 -3.273498
v 2.252050 2.093210 -3.273498
v 2.252050 2.098279 -3.267884
v 1.691426 2.090272 -3.317924
v 2.812560 2.247619 -3.312313
v 2.251936 2.250556 -3.267887
v 2.252050 2.256211 -3.273537
v 2.812446 2.090272 -3.317924
v 2.812446 2.250556 -3.267887
v 2.252050 2.247619 -3.312313
v 2.251936 2.090272 -3.317924
v 2.812560 2.093210 -3.273498
v 3.373631 2.086762 -3.292820
v 3.373631 2.254066 -3.292990
v -1.245396 3.300591 -3.176772
v -1.245396 3.003625 -3.028703
v -1.246687 3.003899 -3.175905
v 1.245396 3.003625 -3.176772
v 1.245396 3.300591 -3.028703
v -1.246687 3.300317 -3.029571
v 1.246687 3.300317 -3.175905
v 1.246687 3.003899 -3.029571
v -2.006368 0.776948 -2.784314
v -2.900090 0.776972 -2.786355
v -2.898097 0.678902 -2.784314
v -2.004375 0.678878 -2.786355
v -2.004375 0.776972 -3.258978
v -2.898097 0.776948 -3.261020
v -2.900090 0.678878 -3.258978
v -2.006368 0.678902 -3.261020
v -2.791105 0.682439 -3.200301
v -2.793979 0.172374 -3.200302
v -2.793979 0.682439 -2.845032
v -2.791105 0.172374 -2.845033
v -2.113360 0.682436 -2.845031
v -2.140932 0.181346 -2.849491
v -2.140932 0.673467 -3.195843
v -2.082857 0.675508 -3.193753
v -2.082857 0.179305 -2.851581
v -2.113360 0.172377 -3.200304
v -0.402917 0.776972 -3.258978
v -1.298632 0.776972 -2.786355
v -1.296639 0.776948 -3.261020
v -1.296639 0.678902 -2.784314
v -0.404910 0.776948 -2.784314
v -0.404910 0.678902 -3.261020
v -1.298632 0.678878 -3.258978
v -0.402917 0.678878 -2.786355
v -1.189648 0.682441 -3.200298
v -1.192520 0.172372 -3.200297
v -1.192520 0.682441 -2.845037
v -1.189648 0.172372 -2.845037
v -0.481455 0.181346 -3.195843
v -0.509029 0.682440 -3.200298
v -0.509029 0.172373 -2.845036
v -0.481455 0.673467 -2.849491
v -0.539530 0.179305 -3.193753
v -0.539530 0.675508 -2.851581
v 3.022430 0.180408 -3.300288
v 2.282399 0.180408 -2.805099
v 2.281060 0.634908 -2.806575
v 2.282399 0.634336 -3.300287
v 2.281060 0.179835 -3.298811
v 3.023769 0.634908 -3.298811
v 3.023770 0.179835 -2.806575
v 3.022430 0.634335 -2.805099
v 2.342756 0.591130 -2.900208
v 2.244962 0.600833 -3.110376
v 2.513818 0.599908 -2.942931
v 2.558737 0.946097 -3.051374
v 2.459859 0.955076 -2.899639
v 2.467989 0.954876 -3.202537
v 2.551196 0.590931 -3.120141
v 2.401877 0.602504 -3.210263
v 2.250229 0.945172 -3.123081
v 2.290547 0.943502 -2.941493
v 2.764046 0.599909 -2.942931
v 2.592983 0.591130 -2.900208
v 2.495189 0.600833 -3.110376
v 2.718217 0.954876 -3.202537
v 2.500457 0.945172 -3.123081
v 2.808965 0.946097 -3.051374
v 2.710087 0.955076 -2.899639
v 2.801424 0.590931 -3.120141
v 2.652105 0.602504 -3.210263
v 2.540774 0.943502 -2.941493
v 3.051652 0.590931 -3.120141
v 2.968445 0.954876 -3.202537
v 3.059193 0.946097 -3.051374
v 2.902333 0.602504 -3.210263
v 2.745417 0.600833 -3.110376
v 2.750685 0.945172 -3.123081
v 2.791002 0.943502 -2.941494
v 2.843211 0.591130 -2.900208
v 3.014274 0.599909 -2.942931
v 2.960315 0.955076 -2.899639
v 1.881781 3.769289 1.578756
v 2.723538 3.125237 2.023316
v 1.880653 3.770000 2.023316
v 1.880653 3.125237 1.579863
v 2.723538 3.770000 1.579863
v 2.722410 3.769289 2.024424
v 2.722410 3.125948 1.578755
v 1.881781 3.125948 2.024424
v 2.575605 3.261603 1.557317
v 2.400487 3.693306 1.551369
v 2.295211 3.294883 1.549878
v 2.230951 3.520295 1.551677
v 2.633744 3.628311 1.551060
v 2.690706 3.400944 1.552859
v 2.464505 3.231810 1.545420
v 2.247945 3.304872 1.521342
v 2.674777 3.309606 1.515319
v 2.668876 3.296368 1.531767
v 2.674778 3.365960 1.516613
v 2.668876 3.382421 1.529839
v 2.247945 3.371988 1.521342
v 2.247945 3.439104 1.521342
v 2.668876 3.430600 1.531767
v 2.674777 3.443837 1.515319
v 2.668876 3.495786 1.512845
v 2.674777 3.512248 1.526072
v 2.247945 3.506220 1.521342
v 2.674778 3.578069 1.515319
v 2.247945 3.573335 1.521342
v 2.668876 3.564831 1.531767
v 2.674777 3.635718 1.527365
v 2.247945 3.640451 1.521342
v 2.668876 3.648956 1.510918
v 1.968051 3.283386 1.557884
v 2.055612 3.641903 1.557884
v 1.968051 3.641903 1.554861
v 2.055612 3.283386 1.554862
v 1.954350 3.083796 1.505433
v 2.049294 3.083794 2.097744
v 1.954350 3.090199 2.097746
v 2.049294 3.090201 1.505434
v 2.649840 3.083796 2.097743
v 2.554898 3.083796 1.505435
v 2.554898 3.090199 2.097744
v 2.649840 3.090198 1.505435
v -3.252240 0.116290 3.239739
v -3.295003 0.120640 3.178153
v -3.219272 2.701912 3.160148
v -3.293059 2.697562 3.173460
v -3.220342 0.115908 3.159622
v -3.253369 2.702294 3.239354
v 3.210919 0.120640 3.178153
v 3.285580 0.115908 3.159622
v 3.286650 2.701912 3.160148
v 3.252554 2.702294 3.239354
v 3.212863 2.697562 3.173460
v 3.253682 0.116290 3.239739
v 0.396111 0.451118 3.123860
v 0.396111 2.246877 3.241756
v 0.396577 2.247632 3.124370
v 0.396577 0.450362 3.241246
v -0.396577 2.247632 3.241246
v -0.396111 2.246877 3.123860
v -0.396577 0.450363 3.124370
v -0.396111 0.451118 3.241756
v 0.972339 1.303901 3.099672
v 0.628501 1.795911 3.265197
v 0.629119 1.303902 3.265944
v 0.972956 1.795912 3.100419
v 0.972339 1.794784 3.265944
v 0.972956 1.302775 3.265197
v 0.629119 1.794784 3.099672
v 0.628502 1.302774 3.100420
v 3.527974 2.989354 -2.842507
v 3.528212 2.989817 -2.842508
v 3.527859 2.990707 2.842486
v 3.370219 2.990662 2.842508
v -2.792428 2.090279 -3.317931
v -2.789079 2.092076 -3.316105
v -2.792542 2.084617 -3.312274
v -2.792542 2.256211 -3.273537
v -2.232080 2.254670 -3.267513
v -2.228569 2.248752 -3.269706
v -2.231918 2.250549 -3.267880
v -2.232032 2.244894 -3.262229
v -2.232032 2.095705 -3.267826
v -2.232032 2.098279 -3.267884
v -1.111060 2.086158 -3.318299
v -1.110897 2.090279 -3.317931
v -1.107549 2.092076 -3.316105
v -1.111011 2.095935 -3.323581
v -1.671521 2.084617 -3.312274
v -1.111011 2.084617 -3.312274
v -0.550387 2.090279 -3.317931
v -0.550549 2.086158 -3.318299
v -0.547039 2.092076 -3.316105
v -0.550501 2.095935 -3.323581
v -0.550501 2.084617 -3.312274
v 0.010123 2.090279 -3.317931
v 0.010009 2.095935 -3.323581
v 0.013472 2.092076 -3.316105
v 0.010009 2.084617 -3.312274
v -0.550501 2.095705 -3.267826
v 0.570633 2.090279 -3.317931
v 0.570519 2.095935 -3.323581
v 0.573982 2.092076 -3.316105
v 1.131143 2.090279 -3.317931
v 1.131029 2.095935 -3.323581
v 1.134492 2.092076 -3.316105
v 1.131029 2.084617 -3.312274
v 2.812512 2.086158 -3.318299
v 2.812561 2.084749 -3.312400
v 2.812560 2.095935 -3.323581
v 2.252050 2.084617 -3.312274
v 2.812560 2.084617 -3.312274
v 2.252050 2.095705 -3.267826
v 2.252002 2.086158 -3.318299
v 2.812560 2.095705 -3.267827
v 2.812560 2.098279 -3.267884
v -2.792542 2.245124 -3.317985
v -2.792542 2.242550 -3.317928
v 3.367501 2.976764 -2.841392
v 3.355786 2.988560 -2.837440
v -3.527974 2.989354 2.842507
v -3.528212 2.989818 2.842508
v -2.232032 2.095935 -3.323581
v -2.232080 2.086158 -3.318299
v -2.228569 2.092076 -3.316105
v -2.231918 2.090279 -3.317931
v -2.792710 2.086232 -3.318398
v -2.792542 2.095705 -3.267826
v 1.691540 2.095935 -3.323581
v 1.691654 2.090279 -3.317931
v 1.695002 2.092076 -3.316105
v -1.111011 2.242550 -3.317928
v -1.111011 2.098279 -3.267884
v -1.111011 2.093210 -3.273498
v -0.550501 2.242550 -3.317928
v -3.527848 3.335155 -2.842508
v -3.528212 3.334434 -2.842508
v -2.232032 2.256211 -3.273537
v -1.671407 2.090279 -3.317931
v -1.668059 2.092076 -3.316105
v -1.671570 2.086158 -3.318299
v -1.671521 2.095935 -3.323581
v -1.671521 2.245124 -3.317985
v -1.671570 2.254670 -3.267513
v -1.671521 2.242550 -3.317928
v 0.009961 2.086158 -3.318299
v 0.010009 2.095705 -3.267826
v 0.010009 2.098279 -3.267884
v 1.134492 2.248752 -3.269706
v 1.131029 2.244894 -3.262229
v 1.131143 2.250549 -3.267880
v 0.570519 2.256211 -3.273537
v 1.131029 2.256211 -3.273537
v 0.570471 2.086158 -3.318299
v 0.570519 2.095705 -3.267826
v 1.691540 2.084617 -3.312274
v 1.691491 2.254670 -3.267513
v 1.695002 2.248752 -3.269706
v 1.691540 2.244894 -3.262229
v 1.691654 2.250549 -3.267880
v 2.812561 2.256080 -3.273411
v 2.812560 2.244894 -3.262229
v 2.812560 2.256211 -3.273537
v 3.527859 3.333544 -2.842486
v 3.528212 3.332847 -2.842508
v -1.671521 2.256211 -3.273537
v 3.527947 3.334956 2.842520
v 3.528212 3.334434 2.842508
v 3.370107 2.984949 2.840221
v 3.369253 2.980389 2.844030
v -1.671521 2.244894 -3.262229
v -1.668059 2.248752 -3.269706
v -1.671407 2.250549 -3.267880
v 2.252164 2.090279 -3.317931
v 2.255512 2.092076 -3.316105
v 2.252050 2.095935 -3.323581
v 2.255512 2.248752 -3.269706
v 2.252050 2.244894 -3.262229
v 2.252002 2.254670 -3.267513
v 2.252164 2.250549 -3.267880
v -2.232032 2.242550 -3.317928
v -2.232032 2.245124 -3.317985
v -1.671521 2.098279 -3.267884
v -1.671521 2.095705 -3.267826
v 1.131029 2.098279 -3.267884
v 1.691540 2.098279 -3.267884
v 1.691540 2.242550 -3.317928
v 1.691540 2.245124 -3.317985
v -3.350898 2.098393 -3.309598
v -0.550549 2.254670 -3.267513
v -0.547039 2.248752 -3.269706
v -0.550387 2.250549 -3.267880
v -0.550501 2.244894 -3.262229
v -0.550501 2.256211 -3.273537
v -0.550501 2.245124 -3.317985
v 0.570633 2.250549 -3.267880
v 0.573982 2.248752 -3.269706
v 0.570519 2.244894 -3.262229
v 0.570519 2.245124 -3.317985
v 0.570471 2.254670 -3.267513
v 0.570519 2.242550 -3.317928
v 2.252050 2.245124 -3.317985
v 2.252050 2.242550 -3.317928
v 2.812512 2.254670 -3.267513
v 2.812560 2.245124 -3.317984
v 2.812560 2.242550 -3.317928
v -3.527859 2.990707 -2.842486
v -3.367501 2.976764 2.841391
v -3.355786 2.988560 2.837440
v -3.369253 2.980389 -2.844031
v -3.370107 2.984948 -2.840221
v -3.370219 2.990661 -2.842508
v -1.111011 2.244894 -3.262229
v -1.111060 2.254670 -3.267513
v -1.107549 2.248752 -3.269706
v -1.110897 2.250549 -3.267880
v 0.010009 2.244894 -3.262229
v 0.009961 2.254670 -3.267513
v 0.013472 2.248752 -3.269706
v 0.010123 2.250549 -3.267880
v -2.232032 2.084617 -3.312274
v -1.111011 2.256211 -3.273537
v -1.111011 2.245124 -3.317985
v 0.010009 2.256211 -3.273537
v 0.010009 2.245124 -3.317985
v 0.010009 2.242550 -3.317928
v 1.130981 2.254670 -3.267513
v 1.131029 2.245124 -3.317985
v 1.131029 2.242550 -3.317928
v 1.130981 2.086158 -3.318299
v 1.131029 2.095705 -3.267826
v 1.691491 2.086158 -3.318299
v 1.691540 2.095705 -3.267826
v -3.528212 3.332848 2.842508
v -2.792710 2.254597 -3.267414
v -2.792658 2.250549 -3.267882
v -2.789079 2.248752 -3.269706
vn -0.0000 -0.8515 0.5244
vn -0.0000 -0.0000 -1.0000
vn -0.4568 0.7300 0.5084
vn -0.5709 0.5821 -0.5790
vn -0.8931 0.4498 -0.0075
vn 0.4566 -0.7301 0.5083
vn 0.5709 -0.5821 -0.5790
vn 0.8928 -0.4503 -0.0075
vn -0.4566 -0.7301 -0.5084
vn -0.5709 -0.5821 0.5790
vn -0.8928 -0.4503 0.0075
vn 0.4568 0.7300 -0.5084
vn 0.5709 0.5821 0.5790
vn 0.8931 0.4498 0.0075
vn -0.0000 -0.0000 -0.0000
vn -0.5751 0.5764 -0.5805
vn 0.5751 -0.5764 -0.5805
vn -0.5796 -0.5782 -0.5742
vn 0.5796 -0.5782 0.5742
vn 0.5796 0.5782 -0.5742
vn 0.5751 0.5764 0.5805
vn -0.5751 -0.5764 0.5805
vn -0.5796 0.5782 0.5742
vn -0.5771 0.5774 -0.5776
vn 0.5771 -0.5774 -0.5776
vn -0.5776 -0.5775 -0.5770
vn 0.5776 0.5775 -0.5770
vn -0.5776 0.5775 0.5770
vn -0.5771 -0.5774 0.5776
vn 0.5776 -0.5775 0.5770
vn 0.5771 0.5774 0.5776
vn -0.5941 0.5512 0.5858
vn 0.5942 0.5512 -0.5858
vn -0.5605 0.5949 -0.5761
vn -0.0006 -0.6868 -0.7269
vn 0.5605 0.5949 0.5761
vn 0.6899 -0.2658 0.6734
vn -0.6899 -0.2658 -0.6734
vn -0.0016 -1.0000 0.0019
vn -0.7385 -0.0030 -0.6743
vn -1.0000 -0.0032 0.0004
vn -0.5827 0.5965 0.5520
vn -0.5787 0.5767 -0.5766
vn -0.0363 -0.0120 -0.9993
vn 0.0451 -0.9990 -0.0007
vn 0.0316 -0.9995 -0.0003
vn 0.0006 -0.6868 0.7269
vn 0.0016 -1.0000 -0.0019
vn 0.7385 -0.0030 0.6743
vn 1.0000 -0.0032 -0.0004
vn 0.5827 0.5965 -0.5520
vn 0.5787 0.5768 0.5766
vn 0.0363 -0.0120 0.9993
vn -0.0451 -0.9990 0.0007
vn -0.0316 -0.9995 0.0003
vn 0.0066 0.6953 -0.7187
vn 0.0076 0.0074 -0.9999
vn -0.0098 -0.0028 -0.9999
vn 0.0122 0.5500 0.8351
vn -0.5707 0.5887 0.5725
vn -0.5839 0.5671 -0.5809
vn -0.9999 0.0010 0.0161
vn 0.0095 -0.0042 0.9999
vn -0.9998 0.0176 -0.0010
vn -0.9999 -0.0162 0.0011
vn -0.5707 -0.5887 -0.5725
vn -0.5839 -0.5671 0.5809
vn 0.5707 0.5887 -0.5725
vn 0.5839 0.5671 0.5809
vn 0.9999 0.0010 -0.0161
vn 0.9998 0.0002 -0.0180
vn -0.0095 -0.0041 -0.9999
vn 0.9998 0.0176 0.0010
vn -0.0122 0.5500 -0.8351
vn -0.0066 0.6953 0.7187
vn -0.0076 0.0074 0.9999
vn 0.0098 -0.0028 0.9999
vn 0.9999 -0.0162 -0.0011
vn -0.9999 -0.0010 -0.0161
vn -0.9998 -0.0002 -0.0180
vn 0.5707 -0.5887 0.5725
vn -0.9998 0.0002 0.0180
vn 0.5839 -0.5671 -0.5809
vn 0.9998 -0.0002 0.0180
vn 0.9999 -0.0010 0.0161
vn 0.5752 0.5771 0.5797
vn -0.5752 -0.5771 0.5797
vn 0.5793 -0.5778 0.5749
vn -0.5793 -0.5778 -0.5749
vn -0.5793 0.5778 0.5749
vn -0.5752 0.5771 -0.5797
vn 0.5752 -0.5771 -0.5797
vn 0.5793 0.5778 -0.5749
vn -0.6721 0.7404 -0.0109
vn 0.6721 -0.7404 -0.0109
vn -0.6721 -0.7404 0.0108
vn 0.6721 0.7404 0.0108
vn -0.0391 0.8385 0.5435
vn 0.0391 0.8385 -0.5435
vn -0.0391 -0.8385 -0.5435
vn 0.0391 -0.8385 0.5435
vn -0.0391 0.8393 0.5423
vn 0.0392 0.8377 -0.5447
vn -0.0391 -0.8393 -0.5423
vn 0.0392 -0.8377 0.5447
vn 0.0392 -0.8385 0.5435
vn -0.0392 -0.8385 -0.5435
vn -0.8175 0.0213 0.5755
vn 0.8175 0.0212 -0.5755
vn -0.8175 -0.0212 -0.5755
vn 0.8175 -0.0213 0.5755
vn 0.6721 -0.7404 -0.0108
vn 0.6721 0.7403 0.0108
vn -0.0392 0.8381 0.5441
vn 0.0391 0.8389 -0.5429
vn -0.0392 -0.8381 -0.5441
vn 0.0391 -0.8389 0.5429
vn -0.0392 0.8385 0.5435
vn -0.0391 0.8386 0.5434
vn -0.0391 -0.8386 -0.5434
vn 0.0391 -0.8384 0.5437
vn 0.0391 0.8384 -0.5437
vn -0.8175 0.0212 0.5755
vn -0.5760 0.5762 -0.5798
vn 0.5760 -0.5762 -0.5798
vn -0.5788 -0.5784 -0.5749
vn 0.5788 0.5784 -0.5749
vn -0.5788 0.5784 0.5749
vn 0.5788 -0.5784 0.5749
vn 0.5760 0.5762 0.5798
vn -0.5760 -0.5762 0.5798
vn -0.6420 0.7667 0.0096
vn 0.6420 -0.7667 0.0096
vn -0.6420 -0.7667 -0.0096
vn 0.6420 0.7667 -0.0096
vn -0.0427 0.8401 0.5408
vn 0.0428 0.8392 -0.5421
vn -0.0427 -0.8401 -0.5408
vn 0.0428 -0.8392 0.5421
vn -0.0368 0.8174 0.5749
vn 0.0368 0.8175 -0.5748
vn -0.0368 -0.8174 -0.5749
vn 0.0368 -0.8175 0.5748
vn 0.0368 0.8174 -0.5749
vn -0.0368 0.8175 0.5748
vn 0.0368 -0.8174 0.5749
vn -0.0368 -0.8175 -0.5748
vn 0.0825 -0.2544 0.9636
vn -0.7587 -0.6500 -0.0439
vn -0.0235 -0.9923 -0.1219
vn -0.6741 -0.7373 -0.0440
vn -0.0060 0.0483 0.9988
vn -0.7587 0.6500 0.0439
vn -0.6741 0.7373 0.0440
vn -0.0235 0.9923 0.1219
vn -0.0060 -0.0483 -0.9988
vn 1.0000 -0.0000 -0.0000
vn -1.0000 -0.0000 -0.0000
vn 0.0053 0.9703 -0.2420
vn 0.0806 0.2974 -0.9513
vn 0.0200 0.9180 -0.3962
vn 0.0067 0.0121 0.9999
vn 0.0053 -0.9703 0.2420
vn 0.0806 -0.2974 0.9513
vn 0.0200 -0.9180 0.3962
vn 0.0825 -0.2537 0.9638
vn 0.0825 0.2544 -0.9636
vn 0.0825 0.2537 -0.9638
vn -0.9974 -0.0000 -0.0718
vn 0.9985 -0.0000 0.0540
vn -0.9974 -0.0000 0.0718
vn 0.9986 -0.0000 -0.0537
vn 0.9767 -0.0000 0.2147
vn -0.9374 -0.0000 0.3483
vn 0.9768 -0.0000 -0.2141
vn -0.9376 -0.0000 -0.3478
vn 0.9985 -0.0000 0.0547
vn -0.9957 -0.0000 0.0924
vn 0.9985 -0.0000 -0.0549
vn -0.9957 -0.0000 -0.0925
vn 0.9977 -0.0000 0.0681
vn -0.9998 -0.0000 0.0180
vn 0.9966 -0.0000 -0.0827
vn -0.9763 -0.0000 -0.2166
vn 0.9966 -0.0000 0.0824
vn -0.9763 -0.0000 0.2162
vn 0.9644 -0.0000 -0.2644
vn 0.9647 -0.0000 -0.2634
vn -0.9580 -0.0000 -0.2866
vn 0.9645 -0.0000 0.2641
vn -0.9581 -0.0000 0.2864
vn 0.9985 -0.0000 -0.0539
vn -0.9974 -0.0000 0.0720
vn 0.9986 -0.0000 0.0537
vn -0.0048 0.9711 -0.2387
vn 0.0445 -0.0010 -0.9990
vn 0.4403 -0.0009 -0.8978
vn 0.4403 0.0009 0.8978
vn -0.0048 -0.9711 0.2387
vn 0.0350 0.0348 0.9988
vn 0.0445 0.0010 0.9990
vn -0.5730 0.5788 -0.5802
vn 0.5730 -0.5788 -0.5802
vn -0.5796 -0.5774 -0.5751
vn 0.5796 0.5774 -0.5751
vn -0.5796 0.5774 0.5751
vn 0.5730 0.5788 0.5802
vn -0.5730 -0.5788 0.5802
vn 0.5796 -0.5774 0.5751
vn 0.6970 0.0013 0.7170
vn -0.6970 -0.0013 0.7170
vn 0.7160 -0.0037 0.6981
vn -0.7160 0.0037 0.6981
vn 0.7160 0.0037 -0.6981
vn -0.0000 1.0000 -0.0000
vn -0.0000 1.0000 0.0001
vn -0.7160 -0.0037 -0.6981
vn -0.6970 0.0013 -0.7170
vn -0.0000 1.0000 -0.0001
vn -0.0000 -1.0000 -0.0000
vn -0.0000 -1.0000 0.0001
vn 0.6970 -0.0013 -0.7170
vn -0.0000 -1.0000 -0.0001
vn -0.0085 0.7405 0.6720
vn 0.0085 0.7405 -0.6720
vn -0.0085 -0.7405 -0.6720
vn 0.0085 -0.7405 0.6720
vn -0.9956 -0.0130 0.0927
vn -0.6203 -0.5401 0.5688
vn 0.5978 -0.5816 0.5516
vn 0.5978 0.5816 -0.5516
vn 0.9827 0.1658 0.0827
vn 0.9827 -0.1658 -0.0827
vn -0.9956 0.0130 -0.0927
vn -0.6203 0.5401 -0.5688
vn 0.9956 -0.0130 -0.0927
vn 0.6203 -0.5400 -0.5688
vn -0.5978 -0.5816 -0.5517
vn -0.9827 -0.1658 0.0827
vn 0.9956 0.0130 0.0927
vn -0.5978 0.5816 0.5517
vn -0.9827 0.1658 -0.0827
vn 0.6203 0.5400 0.5688
vn -0.5757 0.5771 -0.5793
vn 0.5757 -0.5771 -0.5793
vn -0.5787 -0.5782 -0.5752
vn 0.5787 -0.5782 0.5752
vn 0.5787 0.5782 -0.5752
vn 0.5757 0.5771 0.5793
vn -0.5757 -0.5771 0.5793
vn -0.5787 0.5782 0.5752
vn 0.5712 -0.6193 0.5387
vn 0.1034 -0.7618 0.6395
vn -0.7630 -0.5978 -0.2461
vn -0.9049 -0.0852 0.4171
vn -0.5862 0.6055 0.5382
vn 0.2767 0.6547 0.7034
vn -0.7135 0.5978 -0.3655
vn -0.0339 -0.6055 -0.7951
vn 0.6931 -0.6547 -0.3017
vn 0.7848 0.6193 0.0230
vn 0.5253 0.7618 -0.3791
vn -0.3449 0.0852 -0.9348
vn -0.5762 0.5769 -0.5790
vn 0.5762 -0.5769 -0.5790
vn -0.5783 -0.5781 -0.5757
vn 0.5783 0.5781 -0.5757
vn -0.5783 0.5781 0.5757
vn 0.5762 0.5769 0.5790
vn 0.5783 -0.5781 0.5757
vn -0.5762 -0.5769 0.5790
vn 0.6035 -0.7889 0.1160
vn 0.9990 -0.0437 0.0047
vn 0.6421 0.7666 -0.0053
vn -0.2588 0.9659 -0.0000
vn -0.9393 0.3429 0.0053
vn -0.8434 -0.5373 -0.0047
vn -0.1279 -0.9850 -0.1160
vn 0.5928 0.8051 0.0187
vn -0.5928 -0.8051 0.0187
vn 0.5928 -0.8051 -0.0187
vn -0.5928 0.8051 -0.0187
vn -0.5733 0.0386 0.8184
vn 0.5734 0.0386 -0.8184
vn -0.5735 -0.0386 -0.8183
vn 0.5735 -0.0387 0.8183
vn -0.5734 0.0386 0.8184
vn 0.5735 -0.0386 0.8183
vn 0.5735 0.0386 -0.8183
vn -0.5734 -0.0386 -0.8184
vn 0.0879 -0.5670 0.8190
vn -0.7953 -0.5275 -0.2988
vn 0.6161 -0.5695 -0.5441
vn 0.6413 0.5670 -0.5170
vn 0.0509 0.5695 0.8204
vn -0.7736 0.5275 -0.3510
vn -0.5765 0.5753 -0.5803
vn 0.5765 -0.5753 -0.5803
vn -0.5786 -0.5791 -0.5744
vn 0.5786 -0.5791 0.5744
vn 0.5786 0.5791 -0.5744
vn 0.5765 0.5753 0.5803
vn -0.5765 -0.5753 0.5803
vn -0.5786 0.5791 0.5744
vn -0.5766 0.5746 -0.5808
vn 0.5766 -0.5746 -0.5808
vn -0.5787 -0.5793 -0.5740
vn 0.5787 -0.5793 0.5740
vn 0.5787 0.5793 -0.5740
vn -0.5787 0.5793 0.5740
vn 0.5766 0.5746 0.5808
vn -0.5766 -0.5746 0.5808
vn 0.9930 -0.1179 -0.0024
vn -0.9930 -0.1179 0.0024
vn -0.0102 -0.0090 -0.9999
vn 0.0102 -0.0090 0.9999
vn 0.0067 -0.0121 -0.9999
vn 0.0350 -0.0348 -0.9988
vt 0.868426 0.313556
vt 0.868426 0.589107
vt 0.841031 0.313545
vt 0.841031 0.589096
vt 0.887626 0.002000
vt 0.887626 0.102048
vt 0.877786 0.102049
vt 0.877786 0.002001
vt 0.241139 0.602421
vt 0.247490 0.602687
vt 0.241140 0.602748
vt 0.388763 0.612365
vt 0.389031 0.606016
vt 0.389096 0.612367
vt 0.384762 0.845270
vt 0.384498 0.851622
vt 0.384434 0.845271
vt 0.008379 0.313875
vt 0.002028 0.313609
vt 0.008379 0.313548
vt 0.930898 0.389242
vt 0.947639 0.388851
vt 0.947464 0.389493
vt 0.930726 0.451290
vt 0.947465 0.451147
vt 0.947715 0.451217
vt 0.930777 0.403905
vt 0.947639 0.403942
vt 0.947464 0.404568
vt 0.930898 0.460737
vt 0.947465 0.460543
vt 0.947715 0.460634
vt 0.930898 0.384217
vt 0.947639 0.383826
vt 0.947464 0.384468
vt 0.930726 0.441895
vt 0.947465 0.441752
vt 0.947715 0.441822
vt 0.930898 0.399292
vt 0.947463 0.398810
vt 0.947464 0.399543
vt 0.930726 0.446593
vt 0.947712 0.446406
vt 0.947465 0.446933
vt 0.584969 0.002218
vt 0.578144 0.309411
vt 0.578031 0.002332
vt 0.280207 0.002117
vt 0.280211 0.309375
vt 0.002241 0.309342
vt 0.584981 0.309323
vt 0.843617 0.002000
vt 0.836893 0.280170
vt 0.836893 0.002001
vt 0.573591 0.002219
vt 0.566765 0.309420
vt 0.566653 0.002203
vt 0.573602 0.309332
vt 0.843617 0.280169
vt 0.284239 0.309419
vt 0.284237 0.002161
vt 0.562426 0.002117
vt 0.002327 0.002170
vt 0.837030 0.313545
vt 0.830305 0.591851
vt 0.830305 0.313545
vt 0.562429 0.309375
vt 0.837031 0.591835
vt 0.840380 0.606627
vt 0.725924 0.884783
vt 0.725913 0.606641
vt 0.840372 0.884845
vt 0.116450 0.606754
vt 0.116472 0.839982
vt 0.002012 0.839905
vt 0.488427 0.592172
vt 0.721672 0.313748
vt 0.721747 0.592096
vt 0.002029 0.606751
vt 0.822427 0.002204
vt 0.589439 0.280636
vt 0.589366 0.002289
vt 0.822502 0.280551
vt 0.365990 0.606270
vt 0.251528 0.884525
vt 0.251530 0.606195
vt 0.365988 0.884600
vt 0.234883 0.606751
vt 0.120481 0.839702
vt 0.120481 0.606766
vt 0.234883 0.839687
vt 0.488352 0.313825
vt 0.488212 0.872287
vt 0.720470 0.596427
vt 0.720482 0.872163
vt 0.749366 0.320350
vt 0.749297 0.596013
vt 0.744680 0.596054
vt 0.484186 0.606310
vt 0.484186 0.838555
vt 0.479879 0.838799
vt 0.488201 0.596552
vt 0.745033 0.319970
vt 0.483859 0.319778
vt 0.483859 0.595739
vt 0.251549 0.595884
vt 0.421930 0.606282
vt 0.421765 0.838717
vt 0.407522 0.838558
vt 0.759051 0.596207
vt 0.744981 0.602599
vt 0.745002 0.596060
vt 0.484071 0.595862
vt 0.484185 0.601972
vt 0.251546 0.601917
vt 0.407522 0.606308
vt 0.251732 0.595814
vt 0.851974 0.002242
vt 0.847617 0.277627
vt 0.847617 0.002000
vt 0.251857 0.319793
vt 0.425982 0.838580
vt 0.426145 0.606150
vt 0.440388 0.606307
vt 0.930955 0.550490
vt 0.945026 0.544098
vt 0.945005 0.550638
vt 0.484177 0.313608
vt 0.251632 0.319786
vt 0.251538 0.313553
vt 0.440388 0.838552
vt 0.483978 0.319710
vt 0.851908 0.277912
vt 0.444388 0.838559
vt 0.444388 0.606308
vt 0.448697 0.606065
vt 0.759133 0.313566
vt 0.759115 0.320045
vt 0.745075 0.319931
vt 0.745072 0.313546
vt 0.008233 0.602238
vt 0.008389 0.596284
vt 0.240864 0.596277
vt 0.370251 0.851601
vt 0.370080 0.845531
vt 0.930963 0.544077
vt 0.370123 0.845046
vt 0.384642 0.612370
vt 0.384690 0.845269
vt 0.370074 0.612618
vt 0.002000 0.602300
vt 0.008232 0.602238
vt 0.832893 0.002000
vt 0.826666 0.290428
vt 0.826667 0.002065
vt 0.403275 0.606035
vt 0.403443 0.612102
vt 0.832893 0.290428
vt 0.759042 0.602619
vt 0.403401 0.612588
vt 0.388884 0.845260
vt 0.388836 0.612366
vt 0.008655 0.320019
vt 0.241285 0.314058
vt 0.241130 0.320012
vt 0.930877 0.561178
vt 0.930898 0.554700
vt 0.944937 0.554814
vt 0.944939 0.561199
vt 0.403449 0.845011
vt 0.241286 0.314058
vt 0.247518 0.313996
vt 0.370327 0.612365
vt 0.384510 0.606035
vt 0.384682 0.612364
vt 0.370327 0.605986
vt 0.796709 0.313690
vt 0.796731 0.602454
vt 0.782476 0.602475
vt 0.782455 0.313712
vt 0.815145 0.313690
vt 0.800975 0.602526
vt 0.801027 0.313617
vt 0.825978 0.313872
vt 0.819619 0.602462
vt 0.819577 0.313690
vt 0.815167 0.602462
vt 0.825977 0.602235
vt 0.403200 0.845266
vt 0.403200 0.851645
vt 0.389018 0.851596
vt 0.388844 0.845266
vt 0.407600 0.842938
vt 0.461853 0.919104
vt 0.407607 0.919133
vt 0.422880 0.924869
vt 0.416995 0.979307
vt 0.416967 0.924904
vt 0.461846 0.842908
vt 0.878832 0.686382
vt 0.884738 0.762428
vt 0.878809 0.762433
vt 0.178969 0.843754
vt 0.233220 0.919918
vt 0.178976 0.919941
vt 0.233213 0.843732
vt 0.884760 0.686377
vt 0.396882 0.979306
vt 0.402773 0.924868
vt 0.402803 0.979272
vt 0.396852 0.924903
vt 0.888573 0.313654
vt 0.894501 0.313650
vt 0.894478 0.389688
vt 0.888550 0.389693
vt 0.422911 0.979272
vt 0.240137 0.924754
vt 0.288733 0.995005
vt 0.240131 0.994970
vt 0.288739 0.924788
vt 0.082094 0.924752
vt 0.130697 0.924780
vt 0.130691 0.995005
vt 0.082088 0.994977
vt 0.888871 0.766756
vt 0.890564 0.766755
vt 0.890543 0.839720
vt 0.002331 0.924827
vt 0.003920 0.997779
vt 0.002343 0.997839
vt 0.003906 0.924770
vt 0.888875 0.839779
vt 0.894799 0.766756
vt 0.896492 0.766755
vt 0.896471 0.839720
vt 0.008258 0.924827
vt 0.009850 0.997779
vt 0.008273 0.997839
vt 0.009834 0.924770
vt 0.894804 0.839779
vt 0.897883 0.002213
vt 0.899459 0.002156
vt 0.899474 0.075165
vt 0.894799 0.689358
vt 0.896471 0.762322
vt 0.894804 0.762380
vt 0.896492 0.689357
vt 0.897898 0.075225
vt 0.312985 0.983005
vt 0.322469 0.924861
vt 0.322505 0.982968
vt 0.312949 0.924898
vt 0.363564 0.924861
vt 0.363600 0.982968
vt 0.354090 0.983005
vt 0.354055 0.924898
vt 0.406941 0.979306
vt 0.412832 0.924868
vt 0.412862 0.979272
vt 0.002079 0.844139
vt 0.056323 0.844116
vt 0.056330 0.920303
vt 0.888573 0.425903
vt 0.894478 0.501938
vt 0.888550 0.501942
vt 0.894501 0.425900
vt 0.406911 0.924903
vt 0.120559 0.843754
vt 0.174812 0.919921
vt 0.120566 0.919950
vt 0.432933 0.924869
vt 0.427047 0.979307
vt 0.427019 0.924904
vt 0.174805 0.843725
vt 0.878832 0.766650
vt 0.884738 0.842697
vt 0.878809 0.842702
vt 0.002085 0.920326
vt 0.884760 0.766645
vt 0.432964 0.979272
vt 0.187457 0.924754
vt 0.236054 0.995005
vt 0.187451 0.994970
vt 0.236059 0.924788
vt 0.134775 0.924752
vt 0.183372 0.995005
vt 0.134769 0.994977
vt 0.183378 0.924780
vt 0.888871 0.686487
vt 0.890564 0.686487
vt 0.890543 0.759452
vt 0.239719 0.826538
vt 0.241308 0.899490
vt 0.239732 0.899550
vt 0.888875 0.759510
vt 0.241295 0.826481
vt 0.854664 0.819868
vt 0.856357 0.819868
vt 0.856336 0.892833
vt 0.467328 0.825767
vt 0.468920 0.898719
vt 0.467343 0.898779
vt 0.468904 0.825710
vt 0.854668 0.892891
vt 0.891636 0.002217
vt 0.893309 0.075181
vt 0.891641 0.075239
vt 0.898931 0.426007
vt 0.900507 0.425950
vt 0.900521 0.498960
vt 0.898944 0.499019
vt 0.893329 0.002216
vt 0.326691 0.983005
vt 0.336175 0.924861
vt 0.336211 0.982968
vt 0.326655 0.924898
vt 0.349868 0.924861
vt 0.340395 0.983005
vt 0.340360 0.924898
vt 0.349904 0.982968
vt 0.877902 0.202405
vt 0.926454 0.294478
vt 0.877918 0.294521
vt 0.926437 0.202362
vt 0.878829 0.313666
vt 0.884359 0.313679
vt 0.884332 0.405683
vt 0.437101 0.973561
vt 0.442586 0.924874
vt 0.442617 0.973524
vt 0.452221 0.924874
vt 0.452254 0.973524
vt 0.446742 0.973561
vt 0.878829 0.409924
vt 0.884331 0.501927
vt 0.878801 0.501914
vt 0.877901 0.106142
vt 0.926455 0.198220
vt 0.877918 0.198269
vt 0.446712 0.924911
vt 0.884358 0.409938
vt 0.926439 0.106093
vt 0.437070 0.924911
vt 0.878802 0.405671
vt 0.878745 0.596457
vt 0.921331 0.681986
vt 0.878753 0.682008
vt 0.921323 0.596433
vt 0.878745 0.506340
vt 0.921332 0.591874
vt 0.878753 0.591903
vt 0.921324 0.506312
vt 0.473441 0.606200
vt 0.474936 0.606198
vt 0.474920 0.691870
vt 0.245940 0.606966
vt 0.247336 0.692624
vt 0.245954 0.692683
vt 0.247321 0.606910
vt 0.473443 0.691928
vt 0.930826 0.493875
vt 0.930859 0.491319
vt 0.946717 0.491351
vt 0.930824 0.507334
vt 0.946712 0.504810
vt 0.946679 0.507366
vt 0.930857 0.504778
vt 0.946684 0.493907
vt 0.930824 0.514064
vt 0.930857 0.511508
vt 0.946712 0.511540
vt 0.946679 0.514095
vt 0.930826 0.500604
vt 0.946717 0.498080
vt 0.946684 0.500636
vt 0.930859 0.498048
vt 0.856303 0.024962
vt 0.862911 0.002278
vt 0.862768 0.024965
vt 0.874162 0.313872
vt 0.874412 0.336508
vt 0.872473 0.313927
vt 0.856920 0.002098
vt 0.955307 0.114626
vt 0.961401 0.112993
vt 0.961519 0.114569
vt 0.955189 0.113050
vt 0.872985 0.868319
vt 0.872737 0.845684
vt 0.874672 0.868265
vt 0.873589 0.002274
vt 0.866993 0.024963
vt 0.867598 0.002098
vt 0.962035 0.042862
vt 0.961542 0.044700
vt 0.955073 0.044700
vt 0.872889 0.845684
vt 0.872740 0.822722
vt 0.874380 0.845684
vt 0.955566 0.097236
vt 0.955073 0.095399
vt 0.961540 0.095399
vt 0.856534 0.024962
vt 0.856294 0.047925
vt 0.955566 0.042862
vt 0.874269 0.336508
vt 0.874407 0.359470
vt 0.872480 0.336507
vt 0.962034 0.097236
vt 0.862758 0.047928
vt 0.873454 0.024961
vt 0.873506 0.024961
vt 0.873692 0.047924
vt 0.866993 0.047925
vt 0.955566 0.050537
vt 0.955073 0.048700
vt 0.961541 0.048700
vt 0.856525 0.047925
vt 0.856284 0.070888
vt 0.930570 0.982360
vt 0.931064 0.980522
vt 0.937533 0.980522
vt 0.937039 0.982360
vt 0.872889 0.822722
vt 0.872740 0.799759
vt 0.874380 0.822722
vt 0.962034 0.050537
vt 0.873506 0.047923
vt 0.873692 0.070886
vt 0.866993 0.070887
vt 0.874269 0.359470
vt 0.874407 0.382433
vt 0.872480 0.359470
vt 0.862749 0.070890
vt 0.930570 0.988197
vt 0.931064 0.986360
vt 0.937533 0.986360
vt 0.961541 0.083724
vt 0.962034 0.085562
vt 0.955566 0.085561
vt 0.872889 0.799759
vt 0.872740 0.776796
vt 0.874380 0.799759
vt 0.955073 0.083724
vt 0.873506 0.070885
vt 0.873692 0.093848
vt 0.866993 0.093849
vt 0.856515 0.070888
vt 0.856275 0.093850
vt 0.937039 0.988197
vt 0.862740 0.093853
vt 0.955566 0.062212
vt 0.955073 0.060374
vt 0.961541 0.060374
vt 0.856506 0.093850
vt 0.856266 0.116813
vt 0.930570 0.994035
vt 0.931064 0.992197
vt 0.937533 0.992197
vt 0.937039 0.994035
vt 0.872889 0.776796
vt 0.872740 0.753834
vt 0.874380 0.776796
vt 0.874269 0.405395
vt 0.874407 0.428358
vt 0.872480 0.405395
vt 0.962034 0.062212
vt 0.874269 0.382433
vt 0.874407 0.405395
vt 0.872480 0.382432
vt 0.873506 0.093847
vt 0.873692 0.116810
vt 0.866993 0.116811
vt 0.962035 0.002000
vt 0.961542 0.003837
vt 0.955073 0.003837
vt 0.955566 0.002000
vt 0.874269 0.428358
vt 0.874407 0.451321
vt 0.872480 0.428358
vt 0.961541 0.072049
vt 0.962034 0.073887
vt 0.955566 0.073887
vt 0.862730 0.116815
vt 0.955073 0.072049
vt 0.856497 0.116813
vt 0.856256 0.139775
vt 0.872889 0.753834
vt 0.872740 0.730871
vt 0.874380 0.753834
vt 0.862721 0.139778
vt 0.955566 0.068049
vt 0.955073 0.066212
vt 0.961541 0.066212
vt 0.856487 0.139775
vt 0.856247 0.162738
vt 0.955073 0.038862
vt 0.955566 0.037025
vt 0.962035 0.037025
vt 0.961542 0.038862
vt 0.872889 0.730871
vt 0.872740 0.707909
vt 0.874380 0.730871
vt 0.874269 0.451321
vt 0.874407 0.474283
vt 0.872480 0.451320
vt 0.962034 0.068049
vt 0.862712 0.162741
vt 0.873506 0.116809
vt 0.873692 0.139772
vt 0.866993 0.139773
vt 0.873506 0.139770
vt 0.873692 0.162734
vt 0.866993 0.162735
vt 0.962035 0.007837
vt 0.961542 0.009675
vt 0.955073 0.009675
vt 0.955566 0.079724
vt 0.955073 0.077887
vt 0.961540 0.077887
vt 0.874269 0.474283
vt 0.874407 0.497246
vt 0.872480 0.474283
vt 0.962034 0.079724
vt 0.856478 0.162738
vt 0.856238 0.185701
vt 0.862703 0.185703
vt 0.955566 0.007837
vt 0.872889 0.707909
vt 0.872740 0.684946
vt 0.874380 0.707909
vt 0.873506 0.162732
vt 0.873692 0.185696
vt 0.866993 0.185697
vt 0.955073 0.015512
vt 0.955566 0.013675
vt 0.962035 0.013675
vt 0.961540 0.101236
vt 0.962034 0.103074
vt 0.955566 0.103074
vt 0.872889 0.684946
vt 0.872740 0.661983
vt 0.874380 0.684946
vt 0.955073 0.101236
vt 0.873506 0.185694
vt 0.873692 0.208658
vt 0.866993 0.208659
vt 0.856469 0.185701
vt 0.856229 0.208663
vt 0.961542 0.015512
vt 0.874269 0.497246
vt 0.874407 0.520208
vt 0.872480 0.497245
vt 0.862693 0.208666
vt 0.955566 0.091399
vt 0.955073 0.089562
vt 0.961540 0.089562
vt 0.856459 0.208663
vt 0.856219 0.231626
vt 0.955073 0.021350
vt 0.955566 0.019512
vt 0.962035 0.019512
vt 0.961542 0.021350
vt 0.872889 0.661983
vt 0.872740 0.639021
vt 0.874380 0.661983
vt 0.962034 0.091399
vt 0.873506 0.208656
vt 0.873692 0.231620
vt 0.866993 0.231621
vt 0.874269 0.520208
vt 0.874407 0.543171
vt 0.872480 0.520208
vt 0.862684 0.231628
vt 0.962035 0.025350
vt 0.961542 0.027187
vt 0.955073 0.027187
vt 0.955566 0.108911
vt 0.955073 0.107074
vt 0.961540 0.107074
vt 0.874269 0.543171
vt 0.874407 0.566134
vt 0.872480 0.543171
vt 0.962034 0.108911
vt 0.856450 0.231626
vt 0.856210 0.254588
vt 0.862675 0.254591
vt 0.872889 0.639021
vt 0.872740 0.616058
vt 0.874380 0.639021
vt 0.955073 0.033025
vt 0.955566 0.031187
vt 0.962035 0.031187
vt 0.873506 0.231618
vt 0.873692 0.254582
vt 0.866993 0.254583
vt 0.961541 0.054537
vt 0.962034 0.056375
vt 0.955566 0.056374
vt 0.872755 0.616058
vt 0.873576 0.593449
vt 0.874380 0.616058
vt 0.955073 0.054537
vt 0.873506 0.254580
vt 0.873516 0.277407
vt 0.867416 0.277270
vt 0.955566 0.025350
vt 0.961542 0.033025
vt 0.874397 0.566134
vt 0.873444 0.588720
vt 0.872480 0.566133
vt 0.856228 0.254588
vt 0.856626 0.277278
vt 0.862610 0.277500
vt 0.856510 0.713424
vt 0.844453 0.815364
vt 0.844482 0.713395
vt 0.856481 0.815395
vt 0.930724 0.842968
vt 0.930686 0.836940
vt 0.942718 0.836964
vt 0.860604 0.708453
vt 0.866713 0.606658
vt 0.866725 0.708451
vt 0.856510 0.606913
vt 0.844453 0.708855
vt 0.844481 0.606881
vt 0.866707 0.713171
vt 0.860604 0.814966
vt 0.860593 0.713174
vt 0.856482 0.708887
vt 0.942756 0.842992
vt 0.866719 0.814964
vt 0.930722 0.853118
vt 0.942716 0.847114
vt 0.942754 0.853142
vt 0.930686 0.847090
vt 0.860592 0.606660
vt 0.583595 0.924614
vt 0.579585 0.960800
vt 0.579585 0.924614
vt 0.583595 0.960800
vt 0.950044 0.330298
vt 0.930691 0.330296
vt 0.930778 0.326320
vt 0.485113 0.961354
vt 0.485026 0.924857
vt 0.504368 0.924778
vt 0.950046 0.306267
vt 0.930780 0.302288
vt 0.950133 0.302289
vt 0.930693 0.306266
vt 0.504454 0.961274
vt 0.575371 0.924778
vt 0.556137 0.961354
vt 0.556052 0.924858
vt 0.950131 0.326319
vt 0.575457 0.961274
vt 0.607623 0.924614
vt 0.607623 0.960799
vt 0.603614 0.960799
vt 0.603614 0.924614
vt 0.930724 0.016131
vt 0.930808 0.002133
vt 0.950919 0.002221
vt 0.930724 0.181294
vt 0.950917 0.167384
vt 0.950831 0.181381
vt 0.930809 0.167297
vt 0.950835 0.016218
vt 0.930570 0.284306
vt 0.950351 0.283185
vt 0.950351 0.285548
vt 0.930724 0.126240
vt 0.930809 0.112243
vt 0.950917 0.112330
vt 0.944552 0.806804
vt 0.930794 0.808029
vt 0.930705 0.805683
vt 0.930724 0.034482
vt 0.950918 0.020573
vt 0.950835 0.034570
vt 0.930570 0.272823
vt 0.930570 0.270460
vt 0.950513 0.271703
vt 0.930808 0.020485
vt 0.930744 0.762377
vt 0.944708 0.761140
vt 0.944796 0.763486
vt 0.950831 0.126327
vt 0.508795 0.961354
vt 0.528050 0.924778
vt 0.528137 0.961274
vt 0.599614 0.924614
vt 0.599614 0.960799
vt 0.595605 0.960799
vt 0.950044 0.322289
vt 0.930778 0.318311
vt 0.950131 0.318310
vt 0.930692 0.322287
vt 0.508708 0.924857
vt 0.591605 0.924614
vt 0.591605 0.960800
vt 0.587595 0.960800
vt 0.950046 0.314277
vt 0.930780 0.310298
vt 0.950133 0.310298
vt 0.930692 0.314276
vt 0.595605 0.924614
vt 0.587595 0.924614
vt 0.551711 0.924778
vt 0.532476 0.961354
vt 0.532391 0.924858
vt 0.551797 0.961274
vt 0.930724 0.162942
vt 0.950917 0.149033
vt 0.950831 0.163030
vt 0.930809 0.148945
vt 0.930724 0.052834
vt 0.950919 0.038924
vt 0.950835 0.052922
vt 0.930808 0.038836
vt 0.930571 0.252494
vt 0.950470 0.251383
vt 0.950552 0.253728
vt 0.944551 0.799330
vt 0.944552 0.801652
vt 0.930751 0.800553
vt 0.930724 0.144591
vt 0.950917 0.130681
vt 0.950831 0.144679
vt 0.930724 0.071185
vt 0.930808 0.057188
vt 0.950919 0.057276
vt 0.930570 0.298273
vt 0.930570 0.295910
vt 0.950350 0.297152
vt 0.950835 0.071273
vt 0.930809 0.130594
vt 0.930785 0.776216
vt 0.930698 0.773869
vt 0.944750 0.774978
vt 0.801915 0.924902
vt 0.783569 0.955079
vt 0.783577 0.924858
vt 0.779340 0.924854
vt 0.779385 0.955079
vt 0.759281 0.955128
vt 0.801908 0.955123
vt 0.930570 0.185515
vt 0.950394 0.203746
vt 0.930573 0.203746
vt 0.824302 0.924904
vt 0.805952 0.955079
vt 0.805960 0.924858
vt 0.759236 0.924902
vt 0.824293 0.955125
vt 0.930570 0.207747
vt 0.950392 0.225981
vt 0.930570 0.225981
vt 0.950392 0.207747
vt 0.734776 0.955127
vt 0.734731 0.924902
vt 0.754857 0.924854
vt 0.754903 0.955080
vt 0.950391 0.185515
vt 0.934136 0.932151
vt 0.930576 0.926483
vt 0.936276 0.920515
vt 0.944610 0.707694
vt 0.944765 0.714374
vt 0.930965 0.714252
vt 0.944716 0.667411
vt 0.930777 0.671691
vt 0.930835 0.665084
vt 0.930964 0.707221
vt 0.942384 0.923944
vt 0.940837 0.930475
vt 0.944778 0.580335
vt 0.944734 0.587230
vt 0.930726 0.584798
vt 0.944765 0.674062
vt 0.930813 0.580255
vt 0.939006 0.888783
vt 0.942565 0.894450
vt 0.936922 0.900419
vt 0.930705 0.896928
vt 0.932296 0.890459
vt 0.930868 0.589377
vt 0.944733 0.620118
vt 0.944689 0.624713
vt 0.930795 0.622342
vt 0.930818 0.629153
vt 0.944532 0.629245
vt 0.934136 0.916364
vt 0.930576 0.910697
vt 0.936276 0.904729
vt 0.942384 0.908157
vt 0.940837 0.914688
vt 0.944778 0.606913
vt 0.944734 0.613808
vt 0.930726 0.611376
vt 0.944716 0.680798
vt 0.944764 0.687448
vt 0.930777 0.685077
vt 0.930813 0.606833
vt 0.944610 0.721081
vt 0.944765 0.727760
vt 0.930965 0.727639
vt 0.930835 0.678471
vt 0.930964 0.720607
vt 0.944689 0.651123
vt 0.944532 0.655654
vt 0.930818 0.655563
vt 0.930868 0.615955
vt 0.939006 0.872987
vt 0.942565 0.878655
vt 0.936922 0.884623
vt 0.944733 0.646528
vt 0.930795 0.648751
vt 0.930705 0.881133
vt 0.932296 0.874664
vt 0.934136 0.947937
vt 0.942384 0.939730
vt 0.940837 0.946261
vt 0.944733 0.633323
vt 0.944689 0.637918
vt 0.930795 0.635546
vt 0.944734 0.600519
vt 0.930868 0.602666
vt 0.930726 0.598088
vt 0.939006 0.857192
vt 0.942565 0.862860
vt 0.936922 0.868828
vt 0.930705 0.865338
vt 0.932296 0.858868
vt 0.944778 0.593624
vt 0.930813 0.593544
vt 0.930818 0.642358
vt 0.936276 0.936302
vt 0.944532 0.642449
vt 0.944610 0.734468
vt 0.930965 0.741025
vt 0.930964 0.733994
vt 0.930576 0.942270
vt 0.944765 0.741147
vt 0.944716 0.694184
vt 0.930777 0.698463
vt 0.930835 0.691857
vt 0.944764 0.700835
vt 0.638072 0.924884
vt 0.611821 0.959198
vt 0.611822 0.924861
vt 0.638072 0.959221
vt 0.828321 0.924614
vt 0.846251 0.924614
vt 0.846251 0.950519
vt 0.672945 0.959219
vt 0.690940 0.924865
vt 0.690945 0.959189
vt 0.850251 0.924614
vt 0.868181 0.924616
vt 0.868181 0.950517
vt 0.850251 0.950515
vt 0.712947 0.924865
vt 0.712953 0.959189
vt 0.694971 0.959220
vt 0.642471 0.959197
vt 0.668726 0.924885
vt 0.668725 0.959223
vt 0.694968 0.924896
vt 0.828321 0.950519
vt 0.672940 0.924895
vt 0.642472 0.924859
vt 0.948634 0.340855
vt 0.947580 0.347714
vt 0.939898 0.352315
vt 0.931851 0.347782
vt 0.931947 0.338552
vt 0.939921 0.334316
vt 0.945856 0.336389
vt 0.948634 0.362908
vt 0.931852 0.369837
vt 0.931948 0.360606
vt 0.947580 0.369768
vt 0.939970 0.374246
vt 0.939925 0.356371
vt 0.946275 0.358610
vt 0.930850 0.568608
vt 0.945053 0.565279
vt 0.945077 0.568591
vt 0.930826 0.565296
vt 0.930852 0.576096
vt 0.945054 0.572768
vt 0.945077 0.576079
vt 0.930828 0.572784
vt 0.872257 0.924915
vt 0.875386 0.948094
vt 0.872300 0.948139
vt 0.875342 0.924871
vt 0.917034 0.948079
vt 0.913906 0.924926
vt 0.916991 0.924881
vt 0.913948 0.948122
vt 0.879538 0.924915
vt 0.882623 0.924871
vt 0.882666 0.948094
vt 0.924314 0.948079
vt 0.921186 0.924926
vt 0.924271 0.924881
vt 0.921229 0.948122
vt 0.879581 0.948138
vt 0.956289 0.156234
vt 0.958325 0.157528
vt 0.956199 0.158696
vt 0.469435 0.821224
vt 0.467856 0.821458
vt 0.467740 0.716102
vt 0.469435 0.716105
vt 0.461290 0.821415
vt 0.459416 0.821229
vt 0.459443 0.715993
vt 0.955850 0.135008
vt 0.958149 0.135305
vt 0.956674 0.137403
vt 0.468529 0.711500
vt 0.466701 0.606311
vt 0.468374 0.606306
vt 0.461035 0.715919
vt 0.466770 0.711700
vt 0.240711 0.712271
vt 0.238883 0.607082
vt 0.240557 0.607077
vt 0.238952 0.712471
vt 0.956289 0.149197
vt 0.958325 0.150492
vt 0.956199 0.151659
vt 0.454916 0.821253
vt 0.452981 0.821229
vt 0.453007 0.715993
vt 0.454599 0.715919
vt 0.955850 0.142242
vt 0.958149 0.142538
vt 0.956674 0.144636
vt 0.241319 0.821995
vt 0.239624 0.716874
vt 0.241319 0.716876
vt 0.239740 0.822229
vt 0.878840 0.846936
vt 0.911027 0.920487
vt 0.878868 0.920546
vt 0.730485 0.924879
vt 0.730520 0.957112
vt 0.725843 0.957154
vt 0.910998 0.846876
vt 0.844505 0.819785
vt 0.849175 0.893310
vt 0.844471 0.893285
vt 0.060537 0.844215
vt 0.092725 0.917771
vt 0.060566 0.917834
vt 0.092696 0.844151
vt 0.849208 0.819811
vt 0.717048 0.957153
vt 0.717016 0.924921
vt 0.721695 0.924879
vt 0.721727 0.957111
vt 0.725812 0.924921
vt 0.860709 0.819133
vt 0.865413 0.819158
vt 0.865379 0.892669
vt 0.860675 0.892644
vt 0.930838 0.107924
vt 0.950807 0.093944
vt 0.950840 0.107919
vt 0.930570 0.812034
vt 0.944137 0.812034
vt 0.944137 0.818610
vt 0.930804 0.093948
vt 0.930570 0.236677
vt 0.950449 0.230006
vt 0.950408 0.236661
vt 0.944765 0.757111
vt 0.930694 0.757117
vt 0.930730 0.750462
vt 0.930836 0.089572
vt 0.930801 0.075596
vt 0.950807 0.075592
vt 0.930570 0.247373
vt 0.950448 0.240700
vt 0.950409 0.247356
vt 0.930570 0.240677
vt 0.944802 0.750455
vt 0.950842 0.089568
vt 0.930570 0.818610
vt 0.930571 0.229981
vt 0.947464 0.393493
vt 0.947637 0.394138
vt 0.930777 0.393855
vt 0.947712 0.423047
vt 0.947465 0.423416
vt 0.930726 0.423155
vt 0.947693 0.378756
vt 0.947463 0.379220
vt 0.930777 0.378780
vt 0.947465 0.432342
vt 0.947715 0.432591
vt 0.930726 0.432579
vt 0.479889 0.606008
vt 0.448682 0.838857
vt 0.744680 0.313939
vt 0.930570 0.544470
vt 0.777844 0.313572
vt 0.763810 0.602593
vt 0.763755 0.313568
vt 0.777899 0.602597
vt 0.759435 0.602226
vt 0.740309 0.313572
vt 0.726278 0.602600
vt 0.726218 0.313567
vt 0.945332 0.560807
vt 0.740369 0.602605
vt 0.867221 0.024962
vt 0.867221 0.047924
vt 0.867221 0.070886
vt 0.867221 0.093848
vt 0.867221 0.116809
vt 0.867221 0.139771
vt 0.867221 0.162733
vt 0.867221 0.185695
vt 0.867221 0.208657
vt 0.867011 0.254583
vt 0.867221 0.231619
s 1
usemtl shop_003_baked
f 2/1/1 3/2/1 1/3/1
f 3/2/1 4/4/1 1/3/1
f 5/5/2 6/6/2 7/7/2
f 5/5/2 7/7/2 8/8/2
f 416/9/3 47/10/4 417/11/5
f 37/12/6 49/13/7 352/14/8
f 51/15/9 50/16/10 402/17/11
f 54/18/12 53/19/13 448/20/14
f 293/21/15 294/22/15 295/23/15
f 293/24/15 295/25/15 294/26/15
f 299/27/15 301/28/15 300/29/15
f 299/30/15 300/31/15 301/32/15
f 306/33/15 305/34/15 307/35/15
f 306/36/15 307/37/15 305/38/15
f 309/39/15 310/40/15 308/41/15
f 309/42/15 308/43/15 310/44/15
f 14/45/16 9/46/17 16/47/18
f 16/48/18 9/49/17 15/50/19
f 14/45/16 12/51/20 9/46/17
f 12/52/20 15/53/19 9/54/17
f 10/55/21 11/56/22 15/57/19
f 10/55/21 13/58/23 11/56/22
f 12/52/20 10/59/21 15/53/19
f 13/60/23 10/61/21 12/62/20
f 16/48/18 15/50/19 11/63/22
f 13/64/23 16/65/18 11/66/22
f 13/60/23 12/62/20 14/67/16
f 13/64/23 14/68/16 16/65/18
f 17/69/24 23/70/25 18/71/26
f 17/69/24 20/72/27 23/70/25
f 21/73/28 17/74/24 18/75/26
f 21/76/28 20/77/27 17/78/24
f 21/73/28 18/75/26 19/79/29
f 18/80/26 24/81/30 19/82/29
f 18/80/26 23/83/25 24/81/30
f 22/84/31 19/85/29 24/86/30
f 22/84/31 21/87/28 19/85/29
f 20/88/27 24/89/30 23/90/25
f 20/88/27 22/91/31 24/89/30
f 21/76/28 22/92/31 20/77/27
f 31/93/32 25/94/33 28/95/34
f 28/96/34 25/97/33 399/98/35
f 25/99/33 30/100/36 41/101/37
f 31/93/32 30/102/36 25/94/33
f 28/96/34 399/98/35 29/103/38
f 29/104/38 399/105/35 41/106/39
f 26/107/40 449/108/41 39/109/42
f 38/110/43 351/111/44 26/112/40
f 26/113/45 351/114/45 55/115/45
f 39/109/42 38/116/43 26/107/40
f 26/113/46 55/115/46 450/117/46
f 30/118/36 488/119/47 41/120/37
f 29/104/48 41/106/37 488/121/47
f 27/122/49 491/123/50 34/124/51
f 36/125/52 401/126/53 27/127/49
f 44/128/54 27/129/54 401/130/54
f 34/124/51 36/131/52 27/122/49
f 44/128/55 490/132/55 27/129/55
f 30/118/36 31/133/32 488/119/47
f 31/134/32 28/135/34 29/136/38
f 43/137/56 34/138/51 490/139/57
f 45/140/58 43/137/56 490/139/57
f 32/141/59 36/142/52 34/143/51
f 52/144/60 33/145/61 402/17/62
f 36/125/52 514/146/63 401/126/53
f 32/147/64 44/148/64 401/149/64
f 32/147/65 43/150/65 44/148/65
f 32/141/59 34/143/51 43/9/56
f 52/151/60 54/18/12 33/152/61
f 48/153/66 37/154/6 487/155/67
f 46/156/68 444/157/69 352/14/70
f 46/156/68 352/14/71 49/13/7
f 48/153/66 49/158/7 37/154/6
f 38/110/43 445/159/72 351/111/44
f 42/160/73 55/161/73 351/162/73
f 39/163/42 42/164/74 38/165/43
f 39/163/42 447/18/75 42/164/74
f 447/166/75 39/167/42 450/168/76
f 56/169/77 447/166/75 450/168/76
f 42/160/78 447/170/78 55/161/78
f 416/9/3 444/171/69 46/172/68
f 417/173/79 48/174/66 487/175/67
f 417/173/80 47/176/4 48/174/66
f 416/9/3 46/172/68 47/10/4
f 47/177/4 46/178/68 49/179/7
f 47/177/4 49/179/7 48/180/66
f 53/181/13 50/182/10 57/183/81
f 51/184/9 57/185/81 50/186/10
f 53/181/13 52/187/60 50/182/10
f 52/144/60 402/17/82 50/16/10
f 51/184/9 353/188/83 57/185/81
f 52/151/60 53/19/13 54/18/12
f 448/189/84 53/190/13 57/191/81
f 448/189/85 57/191/81 353/192/83
f 61/193/86 58/194/87 62/195/88
f 65/196/89 62/197/88 58/198/87
f 61/193/86 60/199/90 58/194/87
f 60/200/90 65/201/89 58/202/87
f 59/203/91 63/204/92 65/205/89
f 59/203/91 64/206/93 63/204/92
f 60/200/90 59/207/91 65/201/89
f 60/208/90 64/209/93 59/210/91
f 60/208/90 61/211/86 64/209/93
f 64/212/93 61/213/86 62/214/88
f 64/212/93 62/214/88 63/215/92
f 65/196/89 63/216/92 62/197/88
f 67/217/94 66/218/95 69/219/96
f 67/217/94 68/220/97 66/218/95
f 68/221/97 67/222/94 69/223/96
f 68/221/97 69/223/96 66/224/95
f 72/225/98 70/226/99 71/227/100
f 70/228/99 73/229/101 71/230/100
f 70/228/99 72/231/98 73/229/101
f 72/225/98 71/227/100 73/232/101
f 77/233/102 74/234/103 75/235/104
f 74/236/103 76/237/105 75/238/104
f 74/236/103 77/239/102 76/237/105
f 77/233/102 75/235/104 76/240/105
f 81/241/99 78/242/98 79/243/106
f 78/244/98 80/245/107 79/246/106
f 78/244/98 81/247/99 80/245/107
f 81/241/99 79/243/106 80/248/107
f 85/249/108 83/250/109 82/251/110
f 85/249/108 84/252/111 83/250/109
f 82/253/110 83/254/109 84/255/111
f 82/253/110 84/255/111 85/256/108
f 92/257/90 86/258/93 88/259/91
f 88/260/91 86/261/93 91/262/92
f 86/263/93 90/264/88 91/265/92
f 86/263/93 89/266/86 90/264/88
f 92/257/90 89/267/86 86/258/93
f 89/268/86 87/269/87 90/270/88
f 93/271/89 90/272/88 87/273/87
f 89/268/86 92/274/90 87/269/87
f 92/275/90 93/276/89 87/277/87
f 88/260/91 91/262/92 93/278/89
f 92/275/90 88/279/91 93/276/89
f 93/271/89 91/280/92 90/272/88
f 94/281/94 97/282/112 95/283/96
f 94/281/94 96/284/113 97/282/112
f 96/285/113 95/286/96 97/287/112
f 96/285/113 94/288/94 95/286/96
f 100/289/114 98/290/115 99/291/116
f 98/292/115 101/293/117 99/294/116
f 100/289/114 99/291/116 101/295/117
f 98/292/115 100/296/114 101/293/117
f 105/297/118 102/298/99 103/299/100
f 102/300/99 104/301/101 103/302/100
f 102/300/99 105/303/118 104/301/101
f 105/297/118 103/299/100 104/304/101
f 108/305/119 109/306/120 106/307/121
f 107/308/122 108/309/119 106/310/121
f 107/308/122 106/310/121 109/311/120
f 108/305/119 107/312/122 109/306/120
f 112/313/123 110/314/109 111/315/110
f 112/313/123 113/316/111 110/314/109
f 111/317/110 113/318/111 112/319/123
f 111/317/110 110/320/109 113/318/111
f 114/321/124 116/322/125 120/323/126
f 114/321/124 119/324/127 116/322/125
f 118/325/128 114/326/124 120/327/126
f 118/328/128 119/329/127 114/330/124
f 120/331/126 116/332/125 115/333/129
f 119/334/127 115/335/129 116/336/125
f 117/337/130 121/338/131 115/339/129
f 120/331/126 115/333/129 121/340/131
f 119/334/127 117/341/130 115/335/129
f 117/337/130 118/342/128 121/338/131
f 118/328/128 117/343/130 119/329/127
f 118/325/128 120/327/126 121/344/131
f 122/345/132 124/346/133 123/347/134
f 122/345/132 125/348/135 124/346/133
f 125/349/135 123/350/134 124/351/133
f 125/349/135 122/352/132 123/350/134
f 128/353/136 126/354/137 127/355/138
f 126/356/137 129/357/139 127/358/138
f 126/356/137 128/359/136 129/357/139
f 128/353/136 127/355/138 129/360/139
f 131/361/140 130/362/141 132/363/142
f 130/364/141 133/365/143 132/366/142
f 130/364/141 131/367/140 133/365/143
f 131/361/140 132/363/142 133/368/143
f 136/369/144 134/370/145 135/371/146
f 136/369/144 135/371/146 137/372/147
f 134/373/145 137/374/147 135/375/146
f 134/373/145 136/376/144 137/374/147
f 358/377/148 138/378/148 407/379/148
f 469/380/149 407/381/150 138/382/151
f 358/377/152 139/383/152 138/378/152
f 139/384/153 469/385/149 138/386/151
f 139/384/153 146/387/154 469/385/149
f 139/388/153 515/389/155 146/390/154
f 146/391/156 357/392/156 469/393/156
f 357/394/157 144/395/158 358/396/157
f 358/397/159 359/398/160 397/399/161
f 398/400/158 358/401/157 144/402/158
f 517/403/162 408/379/162 418/404/162
f 358/396/157 398/405/158 357/394/157
f 357/406/163 404/407/164 408/408/165
f 144/402/158 357/409/157 398/400/158
f 418/404/166 408/379/165 404/410/164
f 146/391/167 515/411/167 357/392/167
f 397/412/161 359/413/160 501/414/168
f 461/415/169 418/416/170 364/417/171
f 360/418/162 363/410/162 446/419/162
f 418/420/170 461/421/169 501/422/172
f 501/422/172 364/423/171 418/420/170
f 418/424/159 424/425/160 462/426/161
f 364/417/171 501/427/172 461/415/169
f 462/428/161 424/429/160 369/430/168
f 501/431/163 421/432/164 363/433/165
f 446/419/166 363/410/165 421/434/164
f 446/435/173 425/436/174 369/437/175
f 463/438/176 369/439/175 425/440/174
f 446/441/159 494/442/160 423/443/161
f 425/440/174 446/444/173 463/438/176
f 423/445/161 494/446/160 370/447/168
f 452/448/162 464/434/162 502/449/162
f 369/437/175 463/450/176 446/435/173
f 502/449/166 464/434/165 365/451/164
f 412/452/158 502/453/157 413/454/158
f 495/455/162 160/451/162 474/456/162
f 502/457/157 412/458/158 370/459/157
f 370/459/157 413/460/158 502/457/157
f 502/461/159 470/462/160 503/463/161
f 370/464/163 372/465/164 160/466/165
f 413/454/158 370/467/157 412/452/158
f 369/468/163 365/469/164 464/470/165
f 503/471/161 470/472/160 375/473/168
f 375/474/177 164/475/178 474/476/179
f 474/476/179 415/477/180 375/474/177
f 375/478/163 426/479/164 380/480/165
f 164/481/178 375/482/177 415/483/180
f 474/456/166 160/451/165 372/484/164
f 415/483/180 474/485/179 164/481/178
f 471/486/162 380/484/162 504/487/162
f 474/488/159 498/489/160 475/490/161
f 504/487/166 380/484/165 426/491/164
f 506/492/158 504/493/157 428/494/158
f 499/495/162 427/491/162 432/496/162
f 504/497/157 506/498/158 379/499/157
f 379/499/157 428/500/158 504/497/157
f 504/501/159 480/502/160 505/503/161
f 379/504/163 434/505/164 427/506/165
f 428/494/158 379/507/157 506/492/158
f 432/496/166 427/491/165 434/508/164
f 475/509/161 498/510/160 379/511/168
f 505/512/161 480/513/160 174/514/168
f 174/515/181 170/516/178 432/517/157
f 481/518/182 432/519/157 170/520/178
f 174/521/163 510/522/164 435/523/165
f 170/520/178 174/524/181 481/518/182
f 477/525/162 435/508/162 433/526/162
f 433/526/166 435/508/165 510/527/164
f 432/517/157 481/528/182 174/515/181
f 432/529/159 507/530/160 479/531/161
f 479/532/161 507/533/160 387/534/168
f 433/535/183 509/536/184 387/537/185
f 465/538/186 387/539/185 509/540/184
f 433/541/159 437/542/160 508/543/161
f 509/540/184 433/544/183 465/538/186
f 508/545/161 437/546/160 436/547/168
f 429/548/162 511/527/162 180/549/162
f 387/537/185 465/550/186 433/535/183
f 387/551/163 512/552/164 511/553/165
f 180/549/166 511/527/165 512/554/164
f 467/555/176 180/556/187 466/557/169
f 438/558/162 513/554/162 188/559/162
f 180/560/187 467/561/176 436/562/157
f 436/562/157 466/563/169 180/560/187
f 180/564/159 459/565/160 468/566/161
f 466/557/169 436/567/157 467/555/176
f 468/568/161 459/569/160 391/570/168
f 436/571/163 394/572/164 513/573/165
f 188/559/166 513/554/165 394/574/164
f 391/575/188 184/576/189 188/577/190
f 483/578/191 188/579/190 184/580/189
f 391/581/163 388/582/164 393/583/165
f 184/580/189 391/584/188 483/578/191
f 457/585/162 393/574/162 443/586/162
f 443/586/166 393/574/165 388/587/164
f 188/588/159 484/589/160 482/590/161
f 443/591/192 486/592/193 392/593/194
f 482/594/161 484/595/160 392/596/168
f 396/597/169 392/598/194 486/599/193
f 441/600/195 195/601/195 485/602/195
f 486/599/193 443/603/192 396/597/169
f 485/604/196 195/605/197 194/606/198
f 188/577/190 483/607/191 391/575/188
f 392/593/194 396/608/169 443/591/192
f 389/609/199 194/610/199 395/611/199
f 441/612/200 395/587/200 195/613/200
f 195/613/197 395/587/201 194/614/198
f 196/615/202 199/616/203 198/617/204
f 196/615/202 202/618/205 199/616/203
f 201/619/206 196/620/202 198/621/204
f 201/622/206 202/623/205 196/624/202
f 200/625/207 197/626/208 203/627/209
f 198/628/204 203/629/209 197/630/208
f 200/625/207 201/631/206 197/626/208
f 201/619/206 198/621/204 197/632/208
f 198/628/204 199/633/203 203/629/209
f 202/634/205 203/635/209 199/636/203
f 202/634/205 200/637/207 203/635/209
f 201/622/206 200/638/207 202/623/205
f 204/639/210 206/640/211 207/641/212
f 204/639/210 205/642/213 206/640/211
f 208/643/214 204/644/210 207/645/212
f 205/646/215 204/647/216 208/648/215
f 205/649/213 210/650/217 206/651/211
f 205/649/213 209/652/218 210/650/217
f 205/646/215 208/648/215 209/653/219
f 210/654/220 207/655/220 206/656/221
f 208/643/214 207/645/212 211/657/222
f 210/654/220 211/658/223 207/655/220
f 209/659/218 208/660/214 211/661/222
f 209/659/218 211/661/222 210/662/217
f 214/663/224 212/664/225 213/665/226
f 212/666/225 215/667/227 213/668/226
f 212/666/225 214/669/224 215/667/227
f 214/663/224 213/665/226 215/670/227
f 216/671/228 217/672/229 220/673/230
f 219/674/231 216/675/232 220/676/230
f 221/677/233 220/678/230 217/679/229
f 216/680/228 221/681/234 217/682/229
f 218/683/235 219/684/231 221/685/234
f 216/680/228 218/686/235 221/681/234
f 216/687/232 219/688/231 218/689/235
f 219/674/231 220/676/230 221/690/233
f 223/691/215 222/692/215 224/693/219
f 224/694/218 222/695/214 227/696/222
f 222/697/214 229/698/212 227/699/222
f 222/697/214 226/700/210 229/698/212
f 223/691/215 226/701/216 222/692/215
f 226/702/210 223/703/213 225/704/211
f 223/705/213 228/706/217 225/707/211
f 223/705/213 224/708/218 228/706/217
f 224/694/218 227/696/222 228/709/217
f 226/702/210 225/704/211 229/710/212
f 228/711/220 229/712/220 225/713/221
f 228/711/220 227/714/223 229/712/220
f 230/715/225 233/716/227 231/717/226
f 230/715/225 232/718/224 233/716/227
f 232/719/224 231/720/226 233/721/227
f 232/719/224 230/722/225 231/720/226
f 235/723/236 234/724/237 238/725/238
f 238/726/238 234/727/237 236/728/239
f 235/729/236 236/730/240 234/731/237
f 239/732/241 235/733/242 238/734/238
f 237/735/243 239/736/241 236/737/240
f 239/732/241 238/734/238 236/738/239
f 235/729/236 237/739/243 236/730/240
f 239/740/241 237/741/243 235/742/242
f 243/743/244 240/744/245 244/745/246
f 244/746/246 240/747/245 246/748/247
f 243/743/244 245/749/248 240/744/245
f 245/750/248 246/751/247 240/752/245
f 247/753/249 241/754/250 246/755/247
f 244/746/246 246/748/247 241/756/250
f 247/753/249 242/757/251 241/754/250
f 242/758/251 244/759/246 241/760/250
f 242/758/251 243/761/244 244/759/246
f 242/762/251 247/763/249 245/764/248
f 242/762/251 245/764/248 243/765/244
f 245/750/248 247/766/249 246/751/247
f 250/767/252 248/768/253 249/769/254
f 249/770/254 248/771/255 257/772/256
f 248/773/253 252/774/257 257/775/256
f 249/770/254 257/772/256 256/776/258
f 250/767/252 249/769/254 255/777/259
f 250/767/252 255/777/259 254/778/260
f 250/779/252 254/780/260 251/781/261
f 248/773/253 250/782/252 252/774/257
f 250/779/252 251/781/261 252/783/257
f 251/784/261 253/785/262 256/786/258
f 251/784/261 256/786/258 257/787/256
f 251/784/261 257/787/256 252/788/257
f 254/780/260 253/789/262 251/781/261
f 254/790/260 255/791/259 253/792/262
f 255/791/259 256/793/258 253/792/263
f 255/791/259 249/794/254 256/793/258
f 258/795/252 259/796/253 260/797/254
f 258/795/252 260/797/254 266/798/259
f 258/795/252 266/798/259 265/799/260
f 258/800/252 265/801/260 263/802/261
f 259/803/253 258/804/252 264/805/257
f 258/800/252 263/802/261 264/806/257
f 260/807/254 259/808/255 267/809/256
f 259/803/253 264/805/257 267/810/256
f 260/807/254 267/809/256 262/811/258
f 266/812/259 260/813/254 262/814/258
f 265/801/260 261/815/262 263/802/261
f 263/816/261 261/817/262 262/818/258
f 265/819/260 266/812/259 261/820/262
f 266/812/259 262/814/258 261/820/263
f 263/816/261 262/818/258 267/821/256
f 263/816/261 267/821/256 264/822/257
f 276/823/252 271/824/259 268/825/260
f 268/826/260 271/827/259 269/828/262
f 268/829/260 269/830/262 270/831/261
f 270/832/261 269/833/262 273/834/258
f 270/832/261 273/834/258 274/835/256
f 270/832/261 274/835/256 277/836/257
f 276/837/252 270/831/261 277/838/257
f 276/837/252 268/829/260 270/831/261
f 271/827/259 273/839/258 269/828/263
f 276/823/252 272/840/254 271/824/259
f 271/827/259 272/841/254 273/839/258
f 272/842/254 274/843/256 273/844/258
f 276/823/252 275/845/253 272/840/254
f 272/842/254 275/846/255 274/843/256
f 275/847/253 277/848/257 274/849/256
f 275/847/253 276/850/252 277/848/257
f 278/851/264 284/852/265 281/853/266
f 278/851/264 282/854/267 284/852/265
f 280/855/268 278/856/264 281/857/266
f 280/858/268 282/859/267 278/860/264
f 282/861/267 283/862/269 279/863/270
f 282/861/267 279/863/270 284/864/265
f 281/865/266 284/866/265 279/867/270
f 283/868/269 285/869/271 279/870/270
f 281/865/266 279/867/270 285/871/271
f 280/855/268 281/857/266 285/872/271
f 280/858/268 283/873/269 282/859/267
f 283/868/269 280/874/268 285/869/271
f 286/875/272 291/876/273 290/877/274
f 286/875/272 290/877/274 287/878/275
f 286/875/272 287/878/275 289/879/276
f 286/875/272 289/879/276 288/880/277
f 286/875/272 288/880/277 292/881/278
f 292/882/278 287/883/275 290/884/274
f 292/882/278 288/885/277 289/886/276
f 292/882/278 289/886/276 287/883/275
f 292/882/278 290/884/274 291/887/273
f 292/882/278 291/887/273 286/888/272
f 312/889/279 311/890/280 314/891/281
f 312/889/279 313/892/282 311/890/280
f 313/893/282 314/894/281 311/895/280
f 313/893/282 312/896/279 314/894/281
f 317/897/283 318/898/284 315/899/285
f 317/897/283 316/900/286 318/898/284
f 315/901/285 316/902/286 317/903/283
f 315/901/285 318/904/284 316/902/286
f 321/905/287 319/906/288 322/907/289
f 320/908/290 319/909/288 321/910/287
f 320/908/290 322/911/289 319/909/288
f 321/905/287 322/907/289 320/912/290
f 323/913/291 324/914/292 327/915/293
f 323/916/291 327/917/293 325/918/294
f 323/916/291 325/918/294 328/919/295
f 327/920/293 324/921/292 326/922/296
f 325/923/294 326/924/296 328/925/295
f 324/926/292 328/927/295 326/928/296
f 327/920/293 326/922/296 325/929/294
f 324/926/292 323/930/291 328/927/295
f 329/931/292 332/932/295 333/933/296
f 329/931/292 334/934/291 332/932/295
f 334/935/291 329/936/292 330/937/293
f 330/938/293 329/939/292 333/940/296
f 330/938/293 333/940/296 331/941/294
f 331/942/294 333/943/296 332/944/295
f 334/945/291 331/946/294 332/947/295
f 334/945/291 330/948/293 331/946/294
f 340/949/297 335/950/298 341/951/299
f 341/952/299 335/953/298 338/954/300
f 340/949/297 337/955/301 335/950/298
f 337/956/301 338/957/300 335/958/298
f 336/959/302 342/960/303 338/961/300
f 336/959/302 339/962/304 342/960/303
f 337/956/301 336/963/302 338/957/300
f 339/964/304 336/965/302 337/966/301
f 339/964/304 337/966/301 340/967/297
f 341/952/299 338/954/300 342/968/303
f 339/969/304 340/970/297 341/971/299
f 339/969/304 341/971/299 342/972/303
f 349/973/305 343/974/306 350/975/307
f 350/976/307 343/977/306 348/978/308
f 349/973/305 346/979/309 343/974/306
f 346/980/309 348/981/308 343/982/306
f 344/983/310 347/984/311 346/985/309
f 347/986/311 344/987/310 345/988/312
f 344/989/310 350/990/307 345/991/312
f 344/989/310 349/992/305 350/990/307
f 344/983/310 346/985/309 349/993/305
f 347/986/311 345/988/312 348/994/308
f 350/976/307 348/978/308 345/995/312
f 346/980/309 347/996/311 348/981/308
f 297/997/15 296/998/15 298/999/15
f 296/1000/15 297/1001/15 298/1002/15
f 303/1003/15 302/1004/15 304/1005/15
f 302/1006/15 303/1007/15 304/1008/15
f 25/99/33 41/101/37 400/1009/313
f 31/134/32 29/136/38 489/1010/314
f 490/139/57 44/1011/315 45/140/58
f 36/125/52 32/1012/59 514/146/63
f 33/1013/61 353/1014/83 51/1015/9
f 353/1014/83 33/1013/61 54/1016/12
f 38/110/43 42/1017/74 445/159/72
f 444/1018/69 487/1019/67 37/1020/6
f 450/168/76 55/1021/316 56/169/77
f 487/1019/67 444/1018/69 416/1022/3
f 397/412/317 501/414/317 356/1023/317
f 462/428/317 369/430/317 405/1024/317
f 423/445/317 370/447/317 420/1025/317
f 503/471/317 375/473/317 367/1026/317
f 475/509/317 379/511/317 373/1027/317
f 505/512/317 174/514/317 378/1028/317
f 479/532/317 387/534/317 383/1029/317
f 508/545/317 436/547/317 386/1030/317
f 468/568/317 391/570/317 411/1031/317
f 485/604/318 194/606/318 389/1032/318
f 482/594/317 392/596/317 455/1033/317
l 40 354
l 183 391
l 355 403
l 368 419
l 366 374
l 371 377
l 376 382
l 381 385
l 384 409
l 390 454
l 361 451
l 430 476
l 431 439
l 410 456
l 440 458
l 140 516
l 141 147
l 453 493
l 472 497
l 492 35
l 406 422
l 496 473
l 500 478
l 460 442
l 142 362
l 375 168
l 169 174
l 188 191
l 152 446
l 175 432
l 180 181
l 370 414
l 392 193
l 186 443
l 172 433
l 177 387
l 357 150
l 143 357
l 358 148
l 358 145
l 501 151
l 155 369
l 369 157
l 370 159
l 375 163
l 379 173
l 165 379
l 174 178
l 387 185
l 189 391
l 188 190
l 418 153
l 418 149
l 501 156
l 171 432
l 433 179
l 436 192
l 182 436
l 180 187
l 446 154
l 502 161
l 474 162
l 474 166
l 504 176
l 502 158
l 504 167
