# Blender 4.5.0
# www.blender.org
mtllib shop_001.lod1.mtl
o shop_001
v -1.596303 3.091686 -3.273641
v 1.596303 3.091686 -3.273641
v 1.596303 2.771194 -3.273641
v -1.596303 2.771194 -3.273641
v 3.900000 0.174127 -3.398594
v 3.899074 0.000860 -3.400000
v 3.899074 0.173266 3.400000
v -3.899074 0.000861 3.400000
v -3.899074 0.173266 -3.400000
v -3.900000 0.174127 3.398594
v -3.900000 -0.000000 -3.398594
v 3.900000 0.000000 3.398594
v 3.698211 0.179603 -2.699773
v 3.698211 3.129348 3.100096
v -3.698211 0.179604 3.100096
v -3.699808 3.129656 3.098335
v -3.698211 3.129347 -2.699774
v -3.699808 0.179295 -2.698013
v 3.699808 0.179295 3.098335
v 3.699808 3.129656 -2.698013
v -2.176404 0.500281 -2.806132
v -2.176404 2.538253 -2.658276
v -2.175661 0.499876 -2.658787
v -3.428912 2.538658 -2.658787
v -3.428169 2.538253 -2.806133
v -3.428912 0.499876 -2.805621
v -2.175662 2.538658 -2.805622
v -3.428169 0.500281 -2.658276
v -3.361972 2.469871 -2.823509
v -3.361972 0.568663 -2.821044
v -2.242602 0.568663 -2.823509
v -2.242602 2.469871 -2.821045
v -3.360755 2.513249 -2.882344
v -3.364733 0.535300 -2.882344
v -3.364733 2.513249 -2.822259
v -3.360755 0.535300 -2.822258
v -2.800298 2.513249 -2.882344
v -2.804276 0.535300 -2.882343
v -2.804276 2.513249 -2.822259
v -2.800298 0.535300 -2.822258
v -2.239841 2.513249 -2.882344
v -2.243819 0.535300 -2.882344
v -2.243819 2.513249 -2.822259
v -2.239841 0.535300 -2.822258
v -2.131830 0.536573 -2.754051
v -2.130480 0.458704 -2.754864
v -3.474093 0.458704 -2.989770
v -3.472744 0.458818 -2.754051
v -2.131830 0.458817 -2.990583
v -3.474094 0.536687 -2.754864
v -2.130480 0.536686 -2.989770
v -3.472744 0.536573 -2.990583
v -0.924641 2.538658 -2.805622
v -0.925384 0.500282 -2.806132
v -2.177148 2.538253 -2.806133
v -0.925384 2.538252 -2.658276
v -0.924641 0.499876 -2.658787
v -2.177891 2.538658 -2.658787
v -2.177891 0.499876 -2.805621
v -2.177148 0.500281 -2.658276
v -0.991581 0.568663 -2.823509
v -0.991581 2.469871 -2.821045
v -2.110951 2.469871 -2.823509
v -2.110951 0.568663 -2.821044
v -2.109735 2.513249 -2.882344
v -2.113712 0.535300 -2.882344
v -2.113712 2.513249 -2.822259
v -2.109734 0.535300 -2.822258
v -1.553255 0.535300 -2.882344
v -1.549277 0.535300 -2.822258
v -1.553255 2.513249 -2.822259
v -1.549277 2.513249 -2.882344
v -0.992797 0.535300 -2.882344
v -0.992797 2.513249 -2.822259
v -0.988820 0.535300 -2.822258
v -0.988820 2.513249 -2.882344
v -2.221723 0.536573 -2.990583
v -0.879459 0.536687 -2.989770
v -0.880809 0.458818 -2.990583
v -0.880809 0.536573 -2.754051
v -2.221723 0.458818 -2.754051
v -0.879459 0.458704 -2.754864
v -2.223073 0.536687 -2.754864
v -2.223073 0.458704 -2.989770
v 0.925384 2.538252 -2.806133
v 2.177148 0.500281 -2.806132
v 0.924641 0.499876 -2.805621
v 2.177148 2.538253 -2.658276
v 0.925384 0.500282 -2.658276
v 0.924641 2.538658 -2.658787
v 2.177891 2.538658 -2.805621
v 2.177891 0.499876 -2.658787
v 0.991581 0.568663 -2.821044
v 2.110951 2.469871 -2.821045
v 0.991581 2.469871 -2.823509
v 2.110951 0.568663 -2.823509
v 0.988820 2.513249 -2.822259
v 0.988820 0.535300 -2.882344
v 0.992797 0.535300 -2.822258
v 0.992797 2.513249 -2.882344
v 1.553255 0.535300 -2.822258
v 1.553255 2.513249 -2.882344
v 1.549277 2.513249 -2.822259
v 1.549277 0.535300 -2.882344
v 2.109734 2.513249 -2.822259
v 2.113712 2.513249 -2.882344
v 2.109735 0.535300 -2.882344
v 2.113712 0.535300 -2.822258
v 0.880809 0.536573 -2.990583
v 0.880809 0.458818 -2.754051
v 0.879459 0.458704 -2.989770
v 2.223073 0.458704 -2.754864
v 2.223073 0.536686 -2.989770
v 2.221723 0.536573 -2.754051
v 0.879459 0.536687 -2.754864
v 2.221723 0.458817 -2.990583
v 3.428912 2.538658 -2.805621
v 2.176404 0.500281 -2.658276
v 3.428169 2.538253 -2.658276
v 3.428912 0.499876 -2.658787
v 2.176404 2.538253 -2.806133
v 2.175661 2.538658 -2.658787
v 2.175661 0.499876 -2.805621
v 3.428169 0.500281 -2.806132
v 2.242602 2.469871 -2.823509
v 3.361972 0.568663 -2.823509
v 3.361972 2.469871 -2.821045
v 2.242602 0.568663 -2.821044
v 2.243819 0.535300 -2.822258
v 2.239841 2.513249 -2.822259
v 2.239841 0.535300 -2.882344
v 2.243819 2.513249 -2.882344
v 2.800298 2.513249 -2.822259
v 2.804276 0.535300 -2.822258
v 2.804276 2.513249 -2.882344
v 2.800298 0.535300 -2.882343
v 3.360755 0.535300 -2.882344
v 3.360755 2.513249 -2.822259
v 3.364733 0.535301 -2.822258
v 3.364733 2.513249 -2.882344
v 3.474093 0.536686 -2.989770
v 3.472744 0.458817 -2.990583
v 3.472744 0.536573 -2.754051
v 3.474094 0.458704 -2.754864
v 2.130480 0.536687 -2.754864
v 2.131830 0.536573 -2.990583
v 2.130480 0.458704 -2.989770
v 2.131830 0.458818 -2.754051
v -0.797101 2.416275 -2.809549
v 0.797101 0.171565 -2.809549
v -0.797101 0.171565 -2.674876
v -0.797792 2.417351 -2.676351
v -0.797792 0.170490 -2.808074
v 0.797101 2.416276 -2.674876
v 0.797792 0.170490 -2.676351
v 0.797792 2.417351 -2.808074
v 0.725557 2.340555 -2.830864
v -0.725557 0.237270 -2.830864
v 0.725557 0.237270 -2.833706
v -0.725557 2.340555 -2.833706
v 0.002018 2.342957 -2.889801
v -0.002018 0.234868 -2.889800
v 0.002018 0.234868 -2.834818
v -0.002018 2.342957 -2.834818
v -0.122233 0.998080 -2.955786
v -0.122233 1.399467 -2.888930
v -0.117963 1.399467 -2.955786
v -0.117963 0.998080 -2.888930
v 0.117963 0.998080 -2.955786
v 0.122233 0.998080 -2.888930
v 0.122233 1.399467 -2.955786
v 0.117963 1.399467 -2.888930
v 3.825086 3.018607 -3.158100
v -3.824148 3.017735 -3.159619
v -3.825086 3.018607 -2.686615
v -3.824148 2.604775 -2.685097
v 3.824148 3.017735 -2.685097
v 3.824148 2.604775 -3.159619
v -3.825086 2.603903 -3.158101
v 3.825085 2.603903 -2.686615
v 3.753295 2.650384 -3.178641
v -3.753295 2.650384 -3.176487
v -3.753295 2.731756 -3.178641
v 3.753295 2.731756 -3.176487
v 1.621127 2.742826 -3.266801
v -1.622289 2.743082 -3.266157
v -1.621127 2.742826 -3.118351
v -1.622289 3.119798 -3.118994
v -1.621127 3.120054 -3.266801
v 1.622289 3.119798 -3.266157
v 1.621127 3.120054 -3.118351
v 1.622289 2.743082 -3.118994
v -3.663684 3.247822 -2.915188
v 3.672081 3.139135 -2.917354
v 3.667993 3.131748 -2.909973
v 3.675374 3.124362 -2.917354
v 3.667993 3.131293 -2.917347
v 3.664030 3.248286 2.913853
v -3.667993 3.244547 2.909972
v -3.659992 3.248914 2.917146
v 3.673770 3.131749 2.915960
v 3.660612 3.124362 2.917353
v 3.667993 3.131749 2.917353
v 3.660612 3.139135 2.917353
v 3.667993 3.244547 -2.909973
v 3.659992 3.248913 -2.917147
v -3.820743 3.131748 -2.909973
v -3.828124 3.140599 -2.917354
v -3.826540 3.133275 -3.072421
v -3.819280 3.131748 -2.917354
v -3.820743 3.131749 2.909972
v -3.823932 3.134008 3.074573
v -3.828124 3.139135 2.917353
v -3.835505 3.131749 2.924734
v -3.671529 3.488877 2.914439
v -3.667993 3.131293 2.917346
v -3.672081 3.139135 2.917353
v -3.667993 3.131749 2.909972
v -3.675374 3.124362 2.917353
v -3.671950 3.140658 -2.917354
v -3.667993 3.139135 -2.917354
v -3.660612 3.139135 -2.917354
v -3.658712 3.131748 -2.909973
v -3.672081 3.484917 -2.917354
v -3.671226 3.492076 -2.909511
v 3.670454 3.486940 -2.914152
v 3.671248 3.492098 2.909516
v 3.675374 3.484917 2.917353
v 3.820743 3.492304 2.909972
v 3.828124 3.484917 2.917353
v 3.835505 3.492304 2.924734
v 3.828124 3.492303 -2.917354
v 3.836968 3.492303 -2.909973
v 3.828124 3.491571 -2.917354
v 3.820743 3.492303 -2.909973
v 3.828124 3.139135 -2.920634
v 3.820743 3.131748 -2.909973
v 3.820743 3.131748 -2.917354
v 3.823931 3.134008 -3.074574
v 3.820331 3.492008 -3.073658
v 3.828124 3.483393 -3.073526
v -3.820743 3.492303 -2.909973
v -3.820743 3.492303 -2.924735
v -3.828124 3.484917 -2.917354
v -3.835505 3.492303 -2.924735
v -3.825509 3.487682 -3.075063
v 3.823931 3.490044 3.074573
v -3.826540 3.490777 3.072421
v -3.820743 3.492304 2.909972
v -3.828124 3.483453 2.917353
v -3.819280 3.492304 2.917353
v 3.820743 3.131749 2.909972
v 3.828124 3.140599 2.917353
v 3.824541 3.134515 3.074089
v 3.820743 3.131749 2.917353
v -1.881214 3.255525 0.877889
v -1.881214 3.899344 1.323887
v -1.880173 3.900000 0.878912
v -2.723584 3.900000 1.322864
v -2.722543 3.899344 0.877889
v -2.723584 3.254869 0.878912
v -1.880173 3.254869 1.322864
v -2.722543 3.255525 1.323887
v -1.910742 3.593256 0.850317
v -1.941584 3.708639 0.850411
v -2.141777 3.824308 0.850641
v -2.028490 3.391111 0.856677
v -2.139232 3.361416 0.844695
v -2.257564 3.793261 0.850730
v -2.256389 3.391874 0.852231
v -2.342204 3.477562 0.851055
v -2.373143 3.592919 0.850961
v -2.342241 3.708490 0.850835
v -2.026089 3.793264 0.850537
v -1.942246 3.476110 0.849141
v -2.351215 3.435853 0.832468
v -1.926913 3.434715 0.820662
v -2.351215 3.433577 0.808855
v -1.932280 3.513633 0.821799
v -1.932280 3.490003 0.819525
v -2.351215 3.490003 0.821799
v -2.351215 3.513633 0.819525
v -1.926913 3.568921 0.820662
v -2.351215 3.580736 0.819525
v -2.351215 3.557106 0.821799
v -2.351215 3.634887 0.808855
v -2.351215 3.637163 0.832468
v -1.926913 3.636024 0.820662
v -2.351215 3.714943 0.819525
v -1.926913 3.703128 0.820662
v -2.351215 3.691313 0.821799
v -2.351215 3.782046 0.819525
v -2.351215 3.758416 0.821799
v -1.926913 3.770231 0.820662
v -2.636122 3.772059 0.854178
v -2.548109 3.772059 0.857202
v -2.636122 3.412856 0.857202
v -2.548109 3.412856 0.854178
v -2.640342 3.250192 0.815059
v -2.563905 3.183567 0.815059
v -2.641178 3.182859 0.816581
v -2.640342 3.183567 1.386716
v -2.563069 3.182859 1.385194
v -2.563069 3.250900 0.816581
v -2.563905 3.250192 1.386716
v -2.641178 3.250900 1.385195
v -2.039851 3.250192 0.815059
v -1.963415 3.183567 0.815059
v -2.039852 3.183567 1.386716
v -1.962579 3.182859 1.385195
v -2.040688 3.182859 0.816581
v -2.040688 3.250900 1.385195
v -1.963415 3.250192 1.386716
v -1.962579 3.250900 0.816581
v -1.672727 3.254869 0.878912
v -0.830357 3.899343 1.323887
v -1.671685 3.255525 1.323887
v -0.829315 3.254869 1.322864
v -1.672727 3.900000 1.322864
v -0.829315 3.900000 0.878912
v -1.671685 3.899344 0.877889
v -0.830357 3.255525 0.877889
v -1.205532 3.391874 0.852231
v -0.975232 3.793264 0.850537
v -1.088374 3.361416 0.844695
v -1.291346 3.477562 0.851055
v -1.322286 3.592919 0.850961
v -1.206706 3.793261 0.850730
v -1.291384 3.708490 0.850834
v -1.090919 3.824308 0.850641
v -0.890727 3.708639 0.850411
v -0.859884 3.593256 0.850317
v -0.977632 3.391111 0.856677
v -0.891388 3.476110 0.849141
v -1.300358 3.433577 0.808855
v -0.876056 3.434715 0.820662
v -1.300358 3.435853 0.832468
v -1.300358 3.513633 0.819525
v -1.300358 3.490003 0.821799
v -0.881422 3.490003 0.819525
v -0.881422 3.513633 0.821799
v -1.300358 3.580736 0.819524
v -0.876056 3.568921 0.820662
v -1.300358 3.557106 0.821799
v -0.876056 3.636024 0.820662
v -1.300358 3.634887 0.808855
v -1.300358 3.637163 0.832468
v -1.300358 3.714943 0.819525
v -0.876056 3.703128 0.820662
v -1.300358 3.691313 0.821799
v -1.300358 3.758416 0.821799
v -0.876056 3.770231 0.820662
v -1.300358 3.782046 0.819525
v -1.497251 3.772059 0.857202
v -1.585264 3.412856 0.857202
v -1.497251 3.412856 0.854178
v -1.585264 3.772059 0.854178
v -1.513048 3.183567 0.815059
v -1.589484 3.250192 0.815059
v -1.589484 3.183567 1.386716
v -1.513048 3.250192 1.386716
v -1.590320 3.250900 1.385195
v -1.590320 3.182859 0.816581
v -1.512212 3.250900 0.816581
v -1.512212 3.182859 1.385195
v -0.912558 3.183567 0.815059
v -0.988994 3.250192 0.815059
v -0.988994 3.183567 1.386716
v -0.989830 3.250900 1.385195
v -0.912558 3.250192 1.386716
v -0.911722 3.250900 0.816581
v -0.989830 3.182859 0.816581
v -0.911722 3.182859 1.385195
v -3.021929 0.176978 -3.151767
v -2.953106 0.176896 -3.225463
v -2.965119 0.178972 -3.167395
v -3.039718 0.894601 -3.166192
v -2.983739 0.898617 -3.151513
v -3.003070 0.180912 -3.254669
v -2.980292 0.898537 -3.252290
v -3.054704 0.180524 -3.221064
v -3.052468 0.894989 -3.226462
v -2.951170 0.896542 -3.201069
v 3.039781 0.178972 -3.167395
v 3.001830 0.180912 -3.254669
v 3.051794 0.176896 -3.225463
v 3.053730 0.896542 -3.201068
v 2.952432 0.894989 -3.226462
v 3.024608 0.898537 -3.252290
v 2.950196 0.180524 -3.221064
v 2.965182 0.894601 -3.166192
v 2.982971 0.176978 -3.151767
v 3.021161 0.898617 -3.151513
v 2.804469 1.874234 -3.291131
v 2.804238 0.181492 -3.290271
v 3.400594 1.874234 -2.853826
v 3.400826 1.875531 -3.290271
v 3.400594 0.182790 -3.291131
v 2.804238 1.875531 -2.854687
v 3.400826 0.181492 -2.854686
v 2.804470 0.182790 -2.853826
v 3.331837 1.588457 -3.301359
v 2.873226 1.588456 -3.303970
v 2.873226 0.648845 -3.301359
v 3.331837 0.648845 -3.303970
v 2.923752 0.999903 -3.323378
v 2.923752 0.856813 -3.321983
v 3.001083 0.999903 -3.321983
v 3.001083 0.856812 -3.323378
v 3.063866 0.999903 -3.323378
v 3.141197 0.999903 -3.321983
v 3.063866 0.856812 -3.321983
v 3.141197 0.856813 -3.323378
v 3.203981 0.999903 -3.323378
v 3.281311 0.856812 -3.323378
v 3.203981 0.856812 -3.321983
v 3.281311 0.999903 -3.321983
v 2.923752 1.300365 -3.323378
v 3.001083 1.300365 -3.321983
v 3.001083 1.157275 -3.323377
v 2.923752 1.157275 -3.321983
v 3.141197 1.157275 -3.323377
v 3.141197 1.300365 -3.321983
v 3.063866 1.157275 -3.321983
v 3.063866 1.300365 -3.323378
v 3.203981 1.300366 -3.323378
v 3.281311 1.300366 -3.321983
v 3.203981 1.157274 -3.321983
v 3.281311 1.157274 -3.323378
v 2.923752 1.600828 -3.323378
v 3.001083 1.600828 -3.321984
v 2.923752 1.457737 -3.321983
v 3.001083 1.457737 -3.323378
v 3.141197 1.457737 -3.323378
v 3.063866 1.457737 -3.321983
v 3.141197 1.600828 -3.321984
v 3.063866 1.600828 -3.323378
v 3.281311 1.457737 -3.323378
v 3.203981 1.600828 -3.323378
v 3.203981 1.457737 -3.321983
v 3.281311 1.600828 -3.321983
v -2.796162 0.181621 -3.320434
v -3.509742 0.180670 -3.319391
v -2.796162 0.994046 -2.844539
v -3.508983 0.181621 -2.844539
v -3.509742 0.994997 -2.845582
v -2.795403 0.994997 -3.319391
v -3.508983 0.994047 -3.320434
v -2.795403 0.180671 -2.845582
v -2.978216 0.907581 -3.331245
v -3.326929 0.808919 -3.331245
v -2.978216 0.808918 -3.334132
v -3.326929 0.907581 -3.334132
v -3.552145 0.116323 3.239769
v -3.595162 0.120549 3.177769
v -3.520132 0.115849 3.159199
v -3.518996 2.902182 3.159736
v -3.593254 2.897956 3.173163
v -3.553329 2.902656 3.239345
v 3.553652 0.116323 3.239769
v 3.510638 0.120549 3.177768
v 3.586803 2.902182 3.159737
v 3.552469 2.902656 3.239345
v 3.585666 0.115849 3.159200
v 3.512545 2.897956 3.173162
v -0.396831 2.247697 3.241125
v -0.396401 0.451011 3.241596
v 0.396831 2.247697 3.124009
v 0.396401 2.247000 3.241595
v -0.396401 2.247000 3.123539
v -0.396831 0.450315 3.124010
v 0.396401 0.451011 3.123539
v 0.396831 0.450315 3.241125
v 0.628217 1.302495 3.099978
v 0.628787 1.795093 3.099288
v 0.628217 1.796133 3.265157
v 0.973089 1.796133 3.099978
v 0.972520 1.795092 3.265846
v 0.972520 1.303535 3.099289
v 0.973089 1.302495 3.265157
v 0.628787 1.303535 3.265846
vn -0.0000 -0.0000 -1.0000
vn 0.8864 -0.4621 0.0285
vn -0.2283 -0.2282 -0.9465
vn -0.7005 -0.7000 -0.1389
vn 0.7071 -0.0000 0.7071
vn -0.6838 0.7283 0.0450
vn -0.0962 -0.7159 -0.6916
vn -0.7071 -0.0000 0.7071
vn -0.7073 -0.0000 -0.7069
vn 0.9122 -0.4098 -0.0075
vn 0.7083 -0.7059 0.0042
vn 0.9984 -0.0386 -0.0413
vn 0.7071 -0.0000 -0.7071
vn -0.7005 0.7000 0.1389
vn 0.7680 -0.6405 -0.0000
vn 0.5744 0.0019 -0.8186
vn 0.0201 0.0028 -0.9998
vn -0.0000 0.0011 1.0000
vn 0.9994 0.0349 0.0012
vn 0.8026 0.5965 -0.0006
vn 0.4792 0.8777 -0.0002
vn 0.0604 -0.9981 0.0120
vn 0.0482 -0.0482 0.9977
vn -0.0001 1.0000 -0.0000
vn -0.0000 1.0000 -0.0000
vn -0.9992 0.0405 -0.0013
vn -0.8026 0.5965 0.0005
vn -0.4791 0.8777 0.0001
vn -0.0010 -0.0000 -1.0000
vn -0.0000 0.7068 0.7074
vn -0.7680 -0.6405 -0.0000
vn -0.0496 -0.9988 -0.0000
vn -0.0317 0.9910 -0.1301
vn -0.5674 -0.5749 0.5895
vn 0.0001 -0.9998 0.0176
vn 0.1859 -0.6815 0.7078
vn 0.0001 1.0000 0.0099
vn 0.5693 0.5747 0.5879
vn -0.0000 0.9999 0.0137
vn 0.6676 -0.0000 -0.7446
vn 0.9941 0.0004 -0.1088
vn -0.0391 0.9979 -0.0523
vn -0.0000 -0.7069 -0.7073
vn -0.0000 0.7069 -0.7074
vn 0.0001 -0.6988 -0.7153
vn 0.0001 -1.0000 -0.0099
vn -0.1880 -0.6822 -0.7066
vn -0.6676 -0.0000 0.7445
vn -0.7680 0.6405 -0.0000
vn -0.8840 0.0022 0.4675
vn -0.5022 0.8647 -0.0108
vn -0.5729 0.5673 -0.5916
vn -0.7072 0.7070 0.0003
vn -0.5794 0.5781 0.5745
vn 0.5794 0.5781 -0.5745
vn -0.5753 0.5765 -0.5802
vn 0.5753 0.5765 0.5802
vn 0.5753 -0.5765 -0.5802
vn 0.5794 -0.5781 0.5745
vn -0.5794 -0.5781 -0.5745
vn -0.5753 -0.5765 0.5802
vn -0.5775 -0.5774 -0.5771
vn 0.5771 -0.5774 -0.5776
vn 0.5775 -0.5774 0.5771
vn -0.5771 0.5774 -0.5776
vn 0.5775 0.5774 -0.5771
vn 0.5771 0.5774 0.5776
vn -0.5771 -0.5774 0.5776
vn -0.5775 0.5774 0.5771
vn -0.5758 0.5767 -0.5795
vn 0.5758 -0.5767 -0.5795
vn -0.5789 -0.5780 -0.5751
vn 0.5789 -0.5780 0.5751
vn 0.5789 0.5780 -0.5751
vn 0.5758 0.5767 0.5795
vn -0.5789 0.5780 0.5751
vn -0.5758 -0.5767 0.5795
vn -0.6564 0.7544 0.0017
vn 0.6564 0.7544 -0.0016
vn 0.6564 -0.7544 0.0017
vn -0.6564 -0.7544 -0.0016
vn -0.0390 0.8389 0.5429
vn 0.0390 0.8389 -0.5429
vn -0.0390 -0.8389 -0.5429
vn 0.0390 -0.8389 0.5429
vn -0.0389 0.8396 0.5417
vn 0.0391 0.8381 -0.5441
vn -0.0389 -0.8396 -0.5417
vn 0.0391 -0.8381 0.5441
vn 0.6991 0.0052 0.7150
vn -0.6991 -0.0052 0.7150
vn 0.7122 -0.0000 0.7020
vn -0.7122 -0.0000 0.7020
vn 0.7122 -0.0000 -0.7020
vn -0.0001 1.0000 -0.0004
vn 0.0001 1.0000 0.0005
vn 0.0001 1.0000 0.0004
vn 0.6991 -0.0052 -0.7150
vn -0.0001 -1.0000 0.0004
vn 0.0001 -1.0000 -0.0005
vn 0.0001 -1.0000 -0.0004
vn -0.0001 -1.0000 0.0005
vn -0.7122 -0.0000 -0.7020
vn -0.6991 0.0052 -0.7150
vn -0.0001 1.0000 -0.0005
vn 0.6564 -0.7544 0.0016
vn -0.6564 -0.7544 -0.0017
vn -0.0390 0.8393 0.5423
vn 0.0390 0.8385 -0.5435
vn -0.0390 -0.8393 -0.5423
vn 0.0390 -0.8385 0.5435
vn 0.6564 0.7544 -0.0017
vn -0.6564 0.7544 0.0016
vn -0.0391 0.8381 0.5441
vn -0.0391 -0.8381 -0.5441
vn 0.0389 -0.8396 0.5417
vn 0.0389 0.8396 -0.5417
vn -0.5761 0.5749 -0.5811
vn 0.5761 -0.5749 -0.5811
vn -0.5789 -0.5797 -0.5734
vn 0.5789 0.5797 -0.5734
vn -0.5789 0.5797 0.5734
vn 0.5789 -0.5797 0.5734
vn -0.5761 -0.5749 0.5811
vn 0.5761 0.5749 0.5811
vn 0.6712 0.7412 0.0102
vn -0.6712 -0.7412 0.0102
vn 0.6711 -0.7413 -0.0103
vn -0.6711 0.7413 -0.0102
vn -0.0425 0.8396 0.5416
vn 0.0425 0.8396 -0.5416
vn -0.0425 -0.8396 -0.5416
vn 0.0425 -0.8396 0.5416
vn 0.0366 0.8173 -0.5750
vn 0.0366 -0.8173 0.5750
vn -0.0366 -0.8174 -0.5750
vn -0.0366 0.8173 0.5750
vn -0.0366 -0.8173 -0.5750
vn -0.5781 0.5785 0.5754
vn 0.5781 0.5785 -0.5754
vn -0.5760 0.5765 -0.5796
vn 0.5760 -0.5765 -0.5796
vn 0.5781 -0.5785 0.5754
vn 0.5760 0.5765 0.5796
vn -0.5781 -0.5785 -0.5754
vn -0.5760 -0.5765 0.5796
vn -0.8435 0.5365 -0.0269
vn 0.8401 -0.5417 -0.0270
vn -0.8401 -0.5417 0.0272
vn 0.8435 0.5365 0.0269
vn -0.7090 -0.7052 0.0018
vn 0.7035 -0.7107 -0.0043
vn 0.7090 -0.7052 -0.0018
vn -0.0002 -0.0015 -1.0000
vn 0.0002 0.0017 -1.0000
vn 0.0002 0.0015 -1.0000
vn -0.0002 -0.0017 -1.0000
vn 0.7090 0.7052 0.0018
vn -0.7090 0.7052 -0.0018
vn -0.7035 0.7107 -0.0043
vn -0.7035 -0.7107 0.0043
vn 0.0002 -0.0015 1.0000
vn -0.0002 0.0015 1.0000
vn 0.0002 -0.0017 1.0000
vn -0.0002 0.0017 1.0000
vn 0.7035 0.7107 0.0043
vn -0.0001 0.7201 -0.6939
vn -0.0003 0.0018 -1.0000
vn -0.0000 0.0199 -0.9998
vn -0.9992 0.0391 -0.0007
vn 0.0003 0.6807 0.7325
vn -0.0002 0.6808 -0.7325
vn -0.0000 -1.0000 -0.0000
vn -0.0384 0.9993 -0.0000
vn -0.7252 0.6885 -0.0005
vn -1.0000 0.0069 0.0001
vn 0.9994 0.0336 0.0006
vn 1.0000 -0.0000 -0.0000
vn -0.4894 0.8720 0.0005
vn 0.0005 0.0092 -1.0000
vn -0.0000 0.7249 0.6889
vn 0.0004 0.0019 1.0000
vn -0.0001 0.0321 0.9995
vn -1.0000 -0.0000 -0.0000
vn 0.0006 -0.7071 -0.7071
vn -0.0000 -0.0000 1.0000
vn 0.0482 -0.9988 -0.0013
vn -0.6982 -0.0175 0.7157
vn -0.9998 -0.0210 0.0012
vn -0.9999 -0.0000 -0.0102
vn 0.0137 0.0015 0.9999
vn 0.0050 0.0061 1.0000
vn -0.0000 0.0083 1.0000
vn -0.1877 0.6813 0.7075
vn -0.8721 -0.4893 0.0073
vn -0.6981 0.0175 -0.7157
vn -0.9999 -0.0000 0.0102
vn 0.9997 0.0253 -0.0000
vn 0.7093 0.7049 0.0003
vn 1.0000 0.0099 0.0001
vn 0.0230 0.9997 -0.0018
vn 0.0014 1.0000 -0.0000
vn -0.0350 0.9994 -0.0009
vn -0.0203 0.0004 -0.9998
vn -0.0013 1.0000 -0.0000
vn 0.9997 -0.0000 0.0229
vn 0.8726 0.4884 0.0073
vn 0.9998 -0.0210 -0.0013
vn 0.9998 -0.0206 -0.0012
vn 0.9998 -0.0205 -0.0012
vn 0.0245 -0.0205 -0.9995
vn -0.6404 0.0288 0.7675
vn -0.0000 1.0000 -0.0018
vn 0.0002 0.0150 -0.9999
vn -0.9999 0.0028 -0.0165
vn -0.5782 -0.5780 -0.5758
vn 0.5763 -0.5769 -0.5788
vn 0.5782 -0.5780 0.5758
vn -0.5763 0.5769 -0.5788
vn 0.5782 0.5780 -0.5758
vn 0.5763 0.5769 0.5788
vn -0.5763 -0.5769 0.5788
vn -0.5782 0.5780 0.5758
vn 0.5251 -0.8344 0.1673
vn 0.9256 -0.3733 -0.0617
vn 0.9901 0.1397 -0.0101
vn 0.8170 0.5766 -0.0047
vn 0.4519 0.8921 -0.0007
vn -0.0184 0.9998 -0.0000
vn -0.4842 0.8750 -0.0000
vn -0.8374 0.5466 0.0006
vn -0.9958 0.0910 0.0047
vn -0.9274 -0.3738 0.0101
vn -0.6150 -0.7861 0.0617
vn -0.0373 -0.9852 -0.1672
vn -0.0000 -0.0000 -0.0000
vn -0.8350 0.5476 -0.0541
vn 0.8346 0.5482 0.0542
vn 0.8350 -0.5476 -0.0541
vn -0.8346 -0.5482 0.0542
vn -0.5930 0.8050 -0.0186
vn 0.5930 0.8050 0.0186
vn 0.5930 -0.8050 -0.0186
vn -0.5930 -0.8050 0.0186
vn -0.5847 0.5835 0.5635
vn -0.5734 0.5742 -0.5844
vn -0.5848 -0.5835 -0.5635
vn 0.5734 -0.5742 -0.5844
vn 0.5847 0.5835 -0.5635
vn 0.5847 -0.5835 0.5635
vn -0.5734 -0.5742 0.5844
vn 0.5734 0.5742 0.5844
vn -0.5847 -0.5835 -0.5635
vn -0.8350 0.5476 -0.0540
vn 0.5127 0.0536 -0.8569
vn 0.5694 0.0513 -0.8205
vn -0.0000 -0.9992 0.0408
vn -0.0000 -0.9989 0.0473
vn 0.5791 -0.6123 0.5382
vn -0.3294 -0.6199 0.7121
vn -0.7794 -0.5823 -0.2312
vn -0.5884 0.5973 0.5450
vn 0.2703 0.6385 0.7206
vn 0.7007 -0.6384 -0.3184
vn -0.0307 -0.5973 -0.8014
vn 0.2706 0.6200 -0.7365
vn 0.7901 0.6123 0.0290
vn -0.7147 0.5823 -0.3876
vn -0.5777 0.5782 0.5761
vn -0.5776 0.5758 -0.5787
vn -0.5777 -0.5782 -0.5761
vn 0.5776 -0.5758 -0.5787
vn 0.5777 0.5782 -0.5761
vn -0.5776 -0.5758 0.5787
vn 0.5777 -0.5782 0.5761
vn 0.5776 0.5758 0.5787
vn -0.6401 0.7683 0.0028
vn 0.6401 0.7683 -0.0028
vn 0.6401 -0.7683 0.0028
vn -0.6401 -0.7683 -0.0027
vn -0.6487 0.7610 -0.0116
vn 0.6486 -0.7610 -0.0116
vn -0.6487 -0.7610 0.0116
vn 0.6488 0.7609 0.0116
vn -0.6486 0.7610 -0.0115
vn 0.6487 0.7609 0.0116
vn -0.6487 -0.7609 0.0116
vn 0.6487 -0.7610 -0.0116
vn -0.6488 -0.7609 0.0116
vn -0.6487 0.7609 -0.0116
vn 0.6487 -0.7610 -0.0115
vn -0.6488 0.7609 -0.0116
vn 0.6487 -0.7609 -0.0116
vn -0.6486 0.7610 -0.0116
vn 0.6488 0.7608 0.0116
vn -0.5768 0.5765 -0.5788
vn 0.5768 -0.5765 -0.5788
vn -0.5780 -0.5782 -0.5759
vn 0.5780 0.5782 -0.5759
vn 0.5780 -0.5781 0.5759
vn -0.5780 0.5782 0.5759
vn -0.5768 -0.5765 0.5788
vn 0.5768 0.5765 0.5788
vn 0.7989 0.6013 0.0153
vn -0.7989 -0.6013 0.0153
vn 0.7992 -0.6009 -0.0153
vn -0.7992 0.6009 -0.0153
vn -0.7947 -0.5282 -0.2990
vn 0.0882 -0.5662 0.8196
vn 0.0510 0.5696 0.8203
vn -0.7734 0.5282 -0.3505
vn 0.6161 -0.5696 -0.5440
vn 0.6419 0.5662 -0.5172
vn 0.6419 0.5662 -0.5171
vn -0.5785 0.5789 0.5747
vn -0.5785 -0.5789 -0.5747
vn -0.5765 -0.5755 0.5800
vn 0.5765 0.5755 0.5800
vn 0.5785 0.5789 -0.5747
vn -0.5765 0.5755 -0.5800
vn 0.5785 -0.5789 0.5747
vn 0.5765 -0.5755 -0.5800
vn -0.5786 -0.5792 -0.5743
vn 0.5786 -0.5792 0.5743
vn -0.5767 -0.5748 0.5806
vn 0.5767 -0.5748 -0.5806
vn -0.5786 0.5792 0.5743
vn -0.5767 0.5748 -0.5806
vn 0.5786 0.5792 -0.5743
vn 0.5767 0.5748 0.5806
vn 0.6838 0.7283 -0.0450
vn -0.2283 0.2282 -0.9465
vn -0.7071 -0.7066 0.0262
vn -0.7094 -0.7048 -0.0041
vn -0.8864 -0.4621 -0.0285
vn -0.0000 -0.0003 1.0000
vn 0.7094 0.7048 -0.0041
vn 0.6408 -0.0000 -0.7677
vn 0.7075 -0.7068 0.0001
vn 0.7075 -0.7067 0.0001
vn 0.7073 -0.7069 -0.0000
vn -0.7074 0.7068 -0.0000
vn -0.7071 0.7066 -0.0262
vn 0.7680 -0.6405 -0.0073
vn 0.0004 -0.1847 0.9828
vn 0.0231 0.9997 -0.0046
vn -0.0000 -0.6379 -0.7701
vn 0.0311 0.0311 0.9990
vn -0.0192 0.0091 -0.9998
vn -0.0008 -0.7070 -0.7072
vn -0.0000 0.7385 -0.6742
vn -0.0016 -1.0000 -0.0015
vn -0.0000 -0.7068 -0.7074
vn -0.0000 -0.9999 0.0137
vn -0.7071 -0.0000 -0.7071
vn 0.0086 0.0223 -0.9997
vn 0.0176 0.0083 0.9998
vn 0.7414 0.6702 -0.0351
vn -0.0000 -0.7069 0.7074
vn -0.0000 0.7373 0.6756
vn 0.7075 -0.7067 0.0002
vn -0.0000 -0.9999 -0.0144
vn -0.0016 1.0000 0.0015
vn 0.0950 0.0185 0.9953
vn -0.0000 -0.7068 0.7074
vn 0.7074 -0.7069 -0.0000
vn -0.9996 0.0289 -0.0012
vn 0.9998 -0.0205 0.0012
vn 0.3236 0.8406 0.4344
vn -0.6222 -0.7828 -0.0010
vn -0.0426 -0.1108 -0.9929
vn 0.0010 -0.0205 0.9998
vn -0.9998 0.0210 -0.0012
vn 0.0188 -0.0061 0.9998
vn 0.0193 -0.0193 0.9996
vn 0.0010 0.0205 -0.9998
vn 1.0000 0.0092 -0.0000
vn -0.0010 -0.0205 -0.9998
vn 0.9998 -0.0205 -0.0000
vn 0.6419 -0.0289 -0.7663
vn 0.4132 -0.0085 0.9106
vt 0.685176 0.839322
vt 0.685176 0.720682
vt 0.697263 0.720695
vt 0.697263 0.839335
vt 0.736925 0.982160
vt 0.736654 0.982190
vt 0.736606 0.981897
vt 0.732606 0.982467
vt 0.732497 0.982272
vt 0.732606 0.981897
vt 0.458795 0.300906
vt 0.458794 0.301240
vt 0.458515 0.301185
vt 0.741203 0.982454
vt 0.740925 0.982175
vt 0.741203 0.981897
vt 0.749592 0.982106
vt 0.749776 0.981897
vt 0.749776 0.982291
vt 0.458795 0.306800
vt 0.458794 0.307228
vt 0.458515 0.307300
vt 0.227979 0.589588
vt 0.228258 0.589866
vt 0.228536 0.590145
vt 0.728118 0.982220
vt 0.728090 0.982220
vt 0.728119 0.981897
vt 0.458918 0.589866
vt 0.458794 0.589588
vt 0.464627 0.589740
vt 0.008322 0.301184
vt 0.008044 0.300906
vt 0.007765 0.300627
vt 0.228258 0.300906
vt 0.228257 0.301240
vt 0.227979 0.301184
vt 0.622967 0.804910
vt 0.622634 0.804970
vt 0.622634 0.804698
vt 0.972847 0.748921
vt 0.985831 0.749015
vt 0.972582 0.749080
vt 0.826261 0.279370
vt 0.826540 0.002496
vt 0.826522 0.279091
vt 0.458017 0.870524
vt 0.238337 0.870740
vt 0.238301 0.870434
vt 0.238859 0.589587
vt 0.238580 0.583822
vt 0.238580 0.583544
vt 0.008043 0.589866
vt 0.008322 0.589588
vt 0.008322 0.590200
vt 0.238318 0.594018
vt 0.457992 0.593866
vt 0.458027 0.594172
vt 0.830540 0.002022
vt 0.830817 0.274338
vt 0.830555 0.274612
vt 0.008044 0.306795
vt 0.238859 0.301184
vt 0.458515 0.589588
vt 0.458795 0.583976
vt 0.008199 0.583959
vt 0.773928 0.002126
vt 0.779637 0.290684
vt 0.773872 0.290682
vt 0.234116 0.589693
vt 0.175983 0.981911
vt 0.175681 0.986154
vt 0.175758 0.981897
vt 0.972591 0.781327
vt 0.985773 0.781291
vt 0.972791 0.781489
vt 0.972509 0.898955
vt 0.978395 0.898637
vt 0.978691 0.898955
vt 0.972800 0.894366
vt 0.978683 0.894637
vt 0.972509 0.894632
vt 0.228258 0.584101
vt 0.622634 0.590234
vt 0.464668 0.301185
vt 0.825293 0.577500
vt 0.821039 0.577505
vt 0.825391 0.577212
vt 0.972515 0.716022
vt 0.985828 0.716512
vt 0.972509 0.716300
vt 0.007765 0.301184
vt 0.002054 0.301184
vt 0.258329 0.002198
vt 0.002007 0.296429
vt 0.002011 0.002139
vt 0.258326 0.296488
vt 0.709712 0.590292
vt 0.709636 0.300663
vt 0.716221 0.300674
vt 0.600805 0.584145
vt 0.600841 0.834522
vt 0.594406 0.834508
vt 0.594564 0.584145
vt 0.716147 0.590295
vt 0.518666 0.002199
vt 0.518662 0.296488
vt 0.262343 0.296428
vt 0.529374 0.002011
vt 0.522866 0.296161
vt 0.522790 0.002010
vt 0.529301 0.296154
vt 0.583994 0.840439
vt 0.590236 0.584145
vt 0.590236 0.840439
vt 0.262347 0.002138
vt 0.583994 0.584145
vt 0.687720 0.300805
vt 0.687782 0.579904
vt 0.469037 0.579967
vt 0.720327 0.868246
vt 0.720317 0.593588
vt 0.831470 0.593703
vt 0.831455 0.868434
vt 0.228241 0.594200
vt 0.117099 0.807670
vt 0.117156 0.594201
vt 0.579994 0.584145
vt 0.468849 0.863081
vt 0.468838 0.584145
vt 0.579980 0.863143
vt 0.228230 0.807743
vt 0.752353 0.002177
vt 0.752415 0.281276
vt 0.533671 0.281340
vt 0.113085 0.594201
vt 0.002000 0.812614
vt 0.002000 0.594200
vt 0.468975 0.300868
vt 0.533609 0.002241
vt 0.113085 0.812614
vt 0.844129 0.300735
vt 0.890422 0.377620
vt 0.844138 0.377701
vt 0.904497 0.307365
vt 0.951622 0.307339
vt 0.951652 0.312809
vt 0.890414 0.300654
vt 0.020608 0.901118
vt 0.025813 0.977798
vt 0.020608 0.977617
vt 0.025838 0.900943
vt 0.850639 0.593650
vt 0.897648 0.593617
vt 0.897657 0.670583
vt 0.850649 0.670617
vt 0.904496 0.278614
vt 0.951622 0.278589
vt 0.951652 0.284058
vt 0.904527 0.312835
vt 0.883891 0.409734
vt 0.889348 0.486592
vt 0.883869 0.486588
vt 0.889370 0.409738
vt 0.904526 0.284084
vt 0.421709 0.901036
vt 0.462905 0.900940
vt 0.462928 0.972446
vt 0.421712 0.972556
vt 0.603977 0.901002
vt 0.645806 0.972449
vt 0.603991 0.972510
vt 0.645792 0.900941
vt 0.154182 0.901025
vt 0.155681 0.900975
vt 0.155685 0.975068
vt 0.056798 0.901025
vt 0.058359 0.975068
vt 0.056812 0.975118
vt 0.058380 0.901025
vt 0.154186 0.975118
vt 0.170742 0.901025
vt 0.172242 0.900975
vt 0.172246 0.975068
vt 0.080064 0.901025
vt 0.081626 0.975068
vt 0.080078 0.975118
vt 0.081647 0.901025
vt 0.170747 0.975117
vt 0.176263 0.901025
vt 0.177762 0.900975
vt 0.177766 0.975068
vt 0.085881 0.901025
vt 0.087442 0.975068
vt 0.085895 0.975118
vt 0.087463 0.901025
vt 0.176267 0.975117
vt 0.904311 0.219830
vt 0.954677 0.222810
vt 0.904313 0.222812
vt 0.954676 0.219828
vt 0.972509 0.862001
vt 0.980963 0.861929
vt 0.980937 0.864857
vt 0.904487 0.109331
vt 0.955029 0.109301
vt 0.955061 0.118086
vt 0.972509 0.864794
vt 0.904487 0.161106
vt 0.955029 0.161076
vt 0.955061 0.169862
vt 0.904519 0.169892
vt 0.972622 0.838900
vt 0.981463 0.841472
vt 0.972591 0.841460
vt 0.981495 0.838912
vt 0.953912 0.243875
vt 0.904324 0.240895
vt 0.953912 0.240893
vt 0.904322 0.243877
vt 0.904519 0.118116
vt 0.011305 0.901118
vt 0.016509 0.977798
vt 0.011304 0.977617
vt 0.844115 0.498174
vt 0.890400 0.498094
vt 0.890409 0.575059
vt 0.904496 0.269031
vt 0.951652 0.274475
vt 0.904526 0.274501
vt 0.951622 0.269005
vt 0.016534 0.900944
vt 0.844124 0.575140
vt 0.904497 0.316948
vt 0.951622 0.316922
vt 0.951652 0.322392
vt 0.882660 0.083157
vt 0.888139 0.083161
vt 0.888118 0.160015
vt 0.853174 0.172373
vt 0.900182 0.172340
vt 0.900192 0.249307
vt 0.853183 0.249340
vt 0.904527 0.322418
vt 0.882639 0.160011
vt 0.467221 0.901036
vt 0.508417 0.900940
vt 0.508440 0.972446
vt 0.467224 0.972556
vt 0.649892 0.901002
vt 0.691720 0.972449
vt 0.649905 0.972509
vt 0.691707 0.900941
vt 0.137621 0.901025
vt 0.139120 0.900975
vt 0.139124 0.975068
vt 0.137625 0.975118
vt 0.091698 0.901025
vt 0.093280 0.901025
vt 0.093259 0.975068
vt 0.091712 0.975118
vt 0.074248 0.901025
vt 0.075809 0.975068
vt 0.074262 0.975118
vt 0.126580 0.901025
vt 0.128083 0.975068
vt 0.126584 0.975118
vt 0.128080 0.900975
vt 0.075830 0.901025
vt 0.132100 0.901025
vt 0.133600 0.900976
vt 0.133604 0.975068
vt 0.132104 0.975118
vt 0.097514 0.901025
vt 0.099096 0.901025
vt 0.099076 0.975068
vt 0.097528 0.975118
vt 0.953912 0.250897
vt 0.904324 0.247917
vt 0.953912 0.247915
vt 0.904322 0.250899
vt 0.904487 0.135218
vt 0.955061 0.143974
vt 0.904519 0.144004
vt 0.972622 0.832108
vt 0.981495 0.832119
vt 0.981463 0.834680
vt 0.972509 0.869023
vt 0.980937 0.871878
vt 0.972509 0.871816
vt 0.955029 0.135188
vt 0.980963 0.868951
vt 0.904487 0.199937
vt 0.955029 0.199907
vt 0.955061 0.208693
vt 0.904311 0.233873
vt 0.954677 0.236853
vt 0.904313 0.236855
vt 0.954676 0.233871
vt 0.972591 0.834668
vt 0.904519 0.208723
vt 0.846872 0.702707
vt 0.893166 0.779591
vt 0.846882 0.779672
vt 0.893157 0.702626
vt 0.872994 0.083157
vt 0.878474 0.083161
vt 0.878452 0.160015
vt 0.904496 0.288198
vt 0.951652 0.293642
vt 0.904526 0.293668
vt 0.904497 0.326532
vt 0.951622 0.326506
vt 0.951652 0.331975
vt 0.029912 0.901118
vt 0.035117 0.977798
vt 0.029912 0.977617
vt 0.872972 0.160011
vt 0.904527 0.332001
vt 0.951622 0.288172
vt 0.060412 0.816676
vt 0.107421 0.816643
vt 0.107430 0.893610
vt 0.035142 0.900943
vt 0.060422 0.893643
vt 0.376196 0.901036
vt 0.417416 0.972446
vt 0.376200 0.972556
vt 0.558063 0.901002
vt 0.599891 0.972449
vt 0.558076 0.972509
vt 0.599877 0.900941
vt 0.417393 0.900940
vt 0.103331 0.901025
vt 0.104913 0.901025
vt 0.104892 0.975068
vt 0.165222 0.901025
vt 0.166722 0.900975
vt 0.166726 0.975068
vt 0.165226 0.975117
vt 0.103345 0.975118
vt 0.159702 0.901025
vt 0.161205 0.975068
vt 0.159706 0.975118
vt 0.161201 0.900976
vt 0.109147 0.901025
vt 0.110730 0.901025
vt 0.110709 0.975068
vt 0.109161 0.975117
vt 0.062614 0.901025
vt 0.064197 0.901025
vt 0.064176 0.975068
vt 0.181783 0.901025
vt 0.183283 0.900975
vt 0.183287 0.975068
vt 0.181787 0.975117
vt 0.062628 0.975118
vt 0.904487 0.122274
vt 0.955061 0.131030
vt 0.904519 0.131060
vt 0.953912 0.257919
vt 0.904322 0.257921
vt 0.904324 0.254939
vt 0.972622 0.825315
vt 0.981495 0.825327
vt 0.981463 0.827887
vt 0.953912 0.254937
vt 0.904312 0.212808
vt 0.954677 0.215788
vt 0.904313 0.215790
vt 0.954676 0.212806
vt 0.972590 0.827875
vt 0.904487 0.174050
vt 0.955061 0.182805
vt 0.904519 0.182835
vt 0.955029 0.174020
vt 0.972509 0.876045
vt 0.980937 0.878900
vt 0.972509 0.878837
vt 0.980963 0.875973
vt 0.955029 0.122244
vt 0.904496 0.297781
vt 0.951652 0.303225
vt 0.904526 0.303251
vt 0.951622 0.297756
vt 0.181146 0.811959
vt 0.227432 0.811878
vt 0.227440 0.888844
vt 0.002001 0.901118
vt 0.007230 0.900943
vt 0.007205 0.977798
vt 0.002000 0.977617
vt 0.904497 0.336115
vt 0.951652 0.341559
vt 0.904527 0.341585
vt 0.853174 0.002062
vt 0.900183 0.002029
vt 0.900192 0.078996
vt 0.853183 0.079029
vt 0.874225 0.409734
vt 0.879682 0.486592
vt 0.874203 0.486588
vt 0.951622 0.336089
vt 0.181156 0.888925
vt 0.879704 0.409738
vt 0.512733 0.901036
vt 0.553952 0.972446
vt 0.512737 0.972556
vt 0.553930 0.900941
vt 0.695806 0.901002
vt 0.737621 0.900941
vt 0.737635 0.972449
vt 0.695820 0.972509
vt 0.187303 0.901025
vt 0.188807 0.975068
vt 0.187307 0.975117
vt 0.188803 0.900975
vt 0.114964 0.901025
vt 0.116525 0.975068
vt 0.114978 0.975118
vt 0.116546 0.901025
vt 0.068431 0.901025
vt 0.070014 0.901025
vt 0.069993 0.975068
vt 0.148661 0.901025
vt 0.150165 0.975068
vt 0.148665 0.975118
vt 0.068445 0.975118
vt 0.150161 0.900975
vt 0.120780 0.901025
vt 0.122342 0.975068
vt 0.120794 0.975118
vt 0.143141 0.901025
vt 0.144641 0.900975
vt 0.144644 0.975068
vt 0.143145 0.975118
vt 0.122363 0.901025
vt 0.904487 0.148162
vt 0.955061 0.156918
vt 0.904519 0.156948
vt 0.953912 0.264940
vt 0.904322 0.264942
vt 0.904324 0.261961
vt 0.972509 0.883067
vt 0.980937 0.885922
vt 0.972509 0.885859
vt 0.955029 0.148132
vt 0.980963 0.882994
vt 0.904487 0.186993
vt 0.955029 0.186963
vt 0.955061 0.195749
vt 0.953912 0.261959
vt 0.904311 0.226852
vt 0.954677 0.229831
vt 0.904313 0.229833
vt 0.954676 0.226850
vt 0.904519 0.195779
vt 0.972622 0.845693
vt 0.981463 0.848265
vt 0.972591 0.848253
vt 0.981495 0.845704
vt 0.835676 0.811888
vt 0.894776 0.896364
vt 0.835648 0.896456
vt 0.894770 0.811819
vt 0.844183 0.409653
vt 0.849229 0.409661
vt 0.849179 0.494049
vt 0.895012 0.901005
vt 0.890192 0.961185
vt 0.890192 0.900916
vt 0.904369 0.095372
vt 0.964638 0.095372
vt 0.964621 0.100103
vt 0.841615 0.593866
vt 0.846386 0.678280
vt 0.841614 0.678297
vt 0.904460 0.100236
vt 0.117100 0.812081
vt 0.177052 0.812063
vt 0.177055 0.896610
vt 0.117102 0.896628
vt 0.844134 0.494042
vt 0.894923 0.961201
vt 0.846444 0.593891
vt 0.002016 0.816847
vt 0.056312 0.895705
vt 0.002019 0.895724
vt 0.056309 0.816828
vt 0.622838 0.814942
vt 0.676359 0.814878
vt 0.676364 0.893755
vt 0.622811 0.893842
vt 0.858779 0.409822
vt 0.860099 0.409773
vt 0.860101 0.488771
vt 0.858781 0.488820
vt 0.853112 0.083245
vt 0.854499 0.162194
vt 0.853124 0.162243
vt 0.854516 0.083243
vt 0.972727 0.580119
vt 0.987402 0.577826
vt 0.987374 0.580149
vt 0.972756 0.577803
vt 0.972727 0.560675
vt 0.987402 0.558325
vt 0.987373 0.560702
vt 0.972756 0.558298
vt 0.972727 0.573655
vt 0.987402 0.571361
vt 0.987374 0.573684
vt 0.972727 0.567200
vt 0.972756 0.564823
vt 0.987402 0.564850
vt 0.987373 0.567226
vt 0.972756 0.571338
vt 0.738243 0.300813
vt 0.720521 0.589402
vt 0.720499 0.300810
vt 0.784356 0.584718
vt 0.784165 0.300627
vt 0.799472 0.300628
vt 0.972510 0.208928
vt 0.989763 0.224371
vt 0.972509 0.224274
vt 0.738265 0.589405
vt 0.989784 0.208863
vt 0.972607 0.169110
vt 0.990344 0.169097
vt 0.990344 0.184443
vt 0.799864 0.584719
vt 0.972697 0.184436
vt 0.780165 0.300627
vt 0.780165 0.589031
vt 0.764680 0.589031
vt 0.760373 0.300813
vt 0.742732 0.589401
vt 0.742735 0.300755
vt 0.764697 0.300627
vt 0.760395 0.589404
vt 0.819556 0.280584
vt 0.821703 0.002000
vt 0.821936 0.280629
vt 0.819239 0.002000
vt 0.806735 0.300720
vt 0.806725 0.583872
vt 0.804272 0.583787
vt 0.804238 0.300759
vt 0.715168 0.594526
vt 0.715177 0.716676
vt 0.709534 0.716678
vt 0.834882 0.249102
vt 0.834817 0.128762
vt 0.849089 0.128777
vt 0.849000 0.249143
vt 0.972611 0.627751
vt 0.986731 0.622491
vt 0.986762 0.627932
vt 0.972641 0.618370
vt 0.972610 0.612791
vt 0.986731 0.612807
vt 0.709525 0.594527
vt 0.986762 0.618385
vt 0.849024 0.002240
vt 0.834882 0.124522
vt 0.834905 0.002214
vt 0.849001 0.124548
vt 0.697248 0.594225
vt 0.691614 0.716378
vt 0.691605 0.594227
vt 0.697257 0.716376
vt 0.972610 0.622473
vt 0.833626 0.300853
vt 0.829571 0.573566
vt 0.829572 0.300954
vt 0.657830 0.804073
vt 0.658108 0.584418
vt 0.662084 0.584145
vt 0.834201 0.572988
vt 0.458515 0.583823
vt 0.640232 0.804080
vt 0.640231 0.584424
vt 0.653568 0.584146
vt 0.705518 0.594200
vt 0.701264 0.808936
vt 0.701264 0.594201
vt 0.238633 0.584040
vt 0.972770 0.663148
vt 0.986079 0.657558
vt 0.985786 0.663081
vt 0.705518 0.808663
vt 0.825108 0.300833
vt 0.820760 0.577784
vt 0.821039 0.300910
vt 0.662084 0.804079
vt 0.238580 0.306671
vt 0.238859 0.306949
vt 0.986107 0.646912
vt 0.985829 0.652956
vt 0.985495 0.653234
vt 0.972509 0.653234
vt 0.972509 0.647469
vt 0.238301 0.300627
vt 0.458794 0.306950
vt 0.691919 0.589588
vt 0.705518 0.589643
vt 0.705239 0.589921
vt 0.605035 0.589761
vt 0.618299 0.590039
vt 0.605369 0.810251
vt 0.605314 0.590039
vt 0.618422 0.584258
vt 0.618633 0.810531
vt 0.618355 0.810251
vt 0.691919 0.301239
vt 0.705490 0.300961
vt 0.972846 0.744921
vt 0.985829 0.739027
vt 0.985829 0.744916
vt 0.605246 0.816031
vt 0.618355 0.816141
vt 0.784041 0.286410
vt 0.797641 0.286430
vt 0.797361 0.286753
vt 0.679126 0.584380
vt 0.679753 0.798981
vt 0.666345 0.799152
vt 0.228087 0.306798
vt 0.008322 0.306753
vt 0.666362 0.798880
vt 0.666084 0.584145
vt 0.972513 0.735022
vt 0.972509 0.729223
vt 0.985493 0.729223
vt 0.227979 0.584019
vt 0.972509 0.657234
vt 0.635953 0.804907
vt 0.622810 0.810634
vt 0.635953 0.810657
vt 0.636231 0.805119
vt 0.636231 0.589899
vt 0.784045 0.002451
vt 0.797307 0.002239
vt 0.797641 0.002514
vt 0.636231 0.590099
vt 0.002205 0.589588
vt 0.635895 0.584145
vt 0.622912 0.589781
vt 0.622912 0.584152
vt 0.801920 0.286173
vt 0.801647 0.002000
vt 0.814687 0.002001
vt 0.814917 0.286199
vt 0.605314 0.584150
vt 0.769872 0.002086
vt 0.756705 0.290788
vt 0.756722 0.002165
vt 0.769828 0.290899
vt 0.904491 0.537129
vt 0.936146 0.537125
vt 0.936172 0.553738
vt 0.935381 0.602778
vt 0.904331 0.578507
vt 0.935431 0.578566
vt 0.904311 0.602860
vt 0.904277 0.926011
vt 0.928196 0.909849
vt 0.928193 0.926011
vt 0.904507 0.467447
vt 0.936153 0.491661
vt 0.904485 0.491660
vt 0.936175 0.467448
vt 0.904280 0.909849
vt 0.904490 0.495846
vt 0.936146 0.495842
vt 0.936172 0.512456
vt 0.904516 0.512460
vt 0.904277 0.885295
vt 0.904277 0.868741
vt 0.928193 0.868741
vt 0.928193 0.885295
vt 0.904517 0.553742
vt 0.989156 0.239140
vt 0.986972 0.243100
vt 0.983301 0.245168
vt 0.978895 0.245179
vt 0.974808 0.243057
vt 0.972579 0.239176
vt 0.972559 0.234692
vt 0.974808 0.230814
vt 0.978696 0.228580
vt 0.983289 0.228779
vt 0.987099 0.230992
vt 0.989250 0.234624
vt 0.989129 0.280498
vt 0.972710 0.275435
vt 0.975081 0.271706
vt 0.972582 0.279851
vt 0.983625 0.270019
vt 0.987354 0.272360
vt 0.979229 0.269823
vt 0.974678 0.283771
vt 0.978490 0.286134
vt 0.983096 0.286169
vt 0.986814 0.284323
vt 0.989154 0.275724
vt 0.972788 0.394107
vt 0.988234 0.394434
vt 0.972641 0.394676
vt 0.972677 0.369496
vt 0.988143 0.369803
vt 0.972693 0.370053
vt 0.972707 0.504045
vt 0.987904 0.504116
vt 0.987904 0.504503
vt 0.972636 0.504518
vt 0.972509 0.461579
vt 0.987817 0.462146
vt 0.972509 0.462062
vt 0.987986 0.461579
vt 0.972510 0.452488
vt 0.987986 0.452247
vt 0.987817 0.452814
vt 0.972707 0.508990
vt 0.987904 0.509254
vt 0.972636 0.509462
vt 0.972677 0.339830
vt 0.988234 0.340046
vt 0.972693 0.340388
vt 0.972788 0.354552
vt 0.988235 0.354879
vt 0.972641 0.355122
vt 0.972707 0.513934
vt 0.987904 0.514198
vt 0.972636 0.514406
vt 0.972510 0.471152
vt 0.987986 0.470911
vt 0.987817 0.471478
vt 0.972509 0.485150
vt 0.987986 0.484909
vt 0.987817 0.485476
vt 0.972707 0.538655
vt 0.987904 0.538919
vt 0.972636 0.539128
vt 0.972749 0.684807
vt 0.972726 0.681779
vt 0.985869 0.681764
vt 0.985893 0.684795
vt 0.972747 0.677622
vt 0.985871 0.674531
vt 0.985891 0.677608
vt 0.972727 0.674545
vt 0.972764 0.091491
vt 0.994109 0.091453
vt 0.994109 0.094014
vt 0.401946 0.982012
vt 0.399656 0.984635
vt 0.399457 0.981969
vt 0.994160 0.029244
vt 0.972766 0.032136
vt 0.972728 0.029280
vt 0.401781 0.984635
vt 0.972509 0.124256
vt 0.993361 0.126778
vt 0.972510 0.126816
vt 0.972766 0.053202
vt 0.972729 0.050346
vt 0.994161 0.050310
vt 0.994198 0.053166
vt 0.972728 0.093953
vt 0.466572 0.981897
vt 0.464446 0.984327
vt 0.464446 0.981897
vt 0.466572 0.984327
vt 0.993405 0.124317
vt 0.994198 0.032100
vt 0.408590 0.982012
vt 0.406300 0.984635
vt 0.406101 0.981969
vt 0.408425 0.984635
vt 0.972764 0.084931
vt 0.994109 0.084893
vt 0.994109 0.087453
vt 0.994160 0.036266
vt 0.972766 0.039158
vt 0.972728 0.036302
vt 0.972509 0.117695
vt 0.993361 0.120218
vt 0.972510 0.120256
vt 0.972766 0.025114
vt 0.972729 0.022259
vt 0.994161 0.022222
vt 0.472698 0.981897
vt 0.470572 0.984327
vt 0.470572 0.981897
vt 0.472698 0.984327
vt 0.972728 0.087392
vt 0.994198 0.025078
vt 0.993405 0.117756
vt 0.994198 0.039122
vt 0.904277 0.905849
vt 0.904277 0.889295
vt 0.928193 0.889295
vt 0.904491 0.557770
vt 0.936172 0.574380
vt 0.904517 0.574384
vt 0.928193 0.905849
vt 0.935381 0.631329
vt 0.904331 0.607059
vt 0.935431 0.607117
vt 0.936146 0.557766
vt 0.904277 0.946174
vt 0.904280 0.930011
vt 0.928196 0.930011
vt 0.904507 0.438895
vt 0.936153 0.463109
vt 0.904485 0.463108
vt 0.904490 0.516488
vt 0.936145 0.516484
vt 0.936171 0.533097
vt 0.936175 0.438896
vt 0.928193 0.946174
vt 0.904516 0.533101
vt 0.904311 0.631411
vt 0.989156 0.259783
vt 0.983301 0.265811
vt 0.978895 0.265823
vt 0.986972 0.263743
vt 0.974808 0.263701
vt 0.972579 0.259820
vt 0.974808 0.251457
vt 0.978696 0.249223
vt 0.972559 0.255336
vt 0.987099 0.251635
vt 0.989250 0.255268
vt 0.983289 0.249422
vt 0.989129 0.300844
vt 0.972710 0.295781
vt 0.975081 0.292052
vt 0.979229 0.290169
vt 0.983096 0.306515
vt 0.978490 0.306480
vt 0.986814 0.304669
vt 0.987354 0.292706
vt 0.989154 0.296070
vt 0.983625 0.290365
vt 0.972582 0.300197
vt 0.974678 0.304117
vt 0.972677 0.324997
vt 0.988234 0.325214
vt 0.972693 0.325555
vt 0.972605 0.399234
vt 0.988235 0.399378
vt 0.972641 0.399621
vt 0.972707 0.523823
vt 0.987904 0.524280
vt 0.972636 0.524295
vt 0.987904 0.523893
vt 0.972509 0.480243
vt 0.987997 0.480630
vt 0.972509 0.480726
vt 0.987986 0.480243
vt 0.972707 0.548544
vt 0.987904 0.548808
vt 0.972636 0.549016
vt 0.972509 0.489816
vt 0.987986 0.489575
vt 0.987997 0.489962
vt 0.972677 0.409050
vt 0.988142 0.409358
vt 0.972693 0.409608
vt 0.972788 0.413884
vt 0.988234 0.414211
vt 0.972641 0.414453
vt 0.972707 0.528767
vt 0.987904 0.529032
vt 0.972636 0.529239
vt 0.972510 0.457154
vt 0.987986 0.456913
vt 0.987997 0.457301
vt 0.972509 0.494482
vt 0.987986 0.494241
vt 0.987997 0.494628
vt 0.972707 0.553488
vt 0.987904 0.553753
vt 0.972636 0.553961
vt 0.972747 0.670395
vt 0.985871 0.667303
vt 0.985891 0.670380
vt 0.972727 0.667317
vt 0.972750 0.691986
vt 0.985869 0.688942
vt 0.985893 0.691973
vt 0.972726 0.688957
vt 0.972766 0.074267
vt 0.972729 0.071412
vt 0.994161 0.071375
vt 0.395302 0.982012
vt 0.393012 0.984635
vt 0.392813 0.981969
vt 0.395137 0.984635
vt 0.972509 0.104574
vt 0.993361 0.107097
vt 0.972510 0.107135
vt 0.972764 0.078370
vt 0.994109 0.078332
vt 0.994109 0.080893
vt 0.994160 0.043288
vt 0.972766 0.046180
vt 0.972728 0.043324
vt 0.478823 0.981897
vt 0.476698 0.984327
vt 0.476698 0.981897
vt 0.478823 0.984327
vt 0.972728 0.080832
vt 0.994198 0.074231
vt 0.993405 0.104635
vt 0.994198 0.046144
vt 0.415234 0.982012
vt 0.412944 0.984635
vt 0.412745 0.981969
vt 0.972509 0.111135
vt 0.993361 0.113657
vt 0.972510 0.113695
vt 0.972766 0.067245
vt 0.972729 0.064390
vt 0.994161 0.064353
vt 0.415069 0.984635
vt 0.972764 0.098052
vt 0.994109 0.098014
vt 0.994109 0.100574
vt 0.994160 0.057332
vt 0.972766 0.060224
vt 0.972728 0.057368
vt 0.994198 0.067209
vt 0.460446 0.981897
vt 0.458321 0.984328
vt 0.458321 0.981897
vt 0.460446 0.984328
vt 0.972728 0.100513
vt 0.994198 0.060187
vt 0.993405 0.111196
vt 0.181191 0.985582
vt 0.180002 0.983895
vt 0.181803 0.982031
vt 0.931237 0.805864
vt 0.931421 0.807802
vt 0.904567 0.807861
vt 0.931352 0.819450
vt 0.904368 0.820688
vt 0.904476 0.818771
vt 0.931382 0.832747
vt 0.931273 0.834517
vt 0.904373 0.833942
vt 0.183506 0.982951
vt 0.183065 0.985095
vt 0.931195 0.845208
vt 0.904556 0.846623
vt 0.904404 0.845129
vt 0.931346 0.846737
vt 0.931195 0.821325
vt 0.196264 0.982050
vt 0.196130 0.985576
vt 0.195071 0.983808
vt 0.904549 0.805990
vt 0.198198 0.985053
vt 0.931197 0.857157
vt 0.904463 0.858495
vt 0.904376 0.857034
vt 0.931194 0.858625
vt 0.904556 0.832112
vt 0.198085 0.982492
vt 0.188728 0.985582
vt 0.191042 0.982951
vt 0.190602 0.985095
vt 0.187539 0.983895
vt 0.189340 0.982031
vt 0.931195 0.851162
vt 0.904556 0.852577
vt 0.904404 0.851084
vt 0.931346 0.852691
vt 0.931352 0.826237
vt 0.931195 0.828112
vt 0.904369 0.827475
vt 0.931382 0.839170
vt 0.931273 0.840940
vt 0.904373 0.840365
vt 0.931197 0.863095
vt 0.904463 0.864433
vt 0.904376 0.862971
vt 0.931194 0.864563
vt 0.203800 0.982050
vt 0.205622 0.982492
vt 0.205734 0.985053
vt 0.203666 0.985576
vt 0.202607 0.983808
vt 0.904556 0.838535
vt 0.931238 0.812540
vt 0.904567 0.814538
vt 0.904549 0.812666
vt 0.931421 0.814479
vt 0.904476 0.825558
vt 0.904498 0.071271
vt 0.904528 0.054910
vt 0.968271 0.054924
vt 0.904550 0.050763
vt 0.968234 0.028719
vt 0.968288 0.050757
vt 0.904502 0.028738
vt 0.904277 0.958929
vt 0.926314 0.975087
vt 0.904277 0.975087
vt 0.968240 0.071286
vt 0.972509 0.002000
vt 0.994546 0.018158
vt 0.972509 0.018158
vt 0.994546 0.002000
vt 0.904529 0.024552
vt 0.968238 0.002111
vt 0.968268 0.024536
vt 0.904499 0.002128
vt 0.904498 0.091304
vt 0.904531 0.075335
vt 0.968274 0.075343
vt 0.926314 0.958929
vt 0.968240 0.091324
vt 0.904457 0.420747
vt 0.904375 0.404110
vt 0.939619 0.404082
vt 0.904441 0.399940
vt 0.904377 0.383034
vt 0.939621 0.383015
vt 0.939685 0.399921
vt 0.939700 0.420738
vt 0.972725 0.966943
vt 0.977577 0.964511
vt 0.977600 0.966938
vt 0.972711 0.964519
vt 0.972724 0.932984
vt 0.977582 0.930423
vt 0.977599 0.932974
vt 0.972708 0.930432
vt 0.022013 0.982112
vt 0.024436 0.982099
vt 0.024444 0.986965
vt 0.022018 0.986987
vt 0.972724 0.926151
vt 0.977583 0.923590
vt 0.977599 0.926142
vt 0.972708 0.923599
vt 0.041891 0.982112
vt 0.044323 0.986965
vt 0.041897 0.986987
vt 0.044315 0.982099
vt 0.972724 0.946650
vt 0.977582 0.944089
vt 0.977599 0.946640
vt 0.972708 0.944098
vt 0.972725 0.973569
vt 0.972711 0.971146
vt 0.977577 0.971138
vt 0.977600 0.973564
vt 0.972724 0.939817
vt 0.977582 0.937256
vt 0.977599 0.939808
vt 0.972708 0.937266
vt 0.002135 0.982112
vt 0.004566 0.986965
vt 0.002140 0.986987
vt 0.004558 0.982099
vt 0.972724 0.953482
vt 0.977582 0.950921
vt 0.977599 0.953472
vt 0.972708 0.950931
vt 0.008761 0.982112
vt 0.011192 0.986965
vt 0.008766 0.986987
vt 0.011184 0.982099
vt 0.972724 0.960315
vt 0.972708 0.957764
vt 0.977582 0.957755
vt 0.977599 0.960306
vt 0.972724 0.905652
vt 0.972708 0.903100
vt 0.977583 0.903091
vt 0.977599 0.905643
vt 0.028639 0.982112
vt 0.031071 0.986965
vt 0.028645 0.986987
vt 0.031063 0.982099
vt 0.035265 0.982112
vt 0.037697 0.986965
vt 0.035271 0.986987
vt 0.037689 0.982099
vt 0.972724 0.912485
vt 0.977583 0.909924
vt 0.977599 0.912475
vt 0.972708 0.909933
vt 0.015387 0.982112
vt 0.017818 0.986965
vt 0.015392 0.986987
vt 0.017810 0.982099
vt 0.972724 0.919318
vt 0.972708 0.916767
vt 0.977583 0.916757
vt 0.977599 0.919308
vt 0.904533 0.693059
vt 0.935032 0.666721
vt 0.935083 0.693072
vt 0.904277 0.736561
vt 0.934733 0.719171
vt 0.934680 0.736538
vt 0.904277 0.783485
vt 0.930832 0.783485
vt 0.930832 0.801185
vt 0.904457 0.666734
vt 0.904477 0.714985
vt 0.904519 0.697257
vt 0.935051 0.697260
vt 0.904277 0.801185
vt 0.935009 0.714988
vt 0.904506 0.662513
vt 0.935021 0.635682
vt 0.935056 0.662518
vt 0.904277 0.761764
vt 0.931068 0.761749
vt 0.931028 0.779477
vt 0.904280 0.719238
vt 0.904471 0.635676
vt 0.904277 0.779464
vt 0.972743 0.773672
vt 0.985497 0.777115
vt 0.972725 0.777104
vt 0.985515 0.773684
vt 0.984977 0.799267
vt 0.972513 0.795756
vt 0.984999 0.795836
vt 0.972509 0.799336
vt 0.711131 0.825480
vt 0.709577 0.825650
vt 0.709518 0.720985
vt 0.710976 0.720981
vt 0.244198 0.983937
vt 0.245373 0.982032
vt 0.246464 0.984004
vt 0.836889 0.807328
vt 0.835759 0.702878
vt 0.836968 0.702727
vt 0.835646 0.807479
vt 0.839746 0.514365
vt 0.838560 0.514363
vt 0.838690 0.409821
vt 0.259578 0.982292
vt 0.260100 0.984468
vt 0.257824 0.983856
vt 0.839870 0.409734
vt 0.837084 0.698364
vt 0.835529 0.698534
vt 0.835470 0.593869
vt 0.836928 0.593865
vt 0.251037 0.983937
vt 0.252212 0.982032
vt 0.253302 0.984004
vt 0.839801 0.405357
vt 0.838671 0.300906
vt 0.839880 0.300755
vt 0.838558 0.405507
vt 0.842504 0.807329
vt 0.841447 0.702785
vt 0.842627 0.702697
vt 0.841317 0.807327
vt 0.266353 0.982319
vt 0.266773 0.984537
vt 0.264662 0.983856
vt 0.865044 0.900956
vt 0.869364 0.968715
vt 0.865015 0.968694
vt 0.904502 0.744948
vt 0.934234 0.744920
vt 0.934270 0.749248
vt 0.831133 0.900948
vt 0.860803 0.900895
vt 0.860827 0.968725
vt 0.869392 0.900977
vt 0.904538 0.749276
vt 0.831157 0.968779
vt 0.904502 0.753378
vt 0.934271 0.757678
vt 0.904538 0.757706
vt 0.873470 0.901119
vt 0.877564 0.968716
vt 0.873470 0.968552
vt 0.877595 0.900978
vt 0.797671 0.900977
vt 0.826884 0.900893
vt 0.826908 0.968722
vt 0.797694 0.968806
vt 0.934235 0.753350
vt 0.972646 0.763436
vt 0.985597 0.769583
vt 0.972615 0.769589
vt 0.985628 0.763430
vt 0.972509 0.194631
vt 0.972509 0.188443
vt 0.990729 0.188443
vt 0.990729 0.194631
vt 0.972748 0.160695
vt 0.991176 0.148079
vt 0.991211 0.160696
vt 0.972698 0.148093
vt 0.972645 0.753248
vt 0.985597 0.759396
vt 0.972615 0.759402
vt 0.985628 0.753243
vt 0.972736 0.143879
vt 0.972706 0.130978
vt 0.991169 0.130974
vt 0.972509 0.204672
vt 0.972510 0.198631
vt 0.990730 0.198631
vt 0.990728 0.204672
vt 0.991199 0.143875
vt 0.736606 0.982455
vt 0.732120 0.982168
vt 0.749382 0.981898
vt 0.728120 0.982500
vt 0.234059 0.301048
vt 0.826261 0.002000
vt 0.238580 0.589587
vt 0.829571 0.300680
vt 0.820760 0.300632
vt 0.986081 0.663235
vt 0.830817 0.002000
vt 0.008322 0.306671
vt 0.780040 0.002282
vt 0.175983 0.986456
vt 0.985830 0.781184
vt 0.666641 0.799185
vt 0.972623 0.898670
vt 0.978850 0.894366
vt 0.986116 0.716022
vt 0.458794 0.584102
vt 0.653830 0.804359
vt 0.653551 0.584424
vt 0.705517 0.300961
vt 0.692253 0.589921
vt 0.985499 0.735027
vt 0.985832 0.734698
vt 0.972843 0.739027
vt 0.972510 0.739361
vt 0.784375 0.286739
vt 0.784322 0.002226
vt 0.622634 0.589962
vt 0.636204 0.589899
s 1
usemtl shop_001_baked
f 1/1/1 2/2/1 3/3/1
f 1/1/1 3/3/1 4/4/1
f 195/5/2 197/6/2 194/7/2
f 201/8/3 203/9/3 204/10/3
f 208/11/4 210/12/4 207/13/4
f 211/14/5 213/15/5 214/16/5
f 216/17/6 218/18/6 219/19/6
f 220/20/7 222/21/7 223/22/7
f 229/23/8 230/24/8 231/25/8
f 232/26/9 234/27/9 235/28/9
f 236/29/10 238/30/11 239/31/12
f 242/32/13 244/33/13 245/34/13
f 250/35/14 251/36/14 249/37/14
f 253/38/15 255/39/15 252/40/15
f 241/41/16 239/42/12 240/43/17
f 219/44/18 204/45/18 216/46/18
f 198/47/19 205/48/20 206/49/21
f 220/20/22 207/13/22 210/12/22
f 252/50/23 203/51/23 202/52/23
f 229/23/24 232/53/24 235/54/24
f 232/53/25 242/32/25 233/55/25
f 193/56/26 199/57/27 200/58/28
f 223/59/29 197/60/29 196/61/29
f 244/33/30 224/62/30 245/34/30
f 211/63/31 208/11/31 207/13/31
f 237/64/32 194/65/32 238/30/32
f 226/66/33 235/54/33 234/53/33
f 212/67/34 255/68/35 254/69/36
f 251/36/37 247/70/38 229/23/39
f 205/71/40 195/72/40 206/73/40
f 225/74/41 220/75/41 224/76/41
f 241/77/42 234/78/42 233/79/42
f 213/80/43 217/81/43 214/82/43
f 230/24/44 228/83/44 231/25/44
f 237/84/15 253/38/15 252/40/15
f 239/31/45 210/12/46 209/85/47
f 199/86/48 218/87/48 200/88/48
f 242/32/49 250/35/49 249/37/49
f 227/89/50 201/90/50 228/91/50
f 243/92/51 246/93/52 244/33/53
f 10/94/54 5/95/55 9/96/56
f 10/94/54 7/97/57 5/95/55
f 9/98/56 5/99/55 6/100/58
f 5/101/55 7/102/57 12/103/59
f 5/101/55 12/103/59 6/104/58
f 9/98/56 6/100/58 11/105/60
f 11/106/60 6/107/58 12/108/59
f 7/109/57 8/110/61 12/111/59
f 7/109/57 10/112/54 8/110/61
f 10/113/54 11/114/60 8/115/61
f 11/106/60 12/108/59 8/116/61
f 10/113/54 9/117/56 11/114/60
f 18/118/62 13/119/63 19/120/64
f 17/121/65 20/122/66 13/123/63
f 17/121/65 13/123/63 18/124/62
f 20/125/66 19/126/64 13/127/63
f 14/128/67 15/129/68 19/130/64
f 14/128/67 16/131/69 15/129/68
f 20/125/66 14/132/67 19/126/64
f 16/133/69 14/134/67 20/135/66
f 16/136/69 18/137/62 15/138/68
f 18/118/62 19/120/64 15/139/68
f 16/133/69 20/135/66 17/140/65
f 16/136/69 17/141/65 18/137/62
f 25/142/70 21/143/71 26/144/72
f 26/145/72 21/146/71 23/147/73
f 25/142/70 27/148/74 21/143/71
f 27/149/74 23/150/73 21/151/71
f 27/149/74 22/152/75 23/150/73
f 22/153/75 24/154/76 28/155/77
f 22/153/75 28/155/77 23/156/73
f 24/157/76 22/158/75 27/159/74
f 26/145/72 23/147/73 28/160/77
f 24/161/76 26/162/72 28/163/77
f 24/161/76 25/164/70 26/162/72
f 24/157/76 27/159/74 25/165/70
f 29/166/78 32/167/79 31/168/80
f 29/166/78 31/168/80 30/169/81
f 32/170/79 30/171/81 31/172/80
f 32/170/79 29/173/78 30/171/81
f 35/174/82 33/175/83 34/176/84
f 33/177/83 36/178/85 34/179/84
f 33/177/83 35/180/82 36/178/85
f 35/174/82 34/176/84 36/181/85
f 39/182/82 37/183/83 38/184/84
f 37/185/83 40/186/85 38/187/84
f 37/185/83 39/188/82 40/186/85
f 39/182/82 38/184/84 40/189/85
f 43/190/86 41/191/87 42/192/88
f 41/193/87 44/194/89 42/195/88
f 41/193/87 43/196/86 44/194/89
f 43/190/86 42/192/88 44/197/89
f 45/198/90 48/199/91 46/200/92
f 45/198/90 50/201/93 48/199/91
f 51/202/94 45/203/90 46/204/92
f 50/205/95 45/206/96 51/207/97
f 51/202/94 46/204/92 49/208/98
f 47/209/99 49/210/100 46/211/101
f 47/209/99 46/211/101 48/212/102
f 50/213/93 47/214/103 48/215/91
f 50/213/93 52/216/104 47/214/103
f 52/217/104 49/218/98 47/219/103
f 52/217/104 51/220/94 49/218/98
f 50/205/95 51/207/97 52/221/105
f 53/222/74 57/223/73 54/224/71
f 55/225/70 53/226/74 54/227/71
f 58/228/76 53/229/74 55/230/70
f 58/228/76 56/231/75 53/229/74
f 53/222/74 56/232/75 57/223/73
f 55/225/70 54/227/71 59/233/72
f 59/234/72 54/235/71 57/236/73
f 58/237/76 55/238/70 59/239/72
f 56/240/75 58/241/76 60/242/77
f 56/240/75 60/242/77 57/243/73
f 59/234/72 57/236/73 60/244/77
f 58/237/76 59/239/72 60/245/77
f 63/246/78 62/247/79 61/248/106
f 63/246/78 61/248/106 64/249/107
f 62/250/79 64/251/107 61/252/106
f 62/250/79 63/253/78 64/251/107
f 67/254/82 65/255/83 66/256/84
f 67/254/82 66/256/84 68/257/85
f 65/258/83 67/259/82 68/260/85
f 65/258/83 68/260/85 66/261/84
f 72/262/83 70/263/85 69/264/84
f 71/265/82 69/266/84 70/267/85
f 71/265/82 72/268/83 69/266/84
f 72/262/83 71/269/82 70/263/85
f 74/270/108 76/271/109 73/272/110
f 74/270/108 73/272/110 75/273/111
f 76/274/109 74/275/108 75/276/111
f 76/274/109 75/276/111 73/277/110
f 77/278/104 79/279/98 84/280/103
f 77/278/104 78/281/94 79/279/98
f 83/282/95 78/283/97 77/284/105
f 83/285/93 77/286/104 84/287/103
f 78/288/94 82/289/92 79/290/98
f 83/282/95 80/291/96 78/283/97
f 78/288/94 80/292/90 82/289/92
f 84/293/99 79/294/100 82/295/101
f 80/296/90 81/297/91 82/298/92
f 80/296/90 83/299/93 81/297/91
f 83/285/93 84/287/103 81/300/91
f 84/293/99 82/295/101 81/301/102
f 85/302/70 86/303/71 87/304/72
f 85/302/70 91/305/74 86/303/71
f 90/306/76 85/307/70 87/308/72
f 90/309/76 91/310/74 85/311/70
f 87/312/72 86/313/71 92/314/73
f 91/315/74 92/316/73 86/317/71
f 90/306/76 87/308/72 89/318/77
f 87/312/72 92/314/73 89/319/77
f 90/309/76 88/320/75 91/310/74
f 88/321/75 90/322/76 89/323/77
f 91/315/74 88/324/75 92/316/73
f 88/321/75 89/323/77 92/325/73
f 95/326/78 96/327/80 93/328/81
f 94/329/112 93/330/81 96/331/80
f 94/329/112 95/332/78 93/330/81
f 95/326/78 94/333/112 96/327/80
f 100/334/83 97/335/82 99/336/85
f 97/337/82 100/338/83 98/339/84
f 97/337/82 98/339/84 99/340/85
f 100/334/83 99/336/85 98/341/84
f 103/342/82 104/343/84 101/344/85
f 103/342/82 102/345/83 104/343/84
f 102/346/83 103/347/82 101/348/85
f 102/346/83 101/348/85 104/349/84
f 106/350/83 105/351/82 108/352/85
f 105/353/82 106/354/83 107/355/84
f 105/353/82 107/355/84 108/356/85
f 106/350/83 108/352/85 107/357/84
f 115/358/95 113/359/97 109/360/105
f 109/361/104 113/362/94 116/363/98
f 115/364/93 109/365/104 111/366/103
f 109/361/104 116/363/98 111/367/103
f 114/368/90 110/369/91 112/370/92
f 114/368/90 115/371/93 110/369/91
f 115/364/93 111/366/103 110/372/91
f 111/373/99 112/374/101 110/375/102
f 111/373/99 116/376/100 112/374/101
f 113/377/94 112/378/92 116/379/98
f 113/377/94 114/380/90 112/378/92
f 115/358/95 114/381/96 113/359/97
f 122/382/76 117/383/74 121/384/70
f 122/382/76 119/385/75 117/383/74
f 121/386/70 117/387/74 124/388/71
f 117/389/74 119/390/75 120/391/73
f 117/389/74 120/391/73 124/392/71
f 123/393/72 120/394/73 118/395/77
f 119/396/75 122/397/76 118/398/77
f 119/396/75 118/398/77 120/399/73
f 122/400/76 123/401/72 118/402/77
f 123/393/72 124/403/71 120/394/73
f 121/386/70 124/388/71 123/404/72
f 122/400/76 121/405/70 123/401/72
f 125/406/113 126/407/106 128/408/107
f 125/406/113 127/409/112 126/407/106
f 127/410/112 125/411/113 128/412/107
f 127/410/112 128/412/107 126/413/106
f 130/414/114 131/415/115 129/416/116
f 130/414/114 132/417/117 131/415/115
f 132/418/117 129/419/116 131/420/115
f 132/418/117 130/421/114 129/419/116
f 135/422/83 133/423/82 134/424/85
f 133/425/82 136/426/84 134/427/85
f 135/422/83 134/424/85 136/428/84
f 133/425/82 135/429/83 136/426/84
f 140/430/83 139/431/85 137/432/84
f 138/433/82 140/434/83 137/435/84
f 138/433/82 137/435/84 139/436/85
f 140/430/83 138/437/82 139/431/85
f 145/438/95 141/439/97 146/440/105
f 146/441/104 141/442/94 142/443/98
f 141/444/94 144/445/92 142/446/98
f 145/438/95 143/447/96 141/439/97
f 141/444/94 143/448/90 144/445/92
f 147/449/99 142/450/100 144/451/101
f 146/441/104 142/443/98 147/452/103
f 143/453/90 148/454/91 144/455/92
f 143/453/90 145/456/93 148/454/91
f 147/449/99 144/451/101 148/457/102
f 145/458/93 147/459/103 148/460/91
f 145/458/93 146/461/104 147/459/103
f 149/462/118 150/463/119 153/464/120
f 149/462/118 156/465/121 150/463/119
f 152/466/122 149/467/118 153/468/120
f 152/469/122 156/470/121 149/471/118
f 153/472/120 150/473/119 155/474/123
f 156/475/121 155/476/123 150/477/119
f 153/472/120 155/474/123 151/478/124
f 154/479/125 152/480/122 151/481/124
f 154/479/125 151/481/124 155/482/123
f 152/466/122 153/468/120 151/483/124
f 152/469/122 154/484/125 156/470/121
f 156/475/121 154/485/125 155/476/123
f 157/486/126 158/487/127 159/488/128
f 157/486/126 160/489/129 158/487/127
f 160/490/129 157/491/126 159/492/128
f 160/490/129 159/492/128 158/493/127
f 164/494/130 161/495/131 162/496/132
f 164/494/130 162/496/132 163/497/133
f 161/498/131 163/499/133 162/500/132
f 161/498/131 164/501/130 163/499/133
f 167/502/134 168/503/135 165/504/136
f 167/502/134 166/505/137 168/503/135
f 166/506/137 165/507/136 168/508/135
f 166/506/137 167/509/134 165/507/136
f 171/510/134 170/511/135 169/512/138
f 172/513/137 171/514/134 169/515/138
f 172/513/137 169/515/138 170/516/135
f 171/510/134 172/517/137 170/511/135
f 175/518/139 173/519/140 174/520/141
f 174/521/141 173/522/140 178/523/142
f 173/524/140 180/525/143 178/526/142
f 175/518/139 177/527/144 173/519/140
f 173/524/140 177/528/144 180/525/143
f 175/529/139 174/530/141 179/531/145
f 174/521/141 178/523/142 179/532/145
f 175/529/139 179/531/145 176/533/146
f 177/534/144 175/535/139 176/536/146
f 179/537/145 180/538/143 176/539/146
f 177/534/144 176/536/146 180/540/143
f 179/537/145 178/541/142 180/538/143
f 183/542/147 181/543/148 182/544/149
f 183/542/147 184/545/150 181/543/148
f 184/546/150 183/547/147 182/548/149
f 184/546/150 182/548/149 181/549/148
f 186/550/151 185/551/152 192/552/153
f 189/553/154 190/554/155 185/555/156
f 189/553/154 185/555/156 186/556/157
f 190/557/158 192/558/153 185/559/152
f 188/560/159 189/561/160 186/562/151
f 186/550/151 192/552/153 187/563/161
f 188/560/159 186/562/151 187/564/161
f 191/565/162 187/566/163 192/567/164
f 191/565/162 188/568/165 187/566/163
f 188/569/159 190/570/158 189/571/160
f 188/569/159 191/572/166 190/570/158
f 190/557/158 191/573/166 192/558/153
f 193/574/167 196/575/168 222/576/169
f 199/577/27 193/578/26 221/579/170
f 200/58/171 206/49/172 193/56/167
f 193/574/167 206/580/172 196/575/168
f 195/581/173 237/64/173 252/50/173
f 227/582/174 226/583/175 197/584/176
f 205/585/20 203/586/177 195/587/178
f 195/581/179 202/52/179 201/588/179
f 195/581/173 252/50/173 203/51/173
f 226/589/180 238/590/180 194/591/180
f 200/58/171 198/47/181 206/49/172
f 205/585/20 198/592/19 203/586/177
f 198/593/181 219/594/182 204/595/183
f 198/593/181 200/88/171 219/594/182
f 199/577/27 221/579/170 218/596/184
f 201/588/185 219/597/185 218/598/185
f 202/599/186 255/600/186 253/601/186
f 230/602/186 228/603/186 202/599/186
f 207/13/173 218/598/173 214/604/173
f 207/13/187 221/605/187 218/598/187
f 210/606/188 242/607/188 244/608/188
f 245/609/189 208/610/189 250/611/189
f 244/612/190 209/613/190 208/610/190
f 250/611/5 214/614/5 213/615/5
f 210/606/186 238/616/186 234/617/186
f 215/618/191 213/619/192 217/620/193
f 248/621/194 213/615/195 212/622/34
f 251/623/196 211/624/196 213/625/196
f 248/621/197 250/611/197 213/615/197
f 225/626/198 215/627/199 216/628/200
f 249/37/201 215/629/199 225/630/198
f 216/628/184 218/631/184 221/632/184
f 244/633/1 224/634/1 220/635/1
f 249/37/202 225/630/202 245/34/202
f 227/636/174 235/54/203 226/66/175
f 226/589/204 234/637/204 238/590/204
f 227/636/174 231/25/205 235/54/203
f 230/638/206 254/639/206 253/38/206
f 230/638/207 247/640/38 254/639/36
f 231/641/208 253/38/209 232/642/210
f 229/643/211 253/644/211 255/645/211
f 233/646/212 232/642/212 237/84/212
f 243/92/213 233/55/213 240/647/213
f 241/648/16 236/649/10 239/650/12
f 246/651/52 240/652/214 239/653/45
f 243/92/51 240/647/214 246/93/52
f 246/651/52 239/653/45 209/654/47
f 244/612/215 246/655/52 209/613/47
f 247/656/38 212/657/34 254/658/36
f 247/656/38 248/659/194 212/657/34
f 261/660/216 256/661/217 262/662/218
f 260/663/219 256/664/217 261/665/216
f 260/663/219 258/666/220 256/664/217
f 258/667/220 262/668/218 256/669/217
f 257/670/221 263/671/222 262/672/218
f 257/670/221 259/673/223 263/671/222
f 258/667/220 257/674/221 262/668/218
f 259/675/223 257/676/221 258/677/220
f 259/675/223 258/677/220 260/678/219
f 259/679/223 260/680/219 261/681/216
f 259/679/223 261/681/216 263/682/222
f 261/660/216 262/662/218 263/683/222
f 267/684/224 275/685/225 264/686/226
f 267/684/224 264/686/226 265/687/227
f 267/684/224 265/687/227 274/688/228
f 267/684/224 274/688/228 266/689/229
f 267/684/224 266/689/229 269/690/230
f 267/684/224 269/690/230 273/691/231
f 267/684/224 272/692/232 271/693/233
f 267/684/224 273/691/231 272/692/232
f 267/684/224 270/694/234 268/695/235
f 267/684/224 271/693/233 270/694/234
f 268/696/235 266/697/229 274/698/228
f 268/696/235 269/699/230 266/697/229
f 268/696/235 264/700/226 275/701/225
f 268/696/235 265/702/227 264/700/226
f 268/696/235 273/703/231 269/699/230
f 268/696/235 272/704/232 273/703/231
f 268/696/235 274/698/228 265/702/227
f 268/696/235 271/705/233 272/704/232
f 268/696/235 270/706/234 271/705/233
f 268/696/235 275/701/225 267/707/224
f 278/708/236 277/709/236 276/710/236
f 276/711/236 277/712/236 278/713/236
f 282/714/237 279/715/238 280/716/239
f 282/714/237 280/716/239 281/717/240
f 279/718/238 281/719/240 280/720/239
f 279/718/238 282/721/237 281/719/240
f 283/722/236 284/723/236 285/724/236
f 284/725/236 283/726/236 285/727/236
f 287/728/236 288/729/236 286/730/236
f 286/731/236 288/732/236 287/733/236
f 289/734/184 290/735/184 291/736/184
f 290/737/184 289/738/184 291/739/184
f 294/740/178 292/741/178 293/742/178
f 292/743/178 294/744/178 293/745/178
f 295/746/241 296/747/242 298/748/243
f 295/746/241 298/748/243 297/749/244
f 296/750/242 297/751/244 298/752/243
f 296/750/242 295/753/241 297/751/244
f 306/754/245 299/755/246 301/756/247
f 299/757/246 300/758/248 301/759/247
f 306/760/245 304/761/249 299/762/246
f 299/757/246 304/763/249 300/758/248
f 304/764/249 303/765/250 300/766/248
f 301/767/247 300/768/248 303/769/250
f 301/767/247 303/769/250 302/770/251
f 306/754/245 301/756/247 302/771/251
f 305/772/252 302/773/251 303/774/250
f 305/772/252 306/775/245 302/773/251
f 304/764/249 305/776/252 303/765/250
f 306/760/245 305/777/252 304/761/249
f 307/778/246 308/779/248 311/780/253
f 307/778/246 314/781/249 308/779/248
f 312/782/245 307/783/246 311/784/253
f 312/785/245 314/786/249 307/787/246
f 314/788/249 310/789/250 308/790/248
f 311/791/253 308/792/248 310/793/250
f 313/794/252 309/795/251 310/796/250
f 313/794/252 312/797/245 309/795/251
f 312/782/245 311/784/253 309/798/251
f 311/791/253 310/793/250 309/799/251
f 314/788/249 313/800/252 310/789/250
f 312/785/245 313/801/252 314/786/249
f 319/802/223 321/803/219 315/804/216
f 315/805/216 318/806/218 317/807/222
f 319/802/223 315/804/216 317/808/222
f 321/809/219 322/810/217 315/811/216
f 315/805/216 322/812/217 318/806/218
f 320/813/220 316/814/221 318/815/218
f 316/816/221 317/817/222 318/818/218
f 319/819/223 316/820/221 320/821/220
f 316/816/221 319/822/223 317/817/222
f 320/813/220 318/815/218 322/823/217
f 319/819/223 320/821/220 321/824/219
f 321/809/219 320/825/220 322/810/217
f 333/826/224 332/827/226 331/828/227
f 333/826/224 334/829/225 332/827/226
f 333/826/224 324/830/228 330/831/229
f 333/826/224 331/828/227 324/830/228
f 333/826/224 329/832/231 327/833/232
f 333/826/224 328/834/230 329/832/231
f 333/826/224 323/835/234 325/836/235
f 333/826/224 326/837/233 323/835/234
f 333/826/224 330/831/229 328/834/230
f 333/826/224 327/833/232 326/837/233
f 325/838/235 330/839/229 324/840/228
f 325/838/235 324/840/228 331/841/227
f 325/838/235 326/842/233 327/843/232
f 325/838/235 323/844/234 326/842/233
f 325/838/235 334/845/225 333/846/224
f 325/838/235 332/847/226 334/845/225
f 325/838/235 328/848/230 330/839/229
f 325/838/235 329/849/231 328/848/230
f 325/838/235 331/841/227 332/847/226
f 325/838/235 327/843/232 329/849/231
f 337/850/236 336/851/236 335/852/236
f 335/853/236 336/854/236 337/855/236
f 338/856/254 340/857/239 339/858/240
f 338/856/254 341/859/238 340/857/239
f 341/860/238 339/861/240 340/862/239
f 341/860/238 338/863/254 339/861/240
f 342/864/255 343/865/256 344/866/255
f 343/867/256 342/868/255 344/869/255
f 347/870/236 345/871/236 346/872/236
f 346/873/236 345/874/236 347/875/236
f 348/876/178 349/877/178 350/878/178
f 349/879/178 348/880/178 350/881/178
f 352/882/257 353/883/258 351/884/258
f 353/885/258 352/886/257 351/887/258
f 354/888/242 355/889/244 356/890/243
f 354/888/242 357/891/241 355/889/244
f 357/892/241 356/893/243 355/894/244
f 357/892/241 354/895/242 356/893/243
f 363/896/253 358/897/248 365/898/250
f 359/899/246 358/900/248 363/901/253
f 359/899/246 364/902/249 358/900/248
f 364/903/249 365/904/250 358/905/248
f 362/906/245 359/907/246 363/908/253
f 362/909/245 364/910/249 359/911/246
f 361/912/252 360/913/251 365/914/250
f 361/912/252 362/915/245 360/913/251
f 362/906/245 363/908/253 360/916/251
f 363/896/253 365/898/250 360/917/251
f 364/903/249 361/918/252 365/904/250
f 362/909/245 361/919/252 364/910/249
f 367/920/246 366/921/248 372/922/253
f 371/923/249 373/924/250 366/925/248
f 372/926/253 366/927/248 373/928/250
f 367/920/246 371/929/249 366/921/248
f 369/930/245 367/931/246 372/932/253
f 369/933/245 371/934/249 367/935/246
f 372/926/253 373/928/250 368/936/251
f 370/937/252 368/938/251 373/939/250
f 370/937/252 369/940/245 368/938/251
f 369/930/245 372/932/253 368/941/251
f 369/933/245 370/942/252 371/934/249
f 371/923/249 370/943/252 373/924/250
f 376/944/259 374/945/260 381/946/261
f 381/947/261 374/948/260 377/949/262
f 374/950/260 378/951/263 377/952/262
f 375/953/264 379/954/265 380/955/266
f 376/944/259 379/956/265 375/957/264
f 376/944/259 381/946/261 379/956/265
f 376/958/259 383/959/267 378/960/263
f 376/958/259 375/961/264 383/959/267
f 374/950/260 376/962/259 378/951/263
f 383/963/267 377/964/262 378/965/263
f 381/947/261 377/949/262 382/966/268
f 383/963/267 382/967/268 377/964/262
f 379/968/265 382/969/268 380/970/266
f 379/968/265 381/971/261 382/969/268
f 375/953/264 380/955/266 383/972/267
f 383/963/267 380/973/266 382/967/268
f 384/974/259 385/975/265 386/976/264
f 384/974/259 392/977/260 390/978/261
f 384/974/259 390/978/261 385/975/265
f 384/979/259 387/980/267 393/981/263
f 384/979/259 386/982/264 387/980/267
f 392/983/260 384/984/259 393/985/263
f 386/986/264 385/987/265 389/988/266
f 385/989/265 388/990/268 389/991/266
f 385/989/265 390/992/261 388/990/268
f 387/993/267 389/994/266 388/995/268
f 387/993/267 391/996/262 393/997/263
f 387/993/267 388/995/268 391/996/262
f 386/986/264 389/988/266 387/998/267
f 390/999/261 391/1000/262 388/1001/268
f 390/999/261 392/1002/260 391/1000/262
f 392/983/260 393/985/263 391/1003/262
f 399/1004/269 394/1005/270 395/1006/271
f 394/1007/270 398/1008/272 395/1009/271
f 394/1007/270 397/1010/273 398/1008/272
f 399/1011/269 397/1012/273 394/1013/270
f 399/1004/269 395/1006/271 401/1014/274
f 395/1015/271 400/1016/275 401/1017/274
f 395/1015/271 398/1018/272 400/1016/275
f 396/1019/276 401/1020/274 400/1021/275
f 396/1019/276 399/1022/269 401/1020/274
f 397/1023/273 396/1024/276 400/1025/275
f 399/1011/269 396/1026/276 397/1012/273
f 397/1023/273 400/1025/275 398/1027/272
f 403/1028/277 402/1029/278 405/1030/279
f 402/1031/278 403/1032/277 404/1033/280
f 402/1031/278 404/1033/280 405/1034/279
f 403/1028/277 405/1030/279 404/1035/280
f 406/1036/281 409/1037/282 407/1038/283
f 406/1036/281 408/1039/284 409/1037/282
f 408/1040/284 407/1041/283 409/1042/282
f 408/1040/284 406/1043/281 407/1041/283
f 410/1044/285 411/1045/286 413/1046/282
f 410/1044/285 413/1046/282 412/1047/287
f 411/1048/286 412/1049/287 413/1050/282
f 411/1048/286 410/1051/285 412/1049/287
f 414/1052/281 415/1053/288 416/1054/289
f 414/1052/281 417/1055/286 415/1053/288
f 417/1056/286 416/1057/289 415/1058/288
f 417/1056/286 414/1059/281 416/1057/289
f 418/1060/290 419/1061/284 420/1062/288
f 418/1060/290 420/1062/288 421/1063/283
f 419/1064/284 421/1065/283 420/1066/288
f 419/1064/284 418/1067/290 421/1065/283
f 425/1068/290 422/1069/291 424/1070/283
f 425/1068/290 423/1071/284 422/1069/291
f 423/1072/284 424/1073/283 422/1074/291
f 423/1072/284 425/1075/290 424/1073/283
f 426/1076/292 429/1077/293 428/1078/287
f 426/1076/292 427/1079/284 429/1077/293
f 427/1080/284 426/1081/292 428/1082/287
f 427/1080/284 428/1082/287 429/1083/293
f 431/1084/284 430/1085/292 432/1086/287
f 431/1084/284 432/1086/287 433/1087/293
f 430/1088/292 433/1089/293 432/1090/287
f 430/1088/292 431/1091/284 433/1089/293
f 437/1092/294 434/1093/282 435/1094/287
f 437/1092/294 436/1095/286 434/1093/282
f 436/1096/286 435/1097/287 434/1098/282
f 436/1096/286 437/1099/294 435/1097/287
f 439/1100/292 438/1101/288 440/1102/289
f 439/1100/292 441/1103/295 438/1101/288
f 441/1104/295 439/1105/292 440/1106/289
f 441/1104/295 440/1106/289 438/1107/288
f 448/1108/296 442/1109/297 443/1110/298
f 447/1111/299 449/1112/300 442/1113/297
f 443/1114/298 442/1115/297 449/1116/300
f 448/1108/296 447/1117/299 442/1109/297
f 446/1118/301 448/1119/296 443/1120/298
f 443/1114/298 449/1116/300 445/1121/302
f 446/1118/301 443/1120/298 445/1122/302
f 444/1123/303 445/1124/302 449/1125/300
f 446/1126/301 444/1127/303 447/1128/299
f 447/1111/299 444/1129/303 449/1112/300
f 444/1123/303 446/1130/301 445/1124/302
f 446/1126/301 447/1128/299 448/1131/296
f 450/1132/304 451/1133/305 452/1134/306
f 450/1132/304 453/1135/307 451/1133/305
f 453/1136/307 452/1137/306 451/1138/305
f 453/1136/307 450/1139/304 452/1137/306
f 455/1140/308 454/1141/309 459/1142/310
f 455/1140/308 459/1142/310 458/1143/311
f 454/1144/309 455/1145/308 456/1146/312
f 454/1147/309 457/1148/313 459/1149/310
f 454/1147/309 456/1150/312 457/1148/313
f 456/1151/312 455/1152/308 458/1153/311
f 457/1154/313 458/1155/311 459/1156/310
f 456/1151/312 458/1153/311 457/1157/313
f 461/1158/308 460/1159/309 463/1160/310
f 461/1158/308 463/1160/310 465/1161/311
f 460/1162/309 461/1163/308 464/1164/312
f 460/1165/309 462/1166/314 463/1167/310
f 460/1165/309 464/1168/312 462/1166/314
f 464/1169/312 465/1170/311 462/1171/314
f 464/1169/312 461/1172/308 465/1170/311
f 462/1173/314 465/1174/311 463/1175/310
f 466/1176/315 471/1177/316 467/1178/317
f 466/1179/315 469/1180/318 468/1181/319
f 469/1182/318 466/1183/315 467/1184/317
f 466/1176/315 470/1185/320 471/1177/316
f 466/1179/315 468/1181/319 470/1186/320
f 469/1182/318 467/1184/317 473/1187/321
f 471/1188/316 473/1189/321 467/1190/317
f 468/1191/319 473/1192/321 472/1193/322
f 468/1191/319 469/1194/318 473/1192/321
f 470/1195/320 468/1196/319 472/1197/322
f 470/1195/320 472/1197/322 471/1198/316
f 471/1188/316 472/1199/322 473/1189/321
f 474/1200/323 480/1201/324 481/1202/325
f 474/1200/323 479/1203/326 480/1201/324
f 476/1204/327 475/1205/328 474/1206/323
f 476/1204/327 474/1206/323 481/1207/325
f 475/1208/328 479/1209/326 474/1210/323
f 475/1208/328 477/1211/329 479/1209/326
f 476/1212/327 477/1213/329 475/1214/328
f 476/1212/327 478/1215/330 477/1213/329
f 478/1216/330 476/1217/327 481/1218/325
f 477/1219/329 478/1220/330 480/1221/324
f 477/1219/329 480/1221/324 479/1222/326
f 478/1216/330 481/1218/325 480/1223/324
f 195/5/331 196/1224/331 197/6/331
f 201/8/332 202/1225/332 203/9/332
f 208/11/333 209/85/333 210/12/333
f 211/14/334 212/14/34 213/15/195
f 216/17/335 217/1226/335 218/18/335
f 220/20/336 221/605/336 222/21/336
f 229/23/337 247/70/38 230/24/207
f 232/26/338 233/1227/338 234/27/338
f 236/29/339 237/64/340 238/30/341
f 242/32/342 243/92/51 244/33/53
f 250/35/343 248/1228/343 251/36/343
f 253/38/344 254/639/344 255/39/344
f 219/44/345 201/1229/345 204/45/345
f 215/629/199 249/37/201 251/36/346
f 220/20/347 223/22/347 207/13/347
f 252/50/173 255/1230/173 203/51/173
f 229/23/25 231/25/25 232/53/25
f 232/53/25 243/92/25 242/32/25
f 193/574/169 222/576/169 221/1231/169
f 204/595/348 203/1232/348 198/593/348
f 194/591/349 197/1233/349 226/589/349
f 223/59/350 222/1234/350 197/60/350
f 244/33/351 225/1235/351 224/62/351
f 211/63/352 214/604/352 208/11/352
f 237/64/353 195/581/353 194/65/353
f 212/67/34 211/1236/354 255/68/35
f 251/36/37 248/1228/194 247/70/38
f 205/71/355 196/1237/355 195/72/355
f 225/74/356 221/1238/356 220/75/356
f 217/1239/357 216/628/357 215/627/357
f 241/77/358 240/1240/358 234/78/358
f 213/80/359 218/1241/359 217/81/359
f 230/24/360 227/636/360 228/83/360
f 237/84/340 236/649/339 253/38/361
f 239/31/45 238/30/362 210/12/46
f 199/86/5 219/594/5 218/87/5
f 242/32/363 245/34/363 250/35/363
f 227/89/364 202/1242/364 201/90/364
f 223/22/365 196/1243/365 195/581/365
f 195/581/366 203/51/366 202/52/366
f 201/588/173 223/22/173 195/581/173
f 202/1244/367 227/582/367 197/584/367
f 202/1244/368 197/584/368 195/1245/368
f 220/20/369 223/22/369 221/605/369
f 223/22/173 201/588/173 218/598/173
f 221/605/370 223/22/370 218/598/370
f 253/601/186 230/602/186 202/599/186
f 207/13/371 220/20/371 221/605/371
f 210/606/372 232/1246/372 242/607/372
f 244/608/186 208/1247/186 210/606/186
f 245/609/13 244/612/13 208/610/13
f 208/1248/1 244/633/1 220/635/1
f 220/635/1 210/1249/1 208/1248/1
f 250/611/373 208/610/373 214/614/373
f 232/1246/186 210/606/186 234/617/186
f 213/619/192 215/618/191 250/1250/374
f 215/618/191 251/1251/375 250/1250/374
f 213/625/1 250/1252/1 251/623/1
f 251/623/376 255/645/376 211/624/376
f 221/632/377 225/626/198 216/628/200
f 231/641/8 230/638/8 253/38/8
f 255/645/378 251/623/378 229/643/378
f 230/1253/13 253/644/13 229/643/13
f 238/1254/379 234/1255/379 237/84/379
f 234/1255/380 233/646/380 237/84/380
f 232/642/210 253/38/209 237/84/210
f 236/649/10 241/648/16 234/1255/178
f 236/649/381 234/1255/381 238/1254/381
