# Blender 4.5.0
# www.blender.org
mtllib circle.lod2.mtl
o sign_board
v 0.300000 0.025394 -0.010000
v 0.261070 0.151924 -0.000000
v 0.164742 0.250372 -0.000000
v -0.300000 0.078532 -0.000000
v -0.300000 -0.078532 0.000000
v -0.237301 -0.195061 -0.010000
v 0.300000 -0.025394 0.010000
v 0.035749 0.300000 -0.000000
v -0.157039 0.266669 -0.002000
v -0.237301 0.195061 0.010000
v -0.157039 -0.266669 0.002000
v 0.035749 -0.300000 0.000000
v 0.164742 -0.250372 0.000000
v 0.261070 -0.151924 0.000000
vn 0.0739 0.0723 0.9946
vn 0.1163 0.1137 -0.9867
vn 0.0172 0.0446 0.9989
vn 0.0222 0.0577 -0.9981
vn -0.0138 0.0196 0.9997
vn 0.0035 0.0397 -0.9992
vn 0.0467 0.1139 0.9924
vn -0.0165 0.0019 -0.9999
vn -0.0288 -0.0701 0.9971
vn -0.0167 -0.0000 -0.9999
vn -0.0167 -0.0000 0.9999
vn -0.0288 0.0701 -0.9971
vn -0.0165 -0.0019 0.9999
vn 0.0467 -0.1139 -0.9924
vn 0.0035 -0.0397 0.9992
vn -0.0138 -0.0196 -0.9997
vn 0.0222 -0.0577 0.9981
vn 0.0172 -0.0446 -0.9989
vn 0.1163 -0.1137 0.9867
vn 0.0739 -0.0723 -0.9946
vn 0.8195 0.2100 0.5332
vn -0.3826 0.2814 -0.8800
vn -0.3826 -0.2814 0.8800
vn 0.8195 -0.2100 -0.5332
vt 0.992952 0.458364
vt 0.926416 0.747347
vt 0.774890 0.913200
vt 0.992952 0.541636
vt 0.564504 0.989941
vt 0.260261 0.924225
vt 0.121989 0.819129
vt 0.023845 0.627588
vt 0.023845 0.372412
vt 0.121989 0.180871
vt 0.260261 0.075775
vt 0.564504 0.010059
vt 0.774890 0.086800
vt 0.926416 0.252653
s 0
f 7/1/1 2/2/1 3/3/1
f 1/4/2 3/3/2 2/2/2
f 7/1/3 3/3/3 8/5/3
f 1/4/4 8/5/4 3/3/4
f 7/1/5 8/5/5 9/6/5
f 1/4/6 9/6/6 8/5/6
f 7/1/7 9/6/7 10/7/7
f 1/4/8 4/8/8 9/6/8
f 7/1/9 10/7/9 4/8/9
f 1/4/10 5/9/10 4/8/10
f 7/1/11 4/8/11 5/9/11
f 1/4/12 6/10/12 5/9/12
f 7/1/13 5/9/13 11/11/13
f 1/4/14 11/11/14 6/10/14
f 7/1/15 11/11/15 12/12/15
f 1/4/16 12/12/16 11/11/16
f 7/1/17 12/12/17 13/13/17
f 1/4/18 13/13/18 12/12/18
f 7/1/19 13/13/19 14/14/19
f 1/4/20 14/14/20 13/13/20
f 1/4/21 2/2/21 7/1/21
f 4/8/22 10/7/22 9/6/22
f 6/10/23 11/11/23 5/9/23
f 14/14/24 1/4/24 7/1/24
