# Blender 4.5.0
# www.blender.org
mtllib circle.lod1.mtl
o sign_board
v 0.300000 0.025288 -0.010000
v 0.246839 0.171898 -0.010000
v 0.148686 0.259141 -0.010000
v 0.023594 0.300000 -0.010000
v -0.095093 0.283798 -0.010000
v -0.197298 0.230014 -0.010000
v -0.286830 0.102073 -0.010000
v -0.300000 -0.053221 -0.010000
v -0.233282 -0.194250 -0.010000
v -0.104552 -0.283233 -0.010000
v 0.051699 -0.296323 -0.010000
v 0.177691 -0.240651 -0.010000
v 0.270340 -0.133403 -0.010000
v 0.300000 -0.025288 0.010000
v 0.270340 0.133403 0.010000
v 0.177691 0.240651 0.010000
v 0.051699 0.296323 0.010000
v -0.104552 0.283233 0.010000
v -0.233282 0.194250 0.010000
v -0.300000 0.053221 0.010000
v -0.286830 -0.102073 0.010000
v -0.197298 -0.230014 0.010000
v -0.095093 -0.283798 0.010000
v 0.023594 -0.300000 0.010000
v 0.148686 -0.259141 0.010000
v 0.246839 -0.171898 0.010000
vn -0.0000 -0.0000 1.0000
vn -0.0000 -0.0000 -1.0000
vn 0.8915 0.1666 0.4213
vn 0.3004 0.9196 -0.2530
vn -0.1352 0.9902 -0.0360
vn -0.4571 0.8685 -0.1917
vn -0.7475 0.5231 -0.4095
vn -0.9087 0.0771 -0.4102
vn -0.8246 -0.3901 -0.4098
vn -0.5189 -0.7507 -0.4088
vn -0.0799 -0.9543 -0.2878
vn 0.3912 -0.8854 -0.2512
vn 0.6410 -0.7211 0.2629
vn 0.7099 -0.6133 -0.3463
vn 0.8578 -0.3110 0.4092
vn 0.8578 0.3110 -0.4092
vn 0.7099 0.6133 0.3463
vn 0.6410 0.7211 -0.2629
vn 0.3912 0.8854 0.2512
vn -0.0799 0.9543 0.2878
vn -0.5189 0.7507 0.4088
vn -0.8246 0.3901 0.4098
vn -0.9087 -0.0771 0.4102
vn -0.7475 -0.5231 0.4095
vn -0.4571 -0.8685 0.1917
vn -0.1352 -0.9902 0.0360
vn 0.3004 -0.9196 0.2530
vn 0.8915 -0.1666 -0.4213
vt 0.992952 0.458364
vt 0.943306 0.718657
vt 0.796063 0.899240
vt 0.992952 0.541636
vt 0.748639 0.930508
vt 0.905928 0.782150
vt 0.587371 0.986931
vt 0.541636 0.992952
vt 0.332196 0.965379
vt 0.345139 0.974324
vt 0.180871 0.878011
vt 0.121989 0.819129
vt 0.034621 0.667804
vt 0.013069 0.587371
vt 0.013069 0.412629
vt 0.034621 0.332196
vt 0.121989 0.180871
vt 0.180871 0.121989
vt 0.332196 0.034621
vt 0.345139 0.025677
vt 0.541636 0.007048
vt 0.587371 0.013069
vt 0.748640 0.069492
vt 0.796063 0.100761
vt 0.905928 0.217850
vt 0.943306 0.281343
s 0
f 14/1/1 15/2/1 16/3/1
f 1/4/2 3/5/2 2/6/2
f 14/1/1 16/3/1 17/7/1
f 1/4/2 4/8/2 3/5/2
f 14/1/1 17/7/1 18/9/1
f 1/4/2 5/10/2 4/8/2
f 1/4/2 6/11/2 5/10/2
f 14/1/1 18/9/1 19/12/1
f 1/4/2 7/13/2 6/11/2
f 14/1/1 19/12/1 20/14/1
f 1/4/2 8/15/2 7/13/2
f 14/1/1 20/14/1 21/16/1
f 1/4/2 9/17/2 8/15/2
f 14/1/1 21/16/1 22/18/1
f 1/4/2 10/19/2 9/17/2
f 14/1/1 22/18/1 23/20/1
f 14/1/1 23/20/1 24/21/1
f 1/4/2 11/22/2 10/19/2
f 14/1/1 24/21/1 25/23/1
f 1/4/2 12/24/2 11/22/2
f 14/1/1 25/23/1 26/25/1
f 1/4/2 13/26/2 12/24/2
f 1/4/3 15/2/3 14/1/3
f 4/8/4 17/7/4 3/5/4
f 5/10/5 18/9/5 4/8/5
f 6/11/6 18/9/6 5/10/6
f 7/13/7 19/12/7 6/11/7
f 8/15/8 20/14/8 7/13/8
f 9/17/9 21/16/9 8/15/9
f 10/19/10 22/18/10 9/17/10
f 11/22/11 24/21/11 10/19/11
f 12/24/12 25/23/12 11/22/12
f 12/24/13 26/25/13 25/23/13
f 13/26/14 26/25/14 12/24/14
f 13/26/15 14/1/15 26/25/15
f 1/4/16 2/6/16 15/2/16
f 2/6/17 16/3/17 15/2/17
f 2/6/18 3/5/18 16/3/18
f 3/5/19 17/7/19 16/3/19
f 4/8/20 18/9/20 17/7/20
f 6/11/21 19/12/21 18/9/21
f 7/13/22 20/14/22 19/12/22
f 8/15/23 21/16/23 20/14/23
f 9/17/24 22/18/24 21/16/24
f 10/19/25 23/20/25 22/18/25
f 10/19/26 24/21/26 23/20/26
f 11/22/27 25/23/27 24/21/27
f 13/26/28 1/4/28 14/1/28
