# Blender 4.5.0
# www.blender.org
mtllib inverted_triangle.lod2.mtl
o sign_board
v -0.400000 0.346400 -0.010000
v 0.000000 -0.346400 -0.010000
v 0.400000 0.346400 -0.010000
v -0.400000 0.346400 0.010000
v 0.000000 -0.346400 0.010000
v 0.400000 0.346400 0.010000
vn -0.0000 -0.0000 -1.0000
vn -0.0000 -0.0000 1.0000
vn -0.8660 -0.5000 -0.0000
vn 0.8660 -0.5000 -0.0000
vn -0.0000 1.0000 -0.0000
vt 0.000000 1.000000
vt 1.000000 1.000000
vt 0.500000 0.000000
s 0
f 1/1/1 3/2/1 2/3/1
f 4/1/2 5/3/2 6/2/2
f 2/3/3 4/1/3 1/1/3
f 2/3/4 6/2/4 5/3/4
f 1/1/5 6/2/5 3/2/5
f 2/3/3 5/3/3 4/1/3
f 2/3/4 3/2/4 6/2/4
f 1/1/5 4/1/5 6/2/5
