# Blender 4.5.0
# www.blender.org
mtllib factory_004.mtl
o factory_004
v 0.620955 3.498722 -3.105410
v 0.620955 3.158360 -3.105410
v -1.922958 3.498722 -3.105410
v -1.922958 3.158360 -3.105410
v -3.248536 0.138686 -3.250000
v 3.248536 0.138686 3.250000
v -3.248536 0.001463 3.250000
v 3.250000 0.000000 3.247612
v -3.250000 0.140149 3.247612
v -3.250000 -0.000000 -3.247612
v 3.250000 0.140149 -3.247612
v 3.248536 0.001463 -3.250000
v -2.849961 3.644834 2.895882
v -2.848141 0.150399 2.898708
v 1.546138 3.643637 2.898707
v 1.547958 0.149203 2.895882
v 1.547958 3.644834 -2.895882
v -2.848141 3.643637 -2.898708
v 1.546138 0.150399 -2.898708
v -2.849961 0.149203 -2.895882
v -0.649533 4.377036 -3.072247
v 1.702615 3.679023 -3.067613
v -3.004618 3.679023 3.067612
v -0.652470 4.377036 3.072246
v -3.004614 3.679012 -3.067596
v 1.702611 3.679012 3.067596
v -3.027550 3.613350 -3.073741
v -2.931393 3.680058 -3.080420
v -3.056421 3.729768 -3.081079
v -3.034794 3.616349 3.073741
v -3.055594 3.731480 3.080420
v -2.932019 3.678264 3.081078
v 1.679692 3.613349 -3.073741
v 1.775849 3.680058 -3.080420
v 1.650821 3.729768 -3.081079
v 1.672448 3.616349 3.073741
v 1.651648 3.731480 3.080420
v 1.775223 3.678264 3.081078
v -0.555308 4.381310 -3.081868
v -0.681283 4.294107 -3.073975
v -0.718624 4.445889 -3.083231
v -0.717499 4.448461 3.081868
v -0.690112 4.297763 3.073974
v -0.556331 4.378698 3.083230
v -3.019433 3.748128 -3.104136
v -2.986077 3.605228 -3.086538
v -3.002563 3.690912 -3.148832
v -2.989935 3.671707 -3.149881
v -0.656399 4.371923 -2.996437
v -0.648698 4.371930 -3.012335
v -0.665690 4.386867 -3.008865
v -0.668026 4.363357 -3.009596
v -0.642653 4.365593 -3.008865
v -0.636313 4.386867 -3.008865
v -0.650527 4.335987 -3.021666
v -0.641948 4.372867 -3.142221
v -0.651002 4.379659 -3.167487
v -0.638059 4.371933 -3.159079
v -0.650537 4.389681 -3.158405
v -0.656267 4.335523 -3.136348
v -0.652649 4.374130 -3.140547
v -0.645546 4.297251 -3.088157
v -0.677709 4.420372 -3.133225
v -0.662388 4.417868 -3.127003
v -0.676183 4.444868 -3.051860
v -3.014058 3.712026 -3.016609
v -2.989934 3.671707 -3.008865
v -0.624023 4.422249 -3.135314
v -0.660148 4.305280 -3.054997
v 1.717040 3.747389 -3.051884
v 1.705798 3.675134 -3.154605
v -0.625973 4.443021 -3.047113
v -0.639222 4.419186 -3.026265
v -0.663539 4.337590 -3.035462
v 1.689561 3.628376 -3.020785
v -2.986077 3.605228 3.072207
v -0.676183 4.444868 3.106886
v -0.650527 4.335987 3.137080
v -0.642179 4.373516 3.016333
v -0.645571 4.297247 3.070604
v -3.002563 3.690912 3.009914
v -2.989935 3.671707 3.008865
v -3.019433 3.748129 3.054610
v -0.677710 4.420373 3.025522
v -0.662388 4.417868 3.031743
v -3.014058 3.712026 3.142137
v -0.656399 4.371923 3.162310
v -0.648698 4.371930 3.146411
v -0.665690 4.386867 3.149881
v -0.668026 4.363357 3.149150
v -0.642653 4.365593 3.149881
v -0.636313 4.386867 3.149881
v -2.989935 3.671707 3.149881
v -0.660148 4.305280 3.103749
v -0.663539 4.337590 3.123284
v -0.651002 4.379659 2.991259
v -0.638059 4.371932 2.999668
v -0.650537 4.389682 3.000340
v -0.656267 4.335523 3.022398
v -0.652649 4.374130 3.018199
v 1.705798 3.675134 3.004142
v 1.689561 3.628377 3.137961
v 1.717040 3.747389 3.106862
v -0.624022 4.422250 3.023432
v -0.625973 4.443021 3.111633
v -0.639222 4.419186 3.132481
v 1.069783 0.151210 -3.009734
v 1.085093 2.955701 -2.959600
v -2.373431 2.943344 -2.921078
v -2.387096 0.137590 -2.959599
v 1.071428 0.149947 -2.921078
v -2.371786 2.942081 -3.009734
v 1.050905 0.312880 -3.030243
v 1.043709 0.298532 -3.042135
v -2.354076 0.307827 -3.034309
v 1.043709 0.478723 -3.042135
v 1.050905 0.493072 -3.030243
v -2.354076 0.488019 -3.034309
v 1.050905 0.663158 -3.038375
v 1.043710 0.677506 -3.026484
v -2.354076 0.668211 -3.034309
v -2.354076 0.848402 -3.034309
v 1.043710 0.857698 -3.026484
v 1.050905 0.843350 -3.038375
v -2.354076 1.028594 -3.034309
v 1.043709 1.019298 -3.042135
v 1.050905 1.033647 -3.030243
v 1.043709 1.199490 -3.042135
v -2.354076 1.208786 -3.034309
v 1.050905 1.213839 -3.030243
v 1.043710 1.398273 -3.026484
v -2.354076 1.388977 -3.034309
v 1.050905 1.383925 -3.038375
v 1.050905 1.574222 -3.030243
v -2.354076 1.569169 -3.034309
v 1.043709 1.559873 -3.042135
v 1.050905 1.744308 -3.038375
v 1.043709 1.758657 -3.026484
v -2.354076 1.749361 -3.034309
v 1.043709 1.920257 -3.042135
v -2.354076 1.929552 -3.034309
v 1.050905 1.934605 -3.030243
v 1.050905 2.114797 -3.030243
v -2.354076 2.109744 -3.034309
v 1.043709 2.100448 -3.042135
v 1.050905 2.284883 -3.038375
v -2.354076 2.289936 -3.034309
v 1.043710 2.299232 -3.026484
v 1.050905 2.474192 -3.039364
v -2.354076 2.470128 -3.034309
v 1.043710 2.462305 -3.025010
v -2.354076 2.650319 -3.034309
v 1.043709 2.641024 -3.042135
v 1.050905 2.655372 -3.030243
v -2.354076 2.830511 -3.034309
v 1.043710 2.839807 -3.026484
v 1.050905 2.825458 -3.038375
v 2.727069 0.195208 -1.192733
v 2.353621 0.207220 -1.041479
v 1.792758 0.207220 -1.602275
v 1.969666 0.195208 -1.990377
v 2.868348 0.196340 -1.394270
v 2.361278 0.195208 -2.151615
v 2.568254 4.487774 -2.120384
v 2.138988 4.487774 -2.120384
v 1.850356 4.499787 -1.390632
v 2.908776 4.498655 -1.597494
v 2.900040 0.186197 -1.739066
v 2.749500 0.197534 -1.995580
v 2.855386 4.499787 -1.837748
v 1.835451 4.487774 -1.816884
v 1.957031 0.207220 -1.205732
v 2.150447 4.499787 -1.091823
v 2.568835 4.497461 -1.087431
v 2.806093 4.508796 -1.266818
v 2.755397 4.499787 -1.164409
v 2.353621 4.511800 -1.001423
v 1.928703 4.511800 -1.177408
v 1.752696 4.511800 -1.602276
v 1.941339 4.499787 -2.018701
v 2.777829 4.502114 -2.023903
v 2.905360 4.500919 -1.378942
v 2.892398 4.700000 -1.853078
v 2.781772 4.700000 -1.185211
v 2.908803 4.499787 -1.823766
v 2.361278 4.499787 -2.191672
v 2.583585 4.687987 -2.157392
v 2.123657 4.687987 -2.157392
v 1.798439 4.687987 -1.832212
v 1.813344 4.700000 -1.375303
v 2.135116 4.700000 -1.054815
v 2.584170 4.697673 -1.050424
v 2.948838 4.698867 -1.597494
v 2.348481 1.027884 -1.010061
v 1.802948 1.026590 -1.375029
v 1.757660 1.026248 -1.602468
v 2.907124 1.004923 -1.393201
v 1.802951 1.025935 -1.830136
v 2.124195 1.025182 -2.151362
v 2.350204 1.024707 -2.196240
v 2.900841 1.023406 -1.822695
v 2.945009 1.047260 -1.583642
v 2.766513 1.024306 -2.023785
v 2.575531 1.024299 -2.151378
v 1.931839 1.025593 -2.022932
v 1.931508 1.027002 -1.182772
v 2.573761 1.027877 -1.054864
v 2.774825 1.028777 -1.189247
v 2.123136 1.027476 -1.054832
v 1.802951 3.228278 -1.830136
v 1.931839 3.227936 -2.022933
v 2.124195 3.227524 -2.151362
v 2.900841 3.225749 -1.822695
v 2.575531 3.226641 -2.151378
v 1.802948 3.228933 -1.375029
v 2.945009 3.249603 -1.583643
v 2.774826 3.231120 -1.189247
v 2.766513 3.226649 -2.023785
v 2.350204 3.227049 -2.196240
v 1.757660 3.228591 -1.602468
v 1.931508 3.229344 -1.182772
v 2.123136 3.229819 -1.054832
v 2.348481 3.230227 -1.010061
v 2.573761 3.230220 -1.054864
v 2.907124 3.207266 -1.393201
v 2.868348 0.196340 1.309570
v 2.353621 0.207221 1.662361
v 1.957031 0.207221 1.498107
v 1.969666 0.195208 0.713463
v 2.361278 0.195208 0.552225
v 2.749500 0.197534 0.708260
v 2.855386 4.499787 0.866092
v 2.568254 4.487774 0.583455
v 2.138988 4.487774 0.583455
v 2.908776 4.498655 1.106346
v 1.835451 4.487774 0.886956
v 1.850356 4.499787 1.313208
v 2.568835 4.497461 1.616409
v 2.900040 0.186197 0.964773
v 1.792758 0.207221 1.101564
v 2.150447 4.499787 1.612017
v 2.727069 0.195208 1.511107
v 2.806093 4.508796 1.437022
v 2.353621 4.511800 1.702417
v 1.752696 4.511800 1.101564
v 1.941339 4.499787 0.685139
v 2.361278 4.499787 0.512168
v 2.905360 4.500919 1.324898
v 2.908803 4.499787 0.880073
v 2.892398 4.700000 0.850762
v 2.948838 4.698867 1.106346
v 2.583585 4.687987 0.546448
v 2.123657 4.687987 0.546448
v 1.798439 4.687987 0.871627
v 2.135116 4.700000 1.649024
v 2.777829 4.502114 0.679937
v 1.928703 4.511800 1.526431
v 1.813344 4.700000 1.328536
v 2.584170 4.697673 1.653415
v 2.755397 4.499787 1.539431
v 2.781772 4.700000 1.518628
v 2.348481 1.027884 1.693779
v 1.931508 1.027002 1.521066
v 2.350204 1.024707 0.507600
v 2.907124 1.004923 1.310637
v 2.900841 1.023406 0.881145
v 2.945009 1.047260 1.120198
v 2.766513 1.024307 0.680056
v 2.575530 1.024299 0.552462
v 1.802951 1.025936 0.873704
v 2.123136 1.027476 1.649009
v 2.124195 1.025182 0.552478
v 1.931839 1.025593 0.680909
v 1.757660 1.026248 1.101372
v 1.802948 1.026590 1.328811
v 2.573759 1.027877 1.648976
v 2.774826 1.028777 1.514591
v 2.348481 3.230227 1.693779
v 2.900841 3.225749 0.881145
v 2.945009 3.249603 1.120197
v 2.766513 3.226650 0.680056
v 2.575530 3.226642 0.552461
v 2.350204 3.227050 0.507600
v 1.931839 3.227936 0.680908
v 1.802951 3.228278 0.873704
v 1.757660 3.228591 1.101372
v 2.573759 3.230220 1.648976
v 2.774826 3.231120 1.514591
v 2.124195 3.227525 0.552478
v 1.931508 3.229344 1.521066
v 1.802948 3.228933 1.328811
v 2.123136 3.229819 1.649009
v 2.907124 3.207266 1.310637
v 2.316528 1.033938 1.101162
v 2.395470 1.028944 1.098955
v 2.388226 0.955257 1.096496
v 2.347292 1.048890 -1.599666
v 2.303351 0.969082 -1.599522
v 2.312932 0.959984 1.093287
v 2.406675 0.980480 -1.604096
v -1.946562 3.525309 -2.951704
v -1.944687 3.131466 -2.950657
v 0.642684 3.525616 -2.950657
v 0.644559 3.131774 -2.951704
v -1.944687 3.525616 -3.097933
v 0.644559 3.525309 -3.096886
v -1.946562 3.131774 -3.096886
v 0.642684 3.131466 -3.097933
v -2.725682 0.118568 2.953922
v -2.697833 3.302843 2.950644
v -2.661699 0.118161 2.989105
v -2.716851 0.114409 3.036730
v -2.706471 3.303192 3.038276
v 1.380636 0.118568 2.953922
v 1.444618 0.118161 2.989105
v 1.389467 0.114409 3.036731
v 1.399846 3.303192 3.038277
v 1.408485 3.302843 2.950644
v -1.045226 2.241873 2.925813
v -0.256777 0.450993 2.925814
v -1.045925 0.449859 2.926579
v -0.256777 2.241873 3.042662
v -1.045226 0.450993 3.042662
v -0.256078 2.243007 2.926579
v -0.256078 0.449859 3.041897
v -1.045925 2.243007 3.041897
v -0.019704 1.789420 2.902031
v -0.020631 1.302179 2.903154
v -0.020631 1.791112 3.065322
v 0.320166 1.789420 3.066444
v 0.321093 1.302179 3.065322
v 0.320166 1.303871 2.902032
v 0.321093 1.791112 2.903154
v -0.019703 1.303871 3.066444
vn -0.0000 -0.0000 -1.0000
vn -0.3979 0.1186 0.9097
vn 0.9954 -0.0854 0.0433
vn -0.3978 0.1186 0.9098
vn 0.0517 0.8408 -0.5389
vn 0.8299 -0.5502 -0.0929
vn -0.4658 -0.5378 -0.7028
vn -0.0000 -0.7761 -0.6306
vn -0.0000 -0.7752 -0.6317
vn -0.0000 -0.7875 -0.6163
vn 0.0779 0.7326 0.6762
vn 0.0759 0.7051 0.7051
vn 0.0748 0.7051 0.7051
vn -0.0000 0.7649 0.6441
vn -0.0000 0.7606 0.6493
vn -0.0000 0.7625 0.6470
vn 0.6263 0.5208 0.5801
vn 0.7569 -0.2957 -0.5828
vn -0.0940 0.8281 -0.5526
vn -0.0548 0.8415 0.5374
vn -0.4657 -0.5378 -0.7028
vn -0.3008 -0.5785 0.7582
vn 0.8888 -0.1570 0.4305
vn -0.6338 0.7650 0.1139
vn -0.9361 0.3259 -0.1322
vn -0.9302 0.3521 -0.1035
vn 0.8889 -0.1570 0.4305
vn -0.6533 0.7494 0.1073
vn -0.9356 0.3280 -0.1304
vn -0.9267 0.3606 -0.1054
vn -0.0000 0.6350 -0.7725
vn -0.0000 0.6341 -0.7733
vn -0.0000 0.6426 -0.7662
vn -0.0170 0.0434 -0.9989
vn -0.0476 0.1609 0.9858
vn 0.3569 0.7274 -0.5861
vn -0.9954 -0.0579 -0.0769
vn -0.9853 -0.0001 -0.1708
vn -0.9879 0.0875 -0.1280
vn -0.9881 0.0869 -0.1272
vn -0.0401 -0.5808 -0.8131
vn -0.0434 -0.5876 -0.8080
vn -0.0418 -0.6134 -0.7887
vn -0.1213 -0.7019 -0.7019
vn -0.1213 -0.7626 -0.6355
vn -0.1273 -0.7531 -0.6455
vn 0.0133 -0.7882 -0.6152
vn 0.0132 -0.7808 -0.6246
vn 0.0134 -0.7862 -0.6178
vn 0.0233 -0.7397 -0.6725
vn 0.0226 -0.7258 -0.6876
vn 0.0225 -0.7069 -0.7069
vn -0.0000 0.7740 0.6332
vn -0.0000 0.7809 0.6247
vn -0.0000 0.8000 0.6000
vn 0.1759 0.4789 0.8601
vn -0.5392 0.5839 0.6069
vn -0.6992 -0.4619 -0.5457
vn -0.1690 0.9312 0.3229
vn 0.2307 0.4645 0.8550
vn 0.5984 0.5442 0.5880
vn 0.2306 0.4645 0.8550
vn 0.5984 0.5442 0.5881
vn 0.5303 -0.2654 -0.8052
vn -0.1939 -0.6738 -0.7130
vn -0.1092 -0.3650 -0.9246
vn 0.3735 -0.7413 0.5576
vn 0.0990 0.2887 0.9523
vn -0.0883 -0.2948 0.9515
vn 0.5230 -0.6352 0.5682
vn -0.5732 0.5754 -0.5833
vn 0.5732 -0.5754 -0.5833
vn -0.5816 -0.5791 -0.5713
vn 0.5816 0.5791 -0.5713
vn -0.5816 0.5791 0.5713
vn 0.5732 0.5754 0.5833
vn 0.5816 -0.5791 0.5713
vn -0.5732 -0.5754 0.5833
vn -0.5776 0.5776 0.5768
vn -0.5776 -0.5776 -0.5768
vn -0.5771 -0.5772 0.5777
vn -0.5771 0.5772 -0.5777
vn 0.5771 0.5772 0.5777
vn 0.5776 0.5776 -0.5768
vn 0.5776 -0.5776 0.5768
vn 0.5771 -0.5772 -0.5777
vn 0.2799 0.9429 0.1805
vn 0.2845 0.9587 -0.0000
vn 0.2844 0.9587 -0.0000
vn -0.2799 0.9429 -0.1805
vn -0.1487 0.4959 -0.8556
vn -0.0000 -0.0067 -1.0000
vn -0.2844 0.9587 -0.0000
vn 0.1487 0.4959 0.8556
vn -0.0000 -0.0067 1.0000
vn -0.2845 0.9587 -0.0000
vn -0.2991 -0.7950 -0.5277
vn 0.8205 0.0508 0.5693
vn -0.3508 -0.7736 0.5277
vn 0.8193 0.0880 -0.5665
vn -0.5443 0.6161 -0.5693
vn -0.5171 0.6415 0.5666
vn -0.2994 -0.7935 -0.5299
vn 0.8208 0.0888 -0.5643
vn 0.8202 0.0512 0.5698
vn -0.3495 -0.7727 0.5299
vn -0.5438 0.6161 -0.5699
vn -0.5176 0.6431 0.5643
vn -0.8406 0.0274 -0.5410
vn -0.7708 0.5953 -0.2270
vn -0.0435 0.9550 -0.2936
vn -0.5829 -0.7069 0.4008
vn -0.9164 0.2565 0.3073
vn -0.4329 -0.6954 0.5737
vn 0.2128 -0.7371 0.6414
vn 0.2028 -0.6693 -0.7148
vn -0.1167 0.3916 -0.9127
vn 0.2758 -0.9210 -0.2751
vn 0.2395 -0.7740 -0.5862
vn 0.2747 -0.9298 -0.2449
vn 0.0689 -0.2240 0.9721
vn -0.2702 -0.9242 0.2697
vn -0.8630 0.2051 0.4617
vn 0.9863 0.1639 0.0166
vn 0.9779 0.2080 -0.0203
vn 0.9756 0.1752 -0.1320
vn 0.2741 0.8849 0.3765
vn -0.2428 0.6575 -0.7132
vn 0.9786 0.1728 0.1122
vn 0.9781 0.1736 0.1150
vn 0.2182 0.7230 0.6554
vn -0.8493 0.5160 0.1117
vn -0.9957 0.0618 -0.0691
vn 0.1785 0.6142 -0.7687
vn 0.7314 0.6130 0.2988
vn -0.9224 0.3020 -0.2409
vn -0.8406 0.0273 -0.5410
vn -0.4329 -0.6954 0.5736
vn -0.0435 0.9550 -0.2935
vn 0.9864 0.1638 0.0165
vn 0.9781 0.1734 0.1151
vn 0.9780 0.2078 -0.0204
vn 0.2759 -0.9210 -0.2751
vn 0.2416 -0.7791 -0.5785
vn 0.2747 -0.9296 -0.2458
vn 0.9786 0.1726 0.1123
vn 0.9756 0.1751 -0.1323
vn -0.8489 0.5167 0.1114
vn 0.2182 0.7230 0.6555
vn -0.5701 0.5713 -0.5904
vn 0.5701 -0.5713 -0.5904
vn -0.6779 -0.7351 0.0083
vn 0.6779 0.7351 0.0083
vn 0.5781 -0.5768 0.5771
vn -0.5781 0.5768 0.5771
vn 0.4004 -0.8710 0.2846
vn 0.6119 0.0024 0.7909
vn 0.6030 0.0027 0.7977
vn 0.7052 -0.6577 0.2647
vn -0.0116 -0.9998 0.0139
vn -0.0007 -0.0081 1.0000
vn 0.3751 -0.0089 0.9269
vn 0.0119 0.0101 0.9999
vn -0.3866 0.0124 0.9222
vn -0.5506 -0.6287 0.5492
vn -0.7819 -0.6234 -0.0053
vn -0.5376 -0.6424 -0.5462
vn -0.7244 0.6234 -0.2943
vn 0.0022 -1.0000 -0.0000
vn -0.0043 -0.0124 -0.9999
vn -0.2985 0.6287 -0.7181
vn -0.0083 -1.0000 -0.0004
vn 0.4398 -0.8956 0.0668
vn 0.7529 0.6577 0.0253
vn 0.4318 0.8956 0.1066
vn 0.3820 0.0081 -0.9241
vn 0.3936 -0.0101 -0.9192
vn 0.7013 0.0089 -0.7128
vn 0.4788 0.8710 -0.1097
vn -0.0054 0.9998 -0.0173
vn -0.7057 0.6424 0.2989
vn 0.0021 1.0000 0.0008
vn -0.0078 1.0000 -0.0028
vn 0.8680 -0.0024 -0.4965
vn 0.8624 -0.0027 -0.5062
vn -0.0077 0.0597 0.9982
vn 0.3622 -0.2098 0.9082
vn 0.2626 -0.0721 0.9622
vn 0.7329 -0.6245 0.2701
vn 0.4641 -0.7669 0.4433
vn -0.0108 -0.9999 0.0130
vn 0.6821 -0.0139 0.7311
vn 0.5634 0.0116 0.8261
vn -0.3807 0.0289 0.9242
vn -0.5773 -0.5808 0.5739
vn -0.7066 0.6448 0.2913
vn -0.8101 -0.5860 0.0169
vn -0.7420 0.5860 -0.3256
vn -0.5413 -0.6448 -0.5396
vn -0.3137 0.5808 -0.7511
vn 0.0021 -1.0000 -0.0000
vn 0.0019 -0.0289 -0.9996
vn 0.6108 0.0720 -0.7885
vn 0.3749 -0.0597 -0.9252
vn 0.6821 0.2098 -0.7005
vn 0.0026 -1.0000 -0.0024
vn 0.2372 -0.9715 0.0043
vn 0.9100 0.0139 -0.4144
vn 0.8366 -0.0116 -0.5476
vn 0.5985 0.7669 -0.2319
vn 0.7805 0.6245 0.0309
vn 0.2208 0.9715 0.0868
vn 0.0015 1.0000 0.0032
vn -0.0050 0.9999 -0.0162
vn 0.0019 1.0000 0.0008
vn 0.8499 -0.3561 0.3885
vn -0.0958 0.0114 0.9953
vn -0.4504 0.0064 0.8928
vn 0.2683 0.0211 0.9631
vn -0.7437 0.0025 0.6685
vn -0.9356 0.0011 0.3530
vn -0.9999 0.0008 -0.0106
vn -0.9279 -0.0008 -0.3728
vn -0.7293 -0.0011 -0.6842
vn -0.0745 -0.0064 -0.9972
vn 0.2924 -0.0114 -0.9562
vn -0.4313 -0.0025 -0.9022
vn 0.8656 -0.0896 -0.4927
vn 0.9338 0.3561 -0.0337
vn 0.6165 -0.0211 -0.7871
vn 0.6112 0.0896 0.7864
vn -0.9279 -0.0008 -0.3729
vn 0.7804 0.6245 0.0309
vn -0.9999 0.0008 -0.0107
vn -0.6247 -0.5730 0.5306
vn -0.7100 0.7042 -0.0036
vn -0.7100 -0.7042 0.0036
vn -0.7015 -0.7127 0.0075
vn 0.7100 0.7042 0.0036
vn -0.7015 0.7127 -0.0075
vn 0.0003 -0.0021 1.0000
vn -0.0004 0.0027 1.0000
vn -0.0003 0.0021 1.0000
vn 0.7015 0.7127 0.0075
vn 0.7100 -0.7042 -0.0036
vn 0.0004 -0.0027 1.0000
vn 0.7015 -0.7127 -0.0075
vn -0.0003 -0.0021 -1.0000
vn 0.0003 0.0021 -1.0000
vn -0.0004 -0.0027 -1.0000
vn 0.0004 0.0027 -1.0000
vn -0.5792 0.5799 0.5729
vn 0.5792 0.5799 -0.5729
vn -0.5760 0.5742 -0.5818
vn 0.5760 -0.5742 -0.5818
vn -0.5792 -0.5799 -0.5729
vn 0.5792 -0.5799 0.5729
vn -0.5760 -0.5742 0.5818
vn 0.5760 0.5742 0.5818
vn -0.5762 0.5731 -0.5826
vn 0.5762 -0.5731 -0.5826
vn -0.5794 -0.5803 -0.5723
vn 0.5794 0.5803 -0.5723
vn -0.5794 0.5803 0.5723
vn 0.5794 -0.5803 0.5723
vn -0.5762 -0.5731 0.5826
vn 0.5762 0.5731 0.5826
vn 0.6867 -0.6466 0.3323
vn 0.1604 -0.0466 0.9860
vn -0.0640 0.4317 0.8997
vn 0.1466 0.9672 0.2075
vn -0.6613 -0.4866 0.5708
vn -0.9952 0.0889 -0.0403
vn 0.0938 0.9741 0.2057
vn -0.6613 -0.4866 0.5709
vn 1.0000 -0.0000 -0.0000
vn -0.0000 -0.0000 -0.0000
vn 0.9892 -0.0820 0.1218
vn -0.7571 -0.4732 -0.4505
vn 0.2654 0.9218 -0.2825
vn 0.9892 -0.0819 0.1214
vn -0.7570 -0.4732 -0.4505
vn -0.0126 0.0291 -0.9995
vn 0.0058 -0.0317 0.9995
vn 0.6501 0.6354 -0.4168
vn 0.0313 -0.6129 0.7895
vn 0.6501 0.6353 -0.4168
vn 0.4099 0.4607 0.7872
vn 0.2456 -0.8295 0.5016
vn 0.2456 -0.8295 0.5017
vn -0.0222 -0.2502 0.9680
vn -0.7885 0.2350 0.5683
vn 0.2850 -0.8952 -0.3428
vn 0.0222 0.0950 -0.9952
vn 0.2879 -0.9018 -0.3223
vt 0.498221 0.779056
vt 0.498221 0.891608
vt 0.483155 0.891612
vt 0.483155 0.779060
vt 0.210136 0.403073
vt 0.209195 0.403340
vt 0.209862 0.402778
vt 0.805393 0.202932
vt 0.804834 0.203137
vt 0.805177 0.204131
vt 0.253906 0.403073
vt 0.252965 0.403340
vt 0.253632 0.402777
vt 0.805393 0.217797
vt 0.804834 0.218002
vt 0.805177 0.218996
vt 0.528284 0.828737
vt 0.529373 0.969230
vt 0.527828 0.968897
vt 0.979804 0.283824
vt 0.979741 0.430567
vt 0.979163 0.430669
vt 0.507065 0.735704
vt 0.507002 0.882446
vt 0.506423 0.882548
vt 0.309753 0.838937
vt 0.309692 0.985680
vt 0.309114 0.985782
vt 0.579440 0.947198
vt 0.577290 0.828661
vt 0.579514 0.829010
vt 0.086614 0.827461
vt 0.088089 0.967675
vt 0.086224 0.967575
vt 0.786939 0.770562
vt 0.786045 0.769188
vt 0.786542 0.768646
vt 0.362930 0.942512
vt 0.359846 0.941877
vt 0.363457 0.941946
vt 0.800912 0.770562
vt 0.800018 0.769188
vt 0.800515 0.768646
vt 0.657784 0.932220
vt 0.654701 0.931585
vt 0.658311 0.931654
vt 0.254970 0.992864
vt 0.254581 0.843256
vt 0.255134 0.843253
vt 0.918504 0.846070
vt 0.919486 0.954322
vt 0.918637 0.954417
vt 0.210237 0.401968
vt 0.239122 0.300637
vt 0.240831 0.301657
vt 0.929716 0.846070
vt 0.930699 0.954322
vt 0.929849 0.954417
vt 0.254006 0.401968
vt 0.282878 0.300635
vt 0.284600 0.301657
vt 0.841573 0.781727
vt 0.841755 0.922086
vt 0.840134 0.922161
vt 0.698288 0.812247
vt 0.700083 0.811722
vt 0.698555 0.812832
vt 0.211833 0.402411
vt 0.211422 0.401938
vt 0.065297 0.828267
vt 0.067091 0.827743
vt 0.065564 0.828852
vt 0.255603 0.402412
vt 0.255191 0.401938
vt 0.774215 0.842382
vt 0.773906 0.992382
vt 0.773759 0.991972
vt 0.791615 0.842380
vt 0.791865 0.991980
vt 0.791308 0.992405
vt 0.730229 0.842380
vt 0.730061 0.992382
vt 0.729912 0.991972
vt 0.721459 0.842380
vt 0.721291 0.992382
vt 0.721143 0.991972
vt 0.989500 0.565035
vt 0.989750 0.714636
vt 0.989196 0.715060
vt 0.207796 0.403045
vt 0.209835 0.402588
vt 0.251566 0.403045
vt 0.253604 0.402588
vt 0.589108 0.828641
vt 0.590560 0.947815
vt 0.588876 0.947549
vt 0.075841 0.827461
vt 0.077316 0.967675
vt 0.075451 0.967575
vt 0.783144 0.768735
vt 0.785709 0.768563
vt 0.797116 0.768735
vt 0.799682 0.768563
vt 0.540145 0.936909
vt 0.538456 0.828821
vt 0.540676 0.828415
vt 0.241414 0.504320
vt 0.553435 0.936909
vt 0.551747 0.828821
vt 0.553966 0.828415
vt 0.285172 0.504325
vt 0.567185 0.947711
vt 0.564942 0.828841
vt 0.567703 0.828650
vt 0.710421 0.811405
vt 0.710602 0.951765
vt 0.708982 0.951839
vt 0.517557 0.828737
vt 0.518646 0.969230
vt 0.517101 0.968897
vt 0.910128 0.565036
vt 0.904202 0.852345
vt 0.904195 0.565033
vt 0.909968 0.852212
vt 0.893361 0.004092
vt 0.893504 0.289872
vt 0.887757 0.289878
vt 0.300337 0.004273
vt 0.587330 0.291622
vt 0.300058 0.291611
vt 0.895658 0.565050
vt 0.895640 0.850710
vt 0.889892 0.850723
vt 0.902568 0.285639
vt 0.908323 0.004520
vt 0.908337 0.285648
vt 0.902581 0.004339
vt 0.587329 0.004446
vt 0.004624 0.291970
vt 0.291619 0.004274
vt 0.291619 0.291900
vt 0.887777 0.004092
vt 0.889889 0.565039
vt 0.004436 0.004443
vt 0.670622 0.565031
vt 0.516298 0.819735
vt 0.516273 0.565042
vt 0.670592 0.819792
vt 0.516573 0.300251
vt 0.710911 0.300195
vt 0.710965 0.556400
vt 0.300736 0.770637
vt 0.300081 0.580546
vt 0.454488 0.581463
vt 0.516627 0.556456
vt 0.454795 0.771487
vt 0.004391 0.300783
vt 0.198787 0.556929
vt 0.004445 0.556993
vt 0.750200 0.004095
vt 0.749937 0.258790
vt 0.595540 0.258695
vt 0.595865 0.004092
vt 0.198733 0.300718
vt 0.158367 0.565558
vt 0.158507 0.759653
vt 0.004118 0.759735
vt 0.004216 0.565558
vt 0.508086 0.300554
vt 0.508089 0.572034
vt 0.404151 0.571813
vt 0.810993 0.565034
vt 0.841838 0.669153
vt 0.810993 0.773293
vt 0.299804 0.572024
vt 0.404150 0.300174
vt 0.881181 0.767194
vt 0.850356 0.666757
vt 0.881181 0.565034
vt 0.299804 0.300545
vt 0.934050 0.565472
vt 0.936933 0.837048
vt 0.933804 0.837049
vt 0.937040 0.565217
vt 0.841807 0.551056
vt 0.842685 0.555034
vt 0.838758 0.553893
vt 0.958550 0.004401
vt 0.961729 0.004704
vt 0.961034 0.274827
vt 0.961669 0.555604
vt 0.958036 0.283867
vt 0.961529 0.283748
vt 0.958869 0.555913
vt 0.958428 0.275205
vt 0.856125 0.551989
vt 0.853911 0.555204
vt 0.851892 0.551831
vt 0.932626 0.284037
vt 0.935616 0.283782
vt 0.935509 0.555613
vt 0.932380 0.555614
vt 0.845843 0.217443
vt 0.846721 0.221421
vt 0.842795 0.220281
vt 0.950115 0.837039
vt 0.946482 0.565302
vt 0.949975 0.565183
vt 0.947315 0.837349
vt 0.959219 0.565340
vt 0.962399 0.565643
vt 0.961703 0.835766
vt 0.959097 0.836145
vt 0.846829 0.204847
vt 0.844926 0.208190
vt 0.842595 0.204689
vt 0.918743 0.004531
vt 0.922638 0.004278
vt 0.922531 0.276109
vt 0.918427 0.276110
vt 0.737876 0.268300
vt 0.739077 0.273494
vt 0.733875 0.272069
vt 0.932225 0.004410
vt 0.936468 0.004707
vt 0.935773 0.274830
vt 0.924355 0.837040
vt 0.919667 0.565304
vt 0.924215 0.565183
vt 0.920588 0.837350
vt 0.932212 0.275219
vt 0.739223 0.285167
vt 0.736393 0.289481
vt 0.733676 0.285026
vt 0.907253 0.969281
vt 0.905471 0.969279
vt 0.904708 0.861703
vt 0.828904 0.221751
vt 0.833699 0.220527
vt 0.832533 0.223341
vt 0.699072 0.916388
vt 0.695129 0.812877
vt 0.831337 0.217821
vt 0.242483 0.301618
vt 0.211468 0.402627
vt 0.921165 0.954303
vt 0.907253 0.860719
vt 0.629291 0.932080
vt 0.626806 0.828590
vt 0.629415 0.828475
vt 0.209195 0.402068
vt 0.803388 0.209613
vt 0.801476 0.208006
vt 0.804941 0.209073
vt 0.785365 0.772838
vt 0.207541 0.401362
vt 0.207908 0.403596
vt 0.918928 0.846224
vt 0.781158 0.773955
vt 0.781158 0.771457
vt 0.540006 0.828530
vt 0.804724 0.203923
vt 0.806460 0.205103
vt 0.696365 0.916353
vt 0.801476 0.205734
vt 0.360373 0.838834
vt 0.363287 0.838875
vt 0.603459 0.932465
vt 0.600572 0.828767
vt 0.604376 0.828792
vt 0.600873 0.932636
vt 0.806214 0.208310
vt 0.238602 0.504785
vt 0.816748 0.208312
vt 0.816324 0.203684
vt 0.820020 0.206021
vt 0.932378 0.954304
vt 0.930141 0.846224
vt 0.828904 0.206887
vt 0.831356 0.202959
vt 0.833699 0.205662
vt 0.832533 0.208476
vt 0.286253 0.301618
vt 0.255238 0.402627
vt 0.066081 0.932409
vt 0.062138 0.828898
vt 0.799338 0.772842
vt 0.795130 0.771457
vt 0.252965 0.402068
vt 0.642582 0.932080
vt 0.640098 0.828590
vt 0.642689 0.828475
vt 0.892422 0.967824
vt 0.890640 0.967822
vt 0.889877 0.860246
vt 0.892422 0.859262
vt 0.063374 0.932373
vt 0.795130 0.773955
vt 0.251311 0.401362
vt 0.803388 0.224478
vt 0.801476 0.222871
vt 0.804941 0.223938
vt 0.251678 0.403596
vt 0.804724 0.218788
vt 0.801476 0.220598
vt 0.806460 0.219967
vt 0.806214 0.223174
vt 0.553297 0.828530
vt 0.616750 0.932465
vt 0.614164 0.932636
vt 0.613863 0.828767
vt 0.617684 0.828787
vt 0.816748 0.223177
vt 0.816324 0.218549
vt 0.820020 0.220886
vt 0.282372 0.504785
vt 0.655227 0.828542
vt 0.658142 0.828583
vt 0.290143 0.565560
vt 0.167022 0.717651
vt 0.167020 0.565558
vt 0.098748 0.827452
vt 0.100373 0.950934
vt 0.096822 0.950731
vt 0.289394 0.878570
vt 0.287381 0.726423
vt 0.291105 0.726411
vt 0.290251 0.717497
vt 0.679750 0.714225
vt 0.802449 0.566024
vt 0.802799 0.714813
vt 0.679128 0.565420
vt 0.892043 0.451803
vt 0.893793 0.299828
vt 0.895766 0.451791
vt 0.108945 0.827711
vt 0.112524 0.827522
vt 0.110602 0.950830
vt 0.852646 0.490250
vt 0.849088 0.300344
vt 0.855816 0.300170
vt 0.252642 0.834706
vt 0.238398 0.833097
vt 0.226085 0.820887
vt 0.868684 0.490047
vt 0.869556 0.300122
vt 0.225334 0.802204
vt 0.883146 0.490089
vt 0.238199 0.788642
vt 0.256932 0.788346
vt 0.840887 0.489308
vt 0.827055 0.489312
vt 0.827982 0.299812
vt 0.270158 0.801716
vt 0.741727 0.490125
vt 0.723220 0.489850
vt 0.724084 0.300240
vt 0.271877 0.815906
vt 0.265825 0.827115
vt 0.789217 0.489925
vt 0.779613 0.300087
vt 0.794506 0.300077
vt 0.773852 0.490241
vt 0.797781 0.489866
vt 0.742509 0.300087
vt 0.754598 0.490113
vt 0.754667 0.299887
vt 0.830585 0.234383
vt 0.843129 0.241322
vt 0.849830 0.257312
vt 0.843376 0.274862
vt 0.809900 0.299809
vt 0.826300 0.282468
vt 0.808881 0.275573
vt 0.809224 0.489307
vt 0.883492 0.300464
vt 0.801778 0.258159
vt 0.805619 0.244390
vt 0.815264 0.236470
vt 0.766455 0.300073
vt 0.763133 0.490125
vt 0.840887 0.299809
vt 0.789865 0.738833
vt 0.789967 0.756037
vt 0.781465 0.752640
vt 0.752317 0.774792
vt 0.737052 0.773046
vt 0.723827 0.759947
vt 0.781608 0.759853
vt 0.781510 0.737912
vt 0.790024 0.723332
vt 0.781965 0.722996
vt 0.723038 0.739932
vt 0.838211 0.527279
vt 0.846014 0.508908
vt 0.846012 0.528284
vt 0.838214 0.508176
vt 0.736827 0.725399
vt 0.838216 0.542105
vt 0.756905 0.725079
vt 0.846016 0.542104
vt 0.771091 0.739392
vt 0.232995 0.526886
vt 0.232649 0.546706
vt 0.224713 0.545756
vt 0.233022 0.513089
vt 0.224630 0.526020
vt 0.224465 0.512991
vt 0.772944 0.754600
vt 0.766438 0.766638
vt 0.241717 0.524747
vt 0.241823 0.513241
vt 0.250193 0.516809
vt 0.242054 0.541205
vt 0.250193 0.530901
vt 0.250228 0.546858
vt 0.242129 0.550382
vt 0.198170 0.726406
vt 0.171385 0.737167
vt 0.181766 0.728656
vt 0.211605 0.733861
vt 0.218808 0.751022
vt 0.211879 0.769817
vt 0.193578 0.777969
vt 0.174907 0.770581
vt 0.167278 0.751927
vt 0.093233 0.818633
vt 0.067131 0.808153
vt 0.063280 0.798933
vt 0.074211 0.815197
vt 0.063034 0.788723
vt 0.066843 0.779390
vt 0.073939 0.772239
vt 0.083234 0.768361
vt 0.093306 0.768350
vt 0.109724 0.779359
vt 0.113368 0.788970
vt 0.102612 0.772211
vt 0.109493 0.808179
vt 0.102963 0.814761
vt 0.113338 0.798962
vt 0.082928 0.818862
vt 0.751536 0.783699
vt 0.767794 0.794151
vt 0.771639 0.803367
vt 0.761146 0.787433
vt 0.771668 0.813359
vt 0.767989 0.822888
vt 0.760899 0.830053
vt 0.751607 0.833945
vt 0.741535 0.833971
vt 0.732226 0.830127
vt 0.725106 0.822998
vt 0.721272 0.813673
vt 0.725432 0.794176
vt 0.732512 0.787133
vt 0.721581 0.803397
vt 0.740444 0.783867
vt 0.034504 0.818633
vt 0.015210 0.772239
vt 0.024505 0.768361
vt 0.034577 0.768350
vt 0.043882 0.772211
vt 0.050994 0.779359
vt 0.050763 0.808179
vt 0.044233 0.814761
vt 0.054609 0.798962
vt 0.810263 0.783699
vt 0.826521 0.794151
vt 0.830366 0.803367
vt 0.830395 0.813359
vt 0.826717 0.822888
vt 0.819627 0.830053
vt 0.790953 0.830127
vt 0.783834 0.822998
vt 0.800263 0.833971
vt 0.810334 0.833945
vt 0.791240 0.787133
vt 0.799172 0.783867
vt 0.784160 0.794176
vt 0.780309 0.803397
vt 0.779999 0.813673
vt 0.819874 0.787432
vt 0.054638 0.788970
vt 0.008113 0.779390
vt 0.004304 0.788723
vt 0.004550 0.798933
vt 0.008401 0.808154
vt 0.015481 0.815197
vt 0.024198 0.818862
vt 0.196086 0.834706
vt 0.181643 0.788642
vt 0.200376 0.788346
vt 0.181842 0.833096
vt 0.169528 0.820887
vt 0.213601 0.801716
vt 0.168778 0.802204
vt 0.215320 0.815906
vt 0.209268 0.827116
vt 0.784766 0.194211
vt 0.775163 0.004372
vt 0.790056 0.004363
vt 0.769401 0.194526
vt 0.793331 0.194152
vt 0.878696 0.194374
vt 0.864233 0.194333
vt 0.865105 0.004408
vt 0.879042 0.004750
vt 0.836436 0.193593
vt 0.823532 0.004098
vt 0.836436 0.004094
vt 0.822604 0.193597
vt 0.485259 0.770536
vt 0.466752 0.770261
vt 0.467616 0.580651
vt 0.486041 0.580498
vt 0.498129 0.770525
vt 0.758683 0.194410
vt 0.762004 0.004359
vt 0.498199 0.580298
vt 0.033201 0.827539
vt 0.045745 0.834477
vt 0.052446 0.850468
vt 0.045992 0.868017
vt 0.028916 0.875623
vt 0.011497 0.868729
vt 0.004394 0.851314
vt 0.008235 0.837545
vt 0.017880 0.829626
vt 0.851366 0.004455
vt 0.848196 0.194536
vt 0.844638 0.004630
vt 0.805450 0.004094
vt 0.804774 0.193593
vt 0.284492 0.528805
vt 0.276092 0.542612
vt 0.276137 0.527884
vt 0.284595 0.546009
vt 0.750641 0.556485
vt 0.735375 0.554739
vt 0.722151 0.541639
vt 0.854200 0.527279
vt 0.862003 0.508908
vt 0.862001 0.528284
vt 0.854203 0.508176
vt 0.721362 0.521625
vt 0.735151 0.507091
vt 0.755228 0.506771
vt 0.854205 0.542105
vt 0.862005 0.542104
vt 0.769414 0.521084
vt 0.771268 0.536292
vt 0.215907 0.513089
vt 0.215880 0.526886
vt 0.207515 0.526020
vt 0.259197 0.541205
vt 0.267336 0.530902
vt 0.267371 0.546858
vt 0.258859 0.524747
vt 0.764762 0.548330
vt 0.259272 0.550382
vt 0.258966 0.513241
vt 0.267336 0.516809
vt 0.207351 0.512991
vt 0.258202 0.726407
vt 0.271637 0.733861
vt 0.278840 0.751022
vt 0.271911 0.769818
vt 0.253610 0.777969
vt 0.231416 0.737167
vt 0.241797 0.728656
vt 0.234939 0.770582
vt 0.227310 0.751927
vt 0.207598 0.545756
vt 0.215534 0.546706
vt 0.284651 0.513305
vt 0.276592 0.512969
vt 0.276235 0.549825
vt 0.809893 0.555181
vt 0.783790 0.544702
vt 0.779939 0.535481
vt 0.790870 0.551745
vt 0.779693 0.525271
vt 0.783502 0.515938
vt 0.826383 0.515907
vt 0.830027 0.525518
vt 0.819271 0.508759
vt 0.799893 0.504909
vt 0.809965 0.504898
vt 0.790599 0.508787
vt 0.826152 0.544727
vt 0.819622 0.551309
vt 0.829998 0.535510
vt 0.799587 0.555410
vt 0.447674 0.780030
vt 0.457284 0.783764
vt 0.463932 0.790482
vt 0.467777 0.799699
vt 0.467805 0.809691
vt 0.421244 0.819330
vt 0.417410 0.810004
vt 0.428364 0.826458
vt 0.464127 0.819219
vt 0.457037 0.826384
vt 0.421570 0.790508
vt 0.428650 0.783464
vt 0.417719 0.799728
vt 0.437673 0.830302
vt 0.447744 0.830276
vt 0.436582 0.780198
vt 0.330216 0.830163
vt 0.304114 0.819683
vt 0.300263 0.810463
vt 0.311193 0.826727
vt 0.346476 0.819709
vt 0.339945 0.826291
vt 0.350321 0.810492
vt 0.388946 0.780030
vt 0.405204 0.790482
vt 0.409049 0.799699
vt 0.398556 0.783764
vt 0.409078 0.809691
vt 0.405399 0.819219
vt 0.398309 0.826384
vt 0.389017 0.830276
vt 0.378945 0.830302
vt 0.369636 0.826458
vt 0.369923 0.783464
vt 0.377854 0.780198
vt 0.362843 0.790508
vt 0.362516 0.819330
vt 0.358991 0.799728
vt 0.358682 0.810004
vt 0.350350 0.800500
vt 0.346707 0.790889
vt 0.339595 0.783741
vt 0.330289 0.779879
vt 0.320217 0.779890
vt 0.310922 0.783769
vt 0.303825 0.790920
vt 0.300016 0.800253
vt 0.319911 0.830392
vt 0.880246 0.551388
vt 0.877295 0.553074
vt 0.877118 0.550708
vt 0.879416 0.554002
vt 0.867765 0.550991
vt 0.866971 0.554227
vt 0.864914 0.551959
vt 0.688254 0.267577
vt 0.694330 0.284833
vt 0.687901 0.284886
vt 0.147302 0.882239
vt 0.153861 0.768201
vt 0.153884 0.882234
vt 0.694364 0.267593
vt 0.850324 0.887745
vt 0.850363 0.775810
vt 0.867580 0.775999
vt 0.147279 0.768206
vt 0.678850 0.925791
vt 0.685409 0.811751
vt 0.685432 0.925787
vt 0.867541 0.887927
vt 0.673130 0.267647
vt 0.679567 0.267602
vt 0.679531 0.284842
vt 0.673489 0.284954
vt 0.678827 0.811756
vt 0.138948 0.768597
vt 0.121680 0.882896
vt 0.121719 0.768555
vt 0.138909 0.882938
vt 0.889063 0.552328
vt 0.891140 0.551036
vt 0.891263 0.553475
vt 0.900307 0.552328
vt 0.902385 0.551036
vt 0.902507 0.553475
vt 0.883619 0.539710
vt 0.888493 0.505117
vt 0.888546 0.539642
vt 0.758633 0.203140
vt 0.793037 0.203046
vt 0.793083 0.282497
vt 0.873962 0.203279
vt 0.878905 0.203320
vt 0.878850 0.282609
vt 0.758679 0.282591
vt 0.870312 0.539714
vt 0.870260 0.505188
vt 0.875186 0.505120
vt 0.860488 0.203281
vt 0.865374 0.282611
vt 0.860436 0.282563
vt 0.875239 0.539646
vt 0.873911 0.282568
vt 0.679027 0.723471
vt 0.712749 0.802499
vt 0.679072 0.802875
vt 0.712705 0.723096
vt 0.865429 0.203329
vt 0.883566 0.505184
vt 0.595815 0.267810
vt 0.610721 0.289105
vt 0.595823 0.289158
vt 0.610714 0.267757
vt 0.657808 0.267376
vt 0.664860 0.267377
vt 0.664860 0.288262
vt 0.717946 0.281994
vt 0.724912 0.267380
vt 0.724968 0.282059
vt 0.702677 0.282633
vt 0.709689 0.267636
vt 0.709699 0.282692
vt 0.702666 0.267577
vt 0.657808 0.288261
vt 0.718008 0.267376
vt 0.619501 0.267918
vt 0.634092 0.267745
vt 0.634090 0.289079
vt 0.642640 0.267760
vt 0.649618 0.267834
vt 0.649625 0.288916
vt 0.619512 0.289254
vt 0.642575 0.288906
vt 0.805594 0.203350
vt 0.805594 0.218215
vt 0.970450 0.430567
vt 0.969872 0.430669
vt 0.970705 0.284169
vt 0.300401 0.985680
vt 0.299823 0.985782
vt 0.300462 0.838937
vt 0.989332 0.873358
vt 0.989183 0.872948
vt 0.989639 0.723357
vt 0.756369 0.992382
vt 0.756220 0.991972
vt 0.756537 0.842380
vt 0.088210 0.827711
vt 0.980471 0.867260
vt 0.979892 0.867362
vt 0.980726 0.720861
vt 0.979801 0.151063
vt 0.979223 0.151165
vt 0.979864 0.004320
vt 0.507002 0.727189
vt 0.506423 0.727291
vt 0.507065 0.580446
vt 0.971180 0.867260
vt 0.970602 0.867362
vt 0.971243 0.720517
vt 0.452743 0.838818
vt 0.452865 0.839240
vt 0.452462 0.988853
vt 0.381713 0.985678
vt 0.381135 0.985781
vt 0.381776 0.838936
vt 0.919414 0.845765
vt 0.930627 0.845765
vt 0.668723 0.947045
vt 0.667153 0.947445
vt 0.668717 0.828944
vt 0.576972 0.947118
vt 0.699703 0.811159
vt 0.066712 0.827179
vt 0.800216 0.992382
vt 0.800068 0.991972
vt 0.800384 0.842380
vt 0.783095 0.991980
vt 0.782539 0.992405
vt 0.782845 0.842380
vt 0.808986 0.992382
vt 0.808836 0.991972
vt 0.809293 0.842382
vt 0.739248 0.991980
vt 0.738692 0.992405
vt 0.738998 0.842380
vt 0.818173 0.991980
vt 0.817616 0.992405
vt 0.817923 0.842380
vt 0.747600 0.992382
vt 0.747451 0.991972
vt 0.747907 0.842382
vt 0.765557 0.991980
vt 0.765003 0.992405
vt 0.765307 0.842380
vt 0.708784 0.811477
vt 0.077437 0.827711
vt 0.980470 0.712002
vt 0.979892 0.712104
vt 0.980533 0.565260
vt 0.372422 0.985679
vt 0.371844 0.985781
vt 0.372677 0.839280
vt 0.970510 0.151063
vt 0.969932 0.151165
vt 0.970573 0.004320
vt 0.971179 0.712002
vt 0.970601 0.712104
vt 0.971434 0.565604
vt 0.591746 0.828605
vt 0.564758 0.947540
vt 0.212161 0.402684
vt 0.255931 0.402684
vt 0.839936 0.781799
vt 0.802524 0.209237
vt 0.921328 0.846716
vt 0.542310 0.829064
vt 0.932527 0.846716
vt 0.802524 0.224102
vt 0.555601 0.829064
s 1
usemtl factory_004_baked
f 3/1/1 1/2/1 2/3/1
f 3/1/1 2/3/1 4/4/1
f 53/5/2 54/6/2 50/7/2
f 57/8/3 59/9/3 61/10/3
f 91/11/4 92/12/4 88/13/4
f 96/14/3 98/15/3 100/16/3
f 310/17/5 311/18/6 309/19/7
f 121/20/8 119/21/9 120/22/10
f 132/23/11 133/24/12 131/25/13
f 155/26/14 157/27/15 156/28/16
f 295/29/17 300/30/18 297/31/19
f 317/32/20 314/33/21 316/34/22
f 55/35/23 50/36/23 49/37/23
f 56/38/24 72/39/25 68/40/26
f 78/41/27 88/42/27 87/43/27
f 79/44/28 105/45/29 104/46/30
f 150/47/31 151/48/32 149/49/33
f 59/50/34 48/51/34 47/52/34
f 52/53/35 66/54/35 67/55/35
f 98/56/34 82/57/34 81/58/34
f 90/59/35 86/60/35 93/61/35
f 317/62/20 316/63/22 315/64/6
f 64/65/36 57/66/36 63/67/36
f 69/68/37 52/53/38 74/69/39
f 85/70/36 96/71/36 84/72/36
f 94/73/37 90/59/38 95/74/40
f 118/75/41 117/76/42 116/77/43
f 122/78/44 123/79/45 124/80/46
f 129/81/47 130/82/48 128/83/49
f 141/84/50 142/85/51 140/86/52
f 147/87/53 148/88/54 146/89/55
f 54/6/56 73/90/56 49/91/56
f 92/12/56 106/92/56 87/93/56
f 294/94/57 297/95/19 298/96/58
f 313/97/20 309/98/7 312/99/22
f 65/100/59 51/101/60 50/36/61
f 77/102/59 89/103/62 88/42/63
f 71/104/64 60/105/65 59/106/66
f 75/107/67 54/6/68 53/5/69
f 101/108/64 99/109/65 98/110/66
f 102/111/67 92/12/68 91/11/69
f 296/112/70 298/113/58 300/114/18
f 313/115/20 312/116/22 311/117/6
f 318/118/5 315/119/6 314/120/21
f 5/121/71 12/122/72 10/123/73
f 5/121/71 11/124/74 12/122/72
f 9/125/75 5/126/71 10/127/73
f 9/128/75 11/129/74 5/130/71
f 11/131/74 6/132/76 8/133/77
f 6/134/76 7/135/78 8/136/77
f 6/134/76 9/137/75 7/135/78
f 9/128/75 6/138/76 11/129/74
f 10/139/73 8/140/77 7/141/78
f 9/125/75 10/127/73 7/142/78
f 11/131/74 8/133/77 12/143/72
f 10/139/73 12/144/72 8/140/77
f 13/145/79 20/146/80 14/147/81
f 13/145/79 18/148/82 20/146/80
f 13/149/79 15/150/83 17/151/84
f 15/152/83 13/153/79 14/154/81
f 13/149/79 17/151/84 18/155/82
f 15/152/83 14/154/81 16/156/85
f 20/157/80 16/158/85 14/159/81
f 17/160/84 15/161/83 16/162/85
f 17/160/84 16/162/85 19/163/86
f 20/157/80 19/164/86 16/158/85
f 18/165/82 17/166/84 19/167/86
f 18/165/82 19/167/86 20/168/80
f 26/169/87 22/170/88 21/171/89
f 25/172/90 21/173/91 22/174/92
f 25/175/90 24/176/93 21/171/91
f 21/171/89 24/176/94 26/169/87
f 26/177/87 24/178/94 23/179/95
f 25/175/90 23/180/96 24/176/93
f 27/181/97 32/182/98 30/183/99
f 27/181/97 28/184/100 32/182/98
f 28/185/100 27/186/97 29/187/101
f 29/188/101 27/189/97 30/190/99
f 28/191/100 31/192/102 32/193/98
f 28/191/100 29/194/101 31/192/102
f 29/188/101 30/190/99 31/195/102
f 31/196/102 30/197/99 32/198/98
f 33/199/97 34/200/100 38/201/98
f 33/199/97 38/201/98 36/202/99
f 34/203/100 33/204/97 35/205/101
f 34/206/100 37/207/102 38/208/98
f 34/206/100 35/209/101 37/207/102
f 35/210/101 33/211/97 36/212/99
f 35/210/101 36/212/99 37/213/102
f 37/214/102 36/215/99 38/216/98
f 40/217/103 39/218/104 44/219/105
f 40/217/103 44/219/105 43/220/106
f 39/221/104 40/222/103 41/223/107
f 41/224/107 40/225/103 43/226/106
f 39/227/104 42/228/108 44/229/105
f 39/227/104 41/230/107 42/228/108
f 41/224/107 43/226/106 42/231/108
f 42/232/108 43/233/106 44/234/105
f 47/235/109 45/236/110 63/237/111
f 46/238/112 45/239/110 47/240/109
f 45/241/110 65/242/59 63/67/111
f 46/238/112 66/243/113 45/239/110
f 67/55/114 46/244/112 55/245/115
f 46/246/116 48/51/116 59/50/116
f 47/235/117 63/237/117 58/247/117
f 46/248/118 56/249/119 62/250/120
f 55/245/121 51/251/121 67/55/121
f 53/5/69 69/68/122 75/107/67
f 53/252/123 73/253/123 74/254/123
f 62/255/124 65/100/125 50/36/126
f 66/54/113 51/251/60 65/256/59
f 72/257/127 54/6/68 75/107/67
f 46/246/128 59/50/128 57/258/128
f 62/255/124 57/259/129 64/260/130
f 59/106/131 61/261/131 71/104/131
f 74/254/39 56/262/24 61/10/132
f 74/254/39 61/10/132 60/263/133
f 62/255/124 64/260/130 65/100/125
f 45/241/110 66/264/113 65/242/59
f 74/254/39 72/265/25 56/262/24
f 68/40/134 70/266/135 71/267/64
f 68/40/134 72/39/127 70/266/135
f 69/268/122 71/269/64 75/270/67
f 69/268/122 60/271/65 71/269/64
f 74/254/39 60/263/133 69/272/37
f 72/257/127 75/107/67 70/273/135
f 75/274/67 71/275/64 70/276/135
f 74/254/39 73/253/136 72/265/25
f 76/277/128 98/56/128 96/278/128
f 76/277/116 82/57/116 98/56/116
f 76/279/112 86/280/113 83/281/110
f 76/279/112 83/281/110 81/282/137
f 93/61/138 76/283/112 78/284/115
f 83/285/110 77/286/59 84/72/139
f 80/287/140 85/288/141 77/102/142
f 78/284/121 89/289/121 93/61/121
f 76/290/143 79/291/144 80/292/145
f 81/293/137 83/294/110 84/295/139
f 81/293/117 84/295/117 97/296/117
f 83/285/110 86/297/113 77/286/59
f 80/287/140 96/298/146 85/288/141
f 86/60/113 89/289/62 77/299/59
f 80/287/140 77/102/142 88/42/147
f 91/11/69 94/73/122 102/111/67
f 91/300/123 106/301/123 95/302/123
f 105/303/127 92/12/68 102/111/67
f 95/302/40 79/304/28 100/16/148
f 95/302/40 105/305/29 79/304/28
f 95/302/40 99/306/133 94/307/37
f 95/302/40 106/301/136 105/305/29
f 95/302/40 100/16/148 99/306/133
f 98/110/149 100/308/149 101/108/149
f 94/309/122 99/310/65 101/311/64
f 94/309/122 101/311/64 102/312/67
f 102/313/67 101/314/64 103/315/135
f 105/303/127 102/111/67 103/316/135
f 104/46/134 103/317/135 101/318/64
f 104/46/134 105/45/127 103/317/135
f 112/319/150 107/320/151 110/321/152
f 108/322/153 111/323/154 107/324/151
f 110/325/152 107/326/151 111/327/154
f 112/319/150 108/328/153 107/320/151
f 108/329/153 110/330/152 111/331/154
f 108/329/153 109/332/155 110/330/152
f 109/333/155 108/334/153 112/335/150
f 109/336/155 112/337/150 110/338/152
f 158/339/156 175/340/157 174/341/158
f 162/342/159 158/343/156 159/344/160
f 159/345/161 158/339/162 174/341/163
f 159/345/161 174/341/163 173/346/164
f 162/342/159 159/344/160 172/347/165
f 172/348/165 159/345/161 173/346/164
f 162/342/159 160/349/166 161/350/167
f 161/351/167 160/352/166 171/353/168
f 162/342/159 161/350/167 163/354/169
f 163/355/170 161/356/167 165/357/171
f 162/342/159 163/354/169 169/358/172
f 162/342/159 172/347/165 160/349/166
f 162/342/159 169/358/172 168/359/173
f 162/360/159 167/361/174 175/362/175
f 162/360/159 168/363/173 167/361/174
f 158/364/156 162/360/159 175/362/157
f 163/355/170 165/357/171 164/365/176
f 169/366/177 163/355/170 164/365/176
f 169/366/177 164/365/176 170/367/178
f 167/368/174 170/369/179 164/370/180
f 167/368/174 164/370/180 165/371/171
f 160/352/166 166/372/181 171/353/168
f 167/368/174 171/373/168 166/374/181
f 160/352/166 172/375/165 166/372/181
f 172/348/165 173/346/164 166/376/181
f 167/368/174 166/374/181 173/377/182
f 167/368/174 174/378/183 175/379/175
f 167/368/174 173/377/182 174/378/183
f 167/368/174 165/371/171 171/373/168
f 168/363/184 170/380/179 167/361/174
f 168/363/184 169/381/185 170/380/179
f 161/351/167 171/353/168 165/382/171
f 177/383/186 176/384/187 192/385/188
f 182/386/189 176/387/190 177/388/191
f 176/384/190 184/389/192 192/385/193
f 177/383/186 192/385/188 191/390/194
f 178/391/195 191/390/194 190/392/196
f 178/391/195 177/383/186 191/390/194
f 182/386/189 177/388/191 178/393/195
f 179/394/197 190/395/196 189/396/198
f 179/394/197 178/397/195 190/395/196
f 182/386/189 178/393/195 179/398/197
f 180/399/199 179/394/197 189/396/198
f 182/386/189 179/398/197 180/400/199
f 180/399/199 189/396/198 188/401/200
f 182/386/189 180/400/199 186/402/201
f 186/403/202 180/404/199 188/405/200
f 181/406/203 187/407/204 183/408/205
f 181/406/203 186/403/202 187/407/204
f 182/386/189 186/402/201 181/409/206
f 182/386/189 181/409/206 185/410/207
f 185/411/208 181/412/209 183/413/210
f 182/414/189 193/415/211 184/416/212
f 182/414/189 185/411/207 193/415/211
f 176/417/190 182/414/189 184/416/192
f 185/411/208 183/413/210 193/415/211
f 193/418/211 192/419/213 184/420/212
f 193/418/211 183/421/210 187/422/214
f 186/403/202 188/405/200 187/407/204
f 193/418/211 187/422/214 188/423/200
f 193/418/211 188/423/200 189/424/198
f 193/418/211 189/424/198 190/425/196
f 193/418/211 190/425/196 191/426/215
f 193/418/211 191/426/215 192/419/213
f 197/427/216 194/428/217 209/429/218
f 197/427/216 207/430/219 194/428/217
f 197/427/216 206/431/220 195/432/221
f 197/427/216 195/432/221 196/433/222
f 197/427/216 196/433/222 198/434/223
f 197/427/216 198/434/223 205/435/224
f 197/427/216 200/436/225 204/437/226
f 197/427/216 199/438/227 200/436/225
f 197/427/216 201/439/228 202/440/229
f 197/427/216 203/441/230 201/439/228
f 197/427/216 205/435/224 199/438/227
f 197/427/216 209/429/218 206/431/220
f 197/427/216 204/437/226 203/441/230
f 197/427/216 208/442/231 207/430/219
f 202/443/229 203/444/230 204/445/226
f 202/443/229 201/446/228 203/444/230
f 202/443/229 204/445/226 200/447/225
f 202/443/229 199/448/227 205/449/224
f 202/443/229 200/447/225 199/448/227
f 202/443/229 205/449/224 198/450/223
f 202/443/229 198/450/223 196/451/222
f 202/443/229 196/451/222 195/452/221
f 202/443/229 206/453/220 209/454/218
f 202/443/229 195/452/221 206/453/220
f 202/443/229 207/455/219 208/456/231
f 202/443/229 194/457/217 207/455/219
f 202/443/229 209/454/218 194/457/217
f 202/443/229 208/456/231 197/458/216
f 225/459/216 220/460/222 210/461/232
f 225/459/216 210/461/232 211/462/224
f 225/459/216 211/462/224 212/463/227
f 225/459/216 212/463/227 219/464/225
f 225/459/216 213/465/228 216/466/229
f 225/459/216 218/467/230 213/465/228
f 216/468/229 218/469/230 214/470/226
f 216/468/229 214/470/226 219/471/225
f 216/468/229 212/472/227 211/473/224
f 216/468/229 219/471/225 212/472/227
f 216/468/229 215/474/221 221/475/220
f 216/468/229 220/476/222 215/474/221
f 216/468/229 211/473/224 210/477/232
f 216/468/229 217/478/231 225/479/216
f 216/468/229 224/480/219 217/478/231
f 216/468/229 223/481/217 224/480/219
f 216/468/229 222/482/218 223/481/217
f 216/468/229 213/483/228 218/469/230
f 216/468/229 210/477/232 220/476/222
f 216/468/229 221/475/220 222/482/218
f 225/459/216 214/484/226 218/467/230
f 225/459/216 219/464/225 214/484/226
f 225/459/216 215/485/221 220/460/222
f 225/459/216 221/486/220 215/485/221
f 225/459/216 222/487/218 221/486/220
f 225/459/216 223/488/217 222/487/218
f 225/459/216 224/489/219 223/488/217
f 225/459/216 217/490/231 224/489/219
f 226/491/159 240/492/166 229/493/167
f 226/491/159 242/494/156 227/495/160
f 226/491/159 229/493/167 230/496/169
f 226/491/159 228/497/165 240/492/166
f 226/491/159 231/498/172 239/499/173
f 226/491/159 227/495/160 228/497/165
f 226/491/159 230/496/169 231/498/172
f 226/500/159 235/501/174 243/502/175
f 226/500/159 239/503/173 235/501/174
f 242/504/156 226/500/159 243/502/157
f 228/505/165 227/506/161 241/507/164
f 228/505/165 241/507/164 237/508/181
f 229/509/167 236/510/168 234/511/171
f 229/509/167 240/512/166 236/510/168
f 230/513/170 229/514/167 234/515/171
f 230/513/170 234/515/171 233/516/176
f 231/517/177 230/513/170 233/516/176
f 239/503/184 231/518/185 232/519/179
f 231/517/177 233/516/176 232/520/178
f 239/503/184 232/519/179 235/501/174
f 235/521/174 232/522/179 233/523/180
f 235/521/174 234/524/171 236/525/168
f 235/521/174 237/526/181 241/527/182
f 235/521/174 233/523/180 234/524/171
f 235/521/174 238/528/183 243/529/175
f 235/521/174 241/527/182 238/528/183
f 235/521/174 236/525/168 237/526/181
f 227/506/161 238/530/163 241/507/164
f 227/506/161 242/531/162 238/530/163
f 242/531/156 243/532/157 238/530/158
f 240/512/166 237/533/181 236/510/168
f 240/512/166 228/534/165 237/533/181
f 244/535/186 259/536/188 255/537/194
f 244/535/186 260/538/187 259/536/188
f 248/539/189 260/540/190 244/541/191
f 245/542/197 258/543/196 254/544/198
f 245/542/197 257/545/195 258/543/196
f 248/539/189 257/546/195 245/547/197
f 248/539/189 245/547/197 246/548/199
f 246/549/199 245/542/197 254/544/198
f 246/549/199 254/544/198 253/550/200
f 248/539/189 247/551/201 256/552/206
f 256/553/203 247/554/202 252/555/204
f 248/539/189 244/541/191 257/546/195
f 248/556/189 251/557/233 261/558/212
f 248/556/189 249/559/207 251/557/233
f 248/539/189 246/548/199 247/551/201
f 248/539/189 256/552/206 249/560/207
f 260/561/190 248/556/189 261/558/192
f 249/559/208 256/562/209 250/563/210
f 256/553/203 252/555/204 250/564/205
f 251/565/233 250/566/210 252/567/214
f 251/565/233 253/568/200 254/569/198
f 251/565/233 259/570/213 261/571/212
f 251/565/233 254/569/198 258/572/196
f 249/559/208 250/563/210 251/557/233
f 251/565/233 252/567/214 253/568/200
f 251/565/233 255/573/215 259/570/213
f 251/565/233 258/572/196 255/573/215
f 247/554/202 253/574/200 252/555/204
f 247/554/202 246/575/199 253/574/200
f 257/576/195 255/537/194 258/577/196
f 257/576/195 244/535/186 255/537/194
f 260/538/190 261/578/192 259/536/193
f 265/579/216 262/580/217 271/581/218
f 265/579/216 276/582/219 262/580/217
f 265/579/216 263/583/220 275/584/221
f 265/579/216 271/581/218 263/583/220
f 265/579/216 264/585/225 269/586/226
f 265/579/216 272/587/227 264/585/225
f 265/579/216 270/588/232 273/589/224
f 265/579/216 274/590/222 270/588/232
f 265/579/216 275/584/221 274/590/222
f 265/579/216 266/591/228 267/592/229
f 265/579/216 268/593/230 266/591/228
f 265/579/216 273/589/224 272/587/227
f 265/579/216 269/586/226 268/593/230
f 265/579/216 277/594/231 276/582/219
f 267/595/229 266/596/228 268/597/230
f 267/595/229 269/598/226 264/599/225
f 267/595/229 268/597/230 269/598/226
f 267/595/229 263/600/220 271/601/218
f 267/595/229 275/602/221 263/600/220
f 267/595/229 272/603/227 273/604/224
f 267/595/229 264/599/225 272/603/227
f 267/595/229 276/605/219 277/606/231
f 267/595/229 262/607/217 276/605/219
f 267/595/229 274/608/222 275/602/221
f 267/595/229 270/609/232 274/608/222
f 267/595/229 271/601/218 262/607/217
f 267/595/229 273/604/224 270/609/232
f 267/595/229 277/606/231 265/610/216
f 293/611/216 278/612/217 292/613/218
f 293/611/216 287/614/219 278/612/217
f 293/611/216 279/615/228 280/616/229
f 293/611/216 281/617/230 279/615/228
f 280/618/229 281/619/230 282/620/226
f 280/618/229 279/621/228 281/619/230
f 280/618/229 282/620/226 283/622/225
f 280/618/229 283/622/225 289/623/227
f 280/618/229 284/624/224 285/625/232
f 280/618/229 289/623/227 284/624/224
f 280/618/229 285/625/232 286/626/234
f 280/618/229 286/626/234 291/627/221
f 280/618/229 288/628/231 293/629/216
f 280/618/229 287/630/219 288/628/231
f 280/618/229 291/627/221 290/631/220
f 280/618/229 278/632/217 287/630/219
f 280/618/229 292/633/218 278/632/217
f 280/618/229 290/631/220 292/633/218
f 293/611/216 282/634/226 281/617/230
f 293/611/216 283/635/225 282/634/226
f 293/611/216 289/636/227 283/635/225
f 293/611/216 284/637/224 289/636/227
f 293/611/216 285/638/232 284/637/224
f 293/611/216 286/639/234 285/638/232
f 293/611/216 291/640/221 286/639/234
f 293/611/216 292/613/218 290/641/220
f 293/611/216 290/641/220 291/640/221
f 293/611/216 288/642/231 287/614/219
f 294/643/57 296/644/70 295/645/17
f 294/643/57 299/646/235 296/644/70
f 300/647/18 298/648/58 297/649/19
f 301/650/236 307/651/237 302/652/238
f 301/653/236 306/654/239 305/655/240
f 301/650/236 305/656/240 307/651/237
f 303/657/241 301/658/242 302/659/243
f 301/653/236 303/660/244 306/654/239
f 307/661/237 304/662/245 302/663/238
f 303/657/241 302/659/243 304/664/246
f 306/665/239 303/666/244 304/667/245
f 306/665/239 304/667/245 308/668/247
f 307/661/237 308/669/247 304/662/245
f 305/670/248 308/671/249 307/672/250
f 305/670/248 306/673/251 308/671/249
f 312/674/22 309/675/7 311/676/6
f 316/677/22 314/678/21 315/679/6
f 326/680/252 324/681/253 319/682/254
f 319/683/254 324/684/253 320/685/255
f 326/686/252 319/687/254 321/688/256
f 319/683/254 320/685/255 321/689/256
f 321/690/256 320/691/255 325/692/257
f 324/693/253 325/694/257 320/695/255
f 321/690/256 325/692/257 323/696/258
f 326/686/252 321/688/256 323/697/258
f 322/698/259 323/699/258 325/700/257
f 322/698/259 326/701/252 323/699/258
f 324/693/253 322/702/259 325/694/257
f 326/680/252 322/703/259 324/681/253
f 327/704/260 332/705/261 328/706/262
f 327/704/260 333/707/263 332/705/261
f 329/708/264 327/709/260 328/710/262
f 329/711/264 333/712/263 327/713/260
f 328/714/262 331/715/265 334/716/266
f 328/714/262 332/717/261 331/715/265
f 329/708/264 328/710/262 334/718/266
f 329/711/264 330/719/267 333/712/263
f 330/720/267 329/721/264 334/722/266
f 333/723/263 330/724/267 331/725/265
f 330/720/267 334/722/266 331/726/265
f 333/723/263 331/725/265 332/727/261
f 54/6/268 49/91/268 50/7/268
f 50/7/269 51/251/269 52/53/269
f 52/53/270 53/5/270 50/7/270
f 61/10/271 56/262/271 57/8/271
f 57/8/272 58/728/272 59/9/272
f 59/9/273 60/263/133 61/10/132
f 92/12/268 87/93/268 88/13/268
f 88/13/269 89/289/269 90/59/269
f 90/59/270 91/11/270 88/13/270
f 100/16/274 79/304/274 96/14/274
f 96/14/275 97/729/275 98/15/275
f 98/15/273 99/306/133 100/16/148
f 136/730/276 134/731/277 135/732/277
f 146/733/55 148/734/54 147/735/53
f 134/736/277 136/737/276 135/738/277
f 154/739/276 153/740/277 152/741/277
f 317/32/20 318/742/5 314/33/21
f 55/35/278 62/255/124 50/36/126
f 47/52/109 48/51/279 46/246/112
f 65/242/59 64/65/280 63/67/111
f 78/41/281 80/287/140 88/42/147
f 81/58/137 82/57/282 76/277/112
f 77/286/59 85/70/280 84/72/139
f 116/743/43 117/744/42 118/745/41
f 124/746/46 123/747/45 122/748/44
f 128/749/49 130/750/48 129/751/47
f 140/752/52 142/753/51 141/754/50
f 149/755/33 151/756/32 150/757/31
f 153/758/277 154/759/276 152/760/277
f 59/50/283 58/761/283 48/51/283
f 52/53/284 51/251/60 66/54/113
f 98/56/283 97/762/283 82/57/283
f 90/59/284 89/289/62 86/60/113
f 299/763/235 294/764/57 298/765/58
f 295/29/17 296/766/70 300/30/18
f 64/65/285 58/767/285 57/66/285
f 69/68/286 53/5/286 52/53/286
f 85/70/287 97/768/287 96/71/287
f 94/73/286 91/11/286 90/59/286
f 113/769/276 114/770/277 115/771/277
f 120/772/10 119/773/9 121/774/8
f 127/775/276 126/776/277 125/777/277
f 131/778/13 133/779/12 132/780/11
f 138/781/277 137/782/277 139/783/277
f 143/784/277 145/785/277 144/786/277
f 156/787/16 157/788/15 155/789/14
f 54/6/288 72/257/288 73/90/288
f 92/12/288 105/303/288 106/92/288
f 310/790/5 313/115/20 311/117/6
f 313/97/20 310/791/5 309/98/7
f 114/792/277 113/793/276 115/794/277
f 126/795/277 127/796/276 125/797/277
f 137/798/277 138/799/277 139/800/277
f 145/801/277 143/802/277 144/803/277
f 294/94/57 295/804/17 297/95/19
f 296/112/70 299/805/235 298/113/58
f 67/55/114 66/54/113 46/244/112
f 93/61/138 86/60/113 76/283/112
f 62/806/120 55/245/289 46/244/118
f 80/807/145 78/284/290 76/283/143
f 318/808/5 317/62/20 315/64/6
f 55/245/291 50/7/291 51/251/291
f 53/252/292 54/809/292 73/253/292
f 57/258/293 56/810/119 46/246/118
f 61/261/294 68/811/134 71/104/64
f 96/278/295 79/812/144 76/277/143
f 78/284/291 88/13/291 89/289/291
f 91/300/292 92/813/292 106/301/292
f 100/308/294 104/814/134 101/108/64
