# Blender 4.5.0
# www.blender.org
mtllib factory_002.mtl
o factory_002
v -1.121292 4.021603 -2.702373
v 1.121292 4.021603 -2.702373
v 1.121292 3.661123 -2.702373
v -1.121292 3.661123 -2.702373
v -3.248904 0.191672 -3.248360
v 3.248904 0.001096 -3.248360
v -3.250000 -0.000000 -3.246573
v 3.248904 0.191672 3.250000
v -3.248904 0.001096 3.250000
v -3.250000 0.192768 3.248213
v 3.250000 0.192768 -3.246573
v 3.250000 0.000000 3.248213
v -3.023011 4.097902 -2.547791
v 3.023011 0.200325 -2.547791
v -3.023011 0.200325 3.049837
v 3.024557 0.199624 3.047867
v -3.024557 0.199624 -2.545821
v 3.024557 4.098603 -2.545821
v 3.023011 4.097902 3.049836
v -3.024557 4.098603 3.047867
v -2.968420 4.212871 2.759072
v -2.959581 4.219097 2.765115
v -2.963353 4.216749 -2.763697
v 2.968420 4.212871 -2.757432
v 2.959581 4.219097 -2.763476
v 2.963353 4.216749 2.765337
v -2.959423 4.110707 -2.766425
v -2.968420 4.101709 -2.757432
v -2.973242 4.112562 -2.766425
v -2.968420 4.110707 -2.766425
v -2.968420 4.110707 2.768065
v -2.973402 4.110707 2.768065
v -2.968420 4.101709 2.759072
v -2.959423 4.110707 2.768065
v -3.119608 4.101709 -2.757432
v -3.128604 4.112490 -2.766425
v -3.126219 4.103858 -2.920778
v -3.117825 4.101709 -2.766425
v -2.973085 4.457663 2.766129
v -2.975334 4.460096 -2.763052
v -2.968420 4.453190 -2.757432
v 2.959423 4.110707 2.768065
v 2.968420 4.101709 2.759072
v 2.973242 4.112562 2.768065
v 2.968420 4.110707 2.768065
v 2.968420 4.110707 -2.766425
v 2.973402 4.110707 -2.766425
v 2.968420 4.101709 -2.757432
v 2.959423 4.110707 -2.766425
v 2.975334 4.460096 2.764691
v 2.968420 4.453190 2.759072
v 2.973151 4.457594 -2.764790
v 3.119608 4.101709 2.759072
v 3.128604 4.112490 2.768065
v 3.126219 4.103858 2.922418
v 3.117825 4.101709 2.768065
v -3.123494 4.459436 -2.923010
v 3.123494 4.104462 -2.923010
v -3.119608 4.462189 -2.766425
v -3.128604 4.453190 -2.766425
v -3.119608 4.462189 -2.757432
v 3.119608 4.462189 -2.757432
v 3.128604 4.451407 -2.766425
v 3.126219 4.460039 -2.920778
v 3.117825 4.462189 -2.766425
v 3.119608 4.101709 -2.766425
v 3.128604 4.110707 -2.766425
v 3.119608 4.101709 -2.757432
v -3.119608 4.462189 2.759072
v -3.128604 4.451407 2.768065
v -3.126219 4.460039 2.922418
v -3.117825 4.462189 2.768065
v 3.123494 4.459436 2.924650
v -3.128604 4.110707 2.772062
v -3.119608 4.101709 2.759072
v -3.119608 4.101709 2.768065
v -3.123494 4.104462 2.924650
v 3.119608 4.462189 2.768065
v 3.128604 4.453190 2.768065
v 3.119608 4.462189 2.759072
v -2.796685 0.198304 -2.537948
v 2.798130 0.198275 -2.538745
v -2.796686 0.615289 -3.185056
v -2.798130 0.198275 -3.184259
v 2.796686 0.198304 -3.185056
v -2.798130 0.615318 -2.538745
v 2.796685 0.615289 -2.537948
v 2.798130 0.615318 -3.184259
v -0.248987 3.316877 -2.636082
v -2.794519 0.620870 -2.636082
v -0.250043 3.315743 -2.544697
v -0.248987 0.620870 -2.546484
v -2.794519 3.316877 -2.546484
v -2.793463 3.315743 -2.637870
v -2.793463 0.622004 -2.544696
v -0.250043 0.622004 -2.637869
v -0.395140 0.652113 -2.712940
v -0.395140 3.155461 -2.629755
v -2.649388 3.156627 -2.631543
v -2.648366 3.155461 -2.712940
v -2.649388 0.650947 -2.711153
v -0.394118 3.156627 -2.711152
v -0.394118 0.650947 -2.631543
v -2.648366 0.652113 -2.629755
v -2.652272 0.811026 -2.750460
v -0.382419 0.812336 -2.731396
v -2.652272 0.813646 -2.712333
v -0.382419 1.012602 -2.731396
v -2.652272 1.013912 -2.712333
v -2.652272 1.011292 -2.750460
v -0.382419 1.212868 -2.731396
v -2.652272 1.214178 -2.712333
v -2.652272 1.211558 -2.750460
v -0.391234 1.414444 -2.750460
v -2.652272 1.411825 -2.750460
v -2.652272 1.414444 -2.712333
v -0.391234 1.411825 -2.712333
v -0.382419 1.613401 -2.731397
v -2.652272 1.614711 -2.712334
v -2.652272 1.612091 -2.750460
v -0.391234 1.814976 -2.750460
v -2.652272 1.814976 -2.712334
v -0.391234 1.812358 -2.712334
v -2.652272 1.812357 -2.750460
v -0.391234 2.015243 -2.750460
v -2.652272 2.015243 -2.712334
v -2.652272 2.012624 -2.750460
v -0.391234 2.012624 -2.712334
v -0.391234 2.215509 -2.750460
v -2.652272 2.212890 -2.750460
v -2.652272 2.215509 -2.712334
v -0.391234 2.212890 -2.712334
v -0.391234 2.415776 -2.750460
v -2.652272 2.415776 -2.712334
v -0.391234 2.413156 -2.712334
v -2.652272 2.413156 -2.750460
v -2.652272 2.613422 -2.750460
v -2.652272 2.616042 -2.712334
v -0.391234 2.613422 -2.712334
v -0.391234 2.616042 -2.750460
v -2.652272 2.813689 -2.750460
v -0.391234 2.816308 -2.750460
v -0.391234 2.813689 -2.712334
v -2.652272 2.816308 -2.712334
v -2.652272 3.013955 -2.750460
v -0.391234 3.016574 -2.750460
v -2.652272 3.016574 -2.712334
v -0.391234 3.013955 -2.712334
v -2.806373 1.040593 -2.910221
v -2.806372 0.253639 -2.752734
v -2.806428 1.042190 -2.754033
v -2.679893 1.042190 -2.908922
v -2.679948 1.040593 -2.752735
v -2.806428 0.252042 -2.908921
v -2.679948 0.253639 -2.910222
v -2.679892 0.252042 -2.754034
v -0.363558 1.040593 -2.910221
v -0.363613 1.042190 -2.754033
v -0.237134 1.040593 -2.752735
v -0.237079 1.042190 -2.908922
v -0.237134 0.253639 -2.910222
v -0.363614 0.252042 -2.908921
v -0.237078 0.252042 -2.754034
v -0.363558 0.253639 -2.752734
v 0.248987 0.620870 -2.636082
v 0.250043 3.315743 -2.637870
v 2.793463 3.315743 -2.544697
v 2.794519 0.620870 -2.546484
v 2.793463 0.622004 -2.637869
v 0.248987 3.316877 -2.546484
v 2.794519 3.316877 -2.636082
v 0.250043 0.622004 -2.544696
v 0.395140 3.155461 -2.712940
v 2.648366 0.652113 -2.712940
v 0.394118 0.650947 -2.711152
v 0.395140 0.652113 -2.629755
v 0.394118 3.156627 -2.631544
v 2.648366 3.155461 -2.629755
v 2.649389 3.156627 -2.711153
v 2.649388 0.650947 -2.631543
v 0.382419 0.812336 -2.731396
v 2.652272 0.813646 -2.750460
v 2.652272 0.811026 -2.712333
v 0.382419 1.012602 -2.731396
v 2.652272 1.011292 -2.712333
v 2.652272 1.013912 -2.750460
v 2.652272 1.214178 -2.750460
v 0.382419 1.212868 -2.731396
v 2.652272 1.211558 -2.712333
v 0.391234 1.411825 -2.750460
v 0.391234 1.414444 -2.712333
v 2.652272 1.411825 -2.712333
v 2.652272 1.414444 -2.750460
v 0.382419 1.613401 -2.731397
v 2.652272 1.612091 -2.712334
v 2.652272 1.614711 -2.750460
v 2.652272 1.814976 -2.750460
v 2.652272 1.812358 -2.712334
v 0.391234 1.814976 -2.712334
v 0.391234 1.812357 -2.750460
v 2.652272 2.015243 -2.750460
v 0.391234 2.012624 -2.750460
v 2.652272 2.012624 -2.712334
v 0.391234 2.015243 -2.712334
v 2.652272 2.215509 -2.750460
v 0.391234 2.212890 -2.750460
v 2.652272 2.212890 -2.712334
v 0.391234 2.215509 -2.712334
v 0.391234 2.413156 -2.750460
v 2.652272 2.413156 -2.712334
v 0.391234 2.415776 -2.712334
v 2.652272 2.415776 -2.750460
v 2.652272 2.613422 -2.712334
v 0.391234 2.613422 -2.750460
v 0.391234 2.616042 -2.712334
v 2.652272 2.616042 -2.750460
v 0.391234 2.813689 -2.750460
v 0.391234 2.816308 -2.712334
v 2.652272 2.813689 -2.712334
v 2.652272 2.816308 -2.750460
v 2.652272 3.016574 -2.750460
v 2.652272 3.013955 -2.712334
v 0.391234 3.013955 -2.750460
v 0.391234 3.016574 -2.712334
v 0.237134 0.253639 -2.752734
v 0.363614 0.252042 -2.754034
v 0.237134 1.040593 -2.910221
v 0.237078 0.252042 -2.908921
v 0.237079 1.042190 -2.754033
v 0.363558 0.253639 -2.910222
v 0.363558 1.040593 -2.752735
v 0.363613 1.042190 -2.908922
v 2.679892 0.252042 -2.908921
v 2.806373 1.040593 -2.752735
v 2.679893 1.042190 -2.754033
v 2.679948 0.253639 -2.752734
v 2.806428 1.042190 -2.908922
v 2.806372 0.253639 -2.910222
v 2.679948 1.040593 -2.910221
v 2.806428 0.252042 -2.754034
v -3.147366 3.519981 -3.255000
v 3.149023 3.520027 -3.254112
v -3.147366 3.351666 -2.608118
v 3.149023 3.351620 -2.609007
v 3.147366 3.351666 -3.255000
v -3.149023 3.520027 -2.609007
v 3.147366 3.519981 -2.608118
v -3.149023 3.351620 -3.254112
v 1.145214 3.633677 -2.695212
v -1.145214 3.633677 -2.547402
v -1.146599 4.048886 -2.548179
v 1.145214 4.049049 -2.547403
v 1.146599 3.633840 -2.548179
v 1.146599 4.048886 -2.694436
v -1.145214 4.049049 -2.695212
v -1.146599 3.633840 -2.694436
v -2.701939 0.194822 -3.052795
v -2.764790 0.200587 -3.143493
v -2.655356 0.193887 -3.170420
v -2.653533 1.019303 -3.169615
v -2.762131 1.013538 -3.149910
v -2.703797 1.020239 -3.053514
v 2.641438 0.200587 -3.143493
v 2.750873 0.193887 -3.170420
v 2.752695 1.019303 -3.169615
v 2.644097 1.013538 -3.149910
v 2.702431 1.020239 -3.053514
v 2.704289 0.194822 -3.052795
v 2.271916 4.898400 1.324236
v 2.273186 4.255485 1.322990
v 1.431082 4.899199 1.322990
v 1.432351 4.898400 0.879190
v 1.431082 4.255485 0.880436
v 2.273186 4.899199 0.880436
v 2.271917 4.256284 0.879190
v 1.432351 4.256284 1.324236
v 2.125861 4.391958 0.857388
v 1.950697 4.822374 0.851510
v 1.845529 4.424795 0.850021
v 2.014171 4.362025 0.845632
v 1.781411 4.649695 0.851739
v 2.183629 4.757488 0.851281
v 2.240530 4.530654 0.852999
v 1.800491 4.439218 0.827267
v 2.225759 4.434652 0.821486
v 1.806714 4.426320 0.811343
v 1.800491 4.507525 0.816922
v 2.225759 4.501741 0.821486
v 1.806714 4.491593 0.829814
v 1.800491 4.574615 0.816922
v 2.225759 4.568830 0.821486
v 1.806714 4.558682 0.829814
v 1.800491 4.641704 0.816922
v 2.225759 4.635920 0.821486
v 1.806714 4.625772 0.829814
v 1.806714 4.711341 0.831628
v 1.800491 4.698443 0.815705
v 2.225759 4.703009 0.821486
v 1.800491 4.775882 0.816922
v 1.806714 4.759950 0.829814
v 2.225759 4.770098 0.821486
v 1.518384 4.770937 0.855003
v 1.605215 4.770937 0.858025
v 1.605215 4.413785 0.855004
v 1.518384 4.413785 0.858024
v 1.589622 4.183937 0.816846
v 1.513954 4.249788 0.816846
v 1.589622 4.249788 1.386580
v 1.512934 4.250650 1.384726
v 1.590642 4.183074 1.384726
v 1.513954 4.183937 1.386580
v 1.590642 4.250650 0.818700
v 1.512934 4.183074 0.818700
v 2.114646 4.249788 0.816846
v 2.190314 4.249788 1.386580
v 2.113626 4.250650 1.384726
v 2.114645 4.183937 1.386580
v 2.191334 4.183074 1.384726
v 2.190314 4.183937 0.816845
v 2.191334 4.250650 0.818700
v 2.113626 4.183074 0.818700
v -1.823509 4.920000 1.746508
v -0.579259 4.920000 0.456917
v -0.580981 4.919397 1.748663
v -0.580980 4.225273 0.454763
v -1.821787 4.919397 0.454763
v -1.823509 4.224670 0.456917
v -0.579259 4.224670 1.746508
v -1.821788 4.225273 1.748663
v -2.877646 0.116164 3.189838
v -2.920002 0.120715 3.128938
v -2.844973 3.901691 3.110985
v -2.918000 3.897140 3.124106
v -2.845934 0.115932 3.110474
v -2.878686 3.901923 3.189519
v 2.878986 0.116164 3.189838
v 2.836630 0.120715 3.128938
v 2.910698 0.115932 3.110474
v 2.911659 3.901691 3.110985
v 2.877945 3.901923 3.189519
v 2.838632 3.897140 3.124106
v -0.395677 2.245113 3.074555
v -0.396200 2.245963 3.191594
v -0.395677 0.450983 3.192168
v -0.396200 0.450134 3.075129
v 0.396200 0.450134 3.191594
v 0.395677 0.450983 3.074556
v 0.395677 2.245114 3.192167
v 0.396200 2.245963 3.075129
v 0.972131 1.793036 3.216249
v 0.629020 1.794304 3.215409
v 0.629714 1.303593 3.216249
v 0.629714 1.793036 3.050473
v 0.629020 1.302326 3.051314
v 0.972826 1.302326 3.215409
v 0.972826 1.794304 3.051314
v 0.972131 1.303594 3.050474
vn -0.0000 -0.0000 -1.0000
vn -0.0000 -0.7069 -0.7073
vn -0.0000 -0.7069 0.7073
vn -0.7003 -0.7002 -0.1389
vn 0.7003 -0.7002 0.1389
vn -0.7072 0.7070 -0.0000
vn 0.7003 0.7002 -0.1389
vn 0.7072 -0.7070 -0.0000
vn -0.7003 0.7002 0.1389
vn -0.9137 -0.4062 0.0116
vn -0.7083 -0.7059 -0.0052
vn -0.5655 -0.5742 0.5920
vn 0.7072 0.7070 -0.0000
vn -0.9988 0.0487 -0.0011
vn -0.8521 0.5235 0.0002
vn -0.5759 0.8175 -0.0000
vn 0.9988 0.0487 0.0011
vn 0.8521 0.5234 -0.0002
vn 0.5759 0.8175 -0.0000
vn 0.5963 0.0704 -0.7996
vn -0.5964 0.0704 0.7996
vn 0.0148 0.9999 -0.0000
vn 0.0145 0.9999 -0.0000
vn 0.6374 0.0113 -0.7704
vn -0.0000 -0.6381 -0.7700
vn 0.0614 -0.9981 -0.0000
vn -0.7677 0.6408 0.0002
vn -0.7678 -0.6407 -0.0000
vn 0.9999 0.0142 0.0008
vn 0.8996 0.4368 -0.0000
vn 0.7066 0.7076 -0.0000
vn -0.0614 -0.9981 -0.0000
vn -0.0148 0.9999 -0.0000
vn -0.0145 0.9999 -0.0000
vn -0.6374 0.0113 0.7704
vn -0.0000 -0.6381 0.7700
vn -0.9999 0.0144 -0.0008
vn -0.8996 0.4368 -0.0000
vn -0.7066 0.7076 -0.0000
vn 0.7677 0.6408 -0.0002
vn 0.7677 -0.6408 0.0002
vn -0.5658 0.5741 -0.5918
vn -0.0001 0.9999 -0.0140
vn 0.1881 0.6777 -0.7108
vn 0.5658 -0.5741 -0.5918
vn 0.0001 -0.9999 -0.0140
vn -0.1881 -0.6777 -0.7108
vn 0.5658 0.5741 0.5918
vn 0.0001 0.9999 0.0140
vn -0.5653 0.5661 0.6000
vn -0.0001 -0.9999 0.0140
vn 0.1881 -0.6777 0.7108
vn -0.0395 0.6173 0.7857
vn -0.0401 0.6034 0.7965
vn -0.0395 0.6242 0.7803
vn -0.0000 -0.0000 -0.0000
vn -0.5751 0.5763 -0.5806
vn 0.5751 -0.5763 -0.5806
vn -0.5796 -0.5784 -0.5740
vn 0.5796 0.5784 -0.5740
vn -0.5796 0.5784 0.5740
vn 0.5796 -0.5784 0.5740
vn -0.5751 -0.5763 0.5806
vn 0.5751 0.5763 0.5806
vn -0.5772 0.5773 -0.5776
vn 0.5772 -0.5773 -0.5776
vn -0.5775 -0.5775 -0.5770
vn 0.5775 0.5775 -0.5770
vn -0.5775 0.5775 0.5770
vn 0.5775 -0.5775 0.5770
vn 0.5772 0.5773 0.5776
vn -0.5772 -0.5773 0.5776
vn -0.0000 0.6996 0.7145
vn -0.0000 0.6996 -0.7145
vn -0.0003 0.7055 -0.7087
vn -0.9989 0.0471 -0.0009
vn 0.0003 0.7055 0.7087
vn -0.0000 0.0272 0.9996
vn 0.3589 0.9334 0.0015
vn -0.0000 0.0272 -0.9996
vn -0.0000 0.0257 -0.9997
vn 0.9989 0.0471 0.0009
vn -0.3589 0.9334 -0.0015
vn -0.0000 0.0257 0.9997
vn -0.0000 -1.0000 -0.0000
vn 0.0117 0.0049 -0.9999
vn 0.0235 0.0098 -0.9997
vn 0.0056 0.0023 -1.0000
vn 1.0000 -0.0000 -0.0000
vn -0.0003 0.0056 1.0000
vn -0.0002 0.0056 1.0000
vn 1.0000 0.0086 0.0005
vn -0.9999 -0.0000 -0.0155
vn -1.0000 -0.0000 -0.0000
vn -0.9997 -0.0257 -0.0000
vn -0.0000 -0.0000 1.0000
vn 0.0308 0.9995 -0.0026
vn 0.0309 0.9995 0.0002
vn -0.0117 0.0049 0.9999
vn -0.0235 0.0098 0.9997
vn -0.0056 0.0023 1.0000
vn -0.0077 0.0008 -1.0000
vn -0.0015 0.0040 -1.0000
vn 0.0001 0.0047 -1.0000
vn -1.0000 0.0087 -0.0005
vn -0.0313 0.9995 0.0025
vn -0.0313 0.9995 -0.0002
vn -0.0107 -0.0035 -0.9999
vn -0.0046 0.0027 -1.0000
vn 0.9999 -0.0000 0.0155
vn -0.9023 0.4309 -0.0123
vn 0.9023 -0.4309 -0.0123
vn 0.9999 -0.0000 -0.0155
vn 0.9023 0.4309 0.0123
vn -0.5782 -0.5773 -0.5765
vn 0.5782 -0.5773 0.5765
vn -0.5755 -0.5779 0.5787
vn 0.5755 0.5779 0.5787
vn -0.5782 0.5773 0.5765
vn 0.5782 0.5773 -0.5765
vn 0.5755 -0.5779 -0.5787
vn -0.5755 0.5779 -0.5787
vn -0.5805 0.5808 0.5707
vn 0.5805 0.5808 -0.5707
vn -0.5742 0.5739 -0.5839
vn 0.5742 -0.5739 -0.5839
vn 0.5805 -0.5808 0.5707
vn 0.5742 0.5739 0.5839
vn -0.5805 -0.5808 -0.5707
vn -0.5742 -0.5739 0.5839
vn -0.5740 0.5733 -0.5847
vn 0.5740 -0.5733 -0.5847
vn -0.5808 -0.5813 -0.5699
vn 0.5808 -0.5813 0.5699
vn 0.5808 0.5813 -0.5699
vn -0.5808 0.5813 0.5699
vn 0.5740 0.5733 0.5847
vn -0.5740 -0.5733 0.5847
vn -0.8411 -0.0396 -0.5395
vn 0.8411 0.0396 -0.5395
vn 0.8411 -0.0397 0.5395
vn -0.8411 0.0396 0.5395
vn -0.8429 -0.0394 -0.5367
vn 0.8392 0.0398 -0.5423
vn 0.8429 -0.0394 0.5367
vn -0.8392 0.0398 0.5423
vn -0.8392 0.0399 0.5423
vn 0.8411 -0.0396 0.5395
vn 0.8411 0.0397 -0.5395
vn -0.8429 0.0394 0.5367
vn 0.8429 0.0394 -0.5367
vn -0.8392 -0.0398 -0.5423
vn 0.8392 -0.0398 0.5423
vn -0.8447 -0.0392 -0.5338
vn 0.8447 -0.0392 0.5338
vn -0.8374 0.0400 0.5451
vn 0.8374 0.0400 -0.5451
vn -0.5784 0.5700 -0.5835
vn 0.5784 -0.5700 -0.5835
vn -0.5783 -0.5812 -0.5725
vn 0.5783 0.5812 -0.5725
vn -0.5783 0.5812 0.5725
vn 0.5784 0.5700 0.5835
vn -0.5784 -0.5700 0.5835
vn 0.5783 -0.5812 0.5725
vn 0.5784 -0.5700 -0.5836
vn -0.8401 -0.0398 -0.5409
vn 0.8401 -0.0398 0.5409
vn -0.8419 0.0395 0.5381
vn 0.8419 0.0395 -0.5381
vn -0.8429 -0.0394 -0.5366
vn 0.8429 -0.0395 0.5366
vn 0.8429 -0.0394 0.5366
vn 0.8392 0.0399 -0.5423
vn -0.8410 0.0396 0.5395
vn 0.8410 0.0397 -0.5395
vn -0.8410 -0.0396 -0.5395
vn 0.8410 -0.0397 0.5395
vn -0.8392 -0.0399 -0.5423
vn -0.8392 0.0398 0.5424
vn 0.8392 0.0398 -0.5424
vn -0.8447 -0.0393 -0.5338
vn -0.0000 1.0000 -0.0001
vn -0.0000 1.0000 0.0001
vn -0.7028 0.0033 -0.7113
vn 0.7099 -0.0010 -0.7043
vn 0.7028 -0.0033 -0.7113
vn -0.7099 0.0010 -0.7043
vn -0.7099 -0.0010 0.7043
vn 0.7099 0.0010 0.7043
vn 0.7028 0.0033 0.7113
vn -0.7028 -0.0033 0.7113
vn -0.0000 -1.0000 0.0001
vn -0.0000 -1.0000 -0.0001
vn -0.0003 -0.0014 -1.0000
vn 0.0003 0.0014 -1.0000
vn -0.0003 -0.0019 -1.0000
vn -0.7091 -0.7051 0.0031
vn 0.7032 -0.7110 -0.0058
vn 0.7091 -0.7051 -0.0031
vn 0.0003 0.0019 -1.0000
vn 0.7091 0.7051 0.0031
vn 0.0003 -0.0014 1.0000
vn -0.0003 0.0014 1.0000
vn 0.0003 -0.0019 1.0000
vn -0.7032 -0.7110 0.0058
vn -0.0003 0.0019 1.0000
vn -0.7091 0.7051 -0.0031
vn 0.7032 0.7110 0.0058
vn -0.7032 0.7110 -0.0058
vn 0.0884 -0.5655 0.8200
vn -0.7930 -0.5315 -0.2976
vn 0.6155 -0.5723 -0.5419
vn 0.6424 0.5655 -0.5172
vn 0.0520 0.5723 0.8184
vn -0.7713 0.5315 -0.3502
vn 0.5784 0.5782 -0.5755
vn 0.5760 0.5768 0.5792
vn 0.5784 -0.5782 0.5755
vn -0.5760 -0.5768 0.5792
vn -0.5784 0.5782 0.5755
vn 0.5760 -0.5768 -0.5792
vn -0.5784 -0.5782 -0.5755
vn -0.5760 0.5768 -0.5792
vn 0.6031 -0.7894 0.1143
vn 0.9990 -0.0441 0.0044
vn 0.6417 0.7669 -0.0050
vn -0.2588 0.9659 -0.0000
vn -0.9392 0.3433 0.0050
vn -0.8432 -0.5376 -0.0044
vn -0.1275 -0.9852 -0.1143
vn -0.5925 0.8053 -0.0189
vn 0.5925 -0.8053 -0.0189
vn -0.5926 -0.8052 0.0189
vn 0.5926 0.8052 0.0189
vn -0.5724 0.5735 -0.5860
vn 0.5724 -0.5735 -0.5860
vn -0.5864 -0.5849 -0.5604
vn 0.5864 -0.5849 0.5604
vn 0.5864 0.5849 -0.5604
vn -0.5864 0.5849 0.5604
vn 0.5724 0.5735 0.5860
vn -0.5724 -0.5735 0.5860
vn -0.5784 0.5779 0.5757
vn 0.5762 0.5772 0.5787
vn 0.5784 0.5779 -0.5757
vn -0.5762 -0.5772 0.5787
vn -0.5784 -0.5779 -0.5757
vn -0.5762 0.5772 -0.5787
vn 0.5784 -0.5779 0.5757
vn 0.5762 -0.5772 -0.5787
vn 0.0875 -0.5683 0.8181
vn -0.7962 -0.5261 -0.2987
vn 0.6162 -0.5691 -0.5445
vn 0.6404 0.5683 -0.5166
vn 0.0506 0.5691 0.8207
vn -0.7743 0.5261 -0.3517
vn -0.5764 0.5750 -0.5806
vn 0.5764 -0.5750 -0.5806
vn -0.5787 -0.5793 -0.5741
vn 0.5787 0.5793 -0.5741
vn -0.5787 0.5793 0.5741
vn 0.5764 0.5750 0.5806
vn -0.5764 -0.5750 0.5806
vn 0.5787 -0.5793 0.5741
vn 0.5765 0.5742 0.5813
vn -0.5765 -0.5742 0.5813
vn 0.5789 -0.5796 0.5736
vn -0.5789 0.5796 0.5736
vn 0.5789 0.5796 -0.5736
vn -0.5789 -0.5796 -0.5736
vn -0.5765 0.5742 -0.5813
vn 0.5765 -0.5742 -0.5813
vn -0.2623 -0.6821 -0.6826
vn -0.7069 -0.7068 0.0286
vn 0.2623 -0.6821 0.6825
vn 0.7069 -0.7068 -0.0286
vn -0.7072 0.7070 0.0051
vn 0.7069 0.7067 0.0286
vn 0.7072 -0.7070 0.0051
vn -0.7069 0.7067 -0.0286
vn -0.7073 -0.7069 -0.0001
vn -0.7073 -0.7069 -0.0002
vn -0.7072 -0.7070 -0.0000
vn 0.7072 0.7070 -0.0051
vn 0.0101 0.0262 -0.9996
vn 0.0748 -0.9971 0.0148
vn 0.0312 0.9995 -0.0062
vn -0.0000 0.0056 1.0000
vn -0.0317 0.9995 0.0062
vn -0.0000 0.0047 -1.0000
vn -0.0101 0.0262 0.9996
vn -0.0748 -0.9971 -0.0148
vn -0.0000 0.9998 -0.0176
vn -0.0000 -0.9998 -0.0176
vn -0.0000 0.9998 0.0176
vn -0.0000 -0.9998 0.0176
vn 0.0003 0.7765 -0.6302
vn 0.0003 0.7769 -0.6297
vn 0.0003 0.7752 -0.6317
vn -0.7070 -0.0000 0.7072
vn -0.9138 -0.4061 -0.0000
vn 0.7070 -0.0000 -0.7072
vn 0.9138 -0.4061 -0.0000
vn 0.8813 -0.0000 -0.4726
vn -0.9997 -0.0258 0.0016
vn 0.0124 0.0003 0.9999
vn 0.0125 -0.0005 0.9999
vn 0.0126 -0.0039 0.9999
vn 0.0130 -0.0130 0.9998
vn -0.8813 -0.0000 0.4726
vn -0.0110 -0.0110 -0.9999
vn -0.9999 0.0002 0.0154
vn -0.4149 -0.0107 -0.9098
vt 0.440486 0.808536
vt 0.440486 0.894094
vt 0.426736 0.894095
vt 0.426736 0.808537
vt 0.221298 0.267300
vt 0.221641 0.267299
vt 0.221641 0.267643
vt 0.010415 0.267299
vt 0.010759 0.267300
vt 0.010415 0.267643
vt 0.221641 0.261188
vt 0.221641 0.261600
vt 0.221298 0.261531
vt 0.010759 0.493804
vt 0.010415 0.493803
vt 0.010415 0.493460
vt 0.221641 0.493803
vt 0.221298 0.493804
vt 0.221641 0.493460
vt 0.010415 0.499915
vt 0.010416 0.499504
vt 0.010759 0.499572
vt 0.453354 0.499711
vt 0.453353 0.500054
vt 0.453010 0.499711
vt 0.453507 0.261327
vt 0.453507 0.261739
vt 0.453163 0.261670
vt 0.221641 0.499572
vt 0.221641 0.499915
vt 0.221298 0.499572
vt 0.242128 0.499918
vt 0.242128 0.499507
vt 0.242472 0.499575
vt 0.010263 0.261188
vt 0.010416 0.261532
vt 0.004531 0.261401
vt 0.242281 0.261535
vt 0.242281 0.261192
vt 0.242624 0.261535
vt 0.467889 0.501063
vt 0.678434 0.500883
vt 0.678446 0.501238
vt 0.678440 0.727208
vt 0.467895 0.727388
vt 0.467883 0.727033
vt 0.930176 0.487687
vt 0.934254 0.487339
vt 0.934077 0.487689
vt 0.921568 0.261188
vt 0.917489 0.261538
vt 0.917666 0.261189
vt 0.453164 0.494219
vt 0.696503 0.478681
vt 0.696319 0.491678
vt 0.696311 0.478685
vt 0.221641 0.267115
vt 0.010759 0.261532
vt 0.010415 0.267109
vt 0.905390 0.506929
vt 0.905050 0.712862
vt 0.904982 0.506669
vt 0.891640 0.506951
vt 0.892054 0.712883
vt 0.891640 0.712474
vt 0.242261 0.494051
vt 0.453014 0.493942
vt 0.221641 0.493993
vt 0.242471 0.267027
vt 0.831905 0.478677
vt 0.831863 0.491676
vt 0.831694 0.478491
vt 0.010415 0.493987
vt 0.453343 0.267214
vt 0.242621 0.267303
vt 0.872609 0.473411
vt 0.872950 0.266986
vt 0.873018 0.473818
vt 0.886359 0.267271
vt 0.886014 0.473836
vt 0.885946 0.267004
vt 0.459206 0.499903
vt 0.459208 0.261674
vt 0.227525 0.499702
vt 0.227468 0.261363
vt 0.236429 0.261343
vt 0.236427 0.499571
vt 0.004588 0.499740
vt 0.458718 0.920875
vt 0.458665 0.905336
vt 0.458756 0.905073
vt 0.815368 0.977604
vt 0.815202 0.961802
vt 0.815691 0.962065
vt 0.145530 0.973226
vt 0.145128 0.957739
vt 0.145722 0.957551
vt 0.919357 0.004529
vt 0.912301 0.252453
vt 0.912300 0.004438
vt 0.919371 0.252368
vt 0.937543 0.501132
vt 0.937198 0.742983
vt 0.930245 0.742984
vt 0.261188 0.252462
vt 0.508777 0.004422
vt 0.508777 0.252418
vt 0.252373 0.252325
vt 0.004530 0.252358
vt 0.004647 0.004422
vt 0.920962 0.500883
vt 0.914343 0.743481
vt 0.914009 0.500883
vt 0.930485 0.501126
vt 0.252353 0.004526
vt 0.928328 0.251893
vt 0.935506 0.004304
vt 0.935506 0.251892
vt 0.928434 0.004304
vt 0.921400 0.743487
vt 0.261188 0.004466
vt 0.152733 0.508686
vt 0.004318 0.739454
vt 0.004311 0.508775
vt 0.152738 0.739364
vt 0.839167 0.261474
vt 0.838803 0.469696
vt 0.690390 0.469731
vt 0.468138 0.492047
vt 0.681527 0.261416
vt 0.681569 0.492018
vt 0.731029 0.004532
vt 0.731071 0.235134
vt 0.517640 0.235164
vt 0.687603 0.710030
vt 0.835829 0.501175
vt 0.836016 0.710039
vt 0.236360 0.738956
vt 0.384792 0.508674
vt 0.384792 0.738964
vt 0.517599 0.004562
vt 0.236360 0.508666
vt 0.690586 0.261463
vt 0.687249 0.501121
vt 0.468096 0.261446
vt 0.832164 0.719050
vt 0.832164 0.924573
vt 0.828267 0.924914
vt 0.917668 0.487536
vt 0.921568 0.261531
vt 0.828339 0.924954
vt 0.827924 0.719057
vt 0.934170 0.261442
vt 0.930176 0.487344
vt 0.930176 0.261531
vt 0.815076 0.925137
vt 0.815076 0.718977
vt 0.818973 0.718647
vt 0.818901 0.718684
vt 0.819316 0.925143
vt 0.921568 0.487347
vt 0.690733 0.478343
vt 0.908715 0.261580
vt 0.908715 0.467739
vt 0.895308 0.467721
vt 0.690392 0.491681
vt 0.690390 0.478686
vt 0.763992 0.478894
vt 0.769917 0.492081
vt 0.764332 0.491882
vt 0.895368 0.261251
vt 0.908372 0.261243
vt 0.891901 0.718519
vt 0.891640 0.506616
vt 0.844624 0.501227
vt 0.857962 0.500884
vt 0.858373 0.501295
vt 0.749800 0.478344
vt 0.755378 0.478686
vt 0.755384 0.491678
vt 0.793060 0.924545
vt 0.793060 0.719022
vt 0.806468 0.719001
vt 0.749457 0.491682
vt 0.749457 0.478687
vt 0.705265 0.478741
vt 0.710879 0.492088
vt 0.705301 0.491746
vt 0.806468 0.924524
vt 0.793404 0.924879
vt 0.711220 0.478750
vt 0.711223 0.491745
vt 0.886098 0.261298
vt 0.859648 0.242683
vt 0.846310 0.243027
vt 0.845899 0.242616
vt 0.859648 0.004715
vt 0.845899 0.004648
vt 0.903501 0.004517
vt 0.890280 0.242921
vt 0.890336 0.004381
vt 0.903435 0.242853
vt 0.905050 0.718642
vt 0.872867 0.479473
vt 0.886014 0.479634
vt 0.868450 0.242816
vt 0.881669 0.004410
vt 0.881614 0.242954
vt 0.868515 0.004477
vt 0.872950 0.261188
vt 0.905132 0.500978
vt 0.891986 0.506541
vt 0.891986 0.500910
vt 0.418024 0.508934
vt 0.393503 0.722299
vt 0.393472 0.508965
vt 0.867007 0.714063
vt 0.883016 0.500916
vt 0.883019 0.714062
vt 0.867004 0.500917
vt 0.830257 0.227933
vt 0.814525 0.251697
vt 0.814367 0.227908
vt 0.805400 0.227773
vt 0.805624 0.251631
vt 0.789734 0.251607
vt 0.789876 0.227773
vt 0.418056 0.722267
vt 0.863934 0.261482
vt 0.848027 0.474786
vt 0.848045 0.261454
vt 0.863918 0.474815
vt 0.830049 0.251697
vt 0.451361 0.508934
vt 0.426840 0.722298
vt 0.426808 0.508965
vt 0.451392 0.722267
vt 0.654973 0.937656
vt 0.658106 0.840696
vt 0.658106 0.937697
vt 0.687287 0.718879
vt 0.784234 0.718868
vt 0.784334 0.821431
vt 0.769707 0.830730
vt 0.772905 0.933298
vt 0.769707 0.933171
vt 0.772941 0.830614
vt 0.654973 0.840655
vt 0.619005 0.840688
vt 0.622197 0.840822
vt 0.622196 0.943263
vt 0.618968 0.943371
vt 0.634026 0.840694
vt 0.630805 0.937657
vt 0.630805 0.840656
vt 0.687271 0.821557
vt 0.633938 0.937698
vt 0.739898 0.116174
vt 0.836618 0.219037
vt 0.739897 0.219026
vt 0.836618 0.116185
vt 0.236589 0.747808
vt 0.322566 0.843097
vt 0.236565 0.843201
vt 0.540985 0.847933
vt 0.540884 0.933873
vt 0.538132 0.933942
vt 0.322476 0.747819
vt 0.491328 0.848072
vt 0.494197 0.943246
vt 0.491328 0.943256
vt 0.549835 0.933941
vt 0.549835 0.847905
vt 0.552586 0.847836
vt 0.004316 0.748361
vt 0.089972 0.748475
vt 0.089964 0.843963
vt 0.004309 0.843852
vt 0.494188 0.847961
vt 0.503261 0.848076
vt 0.506123 0.943256
vt 0.503268 0.943362
vt 0.506123 0.848072
vt 0.552586 0.933873
vt 0.538133 0.847905
vt 0.687076 0.972090
vt 0.687475 0.886080
vt 0.687873 0.972101
vt 0.056369 0.852972
vt 0.055727 0.938765
vt 0.055166 0.852947
vt 0.873041 0.968088
vt 0.873440 0.882078
vt 0.873838 0.968099
vt 0.318832 0.852324
vt 0.318190 0.938117
vt 0.317629 0.852298
vt 0.783172 0.830656
vt 0.782530 0.916449
vt 0.781969 0.830631
vt 0.696525 0.972090
vt 0.696924 0.886080
vt 0.697322 0.972101
vt 0.237746 0.852324
vt 0.237705 0.938130
vt 0.236503 0.938105
vt 0.236543 0.852299
vt 0.705975 0.972090
vt 0.705975 0.886075
vt 0.706772 0.886085
vt 0.706771 0.972101
vt 0.968701 0.090468
vt 0.969100 0.004458
vt 0.969498 0.090479
vt 0.066504 0.852972
vt 0.065862 0.938765
vt 0.065302 0.852947
vt 0.409571 0.852318
vt 0.409530 0.938124
vt 0.408328 0.938099
vt 0.408368 0.852292
vt 0.968701 0.185400
vt 0.968702 0.099385
vt 0.969499 0.099395
vt 0.969498 0.185410
vt 0.076640 0.852972
vt 0.076599 0.938778
vt 0.075397 0.938753
vt 0.973055 0.347352
vt 0.973055 0.261337
vt 0.973852 0.261347
vt 0.973852 0.347362
vt 0.075437 0.852947
vt 0.973055 0.442284
vt 0.973852 0.356279
vt 0.973852 0.442294
vt 0.973055 0.356268
vt 0.086776 0.852972
vt 0.085533 0.938753
vt 0.085573 0.852947
vt 0.086735 0.938779
vt 0.971080 0.587048
vt 0.971081 0.501032
vt 0.971877 0.501043
vt 0.971877 0.587058
vt 0.005690 0.852972
vt 0.005649 0.938778
vt 0.004446 0.938753
vt 0.004487 0.852947
vt 0.971080 0.681979
vt 0.971877 0.595974
vt 0.971877 0.681989
vt 0.954818 0.261459
vt 0.953575 0.347240
vt 0.953615 0.261434
vt 0.954777 0.347265
vt 0.971081 0.595964
vt 0.668176 0.975143
vt 0.668973 0.889138
vt 0.668972 0.975153
vt 0.668176 0.889128
vt 0.015826 0.852972
vt 0.015785 0.938778
vt 0.014582 0.938753
vt 0.014623 0.852947
vt 0.954818 0.356391
vt 0.953575 0.442172
vt 0.953615 0.356365
vt 0.954777 0.442197
vt 0.677625 0.975143
vt 0.678422 0.889138
vt 0.678422 0.975153
vt 0.677626 0.889128
vt 0.526524 0.942979
vt 0.531302 0.972901
vt 0.526549 0.972943
vt 0.531277 0.942934
vt 0.769834 0.942391
vt 0.775536 0.942447
vt 0.775501 0.972408
vt 0.556274 0.243999
vt 0.560629 0.249363
vt 0.556274 0.249363
vt 0.263279 0.947303
vt 0.268015 0.977228
vt 0.263302 0.977272
vt 0.521740 0.249363
vt 0.517385 0.243999
vt 0.521740 0.243999
vt 0.267991 0.947259
vt 0.769791 0.972358
vt 0.560629 0.243999
vt 0.145234 0.918506
vt 0.150912 0.948508
vt 0.145192 0.948467
vt 0.150963 0.918540
vt 0.517385 0.249363
vt 0.644472 0.946804
vt 0.649250 0.976726
vt 0.644497 0.976769
vt 0.649225 0.946760
vt 0.965131 0.457395
vt 0.970834 0.457451
vt 0.970799 0.487412
vt 0.543311 0.243999
vt 0.547666 0.249363
vt 0.543311 0.249363
vt 0.547666 0.243999
vt 0.408231 0.947297
vt 0.412944 0.947253
vt 0.412968 0.977222
vt 0.965088 0.487363
vt 0.408254 0.977265
vt 0.721852 0.927124
vt 0.727581 0.927159
vt 0.727529 0.957126
vt 0.721810 0.957085
vt 0.612481 0.249363
vt 0.608126 0.249363
vt 0.608126 0.243999
vt 0.612481 0.243999
vt 0.606931 0.840688
vt 0.610123 0.840822
vt 0.610123 0.943263
vt 0.606895 0.943371
vt 0.646110 0.840694
vt 0.642889 0.937656
vt 0.642889 0.840655
vt 0.740125 0.004536
vt 0.837172 0.107089
vt 0.740109 0.107214
vt 0.646022 0.937697
vt 0.837072 0.004525
vt 0.467883 0.944907
vt 0.471016 0.847947
vt 0.471016 0.944948
vt 0.147576 0.806835
vt 0.150810 0.806720
vt 0.150774 0.909404
vt 0.467889 0.736127
vt 0.564609 0.838991
vt 0.467888 0.838980
vt 0.564609 0.736139
vt 0.467883 0.847906
vt 0.147576 0.909276
vt 0.573453 0.736232
vt 0.659209 0.831741
vt 0.573429 0.831624
vt 0.659340 0.736242
vt 0.514960 0.848076
vt 0.517822 0.848072
vt 0.517822 0.943256
vt 0.561194 0.933942
vt 0.563945 0.847836
vt 0.563945 0.933873
vt 0.529283 0.847933
vt 0.529181 0.933873
vt 0.526430 0.933942
vt 0.479624 0.848072
vt 0.482493 0.943246
vt 0.479624 0.943256
vt 0.514967 0.943362
vt 0.526430 0.847905
vt 0.331302 0.747706
vt 0.416950 0.843308
vt 0.331295 0.843197
vt 0.416958 0.747821
vt 0.561194 0.847905
vt 0.482484 0.847961
vt 0.247280 0.852311
vt 0.247841 0.938130
vt 0.246638 0.938105
vt 0.976444 0.838505
vt 0.976046 0.752485
vt 0.976843 0.752495
vt 0.978549 0.185405
vt 0.978151 0.099384
vt 0.978948 0.099395
vt 0.257416 0.852311
vt 0.257976 0.938130
vt 0.256774 0.938105
vt 0.267552 0.852312
vt 0.268112 0.938130
vt 0.266910 0.938105
vt 0.331710 0.979293
vt 0.331313 0.893273
vt 0.332109 0.893283
vt 0.278289 0.852324
vt 0.277046 0.938105
vt 0.277086 0.852299
vt 0.278248 0.938130
vt 0.976045 0.933432
vt 0.976046 0.847416
vt 0.976843 0.847427
vt 0.976842 0.933442
vt 0.341160 0.979293
vt 0.340762 0.893273
vt 0.341559 0.893283
vt 0.287823 0.852311
vt 0.288384 0.938130
vt 0.287181 0.938105
vt 0.298561 0.852324
vt 0.298520 0.938130
vt 0.297317 0.938105
vt 0.350211 0.979288
vt 0.350211 0.893273
vt 0.351008 0.893283
vt 0.351007 0.979298
vt 0.297358 0.852299
vt 0.025961 0.852972
vt 0.025920 0.938778
vt 0.024718 0.938753
vt 0.024759 0.852947
vt 0.978151 0.090468
vt 0.978948 0.004463
vt 0.978947 0.090479
vt 0.978151 0.004453
vt 0.036097 0.852972
vt 0.036056 0.938778
vt 0.034854 0.938753
vt 0.359660 0.979288
vt 0.360457 0.893283
vt 0.360457 0.979298
vt 0.359660 0.893273
vt 0.034894 0.852947
vt 0.369109 0.979288
vt 0.369907 0.893283
vt 0.369906 0.979298
vt 0.369110 0.893273
vt 0.737659 0.871732
vt 0.736415 0.957513
vt 0.736456 0.871706
vt 0.737618 0.957538
vt 0.980530 0.587048
vt 0.980530 0.501032
vt 0.981327 0.501042
vt 0.747794 0.871732
vt 0.747753 0.957538
vt 0.746551 0.957513
vt 0.746592 0.871706
vt 0.981326 0.587058
vt 0.980529 0.681979
vt 0.981327 0.595974
vt 0.981326 0.681990
vt 0.046233 0.852972
vt 0.044989 0.938753
vt 0.045030 0.852947
vt 0.046192 0.938778
vt 0.980530 0.595964
vt 0.982504 0.347352
vt 0.983302 0.261347
vt 0.983301 0.347362
vt 0.982505 0.261337
vt 0.308696 0.852324
vt 0.308655 0.938130
vt 0.307453 0.938105
vt 0.307493 0.852298
vt 0.236406 0.947303
vt 0.241142 0.977228
vt 0.236429 0.977272
vt 0.534703 0.249363
vt 0.530348 0.243999
vt 0.534703 0.243999
vt 0.241118 0.947259
vt 0.957221 0.942467
vt 0.962888 0.972483
vt 0.957178 0.972434
vt 0.217809 0.758049
vt 0.223538 0.758083
vt 0.223486 0.788051
vt 0.217767 0.788009
vt 0.530348 0.249363
vt 0.962923 0.942523
vt 0.630898 0.946804
vt 0.635676 0.976726
vt 0.630924 0.976769
vt 0.635651 0.946760
vt 0.595163 0.243999
vt 0.599518 0.249363
vt 0.595163 0.249363
vt 0.599518 0.243999
vt 0.961720 0.710538
vt 0.967423 0.710594
vt 0.967388 0.740555
vt 0.961677 0.740506
vt 0.586555 0.249363
vt 0.582200 0.244000
vt 0.586555 0.244000
vt 0.547714 0.942979
vt 0.552492 0.972901
vt 0.547740 0.972944
vt 0.582200 0.249363
vt 0.569237 0.243999
vt 0.573592 0.243999
vt 0.573592 0.249363
vt 0.249842 0.947303
vt 0.254555 0.947259
vt 0.254579 0.977228
vt 0.249865 0.977272
vt 0.959321 0.214655
vt 0.965050 0.214689
vt 0.964998 0.244657
vt 0.569237 0.249363
vt 0.552467 0.942934
vt 0.959278 0.244616
vt 0.185966 0.508772
vt 0.161471 0.748911
vt 0.161429 0.508813
vt 0.950574 0.004590
vt 0.950566 0.244685
vt 0.944149 0.244647
vt 0.944157 0.004552
vt 0.010756 0.947809
vt 0.010656 0.971550
vt 0.004384 0.971550
vt 0.321762 0.946984
vt 0.315456 0.970794
vt 0.315490 0.946984
vt 0.321874 0.970831
vt 0.186008 0.748870
vt 0.946502 0.740803
vt 0.952975 0.500913
vt 0.952976 0.740802
vt 0.219312 0.508772
vt 0.194818 0.748911
vt 0.194776 0.508813
vt 0.946502 0.500914
vt 0.004338 0.947772
vt 0.219354 0.748870
vt 0.114390 0.806785
vt 0.098669 0.894046
vt 0.098692 0.806758
vt 0.454787 0.808922
vt 0.454805 0.895997
vt 0.449130 0.896001
vt 0.114367 0.894074
vt 0.867169 0.722840
vt 0.872432 0.738562
vt 0.867182 0.738648
vt 0.138885 0.806786
vt 0.123165 0.894047
vt 0.123188 0.806756
vt 0.449112 0.808926
vt 0.138862 0.894076
vt 0.606755 0.952393
vt 0.612010 0.968128
vt 0.606729 0.968100
vt 0.721971 0.917850
vt 0.721954 0.830774
vt 0.727629 0.830770
vt 0.611989 0.952320
vt 0.727647 0.917846
vt 0.872466 0.722855
vt 0.659929 0.246957
vt 0.661732 0.244165
vt 0.663383 0.247080
vt 0.564236 0.973636
vt 0.561779 0.973884
vt 0.561602 0.943004
vt 0.564331 0.942817
vt 0.033961 0.978671
vt 0.031565 0.978834
vt 0.031668 0.947975
vt 0.976817 0.245527
vt 0.973930 0.245350
vt 0.974087 0.214603
vt 0.976477 0.214528
vt 0.624933 0.245630
vt 0.623332 0.248408
vt 0.621480 0.245507
vt 0.034113 0.947976
vt 0.045912 0.978671
vt 0.043620 0.947975
vt 0.046064 0.947976
vt 0.043516 0.978834
vt 0.647106 0.246957
vt 0.648909 0.244165
vt 0.650560 0.247080
vt 0.306108 0.978136
vt 0.303221 0.977960
vt 0.303378 0.947213
vt 0.305767 0.947138
vt 0.637757 0.245630
vt 0.636155 0.248408
vt 0.634302 0.245507
vt 0.022447 0.978610
vt 0.019813 0.947978
vt 0.022542 0.947791
vt 0.019991 0.978858
vt 0.739892 0.227796
vt 0.756188 0.227773
vt 0.756188 0.251817
vt 0.573433 0.872658
vt 0.597841 0.840760
vt 0.597840 0.872687
vt 0.573434 0.840732
vt 0.348019 0.852309
vt 0.348024 0.884221
vt 0.331310 0.884253
vt 0.739892 0.251840
vt 0.373377 0.852310
vt 0.373382 0.884221
vt 0.356667 0.884253
vt 0.356662 0.852342
vt 0.331305 0.852341
vt 0.764796 0.227773
vt 0.781041 0.227799
vt 0.781041 0.251842
vt 0.764796 0.251817
vt 0.760890 0.830668
vt 0.736481 0.862568
vt 0.736482 0.830642
vt 0.760889 0.862594
vt 0.796033 0.950379
vt 0.790998 0.946352
vt 0.790856 0.938006
vt 0.798259 0.933624
vt 0.805533 0.938130
vt 0.805334 0.946420
vt 0.800596 0.950486
vt 0.384993 0.943997
vt 0.382645 0.937991
vt 0.386696 0.930694
vt 0.395298 0.930600
vt 0.399517 0.938091
vt 0.395153 0.945218
vt 0.388892 0.946374
vt 0.778658 0.478570
vt 0.781620 0.491860
vt 0.778725 0.491953
vt 0.781553 0.478477
vt 0.790491 0.478571
vt 0.793454 0.491860
vt 0.790558 0.491953
vt 0.793386 0.478477
vt 0.395957 0.731298
vt 0.393514 0.734104
vt 0.393475 0.731254
vt 0.494304 0.974043
vt 0.491453 0.974090
vt 0.491408 0.952522
vt 0.395997 0.734150
vt 0.467883 0.975131
vt 0.470407 0.954108
vt 0.470453 0.975135
vt 0.978627 0.710640
vt 0.978674 0.731603
vt 0.976103 0.731607
vt 0.514811 0.952522
vt 0.517707 0.974043
vt 0.514856 0.974089
vt 0.517662 0.952475
vt 0.731242 0.244000
vt 0.731242 0.246327
vt 0.729207 0.246327
vt 0.729207 0.243999
vt 0.467959 0.954051
vt 0.976178 0.710590
vt 0.494258 0.952476
vt 0.720483 0.244124
vt 0.718040 0.246929
vt 0.718001 0.244079
vt 0.720522 0.246975
vt 0.396310 0.955364
vt 0.396357 0.976328
vt 0.393786 0.976332
vt 0.503112 0.952522
vt 0.506008 0.974043
vt 0.503157 0.974090
vt 0.406716 0.731174
vt 0.404681 0.733502
vt 0.404681 0.731174
vt 0.406716 0.733502
vt 0.382607 0.976387
vt 0.382683 0.955308
vt 0.385132 0.955364
vt 0.505962 0.952475
vt 0.393861 0.955315
vt 0.482600 0.974043
vt 0.479704 0.952522
vt 0.482555 0.952476
vt 0.479749 0.974089
vt 0.385178 0.976391
vt 0.098795 0.748497
vt 0.146076 0.748441
vt 0.146122 0.797612
vt 0.713327 0.830386
vt 0.713327 0.877318
vt 0.687054 0.877317
vt 0.222531 0.816246
vt 0.196249 0.864236
vt 0.196249 0.816345
vt 0.222540 0.864194
vt 0.098840 0.797668
vt 0.161349 0.864336
vt 0.161352 0.816299
vt 0.187635 0.816278
vt 0.870911 0.825752
vt 0.870906 0.873087
vt 0.844625 0.873134
vt 0.187641 0.864372
vt 0.687054 0.830384
vt 0.844629 0.825797
vt 0.208886 0.807154
vt 0.161604 0.807210
vt 0.161559 0.758038
vt 0.208840 0.757982
vt 0.706812 0.246082
vt 0.707992 0.244177
vt 0.709119 0.246095
vt 0.896700 0.892252
vt 0.895080 0.892499
vt 0.894972 0.748560
vt 0.896794 0.748375
vt 0.937603 0.896430
vt 0.936100 0.752678
vt 0.937706 0.752678
vt 0.935996 0.896595
vt 0.670314 0.880202
vt 0.668342 0.880025
vt 0.668499 0.736225
vt 0.674887 0.245116
vt 0.673909 0.247002
vt 0.672579 0.245104
vt 0.670064 0.736147
vt 0.695426 0.246082
vt 0.696606 0.244177
vt 0.697734 0.246095
vt 0.915983 0.896371
vt 0.914362 0.896618
vt 0.914254 0.752679
vt 0.916077 0.752494
vt 0.926706 0.896430
vt 0.925099 0.896595
vt 0.925204 0.752678
vt 0.926809 0.752678
vt 0.885575 0.892423
vt 0.883760 0.748446
vt 0.885325 0.748369
vt 0.883603 0.892246
vt 0.686273 0.245116
vt 0.685295 0.247002
vt 0.683966 0.245104
vt 0.426872 0.731308
vt 0.456783 0.799794
vt 0.426901 0.799859
vt 0.456754 0.731244
vt 0.395216 0.852188
vt 0.399466 0.852221
vt 0.399435 0.920661
vt 0.294345 0.947262
vt 0.290048 0.977265
vt 0.290014 0.947306
vt 0.294379 0.977221
vt 0.844759 0.748351
vt 0.874642 0.748283
vt 0.874671 0.816831
vt 0.395180 0.920628
vt 0.844789 0.816899
vt 0.281280 0.947262
vt 0.276983 0.977265
vt 0.276949 0.947306
vt 0.281314 0.977221
vt 0.382148 0.852194
vt 0.386379 0.920655
vt 0.382115 0.920635
vt 0.386416 0.852214
vt 0.943222 0.468874
vt 0.956201 0.487411
vt 0.943227 0.487448
vt 0.956197 0.468836
vt 0.066748 0.947641
vt 0.072824 0.947632
vt 0.072824 0.965908
vt 0.726012 0.478506
vt 0.726018 0.491581
vt 0.719854 0.491543
vt 0.081432 0.947632
vt 0.087489 0.965918
vt 0.081432 0.965908
vt 0.087489 0.947642
vt 0.719848 0.478468
vt 0.740825 0.478506
vt 0.734668 0.491543
vt 0.734662 0.478468
vt 0.815271 0.934297
vt 0.828249 0.952836
vt 0.815275 0.952872
vt 0.828245 0.934260
vt 0.740831 0.491581
vt 0.066748 0.965917
vt 0.943028 0.414511
vt 0.943773 0.414512
vt 0.943239 0.429867
vt 0.930176 0.261188
vt 0.921568 0.487690
vt 0.696503 0.491749
vt 0.908373 0.261205
vt 0.905390 0.712452
vt 0.705111 0.491746
vt 0.831905 0.491745
vt 0.872609 0.267252
vt 0.886359 0.473430
vt 0.943297 0.439162
vt 0.943597 0.438896
vt 0.943439 0.454649
vt 0.979514 0.457126
vt 0.980018 0.457124
vt 0.979727 0.472481
vt 0.881414 0.723047
vt 0.881714 0.722781
vt 0.881356 0.738403
vt 0.721745 0.966015
vt 0.722249 0.966014
vt 0.721850 0.981371
vt 0.658220 0.946828
vt 0.658520 0.946562
vt 0.658436 0.962366
vt 0.824299 0.961723
vt 0.824803 0.961722
vt 0.824441 0.977079
vt 0.621068 0.952554
vt 0.621368 0.952289
vt 0.621010 0.967910
vt 0.833524 0.961723
vt 0.834027 0.961722
vt 0.833629 0.977079
vt 0.828264 0.718647
vt 0.827924 0.924579
vt 0.818975 0.925409
vt 0.819316 0.718983
vt 0.908302 0.468037
vt 0.690803 0.492092
vt 0.844629 0.739197
vt 0.844967 0.500883
vt 0.858035 0.739609
vt 0.845040 0.739609
vt 0.858378 0.739266
vt 0.769917 0.478739
vt 0.769496 0.478338
vt 0.793473 0.718647
vt 0.749868 0.492093
vt 0.710809 0.478339
vt 0.859305 0.243026
vt 0.859237 0.004304
s 1
usemtl factory_002_baked
f 1/1/1 2/2/1 3/3/1
f 1/1/1 3/3/1 4/4/1
f 28/5/2 30/6/2 27/7/2
f 31/8/3 33/9/3 34/10/3
f 36/11/4 38/12/4 35/13/4
f 43/14/3 45/15/3 42/16/3
f 46/17/2 48/18/2 49/19/2
f 54/20/5 56/21/5 53/22/5
f 59/23/6 60/24/6 61/25/6
f 63/26/7 65/27/7 62/28/7
f 66/29/8 67/30/8 68/31/8
f 70/32/9 72/33/9 69/34/9
f 74/35/10 76/36/11 77/37/12
f 78/38/13 79/39/13 80/40/13
f 23/41/14 21/42/15 22/43/16
f 26/44/17 24/45/18 25/46/19
f 46/47/20 25/48/20 24/49/20
f 28/5/2 49/19/2 48/18/2
f 31/50/21 22/51/21 21/52/21
f 43/14/3 34/10/3 33/9/3
f 40/53/22 59/23/23 61/25/23
f 41/54/24 29/55/24 40/56/24
f 35/13/25 29/57/25 28/5/25
f 75/58/26 32/59/26 76/36/26
f 69/60/27 60/61/27 70/62/27
f 75/63/28 36/64/28 35/65/28
f 39/66/29 41/67/30 40/53/31
f 68/31/32 47/68/32 66/29/32
f 50/69/33 78/38/34 80/40/34
f 51/70/35 44/71/35 50/72/35
f 53/22/36 44/73/36 43/14/36
f 52/74/37 51/75/38 50/69/39
f 62/76/40 79/77/40 63/78/40
f 53/79/41 67/80/41 54/81/41
f 57/82/42 65/27/43 64/83/44
f 58/84/45 38/12/46 37/85/47
f 73/86/48 72/33/49 71/87/50
f 77/37/12 56/21/51 55/88/52
f 285/89/53 286/90/54 284/91/55
f 298/92/56 297/93/56 296/94/56
f 298/95/56 296/96/56 297/97/56
f 5/98/57 6/99/58 7/100/59
f 5/98/57 11/101/60 6/99/58
f 10/102/61 5/103/57 7/104/59
f 10/105/61 11/106/60 5/107/57
f 7/108/59 6/109/58 12/110/62
f 11/111/60 12/112/62 6/113/58
f 10/102/61 7/104/59 9/114/63
f 7/108/59 12/110/62 9/115/63
f 8/116/64 9/117/63 12/118/62
f 8/116/64 10/119/61 9/117/63
f 11/111/60 8/120/64 12/112/62
f 10/105/61 8/121/64 11/106/60
f 13/122/65 14/123/66 17/124/67
f 13/122/65 18/125/68 14/123/66
f 20/126/69 13/127/65 17/128/67
f 20/129/69 18/130/68 13/131/65
f 17/132/67 14/133/66 16/134/70
f 18/135/68 16/136/70 14/137/66
f 19/138/71 15/139/72 16/140/70
f 17/132/67 16/134/70 15/141/72
f 19/138/71 20/142/69 15/139/72
f 20/126/69 17/128/67 15/143/72
f 18/135/68 19/144/71 16/136/70
f 20/129/69 19/145/71 18/130/68
f 22/43/73 25/46/74 23/41/75
f 21/146/15 23/147/14 30/148/76
f 22/43/73 26/44/77 25/46/74
f 26/149/77 22/51/73 34/150/78
f 30/148/79 29/151/79 33/152/79
f 23/153/75 49/154/80 27/155/81
f 23/153/75 25/48/74 49/154/80
f 24/156/18 26/157/17 45/158/82
f 45/158/83 44/159/83 48/160/83
f 26/149/77 34/150/78 42/161/84
f 35/13/85 28/5/85 33/9/85
f 28/5/85 43/14/85 33/9/85
f 59/162/86 40/56/87 29/55/88
f 33/163/89 28/164/89 41/165/30
f 36/166/1 60/167/1 29/55/88
f 28/5/85 48/18/85 43/14/85
f 39/168/90 76/169/90 32/170/91
f 35/13/85 33/9/85 75/58/85
f 41/165/30 39/171/29 31/172/92
f 60/61/93 37/173/93 36/64/93
f 70/62/94 60/61/94 36/64/94
f 70/62/95 75/63/95 76/174/95
f 59/175/96 36/176/96 38/177/96
f 69/34/97 39/66/98 40/53/22
f 69/34/97 40/53/22 61/25/23
f 48/18/85 53/22/85 43/14/85
f 78/178/99 50/179/100 44/180/101
f 48/181/94 43/182/94 51/183/38
f 54/184/96 79/185/96 44/180/101
f 52/186/102 66/187/103 47/188/104
f 48/18/85 68/31/85 53/22/85
f 51/183/38 52/189/37 46/190/105
f 50/69/33 80/40/34 62/28/106
f 50/69/33 62/28/106 52/74/107
f 52/186/102 63/191/108 67/192/109
f 79/77/110 55/193/110 54/81/110
f 63/78/89 79/77/89 54/81/89
f 63/78/89 54/81/89 67/80/89
f 78/194/1 54/195/1 56/196/1
f 72/197/1 56/196/1 76/198/1
f 57/199/42 58/200/45 37/201/47
f 57/199/42 64/202/44 58/200/45
f 60/61/111 57/203/42 37/173/47
f 64/204/44 67/80/112 58/205/45
f 64/204/113 63/78/113 67/80/113
f 73/206/48 77/207/12 55/208/52
f 73/206/48 71/209/50 77/207/12
f 79/77/114 73/210/48 55/193/52
f 71/211/50 74/212/10 77/213/12
f 84/214/115 82/215/116 81/216/117
f 87/217/118 81/218/117 82/219/116
f 87/217/118 86/220/119 81/218/117
f 86/221/119 84/222/115 81/223/117
f 88/224/120 87/225/118 82/226/116
f 88/224/120 82/226/116 85/227/121
f 84/214/115 85/228/121 82/215/116
f 83/229/122 85/230/121 84/231/115
f 83/229/122 88/232/120 85/230/121
f 86/221/119 83/233/122 84/222/115
f 86/234/119 88/235/120 83/236/122
f 86/234/119 87/237/118 88/235/120
f 93/238/123 89/239/124 94/240/125
f 94/241/125 89/242/124 96/243/126
f 89/244/124 92/245/127 96/246/126
f 89/244/124 91/247/128 92/245/127
f 93/238/123 91/248/128 89/239/124
f 93/249/123 94/250/125 90/251/129
f 93/249/123 90/251/129 95/252/130
f 90/253/129 92/254/127 95/255/130
f 94/241/125 96/243/126 90/256/129
f 90/253/129 96/257/126 92/254/127
f 91/258/128 95/259/130 92/260/127
f 91/258/128 93/261/123 95/259/130
f 100/262/131 97/263/132 101/264/133
f 101/265/133 97/266/132 103/267/134
f 100/262/131 102/268/135 97/263/132
f 102/269/135 103/270/134 97/271/132
f 99/272/136 98/273/137 102/274/135
f 98/275/137 99/276/136 104/277/138
f 98/275/137 104/277/138 103/278/134
f 102/269/135 98/279/137 103/270/134
f 99/280/136 101/281/133 104/282/138
f 99/280/136 100/283/131 101/281/133
f 99/272/136 102/274/135 100/284/131
f 101/265/133 103/267/134 104/285/138
f 107/286/56 106/287/56 105/288/56
f 105/289/56 106/290/56 107/291/56
f 109/292/56 108/293/56 110/294/56
f 110/295/56 108/296/56 109/297/56
f 113/298/56 111/299/56 112/300/56
f 112/301/56 111/302/56 113/303/56
f 115/304/139 114/305/140 117/306/141
f 115/304/139 117/306/141 116/307/142
f 116/308/142 117/309/141 114/310/140
f 116/308/142 114/310/140 115/311/139
f 119/312/56 118/313/56 120/314/56
f 120/315/56 118/316/56 119/317/56
f 124/318/143 121/319/144 123/320/145
f 124/318/143 123/320/145 122/321/146
f 122/322/146 123/323/145 121/324/144
f 122/322/146 121/324/144 124/325/143
f 127/326/143 125/327/144 128/328/145
f 126/329/146 128/330/145 125/331/144
f 126/329/146 125/331/144 127/332/143
f 127/326/143 128/328/145 126/333/146
f 131/334/147 129/335/144 130/336/143
f 131/334/147 132/337/145 129/335/144
f 130/338/143 132/339/145 131/340/147
f 130/338/143 129/341/144 132/339/145
f 134/342/142 135/343/148 133/344/149
f 134/342/142 133/344/149 136/345/139
f 136/346/139 133/347/149 135/348/148
f 136/346/139 135/348/148 134/349/142
f 138/350/150 140/351/151 137/352/152
f 137/353/152 139/354/153 138/355/150
f 137/353/152 140/356/151 139/354/153
f 138/350/150 139/357/153 140/351/151
f 144/358/146 142/359/144 141/360/143
f 144/358/146 143/361/145 142/359/144
f 141/362/143 142/363/144 143/364/145
f 141/362/143 143/364/145 144/365/146
f 145/366/154 148/367/155 147/368/156
f 145/366/154 146/369/157 148/367/155
f 147/370/156 146/371/157 145/372/154
f 147/370/156 148/373/155 146/371/157
f 149/374/158 155/375/159 154/376/160
f 149/374/158 152/377/161 155/375/159
f 151/378/162 149/379/158 154/380/160
f 151/381/162 152/382/161 149/383/158
f 153/384/163 150/385/164 156/386/165
f 154/387/160 156/388/165 150/389/164
f 153/384/163 151/390/162 150/385/164
f 151/378/162 154/380/160 150/391/164
f 151/381/162 153/392/163 152/382/161
f 152/393/161 156/394/165 155/395/159
f 152/393/161 153/396/163 156/394/165
f 154/387/160 155/397/159 156/388/165
f 157/398/158 161/399/166 162/400/160
f 157/398/158 160/401/161 161/399/166
f 158/402/162 157/403/158 162/404/160
f 158/405/162 160/406/161 157/407/158
f 158/405/162 159/408/163 160/406/161
f 159/409/163 158/410/162 164/411/164
f 158/402/162 162/404/160 164/412/164
f 159/409/163 164/411/164 163/413/165
f 160/414/161 159/415/163 163/416/165
f 160/414/161 163/416/165 161/417/166
f 162/418/160 161/419/166 163/420/165
f 162/418/160 163/420/165 164/421/164
f 170/422/123 166/423/125 165/424/129
f 170/422/123 165/424/129 172/425/130
f 165/426/129 168/427/127 172/428/130
f 166/429/125 169/430/126 165/431/129
f 165/426/129 169/432/126 168/427/127
f 166/429/125 171/433/124 169/430/126
f 170/434/123 171/435/124 166/436/125
f 171/437/124 167/438/128 168/439/127
f 167/440/128 172/441/130 168/442/127
f 167/440/128 170/443/123 172/441/130
f 170/434/123 167/444/128 171/435/124
f 171/437/124 168/439/127 169/445/126
f 173/446/131 174/447/132 175/448/133
f 173/446/131 179/449/135 174/447/132
f 177/450/136 173/451/131 175/452/133
f 177/453/136 179/454/135 173/455/131
f 175/456/133 174/457/132 180/458/134
f 179/459/135 180/460/134 174/461/132
f 177/450/136 175/452/133 176/462/138
f 175/456/133 180/458/134 176/463/138
f 178/464/137 176/465/138 180/466/134
f 178/464/137 177/467/136 176/465/138
f 177/453/136 178/468/137 179/454/135
f 179/459/135 178/469/137 180/460/134
f 181/470/56 182/471/56 183/472/56
f 181/473/56 183/474/56 182/475/56
f 184/476/56 185/477/56 186/478/56
f 184/479/56 186/480/56 185/481/56
f 188/482/56 187/483/56 189/484/56
f 188/485/56 189/486/56 187/487/56
f 190/488/167 192/489/168 191/490/169
f 190/488/167 193/491/170 192/489/168
f 191/492/169 192/493/168 193/494/170
f 191/492/169 193/494/170 190/495/167
f 194/496/56 195/497/56 196/498/56
f 194/499/56 196/500/56 195/501/56
f 200/502/171 197/503/144 198/504/172
f 199/505/146 198/506/172 197/507/144
f 199/505/146 197/507/144 200/508/171
f 200/502/171 198/504/172 199/509/146
f 202/510/171 201/511/144 203/512/173
f 202/510/171 203/512/173 204/513/146
f 204/514/146 201/515/144 202/516/171
f 204/514/146 203/517/173 201/515/144
f 206/518/143 205/519/174 207/520/145
f 208/521/146 205/522/174 206/523/143
f 208/521/146 207/524/145 205/522/174
f 206/518/143 207/520/145 208/525/146
f 211/526/175 212/527/176 209/528/177
f 211/526/175 210/529/178 212/527/176
f 209/530/177 210/531/178 211/532/175
f 209/530/177 212/533/176 210/531/178
f 215/534/150 213/535/153 216/536/151
f 214/537/179 216/538/151 213/539/153
f 214/537/179 213/539/153 215/540/150
f 215/534/150 216/536/151 214/541/179
f 218/542/180 220/543/181 217/544/143
f 217/545/143 219/546/145 218/547/180
f 217/545/143 220/548/181 219/546/145
f 218/542/180 219/549/145 220/543/181
f 224/550/156 221/551/157 223/552/182
f 224/550/156 222/553/155 221/551/157
f 223/554/182 221/555/157 222/556/155
f 223/554/182 222/556/155 224/557/156
f 231/558/163 225/559/164 226/560/165
f 228/561/160 226/562/165 225/563/164
f 231/558/163 229/564/162 225/559/164
f 229/565/162 228/566/160 225/567/164
f 232/568/161 231/569/163 226/570/165
f 232/568/161 226/570/165 230/571/166
f 228/561/160 230/572/166 226/562/165
f 229/565/162 227/573/158 228/566/160
f 227/574/158 230/575/166 228/576/160
f 227/574/158 232/577/161 230/575/166
f 229/578/162 232/579/161 227/580/158
f 229/578/162 231/581/163 232/579/161
f 235/582/162 239/583/158 233/584/160
f 235/582/162 233/584/160 236/585/164
f 233/586/160 240/587/165 236/588/164
f 239/589/158 238/590/159 233/591/160
f 233/586/160 238/592/159 240/587/165
f 235/593/162 234/594/163 237/595/161
f 234/596/163 235/597/162 236/598/164
f 234/596/163 236/598/164 240/599/165
f 237/600/161 234/601/163 240/602/165
f 235/593/162 237/595/161 239/603/158
f 239/589/158 237/604/161 238/590/159
f 237/600/161 240/602/165 238/605/159
f 246/606/183 242/607/184 241/608/183
f 241/609/185 242/610/186 245/611/187
f 241/609/185 245/611/187 248/612/188
f 246/613/189 241/614/185 248/615/188
f 242/616/186 244/617/190 245/618/187
f 242/616/186 247/619/191 244/617/190
f 246/606/183 247/620/184 242/607/184
f 247/621/191 243/622/192 244/623/190
f 248/624/193 244/625/194 243/626/193
f 247/621/191 246/627/189 243/622/192
f 246/613/189 248/615/188 243/628/192
f 248/624/193 245/629/194 244/625/194
f 255/630/195 249/631/196 256/632/197
f 256/633/198 249/634/199 253/635/200
f 255/630/195 254/636/201 249/631/196
f 254/637/202 253/638/200 249/639/199
f 252/640/203 250/641/204 253/642/205
f 256/633/198 253/635/200 250/643/206
f 252/640/203 251/644/207 250/641/204
f 251/645/208 256/646/198 250/647/206
f 251/648/208 252/649/209 254/650/202
f 251/645/208 255/651/210 256/646/198
f 251/648/208 254/650/202 255/652/210
f 254/637/202 252/653/209 253/638/200
f 257/654/211 258/655/212 259/656/213
f 257/657/211 259/658/213 260/659/214
f 257/657/211 260/659/214 262/660/215
f 258/661/212 257/662/211 262/663/215
f 259/664/213 258/665/212 261/666/216
f 259/664/213 261/666/216 260/667/214
f 260/668/214 261/669/216 262/670/215
f 258/661/212 262/663/215 261/671/216
f 263/672/212 267/673/215 266/674/216
f 263/672/212 268/675/211 267/673/215
f 268/676/211 263/677/212 264/678/213
f 264/679/213 263/680/212 266/681/216
f 264/679/213 266/681/216 265/682/214
f 265/683/214 266/684/216 267/685/215
f 268/686/211 265/687/214 267/688/215
f 268/686/211 264/689/213 265/687/214
f 274/690/217 269/691/218 270/692/219
f 269/693/218 276/694/220 270/695/219
f 269/693/218 271/696/221 276/694/220
f 271/697/221 269/698/218 274/699/217
f 274/690/217 270/692/219 275/700/222
f 273/701/223 275/702/222 270/703/219
f 273/701/223 270/703/219 276/704/220
f 271/697/221 274/699/217 272/705/224
f 271/706/221 272/707/224 273/708/223
f 271/706/221 273/708/223 276/709/220
f 272/710/224 275/711/222 273/712/223
f 272/710/224 274/713/217 275/711/222
f 277/714/225 283/715/226 282/716/227
f 277/714/225 282/716/227 278/717/228
f 277/714/225 278/717/228 281/718/229
f 277/714/225 281/718/229 279/719/230
f 277/714/225 279/719/230 280/720/231
f 280/721/231 279/722/230 281/723/229
f 280/721/231 281/723/229 278/724/228
f 280/721/231 278/724/228 282/725/227
f 280/721/231 282/725/227 283/726/226
f 280/721/231 283/726/226 277/727/225
f 302/728/232 304/729/233 305/730/234
f 302/728/232 303/731/235 304/729/233
f 303/732/235 305/733/234 304/734/233
f 303/732/235 302/735/232 305/733/234
f 307/736/236 306/737/237 313/738/238
f 313/739/238 306/740/237 310/741/239
f 307/736/236 312/742/240 306/737/237
f 312/743/240 310/744/239 306/745/237
f 309/746/241 307/747/236 313/748/238
f 309/749/241 312/750/240 307/751/236
f 309/749/241 308/752/242 312/750/240
f 308/753/242 309/754/241 311/755/243
f 308/753/242 311/755/243 310/756/239
f 312/743/240 308/757/242 310/744/239
f 309/746/241 313/748/238 311/758/243
f 313/739/238 310/741/239 311/759/243
f 314/760/236 319/761/237 321/762/238
f 314/760/236 320/763/240 319/761/237
f 316/764/241 314/765/236 321/766/238
f 316/767/241 320/768/240 314/769/236
f 315/770/242 317/771/243 318/772/239
f 315/770/242 316/773/241 317/771/243
f 320/774/240 315/775/242 318/776/239
f 316/767/241 315/777/242 320/768/240
f 316/764/241 321/766/238 317/778/243
f 321/779/238 318/780/239 317/781/243
f 321/779/238 319/782/237 318/780/239
f 320/774/240 318/776/239 319/783/237
f 322/784/244 324/785/245 323/786/246
f 324/787/245 322/788/244 329/789/247
f 322/790/244 327/791/248 329/792/247
f 322/790/244 326/793/249 327/791/248
f 322/784/244 323/786/246 326/794/249
f 323/795/246 324/796/245 328/797/250
f 326/798/249 323/799/246 325/800/251
f 323/795/246 328/797/250 325/801/251
f 324/787/245 329/789/247 328/802/250
f 326/798/249 325/800/251 327/803/248
f 327/804/248 325/805/251 328/806/250
f 327/804/248 328/806/250 329/807/247
f 330/808/252 331/809/253 334/810/254
f 330/811/252 334/812/254 332/813/255
f 330/811/252 332/813/255 335/814/256
f 331/815/253 335/816/256 333/817/257
f 331/815/253 330/818/252 335/816/256
f 334/819/254 331/820/253 333/821/257
f 332/822/255 333/823/257 335/824/256
f 334/819/254 333/821/257 332/825/255
f 336/826/252 337/827/253 338/828/254
f 336/829/252 338/830/254 339/831/255
f 336/829/252 339/831/255 340/832/256
f 337/833/253 336/834/252 340/835/256
f 337/833/253 340/835/256 341/836/257
f 338/837/254 341/838/257 339/839/255
f 338/837/254 337/840/253 341/838/257
f 339/841/255 341/842/257 340/843/256
f 342/844/258 347/845/259 345/846/260
f 342/844/258 349/847/261 347/845/259
f 343/848/262 342/849/258 345/850/260
f 343/851/262 349/852/261 342/853/258
f 343/851/262 348/854/263 349/852/261
f 348/855/263 343/856/262 344/857/264
f 343/848/262 345/850/260 344/858/264
f 348/855/263 344/857/264 346/859/265
f 345/860/260 346/861/265 344/862/264
f 345/860/260 347/863/259 346/861/265
f 349/864/261 346/865/265 347/866/259
f 349/864/261 348/867/263 346/865/265
f 350/868/266 352/869/267 355/870/268
f 350/868/266 351/871/269 352/869/267
f 356/872/270 350/873/266 355/874/268
f 351/875/269 350/876/266 356/877/270
f 351/878/269 354/879/271 352/880/267
f 351/878/269 353/881/272 354/879/271
f 351/875/269 356/877/270 353/882/272
f 354/883/271 355/884/268 352/885/267
f 353/886/272 357/887/273 354/888/271
f 353/886/272 356/889/270 357/887/273
f 354/883/271 357/890/273 355/884/268
f 356/872/270 355/874/268 357/891/273
f 28/5/274 29/57/274 30/6/274
f 31/8/3 32/59/3 33/9/3
f 36/11/275 37/85/275 38/12/275
f 43/14/276 44/73/276 45/15/276
f 46/17/2 47/68/2 48/18/2
f 54/20/277 55/88/277 56/21/277
f 59/23/278 57/82/42 60/24/111
f 63/26/279 64/83/279 65/27/279
f 66/29/280 58/84/45 67/30/112
f 70/32/281 71/87/281 72/33/281
f 74/35/282 75/58/283 76/36/284
f 78/38/285 73/86/48 79/39/114
f 284/892/55 286/893/54 285/894/53
f 46/47/80 49/154/80 25/48/74
f 23/153/75 27/155/81 30/895/81
f 28/5/2 27/7/2 49/19/2
f 31/50/78 34/150/78 22/51/73
f 26/149/77 42/161/84 45/896/84
f 43/14/3 42/16/3 34/10/3
f 41/54/286 30/897/286 29/55/286
f 35/13/287 38/12/287 29/57/287
f 39/66/98 69/34/97 72/33/288
f 39/171/90 32/898/91 31/172/289
f 75/58/3 33/9/3 32/59/3
f 69/60/6 61/899/6 60/61/6
f 75/63/283 74/212/282 36/64/283
f 52/74/107 62/28/106 65/27/290
f 52/186/102 47/188/104 46/900/291
f 68/31/2 48/18/2 47/68/2
f 51/70/292 45/901/292 44/71/292
f 53/22/293 56/21/293 44/73/293
f 62/76/13 80/902/13 79/77/13
f 53/79/8 68/903/8 67/80/8
f 57/82/42 59/23/294 65/27/43
f 58/84/45 66/29/295 38/12/46
f 73/86/48 78/38/296 72/33/49
f 77/37/12 76/36/297 56/21/51
f 289/904/56 287/905/56 288/906/56
f 287/907/56 289/908/56 288/909/56
f 292/910/56 290/911/56 291/912/56
f 290/913/56 292/914/56 291/915/56
f 295/916/56 293/917/56 294/918/56
f 293/919/56 295/920/56 294/921/56
f 300/922/298 299/923/299 301/924/300
f 299/925/299 300/926/298 301/927/300
f 34/928/301 21/146/301 33/152/301
f 21/146/15 30/148/76 33/152/94
f 29/151/302 28/929/302 33/152/302
f 49/930/303 24/156/303 48/160/303
f 24/156/18 45/158/82 48/160/89
f 44/159/304 43/931/304 48/160/304
f 29/932/305 41/165/305 28/164/305
f 41/165/30 31/172/92 33/163/89
f 59/162/86 29/55/88 60/167/1
f 29/55/88 38/933/1 36/166/1
f 70/62/306 36/64/306 75/63/306
f 38/177/96 65/934/96 59/175/96
f 60/935/96 36/176/96 59/175/96
f 67/936/96 63/937/96 66/938/96
f 66/938/96 63/937/96 65/934/96
f 65/934/96 38/177/96 66/938/96
f 76/169/307 39/168/308 70/939/309
f 39/168/308 72/940/310 70/939/309
f 44/941/311 51/183/311 43/182/311
f 51/183/38 46/190/105 48/181/94
f 78/178/99 44/180/101 79/185/96
f 44/180/101 56/942/96 54/184/96
f 66/187/103 52/186/102 67/192/109
f 52/186/102 65/943/312 63/191/108
f 56/196/1 72/197/1 78/194/1
f 79/944/1 54/195/1 78/194/1
f 76/198/1 70/945/1 72/197/1
f 74/212/10 71/211/50 70/62/313
f 74/212/314 70/62/314 76/174/314
