# Blender 4.5.0
# www.blender.org
mtllib factory_003.mtl
o factory_003
v -3.104776 3.745850 -3.002623
v 3.104776 3.745850 -3.002623
v 3.104776 4.896112 -1.300653
v -3.104776 4.896112 -1.300653
v -3.054699 3.745851 -1.300653
v -3.054699 4.896112 -1.300653
v -3.054699 3.745850 -3.002623
v 3.054699 3.745850 -3.002623
v 3.054699 4.896112 -1.300653
v 3.054699 3.745851 -1.300653
v 3.104776 3.745851 -1.000305
v -3.104776 3.745851 -1.000305
v 3.104776 4.896112 0.701665
v -3.104776 4.896112 0.701665
v -3.054699 3.745851 0.701665
v -3.054699 4.896112 0.701665
v -3.054699 3.745851 -1.000305
v 3.054699 3.745851 -1.000305
v 3.054699 4.896112 0.701665
v 3.054699 3.745851 0.701665
v -3.104776 3.745851 1.002013
v 3.104776 3.745851 1.002013
v 3.104776 4.896112 2.703983
v -3.104776 4.896112 2.703983
v -3.054699 3.745851 2.703983
v -3.054699 4.896112 2.703983
v -3.054699 3.745851 1.002013
v 3.054699 3.745851 1.002013
v 3.054699 4.896112 2.703983
v 3.054699 3.745851 2.703983
v -1.872881 3.465787 -3.163810
v 0.871341 3.465787 -3.163810
v 0.871341 3.125710 -3.163810
v -1.872881 3.125710 -3.163810
v 3.250000 0.140032 -3.245904
v -3.250000 -0.000000 -3.245904
v -3.248536 0.001462 3.250000
v -3.250000 0.140032 3.247612
v -3.248536 0.138570 -3.248292
v 3.248536 0.001462 -3.248292
v 3.248536 0.138570 3.250000
v 3.250000 0.000000 3.247612
v 2.997443 0.149814 -2.997871
v -2.997443 0.149815 2.999579
v -2.999633 3.741936 2.996798
v 2.997443 3.741069 2.999579
v 2.999633 3.741936 -2.995090
v -2.997443 3.741069 -2.997871
v -2.999633 0.148947 -2.995090
v 2.999633 0.148948 2.996798
v -3.045962 4.883127 -1.318317
v 3.045962 3.758836 -1.318316
v -3.045962 3.758836 -1.242943
v 3.045962 4.883127 -1.242943
v -3.048164 4.882917 -1.245189
v 3.048164 4.882917 -1.316071
v -3.048164 3.759046 -1.316071
v 3.048164 3.759046 -1.245188
v -3.078562 4.910556 -1.335428
v -3.080313 4.850372 -1.332763
v 3.078562 4.851662 -1.335428
v 3.078563 4.910556 -1.225832
v 3.080313 4.911845 -1.332763
v -3.080313 4.911845 -1.228496
v 3.080313 4.850372 -1.228496
v -3.078562 4.851662 -1.225832
v -2.020881 4.883881 -1.230572
v -1.987874 4.884796 -1.241327
v -2.018289 3.757166 -1.241327
v -2.004347 4.874042 -1.208019
v -1.987874 3.757166 -1.219817
v -0.986334 4.884796 -1.241327
v -1.016748 4.884796 -1.219817
v -0.986334 3.757166 -1.219817
v -1.016748 3.757166 -1.241327
v -0.017709 4.883791 -1.232956
v 0.001265 4.874042 -1.253124
v 0.017709 4.883791 -1.228188
v -0.001265 4.874042 -1.208019
v 0.001265 3.767920 -1.208019
v 0.017709 3.758172 -1.232956
v -0.017709 3.758172 -1.228188
v -0.001265 3.767920 -1.253124
v 1.016748 4.884796 -1.241327
v 0.986334 3.757166 -1.241327
v 0.986334 4.884796 -1.219817
v 1.016748 3.757166 -1.219817
v 2.020881 3.758081 -1.230572
v 1.987874 3.757166 -1.241327
v 1.987874 4.884796 -1.219817
v 2.004347 3.767920 -1.208019
v 2.018289 4.884796 -1.241327
v -3.017475 3.717709 -2.977852
v -3.087795 3.712629 -2.977648
v -3.053990 3.796591 -3.026150
v -3.008324 3.761863 -3.012545
v -3.100204 4.876995 -1.292638
v -3.051170 4.850180 -1.272709
v -3.021800 4.929269 -1.326253
v -3.007554 4.882302 -1.294698
v -3.091871 4.923856 -1.328950
v -3.101787 3.761086 -3.008197
v 3.007612 3.761086 -3.008197
v 3.055408 3.796591 -3.026150
v 3.101075 3.761863 -3.012545
v 3.059380 4.938572 -1.331449
v 3.010260 4.912237 -1.316313
v 3.015136 4.860209 -1.286573
v 3.107961 4.895158 -1.306120
v 3.073355 4.856840 -1.275262
v 3.021604 3.712629 -2.977648
v 3.091924 3.717709 -2.977852
v 3.100051 3.729812 -1.264409
v -3.100051 3.781893 -1.264409
v -3.102222 3.783172 -0.999258
v -3.102222 3.728534 -1.261653
v -3.100051 3.729812 -0.996502
v 3.102222 3.728534 -0.999258
v 3.100051 3.781893 -0.996502
v 3.102222 3.783172 -1.261653
v -3.045962 4.883127 0.684001
v -3.048164 3.759046 0.686247
v 3.048164 3.759046 0.757129
v 3.045962 4.883127 0.759375
v 3.048164 4.882917 0.686247
v -3.048164 4.882917 0.757129
v 3.045962 3.758836 0.684001
v -3.045962 3.758836 0.759375
v 3.078562 4.851662 0.666890
v -3.080313 4.850372 0.669554
v 3.078563 4.910556 0.776486
v -3.078562 4.851662 0.776486
v 3.080313 4.850372 0.773822
v -3.078563 4.910556 0.666890
v -3.080313 4.911845 0.773822
v 3.080313 4.911845 0.669555
v -2.020881 4.883881 0.771746
v -2.001817 4.874042 0.749194
v -2.004347 3.767920 0.749194
v -1.985282 4.883881 0.771746
v -2.004347 4.874042 0.794299
v -2.020881 3.758081 0.771746
v -1.987874 3.757166 0.782501
v -0.986360 4.884864 0.760937
v -1.002806 4.874042 0.794299
v -1.018911 4.884628 0.770642
v -1.002806 3.767920 0.749194
v -0.986360 3.757098 0.782555
v -1.018911 3.757334 0.772850
v -0.017799 4.883881 0.771746
v -0.001265 4.874042 0.794299
v 0.017799 4.883881 0.771746
v -0.001265 3.767920 0.749194
v -0.017799 3.758081 0.771746
v 0.001265 4.874042 0.749194
v 0.015207 3.757166 0.782501
v 0.986360 4.884864 0.782555
v 1.002806 4.874042 0.749194
v 0.986360 3.757098 0.760937
v 1.002806 3.767920 0.794299
v 1.018911 4.884628 0.772850
v 1.018911 3.757334 0.770643
v 2.004347 4.874042 0.749194
v 2.020881 4.883881 0.771746
v 1.987874 4.884796 0.782501
v 2.018289 3.757166 0.782501
v 1.987874 3.757166 0.760991
v -3.017475 3.717709 -0.975534
v -3.087795 3.712629 -0.975330
v -3.101787 3.761086 -1.005879
v -3.008325 3.761864 -1.010228
v -3.050018 4.938572 0.670869
v -3.001438 4.895159 0.696198
v -3.053991 3.796591 -1.023832
v -3.099139 4.912237 0.686005
v -3.094263 4.860208 0.715745
v -3.036043 4.856840 0.727056
v 3.055408 3.796591 -1.023832
v 3.107961 4.895159 0.696197
v 3.010260 4.912237 0.686005
v 3.015136 4.860208 0.715745
v 3.073356 4.856840 0.727055
v 3.101075 3.761863 -1.010228
v 3.059380 4.938572 0.670869
v 3.007612 3.761086 -1.005879
v 3.021604 3.712629 -0.975330
v 3.091924 3.717709 -0.975533
v -3.100051 3.781893 0.737908
v 3.100051 3.729812 0.737908
v 3.100051 3.781893 1.005816
v -3.102222 3.728534 0.740664
v 3.102222 3.728534 1.003060
v -3.102222 3.783172 1.003060
v 3.102222 3.783172 0.740664
v -3.100051 3.729812 1.005816
v -3.045962 4.883127 2.686319
v -3.048164 3.759046 2.688565
v 3.045962 4.883127 2.761693
v 3.048164 4.882916 2.688565
v -3.048164 4.882917 2.759447
v 3.045962 3.758836 2.686319
v 3.048164 3.759046 2.759447
v -3.045962 3.758836 2.761693
v 3.078563 4.910556 2.778804
v -3.080313 4.911845 2.776139
v -3.078562 4.851662 2.778804
v 3.078562 4.851661 2.669208
v 3.080313 4.911845 2.671872
v -3.078562 4.910556 2.669208
v -3.080313 4.850372 2.671872
v 3.080313 4.850372 2.776140
v -2.001817 4.874042 2.751512
v -2.004347 3.767921 2.751512
v -2.020881 3.758081 2.774064
v -1.985282 4.883881 2.774064
v -2.018289 4.884796 2.784819
v -1.987874 3.757167 2.784819
v -1.016748 4.884796 2.784819
v -1.000276 4.874042 2.751512
v -0.983741 4.883881 2.774064
v -1.002806 3.767921 2.751512
v -1.019340 3.758081 2.774064
v -0.986334 3.757167 2.784819
v 0.017709 4.883791 2.776448
v -0.001265 4.874042 2.796616
v -0.017709 3.758172 2.776448
v 0.001265 3.767921 2.796617
v 0.017709 3.758172 2.771681
v -0.017709 4.883791 2.771680
v 0.001265 4.874042 2.751512
v -0.001265 3.767921 2.751512
v 1.002806 4.874042 2.751512
v 1.019340 4.883881 2.774064
v 1.000276 3.767921 2.751512
v 0.986334 4.884796 2.784819
v 0.983741 3.758081 2.774064
v 1.016748 3.757167 2.784819
v 2.020881 4.883881 2.774064
v 2.004347 4.874042 2.751512
v 1.987874 4.884796 2.784819
v 2.001817 3.767921 2.751512
v 1.985282 3.758081 2.774064
v 2.018289 3.757166 2.784819
v -3.056040 3.795770 0.978443
v -3.017417 4.927516 2.682105
v -3.091871 4.923856 2.675686
v -3.095521 4.864649 2.719169
v -3.021800 4.860034 2.725261
v -3.001845 3.752546 1.000629
v -3.101787 3.761086 0.996439
v -3.087795 3.712629 1.026988
v -3.031821 3.711198 1.028873
v 3.035858 3.707915 1.028618
v 3.000407 3.747795 1.010687
v 3.093969 3.718862 1.026400
v 3.095117 3.774757 0.984486
v 3.010260 4.912237 2.688323
v 3.015136 4.860208 2.718063
v 3.101845 4.906772 2.693369
v 3.087599 4.860034 2.725261
v 3.060679 4.938624 2.672716
v 3.037444 3.787330 0.979123
v -3.100051 3.781894 2.740227
v -3.100051 3.729813 3.008134
v -3.102222 3.728534 2.742983
v -3.102222 3.783172 3.005378
v 3.102222 3.783172 2.742982
v 3.100051 3.781894 3.008134
v 3.102222 3.728534 3.005378
v 3.100051 3.729813 2.740227
v -2.296590 2.939705 -3.098226
v 1.295049 0.150996 -3.098226
v -2.298269 0.149778 -3.095831
v 1.295049 2.939705 -3.007136
v -2.298269 2.940923 -3.009531
v 1.296728 2.940923 -3.095831
v 1.296728 0.149778 -3.009530
v -2.296589 0.150996 -3.007135
v -2.255847 0.312157 -3.114021
v -2.247551 0.298555 -3.137509
v 1.246010 0.316584 -3.137509
v 1.254306 0.302982 -3.114021
v 1.246010 0.486622 -3.137509
v 1.254306 0.473021 -3.114021
v -2.247551 0.468594 -3.137509
v -2.255847 0.482196 -3.114021
v 1.246010 0.656661 -3.137509
v 1.254306 0.643059 -3.114021
v -2.255847 0.652234 -3.114021
v -2.247551 0.638633 -3.137509
v -2.247551 0.826700 -3.108015
v -2.255847 0.813098 -3.131503
v 1.254305 0.813098 -3.114021
v 1.246010 0.826700 -3.137509
v -2.255847 0.992312 -3.114021
v -2.247551 0.978710 -3.137509
v 1.254305 0.992312 -3.131503
v 1.246010 0.978710 -3.108015
v -2.247551 1.166777 -3.108015
v 1.246010 1.166777 -3.137509
v 1.254305 1.153175 -3.114021
v -2.255846 1.153175 -3.131503
v 1.254305 1.332389 -3.131503
v -2.255846 1.332389 -3.114021
v -2.247551 1.318787 -3.137509
v 1.246010 1.318787 -3.108015
v -2.247551 1.506854 -3.108015
v -2.255847 1.493252 -3.131503
v 1.246010 1.506854 -3.137509
v 1.254306 1.493252 -3.114021
v -2.255846 1.663291 -3.131503
v 1.246010 1.676893 -3.137509
v -2.247551 1.676893 -3.108015
v 1.254305 1.663291 -3.114021
v -2.247551 1.828903 -3.137509
v -2.255846 1.842505 -3.114021
v 1.246010 1.828903 -3.108015
v 1.254305 1.842505 -3.131503
v -2.247551 1.998942 -3.137509
v 1.246010 1.998942 -3.108015
v -2.255847 2.012543 -3.114021
v 1.254306 2.012543 -3.131503
v 1.254305 2.182582 -3.131503
v -2.247551 2.168980 -3.137509
v -2.255846 2.182582 -3.114021
v 1.246010 2.168980 -3.108015
v -2.255847 2.343445 -3.131503
v 1.254306 2.343445 -3.114021
v -2.247551 2.357047 -3.108015
v 1.246010 2.357047 -3.137509
v 1.254306 2.513484 -3.114021
v -2.247551 2.527086 -3.108015
v 1.246010 2.527086 -3.137509
v -2.255847 2.513484 -3.131503
v 1.246010 2.679096 -3.108015
v 1.254305 2.692698 -3.131503
v -2.255846 2.692698 -3.114021
v -2.247551 2.679096 -3.137509
v -2.255847 2.853561 -3.131503
v -2.247551 2.867163 -3.108015
v 1.246010 2.867163 -3.137509
v 1.254306 2.853561 -3.114021
v 1.884110 2.409895 -3.131180
v 2.823759 2.411079 -3.130441
v 2.823132 2.409895 -2.994205
v 1.883483 0.169507 -3.130441
v 1.883483 2.411079 -2.994944
v 1.884110 0.170690 -2.994205
v 2.823759 0.169507 -2.994944
v 2.823132 0.170690 -3.131180
v 2.751646 0.238488 -3.154516
v 1.955595 0.238488 -3.151078
v 1.955595 2.332095 -3.154516
v 2.751647 2.332095 -3.151078
v 2.337388 2.329060 -3.203121
v 2.371285 2.330571 -3.200663
v 2.371285 0.240012 -3.165000
v 2.335957 2.330571 -3.165000
v 2.369854 2.329060 -3.162542
v 2.335957 0.240012 -3.200663
v 2.369854 0.241524 -3.203121
v 2.337388 0.241523 -3.162542
v 2.231266 0.997979 -3.275000
v 2.231266 1.392564 -3.210802
v 2.235606 0.997979 -3.210802
v 2.235606 1.392564 -3.275000
v 2.471636 1.392564 -3.210802
v 2.475976 1.392564 -3.275000
v 2.475976 0.997979 -3.210802
v 2.471636 0.997979 -3.275000
v 0.893033 3.098722 -3.156379
v 0.893033 3.492774 -3.009053
v -1.894574 3.492774 -3.156379
v -1.896452 3.492433 -3.010085
v 0.894912 3.492433 -3.155347
v -1.896453 3.099063 -3.155346
v 0.894912 3.099063 -3.010085
v -1.894573 3.098722 -3.009053
v -2.880981 0.117575 3.127848
v -2.836803 0.117834 3.129631
v -2.811930 0.118062 3.089289
v -2.855374 0.123291 3.050513
v -2.889717 3.491588 3.076586
v -2.886156 3.487530 3.124797
v -2.817058 3.492985 3.081980
v -2.828007 3.492759 3.128087
v -2.849557 3.493244 3.052014
v -2.891996 0.119232 3.082088
v 2.816787 0.119232 3.082087
v 2.853408 0.123291 3.050513
v 2.871979 0.117835 3.129631
v 2.896853 0.118062 3.089289
v 2.891725 3.492985 3.081981
v 2.819066 3.491588 3.076586
v 2.822627 3.487530 3.124797
v 2.859225 3.493245 3.052014
v 2.827802 0.117575 3.127848
v 2.880776 3.492759 3.128087
v -0.394924 0.449482 3.026780
v -0.394224 0.450615 3.142833
v -0.394224 2.239996 3.026015
v 0.394924 2.241129 3.026780
v 0.394224 2.239996 3.142833
v -0.394924 2.241129 3.142067
v 0.394224 0.450615 3.026015
v 0.394924 0.449482 3.142067
v 0.631298 1.787923 3.002239
v 0.631298 1.302780 3.166608
v 0.972095 1.301089 3.165487
v 0.630370 1.789613 3.165486
v 0.971167 1.787923 3.166608
v 0.972095 1.789613 3.003361
v 0.971167 1.302779 3.002239
v 0.630371 1.301089 3.003361
vn -0.0000 -0.8285 0.5600
vn -1.0000 -0.0000 -0.0000
vn 1.0000 -0.0000 -0.0000
vn -0.0000 -0.0000 -1.0000
vn 0.0812 -0.3761 0.9230
vn 0.7436 0.6646 0.0730
vn -0.0812 0.3761 0.9230
vn -0.0812 -0.3761 -0.9230
vn 0.7436 -0.6646 -0.0730
vn -0.7436 -0.6646 0.0730
vn 0.4448 -0.8385 0.3148
vn 0.4448 0.8385 -0.3148
vn -0.4449 0.8385 0.3148
vn 0.7253 -0.6583 -0.2014
vn -0.0668 0.3852 -0.9204
vn 0.7253 0.6583 0.2014
vn -0.7108 0.6230 0.3267
vn -0.0077 0.3830 -0.9237
vn -0.7381 -0.1227 -0.6634
vn 0.0812 0.3761 -0.9230
vn 0.6036 -0.6274 0.4919
vn -0.0807 0.3833 -0.9201
vn 0.7423 0.6444 0.1837
vn 0.4547 -0.1856 0.8711
vn -0.2624 -0.9448 -0.1962
vn 0.6152 -0.7655 -0.1885
vn -0.9009 0.2164 0.3762
vn 0.9014 -0.2159 0.3753
vn 0.7635 0.3245 -0.5584
vn -0.7634 -0.3229 -0.5595
vn 0.9019 0.2163 -0.3740
vn 0.7634 -0.3229 0.5595
vn 0.7629 -0.3231 0.5600
vn -0.9023 0.2159 0.3732
vn -0.7629 -0.3231 -0.5600
vn 0.0727 0.6080 -0.7906
vn 0.7769 -0.6159 -0.1303
vn 0.0084 -0.5441 -0.8390
vn -0.7133 0.6150 -0.3362
vn -0.7421 -0.6150 -0.2667
vn 0.4572 0.6160 0.6415
vn -0.5076 -0.6080 0.6105
vn 0.3728 -0.6253 0.6856
vn -0.4435 -0.8394 -0.3144
vn -0.7423 0.6444 -0.1836
vn 0.6013 0.6297 -0.4918
vn 0.0785 0.3859 0.9192
vn 0.4421 -0.8410 0.3118
vn -0.4448 -0.8385 -0.3148
vn -0.4448 0.8385 0.3148
vn 0.4449 0.8385 -0.3148
vn -0.7436 0.6646 -0.0730
vn -0.6013 -0.6297 -0.4918
vn -0.4421 0.8410 0.3117
vn 0.4435 0.8393 -0.3144
vn -0.0785 -0.3859 0.9192
vn 0.7423 -0.6444 -0.1836
vn -0.0092 0.3794 -0.9252
vn 0.4606 0.8741 0.1546
vn 0.6671 -0.1611 -0.7274
vn 0.7514 0.1607 0.6399
vn 0.5442 -0.8245 -0.1552
vn -0.5579 0.8214 0.1186
vn -0.7376 -0.1241 -0.6637
vn -0.7303 0.0938 0.6767
vn -0.4684 -0.8705 -0.1514
vn 0.0484 -0.3212 0.9458
vn 0.8094 0.3777 0.4496
vn 0.6673 -0.1580 -0.7278
vn 0.5434 -0.8251 -0.1544
vn -0.6092 -0.1538 0.7780
vn -0.4683 -0.8707 -0.1503
vn 0.2727 -0.1819 0.9448
vn 0.7476 0.6640 0.0174
vn 0.0338 0.3708 -0.9281
vn -0.7467 0.6649 -0.0191
vn 0.6031 -0.6300 0.4892
vn 0.0831 -0.3865 -0.9185
vn -0.7394 -0.6480 0.1825
vn -0.0321 0.3745 0.9267
vn 0.0668 -0.3852 -0.9204
vn -0.7253 0.6583 -0.2014
vn 0.6106 0.6282 -0.4822
vn -0.7253 -0.6583 0.2014
vn 0.6106 -0.6282 0.4822
vn 0.0668 0.3852 0.9204
vn -0.0322 0.3745 0.9267
vn -0.6106 0.6282 0.4822
vn -0.6106 -0.6282 -0.4822
vn -0.0668 -0.3852 0.9204
vn 0.7423 0.6444 0.1836
vn -0.0785 0.3859 -0.9192
vn -0.6013 0.6297 0.4918
vn 0.4434 -0.8394 0.3143
vn -0.4422 -0.8410 -0.3118
vn 0.8094 0.3778 0.4496
vn 0.6673 -0.1580 -0.7279
vn 0.2727 -0.1818 0.9448
vn -0.6036 0.6274 0.4920
vn 0.0807 -0.3833 -0.9201
vn -0.7423 -0.6444 0.1836
vn 0.5725 0.7973 0.1914
vn 0.7748 -0.2372 -0.5861
vn 0.0110 0.3808 -0.9246
vn -0.5855 0.8036 0.1063
vn -0.7418 -0.1261 -0.6587
vn -0.6289 -0.1187 0.7684
vn -0.5035 -0.8486 -0.1623
vn 0.5227 -0.1924 0.8305
vn 0.3780 -0.9168 -0.1285
vn 0.7533 0.5275 0.3928
vn 0.6175 0.0491 -0.7851
vn -0.2943 0.2649 -0.9183
vn 0.0751 0.9950 0.0650
vn -0.7114 0.6250 0.3215
vn -0.8266 -0.3298 -0.4561
vn -0.5811 -0.1862 0.7922
vn -0.7640 -0.3242 -0.5579
vn 0.7637 0.3244 -0.5581
vn -0.7637 -0.3244 -0.5581
vn -0.9012 0.2161 0.3758
vn 0.9012 -0.2161 0.3758
vn 0.7632 0.3232 -0.5596
vn -0.9016 -0.2170 -0.3743
vn -0.7634 0.3229 0.5595
vn 0.9019 -0.2163 0.3740
vn 0.9016 0.2166 -0.3744
vn -0.7636 -0.3227 -0.5593
vn -0.9016 0.2166 0.3744
vn 0.7636 -0.3227 0.5593
vn -0.7636 0.3227 0.5593
vn 0.9019 -0.2162 0.3738
vn 0.7633 0.3229 -0.5596
vn -0.9016 -0.2166 -0.3744
vn 0.9014 0.2168 -0.3748
vn -0.7638 -0.3226 -0.5590
vn -0.9014 0.2168 0.3748
vn 0.7638 -0.3226 0.5590
vn 0.7634 0.3228 -0.5595
vn -0.9019 -0.2164 -0.3740
vn -0.7634 0.3228 0.5595
vn 0.7643 0.3223 -0.5585
vn -0.9010 -0.2173 -0.3756
vn -0.7643 0.3223 0.5585
vn 0.9009 -0.2173 0.3756
vn 0.9008 0.2174 -0.3758
vn -0.7643 -0.3223 -0.5585
vn -0.9009 0.2173 0.3756
vn 0.7645 -0.3222 0.5584
vn 0.9005 0.2178 -0.3764
vn -0.7648 -0.3220 -0.5580
vn -0.9005 0.2178 0.3764
vn 0.7648 -0.3220 0.5580
vn -0.9019 0.2163 0.3740
vn 0.7629 0.3231 -0.5600
vn -0.9023 -0.2159 -0.3732
vn -0.7629 0.3231 0.5600
vn 0.9023 -0.2159 0.3732
vn 0.7648 0.3220 -0.5580
vn -0.9002 -0.2181 -0.3770
vn -0.7651 0.3218 0.5577
vn 0.9005 -0.2178 0.3764
vn 0.9023 0.2158 -0.3732
vn 0.7643 0.3223 -0.5586
vn -0.9014 -0.2168 -0.3748
vn -0.7638 0.3226 0.5590
vn 0.9010 -0.2172 0.3755
vn -0.5873 0.5440 0.5993
vn -0.5873 0.5441 0.5992
vn 0.3727 -0.6253 0.6856
vn -0.5816 0.5791 0.5713
vn 0.5816 0.5791 -0.5713
vn -0.5732 0.5754 -0.5833
vn 0.5732 -0.5754 -0.5833
vn 0.5816 -0.5791 0.5713
vn 0.5732 0.5754 0.5833
vn -0.5816 -0.5791 -0.5713
vn -0.5732 -0.5754 0.5833
vn -0.5771 0.5773 -0.5777
vn 0.5771 -0.5773 -0.5777
vn -0.5776 -0.5775 -0.5769
vn 0.5776 -0.5775 0.5769
vn 0.5776 0.5775 -0.5769
vn 0.5771 0.5773 0.5777
vn -0.5771 -0.5773 0.5777
vn -0.5776 0.5775 0.5769
vn -0.5670 0.5799 -0.5850
vn 0.5670 -0.5799 -0.5850
vn -0.5865 -0.5759 -0.5695
vn 0.5865 0.5759 -0.5695
vn -0.5865 0.5759 0.5695
vn 0.5865 -0.5759 0.5695
vn 0.5670 0.5799 0.5850
vn -0.5670 -0.5799 0.5850
vn -0.5856 0.5869 0.5592
vn -0.5617 0.5697 -0.6000
vn -0.5856 -0.5869 -0.5591
vn 0.5617 -0.5697 -0.6000
vn 0.5856 0.5869 -0.5592
vn -0.5617 -0.5697 0.6000
vn 0.5856 -0.5869 0.5591
vn 0.5617 0.5697 0.6000
vn 0.0997 0.9920 0.0771
vn -0.5599 0.5724 -0.5990
vn 0.5599 -0.5724 -0.5990
vn -0.5907 -0.5818 -0.5591
vn 0.5907 -0.5818 0.5591
vn 0.5907 0.5818 -0.5591
vn -0.5907 0.5818 0.5591
vn -0.5599 -0.5724 0.5990
vn 0.5599 0.5724 0.5990
vn -0.5719 0.5739 -0.5862
vn 0.5719 -0.5739 -0.5862
vn -0.5827 -0.5809 -0.5683
vn 0.5827 0.5809 -0.5683
vn -0.5827 0.5809 0.5683
vn 0.5827 -0.5809 0.5683
vn -0.5719 -0.5739 0.5862
vn 0.5719 0.5739 0.5862
vn -0.7063 0.7078 -0.0080
vn 0.7063 0.7078 0.0080
vn -0.7084 0.7057 -0.0094
vn 0.0004 0.0002 -1.0000
vn 0.0008 0.0003 -1.0000
vn -0.0004 -0.0002 -1.0000
vn -0.0008 -0.0003 -1.0000
vn -0.7063 -0.7078 0.0080
vn 0.7063 -0.7078 -0.0080
vn 0.7084 -0.7057 -0.0094
vn 0.7084 0.7057 0.0094
vn -0.0004 0.0002 1.0000
vn 0.0004 -0.0002 1.0000
vn 0.0008 -0.0003 1.0000
vn -0.0008 0.0003 1.0000
vn -0.7084 -0.7057 0.0094
vn -0.6205 0.7841 0.0132
vn 0.6205 -0.7841 0.0133
vn -0.6205 -0.7841 -0.0133
vn 0.6205 0.7841 -0.0133
vn -0.5579 0.5497 -0.6217
vn 0.5579 -0.5497 -0.6217
vn -0.6007 -0.5899 -0.5396
vn 0.6007 0.5899 -0.5396
vn -0.6007 0.5899 0.5396
vn 0.6007 -0.5899 0.5396
vn 0.5579 0.5498 0.6217
vn -0.5579 -0.5497 0.6217
vn 0.0387 0.8179 -0.5740
vn 0.0387 -0.8179 0.5740
vn -0.0387 -0.8179 -0.5740
vn -0.0387 0.8179 0.5740
vn 0.0387 0.8180 -0.5740
vn -0.0387 0.8180 0.5740
vn 0.0387 -0.8180 0.5740
vn -0.0387 -0.8180 -0.5740
vn -0.0003 -0.0022 -1.0000
vn 0.0003 0.0022 -1.0000
vn -0.0004 -0.0026 -1.0000
vn -0.7100 -0.7042 0.0035
vn 0.7014 -0.7127 -0.0073
vn 0.7100 -0.7042 -0.0035
vn 0.0004 0.0026 -1.0000
vn 0.7100 0.7042 0.0035
vn 0.0003 -0.0022 1.0000
vn -0.0003 0.0022 1.0000
vn 0.0004 -0.0026 1.0000
vn -0.0004 0.0026 1.0000
vn 0.7014 0.7127 0.0074
vn -0.7100 0.7042 -0.0035
vn -0.7014 0.7127 -0.0074
vn -0.7014 -0.7127 0.0073
vn 0.7484 0.6252 -0.2212
vn -0.5792 0.5799 0.5729
vn -0.5760 0.5742 -0.5818
vn -0.5792 -0.5799 -0.5729
vn -0.5760 -0.5742 0.5818
vn 0.5792 -0.5799 0.5729
vn 0.5760 -0.5742 -0.5818
vn 0.5760 0.5742 0.5818
vn 0.5792 0.5799 -0.5729
vn -0.5762 0.5731 -0.5826
vn 0.5762 -0.5731 -0.5826
vn -0.5794 -0.5803 -0.5723
vn 0.5794 0.5803 -0.5723
vn -0.5794 0.5803 0.5723
vn 0.5762 0.5731 0.5826
vn -0.5762 -0.5731 0.5826
vn 0.5794 -0.5803 0.5723
vt 0.232361 0.538605
vt 0.232361 0.794972
vt 0.161826 0.794875
vt 0.161826 0.538509
vt 0.777416 0.488614
vt 0.812721 0.456766
vt 0.812721 0.528756
vt 0.288619 0.776637
vt 0.288619 0.693326
vt 0.327566 0.720599
vt 0.768761 0.281851
vt 0.768761 0.538217
vt 0.698226 0.538121
vt 0.698226 0.281754
vt 0.538500 0.797035
vt 0.573805 0.765187
vt 0.573805 0.837177
vt 0.745773 0.790295
vt 0.698226 0.721884
vt 0.745773 0.722051
vt 0.787221 0.004424
vt 0.787221 0.260791
vt 0.716686 0.260694
vt 0.716686 0.004328
vt 0.582460 0.797035
vt 0.617765 0.765187
vt 0.617765 0.837177
vt 0.241016 0.776637
vt 0.241016 0.693326
vt 0.279964 0.720599
vt 0.282952 0.896539
vt 0.282952 0.785293
vt 0.297011 0.785308
vt 0.297011 0.896554
vt 0.612359 0.995175
vt 0.611499 0.949309
vt 0.612359 0.949447
vt 0.805659 0.271083
vt 0.805775 0.270074
vt 0.806637 0.270849
vt 0.994368 0.708054
vt 0.994038 0.662122
vt 0.994960 0.662232
vt 0.410412 0.994480
vt 0.409745 0.948752
vt 0.410412 0.948749
vt 0.981734 0.552763
vt 0.983312 0.623372
vt 0.981466 0.622936
vt 0.088014 0.914108
vt 0.089592 0.984716
vt 0.087746 0.984280
vt 0.515009 0.994480
vt 0.514342 0.948752
vt 0.515009 0.948749
vt 0.484081 0.994480
vt 0.483414 0.948752
vt 0.484081 0.948749
vt 0.797727 0.879641
vt 0.798304 0.949940
vt 0.796085 0.949970
vt 0.946651 0.734671
vt 0.947223 0.878402
vt 0.945891 0.878402
vt 0.483792 0.795371
vt 0.483498 0.939471
vt 0.482779 0.939102
vt 0.493088 0.939102
vt 0.492767 0.795371
vt 0.494101 0.795371
vt 0.107218 0.788120
vt 0.108243 0.927573
vt 0.106970 0.927255
vt 0.105794 0.788145
vt 0.105312 0.927159
vt 0.129070 0.787985
vt 0.130187 0.927419
vt 0.128910 0.927155
vt 0.992369 0.328160
vt 0.992157 0.282016
vt 0.993340 0.282250
vt 0.958074 0.270631
vt 0.957883 0.269694
vt 0.958993 0.270145
vt 0.822707 0.503096
vt 0.821625 0.457260
vt 0.822646 0.457122
vt 0.572174 0.995269
vt 0.571844 0.949336
vt 0.572766 0.949447
vt 0.462281 0.994659
vt 0.462069 0.948515
vt 0.463253 0.948750
vt 0.994368 0.652678
vt 0.994038 0.606746
vt 0.994960 0.606857
vt 0.442844 0.994480
vt 0.442177 0.948752
vt 0.442844 0.948749
vt 0.442075 0.994484
vt 0.441463 0.948502
vt 0.966837 0.986808
vt 0.965816 0.940944
vt 0.966898 0.940832
vt 0.388612 0.994659
vt 0.388400 0.948515
vt 0.389583 0.948750
vt 0.451972 0.994659
vt 0.451760 0.948515
vt 0.452944 0.948750
vt 0.582664 0.995175
vt 0.581743 0.949336
vt 0.582664 0.949447
vt 0.816107 0.270033
vt 0.817048 0.269840
vt 0.816595 0.270951
vt 0.077322 0.984716
vt 0.078362 0.914474
vt 0.079091 0.984285
vt 0.265928 0.951824
vt 0.266928 0.868952
vt 0.268073 0.951432
vt 0.075987 0.914553
vt 0.075495 0.984280
vt 0.972142 0.155680
vt 0.972876 0.226856
vt 0.970629 0.227094
vt 0.971493 0.551307
vt 0.971899 0.621597
vt 0.969345 0.621524
vt 0.981503 0.354139
vt 0.983271 0.283874
vt 0.983271 0.353708
vt 0.946222 0.270934
vt 0.946619 0.188139
vt 0.948367 0.270542
vt 0.979943 0.283531
vt 0.979675 0.353703
vt 0.977730 0.735296
vt 0.979020 0.806324
vt 0.976773 0.806563
vt 0.307933 0.881031
vt 0.308923 0.951383
vt 0.306369 0.951310
vt 0.960199 0.724309
vt 0.960393 0.725249
vt 0.959341 0.725091
vt 0.400103 0.994480
vt 0.399436 0.948752
vt 0.400103 0.948749
vt 0.399334 0.994484
vt 0.398709 0.948515
vt 0.827182 0.270890
vt 0.826245 0.271083
vt 0.826696 0.269972
vt 0.959150 0.724153
vt 0.366779 0.989612
vt 0.365697 0.943775
vt 0.366718 0.943637
vt 0.524316 0.994570
vt 0.523986 0.948638
vt 0.524907 0.948748
vt 0.493621 0.994484
vt 0.493011 0.948502
vt 0.494161 0.948750
vt 0.786027 0.270868
vt 0.785074 0.271083
vt 0.785524 0.269987
vt 0.795845 0.961074
vt 0.795631 0.960121
vt 0.796727 0.960571
vt 0.990026 0.986752
vt 0.988975 0.940900
vt 0.990023 0.940773
vt 0.152654 0.982678
vt 0.152453 0.936557
vt 0.153138 0.936795
vt 0.958931 0.259557
vt 0.959126 0.260497
vt 0.958074 0.260339
vt 0.473772 0.994480
vt 0.473105 0.948752
vt 0.473772 0.948749
vt 0.473003 0.994484
vt 0.472378 0.948515
vt 0.908491 0.268943
vt 0.907553 0.269136
vt 0.908004 0.268025
vt 0.957883 0.259401
vt 0.378140 0.989611
vt 0.377057 0.943775
vt 0.378079 0.943637
vt 0.539152 0.995268
vt 0.538822 0.949336
vt 0.539743 0.949447
vt 0.960176 0.541106
vt 0.960393 0.542060
vt 0.959402 0.541476
vt 0.409235 0.994638
vt 0.409021 0.948513
vt 0.994711 0.478356
vt 0.993819 0.432501
vt 0.994711 0.432628
vt 0.162237 0.957418
vt 0.163192 0.957202
vt 0.162608 0.958192
vt 0.296555 0.961011
vt 0.296749 0.961951
vt 0.295637 0.961498
vt 0.420721 0.994480
vt 0.420054 0.948752
vt 0.420721 0.948749
vt 0.419539 0.994659
vt 0.419327 0.948515
vt 0.994368 0.597303
vt 0.994038 0.551371
vt 0.994960 0.551481
vt 0.985062 0.553107
vt 0.985062 0.622941
vt 0.253521 0.951824
vt 0.253918 0.869029
vt 0.255666 0.951432
vt 0.977730 0.897605
vt 0.979020 0.968633
vt 0.976773 0.968872
vt 0.320757 0.881031
vt 0.321747 0.951383
vt 0.319193 0.951311
vt 0.091342 0.914451
vt 0.091342 0.984285
vt 0.017678 0.954748
vt 0.018074 0.871953
vt 0.019822 0.954357
vt 0.972172 0.433254
vt 0.973463 0.504282
vt 0.971216 0.504521
vt 0.947836 0.887812
vt 0.948826 0.958164
vt 0.946272 0.958091
vt 0.253824 0.961032
vt 0.254018 0.961972
vt 0.252906 0.961519
vt 0.673701 0.992723
vt 0.673034 0.946995
vt 0.673701 0.946991
vt 0.672932 0.992727
vt 0.672307 0.946758
vt 0.204271 0.958253
vt 0.203333 0.958446
vt 0.203784 0.957335
vt 0.550714 0.995269
vt 0.550384 0.949336
vt 0.551306 0.949447
vt 0.264116 0.961032
vt 0.264311 0.961972
vt 0.263199 0.961519
vt 0.504700 0.994480
vt 0.504033 0.948752
vt 0.504700 0.948749
vt 0.503931 0.994484
vt 0.503306 0.948515
vt 0.224890 0.958253
vt 0.223952 0.958446
vt 0.224403 0.957335
vt 0.591971 0.995269
vt 0.591641 0.949336
vt 0.592563 0.949447
vt 0.514240 0.994484
vt 0.513628 0.948502
vt 0.661784 0.992854
vt 0.660763 0.946991
vt 0.661846 0.946879
vt 0.562868 0.995175
vt 0.562008 0.949309
vt 0.562868 0.949447
vt 0.317204 0.961653
vt 0.317399 0.962593
vt 0.316287 0.962140
vt 0.483312 0.994484
vt 0.482687 0.948515
vt 0.923678 0.541381
vt 0.922740 0.541573
vt 0.923191 0.540463
vt 0.994120 0.533825
vt 0.993790 0.487893
vt 0.994711 0.488003
vt 0.960164 0.714836
vt 0.959224 0.715030
vt 0.959677 0.713918
vt 0.432535 0.994480
vt 0.431868 0.948752
vt 0.432535 0.948749
vt 0.431766 0.994484
vt 0.431141 0.948515
vt 0.929076 0.268943
vt 0.928138 0.269136
vt 0.928589 0.268025
vt 0.601869 0.995269
vt 0.601539 0.949336
vt 0.602461 0.949447
vt 0.985551 0.156850
vt 0.986178 0.226661
vt 0.984354 0.227096
vt 0.983074 0.156929
vt 0.982582 0.226656
vt 0.977786 0.816337
vt 0.979020 0.887479
vt 0.976773 0.887717
vt 0.970935 0.631684
vt 0.971899 0.702050
vt 0.969740 0.701864
vt 0.040594 0.876632
vt 0.041245 0.959171
vt 0.039135 0.959504
vt 0.005345 0.871852
vt 0.007355 0.954361
vt 0.005234 0.954752
vt 0.982460 0.704501
vt 0.983482 0.634399
vt 0.984743 0.704207
vt 0.981734 0.633889
vt 0.981466 0.704061
vt 0.284313 0.906330
vt 0.284792 0.977548
vt 0.282952 0.977544
vt 0.739785 0.943177
vt 0.739463 0.799447
vt 0.740545 0.799446
vt 0.410123 0.795371
vt 0.410442 0.939102
vt 0.409395 0.939389
vt 0.741117 0.943177
vt 0.408788 0.795371
vt 0.719167 0.943177
vt 0.718845 0.799447
vt 0.719927 0.799446
vt 0.421937 0.795371
vt 0.422256 0.939102
vt 0.421209 0.939389
vt 0.720499 0.943177
vt 0.420602 0.795371
vt 0.945569 0.734672
vt 0.432246 0.795371
vt 0.432565 0.939102
vt 0.431518 0.939389
vt 0.430911 0.795371
vt 0.729476 0.943177
vt 0.729154 0.799447
vt 0.730489 0.799447
vt 0.442301 0.795372
vt 0.442874 0.939102
vt 0.441828 0.939389
vt 0.730808 0.943177
vt 0.441220 0.795371
vt 0.162434 0.948141
vt 0.161826 0.804123
vt 0.162908 0.804122
vt 0.525029 0.795371
vt 0.524735 0.939471
vt 0.524016 0.939102
vt 0.163480 0.947854
vt 0.523694 0.795371
vt 0.173470 0.804123
vt 0.173789 0.947854
vt 0.172457 0.947854
vt 0.452137 0.939389
vt 0.451529 0.795371
vt 0.452610 0.795372
vt 0.183052 0.948141
vt 0.182444 0.804124
vt 0.183526 0.804122
vt 0.514720 0.795371
vt 0.514426 0.939471
vt 0.513706 0.939102
vt 0.184098 0.947854
vt 0.513385 0.795371
vt 0.809067 0.956121
vt 0.808745 0.812391
vt 0.810080 0.812391
vt 0.462920 0.795372
vt 0.463493 0.939102
vt 0.462446 0.939389
vt 0.810399 0.956121
vt 0.461839 0.795371
vt 0.193075 0.947854
vt 0.192753 0.804124
vt 0.194088 0.804123
vt 0.389250 0.795372
vt 0.389823 0.939102
vt 0.388777 0.939389
vt 0.194407 0.947854
vt 0.388169 0.795371
vt 0.203671 0.948141
vt 0.203063 0.804124
vt 0.204145 0.804123
vt 0.699561 0.799446
vt 0.699267 0.943546
vt 0.698547 0.943177
vt 0.698226 0.799446
vt 0.213980 0.948141
vt 0.213372 0.804123
vt 0.214454 0.804122
vt 0.473483 0.795371
vt 0.473189 0.939471
vt 0.472469 0.939102
vt 0.215026 0.947854
vt 0.472148 0.795371
vt 0.224289 0.948141
vt 0.223681 0.804123
vt 0.224763 0.804123
vt 0.225335 0.947854
vt 0.482457 0.795371
vt 0.923205 0.953592
vt 0.922883 0.809862
vt 0.924218 0.809862
vt 0.399560 0.795372
vt 0.400133 0.939102
vt 0.399086 0.939389
vt 0.924537 0.953593
vt 0.398479 0.795371
vt 0.934755 0.955216
vt 0.934433 0.811485
vt 0.935768 0.811485
vt 0.709616 0.799447
vt 0.710189 0.943177
vt 0.709143 0.943464
vt 0.936087 0.955216
vt 0.850444 0.956312
vt 0.849836 0.812294
vt 0.850918 0.812293
vt 0.493808 0.939471
vt 0.851490 0.956025
vt 0.911242 0.956100
vt 0.910920 0.812370
vt 0.912255 0.812370
vt 0.504157 0.795372
vt 0.504730 0.939102
vt 0.503683 0.939389
vt 0.503076 0.795371
vt 0.130442 0.788296
vt 0.131911 0.927152
vt 0.378931 0.795104
vt 0.379089 0.934335
vt 0.377462 0.934394
vt 0.119068 0.788120
vt 0.120093 0.927573
vt 0.118820 0.927256
vt 0.117644 0.788145
vt 0.117162 0.927159
vt 0.142099 0.788296
vt 0.143569 0.927152
vt 0.141844 0.927419
vt 0.140727 0.787985
vt 0.140567 0.927155
vt 0.367571 0.795104
vt 0.367728 0.934335
vt 0.366102 0.934394
vt 0.550020 0.004498
vt 0.282125 0.272801
vt 0.282073 0.004655
vt 0.862431 0.004682
vt 0.862569 0.268078
vt 0.857359 0.268093
vt 0.871061 0.542323
vt 0.875769 0.282127
vt 0.876270 0.542331
vt 0.870411 0.282106
vt 0.550200 0.272772
vt 0.833167 0.485655
vt 0.835971 0.281754
vt 0.841181 0.281760
vt 0.838529 0.485733
vt 0.272927 0.004824
vt 0.004499 0.272605
vt 0.004649 0.004658
vt 0.857069 0.004556
vt 0.272776 0.272772
vt 0.835971 0.659982
vt 0.841181 0.659988
vt 0.559445 0.247517
vt 0.707412 0.004527
vt 0.707777 0.247586
vt 0.529462 0.282068
vt 0.529535 0.529482
vt 0.282135 0.529540
vt 0.559264 0.004595
vt 0.005034 0.778942
vt 0.152913 0.539242
vt 0.153170 0.779242
vt 0.541435 0.630713
vt 0.687070 0.470146
vt 0.689571 0.630885
vt 0.282062 0.282126
vt 0.538751 0.469885
vt 0.689571 0.281927
vt 0.252035 0.282070
vt 0.252111 0.529484
vt 0.004716 0.529539
vt 0.541435 0.281754
vt 0.004639 0.282126
vt 0.004594 0.538862
vt 0.420679 0.785650
vt 0.467021 0.538928
vt 0.466966 0.785800
vt 0.420734 0.538807
vt 0.753622 0.549110
vt 0.753923 0.546872
vt 0.799645 0.547626
vt 0.913728 0.004689
vt 0.910838 0.256197
vt 0.910762 0.004777
vt 0.913604 0.282116
vt 0.913682 0.533536
vt 0.910714 0.533625
vt 0.979675 0.363376
vt 0.982289 0.409351
vt 0.979676 0.409104
vt 0.753602 0.712461
vt 0.799905 0.549961
vt 0.800090 0.713229
vt 0.910638 0.282205
vt 0.982384 0.363054
vt 0.913805 0.256108
vt 0.631591 0.930430
vt 0.631484 0.933604
vt 0.629279 0.933604
vt 0.925038 0.282101
vt 0.923310 0.531478
vt 0.922740 0.282041
vt 0.925212 0.531477
vt 0.889584 0.004590
vt 0.885480 0.258777
vt 0.885388 0.004634
vt 0.629293 0.930335
vt 0.888220 0.551249
vt 0.884116 0.805437
vt 0.884025 0.551293
vt 0.888311 0.805393
vt 0.645003 0.256938
vt 0.642768 0.260933
vt 0.642889 0.256862
vt 0.889675 0.258734
vt 0.628322 0.765187
vt 0.626420 0.765189
vt 0.645066 0.261031
vt 0.704337 0.257797
vt 0.704103 0.259849
vt 0.701957 0.259856
vt 0.701346 0.257848
vt 0.703031 0.256590
vt 0.079033 0.913401
vt 0.076003 0.912984
vt 0.078006 0.912418
vt 0.692387 0.257797
vt 0.690006 0.259856
vt 0.689396 0.257848
vt 0.691081 0.256590
vt 0.983213 0.282824
vt 0.981662 0.284041
vt 0.980447 0.282061
vt 0.982187 0.281841
vt 0.692153 0.259849
vt 0.936652 0.551246
vt 0.935425 0.802333
vt 0.934617 0.551150
vt 0.827231 0.004469
vt 0.827334 0.260472
vt 0.816567 0.260552
vt 0.936914 0.802332
vt 0.609943 0.267473
vt 0.612017 0.257138
vt 0.611958 0.267557
vt 0.949935 0.170783
vt 0.949893 0.178861
vt 0.947674 0.178859
vt 0.847465 0.004470
vt 0.836801 0.260553
vt 0.836698 0.004550
vt 0.947921 0.170646
vt 0.847567 0.260473
vt 0.946767 0.004328
vt 0.816464 0.004549
vt 0.945279 0.004328
vt 0.610005 0.257011
vt 0.365525 0.785650
vt 0.411868 0.538928
vt 0.411812 0.785800
vt 0.365580 0.538807
vt 0.777553 0.283992
vt 0.777854 0.281754
vt 0.823575 0.282508
vt 0.835774 0.669005
vt 0.832884 0.920513
vt 0.832808 0.669093
vt 0.823836 0.284843
vt 0.901766 0.004689
vt 0.898875 0.256198
vt 0.898799 0.004779
vt 0.901843 0.256109
vt 0.819054 0.936814
vt 0.821763 0.936491
vt 0.821668 0.982789
vt 0.819055 0.982542
vt 0.777533 0.447342
vt 0.824021 0.448110
vt 0.835851 0.920424
vt 0.925162 0.004675
vt 0.923434 0.254051
vt 0.922863 0.004616
vt 0.875967 0.004591
vt 0.876057 0.258734
vt 0.871862 0.258778
vt 0.925336 0.254051
vt 0.656553 0.256938
vt 0.654317 0.260933
vt 0.654438 0.256862
vt 0.950327 0.446997
vt 0.950219 0.450171
vt 0.948015 0.450171
vt 0.948028 0.446902
vt 0.871771 0.004634
vt 0.656616 0.261031
vt 0.947057 0.281754
vt 0.945155 0.281756
vt 0.889460 0.282017
vt 0.889551 0.536161
vt 0.885356 0.536204
vt 0.885265 0.282060
vt 0.680437 0.257797
vt 0.680203 0.259849
vt 0.678057 0.259856
vt 0.677461 0.257838
vt 0.679131 0.256590
vt 0.985004 0.552057
vt 0.983442 0.553281
vt 0.982238 0.551294
vt 0.983978 0.551073
vt 0.874727 0.268905
vt 0.871752 0.268946
vt 0.873421 0.267698
vt 0.872347 0.270964
vt 0.091284 0.913401
vt 0.089722 0.914625
vt 0.088517 0.912638
vt 0.090257 0.912418
vt 0.874493 0.270957
vt 0.936238 0.282013
vt 0.935011 0.533101
vt 0.934203 0.281918
vt 0.936500 0.533100
vt 0.950225 0.717442
vt 0.950184 0.725520
vt 0.947964 0.725518
vt 0.860959 0.281896
vt 0.850295 0.537978
vt 0.850192 0.281976
vt 0.819867 0.547014
vt 0.819970 0.803017
vt 0.809203 0.803097
vt 0.620818 0.267473
vt 0.622892 0.257138
vt 0.622833 0.267557
vt 0.947058 0.550987
vt 0.948212 0.717305
vt 0.945569 0.550987
vt 0.620880 0.257011
vt 0.861061 0.537899
vt 0.809100 0.547094
vt 0.475832 0.785650
vt 0.522175 0.538928
vt 0.522120 0.785800
vt 0.475887 0.538807
vt 0.698363 0.549110
vt 0.698664 0.546872
vt 0.744385 0.547626
vt 0.914018 0.551348
vt 0.911128 0.802856
vt 0.911052 0.551436
vt 0.744646 0.549961
vt 0.901642 0.282116
vt 0.898751 0.533625
vt 0.898675 0.282205
vt 0.901718 0.533536
vt 0.698343 0.712461
vt 0.744830 0.713229
vt 0.684263 0.924954
vt 0.686972 0.924632
vt 0.686877 0.970929
vt 0.914095 0.802767
vt 0.684264 0.970682
vt 0.901838 0.551249
vt 0.901928 0.805393
vt 0.897733 0.805436
vt 0.262978 0.281757
vt 0.266248 0.446999
vt 0.263950 0.446905
vt 0.261077 0.281759
vt 0.668102 0.256938
vt 0.668165 0.261031
vt 0.665867 0.260933
vt 0.263936 0.450174
vt 0.266140 0.450174
vt 0.897642 0.551293
vt 0.874603 0.551250
vt 0.870499 0.805437
vt 0.870408 0.551293
vt 0.925452 0.551333
vt 0.923724 0.800710
vt 0.923154 0.551274
vt 0.874694 0.805393
vt 0.925626 0.800710
vt 0.665988 0.256862
vt 0.898627 0.268905
vt 0.895621 0.269010
vt 0.897284 0.267698
vt 0.896248 0.270964
vt 0.983090 0.155360
vt 0.985070 0.154788
vt 0.898393 0.270957
vt 0.886677 0.268905
vt 0.886443 0.270957
vt 0.884433 0.271383
vt 0.883772 0.269539
vt 0.884865 0.267837
vt 0.985004 0.633182
vt 0.982237 0.632419
vt 0.983954 0.632193
vt 0.936361 0.004587
vt 0.935135 0.255674
vt 0.934327 0.004491
vt 0.936624 0.255673
vt 0.688919 0.907723
vt 0.688877 0.915802
vt 0.686658 0.915799
vt 0.860959 0.546918
vt 0.850295 0.803000
vt 0.850192 0.546998
vt 0.685752 0.741268
vt 0.686906 0.907587
vt 0.684263 0.741268
vt 0.806998 0.004469
vt 0.796334 0.260552
vt 0.796231 0.004549
vt 0.807101 0.260472
vt 0.861061 0.802921
vt 0.631693 0.267473
vt 0.633767 0.257138
vt 0.633708 0.267557
vt 0.631754 0.257011
vt 0.356477 0.538892
vt 0.241646 0.684510
vt 0.241322 0.538872
vt 0.356497 0.684381
vt 0.634853 0.639844
vt 0.637582 0.640061
vt 0.637582 0.754835
vt 0.066499 0.788237
vt 0.063046 0.936415
vt 0.063022 0.788252
vt 0.799229 0.722225
vt 0.799253 0.870387
vt 0.795776 0.870402
vt 0.819054 0.812394
vt 0.822338 0.927352
vt 0.819055 0.927169
vt 0.634825 0.754988
vt 0.795751 0.722240
vt 0.538502 0.641623
vt 0.538500 0.756531
vt 0.822365 0.812207
vt 0.066523 0.936400
vt 0.838168 0.929932
vt 0.832790 0.968410
vt 0.832916 0.929748
vt 0.646659 0.639932
vt 0.684399 0.639639
vt 0.684531 0.732210
vt 0.646657 0.732404
vt 0.671486 0.741475
vt 0.675608 0.741808
vt 0.675602 0.833842
vt 0.646448 0.843601
vt 0.651703 0.936193
vt 0.646315 0.935838
vt 0.651759 0.843952
vt 0.838039 0.968595
vt 0.646343 0.742061
vt 0.671426 0.833938
vt 0.646449 0.834623
vt 0.266570 0.459233
vt 0.261191 0.497711
vt 0.261318 0.459049
vt 0.266441 0.497895
vt 0.754706 0.722243
vt 0.786559 0.808487
vt 0.754796 0.808547
vt 0.786560 0.722104
vt 0.305666 0.786250
vt 0.327164 0.871786
vt 0.305673 0.871881
vt 0.327156 0.785832
vt 0.979503 0.004659
vt 0.980849 0.090664
vt 0.979404 0.090666
vt 0.980812 0.004824
vt 0.969902 0.282245
vt 0.971020 0.282255
vt 0.971020 0.368087
vt 0.753857 0.270146
vt 0.755265 0.271347
vt 0.754027 0.271372
vt 0.983214 0.432465
vt 0.984415 0.518624
vt 0.983237 0.518714
vt 0.984445 0.432460
vt 0.755083 0.269985
vt 0.744892 0.271207
vt 0.743511 0.271374
vt 0.743673 0.269816
vt 0.968939 0.282255
vt 0.969870 0.368246
vt 0.968939 0.368088
vt 0.744721 0.269981
vt 0.821627 0.512452
vt 0.823792 0.528367
vt 0.821446 0.528191
vt 0.713432 0.952739
vt 0.715550 0.968573
vt 0.713193 0.968340
vt 0.715712 0.952834
vt 0.823928 0.512625
vt 0.736361 0.952639
vt 0.738662 0.952813
vt 0.738526 0.968554
vt 0.736180 0.968379
vt 0.725078 0.952739
vt 0.727196 0.968573
vt 0.724838 0.968340
vt 0.727358 0.952834
vt 0.336340 0.806555
vt 0.352467 0.693729
vt 0.352429 0.806619
vt 0.081601 0.788276
vt 0.081680 0.903123
vt 0.075532 0.903127
vt 0.336378 0.693671
vt 0.698490 0.952527
vt 0.704018 0.968617
vt 0.698513 0.968743
vt 0.037688 0.867263
vt 0.053932 0.792939
vt 0.054049 0.867544
vt 0.037846 0.792623
vt 0.704066 0.952522
vt 0.096458 0.788275
vt 0.096538 0.903121
vt 0.090389 0.903125
vt 0.038322 0.787897
vt 0.053665 0.788151
vt 0.090419 0.788323
vt 0.075562 0.788324
vt 0.709868 0.270172
vt 0.711181 0.269655
vt 0.712438 0.271170
vt 0.711587 0.272597
vt 0.709899 0.272205
vt 0.699678 0.272893
vt 0.698518 0.270392
vt 0.700120 0.269955
vt 0.698374 0.272355
vt 0.700939 0.271837
vt 0.721541 0.270172
vt 0.722853 0.269655
vt 0.724111 0.271170
vt 0.723259 0.272597
vt 0.721572 0.272205
vt 0.678594 0.272494
vt 0.677434 0.269993
vt 0.679035 0.269556
vt 0.677290 0.271957
vt 0.679854 0.271438
vt 0.025541 0.788102
vt 0.029033 0.788430
vt 0.029027 0.861858
vt 0.025487 0.862074
vt 0.973015 0.107868
vt 0.968467 0.140145
vt 0.968418 0.107931
vt 0.241470 0.785567
vt 0.273124 0.859528
vt 0.241437 0.859545
vt 0.973064 0.140082
vt 0.004507 0.788449
vt 0.004536 0.862583
vt 0.273081 0.785386
vt 0.974887 0.236262
vt 0.970339 0.268540
vt 0.970290 0.236325
vt 0.945367 0.459046
vt 0.949813 0.533040
vt 0.945318 0.533018
vt 0.949868 0.459068
vt 0.974937 0.268477
vt 0.105492 0.936729
vt 0.119147 0.956583
vt 0.105490 0.956650
vt 0.119137 0.936662
vt 0.138033 0.936646
vt 0.143240 0.936951
vt 0.143240 0.956435
vt 0.581022 0.256829
vt 0.574480 0.270822
vt 0.574470 0.256775
vt 0.129025 0.936837
vt 0.138007 0.956565
vt 0.129051 0.956783
vt 0.565753 0.256830
vt 0.559211 0.270823
vt 0.559202 0.256775
vt 0.261077 0.507379
vt 0.267605 0.507344
vt 0.267563 0.526844
vt 0.261087 0.526863
vt 0.565762 0.270878
vt 0.581031 0.270877
vt 0.611434 0.995285
vt 0.990057 0.931361
vt 0.988907 0.931254
vt 0.989675 0.885430
vt 0.627751 0.988590
vt 0.626601 0.988483
vt 0.627369 0.942659
vt 0.990057 0.875986
vt 0.988907 0.875879
vt 0.989675 0.830055
vt 0.019978 0.871601
vt 0.306915 0.962433
vt 0.306053 0.961658
vt 0.307033 0.961423
vt 0.799289 0.879823
vt 0.172135 0.804123
vt 0.453183 0.939102
vt 0.204717 0.947854
vt 0.708535 0.799446
vt 0.912574 0.956100
vt 0.108404 0.788390
vt 0.993550 0.327981
vt 0.821557 0.502989
vt 0.463463 0.994480
vt 0.990967 0.050658
vt 0.989817 0.050551
vt 0.990585 0.004727
vt 0.182873 0.958254
vt 0.183649 0.957392
vt 0.183885 0.958372
vt 0.441463 0.994730
vt 0.182641 0.957276
vt 0.965748 0.986673
vt 0.806755 0.269840
vt 0.389793 0.994480
vt 0.453154 0.994480
vt 0.581802 0.995311
vt 0.265213 0.868690
vt 0.973757 0.155158
vt 0.970414 0.155151
vt 0.268229 0.868677
vt 0.979663 0.734768
vt 0.309521 0.881199
vt 0.948523 0.187787
vt 0.398732 0.994739
vt 0.365629 0.989504
vt 0.494391 0.994480
vt 0.493020 0.994740
vt 0.988907 0.986629
vt 0.472401 0.994740
vt 0.376990 0.989504
vt 0.990721 0.106162
vt 0.989817 0.105926
vt 0.990460 0.060042
vt 0.993820 0.478483
vt 0.979663 0.897077
vt 0.322344 0.881199
vt 0.255822 0.868677
vt 0.974106 0.432726
vt 0.949424 0.887980
vt 0.672330 0.992982
vt 0.992527 0.409210
vt 0.991378 0.409103
vt 0.992146 0.363279
vt 0.503329 0.994739
vt 0.647568 0.991408
vt 0.646418 0.991301
vt 0.647186 0.945477
vt 0.193142 0.957434
vt 0.194004 0.958210
vt 0.193024 0.958446
vt 0.513628 0.994730
vt 0.305937 0.962666
vt 0.194120 0.957202
vt 0.660696 0.992720
vt 0.561943 0.995285
vt 0.482710 0.994739
vt 0.064035 0.991741
vt 0.062885 0.991634
vt 0.063653 0.945810
vt 0.431164 0.994739
vt 0.296640 0.951540
vt 0.295490 0.951433
vt 0.296258 0.905609
vt 0.038706 0.876719
vt 0.979901 0.815781
vt 0.972497 0.631866
vt 0.985062 0.634232
vt 0.007233 0.871764
vt 0.286246 0.905802
vt 0.377283 0.795165
vt 0.131911 0.788398
vt 0.120254 0.788390
vt 0.365922 0.795165
vt 0.143569 0.788398
s 1
usemtl factory_003_baked
f 1/1/1 2/2/1 3/3/1
f 1/1/1 3/3/1 4/4/1
f 5/5/2 6/6/2 7/7/2
f 8/8/3 9/9/3 10/10/3
f 12/11/1 11/12/1 13/13/1
f 12/11/1 13/13/1 14/14/1
f 15/15/2 16/16/2 17/17/2
f 18/18/3 19/19/3 20/20/3
f 21/21/1 22/22/1 23/23/1
f 21/21/1 23/23/1 24/24/1
f 25/25/2 26/26/2 27/27/2
f 28/28/3 29/29/3 30/30/3
f 31/31/4 32/32/4 33/33/4
f 31/31/4 33/33/4 34/34/4
f 80/35/5 78/36/6 79/37/7
f 83/38/8 81/39/9 82/40/10
f 87/41/11 84/42/12 86/43/13
f 162/44/14 158/45/15 161/46/16
f 175/47/17 174/48/18 170/49/19
f 180/50/17 178/51/18 185/52/19
f 228/53/9 230/54/20 224/55/6
f 237/56/21 232/57/22 233/58/23
f 260/59/24 253/60/25 255/61/26
f 289/62/27 288/63/28 287/64/29
f 324/65/30 323/66/31 326/67/32
f 335/68/33 337/69/34 338/70/35
f 387/71/36 381/72/37 382/73/38
f 383/74/39 382/73/38 388/75/40
f 386/76/41 379/77/42 380/78/43
f 69/79/44 67/80/45 68/81/46
f 67/82/45 70/83/47 68/84/46
f 69/85/44 70/86/47 67/87/45
f 71/88/48 68/89/46 70/90/47
f 75/91/49 73/92/50 72/93/51
f 74/94/11 72/95/51 73/96/50
f 81/97/9 77/98/20 78/99/6
f 83/100/8 76/101/52 77/98/20
f 82/102/10 79/103/7 76/104/52
f 85/105/49 86/106/13 84/107/12
f 89/108/53 90/109/54 92/110/55
f 91/111/56 92/112/55 90/113/54
f 88/114/57 91/115/56 89/116/53
f 95/117/58 99/118/59 96/119/60
f 96/120/60 100/121/61 93/122/62
f 101/123/63 95/117/58 102/124/64
f 97/125/65 102/126/64 94/127/66
f 98/128/67 94/129/66 93/130/62
f 104/131/18 109/132/68 105/133/69
f 105/134/69 109/135/68 112/136/70
f 107/137/17 104/131/18 103/138/19
f 108/139/71 103/140/19 111/141/72
f 110/142/73 111/143/72 112/144/70
f 140/145/74 138/146/75 137/147/76
f 143/148/77 138/149/75 140/150/74
f 139/151/78 137/152/76 138/149/75
f 142/153/79 139/154/78 143/155/77
f 137/147/76 141/156/80 140/145/74
f 142/157/79 141/158/80 137/159/76
f 143/160/77 140/161/74 141/162/80
f 147/163/81 146/164/82 144/165/83
f 149/166/84 147/167/81 148/168/85
f 146/169/82 145/170/86 144/171/83
f 149/172/84 145/173/86 146/174/82
f 148/175/85 144/176/83 145/177/86
f 152/178/74 155/179/75 150/180/76
f 156/181/77 155/182/75 152/183/74
f 153/184/78 150/185/76 155/182/75
f 154/186/79 153/187/78 156/188/77
f 150/180/76 151/189/87 152/178/74
f 154/190/79 151/191/87 150/192/76
f 156/193/77 152/194/74 151/195/87
f 161/196/16 158/197/15 157/198/88
f 159/199/89 157/200/88 158/45/15
f 160/201/90 161/202/16 157/203/88
f 162/204/14 160/205/90 159/206/89
f 164/207/91 163/208/92 165/209/93
f 166/210/94 163/211/92 164/212/91
f 167/213/95 165/214/93 163/211/92
f 166/215/94 164/216/91 165/217/93
f 174/48/18 173/218/96 171/219/97
f 171/220/97 173/221/96 168/222/70
f 176/223/71 170/224/19 169/225/72
f 177/226/98 169/227/72 168/228/70
f 178/51/18 179/229/96 183/230/69
f 183/231/69 179/232/96 187/233/70
f 181/234/71 185/235/19 186/236/72
f 182/237/98 186/238/72 187/239/70
f 215/240/23 212/241/22 216/242/99
f 217/243/21 212/244/22 215/245/23
f 213/246/100 216/247/99 212/244/22
f 214/248/101 213/249/100 217/250/21
f 217/251/21 215/252/23 216/253/99
f 220/254/23 219/255/22 218/256/99
f 223/257/21 219/258/22 220/259/23
f 221/260/100 218/261/99 219/258/22
f 222/262/101 221/263/100 223/264/21
f 223/265/21 220/266/23 218/267/99
f 231/268/8 229/269/52 230/54/20
f 226/270/10 225/271/7 229/272/52
f 227/273/5 224/274/6 225/275/7
f 233/276/23 232/277/22 235/278/99
f 234/279/100 235/280/99 232/57/22
f 236/281/101 234/282/100 237/283/21
f 237/284/21 233/285/23 235/286/99
f 238/287/91 239/288/22 240/289/99
f 243/290/21 239/291/22 238/292/91
f 241/293/100 240/294/99 239/291/22
f 242/295/101 241/296/100 243/297/21
f 243/298/21 238/299/91 240/300/99
f 245/301/102 249/302/103 244/303/104
f 246/304/105 244/303/104 250/305/106
f 247/306/107 250/307/106 251/308/108
f 248/309/109 251/310/108 252/311/110
f 248/312/109 252/313/110 249/314/103
f 259/315/111 255/316/26 256/317/112
f 262/318/113 261/319/114 256/320/112
f 257/321/115 262/318/113 254/322/116
f 258/323/117 254/324/116 253/325/25
f 281/326/29 280/327/118 279/328/27
f 280/329/118 281/330/29 282/331/28
f 279/328/27 282/332/28 281/326/29
f 282/331/28 279/333/27 280/329/118
f 283/334/119 285/335/120 286/336/121
f 285/337/120 283/338/119 284/339/122
f 286/336/121 284/340/122 283/334/119
f 284/339/122 286/341/121 285/337/120
f 287/64/29 290/342/118 289/62/27
f 290/343/118 287/344/29 288/345/28
f 288/345/28 289/346/27 290/343/118
f 294/347/123 292/348/124 291/349/125
f 292/350/124 294/351/123 293/352/126
f 291/349/125 293/353/126 294/347/123
f 293/352/126 291/354/125 292/350/124
f 297/355/127 296/356/128 295/357/129
f 296/358/128 297/359/127 298/360/130
f 295/357/129 298/361/130 297/355/127
f 298/360/130 295/362/129 296/358/128
f 299/363/131 301/364/132 300/365/133
f 301/366/132 299/367/131 302/368/134
f 303/369/135 305/370/136 304/371/137
f 305/372/136 303/373/135 306/374/138
f 304/371/137 306/375/138 303/369/135
f 306/374/138 304/376/137 305/372/136
f 309/377/139 308/378/140 307/379/141
f 308/380/140 309/381/139 310/382/126
f 307/379/141 310/383/126 309/377/139
f 310/382/126 307/384/141 308/380/140
f 312/385/142 311/386/143 313/387/144
f 311/388/143 312/389/142 314/390/145
f 313/387/144 314/391/145 312/385/142
f 314/390/145 313/392/144 311/388/143
f 318/393/146 315/394/147 316/395/148
f 315/396/147 318/397/146 317/398/149
f 317/398/149 316/399/148 315/396/147
f 322/400/150 319/401/151 321/402/152
f 319/403/151 322/404/150 320/405/153
f 321/402/152 320/406/153 322/400/150
f 320/405/153 321/407/152 319/403/151
f 323/408/31 324/409/30 325/410/154
f 325/410/154 326/411/32 323/408/31
f 326/67/32 325/412/154 324/65/30
f 330/413/155 327/414/156 329/415/157
f 327/416/156 330/417/155 328/418/158
f 329/415/157 328/419/158 330/413/155
f 328/418/158 329/420/157 327/416/156
f 333/421/159 334/422/160 332/423/161
f 334/424/160 333/425/159 331/426/162
f 332/423/161 331/427/162 333/421/159
f 336/428/163 338/429/35 337/430/34
f 338/70/35 336/431/163 335/68/33
f 337/430/34 335/432/33 336/428/163
f 341/433/164 339/434/165 340/435/166
f 339/436/165 341/437/164 342/438/167
f 342/438/167 340/439/166 339/436/165
f 384/440/168 388/441/40 379/77/42
f 386/442/41 380/443/43 381/444/37
f 396/445/36 392/446/37 390/447/38
f 394/448/39 390/447/38 389/449/40
f 395/450/169 389/451/40 397/452/42
f 398/453/41 397/452/42 391/454/170
f 398/455/41 391/456/170 392/457/37
f 38/458/171 35/459/172 39/460/173
f 39/461/173 35/462/172 40/463/174
f 35/464/172 42/465/175 40/466/174
f 35/464/172 41/467/176 42/465/175
f 38/458/171 41/468/176 35/459/172
f 38/469/171 39/470/173 36/471/177
f 38/469/171 36/471/177 37/472/178
f 36/473/177 42/474/175 37/475/178
f 39/461/173 40/463/174 36/476/177
f 36/473/177 40/477/174 42/474/175
f 41/478/176 37/472/178 42/479/175
f 41/478/176 38/469/171 37/472/178
f 48/480/179 43/481/180 49/482/181
f 49/483/181 43/484/180 50/485/182
f 48/480/179 47/486/183 43/481/180
f 47/487/183 50/488/182 43/489/180
f 46/490/184 44/491/185 50/492/182
f 49/483/181 50/485/182 44/493/185
f 46/490/184 45/494/186 44/491/185
f 45/494/186 49/495/181 44/491/185
f 45/496/186 46/497/184 47/498/183
f 45/494/186 48/499/179 49/495/181
f 45/496/186 47/498/183 48/500/179
f 47/487/183 46/501/184 50/488/182
f 51/502/187 52/503/188 57/504/189
f 51/502/187 56/505/190 52/503/188
f 55/506/191 51/507/187 57/508/189
f 55/509/191 56/510/190 51/511/187
f 57/512/189 52/513/188 58/514/192
f 56/515/190 58/516/192 52/517/188
f 54/518/193 53/519/194 58/520/192
f 57/512/189 58/514/192 53/521/194
f 54/518/193 55/506/191 53/519/194
f 55/506/191 57/508/189 53/519/194
f 56/515/190 54/522/193 58/516/192
f 55/509/191 54/523/193 56/510/190
f 64/524/195 59/525/196 60/526/197
f 59/527/196 61/528/198 60/529/197
f 59/527/196 63/530/199 61/528/198
f 64/531/195 63/532/199 59/533/196
f 64/524/195 60/526/197 66/534/200
f 60/535/197 65/536/201 66/537/200
f 60/535/197 61/538/198 65/536/201
f 63/539/199 65/540/201 61/541/198
f 64/531/195 62/542/202 63/532/199
f 62/543/202 66/534/200 65/544/201
f 62/543/202 64/524/195 66/534/200
f 63/539/199 62/545/202 65/540/201
f 93/546/62 94/547/66 102/548/64
f 93/546/62 102/548/64 95/549/58
f 93/546/62 95/549/58 96/550/60
f 100/551/61 101/123/63 97/552/65
f 100/551/61 97/552/65 98/553/67
f 100/551/61 99/118/59 101/123/63
f 112/554/70 103/555/19 104/556/18
f 112/554/70 104/556/18 105/557/69
f 109/558/68 106/559/203 107/137/17
f 109/558/68 107/137/17 108/560/71
f 109/558/68 108/560/71 110/561/73
f 112/554/70 111/562/72 103/555/19
f 114/563/204 113/564/205 116/565/206
f 116/566/206 113/567/205 118/568/207
f 114/563/204 120/569/208 113/564/205
f 120/570/208 118/571/207 113/572/205
f 115/573/209 114/574/204 116/575/206
f 115/576/209 120/577/208 114/578/204
f 115/573/209 116/575/206 117/579/210
f 115/576/209 119/580/211 120/577/208
f 119/581/211 115/573/209 117/579/210
f 116/566/206 118/568/207 117/582/210
f 119/581/211 117/579/210 118/583/207
f 120/570/208 119/584/211 118/571/207
f 121/585/187 127/586/188 122/587/189
f 121/585/187 125/588/190 127/586/188
f 126/589/191 121/590/187 122/591/189
f 126/592/191 125/593/190 121/594/187
f 126/589/191 122/591/189 128/595/194
f 122/596/189 123/597/192 128/598/194
f 122/596/189 127/599/188 123/597/192
f 125/600/190 124/601/193 123/602/192
f 125/600/190 123/602/192 127/603/188
f 124/604/193 128/595/194 123/605/192
f 126/592/191 124/606/193 125/593/190
f 124/604/193 126/589/191 128/595/194
f 134/607/196 129/608/198 130/609/197
f 130/610/197 129/611/198 133/612/201
f 134/607/196 136/613/199 129/608/198
f 136/614/199 133/615/201 129/616/198
f 135/617/195 134/618/196 130/619/197
f 135/617/195 130/619/197 132/620/200
f 130/610/197 133/612/201 132/621/200
f 136/614/199 131/622/202 133/615/201
f 131/623/202 132/620/200 133/624/201
f 131/623/202 135/617/195 132/620/200
f 135/625/195 131/626/202 136/627/199
f 135/625/195 136/627/199 134/628/196
f 168/629/70 169/630/72 170/631/19
f 168/629/70 170/631/19 174/632/18
f 168/629/70 174/632/18 171/633/97
f 173/634/96 172/635/203 175/47/17
f 173/634/96 175/47/17 176/636/71
f 173/634/96 176/636/71 177/637/98
f 187/638/70 178/639/18 183/640/69
f 187/638/70 185/641/19 178/639/18
f 179/642/96 184/643/203 180/50/17
f 179/642/96 180/50/17 181/644/71
f 179/642/96 181/644/71 182/645/98
f 187/638/70 186/646/72 185/641/19
f 188/647/204 189/648/205 191/649/206
f 188/647/204 194/650/208 189/648/205
f 193/651/209 188/652/204 191/653/206
f 193/654/209 194/655/208 188/656/204
f 191/657/206 189/658/205 192/659/207
f 194/660/208 192/661/207 189/662/205
f 190/663/211 195/664/210 192/665/207
f 190/663/211 193/651/209 195/664/210
f 194/660/208 190/666/211 192/661/207
f 193/654/209 190/667/211 194/655/208
f 193/651/209 191/653/206 195/664/210
f 191/657/206 192/659/207 195/668/210
f 196/669/187 201/670/188 197/671/189
f 196/669/187 199/672/190 201/670/188
f 200/673/191 196/674/187 197/675/189
f 200/676/191 199/677/190 196/678/187
f 200/673/191 197/675/189 203/679/194
f 197/680/189 202/681/192 203/682/194
f 197/680/189 201/683/188 202/681/192
f 198/684/193 203/679/194 202/685/192
f 198/684/193 200/673/191 203/679/194
f 199/686/190 198/687/193 202/688/192
f 200/676/191 198/689/193 199/677/190
f 199/686/190 202/688/192 201/690/188
f 205/691/195 204/692/202 208/693/199
f 204/694/202 205/695/195 206/696/200
f 204/694/202 206/696/200 211/697/201
f 208/698/199 204/699/202 211/700/201
f 205/695/195 210/701/197 206/696/200
f 205/695/195 209/702/196 210/701/197
f 205/691/195 208/693/199 209/703/196
f 210/704/197 211/705/201 206/706/200
f 209/707/196 207/708/198 210/709/197
f 210/704/197 207/710/198 211/705/201
f 209/707/196 208/711/199 207/708/198
f 208/698/199 211/700/201 207/712/198
f 252/713/110 244/714/104 249/715/103
f 252/713/110 250/716/106 244/714/104
f 245/301/102 246/304/105 247/717/107
f 245/301/102 247/717/107 248/718/109
f 252/713/110 251/719/108 250/716/106
f 255/720/26 253/721/25 254/722/116
f 255/720/26 254/722/116 262/723/113
f 255/720/26 262/723/113 256/724/112
f 259/725/111 261/319/114 257/321/115
f 259/725/111 258/726/117 260/727/24
f 259/725/111 257/321/115 258/726/117
f 263/728/204 270/729/205 265/730/206
f 263/728/204 267/731/208 270/729/205
f 266/732/209 263/733/204 265/734/206
f 266/735/209 267/736/208 263/737/204
f 268/738/211 264/739/210 269/740/207
f 265/741/206 269/742/207 264/743/210
f 268/738/211 266/732/209 264/739/210
f 266/732/209 265/734/206 264/739/210
f 265/741/206 270/744/205 269/742/207
f 266/735/209 268/745/211 267/736/208
f 267/746/208 269/747/207 270/748/205
f 267/746/208 268/749/211 269/747/207
f 271/750/212 272/751/213 273/752/214
f 271/750/212 276/753/215 272/751/213
f 275/754/216 271/755/212 273/756/214
f 275/757/216 276/758/215 271/759/212
f 273/760/214 272/761/213 277/762/217
f 276/763/215 277/764/217 272/765/213
f 275/754/216 273/756/214 278/766/218
f 273/760/214 277/762/217 278/767/218
f 274/768/219 278/766/218 277/769/217
f 274/768/219 275/754/216 278/766/218
f 276/763/215 274/770/219 277/764/217
f 275/757/216 274/771/219 276/758/215
f 347/772/220 344/773/221 343/774/222
f 343/775/223 344/776/224 350/777/225
f 343/775/223 350/777/225 346/778/226
f 347/779/220 343/780/222 346/781/227
f 344/782/221 349/783/228 350/784/229
f 344/782/221 345/785/230 349/783/228
f 347/772/220 345/786/230 344/773/221
f 345/787/231 348/788/232 349/789/233
f 345/787/231 347/779/234 348/788/232
f 347/779/220 346/781/227 348/788/235
f 346/790/227 349/791/228 348/792/235
f 346/790/227 350/793/229 349/791/228
f 353/794/236 351/795/237 352/796/238
f 353/794/236 354/797/239 351/795/237
f 354/798/239 352/799/238 351/800/237
f 354/798/239 353/801/236 352/799/238
f 355/802/240 361/803/241 360/804/242
f 355/802/240 356/805/243 361/803/241
f 358/806/244 355/807/240 360/808/242
f 358/809/244 356/810/243 355/811/240
f 356/812/243 357/813/245 361/814/241
f 356/812/243 359/815/246 357/813/245
f 358/809/244 359/816/246 356/810/243
f 360/817/242 361/818/241 357/819/245
f 359/820/246 362/821/247 357/822/245
f 360/817/242 357/819/245 362/823/247
f 359/820/246 358/806/244 362/821/247
f 358/806/244 360/808/242 362/821/247
f 366/824/248 365/825/249 363/826/250
f 364/827/251 363/828/250 365/829/249
f 364/827/251 366/830/248 363/828/250
f 366/824/248 364/831/251 365/825/249
f 368/832/252 367/833/253 369/834/254
f 368/832/252 369/834/254 370/835/255
f 367/836/253 370/837/255 369/838/254
f 367/836/253 368/839/252 370/837/255
f 373/840/256 371/841/257 376/842/258
f 376/843/259 371/844/260 377/845/261
f 373/840/256 375/846/262 371/841/257
f 375/847/263 377/848/261 371/849/260
f 372/850/264 378/851/265 377/852/266
f 372/850/264 374/853/267 378/851/265
f 375/847/263 372/854/268 377/848/261
f 374/855/269 372/856/268 375/857/263
f 374/853/269 373/858/270 376/859/259
f 374/855/269 375/857/263 373/860/270
f 374/853/269 376/859/259 378/851/271
f 376/843/259 377/845/261 378/861/271
f 380/862/43 379/863/42 388/864/40
f 380/862/43 382/865/38 381/866/37
f 380/862/43 388/864/40 382/865/38
f 385/867/272 383/868/39 384/869/168
f 385/867/272 387/870/36 383/868/39
f 385/867/272 384/869/168 386/871/41
f 391/872/170 397/873/42 389/874/40
f 391/872/170 390/875/38 392/876/37
f 391/872/170 389/874/40 390/875/38
f 393/877/272 394/878/39 395/879/169
f 393/877/272 396/880/36 394/878/39
f 393/877/272 395/879/169 398/881/41
f 404/882/273 401/883/274 399/884/275
f 404/882/273 399/884/275 400/885/276
f 399/886/275 406/887/277 400/888/276
f 401/889/274 405/890/278 399/891/275
f 399/886/275 405/892/278 406/887/277
f 403/893/279 400/885/276 406/894/277
f 403/893/279 404/882/273 400/885/276
f 401/889/274 402/895/280 405/890/278
f 404/896/273 402/897/280 401/898/274
f 402/899/280 406/900/277 405/901/278
f 402/899/280 403/902/279 406/900/277
f 404/896/273 403/903/279 402/897/280
f 407/904/281 413/905/282 414/906/283
f 407/904/281 412/907/284 413/905/282
f 410/908/285 407/909/281 414/910/283
f 410/911/285 412/912/284 407/913/281
f 411/914/286 408/915/287 409/916/288
f 414/917/283 409/918/288 408/919/287
f 411/914/286 410/908/285 408/915/287
f 410/908/285 414/910/283 408/915/287
f 412/920/284 411/921/286 409/922/288
f 412/920/284 409/922/288 413/923/282
f 414/917/283 413/924/282 409/918/288
f 410/911/285 411/925/286 412/912/284
f 80/35/5 81/926/9 78/36/6
f 85/927/49 87/928/11 86/929/13
f 89/930/53 91/931/56 90/932/54
f 162/44/14 159/199/89 158/45/15
f 167/933/95 166/934/94 165/935/93
f 175/47/17 172/635/203 174/48/18
f 180/50/17 184/643/203 178/51/18
f 187/233/70 179/232/96 182/936/98
f 226/937/10 228/938/9 227/939/5
f 228/53/9 231/268/8 230/54/20
f 237/56/21 234/279/100 232/57/22
f 260/59/24 258/940/117 253/60/25
f 302/941/134 299/363/131 300/365/133
f 300/942/133 301/366/132 302/368/134
f 317/943/149 318/393/146 316/395/148
f 332/944/161 334/424/160 331/426/162
f 342/945/167 341/433/164 340/435/166
f 387/71/36 385/946/272 381/72/37
f 383/74/39 387/71/36 382/73/38
f 386/76/41 384/440/168 379/77/42
f 71/947/48 69/79/44 68/81/46
f 69/85/44 71/948/48 70/86/47
f 74/949/11 75/91/49 72/93/51
f 75/950/49 74/951/11 73/952/50
f 76/953/52 78/954/6 77/955/20
f 81/97/9 83/100/8 77/98/20
f 83/100/8 82/956/10 76/101/52
f 78/954/6 76/953/52 79/957/7
f 82/102/10 80/958/5 79/103/7
f 82/40/10 81/39/9 80/959/5
f 87/960/11 85/105/49 84/107/12
f 88/961/57 89/108/53 92/110/55
f 91/111/56 88/962/57 92/112/55
f 96/120/60 99/963/59 100/121/61
f 95/117/58 101/123/63 99/118/59
f 97/125/65 101/964/63 102/126/64
f 98/965/67 97/125/65 94/127/66
f 93/122/62 100/121/61 98/966/67
f 104/131/18 106/559/203 109/132/68
f 107/137/17 106/559/203 104/131/18
f 108/139/71 107/967/17 103/140/19
f 110/142/73 108/968/71 111/143/72
f 112/136/70 109/135/68 110/969/73
f 143/148/77 139/151/78 138/149/75
f 139/151/78 142/970/79 137/152/76
f 142/157/79 143/971/77 141/158/80
f 148/972/85 147/163/81 144/165/83
f 147/163/81 149/973/84 146/164/82
f 149/172/84 148/974/85 145/173/86
f 156/181/77 153/184/78 155/182/75
f 153/184/78 154/975/79 150/185/76
f 154/190/79 156/976/77 151/191/87
f 159/977/89 160/978/90 157/979/88
f 160/201/90 162/980/14 161/202/16
f 166/210/94 167/213/95 163/211/92
f 174/48/18 172/635/203 173/218/96
f 176/223/71 175/981/17 170/224/19
f 177/226/98 176/982/71 169/227/72
f 168/222/70 173/221/96 177/983/98
f 178/51/18 184/643/203 179/229/96
f 181/234/71 180/984/17 185/235/19
f 182/237/98 181/985/71 186/238/72
f 217/243/21 213/246/100 212/244/22
f 213/246/100 214/986/101 216/247/99
f 214/987/101 217/988/21 216/989/99
f 223/257/21 221/260/100 219/258/22
f 221/260/100 222/990/101 218/261/99
f 222/991/101 223/992/21 218/993/99
f 229/994/52 224/995/6 230/996/20
f 231/268/8 226/997/10 229/269/52
f 228/938/9 226/937/10 231/998/8
f 224/995/6 229/994/52 225/999/7
f 226/270/10 227/1000/5 225/271/7
f 227/273/5 228/1001/9 224/274/6
f 234/279/100 236/1002/101 235/280/99
f 236/1003/101 237/1004/21 235/1005/99
f 243/290/21 241/293/100 239/291/22
f 241/293/100 242/1006/101 240/294/99
f 242/1007/101 243/1008/21 240/1009/99
f 245/1010/102 248/312/109 249/314/103
f 244/303/104 246/304/105 245/301/102
f 247/306/107 246/1011/105 250/307/106
f 248/309/109 247/1012/107 251/310/108
f 261/319/114 259/1013/111 256/320/112
f 259/315/111 260/1014/24 255/316/26
f 257/321/115 261/319/114 262/318/113
f 258/323/117 257/1015/115 254/324/116
f 385/1016/272 386/442/41 381/444/37
f 384/440/168 383/1017/39 388/441/40
f 396/445/36 393/1018/272 392/446/37
f 393/1019/272 398/455/41 392/457/37
f 394/448/39 396/445/36 390/447/38
f 395/450/169 394/1020/39 389/451/40
f 398/453/41 395/450/169 397/452/42
