# Blender 4.5.0
# www.blender.org
mtllib factory_001.mtl
o factory_001
v -1.848940 3.591346 -3.141000
v 0.639515 3.591346 -3.141000
v 0.639515 3.171773 -3.141000
v -1.848940 3.171773 -3.141000
v -3.196642 0.168367 -3.195385
v 3.186473 0.001460 -3.195385
v -3.196642 0.001460 3.195385
v 3.187933 0.000000 3.193000
v -3.198103 -0.000000 -3.193000
v -3.198103 0.169827 3.193000
v 3.186473 0.168367 3.195385
v 3.187933 0.169827 -3.193000
v 2.938092 3.767221 -2.942480
v 2.935931 0.179646 -2.945245
v -2.948262 3.767222 2.942480
v -2.946100 0.179647 2.945245
v 2.935931 3.766339 2.945245
v 2.938092 0.178764 2.942480
v -2.946100 3.766338 -2.945245
v -2.948262 0.178764 -2.942480
v 3.142932 3.791256 -3.136097
v -0.004608 5.136339 3.141698
v -3.153102 3.791256 3.136096
v -3.153117 3.791242 -3.138277
v -0.005562 5.136339 -3.141699
v 3.142948 3.791243 3.138276
v -3.089399 3.766810 -3.149245
v -3.215408 3.818986 3.149245
v -3.183237 3.728708 3.144376
v -3.080684 3.790495 3.151703
v -3.204818 3.841891 -3.151703
v -3.176009 3.725714 -3.144376
v -3.109730 3.838005 -3.147125
v -3.150670 3.854956 3.147125
v 3.186362 3.838005 -3.147125
v 3.120083 3.725715 -3.144376
v 3.091274 3.841891 -3.151704
v 3.080684 3.818987 3.149245
v 3.145423 3.854956 3.147125
v 3.215408 3.790495 3.151703
v 3.112855 3.728708 3.144376
v 3.206694 3.766811 -3.149245
v -0.035301 5.054397 -3.144610
v -0.042479 5.220391 -3.150527
v -0.002623 5.223563 3.147125
v 0.054404 5.078883 3.143972
v 0.078386 5.170348 3.150526
v -0.086330 5.175972 3.150394
v -0.090221 5.138764 -3.143973
v -0.044111 5.058044 3.144609
v 0.077972 5.107943 -3.150395
v 0.052448 5.200762 -3.147126
v -3.162727 3.815187 -3.081012
v -3.175766 3.858054 -3.174729
v -3.130630 3.745953 -3.103038
v -3.126855 3.730740 -3.182492
v -0.037647 5.202165 -3.133393
v -0.032621 5.173564 -3.092376
v 0.000406 5.096532 -3.207625
v -0.024805 5.165142 -3.216905
v -3.146987 3.793063 -3.220751
v -0.005085 5.109739 -3.061454
v -0.013609 5.131373 -3.070409
v -0.011744 5.154672 -3.070409
v 0.012281 5.156501 -3.075366
v -0.011744 5.124869 -3.079592
v -0.001790 5.132086 -3.083369
v 0.022299 5.067405 -3.134785
v 0.035614 5.209668 -3.151976
v 0.011644 5.178788 -3.192493
v 3.113874 3.731272 -3.116252
v 3.157243 3.839741 -3.101082
v 3.137013 3.781869 -3.080815
v 3.136302 3.806044 -3.079592
v -0.032903 5.070094 -3.165170
v 3.130736 3.763814 -3.217061
v -0.015507 5.141380 -3.235966
v 0.010303 5.145227 -3.220408
v 0.001574 5.124868 -3.220408
v -0.008025 5.132912 -3.213925
v -0.001790 5.132086 -3.216631
v 3.164353 3.855152 -3.182357
v 0.022451 5.173564 -3.092376
v -0.010575 5.096532 -3.092376
v -3.126855 3.730741 3.117508
v -0.024805 5.165143 3.083095
v 0.022023 5.068929 3.156844
v 0.000406 5.096532 3.092375
v -3.146987 3.793063 3.079249
v -3.175766 3.858054 3.125271
v -0.037772 5.201485 3.177450
v -3.167169 3.823914 3.211291
v -3.137743 3.785686 3.220408
v 0.003874 5.132429 3.231179
v -0.013609 5.131373 3.229592
v -0.011744 5.154673 3.229592
v -0.007777 5.120811 3.219775
v -0.001790 5.132087 3.216630
v -0.020472 5.145228 3.220407
v -3.130630 3.745954 3.196962
v 0.000406 5.096533 3.207624
v 0.022451 5.173564 3.207624
v -0.010272 5.088115 3.202349
v 0.034932 5.210255 3.151143
v 0.011644 5.178789 3.107507
v -0.015507 5.141381 3.064034
v 0.010303 5.145228 3.079592
v 0.001574 5.124869 3.079592
v -0.008025 5.132913 3.086075
v -0.001790 5.132086 3.083369
v 3.164353 3.855153 3.117643
v 3.136302 3.806045 3.220408
v 3.137013 3.781870 3.219186
v -0.029207 5.077275 3.119623
v 3.130736 3.763814 3.082939
v 3.157243 3.839741 3.198918
v 3.113874 3.731272 3.183748
v -2.938639 3.786349 -2.947505
v -2.937276 0.181217 -2.944953
v -2.829320 3.784748 -2.944953
v -2.827958 3.786349 -3.092495
v -2.937276 3.784748 -3.095047
v -2.938639 0.179616 -3.092495
v -2.829320 0.181217 -3.095047
v -2.827958 0.179616 -2.947505
v 2.819151 3.784748 -3.095047
v 2.928469 3.786349 -3.092495
v 2.928469 0.179616 -2.947505
v 2.927107 0.181217 -3.095047
v 2.927107 3.784748 -2.944953
v 2.817788 3.786349 -2.947505
v 2.817788 0.179616 -3.092495
v 2.819151 0.181217 -2.944953
v 1.012477 2.965874 -2.929559
v -2.323457 2.967163 -2.931947
v -2.323457 0.179634 -3.048053
v 1.014094 2.967163 -3.048053
v 1.014094 0.179635 -2.931947
v 1.012477 0.180924 -3.050441
v -2.321841 2.965874 -3.050442
v -2.321841 0.180924 -2.929559
v 0.931251 0.223033 -3.082754
v -2.240614 0.223033 -3.077247
v -2.240614 2.873816 -3.082754
v 0.931251 2.873816 -3.077247
v -2.220813 0.364943 -3.110714
v 0.919796 0.357136 -3.120000
v -2.227994 0.353080 -3.125048
v -2.227994 0.541009 -3.114953
v 0.919796 0.536953 -3.120000
v -2.220813 0.529147 -3.129286
v -2.227994 0.721813 -3.124060
v 0.919796 0.716770 -3.120000
v -2.220813 0.707494 -3.112186
v -2.227994 0.901630 -3.124060
v -2.220813 0.887311 -3.112186
v 0.919796 0.896587 -3.120000
v -2.220813 1.085681 -3.127814
v -2.227994 1.071362 -3.115940
v 0.919796 1.076404 -3.120000
v -2.227994 1.261264 -3.124060
v -2.220813 1.246945 -3.112186
v 0.919796 1.256222 -3.120000
v -2.227994 1.441081 -3.124060
v -2.220813 1.426762 -3.112186
v 0.919796 1.436039 -3.120000
v -2.227994 1.619912 -3.114953
v -2.220813 1.608050 -3.129286
v 0.919796 1.615856 -3.120000
v 0.919796 1.795673 -3.120000
v -2.227994 1.791617 -3.125048
v -2.220813 1.803479 -3.110715
v -2.220813 1.966213 -3.112186
v 0.919796 1.975490 -3.120000
v -2.227994 1.980532 -3.124060
v -2.227994 2.159363 -3.114953
v -2.220813 2.147501 -3.129286
v 0.919796 2.155307 -3.120000
v -2.227994 2.339180 -3.114953
v -2.220813 2.327317 -3.129286
v 0.919796 2.335124 -3.120000
v 0.919796 2.514941 -3.120000
v -2.227994 2.519983 -3.124060
v -2.220813 2.505664 -3.112186
v -2.227994 2.698814 -3.114953
v -2.220813 2.686952 -3.129286
v 0.919796 2.694758 -3.120000
v -2.227994 2.879617 -3.124060
v -2.220813 2.865299 -3.112186
v 0.919796 2.874575 -3.120000
v 1.650294 2.407113 -3.088391
v 2.636869 0.170264 -3.088391
v 2.636869 2.407114 -2.951609
v 1.649592 2.408224 -2.952351
v 1.650294 0.170264 -2.951609
v 2.637571 2.408225 -3.087650
v 2.637571 0.169153 -2.952351
v 1.649592 0.169153 -3.087650
v 1.721416 2.329221 -3.111681
v 2.565747 2.329221 -3.108320
v 1.721416 0.238166 -3.108320
v 2.565747 0.238166 -3.111680
v 2.145598 0.235198 -3.115472
v 2.141565 2.332189 -3.115473
v 2.141565 0.235198 -3.164528
v 2.145598 2.332189 -3.164528
v 2.025821 1.390832 -3.232062
v 2.025821 0.996738 -3.167938
v 2.021491 0.996738 -3.232062
v 2.021491 1.390832 -3.167938
v 2.265672 1.390832 -3.232062
v 2.261342 1.390832 -3.167938
v 2.265672 0.996738 -3.167938
v 2.261342 0.996738 -3.232062
v 0.661500 3.145383 -3.133549
v -1.872738 3.617538 -2.987376
v -1.870925 3.617736 -3.133549
v -1.872738 3.145580 -3.132624
v -1.870925 3.145383 -2.986451
v 0.661500 3.617736 -2.986451
v 0.663313 3.145580 -2.987376
v 0.663313 3.617538 -3.132624
v 3.040634 2.935876 -2.420139
v 3.040990 2.933845 -1.177521
v 2.955112 2.101032 -1.177521
v 2.955468 2.935876 -1.179861
v 3.040634 2.099001 -1.179861
v 2.955112 2.933845 -2.422479
v 2.955468 2.099001 -2.420139
v 3.040991 2.101032 -2.422479
v 3.017704 2.515241 -2.450388
v 3.078337 2.515241 -1.149612
v 3.017704 2.519636 -1.149612
v 3.078337 2.519636 -2.450388
v 3.040991 2.101032 -0.622479
v 3.040990 2.933845 0.622478
v 3.040634 2.099001 0.620139
v 2.955468 2.935876 0.620139
v 3.040634 2.935876 -0.620139
v 2.955112 2.933845 -0.622479
v 2.955468 2.099001 -0.620139
v 2.955112 2.101032 0.622478
v 3.017704 2.515241 -0.650388
v 3.078337 2.519636 -0.650388
v 3.078337 2.515241 0.650388
v 3.017704 2.519636 0.650388
v 2.955112 2.933845 1.177521
v 3.040991 2.101032 1.177521
v 2.955468 2.935876 2.420139
v 3.040634 2.099002 2.420139
v 2.955468 2.099001 1.179861
v 2.955112 2.101032 2.422478
v 3.040990 2.933846 2.422478
v 3.040634 2.935876 1.179861
v 3.078337 2.519636 1.149612
v 3.017704 2.515241 1.149612
v 3.017704 2.519636 2.450388
v 3.078337 2.515242 2.450388
v 1.953276 3.687256 2.022843
v 1.739536 3.694346 1.973872
v 2.089706 3.692769 1.909207
v 2.007684 3.694847 1.603990
v 2.111815 3.686216 1.727211
v 2.056650 5.593301 1.636799
v 1.847077 5.586211 1.572274
v 2.118021 5.587788 1.803468
v 1.671443 5.584327 1.731174
v 1.830887 3.696134 1.575260
v 1.666833 3.696231 1.748388
v 1.727008 5.584424 1.963186
v 2.046227 5.594341 1.972143
v 1.894474 5.585711 2.026758
v 1.709667 5.572584 2.128200
v 1.569878 5.574201 1.991158
v 1.513972 5.581321 1.799999
v 2.219529 5.570858 1.984207
v 1.714676 5.569333 1.481737
v 2.082650 5.572939 1.474093
v 2.255748 5.558524 1.680421
v 2.219373 5.703527 1.608350
v 2.086662 5.707860 1.475820
v 1.564851 5.697204 1.610000
v 1.579633 5.709191 1.986037
v 1.898327 5.705941 1.423678
v 1.708787 5.704323 1.472422
v 2.147495 5.720000 2.084675
v 1.898825 5.570664 2.177270
v 1.894490 5.705586 2.176758
v 2.079981 5.574997 2.128892
v 2.267927 5.707666 1.803469
v -2.803236 0.115785 3.082339
v -2.832294 3.483355 3.007289
v -2.760978 0.117915 3.034860
v -2.806581 0.120163 2.997298
v -2.773350 3.490546 3.010141
v -2.835809 3.486169 3.067907
v -2.846932 0.122976 3.042648
v -2.777020 3.488416 3.073613
v 2.793289 0.115785 3.082339
v 2.835548 0.117915 3.034860
v 2.789945 0.120163 2.997299
v 2.760716 3.486169 3.067906
v 2.819506 3.488416 3.073613
v 2.823176 3.490546 3.010141
v 2.764232 3.483355 3.007290
v 2.749594 0.122977 3.042648
v -0.398459 2.237211 2.971658
v -0.399156 0.448923 2.972423
v 0.388289 2.237211 3.088341
v -0.399156 2.238343 3.087577
v -0.398459 0.450055 3.088341
v 0.388987 0.448923 3.087577
v 0.388289 0.450055 2.971659
v 0.388987 2.238343 2.972423
v 0.963987 1.785700 3.112089
v 0.624851 1.301160 3.112089
v 0.623926 1.299471 2.949031
v 0.964912 1.299471 3.110969
v 0.623925 1.787388 3.110969
v 0.964912 1.787388 2.949031
v 0.624851 1.785700 2.947911
v 0.963987 1.301160 2.947911
vn -0.0000 -0.0000 -1.0000
vn 0.2498 -0.6965 -0.6727
vn -0.4934 0.2115 -0.8437
vn 0.6532 -0.1393 0.7443
vn -0.0764 0.1753 0.9816
vn 0.2258 0.6311 0.7421
vn -0.7844 0.1814 0.5932
vn -0.0000 -0.7682 0.6402
vn -0.0000 -0.8000 0.6000
vn -0.0000 -0.7809 0.6247
vn -0.0000 0.6379 0.7701
vn -0.0000 0.6366 0.7712
vn -0.0000 0.6402 0.7682
vn 0.9559 -0.0153 -0.2934
vn 0.8859 0.4535 0.0976
vn 0.9451 0.3268 -0.0025
vn 0.7197 0.6078 0.3356
vn 0.5562 -0.3803 0.7390
vn 0.9344 0.0705 0.3491
vn -0.9296 -0.1465 0.3383
vn 0.0778 0.4073 0.9100
vn 0.4529 0.5594 -0.6942
vn -0.3795 0.8135 -0.4407
vn -0.8497 0.5156 -0.1106
vn -0.9185 0.3752 -0.1247
vn -0.9384 0.1201 -0.3241
vn -0.6810 -0.2613 -0.6841
vn 0.4228 -0.5463 -0.7231
vn -0.1429 -0.3308 -0.9328
vn 0.0009 -0.0004 -1.0000
vn 0.9637 0.2412 0.1145
vn 0.3889 0.9146 -0.1105
vn 0.3305 0.7731 0.5413
vn 0.0028 -0.0002 1.0000
vn 0.2475 -0.9321 0.2645
vn -0.2642 -0.6175 0.7409
vn -0.3881 -0.8960 -0.2159
vn 0.9446 -0.0246 -0.3273
vn 0.8817 0.4591 0.1089
vn 0.9408 0.3384 -0.0206
vn 0.7775 -0.2522 0.5761
vn 0.9643 0.1789 0.1951
vn -0.2299 0.7404 0.6316
vn -0.6539 0.6507 0.3859
vn -0.1052 0.7331 0.6720
vn 0.5263 0.5312 -0.6639
vn -0.3114 0.8076 -0.5009
vn -0.8590 0.5070 -0.0706
vn -0.6546 -0.1917 -0.7313
vn -0.9744 0.2052 -0.0919
vn -0.9460 0.3177 0.0643
vn -0.9723 -0.0477 0.2288
vn 0.4226 -0.5464 -0.7231
vn -0.1258 -0.2916 -0.9482
vn 0.9637 0.2411 0.1146
vn 0.3896 0.9168 -0.0878
vn 0.3245 0.7589 0.5647
vn -0.0000 -0.0000 -0.0000
vn 0.5791 0.6111 -0.5396
vn 0.8124 -0.5785 -0.0735
vn -0.0758 -0.5672 -0.8201
vn -0.5761 0.5260 -0.6257
vn -0.8498 -0.5260 0.0351
vn -0.6335 0.5672 0.5263
vn 0.0280 -0.6111 0.7911
vn 0.5224 0.5785 0.6264
vn 0.0279 -0.6111 0.7911
vn 0.5224 0.5785 0.6265
vn -0.5740 0.5757 -0.5823
vn 0.5740 -0.5757 -0.5823
vn -0.5808 -0.5788 -0.5723
vn 0.5808 0.5788 -0.5723
vn -0.5808 0.5788 0.5723
vn 0.5808 -0.5788 0.5723
vn 0.5740 0.5757 0.5823
vn -0.5740 -0.5757 0.5823
vn -0.5776 0.5775 0.5769
vn 0.5776 0.5775 -0.5769
vn -0.5771 0.5773 -0.5777
vn 0.5771 -0.5773 -0.5777
vn 0.5776 -0.5775 0.5769
vn 0.5771 0.5773 0.5777
vn -0.5776 -0.5775 -0.5769
vn -0.5771 -0.5773 0.5777
vn -0.3808 0.8905 -0.2490
vn 0.0001 0.7768 -0.6298
vn 0.0003 -0.0034 -1.0000
vn 0.3808 0.8905 0.2490
vn 0.3929 0.9196 -0.0000
vn -0.3929 0.9196 -0.0000
vn -0.0001 0.7768 0.6298
vn -0.0003 -0.0034 1.0000
vn 0.5020 0.6295 -0.5931
vn 0.7178 -0.3303 -0.6129
vn -0.3555 -0.7577 -0.5473
vn 0.7988 -0.0830 0.5958
vn 0.0901 0.8001 0.5931
vn -0.7411 0.2740 0.6129
vn -0.2844 -0.7871 0.5473
vn -0.6236 0.5061 -0.5959
vn -0.2299 -0.7823 -0.5789
vn 0.5479 -0.5886 0.5945
vn -0.3906 -0.7158 0.5789
vn 0.5411 0.5807 -0.6083
vn 0.7156 -0.3310 -0.6151
vn -0.8036 -0.0287 -0.5945
vn -0.3201 0.7031 -0.6349
vn -0.7400 0.2720 0.6151
vn 0.0279 0.7932 0.6083
vn 0.7236 0.2708 0.6349
vn -0.6932 0.0535 0.7188
vn -0.3307 -0.7771 0.5355
vn 0.3822 -0.8987 0.2148
vn 0.2456 -0.5918 0.7677
vn -0.8404 0.4903 -0.2308
vn -0.5556 -0.2124 -0.8039
vn 0.3773 0.6385 -0.6708
vn 0.4273 0.8491 -0.3106
vn -0.3125 -0.8919 -0.3270
vn 0.3804 0.0827 -0.9211
vn -0.4131 -0.2475 -0.8764
vn 0.0395 -0.0894 -0.9952
vn -0.1479 -0.3546 0.9232
vn -0.8709 0.4469 -0.2044
vn 0.1511 0.3527 0.9235
vn 0.1508 0.3521 0.9237
vn 0.5360 0.1881 0.8230
vn 0.6756 -0.6045 0.4220
vn 0.8133 0.4304 -0.3916
vn -0.4371 0.1874 -0.8797
vn 0.2714 0.6424 -0.7167
vn 0.2862 0.3853 0.8773
vn -0.3357 -0.8247 0.4552
vn -0.5531 -0.2135 -0.8053
vn -0.3122 -0.8920 -0.3268
vn 0.0394 -0.0894 -0.9952
vn 0.3681 0.6548 -0.6601
vn 0.2318 0.9493 0.2123
vn -0.8386 0.4810 -0.2556
vn 0.0938 -0.2150 0.9721
vn -0.3758 -0.5199 0.7671
vn 0.2003 -0.4711 0.8591
vn -0.1592 -0.3790 0.9116
vn -0.2979 -0.6948 0.6546
vn 0.2473 -0.9322 0.2643
vn -0.8709 0.0400 -0.4898
vn 0.3950 -0.9174 0.0481
vn -0.9254 0.3772 0.0359
vn -0.3697 -0.8540 -0.3661
vn 0.2766 0.6556 -0.7026
vn 0.8133 0.4303 -0.3916
vn -0.5839 0.5816 0.5664
vn 0.5724 0.5689 0.5905
vn 0.5839 0.5816 -0.5664
vn -0.5724 -0.5689 0.5905
vn -0.5839 -0.5816 -0.5664
vn -0.5724 0.5689 -0.5905
vn 0.5839 -0.5816 0.5664
vn 0.5724 -0.5689 -0.5905
vn 0.5734 0.5745 0.5840
vn -0.5734 -0.5745 0.5840
vn 0.5812 -0.5803 0.5705
vn -0.5812 0.5803 0.5705
vn 0.5812 0.5803 -0.5705
vn -0.5812 -0.5803 -0.5705
vn -0.5734 0.5745 -0.5840
vn 0.5734 -0.5745 -0.5840
vn 0.7240 0.6895 0.0193
vn -0.7240 -0.6895 0.0193
vn 0.7240 -0.6895 -0.0192
vn -0.7240 0.6895 -0.0192
vn -0.5762 0.5748 -0.5811
vn 0.5762 -0.5748 -0.5811
vn -0.5789 -0.5795 -0.5736
vn 0.5789 0.5795 -0.5736
vn -0.5789 0.5795 0.5736
vn 0.5789 -0.5795 0.5736
vn 0.5762 0.5748 0.5811
vn -0.5762 -0.5748 0.5811
vn -0.6249 0.7806 0.0134
vn 0.6249 -0.7806 0.0133
vn -0.6250 -0.7805 -0.0135
vn 0.6250 0.7805 -0.0134
vn 0.0468 0.8401 -0.5405
vn -0.0468 0.8399 0.5407
vn 0.0468 -0.8399 0.5407
vn -0.0467 -0.8401 -0.5405
vn -0.0387 0.8180 0.5740
vn 0.0387 0.8180 -0.5740
vn -0.0387 -0.8180 -0.5740
vn 0.0387 -0.8180 0.5740
vn 0.0387 0.8179 -0.5740
vn 0.0387 -0.8179 0.5740
vn -0.0003 -0.0015 -1.0000
vn 0.0003 0.0015 -1.0000
vn -0.0004 -0.0020 -1.0000
vn -0.7096 -0.7045 0.0046
vn 0.7022 -0.7119 -0.0077
vn 0.7096 -0.7045 -0.0046
vn 0.0004 0.0020 -1.0000
vn 0.7096 0.7045 0.0046
vn -0.7096 0.7045 -0.0046
vn -0.7022 0.7119 -0.0077
vn 0.7022 0.7119 0.0077
vn 0.0003 -0.0015 1.0000
vn -0.0004 0.0020 1.0000
vn -0.0003 0.0015 1.0000
vn -0.7022 -0.7119 0.0077
vn 0.0004 -0.0020 1.0000
vn -0.5782 0.5866 0.5671
vn 0.5782 0.5866 -0.5671
vn -0.5767 0.5685 -0.5867
vn 0.5767 -0.5685 -0.5867
vn 0.5782 -0.5866 0.5671
vn 0.5767 0.5685 0.5867
vn -0.5767 -0.5685 0.5867
vn -0.5782 -0.5866 -0.5671
vn -0.5466 0.0417 0.8364
vn 0.5467 0.0417 -0.8363
vn -0.5465 -0.0417 -0.8364
vn 0.5467 -0.0417 0.8363
vn -0.5467 0.0417 0.8363
vn 0.5466 0.0417 -0.8364
vn -0.5467 -0.0417 -0.8363
vn 0.5466 -0.0417 0.8364
vn 0.5466 0.0417 -0.8363
vn -0.5466 -0.0417 -0.8364
vn 0.6777 -0.6372 0.3670
vn 0.3559 -0.8429 0.4035
vn -0.5388 -0.6132 0.5777
vn -0.2236 -0.0089 0.9746
vn -0.3456 0.0021 0.9384
vn 0.3575 0.0074 0.9339
vn 0.3382 0.0085 0.9410
vn -0.5934 0.6140 0.5204
vn -0.7746 -0.6070 -0.1775
vn -0.2537 -0.6139 -0.7475
vn -0.0251 -0.9997 -0.0001
vn 0.4685 -0.8790 0.0886
vn 0.7704 0.6373 0.0208
vn 0.4501 0.8790 0.1574
vn 0.7766 -0.0074 -0.6299
vn 0.7635 -0.0085 -0.6458
vn 0.5099 0.8430 -0.1715
vn 0.1702 -0.0021 -0.9854
vn -0.1777 0.6131 -0.7697
vn 0.2940 0.0089 -0.9558
vn -0.7596 0.6070 -0.2335
vn -0.0217 0.9997 -0.0125
vn 0.6977 -0.6302 0.3408
vn -0.0056 -1.0000 -0.0077
vn -0.6731 -0.6303 0.3868
vn -0.6975 0.0774 0.7124
vn -0.6255 0.7310 0.2727
vn -0.4290 0.2830 0.8578
vn -0.3522 0.1523 0.9235
vn -0.4775 0.3732 0.7954
vn -0.0016 -1.0000 -0.0037
vn -0.2511 -0.0044 0.9679
vn -0.8561 -0.5162 -0.0270
vn -0.4054 -0.7310 -0.5489
vn -0.7550 0.5161 -0.4045
vn 0.3521 -0.5893 0.7271
vn -0.0145 -0.9999 -0.0002
vn 0.2259 -0.9719 0.0664
vn 0.7746 0.6302 0.0535
vn 0.5370 -0.0174 0.8434
vn 0.2290 0.9719 0.0554
vn -0.3896 0.6302 -0.6716
vn 0.8868 0.0174 -0.4619
vn 0.7655 -0.0145 -0.6432
vn 0.7455 -0.0648 -0.6634
vn 0.1570 -0.1523 -0.9758
vn 0.0576 -0.2830 -0.9574
vn 0.2668 0.0044 -0.9637
vn -0.0156 -0.3733 -0.9276
vn 0.6685 0.5893 -0.4536
vn -0.0033 1.0000 0.0024
vn -0.0087 1.0000 0.0039
vn -0.0127 0.9999 -0.0071
vn -0.2477 -0.0774 -0.9657
vn 0.3138 0.0648 0.9473
vn 0.3412 0.0145 0.9399
vn -0.5792 0.5799 0.5729
vn -0.5760 0.5742 -0.5818
vn -0.5792 -0.5799 -0.5729
vn 0.5760 -0.5742 -0.5818
vn 0.5792 0.5799 -0.5729
vn -0.5760 -0.5742 0.5818
vn 0.5792 -0.5799 0.5729
vn 0.5760 0.5742 0.5818
vn 0.5762 0.5731 0.5826
vn -0.5762 -0.5731 0.5826
vn 0.5794 -0.5803 0.5723
vn -0.5794 0.5803 0.5723
vn 0.5794 0.5803 -0.5723
vn -0.5794 -0.5803 -0.5723
vn -0.5762 0.5731 -0.5826
vn 0.5762 -0.5731 -0.5826
vn -0.9365 -0.3462 0.0550
vn -0.2033 0.0163 -0.9790
vn -0.6422 0.5580 -0.5255
vn 0.4721 -0.6157 -0.6309
vn -0.3452 0.3038 -0.8880
vn -0.4130 -0.2947 -0.8617
vn 0.0908 -0.0073 -0.9958
vn -0.5146 -0.3041 0.8017
vn 0.2324 0.5591 -0.7958
vn -0.3451 0.3038 -0.8880
vn -0.1793 0.4111 0.8938
vn 0.7864 -0.1056 -0.6087
vn 0.5460 0.5442 0.6370
vn 0.2305 -0.5426 -0.8077
vn -0.2486 0.5793 0.7763
vn -0.3261 0.7562 0.5673
vn -0.2709 0.6303 0.7276
vn 0.0788 -0.1905 0.9785
vn 0.2148 -0.3414 0.9150
vn -0.6516 0.7040 0.2825
vn 0.3502 0.5907 -0.7270
vn 0.7265 -0.0134 0.6870
vn -0.0186 -0.0510 0.9985
vn 0.5446 0.6083 0.5773
vn 0.9366 0.1595 0.3120
vn 0.2263 -0.5331 -0.8153
vn 0.3279 -0.7644 0.5551
vn -0.8835 0.4573 0.1018
vn -0.0185 -0.0510 0.9985
vn -0.1784 0.4184 0.8906
vn 0.6116 -0.5415 0.5768
vn 0.0605 -0.1567 -0.9858
vn 0.8826 -0.0706 0.4648
vn -0.5777 0.5355 -0.6160
vn 0.0243 -0.2441 0.9695
vn 0.8784 -0.0703 0.4728
vt 0.864899 0.139568
vt 0.864899 0.239323
vt 0.847729 0.239349
vt 0.847729 0.139594
vt 0.621719 0.265308
vt 0.621985 0.264920
vt 0.622295 0.265774
vt 0.680670 0.650445
vt 0.680134 0.649991
vt 0.680967 0.650341
vt 0.631129 0.263779
vt 0.630595 0.265549
vt 0.631078 0.264752
vt 0.700975 0.130971
vt 0.700439 0.130517
vt 0.701271 0.130867
vt 0.046213 0.922542
vt 0.047118 0.785366
vt 0.048073 0.922959
vt 0.836599 0.808863
vt 0.836522 0.936664
vt 0.835785 0.936662
vt 0.302648 0.827761
vt 0.303088 0.955560
vt 0.302465 0.955557
vt 0.682122 0.650284
vt 0.682331 0.649877
vt 0.801114 0.503250
vt 0.802768 0.503713
vt 0.799980 0.504625
vt 0.033210 0.786032
vt 0.031861 0.785918
vt 0.033330 0.785573
vt 0.162298 0.799488
vt 0.160064 0.798633
vt 0.162733 0.799179
vt 0.213302 0.841712
vt 0.213973 0.843751
vt 0.213302 0.844454
vt 0.678753 0.649709
vt 0.678629 0.649183
vt 0.636804 0.254678
vt 0.639711 0.254438
vt 0.639763 0.254896
vt 0.736557 0.524837
vt 0.508843 0.789957
vt 0.510196 0.917419
vt 0.507832 0.917519
vt 0.160967 0.798946
vt 0.160094 0.936920
vt 0.162458 0.937086
vt 0.702427 0.130810
vt 0.702636 0.130404
vt 0.640164 0.264593
vt 0.639709 0.265040
vt 0.639709 0.263779
vt 0.873200 0.183894
vt 0.873840 0.182141
vt 0.873840 0.184215
vt 0.699057 0.130235
vt 0.698934 0.129709
vt 0.623593 0.255059
vt 0.626113 0.254438
vt 0.626165 0.254896
vt 0.621785 0.252744
vt 0.621433 0.253370
vt 0.756861 0.005363
vt 0.493184 0.790177
vt 0.494430 0.917662
vt 0.492173 0.917739
vt 0.263450 0.741403
vt 0.262546 0.879377
vt 0.262547 0.741089
vt 0.524184 0.828381
vt 0.524624 0.956179
vt 0.523827 0.956178
vt 0.232719 0.823527
vt 0.232927 0.951325
vt 0.232006 0.951326
vt 0.321292 0.827761
vt 0.321732 0.955560
vt 0.321109 0.955557
vt 0.845921 0.808863
vt 0.846129 0.936662
vt 0.845334 0.936663
vt 0.311970 0.827761
vt 0.312410 0.955560
vt 0.311787 0.955557
vt 0.864566 0.808863
vt 0.864774 0.936662
vt 0.863979 0.936663
vt 0.552151 0.828381
vt 0.552591 0.956179
vt 0.551794 0.956178
vt 0.952285 0.804781
vt 0.952493 0.932580
vt 0.951572 0.932580
vt 0.330614 0.827761
vt 0.331054 0.955560
vt 0.330431 0.955557
vt 0.954114 0.538918
vt 0.954322 0.666717
vt 0.953526 0.666718
vt 0.386548 0.827761
vt 0.386988 0.955560
vt 0.386365 0.955557
vt 0.274913 0.828250
vt 0.275121 0.956049
vt 0.274326 0.956050
vt 0.919182 0.801401
vt 0.919594 0.939231
vt 0.918223 0.938971
vt 0.942686 0.804695
vt 0.943171 0.941981
vt 0.941580 0.942074
vt 0.931891 0.804633
vt 0.932461 0.941979
vt 0.930917 0.942196
vt 0.945391 0.272789
vt 0.945567 0.410456
vt 0.944050 0.410522
vt 0.939357 0.004419
vt 0.939768 0.142250
vt 0.938398 0.141990
vt 0.944515 0.538833
vt 0.944999 0.676119
vt 0.943409 0.676211
vt 0.905470 0.804636
vt 0.906040 0.941982
vt 0.904497 0.942199
vt 0.747575 0.808599
vt 0.747751 0.946266
vt 0.746234 0.946332
vt 0.897004 0.274112
vt 0.890087 0.529776
vt 0.890626 0.274112
vt 0.896615 0.529901
vt 0.515080 0.523632
vt 0.514848 0.781000
vt 0.508320 0.780997
vt 0.274269 0.004640
vt 0.535253 0.265643
vt 0.274424 0.265477
vt 0.004640 0.004318
vt 0.265474 0.004468
vt 0.265307 0.265636
vt 0.499206 0.523658
vt 0.492661 0.781219
vt 0.492659 0.523642
vt 0.883497 0.261271
vt 0.889532 0.004500
vt 0.889875 0.261272
vt 0.004473 0.265486
vt 0.883004 0.004374
vt 0.508703 0.523632
vt 0.499189 0.781211
vt 0.535255 0.004481
vt 0.274411 0.274490
vt 0.514991 0.514953
vt 0.274464 0.515008
vt 0.151326 0.540381
vt 0.151071 0.775954
vt 0.004417 0.775892
vt 0.690383 0.004152
vt 0.543562 0.241545
vt 0.543917 0.004150
vt 0.690114 0.241481
vt 0.514938 0.274435
vt 0.004858 0.540381
vt 0.523912 0.274491
vt 0.764444 0.274420
vt 0.764498 0.514945
vt 0.274456 0.760565
vt 0.274099 0.524021
vt 0.420647 0.524121
vt 0.670078 0.523624
vt 0.523608 0.761038
vt 0.523612 0.523836
vt 0.670072 0.760719
vt 0.420918 0.760651
vt 0.523967 0.515015
vt 0.159626 0.540381
vt 0.214283 0.665273
vt 0.159626 0.790333
vt 0.261702 0.275012
vt 0.261700 0.531503
vt 0.133369 0.531255
vt 0.004154 0.531576
vt 0.004156 0.275085
vt 0.133409 0.274506
vt 0.483873 0.774674
vt 0.429218 0.649038
vt 0.483873 0.523632
vt 0.694667 0.949665
vt 0.696127 0.951956
vt 0.694177 0.954279
vt 0.913413 0.004642
vt 0.916206 0.004321
vt 0.916106 0.261224
vt 0.944144 0.950831
vt 0.945364 0.953004
vt 0.943241 0.955437
vt 0.928348 0.258079
vt 0.925602 0.004686
vt 0.928004 0.004325
vt 0.941089 0.952189
vt 0.913218 0.261224
vt 0.931706 0.795778
vt 0.930370 0.538691
vt 0.932297 0.538647
vt 0.925149 0.258000
vt 0.691927 0.950894
vt 0.918874 0.272755
vt 0.921643 0.273141
vt 0.920429 0.526656
vt 0.934289 0.795492
vt 0.934160 0.538569
vt 0.904552 0.951141
vt 0.906012 0.953432
vt 0.904061 0.955754
vt 0.901811 0.952371
vt 0.935094 0.529627
vt 0.932511 0.529913
vt 0.933101 0.272782
vt 0.918069 0.538620
vt 0.920838 0.539006
vt 0.919624 0.792521
vt 0.934965 0.272704
vt 0.906766 0.273054
vt 0.909459 0.529637
vt 0.906571 0.529637
vt 0.909559 0.272734
vt 0.879440 0.928784
vt 0.876241 0.928705
vt 0.876694 0.675391
vt 0.879096 0.675030
vt 0.060770 0.952538
vt 0.061990 0.954711
vt 0.059867 0.957144
vt 0.057715 0.953896
vt 0.931175 0.272826
vt 0.877549 0.409481
vt 0.881077 0.666064
vt 0.877289 0.666064
vt 0.596795 0.250501
vt 0.598690 0.253533
vt 0.596031 0.256613
vt 0.881176 0.409160
vt 0.592644 0.254495
vt 0.593347 0.251271
vt 0.903440 0.258199
vt 0.900972 0.257876
vt 0.902329 0.004345
vt 0.611452 0.250179
vt 0.613111 0.253080
vt 0.610277 0.256294
vt 0.607023 0.254709
vt 0.607672 0.250957
vt 0.909025 0.795493
vt 0.906456 0.538647
vt 0.908896 0.538570
vt 0.905550 0.795779
vt 0.903949 0.538694
vt 0.891431 0.538639
vt 0.893641 0.792558
vt 0.890156 0.792517
vt 0.899046 0.004725
vt 0.898547 0.258039
vt 0.895052 0.539049
vt 0.034637 0.923539
vt 0.031802 0.923648
vt 0.773110 0.504874
vt 0.777655 0.505712
vt 0.776270 0.508419
vt 0.735108 0.776385
vt 0.733538 0.776937
vt 0.679560 0.651316
vt 0.681640 0.914384
vt 0.680121 0.785912
vt 0.682763 0.785652
vt 0.695627 0.914042
vt 0.692736 0.913924
vt 0.693433 0.785367
vt 0.775330 0.503221
vt 0.773772 0.507873
vt 0.803601 0.506566
vt 0.799479 0.507242
vt 0.679014 0.914320
vt 0.034000 0.784602
vt 0.035405 0.786098
vt 0.680635 0.650673
vt 0.737050 0.775385
vt 0.800825 0.508729
vt 0.635718 0.250119
vt 0.638482 0.250498
vt 0.756287 0.808883
vt 0.758371 0.808372
vt 0.758371 0.946349
vt 0.160923 0.937285
vt 0.640310 0.252506
vt 0.511760 0.789753
vt 0.640329 0.254278
vt 0.733939 0.523836
vt 0.679186 0.953638
vt 0.678825 0.949885
vt 0.682322 0.949968
vt 0.682951 0.952859
vt 0.681152 0.954427
vt 0.719437 0.913604
vt 0.717735 0.785584
vt 0.720899 0.785684
vt 0.757156 0.946258
vt 0.682122 0.650724
vt 0.700939 0.131199
vt 0.786295 0.504874
vt 0.789455 0.508419
vt 0.786957 0.507873
vt 0.757354 0.255912
vt 0.755413 0.256911
vt 0.915552 0.950822
vt 0.918393 0.947869
vt 0.919729 0.950665
vt 0.753843 0.257464
vt 0.699864 0.131842
vt 0.147040 0.913749
vt 0.145155 0.785219
vt 0.148163 0.785016
vt 0.916405 0.947612
vt 0.790839 0.505712
vt 0.144415 0.913684
vt 0.788800 0.503226
vt 0.048799 0.785498
vt 0.044985 0.785475
vt 0.044806 0.922991
vt 0.918184 0.952688
vt 0.265065 0.741907
vt 0.264910 0.879543
vt 0.622120 0.250119
vt 0.624792 0.250469
vt 0.766672 0.808883
vt 0.768756 0.808372
vt 0.768756 0.946349
vt 0.263375 0.879741
vt 0.708639 0.914042
vt 0.705748 0.913925
vt 0.706240 0.785357
vt 0.767541 0.946258
vt 0.626731 0.254278
vt 0.626712 0.252506
vt 0.734498 0.913540
vt 0.731958 0.913620
vt 0.733911 0.785684
vt 0.754243 0.004362
vt 0.702426 0.131251
vt 0.732484 0.952861
vt 0.732124 0.949107
vt 0.735620 0.949190
vt 0.736250 0.952081
vt 0.496101 0.789973
vt 0.734450 0.953649
vt 0.730747 0.785584
vt 0.685786 0.250522
vt 0.689817 0.250477
vt 0.689823 0.256255
vt 0.415287 0.769444
vt 0.419406 0.769235
vt 0.419385 0.916615
vt 0.443638 0.783189
vt 0.449204 0.930689
vt 0.443632 0.930735
vt 0.449251 0.783305
vt 0.685791 0.256299
vt 0.415287 0.916450
vt 0.648651 0.250525
vt 0.652688 0.256258
vt 0.648656 0.256303
vt 0.650508 0.769828
vt 0.656126 0.769944
vt 0.656078 0.917327
vt 0.470641 0.783462
vt 0.474751 0.783261
vt 0.474729 0.930647
vt 0.650502 0.917374
vt 0.470641 0.930475
vt 0.652683 0.250480
vt 0.457917 0.783462
vt 0.462005 0.930647
vt 0.457917 0.930475
vt 0.462026 0.783261
vt 0.429289 0.783189
vt 0.434902 0.783305
vt 0.434854 0.930688
vt 0.673407 0.250522
vt 0.677444 0.256255
vt 0.673412 0.256300
vt 0.401005 0.769166
vt 0.406575 0.916666
vt 0.400999 0.916712
vt 0.406623 0.769282
vt 0.677438 0.250477
vt 0.664790 0.770105
vt 0.668888 0.917276
vt 0.664790 0.917112
vt 0.661029 0.250525
vt 0.665067 0.256258
vt 0.661035 0.256303
vt 0.665062 0.250480
vt 0.668909 0.769897
vt 0.429283 0.930735
vt 0.859326 0.523625
vt 0.745901 0.657614
vt 0.745748 0.523624
vt 0.859742 0.657628
vt 0.200205 0.798802
vt 0.204661 0.798961
vt 0.204635 0.912805
vt 0.018104 0.920733
vt 0.018077 0.784618
vt 0.022815 0.784621
vt 0.889748 0.801657
vt 0.894226 0.915335
vt 0.889748 0.915145
vt 0.894253 0.801490
vt 0.022764 0.920725
vt 0.004491 0.921225
vt 0.009125 0.784938
vt 0.009150 0.921216
vt 0.859805 0.666286
vt 0.745897 0.799700
vt 0.746224 0.666284
vt 0.004465 0.784947
vt 0.200155 0.912615
vt 0.859743 0.799714
vt 0.873513 0.004152
vt 0.766205 0.130899
vt 0.766068 0.004150
vt 0.881194 0.274114
vt 0.773429 0.400318
vt 0.773745 0.274112
vt 0.873915 0.130912
vt 0.881143 0.400331
vt 0.222786 0.640927
vt 0.261944 0.732603
vt 0.222827 0.732637
vt 0.261904 0.640893
vt 0.812711 0.808575
vt 0.818047 0.808619
vt 0.817997 0.900165
vt 0.200270 0.961892
vt 0.205594 0.921801
vt 0.205642 0.961831
vt 0.171404 0.951674
vt 0.171355 0.911644
vt 0.176728 0.911582
vt 0.798758 0.808575
vt 0.804049 0.900165
vt 0.798714 0.900121
vt 0.222785 0.540646
vt 0.262114 0.632175
vt 0.222826 0.632352
vt 0.262074 0.540470
vt 0.804098 0.808619
vt 0.200221 0.921862
vt 0.812667 0.900121
vt 0.176777 0.951613
vt 0.773324 0.409216
vt 0.806592 0.494673
vt 0.773319 0.494622
vt 0.806598 0.409266
vt 0.766090 0.139857
vt 0.799504 0.225190
vt 0.766085 0.225260
vt 0.799509 0.139787
vt 0.947855 0.150962
vt 0.949079 0.150959
vt 0.949050 0.236157
vt 0.947872 0.236242
vt 0.943427 0.419377
vt 0.944622 0.504573
vt 0.943445 0.504658
vt 0.944651 0.419376
vt 0.869806 0.247955
vt 0.872124 0.248140
vt 0.871981 0.263703
vt 0.847970 0.247956
vt 0.850147 0.263703
vt 0.847796 0.263520
vt 0.850291 0.248140
vt 0.869632 0.263520
vt 0.858887 0.247955
vt 0.861065 0.263703
vt 0.858714 0.263520
vt 0.861209 0.248140
vt 0.943636 0.513505
vt 0.945954 0.513690
vt 0.945811 0.529253
vt 0.943462 0.529070
vt 0.861955 0.409371
vt 0.842803 0.510741
vt 0.842834 0.409362
vt 0.171341 0.902333
vt 0.171316 0.799195
vt 0.177370 0.799189
vt 0.861924 0.510753
vt 0.717670 0.948709
vt 0.722984 0.967947
vt 0.717729 0.967990
vt 0.185774 0.902325
vt 0.191802 0.799182
vt 0.191827 0.902319
vt 0.777314 0.946465
vt 0.782924 0.946503
vt 0.782892 0.965638
vt 0.185749 0.799188
vt 0.815107 0.511205
vt 0.815138 0.409381
vt 0.834258 0.409462
vt 0.777345 0.965745
vt 0.177395 0.902327
vt 0.834227 0.511282
vt 0.723284 0.948740
vt 0.957923 0.210237
vt 0.961226 0.260931
vt 0.957873 0.261011
vt 0.458019 0.939702
vt 0.461304 0.939654
vt 0.461331 0.973594
vt 0.392507 0.769033
vt 0.358786 0.819373
vt 0.358797 0.769036
vt 0.392496 0.819368
vt 0.961275 0.210157
vt 0.875969 0.937825
vt 0.879296 0.971705
vt 0.876015 0.971764
vt 0.879267 0.937767
vt 0.798751 0.908868
vt 0.802054 0.959564
vt 0.798701 0.959644
vt 0.557453 0.769695
vt 0.523731 0.819993
vt 0.523742 0.769697
vt 0.557441 0.819988
vt 0.802104 0.908788
vt 0.458065 0.973641
vt 0.974112 0.419385
vt 0.975722 0.471929
vt 0.974121 0.471877
vt 0.144113 0.922533
vt 0.145887 0.922508
vt 0.145896 0.975001
vt 0.144122 0.975026
vt 0.975726 0.419359
vt 0.470743 0.939702
vt 0.474055 0.973594
vt 0.470790 0.973641
vt 0.261980 0.888351
vt 0.265334 0.888271
vt 0.265284 0.939048
vt 0.474028 0.939654
vt 0.307950 0.769034
vt 0.274228 0.819373
vt 0.274240 0.769036
vt 0.960893 0.939372
vt 0.964220 0.973252
vt 0.960939 0.973311
vt 0.964191 0.939313
vt 0.307938 0.819368
vt 0.957923 0.150834
vt 0.961275 0.150754
vt 0.961226 0.201528
vt 0.261931 0.939128
vt 0.957873 0.201608
vt 0.599732 0.769695
vt 0.566010 0.819993
vt 0.566021 0.769697
vt 0.599720 0.819988
vt 0.707484 0.922935
vt 0.709094 0.975479
vt 0.707493 0.975428
vt 0.963356 0.419387
vt 0.965130 0.419361
vt 0.965139 0.471854
vt 0.709098 0.922908
vt 0.963365 0.471880
vt 0.429320 0.939708
vt 0.432632 0.973600
vt 0.429366 0.973647
vt 0.432605 0.939660
vt 0.642011 0.769695
vt 0.641999 0.819988
vt 0.608289 0.819993
vt 0.185910 0.911385
vt 0.189213 0.962079
vt 0.185860 0.962160
vt 0.814672 0.908868
vt 0.818025 0.908788
vt 0.817975 0.959564
vt 0.350228 0.769033
vt 0.316507 0.819373
vt 0.316518 0.769036
vt 0.189262 0.911305
vt 0.963122 0.480927
vt 0.966420 0.480868
vt 0.966449 0.514806
vt 0.608300 0.769697
vt 0.350217 0.819368
vt 0.963168 0.514866
vt 0.814622 0.959644
vt 0.973721 0.685250
vt 0.975335 0.685223
vt 0.975331 0.737794
vt 0.973730 0.737741
vt 0.962965 0.685251
vt 0.964739 0.685226
vt 0.964748 0.737719
vt 0.962974 0.737744
vt 0.723902 0.922372
vt 0.730746 0.923317
vt 0.735104 0.930569
vt 0.068154 0.861983
vt 0.059634 0.862055
vt 0.061788 0.784862
vt 0.057428 0.784777
vt 0.068727 0.785038
vt 0.730923 0.938671
vt 0.721769 0.938825
vt 0.717414 0.933141
vt 0.718228 0.927019
vt 0.109998 0.861812
vt 0.102485 0.862088
vt 0.105209 0.784799
vt 0.113943 0.861785
vt 0.112357 0.784818
vt 0.092390 0.862114
vt 0.088382 0.862031
vt 0.090273 0.784834
vt 0.081865 0.784837
vt 0.081271 0.861880
vt 0.100714 0.785104
vt 0.689807 0.923146
vt 0.695262 0.927386
vt 0.695353 0.935747
vt 0.687739 0.940774
vt 0.135479 0.861296
vt 0.129351 0.784630
vt 0.135479 0.784602
vt 0.679735 0.936331
vt 0.678804 0.929225
vt 0.682430 0.924441
vt 0.128843 0.861324
vt 0.122243 0.784614
vt 0.122243 0.861308
vt 0.776707 0.234105
vt 0.795388 0.244620
vt 0.795461 0.252625
vt 0.446314 0.939283
vt 0.446546 0.946157
vt 0.441457 0.942565
vt 0.441256 0.954021
vt 0.791263 0.237708
vt 0.446614 0.954129
vt 0.788452 0.261355
vt 0.265472 0.958556
vt 0.265435 0.969423
vt 0.260693 0.969419
vt 0.773252 0.261643
vt 0.265435 0.947556
vt 0.260729 0.957640
vt 0.784836 0.233921
vt 0.765883 0.252385
vt 0.767328 0.241996
vt 0.845769 0.951987
vt 0.846001 0.964403
vt 0.840685 0.959917
vt 0.845746 0.945468
vt 0.840729 0.948061
vt 0.260693 0.947552
vt 0.832022 0.945477
vt 0.831952 0.952132
vt 0.826593 0.952034
vt 0.826685 0.960010
vt 0.831794 0.963887
vt 0.840954 0.967309
vt 0.822886 0.234101
vt 0.830020 0.238009
vt 0.833690 0.244496
vt 0.826815 0.945727
vt 0.833709 0.252377
vt 0.829868 0.259517
vt 0.819433 0.263574
vt 0.806126 0.256223
vt 0.804372 0.244516
vt 0.826730 0.967207
vt 0.446387 0.960964
vt 0.441180 0.961253
vt 0.810677 0.236353
vt 0.810404 0.222626
vt 0.809864 0.224580
vt 0.808203 0.224219
vt 0.808413 0.221987
vt 0.832652 0.222622
vt 0.832110 0.224579
vt 0.830587 0.223897
vt 0.830662 0.221981
vt 0.821528 0.222626
vt 0.820987 0.224580
vt 0.819327 0.224219
vt 0.819536 0.221987
vt 0.932141 0.951881
vt 0.931599 0.953838
vt 0.930076 0.953156
vt 0.930151 0.951239
vt 0.079266 0.870799
vt 0.083788 0.870843
vt 0.083737 0.943985
vt 0.808106 0.139759
vt 0.839252 0.213016
vt 0.808148 0.213064
vt 0.839211 0.139711
vt 0.962747 0.778667
vt 0.967243 0.746754
vt 0.967291 0.778603
vt 0.079221 0.943941
vt 0.031473 0.964491
vt 0.035969 0.932578
vt 0.036018 0.964429
vt 0.031424 0.932641
vt 0.222785 0.741342
vt 0.254067 0.814483
vt 0.222828 0.814644
vt 0.254026 0.741181
vt 0.057587 0.870792
vt 0.062113 0.870836
vt 0.062062 0.943978
vt 0.962698 0.746816
vt 0.057542 0.943934
vt 0.401208 0.925675
vt 0.414741 0.945290
vt 0.401218 0.945371
vt 0.414742 0.925595
vt 0.854608 0.945805
vt 0.860994 0.945871
vt 0.861002 0.965319
vt 0.558428 0.263605
vt 0.558485 0.250119
vt 0.564854 0.250123
vt 0.543591 0.264195
vt 0.550060 0.250360
vt 0.550069 0.264249
vt 0.156539 0.945691
vt 0.162989 0.964967
vt 0.156539 0.964957
vt 0.162989 0.945701
vt 0.650706 0.926311
vt 0.664185 0.945974
vt 0.650720 0.946007
vt 0.543582 0.250306
vt 0.854547 0.965313
vt 0.564906 0.263665
vt 0.664181 0.926277
vt 0.621640 0.265051
vt 0.621433 0.264117
vt 0.622295 0.263779
vt 0.680294 0.651152
vt 0.631409 0.264856
vt 0.630725 0.264646
vt 0.630595 0.263995
vt 0.700599 0.131679
vt 0.046219 0.784602
vt 0.223605 0.951325
vt 0.222810 0.951326
vt 0.223397 0.823527
vt 0.803947 0.503196
vt 0.036083 0.786199
vt 0.159626 0.799458
vt 0.213815 0.841683
vt 0.682079 0.954265
vt 0.918789 0.952766
vt 0.640154 0.265169
vt 0.044384 0.785589
vt 0.873326 0.182131
vt 0.735377 0.953487
vt 0.827200 0.936664
vt 0.826463 0.936662
vt 0.826909 0.808865
vt 0.533838 0.956178
vt 0.532924 0.956180
vt 0.533148 0.828382
vt 0.241965 0.951327
vt 0.241228 0.951325
vt 0.241673 0.823528
vt 0.340269 0.955559
vt 0.339355 0.955560
vt 0.339579 0.827763
vt 0.855040 0.936664
vt 0.854430 0.936662
vt 0.854876 0.808865
vt 0.377378 0.955558
vt 0.376643 0.955560
vt 0.376867 0.827763
vt 0.293350 0.955557
vt 0.292743 0.955560
vt 0.293325 0.827761
vt 0.251287 0.951327
vt 0.250550 0.951325
vt 0.250774 0.823526
vt 0.543160 0.956178
vt 0.542246 0.956180
vt 0.542907 0.828382
vt 0.948954 0.132441
vt 0.948217 0.132440
vt 0.949031 0.004641
vt 0.358913 0.955559
vt 0.357999 0.955560
vt 0.358581 0.827761
vt 0.954840 0.400854
vt 0.954103 0.400852
vt 0.954468 0.273053
vt 0.349591 0.955559
vt 0.348677 0.955560
vt 0.349491 0.827762
vt 0.284158 0.956051
vt 0.283421 0.956049
vt 0.283786 0.828250
vt 0.368235 0.955559
vt 0.367321 0.955560
vt 0.368135 0.827762
vt 0.943869 0.272854
vt 0.917526 0.801622
vt 0.941285 0.804554
vt 0.930349 0.804371
vt 0.746053 0.808664
vt 0.937701 0.004641
vt 0.943113 0.538691
vt 0.903928 0.804374
vt 0.635114 0.250859
vt 0.046333 0.784916
vt 0.621516 0.250859
s 1
usemtl factory_001_baked
f 1/1/1 2/2/1 3/3/1
f 1/1/1 3/3/1 4/4/1
f 66/5/2 67/6/2 62/7/2
f 81/8/3 78/9/3 79/10/3
f 96/11/4 97/12/4 98/13/4
f 110/14/3 107/15/3 108/16/3
f 93/17/5 99/18/6 92/19/7
f 163/20/8 162/21/9 161/22/10
f 181/23/11 180/24/12 179/25/13
f 59/26/14 81/8/15 68/27/16
f 58/28/17 67/29/17 57/30/17
f 66/31/18 68/32/16 67/33/19
f 84/34/20 64/35/20 75/36/20
f 83/37/21 63/38/21 62/39/21
f 78/9/22 70/40/23 69/41/24
f 75/42/25 80/43/26 79/44/27
f 76/45/28 79/10/29 78/9/30
f 72/46/31 69/47/32 83/48/33
f 63/49/34 74/50/34 64/35/34
f 71/51/35 84/34/36 75/36/37
f 88/52/38 110/14/39 87/53/40
f 97/54/41 87/55/40 98/56/42
f 94/57/43 104/58/44 95/59/45
f 107/15/46 105/60/47 104/61/48
f 114/62/49 109/63/49 108/64/49
f 97/65/50 114/62/51 103/66/52
f 115/67/53 108/16/54 107/15/30
f 116/68/55 104/69/56 102/70/57
f 95/71/34 112/72/34 96/73/34
f 147/74/58 148/75/58 146/76/58
f 147/77/58 146/78/58 148/79/58
f 150/80/58 151/81/58 149/82/58
f 150/83/58 149/84/58 151/85/58
f 169/86/58 168/87/58 167/88/58
f 169/89/58 167/90/58 168/91/58
f 170/92/58 171/93/58 172/94/58
f 170/95/58 172/96/58 171/97/58
f 178/98/58 177/99/58 176/100/58
f 178/101/58 176/102/58 177/103/58
f 187/104/58 186/105/58 185/106/58
f 187/107/58 185/108/58 186/109/58
f 295/110/59 293/111/60 294/112/61
f 292/113/62 294/114/61 297/115/63
f 296/116/64 297/117/63 291/118/65
f 298/119/66 291/120/65 293/121/60
f 304/122/59 300/123/60 301/124/61
f 305/125/62 301/126/61 306/127/63
f 302/128/64 306/129/63 299/130/67
f 303/131/68 299/132/67 300/133/60
f 5/134/69 6/135/70 9/136/71
f 5/134/69 12/137/72 6/135/70
f 10/138/73 5/139/69 9/140/71
f 10/141/73 12/142/72 5/143/69
f 9/144/71 6/145/70 8/146/74
f 12/147/72 8/148/74 6/149/70
f 11/150/75 7/151/76 8/152/74
f 9/144/71 8/146/74 7/153/76
f 11/150/75 10/154/73 7/151/76
f 10/138/73 9/140/71 7/155/76
f 12/147/72 11/156/75 8/148/74
f 10/141/73 11/157/75 12/142/72
f 15/158/77 13/159/78 19/160/79
f 19/161/79 13/162/78 14/163/80
f 13/164/78 18/165/81 14/166/80
f 13/164/78 17/167/82 18/165/81
f 15/158/77 17/168/82 13/159/78
f 19/161/79 14/163/80 20/169/83
f 20/170/83 14/171/80 18/172/81
f 17/173/82 15/174/77 16/175/84
f 15/176/77 20/177/83 16/178/84
f 15/176/77 19/179/79 20/177/83
f 17/173/82 16/175/84 18/180/81
f 20/170/83 18/172/81 16/181/84
f 24/182/85 25/183/86 21/184/87
f 26/185/88 21/186/89 25/187/86
f 24/188/85 23/189/90 22/190/91
f 24/188/85 22/190/91 25/187/86
f 26/191/88 22/192/91 23/193/92
f 25/187/86 22/190/91 26/185/88
f 33/194/93 27/195/94 32/196/95
f 32/197/95 27/198/94 30/199/96
f 34/200/97 28/201/98 29/202/99
f 31/203/100 29/204/99 28/205/98
f 34/200/97 29/202/99 30/206/96
f 32/197/95 30/199/96 29/207/99
f 31/208/100 28/209/98 34/210/97
f 31/203/100 32/211/95 29/204/99
f 33/194/93 32/196/95 31/212/100
f 27/213/94 33/214/93 30/215/96
f 33/216/93 34/210/97 30/217/96
f 33/216/93 31/208/100 34/210/97
f 35/218/93 42/219/94 36/220/95
f 35/218/93 36/220/95 37/221/100
f 35/222/93 37/223/100 39/224/97
f 42/225/94 35/226/93 40/227/96
f 35/222/93 39/224/97 40/228/96
f 36/229/95 40/230/96 41/231/99
f 36/229/95 42/232/94 40/230/96
f 37/233/100 36/234/95 41/235/99
f 37/233/100 41/235/99 38/236/98
f 39/237/97 38/238/98 41/239/99
f 39/237/97 41/239/99 40/240/96
f 37/223/100 38/241/98 39/224/97
f 43/242/101 46/243/102 50/244/103
f 52/245/104 51/246/105 43/247/101
f 43/242/101 51/248/105 46/243/102
f 52/245/104 49/249/106 44/250/107
f 44/251/107 49/252/106 48/253/108
f 45/254/109 48/255/108 50/256/103
f 45/254/109 50/256/103 46/257/102
f 45/254/109 46/257/102 47/258/110
f 52/259/104 45/260/109 47/261/110
f 44/262/107 48/263/108 45/260/109
f 52/259/104 44/262/107 45/260/109
f 51/264/105 47/265/110 46/266/102
f 49/252/106 50/267/103 48/253/108
f 52/245/104 43/247/101 49/249/106
f 49/252/106 43/268/101 50/267/103
f 51/264/105 52/269/104 47/265/110
f 53/270/111 55/271/112 68/32/113
f 53/270/111 68/32/113 66/31/114
f 55/272/112 54/273/115 61/274/116
f 61/275/116 54/276/115 60/277/117
f 54/278/115 57/279/118 60/280/117
f 55/281/112 56/282/119 68/283/113
f 55/272/112 53/284/111 54/273/115
f 55/272/112 61/274/116 56/285/119
f 68/286/16 60/287/117 57/30/118
f 68/286/16 57/30/118 67/29/19
f 54/278/115 53/288/111 57/279/118
f 65/289/120 67/33/120 58/290/120
f 80/291/121 81/8/121 59/26/121
f 56/292/119 61/275/116 80/291/122
f 68/286/16 81/293/15 60/287/117
f 64/35/123 84/34/36 71/51/35
f 64/294/124 69/295/24 75/42/25
f 83/296/125 63/297/126 74/298/127
f 64/35/123 71/51/35 73/299/128
f 75/42/25 69/295/24 70/300/23
f 69/47/32 72/46/31 82/301/129
f 78/302/130 79/44/130 80/43/130
f 78/9/131 69/41/32 82/303/129
f 71/304/35 76/305/28 82/306/129
f 71/304/35 82/306/129 72/307/31
f 71/304/35 72/307/31 73/308/128
f 75/309/37 76/310/28 71/311/35
f 83/296/125 74/298/127 72/312/132
f 75/313/37 79/10/29 76/45/28
f 78/9/131 82/303/129 76/45/28
f 109/314/121 110/14/121 88/52/121
f 100/315/133 89/316/134 85/317/135
f 85/318/135 89/319/134 109/314/136
f 87/320/40 86/321/137 91/322/138
f 89/319/134 90/323/139 86/324/137
f 90/325/139 91/326/138 86/327/137
f 87/320/40 110/328/39 86/321/137
f 100/315/133 90/329/139 89/316/134
f 90/325/139 92/330/7 91/326/138
f 100/315/133 92/331/7 90/329/139
f 92/19/7 99/18/6 91/332/138
f 101/333/140 99/18/140 93/17/140
f 93/17/141 100/334/133 101/333/142
f 87/320/40 91/322/138 98/335/42
f 96/73/143 103/336/144 117/337/145
f 96/338/146 104/339/48 97/65/50
f 102/340/125 95/341/126 112/342/127
f 96/73/143 117/337/145 113/343/128
f 100/344/133 85/345/135 87/346/147
f 102/340/125 112/342/127 116/347/132
f 107/348/130 108/64/130 109/63/130
f 97/65/50 104/339/48 105/349/47
f 97/65/50 109/63/148 114/62/51
f 103/350/144 114/351/149 117/352/145
f 107/15/150 104/61/56 111/353/151
f 114/354/149 108/16/54 115/67/53
f 107/15/150 111/353/151 115/67/53
f 117/355/145 115/356/53 111/357/151
f 117/355/145 111/357/151 116/358/55
f 104/69/56 116/68/55 111/359/151
f 117/355/145 116/358/55 113/360/128
f 114/351/149 115/361/53 117/352/145
f 118/362/152 120/363/153 121/364/154
f 120/365/153 118/366/152 119/367/155
f 118/368/152 123/369/156 119/370/155
f 118/368/152 122/371/157 123/369/156
f 118/362/152 121/364/154 122/372/157
f 120/365/153 119/367/155 125/373/158
f 123/374/156 125/375/158 119/376/155
f 121/377/154 120/378/153 125/379/158
f 122/380/157 121/381/154 124/382/159
f 121/377/154 125/379/158 124/383/159
f 122/380/157 124/382/159 123/384/156
f 123/374/156 124/385/159 125/375/158
f 126/386/157 129/387/159 132/388/156
f 126/386/157 127/389/154 129/387/159
f 131/390/152 126/391/157 132/392/156
f 131/393/152 127/394/154 126/395/157
f 127/396/154 128/397/158 129/398/159
f 127/396/154 130/399/153 128/397/158
f 131/393/152 130/400/153 127/394/154
f 130/401/153 133/402/155 128/403/158
f 132/404/156 128/405/158 133/406/155
f 132/404/156 129/407/159 128/405/158
f 130/401/153 131/408/152 133/402/155
f 131/390/152 132/392/156 133/409/155
f 134/410/160 141/411/161 138/412/162
f 134/410/160 135/413/163 141/411/161
f 137/414/164 134/415/160 138/416/162
f 135/417/163 134/418/160 137/419/164
f 135/420/163 136/421/165 141/422/161
f 135/420/163 140/423/166 136/421/165
f 135/417/163 137/419/164 140/424/166
f 136/425/165 138/426/162 141/427/161
f 140/428/166 139/429/167 136/430/165
f 136/425/165 139/431/167 138/426/162
f 137/414/164 138/416/162 139/432/167
f 140/428/166 137/433/164 139/429/167
f 145/434/168 143/435/169 142/436/170
f 144/437/171 142/438/170 143/439/169
f 145/434/168 144/440/171 143/435/169
f 144/437/171 145/441/168 142/438/170
f 191/442/172 192/443/173 198/444/174
f 191/442/172 196/445/175 192/443/173
f 194/446/176 191/447/172 198/448/174
f 194/449/176 196/450/175 191/451/172
f 198/452/174 192/453/173 197/454/177
f 196/455/175 197/456/177 192/457/173
f 193/458/178 195/459/179 197/460/177
f 193/458/178 194/461/176 195/459/179
f 196/455/175 193/462/178 197/456/177
f 194/449/176 193/463/178 196/450/175
f 194/446/176 198/448/174 195/464/179
f 198/452/174 197/454/177 195/465/179
f 199/466/180 202/467/181 201/468/182
f 199/466/180 200/469/183 202/467/181
f 200/470/183 201/471/182 202/472/181
f 200/470/183 199/473/180 201/471/182
f 206/474/184 204/475/185 203/476/186
f 206/474/184 203/476/186 205/477/187
f 204/478/185 205/479/187 203/480/186
f 204/478/185 206/481/184 205/479/187
f 210/482/188 207/483/189 209/484/190
f 207/485/189 208/486/191 209/487/190
f 207/485/189 210/488/188 208/486/191
f 210/482/188 209/484/190 208/489/191
f 211/490/192 213/491/193 214/492/190
f 211/490/192 212/493/188 213/491/193
f 212/494/188 211/495/192 214/496/190
f 212/494/188 214/496/190 213/497/193
f 217/498/194 215/499/195 218/500/196
f 218/501/197 215/502/198 221/503/199
f 217/498/194 222/504/200 215/499/195
f 222/505/201 221/506/199 215/507/198
f 216/508/202 222/509/201 217/510/203
f 216/511/202 217/512/203 218/513/197
f 216/508/202 220/514/204 222/509/201
f 220/515/205 216/516/206 219/517/207
f 216/511/202 218/513/197 219/518/208
f 218/501/197 221/503/199 219/519/208
f 220/515/205 219/517/207 221/520/209
f 222/505/201 220/521/204 221/506/199
f 226/522/210 223/523/211 228/524/212
f 228/525/212 223/526/211 230/527/213
f 223/528/211 227/529/214 230/530/213
f 223/528/211 224/531/215 227/529/214
f 226/522/210 224/532/215 223/523/211
f 224/533/215 225/534/216 227/535/214
f 224/533/215 226/536/210 225/534/216
f 229/537/217 227/538/214 225/539/216
f 226/540/210 229/541/217 225/542/216
f 226/540/210 228/543/212 229/541/217
f 229/537/217 230/544/213 227/538/214
f 228/525/212 230/527/213 229/545/217
f 233/546/218 234/547/219 231/548/220
f 231/549/220 234/550/219 232/551/221
f 231/549/220 232/551/221 233/552/218
f 233/546/218 232/553/221 234/547/219
f 240/554/212 235/555/213 241/556/217
f 241/557/217 235/558/213 237/559/214
f 240/554/212 239/560/211 235/555/213
f 239/561/211 237/562/214 235/563/213
f 236/564/215 242/565/216 237/566/214
f 236/564/215 238/567/210 242/565/216
f 239/561/211 236/568/215 237/562/214
f 238/569/210 236/570/215 239/571/211
f 241/557/217 237/559/214 242/572/216
f 238/569/210 239/571/211 240/573/212
f 238/574/210 241/575/217 242/576/216
f 238/574/210 240/577/212 241/575/217
f 246/578/222 244/579/223 243/580/224
f 243/581/224 244/582/223 245/583/225
f 246/578/222 245/584/225 244/579/223
f 243/581/224 245/583/225 246/585/222
f 247/586/212 248/587/213 251/588/217
f 247/586/212 254/589/211 248/587/213
f 249/590/210 247/591/212 251/592/217
f 249/593/210 254/594/211 247/595/212
f 251/596/217 248/597/213 250/598/214
f 254/599/211 250/600/214 248/601/213
f 249/593/210 253/602/215 254/594/211
f 253/603/215 249/604/210 252/605/216
f 249/590/210 251/592/217 252/606/216
f 254/599/211 253/607/215 250/600/214
f 253/603/215 252/605/216 250/608/214
f 251/596/217 250/598/214 252/609/216
f 257/610/218 258/611/221 255/612/226
f 257/610/218 255/612/226 256/613/227
f 256/614/227 255/615/226 258/616/221
f 256/614/227 258/616/221 257/617/218
f 261/618/228 259/619/229 260/620/230
f 260/621/230 259/622/231 272/623/232
f 259/622/229 271/624/233 272/623/234
f 260/621/230 272/623/232 270/625/235
f 261/618/228 260/620/230 269/626/236
f 261/618/228 269/626/236 268/627/237
f 261/618/228 268/627/237 262/628/238
f 261/618/228 262/628/238 263/629/239
f 261/630/228 263/631/239 266/632/240
f 259/633/229 261/630/228 271/634/233
f 261/630/228 266/632/240 271/634/241
f 263/635/242 262/636/243 264/637/244
f 262/636/245 265/638/246 264/637/247
f 262/636/245 268/639/237 265/638/246
f 263/631/242 264/640/244 266/632/240
f 266/641/240 264/642/244 265/643/246
f 266/641/240 265/643/246 267/644/248
f 268/645/237 267/646/248 265/647/246
f 266/641/240 267/644/248 270/648/235
f 266/641/240 270/648/235 272/649/249
f 266/641/240 272/649/249 271/650/241
f 269/651/236 270/652/235 267/646/248
f 268/645/237 269/651/236 267/646/248
f 269/651/236 260/653/230 270/652/235
f 276/654/250 273/655/251 274/656/252
f 274/657/252 273/658/253 283/659/254
f 273/658/255 288/660/256 283/659/257
f 276/654/250 287/661/258 273/655/251
f 273/658/255 287/662/259 288/660/256
f 276/654/250 274/656/252 275/663/260
f 275/664/260 274/665/252 283/666/254
f 276/654/250 275/663/260 277/667/261
f 277/668/261 275/664/260 282/669/262
f 276/654/250 289/670/263 287/661/258
f 276/654/250 277/667/261 278/671/264
f 276/654/250 278/671/264 279/672/265
f 276/673/250 279/674/265 290/675/266
f 289/676/263 276/673/250 286/677/267
f 276/673/250 290/675/266 286/677/268
f 277/668/261 282/669/262 285/678/269
f 279/679/270 278/680/271 281/681/272
f 278/680/273 284/682/274 281/681/275
f 278/680/273 277/683/276 284/682/274
f 279/674/270 280/684/277 290/675/266
f 290/685/266 280/686/277 281/687/278
f 279/679/270 281/681/272 280/688/277
f 290/685/266 281/687/278 284/689/279
f 290/685/266 285/690/269 282/691/262
f 290/685/266 282/691/262 283/692/254
f 275/664/260 283/666/254 282/669/262
f 290/685/266 283/692/254 288/693/280
f 290/685/266 284/689/279 285/690/269
f 277/683/261 285/694/269 284/682/281
f 287/662/282 289/695/263 286/696/267
f 290/685/266 288/693/280 286/697/268
f 287/662/282 286/696/267 288/660/283
f 291/698/65 297/699/63 294/700/61
f 291/698/65 294/700/61 293/701/60
f 295/702/59 292/703/62 296/704/64
f 295/702/59 296/704/64 298/705/66
f 299/706/67 306/707/63 301/708/61
f 299/706/67 301/708/61 300/709/60
f 304/710/59 305/711/62 302/712/64
f 304/710/59 302/712/64 303/713/68
f 310/714/284 307/715/285 308/716/286
f 307/717/285 313/718/287 308/719/286
f 307/717/285 314/720/288 313/718/287
f 310/721/284 314/722/288 307/723/285
f 310/714/284 308/716/286 311/724/289
f 308/725/286 312/726/290 311/727/289
f 308/725/286 313/728/287 312/726/290
f 309/729/291 311/730/289 312/731/290
f 309/729/291 310/732/284 311/730/289
f 314/733/288 309/734/291 312/735/290
f 310/721/284 309/736/291 314/722/288
f 314/733/288 312/735/290 313/737/287
f 315/738/292 316/739/293 318/740/294
f 315/738/292 319/741/295 316/739/293
f 320/742/296 315/743/292 318/744/294
f 319/745/295 315/746/292 320/747/296
f 317/748/297 318/749/294 316/750/293
f 319/751/295 317/752/297 316/753/293
f 319/751/295 321/754/298 317/752/297
f 321/755/298 322/756/299 317/757/297
f 317/748/297 322/758/299 318/749/294
f 320/742/296 318/744/294 322/759/299
f 319/745/295 320/747/296 321/760/298
f 321/755/298 320/761/296 322/756/299
f 62/7/300 63/762/300 66/5/300
f 63/762/301 64/763/301 65/764/301
f 66/5/302 63/762/302 65/764/302
f 81/8/303 77/765/303 78/9/303
f 79/10/304 80/291/304 81/8/304
f 80/291/305 60/277/305 81/8/305
f 94/766/306 95/767/306 96/11/306
f 99/768/307 94/766/307 96/11/307
f 98/13/308 99/768/308 96/11/308
f 110/14/303 106/769/303 107/15/303
f 108/16/309 109/314/309 110/14/309
f 109/314/305 86/324/305 110/14/305
f 93/17/310 94/770/310 99/18/310
f 179/771/13 180/772/12 181/773/11
f 59/26/311 77/765/311 81/8/311
f 58/28/312 62/774/312 67/29/312
f 59/26/313 68/27/113 56/292/119
f 60/277/117 80/291/122 61/275/116
f 58/290/314 57/775/315 53/270/316
f 66/31/317 65/289/317 53/270/317
f 84/34/318 65/776/318 64/35/318
f 83/37/319 69/777/319 63/38/319
f 78/9/320 77/765/320 70/40/320
f 74/778/127 73/308/321 72/307/132
f 63/49/322 73/299/322 74/50/322
f 93/17/141 92/19/7 100/334/133
f 88/52/311 106/769/311 110/14/311
f 99/779/6 98/335/323 91/322/138
f 97/54/324 101/780/324 87/55/324
f 88/52/325 87/53/147 85/318/135
f 86/324/137 109/314/136 89/319/134
f 87/781/147 101/333/326 100/334/133
f 94/57/43 102/782/327 104/58/44
f 107/15/320 106/769/320 105/60/320
f 112/783/127 113/360/321 116/358/132
f 95/71/328 113/343/328 112/72/328
f 154/784/58 152/785/58 153/786/58
f 152/787/58 154/788/58 153/789/58
f 156/790/58 155/791/58 157/792/58
f 155/793/58 156/794/58 157/795/58
f 159/796/58 158/797/58 160/798/58
f 158/799/58 159/800/58 160/801/58
f 161/802/10 162/803/9 163/804/8
f 165/805/58 164/806/58 166/807/58
f 164/808/58 165/809/58 166/810/58
f 173/811/58 175/812/58 174/813/58
f 175/814/58 173/815/58 174/816/58
f 184/817/58 183/818/58 182/819/58
f 183/820/58 184/821/58 182/822/58
f 189/823/58 188/824/58 190/825/58
f 188/826/58 189/827/58 190/828/58
f 295/829/59 298/119/66 293/121/60
f 292/830/62 295/110/59 294/112/61
f 296/831/64 292/113/62 297/115/63
f 298/832/66 296/116/64 291/118/65
f 304/833/59 303/131/68 300/133/60
f 305/834/62 304/122/59 301/124/61
f 302/835/64 305/125/62 306/127/63
f 303/836/68 302/128/64 299/130/67
f 58/290/314 53/270/316 65/289/329
f 65/289/330 66/31/330 67/33/330
f 59/26/313 56/292/119 80/291/331
f 64/294/332 63/837/332 69/295/332
f 80/43/26 75/42/25 70/300/23
f 70/300/333 78/302/333 80/43/333
f 88/52/325 85/318/135 109/314/331
f 101/333/334 98/838/334 99/18/334
f 96/338/335 95/839/335 104/339/335
f 109/63/148 97/65/50 105/349/47
f 105/349/333 107/348/333 109/63/333
