# Blender 4.5.0
# www.blender.org
mtllib fuel_urban_001.mtl
o fuel_urban_001
v -1.541406 2.943988 4.872497
v -6.476027 2.943988 4.872497
v -1.541406 2.524502 4.872497
v -6.476027 2.524502 4.872497
v -2.730110 5.450913 -8.630885
v 2.703967 5.450913 -8.630885
v 2.703967 5.311085 -8.630885
v -2.730110 5.311085 -8.630885
v 9.256824 6.609492 -10.569936
v 11.694169 6.609492 -10.569936
v 11.694169 5.021439 -10.569935
v 9.256824 5.021439 -10.569935
v 5.261180 2.614392 9.720120
v 8.697434 2.614392 9.720120
v 8.697434 2.224869 9.720120
v 5.261180 2.224869 9.720120
v -12.000007 0.097430 -11.988239
v -11.791790 0.093879 -12.000000
v -12.000007 0.097476 -11.988239
v -12.006154 0.102468 -11.988239
v 12.006154 0.088861 -11.987309
v 11.967716 0.003747 12.000003
v 11.973662 0.000001 11.993544
v -12.000007 0.097478 12.000003
v -12.000007 0.097478 12.000003
v -12.005208 0.100551 12.000003
v -12.000007 0.003745 -11.982088
v -11.993339 0.000055 -11.987840
v -12.000007 0.003747 11.993852
v -11.993613 0.000639 11.999845
v -11.762987 0.274845 -11.984719
v -12.000007 0.274207 12.006154
v -11.993859 0.277258 11.993852
v -12.000007 0.271782 12.000003
v -11.993859 0.277258 11.993852
v -11.763849 0.274243 11.997552
v -11.763128 0.100130 11.996960
v -11.996615 0.274157 -11.985358
v 11.737915 0.100582 11.998029
v 11.736637 0.103921 -11.988007
v 11.740273 0.097476 -11.982088
v 11.973864 0.097478 12.000003
v 11.973864 0.102953 12.000003
v 11.973864 0.097478 12.000003
v 11.968917 0.097476 -11.983290
v 11.980011 0.091330 -11.988239
v 11.973864 0.097476 -11.982088
v 11.967029 0.276337 -11.988342
v 11.973864 0.271109 -11.982088
v 11.736751 0.276992 11.993608
v 11.741280 0.271111 12.000003
v 11.737714 0.274236 -11.985943
v -11.996645 0.274141 11.762609
v -11.997512 0.099993 11.763869
v 11.971227 0.100911 11.762782
v 11.973864 0.277258 11.993852
v 11.967716 0.277258 11.993852
v 11.967716 0.277258 12.000003
v 11.980011 0.277258 12.006154
v 11.973864 0.272095 11.767010
v 11.968985 0.275434 11.762956
v 4.478751 0.100543 -11.985701
v -4.504893 0.100543 -11.750896
v 4.478750 0.274189 -11.750896
v 4.479571 0.099846 -11.752204
v -4.505714 0.274886 -11.752204
v 4.479571 0.274887 -11.984393
v -4.504894 0.274189 -11.985701
v -4.505714 0.099845 -11.984393
v -11.299269 0.106647 -11.499982
v -5.708366 0.105285 -11.499982
v -11.299269 0.105285 -11.876792
v -5.708367 0.106647 -11.876792
v 5.682223 0.106647 -11.499982
v 11.273126 0.105285 -11.499982
v 5.682224 0.105285 -11.876792
v 11.273126 0.106647 -11.876792
v -11.068653 0.099961 0.981143
v -10.999648 0.094480 1.081094
v -10.946576 5.793494 0.952887
v -11.066001 5.788013 0.974738
v -11.001957 5.795029 1.080101
v -10.948910 0.092945 0.951954
v -10.779175 5.791584 0.058032
v -10.779175 5.909264 1.053192
v -11.223017 5.909264 0.058032
v -11.224487 5.791365 0.059608
v -10.777704 5.791365 1.051616
v -11.224487 5.909483 1.051616
v -10.777704 5.909483 0.059608
v -11.223017 5.791584 1.053192
v 10.976400 0.094480 1.081094
v 11.027139 0.092945 0.951954
v 11.029472 5.793494 0.952887
v 10.910048 5.788013 0.974738
v 10.974092 5.795029 1.080101
v 10.907395 0.099961 0.981143
v 10.753032 5.909264 0.058032
v 11.196874 5.909264 1.053192
v 10.751561 5.909483 1.051616
v 10.751561 5.791365 0.059608
v 10.753032 5.791584 1.053192
v 11.198344 5.791365 1.051616
v 11.196874 5.791584 0.058032
v 11.198344 5.909483 0.059608
v 0.483538 3.291860 5.006657
v 0.482204 3.291651 10.998680
v -8.500971 3.291861 10.997269
v 0.483538 0.099177 10.997269
v -8.499638 3.291651 5.005244
v -8.500971 0.099176 5.006657
v -8.499638 0.099386 10.998681
v 0.482204 0.099385 5.005245
v -8.451802 3.382002 5.052866
v 0.426449 3.299706 5.063402
v 0.429855 3.299706 5.063402
v 0.426449 3.293559 5.069553
v 0.420302 3.299706 5.063402
v -8.437271 3.411079 10.940335
v -8.443882 3.407266 10.934372
v -8.443882 3.293184 10.940516
v -8.447287 3.299706 10.940522
v -8.443882 3.293559 10.934372
v -8.450029 3.287413 10.940522
v 0.419975 3.411850 5.065235
v 0.426449 3.407266 5.069553
v 0.422711 3.410130 10.938785
v 0.420302 3.299706 10.940522
v 0.426449 3.293559 10.934372
v 0.429745 3.300973 10.940522
v 0.426449 3.299706 10.940522
v -8.447177 3.300973 5.063402
v -8.443882 3.299706 5.063402
v -8.434599 3.293559 5.069553
v -8.603709 3.299706 10.943255
v -8.597562 3.293559 10.934372
v -8.597562 3.293559 10.940522
v -8.600218 3.295440 11.098021
v -8.597562 3.653118 10.934372
v -8.603709 3.645753 10.940522
v -8.602735 3.652067 11.095931
v -8.596343 3.653118 10.940522
v -8.446821 3.650270 10.938092
v -8.446578 3.652924 5.069886
v -8.447287 3.646972 5.063402
v 0.429619 3.650024 5.064726
v 0.431143 3.651688 10.938201
v 0.426449 3.646972 10.934372
v 0.580128 3.293559 10.934372
v 0.586275 3.300924 10.940522
v 0.585301 3.294611 11.095931
v 0.578909 3.293559 10.940522
v -8.600218 3.651238 4.905905
v -8.602735 3.294611 4.907994
v -8.597562 3.653118 5.069553
v -8.603709 3.646972 5.063402
v -8.609857 3.653118 5.057251
v -8.597562 3.293559 5.069553
v -8.603709 3.300924 5.063402
v -8.596343 3.293559 5.063402
v 0.580128 3.653118 5.069553
v 0.586275 3.645753 5.063402
v 0.585301 3.652067 4.907995
v 0.578909 3.653118 5.063402
v 0.582784 3.295439 4.905905
v 0.586275 3.299706 5.060668
v 0.580128 3.293559 5.069553
v 0.580128 3.293559 5.063402
v 0.580128 3.653118 10.940522
v 0.582784 3.651239 11.098021
v 0.586275 3.646972 10.940522
v 0.580128 3.653118 10.934372
v -6.802043 2.412251 4.894345
v -5.610600 0.169777 4.894345
v -6.802548 0.169347 4.894738
v -5.610600 2.412252 5.032559
v -6.802547 2.412681 5.032167
v -6.802043 0.169777 5.032559
v -5.610096 2.412681 4.894738
v -5.610096 0.169347 5.032167
v -5.681644 2.335529 4.875045
v -6.730999 2.335529 4.871947
v -6.730999 0.236512 4.875045
v -5.681644 0.236512 4.871947
v -6.208336 0.234131 4.815279
v -6.206322 2.350760 4.843511
v -6.204307 0.234131 4.871742
v -6.324068 1.397097 4.749803
v -6.328313 1.397097 4.817278
v -6.326191 0.977214 4.783540
v -6.084330 1.397097 4.749803
v -6.086452 0.977214 4.783540
v -6.088575 1.397097 4.817278
v -4.474325 2.381993 4.895580
v -4.475310 0.649052 4.896816
v -1.344519 2.382426 4.896816
v -1.344519 0.649052 5.040083
v -1.345503 0.649485 4.895580
v -4.475310 2.382426 5.040082
v -1.345503 2.381993 5.041319
v -4.474325 0.649485 5.041319
v -4.408240 2.314537 4.877228
v -1.411589 0.716940 4.877228
v -1.411589 2.314537 4.879760
v -4.408240 0.716940 4.879760
v -4.410266 0.683561 4.817716
v -4.408282 2.372003 4.848509
v -4.406297 0.683561 4.879301
v -2.909914 2.372002 4.848509
v -2.911899 0.683561 4.817716
v -2.907930 0.683561 4.879301
v -1.413531 0.683561 4.817716
v -1.409563 0.683561 4.879301
v -1.411548 2.372002 4.848509
v -4.529100 0.643790 4.696503
v -4.529100 0.649818 4.960534
v -1.290729 0.649818 4.696503
v -1.290729 0.643790 4.960534
v -6.503689 2.969764 4.880151
v -1.513744 2.969764 5.026763
v -6.504059 2.970653 5.026059
v -1.513374 2.970653 4.880855
v -6.504060 2.497837 4.880855
v -1.513744 2.498725 4.880151
v -1.513374 2.497837 5.026059
v -6.503689 2.498725 5.026763
v -1.590257 4.139530 9.224545
v -2.431532 3.496303 9.224545
v -2.431531 4.139530 8.778401
v -2.432399 3.495757 8.779254
v -2.432399 4.140076 9.223692
v -1.589390 4.140076 8.779253
v -1.590256 3.496303 8.778401
v -1.589390 3.495757 9.223692
v -1.738213 3.631426 8.757666
v -2.018282 3.665398 8.750103
v -1.848054 3.601998 8.745525
v -2.082704 3.890920 8.752048
v -1.679481 3.998949 8.751142
v -1.622496 3.771433 8.753087
v -1.912975 4.063903 8.751595
v -1.635534 3.675591 8.721611
v -2.060899 3.688135 8.720475
v -2.060899 3.663047 8.722748
v -1.635535 3.742509 8.721611
v -2.060899 3.755053 8.720475
v -2.060899 3.729965 8.722748
v -1.641237 3.796882 8.720475
v -2.066602 3.809427 8.721611
v -1.641237 3.821971 8.722748
v -1.635535 3.876345 8.721611
v -2.060899 3.863801 8.722748
v -2.060899 3.888889 8.720475
v -2.060899 3.955807 8.720475
v -1.635535 3.943263 8.721611
v -2.060899 3.930719 8.722748
v -2.060899 4.022725 8.720475
v -1.635535 4.010181 8.721611
v -2.060899 3.997637 8.722748
v -2.256197 4.012750 8.758103
v -2.344959 4.012750 8.755082
v -2.256197 3.653046 8.755082
v -2.344959 3.653046 8.758103
v -2.358379 3.455173 8.704334
v -2.262757 3.461548 8.704336
v -2.358378 3.461548 9.298611
v -2.262757 3.455173 9.298613
v -1.759032 3.455172 8.704334
v -1.663410 3.461549 8.704335
v -1.663410 3.455172 9.298613
v -1.759031 3.461548 9.298611
v -9.498967 5.547792 -8.487901
v -9.499791 5.193624 -8.486917
v 9.472824 5.547792 2.502603
v -9.498967 5.194231 2.502603
v 9.473648 5.548398 -8.486917
v 9.473648 5.193624 2.501620
v 9.472824 5.194230 -8.487901
v -9.499791 5.548398 2.501620
v -9.511807 5.536376 -8.493574
v 9.485664 5.536376 -8.486335
v -9.511807 5.235611 -8.486335
v 9.485664 5.235611 -8.493574
v -2.756875 5.477328 -8.622685
v 2.730732 5.284669 -8.622685
v -2.757555 5.478120 -8.478271
v 2.730731 5.477328 -8.477165
v -2.757555 5.283877 -8.621578
v 2.731411 5.478120 -8.621578
v 2.731411 5.283877 -8.478271
v -2.756875 5.284669 -8.477165
v -4.285407 0.276636 -5.737545
v -5.728965 0.098164 -0.246380
v -5.728965 0.276570 -5.738917
v -5.729850 0.098097 -5.737545
v -4.286292 0.276570 -0.246380
v -5.729850 0.276637 -0.247752
v -4.286292 0.098163 -5.738917
v -4.285407 0.098097 -0.247752
v -5.129182 5.187922 -2.015761
v -4.886074 0.280566 -2.015760
v -4.885325 0.279818 -1.771837
v -5.129930 5.188671 -1.771837
v -4.885325 5.188671 -2.014539
v -4.886074 5.187922 -1.770615
v -5.129930 0.279818 -2.014538
v -5.129182 0.280566 -1.770614
v -5.454698 1.920885 -4.140445
v -4.560558 0.281607 -4.140445
v -5.454699 0.281607 -3.444068
v -4.560558 1.920885 -3.444069
v -4.560194 1.921898 -4.139600
v -5.455062 1.921898 -3.444914
v -5.455062 0.280595 -4.139600
v -4.560194 0.280595 -3.444913
v -4.667141 1.095493 -4.153461
v -5.348115 1.095493 -4.150699
v -4.667141 1.646338 -4.150699
v -5.348115 1.646338 -4.153461
v -5.527249 1.711607 -3.793964
v -5.715389 1.087238 -3.823026
v -5.464181 1.687526 -3.788936
v -5.742813 1.097841 -3.762013
v -5.693176 1.099936 -3.788936
v -5.760674 1.101123 -3.793964
v -5.722995 0.562321 -3.823026
v -5.752390 0.562961 -3.762012
v -5.718599 0.537311 -3.793450
v -5.494020 0.736286 -3.761726
v -5.513197 0.760788 -3.823359
v -5.761062 0.591568 -3.789595
v -5.484473 1.027097 -3.861517
v -5.489738 1.027096 -3.722996
v -5.484473 0.735935 -3.722996
v -5.489738 0.735935 -3.861517
v -4.488340 1.711572 -3.788937
v -4.551346 1.687331 -3.793963
v -4.273866 1.097204 -3.823027
v -4.301351 1.086761 -3.762013
v -4.254907 1.101204 -3.788936
v -4.322402 1.099844 -3.793964
v -4.293820 0.562378 -3.762013
v -4.264421 0.562847 -3.823026
v -4.296544 0.537457 -3.789596
v -4.254080 0.591713 -3.793453
v -4.501221 0.761859 -3.761726
v -4.520398 0.737356 -3.823360
v -4.525518 1.027096 -3.861517
v -4.530783 0.735935 -3.861517
v -4.525518 0.735935 -3.722996
v -4.530783 1.027096 -3.722996
v -5.181317 5.162108 -6.240871
v -5.181317 5.165421 -4.741978
v -4.833939 5.162108 -4.741978
v -4.833939 5.165422 -6.240871
v 5.703707 0.276636 -5.737545
v 5.702822 0.098163 -5.738917
v 4.260148 0.098164 -0.246380
v 5.703707 0.098097 -0.247752
v 4.260148 0.276570 -5.738917
v 4.259263 0.276637 -0.247752
v 5.702822 0.276570 -0.246380
v 4.259263 0.098097 -5.737545
v 4.859931 5.187922 -2.015761
v 4.859931 0.280566 -1.770614
v 4.859182 5.188671 -1.771837
v 4.859182 0.279818 -2.014538
v 5.103039 5.187922 -1.770615
v 5.103787 5.188671 -2.014539
v 5.103039 0.280566 -2.015760
v 5.103787 0.279818 -1.771837
v 5.428555 0.281607 -4.140445
v 4.534050 1.921898 -3.444914
v 5.428919 1.921898 -4.139600
v 5.428555 1.920885 -3.444069
v 4.534414 1.920885 -4.140445
v 4.534050 0.280595 -4.139600
v 5.428919 0.280595 -3.444913
v 4.534414 0.281607 -3.444068
v 5.321971 1.646338 -4.150699
v 4.640998 1.646338 -4.153461
v 4.640998 1.095493 -4.150699
v 5.321971 1.095493 -4.153461
v 4.246300 1.097840 -3.762013
v 4.273724 1.087238 -3.823026
v 4.461864 1.711607 -3.793964
v 4.524931 1.687526 -3.788936
v 4.295937 1.099936 -3.788936
v 4.228439 1.101123 -3.793964
v 4.236723 0.562961 -3.762012
v 4.266118 0.562321 -3.823026
v 4.270514 0.537311 -3.793450
v 4.495092 0.736286 -3.761726
v 4.228051 0.591568 -3.789595
v 4.475916 0.760788 -3.823359
v 4.504640 1.027096 -3.861517
v 4.499375 1.027096 -3.722996
v 4.504640 0.735935 -3.722996
v 4.499375 0.735935 -3.861517
v 5.437768 1.687331 -3.793963
v 5.687761 1.086761 -3.762013
v 5.500773 1.711572 -3.788937
v 5.715247 1.097204 -3.823026
v 5.666711 1.099844 -3.793963
v 5.695293 0.562378 -3.762013
v 5.724693 0.562847 -3.823026
v 5.734206 1.101204 -3.788936
v 5.735033 0.591713 -3.793453
v 5.692569 0.537457 -3.789596
v 5.468716 0.737356 -3.823360
v 5.487892 0.761859 -3.761726
v 5.458330 0.735935 -3.861517
v 5.463595 1.027096 -3.861517
v 5.458330 1.027096 -3.722996
v 5.463595 0.735935 -3.722996
v 5.155174 5.165421 -6.240871
v 4.807796 5.162108 -6.240871
v 4.807796 5.165421 -4.741978
v 5.155174 5.162108 -4.741978
v 10.348106 0.099262 -10.535241
v 10.573721 0.086504 -10.589789
v 10.478464 0.090149 -10.346026
v 10.352723 6.987241 -10.546392
v 10.578612 6.996353 -10.587956
v 10.473707 6.999999 -10.348193
v 9.229650 4.993819 -10.560483
v 11.720421 6.636579 -10.416235
v 11.721344 4.993819 -10.417465
v 9.230574 6.636579 -10.561716
v 9.229650 6.637112 -10.417466
v 9.230574 4.994353 -10.416234
v 11.720421 4.994353 -10.561715
v 11.721344 6.637112 -10.560485
v 4.734899 0.243993 5.255795
v 9.223717 0.100778 5.255795
v 9.223717 0.243993 10.748131
v 9.224429 0.099981 10.746846
v 9.224429 0.244791 5.257079
v 4.734186 0.244791 10.746846
v 4.734186 0.099981 5.257079
v 4.734898 0.100779 10.748131
v 4.733845 3.039986 9.851969
v 4.733529 3.040612 10.149581
v 9.225085 0.250547 10.149582
v 4.733529 0.250547 9.852385
v 4.733845 0.251174 10.149997
v 9.225086 3.040612 9.852385
v 9.224771 3.039986 10.149997
v 9.224770 0.251174 9.851969
v 8.723156 2.196400 9.726770
v 5.234507 2.196595 9.727235
v 8.723156 2.642862 9.875391
v 5.234506 2.642667 9.874927
v 5.235459 2.642862 9.726770
v 8.724109 2.642667 9.727235
v 8.724109 2.196594 9.874927
v 5.235459 2.196400 9.875391
vn -0.0000 -0.0000 -1.0000
vn 0.0360 -0.0000 0.9994
vn 0.0229 -0.0000 0.9997
vn -0.0000 -0.0000 1.0000
vn 0.1326 0.8275 -0.5455
vn 0.0003 1.0000 -0.0001
vn -0.0000 1.0000 -0.0000
vn 0.0002 1.0000 -0.0001
vn -0.0000 -0.7074 -0.7068
vn -0.6839 0.7283 0.0445
vn 0.0002 -0.7076 0.7067
vn -0.0000 -0.7073 0.7069
vn 0.0002 -0.7075 0.7067
vn 0.3907 -0.0967 -0.9154
vn -0.9120 -0.4101 0.0071
vn -0.7080 -0.7062 -0.0035
vn -0.5686 -0.5752 0.5881
vn -0.7000 0.7005 0.1389
vn 0.7004 -0.7002 0.1387
vn 0.7073 0.0001 -0.7069
vn -0.7002 -0.7003 -0.1387
vn 0.7002 0.7003 -0.1387
vn 0.9120 -0.4102 -0.0071
vn 0.7078 -0.7064 0.0035
vn 0.5686 -0.5752 -0.5881
vn 0.7071 0.7071 -0.0000
vn 0.0190 0.9998 -0.0041
vn 0.7089 0.7053 0.0003
vn 0.0189 0.9998 -0.0015
vn -0.0000 0.9997 -0.0227
vn 0.0002 0.0003 -1.0000
vn -0.4371 -0.8994 -0.0000
vn -0.4841 -0.8750 -0.0000
vn -0.4445 0.8958 -0.0001
vn -1.0000 -0.0066 0.0001
vn -0.8143 -0.1431 -0.5625
vn -0.8708 -0.4916 -0.0000
vn -0.0198 0.7290 0.6843
vn -0.4132 0.9106 -0.0077
vn -0.5716 0.5736 -0.5868
vn -0.6662 0.7457 -0.0020
vn -0.0000 -0.6385 -0.7696
vn -0.7677 0.6408 -0.0000
vn -0.0000 0.7367 -0.6762
vn 0.5687 0.5752 0.5880
vn 0.0001 1.0000 0.0068
vn -0.5706 0.5706 0.5907
vn 0.6691 -0.0139 -0.7430
vn 0.0005 1.0000 -0.0003
vn 0.0108 -0.7009 -0.7132
vn 0.2334 0.5307 -0.8148
vn 0.6427 0.0090 -0.7660
vn 0.5770 0.0466 -0.8154
vn 0.9940 -0.0000 -0.1093
vn 0.9940 0.0003 -0.1094
vn 0.9940 0.0002 -0.1094
vn 0.7071 0.7072 -0.0000
vn 0.9999 -0.0000 -0.0111
vn 0.9998 -0.0149 -0.0110
vn 0.9999 -0.0044 -0.0111
vn 0.0007 -0.0001 1.0000
vn -0.0000 -0.6384 0.7697
vn -0.5687 0.5753 -0.5879
vn -0.0001 1.0000 -0.0068
vn 0.5706 0.5706 -0.5907
vn -0.0528 -0.0654 -0.9965
vn -0.9955 -0.0948 0.0009
vn -0.8100 0.5865 -0.0015
vn -0.4975 0.8675 -0.0031
vn -1.0000 0.0095 -0.0005
vn -0.9003 0.4352 -0.0000
vn -0.7088 0.7054 -0.0000
vn -0.0000 0.7074 -0.7068
vn -0.0006 -0.1858 -0.9826
vn 0.0004 -0.3042 -0.9526
vn -0.7677 -0.6408 -0.0000
vn -0.0409 -0.9992 -0.0000
vn -0.0001 -1.0000 0.0068
vn 0.1876 -0.6840 0.7049
vn 0.0126 0.0213 0.9997
vn 0.7108 -0.0037 0.7034
vn 0.0116 0.0043 0.9999
vn 0.0409 -0.9992 -0.0000
vn 0.7677 -0.6408 -0.0000
vn 0.0001 -1.0000 -0.0068
vn -0.1876 -0.6840 -0.7050
vn -0.0260 -0.0067 0.9996
vn -0.5236 0.0015 0.8520
vn -0.8120 0.0093 0.5836
vn -0.6698 -0.0000 0.7425
vn -0.6368 0.0076 0.7710
vn -0.0000 -0.0039 -1.0000
vn 0.8785 -0.4777 -0.0107
vn 0.0013 -0.6814 -0.7319
vn -0.0173 -0.9999 0.0003
vn 0.5094 -0.5989 -0.6179
vn -0.9998 0.0192 -0.0001
vn 0.0112 -0.9999 -0.0000
vn -1.0000 -0.0000 -0.0000
vn -0.6304 -0.7763 -0.0000
vn 0.4549 -0.8905 0.0066
vn 0.0014 -0.9823 0.1873
vn 0.2583 0.9660 0.0039
vn 1.0000 -0.0021 -0.0000
vn -0.0000 -1.0000 0.0001
vn 0.5810 0.5748 0.5762
vn 0.0104 -0.0003 0.9999
vn -0.0003 0.0348 0.9994
vn -0.9990 0.0303 -0.0326
vn -0.3885 -0.6499 -0.6532
vn -0.0000 -0.9999 -0.0144
vn -0.0000 -0.9999 -0.0106
vn -0.0000 -0.0016 1.0000
vn 0.0035 0.9111 0.4122
vn 0.6307 0.5536 -0.5438
vn -0.0225 0.7183 -0.6953
vn -0.9999 0.0049 -0.0141
vn -0.0000 1.0000 -0.0079
vn -0.0001 -1.0000 -0.0000
vn -0.0131 -0.9999 0.0001
vn -0.0132 -0.9999 0.0001
vn -0.0049 -0.0048 1.0000
vn -0.0084 -0.0001 1.0000
vn -1.0000 -0.0005 0.0001
vn -0.5799 0.5788 -0.5733
vn -0.0063 0.0042 -1.0000
vn -0.0000 -1.0000 -0.0000
vn 0.9990 0.0362 0.0262
vn 0.9994 0.0352 0.0002
vn 0.9998 -0.0151 -0.0110
vn 0.7073 -0.0000 0.7069
vn -0.0139 0.6883 -0.7253
vn -0.0011 1.0000 -0.0000
vn -0.5746 0.5758 -0.5816
vn 0.5746 -0.5758 -0.5816
vn -0.5787 -0.5795 -0.5738
vn 0.5787 -0.5795 0.5738
vn 0.5787 0.5795 -0.5738
vn -0.5746 -0.5758 0.5816
vn 0.5746 0.5758 0.5816
vn -0.5787 0.5795 0.5738
vn -0.8327 -0.0320 -0.5528
vn 0.8327 0.0320 -0.5528
vn 0.8328 -0.0309 0.5528
vn -0.8328 0.0308 0.5528
vn -0.8327 -0.0321 -0.5528
vn -0.8328 0.0310 0.5528
vn 0.8327 0.0321 -0.5528
vn -0.7918 -0.5322 -0.2998
vn 0.0897 -0.5616 0.8225
vn 0.0516 0.5702 0.8199
vn -0.7718 0.5322 -0.3480
vn 0.6162 -0.5702 -0.5433
vn 0.6450 0.5616 -0.5182
vn -0.7016 0.0023 -0.7126
vn 0.7016 -0.0023 -0.7126
vn -0.7137 -0.0018 -0.7004
vn 0.0002 -1.0000 -0.0001
vn 0.0005 -1.0000 -0.0002
vn -0.0002 -1.0000 0.0001
vn 0.7137 0.0018 -0.7004
vn 0.7137 -0.0018 0.7004
vn 0.0002 1.0000 0.0001
vn 0.0005 1.0000 0.0002
vn -0.0002 1.0000 -0.0001
vn 0.7016 0.0023 0.7126
vn -0.7137 0.0018 0.7004
vn -0.7016 -0.0024 0.7126
vn -0.0005 1.0000 -0.0002
vn -0.0005 -1.0000 0.0002
vn 0.0517 0.5702 0.8199
vn -0.7016 -0.0023 0.7126
vn -0.5775 0.5774 0.5771
vn 0.5775 0.5774 -0.5771
vn -0.5772 0.5774 -0.5775
vn 0.5772 -0.5774 -0.5775
vn 0.5775 -0.5774 0.5771
vn 0.5772 0.5774 0.5775
vn -0.5772 -0.5774 0.5775
vn -0.5775 -0.5774 -0.5771
vn -0.0032 0.6920 -0.7219
vn 0.0001 0.7009 -0.7133
vn -0.9955 -0.0945 0.0017
vn -0.0013 0.6865 0.7271
vn -1.0000 0.0058 -0.0003
vn -0.3593 0.9332 -0.0010
vn 0.0001 0.0038 -1.0000
vn 0.0002 0.0038 -1.0000
vn 0.0001 0.7172 0.6968
vn 0.0002 0.0016 1.0000
vn 0.0399 -0.9992 -0.0010
vn -0.0003 0.0069 1.0000
vn -0.0000 -0.7073 -0.7069
vn 0.9997 0.0238 -0.0000
vn 1.0000 0.0082 -0.0000
vn -0.0000 0.0157 0.9999
vn 0.8534 0.5212 -0.0006
vn 0.9994 0.0345 0.0015
vn 0.9994 0.0334 0.0006
vn -0.0077 0.0033 1.0000
vn -0.0156 0.0067 0.9999
vn -0.0039 0.0017 1.0000
vn -0.9998 -0.0174 -0.0000
vn 0.0012 1.0000 -0.0000
vn -0.9998 -0.0174 0.0010
vn -0.9998 -0.0175 0.0010
vn 0.0001 -0.0000 -1.0000
vn -0.0098 1.0000 -0.0000
vn -0.0205 0.9998 0.0018
vn -0.0206 0.9998 -0.0002
vn -0.0096 1.0000 -0.0000
vn 0.9998 -0.0175 -0.0000
vn 1.0000 -0.0000 0.0063
vn 1.0000 -0.0000 -0.0000
vn -0.8711 0.4910 -0.0060
vn -1.0000 -0.0000 -0.0063
vn -0.6999 -0.0146 0.7141
vn 0.9006 0.4345 0.0082
vn -0.5784 0.5781 0.5755
vn -0.5763 0.5765 -0.5792
vn -0.5784 -0.5781 -0.5755
vn 0.5763 -0.5765 -0.5792
vn 0.5784 0.5781 -0.5755
vn 0.5784 -0.5781 0.5755
vn -0.5763 -0.5765 0.5792
vn 0.5763 0.5765 0.5792
vn -0.6422 0.7665 0.0096
vn 0.6419 0.7667 -0.0096
vn 0.6422 -0.7665 0.0095
vn -0.6419 -0.7667 -0.0096
vn -0.0000 -0.0000 -0.0000
vn -0.5752 0.5767 -0.5801
vn 0.5752 -0.5767 -0.5801
vn -0.5793 -0.5782 -0.5745
vn 0.5793 0.5782 -0.5745
vn -0.5793 0.5782 0.5745
vn 0.5793 -0.5782 0.5745
vn -0.5752 -0.5767 0.5801
vn 0.5752 0.5767 0.5801
vn -0.7620 0.6475 0.0140
vn 0.7620 0.6475 -0.0139
vn 0.7620 -0.6475 0.0139
vn -0.7620 -0.6475 -0.0138
vn -0.8308 0.0162 0.5563
vn 0.8308 0.0162 -0.5563
vn -0.8309 -0.0162 -0.5561
vn 0.8309 -0.0162 0.5561
vn -0.5766 0.5753 -0.5801
vn 0.5766 -0.5753 -0.5801
vn -0.5778 -0.5796 -0.5747
vn 0.5778 0.5796 -0.5747
vn -0.5778 0.5796 0.5747
vn 0.5766 0.5753 0.5801
vn -0.5766 -0.5753 0.5801
vn 0.5778 -0.5796 0.5747
vn 0.5764 0.5770 0.5786
vn -0.5764 -0.5770 0.5786
vn 0.5781 -0.5779 0.5761
vn -0.5781 0.5779 0.5761
vn 0.5781 0.5779 -0.5761
vn -0.5781 -0.5779 -0.5761
vn -0.5764 0.5770 -0.5786
vn 0.5764 -0.5770 -0.5786
vn 0.6036 -0.7883 0.1193
vn -0.9396 0.3423 0.0059
vn -0.8435 -0.5371 -0.0051
vn 0.9990 -0.0433 0.0051
vn 0.6425 0.7662 -0.0059
vn -0.1286 -0.9845 -0.1193
vn -0.2590 0.9659 -0.0000
vn 0.8911 -0.4537 -0.0000
vn 0.8917 -0.4526 -0.0000
vn 0.8892 -0.4575 -0.0000
vn 0.8184 -0.5747 -0.0000
vn 0.8187 -0.5743 -0.0000
vn 0.5934 0.8047 0.0184
vn -0.5934 -0.8047 0.0184
vn 0.5934 -0.8047 -0.0184
vn -0.5934 0.8047 -0.0184
vn -0.5736 0.0382 0.8182
vn 0.5736 0.0382 -0.8182
vn -0.5736 -0.0382 -0.8182
vn 0.5736 -0.0382 0.8182
vn -0.5782 0.5775 0.5763
vn -0.5765 0.5772 -0.5784
vn -0.5782 -0.5775 -0.5763
vn 0.5765 -0.5772 -0.5784
vn 0.5782 0.5775 -0.5763
vn 0.5782 -0.5775 0.5763
vn -0.5765 -0.5772 0.5784
vn 0.5765 0.5772 0.5784
vn -0.8410 0.5404 -0.0241
vn 0.8412 -0.5402 -0.0241
vn -0.8412 -0.5402 0.0241
vn 0.8410 0.5404 0.0241
vn -0.5785 0.5802 0.5733
vn -0.5748 0.5752 -0.5820
vn -0.5785 -0.5802 -0.5733
vn 0.5748 -0.5752 -0.5820
vn 0.5785 0.5802 -0.5733
vn 0.5785 -0.5802 0.5733
vn -0.5748 -0.5752 0.5820
vn 0.5748 0.5752 0.5820
vn -0.7045 -0.0011 -0.7097
vn 0.7102 0.0020 -0.7040
vn 0.7045 0.0011 -0.7097
vn 0.7045 -0.0011 0.7097
vn 0.7102 -0.0020 0.7040
vn -0.7102 0.0020 0.7040
vn -0.7045 0.0011 0.7097
vn -0.7102 -0.0020 -0.7040
vn -0.5760 0.5754 -0.5806
vn 0.5760 -0.5754 -0.5806
vn -0.5792 -0.5783 -0.5745
vn -0.5792 0.5783 0.5745
vn 0.5792 0.5783 -0.5745
vn 0.5792 -0.5783 0.5745
vn 0.5760 0.5754 0.5806
vn -0.5760 -0.5754 0.5806
vn -0.5773 0.5766 -0.5781
vn 0.5773 -0.5766 -0.5781
vn -0.5776 -0.5779 -0.5766
vn 0.5776 0.5779 -0.5766
vn -0.5776 0.5779 0.5766
vn 0.5776 -0.5779 0.5766
vn -0.5773 -0.5766 0.5781
vn 0.5773 0.5766 0.5781
vn -0.7271 0.6864 -0.0109
vn 0.7271 0.6865 0.0109
vn 0.7271 -0.6864 -0.0109
vn -0.7271 -0.6865 0.0109
vn 0.8195 0.5714 0.0434
vn -0.2274 0.9729 -0.0408
vn -0.5247 -0.6846 0.5060
vn -0.0695 -0.8590 -0.5073
vn -0.5502 0.8340 -0.0411
vn 0.5813 0.8125 0.0442
vn 0.2290 -0.8277 -0.5123
vn -0.2627 -0.8187 0.5106
vn -0.9989 -0.0295 0.0375
vn -0.2710 -0.9620 -0.0322
vn 0.7997 0.2864 0.5276
vn 0.4714 0.7035 -0.5319
vn 0.0248 0.7700 -0.6376
vn 0.0248 -0.7700 0.6376
vn -0.0248 -0.7700 -0.6376
vn -0.0248 0.7700 0.6376
vn 0.2275 0.9728 0.0434
vn 0.0674 -0.8599 0.5060
vn 0.5226 -0.6853 -0.5072
vn -0.8195 0.5716 -0.0408
vn 0.5504 0.8338 0.0442
vn -0.5812 0.8127 -0.0411
vn -0.2316 -0.8280 0.5106
vn 0.2601 -0.8185 -0.5123
vn 0.2688 -0.9625 0.0376
vn 0.9990 -0.0318 -0.0322
vn -0.4702 0.7074 0.5277
vn -0.7962 0.2884 -0.5318
vn -0.5904 -0.0014 0.8071
vn 0.5904 -0.0015 -0.8071
vn -0.5904 0.0015 -0.8071
vn 0.5904 0.0014 0.8071
vn -0.0695 -0.8590 -0.5072
vn 0.4714 0.7035 -0.5318
vn -0.0248 0.7700 0.6375
vn -0.0248 -0.7700 -0.6375
vn -0.8196 0.5715 -0.0408
vn 0.5226 -0.6853 -0.5073
vn 0.2274 0.9728 0.0434
vn 0.2601 -0.8185 -0.5122
vn -0.2317 -0.8280 0.5106
vn 0.5504 0.8337 0.0442
vn -0.5904 -0.0015 0.8071
vn -0.7902 -0.5344 -0.3000
vn 0.0905 -0.5595 0.8239
vn 0.0521 0.5708 0.8194
vn -0.7708 0.5344 -0.3467
vn 0.6162 -0.5708 -0.5427
vn 0.6465 0.5595 -0.5187
vn -0.5792 -0.5785 -0.5744
vn 0.5754 -0.5765 -0.5802
vn 0.5792 -0.5785 0.5744
vn -0.5792 0.5785 0.5744
vn -0.5754 0.5765 -0.5802
vn -0.5754 -0.5765 0.5802
vn 0.5792 0.5785 -0.5744
vn 0.5754 0.5765 0.5802
vn -0.5754 0.5762 -0.5804
vn 0.5754 -0.5762 -0.5804
vn -0.5794 -0.5785 -0.5742
vn -0.5794 0.5785 0.5742
vn 0.5794 0.5785 -0.5742
vn 0.5794 -0.5785 0.5742
vn 0.5754 0.5762 0.5804
vn -0.5754 -0.5762 0.5804
vn -0.5771 0.5767 -0.5782
vn 0.5771 -0.5767 -0.5782
vn -0.5776 -0.5780 -0.5765
vn 0.5776 0.5780 -0.5765
vn -0.5776 0.5780 0.5765
vn 0.5771 0.5767 0.5782
vn -0.5771 -0.5767 0.5782
vn 0.5776 -0.5780 0.5765
vn -0.7086 -0.7056 0.0018
vn 0.7044 -0.7098 -0.0036
vn 0.7086 -0.7056 -0.0018
vn -0.0001 -0.0009 -1.0000
vn 0.0001 0.0009 -1.0000
vn -0.0001 -0.0010 -1.0000
vn 0.0001 0.0010 -1.0000
vn 0.7086 0.7057 0.0018
vn -0.7086 0.7056 -0.0018
vn -0.7044 0.7098 -0.0036
vn -0.7044 -0.7098 0.0036
vn 0.7044 0.7098 0.0036
vn 0.0001 -0.0009 1.0000
vn -0.0001 0.0009 1.0000
vn 0.0001 -0.0010 1.0000
vn -0.0001 0.0010 1.0000
vn 0.0560 -0.0000 0.9984
vn -0.1503 -0.7708 0.6192
vn -0.0000 -0.7074 -0.7069
vn -0.8862 -0.4625 -0.0283
vn 0.2625 -0.6825 0.6821
vn 0.0504 0.1316 0.9900
vn -0.7072 -0.7071 -0.0001
vn -0.7072 -0.7070 -0.0001
vn -0.7070 -0.7072 -0.0000
vn -0.7068 0.7070 -0.0243
vn 0.7069 -0.7069 -0.0243
vn -0.7088 0.7054 0.0034
vn -0.7068 -0.7070 0.0243
vn 0.7068 0.7069 0.0243
vn 0.7071 -0.7071 0.0001
vn 0.7072 -0.7071 0.0001
vn 0.7071 -0.7071 -0.0000
vn 0.7071 0.7071 -0.0035
vn 0.5668 0.8239 -0.0034
vn 0.0002 0.4234 -0.9059
vn -0.0271 0.9982 0.0542
vn 0.0496 -0.9987 0.0099
vn -0.0013 1.0000 0.0013
vn -0.0000 0.7074 0.7069
vn -0.0207 0.9998 0.0042
vn -0.0000 0.9999 0.0119
vn 0.7212 -0.0473 0.6911
vn -0.0561 0.0173 -0.9983
vn -0.3990 0.0177 -0.9168
vn 0.6075 0.7943 -0.0002
vn -0.0000 0.0163 -0.9999
vn 0.5779 0.8161 -0.0000
vn 0.0068 0.0184 -0.9998
vn 0.7677 0.6409 -0.0001
vn 0.0001 -0.8650 0.5018
vn -0.0009 0.7474 0.6644
vn -0.0084 -0.0000 1.0000
vn -0.0001 0.9706 0.2406
vn 0.0005 -0.7073 0.7069
vn -0.0496 -0.9987 -0.0098
vn -0.0000 0.9999 -0.0115
vn -0.6678 -0.0488 -0.7428
vn -0.0000 0.0038 -1.0000
vn -0.0000 -0.6764 -0.7365
vn -0.5086 -0.8609 -0.0145
vn -0.0000 -0.9999 0.0119
vn 0.0151 0.0069 0.9999
vn 0.7072 -0.7070 0.0001
vn -0.0000 -0.9999 -0.0119
vn -0.6952 -0.0471 0.7173
vn -0.0067 0.0177 0.9998
vn -0.5086 -0.8610 -0.0000
vn -0.7167 0.0218 -0.6970
vn -0.0205 -0.0335 -0.9992
vn 0.6339 0.7734 -0.0000
vn -0.9994 0.0342 -0.0000
vn 0.4535 0.7675 0.4532
vn -0.0000 -0.0003 1.0000
vn 0.7166 -0.0218 0.6971
vn 0.9994 0.0352 -0.0000
vn -0.0001 -1.0000 0.0003
vn -0.8814 -0.0000 0.4723
vn 0.7073 -0.0000 -0.7069
vn 0.9138 -0.4062 -0.0000
vn -0.0361 -0.0938 -0.9949
vn 0.3346 0.8691 0.3643
vn -0.5517 -0.8341 -0.0009
vn 1.0000 0.0076 -0.0000
vn 0.0155 0.0003 0.9999
vn 0.0155 -0.0004 0.9999
vn 0.0156 -0.0050 0.9999
vn 0.0159 -0.0159 0.9997
vn -0.0001 -0.0000 -1.0000
vn -1.0000 -0.0000 0.0063
vn -0.4123 -0.0072 -0.9110
vn 0.7072 -0.0000 -0.7070
vn -0.0085 0.0001 -1.0000
vn -0.0085 -0.0002 -1.0000
vn -0.0085 -0.0027 -1.0000
vn -0.0087 -0.0087 -0.9999
vn 0.9998 -0.0175 -0.0010
vn 0.0007 -0.0171 0.9999
vn 1.0000 -0.0000 -0.0063
vn 0.4124 -0.0072 0.9110
vt 0.162058 0.874157
vt 0.162058 0.953172
vt 0.155243 0.953174
vt 0.155243 0.874159
vt 0.978811 0.887509
vt 0.978811 0.974521
vt 0.976540 0.974522
vt 0.976540 0.887510
vt 0.246281 0.870912
vt 0.246281 0.909940
vt 0.220484 0.909947
vt 0.220484 0.870919
vt 0.466742 0.895049
vt 0.466742 0.950072
vt 0.460415 0.950074
vt 0.460415 0.895051
vt 0.995042 0.808724
vt 0.995043 0.808724
vt 0.995124 0.808824
vt 0.995123 0.800876
vt 0.995142 0.800795
vt 0.995042 0.800895
vt 0.790276 0.393259
vt 0.790376 0.393159
vt 0.790476 0.393359
vt 0.114767 0.719765
vt 0.114867 0.719766
vt 0.114767 0.719865
vt 0.995042 0.816648
vt 0.995139 0.816631
vt 0.995074 0.816739
vt 0.938785 0.789253
vt 0.938885 0.789257
vt 0.938885 0.789357
vt 0.114767 0.863897
vt 0.114767 0.863744
vt 0.114867 0.863693
vt 0.210215 0.866440
vt 0.210170 0.866340
vt 0.212700 0.866378
vt 0.101858 0.717269
vt 0.101858 0.717389
vt 0.101758 0.717369
vt 0.949543 0.890618
vt 0.949423 0.890618
vt 0.949423 0.890518
vt 0.006555 0.717369
vt 0.006455 0.717269
vt 0.006355 0.717169
vt 0.114767 0.866439
vt 0.114767 0.866320
vt 0.114867 0.866340
vt 0.006455 0.866539
vt 0.006455 0.866420
vt 0.006555 0.866439
vt 0.949523 0.795170
vt 0.949423 0.795215
vt 0.949478 0.792694
vt 0.101858 0.866439
vt 0.101858 0.866539
vt 0.101758 0.866439
vt 0.101797 0.719811
vt 0.786594 0.393259
vt 0.790276 0.393159
vt 0.953294 0.387742
vt 0.953212 0.003957
vt 0.953294 0.003859
vt 0.790177 0.401076
vt 0.790277 0.790277
vt 0.790177 0.790343
vt 0.885959 0.393159
vt 0.885987 0.003916
vt 0.886059 0.393358
vt 0.906907 0.401176
vt 0.906956 0.790376
vt 0.906856 0.790376
vt 0.790376 0.389481
vt 0.790276 0.389465
vt 0.790276 0.003959
vt 0.786548 0.003925
vt 0.790376 0.003859
vt 0.006455 0.719810
vt 0.006555 0.719795
vt 0.104409 0.866439
vt 0.104362 0.717320
vt 0.826077 0.986922
vt 0.825890 0.989738
vt 0.825983 0.986903
vt 0.401076 0.393259
vt 0.391562 0.405107
vt 0.388815 0.405170
vt 0.388799 0.405058
vt 0.928232 0.940146
vt 0.930040 0.940030
vt 0.929979 0.940129
vt 0.259840 0.871012
vt 0.254219 0.870912
vt 0.259840 0.870912
vt 0.955164 0.890618
vt 0.955264 0.795314
vt 0.955264 0.890518
vt 0.391636 0.401277
vt 0.391547 0.401277
vt 0.938879 0.933216
vt 0.938785 0.933316
vt 0.210070 0.717269
vt 0.210170 0.719712
vt 0.210070 0.719766
vt 0.003934 0.717314
vt 0.003950 0.866488
vt 0.022580 0.989470
vt 0.022486 0.990990
vt 0.022486 0.989384
vt 0.798000 0.554906
vt 0.893220 0.554819
vt 0.893243 0.554934
vt 0.006503 0.864008
vt 0.101758 0.863943
vt 0.101802 0.864024
vt 0.852792 0.983496
vt 0.852878 0.987235
vt 0.852781 0.987353
vt 0.968822 0.888302
vt 0.968702 0.795161
vt 0.968821 0.795280
vt 0.114867 0.717269
vt 0.114767 0.719710
vt 0.114767 0.717269
vt 0.210170 0.717289
vt 0.212638 0.717269
vt 0.859366 0.392942
vt 0.859435 0.389113
vt 0.859416 0.393026
vt 0.210070 0.866340
vt 0.210170 0.863899
vt 0.949423 0.795314
vt 0.112237 0.717231
vt 0.112236 0.866340
vt 0.941640 0.781420
vt 0.938885 0.781484
vt 0.938816 0.781376
vt 0.978809 0.782413
vt 0.978711 0.784258
vt 0.978714 0.782408
vt 0.968699 0.942725
vt 0.968687 0.948347
vt 0.968638 0.942670
vt 0.951027 0.401076
vt 0.950969 0.784954
vt 0.949423 0.401274
vt 0.909182 0.393259
vt 0.905388 0.393159
vt 0.905388 0.003959
vt 0.870054 0.384455
vt 0.870104 0.003975
vt 0.872926 0.003880
vt 0.909182 0.003859
vt 0.872925 0.384360
vt 0.872925 0.003880
vt 0.874448 0.003979
vt 0.393259 0.003959
vt 0.003859 0.003859
vt 0.003859 0.003959
vt 0.870004 0.384281
vt 0.400976 0.790312
vt 0.400976 0.401076
vt 0.391536 0.790577
vt 0.393191 0.401377
vt 0.391695 0.790674
vt 0.859366 0.003863
vt 0.857816 0.392841
vt 0.857843 0.003963
vt 0.874448 0.384264
vt 0.862286 0.003962
vt 0.862224 0.389120
vt 0.862198 0.392941
vt 0.862286 0.392838
vt 0.870093 0.384357
vt 0.872841 0.380665
vt 0.872875 0.384342
vt 0.893853 0.393194
vt 0.897671 0.003859
vt 0.897671 0.393259
vt 0.882234 0.003927
vt 0.799223 0.983483
vt 0.799207 0.987151
vt 0.796405 0.986701
vt 0.931062 0.401111
vt 0.928287 0.790376
vt 0.928293 0.401144
vt 0.882238 0.393193
vt 0.931068 0.790376
vt 0.870094 0.380661
vt 0.786540 0.393159
vt 0.903062 0.401076
vt 0.862187 0.007637
vt 0.859402 0.007645
vt 0.859455 0.003863
vt 0.941506 0.401078
vt 0.855651 0.983408
vt 0.852891 0.983475
vt 0.903062 0.790376
vt 0.938785 0.401076
vt 0.388716 0.401376
vt 0.388716 0.790576
vt 0.388716 0.401276
vt 0.893836 0.003959
vt 0.391636 0.790677
vt 0.855711 0.987074
vt 0.790276 0.389434
vt 0.401009 0.393150
vt 0.401042 0.389438
vt 0.933311 0.003932
vt 0.933179 0.387656
vt 0.930458 0.387657
vt 0.930515 0.003929
vt 0.905915 0.798165
vt 0.903122 0.941968
vt 0.903118 0.798164
vt 0.784717 0.944054
vt 0.784706 0.798159
vt 0.788430 0.798159
vt 0.905843 0.941968
vt 0.442954 0.983931
vt 0.440222 0.987748
vt 0.440218 0.983962
vt 0.788428 0.944076
vt 0.894925 0.706719
vt 0.894925 0.852424
vt 0.892142 0.852422
vt 0.892146 0.706717
vt 0.801058 0.389712
vt 0.798281 0.393347
vt 0.798260 0.389702
vt 0.442958 0.987717
vt 0.776846 0.798159
vt 0.776856 0.944054
vt 0.773105 0.944054
vt 0.773095 0.798159
vt 0.801034 0.393347
vt 0.141511 0.964850
vt 0.141488 0.874157
vt 0.147526 0.874157
vt 0.147526 0.964868
vt 0.289178 0.870978
vt 0.289164 0.961723
vt 0.283114 0.961705
vt 0.283128 0.870961
vt 0.127728 0.964850
vt 0.133742 0.874157
vt 0.133742 0.964868
vt 0.303061 0.870978
vt 0.303047 0.961723
vt 0.296997 0.961705
vt 0.297011 0.870961
vt 0.127705 0.874157
vt 0.879729 0.985107
vt 0.878605 0.985154
vt 0.878635 0.892808
vt 0.879802 0.892808
vt 0.839134 0.389874
vt 0.839512 0.391377
vt 0.837945 0.390989
vt 0.980283 0.613130
vt 0.979037 0.520814
vt 0.980283 0.520847
vt 0.979153 0.613187
vt 0.981757 0.196442
vt 0.980513 0.104125
vt 0.981642 0.104089
vt 0.980467 0.196442
vt 0.221099 0.991529
vt 0.220720 0.990026
vt 0.222280 0.990408
vt 0.682473 0.975652
vt 0.680582 0.982684
vt 0.680569 0.975625
vt 0.021059 0.966689
vt 0.013858 0.966711
vt 0.013834 0.950619
vt 0.682464 0.982684
vt 0.870057 0.964708
vt 0.868146 0.980747
vt 0.868153 0.964687
vt 0.780292 0.967984
vt 0.773090 0.968006
vt 0.773066 0.951914
vt 0.595988 0.974724
vt 0.595980 0.981845
vt 0.594099 0.981845
vt 0.870063 0.980747
vt 0.594084 0.974700
vt 0.949429 0.980961
vt 0.949423 0.965283
vt 0.951340 0.965285
vt 0.780268 0.951892
vt 0.021035 0.950597
vt 0.951333 0.980990
vt 0.432134 0.987449
vt 0.431009 0.987496
vt 0.431039 0.895150
vt 0.848842 0.389874
vt 0.849220 0.391377
vt 0.847688 0.391004
vt 0.981369 0.386807
vt 0.980123 0.294491
vt 0.981369 0.294525
vt 0.980239 0.386864
vt 0.981757 0.096242
vt 0.980513 0.003925
vt 0.981642 0.003889
vt 0.980467 0.096242
vt 0.432206 0.895149
vt 0.128292 0.991517
vt 0.127913 0.990014
vt 0.129472 0.990396
vt 0.692108 0.975652
vt 0.690215 0.982684
vt 0.690204 0.975625
vt 0.692096 0.982684
vt 0.528653 0.980971
vt 0.528647 0.965292
vt 0.530564 0.965294
vt 0.227747 0.968312
vt 0.220522 0.952241
vt 0.227723 0.952219
vt 0.220546 0.968334
vt 0.015705 0.974545
vt 0.015695 0.981666
vt 0.013814 0.981666
vt 0.542988 0.965322
vt 0.542994 0.981361
vt 0.541077 0.981361
vt 0.013802 0.974521
vt 0.530556 0.980999
vt 0.687827 0.967789
vt 0.680601 0.951719
vt 0.687803 0.951697
vt 0.680625 0.967811
vt 0.541085 0.965301
vt 0.895277 0.401142
vt 0.798061 0.547035
vt 0.798040 0.401164
vt 0.850020 0.157471
vt 0.850026 0.301225
vt 0.798194 0.301239
vt 0.377376 0.717222
vt 0.325574 0.814401
vt 0.325557 0.717201
vt 0.895299 0.547013
vt 0.377365 0.814401
vt 0.850020 0.003952
vt 0.850026 0.149649
vt 0.798194 0.149652
vt 0.798202 0.003932
vt 0.481536 0.893062
vt 0.533319 0.798140
vt 0.533354 0.893132
vt 0.481528 0.798094
vt 0.220551 0.863128
vt 0.220529 0.717257
vt 0.317767 0.717236
vt 0.317788 0.863106
vt 0.798202 0.157461
vt 0.929563 0.798189
vt 0.928232 0.940047
vt 0.970252 0.387541
vt 0.970352 0.294518
vt 0.972099 0.294424
vt 0.797994 0.698782
vt 0.310829 0.964047
vt 0.310829 0.871025
vt 0.316470 0.870933
vt 0.316570 0.871031
vt 0.316570 0.964054
vt 0.868245 0.956915
vt 0.868266 0.956915
vt 0.868146 0.861611
vt 0.220542 0.976265
vt 0.223060 0.981947
vt 0.220652 0.981888
vt 0.893238 0.698810
vt 0.972099 0.387545
vt 0.940669 0.789334
vt 0.940773 0.933107
vt 0.114767 0.863844
vt 0.210070 0.863844
vt 0.773050 0.975885
vt 0.775523 0.981620
vt 0.773084 0.981519
vt 0.210170 0.863943
vt 0.254093 0.966315
vt 0.254099 0.966215
vt 0.254199 0.870912
vt 0.259840 0.966215
vt 0.869993 0.861611
vt 0.869993 0.956815
vt 0.718894 0.976564
vt 0.721332 0.976664
vt 0.721334 0.982284
vt 0.718794 0.982285
vt 0.718794 0.976663
vt 0.892104 0.979812
vt 0.894609 0.979813
vt 0.894611 0.985433
vt 0.963102 0.888372
vt 0.968822 0.888400
vt 0.751752 0.798212
vt 0.745911 0.945131
vt 0.745911 0.798194
vt 0.963057 0.890820
vt 0.968723 0.888422
vt 0.968723 0.890861
vt 0.962982 0.795036
vt 0.751752 0.945149
vt 0.746031 0.945249
vt 0.955145 0.795215
vt 0.949499 0.893115
vt 0.963081 0.795155
vt 0.963081 0.792672
vt 0.968746 0.792729
vt 0.759570 0.945214
vt 0.759634 0.798114
vt 0.765259 0.798122
vt 0.765195 0.945223
vt 0.718794 0.947122
vt 0.724635 0.947145
vt 0.724535 0.947241
vt 0.724635 0.798214
vt 0.718794 0.798194
vt 0.955189 0.792718
vt 0.955164 0.893158
vt 0.738094 0.798125
vt 0.738078 0.947219
vt 0.732408 0.947179
vt 0.732427 0.798144
vt 0.003892 0.918523
vt 0.006064 0.918600
vt 0.006055 0.954876
vt 0.003971 0.874285
vt 0.022970 0.910740
vt 0.003978 0.910751
vt 0.638291 0.961674
vt 0.636097 0.980986
vt 0.636088 0.961685
vt 0.022964 0.874275
vt 0.646057 0.980986
vt 0.646048 0.961685
vt 0.648252 0.961674
vt 0.179962 0.918420
vt 0.182162 0.954852
vt 0.179954 0.954848
vt 0.648261 0.980975
vt 0.003883 0.954951
vt 0.169809 0.874185
vt 0.189065 0.910637
vt 0.169815 0.910650
vt 0.189060 0.874172
vt 0.182170 0.918424
vt 0.638300 0.980975
vt 0.552757 0.877889
vt 0.569407 0.877886
vt 0.569411 0.911791
vt 0.052010 0.874345
vt 0.068887 0.874337
vt 0.068889 0.908243
vt 0.052012 0.908250
vt 0.552758 0.911795
vt 0.979102 0.740676
vt 0.979420 0.774623
vt 0.978779 0.774624
vt 0.961403 0.319810
vt 0.961720 0.353757
vt 0.961085 0.353758
vt 0.958775 0.777133
vt 0.959815 0.777142
vt 0.959286 0.783462
vt 0.988011 0.706561
vt 0.989028 0.706570
vt 0.988510 0.712890
vt 0.988011 0.720769
vt 0.989028 0.720777
vt 0.988510 0.727098
vt 0.976571 0.982318
vt 0.977611 0.982327
vt 0.977082 0.988647
vt 0.861985 0.803665
vt 0.833870 0.853716
vt 0.833871 0.803645
vt 0.861949 0.853731
vt 0.662823 0.929600
vt 0.665057 0.929637
vt 0.665057 0.957669
vt 0.855152 0.909719
vt 0.852844 0.960525
vt 0.852829 0.909736
vt 0.817028 0.960465
vt 0.819357 0.909698
vt 0.819351 0.960448
vt 0.816998 0.909701
vt 0.662805 0.957714
vt 0.566190 0.919597
vt 0.568461 0.947667
vt 0.566138 0.947672
vt 0.855167 0.960508
vt 0.568424 0.919597
vt 0.826085 0.803665
vt 0.797994 0.854362
vt 0.798006 0.803650
vt 0.826093 0.854361
vt 0.384924 0.822223
vt 0.384919 0.870040
vt 0.359108 0.870033
vt 0.359113 0.822211
vt 0.351375 0.822214
vt 0.325551 0.870641
vt 0.325564 0.822198
vt 0.351383 0.870639
vt 0.915105 0.958931
vt 0.915463 0.985904
vt 0.914742 0.985904
vt 0.566522 0.955504
vt 0.566877 0.982475
vt 0.566165 0.982476
vt 0.371166 0.958616
vt 0.371524 0.985588
vt 0.370804 0.985588
vt 0.961443 0.361600
vt 0.961798 0.388571
vt 0.961086 0.388572
vt 0.737830 0.955017
vt 0.738185 0.981988
vt 0.737473 0.981989
vt 0.422872 0.958808
vt 0.423230 0.985781
vt 0.422509 0.985781
vt 0.918475 0.898788
vt 0.914765 0.951119
vt 0.914744 0.898802
vt 0.702768 0.947418
vt 0.706455 0.895072
vt 0.706456 0.947435
vt 0.702748 0.895101
vt 0.918496 0.951105
vt 0.119846 0.874186
vt 0.112267 0.954107
vt 0.112288 0.874173
vt 0.119825 0.954119
vt 0.239276 0.966024
vt 0.241547 0.966036
vt 0.241536 0.973655
vt 0.442590 0.895093
vt 0.440268 0.976130
vt 0.440235 0.895149
vt 0.442623 0.976075
vt 0.275232 0.870940
vt 0.275229 0.951956
vt 0.267645 0.951927
vt 0.325573 0.965979
vt 0.327894 0.965994
vt 0.327886 0.973613
vt 0.267634 0.870956
vt 0.239271 0.973643
vt 0.325565 0.973598
vt 0.450398 0.976075
vt 0.452697 0.895149
vt 0.452697 0.976075
vt 0.450408 0.895093
vt 0.938717 0.947947
vt 0.928293 0.961563
vt 0.928293 0.947940
vt 0.938717 0.961570
vt 0.076619 0.961802
vt 0.083761 0.961802
vt 0.083761 0.972120
vt 0.725962 0.955130
vt 0.725963 0.968760
vt 0.718800 0.968770
vt 0.091478 0.961809
vt 0.098457 0.972120
vt 0.091478 0.972128
vt 0.702683 0.968889
vt 0.709844 0.955251
vt 0.709846 0.968880
vt 0.062486 0.950635
vt 0.052061 0.964070
vt 0.052061 0.950629
vt 0.062485 0.964075
vt 0.098457 0.961802
vt 0.718798 0.955140
vt 0.702681 0.955260
vt 0.076619 0.972120
vt 0.579802 0.972488
vt 0.583849 0.967270
vt 0.583787 0.970790
vt 0.577651 0.970762
vt 0.577615 0.967262
vt 0.581769 0.972511
vt 0.580742 0.965370
vt 0.387833 0.972515
vt 0.385141 0.972083
vt 0.383376 0.969062
vt 0.385107 0.965872
vt 0.388712 0.965943
vt 0.390401 0.969067
vt 0.389564 0.971474
vt 0.988201 0.593268
vt 0.988306 0.599918
vt 0.988035 0.599915
vt 0.988996 0.267059
vt 0.988860 0.273624
vt 0.988759 0.267033
vt 0.988991 0.210915
vt 0.988856 0.217481
vt 0.988754 0.210890
vt 0.988208 0.444736
vt 0.988313 0.451385
vt 0.988042 0.451382
vt 0.988344 0.459170
vt 0.988178 0.465815
vt 0.988073 0.459164
vt 0.988873 0.225256
vt 0.988959 0.231834
vt 0.988753 0.231834
vt 0.989423 0.294495
vt 0.989287 0.301061
vt 0.989186 0.294470
vt 0.988208 0.473598
vt 0.988313 0.480247
vt 0.988042 0.480244
vt 0.988201 0.578838
vt 0.988306 0.585487
vt 0.988035 0.585484
vt 0.988996 0.252705
vt 0.988860 0.259271
vt 0.988759 0.252680
vt 0.989423 0.308849
vt 0.989287 0.315414
vt 0.989186 0.308823
vt 0.988201 0.564407
vt 0.988306 0.571056
vt 0.988035 0.571053
vt 0.670879 0.982701
vt 0.672228 0.988372
vt 0.670884 0.988379
vt 0.672223 0.982694
vt 0.833832 0.983451
vt 0.835158 0.983444
vt 0.835163 0.989122
vt 0.833837 0.989129
vt 0.835085 0.975556
vt 0.833833 0.966330
vt 0.835072 0.966316
vt 0.833846 0.975569
vt 0.672130 0.974806
vt 0.670878 0.965580
vt 0.672117 0.965567
vt 0.670891 0.974820
vt 0.799269 0.975595
vt 0.798017 0.966369
vt 0.799255 0.966356
vt 0.844101 0.975556
vt 0.842862 0.975569
vt 0.842849 0.966330
vt 0.798030 0.975608
vt 0.844088 0.966316
vt 0.914729 0.890962
vt 0.914673 0.716719
vt 0.920314 0.716722
vt 0.922683 0.003947
vt 0.916944 0.307666
vt 0.916956 0.003940
vt 0.182185 0.401255
vt 0.003869 0.709373
vt 0.003867 0.401264
vt 0.922707 0.307661
vt 0.189924 0.709373
vt 0.368240 0.401255
vt 0.368242 0.709364
vt 0.920456 0.890975
vt 0.189921 0.401264
vt 0.920456 0.401160
vt 0.914717 0.708990
vt 0.914729 0.401152
vt 0.182188 0.709364
vt 0.884331 0.706678
vt 0.884287 0.884990
vt 0.878646 0.884990
vt 0.920480 0.708987
vt 0.878604 0.706669
vt 0.945364 0.003894
vt 0.941153 0.307732
vt 0.941213 0.003878
vt 0.945304 0.307746
vt 0.380236 0.401209
vt 0.376055 0.709149
vt 0.376043 0.401223
vt 0.380232 0.709180
vt 0.808910 0.389700
vt 0.811131 0.389684
vt 0.811135 0.392805
vt 0.207851 0.962057
vt 0.210945 0.874187
vt 0.210918 0.962089
vt 0.972649 0.003859
vt 0.970323 0.092937
vt 0.970316 0.003859
vt 0.207915 0.874187
vt 0.818872 0.389700
vt 0.821126 0.392805
vt 0.818874 0.392821
vt 0.970289 0.286707
vt 0.970311 0.197638
vt 0.972586 0.197669
vt 0.808896 0.392807
vt 0.972622 0.092897
vt 0.199993 0.874227
vt 0.199963 0.963225
vt 0.196854 0.963223
vt 0.821124 0.389684
vt 0.196886 0.874217
vt 0.972586 0.286707
vt 0.617515 0.887252
vt 0.594103 0.798175
vt 0.617507 0.798161
vt 0.594111 0.887265
vt 0.506549 0.954104
vt 0.506542 0.977136
vt 0.503652 0.977136
vt 0.033632 0.874336
vt 0.033632 0.963379
vt 0.030735 0.963378
vt 0.030737 0.874322
vt 0.679872 0.887252
vt 0.656461 0.798174
vt 0.679864 0.798161
vt 0.970925 0.760137
vt 0.970974 0.783488
vt 0.968084 0.783489
vt 0.968141 0.760124
vt 0.337169 0.965388
vt 0.340065 0.878382
vt 0.340063 0.965407
vt 0.503654 0.954092
vt 0.337169 0.878379
vt 0.656469 0.887265
vt 0.577215 0.877870
vt 0.581061 0.957529
vt 0.577189 0.957528
vt 0.080575 0.979871
vt 0.076692 0.983834
vt 0.076683 0.979903
vt 0.581061 0.877902
vt 0.383392 0.877929
vt 0.387207 0.877925
vt 0.387207 0.957551
vt 0.100029 0.874257
vt 0.103924 0.953918
vt 0.100033 0.953915
vt 0.581066 0.984129
vt 0.577144 0.984164
vt 0.577144 0.980272
vt 0.076686 0.874326
vt 0.080573 0.954049
vt 0.076680 0.954018
vt 0.581053 0.980272
vt 0.103924 0.874257
vt 0.383390 0.957586
vt 0.080610 0.983828
vt 0.080576 0.874357
vt 0.481580 0.900975
vt 0.495875 0.927574
vt 0.481582 0.927581
vt 0.495870 0.900968
vt 0.052055 0.916138
vt 0.063046 0.916138
vt 0.063041 0.942741
vt 0.691748 0.929542
vt 0.680563 0.943924
vt 0.680563 0.929542
vt 0.833810 0.958520
vt 0.833810 0.944138
vt 0.844995 0.944138
vt 0.833822 0.909727
vt 0.845052 0.936343
vt 0.833819 0.936331
vt 0.844995 0.958520
vt 0.636124 0.895138
vt 0.650582 0.895127
vt 0.650588 0.921734
vt 0.636127 0.921743
vt 0.052045 0.942743
vt 0.691748 0.943924
vt 0.845055 0.909738
vt 0.968434 0.960256
vt 0.968407 0.970966
vt 0.959660 0.970966
vt 0.959636 0.960253
vt 0.490388 0.957551
vt 0.481616 0.968398
vt 0.481590 0.957549
vt 0.490363 0.968398
vt 0.825250 0.968308
vt 0.825752 0.968303
vt 0.825495 0.978624
vt 0.299901 0.969541
vt 0.300421 0.969590
vt 0.300121 0.979837
vt 0.031160 0.971319
vt 0.031564 0.981065
vt 0.030878 0.980996
vt 0.061163 0.971964
vt 0.061436 0.981562
vt 0.060736 0.981573
vt 0.988069 0.640472
vt 0.988587 0.640518
vt 0.988288 0.648961
vt 0.959999 0.978742
vt 0.960366 0.987187
vt 0.959702 0.987185
vt 0.481980 0.976174
vt 0.482339 0.984616
vt 0.481638 0.984617
vt 0.230858 0.976161
vt 0.231383 0.976206
vt 0.231103 0.984653
vt 0.197385 0.993222
vt 0.196851 0.993242
vt 0.197114 0.988642
vt 0.594541 0.993278
vt 0.594078 0.989731
vt 0.594890 0.989676
vt 0.541616 0.989190
vt 0.542033 0.992853
vt 0.541235 0.992811
vt 0.636638 0.993410
vt 0.636096 0.993393
vt 0.636387 0.988855
vt 0.842963 0.983440
vt 0.844797 0.987672
vt 0.842945 0.987655
vt 0.844815 0.983457
vt 0.207835 0.984943
vt 0.209646 0.984959
vt 0.209626 0.989174
vt 0.207818 0.989158
vt 0.145809 0.972679
vt 0.146177 0.982332
vt 0.145447 0.982311
vt 0.978815 0.621002
vt 0.979313 0.620997
vt 0.979051 0.631317
vt 0.039820 0.971300
vt 0.040075 0.980882
vt 0.039413 0.980948
vt 0.936694 0.969418
vt 0.937220 0.969460
vt 0.936924 0.979718
vt 0.986776 0.862354
vt 0.987297 0.862399
vt 0.987012 0.870845
vt 0.469395 0.976486
vt 0.469753 0.984930
vt 0.469053 0.984929
vt 0.987194 0.621001
vt 0.987718 0.621047
vt 0.987423 0.629495
vt 0.703102 0.976746
vt 0.703469 0.985183
vt 0.702805 0.985188
vt 0.283630 0.992273
vt 0.283096 0.992293
vt 0.283359 0.987692
vt 0.652979 0.993378
vt 0.652422 0.993385
vt 0.652726 0.988864
vt 0.311289 0.993114
vt 0.310843 0.989459
vt 0.311635 0.989495
vt 0.052468 0.989496
vt 0.052908 0.993037
vt 0.052086 0.993088
vt 0.503695 0.984929
vt 0.505506 0.984945
vt 0.505486 0.989160
vt 0.503678 0.989144
vt 0.450807 0.983866
vt 0.452641 0.988099
vt 0.450788 0.988081
vt 0.452659 0.983884
vt 0.655017 0.953786
vt 0.649428 0.929630
vt 0.655008 0.929615
vt 0.019402 0.942733
vt 0.013812 0.918577
vt 0.019393 0.918562
vt 0.013821 0.942748
vt 0.649436 0.953801
vt 0.044270 0.874336
vt 0.041373 0.963379
vt 0.041375 0.874322
vt 0.711051 0.887252
vt 0.687648 0.887265
vt 0.687640 0.798175
vt 0.044270 0.963379
vt 0.519107 0.954108
vt 0.519100 0.977139
vt 0.516210 0.977139
vt 0.711043 0.798161
vt 0.516212 0.954096
vt 0.648694 0.887252
vt 0.625290 0.887265
vt 0.625282 0.798174
vt 0.648686 0.798161
vt 0.748752 0.953015
vt 0.745911 0.976367
vt 0.745968 0.953003
vt 0.748801 0.976367
vt 0.347807 0.965388
vt 0.350703 0.878382
vt 0.350701 0.965407
vt 0.347807 0.878379
vt 0.359171 0.877898
vt 0.363017 0.957556
vt 0.359145 0.957556
vt 0.363017 0.877929
vt 0.325623 0.878458
vt 0.329438 0.878454
vt 0.329438 0.958080
vt 0.095501 0.979945
vt 0.091552 0.983841
vt 0.091543 0.979911
vt 0.387242 0.984158
vt 0.383320 0.980301
vt 0.387229 0.980301
vt 0.088360 0.874326
vt 0.092251 0.874357
vt 0.092248 0.954049
vt 0.088354 0.954018
vt 0.325621 0.958115
vt 0.095470 0.983835
vt 0.383320 0.984193
vt 0.541138 0.877801
vt 0.545034 0.877801
vt 0.545034 0.957463
vt 0.541142 0.957460
vt 0.481528 0.949761
vt 0.481528 0.935379
vt 0.492713 0.935379
vt 0.680615 0.895138
vt 0.694905 0.895131
vt 0.694910 0.921736
vt 0.680618 0.921743
vt 0.798006 0.909766
vt 0.809235 0.936382
vt 0.798003 0.936370
vt 0.220538 0.917753
vt 0.231525 0.944357
vt 0.220529 0.944358
vt 0.231530 0.917753
vt 0.809179 0.944177
vt 0.809179 0.958559
vt 0.797994 0.958559
vt 0.658370 0.895138
vt 0.672828 0.895127
vt 0.672833 0.921734
vt 0.797994 0.944178
vt 0.809238 0.909777
vt 0.658372 0.921743
vt 0.492713 0.949761
vt 0.469274 0.957863
vt 0.469250 0.968710
vt 0.460503 0.968710
vt 0.460477 0.957861
vt 0.409836 0.959584
vt 0.401062 0.970294
vt 0.401038 0.959581
vt 0.409809 0.970294
vt 0.197254 0.971049
vt 0.197658 0.980796
vt 0.196972 0.980727
vt 0.311366 0.971979
vt 0.311640 0.981577
vt 0.310939 0.981589
vt 0.291524 0.969541
vt 0.292044 0.969590
vt 0.291744 0.979837
vt 0.978814 0.501333
vt 0.979316 0.501327
vt 0.979059 0.511648
vt 0.490508 0.976174
vt 0.490867 0.984616
vt 0.490166 0.984617
vt 0.103336 0.979899
vt 0.103854 0.979945
vt 0.103555 0.988389
vt 0.409911 0.978070
vt 0.410278 0.986515
vt 0.409614 0.986513
vt 0.968165 0.978739
vt 0.968690 0.978784
vt 0.968409 0.987231
vt 0.039851 0.993354
vt 0.039317 0.993374
vt 0.039581 0.988774
vt 0.529212 0.993410
vt 0.528670 0.993394
vt 0.528960 0.988855
vt 0.773492 0.993057
vt 0.773028 0.989510
vt 0.773840 0.989456
vt 0.031134 0.988945
vt 0.031551 0.992609
vt 0.030753 0.992567
vt 0.807064 0.985103
vt 0.808875 0.985119
vt 0.808855 0.989334
vt 0.807047 0.989318
vt 0.903118 0.984171
vt 0.904970 0.984189
vt 0.904952 0.988404
vt 0.903100 0.988386
vt 0.052536 0.971952
vt 0.052790 0.981534
vt 0.052128 0.981601
vt 0.337641 0.973242
vt 0.338009 0.982895
vt 0.337280 0.982874
vt 0.928316 0.969416
vt 0.928814 0.969411
vt 0.928552 0.979731
vt 0.283141 0.969546
vt 0.283667 0.969588
vt 0.283371 0.979846
vt 0.401401 0.978075
vt 0.401768 0.986511
vt 0.401104 0.986516
vt 0.987218 0.774349
vt 0.987742 0.774395
vt 0.987448 0.782843
vt 0.460867 0.976485
vt 0.461225 0.984930
vt 0.460525 0.984929
vt 0.987203 0.501332
vt 0.987724 0.501376
vt 0.987439 0.509823
vt 0.868713 0.993120
vt 0.868178 0.993140
vt 0.868442 0.988540
vt 0.949989 0.993368
vt 0.949431 0.993375
vt 0.949737 0.988855
vt 0.061169 0.989489
vt 0.061609 0.993029
vt 0.060787 0.993080
vt 0.014256 0.993140
vt 0.013810 0.989486
vt 0.014602 0.989522
vt 0.745968 0.984158
vt 0.747802 0.988391
vt 0.745949 0.988373
vt 0.516253 0.984932
vt 0.518064 0.984949
vt 0.518044 0.989164
vt 0.516236 0.989148
vt 0.747820 0.984176
vt 0.641678 0.953786
vt 0.636089 0.929630
vt 0.641670 0.929615
vt 0.636097 0.953801
vt 0.558356 0.943844
vt 0.552776 0.943859
vt 0.552767 0.919687
vt 0.558348 0.919672
vt 0.894293 0.972011
vt 0.892164 0.972058
vt 0.892193 0.860242
vt 0.894433 0.860241
vt 0.328133 0.981812
vt 0.328845 0.984661
vt 0.325909 0.983977
vt 0.971013 0.632600
vt 0.968609 0.520815
vt 0.971013 0.520848
vt 0.968820 0.632657
vt 0.970605 0.752271
vt 0.968194 0.640484
vt 0.970383 0.640448
vt 0.968148 0.752271
vt 0.240470 0.984945
vt 0.239790 0.982081
vt 0.242697 0.982799
vt 0.169841 0.958776
vt 0.169812 0.918392
vt 0.172161 0.918390
vt 0.552826 0.951714
vt 0.555056 0.951750
vt 0.555056 0.978321
vt 0.824705 0.862171
vt 0.798060 0.901971
vt 0.798056 0.862154
vt 0.172158 0.958760
vt 0.552808 0.978364
vt 0.903097 0.949694
vt 0.905396 0.949708
vt 0.905429 0.976318
vt 0.860423 0.861604
vt 0.833810 0.901931
vt 0.833818 0.861590
vt 0.860428 0.901930
vt 0.241630 0.917733
vt 0.241645 0.958142
vt 0.239329 0.958158
vt 0.903113 0.976320
vt 0.239313 0.917749
vt 0.824678 0.901971
vt 0.596446 0.895118
vt 0.594159 0.966945
vt 0.594178 0.895099
vt 0.976606 0.879707
vt 0.976588 0.792686
vt 0.978908 0.792684
vt 0.473803 0.887295
vt 0.400983 0.798131
vt 0.473807 0.798166
vt 0.596393 0.966945
vt 0.972620 0.100789
vt 0.970318 0.189849
vt 0.970318 0.100783
vt 0.870821 0.795816
vt 0.797997 0.795781
vt 0.798001 0.706652
vt 0.400980 0.887260
vt 0.972638 0.189847
vt 0.943464 0.315545
vt 0.941192 0.388336
vt 0.941196 0.315524
vt 0.943426 0.388336
vt 0.870825 0.706687
vt 0.978908 0.879717
vt 0.586331 0.798115
vt 0.541107 0.870064
vt 0.541110 0.798117
vt 0.586328 0.870063
vt 0.516217 0.900971
vt 0.520909 0.900976
vt 0.520899 0.946239
vt 0.921731 0.315434
vt 0.916935 0.388377
vt 0.916929 0.315435
vt 0.921738 0.388376
vt 0.843447 0.308978
vt 0.843445 0.381900
vt 0.798224 0.381891
vt 0.516211 0.946233
vt 0.370771 0.950806
vt 0.370764 0.877864
vt 0.375566 0.877863
vt 0.798226 0.308969
vt 0.375573 0.950805
vt 0.503666 0.900965
vt 0.508466 0.900976
vt 0.508457 0.946239
vt 0.503657 0.946228
vt 0.949429 0.957456
vt 0.949426 0.900889
vt 0.951851 0.900887
vt 0.423209 0.895139
vt 0.415987 0.950956
vt 0.415995 0.895132
vt 0.423201 0.950962
vt 0.852798 0.968361
vt 0.855198 0.975566
vt 0.852793 0.975576
vt 0.207807 0.969897
vt 0.210084 0.969875
vt 0.210088 0.977111
vt 0.951854 0.957455
vt 0.207798 0.977111
vt 0.531074 0.900996
vt 0.531077 0.957564
vt 0.528653 0.957565
vt 0.855203 0.968351
vt 0.408222 0.895136
vt 0.401000 0.951707
vt 0.401008 0.895127
vt 0.408214 0.951715
vt 0.528650 0.900998
vt 0.995128 0.808613
vt 0.995042 0.800696
vt 0.995042 0.816541
vt 0.938906 0.789203
vt 0.953194 0.387736
vt 0.790277 0.401076
vt 0.857811 0.003891
vt 0.796371 0.983422
vt 0.826077 0.989845
vt 0.798018 0.698897
vt 0.886059 0.393259
vt 0.790476 0.003859
vt 0.022594 0.991029
vt 0.220598 0.981889
vt 0.897671 0.393343
vt 0.773028 0.981624
vt 0.137503 0.991178
vt 0.137408 0.991198
vt 0.137503 0.989653
vt 0.978809 0.784363
vt 0.968699 0.948367
vt 0.393259 0.003874
vt 0.003939 0.393278
vt 0.872844 0.003859
vt 0.393259 0.393359
vt 0.003958 0.393359
vt 0.388715 0.401176
vt 0.316450 0.964162
vt 0.868245 0.861512
vt 0.868146 0.956815
vt 0.718913 0.982405
vt 0.892104 0.985433
vt 0.892222 0.985553
vt 0.775626 0.975899
vt 0.775507 0.975779
vt 0.751633 0.798094
vt 0.751652 0.945247
vt 0.223060 0.976225
vt 0.222940 0.976107
vt 0.718914 0.947241
vt 0.724515 0.798094
s 1
usemtl fuel_urban_001_baked
f 2/1/1 1/2/1 3/3/1
f 2/1/1 3/3/1 4/4/1
f 5/5/1 6/6/1 7/7/1
f 5/5/1 7/7/1 8/8/1
f 9/9/1 10/10/1 11/11/1
f 9/9/1 11/11/1 12/12/1
f 13/13/1 14/14/1 15/15/1
f 13/13/1 15/15/1 16/16/1
f 17/17/2 19/18/3 20/19/4
f 45/20/5 47/21/5 21/22/5
f 56/23/6 58/24/7 59/25/8
f 115/26/9 117/27/9 118/28/9
f 121/29/10 123/30/10 124/31/10
f 129/32/11 131/33/12 128/34/13
f 132/35/14 114/36/14 134/37/14
f 135/38/15 137/39/16 138/40/17
f 140/41/18 142/42/18 139/43/18
f 150/44/19 152/45/19 149/46/19
f 155/47/20 156/48/20 157/49/20
f 159/50/21 160/51/21 158/52/21
f 162/53/22 164/54/22 161/55/22
f 166/56/23 168/57/24 165/58/25
f 169/59/26 171/60/26 172/61/26
f 142/42/27 143/62/28 139/43/29
f 60/63/30 57/64/30 56/23/30
f 45/65/31 17/66/31 20/67/31
f 30/68/32 27/69/33 28/70/33
f 35/71/34 38/72/34 32/73/34
f 39/74/35 40/75/36 41/76/37
f 51/77/38 58/24/38 50/78/38
f 33/79/39 53/80/40 34/81/41
f 158/52/42 132/35/42 134/37/42
f 155/47/43 140/41/43 139/43/43
f 145/82/44 156/48/44 144/83/44
f 170/84/45 142/42/46 141/85/47
f 49/86/48 45/87/48 48/88/48
f 49/89/49 56/23/6 59/25/8
f 55/90/50 61/91/51 60/92/52
f 115/93/53 125/94/53 126/95/53
f 144/96/54 132/97/55 145/98/56
f 171/99/57 161/100/57 172/101/57
f 33/79/7 58/24/7 57/64/7
f 42/102/58 55/90/59 43/103/60
f 129/32/61 121/104/61 124/105/61
f 149/106/62 130/107/62 129/108/62
f 153/109/63 164/54/64 163/110/65
f 19/111/66 27/112/66 20/113/66
f 114/114/67 120/115/68 119/116/69
f 146/117/70 148/118/71 147/119/72
f 41/120/73 47/121/73 46/122/73
f 134/37/74 118/28/75 117/27/9
f 136/123/76 159/124/76 158/125/76
f 167/126/77 116/127/77 168/128/77
f 138/40/17 152/129/78 151/130/79
f 25/131/80 37/132/81 26/133/82
f 136/134/83 122/135/83 137/39/83
f 167/136/84 150/44/84 149/46/84
f 165/137/25 160/51/85 154/138/86
f 39/139/87 51/140/88 50/141/89
f 120/142/90 123/143/90 119/144/90
f 148/145/91 130/146/91 147/147/91
f 20/148/92 21/149/93 28/150/94
f 19/151/95 18/152/96 37/153/81
f 32/154/97 38/155/97 17/156/97
f 19/151/98 37/153/98 25/157/98
f 25/158/99 19/159/99 27/160/99
f 24/161/100 20/162/100 19/163/100
f 35/164/101 32/154/101 17/156/101
f 28/70/94 21/165/93 23/166/102
f 47/167/103 23/168/102 21/169/93
f 47/167/104 44/102/104 23/168/104
f 42/170/4 30/171/4 22/172/4
f 28/70/94 23/166/102 30/68/105
f 25/158/99 27/160/99 29/173/99
f 42/170/4 58/174/4 24/131/4
f 36/175/106 34/176/107 26/133/82
f 33/177/108 26/133/108 58/174/108
f 34/178/109 54/179/109 26/180/109
f 54/181/110 42/182/111 24/183/112
f 36/175/106 26/133/82 37/132/81
f 42/170/113 24/131/113 30/171/113
f 35/71/114 31/184/115 38/72/116
f 38/185/116 31/186/115 18/187/96
f 31/188/115 37/189/81 18/190/96
f 35/71/114 36/191/106 31/184/115
f 31/188/115 36/192/106 37/189/81
f 34/178/117 53/193/40 54/179/110
f 33/79/39 57/64/118 61/194/51
f 33/79/39 61/194/51 53/80/40
f 41/76/119 44/195/120 39/74/121
f 58/174/122 51/196/88 39/197/87
f 58/174/122 39/197/87 43/198/123
f 50/141/124 40/199/36 39/139/35
f 52/200/125 46/122/126 40/201/36
f 41/76/119 47/202/127 44/195/120
f 50/141/124 52/203/125 40/199/36
f 57/204/128 43/103/128 60/92/128
f 49/205/129 58/206/129 43/103/129
f 60/92/130 43/103/60 55/90/59
f 54/181/110 55/207/50 42/182/111
f 49/205/131 47/167/131 46/208/131
f 52/200/125 48/209/132 46/122/126
f 50/210/124 48/211/132 52/212/125
f 50/210/133 59/25/133 48/211/133
f 53/213/40 61/214/51 55/215/50
f 53/213/40 55/215/50 54/216/110
f 68/217/134 62/218/135 69/219/136
f 69/220/136 62/221/135 65/222/137
f 68/217/134 67/223/138 62/218/135
f 67/224/138 65/225/137 62/226/135
f 69/220/136 65/222/137 63/227/139
f 64/228/140 66/229/141 63/230/139
f 64/228/140 63/230/139 65/231/137
f 66/232/141 69/233/136 63/234/139
f 67/224/138 64/235/140 65/225/137
f 66/236/141 64/237/140 67/238/138
f 66/236/141 67/238/138 68/239/134
f 66/232/141 68/240/134 69/233/136
f 72/241/142 73/242/143 71/243/144
f 72/241/142 71/243/144 70/244/145
f 70/245/145 71/246/144 73/247/143
f 70/245/145 73/247/143 72/248/142
f 76/249/146 75/250/144 74/251/147
f 74/252/147 75/253/144 77/254/148
f 74/252/147 77/254/148 76/255/146
f 76/249/146 77/256/148 75/250/144
f 78/257/149 79/258/150 82/259/151
f 78/257/149 82/259/151 81/260/152
f 79/261/150 78/262/149 83/263/153
f 79/264/150 80/265/154 82/266/151
f 79/264/150 83/267/153 80/265/154
f 83/268/153 81/269/152 80/270/154
f 83/268/153 78/271/149 81/269/152
f 80/272/154 81/273/152 82/274/151
f 86/275/155 84/276/156 87/277/157
f 87/278/158 84/279/159 88/280/160
f 86/275/155 90/281/161 84/276/156
f 90/282/161 88/283/162 84/284/156
f 89/285/163 85/286/164 90/287/165
f 85/288/166 89/289/167 91/290/168
f 90/282/161 85/291/166 88/283/162
f 85/288/166 91/290/168 88/292/162
f 89/293/167 86/294/155 87/295/157
f 89/285/163 90/287/165 86/296/169
f 87/278/158 88/280/160 91/297/170
f 89/293/167 87/295/157 91/298/168
f 97/299/149 92/300/150 96/301/171
f 92/302/150 97/303/149 93/304/153
f 92/305/150 94/306/154 96/307/171
f 92/305/150 93/308/153 94/306/154
f 93/309/153 95/310/152 94/311/154
f 93/309/153 97/312/149 95/310/152
f 97/299/149 96/301/171 95/313/152
f 94/314/154 95/315/152 96/316/171
f 98/317/155 104/318/156 101/319/157
f 98/317/155 105/320/161 104/318/156
f 100/321/167 98/322/155 101/323/157
f 100/324/163 105/325/165 98/326/169
f 100/324/163 99/327/164 105/325/165
f 99/328/166 100/329/167 102/330/172
f 105/331/161 99/332/166 103/333/162
f 99/328/166 102/330/172 103/334/162
f 100/321/167 101/323/157 102/335/172
f 101/336/158 103/337/160 102/338/170
f 101/336/158 104/339/159 103/337/160
f 105/331/161 103/333/162 104/340/156
f 108/341/173 106/342/174 110/343/175
f 110/344/175 106/345/174 113/346/176
f 106/347/174 109/348/177 113/349/176
f 108/341/173 107/350/178 106/342/174
f 106/347/174 107/351/178 109/348/177
f 107/352/178 108/353/173 112/354/179
f 107/352/178 112/354/179 109/355/177
f 108/356/173 111/357/180 112/358/179
f 108/356/173 110/359/175 111/357/180
f 111/360/180 113/361/176 109/362/177
f 111/360/180 109/362/177 112/363/179
f 110/344/175 113/346/176 111/364/180
f 114/365/181 125/94/182 118/366/75
f 120/367/68 114/368/67 133/369/183
f 119/116/184 125/370/182 114/114/181
f 117/27/127 167/126/127 149/106/127
f 148/371/71 146/372/70 115/373/185
f 134/37/127 117/27/127 129/108/127
f 117/374/99 129/375/99 148/371/71
f 131/376/186 130/377/186 117/378/186
f 117/27/127 149/106/127 129/108/127
f 146/379/187 168/380/188 116/381/187
f 119/116/184 127/382/189 125/370/182
f 120/367/68 133/369/183 123/383/99
f 127/384/189 119/385/184 124/105/190
f 158/52/191 133/386/191 123/387/191
f 143/388/192 137/389/192 122/390/192
f 158/52/127 123/387/127 136/134/127
f 129/108/193 124/391/193 123/387/193
f 121/392/99 123/393/99 133/394/99
f 144/96/194 143/395/28 121/392/195
f 127/384/189 124/105/190 128/34/196
f 126/396/197 127/397/198 131/376/199
f 169/398/200 147/399/201 130/400/202
f 150/401/4 171/402/4 130/400/202
f 156/403/1 145/404/1 132/405/1
f 140/406/203 136/123/203 137/407/203
f 142/408/1 152/409/1 137/410/1
f 141/411/47 135/412/15 138/413/17
f 139/43/204 144/83/204 157/49/204
f 139/43/29 143/62/28 144/83/194
f 157/414/205 159/124/205 140/406/206
f 169/415/1 150/416/207 152/409/1
f 147/119/208 161/55/209 146/117/210
f 147/119/208 172/61/211 161/55/209
f 162/417/212 167/136/212 168/57/212
f 171/99/213 151/418/213 150/44/213
f 162/417/214 171/99/214 150/44/214
f 156/419/215 153/420/63 154/421/86
f 153/422/63 163/423/65 165/424/25
f 153/422/63 165/424/25 154/425/86
f 156/419/216 154/421/216 159/124/216
f 160/426/217 155/427/217 156/428/217
f 164/429/4 160/426/4 168/430/4
f 163/431/65 166/56/23 165/58/25
f 171/99/218 170/432/45 151/418/79
f 170/433/45 141/434/47 138/435/17
f 170/433/45 138/435/17 151/436/79
f 177/437/219 173/438/220 175/439/221
f 173/440/220 174/441/222 175/442/221
f 177/443/219 179/444/223 173/445/220
f 173/440/220 179/446/223 174/441/222
f 175/447/221 174/448/222 180/449/224
f 179/450/223 180/451/224 174/452/222
f 175/447/221 180/449/224 178/453/225
f 177/437/219 175/439/221 178/454/225
f 176/455/226 178/456/225 180/457/224
f 176/455/226 177/458/219 178/456/225
f 179/450/223 176/459/226 180/451/224
f 177/443/219 176/460/226 179/444/223
f 182/461/227 181/462/228 184/463/229
f 181/464/228 182/465/227 183/466/230
f 181/464/228 183/466/230 184/467/229
f 182/461/227 184/463/229 183/468/230
f 186/469/231 187/470/231 185/471/231
f 186/472/231 185/473/231 187/474/231
f 188/475/231 189/476/231 190/477/231
f 189/478/231 188/479/231 190/480/231
f 193/481/231 191/482/231 192/483/231
f 191/484/231 193/485/231 192/486/231
f 194/487/232 198/488/233 195/489/234
f 194/487/232 196/490/235 198/488/233
f 199/491/236 194/492/232 195/493/234
f 199/494/236 196/495/235 194/496/232
f 195/497/234 197/498/237 201/499/238
f 195/497/234 198/500/233 197/498/237
f 199/491/236 195/493/234 201/501/238
f 196/502/235 197/503/237 198/504/233
f 199/494/236 200/505/239 196/495/235
f 196/502/235 200/506/239 197/503/237
f 200/507/239 201/508/238 197/509/237
f 200/507/239 199/510/236 201/508/238
f 202/511/240 204/512/241 203/513/242
f 202/511/240 203/513/242 205/514/243
f 204/515/241 205/516/243 203/517/242
f 204/515/241 202/518/240 205/516/243
f 207/519/231 208/520/231 206/521/231
f 207/522/231 206/523/231 208/524/231
f 209/525/231 211/526/231 210/527/231
f 209/528/231 210/529/231 211/530/231
f 214/531/231 212/532/231 213/533/231
f 214/534/231 213/535/231 212/536/231
f 216/537/244 217/538/245 215/539/246
f 215/540/246 218/541/247 216/542/244
f 215/540/246 217/543/245 218/541/247
f 216/537/244 218/544/247 217/538/245
f 219/545/248 224/546/249 223/547/250
f 219/545/248 222/548/251 224/546/249
f 221/549/252 219/550/248 223/551/250
f 221/552/252 222/553/251 219/554/248
f 221/552/252 220/555/253 222/553/251
f 220/556/253 221/557/252 226/558/254
f 222/559/251 220/560/253 225/561/255
f 220/556/253 226/558/254 225/562/255
f 221/549/252 223/551/250 226/563/254
f 222/559/251 225/561/255 224/564/249
f 223/565/250 225/566/255 226/567/254
f 223/565/250 224/568/249 225/566/255
f 227/569/256 228/570/257 234/571/258
f 227/569/256 231/572/259 228/570/257
f 232/573/260 227/574/256 234/575/258
f 231/576/259 227/577/256 232/578/260
f 231/579/259 230/580/261 228/581/257
f 230/582/261 234/583/258 228/584/257
f 229/585/262 233/586/263 230/587/261
f 229/585/262 232/588/260 233/586/263
f 231/579/259 229/589/262 230/580/261
f 231/576/259 232/578/260 229/590/262
f 230/582/261 233/591/263 234/583/258
f 232/573/260 234/575/258 233/592/263
f 235/593/264 238/594/265 236/595/266
f 235/593/264 240/596/267 239/597/268
f 235/593/264 236/595/266 237/598/269
f 235/593/264 241/599/270 238/594/265
f 235/593/264 239/597/268 241/599/270
f 237/600/269 236/601/266 238/602/265
f 237/600/269 241/603/270 239/604/268
f 237/600/269 239/604/268 240/605/267
f 237/600/269 240/605/267 235/606/264
f 237/600/269 238/602/265 241/603/270
f 242/607/271 243/608/272 244/609/273
f 243/610/272 242/611/271 244/612/273
f 246/613/274 245/614/275 247/615/274
f 245/616/275 246/617/274 247/618/274
f 250/619/127 249/620/127 248/621/127
f 249/622/127 250/623/127 248/624/127
f 253/625/231 251/626/231 252/627/231
f 251/628/231 253/629/231 252/630/231
f 255/631/214 254/632/214 256/633/214
f 254/634/214 255/635/214 256/636/214
f 257/637/231 258/638/231 259/639/231
f 258/640/231 257/641/231 259/642/231
f 260/643/276 263/644/277 262/645/278
f 260/643/276 261/646/279 263/644/277
f 261/647/279 260/648/276 262/649/278
f 261/647/279 262/649/278 263/650/277
f 266/651/280 265/652/281 264/653/282
f 266/651/280 267/654/283 265/652/281
f 264/655/282 267/656/283 266/657/280
f 264/655/282 265/658/281 267/656/283
f 271/659/280 269/660/281 268/661/282
f 268/662/282 269/663/281 270/664/283
f 271/659/280 270/665/283 269/660/281
f 268/662/282 270/664/283 271/666/280
f 279/667/284 272/668/285 273/669/286
f 272/670/285 278/671/287 273/672/286
f 279/673/284 276/674/288 272/675/285
f 272/670/285 276/676/288 278/671/287
f 273/677/286 277/678/289 275/679/290
f 279/667/284 273/669/286 275/680/290
f 273/677/286 278/681/287 277/678/289
f 274/682/291 275/683/290 277/684/289
f 279/673/284 274/685/291 276/674/288
f 276/686/288 274/687/291 277/688/289
f 274/682/291 279/689/284 275/683/290
f 276/686/288 277/688/289 278/690/287
f 280/691/292 283/692/293 282/693/294
f 280/691/292 281/694/295 283/692/293
f 281/695/295 282/696/294 283/697/293
f 281/695/295 280/698/292 282/696/294
f 286/699/296 284/700/297 288/701/298
f 284/702/297 285/703/299 288/704/298
f 286/705/296 289/706/300 284/707/297
f 284/702/297 289/708/300 285/703/299
f 289/709/300 290/710/301 285/711/299
f 288/712/298 285/713/299 290/714/301
f 286/699/296 288/701/298 291/715/302
f 286/705/296 287/716/303 289/706/300
f 287/717/303 286/718/296 291/719/302
f 289/709/300 287/720/303 290/710/301
f 287/717/303 291/719/302 290/721/301
f 288/712/298 290/714/301 291/722/302
f 297/723/7 292/724/7 294/725/7
f 297/723/7 296/726/7 292/724/7
f 294/727/304 292/728/305 298/729/306
f 292/730/305 296/731/307 299/732/308
f 292/730/305 299/732/308 298/733/306
f 295/734/127 299/735/127 293/736/127
f 296/737/307 297/738/309 293/739/310
f 296/737/307 293/739/310 299/740/308
f 297/741/309 295/742/311 293/743/310
f 294/727/304 298/729/306 295/744/311
f 297/741/309 294/745/304 295/742/311
f 295/734/127 298/746/127 299/735/127
f 300/747/312 301/748/313 306/749/314
f 303/750/315 304/751/316 300/752/312
f 300/747/312 304/753/316 301/748/313
f 303/754/315 300/755/312 306/756/314
f 304/757/316 302/758/317 301/759/313
f 306/760/314 301/761/313 302/762/317
f 305/763/318 307/764/319 302/765/317
f 306/760/314 302/762/317 307/766/319
f 304/757/316 305/767/318 302/758/317
f 303/754/315 306/756/314 307/768/319
f 303/750/315 305/769/318 304/751/316
f 305/763/318 303/770/315 307/764/319
f 308/771/320 309/772/321 314/773/322
f 308/771/320 312/774/323 309/772/321
f 313/775/324 308/776/320 314/777/322
f 313/778/324 312/779/323 308/780/320
f 314/781/322 309/782/321 315/783/325
f 312/784/323 315/785/325 309/786/321
f 314/781/322 315/783/325 310/787/326
f 311/788/327 313/789/324 310/790/326
f 311/788/327 310/790/326 315/791/325
f 313/775/324 314/777/322 310/792/326
f 313/778/324 311/793/327 312/779/323
f 312/784/323 311/794/327 315/785/325
f 319/795/328 318/796/329 316/797/330
f 319/795/328 316/797/330 317/798/331
f 318/799/329 317/800/331 316/801/330
f 318/799/329 319/802/328 317/800/331
f 322/803/332 320/804/333 323/805/334
f 320/806/333 322/807/332 321/808/335
f 320/809/333 321/810/335 323/811/334
f 322/812/332 323/813/334 321/814/335
f 325/815/336 324/816/337 326/817/338
f 325/818/336 326/819/338 327/820/339
f 324/821/337 327/822/339 326/823/338
f 324/824/337 325/825/336 327/826/339
f 331/827/340 328/828/341 329/829/342
f 328/830/341 330/831/343 329/832/342
f 331/833/340 329/834/342 330/835/343
f 328/836/341 331/837/340 330/838/343
f 332/839/344 334/840/345 335/841/346
f 332/839/344 333/842/347 334/840/345
f 333/843/347 332/844/344 335/845/346
f 333/843/347 335/845/346 334/846/345
f 336/847/348 339/848/349 338/849/350
f 336/850/348 337/851/351 339/852/349
f 337/853/351 338/854/350 339/855/349
f 337/856/351 336/857/348 338/858/350
f 340/859/352 341/860/353 342/861/354
f 340/862/352 342/863/354 343/864/355
f 341/865/353 340/866/352 343/867/355
f 341/868/353 343/869/355 342/870/354
f 344/871/356 345/872/357 346/873/358
f 345/874/357 344/875/356 347/876/359
f 345/877/357 347/878/359 346/879/358
f 344/880/356 346/881/358 347/882/359
f 351/883/347 348/884/344 349/885/346
f 351/883/347 349/885/346 350/886/345
f 348/887/344 350/888/345 349/889/346
f 348/887/344 351/890/347 350/888/345
f 353/891/360 355/892/361 352/893/362
f 352/894/362 354/895/363 353/896/360
f 352/894/362 355/897/361 354/895/363
f 353/891/360 354/898/363 355/892/361
f 356/899/305 359/900/308 357/901/306
f 361/902/7 362/903/7 356/904/7
f 356/899/305 362/905/307 359/900/308
f 360/906/304 356/907/305 357/908/306
f 361/902/7 356/904/7 360/909/7
f 360/906/304 357/908/306 363/910/311
f 363/911/127 357/912/127 359/913/127
f 363/911/127 359/913/127 358/914/127
f 362/915/307 358/916/310 359/917/308
f 362/915/307 361/918/309 358/916/310
f 361/919/309 363/920/311 358/921/310
f 361/919/309 360/922/304 363/920/311
f 364/923/312 370/924/313 367/925/314
f 364/923/312 369/926/316 370/924/313
f 366/927/315 364/928/312 367/929/314
f 366/930/315 369/931/316 364/932/312
f 367/933/314 371/934/317 365/935/319
f 368/936/318 366/937/315 365/938/319
f 368/936/318 365/938/319 371/939/317
f 366/927/315 367/929/314 365/940/319
f 366/930/315 368/941/318 369/931/316
f 367/933/314 370/942/313 371/934/317
f 369/943/316 368/944/318 371/945/317
f 369/943/316 371/945/317 370/946/313
f 377/947/322 372/948/321 378/949/325
f 376/950/320 374/951/323 372/952/321
f 376/950/320 372/952/321 377/953/322
f 374/954/323 378/955/325 372/956/321
f 373/957/324 377/958/322 379/959/326
f 373/957/324 376/960/320 377/958/322
f 373/961/324 375/962/327 374/963/323
f 375/964/327 373/965/324 379/966/326
f 373/961/324 374/963/323 376/967/320
f 374/954/323 375/968/327 378/955/325
f 375/964/327 379/966/326 378/969/325
f 377/947/322 378/949/325 379/970/326
f 380/971/329 381/972/328 382/973/331
f 380/971/329 382/973/331 383/974/330
f 381/975/328 383/976/330 382/977/331
f 381/975/328 380/978/329 383/976/330
f 386/979/333 385/980/364 384/981/334
f 387/982/332 384/983/334 385/984/364
f 386/985/333 387/986/332 385/987/364
f 387/988/332 386/989/333 384/990/334
f 388/991/337 390/992/339 391/993/338
f 389/994/336 388/995/337 391/996/338
f 389/997/336 391/998/338 390/999/339
f 388/1000/337 389/1001/336 390/1002/339
f 394/1003/340 392/1004/341 393/1005/342
f 392/1006/341 394/1007/340 395/1008/365
f 392/1009/341 395/1010/365 393/1011/342
f 394/1012/340 393/1013/342 395/1014/365
f 397/1015/366 396/1016/344 399/1017/367
f 397/1015/366 399/1017/367 398/1018/345
f 396/1019/344 397/1020/366 398/1021/345
f 396/1019/344 398/1021/345 399/1022/367
f 400/1023/368 403/1024/369 401/1025/349
f 402/1026/370 401/1027/349 403/1028/369
f 402/1029/370 400/1030/368 401/1031/349
f 400/1032/368 402/1033/370 403/1034/369
f 404/1035/353 406/1036/371 405/1037/372
f 404/1038/353 407/1039/373 406/1040/371
f 407/1041/373 405/1042/372 406/1043/371
f 407/1044/373 404/1045/353 405/1046/372
f 409/1047/356 408/1048/357 411/1049/358
f 408/1050/357 409/1051/356 410/1052/359
f 409/1053/356 411/1054/358 410/1055/359
f 408/1056/357 410/1057/359 411/1058/358
f 413/1059/344 415/1060/345 412/1061/346
f 414/1062/347 413/1063/344 412/1064/346
f 414/1062/347 412/1064/346 415/1065/345
f 413/1059/344 414/1066/347 415/1060/345
f 418/1067/374 416/1068/361 417/1069/362
f 418/1067/374 419/1070/363 416/1068/361
f 417/1071/362 416/1072/361 419/1073/363
f 417/1071/362 419/1073/363 418/1074/374
f 420/1075/375 422/1076/376 425/1077/377
f 420/1075/375 425/1077/377 423/1078/378
f 422/1079/376 420/1080/375 421/1081/379
f 422/1082/376 424/1083/380 425/1084/377
f 422/1082/376 421/1085/379 424/1083/380
f 421/1086/379 423/1087/378 424/1088/380
f 421/1086/379 420/1089/375 423/1087/378
f 424/1090/380 423/1091/378 425/1092/377
f 426/1093/381 432/1094/382 428/1095/383
f 430/1096/384 429/1097/385 426/1098/381
f 429/1099/385 432/1100/382 426/1101/381
f 426/1093/381 428/1095/383 431/1102/386
f 430/1096/384 426/1098/381 431/1103/386
f 433/1104/387 427/1105/388 428/1106/383
f 427/1107/388 431/1108/386 428/1109/383
f 427/1107/388 430/1110/384 431/1108/386
f 430/1111/384 427/1112/388 433/1113/387
f 433/1104/387 428/1106/383 432/1114/382
f 430/1111/384 433/1113/387 429/1115/385
f 429/1099/385 433/1116/387 432/1100/382
f 434/1117/389 435/1118/390 440/1119/391
f 439/1120/392 434/1121/389 440/1122/391
f 439/1123/392 438/1124/393 434/1125/389
f 434/1117/389 438/1126/393 435/1118/390
f 438/1127/393 437/1128/394 435/1129/390
f 440/1130/391 435/1131/390 437/1132/394
f 439/1123/392 436/1133/395 438/1124/393
f 438/1127/393 436/1134/395 437/1128/394
f 436/1135/395 441/1136/396 437/1137/394
f 436/1135/395 439/1138/392 441/1136/396
f 440/1130/391 437/1132/394 441/1139/396
f 439/1120/392 440/1122/391 441/1140/396
f 442/1141/397 449/1142/398 445/1143/399
f 442/1141/397 447/1144/400 449/1142/398
f 443/1145/401 442/1146/397 445/1147/399
f 443/1148/401 447/1149/400 442/1150/397
f 443/1148/401 448/1151/402 447/1149/400
f 448/1152/402 443/1153/401 446/1154/403
f 443/1145/401 445/1147/399 446/1155/403
f 445/1156/399 449/1157/398 444/1158/404
f 448/1152/402 446/1154/403 444/1159/404
f 445/1156/399 444/1158/404 446/1160/403
f 447/1161/400 448/1162/402 444/1163/404
f 447/1161/400 444/1163/404 449/1164/398
f 451/1165/405 450/1166/406 456/1167/407
f 454/1168/408 450/1169/409 451/1170/410
f 454/1168/408 455/1171/411 450/1169/409
f 455/1172/412 456/1173/407 450/1174/406
f 453/1175/413 454/1176/414 451/1177/405
f 451/1165/405 456/1167/407 457/1178/415
f 453/1175/413 451/1177/405 457/1179/415
f 453/1180/413 452/1181/416 455/1182/412
f 455/1172/412 452/1183/416 456/1173/407
f 452/1184/417 457/1185/418 456/1186/419
f 452/1184/417 453/1187/420 457/1185/418
f 453/1180/413 455/1182/412 454/1188/414
f 17/17/2 18/1189/421 19/18/3
f 45/20/422 46/1190/422 47/21/422
f 56/23/6 57/64/7 58/24/7
f 115/26/9 116/127/423 117/27/423
f 121/29/424 122/1191/424 123/30/424
f 129/32/425 130/1192/425 131/33/425
f 132/35/426 133/386/426 114/36/426
f 135/38/427 136/134/428 137/39/429
f 140/41/430 141/85/430 142/42/430
f 150/44/431 151/418/431 152/45/431
f 155/47/432 153/109/63 156/48/215
f 159/50/433 154/138/433 160/51/433
f 162/53/434 163/110/434 164/54/434
f 166/56/435 167/136/436 168/57/437
f 169/59/438 170/84/45 171/60/218
f 60/63/439 61/194/439 57/64/439
f 45/65/440 21/1193/440 17/66/440
f 30/68/32 29/1194/32 27/69/33
f 51/77/441 59/25/441 58/24/441
f 158/52/442 160/51/442 132/35/442
f 155/47/443 157/49/443 140/41/443
f 145/82/444 157/49/444 156/48/444
f 146/117/210 161/55/209 164/54/445
f 169/59/211 172/61/211 147/119/208
f 170/84/45 169/59/446 142/42/46
f 22/172/447 23/1195/447 42/170/447
f 18/187/96 17/1196/448 38/185/116
f 49/86/449 46/1197/449 45/87/449
f 49/89/450 48/211/450 56/23/450
f 115/93/451 118/366/75 125/94/182
f 127/384/196 128/34/196 131/33/196
f 126/1198/197 125/370/452 127/382/198
f 144/96/453 133/394/453 132/97/453
f 171/99/454 162/417/454 161/100/454
f 23/1195/102 22/172/455 30/171/105
f 35/71/114 34/1199/456 36/191/106
f 44/170/457 43/198/123 39/197/87
f 33/79/458 32/1200/458 58/24/458
f 129/32/11 128/34/13 121/104/459
f 149/106/460 152/129/460 130/107/460
f 153/109/63 155/47/461 164/54/64
f 19/111/462 28/1201/462 27/112/462
f 146/379/187 116/381/187 115/1202/463
f 41/120/464 40/201/464 47/121/464
f 24/183/465 26/1203/465 54/181/465
f 134/37/74 114/36/181 118/28/75
f 136/123/428 135/412/427 159/124/428
f 167/126/193 117/27/423 116/127/423
f 138/40/17 137/39/466 152/129/78
f 122/390/467 121/1204/467 143/388/467
f 136/134/12 123/387/12 122/135/12
f 167/136/436 166/56/435 150/44/468
f 165/137/25 168/128/469 160/51/85
f 29/1205/470 30/1206/470 25/1207/470
f 120/142/131 124/1208/131 123/143/131
f 148/145/471 131/1209/471 130/146/471
f 26/1210/163 45/1211/163 20/162/163
f 24/161/472 26/1210/472 20/162/472
f 26/180/473 34/178/473 35/164/473
f 25/158/474 26/180/474 35/164/474
f 20/1212/100 19/159/100 25/158/100
f 17/156/475 20/1212/475 25/158/475
f 17/156/476 25/158/476 35/164/476
f 45/1211/477 26/1210/477 24/161/477
f 45/1211/7 24/161/7 42/1213/7
f 47/1214/7 45/1211/7 42/1213/7
f 43/198/4 58/174/4 42/170/4
f 58/174/4 26/133/478 24/131/4
f 33/177/479 34/176/479 26/133/479
f 57/204/480 58/206/480 43/103/480
f 49/205/481 59/1215/481 58/206/481
f 43/103/214 44/102/214 49/205/214
f 49/205/214 44/102/214 47/167/214
f 130/1216/482 148/371/482 129/375/482
f 148/371/71 115/373/185 117/374/99
f 118/1217/483 126/396/483 117/378/483
f 126/396/197 131/376/199 117/378/214
f 130/377/484 129/1218/484 117/378/484
f 158/52/485 132/35/485 133/386/485
f 132/35/486 134/37/486 133/386/486
f 134/37/127 129/108/127 123/387/127
f 133/386/487 134/37/487 123/387/487
f 133/394/488 144/96/194 121/392/195
f 169/398/200 130/400/202 171/402/4
f 130/400/202 152/1219/4 150/401/4
f 159/1220/1 156/403/1 132/405/1
f 132/405/1 160/1221/1 159/1220/1
f 137/389/489 143/388/490 140/1222/491
f 143/388/490 142/1223/492 140/1222/491
f 140/406/206 159/124/205 136/123/206
f 137/410/1 140/1224/493 142/408/1
f 135/412/15 141/411/47 140/406/494
f 135/412/495 140/406/495 137/407/495
f 157/414/496 156/419/496 159/124/496
f 152/409/1 142/408/1 169/415/1
f 171/1225/1 150/416/207 169/415/1
f 168/380/497 146/379/498 162/1226/499
f 146/379/498 164/1227/500 162/1226/499
f 162/417/501 150/44/501 167/136/501
f 160/426/502 164/429/502 155/427/502
f 156/428/4 159/1228/4 160/426/4
f 168/430/4 162/1229/4 164/429/4
f 166/56/23 163/431/65 162/417/503
f 166/56/504 162/417/504 168/57/504
l 24 25
l 24 29
l 33 35
l 42 44
l 22 44
