# Blender 4.5.0
# www.blender.org
mtllib parking_001.mtl
o parking_001
v -4.196487 3.221467 -4.771413
v -4.196487 2.471603 -4.771413
v -4.984888 3.221467 -4.771413
v -4.984888 2.471603 -4.771413
v -0.650953 1.054322 0.912305
v 0.448490 1.725185 1.309568
v 0.539506 1.201496 0.975839
v -0.408571 1.725185 1.309568
v -0.499586 1.201496 0.975839
v -0.499586 1.219331 3.911940
v 0.539506 1.219331 3.911940
v 0.448490 1.727617 3.563040
v -0.408571 1.727617 3.563040
v -0.653674 1.123875 3.667630
v -0.538907 1.736940 3.487991
v -0.653674 1.123875 1.232523
v -0.538907 1.736940 1.402182
v 0.578826 1.736940 1.402182
v 0.578826 1.736940 3.487991
v 0.693593 1.123875 3.667630
v 0.693593 1.123875 1.232523
v 5.300000 0.008290 -5.400000
v -5.300000 -0.000000 -5.400000
v 5.300000 0.000000 5.400000
v -5.300000 0.008291 5.400000
v -5.256641 0.208918 -5.387183
v -5.121725 0.209613 -5.386147
v -5.256640 0.052705 5.387183
v -5.257220 0.052009 -5.386147
v -5.122304 0.052705 -5.387183
v -5.257220 0.209614 5.386147
v -5.122304 0.208919 5.387183
v -5.121725 0.052010 5.386147
v 5.122304 0.208918 -5.387183
v 5.256640 0.052705 -5.387183
v 5.122304 0.052705 5.387183
v 5.256641 0.208918 5.387183
v 5.121725 0.209614 5.386147
v 5.257220 0.209613 -5.386147
v 5.257220 0.052010 5.386147
v 5.121725 0.052009 -5.386147
v 5.186697 0.052687 5.221450
v 5.186697 0.208937 5.357294
v -5.186697 0.052687 5.357294
v 5.187304 0.052025 5.356301
v -5.186697 0.208937 5.221450
v -5.187304 0.052025 5.222443
v 5.187304 0.209599 5.222443
v -5.187304 0.209599 5.356301
v -3.749405 0.056194 0.076856
v -3.835209 0.055457 0.076856
v -3.749405 0.055457 5.012917
v -3.835209 0.056194 5.012917
v -1.290372 0.055457 0.076856
v -1.204567 0.055457 5.012917
v -1.290372 0.056194 5.012917
v -1.204567 0.056194 0.076856
v 1.254466 0.055457 0.076856
v 1.340271 0.056194 0.076856
v 1.254466 0.056194 5.012917
v 1.340270 0.055457 5.012917
v 3.799304 0.056194 5.012917
v 3.799304 0.055457 0.076856
v 3.885108 0.055457 5.012917
v 3.885108 0.056194 0.076856
v -3.284534 0.180388 4.611672
v -1.725854 0.129300 4.614012
v -3.285350 0.060954 4.612109
v -1.745262 0.180388 4.769478
v -3.285351 0.180403 4.769041
v -1.744446 0.060954 4.769041
v -3.284535 0.060969 4.769478
v -2.861103 0.140177 0.340472
v -2.168694 0.060646 0.340472
v -2.168694 0.140177 0.657523
v -2.861103 0.060646 0.657523
v -2.862368 0.060641 0.341762
v -2.167428 0.140182 0.341762
v -2.167428 0.060641 0.656233
v -2.862368 0.140182 0.656233
v 0.790412 0.180403 4.612109
v 0.789596 0.180388 4.769478
v -0.769085 0.112057 4.614012
v -0.750493 0.180403 4.769041
v 0.789596 0.060969 4.611672
v 0.790412 0.060954 4.769041
v -0.749677 0.060969 4.769478
v -0.327511 0.140182 0.656233
v -0.326245 0.140177 0.340472
v -0.326245 0.060646 0.657523
v 0.366164 0.140177 0.657523
v 0.367430 0.140182 0.341762
v 0.367430 0.060641 0.656233
v 0.366164 0.060646 0.340472
v -0.327511 0.060641 0.341762
v 1.795161 0.060969 4.769478
v 3.334433 0.180388 4.769478
v 3.335249 0.060954 4.769041
v 1.795161 0.180388 4.611672
v 1.794345 0.060954 4.612109
v 3.334433 0.060969 4.611672
v 3.335249 0.180403 4.612109
v 1.794345 0.180403 4.769041
v 2.911002 0.060646 0.340472
v 2.218593 0.060646 0.657523
v 2.217327 0.060641 0.341762
v 2.912267 0.060641 0.656233
v 2.912267 0.140182 0.341762
v 2.217327 0.140182 0.656233
v 2.911001 0.140177 0.657523
v 2.218593 0.140177 0.340472
v -4.863477 1.768397 -3.466858
v -4.218100 0.053754 -3.466858
v -4.863664 0.052818 -3.466160
v -4.218100 1.768397 -2.920309
v -4.863665 1.769333 -2.921007
v -4.863477 0.053754 -2.920308
v -4.217913 0.052818 -2.921006
v -4.217912 1.769333 -3.466159
v -4.760814 1.428524 -3.484187
v -4.320763 1.428524 -3.481816
v -4.760814 0.768559 -3.481817
v -4.320763 0.768559 -3.484187
v -4.589319 0.046753 -4.620165
v -4.653542 0.051814 -4.713172
v -4.542151 0.045230 -4.740269
v -4.539933 3.204192 -4.739396
v -4.591505 3.205716 -4.621116
v -4.651111 3.199132 -4.719042
v -5.012437 3.249514 -4.764666
v -4.168428 3.250000 -4.764549
v -5.012437 2.443557 -4.616485
v -5.012946 3.250000 -4.616602
v -5.012947 2.443071 -4.764549
v -4.168938 3.249514 -4.616486
v -4.168428 2.443071 -4.616601
v -4.168938 2.443556 -4.764665
v -2.493823 0.047486 -4.731154
v -2.454067 0.046320 -4.832183
v -2.495601 0.772633 -4.731910
v -2.452276 0.771468 -4.831460
v -2.545727 0.767022 -4.814387
v -2.547831 0.051932 -4.809308
v 2.442046 0.051932 -4.809308
v 2.496055 0.047486 -4.731154
v 2.537601 0.771468 -4.831460
v 2.444150 0.767021 -4.814387
v 2.494276 0.772633 -4.731910
v 2.535811 0.046320 -4.832183
v -0.567906 0.545376 0.975979
v -0.568708 0.344476 0.977119
v 0.607825 0.545376 3.814396
v -0.568708 0.545412 3.813256
v 0.608627 0.545412 0.977119
v 0.607825 0.344512 0.975979
v 0.608627 0.344476 3.813256
v -0.567906 0.344512 3.814396
v -0.592405 0.592258 0.702348
v -0.553413 0.632028 4.085083
v 0.576565 0.954211 4.086061
v -0.682316 0.509061 0.967195
v 0.703210 0.508107 0.942564
v 0.618566 0.578754 0.704276
v 0.631734 0.931591 0.704261
v 0.722437 1.069909 0.962198
v -0.667104 1.070319 0.951402
v -0.577493 0.936577 0.698496
v 0.726915 0.534153 3.894907
v 0.730002 1.056606 3.877513
v -0.690154 0.522800 3.877788
v 0.587676 0.644600 4.089071
v -0.687142 1.044907 3.894746
v -0.552484 0.934085 4.090147
v 0.686272 1.042052 0.913391
v -0.657139 1.056511 3.980966
v 0.530015 1.092798 1.363938
v -0.480300 1.780308 1.371387
v -0.490447 1.093450 3.506752
v 0.567578 1.192566 3.511199
v 0.468479 1.064185 3.508768
v 0.468777 1.789944 1.362393
v 0.568313 1.658755 1.360554
v -0.428546 1.064186 1.361514
v -0.527656 1.192518 1.359021
v 0.672443 1.042773 3.974018
v 0.524457 1.767704 3.501613
v 0.679994 1.123814 3.965600
v -0.482325 1.775639 3.499443
v -0.634623 1.086491 2.443805
v -0.553461 1.797205 2.422521
v -0.532274 1.793622 2.467245
v -0.683420 1.094752 2.447564
v -0.731329 1.044194 1.522821
v -0.729707 1.000890 1.522821
v -0.730518 1.022542 1.372485
v -0.729707 1.044194 3.467153
v -0.730518 1.022542 3.617488
v -0.731329 1.000890 3.467153
v -0.715930 1.243625 1.215573
v -0.716823 1.243226 1.370329
v -0.715930 1.125724 1.369233
v -0.900791 1.125724 1.215573
v -0.899897 1.126123 1.370329
v -0.716823 1.126123 1.214478
v -0.900791 1.243625 1.369233
v -0.899897 1.243226 1.214477
v 0.674757 1.086530 2.447564
v 0.723555 1.094784 2.443804
v 0.573321 1.793810 2.422521
v 0.594507 1.797399 2.467245
v 0.770437 1.022542 1.372485
v 0.769626 1.044194 1.522820
v 0.771248 1.000890 1.522820
v 0.770437 1.022542 3.617488
v 0.769626 1.000890 3.467153
v 0.771248 1.044194 3.467153
v 0.756742 1.243226 1.214477
v 0.939816 1.126123 1.214478
v 0.939816 1.243226 1.370329
v 0.755849 1.125724 1.215573
v 0.755849 1.243625 1.369233
v 0.756742 1.126123 1.370329
v 0.940710 1.243625 1.215573
v 0.940710 1.125724 1.369233
v -0.787828 0.415135 1.689115
v -0.786733 0.622459 1.562106
v -0.789094 0.132737 1.607648
v -0.786282 0.677099 1.326518
v -0.786266 0.544443 1.122263
v -0.786590 0.302566 1.072549
v -0.796946 0.070926 1.246418
v -0.588113 0.061963 1.257233
v -0.590940 0.630934 1.550499
v -0.589378 0.291206 1.075533
v -0.590473 0.532102 1.114733
v -0.590924 0.674125 1.311793
v -0.590617 0.426789 1.687591
v -0.580260 0.145216 1.614258
v -0.803370 0.158882 1.326130
v -0.803020 0.312470 1.177744
v -0.802987 0.465647 1.204896
v -0.803720 0.216560 1.530267
v -0.801520 0.509866 1.529906
v -0.805220 0.566297 1.322490
v -0.803754 0.363000 1.582183
v -0.802266 0.375316 1.351142
v -0.804038 0.363878 1.365242
v -0.816735 0.521309 1.384736
v -0.818646 0.523862 1.379440
v -0.791638 0.540019 1.380051
v -0.771870 0.521284 1.380981
v -0.795497 0.363467 1.399499
v -0.794009 0.377621 1.411312
v -0.814803 0.365935 1.386685
v -0.814599 0.362560 1.378441
v -0.818902 0.358620 1.383056
v -0.818902 0.359521 1.376177
v -0.818819 0.358554 1.377529
v -0.813685 0.363878 1.383490
v -0.821941 0.358053 1.384736
v -0.819857 0.358591 1.379328
v -0.783422 0.370455 1.398988
v -0.776173 0.363878 1.378020
v -0.771870 0.369820 1.379472
v -0.772658 0.357522 1.381253
v -0.771954 0.359628 1.376074
v -0.776846 0.362013 1.382754
v -0.766102 0.362036 1.377731
v -0.768831 0.371281 1.380502
v -0.770916 0.367618 1.376439
v -0.793458 0.340787 1.385465
v -0.816484 0.405385 1.538249
v -0.774714 0.425535 1.531909
v -0.796302 0.385746 1.370972
v -0.799237 0.221252 1.482018
v -0.794149 0.337802 1.363522
v -0.786735 0.354934 1.368104
v -0.774038 0.239203 1.475010
v -0.772126 0.233978 1.472204
v -0.796765 0.371310 1.413327
v -0.818902 0.236983 1.471958
v -0.794088 0.375798 1.357995
v -0.807362 0.372528 1.368500
v -0.807368 0.346908 1.393339
v -0.797404 0.347965 1.395638
v -0.808064 0.241786 1.268479
v -0.785559 0.218148 1.301171
v -0.782892 0.347757 1.393221
v -0.816482 0.424610 1.228356
v -0.774713 0.404525 1.221821
v -0.796301 0.340663 1.375056
v -0.793458 0.385685 1.389355
v 0.628031 0.132737 1.607648
v 0.629297 0.415135 1.689115
v 0.630392 0.622459 1.562106
v 0.630859 0.544443 1.122263
v 0.630535 0.302566 1.072549
v 0.620179 0.070926 1.246418
v 0.829013 0.061963 1.257233
v 0.827747 0.291206 1.075533
v 0.826652 0.532102 1.114733
v 0.836865 0.145216 1.614258
v 0.630843 0.677099 1.326518
v 0.826201 0.674125 1.311793
v 0.826186 0.630934 1.550499
v 0.826509 0.426789 1.687591
v 0.841439 0.217889 1.529906
v 0.842906 0.262108 1.204896
v 0.845139 0.161458 1.322490
v 0.843673 0.364755 1.582183
v 0.842939 0.415285 1.177744
v 0.843289 0.568873 1.326130
v 0.843639 0.511195 1.530267
v 0.847800 0.369164 1.360383
v 0.830855 0.366721 1.357426
v 0.838584 0.539803 1.379709
v 0.808330 0.354610 1.384464
v 0.811873 0.369794 1.379328
v 0.817672 0.363878 1.380758
v 0.811646 0.367848 1.380731
v 0.811790 0.358620 1.383056
v 0.811873 0.359628 1.384379
v 0.805059 0.363512 1.371405
v 0.808751 0.370845 1.379639
v 0.810835 0.365805 1.382718
v 0.813958 0.521309 1.384736
v 0.835789 0.366007 1.403081
v 0.837234 0.340787 1.385465
v 0.834390 0.385746 1.370972
v 0.814208 0.405385 1.538249
v 0.855978 0.425535 1.531909
v 0.837455 0.338126 1.363929
v 0.823330 0.355183 1.368441
v 0.831852 0.375995 1.402009
v 0.826336 0.373149 1.392795
v 0.833820 0.218930 1.474981
v 0.858822 0.236082 1.470738
v 0.843775 0.355122 1.368359
v 0.826118 0.241841 1.493076
v 0.847026 0.371625 1.400058
v 0.844275 0.354606 1.392795
v 0.847035 0.346815 1.393449
v 0.834692 0.375331 1.375747
v 0.822895 0.347141 1.392958
v 0.822811 0.371444 1.361112
v 0.816137 0.223384 1.282876
v 0.845261 0.242634 1.267396
v 0.864830 0.366758 1.381149
v 0.858822 0.358620 1.377397
v 0.858738 0.359628 1.376074
v 0.857769 0.363451 1.380805
v 0.865627 0.363508 1.379725
v 0.861860 0.371529 1.380324
v 0.859386 0.369029 1.376265
v 0.858738 0.369794 1.381126
v 0.854519 0.363878 1.378020
v 0.813958 0.239203 1.285443
v 0.837233 0.385685 1.389355
v 0.834390 0.340663 1.375056
v 0.814210 0.424610 1.228356
v 0.855979 0.404525 1.221821
v -0.789094 0.132737 3.637569
v -0.787829 0.415137 3.719036
v -0.786266 0.544443 3.152184
v -0.589378 0.291206 3.105455
v -0.588113 0.061963 3.287154
v -0.590473 0.532102 3.144655
v -0.590924 0.674125 3.341714
v -0.590940 0.630935 3.580420
v -0.590617 0.426789 3.717513
v -0.580260 0.145218 3.644181
v -0.796946 0.070927 3.276339
v -0.786590 0.302566 3.102470
v -0.786282 0.677099 3.356439
v -0.786733 0.622459 3.592028
v -0.801520 0.509866 3.559828
v -0.803020 0.312470 3.207665
v -0.805220 0.566297 3.352412
v -0.802987 0.465647 3.234817
v -0.803370 0.158882 3.356051
v -0.803720 0.216560 3.560188
v -0.803754 0.363000 3.612104
v -0.809201 0.365433 3.427534
v -0.783072 0.369870 3.430438
v -0.795098 0.366213 3.385597
v -0.794861 0.539734 3.409447
v -0.771870 0.521284 3.410903
v -0.816314 0.366893 3.414386
v -0.818819 0.369794 3.409249
v -0.809539 0.369164 3.427121
v -0.821941 0.365464 3.403440
v -0.819857 0.366878 3.409112
v -0.824136 0.362696 3.416872
v -0.818902 0.359521 3.406098
v -0.818819 0.358555 3.407450
v -0.816735 0.521310 3.414657
v -0.793458 0.340787 3.415386
v -0.796302 0.385746 3.400893
v -0.774714 0.425535 3.561830
v -0.816484 0.405385 3.568171
v -0.794178 0.372032 3.441796
v -0.784319 0.370848 3.429909
v -0.776173 0.363878 3.407941
v -0.771870 0.369820 3.409393
v -0.772658 0.357522 3.411174
v -0.771954 0.359628 3.405995
v -0.776846 0.362013 3.412675
v -0.766102 0.362036 3.407652
v -0.768832 0.371281 3.410423
v -0.770916 0.367618 3.406360
v -0.816735 0.233822 3.497636
v -0.814556 0.226455 3.511659
v -0.776574 0.222850 3.507864
v -0.788885 0.342064 3.395156
v -0.807881 0.347758 3.397154
v -0.774038 0.239204 3.504931
v -0.786735 0.354934 3.398025
v -0.799370 0.346367 3.426965
v -0.804356 0.354606 3.422718
v -0.808064 0.241786 3.298400
v -0.785558 0.218149 3.331092
v -0.794087 0.375798 3.387917
v -0.807362 0.372528 3.398422
v -0.782892 0.347758 3.423142
v -0.793458 0.385686 3.419276
v -0.796302 0.340663 3.404977
v -0.816482 0.424610 3.258277
v -0.774713 0.404524 3.251742
v 0.628031 0.132737 3.637569
v 0.630535 0.302566 3.102470
v 0.620179 0.070927 3.276339
v 0.829013 0.061963 3.287154
v 0.827748 0.291206 3.105455
v 0.826201 0.674125 3.341714
v 0.826186 0.630935 3.580420
v 0.826508 0.426789 3.717513
v 0.630859 0.544443 3.152184
v 0.826652 0.532102 3.144655
v 0.630843 0.677099 3.356439
v 0.630393 0.622459 3.592028
v 0.629297 0.415137 3.719036
v 0.836866 0.145218 3.644181
v 0.841439 0.217890 3.559828
v 0.842906 0.262108 3.234817
v 0.845139 0.161458 3.352412
v 0.843639 0.511196 3.560188
v 0.842939 0.415285 3.207665
v 0.843289 0.568873 3.356051
v 0.843673 0.364755 3.612104
v 0.815855 0.366759 3.409214
v 0.811790 0.359521 3.406098
v 0.811873 0.358555 3.407450
v 0.816895 0.365379 3.420184
v 0.808751 0.365464 3.403440
v 0.810835 0.367046 3.408992
v 0.811687 0.359112 3.413037
v 0.811873 0.369794 3.409249
v 0.817865 0.363878 3.411011
v 0.828863 0.372396 3.438729
v 0.835572 0.366166 3.431261
v 0.847980 0.529343 3.390419
v 0.833989 0.367478 3.385268
v 0.847281 0.363878 3.395616
v 0.825267 0.528966 3.430429
v 0.834390 0.385746 3.400893
v 0.814208 0.405385 3.568171
v 0.855978 0.425535 3.561830
v 0.837234 0.340787 3.415386
v 0.845762 0.349030 3.395088
v 0.840340 0.221036 3.512098
v 0.812173 0.233876 3.504164
v 0.813958 0.233822 3.497636
v 0.823470 0.347309 3.396931
v 0.835133 0.371455 3.441015
v 0.836605 0.375798 3.387916
v 0.823330 0.372528 3.398422
v 0.837036 0.345199 3.424725
v 0.831675 0.221650 3.308240
v 0.854666 0.361081 3.411184
v 0.858738 0.359628 3.405995
v 0.853846 0.362013 3.412675
v 0.858983 0.360578 3.408372
v 0.858822 0.369820 3.409393
v 0.858738 0.369794 3.411047
v 0.858690 0.358211 3.415416
v 0.853846 0.365742 3.412675
v 0.856654 0.233822 3.322659
v 0.837234 0.385686 3.419276
v 0.834390 0.340663 3.404977
v 0.855979 0.404524 3.251742
v 0.814210 0.424610 3.258277
v -0.591487 0.967832 0.677244
v -0.591487 0.793519 0.680029
v -0.284336 0.967832 0.680029
v -0.284336 0.793519 0.677244
v -0.294615 1.018675 4.113137
v -0.294614 0.833879 4.110342
v -0.581209 1.018673 4.110341
v -0.581209 0.833878 4.113137
v 0.324255 0.793519 0.680029
v 0.631406 0.967832 0.680029
v 0.324255 0.967832 0.677244
v 0.631406 0.793519 0.677244
v 0.334533 1.018673 4.110341
v 0.621129 0.833879 4.110342
v 0.334533 0.833878 4.113137
v 0.621127 1.018675 4.113137
v 0.322210 0.687937 0.666080
v -0.282291 0.687937 0.661253
v -0.282291 0.566750 0.666080
v 0.322210 0.566750 0.661253
v 0.178860 0.709143 4.132746
v -0.138941 0.709143 4.130651
v -0.138941 0.575944 4.132746
v 0.178860 0.575944 4.130651
v 0.358893 0.710943 0.651691
v -0.313011 0.712094 0.664810
v -0.313011 0.709791 0.638571
v 0.352930 0.772894 0.638571
v -0.318974 0.771743 0.651691
v 0.352930 0.770591 0.664810
v 0.352930 0.831391 0.664810
v -0.318974 0.832542 0.651691
v 0.352930 0.833694 0.638571
vn -0.0000 -0.0000 -1.0000
vn -0.0000 0.5374 -0.8433
vn -0.0000 0.5659 0.8245
vn -0.9829 0.1840 -0.0000
vn 0.9829 0.1840 -0.0000
vn 0.7007 -0.6843 0.2019
vn 0.8153 -0.3155 0.4856
vn -0.9802 -0.1230 0.1550
vn 0.0989 -0.1090 -0.9891
vn 0.0990 -0.1090 -0.9891
vn 0.8159 0.5253 0.2416
vn 0.4427 0.5885 -0.6766
vn -0.2057 -0.4488 -0.8696
vn 0.0007 -0.5882 0.8087
vn 0.0247 -0.5865 0.8095
vn 0.1259 -0.5759 0.8078
vn -0.8620 0.0299 -0.5061
vn -0.8995 -0.0032 0.4368
vn 0.6491 -0.4275 0.6292
vn -0.2047 -0.6144 0.7620
vn 0.3850 -0.6149 0.6883
vn -0.0426 -0.6375 0.7692
vn -0.6333 0.1097 -0.7661
vn 0.3801 0.4373 0.8151
vn 0.1931 -0.9172 -0.3485
vn -0.1965 -0.9481 0.2499
vn -0.0623 -0.9970 0.0469
vn -0.4881 -0.7377 0.4665
vn -0.7375 -0.4870 -0.4678
vn -0.0639 0.9052 -0.4201
vn 0.0412 0.5080 0.8603
vn -0.0505 0.9889 -0.1401
vn -0.0504 0.9889 -0.1401
vn 0.3801 0.4372 0.8151
vn 0.6317 0.3622 -0.6854
vn -0.0507 -0.9980 0.0376
vn -0.7426 -0.1055 0.6613
vn -0.4756 -0.7252 0.4979
vn -0.1116 0.7609 -0.6392
vn 0.4371 -0.4431 -0.7827
vn -0.5230 -0.0470 -0.8510
vn 0.2340 0.9259 -0.2964
vn 0.1944 -0.2677 0.9437
vn 0.1573 0.5767 0.8017
vn 0.9240 -0.0038 0.3823
vn -0.8702 0.2906 0.3979
vn -0.8704 0.2909 0.3972
vn -0.8702 0.2907 0.3978
vn -0.9397 0.1797 -0.2910
vn -0.2630 -0.3864 -0.8840
vn -0.9960 -0.0891 -0.0027
vn 0.9866 0.1179 0.1129
vn -0.9952 -0.0370 0.0904
vn -0.9375 -0.2262 0.2646
vn 0.9241 -0.0038 0.3822
vn -0.9373 0.1776 0.3000
vn -0.2680 -0.4009 -0.8760
vn -0.3517 -0.6072 0.7124
vn -0.1547 -0.9377 -0.3111
vn 0.2318 -0.5664 0.7909
vn 0.9405 0.0236 -0.3391
vn 0.2680 0.8525 -0.4488
vn 0.9959 0.0738 0.0516
vn -0.9369 0.1782 0.3008
vn -0.9237 0.1240 -0.3624
vn -0.0414 0.4551 -0.8895
vn -0.9920 -0.1235 -0.0275
vn 0.6279 -0.2770 -0.7274
vn -0.0862 0.9865 -0.1395
vn -0.0871 0.9862 -0.1411
vn -0.0872 0.9863 -0.1399
vn -0.6743 -0.1176 -0.7290
vn 0.5365 0.8387 0.0934
vn -0.5954 -0.6850 -0.4199
vn 0.3730 0.2422 -0.8957
vn -0.8812 0.1261 -0.4555
vn -0.0956 -0.0836 0.9919
vn -0.3786 -0.4624 0.8018
vn 0.1298 -0.7775 -0.6153
vn 0.6961 -0.3511 -0.6263
vn -0.8202 -0.1727 -0.5454
vn -0.5583 -0.6987 -0.4474
vn -0.0382 -0.7815 -0.6227
vn 0.4327 -0.7469 0.5049
vn -0.3962 -0.3429 0.8517
vn -0.7930 0.5543 -0.2529
vn -0.5188 -0.5150 0.6824
vn 0.9875 -0.1366 0.0786
vn 0.8871 -0.2699 -0.3744
vn 0.6564 0.2910 0.6960
vn 0.4831 0.5765 -0.6590
vn 0.4680 0.5810 -0.6659
vn 0.5744 0.5447 -0.6110
vn 0.9399 -0.2541 0.2280
vn 0.3492 -0.6244 -0.6986
vn 0.5344 -0.5509 -0.6410
vn -0.2744 -0.6754 -0.6844
vn -0.9886 0.0652 0.1354
vn 0.9941 -0.0879 0.0640
vn -0.2461 0.4164 0.8753
vn 0.2941 0.1393 -0.9456
vn 0.1412 0.1983 -0.9699
vn -0.0031 0.2533 -0.9674
vn -0.7343 0.6335 0.2440
vn -0.3625 0.3852 0.8487
vn -0.7351 -0.0991 0.6707
vn -0.0895 0.4130 0.9063
vn 0.3303 -0.5574 0.7617
vn -0.2898 -0.8468 0.4461
vn 0.0620 -0.7383 0.6717
vn -0.5792 0.7555 -0.3062
vn 0.2931 0.3529 -0.8886
vn 0.4816 0.7273 -0.4890
vn 0.1628 0.7976 0.5808
vn 0.4563 0.8898 0.0082
vn -0.4981 0.3362 -0.7993
vn 0.4761 -0.6067 -0.6366
vn 0.1120 -0.8918 -0.4382
vn -0.5973 -0.6234 -0.5046
vn -0.0538 -0.0978 -0.9938
vn -0.2459 -0.9641 -0.1006
vn -0.0081 -0.6964 -0.7176
vn 0.0865 -0.7394 0.6677
vn -0.2541 -0.6775 0.6902
vn -0.9337 0.0298 -0.3568
vn 0.9344 -0.2309 -0.2713
vn -0.3405 0.1350 -0.9305
vn -0.4610 0.1335 -0.8773
vn 0.1539 0.1194 -0.9808
vn 0.9956 -0.0328 -0.0881
vn 0.9345 -0.2308 -0.2711
vn -0.7043 0.0522 0.7079
vn 0.7043 0.0522 -0.7079
vn -0.7043 -0.0522 -0.7079
vn 0.7043 -0.0522 0.7079
vn -0.5795 0.5801 0.5724
vn 0.5795 0.5801 -0.5724
vn -0.5764 0.5760 -0.5796
vn -0.5795 -0.5801 -0.5724
vn 0.5764 -0.5760 -0.5796
vn 0.5795 -0.5801 0.5724
vn 0.5764 0.5760 0.5796
vn -0.5764 -0.5760 0.5796
vn -0.5785 -0.5801 -0.5734
vn 0.5747 -0.5754 -0.5820
vn 0.5785 -0.5801 0.5734
vn -0.5747 0.5754 -0.5820
vn 0.5785 0.5801 -0.5734
vn 0.5747 0.5754 0.5820
vn -0.5747 -0.5754 0.5820
vn -0.5785 0.5801 0.5734
vn -0.5404 -0.0283 -0.8409
vn 0.5411 0.0284 -0.8405
vn 0.5410 -0.0283 0.8405
vn -0.5404 0.0281 0.8409
vn -0.5407 0.0281 0.8407
vn 0.5408 0.0283 -0.8407
vn -0.5407 -0.0284 -0.8407
vn 0.5408 -0.0281 0.8407
vn -0.5408 0.0279 0.8407
vn 0.5407 0.0283 -0.8407
vn -0.5408 -0.0280 -0.8407
vn 0.5407 -0.0284 0.8407
vn -0.5406 0.0281 0.8408
vn 0.5409 0.0281 -0.8406
vn -0.5406 -0.0282 -0.8408
vn 0.5409 -0.0281 0.8406
vn -0.5713 0.5871 0.5736
vn 0.6222 0.0492 -0.7813
vn -0.5643 0.5886 -0.5790
vn -0.5777 -0.5777 -0.5767
vn 0.5263 0.6807 0.5096
vn 0.5424 -0.6915 0.4772
vn -0.5734 -0.5784 0.5802
vn -0.0000 1.0000 -0.0000
vn -0.6990 0.0012 -0.7151
vn 0.7140 0.0035 -0.7002
vn 0.6990 -0.0012 -0.7151
vn -0.7140 0.0035 0.7002
vn -0.7140 -0.0035 -0.7002
vn -0.0000 -1.0000 -0.0000
vn 0.7140 -0.0035 0.7002
vn 0.6990 0.0012 0.7151
vn -0.6990 -0.0012 0.7151
vn -0.5424 0.6915 0.4772
vn 0.5777 0.5777 -0.5767
vn -0.6222 -0.0492 -0.7813
vn 0.5734 0.5784 0.5802
vn 0.5643 -0.5886 -0.5790
vn 0.5713 -0.5871 0.5736
vn -0.5263 -0.6807 0.5096
vn -0.5791 -0.5773 -0.5756
vn 0.5791 -0.5773 0.5756
vn -0.5791 0.5773 0.5756
vn 0.5791 0.5773 -0.5756
vn 0.5734 -0.5784 -0.5802
vn -0.5734 0.5784 -0.5802
vn -0.5775 0.5764 -0.5782
vn 0.5775 -0.5764 -0.5782
vn -0.5776 -0.5779 -0.5766
vn 0.5776 0.5779 -0.5766
vn -0.5776 0.5779 0.5766
vn 0.5776 -0.5779 0.5766
vn -0.5775 -0.5764 0.5782
vn 0.5775 0.5764 0.5782
vn -0.6680 0.7441 -0.0064
vn 0.6680 -0.7441 -0.0064
vn -0.6678 -0.7443 0.0064
vn 0.6678 0.7443 0.0064
vn 0.6160 -0.5709 -0.5428
vn -0.7917 -0.5324 -0.2997
vn -0.7717 0.5324 -0.3478
vn 0.0898 -0.5615 0.8226
vn 0.6451 0.5615 -0.5182
vn 0.0517 0.5709 0.8194
vn -0.7071 0.7071 -0.0037
vn 0.7071 0.7071 0.0037
vn -0.7070 0.7072 -0.0048
vn -0.7071 -0.7071 0.0037
vn -0.0001 -0.0001 -1.0000
vn 0.0001 0.0001 -1.0000
vn 0.7071 -0.7071 -0.0037
vn 0.7070 -0.7072 -0.0047
vn 0.7070 0.7072 0.0047
vn -0.0000 -0.0000 1.0000
vn 0.0001 -0.0001 1.0000
vn -0.0001 0.0001 1.0000
vn -0.7070 -0.7072 0.0048
vn -0.7916 -0.5332 -0.2983
vn 0.0892 -0.5632 0.8215
vn 0.0522 0.5728 0.8180
vn 0.6153 -0.5728 -0.5415
vn 0.6439 0.5632 -0.5178
vn -0.7707 0.5332 -0.3488
vn 0.6153 -0.5729 -0.5415
vn -0.7095 0.0014 0.7047
vn -0.7051 -0.0003 -0.7091
vn -0.7095 -0.0014 -0.7047
vn 0.7051 0.0003 -0.7091
vn 0.7095 0.0014 -0.7047
vn -0.7051 0.0003 0.7091
vn 0.7051 -0.0003 0.7091
vn 0.7095 -0.0014 0.7047
vn -0.4839 -0.4757 -0.7345
vn 0.4887 0.3995 -0.7756
vn 0.4542 -0.5022 -0.7358
vn -0.4578 0.4201 -0.7835
vn -0.6643 0.7048 -0.2489
vn -0.7030 -0.6843 -0.1938
vn 0.6799 -0.6592 0.3211
vn -0.3741 -0.4273 0.8231
vn 0.0015 -0.8851 0.4654
vn 0.3667 -0.3951 0.8423
vn -0.0024 0.0053 1.0000
vn -0.3722 0.3951 0.8399
vn -0.6808 0.6610 0.3157
vn -0.0030 0.8957 0.4446
vn -0.0021 0.8982 0.4395
vn -0.8296 -0.5180 0.2084
vn 0.6842 -0.7020 -0.1979
vn 0.6836 0.6869 -0.2468
vn 0.8238 0.5197 0.2264
vn 0.7969 0.0345 0.6032
vn -0.6807 -0.3795 -0.6266
vn 0.3605 0.8359 -0.4139
vn 0.6746 -0.4101 -0.6137
vn 0.8738 0.4105 -0.2607
vn -0.3226 -0.9263 0.1948
vn 0.6020 -0.7430 0.2925
vn -0.9202 -0.2218 0.3226
vn -0.5799 0.7289 -0.3639
vn -0.6969 -0.3726 0.6127
vn 0.8254 0.2347 0.5134
vn -0.4685 0.7689 0.4350
vn 0.6884 -0.7254 -0.0045
vn -0.7127 -0.7014 0.0073
vn -0.4217 -0.9067 0.0002
vn 0.4214 -0.9069 -0.0000
vn 0.9408 -0.0617 0.3332
vn 0.9576 -0.2878 0.0139
vn 0.5814 0.7335 0.3521
vn 0.3274 -0.9249 -0.1935
vn -0.6272 -0.7278 -0.2772
vn 0.9331 -0.2216 -0.2832
vn 0.6430 -0.5656 0.5163
vn -0.9597 -0.2810 -0.0060
vn -0.9436 0.0077 -0.3311
vn -0.6816 -0.7305 0.0432
vn 0.4078 -0.9122 -0.0411
vn 0.3722 0.7824 0.4993
vn -0.1006 0.8606 -0.4993
vn -0.0000 0.9784 -0.2067
vn 0.6885 0.7101 -0.1474
vn -0.5809 0.5795 0.5716
vn 0.5809 0.5795 -0.5716
vn -0.5734 0.5765 -0.5821
vn 0.5734 0.5765 0.5821
vn 0.5734 -0.5765 -0.5821
vn 0.5809 -0.5795 0.5716
vn -0.5734 -0.5765 0.5821
vn -0.5809 -0.5795 -0.5716
vn -0.4086 -0.9117 0.0430
vn 0.1018 0.8612 0.4979
vn -0.3709 0.7821 -0.5007
vn 0.6810 -0.7311 -0.0414
vn -0.0000 0.9997 -0.0226
vn -0.0000 0.9997 -0.0227
vn -0.6025 -0.5933 0.5339
vn -0.6292 0.1009 0.7707
vn -0.6322 0.6269 0.4553
vn 0.0102 0.1660 0.9861
vn 0.6306 0.6512 0.4221
vn -0.6310 0.7646 -0.1314
vn -0.9999 0.0162 0.0005
vn -0.6388 -0.7098 -0.2968
vn 0.6018 -0.7533 -0.2654
vn 0.6395 -0.5412 0.5460
vn -0.6313 0.4398 -0.6388
vn 0.6310 0.7559 -0.1744
vn 0.6329 0.4049 -0.6600
vn -0.0102 -0.2202 -0.9754
vn 0.6290 -0.1988 -0.7515
vn 0.9999 0.0146 -0.0066
vn 0.0190 0.7102 0.7037
vn -0.0108 -0.1083 0.9941
vn -0.0035 -0.8034 0.5954
vn -0.0001 -0.9657 -0.2596
vn 0.0034 -0.3995 -0.9167
vn 0.0108 0.3997 -0.9166
vn -0.0188 0.9674 -0.2524
vn 0.0838 -0.9703 -0.2269
vn 0.0542 -0.8623 -0.5036
vn -0.0125 -0.9186 -0.3949
vn 0.6292 0.0948 -0.7714
vn -0.4096 0.7065 -0.5771
vn 0.2351 0.9719 -0.0138
vn -0.8631 0.0010 -0.5050
vn 0.4792 -0.6744 -0.5617
vn -0.7351 0.1117 0.6687
vn -0.0601 0.3173 0.9464
vn 0.6492 0.0780 -0.7566
vn -0.7682 0.1318 0.6265
vn 0.1301 0.1856 0.9740
vn 0.8204 -0.0057 0.5718
vn -0.2078 -0.9564 -0.2053
vn -0.5849 0.7978 -0.1460
vn -0.8218 0.3362 0.4600
vn -0.8596 -0.3885 0.3319
vn -0.8580 -0.3906 0.3337
vn -0.7161 -0.4726 -0.5137
vn -0.6967 -0.4963 -0.5180
vn -0.2325 -0.7994 0.5540
vn -0.2616 0.6659 0.6987
vn 0.1782 0.7722 -0.6099
vn -0.0804 0.3851 -0.9194
vn 0.6548 0.7050 -0.2725
vn 0.0787 0.5115 -0.8557
vn 0.0288 0.7209 0.6924
vn -0.1141 0.7570 0.6434
vn 0.0832 0.7978 0.5972
vn 0.7358 0.2967 0.6087
vn 0.7687 0.2557 0.5863
vn 0.7196 0.2696 -0.6399
vn -0.0864 -0.7352 -0.6723
vn 0.0561 0.2942 0.9541
vn -0.0334 0.8371 -0.5461
vn 0.0413 0.4722 -0.8805
vn 0.7950 -0.3500 -0.4954
vn 0.8334 -0.3313 0.4424
vn 0.0424 -0.8224 -0.5674
vn -0.0358 0.3260 -0.9447
vn 0.5366 0.5085 0.6734
vn -0.5456 -0.0069 0.8380
vn -0.1292 0.4145 0.9008
vn 0.4116 -0.9103 -0.0434
vn 0.2771 0.7608 0.5869
vn -0.1212 -0.5913 0.7973
vn 0.0427 0.3304 0.9429
vn -0.0355 -0.8199 0.5714
vn 0.5390 -0.0099 -0.8422
vn -0.5432 0.5036 -0.6718
vn -0.0190 -0.7102 0.7037
vn 0.0035 0.8034 0.5954
vn 0.0002 0.9657 -0.2596
vn -0.0034 0.3995 -0.9167
vn 0.0108 0.1083 0.9941
vn -0.0108 -0.3996 -0.9166
vn 0.0188 -0.9674 -0.2524
vn 0.8035 0.1097 -0.5852
vn 0.0075 -0.9998 -0.0164
vn -0.1168 -0.9932 -0.0029
vn -0.0218 0.1336 0.9908
vn 0.6812 0.0868 0.7270
vn -0.0260 0.1589 0.9870
vn -0.7421 0.1181 -0.6598
vn 0.0215 0.0258 -0.9994
vn -0.6151 0.1010 0.7819
vn -0.7738 -0.4288 -0.4662
vn 0.1171 -0.6222 -0.7740
vn 0.1846 -0.8626 -0.4710
vn -0.2994 0.5446 0.7834
vn -0.7674 0.3822 0.5148
vn 0.0016 0.5379 0.8430
vn -0.2090 -0.6484 0.7320
vn -0.8704 -0.2999 0.3906
vn -0.8333 0.2354 -0.5002
vn -0.8801 0.1694 -0.4436
vn -0.4123 0.7567 -0.5074
vn 0.0424 -0.8224 -0.5673
vn 0.0589 0.8797 -0.4719
vn -0.0000 0.8047 -0.5937
vn 0.0238 0.8373 -0.5462
vn 0.1105 0.9290 -0.3531
vn 0.5524 0.4250 0.7171
vn 0.3945 -0.6237 -0.6748
vn 0.8009 -0.3448 -0.4896
vn 0.9424 0.0564 0.3298
vn -0.7471 -0.3068 -0.5897
vn -0.1712 -0.6333 0.7547
vn -0.9030 -0.1384 0.4068
vn 0.9836 0.1681 0.0656
vn 0.8207 -0.4779 0.3132
vn 0.4003 0.5985 -0.6939
vn 0.5390 -0.0099 -0.8423
vn 0.0190 0.7102 0.7038
vn -0.0108 -0.1084 0.9941
vn -0.0036 -0.8034 0.5954
vn -0.0002 -0.9657 -0.2595
vn -0.3690 0.4659 0.8042
vn -0.3891 0.0655 0.9189
vn -0.0397 -0.9927 0.1135
vn -0.3222 -0.9302 0.1757
vn 0.0376 0.1251 0.9914
vn 0.8827 -0.0047 0.4699
vn 0.6673 0.0906 -0.7393
vn 0.0533 0.0435 -0.9976
vn -0.6409 0.7673 0.0228
vn -0.4119 0.7082 0.5734
vn 0.3400 0.7018 -0.6260
vn 0.1170 0.4163 0.9017
vn -0.7854 0.3537 0.5079
vn -0.7518 -0.4857 0.4459
vn -0.7986 -0.4847 -0.3568
vn -0.8827 -0.4157 -0.2194
vn -0.3713 0.8417 -0.3920
vn -0.4731 0.4814 -0.7378
vn -0.5132 0.2675 -0.8155
vn -0.1031 0.8931 -0.4379
vn 0.7352 0.2443 0.6322
vn -0.0054 0.8117 0.5840
vn 0.0874 0.8392 0.5368
vn 0.0029 0.4600 0.8879
vn 0.8294 -0.3361 -0.4461
vn 0.2442 0.7945 0.5559
vn 0.6329 0.4048 -0.6600
vn 0.0108 0.1084 0.9941
vn 0.0036 0.8035 0.5954
vn 0.3948 -0.1248 0.9103
vn -0.8166 -0.4338 -0.3807
vn -0.1801 0.6337 0.7523
vn -0.7896 0.3599 0.4970
vn -0.6598 -0.5028 0.5584
vn -0.6916 -0.4867 0.5336
vn 0.0252 -0.7057 0.7081
vn -0.0824 -0.9963 -0.0256
vn 0.0345 0.4580 -0.8883
vn -0.0791 0.0804 -0.9936
vn -0.7194 0.1508 -0.6780
vn -0.2017 0.9144 0.3509
vn 0.0088 0.8424 -0.5387
vn 0.3666 0.9140 -0.1737
vn -0.2475 -0.9687 -0.0191
vn 0.2823 -0.9470 0.1535
vn -0.2727 0.1064 0.9562
vn 0.6796 0.1390 0.7203
vn 0.7140 0.3192 0.6231
vn -0.0006 0.7017 0.7125
vn 0.0815 0.7669 0.6366
vn 0.2998 0.7353 0.6078
vn 0.7249 0.2979 -0.6211
vn 0.2690 0.3687 0.8898
vn -0.0452 -0.6843 0.7278
vn -0.4694 0.5005 -0.7274
vn 0.6539 -0.5227 0.5470
vn -0.7572 0.6531 -0.0106
vn 0.7572 -0.6531 -0.0106
vn -0.7572 -0.6531 0.0106
vn 0.7572 0.6531 0.0106
vn -0.7470 0.6647 -0.0118
vn 0.7470 0.6647 0.0118
vn 0.7470 -0.6647 -0.0118
vn -0.7470 -0.6647 0.0118
vn 0.8120 0.5832 0.0222
vn -0.8120 -0.5832 0.0222
vn 0.8120 -0.5832 -0.0222
vn -0.8120 0.5832 -0.0222
vn 0.7783 0.6278 0.0067
vn -0.7783 -0.6278 0.0067
vn 0.7783 -0.6279 -0.0066
vn -0.7783 0.6279 -0.0066
vn -0.0000 -0.0000 -0.0000
vn -0.7862 0.5649 -0.2507
vn -0.9456 0.2343 0.2259
vn -0.9455 0.2345 0.2260
vn -0.9455 0.2344 0.2259
vn 0.1647 -0.8020 0.5742
vn -0.5252 0.6198 -0.5831
vn 0.6064 -0.6744 0.4212
vn 0.9922 -0.0468 0.1158
vn -0.5781 0.5630 -0.5906
vn -0.6300 -0.3877 0.6728
vn -0.7498 0.2148 -0.6258
vn 0.3664 0.4979 0.7860
vn -0.3411 -0.5231 -0.7810
vn 0.9109 -0.3061 -0.2769
vn -0.8597 -0.1375 -0.4920
vn 0.9617 -0.1834 0.2037
vn 0.8812 0.0796 -0.4661
vn 0.8882 0.0259 -0.4588
vn 0.8191 -0.4304 -0.3792
vn -0.3019 0.7103 -0.6358
vn 0.1363 -0.0101 0.9906
vn -0.5147 0.8338 -0.1998
vn -0.1797 -0.3537 0.9179
vn 0.1151 0.2383 0.9643
vn -0.9109 -0.0652 0.4074
vn -0.8875 -0.0293 0.4598
vn 0.6503 -0.7580 -0.0499
vn 0.8870 -0.0205 -0.4613
vn -0.7659 -0.5445 -0.3420
vn -0.8507 -0.0831 0.5191
vn 0.6051 -0.6663 0.4358
vn -0.5782 0.5630 -0.5906
vn -0.6300 -0.3878 0.6728
vn -0.7498 0.2148 -0.6259
vn -0.8794 0.3600 0.3114
vn -0.8893 -0.1512 0.4317
vn -0.7584 0.2295 0.6100
vn 0.6400 -0.1486 -0.7539
vn -0.9131 0.3214 0.2510
vn 0.5254 0.6830 0.5074
vn 0.5228 -0.1749 0.8343
vn 0.1249 -0.9257 0.3572
vn -0.0476 0.9292 -0.3666
vn 0.5928 -0.0782 0.8016
vn 0.7542 0.2667 -0.6001
vn 0.9986 0.0151 0.0508
vn -0.5368 0.7925 0.2896
vn -0.2270 0.0379 -0.9731
vn -0.2617 0.0380 -0.9644
vn 0.5343 -0.8109 -0.2387
vn 0.2096 0.5376 -0.8168
vn 0.4702 -0.7826 0.4080
vn -0.7699 0.6324 -0.0857
vn 0.1453 0.5447 0.8259
vn 0.3556 -0.8493 -0.3900
vn -0.7927 -0.1606 -0.5881
vn 0.2351 0.9349 -0.2658
vn -0.8222 -0.1889 0.5370
vn -0.0520 0.9905 -0.1275
vn -0.7746 0.3962 -0.4930
vn 0.1456 0.5447 0.8259
vn 0.7451 0.0861 -0.6613
vn -0.4070 -0.8473 0.3412
vn -0.5170 -0.4322 -0.7388
vn 0.0348 0.9508 -0.3078
vn 0.0564 0.0099 -0.9984
vn -0.0590 -0.5890 -0.8059
vn -0.9699 -0.1630 0.1809
vn 0.0714 0.0099 -0.9974
vn -0.9697 0.1191 0.2133
vn -0.9468 -0.1934 -0.2574
vn 0.4390 0.0702 -0.8958
vn -0.9372 -0.3206 0.1372
vn -0.8877 -0.0318 0.4594
vn -0.3593 0.9322 0.0441
vn 0.0831 0.5653 -0.8207
vn -0.5454 -0.3754 0.7494
vn -0.2359 0.5432 0.8058
vn 0.6264 -0.6563 0.4206
vn 0.6283 -0.0730 0.7746
vn -0.7844 0.0659 0.6167
vn 0.5722 -0.6621 0.4839
vn -0.7255 0.4542 0.5170
vn -0.7308 -0.2932 0.6164
vn 0.6684 0.2601 0.6969
vn -0.8095 -0.4021 -0.4279
vn 0.4018 0.0703 -0.9130
vn 0.3784 0.1408 -0.9149
vn -0.9396 0.0066 0.3423
vn 0.9401 0.1930 0.2812
vn 0.9589 -0.1870 -0.2132
vn 0.6012 -0.5718 0.5582
vn 0.6485 -0.1734 -0.7412
vn -0.6039 0.7893 0.1108
vn -0.4476 0.7141 0.5382
vn -0.1966 -0.3788 -0.9043
vn -0.0765 0.9831 -0.1661
vn 0.7422 0.5796 0.3365
vn 0.5902 0.3000 0.7494
vn 0.7453 -0.6362 0.1994
vn 0.5794 -0.6934 -0.4285
vn -0.2687 -0.0307 0.9627
vn -0.0351 -0.5315 -0.8463
vn -0.4474 0.7249 -0.5237
vn 0.8584 -0.4503 -0.2458
vn 0.7609 0.2926 0.5792
vn 0.7334 -0.2779 0.6204
vn 0.7043 -0.6020 0.3763
vn -0.8875 -0.0042 0.4607
vn -0.4473 0.7141 0.5385
vn -0.4722 -0.7989 0.3727
vn -0.6869 -0.6619 -0.3001
vn 0.7421 0.5797 0.3365
vn -0.0518 -0.3330 -0.9415
vn -0.9293 -0.0018 0.3693
vn -0.4472 0.7145 0.5381
vn -0.3075 -0.8784 0.3658
vn 0.4493 -0.8934 0.0091
vn 0.7213 0.5938 0.3566
vn 0.6499 -0.4271 0.6286
vt 0.292662 0.654121
vt 0.292662 0.688059
vt 0.258968 0.688819
vt 0.258968 0.654881
vt 0.519005 0.673705
vt 0.519005 0.710598
vt 0.494457 0.709911
vt 0.494457 0.665182
vt 0.540740 0.712695
vt 0.540740 0.665182
vt 0.556711 0.669244
vt 0.556711 0.708434
vt 0.445214 0.669894
vt 0.445214 0.588330
vt 0.472808 0.590725
vt 0.472808 0.660589
vt 0.438050 0.512360
vt 0.438050 0.604277
vt 0.410369 0.610900
vt 0.410369 0.503589
vt 0.572950 0.834598
vt 0.572700 0.835004
vt 0.572944 0.835033
vt 0.277571 0.822728
vt 0.277662 0.823123
vt 0.277402 0.822780
vt 0.313183 0.884338
vt 0.313169 0.884286
vt 0.312936 0.884125
vt 0.092738 0.884825
vt 0.093001 0.884551
vt 0.092755 0.884551
vt 0.553427 0.877927
vt 0.552812 0.877827
vt 0.553304 0.878067
vt 0.465592 0.824019
vt 0.465684 0.824413
vt 0.465424 0.824070
vt 0.447586 0.836033
vt 0.448004 0.836049
vt 0.447694 0.835885
vt 0.106201 0.820550
vt 0.106300 0.821129
vt 0.106343 0.820784
vt 0.277998 0.823948
vt 0.272472 0.827823
vt 0.277982 0.823893
vt 0.097917 0.773277
vt 0.098183 0.780087
vt 0.097917 0.780778
vt 0.881526 0.503584
vt 0.881776 0.510407
vt 0.881526 0.510538
vt 0.100755 0.825245
vt 0.105923 0.820943
vt 0.106208 0.820962
vt 0.278347 0.823245
vt 0.278422 0.822996
vt 0.278573 0.823039
vt 0.573085 0.835021
vt 0.573819 0.834594
vt 0.574082 0.834706
vt 0.277325 0.823022
vt 0.241430 0.878155
vt 0.241156 0.878975
vt 0.240815 0.877724
vt 0.239774 0.878004
vt 0.239877 0.879162
vt 0.239562 0.877827
vt 0.419913 0.871189
vt 0.420741 0.870953
vt 0.420953 0.871264
vt 0.509205 0.868841
vt 0.509530 0.869792
vt 0.508860 0.868728
vt 0.865325 0.836057
vt 0.863998 0.836462
vt 0.864042 0.836233
vt 0.526724 0.871534
vt 0.527878 0.871630
vt 0.527177 0.871716
vt 0.144320 0.868793
vt 0.145150 0.868612
vt 0.145365 0.868799
vt 0.466003 0.825184
vt 0.465346 0.824313
vt 0.865644 0.803943
vt 0.864934 0.804236
vt 0.864290 0.803973
vt 0.446726 0.836251
vt 0.447477 0.836175
vt 0.526169 0.883068
vt 0.526525 0.883860
vt 0.526268 0.884075
vt 0.106951 0.820622
vt 0.279671 0.816239
vt 0.277489 0.823283
vt 0.572854 0.835015
vt 0.568752 0.839766
vt 0.874247 0.661131
vt 0.873633 0.667367
vt 0.874183 0.661141
vt 0.013126 0.868500
vt 0.012745 0.875435
vt 0.012523 0.875468
vt 0.569883 0.864095
vt 0.569825 0.870463
vt 0.569819 0.864082
vt 0.312940 0.876491
vt 0.312688 0.869984
vt 0.312829 0.869796
vt 0.467693 0.817530
vt 0.465511 0.824574
vt 0.881780 0.524490
vt 0.881526 0.517770
vt 0.881780 0.517702
vt 0.874247 0.675250
vt 0.873633 0.681486
vt 0.874183 0.675260
vt 0.466020 0.825239
vt 0.460494 0.829113
vt 0.108341 0.813941
vt 0.106272 0.820573
vt 0.445303 0.842277
vt 0.447748 0.836004
vt 0.447849 0.836334
vt 0.450967 0.841810
vt 0.447805 0.836382
vt 0.494633 0.870575
vt 0.496250 0.870535
vt 0.496042 0.870801
vt 0.385742 0.870388
vt 0.385100 0.870142
vt 0.386292 0.870347
vt 0.573627 0.835594
vt 0.573175 0.834907
vt 0.871271 0.827127
vt 0.872498 0.827197
vt 0.871271 0.827505
vt 0.099168 0.780139
vt 0.098327 0.780357
vt 0.122826 0.868220
vt 0.121687 0.868532
vt 0.122698 0.867845
vt 0.860035 0.883341
vt 0.860390 0.882276
vt 0.860390 0.883723
vt 0.552202 0.879700
vt 0.552373 0.878582
vt 0.552409 0.879552
vt 0.240163 0.870051
vt 0.241430 0.869971
vt 0.241222 0.870237
vt 0.012884 0.883106
vt 0.012523 0.884206
vt 0.012523 0.882862
vt 0.871746 0.788181
vt 0.872974 0.788251
vt 0.871747 0.788559
vt 0.494457 0.878529
vt 0.495762 0.878249
vt 0.494661 0.878730
vt 0.384618 0.883080
vt 0.385550 0.882458
vt 0.384778 0.883260
vt 0.879610 0.864813
vt 0.878792 0.865045
vt 0.878963 0.864773
vt 0.354515 0.883505
vt 0.354265 0.883471
vt 0.354490 0.883384
vt 0.277292 0.823121
vt 0.873497 0.736630
vt 0.873227 0.743942
vt 0.873312 0.736634
vt 0.552993 0.863939
vt 0.553794 0.863590
vt 0.553986 0.863882
vt 0.313845 0.870307
vt 0.313782 0.876552
vt 0.313774 0.870268
vt 0.864288 0.842729
vt 0.879749 0.850763
vt 0.879449 0.857054
vt 0.879678 0.850742
vt 0.465313 0.824412
vt 0.445950 0.829138
vt 0.447623 0.836375
vt 0.108341 0.827601
vt 0.105732 0.821301
vt 0.874014 0.660743
vt 0.873158 0.661091
vt 0.873019 0.660707
vt 0.121382 0.868881
vt 0.120812 0.868451
vt 0.568873 0.863975
vt 0.568791 0.864134
vt 0.873281 0.674881
vt 0.872977 0.675046
vt 0.107222 0.820866
vt 0.106988 0.821069
vt 0.573054 0.834824
vt 0.573938 0.835021
vt 0.430518 0.868237
vt 0.429458 0.868478
vt 0.430477 0.867807
vt 0.880352 0.826543
vt 0.881300 0.827084
vt 0.880256 0.826742
vt 0.312755 0.876636
vt 0.874542 0.766121
vt 0.875526 0.766190
vt 0.874681 0.766394
vt 0.867336 0.760409
vt 0.866276 0.760650
vt 0.867295 0.759978
vt 0.881692 0.729164
vt 0.883072 0.727977
vt 0.882014 0.729328
vt 0.459618 0.881105
vt 0.460845 0.881175
vt 0.459619 0.881483
vt 0.881405 0.546268
vt 0.881522 0.553600
vt 0.881405 0.553621
vt 0.279853 0.829621
vt 0.277598 0.822670
vt 0.230866 0.869996
vt 0.231444 0.863118
vt 0.231682 0.870041
vt 0.552393 0.870580
vt 0.552919 0.863934
vt 0.467874 0.830912
vt 0.465619 0.823961
vt 0.487055 0.496345
vt 0.003819 0.003662
vt 0.487135 0.003742
vt 0.003740 0.496265
vt 0.494534 0.003825
vt 0.978014 0.003742
vt 0.977935 0.496338
vt 0.494615 0.496261
vt 0.699402 0.995950
vt 0.693167 0.503584
vt 0.699356 0.503584
vt 0.779856 0.507814
vt 0.779624 0.868629
vt 0.772799 0.868637
vt 0.847048 0.850381
vt 0.852694 0.857541
vt 0.846986 0.857335
vt 0.852713 0.850583
vt 0.644357 0.503584
vt 0.637298 0.978255
vt 0.637532 0.503607
vt 0.693248 0.996035
vt 0.644191 0.978229
vt 0.779834 0.503584
vt 0.772964 0.507795
vt 0.773038 0.503592
vt 0.666062 0.503822
vt 0.672298 0.996180
vt 0.666144 0.996265
vt 0.672216 0.503737
vt 0.299650 0.850798
vt 0.305296 0.857958
vt 0.299589 0.857752
vt 0.305315 0.851001
vt 0.794322 0.507814
vt 0.794090 0.868629
vt 0.787264 0.868637
vt 0.712805 0.996111
vt 0.706719 0.503584
vt 0.712909 0.503584
vt 0.679614 0.503822
vt 0.685769 0.503737
vt 0.685700 0.996342
vt 0.658822 0.503584
vt 0.651763 0.978255
vt 0.651997 0.503607
vt 0.679696 0.996265
vt 0.794300 0.503584
vt 0.787429 0.507795
vt 0.787504 0.503592
vt 0.706801 0.996035
vt 0.658656 0.978229
vt 0.740946 0.503822
vt 0.740883 0.977934
vt 0.734732 0.977934
vt 0.727166 0.503631
vt 0.727321 0.950057
vt 0.720356 0.950191
vt 0.720196 0.503741
vt 0.193109 0.849536
vt 0.198896 0.856542
vt 0.193121 0.856553
vt 0.813468 0.831010
vt 0.820127 0.508116
vt 0.820293 0.831019
vt 0.813238 0.508065
vt 0.198928 0.849563
vt 0.748425 0.977843
vt 0.748364 0.503584
vt 0.754364 0.503584
vt 0.820054 0.503593
vt 0.734789 0.503749
vt 0.813258 0.503584
vt 0.754356 0.977809
vt 0.850118 0.503727
vt 0.853970 0.503703
vt 0.853987 0.729323
vt 0.245918 0.855604
vt 0.242049 0.630099
vt 0.246003 0.630099
vt 0.850135 0.729347
vt 0.242066 0.855628
vt 0.234647 0.855604
vt 0.230778 0.630099
vt 0.234733 0.630099
vt 0.827576 0.503727
vt 0.831428 0.503704
vt 0.831445 0.729323
vt 0.827593 0.729347
vt 0.230796 0.855628
vt 0.865258 0.729089
vt 0.861388 0.503584
vt 0.865343 0.503584
vt 0.861406 0.729113
vt 0.480091 0.588473
vt 0.483961 0.814070
vt 0.480108 0.814094
vt 0.483943 0.588450
vt 0.181366 0.866204
vt 0.177496 0.640699
vt 0.181451 0.640699
vt 0.838847 0.503727
vt 0.842716 0.729323
vt 0.838864 0.729347
vt 0.177514 0.866228
vt 0.842699 0.503703
vt 0.459687 0.782552
vt 0.466788 0.712191
vt 0.466809 0.782532
vt 0.126255 0.710968
vt 0.123921 0.777202
vt 0.120808 0.711089
vt 0.059250 0.742423
vt 0.059408 0.737213
vt 0.064483 0.737225
vt 0.459666 0.712211
vt 0.830589 0.853884
vt 0.832882 0.860640
vt 0.827519 0.860623
vt 0.501628 0.717947
vt 0.494526 0.788310
vt 0.494506 0.717968
vt 0.501648 0.788289
vt 0.064613 0.742457
vt 0.059196 0.790317
vt 0.064655 0.790332
vt 0.410519 0.769641
vt 0.424822 0.737952
vt 0.424883 0.769585
vt 0.841779 0.736630
vt 0.841772 0.766386
vt 0.838224 0.766394
vt 0.073768 0.814928
vt 0.073826 0.804456
vt 0.077331 0.804463
vt 0.838204 0.736711
vt 0.149153 0.741406
vt 0.149214 0.773040
vt 0.134851 0.773096
vt 0.213637 0.845080
vt 0.210070 0.858780
vt 0.210133 0.845081
vt 0.073751 0.836515
vt 0.077319 0.815016
vt 0.077333 0.836522
vt 0.213622 0.858850
vt 0.410458 0.738008
vt 0.134790 0.741462
vt 0.195720 0.785853
vt 0.202822 0.715491
vt 0.202842 0.785833
vt 0.195700 0.715511
vt 0.600296 0.729471
vt 0.603370 0.795593
vt 0.598017 0.795692
vt 0.433860 0.853540
vt 0.433989 0.860295
vt 0.428626 0.860279
vt 0.428786 0.853540
vt 0.432145 0.790929
vt 0.432199 0.743035
vt 0.437562 0.743069
vt 0.437604 0.790944
vt 0.435267 0.737832
vt 0.217226 0.715491
vt 0.217246 0.785833
vt 0.210124 0.785854
vt 0.210104 0.715512
vt 0.827474 0.786333
vt 0.831037 0.775868
vt 0.831026 0.786421
vt 0.827533 0.775861
vt 0.271746 0.762746
vt 0.271685 0.731113
vt 0.286049 0.731057
vt 0.827457 0.807920
vt 0.286110 0.762690
vt 0.135113 0.809642
vt 0.135106 0.839398
vt 0.131559 0.839406
vt 0.131539 0.809723
vt 0.831040 0.807927
vt 0.356252 0.740335
vt 0.341950 0.772024
vt 0.341888 0.740390
vt 0.124382 0.846806
vt 0.124367 0.860576
vt 0.120815 0.860506
vt 0.120878 0.846806
vt 0.356313 0.771968
vt 0.452385 0.712191
vt 0.445283 0.782553
vt 0.445263 0.712211
vt 0.363575 0.793311
vt 0.363629 0.745417
vt 0.368992 0.745451
vt 0.369034 0.793327
vt 0.368862 0.740219
vt 0.818288 0.854017
vt 0.818417 0.860772
vt 0.813054 0.860756
vt 0.106465 0.781489
vt 0.106445 0.711148
vt 0.113567 0.711128
vt 0.813214 0.854017
vt 0.452406 0.782533
vt 0.264423 0.730955
vt 0.259021 0.797246
vt 0.258976 0.731077
vt 0.264373 0.797147
vt 0.363787 0.740208
vt 0.113587 0.781469
vt 0.018035 0.737352
vt 0.018096 0.768985
vt 0.003732 0.769041
vt 0.124375 0.809642
vt 0.124368 0.839398
vt 0.120820 0.839406
vt 0.120800 0.809723
vt 0.403033 0.845577
vt 0.399466 0.859277
vt 0.399529 0.845578
vt 0.827457 0.768690
vt 0.831026 0.747190
vt 0.831040 0.768697
vt 0.827474 0.747103
vt 0.831037 0.736637
vt 0.003671 0.737407
vt 0.827533 0.736630
vt 0.403018 0.859347
vt 0.037570 0.769029
vt 0.051872 0.737340
vt 0.051934 0.768973
vt 0.037509 0.737396
vt 0.195700 0.630326
vt 0.223398 0.707935
vt 0.195723 0.707340
vt 0.223395 0.630917
vt 0.465346 0.503874
vt 0.483646 0.503907
vt 0.483646 0.580915
vt 0.035886 0.695027
vt 0.060634 0.665706
vt 0.060724 0.695053
vt 0.028546 0.665538
vt 0.028461 0.694858
vt 0.003693 0.694999
vt 0.410432 0.618256
vt 0.434391 0.695538
vt 0.410416 0.695418
vt 0.465329 0.580881
vt 0.003708 0.665511
vt 0.445215 0.503917
vt 0.445214 0.580922
vt 0.434409 0.618377
vt 0.035842 0.665552
vt 0.540775 0.720068
vt 0.559359 0.749696
vt 0.540784 0.749289
vt 0.559385 0.720452
vt 0.540740 0.757344
vt 0.554584 0.786453
vt 0.540741 0.786459
vt 0.554641 0.757288
vt 0.403205 0.798636
vt 0.400303 0.798626
vt 0.400488 0.657236
vt 0.363872 0.855821
vt 0.366005 0.852420
vt 0.368140 0.855926
vt 0.403205 0.657248
vt 0.464372 0.856006
vt 0.462230 0.859436
vt 0.460079 0.855879
vt 0.305113 0.786576
vt 0.300923 0.645111
vt 0.304917 0.644976
vt 0.301150 0.786755
vt 0.316811 0.786662
vt 0.313419 0.645018
vt 0.316921 0.645139
vt 0.313794 0.786716
vt 0.156468 0.779927
vt 0.163208 0.741420
vt 0.163208 0.779916
vt 0.368111 0.661687
vt 0.373143 0.661831
vt 0.373143 0.697793
vt 0.605178 0.650076
vt 0.569028 0.687126
vt 0.569027 0.650882
vt 0.605179 0.686317
vt 0.285502 0.770037
vt 0.291993 0.806021
vt 0.285502 0.805996
vt 0.156468 0.741431
vt 0.291993 0.770062
vt 0.341906 0.661739
vt 0.368104 0.697918
vt 0.341893 0.697971
vt 0.278337 0.770180
vt 0.271598 0.808686
vt 0.271598 0.770189
vt 0.278338 0.808676
vt 0.435619 0.830384
vt 0.433098 0.830438
vt 0.432776 0.798260
vt 0.272044 0.859458
vt 0.273798 0.856597
vt 0.275569 0.859533
vt 0.148965 0.812551
vt 0.145458 0.780597
vt 0.148799 0.780462
vt 0.145645 0.812730
vt 0.262077 0.836820
vt 0.259825 0.804900
vt 0.262077 0.804909
vt 0.259675 0.836812
vt 0.435729 0.798381
vt 0.483961 0.860414
vt 0.482144 0.863282
vt 0.480355 0.860294
vt 0.583360 0.860571
vt 0.584976 0.857652
vt 0.586886 0.860646
vt 0.402560 0.838185
vt 0.400158 0.838176
vt 0.400308 0.806264
vt 0.544670 0.826032
vt 0.541164 0.794078
vt 0.544505 0.793943
vt 0.541351 0.826211
vt 0.402560 0.806274
vt 0.075846 0.863199
vt 0.074175 0.866007
vt 0.072240 0.863078
vt 0.586396 0.827969
vt 0.583553 0.795845
vt 0.586506 0.795966
vt 0.583875 0.828023
vt 0.082860 0.677284
vt 0.082828 0.772218
vt 0.073808 0.772233
vt 0.517967 0.717762
vt 0.508926 0.768411
vt 0.508959 0.717953
vt 0.127441 0.633434
vt 0.073847 0.503692
vt 0.127416 0.503642
vt 0.517874 0.768263
vt 0.134797 0.503692
vt 0.188391 0.633432
vt 0.134821 0.633482
vt 0.073895 0.677241
vt 0.188367 0.503642
vt 0.073871 0.633484
vt 0.099175 0.640761
vt 0.099154 0.765672
vt 0.090190 0.765656
vt 0.082778 0.640701
vt 0.073751 0.640711
vt 0.090155 0.640797
vt 0.122229 0.702273
vt 0.110050 0.650563
vt 0.124539 0.651180
vt 0.107890 0.701621
vt 0.580258 0.785003
vt 0.571038 0.766184
vt 0.581762 0.771849
vt 0.568906 0.786748
vt 0.557157 0.648910
vt 0.505561 0.657830
vt 0.496625 0.648764
vt 0.550520 0.657811
vt 0.395512 0.614233
vt 0.382453 0.648414
vt 0.383561 0.613968
vt 0.395107 0.648996
vt 0.064561 0.649019
vt 0.007963 0.658142
vt 0.003767 0.649113
vt 0.055310 0.658231
vt 0.400687 0.603724
vt 0.555015 0.503591
vt 0.497082 0.514793
vt 0.503368 0.503611
vt 0.558658 0.514664
vt 0.359639 0.503589
vt 0.343359 0.514075
vt 0.348153 0.503657
vt 0.366917 0.513920
vt 0.057612 0.503633
vt 0.003722 0.514994
vt 0.008400 0.503722
vt 0.344480 0.643127
vt 0.366364 0.643115
vt 0.400024 0.503946
vt 0.378824 0.603231
vt 0.382569 0.503603
vt 0.063585 0.514941
vt 0.350074 0.653038
vt 0.360644 0.653037
vt 0.135929 0.640918
vt 0.170087 0.694705
vt 0.135600 0.698010
vt 0.164216 0.699180
vt 0.629503 0.504048
vt 0.578914 0.523658
vt 0.569091 0.503615
vt 0.619835 0.523646
vt 0.292450 0.503625
vt 0.286190 0.521939
vt 0.265110 0.521985
vt 0.251804 0.622935
vt 0.195996 0.622805
vt 0.247735 0.601871
vt 0.577236 0.621765
vt 0.619870 0.621776
vt 0.301113 0.503771
vt 0.328520 0.524105
vt 0.304102 0.525053
vt 0.307713 0.619017
vt 0.302160 0.620055
vt 0.247615 0.503820
vt 0.205431 0.601928
vt 0.205502 0.503807
vt 0.170211 0.656077
vt 0.210055 0.837916
vt 0.210055 0.820583
vt 0.215855 0.822923
vt 0.569198 0.642679
vt 0.300413 0.637624
vt 0.332765 0.619585
vt 0.300966 0.637627
vt 0.629167 0.642668
vt 0.334311 0.525278
vt 0.574417 0.523516
vt 0.285792 0.593896
vt 0.260543 0.596026
vt 0.589656 0.753720
vt 0.569048 0.756390
vt 0.587731 0.729376
vt 0.291684 0.605693
vt 0.292721 0.646650
vt 0.289493 0.646723
vt 0.303955 0.637549
vt 0.157611 0.843761
vt 0.156467 0.843702
vt 0.156836 0.812339
vt 0.291615 0.844760
vt 0.290852 0.813392
vt 0.291953 0.813318
vt 0.290381 0.844715
vt 0.158216 0.812455
vt 0.783439 0.876163
vt 0.782699 0.880836
vt 0.781990 0.876113
vt 0.052185 0.870229
vt 0.052978 0.875968
vt 0.051345 0.875931
vt 0.773725 0.876138
vt 0.774603 0.880833
vt 0.772816 0.880839
vt 0.062316 0.870226
vt 0.061400 0.875949
vt 0.060529 0.870233
vt 0.813162 0.846690
vt 0.820123 0.838346
vt 0.820164 0.846648
vt 0.813121 0.838387
vt 0.574201 0.848429
vt 0.574081 0.856232
vt 0.568874 0.856179
vt 0.291815 0.852121
vt 0.291864 0.858830
vt 0.286648 0.858780
vt 0.286741 0.852120
vt 0.077145 0.843686
vt 0.077203 0.849412
vt 0.071986 0.849356
vt 0.072023 0.843686
vt 0.466749 0.838571
vt 0.466789 0.846874
vt 0.459788 0.846915
vt 0.459747 0.838613
vt 0.569088 0.848427
vt 0.077124 0.854553
vt 0.072050 0.854553
vt 0.839341 0.805433
vt 0.838580 0.773947
vt 0.839903 0.774009
vt 0.839447 0.844469
vt 0.838204 0.844413
vt 0.838675 0.812835
vt 0.838204 0.805270
vt 0.839822 0.812967
vt 0.792428 0.876163
vt 0.791688 0.880836
vt 0.790980 0.876113
vt 0.355181 0.870289
vt 0.355974 0.876027
vt 0.354340 0.875990
vt 0.257527 0.877102
vt 0.258405 0.881798
vt 0.256618 0.881803
vt 0.167313 0.870246
vt 0.166397 0.875970
vt 0.165526 0.870253
vt 0.344805 0.849372
vt 0.339478 0.857123
vt 0.339692 0.849371
vt 0.261947 0.849939
vt 0.261868 0.855080
vt 0.256793 0.855080
vt 0.428734 0.846213
vt 0.435695 0.837869
vt 0.435736 0.846172
vt 0.344685 0.857175
vt 0.105524 0.852303
vt 0.100357 0.858962
vt 0.100450 0.852302
vt 0.533300 0.840437
vt 0.533341 0.848739
vt 0.526339 0.848781
vt 0.428693 0.837910
vt 0.105573 0.859012
vt 0.261890 0.844212
vt 0.256730 0.849882
vt 0.256767 0.844212
vt 0.526298 0.840478
vt 0.421019 0.727136
vt 0.416380 0.716129
vt 0.419100 0.706630
vt 0.410374 0.716492
vt 0.411922 0.708916
vt 0.426315 0.703286
vt 0.603413 0.810669
vt 0.603423 0.821117
vt 0.594771 0.820687
vt 0.436729 0.718225
vt 0.432492 0.728389
vt 0.363747 0.818994
vt 0.372600 0.805329
vt 0.372598 0.818775
vt 0.363663 0.804931
vt 0.433672 0.708143
vt 0.594763 0.810130
vt 0.603429 0.803106
vt 0.594778 0.803106
vt 0.509039 0.788679
vt 0.509777 0.778049
vt 0.517946 0.778797
vt 0.510253 0.795770
vt 0.517399 0.789351
vt 0.269465 0.722829
vt 0.259817 0.704856
vt 0.266879 0.697200
vt 0.277204 0.697208
vt 0.260137 0.715433
vt 0.284544 0.704867
vt 0.283293 0.717151
vt 0.518630 0.796010
vt 0.413840 0.727247
vt 0.089601 0.784149
vt 0.090675 0.790585
vt 0.086559 0.795862
vt 0.077866 0.796085
vt 0.073754 0.788216
vt 0.076025 0.781975
vt 0.081861 0.779551
vt 0.420954 0.778039
vt 0.423903 0.782284
vt 0.423023 0.788858
vt 0.417175 0.794248
vt 0.411362 0.790665
vt 0.410575 0.784177
vt 0.413778 0.778848
vt 0.568988 0.879307
vt 0.570384 0.878916
vt 0.570632 0.878988
vt 0.574059 0.834741
vt 0.574623 0.827905
vt 0.575623 0.828130
vt 0.569549 0.878475
vt 0.223321 0.865046
vt 0.222167 0.857584
vt 0.223321 0.857713
vt 0.495260 0.863680
vt 0.278580 0.823041
vt 0.280141 0.816244
vt 0.569800 0.880190
vt 0.569738 0.878193
vt 0.569491 0.878098
vt 0.221839 0.864492
vt 0.872599 0.646448
vt 0.873673 0.646414
vt 0.874184 0.652623
vt 0.569291 0.840294
vt 0.872782 0.827798
vt 0.872964 0.828442
vt 0.871729 0.828406
vt 0.386464 0.869040
vt 0.386710 0.869559
vt 0.575381 0.840866
vt 0.278585 0.822965
vt 0.280638 0.829520
vt 0.276926 0.822460
vt 0.384529 0.869154
vt 0.385534 0.868879
vt 0.540740 0.870837
vt 0.541666 0.870158
vt 0.541666 0.877461
vt 0.874182 0.610380
vt 0.873110 0.610447
vt 0.873112 0.603751
vt 0.838233 0.874367
vt 0.837216 0.874529
vt 0.837496 0.869033
vt 0.300547 0.865384
vt 0.301378 0.872012
vt 0.299889 0.871990
vt 0.460632 0.866989
vt 0.461439 0.873505
vt 0.459875 0.873552
vt 0.873691 0.652819
vt 0.540933 0.877583
vt 0.271596 0.826563
vt 0.872567 0.667318
vt 0.447343 0.874423
vt 0.446342 0.874544
vt 0.446594 0.870217
vt 0.873628 0.538543
vt 0.872623 0.538539
vt 0.873700 0.531843
vt 0.870629 0.871654
vt 0.869844 0.864996
vt 0.871343 0.865040
vt 0.101081 0.873029
vt 0.100227 0.866473
vt 0.101771 0.866426
vt 0.874194 0.708507
vt 0.872924 0.708315
vt 0.873971 0.702528
vt 0.347810 0.718512
vt 0.352449 0.729518
vt 0.345270 0.729630
vt 0.350530 0.709012
vt 0.341804 0.718875
vt 0.357745 0.705669
vt 0.419022 0.809384
vt 0.419032 0.819832
vt 0.410380 0.819402
vt 0.419038 0.801821
vt 0.410372 0.808845
vt 0.410387 0.801821
vt 0.365102 0.710526
vt 0.368159 0.720608
vt 0.210234 0.806078
vt 0.210972 0.795449
vt 0.219140 0.796196
vt 0.218593 0.806750
vt 0.211448 0.813169
vt 0.219824 0.813410
vt 0.363922 0.730771
vt 0.035158 0.819757
vt 0.044011 0.806092
vt 0.044009 0.819539
vt 0.035073 0.805694
vt 0.014079 0.729123
vt 0.021818 0.703502
vt 0.029158 0.711161
vt 0.004751 0.721727
vt 0.004431 0.711150
vt 0.027907 0.723445
vt 0.011493 0.703494
vt 0.343352 0.711299
vt 0.103593 0.804641
vt 0.101217 0.792772
vt 0.107067 0.789275
vt 0.112829 0.794728
vt 0.100393 0.799201
vt 0.113636 0.801308
vt 0.110685 0.805745
vt 0.042954 0.793880
vt 0.037258 0.791635
vt 0.034981 0.785390
vt 0.051970 0.783103
vt 0.050973 0.789556
vt 0.039151 0.777518
vt 0.047857 0.777799
vt 0.232426 0.870016
vt 0.013661 0.875552
vt 0.098677 0.773250
vt 0.026915 0.866848
vt 0.027103 0.866669
vt 0.026902 0.859758
vt 0.025693 0.866611
vt 0.025744 0.859672
vt 0.420818 0.877557
vt 0.419794 0.877483
vt 0.510857 0.868569
vt 0.511240 0.869380
vt 0.510518 0.869638
vt 0.873555 0.503856
vt 0.874362 0.510372
vt 0.872798 0.510418
vt 0.874349 0.842295
vt 0.873331 0.842456
vt 0.873611 0.836961
vt 0.874182 0.624700
vt 0.873110 0.624767
vt 0.873112 0.618070
vt 0.627996 0.865587
vt 0.628827 0.872215
vt 0.627338 0.872193
vt 0.509938 0.868397
vt 0.510283 0.869817
vt 0.509485 0.873886
vt 0.201887 0.864553
vt 0.202813 0.871177
vt 0.202080 0.871299
vt 0.202813 0.863860
vt 0.874258 0.744088
vt 0.873414 0.744084
vt 0.873227 0.736884
vt 0.325794 0.875157
vt 0.324786 0.875157
vt 0.324448 0.870462
vt 0.880312 0.826589
vt 0.553972 0.870608
vt 0.552172 0.863821
vt 0.340178 0.871406
vt 0.339393 0.864748
vt 0.340892 0.864792
vt 0.874194 0.694740
vt 0.872924 0.694548
vt 0.873971 0.688761
vt 0.400305 0.873325
vt 0.399451 0.866769
vt 0.400994 0.866722
vt 0.873628 0.552836
vt 0.872623 0.552832
vt 0.873701 0.546135
vt 0.140712 0.719584
vt 0.145350 0.730590
vt 0.138171 0.730702
vt 0.134705 0.719947
vt 0.158004 0.711598
vt 0.161061 0.721680
vt 0.459797 0.802777
vt 0.460535 0.792148
vt 0.468703 0.792895
vt 0.461011 0.809868
vt 0.468156 0.803449
vt 0.469388 0.810109
vt 0.455712 0.703904
vt 0.446383 0.696509
vt 0.446063 0.685931
vt 0.453125 0.678275
vt 0.051451 0.819757
vt 0.051367 0.805694
vt 0.060304 0.806092
vt 0.463450 0.678283
vt 0.470790 0.685942
vt 0.469539 0.698226
vt 0.060302 0.819539
vt 0.517529 0.803183
vt 0.508863 0.810207
vt 0.508878 0.803184
vt 0.517513 0.810746
vt 0.508871 0.820765
vt 0.143432 0.710084
vt 0.136254 0.712370
vt 0.156823 0.731843
vt 0.150646 0.706741
vt 0.517523 0.821195
vt 0.136650 0.789335
vt 0.120804 0.793402
vt 0.123074 0.787162
vt 0.137724 0.795771
vt 0.133608 0.801049
vt 0.124915 0.801272
vt 0.128910 0.784738
vt 0.014167 0.777439
vt 0.017116 0.781684
vt 0.016235 0.788258
vt 0.010388 0.793648
vt 0.004575 0.790065
vt 0.003788 0.783577
vt 0.006991 0.778248
vt 0.257325 0.869347
vt 0.256601 0.869334
vt 0.256997 0.862424
vt 0.257508 0.869361
vt 0.553972 0.879171
vt 0.553220 0.880020
vt 0.466601 0.824331
vt 0.468124 0.817519
vt 0.240338 0.863110
vt 0.258155 0.862511
vt 0.875155 0.759294
vt 0.873258 0.788852
vt 0.873440 0.789496
vt 0.872495 0.789672
vt 0.324943 0.883338
vt 0.324221 0.883179
vt 0.324943 0.882321
vt 0.144713 0.875061
vt 0.869849 0.850809
vt 0.871116 0.850286
vt 0.871281 0.857111
vt 0.878614 0.850286
vt 0.878614 0.856976
vt 0.873555 0.517967
vt 0.874362 0.524483
vt 0.872798 0.524529
vt 0.874182 0.639020
vt 0.873110 0.639087
vt 0.873112 0.632390
vt 0.874522 0.803359
vt 0.873505 0.803520
vt 0.873785 0.798024
vt 0.211013 0.866224
vt 0.211845 0.872852
vt 0.210356 0.872830
vt 0.855546 0.803965
vt 0.856566 0.803028
vt 0.856681 0.803965
vt 0.856012 0.802146
vt 0.466607 0.824256
vt 0.468659 0.830810
vt 0.871746 0.789127
vt 0.464947 0.823751
vt 0.084497 0.870767
vt 0.085424 0.870089
vt 0.085307 0.877411
vt 0.872567 0.681437
vt 0.459618 0.827854
vt 0.874194 0.722274
vt 0.872924 0.722082
vt 0.873971 0.716295
vt 0.872125 0.819439
vt 0.871271 0.812883
vt 0.872814 0.812836
vt 0.847808 0.871743
vt 0.847023 0.865085
vt 0.848522 0.865129
vt 0.873628 0.581420
vt 0.872623 0.581416
vt 0.873700 0.574720
vt 0.048070 0.726524
vt 0.053365 0.702674
vt 0.060723 0.707531
vt 0.063780 0.717613
vt 0.046151 0.706018
vt 0.043431 0.715517
vt 0.059542 0.727777
vt 0.003763 0.819691
vt 0.012616 0.806026
vt 0.012614 0.819472
vt 0.003679 0.805628
vt 0.193259 0.806078
vt 0.193997 0.795448
vt 0.202166 0.796195
vt 0.201618 0.806749
vt 0.194473 0.813169
vt 0.202850 0.813409
vt 0.579388 0.721275
vt 0.570059 0.713879
vt 0.569739 0.703302
vt 0.348024 0.804282
vt 0.339358 0.811306
vt 0.339374 0.804282
vt 0.348008 0.811845
vt 0.576801 0.695646
vt 0.339367 0.821863
vt 0.587127 0.695654
vt 0.348018 0.822293
vt 0.594466 0.703313
vt 0.593215 0.715597
vt 0.040891 0.726635
vt 0.037424 0.715880
vt 0.038973 0.708304
vt 0.159833 0.803035
vt 0.156633 0.797595
vt 0.157457 0.791166
vt 0.163307 0.787669
vt 0.169069 0.793122
vt 0.169876 0.799702
vt 0.166924 0.804138
vt 0.347333 0.796875
vt 0.341637 0.794630
vt 0.339361 0.788384
vt 0.356349 0.786098
vt 0.355352 0.792551
vt 0.343530 0.780513
vt 0.352237 0.780793
vt 0.603065 0.871322
vt 0.604162 0.871797
vt 0.603900 0.878099
vt 0.461129 0.881776
vt 0.461311 0.882420
vt 0.459940 0.882286
vt 0.193126 0.864382
vt 0.194389 0.863860
vt 0.194688 0.870682
vt 0.603065 0.878021
vt 0.447171 0.836353
vt 0.495065 0.879701
vt 0.879836 0.864987
vt 0.879396 0.871298
vt 0.481019 0.877643
vt 0.480015 0.877656
vt 0.479972 0.870837
vt 0.144679 0.883432
vt 0.143944 0.883432
vt 0.144481 0.882448
vt 0.496179 0.878734
vt 0.496314 0.879601
vt 0.109270 0.814272
vt 0.864799 0.797095
vt 0.480996 0.870825
vt 0.874182 0.596060
vt 0.873110 0.596127
vt 0.873112 0.589431
vt 0.814706 0.874500
vt 0.813688 0.874662
vt 0.813968 0.869166
vt 0.373346 0.864988
vt 0.374178 0.871616
vt 0.372689 0.871594
vt 0.872761 0.774065
vt 0.873568 0.780581
vt 0.872003 0.780628
vt 0.410392 0.869436
vt 0.411352 0.869300
vt 0.411644 0.874913
vt 0.882146 0.617197
vt 0.881384 0.616729
vt 0.882079 0.616085
vt 0.193688 0.870710
vt 0.107205 0.820783
vt 0.105557 0.820282
vt 0.100359 0.824623
vt 0.862163 0.874992
vt 0.861163 0.875112
vt 0.860993 0.870322
vt 0.106293 0.820944
vt 0.106032 0.820933
vt 0.106664 0.821641
vt 0.101277 0.825849
vt 0.364224 0.871765
vt 0.363439 0.865107
vt 0.364939 0.865151
vt 0.873628 0.567128
vt 0.872623 0.567124
vt 0.873700 0.560427
vt 0.829110 0.873979
vt 0.827840 0.873786
vt 0.828887 0.868000
vt 0.287372 0.872847
vt 0.286518 0.866291
vt 0.288061 0.866244
vt 0.010838 0.828400
vt 0.003701 0.840597
vt 0.003601 0.828563
vt 0.010743 0.840450
vt 0.339385 0.842158
vt 0.346461 0.832497
vt 0.346637 0.842175
vt 0.339568 0.832408
vt 0.058977 0.828473
vt 0.058881 0.839665
vt 0.051395 0.839824
vt 0.051292 0.828647
vt 0.384562 0.842172
vt 0.384743 0.833043
vt 0.392088 0.833133
vt 0.392265 0.842190
vt 0.508889 0.841059
vt 0.515966 0.831398
vt 0.516142 0.841076
vt 0.509072 0.831310
vt 0.042232 0.828466
vt 0.035095 0.840664
vt 0.034995 0.828629
vt 0.042137 0.840517
vt 0.418077 0.829005
vt 0.410494 0.840356
vt 0.410391 0.829178
vt 0.417980 0.840197
vt 0.100260 0.845081
vt 0.107786 0.836042
vt 0.107963 0.845099
vt 0.100441 0.835952
vt 0.143944 0.839840
vt 0.149169 0.820819
vt 0.149303 0.839850
vt 0.144102 0.820655
vt 0.089845 0.804455
vt 0.084556 0.829908
vt 0.084497 0.804576
vt 0.089775 0.829811
vt 0.084554 0.847884
vt 0.090089 0.837779
vt 0.090069 0.847964
vt 0.084637 0.837663
vt 0.600386 0.830433
vt 0.594818 0.843964
vt 0.594885 0.830447
vt 0.600322 0.843964
vt 0.025587 0.852245
vt 0.025877 0.822054
vt 0.026251 0.852214
vt 0.848045 0.812968
vt 0.847520 0.842925
vt 0.847139 0.812887
vt 0.855861 0.843023
vt 0.855445 0.812887
vt 0.856193 0.812811
vt 0.480578 0.821574
vt 0.480959 0.851612
vt 0.480053 0.851530
vt 0.552743 0.856327
vt 0.552327 0.826191
vt 0.553075 0.826115
vt 0.847847 0.773991
vt 0.848228 0.804028
vt 0.847479 0.804104
vt 0.573034 0.835055
vt 0.277481 0.822977
vt 0.312820 0.884002
vt 0.313200 0.884026
vt 0.312883 0.884057
vt 0.313200 0.884553
vt 0.312700 0.884499
vt 0.312688 0.884048
vt 0.092588 0.885003
vt 0.092650 0.885021
vt 0.092638 0.884642
vt 0.093007 0.884792
vt 0.092968 0.884650
vt 0.092850 0.884986
vt 0.553241 0.878071
vt 0.552926 0.878185
vt 0.553162 0.878070
vt 0.552345 0.878494
vt 0.553168 0.878023
vt 0.466430 0.824330
vt 0.465502 0.824268
vt 0.881770 0.503585
vt 0.848009 0.879837
vt 0.847072 0.880413
vt 0.846986 0.880193
vt 0.279645 0.829745
vt 0.278070 0.823597
vt 0.241430 0.879384
vt 0.419794 0.870783
vt 0.865470 0.836548
vt 0.467666 0.831036
vt 0.528507 0.870582
vt 0.143944 0.868407
vt 0.466092 0.824888
vt 0.865635 0.804362
vt 0.446667 0.836017
vt 0.526525 0.882943
vt 0.107188 0.820778
vt 0.881645 0.524402
vt 0.445214 0.842143
vt 0.863358 0.836068
vt 0.863630 0.835820
vt 0.860231 0.882431
vt 0.012797 0.884032
vt 0.354265 0.884531
vt 0.552860 0.863589
vt 0.012660 0.875698
vt 0.570264 0.863582
vt 0.874130 0.674776
vt 0.429157 0.868759
vt 0.866163 0.760971
vt 0.881648 0.546275
vt 0.873593 0.646254
vt 0.873004 0.828394
vt 0.429155 0.867549
vt 0.430311 0.867968
vt 0.429923 0.867628
vt 0.232473 0.869968
vt 0.232243 0.870238
vt 0.027143 0.866581
vt 0.881912 0.828109
vt 0.882073 0.828053
vt 0.511255 0.869321
vt 0.874352 0.737236
vt 0.880417 0.827553
vt 0.258396 0.869334
vt 0.873479 0.789448
vt 0.324336 0.883023
vt 0.866668 0.759791
vt 0.867129 0.760139
vt 0.446465 0.836024
vt 0.461351 0.882372
vt 0.144020 0.883253
vt 0.496353 0.879536
s 1
usemtl parking_001_baked
f 3/1/1 1/2/1 2/3/1
f 3/1/1 2/3/1 4/4/1
f 8/5/2 6/6/2 7/7/2
f 8/5/2 7/7/2 9/8/2
f 10/9/3 11/10/3 12/11/3
f 10/9/3 12/11/3 13/12/3
f 16/13/4 14/14/4 15/15/4
f 16/13/4 15/15/4 17/16/4
f 18/17/5 19/18/5 20/19/5
f 18/17/5 20/19/5 21/20/5
f 254/21/6 260/22/6 261/23/6
f 264/24/7 267/25/7 270/26/7
f 321/27/8 322/28/8 325/29/8
f 351/30/9 353/31/10 348/32/10
f 391/33/11 393/34/11 394/35/11
f 404/36/7 407/37/7 410/38/7
f 450/39/12 454/40/12 457/41/12
f 483/42/13 485/43/13 486/44/13
f 285/45/14 287/46/15 288/47/16
f 326/48/17 318/49/17 317/50/17
f 396/51/18 389/52/18 388/53/18
f 487/54/19 480/55/19 479/56/19
f 252/57/20 262/58/21 253/59/22
f 257/60/23 283/61/23 282/62/23
f 267/25/24 288/47/24 268/63/24
f 314/64/25 356/65/25 315/66/25
f 319/67/26 327/68/27 320/69/28
f 321/70/29 333/71/29 332/72/29
f 351/73/30 340/74/30 352/75/30
f 324/76/31 344/77/31 343/78/31
f 402/79/32 390/80/33 401/81/32
f 394/82/23 423/83/23 422/84/23
f 407/37/34 424/85/34 408/86/34
f 483/87/35 463/88/35 462/89/35
f 460/90/36 450/39/37 458/91/38
f 456/92/39 469/93/40 473/94/41
f 453/95/42 479/56/43 486/44/44
f 264/24/45 251/96/45 265/97/45
f 256/98/46 281/99/47 254/21/48
f 257/100/49 286/101/50 258/102/51
f 316/103/52 355/104/52 354/105/52
f 321/106/53 339/107/53 322/108/53
f 357/109/54 325/110/54 324/111/54
f 404/36/55 387/112/55 405/113/55
f 411/114/56 392/115/56 391/116/56
f 394/117/49 420/118/57 395/119/51
f 418/120/58 421/121/59 424/85/60
f 483/42/61 461/122/62 484/123/63
f 472/124/64 455/125/64 454/40/64
f 451/126/65 478/127/66 452/128/67
f 246/129/68 264/130/68 263/131/68
f 280/132/69 262/133/70 254/134/71
f 276/135/72 256/98/72 255/136/72
f 266/137/73 282/138/73 267/139/73
f 318/49/74 315/140/74 319/141/74
f 352/142/75 338/143/75 353/144/75
f 325/145/76 345/146/76 317/147/76
f 384/148/77 383/149/78 402/150/79
f 385/151/80 404/152/80 403/153/80
f 392/154/81 415/155/81 393/156/81
f 406/157/73 422/158/73 407/159/73
f 457/160/82 462/161/82 458/162/82
f 472/163/83 470/164/84 471/165/85
f 476/166/86 451/167/86 450/168/86
f 254/169/87 252/170/20 253/171/22
f 287/46/88 266/172/88 265/97/88
f 353/173/89 337/174/89 354/175/89
f 349/176/90 341/177/90 342/178/90
f 343/179/91 347/180/92 345/181/93
f 344/77/94 346/182/94 343/78/94
f 414/183/95 413/184/96 415/185/97
f 421/121/88 406/186/88 405/113/88
f 464/187/98 457/41/98 456/188/98
f 485/43/99 470/189/84 469/190/40
f 259/191/100 284/192/100 285/193/100
f 338/143/101 332/194/102 333/195/103
f 335/196/104 322/108/104 334/197/104
f 419/198/105 395/119/106 418/199/107
f 485/43/108 459/200/109 460/201/110
f 259/202/111 247/203/111 260/22/111
f 268/204/112 277/205/112 269/206/112
f 350/207/113 343/208/114 351/209/115
f 357/109/116 347/180/117 346/210/118
f 389/211/119 385/212/120 383/213/121
f 408/214/112 417/215/112 409/216/112
f 411/217/122 413/218/123 412/219/124
f 480/220/73 475/221/73 481/222/73
f 248/223/125 261/224/125 260/225/125
f 278/226/126 270/26/126 269/227/126
f 315/228/127 316/229/128 314/230/129
f 349/176/130 347/231/130 350/232/130
f 416/233/131 410/38/131 409/234/131
f 25/235/132 22/236/133 23/237/134
f 25/235/132 24/238/135 22/236/133
f 23/239/134 22/240/133 24/241/135
f 23/239/134 24/241/135 25/242/132
f 31/243/136 27/244/137 26/245/138
f 31/246/136 26/247/138 29/248/139
f 26/249/138 30/250/140 29/251/139
f 26/249/138 27/252/137 30/250/140
f 27/253/137 33/254/141 30/255/140
f 31/243/136 32/256/142 27/244/137
f 27/253/137 32/257/142 33/254/141
f 32/258/142 28/259/143 33/260/141
f 32/258/142 31/246/136 28/259/143
f 31/246/136 29/248/139 28/259/143
f 29/261/139 33/262/141 28/263/143
f 29/261/139 30/264/140 33/262/141
f 34/265/138 35/266/140 41/267/139
f 34/265/138 39/268/137 35/266/140
f 38/269/136 34/270/138 41/271/139
f 38/272/136 39/273/137 34/274/138
f 41/275/139 35/276/140 40/277/141
f 39/278/137 40/279/141 35/280/140
f 41/275/139 40/277/141 36/281/143
f 37/282/142 38/269/136 36/283/143
f 37/282/142 36/283/143 40/284/141
f 38/269/136 41/271/139 36/283/143
f 38/272/136 37/285/142 39/273/137
f 39/278/137 37/286/142 40/279/141
f 47/287/144 42/288/145 45/289/146
f 46/290/147 48/291/148 42/292/145
f 46/290/147 42/292/145 47/293/144
f 48/294/148 45/295/146 42/296/145
f 43/297/149 44/298/150 45/299/146
f 43/297/149 49/300/151 44/298/150
f 48/294/148 43/301/149 45/295/146
f 49/302/151 43/303/149 48/304/148
f 49/300/151 47/305/144 44/298/150
f 47/287/144 45/289/146 44/306/150
f 49/300/151 46/307/147 47/305/144
f 49/302/151 48/304/148 46/308/147
f 51/309/152 50/310/153 52/311/154
f 53/312/155 50/313/153 51/314/152
f 51/309/152 52/311/154 53/315/155
f 53/312/155 52/316/154 50/313/153
f 56/317/156 57/318/157 54/319/158
f 54/320/158 57/321/157 55/322/159
f 54/320/158 55/322/159 56/323/156
f 56/317/156 55/324/159 57/318/157
f 60/325/160 59/326/161 58/327/162
f 60/325/160 61/328/163 59/326/161
f 58/329/162 61/330/163 60/331/160
f 58/329/162 59/332/161 61/330/163
f 62/333/164 65/334/165 63/335/166
f 63/336/166 64/337/167 62/338/164
f 62/333/164 64/339/167 65/334/165
f 63/336/166 65/340/165 64/337/167
f 70/341/168 67/342/169 66/343/170
f 66/344/170 67/345/169 68/346/171
f 70/347/168 66/348/170 68/349/171
f 70/341/168 69/350/172 67/342/169
f 67/351/169 69/352/172 71/353/173
f 68/354/171 71/355/173 72/356/174
f 68/354/171 67/357/169 71/355/173
f 70/347/168 68/349/171 72/358/174
f 69/359/172 70/347/168 72/358/174
f 69/359/172 72/358/174 71/360/173
f 80/361/175 78/362/175 73/363/175
f 73/364/176 78/365/177 74/366/178
f 80/367/179 73/368/176 77/369/180
f 73/364/176 74/366/178 77/370/180
f 77/371/181 74/372/181 79/373/181
f 78/374/177 79/375/182 74/376/178
f 75/377/183 76/378/184 79/379/182
f 75/377/183 80/367/179 76/378/184
f 78/374/177 75/380/183 79/375/182
f 80/361/175 75/381/175 78/362/175
f 80/367/179 77/369/180 76/378/184
f 77/371/181 79/373/181 76/382/181
f 84/383/185 81/384/186 83/385/187
f 84/383/185 82/386/188 81/384/186
f 83/387/187 81/388/186 85/389/189
f 81/390/186 82/391/188 86/392/190
f 81/390/186 86/392/190 85/393/189
f 82/394/188 84/395/185 87/396/191
f 82/394/188 87/396/191 86/397/190
f 84/395/185 83/398/187 87/396/191
f 83/399/187 85/400/189 86/401/190
f 83/399/187 86/401/190 87/402/191
f 88/403/179 95/404/180 90/405/184
f 88/403/179 89/406/176 95/404/180
f 88/407/175 91/408/175 92/409/175
f 91/410/183 88/403/179 90/405/184
f 88/407/175 92/409/175 89/411/175
f 89/412/176 92/413/177 94/414/178
f 89/412/176 94/414/178 95/415/180
f 91/410/183 90/405/184 93/416/182
f 95/417/181 93/418/181 90/419/181
f 92/420/177 91/421/183 93/422/182
f 92/420/177 93/422/182 94/423/178
f 95/417/181 94/424/181 93/418/181
f 100/425/192 98/426/193 96/427/174
f 97/428/188 103/429/194 96/430/174
f 97/428/188 96/430/174 98/431/193
f 103/429/194 100/432/192 96/430/174
f 102/433/195 97/434/188 98/435/193
f 103/436/194 97/437/188 102/438/195
f 102/433/195 98/435/193 101/439/196
f 100/425/192 101/440/196 98/426/193
f 99/441/197 101/442/196 100/443/192
f 99/441/197 102/444/195 101/442/196
f 103/429/194 99/445/197 100/432/192
f 103/436/194 102/438/195 99/446/197
f 106/447/181 104/448/181 107/449/181
f 111/450/176 108/451/177 104/452/178
f 111/450/176 104/452/178 106/453/180
f 108/454/177 107/455/182 104/456/178
f 110/457/183 105/458/184 107/459/182
f 110/457/183 109/460/179 105/458/184
f 109/460/179 106/461/180 105/458/184
f 106/447/181 107/449/181 105/462/181
f 109/460/179 111/463/176 106/461/180
f 108/454/177 110/464/183 107/455/182
f 109/465/175 108/466/175 111/467/175
f 109/465/175 110/468/175 108/466/175
f 112/469/198 113/470/199 114/471/200
f 112/469/198 119/472/201 113/470/199
f 116/473/202 112/474/198 114/475/200
f 116/476/202 119/477/201 112/478/198
f 114/479/200 113/480/199 118/481/203
f 119/482/201 118/483/203 113/484/199
f 116/473/202 114/475/200 117/485/204
f 114/479/200 118/481/203 117/486/204
f 115/487/205 117/485/204 118/488/203
f 115/487/205 116/473/202 117/485/204
f 119/482/201 115/489/205 118/483/203
f 116/476/202 115/490/205 119/477/201
f 120/491/206 123/492/207 122/493/208
f 120/491/206 121/494/209 123/492/207
f 121/495/209 122/496/208 123/497/207
f 121/495/209 120/498/206 122/496/208
f 126/499/210 125/500/211 129/501/212
f 124/502/213 125/503/211 126/504/210
f 126/499/210 129/501/212 127/505/214
f 127/506/214 129/507/212 128/508/215
f 124/509/213 127/510/214 128/511/215
f 124/509/213 126/512/210 127/510/214
f 125/513/211 128/514/215 129/515/212
f 125/513/211 124/516/213 128/514/215
f 133/517/216 131/518/217 130/519/218
f 133/520/216 130/521/218 134/522/219
f 130/523/1 137/524/1 134/525/220
f 130/523/1 131/526/221 137/524/1
f 131/527/217 136/528/222 137/529/223
f 133/517/216 135/530/224 131/518/217
f 131/527/217 135/531/224 136/528/222
f 135/532/225 132/533/225 136/534/226
f 135/532/225 133/520/227 132/533/225
f 133/520/216 134/522/219 132/533/228
f 134/535/219 136/536/222 132/537/228
f 134/535/219 137/538/223 136/536/222
f 143/539/229 138/540/230 140/541/231
f 138/542/230 143/543/229 139/544/232
f 138/545/230 141/546/233 140/547/231
f 138/545/230 139/548/232 141/546/233
f 139/549/232 142/550/234 141/551/233
f 139/549/232 143/552/229 142/550/234
f 143/539/229 140/541/231 142/553/234
f 141/554/233 142/555/234 140/556/231
f 145/557/230 144/558/229 149/559/235
f 149/560/235 144/561/229 147/562/234
f 145/563/230 146/564/233 148/565/231
f 145/563/230 149/566/235 146/564/233
f 149/560/235 147/562/234 146/567/233
f 146/568/233 147/569/234 148/570/231
f 144/571/229 148/572/231 147/573/234
f 144/571/229 145/574/230 148/572/231
f 153/575/236 150/576/237 151/577/238
f 150/578/237 155/579/239 151/580/238
f 153/581/175 154/582/175 150/583/175
f 150/578/237 154/584/240 155/579/239
f 151/585/181 156/586/181 157/587/181
f 153/575/236 151/577/238 157/588/241
f 151/585/181 155/589/181 156/586/181
f 153/581/175 152/590/175 154/582/175
f 154/591/240 152/592/242 156/593/243
f 152/594/242 157/588/241 156/595/243
f 152/594/242 153/575/236 157/588/241
f 154/591/240 156/593/243 155/596/239
f 158/597/244 164/598/245 163/599/246
f 158/597/244 167/600/247 164/598/245
f 158/601/244 166/602/248 167/603/247
f 158/601/244 161/604/249 166/602/248
f 168/605/250 159/606/251 170/607/252
f 168/605/250 171/608/253 159/606/251
f 159/609/251 160/610/254 173/611/255
f 159/609/251 171/612/253 160/610/254
f 172/613/256 160/614/257 169/615/258
f 172/613/256 173/616/255 160/614/257
f 170/617/259 159/609/251 173/611/255
f 163/618/246 161/619/249 158/620/244
f 163/618/246 162/621/260 161/619/249
f 162/621/260 168/605/250 170/607/259
f 164/622/245 162/623/260 163/624/246
f 164/622/245 165/625/261 162/623/260
f 167/626/247 165/627/261 164/628/245
f 165/625/261 168/629/250 162/623/260
f 165/625/261 169/630/262 168/629/250
f 161/631/249 172/632/256 166/633/248
f 167/626/247 166/634/248 165/627/261
f 169/630/262 171/635/253 168/629/250
f 169/630/262 160/636/263 171/635/253
f 166/634/248 172/613/256 169/615/262
f 161/631/249 170/617/259 172/632/256
f 170/617/259 173/611/255 172/632/256
f 5/637/264 181/638/265 174/639/266
f 174/639/266 181/638/265 182/640/267
f 174/641/266 183/642/268 5/643/264
f 174/641/266 176/644/269 183/642/268
f 5/645/264 184/646/270 177/647/271
f 175/648/272 187/649/273 188/650/274
f 176/644/275 178/651/276 183/642/277
f 176/644/275 180/652/278 178/651/276
f 174/653/266 182/654/279 176/655/269
f 176/655/275 179/656/280 180/657/278
f 182/654/267 179/656/280 176/655/275
f 177/658/271 186/659/281 181/660/265
f 177/658/271 188/650/274 186/659/281
f 5/637/264 177/661/271 181/638/265
f 5/662/264 183/663/268 184/664/270
f 180/652/282 175/665/272 178/651/283
f 179/656/284 185/666/285 180/657/282
f 182/654/267 186/667/281 179/656/280
f 186/667/281 185/668/285 179/656/284
f 180/652/282 185/669/285 175/665/272
f 181/670/265 186/667/281 182/654/267
f 183/642/277 178/651/276 184/671/286
f 184/646/286 178/672/276 188/673/274
f 178/674/283 175/675/272 188/676/287
f 184/646/286 188/673/274 177/647/271
f 175/677/272 185/678/285 187/679/273
f 186/667/281 187/680/273 185/668/285
f 187/649/273 186/659/281 188/650/274
f 192/681/288 189/682/289 191/683/290
f 189/684/289 190/685/291 191/686/290
f 189/684/289 192/687/288 190/685/291
f 192/681/288 191/683/290 190/688/291
f 193/689/1 195/690/1 194/691/1
f 195/692/1 193/693/1 194/694/1
f 197/695/292 196/696/293 198/697/293
f 196/698/293 197/699/292 198/700/293
f 205/701/294 199/702/295 206/703/296
f 205/701/294 200/704/297 199/702/295
f 206/705/296 199/706/295 204/707/298
f 199/708/295 200/709/297 201/710/299
f 199/708/295 201/710/299 204/711/298
f 200/712/297 205/713/294 203/714/300
f 200/712/297 203/714/300 201/715/299
f 202/716/301 204/717/298 201/718/299
f 202/716/301 201/718/299 203/719/300
f 206/705/296 204/707/298 202/720/301
f 205/713/294 206/721/296 202/722/301
f 205/713/294 202/722/301 203/714/300
f 207/723/302 210/724/303 209/725/304
f 208/726/305 207/727/302 209/728/304
f 207/723/302 208/729/305 210/724/303
f 208/726/305 209/728/304 210/730/303
f 212/731/225 211/732/225 213/733/225
f 211/734/225 212/735/225 213/736/225
f 214/737/306 216/738/307 215/739/306
f 216/740/307 214/741/306 215/742/306
f 217/743/296 218/744/298 220/745/301
f 221/746/294 217/747/296 220/748/301
f 221/749/294 223/750/295 217/751/296
f 217/743/296 223/752/295 218/744/298
f 223/753/295 224/754/299 218/755/298
f 220/756/301 218/757/298 224/758/299
f 221/749/294 219/759/297 223/750/295
f 223/753/295 219/760/297 224/754/299
f 219/761/297 222/762/300 224/763/299
f 219/761/297 221/746/294 222/762/300
f 220/756/301 224/758/299 222/764/300
f 221/746/294 220/748/301 222/762/300
f 227/765/308 225/766/309 226/767/310
f 226/767/310 225/766/309 237/768/311
f 226/767/310 237/768/311 233/769/312
f 227/765/308 226/767/310 228/770/313
f 228/771/313 226/772/310 233/773/312
f 227/765/308 230/774/314 231/775/315
f 227/776/308 232/777/316 238/778/317
f 227/776/308 231/779/315 232/777/316
f 227/765/308 229/780/318 230/774/314
f 227/765/308 228/770/313 229/780/318
f 228/771/313 233/773/312 236/781/319
f 229/782/318 228/771/313 236/781/319
f 229/782/318 236/781/319 235/783/320
f 230/784/321 229/785/318 235/786/320
f 231/787/315 230/784/321 234/788/322
f 232/789/316 235/790/320 236/791/319
f 232/789/316 236/791/319 233/792/312
f 232/789/316 234/793/322 235/790/320
f 232/789/316 237/794/323 238/795/317
f 232/789/316 233/792/312 237/794/323
f 231/787/315 234/788/322 232/796/316
f 230/784/321 235/786/320 234/788/322
f 225/766/309 238/797/317 237/768/311
f 225/766/309 227/765/308 238/797/317
f 243/798/324 245/799/325 242/800/326
f 243/798/324 242/800/326 239/801/327
f 243/798/324 240/802/328 241/803/329
f 243/798/324 239/801/327 240/802/328
f 243/798/324 241/803/329 244/804/330
f 244/805/330 241/806/329 240/807/328
f 244/805/330 240/807/328 239/808/327
f 244/805/330 239/808/327 242/809/326
f 244/805/330 245/810/325 243/811/324
f 244/805/330 242/809/326 245/810/325
f 252/812/331 247/813/332 246/814/333
f 246/815/334 249/816/335 250/817/336
f 246/815/337 260/22/337 249/816/337
f 252/812/331 259/818/338 247/813/332
f 261/819/339 250/820/336 248/821/340
f 264/130/341 246/129/334 250/822/336
f 253/823/342 251/96/343 250/824/336
f 253/823/344 264/24/344 251/96/344
f 252/812/331 246/814/333 263/825/345
f 261/826/346 260/827/346 259/818/346
f 261/819/339 253/828/342 250/820/336
f 280/829/347 256/830/347 281/831/347
f 284/192/348 258/102/349 286/101/50
f 256/98/350 276/135/351 275/832/352
f 283/833/353 258/834/353 285/835/353
f 254/134/354 276/836/355 255/837/356
f 257/60/49 282/62/357 286/838/50
f 285/835/358 267/139/359 282/138/360
f 270/26/361 280/839/362 275/840/352
f 282/841/357 266/172/363 287/46/364
f 270/26/361 275/840/352 278/226/365
f 254/134/354 268/842/366 277/843/367
f 276/844/368 269/845/368 279/846/368
f 288/47/369 287/46/369 265/97/369
f 271/847/370 274/848/371 273/849/372
f 274/850/371 271/851/370 272/852/373
f 274/853/371 272/854/373 273/855/372
f 271/856/370 273/857/372 272/858/373
f 280/829/362 281/831/374 275/859/352
f 254/134/354 277/843/367 276/836/355
f 276/844/351 279/846/375 275/860/352
f 285/835/358 282/138/360 283/833/376
f 282/841/357 287/46/364 286/861/50
f 284/192/348 286/101/50 287/862/364
f 285/863/14 284/864/377 287/865/15
f 292/866/378 291/867/379 290/868/380
f 292/869/378 290/870/380 289/871/381
f 291/872/379 289/873/381 290/874/380
f 291/875/379 292/876/378 289/877/381
f 294/878/309 293/879/308 302/880/317
f 295/881/310 294/878/309 306/882/311
f 293/879/308 294/878/309 295/881/310
f 293/879/308 295/881/310 303/883/313
f 303/884/313 295/885/310 305/886/312
f 296/887/318 304/888/319 301/889/320
f 293/879/308 303/883/313 296/890/318
f 296/887/318 303/884/313 304/888/319
f 293/879/308 296/890/318 297/891/314
f 297/892/321 296/893/318 301/894/320
f 297/892/321 301/894/320 300/895/322
f 298/896/315 297/892/321 300/895/322
f 298/896/315 300/895/322 299/897/316
f 293/879/308 297/891/314 298/898/315
f 293/899/308 299/900/316 302/901/317
f 293/899/308 298/902/315 299/900/316
f 299/903/316 305/904/312 306/905/323
f 299/903/316 300/906/322 301/907/320
f 299/903/316 306/905/323 302/908/317
f 299/903/316 304/909/319 305/904/312
f 299/903/316 301/907/320 304/909/319
f 294/878/309 302/880/317 306/882/311
f 303/884/313 305/886/312 304/888/319
f 295/881/310 306/882/311 305/910/312
f 307/911/382 313/912/383 312/913/384
f 307/911/382 312/913/384 311/914/385
f 307/911/382 310/915/386 313/912/383
f 307/911/382 308/916/387 309/917/388
f 307/911/382 311/914/385 308/916/387
f 309/918/388 308/919/387 311/920/385
f 309/918/388 310/921/386 307/922/382
f 309/918/388 311/920/385 312/923/384
f 309/918/388 313/924/383 310/921/386
f 309/918/388 312/923/384 313/924/383
f 314/230/389 316/229/389 354/925/389
f 327/68/27 315/66/390 356/65/391
f 327/926/392 355/104/393 316/103/394
f 327/68/27 319/67/26 315/66/390
f 315/140/127 318/49/395 316/927/128
f 319/928/396 320/929/396 326/930/396
f 320/929/397 327/931/392 316/932/394
f 321/70/398 332/72/399 336/933/400
f 334/197/401 322/108/402 339/107/403
f 321/70/398 336/933/400 339/934/404
f 344/77/405 324/76/405 346/182/405
f 325/110/406 347/180/117 357/109/116
f 325/110/406 345/181/407 347/180/117
f 333/935/408 322/936/408 335/937/408
f 328/938/409 331/939/372 330/940/373
f 329/941/371 328/942/409 330/943/373
f 328/944/409 329/945/371 331/946/372
f 329/947/371 330/948/373 331/949/372
f 335/937/410 338/950/411 333/935/411
f 335/937/410 352/75/412 338/950/411
f 335/937/410 334/951/413 352/75/412
f 340/74/414 334/951/401 339/952/403
f 332/953/399 337/954/415 336/955/400
f 332/953/399 353/956/416 337/954/415
f 354/175/417 339/957/404 336/958/400
f 353/173/418 352/959/418 339/957/418
f 342/960/419 343/961/420 346/962/118
f 349/963/421 350/207/421 351/209/421
f 349/176/422 342/178/419 346/964/118
f 343/965/91 350/232/423 347/231/92
f 349/176/422 346/964/118 347/231/117
f 358/966/378 361/967/424 360/968/381
f 359/969/379 358/970/378 360/971/381
f 359/972/379 360/973/381 361/974/424
f 358/975/378 359/976/379 361/977/424
f 363/978/309 362/979/308 371/980/317
f 363/978/309 371/980/317 370/981/311
f 362/979/308 364/982/318 373/983/314
f 373/984/321 364/985/318 367/986/320
f 372/987/315 365/988/322 366/989/316
f 372/987/315 373/984/321 365/988/322
f 373/984/321 367/986/320 365/988/322
f 366/990/316 365/991/322 367/992/320
f 366/990/316 367/992/320 368/993/319
f 362/994/308 372/995/315 366/996/316
f 366/990/316 368/993/319 369/997/312
f 366/990/316 370/998/323 371/999/317
f 362/994/308 366/996/316 371/1000/317
f 366/990/316 369/997/312 370/998/323
f 364/1001/318 368/1002/319 367/1003/320
f 364/1001/318 374/1004/313 368/1002/319
f 374/1004/313 369/1005/312 368/1002/319
f 375/1006/310 370/981/311 369/1007/312
f 375/1006/310 363/978/309 370/981/311
f 362/979/308 373/983/314 372/1008/315
f 362/979/308 374/1009/313 364/982/318
f 374/1004/313 375/1010/310 369/1005/312
f 362/979/308 375/1006/310 374/1009/313
f 362/979/308 363/978/309 375/1006/310
f 376/1011/425 377/1012/328 379/1013/329
f 376/1011/425 382/1014/426 381/1015/427
f 376/1011/425 380/1016/428 377/1012/328
f 376/1011/425 379/1013/329 378/1017/330
f 376/1011/425 381/1015/427 380/1016/428
f 378/1018/330 379/1019/329 377/1020/328
f 378/1018/330 380/1021/428 381/1022/427
f 378/1018/330 382/1023/426 376/1024/425
f 378/1018/330 381/1022/427 382/1023/426
f 378/1018/330 377/1020/328 380/1021/428
f 383/1025/78 384/1026/77 386/1027/429
f 390/1028/430 383/1025/78 386/1027/429
f 402/150/79 385/1029/431 403/1030/432
f 384/1031/433 387/112/433 386/1032/433
f 384/1031/434 404/36/434 387/112/434
f 402/150/79 383/149/78 385/1029/431
f 404/152/435 385/151/120 386/1033/436
f 390/1028/430 386/1027/429 396/1034/437
f 385/212/120 389/211/119 386/1035/436
f 423/1036/438 395/1037/438 419/1038/438
f 414/1039/439 391/1040/439 402/1041/439
f 394/82/49 422/84/357 420/1042/57
f 401/1043/440 391/1044/441 412/1045/124
f 418/199/58 395/119/442 420/118/57
f 392/1046/443 413/184/123 411/1047/122
f 392/1046/443 415/185/444 413/184/123
f 397/1048/409 399/1049/372 400/1050/373
f 397/1051/409 398/1052/371 399/1053/372
f 398/1054/371 397/1055/409 400/1056/373
f 398/1057/371 400/1058/373 399/1059/372
f 402/1060/445 417/1061/446 414/1062/447
f 402/1060/445 408/1063/448 417/1061/446
f 410/38/449 401/1064/440 412/1065/124
f 419/1038/105 418/1066/107 407/159/450
f 419/1038/105 407/159/450 422/158/451
f 422/1067/357 406/186/363 421/121/59
f 410/38/449 412/1065/124 416/233/452
f 414/1068/95 409/1069/453 413/1070/96
f 424/85/369 421/121/369 405/113/369
f 419/1038/105 422/158/451 423/1036/454
f 418/199/58 420/118/57 421/1071/59
f 422/1067/357 421/121/59 420/1072/57
f 426/1073/379 425/1074/378 427/1075/381
f 426/1076/379 427/1077/381 428/1078/424
f 425/1079/378 428/1080/424 427/1081/381
f 425/1082/378 426/1083/379 428/1084/424
f 429/1085/308 439/1086/313 437/1087/318
f 429/1085/308 437/1087/318 430/1088/314
f 429/1085/308 440/1089/310 439/1086/313
f 429/1085/308 441/1090/309 440/1089/310
f 429/1085/308 430/1088/314 431/1091/315
f 429/1092/308 432/1093/316 442/1094/317
f 429/1092/308 431/1095/315 432/1093/316
f 430/1096/321 437/1097/318 438/1098/455
f 430/1096/321 438/1098/455 433/1099/322
f 431/1100/315 430/1096/321 433/1099/322
f 431/1100/315 433/1099/322 432/1101/316
f 432/1102/316 433/1103/322 438/1104/455
f 437/1105/318 434/1106/319 438/1107/455
f 437/1105/318 439/1108/313 434/1106/319
f 432/1102/316 438/1104/455 434/1109/319
f 439/1108/313 435/1110/312 434/1106/319
f 432/1102/316 434/1109/319 435/1111/312
f 439/1108/313 440/1112/310 435/1110/312
f 432/1102/316 436/1113/323 442/1114/317
f 441/1090/309 442/1115/317 436/1116/311
f 432/1102/316 435/1111/312 436/1113/323
f 440/1089/310 441/1090/309 436/1116/311
f 440/1089/310 436/1116/311 435/1117/312
f 441/1090/309 429/1085/308 442/1115/317
f 443/1118/382 449/1119/456 446/1120/457
f 443/1118/382 446/1120/457 448/1121/384
f 443/1118/382 448/1121/384 447/1122/385
f 443/1118/382 444/1123/387 445/1124/388
f 443/1118/382 447/1122/385 444/1123/387
f 445/1125/388 444/1126/387 447/1127/385
f 445/1125/388 449/1128/456 443/1129/382
f 445/1125/388 447/1127/385 448/1130/384
f 445/1125/388 446/1131/457 449/1128/456
f 445/1125/388 448/1130/384 446/1131/457
f 456/188/458 458/91/458 464/187/458
f 455/1132/459 473/1133/41 470/1134/84
f 476/1135/460 452/1136/460 477/1137/460
f 474/1138/461 454/1139/461 471/1140/461
f 455/1132/459 470/1134/84 472/1141/83
f 453/1142/462 452/128/463 478/127/464
f 460/1143/36 458/162/38 462/161/465
f 451/167/65 475/1144/466 478/1145/66
f 462/1146/467 457/1147/468 464/1148/469
f 469/1149/470 454/1150/471 453/1151/42
f 460/1143/36 462/161/465 463/1152/472
f 463/1152/473 484/1153/473 460/1143/473
f 459/200/474 461/122/62 464/1154/469
f 459/200/474 484/123/475 461/122/62
f 483/87/61 462/89/467 461/1155/62
f 462/1146/467 464/1148/469 461/1156/62
f 468/1157/370 465/1158/371 467/1159/372
f 465/1160/371 468/1161/370 466/1162/373
f 465/1163/371 466/1164/373 467/1165/372
f 468/1166/370 467/1167/372 466/1168/373
f 473/1169/41 469/1170/40 470/1171/84
f 453/1172/42 486/1173/44 469/1174/470
f 474/1138/476 471/1140/85 470/1175/84
f 474/1176/476 470/189/84 485/43/99
f 477/1137/477 475/221/478 476/1135/479
f 475/1177/466 480/55/480 478/1178/66
f 477/1137/477 481/222/481 475/221/478
f 477/1179/482 453/1180/462 478/1181/464
f 481/1182/483 482/1183/483 487/54/483
f 482/1183/484 477/1184/482 478/1185/464
f 488/1186/378 490/1187/424 491/1188/381
f 488/1189/378 489/1190/379 490/1191/424
f 489/1192/379 488/1193/378 491/1194/381
f 489/1195/379 491/1196/381 490/1197/424
f 492/1198/485 495/1199/486 493/1200/487
f 492/1198/485 494/1201/488 495/1199/486
f 494/1202/488 493/1203/487 495/1204/486
f 494/1202/488 492/1205/485 493/1203/487
f 498/1206/489 496/1207/490 497/1208/491
f 498/1206/489 497/1208/491 499/1209/492
f 496/1210/490 498/1211/489 499/1212/492
f 496/1210/490 499/1212/492 497/1213/491
f 501/1214/488 500/1215/487 503/1216/486
f 501/1214/488 502/1217/485 500/1215/487
f 502/1218/485 503/1219/486 500/1220/487
f 502/1218/485 501/1221/488 503/1219/486
f 504/1222/489 505/1223/491 506/1224/492
f 504/1222/489 507/1225/490 505/1223/491
f 507/1226/490 506/1227/492 505/1228/491
f 507/1226/490 504/1229/489 506/1227/492
f 508/1230/493 510/1231/494 511/1232/495
f 508/1230/493 509/1233/496 510/1231/494
f 509/1234/496 511/1235/495 510/1236/494
f 509/1234/496 508/1237/493 511/1235/495
f 512/1238/497 514/1239/498 515/1240/499
f 512/1238/497 513/1241/500 514/1239/498
f 513/1242/500 515/1243/499 514/1244/498
f 513/1242/500 512/1245/497 515/1243/499
f 517/1246/501 516/1247/501 518/1248/501
f 518/1249/501 516/1250/501 517/1251/501
f 520/1252/501 521/1253/501 519/1254/501
f 520/1255/501 519/1256/501 521/1257/501
f 523/1258/501 522/1259/501 524/1260/501
f 523/1261/501 524/1262/501 522/1263/501
f 255/136/502 256/98/502 254/21/502
f 254/21/503 257/60/504 258/1264/505
f 254/21/506 258/1264/506 259/202/506
f 254/21/507 259/202/507 260/22/507
f 270/26/508 262/58/508 263/1265/508
f 264/24/509 265/97/509 266/172/509
f 270/26/510 263/1265/510 264/24/510
f 268/63/511 269/227/511 270/26/511
f 264/24/512 266/172/512 267/25/512
f 267/25/513 268/63/513 270/26/513
f 318/1266/514 319/1267/514 320/1268/514
f 318/1266/515 320/1268/515 317/1269/515
f 320/1268/516 321/27/516 325/29/516
f 325/29/517 317/1269/517 320/1268/517
f 323/1270/518 324/1271/518 325/29/518
f 322/28/519 323/1270/519 325/29/519
f 349/1272/520 350/1273/520 348/32/520
f 350/1273/521 351/30/521 348/32/521
f 351/30/522 352/1274/522 353/31/522
f 353/31/523 354/1275/523 355/1276/523
f 355/1276/524 356/1277/524 348/32/524
f 353/31/525 355/1276/525 348/32/525
f 395/1278/526 388/1279/526 389/1280/526
f 389/1280/527 383/149/78 390/1281/430
f 391/33/528 392/1282/528 393/34/528
f 389/1280/529 390/1281/529 391/33/529
f 394/35/530 395/1278/530 391/33/530
f 395/1278/531 389/1280/531 391/33/531
f 410/38/532 402/1283/532 403/1284/532
f 404/36/509 405/113/509 406/186/509
f 410/38/533 403/1284/533 404/36/533
f 408/86/534 409/234/534 410/38/534
f 404/36/535 406/186/535 407/37/535
f 407/37/513 408/86/513 410/38/513
f 450/39/536 451/126/536 452/128/536
f 452/128/537 453/1142/537 454/40/537
f 455/125/538 456/188/538 457/41/538
f 450/39/539 452/128/539 454/40/539
f 454/40/540 455/125/540 457/41/540
f 458/91/541 450/39/541 457/41/541
f 486/44/542 479/56/542 482/1183/542
f 479/56/543 480/55/543 482/1183/543
f 481/1182/544 482/1183/544 480/55/544
f 482/1183/545 483/42/545 486/44/545
f 485/43/546 469/190/546 486/44/546
f 483/42/547 484/123/547 485/43/547
f 326/48/548 316/927/394 318/49/549
f 396/51/437 386/1285/429 389/52/550
f 487/54/551 478/1178/464 480/55/552
f 250/1286/336 249/1287/335 248/1288/340
f 252/57/553 263/1265/553 262/58/553
f 275/840/352 279/1289/375 278/226/365
f 257/60/554 254/21/554 283/61/554
f 267/25/359 285/1290/358 288/47/555
f 314/64/556 348/1291/556 356/65/556
f 321/70/557 320/1292/557 333/71/557
f 351/73/558 334/951/558 340/74/558
f 324/76/559 323/1293/559 344/77/559
f 412/1065/124 413/1294/123 416/233/452
f 402/79/560 391/1295/560 390/80/560
f 394/82/561 393/1296/561 423/83/561
f 407/37/562 418/1297/562 424/85/562
f 483/87/563 482/1298/563 463/88/563
f 460/90/110 459/1299/109 450/39/564
f 456/92/565 455/1300/565 469/93/565
f 453/95/566 474/1301/566 479/56/566
f 264/24/341 250/824/336 251/96/567
f 256/98/350 275/832/352 281/99/568
f 357/109/569 346/210/569 325/110/569
f 404/36/435 386/1032/436 387/112/570
f 411/114/571 412/1302/571 392/115/571
f 472/124/572 471/1303/572 455/125/572
f 352/142/573 332/194/102 338/143/101
f 343/78/114 342/1304/574 341/1305/575
f 325/145/576 343/1306/576 345/146/576
f 392/154/577 414/1307/577 415/155/577
f 476/166/23 475/1144/23 451/167/23
f 254/169/578 261/1308/578 252/170/578
f 353/173/579 336/958/579 337/174/579
f 349/176/580 348/1309/580 341/177/580
f 477/1184/477 482/1183/581 481/1182/481
f 259/191/582 258/102/582 284/192/582
f 327/926/583 356/1310/583 355/104/583
f 335/196/584 323/1311/584 322/108/584
f 419/198/585 388/1312/585 395/119/585
f 485/43/586 484/123/586 459/200/586
f 259/202/587 246/815/333 247/203/332
f 268/204/588 276/1313/355 277/205/367
f 408/214/589 414/1314/447 417/215/446
f 248/223/590 249/1315/590 261/224/590
f 278/226/591 279/1289/591 270/26/591
f 416/233/592 413/1294/592 410/38/592
f 162/621/260 170/607/259 161/619/249
f 166/634/248 169/615/262 165/627/261
f 253/823/593 263/1265/593 264/24/593
f 259/818/338 252/812/331 261/826/594
f 280/829/595 255/1316/595 256/830/595
f 283/833/596 257/1317/596 258/834/596
f 268/204/597 254/1318/597 270/1319/597
f 254/1318/598 262/1320/598 270/1319/598
f 265/97/599 266/172/599 267/25/599
f 267/25/600 288/47/600 265/97/600
f 354/925/601 355/1321/601 356/1322/601
f 356/1322/602 314/230/602 354/925/602
f 326/930/603 318/1323/603 319/928/603
f 320/929/397 316/932/394 326/930/548
f 343/208/604 325/1324/604 324/1325/604
f 333/935/605 321/1326/605 322/936/605
f 339/957/606 354/175/606 353/173/606
f 352/959/607 340/1327/414 339/957/403
f 351/209/115 343/208/114 341/1328/575
f 341/1328/608 349/963/608 351/209/608
f 384/1031/609 403/1284/609 404/36/609
f 396/1034/610 389/1329/610 390/1028/610
f 423/1036/611 394/1330/611 395/1037/611
f 414/1039/612 392/1331/612 391/1040/612
f 408/214/613 402/1332/613 410/1333/613
f 405/113/614 406/186/614 407/37/614
f 407/37/600 424/85/600 405/113/600
f 457/41/615 458/91/615 456/188/615
f 458/91/616 459/1334/474 464/187/469
f 476/1135/617 451/1335/617 452/1136/617
f 469/1149/618 455/1336/618 454/1150/618
f 463/1152/619 483/1337/619 484/1153/619
f 486/44/620 474/1176/620 485/43/620
f 487/54/621 480/55/621 481/1182/621
f 482/1183/484 478/1185/464 487/54/551
