# Blender 4.5.0
# www.blender.org
mtllib public_001.mtl
o public_001
v 2.472862 3.530025 -2.923231
v 2.472862 2.989445 -2.923231
v -1.071240 3.530025 -2.923231
v -1.071240 2.989445 -2.923231
v -3.248899 0.141529 -3.249059
v 3.250000 0.142629 -3.247264
v -3.248899 0.001101 3.250000
v -3.250000 -0.000000 -3.247264
v 3.248899 0.141529 3.250000
v -3.250000 0.142630 3.248204
v 3.248899 0.001101 -3.249059
v 3.250000 0.000000 3.248204
v -2.999643 6.048942 2.998090
v -2.998530 0.151267 2.999841
v 2.998529 6.047862 2.999841
v 2.999643 0.150187 2.998091
v 2.999643 6.048942 -2.696873
v -2.998529 6.047862 -2.698624
v 2.998530 0.151266 -2.698623
v -2.999643 0.150187 -2.696872
v -1.923745 0.151334 -2.714508
v -3.022133 0.149000 -2.712086
v -1.923745 6.047794 3.015726
v -3.021979 6.047794 -2.714509
v -3.022133 6.050128 3.013304
v -3.021979 0.151334 3.015726
v -1.923591 0.149001 3.013304
v -1.923591 6.050128 -2.712086
v 2.948357 6.167706 2.815320
v -2.944592 6.170051 2.815094
v -2.953418 6.163824 2.809036
v -2.944380 6.061771 -2.817133
v -2.953418 6.052732 -2.808097
v -2.958264 6.063634 -2.817133
v -2.953418 6.061771 -2.817133
v 2.944592 6.170051 -2.814155
v 2.953418 6.163824 -2.808097
v -2.948357 6.167706 -2.814380
v -2.958173 6.408504 2.816430
v -2.960367 6.411017 -2.813743
v -2.953418 6.404080 -2.808097
v -2.953418 6.061771 2.818073
v -2.958425 6.061771 2.818073
v -2.953418 6.052732 2.809036
v -2.944380 6.061771 2.818073
v -3.104565 6.413119 -2.817133
v -3.108469 6.410355 -2.973719
v -3.113604 6.404080 -2.817133
v -3.104565 6.413119 -2.808097
v -3.104565 6.052732 -2.808097
v -3.113604 6.063562 -2.817133
v -3.111197 6.054897 -2.971484
v -3.102773 6.052732 -2.817133
v 2.958173 6.408504 -2.815490
v 3.104565 6.413119 2.818073
v 3.108469 6.410355 2.974658
v 3.113604 6.404080 2.818073
v 3.104565 6.413119 2.809036
v 3.104565 6.052732 2.809036
v 3.113604 6.063562 2.818073
v 3.111197 6.054897 2.972423
v 3.102773 6.052732 2.818073
v 2.960367 6.411017 2.814683
v 2.953418 6.404080 2.809036
v 2.953418 6.061771 -2.817133
v 2.958425 6.061771 -2.817133
v 2.953418 6.052732 -2.808097
v 2.944380 6.061771 -2.817133
v 2.944380 6.061771 2.818073
v 2.953418 6.052732 2.809036
v 2.958264 6.063634 2.818073
v 2.953418 6.061771 2.818073
v 3.104565 6.052732 -2.817133
v 3.108470 6.055497 -2.973719
v 3.113604 6.061771 -2.817133
v 3.104565 6.052732 -2.808097
v 3.104565 6.413119 -2.808097
v 3.113604 6.402289 -2.817133
v 3.111197 6.410954 -2.971484
v 3.102773 6.413119 -2.817133
v -3.104565 6.052732 2.818073
v -3.108470 6.055497 2.974658
v -3.113604 6.061771 2.818073
v -3.104565 6.052732 2.809036
v -3.104565 6.413119 2.809036
v -3.113604 6.402289 2.818073
v -3.111197 6.410954 2.972423
v -3.102773 6.413119 2.818073
v -0.485547 5.339633 -2.834861
v -0.486736 3.802925 -2.835560
v -0.486735 5.339361 -2.688605
v -0.485547 3.802652 -2.689303
v -1.717002 3.802652 -2.834861
v -1.715814 3.802925 -2.688605
v -1.717003 5.339633 -2.689303
v -1.715814 5.339361 -2.835560
v -0.552293 5.270042 -2.851007
v -1.650257 5.270042 -2.853324
v -1.650257 3.872243 -2.851007
v -0.552293 3.872243 -2.853323
v -1.649922 3.838914 -2.853216
v -1.653902 5.313383 -2.853216
v -1.649922 5.313383 -2.911170
v -1.653902 3.838914 -2.911170
v -1.103265 5.313383 -2.853216
v -1.099285 3.838914 -2.853216
v -1.099285 5.313383 -2.911170
v -1.103265 3.838914 -2.911170
v -0.548647 5.313383 -2.911170
v -0.552627 3.838914 -2.911170
v -0.552627 5.313383 -2.853216
v -0.548647 3.838914 -2.853216
v -0.441735 3.838898 -2.784358
v -1.760814 3.838897 -3.020065
v -1.762468 3.761589 -3.019065
v -0.440081 3.839042 -3.019065
v -0.440081 3.761588 -2.785358
v -0.441735 3.761734 -3.020065
v -1.762468 3.839043 -2.785358
v -1.760814 3.761734 -2.784358
v 1.065061 3.802925 -2.835560
v 1.066249 3.802652 -2.689303
v -0.165206 5.339633 -2.689303
v 1.066249 5.339633 -2.834862
v 1.065061 5.339361 -2.688605
v -0.164018 5.339361 -2.835560
v -0.165206 3.802652 -2.834861
v -0.164018 3.802925 -2.688605
v 0.999503 5.270042 -2.851007
v -0.098461 5.270042 -2.853324
v -0.098460 3.872243 -2.851007
v 0.999503 3.872243 -2.853323
v -0.098126 5.313383 -2.911170
v -0.102106 3.838914 -2.911170
v -0.102106 5.313383 -2.853216
v -0.098126 3.838914 -2.853216
v 0.452512 5.313383 -2.911170
v 0.448531 3.838914 -2.911170
v 0.452512 3.838914 -2.853216
v 0.448531 5.313383 -2.853216
v 1.003149 5.313383 -2.911170
v 0.999169 3.838914 -2.911170
v 1.003149 3.838914 -2.853216
v 0.999169 5.313383 -2.853216
v -0.209018 3.838898 -3.020065
v 1.110061 3.761734 -3.020065
v -0.210672 3.839043 -2.785358
v -0.210672 3.761589 -3.019065
v -0.209018 3.761734 -2.784358
v 1.111715 3.839042 -3.019065
v 1.110061 3.838898 -2.784358
v 1.111715 3.761588 -2.785358
v 1.387778 3.802925 -2.688605
v 1.386590 3.802652 -2.834861
v 2.618045 5.339633 -2.834862
v 1.386590 5.339633 -2.689303
v 2.616857 5.339361 -2.688605
v 1.387778 5.339361 -2.835560
v 2.616856 3.802925 -2.835560
v 2.618045 3.802653 -2.689303
v 1.453336 5.270042 -2.853324
v 2.551300 5.270042 -2.851007
v 1.453336 3.872243 -2.851007
v 2.551299 3.872243 -2.853323
v 1.453670 5.313383 -2.911170
v 1.449690 3.838914 -2.911170
v 1.449690 5.313383 -2.853216
v 1.453670 3.838914 -2.853216
v 2.000328 5.313383 -2.853216
v 2.004308 5.313383 -2.911170
v 2.000328 3.838914 -2.911170
v 2.004308 3.838914 -2.853216
v 2.550965 5.313383 -2.853216
v 2.554945 3.838914 -2.853216
v 2.550965 3.838914 -2.911170
v 2.554945 5.313383 -2.911170
v 2.663511 3.839042 -3.019065
v 2.661857 3.761734 -3.020065
v 2.661857 3.838898 -2.784358
v 1.341124 3.839043 -2.785358
v 1.342778 3.761734 -2.784358
v 1.342778 3.838898 -3.020065
v 1.341124 3.761589 -3.019065
v 2.663511 3.761588 -2.785358
v -0.785938 0.901897 -2.833694
v -0.785938 2.534266 -2.690470
v -0.784760 0.900878 -2.692266
v -2.619179 2.535285 -2.692267
v -2.619179 0.900878 -2.831897
v -0.784760 2.535285 -2.831897
v -2.618002 2.534266 -2.833694
v -2.618002 0.901897 -2.690470
v -0.852780 2.467198 -2.851022
v -2.551160 2.467198 -2.853308
v -2.551160 0.968965 -2.851022
v -0.852780 0.968965 -2.853308
v -2.550965 2.510375 -2.911170
v -2.554945 0.935799 -2.911170
v -2.550965 0.935799 -2.853216
v -2.554945 2.510375 -2.853216
v -1.699980 0.935799 -2.853216
v -1.703960 2.510375 -2.853216
v -1.699980 2.510375 -2.911170
v -1.703960 0.935799 -2.911170
v -0.848995 0.935799 -2.853216
v -0.848995 2.510375 -2.911170
v -0.852975 2.510375 -2.853216
v -0.852975 0.935799 -2.911170
v -0.742211 0.936020 -2.784016
v -2.661728 0.858381 -2.784016
v -0.740583 0.858330 -2.784922
v -2.661728 0.936020 -3.020406
v -2.663356 0.858330 -3.019501
v -0.740583 0.936072 -3.019501
v -2.663356 0.936072 -2.784922
v -0.742211 0.858381 -3.020406
v 0.004248 2.413384 -2.838882
v 1.497491 2.413384 -2.705301
v 0.004248 0.171866 -2.705300
v 0.003454 2.414736 -2.707109
v 0.003454 0.170514 -2.837073
v 1.498284 2.414736 -2.837073
v 1.498284 0.170514 -2.707109
v 1.497491 0.171866 -2.838881
v 1.425672 2.337630 -2.860729
v 1.425672 0.237610 -2.863620
v 0.076066 2.337630 -2.863620
v 0.076066 0.237610 -2.860729
v 0.748849 0.235090 -2.918644
v 0.748849 2.340149 -2.865760
v 0.752889 2.340149 -2.918644
v 0.752889 0.235090 -2.865760
v 0.632877 1.397000 -2.985210
v 0.628583 0.998046 -2.985210
v 0.628583 1.397000 -2.919305
v 0.632877 0.998046 -2.919305
v 0.873155 1.397000 -2.985210
v 0.868862 0.998046 -2.985210
v 0.868862 1.397000 -2.919305
v 0.873155 0.998046 -2.919305
v -0.644769 2.807812 -3.290000
v 2.048114 2.808049 -3.288905
v -0.646491 2.650283 -3.288905
v -0.644769 2.650521 -2.694589
v 2.048113 2.650283 -2.695684
v 2.046391 2.807812 -2.694589
v -0.646491 2.808049 -2.695684
v 2.046391 2.650521 -3.290000
v -1.095323 3.557465 -2.916324
v 2.496945 2.962006 -2.916324
v -1.096675 2.962203 -2.915771
v 2.496945 3.557465 -2.767987
v -1.095323 2.962006 -2.767987
v -1.096675 3.557269 -2.768541
v 2.498297 3.557269 -2.915771
v 2.498297 2.962202 -2.768541
v -2.344929 5.135514 -2.713375
v -2.344772 4.225422 -2.713964
v -2.560905 5.137100 -2.713964
v -2.344772 5.137100 -2.810200
v -2.560748 5.135514 -2.810789
v -2.344929 4.227007 -2.810789
v -2.560906 4.225422 -2.810200
v -2.560749 4.227007 -2.713375
v -2.088493 4.563649 -2.820667
v -2.817185 4.788862 -2.820667
v -2.818718 4.563410 -2.820092
v -2.088493 4.788862 -2.723516
v -2.086960 4.563410 -2.724090
v -2.818718 4.789102 -2.724090
v -2.086960 4.789102 -2.820093
v -2.817185 4.563650 -2.723516
v 1.996355 0.147294 -3.240231
v -0.596504 0.215758 -2.825441
v 1.996355 0.215572 -2.824432
v -0.594733 0.147294 -2.824432
v 1.998126 0.215758 -3.239222
v -0.594733 0.215572 -3.240231
v -0.596504 0.147108 -3.239222
v 1.998126 0.147108 -2.825441
v 1.382328 6.849197 1.379414
v 2.223119 6.850000 1.380666
v 2.223119 6.206485 1.823233
v 1.381052 6.850000 1.823233
v 2.221844 6.849197 1.824485
v 1.381052 6.206485 1.380666
v 2.221843 6.207287 1.379414
v 1.382328 6.207288 1.824485
v 2.190472 6.481566 1.353207
v 2.133573 6.708322 1.351492
v 2.075822 6.342930 1.357594
v 1.795492 6.375741 1.350229
v 1.731381 6.600565 1.351944
v 1.900657 6.773189 1.351718
v 1.964107 6.312998 1.345843
v 1.756712 6.395723 1.313368
v 1.750475 6.379817 1.326248
v 2.175675 6.385589 1.321690
v 1.756712 6.460985 1.331822
v 1.750475 6.448103 1.315919
v 2.175674 6.452661 1.321690
v 1.756712 6.528058 1.331822
v 1.750475 6.515176 1.315919
v 2.175675 6.519733 1.321690
v 1.748868 6.586806 1.321690
v 2.174067 6.591364 1.315919
v 2.167831 6.578483 1.331822
v 1.750475 6.659650 1.317133
v 2.175675 6.653878 1.321690
v 1.756712 6.643744 1.330013
v 1.750475 6.726722 1.317133
v 1.756712 6.710815 1.330013
v 2.175675 6.720950 1.321690
v 1.468350 6.721763 1.355212
v 1.468350 6.364755 1.358234
v 1.555150 6.364755 1.355212
v 1.555150 6.721763 1.358234
v 1.548974 6.171062 1.306570
v 1.462890 6.201628 1.884961
v 1.463914 6.200763 1.317075
v 1.462890 6.134083 1.318938
v 1.463914 6.134949 1.886824
v 1.539562 6.200763 1.886824
v 1.540586 6.134083 1.884961
v 2.064610 6.200763 1.317075
v 2.141282 6.201629 1.318938
v 2.140258 6.200763 1.886824
v 2.141282 6.134083 1.884960
v 2.063585 6.134083 1.318938
v 2.063585 6.201628 1.884960
v 2.140257 6.134949 1.317075
v 2.064610 6.134949 1.886824
v 1.121845 6.850000 1.380666
v 1.120569 6.849197 1.824485
v 0.279778 6.206485 1.380666
v 1.121845 6.206485 1.823233
v 1.120569 6.207288 1.379414
v 0.279777 6.850000 1.823233
v 0.281053 6.849197 1.379414
v 0.281053 6.207288 1.824485
v 0.799383 6.773189 1.351718
v 0.630107 6.600565 1.351944
v 0.974547 6.342929 1.357594
v 0.694218 6.375741 1.350229
v 0.862832 6.312998 1.345843
v 1.032298 6.708322 1.351492
v 1.089197 6.481566 1.353207
v 1.066556 6.395723 1.330013
v 0.647593 6.385589 1.321690
v 1.072793 6.379817 1.317133
v 1.072793 6.448103 1.327462
v 1.066556 6.460985 1.311559
v 0.647594 6.452661 1.321690
v 1.066556 6.528058 1.311559
v 0.647593 6.519733 1.321690
v 1.072793 6.515176 1.327462
v 1.074399 6.586806 1.321690
v 0.649200 6.591364 1.327462
v 0.655437 6.578483 1.311559
v 0.649200 6.659650 1.317133
v 0.655437 6.643744 1.330013
v 1.074400 6.653878 1.321690
v 0.647593 6.720950 1.321690
v 1.072793 6.726722 1.326248
v 1.066556 6.710815 1.313368
v 0.453875 6.721763 1.358234
v 0.453875 6.364755 1.355212
v 0.367075 6.721763 1.355212
v 0.367075 6.364755 1.358234
v 0.439312 6.201629 1.318938
v 0.362640 6.134949 1.886824
v 0.362639 6.200763 1.317075
v 0.361615 6.134083 1.318938
v 0.438288 6.200763 1.886824
v 0.361615 6.201629 1.884960
v 0.438287 6.134949 1.317075
v 0.439312 6.134083 1.884960
v 0.963335 6.134949 1.886824
v 1.038983 6.200763 1.886824
v 0.963335 6.200763 1.317075
v 1.048395 6.171062 1.306570
v 0.962310 6.201629 1.884960
v 0.962311 6.134083 1.318938
v 1.040007 6.134083 1.884961
v 3.040779 3.896595 -1.854830
v 3.046266 5.155594 -1.854830
v 3.040779 5.155594 -0.746635
v 3.046266 3.896595 -0.746634
v 3.081823 4.520442 -1.901973
v 3.085315 4.520442 -0.699491
v 3.081823 4.571790 -0.699492
v 3.085315 4.571790 -1.901973
v 3.040779 3.896595 -0.053165
v 3.046266 5.155594 -0.053165
v 3.046266 3.896595 1.055030
v 3.040779 5.155594 1.055030
v 3.085315 4.571790 -0.100308
v 3.085315 4.520442 1.102173
v 3.081823 4.571790 1.102173
v 3.081823 4.520442 -0.100308
v 3.040779 5.155594 2.756602
v 3.046266 5.155594 1.648407
v 3.046266 3.896595 2.756602
v 3.040779 3.896595 1.648407
v 3.081823 4.520442 1.601264
v 3.081823 4.571791 2.803745
v 3.085315 4.520442 2.803745
v 3.085315 4.571790 1.601264
v -2.852635 0.116130 3.139782
v -2.820930 0.115905 3.060441
v -2.819974 5.802697 3.060950
v -2.892969 5.798139 3.074065
v -2.853672 5.802923 3.139466
v -2.894974 0.120689 3.078905
v 2.811632 0.120689 3.078904
v 2.885675 0.115905 3.060441
v 2.886631 5.802697 3.060950
v 2.852933 5.802923 3.139466
v 2.813636 5.798139 3.074065
v 2.853970 0.116130 3.139782
v 0.395656 0.450870 3.024512
v -0.395656 0.450870 3.142125
v -0.396183 2.245353 3.141549
v -0.396182 0.450017 3.025088
v 0.396183 2.245353 3.025088
v 0.395656 2.244499 3.142124
v 0.396182 0.450017 3.141549
v -0.395656 2.244499 3.024512
v 0.972118 1.303268 3.000431
v 0.972118 1.792531 3.166205
v 0.629736 1.303267 3.166205
v 0.629039 1.793805 3.165361
v 0.629039 1.301994 3.001275
v 0.972815 1.793805 3.001275
v 0.629736 1.792531 3.000431
v 0.972815 1.301994 3.165361
vn -0.0000 -0.0000 -1.0000
vn -0.0000 -0.7070 -0.7072
vn -0.0000 -0.7071 -0.7072
vn -0.0000 -0.7071 0.7072
vn -0.7071 0.7071 -0.0000
vn -0.7002 -0.7003 -0.1389
vn 0.7071 0.7071 -0.0000
vn 0.7002 -0.7003 0.1389
vn -0.0000 -0.7070 0.7072
vn 0.7071 -0.7071 -0.0000
vn 0.7002 0.7003 -0.1389
vn -0.7071 -0.7071 -0.0000
vn -0.7002 0.7003 0.1389
vn 0.5979 0.0707 -0.7985
vn -0.5979 0.0707 0.7984
vn -0.9988 0.0487 -0.0010
vn -0.8522 0.5232 0.0001
vn -0.5765 0.8171 -0.0000
vn 0.9988 0.0487 0.0010
vn 0.8522 0.5232 -0.0001
vn 0.5765 0.8171 -0.0000
vn 0.0149 0.9999 -0.0000
vn 0.0146 0.9999 -0.0000
vn 0.6374 0.0114 -0.7704
vn -0.0000 -0.6381 -0.7699
vn 0.0617 -0.9981 -0.0000
vn -0.7677 0.6409 0.0002
vn -0.7677 -0.6409 -0.0002
vn 0.9999 0.0145 0.0008
vn 0.8995 0.4369 -0.0000
vn 0.7065 0.7077 -0.0000
vn -0.0617 -0.9981 -0.0000
vn -0.0149 0.9999 -0.0000
vn -0.0146 0.9999 -0.0000
vn -0.6374 0.0114 0.7705
vn -0.0000 -0.6381 0.7699
vn -0.9999 0.0145 -0.0008
vn -0.8995 0.4369 -0.0000
vn -0.7065 0.7078 -0.0000
vn 0.7677 0.6409 -0.0002
vn 0.7677 -0.6409 0.0002
vn -0.5657 0.5741 -0.5919
vn -0.0001 0.9999 -0.0141
vn 0.1881 0.6776 -0.7109
vn 0.5657 -0.5741 -0.5919
vn 0.0001 -0.9999 -0.0141
vn -0.1881 -0.6776 -0.7109
vn 0.5657 0.5741 0.5919
vn 0.0001 0.9999 0.0141
vn -0.1881 0.6776 0.7109
vn -0.5657 -0.5741 0.5919
vn -0.0001 -0.9999 0.0141
vn 0.1881 -0.6776 0.7109
vn -0.0000 -0.0000 -0.0000
vn -0.5805 0.5787 0.5729
vn 0.5805 0.5787 -0.5729
vn -0.5743 0.5759 -0.5818
vn 0.5743 -0.5759 -0.5818
vn -0.5805 -0.5787 -0.5729
vn 0.5805 -0.5787 0.5729
vn 0.5743 0.5759 0.5818
vn -0.5743 -0.5759 0.5818
vn -0.5775 0.5775 0.5771
vn -0.5775 -0.5775 -0.5771
vn -0.5772 -0.5772 0.5776
vn -0.5772 0.5772 -0.5776
vn 0.5775 0.5775 -0.5771
vn 0.5772 0.5772 0.5776
vn 0.5775 -0.5775 0.5771
vn 0.5772 -0.5772 -0.5776
vn -0.0004 -0.7081 -0.7061
vn 0.0003 -0.7061 -0.7081
vn 0.0004 -0.7081 0.7061
vn -0.0003 0.7061 -0.7081
vn 0.0004 0.7081 -0.7061
vn 1.0000 -0.0000 -0.0000
vn -1.0000 -0.0000 -0.0000
vn -0.0003 -0.7061 0.7081
vn 0.0003 0.7061 0.7081
vn -0.0004 0.7081 0.7061
vn 0.0003 0.7056 0.7086
vn -0.0000 0.0275 0.9996
vn -0.0000 0.0260 0.9997
vn -0.0000 0.6997 0.7144
vn 0.9989 0.0471 0.0009
vn -0.0000 0.6997 -0.7144
vn 0.3589 0.9334 0.0015
vn -0.9989 0.0471 -0.0009
vn -0.0003 0.7056 -0.7086
vn -0.0000 -1.0000 -0.0000
vn 0.0117 0.0049 -0.9999
vn 0.0236 0.0099 -0.9997
vn 0.0056 0.0024 -1.0000
vn 1.0000 0.0001 -0.0000
vn -0.0000 0.0275 -0.9996
vn -0.0000 0.0260 -0.9997
vn -0.3589 0.9334 -0.0015
vn 0.0077 0.0008 1.0000
vn 0.0015 0.0040 1.0000
vn -0.0001 0.0047 1.0000
vn 0.0107 -0.0035 0.9999
vn 0.0046 0.0027 1.0000
vn 1.0000 0.0088 0.0005
vn 0.0315 0.9995 -0.0026
vn 0.0315 0.9995 0.0002
vn -0.0000 -0.0000 1.0000
vn -0.9999 -0.0000 -0.0156
vn -0.9023 0.4309 -0.0123
vn -0.0077 0.0008 -1.0000
vn -0.0015 0.0040 -1.0000
vn 0.0001 0.0047 -1.0000
vn -0.0107 -0.0035 -0.9999
vn -0.0046 0.0027 -1.0000
vn -1.0000 0.0088 -0.0005
vn -0.0315 0.9995 0.0026
vn -0.0315 0.9995 -0.0002
vn -0.0056 0.0024 1.0000
vn -0.0117 0.0049 0.9999
vn -0.0236 0.0099 0.9997
vn 0.9999 -0.0000 0.0156
vn 0.9023 0.4309 0.0123
vn -1.0000 0.0001 -0.0000
vn 0.9999 -0.0000 -0.0156
vn 0.9023 -0.4309 -0.0123
vn -0.9999 -0.0000 0.0156
vn -0.9023 -0.4309 0.0123
vn 0.5798 0.5778 -0.5745
vn 0.5798 -0.5778 0.5745
vn 0.5746 -0.5773 -0.5802
vn 0.5746 0.5773 0.5802
vn -0.5798 0.5778 0.5745
vn -0.5746 0.5773 -0.5802
vn -0.5798 -0.5778 -0.5745
vn -0.5746 -0.5773 0.5802
vn -0.6835 0.7297 -0.0168
vn 0.6835 0.7298 0.0168
vn 0.6835 -0.7297 -0.0168
vn -0.6835 -0.7298 0.0168
vn -0.0398 0.8374 0.5451
vn -0.0398 -0.8376 -0.5449
vn 0.0398 -0.8374 0.5451
vn 0.0398 0.8376 -0.5449
vn -0.0398 0.8375 0.5451
vn 0.6972 0.0063 0.7169
vn -0.6972 -0.0063 0.7169
vn 0.7134 -0.0000 0.7008
vn -0.7134 -0.0000 0.7008
vn 0.7134 -0.0000 -0.7007
vn -0.0001 1.0000 -0.0005
vn 0.0001 1.0000 0.0006
vn 0.0001 1.0000 0.0005
vn -0.6972 0.0063 -0.7169
vn 0.6972 -0.0063 -0.7169
vn -0.7134 -0.0000 -0.7007
vn -0.0001 1.0000 -0.0006
vn -0.0001 -1.0000 0.0005
vn 0.0001 -1.0000 -0.0005
vn -0.0001 -1.0000 0.0006
vn 0.0001 -1.0000 -0.0006
vn -0.6835 0.7297 -0.0167
vn 0.0398 0.8375 -0.5450
vn -0.0398 0.8375 0.5450
vn 0.0398 -0.8375 0.5450
vn -0.0398 -0.8375 -0.5450
vn -0.5749 0.5754 -0.5818
vn 0.5749 -0.5754 -0.5818
vn -0.5798 -0.5795 -0.5727
vn 0.5798 -0.5795 0.5727
vn 0.5798 0.5795 -0.5727
vn 0.5749 0.5754 0.5818
vn -0.5749 -0.5754 0.5818
vn -0.5798 0.5795 0.5727
vn -0.7188 0.6947 -0.0269
vn 0.7188 -0.6947 -0.0269
vn -0.7189 -0.6946 0.0269
vn 0.7189 0.6946 0.0269
vn -0.0400 0.8379 0.5444
vn 0.0400 0.8379 -0.5444
vn -0.0400 -0.8379 -0.5444
vn 0.0399 -0.8379 0.5444
vn -0.0400 0.8378 0.5445
vn -0.0399 -0.8379 -0.5443
vn 0.0398 -0.8378 0.5445
vn 0.0398 0.8380 -0.5443
vn 0.0398 0.8379 -0.5444
vn -0.0398 0.8379 0.5444
vn 0.0398 -0.8379 0.5444
vn -0.0398 -0.8379 -0.5444
vn 0.6974 0.0067 0.7166
vn -0.6974 -0.0067 0.7166
vn 0.7130 0.0007 0.7011
vn -0.7130 -0.0007 0.7011
vn 0.7130 -0.0007 -0.7011
vn -0.0000 1.0000 -0.0002
vn -0.0000 1.0000 0.0002
vn -0.0000 -1.0000 0.0002
vn -0.0000 -1.0000 -0.0002
vn -0.7130 0.0007 -0.7011
vn 0.6974 -0.0067 -0.7166
vn -0.6974 0.0067 -0.7166
vn -0.5759 0.5742 -0.5820
vn 0.5759 -0.5742 -0.5820
vn -0.5792 -0.5803 -0.5725
vn 0.5792 0.5803 -0.5725
vn -0.5792 0.5803 0.5725
vn 0.5759 0.5742 0.5820
vn -0.5759 -0.5742 0.5820
vn 0.5792 -0.5803 0.5725
vn 0.6644 0.7473 0.0048
vn -0.6644 -0.7473 0.0049
vn 0.6645 -0.7473 -0.0048
vn -0.6645 0.7473 -0.0048
vn -0.0438 0.8397 0.5412
vn 0.0438 0.8397 -0.5412
vn -0.0438 -0.8397 -0.5412
vn 0.0438 -0.8397 0.5412
vn -0.0373 0.8176 0.5746
vn 0.0373 0.8176 -0.5746
vn -0.0373 -0.8176 -0.5746
vn 0.0373 -0.8176 0.5746
vn -0.0373 0.8175 0.5747
vn 0.0373 -0.8175 0.5746
vn -0.0001 1.0000 -0.0003
vn 0.0001 1.0000 0.0003
vn -0.0001 1.0000 -0.0004
vn -0.7022 0.0031 -0.7119
vn 0.7105 -0.0003 -0.7037
vn 0.7022 -0.0031 -0.7119
vn -0.7105 0.0003 -0.7037
vn -0.7105 -0.0003 0.7037
vn 0.7105 0.0003 0.7037
vn 0.7022 0.0031 0.7119
vn 0.0001 1.0000 0.0004
vn -0.7022 -0.0031 0.7119
vn -0.0001 -1.0000 0.0003
vn 0.0001 -1.0000 -0.0003
vn -0.0001 -1.0000 0.0004
vn 0.0001 -1.0000 -0.0004
vn -0.0001 -0.0007 -1.0000
vn 0.0001 0.0007 -1.0000
vn -0.0002 -0.0009 -1.0000
vn 0.0002 0.0009 -1.0000
vn -0.7090 0.7052 -0.0036
vn -0.7037 0.7104 -0.0055
vn -0.7090 -0.7052 0.0036
vn 0.7090 0.7052 0.0036
vn 0.7037 -0.7104 -0.0055
vn 0.7090 -0.7052 -0.0036
vn -0.7037 -0.7104 0.0055
vn 0.0001 -0.0007 1.0000
vn -0.0001 0.0007 1.0000
vn 0.0002 -0.0009 1.0000
vn -0.0002 0.0009 1.0000
vn 0.7037 0.7104 0.0055
vn 0.5789 0.5700 0.5831
vn -0.5789 -0.5700 0.5831
vn 0.5782 -0.5813 0.5725
vn -0.5782 0.5813 0.5725
vn 0.5782 0.5813 -0.5725
vn 0.5789 -0.5700 -0.5831
vn -0.5782 -0.5813 -0.5725
vn -0.5789 0.5700 -0.5831
vn -0.5704 0.5785 -0.5831
vn 0.5704 -0.5785 -0.5831
vn -0.5812 -0.5784 -0.5724
vn 0.5812 -0.5784 0.5724
vn 0.5812 0.5784 -0.5724
vn -0.5812 0.5784 0.5724
vn -0.5704 -0.5785 0.5831
vn 0.5704 0.5785 0.5831
vn -0.6965 0.0078 -0.7175
vn 0.6965 -0.0078 -0.7175
vn -0.7150 0.0044 -0.6991
vn 0.7150 -0.0044 -0.6991
vn 0.7150 0.0044 0.6991
vn 0.6965 0.0078 0.7175
vn -0.7150 -0.0044 0.6991
vn -0.6965 -0.0078 0.7175
vn -0.5760 0.5768 -0.5792
vn 0.5760 -0.5768 -0.5792
vn -0.5784 -0.5782 -0.5754
vn 0.5784 0.5782 -0.5754
vn -0.5784 0.5782 0.5754
vn 0.5784 -0.5782 0.5754
vn 0.5760 0.5768 0.5792
vn -0.5760 -0.5768 0.5792
vn 0.6030 -0.7895 0.1143
vn 0.9990 -0.0441 0.0044
vn 0.6417 0.7669 -0.0050
vn -0.2588 0.9659 -0.0000
vn -0.9392 0.3433 0.0050
vn -0.8431 -0.5377 -0.0044
vn -0.1275 -0.9852 -0.1143
vn 0.5925 0.8053 0.0189
vn -0.5926 0.8052 -0.0189
vn -0.5925 -0.8053 0.0190
vn 0.5926 -0.8052 -0.0189
vn -0.4958 0.6823 -0.5373
vn 0.7737 0.0390 -0.6323
vn -0.4927 -0.6899 -0.5304
vn 0.5831 -0.5868 0.5618
vn -0.5827 0.6003 0.5478
vn 0.5658 0.5902 0.5757
vn -0.5724 -0.5735 0.5861
vn -0.5865 0.5849 0.5603
vn 0.5865 0.5849 -0.5603
vn -0.5724 0.5735 -0.5861
vn 0.5724 -0.5735 -0.5861
vn -0.5865 -0.5849 -0.5603
vn 0.5865 -0.5849 0.5603
vn 0.5724 0.5735 0.5861
vn -0.5926 0.8053 -0.0189
vn 0.5926 0.8053 0.0189
vn 0.5926 -0.8053 -0.0189
vn -0.5926 -0.8053 0.0189
vn -0.5827 0.6003 0.5477
vn 0.0120 0.7192 -0.6947
vn 0.0121 -0.7192 0.6947
vn -0.0120 -0.7192 -0.6947
vn -0.0121 0.7192 0.6947
vn -0.0395 0.5457 0.8370
vn 0.0395 0.5455 -0.8372
vn -0.0398 -0.5462 -0.8367
vn 0.0398 -0.5459 0.8369
vn 0.0121 0.7192 -0.6947
vn -0.0121 -0.7192 -0.6947
vn -0.0120 0.7192 0.6947
vn 0.0395 0.5460 -0.8369
vn -0.0398 -0.5456 -0.8371
vn 0.0120 -0.7192 0.6947
vn 0.0394 0.5454 -0.8372
vn -0.0397 -0.5462 -0.8367
vn 0.0875 -0.5683 0.8181
vn -0.7963 -0.5259 -0.2988
vn 0.6162 -0.5689 -0.5447
vn 0.6404 0.5683 -0.5166
vn 0.0505 0.5689 0.8209
vn -0.7744 0.5259 -0.3517
vn -0.7963 -0.5259 -0.2989
vn 0.0874 -0.5683 0.8181
vn -0.5764 0.5750 -0.5807
vn 0.5764 -0.5750 -0.5807
vn -0.5787 -0.5793 -0.5740
vn 0.5787 -0.5793 0.5740
vn 0.5787 0.5793 -0.5740
vn 0.5764 0.5750 0.5807
vn -0.5764 -0.5750 0.5807
vn -0.5787 0.5793 0.5740
vn -0.5765 0.5742 -0.5813
vn 0.5765 -0.5742 -0.5813
vn -0.5789 -0.5796 -0.5736
vn 0.5789 -0.5796 0.5736
vn 0.5789 0.5796 -0.5736
vn 0.5765 0.5742 0.5813
vn -0.5765 -0.5742 0.5813
vn -0.5789 0.5796 0.5736
vn -0.2624 -0.6823 -0.6824
vn -0.7071 0.7071 0.0051
vn -0.7068 -0.7068 0.0287
vn 0.7071 0.7071 -0.0051
vn 0.7068 -0.7068 -0.0287
vn 0.2624 -0.6823 0.6824
vn 0.7071 -0.7071 0.0051
vn 0.7068 0.7068 0.0287
vn -0.7071 -0.7071 -0.0051
vn -0.7068 0.7068 -0.0287
vn 0.0003 0.5547 0.8321
vn 0.0003 0.7071 0.7071
vn 0.0001 0.2425 0.9701
vn 0.0101 0.0264 -0.9996
vn 0.0752 -0.9971 0.0148
vn 0.0318 0.9995 -0.0063
vn -0.0000 0.0047 1.0000
vn -0.0318 0.9995 0.0063
vn -0.0000 0.0047 -1.0000
vn -0.0101 0.0264 0.9996
vn -0.0752 -0.9971 -0.0148
vn -0.0000 0.9998 -0.0177
vn -0.0000 -0.9998 -0.0177
vn -0.0000 0.9998 0.0177
vn -0.0000 -0.9998 0.0177
vn -0.0000 1.0000 -0.0000
vn -0.7070 -0.0000 0.7072
vn -0.9138 -0.4062 -0.0000
vn 0.8813 -0.0000 -0.4726
vn 0.7070 -0.0000 -0.7072
vn 0.9138 -0.4062 -0.0000
vn 0.0110 -0.0110 0.9999
vn -0.0110 -0.0110 -0.9999
vn -0.8813 -0.0000 0.4726
vt 0.192812 0.741843
vt 0.192812 0.858461
vt 0.174669 0.858488
vt 0.174669 0.741870
vt 0.198962 0.237950
vt 0.199265 0.237949
vt 0.199265 0.238252
vt 0.010102 0.237949
vt 0.010406 0.237950
vt 0.010102 0.238253
vt 0.465493 0.005030
vt 0.465493 0.004726
vt 0.465796 0.005030
vt 0.406130 0.664201
vt 0.406494 0.664200
vt 0.406494 0.664504
vt 0.654656 0.213410
vt 0.654656 0.213713
vt 0.654353 0.213410
vt 0.010102 0.441560
vt 0.010102 0.441197
vt 0.010406 0.441257
vt 0.199265 0.436184
vt 0.198962 0.436185
vt 0.199265 0.435881
vt 0.010406 0.436185
vt 0.010102 0.436184
vt 0.010102 0.435881
vt 0.199266 0.441257
vt 0.199265 0.441560
vt 0.198962 0.441257
vt 0.465493 0.213713
vt 0.465493 0.213350
vt 0.465796 0.213410
vt 0.406494 0.853363
vt 0.406190 0.853364
vt 0.406494 0.853059
vt 0.654656 0.004726
vt 0.654656 0.005090
vt 0.654353 0.005029
vt 0.878860 0.872920
vt 0.882443 0.872643
vt 0.882287 0.872974
vt 0.864367 0.873452
vt 0.867952 0.873146
vt 0.867799 0.873453
vt 0.418930 0.658858
vt 0.607491 0.658701
vt 0.607498 0.659011
vt 0.607495 0.856779
vt 0.418934 0.856936
vt 0.418927 0.856626
vt 0.465664 0.009858
vt 0.797883 0.971997
vt 0.797664 0.983425
vt 0.797659 0.971999
vt 0.198962 0.232877
vt 0.199265 0.237786
vt 0.010406 0.232877
vt 0.010102 0.237781
vt 0.010102 0.232877
vt 0.394398 0.853059
vt 0.394701 0.664201
vt 0.394761 0.853364
vt 0.654545 0.009888
vt 0.465796 0.010102
vt 0.199265 0.436352
vt 0.654485 0.208582
vt 0.276817 0.969143
vt 0.276654 0.980574
vt 0.276648 0.969151
vt 0.010102 0.436347
vt 0.465604 0.208552
vt 0.654353 0.208337
vt 0.069280 0.852767
vt 0.069582 0.666897
vt 0.069643 0.853119
vt 0.081375 0.667147
vt 0.081071 0.853123
vt 0.081011 0.666901
vt 0.460318 0.004915
vt 0.460288 0.213410
vt 0.204412 0.441423
vt 0.199266 0.232937
vt 0.204390 0.232728
vt 0.659803 0.213576
vt 0.659670 0.005029
vt 0.004927 0.232762
vt 0.004977 0.441405
vt 0.991642 0.961591
vt 0.991827 0.975096
vt 0.991388 0.975096
vt 0.967490 0.627704
vt 0.967019 0.614198
vt 0.967478 0.614033
vt 0.567017 0.978361
vt 0.567202 0.991866
vt 0.566764 0.991866
vt 0.988549 0.586563
vt 0.988078 0.573058
vt 0.988537 0.572892
vt 0.988390 0.719615
vt 0.988868 0.733281
vt 0.988213 0.733281
vt 0.302945 0.993202
vt 0.302860 0.979530
vt 0.303269 0.979531
vt 0.989090 0.833948
vt 0.989612 0.847568
vt 0.989080 0.847568
vt 0.404699 0.994518
vt 0.404530 0.981012
vt 0.404939 0.981013
vt 0.989491 0.128987
vt 0.990013 0.142607
vt 0.989480 0.142608
vt 0.508098 0.994969
vt 0.507929 0.981465
vt 0.508338 0.981465
vt 0.135365 0.838878
vt 0.135672 0.852383
vt 0.135234 0.852383
vt 0.989442 0.429585
vt 0.989035 0.415848
vt 0.989458 0.416080
vt 0.232573 0.223017
vt 0.450361 0.004830
vt 0.450468 0.222921
vt 0.879600 0.223165
vt 0.879295 0.436916
vt 0.874770 0.436840
vt 0.875166 0.223166
vt 0.860370 0.441257
vt 0.860278 0.223362
vt 0.864908 0.223391
vt 0.869032 0.451012
vt 0.864671 0.665552
vt 0.864598 0.451012
vt 0.869197 0.665555
vt 0.232573 0.004869
vt 0.883492 0.451013
vt 0.878865 0.668996
vt 0.878860 0.451013
vt 0.222818 0.223017
vt 0.005029 0.004830
vt 0.222921 0.004922
vt 0.883401 0.668921
vt 0.864947 0.441257
vt 0.004927 0.222925
vt 0.620902 0.451321
vt 0.811898 0.649057
vt 0.620902 0.648940
vt 0.811933 0.451221
vt 0.450663 0.232771
vt 0.259741 0.433971
vt 0.259741 0.232729
vt 0.202491 0.451016
vt 0.202415 0.652105
vt 0.004735 0.652202
vt 0.450663 0.434013
vt 0.004726 0.451027
vt 0.651412 0.223362
vt 0.460338 0.424564
vt 0.460303 0.223378
vt 0.620902 0.659072
vt 0.809000 0.658908
vt 0.808963 0.856745
vt 0.620902 0.856690
vt 0.651447 0.424548
vt 0.212098 0.451126
vt 0.409267 0.451496
vt 0.409245 0.649328
vt 0.212059 0.648944
vt 0.752421 0.197046
vt 0.715601 0.197106
vt 0.715600 0.004930
vt 0.214187 0.232573
vt 0.250288 0.430163
vt 0.214187 0.430109
vt 0.250288 0.232627
vt 0.661300 0.223371
vt 0.850400 0.421257
vt 0.661224 0.421246
vt 0.419145 0.451157
vt 0.611307 0.451229
vt 0.611232 0.649104
vt 0.419069 0.649032
vt 0.752420 0.004870
vt 0.669321 0.004935
vt 0.706144 0.202564
vt 0.669324 0.202562
vt 0.706141 0.004877
vt 0.850476 0.223382
vt 0.761879 0.004728
vt 0.798695 0.004726
vt 0.798701 0.196700
vt 0.761882 0.196759
vt 0.867962 0.675525
vt 0.864367 0.873149
vt 0.864367 0.675521
vt 0.889052 0.409087
vt 0.889052 0.223463
vt 0.892477 0.223165
vt 0.884139 0.004726
vt 0.884077 0.004727
vt 0.884443 0.193585
vt 0.880714 0.193585
vt 0.880714 0.005029
vt 0.792850 0.971689
vt 0.833367 0.669783
vt 0.833367 0.855407
vt 0.821575 0.855403
vt 0.792552 0.983420
vt 0.792552 0.971992
vt 0.882452 0.678884
vt 0.878860 0.872622
vt 0.878860 0.678854
vt 0.892414 0.223194
vt 0.892780 0.409089
vt 0.069280 0.975253
vt 0.074190 0.986980
vt 0.069285 0.986676
vt 0.074493 0.975251
vt 0.074493 0.986677
vt 0.821628 0.669503
vt 0.833064 0.669484
vt 0.820249 0.213409
vt 0.808520 0.213713
vt 0.808157 0.213349
vt 0.406264 0.659099
vt 0.394701 0.658994
vt 0.690254 0.977040
vt 0.695068 0.988777
vt 0.690260 0.988466
vt 0.695366 0.977045
vt 0.695366 0.988474
vt 0.843123 0.854230
vt 0.843175 0.665418
vt 0.854612 0.665371
vt 0.271441 0.980576
vt 0.271440 0.969151
vt 0.271744 0.968847
vt 0.841816 0.209333
vt 0.830084 0.209648
vt 0.829721 0.209292
vt 0.081145 0.661858
vt 0.069582 0.661770
vt 0.854915 0.665675
vt 0.854915 0.854230
vt 0.069509 0.858122
vt 0.081071 0.858250
vt 0.854914 0.451095
vt 0.843122 0.655817
vt 0.843475 0.451071
vt 0.854562 0.655844
vt 0.394628 0.858465
vt 0.406328 0.858510
vt 0.833199 0.451201
vt 0.821574 0.659906
vt 0.821623 0.451080
vt 0.833141 0.659845
vt 0.942801 0.129103
vt 0.947389 0.180440
vt 0.942801 0.180239
vt 0.947414 0.128893
vt 0.950862 0.004961
vt 0.950890 0.046123
vt 0.946071 0.046155
vt 0.212125 0.805244
vt 0.252441 0.805366
vt 0.252410 0.856911
vt 0.946044 0.004993
vt 0.212129 0.856929
vt 0.896912 0.915489
vt 0.896940 0.956652
vt 0.892121 0.956684
vt 0.271499 0.744150
vt 0.312508 0.795800
vt 0.271504 0.795820
vt 0.312504 0.744130
vt 0.892094 0.915522
vt 0.939966 0.653698
vt 0.944790 0.653690
vt 0.944770 0.705237
vt 0.939945 0.705245
vt 0.510631 0.866509
vt 0.546398 0.866586
vt 0.546441 0.913277
vt 0.510622 0.913274
vt 0.330164 0.857501
vt 0.366631 0.857523
vt 0.366549 0.904287
vt 0.330164 0.904254
vt 0.758963 0.918051
vt 0.760272 0.967039
vt 0.758968 0.967094
vt 0.760291 0.918050
vt 0.967744 0.810397
vt 0.969068 0.810396
vt 0.969046 0.859385
vt 0.967757 0.859440
vt 0.701866 0.918039
vt 0.703174 0.967028
vt 0.701871 0.967082
vt 0.703193 0.918039
vt 0.968014 0.129000
vt 0.969317 0.177989
vt 0.968027 0.178043
vt 0.969339 0.128999
vt 0.770263 0.918051
vt 0.771591 0.918050
vt 0.771572 0.967039
vt 0.770268 0.967093
vt 0.212084 0.918122
vt 0.213409 0.918121
vt 0.213387 0.967110
vt 0.212097 0.967165
vt 0.795216 0.917889
vt 0.792576 0.961891
vt 0.792574 0.917891
vt 0.795218 0.961890
vt 0.775174 0.430915
vt 0.775255 0.438405
vt 0.772671 0.438378
vt 0.077107 0.867932
vt 0.077139 0.912128
vt 0.069382 0.912163
vt 0.963058 0.004777
vt 0.960442 0.048019
vt 0.960414 0.004781
vt 0.963027 0.048052
vt 0.738642 0.431038
vt 0.738835 0.438841
vt 0.736251 0.438817
vt 0.069350 0.867967
vt 0.736457 0.431002
vt 0.935352 0.879111
vt 0.927627 0.923342
vt 0.927595 0.879146
vt 0.935384 0.923307
vt 0.772735 0.430915
vt 0.004792 0.796824
vt 0.045078 0.848491
vt 0.004796 0.848509
vt 0.033685 0.914750
vt 0.033712 0.955911
vt 0.028894 0.955943
vt 0.045108 0.796946
vt 0.944907 0.879186
vt 0.949495 0.930523
vt 0.944907 0.930322
vt 0.949520 0.878976
vt 0.212117 0.744061
vt 0.253127 0.795712
vt 0.212122 0.795732
vt 0.028866 0.914782
vt 0.946887 0.821517
vt 0.946914 0.862679
vt 0.942096 0.862711
vt 0.253122 0.744041
vt 0.941714 0.549293
vt 0.946518 0.600831
vt 0.941694 0.600839
vt 0.946539 0.549284
vt 0.942069 0.821549
vt 0.465140 0.866509
vt 0.500950 0.913277
vt 0.465131 0.913274
vt 0.500907 0.866586
vt 0.004752 0.858159
vt 0.041137 0.904945
vt 0.004753 0.904913
vt 0.041220 0.858182
vt 0.713166 0.918039
vt 0.714494 0.918039
vt 0.714475 0.967028
vt 0.223110 0.918122
vt 0.224413 0.967110
vt 0.223123 0.967165
vt 0.224435 0.918121
vt 0.713171 0.967082
vt 0.234136 0.918122
vt 0.235439 0.967110
vt 0.234149 0.967164
vt 0.235461 0.918121
vt 0.690566 0.918039
vt 0.691893 0.918038
vt 0.691875 0.967028
vt 0.690570 0.967082
vt 0.724466 0.918039
vt 0.725794 0.918038
vt 0.725775 0.967028
vt 0.724471 0.967082
vt 0.968035 0.748674
vt 0.969360 0.748673
vt 0.969338 0.797663
vt 0.968048 0.797717
vt 0.316417 0.920738
vt 0.313801 0.963980
vt 0.313773 0.920741
vt 0.316385 0.964013
vt 0.750782 0.431038
vt 0.750975 0.438841
vt 0.748391 0.438817
vt 0.310552 0.866775
vt 0.302828 0.911006
vt 0.302795 0.866810
vt 0.872194 0.883134
vt 0.872227 0.927330
vt 0.864470 0.927365
vt 0.787314 0.430915
vt 0.784811 0.438378
vt 0.784876 0.430915
vt 0.748597 0.431002
vt 0.310585 0.910971
vt 0.807356 0.917889
vt 0.807358 0.961890
vt 0.804715 0.961891
vt 0.864437 0.883169
vt 0.804713 0.917891
vt 0.787395 0.438405
vt 0.330196 0.796236
vt 0.371206 0.847887
vt 0.330201 0.847907
vt 0.911313 0.915490
vt 0.906522 0.956684
vt 0.906495 0.915522
vt 0.371201 0.796216
vt 0.942151 0.058969
vt 0.946955 0.110508
vt 0.942130 0.110516
vt 0.946976 0.058961
vt 0.271506 0.805333
vt 0.311792 0.857000
vt 0.271511 0.857018
vt 0.911340 0.956652
vt 0.359097 0.914091
vt 0.354306 0.955285
vt 0.354278 0.914123
vt 0.311823 0.805455
vt 0.054825 0.797088
vt 0.059413 0.848425
vt 0.054825 0.848224
vt 0.059438 0.796878
vt 0.359124 0.955253
vt 0.620966 0.866507
vt 0.656733 0.866584
vt 0.656776 0.913275
vt 0.620956 0.913273
vt 0.418953 0.866511
vt 0.455338 0.913297
vt 0.418954 0.913264
vt 0.455421 0.866533
vt 0.735766 0.918039
vt 0.737094 0.918038
vt 0.737075 0.967028
vt 0.828996 0.918051
vt 0.830299 0.967039
vt 0.829009 0.967094
vt 0.830321 0.918050
vt 0.735771 0.967082
vt 0.781564 0.918051
vt 0.782892 0.918050
vt 0.782872 0.967039
vt 0.781569 0.967094
vt 0.302750 0.920888
vt 0.304053 0.969877
vt 0.302763 0.969931
vt 0.304075 0.920887
vt 0.245162 0.918122
vt 0.246487 0.918121
vt 0.246465 0.967110
vt 0.747067 0.918039
vt 0.748376 0.967028
vt 0.747072 0.967082
vt 0.245175 0.967165
vt 0.748394 0.918039
vt 0.402225 0.868258
vt 0.394501 0.912489
vt 0.394468 0.868293
vt 0.071945 0.921895
vt 0.071913 0.965170
vt 0.069329 0.965137
vt 0.799454 0.430915
vt 0.796952 0.438378
vt 0.797016 0.430915
vt 0.799536 0.438405
vt 0.402258 0.912454
vt 0.069301 0.921899
vt 0.936438 0.004955
vt 0.936470 0.049151
vt 0.928713 0.049186
vt 0.819495 0.917889
vt 0.819498 0.961890
vt 0.816855 0.961891
vt 0.816853 0.917891
vt 0.726502 0.431038
vt 0.724110 0.438817
vt 0.724317 0.431002
vt 0.726694 0.438841
vt 0.928681 0.004990
vt 0.059630 0.661770
vt 0.004928 0.721906
vt 0.005099 0.661769
vt 0.607062 0.866700
vt 0.607033 0.928003
vt 0.602400 0.928005
vt 0.059639 0.721910
vt 0.939320 0.353879
vt 0.943810 0.408490
vt 0.939320 0.408375
vt 0.384658 0.658989
vt 0.330155 0.720378
vt 0.330143 0.658988
vt 0.384756 0.720286
vt 0.943827 0.353777
vt 0.850087 0.925602
vt 0.850070 0.864193
vt 0.854703 0.864191
vt 0.602383 0.866597
vt 0.928611 0.129102
vt 0.933136 0.183714
vt 0.928611 0.183745
vt 0.933153 0.129001
vt 0.854720 0.925600
vt 0.054921 0.731584
vt 0.005021 0.787197
vt 0.005091 0.731583
vt 0.054921 0.787180
vt 0.379959 0.729945
vt 0.330155 0.786628
vt 0.330143 0.729945
vt 0.380042 0.786598
vt 0.956400 0.549392
vt 0.957728 0.549391
vt 0.957709 0.601740
vt 0.956988 0.129000
vt 0.958291 0.181349
vt 0.957001 0.181403
vt 0.958313 0.128999
vt 0.956405 0.601794
vt 0.954651 0.653797
vt 0.955960 0.706146
vt 0.954656 0.706200
vt 0.956550 0.059068
vt 0.957875 0.059067
vt 0.957853 0.111417
vt 0.955979 0.653796
vt 0.956563 0.111471
vt 0.198878 0.906155
vt 0.200203 0.906154
vt 0.200181 0.958503
vt 0.198891 0.958558
vt 0.956730 0.810396
vt 0.958057 0.810396
vt 0.958038 0.862745
vt 0.956735 0.862799
vt 0.201619 0.661800
vt 0.198958 0.725979
vt 0.198956 0.661801
vt 0.201621 0.725977
vt 0.763033 0.430915
vt 0.763125 0.438423
vt 0.760523 0.438395
vt 0.384153 0.857606
vt 0.384188 0.921966
vt 0.376391 0.922000
vt 0.058741 0.858264
vt 0.050979 0.922658
vt 0.050944 0.858298
vt 0.711962 0.438834
vt 0.714556 0.431061
vt 0.714564 0.438860
vt 0.760595 0.430915
vt 0.058776 0.922624
vt 0.711954 0.431035
vt 0.944692 0.748511
vt 0.942056 0.811529
vt 0.942028 0.748515
vt 0.944659 0.811562
vt 0.376356 0.857640
vt 0.271475 0.659245
vt 0.320464 0.734415
vt 0.271485 0.734353
vt 0.320491 0.659279
vt 0.925318 0.353900
vt 0.929767 0.353909
vt 0.929663 0.428956
vt 0.958354 0.748651
vt 0.954158 0.798771
vt 0.954158 0.748555
vt 0.212078 0.659249
vt 0.261969 0.734319
vt 0.212082 0.734335
vt 0.261966 0.659232
vt 0.927771 0.549495
vt 0.932032 0.549525
vt 0.931970 0.624463
vt 0.958255 0.798790
vt 0.384814 0.796196
vt 0.380717 0.846190
vt 0.380717 0.796196
vt 0.925319 0.428929
vt 0.384814 0.846209
vt 0.927771 0.624486
vt 0.090876 0.661905
vt 0.135683 0.732181
vt 0.090870 0.732156
vt 0.135689 0.661930
vt 0.145266 0.661903
vt 0.189278 0.661974
vt 0.189328 0.732185
vt 0.145260 0.732174
vt 0.939963 0.223368
vt 0.941130 0.223367
vt 0.941114 0.293521
vt 0.939966 0.293574
vt 0.942621 0.451216
vt 0.943768 0.521368
vt 0.942632 0.521421
vt 0.943786 0.451214
vt 0.985206 0.474310
vt 0.987266 0.474340
vt 0.987237 0.487276
vt 0.987593 0.676727
vt 0.989592 0.689692
vt 0.987561 0.689662
vt 0.989619 0.676756
vt 0.985177 0.487246
vt 0.987585 0.653833
vt 0.989645 0.653863
vt 0.989616 0.666799
vt 0.987555 0.666769
vt 0.704922 0.976919
vt 0.706948 0.976948
vt 0.706921 0.989884
vt 0.704890 0.989854
vt 0.871159 0.004949
vt 0.851371 0.095223
vt 0.851339 0.004986
vt 0.933115 0.451070
vt 0.933094 0.539479
vt 0.927822 0.539448
vt 0.927799 0.451078
vt 0.957773 0.193485
vt 0.957950 0.213361
vt 0.952677 0.213336
vt 0.966326 0.719472
vt 0.961113 0.738832
vt 0.961150 0.719472
vt 0.966386 0.738860
vt 0.871191 0.095186
vt 0.952874 0.193448
vt 0.871159 0.105122
vt 0.851371 0.195395
vt 0.851339 0.105159
vt 0.871191 0.195358
vt 0.125652 0.838618
vt 0.120340 0.928643
vt 0.120337 0.838620
vt 0.125655 0.928641
vt 0.165139 0.742077
vt 0.145260 0.860205
vt 0.145280 0.742084
vt 0.165120 0.860201
vt 0.556201 0.948564
vt 0.560761 0.948539
vt 0.560771 0.968486
vt 0.925190 0.343783
vt 0.930178 0.223505
vt 0.930191 0.343780
vt 0.932539 0.748813
vt 0.932552 0.869088
vt 0.927551 0.869091
vt 0.666568 0.948563
vt 0.671066 0.968482
vt 0.666582 0.968509
vt 0.556211 0.968511
vt 0.927538 0.748816
vt 0.110780 0.742017
vt 0.090906 0.862468
vt 0.090926 0.741994
vt 0.110760 0.862492
vt 0.671060 0.948536
vt 0.925177 0.223508
vt 0.939763 0.303428
vt 0.946941 0.333831
vt 0.939784 0.333857
vt 0.946921 0.303402
vt 0.954340 0.613896
vt 0.957566 0.613895
vt 0.957566 0.644143
vt 0.689690 0.431037
vt 0.689701 0.438214
vt 0.686499 0.438190
vt 0.954340 0.644144
vt 0.702420 0.431037
vt 0.702431 0.438214
vt 0.699228 0.438190
vt 0.699217 0.431014
vt 0.686488 0.431013
vt 0.941597 0.610386
vt 0.944874 0.640633
vt 0.941597 0.640633
vt 0.944874 0.610386
vt 0.580030 0.918090
vt 0.587048 0.918073
vt 0.587069 0.948511
vt 0.580053 0.948527
vt 0.935135 0.933246
vt 0.927644 0.957154
vt 0.927662 0.933234
vt 0.967380 0.513214
vt 0.967380 0.537403
vt 0.964122 0.537403
vt 0.935117 0.957168
vt 0.673813 0.431043
vt 0.676943 0.438517
vt 0.673809 0.438541
vt 0.661123 0.431043
vt 0.664312 0.431022
vt 0.664303 0.438519
vt 0.967210 0.415776
vt 0.963952 0.439965
vt 0.963952 0.415776
vt 0.661115 0.438541
vt 0.964122 0.513214
vt 0.676956 0.431020
vt 0.383895 0.931924
vt 0.376406 0.956297
vt 0.376424 0.931900
vt 0.383877 0.956321
vt 0.967210 0.439965
vt 0.930379 0.653643
vt 0.928075 0.738737
vt 0.928060 0.653646
vt 0.905924 0.818655
vt 0.905959 0.905551
vt 0.892153 0.905590
vt 0.930364 0.738775
vt 0.987392 0.451013
vt 0.985143 0.464443
vt 0.985164 0.451013
vt 0.134190 0.741975
vt 0.134226 0.828871
vt 0.120419 0.828910
vt 0.917821 0.818479
vt 0.917822 0.905156
vt 0.915504 0.905157
vt 0.987083 0.382070
vt 0.984973 0.395887
vt 0.985181 0.382031
vt 0.987262 0.395914
vt 0.120384 0.742014
vt 0.915502 0.818481
vt 0.987432 0.464475
vt 0.892117 0.818694
vt 0.165032 0.870147
vt 0.143562 0.897689
vt 0.143563 0.870159
vt 0.165031 0.897684
vt 0.330138 0.913856
vt 0.344774 0.913856
vt 0.344774 0.935003
vt 0.189384 0.906187
vt 0.174687 0.934282
vt 0.174682 0.906214
vt 0.556058 0.917845
vt 0.570468 0.938987
vt 0.556058 0.938992
vt 0.570468 0.917840
vt 0.189388 0.934255
vt 0.158092 0.907639
vt 0.158097 0.935707
vt 0.143395 0.935735
vt 0.293087 0.866797
vt 0.271623 0.894856
vt 0.271624 0.866774
vt 0.143391 0.907667
vt 0.293087 0.894878
vt 0.330138 0.935003
vt 0.902482 0.666100
vt 0.896876 0.665248
vt 0.893098 0.658952
vt 0.896812 0.652359
vt 0.904374 0.652439
vt 0.907828 0.658998
vt 0.906006 0.664175
vt 0.049537 0.947130
vt 0.045094 0.943414
vt 0.045159 0.936395
vt 0.051523 0.932400
vt 0.057898 0.936212
vt 0.057661 0.943548
vt 0.053496 0.947209
vt 0.716574 0.976887
vt 0.719119 0.976804
vt 0.719178 0.988573
vt 0.716634 0.988655
vt 0.758777 0.976897
vt 0.761330 0.988590
vt 0.758841 0.988668
vt 0.761277 0.976818
vt 0.521929 0.434214
vt 0.521136 0.436497
vt 0.520142 0.434213
vt 0.979280 0.434985
vt 0.976773 0.435025
vt 0.976733 0.416057
vt 0.982347 0.193634
vt 0.984854 0.193593
vt 0.984894 0.212561
vt 0.579536 0.434213
vt 0.579536 0.436257
vt 0.577749 0.436258
vt 0.031035 0.965908
vt 0.028856 0.984840
vt 0.028882 0.965868
vt 0.031009 0.984880
vt 0.982387 0.212603
vt 0.979240 0.416015
vt 0.577749 0.434213
vt 0.986159 0.353576
vt 0.987135 0.372213
vt 0.984982 0.372166
vt 0.976903 0.513494
vt 0.979450 0.532422
vt 0.976943 0.532463
vt 0.510125 0.434214
vt 0.510339 0.436519
vt 0.508155 0.436472
vt 0.508338 0.434213
vt 0.378507 0.966273
vt 0.378481 0.985244
vt 0.376328 0.985204
vt 0.201114 0.968158
vt 0.198894 0.986748
vt 0.198853 0.968157
vt 0.201047 0.986795
vt 0.979410 0.513453
vt 0.590775 0.434213
vt 0.588988 0.436258
vt 0.588988 0.434213
vt 0.590775 0.436257
vt 0.978505 0.738680
vt 0.975999 0.738721
vt 0.975959 0.719752
vt 0.978466 0.719711
vt 0.376353 0.966233
vt 0.286155 0.904792
vt 0.271458 0.932888
vt 0.271453 0.904820
vt 0.110672 0.872401
vt 0.110671 0.899939
vt 0.089202 0.899942
vt 0.666393 0.917843
vt 0.680802 0.938985
vt 0.666393 0.938990
vt 0.680802 0.917838
vt 0.286159 0.932861
vt 0.196316 0.868191
vt 0.174852 0.896250
vt 0.174854 0.868168
vt 0.196316 0.896273
vt 0.004726 0.914514
vt 0.019363 0.914514
vt 0.019363 0.935661
vt 0.004726 0.935661
vt 0.103731 0.909893
vt 0.089035 0.937989
vt 0.089031 0.909921
vt 0.089203 0.872414
vt 0.103736 0.937961
vt 0.902482 0.441426
vt 0.896876 0.440574
vt 0.893098 0.434278
vt 0.896812 0.427685
vt 0.904374 0.427765
vt 0.907828 0.434324
vt 0.906006 0.439501
vt 0.933863 0.208147
vt 0.929420 0.204430
vt 0.929485 0.197412
vt 0.935849 0.193417
vt 0.942225 0.197229
vt 0.941987 0.204564
vt 0.937822 0.208225
vt 0.741161 0.976886
vt 0.743661 0.976807
vt 0.743714 0.988578
vt 0.741225 0.988657
vt 0.728864 0.976887
vt 0.731408 0.976804
vt 0.731468 0.988573
vt 0.728923 0.988654
vt 0.879973 0.962717
vt 0.882520 0.981645
vt 0.880013 0.981686
vt 0.545537 0.434214
vt 0.545751 0.436519
vt 0.543568 0.436472
vt 0.917730 0.966371
vt 0.915510 0.984962
vt 0.915469 0.966371
vt 0.917663 0.985008
vt 0.882480 0.962676
vt 0.568297 0.434213
vt 0.566510 0.436258
vt 0.566510 0.434213
vt 0.582537 0.977420
vt 0.579991 0.958492
vt 0.582498 0.958451
vt 0.568297 0.436257
vt 0.905976 0.966648
vt 0.903797 0.985580
vt 0.903823 0.966608
vt 0.905950 0.985620
vt 0.543750 0.434213
vt 0.580030 0.977461
vt 0.557058 0.434213
vt 0.555271 0.436258
vt 0.555271 0.434213
vt 0.941937 0.437338
vt 0.939391 0.418410
vt 0.941897 0.418369
vt 0.557058 0.436257
vt 0.894263 0.966648
vt 0.892084 0.985580
vt 0.892109 0.966608
vt 0.928743 0.966864
vt 0.929719 0.985501
vt 0.927566 0.985454
vt 0.354297 0.965252
vt 0.356805 0.965211
vt 0.356844 0.984180
vt 0.533733 0.434214
vt 0.532940 0.436497
vt 0.531946 0.434213
vt 0.894237 0.985620
vt 0.354337 0.984221
vt 0.939430 0.437379
vt 0.758679 0.866601
vt 0.794572 0.908187
vt 0.758689 0.908240
vt 0.556066 0.866592
vt 0.592551 0.866600
vt 0.592514 0.908189
vt 0.556070 0.908230
vt 0.794613 0.866598
vt 0.120625 0.978596
vt 0.120524 0.938637
vt 0.121775 0.938654
vt 0.121773 0.978568
vt 0.945223 0.979518
vt 0.946270 0.940266
vt 0.946296 0.979518
vt 0.945122 0.940281
vt 0.212086 0.866672
vt 0.247979 0.908258
vt 0.212096 0.908311
vt 0.712530 0.866590
vt 0.749014 0.866598
vt 0.748978 0.908187
vt 0.712534 0.908229
vt 0.248020 0.866669
vt 0.979353 0.787913
vt 0.980400 0.748662
vt 0.980426 0.787913
vt 0.979252 0.748677
vt 0.969677 0.977877
vt 0.970828 0.937935
vt 0.970826 0.977849
vt 0.969576 0.937918
vt 0.666401 0.866590
vt 0.702848 0.908187
vt 0.666404 0.908229
vt 0.702885 0.866598
vt 0.804290 0.866601
vt 0.840184 0.908187
vt 0.804300 0.908240
vt 0.840225 0.866598
vt 0.980375 0.918323
vt 0.981422 0.879071
vt 0.981448 0.918323
vt 0.131757 0.978596
vt 0.132907 0.938654
vt 0.132905 0.978568
vt 0.131656 0.938637
vt 0.980273 0.879086
vt 0.496400 0.436044
vt 0.497437 0.434370
vt 0.498428 0.436056
vt 0.915447 0.413705
vt 0.914020 0.413923
vt 0.913926 0.223469
vt 0.915527 0.223305
vt 0.903741 0.413855
vt 0.902233 0.223467
vt 0.903498 0.223297
vt 0.902233 0.413699
vt 0.894663 0.641605
vt 0.893221 0.641751
vt 0.893450 0.451316
vt 0.462313 0.435014
vt 0.461863 0.436785
vt 0.460306 0.435399
vt 0.894783 0.451316
vt 0.895504 0.195318
vt 0.894290 0.005029
vt 0.895623 0.005029
vt 0.894062 0.195465
vt 0.484505 0.436044
vt 0.485543 0.434370
vt 0.486534 0.436056
vt 0.906386 0.641702
vt 0.904877 0.641546
vt 0.904877 0.451314
vt 0.907466 0.195266
vt 0.906040 0.195483
vt 0.905946 0.005030
vt 0.906143 0.451144
vt 0.474387 0.435014
vt 0.473937 0.436785
vt 0.472380 0.435399
vt 0.907546 0.004866
vt 0.892168 0.748591
vt 0.917963 0.808872
vt 0.892194 0.808893
vt 0.092867 0.947920
vt 0.092897 0.974270
vt 0.089089 0.974309
vt 0.917938 0.748571
vt 0.928737 0.058994
vt 0.932477 0.119219
vt 0.928707 0.119198
vt 0.892163 0.678675
vt 0.918471 0.738903
vt 0.892189 0.738959
vt 0.089058 0.947959
vt 0.918445 0.678618
vt 0.257786 0.866583
vt 0.261587 0.926810
vt 0.257755 0.926787
vt 0.158392 0.945666
vt 0.158423 0.972016
vt 0.154614 0.972054
vt 0.261617 0.866607
vt 0.154583 0.945704
vt 0.932510 0.059016
vt 0.271606 0.942820
vt 0.282800 0.959142
vt 0.271614 0.959158
vt 0.812771 0.971835
vt 0.812777 0.983335
vt 0.807357 0.983302
vt 0.282798 0.942803
vt 0.967452 0.193356
vt 0.972824 0.209427
vt 0.967452 0.209429
vt 0.940020 0.722474
vt 0.951436 0.738776
vt 0.940024 0.738807
vt 0.951432 0.722441
vt 0.972824 0.193354
vt 0.319187 0.973878
vt 0.319193 0.985379
vt 0.313774 0.985345
vt 0.807351 0.971802
vt 0.044285 0.956725
vt 0.049742 0.972799
vt 0.044285 0.972799
vt 0.049742 0.956725
vt 0.313768 0.973845
vt 0.592195 0.958515
vt 0.592597 0.958515
vt 0.592494 0.972020
vt 0.878860 0.678556
vt 0.864367 0.675218
vt 0.797823 0.983488
vt 0.833064 0.669455
vt 0.394398 0.664504
vt 0.276817 0.980636
vt 0.069280 0.667143
vt 0.081375 0.852771
vt 0.917552 0.651444
vt 0.918127 0.651612
vt 0.917635 0.665117
vt 0.653431 0.992927
vt 0.653006 0.993161
vt 0.653243 0.979421
vt 0.988477 0.059171
vt 0.989081 0.059170
vt 0.988426 0.072675
vt 0.394642 0.994734
vt 0.394497 0.994517
vt 0.394849 0.981013
vt 0.988315 0.549495
vt 0.988918 0.549494
vt 0.988717 0.562999
vt 0.993191 0.327038
vt 0.993067 0.326805
vt 0.993387 0.313301
vt 0.990304 0.771829
vt 0.990705 0.771829
vt 0.990469 0.785334
vt 0.988742 0.096240
vt 0.988241 0.096239
vt 0.988682 0.082618
vt 0.989209 0.513517
vt 0.989813 0.513517
vt 0.989158 0.527022
vt 0.994661 0.207076
vt 0.994515 0.206859
vt 0.994868 0.193355
vt 0.989376 0.824004
vt 0.988772 0.824004
vt 0.989427 0.810499
vt 0.884140 0.193887
vt 0.884443 0.005030
vt 0.833002 0.855677
vt 0.792909 0.983784
vt 0.892478 0.409334
vt 0.892780 0.223464
vt 0.074129 0.974888
vt 0.820256 0.005090
vt 0.819945 0.213712
vt 0.808467 0.004727
vt 0.819893 0.004726
vt 0.808164 0.005030
vt 0.695009 0.976681
vt 0.271805 0.980939
vt 0.841814 0.005082
vt 0.841513 0.209631
vt 0.830022 0.004743
vt 0.841450 0.004726
vt 0.829718 0.005041
vt 0.854549 0.854533
s 1
usemtl public_001_baked
f 3/1/1 1/2/1 2/3/1
f 3/1/1 2/3/1 4/4/1
f 33/5/2 35/6/3 32/7/2
f 42/8/4 44/9/4 45/10/4
f 46/11/5 48/12/5 49/13/5
f 51/14/6 53/15/6 50/16/6
f 55/17/7 57/18/7 58/19/7
f 60/20/8 62/21/8 59/22/8
f 65/23/3 67/24/3 68/25/3
f 70/26/9 72/27/4 69/28/9
f 73/29/10 75/30/10 76/31/10
f 78/32/11 80/33/11 77/34/11
f 81/35/12 83/36/12 84/37/12
f 86/38/13 88/39/13 85/40/13
f 65/41/14 36/42/14 37/43/14
f 33/5/2 68/25/2 67/24/2
f 42/44/15 30/45/15 31/46/15
f 70/26/9 45/10/9 44/9/9
f 38/47/16 31/48/17 30/49/18
f 29/50/19 37/51/20 36/52/21
f 40/53/22 46/11/23 49/13/23
f 41/54/24 34/55/24 40/56/24
f 50/57/25 34/58/25 33/5/25
f 84/59/26 43/60/26 81/61/26
f 85/62/27 48/63/27 86/64/27
f 50/16/28 83/36/28 51/14/28
f 39/65/29 41/66/30 40/53/31
f 76/31/32 66/67/32 73/29/32
f 63/68/33 55/17/34 58/19/34
f 64/69/35 71/70/35 63/71/35
f 59/22/36 71/72/36 70/26/36
f 54/73/37 64/74/38 63/68/39
f 77/75/40 57/76/40 78/77/40
f 59/78/41 75/79/41 60/80/41
f 47/81/42 80/33/43 79/82/44
f 74/83/45 53/84/46 52/85/47
f 56/86/48 88/39/49 87/87/50
f 82/88/51 62/21/52 61/89/53
f 301/90/54 300/91/54 299/92/54
f 301/93/54 299/94/54 300/95/54
f 304/96/54 303/97/54 302/98/54
f 304/99/54 302/100/54 303/101/54
f 305/102/54 306/103/54 307/104/54
f 305/105/54 307/106/54 306/107/54
f 353/108/54 352/109/54 351/110/54
f 353/111/54 351/112/54 352/113/54
f 355/114/54 354/115/54 356/116/54
f 355/117/54 356/118/54 354/119/54
f 357/120/54 359/121/54 358/122/54
f 357/123/54 358/124/54 359/125/54
f 10/126/55 6/127/56 5/128/57
f 5/129/57 6/130/56 11/131/58
f 5/129/57 11/131/58 8/132/59
f 10/133/55 5/134/57 8/135/59
f 6/136/56 12/137/60 11/138/58
f 6/136/56 9/139/61 12/137/60
f 10/126/55 9/140/61 6/127/56
f 9/141/61 7/142/62 12/143/60
f 8/144/59 12/145/60 7/146/62
f 9/141/61 10/147/55 7/142/62
f 10/133/55 8/135/59 7/148/62
f 8/144/59 11/149/58 12/145/60
f 13/150/63 20/151/64 14/152/65
f 13/150/63 18/153/66 20/151/64
f 13/154/63 17/155/67 18/156/66
f 15/157/68 13/158/63 14/159/65
f 13/154/63 15/160/68 17/155/67
f 15/157/68 14/159/65 16/161/69
f 20/162/64 16/163/69 14/164/65
f 17/165/67 15/166/68 16/167/69
f 17/165/67 16/167/69 19/168/70
f 20/162/64 19/169/70 16/163/69
f 18/170/66 17/171/67 19/172/70
f 18/170/66 19/172/70 20/173/64
f 22/174/71 21/175/72 27/176/73
f 24/177/74 21/178/72 22/179/71
f 24/177/74 28/180/75 21/178/72
f 28/181/76 27/182/76 21/183/76
f 25/184/77 24/185/77 22/186/77
f 25/184/77 22/186/77 26/187/77
f 22/174/71 27/176/73 26/188/78
f 23/189/79 26/190/78 27/191/73
f 23/189/79 25/192/80 26/190/78
f 28/181/76 23/193/76 27/182/76
f 25/194/80 23/195/79 28/196/75
f 25/194/80 28/196/75 24/197/74
f 29/198/81 45/199/82 69/200/83
f 29/198/81 30/45/84 45/199/82
f 37/201/20 29/202/19 72/203/85
f 30/49/84 29/50/81 36/52/86
f 35/204/87 34/205/87 44/206/87
f 31/207/17 38/208/16 35/204/88
f 30/49/84 36/52/86 38/47/89
f 50/57/90 33/5/90 44/9/90
f 33/5/90 70/26/90 44/9/90
f 46/209/91 40/56/92 34/55/93
f 44/210/94 33/211/76 41/212/30
f 51/213/1 48/214/1 34/55/93
f 38/215/89 68/216/95 32/217/96
f 33/5/90 67/24/90 70/26/90
f 38/215/89 36/42/86 68/216/95
f 72/203/97 71/218/97 67/219/97
f 39/220/98 81/221/99 43/222/100
f 39/220/98 86/223/101 83/224/102
f 41/212/30 39/225/29 42/226/103
f 85/40/104 39/65/105 40/53/22
f 85/40/104 40/53/22 49/13/23
f 50/57/90 44/9/90 84/59/90
f 86/64/77 48/63/77 51/14/77
f 46/227/106 51/228/106 53/229/106
f 48/63/107 52/230/107 51/14/107
f 48/63/108 47/231/42 52/230/47
f 86/64/77 51/14/77 83/36/77
f 54/232/109 73/233/110 66/234/111
f 54/232/109 78/235/112 75/236/113
f 64/237/38 54/238/37 65/239/114
f 63/68/33 77/34/115 54/73/116
f 60/240/106 57/241/106 71/70/117
f 55/242/118 63/71/119 71/70/117
f 78/77/76 57/76/76 60/80/76
f 55/243/1 60/244/1 62/245/1
f 63/68/33 58/19/34 77/34/115
f 57/76/120 61/246/120 60/80/120
f 57/76/121 56/247/48 61/246/53
f 67/24/90 59/22/90 70/26/90
f 78/77/76 60/80/76 75/79/76
f 67/24/90 76/31/90 59/22/90
f 67/248/122 70/249/77 64/237/38
f 79/250/123 78/77/123 75/79/123
f 79/250/44 75/79/124 74/251/45
f 47/252/42 74/253/45 52/254/47
f 47/252/42 79/255/44 74/253/45
f 87/256/125 86/64/125 83/36/125
f 87/256/50 83/36/126 82/257/51
f 56/258/48 82/259/51 61/260/53
f 56/258/48 87/261/50 82/259/51
f 89/262/127 92/263/128 90/264/129
f 89/262/127 91/265/130 92/263/128
f 95/266/131 91/267/130 89/268/127
f 96/269/132 89/270/127 90/271/129
f 95/266/131 89/268/127 96/272/132
f 96/269/132 90/271/129 93/273/133
f 93/274/133 90/275/129 92/276/128
f 91/277/130 94/278/134 92/279/128
f 91/277/130 95/280/131 94/278/134
f 93/274/133 92/276/128 94/281/134
f 95/282/131 96/283/132 93/284/133
f 95/282/131 93/284/133 94/285/134
f 98/286/135 97/287/136 100/288/137
f 98/286/135 100/288/137 99/289/138
f 97/290/136 98/291/135 99/292/138
f 97/290/136 99/292/138 100/293/137
f 102/294/139 104/295/140 101/296/141
f 102/294/139 103/297/142 104/295/140
f 103/298/142 102/299/139 101/300/141
f 103/298/142 101/300/141 104/301/140
f 105/302/139 108/303/140 106/304/141
f 105/302/139 107/305/142 108/303/140
f 107/306/142 106/307/141 108/308/140
f 107/306/142 105/309/139 106/307/141
f 111/310/143 109/311/142 110/312/140
f 111/310/143 110/312/140 112/313/141
f 109/314/142 111/315/143 112/316/141
f 109/314/142 112/316/141 110/317/140
f 113/318/144 120/319/145 117/320/146
f 113/318/144 119/321/147 120/319/145
f 116/322/148 113/323/144 117/324/146
f 119/325/149 113/326/150 116/327/151
f 114/328/152 118/329/153 115/330/154
f 114/328/152 116/331/148 118/329/153
f 119/332/147 114/333/152 115/334/154
f 119/325/149 116/327/151 114/335/155
f 119/332/147 115/334/154 120/336/145
f 115/337/156 117/338/157 120/339/158
f 115/337/156 118/340/159 117/338/157
f 116/322/148 117/324/146 118/341/153
f 126/342/132 121/343/129 127/344/133
f 127/345/133 121/346/129 122/347/128
f 126/342/132 124/348/127 121/343/129
f 124/349/127 122/350/128 121/351/129
f 124/349/127 125/352/130 122/350/128
f 125/353/130 128/354/134 122/355/128
f 127/345/133 122/347/128 128/356/134
f 123/357/131 125/358/130 124/359/127
f 125/353/130 123/360/131 128/354/134
f 123/361/131 127/362/133 128/363/134
f 123/361/131 126/364/132 127/362/133
f 123/357/131 124/359/127 126/365/132
f 130/366/135 132/367/137 131/368/138
f 130/366/135 129/369/136 132/367/137
f 129/370/136 131/371/138 132/372/137
f 129/370/136 130/373/135 131/371/138
f 135/374/139 133/375/142 134/376/140
f 133/377/142 136/378/141 134/379/140
f 133/377/142 135/380/139 136/378/141
f 135/374/139 134/376/140 136/381/141
f 137/382/142 139/383/141 138/384/140
f 137/382/142 140/385/139 139/383/141
f 140/386/139 137/387/142 138/388/140
f 140/386/139 138/388/140 139/389/141
f 144/390/143 141/391/142 142/392/140
f 144/390/143 142/392/140 143/393/141
f 141/394/142 144/395/143 143/396/141
f 141/394/142 143/396/141 142/397/140
f 145/398/152 146/399/153 148/400/154
f 145/398/152 150/401/148 146/399/153
f 147/402/147 145/403/152 148/404/154
f 147/405/149 150/406/151 145/407/155
f 148/408/156 146/409/159 152/410/157
f 150/411/148 152/412/146 146/413/153
f 147/402/147 148/404/154 149/414/145
f 147/405/149 151/415/150 150/406/151
f 151/416/144 147/417/147 149/418/145
f 148/408/156 152/410/157 149/419/158
f 151/416/144 149/418/145 152/420/146
f 150/411/148 151/421/144 152/412/146
f 157/422/130 153/423/134 160/424/128
f 154/425/133 160/426/128 153/427/134
f 157/422/130 156/428/131 153/423/134
f 156/429/131 154/430/133 153/431/134
f 156/429/131 158/432/132 154/430/133
f 158/433/132 159/434/129 154/435/133
f 154/425/133 159/436/129 160/426/128
f 156/437/131 155/438/127 158/439/132
f 158/433/132 155/440/127 159/434/129
f 155/441/127 160/442/128 159/443/129
f 155/441/127 157/444/130 160/442/128
f 156/437/131 157/445/130 155/438/127
f 161/446/160 162/447/136 164/448/137
f 161/446/160 164/448/137 163/449/138
f 162/450/136 163/451/138 164/452/137
f 162/450/136 161/453/160 163/451/138
f 167/454/139 165/455/142 166/456/140
f 165/457/142 168/458/141 166/459/140
f 165/457/142 167/460/139 168/458/141
f 167/454/139 166/456/140 168/461/141
f 169/462/139 170/463/142 171/464/140
f 169/462/139 171/464/140 172/465/141
f 170/466/142 172/467/141 171/468/140
f 170/466/142 169/469/139 172/467/141
f 176/470/161 173/471/162 174/472/163
f 173/473/162 175/474/164 174/475/163
f 176/470/161 174/472/163 175/476/164
f 173/473/162 176/477/161 175/474/164
f 180/478/149 177/479/151 182/480/155
f 182/481/152 177/482/148 178/483/153
f 177/484/148 184/485/146 178/486/153
f 177/484/148 179/487/144 184/485/146
f 180/478/149 179/488/150 177/479/151
f 182/481/152 178/483/153 183/489/154
f 183/490/156 178/491/159 184/492/157
f 179/493/144 180/494/147 181/495/145
f 179/493/144 181/495/145 184/496/146
f 180/497/147 183/498/154 181/499/145
f 180/497/147 182/500/152 183/498/154
f 183/490/156 184/492/157 181/501/158
f 191/502/165 185/503/166 189/504/167
f 189/505/167 185/506/166 187/507/168
f 191/502/165 190/508/169 185/503/166
f 190/509/169 187/510/168 185/511/166
f 186/512/170 192/513/171 187/514/168
f 186/512/170 188/515/172 192/513/171
f 190/509/169 186/516/170 187/510/168
f 188/517/172 186/518/170 190/519/169
f 189/505/167 187/507/168 192/520/171
f 188/521/172 189/522/167 192/523/171
f 188/521/172 191/524/165 189/522/167
f 188/517/172 190/519/169 191/525/165
f 194/526/173 196/527/174 195/528/175
f 194/526/173 193/529/176 196/527/174
f 193/530/176 195/531/175 196/532/174
f 193/530/176 194/533/173 195/531/175
f 200/534/177 197/535/178 198/536/179
f 197/537/178 199/538/180 198/539/179
f 197/537/178 200/540/177 199/538/180
f 200/534/177 198/536/179 199/541/180
f 202/542/181 204/543/182 201/544/183
f 203/545/184 202/546/181 201/547/183
f 202/542/181 203/548/184 204/543/182
f 203/545/184 201/547/183 204/549/182
f 206/550/185 207/551/186 205/552/187
f 206/550/185 205/552/187 208/553/188
f 207/554/186 206/555/185 208/556/188
f 207/554/186 208/556/188 205/557/187
f 209/558/189 210/559/190 211/560/191
f 209/558/189 215/561/192 210/559/190
f 214/562/193 209/563/189 211/564/191
f 215/565/194 209/566/195 214/567/195
f 213/568/196 211/569/197 210/570/196
f 215/571/192 213/572/198 210/573/190
f 214/562/193 211/564/191 216/574/199
f 213/568/196 216/575/197 211/569/197
f 215/571/192 212/576/200 213/572/198
f 212/577/200 216/578/199 213/579/198
f 212/577/200 214/580/193 216/578/199
f 215/565/194 214/567/195 212/581/194
f 217/582/201 224/583/202 221/584/203
f 217/582/201 222/585/204 224/583/202
f 220/586/205 217/587/201 221/588/203
f 220/589/205 222/590/204 217/591/201
f 218/592/206 219/593/207 223/594/208
f 218/592/206 220/595/205 219/593/207
f 222/596/204 218/597/206 223/598/208
f 220/589/205 218/599/206 222/590/204
f 221/600/203 223/601/208 219/602/207
f 220/586/205 221/588/203 219/603/207
f 221/600/203 224/604/202 223/601/208
f 222/596/204 223/598/208 224/605/202
f 225/606/209 228/607/210 226/608/211
f 225/606/209 227/609/212 228/607/210
f 227/610/212 225/611/209 226/612/211
f 227/610/212 226/612/211 228/613/210
f 230/614/213 231/615/214 229/616/215
f 230/614/213 229/616/215 232/617/216
f 231/618/214 232/619/216 229/620/215
f 231/618/214 230/621/213 232/619/216
f 235/622/217 233/623/218 234/624/219
f 233/625/218 236/626/220 234/627/219
f 233/625/218 235/628/217 236/626/220
f 235/622/217 234/624/219 236/629/220
f 239/630/221 237/631/218 238/632/219
f 239/630/221 238/632/219 240/633/222
f 237/634/218 239/635/221 240/636/222
f 237/634/218 240/636/222 238/637/219
f 247/638/223 242/639/224 241/640/225
f 241/641/226 242/642/227 248/643/228
f 241/641/226 248/643/228 243/644/229
f 247/645/230 241/646/226 243/647/229
f 242/648/227 245/649/231 248/650/228
f 242/648/227 246/651/232 245/649/231
f 247/638/223 246/652/233 242/639/224
f 247/645/230 243/647/229 244/653/234
f 243/654/235 245/655/236 244/656/237
f 243/654/235 248/657/238 245/655/236
f 246/658/232 244/659/234 245/660/231
f 246/658/232 247/661/230 244/659/234
f 249/662/239 250/663/240 251/664/241
f 249/662/239 255/665/242 250/663/240
f 254/666/243 249/667/244 251/668/245
f 254/669/243 255/670/246 249/671/244
f 251/672/245 250/673/247 256/674/248
f 255/675/246 256/676/248 250/677/247
f 254/666/243 251/668/245 253/678/249
f 251/672/245 256/674/248 253/679/249
f 252/680/250 253/681/251 256/682/252
f 252/680/250 254/683/253 253/681/251
f 255/675/246 252/684/254 256/676/248
f 254/669/243 252/685/254 255/670/246
f 257/686/255 264/687/256 258/688/257
f 257/686/255 259/689/258 264/687/256
f 260/690/259 257/691/255 258/692/257
f 259/693/258 257/694/255 260/695/259
f 260/690/259 258/692/257 262/696/260
f 263/697/261 262/698/260 258/699/257
f 263/697/261 258/699/257 264/700/256
f 259/693/258 260/695/259 261/701/262
f 259/702/258 263/703/261 264/704/256
f 259/702/258 261/705/262 263/703/261
f 261/706/262 260/707/259 262/708/260
f 261/706/262 262/708/260 263/709/261
f 266/710/263 265/711/264 267/712/265
f 267/713/265 265/714/264 269/715/266
f 266/710/263 271/716/267 265/711/264
f 271/717/267 269/718/266 265/719/264
f 270/720/268 266/721/263 267/722/265
f 270/723/268 271/724/267 266/725/263
f 270/720/268 267/722/265 272/726/269
f 267/713/265 269/715/266 272/727/269
f 271/717/267 268/728/270 269/718/266
f 268/729/270 272/730/269 269/731/266
f 268/729/270 270/732/268 272/730/269
f 270/723/268 268/733/270 271/724/267
f 278/734/271 273/735/272 279/736/273
f 279/737/237 273/738/238 280/739/238
f 278/734/271 277/740/274 273/735/272
f 277/741/274 280/742/275 273/743/272
f 274/744/225 275/745/233 277/746/233
f 275/747/276 274/748/277 276/749/278
f 274/750/277 279/751/273 276/752/278
f 274/750/277 278/753/271 279/751/273
f 274/744/225 277/746/233 278/754/225
f 275/747/276 276/749/278 280/755/275
f 277/741/274 275/756/276 280/742/275
f 279/737/237 280/739/238 276/757/237
f 281/758/279 287/759/280 286/760/281
f 281/758/279 282/761/282 287/759/280
f 284/762/283 281/763/279 286/764/281
f 284/765/283 282/766/282 281/767/279
f 282/768/282 283/769/284 287/770/280
f 282/768/282 285/771/285 283/769/284
f 284/765/283 285/772/285 282/766/282
f 286/773/281 287/774/280 283/775/284
f 285/776/285 288/777/286 283/778/284
f 286/773/281 283/775/284 288/779/286
f 285/776/285 284/780/283 288/777/286
f 284/762/283 286/764/281 288/781/286
f 291/782/287 289/783/288 290/784/289
f 291/782/287 290/784/289 294/785/290
f 291/782/287 294/785/290 293/786/291
f 291/782/287 293/786/291 292/787/292
f 291/782/287 292/787/292 295/788/293
f 295/789/293 292/790/292 293/791/291
f 295/789/293 293/791/291 294/792/290
f 295/789/293 294/792/290 290/793/289
f 295/789/293 290/793/289 289/794/288
f 295/789/293 289/794/288 291/795/287
f 317/796/294 314/797/295 315/798/296
f 317/796/294 315/798/296 316/799/297
f 314/800/295 316/801/297 315/802/296
f 314/800/295 317/803/294 316/801/297
f 320/804/298 318/805/299 321/806/300
f 321/807/300 318/808/299 324/809/301
f 319/810/302 323/811/303 318/812/299
f 323/813/303 319/814/302 322/815/304
f 319/816/302 321/817/300 322/818/304
f 319/816/302 320/819/298 321/817/300
f 319/810/302 318/812/299 320/820/298
f 321/807/300 324/809/301 322/821/304
f 323/813/303 322/815/304 324/822/301
f 318/823/299 323/824/303 324/825/301
f 330/826/305 326/827/306 325/828/307
f 325/829/307 326/830/306 331/831/308
f 325/829/307 331/831/308 329/832/309
f 330/833/305 325/834/307 329/835/309
f 326/836/306 328/837/310 331/838/308
f 326/836/306 327/839/311 328/837/310
f 330/826/305 327/840/311 326/827/306
f 327/841/311 332/842/304 328/843/310
f 327/841/311 330/844/305 332/842/304
f 329/845/309 331/846/308 328/847/310
f 329/845/309 328/847/310 332/848/304
f 330/833/305 329/835/309 332/849/304
f 338/850/283 333/851/282 339/852/279
f 339/853/279 333/854/282 337/855/280
f 333/856/282 336/857/284 337/858/280
f 333/856/282 334/859/285 336/857/284
f 338/850/283 334/860/285 333/851/282
f 334/861/285 340/862/286 336/863/284
f 334/861/285 338/864/283 340/862/286
f 338/865/283 339/866/279 335/867/281
f 338/865/283 335/867/281 340/868/286
f 335/869/281 336/870/284 340/871/286
f 339/853/279 337/855/280 335/872/281
f 335/869/281 337/873/280 336/870/284
f 343/874/287 347/875/288 346/876/289
f 343/874/287 346/876/289 341/877/290
f 343/874/287 341/877/290 342/878/291
f 343/874/287 342/878/291 344/879/292
f 343/874/287 344/879/292 345/880/293
f 345/881/293 344/882/292 342/883/291
f 345/881/293 342/883/291 341/884/290
f 345/881/293 341/884/290 346/885/289
f 345/881/293 346/885/289 347/886/288
f 345/881/293 347/886/288 343/887/287
f 368/888/312 366/889/313 367/890/314
f 368/888/312 367/890/314 369/891/315
f 366/892/313 368/893/312 369/894/315
f 366/892/313 369/894/315 367/895/314
f 375/896/305 370/897/306 372/898/307
f 372/899/307 370/900/306 376/901/308
f 370/902/306 377/903/310 376/904/308
f 370/902/306 374/905/311 377/903/310
f 375/896/305 374/906/311 370/897/306
f 374/907/311 371/908/304 377/909/310
f 373/910/309 377/911/310 371/912/304
f 374/907/311 375/913/305 371/908/304
f 375/914/305 373/915/309 371/916/304
f 375/914/305 372/917/307 373/915/309
f 372/899/307 376/901/308 373/918/309
f 373/910/309 376/919/308 377/911/310
f 379/920/303 378/921/304 384/922/301
f 383/923/300 384/924/301 378/925/304
f 379/920/303 382/926/316 378/921/304
f 382/927/316 383/928/300 378/929/304
f 381/930/299 379/931/303 384/932/301
f 382/933/316 379/934/303 381/935/299
f 380/936/298 381/937/299 383/938/300
f 382/927/316 380/939/298 383/928/300
f 382/933/316 381/935/299 380/940/298
f 383/923/300 381/941/299 384/924/301
f 386/942/317 388/943/318 385/944/319
f 387/945/320 386/946/317 385/947/319
f 387/945/320 385/947/319 388/948/318
f 386/942/317 387/949/320 388/943/318
f 391/950/321 392/951/322 389/952/323
f 391/950/321 389/952/323 390/953/324
f 392/954/322 390/955/324 389/956/323
f 392/954/322 391/957/321 390/955/324
f 394/958/325 395/959/318 393/960/326
f 396/961/327 394/962/325 393/963/326
f 396/961/327 393/963/326 395/964/318
f 394/958/325 396/965/327 395/959/318
f 397/966/328 398/967/324 400/968/329
f 397/966/328 399/969/321 398/967/324
f 399/970/321 400/971/329 398/972/324
f 399/970/321 397/973/328 400/971/329
f 401/974/320 404/975/326 403/976/330
f 401/974/320 402/977/317 404/975/326
f 402/978/317 403/979/330 404/980/326
f 402/978/317 401/981/320 403/979/330
f 408/982/331 407/983/324 405/984/332
f 406/985/321 405/986/332 407/987/324
f 406/985/321 408/988/331 405/986/332
f 408/982/331 406/989/321 407/983/324
f 409/990/333 414/991/334 410/992/335
f 409/993/333 410/994/335 411/995/336
f 409/993/333 411/995/336 413/996/337
f 410/997/335 412/998/338 411/999/336
f 410/997/335 414/1000/334 412/998/338
f 414/1001/334 409/1002/333 413/1003/337
f 411/1004/336 412/1005/338 413/1006/337
f 414/1001/334 413/1003/337 412/1007/338
f 415/1008/339 418/1009/337 419/1010/338
f 415/1008/339 420/1011/340 418/1009/337
f 420/1012/340 415/1013/339 416/1014/335
f 416/1015/335 415/1016/339 419/1017/338
f 420/1018/340 416/1019/335 417/1020/336
f 416/1015/335 419/1017/338 417/1021/336
f 417/1022/336 419/1023/338 418/1024/337
f 420/1018/340 417/1020/336 418/1025/337
f 428/1026/341 421/1027/342 424/1028/343
f 424/1029/343 421/1030/342 427/1031/344
f 428/1026/341 425/1032/345 421/1027/342
f 425/1033/345 427/1034/344 421/1035/342
f 426/1036/346 422/1037/347 427/1038/344
f 424/1029/343 427/1031/344 422/1039/347
f 426/1036/346 423/1040/348 422/1037/347
f 423/1041/348 424/1042/343 422/1043/347
f 423/1044/348 426/1045/346 425/1046/345
f 423/1041/348 428/1047/341 424/1042/343
f 423/1044/348 425/1046/345 428/1048/341
f 425/1033/345 426/1049/346 427/1034/344
f 435/1050/349 429/1051/350 433/1052/351
f 433/1053/351 429/1054/350 436/1055/352
f 435/1050/349 434/1056/353 429/1051/350
f 434/1057/353 436/1058/352 429/1059/350
f 430/1060/354 431/1061/355 436/1062/352
f 430/1060/354 432/1063/356 431/1061/355
f 434/1057/353 430/1064/354 436/1058/352
f 432/1065/356 430/1066/354 434/1067/353
f 433/1053/351 436/1055/352 431/1068/355
f 432/1069/356 433/1070/351 431/1071/355
f 432/1069/356 435/1072/349 433/1070/351
f 432/1065/356 434/1067/353 435/1073/349
f 33/5/357 34/58/357 35/6/357
f 42/8/9 43/60/9 44/9/9
f 46/11/358 47/81/42 48/12/108
f 51/14/359 52/230/359 53/15/359
f 55/17/360 56/86/48 57/18/121
f 60/20/361 61/89/361 62/21/361
f 65/23/2 66/67/2 67/24/2
f 70/26/362 71/72/362 72/27/362
f 73/29/363 74/83/45 75/30/124
f 78/32/364 79/82/364 80/33/364
f 81/35/365 82/257/51 83/36/126
f 86/38/366 87/87/366 88/39/366
f 364/1074/367 365/1075/368 363/1076/369
f 65/41/95 68/216/95 36/42/86
f 38/215/89 32/217/96 35/1077/96
f 33/5/2 32/7/2 68/25/2
f 42/44/82 45/199/82 30/45/84
f 29/198/81 69/200/83 72/1078/83
f 70/26/9 69/28/9 45/10/9
f 41/54/370 35/1079/370 34/55/370
f 50/57/371 53/84/371 34/58/371
f 39/65/105 85/40/104 88/39/372
f 39/225/98 43/1080/100 42/226/373
f 84/59/9 44/9/9 43/60/9
f 85/62/5 49/1081/5 48/63/5
f 50/16/12 84/37/12 83/36/12
f 54/73/116 77/34/115 80/33/374
f 54/238/109 66/239/111 65/239/375
f 76/31/2 67/24/2 66/67/2
f 64/69/376 72/1082/376 71/70/376
f 59/22/377 62/21/377 71/72/377
f 77/75/7 58/1083/7 57/76/7
f 59/78/10 76/1084/10 75/79/10
f 47/81/42 46/11/378 80/33/43
f 74/83/45 73/29/379 53/84/46
f 56/86/48 55/17/380 88/39/49
f 82/88/51 81/61/381 62/21/52
f 297/1085/54 296/1086/54 298/1087/54
f 296/1088/54 297/1089/54 298/1090/54
f 310/1091/76 308/1092/76 309/1093/76
f 308/1094/76 310/1095/76 309/1096/76
f 312/1097/54 311/1098/54 313/1099/54
f 311/1100/54 312/1101/54 313/1102/54
f 348/1103/382 350/1104/382 349/1105/382
f 350/1106/382 348/1107/382 349/1108/382
f 361/1109/76 360/1110/76 362/1111/76
f 360/1112/76 361/1113/76 362/1114/76
f 365/1115/368 364/1116/367 363/1117/369
f 45/1118/383 31/207/383 44/206/383
f 31/207/17 35/204/88 44/206/77
f 34/205/384 33/1119/384 44/206/384
f 34/1120/385 41/212/385 33/211/385
f 41/212/30 42/226/103 44/210/94
f 46/209/91 34/55/93 48/214/1
f 34/55/93 53/1121/1 51/213/1
f 68/1122/386 37/201/386 67/219/386
f 37/201/20 72/203/85 67/219/76
f 71/218/387 70/1123/387 67/219/387
f 81/221/99 39/220/98 83/224/102
f 39/220/98 88/1124/388 86/223/101
f 53/229/106 80/1125/106 46/227/106
f 48/1126/106 51/228/106 46/227/106
f 75/1127/106 78/1128/106 73/1129/106
f 73/1129/106 78/1128/106 80/1125/106
f 80/1125/106 53/229/106 73/1129/106
f 73/233/110 54/232/109 75/236/113
f 54/232/109 80/1130/389 78/235/112
f 55/242/118 71/70/117 57/241/106
f 71/70/117 62/1131/106 60/240/106
f 62/245/1 88/1132/1 55/243/1
f 57/1133/1 60/244/1 55/243/1
f 83/1134/1 86/1135/1 81/1136/1
f 81/1136/1 86/1135/1 88/1132/1
f 88/1132/1 62/245/1 81/1136/1
f 71/1137/390 64/237/390 70/249/390
f 64/237/38 65/239/114 67/248/122
