# Blender 4.5.0
# www.blender.org
mtllib public_002.mtl
o public_002
v 0.820712 3.677294 -2.893317
v -2.121840 3.677294 -2.893317
v 0.820712 3.257281 -2.893317
v -2.121840 3.257281 -2.893317
v -3.249176 0.163543 -3.250000
v -3.249176 0.000824 3.250000
v -3.250000 -0.000000 -3.248654
v 3.250000 0.000000 3.248654
v 3.249176 0.000824 -3.250000
v 3.249176 0.163544 3.250000
v 3.250000 0.164367 -3.248654
v -3.250000 0.164368 3.248654
v -2.898740 3.864335 -2.674281
v 2.098046 3.864336 2.974521
v -2.899817 3.864956 2.972976
v -2.899817 0.169530 -2.672736
v 2.099123 3.864956 -2.672737
v 2.098046 0.170151 -2.674281
v 2.099123 0.169530 2.972977
v -2.898740 0.170151 2.974521
v -2.388783 3.983884 -2.763773
v -2.392075 3.874065 2.767215
v -2.395825 3.874065 2.767215
v -2.392075 3.867300 2.760445
v -2.385304 3.874065 2.767215
v 2.388479 3.983406 2.765079
v -2.386369 3.985164 2.764724
v -2.392075 3.980539 2.760445
v 2.384781 3.984653 -2.767031
v 2.392075 3.980538 -2.760445
v -2.396502 3.867300 -2.766392
v -2.385304 3.860534 -2.767216
v -2.392075 3.867300 -2.767216
v -2.385304 3.874065 -2.767216
v 2.392075 3.866860 -2.767209
v 2.395825 3.874065 -2.767216
v 2.392075 3.867300 -2.760445
v 2.398846 3.860534 -2.767216
v -2.399108 4.225353 -2.766865
v -2.392075 4.220546 -2.760445
v -2.545443 4.227311 -2.767216
v -2.548368 4.225242 -2.924675
v -2.552214 4.220546 -2.767216
v -2.545443 4.227311 -2.760445
v -2.395619 4.223854 2.765984
v -2.545443 4.227311 2.760445
v -2.552214 4.219204 2.767215
v -2.550933 4.226023 2.922552
v -2.544101 4.227311 2.767215
v -2.545443 3.867300 -2.760445
v -2.552214 3.875406 -2.767216
v -2.545443 3.867300 -2.773986
v -2.545443 3.867300 -2.767216
v 2.397251 4.225737 2.764662
v 2.392075 4.220546 2.760445
v 2.385304 3.874065 2.767215
v 2.392075 3.867300 2.760445
v 2.395705 3.875460 2.767215
v 2.392075 3.874065 2.767215
v 2.395315 4.224175 -2.764542
v 2.548368 3.869369 -2.924675
v -2.549779 3.870728 -2.924328
v 2.545443 3.867300 -2.767216
v 2.552214 3.874065 -2.767216
v 2.545443 3.867300 -2.760445
v 2.552214 4.219151 -2.923714
v 2.546391 4.225185 -2.924500
v 2.545443 4.227311 -2.773986
v 2.544101 4.227311 -2.767216
v 2.545443 4.227311 -2.760445
v 2.552214 4.219204 -2.767216
v 2.548368 4.225242 2.924675
v 2.550933 3.868588 2.922552
v -2.548368 3.869370 2.924675
v 2.545443 3.867300 2.760445
v 2.552214 3.875407 2.767215
v 2.544101 3.867300 2.767215
v 2.545443 4.227311 2.767215
v 2.552214 4.220546 2.767215
v 2.545443 4.227311 2.760445
v -2.545443 3.867300 2.767215
v -2.552214 3.874065 2.767215
v -2.545443 3.867300 2.760445
v 2.926206 0.171505 -0.749052
v 1.677743 0.169890 -0.747408
v 2.926206 7.463092 2.950814
v 1.677787 7.463092 -0.749052
v 1.677787 0.171505 2.950814
v 2.926250 7.464707 -0.747408
v 1.677743 7.464707 2.949170
v 2.926250 0.169890 2.949170
v 3.038948 7.468364 -0.873425
v 3.039973 7.468353 3.073696
v 1.564019 7.666474 3.073696
v 1.565045 7.666463 -0.873425
v 1.564019 7.468352 -0.871934
v 3.039974 7.666474 -0.871934
v 3.038947 7.666463 3.075187
v 1.565046 7.468364 3.075187
v 1.137822 3.087945 -2.737593
v 1.137822 0.166516 -2.746798
v -2.438951 3.087946 -2.746797
v -2.438951 0.166516 -2.737594
v -2.307334 2.902078 -2.835030
v 1.006206 2.902078 -2.829507
v -2.307335 0.192379 -2.829507
v 1.006206 0.192379 -2.835029
v 0.990694 0.409012 -2.869463
v -2.297661 0.410194 -2.882308
v 0.990694 0.411376 -2.895152
v -2.297661 0.630200 -2.882308
v 0.990694 0.631382 -2.895152
v 0.990694 0.629019 -2.869463
v 0.990694 0.851389 -2.895152
v 0.990694 0.849025 -2.869463
v -2.297661 0.850207 -2.882308
v 0.990694 1.071396 -2.895152
v 0.990694 1.069032 -2.869463
v -2.297661 1.070214 -2.882308
v 0.990694 1.291402 -2.895152
v -2.297661 1.290221 -2.882308
v 0.990694 1.289039 -2.869463
v 0.990694 1.511409 -2.895152
v -2.297661 1.510227 -2.882308
v 0.990694 1.509045 -2.869463
v -2.297661 1.730234 -2.882308
v 0.990694 1.731416 -2.895152
v 0.990694 1.729052 -2.869463
v 0.990694 1.951423 -2.895152
v -2.297661 1.950241 -2.882308
v 0.990694 1.949059 -2.869463
v 0.990694 2.171430 -2.895152
v -2.297661 2.170248 -2.882308
v 0.990694 2.169066 -2.869463
v 0.990694 2.391436 -2.895152
v 0.990694 2.389073 -2.869463
v -2.297661 2.390254 -2.882308
v 0.990694 2.609079 -2.869463
v -2.297661 2.610261 -2.882308
v 0.990694 2.611443 -2.895152
v 0.990694 2.831450 -2.895152
v -2.297661 2.830268 -2.882308
v 0.990694 2.829086 -2.869463
v -2.126161 2.235537 -2.904182
v 0.825032 2.235537 -2.900466
v -2.126161 1.838950 -2.900466
v 0.825032 1.838950 -2.904182
v 0.846155 3.705446 -2.737949
v 0.847190 3.229290 -2.738452
v -2.147283 3.705446 -2.886555
v -2.148318 3.229290 -2.886052
v -2.147283 3.229129 -2.737949
v 0.847190 3.705285 -2.886051
v 0.846155 3.229129 -2.886555
v -2.148318 3.705285 -2.738452
v 1.329655 2.414069 -2.831370
v 2.273470 0.170372 -2.831369
v 2.273470 2.414069 -2.693053
v 1.329301 2.414736 -2.693470
v 2.273824 2.414736 -2.830953
v 1.329301 0.169705 -2.830952
v 2.273824 0.169706 -2.693470
v 1.329655 0.170372 -2.693053
v 1.401654 0.236876 -2.850580
v 2.201472 0.236876 -2.853987
v 1.401654 2.337565 -2.853987
v 2.201472 2.337565 -2.850580
v 1.801563 2.352744 -2.882308
v 1.799544 0.234387 -2.910187
v 1.803581 0.234387 -2.854429
v 1.679328 0.996413 -2.975960
v 1.679328 1.398022 -2.908751
v 1.683589 0.996413 -2.908751
v 1.683589 1.398022 -2.975960
v 1.923797 1.398022 -2.975960
v 1.919536 1.398022 -2.908751
v 1.919536 0.996414 -2.975960
v 1.923797 0.996413 -2.908751
v 2.730083 5.304909 -0.884728
v 2.729518 5.304225 -0.736468
v 1.873910 5.304909 -0.736571
v 1.874476 4.250431 -0.736468
v 1.873910 4.249747 -0.884728
v 1.874476 5.304225 -0.884831
v 2.729518 4.250431 -0.884831
v 2.730083 4.249747 -0.736571
v 1.942020 5.236979 -0.901880
v 2.661973 5.236979 -0.899563
v 1.942020 4.317678 -0.899563
v 2.661974 4.317678 -0.901879
v 1.943673 5.280169 -0.961182
v 1.939695 5.280169 -0.900309
v 1.941684 4.270554 -0.930745
v 2.303985 5.280169 -0.961182
v 2.300008 4.284488 -0.961182
v 2.303986 4.284488 -0.900308
v 2.300008 5.280169 -0.900309
v 2.664298 5.280169 -0.961182
v 2.662309 4.270554 -0.930746
v 2.660320 5.280169 -0.900309
v 1.820449 4.243119 -1.073019
v 2.783544 4.251504 -1.073018
v 2.783544 4.243119 -0.828505
v 1.820449 4.251504 -0.828504
v 1.874476 6.704268 -0.884831
v 1.874475 5.650474 -0.736468
v 2.730084 5.649791 -0.736571
v 2.729518 5.650474 -0.884831
v 2.729518 6.704268 -0.736468
v 2.730083 6.704952 -0.884728
v 1.873910 6.704952 -0.736571
v 1.873910 5.649790 -0.884728
v 2.661973 5.717721 -0.901880
v 1.942020 5.717721 -0.899563
v 1.942020 6.637022 -0.901880
v 2.661974 6.637022 -0.899563
v 1.943673 6.680211 -0.961183
v 1.939695 6.680211 -0.900309
v 1.941684 5.670597 -0.930746
v 2.303986 6.680212 -0.961183
v 2.301996 5.670597 -0.930745
v 2.300008 6.680211 -0.900309
v 2.664298 6.680211 -0.961183
v 2.662309 5.670597 -0.930746
v 2.660320 6.680211 -0.900309
v 2.783544 5.651547 -1.073018
v 1.820449 5.651547 -0.828504
v 2.783544 5.643162 -0.828505
v 1.820449 5.643162 -1.073019
v 1.687357 7.656856 -0.602995
v 1.682856 8.341120 -0.602867
v 1.665135 8.350606 -0.631824
v 1.654391 8.351916 -0.566794
v 1.679692 8.346091 -0.600481
v 1.683871 8.353688 -0.593711
v 1.683871 8.341187 -0.593711
v 1.624071 8.340672 -0.618995
v 1.624287 7.659283 -0.625611
v 1.639363 7.658099 -0.568820
v 1.687415 7.656881 2.799580
v 1.624288 7.659283 2.777114
v 1.660410 8.348469 2.768756
v 1.681224 8.341120 2.795920
v 1.658512 8.350833 2.834052
v 1.693233 8.348784 2.802243
v 1.689054 8.341187 2.809013
v 1.689054 8.353688 2.807742
v 1.624071 8.340672 2.783729
v 1.611163 8.341120 2.808566
v 1.618993 8.353688 2.795472
v 1.618993 8.341187 2.795472
v 1.618993 8.355547 2.799115
v 1.618993 8.340672 2.808498
v 1.625527 8.347438 2.802243
v 1.639364 7.658099 2.833905
v 1.649003 8.383593 -0.599344
v 1.671020 8.367009 -0.600481
v 1.644209 8.313824 2.801649
v 1.676310 8.325404 2.793730
v 1.640484 8.379380 2.800129
v 1.631844 8.367009 2.802243
v 1.649380 8.315289 -0.589933
v 1.618993 8.341187 -0.593711
v 1.618993 8.353688 -0.593711
v 1.618993 8.332489 -0.603609
v 1.625527 8.347438 -0.600481
v 1.632609 8.328629 -0.600481
v 1.675938 8.324817 -0.595354
v 1.677785 8.367093 2.794870
v 1.671020 8.367009 2.802243
v 2.925416 7.659283 -0.625610
v 2.988486 7.656856 -0.602995
v 2.966263 8.350606 -0.631826
v 2.950508 8.315289 -0.589933
v 2.920122 8.341187 -0.593711
v 2.920122 8.353688 -0.593711
v 2.920122 8.332489 -0.603609
v 2.955520 8.351916 -0.566794
v 2.926656 8.347438 -0.600481
v 2.925199 8.340672 -0.618995
v 2.940492 7.658099 -0.568820
v 2.940492 7.658099 2.833905
v 2.988543 7.656881 2.799580
v 2.925416 7.659283 2.777114
v 2.959641 8.350833 2.834052
v 2.961540 8.348469 2.768756
v 2.925199 8.340672 2.783729
v 2.982352 8.341120 2.795920
v 2.994362 8.348783 2.802243
v 2.990182 8.341187 2.809013
v 2.990182 8.353688 2.807742
v 2.933738 8.328629 -0.600481
v 2.950132 8.383593 -0.599344
v 2.945336 8.313824 2.801650
v 2.941613 8.379380 2.800129
v 2.977438 8.325404 2.793730
v 2.912292 8.341120 2.808566
v 2.920122 8.353688 2.795472
v 2.920122 8.341187 2.795472
v 2.920122 8.355547 2.799115
v 2.920122 8.340672 2.808498
v 2.926656 8.347438 2.802243
v 2.932973 8.367009 2.802243
v 2.983983 8.341120 -0.602867
v 2.980820 8.346092 -0.600481
v 2.985000 8.353688 -0.593711
v 2.985000 8.341187 -0.593711
v 2.977066 8.324817 -0.595354
v 2.972149 8.367009 -0.600481
v 2.979188 8.366951 2.795024
v 2.972149 8.367009 2.802243
v 2.300723 9.000000 1.825850
v 2.305504 8.999817 1.777268
v 2.290074 7.669383 1.779086
v 2.313075 7.661996 1.820078
v -0.575934 3.866406 -1.874227
v -0.763321 3.866142 -2.108760
v -0.528124 3.861994 -2.079418
v -0.801797 4.068465 -1.965176
v -0.522240 4.068201 -2.074601
v -0.679170 4.065606 -2.140460
v -0.744773 3.869000 -1.895652
v -0.583438 4.072612 -1.872997
v -0.979187 4.684637 1.579202
v -0.980142 4.040595 1.578264
v -0.980142 4.684035 2.024620
v -1.822289 4.040595 2.024620
v -1.822289 4.684036 1.578264
v -1.823244 4.039994 1.579202
v -1.823244 4.684637 2.023682
v -0.979187 4.039994 2.023682
v -1.069296 4.543284 1.550836
v -1.303012 4.608270 1.551242
v -1.127906 4.175931 1.557276
v -1.472897 4.435230 1.551647
v -1.408445 4.209683 1.549749
v -1.238308 4.146375 1.545207
v -1.012245 4.315756 1.552734
v -1.456477 4.219810 1.521217
v -1.031216 4.218674 1.533405
v -1.031216 4.220947 1.509030
v -1.031216 4.298991 1.522355
v -1.031216 4.274634 1.520080
v -1.456477 4.286813 1.521217
v -1.450937 4.352679 1.509030
v -1.450937 4.354952 1.533405
v -1.025676 4.353816 1.521217
v -1.031216 4.421954 1.509030
v -1.456477 4.420817 1.521217
v -1.031216 4.419681 1.533405
v -1.450937 4.488955 1.533406
v -1.450937 4.486683 1.509030
v -1.025676 4.487819 1.521217
v -1.031216 4.555958 1.509030
v -1.456477 4.554821 1.521217
v -1.031216 4.553685 1.533405
v -1.735705 4.557020 1.554733
v -1.647229 4.557020 1.557758
v -1.735705 4.197611 1.557758
v -1.647229 4.197611 1.554733
v -1.749235 3.999116 1.504384
v -1.653716 3.999118 2.098499
v -1.749235 4.005492 2.098499
v -1.653716 4.005493 1.504385
v -1.148714 3.999116 1.504384
v -1.148714 4.005492 2.098499
v -1.053195 3.999118 2.098499
v -1.053196 4.005493 1.504385
v -2.701559 0.116195 3.139943
v -2.744831 0.120291 3.077524
v -2.669424 0.115631 3.058918
v -2.668221 3.498278 3.059466
v -2.742959 3.494183 3.073005
v -2.702797 3.498844 3.139480
v 2.703129 0.116195 3.139943
v 2.735264 0.115631 3.058918
v 2.736467 3.498278 3.059466
v 2.659857 0.120291 3.077525
v 2.661729 3.494183 3.073005
v 2.701891 3.498844 3.139480
v 0.396746 0.450303 3.023355
v 0.396746 2.244143 3.141580
v -0.396746 0.450302 3.141580
v -0.397140 2.244781 3.141149
v -0.397140 0.449664 3.023787
v 0.397141 2.244781 3.023787
v -0.396746 2.244143 3.023355
v 0.397140 0.449664 3.141149
v 0.972841 1.301440 2.999041
v 0.972841 1.793018 3.165894
v 0.628025 1.793971 3.165261
v 0.628548 1.301440 3.165894
v 0.628026 1.300487 2.999674
v 0.973364 1.793971 2.999674
v 0.973364 1.300487 3.165261
v 0.628548 1.793018 2.999041
vn -0.0000 -0.0000 -1.0000
vn -0.0000 -0.7074 0.7068
vn 0.1799 -0.1801 0.9671
vn 0.6819 0.7299 -0.0475
vn -0.7068 0.7074 -0.0000
vn -0.7000 0.7006 0.1388
vn -0.7674 -0.6411 -0.0001
vn -0.7675 -0.6411 -0.0000
vn 0.7068 -0.7074 -0.0000
vn 0.7000 0.7005 0.1388
vn 0.7000 -0.7005 0.1388
vn 0.7068 0.7074 -0.0000
vn -0.7068 -0.7074 -0.0000
vn 0.8509 -0.0000 -0.5253
vn 0.6442 -0.2582 0.7199
vn -0.7060 0.7077 0.0280
vn 0.8143 -0.4361 0.3832
vn 0.6443 -0.2578 0.7200
vn 0.6441 -0.2579 0.7202
vn 0.6442 -0.2578 0.7201
vn -0.0003 -0.1203 -0.9927
vn 0.7200 0.6940 -0.0053
vn 0.0553 0.8375 -0.5437
vn 0.2389 -0.8719 0.4274
vn -0.2943 -0.7988 -0.5247
vn 0.6702 -0.0000 -0.7422
vn -0.6247 0.0496 0.7793
vn -0.2227 0.8188 0.5292
vn -0.0005 0.7251 -0.6886
vn -0.6298 0.7767 0.0001
vn 0.1512 0.8046 -0.5743
vn 0.0006 0.7070 0.7072
vn 0.4914 0.8709 -0.0001
vn 0.0135 0.9999 -0.0000
vn 0.0134 0.9999 -0.0000
vn 0.6756 0.0039 -0.7373
vn -0.0441 -0.0441 -0.9981
vn 0.0452 -0.9990 -0.0000
vn -0.7674 0.6411 0.0002
vn -0.7674 -0.6412 -0.0002
vn 0.9999 0.0109 0.0006
vn 0.5832 0.8123 -0.0001
vn 0.5643 0.8255 -0.0001
vn -0.0452 -0.9990 -0.0000
vn -0.0108 0.9999 -0.0000
vn -0.0106 0.9999 -0.0000
vn -0.6367 0.0084 0.7710
vn -0.0000 -0.6386 0.7696
vn -1.0000 0.0096 -0.0006
vn -0.9020 0.4318 0.0051
vn -0.7081 0.7061 -0.0000
vn 0.7674 0.6411 -0.0002
vn 0.7674 -0.6412 0.0002
vn 0.3068 -0.0045 -0.9518
vn 0.9988 -0.0349 -0.0353
vn 0.1350 0.0012 -0.9908
vn -0.0000 0.9999 -0.0131
vn -0.0004 1.0000 -0.0002
vn -0.0004 1.0000 -0.0000
vn -0.0000 -0.9999 -0.0131
vn 0.0004 -1.0000 -0.0003
vn 0.0004 -1.0000 -0.0000
vn 0.5681 0.5750 0.5888
vn 0.0001 1.0000 0.0084
vn -0.1878 0.6827 0.7062
vn -0.5681 -0.5750 0.5888
vn -0.0001 -1.0000 0.0084
vn 0.1878 -0.6827 0.7062
vn -0.3127 0.8998 -0.3041
vn -0.5655 0.7857 0.2507
vn -0.0297 0.9964 -0.0799
vn 0.1422 0.9893 -0.0317
vn 0.0201 0.9993 0.0315
vn 0.3598 0.9328 -0.0233
vn -0.3177 0.8983 -0.3034
vn -0.2820 0.9400 0.1922
vn -0.4569 0.8003 0.3884
vn 0.5730 0.7361 0.3604
vn 0.5958 0.7975 -0.0950
vn 0.0790 0.1722 -0.9819
vn 0.8994 -0.4262 -0.0969
vn 0.8994 -0.4263 -0.0969
vn -0.5092 0.3641 -0.7798
vn -0.7582 0.5803 0.2972
vn -0.4503 -0.2195 0.8655
vn 0.3092 -0.2254 0.9239
vn -0.2062 -0.9712 0.1191
vn 0.6521 -0.6313 0.4198
vn 0.3945 0.4808 0.7830
vn -1.0000 -0.0000 -0.0000
vn 1.0000 -0.0000 -0.0015
vn -0.3127 0.8998 -0.3043
vn -0.0300 0.9963 -0.0802
vn 0.0197 0.9993 0.0320
vn 0.3598 0.9327 -0.0233
vn -0.4568 0.8003 0.3884
vn 0.8995 -0.4262 -0.0968
vn -0.4503 -0.2196 0.8655
vn 0.3093 -0.2255 0.9239
vn -0.0528 0.8383 0.5426
vn -0.5754 0.5764 -0.5802
vn 0.5754 -0.5764 -0.5802
vn -0.5794 -0.5782 -0.5744
vn 0.5794 0.5782 -0.5744
vn -0.5794 0.5782 0.5744
vn 0.5754 0.5764 0.5802
vn -0.5754 -0.5764 0.5802
vn 0.5794 -0.5782 0.5744
vn -0.5772 0.5773 -0.5776
vn 0.5772 -0.5773 -0.5776
vn -0.5775 -0.5775 -0.5771
vn 0.5775 0.5775 -0.5771
vn -0.5775 0.5775 0.5771
vn 0.5772 0.5773 0.5776
vn -0.5772 -0.5773 0.5776
vn 0.5775 -0.5775 0.5771
vn -0.0007 0.0019 -1.0000
vn 0.0001 0.0313 -0.9995
vn -1.0000 0.0004 -0.0000
vn -0.9996 0.0282 -0.0006
vn -0.9996 0.0279 -0.0006
vn -0.0001 0.0224 0.9997
vn -0.0000 0.0195 0.9998
vn 0.5171 0.8559 -0.0004
vn -0.7068 -0.7074 0.0017
vn 0.0058 0.0007 1.0000
vn 0.0012 0.0030 1.0000
vn -0.0001 0.0035 1.0000
vn -0.0000 -1.0000 -0.0000
vn 0.9999 0.0101 0.0006
vn -0.7071 -0.0000 0.7071
vn 1.0000 0.0004 -0.0000
vn 0.9995 0.0329 0.0006
vn 0.9995 0.0325 0.0006
vn -0.3587 0.9335 -0.0011
vn 0.0012 0.0005 -1.0000
vn 0.0024 0.0011 -1.0000
vn 0.0006 0.0003 -1.0000
vn 0.9999 0.0102 -0.0007
vn -0.0132 0.0017 -0.9999
vn -0.0025 0.0064 -1.0000
vn 0.0003 0.0076 -1.0000
vn -1.0000 0.0012 -0.0000
vn 0.0231 0.9997 -0.0020
vn 0.0231 0.9997 0.0001
vn -0.7001 0.0341 -0.7133
vn -0.0000 0.9999 -0.0141
vn -0.0000 0.6996 -0.7145
vn -0.9999 -0.0000 -0.0155
vn -0.9010 0.4338 -0.0091
vn -0.2064 -0.6857 -0.6980
vn 0.0079 -0.0026 1.0000
vn 0.0034 0.0020 1.0000
vn -1.0000 -0.0000 0.0082
vn -0.0000 -0.0184 -0.9998
vn -0.4830 -0.8756 -0.0059
vn -0.0208 0.9998 0.0017
vn -0.0085 0.0036 1.0000
vn -0.0173 0.0074 0.9998
vn -0.0042 0.0018 1.0000
vn -0.0209 0.9998 -0.0001
vn -0.0000 -0.0000 1.0000
vn 0.8994 -0.4370 -0.0089
vn 0.9985 0.0229 0.0506
vn 1.0000 -0.0000 -0.0000
vn 0.9009 0.4340 0.0091
vn 1.0000 -0.0000 0.0082
vn -0.9009 -0.4340 0.0091
vn -0.0002 0.7064 -0.7078
vn 0.0002 -0.7064 -0.7078
vn -0.0004 -0.7077 -0.7065
vn 0.0004 -0.7077 0.7065
vn 0.0004 0.7077 -0.7065
vn -0.0002 -0.7064 0.7078
vn 0.0002 0.7064 0.7078
vn -0.0004 0.7077 0.7065
vn -0.7045 -0.0008 -0.7098
vn 0.7045 0.0008 -0.7098
vn -0.7102 -0.0019 -0.7040
vn 0.7102 0.0019 -0.7040
vn 0.7102 -0.0019 0.7040
vn 0.7045 -0.0008 0.7098
vn -0.7045 0.0008 0.7098
vn -0.0000 1.0000 -0.0000
vn -0.7102 0.0019 0.7040
vn -0.7262 0.6874 -0.0137
vn 0.7262 0.6874 0.0137
vn 0.7262 -0.6874 -0.0137
vn -0.7262 -0.6873 0.0137
vn -0.7260 0.6874 -0.0188
vn 0.7260 -0.6874 -0.0188
vn -0.7260 -0.6874 0.0189
vn 0.7260 0.6874 0.0189
vn -0.0000 -0.0000 -0.0000
vn -0.8225 0.5687 -0.0056
vn 0.8225 -0.5687 -0.0054
vn -0.8225 -0.5687 0.0056
vn 0.8225 0.5687 0.0059
vn 0.7086 0.7056 0.0023
vn 0.7043 0.7099 0.0042
vn 0.7086 -0.7056 -0.0023
vn 0.0001 -0.0008 1.0000
vn -0.0001 0.0008 1.0000
vn 0.0002 -0.0011 1.0000
vn -0.0002 0.0011 1.0000
vn -0.7086 0.7056 -0.0023
vn 0.7043 -0.7099 -0.0041
vn -0.7086 -0.7056 0.0023
vn -0.7043 -0.7099 0.0041
vn -0.7043 0.7099 -0.0041
vn -0.0001 -0.0008 -1.0000
vn 0.0001 0.0008 -1.0000
vn -0.0002 -0.0011 -1.0000
vn 0.0002 0.0011 -1.0000
vn 0.0002 0.0001 -1.0000
vn -0.0002 -0.0001 -1.0000
vn -0.0004 -0.0002 -1.0000
vn 0.0004 0.0002 -1.0000
vn -0.7067 0.7075 -0.0045
vn -0.7079 0.7063 -0.0052
vn -0.7067 -0.7075 0.0045
vn 0.7067 0.7075 0.0045
vn 0.7079 -0.7063 -0.0052
vn 0.7067 -0.7075 -0.0045
vn -0.0002 0.0001 1.0000
vn 0.0002 -0.0001 1.0000
vn 0.0004 -0.0002 1.0000
vn -0.0004 0.0002 1.0000
vn 0.7079 0.7063 0.0052
vn -0.7079 -0.7063 0.0052
vn -0.6205 0.7841 0.0136
vn 0.6205 -0.7841 0.0136
vn -0.6208 -0.7839 -0.0136
vn 0.6208 0.7839 -0.0136
vn -0.0363 0.8172 0.5752
vn 0.0363 0.8172 -0.5752
vn -0.0363 -0.8172 -0.5752
vn 0.0363 -0.8172 0.5752
vn -0.7070 0.7072 -0.0048
vn 0.7070 0.7072 0.0048
vn -0.7074 0.7068 -0.0060
vn 0.0001 0.0001 -1.0000
vn 0.7070 -0.7072 -0.0048
vn 0.7074 -0.7068 -0.0060
vn 0.7074 0.7068 0.0060
vn -0.0001 0.0001 1.0000
vn 0.0001 -0.0001 1.0000
vn -0.7070 -0.7072 0.0048
vn -0.7074 -0.7068 0.0060
vn -0.0001 -0.0001 -1.0000
vn -0.6833 0.7300 -0.0123
vn 0.6833 -0.7300 -0.0124
vn -0.6833 -0.7300 0.0124
vn 0.6833 0.7300 0.0123
vn -0.0379 0.8341 0.5504
vn 0.0379 0.8341 -0.5504
vn -0.0379 -0.8341 -0.5504
vn 0.0379 -0.8341 0.5504
vn -0.8038 0.0186 0.5946
vn 0.8038 0.0186 -0.5946
vn -0.8034 -0.0186 -0.5951
vn 0.8034 -0.0186 0.5951
vn -0.6833 0.7300 -0.0124
vn 0.6833 -0.7300 -0.0125
vn 0.6833 0.7300 0.0124
vn -0.8038 -0.0186 -0.5947
vn 0.8034 0.0186 -0.5951
vn 0.8038 -0.0186 0.5947
vn -0.8034 0.0186 0.5951
vn 0.8050 -0.5827 -0.1119
vn -0.5795 -0.5410 -0.6094
vn 0.3401 0.0077 -0.9404
vn -0.1234 0.9871 0.1021
vn 0.6512 0.7589 -0.0018
vn -0.0346 0.9994 -0.0012
vn 0.3160 0.9488 0.0019
vn 0.2064 -0.2777 -0.9382
vn 0.2905 -0.3064 -0.9065
vn 0.2364 -0.2882 -0.9279
vn 0.4288 -0.7271 -0.5362
vn 0.8999 -0.4361 0.0002
vn 0.9117 -0.4109 -0.0000
vn 0.9170 0.3989 0.0001
vn -0.9072 0.4132 -0.0797
vn -0.2945 -0.5586 0.7754
vn 0.1533 -0.0130 0.9881
vn 0.8041 -0.5858 -0.1015
vn -0.2961 -0.5570 0.7759
vn -0.5822 -0.5396 -0.6082
vn 0.1217 -0.0293 0.9921
vn 0.2571 0.0064 -0.9664
vn -0.0856 0.7103 -0.6986
vn -0.3719 0.5344 -0.7590
vn -0.0153 0.0990 0.9950
vn -0.0410 -0.0016 0.9992
vn 0.0943 0.3893 0.9163
vn 0.7984 0.5426 -0.2610
vn -0.9195 -0.0252 0.3923
vn 0.0166 0.2458 -0.9692
vn -0.7665 0.6422 -0.0011
vn -0.2741 0.9617 0.0005
vn -0.0684 0.0192 0.9975
vn -0.0408 0.0208 0.9989
vn -0.7059 0.7084 -0.0000
vn -0.6492 -0.7606 -0.0013
vn -0.7354 -0.6777 -0.0000
vn 0.3138 -0.3140 -0.8961
vn -0.3117 -0.4020 0.8610
vn 0.0078 0.0786 -0.9969
vn -0.1601 -0.9825 -0.0952
vn -0.9072 0.4131 -0.0797
vn -0.1232 0.9872 0.1018
vn -0.6493 -0.7606 -0.0013
vn -0.0346 0.9994 -0.0013
vn -0.7354 -0.6776 -0.0000
vn 0.7984 0.5426 -0.2611
vn -0.0855 0.7103 -0.6987
vn -0.3718 0.5343 -0.7591
vn -0.0524 0.0069 0.9986
vn -0.1337 -0.1629 0.9775
vn 0.9197 0.3925 -0.0000
vn -0.2285 0.9732 0.0262
vn 0.3265 0.9401 0.0980
vn 0.6512 0.7589 -0.0019
vn -0.5372 -0.5856 0.6070
vn 0.4578 -0.5818 0.6723
vn 0.3685 0.6135 0.6985
vn -0.5656 -0.5864 -0.5799
vn 0.6684 -0.6135 -0.4207
vn 0.7326 0.5818 -0.3533
vn -0.7798 0.5863 0.2194
vn -0.1617 0.5856 -0.7943
vn 0.5782 0.5780 -0.5759
vn 0.5782 -0.5780 0.5759
vn 0.5764 -0.5770 -0.5787
vn 0.5764 0.5770 0.5787
vn -0.5782 0.5780 0.5759
vn -0.5764 0.5770 -0.5787
vn -0.5782 -0.5780 -0.5759
vn -0.5764 -0.5770 0.5787
vn 0.6033 -0.7887 0.1182
vn 0.9990 -0.0436 0.0050
vn 0.6423 0.7665 -0.0057
vn -0.2588 0.9659 -0.0000
vn -0.9395 0.3426 0.0057
vn -0.8433 -0.5374 -0.0050
vn -0.1283 -0.9847 -0.1182
vn -0.0000 0.9945 0.1047
vn -0.0000 0.9920 0.1260
vn -0.0000 0.9923 0.1240
vn -0.0000 -0.9981 -0.0624
vn -0.5933 0.8048 -0.0185
vn 0.5932 -0.8048 -0.0185
vn -0.5933 -0.8048 0.0185
vn 0.5933 0.8048 0.0185
vn -0.5736 0.0382 0.8182
vn 0.5736 0.0382 -0.8183
vn -0.5736 -0.0382 -0.8182
vn 0.5736 -0.0382 0.8183
vn -0.7942 -0.5289 -0.2992
vn 0.0885 -0.5653 0.8201
vn 0.0511 0.5696 0.8203
vn -0.7731 0.5289 -0.3500
vn 0.6162 -0.5696 -0.5439
vn 0.6425 0.5653 -0.5173
vn -0.5766 0.5756 -0.5798
vn 0.5766 -0.5756 -0.5798
vn -0.5784 -0.5788 -0.5749
vn 0.5784 -0.5788 0.5749
vn 0.5784 0.5788 -0.5749
vn 0.5766 0.5756 0.5798
vn -0.5766 -0.5756 0.5798
vn -0.5784 0.5788 0.5749
vn -0.5767 0.5750 -0.5803
vn 0.5767 -0.5750 -0.5803
vn -0.5785 -0.5790 -0.5745
vn 0.5785 -0.5790 0.5745
vn 0.5785 0.5790 -0.5745
vn 0.5767 0.5750 0.5803
vn -0.5767 -0.5750 0.5803
vn -0.5785 0.5790 0.5745
vn 0.1799 0.1801 0.9671
vn 0.8867 -0.4615 0.0300
vn -0.7068 0.7074 0.0038
vn -0.7066 0.7071 -0.0252
vn -0.7675 -0.6410 -0.0000
vn 0.2623 -0.6827 0.6820
vn 0.7068 -0.7074 0.0038
vn 0.7000 0.7005 -0.1388
vn 0.7066 -0.7072 -0.0252
vn 0.7068 0.7074 -0.0038
vn -0.7068 -0.7074 -0.0038
vn 0.8186 0.5665 -0.0951
vn 0.7526 0.6035 -0.2633
vn 0.7529 0.6033 -0.2629
vn 0.7522 0.6038 -0.2636
vn 0.2523 0.9674 0.0222
vn -0.4764 0.7414 -0.4726
vn -0.8191 -0.0580 -0.5707
vn -0.8582 -0.0000 -0.5133
vn 0.4892 -0.8233 0.2878
vn -0.3350 -0.5091 -0.7928
vn -0.3352 -0.5090 -0.7928
vn -0.7570 0.2007 0.6219
vn -0.3351 -0.5090 -0.7929
vn -0.3353 -0.5089 -0.7929
vn -0.3352 -0.5089 -0.7929
vn -0.8190 -0.0580 -0.5708
vn 0.4893 -0.8232 0.2880
vn 0.8189 0.5661 -0.0949
vn 0.7531 0.6028 -0.2636
vn 0.7535 0.6027 -0.2629
vn 0.7525 0.6033 -0.2641
vn 0.2528 0.9673 0.0212
vn -0.0000 0.0011 -1.0000
vn 0.7676 0.6409 -0.0002
vn -0.7071 -0.0000 -0.7071
vn -0.0304 0.0304 -0.9991
vn -0.0000 0.0224 0.9997
vn -0.0628 0.0176 -0.9979
vn 0.0232 0.9997 -0.0046
vn -0.0000 0.0035 1.0000
vn -0.0210 0.9998 0.0041
vn -0.0167 0.0076 -0.9998
vn -0.0000 -0.7074 -0.7068
vn -0.0075 0.0195 0.9998
vn -0.0549 -0.9984 -0.0108
vn -0.7645 -0.6446 0.0073
vn -0.0000 0.9999 0.0131
vn -0.0000 -0.9999 0.0131
vn -0.8147 -0.5210 0.2545
vn 0.8001 0.0067 0.5998
vn -0.6126 0.0075 -0.7904
vn -0.9755 -0.0148 0.2196
vn -0.4840 0.8335 -0.2665
vn 0.6752 -0.0085 0.7376
vn -0.7730 0.0059 -0.6344
vn -0.9999 -0.0072 -0.0115
vn 0.6532 0.2708 -0.7071
vn -0.0418 -0.4035 -0.9140
vn -0.7505 0.6399 0.1655
vn 0.5872 -0.7178 0.3740
vn 0.3368 0.8859 0.3191
vn 0.5461 0.6656 0.5087
vn 1.0000 -0.0001 -0.0015
vn -0.4840 0.8335 -0.2664
vn -0.0419 -0.4035 -0.9140
vn -0.7505 0.6398 0.1655
vn 0.5872 -0.7178 0.3741
vn 0.3365 0.8853 0.3210
vn 0.5410 0.6593 0.5221
vn -0.0000 0.9980 0.0626
vn 0.9998 0.0188 -0.0000
vn 0.9137 -0.4065 -0.0000
vn -0.0009 -0.7079 0.7063
vn -0.9999 -0.0105 0.0007
vn 0.6989 -0.0134 0.7151
vn 0.0081 -0.0081 0.9999
vn -0.0074 0.0043 -1.0000
vn -0.0180 -0.0004 -0.9998
vn 0.3349 -0.9399 0.0664
vn 0.6060 0.0038 0.7955
vn 0.8538 0.0057 -0.5206
vn -0.1089 -0.0000 -0.9941
vn 0.7943 0.0039 -0.6075
vn 0.4661 -0.0005 -0.8847
vn -0.9488 0.0028 -0.3158
vn 0.2492 0.5167 0.8191
vn 0.6144 -0.5291 -0.5854
vn -0.4661 -0.0000 0.8848
vn 0.1735 -0.1736 -0.9694
vn -0.4452 -0.0000 -0.8954
vn 0.6061 0.0038 0.7954
vn 0.2491 0.5167 0.8191
vn 0.6144 -0.5290 -0.5854
vt 0.237500 0.811551
vt 0.237500 0.918187
vt 0.222268 0.918190
vt 0.222268 0.811554
vt 0.428349 0.255207
vt 0.428348 0.255453
vt 0.428103 0.255207
vt 0.991574 0.369714
vt 0.991491 0.369851
vt 0.991154 0.369934
vt 0.004697 0.993897
vt 0.004883 0.994058
vt 0.004542 0.994058
vt 0.004788 0.455796
vt 0.004542 0.455797
vt 0.004788 0.455551
vt 0.004542 0.255206
vt 0.004836 0.255206
vt 0.004788 0.255451
vt 0.221054 0.452559
vt 0.220760 0.452602
vt 0.220760 0.452360
vt 0.254962 0.255453
vt 0.254962 0.255207
vt 0.255208 0.255207
vt 0.198621 0.255075
vt 0.198873 0.255077
vt 0.198621 0.255321
vt 0.189242 0.455796
vt 0.189536 0.455797
vt 0.189291 0.456042
vt 0.198922 0.455664
vt 0.198621 0.455662
vt 0.198622 0.455417
vt 0.189291 0.255206
vt 0.189536 0.255206
vt 0.189291 0.255451
vt 0.433907 0.255208
vt 0.434152 0.255207
vt 0.433907 0.255453
vt 0.868049 0.678450
vt 0.868328 0.678697
vt 0.867875 0.678697
vt 0.096488 0.980147
vt 0.097925 0.979783
vt 0.097676 0.979753
vt 0.993997 0.379880
vt 0.993833 0.379437
vt 0.993689 0.379731
vt 0.416732 0.583999
vt 0.416493 0.584408
vt 0.417011 0.584231
vt 0.224417 0.589665
vt 0.224178 0.590074
vt 0.224696 0.589897
vt 0.391073 0.980052
vt 0.392510 0.979689
vt 0.392261 0.979659
vt 0.993997 0.389508
vt 0.993833 0.389065
vt 0.993689 0.389359
vt 0.417431 0.600207
vt 0.417710 0.600453
vt 0.417257 0.600453
vt 0.189348 0.744277
vt 0.189103 0.917651
vt 0.189103 0.743872
vt 0.211674 0.254828
vt 0.211385 0.249403
vt 0.211674 0.249515
vt 0.936374 0.381219
vt 0.936946 0.429060
vt 0.936166 0.429112
vt 0.987085 0.796144
vt 0.986857 0.800245
vt 0.986847 0.796062
vt 0.934722 0.455057
vt 0.930736 0.455292
vt 0.930860 0.455056
vt 0.923134 0.004795
vt 0.923025 0.201833
vt 0.922888 0.004740
vt 0.919159 0.677475
vt 0.919052 0.877547
vt 0.918919 0.677460
vt 0.010101 0.455703
vt 0.990016 0.049788
vt 0.989615 0.062597
vt 0.989770 0.049693
vt 0.433907 0.455553
vt 0.428349 0.455798
vt 0.428103 0.455799
vt 0.428484 0.255207
vt 0.233819 0.255273
vt 0.233572 0.452553
vt 0.233524 0.254989
vt 0.221005 0.254995
vt 0.010186 0.255320
vt 0.010346 0.455552
vt 0.249404 0.455553
vt 0.254827 0.455798
vt 0.249404 0.455798
vt 0.183930 0.255344
vt 0.050007 0.961646
vt 0.049875 0.974162
vt 0.049870 0.961645
vt 0.249404 0.255453
vt 0.254831 0.255207
vt 0.183866 0.455647
vt 0.183732 0.255452
vt 0.211674 0.255318
vt 0.211437 0.455662
vt 0.211387 0.255075
vt 0.897721 0.628440
vt 0.885205 0.628367
vt 0.897907 0.628195
vt 0.004653 0.461415
vt 0.432671 0.894585
vt 0.427030 0.709989
vt 0.427275 0.709989
vt 0.189384 0.249565
vt 0.004788 0.249710
vt 0.434041 0.249589
vt 0.249452 0.255208
vt 0.249284 0.249622
vt 0.028586 0.984665
vt 0.029224 0.984449
vt 0.028927 0.985814
vt 0.867973 0.800981
vt 0.867847 0.802372
vt 0.867865 0.801548
vt 0.096665 0.982052
vt 0.096219 0.981547
vt 0.097599 0.981435
vt 0.095892 0.981560
vt 0.005866 0.982157
vt 0.005238 0.982391
vt 0.004726 0.982824
vt 0.867296 0.678695
vt 0.867872 0.678365
vt 0.417177 0.583910
vt 0.417862 0.584032
vt 0.393325 0.465300
vt 0.393768 0.465046
vt 0.393767 0.465243
vt 0.749409 0.530293
vt 0.748351 0.530156
vt 0.749759 0.529906
vt 0.867447 0.801776
vt 0.867309 0.801530
vt 0.747600 0.528281
vt 0.748640 0.528332
vt 0.747527 0.528586
vt 0.392880 0.465389
vt 0.868328 0.801979
vt 0.159218 0.985816
vt 0.159856 0.985600
vt 0.159559 0.986965
vt 0.417355 0.722737
vt 0.417229 0.724128
vt 0.417247 0.723305
vt 0.391251 0.981957
vt 0.390804 0.981453
vt 0.392185 0.981340
vt 0.390477 0.981466
vt 0.878651 0.978562
vt 0.878023 0.978795
vt 0.877511 0.979228
vt 0.416678 0.600451
vt 0.417253 0.600121
vt 0.224862 0.589575
vt 0.225547 0.589698
vt 0.201010 0.470965
vt 0.201453 0.470712
vt 0.201452 0.470909
vt 0.760820 0.530293
vt 0.759762 0.530156
vt 0.761170 0.529906
vt 0.416829 0.723532
vt 0.416691 0.723287
vt 0.759011 0.528281
vt 0.760051 0.528332
vt 0.758938 0.528586
vt 0.200565 0.471055
vt 0.417710 0.723735
vt 0.915068 0.887019
vt 0.915746 0.934932
vt 0.914887 0.934886
vt 0.909609 0.004544
vt 0.903775 0.239972
vt 0.903772 0.004543
vt 0.909534 0.239911
vt 0.905593 0.677460
vt 0.905558 0.909308
vt 0.899807 0.909306
vt 0.484444 0.004626
vt 0.249159 0.240235
vt 0.249159 0.004658
vt 0.432950 0.464970
vt 0.427200 0.700497
vt 0.427274 0.464980
vt 0.239829 0.240234
vt 0.004542 0.004626
vt 0.239911 0.004701
vt 0.433035 0.700512
vt 0.899918 0.677460
vt 0.004543 0.240160
vt 0.913272 0.249628
vt 0.907510 0.484972
vt 0.907479 0.249629
vt 0.913272 0.484909
vt 0.484444 0.240203
vt 0.719938 0.677460
vt 0.586158 0.858291
vt 0.586158 0.677489
vt 0.719938 0.858262
vt 0.809909 0.004542
vt 0.809857 0.205982
vt 0.675923 0.205950
vt 0.443390 0.463626
vt 0.624450 0.668181
vt 0.443408 0.668212
vt 0.577055 0.677461
vt 0.443243 0.858441
vt 0.443254 0.677460
vt 0.577061 0.858383
vt 0.767460 0.249493
vt 0.767467 0.454154
vt 0.633695 0.454237
vt 0.624432 0.463595
vt 0.676072 0.004542
vt 0.624450 0.454153
vt 0.443390 0.249598
vt 0.624432 0.249567
vt 0.443408 0.454184
vt 0.633691 0.249578
vt 0.926467 0.249460
vt 0.922357 0.423005
vt 0.922602 0.249631
vt 0.926708 0.422507
vt 0.918781 0.202064
vt 0.493782 0.004674
vt 0.666693 0.205057
vt 0.493779 0.204955
vt 0.930785 0.628263
vt 0.934722 0.455302
vt 0.934722 0.628197
vt 0.428509 0.455769
vt 0.212932 0.604882
vt 0.212945 0.805471
vt 0.213183 0.805470
vt 0.968921 0.381801
vt 0.974368 0.394571
vt 0.968946 0.394326
vt 0.200137 0.805213
vt 0.200375 0.605116
vt 0.212938 0.604884
vt 0.918781 0.004742
vt 0.919027 0.004542
vt 0.915059 0.877802
vt 0.666698 0.004688
vt 0.915113 0.877803
vt 0.914813 0.677461
vt 0.254962 0.455553
vt 0.907349 0.499048
vt 0.912661 0.499295
vt 0.913152 0.512351
vt 0.907104 0.511811
vt 0.907104 0.499294
vt 0.222497 0.802423
vt 0.222512 0.802182
vt 0.222564 0.604882
vt 0.969189 0.094704
vt 0.974321 0.107587
vt 0.968907 0.107216
vt 0.235081 0.605080
vt 0.235388 0.802277
vt 0.894687 0.004787
vt 0.894687 0.004788
vt 0.881629 0.004788
vt 0.189291 0.461355
vt 0.220948 0.458121
vt 0.233572 0.458135
vt 0.974614 0.381807
vt 0.974614 0.394326
vt 0.233632 0.249522
vt 0.890469 0.862195
vt 0.877707 0.862442
vt 0.877413 0.862148
vt 0.432678 0.709868
vt 0.189291 0.455551
vt 0.044448 0.961400
vt 0.044203 0.974164
vt 0.044202 0.961646
vt 0.897883 0.443613
vt 0.885245 0.443517
vt 0.198759 0.249458
vt 0.211673 0.255073
vt 0.211437 0.461329
vt 0.198812 0.461230
vt 0.898127 0.249535
vt 0.885449 0.434300
vt 0.885488 0.249436
vt 0.898081 0.434251
vt 0.221005 0.249413
vt 0.776561 0.249382
vt 0.821796 0.513589
vt 0.776561 0.513579
vt 0.876098 0.526748
vt 0.830897 0.526810
vt 0.830902 0.392826
vt 0.821796 0.249392
vt 0.249314 0.465027
vt 0.383212 0.729462
vt 0.249252 0.729382
vt 0.004698 0.470693
vt 0.136637 0.470812
vt 0.136580 0.735262
vt 0.004636 0.735143
vt 0.876103 0.392764
vt 0.145814 0.470550
vt 0.191052 0.734787
vt 0.145814 0.734787
vt 0.191052 0.470549
vt 0.383274 0.465107
vt 0.830902 0.249528
vt 0.876103 0.249465
vt 0.876098 0.383449
vt 0.830897 0.383512
vt 0.102865 0.872201
vt 0.095736 0.925392
vt 0.095693 0.872202
vt 0.872487 0.147632
vt 0.819215 0.147768
vt 0.819143 0.004734
vt 0.102738 0.925514
vt 0.130778 0.744777
vt 0.123620 0.887483
vt 0.123643 0.744583
vt 0.130749 0.887675
vt 0.756767 0.465445
vt 0.749679 0.518693
vt 0.749767 0.465323
vt 0.872415 0.004597
vt 0.356008 0.738884
vt 0.409352 0.881781
vt 0.356080 0.881918
vt 0.935451 0.677710
vt 0.935425 0.818473
vt 0.928290 0.818377
vt 0.409280 0.738747
vt 0.756679 0.518815
vt 0.928317 0.677540
vt 0.833790 0.677461
vt 0.833832 0.805788
vt 0.729043 0.805860
vt 0.729052 0.677460
vt 0.738425 0.539701
vt 0.633705 0.668279
vt 0.633697 0.539780
vt 0.738433 0.668200
vt 0.346670 0.738693
vt 0.249179 0.858025
vt 0.249185 0.738692
vt 0.346714 0.857953
vt 0.845009 0.539701
vt 0.747544 0.659211
vt 0.747536 0.539780
vt 0.845018 0.659131
vt 0.620527 0.867481
vt 0.620752 0.986229
vt 0.620300 0.986264
vt 0.586618 0.867535
vt 0.586943 0.986107
vt 0.586304 0.986107
vt 0.679220 0.867476
vt 0.679446 0.986236
vt 0.678994 0.986268
vt 0.299806 0.867410
vt 0.300082 0.985937
vt 0.299381 0.985937
vt 0.259695 0.867410
vt 0.259971 0.985937
vt 0.259270 0.985937
vt 0.630309 0.867476
vt 0.630535 0.986236
vt 0.630082 0.986268
vt 0.689002 0.867476
vt 0.689229 0.986236
vt 0.688776 0.986268
vt 0.309833 0.867410
vt 0.310109 0.985937
vt 0.309408 0.985937
vt 0.596695 0.867579
vt 0.596971 0.986107
vt 0.596270 0.986107
vt 0.640091 0.867476
vt 0.640317 0.986236
vt 0.639865 0.986268
vt 0.319861 0.867410
vt 0.320137 0.985937
vt 0.319436 0.985937
vt 0.698785 0.867476
vt 0.699010 0.986236
vt 0.698558 0.986268
vt 0.649873 0.867476
vt 0.650099 0.986236
vt 0.649647 0.986268
vt 0.329889 0.867410
vt 0.330165 0.985937
vt 0.329464 0.985937
vt 0.269642 0.867329
vt 0.269999 0.985937
vt 0.269298 0.985937
vt 0.708567 0.867476
vt 0.708793 0.986236
vt 0.708340 0.986268
vt 0.279750 0.867410
vt 0.280027 0.985937
vt 0.279325 0.985937
vt 0.659656 0.867476
vt 0.659881 0.986236
vt 0.659429 0.986268
vt 0.339916 0.867410
vt 0.340192 0.985937
vt 0.339491 0.985937
vt 0.718349 0.867476
vt 0.718575 0.986236
vt 0.718123 0.986268
vt 0.669438 0.867476
vt 0.669664 0.986236
vt 0.669211 0.986268
vt 0.249587 0.867329
vt 0.249944 0.985937
vt 0.249243 0.985937
vt 0.289778 0.867410
vt 0.290054 0.985937
vt 0.289353 0.985937
vt 0.443463 0.867736
vt 0.443689 0.986497
vt 0.443237 0.986529
vt 0.213183 0.814555
vt 0.198855 0.921137
vt 0.198759 0.814559
vt 0.213039 0.921210
vt 0.921436 0.521584
vt 0.907198 0.628294
vt 0.907250 0.521509
vt 0.921383 0.628370
vt 0.675984 0.215340
vt 0.681021 0.215317
vt 0.681189 0.232524
vt 0.871365 0.539814
vt 0.854172 0.648217
vt 0.854189 0.539793
vt 0.871348 0.648237
vt 0.814998 0.815315
vt 0.815009 0.923585
vt 0.809598 0.923588
vt 0.675823 0.232547
vt 0.829524 0.815315
vt 0.829534 0.923585
vt 0.824124 0.923588
vt 0.824113 0.815318
vt 0.690447 0.215342
vt 0.695590 0.215353
vt 0.695575 0.232533
vt 0.860321 0.811744
vt 0.843131 0.920143
vt 0.843148 0.811727
vt 0.860304 0.920159
vt 0.809588 0.815318
vt 0.690464 0.232586
vt 0.004601 0.744671
vt 0.038687 0.825922
vt 0.004665 0.826044
vt 0.038623 0.744549
vt 0.606313 0.867479
vt 0.611166 0.867666
vt 0.611134 0.948890
vt 0.431962 0.904022
vt 0.427086 0.938083
vt 0.427150 0.903930
vt 0.748314 0.902696
vt 0.748251 0.936848
vt 0.743438 0.936757
vt 0.932311 0.142498
vt 0.937205 0.223878
vt 0.932264 0.223692
vt 0.145872 0.744053
vt 0.179960 0.825308
vt 0.145936 0.825438
vt 0.179897 0.743923
vt 0.937252 0.142680
vt 0.431898 0.938175
vt 0.606254 0.948704
vt 0.743502 0.902604
vt 0.085736 0.744714
vt 0.114455 0.820443
vt 0.085746 0.820462
vt 0.047863 0.744711
vt 0.076583 0.820445
vt 0.047873 0.820470
vt 0.076574 0.744686
vt 0.114445 0.744695
vt 0.018628 0.877807
vt 0.019309 0.953654
vt 0.017941 0.953696
vt 0.944701 0.586884
vt 0.945442 0.662725
vt 0.944059 0.662768
vt 0.222352 0.967468
vt 0.224618 0.967494
vt 0.224597 0.981595
vt 0.222326 0.981570
vt 0.159294 0.961887
vt 0.161597 0.961912
vt 0.161574 0.976009
vt 0.159271 0.975983
vt 0.017189 0.963094
vt 0.019455 0.963120
vt 0.019434 0.977221
vt 0.017163 0.977196
vt 0.074213 0.962353
vt 0.076493 0.976475
vt 0.074189 0.976450
vt 0.076516 0.962378
vt 0.904921 0.918696
vt 0.899567 0.949626
vt 0.899575 0.918687
vt 0.729158 0.815193
vt 0.760079 0.815192
vt 0.760081 0.853340
vt 0.889332 0.198620
vt 0.894682 0.236643
vt 0.889336 0.236633
vt 0.894688 0.198621
vt 0.904914 0.949634
vt 0.709492 0.465378
vt 0.740415 0.465371
vt 0.740417 0.503525
vt 0.709494 0.503533
vt 0.123572 0.896852
vt 0.128847 0.934756
vt 0.123572 0.934754
vt 0.128847 0.896855
vt 0.848421 0.929570
vt 0.843072 0.960352
vt 0.843074 0.929561
vt 0.729159 0.853341
vt 0.848408 0.960354
vt 0.004565 0.835286
vt 0.030212 0.868462
vt 0.004553 0.868373
vt 0.030222 0.835378
vt 0.085723 0.829843
vt 0.111461 0.829918
vt 0.111530 0.862862
vt 0.085713 0.862934
vt 0.388751 0.934766
vt 0.390316 0.934766
vt 0.389530 0.970374
vt 0.965792 0.587631
vt 0.967277 0.587589
vt 0.966579 0.623227
vt 0.367051 0.934766
vt 0.368616 0.934766
vt 0.368598 0.970352
vt 0.809825 0.933104
vt 0.811390 0.968679
vt 0.809835 0.968722
vt 0.811311 0.933062
vt 0.367061 0.970395
vt 0.377901 0.934766
vt 0.379466 0.934766
vt 0.378680 0.970374
vt 0.210993 0.930530
vt 0.212479 0.930488
vt 0.211779 0.966127
vt 0.399700 0.891243
vt 0.391305 0.925333
vt 0.391281 0.891271
vt 0.867840 0.157094
vt 0.867864 0.191155
vt 0.859445 0.191183
vt 0.859421 0.157122
vt 0.399724 0.925305
vt 0.769436 0.815193
vt 0.800358 0.853340
vt 0.769437 0.853341
vt 0.800356 0.815192
vt 0.729023 0.902496
vt 0.734297 0.902498
vt 0.734297 0.940400
vt 0.151173 0.917082
vt 0.145819 0.948011
vt 0.145826 0.917073
vt 0.227619 0.927407
vt 0.222278 0.958191
vt 0.222272 0.927400
vt 0.819222 0.157060
vt 0.850146 0.195206
vt 0.819223 0.195214
vt 0.850145 0.157052
vt 0.729023 0.940397
vt 0.408864 0.891057
vt 0.414219 0.891058
vt 0.414213 0.929080
vt 0.408868 0.929070
vt 0.227614 0.958191
vt 0.151165 0.948020
vt 0.145837 0.834672
vt 0.171484 0.867849
vt 0.145825 0.867760
vt 0.171494 0.834764
vt 0.819108 0.204540
vt 0.844914 0.237559
vt 0.819098 0.237631
vt 0.844845 0.204615
vt 0.965792 0.632613
vt 0.967277 0.632571
vt 0.966579 0.668210
vt 0.968927 0.004705
vt 0.970491 0.004705
vt 0.969705 0.040313
vt 0.968830 0.403819
vt 0.970395 0.403819
vt 0.969609 0.439426
vt 0.356199 0.934762
vt 0.357684 0.934719
vt 0.356986 0.970358
vt 0.824350 0.932859
vt 0.825836 0.932817
vt 0.825138 0.968455
vt 0.095713 0.934861
vt 0.097278 0.934860
vt 0.096492 0.970468
vt 0.364425 0.891243
vt 0.364449 0.925305
vt 0.356030 0.925333
vt 0.356006 0.891271
vt 0.382063 0.891243
vt 0.373668 0.925333
vt 0.373644 0.891271
vt 0.382087 0.925305
vt 0.782808 0.240027
vt 0.781455 0.240053
vt 0.782123 0.215376
vt 0.030307 0.985148
vt 0.966361 0.455059
vt 0.966800 0.455056
vt 0.967246 0.577891
vt 0.006457 0.983730
vt 0.966361 0.578388
vt 0.416899 0.584919
vt 0.956359 0.983997
vt 0.957890 0.984786
vt 0.956543 0.985748
vt 0.392786 0.589477
vt 0.392584 0.588472
vt 0.416668 0.583774
vt 0.706105 0.240170
vt 0.704853 0.240031
vt 0.705599 0.215401
vt 0.729556 0.984242
vt 0.731048 0.985019
vt 0.729797 0.985936
vt 0.739309 0.240169
vt 0.738057 0.240031
vt 0.738867 0.215372
vt 0.772057 0.240027
vt 0.770705 0.240053
vt 0.771383 0.215379
vt 0.868155 0.801780
vt 0.747832 0.528250
vt 0.749657 0.528809
vt 0.171577 0.951677
vt 0.172229 0.951923
vt 0.171648 0.951384
vt 0.171932 0.976461
vt 0.170907 0.951923
vt 0.171313 0.951923
vt 0.749693 0.529285
vt 0.392451 0.465508
vt 0.170907 0.976460
vt 0.005943 0.984228
vt 0.004909 0.984305
vt 0.005615 0.984624
vt 0.059976 0.952910
vt 0.059735 0.829996
vt 0.061036 0.829997
vt 0.956294 0.578245
vt 0.955387 0.455305
vt 0.956436 0.455303
vt 0.955613 0.578143
vt 0.416369 0.584283
vt 0.044747 0.983901
vt 0.046227 0.984672
vt 0.044976 0.985589
vt 0.200471 0.595143
vt 0.200269 0.594138
vt 0.224353 0.589440
vt 0.224584 0.590585
vt 0.750555 0.240027
vt 0.749203 0.240053
vt 0.749870 0.215376
vt 0.728241 0.240170
vt 0.726989 0.240031
vt 0.727734 0.215401
vt 0.160938 0.986299
vt 0.878728 0.980633
vt 0.877694 0.980709
vt 0.878400 0.981028
vt 0.224054 0.589949
vt 0.200137 0.471174
vt 0.717173 0.240170
vt 0.715921 0.240031
vt 0.716731 0.215372
vt 0.059625 0.984298
vt 0.061116 0.985075
vt 0.059865 0.985992
vt 0.730048 0.974561
vt 0.729023 0.974561
vt 0.729023 0.950023
vt 0.729693 0.949778
vt 0.730345 0.950023
vt 0.729764 0.949484
vt 0.417536 0.723537
vt 0.729429 0.950024
vt 0.761306 0.240027
vt 0.759954 0.240053
vt 0.760632 0.215379
vt 0.759242 0.528250
vt 0.761066 0.528809
vt 0.966839 0.677463
vt 0.967724 0.800295
vt 0.966839 0.800791
vt 0.879242 0.980135
vt 0.761103 0.529285
vt 0.071044 0.952910
vt 0.070799 0.829996
vt 0.072110 0.829997
vt 0.956772 0.800648
vt 0.956091 0.800547
vt 0.955865 0.677709
vt 0.956914 0.677707
vt 0.967278 0.677460
vt 0.854269 0.665135
vt 0.854266 0.659638
vt 0.861252 0.659692
vt 0.715375 0.513275
vt 0.718930 0.517366
vt 0.714201 0.521787
vt 0.709657 0.516533
vt 0.799554 0.529453
vt 0.795484 0.529588
vt 0.795296 0.522685
vt 0.799554 0.522692
vt 0.808641 0.528022
vt 0.815404 0.524594
vt 0.815407 0.529827
vt 0.782914 0.529725
vt 0.777828 0.529756
vt 0.778146 0.522818
vt 0.782552 0.522798
vt 0.808641 0.522673
vt 0.736300 0.514480
vt 0.731028 0.521266
vt 0.729719 0.514443
vt 0.861161 0.665349
vt 0.737305 0.519753
vt 0.493773 0.214218
vt 0.509705 0.237230
vt 0.493773 0.237227
vt 0.509705 0.214221
vt 0.901202 0.637716
vt 0.901202 0.668150
vt 0.885218 0.668172
vt 0.752447 0.862778
vt 0.752447 0.893222
vt 0.729171 0.893208
vt 0.885217 0.637737
vt 0.729172 0.862764
vt 0.161809 0.877219
vt 0.161812 0.907653
vt 0.145828 0.907676
vt 0.854225 0.235072
vt 0.877504 0.204646
vt 0.877504 0.235092
vt 0.854226 0.204626
vt 0.145824 0.877242
vt 0.518790 0.214218
vt 0.534482 0.237243
vt 0.518790 0.237236
vt 0.534482 0.214226
vt 0.549499 0.230211
vt 0.544704 0.226348
vt 0.544585 0.218432
vt 0.551618 0.214274
vt 0.558650 0.218429
vt 0.558475 0.226357
vt 0.553836 0.230294
vt 0.578953 0.230211
vt 0.572869 0.229263
vt 0.568898 0.222520
vt 0.572819 0.215350
vt 0.580986 0.215433
vt 0.584755 0.222463
vt 0.582751 0.228113
vt 0.987389 0.858615
vt 0.987597 0.873634
vt 0.987181 0.873666
vt 0.987327 0.701738
vt 0.987585 0.716524
vt 0.986920 0.716523
vt 0.987800 0.118544
vt 0.988014 0.133386
vt 0.987514 0.133446
vt 0.984518 0.379582
vt 0.984156 0.394416
vt 0.983944 0.379433
vt 0.987597 0.882918
vt 0.987389 0.897969
vt 0.987181 0.882950
vt 0.987659 0.725854
vt 0.987252 0.740598
vt 0.986995 0.725770
vt 0.986850 0.538856
vt 0.987108 0.553642
vt 0.986443 0.553641
vt 0.987389 0.907254
vt 0.987597 0.922272
vt 0.987181 0.922304
vt 0.858332 0.972983
vt 0.857926 0.987727
vt 0.857668 0.972899
vt 0.867917 0.972821
vt 0.867709 0.987872
vt 0.867501 0.972853
vt 0.987327 0.677664
vt 0.987585 0.692450
vt 0.986920 0.692449
vt 0.987389 0.834296
vt 0.987597 0.849314
vt 0.987181 0.849346
vt 0.843130 0.969650
vt 0.846123 0.982288
vt 0.843143 0.982306
vt 0.846111 0.969632
vt 0.922417 0.432299
vt 0.925410 0.444940
vt 0.922430 0.444958
vt 0.925398 0.432281
vt 0.004599 0.952248
vt 0.007387 0.972833
vt 0.004631 0.972867
vt 0.794837 0.236060
vt 0.792049 0.215474
vt 0.794805 0.215440
vt 0.792081 0.236093
vt 0.007355 0.952214
vt 0.145871 0.957454
vt 0.148659 0.978040
vt 0.145903 0.978073
vt 0.806824 0.236060
vt 0.804036 0.215473
vt 0.806792 0.215440
vt 0.804068 0.236093
vt 0.148627 0.957421
vt 0.945960 0.799819
vt 0.944582 0.799818
vt 0.944582 0.677705
vt 0.946081 0.677706
vt 0.982162 0.439966
vt 0.981128 0.441694
vt 0.979914 0.439849
vt 0.930421 0.949983
vt 0.928965 0.950157
vt 0.928853 0.827911
vt 0.930421 0.827914
vt 0.946680 0.126904
vt 0.944931 0.126885
vt 0.944951 0.004708
vt 0.946413 0.004654
vt 0.932937 0.239836
vt 0.932428 0.237734
vt 0.934628 0.238317
vt 0.948892 0.443242
vt 0.947858 0.444970
vt 0.946644 0.443125
vt 0.050007 0.952068
vt 0.048552 0.952242
vt 0.048439 0.829997
vt 0.050007 0.829999
vt 0.945960 0.931508
vt 0.944582 0.931507
vt 0.944582 0.809394
vt 0.935364 0.444776
vt 0.934855 0.442675
vt 0.937055 0.443258
vt 0.949123 0.371744
vt 0.947393 0.249548
vt 0.948856 0.249494
vt 0.947373 0.371725
vt 0.946081 0.809395
vt 0.671621 0.465323
vt 0.700176 0.530422
vt 0.671642 0.530463
vt 0.914506 0.637726
vt 0.914530 0.666317
vt 0.910358 0.666348
vt 0.700155 0.465281
vt 0.171001 0.877129
vt 0.175166 0.942195
vt 0.170976 0.942176
vt 0.633785 0.465323
vt 0.662342 0.530425
vt 0.633806 0.530473
vt 0.662321 0.465275
vt 0.175191 0.877149
vt 0.922986 0.211388
vt 0.923010 0.239979
vt 0.918838 0.240010
vt 0.910334 0.637757
vt 0.004642 0.877745
vt 0.008746 0.942835
vt 0.004620 0.942815
vt 0.008771 0.877766
vt 0.918813 0.211419
vt 0.615763 0.214419
vt 0.628180 0.232156
vt 0.615767 0.232180
vt 0.034530 0.962769
vt 0.034500 0.975052
vt 0.028624 0.975050
vt 0.628177 0.214394
vt 0.637404 0.214218
vt 0.643346 0.231885
vt 0.637416 0.231854
vt 0.593983 0.214418
vt 0.606401 0.232155
vt 0.593987 0.232182
vt 0.606398 0.214391
vt 0.643364 0.214219
vt 0.065035 0.962284
vt 0.065039 0.974770
vt 0.059109 0.974742
vt 0.652449 0.214218
vt 0.658319 0.231770
vt 0.652449 0.231767
vt 0.658319 0.214221
vt 0.059104 0.962257
vt 0.028599 0.962739
vt 0.991574 0.370188
vt 0.004883 0.993709
vt 0.220760 0.452843
vt 0.867997 0.677739
vt 0.867855 0.678801
vt 0.097788 0.980256
vt 0.097644 0.979722
vt 0.994099 0.379337
vt 0.993997 0.379879
vt 0.993951 0.379755
vt 0.392373 0.980161
vt 0.392229 0.979627
vt 0.994099 0.388965
vt 0.993997 0.389507
vt 0.993951 0.389383
vt 0.417379 0.599496
vt 0.417237 0.600558
vt 0.189332 0.917405
vt 0.946262 0.381213
vt 0.946778 0.381311
vt 0.946677 0.429182
vt 0.987085 0.800508
vt 0.922357 0.249386
vt 0.934722 0.628443
vt 0.990016 0.062851
vt 0.433907 0.455798
vt 0.968810 0.394326
vt 0.233819 0.452354
vt 0.220760 0.255279
vt 0.222758 0.802447
vt 0.050007 0.974213
vt 0.211676 0.455415
vt 0.427030 0.894492
vt 0.028933 0.984435
vt 0.843192 0.678363
vt 0.417026 0.585219
vt 0.095693 0.981762
vt 0.843183 0.801686
vt 0.172548 0.951858
vt 0.006058 0.982412
vt 0.867423 0.678450
vt 0.392775 0.464884
vt 0.748859 0.528150
vt 0.748406 0.528172
vt 0.867875 0.802025
vt 0.159565 0.985586
vt 0.392574 0.600120
vt 0.224711 0.590885
vt 0.390278 0.981668
vt 0.392564 0.723442
vt 0.730664 0.949958
vt 0.878843 0.978817
vt 0.416805 0.600206
vt 0.200460 0.470549
vt 0.760270 0.528150
vt 0.759817 0.528172
vt 0.417257 0.723781
vt 0.915759 0.887089
vt 0.213183 0.605129
vt 0.914813 0.877557
vt 0.254717 0.455799
vt 0.907349 0.512105
vt 0.881629 0.189241
vt 0.881874 0.004542
vt 0.894393 0.004542
vt 0.974320 0.381513
vt 0.877663 0.677462
vt 0.890180 0.677460
vt 0.877417 0.677708
vt 0.890474 0.677754
vt 0.890224 0.862440
vt 0.894442 0.189535
vt 0.894687 0.189290
vt 0.044497 0.974459
vt 0.974572 0.107347
vt 0.974572 0.094533
vt 0.006280 0.982342
vt 0.749713 0.529957
vt 0.005323 0.984489
vt 0.878108 0.980894
vt 0.761124 0.529957
vt 0.879065 0.978746
s 1
usemtl public_002_baked
f 2/1/1 1/2/1 3/3/1
f 2/1/1 3/3/1 4/4/1
f 22/5/2 24/6/2 25/7/2
f 31/8/3 33/9/3 34/10/3
f 35/11/4 37/12/4 38/13/4
f 41/14/5 43/15/5 44/16/5
f 47/17/6 49/18/6 46/19/6
f 51/20/7 53/21/8 50/22/7
f 57/23/2 59/24/2 56/25/2
f 63/26/9 64/27/9 65/28/9
f 69/29/10 71/30/10 68/31/10
f 76/32/11 77/33/11 75/34/11
f 78/35/12 79/36/12 80/37/12
f 81/38/13 82/39/13 83/40/13
f 234/41/14 235/42/14 236/43/14
f 244/44/15 245/45/15 247/46/15
f 251/47/16 253/48/16 254/49/16
f 263/50/17 265/51/17 266/52/17
f 275/53/17 277/54/17 279/55/17
f 285/56/18 289/57/19 291/58/20
f 299/59/16 301/60/16 302/61/16
f 305/62/14 306/63/14 307/64/14
f 34/65/21 38/66/21 31/67/21
f 68/68/22 66/69/22 67/70/22
f 313/71/23 315/72/24 314/73/25
f 30/74/26 37/75/26 29/76/26
f 22/77/27 27/78/27 28/79/27
f 57/23/2 25/7/2 24/6/2
f 27/80/28 21/81/29 28/82/30
f 29/83/31 26/84/32 30/85/33
f 39/86/34 41/14/35 44/16/35
f 40/87/36 31/88/36 39/89/36
f 50/90/37 33/91/37 32/92/37
f 83/40/38 23/93/38 81/38/38
f 46/94/39 43/95/39 47/96/39
f 50/22/7 82/97/40 51/20/7
f 45/98/41 40/99/42 39/86/43
f 65/100/44 36/101/44 63/102/44
f 54/103/45 78/35/46 80/37/46
f 55/104/47 58/105/47 54/106/47
f 75/107/48 58/108/48 57/23/48
f 60/109/49 55/110/50 54/103/51
f 70/111/52 79/112/52 71/113/52
f 75/34/53 64/27/53 76/32/53
f 66/114/54 61/115/55 67/116/56
f 42/117/57 69/29/58 68/31/59
f 61/118/60 53/119/61 52/120/62
f 72/121/63 49/18/64 48/122/65
f 74/123/66 77/124/67 73/125/68
f 237/126/69 266/127/70 232/128/71
f 242/129/72 244/130/73 243/131/74
f 248/132/75 254/133/75 242/134/75
f 244/44/73 254/133/76 253/135/77
f 235/136/78 257/137/79 256/138/80
f 268/139/81 231/140/81 236/43/82
f 264/141/83 256/142/83 265/51/83
f 250/143/84 261/144/84 260/145/84
f 251/146/85 258/147/85 252/148/85
f 243/131/86 258/149/87 259/150/88
f 245/151/89 270/152/89 246/153/89
f 251/154/90 264/141/90 263/50/90
f 247/155/91 236/43/91 235/42/91
f 280/156/92 279/157/70 273/158/93
f 286/159/72 285/160/94 288/161/95
f 287/162/75 302/163/75 286/164/75
f 285/56/94 302/163/76 301/165/96
f 306/166/78 309/167/79 293/168/80
f 308/169/97 304/170/97 307/64/97
f 276/171/83 293/172/83 277/54/83
f 298/173/84 303/174/84 295/175/84
f 299/176/98 294/177/98 300/178/98
f 288/161/99 294/179/87 296/180/88
f 289/181/89 311/182/89 290/183/89
f 299/184/90 276/171/90 275/53/90
f 291/185/91 307/64/91 306/63/91
f 312/186/100 314/187/25 315/188/24
f 5/189/101 9/190/102 7/191/103
f 5/189/101 11/192/104 9/190/102
f 12/193/105 5/194/101 7/195/103
f 12/196/105 11/197/104 5/198/101
f 10/199/106 6/200/107 8/201/108
f 7/202/103 8/203/108 6/204/107
f 10/199/106 12/205/105 6/200/107
f 12/193/105 7/195/103 6/206/107
f 7/202/103 9/207/102 8/203/108
f 11/208/104 8/209/108 9/210/102
f 11/208/104 10/211/106 8/209/108
f 12/196/105 10/212/106 11/197/104
f 13/213/109 18/214/110 16/215/111
f 13/213/109 17/216/112 18/214/110
f 15/217/113 13/218/109 16/219/111
f 15/220/113 17/221/112 13/222/109
f 14/223/114 20/224/115 19/225/116
f 14/223/114 15/226/113 20/224/115
f 17/227/112 14/228/114 19/229/116
f 15/220/113 14/230/114 17/221/112
f 15/217/113 16/219/111 20/231/115
f 16/232/111 19/233/116 20/234/115
f 16/232/111 18/235/110 19/233/116
f 17/227/112 19/229/116 18/236/110
f 21/237/29 38/238/117 34/239/118
f 21/237/29 29/240/31 38/238/117
f 28/82/119 21/81/120 33/241/121
f 27/242/28 29/243/31 21/244/29
f 26/245/32 25/246/122 56/247/123
f 32/92/124 31/248/124 24/6/124
f 25/249/125 33/250/125 32/251/125
f 45/252/126 81/253/127 23/254/128
f 50/90/129 24/6/129 83/40/129
f 40/255/42 45/256/41 22/257/130
f 50/90/129 33/91/129 24/6/129
f 26/245/32 27/78/28 25/246/122
f 28/82/131 24/258/131 25/259/131
f 30/85/132 26/84/133 59/260/134
f 27/242/28 26/261/32 29/243/31
f 59/260/135 58/262/135 37/263/135
f 31/248/129 37/264/129 57/23/129
f 41/265/136 39/266/137 32/267/138
f 51/268/1 43/269/1 32/267/138
f 35/270/139 37/271/139 58/272/139
f 60/273/140 63/274/141 36/275/142
f 37/264/129 65/100/129 75/107/129
f 55/276/50 60/277/49 35/270/143
f 37/264/129 75/107/129 57/23/129
f 46/19/144 39/86/34 44/16/35
f 46/19/144 45/98/145 39/86/34
f 47/96/90 43/95/90 51/20/90
f 52/278/90 53/279/90 41/280/90
f 42/117/146 68/31/147 67/281/148
f 43/95/149 62/282/149 51/20/149
f 43/95/150 42/283/146 62/282/151
f 45/252/126 47/284/152 82/285/153
f 48/286/154 47/96/154 82/97/154
f 47/96/90 51/20/90 82/97/90
f 78/287/1 76/288/1 77/289/1
f 62/290/151 61/118/155 52/120/156
f 54/103/45 80/37/46 70/291/157
f 78/292/158 54/106/159 58/105/160
f 54/103/45 70/291/157 60/109/161
f 76/293/162 79/294/162 58/105/160
f 42/295/146 61/115/155 62/296/151
f 42/295/146 67/116/148 61/115/155
f 66/69/54 64/27/163 61/297/55
f 66/69/164 69/298/164 64/27/164
f 71/113/165 79/112/165 76/32/165
f 79/112/166 72/299/63 73/300/68
f 72/301/63 74/302/66 73/303/68
f 72/301/63 48/304/65 74/302/66
f 79/112/167 73/300/167 76/32/167
f 48/286/65 82/97/168 74/305/66
f 87/306/169 84/307/170 85/308/171
f 85/309/171 84/310/170 91/311/172
f 87/306/169 89/312/173 84/307/170
f 89/313/165 91/314/165 84/315/165
f 90/316/90 87/317/90 85/318/90
f 90/316/90 85/318/90 88/319/90
f 85/309/171 91/311/172 88/320/174
f 86/321/175 88/322/174 91/323/172
f 86/321/175 90/324/176 88/322/174
f 89/313/165 86/325/165 91/314/165
f 90/326/176 86/327/175 89/328/173
f 90/326/176 89/328/173 87/329/169
f 95/330/177 92/331/178 96/332/179
f 96/333/129 92/334/129 93/335/129
f 95/330/177 97/336/180 92/331/178
f 97/337/180 93/338/181 92/339/178
f 97/337/180 98/340/182 93/338/181
f 98/341/182 99/342/183 93/343/181
f 96/333/129 93/335/129 99/344/129
f 94/345/184 97/346/184 95/347/184
f 94/348/185 95/349/177 96/350/179
f 94/345/184 98/351/184 97/346/184
f 98/341/182 94/352/185 99/342/183
f 94/348/185 96/350/179 99/353/183
f 102/354/186 100/355/187 101/356/188
f 102/354/186 101/356/188 103/357/189
f 100/358/187 103/359/189 101/360/188
f 100/358/187 102/361/186 103/359/189
f 104/362/190 107/363/191 106/364/192
f 104/362/190 105/365/193 107/363/191
f 105/366/193 106/367/192 107/368/191
f 105/366/193 104/369/190 106/367/192
f 109/370/194 108/371/194 110/372/194
f 109/373/194 110/374/194 108/375/194
f 111/376/194 113/377/194 112/378/194
f 111/379/194 112/380/194 113/381/194
f 116/382/194 114/383/194 115/384/194
f 116/385/194 115/386/194 114/387/194
f 119/388/194 118/389/194 117/390/194
f 119/391/194 117/392/194 118/393/194
f 121/394/194 120/395/194 122/396/194
f 121/397/194 122/398/194 120/399/194
f 124/400/194 123/401/194 125/402/194
f 124/403/194 125/404/194 123/405/194
f 126/406/194 128/407/194 127/408/194
f 126/409/194 127/410/194 128/411/194
f 130/412/194 129/413/194 131/414/194
f 130/415/194 131/416/194 129/417/194
f 133/418/194 132/419/194 134/420/194
f 133/421/194 134/422/194 132/423/194
f 137/424/194 135/425/194 136/426/194
f 137/427/194 136/428/194 135/429/194
f 139/430/194 138/431/194 140/432/194
f 139/433/194 140/434/194 138/435/194
f 142/436/194 141/437/194 143/438/194
f 142/439/194 143/440/194 141/441/194
f 144/442/195 147/443/196 146/444/197
f 144/442/195 145/445/198 147/443/196
f 145/446/198 146/447/197 147/448/196
f 145/446/198 144/449/195 146/447/197
f 153/450/199 148/451/200 149/452/201
f 148/453/202 152/454/203 149/455/204
f 148/453/202 155/456/205 152/454/203
f 155/457/206 148/458/200 153/459/199
f 153/450/199 149/452/201 154/460/207
f 151/461/208 154/462/207 149/463/201
f 151/461/208 149/463/201 152/464/209
f 155/465/206 150/466/210 151/467/208
f 150/468/211 154/469/212 151/470/213
f 150/468/211 153/471/214 154/469/212
f 155/457/206 153/459/199 150/472/210
f 155/465/206 151/467/208 152/473/209
f 156/474/215 157/475/216 161/476/217
f 156/474/215 160/477/218 157/475/216
f 159/478/219 156/479/220 161/480/221
f 159/481/219 160/482/222 156/483/220
f 161/484/221 157/485/223 162/486/224
f 160/487/222 162/488/224 157/489/223
f 158/490/225 163/491/226 162/492/227
f 158/490/225 159/493/228 163/491/226
f 160/487/222 158/494/229 162/488/224
f 159/481/219 158/495/229 160/482/222
f 159/478/219 161/480/221 163/496/230
f 161/484/221 162/486/224 163/497/230
f 166/498/231 165/499/232 164/500/233
f 167/501/234 164/502/233 165/503/232
f 167/501/234 166/504/231 164/502/233
f 166/498/231 167/505/234 165/499/232
f 168/506/194 169/507/194 170/508/194
f 168/509/194 170/510/194 169/511/194
f 172/512/235 174/513/236 171/514/237
f 172/512/235 171/514/237 173/515/238
f 174/516/236 172/517/235 173/518/238
f 174/516/236 173/518/238 171/519/237
f 176/520/235 175/521/236 177/522/237
f 176/520/235 177/522/237 178/523/238
f 175/524/236 178/525/238 177/526/237
f 175/524/236 176/527/235 178/525/238
f 181/528/239 179/529/240 184/530/241
f 184/531/1 179/532/242 185/533/1
f 179/534/240 186/535/243 185/536/244
f 179/534/240 180/537/245 186/535/243
f 181/528/239 180/538/245 179/529/240
f 180/539/162 181/540/246 182/541/162
f 180/539/162 182/541/162 186/542/247
f 181/543/239 183/544/248 182/545/249
f 181/543/239 184/546/241 183/544/248
f 183/547/248 186/548/243 182/549/249
f 184/531/1 185/533/1 183/550/250
f 183/547/248 185/551/244 186/548/243
f 187/552/251 190/553/252 189/554/253
f 187/552/251 188/555/254 190/553/252
f 188/556/254 187/557/251 189/558/253
f 188/556/254 189/558/253 190/559/252
f 192/560/194 191/561/194 193/562/194
f 191/563/194 192/564/194 193/565/194
f 197/566/255 194/567/256 195/568/257
f 194/569/256 196/570/258 195/571/257
f 194/569/256 197/572/255 196/570/258
f 197/566/255 195/568/257 196/573/258
f 200/574/194 198/575/194 199/576/194
f 198/577/194 200/578/194 199/579/194
f 204/580/259 202/581/260 201/582/261
f 201/583/261 202/584/260 203/585/262
f 201/583/261 203/585/262 204/586/259
f 204/580/259 203/587/262 202/581/260
f 205/588/1 208/589/1 212/590/250
f 205/588/1 210/591/242 208/589/1
f 211/592/239 205/593/241 212/594/248
f 211/595/239 210/596/240 205/597/241
f 212/598/248 207/599/243 206/600/249
f 209/601/162 206/602/162 207/603/247
f 209/601/162 211/604/246 206/602/162
f 211/592/239 212/594/248 206/605/249
f 210/606/240 209/607/245 207/608/243
f 210/606/240 207/608/243 208/609/244
f 212/598/248 208/610/244 207/599/243
f 211/595/239 209/611/245 210/596/240
f 215/612/263 213/613/264 214/614/253
f 215/612/263 216/615/265 213/613/264
f 216/616/265 214/617/253 213/618/264
f 216/616/265 215/619/263 214/617/253
f 217/620/194 218/621/194 219/622/194
f 218/623/194 217/624/194 219/625/194
f 222/626/194 220/627/194 221/628/194
f 220/629/194 222/630/194 221/631/194
f 223/632/194 225/633/194 224/634/194
f 225/635/194 223/636/194 224/637/194
f 229/638/266 226/639/267 228/640/268
f 229/638/266 228/640/268 227/641/269
f 227/642/269 226/643/267 229/644/266
f 227/642/269 228/645/268 226/643/267
f 230/646/270 238/647/271 232/648/272
f 232/128/71 266/127/70 233/649/273
f 235/650/274 256/651/275 269/652/276
f 235/136/277 262/653/278 257/137/279
f 268/139/280 236/43/281 247/155/282
f 235/650/283 269/652/283 246/654/283
f 265/51/284 266/52/284 237/655/284
f 230/656/270 239/657/285 238/658/271
f 238/659/271 239/660/285 233/661/286
f 239/662/285 230/663/270 233/664/286
f 240/665/287 255/666/288 241/667/289
f 255/668/288 240/669/287 244/670/290
f 240/671/287 241/672/289 242/673/291
f 244/44/73 242/134/72 254/133/76
f 243/131/292 247/155/292 245/674/292
f 258/147/293 247/675/293 245/151/293
f 268/139/280 247/155/282 259/150/88
f 260/676/294 245/151/295 270/152/296
f 254/677/297 248/678/297 252/679/297
f 241/680/289 244/681/290 253/682/298
f 261/683/299 251/146/299 252/148/299
f 256/142/275 250/143/300 260/145/301
f 260/676/294 252/148/302 258/147/303
f 256/142/275 264/141/304 250/143/300
f 263/50/305 258/684/87 251/154/306
f 241/680/289 255/685/288 244/681/290
f 257/137/279 262/653/278 267/686/307
f 267/686/308 264/687/308 265/688/308
f 257/137/79 265/688/309 256/138/80
f 256/689/275 260/690/301 269/691/276
f 262/692/310 259/693/88 258/694/87
f 262/692/310 268/695/280 259/693/88
f 263/50/305 262/696/310 258/684/87
f 272/697/270 281/698/285 271/699/271
f 271/700/271 281/701/285 278/702/286
f 277/54/311 279/55/311 280/703/311
f 272/704/270 271/705/271 273/706/272
f 281/707/285 272/708/270 278/709/286
f 273/158/93 279/157/70 278/710/312
f 292/711/308 276/712/308 277/713/308
f 275/53/313 274/714/310 294/715/87
f 309/167/79 277/713/309 293/168/80
f 293/172/314 276/171/304 298/173/300
f 275/53/313 294/715/87 299/184/315
f 282/716/288 283/717/287 285/718/290
f 283/719/287 282/720/288 284/721/289
f 284/722/289 282/723/288 285/724/290
f 302/725/316 287/726/316 300/727/316
f 288/161/317 291/185/317 289/728/317
f 284/722/289 285/724/290 301/729/298
f 283/730/287 284/731/289 286/732/291
f 285/56/94 286/164/72 302/163/76
f 294/177/318 291/733/318 289/181/318
f 308/169/280 291/185/282 296/180/88
f 295/734/319 289/181/295 311/182/320
f 308/169/280 307/64/281 291/185/282
f 306/735/321 310/736/321 290/737/321
f 309/167/279 274/738/278 292/711/307
f 293/172/314 298/173/300 295/175/322
f 295/734/319 300/178/302 294/177/303
f 303/739/299 299/176/299 300/178/299
f 293/740/314 295/741/322 310/742/323
f 274/743/310 308/744/280 296/745/88
f 274/743/310 296/745/88 294/746/87
f 306/735/324 293/747/314 310/736/323
f 306/166/277 274/738/278 309/167/279
f 322/748/325 316/749/326 323/750/327
f 316/751/326 322/752/325 317/753/328
f 316/751/326 317/753/328 318/754/329
f 316/755/326 318/756/329 320/757/330
f 316/755/326 320/757/330 323/758/327
f 317/759/328 319/760/331 321/761/332
f 318/762/329 317/763/328 321/764/332
f 318/762/329 321/764/332 320/765/330
f 317/759/328 322/766/325 319/760/331
f 320/767/330 319/768/331 323/769/327
f 322/748/325 323/750/327 319/770/331
f 320/767/330 321/771/332 319/768/331
f 324/772/333 331/773/334 325/774/335
f 324/772/333 326/775/336 331/773/334
f 330/776/337 326/777/336 324/778/333
f 328/779/338 324/780/333 325/781/335
f 330/776/337 324/778/333 328/782/338
f 328/779/338 325/781/335 329/783/339
f 329/784/339 325/785/335 331/786/334
f 326/787/336 327/788/340 331/789/334
f 326/787/336 330/790/337 327/788/340
f 329/784/339 331/786/334 327/791/340
f 330/792/337 329/793/339 327/794/340
f 330/792/337 328/795/338 329/793/339
f 334/796/341 338/797/342 332/798/343
f 334/796/341 332/798/343 333/799/344
f 334/796/341 333/799/344 335/800/345
f 334/796/341 335/800/345 336/801/346
f 334/796/341 336/801/346 337/802/347
f 337/803/347 336/804/346 335/805/345
f 337/803/347 335/805/345 333/806/344
f 337/803/347 333/806/344 332/807/343
f 337/803/347 332/807/343 338/808/342
f 337/803/347 338/808/342 334/809/341
f 339/810/194 340/811/194 341/812/194
f 339/813/194 341/814/194 340/815/194
f 344/816/348 342/817/349 343/818/350
f 342/819/349 344/820/348 343/821/350
f 346/822/194 347/823/194 345/824/194
f 345/825/194 347/826/194 346/827/194
f 349/828/194 348/829/194 350/830/194
f 349/831/194 350/832/194 348/833/194
f 352/834/129 353/835/351 351/836/351
f 351/837/351 353/838/351 352/839/129
f 355/840/194 354/841/194 356/842/194
f 355/843/194 356/844/194 354/845/194
f 357/846/352 360/847/353 359/848/354
f 357/846/352 358/849/355 360/847/353
f 358/850/355 359/851/354 360/852/353
f 358/850/355 357/853/352 359/851/354
f 363/854/356 364/855/357 361/856/358
f 361/857/358 362/858/359 363/859/356
f 361/857/358 364/860/357 362/858/359
f 363/854/356 362/861/359 364/855/357
f 366/862/356 368/863/357 365/864/358
f 365/865/358 367/866/359 366/867/356
f 365/865/358 368/868/357 367/866/359
f 366/862/356 367/869/359 368/863/357
f 370/870/360 369/871/361 374/872/362
f 370/870/360 374/872/362 373/873/363
f 369/874/361 370/875/360 371/876/364
f 369/877/361 371/878/364 372/879/365
f 369/877/361 372/879/365 374/880/362
f 371/881/364 370/882/360 373/883/363
f 371/881/364 373/883/363 372/884/365
f 372/885/365 373/886/363 374/887/362
f 375/888/361 378/889/360 376/890/364
f 375/891/361 376/892/364 377/893/365
f 375/891/361 377/893/365 380/894/362
f 378/895/360 375/896/361 380/897/362
f 377/898/365 379/899/363 380/900/362
f 376/901/364 379/902/363 377/903/365
f 376/901/364 378/904/360 379/902/363
f 378/895/360 380/897/362 379/905/363
f 387/906/366 381/907/367 385/908/368
f 385/909/368 381/910/367 388/911/369
f 387/906/366 386/912/370 381/907/367
f 386/913/370 388/914/369 381/915/367
f 382/916/371 383/917/372 388/918/369
f 382/916/371 384/919/373 383/917/372
f 386/913/370 382/920/371 388/914/369
f 384/921/373 382/922/371 386/923/370
f 385/909/368 388/911/369 383/924/372
f 384/925/373 385/926/368 383/927/372
f 384/925/373 387/928/366 385/926/368
f 384/921/373 386/923/370 387/929/366
f 396/930/374 389/931/375 393/932/376
f 393/933/376 389/934/375 395/935/377
f 396/930/374 394/936/378 389/931/375
f 394/937/378 395/938/377 389/939/375
f 390/940/379 392/941/380 395/942/377
f 390/940/379 391/943/381 392/941/380
f 394/937/378 390/944/379 395/938/377
f 391/945/381 390/946/379 394/947/378
f 391/948/381 393/949/376 392/950/380
f 391/948/381 396/951/374 393/949/376
f 391/945/381 394/947/378 396/952/374
f 393/933/376 395/935/377 392/953/380
f 22/5/2 23/93/2 24/6/2
f 31/8/382 32/954/382 33/9/382
f 35/11/383 36/955/383 37/12/383
f 41/14/384 42/117/146 43/15/150
f 47/17/385 48/122/385 49/18/385
f 51/20/386 52/956/386 53/21/386
f 57/23/387 58/108/387 59/24/387
f 63/26/388 61/297/55 64/27/163
f 69/29/389 70/291/389 71/30/389
f 76/32/390 73/300/390 77/33/390
f 78/35/391 72/121/63 79/36/166
f 81/38/392 74/123/66 82/39/168
f 236/43/393 231/140/393 234/41/393
f 231/140/394 232/957/395 234/41/396
f 232/957/71 233/958/273 234/41/397
f 247/46/398 243/959/398 244/44/398
f 245/45/399 246/960/399 247/46/399
f 249/961/400 250/962/400 251/47/400
f 251/47/165 252/963/165 253/48/165
f 254/49/401 249/961/401 251/47/401
f 266/52/402 262/696/403 263/50/403
f 263/50/90 264/141/90 265/51/90
f 265/51/404 233/661/273 266/52/70
f 279/55/405 274/714/406 275/53/407
f 275/53/90 276/171/90 277/54/90
f 277/54/404 278/702/312 279/55/70
f 291/58/398 288/964/398 285/56/398
f 289/57/408 290/965/408 291/58/408
f 297/966/400 298/967/400 299/59/400
f 299/59/165 300/968/165 301/60/165
f 302/61/409 297/966/409 299/59/409
f 307/64/410 304/170/410 305/62/410
f 304/170/411 273/969/412 305/62/413
f 273/969/93 278/970/312 305/62/414
f 34/65/415 35/971/415 38/66/415
f 68/68/416 71/113/416 66/69/416
f 313/972/23 312/973/100 315/974/24
f 30/74/417 38/975/417 37/75/417
f 34/239/418 33/976/418 21/237/418
f 22/77/419 25/246/419 27/78/419
f 26/245/32 56/247/123 59/977/123
f 57/23/2 56/25/2 25/7/2
f 40/87/420 32/978/420 31/88/420
f 50/90/129 53/979/129 33/91/129
f 45/98/145 46/19/144 49/18/421
f 45/252/126 23/254/128 22/980/422
f 83/40/2 24/6/2 23/93/2
f 46/94/5 44/981/5 43/95/5
f 50/22/13 83/982/13 82/97/13
f 60/109/161 70/291/157 69/29/423
f 36/983/424 35/270/424 60/277/424
f 65/100/425 37/264/425 36/101/425
f 55/104/426 59/984/426 58/105/426
f 75/107/427 77/124/427 58/108/427
f 70/111/12 80/985/12 79/112/12
f 75/34/9 65/28/9 64/27/9
f 42/117/57 41/14/57 69/29/58
f 61/118/60 63/986/60 53/119/61
f 52/956/156 51/20/428 62/282/151
f 72/121/63 78/35/429 49/18/64
f 74/123/66 81/38/430 77/124/67
f 237/126/431 262/987/431 266/127/431
f 230/988/270 234/41/432 233/958/286
f 237/655/433 232/989/272 238/659/271
f 238/659/271 233/661/286 265/51/434
f 248/132/435 249/990/435 254/133/435
f 240/991/287 245/674/436 244/130/290
f 248/678/437 242/992/291 241/680/289
f 253/682/298 252/679/438 241/680/289
f 235/136/439 234/993/439 257/137/439
f 268/139/280 262/994/310 231/140/440
f 250/143/441 249/995/441 261/144/441
f 243/131/442 247/155/442 258/149/442
f 270/152/296 269/996/443 260/676/294
f 245/151/444 269/997/444 270/152/444
f 251/154/90 250/143/90 264/141/90
f 247/155/445 246/998/445 236/43/445
f 280/156/431 274/999/431 279/157/431
f 272/1000/270 305/62/432 278/970/286
f 280/703/433 273/1001/272 271/700/271
f 271/700/271 278/702/286 277/54/434
f 287/162/446 297/1002/446 302/163/446
f 283/1003/287 289/728/436 285/160/290
f 287/726/437 286/1004/291 284/722/289
f 301/729/298 300/727/438 284/722/289
f 306/166/439 305/1005/439 309/167/439
f 308/169/280 274/1006/310 304/170/447
f 298/173/448 297/1007/448 303/174/448
f 288/161/449 291/185/449 294/179/449
f 295/734/322 311/182/450 310/1008/323
f 289/181/451 310/1009/451 311/182/451
f 299/184/90 298/173/90 276/171/90
f 291/185/445 290/1010/445 307/64/445
f 312/186/100 313/1011/23 314/187/25
f 24/6/13 33/91/13 32/92/13
f 31/248/129 57/23/129 24/6/129
f 40/255/452 22/257/452 25/249/452
f 25/249/9 24/1012/9 33/250/9
f 32/251/453 40/255/453 25/249/453
f 28/82/119 33/241/121 24/258/90
f 37/263/165 30/85/132 59/260/134
f 58/262/454 57/1013/454 37/263/454
f 31/248/455 38/1014/455 37/264/455
f 41/265/136 32/267/138 43/269/1
f 32/267/138 53/1015/1 51/268/1
f 58/272/456 55/276/50 35/270/143
f 53/279/162 69/1016/162 41/280/162
f 43/1017/162 51/1018/162 41/280/162
f 51/1018/457 52/278/457 41/280/457
f 81/253/127 45/252/126 82/285/153
f 45/252/126 49/1019/458 47/284/152
f 82/1020/1 47/1021/1 81/1022/1
f 81/1022/1 47/1021/1 49/1023/1
f 49/1023/1 77/289/1 81/1022/1
f 77/289/1 49/1023/1 78/287/1
f 79/1024/1 76/288/1 78/287/1
f 64/1025/162 69/1016/162 63/1026/162
f 69/1016/162 53/279/162 63/1026/162
f 78/292/158 58/105/160 79/294/162
f 58/105/160 77/1027/162 76/293/162
f 63/274/141 60/273/140 64/1028/459
f 60/273/140 69/1029/460 64/1028/459
f 66/69/461 68/68/461 69/298/461
f 71/113/165 76/32/165 64/27/165
f 71/113/1 64/27/1 69/298/1
f 234/41/462 230/988/462 231/140/462
f 230/988/270 232/957/272 231/140/463
f 235/136/464 236/1030/464 262/653/464
f 237/655/433 238/659/271 265/51/434
f 240/991/287 242/129/291 243/131/465
f 245/674/466 240/991/466 243/131/466
f 245/151/295 260/676/294 258/147/303
f 248/678/437 241/680/289 252/679/467
f 253/682/468 254/677/468 252/679/468
f 252/148/469 260/676/469 261/683/469
f 261/683/470 250/1031/470 251/146/470
f 265/688/471 257/137/471 267/686/471
f 267/686/472 263/1032/472 264/687/472
f 280/703/433 271/700/271 277/54/434
f 277/713/471 309/167/471 292/711/471
f 292/711/472 275/1033/472 276/712/472
f 305/62/473 272/1000/473 304/170/473
f 272/1000/270 273/969/272 304/170/463
f 287/726/437 284/722/289 300/727/467
f 301/729/474 302/725/474 300/727/474
f 283/1003/287 286/159/291 288/161/465
f 289/728/466 283/1003/466 288/161/466
f 289/181/295 295/734/319 294/177/303
f 300/178/475 295/734/475 303/739/475
f 303/739/470 298/1034/470 299/176/470
f 306/166/464 307/1035/464 274/738/464
