# Blender 4.5.0
# www.blender.org
mtllib shop_004.mtl
o shop_004
v -2.372014 2.961580 -3.083525
v 2.372014 2.961580 -3.083525
v 2.372014 2.530882 -3.083525
v -2.372014 2.530882 -3.083525
v 3.874041 0.000915 -3.550000
v -3.874041 0.000916 3.550000
v -3.875000 -0.000000 -3.548504
v 3.874041 0.132861 3.550000
v 3.875000 0.000000 3.548504
v -3.875000 0.133777 3.548504
v 3.875000 0.133776 -3.548504
v -3.874041 0.132861 -3.550000
v 3.548043 0.139535 -2.749672
v -3.549713 0.139198 -2.747812
v -3.549713 3.039513 3.048057
v 3.549713 3.039513 -2.747812
v 3.548043 3.039177 3.049918
v -3.548044 3.039176 -2.749672
v 3.549713 0.139199 3.048057
v -3.548043 0.139535 3.049918
v -3.484567 3.158713 2.867136
v -3.492966 3.154171 2.859620
v 3.488486 3.157577 2.865065
v -3.497108 3.051038 -2.867348
v -3.492966 3.049443 -2.867348
v -3.499247 3.131013 -2.877787
v -3.483552 3.041709 -2.859621
v 3.485154 3.159652 -2.864895
v 3.492966 3.154171 -2.859621
v 3.485238 3.049443 2.867348
v 3.492966 3.041710 2.859620
v 3.497108 3.051038 2.867348
v 3.492966 3.049443 2.867348
v -3.653102 3.049443 2.870782
v -3.645374 3.041710 2.859620
v -3.645374 3.041710 2.867348
v -3.648712 3.044075 3.024433
v -3.495547 3.396682 2.863997
v -3.492966 3.041225 2.867339
v -3.497246 3.049443 2.867348
v -3.492966 3.041710 2.859620
v -3.500693 3.033977 2.867348
v -3.653102 3.402295 2.867348
v -3.662361 3.402295 2.859620
v -3.653102 3.401528 2.867348
v -3.645374 3.402295 2.859620
v -3.496349 3.402059 -2.859119
v -3.497246 3.394560 -2.867348
v 3.498887 3.400495 2.864440
v 3.492966 3.394561 2.859620
v 3.645374 3.402295 2.867348
v 3.645374 3.402295 2.875075
v 3.653102 3.394561 2.867348
v 3.645374 3.402295 2.859620
v 3.645374 3.402294 -2.859621
v 3.653102 3.393027 -2.867348
v 3.651346 3.400634 -3.022263
v 3.643842 3.402294 -2.867348
v 3.496963 3.398403 -2.865685
v 3.492966 3.049443 -2.867348
v 3.497246 3.049443 -2.867348
v 3.492966 3.041709 -2.859621
v 3.485238 3.049443 -2.867348
v 3.648712 3.044075 -3.024433
v -3.645374 3.041709 -2.859621
v -3.653102 3.050977 -2.867348
v -3.651346 3.043370 -3.022263
v -3.643842 3.041709 -2.867348
v -3.648712 3.399928 -3.024434
v 3.653102 3.049443 -2.870783
v 3.645374 3.041709 -2.859621
v 3.645374 3.041709 -2.867348
v -3.645374 3.402294 -2.859621
v -3.653102 3.394560 -2.867348
v -3.660829 3.402294 -2.875075
v 3.645374 3.041710 2.859620
v 3.653102 3.050977 2.867348
v 3.651346 3.043370 3.022263
v 3.643842 3.041710 2.867348
v -3.644924 3.401979 3.023485
v -3.653102 3.392966 3.023336
v 3.650364 3.397456 3.024946
v -2.101616 0.500374 -2.896124
v -3.203665 2.288153 -2.749054
v -3.202888 0.500374 -2.748497
v -3.202888 2.287704 -2.896125
v -3.203665 0.499925 -2.895568
v -2.101616 2.287704 -2.748497
v -2.100838 2.288153 -2.895568
v -2.100838 0.499925 -2.749054
v -2.167793 2.219279 -2.911151
v -3.136711 0.568799 -2.911151
v -2.167793 0.568799 -2.913618
v -3.136711 2.219279 -2.913619
v -3.135675 2.262688 -2.972229
v -3.139653 2.262688 -2.912590
v -3.139653 0.535406 -2.972229
v -3.135675 0.535406 -2.912590
v -2.654241 0.535406 -2.972229
v -2.650263 0.535406 -2.912590
v -2.650263 2.262688 -2.972229
v -2.654241 2.262688 -2.912590
v -2.164850 2.262688 -2.972229
v -2.168829 0.535406 -2.972229
v -2.164850 0.535406 -2.912590
v -2.168829 2.262688 -2.912590
v -3.247482 0.536329 -3.080495
v -2.057022 0.458844 -3.080495
v -2.057022 0.536328 -2.844357
v -2.055602 0.458691 -2.845241
v -2.055602 0.536482 -3.079611
v -3.248902 0.536482 -2.845241
v -3.248901 0.458691 -3.079611
v -3.247482 0.458844 -2.844357
v -1.751656 2.287704 -2.896125
v -0.650384 0.500374 -2.896124
v -0.650384 2.287704 -2.748497
v -1.751656 0.500374 -2.748497
v -1.752433 2.288153 -2.749054
v -0.649606 2.288153 -2.895568
v -1.752433 0.499925 -2.895568
v -0.649606 0.499925 -2.749054
v -0.716561 0.568799 -2.913618
v -1.685478 2.219279 -2.913619
v -0.716561 2.219279 -2.911151
v -1.685478 0.568799 -2.911151
v -1.684443 2.262688 -2.972229
v -1.688421 0.535406 -2.972229
v -1.684443 0.535406 -2.912590
v -1.688421 2.262688 -2.912590
v -1.203009 0.535406 -2.972229
v -1.203009 2.262688 -2.912590
v -1.199031 0.535406 -2.912590
v -1.199031 2.262688 -2.972229
v -0.717597 0.535406 -2.972229
v -0.713618 0.535406 -2.912590
v -0.717597 2.262688 -2.912590
v -0.713618 2.262688 -2.972229
v -1.796250 0.536329 -3.080495
v -0.604370 0.536482 -3.079611
v -0.605790 0.458844 -3.080495
v -1.797669 0.458691 -3.079611
v -0.605790 0.536328 -2.844357
v -1.797669 0.536482 -2.845241
v -0.604370 0.458691 -2.845241
v -1.796250 0.458844 -2.844357
v 2.151996 0.500374 -2.896124
v 1.050723 2.287704 -2.896125
v 2.151995 2.287704 -2.748497
v 1.050724 0.500374 -2.748497
v 1.049946 2.288153 -2.749054
v 2.152773 2.288153 -2.895568
v 1.049946 0.499925 -2.895568
v 2.152773 0.499925 -2.749054
v 2.085819 2.219279 -2.911151
v 1.116901 2.219279 -2.913619
v 2.085819 0.568799 -2.913618
v 1.116901 0.568799 -2.911151
v 1.117937 2.262688 -2.972229
v 1.113958 0.535406 -2.972229
v 1.117937 0.535406 -2.912590
v 1.113958 2.262688 -2.912590
v 1.603349 2.262688 -2.972229
v 1.599370 0.535406 -2.972229
v 1.599370 2.262688 -2.912590
v 1.603349 0.535406 -2.912590
v 2.088761 2.262688 -2.972229
v 2.084782 0.535406 -2.972229
v 2.084782 2.262688 -2.912590
v 2.088761 0.535406 -2.912590
v 1.004323 0.534462 -3.078892
v 2.201869 0.532182 -2.836863
v 2.201869 0.543120 -2.847792
v 1.003572 0.529744 -2.844023
v 1.009766 0.537651 -2.844111
v 1.003572 0.465428 -3.080827
v 1.009766 0.457521 -3.080740
v 1.004323 0.460710 -2.845959
v 2.201869 0.457521 -2.850055
v 2.201869 0.465255 -2.842327
v 3.353015 2.287704 -2.748497
v 2.251743 0.500374 -2.748497
v 3.353793 2.288153 -2.895568
v 2.250966 2.288153 -2.749054
v 2.251743 2.287704 -2.896125
v 2.250966 0.499925 -2.895568
v 3.353015 0.500374 -2.896124
v 3.353793 0.499925 -2.749054
v 2.317920 0.568799 -2.911151
v 2.317920 2.219279 -2.913619
v 3.286838 2.219279 -2.911151
v 3.286838 0.568799 -2.913618
v 2.314978 2.262688 -2.912590
v 2.318956 0.535406 -2.912590
v 2.314978 0.535406 -2.972229
v 2.318956 2.262688 -2.972229
v 2.804369 2.262688 -2.972229
v 2.804369 0.535406 -2.912590
v 2.800390 0.535406 -2.972229
v 2.800390 2.262688 -2.912590
v 3.289781 2.262688 -2.972229
v 3.285802 0.535406 -2.972229
v 3.289781 0.535406 -2.912590
v 3.285802 2.262688 -2.912590
v 2.201869 0.462990 -3.087987
v 2.201869 0.452052 -3.077060
v 3.399015 0.458521 -2.845302
v 2.201869 0.537651 -3.074797
v 2.201869 0.529917 -3.082524
v 3.399442 0.534439 -2.845965
v 3.399015 0.536651 -3.079550
v 3.399443 0.460733 -3.078886
v -0.345740 2.417702 -2.901298
v 0.846165 0.170052 -2.901298
v -0.346374 0.169511 -2.900805
v -0.345740 0.170052 -2.763341
v -0.346374 2.418243 -2.763834
v 0.846165 2.417702 -2.763341
v 0.846799 2.418243 -2.900805
v 0.846799 0.169511 -2.763834
v -0.274733 2.340271 -2.923947
v -0.274733 0.237467 -2.920840
v 0.775158 2.340271 -2.920840
v 0.775158 0.237467 -2.923946
v 0.252231 2.342786 -2.979689
v 0.248194 2.342786 -2.925146
v 0.248194 0.234951 -2.979689
v 0.252231 0.234951 -2.925146
v 0.132247 1.399197 -3.045794
v 0.132247 0.998248 -2.979139
v 0.127974 0.998248 -3.045794
v 0.127974 1.399197 -2.979139
v 0.372451 1.399197 -3.045794
v 0.368177 1.399197 -2.979139
v 0.372451 0.998248 -2.979139
v 0.368177 0.998248 -3.045794
v 2.396695 2.502550 -3.076801
v -2.396695 2.989911 -3.076801
v 2.396695 2.989911 -2.928117
v -2.397888 2.989620 -2.928633
v 2.397888 2.989620 -3.076285
v -2.397888 2.502841 -3.076285
v 2.397888 2.502841 -2.928633
v -2.396695 2.502550 -2.928117
v 3.650372 2.302758 -3.363666
v 3.650373 2.388404 -2.721317
v -3.650372 2.302758 -2.721317
v -3.651772 2.389254 -2.723037
v 3.651772 2.301909 -2.723037
v 3.651772 2.389254 -3.361947
v -3.650372 2.388404 -3.363666
v -3.651772 2.301908 -3.361947
v 0.039581 2.290043 -3.091259
v -0.439921 1.820178 -3.091259
v 0.039581 1.820178 -3.093806
v -0.439921 2.290043 -3.093806
v 0.060504 2.290043 -3.093806
v 0.060504 1.820178 -3.091259
v 0.540006 2.290043 -3.091259
v 0.540006 1.820178 -3.093807
v 1.040430 1.820178 -3.093806
v 0.560929 1.820178 -3.091259
v 1.040430 2.290043 -3.091259
v 0.560929 2.290043 -3.093806
v -3.178393 1.899151 -2.955323
v -3.390972 1.903109 -3.113889
v -3.130475 1.894872 -3.160218
v -3.124754 2.231103 -3.155499
v -3.281080 2.228355 -3.221153
v -3.388139 2.227145 -3.124463
v -3.354318 2.227220 -2.983205
v -3.291054 1.903033 -3.219314
v -3.346600 1.901899 -2.976626
v -3.185705 2.235382 -2.954098
v 3.327131 1.899151 -2.955323
v 3.114551 1.903109 -3.113889
v 3.214470 1.903033 -3.219314
v 3.375049 1.894872 -3.160218
v 3.380770 2.231103 -3.155499
v 3.224444 2.228355 -3.221153
v 3.151205 2.227220 -2.983205
v 3.319818 2.235382 -2.954098
v 3.117384 2.227145 -3.124463
v 3.158924 1.901899 -2.976626
v 2.687796 0.198994 3.031062
v 2.634125 0.200224 2.863991
v 2.947735 0.198083 2.983716
v 2.951131 0.190479 2.807822
v 2.767491 3.801049 2.733642
v 2.637473 3.799819 2.851497
v 2.678748 3.799845 3.023351
v 2.968932 3.801960 2.904610
v 2.883924 3.809565 3.058637
v 2.923151 3.806279 2.781540
v 2.755800 0.200197 2.735796
v 2.846551 0.193764 3.067408
v -0.680476 3.235779 1.278330
v -1.521393 3.235779 1.724128
v -0.680476 3.879313 1.724128
v -0.679386 3.235092 1.723057
v -1.522484 3.880000 1.723057
v -0.679386 3.880000 1.279401
v -1.521393 3.879313 1.278330
v -1.522484 3.235092 1.279401
v -1.107894 3.404793 1.249533
v -1.002590 3.803357 1.251024
v -0.769245 3.738348 1.250695
v -0.938425 3.341650 1.245057
v -1.172194 3.630293 1.251354
v -0.712266 3.510883 1.252515
v -0.827483 3.371400 1.256991
v -0.728072 3.419592 1.214913
v -0.733886 3.406266 1.231499
v -1.155325 3.414815 1.221000
v -1.155325 3.481923 1.221000
v -0.728072 3.475831 1.216226
v -0.733886 3.492431 1.229541
v -0.728072 3.553810 1.214912
v -0.733886 3.540483 1.231499
v -1.155325 3.549032 1.221000
v -1.155325 3.616141 1.221000
v -0.733886 3.624689 1.210500
v -0.728072 3.611364 1.227087
v -0.733886 3.693758 1.229541
v -1.155325 3.683249 1.221000
v -0.728072 3.677157 1.216226
v -0.728072 3.755136 1.214912
v -1.155325 3.750359 1.221000
v -0.733886 3.741810 1.231499
v -1.347303 3.751974 1.257540
v -1.435060 3.751974 1.254517
v -1.347303 3.393166 1.254517
v -1.435060 3.393166 1.257540
v -1.363056 3.230195 1.786854
v -1.448721 3.200165 1.797568
v -1.448721 3.193760 1.204890
v -1.353658 3.200162 1.204889
v -1.362180 3.162987 1.785261
v -0.848211 3.193759 1.204890
v -0.848211 3.200165 1.797567
v -0.753148 3.193760 1.797567
v -0.753148 3.200165 1.204890
v 0.520543 3.235779 1.278330
v 0.520543 3.879313 1.724128
v -0.320373 3.235779 1.724128
v -0.321464 3.235092 1.279401
v 0.521634 3.880000 1.279401
v -0.321464 3.880000 1.723057
v -0.320373 3.879313 1.278330
v 0.521634 3.235092 1.723057
v 0.488754 3.510884 1.252515
v 0.431775 3.738348 1.250695
v 0.198429 3.803357 1.251024
v 0.028826 3.630293 1.251354
v 0.262594 3.341650 1.245057
v 0.093126 3.404793 1.249533
v 0.373536 3.371400 1.256991
v 0.472948 3.419592 1.214913
v 0.045694 3.414815 1.221000
v 0.467133 3.406266 1.231499
v 0.472948 3.475831 1.216226
v 0.467133 3.492431 1.229541
v 0.045694 3.481923 1.221000
v 0.053309 3.538524 1.229541
v 0.047494 3.555124 1.216226
v 0.474748 3.549032 1.221000
v 0.045694 3.616141 1.221000
v 0.467133 3.624689 1.210500
v 0.472948 3.611364 1.227087
v 0.474748 3.683249 1.221000
v 0.053309 3.691798 1.231499
v 0.047494 3.678472 1.214912
v 0.045694 3.750359 1.221000
v 0.467133 3.741810 1.231499
v 0.472948 3.755136 1.214912
v -0.146283 3.393166 1.254517
v -0.234040 3.393166 1.257540
v -0.234040 3.751974 1.254517
v -0.146283 3.751974 1.257540
v -0.247702 3.193762 1.204889
v -0.152639 3.193760 1.797568
v -0.247702 3.200163 1.797569
v -0.152639 3.200165 1.204890
v 0.352808 3.193762 1.204889
v 0.352808 3.200163 1.797569
v 0.447871 3.193760 1.797568
v 0.447871 3.200165 1.204890
v -3.445026 0.120595 3.127846
v -3.402154 0.116299 3.189612
v -3.443098 2.797695 3.123192
v -3.403307 2.802414 3.189210
v -3.370207 0.115875 3.109301
v -3.369107 2.801992 3.109832
v 3.360752 0.120595 3.127848
v 3.435572 0.115876 3.109301
v 3.436671 2.801991 3.109832
v 3.362680 2.797696 3.123193
v 3.402471 2.802414 3.189210
v 3.403624 0.116299 3.189612
v -0.396230 2.246875 3.073584
v -0.396680 0.450328 3.074076
v -0.396680 2.247605 3.191053
v -0.396230 0.451058 3.191546
v 0.396230 2.246875 3.191546
v 0.396680 2.247605 3.074076
v 0.396230 0.451058 3.073584
v 0.396680 0.450328 3.191054
v 0.972398 1.794874 3.215760
v 0.628365 1.795963 3.215039
v 0.628962 1.794874 3.049369
v 0.628365 1.302619 3.050091
v 0.972995 1.795963 3.050091
v 0.972398 1.303708 3.049370
v 0.972995 1.302619 3.215039
v 0.628961 1.303708 3.215761
vn -0.0000 -0.0000 -1.0000
vn 0.4370 -0.1049 -0.8933
vn 0.0001 -0.7068 0.7075
vn -0.0000 -0.7068 0.7074
vn 0.0002 -0.7067 0.7075
vn -0.9123 -0.4095 0.0079
vn -0.7083 -0.7059 -0.0044
vn -0.9982 -0.0406 0.0432
vn -0.6834 0.7286 0.0458
vn 0.7071 -0.0000 0.7071
vn 0.7074 0.7068 -0.0000
vn 0.7005 0.7000 -0.1389
vn -0.0000 -0.7068 -0.7074
vn -0.7005 -0.7000 -0.1389
vn 0.9130 -0.4078 -0.0096
vn 0.7083 -0.7059 0.0044
vn 0.5669 -0.5746 -0.5903
vn 0.7071 -0.0000 -0.7071
vn 0.7005 -0.7000 0.1389
vn -0.7871 -0.6168 -0.0099
vn -0.0000 -0.0000 -0.0000
vn -0.0000 -0.6379 -0.7701
vn -0.0000 1.0000 -0.0000
vn -0.0000 0.7391 -0.6735
vn -0.0000 1.0000 0.0001
vn -0.0060 0.0158 0.9999
vn -0.0022 0.7068 -0.7074
vn 0.0065 0.3434 0.9391
vn 0.0072 0.0701 0.9975
vn 0.0040 0.7068 0.7074
vn 0.0002 -0.6256 0.7802
vn 0.0002 -0.6269 0.7791
vn 0.0002 -0.6247 0.7809
vn -0.0003 -0.8000 0.6000
vn -0.0003 -0.7772 0.6292
vn -0.0003 -0.7907 0.6122
vn 0.5869 0.0596 -0.8074
vn 0.9941 0.0004 -0.1087
vn 0.7074 0.7069 -0.0000
vn 0.0011 -0.0000 1.0000
vn -0.0000 -0.6379 0.7701
vn -0.5670 0.5748 -0.5900
vn -0.0001 0.9999 -0.0108
vn 0.5676 0.5681 -0.5958
vn -0.0022 -0.7068 0.7074
vn 0.0003 0.7707 0.6371
vn 0.0003 0.7719 0.6357
vn 0.0003 0.7745 0.6325
vn 0.0441 0.7739 0.6318
vn 0.0445 0.7801 0.6241
vn 0.0442 0.7723 0.6337
vn -0.9971 -0.0756 0.0009
vn -0.7997 0.6004 -0.0017
vn -0.4736 0.8808 -0.0030
vn -0.9999 0.0121 -0.0007
vn -0.9000 0.4359 -0.0000
vn -0.7078 0.7064 -0.0000
vn -0.7404 0.6712 0.0368
vn -0.7871 0.6167 0.0099
vn -0.0009 -0.2000 -0.9798
vn 0.0006 -0.3005 -0.9538
vn -0.7680 -0.6405 -0.0000
vn -0.0521 -0.9986 -0.0000
vn -0.0001 -0.6984 0.7157
vn -0.0001 -0.9999 0.0108
vn 0.1881 -0.6814 0.7073
vn -0.0011 -0.7068 -0.7074
vn 0.0521 -0.9986 -0.0000
vn 0.7680 -0.6405 -0.0000
vn 0.0001 -0.9999 -0.0108
vn -0.1877 -0.6806 -0.7082
vn -0.6669 -0.0000 0.7452
vn -0.6371 0.0097 0.7708
vn -0.5760 0.0019 0.8174
vn -0.0213 0.0029 0.9998
vn -0.5745 0.5762 -0.5813
vn 0.5745 -0.5762 -0.5813
vn -0.5802 -0.5784 -0.5734
vn 0.5802 -0.5784 0.5734
vn 0.5802 0.5784 -0.5734
vn -0.5745 -0.5762 0.5813
vn 0.5745 0.5762 0.5813
vn -0.5802 0.5784 0.5734
vn -0.5776 -0.5775 -0.5770
vn 0.5771 -0.5774 -0.5776
vn 0.5776 -0.5775 0.5770
vn -0.5771 0.5774 -0.5776
vn 0.5776 0.5775 -0.5770
vn -0.5776 0.5775 0.5770
vn -0.5771 -0.5774 0.5776
vn 0.5771 0.5774 0.5776
vn -0.0013 0.6809 0.7324
vn -0.0000 0.7005 -0.7137
vn -0.0040 0.6818 -0.7316
vn 0.0001 0.7208 0.6931
vn -0.9971 -0.0757 0.0014
vn -1.0000 -0.0000 -0.0000
vn 0.0003 0.0019 1.0000
vn 0.8517 0.5240 -0.0003
vn 0.9991 0.0422 0.0012
vn 0.9992 0.0409 0.0007
vn -0.0000 0.0211 0.9998
vn 0.0506 -0.9987 -0.0013
vn -0.0000 -0.7069 -0.7074
vn -1.0000 0.0015 -0.0000
vn -0.0000 -1.0000 -0.0000
vn -0.3593 0.9332 -0.0013
vn -0.0099 0.0042 0.9999
vn -0.0199 0.0084 0.9998
vn -0.0048 0.0020 1.0000
vn -0.0000 -0.0000 1.0000
vn 0.0213 0.0005 0.9998
vn 0.6404 0.0302 -0.7674
vn -0.0005 0.0097 1.0000
vn 0.6883 0.7255 -0.0000
vn 0.7261 0.6876 0.0005
vn 1.0000 0.0074 -0.0001
vn 0.0368 0.9993 0.0009
vn -0.9998 -0.0220 0.0013
vn -0.9998 -0.0219 0.0013
vn -0.9998 -0.0215 0.0013
vn -0.0000 1.0000 0.0019
vn 0.0014 1.0000 -0.0000
vn -0.0125 0.9999 -0.0000
vn -0.0262 0.9997 0.0022
vn -0.0262 0.9997 -0.0002
vn -0.0123 0.9999 -0.0000
vn -1.0000 0.0073 -0.0004
vn 0.9998 0.0026 0.0173
vn 0.5728 0.5668 0.5921
vn 0.9999 -0.0000 0.0113
vn -0.0002 0.0156 0.9999
vn 0.5021 0.8648 0.0114
vn 1.0000 -0.0000 -0.0000
vn 0.9998 -0.0220 -0.0000
vn -0.6977 -0.0183 0.7161
vn 0.0002 0.0048 -1.0000
vn 0.0001 0.0048 -1.0000
vn -0.9999 -0.0000 -0.0113
vn -0.8723 0.4889 -0.0077
vn -0.5790 -0.5781 -0.5750
vn 0.5757 -0.5766 -0.5797
vn 0.5790 -0.5781 0.5750
vn -0.5757 0.5766 -0.5797
vn 0.5790 0.5781 -0.5750
vn -0.5790 0.5781 0.5750
vn -0.5757 -0.5766 0.5797
vn 0.5757 0.5766 0.5797
vn -0.6562 0.7546 0.0012
vn 0.6562 0.7546 -0.0012
vn 0.6562 -0.7546 0.0012
vn -0.6562 -0.7546 -0.0012
vn -0.0388 0.8383 0.5439
vn 0.0388 0.8383 -0.5439
vn -0.0388 -0.8383 -0.5439
vn 0.0388 -0.8383 0.5439
vn 0.0389 0.8382 -0.5439
vn 0.0388 -0.8382 0.5439
vn -0.0389 0.8382 0.5439
vn -0.0389 0.8383 0.5439
vn 0.0389 0.8383 -0.5439
vn -0.6986 0.0053 -0.7155
vn 0.6986 -0.0053 -0.7155
vn -0.7126 -0.0002 -0.7016
vn 0.7126 0.0002 -0.7016
vn -0.7126 0.0002 0.7016
vn -0.0001 1.0000 -0.0005
vn 0.0001 1.0000 0.0005
vn -0.0001 1.0000 -0.0007
vn -0.0001 -1.0000 0.0005
vn 0.0001 -1.0000 -0.0007
vn 0.0001 -1.0000 -0.0005
vn 0.7126 -0.0002 0.7016
vn 0.0001 1.0000 0.0007
vn 0.6986 0.0053 0.7155
vn -0.6986 -0.0053 0.7155
vn -0.0001 -1.0000 0.0007
vn -0.6562 0.7546 0.0011
vn 0.6562 -0.7546 0.0011
vn -0.6562 -0.7546 -0.0011
vn 0.6562 0.7546 -0.0011
vn 0.0388 0.8382 -0.5440
vn 0.0388 -0.8383 0.5438
vn -0.0388 -0.8382 -0.5440
vn -0.0388 0.8383 0.5438
vn -0.0388 0.8384 0.5437
vn 0.0388 0.8381 -0.5441
vn -0.0388 -0.8381 -0.5441
vn 0.0388 -0.8384 0.5437
vn 0.0389 0.8382 -0.5440
vn -0.0388 -0.8382 -0.5439
vn -0.7196 0.0273 -0.6939
vn 0.0035 0.0280 -0.9996
vn -0.7033 0.0248 -0.7105
vn -0.0033 -0.0700 -0.9975
vn -0.7033 -0.0248 0.7105
vn -0.0026 0.9999 -0.0135
vn 0.0044 0.9997 0.0230
vn 0.0035 -0.0280 0.9996
vn -0.7196 -0.0273 0.6939
vn 0.0007 0.9997 -0.0241
vn 0.0072 0.9999 0.0095
vn 0.0077 -0.0814 0.9967
vn -0.0033 0.0700 0.9975
vn -0.0026 -0.9999 0.0135
vn 0.0044 -0.9997 -0.0230
vn 0.0007 -0.9997 0.0241
vn 0.7270 0.0019 0.6867
vn 0.0025 0.0087 1.0000
vn 0.7043 0.0038 0.7099
vn -0.0389 -0.8382 -0.5440
vn 0.0072 -0.9999 -0.0095
vn 0.7043 -0.0038 -0.7099
vn 0.7270 -0.0019 -0.6867
vn 0.0025 -0.0087 -1.0000
vn -0.5787 0.5784 0.5750
vn -0.5761 0.5763 -0.5797
vn -0.5787 -0.5784 -0.5750
vn 0.5761 -0.5763 -0.5797
vn 0.5787 0.5784 -0.5750
vn 0.5787 -0.5784 0.5750
vn -0.5761 -0.5763 0.5797
vn 0.5761 0.5763 0.5797
vn -0.6419 0.7667 0.0097
vn 0.6419 -0.7667 0.0097
vn -0.6419 -0.7667 -0.0097
vn 0.6419 0.7667 -0.0097
vn -0.0423 0.8396 0.5415
vn 0.0423 0.8396 -0.5415
vn -0.0423 -0.8396 -0.5415
vn 0.0423 -0.8396 0.5415
vn -0.0367 0.8174 0.5749
vn 0.0367 0.8174 -0.5749
vn -0.0367 -0.8174 -0.5749
vn 0.0367 -0.8174 0.5749
vn -0.0001 -0.0009 -1.0000
vn 0.0001 0.0009 -1.0000
vn -0.0001 -0.0011 -1.0000
vn -0.7090 -0.7052 0.0022
vn 0.7037 -0.7104 -0.0043
vn 0.7090 -0.7052 -0.0022
vn 0.0001 0.0011 -1.0000
vn 0.7090 0.7052 0.0022
vn -0.7090 0.7052 -0.0022
vn -0.7037 0.7104 -0.0043
vn 0.7037 0.7104 0.0043
vn 0.0001 -0.0009 1.0000
vn -0.0001 0.0011 1.0000
vn -0.0001 0.0009 1.0000
vn 0.0001 -0.0011 1.0000
vn -0.7037 -0.7104 0.0043
vn -0.5829 -0.5788 -0.5703
vn 0.5707 -0.5759 -0.5853
vn 0.5829 -0.5788 0.5703
vn -0.5707 0.5759 -0.5853
vn 0.5829 0.5788 -0.5703
vn 0.5707 0.5759 0.5853
vn -0.5707 -0.5759 0.5853
vn -0.5829 0.5788 0.5703
vn -0.7090 0.7051 -0.0123
vn 0.7090 0.7051 0.0123
vn 0.7090 -0.7051 -0.0123
vn -0.7090 -0.7051 0.0123
vn 0.4551 -0.5891 0.6677
vn -0.5101 -0.6040 0.6124
vn -0.7741 -0.6077 -0.1771
vn 0.7280 0.5891 -0.3507
vn 0.4099 0.6127 0.6757
vn 0.6928 -0.6127 -0.3802
vn -0.1912 -0.5980 -0.7783
vn -0.7590 0.6077 -0.2337
vn -0.1356 0.6040 -0.7854
vn -0.5548 0.5980 0.5784
vn -0.5384 -0.6098 0.5816
vn -0.1535 0.0016 0.9882
vn -0.5526 0.5977 0.5809
vn 0.1735 -0.6494 0.7404
vn 0.7022 -0.6247 0.3416
vn -0.7749 -0.6065 -0.1781
vn -0.1881 -0.5977 -0.7793
vn -0.7602 0.6065 -0.2332
vn 0.7789 0.6247 0.0553
vn 0.5300 0.8095 0.2525
vn 0.5853 -0.8095 0.0463
vn 0.3612 -0.0016 -0.9325
vn -0.1755 0.6098 -0.7729
vn 0.5204 0.6494 -0.5545
vn -0.5762 0.5769 -0.5789
vn 0.5762 -0.5769 -0.5789
vn -0.5783 -0.5780 -0.5757
vn 0.5783 0.5780 -0.5757
vn 0.5783 -0.5780 0.5757
vn -0.5762 -0.5769 0.5789
vn 0.5762 0.5769 0.5789
vn -0.5783 0.5780 0.5757
vn 0.6035 -0.7888 0.1165
vn 0.6422 0.7665 -0.0054
vn -0.2589 0.9659 -0.0000
vn -0.9394 0.3428 0.0054
vn 0.9990 -0.0437 0.0047
vn -0.8434 -0.5372 -0.0047
vn -0.1280 -0.9849 -0.1164
vn -0.5929 0.8051 -0.0187
vn 0.5929 0.8051 0.0187
vn 0.5929 -0.8051 -0.0187
vn -0.5929 -0.8051 0.0187
vn 0.4859 0.7013 0.5216
vn -0.8057 0.0420 0.5908
vn 0.4821 -0.7050 0.5201
vn 0.5250 0.0551 -0.8493
vn -0.5715 -0.0181 -0.8204
vn -0.5735 0.0386 0.8183
vn 0.5735 0.0386 -0.8183
vn -0.5735 -0.0386 -0.8183
vn 0.5735 -0.0386 0.8183
vn -0.7950 -0.5278 -0.2989
vn 0.0880 -0.5666 0.8192
vn 0.0509 0.5696 0.8204
vn -0.7735 0.5278 -0.3508
vn 0.6161 -0.5696 -0.5441
vn 0.6415 0.5667 -0.5170
vn 0.6416 0.5666 -0.5170
vn -0.5785 0.5790 0.5745
vn -0.5765 0.5754 -0.5802
vn -0.5785 -0.5790 -0.5745
vn 0.5765 -0.5754 -0.5802
vn 0.5785 0.5790 -0.5745
vn 0.5785 -0.5790 0.5745
vn -0.5765 -0.5754 0.5802
vn 0.5765 0.5754 0.5802
vn 0.5767 0.5747 0.5807
vn -0.5767 -0.5747 0.5807
vn 0.5787 -0.5793 0.5741
vn -0.5787 0.5793 0.5741
vn 0.5787 0.5793 -0.5741
vn -0.5767 0.5747 -0.5807
vn -0.5787 -0.5793 -0.5741
vn 0.5767 -0.5747 -0.5807
vn 0.0503 0.1306 0.9902
vn 0.2626 -0.6821 0.6825
vn -0.7075 -0.7067 -0.0001
vn -0.7074 -0.7068 -0.0000
vn -0.8865 -0.4617 -0.0290
vn -0.6406 -0.0000 0.7679
vn 0.7072 0.7071 -0.0004
vn 0.7071 0.7066 0.0267
vn -0.0000 -0.7069 -0.7073
vn -0.7071 -0.7066 0.0267
vn 0.7075 -0.7067 0.0001
vn 0.7074 -0.7068 -0.0000
vn -0.7095 0.7047 0.0043
vn 0.7071 -0.7066 -0.0267
vn 0.0634 -0.9979 0.0126
vn -0.0000 0.7068 0.7074
vn -0.0264 0.9996 0.0053
vn 0.0005 0.7068 -0.7074
vn -0.0011 0.7068 0.7074
vn -0.0000 0.0223 -0.9998
vn 0.5744 0.8186 -0.0000
vn 0.0091 0.0234 -0.9997
vn 0.7680 0.6405 -0.0002
vn 0.0008 -0.7064 0.7078
vn 0.0333 0.9908 0.1315
vn -0.0634 -0.9979 -0.0126
vn -0.0000 0.9999 -0.0144
vn 0.0005 -0.7068 0.7074
vn -0.0000 0.0048 -1.0000
vn 0.0369 0.9978 0.0548
vn -0.7075 -0.7067 -0.0002
vn -0.0000 -0.9999 0.0151
vn -0.0060 -0.0157 -0.9999
vn 0.0074 -0.0701 -0.9975
vn 0.0040 -0.7068 -0.7074
vn 0.0065 -0.3434 -0.9392
vn 0.0202 0.0095 0.9998
vn 0.7075 -0.7067 0.0002
vn -0.0000 -0.9999 -0.0151
vn -0.0086 0.0224 0.9997
vn -0.0445 -0.1155 -0.9923
vn 0.3218 0.8359 0.4445
vn -0.6342 -0.7731 -0.0010
vn 1.0000 0.0096 -0.0000
vn 0.9140 -0.4058 -0.0000
vn -0.8814 -0.0000 0.4725
vn -0.9998 -0.0215 -0.0000
vn -0.6423 -0.0304 0.7659
vn -0.4135 -0.0089 -0.9105
vn 0.9999 0.0001 -0.0113
vn 0.4137 -0.0091 0.9104
vn -0.0106 0.0002 -0.9999
vn -0.0107 -0.0003 -0.9999
vn -0.0108 -0.0034 -0.9999
vn -0.0110 -0.0110 -0.9999
vn 0.9998 -0.0220 -0.0013
vn 0.0011 -0.0214 0.9998
vn 0.0077 0.0814 -0.9967
vt 0.197702 0.755169
vt 0.197702 0.581056
vt 0.213643 0.581066
vt 0.213643 0.755179
vt 0.494681 0.306466
vt 0.494681 0.306906
vt 0.494395 0.306969
vt 0.817405 0.290235
vt 0.817693 0.290236
vt 0.817694 0.290522
vt 0.251008 0.799051
vt 0.251295 0.798923
vt 0.251138 0.804639
vt 0.993944 0.372710
vt 0.994230 0.372692
vt 0.993942 0.372978
vt 0.483744 0.903488
vt 0.483715 0.903488
vt 0.483740 0.903200
vt 0.010482 0.301259
vt 0.010482 0.300974
vt 0.010768 0.301259
vt 0.222916 0.300974
vt 0.222916 0.301316
vt 0.222630 0.301259
vt 0.494681 0.565397
vt 0.494395 0.565397
vt 0.494681 0.565110
vt 0.250952 0.586492
vt 0.251295 0.586490
vt 0.251295 0.586777
vt 0.494808 0.571328
vt 0.494682 0.571043
vt 0.500424 0.571151
vt 0.222630 0.571328
vt 0.222916 0.571614
vt 0.223202 0.571900
vt 0.282247 0.571329
vt 0.282247 0.570986
vt 0.282533 0.571043
vt 0.820201 0.845702
vt 0.828426 0.845634
vt 0.828704 0.845964
vt 0.156722 0.978490
vt 0.156861 0.993489
vt 0.156369 0.993489
vt 0.204019 0.978513
vt 0.204347 0.993511
vt 0.203856 0.993512
vt 0.494395 0.300974
vt 0.010482 0.571614
vt 0.010768 0.571328
vt 0.222916 0.565841
vt 0.222630 0.565968
vt 0.010768 0.571957
vt 0.382682 0.894592
vt 0.382882 0.938749
vt 0.382651 0.938885
vt 0.940501 0.856878
vt 0.940764 0.900625
vt 0.940477 0.900664
vt 0.237947 0.858291
vt 0.238356 0.813954
vt 0.238352 0.858290
vt 0.985391 0.945118
vt 0.985250 0.929784
vt 0.985671 0.929983
vt 0.985335 0.969755
vt 0.984947 0.954654
vt 0.985531 0.954503
vt 0.985848 0.446837
vt 0.985151 0.431838
vt 0.985734 0.431688
vt 0.847543 0.993633
vt 0.847264 0.978635
vt 0.847699 0.978634
vt 0.894055 0.463807
vt 0.890021 0.464120
vt 0.890178 0.463843
vt 0.860323 0.573570
vt 0.847407 0.573341
vt 0.860121 0.573300
vt 0.133935 0.794464
vt 0.134218 0.586927
vt 0.134218 0.794124
vt 0.817669 0.549011
vt 0.817401 0.549297
vt 0.282247 0.565550
vt 0.282533 0.565397
vt 0.228632 0.571485
vt 0.228602 0.301120
vt 0.379972 0.850314
vt 0.380203 0.894592
vt 0.379915 0.894590
vt 0.869072 0.978635
vt 0.869401 0.993633
vt 0.868909 0.993634
vt 0.380417 0.978780
vt 0.380556 0.993779
vt 0.380064 0.993779
vt 0.985848 0.422166
vt 0.985413 0.407167
vt 0.986077 0.407168
vt 0.986050 0.202082
vt 0.985615 0.187083
vt 0.986279 0.187084
vt 0.905955 0.978343
vt 0.906252 0.993341
vt 0.905761 0.993341
vt 0.988340 0.606667
vt 0.988551 0.621665
vt 0.987827 0.621665
vt 0.298911 0.977499
vt 0.299049 0.992498
vt 0.298558 0.992498
vt 0.721620 0.831922
vt 0.509743 0.832078
vt 0.509713 0.831766
vt 0.222809 0.306702
vt 0.010768 0.306905
vt 0.010643 0.306675
vt 0.004703 0.571614
vt 0.004761 0.571328
vt 0.246841 0.902626
vt 0.238493 0.902779
vt 0.238216 0.902449
vt 0.251295 0.798636
vt 0.494395 0.571043
vt 0.494681 0.565555
vt 0.276602 0.300975
vt 0.276666 0.571043
vt 0.943445 0.944388
vt 0.943242 0.900599
vt 0.943645 0.900654
vt 0.985186 0.363020
vt 0.984488 0.348022
vt 0.985072 0.347871
vt 0.985549 0.397599
vt 0.985151 0.382497
vt 0.985720 0.382347
vt 0.986709 0.836663
vt 0.986567 0.821329
vt 0.986988 0.821529
vt 0.990501 0.004700
vt 0.990575 0.019836
vt 0.990138 0.019834
vt 0.988012 0.646439
vt 0.987624 0.631337
vt 0.988208 0.631187
vt 0.282533 0.300975
vt 0.282247 0.306461
vt 0.282247 0.300975
vt 0.120872 0.586951
vt 0.121218 0.794487
vt 0.120872 0.794148
vt 0.494682 0.301031
vt 0.500442 0.300974
vt 0.762216 0.556919
vt 0.761932 0.561072
vt 0.761932 0.556897
vt 0.830465 0.290220
vt 0.817752 0.290082
vt 0.830467 0.290063
vt 0.818422 0.275188
vt 0.805577 0.275010
vt 0.818482 0.274902
vt 0.260594 0.864944
vt 0.265485 0.580748
vt 0.265397 0.864964
vt 0.539272 0.004652
vt 0.539274 0.291734
vt 0.276610 0.291773
vt 0.260584 0.580730
vt 0.854647 0.004754
vt 0.849741 0.261762
vt 0.849941 0.004751
vt 0.276608 0.004691
vt 0.740762 0.277066
vt 0.740772 0.564020
vt 0.735970 0.564006
vt 0.735959 0.277052
vt 0.224230 0.843707
vt 0.228848 0.581056
vt 0.228848 0.843707
vt 0.224230 0.581056
vt 0.004757 0.291698
vt 0.004829 0.004690
vt 0.267493 0.004651
vt 0.854359 0.261759
vt 0.267496 0.291734
vt 0.724534 0.301154
vt 0.724598 0.563953
vt 0.509921 0.564020
vt 0.276610 0.840651
vt 0.276601 0.580428
vt 0.383827 0.580496
vt 0.383815 0.840793
vt 0.111763 0.581243
vt 0.004550 0.791261
vt 0.004560 0.581338
vt 0.500094 0.580429
vt 0.500094 0.794771
vt 0.392927 0.794770
vt 0.509857 0.301221
vt 0.392927 0.580428
vt 0.548588 0.267596
vt 0.548524 0.004796
vt 0.763202 0.004730
vt 0.837949 0.573555
vt 0.837947 0.836338
vt 0.730743 0.836276
vt 0.763266 0.267529
vt 0.111713 0.791089
vt 0.730744 0.573492
vt 0.721635 0.573611
vt 0.509728 0.573455
vt 0.915537 0.675947
vt 0.915823 0.464088
vt 0.919699 0.463807
vt 0.919699 0.675953
vt 0.821649 0.290442
vt 0.821947 0.548711
vt 0.919699 0.685385
vt 0.919699 0.892582
vt 0.915823 0.892869
vt 0.494681 0.306620
vt 0.282533 0.306620
vt 0.282247 0.306334
vt 0.847329 0.781130
vt 0.847347 0.780850
vt 0.847349 0.573373
vt 0.766916 0.966153
vt 0.772636 0.966151
vt 0.772636 0.978866
vt 0.915883 0.892901
vt 0.915537 0.685392
vt 0.891067 0.719987
vt 0.894055 0.464090
vt 0.830747 0.284576
vt 0.817744 0.284304
vt 0.830461 0.284290
vt 0.840642 0.004836
vt 0.840642 0.216696
vt 0.827582 0.216695
vt 0.170578 0.958012
vt 0.176443 0.957728
vt 0.176155 0.971046
vt 0.237947 0.798639
vt 0.237948 0.798924
vt 0.785856 0.284638
vt 0.785856 0.552163
vt 0.772538 0.552438
vt 0.170668 0.970759
vt 0.238293 0.804702
vt 0.860407 0.780809
vt 0.874862 0.539561
vt 0.880367 0.539427
vt 0.880591 0.751416
vt 0.237947 0.586207
vt 0.772509 0.284573
vt 0.785513 0.284298
vt 0.010195 0.301259
vt 0.874575 0.751996
vt 0.827582 0.004836
vt 0.840356 0.004550
vt 0.133935 0.800110
vt 0.121091 0.800005
vt 0.004694 0.301100
vt 0.133878 0.586707
vt 0.120872 0.586671
vt 0.763410 0.277218
vt 0.750061 0.547170
vt 0.750063 0.277161
vt 0.763410 0.547228
vt 0.763122 0.547513
vt 0.185702 0.958186
vt 0.191458 0.971071
vt 0.186017 0.970907
vt 0.808015 0.284384
vt 0.808154 0.552381
vt 0.795426 0.552358
vt 0.795287 0.284359
vt 0.134003 0.581145
vt 0.121161 0.586606
vt 0.121161 0.581084
vt 0.238234 0.586492
vt 0.251078 0.580827
vt 0.238234 0.580719
vt 0.818481 0.004638
vt 0.805632 0.004695
vt 0.960787 0.679474
vt 0.960814 0.720142
vt 0.955463 0.720175
vt 0.864112 0.004642
vt 0.904286 0.004580
vt 0.904297 0.070844
vt 0.864123 0.070905
vt 0.052336 0.875925
vt 0.057599 0.941870
vt 0.052309 0.942071
vt 0.887282 0.376935
vt 0.892620 0.443088
vt 0.887259 0.443083
vt 0.892644 0.376940
vt 0.795515 0.956826
vt 0.795488 0.916157
vt 0.800838 0.916124
vt 0.800865 0.956793
vt 0.840142 0.463875
vt 0.880689 0.463837
vt 0.880704 0.530100
vt 0.955436 0.679507
vt 0.840157 0.530138
vt 0.057575 0.875939
vt 0.731000 0.845756
vt 0.766133 0.845771
vt 0.766090 0.906672
vt 0.730960 0.906658
vt 0.643747 0.841304
vt 0.679205 0.841321
vt 0.679200 0.902222
vt 0.643742 0.902205
vt 0.868974 0.905957
vt 0.870499 0.905907
vt 0.870503 0.969345
vt 0.933739 0.113197
vt 0.935252 0.176584
vt 0.933718 0.176583
vt 0.935239 0.113148
vt 0.869057 0.969396
vt 0.962552 0.748564
vt 0.964065 0.811952
vt 0.962531 0.811950
vt 0.968579 0.463996
vt 0.970108 0.527384
vt 0.968662 0.527435
vt 0.970104 0.463946
vt 0.964051 0.748516
vt 0.969378 0.080572
vt 0.970903 0.080521
vt 0.970906 0.143960
vt 0.156820 0.884911
vt 0.158333 0.948299
vt 0.156799 0.948298
vt 0.158319 0.884863
vt 0.969461 0.144011
vt 0.962982 0.973180
vt 0.965896 0.929746
vt 0.965899 0.973179
vt 0.962979 0.929745
vt 0.986955 0.909710
vt 0.986943 0.918405
vt 0.984450 0.918372
vt 0.827677 0.270354
vt 0.836243 0.226296
vt 0.836273 0.270321
vt 0.013211 0.887533
vt 0.013241 0.931558
vt 0.004646 0.931591
vt 0.055140 0.982052
vt 0.052338 0.990310
vt 0.052279 0.982026
vt 0.827648 0.226330
vt 0.963922 0.551007
vt 0.963949 0.594925
vt 0.961032 0.594926
vt 0.055068 0.990310
vt 0.961060 0.550976
vt 0.004616 0.887566
vt 0.984461 0.909678
vt 0.688425 0.957952
vt 0.693749 0.917251
vt 0.693776 0.957919
vt 0.847139 0.790321
vt 0.887314 0.790260
vt 0.887325 0.856523
vt 0.915703 0.373672
vt 0.921064 0.373677
vt 0.921041 0.439825
vt 0.847151 0.856585
vt 0.412860 0.920172
vt 0.412887 0.960841
vt 0.407536 0.960874
vt 0.066874 0.875925
vt 0.072138 0.941870
vt 0.066848 0.942071
vt 0.393222 0.803939
vt 0.433784 0.870164
vt 0.393237 0.870202
vt 0.433769 0.803901
vt 0.072114 0.875939
vt 0.688398 0.917284
vt 0.915679 0.439820
vt 0.407509 0.920205
vt 0.276867 0.850230
vt 0.311958 0.911146
vt 0.276827 0.911132
vt 0.312001 0.850245
vt 0.599087 0.841304
vt 0.634545 0.841321
vt 0.634539 0.902222
vt 0.599081 0.902205
vt 0.509926 0.911640
vt 0.511452 0.911589
vt 0.511455 0.975028
vt 0.510010 0.975079
vt 0.953154 0.382400
vt 0.954667 0.445788
vt 0.953133 0.445786
vt 0.954653 0.382351
vt 0.953356 0.186986
vt 0.954869 0.250374
vt 0.953334 0.250373
vt 0.954855 0.186938
vt 0.969474 0.004739
vt 0.971004 0.068127
vt 0.969558 0.068178
vt 0.971000 0.004689
vt 0.955627 0.606569
vt 0.957140 0.669957
vt 0.955606 0.669956
vt 0.847272 0.905957
vt 0.848801 0.969345
vt 0.847356 0.969396
vt 0.957126 0.606521
vt 0.848798 0.905907
vt 0.969983 0.722730
vt 0.972897 0.679296
vt 0.972900 0.722729
vt 0.969980 0.679296
vt 0.368356 0.981502
vt 0.368345 0.990196
vt 0.365851 0.990164
vt 0.120968 0.928996
vt 0.129533 0.884938
vt 0.129563 0.928963
vt 0.120938 0.884971
vt 0.965868 0.982809
vt 0.965796 0.991068
vt 0.963065 0.991068
vt 0.963006 0.982783
vt 0.147390 0.884939
vt 0.147420 0.928964
vt 0.138825 0.928997
vt 0.138795 0.884972
vt 0.365863 0.981469
vt 0.352537 0.920618
vt 0.352564 0.964536
vt 0.349647 0.964538
vt 0.349675 0.920588
vt 0.786273 0.916125
vt 0.786300 0.956793
vt 0.780950 0.956827
vt 0.864112 0.080127
vt 0.904286 0.080065
vt 0.904297 0.146329
vt 0.864123 0.146390
vt 0.081413 0.875925
vt 0.086675 0.941870
vt 0.081385 0.942071
vt 0.702990 0.957952
vt 0.708314 0.917251
vt 0.708340 0.957919
vt 0.260506 0.874354
vt 0.265868 0.874359
vt 0.265844 0.940507
vt 0.443267 0.803939
vt 0.483829 0.870164
vt 0.443282 0.870202
vt 0.483814 0.803901
vt 0.086652 0.875939
vt 0.702963 0.917284
vt 0.260483 0.940502
vt 0.780923 0.916158
vt 0.321436 0.850230
vt 0.356526 0.911146
vt 0.321396 0.911132
vt 0.356569 0.850245
vt 0.509767 0.841304
vt 0.545224 0.841321
vt 0.545219 0.902222
vt 0.509761 0.902205
vt 0.973405 0.748565
vt 0.974930 0.748514
vt 0.974934 0.811953
vt 0.973488 0.812004
vt 0.963342 0.295448
vt 0.964855 0.358835
vt 0.963320 0.358834
vt 0.964841 0.295399
vt 0.858123 0.905957
vt 0.859649 0.905907
vt 0.859652 0.969346
vt 0.957726 0.463996
vt 0.959239 0.527383
vt 0.957705 0.527382
vt 0.858206 0.969396
vt 0.959225 0.463947
vt 0.964006 0.382400
vt 0.965532 0.382350
vt 0.965535 0.445788
vt 0.958525 0.080571
vt 0.960038 0.143959
vt 0.958504 0.143958
vt 0.960024 0.080523
vt 0.964090 0.445839
vt 0.940765 0.944421
vt 0.943159 0.944422
vt 0.066907 0.981676
vt 0.066962 0.990249
vt 0.064410 0.990355
vt 0.246761 0.858290
vt 0.958558 0.738045
vt 0.955392 0.738205
vt 0.958558 0.729633
vt 0.955392 0.729793
vt 0.955671 0.729500
vt 0.383084 0.894591
vt 0.382597 0.938794
vt 0.380023 0.938766
vt 0.246884 0.814016
vt 0.984321 0.810067
vt 0.984042 0.801555
vt 0.986928 0.801423
vt 0.382699 0.850209
vt 0.064355 0.981781
vt 0.820125 0.890117
vt 0.828939 0.890123
vt 0.828534 0.890123
vt 0.819969 0.934391
vt 0.987207 0.809935
vt 0.052524 0.800428
vt 0.093086 0.866653
vt 0.052539 0.866691
vt 0.093071 0.800390
vt 0.393034 0.879435
vt 0.398273 0.879450
vt 0.398296 0.945380
vt 0.766385 0.956826
vt 0.766358 0.916157
vt 0.771709 0.916124
vt 0.880367 0.865819
vt 0.885705 0.931972
vt 0.880344 0.931967
vt 0.757144 0.916125
vt 0.751820 0.956826
vt 0.751793 0.916158
vt 0.771736 0.956793
vt 0.120953 0.809329
vt 0.161128 0.809267
vt 0.161139 0.875531
vt 0.393006 0.945582
vt 0.885729 0.865824
vt 0.120965 0.875593
vt 0.757171 0.956793
vt 0.775568 0.845756
vt 0.810659 0.906672
vt 0.775529 0.906658
vt 0.810702 0.845771
vt 0.554426 0.841304
vt 0.589879 0.902222
vt 0.554421 0.902205
vt 0.589884 0.841321
vt 0.963191 0.857019
vt 0.964690 0.856970
vt 0.964704 0.920406
vt 0.964208 0.186987
vt 0.965737 0.250375
vt 0.964292 0.250426
vt 0.963170 0.920405
vt 0.965734 0.186936
vt 0.966479 0.606570
vt 0.968005 0.606519
vt 0.968008 0.669958
vt 0.966563 0.670009
vt 0.958622 0.004739
vt 0.960135 0.068126
vt 0.958601 0.068125
vt 0.960121 0.004690
vt 0.915751 0.902189
vt 0.917276 0.902139
vt 0.917280 0.965578
vt 0.915834 0.965628
vt 0.493251 0.896576
vt 0.494750 0.896527
vt 0.494764 0.959963
vt 0.493230 0.959962
vt 0.828497 0.934459
vt 0.943264 0.983911
vt 0.943207 0.992167
vt 0.940477 0.992172
vt 0.940538 0.983993
vt 0.943157 0.856831
vt 0.493121 0.803977
vt 0.498127 0.803988
vt 0.498103 0.887181
vt 0.839942 0.284396
vt 0.883456 0.367625
vt 0.839957 0.367695
vt 0.930321 0.447980
vt 0.935289 0.403944
vt 0.935316 0.447947
vt 0.883442 0.284326
vt 0.951837 0.550988
vt 0.951864 0.594992
vt 0.946870 0.595024
vt 0.365834 0.850207
vt 0.370708 0.933417
vt 0.365808 0.933397
vt 0.946843 0.551021
vt 0.493096 0.887170
vt 0.170610 0.766563
vt 0.214528 0.849820
vt 0.170625 0.849861
vt 0.214514 0.766522
vt 0.930294 0.403976
vt 0.370727 0.850227
vt 0.839867 0.377107
vt 0.878031 0.454434
vt 0.839871 0.454483
vt 0.878021 0.377057
vt 0.004580 0.800611
vt 0.043091 0.800588
vt 0.043098 0.877963
vt 0.004587 0.877987
vt 0.892665 0.284481
vt 0.893935 0.284431
vt 0.893937 0.361954
vt 0.892668 0.362004
vt 0.947028 0.463998
vt 0.948357 0.463949
vt 0.948369 0.541469
vt 0.947010 0.541469
vt 0.796115 0.966375
vt 0.798435 0.966404
vt 0.798408 0.980758
vt 0.796087 0.980730
vt 0.688431 0.967501
vt 0.690673 0.981887
vt 0.688406 0.981854
vt 0.690703 0.967533
vt 0.978868 0.153677
vt 0.981110 0.168063
vt 0.978844 0.168031
vt 0.981140 0.153710
vt 0.807687 0.966375
vt 0.809979 0.980758
vt 0.807659 0.980730
vt 0.810007 0.966404
vt 0.170580 0.757123
vt 0.188532 0.581295
vt 0.188509 0.757161
vt 0.921140 0.186823
vt 0.921147 0.364157
vt 0.915603 0.364158
vt 0.170603 0.581259
vt 0.422091 0.946973
vt 0.427268 0.964908
vt 0.422074 0.964904
vt 0.448313 0.946603
vt 0.453804 0.946571
vt 0.453793 0.964503
vt 0.900888 0.921192
vt 0.906425 0.743857
vt 0.906431 0.921191
vt 0.900881 0.743858
vt 0.161340 0.581298
vt 0.161317 0.758795
vt 0.143388 0.758771
vt 0.427246 0.946926
vt 0.143411 0.581273
vt 0.448302 0.964535
vt 0.915596 0.186825
vt 0.796061 0.004615
vt 0.796117 0.275076
vt 0.772541 0.275174
vt 0.906357 0.186927
vt 0.903624 0.454707
vt 0.903241 0.186872
vt 0.906389 0.454707
vt 0.969647 0.153757
vt 0.966453 0.176776
vt 0.966535 0.153699
vt 0.906355 0.463910
vt 0.903520 0.734335
vt 0.903242 0.463875
vt 0.906437 0.734160
vt 0.969692 0.176770
vt 0.238207 0.571549
vt 0.238151 0.301088
vt 0.261786 0.301039
vt 0.965511 0.821502
vt 0.962317 0.845020
vt 0.962400 0.821447
vt 0.772539 0.004568
vt 0.261842 0.571500
vt 0.965556 0.845020
vt 0.276804 0.920570
vt 0.293985 0.920646
vt 0.293985 0.937504
vt 0.919617 0.155623
vt 0.902763 0.173213
vt 0.902764 0.155633
vt 0.919617 0.173203
vt 0.276729 0.937513
vt 0.448475 0.920144
vt 0.465657 0.937078
vt 0.448400 0.937086
vt 0.465657 0.920220
vt 0.439170 0.920049
vt 0.422316 0.937639
vt 0.422317 0.920059
vt 0.439170 0.937629
vt 0.303287 0.920570
vt 0.320469 0.937504
vt 0.303212 0.937513
vt 0.320469 0.920646
vt 0.886646 0.763438
vt 0.869792 0.781028
vt 0.869792 0.763448
vt 0.886646 0.781018
vt 0.630565 0.286366
vt 0.626955 0.282204
vt 0.629259 0.277733
vt 0.211037 0.969124
vt 0.206059 0.957352
vt 0.211037 0.957462
vt 0.205980 0.969274
vt 0.634308 0.277649
vt 0.636405 0.283061
vt 0.706225 0.288877
vt 0.702752 0.288820
vt 0.702753 0.277158
vt 0.710052 0.288956
vt 0.706554 0.277010
vt 0.710101 0.276935
vt 0.673140 0.278646
vt 0.674152 0.283998
vt 0.669954 0.286775
vt 0.785492 0.977814
vt 0.781735 0.966153
vt 0.785761 0.966153
vt 0.665539 0.284323
vt 0.781735 0.977815
vt 0.616524 0.288932
vt 0.610969 0.277012
vt 0.616742 0.277122
vt 0.666430 0.278588
vt 0.610926 0.288934
vt 0.598435 0.288932
vt 0.592837 0.288934
vt 0.592880 0.277012
vt 0.649548 0.286366
vt 0.648242 0.277733
vt 0.653291 0.277649
vt 0.722690 0.288877
vt 0.719217 0.288820
vt 0.719217 0.277158
vt 0.723019 0.277010
vt 0.655388 0.283061
vt 0.726516 0.288956
vt 0.726565 0.276935
vt 0.227467 0.969124
vt 0.222410 0.969274
vt 0.222489 0.957352
vt 0.692122 0.278646
vt 0.688937 0.286775
vt 0.684522 0.284323
vt 0.227467 0.957462
vt 0.685412 0.278588
vt 0.693135 0.283998
vt 0.159976 0.969390
vt 0.156220 0.969391
vt 0.156220 0.957729
vt 0.160246 0.957729
vt 0.645937 0.282204
vt 0.598653 0.277122
vt 0.922967 0.137839
vt 0.916213 0.004688
vt 0.923230 0.004799
vt 0.917405 0.137884
vt 0.556049 0.288863
vt 0.551452 0.288207
vt 0.548514 0.283331
vt 0.551323 0.277896
vt 0.557469 0.277788
vt 0.106526 0.933595
vt 0.102320 0.933538
vt 0.102273 0.800645
vt 0.937700 0.596991
vt 0.934794 0.464089
vt 0.937700 0.464101
vt 0.931546 0.597140
vt 0.913489 0.137746
vt 0.560036 0.284363
vt 0.111180 0.933673
vt 0.106872 0.800498
vt 0.111182 0.800420
vt 0.577181 0.277062
vt 0.580834 0.279929
vt 0.580907 0.285563
vt 0.933353 0.739275
vt 0.928799 0.606382
vt 0.933694 0.606381
vt 0.575790 0.288924
vt 0.570413 0.285944
vt 0.928799 0.739276
vt 0.930174 0.463943
vt 0.571477 0.278966
vt 0.847232 0.896406
vt 0.871042 0.865755
vt 0.870982 0.896447
vt 0.840020 0.539441
vt 0.856008 0.563063
vt 0.839996 0.563190
vt 0.449183 0.879551
vt 0.449187 0.910601
vt 0.432898 0.910627
vt 0.847148 0.865745
vt 0.432894 0.879578
vt 0.887955 0.231591
vt 0.864205 0.262631
vt 0.864206 0.231569
vt 0.887954 0.262653
vt 0.203707 0.899054
vt 0.219934 0.922498
vt 0.203707 0.922498
vt 0.143334 0.799406
vt 0.143330 0.768356
vt 0.159619 0.768330
vt 0.856005 0.539619
vt 0.159623 0.799380
vt 0.219934 0.899053
vt 0.214113 0.947931
vt 0.203751 0.940030
vt 0.207849 0.932756
vt 0.216195 0.932842
vt 0.207908 0.946974
vt 0.220029 0.940043
vt 0.217999 0.945798
vt 0.131234 0.954641
vt 0.125084 0.953676
vt 0.120929 0.946732
vt 0.124971 0.939466
vt 0.133245 0.939563
vt 0.137097 0.946761
vt 0.135243 0.952144
vt 0.892581 0.969065
vt 0.895558 0.969042
vt 0.895573 0.981922
vt 0.892595 0.981945
vt 0.880326 0.969064
vt 0.883331 0.969043
vt 0.883346 0.981923
vt 0.880340 0.981944
vt 0.965606 0.368230
vt 0.964488 0.370790
vt 0.963171 0.368193
vt 0.088873 0.951571
vt 0.090021 0.972065
vt 0.087511 0.972069
vt 0.276668 0.947161
vt 0.279463 0.947122
vt 0.279500 0.968135
vt 0.276705 0.968175
vt 0.263293 0.970950
vt 0.260499 0.970989
vt 0.260462 0.949975
vt 0.263256 0.949936
vt 0.379982 0.948442
vt 0.382814 0.969417
vt 0.380019 0.969456
vt 0.971181 0.280903
vt 0.968349 0.259929
vt 0.971144 0.259890
vt 0.968387 0.280942
vt 0.382777 0.948403
vt 0.423767 0.879551
vt 0.423770 0.910601
vt 0.407481 0.910627
vt 0.203881 0.889692
vt 0.227691 0.859041
vt 0.227630 0.889732
vt 0.203797 0.859031
vt 0.022579 0.887491
vt 0.038567 0.911112
vt 0.022556 0.911239
vt 0.194434 0.859237
vt 0.170684 0.890277
vt 0.170685 0.859215
vt 0.194433 0.890299
vt 0.038565 0.887668
vt 0.458315 0.910627
vt 0.458311 0.879577
vt 0.474600 0.879551
vt 0.170510 0.899613
vt 0.186737 0.923058
vt 0.170510 0.923058
vt 0.407477 0.879578
vt 0.186737 0.899613
vt 0.474604 0.910600
vt 0.032813 0.936847
vt 0.026608 0.935890
vt 0.022450 0.928946
vt 0.026548 0.921671
vt 0.034894 0.921757
vt 0.038729 0.928959
vt 0.036698 0.934714
vt 0.180871 0.948486
vt 0.170566 0.940577
vt 0.174608 0.933311
vt 0.182882 0.933408
vt 0.186734 0.940606
vt 0.174721 0.947521
vt 0.184881 0.945989
vt 0.493081 0.969499
vt 0.496074 0.982356
vt 0.493095 0.982379
vt 0.496059 0.969476
vt 0.699941 0.967522
vt 0.702962 0.980381
vt 0.699956 0.980401
vt 0.702947 0.967501
vt 0.300799 0.947161
vt 0.303631 0.968136
vt 0.300836 0.968175
vt 0.303594 0.947122
vt 0.291566 0.968136
vt 0.288734 0.947161
vt 0.291529 0.947122
vt 0.288771 0.968174
vt 0.312864 0.947161
vt 0.315696 0.968135
vt 0.312901 0.968175
vt 0.055127 0.972519
vt 0.052296 0.951545
vt 0.055090 0.951506
vt 0.052333 0.972558
vt 0.315659 0.947122
vt 0.945778 0.705501
vt 0.944261 0.705676
vt 0.944201 0.606669
vt 0.945613 0.606665
vt 0.751966 0.557317
vt 0.752468 0.559448
vt 0.750366 0.558887
vt 0.943820 0.394330
vt 0.942155 0.295448
vt 0.943820 0.295547
vt 0.942347 0.394491
vt 0.932227 0.394331
vt 0.930429 0.394330
vt 0.930562 0.295450
vt 0.932069 0.295345
vt 0.866002 0.272360
vt 0.866511 0.274487
vt 0.864284 0.273884
vt 0.943506 0.285918
vt 0.941929 0.187086
vt 0.943342 0.187082
vt 0.941989 0.286093
vt 0.942711 0.847446
vt 0.941046 0.748565
vt 0.942711 0.748664
vt 0.941238 0.847608
vt 0.819308 0.558817
vt 0.819810 0.560947
vt 0.817608 0.560345
vt 0.935480 0.103622
vt 0.933683 0.103622
vt 0.933816 0.004741
vt 0.935323 0.004636
vt 0.851713 0.271255
vt 0.852222 0.273382
vt 0.849994 0.272779
vt 0.944949 0.004668
vt 0.949208 0.004690
vt 0.949179 0.071164
vt 0.688461 0.841304
vt 0.717314 0.907798
vt 0.688485 0.907872
vt 0.365806 0.972052
vt 0.370015 0.942855
vt 0.370044 0.972016
vt 0.717289 0.841231
vt 0.008826 0.941139
vt 0.004616 0.970336
vt 0.004588 0.941175
vt 0.944919 0.071142
vt 0.008855 0.970299
vt 0.365777 0.942892
vt 0.864144 0.155631
vt 0.893240 0.155577
vt 0.893264 0.222143
vt 0.864168 0.222198
vt 0.944934 0.080500
vt 0.949098 0.080530
vt 0.949073 0.147001
vt 0.944905 0.146972
vt 0.944541 0.158471
vt 0.957192 0.176542
vt 0.944544 0.176573
vt 0.957188 0.158440
vt 0.032147 0.946085
vt 0.038075 0.946096
vt 0.038075 0.963947
vt 0.751769 0.978991
vt 0.751764 0.966260
vt 0.757791 0.966291
vt 0.757796 0.979023
vt 0.953121 0.259664
vt 0.959183 0.259664
vt 0.959183 0.277516
vt 0.953121 0.277516
vt 0.880419 0.941417
vt 0.892952 0.959481
vt 0.880420 0.959519
vt 0.892947 0.941378
vt 0.126915 0.964023
vt 0.120893 0.976722
vt 0.120887 0.963991
vt 0.126920 0.976754
vt 0.032147 0.963936
vt 0.993942 0.372406
vt 0.483744 0.903829
vt 0.990788 0.259751
vt 0.990978 0.259952
vt 0.990624 0.274949
vt 0.990440 0.053977
vt 0.990631 0.054178
vt 0.990276 0.069175
vt 0.247048 0.858291
vt 0.858550 0.993633
vt 0.858059 0.993634
vt 0.858252 0.978635
vt 0.990324 0.128108
vt 0.990514 0.128309
vt 0.990160 0.143306
vt 0.985935 0.226904
vt 0.985352 0.226753
vt 0.985741 0.211652
vt 0.721604 0.573300
vt 0.874575 0.539275
vt 0.407727 0.970484
vt 0.408392 0.970485
vt 0.408163 0.985484
vt 0.185860 0.970910
vt 0.943213 0.944528
vt 0.170510 0.971063
vt 0.762199 0.561375
vt 0.766911 0.978870
vt 0.767250 0.979213
vt 0.915820 0.685052
vt 0.915537 0.892589
vt 0.817401 0.284647
vt 0.840297 0.216981
vt 0.237976 0.798924
vt 0.772509 0.552438
vt 0.772795 0.284290
vt 0.191458 0.958064
vt 0.191111 0.957729
vt 0.763067 0.276875
vt 0.750404 0.547513
vt 0.958278 0.738338
vt 0.984042 0.809781
vt 0.987207 0.801709
s 1
usemtl shop_004_baked
f 1/1/1 2/2/1 3/3/1
f 1/1/1 3/3/1 4/4/1
f 24/5/2 26/6/2 27/7/2
f 31/8/3 33/9/4 30/10/5
f 34/11/6 36/12/7 37/13/8
f 39/14/9 41/15/9 42/16/9
f 43/17/10 45/18/10 46/19/10
f 51/20/11 53/21/11 54/22/11
f 56/23/12 58/24/12 55/25/12
f 60/26/13 62/27/13 63/28/13
f 66/29/14 68/30/14 65/31/14
f 70/32/15 72/33/16 64/34/17
f 73/35/18 74/36/18 75/37/18
f 77/38/19 79/39/19 76/40/19
f 178/41/20 176/42/20 177/43/20
f 328/44/21 327/45/21 329/46/21
f 359/47/21 358/48/21 360/49/21
f 65/50/22 24/5/22 27/7/22
f 73/35/23 43/51/23 46/52/23
f 48/53/24 74/36/24 47/54/24
f 43/51/25 51/20/25 44/55/25
f 172/56/26 175/57/26 174/58/26
f 211/59/27 209/60/27 208/61/27
f 172/62/28 210/63/29 173/64/30
f 321/65/31 323/66/32 322/67/33
f 328/68/21 329/69/21 327/70/21
f 359/71/21 360/72/21 358/73/21
f 366/74/34 364/75/35 365/76/36
f 60/77/37 28/78/37 29/79/37
f 47/80/38 24/81/38 48/82/38
f 53/83/39 55/84/39 54/85/39
f 31/8/40 39/86/40 42/87/40
f 76/40/41 32/88/41 31/89/41
f 69/90/42 58/24/43 57/91/44
f 207/92/45 180/93/45 179/94/45
f 314/95/21 312/96/21 313/97/21
f 320/98/21 318/99/21 319/100/21
f 325/101/46 324/102/47 326/103/48
f 363/104/49 362/105/50 361/106/51
f 367/107/21 368/108/21 369/109/21
f 370/110/21 372/111/21 371/112/21
f 373/113/21 375/114/21 374/115/21
f 26/116/52 22/117/53 21/118/54
f 59/119/55 50/120/56 49/121/57
f 45/51/58 81/122/58 80/123/58
f 171/124/59 174/125/59 175/126/59
f 27/7/60 63/28/61 62/27/13
f 35/127/62 66/29/62 65/31/62
f 71/128/63 61/129/63 72/33/63
f 37/130/64 79/39/65 78/131/66
f 177/132/67 205/133/67 206/134/67
f 314/135/21 313/136/21 312/137/21
f 320/138/21 319/139/21 318/140/21
f 367/141/21 369/142/21 368/143/21
f 370/144/21 371/145/21 372/146/21
f 373/147/21 374/148/21 375/149/21
f 35/150/68 40/151/68 36/152/68
f 71/153/69 77/154/69 76/155/69
f 64/34/17 68/156/70 67/157/71
f 22/158/72 41/159/72 21/160/72
f 50/161/73 32/162/73 49/163/73
f 81/164/74 37/165/8 80/166/75
f 12/167/76 5/168/77 7/169/78
f 7/170/78 5/171/77 9/172/79
f 12/167/76 11/173/80 5/168/77
f 11/174/80 9/175/79 5/176/77
f 7/170/78 9/172/79 6/177/81
f 8/178/82 10/179/83 6/180/81
f 8/178/82 6/180/81 9/181/79
f 10/182/83 7/183/78 6/184/81
f 10/182/83 12/185/76 7/183/78
f 10/186/83 8/187/82 11/188/80
f 11/174/80 8/189/82 9/175/79
f 10/186/83 11/188/80 12/190/76
f 14/191/84 13/192/85 19/193/86
f 18/194/87 16/195/88 13/196/85
f 18/194/87 13/196/85 14/197/84
f 16/198/88 19/199/86 13/200/85
f 15/201/89 18/202/87 14/203/84
f 14/191/84 19/193/86 20/204/90
f 15/201/89 14/203/84 20/205/90
f 15/206/89 17/207/91 16/208/88
f 17/209/91 15/210/89 20/211/90
f 15/206/89 16/208/88 18/212/87
f 16/198/88 17/213/91 19/199/86
f 17/209/91 20/211/90 19/214/86
f 21/118/92 28/215/93 26/116/94
f 21/118/92 23/216/95 28/215/93
f 22/217/53 26/218/52 25/219/96
f 22/217/53 25/219/96 41/220/97
f 23/221/95 21/222/92 42/87/98
f 29/223/99 23/224/100 33/225/101
f 23/221/95 42/87/98 30/10/102
f 65/50/103 25/226/103 41/227/103
f 31/89/104 42/228/104 41/227/104
f 39/229/105 41/230/105 25/231/105
f 27/7/106 62/27/106 31/89/106
f 74/232/1 48/233/1 24/234/1
f 33/225/107 32/235/107 62/236/107
f 26/237/94 28/78/93 63/238/61
f 62/27/106 76/40/106 31/89/106
f 51/239/108 49/163/109 32/162/110
f 77/240/111 53/241/111 32/162/110
f 62/242/97 31/243/97 50/244/56
f 38/245/112 45/246/112 36/247/112
f 44/248/113 43/249/113 35/127/113
f 79/250/1 36/251/1 45/252/1
f 65/50/106 41/227/106 35/150/106
f 38/245/114 36/247/114 40/253/114
f 81/254/74 34/11/6 37/13/8
f 47/80/115 38/255/116 39/229/117
f 46/256/118 38/257/116 47/258/115
f 75/259/119 66/29/120 43/249/121
f 51/260/1 77/261/1 79/250/1
f 80/123/122 52/262/122 44/55/122
f 46/256/118 47/258/115 75/263/123
f 49/121/124 55/25/125 59/119/126
f 49/121/124 54/22/127 55/25/125
f 50/244/56 59/264/55 60/265/128
f 53/83/129 82/266/130 78/267/66
f 53/83/131 78/267/131 77/154/131
f 80/123/132 82/268/130 52/262/133
f 56/269/134 53/83/134 77/154/134
f 56/269/135 71/153/135 72/270/135
f 58/271/111 68/272/111 72/273/111
f 68/272/136 73/274/136 74/275/136
f 59/276/137 72/277/137 61/278/138
f 62/27/106 71/128/106 76/40/106
f 69/279/42 57/280/44 64/281/17
f 69/279/42 64/281/17 67/282/71
f 57/283/44 70/284/15 64/285/17
f 74/286/139 67/287/139 66/29/139
f 74/286/140 69/288/42 67/287/71
f 82/289/130 80/166/132 37/165/64
f 82/289/130 37/165/64 78/290/66
f 87/291/141 83/292/142 90/293/143
f 86/294/144 89/295/145 83/296/142
f 86/294/144 83/296/142 87/297/141
f 89/298/145 90/299/143 83/300/142
f 84/301/146 87/302/141 85/303/147
f 84/301/146 86/304/144 87/302/141
f 84/305/146 88/306/148 89/307/145
f 84/305/146 89/307/145 86/308/144
f 88/309/148 84/310/146 85/311/147
f 87/291/141 90/293/143 85/312/147
f 88/309/148 85/311/147 90/313/143
f 89/298/145 88/314/148 90/299/143
f 94/315/149 91/316/150 93/317/151
f 94/315/149 93/317/151 92/318/152
f 91/319/150 94/320/149 92/321/152
f 91/319/150 92/321/152 93/322/151
f 96/323/153 95/324/154 97/325/155
f 95/326/154 98/327/156 97/328/155
f 95/326/154 96/329/153 98/327/156
f 96/323/153 97/325/155 98/330/156
f 101/331/157 100/332/158 99/333/155
f 102/334/159 99/335/155 100/336/158
f 102/334/159 101/337/157 99/335/155
f 101/331/157 102/338/159 100/332/158
f 106/339/160 103/340/161 104/341/155
f 103/342/161 105/343/156 104/344/155
f 103/342/161 106/345/160 105/343/156
f 106/339/160 104/341/155 105/346/156
f 107/347/162 108/348/163 113/349/164
f 107/347/162 111/350/165 108/348/163
f 112/351/166 107/352/162 113/353/164
f 112/354/167 111/355/168 107/356/169
f 113/357/170 108/358/171 110/359/172
f 111/360/165 110/361/173 108/362/163
f 112/354/167 109/363/174 111/355/168
f 109/364/175 112/365/166 114/366/176
f 111/360/165 109/367/175 110/361/173
f 109/364/175 114/366/176 110/368/173
f 113/357/170 110/359/172 114/369/177
f 112/351/166 113/353/164 114/370/176
f 119/371/146 120/372/145 115/373/144
f 115/374/144 120/375/145 116/376/142
f 119/377/146 115/378/144 121/379/141
f 115/374/144 116/376/142 121/380/141
f 121/381/141 116/382/142 122/383/143
f 120/384/145 122/385/143 116/386/142
f 117/387/148 118/388/147 122/389/143
f 117/387/148 119/390/146 118/388/147
f 120/384/145 117/391/148 122/385/143
f 119/371/146 117/392/148 120/372/145
f 119/377/146 121/379/141 118/393/147
f 121/381/141 122/383/143 118/394/147
f 124/395/178 123/396/179 126/397/180
f 124/395/178 125/398/181 123/396/179
f 125/399/181 124/400/178 126/401/180
f 125/399/181 126/401/180 123/402/179
f 130/403/153 127/404/154 128/405/155
f 130/403/153 128/405/155 129/406/156
f 127/407/154 129/408/156 128/409/155
f 127/407/154 130/410/153 129/408/156
f 134/411/182 133/412/183 131/413/184
f 134/411/182 132/414/185 133/412/183
f 132/415/185 131/416/184 133/417/183
f 132/415/185 134/418/182 131/416/184
f 138/419/154 136/420/156 135/421/155
f 137/422/153 135/423/155 136/424/156
f 138/419/154 137/425/153 136/420/156
f 137/422/153 138/426/154 135/423/155
f 139/427/162 141/428/163 142/429/164
f 139/427/162 140/430/165 141/428/163
f 144/431/166 139/432/162 142/433/164
f 144/434/167 140/435/168 139/436/169
f 144/434/167 143/437/174 140/435/168
f 140/438/165 143/439/175 145/440/173
f 140/438/165 145/440/173 141/441/163
f 142/442/170 141/443/171 145/444/172
f 142/442/170 145/444/172 146/445/177
f 144/431/166 142/433/164 146/446/176
f 143/447/175 144/448/166 146/449/176
f 143/447/175 146/449/176 145/450/173
f 153/451/141 147/452/142 154/453/143
f 148/454/144 152/455/145 147/456/142
f 148/454/144 147/456/142 153/457/141
f 152/458/145 154/459/143 147/460/142
f 151/461/146 152/462/145 148/463/144
f 151/464/146 148/465/144 153/466/141
f 149/467/148 150/468/147 154/469/143
f 149/467/148 151/470/146 150/468/147
f 152/458/145 149/471/148 154/459/143
f 151/461/146 149/472/148 152/462/145
f 151/464/146 153/466/141 150/473/147
f 153/451/141 154/453/143 150/474/147
f 156/475/149 157/476/179 158/477/180
f 156/475/149 155/478/150 157/476/179
f 155/479/150 156/480/149 158/481/180
f 155/479/150 158/481/180 157/482/179
f 162/483/186 159/484/187 160/485/188
f 162/483/186 160/485/188 161/486/189
f 159/487/187 161/488/189 160/489/188
f 159/487/187 162/490/186 161/488/189
f 165/491/185 163/492/190 164/493/184
f 163/494/190 166/495/183 164/496/184
f 165/491/185 164/493/184 166/497/183
f 163/494/190 165/498/185 166/495/183
f 169/499/159 167/500/157 168/501/191
f 167/502/157 170/503/156 168/504/191
f 167/502/157 169/505/159 170/503/156
f 169/499/159 168/501/191 170/506/156
f 171/507/192 206/134/193 176/508/194
f 171/507/195 209/60/195 206/134/195
f 174/509/196 171/510/192 176/511/194
f 175/126/197 208/512/197 171/124/197
f 172/62/198 208/512/198 175/126/198
f 208/513/97 206/514/97 173/515/97
f 173/515/97 179/516/97 180/517/97
f 173/518/199 174/519/196 178/520/200
f 173/64/201 211/521/201 208/512/201
f 173/64/202 210/63/202 211/521/202
f 209/522/134 173/523/134 180/524/134
f 172/56/28 180/93/203 210/525/29
f 173/518/204 178/520/204 180/93/204
f 174/509/196 176/511/194 178/526/200
f 177/43/205 179/527/205 178/41/205
f 205/528/206 179/527/206 177/43/206
f 206/529/207 207/530/207 179/527/207
f 180/524/134 206/531/134 209/522/134
f 210/525/208 180/93/209 207/92/210
f 181/532/148 182/533/147 188/534/143
f 181/532/148 184/535/146 182/533/147
f 183/536/145 181/537/148 188/538/143
f 184/539/146 181/540/148 183/541/145
f 184/542/146 186/543/141 182/544/147
f 186/545/141 188/546/143 182/547/147
f 184/539/146 183/541/145 185/548/144
f 185/549/144 183/550/145 187/551/142
f 183/536/145 188/538/143 187/552/142
f 184/542/146 185/553/144 186/543/141
f 185/549/144 187/551/142 186/554/141
f 186/545/141 187/555/142 188/546/143
f 190/556/149 192/557/179 189/558/180
f 190/556/149 191/559/150 192/557/179
f 191/560/150 189/561/180 192/562/179
f 191/560/150 190/563/149 189/561/180
f 196/564/190 193/565/185 194/566/183
f 193/567/185 195/568/211 194/569/183
f 196/564/190 194/566/183 195/570/211
f 193/567/185 196/571/190 195/568/211
f 200/572/185 197/573/182 199/574/211
f 200/572/185 199/574/211 198/575/183
f 197/576/182 198/577/183 199/578/211
f 197/576/182 200/579/185 198/577/183
f 204/580/153 201/581/154 202/582/155
f 204/580/153 202/582/155 203/583/156
f 201/584/154 204/585/153 203/586/156
f 201/584/154 203/586/156 202/587/155
f 206/529/212 212/588/212 207/530/212
f 209/60/97 205/133/97 206/134/97
f 211/589/213 210/590/208 207/591/210
f 211/589/213 207/591/210 212/592/214
f 209/60/215 211/59/213 212/593/214
f 217/594/216 213/595/217 215/596/218
f 213/597/217 214/598/219 215/599/218
f 217/600/216 219/601/220 213/602/217
f 213/597/217 219/603/220 214/598/219
f 215/604/218 214/605/219 220/606/221
f 219/607/220 220/608/221 214/609/219
f 215/604/218 220/606/221 216/610/222
f 217/594/216 215/596/218 216/611/222
f 218/612/223 216/613/222 220/614/221
f 218/612/223 217/615/216 216/613/222
f 217/600/216 218/616/223 219/601/220
f 219/607/220 218/617/223 220/608/221
f 221/618/224 224/619/225 222/620/226
f 221/618/224 223/621/227 224/619/225
f 223/622/227 221/623/224 222/624/226
f 223/622/227 222/624/226 224/625/225
f 226/626/228 225/627/229 227/628/230
f 226/626/228 227/628/230 228/629/231
f 225/630/229 226/631/228 228/632/231
f 225/630/229 228/632/231 227/633/230
f 232/634/232 229/635/233 231/636/234
f 232/634/232 231/636/234 230/637/235
f 229/638/233 230/639/235 231/640/234
f 229/638/233 232/641/232 230/639/235
f 233/642/233 235/643/235 236/644/234
f 233/642/233 234/645/232 235/643/235
f 234/646/232 236/647/234 235/648/235
f 234/646/232 233/649/233 236/647/234
f 238/650/236 237/651/237 242/652/238
f 242/653/239 237/654/240 243/655/241
f 238/650/236 241/656/242 237/651/237
f 241/657/243 243/658/241 237/659/240
f 240/660/244 238/661/245 242/662/239
f 240/663/244 241/664/243 238/665/245
f 240/663/244 239/666/246 241/664/243
f 239/667/247 240/668/248 244/669/249
f 241/657/243 239/670/246 243/658/241
f 239/667/247 244/669/249 243/671/250
f 240/660/244 242/662/239 244/672/251
f 242/653/239 243/655/241 244/673/251
f 252/674/252 245/675/253 249/676/254
f 251/677/255 245/678/253 252/679/252
f 251/677/255 250/680/256 245/678/253
f 250/681/256 249/682/254 245/683/253
f 246/684/257 247/685/258 249/686/254
f 246/684/257 248/687/259 247/685/258
f 250/681/256 246/688/257 249/682/254
f 248/689/259 246/690/257 250/691/256
f 248/692/259 252/693/252 247/694/258
f 252/674/252 249/676/254 247/695/258
f 248/689/259 250/691/256 251/696/255
f 248/692/259 251/697/255 252/693/252
f 256/698/260 253/699/261 255/700/262
f 253/701/261 254/702/263 255/703/262
f 253/701/261 256/704/260 254/702/263
f 256/698/260 255/700/262 254/705/263
f 257/706/260 260/707/262 258/708/263
f 257/706/260 259/709/261 260/707/262
f 259/710/261 258/711/263 260/712/262
f 259/710/261 257/713/260 258/711/263
f 264/714/260 261/715/262 262/716/263
f 264/714/260 263/717/261 261/715/262
f 263/718/261 262/719/263 261/720/262
f 263/718/261 264/721/260 262/719/263
f 265/722/264 273/723/265 266/724/266
f 265/725/264 268/726/267 274/727/268
f 265/725/264 267/728/269 268/726/267
f 265/722/264 266/724/266 272/729/270
f 265/722/264 272/729/270 267/730/269
f 272/731/270 266/732/266 270/733/271
f 267/734/269 269/735/272 268/736/267
f 272/731/270 270/733/271 269/735/272
f 268/737/267 269/738/272 270/739/271
f 266/740/266 271/741/273 270/742/271
f 268/737/267 270/739/271 271/743/273
f 266/740/266 273/744/265 271/741/273
f 273/745/265 274/746/268 271/747/273
f 268/737/267 271/743/273 274/748/268
f 267/734/269 272/731/270 269/735/272
f 273/745/265 265/749/264 274/746/268
f 284/750/265 275/751/264 282/752/268
f 275/753/264 276/754/266 277/755/270
f 277/756/270 276/757/266 283/758/271
f 277/756/270 283/758/271 280/759/272
f 275/753/264 277/755/270 278/760/269
f 278/761/269 277/756/270 280/759/272
f 278/761/269 280/759/272 279/762/267
f 275/763/264 278/764/269 279/765/267
f 279/766/267 283/767/271 281/768/273
f 275/763/264 279/765/267 282/769/268
f 279/766/267 281/768/273 282/770/268
f 279/766/267 280/771/272 283/767/271
f 276/772/266 284/773/265 281/774/273
f 276/772/266 281/774/273 283/775/271
f 275/753/264 284/776/265 276/754/266
f 284/750/265 282/752/268 281/777/273
f 285/778/274 293/779/275 291/780/276
f 285/778/274 296/781/277 293/779/275
f 287/782/278 296/783/277 285/784/274
f 287/782/278 286/785/279 295/786/280
f 295/787/280 286/788/279 290/789/281
f 287/782/278 285/784/274 286/785/279
f 287/790/278 292/791/282 293/792/283
f 287/790/278 288/793/284 292/791/282
f 296/781/277 287/794/278 293/779/275
f 287/782/278 295/786/280 288/795/284
f 288/796/285 295/787/280 289/797/286
f 288/796/285 289/797/286 294/798/287
f 292/799/282 294/800/287 289/801/286
f 286/802/279 291/803/276 290/804/281
f 292/799/282 290/805/281 291/806/276
f 286/802/279 285/807/274 291/803/276
f 292/799/282 289/801/286 290/805/281
f 288/793/285 294/808/287 292/791/282
f 292/799/282 291/806/276 293/809/283
f 295/787/280 290/789/281 289/797/286
f 303/810/288 297/811/289 304/812/290
f 302/813/291 300/814/292 297/815/289
f 304/816/290 297/817/289 300/818/292
f 303/810/288 302/819/291 297/811/289
f 304/816/290 300/818/292 298/820/293
f 299/821/294 298/822/293 300/823/292
f 299/821/294 301/824/295 298/822/293
f 301/825/295 304/826/290 298/827/293
f 301/828/295 299/829/294 302/830/291
f 302/813/291 299/831/294 300/814/292
f 301/828/295 302/830/291 303/832/288
f 301/825/295 303/833/288 304/826/290
f 311/834/296 307/835/297 306/836/298
f 311/834/296 306/836/298 309/837/299
f 311/834/296 310/838/300 307/835/297
f 311/834/296 305/839/301 308/840/302
f 311/834/296 309/837/299 305/839/301
f 308/841/302 305/842/301 309/843/299
f 308/841/302 309/843/299 306/844/298
f 308/841/302 306/844/298 307/845/297
f 308/841/302 307/845/297 310/846/300
f 308/841/302 310/846/300 311/847/296
f 331/848/303 330/849/304 332/850/305
f 331/848/303 332/850/305 333/851/306
f 330/852/304 331/853/303 333/854/306
f 330/852/304 333/854/306 332/855/305
f 334/856/307 335/857/308 338/858/309
f 337/859/310 334/860/307 338/861/309
f 335/862/308 334/863/307 337/864/310
f 335/862/308 337/864/310 336/865/311
f 336/866/311 337/867/310 338/868/309
f 336/866/311 338/868/309 335/869/308
f 340/870/312 342/871/313 339/872/314
f 339/873/314 341/874/315 340/875/312
f 339/873/314 342/876/313 341/874/315
f 340/870/312 341/877/315 342/871/313
f 346/878/290 343/879/289 350/880/292
f 349/881/288 343/882/289 346/883/290
f 349/881/288 347/884/291 343/882/289
f 347/885/291 350/886/292 343/887/289
f 344/888/294 345/889/293 350/890/292
f 344/888/294 348/891/295 345/889/293
f 347/885/291 344/892/294 350/886/292
f 348/893/295 344/894/294 347/895/291
f 348/896/295 346/897/290 345/898/293
f 346/878/290 350/880/292 345/899/293
f 348/896/295 349/900/288 346/897/290
f 348/893/295 347/895/291 349/901/288
f 357/902/296 351/903/300 352/904/297
f 357/902/296 352/904/297 353/905/298
f 357/902/296 354/906/299 356/907/301
f 357/902/296 356/907/301 355/908/302
f 357/902/296 353/905/298 354/906/299
f 355/909/302 354/910/299 353/911/298
f 355/909/302 353/911/298 352/912/297
f 355/909/302 352/912/297 351/913/300
f 355/909/302 356/914/301 354/910/299
f 355/909/302 351/913/300 357/915/296
f 378/916/303 376/917/305 377/918/306
f 378/916/303 379/919/304 376/917/305
f 379/920/304 377/921/306 376/922/305
f 379/920/304 378/923/303 377/921/306
f 382/924/312 383/925/313 380/926/314
f 382/924/312 381/927/315 383/925/313
f 380/928/314 381/929/315 382/930/312
f 380/928/314 383/931/313 381/929/315
f 385/932/312 387/933/313 384/934/314
f 384/935/314 386/936/315 385/937/312
f 384/935/314 387/938/313 386/936/315
f 385/932/312 386/939/315 387/933/313
f 388/940/316 389/941/317 391/942/318
f 388/940/316 391/942/318 390/943/319
f 389/944/317 388/945/316 392/946/320
f 389/947/317 393/948/321 391/949/318
f 389/947/317 392/950/320 393/948/321
f 392/951/320 388/952/316 390/953/319
f 392/951/320 390/953/319 393/954/321
f 393/955/321 390/956/319 391/957/318
f 394/958/316 398/959/318 397/960/319
f 394/958/316 399/961/317 398/959/318
f 399/962/317 396/963/322 398/964/318
f 399/962/317 395/965/320 396/963/322
f 399/966/317 394/967/316 395/968/320
f 395/969/320 394/970/316 397/971/319
f 395/969/320 397/971/319 396/972/322
f 396/973/322 397/974/319 398/975/318
f 402/976/323 400/977/324 401/978/325
f 400/979/324 406/980/326 401/981/325
f 402/982/323 405/983/327 400/984/324
f 400/979/324 405/985/327 406/980/326
f 401/986/325 407/987/328 403/988/329
f 402/976/323 401/978/325 403/989/329
f 401/986/325 406/990/326 407/987/328
f 402/982/323 404/991/330 405/983/327
f 404/992/330 402/993/323 403/994/329
f 404/992/330 403/994/329 407/995/328
f 405/996/327 404/997/330 407/998/328
f 405/996/327 407/998/328 406/999/326
f 408/1000/331 415/1001/332 414/1002/333
f 408/1000/331 409/1003/334 415/1001/332
f 412/1004/335 408/1005/331 414/1006/333
f 409/1007/334 408/1008/331 412/1009/335
f 409/1007/334 412/1009/335 410/1010/336
f 409/1011/334 410/1012/336 411/1013/337
f 409/1011/334 411/1013/337 415/1014/332
f 410/1015/336 413/1016/338 411/1017/337
f 410/1015/336 412/1018/335 413/1016/338
f 411/1019/337 414/1020/333 415/1021/332
f 411/1019/337 413/1022/338 414/1020/333
f 412/1004/335 414/1006/333 413/1023/338
f 24/5/339 25/226/339 26/6/339
f 31/8/340 32/162/340 33/9/340
f 34/11/341 35/127/341 36/12/342
f 39/14/343 40/1024/343 41/15/343
f 43/17/344 44/1025/344 45/18/344
f 51/20/11 52/262/133 53/21/345
f 56/23/346 57/91/346 58/24/346
f 60/26/347 61/129/13 62/27/13
f 66/29/348 67/287/348 68/30/348
f 70/32/349 71/128/349 72/33/350
f 73/35/351 69/90/42 74/36/140
f 77/38/352 78/131/352 79/39/352
f 326/1026/48 324/1027/47 325/1028/46
f 316/1029/21 317/1030/21 315/1031/21
f 65/50/353 68/156/353 24/5/353
f 73/35/23 75/37/23 43/51/23
f 48/53/354 75/37/354 74/36/354
f 59/119/126 55/25/125 58/24/355
f 51/20/127 54/22/127 49/121/124
f 43/51/23 52/262/23 51/20/23
f 171/124/356 208/512/356 209/1032/356
f 172/56/357 173/518/357 175/57/357
f 322/1033/33 323/1034/32 321/1035/31
f 361/1036/51 362/1037/50 363/1038/49
f 365/1039/36 364/1040/35 366/1041/34
f 60/77/358 63/238/61 28/78/93
f 23/221/102 30/10/102 33/9/102
f 29/1042/99 28/215/359 23/216/100
f 47/80/360 25/231/360 24/81/360
f 53/83/361 56/269/361 55/84/361
f 82/268/130 53/21/345 52/262/133
f 31/8/3 30/10/5 39/86/362
f 46/256/363 45/1043/363 38/257/363
f 76/40/364 79/39/364 32/88/364
f 69/90/42 73/35/365 58/24/43
f 178/520/366 179/94/366 180/93/366
f 317/1044/21 316/1045/21 315/1046/21
f 59/276/137 61/278/138 60/1047/367
f 45/51/368 44/55/368 81/122/368
f 27/7/60 26/6/94 63/28/61
f 35/127/341 34/11/341 66/29/369
f 71/128/13 62/27/13 61/129/13
f 37/130/64 36/152/370 79/39/65
f 177/132/371 176/1048/371 205/133/371
f 212/588/372 206/529/373 205/528/374
f 40/253/375 39/1049/375 38/245/375
f 35/150/4 41/227/4 40/151/4
f 71/153/349 70/284/349 77/154/376
f 64/34/17 72/33/377 68/156/70
f 22/158/10 42/1050/10 41/159/10
f 50/161/378 33/9/378 32/162/378
f 65/50/379 24/5/379 25/226/379
f 66/1051/1 74/232/1 24/234/1
f 24/234/1 68/1052/1 66/1051/1
f 24/5/380 27/7/380 25/226/380
f 27/7/106 31/89/106 41/227/106
f 25/226/381 27/7/381 41/227/381
f 25/231/382 47/80/115 39/229/117
f 63/1053/18 29/223/18 62/236/18
f 29/223/99 33/225/101 62/236/134
f 32/235/383 31/1054/383 62/236/383
f 51/239/108 32/162/110 53/241/111
f 32/162/110 79/1055/111 77/240/111
f 32/1056/384 50/244/384 31/243/384
f 50/244/56 60/265/128 62/242/97
f 36/12/385 45/1057/385 35/127/385
f 45/1057/386 44/248/386 35/127/386
f 43/249/121 66/29/120 35/127/121
f 43/1058/1 79/250/1 45/252/1
f 34/11/6 81/254/74 45/1057/97
f 34/11/387 45/1057/387 36/12/387
f 75/259/18 74/286/18 66/29/18
f 79/250/1 43/1058/1 51/260/1
f 53/1059/1 77/261/1 51/260/1
f 70/284/15 57/283/44 56/269/388
f 70/284/389 56/269/389 72/270/389
f 72/277/390 59/276/391 56/1060/392
f 59/276/391 58/1061/393 56/1060/392
f 56/269/394 77/154/394 71/153/394
f 72/273/111 56/1062/111 58/271/111
f 68/272/395 58/271/395 73/274/395
f 74/275/111 66/1063/111 68/272/111
f 172/62/97 173/64/97 208/512/97
f 208/513/97 209/1064/97 206/514/97
f 173/515/97 206/514/97 179/516/97
f 209/522/134 208/1065/134 173/523/134
f 172/56/97 173/518/97 180/93/97
f 205/528/97 206/529/97 179/527/97
f 180/524/134 179/1066/134 206/531/134
f 209/60/396 212/593/372 205/133/374
