# Blender 4.5.0
# www.blender.org
mtllib shop_005.mtl
o shop_005
v 2.372014 2.961580 -3.083525
v 2.372014 2.530882 -3.083525
v -2.372014 2.961580 -3.083525
v -2.372014 2.530882 -3.083525
v -3.874041 0.132861 -3.550000
v 3.874041 0.132861 3.550000
v -3.874041 0.000916 3.550000
v 3.875000 0.000000 3.548504
v -3.875000 0.133777 3.548504
v -3.875000 -0.000000 -3.548504
v 3.875000 0.133776 -3.548504
v 3.874041 0.000915 -3.550000
v 3.548043 0.139535 -2.749672
v 3.548043 3.039177 3.049918
v -3.548043 0.139536 3.049918
v -3.548044 3.039176 -2.749672
v -3.549713 0.139198 -2.747812
v 3.549713 3.039513 -2.747812
v 3.549713 0.139199 3.048057
v -3.549713 3.039513 3.048057
v -3.499247 3.131013 -2.877787
v -3.484567 3.158713 2.867136
v -3.492966 3.154171 2.859620
v 3.485154 3.159652 -2.864895
v 3.492966 3.154171 -2.859621
v 3.492966 3.049443 -2.867348
v 3.497246 3.049443 -2.867348
v 3.492966 3.041709 -2.859621
v 3.485238 3.049443 -2.867348
v 3.488486 3.157577 2.865065
v -3.497108 3.051038 -2.867348
v -3.492966 3.049443 -2.867348
v -3.483552 3.041709 -2.859621
v 3.485238 3.049443 2.867348
v 3.492966 3.041710 2.859620
v 3.497108 3.051038 2.867348
v 3.492966 3.049443 2.867348
v -3.653102 3.402295 2.867348
v -3.662361 3.402295 2.859620
v -3.653102 3.401528 2.867348
v -3.645374 3.402295 2.859620
v -3.645374 3.041709 -2.859621
v -3.653102 3.050977 -2.867348
v -3.651346 3.043370 -3.022263
v -3.643842 3.041709 -2.867348
v -3.495547 3.396682 2.863997
v -3.497246 3.049443 2.867348
v -3.492966 3.041710 2.859620
v -3.500693 3.033977 2.867348
v -3.492966 3.041225 2.867339
v -3.496349 3.402059 -2.859119
v -3.497246 3.394560 -2.867348
v -3.653102 3.049443 2.870782
v -3.645374 3.041710 2.859620
v -3.645374 3.041710 2.867348
v -3.648712 3.044075 3.024433
v 3.496963 3.398403 -2.865685
v 3.645374 3.402295 2.867348
v 3.645374 3.402295 2.875075
v 3.653102 3.394561 2.867348
v 3.645374 3.402295 2.859620
v 3.498887 3.400495 2.864440
v 3.492966 3.394561 2.859620
v 3.645374 3.402294 -2.859621
v 3.653102 3.393027 -2.867348
v 3.651346 3.400634 -3.022263
v 3.643842 3.402294 -2.867348
v -3.648712 3.399928 -3.024434
v 3.648712 3.044075 -3.024434
v -3.645374 3.402294 -2.859621
v -3.653102 3.394560 -2.867348
v -3.660829 3.402294 -2.875075
v 3.653102 3.049443 -2.870783
v 3.645374 3.041709 -2.859621
v 3.645374 3.041709 -2.867348
v 3.645374 3.041710 2.859620
v 3.653102 3.050977 2.867348
v 3.651346 3.043370 3.022263
v 3.643842 3.041710 2.867348
v 3.650364 3.397456 3.024946
v -3.644924 3.401979 3.023485
v -3.653102 3.392966 3.023336
v -2.101616 0.500374 -2.896124
v -3.202888 2.287704 -2.896125
v -3.203665 0.499925 -2.895568
v -2.101616 2.287704 -2.748497
v -3.202888 0.500374 -2.748497
v -2.100838 0.499925 -2.749054
v -3.203665 2.288153 -2.749054
v -2.100838 2.288153 -2.895568
v -3.136711 2.219279 -2.913619
v -3.136711 0.568799 -2.911151
v -2.167793 2.219279 -2.911151
v -2.167793 0.568799 -2.913618
v -3.135675 2.262688 -2.972229
v -3.139653 0.535406 -2.972229
v -3.135675 0.535406 -2.912590
v -3.139653 2.262688 -2.912590
v -2.650263 2.262688 -2.972229
v -2.654241 0.535406 -2.972229
v -2.650263 0.535406 -2.912590
v -2.654241 2.262688 -2.912590
v -2.164850 2.262688 -2.972229
v -2.168829 0.535406 -2.972229
v -2.168829 2.262688 -2.912590
v -2.164850 0.535406 -2.912590
v -2.046157 0.501993 -3.082915
v -3.247482 0.458844 -2.844357
v -2.046157 0.493179 -2.841936
v -3.258347 0.493179 -3.082915
v -3.248902 0.536482 -2.845241
v -1.751656 2.287704 -2.896125
v -0.650384 0.500374 -2.896124
v -1.751656 0.500374 -2.748497
v -1.752433 2.288153 -2.749054
v -1.752433 0.499925 -2.895568
v -0.650384 2.287704 -2.748497
v -0.649606 2.288153 -2.895568
v -0.649606 0.499925 -2.749054
v -1.685478 2.219279 -2.913619
v -1.685478 0.568799 -2.911151
v -0.716561 2.219279 -2.911151
v -0.716561 0.568799 -2.913618
v -1.688421 0.535406 -2.972229
v -1.688421 2.262688 -2.912590
v -1.684443 0.535406 -2.912590
v -1.684443 2.262688 -2.972229
v -1.203009 0.535406 -2.972229
v -1.199031 0.535406 -2.912590
v -1.203009 2.262688 -2.912590
v -1.199031 2.262688 -2.972229
v -0.713618 2.262688 -2.972229
v -0.717597 2.262688 -2.912590
v -0.717597 0.535406 -2.972229
v -0.713618 0.535406 -2.912590
v -0.594925 0.501993 -3.082915
v -1.807114 0.493179 -3.082915
v -1.796250 0.458844 -2.844357
v -0.594925 0.493179 -2.841936
v -1.797669 0.536482 -2.845241
v 1.050723 2.287704 -2.896125
v 2.151995 2.287704 -2.748497
v 1.050724 0.500374 -2.748497
v 2.152773 0.499925 -2.749054
v 1.049946 2.288153 -2.749054
v 1.049946 0.499925 -2.895568
v 2.152773 2.288153 -2.895568
v 2.151996 0.500374 -2.896124
v 1.116901 2.219279 -2.913619
v 2.085819 0.568799 -2.913618
v 2.085819 2.219279 -2.911151
v 1.116901 0.568799 -2.911151
v 1.117937 2.262688 -2.972229
v 1.113958 0.535406 -2.972229
v 1.113958 2.262688 -2.912590
v 1.117937 0.535406 -2.912590
v 1.599370 0.535406 -2.972229
v 1.599370 2.262688 -2.912590
v 1.603349 0.535406 -2.912590
v 1.603349 2.262688 -2.972229
v 2.088761 2.262688 -2.972229
v 2.084782 2.262688 -2.912590
v 2.088761 0.535406 -2.912590
v 2.084782 0.535406 -2.972229
v 1.004323 0.534462 -3.078892
v 1.003572 0.465428 -3.080827
v 1.009766 0.457521 -3.080740
v 1.003572 0.529744 -2.844023
v 1.009766 0.537651 -2.844111
v 2.201869 0.457521 -2.850055
v 2.201869 0.465255 -2.842327
v 1.004323 0.460710 -2.845959
v 2.251743 0.500374 -2.748497
v 2.251743 2.287704 -2.896125
v 2.250966 0.499925 -2.895568
v 3.353793 2.288153 -2.895568
v 3.353793 0.499925 -2.749054
v 3.353015 2.287704 -2.748497
v 2.250966 2.288153 -2.749054
v 3.353015 0.500374 -2.896124
v 3.286838 2.219279 -2.911151
v 2.317920 0.568799 -2.911151
v 2.317920 2.219279 -2.913619
v 3.286838 0.568799 -2.913618
v 2.314978 0.535406 -2.972229
v 2.318956 0.535406 -2.912590
v 2.314978 2.262688 -2.912590
v 2.318956 2.262688 -2.972229
v 2.800390 2.262688 -2.912590
v 2.804369 2.262688 -2.972229
v 2.800390 0.535406 -2.972229
v 2.804369 0.535406 -2.912590
v 3.289781 2.262688 -2.972229
v 3.285802 2.262688 -2.912590
v 3.289781 0.535406 -2.912590
v 3.285802 0.535406 -2.972229
v 3.399015 0.536651 -3.079550
v 3.399442 0.534439 -2.845965
v 2.201869 0.532182 -2.836863
v 2.201869 0.543120 -2.847792
v 2.201869 0.462990 -3.087987
v 2.201869 0.452052 -3.077060
v 3.399015 0.458521 -2.845302
v 2.201869 0.537651 -3.074797
v 2.201869 0.529917 -3.082524
v 3.399443 0.460733 -3.078886
v 0.846799 2.418243 -2.900805
v 0.846165 0.170052 -2.901298
v 0.846165 2.417702 -2.763341
v -0.346374 2.418243 -2.763834
v -0.345740 0.170052 -2.763341
v -0.345740 2.417702 -2.901298
v -0.346374 0.169511 -2.900805
v 0.846799 0.169511 -2.763834
v 0.775158 0.237467 -2.923946
v -0.274733 2.340271 -2.923947
v -0.274733 0.237467 -2.920840
v 0.775158 2.340271 -2.920840
v 0.252231 2.342786 -2.979689
v 0.248194 0.234951 -2.979689
v 0.248194 2.342786 -2.925146
v 0.252231 0.234951 -2.925146
v 0.127974 0.998248 -3.045794
v 0.127974 1.399197 -2.979139
v 0.132247 0.998248 -2.979139
v 0.132247 1.399197 -3.045794
v 0.368177 1.399197 -2.979139
v 0.372451 1.399197 -3.045794
v 0.368177 0.998248 -3.045794
v 0.372451 0.998248 -2.979139
v -2.396695 2.502550 -2.928117
v -2.397888 2.989620 -2.928633
v -2.397888 2.502841 -3.076285
v 2.397888 2.502841 -2.928633
v 2.396695 2.502550 -3.076801
v 2.396695 2.989911 -2.928117
v 2.397888 2.989620 -3.076285
v -2.396695 2.989911 -3.076801
v -3.650372 2.388404 -3.363666
v -3.650372 2.302758 -2.721317
v -3.651772 2.389254 -2.723037
v 3.651772 2.301909 -2.723037
v 3.650373 2.388404 -2.721317
v 3.651772 2.389254 -3.361947
v -3.651772 2.301908 -3.361947
v 3.650372 2.302758 -3.363666
v -2.057290 0.139810 -3.400572
v -2.057290 0.635005 -2.804510
v -3.147129 0.635005 -3.400572
v -3.148567 0.635375 -2.805932
v -2.055852 0.635376 -3.399149
v -3.148567 0.139440 -3.399149
v -2.055852 0.139440 -2.805932
v -3.147129 0.139810 -2.804510
v -2.818221 0.617245 -3.226056
v -2.961677 0.550359 -3.219087
v -3.024890 0.702917 -2.989033
v -2.970712 0.554106 -2.996002
v -2.921197 0.764516 -2.994571
v -2.968706 0.759731 -3.226199
v -3.030053 0.657545 -3.218016
v -2.846630 0.581508 -2.997074
v -2.817807 0.697181 -2.988892
v -2.848022 0.734183 -3.220518
v -2.497949 0.617245 -3.226056
v -2.641405 0.550359 -3.219088
v -2.527750 0.734183 -3.220518
v -2.709782 0.657544 -3.218015
v -2.497535 0.697180 -2.988891
v -2.648434 0.759731 -3.226199
v -2.704618 0.702918 -2.989033
v -2.600924 0.764516 -2.994571
v -2.650440 0.554106 -2.996002
v -2.526358 0.581508 -2.997074
v -2.207478 0.734183 -3.220518
v -2.177677 0.617245 -3.226056
v -2.328162 0.759731 -3.226199
v -2.206086 0.581508 -2.997073
v -2.280653 0.764516 -2.994571
v -2.177263 0.697180 -2.988891
v -2.384346 0.702918 -2.989033
v -2.321133 0.550359 -3.219087
v -2.330168 0.554107 -2.996002
v -2.389509 0.657545 -3.218015
v -1.745939 0.635005 -3.400572
v -1.745939 0.139810 -2.804510
v -1.747377 0.635375 -2.805932
v -0.654662 0.635375 -3.399149
v -0.654662 0.139440 -2.805932
v -0.656100 0.139810 -3.400572
v -0.656100 0.635005 -2.804510
v -1.747377 0.139440 -3.399149
v -1.446832 0.734183 -3.220518
v -1.623702 0.702916 -2.989033
v -1.569522 0.554107 -2.996002
v -1.416617 0.697180 -2.988891
v -1.567516 0.759731 -3.226199
v -1.520007 0.764516 -2.994571
v -1.628863 0.657543 -3.218016
v -1.560487 0.550359 -3.219087
v -1.445441 0.581508 -2.997073
v -1.417031 0.617245 -3.226057
v -1.096761 0.617244 -3.226057
v -1.240215 0.550359 -3.219087
v -1.308591 0.657543 -3.218016
v -1.126560 0.734183 -3.220518
v -1.247244 0.759731 -3.226199
v -1.199735 0.764516 -2.994571
v -1.096347 0.697181 -2.988891
v -1.303430 0.702916 -2.989033
v -1.249250 0.554106 -2.996002
v -1.125169 0.581508 -2.997073
v -0.926972 0.759731 -3.226199
v -0.806288 0.734183 -3.220518
v -0.983156 0.702918 -2.989033
v -0.928978 0.554106 -2.996002
v -0.804897 0.581508 -2.997073
v -0.776073 0.697181 -2.988891
v -0.879463 0.764516 -2.994571
v -0.988320 0.657545 -3.218015
v -0.919943 0.550359 -3.219087
v -0.776487 0.617245 -3.226056
v -1.522484 3.235092 1.279401
v -1.522484 3.880000 1.723057
v -1.521393 3.235779 1.724128
v -1.521393 3.879313 1.278330
v -0.680476 3.879313 1.724128
v -0.679386 3.880000 1.279401
v -0.680476 3.235779 1.278330
v -0.679386 3.235092 1.723057
v -0.769245 3.738348 1.250695
v -0.938425 3.341650 1.245057
v -0.712266 3.510883 1.252515
v -1.107894 3.404793 1.249533
v -1.172194 3.630293 1.251354
v -1.002590 3.803357 1.251024
v -0.827483 3.371400 1.256991
v -0.733886 3.406266 1.231499
v -0.728072 3.419592 1.214913
v -1.155325 3.414815 1.221000
v -0.728072 3.475831 1.216226
v -0.733886 3.492431 1.229541
v -1.155325 3.481923 1.221000
v -1.155325 3.549032 1.221000
v -0.733886 3.540483 1.231499
v -0.728072 3.553810 1.214912
v -1.155325 3.616141 1.221000
v -0.728072 3.611364 1.227087
v -0.733886 3.624689 1.210500
v -0.728072 3.677157 1.216226
v -1.155325 3.683249 1.221000
v -0.733886 3.693758 1.229541
v -0.728072 3.755136 1.214912
v -1.155325 3.750359 1.221000
v -0.733886 3.741810 1.231499
v -1.435060 3.751974 1.254517
v -1.347303 3.751974 1.257540
v -1.347303 3.393166 1.254517
v -1.435060 3.393166 1.257540
v -1.353658 3.200162 1.204889
v -1.448721 3.193760 1.204890
v -1.353658 3.193762 1.797569
v -1.448721 3.200165 1.797568
v -0.848211 3.193759 1.204890
v -0.753148 3.193760 1.797567
v -0.848211 3.200165 1.797567
v -0.753148 3.200165 1.204890
v -0.320373 3.879313 1.278330
v 0.521634 3.880000 1.279401
v 0.520543 3.235779 1.278330
v -0.320373 3.235779 1.724128
v 0.520543 3.879313 1.724128
v -0.321464 3.880000 1.723057
v -0.321464 3.235092 1.279401
v 0.521634 3.235092 1.723057
v 0.431775 3.738348 1.250695
v 0.028826 3.630293 1.251354
v 0.198429 3.803357 1.251024
v 0.488754 3.510884 1.252515
v 0.093126 3.404793 1.249533
v 0.373536 3.371400 1.256991
v 0.262594 3.341650 1.245057
v 0.053309 3.423363 1.231499
v 0.047494 3.410037 1.214913
v 0.474748 3.414815 1.221000
v 0.467133 3.492431 1.229541
v 0.472948 3.475831 1.216226
v 0.045694 3.481923 1.221000
v 0.047494 3.555124 1.216226
v 0.053309 3.538524 1.229541
v 0.474748 3.549032 1.221000
v 0.467133 3.624689 1.210500
v 0.045694 3.616141 1.221000
v 0.472948 3.611364 1.227087
v 0.047494 3.678472 1.214912
v 0.474748 3.683249 1.221000
v 0.053309 3.691798 1.231499
v 0.467133 3.741810 1.231499
v 0.472948 3.755136 1.214912
v 0.045694 3.750359 1.221000
v -0.234040 3.751974 1.254517
v -0.146283 3.751974 1.257540
v -0.234040 3.393166 1.257540
v -0.146283 3.393166 1.254517
v -0.247702 3.200163 1.797569
v -0.152639 3.193760 1.797568
v -0.247702 3.193762 1.204889
v -0.152639 3.200165 1.204890
v 0.447871 3.193760 1.797568
v 0.352808 3.200163 1.797569
v 0.352808 3.193762 1.204889
v 0.447871 3.200165 1.204890
v -3.402154 0.116299 3.189612
v -3.445026 0.120595 3.127846
v -3.370207 0.115875 3.109301
v -3.369107 2.801992 3.109832
v -3.443098 2.797695 3.123192
v -3.403307 2.802414 3.189210
v 3.403624 0.116299 3.189612
v 3.435572 0.115876 3.109301
v 3.436671 2.801991 3.109832
v 3.402471 2.802414 3.189210
v 3.360752 0.120595 3.127848
v 3.362680 2.797696 3.123193
v 0.396680 2.247605 3.074076
v 0.396230 0.451058 3.073584
v 0.396230 2.246875 3.191546
v -0.396680 2.247605 3.191053
v -0.396230 2.246875 3.073584
v -0.396680 0.450328 3.074076
v 0.396680 0.450328 3.191054
v -0.396230 0.451058 3.191546
v 0.628962 1.794874 3.049369
v 0.628365 1.302619 3.050091
v 0.628365 1.795963 3.215039
v 0.628961 1.303708 3.215761
v 0.972995 1.302619 3.215039
v 0.972398 1.303708 3.049370
v 0.972398 1.794874 3.215760
v 0.972995 1.795963 3.050091
vn -0.0000 -0.0000 -1.0000
vn -0.0000 -0.7068 -0.7074
vn 0.4370 -0.1049 -0.8933
vn 0.0001 -0.7068 0.7075
vn -0.0000 -0.7068 0.7074
vn 0.0002 -0.7067 0.7075
vn 0.7071 -0.0000 0.7071
vn -0.7005 -0.7000 -0.1389
vn -0.8865 -0.4617 -0.0290
vn -0.9123 -0.4095 0.0079
vn -0.7083 -0.7059 -0.0044
vn -0.9982 -0.0406 0.0432
vn 0.7074 0.7068 -0.0000
vn 0.7005 0.7000 -0.1389
vn 0.7071 -0.0000 -0.7071
vn 0.9130 -0.4078 -0.0096
vn 0.7083 -0.7059 0.0044
vn 0.5669 -0.5746 -0.5903
vn 0.7005 -0.7000 0.1389
vn 0.5869 0.0596 -0.8074
vn -0.0000 -0.6379 -0.7701
vn -0.0000 1.0000 -0.0000
vn -0.0000 0.7391 -0.6735
vn -0.0000 1.0000 0.0001
vn -0.7871 -0.6168 -0.0099
vn -0.0060 0.0158 0.9999
vn -0.0022 0.7068 -0.7074
vn 0.0065 0.3434 0.9391
vn 0.0072 0.0701 0.9975
vn 0.0040 0.7068 0.7074
vn 0.0002 -0.6256 0.7802
vn 0.0002 -0.6269 0.7791
vn 0.0002 -0.6247 0.7809
vn 0.0205 -0.6246 0.7807
vn 0.0205 -0.6302 0.7762
vn 0.0205 -0.6313 0.7752
vn -0.0003 -0.8000 0.6000
vn -0.0003 -0.7772 0.6292
vn -0.0003 -0.7907 0.6122
vn 0.9941 0.0004 -0.1087
vn 0.7074 0.7069 -0.0000
vn 0.0011 -0.0000 1.0000
vn -0.0000 -0.6379 0.7701
vn -0.5670 0.5748 -0.5900
vn -0.0001 0.9999 -0.0108
vn 0.5676 0.5681 -0.5958
vn -0.0022 -0.7068 0.7074
vn -0.0000 -0.0000 -0.0000
vn 0.0003 0.7707 0.6371
vn 0.0003 0.7719 0.6357
vn 0.0003 0.7745 0.6325
vn 0.0441 0.7739 0.6318
vn 0.0445 0.7801 0.6241
vn 0.0442 0.7723 0.6337
vn -0.9971 -0.0756 0.0009
vn -0.7997 0.6004 -0.0017
vn -0.4736 0.8808 -0.0030
vn -0.9999 0.0121 -0.0007
vn -0.9000 0.4359 -0.0000
vn -0.7078 0.7064 -0.0000
vn -0.7404 0.6712 0.0368
vn -0.7871 0.6167 0.0099
vn -0.0009 -0.2000 -0.9798
vn 0.0006 -0.3005 -0.9538
vn -0.7680 -0.6405 -0.0000
vn -0.0521 -0.9986 -0.0000
vn -0.0001 -0.6984 0.7157
vn -0.0001 -0.9999 0.0108
vn 0.1881 -0.6814 0.7073
vn -0.0011 -0.7068 -0.7074
vn 0.0521 -0.9986 -0.0000
vn 0.7680 -0.6405 -0.0000
vn 0.0001 -0.9999 -0.0108
vn -0.1877 -0.6806 -0.7082
vn -0.6669 -0.0000 0.7452
vn -0.6371 0.0097 0.7708
vn -0.5760 0.0019 0.8174
vn -0.0213 0.0029 0.9998
vn -0.5745 0.5762 -0.5813
vn 0.5745 -0.5762 -0.5813
vn -0.5802 -0.5784 -0.5734
vn 0.5802 0.5784 -0.5734
vn -0.5802 0.5784 0.5734
vn 0.5745 0.5762 0.5813
vn -0.5745 -0.5762 0.5813
vn 0.5802 -0.5784 0.5734
vn -0.5776 -0.5775 -0.5770
vn 0.5771 -0.5774 -0.5776
vn 0.5776 -0.5775 0.5770
vn -0.5771 0.5774 -0.5776
vn 0.5776 0.5775 -0.5770
vn 0.5771 0.5774 0.5776
vn -0.5771 -0.5774 0.5776
vn -0.5776 0.5775 0.5770
vn -0.0040 0.6818 -0.7316
vn -0.0000 0.7005 -0.7137
vn -0.9971 -0.0757 0.0014
vn -0.0013 0.6809 0.7324
vn 0.0001 0.7208 0.6931
vn -1.0000 -0.0000 -0.0000
vn 0.0003 0.0019 1.0000
vn -0.3593 0.9332 -0.0013
vn 0.8517 0.5240 -0.0003
vn 0.9991 0.0422 0.0012
vn 0.9992 0.0409 0.0007
vn -0.0000 -1.0000 -0.0000
vn 0.0002 0.0048 -1.0000
vn 0.0001 0.0048 -1.0000
vn -1.0000 0.0073 -0.0004
vn -0.0000 0.0211 0.9998
vn 0.0506 -0.9987 -0.0013
vn -0.0000 -0.7069 -0.7074
vn -1.0000 0.0015 -0.0000
vn -0.0099 0.0042 0.9999
vn -0.0199 0.0084 0.9998
vn -0.0048 0.0020 1.0000
vn -0.0000 -0.0000 1.0000
vn 0.6404 0.0302 -0.7674
vn -0.9998 -0.0220 0.0013
vn -0.9998 -0.0219 0.0013
vn -0.9998 -0.0215 0.0013
vn 0.0368 0.9993 0.0009
vn 0.7261 0.6876 0.0005
vn 0.6883 0.7255 -0.0000
vn 0.0213 0.0005 0.9998
vn -0.0000 1.0000 0.0019
vn 0.0014 1.0000 -0.0000
vn -0.9999 -0.0000 -0.0113
vn -0.6977 -0.0183 0.7161
vn 1.0000 0.0074 -0.0001
vn -0.0005 0.0097 1.0000
vn -0.0125 0.9999 -0.0000
vn -0.0262 0.9997 0.0022
vn -0.0262 0.9997 -0.0002
vn -0.0123 0.9999 -0.0000
vn 0.9998 0.0026 0.0173
vn 0.5728 0.5668 0.5921
vn 0.9999 -0.0000 0.0113
vn -0.0002 0.0156 0.9999
vn 0.5021 0.8648 0.0114
vn 1.0000 -0.0000 -0.0000
vn 0.9998 -0.0220 -0.0000
vn -0.8723 0.4889 -0.0077
vn -0.5790 -0.5781 -0.5750
vn 0.5757 -0.5766 -0.5797
vn 0.5790 -0.5781 0.5750
vn -0.5757 0.5766 -0.5797
vn 0.5790 0.5781 -0.5750
vn -0.5790 0.5781 0.5750
vn -0.5757 -0.5766 0.5797
vn 0.5757 0.5766 0.5797
vn -0.6562 0.7546 0.0012
vn 0.6562 -0.7546 0.0012
vn -0.6562 -0.7546 -0.0012
vn 0.6562 0.7546 -0.0012
vn -0.0388 0.8383 0.5439
vn 0.0388 0.8383 -0.5439
vn -0.0388 -0.8383 -0.5439
vn 0.0388 -0.8383 0.5439
vn -0.0389 0.8382 0.5439
vn 0.0389 0.8382 -0.5439
vn -0.0388 -0.8382 -0.5439
vn -0.0389 0.8383 0.5439
vn -0.5632 0.6320 0.5324
vn 0.8126 0.0100 -0.5828
vn -0.5396 -0.0246 -0.8415
vn 0.8552 -0.0292 0.5174
vn -0.5429 -0.6347 0.5499
vn -0.6562 0.7546 0.0011
vn 0.6562 -0.7546 0.0011
vn -0.6562 -0.7546 -0.0011
vn 0.6562 0.7546 -0.0011
vn 0.0388 0.8382 -0.5440
vn 0.0388 -0.8383 0.5438
vn -0.0388 -0.8382 -0.5440
vn -0.0388 0.8383 0.5438
vn 0.0389 0.8383 -0.5439
vn 0.8552 -0.0293 0.5174
vn -0.0388 0.8384 0.5437
vn 0.0388 0.8381 -0.5441
vn -0.0388 -0.8381 -0.5441
vn 0.0388 -0.8384 0.5437
vn 0.0389 0.8382 -0.5440
vn -0.7196 0.0273 -0.6939
vn 0.0035 0.0280 -0.9996
vn -0.7033 0.0248 -0.7105
vn -0.0033 -0.0700 -0.9975
vn -0.7033 -0.0248 0.7105
vn -0.0026 0.9999 -0.0135
vn -0.0026 -0.9999 0.0135
vn 0.0044 -0.9997 -0.0230
vn -0.7196 -0.0273 0.6939
vn 0.0044 0.9997 0.0230
vn 0.0035 -0.0280 0.9996
vn 0.0007 -0.9997 0.0241
vn -0.0033 0.0700 0.9975
vn 0.0077 -0.0814 0.9967
vn 0.7270 0.0019 0.6867
vn 0.0025 0.0087 1.0000
vn 0.7043 0.0038 0.7099
vn 0.0007 0.9997 -0.0241
vn 0.0072 0.9999 0.0095
vn 0.0025 -0.0087 -1.0000
vn 0.7043 -0.0038 -0.7099
vn 0.7270 -0.0019 -0.6867
vn 0.0072 -0.9999 -0.0095
vn 0.5787 0.5784 -0.5750
vn 0.5787 -0.5784 0.5750
vn 0.5761 -0.5763 -0.5797
vn -0.5787 0.5784 0.5750
vn 0.5761 0.5763 0.5797
vn -0.5761 0.5763 -0.5797
vn -0.5787 -0.5784 -0.5750
vn -0.5761 -0.5763 0.5797
vn -0.6419 0.7667 0.0097
vn 0.6419 -0.7667 0.0097
vn -0.6419 -0.7667 -0.0097
vn 0.6419 0.7667 -0.0097
vn -0.0423 0.8396 0.5415
vn 0.0423 0.8396 -0.5415
vn -0.0423 -0.8396 -0.5415
vn 0.0423 -0.8396 0.5415
vn -0.0367 0.8174 0.5749
vn 0.0367 0.8174 -0.5749
vn -0.0367 -0.8174 -0.5749
vn 0.0367 -0.8174 0.5749
vn -0.7090 -0.7052 0.0022
vn 0.7090 -0.7052 -0.0022
vn -0.7037 -0.7104 0.0043
vn 0.0001 -0.0009 1.0000
vn -0.0001 0.0011 1.0000
vn -0.0001 0.0009 1.0000
vn 0.0001 -0.0011 1.0000
vn -0.7090 0.7052 -0.0022
vn 0.7090 0.7052 0.0022
vn -0.7037 0.7104 -0.0043
vn 0.7037 0.7104 0.0043
vn -0.0001 -0.0009 -1.0000
vn 0.0001 0.0009 -1.0000
vn -0.0001 -0.0011 -1.0000
vn 0.7037 -0.7104 -0.0043
vn 0.0001 0.0011 -1.0000
vn -0.5707 0.5759 -0.5853
vn 0.5707 -0.5759 -0.5853
vn -0.5829 -0.5788 -0.5703
vn 0.5829 0.5788 -0.5703
vn -0.5829 0.5788 0.5703
vn 0.5707 0.5759 0.5853
vn -0.5707 -0.5759 0.5853
vn 0.5829 -0.5788 0.5703
vn -0.5757 0.5774 -0.5790
vn 0.5757 -0.5774 -0.5790
vn -0.5785 -0.5779 -0.5757
vn 0.5785 0.5779 -0.5757
vn 0.5785 -0.5779 0.5757
vn -0.5785 0.5779 0.5757
vn 0.5757 0.5774 0.5790
vn -0.5757 -0.5774 0.5790
vn 0.5353 0.5713 -0.6222
vn 0.6426 0.0986 -0.7598
vn -0.2462 -0.7636 -0.5969
vn 0.4173 -0.9044 -0.0894
vn 0.5368 -0.5886 0.6045
vn 0.7045 0.2756 0.6540
vn -0.7957 -0.0368 -0.6045
vn -0.3660 -0.7140 0.5969
vn -0.9346 -0.3444 0.0893
vn 0.0256 0.7825 0.6221
vn -0.3848 0.5240 0.7598
vn -0.3033 0.6931 -0.6539
vn -0.5757 0.5774 -0.5789
vn -0.5757 -0.5774 0.5789
vn 0.5757 0.5774 0.5789
vn -0.9345 -0.3444 0.0893
vn -0.5783 0.5780 0.5757
vn -0.5762 0.5769 -0.5789
vn -0.5783 -0.5780 -0.5757
vn 0.5783 -0.5780 0.5757
vn -0.5762 -0.5769 0.5789
vn 0.5762 -0.5769 -0.5789
vn 0.5783 0.5780 -0.5757
vn 0.5762 0.5769 0.5789
vn 0.6035 -0.7888 0.1165
vn 0.9990 -0.0437 0.0047
vn 0.6422 0.7665 -0.0054
vn -0.2589 0.9659 -0.0000
vn -0.9394 0.3428 0.0054
vn -0.8434 -0.5372 -0.0047
vn -0.1280 -0.9849 -0.1164
vn -0.5929 0.8051 -0.0187
vn 0.5929 -0.8051 -0.0187
vn -0.5929 -0.8051 0.0187
vn 0.5929 0.8051 0.0187
vn -0.5735 -0.0386 -0.8183
vn 0.5735 0.0386 -0.8183
vn 0.5735 -0.0386 0.8183
vn -0.5735 0.0386 0.8183
vn -0.7950 -0.5278 -0.2989
vn 0.0880 -0.5666 0.8192
vn 0.0509 0.5696 0.8204
vn 0.6161 -0.5696 -0.5441
vn 0.6415 0.5667 -0.5170
vn -0.7735 0.5278 -0.3508
vn 0.6416 0.5666 -0.5170
vn 0.5785 0.5790 -0.5745
vn 0.5785 -0.5790 0.5745
vn 0.5765 -0.5754 -0.5802
vn 0.5765 0.5754 0.5802
vn -0.5785 0.5790 0.5745
vn -0.5765 0.5754 -0.5802
vn -0.5785 -0.5790 -0.5745
vn -0.5765 -0.5754 0.5802
vn -0.5767 0.5747 -0.5807
vn 0.5767 -0.5747 -0.5807
vn -0.5787 -0.5793 -0.5741
vn 0.5787 0.5793 -0.5741
vn -0.5787 0.5793 0.5741
vn 0.5787 -0.5793 0.5741
vn -0.5767 -0.5747 0.5807
vn 0.5767 0.5747 0.5807
vn -0.0000 -0.7069 -0.7073
vn 0.0503 0.1306 0.9902
vn 0.2626 -0.6821 0.6825
vn -0.6406 -0.0000 0.7679
vn -0.7071 -0.7066 0.0267
vn -0.6834 0.7286 0.0458
vn -0.7075 -0.7067 -0.0001
vn -0.7074 -0.7068 -0.0000
vn 0.7072 0.7071 -0.0004
vn 0.7071 0.7066 0.0267
vn -0.7095 0.7047 0.0043
vn 0.7075 -0.7067 0.0001
vn 0.7074 -0.7068 -0.0000
vn 0.7071 -0.7066 -0.0267
vn -0.0000 0.0223 -0.9998
vn 0.0202 0.0095 0.9998
vn 0.0634 -0.9979 0.0126
vn -0.0000 0.7068 0.7074
vn -0.0264 0.9996 0.0053
vn 0.0005 0.7068 -0.7074
vn -0.0011 0.7068 0.7074
vn 0.5744 0.8186 -0.0000
vn 0.0091 0.0234 -0.9997
vn 0.7680 0.6405 -0.0002
vn 0.0008 -0.7064 0.7078
vn 0.0333 0.9908 0.1315
vn -0.0634 -0.9979 -0.0126
vn -0.0000 0.9999 -0.0144
vn 0.0005 -0.7068 0.7074
vn -0.0000 0.0048 -1.0000
vn 0.0369 0.9978 0.0548
vn -0.7075 -0.7067 -0.0002
vn -0.0000 -0.9999 0.0151
vn -0.0060 -0.0157 -0.9999
vn 0.0074 -0.0701 -0.9975
vn 0.0040 -0.7068 -0.7074
vn 0.0065 -0.3434 -0.9392
vn 0.7075 -0.7067 0.0002
vn -0.0000 -0.9999 -0.0151
vn -0.0086 0.0224 0.9997
vn 0.9140 -0.4058 -0.0000
vn -0.8814 -0.0000 0.4725
vn -0.0445 -0.1155 -0.9923
vn 0.3218 0.8359 0.4445
vn -0.6342 -0.7731 -0.0010
vn 1.0000 0.0096 -0.0000
vn -0.9998 -0.0215 -0.0000
vn -0.6423 -0.0304 0.7659
vn -0.4135 -0.0089 -0.9105
vn 0.0011 -0.0214 0.9998
vn -0.0106 0.0002 -0.9999
vn -0.0107 -0.0003 -0.9999
vn -0.0108 -0.0034 -0.9999
vn -0.0110 -0.0110 -0.9999
vn 0.9999 0.0001 -0.0113
vn 0.4137 -0.0091 0.9104
vn 0.9998 -0.0220 -0.0013
vn 0.0077 0.0814 -0.9967
vt 0.876702 0.004520
vt 0.876702 0.133236
vt 0.859892 0.133533
vt 0.859892 0.004817
vt 0.521520 0.595836
vt 0.521218 0.595836
vt 0.521520 0.595534
vt 0.521520 0.322729
vt 0.521520 0.323193
vt 0.521219 0.323259
vt 0.297757 0.595837
vt 0.297455 0.595836
vt 0.297455 0.595534
vt 0.876639 0.842006
vt 0.876669 0.842006
vt 0.876639 0.842433
vt 0.521520 0.316634
vt 0.521520 0.316996
vt 0.521219 0.316936
vt 0.747224 0.992716
vt 0.747005 0.992651
vt 0.747224 0.992393
vt 0.297321 0.316634
vt 0.297455 0.316937
vt 0.291426 0.316771
vt 0.010772 0.316937
vt 0.010776 0.316638
vt 0.011074 0.316937
vt 0.234824 0.316617
vt 0.234820 0.316976
vt 0.234518 0.316916
vt 0.234518 0.601763
vt 0.234823 0.602067
vt 0.235121 0.602366
vt 0.521654 0.602093
vt 0.521520 0.601791
vt 0.527640 0.601791
vt 0.297455 0.602093
vt 0.297455 0.601732
vt 0.297757 0.601791
vt 0.991275 0.567555
vt 0.990939 0.563305
vt 0.991275 0.563457
vt 0.010772 0.602086
vt 0.011074 0.601784
vt 0.234823 0.595977
vt 0.234518 0.596110
vt 0.011074 0.602448
vt 0.772877 0.819072
vt 0.781683 0.818910
vt 0.781976 0.819259
vt 0.948779 0.138979
vt 0.948565 0.107490
vt 0.948867 0.107407
vt 0.959926 0.218573
vt 0.960021 0.186727
vt 0.960332 0.186944
vt 0.913988 0.051444
vt 0.914422 0.004681
vt 0.914409 0.051441
vt 0.988278 0.829560
vt 0.988056 0.813741
vt 0.988818 0.813740
vt 0.988452 0.804096
vt 0.988056 0.788278
vt 0.988684 0.788276
vt 0.982756 0.202849
vt 0.982296 0.187030
vt 0.982998 0.187029
vt 0.837165 0.168732
vt 0.850784 0.169195
vt 0.837380 0.168927
vt 0.922970 0.234311
vt 0.923252 0.420277
vt 0.922970 0.420483
vt 0.297455 0.595998
vt 0.240850 0.601928
vt 0.240796 0.316727
vt 0.951634 0.171042
vt 0.951391 0.139137
vt 0.951693 0.139358
vt 0.981439 0.081120
vt 0.981985 0.096939
vt 0.981222 0.096939
vt 0.985368 0.969473
vt 0.985590 0.985292
vt 0.984826 0.985292
vt 0.690462 0.988473
vt 0.690001 0.972652
vt 0.690705 0.972653
vt 0.215898 0.971607
vt 0.216446 0.987427
vt 0.215682 0.987427
vt 0.842442 0.987629
vt 0.841981 0.971809
vt 0.842684 0.971810
vt 0.981785 0.469349
vt 0.982520 0.485169
vt 0.981653 0.485169
vt 0.398298 0.970758
vt 0.398521 0.986578
vt 0.397756 0.986577
vt 0.818147 0.968759
vt 0.818369 0.984579
vt 0.817607 0.984579
vt 0.760702 0.876026
vt 0.537119 0.876272
vt 0.536908 0.875960
vt 0.234709 0.322657
vt 0.011078 0.322894
vt 0.010944 0.322650
vt 0.820893 0.599473
vt 0.820548 0.593393
vt 0.820860 0.593511
vt 0.923363 0.098206
vt 0.914558 0.098367
vt 0.914264 0.098018
vt 0.297757 0.316937
vt 0.521218 0.601791
vt 0.521520 0.596003
vt 0.291378 0.601791
vt 0.944172 0.708694
vt 0.944475 0.741238
vt 0.944037 0.740939
vt 0.656065 0.988473
vt 0.655330 0.972654
vt 0.655959 0.972653
vt 0.675762 0.988472
vt 0.675366 0.972654
vt 0.675994 0.972653
vt 0.553961 0.972545
vt 0.553225 0.956725
vt 0.553857 0.956726
vt 0.645697 0.988473
vt 0.645313 0.972654
vt 0.646074 0.972653
vt 0.807773 0.984579
vt 0.807374 0.968759
vt 0.808006 0.968760
vt 0.274815 0.986635
vt 0.274419 0.970817
vt 0.275047 0.970816
vt 0.297455 0.322724
vt 0.527495 0.316746
vt 0.922858 0.437654
vt 0.922475 0.442028
vt 0.922873 0.437655
vt 0.982371 0.685666
vt 0.982264 0.699081
vt 0.982110 0.685500
vt 0.712273 0.291589
vt 0.707930 0.304277
vt 0.712220 0.291268
vt 0.876562 0.495417
vt 0.871297 0.705739
vt 0.871602 0.495449
vt 0.876166 0.705660
vt 0.881397 0.443962
vt 0.881093 0.234311
vt 0.885964 0.234330
vt 0.291295 0.307287
vt 0.568714 0.004825
vt 0.568620 0.307365
vt 0.891006 0.004738
vt 0.886201 0.210772
vt 0.886043 0.004690
vt 0.891071 0.210772
vt 0.886119 0.698777
vt 0.885810 0.495200
vt 0.890678 0.495308
vt 0.291389 0.004748
vt 0.886359 0.444027
vt 0.281861 0.004627
vt 0.004618 0.307270
vt 0.004712 0.004722
vt 0.891076 0.698936
vt 0.281966 0.307374
vt 0.763400 0.316824
vt 0.763469 0.594012
vt 0.537036 0.594082
vt 0.404412 0.611508
vt 0.404263 0.803942
vt 0.291198 0.805850
vt 0.291335 0.613274
vt 0.126950 0.777717
vt 0.239777 0.614049
vt 0.239988 0.780420
vt 0.526583 0.611463
vt 0.413606 0.800090
vt 0.413477 0.611411
vt 0.526703 0.800089
vt 0.126810 0.611488
vt 0.578073 0.281982
vt 0.578005 0.004801
vt 0.804418 0.004710
vt 0.004657 0.782673
vt 0.117551 0.611977
vt 0.117760 0.783304
vt 0.536968 0.316894
vt 0.804486 0.281890
vt 0.004520 0.611488
vt 0.903469 0.495515
vt 0.904409 0.684751
vt 0.900322 0.684823
vt 0.913745 0.664371
vt 0.914046 0.495399
vt 0.918135 0.495200
vt 0.760714 0.603627
vt 0.536977 0.603557
vt 0.918135 0.664403
vt 0.904430 0.004775
vt 0.904948 0.190281
vt 0.900257 0.190703
vt 0.863978 0.142685
vt 0.863921 0.142574
vt 0.864280 0.306987
vt 0.859892 0.306882
vt 0.859892 0.142809
vt 0.832667 0.611555
vt 0.832667 0.780528
vt 0.818892 0.780453
vt 0.735154 0.291565
vt 0.739444 0.305293
vt 0.735421 0.304982
vt 0.818892 0.611480
vt 0.832365 0.611325
vt 0.900257 0.004957
vt 0.521520 0.322891
vt 0.297757 0.322891
vt 0.297455 0.322590
vt 0.850579 0.004578
vt 0.850561 0.004799
vt 0.850852 0.169086
vt 0.775202 0.291212
vt 0.779430 0.291287
vt 0.779433 0.304696
vt 0.762223 0.291213
vt 0.766162 0.291516
vt 0.766150 0.304927
vt 0.762002 0.304928
vt 0.762018 0.291514
vt 0.813681 0.178087
vt 0.813678 0.178552
vt 0.827752 0.178598
vt 0.813678 0.008697
vt 0.827390 0.009197
vt 0.250127 0.813724
vt 0.250127 0.615951
vt 0.264170 0.615493
vt 0.264200 0.813516
vt 0.250489 0.813968
vt 0.273550 0.611419
vt 0.279355 0.611282
vt 0.279592 0.834856
vt 0.748683 0.291466
vt 0.752962 0.291212
vt 0.752845 0.305261
vt 0.004740 0.601786
vt 0.010470 0.316937
vt 0.273248 0.835467
vt 0.813977 0.009125
vt 0.827388 0.004588
vt 0.786738 0.611400
vt 0.772661 0.611127
vt 0.772962 0.611143
vt 0.772660 0.805158
vt 0.786737 0.805210
vt 0.836793 0.004520
vt 0.748905 0.304987
vt 0.712302 0.305714
vt 0.830233 0.321105
vt 0.830235 0.316634
vt 0.843638 0.316954
vt 0.843638 0.321429
vt 0.004578 0.316940
vt 0.830233 0.485623
vt 0.843929 0.485938
vt 0.843929 0.486160
vt 0.813977 0.004520
vt 0.809554 0.611228
vt 0.795778 0.809488
vt 0.796133 0.611419
vt 0.809248 0.809271
vt 0.725757 0.291562
vt 0.725839 0.305601
vt 0.721557 0.304308
vt 0.820891 0.316735
vt 0.807565 0.510812
vt 0.807465 0.316710
vt 0.821039 0.510812
vt 0.280108 0.918308
vt 0.280136 0.961203
vt 0.274494 0.961237
vt 0.203458 0.789712
vt 0.233231 0.790154
vt 0.233239 0.860036
vt 0.203426 0.859472
vt 0.943736 0.788087
vt 0.947882 0.857557
vt 0.943695 0.857833
vt 0.233876 0.869259
vt 0.238145 0.869430
vt 0.238137 0.938820
vt 0.772736 0.964966
vt 0.778350 0.922037
vt 0.778378 0.964931
vt 0.274466 0.918342
vt 0.233836 0.939027
vt 0.947890 0.788188
vt 0.413792 0.809267
vt 0.442979 0.879054
vt 0.413757 0.879036
vt 0.442974 0.809162
vt 0.772707 0.922072
vt 0.291353 0.815093
vt 0.317606 0.879502
vt 0.291341 0.879075
vt 0.317604 0.815700
vt 0.254065 0.844713
vt 0.279803 0.908653
vt 0.254055 0.908706
vt 0.279801 0.844842
vt 0.373534 0.888845
vt 0.374884 0.888839
vt 0.374884 0.955492
vt 0.956450 0.708490
vt 0.957766 0.775096
vt 0.956429 0.775223
vt 0.373515 0.955601
vt 0.957766 0.708463
vt 0.384170 0.888845
vt 0.385520 0.888839
vt 0.385520 0.955492
vt 0.384151 0.955601
vt 0.956460 0.313631
vt 0.957776 0.313604
vt 0.957776 0.380237
vt 0.956439 0.380364
vt 0.957177 0.788283
vt 0.958493 0.854889
vt 0.957156 0.855016
vt 0.958493 0.788256
vt 0.115754 0.871841
vt 0.117104 0.871835
vt 0.117104 0.938489
vt 0.115735 0.938597
vt 0.513337 0.934884
vt 0.522371 0.888415
vt 0.522403 0.934849
vt 0.513306 0.888450
vt 0.504095 0.888416
vt 0.495060 0.934886
vt 0.495028 0.888451
vt 0.971587 0.218407
vt 0.969876 0.186803
vt 0.972953 0.186810
vt 0.324713 0.983050
vt 0.323076 0.989895
vt 0.321694 0.983012
vt 0.504126 0.934850
vt 0.004845 0.792596
vt 0.034627 0.862919
vt 0.004813 0.862355
vt 0.689804 0.963071
vt 0.695418 0.920142
vt 0.695446 0.963036
vt 0.034619 0.793037
vt 0.807239 0.519964
vt 0.811508 0.520134
vt 0.811500 0.589525
vt 0.943794 0.234422
vt 0.947941 0.303892
vt 0.943754 0.304168
vt 0.651003 0.920144
vt 0.651031 0.963040
vt 0.645388 0.963074
vt 0.452442 0.809267
vt 0.481630 0.879054
vt 0.452408 0.879037
vt 0.481625 0.809162
vt 0.807198 0.589732
vt 0.645360 0.920178
vt 0.689775 0.920177
vt 0.947949 0.234523
vt 0.362250 0.815093
vt 0.388503 0.879502
vt 0.362238 0.879075
vt 0.388501 0.815700
vt 0.841860 0.842187
vt 0.867596 0.842316
vt 0.867598 0.906127
vt 0.841850 0.906181
vt 0.961640 0.609346
vt 0.962956 0.675952
vt 0.961619 0.676079
vt 0.962956 0.609319
vt 0.320356 0.888845
vt 0.321705 0.955492
vt 0.320337 0.955601
vt 0.321705 0.888839
vt 0.957235 0.234618
vt 0.958551 0.301224
vt 0.957214 0.301351
vt 0.956266 0.004823
vt 0.957615 0.071471
vt 0.956247 0.071579
vt 0.958551 0.234591
vt 0.957615 0.004817
vt 0.956372 0.393053
vt 0.957722 0.393046
vt 0.957722 0.459700
vt 0.964238 0.867725
vt 0.965554 0.867698
vt 0.965554 0.934331
vt 0.956353 0.459808
vt 0.964217 0.934458
vt 0.485818 0.888416
vt 0.485849 0.934850
vt 0.476783 0.934885
vt 0.476751 0.888451
vt 0.312544 0.983050
vt 0.310908 0.989895
vt 0.309526 0.983011
vt 0.291299 0.935239
vt 0.300334 0.888769
vt 0.300365 0.935203
vt 0.186933 0.974390
vt 0.185222 0.942785
vt 0.188299 0.942792
vt 0.291268 0.888805
vt 0.413541 0.965811
vt 0.419155 0.922881
vt 0.419183 0.965776
vt 0.044088 0.792596
vt 0.073862 0.793037
vt 0.073870 0.862919
vt 0.926727 0.867529
vt 0.930997 0.867699
vt 0.930989 0.937090
vt 0.044056 0.862355
vt 0.940161 0.867529
vt 0.944316 0.867630
vt 0.944308 0.936999
vt 0.491093 0.809267
vt 0.520281 0.879054
vt 0.491058 0.879036
vt 0.520275 0.809162
vt 0.413512 0.922917
vt 0.926687 0.937297
vt 0.680612 0.920144
vt 0.674998 0.963074
vt 0.674970 0.920178
vt 0.940121 0.937275
vt 0.680640 0.963040
vt 0.795933 0.818732
vt 0.822186 0.883140
vt 0.795921 0.882714
vt 0.822184 0.819339
vt 0.164045 0.869353
vt 0.189781 0.869484
vt 0.189781 0.933295
vt 0.164032 0.933347
vt 0.341627 0.888845
vt 0.342977 0.888839
vt 0.342977 0.955492
vt 0.817229 0.892488
vt 0.818545 0.959094
vt 0.817208 0.959221
vt 0.818545 0.892461
vt 0.341608 0.955601
vt 0.960979 0.107714
vt 0.962295 0.174320
vt 0.960958 0.174448
vt 0.352263 0.888845
vt 0.353613 0.955492
vt 0.352244 0.955601
vt 0.353613 0.888839
vt 0.962295 0.107687
vt 0.330991 0.888845
vt 0.332341 0.888839
vt 0.332341 0.955492
vt 0.806626 0.892488
vt 0.807942 0.959094
vt 0.806605 0.959221
vt 0.807942 0.892461
vt 0.330972 0.955601
vt 0.947103 0.708359
vt 0.944415 0.708556
vt 0.947082 0.741032
vt 0.336567 0.983025
vt 0.336723 0.989895
vt 0.333843 0.989895
vt 0.923281 0.051443
vt 0.772962 0.865835
vt 0.782258 0.865835
vt 0.333876 0.983169
vt 0.948351 0.139291
vt 0.951392 0.107409
vt 0.781832 0.865836
vt 0.772832 0.912534
vt 0.957779 0.193655
vt 0.956989 0.186936
vt 0.759946 0.982071
vt 0.756608 0.982226
vt 0.756902 0.981990
vt 0.948740 0.171118
vt 0.960811 0.193447
vt 0.083333 0.792618
vt 0.112521 0.862405
vt 0.083299 0.862388
vt 0.112515 0.792513
vt 0.913294 0.867529
vt 0.917556 0.937090
vt 0.913254 0.937297
vt 0.665807 0.920144
vt 0.660193 0.963074
vt 0.660165 0.920178
vt 0.917564 0.867699
vt 0.428345 0.965811
vt 0.433959 0.922881
vt 0.433987 0.965775
vt 0.164215 0.789712
vt 0.193988 0.790154
vt 0.193996 0.860036
vt 0.164183 0.859472
vt 0.665835 0.963040
vt 0.069648 0.872142
vt 0.073794 0.941613
vt 0.069607 0.941889
vt 0.428316 0.922917
vt 0.073802 0.872244
vt 0.326801 0.815093
vt 0.353052 0.815700
vt 0.353055 0.879502
vt 0.326790 0.879075
vt 0.198974 0.869354
vt 0.224710 0.869483
vt 0.224712 0.933294
vt 0.198964 0.933348
vt 0.827831 0.892488
vt 0.829147 0.959094
vt 0.827810 0.959221
vt 0.362899 0.888845
vt 0.364248 0.888839
vt 0.364248 0.955492
vt 0.362880 0.955601
vt 0.829147 0.892461
vt 0.959970 0.495507
vt 0.961286 0.495480
vt 0.961286 0.562113
vt 0.953602 0.867721
vt 0.954952 0.867715
vt 0.954952 0.934368
vt 0.953583 0.934477
vt 0.959949 0.562240
vt 0.309720 0.888845
vt 0.311070 0.888839
vt 0.311070 0.955492
vt 0.796024 0.892488
vt 0.797340 0.892461
vt 0.797340 0.959094
vt 0.309701 0.955601
vt 0.796003 0.959221
vt 0.923415 0.004746
vt 0.947164 0.773408
vt 0.944640 0.773459
vt 0.960120 0.225223
vt 0.957242 0.225271
vt 0.957051 0.218738
vt 0.759946 0.988780
vt 0.756608 0.988935
vt 0.781828 0.912599
vt 0.938676 0.609151
vt 0.942540 0.696608
vt 0.938639 0.696870
vt 0.841782 0.962227
vt 0.841753 0.915815
vt 0.847020 0.915781
vt 0.942548 0.609257
vt 0.814005 0.187989
vt 0.846231 0.188472
vt 0.846242 0.276320
vt 0.847049 0.962191
vt 0.813975 0.275725
vt 0.891123 0.905162
vt 0.891152 0.951574
vt 0.885884 0.951608
vt 0.830562 0.495347
vt 0.862157 0.583099
vt 0.830530 0.583095
vt 0.862149 0.495238
vt 0.932748 0.004632
vt 0.936718 0.092181
vt 0.932710 0.092379
vt 0.936726 0.004803
vt 0.885855 0.905196
vt 0.841963 0.751044
vt 0.870307 0.832941
vt 0.841905 0.832469
vt 0.870304 0.751557
vt 0.127066 0.789944
vt 0.154846 0.789936
vt 0.154849 0.871332
vt 0.127008 0.871381
vt 0.873563 0.142877
vt 0.874768 0.142871
vt 0.874768 0.224384
vt 0.831492 0.790207
vt 0.832667 0.871671
vt 0.831469 0.871794
vt 0.873543 0.224491
vt 0.832667 0.790184
vt 0.242649 0.844702
vt 0.244520 0.844724
vt 0.244488 0.859864
vt 0.242631 0.859847
vt 0.970072 0.081092
vt 0.971890 0.081082
vt 0.971967 0.096108
vt 0.970032 0.096158
vt 0.115784 0.948110
vt 0.117602 0.948100
vt 0.117679 0.963126
vt 0.801524 0.291455
vt 0.803364 0.306617
vt 0.801507 0.306600
vt 0.803396 0.291477
vt 0.115744 0.963176
vt 0.891633 0.708409
vt 0.885853 0.895656
vt 0.885841 0.708437
vt 0.853043 0.443990
vt 0.852970 0.316634
vt 0.872053 0.316648
vt 0.871955 0.444028
vt 0.925432 0.946550
vt 0.929907 0.965186
vt 0.925409 0.965463
vt 0.895653 0.421777
vt 0.901431 0.234535
vt 0.901443 0.421748
vt 0.895640 0.234564
vt 0.929901 0.946745
vt 0.860711 0.611365
vt 0.841707 0.741662
vt 0.841804 0.611676
vt 0.891645 0.895628
vt 0.233847 0.948282
vt 0.238195 0.948402
vt 0.238201 0.966838
vt 0.233823 0.967187
vt 0.860785 0.741324
vt 0.904046 0.708346
vt 0.901216 0.906508
vt 0.900765 0.708328
vt 0.904131 0.906453
vt 0.069570 0.969839
vt 0.069523 0.951044
vt 0.072939 0.951062
vt 0.772931 0.602018
vt 0.797799 0.316704
vt 0.797858 0.601966
vt 0.913841 0.234472
vt 0.910974 0.428614
vt 0.910560 0.234394
vt 0.913889 0.428613
vt 0.072851 0.969934
vt 0.275264 0.316685
vt 0.250393 0.602005
vt 0.250335 0.316736
vt 0.772873 0.316757
vt 0.275323 0.601954
vt 0.709478 0.970461
vt 0.709433 0.952209
vt 0.712847 0.952289
vt 0.712756 0.970616
vt 0.636131 0.885637
vt 0.616725 0.915391
vt 0.616881 0.885800
vt 0.037249 0.924367
vt 0.054252 0.943087
vt 0.037184 0.943614
vt 0.106286 0.871765
vt 0.106331 0.914278
vt 0.083188 0.914326
vt 0.635936 0.915164
vt 0.037205 0.914819
vt 0.037159 0.872308
vt 0.060301 0.872257
vt 0.054252 0.924087
vt 0.728842 0.885637
vt 0.709622 0.914577
vt 0.709588 0.885573
vt 0.728838 0.914577
vt 0.813904 0.285602
vt 0.831409 0.285625
vt 0.831410 0.304631
vt 0.060346 0.914769
vt 0.813840 0.304855
vt 0.083143 0.871813
vt 0.153868 0.976367
vt 0.153199 0.980618
vt 0.149176 0.981626
vt 0.313901 0.973545
vt 0.309533 0.973686
vt 0.309577 0.965200
vt 0.643108 0.302873
vt 0.643123 0.296034
vt 0.647193 0.297443
vt 0.148313 0.977573
vt 0.447517 0.966321
vt 0.444612 0.965631
vt 0.444468 0.959194
vt 0.448916 0.959459
vt 0.641863 0.292566
vt 0.645123 0.291408
vt 0.648917 0.294771
vt 0.450442 0.965498
vt 0.314211 0.965202
vt 0.010496 0.967398
vt 0.006014 0.967343
vt 0.007631 0.958679
vt 0.004602 0.958780
vt 0.010645 0.958759
vt 0.151024 0.974773
vt 0.236967 0.982516
vt 0.233950 0.983380
vt 0.235563 0.976626
vt 0.446287 0.981579
vt 0.443271 0.982443
vt 0.444884 0.975690
vt 0.254564 0.832227
vt 0.251659 0.831537
vt 0.251514 0.825100
vt 0.542567 0.976517
vt 0.537875 0.981776
vt 0.537013 0.977723
vt 0.539723 0.974923
vt 0.541898 0.980769
vt 0.762583 0.972804
vt 0.759719 0.964085
vt 0.762732 0.964164
vt 0.758101 0.972749
vt 0.257488 0.831405
vt 0.255962 0.825365
vt 0.658362 0.292566
vt 0.663692 0.297443
vt 0.659622 0.296034
vt 0.659607 0.302873
vt 0.756689 0.964186
vt 0.661622 0.291408
vt 0.665416 0.294771
vt 0.329129 0.973545
vt 0.324761 0.973686
vt 0.324805 0.965200
vt 0.329438 0.965202
vt 0.086220 0.982315
vt 0.083204 0.983178
vt 0.084816 0.976425
vt 0.419215 0.976923
vt 0.414523 0.982182
vt 0.413661 0.978130
vt 0.890985 0.969751
vt 0.888121 0.961031
vt 0.891134 0.961111
vt 0.886503 0.969696
vt 0.418546 0.981175
vt 0.416371 0.975330
vt 0.837601 0.600643
vt 0.834677 0.601466
vt 0.836075 0.594603
vt 0.691360 0.292566
vt 0.696691 0.297443
vt 0.692621 0.296034
vt 0.374812 0.973545
vt 0.370444 0.973686
vt 0.370488 0.965200
vt 0.375121 0.965202
vt 0.692605 0.302873
vt 0.698414 0.294771
vt 0.885092 0.961132
vt 0.694620 0.291408
vt 0.831627 0.594339
vt 0.831772 0.600775
vt 0.709659 0.923773
vt 0.727164 0.923797
vt 0.727165 0.942803
vt 0.872376 0.453603
vt 0.852970 0.483358
vt 0.853126 0.453766
vt 0.126992 0.923544
vt 0.150088 0.880981
vt 0.150133 0.923493
vt 0.872181 0.483130
vt 0.027800 0.872258
vt 0.004702 0.914820
vt 0.004657 0.872307
vt 0.757434 0.885637
vt 0.738214 0.914577
vt 0.738180 0.885573
vt 0.757430 0.914577
vt 0.709594 0.943026
vt 0.126946 0.881032
vt 0.616951 0.924712
vt 0.633954 0.943432
vt 0.616886 0.943959
vt 0.633954 0.924432
vt 0.027845 0.914771
vt 0.778410 0.976078
vt 0.773718 0.981337
vt 0.772856 0.977285
vt 0.742180 0.966929
vt 0.739316 0.958210
vt 0.742329 0.958290
vt 0.737698 0.966874
vt 0.777741 0.980330
vt 0.775566 0.974484
vt 0.739419 0.982331
vt 0.736402 0.983195
vt 0.738015 0.976441
vt 0.541261 0.965642
vt 0.538211 0.958515
vt 0.542659 0.958780
vt 0.625364 0.292566
vt 0.628623 0.291408
vt 0.632417 0.294771
vt 0.544185 0.964819
vt 0.538356 0.964952
vt 0.736287 0.958311
vt 0.630694 0.297443
vt 0.626624 0.296034
vt 0.344357 0.973545
vt 0.340033 0.965200
vt 0.344666 0.965202
vt 0.339989 0.973686
vt 0.626609 0.302873
vt 0.294412 0.982442
vt 0.291396 0.983306
vt 0.293008 0.976553
vt 0.901358 0.432877
vt 0.900689 0.437129
vt 0.896666 0.438136
vt 0.971233 0.698854
vt 0.966865 0.698995
vt 0.966909 0.690510
vt 0.971543 0.690512
vt 0.851085 0.601466
vt 0.848180 0.600775
vt 0.848036 0.594339
vt 0.895804 0.434084
vt 0.898514 0.431283
vt 0.854010 0.600643
vt 0.852484 0.594603
vt 0.088981 0.966913
vt 0.086117 0.958194
vt 0.089130 0.958273
vt 0.084500 0.966858
vt 0.608864 0.292565
vt 0.612124 0.291408
vt 0.615918 0.294771
vt 0.614195 0.297443
vt 0.610125 0.296034
vt 0.083088 0.958295
vt 0.610110 0.302873
vt 0.946496 0.485335
vt 0.943571 0.486157
vt 0.944969 0.479295
vt 0.027703 0.976017
vt 0.022149 0.977224
vt 0.024859 0.974423
vt 0.023011 0.981276
vt 0.132785 0.968016
vt 0.129920 0.959297
vt 0.132934 0.959376
vt 0.128303 0.967961
vt 0.027034 0.980269
vt 0.007734 0.982800
vt 0.004718 0.983664
vt 0.006330 0.976911
vt 0.940521 0.479030
vt 0.674861 0.292566
vt 0.678121 0.291408
vt 0.681915 0.294771
vt 0.359584 0.973545
vt 0.355260 0.965200
vt 0.359894 0.965202
vt 0.680192 0.297443
vt 0.676121 0.296034
vt 0.355216 0.973686
vt 0.676106 0.302873
vt 0.126891 0.959398
vt 0.940666 0.485467
vt 0.443268 0.922830
vt 0.456416 0.922920
vt 0.456418 0.947648
vt 0.917755 0.453147
vt 0.900485 0.485934
vt 0.900464 0.453171
vt 0.443238 0.947879
vt 0.645557 0.885493
vt 0.668332 0.910865
vt 0.645526 0.910539
vt 0.917776 0.485910
vt 0.563616 0.918324
vt 0.580885 0.885536
vt 0.580906 0.918298
vt 0.563596 0.885562
vt 0.445316 0.888371
vt 0.467642 0.888429
vt 0.467642 0.913330
vt 0.445285 0.913421
vt 0.668332 0.885967
vt 0.004714 0.924273
vt 0.017487 0.924136
vt 0.017489 0.948856
vt 0.004683 0.949314
vt 0.168749 0.959604
vt 0.164889 0.954887
vt 0.164644 0.946550
vt 0.169866 0.943172
vt 0.175258 0.948493
vt 0.175411 0.956689
vt 0.172340 0.960012
vt 0.568205 0.945004
vt 0.564364 0.941456
vt 0.564267 0.933273
vt 0.574913 0.939986
vt 0.571698 0.944406
vt 0.569604 0.927940
vt 0.574991 0.931731
vt 0.973850 0.577570
vt 0.976086 0.591171
vt 0.973850 0.591162
vt 0.976065 0.577588
vt 0.385906 0.965095
vt 0.388092 0.978659
vt 0.385901 0.978688
vt 0.388078 0.965074
vt 0.903315 0.222145
vt 0.900367 0.222187
vt 0.900327 0.200022
vt 0.291268 0.944783
vt 0.294256 0.966905
vt 0.291308 0.966946
vt 0.294216 0.944743
vt 0.903275 0.199981
vt 0.940107 0.946706
vt 0.943095 0.968828
vt 0.940147 0.968869
vt 0.943055 0.946666
vt 0.964452 0.599720
vt 0.961504 0.599761
vt 0.961464 0.577597
vt 0.964412 0.577556
vt 0.590252 0.918324
vt 0.607520 0.885536
vt 0.607541 0.918298
vt 0.677617 0.885493
vt 0.700392 0.885967
vt 0.700392 0.910865
vt 0.677586 0.910539
vt 0.083201 0.923778
vt 0.096348 0.923867
vt 0.096351 0.948595
vt 0.590231 0.885562
vt 0.736399 0.923804
vt 0.749171 0.923666
vt 0.749174 0.948387
vt 0.736368 0.948846
vt 0.554250 0.885538
vt 0.554271 0.918300
vt 0.536980 0.918325
vt 0.413707 0.888371
vt 0.436033 0.913330
vt 0.413676 0.913421
vt 0.436033 0.888428
vt 0.083170 0.948827
vt 0.536959 0.885562
vt 0.131669 0.949706
vt 0.127810 0.944989
vt 0.127565 0.936651
vt 0.132786 0.933273
vt 0.138179 0.938594
vt 0.138331 0.946790
vt 0.589523 0.945003
vt 0.585681 0.941455
vt 0.585584 0.933272
vt 0.590921 0.927940
vt 0.596309 0.931730
vt 0.596231 0.939985
vt 0.593016 0.944406
vt 0.135260 0.950113
vt 0.970191 0.469298
vt 0.972427 0.482900
vt 0.970191 0.482891
vt 0.972406 0.469316
vt 0.796071 0.968713
vt 0.798243 0.968691
vt 0.798258 0.982276
vt 0.796066 0.982306
vt 0.916803 0.695845
vt 0.913815 0.673722
vt 0.916763 0.673680
vt 0.523324 0.944429
vt 0.526272 0.944389
vt 0.526311 0.966551
vt 0.523363 0.966592
vt 0.913854 0.695886
vt 0.913241 0.946728
vt 0.916189 0.946688
vt 0.916229 0.968850
vt 0.930017 0.485881
vt 0.927029 0.463758
vt 0.929977 0.463717
vt 0.913281 0.968891
vt 0.927069 0.485923
vt 0.399573 0.919493
vt 0.397990 0.919602
vt 0.397936 0.815021
vt 0.884130 0.223548
vt 0.885347 0.221670
vt 0.886513 0.223615
vt 0.938769 0.212005
vt 0.937002 0.107709
vt 0.938589 0.107536
vt 0.937002 0.211904
vt 0.934407 0.338796
vt 0.932755 0.338791
vt 0.932838 0.234611
vt 0.934465 0.234423
vt 0.913173 0.438862
vt 0.911899 0.440758
vt 0.910782 0.438721
vt 0.399961 0.815199
vt 0.900644 0.695973
vt 0.901861 0.694095
vt 0.903026 0.696040
vt 0.940321 0.599798
vt 0.938554 0.495502
vt 0.940141 0.495329
vt 0.938554 0.599697
vt 0.934407 0.452621
vt 0.932838 0.348435
vt 0.934465 0.348247
vt 0.932755 0.452615
vt 0.916648 0.222459
vt 0.915373 0.224355
vt 0.914256 0.222318
vt 0.916017 0.212010
vt 0.914434 0.212119
vt 0.914380 0.107538
vt 0.916405 0.107717
vt 0.943795 0.392876
vt 0.947078 0.462742
vt 0.943758 0.462966
vt 0.947086 0.392982
vt 0.758285 0.954655
vt 0.758255 0.923898
vt 0.762726 0.923860
vt 0.762755 0.954615
vt 0.913491 0.708330
vt 0.934861 0.708616
vt 0.934885 0.778819
vt 0.913462 0.778434
vt 0.886068 0.453523
vt 0.886098 0.484279
vt 0.881628 0.484318
vt 0.913494 0.788139
vt 0.934460 0.858245
vt 0.913461 0.858253
vt 0.934441 0.788033
vt 0.943794 0.313449
vt 0.947165 0.383392
vt 0.943756 0.383561
vt 0.947174 0.313610
vt 0.881598 0.453561
vt 0.840544 0.285796
vt 0.849812 0.304916
vt 0.840570 0.304779
vt 0.849878 0.285948
vt 0.870029 0.722471
vt 0.874912 0.722447
vt 0.874916 0.741276
vt 0.593307 0.304753
vt 0.599658 0.291358
vt 0.599664 0.304786
vt 0.584226 0.291360
vt 0.577876 0.304754
vt 0.577870 0.291326
vt 0.584232 0.304788
vt 0.869989 0.741309
vt 0.593302 0.291326
vt 0.215598 0.942960
vt 0.224627 0.942914
vt 0.224643 0.962023
vt 0.215583 0.962053
vt 0.545925 0.928055
vt 0.550732 0.928095
vt 0.550732 0.946918
vt 0.545944 0.947036
vt 0.876639 0.841981
vt 0.747083 0.992988
vt 0.174490 0.985174
vt 0.173907 0.985173
vt 0.174339 0.969354
vt 0.991070 0.567561
vt 0.748793 0.305309
vt 0.923586 0.051445
vt 0.164867 0.985173
vt 0.163999 0.985173
vt 0.164286 0.969354
vt 0.986180 0.593440
vt 0.985417 0.593440
vt 0.985958 0.577620
vt 0.828168 0.984579
vt 0.827585 0.984579
vt 0.828017 0.968759
vt 0.116089 0.988368
vt 0.115509 0.988370
vt 0.115938 0.972550
vt 0.900257 0.004751
vt 0.760562 0.603312
vt 0.923272 0.234737
vt 0.273248 0.611118
vt 0.772660 0.865835
vt 0.665622 0.972653
vt 0.666326 0.972654
vt 0.666083 0.988473
vt 0.735305 0.304982
vt 0.820548 0.599794
vt 0.985195 0.959829
vt 0.984612 0.959829
vt 0.985044 0.944009
vt 0.922873 0.442366
vt 0.982371 0.699143
vt 0.863967 0.307406
vt 0.864280 0.142914
vt 0.832301 0.780860
vt 0.775202 0.304624
vt 0.775453 0.304990
vt 0.762248 0.305290
vt 0.827752 0.178826
vt 0.813708 0.178553
vt 0.264200 0.615492
vt 0.263898 0.813731
vt 0.250426 0.615639
vt 0.263686 0.611115
vt 0.786376 0.611153
vt 0.773022 0.805405
vt 0.739442 0.291581
vt 0.739186 0.291219
vt 0.786435 0.805513
vt 0.773018 0.809870
vt 0.957469 0.193439
vt 0.759651 0.989016
s 1
usemtl shop_005_baked
f 3/1/1 1/2/1 2/3/1
f 3/1/1 2/3/1 4/4/1
f 26/5/2 28/6/2 29/7/2
f 31/8/3 21/9/3 33/10/3
f 35/11/4 37/12/5 34/13/6
f 38/14/7 40/15/7 41/16/7
f 43/17/8 45/18/8 42/19/8
f 48/20/9 50/21/9 47/22/9
f 53/23/10 55/24/11 56/25/12
f 58/26/13 60/27/13 61/28/13
f 65/29/14 67/30/14 64/31/14
f 70/32/15 71/33/15 72/34/15
f 73/35/16 75/36/17 69/37/18
f 77/38/19 79/39/19 76/40/19
f 26/41/20 24/42/20 25/43/20
f 42/19/21 31/8/21 33/10/21
f 70/32/22 38/44/22 41/45/22
f 52/46/23 71/33/23 51/47/23
f 38/44/24 58/26/24 39/48/24
f 172/49/25 166/50/25 167/51/25
f 199/52/26 169/53/26 168/54/26
f 197/55/27 205/56/27 204/57/27
f 199/58/28 198/59/29 200/60/30
f 347/61/31 348/62/32 349/63/33
f 354/64/34 355/65/35 353/66/36
f 391/67/37 390/68/38 389/69/39
f 51/70/40 31/71/40 52/72/40
f 60/27/41 64/31/41 61/28/41
f 35/73/42 50/74/42 49/75/42
f 76/40/43 36/76/43 35/11/43
f 68/77/44 67/30/45 66/78/46
f 203/79/47 171/80/47 170/81/47
f 340/82/48 339/83/48 338/84/48
f 344/85/48 346/86/48 345/87/48
f 351/88/49 352/89/50 350/90/51
f 385/91/48 384/92/48 383/93/48
f 388/94/52 386/95/53 387/96/54
f 393/97/48 392/98/48 394/99/48
f 396/100/48 395/101/48 397/102/48
f 400/103/48 399/104/48 398/105/48
f 21/106/55 23/107/56 22/108/57
f 57/109/58 63/110/59 62/111/60
f 40/112/61 82/113/61 81/114/61
f 165/115/62 168/116/62 169/117/62
f 33/10/63 29/7/64 28/6/2
f 54/118/65 43/17/65 42/19/65
f 74/119/66 27/120/66 75/36/66
f 56/25/67 79/39/68 78/121/69
f 167/122/70 201/123/70 202/124/70
f 340/125/48 338/126/48 339/127/48
f 344/128/48 345/129/48 346/130/48
f 385/131/48 383/132/48 384/133/48
f 393/134/48 394/135/48 392/136/48
f 396/137/48 397/138/48 395/139/48
f 400/140/48 398/141/48 399/142/48
f 54/118/71 47/143/71 55/24/71
f 74/119/72 77/38/72 76/40/72
f 69/37/18 45/18/73 44/144/74
f 23/145/75 48/146/75 22/147/75
f 63/148/76 36/149/76 62/150/76
f 82/151/77 56/152/12 81/153/78
f 5/154/79 12/155/80 10/156/81
f 5/154/79 11/157/82 12/155/80
f 9/158/83 5/159/79 10/160/81
f 9/161/83 11/162/82 5/163/79
f 6/164/84 7/165/85 8/166/86
f 6/164/84 9/167/83 7/165/85
f 11/168/82 6/169/84 8/170/86
f 9/161/83 6/171/84 11/162/82
f 9/158/83 10/160/81 7/172/85
f 10/173/81 8/174/86 7/175/85
f 11/168/82 8/170/86 12/176/80
f 10/173/81 12/177/80 8/174/86
f 17/178/87 13/179/88 19/180/89
f 16/181/90 18/182/91 13/183/88
f 16/181/90 13/183/88 17/184/87
f 18/185/91 19/186/89 13/187/88
f 14/188/92 15/189/93 19/190/89
f 14/188/92 20/191/94 15/189/93
f 18/185/91 14/192/92 19/186/89
f 20/193/94 14/194/92 18/195/91
f 20/196/94 17/197/87 15/198/93
f 17/178/87 19/180/89 15/199/93
f 20/193/94 18/195/91 16/200/90
f 20/196/94 16/201/90 17/197/87
f 21/202/95 24/203/96 29/204/64
f 23/205/56 21/206/55 32/207/97
f 22/108/98 24/208/96 21/106/95
f 22/108/98 30/209/99 24/208/96
f 23/205/56 32/207/97 48/210/100
f 30/211/99 22/212/98 49/213/101
f 37/214/102 36/215/102 28/216/102
f 25/217/103 30/218/104 37/214/105
f 33/10/106 28/6/106 35/11/106
f 28/219/100 35/220/100 63/221/59
f 28/6/106 76/40/106 35/11/106
f 57/222/107 75/223/107 27/224/108
f 28/6/106 74/119/106 76/40/106
f 63/221/59 57/225/58 26/226/109
f 30/211/99 49/213/101 34/227/110
f 42/19/111 32/228/111 48/229/111
f 35/11/112 49/230/112 48/229/112
f 50/231/113 48/232/113 32/233/113
f 71/234/1 52/235/1 31/236/1
f 58/237/114 62/238/115 36/239/116
f 77/240/117 60/241/117 36/239/116
f 39/242/118 38/243/118 54/244/118
f 72/245/119 43/246/120 38/243/121
f 79/247/1 55/248/1 40/249/1
f 58/250/1 77/251/1 79/247/1
f 41/252/122 46/253/123 51/254/124
f 46/255/125 40/256/125 55/257/125
f 81/258/126 59/259/126 39/48/126
f 41/252/122 51/254/124 72/260/127
f 71/261/128 44/262/128 43/246/128
f 42/19/106 48/229/106 54/118/106
f 45/263/129 70/264/129 71/265/129
f 67/266/117 45/263/117 75/267/117
f 51/70/124 46/268/123 50/231/130
f 46/255/131 55/257/131 47/269/131
f 82/151/77 53/270/10 56/152/12
f 62/111/132 64/31/133 57/109/134
f 62/111/132 61/28/135 64/31/133
f 60/271/136 80/272/137 78/273/69
f 60/271/138 78/273/138 77/274/138
f 81/258/139 80/275/137 59/259/140
f 65/276/141 60/271/141 77/274/141
f 65/276/142 74/277/142 75/278/142
f 71/261/143 68/279/44 44/262/74
f 68/280/44 69/281/18 44/282/74
f 68/280/44 66/283/46 69/281/18
f 66/284/46 73/285/16 69/286/18
f 80/287/137 56/288/67 78/289/69
f 80/287/137 81/290/139 56/288/67
f 85/291/144 83/292/145 88/293/146
f 84/294/147 90/295/148 83/296/145
f 84/294/147 83/296/145 85/297/144
f 90/298/148 88/299/146 83/300/145
f 89/301/149 84/302/147 85/303/144
f 89/304/149 90/305/148 84/306/147
f 85/291/144 88/293/146 87/307/150
f 89/301/149 85/303/144 87/308/150
f 90/298/148 86/309/151 88/299/146
f 86/310/151 87/311/150 88/312/146
f 86/310/151 89/313/149 87/311/150
f 89/304/149 86/314/151 90/305/148
f 91/315/152 94/316/153 92/317/154
f 91/315/152 93/318/155 94/316/153
f 93/319/155 92/320/154 94/321/153
f 93/319/155 91/322/152 92/320/154
f 98/323/156 95/324/157 96/325/158
f 95/326/157 97/327/159 96/328/158
f 98/323/156 96/325/158 97/329/159
f 95/326/157 98/330/156 97/327/159
f 102/331/160 99/332/161 100/333/162
f 102/331/160 100/333/162 101/334/159
f 99/335/161 102/336/160 101/337/159
f 99/335/161 101/337/159 100/338/162
f 103/339/157 106/340/159 104/341/158
f 103/339/157 105/342/163 106/340/159
f 105/343/163 103/344/157 104/345/158
f 105/343/163 104/345/158 106/346/159
f 111/347/164 107/348/165 110/349/166
f 111/347/164 109/350/167 107/348/165
f 110/351/166 109/352/167 108/353/168
f 109/354/167 111/355/164 108/356/168
f 111/357/164 110/358/166 108/359/168
f 110/351/166 107/360/165 109/352/167
f 112/361/147 113/362/145 116/363/144
f 115/364/149 118/365/148 112/366/147
f 112/361/147 118/367/148 113/362/145
f 115/368/149 112/369/147 116/370/144
f 118/371/148 119/372/146 113/373/145
f 116/374/144 113/375/145 119/376/146
f 117/377/151 114/378/150 119/379/146
f 117/377/151 115/380/149 114/378/150
f 115/368/149 116/370/144 114/381/150
f 116/374/144 119/376/146 114/382/150
f 115/364/149 117/383/151 118/365/148
f 118/371/148 117/384/151 119/372/146
f 120/385/169 123/386/170 121/387/171
f 120/385/169 122/388/172 123/386/170
f 122/389/172 120/390/169 121/391/171
f 122/389/172 121/391/171 123/392/170
f 127/393/157 126/394/159 124/395/158
f 127/393/157 125/396/156 126/394/159
f 125/397/156 124/398/158 126/399/159
f 125/397/156 127/400/157 124/398/158
f 131/401/173 129/402/174 128/403/175
f 130/404/176 128/405/175 129/406/174
f 131/401/173 130/407/176 129/402/174
f 130/404/176 131/408/173 128/405/175
f 133/409/156 132/410/177 134/411/158
f 132/412/177 133/413/156 135/414/159
f 133/409/156 134/411/158 135/415/159
f 132/412/177 135/414/159 134/416/158
f 137/417/166 136/418/165 139/419/178
f 137/417/166 139/419/178 138/420/168
f 140/421/164 137/422/166 138/423/168
f 140/424/164 136/425/165 137/426/166
f 139/427/178 140/428/164 138/429/168
f 140/424/164 139/430/178 136/425/165
f 145/431/149 147/432/148 141/433/147
f 141/434/147 147/435/148 148/436/145
f 145/437/149 141/438/147 146/439/144
f 141/434/147 148/436/145 146/440/144
f 147/441/148 142/442/151 144/443/146
f 142/444/151 143/445/150 144/446/146
f 142/444/151 145/447/149 143/445/150
f 145/431/149 142/448/151 147/432/148
f 145/437/149 146/439/144 143/449/150
f 146/450/144 144/451/146 143/452/150
f 147/441/148 144/443/146 148/453/145
f 146/450/144 148/454/145 144/451/146
f 149/455/152 150/456/170 152/457/171
f 149/455/152 151/458/155 150/456/170
f 151/459/155 149/460/152 152/461/171
f 151/459/155 152/461/171 150/462/170
f 155/463/179 153/464/180 154/465/181
f 153/466/180 156/467/182 154/468/181
f 153/466/180 155/469/179 156/467/182
f 155/463/179 154/465/181 156/470/182
f 160/471/183 159/472/174 157/473/175
f 158/474/176 157/475/175 159/476/174
f 158/474/176 160/477/183 157/475/175
f 160/471/183 158/478/176 159/472/174
f 162/479/160 161/480/161 164/481/162
f 161/482/161 163/483/159 164/484/162
f 161/482/161 162/485/160 163/483/159
f 162/479/160 164/481/162 163/486/159
f 165/487/184 202/124/185 166/488/186
f 165/487/187 205/489/187 202/124/187
f 168/490/188 165/491/184 166/492/186
f 169/117/189 204/493/189 165/115/189
f 167/51/190 170/494/190 172/49/190
f 201/495/191 170/494/191 167/51/191
f 168/490/188 166/492/186 172/496/192
f 199/58/193 204/493/193 169/117/193
f 200/497/194 168/54/188 172/498/192
f 202/499/195 203/500/195 170/494/195
f 171/501/141 202/502/141 205/56/141
f 200/503/100 170/504/100 171/505/100
f 200/497/196 172/498/196 171/80/196
f 199/52/28 171/80/197 198/506/29
f 205/56/141 200/507/141 171/501/141
f 198/506/198 171/80/199 203/79/200
f 178/508/151 173/509/150 177/510/146
f 178/508/151 179/511/149 173/509/150
f 179/512/149 175/513/144 173/514/150
f 175/515/144 177/516/146 173/517/150
f 179/512/149 174/518/147 175/513/144
f 179/519/149 176/520/148 174/521/147
f 174/522/147 176/523/148 180/524/145
f 174/522/147 180/524/145 175/525/144
f 175/515/144 180/526/145 177/516/146
f 176/527/148 177/528/146 180/529/145
f 179/519/149 178/530/151 176/520/148
f 176/527/148 178/531/151 177/528/146
f 183/532/152 181/533/155 184/534/153
f 183/532/152 184/534/153 182/535/171
f 181/536/155 183/537/152 182/538/171
f 181/536/155 182/538/171 184/539/153
f 188/540/183 186/541/174 185/542/175
f 187/543/176 188/544/183 185/545/175
f 187/543/176 185/545/175 186/546/174
f 188/540/183 187/547/176 186/541/174
f 190/548/173 189/549/176 192/550/174
f 189/551/176 190/552/173 191/553/175
f 189/551/176 191/553/175 192/554/174
f 190/548/173 192/550/174 191/555/175
f 194/556/156 193/557/157 196/558/158
f 193/559/157 194/560/156 195/561/159
f 194/556/156 196/558/158 195/562/159
f 193/559/157 195/561/159 196/563/158
f 200/60/201 197/564/201 204/493/201
f 200/60/202 198/59/202 197/564/202
f 205/489/203 197/565/204 206/566/205
f 197/55/204 198/567/198 203/568/200
f 197/55/204 203/568/200 206/569/205
f 204/570/100 202/571/100 200/503/100
f 202/499/206 206/572/206 203/500/206
f 205/489/100 201/123/100 202/124/100
f 207/573/207 214/574/208 208/575/209
f 210/576/210 209/577/211 207/578/207
f 207/573/207 209/579/211 214/574/208
f 212/580/212 207/581/207 208/582/209
f 210/576/210 207/578/207 212/583/212
f 212/580/212 208/582/209 213/584/213
f 213/585/213 208/586/209 214/587/208
f 209/588/211 211/589/214 214/590/208
f 209/588/211 210/591/210 211/589/214
f 210/592/210 213/593/213 211/594/214
f 210/592/210 212/595/212 213/593/213
f 213/585/213 214/587/208 211/596/214
f 216/597/215 215/598/216 217/599/217
f 216/597/215 218/600/218 215/598/216
f 218/601/218 216/602/215 217/603/217
f 218/601/218 217/603/217 215/604/216
f 221/605/219 219/606/220 220/607/221
f 219/608/220 222/609/222 220/610/221
f 221/605/219 220/607/221 222/611/222
f 219/608/220 221/612/219 222/609/222
f 224/613/223 226/614/224 223/615/225
f 224/613/223 223/615/225 225/616/226
f 226/617/224 224/618/223 225/619/226
f 226/617/224 225/619/226 223/620/225
f 228/621/224 227/622/223 230/623/226
f 227/624/223 229/625/225 230/626/226
f 227/624/223 228/627/224 229/625/225
f 228/621/224 230/623/226 229/628/225
f 233/629/227 234/630/228 231/631/229
f 236/632/230 232/633/231 231/634/232
f 236/632/230 231/634/232 234/635/233
f 232/636/234 233/637/227 231/638/229
f 232/639/234 237/640/235 238/641/236
f 232/639/234 236/642/237 237/640/235
f 232/636/234 238/643/236 233/637/227
f 238/644/238 235/645/239 233/646/240
f 233/629/227 235/647/241 234/630/228
f 237/648/235 236/649/237 234/650/228
f 237/648/235 234/650/228 235/651/241
f 238/644/238 237/652/242 235/645/239
f 239/653/243 246/654/244 245/655/245
f 239/653/243 244/656/246 246/654/244
f 241/657/247 239/658/243 245/659/245
f 241/660/247 244/661/246 239/662/243
f 243/663/248 240/664/249 242/665/250
f 243/663/248 241/666/247 240/664/249
f 241/657/247 245/659/245 240/667/249
f 245/668/245 242/669/250 240/670/249
f 241/660/247 243/671/248 244/661/246
f 245/668/245 246/672/244 242/669/250
f 244/673/246 243/674/248 242/675/250
f 244/673/246 242/675/250 246/676/244
f 249/677/251 247/678/252 252/679/253
f 251/680/254 253/681/255 247/682/252
f 252/683/253 247/684/252 253/685/255
f 249/677/251 251/686/254 247/678/252
f 250/687/256 248/688/257 251/689/254
f 251/680/254 248/690/257 253/681/255
f 248/691/257 254/692/258 253/693/255
f 248/691/257 250/694/256 254/692/258
f 250/695/256 249/696/251 252/697/253
f 250/687/256 251/689/254 249/698/251
f 250/695/256 252/697/253 254/699/258
f 252/683/253 253/685/255 254/700/258
f 264/701/259 255/702/260 256/703/261
f 256/704/261 255/705/262 262/706/263
f 255/707/260 263/708/264 262/709/263
f 264/701/259 256/703/261 261/710/265
f 261/711/265 256/712/261 258/713/266
f 261/711/265 258/713/266 257/714/267
f 259/715/268 257/716/269 258/717/266
f 260/718/270 261/711/265 257/714/269
f 256/704/261 262/706/263 258/719/266
f 259/715/268 258/717/266 262/709/263
f 259/715/268 262/709/263 263/708/264
f 264/720/259 260/721/270 259/722/268
f 260/721/270 257/723/269 259/722/268
f 264/720/259 259/722/268 263/724/264
f 264/701/259 261/710/265 260/725/270
f 255/726/260 264/727/259 263/728/264
f 265/729/260 267/730/259 269/731/264
f 268/732/265 266/733/261 273/734/266
f 267/735/259 266/736/261 268/737/265
f 267/735/259 268/737/265 270/738/270
f 267/735/259 265/739/260 266/736/261
f 267/740/259 272/741/268 269/742/264
f 267/740/259 270/743/270 272/741/268
f 270/744/270 268/732/265 271/745/269
f 268/732/265 273/734/266 271/745/267
f 272/746/268 274/747/263 269/748/264
f 265/749/260 269/748/264 274/747/263
f 270/743/270 271/750/269 272/741/268
f 272/746/268 271/751/269 273/752/266
f 272/746/268 273/752/266 274/747/263
f 266/753/261 265/754/262 274/755/263
f 266/753/261 274/755/263 273/756/266
f 276/757/260 275/758/259 280/759/264
f 275/760/259 282/761/261 284/762/265
f 275/763/259 279/764/268 280/765/264
f 275/763/259 277/766/270 279/764/268
f 275/760/259 276/767/260 282/761/261
f 275/760/259 284/762/265 277/768/270
f 277/769/270 284/770/265 281/771/269
f 279/772/268 278/773/263 280/774/264
f 282/775/261 276/776/262 278/777/263
f 282/775/261 278/777/263 283/778/266
f 276/779/260 280/774/264 278/773/263
f 279/772/268 283/780/266 278/773/263
f 277/766/270 281/781/269 279/764/268
f 279/772/268 281/782/269 283/780/266
f 284/770/265 283/783/266 281/771/267
f 284/770/265 282/784/261 283/783/266
f 287/785/256 285/786/271 292/787/253
f 285/788/271 290/789/252 292/790/253
f 287/791/256 288/792/254 285/793/271
f 285/788/271 288/794/254 290/789/252
f 292/795/253 289/796/255 286/797/272
f 291/798/273 286/799/272 289/800/255
f 291/798/273 287/801/256 286/799/272
f 287/785/256 292/787/253 286/802/272
f 287/791/256 291/803/273 288/792/254
f 288/804/254 289/805/255 290/806/252
f 288/804/254 291/807/273 289/805/255
f 292/795/253 290/808/252 289/796/255
f 293/809/259 300/810/261 299/811/265
f 293/812/259 298/813/268 296/814/264
f 293/812/259 297/815/270 298/813/268
f 293/809/259 302/816/260 300/810/261
f 293/809/259 299/811/265 297/817/270
f 302/818/260 293/819/259 296/820/264
f 299/821/265 295/822/266 294/823/274
f 298/824/268 294/825/269 295/826/266
f 297/827/270 299/821/265 294/823/269
f 299/821/265 300/828/261 295/822/266
f 297/815/270 294/829/269 298/813/268
f 298/824/268 301/830/263 296/831/264
f 298/824/268 295/826/266 301/830/263
f 300/832/261 301/833/263 295/834/266
f 300/832/261 302/835/262 301/833/263
f 302/836/260 296/831/264 301/830/263
f 303/837/260 306/838/259 309/839/264
f 306/840/259 303/841/260 304/842/261
f 304/843/261 303/844/262 312/845/263
f 304/843/261 312/845/263 311/846/266
f 305/847/265 304/848/261 311/849/266
f 306/840/259 305/850/265 307/851/270
f 307/852/270 305/847/265 310/853/269
f 305/847/265 311/849/266 310/853/267
f 306/840/259 304/842/261 305/850/265
f 306/854/259 308/855/268 309/856/264
f 306/854/259 307/857/270 308/855/268
f 308/858/268 310/859/269 311/860/266
f 308/858/268 312/861/263 309/862/264
f 308/858/268 311/860/266 312/861/263
f 307/857/270 310/863/269 308/855/268
f 303/864/260 309/862/264 312/861/263
f 313/865/270 320/866/265 315/867/269
f 314/868/259 320/869/265 313/870/270
f 314/868/259 321/871/261 320/869/265
f 314/872/259 319/873/268 318/874/264
f 314/872/259 313/875/270 319/873/268
f 314/868/259 322/876/260 321/871/261
f 322/877/260 314/878/259 318/879/264
f 320/866/265 316/880/266 315/867/267
f 319/881/268 315/882/269 316/883/266
f 321/884/261 317/885/263 316/886/266
f 319/881/268 316/883/266 317/887/263
f 319/881/268 317/887/263 318/888/264
f 321/884/261 322/889/262 317/885/263
f 322/890/260 318/888/264 317/887/263
f 313/875/270 315/891/269 319/873/268
f 320/866/265 321/892/261 316/880/266
f 324/893/275 326/894/276 323/895/277
f 323/896/277 330/897/278 325/898/279
f 324/893/275 323/895/277 325/899/279
f 326/900/276 329/901/280 323/902/277
f 323/896/277 329/903/280 330/897/278
f 324/904/275 328/905/281 326/906/276
f 324/904/275 327/907/282 328/905/281
f 327/908/282 324/909/275 325/910/279
f 327/908/282 325/910/279 330/911/278
f 326/900/276 328/912/281 329/901/280
f 328/913/281 327/914/282 330/915/278
f 328/913/281 330/915/278 329/916/280
f 337/917/283 333/918/284 331/919/285
f 337/917/283 331/919/285 336/920/286
f 337/917/283 336/920/286 335/921/287
f 337/917/283 334/922/288 332/923/289
f 337/917/283 335/921/287 334/922/288
f 332/924/289 334/925/288 335/926/287
f 332/924/289 333/927/284 337/928/283
f 332/924/289 335/926/287 336/929/286
f 332/924/289 331/930/285 333/927/284
f 332/924/289 336/929/286 331/930/285
f 356/931/290 358/932/291 359/933/292
f 356/931/290 357/934/293 358/932/291
f 357/935/293 359/936/292 358/937/291
f 357/935/293 356/938/290 359/936/292
f 361/939/294 360/940/295 362/941/296
f 363/942/297 360/943/295 361/944/294
f 363/942/297 362/945/296 360/943/295
f 361/939/294 362/941/296 363/946/297
f 366/947/297 367/948/295 364/949/294
f 366/947/297 365/950/296 367/948/295
f 364/951/294 367/952/295 365/953/296
f 364/951/294 365/953/296 366/954/297
f 373/955/275 369/956/281 368/957/276
f 368/958/276 369/959/281 370/960/280
f 368/958/276 370/960/280 374/961/277
f 373/962/275 368/963/276 374/964/277
f 373/955/275 372/965/282 369/956/281
f 369/966/281 372/967/282 375/968/278
f 369/966/281 375/968/278 370/969/280
f 374/970/277 370/971/280 375/972/278
f 372/973/282 371/974/279 375/975/278
f 372/973/282 373/976/275 371/974/279
f 373/962/275 374/964/277 371/977/279
f 374/970/277 375/972/278 371/978/279
f 381/979/283 379/980/284 376/981/285
f 381/979/283 376/981/285 378/982/286
f 381/979/283 378/982/286 377/983/287
f 381/979/283 377/983/287 380/984/288
f 382/985/289 380/986/288 377/987/287
f 382/985/289 377/987/287 378/988/286
f 382/985/289 378/988/286 376/989/285
f 382/985/289 376/989/285 379/990/284
f 382/985/289 379/990/284 381/991/283
f 381/979/283 380/984/288 382/992/289
f 401/993/290 404/994/291 403/995/292
f 401/993/290 402/996/293 404/994/291
f 402/997/293 401/998/290 403/999/292
f 402/997/293 403/999/292 404/1000/291
f 407/1001/294 406/1002/296 405/1003/297
f 405/1004/297 406/1005/296 408/1006/295
f 405/1004/297 408/1006/295 407/1007/294
f 407/1001/294 408/1008/295 406/1002/296
f 410/1009/297 409/1010/296 412/1011/295
f 411/1012/294 409/1013/296 410/1014/297
f 410/1009/297 412/1011/295 411/1015/294
f 411/1012/294 412/1016/295 409/1013/296
f 414/1017/298 413/1018/299 418/1019/300
f 413/1020/299 414/1021/298 415/1022/301
f 413/1023/299 416/1024/302 418/1025/300
f 413/1023/299 415/1026/301 416/1024/302
f 415/1027/301 414/1028/298 417/1029/303
f 415/1027/301 417/1029/303 416/1030/302
f 416/1031/302 417/1032/303 418/1033/300
f 414/1017/298 418/1019/300 417/1034/303
f 419/1035/299 423/1036/298 420/1037/301
f 419/1038/299 421/1039/304 422/1040/300
f 419/1038/299 420/1041/301 421/1039/304
f 420/1042/301 424/1043/303 421/1044/304
f 420/1042/301 423/1045/298 424/1043/303
f 421/1046/304 424/1047/303 422/1048/300
f 423/1049/298 419/1050/299 422/1051/300
f 423/1049/298 422/1051/300 424/1052/303
f 425/1053/305 431/1054/306 426/1055/307
f 425/1053/305 427/1056/308 431/1054/306
f 428/1057/309 427/1058/308 425/1059/305
f 428/1057/309 425/1059/305 429/1060/310
f 429/1061/310 425/1062/305 426/1063/307
f 429/1061/310 426/1063/307 430/1064/311
f 430/1065/311 426/1066/307 431/1067/306
f 427/1068/308 432/1069/312 431/1070/306
f 427/1068/308 428/1071/309 432/1069/312
f 428/1072/309 430/1073/311 432/1074/312
f 428/1072/309 429/1075/310 430/1073/311
f 430/1065/311 431/1067/306 432/1076/312
f 433/1077/313 438/1078/314 434/1079/315
f 433/1077/313 440/1080/316 438/1078/314
f 435/1081/317 433/1082/313 434/1083/315
f 435/1084/317 440/1085/316 433/1086/313
f 434/1087/315 437/1088/318 436/1089/319
f 434/1087/315 438/1090/314 437/1088/318
f 435/1081/317 434/1083/315 436/1091/319
f 435/1084/317 439/1092/320 440/1085/316
f 439/1093/320 435/1094/317 436/1095/319
f 439/1093/320 436/1095/319 437/1096/318
f 440/1097/316 439/1098/320 437/1099/318
f 440/1097/316 437/1099/318 438/1100/314
f 26/5/321 27/120/2 28/6/2
f 31/8/322 32/228/322 21/9/322
f 35/11/323 36/76/323 37/12/323
f 38/14/324 39/1101/324 40/15/324
f 43/17/325 44/144/325 45/18/325
f 48/20/326 49/1102/326 50/21/326
f 53/23/327 54/118/327 55/24/328
f 58/26/13 59/259/140 60/27/329
f 65/29/330 66/78/330 67/30/330
f 70/32/331 68/77/44 71/33/143
f 73/35/332 74/119/332 75/36/333
f 77/38/334 78/121/334 79/39/334
f 350/1103/51 352/1104/50 351/1105/49
f 26/41/335 29/1106/64 24/42/96
f 47/269/336 50/1107/336 46/255/336
f 42/19/337 45/18/337 31/8/337
f 70/32/22 72/34/22 38/44/22
f 52/46/338 72/34/338 71/33/338
f 57/109/134 64/31/133 67/30/339
f 58/26/135 61/28/135 62/111/132
f 38/44/22 59/259/22 58/26/22
f 165/115/340 204/493/340 205/1108/340
f 199/52/341 200/497/341 169/53/341
f 349/1109/33 348/1110/32 347/1111/31
f 353/1112/36 355/1113/35 354/1114/34
f 387/1115/54 386/1116/53 388/1117/52
f 389/1118/39 390/1119/38 391/1120/37
f 30/211/110 34/227/110 37/1121/110
f 25/1122/103 24/208/342 30/209/104
f 51/70/343 32/233/343 31/71/343
f 60/27/344 65/29/344 64/31/344
f 80/275/137 60/27/329 59/259/140
f 35/73/4 34/1123/6 50/74/345
f 41/252/346 40/1124/346 46/253/346
f 76/40/347 79/39/347 36/76/347
f 68/77/44 70/32/348 67/30/45
f 172/49/349 170/494/349 171/1125/349
f 342/1126/48 341/1127/48 343/1128/48
f 57/222/107 27/224/108 26/1129/350
f 40/112/351 39/1130/351 82/113/351
f 33/10/63 21/9/95 29/7/64
f 54/118/327 53/23/327 43/17/352
f 74/119/2 28/6/2 27/120/2
f 56/25/67 55/24/353 79/39/68
f 167/122/354 166/488/354 201/123/354
f 206/572/355 202/499/356 201/495/357
f 341/1131/48 342/1132/48 343/1133/48
f 54/118/5 48/229/5 47/143/5
f 74/119/332 73/35/332 77/38/358
f 69/37/18 75/36/359 45/18/73
f 23/145/7 49/1134/7 48/146/7
f 63/148/360 37/1135/360 36/149/360
f 29/1136/15 25/217/15 28/216/15
f 25/217/103 37/214/105 28/216/141
f 36/215/361 35/1137/361 28/216/361
f 36/1138/362 63/221/362 35/220/362
f 63/221/59 26/226/109 28/219/100
f 42/19/363 31/8/363 32/228/363
f 43/1139/1 71/234/1 31/236/1
f 31/236/1 45/1140/1 43/1139/1
f 31/8/364 33/10/364 32/228/364
f 33/10/106 35/11/106 48/229/106
f 32/228/365 33/10/365 48/229/365
f 32/233/366 51/70/124 50/231/130
f 58/237/114 36/239/116 60/241/117
f 36/239/116 79/1141/117 77/240/117
f 55/1142/367 40/1143/367 54/244/367
f 40/1143/368 39/242/368 54/244/368
f 38/243/121 43/246/120 54/244/121
f 72/245/15 71/261/15 43/246/15
f 38/1144/1 79/247/1 40/249/1
f 79/247/1 38/1144/1 58/250/1
f 60/1145/1 77/251/1 58/250/1
f 53/1146/10 82/1147/77 40/249/100
f 53/1146/369 40/249/369 55/248/369
f 45/263/370 67/266/370 70/264/370
f 71/265/117 43/1148/117 45/263/117
f 75/267/117 65/1149/117 67/266/117
f 75/223/371 57/222/372 65/1150/373
f 57/222/372 67/1151/374 65/1150/373
f 73/1152/16 66/1153/46 65/1149/375
f 73/1152/376 65/1149/376 75/267/376
f 65/276/377 77/274/377 74/277/377
f 201/495/100 202/499/100 170/494/100
f 199/58/100 200/60/100 204/493/100
f 171/501/141 170/1154/141 202/502/141
f 200/503/100 202/571/100 170/504/100
f 199/52/100 200/497/100 171/80/100
f 205/56/141 204/57/141 200/507/141
f 204/570/100 205/1155/100 202/571/100
f 205/489/378 206/566/355 201/123/357
