# Blender 4.5.0
# www.blender.org
mtllib shop_001.mtl
o shop_001
v -1.596303 3.091686 -3.273641
v 1.596303 3.091686 -3.273641
v 1.596303 2.771194 -3.273641
v -1.596303 2.771194 -3.273641
v 3.900000 0.174127 -3.398594
v 3.899074 0.000860 -3.400000
v 3.899074 0.173266 3.400000
v -3.899074 0.000861 3.400000
v -3.899074 0.173266 -3.400000
v -3.900000 0.174127 3.398594
v -3.900000 -0.000000 -3.398594
v 3.900000 0.000000 3.398594
v 3.698211 0.179603 -2.699773
v 3.698211 3.129348 3.100096
v -3.698211 0.179604 3.100096
v -3.699808 3.129656 3.098335
v -3.698211 3.129347 -2.699774
v -3.699808 0.179295 -2.698013
v 3.699808 0.179295 3.098335
v 3.699808 3.129656 -2.698013
v -2.176404 0.500281 -2.806132
v -2.176404 2.538253 -2.658276
v -2.175661 0.499876 -2.658787
v -3.428912 2.538658 -2.658787
v -3.428169 2.538253 -2.806132
v -3.428912 0.499876 -2.805621
v -2.175661 2.538658 -2.805621
v -3.428169 0.500281 -2.658276
v -3.361972 2.469871 -2.823509
v -3.361972 0.568663 -2.821044
v -2.242602 0.568663 -2.823509
v -2.242602 2.469871 -2.821045
v -3.360755 2.513249 -2.882344
v -3.364733 0.535301 -2.882344
v -3.364733 2.513249 -2.822259
v -3.360755 0.535300 -2.822258
v -2.800298 2.513249 -2.882344
v -2.804276 0.535300 -2.882344
v -2.804276 2.513249 -2.822259
v -2.800298 0.535300 -2.822258
v -2.239841 2.513249 -2.882344
v -2.243819 0.535300 -2.882344
v -2.243819 2.513249 -2.822259
v -2.239841 0.535300 -2.822258
v -2.131830 0.536573 -2.754051
v -2.130480 0.458704 -2.754864
v -3.474093 0.458704 -2.989770
v -3.472744 0.458818 -2.754051
v -2.131830 0.458817 -2.990583
v -3.474093 0.536687 -2.754864
v -2.130480 0.536686 -2.989770
v -3.472744 0.536573 -2.990583
v -0.924641 2.538658 -2.805621
v -0.925384 0.500282 -2.806132
v -2.177148 2.538253 -2.806132
v -0.925384 2.538252 -2.658276
v -0.924641 0.499876 -2.658787
v -2.177891 2.538658 -2.658787
v -2.177891 0.499876 -2.805621
v -2.177148 0.500281 -2.658276
v -0.991581 0.568663 -2.823509
v -0.991581 2.469871 -2.821045
v -2.110951 2.469871 -2.823509
v -2.110951 0.568663 -2.821044
v -2.109734 2.513249 -2.882344
v -2.113712 0.535300 -2.882344
v -2.113712 2.513249 -2.822259
v -2.109734 0.535300 -2.822258
v -1.553255 0.535300 -2.882344
v -1.549277 0.535300 -2.822258
v -1.553255 2.513249 -2.822259
v -1.549277 2.513249 -2.882344
v -0.992797 0.535300 -2.882344
v -0.992797 2.513249 -2.822259
v -0.988820 0.535300 -2.822258
v -0.988820 2.513249 -2.882344
v -2.221723 0.536573 -2.990583
v -0.879459 0.536686 -2.989770
v -0.880809 0.458818 -2.990583
v -0.880809 0.536573 -2.754051
v -2.221723 0.458818 -2.754051
v -0.879459 0.458704 -2.754864
v -2.223073 0.536687 -2.754864
v -2.223073 0.458704 -2.989770
v 0.925384 2.538252 -2.806133
v 2.177148 0.500281 -2.806132
v 0.924641 0.499876 -2.805621
v 2.177148 2.538253 -2.658276
v 0.925384 0.500282 -2.658276
v 0.924641 2.538658 -2.658787
v 2.177891 2.538658 -2.805621
v 2.177891 0.499876 -2.658787
v 0.991581 0.568663 -2.821044
v 2.110951 2.469871 -2.821045
v 0.991581 2.469871 -2.823509
v 2.110951 0.568663 -2.823509
v 0.988820 2.513249 -2.822259
v 0.988820 0.535300 -2.882344
v 0.992797 0.535300 -2.822258
v 0.992797 2.513249 -2.882344
v 1.553255 0.535300 -2.822258
v 1.553255 2.513249 -2.882344
v 1.549277 2.513249 -2.822259
v 1.549277 0.535300 -2.882344
v 2.109735 2.513249 -2.822259
v 2.113712 2.513249 -2.882344
v 2.109735 0.535300 -2.882344
v 2.113712 0.535300 -2.822258
v 0.880809 0.536573 -2.990583
v 0.880809 0.458818 -2.754051
v 0.879459 0.458704 -2.989770
v 2.223073 0.458704 -2.754864
v 2.223073 0.536686 -2.989770
v 2.221723 0.536573 -2.754051
v 0.879459 0.536687 -2.754864
v 2.221723 0.458818 -2.990583
v 3.428912 2.538658 -2.805621
v 2.176404 0.500281 -2.658276
v 3.428169 2.538253 -2.658276
v 3.428912 0.499876 -2.658787
v 2.176404 2.538253 -2.806132
v 2.175661 2.538658 -2.658787
v 2.175661 0.499876 -2.805621
v 3.428169 0.500281 -2.806132
v 2.242602 2.469871 -2.823509
v 3.361972 0.568663 -2.823509
v 3.361972 2.469871 -2.821045
v 2.242602 0.568663 -2.821044
v 2.243819 0.535301 -2.822258
v 2.239841 2.513249 -2.822259
v 2.239841 0.535300 -2.882344
v 2.243819 2.513249 -2.882344
v 2.800298 2.513249 -2.822259
v 2.804276 0.535300 -2.822258
v 2.804276 2.513249 -2.882344
v 2.800298 0.535300 -2.882344
v 3.360755 0.535300 -2.882344
v 3.360755 2.513249 -2.822259
v 3.364733 0.535301 -2.822258
v 3.364733 2.513249 -2.882344
v 3.474093 0.536686 -2.989770
v 3.472744 0.458817 -2.990583
v 3.472744 0.536573 -2.754051
v 3.474094 0.458704 -2.754864
v 2.130480 0.536687 -2.754864
v 2.131830 0.536573 -2.990583
v 2.130480 0.458704 -2.989770
v 2.131830 0.458818 -2.754051
v -0.797101 2.416276 -2.809549
v 0.797101 0.171565 -2.809549
v -0.797101 0.171565 -2.674876
v -0.797792 2.417351 -2.676351
v -0.797792 0.170490 -2.808074
v 0.797101 2.416276 -2.674876
v 0.797792 0.170490 -2.676351
v 0.797792 2.417351 -2.808074
v 0.725557 2.340555 -2.830864
v -0.725557 0.237270 -2.830864
v 0.725557 0.237270 -2.833706
v -0.725557 2.340555 -2.833706
v 0.002018 2.342957 -2.889801
v -0.002018 0.234868 -2.889800
v 0.002018 0.234868 -2.834818
v -0.002018 2.342957 -2.834818
v -0.122233 0.998080 -2.955786
v -0.122233 1.399467 -2.888930
v -0.117963 1.399467 -2.955786
v -0.117963 0.998080 -2.888930
v 0.117963 0.998080 -2.955786
v 0.122233 0.998080 -2.888930
v 0.122233 1.399467 -2.955786
v 0.117963 1.399467 -2.888930
v 3.825086 3.018607 -3.158101
v -3.824148 3.017735 -3.159619
v -3.825086 3.018607 -2.686615
v -3.824148 2.604775 -2.685097
v 3.824148 3.017735 -2.685097
v 3.824148 2.604775 -3.159619
v -3.825085 2.603903 -3.158101
v 3.825086 2.603903 -2.686615
v 3.753295 2.650384 -3.178641
v -3.753295 2.650384 -3.176487
v -3.753295 2.731756 -3.178641
v 3.753295 2.731756 -3.176487
v 1.621127 2.742826 -3.266801
v -1.622289 2.743082 -3.266157
v -1.621127 2.742826 -3.118351
v -1.622289 3.119798 -3.118994
v -1.621127 3.120054 -3.266801
v 1.622289 3.119798 -3.266157
v 1.621127 3.120054 -3.118351
v 1.622289 2.743082 -3.118994
v -3.663684 3.247822 -2.915188
v 3.672081 3.139135 -2.917354
v 3.667993 3.131748 -2.909973
v 3.675374 3.124362 -2.917354
v 3.667993 3.131293 -2.917347
v 3.664030 3.248286 2.913853
v -3.667993 3.244547 2.909972
v -3.659992 3.248914 2.917146
v 3.673770 3.131749 2.915960
v 3.660612 3.124362 2.917353
v 3.667993 3.131749 2.917353
v 3.660612 3.139135 2.917353
v 3.667993 3.244547 -2.909973
v 3.659992 3.248913 -2.917147
v -3.820743 3.131748 -2.909973
v -3.828124 3.140599 -2.917354
v -3.826540 3.133275 -3.072421
v -3.819280 3.131748 -2.917354
v -3.820743 3.131749 2.909972
v -3.823931 3.134008 3.074573
v -3.828124 3.139135 2.917353
v -3.835505 3.131749 2.924734
v -3.671529 3.488877 2.914439
v -3.667993 3.131293 2.917346
v -3.672081 3.139135 2.917353
v -3.667993 3.131749 2.909972
v -3.675374 3.124362 2.917353
v -3.671950 3.140658 -2.917354
v -3.667993 3.139135 -2.917354
v -3.660612 3.139135 -2.917354
v -3.658712 3.131748 -2.909973
v -3.672081 3.484917 -2.917354
v -3.671225 3.492076 -2.909511
v 3.670454 3.486940 -2.914152
v 3.671248 3.492097 2.909516
v 3.675374 3.484917 2.917353
v 3.820743 3.492304 2.909972
v 3.828124 3.484917 2.917353
v 3.835505 3.492304 2.924734
v 3.828124 3.492303 -2.917354
v 3.836968 3.492303 -2.909973
v 3.828124 3.491571 -2.917354
v 3.820743 3.492303 -2.909973
v 3.828124 3.139135 -2.920634
v 3.820743 3.131748 -2.909973
v 3.820743 3.131748 -2.917354
v 3.823931 3.134008 -3.074574
v 3.820331 3.492008 -3.073658
v 3.828124 3.483393 -3.073526
v -3.820743 3.492303 -2.909973
v -3.820743 3.492303 -2.924735
v -3.828124 3.484917 -2.917354
v -3.835505 3.492303 -2.924735
v -3.825509 3.487682 -3.075063
v 3.823931 3.490044 3.074573
v -3.826540 3.490777 3.072421
v -3.820743 3.492304 2.909972
v -3.828124 3.483453 2.917353
v -3.819280 3.492304 2.917353
v 3.820743 3.131749 2.909972
v 3.828124 3.140599 2.917353
v 3.824541 3.134515 3.074089
v 3.820743 3.131749 2.917353
v -1.881214 3.255525 0.877889
v -1.881214 3.899344 1.323887
v -1.880173 3.900000 0.878912
v -2.723584 3.900000 1.322864
v -2.722543 3.899344 0.877889
v -2.723584 3.254869 0.878912
v -1.880173 3.254869 1.322864
v -2.722543 3.255525 1.323887
v -1.910742 3.593256 0.850317
v -1.941584 3.708639 0.850411
v -2.141777 3.824308 0.850641
v -2.028490 3.391111 0.856677
v -2.139232 3.361416 0.844695
v -2.257564 3.793261 0.850730
v -2.256389 3.391874 0.852231
v -2.342204 3.477562 0.851055
v -2.373143 3.592919 0.850961
v -2.342241 3.708490 0.850835
v -2.026089 3.793264 0.850537
v -1.942246 3.476110 0.849141
v -2.351215 3.422900 0.821799
v -1.926913 3.434715 0.820662
v -2.351215 3.446530 0.819525
v -1.932280 3.513633 0.821799
v -1.932280 3.490003 0.819525
v -2.351215 3.490003 0.821799
v -2.351215 3.513633 0.819525
v -1.926913 3.568921 0.820662
v -2.351215 3.580736 0.819524
v -2.351215 3.557106 0.821799
v -2.351215 3.634887 0.808855
v -2.351215 3.637163 0.832468
v -1.926913 3.636024 0.820662
v -2.351215 3.714943 0.819525
v -1.926913 3.703128 0.820662
v -2.351215 3.691313 0.821799
v -2.351215 3.782046 0.819525
v -2.351215 3.758416 0.821799
v -1.926913 3.770231 0.820662
v -2.636122 3.772059 0.854178
v -2.548109 3.772059 0.857202
v -2.636122 3.412856 0.857202
v -2.548109 3.412856 0.854178
v -2.640342 3.250192 0.815059
v -2.563905 3.183567 0.815059
v -2.641178 3.182859 0.816581
v -2.640342 3.183567 1.386716
v -2.563069 3.182859 1.385194
v -2.563069 3.250900 0.816581
v -2.563905 3.250192 1.386716
v -2.641178 3.250900 1.385195
v -2.039851 3.250192 0.815059
v -1.963415 3.183567 0.815059
v -2.039851 3.183567 1.386716
v -1.962579 3.182859 1.385195
v -2.040688 3.182859 0.816581
v -2.040687 3.250900 1.385195
v -1.963415 3.250192 1.386716
v -1.962579 3.250900 0.816581
v -1.672727 3.254869 0.878912
v -0.830357 3.899343 1.323887
v -1.671685 3.255525 1.323887
v -0.829315 3.254869 1.322864
v -1.672727 3.900000 1.322864
v -0.829315 3.900000 0.878912
v -1.671685 3.899344 0.877889
v -0.830357 3.255525 0.877889
v -1.205532 3.391874 0.852231
v -0.975232 3.793264 0.850537
v -1.088374 3.361416 0.844695
v -1.291346 3.477562 0.851055
v -1.322286 3.592919 0.850961
v -1.206706 3.793261 0.850730
v -1.291384 3.708490 0.850834
v -1.090919 3.824308 0.850641
v -0.890727 3.708639 0.850411
v -0.859884 3.593256 0.850317
v -0.977632 3.391111 0.856677
v -0.891388 3.476110 0.849141
v -1.300358 3.446530 0.819525
v -1.300358 3.422900 0.821799
v -0.876056 3.434715 0.820662
v -1.300358 3.513633 0.819525
v -1.300358 3.490003 0.821799
v -0.881422 3.490003 0.819525
v -0.881422 3.513633 0.821799
v -1.300358 3.580736 0.819524
v -0.876056 3.568921 0.820662
v -1.300358 3.557106 0.821799
v -0.876056 3.636024 0.820662
v -1.300358 3.634887 0.808855
v -1.300358 3.637163 0.832468
v -1.300358 3.714943 0.819525
v -0.876056 3.703128 0.820662
v -1.300358 3.691313 0.821799
v -1.300358 3.758416 0.821799
v -0.876056 3.770231 0.820662
v -1.300358 3.782046 0.819524
v -1.497251 3.772059 0.857202
v -1.585264 3.412856 0.857202
v -1.497251 3.412856 0.854178
v -1.585264 3.772059 0.854178
v -1.513048 3.183567 0.815059
v -1.589484 3.250192 0.815059
v -1.589484 3.183567 1.386716
v -1.513048 3.250192 1.386716
v -1.590320 3.250900 1.385195
v -1.590320 3.182859 0.816581
v -1.512212 3.250900 0.816581
v -1.512212 3.182859 1.385195
v -0.912558 3.183567 0.815059
v -0.988994 3.250192 0.815059
v -0.988994 3.183567 1.386716
v -0.989830 3.250900 1.385195
v -0.912558 3.250192 1.386716
v -0.911722 3.250900 0.816581
v -0.989830 3.182859 0.816581
v -0.911722 3.182859 1.385195
v -3.021929 0.176978 -3.151767
v -2.953106 0.176896 -3.225463
v -2.965119 0.178972 -3.167395
v -3.039718 0.894601 -3.166192
v -2.983739 0.898617 -3.151513
v -3.003070 0.180912 -3.254669
v -2.980292 0.898537 -3.252290
v -3.054704 0.180524 -3.221064
v -3.052468 0.894989 -3.226462
v -2.951170 0.896542 -3.201069
v 3.039781 0.178972 -3.167395
v 3.001830 0.180912 -3.254669
v 3.051794 0.176896 -3.225463
v 3.053730 0.896542 -3.201068
v 2.952432 0.894989 -3.226462
v 3.024608 0.898537 -3.252290
v 2.950196 0.180524 -3.221064
v 2.965182 0.894601 -3.166192
v 2.982971 0.176978 -3.151767
v 3.021161 0.898617 -3.151513
v 2.804469 1.874234 -3.291131
v 2.804238 0.181492 -3.290271
v 3.400594 1.874234 -2.853826
v 3.400826 1.875531 -3.290271
v 3.400594 0.182790 -3.291131
v 2.804238 1.875531 -2.854686
v 3.400826 0.181492 -2.854686
v 2.804470 0.182790 -2.853826
v 3.331837 1.588457 -3.301359
v 2.873226 1.588457 -3.303970
v 2.873226 0.648845 -3.301359
v 3.331837 0.648845 -3.303970
v 2.923752 0.999903 -3.323378
v 2.923752 0.856812 -3.321983
v 3.001083 0.999903 -3.321983
v 3.001083 0.856812 -3.323378
v 3.063866 0.999903 -3.323378
v 3.141197 0.999903 -3.321983
v 3.063866 0.856812 -3.321983
v 3.141197 0.856812 -3.323378
v 3.203981 0.999903 -3.323378
v 3.281311 0.856812 -3.323378
v 3.203981 0.856812 -3.321983
v 3.281311 0.999903 -3.321983
v 2.923752 1.300365 -3.323378
v 3.001083 1.300365 -3.321983
v 3.001083 1.157275 -3.323377
v 2.923752 1.157275 -3.321983
v 3.141197 1.157275 -3.323377
v 3.141197 1.300365 -3.321983
v 3.063866 1.157275 -3.321983
v 3.063866 1.300365 -3.323378
v 3.203981 1.300366 -3.323378
v 3.281311 1.300366 -3.321983
v 3.203981 1.157275 -3.321983
v 3.281311 1.157274 -3.323378
v 2.923752 1.600828 -3.323378
v 3.001083 1.600828 -3.321984
v 2.923752 1.457737 -3.321983
v 3.001083 1.457737 -3.323378
v 3.141197 1.457737 -3.323378
v 3.063866 1.457737 -3.321983
v 3.141197 1.600828 -3.321984
v 3.063866 1.600828 -3.323378
v 3.281311 1.457737 -3.323378
v 3.203981 1.600828 -3.323378
v 3.203981 1.457737 -3.321983
v 3.281311 1.600828 -3.321983
v -2.796162 0.181621 -3.320434
v -3.509742 0.180670 -3.319391
v -2.796162 0.994046 -2.844539
v -3.508983 0.181621 -2.844539
v -3.509742 0.994997 -2.845582
v -2.795403 0.994997 -3.319391
v -3.508983 0.994047 -3.320434
v -2.795403 0.180671 -2.845582
v -2.978216 0.907581 -3.331245
v -3.326929 0.808918 -3.331245
v -2.978216 0.808918 -3.334132
v -3.326929 0.907581 -3.334132
v -3.552145 0.116323 3.239769
v -3.595162 0.120549 3.177769
v -3.520132 0.115849 3.159199
v -3.518996 2.902182 3.159736
v -3.593254 2.897956 3.173163
v -3.553329 2.902656 3.239345
v 3.553652 0.116323 3.239769
v 3.510638 0.120549 3.177768
v 3.586803 2.902182 3.159737
v 3.552469 2.902656 3.239345
v 3.585666 0.115849 3.159200
v 3.512545 2.897956 3.173162
v -0.396831 2.247696 3.241125
v -0.396401 0.451011 3.241596
v 0.396831 2.247696 3.124009
v 0.396401 2.247000 3.241596
v -0.396401 2.247000 3.123539
v -0.396831 0.450315 3.124010
v 0.396401 0.451011 3.123539
v 0.396831 0.450315 3.241125
v 0.628217 1.302495 3.099978
v 0.628787 1.795093 3.099288
v 0.628217 1.796133 3.265156
v 0.973089 1.796133 3.099978
v 0.972520 1.795093 3.265846
v 0.972519 1.303535 3.099289
v 0.973089 1.302495 3.265157
v 0.628787 1.303535 3.265846
vn -0.0000 -0.0000 -1.0000
vn 0.8864 -0.4621 0.0285
vn -0.2282 -0.2281 -0.9465
vn -0.7005 -0.7000 -0.1389
vn 0.7071 -0.0000 0.7071
vn -0.6838 0.7283 0.0450
vn -0.0961 -0.7159 -0.6916
vn -0.7071 -0.0000 0.7071
vn -0.7074 -0.0000 -0.7068
vn 0.9122 -0.4098 -0.0075
vn 0.7083 -0.7059 0.0042
vn 0.9984 -0.0386 -0.0413
vn 0.7071 -0.0000 -0.7071
vn -0.7005 0.7000 0.1389
vn 0.7680 -0.6405 -0.0000
vn 0.5745 0.0019 -0.8185
vn 0.0201 0.0028 -0.9998
vn -0.0000 0.0010 1.0000
vn 0.9994 0.0349 0.0012
vn 0.8026 0.5965 -0.0006
vn 0.4792 0.8777 -0.0002
vn 0.0604 -0.9981 0.0120
vn 0.0482 -0.0482 0.9977
vn -0.0000 1.0000 -0.0000
vn -0.0000 1.0000 -0.0001
vn -0.9992 0.0405 -0.0013
vn -0.8026 0.5965 0.0005
vn -0.4791 0.8777 0.0001
vn -0.0010 -0.0001 -1.0000
vn -0.0000 0.7068 0.7074
vn -0.7680 -0.6404 -0.0000
vn -0.0496 -0.9988 -0.0000
vn -0.0317 0.9910 -0.1301
vn -0.5674 -0.5749 0.5895
vn 0.0001 -0.9998 0.0176
vn 0.1859 -0.6815 0.7078
vn 0.0001 1.0000 0.0099
vn 0.5693 0.5747 0.5879
vn -0.0000 0.9999 0.0137
vn 0.6676 -0.0000 -0.7445
vn 0.9941 0.0004 -0.1089
vn -0.0390 0.9979 -0.0523
vn -0.0000 -0.7069 -0.7073
vn -0.0000 0.7068 -0.7074
vn 0.7680 -0.6404 -0.0000
vn 0.0001 -0.6988 -0.7153
vn 0.0001 -1.0000 -0.0099
vn -0.1880 -0.6822 -0.7066
vn -0.6676 -0.0000 0.7445
vn -0.7680 0.6404 -0.0000
vn -0.8840 0.0022 0.4674
vn -0.5022 0.8647 -0.0108
vn -0.5729 0.5673 -0.5916
vn -0.7072 0.7070 0.0003
vn -0.5794 0.5781 0.5745
vn 0.5794 0.5781 -0.5745
vn -0.5753 0.5765 -0.5802
vn 0.5753 0.5765 0.5802
vn 0.5753 -0.5765 -0.5802
vn 0.5794 -0.5781 0.5745
vn -0.5794 -0.5781 -0.5745
vn -0.5753 -0.5765 0.5802
vn -0.5775 -0.5774 -0.5771
vn 0.5771 -0.5774 -0.5776
vn 0.5775 -0.5774 0.5771
vn -0.5771 0.5774 -0.5776
vn 0.5775 0.5774 -0.5771
vn 0.5771 0.5774 0.5776
vn -0.5771 -0.5774 0.5776
vn -0.5775 0.5774 0.5771
vn -0.5758 0.5767 -0.5795
vn 0.5758 -0.5767 -0.5795
vn -0.5789 -0.5780 -0.5751
vn 0.5789 -0.5780 0.5751
vn 0.5789 0.5780 -0.5751
vn 0.5758 0.5767 0.5795
vn -0.5789 0.5780 0.5751
vn -0.5758 -0.5767 0.5795
vn -0.6565 0.7543 0.0017
vn 0.6564 0.7544 -0.0017
vn 0.6565 -0.7543 0.0017
vn -0.6564 -0.7544 -0.0016
vn -0.0390 0.8389 0.5429
vn 0.0390 0.8389 -0.5429
vn -0.0390 -0.8389 -0.5429
vn 0.0390 -0.8389 0.5429
vn 0.6991 0.0052 0.7150
vn -0.6991 -0.0052 0.7150
vn 0.7122 -0.0000 0.7020
vn -0.7122 -0.0000 0.7020
vn 0.7122 -0.0000 -0.7020
vn -0.0001 1.0000 -0.0004
vn 0.0001 1.0000 0.0005
vn 0.0001 1.0000 0.0004
vn 0.6991 -0.0052 -0.7150
vn -0.0001 -1.0000 0.0004
vn 0.0001 -1.0000 -0.0005
vn 0.0001 -1.0000 -0.0004
vn -0.0001 -1.0000 0.0005
vn -0.7122 -0.0000 -0.7020
vn -0.6991 0.0052 -0.7150
vn -0.0001 1.0000 -0.0005
vn 0.6563 0.7545 -0.0017
vn -0.6563 -0.7545 -0.0017
vn -0.0390 0.8389 0.5428
vn 0.0390 0.8388 -0.5430
vn -0.0390 -0.8388 -0.5430
vn 0.0390 -0.8389 0.5428
vn -0.6564 0.7544 0.0017
vn 0.6564 -0.7544 0.0016
vn -0.6564 -0.7544 -0.0017
vn -0.5761 0.5749 -0.5811
vn 0.5761 -0.5749 -0.5811
vn -0.5789 -0.5797 -0.5734
vn 0.5789 0.5797 -0.5734
vn -0.5789 0.5797 0.5734
vn 0.5789 -0.5797 0.5734
vn -0.5761 -0.5749 0.5811
vn 0.5761 0.5749 0.5811
vn 0.6710 0.7414 0.0102
vn -0.6710 -0.7414 0.0103
vn 0.6712 -0.7412 -0.0103
vn -0.6712 0.7412 -0.0102
vn -0.0425 0.8395 0.5417
vn 0.0424 0.8396 -0.5415
vn -0.0425 -0.8396 -0.5415
vn 0.0425 -0.8395 0.5417
vn 0.0366 0.8174 -0.5750
vn 0.0366 -0.8173 0.5750
vn -0.0366 -0.8174 -0.5750
vn -0.0366 0.8173 0.5750
vn -0.5781 0.5785 0.5754
vn 0.5781 0.5785 -0.5754
vn -0.5760 0.5765 -0.5796
vn 0.5760 -0.5765 -0.5796
vn 0.5781 -0.5785 0.5754
vn 0.5760 0.5765 0.5796
vn -0.5781 -0.5785 -0.5754
vn -0.5760 -0.5765 0.5796
vn -0.8419 0.5390 -0.0271
vn 0.8417 -0.5393 -0.0268
vn -0.8417 -0.5392 0.0270
vn 0.8420 0.5389 0.0269
vn -0.7090 -0.7052 0.0018
vn 0.7035 -0.7107 -0.0043
vn 0.7090 -0.7052 -0.0018
vn -0.0002 -0.0015 -1.0000
vn 0.0002 0.0017 -1.0000
vn 0.0002 0.0015 -1.0000
vn -0.0002 -0.0017 -1.0000
vn 0.7090 0.7052 0.0018
vn -0.7090 0.7052 -0.0018
vn -0.7035 0.7107 -0.0043
vn -0.7035 -0.7107 0.0043
vn 0.0002 -0.0015 1.0000
vn -0.0002 0.0015 1.0000
vn 0.0002 -0.0017 1.0000
vn -0.0002 0.0017 1.0000
vn 0.7035 0.7107 0.0043
vn -0.0001 0.7201 -0.6939
vn -0.0003 0.0018 -1.0000
vn -0.0000 0.0199 -0.9998
vn -0.9992 0.0391 -0.0007
vn 0.0003 0.6807 0.7325
vn -0.0002 0.6808 -0.7325
vn -0.0000 -1.0000 -0.0000
vn -0.0384 0.9993 -0.0000
vn -0.7252 0.6885 -0.0005
vn -1.0000 0.0069 0.0001
vn 0.9994 0.0336 0.0006
vn 1.0000 -0.0000 -0.0000
vn -0.4895 0.8720 0.0005
vn 0.0005 0.0092 -1.0000
vn -0.0000 0.7249 0.6889
vn 0.0004 0.0019 1.0000
vn -0.0001 0.0320 0.9995
vn -1.0000 -0.0000 -0.0000
vn 0.0006 -0.7071 -0.7071
vn -0.0000 -0.0000 1.0000
vn 0.0482 -0.9988 -0.0013
vn -0.6982 -0.0175 0.7157
vn -0.9998 -0.0210 0.0012
vn -0.9999 -0.0000 -0.0102
vn 0.0137 0.0015 0.9999
vn 0.0050 0.0061 1.0000
vn -0.0000 0.0083 1.0000
vn -0.1877 0.6813 0.7075
vn -0.8721 -0.4893 0.0073
vn -0.6982 0.0175 -0.7157
vn -0.9999 -0.0000 0.0102
vn 0.9997 0.0253 -0.0000
vn 0.7093 0.7049 0.0003
vn 1.0000 0.0099 0.0001
vn 0.0230 0.9997 -0.0018
vn 0.0014 1.0000 -0.0000
vn -0.0350 0.9994 -0.0009
vn -0.0203 0.0004 -0.9998
vn -0.0013 1.0000 -0.0000
vn 0.9997 -0.0000 0.0229
vn 0.8726 0.4884 0.0073
vn 0.9998 -0.0210 -0.0013
vn 0.9998 -0.0206 -0.0012
vn 0.9998 -0.0205 -0.0012
vn 0.0245 -0.0205 -0.9995
vn -0.6405 0.0288 0.7674
vn -0.0000 1.0000 -0.0018
vn 0.0002 0.0150 -0.9999
vn -0.9999 0.0028 -0.0165
vn -0.5782 -0.5780 -0.5758
vn 0.5763 -0.5769 -0.5788
vn 0.5782 -0.5780 0.5758
vn -0.5763 0.5769 -0.5788
vn 0.5782 0.5780 -0.5758
vn 0.5763 0.5769 0.5788
vn -0.5763 -0.5769 0.5788
vn -0.5782 0.5780 0.5758
vn 0.5251 -0.8344 0.1673
vn 0.9256 -0.3733 -0.0617
vn 0.9901 0.1397 -0.0101
vn 0.8170 0.5766 -0.0047
vn 0.4519 0.8920 -0.0007
vn -0.0184 0.9998 -0.0000
vn -0.4842 0.8750 -0.0000
vn -0.8374 0.5466 0.0006
vn -0.9958 0.0910 0.0047
vn -0.9274 -0.3739 0.0101
vn -0.6150 -0.7861 0.0617
vn -0.0373 -0.9852 -0.1672
vn -0.0000 -0.0000 -0.0000
vn -0.8349 0.5478 -0.0541
vn 0.8349 0.5478 0.0541
vn 0.8347 -0.5480 -0.0542
vn -0.8347 -0.5480 0.0542
vn -0.5929 0.8050 -0.0186
vn 0.5930 0.8050 0.0186
vn 0.5929 -0.8050 -0.0186
vn -0.5930 -0.8050 0.0186
vn -0.5847 0.5835 0.5635
vn -0.5734 0.5742 -0.5844
vn -0.5848 -0.5835 -0.5635
vn 0.5734 -0.5742 -0.5844
vn 0.5847 0.5835 -0.5635
vn 0.5847 -0.5835 0.5635
vn -0.5734 -0.5742 0.5844
vn 0.5734 0.5742 0.5844
vn -0.5847 -0.5835 -0.5635
vn 0.4519 0.8921 -0.0007
vn -0.4842 0.8749 -0.0000
vn -0.8347 0.5480 -0.0542
vn 0.8349 -0.5478 -0.0541
vn -0.8349 -0.5478 0.0541
vn 0.8347 0.5480 0.0542
vn -0.0000 0.9683 -0.2499
vn -0.0000 0.9888 -0.1493
vn -0.0000 0.9892 -0.1465
vn 0.5791 -0.6123 0.5382
vn -0.3294 -0.6199 0.7121
vn -0.7794 -0.5823 -0.2312
vn -0.5884 0.5973 0.5450
vn 0.2703 0.6384 0.7206
vn 0.7007 -0.6384 -0.3184
vn -0.0307 -0.5973 -0.8014
vn 0.2706 0.6200 -0.7365
vn 0.7901 0.6123 0.0290
vn -0.7147 0.5823 -0.3876
vn 0.5792 -0.6123 0.5382
vn 0.2703 0.6385 0.7206
vn -0.5777 0.5782 0.5761
vn -0.5776 0.5758 -0.5787
vn -0.5777 -0.5782 -0.5761
vn 0.5776 -0.5758 -0.5787
vn 0.5777 0.5782 -0.5761
vn -0.5776 -0.5758 0.5787
vn 0.5777 -0.5782 0.5761
vn 0.5776 0.5758 0.5787
vn -0.6401 0.7683 0.0028
vn 0.6401 0.7683 -0.0028
vn 0.6401 -0.7683 0.0028
vn -0.6401 -0.7683 -0.0028
vn -0.6490 0.7607 -0.0116
vn 0.6490 -0.7607 -0.0116
vn -0.6485 -0.7611 0.0116
vn 0.6485 0.7611 0.0116
vn -0.6488 0.7609 -0.0116
vn 0.6486 0.7611 0.0116
vn 0.6488 -0.7609 -0.0116
vn -0.6486 -0.7611 0.0116
vn -0.6489 0.7608 -0.0116
vn 0.6489 -0.7608 -0.0116
vn -0.6486 -0.7610 0.0116
vn 0.6486 0.7610 0.0116
vn -0.6485 0.7611 -0.0116
vn 0.6490 0.7607 0.0116
vn 0.6485 -0.7611 -0.0115
vn -0.6490 -0.7607 0.0116
vn -0.6486 0.7611 -0.0116
vn 0.6486 -0.7611 -0.0115
vn -0.6488 -0.7609 0.0116
vn 0.6488 0.7609 0.0116
vn -0.6486 0.7610 -0.0116
vn 0.6486 -0.7610 -0.0116
vn -0.6489 -0.7608 0.0116
vn 0.6489 0.7608 0.0116
vn -0.6486 0.7610 -0.0115
vn -0.6485 0.7612 -0.0115
vn 0.6485 -0.7612 -0.0116
vn -0.5768 0.5765 -0.5788
vn 0.5768 -0.5765 -0.5788
vn -0.5780 -0.5782 -0.5759
vn 0.5780 0.5782 -0.5759
vn 0.5780 -0.5782 0.5759
vn -0.5780 0.5782 0.5759
vn -0.5768 -0.5765 0.5788
vn 0.5768 0.5765 0.5788
vn 0.7991 0.6011 0.0153
vn -0.7991 -0.6011 0.0153
vn 0.7990 -0.6011 -0.0153
vn -0.7990 0.6011 -0.0153
vn -0.7947 -0.5282 -0.2990
vn 0.0882 -0.5662 0.8196
vn 0.0510 0.5696 0.8203
vn -0.7734 0.5282 -0.3505
vn 0.6161 -0.5696 -0.5440
vn 0.6419 0.5662 -0.5172
vn 0.6419 0.5662 -0.5171
vn -0.5785 0.5789 0.5747
vn -0.5785 -0.5789 -0.5747
vn -0.5765 -0.5755 0.5800
vn 0.5765 0.5755 0.5800
vn 0.5785 0.5789 -0.5747
vn -0.5765 0.5755 -0.5800
vn 0.5785 -0.5789 0.5747
vn 0.5765 -0.5755 -0.5800
vn -0.5786 -0.5792 -0.5743
vn 0.5786 -0.5792 0.5743
vn -0.5767 -0.5748 0.5806
vn 0.5767 -0.5748 -0.5806
vn -0.5786 0.5792 0.5743
vn -0.5767 0.5748 -0.5806
vn 0.5786 0.5792 -0.5743
vn 0.5767 0.5748 0.5806
vn 0.6838 0.7283 -0.0450
vn -0.2281 0.2281 -0.9465
vn -0.7071 -0.7066 0.0262
vn -0.7094 -0.7048 -0.0041
vn -0.8864 -0.4621 -0.0285
vn -0.0000 -0.0003 1.0000
vn 0.7094 0.7048 -0.0041
vn 0.6409 -0.0000 -0.7677
vn 0.7074 -0.7068 0.0001
vn 0.7073 -0.7069 -0.0000
vn -0.7074 0.7068 -0.0000
vn -0.7071 0.7066 -0.0262
vn 0.7680 -0.6404 -0.0073
vn 0.0004 -0.1847 0.9828
vn 0.0231 0.9997 -0.0046
vn -0.0000 -0.6380 -0.7701
vn 0.0310 0.0311 0.9990
vn -0.0191 0.0091 -0.9998
vn -0.0008 -0.7070 -0.7073
vn -0.0000 0.7386 -0.6742
vn -0.0015 -1.0000 -0.0015
vn -0.0000 -0.7069 -0.7074
vn -0.0000 -0.9999 0.0137
vn -0.7071 -0.0000 -0.7071
vn 0.0086 0.0223 -0.9997
vn 0.0178 0.0083 0.9998
vn 0.7414 0.6702 -0.0351
vn -0.0000 -0.7069 0.7074
vn -0.0000 0.7373 0.6755
vn 0.7075 -0.7067 0.0002
vn -0.0000 -0.9999 -0.0144
vn -0.0015 1.0000 0.0015
vn 0.0951 0.0185 0.9953
vn -0.0000 -0.7068 0.7074
vn 0.7074 -0.7068 -0.0000
vn -0.9996 0.0289 -0.0012
vn 0.9998 -0.0215 0.0012
vn 0.3235 0.8407 0.4342
vn -0.6222 -0.7828 -0.0010
vn -0.0426 -0.1107 -0.9929
vn 0.0010 -0.0205 0.9998
vn -0.9998 0.0210 -0.0012
vn 0.0188 -0.0061 0.9998
vn 0.0193 -0.0193 0.9996
vn 0.0010 0.0205 -0.9998
vn 1.0000 0.0092 -0.0000
vn -0.0010 -0.0205 -0.9998
vn 0.9998 -0.0205 -0.0000
vn 0.6419 -0.0289 -0.7663
vn 0.4132 -0.0085 0.9106
vt 0.809179 0.868710
vt 0.809179 0.760114
vt 0.820243 0.760126
vt 0.820243 0.868721
vt 0.994160 0.902718
vt 0.993912 0.902746
vt 0.993868 0.902477
vt 0.993094 0.618924
vt 0.992994 0.618745
vt 0.993094 0.618402
vt 0.450606 0.284084
vt 0.450606 0.284390
vt 0.450351 0.284340
vt 0.105275 0.994395
vt 0.105020 0.994139
vt 0.105275 0.993884
vt 0.116085 0.994109
vt 0.116253 0.993917
vt 0.116253 0.994278
vt 0.450606 0.289479
vt 0.450606 0.289871
vt 0.450351 0.289937
vt 0.211562 0.548326
vt 0.211818 0.548581
vt 0.212072 0.548836
vt 0.325430 0.880592
vt 0.325404 0.880592
vt 0.325431 0.880296
vt 0.450719 0.548579
vt 0.450606 0.548325
vt 0.455945 0.548464
vt 0.010502 0.284340
vt 0.010248 0.284085
vt 0.009992 0.283830
vt 0.211818 0.284085
vt 0.211817 0.284391
vt 0.211562 0.284340
vt 0.808639 0.476953
vt 0.808334 0.477009
vt 0.808334 0.476760
vt 0.197532 0.974716
vt 0.197446 0.986600
vt 0.197387 0.974473
vt 0.238973 0.812204
vt 0.239228 0.558772
vt 0.239212 0.811949
vt 0.666683 0.802347
vt 0.465602 0.802545
vt 0.465570 0.802265
vt 0.249291 0.548324
vt 0.249036 0.543047
vt 0.249036 0.542792
vt 0.010247 0.548581
vt 0.010502 0.548326
vt 0.010502 0.548886
vt 0.465586 0.549252
vt 0.666660 0.549113
vt 0.666692 0.549393
vt 0.412517 0.645257
vt 0.412770 0.894517
vt 0.412531 0.894768
vt 0.010248 0.289476
vt 0.249291 0.284339
vt 0.450351 0.548325
vt 0.450606 0.543188
vt 0.010390 0.543174
vt 0.831110 0.549228
vt 0.836335 0.813355
vt 0.831058 0.813353
vt 0.217180 0.548423
vt 0.676400 0.984909
vt 0.676124 0.988793
vt 0.676194 0.984896
vt 0.528997 0.974534
vt 0.529029 0.986600
vt 0.528848 0.974717
vt 0.105020 0.978795
vt 0.105311 0.984182
vt 0.105020 0.984453
vt 0.384806 0.978946
vt 0.384559 0.984331
vt 0.384563 0.978680
vt 0.211818 0.543304
vt 0.808334 0.280454
vt 0.455983 0.284339
vt 0.865429 0.802544
vt 0.861535 0.802548
vt 0.865518 0.802280
vt 0.068975 0.974307
vt 0.068526 0.986492
vt 0.068721 0.974302
vt 0.009992 0.284340
vt 0.004766 0.284340
vt 0.239343 0.004897
vt 0.004722 0.274217
vt 0.004726 0.004843
vt 0.239340 0.274271
vt 0.830390 0.482030
vt 0.830320 0.216923
vt 0.836347 0.216933
vt 0.851880 0.216890
vt 0.851913 0.446070
vt 0.846023 0.446057
vt 0.846167 0.216890
vt 0.836279 0.482033
vt 0.483408 0.004898
vt 0.483405 0.274271
vt 0.248787 0.274215
vt 0.452244 0.558021
vt 0.446286 0.827266
vt 0.446216 0.558020
vt 0.452176 0.827260
vt 0.846135 0.783708
vt 0.851848 0.549112
vt 0.851848 0.783708
vt 0.248791 0.004843
vt 0.846135 0.549112
vt 0.693196 0.004879
vt 0.693253 0.260347
vt 0.493029 0.260405
vt 0.676133 0.800517
vt 0.676124 0.549112
vt 0.777867 0.549218
vt 0.777853 0.800689
vt 0.106460 0.558318
vt 0.004728 0.753714
vt 0.004780 0.558319
vt 0.777278 0.283829
vt 0.675544 0.539149
vt 0.675534 0.283829
vt 0.777265 0.539206
vt 0.106450 0.753781
vt 0.665920 0.283991
vt 0.665976 0.539460
vt 0.465752 0.539519
vt 0.350461 0.558011
vt 0.248781 0.757932
vt 0.248781 0.558011
vt 0.492972 0.004937
vt 0.465695 0.284050
vt 0.350461 0.757933
vt 0.115962 0.725660
vt 0.158337 0.796035
vt 0.115972 0.796109
vt 0.799004 0.887911
vt 0.799028 0.931047
vt 0.794022 0.931075
vt 0.158329 0.725586
vt 0.446109 0.837123
vt 0.450873 0.907310
vt 0.446109 0.907145
vt 0.450896 0.836963
vt 0.359971 0.645293
vt 0.402999 0.645263
vt 0.403007 0.715713
vt 0.359979 0.715744
vt 0.784463 0.887911
vt 0.784486 0.931047
vt 0.779479 0.931075
vt 0.793998 0.887939
vt 0.860592 0.812326
vt 0.865588 0.882676
vt 0.860573 0.882673
vt 0.865608 0.812329
vt 0.779455 0.887939
vt 0.465776 0.812155
vt 0.503485 0.812068
vt 0.503505 0.877521
vt 0.465780 0.877621
vt 0.300780 0.767512
vt 0.339066 0.832910
vt 0.300792 0.832965
vt 0.339054 0.767457
vt 0.944987 0.763326
vt 0.946360 0.763281
vt 0.946364 0.831100
vt 0.932316 0.211309
vt 0.933744 0.279083
vt 0.932328 0.279128
vt 0.933763 0.211308
vt 0.944991 0.831146
vt 0.945167 0.670570
vt 0.946539 0.670525
vt 0.946543 0.738344
vt 0.930029 0.428160
vt 0.931458 0.495934
vt 0.930042 0.495979
vt 0.931477 0.428160
vt 0.945170 0.738389
vt 0.141411 0.880860
vt 0.142784 0.880815
vt 0.142788 0.948634
vt 0.933918 0.322611
vt 0.935347 0.390386
vt 0.933931 0.390430
vt 0.935367 0.322611
vt 0.141415 0.948679
vt 0.007463 0.915906
vt 0.004735 0.962009
vt 0.004733 0.915909
vt 0.007465 0.962006
vt 0.209623 0.974406
vt 0.209689 0.982145
vt 0.207010 0.982120
vt 0.918392 0.004908
vt 0.918419 0.051172
vt 0.910378 0.051201
vt 0.207067 0.974406
vt 0.920245 0.605413
vt 0.920272 0.651677
vt 0.912231 0.651706
vt 0.912204 0.605442
vt 0.810788 0.529539
vt 0.808435 0.537631
vt 0.808445 0.529510
vt 0.810778 0.537660
vt 0.128109 0.963610
vt 0.130836 0.918221
vt 0.130839 0.963610
vt 0.128107 0.918218
vt 0.910351 0.004937
vt 0.902068 0.126770
vt 0.906832 0.196957
vt 0.902068 0.196792
vt 0.004786 0.763411
vt 0.047153 0.763337
vt 0.047161 0.833785
vt 0.526199 0.887337
vt 0.521216 0.930501
vt 0.521192 0.887365
vt 0.526222 0.930473
vt 0.906855 0.126610
vt 0.004796 0.833860
vt 0.836106 0.891201
vt 0.836129 0.934337
vt 0.831122 0.934365
vt 0.887545 0.126607
vt 0.892561 0.126610
vt 0.892541 0.196957
vt 0.359971 0.725259
vt 0.402999 0.725229
vt 0.403007 0.795679
vt 0.359979 0.795709
vt 0.831098 0.891229
vt 0.887526 0.196954
vt 0.513205 0.812155
vt 0.550914 0.812068
vt 0.550934 0.877521
vt 0.513209 0.877621
vt 0.359932 0.805315
vt 0.398219 0.870713
vt 0.359945 0.870768
vt 0.398207 0.805260
vt 0.052003 0.882305
vt 0.053376 0.882260
vt 0.053380 0.950079
vt 0.052007 0.950125
vt 0.933909 0.763327
vt 0.935356 0.763327
vt 0.935337 0.831101
vt 0.933921 0.831146
vt 0.934088 0.670571
vt 0.935517 0.738345
vt 0.934101 0.738389
vt 0.820011 0.878322
vt 0.821387 0.946096
vt 0.820014 0.946141
vt 0.821383 0.878277
vt 0.935536 0.670570
vt 0.152235 0.880860
vt 0.153607 0.880815
vt 0.153611 0.948633
vt 0.152239 0.948679
vt 0.938666 0.004885
vt 0.940114 0.004884
vt 0.940095 0.072659
vt 0.938679 0.072704
vt 0.115911 0.963610
vt 0.118639 0.918221
vt 0.118641 0.963610
vt 0.115909 0.918218
vt 0.288786 0.847561
vt 0.280772 0.893854
vt 0.280745 0.847590
vt 0.822776 0.529539
vt 0.822765 0.537660
vt 0.820422 0.537631
vt 0.862734 0.974398
vt 0.860121 0.982112
vt 0.860178 0.974398
vt 0.288813 0.893825
vt 0.862800 0.982136
vt 0.920488 0.428183
vt 0.920515 0.474446
vt 0.912473 0.474475
vt 0.448856 0.916864
vt 0.446128 0.962967
vt 0.446126 0.916867
vt 0.448858 0.962964
vt 0.820433 0.529510
vt 0.912446 0.428212
vt 0.056745 0.763411
vt 0.099120 0.833785
vt 0.056755 0.833860
vt 0.099112 0.763337
vt 0.883004 0.817434
vt 0.888019 0.817438
vt 0.888000 0.887785
vt 0.511657 0.887337
vt 0.506673 0.930501
vt 0.506649 0.887365
vt 0.850648 0.891201
vt 0.850671 0.934337
vt 0.845664 0.934365
vt 0.909020 0.670656
vt 0.913784 0.740843
vt 0.909020 0.740678
vt 0.882984 0.887781
vt 0.845640 0.891229
vt 0.511680 0.930473
vt 0.115970 0.645653
vt 0.158998 0.645622
vt 0.159007 0.716072
vt 0.913808 0.670496
vt 0.115978 0.716103
vt 0.723759 0.810492
vt 0.761488 0.875858
vt 0.723763 0.875958
vt 0.115932 0.805713
vt 0.154218 0.871111
vt 0.115944 0.871166
vt 0.154206 0.805658
vt 0.761468 0.810405
vt 0.940437 0.549282
vt 0.941885 0.549281
vt 0.941866 0.617056
vt 0.809187 0.878322
vt 0.810560 0.878277
vt 0.810564 0.946096
vt 0.809191 0.946141
vt 0.940450 0.617101
vt 0.949745 0.004885
vt 0.951121 0.072658
vt 0.949748 0.072704
vt 0.951117 0.004840
vt 0.930817 0.840870
vt 0.932265 0.840870
vt 0.932246 0.908645
vt 0.930830 0.908690
vt 0.941054 0.126685
vt 0.942501 0.126684
vt 0.942482 0.194459
vt 0.908929 0.881667
vt 0.910302 0.881622
vt 0.910306 0.949441
vt 0.908933 0.949487
vt 0.941066 0.194504
vt 0.918392 0.061016
vt 0.910378 0.107309
vt 0.910351 0.061046
vt 0.930812 0.963678
vt 0.930810 0.918287
vt 0.933540 0.918290
vt 0.834764 0.529539
vt 0.834753 0.537660
vt 0.832410 0.537631
vt 0.933542 0.963679
vt 0.666557 0.917558
vt 0.663829 0.963660
vt 0.663827 0.917560
vt 0.666559 0.963658
vt 0.832421 0.529510
vt 0.187734 0.877727
vt 0.179719 0.924019
vt 0.179692 0.877756
vt 0.187761 0.923990
vt 0.980157 0.652423
vt 0.977544 0.660136
vt 0.977601 0.652423
vt 0.980223 0.660161
vt 0.918419 0.107280
vt 0.540741 0.887337
vt 0.535758 0.930501
vt 0.535734 0.887365
vt 0.540765 0.930473
vt 0.248851 0.767463
vt 0.291218 0.767389
vt 0.291226 0.837838
vt 0.100431 0.843570
vt 0.105219 0.843410
vt 0.105194 0.913758
vt 0.100431 0.913593
vt 0.865545 0.892400
vt 0.860561 0.935564
vt 0.860537 0.892428
vt 0.179711 0.722501
vt 0.222739 0.722470
vt 0.222748 0.792921
vt 0.179719 0.792951
vt 0.897864 0.428081
vt 0.902860 0.498432
vt 0.897845 0.498428
vt 0.865568 0.935536
vt 0.248861 0.837912
vt 0.902880 0.428085
vt 0.676330 0.810492
vt 0.714059 0.875858
vt 0.676334 0.875958
vt 0.714039 0.810405
vt 0.179673 0.802557
vt 0.217947 0.802502
vt 0.217959 0.867955
vt 0.179685 0.868010
vt 0.897535 0.881671
vt 0.898911 0.949445
vt 0.897539 0.949490
vt 0.898907 0.881626
vt 0.941124 0.428160
vt 0.942552 0.495934
vt 0.941136 0.495979
vt 0.942571 0.428159
vt 0.929959 0.126685
vt 0.931407 0.126684
vt 0.931388 0.194459
vt 0.030357 0.882305
vt 0.031733 0.950079
vt 0.030360 0.950125
vt 0.929972 0.194504
vt 0.031729 0.882259
vt 0.941912 0.840871
vt 0.943340 0.908645
vt 0.941924 0.908690
vt 0.041180 0.882305
vt 0.042553 0.882260
vt 0.042556 0.950079
vt 0.041184 0.950125
vt 0.943359 0.840870
vt 0.920245 0.549305
vt 0.912231 0.595597
vt 0.912204 0.549334
vt 0.943010 0.963678
vt 0.943008 0.918287
vt 0.945738 0.918289
vt 0.519310 0.974459
vt 0.516696 0.982172
vt 0.516753 0.974459
vt 0.920272 0.595568
vt 0.519375 0.982197
vt 0.920488 0.484291
vt 0.920515 0.530555
vt 0.912473 0.530584
vt 0.945740 0.963678
vt 0.019660 0.915906
vt 0.016932 0.962009
vt 0.016930 0.915909
vt 0.019662 0.962006
vt 0.912446 0.484320
vt 0.976831 0.529590
vt 0.974477 0.537683
vt 0.974488 0.529562
vt 0.976820 0.537712
vt 0.116080 0.558576
vt 0.170177 0.635899
vt 0.116054 0.635983
vt 0.170172 0.558512
vt 0.873311 0.126532
vt 0.877930 0.126539
vt 0.877884 0.203783
vt 0.924288 0.322592
vt 0.919877 0.377677
vt 0.919877 0.322511
vt 0.924453 0.776035
vt 0.924453 0.831201
vt 0.920123 0.831186
vt 0.163690 0.805820
vt 0.168058 0.883088
vt 0.163690 0.883103
vt 0.920001 0.776118
vt 0.359906 0.558222
vt 0.414782 0.558205
vt 0.414785 0.635594
vt 0.359909 0.635610
vt 0.873266 0.203776
vt 0.924207 0.377692
vt 0.168110 0.805844
vt 0.179648 0.558530
vt 0.229347 0.630713
vt 0.179650 0.630730
vt 0.229344 0.558513
vt 0.179820 0.640611
vt 0.228810 0.640552
vt 0.228815 0.712751
vt 0.179795 0.712831
vt 0.929767 0.549283
vt 0.930976 0.549238
vt 0.930978 0.621548
vt 0.929770 0.621593
vt 0.919889 0.840872
vt 0.921158 0.913137
vt 0.919900 0.913182
vt 0.921174 0.840871
vt 0.597330 0.961410
vt 0.599429 0.974842
vt 0.597303 0.974816
vt 0.599451 0.961435
vt 0.560508 0.961387
vt 0.562659 0.974818
vt 0.560484 0.974793
vt 0.562684 0.961412
vt 0.584001 0.961387
vt 0.586100 0.974819
vt 0.583974 0.974793
vt 0.572250 0.961387
vt 0.574426 0.961412
vt 0.574401 0.974818
vt 0.572226 0.974793
vt 0.586122 0.961413
vt 0.719218 0.004886
vt 0.702997 0.269041
vt 0.702977 0.004883
vt 0.778739 0.264754
vt 0.778563 0.004716
vt 0.792574 0.004716
vt 0.934164 0.402564
vt 0.920028 0.418357
vt 0.920117 0.402564
vt 0.719239 0.269044
vt 0.934223 0.418377
vt 0.314775 0.919207
vt 0.314787 0.935442
vt 0.300740 0.935442
vt 0.792933 0.264756
vt 0.300746 0.919289
vt 0.769131 0.004716
vt 0.769131 0.268702
vt 0.754958 0.268701
vt 0.745245 0.004886
vt 0.729097 0.269041
vt 0.729101 0.004833
vt 0.754974 0.004716
vt 0.745266 0.269044
vt 0.875404 0.804111
vt 0.877371 0.549113
vt 0.877584 0.804151
vt 0.875115 0.549112
vt 0.877835 0.216975
vt 0.877826 0.476154
vt 0.875580 0.476076
vt 0.875549 0.217011
vt 0.902698 0.549136
vt 0.902707 0.660945
vt 0.897542 0.660946
vt 0.423673 0.889951
vt 0.423613 0.779801
vt 0.436677 0.779814
vt 0.436596 0.889990
vt 0.944014 0.405513
vt 0.948829 0.418438
vt 0.943848 0.418467
vt 0.909067 0.753501
vt 0.914174 0.753472
vt 0.914160 0.766399
vt 0.897533 0.549137
vt 0.909053 0.766427
vt 0.886182 0.004935
vt 0.873238 0.116865
vt 0.873259 0.004912
vt 0.886161 0.116888
vt 0.900845 0.004740
vt 0.895689 0.116549
vt 0.895680 0.004741
vt 0.900854 0.116548
vt 0.948845 0.405512
vt 0.865233 0.217097
vt 0.861522 0.466721
vt 0.861522 0.217190
vt 0.846527 0.206024
vt 0.846781 0.004966
vt 0.850421 0.004716
vt 0.865760 0.466192
vt 0.450351 0.543048
vt 0.809180 0.750427
vt 0.809179 0.549369
vt 0.821387 0.549114
vt 0.863747 0.004716
vt 0.859853 0.201272
vt 0.859853 0.004717
vt 0.249084 0.543246
vt 0.958403 0.405658
vt 0.963520 0.417841
vt 0.958465 0.417573
vt 0.863746 0.201022
vt 0.865259 0.549301
vt 0.861280 0.802804
vt 0.861535 0.549371
vt 0.850421 0.206029
vt 0.249036 0.289361
vt 0.249291 0.289616
vt 0.851654 0.468123
vt 0.846122 0.467868
vt 0.845867 0.467563
vt 0.845867 0.455677
vt 0.851144 0.455677
vt 0.248781 0.283829
vt 0.450606 0.289616
vt 0.226781 0.548326
vt 0.239228 0.548376
vt 0.238973 0.548631
vt 0.424230 0.563152
vt 0.436371 0.563406
vt 0.424536 0.764974
vt 0.424485 0.563406
vt 0.436483 0.558115
vt 0.436677 0.765230
vt 0.436422 0.764974
vt 0.226781 0.284390
vt 0.239203 0.284135
vt 0.897527 0.959354
vt 0.902922 0.971238
vt 0.897531 0.971238
vt 0.424424 0.770265
vt 0.436422 0.770365
vt 0.787300 0.809443
vt 0.799748 0.809461
vt 0.799491 0.809757
vt 0.836332 0.004932
vt 0.836905 0.201363
vt 0.824633 0.201520
vt 0.211662 0.289478
vt 0.010502 0.289438
vt 0.824648 0.201271
vt 0.824394 0.004716
vt 0.030353 0.959683
vt 0.035661 0.959680
vt 0.035661 0.971564
vt 0.211562 0.543229
vt 0.963817 0.405420
vt 0.820525 0.476951
vt 0.808495 0.482193
vt 0.820525 0.482214
vt 0.820780 0.477145
vt 0.820780 0.280147
vt 0.787303 0.549526
vt 0.799442 0.549332
vt 0.799748 0.549583
vt 0.820780 0.280330
vt 0.004904 0.548326
vt 0.820473 0.274879
vt 0.808589 0.280039
vt 0.808589 0.274886
vt 0.802772 0.264829
vt 0.802521 0.004716
vt 0.814458 0.004717
vt 0.814668 0.264853
vt 0.424485 0.558015
vt 0.798902 0.274957
vt 0.786850 0.539217
vt 0.786865 0.275030
vt 0.798861 0.539319
vt 0.315958 0.880492
vt 0.315962 0.909467
vt 0.300755 0.909491
vt 0.068681 0.871787
vt 0.090898 0.843366
vt 0.090844 0.871833
vt 0.068606 0.843348
vt 0.919028 0.291116
vt 0.933822 0.313010
vt 0.919028 0.313008
vt 0.027034 0.843527
vt 0.004871 0.872494
vt 0.004871 0.843507
vt 0.027034 0.872514
vt 0.933822 0.291119
vt 0.648851 0.880381
vt 0.648855 0.909357
vt 0.633648 0.909380
vt 0.633644 0.880404
vt 0.224147 0.908858
vt 0.239300 0.908858
vt 0.239300 0.930750
vt 0.224147 0.930750
vt 0.300751 0.880515
vt 0.639161 0.934245
vt 0.635537 0.932246
vt 0.633644 0.928885
vt 0.633633 0.924852
vt 0.635575 0.921112
vt 0.639128 0.919071
vt 0.643232 0.919053
vt 0.646783 0.921111
vt 0.648827 0.924670
vt 0.648645 0.928875
vt 0.646620 0.932362
vt 0.643295 0.934330
vt 0.934953 0.646363
vt 0.939588 0.631333
vt 0.943001 0.633505
vt 0.935546 0.631217
vt 0.944545 0.641325
vt 0.942403 0.644738
vt 0.944725 0.637302
vt 0.931958 0.633136
vt 0.929795 0.636625
vt 0.929763 0.640841
vt 0.931452 0.644244
vt 0.939323 0.646386
vt 0.985061 0.505535
vt 0.985281 0.519701
vt 0.984927 0.519711
vt 0.984259 0.864405
vt 0.984017 0.878316
vt 0.983827 0.864340
vt 0.983496 0.428172
vt 0.983431 0.442082
vt 0.983077 0.442082
vt 0.983063 0.428107
vt 0.985055 0.234663
vt 0.984535 0.248674
vt 0.984613 0.234663
vt 0.985054 0.248829
vt 0.984834 0.258361
vt 0.985054 0.272527
vt 0.984535 0.272372
vt 0.983496 0.475218
vt 0.983254 0.489128
vt 0.983063 0.475152
vt 0.975051 0.505687
vt 0.974853 0.519928
vt 0.974541 0.505702
vt 0.983099 0.293212
vt 0.982799 0.307351
vt 0.982577 0.293078
vt 0.983976 0.402120
vt 0.983734 0.416030
vt 0.983544 0.402055
vt 0.984940 0.322442
vt 0.985161 0.336608
vt 0.984641 0.336453
vt 0.985478 0.806061
vt 0.985698 0.820227
vt 0.985179 0.820072
vt 0.983978 0.916006
vt 0.983737 0.929916
vt 0.983546 0.915941
vt 0.708451 0.963237
vt 0.711224 0.963215
vt 0.711237 0.975246
vt 0.708463 0.975267
vt 0.676186 0.963234
vt 0.679016 0.975246
vt 0.676199 0.975265
vt 0.679003 0.963215
vt 0.082611 0.945332
vt 0.082645 0.964870
vt 0.080301 0.964870
vt 0.593974 0.270105
vt 0.591878 0.272506
vt 0.591696 0.270066
vt 0.303447 0.964692
vt 0.300800 0.945109
vt 0.303413 0.945074
vt 0.593824 0.272506
vt 0.972890 0.292957
vt 0.970580 0.312044
vt 0.970546 0.292958
vt 0.846194 0.793375
vt 0.848808 0.793340
vt 0.848842 0.812958
vt 0.846228 0.812992
vt 0.080357 0.945299
vt 0.918300 0.198182
vt 0.916355 0.200407
vt 0.916355 0.198182
vt 0.918300 0.200407
vt 0.972834 0.312083
vt 0.300833 0.964726
vt 0.605826 0.270105
vt 0.603730 0.272505
vt 0.603548 0.270066
vt 0.605676 0.272506
vt 0.070836 0.945332
vt 0.070870 0.964870
vt 0.068526 0.964870
vt 0.212156 0.964740
vt 0.209508 0.945157
vt 0.212122 0.945122
vt 0.095528 0.949999
vt 0.093219 0.969086
vt 0.093185 0.950000
vt 0.831118 0.944232
vt 0.833731 0.944197
vt 0.833765 0.963815
vt 0.599187 0.984473
vt 0.597241 0.986698
vt 0.597241 0.984473
vt 0.599187 0.986698
vt 0.068582 0.945299
vt 0.831151 0.963849
vt 0.095472 0.969125
vt 0.209542 0.964774
vt 0.412517 0.904199
vt 0.427669 0.904199
vt 0.427669 0.926091
vt 0.399775 0.880489
vt 0.384572 0.909488
vt 0.384568 0.880512
vt 0.412517 0.926091
vt 0.248936 0.875840
vt 0.271153 0.847418
vt 0.271098 0.875886
vt 0.399778 0.909464
vt 0.334907 0.914858
vt 0.349701 0.914861
vt 0.349701 0.936752
vt 0.058939 0.843527
vt 0.036776 0.872494
vt 0.036777 0.843507
vt 0.375111 0.880488
vt 0.375114 0.909464
vt 0.359908 0.909487
vt 0.058939 0.872514
vt 0.334907 0.936749
vt 0.359904 0.880511
vt 0.248861 0.847400
vt 0.365421 0.934351
vt 0.359903 0.928992
vt 0.359893 0.924959
vt 0.361797 0.932352
vt 0.361835 0.921218
vt 0.365388 0.919178
vt 0.373043 0.921218
vt 0.375087 0.924777
vt 0.369492 0.919160
vt 0.372879 0.932469
vt 0.369554 0.934437
vt 0.374905 0.928981
vt 0.933100 0.101966
vt 0.937735 0.086937
vt 0.941148 0.089108
vt 0.942872 0.092905
vt 0.927910 0.096444
vt 0.927942 0.092228
vt 0.929599 0.099848
vt 0.940550 0.100342
vt 0.937470 0.101990
vt 0.942692 0.096929
vt 0.933692 0.086820
vt 0.930105 0.088739
vt 0.920555 0.971077
vt 0.920313 0.984987
vt 0.920122 0.971012
vt 0.985689 0.694099
vt 0.985910 0.708266
vt 0.985391 0.708111
vt 0.983496 0.451695
vt 0.983077 0.465605
vt 0.983063 0.451630
vt 0.983431 0.465605
vt 0.985699 0.758665
vt 0.985344 0.772841
vt 0.985257 0.758665
vt 0.985698 0.772831
vt 0.983978 0.939529
vt 0.983737 0.953439
vt 0.983546 0.939464
vt 0.985478 0.782363
vt 0.985698 0.796529
vt 0.985344 0.796539
vt 0.765008 0.963170
vt 0.764726 0.977326
vt 0.764498 0.963185
vt 0.983516 0.126771
vt 0.983216 0.140910
vt 0.982994 0.126637
vt 0.983978 0.963052
vt 0.983737 0.976962
vt 0.983546 0.962987
vt 0.984940 0.369838
vt 0.985161 0.384004
vt 0.984806 0.384014
vt 0.985689 0.670401
vt 0.985910 0.684568
vt 0.985556 0.684578
vt 0.984259 0.840883
vt 0.984017 0.854793
vt 0.983827 0.840817
vt 0.608991 0.961428
vt 0.611821 0.973440
vt 0.609004 0.973459
vt 0.611809 0.961409
vt 0.688567 0.963236
vt 0.691352 0.975245
vt 0.688578 0.975266
vt 0.691339 0.963214
vt 0.334539 0.842724
vt 0.337152 0.842690
vt 0.337186 0.862308
vt 0.617678 0.270105
vt 0.615582 0.272505
vt 0.615400 0.270066
vt 0.617527 0.272506
vt 0.811523 0.955697
vt 0.809214 0.974783
vt 0.809179 0.955697
vt 0.337216 0.946417
vt 0.337250 0.965955
vt 0.334907 0.965955
vt 0.199958 0.964740
vt 0.197311 0.945157
vt 0.199925 0.945122
vt 0.571983 0.984450
vt 0.570038 0.986675
vt 0.570038 0.984450
vt 0.571983 0.986675
vt 0.334963 0.946383
vt 0.334572 0.862342
vt 0.811467 0.974823
vt 0.197344 0.964774
vt 0.629530 0.270105
vt 0.627433 0.272505
vt 0.627251 0.270066
vt 0.349026 0.946184
vt 0.346716 0.965270
vt 0.346682 0.946184
vt 0.958408 0.293192
vt 0.961022 0.293158
vt 0.961055 0.312775
vt 0.629379 0.272506
vt 0.862807 0.945429
vt 0.862841 0.964967
vt 0.860497 0.964967
vt 0.845962 0.963814
vt 0.843315 0.944232
vt 0.845929 0.944197
vt 0.958441 0.312810
vt 0.586168 0.984450
vt 0.584223 0.986675
vt 0.584223 0.984450
vt 0.586168 0.986675
vt 0.860553 0.945395
vt 0.843349 0.963849
vt 0.348970 0.965310
vt 0.493952 0.273373
vt 0.492863 0.271829
vt 0.494512 0.270123
vt 0.225976 0.964859
vt 0.224201 0.965027
vt 0.224147 0.940447
vt 0.518366 0.964916
vt 0.517233 0.940217
vt 0.518988 0.940316
vt 0.792702 0.965518
vt 0.791082 0.965418
vt 0.791608 0.940795
vt 0.496070 0.270965
vt 0.495667 0.272927
vt 0.967838 0.653109
vt 0.966543 0.628725
vt 0.967909 0.628587
vt 0.966439 0.653247
vt 0.516650 0.964772
vt 0.531958 0.270140
vt 0.531835 0.273367
vt 0.530865 0.271749
vt 0.225860 0.940431
vt 0.533728 0.272889
vt 0.361399 0.968549
vt 0.360175 0.944078
vt 0.361512 0.943999
vt 0.360056 0.968547
vt 0.793283 0.940962
vt 0.533624 0.270544
vt 0.506621 0.273373
vt 0.508739 0.270965
vt 0.508336 0.272927
vt 0.505532 0.271829
vt 0.507181 0.270123
vt 0.650155 0.968440
vt 0.648860 0.944057
vt 0.650226 0.943918
vt 0.648755 0.968578
vt 0.530349 0.964916
vt 0.528633 0.964772
vt 0.529215 0.940217
vt 0.781052 0.965518
vt 0.779432 0.965418
vt 0.779958 0.940795
vt 0.372604 0.968549
vt 0.371380 0.944078
vt 0.372717 0.943999
vt 0.371261 0.968547
vt 0.519289 0.270140
vt 0.520956 0.270544
vt 0.521059 0.272889
vt 0.519166 0.273367
vt 0.518197 0.271749
vt 0.781633 0.940962
vt 0.237857 0.964859
vt 0.236029 0.940447
vt 0.237742 0.940431
vt 0.236082 0.965027
vt 0.530971 0.940316
vt 0.846179 0.481104
vt 0.861155 0.481132
vt 0.861142 0.539479
vt 0.779520 0.819735
vt 0.799698 0.878026
vt 0.779525 0.878076
vt 0.799680 0.819690
vt 0.212041 0.915319
vt 0.197251 0.935490
vt 0.197251 0.915319
vt 0.846165 0.539451
vt 0.083316 0.915496
vt 0.068526 0.935667
vt 0.068526 0.915496
vt 0.083316 0.935667
vt 0.633735 0.812208
vt 0.654276 0.870523
vt 0.633750 0.870551
vt 0.654261 0.812180
vt 0.831121 0.822989
vt 0.845738 0.823020
vt 0.845731 0.881366
vt 0.212041 0.935490
vt 0.831102 0.881336
vt 0.334937 0.873078
vt 0.350165 0.873003
vt 0.350192 0.905262
vt 0.870670 0.507329
vt 0.886146 0.507270
vt 0.886164 0.539530
vt 0.870688 0.539589
vt 0.334945 0.905337
vt 0.334970 0.975584
vt 0.337195 0.980025
vt 0.334975 0.980046
vt 0.337188 0.975572
vt 0.940059 0.111712
vt 0.942403 0.116158
vt 0.940068 0.116173
vt 0.942395 0.111697
vt 0.648718 0.978324
vt 0.650936 0.978312
vt 0.650943 0.982766
vt 0.648723 0.982786
vt 0.920001 0.387390
vt 0.922345 0.391837
vt 0.920010 0.391852
vt 0.922337 0.387375
vt 0.093308 0.978992
vt 0.095533 0.983433
vt 0.093313 0.983454
vt 0.095526 0.978980
vt 0.779540 0.975231
vt 0.781883 0.979678
vt 0.779548 0.979693
vt 0.781875 0.975216
vt 0.311003 0.976976
vt 0.313221 0.976963
vt 0.313228 0.981417
vt 0.311008 0.981438
vt 0.928035 0.111712
vt 0.930378 0.116158
vt 0.928043 0.116173
vt 0.930370 0.111697
vt 0.371852 0.978432
vt 0.374077 0.982873
vt 0.371856 0.982893
vt 0.374070 0.978419
vt 0.929888 0.656108
vt 0.932231 0.660555
vt 0.929896 0.660570
vt 0.932223 0.656093
vt 0.141527 0.979967
vt 0.143752 0.984409
vt 0.141531 0.984430
vt 0.143745 0.979955
vt 0.941912 0.656108
vt 0.944248 0.656093
vt 0.944256 0.660555
vt 0.941921 0.660570
vt 0.930130 0.532460
vt 0.932465 0.532445
vt 0.932473 0.536907
vt 0.930138 0.536922
vt 0.791563 0.975232
vt 0.793789 0.979673
vt 0.791568 0.979693
vt 0.793781 0.975219
vt 0.360016 0.978431
vt 0.362242 0.982873
vt 0.360021 0.982894
vt 0.362234 0.978419
vt 0.934189 0.748142
vt 0.936532 0.752589
vt 0.934197 0.752604
vt 0.936524 0.748127
vt 0.394896 0.978876
vt 0.397122 0.983318
vt 0.394901 0.983338
vt 0.397114 0.978864
vt 0.346807 0.975176
vt 0.349142 0.975161
vt 0.349150 0.979623
vt 0.346815 0.979638
vt 0.300916 0.842724
vt 0.325025 0.870641
vt 0.300904 0.870687
vt 0.115892 0.880691
vt 0.131810 0.908568
vt 0.115913 0.908520
vt 0.020917 0.882136
vt 0.020917 0.906443
vt 0.004716 0.906443
vt 0.325013 0.842654
vt 0.197260 0.877717
vt 0.213487 0.877757
vt 0.213485 0.905704
vt 0.004716 0.882136
vt 0.197257 0.905665
vt 0.808501 0.491863
vt 0.833060 0.519794
vt 0.808496 0.519827
vt 0.084747 0.881463
vt 0.084761 0.905986
vt 0.068534 0.905950
vt 0.131748 0.880694
vt 0.833065 0.491830
vt 0.068545 0.881463
vt 0.048307 0.959894
vt 0.045156 0.971569
vt 0.045166 0.959878
vt 0.048296 0.971585
vt 0.720799 0.974429
vt 0.724013 0.963020
vt 0.723939 0.974449
vt 0.720736 0.963017
vt 0.899003 0.871856
vt 0.897581 0.872012
vt 0.897527 0.776208
vt 0.898861 0.776204
vt 0.543805 0.271867
vt 0.544881 0.270123
vt 0.545879 0.271929
vt 0.665109 0.907840
vt 0.664075 0.812232
vt 0.665180 0.812094
vt 0.663971 0.907978
vt 0.910178 0.418305
vt 0.909093 0.418303
vt 0.909212 0.322612
vt 0.581453 0.270362
vt 0.581932 0.272353
vt 0.579848 0.271793
vt 0.910292 0.322532
vt 0.899246 0.312796
vt 0.897823 0.312951
vt 0.897769 0.217147
vt 0.899103 0.217144
vt 0.555835 0.271867
vt 0.556911 0.270123
vt 0.557909 0.271929
vt 0.169816 0.741458
vt 0.168781 0.645851
vt 0.169887 0.645712
vt 0.168677 0.741596
vt 0.910169 0.871814
vt 0.909203 0.776121
vt 0.910283 0.776041
vt 0.909084 0.871812
vt 0.569366 0.270386
vt 0.569750 0.272416
vt 0.567818 0.271793
vt 0.916452 0.126622
vt 0.920406 0.188644
vt 0.916426 0.188625
vt 0.899645 0.512227
vt 0.899670 0.539442
vt 0.895708 0.539474
vt 0.560529 0.812076
vt 0.587687 0.812027
vt 0.587709 0.874114
vt 0.920432 0.126641
vt 0.895683 0.512259
vt 0.560550 0.874163
vt 0.955165 0.505741
vt 0.951229 0.532989
vt 0.951203 0.505774
vt 0.919028 0.211394
vt 0.922775 0.273268
vt 0.919028 0.273119
vt 0.922802 0.211265
vt 0.597335 0.812102
vt 0.624075 0.812025
vt 0.624096 0.874111
vt 0.597356 0.874188
vt 0.955190 0.532956
vt 0.147049 0.958359
vt 0.141421 0.970214
vt 0.141416 0.958331
vt 0.147053 0.970242
vt 0.943253 0.296334
vt 0.948917 0.296334
vt 0.948917 0.313010
vt 0.943253 0.313010
vt 0.930151 0.505753
vt 0.941699 0.522620
vt 0.930150 0.522652
vt 0.941687 0.505707
vt 0.876262 0.485768
vt 0.870635 0.497623
vt 0.870630 0.485740
vt 0.876267 0.497651
vt 0.093329 0.923487
vt 0.105138 0.923460
vt 0.105141 0.940360
vt 0.633633 0.943801
vt 0.639163 0.943802
vt 0.639163 0.960479
vt 0.633633 0.960478
vt 0.093333 0.940387
vt 0.993868 0.902988
vt 0.992649 0.618650
vt 0.105275 0.994394
vt 0.115892 0.993919
vt 0.325431 0.880848
vt 0.217127 0.284215
vt 0.238973 0.558318
vt 0.249036 0.548324
vt 0.861522 0.216939
vt 0.861280 0.549117
vt 0.958324 0.417843
vt 0.412770 0.645236
vt 0.010502 0.289362
vt 0.836703 0.549371
vt 0.676400 0.989069
vt 0.529127 0.986651
vt 0.824904 0.201550
vt 0.105281 0.978899
vt 0.384806 0.984484
vt 0.068975 0.986756
vt 0.450605 0.543303
vt 0.821627 0.750683
vt 0.821371 0.549369
vt 0.239228 0.284135
vt 0.227087 0.548631
vt 0.030349 0.971569
vt 0.030649 0.971875
vt 0.902922 0.959352
vt 0.902616 0.959046
vt 0.787605 0.809744
vt 0.787556 0.549319
vt 0.808334 0.280205
vt 0.820755 0.280147
s 1
usemtl shop_001_baked
f 1/1/1 2/2/1 3/3/1
f 1/1/1 3/3/1 4/4/1
f 195/5/2 197/6/2 194/7/2
f 201/8/3 203/9/3 204/10/3
f 208/11/4 210/12/4 207/13/4
f 211/14/5 213/15/5 214/16/5
f 216/17/6 218/18/6 219/19/6
f 220/20/7 222/21/7 223/22/7
f 229/23/8 230/24/8 231/25/8
f 232/26/9 234/27/9 235/28/9
f 236/29/10 238/30/11 239/31/12
f 242/32/13 244/33/13 245/34/13
f 250/35/14 251/36/14 249/37/14
f 253/38/15 255/39/15 252/40/15
f 241/41/16 239/42/12 240/43/17
f 219/44/18 204/45/18 216/46/18
f 198/47/19 205/48/20 206/49/21
f 220/20/22 207/13/22 210/12/22
f 252/50/23 203/51/23 202/52/23
f 229/23/24 232/53/24 235/54/24
f 232/53/25 242/32/25 233/55/25
f 193/56/26 199/57/27 200/58/28
f 223/59/29 197/60/29 196/61/29
f 244/33/30 224/62/30 245/34/30
f 211/63/31 208/11/31 207/13/31
f 237/64/32 194/65/32 238/30/32
f 226/66/33 235/54/33 234/53/33
f 212/67/34 255/68/35 254/69/36
f 251/36/37 247/70/38 229/23/39
f 205/71/40 195/72/40 206/73/40
f 225/74/41 220/75/41 224/76/41
f 241/77/42 234/78/42 233/79/42
f 213/80/43 217/81/43 214/82/43
f 230/24/44 228/83/44 231/25/44
f 237/84/45 253/38/15 252/40/15
f 239/31/46 210/12/47 209/85/48
f 199/86/49 218/87/49 200/88/49
f 242/32/50 250/35/50 249/37/50
f 227/89/51 201/90/51 228/91/51
f 243/92/52 246/93/53 244/33/54
f 10/94/55 5/95/56 9/96/57
f 10/94/55 7/97/58 5/95/56
f 9/98/57 5/99/56 6/100/59
f 5/101/56 7/102/58 12/103/60
f 5/101/56 12/103/60 6/104/59
f 9/98/57 6/100/59 11/105/61
f 11/106/61 6/107/59 12/108/60
f 7/109/58 8/110/62 12/111/60
f 7/109/58 10/112/55 8/110/62
f 10/113/55 11/114/61 8/115/62
f 11/106/61 12/108/60 8/116/62
f 10/113/55 9/117/57 11/114/61
f 18/118/63 13/119/64 19/120/65
f 17/121/66 20/122/67 13/123/64
f 17/121/66 13/123/64 18/124/63
f 20/125/67 19/126/65 13/127/64
f 14/128/68 15/129/69 19/130/65
f 14/128/68 16/131/70 15/129/69
f 20/125/67 14/132/68 19/126/65
f 16/133/70 14/134/68 20/135/67
f 16/136/70 18/137/63 15/138/69
f 18/118/63 19/120/65 15/139/69
f 16/133/70 20/135/67 17/140/66
f 16/136/70 17/141/66 18/137/63
f 25/142/71 21/143/72 26/144/73
f 26/145/73 21/146/72 23/147/74
f 25/142/71 27/148/75 21/143/72
f 27/149/75 23/150/74 21/151/72
f 27/149/75 22/152/76 23/150/74
f 22/153/76 24/154/77 28/155/78
f 22/153/76 28/155/78 23/156/74
f 24/157/77 22/158/76 27/159/75
f 26/145/73 23/147/74 28/160/78
f 24/161/77 26/162/73 28/163/78
f 24/161/77 25/164/71 26/162/73
f 24/157/77 27/159/75 25/165/71
f 29/166/79 32/167/80 31/168/81
f 29/166/79 31/168/81 30/169/82
f 32/170/80 30/171/82 31/172/81
f 32/170/80 29/173/79 30/171/82
f 35/174/83 33/175/84 34/176/85
f 33/177/84 36/178/86 34/179/85
f 33/177/84 35/180/83 36/178/86
f 35/174/83 34/176/85 36/181/86
f 39/182/83 37/183/84 38/184/85
f 37/185/84 40/186/86 38/187/85
f 37/185/84 39/188/83 40/186/86
f 39/182/83 38/184/85 40/189/86
f 43/190/83 41/191/84 42/192/85
f 41/193/84 44/194/86 42/195/85
f 41/193/84 43/196/83 44/194/86
f 43/190/83 42/192/85 44/197/86
f 45/198/87 48/199/88 46/200/89
f 45/198/87 50/201/90 48/199/88
f 51/202/91 45/203/87 46/204/89
f 50/205/92 45/206/93 51/207/94
f 51/202/91 46/204/89 49/208/95
f 47/209/96 49/210/97 46/211/98
f 47/209/96 46/211/98 48/212/99
f 50/213/90 47/214/100 48/215/88
f 50/213/90 52/216/101 47/214/100
f 52/217/101 49/218/95 47/219/100
f 52/217/101 51/220/91 49/218/95
f 50/205/92 51/207/94 52/221/102
f 53/222/75 57/223/74 54/224/72
f 55/225/71 53/226/75 54/227/72
f 58/228/77 53/229/75 55/230/71
f 58/228/77 56/231/76 53/229/75
f 53/222/75 56/232/76 57/223/74
f 55/225/71 54/227/72 59/233/73
f 59/234/73 54/235/72 57/236/74
f 58/237/77 55/238/71 59/239/73
f 56/240/76 58/241/77 60/242/78
f 56/240/76 60/242/78 57/243/74
f 59/234/73 57/236/74 60/244/78
f 58/237/77 59/239/73 60/245/78
f 63/246/79 62/247/103 61/248/81
f 63/246/79 61/248/81 64/249/104
f 62/250/103 64/251/104 61/252/81
f 62/250/103 63/253/79 64/251/104
f 67/254/105 65/255/106 66/256/107
f 67/254/105 66/256/107 68/257/108
f 65/258/106 67/259/105 68/260/108
f 65/258/106 68/260/108 66/261/107
f 72/262/84 70/263/86 69/264/85
f 71/265/83 69/266/85 70/267/86
f 71/265/83 72/268/84 69/266/85
f 72/262/84 71/269/83 70/263/86
f 74/270/83 76/271/84 73/272/85
f 74/270/83 73/272/85 75/273/86
f 76/274/84 74/275/83 75/276/86
f 76/274/84 75/276/86 73/277/85
f 77/278/101 79/279/95 84/280/100
f 77/278/101 78/281/91 79/279/95
f 83/282/92 78/283/94 77/284/102
f 83/285/90 77/286/101 84/287/100
f 78/288/91 82/289/89 79/290/95
f 83/282/92 80/291/93 78/283/94
f 78/288/91 80/292/87 82/289/89
f 84/293/96 79/294/97 82/295/98
f 80/296/87 81/297/88 82/298/89
f 80/296/87 83/299/90 81/297/88
f 83/285/90 84/287/100 81/300/88
f 84/293/96 82/295/98 81/301/99
f 85/302/71 86/303/72 87/304/73
f 85/302/71 91/305/75 86/303/72
f 90/306/77 85/307/71 87/308/73
f 90/309/77 91/310/75 85/311/71
f 87/312/73 86/313/72 92/314/74
f 91/315/75 92/316/74 86/317/72
f 90/306/77 87/308/73 89/318/78
f 87/312/73 92/314/74 89/319/78
f 90/309/77 88/320/76 91/310/75
f 88/321/76 90/322/77 89/323/78
f 91/315/75 88/324/76 92/316/74
f 88/321/76 89/323/78 92/325/74
f 95/326/79 96/327/81 93/328/104
f 94/329/103 93/330/104 96/331/81
f 94/329/103 95/332/79 93/330/104
f 95/326/79 94/333/103 96/327/81
f 100/334/84 97/335/83 99/336/86
f 97/337/83 100/338/84 98/339/85
f 97/337/83 98/339/85 99/340/86
f 100/334/84 99/336/86 98/341/85
f 103/342/83 104/343/85 101/344/86
f 103/342/83 102/345/84 104/343/85
f 102/346/84 103/347/83 101/348/86
f 102/346/84 101/348/86 104/349/85
f 106/350/84 105/351/83 108/352/86
f 105/353/83 106/354/84 107/355/85
f 105/353/83 107/355/85 108/356/86
f 106/350/84 108/352/86 107/357/85
f 115/358/92 113/359/94 109/360/102
f 109/361/101 113/362/91 116/363/95
f 115/364/90 109/365/101 111/366/100
f 109/361/101 116/363/95 111/367/100
f 114/368/87 110/369/88 112/370/89
f 114/368/87 115/371/90 110/369/88
f 115/364/90 111/366/100 110/372/88
f 111/373/96 112/374/98 110/375/99
f 111/373/96 116/376/97 112/374/98
f 113/377/91 112/378/89 116/379/95
f 113/377/91 114/380/87 112/378/89
f 115/358/92 114/381/93 113/359/94
f 122/382/77 117/383/75 121/384/71
f 122/382/77 119/385/76 117/383/75
f 121/386/71 117/387/75 124/388/72
f 117/389/75 119/390/76 120/391/74
f 117/389/75 120/391/74 124/392/72
f 123/393/73 120/394/74 118/395/78
f 119/396/76 122/397/77 118/398/78
f 119/396/76 118/398/78 120/399/74
f 122/400/77 123/401/73 118/402/78
f 123/393/73 124/403/72 120/394/74
f 121/386/71 124/388/72 123/404/73
f 122/400/77 121/405/71 123/401/73
f 125/406/109 126/407/110 128/408/111
f 125/406/109 127/409/80 126/407/110
f 127/410/80 125/411/109 128/412/111
f 127/410/80 128/412/111 126/413/110
f 130/414/83 131/415/85 129/416/86
f 130/414/83 132/417/84 131/415/85
f 132/418/84 129/419/86 131/420/85
f 132/418/84 130/421/83 129/419/86
f 135/422/84 133/423/83 134/424/86
f 133/425/83 136/426/85 134/427/86
f 135/422/84 134/424/86 136/428/85
f 133/425/83 135/429/84 136/426/85
f 140/430/84 139/431/86 137/432/85
f 138/433/83 140/434/84 137/435/85
f 138/433/83 137/435/85 139/436/86
f 140/430/84 138/437/83 139/431/86
f 145/438/92 141/439/94 146/440/102
f 146/441/101 141/442/91 142/443/95
f 141/444/91 144/445/89 142/446/95
f 145/438/92 143/447/93 141/439/94
f 141/444/91 143/448/87 144/445/89
f 147/449/96 142/450/97 144/451/98
f 146/441/101 142/443/95 147/452/100
f 143/453/87 148/454/88 144/455/89
f 143/453/87 145/456/90 148/454/88
f 147/449/96 144/451/98 148/457/99
f 145/458/90 147/459/100 148/460/88
f 145/458/90 146/461/101 147/459/100
f 149/462/112 150/463/113 153/464/114
f 149/462/112 156/465/115 150/463/113
f 152/466/116 149/467/112 153/468/114
f 152/469/116 156/470/115 149/471/112
f 153/472/114 150/473/113 155/474/117
f 156/475/115 155/476/117 150/477/113
f 153/472/114 155/474/117 151/478/118
f 154/479/119 152/480/116 151/481/118
f 154/479/119 151/481/118 155/482/117
f 152/466/116 153/468/114 151/483/118
f 152/469/116 154/484/119 156/470/115
f 156/475/115 154/485/119 155/476/117
f 157/486/120 158/487/121 159/488/122
f 157/486/120 160/489/123 158/487/121
f 160/490/123 157/491/120 159/492/122
f 160/490/123 159/492/122 158/493/121
f 164/494/124 161/495/125 162/496/126
f 164/494/124 162/496/126 163/497/127
f 161/498/125 163/499/127 162/500/126
f 161/498/125 164/501/124 163/499/127
f 167/502/128 168/503/129 165/504/130
f 167/502/128 166/505/131 168/503/129
f 166/506/131 165/507/130 168/508/129
f 166/506/131 167/509/128 165/507/130
f 171/510/128 170/511/129 169/512/130
f 172/513/131 171/514/128 169/515/130
f 172/513/131 169/515/130 170/516/129
f 171/510/128 172/517/131 170/511/129
f 175/518/132 173/519/133 174/520/134
f 174/521/134 173/522/133 178/523/135
f 173/524/133 180/525/136 178/526/135
f 175/518/132 177/527/137 173/519/133
f 173/524/133 177/528/137 180/525/136
f 175/529/132 174/530/134 179/531/138
f 174/521/134 178/523/135 179/532/138
f 175/529/132 179/531/138 176/533/139
f 177/534/137 175/535/132 176/536/139
f 179/537/138 180/538/136 176/539/139
f 177/534/137 176/536/139 180/540/136
f 179/537/138 178/541/135 180/538/136
f 183/542/140 181/543/141 182/544/142
f 183/542/140 184/545/143 181/543/141
f 184/546/143 183/547/140 182/548/142
f 184/546/143 182/548/142 181/549/141
f 186/550/144 185/551/145 192/552/146
f 189/553/147 190/554/148 185/555/149
f 189/553/147 185/555/149 186/556/150
f 190/557/151 192/558/146 185/559/145
f 188/560/152 189/561/153 186/562/144
f 186/550/144 192/552/146 187/563/154
f 188/560/152 186/562/144 187/564/154
f 191/565/155 187/566/156 192/567/157
f 191/565/155 188/568/158 187/566/156
f 188/569/152 190/570/151 189/571/153
f 188/569/152 191/572/159 190/570/151
f 190/557/151 191/573/159 192/558/146
f 193/574/160 196/575/161 222/576/162
f 199/577/27 193/578/26 221/579/163
f 200/58/164 206/49/165 193/56/160
f 193/574/160 206/580/165 196/575/161
f 195/581/166 237/64/166 252/50/166
f 227/582/167 226/583/168 197/584/169
f 205/585/20 203/586/170 195/587/171
f 195/581/172 202/52/172 201/588/172
f 195/581/166 252/50/166 203/51/166
f 226/589/173 238/590/173 194/591/173
f 200/58/164 198/47/174 206/49/165
f 205/585/20 198/592/19 203/586/170
f 198/593/174 219/594/175 204/595/176
f 198/593/174 200/88/164 219/594/175
f 199/577/27 221/579/163 218/596/177
f 201/588/178 219/597/178 218/598/178
f 202/599/179 255/600/179 253/601/179
f 230/602/179 228/603/179 202/599/179
f 207/13/166 218/598/166 214/604/166
f 207/13/180 221/605/180 218/598/180
f 210/606/181 242/607/181 244/608/181
f 245/609/182 208/610/182 250/611/182
f 244/612/183 209/613/183 208/610/183
f 250/611/5 214/614/5 213/615/5
f 210/606/179 238/616/179 234/617/179
f 215/618/184 213/619/185 217/620/186
f 248/621/187 213/615/188 212/622/34
f 251/623/189 211/624/189 213/625/189
f 248/621/190 250/611/190 213/615/190
f 225/626/191 215/627/192 216/628/193
f 249/37/194 215/629/192 225/630/191
f 216/628/177 218/631/177 221/632/177
f 244/633/1 224/634/1 220/635/1
f 249/37/195 225/630/195 245/34/195
f 227/636/167 235/54/196 226/66/168
f 226/589/197 234/637/197 238/590/197
f 227/636/167 231/25/198 235/54/196
f 230/638/199 254/639/199 253/38/199
f 230/638/200 247/640/38 254/639/36
f 231/641/201 253/38/202 232/642/203
f 229/643/204 253/644/204 255/645/204
f 233/646/205 232/642/205 237/84/205
f 243/92/206 233/55/206 240/647/206
f 241/648/16 236/649/10 239/650/12
f 246/651/53 240/652/207 239/653/46
f 243/92/52 240/647/207 246/93/53
f 246/651/53 239/653/46 209/654/48
f 244/612/208 246/655/53 209/613/48
f 247/656/38 212/657/34 254/658/36
f 247/656/38 248/659/187 212/657/34
f 261/660/209 256/661/210 262/662/211
f 260/663/212 256/664/210 261/665/209
f 260/663/212 258/666/213 256/664/210
f 258/667/213 262/668/211 256/669/210
f 257/670/214 263/671/215 262/672/211
f 257/670/214 259/673/216 263/671/215
f 258/667/213 257/674/214 262/668/211
f 259/675/216 257/676/214 258/677/213
f 259/675/216 258/677/213 260/678/212
f 259/679/216 260/680/212 261/681/209
f 259/679/216 261/681/209 263/682/215
f 261/660/209 262/662/211 263/683/215
f 267/684/217 275/685/218 264/686/219
f 267/684/217 264/686/219 265/687/220
f 267/684/217 265/687/220 274/688/221
f 267/684/217 274/688/221 266/689/222
f 267/684/217 266/689/222 269/690/223
f 267/684/217 269/690/223 273/691/224
f 267/684/217 272/692/225 271/693/226
f 267/684/217 273/691/224 272/692/225
f 267/684/217 270/694/227 268/695/228
f 267/684/217 271/693/226 270/694/227
f 268/696/228 266/697/222 274/698/221
f 268/696/228 269/699/223 266/697/222
f 268/696/228 264/700/219 275/701/218
f 268/696/228 265/702/220 264/700/219
f 268/696/228 273/703/224 269/699/223
f 268/696/228 272/704/225 273/703/224
f 268/696/228 274/698/221 265/702/220
f 268/696/228 271/705/226 272/704/225
f 268/696/228 270/706/227 271/705/226
f 268/696/228 275/701/218 267/707/217
f 277/708/229 278/709/229 276/710/229
f 278/711/229 277/712/229 276/713/229
f 282/714/230 279/715/231 280/716/232
f 282/714/230 280/716/232 281/717/233
f 279/718/231 281/719/233 280/720/232
f 279/718/231 282/721/230 281/719/233
f 283/722/24 284/723/24 285/724/24
f 284/725/24 283/726/24 285/727/24
f 287/728/229 288/729/229 286/730/229
f 286/731/229 288/732/229 287/733/229
f 289/734/229 290/735/229 291/736/229
f 290/737/229 289/738/229 291/739/229
f 294/740/229 292/741/229 293/742/229
f 292/743/229 294/744/229 293/745/229
f 295/746/234 296/747/235 298/748/236
f 295/746/234 298/748/236 297/749/237
f 296/750/235 297/751/237 298/752/236
f 296/750/235 295/753/234 297/751/237
f 306/754/238 299/755/239 301/756/240
f 299/757/239 300/758/241 301/759/240
f 306/760/238 304/761/242 299/762/239
f 299/757/239 304/763/242 300/758/241
f 304/764/242 303/765/243 300/766/241
f 301/767/240 300/768/241 303/769/243
f 301/767/240 303/769/243 302/770/244
f 306/754/238 301/756/240 302/771/244
f 305/772/245 302/773/244 303/774/243
f 305/772/245 306/775/238 302/773/244
f 304/764/242 305/776/245 303/765/243
f 306/760/238 305/777/245 304/761/242
f 307/778/239 308/779/241 311/780/246
f 307/778/239 314/781/242 308/779/241
f 312/782/238 307/783/239 311/784/246
f 312/785/238 314/786/242 307/787/239
f 314/788/242 310/789/243 308/790/241
f 311/791/246 308/792/241 310/793/243
f 313/794/245 309/795/244 310/796/243
f 313/794/245 312/797/238 309/795/244
f 312/782/238 311/784/246 309/798/244
f 311/791/246 310/793/243 309/799/244
f 314/788/242 313/800/245 310/789/243
f 312/785/238 313/801/245 314/786/242
f 319/802/216 321/803/212 315/804/209
f 315/805/209 318/806/211 317/807/215
f 319/802/216 315/804/209 317/808/215
f 321/809/212 322/810/210 315/811/209
f 315/805/209 322/812/210 318/806/211
f 320/813/213 316/814/214 318/815/211
f 316/816/214 317/817/215 318/818/211
f 319/819/216 316/820/214 320/821/213
f 316/816/214 319/822/216 317/817/215
f 320/813/213 318/815/211 322/823/210
f 319/819/216 320/821/213 321/824/212
f 321/809/212 320/825/213 322/810/210
f 333/826/217 332/827/219 331/828/220
f 333/826/217 334/829/218 332/827/219
f 333/826/217 324/830/247 330/831/222
f 333/826/217 331/828/220 324/830/247
f 333/826/217 329/832/224 327/833/225
f 333/826/217 328/834/248 329/832/224
f 333/826/217 323/835/227 325/836/228
f 333/826/217 326/837/226 323/835/227
f 333/826/217 330/831/222 328/834/248
f 333/826/217 327/833/225 326/837/226
f 325/838/228 330/839/222 324/840/247
f 325/838/228 324/840/247 331/841/220
f 325/838/228 326/842/226 327/843/225
f 325/838/228 323/844/227 326/842/226
f 325/838/228 334/845/218 333/846/217
f 325/838/228 332/847/219 334/845/218
f 325/838/228 328/848/248 330/839/222
f 325/838/228 329/849/224 328/848/248
f 325/838/228 331/841/220 332/847/219
f 325/838/228 327/843/225 329/849/224
f 335/850/166 337/851/166 336/852/166
f 337/853/166 335/854/166 336/855/166
f 338/856/249 340/857/250 339/858/251
f 338/856/249 341/859/252 340/857/250
f 341/860/252 339/861/251 340/862/250
f 341/860/252 338/863/249 339/861/251
f 342/864/229 343/865/229 344/866/229
f 343/867/229 342/868/229 344/869/229
f 347/870/229 345/871/229 346/872/229
f 346/873/229 345/874/229 347/875/229
f 348/876/166 349/877/166 350/878/166
f 349/879/166 348/880/166 350/881/166
f 352/882/253 353/883/254 351/884/255
f 353/885/254 352/886/253 351/887/255
f 354/888/235 355/889/237 356/890/236
f 354/888/235 357/891/234 355/889/237
f 357/892/234 356/893/236 355/894/237
f 357/892/234 354/895/235 356/893/236
f 363/896/246 358/897/241 365/898/243
f 359/899/239 358/900/241 363/901/246
f 359/899/239 364/902/242 358/900/241
f 364/903/242 365/904/243 358/905/241
f 362/906/238 359/907/239 363/908/246
f 362/909/238 364/910/242 359/911/239
f 361/912/245 360/913/244 365/914/243
f 361/912/245 362/915/238 360/913/244
f 362/906/238 363/908/246 360/916/244
f 363/896/246 365/898/243 360/917/244
f 364/903/242 361/918/245 365/904/243
f 362/909/238 361/919/245 364/910/242
f 367/920/239 366/921/241 372/922/246
f 371/923/242 373/924/243 366/925/241
f 372/926/246 366/927/241 373/928/243
f 367/920/239 371/929/242 366/921/241
f 369/930/238 367/931/239 372/932/246
f 369/933/238 371/934/242 367/935/239
f 372/926/246 373/928/243 368/936/244
f 370/937/245 368/938/244 373/939/243
f 370/937/245 369/940/238 368/938/244
f 369/930/238 372/932/246 368/941/244
f 369/933/238 370/942/245 371/934/242
f 371/923/242 370/943/245 373/924/243
f 376/944/256 374/945/257 381/946/258
f 381/947/258 374/948/257 377/949/259
f 374/950/257 378/951/260 377/952/259
f 375/953/261 379/954/262 380/955/263
f 376/944/256 379/956/262 375/957/261
f 376/944/256 381/946/258 379/956/262
f 376/958/256 383/959/264 378/960/260
f 376/958/256 375/961/261 383/959/264
f 374/950/257 376/962/256 378/951/260
f 383/963/264 377/964/259 378/965/260
f 381/947/258 377/949/259 382/966/265
f 383/963/264 382/967/265 377/964/259
f 379/968/262 382/969/265 380/970/263
f 379/968/262 381/971/258 382/969/265
f 375/953/261 380/955/263 383/972/264
f 383/963/264 380/973/263 382/967/265
f 384/974/266 385/975/262 386/976/261
f 384/974/266 392/977/257 390/978/258
f 384/974/266 390/978/258 385/975/262
f 384/979/266 387/980/264 393/981/267
f 384/979/266 386/982/261 387/980/264
f 392/983/257 384/984/266 393/985/267
f 386/986/261 385/987/262 389/988/263
f 385/989/262 388/990/265 389/991/263
f 385/989/262 390/992/258 388/990/265
f 387/993/264 389/994/263 388/995/265
f 387/993/264 391/996/259 393/997/267
f 387/993/264 388/995/265 391/996/259
f 386/986/261 389/988/263 387/998/264
f 390/999/258 391/1000/259 388/1001/265
f 390/999/258 392/1002/257 391/1000/259
f 392/983/257 393/985/267 391/1003/259
f 399/1004/268 394/1005/269 395/1006/270
f 394/1007/269 398/1008/271 395/1009/270
f 394/1007/269 397/1010/272 398/1008/271
f 399/1011/268 397/1012/272 394/1013/269
f 399/1004/268 395/1006/270 401/1014/273
f 395/1015/270 400/1016/274 401/1017/273
f 395/1015/270 398/1018/271 400/1016/274
f 396/1019/275 401/1020/273 400/1021/274
f 396/1019/275 399/1022/268 401/1020/273
f 397/1023/272 396/1024/275 400/1025/274
f 399/1011/268 396/1026/275 397/1012/272
f 397/1023/272 400/1025/274 398/1027/271
f 403/1028/276 402/1029/277 405/1030/278
f 402/1031/277 403/1032/276 404/1033/279
f 402/1031/277 404/1033/279 405/1034/278
f 403/1028/276 405/1030/278 404/1035/279
f 406/1036/280 409/1037/281 407/1038/282
f 406/1036/280 408/1039/283 409/1037/281
f 408/1040/283 407/1041/282 409/1042/281
f 408/1040/283 406/1043/280 407/1041/282
f 410/1044/284 411/1045/285 413/1046/286
f 410/1044/284 413/1046/286 412/1047/287
f 411/1048/285 412/1049/287 413/1050/286
f 411/1048/285 410/1051/284 412/1049/287
f 414/1052/288 415/1053/289 416/1054/290
f 414/1052/288 417/1055/291 415/1053/289
f 417/1056/291 416/1057/290 415/1058/289
f 417/1056/291 414/1059/288 416/1057/290
f 418/1060/292 419/1061/293 420/1062/294
f 418/1060/292 420/1062/294 421/1063/295
f 419/1064/293 421/1065/295 420/1066/294
f 419/1064/293 418/1067/292 421/1065/295
f 425/1068/296 422/1069/297 424/1070/298
f 425/1068/296 423/1071/299 422/1069/297
f 423/1072/299 424/1073/298 422/1074/297
f 423/1072/299 425/1075/296 424/1073/298
f 426/1076/300 429/1077/301 428/1078/302
f 426/1076/300 427/1079/303 429/1077/301
f 427/1080/303 426/1081/300 428/1082/302
f 427/1080/303 428/1082/302 429/1083/301
f 431/1084/303 430/1085/304 432/1086/302
f 431/1084/303 432/1086/302 433/1087/301
f 430/1088/304 433/1089/301 432/1090/302
f 430/1088/304 431/1091/303 433/1089/301
f 437/1092/305 434/1093/306 435/1094/302
f 437/1092/305 436/1095/303 434/1093/306
f 436/1096/303 435/1097/302 434/1098/306
f 436/1096/303 437/1099/305 435/1097/302
f 439/1100/284 438/1101/286 440/1102/298
f 439/1100/284 441/1103/299 438/1101/286
f 441/1104/299 439/1105/284 440/1106/298
f 441/1104/299 440/1106/298 438/1107/286
f 448/1108/307 442/1109/308 443/1110/309
f 447/1111/310 449/1112/311 442/1113/308
f 443/1114/309 442/1115/308 449/1116/311
f 448/1108/307 447/1117/310 442/1109/308
f 446/1118/312 448/1119/307 443/1120/309
f 443/1114/309 449/1116/311 445/1121/313
f 446/1118/312 443/1120/309 445/1122/313
f 444/1123/314 445/1124/313 449/1125/311
f 446/1126/312 444/1127/314 447/1128/310
f 447/1111/310 444/1129/314 449/1112/311
f 444/1123/314 446/1130/312 445/1124/313
f 446/1126/312 447/1128/310 448/1131/307
f 450/1132/315 451/1133/316 452/1134/317
f 450/1132/315 453/1135/318 451/1133/316
f 453/1136/318 452/1137/317 451/1138/316
f 453/1136/318 450/1139/315 452/1137/317
f 455/1140/319 454/1141/320 459/1142/321
f 455/1140/319 459/1142/321 458/1143/322
f 454/1144/320 455/1145/319 456/1146/323
f 454/1147/320 457/1148/324 459/1149/321
f 454/1147/320 456/1150/323 457/1148/324
f 456/1151/323 455/1152/319 458/1153/322
f 457/1154/324 458/1155/322 459/1156/321
f 456/1151/323 458/1153/322 457/1157/324
f 461/1158/319 460/1159/320 463/1160/321
f 461/1158/319 463/1160/321 465/1161/322
f 460/1162/320 461/1163/319 464/1164/323
f 460/1165/320 462/1166/325 463/1167/321
f 460/1165/320 464/1168/323 462/1166/325
f 464/1169/323 465/1170/322 462/1171/325
f 464/1169/323 461/1172/319 465/1170/322
f 462/1173/325 465/1174/322 463/1175/321
f 466/1176/326 471/1177/327 467/1178/328
f 466/1179/326 469/1180/329 468/1181/330
f 469/1182/329 466/1183/326 467/1184/328
f 466/1176/326 470/1185/331 471/1177/327
f 466/1179/326 468/1181/330 470/1186/331
f 469/1182/329 467/1184/328 473/1187/332
f 471/1188/327 473/1189/332 467/1190/328
f 468/1191/330 473/1192/332 472/1193/333
f 468/1191/330 469/1194/329 473/1192/332
f 470/1195/331 468/1196/330 472/1197/333
f 470/1195/331 472/1197/333 471/1198/327
f 471/1188/327 472/1199/333 473/1189/332
f 474/1200/334 480/1201/335 481/1202/336
f 474/1200/334 479/1203/337 480/1201/335
f 476/1204/338 475/1205/339 474/1206/334
f 476/1204/338 474/1206/334 481/1207/336
f 475/1208/339 479/1209/337 474/1210/334
f 475/1208/339 477/1211/340 479/1209/337
f 476/1212/338 477/1213/340 475/1214/339
f 476/1212/338 478/1215/341 477/1213/340
f 478/1216/341 476/1217/338 481/1218/336
f 477/1219/340 478/1220/341 480/1221/335
f 477/1219/340 480/1221/335 479/1222/337
f 478/1216/341 481/1218/336 480/1223/335
f 195/5/342 196/1224/342 197/6/342
f 201/8/343 202/1225/343 203/9/343
f 208/11/344 209/85/344 210/12/344
f 211/14/345 212/1226/34 213/15/188
f 216/17/346 217/1227/346 218/18/346
f 220/20/347 221/605/347 222/21/347
f 229/23/348 247/70/38 230/24/200
f 232/26/349 233/1228/349 234/27/349
f 236/29/350 237/64/350 238/30/351
f 242/32/352 243/92/52 244/33/54
f 250/35/353 248/1229/353 251/36/353
f 253/38/354 254/639/354 255/39/354
f 219/44/355 201/1230/355 204/45/355
f 215/629/192 249/37/194 251/36/356
f 220/20/357 223/22/357 207/13/357
f 252/50/166 255/1231/166 203/51/166
f 229/23/24 231/25/24 232/53/24
f 232/53/24 243/92/24 242/32/24
f 193/574/162 222/576/162 221/1232/162
f 204/595/358 203/1233/358 198/593/358
f 194/591/359 197/1234/359 226/589/359
f 223/59/360 222/1235/360 197/60/360
f 244/33/361 225/1236/361 224/62/361
f 211/63/362 214/604/362 208/11/362
f 237/64/363 195/581/363 194/65/363
f 212/67/34 211/1237/364 255/68/35
f 251/36/37 248/1229/187 247/70/38
f 205/71/365 196/1238/365 195/72/365
f 225/74/366 221/1239/366 220/75/366
f 217/1240/367 216/628/367 215/627/367
f 241/77/368 240/1241/368 234/78/368
f 213/80/369 218/1242/369 217/81/369
f 230/24/370 227/636/370 228/83/370
f 237/84/350 236/649/350 253/38/371
f 239/31/46 238/30/372 210/12/47
f 199/86/5 219/594/5 218/87/5
f 242/32/373 245/34/373 250/35/373
f 227/89/374 202/1243/374 201/90/374
f 223/22/375 196/1244/375 195/581/375
f 195/581/376 203/51/376 202/52/376
f 201/588/166 223/22/166 195/581/166
f 202/1245/377 227/582/377 197/584/377
f 202/1245/378 197/584/378 195/1246/378
f 220/20/379 223/22/379 221/605/379
f 223/22/166 201/588/166 218/598/166
f 221/605/380 223/22/380 218/598/380
f 253/601/179 230/602/179 202/599/179
f 207/13/381 220/20/381 221/605/381
f 210/606/382 232/1247/382 242/607/382
f 244/608/179 208/1248/179 210/606/179
f 245/609/13 244/612/13 208/610/13
f 208/1249/1 244/633/1 220/635/1
f 220/635/1 210/1250/1 208/1249/1
f 250/611/383 208/610/383 214/614/383
f 232/1247/179 210/606/179 234/617/179
f 213/619/185 215/618/184 250/1251/384
f 215/618/184 251/1252/385 250/1251/384
f 213/625/1 250/1253/1 251/623/1
f 251/623/386 255/645/386 211/624/386
f 221/632/387 225/626/191 216/628/193
f 231/641/8 230/638/8 253/38/8
f 255/645/388 251/623/388 229/643/388
f 230/1254/13 253/644/13 229/643/13
f 238/1255/389 234/1256/389 237/84/389
f 234/1256/390 233/646/390 237/84/390
f 232/642/203 253/38/202 237/84/203
f 236/649/10 241/648/16 234/1256/171
f 236/649/391 234/1256/391 238/1255/391
