# Blender 4.5.0
# www.blender.org
mtllib shop_006.mtl
o shop_006
v -2.372014 2.961580 -3.083525
v 2.372014 2.961580 -3.083525
v 2.372014 2.530882 -3.083525
v -2.372014 2.530882 -3.083525
v -3.875000 -0.000000 -3.548504
v -3.875000 0.133777 3.548504
v -3.874041 0.132861 -3.550000
v 3.875000 0.133776 -3.548504
v 3.875000 0.000000 3.548504
v 3.874041 0.000915 -3.550000
v 3.874041 0.132861 3.550000
v -3.874041 0.000916 3.550000
v 3.549713 3.039513 -2.747812
v -3.548044 3.039176 -2.749672
v 3.548043 0.139535 -2.749672
v 3.548043 3.039177 3.049918
v -3.548043 0.139536 3.049918
v 3.549713 0.139199 3.048057
v -3.549713 3.039513 3.048057
v -3.549713 0.139198 -2.747812
v 3.485154 3.159652 -2.864895
v 3.492966 3.154171 -2.859621
v -3.488486 3.157577 -2.865066
v 3.488486 3.157577 2.865065
v 3.485238 3.049443 2.867348
v 3.492966 3.041710 2.859620
v 3.497108 3.051038 2.867348
v 3.492966 3.049443 2.867348
v -3.484567 3.158713 2.867136
v -3.492966 3.154171 2.859620
v -3.645374 3.041709 -2.859621
v -3.653102 3.050977 -2.867348
v -3.651346 3.043370 -3.022263
v -3.643842 3.041709 -2.867348
v -3.496778 3.398597 2.864774
v -3.497246 3.049443 2.867348
v -3.492966 3.041710 2.859620
v -3.500693 3.033977 2.867348
v -3.492966 3.041225 2.867339
v -3.645374 3.402294 -2.867348
v -3.648712 3.399928 -3.024434
v -3.653102 3.394560 -2.867348
v -3.645374 3.402294 -2.859621
v -3.498887 3.400495 -2.864441
v -3.492966 3.394560 -2.859621
v -3.485238 3.049443 -2.867348
v -3.492966 3.041709 -2.859621
v -3.497108 3.051038 -2.867348
v -3.492966 3.049443 -2.867348
v -3.645374 3.041710 2.867348
v -3.648712 3.044075 3.024433
v -3.653102 3.049443 2.867348
v -3.645374 3.041710 2.859620
v 3.498887 3.400495 2.864440
v 3.492966 3.394561 2.859620
v 3.645374 3.402294 -2.859621
v 3.653102 3.393027 -2.867348
v 3.651346 3.400634 -3.022263
v 3.643842 3.402294 -2.867348
v 3.497019 3.398343 -2.865943
v 3.492966 3.049443 -2.867348
v 3.497246 3.049443 -2.867348
v 3.492966 3.041709 -2.859621
v 3.485238 3.049443 -2.867348
v 3.648712 3.044075 -3.024433
v 3.645374 3.041709 -2.867348
v 3.653102 3.049443 -2.867348
v 3.645374 3.041709 -2.859621
v 3.645374 3.402295 2.867348
v 3.648712 3.399929 3.024433
v 3.653102 3.394561 2.867348
v 3.645374 3.402295 2.859620
v -3.645374 3.402295 2.859620
v -3.653102 3.393028 2.867348
v -3.651346 3.400634 3.022263
v -3.643842 3.402295 2.867348
v 3.651346 3.043370 3.022263
v 3.645374 3.041710 2.859620
v 3.653102 3.050977 2.867348
v 3.643842 3.041710 2.867348
v -3.202888 0.500374 -2.748497
v -3.203665 0.499925 -2.895568
v -2.100838 0.499925 -2.749054
v -2.101616 0.500374 -2.896124
v -3.203665 2.288153 -2.749054
v -2.101616 2.287704 -2.748497
v -2.100838 2.288153 -2.895568
v -3.202888 2.287704 -2.896125
v -3.136711 2.219279 -2.913619
v -2.167793 2.219279 -2.911151
v -3.136711 0.568799 -2.911151
v -2.167793 0.568799 -2.913618
v -3.139653 0.535406 -2.972229
v -3.139653 2.262688 -2.912590
v -3.135675 2.262688 -2.972229
v -3.135675 0.535406 -2.912590
v -2.650263 2.262688 -2.972229
v -2.650263 0.535406 -2.912590
v -2.654241 2.262688 -2.912590
v -2.654241 0.535406 -2.972229
v -2.164850 2.262688 -2.972229
v -2.168829 2.262688 -2.912590
v -2.168829 0.535406 -2.972229
v -2.164850 0.535406 -2.912590
v -3.247482 0.536329 -3.080495
v -3.248901 0.458691 -3.079611
v -3.247482 0.458844 -2.844357
v -2.055602 0.458691 -2.845241
v -2.057022 0.536328 -2.844357
v -2.057022 0.458844 -3.080495
v -2.055602 0.536482 -3.079611
v -3.248902 0.536482 -2.845241
v -1.751656 2.287704 -2.896125
v -0.650384 2.287704 -2.748497
v -1.751656 0.500374 -2.748497
v -0.650384 0.500374 -2.896124
v -1.752433 2.288153 -2.749054
v -0.649606 2.288153 -2.895568
v -1.752433 0.499925 -2.895568
v -0.649606 0.499925 -2.749054
v -1.685478 2.219279 -2.913619
v -1.685478 0.568799 -2.911151
v -0.716561 2.219279 -2.911151
v -0.716561 0.568799 -2.913618
v -1.688421 0.535406 -2.972229
v -1.688421 2.262688 -2.912590
v -1.684443 0.535406 -2.912590
v -1.684443 2.262688 -2.972229
v -1.199031 2.262688 -2.972229
v -1.199031 0.535406 -2.912590
v -1.203009 2.262688 -2.912590
v -1.203009 0.535406 -2.972229
v -0.713618 2.262688 -2.972229
v -0.717597 0.535406 -2.972229
v -0.717597 2.262688 -2.912590
v -0.713618 0.535406 -2.912590
v -1.796250 0.536329 -3.080495
v -1.797669 0.458691 -3.079611
v -0.604370 0.458691 -2.845241
v -0.605790 0.458844 -3.080495
v -0.605790 0.536328 -2.844357
v -1.797669 0.536482 -2.845241
v -0.604370 0.536482 -3.079611
v -1.796250 0.458844 -2.844357
v 1.050723 2.287704 -2.896125
v 1.049946 0.499925 -2.895568
v 2.152773 2.288153 -2.895568
v 2.151995 2.287704 -2.748497
v 2.152773 0.499925 -2.749054
v 1.049946 2.288153 -2.749054
v 2.151996 0.500374 -2.896124
v 1.050724 0.500374 -2.748497
v 1.116901 2.219279 -2.913619
v 2.085819 2.219279 -2.911151
v 1.116901 0.568799 -2.911151
v 2.085819 0.568799 -2.913618
v 1.113958 2.262688 -2.912590
v 1.117937 0.535406 -2.912590
v 1.113958 0.535406 -2.972229
v 1.117937 2.262688 -2.972229
v 1.603349 2.262688 -2.972229
v 1.603349 0.535406 -2.912590
v 1.599370 0.535406 -2.972229
v 1.599370 2.262688 -2.912590
v 2.088761 2.262688 -2.972229
v 2.088761 0.535406 -2.912590
v 2.084782 0.535406 -2.972229
v 2.084782 2.262688 -2.912590
v 2.201869 0.537651 -3.074797
v 2.201869 0.529917 -3.082524
v 2.201869 0.462990 -3.087987
v 2.201869 0.452052 -3.077060
v 1.003572 0.465428 -3.080827
v 1.009766 0.457521 -3.080740
v 1.004323 0.460710 -2.845959
v 1.003572 0.529744 -2.844023
v 1.009766 0.537651 -2.844111
v 1.004323 0.534462 -3.078892
v 2.251743 2.287704 -2.896125
v 2.251743 0.500374 -2.748497
v 3.353015 0.500374 -2.896124
v 2.250966 2.288153 -2.749054
v 3.353015 2.287704 -2.748497
v 3.353793 2.288153 -2.895568
v 2.250966 0.499925 -2.895568
v 3.353793 0.499925 -2.749054
v 3.286838 2.219279 -2.911151
v 2.317920 0.568799 -2.911151
v 2.317920 2.219279 -2.913619
v 3.286838 0.568799 -2.913618
v 2.314978 0.535406 -2.972229
v 2.318956 0.535406 -2.912590
v 2.318956 2.262688 -2.972229
v 2.314978 2.262688 -2.912590
v 2.804369 2.262688 -2.972229
v 2.800390 0.535406 -2.972229
v 2.804369 0.535406 -2.912590
v 2.800390 2.262688 -2.912590
v 3.289781 2.262688 -2.972229
v 3.285802 0.535406 -2.972229
v 3.289781 0.535406 -2.912590
v 3.285802 2.262688 -2.912590
v 3.399015 0.536651 -3.079550
v 3.399443 0.460733 -3.078886
v 2.201869 0.457521 -2.850055
v 2.201869 0.465255 -2.842327
v 2.201869 0.532182 -2.836863
v 2.201869 0.543120 -2.847792
v 3.399442 0.534439 -2.845965
v 3.399015 0.458521 -2.845302
v 0.846165 0.170052 -2.901298
v -0.346374 2.418243 -2.763834
v -0.345740 0.170052 -2.763341
v -0.345740 2.417702 -2.901298
v 0.846799 2.418243 -2.900805
v 0.846165 2.417702 -2.763341
v -0.346374 0.169511 -2.900805
v 0.846799 0.169511 -2.763834
v 0.775158 0.237467 -2.923946
v -0.274733 2.340271 -2.923947
v -0.274733 0.237467 -2.920840
v 0.775158 2.340271 -2.920840
v 0.248194 0.234951 -2.979689
v 0.252231 2.342786 -2.979689
v 0.248194 2.342786 -2.925146
v 0.252231 0.234951 -2.925146
v 0.132247 0.998248 -2.979139
v 0.127974 0.998248 -3.045794
v 0.132247 1.399197 -3.045794
v 0.127974 1.399197 -2.979139
v 0.372451 1.399197 -3.045794
v 0.368177 1.399197 -2.979139
v 0.372451 0.998248 -2.979139
v 0.368177 0.998248 -3.045794
v 2.397888 2.989620 -3.076285
v -2.396695 2.989911 -3.076801
v -2.397888 2.502841 -3.076285
v -2.397888 2.989620 -2.928633
v 2.397888 2.502841 -2.928633
v 2.396695 2.989911 -2.928117
v 2.396695 2.502550 -3.076801
v -2.396695 2.502550 -2.928117
v 3.650373 2.388404 -2.721317
v -3.651772 2.389254 -2.723037
v 3.650372 2.302758 -3.363666
v 3.651772 2.389254 -3.361947
v -3.650372 2.388404 -3.363666
v 3.651772 2.301909 -2.723037
v -3.651772 2.301908 -3.361947
v -3.650372 2.302758 -2.721317
v -2.801971 0.170491 -3.121850
v -2.805805 0.851395 -3.132802
v -2.796248 0.845955 -3.108398
v -2.801971 0.170491 -3.301998
v -2.805805 0.851395 -3.312950
v -2.796248 0.845954 -3.288545
v -2.472919 0.439986 -3.340850
v -3.133281 0.439713 -3.339563
v -2.472919 0.685397 -3.064395
v -3.131840 0.439986 -3.064395
v -3.133282 0.685670 -3.065681
v -3.131840 0.685397 -3.340850
v -2.471477 0.439713 -3.065682
v -2.471477 0.685670 -3.339563
v -1.650994 0.170491 -3.121850
v -1.645271 0.845955 -3.108398
v -1.654828 0.851395 -3.132802
v -1.650994 0.170491 -3.301998
v -1.645271 0.845954 -3.288545
v -1.654828 0.851395 -3.312950
v -1.321942 0.685397 -3.064395
v -1.982304 0.439713 -3.339563
v -1.980863 0.439986 -3.064395
v -1.320500 0.685670 -3.339563
v -1.320500 0.439713 -3.065682
v -1.321942 0.439986 -3.340850
v -1.982304 0.685670 -3.065681
v -1.980862 0.685397 -3.340849
v 3.079637 1.833705 -3.341257
v 3.079484 0.141642 -3.340121
v 3.079638 0.143058 -2.863824
v 3.526125 1.835121 -3.340121
v 3.525971 1.833705 -2.863825
v 3.526125 0.141642 -2.864960
v 3.525971 0.143058 -3.341256
v 3.079483 1.835121 -2.864960
v -1.521393 3.235779 1.724128
v -0.679386 3.880000 1.279401
v -0.680476 3.879313 1.724128
v -0.679386 3.235092 1.723057
v -0.680476 3.235779 1.278330
v -1.522484 3.880000 1.723057
v -1.521393 3.879313 1.278330
v -1.522484 3.235092 1.279401
v -1.002590 3.803357 1.251024
v -0.827483 3.371400 1.256991
v -1.172194 3.630293 1.251354
v -1.107894 3.404793 1.249533
v -0.769245 3.738348 1.250695
v -0.712266 3.510883 1.252515
v -0.938425 3.341650 1.245057
v -0.733886 3.425322 1.229541
v -1.155325 3.414815 1.221000
v -0.728072 3.408723 1.216226
v -1.155325 3.481923 1.221000
v -0.733886 3.492431 1.229541
v -0.728072 3.475831 1.216226
v -1.155325 3.549032 1.221000
v -0.728072 3.553810 1.214912
v -0.733886 3.540483 1.231499
v -1.155325 3.616141 1.221000
v -0.733886 3.624689 1.210500
v -0.728072 3.611364 1.227087
v -1.155325 3.683249 1.221000
v -0.728072 3.677157 1.216226
v -0.733886 3.693758 1.229541
v -1.155325 3.750359 1.221000
v -0.728072 3.755136 1.214912
v -0.733886 3.741810 1.231499
v -1.347303 3.751974 1.257540
v -1.435060 3.393166 1.257540
v -1.347303 3.393166 1.254517
v -1.435060 3.751974 1.254517
v -1.439324 3.230195 1.215604
v -1.363056 3.230195 1.786854
v -1.440199 3.230937 1.785261
v -1.440199 3.162987 1.217197
v -1.439324 3.163728 1.786854
v -1.362180 3.230937 1.217197
v -1.363056 3.163728 1.215604
v -1.362180 3.162987 1.785261
v -0.838814 3.230195 1.215604
v -0.753148 3.200165 1.204890
v -0.839690 3.162987 1.217197
v -0.848211 3.200165 1.797567
v -0.762546 3.230196 1.786854
v -0.761670 3.162987 1.785261
v -0.321464 3.880000 1.723057
v -0.320373 3.879313 1.278330
v -0.320373 3.235779 1.724128
v 0.521634 3.880000 1.279401
v 0.520543 3.879313 1.724128
v -0.321464 3.235092 1.279401
v 0.520543 3.235779 1.278330
v 0.521634 3.235092 1.723057
v 0.373536 3.371400 1.256991
v 0.431775 3.738348 1.250695
v 0.028826 3.630293 1.251354
v 0.488754 3.510884 1.252515
v 0.262594 3.341650 1.245057
v 0.093126 3.404793 1.249533
v 0.198429 3.803357 1.251024
v 0.474748 3.414815 1.221000
v 0.053309 3.423363 1.231499
v 0.047494 3.410037 1.214913
v 0.045694 3.481923 1.221000
v 0.472948 3.475831 1.216226
v 0.467133 3.492431 1.229541
v 0.047494 3.555124 1.216226
v 0.053309 3.538524 1.229541
v 0.474748 3.549032 1.221000
v 0.053309 3.626649 1.212458
v 0.047494 3.610049 1.225773
v 0.474748 3.616141 1.221000
v 0.053309 3.691798 1.231499
v 0.047494 3.678472 1.214912
v 0.474748 3.683249 1.221000
v 0.474748 3.750359 1.221000
v 0.053309 3.739851 1.229541
v 0.047494 3.756450 1.216226
v -0.146283 3.393166 1.254517
v -0.234040 3.393166 1.257540
v -0.146283 3.751974 1.257540
v -0.234040 3.751974 1.254517
v -0.238304 3.230195 1.215604
v -0.162036 3.230196 1.786854
v -0.239180 3.230937 1.785261
v -0.239180 3.162987 1.217197
v -0.161160 3.162987 1.785261
v -0.161160 3.230937 1.217197
v -0.162036 3.163728 1.215604
v -0.238304 3.163728 1.786854
v 0.438474 3.163728 1.215604
v 0.362206 3.230195 1.215604
v 0.438474 3.230196 1.786854
v 0.439350 3.162987 1.785261
v 0.439349 3.230937 1.217197
v 0.361330 3.230937 1.785261
v 0.361330 3.162987 1.217197
v 0.362206 3.163728 1.786854
v -3.402154 0.116299 3.189612
v -3.443098 2.797695 3.123192
v -3.369107 2.801992 3.109832
v -3.370207 0.115875 3.109301
v -3.445026 0.120595 3.127846
v -3.403307 2.802414 3.189210
v 3.403624 0.116299 3.189612
v 3.360752 0.120595 3.127848
v 3.435572 0.115876 3.109301
v 3.436671 2.801991 3.109832
v 3.362680 2.797696 3.123193
v 3.402471 2.802414 3.189210
v 0.396230 0.451058 3.073584
v 0.396230 2.246875 3.191546
v -0.396230 0.451058 3.191546
v -0.396230 2.246875 3.073584
v -0.396680 2.247605 3.191053
v 0.396680 2.247605 3.074076
v 0.396680 0.450328 3.191054
v -0.396680 0.450328 3.074076
v 0.628962 1.794874 3.049369
v 0.628961 1.303708 3.215761
v 0.972995 1.302619 3.215039
v 0.628365 1.795963 3.215039
v 0.628365 1.302619 3.050091
v 0.972995 1.795963 3.050091
v 0.972398 1.303708 3.049370
v 0.972398 1.794873 3.215760
vn -0.0000 -0.0000 -1.0000
vn 0.0001 -0.7068 0.7075
vn -0.0000 -0.7068 0.7074
vn 0.0002 -0.7067 0.7075
vn -0.7005 -0.7000 -0.1389
vn -0.8865 -0.4617 -0.0290
vn -0.7074 0.7068 -0.0000
vn -0.0000 -0.7068 -0.7074
vn -0.7074 -0.7068 -0.0000
vn 0.7005 0.7000 -0.1389
vn 0.7074 -0.7068 -0.0000
vn 0.7074 0.7068 -0.0000
vn -0.7005 0.7000 0.1389
vn 0.7005 -0.7000 0.1389
vn -0.0268 0.9996 0.0053
vn -0.0266 0.9996 -0.0002
vn -0.0266 0.9996 0.0022
vn -0.7871 0.6167 0.0099
vn 0.5869 0.0596 -0.8074
vn -0.6669 -0.0000 0.7452
vn 0.0011 -0.0000 1.0000
vn -0.9991 0.0423 -0.0012
vn -0.8012 0.5984 0.0005
vn -0.4758 0.8796 0.0002
vn 0.9991 0.0422 0.0012
vn 0.8517 0.5240 -0.0004
vn 0.5744 0.8186 -0.0000
vn 0.0125 0.9999 -0.0000
vn 0.0123 0.9999 -0.0000
vn 0.6371 0.0097 -0.7708
vn -0.0000 -0.6379 -0.7701
vn 0.0521 -0.9986 -0.0000
vn -0.7679 0.6405 0.0002
vn -0.7679 -0.6405 -0.0002
vn 0.9999 0.0113 0.0007
vn 0.9021 0.4314 -0.0058
vn 0.7079 0.7063 -0.0000
vn -0.0521 -0.9986 -0.0000
vn -0.0125 0.9999 -0.0000
vn -0.0123 0.9999 -0.0000
vn -0.6371 0.0097 0.7708
vn -0.0000 -0.6379 0.7701
vn -0.9999 0.0123 -0.0007
vn -0.9000 0.4359 -0.0000
vn -0.7079 0.7064 -0.0000
vn 0.7679 0.6405 -0.0002
vn 0.7679 -0.6405 0.0002
vn -0.5671 0.5746 -0.5901
vn -0.0001 0.9999 -0.0108
vn 0.1877 0.6806 -0.7082
vn 0.5671 -0.5746 -0.5901
vn 0.0001 -0.9999 -0.0108
vn -0.1877 -0.6806 -0.7082
vn 0.5671 0.5746 0.5901
vn 0.0001 0.9999 0.0108
vn -0.1877 0.6806 0.7082
vn -0.5671 -0.5746 0.5901
vn -0.0001 -0.9999 0.0108
vn 0.1877 -0.6806 0.7082
vn -0.0011 -0.7068 -0.7074
vn -0.0011 0.7068 0.7074
vn -0.7871 -0.6168 -0.0099
vn -0.0022 0.7068 -0.7074
vn -0.0022 -0.7068 0.7074
vn -0.0000 -0.0000 -0.0000
vn 0.0297 0.6166 0.7867
vn 0.0294 0.6308 0.7754
vn 0.0298 0.6267 0.7787
vn -0.5802 0.5784 0.5734
vn -0.5745 0.5762 -0.5813
vn -0.5802 -0.5784 -0.5734
vn -0.5745 -0.5762 0.5813
vn 0.5802 -0.5784 0.5734
vn 0.5745 -0.5762 -0.5813
vn 0.5745 0.5762 0.5813
vn 0.5802 0.5784 -0.5734
vn -0.5776 0.5775 0.5770
vn 0.5776 0.5775 -0.5770
vn -0.5771 0.5774 -0.5776
vn 0.5771 -0.5774 -0.5776
vn 0.5776 -0.5775 0.5770
vn 0.5771 0.5774 0.5776
vn -0.5776 -0.5775 -0.5770
vn -0.5771 -0.5774 0.5776
vn 0.0002 0.6796 0.7336
vn -0.0000 0.7000 -0.7142
vn -0.0002 0.7053 -0.7089
vn -0.0000 0.0222 -0.9998
vn -0.3593 0.9332 -0.0013
vn 0.9992 0.0409 0.0007
vn 0.0001 0.7208 0.6931
vn -0.0000 0.0211 -0.9998
vn -0.9992 0.0409 -0.0007
vn 0.0003 0.0019 1.0000
vn -0.0000 0.0211 0.9998
vn -0.0000 -1.0000 -0.0000
vn -0.0099 0.0042 0.9999
vn -0.0199 0.0084 0.9998
vn -0.0048 0.0020 1.0000
vn -1.0000 -0.0000 -0.0000
vn -0.0000 -0.0000 1.0000
vn -0.7074 0.7069 -0.0000
vn 0.3593 0.9332 0.0013
vn -0.9999 -0.0000 -0.0113
vn 0.0048 0.0020 -1.0000
vn 1.0000 0.0016 0.0001
vn 0.0121 0.0013 0.9999
vn 0.0024 0.0062 1.0000
vn -0.0004 0.0074 1.0000
vn 0.0167 -0.0054 0.9998
vn 0.0071 0.0042 1.0000
vn 0.0248 0.9997 -0.0021
vn 0.0249 0.9997 0.0001
vn -0.9999 0.0133 0.0007
vn 0.0099 0.0042 -0.9999
vn 0.0199 0.0084 -0.9998
vn -0.9017 0.4323 -0.0104
vn -0.9999 -0.0000 0.0113
vn -0.9017 -0.4323 0.0104
vn -1.0000 0.0074 -0.0004
vn 0.9999 -0.0000 -0.0113
vn -0.0066 0.0007 -1.0000
vn -0.0091 -0.0030 -1.0000
vn -0.0039 0.0023 -1.0000
vn 1.0000 -0.0000 -0.0000
vn -0.0013 0.0034 -1.0000
vn 0.0001 0.0040 -1.0000
vn 0.9017 -0.4323 -0.0104
vn 0.9999 -0.0000 0.0113
vn 0.9017 0.4323 0.0104
vn 0.5757 0.5766 0.5797
vn -0.5757 -0.5766 0.5797
vn 0.5790 -0.5781 0.5750
vn -0.5790 -0.5781 -0.5750
vn -0.5790 0.5781 0.5750
vn -0.5757 0.5766 -0.5797
vn 0.5757 -0.5766 -0.5797
vn 0.5790 0.5781 -0.5750
vn -0.6562 0.7546 0.0012
vn 0.6562 -0.7546 0.0012
vn -0.6562 -0.7546 -0.0012
vn 0.6562 0.7546 -0.0012
vn -0.0388 0.8383 0.5438
vn 0.0388 0.8382 -0.5440
vn -0.0388 -0.8382 -0.5439
vn 0.0388 -0.8383 0.5438
vn -0.0388 0.8383 0.5439
vn 0.0388 0.8383 -0.5439
vn -0.0388 -0.8383 -0.5439
vn 0.0388 -0.8383 0.5439
vn -0.0389 0.8382 0.5440
vn 0.0388 0.8383 -0.5438
vn -0.0388 -0.8383 -0.5438
vn 0.0388 -0.8382 0.5440
vn -0.6986 0.0053 -0.7155
vn 0.6986 -0.0053 -0.7155
vn -0.7126 -0.0002 -0.7016
vn 0.7126 0.0002 -0.7016
vn -0.7126 0.0002 0.7016
vn -0.0001 1.0000 -0.0005
vn 0.0001 1.0000 0.0005
vn -0.0001 1.0000 -0.0007
vn -0.6986 -0.0053 0.7155
vn -0.0001 -1.0000 0.0005
vn 0.0001 -1.0000 -0.0005
vn -0.0001 -1.0000 0.0007
vn 0.0001 -1.0000 -0.0007
vn 0.6986 0.0053 0.7155
vn 0.7126 -0.0002 0.7016
vn 0.0001 1.0000 0.0007
vn -0.6562 0.7546 0.0011
vn 0.6562 -0.7546 0.0011
vn -0.6562 -0.7546 -0.0011
vn 0.6562 0.7546 -0.0011
vn -0.0388 -0.8382 -0.5440
vn -0.0389 0.8383 0.5439
vn 0.0389 0.8383 -0.5439
vn -0.0389 -0.8382 -0.5440
vn -0.0389 0.8383 0.5438
vn 0.0389 0.8382 -0.5440
vn -0.0033 -0.0700 -0.9975
vn -0.0026 0.9999 -0.0135
vn 0.0007 0.9997 -0.0241
vn 0.0044 0.9997 0.0230
vn 0.0025 -0.0087 -1.0000
vn 0.7043 -0.0038 -0.7099
vn 0.7270 -0.0019 -0.6867
vn 0.0007 -0.9997 0.0241
vn -0.7196 0.0273 -0.6939
vn 0.0035 0.0280 -0.9996
vn -0.7033 0.0248 -0.7105
vn 0.0044 -0.9997 -0.0230
vn 0.0072 -0.9999 -0.0095
vn -0.7033 -0.0248 0.7105
vn -0.7196 -0.0273 0.6939
vn -0.0026 -0.9999 0.0135
vn -0.0033 0.0700 0.9975
vn 0.0035 -0.0280 0.9996
vn -0.0389 -0.8383 -0.5439
vn 0.7043 0.0038 0.7099
vn 0.7270 0.0019 0.6867
vn 0.0072 0.9999 0.0095
vn 0.0065 0.3434 0.9391
vn 0.0077 -0.0814 0.9967
vn 0.0073 0.0701 0.9975
vn 0.0025 0.0087 1.0000
vn -0.5761 0.5763 -0.5797
vn 0.5761 -0.5763 -0.5797
vn -0.5787 -0.5784 -0.5750
vn 0.5787 -0.5784 0.5750
vn 0.5787 0.5784 -0.5750
vn -0.5787 0.5784 0.5750
vn 0.5761 0.5763 0.5797
vn -0.5761 -0.5763 0.5797
vn -0.6419 0.7667 0.0097
vn 0.6419 -0.7667 0.0097
vn -0.6419 -0.7667 -0.0097
vn 0.6419 0.7667 -0.0097
vn 0.0423 0.8396 -0.5415
vn 0.0423 -0.8396 0.5415
vn -0.0423 -0.8396 -0.5415
vn -0.0423 0.8396 0.5415
vn 0.0367 0.8174 -0.5749
vn -0.0367 0.8174 0.5749
vn 0.0367 -0.8174 0.5749
vn -0.0367 -0.8174 -0.5749
vn -0.7090 0.7052 -0.0022
vn 0.7090 0.7052 0.0022
vn -0.7037 0.7104 -0.0043
vn -0.0001 -0.0009 -1.0000
vn 0.0001 0.0011 -1.0000
vn 0.0001 0.0009 -1.0000
vn 0.7090 -0.7052 -0.0022
vn 0.7037 -0.7104 -0.0043
vn 0.7037 0.7104 0.0043
vn -0.7090 -0.7052 0.0022
vn -0.0001 -0.0011 -1.0000
vn -0.7037 -0.7104 0.0043
vn 0.0001 -0.0009 1.0000
vn -0.0001 0.0011 1.0000
vn -0.0001 0.0009 1.0000
vn 0.0001 -0.0011 1.0000
vn 0.5707 0.5759 0.5853
vn -0.5707 -0.5759 0.5853
vn 0.5829 -0.5788 0.5703
vn -0.5829 0.5788 0.5703
vn 0.5829 0.5788 -0.5703
vn -0.5829 -0.5788 -0.5703
vn -0.5707 0.5759 -0.5853
vn 0.5707 -0.5759 -0.5853
vn -0.5739 0.5776 -0.5805
vn 0.5739 -0.5776 -0.5805
vn -0.5795 -0.5782 -0.5743
vn 0.5795 -0.5782 0.5743
vn 0.5795 0.5782 -0.5743
vn -0.5795 0.5782 0.5743
vn -0.5739 -0.5776 0.5805
vn 0.5739 0.5776 0.5805
vn -0.5776 0.5754 -0.5790
vn 0.5776 -0.5754 -0.5790
vn -0.5777 -0.5784 -0.5759
vn 0.5777 0.5784 -0.5759
vn -0.5777 0.5784 0.5759
vn -0.5776 -0.5754 0.5790
vn 0.5777 -0.5784 0.5759
vn 0.5776 0.5754 0.5790
vn 0.5762 0.5769 0.5789
vn -0.5762 -0.5769 0.5789
vn 0.5783 -0.5780 0.5757
vn -0.5783 -0.5780 -0.5757
vn -0.5783 0.5780 0.5757
vn 0.5783 0.5780 -0.5757
vn 0.5762 -0.5769 -0.5789
vn -0.5762 0.5769 -0.5789
vn 0.6035 -0.7888 0.1165
vn 0.9990 -0.0437 0.0047
vn 0.6422 0.7665 -0.0054
vn -0.2589 0.9659 -0.0000
vn -0.9394 0.3428 0.0054
vn -0.8434 -0.5372 -0.0047
vn -0.1280 -0.9849 -0.1164
vn -0.5929 0.8051 -0.0187
vn 0.5929 0.8051 0.0187
vn 0.5929 -0.8051 -0.0187
vn -0.5929 -0.8051 0.0187
vn -0.5732 0.5741 -0.5848
vn 0.5732 -0.5741 -0.5848
vn -0.5851 -0.5838 -0.5629
vn 0.5851 0.5838 -0.5629
vn -0.5851 0.5838 0.5629
vn 0.5732 0.5741 0.5848
vn -0.5732 -0.5741 0.5848
vn 0.5851 -0.5838 0.5629
vn -0.4859 0.7013 -0.5216
vn 0.7872 0.0523 -0.6145
vn -0.4880 -0.6907 -0.5337
vn -0.7872 0.0523 0.6145
vn 0.4880 -0.6907 0.5337
vn 0.4859 0.7013 0.5216
vn 0.0880 -0.5666 0.8192
vn -0.7950 -0.5278 -0.2989
vn 0.6161 -0.5696 -0.5441
vn 0.6415 0.5667 -0.5170
vn 0.0509 0.5696 0.8204
vn -0.7735 0.5278 -0.3508
vn 0.6416 0.5666 -0.5170
vn -0.5765 0.5754 -0.5802
vn 0.5765 -0.5754 -0.5802
vn -0.5785 -0.5790 -0.5745
vn 0.5785 -0.5790 0.5745
vn 0.5785 0.5790 -0.5745
vn 0.5765 0.5754 0.5802
vn -0.5765 -0.5754 0.5802
vn -0.5785 0.5790 0.5745
vn -0.5767 0.5747 -0.5807
vn 0.5767 -0.5747 -0.5807
vn -0.5787 -0.5793 -0.5741
vn 0.5787 0.5793 -0.5741
vn -0.5787 0.5793 0.5741
vn 0.5787 -0.5793 0.5741
vn -0.5767 -0.5747 0.5807
vn 0.5767 0.5747 0.5807
vn 0.2626 -0.6821 0.6825
vn -0.7071 -0.7066 0.0267
vn -0.6834 0.7286 0.0458
vn -0.7073 0.7069 0.0044
vn -0.2626 -0.6821 -0.6825
vn -0.7074 -0.7068 -0.0044
vn 0.7071 0.7066 0.0267
vn -0.0000 -0.7069 -0.7073
vn 0.7074 -0.7068 0.0044
vn 0.7073 0.7069 -0.0044
vn -0.7071 0.7066 -0.0267
vn 0.7071 -0.7066 -0.0267
vn 0.0161 0.0073 0.9998
vn -0.0000 0.0223 -0.9998
vn 0.7071 -0.0000 0.7071
vn 0.0008 -0.7064 0.7078
vn 0.0086 0.0224 -0.9997
vn 0.0634 -0.9979 0.0126
vn 0.0250 0.9997 -0.0050
vn -0.7074 -0.7069 -0.0000
vn -0.0000 0.0040 -1.0000
vn -0.0086 0.0224 0.9997
vn -0.0634 -0.9979 -0.0126
vn 0.7074 -0.7069 -0.0000
vn -0.0000 0.9999 -0.0151
vn -0.0000 -0.9999 -0.0151
vn -0.0000 0.9999 0.0151
vn -0.0000 -0.9999 0.0151
vn 0.0005 0.7068 -0.7074
vn -0.0060 -0.0157 -0.9999
vn -0.0060 0.0158 0.9999
vn 0.0005 -0.7068 0.7074
vn 0.0074 -0.0701 -0.9975
vn 0.0040 -0.7068 -0.7074
vn 0.0065 -0.3434 -0.9392
vn 0.0040 0.7068 0.7074
vn -0.0000 1.0000 -0.0000
vn -0.8417 -0.0000 0.5400
vn -0.8417 0.5400 -0.0000
vn -0.9118 0.4106 -0.0000
vn 0.7071 -0.0000 -0.7071
vn 0.9140 -0.4058 -0.0000
vn -0.8814 -0.0000 0.4725
vn 0.0011 -1.0000 -0.0013
vn -0.9140 -0.4058 -0.0000
vn 0.0171 -0.0171 0.9997
vn 0.9999 -0.0120 -0.0007
vn -0.0093 -0.0093 -0.9999
vn 0.0077 0.0814 -0.9967
vt 0.865160 0.574587
vt 0.865160 0.749706
vt 0.849181 0.749736
vt 0.849181 0.574617
vt 0.283438 0.567017
vt 0.283151 0.567017
vt 0.283151 0.566730
vt 0.312674 0.587813
vt 0.313021 0.587812
vt 0.313021 0.588099
vt 0.970754 0.864729
vt 0.970467 0.864747
vt 0.970466 0.864441
vt 0.223448 0.572676
vt 0.223448 0.572963
vt 0.223161 0.572676
vt 0.495836 0.307585
vt 0.496123 0.307584
vt 0.496123 0.307871
vt 0.313021 0.800782
vt 0.312731 0.800783
vt 0.313021 0.800495
vt 0.223448 0.301637
vt 0.223448 0.301981
vt 0.223161 0.301924
vt 0.496123 0.567016
vt 0.495836 0.567017
vt 0.496123 0.566729
vt 0.496123 0.572677
vt 0.496123 0.572963
vt 0.495836 0.572677
vt 0.010475 0.301924
vt 0.010475 0.301637
vt 0.010762 0.301924
vt 0.010475 0.572963
vt 0.010475 0.572619
vt 0.010762 0.572676
vt 0.283151 0.572963
vt 0.283151 0.572620
vt 0.283438 0.572677
vt 0.223315 0.307397
vt 0.933288 0.653273
vt 0.925042 0.653341
vt 0.924764 0.653010
vt 0.880393 0.262404
vt 0.884439 0.262113
vt 0.884284 0.262428
vt 0.871050 0.262249
vt 0.866877 0.262255
vt 0.871149 0.261932
vt 0.933063 0.004528
vt 0.933332 0.262189
vt 0.933063 0.262474
vt 0.511142 0.574742
vt 0.723554 0.574587
vt 0.723585 0.574899
vt 0.723570 0.833864
vt 0.511157 0.834020
vt 0.511127 0.833708
vt 0.223286 0.567247
vt 0.592244 0.277775
vt 0.592060 0.290526
vt 0.592055 0.277780
vt 0.495836 0.301925
vt 0.496123 0.307431
vt 0.283438 0.301925
vt 0.283151 0.307426
vt 0.283151 0.301925
vt 0.299642 0.800495
vt 0.299925 0.587813
vt 0.299982 0.800783
vt 0.010638 0.567172
vt 0.223161 0.567016
vt 0.496123 0.567175
vt 0.010637 0.307353
vt 0.607241 0.277748
vt 0.607088 0.290494
vt 0.607050 0.277747
vt 0.283151 0.567170
vt 0.010762 0.307584
vt 0.322078 0.795372
vt 0.322362 0.587674
vt 0.322419 0.795715
vt 0.335458 0.587922
vt 0.335168 0.795742
vt 0.335111 0.587702
vt 0.229204 0.572785
vt 0.229042 0.301924
vt 0.501853 0.572833
vt 0.496123 0.301982
vt 0.501823 0.301784
vt 0.004718 0.301815
vt 0.004699 0.572676
vt 0.277334 0.301925
vt 0.277451 0.572817
vt 0.828508 0.845911
vt 0.828706 0.889886
vt 0.828307 0.889931
vt 0.432316 0.855022
vt 0.432519 0.899027
vt 0.432115 0.898980
vt 0.924735 0.279143
vt 0.933104 0.278990
vt 0.933383 0.279321
vt 0.831427 0.934043
vt 0.831193 0.889903
vt 0.831485 0.889934
vt 0.435268 0.942975
vt 0.435004 0.899005
vt 0.435292 0.898972
vt 0.689980 0.965665
vt 0.690191 0.980702
vt 0.689466 0.980702
vt 0.092363 0.978701
vt 0.092038 0.963528
vt 0.092531 0.963528
vt 0.387944 0.964974
vt 0.388643 0.980011
vt 0.387818 0.980011
vt 0.030423 0.978813
vt 0.029944 0.963558
vt 0.030437 0.963558
vt 0.762433 0.966574
vt 0.762644 0.981611
vt 0.761918 0.981611
vt 0.629425 0.979256
vt 0.629113 0.964083
vt 0.629606 0.964083
vt 0.990537 0.806531
vt 0.990481 0.791455
vt 0.990923 0.791486
vt 0.986200 0.077905
vt 0.985821 0.062868
vt 0.986421 0.062868
vt 0.988115 0.367051
vt 0.988060 0.351975
vt 0.988501 0.352006
vt 0.501924 0.582020
vt 0.501935 0.845437
vt 0.497306 0.845451
vt 0.497295 0.582020
vt 0.540539 0.004630
vt 0.277213 0.292479
vt 0.277210 0.004669
vt 0.857433 0.004555
vt 0.852530 0.290405
vt 0.852518 0.004552
vt 0.540541 0.292440
vt 0.268138 0.004630
vt 0.268140 0.292440
vt 0.004811 0.292478
vt 0.260992 0.867861
vt 0.261081 0.582205
vt 0.265895 0.582225
vt 0.004809 0.004669
vt 0.857344 0.290413
vt 0.852885 0.559200
vt 0.857225 0.301848
vt 0.857514 0.559205
vt 0.852509 0.301836
vt 0.265905 0.867877
vt 0.511335 0.565350
vt 0.726492 0.301818
vt 0.726556 0.565283
vt 0.840124 0.574587
vt 0.840115 0.836383
vt 0.732653 0.836518
vt 0.121138 0.792339
vt 0.228558 0.582425
vt 0.228571 0.792558
vt 0.121087 0.582129
vt 0.511271 0.301884
vt 0.732642 0.574793
vt 0.111984 0.582022
vt 0.112013 0.797159
vt 0.004541 0.797093
vt 0.764970 0.004709
vt 0.765034 0.268173
vt 0.549813 0.268241
vt 0.735758 0.563457
vt 0.843245 0.301990
vt 0.843254 0.563531
vt 0.735770 0.301844
vt 0.549749 0.004776
vt 0.004552 0.582020
vt 0.884443 0.004835
vt 0.880393 0.262119
vt 0.916405 0.682786
vt 0.916344 0.682819
vt 0.916692 0.890547
vt 0.912519 0.890538
vt 0.912519 0.683058
vt 0.880393 0.004814
vt 0.911298 0.589933
vt 0.911298 0.377536
vt 0.915184 0.377250
vt 0.870639 0.004838
vt 0.866592 0.262508
vt 0.866593 0.004814
vt 0.601586 0.277478
vt 0.487960 0.582309
vt 0.487960 0.794705
vt 0.474867 0.794704
vt 0.601334 0.290515
vt 0.601301 0.277766
vt 0.283151 0.307299
vt 0.283438 0.307585
vt 0.915123 0.377250
vt 0.915471 0.589933
vt 0.312802 0.582134
vt 0.586302 0.290517
vt 0.586302 0.277769
vt 0.238453 0.582305
vt 0.251489 0.582028
vt 0.251833 0.582370
vt 0.452717 0.789831
vt 0.452365 0.582197
vt 0.465538 0.582082
vt 0.681864 0.277829
vt 0.687334 0.290860
vt 0.681870 0.290576
vt 0.687619 0.277823
vt 0.687619 0.290572
vt 0.465521 0.582362
vt 0.465466 0.790089
vt 0.586587 0.277483
vt 0.299925 0.582025
vt 0.299858 0.806461
vt 0.312862 0.806513
vt 0.474918 0.582065
vt 0.487673 0.582022
vt 0.322294 0.801239
vt 0.667049 0.277813
vt 0.672807 0.277822
vt 0.672807 0.290570
vt 0.672522 0.290856
vt 0.667054 0.290559
vt 0.843116 0.004708
vt 0.830181 0.274158
vt 0.830227 0.004612
vt 0.843062 0.274085
vt 0.335168 0.801396
vt 0.820830 0.273941
vt 0.807795 0.274251
vt 0.807452 0.273909
vt 0.335239 0.582132
vt 0.322362 0.582020
vt 0.277662 0.851446
vt 0.290296 0.582113
vt 0.290422 0.851470
vt 0.277536 0.582087
vt 0.866663 0.301731
vt 0.907052 0.368098
vt 0.866674 0.368163
vt 0.767123 0.916487
vt 0.761786 0.957291
vt 0.761759 0.916519
vt 0.907041 0.301667
vt 0.121190 0.877375
vt 0.126541 0.943692
vt 0.121166 0.943687
vt 0.126565 0.877380
vt 0.171060 0.801684
vt 0.211541 0.868103
vt 0.171074 0.868106
vt 0.767149 0.957258
vt 0.178879 0.877565
vt 0.183982 0.943692
vt 0.178878 0.943519
vt 0.184009 0.877380
vt 0.211564 0.801797
vt 0.678130 0.913709
vt 0.672793 0.954512
vt 0.672766 0.913741
vt 0.678157 0.954480
vt 0.511200 0.843207
vt 0.546650 0.904268
vt 0.511314 0.904254
vt 0.546593 0.843207
vt 0.644867 0.843226
vt 0.680171 0.904274
vt 0.644860 0.904282
vt 0.680176 0.843219
vt 0.964548 0.150688
vt 0.966099 0.150689
vt 0.966081 0.214234
vt 0.964552 0.214285
vt 0.912526 0.607002
vt 0.914062 0.606999
vt 0.914041 0.670545
vt 0.912540 0.670599
vt 0.925758 0.900309
vt 0.927310 0.900310
vt 0.927292 0.963855
vt 0.953202 0.279181
vt 0.954738 0.279178
vt 0.954717 0.342724
vt 0.953216 0.342778
vt 0.925762 0.963906
vt 0.104048 0.899177
vt 0.105600 0.899177
vt 0.105582 0.962723
vt 0.948368 0.878744
vt 0.949905 0.878741
vt 0.949883 0.942287
vt 0.104052 0.962774
vt 0.948382 0.942341
vt 0.959833 0.225375
vt 0.956937 0.269155
vt 0.956909 0.225383
vt 0.959805 0.269182
vt 0.834658 0.283639
vt 0.834836 0.292306
vt 0.831968 0.292282
vt 0.216097 0.877488
vt 0.207510 0.921657
vt 0.207480 0.877521
vt 0.832159 0.283605
vt 0.088517 0.882137
vt 0.079930 0.926306
vt 0.079900 0.882170
vt 0.088547 0.926273
vt 0.207440 0.974942
vt 0.210361 0.931288
vt 0.210364 0.974942
vt 0.207437 0.931289
vt 0.927365 0.662405
vt 0.927452 0.670702
vt 0.924584 0.670675
vt 0.924628 0.662405
vt 0.216127 0.921624
vt 0.447219 0.804117
vt 0.487699 0.870536
vt 0.447232 0.870539
vt 0.487722 0.804230
vt 0.377839 0.855684
vt 0.383215 0.855689
vt 0.383191 0.922001
vt 0.663594 0.913709
vt 0.658256 0.954513
vt 0.658230 0.913741
vt 0.849273 0.758887
vt 0.889661 0.825254
vt 0.849284 0.825318
vt 0.889650 0.758823
vt 0.150343 0.877566
vt 0.155474 0.877380
vt 0.155446 0.943692
vt 0.663620 0.954480
vt 0.694670 0.915578
vt 0.689333 0.956382
vt 0.689306 0.915610
vt 0.377816 0.921996
vt 0.694697 0.956349
vt 0.150342 0.943519
vt 0.866644 0.377380
vt 0.902094 0.438441
vt 0.866758 0.438427
vt 0.902038 0.377380
vt 0.732717 0.846004
vt 0.768025 0.845996
vt 0.768020 0.907052
vt 0.732710 0.907060
vt 0.953332 0.564330
vt 0.954847 0.627873
vt 0.953346 0.627927
vt 0.954868 0.564327
vt 0.937054 0.900309
vt 0.938588 0.963855
vt 0.937058 0.963906
vt 0.938606 0.900310
vt 0.963419 0.486104
vt 0.964971 0.486105
vt 0.964953 0.549650
vt 0.963423 0.549701
vt 0.953731 0.004720
vt 0.955267 0.004717
vt 0.955246 0.068263
vt 0.953745 0.068317
vt 0.964548 0.077703
vt 0.966099 0.077703
vt 0.966081 0.141249
vt 0.953731 0.077706
vt 0.955246 0.141248
vt 0.953745 0.141302
vt 0.955267 0.077703
vt 0.964552 0.141300
vt 0.896374 0.283157
vt 0.896552 0.291824
vt 0.893683 0.291800
vt 0.489002 0.920400
vt 0.486106 0.964179
vt 0.486078 0.920407
vt 0.488974 0.964207
vt 0.038627 0.882180
vt 0.030040 0.926349
vt 0.030010 0.882213
vt 0.893874 0.283123
vt 0.308324 0.886224
vt 0.299737 0.930394
vt 0.299707 0.886258
vt 0.308354 0.930361
vt 0.852018 0.983002
vt 0.849237 0.991273
vt 0.849281 0.983002
vt 0.968942 0.269342
vt 0.971863 0.225688
vt 0.971866 0.269342
vt 0.852105 0.991300
vt 0.968939 0.225688
vt 0.038657 0.926316
vt 0.004620 0.806377
vt 0.045101 0.872795
vt 0.004634 0.872798
vt 0.045124 0.806490
vt 0.918543 0.191809
vt 0.923918 0.191814
vt 0.923894 0.258126
vt 0.634521 0.913709
vt 0.629184 0.954513
vt 0.629157 0.913741
vt 0.918519 0.258121
vt 0.738050 0.916487
vt 0.732713 0.957291
vt 0.732686 0.916519
vt 0.738077 0.957258
vt 0.634548 0.954480
vt 0.193147 0.877565
vt 0.198277 0.877379
vt 0.198250 0.943692
vt 0.193146 0.943519
vt 0.849273 0.834499
vt 0.889661 0.900867
vt 0.849284 0.900931
vt 0.889650 0.834435
vt 0.299714 0.815763
vt 0.335164 0.876825
vt 0.299828 0.876811
vt 0.335107 0.815763
vt 0.600398 0.843226
vt 0.635706 0.843219
vt 0.635701 0.904274
vt 0.600391 0.904282
vt 0.950483 0.377441
vt 0.952019 0.377438
vt 0.951998 0.440984
vt 0.961300 0.377438
vt 0.962834 0.440984
vt 0.961304 0.441034
vt 0.962852 0.377439
vt 0.950497 0.441038
vt 0.964019 0.279178
vt 0.965571 0.279179
vt 0.965553 0.342724
vt 0.964023 0.342775
vt 0.953731 0.150691
vt 0.955267 0.150688
vt 0.955246 0.214234
vt 0.953745 0.214288
vt 0.964149 0.564327
vt 0.965701 0.564327
vt 0.965683 0.627873
vt 0.958775 0.682978
vt 0.960290 0.746521
vt 0.958789 0.746575
vt 0.960311 0.682975
vt 0.964153 0.627923
vt 0.810625 0.291874
vt 0.807451 0.292034
vt 0.810625 0.283441
vt 0.831376 0.845901
vt 0.933364 0.608746
vt 0.822575 0.283521
vt 0.822855 0.292047
vt 0.819962 0.292168
vt 0.924934 0.608740
vt 0.933521 0.564360
vt 0.819682 0.283642
vt 0.924528 0.608739
vt 0.828694 0.934159
vt 0.933246 0.323592
vt 0.924693 0.367978
vt 0.924815 0.323591
vt 0.828794 0.845859
vt 0.933651 0.323591
vt 0.807451 0.283601
vt 0.807731 0.283308
vt 0.933242 0.368040
vt 0.908393 0.283149
vt 0.908449 0.291744
vt 0.905890 0.291850
vt 0.905836 0.283255
vt 0.435002 0.854987
vt 0.432603 0.854986
vt 0.121170 0.801684
vt 0.161651 0.868103
vt 0.121184 0.868106
vt 0.161674 0.801797
vt 0.135822 0.877375
vt 0.141197 0.877380
vt 0.141174 0.943692
vt 0.649057 0.913709
vt 0.643720 0.954512
vt 0.643693 0.913741
vt 0.054511 0.806402
vt 0.094899 0.872769
vt 0.054522 0.872833
vt 0.752586 0.916487
vt 0.747249 0.957291
vt 0.747222 0.916519
vt 0.094888 0.806338
vt 0.135798 0.943687
vt 0.752613 0.957258
vt 0.164611 0.877565
vt 0.169714 0.943692
vt 0.164610 0.943519
vt 0.649084 0.954480
vt 0.169741 0.877380
vt 0.866644 0.447754
vt 0.902038 0.447754
vt 0.902094 0.508816
vt 0.866758 0.508802
vt 0.555928 0.843226
vt 0.591237 0.843219
vt 0.591232 0.904274
vt 0.555921 0.904282
vt 0.958834 0.791646
vt 0.960349 0.855189
vt 0.958848 0.855244
vt 0.912528 0.900011
vt 0.914062 0.963557
vt 0.912532 0.963608
vt 0.960370 0.791643
vt 0.914080 0.900011
vt 0.959203 0.878744
vt 0.960718 0.942287
vt 0.959217 0.942341
vt 0.960740 0.878741
vt 0.969592 0.682975
vt 0.971144 0.682975
vt 0.971126 0.746521
vt 0.969596 0.746572
vt 0.964548 0.004717
vt 0.966099 0.004717
vt 0.966081 0.068263
vt 0.952602 0.486107
vt 0.954117 0.549650
vt 0.952616 0.549704
vt 0.964552 0.068314
vt 0.954139 0.486104
vt 0.864048 0.983002
vt 0.861268 0.991271
vt 0.861311 0.983002
vt 0.864002 0.991193
vt 0.924971 0.564291
vt 0.432606 0.943021
vt 0.399008 0.582101
vt 0.442777 0.665638
vt 0.399026 0.665600
vt 0.947759 0.225558
vt 0.947786 0.269673
vt 0.942778 0.269706
vt 0.442758 0.582141
vt 0.715741 0.843411
vt 0.720660 0.926593
vt 0.715714 0.926377
vt 0.225909 0.801843
vt 0.225936 0.845958
vt 0.220928 0.845991
vt 0.399008 0.674885
vt 0.442727 0.674812
vt 0.442743 0.758322
vt 0.104143 0.806413
vt 0.109138 0.889824
vt 0.104119 0.889813
vt 0.109162 0.806425
vt 0.220901 0.801876
vt 0.399022 0.758395
vt 0.942751 0.225591
vt 0.720687 0.843194
vt 0.398942 0.767745
vt 0.437326 0.845355
vt 0.398951 0.845305
vt 0.437322 0.767793
vt 0.344554 0.768723
vt 0.382912 0.846245
vt 0.344564 0.846296
vt 0.382907 0.768673
vt 0.500364 0.854874
vt 0.501707 0.932537
vt 0.500376 0.932590
vt 0.942680 0.564329
vt 0.944053 0.564328
vt 0.944039 0.641994
vt 0.942683 0.642044
vt 0.501724 0.854871
vt 0.734980 0.277705
vt 0.737249 0.277728
vt 0.737226 0.292118
vt 0.734950 0.292094
vt 0.711900 0.277701
vt 0.714199 0.292119
vt 0.711873 0.292091
vt 0.714227 0.277730
vt 0.746458 0.277705
vt 0.748704 0.292118
vt 0.746428 0.292094
vt 0.748728 0.277728
vt 0.723436 0.277701
vt 0.725762 0.277730
vt 0.725734 0.292119
vt 0.723408 0.292091
vt 0.918444 0.182623
vt 0.923994 0.004840
vt 0.924001 0.182622
vt 0.362581 0.582251
vt 0.362558 0.759133
vt 0.344585 0.759141
vt 0.121279 0.952971
vt 0.126463 0.970931
vt 0.121092 0.970976
vt 0.126480 0.952955
vt 0.918436 0.004841
vt 0.963376 0.951672
vt 0.968880 0.951640
vt 0.968869 0.969615
vt 0.344609 0.582260
vt 0.963364 0.969648
vt 0.930090 0.377273
vt 0.924541 0.555057
vt 0.924533 0.377275
vt 0.930098 0.555055
vt 0.371778 0.758999
vt 0.371801 0.582242
vt 0.389776 0.582282
vt 0.389753 0.759036
vt 0.908892 0.004528
vt 0.906165 0.273661
vt 0.906121 0.004529
vt 0.909288 0.273716
vt 0.432115 0.975427
vt 0.432200 0.952319
vt 0.435318 0.952390
vt 0.238711 0.572897
vt 0.238655 0.301751
vt 0.262292 0.301653
vt 0.971924 0.450235
vt 0.968721 0.473813
vt 0.968677 0.450235
vt 0.971839 0.473869
vt 0.262293 0.572945
vt 0.896868 0.004548
vt 0.893761 0.273856
vt 0.893909 0.004534
vt 0.798135 0.004594
vt 0.798190 0.275740
vt 0.774495 0.275788
vt 0.896884 0.273904
vt 0.435362 0.975434
vt 0.774439 0.004643
vt 0.386775 0.931404
vt 0.377761 0.955626
vt 0.377829 0.931364
vt 0.064671 0.922796
vt 0.064711 0.947209
vt 0.054573 0.947251
vt 0.386754 0.955679
vt 0.576956 0.277478
vt 0.568092 0.287246
vt 0.568205 0.277478
vt 0.625049 0.277478
vt 0.625049 0.287281
vt 0.616298 0.287281
vt 0.616298 0.277478
vt 0.054534 0.922838
vt 0.828307 0.967763
vt 0.837303 0.943632
vt 0.837335 0.967770
vt 0.828355 0.943580
vt 0.577123 0.287293
vt 0.466745 0.945034
vt 0.466706 0.920621
vt 0.476843 0.920578
vt 0.476883 0.944991
vt 0.953305 0.661551
vt 0.962300 0.637419
vt 0.962332 0.661557
vt 0.953353 0.637367
vt 0.558608 0.277478
vt 0.558775 0.287293
vt 0.549744 0.287246
vt 0.447281 0.945034
vt 0.447242 0.920621
vt 0.457379 0.920578
vt 0.014781 0.922839
vt 0.004683 0.947294
vt 0.004643 0.922881
vt 0.642858 0.277478
vt 0.634107 0.287281
vt 0.634107 0.277478
vt 0.959503 0.450475
vt 0.950490 0.474698
vt 0.950558 0.450435
vt 0.014820 0.947251
vt 0.642858 0.287281
vt 0.549857 0.277478
vt 0.457419 0.944991
vt 0.959482 0.474750
vt 0.777157 0.846126
vt 0.793557 0.908797
vt 0.777186 0.908805
vt 0.793542 0.846119
vt 0.874282 0.534801
vt 0.891867 0.534838
vt 0.891829 0.597523
vt 0.866592 0.271565
vt 0.882762 0.288814
vt 0.866592 0.288814
vt 0.874262 0.597484
vt 0.333648 0.936471
vt 0.317477 0.919222
vt 0.333648 0.919222
vt 0.317477 0.936471
vt 0.802761 0.846130
vt 0.819142 0.908770
vt 0.802784 0.908818
vt 0.819135 0.846083
vt 0.882762 0.271565
vt 0.689344 0.843341
vt 0.706524 0.843342
vt 0.706486 0.906027
vt 0.689314 0.906024
vt 0.227790 0.891661
vt 0.251661 0.860856
vt 0.251745 0.891672
vt 0.070761 0.882140
vt 0.054435 0.913295
vt 0.054431 0.882167
vt 0.227851 0.860815
vt 0.344515 0.896086
vt 0.360784 0.919588
vt 0.344515 0.919589
vt 0.398903 0.895526
vt 0.414914 0.919148
vt 0.398906 0.919029
vt 0.414938 0.895339
vt 0.488885 0.879923
vt 0.472558 0.911078
vt 0.472554 0.879950
vt 0.422884 0.854886
vt 0.422883 0.885843
vt 0.399077 0.885863
vt 0.488889 0.911051
vt 0.070765 0.913268
vt 0.399078 0.854912
vt 0.360784 0.896085
vt 0.302545 0.956023
vt 0.296342 0.955044
vt 0.292277 0.948148
vt 0.296255 0.940821
vt 0.304591 0.940940
vt 0.308420 0.948174
vt 0.306428 0.953898
vt 0.350420 0.945019
vt 0.345459 0.940897
vt 0.345488 0.933072
vt 0.352606 0.928705
vt 0.359760 0.932962
vt 0.359544 0.941085
vt 0.354846 0.945115
vt 0.953248 0.352221
vt 0.956244 0.352206
vt 0.956258 0.365117
vt 0.965455 0.352220
vt 0.968463 0.365109
vt 0.965470 0.365133
vt 0.968449 0.352197
vt 0.953264 0.365133
vt 0.137915 0.983470
vt 0.135676 0.986043
vt 0.135848 0.983469
vt 0.138118 0.986085
vt 0.359061 0.954216
vt 0.358997 0.975232
vt 0.356583 0.975195
vt 0.183770 0.953120
vt 0.186609 0.974147
vt 0.183807 0.974186
vt 0.868906 0.517999
vt 0.866668 0.520573
vt 0.866839 0.517999
vt 0.869110 0.520614
vt 0.470272 0.975128
vt 0.470336 0.954580
vt 0.472749 0.954630
vt 0.186571 0.953081
vt 0.356545 0.954216
vt 0.138487 0.974148
vt 0.135685 0.974187
vt 0.135648 0.953120
vt 0.138450 0.953081
vt 0.472787 0.975133
vt 0.149945 0.983470
vt 0.149024 0.986066
vt 0.147878 0.983469
vt 0.460057 0.954314
vt 0.461151 0.975330
vt 0.458737 0.975293
vt 0.398970 0.954217
vt 0.401809 0.975244
vt 0.399008 0.975283
vt 0.150518 0.974147
vt 0.147716 0.974187
vt 0.147678 0.953120
vt 0.150480 0.953081
vt 0.880565 0.517999
vt 0.879645 0.520595
vt 0.878497 0.517999
vt 0.401772 0.954178
vt 0.005686 0.977390
vt 0.004592 0.956840
vt 0.007006 0.956890
vt 0.463469 0.879923
vt 0.447143 0.911078
vt 0.447139 0.879950
vt 0.227676 0.900758
vt 0.243945 0.900758
vt 0.243945 0.924260
vt 0.463473 0.911051
vt 0.261006 0.908017
vt 0.261067 0.877171
vt 0.284876 0.877212
vt 0.227676 0.924261
vt 0.368496 0.855805
vt 0.344689 0.886782
vt 0.344690 0.855831
vt 0.368495 0.886762
vt 0.284961 0.908028
vt 0.020871 0.882183
vt 0.004545 0.913338
vt 0.004541 0.882210
vt 0.317477 0.886367
vt 0.333488 0.909989
vt 0.317480 0.909870
vt 0.333512 0.886181
vt 0.020875 0.913311
vt 0.238087 0.949673
vt 0.231884 0.948695
vt 0.227819 0.941799
vt 0.231796 0.934472
vt 0.240132 0.934591
vt 0.243962 0.941825
vt 0.241970 0.947549
vt 0.404808 0.944755
vt 0.399847 0.940632
vt 0.399875 0.932808
vt 0.406994 0.928440
vt 0.414148 0.932698
vt 0.413932 0.940821
vt 0.409234 0.944851
vt 0.757911 0.277725
vt 0.760920 0.290619
vt 0.757926 0.290635
vt 0.760906 0.277709
vt 0.079908 0.963486
vt 0.082915 0.976375
vt 0.079923 0.976399
vt 0.082901 0.963463
vt 0.198067 0.983155
vt 0.195828 0.985728
vt 0.196000 0.983154
vt 0.198270 0.985770
vt 0.198249 0.952855
vt 0.198185 0.973870
vt 0.195771 0.973833
vt 0.411000 0.954217
vt 0.413840 0.975244
vt 0.411038 0.975283
vt 0.955640 0.670615
vt 0.953402 0.673188
vt 0.953572 0.670614
vt 0.955843 0.673230
vt 0.065991 0.977345
vt 0.066055 0.956797
vt 0.068469 0.956847
vt 0.413802 0.954178
vt 0.195733 0.952855
vt 0.174579 0.974147
vt 0.171739 0.953120
vt 0.174541 0.953081
vt 0.171777 0.974187
vt 0.068507 0.977350
vt 0.161604 0.983470
vt 0.159364 0.986044
vt 0.159536 0.983469
vt 0.162548 0.974147
vt 0.159746 0.974187
vt 0.159709 0.953120
vt 0.161807 0.986085
vt 0.054419 0.977345
vt 0.056896 0.956847
vt 0.056934 0.977350
vt 0.449642 0.954314
vt 0.449578 0.975330
vt 0.447165 0.975293
vt 0.344582 0.954481
vt 0.347422 0.975509
vt 0.344620 0.975548
vt 0.054483 0.956797
vt 0.961142 0.864441
vt 0.958904 0.867015
vt 0.959074 0.864441
vt 0.961346 0.867056
vt 0.347384 0.954442
vt 0.162511 0.953081
vt 0.447127 0.954314
vt 0.277445 0.862564
vt 0.278665 0.860725
vt 0.279726 0.862659
vt 0.927731 0.890773
vt 0.926120 0.890981
vt 0.926008 0.791743
vt 0.927812 0.791588
vt 0.784410 0.288923
vt 0.783367 0.290714
vt 0.782136 0.288790
vt 0.900459 0.858159
vt 0.898801 0.759083
vt 0.900328 0.759079
vt 0.944128 0.103982
vt 0.942409 0.004814
vt 0.943877 0.004654
vt 0.942409 0.103835
vt 0.898862 0.858338
vt 0.927407 0.782152
vt 0.925810 0.782331
vt 0.925749 0.683076
vt 0.927277 0.683072
vt 0.793957 0.289750
vt 0.795176 0.287911
vt 0.796238 0.289845
vt 0.944128 0.212635
vt 0.942409 0.212488
vt 0.942409 0.113467
vt 0.943877 0.113308
vt 0.772574 0.288923
vt 0.771531 0.290714
vt 0.770300 0.288790
vt 0.939027 0.890773
vt 0.937304 0.791744
vt 0.939108 0.791588
vt 0.937417 0.890981
vt 0.874334 0.682898
vt 0.903354 0.749625
vt 0.874359 0.749625
vt 0.903088 0.943651
vt 0.903117 0.972885
vt 0.898868 0.972921
vt 0.903330 0.682899
vt 0.939281 0.486043
vt 0.943423 0.552695
vt 0.939253 0.552682
vt 0.874334 0.606940
vt 0.903334 0.673600
vt 0.874359 0.673675
vt 0.903310 0.606865
vt 0.943455 0.486056
vt 0.719959 0.935990
vt 0.719988 0.965224
vt 0.715738 0.965260
vt 0.898839 0.943687
vt 0.898911 0.867580
vt 0.903151 0.934241
vt 0.898881 0.934219
vt 0.903181 0.867602
vt 0.715709 0.936026
vt 0.079994 0.935814
vt 0.092602 0.953952
vt 0.080001 0.953959
vt 0.092599 0.935806
vt 0.958748 0.755772
vt 0.964826 0.755772
vt 0.964806 0.773810
vt 0.657972 0.277618
vt 0.651935 0.290350
vt 0.651930 0.277587
vt 0.702710 0.277480
vt 0.696696 0.290003
vt 0.696731 0.277478
vt 0.030105 0.935864
vt 0.042702 0.953973
vt 0.030110 0.954012
vt 0.042702 0.935825
vt 0.958763 0.773774
vt 0.948341 0.951551
vt 0.954278 0.951538
vt 0.954278 0.969434
vt 0.948341 0.969447
vt 0.702738 0.290038
vt 0.657977 0.290381
vt 0.970466 0.865013
vt 0.465235 0.582047
vt 0.986749 0.165477
vt 0.986184 0.165622
vt 0.986447 0.150510
vt 0.985821 0.038487
vt 0.986421 0.038488
vt 0.986200 0.053524
vt 0.880393 0.004528
vt 0.866592 0.004528
vt 0.933352 0.004780
vt 0.592213 0.290585
vt 0.299641 0.588098
vt 0.487675 0.582021
vt 0.607241 0.290553
vt 0.322078 0.587892
vt 0.335458 0.795401
vt 0.432548 0.854882
vt 0.924528 0.323591
vt 0.986004 0.004683
vt 0.986428 0.004813
vt 0.986106 0.029271
vt 0.980400 0.839409
vt 0.981058 0.839538
vt 0.980379 0.863940
vt 0.985475 0.313103
vt 0.985899 0.313233
vt 0.985577 0.337690
vt 0.016393 0.956732
vt 0.017051 0.956861
vt 0.016372 0.981263
vt 0.985605 0.598252
vt 0.986029 0.598382
vt 0.985707 0.622840
vt 0.981273 0.450393
vt 0.981930 0.450522
vt 0.981252 0.474924
vt 0.985605 0.564293
vt 0.986029 0.564423
vt 0.985707 0.588881
vt 0.981667 0.637282
vt 0.982325 0.637411
vt 0.981646 0.661813
vt 0.486984 0.988480
vt 0.486419 0.988625
vt 0.486682 0.973513
vt 0.292689 0.980244
vt 0.292135 0.980243
vt 0.292545 0.965207
vt 0.302675 0.980244
vt 0.302121 0.980243
vt 0.302531 0.965207
vt 0.926678 0.988080
vt 0.926113 0.988225
vt 0.926376 0.973113
vt 0.733196 0.981611
vt 0.732642 0.981611
vt 0.733052 0.966575
vt 0.986749 0.214118
vt 0.986184 0.214263
vt 0.986447 0.199151
vt 0.752283 0.981611
vt 0.751728 0.981611
vt 0.752139 0.966575
vt 0.986084 0.087249
vt 0.986750 0.087248
vt 0.986520 0.102285
vt 0.659546 0.979320
vt 0.659071 0.979120
vt 0.659407 0.964083
vt 0.980599 0.968487
vt 0.981407 0.968487
vt 0.980844 0.983523
vt 0.669724 0.979120
vt 0.669057 0.979120
vt 0.669213 0.964083
vt 0.986084 0.111629
vt 0.986750 0.111629
vt 0.986520 0.126665
vt 0.378184 0.980498
vt 0.377728 0.980298
vt 0.378064 0.965261
vt 0.916408 0.890765
vt 0.916692 0.683067
vt 0.487615 0.794991
vt 0.601677 0.290858
vt 0.915471 0.377537
vt 0.586643 0.290861
vt 0.238455 0.851186
vt 0.238740 0.582020
vt 0.251548 0.851536
vt 0.238799 0.851528
vt 0.251835 0.851251
vt 0.687277 0.277479
vt 0.807744 0.004553
vt 0.820491 0.004529
vt 0.807457 0.004839
vt 0.820835 0.004870
vt 0.672466 0.277478
vt 0.820543 0.274226
vt 0.810345 0.292168
vt 0.822855 0.283809
vt 0.819682 0.291880
s 1
usemtl shop_006_baked
f 1/1/1 2/2/1 3/3/1
f 1/1/1 3/3/1 4/4/1
f 26/5/2 28/6/3 25/7/4
f 32/8/5 34/9/5 31/10/5
f 37/11/6 39/12/6 36/13/6
f 40/14/7 42/15/7 43/16/7
f 47/17/8 49/18/8 46/19/8
f 50/20/9 52/21/9 53/22/9
f 57/23/10 59/24/10 56/25/10
f 61/26/8 63/27/8 64/28/8
f 66/29/11 67/30/11 68/31/11
f 69/32/12 71/33/12 72/34/12
f 74/35/13 76/36/13 73/37/13
f 79/38/14 80/39/14 78/40/14
f 59/24/15 60/41/16 56/25/17
f 178/42/18 176/43/18 177/44/18
f 61/45/19 21/46/19 22/47/19
f 47/17/8 64/28/8 63/27/8
f 30/48/20 37/49/20 29/50/20
f 26/51/21 39/52/21 38/53/21
f 23/54/22 30/55/23 29/56/24
f 24/57/25 22/58/26 21/59/27
f 44/60/28 40/14/29 43/16/29
f 45/61/30 48/62/30 44/63/30
f 31/64/31 48/65/31 47/17/31
f 53/66/32 36/67/32 50/68/32
f 73/69/33 42/70/33 74/71/33
f 31/10/34 52/21/34 32/8/34
f 35/72/35 45/73/36 44/60/37
f 68/31/38 62/74/38 66/29/38
f 54/75/39 69/32/40 72/34/40
f 55/76/41 27/77/41 54/78/41
f 78/40/42 27/79/42 26/5/42
f 60/41/43 55/80/44 54/75/45
f 56/81/46 71/82/46 57/83/46
f 78/84/47 67/85/47 79/86/47
f 41/87/48 59/24/49 58/88/50
f 65/89/51 34/90/52 33/91/53
f 70/92/54 76/36/55 75/93/56
f 51/94/57 80/39/58 77/95/59
f 174/96/60 171/97/60 172/98/60
f 177/99/61 207/100/61 208/101/61
f 175/102/62 173/103/62 174/104/62
f 203/105/63 170/106/63 169/107/63
f 210/108/64 206/109/64 205/110/64
f 308/111/65 309/112/65 310/113/65
f 308/114/65 310/115/65 309/116/65
f 311/117/65 312/118/65 313/119/65
f 311/120/65 313/121/65 312/122/65
f 317/123/65 318/124/65 319/125/65
f 317/126/65 319/127/65 318/128/65
f 353/129/65 355/130/65 354/131/65
f 353/132/65 354/133/65 355/134/65
f 367/135/66 366/136/67 365/137/68
f 6/138/69 7/139/70 5/140/71
f 6/138/69 5/140/71 12/141/72
f 5/142/71 9/143/73 12/144/72
f 7/145/70 10/146/74 5/147/71
f 5/142/71 10/148/74 9/143/73
f 6/149/69 11/150/75 8/151/76
f 11/152/75 6/153/69 12/154/72
f 6/149/69 8/151/76 7/155/70
f 7/145/70 8/156/76 10/146/74
f 8/157/76 9/158/73 10/159/74
f 8/157/76 11/160/75 9/158/73
f 11/152/75 12/154/72 9/161/73
f 19/162/77 13/163/78 14/164/79
f 14/165/79 13/166/78 15/167/80
f 13/168/78 18/169/81 15/170/80
f 13/168/78 16/171/82 18/169/81
f 19/162/77 16/172/82 13/163/78
f 14/165/79 15/167/80 20/173/83
f 19/174/77 14/175/79 20/176/83
f 20/177/83 15/178/80 18/179/81
f 16/180/82 17/181/84 18/182/81
f 16/180/82 19/183/77 17/181/84
f 20/177/83 18/179/81 17/184/84
f 19/174/77 20/176/83 17/185/84
f 29/56/85 21/59/86 23/54/87
f 23/186/87 21/46/86 64/187/88
f 28/188/89 27/189/89 63/190/89
f 22/191/26 24/192/25 28/188/90
f 29/56/85 24/57/91 21/59/86
f 23/186/87 64/187/88 46/193/92
f 30/194/23 23/195/22 49/196/93
f 24/197/91 38/198/94 25/199/95
f 24/197/91 29/50/85 38/198/94
f 63/27/96 78/40/96 26/5/96
f 47/17/96 63/27/96 26/5/96
f 69/200/97 54/78/98 27/77/99
f 63/201/100 26/202/100 55/203/44
f 79/204/101 71/205/101 27/77/99
f 47/17/102 38/206/102 37/207/102
f 49/196/103 48/208/103 37/209/103
f 42/70/104 33/210/104 32/8/104
f 32/211/1 42/212/1 48/62/105
f 31/64/96 47/17/96 37/207/96
f 74/71/100 42/70/100 32/8/100
f 74/71/100 32/8/100 52/21/100
f 31/64/96 37/207/96 53/66/96
f 40/213/101 32/214/101 34/215/101
f 45/216/36 35/217/35 39/218/106
f 35/219/107 50/220/108 36/221/109
f 35/219/107 74/222/110 52/223/111
f 73/37/112 35/72/113 44/60/28
f 39/218/114 37/224/114 48/225/114
f 40/226/115 44/63/116 48/62/105
f 73/37/112 44/60/28 43/16/29
f 42/70/117 41/227/48 33/210/53
f 75/228/118 74/71/118 52/21/118
f 75/228/56 52/21/119 51/229/57
f 54/75/39 72/34/40 56/25/17
f 55/203/44 60/230/43 61/231/120
f 54/75/39 56/25/17 60/41/16
f 58/232/121 57/83/121 67/85/121
f 60/233/122 57/234/123 67/235/124
f 57/83/125 79/86/125 67/85/125
f 57/83/125 71/82/125 79/86/125
f 60/233/122 66/236/126 62/237/127
f 63/27/96 68/31/96 78/40/96
f 41/238/48 65/239/51 33/240/53
f 41/238/48 58/241/50 65/239/51
f 58/232/50 67/85/128 65/242/51
f 69/243/1 79/244/1 80/245/1
f 71/82/129 77/246/129 79/86/129
f 71/82/130 70/247/54 77/246/59
f 70/248/54 51/249/57 77/250/59
f 70/248/54 75/251/56 51/249/57
f 86/252/131 81/253/132 83/254/133
f 82/255/134 83/256/133 81/257/132
f 86/252/131 85/258/135 81/253/132
f 85/259/135 82/260/134 81/261/132
f 85/259/135 88/262/136 82/260/134
f 88/263/136 84/264/137 82/265/134
f 82/255/134 84/266/137 83/256/133
f 87/267/138 83/268/133 84/269/137
f 87/267/138 86/270/131 83/268/133
f 88/263/136 87/271/138 84/264/137
f 85/272/135 87/273/138 88/274/136
f 85/272/135 86/275/131 87/273/138
f 89/276/139 92/277/140 91/278/141
f 89/276/139 90/279/142 92/277/140
f 90/280/142 91/281/141 92/282/140
f 90/280/142 89/283/139 91/281/141
f 94/284/143 95/285/144 93/286/145
f 94/284/143 93/286/145 96/287/146
f 95/288/144 94/289/143 96/290/146
f 95/288/144 96/290/146 93/291/145
f 99/292/147 97/293/148 100/294/149
f 97/295/148 99/296/147 98/297/150
f 97/295/148 98/297/150 100/298/149
f 99/292/147 100/294/149 98/299/150
f 102/300/151 101/301/152 103/302/153
f 101/303/152 102/304/151 104/305/154
f 102/300/151 103/302/153 104/306/154
f 101/303/152 104/305/154 103/307/153
f 105/308/155 110/309/156 106/310/157
f 105/308/155 111/311/158 110/309/156
f 112/312/159 105/313/155 106/314/157
f 112/315/160 111/316/161 105/317/162
f 112/312/159 106/314/157 107/318/163
f 106/319/164 108/320/165 107/321/166
f 106/319/164 110/322/167 108/320/165
f 109/323/168 107/324/163 108/325/169
f 109/323/168 112/326/159 107/324/163
f 111/327/158 109/328/168 108/329/169
f 111/327/158 108/329/169 110/330/156
f 112/315/160 109/331/170 111/316/161
f 113/332/136 116/333/137 119/334/134
f 113/332/136 118/335/138 116/333/137
f 117/336/135 113/337/136 119/338/134
f 117/339/135 118/340/138 113/341/136
f 114/342/131 115/343/132 120/344/133
f 114/342/131 117/345/135 115/343/132
f 118/346/138 114/347/131 120/348/133
f 117/339/135 114/349/131 118/340/138
f 119/350/134 120/351/133 115/352/132
f 117/336/135 119/338/134 115/353/132
f 119/350/134 116/354/137 120/351/133
f 118/346/138 120/348/133 116/355/137
f 121/356/171 124/357/172 122/358/173
f 121/356/171 123/359/174 124/357/172
f 123/360/174 121/361/171 122/362/173
f 123/360/174 122/362/173 124/363/172
f 128/364/148 127/365/150 125/366/149
f 128/364/148 126/367/147 127/365/150
f 126/368/147 125/369/149 127/370/150
f 126/368/147 128/371/148 125/369/149
f 131/372/143 129/373/144 132/374/175
f 131/372/143 132/374/175 130/375/146
f 129/376/144 131/377/143 130/378/146
f 129/376/144 130/378/146 132/379/175
f 135/380/176 133/381/177 134/382/149
f 133/383/177 136/384/150 134/385/149
f 133/383/177 135/386/176 136/384/150
f 135/380/176 134/382/149 136/387/150
f 142/388/159 137/389/155 138/390/157
f 137/391/155 140/392/156 138/393/157
f 137/391/155 143/394/158 140/392/156
f 142/395/160 143/396/161 137/397/162
f 142/388/159 138/390/157 144/398/163
f 138/399/164 139/400/165 144/401/166
f 138/399/164 140/402/167 139/400/165
f 143/403/158 139/404/169 140/405/156
f 141/406/168 144/407/163 139/408/169
f 143/403/158 141/409/168 139/404/169
f 141/406/168 142/410/159 144/407/163
f 142/395/160 141/411/170 143/396/161
f 145/412/136 151/413/137 146/414/134
f 145/412/136 147/415/138 151/413/137
f 150/416/135 145/417/136 146/418/134
f 150/419/135 147/420/138 145/421/136
f 150/416/135 146/418/134 152/422/132
f 146/423/134 149/424/133 152/425/132
f 146/423/134 151/426/137 149/424/133
f 150/419/135 148/427/131 147/420/138
f 147/428/138 148/429/131 149/430/133
f 147/428/138 149/430/133 151/431/137
f 148/432/131 152/433/132 149/434/133
f 148/432/131 150/435/135 152/433/132
f 153/436/139 156/437/172 155/438/173
f 153/436/139 154/439/142 156/437/172
f 154/440/142 153/441/139 155/442/173
f 154/440/142 155/442/173 156/443/172
f 160/444/144 157/445/143 158/446/146
f 157/447/143 159/448/178 158/449/146
f 157/447/143 160/450/144 159/448/178
f 160/444/144 158/446/146 159/451/178
f 164/452/179 161/453/144 163/454/175
f 164/452/179 163/454/175 162/455/146
f 161/456/144 164/457/179 162/458/146
f 161/456/144 162/458/146 163/459/175
f 168/460/143 165/461/180 167/462/175
f 165/463/180 166/464/146 167/465/175
f 165/463/180 168/466/143 166/464/146
f 168/460/143 167/462/175 166/467/146
f 169/468/100 172/469/100 208/470/100
f 178/471/181 170/106/181 172/98/181
f 177/44/182 169/472/182 178/42/182
f 206/473/125 172/474/125 170/475/125
f 208/476/183 203/477/183 169/472/183
f 170/475/125 208/478/125 206/473/125
f 207/479/184 169/472/184 177/44/184
f 170/106/100 171/97/100 172/98/100
f 170/106/185 203/105/186 204/480/187
f 172/481/188 210/482/188 205/483/188
f 178/471/189 172/98/190 173/484/191
f 171/485/192 205/483/192 174/104/192
f 208/470/100 205/486/100 206/487/100
f 172/481/193 204/488/193 210/482/193
f 176/489/194 178/490/189 173/491/191
f 176/489/194 173/491/191 175/492/195
f 174/104/196 205/483/196 175/102/196
f 208/101/197 175/493/197 206/109/197
f 208/101/198 176/494/194 175/493/195
f 179/495/136 181/496/137 185/497/134
f 179/495/136 184/498/138 181/496/137
f 182/499/135 179/500/136 185/501/134
f 182/502/135 184/503/138 179/504/136
f 183/505/131 180/506/132 186/507/133
f 185/508/134 186/509/133 180/510/132
f 183/505/131 182/511/135 180/506/132
f 182/499/135 185/501/134 180/512/132
f 185/508/134 181/513/137 186/509/133
f 184/514/138 186/515/133 181/516/137
f 182/502/135 183/517/131 184/503/138
f 184/514/138 183/518/131 186/515/133
f 189/519/139 187/520/142 190/521/140
f 189/519/139 190/521/140 188/522/173
f 187/523/142 189/524/139 188/525/173
f 187/523/142 188/525/173 190/526/140
f 193/527/148 192/528/150 191/529/199
f 194/530/147 191/531/199 192/532/150
f 193/527/148 194/533/147 192/528/150
f 194/530/147 193/534/148 191/531/199
f 195/535/144 197/536/146 196/537/178
f 195/535/144 198/538/143 197/536/146
f 198/539/143 195/540/144 196/541/178
f 198/539/143 196/541/178 197/542/146
f 202/543/147 199/544/148 200/545/149
f 199/546/148 201/547/150 200/548/149
f 202/543/147 200/545/149 201/549/150
f 199/546/148 202/550/147 201/547/150
f 203/551/186 210/552/200 204/553/187
f 203/551/186 209/554/201 210/552/200
f 208/476/202 209/555/202 203/477/202
f 207/100/203 206/109/204 209/556/205
f 209/556/201 206/109/206 210/108/200
f 214/557/207 211/558/208 217/559/209
f 217/560/209 211/561/208 218/562/210
f 214/557/207 215/563/211 211/558/208
f 215/564/211 218/565/210 211/566/208
f 212/567/212 216/568/213 215/569/211
f 216/570/213 212/571/212 213/572/214
f 212/573/212 217/574/209 213/575/214
f 212/573/212 214/576/207 217/574/209
f 212/567/212 215/569/211 214/577/207
f 216/570/213 213/572/214 218/578/210
f 217/560/209 218/562/210 213/579/214
f 215/564/211 216/580/213 218/565/210
f 220/581/215 219/582/216 221/583/217
f 220/581/215 222/584/218 219/582/216
f 222/585/218 221/586/217 219/587/216
f 222/585/218 220/588/215 221/586/217
f 224/589/219 226/590/220 223/591/221
f 225/592/222 224/593/219 223/594/221
f 225/592/222 223/594/221 226/595/220
f 224/589/219 225/596/222 226/590/220
f 229/597/223 230/598/224 227/599/225
f 229/597/223 227/599/225 228/600/226
f 230/601/224 228/602/226 227/603/225
f 230/601/224 229/604/223 228/602/226
f 231/605/223 233/606/225 234/607/226
f 231/605/223 232/608/224 233/606/225
f 232/609/224 231/610/223 234/611/226
f 232/609/224 234/611/226 233/612/225
f 238/613/227 235/614/228 236/615/229
f 236/616/230 235/617/231 241/618/232
f 235/619/228 239/620/233 241/621/234
f 235/619/228 240/622/235 239/620/233
f 238/613/227 240/623/235 235/614/228
f 238/624/227 236/625/229 237/626/236
f 236/616/230 241/618/232 237/627/237
f 238/624/227 237/626/236 242/628/238
f 237/629/236 239/630/233 242/631/238
f 237/629/236 241/632/234 239/630/233
f 240/633/239 238/634/240 242/635/241
f 240/633/239 242/635/241 239/636/242
f 243/637/243 250/638/244 248/639/245
f 243/637/243 244/640/246 250/638/244
f 246/641/247 243/642/243 248/643/245
f 244/644/246 243/645/243 246/646/247
f 244/647/246 249/648/248 250/649/244
f 244/647/246 247/650/249 249/648/248
f 244/644/246 246/646/247 247/651/249
f 247/652/249 245/653/250 249/654/248
f 249/655/248 245/656/250 248/657/245
f 247/652/249 246/658/247 245/653/250
f 246/641/247 248/643/245 245/659/250
f 249/655/248 248/657/245 250/660/244
f 262/661/251 257/662/252 258/663/253
f 258/664/253 257/665/252 263/666/254
f 262/661/251 264/667/255 257/662/252
f 264/668/255 263/669/254 257/670/252
f 261/671/256 262/672/251 258/673/253
f 261/671/256 258/673/253 260/674/257
f 258/664/253 263/666/254 260/675/257
f 259/676/258 260/677/257 263/678/254
f 259/676/258 261/679/256 260/677/257
f 264/668/255 259/680/258 263/669/254
f 261/681/256 259/682/258 264/683/255
f 261/681/256 264/683/255 262/684/251
f 271/685/258 273/686/257 275/687/254
f 271/685/258 277/688/256 273/686/257
f 274/689/255 271/690/258 275/691/254
f 277/692/256 271/693/258 274/694/255
f 272/695/253 275/696/254 273/697/257
f 277/698/256 272/699/253 273/700/257
f 278/701/251 276/702/252 272/703/253
f 272/695/253 276/704/252 275/696/254
f 277/698/256 278/705/251 272/699/253
f 274/689/255 275/691/254 276/706/252
f 277/692/256 274/694/255 278/707/251
f 278/701/251 274/708/255 276/702/252
f 279/709/259 285/710/260 280/711/261
f 279/709/259 282/712/262 285/710/260
f 286/713/263 279/714/259 280/715/261
f 286/716/263 282/717/262 279/718/259
f 286/713/263 280/715/261 281/719/264
f 280/720/261 284/721/265 281/722/264
f 280/720/261 285/723/260 284/721/265
f 283/724/266 281/725/264 284/726/265
f 283/724/266 286/727/263 281/725/264
f 286/716/263 283/728/266 282/717/262
f 282/729/262 283/730/266 284/731/265
f 282/729/262 284/731/265 285/732/260
f 289/733/267 287/734/268 290/735/269
f 294/736/270 290/737/269 287/738/268
f 289/733/267 292/739/271 287/734/268
f 292/740/271 294/741/270 287/742/268
f 288/743/272 290/744/269 291/745/273
f 288/743/272 289/746/267 290/744/269
f 292/747/271 288/748/272 293/749/274
f 293/750/274 288/751/272 291/752/273
f 292/747/271 289/753/267 288/748/272
f 294/736/270 291/754/273 290/737/269
f 293/750/274 291/752/273 294/755/270
f 292/740/271 293/756/274 294/741/270
f 296/757/275 300/758/276 299/759/277
f 296/757/275 299/759/277 295/760/278
f 296/757/275 295/760/278 297/761/279
f 296/757/275 297/761/279 298/762/280
f 296/757/275 298/762/280 301/763/281
f 301/764/281 298/765/280 297/766/279
f 301/764/281 295/767/278 299/768/277
f 301/764/281 299/768/277 300/769/276
f 301/764/281 300/769/276 296/770/275
f 301/764/281 297/766/279 295/767/278
f 323/771/282 320/772/283 322/773/284
f 320/774/283 321/775/285 322/776/284
f 320/774/283 323/777/282 321/775/285
f 323/771/282 322/773/284 321/778/285
f 324/779/286 330/780/287 327/781/288
f 324/779/286 329/782/289 330/780/287
f 326/783/290 324/784/286 327/785/288
f 326/786/290 329/787/289 324/788/286
f 325/789/291 328/790/292 331/791/293
f 325/789/291 326/792/290 328/790/292
f 329/793/289 325/794/291 331/795/293
f 326/786/290 325/796/291 329/787/289
f 326/783/290 327/785/288 328/797/292
f 327/798/288 330/799/287 331/800/293
f 327/798/288 331/800/293 328/801/292
f 329/793/289 331/795/293 330/802/287
f 332/803/294 333/804/295 334/805/296
f 335/806/297 332/807/294 334/808/296
f 335/809/297 333/810/295 332/811/294
f 334/812/296 333/813/295 337/814/298
f 334/812/296 337/814/298 335/815/297
f 336/816/299 335/817/297 337/818/298
f 335/809/297 336/819/299 333/810/295
f 333/820/295 336/821/299 337/822/298
f 338/823/271 341/824/272 339/825/274
f 338/826/271 339/827/274 343/828/270
f 338/823/271 342/829/267 341/824/272
f 342/830/267 338/831/271 340/832/268
f 338/826/271 343/828/270 340/833/268
f 339/834/274 344/835/273 343/836/270
f 339/834/274 341/837/272 344/835/273
f 342/830/267 340/832/268 345/838/269
f 343/839/270 345/840/269 340/841/268
f 341/842/272 345/843/269 344/844/273
f 341/842/272 342/845/267 345/843/269
f 343/839/270 344/846/273 345/840/269
f 346/847/275 349/848/276 347/849/277
f 346/847/275 347/849/277 352/850/278
f 346/847/275 352/850/278 348/851/279
f 346/847/275 348/851/279 351/852/280
f 346/847/275 351/852/280 350/853/281
f 350/854/281 351/855/280 348/856/279
f 350/854/281 348/856/279 352/857/278
f 350/854/281 347/858/277 349/859/276
f 350/854/281 349/859/276 346/860/275
f 350/854/281 352/857/278 347/858/277
f 374/861/282 371/862/284 372/863/285
f 374/861/282 373/864/283 371/862/284
f 373/865/283 372/866/285 371/867/284
f 373/865/283 374/868/282 372/866/285
f 375/869/286 381/870/287 378/871/288
f 375/869/286 380/872/289 381/870/287
f 377/873/290 375/874/286 378/875/288
f 377/876/290 380/877/289 375/878/286
f 376/879/291 382/880/292 379/881/293
f 376/879/291 377/882/290 382/880/292
f 380/883/289 376/884/291 379/885/293
f 377/876/290 376/886/291 380/877/289
f 377/873/290 378/875/288 382/887/292
f 378/888/288 379/889/293 382/890/292
f 378/888/288 381/891/287 379/889/293
f 380/883/289 379/885/293 381/892/287
f 384/893/286 383/894/287 389/895/288
f 389/896/288 383/897/287 386/898/293
f 384/893/286 387/899/289 383/894/287
f 387/900/289 386/901/293 383/902/287
f 388/903/290 384/904/286 389/905/288
f 388/906/290 387/907/289 384/908/286
f 387/900/289 385/909/291 386/901/293
f 385/910/291 390/911/292 386/912/293
f 385/910/291 388/913/290 390/911/292
f 388/906/290 385/914/291 387/907/289
f 389/896/288 386/898/293 390/915/292
f 388/903/290 389/905/288 390/916/292
f 391/917/300 395/918/301 394/919/302
f 391/920/300 394/921/302 393/922/303
f 391/920/300 393/922/303 396/923/304
f 393/924/303 392/925/305 396/926/304
f 395/927/301 396/928/304 392/929/305
f 394/930/302 392/931/305 393/932/303
f 394/930/302 395/933/301 392/931/305
f 395/927/301 391/934/300 396/928/304
f 398/935/301 397/936/300 402/937/304
f 398/935/301 402/937/304 401/938/305
f 397/939/300 398/940/301 399/941/302
f 399/942/302 398/943/301 401/944/305
f 399/942/302 401/944/305 400/945/306
f 400/946/306 401/947/305 402/948/304
f 397/949/300 400/950/306 402/951/304
f 397/949/300 399/952/302 400/950/306
f 406/953/307 403/954/308 410/955/309
f 410/956/309 403/957/308 409/958/310
f 406/953/307 408/959/311 403/954/308
f 408/960/311 409/961/310 403/962/308
f 404/963/312 405/964/313 409/965/310
f 404/963/312 407/966/314 405/964/313
f 408/960/311 404/967/312 409/961/310
f 407/968/314 404/969/312 408/970/311
f 410/956/309 409/958/310 405/971/313
f 407/972/314 410/973/309 405/974/313
f 407/972/314 406/975/307 410/973/309
f 407/968/314 408/970/311 406/976/307
f 411/977/315 417/978/316 415/979/317
f 411/977/315 416/980/318 417/978/316
f 414/981/319 411/982/315 415/983/317
f 414/984/319 416/985/318 411/986/315
f 415/987/317 413/988/320 412/989/321
f 418/990/322 412/991/321 413/992/320
f 418/990/322 414/993/319 412/991/321
f 414/981/319 415/983/317 412/994/321
f 416/995/318 418/996/322 413/997/320
f 416/995/318 413/997/320 417/998/316
f 415/987/317 417/999/316 413/988/320
f 414/984/319 418/1000/322 416/985/318
f 26/5/323 27/79/323 28/6/323
f 32/8/324 33/210/324 34/9/324
f 37/11/325 38/1001/325 39/12/325
f 40/14/326 41/87/48 42/15/117
f 47/17/327 48/65/327 49/18/327
f 50/20/328 51/229/57 52/21/119
f 57/23/329 58/88/329 59/24/329
f 61/26/330 62/74/8 63/27/8
f 66/29/331 65/89/51 67/30/128
f 69/32/332 70/92/54 71/33/130
f 74/35/333 75/93/333 76/36/333
f 79/38/334 77/95/334 80/39/334
f 36/1002/335 39/218/335 35/217/335
f 306/1003/65 307/1004/65 305/1005/65
f 365/1006/68 366/1007/67 367/1008/66
f 61/45/336 64/187/88 21/46/86
f 23/186/87 46/193/92 49/1009/92
f 47/17/8 46/19/8 64/28/8
f 30/48/337 38/198/337 37/49/337
f 24/197/95 25/199/95 28/1010/95
f 26/51/2 25/1011/4 39/52/338
f 45/61/339 49/1012/339 48/62/339
f 31/64/340 34/90/340 48/65/340
f 35/72/113 73/37/112 76/36/341
f 53/66/3 37/207/3 36/67/3
f 73/69/7 43/1013/7 42/70/7
f 31/10/342 53/22/342 52/21/342
f 60/230/122 62/1014/127 61/231/343
f 68/31/8 63/27/8 62/74/8
f 55/76/344 28/1015/344 27/77/344
f 78/40/345 80/39/345 27/79/345
f 56/81/12 72/1016/12 71/82/12
f 78/84/346 68/1017/346 67/85/346
f 41/87/48 40/14/347 59/24/49
f 65/89/51 66/29/348 34/90/52
f 70/92/54 69/32/349 76/36/55
f 51/94/57 50/68/350 80/39/58
f 178/471/351 169/107/351 170/106/351
f 174/96/352 173/484/352 171/97/352
f 177/99/353 176/1018/353 207/100/353
f 175/102/354 205/483/354 206/1019/354
f 204/488/355 172/481/356 171/485/357
f 209/555/205 208/476/358 207/479/203
f 252/1020/359 253/1021/359 251/1022/359
f 253/1023/359 252/1024/359 251/1025/359
f 255/1026/65 256/1027/65 254/1028/65
f 256/1029/65 255/1030/65 254/1031/65
f 267/1032/65 266/1033/65 265/1034/65
f 266/1035/65 267/1036/65 265/1037/65
f 270/1038/1 269/1039/1 268/1040/1
f 269/1041/1 270/1042/1 268/1043/1
f 302/1044/65 304/1045/65 303/1046/65
f 304/1047/65 302/1048/65 303/1049/65
f 307/1050/65 306/1051/65 305/1052/65
f 316/1053/65 315/1054/65 314/1055/65
f 315/1056/65 316/1057/65 314/1058/65
f 358/1059/65 357/1060/65 356/1061/65
f 357/1062/65 358/1063/65 356/1064/65
f 360/1065/360 359/1066/100 361/1067/100
f 359/1068/100 360/1069/360 361/1070/100
f 363/1071/125 362/1072/125 364/1073/125
f 362/1074/125 363/1075/125 364/1076/125
f 369/1077/361 370/1078/362 368/1079/100
f 370/1080/362 369/1081/361 368/1082/100
f 64/1083/363 22/191/363 63/190/363
f 22/191/26 28/188/90 63/190/125
f 27/189/364 26/1084/364 63/190/364
f 27/1085/365 55/203/365 26/202/365
f 55/203/44 61/231/120 63/201/100
f 69/200/97 27/77/99 71/205/101
f 27/77/99 80/1086/101 79/204/101
f 47/17/366 26/5/366 38/206/366
f 37/209/100 30/194/23 49/196/93
f 48/208/367 47/1087/367 37/209/367
f 40/226/115 48/62/105 42/212/1
f 48/62/105 34/1088/1 32/211/1
f 34/215/101 59/1089/101 40/213/101
f 42/1090/101 32/214/101 40/213/101
f 67/1091/101 57/1092/101 66/1093/101
f 66/1093/101 57/1092/101 59/1089/101
f 59/1089/101 34/215/101 66/1093/101
f 50/220/108 35/219/107 52/223/111
f 35/219/107 76/1094/368 74/222/110
f 48/225/369 45/216/36 39/218/106
f 52/1095/1 74/1096/1 50/1097/1
f 50/1097/1 74/1096/1 76/1098/1
f 76/1098/1 80/245/1 50/1097/1
f 66/236/126 60/233/122 67/235/124
f 60/233/122 59/1099/370 57/234/123
f 80/245/1 76/1098/1 69/243/1
f 71/1100/1 79/244/1 69/243/1
f 169/468/100 170/1101/100 172/469/100
f 206/473/125 205/1102/125 172/474/125
f 170/475/125 169/1103/125 208/478/125
f 207/479/100 208/476/100 169/472/100
f 170/106/371 204/480/355 171/97/357
f 171/485/100 172/481/100 205/483/100
f 208/470/100 172/469/100 205/486/100
f 207/100/100 208/101/100 206/109/100
